<?xml version="1.0" encoding="utf-8" standalone="no"?>
<!DOCTYPE svg PUBLIC "-//W3C//DTD SVG 1.1//EN"
  "http://www.w3.org/Graphics/SVG/1.1/DTD/svg11.dtd">
<svg xmlns:xlink="http://www.w3.org/1999/xlink" width="288pt" height="216pt" viewBox="0 0 288 216" xmlns="http://www.w3.org/2000/svg" version="1.1">
 <metadata>
  <rdf:RDF xmlns:dc="http://purl.org/dc/elements/1.1/" xmlns:cc="http://creativecommons.org/ns#" xmlns:rdf="http://www.w3.org/1999/02/22-rdf-syntax-ns#">
   <cc:Work>
    <dc:type rdf:resource="http://purl.org/dc/dcmitype/StillImage"/>
    <dc:date>2023-07-18T20:46:23.569302</dc:date>
    <dc:format>image/svg+xml</dc:format>
    <dc:creator>
     <cc:Agent>
      <dc:title>Matplotlib v3.7.1, https://matplotlib.org/</dc:title>
     </cc:Agent>
    </dc:creator>
   </cc:Work>
  </rdf:RDF>
 </metadata>
 <defs>
  <style type="text/css">*{stroke-linejoin: round; stroke-linecap: butt}</style>
 </defs>
 <g id="figure_1">
  <g id="patch_1">
   <path d="M 0 216 
L 288 216 
L 288 0 
L 0 0 
z
" style="fill: #ffffff"/>
  </g>
  <g id="axes_1">
   <g id="patch_2">
    <path d="M 36 192.24 
L 214.56 192.24 
L 214.56 25.92 
L 36 25.92 
z
" style="fill: #ffffff"/>
   </g>
   <g id="PathCollection_1">
    <path d="M 36 186.696 
L 36 181.152 
L 36 175.608 
L 36 170.064 
L 36 164.52 
L 36 158.976 
L 36 153.432 
L 36 147.888 
L 36 142.344 
L 36 136.8 
L 36 131.256 
L 36 125.712 
L 36 120.168 
L 36 114.624 
L 36 109.08 
L 36 103.536 
L 36 97.992 
L 36 92.448 
L 36 86.904 
L 36 81.36 
L 36 75.816 
L 36 70.272 
L 36 64.728 
L 36 59.184 
L 36 53.64 
L 36 48.096 
L 36 42.552 
L 36 37.008 
L 36 31.464 
L 36 25.92 
L 41.952 25.92 
L 42.120911 25.92 
L 41.952 29.731071 
L 40.953829 31.464 
L 39.209221 37.008 
L 38.365633 42.552 
L 37.868671 48.096 
L 37.541412 53.64 
L 37.309884 59.184 
L 37.137705 64.728 
L 37.004906 70.272 
L 36.899627 75.816 
L 36.814396 81.36 
L 36.744285 86.904 
L 36.685934 92.448 
L 36.636998 97.992 
L 36.595824 103.536 
L 36.561256 109.08 
L 36.53253 114.624 
L 36.509215 120.168 
L 36.491226 125.712 
L 36.478896 131.256 
L 36.473175 136.8 
L 36.476094 142.344 
L 36.491895 147.888 
L 36.530196 153.432 
L 36.617122 158.976 
L 36.854451 164.52 
L 38.383204 170.064 
L 41.952 173.388161 
L 42.51771 175.608 
L 47.904 180.625068 
L 49.542899 181.152 
L 53.856 185.169445 
L 59.808 185.84988 
L 65.76 185.966823 
L 71.712 185.970962 
L 77.664 185.916947 
L 83.616 185.808844 
L 89.568 185.626114 
L 95.52 185.308967 
L 101.472 184.677276 
L 107.424 182.905689 
L 109.550496 181.152 
L 113.376 180.812755 
L 119.328 180.707685 
L 125.28 180.65688 
L 131.232 180.593974 
L 137.184 180.51437 
L 143.136 180.4107 
L 149.088 180.270402 
L 155.04 180.070213 
L 160.992 179.761742 
L 166.944 179.225068 
L 172.896 178.059198 
L 177.350255 175.608 
L 178.848 175.413367 
L 184.8 174.847533 
L 190.752 174.725227 
L 196.704 174.560687 
L 202.656 174.327479 
L 208.608 173.971275 
L 214.56 173.359889 
L 214.56 175.608 
L 214.56 181.152 
L 214.56 186.696 
L 214.56 192.24 
L 208.608 192.24 
L 202.656 192.24 
L 196.704 192.24 
L 190.752 192.24 
L 184.8 192.24 
L 178.848 192.24 
L 172.896 192.24 
L 166.944 192.24 
L 160.992 192.24 
L 155.04 192.24 
L 149.088 192.24 
L 143.136 192.24 
L 137.184 192.24 
L 131.232 192.24 
L 125.28 192.24 
L 119.328 192.24 
L 113.376 192.24 
L 107.424 192.24 
L 101.472 192.24 
L 95.52 192.24 
L 89.568 192.24 
L 83.616 192.24 
L 77.664 192.24 
L 71.712 192.24 
L 65.76 192.24 
L 59.808 192.24 
L 53.856 192.24 
L 47.904 192.24 
L 41.952 192.24 
L 36 192.24 
z
" clip-path="url(#pb32c73cefd)" style="fill: #440154"/>
    <path d="M 211.493893 25.92 
L 214.56 25.92 
L 214.56 30.001186 
z
" clip-path="url(#pb32c73cefd)" style="fill: #440154"/>
   </g>
   <g id="PathCollection_2">
    <path d="M 38.383204 170.064 
L 36.854451 164.52 
L 36.617122 158.976 
L 36.530196 153.432 
L 36.491895 147.888 
L 36.476094 142.344 
L 36.473175 136.8 
L 36.478896 131.256 
L 36.491226 125.712 
L 36.509215 120.168 
L 36.53253 114.624 
L 36.561256 109.08 
L 36.595824 103.536 
L 36.636998 97.992 
L 36.685934 92.448 
L 36.744285 86.904 
L 36.814396 81.36 
L 36.899627 75.816 
L 37.004906 70.272 
L 37.137705 64.728 
L 37.309884 59.184 
L 37.541412 53.64 
L 37.868671 48.096 
L 38.365633 42.552 
L 39.209221 37.008 
L 40.953829 31.464 
L 41.952 29.731071 
L 42.120911 25.92 
L 43.196998 25.92 
L 42.951281 31.464 
L 42.702311 37.008 
L 42.45021 42.552 
L 42.195155 48.096 
L 41.952 53.325669 
L 41.8929 53.64 
L 41.007758 59.184 
L 40.349507 64.728 
L 39.841809 70.272 
L 39.439325 75.816 
L 39.113481 81.36 
L 38.845443 86.904 
L 38.622364 92.448 
L 38.435279 97.992 
L 38.277868 103.536 
L 38.145714 109.08 
L 38.03589 114.624 
L 37.946756 120.168 
L 37.877984 125.712 
L 37.830846 131.256 
L 37.808974 136.8 
L 37.820133 142.344 
L 37.880542 147.888 
L 38.026968 153.432 
L 38.35929 158.976 
L 39.266611 164.52 
L 41.952 168.419341 
L 42.457281 170.064 
L 44.114741 175.608 
L 47.904 179.137512 
L 53.856 181.074011 
L 54.24596 181.152 
L 59.808 183.461239 
L 65.76 183.908318 
L 71.712 183.924142 
L 77.664 183.71764 
L 83.616 183.304356 
L 89.568 182.605766 
L 95.52 181.393299 
L 96.34788 181.152 
L 101.472 180.713134 
L 107.424 180.189961 
L 113.376 179.66214 
L 119.328 179.453359 
L 125.28 179.259131 
L 131.232 179.018635 
L 137.184 178.714306 
L 143.136 178.317971 
L 149.088 177.781604 
L 155.04 177.016268 
L 160.992 175.836967 
L 161.874611 175.608 
L 166.944 174.917136 
L 172.896 174.12503 
L 178.848 173.351563 
L 184.8 172.700692 
L 190.752 172.233111 
L 196.704 171.604067 
L 202.656 170.712499 
L 205.855086 170.064 
L 208.608 169.523295 
L 214.56 168.380374 
L 214.56 170.064 
L 214.56 173.359889 
L 208.608 173.971275 
L 202.656 174.327479 
L 196.704 174.560687 
L 190.752 174.725227 
L 184.8 174.847533 
L 178.848 175.413367 
L 177.350255 175.608 
L 172.896 178.059198 
L 166.944 179.225068 
L 160.992 179.761742 
L 155.04 180.070213 
L 149.088 180.270402 
L 143.136 180.4107 
L 137.184 180.51437 
L 131.232 180.593974 
L 125.28 180.65688 
L 119.328 180.707685 
L 113.376 180.812755 
L 109.550496 181.152 
L 107.424 182.905689 
L 101.472 184.677276 
L 95.52 185.308967 
L 89.568 185.626114 
L 83.616 185.808844 
L 77.664 185.916947 
L 71.712 185.970962 
L 65.76 185.966823 
L 59.808 185.84988 
L 53.856 185.169445 
L 49.542899 181.152 
L 47.904 180.625068 
L 42.51771 175.608 
L 41.952 173.388161 
z
" clip-path="url(#pb32c73cefd)" style="fill: #481769"/>
    <path d="M 193.868062 25.92 
L 196.704 25.92 
L 202.656 25.92 
L 208.608 25.92 
L 211.493893 25.92 
L 214.56 30.001186 
L 214.56 31.464 
L 214.56 37.008 
L 214.56 42.552 
L 214.56 48.096 
L 214.56 53.583154 
L 210.235411 48.096 
L 208.608 46.009125 
L 205.972266 42.552 
L 202.656 38.151288 
L 201.813951 37.008 
L 197.781408 31.464 
L 196.704 29.963147 
z
" clip-path="url(#pb32c73cefd)" style="fill: #481769"/>
   </g>
   <g id="PathCollection_3">
    <path d="M 39.266611 164.52 
L 38.35929 158.976 
L 38.026968 153.432 
L 37.880542 147.888 
L 37.820133 142.344 
L 37.808974 136.8 
L 37.830846 131.256 
L 37.877984 125.712 
L 37.946756 120.168 
L 38.03589 114.624 
L 38.145714 109.08 
L 38.277868 103.536 
L 38.435279 97.992 
L 38.622364 92.448 
L 38.845443 86.904 
L 39.113481 81.36 
L 39.439325 75.816 
L 39.841809 70.272 
L 40.349507 64.728 
L 41.007758 59.184 
L 41.8929 53.64 
L 41.952 53.325669 
L 42.195155 48.096 
L 42.45021 42.552 
L 42.702311 37.008 
L 42.951281 31.464 
L 43.196998 25.92 
L 44.273085 25.92 
L 44.027368 31.464 
L 43.778398 37.008 
L 43.526297 42.552 
L 43.271242 48.096 
L 43.013472 53.64 
L 42.753311 59.184 
L 42.491186 64.728 
L 42.227655 70.272 
L 41.963449 75.816 
L 41.952 76.056497 
L 41.412566 81.36 
L 40.9466 86.904 
L 40.558793 92.448 
L 40.23356 97.992 
L 39.959911 103.536 
L 39.730172 109.08 
L 39.53925 114.624 
L 39.384297 120.168 
L 39.264742 125.712 
L 39.182795 131.256 
L 39.144773 136.8 
L 39.164173 142.344 
L 39.269189 147.888 
L 39.523741 153.432 
L 40.101458 158.976 
L 41.678772 164.52 
L 41.952 164.916744 
L 43.533368 170.064 
L 45.711772 175.608 
L 47.904 177.649955 
L 53.856 179.923395 
L 59.808 181.113752 
L 60.339536 181.152 
L 65.76 181.849813 
L 71.712 181.877321 
L 77.664 181.518332 
L 80.891573 181.152 
L 83.616 180.990222 
L 89.568 180.555204 
L 95.52 180.07229 
L 101.472 179.562518 
L 107.424 179.039346 
L 113.376 178.511524 
L 119.328 178.199034 
L 125.28 177.861381 
L 131.232 177.443296 
L 137.184 176.914242 
L 143.136 176.225242 
L 147.30003 175.608 
L 149.088 175.346882 
L 155.04 174.496958 
L 160.992 173.666479 
L 166.944 172.855332 
L 172.896 172.063226 
L 178.848 171.289759 
L 184.8 170.553852 
L 188.595833 170.064 
L 190.752 169.610027 
L 196.704 168.385861 
L 202.656 167.18974 
L 208.608 166.020697 
L 214.56 164.877776 
L 214.56 168.380374 
L 208.608 169.523295 
L 205.855086 170.064 
L 202.656 170.712499 
L 196.704 171.604067 
L 190.752 172.233111 
L 184.8 172.700692 
L 178.848 173.351563 
L 172.896 174.12503 
L 166.944 174.917136 
L 161.874611 175.608 
L 160.992 175.836967 
L 155.04 177.016268 
L 149.088 177.781604 
L 143.136 178.317971 
L 137.184 178.714306 
L 131.232 179.018635 
L 125.28 179.259131 
L 119.328 179.453359 
L 113.376 179.66214 
L 107.424 180.189961 
L 101.472 180.713134 
L 96.34788 181.152 
L 95.52 181.393299 
L 89.568 182.605766 
L 83.616 183.304356 
L 77.664 183.71764 
L 71.712 183.924142 
L 65.76 183.908318 
L 59.808 183.461239 
L 54.24596 181.152 
L 53.856 181.074011 
L 47.904 179.137512 
L 44.114741 175.608 
L 42.457281 170.064 
L 41.952 168.419341 
z
" clip-path="url(#pb32c73cefd)" style="fill: #472e7c"/>
    <path d="M 177.373947 25.92 
L 178.848 25.92 
L 184.8 25.92 
L 190.752 25.92 
L 193.868062 25.92 
L 196.704 29.963147 
L 197.781408 31.464 
L 201.813951 37.008 
L 202.656 38.151288 
L 205.972266 42.552 
L 208.608 46.009125 
L 210.235411 48.096 
L 214.56 53.583154 
L 214.56 53.64 
L 214.56 59.184 
L 214.56 64.728 
L 214.56 70.272 
L 214.56 75.816 
L 214.56 76.307971 
L 214.162994 75.816 
L 209.684504 70.272 
L 208.608 68.935963 
L 205.293218 64.728 
L 202.656 61.36223 
L 200.987905 59.184 
L 196.774116 53.64 
L 196.704 53.546894 
L 192.693101 48.096 
L 190.752 45.429933 
L 188.705146 42.552 
L 184.807799 37.008 
L 184.8 36.996767 
L 181.048498 31.464 
L 178.848 28.175698 
z
" clip-path="url(#pb32c73cefd)" style="fill: #472e7c"/>
   </g>
   <g id="PathCollection_4">
    <path d="M 41.678772 164.52 
L 40.101458 158.976 
L 39.523741 153.432 
L 39.269189 147.888 
L 39.164173 142.344 
L 39.144773 136.8 
L 39.182795 131.256 
L 39.264742 125.712 
L 39.384297 120.168 
L 39.53925 114.624 
L 39.730172 109.08 
L 39.959911 103.536 
L 40.23356 97.992 
L 40.558793 92.448 
L 40.9466 86.904 
L 41.412566 81.36 
L 41.952 76.056497 
L 41.963449 75.816 
L 42.227655 70.272 
L 42.491186 64.728 
L 42.753311 59.184 
L 43.013472 53.64 
L 43.271242 48.096 
L 43.526297 42.552 
L 43.778398 37.008 
L 44.027368 31.464 
L 44.273085 25.92 
L 45.349172 25.92 
L 45.103455 31.464 
L 44.854485 37.008 
L 44.602384 42.552 
L 44.347328 48.096 
L 44.089559 53.64 
L 43.829398 59.184 
L 43.567272 64.728 
L 43.303742 70.272 
L 43.039536 75.816 
L 42.775605 81.36 
L 42.513181 86.904 
L 42.253872 92.448 
L 41.999777 97.992 
L 41.952 99.068163 
L 41.641955 103.536 
L 41.314629 109.08 
L 41.042609 114.624 
L 40.821838 120.168 
L 40.6515 125.712 
L 40.534745 131.256 
L 40.480572 136.8 
L 40.508212 142.344 
L 40.657836 147.888 
L 41.020513 153.432 
L 41.843626 158.976 
L 41.952 159.339432 
L 42.906197 164.52 
L 44.609455 170.064 
L 47.308802 175.608 
L 47.904 176.162398 
L 53.856 178.772779 
L 59.808 179.963136 
L 65.76 180.391431 
L 71.712 180.409122 
L 77.664 180.193039 
L 83.616 179.839607 
L 89.568 179.404588 
L 95.52 178.921674 
L 101.472 178.411903 
L 107.424 177.88873 
L 113.376 177.360908 
L 119.328 176.944708 
L 125.28 176.463632 
L 131.232 175.867958 
L 133.467519 175.608 
L 137.184 175.042373 
L 143.136 174.154316 
L 149.088 173.285078 
L 155.04 172.435153 
L 160.992 171.604675 
L 166.944 170.793528 
L 172.42578 170.064 
L 172.896 169.957693 
L 178.848 168.643724 
L 184.8 167.360601 
L 190.752 166.107429 
L 196.704 164.883264 
L 198.511631 164.52 
L 202.656 163.130793 
L 208.608 161.180828 
L 214.56 159.274434 
L 214.56 164.52 
L 214.56 164.877776 
L 208.608 166.020697 
L 202.656 167.18974 
L 196.704 168.385861 
L 190.752 169.610027 
L 188.595833 170.064 
L 184.8 170.553852 
L 178.848 171.289759 
L 172.896 172.063226 
L 166.944 172.855332 
L 160.992 173.666479 
L 155.04 174.496958 
L 149.088 175.346882 
L 147.30003 175.608 
L 143.136 176.225242 
L 137.184 176.914242 
L 131.232 177.443296 
L 125.28 177.861381 
L 119.328 178.199034 
L 113.376 178.511524 
L 107.424 179.039346 
L 101.472 179.562518 
L 95.52 180.07229 
L 89.568 180.555204 
L 83.616 180.990222 
L 80.891573 181.152 
L 77.664 181.518332 
L 71.712 181.877321 
L 65.76 181.849813 
L 60.339536 181.152 
L 59.808 181.113752 
L 53.856 179.923395 
L 47.904 177.649955 
L 45.711772 175.608 
L 43.533368 170.064 
L 41.952 164.916744 
z
" clip-path="url(#pb32c73cefd)" style="fill: #414287"/>
    <path d="M 165.351802 31.464 
L 161.897203 25.92 
L 166.944 25.92 
L 172.896 25.92 
L 177.373947 25.92 
L 178.848 28.175698 
L 181.048498 31.464 
L 184.8 36.996767 
L 184.807799 37.008 
L 188.705146 42.552 
L 190.752 45.429933 
L 192.693101 48.096 
L 196.704 53.546894 
L 196.774116 53.64 
L 200.987905 59.184 
L 202.656 61.36223 
L 205.293218 64.728 
L 208.608 68.935963 
L 209.684504 70.272 
L 214.162994 75.816 
L 214.56 76.307971 
L 214.56 81.36 
L 214.56 86.904 
L 214.56 92.448 
L 214.56 97.992 
L 214.56 99.337826 
L 213.547217 97.992 
L 209.240098 92.448 
L 208.608 91.650739 
L 204.928704 86.904 
L 202.656 84.006736 
L 200.626819 81.36 
L 196.704 76.272557 
L 196.360024 75.816 
L 192.178757 70.272 
L 190.752 68.375398 
L 188.071685 64.728 
L 184.8 60.251997 
L 184.03758 59.184 
L 180.109504 53.64 
L 178.848 51.843022 
L 176.279289 48.096 
L 172.896 43.108223 
L 172.527583 42.552 
L 168.898022 37.008 
L 166.944 33.985791 
z
" clip-path="url(#pb32c73cefd)" style="fill: #414287"/>
   </g>
   <g id="PathCollection_5">
    <path d="M 41.843626 158.976 
L 41.020513 153.432 
L 40.657836 147.888 
L 40.508212 142.344 
L 40.480572 136.8 
L 40.534745 131.256 
L 40.6515 125.712 
L 40.821838 120.168 
L 41.042609 114.624 
L 41.314629 109.08 
L 41.641955 103.536 
L 41.952 99.068163 
L 41.999777 97.992 
L 42.253872 92.448 
L 42.513181 86.904 
L 42.775605 81.36 
L 43.039536 75.816 
L 43.303742 70.272 
L 43.567272 64.728 
L 43.829398 59.184 
L 44.089559 53.64 
L 44.347328 48.096 
L 44.602384 42.552 
L 44.854485 37.008 
L 45.103455 31.464 
L 45.349172 25.92 
L 46.425259 25.92 
L 46.179542 31.464 
L 45.930572 37.008 
L 45.678471 42.552 
L 45.423415 48.096 
L 45.165646 53.64 
L 44.905485 59.184 
L 44.643359 64.728 
L 44.379829 70.272 
L 44.115623 75.816 
L 43.851692 81.36 
L 43.589268 86.904 
L 43.329959 92.448 
L 43.075864 97.992 
L 42.829736 103.536 
L 42.595216 109.08 
L 42.377156 114.624 
L 42.182092 120.168 
L 42.018934 125.712 
L 41.952 128.832592 
L 41.886695 131.256 
L 41.816371 136.8 
L 41.852252 142.344 
L 41.952 145.236341 
L 42.025217 147.888 
L 42.358405 153.432 
L 42.961147 158.976 
L 43.982284 164.52 
L 45.685542 170.064 
L 47.904 174.31461 
L 49.47424 175.608 
L 53.856 177.622164 
L 59.808 178.81252 
L 65.76 179.240816 
L 71.712 179.258506 
L 77.664 179.042423 
L 83.616 178.688991 
L 89.568 178.253972 
L 95.52 177.771058 
L 101.472 177.261287 
L 107.424 176.738114 
L 113.376 176.210293 
L 119.328 175.690382 
L 120.189948 175.608 
L 125.28 174.808328 
L 131.232 173.886429 
L 137.184 172.980569 
L 143.136 172.092512 
L 149.088 171.223274 
L 155.04 170.373349 
L 157.257094 170.064 
L 160.992 169.178705 
L 166.944 167.800726 
L 172.896 166.455095 
L 178.848 165.141126 
L 181.729208 164.52 
L 184.8 163.41579 
L 190.752 161.325496 
L 196.704 159.283587 
L 197.621614 158.976 
L 202.656 156.117043 
L 207.493653 153.432 
L 208.608 152.313135 
L 213.115992 147.888 
L 214.56 144.802762 
L 214.56 147.888 
L 214.56 153.432 
L 214.56 158.976 
L 214.56 159.274434 
L 208.608 161.180828 
L 202.656 163.130793 
L 198.511631 164.52 
L 196.704 164.883264 
L 190.752 166.107429 
L 184.8 167.360601 
L 178.848 168.643724 
L 172.896 169.957693 
L 172.42578 170.064 
L 166.944 170.793528 
L 160.992 171.604675 
L 155.04 172.435153 
L 149.088 173.285078 
L 143.136 174.154316 
L 137.184 175.042373 
L 133.467519 175.608 
L 131.232 175.867958 
L 125.28 176.463632 
L 119.328 176.944708 
L 113.376 177.360908 
L 107.424 177.88873 
L 101.472 178.411903 
L 95.52 178.921674 
L 89.568 179.404588 
L 83.616 179.839607 
L 77.664 180.193039 
L 71.712 180.409122 
L 65.76 180.391431 
L 59.808 179.963136 
L 53.856 178.772779 
L 47.904 176.162398 
L 47.308802 175.608 
L 44.609455 170.064 
L 42.906197 164.52 
L 41.952 159.339432 
z
" clip-path="url(#pb32c73cefd)" style="fill: #39568c"/>
    <path d="M 147.321112 25.92 
L 149.088 25.92 
L 155.04 25.92 
L 160.992 25.92 
L 161.897203 25.92 
L 165.351802 31.464 
L 166.944 33.985791 
L 168.898022 37.008 
L 172.527583 42.552 
L 172.896 43.108223 
L 176.279289 48.096 
L 178.848 51.843022 
L 180.109504 53.64 
L 184.03758 59.184 
L 184.8 60.251997 
L 188.071685 64.728 
L 190.752 68.375398 
L 192.178757 70.272 
L 196.360024 75.816 
L 196.704 76.272557 
L 200.626819 81.36 
L 202.656 84.006736 
L 204.928704 86.904 
L 208.608 91.650739 
L 209.240098 92.448 
L 213.547217 97.992 
L 214.56 99.337826 
L 214.56 103.536 
L 214.56 109.08 
L 214.56 114.624 
L 214.56 120.168 
L 214.56 125.712 
L 214.56 129.390744 
L 213.222491 125.712 
L 210.456839 120.168 
L 208.608 117.068053 
L 207.182914 114.624 
L 203.569228 109.08 
L 202.656 107.777291 
L 199.75007 103.536 
L 196.704 99.299851 
L 195.785114 97.992 
L 191.763843 92.448 
L 190.752 91.081047 
L 187.731642 86.904 
L 184.8 82.897763 
L 183.700978 81.36 
L 179.715971 75.816 
L 178.848 74.609719 
L 175.800097 70.272 
L 172.896 66.128355 
L 171.937647 64.728 
L 168.163756 59.184 
L 166.944 57.378597 
L 164.477447 53.64 
L 160.992 48.308036 
L 160.856621 48.096 
L 157.354192 42.552 
L 155.04 38.84593 
L 153.918596 37.008 
L 150.577948 31.464 
L 149.088 28.958599 
z
" clip-path="url(#pb32c73cefd)" style="fill: #39568c"/>
   </g>
   <g id="PathCollection_6">
    <path d="M 41.852252 142.344 
L 41.816371 136.8 
L 41.886695 131.256 
L 41.952 128.832592 
L 42.018934 125.712 
L 42.182092 120.168 
L 42.377156 114.624 
L 42.595216 109.08 
L 42.829736 103.536 
L 43.075864 97.992 
L 43.329959 92.448 
L 43.589268 86.904 
L 43.851692 81.36 
L 44.115623 75.816 
L 44.379829 70.272 
L 44.643359 64.728 
L 44.905485 59.184 
L 45.165646 53.64 
L 45.423415 48.096 
L 45.678471 42.552 
L 45.930572 37.008 
L 46.179542 31.464 
L 46.425259 25.92 
L 47.501346 25.92 
L 47.255629 31.464 
L 47.006659 37.008 
L 46.754558 42.552 
L 46.499502 48.096 
L 46.241733 53.64 
L 45.981572 59.184 
L 45.719446 64.728 
L 45.455916 70.272 
L 45.19171 75.816 
L 44.927779 81.36 
L 44.665355 86.904 
L 44.406046 92.448 
L 44.151951 97.992 
L 43.905823 103.536 
L 43.671303 109.08 
L 43.453243 114.624 
L 43.258179 120.168 
L 43.095021 125.712 
L 42.976107 131.256 
L 42.918828 136.8 
L 42.948225 142.344 
L 43.101303 147.888 
L 43.434492 153.432 
L 44.037234 158.976 
L 45.058371 164.52 
L 46.761629 170.064 
L 47.904 172.252806 
L 51.977374 175.608 
L 53.856 176.471548 
L 59.808 177.661904 
L 65.76 178.0902 
L 71.712 178.107891 
L 77.664 177.891807 
L 83.616 177.538375 
L 89.568 177.103356 
L 95.52 176.620443 
L 101.472 176.110671 
L 107.190759 175.608 
L 107.424 175.571263 
L 113.376 174.625452 
L 119.328 173.681612 
L 125.28 172.746524 
L 131.232 171.824625 
L 137.184 170.918765 
L 142.91287 170.064 
L 143.136 170.007444 
L 149.088 168.53078 
L 155.04 167.086926 
L 160.992 165.676108 
L 165.985653 164.52 
L 166.944 164.149917 
L 172.896 161.905403 
L 178.848 159.713702 
L 180.899538 158.976 
L 184.8 156.59987 
L 190.124398 153.432 
L 190.752 152.756505 
L 195.382508 147.888 
L 196.704 144.863821 
L 197.830916 142.344 
L 198.307054 136.8 
L 197.37931 131.256 
L 196.704 129.312142 
L 195.481938 125.712 
L 192.899834 120.168 
L 190.752 116.310734 
L 189.83452 114.624 
L 186.463432 109.08 
L 184.8 106.536371 
L 182.883675 103.536 
L 179.167477 97.992 
L 178.848 97.530334 
L 175.413542 92.448 
L 172.896 88.797421 
L 171.620968 86.904 
L 167.842789 81.36 
L 166.944 80.048676 
L 164.111003 75.816 
L 160.992 71.160847 
L 160.410324 70.272 
L 156.791514 64.728 
L 155.04 62.030306 
L 153.234281 59.184 
L 149.743485 53.64 
L 149.088 52.589316 
L 146.347061 48.096 
L 143.136 42.775983 
L 143.003673 42.552 
L 139.766272 37.008 
L 137.184 32.530305 
L 136.581151 31.464 
L 133.487748 25.92 
L 137.184 25.92 
L 143.136 25.92 
L 147.321112 25.92 
L 149.088 28.958599 
L 150.577948 31.464 
L 153.918596 37.008 
L 155.04 38.84593 
L 157.354192 42.552 
L 160.856621 48.096 
L 160.992 48.308036 
L 164.477447 53.64 
L 166.944 57.378597 
L 168.163756 59.184 
L 171.937647 64.728 
L 172.896 66.128355 
L 175.800097 70.272 
L 178.848 74.609719 
L 179.715971 75.816 
L 183.700978 81.36 
L 184.8 82.897763 
L 187.731642 86.904 
L 190.752 91.081047 
L 191.763843 92.448 
L 195.785114 97.992 
L 196.704 99.299851 
L 199.75007 103.536 
L 202.656 107.777291 
L 203.569228 109.08 
L 207.182914 114.624 
L 208.608 117.068053 
L 210.456839 120.168 
L 213.222491 125.712 
L 214.56 129.390744 
L 214.56 131.256 
L 214.56 136.8 
L 214.56 142.344 
L 214.56 144.802762 
L 213.115992 147.888 
L 208.608 152.313135 
L 207.493653 153.432 
L 202.656 156.117043 
L 197.621614 158.976 
L 196.704 159.283587 
L 190.752 161.325496 
L 184.8 163.41579 
L 181.729208 164.52 
L 178.848 165.141126 
L 172.896 166.455095 
L 166.944 167.800726 
L 160.992 169.178705 
L 157.257094 170.064 
L 155.04 170.373349 
L 149.088 171.223274 
L 143.136 172.092512 
L 137.184 172.980569 
L 131.232 173.886429 
L 125.28 174.808328 
L 120.189948 175.608 
L 119.328 175.690382 
L 113.376 176.210293 
L 107.424 176.738114 
L 101.472 177.261287 
L 95.52 177.771058 
L 89.568 178.253972 
L 83.616 178.688991 
L 77.664 179.042423 
L 71.712 179.258506 
L 65.76 179.240816 
L 59.808 178.81252 
L 53.856 177.622164 
L 49.47424 175.608 
L 47.904 174.31461 
L 45.685542 170.064 
L 43.982284 164.52 
L 42.961147 158.976 
L 42.358405 153.432 
L 42.025217 147.888 
L 41.952 145.236341 
z
" clip-path="url(#pb32c73cefd)" style="fill: #30698e"/>
   </g>
   <g id="PathCollection_7">
    <path d="M 46.761629 170.064 
L 45.058371 164.52 
L 44.037234 158.976 
L 43.434492 153.432 
L 43.101303 147.888 
L 42.948225 142.344 
L 42.918828 136.8 
L 42.976107 131.256 
L 43.095021 125.712 
L 43.258179 120.168 
L 43.453243 114.624 
L 43.671303 109.08 
L 43.905823 103.536 
L 44.151951 97.992 
L 44.406046 92.448 
L 44.665355 86.904 
L 44.927779 81.36 
L 45.19171 75.816 
L 45.455916 70.272 
L 45.719446 64.728 
L 45.981572 59.184 
L 46.241733 53.64 
L 46.499502 48.096 
L 46.754558 42.552 
L 47.006659 37.008 
L 47.255629 31.464 
L 47.501346 25.92 
L 47.904 25.92 
L 49.470502 25.92 
L 48.89893 31.464 
L 48.319788 37.008 
L 47.904 40.938828 
L 47.830645 42.552 
L 47.575589 48.096 
L 47.31782 53.64 
L 47.057659 59.184 
L 46.795533 64.728 
L 46.532003 70.272 
L 46.267797 75.816 
L 46.003866 81.36 
L 45.741442 86.904 
L 45.482133 92.448 
L 45.228038 97.992 
L 44.981909 103.536 
L 44.74739 109.08 
L 44.52933 114.624 
L 44.334265 120.168 
L 44.171108 125.712 
L 44.052194 131.256 
L 43.994915 136.8 
L 44.024312 142.344 
L 44.17739 147.888 
L 44.510579 153.432 
L 45.113321 158.976 
L 46.134458 164.52 
L 47.837716 170.064 
L 47.904 170.191002 
L 53.856 175.093599 
L 55.291391 175.608 
L 59.808 176.511289 
L 65.76 176.939584 
L 71.712 176.957275 
L 77.664 176.741192 
L 83.616 176.38776 
L 89.568 175.952741 
L 93.816992 175.608 
L 95.52 175.360406 
L 101.472 174.446939 
L 107.424 173.509459 
L 113.376 172.563648 
L 119.328 171.619808 
L 125.28 170.68472 
L 129.287516 170.064 
L 131.232 169.552356 
L 137.184 168.013479 
L 143.136 166.504846 
L 149.088 165.028183 
L 151.18288 164.52 
L 155.04 162.959298 
L 160.992 160.606052 
L 165.213096 158.976 
L 166.944 157.843595 
L 172.896 154.041045 
L 173.872289 153.432 
L 178.784887 147.888 
L 178.848 147.732974 
L 181.094649 142.344 
L 181.538502 136.8 
L 180.673663 131.256 
L 178.878232 125.712 
L 178.848 125.643963 
L 176.471892 120.168 
L 173.595823 114.624 
L 172.896 113.417254 
L 170.439897 109.08 
L 167.063453 103.536 
L 166.944 103.349112 
L 163.600267 97.992 
L 160.992 93.94424 
L 160.050305 92.448 
L 156.489468 86.904 
L 155.04 84.674053 
L 152.935149 81.36 
L 149.39376 75.816 
L 149.088 75.337833 
L 145.920665 70.272 
L 143.136 65.806799 
L 142.477477 64.728 
L 139.11134 59.184 
L 137.184 55.985715 
L 135.798215 53.64 
L 132.553075 48.096 
L 131.232 45.815056 
L 129.374985 42.552 
L 126.256428 37.008 
L 125.28 35.250337 
L 123.206258 31.464 
L 120.209545 25.92 
L 125.28 25.92 
L 131.232 25.92 
L 133.487748 25.92 
L 136.581151 31.464 
L 137.184 32.530305 
L 139.766272 37.008 
L 143.003673 42.552 
L 143.136 42.775983 
L 146.347061 48.096 
L 149.088 52.589316 
L 149.743485 53.64 
L 153.234281 59.184 
L 155.04 62.030306 
L 156.791514 64.728 
L 160.410324 70.272 
L 160.992 71.160847 
L 164.111003 75.816 
L 166.944 80.048676 
L 167.842789 81.36 
L 171.620968 86.904 
L 172.896 88.797421 
L 175.413542 92.448 
L 178.848 97.530334 
L 179.167477 97.992 
L 182.883675 103.536 
L 184.8 106.536371 
L 186.463432 109.08 
L 189.83452 114.624 
L 190.752 116.310734 
L 192.899834 120.168 
L 195.481938 125.712 
L 196.704 129.312142 
L 197.37931 131.256 
L 198.307054 136.8 
L 197.830916 142.344 
L 196.704 144.863821 
L 195.382508 147.888 
L 190.752 152.756505 
L 190.124398 153.432 
L 184.8 156.59987 
L 180.899538 158.976 
L 178.848 159.713702 
L 172.896 161.905403 
L 166.944 164.149917 
L 165.985653 164.52 
L 160.992 165.676108 
L 155.04 167.086926 
L 149.088 168.53078 
L 143.136 170.007444 
L 142.91287 170.064 
L 137.184 170.918765 
L 131.232 171.824625 
L 125.28 172.746524 
L 119.328 173.681612 
L 113.376 174.625452 
L 107.424 175.571263 
L 107.190759 175.608 
L 101.472 176.110671 
L 95.52 176.620443 
L 89.568 177.103356 
L 83.616 177.538375 
L 77.664 177.891807 
L 71.712 178.107891 
L 65.76 178.0902 
L 59.808 177.661904 
L 53.856 176.471548 
L 51.977374 175.608 
L 47.904 172.252806 
z
" clip-path="url(#pb32c73cefd)" style="fill: #297a8e"/>
   </g>
   <g id="PathCollection_8">
    <path d="M 47.837716 170.064 
L 46.134458 164.52 
L 45.113321 158.976 
L 44.510579 153.432 
L 44.17739 147.888 
L 44.024312 142.344 
L 43.994915 136.8 
L 44.052194 131.256 
L 44.171108 125.712 
L 44.334265 120.168 
L 44.52933 114.624 
L 44.74739 109.08 
L 44.981909 103.536 
L 45.228038 97.992 
L 45.482133 92.448 
L 45.741442 86.904 
L 46.003866 81.36 
L 46.267797 75.816 
L 46.532003 70.272 
L 46.795533 64.728 
L 47.057659 59.184 
L 47.31782 53.64 
L 47.575589 48.096 
L 47.830645 42.552 
L 47.904 40.938828 
L 48.319788 37.008 
L 48.89893 31.464 
L 49.470502 25.92 
L 51.973636 25.92 
L 51.402064 31.464 
L 50.822922 37.008 
L 50.236499 42.552 
L 49.643203 48.096 
L 49.043594 53.64 
L 48.438422 59.184 
L 47.904 64.043163 
L 47.87162 64.728 
L 47.60809 70.272 
L 47.343884 75.816 
L 47.079952 81.36 
L 46.817529 86.904 
L 46.55822 92.448 
L 46.304124 97.992 
L 46.057996 103.536 
L 45.823477 109.08 
L 45.605417 114.624 
L 45.410352 120.168 
L 45.247195 125.712 
L 45.128281 131.256 
L 45.071002 136.8 
L 45.100399 142.344 
L 45.253477 147.888 
L 45.586666 153.432 
L 46.189408 158.976 
L 47.210545 164.52 
L 47.904 166.777154 
L 50.252947 170.064 
L 53.856 173.031795 
L 59.808 175.164811 
L 63.24509 175.608 
L 65.76 175.788969 
L 71.712 175.806659 
L 77.184057 175.608 
L 77.664 175.576778 
L 83.616 174.943458 
L 89.568 174.163941 
L 95.52 173.298602 
L 101.472 172.385135 
L 107.424 171.447655 
L 113.376 170.501844 
L 116.137112 170.064 
L 119.328 169.204413 
L 125.28 167.615883 
L 131.232 166.049758 
L 137.14873 164.52 
L 137.184 164.50479 
L 143.136 161.988389 
L 149.088 159.525312 
L 150.44557 158.976 
L 155.04 155.826504 
L 158.614856 153.432 
L 160.992 150.551596 
L 163.242601 147.888 
L 165.394776 142.344 
L 165.808075 136.8 
L 165.00277 131.256 
L 163.330933 125.712 
L 161.037051 120.168 
L 160.992 120.076928 
L 158.357369 114.624 
L 155.362969 109.08 
L 155.04 108.524007 
L 152.208831 103.536 
L 149.088 98.296982 
L 148.910362 97.992 
L 145.576699 92.448 
L 143.136 88.47063 
L 142.195015 86.904 
L 138.825053 81.36 
L 137.184 78.675693 
L 135.470085 75.816 
L 132.143918 70.272 
L 131.232 68.748136 
L 128.868106 64.728 
L 125.625539 59.184 
L 125.28 58.588751 
L 122.447793 53.64 
L 119.328 48.13817 
L 119.304309 48.096 
L 116.222548 42.552 
L 113.376 37.371125 
L 113.176902 37.008 
L 110.174928 31.464 
L 107.424 26.31635 
L 107.210306 25.92 
L 107.424 25.92 
L 113.376 25.92 
L 119.328 25.92 
L 120.209545 25.92 
L 123.206258 31.464 
L 125.28 35.250337 
L 126.256428 37.008 
L 129.374985 42.552 
L 131.232 45.815056 
L 132.553075 48.096 
L 135.798215 53.64 
L 137.184 55.985715 
L 139.11134 59.184 
L 142.477477 64.728 
L 143.136 65.806799 
L 145.920665 70.272 
L 149.088 75.337833 
L 149.39376 75.816 
L 152.935149 81.36 
L 155.04 84.674053 
L 156.489468 86.904 
L 160.050305 92.448 
L 160.992 93.94424 
L 163.600267 97.992 
L 166.944 103.349112 
L 167.063453 103.536 
L 170.439897 109.08 
L 172.896 113.417254 
L 173.595823 114.624 
L 176.471892 120.168 
L 178.848 125.643963 
L 178.878232 125.712 
L 180.673663 131.256 
L 181.538502 136.8 
L 181.094649 142.344 
L 178.848 147.732974 
L 178.784887 147.888 
L 173.872289 153.432 
L 172.896 154.041045 
L 166.944 157.843595 
L 165.213096 158.976 
L 160.992 160.606052 
L 155.04 162.959298 
L 151.18288 164.52 
L 149.088 165.028183 
L 143.136 166.504846 
L 137.184 168.013479 
L 131.232 169.552356 
L 129.287516 170.064 
L 125.28 170.68472 
L 119.328 171.619808 
L 113.376 172.563648 
L 107.424 173.509459 
L 101.472 174.446939 
L 95.52 175.360406 
L 93.816992 175.608 
L 89.568 175.952741 
L 83.616 176.38776 
L 77.664 176.741192 
L 71.712 176.957275 
L 65.76 176.939584 
L 59.808 176.511289 
L 55.291391 175.608 
L 53.856 175.093599 
L 47.904 170.191002 
z
" clip-path="url(#pb32c73cefd)" style="fill: #228b8d"/>
   </g>
   <g id="PathCollection_9">
    <path d="M 47.210545 164.52 
L 46.189408 158.976 
L 45.586666 153.432 
L 45.253477 147.888 
L 45.100399 142.344 
L 45.071002 136.8 
L 45.128281 131.256 
L 45.247195 125.712 
L 45.410352 120.168 
L 45.605417 114.624 
L 45.823477 109.08 
L 46.057996 103.536 
L 46.304124 97.992 
L 46.55822 92.448 
L 46.817529 86.904 
L 47.079952 81.36 
L 47.343884 75.816 
L 47.60809 70.272 
L 47.87162 64.728 
L 47.904 64.043163 
L 48.438422 59.184 
L 49.043594 53.64 
L 49.643203 48.096 
L 50.236499 42.552 
L 50.822922 37.008 
L 51.402064 31.464 
L 51.973636 25.92 
L 53.856 25.92 
L 55.2828 25.92 
L 53.969078 31.464 
L 53.856 31.93496 
L 53.326056 37.008 
L 52.739633 42.552 
L 52.146337 48.096 
L 51.546728 53.64 
L 50.941556 59.184 
L 50.331814 64.728 
L 49.718804 70.272 
L 49.104223 75.816 
L 48.49028 81.36 
L 47.904 86.684626 
L 47.893616 86.904 
L 47.634307 92.448 
L 47.380211 97.992 
L 47.134083 103.536 
L 46.899563 109.08 
L 46.681504 114.624 
L 46.486439 120.168 
L 46.323281 125.712 
L 46.204368 131.256 
L 46.147089 136.8 
L 46.176486 142.344 
L 46.329564 147.888 
L 46.662753 153.432 
L 47.265495 158.976 
L 47.904 162.442598 
L 48.794057 164.52 
L 52.756081 170.064 
L 53.856 170.969991 
L 59.808 173.103007 
L 65.76 173.870476 
L 71.712 173.902176 
L 77.664 173.514974 
L 83.616 172.881654 
L 89.568 172.102137 
L 95.52 171.236798 
L 101.472 170.323331 
L 103.118476 170.064 
L 107.424 168.911958 
L 113.376 167.305213 
L 119.328 165.701815 
L 123.756096 164.52 
L 125.28 163.841599 
L 131.232 161.229302 
L 136.456948 158.976 
L 137.184 158.444803 
L 143.136 154.181636 
L 144.205258 153.432 
L 148.576598 147.888 
L 149.088 146.476287 
L 150.618961 142.344 
L 151.013404 136.8 
L 150.24484 131.256 
L 149.088 127.236396 
L 148.659027 125.712 
L 146.518443 120.168 
L 143.959253 114.624 
L 143.136 113.028646 
L 141.141553 109.08 
L 138.129921 103.536 
L 137.184 101.876816 
L 135.012748 97.992 
L 131.813858 92.448 
L 131.232 91.459854 
L 128.596012 86.904 
L 125.349761 81.36 
L 125.28 81.241541 
L 122.12992 75.816 
L 119.328 70.995119 
L 118.911617 70.272 
L 115.727452 64.728 
L 113.376 60.611904 
L 112.561963 59.184 
L 109.425062 53.64 
L 107.424 50.070614 
L 106.307159 48.096 
L 103.204492 42.552 
L 101.472 39.420016 
L 100.102691 37.008 
L 96.994422 31.464 
L 95.52 28.799351 
L 93.838169 25.92 
L 95.52 25.92 
L 101.472 25.92 
L 107.210306 25.92 
L 107.424 26.31635 
L 110.174928 31.464 
L 113.176902 37.008 
L 113.376 37.371125 
L 116.222548 42.552 
L 119.304309 48.096 
L 119.328 48.13817 
L 122.447793 53.64 
L 125.28 58.588751 
L 125.625539 59.184 
L 128.868106 64.728 
L 131.232 68.748136 
L 132.143918 70.272 
L 135.470085 75.816 
L 137.184 78.675693 
L 138.825053 81.36 
L 142.195015 86.904 
L 143.136 88.47063 
L 145.576699 92.448 
L 148.910362 97.992 
L 149.088 98.296982 
L 152.208831 103.536 
L 155.04 108.524007 
L 155.362969 109.08 
L 158.357369 114.624 
L 160.992 120.076928 
L 161.037051 120.168 
L 163.330933 125.712 
L 165.00277 131.256 
L 165.808075 136.8 
L 165.394776 142.344 
L 163.242601 147.888 
L 160.992 150.551596 
L 158.614856 153.432 
L 155.04 155.826504 
L 150.44557 158.976 
L 149.088 159.525312 
L 143.136 161.988389 
L 137.184 164.50479 
L 137.14873 164.52 
L 131.232 166.049758 
L 125.28 167.615883 
L 119.328 169.204413 
L 116.137112 170.064 
L 113.376 170.501844 
L 107.424 171.447655 
L 101.472 172.385135 
L 95.52 173.298602 
L 89.568 174.163941 
L 83.616 174.943458 
L 77.664 175.576778 
L 77.184057 175.608 
L 71.712 175.806659 
L 65.76 175.788969 
L 63.24509 175.608 
L 59.808 175.164811 
L 53.856 173.031795 
L 50.252947 170.064 
L 47.904 166.777154 
z
" clip-path="url(#pb32c73cefd)" style="fill: #1e9c89"/>
   </g>
   <g id="PathCollection_10">
    <path d="M 47.265495 158.976 
L 46.662753 153.432 
L 46.329564 147.888 
L 46.176486 142.344 
L 46.147089 136.8 
L 46.204368 131.256 
L 46.323281 125.712 
L 46.486439 120.168 
L 46.681504 114.624 
L 46.899563 109.08 
L 47.134083 103.536 
L 47.380211 97.992 
L 47.634307 92.448 
L 47.893616 86.904 
L 47.904 86.684626 
L 48.49028 81.36 
L 49.104223 75.816 
L 49.718804 70.272 
L 50.331814 64.728 
L 50.941556 59.184 
L 51.546728 53.64 
L 52.146337 48.096 
L 52.739633 42.552 
L 53.326056 37.008 
L 53.856 31.93496 
L 53.969078 31.464 
L 55.2828 25.92 
L 59.808 25.92 
L 63.221213 25.92 
L 59.808 31.102623 
L 59.722367 31.464 
L 58.391247 37.008 
L 57.043393 42.552 
L 55.679742 48.096 
L 54.301579 53.64 
L 53.856 55.415977 
L 53.44469 59.184 
L 52.834948 64.728 
L 52.221938 70.272 
L 51.607357 75.816 
L 50.993414 81.36 
L 50.382979 86.904 
L 49.779789 92.448 
L 49.188726 97.992 
L 48.616196 103.536 
L 48.070669 109.08 
L 47.904 110.901659 
L 47.757591 114.624 
L 47.562526 120.168 
L 47.399368 125.712 
L 47.280455 131.256 
L 47.223176 136.8 
L 47.252573 142.344 
L 47.405651 147.888 
L 47.73884 153.432 
L 47.904 154.951136 
L 48.921879 158.976 
L 51.297191 164.52 
L 53.856 168.100502 
L 57.081197 170.064 
L 59.808 171.041203 
L 65.76 171.808672 
L 71.712 171.840372 
L 77.664 171.45317 
L 83.616 170.81985 
L 89.387293 170.064 
L 89.568 170.023795 
L 95.52 168.553754 
L 101.472 167.001955 
L 107.424 165.409361 
L 110.718532 164.52 
L 113.376 163.323401 
L 119.328 160.648932 
L 123.085937 158.976 
L 125.28 157.321257 
L 130.510634 153.432 
L 131.232 152.461694 
L 134.692478 147.888 
L 136.619632 142.344 
L 136.989719 136.8 
L 136.268612 131.256 
L 134.771574 125.712 
L 132.71753 120.168 
L 131.232 116.8143 
L 130.278681 114.624 
L 127.581223 109.08 
L 125.28 104.682327 
L 124.688608 103.536 
L 121.686878 97.992 
L 119.328 93.771918 
L 118.594838 92.448 
L 115.461684 86.904 
L 113.376 83.257262 
L 112.293157 81.36 
L 109.110792 75.816 
L 107.424 72.880488 
L 105.911803 70.272 
L 102.706037 64.728 
L 101.472 62.582437 
L 99.465978 59.184 
L 96.218005 53.64 
L 95.52 52.437515 
L 92.859729 48.096 
L 89.568 42.666791 
L 89.49074 42.552 
L 85.802562 37.008 
L 83.616 33.67988 
L 81.82411 31.464 
L 77.664 26.251411 
L 77.231384 25.92 
L 77.664 25.92 
L 83.616 25.92 
L 89.568 25.92 
L 93.838169 25.92 
L 95.52 28.799351 
L 96.994422 31.464 
L 100.102691 37.008 
L 101.472 39.420016 
L 103.204492 42.552 
L 106.307159 48.096 
L 107.424 50.070614 
L 109.425062 53.64 
L 112.561963 59.184 
L 113.376 60.611904 
L 115.727452 64.728 
L 118.911617 70.272 
L 119.328 70.995119 
L 122.12992 75.816 
L 125.28 81.241541 
L 125.349761 81.36 
L 128.596012 86.904 
L 131.232 91.459854 
L 131.813858 92.448 
L 135.012748 97.992 
L 137.184 101.876816 
L 138.129921 103.536 
L 141.141553 109.08 
L 143.136 113.028646 
L 143.959253 114.624 
L 146.518443 120.168 
L 148.659027 125.712 
L 149.088 127.236396 
L 150.24484 131.256 
L 151.013404 136.8 
L 150.618961 142.344 
L 149.088 146.476287 
L 148.576598 147.888 
L 144.205258 153.432 
L 143.136 154.181636 
L 137.184 158.444803 
L 136.456948 158.976 
L 131.232 161.229302 
L 125.28 163.841599 
L 123.756096 164.52 
L 119.328 165.701815 
L 113.376 167.305213 
L 107.424 168.911958 
L 103.118476 170.064 
L 101.472 170.323331 
L 95.52 171.236798 
L 89.568 172.102137 
L 83.616 172.881654 
L 77.664 173.514974 
L 71.712 173.902176 
L 65.76 173.870476 
L 59.808 173.103007 
L 53.856 170.969991 
L 52.756081 170.064 
L 48.794057 164.52 
L 47.904 162.442598 
z
" clip-path="url(#pb32c73cefd)" style="fill: #25ac82"/>
   </g>
   <g id="PathCollection_11">
    <path d="M 47.73884 153.432 
L 47.405651 147.888 
L 47.252573 142.344 
L 47.223176 136.8 
L 47.280455 131.256 
L 47.399368 125.712 
L 47.562526 120.168 
L 47.757591 114.624 
L 47.904 110.901659 
L 48.070669 109.08 
L 48.616196 103.536 
L 49.188726 97.992 
L 49.779789 92.448 
L 50.382979 86.904 
L 50.993414 81.36 
L 51.607357 75.816 
L 52.221938 70.272 
L 52.834948 64.728 
L 53.44469 59.184 
L 53.856 55.415977 
L 54.301579 53.64 
L 55.679742 48.096 
L 57.043393 42.552 
L 58.391247 37.008 
L 59.722367 31.464 
L 59.808 31.102623 
L 63.221213 25.92 
L 65.76 25.92 
L 71.712 25.92 
L 77.231384 25.92 
L 77.664 26.251411 
L 81.82411 31.464 
L 83.616 33.67988 
L 85.802562 37.008 
L 89.49074 42.552 
L 89.568 42.666791 
L 92.859729 48.096 
L 95.52 52.437515 
L 96.218005 53.64 
L 99.465978 59.184 
L 101.472 62.582437 
L 102.706037 64.728 
L 105.911803 70.272 
L 107.424 72.880488 
L 109.110792 75.816 
L 112.293157 81.36 
L 113.376 83.257262 
L 115.461684 86.904 
L 118.594838 92.448 
L 119.328 93.771918 
L 121.686878 97.992 
L 124.688608 103.536 
L 125.28 104.682327 
L 127.581223 109.08 
L 130.278681 114.624 
L 131.232 116.8143 
L 132.71753 120.168 
L 134.771574 125.712 
L 136.268612 131.256 
L 136.989719 136.8 
L 136.619632 142.344 
L 134.692478 147.888 
L 131.232 152.461694 
L 130.510634 153.432 
L 125.28 157.321257 
L 123.085937 158.976 
L 119.328 160.648932 
L 113.376 163.323401 
L 110.718532 164.52 
L 107.424 165.409361 
L 101.472 167.001955 
L 95.52 168.553754 
L 89.568 170.023795 
L 89.387293 170.064 
L 83.616 170.81985 
L 77.664 171.45317 
L 71.712 171.840372 
L 65.76 171.808672 
L 59.808 171.041203 
L 57.081197 170.064 
L 53.856 168.100502 
L 51.297191 164.52 
L 48.921879 158.976 
L 47.904 154.951136 
z
M 53.856 164.597905 
L 59.808 168.221477 
L 65.76 169.525255 
L 71.712 169.579107 
L 77.664 168.921327 
L 83.616 167.845442 
L 89.568 166.521197 
L 95.52 165.051156 
L 97.557275 164.52 
L 101.472 162.817566 
L 107.424 160.161118 
L 110.05597 158.976 
L 113.376 156.443351 
L 117.331797 153.432 
L 119.328 150.683011 
L 121.376619 147.888 
L 123.243536 142.344 
L 123.602055 136.8 
L 122.903488 131.256 
L 121.453243 125.712 
L 119.463401 120.168 
L 119.328 119.852458 
L 117.105236 114.624 
L 114.470485 109.08 
L 113.376 106.938643 
L 111.640472 103.536 
L 108.672773 97.992 
L 107.424 95.732301 
L 105.592875 92.448 
L 102.438466 86.904 
L 101.472 85.225557 
L 99.187654 81.36 
L 95.892607 75.816 
L 95.52 75.189729 
L 92.431413 70.272 
L 89.568 65.701119 
L 88.891276 64.728 
L 85.056437 59.184 
L 83.616 57.085844 
L 80.704248 53.64 
L 77.664 50.008711 
L 75.044718 48.096 
L 71.712 45.636411 
L 65.76 45.996037 
L 64.324427 48.096 
L 60.494118 53.64 
L 59.808 54.623961 
L 58.66392 59.184 
L 57.262468 64.728 
L 55.853504 70.272 
L 54.440931 75.816 
L 53.856 78.114095 
L 53.496548 81.36 
L 52.886113 86.904 
L 52.282923 92.448 
L 51.69186 97.992 
L 51.11933 103.536 
L 50.573803 109.08 
L 50.066565 114.624 
L 49.612817 120.168 
L 49.233288 125.712 
L 48.956678 131.256 
L 48.823438 136.8 
L 48.89182 142.344 
L 49.247903 147.888 
L 50.022948 153.432 
L 51.425013 158.976 
L 53.800325 164.52 
z
" clip-path="url(#pb32c73cefd)" style="fill: #3dbc74"/>
   </g>
   <g id="PathCollection_12">
    <path d="M 53.800325 164.52 
L 51.425013 158.976 
L 50.022948 153.432 
L 49.247903 147.888 
L 48.89182 142.344 
L 48.823438 136.8 
L 48.956678 131.256 
L 49.233288 125.712 
L 49.612817 120.168 
L 50.066565 114.624 
L 50.573803 109.08 
L 51.11933 103.536 
L 51.69186 97.992 
L 52.282923 92.448 
L 52.886113 86.904 
L 53.496548 81.36 
L 53.856 78.114095 
L 54.440931 75.816 
L 55.853504 70.272 
L 57.262468 64.728 
L 58.66392 59.184 
L 59.808 54.623961 
L 60.494118 53.64 
L 64.324427 48.096 
L 65.76 45.996037 
L 71.712 45.636411 
L 75.044718 48.096 
L 77.664 50.008711 
L 80.704248 53.64 
L 83.616 57.085844 
L 85.056437 59.184 
L 88.891276 64.728 
L 89.568 65.701119 
L 92.431413 70.272 
L 95.52 75.189729 
L 95.892607 75.816 
L 99.187654 81.36 
L 101.472 85.225557 
L 102.438466 86.904 
L 105.592875 92.448 
L 107.424 95.732301 
L 108.672773 97.992 
L 111.640472 103.536 
L 113.376 106.938643 
L 114.470485 109.08 
L 117.105236 114.624 
L 119.328 119.852458 
L 119.463401 120.168 
L 121.453243 125.712 
L 122.903488 131.256 
L 123.602055 136.8 
L 123.243536 142.344 
L 121.376619 147.888 
L 119.328 150.683011 
L 117.331797 153.432 
L 113.376 156.443351 
L 110.05597 158.976 
L 107.424 160.161118 
L 101.472 162.817566 
L 97.557275 164.52 
L 95.52 165.051156 
L 89.568 166.521197 
L 83.616 167.845442 
L 77.664 168.921327 
L 71.712 169.579107 
L 65.76 169.525255 
L 59.808 168.221477 
L 53.856 164.597905 
z
M 53.856 158.690718 
L 54.021825 158.976 
L 59.481325 164.52 
L 59.808 164.71888 
L 65.76 166.022657 
L 71.712 166.07651 
L 77.664 165.418729 
L 82.635939 164.52 
L 83.616 164.224504 
L 89.568 162.015662 
L 95.52 159.563632 
L 96.871253 158.976 
L 101.472 155.586389 
L 104.321266 153.432 
L 107.424 149.187988 
L 108.366031 147.888 
L 110.211783 142.344 
L 110.566238 136.8 
L 109.87559 131.256 
L 108.441787 125.712 
L 107.424 122.843775 
L 106.466067 120.168 
L 104.093168 114.624 
L 101.472 109.145745 
L 101.439716 109.08 
L 98.511859 103.536 
L 95.52 98.138 
L 95.434578 97.992 
L 92.085898 92.448 
L 89.568 88.363229 
L 88.569483 86.904 
L 84.730287 81.36 
L 83.616 79.760105 
L 80.234912 75.816 
L 77.664 72.820092 
L 74.087495 70.272 
L 71.712 68.575236 
L 65.76 68.923296 
L 64.807364 70.272 
L 60.881417 75.816 
L 59.808 77.333393 
L 58.783113 81.36 
L 57.380068 86.904 
L 55.993676 92.448 
L 54.635155 97.992 
L 53.856 101.274595 
L 53.622464 103.536 
L 53.076937 109.08 
L 52.569699 114.624 
L 52.115951 120.168 
L 51.736422 125.712 
L 51.459812 131.256 
L 51.326572 136.8 
L 51.394954 142.344 
L 51.751037 147.888 
L 52.526082 153.432 
z
" clip-path="url(#pb32c73cefd)" style="fill: #60ca60"/>
   </g>
   <g id="PathCollection_13">
    <path d="M 52.526082 153.432 
L 51.751037 147.888 
L 51.394954 142.344 
L 51.326572 136.8 
L 51.459812 131.256 
L 51.736422 125.712 
L 52.115951 120.168 
L 52.569699 114.624 
L 53.076937 109.08 
L 53.622464 103.536 
L 53.856 101.274595 
L 54.635155 97.992 
L 55.993676 92.448 
L 57.380068 86.904 
L 58.783113 81.36 
L 59.808 77.333393 
L 60.881417 75.816 
L 64.807364 70.272 
L 65.76 68.923296 
L 71.712 68.575236 
L 74.087495 70.272 
L 77.664 72.820092 
L 80.234912 75.816 
L 83.616 79.760105 
L 84.730287 81.36 
L 88.569483 86.904 
L 89.568 88.363229 
L 92.085898 92.448 
L 95.434578 97.992 
L 95.52 98.138 
L 98.511859 103.536 
L 101.439716 109.08 
L 101.472 109.145745 
L 104.093168 114.624 
L 106.466067 120.168 
L 107.424 122.843775 
L 108.441787 125.712 
L 109.87559 131.256 
L 110.566238 136.8 
L 110.211783 142.344 
L 108.366031 147.888 
L 107.424 149.187988 
L 104.321266 153.432 
L 101.472 155.586389 
L 96.871253 158.976 
L 95.52 159.563632 
L 89.568 162.015662 
L 83.616 164.224504 
L 82.635939 164.52 
L 77.664 165.418729 
L 71.712 166.07651 
L 65.76 166.022657 
L 59.808 164.71888 
L 59.481325 164.52 
L 54.021825 158.976 
L 53.856 158.690718 
z
M 53.856 138.931763 
L 53.952736 142.344 
L 54.771169 147.888 
L 56.55256 153.432 
L 59.775114 158.976 
L 59.808 159.009395 
L 65.76 161.184097 
L 71.712 161.273923 
L 77.664 160.176744 
L 81.646458 158.976 
L 83.616 157.969955 
L 89.568 154.227841 
L 90.708278 153.432 
L 95.099311 147.888 
L 95.52 146.731906 
L 97.032582 142.344 
L 97.399588 136.8 
L 96.684485 131.256 
L 95.52 126.907335 
L 95.182111 125.712 
L 93.031884 120.168 
L 90.461164 114.624 
L 89.568 112.900929 
L 87.369338 109.08 
L 83.938365 103.536 
L 83.616 103.039668 
L 79.580767 97.992 
L 77.664 95.669503 
L 73.315319 92.448 
L 71.712 91.284139 
L 65.76 91.637866 
L 65.196942 92.448 
L 61.421222 97.992 
L 59.808 100.437422 
L 59.072523 103.536 
L 57.818665 109.08 
L 56.652811 114.624 
L 55.6099 120.168 
L 54.737578 125.712 
L 54.101809 131.256 
L 53.856 135.705934 
L 53.829706 136.8 
z
" clip-path="url(#pb32c73cefd)" style="fill: #8bd646"/>
   </g>
   <g id="PathCollection_14">
    <path d="M 53.829706 136.8 
L 53.856 135.705934 
L 54.101809 131.256 
L 54.737578 125.712 
L 55.6099 120.168 
L 56.652811 114.624 
L 57.818665 109.08 
L 59.072523 103.536 
L 59.808 100.437422 
L 61.421222 97.992 
L 65.196942 92.448 
L 65.76 91.637866 
L 71.712 91.284139 
L 73.315319 92.448 
L 77.664 95.669503 
L 79.580767 97.992 
L 83.616 103.039668 
L 83.938365 103.536 
L 87.369338 109.08 
L 89.568 112.900929 
L 90.461164 114.624 
L 93.031884 120.168 
L 95.182111 125.712 
L 95.52 126.907335 
L 96.684485 131.256 
L 97.399588 136.8 
L 97.032582 142.344 
L 95.52 146.731906 
L 95.099311 147.888 
L 90.708278 153.432 
L 89.568 154.227841 
L 83.616 157.969955 
L 81.646458 158.976 
L 77.664 160.176744 
L 71.712 161.273923 
L 65.76 161.184097 
L 59.808 159.009395 
L 59.775114 158.976 
L 56.55256 153.432 
L 54.771169 147.888 
L 53.952736 142.344 
L 53.856 138.931763 
z
M 59.808 143.034772 
L 61.799243 147.888 
L 65.76 152.323153 
L 71.712 152.598446 
L 77.664 149.235879 
L 79.122673 147.888 
L 81.879151 142.344 
L 82.4085 136.8 
L 81.377075 131.256 
L 79.235808 125.712 
L 77.664 122.745976 
L 75.429459 120.168 
L 71.712 116.580713 
L 65.76 117.050939 
L 64.130318 120.168 
L 61.705884 125.712 
L 59.938898 131.256 
L 59.808 132.108619 
L 59.548854 136.8 
L 59.706025 142.344 
z
" clip-path="url(#pb32c73cefd)" style="fill: #bade28"/>
   </g>
   <g id="PathCollection_15">
    <path d="M 59.706025 142.344 
L 59.548854 136.8 
L 59.808 132.108619 
L 59.938898 131.256 
L 61.705884 125.712 
L 64.130318 120.168 
L 65.76 117.050939 
L 71.712 116.580713 
L 75.429459 120.168 
L 77.664 122.745976 
L 79.235808 125.712 
L 81.377075 131.256 
L 82.4085 136.8 
L 81.879151 142.344 
L 79.122673 147.888 
L 77.664 149.235879 
L 71.712 152.598446 
L 65.76 152.323153 
L 61.799243 147.888 
L 59.808 143.034772 
z
" clip-path="url(#pb32c73cefd)" style="fill: #eae51a"/>
   </g>
   <g id="PathCollection_16">
    <defs>
     <path id="mb1f0b4e367" d="M -4.330127 4.330127 
L 4.330127 -4.330127 
M -4.330127 -4.330127 
L 4.330127 4.330127 
" style="stroke: #000000; stroke-width: 2"/>
    </defs>
    <g clip-path="url(#pb32c73cefd)">
     <use xlink:href="#mb1f0b4e367" x="65.76" y="146.04" style="stroke: #000000; stroke-width: 2"/>
    </g>
   </g>
   <g id="matplotlib.axis_1">
    <g id="xtick_1">
     <g id="line2d_1">
      <defs>
       <path id="m4dac4ce5f7" d="M 0 0 
L 0 6 
" style="stroke: #000000; stroke-width: 2"/>
      </defs>
      <g>
       <use xlink:href="#m4dac4ce5f7" x="75.68" y="192.24" style="stroke: #000000; stroke-width: 2"/>
      </g>
     </g>
     <g id="text_1">
      <!-- $\mathdefault{250}$ -->
      <g transform="translate(62.31 212.377813) scale(0.14 -0.14)">
       <defs>
        <path id="DejaVuSans-32" d="M 1228 531 
L 3431 531 
L 3431 0 
L 469 0 
L 469 531 
Q 828 903 1448 1529 
Q 2069 2156 2228 2338 
Q 2531 2678 2651 2914 
Q 2772 3150 2772 3378 
Q 2772 3750 2511 3984 
Q 2250 4219 1831 4219 
Q 1534 4219 1204 4116 
Q 875 4013 500 3803 
L 500 4441 
Q 881 4594 1212 4672 
Q 1544 4750 1819 4750 
Q 2544 4750 2975 4387 
Q 3406 4025 3406 3419 
Q 3406 3131 3298 2873 
Q 3191 2616 2906 2266 
Q 2828 2175 2409 1742 
Q 1991 1309 1228 531 
z
" transform="scale(0.015625)"/>
        <path id="DejaVuSans-35" d="M 691 4666 
L 3169 4666 
L 3169 4134 
L 1269 4134 
L 1269 2991 
Q 1406 3038 1543 3061 
Q 1681 3084 1819 3084 
Q 2600 3084 3056 2656 
Q 3513 2228 3513 1497 
Q 3513 744 3044 326 
Q 2575 -91 1722 -91 
Q 1428 -91 1123 -41 
Q 819 9 494 109 
L 494 744 
Q 775 591 1075 516 
Q 1375 441 1709 441 
Q 2250 441 2565 725 
Q 2881 1009 2881 1497 
Q 2881 1984 2565 2268 
Q 2250 2553 1709 2553 
Q 1456 2553 1204 2497 
Q 953 2441 691 2322 
L 691 4666 
z
" transform="scale(0.015625)"/>
        <path id="DejaVuSans-30" d="M 2034 4250 
Q 1547 4250 1301 3770 
Q 1056 3291 1056 2328 
Q 1056 1369 1301 889 
Q 1547 409 2034 409 
Q 2525 409 2770 889 
Q 3016 1369 3016 2328 
Q 3016 3291 2770 3770 
Q 2525 4250 2034 4250 
z
M 2034 4750 
Q 2819 4750 3233 4129 
Q 3647 3509 3647 2328 
Q 3647 1150 3233 529 
Q 2819 -91 2034 -91 
Q 1250 -91 836 529 
Q 422 1150 422 2328 
Q 422 3509 836 4129 
Q 1250 4750 2034 4750 
z
" transform="scale(0.015625)"/>
       </defs>
       <use xlink:href="#DejaVuSans-32" transform="translate(0 0.78125)"/>
       <use xlink:href="#DejaVuSans-35" transform="translate(63.623047 0.78125)"/>
       <use xlink:href="#DejaVuSans-30" transform="translate(127.246094 0.78125)"/>
      </g>
     </g>
    </g>
    <g id="xtick_2">
     <g id="line2d_2">
      <g>
       <use xlink:href="#m4dac4ce5f7" x="125.28" y="192.24" style="stroke: #000000; stroke-width: 2"/>
      </g>
     </g>
     <g id="text_2">
      <!-- $\mathdefault{500}$ -->
      <g transform="translate(111.91 212.377813) scale(0.14 -0.14)">
       <use xlink:href="#DejaVuSans-35" transform="translate(0 0.78125)"/>
       <use xlink:href="#DejaVuSans-30" transform="translate(63.623047 0.78125)"/>
       <use xlink:href="#DejaVuSans-30" transform="translate(127.246094 0.78125)"/>
      </g>
     </g>
    </g>
    <g id="xtick_3">
     <g id="line2d_3">
      <g>
       <use xlink:href="#m4dac4ce5f7" x="174.88" y="192.24" style="stroke: #000000; stroke-width: 2"/>
      </g>
     </g>
     <g id="text_3">
      <!-- $\mathdefault{750}$ -->
      <g transform="translate(161.51 212.377813) scale(0.14 -0.14)">
       <defs>
        <path id="DejaVuSans-37" d="M 525 4666 
L 3525 4666 
L 3525 4397 
L 1831 0 
L 1172 0 
L 2766 4134 
L 525 4134 
L 525 4666 
z
" transform="scale(0.015625)"/>
       </defs>
       <use xlink:href="#DejaVuSans-37" transform="translate(0 0.78125)"/>
       <use xlink:href="#DejaVuSans-35" transform="translate(63.623047 0.78125)"/>
       <use xlink:href="#DejaVuSans-30" transform="translate(127.246094 0.78125)"/>
      </g>
     </g>
    </g>
    <g id="text_4">
     <!-- Diploid N$_e$0 -->
     <g transform="translate(74.34 232.969375) scale(0.18 -0.18)">
      <defs>
       <path id="DejaVuSans-44" d="M 1259 4147 
L 1259 519 
L 2022 519 
Q 2988 519 3436 956 
Q 3884 1394 3884 2338 
Q 3884 3275 3436 3711 
Q 2988 4147 2022 4147 
L 1259 4147 
z
M 628 4666 
L 1925 4666 
Q 3281 4666 3915 4102 
Q 4550 3538 4550 2338 
Q 4550 1131 3912 565 
Q 3275 0 1925 0 
L 628 0 
L 628 4666 
z
" transform="scale(0.015625)"/>
       <path id="DejaVuSans-69" d="M 603 3500 
L 1178 3500 
L 1178 0 
L 603 0 
L 603 3500 
z
M 603 4863 
L 1178 4863 
L 1178 4134 
L 603 4134 
L 603 4863 
z
" transform="scale(0.015625)"/>
       <path id="DejaVuSans-70" d="M 1159 525 
L 1159 -1331 
L 581 -1331 
L 581 3500 
L 1159 3500 
L 1159 2969 
Q 1341 3281 1617 3432 
Q 1894 3584 2278 3584 
Q 2916 3584 3314 3078 
Q 3713 2572 3713 1747 
Q 3713 922 3314 415 
Q 2916 -91 2278 -91 
Q 1894 -91 1617 61 
Q 1341 213 1159 525 
z
M 3116 1747 
Q 3116 2381 2855 2742 
Q 2594 3103 2138 3103 
Q 1681 3103 1420 2742 
Q 1159 2381 1159 1747 
Q 1159 1113 1420 752 
Q 1681 391 2138 391 
Q 2594 391 2855 752 
Q 3116 1113 3116 1747 
z
" transform="scale(0.015625)"/>
       <path id="DejaVuSans-6c" d="M 603 4863 
L 1178 4863 
L 1178 0 
L 603 0 
L 603 4863 
z
" transform="scale(0.015625)"/>
       <path id="DejaVuSans-6f" d="M 1959 3097 
Q 1497 3097 1228 2736 
Q 959 2375 959 1747 
Q 959 1119 1226 758 
Q 1494 397 1959 397 
Q 2419 397 2687 759 
Q 2956 1122 2956 1747 
Q 2956 2369 2687 2733 
Q 2419 3097 1959 3097 
z
M 1959 3584 
Q 2709 3584 3137 3096 
Q 3566 2609 3566 1747 
Q 3566 888 3137 398 
Q 2709 -91 1959 -91 
Q 1206 -91 779 398 
Q 353 888 353 1747 
Q 353 2609 779 3096 
Q 1206 3584 1959 3584 
z
" transform="scale(0.015625)"/>
       <path id="DejaVuSans-64" d="M 2906 2969 
L 2906 4863 
L 3481 4863 
L 3481 0 
L 2906 0 
L 2906 525 
Q 2725 213 2448 61 
Q 2172 -91 1784 -91 
Q 1150 -91 751 415 
Q 353 922 353 1747 
Q 353 2572 751 3078 
Q 1150 3584 1784 3584 
Q 2172 3584 2448 3432 
Q 2725 3281 2906 2969 
z
M 947 1747 
Q 947 1113 1208 752 
Q 1469 391 1925 391 
Q 2381 391 2643 752 
Q 2906 1113 2906 1747 
Q 2906 2381 2643 2742 
Q 2381 3103 1925 3103 
Q 1469 3103 1208 2742 
Q 947 2381 947 1747 
z
" transform="scale(0.015625)"/>
       <path id="DejaVuSans-20" transform="scale(0.015625)"/>
       <path id="DejaVuSans-4e" d="M 628 4666 
L 1478 4666 
L 3547 763 
L 3547 4666 
L 4159 4666 
L 4159 0 
L 3309 0 
L 1241 3903 
L 1241 0 
L 628 0 
L 628 4666 
z
" transform="scale(0.015625)"/>
       <path id="DejaVuSans-Oblique-65" d="M 3078 2063 
Q 3088 2113 3092 2166 
Q 3097 2219 3097 2272 
Q 3097 2653 2873 2875 
Q 2650 3097 2266 3097 
Q 1838 3097 1509 2826 
Q 1181 2556 1013 2059 
L 3078 2063 
z
M 3578 1613 
L 903 1613 
Q 884 1494 878 1425 
Q 872 1356 872 1306 
Q 872 872 1139 634 
Q 1406 397 1894 397 
Q 2269 397 2603 481 
Q 2938 566 3225 728 
L 3116 159 
Q 2806 34 2476 -28 
Q 2147 -91 1806 -91 
Q 1078 -91 686 257 
Q 294 606 294 1247 
Q 294 1794 489 2264 
Q 684 2734 1063 3103 
Q 1306 3334 1642 3459 
Q 1978 3584 2356 3584 
Q 2950 3584 3301 3228 
Q 3653 2872 3653 2272 
Q 3653 2128 3634 1964 
Q 3616 1800 3578 1613 
z
" transform="scale(0.015625)"/>
      </defs>
      <use xlink:href="#DejaVuSans-44" transform="translate(0 0.015625)"/>
      <use xlink:href="#DejaVuSans-69" transform="translate(77.001953 0.015625)"/>
      <use xlink:href="#DejaVuSans-70" transform="translate(104.785156 0.015625)"/>
      <use xlink:href="#DejaVuSans-6c" transform="translate(168.261719 0.015625)"/>
      <use xlink:href="#DejaVuSans-6f" transform="translate(196.044922 0.015625)"/>
      <use xlink:href="#DejaVuSans-69" transform="translate(257.226562 0.015625)"/>
      <use xlink:href="#DejaVuSans-64" transform="translate(285.009766 0.015625)"/>
      <use xlink:href="#DejaVuSans-20" transform="translate(348.486328 0.015625)"/>
      <use xlink:href="#DejaVuSans-4e" transform="translate(380.273438 0.015625)"/>
      <use xlink:href="#DejaVuSans-Oblique-65" transform="translate(456.035156 -16.390625) scale(0.7)"/>
      <use xlink:href="#DejaVuSans-30" transform="translate(501.835938 0.015625)"/>
     </g>
    </g>
    <g id="text_5">
     <!-- $\times\mathdefault{10^{3}}\mathdefault{}$ -->
     <g transform="translate(188.56 225.887812) scale(0.1 -0.1)">
      <defs>
       <path id="DejaVuSans-d7" d="M 4488 3438 
L 3059 2003 
L 4488 575 
L 4116 197 
L 2681 1631 
L 1247 197 
L 878 575 
L 2303 2003 
L 878 3438 
L 1247 3816 
L 2681 2381 
L 4116 3816 
L 4488 3438 
z
" transform="scale(0.015625)"/>
       <path id="DejaVuSans-31" d="M 794 531 
L 1825 531 
L 1825 4091 
L 703 3866 
L 703 4441 
L 1819 4666 
L 2450 4666 
L 2450 531 
L 3481 531 
L 3481 0 
L 794 0 
L 794 531 
z
" transform="scale(0.015625)"/>
       <path id="DejaVuSans-33" d="M 2597 2516 
Q 3050 2419 3304 2112 
Q 3559 1806 3559 1356 
Q 3559 666 3084 287 
Q 2609 -91 1734 -91 
Q 1441 -91 1130 -33 
Q 819 25 488 141 
L 488 750 
Q 750 597 1062 519 
Q 1375 441 1716 441 
Q 2309 441 2620 675 
Q 2931 909 2931 1356 
Q 2931 1769 2642 2001 
Q 2353 2234 1838 2234 
L 1294 2234 
L 1294 2753 
L 1863 2753 
Q 2328 2753 2575 2939 
Q 2822 3125 2822 3475 
Q 2822 3834 2567 4026 
Q 2313 4219 1838 4219 
Q 1578 4219 1281 4162 
Q 984 4106 628 3988 
L 628 4550 
Q 988 4650 1302 4700 
Q 1616 4750 1894 4750 
Q 2613 4750 3031 4423 
Q 3450 4097 3450 3541 
Q 3450 3153 3228 2886 
Q 3006 2619 2597 2516 
z
" transform="scale(0.015625)"/>
      </defs>
      <use xlink:href="#DejaVuSans-d7" transform="translate(0 0.765625)"/>
      <use xlink:href="#DejaVuSans-31" transform="translate(83.789062 0.765625)"/>
      <use xlink:href="#DejaVuSans-30" transform="translate(147.412109 0.765625)"/>
      <use xlink:href="#DejaVuSans-33" transform="translate(211.992188 39.046875) scale(0.7)"/>
     </g>
    </g>
   </g>
   <g id="matplotlib.axis_2">
    <g id="ytick_1">
     <g id="line2d_4">
      <defs>
       <path id="ma1e7e8bb93" d="M 0 0 
L -6 0 
" style="stroke: #000000; stroke-width: 2"/>
      </defs>
      <g>
       <use xlink:href="#ma1e7e8bb93" x="36" y="155.28" style="stroke: #000000; stroke-width: 2"/>
      </g>
     </g>
     <g id="text_6">
      <!-- $\mathdefault{250}$ -->
      <g transform="translate(-0.24 160.598906) scale(0.14 -0.14)">
       <use xlink:href="#DejaVuSans-32" transform="translate(0 0.78125)"/>
       <use xlink:href="#DejaVuSans-35" transform="translate(63.623047 0.78125)"/>
       <use xlink:href="#DejaVuSans-30" transform="translate(127.246094 0.78125)"/>
      </g>
     </g>
    </g>
    <g id="ytick_2">
     <g id="line2d_5">
      <g>
       <use xlink:href="#ma1e7e8bb93" x="36" y="109.08" style="stroke: #000000; stroke-width: 2"/>
      </g>
     </g>
     <g id="text_7">
      <!-- $\mathdefault{500}$ -->
      <g transform="translate(-0.24 114.398906) scale(0.14 -0.14)">
       <use xlink:href="#DejaVuSans-35" transform="translate(0 0.78125)"/>
       <use xlink:href="#DejaVuSans-30" transform="translate(63.623047 0.78125)"/>
       <use xlink:href="#DejaVuSans-30" transform="translate(127.246094 0.78125)"/>
      </g>
     </g>
    </g>
    <g id="ytick_3">
     <g id="line2d_6">
      <g>
       <use xlink:href="#ma1e7e8bb93" x="36" y="62.88" style="stroke: #000000; stroke-width: 2"/>
      </g>
     </g>
     <g id="text_8">
      <!-- $\mathdefault{750}$ -->
      <g transform="translate(-0.24 68.198906) scale(0.14 -0.14)">
       <use xlink:href="#DejaVuSans-37" transform="translate(0 0.78125)"/>
       <use xlink:href="#DejaVuSans-35" transform="translate(63.623047 0.78125)"/>
       <use xlink:href="#DejaVuSans-30" transform="translate(127.246094 0.78125)"/>
      </g>
     </g>
    </g>
    <g id="text_9">
     <!-- Diploid N$_e$1 -->
     <g transform="translate(-8.02 160.02) rotate(-90) scale(0.18 -0.18)">
      <use xlink:href="#DejaVuSans-44" transform="translate(0 0.015625)"/>
      <use xlink:href="#DejaVuSans-69" transform="translate(77.001953 0.015625)"/>
      <use xlink:href="#DejaVuSans-70" transform="translate(104.785156 0.015625)"/>
      <use xlink:href="#DejaVuSans-6c" transform="translate(168.261719 0.015625)"/>
      <use xlink:href="#DejaVuSans-6f" transform="translate(196.044922 0.015625)"/>
      <use xlink:href="#DejaVuSans-69" transform="translate(257.226562 0.015625)"/>
      <use xlink:href="#DejaVuSans-64" transform="translate(285.009766 0.015625)"/>
      <use xlink:href="#DejaVuSans-20" transform="translate(348.486328 0.015625)"/>
      <use xlink:href="#DejaVuSans-4e" transform="translate(380.273438 0.015625)"/>
      <use xlink:href="#DejaVuSans-Oblique-65" transform="translate(456.035156 -16.390625) scale(0.7)"/>
      <use xlink:href="#DejaVuSans-31" transform="translate(501.835938 0.015625)"/>
     </g>
    </g>
    <g id="text_10">
     <!-- $\times\mathdefault{10^{3}}\mathdefault{}$ -->
     <g transform="translate(36 22.92) scale(0.1 -0.1)">
      <use xlink:href="#DejaVuSans-d7" transform="translate(0 0.765625)"/>
      <use xlink:href="#DejaVuSans-31" transform="translate(83.789062 0.765625)"/>
      <use xlink:href="#DejaVuSans-30" transform="translate(147.412109 0.765625)"/>
      <use xlink:href="#DejaVuSans-33" transform="translate(211.992188 39.046875) scale(0.7)"/>
     </g>
    </g>
   </g>
   <g id="patch_3">
    <path d="M 36 192.24 
L 36 25.92 
" style="fill: none; stroke: #000000; stroke-width: 0.8; stroke-linejoin: miter; stroke-linecap: square"/>
   </g>
   <g id="patch_4">
    <path d="M 214.56 192.24 
L 214.56 25.92 
" style="fill: none; stroke: #000000; stroke-width: 0.8; stroke-linejoin: miter; stroke-linecap: square"/>
   </g>
   <g id="patch_5">
    <path d="M 36 192.24 
L 214.56 192.24 
" style="fill: none; stroke: #000000; stroke-width: 0.8; stroke-linejoin: miter; stroke-linecap: square"/>
   </g>
   <g id="patch_6">
    <path d="M 36 25.92 
L 214.56 25.92 
" style="fill: none; stroke: #000000; stroke-width: 0.8; stroke-linejoin: miter; stroke-linecap: square"/>
   </g>
   <g id="text_11">
    <!-- Ne0Ne1-MSC-GT-P2-S4 -->
    <g transform="translate(33.735 10.92) scale(0.16 -0.16)">
     <defs>
      <path id="DejaVuSans-65" d="M 3597 1894 
L 3597 1613 
L 953 1613 
Q 991 1019 1311 708 
Q 1631 397 2203 397 
Q 2534 397 2845 478 
Q 3156 559 3463 722 
L 3463 178 
Q 3153 47 2828 -22 
Q 2503 -91 2169 -91 
Q 1331 -91 842 396 
Q 353 884 353 1716 
Q 353 2575 817 3079 
Q 1281 3584 2069 3584 
Q 2775 3584 3186 3129 
Q 3597 2675 3597 1894 
z
M 3022 2063 
Q 3016 2534 2758 2815 
Q 2500 3097 2075 3097 
Q 1594 3097 1305 2825 
Q 1016 2553 972 2059 
L 3022 2063 
z
" transform="scale(0.015625)"/>
      <path id="DejaVuSans-2d" d="M 313 2009 
L 1997 2009 
L 1997 1497 
L 313 1497 
L 313 2009 
z
" transform="scale(0.015625)"/>
      <path id="DejaVuSans-4d" d="M 628 4666 
L 1569 4666 
L 2759 1491 
L 3956 4666 
L 4897 4666 
L 4897 0 
L 4281 0 
L 4281 4097 
L 3078 897 
L 2444 897 
L 1241 4097 
L 1241 0 
L 628 0 
L 628 4666 
z
" transform="scale(0.015625)"/>
      <path id="DejaVuSans-53" d="M 3425 4513 
L 3425 3897 
Q 3066 4069 2747 4153 
Q 2428 4238 2131 4238 
Q 1616 4238 1336 4038 
Q 1056 3838 1056 3469 
Q 1056 3159 1242 3001 
Q 1428 2844 1947 2747 
L 2328 2669 
Q 3034 2534 3370 2195 
Q 3706 1856 3706 1288 
Q 3706 609 3251 259 
Q 2797 -91 1919 -91 
Q 1588 -91 1214 -16 
Q 841 59 441 206 
L 441 856 
Q 825 641 1194 531 
Q 1563 422 1919 422 
Q 2459 422 2753 634 
Q 3047 847 3047 1241 
Q 3047 1584 2836 1778 
Q 2625 1972 2144 2069 
L 1759 2144 
Q 1053 2284 737 2584 
Q 422 2884 422 3419 
Q 422 4038 858 4394 
Q 1294 4750 2059 4750 
Q 2388 4750 2728 4690 
Q 3069 4631 3425 4513 
z
" transform="scale(0.015625)"/>
      <path id="DejaVuSans-43" d="M 4122 4306 
L 4122 3641 
Q 3803 3938 3442 4084 
Q 3081 4231 2675 4231 
Q 1875 4231 1450 3742 
Q 1025 3253 1025 2328 
Q 1025 1406 1450 917 
Q 1875 428 2675 428 
Q 3081 428 3442 575 
Q 3803 722 4122 1019 
L 4122 359 
Q 3791 134 3420 21 
Q 3050 -91 2638 -91 
Q 1578 -91 968 557 
Q 359 1206 359 2328 
Q 359 3453 968 4101 
Q 1578 4750 2638 4750 
Q 3056 4750 3426 4639 
Q 3797 4528 4122 4306 
z
" transform="scale(0.015625)"/>
      <path id="DejaVuSans-47" d="M 3809 666 
L 3809 1919 
L 2778 1919 
L 2778 2438 
L 4434 2438 
L 4434 434 
Q 4069 175 3628 42 
Q 3188 -91 2688 -91 
Q 1594 -91 976 548 
Q 359 1188 359 2328 
Q 359 3472 976 4111 
Q 1594 4750 2688 4750 
Q 3144 4750 3555 4637 
Q 3966 4525 4313 4306 
L 4313 3634 
Q 3963 3931 3569 4081 
Q 3175 4231 2741 4231 
Q 1884 4231 1454 3753 
Q 1025 3275 1025 2328 
Q 1025 1384 1454 906 
Q 1884 428 2741 428 
Q 3075 428 3337 486 
Q 3600 544 3809 666 
z
" transform="scale(0.015625)"/>
      <path id="DejaVuSans-54" d="M -19 4666 
L 3928 4666 
L 3928 4134 
L 2272 4134 
L 2272 0 
L 1638 0 
L 1638 4134 
L -19 4134 
L -19 4666 
z
" transform="scale(0.015625)"/>
      <path id="DejaVuSans-50" d="M 1259 4147 
L 1259 2394 
L 2053 2394 
Q 2494 2394 2734 2622 
Q 2975 2850 2975 3272 
Q 2975 3691 2734 3919 
Q 2494 4147 2053 4147 
L 1259 4147 
z
M 628 4666 
L 2053 4666 
Q 2838 4666 3239 4311 
Q 3641 3956 3641 3272 
Q 3641 2581 3239 2228 
Q 2838 1875 2053 1875 
L 1259 1875 
L 1259 0 
L 628 0 
L 628 4666 
z
" transform="scale(0.015625)"/>
      <path id="DejaVuSans-34" d="M 2419 4116 
L 825 1625 
L 2419 1625 
L 2419 4116 
z
M 2253 4666 
L 3047 4666 
L 3047 1625 
L 3713 1625 
L 3713 1100 
L 3047 1100 
L 3047 0 
L 2419 0 
L 2419 1100 
L 313 1100 
L 313 1709 
L 2253 4666 
z
" transform="scale(0.015625)"/>
     </defs>
     <use xlink:href="#DejaVuSans-4e"/>
     <use xlink:href="#DejaVuSans-65" x="74.804688"/>
     <use xlink:href="#DejaVuSans-30" x="136.328125"/>
     <use xlink:href="#DejaVuSans-4e" x="199.951172"/>
     <use xlink:href="#DejaVuSans-65" x="274.755859"/>
     <use xlink:href="#DejaVuSans-31" x="336.279297"/>
     <use xlink:href="#DejaVuSans-2d" x="399.902344"/>
     <use xlink:href="#DejaVuSans-4d" x="435.986328"/>
     <use xlink:href="#DejaVuSans-53" x="522.265625"/>
     <use xlink:href="#DejaVuSans-43" x="585.742188"/>
     <use xlink:href="#DejaVuSans-2d" x="655.566406"/>
     <use xlink:href="#DejaVuSans-47" x="695.275391"/>
     <use xlink:href="#DejaVuSans-54" x="769.140625"/>
     <use xlink:href="#DejaVuSans-2d" x="821.099609"/>
     <use xlink:href="#DejaVuSans-50" x="857.183594"/>
     <use xlink:href="#DejaVuSans-32" x="917.486328"/>
     <use xlink:href="#DejaVuSans-2d" x="981.109375"/>
     <use xlink:href="#DejaVuSans-53" x="1017.193359"/>
     <use xlink:href="#DejaVuSans-34" x="1080.669922"/>
    </g>
   </g>
  </g>
  <g id="axes_2">
   <g id="patch_7">
    <path d="M 225.72 192.24 
L 234.036 192.24 
L 234.036 25.92 
L 225.72 25.92 
z
" style="fill: #ffffff"/>
   </g>
   <g id="QuadMesh_1">
    <path d="M 225.72 192.24 
L 234.036 192.24 
L 234.036 181.152 
L 225.72 181.152 
L 225.72 192.24 
" clip-path="url(#p284eaa01f8)" style="fill: #440154"/>
    <path d="M 225.72 181.152 
L 234.036 181.152 
L 234.036 170.064 
L 225.72 170.064 
L 225.72 181.152 
" clip-path="url(#p284eaa01f8)" style="fill: #481769"/>
    <path d="M 225.72 170.064 
L 234.036 170.064 
L 234.036 158.976 
L 225.72 158.976 
L 225.72 170.064 
" clip-path="url(#p284eaa01f8)" style="fill: #472e7c"/>
    <path d="M 225.72 158.976 
L 234.036 158.976 
L 234.036 147.888 
L 225.72 147.888 
L 225.72 158.976 
" clip-path="url(#p284eaa01f8)" style="fill: #414287"/>
    <path d="M 225.72 147.888 
L 234.036 147.888 
L 234.036 136.8 
L 225.72 136.8 
L 225.72 147.888 
" clip-path="url(#p284eaa01f8)" style="fill: #39568c"/>
    <path d="M 225.72 136.8 
L 234.036 136.8 
L 234.036 125.712 
L 225.72 125.712 
L 225.72 136.8 
" clip-path="url(#p284eaa01f8)" style="fill: #30698e"/>
    <path d="M 225.72 125.712 
L 234.036 125.712 
L 234.036 114.624 
L 225.72 114.624 
L 225.72 125.712 
" clip-path="url(#p284eaa01f8)" style="fill: #297a8e"/>
    <path d="M 225.72 114.624 
L 234.036 114.624 
L 234.036 103.536 
L 225.72 103.536 
L 225.72 114.624 
" clip-path="url(#p284eaa01f8)" style="fill: #228b8d"/>
    <path d="M 225.72 103.536 
L 234.036 103.536 
L 234.036 92.448 
L 225.72 92.448 
L 225.72 103.536 
" clip-path="url(#p284eaa01f8)" style="fill: #1e9c89"/>
    <path d="M 225.72 92.448 
L 234.036 92.448 
L 234.036 81.36 
L 225.72 81.36 
L 225.72 92.448 
" clip-path="url(#p284eaa01f8)" style="fill: #25ac82"/>
    <path d="M 225.72 81.36 
L 234.036 81.36 
L 234.036 70.272 
L 225.72 70.272 
L 225.72 81.36 
" clip-path="url(#p284eaa01f8)" style="fill: #3dbc74"/>
    <path d="M 225.72 70.272 
L 234.036 70.272 
L 234.036 59.184 
L 225.72 59.184 
L 225.72 70.272 
" clip-path="url(#p284eaa01f8)" style="fill: #60ca60"/>
    <path d="M 225.72 59.184 
L 234.036 59.184 
L 234.036 48.096 
L 225.72 48.096 
L 225.72 59.184 
" clip-path="url(#p284eaa01f8)" style="fill: #8bd646"/>
    <path d="M 225.72 48.096 
L 234.036 48.096 
L 234.036 37.008 
L 225.72 37.008 
L 225.72 48.096 
" clip-path="url(#p284eaa01f8)" style="fill: #bade28"/>
    <path d="M 225.72 37.008 
L 234.036 37.008 
L 234.036 25.92 
L 225.72 25.92 
L 225.72 37.008 
" clip-path="url(#p284eaa01f8)" style="fill: #eae51a"/>
   </g>
   <g id="matplotlib.axis_3"/>
   <g id="matplotlib.axis_4">
    <g id="ytick_4">
     <g id="line2d_7">
      <defs>
       <path id="m1b9668929b" d="M 0 0 
L 3.5 0 
" style="stroke: #000000; stroke-width: 0.8"/>
      </defs>
      <g>
       <use xlink:href="#m1b9668929b" x="234.036" y="181.152" style="stroke: #000000; stroke-width: 0.8"/>
      </g>
     </g>
     <g id="text_12">
      <!-- $\mathdefault{5720}$ -->
      <g transform="translate(241.036 184.951219) scale(0.1 -0.1)">
       <defs>
        <path id="DejaVuSans-2212" d="M 678 2272 
L 4684 2272 
L 4684 1741 
L 678 1741 
L 678 2272 
z
" transform="scale(0.015625)"/>
       </defs>
       <use xlink:href="#DejaVuSans-2212" transform="translate(0 0.78125)"/>
       <use xlink:href="#DejaVuSans-35" transform="translate(83.789062 0.78125)"/>
       <use xlink:href="#DejaVuSans-37" transform="translate(140.162109 0.78125)"/>
       <use xlink:href="#DejaVuSans-32" transform="translate(203.785156 0.78125)"/>
       <use xlink:href="#DejaVuSans-30" transform="translate(267.408203 0.78125)"/>
      </g>
     </g>
    </g>
    <g id="ytick_5">
     <g id="line2d_8">
      <g>
       <use xlink:href="#m1b9668929b" x="234.036" y="158.976" style="stroke: #000000; stroke-width: 0.8"/>
      </g>
     </g>
     <g id="text_13">
      <!-- $\mathdefault{5700}$ -->
      <g transform="translate(241.036 162.775219) scale(0.1 -0.1)">
       <use xlink:href="#DejaVuSans-2212" transform="translate(0 0.78125)"/>
       <use xlink:href="#DejaVuSans-35" transform="translate(83.789062 0.78125)"/>
       <use xlink:href="#DejaVuSans-37" transform="translate(140.162109 0.78125)"/>
       <use xlink:href="#DejaVuSans-30" transform="translate(203.785156 0.78125)"/>
       <use xlink:href="#DejaVuSans-30" transform="translate(267.408203 0.78125)"/>
      </g>
     </g>
    </g>
    <g id="ytick_6">
     <g id="line2d_9">
      <g>
       <use xlink:href="#m1b9668929b" x="234.036" y="136.8" style="stroke: #000000; stroke-width: 0.8"/>
      </g>
     </g>
     <g id="text_14">
      <!-- $\mathdefault{5680}$ -->
      <g transform="translate(241.036 140.599219) scale(0.1 -0.1)">
       <defs>
        <path id="DejaVuSans-36" d="M 2113 2584 
Q 1688 2584 1439 2293 
Q 1191 2003 1191 1497 
Q 1191 994 1439 701 
Q 1688 409 2113 409 
Q 2538 409 2786 701 
Q 3034 994 3034 1497 
Q 3034 2003 2786 2293 
Q 2538 2584 2113 2584 
z
M 3366 4563 
L 3366 3988 
Q 3128 4100 2886 4159 
Q 2644 4219 2406 4219 
Q 1781 4219 1451 3797 
Q 1122 3375 1075 2522 
Q 1259 2794 1537 2939 
Q 1816 3084 2150 3084 
Q 2853 3084 3261 2657 
Q 3669 2231 3669 1497 
Q 3669 778 3244 343 
Q 2819 -91 2113 -91 
Q 1303 -91 875 529 
Q 447 1150 447 2328 
Q 447 3434 972 4092 
Q 1497 4750 2381 4750 
Q 2619 4750 2861 4703 
Q 3103 4656 3366 4563 
z
" transform="scale(0.015625)"/>
        <path id="DejaVuSans-38" d="M 2034 2216 
Q 1584 2216 1326 1975 
Q 1069 1734 1069 1313 
Q 1069 891 1326 650 
Q 1584 409 2034 409 
Q 2484 409 2743 651 
Q 3003 894 3003 1313 
Q 3003 1734 2745 1975 
Q 2488 2216 2034 2216 
z
M 1403 2484 
Q 997 2584 770 2862 
Q 544 3141 544 3541 
Q 544 4100 942 4425 
Q 1341 4750 2034 4750 
Q 2731 4750 3128 4425 
Q 3525 4100 3525 3541 
Q 3525 3141 3298 2862 
Q 3072 2584 2669 2484 
Q 3125 2378 3379 2068 
Q 3634 1759 3634 1313 
Q 3634 634 3220 271 
Q 2806 -91 2034 -91 
Q 1263 -91 848 271 
Q 434 634 434 1313 
Q 434 1759 690 2068 
Q 947 2378 1403 2484 
z
M 1172 3481 
Q 1172 3119 1398 2916 
Q 1625 2713 2034 2713 
Q 2441 2713 2670 2916 
Q 2900 3119 2900 3481 
Q 2900 3844 2670 4047 
Q 2441 4250 2034 4250 
Q 1625 4250 1398 4047 
Q 1172 3844 1172 3481 
z
" transform="scale(0.015625)"/>
       </defs>
       <use xlink:href="#DejaVuSans-2212" transform="translate(0 0.78125)"/>
       <use xlink:href="#DejaVuSans-35" transform="translate(83.789062 0.78125)"/>
       <use xlink:href="#DejaVuSans-36" transform="translate(147.412109 0.78125)"/>
       <use xlink:href="#DejaVuSans-38" transform="translate(211.035156 0.78125)"/>
       <use xlink:href="#DejaVuSans-30" transform="translate(274.658203 0.78125)"/>
      </g>
     </g>
    </g>
    <g id="ytick_7">
     <g id="line2d_10">
      <g>
       <use xlink:href="#m1b9668929b" x="234.036" y="114.624" style="stroke: #000000; stroke-width: 0.8"/>
      </g>
     </g>
     <g id="text_15">
      <!-- $\mathdefault{5660}$ -->
      <g transform="translate(241.036 118.423219) scale(0.1 -0.1)">
       <use xlink:href="#DejaVuSans-2212" transform="translate(0 0.78125)"/>
       <use xlink:href="#DejaVuSans-35" transform="translate(83.789062 0.78125)"/>
       <use xlink:href="#DejaVuSans-36" transform="translate(147.412109 0.78125)"/>
       <use xlink:href="#DejaVuSans-36" transform="translate(211.035156 0.78125)"/>
       <use xlink:href="#DejaVuSans-30" transform="translate(274.658203 0.78125)"/>
      </g>
     </g>
    </g>
    <g id="ytick_8">
     <g id="line2d_11">
      <g>
       <use xlink:href="#m1b9668929b" x="234.036" y="92.448" style="stroke: #000000; stroke-width: 0.8"/>
      </g>
     </g>
     <g id="text_16">
      <!-- $\mathdefault{5640}$ -->
      <g transform="translate(241.036 96.247219) scale(0.1 -0.1)">
       <use xlink:href="#DejaVuSans-2212" transform="translate(0 0.78125)"/>
       <use xlink:href="#DejaVuSans-35" transform="translate(83.789062 0.78125)"/>
       <use xlink:href="#DejaVuSans-36" transform="translate(147.412109 0.78125)"/>
       <use xlink:href="#DejaVuSans-34" transform="translate(211.035156 0.78125)"/>
       <use xlink:href="#DejaVuSans-30" transform="translate(274.658203 0.78125)"/>
      </g>
     </g>
    </g>
    <g id="ytick_9">
     <g id="line2d_12">
      <g>
       <use xlink:href="#m1b9668929b" x="234.036" y="70.272" style="stroke: #000000; stroke-width: 0.8"/>
      </g>
     </g>
     <g id="text_17">
      <!-- $\mathdefault{5620}$ -->
      <g transform="translate(241.036 74.071219) scale(0.1 -0.1)">
       <use xlink:href="#DejaVuSans-2212" transform="translate(0 0.78125)"/>
       <use xlink:href="#DejaVuSans-35" transform="translate(83.789062 0.78125)"/>
       <use xlink:href="#DejaVuSans-36" transform="translate(147.412109 0.78125)"/>
       <use xlink:href="#DejaVuSans-32" transform="translate(211.035156 0.78125)"/>
       <use xlink:href="#DejaVuSans-30" transform="translate(274.658203 0.78125)"/>
      </g>
     </g>
    </g>
    <g id="ytick_10">
     <g id="line2d_13">
      <g>
       <use xlink:href="#m1b9668929b" x="234.036" y="48.096" style="stroke: #000000; stroke-width: 0.8"/>
      </g>
     </g>
     <g id="text_18">
      <!-- $\mathdefault{5600}$ -->
      <g transform="translate(241.036 51.895219) scale(0.1 -0.1)">
       <use xlink:href="#DejaVuSans-2212" transform="translate(0 0.78125)"/>
       <use xlink:href="#DejaVuSans-35" transform="translate(83.789062 0.78125)"/>
       <use xlink:href="#DejaVuSans-36" transform="translate(147.412109 0.78125)"/>
       <use xlink:href="#DejaVuSans-30" transform="translate(211.035156 0.78125)"/>
       <use xlink:href="#DejaVuSans-30" transform="translate(274.658203 0.78125)"/>
      </g>
     </g>
    </g>
    <g id="ytick_11">
     <g id="line2d_14">
      <g>
       <use xlink:href="#m1b9668929b" x="234.036" y="25.92" style="stroke: #000000; stroke-width: 0.8"/>
      </g>
     </g>
     <g id="text_19">
      <!-- $\mathdefault{5580}$ -->
      <g transform="translate(241.036 29.719219) scale(0.1 -0.1)">
       <use xlink:href="#DejaVuSans-2212" transform="translate(0 0.78125)"/>
       <use xlink:href="#DejaVuSans-35" transform="translate(83.789062 0.78125)"/>
       <use xlink:href="#DejaVuSans-35" transform="translate(147.412109 0.78125)"/>
       <use xlink:href="#DejaVuSans-38" transform="translate(211.035156 0.78125)"/>
       <use xlink:href="#DejaVuSans-30" transform="translate(274.658203 0.78125)"/>
      </g>
     </g>
    </g>
    <g id="text_20">
     <!-- log likelihood -->
     <g transform="translate(288.054125 148.704375) rotate(-90) scale(0.12 -0.12)">
      <defs>
       <path id="DejaVuSans-67" d="M 2906 1791 
Q 2906 2416 2648 2759 
Q 2391 3103 1925 3103 
Q 1463 3103 1205 2759 
Q 947 2416 947 1791 
Q 947 1169 1205 825 
Q 1463 481 1925 481 
Q 2391 481 2648 825 
Q 2906 1169 2906 1791 
z
M 3481 434 
Q 3481 -459 3084 -895 
Q 2688 -1331 1869 -1331 
Q 1566 -1331 1297 -1286 
Q 1028 -1241 775 -1147 
L 775 -588 
Q 1028 -725 1275 -790 
Q 1522 -856 1778 -856 
Q 2344 -856 2625 -561 
Q 2906 -266 2906 331 
L 2906 616 
Q 2728 306 2450 153 
Q 2172 0 1784 0 
Q 1141 0 747 490 
Q 353 981 353 1791 
Q 353 2603 747 3093 
Q 1141 3584 1784 3584 
Q 2172 3584 2450 3431 
Q 2728 3278 2906 2969 
L 2906 3500 
L 3481 3500 
L 3481 434 
z
" transform="scale(0.015625)"/>
       <path id="DejaVuSans-6b" d="M 581 4863 
L 1159 4863 
L 1159 1991 
L 2875 3500 
L 3609 3500 
L 1753 1863 
L 3688 0 
L 2938 0 
L 1159 1709 
L 1159 0 
L 581 0 
L 581 4863 
z
" transform="scale(0.015625)"/>
       <path id="DejaVuSans-68" d="M 3513 2113 
L 3513 0 
L 2938 0 
L 2938 2094 
Q 2938 2591 2744 2837 
Q 2550 3084 2163 3084 
Q 1697 3084 1428 2787 
Q 1159 2491 1159 1978 
L 1159 0 
L 581 0 
L 581 4863 
L 1159 4863 
L 1159 2956 
Q 1366 3272 1645 3428 
Q 1925 3584 2291 3584 
Q 2894 3584 3203 3211 
Q 3513 2838 3513 2113 
z
" transform="scale(0.015625)"/>
      </defs>
      <use xlink:href="#DejaVuSans-6c"/>
      <use xlink:href="#DejaVuSans-6f" x="27.783203"/>
      <use xlink:href="#DejaVuSans-67" x="88.964844"/>
      <use xlink:href="#DejaVuSans-20" x="152.441406"/>
      <use xlink:href="#DejaVuSans-6c" x="184.228516"/>
      <use xlink:href="#DejaVuSans-69" x="212.011719"/>
      <use xlink:href="#DejaVuSans-6b" x="239.794922"/>
      <use xlink:href="#DejaVuSans-65" x="294.080078"/>
      <use xlink:href="#DejaVuSans-6c" x="355.603516"/>
      <use xlink:href="#DejaVuSans-69" x="383.386719"/>
      <use xlink:href="#DejaVuSans-68" x="411.169922"/>
      <use xlink:href="#DejaVuSans-6f" x="474.548828"/>
      <use xlink:href="#DejaVuSans-6f" x="535.730469"/>
      <use xlink:href="#DejaVuSans-64" x="596.912109"/>
     </g>
    </g>
    <g id="text_21">
     <!-- $\times\mathdefault{10^{3}}\mathdefault{}$ -->
     <g transform="translate(208.036 22.92) scale(0.1 -0.1)">
      <use xlink:href="#DejaVuSans-d7" transform="translate(0 0.765625)"/>
      <use xlink:href="#DejaVuSans-31" transform="translate(83.789062 0.765625)"/>
      <use xlink:href="#DejaVuSans-30" transform="translate(147.412109 0.765625)"/>
      <use xlink:href="#DejaVuSans-33" transform="translate(211.992188 39.046875) scale(0.7)"/>
     </g>
    </g>
   </g>
   <g id="LineCollection_1"/>
   <g id="patch_8">
    <path d="M 225.72 192.24 
L 229.878 192.24 
L 234.036 192.24 
L 234.036 25.92 
L 229.878 25.92 
L 225.72 25.92 
L 225.72 192.24 
z
" style="fill: none; stroke: #000000; stroke-width: 0.8; stroke-linejoin: miter; stroke-linecap: square"/>
   </g>
  </g>
 </g>
 <defs>
  <clipPath id="pb32c73cefd">
   <rect x="36" y="25.92" width="178.56" height="166.32"/>
  </clipPath>
  <clipPath id="p284eaa01f8">
   <rect x="225.72" y="25.92" width="8.316" height="166.32"/>
  </clipPath>
 </defs>
</svg>
