<?xml version="1.0" encoding="utf-8" standalone="no"?>
<!DOCTYPE svg PUBLIC "-//W3C//DTD SVG 1.1//EN"
  "http://www.w3.org/Graphics/SVG/1.1/DTD/svg11.dtd">
<svg xmlns:xlink="http://www.w3.org/1999/xlink" width="288pt" height="216pt" viewBox="0 0 288 216" xmlns="http://www.w3.org/2000/svg" version="1.1">
 <metadata>
  <rdf:RDF xmlns:dc="http://purl.org/dc/elements/1.1/" xmlns:cc="http://creativecommons.org/ns#" xmlns:rdf="http://www.w3.org/1999/02/22-rdf-syntax-ns#">
   <cc:Work>
    <dc:type rdf:resource="http://purl.org/dc/dcmitype/StillImage"/>
    <dc:date>2023-07-18T20:48:07.887676</dc:date>
    <dc:format>image/svg+xml</dc:format>
    <dc:creator>
     <cc:Agent>
      <dc:title>Matplotlib v3.7.1, https://matplotlib.org/</dc:title>
     </cc:Agent>
    </dc:creator>
   </cc:Work>
  </rdf:RDF>
 </metadata>
 <defs>
  <style type="text/css">*{stroke-linejoin: round; stroke-linecap: butt}</style>
 </defs>
 <g id="figure_1">
  <g id="patch_1">
   <path d="M 0 216 
L 288 216 
L 288 0 
L 0 0 
z
" style="fill: #ffffff"/>
  </g>
  <g id="axes_1">
   <g id="patch_2">
    <path d="M 36 192.24 
L 214.56 192.24 
L 214.56 25.92 
L 36 25.92 
z
" style="fill: #ffffff"/>
   </g>
   <g id="PathCollection_1">
    <path d="M 36 186.696 
L 36 181.152 
L 36 175.608 
L 36 170.064 
L 36 164.52 
L 36 158.976 
L 36 153.432 
L 36 147.888 
L 36 147.158571 
L 41.688602 147.888 
L 41.952 148.133343 
L 47.904 152.342465 
L 53.856 152.786772 
L 59.808 153.141233 
L 61.038024 153.432 
L 65.76 157.266129 
L 71.712 157.992583 
L 77.664 158.25381 
L 83.616 158.387696 
L 89.568 158.468809 
L 95.52 158.808262 
L 97.088994 158.976 
L 101.472 161.719485 
L 107.424 162.763424 
L 113.376 163.200814 
L 119.328 163.441057 
L 125.28 163.592807 
L 131.232 163.697281 
L 137.184 163.773549 
L 143.136 163.831643 
L 149.088 163.877349 
L 155.04 163.914232 
L 160.992 163.944611 
L 166.944 163.97006 
L 172.896 163.991683 
L 178.848 164.010278 
L 184.8 164.026437 
L 190.752 164.040605 
L 196.704 164.053127 
L 202.656 164.128926 
L 208.608 164.277468 
L 214.56 164.418458 
L 214.56 164.52 
L 214.56 170.064 
L 214.56 175.608 
L 214.56 181.152 
L 214.56 186.696 
L 214.56 192.24 
L 208.608 192.24 
L 202.656 192.24 
L 196.704 192.24 
L 190.752 192.24 
L 184.8 192.24 
L 178.848 192.24 
L 172.896 192.24 
L 166.944 192.24 
L 160.992 192.24 
L 155.04 192.24 
L 149.088 192.24 
L 143.136 192.24 
L 137.184 192.24 
L 131.232 192.24 
L 125.28 192.24 
L 119.328 192.24 
L 113.376 192.24 
L 107.424 192.24 
L 101.472 192.24 
L 95.52 192.24 
L 89.568 192.24 
L 83.616 192.24 
L 77.664 192.24 
L 71.712 192.24 
L 65.76 192.24 
L 59.808 192.24 
L 53.856 192.24 
L 47.904 192.24 
L 41.952 192.24 
L 36 192.24 
z
" clip-path="url(#p003ed4209d)" style="fill: #440154"/>
    <path d="M 36 42.552 
L 36 37.008 
L 36 31.464 
L 36 25.92 
L 41.952 25.92 
L 47.904 25.92 
L 53.856 25.92 
L 59.808 25.92 
L 65.76 25.92 
L 71.712 25.92 
L 77.664 25.92 
L 83.616 25.92 
L 89.568 25.92 
L 95.52 25.92 
L 101.472 25.92 
L 107.424 25.92 
L 113.376 25.92 
L 119.328 25.92 
L 125.28 25.92 
L 131.232 25.92 
L 137.184 25.92 
L 143.136 25.92 
L 149.088 25.92 
L 155.04 25.92 
L 160.992 25.92 
L 166.944 25.92 
L 172.896 25.92 
L 178.848 25.92 
L 184.8 25.92 
L 190.752 25.92 
L 196.704 25.92 
L 202.656 25.92 
L 208.608 25.92 
L 214.56 25.92 
L 214.56 31.464 
L 214.56 37.008 
L 214.56 42.552 
L 214.56 48.096 
L 214.56 53.64 
L 214.56 59.184 
L 214.56 64.728 
L 214.56 70.272 
L 214.56 75.816 
L 214.56 76.534617 
L 208.608 76.496691 
L 202.656 76.433849 
L 196.704 76.093491 
L 192.141336 75.816 
L 190.752 75.180591 
L 184.8 73.5082 
L 178.848 72.653295 
L 172.896 72.134284 
L 166.944 71.785777 
L 160.992 71.535664 
L 155.04 71.347482 
L 149.088 71.200809 
L 143.136 71.083321 
L 137.184 70.987142 
L 131.232 70.699734 
L 127.92438 70.272 
L 125.28 68.38328 
L 119.328 66.736808 
L 113.376 66.083428 
L 107.424 65.733187 
L 101.472 65.515145 
L 95.52 65.081564 
L 93.931059 64.728 
L 89.568 61.459153 
L 83.616 60.404821 
L 77.664 59.999854 
L 72.944544 59.184 
L 71.712 58.035945 
L 65.76 54.988263 
L 59.808 54.419978 
L 57.546174 53.64 
L 53.856 50.202781 
L 47.904 49.000854 
L 45.137931 48.096 
L 41.952 45.12846 
L 36 43.541993 
z
" clip-path="url(#p003ed4209d)" style="fill: #440154"/>
   </g>
   <g id="PathCollection_2">
    <path d="M 41.688602 147.888 
L 36 147.158571 
L 36 145.10054 
L 41.952 146.419352 
L 46.038373 147.888 
L 47.904 149.268419 
L 53.856 150.966308 
L 59.808 151.736738 
L 65.76 153.134591 
L 67.199029 153.432 
L 71.712 155.217943 
L 77.664 156.216203 
L 83.616 156.72784 
L 89.568 157.037807 
L 95.52 157.45872 
L 101.472 158.080705 
L 107.424 158.647739 
L 111.208025 158.976 
L 113.376 159.478824 
L 119.328 160.396896 
L 125.28 160.976798 
L 131.232 161.376039 
L 137.184 161.667489 
L 143.136 161.889495 
L 149.088 162.064155 
L 155.04 162.2051 
L 160.992 162.321193 
L 166.944 162.418444 
L 172.896 162.501076 
L 178.848 162.572136 
L 184.8 162.633883 
L 190.752 162.688026 
L 196.704 162.73588 
L 202.656 162.826788 
L 208.608 162.969707 
L 214.56 163.105319 
L 214.56 164.418458 
L 208.608 164.277468 
L 202.656 164.128926 
L 196.704 164.053127 
L 190.752 164.040605 
L 184.8 164.026437 
L 178.848 164.010278 
L 172.896 163.991683 
L 166.944 163.97006 
L 160.992 163.944611 
L 155.04 163.914232 
L 149.088 163.877349 
L 143.136 163.831643 
L 137.184 163.773549 
L 131.232 163.697281 
L 125.28 163.592807 
L 119.328 163.441057 
L 113.376 163.200814 
L 107.424 162.763424 
L 101.472 161.719485 
L 97.088994 158.976 
L 95.52 158.808262 
L 89.568 158.468809 
L 83.616 158.387696 
L 77.664 158.25381 
L 71.712 157.992583 
L 65.76 157.266129 
L 61.038024 153.432 
L 59.808 153.141233 
L 53.856 152.786772 
L 47.904 152.342465 
L 41.952 148.133343 
z
" clip-path="url(#p003ed4209d)" style="fill: #481467"/>
    <path d="M 39.070049 48.096 
L 36 46.335187 
L 36 43.541993 
L 41.952 45.12846 
L 45.137931 48.096 
L 47.904 49.000854 
L 53.856 50.202781 
L 57.546174 53.64 
L 59.808 54.419978 
L 65.76 54.988263 
L 71.712 58.035945 
L 72.944544 59.184 
L 77.664 59.999854 
L 83.616 60.404821 
L 89.568 61.459153 
L 93.931059 64.728 
L 95.52 65.081564 
L 101.472 65.515145 
L 107.424 65.733187 
L 113.376 66.083428 
L 119.328 66.736808 
L 125.28 68.38328 
L 127.92438 70.272 
L 131.232 70.699734 
L 137.184 70.987142 
L 143.136 71.083321 
L 149.088 71.200809 
L 155.04 71.347482 
L 160.992 71.535664 
L 166.944 71.785777 
L 172.896 72.134284 
L 178.848 72.653295 
L 184.8 73.5082 
L 190.752 75.180591 
L 192.141336 75.816 
L 196.704 76.093491 
L 202.656 76.433849 
L 208.608 76.496691 
L 214.56 76.534617 
L 214.56 78.562144 
L 208.608 78.417214 
L 202.656 78.263762 
L 196.704 77.935152 
L 190.752 77.585173 
L 184.8 77.211683 
L 178.848 76.812242 
L 172.896 76.384068 
L 166.944 75.923965 
L 165.637906 75.816 
L 160.992 75.101002 
L 155.04 74.381875 
L 149.088 73.821376 
L 143.136 73.372406 
L 137.184 73.004864 
L 131.232 72.566991 
L 125.28 71.819486 
L 119.328 70.996217 
L 114.578558 70.272 
L 113.376 69.907671 
L 107.424 68.569251 
L 101.472 67.736019 
L 95.52 66.98806 
L 89.568 65.687545 
L 85.651743 64.728 
L 83.616 63.849281 
L 77.664 62.301727 
L 71.712 60.972215 
L 66.36658 59.184 
L 65.76 58.792289 
L 59.808 56.620631 
L 53.856 54.512119 
L 51.829813 53.64 
L 47.904 51.553836 
L 41.952 49.357058 
z
" clip-path="url(#p003ed4209d)" style="fill: #481467"/>
   </g>
   <g id="PathCollection_3">
    <path d="M 41.952 144.926199 
L 47.904 147.029656 
L 50.544505 147.888 
L 53.856 149.145844 
L 59.808 150.332242 
L 65.76 151.685534 
L 71.712 152.900457 
L 74.646516 153.432 
L 77.664 154.178596 
L 83.616 155.067983 
L 89.568 155.606805 
L 95.52 156.109178 
L 101.472 156.70921 
L 107.424 157.255613 
L 113.376 157.75516 
L 119.328 158.213571 
L 125.28 158.635698 
L 130.481223 158.976 
L 131.232 159.054797 
L 137.184 159.56143 
L 143.136 159.947346 
L 149.088 160.250961 
L 155.04 160.495968 
L 160.992 160.697774 
L 166.944 160.866829 
L 172.896 161.010468 
L 178.848 161.133993 
L 184.8 161.24133 
L 190.752 161.335448 
L 196.704 161.418633 
L 202.656 161.524651 
L 208.608 161.661947 
L 214.56 161.792179 
L 214.56 163.105319 
L 208.608 162.969707 
L 202.656 162.826788 
L 196.704 162.73588 
L 190.752 162.688026 
L 184.8 162.633883 
L 178.848 162.572136 
L 172.896 162.501076 
L 166.944 162.418444 
L 160.992 162.321193 
L 155.04 162.2051 
L 149.088 162.064155 
L 143.136 161.889495 
L 137.184 161.667489 
L 131.232 161.376039 
L 125.28 160.976798 
L 119.328 160.396896 
L 113.376 159.478824 
L 111.208025 158.976 
L 107.424 158.647739 
L 101.472 158.080705 
L 95.52 157.45872 
L 89.568 157.037807 
L 83.616 156.72784 
L 77.664 156.216203 
L 71.712 155.217943 
L 67.199029 153.432 
L 65.76 153.134591 
L 59.808 151.736738 
L 53.856 150.966308 
L 47.904 149.268419 
L 46.038373 147.888 
L 41.952 146.419352 
L 36 145.10054 
L 36 143.042509 
z
" clip-path="url(#p003ed4209d)" style="fill: #482979"/>
    <path d="M 36 48.096 
L 36 46.335187 
L 39.070049 48.096 
L 41.952 49.357058 
L 47.904 51.553836 
L 51.829813 53.64 
L 53.856 54.512119 
L 59.808 56.620631 
L 65.76 58.792289 
L 66.36658 59.184 
L 71.712 60.972215 
L 77.664 62.301727 
L 83.616 63.849281 
L 85.651743 64.728 
L 89.568 65.687545 
L 95.52 66.98806 
L 101.472 67.736019 
L 107.424 68.569251 
L 113.376 69.907671 
L 114.578558 70.272 
L 119.328 70.996217 
L 125.28 71.819486 
L 131.232 72.566991 
L 137.184 73.004864 
L 143.136 73.372406 
L 149.088 73.821376 
L 155.04 74.381875 
L 160.992 75.101002 
L 165.637906 75.816 
L 166.944 75.923965 
L 172.896 76.384068 
L 178.848 76.812242 
L 184.8 77.211683 
L 190.752 77.585173 
L 196.704 77.935152 
L 202.656 78.263762 
L 208.608 78.417214 
L 214.56 78.562144 
L 214.56 80.589671 
L 208.608 80.337736 
L 202.656 80.093674 
L 196.704 79.776813 
L 190.752 79.43942 
L 184.8 79.079445 
L 178.848 78.694556 
L 172.896 78.282091 
L 166.944 77.838997 
L 160.992 77.361759 
L 155.04 76.846307 
L 149.088 76.287906 
L 144.447376 75.816 
L 143.136 75.661492 
L 137.184 75.022585 
L 131.232 74.434248 
L 125.28 73.713913 
L 119.328 72.921009 
L 113.376 72.044309 
L 107.424 71.070249 
L 103.031571 70.272 
L 101.472 69.956892 
L 95.52 68.894557 
L 89.568 67.642732 
L 83.616 66.226682 
L 78.066615 64.728 
L 77.664 64.603601 
L 71.712 62.942839 
L 65.76 61.023205 
L 60.731882 59.184 
L 59.808 58.821283 
L 53.856 56.579996 
L 47.904 54.03988 
L 46.991495 53.64 
L 41.952 51.488048 
L 36 48.933065 
z
" clip-path="url(#p003ed4209d)" style="fill: #482979"/>
   </g>
   <g id="PathCollection_4">
    <path d="M 36 142.344 
L 36 141.217993 
L 38.828765 142.344 
L 41.952 143.433046 
L 47.904 145.471704 
L 53.856 147.38592 
L 55.608972 147.888 
L 59.808 148.927747 
L 65.76 150.236476 
L 71.712 151.408756 
L 77.664 152.461164 
L 83.616 153.409408 
L 83.776262 153.432 
L 89.568 154.175803 
L 95.52 154.759636 
L 101.472 155.337714 
L 107.424 155.863486 
L 113.376 156.343627 
L 119.328 156.783765 
L 125.28 157.188663 
L 131.232 157.562374 
L 137.184 157.908361 
L 143.136 158.2296 
L 149.088 158.528657 
L 155.04 158.80776 
L 158.886451 158.976 
L 160.992 159.074356 
L 166.944 159.315213 
L 172.896 159.51986 
L 178.848 159.69585 
L 184.8 159.848777 
L 190.752 159.982869 
L 196.704 160.101385 
L 202.656 160.222514 
L 208.608 160.354186 
L 214.56 160.47904 
L 214.56 161.792179 
L 208.608 161.661947 
L 202.656 161.524651 
L 196.704 161.418633 
L 190.752 161.335448 
L 184.8 161.24133 
L 178.848 161.133993 
L 172.896 161.010468 
L 166.944 160.866829 
L 160.992 160.697774 
L 155.04 160.495968 
L 149.088 160.250961 
L 143.136 159.947346 
L 137.184 159.56143 
L 131.232 159.054797 
L 130.481223 158.976 
L 125.28 158.635698 
L 119.328 158.213571 
L 113.376 157.75516 
L 107.424 157.255613 
L 101.472 156.70921 
L 95.52 156.109178 
L 89.568 155.606805 
L 83.616 155.067983 
L 77.664 154.178596 
L 74.646516 153.432 
L 71.712 152.900457 
L 65.76 151.685534 
L 59.808 150.332242 
L 53.856 149.145844 
L 50.544505 147.888 
L 47.904 147.029656 
L 41.952 144.926199 
L 36 143.042509 
z
" clip-path="url(#p003ed4209d)" style="fill: #443b84"/>
    <path d="M 41.952 51.488048 
L 46.991495 53.64 
L 47.904 54.03988 
L 53.856 56.579996 
L 59.808 58.821283 
L 60.731882 59.184 
L 65.76 61.023205 
L 71.712 62.942839 
L 77.664 64.603601 
L 78.066615 64.728 
L 83.616 66.226682 
L 89.568 67.642732 
L 95.52 68.894557 
L 101.472 69.956892 
L 103.031571 70.272 
L 107.424 71.070249 
L 113.376 72.044309 
L 119.328 72.921009 
L 125.28 73.713913 
L 131.232 74.434248 
L 137.184 75.022585 
L 143.136 75.661492 
L 144.447376 75.816 
L 149.088 76.287906 
L 155.04 76.846307 
L 160.992 77.361759 
L 166.944 77.838997 
L 172.896 78.282091 
L 178.848 78.694556 
L 184.8 79.079445 
L 190.752 79.43942 
L 196.704 79.776813 
L 202.656 80.093674 
L 208.608 80.337736 
L 214.56 80.589671 
L 214.56 81.36 
L 214.56 82.59803 
L 208.608 82.299724 
L 202.656 81.982931 
L 196.704 81.645883 
L 191.960968 81.36 
L 190.752 81.293667 
L 184.8 80.947207 
L 178.848 80.576869 
L 172.896 80.180113 
L 166.944 79.754029 
L 160.992 79.295267 
L 155.04 78.799953 
L 149.088 78.263584 
L 143.136 77.680891 
L 137.184 77.045683 
L 131.232 76.350628 
L 127.045123 75.816 
L 125.28 75.60834 
L 119.328 74.845801 
L 113.376 74.003242 
L 107.424 73.067828 
L 101.472 72.023968 
L 95.52 70.852618 
L 92.865698 70.272 
L 89.568 69.597919 
L 83.616 68.238635 
L 77.664 66.694474 
L 71.712 64.931142 
L 71.090309 64.728 
L 65.76 63.073538 
L 59.808 60.976881 
L 55.265979 59.184 
L 53.856 58.647874 
L 47.904 56.226792 
L 42.001086 53.64 
L 41.952 53.619039 
L 36 51.197815 
L 36 48.933065 
z
" clip-path="url(#p003ed4209d)" style="fill: #443b84"/>
   </g>
   <g id="PathCollection_5">
    <path d="M 38.828765 142.344 
L 36 141.217993 
L 36 139.513454 
L 41.952 141.85981 
L 43.212234 142.344 
L 47.904 143.913752 
L 53.856 145.761347 
L 59.808 147.448855 
L 61.563737 147.888 
L 65.76 148.787419 
L 71.712 149.917056 
L 77.664 150.92889 
L 83.616 151.838656 
L 89.568 152.660196 
L 95.52 153.405353 
L 95.758112 153.432 
L 101.472 153.966219 
L 107.424 154.47136 
L 113.376 154.932095 
L 119.328 155.353958 
L 125.28 155.741627 
L 131.232 156.099074 
L 137.184 156.429689 
L 143.136 156.736381 
L 149.088 157.021655 
L 155.04 157.287682 
L 160.992 157.53635 
L 166.944 157.769309 
L 172.896 157.988006 
L 178.848 158.193718 
L 184.8 158.387572 
L 190.752 158.570569 
L 196.704 158.743599 
L 202.656 158.907461 
L 205.288854 158.976 
L 208.608 159.046426 
L 214.56 159.165901 
L 214.56 160.47904 
L 208.608 160.354186 
L 202.656 160.222514 
L 196.704 160.101385 
L 190.752 159.982869 
L 184.8 159.848777 
L 178.848 159.69585 
L 172.896 159.51986 
L 166.944 159.315213 
L 160.992 159.074356 
L 158.886451 158.976 
L 155.04 158.80776 
L 149.088 158.528657 
L 143.136 158.2296 
L 137.184 157.908361 
L 131.232 157.562374 
L 125.28 157.188663 
L 119.328 156.783765 
L 113.376 156.343627 
L 107.424 155.863486 
L 101.472 155.337714 
L 95.52 154.759636 
L 89.568 154.175803 
L 83.776262 153.432 
L 83.616 153.409408 
L 77.664 152.461164 
L 71.712 151.408756 
L 65.76 150.236476 
L 59.808 148.927747 
L 55.608972 147.888 
L 53.856 147.38592 
L 47.904 145.471704 
L 41.952 143.433046 
z
" clip-path="url(#p003ed4209d)" style="fill: #3d4e8a"/>
    <path d="M 36.436419 53.64 
L 36 53.462565 
L 36 51.197815 
L 41.952 53.619039 
L 42.001086 53.64 
L 47.904 56.226792 
L 53.856 58.647874 
L 55.265979 59.184 
L 59.808 60.976881 
L 65.76 63.073538 
L 71.090309 64.728 
L 71.712 64.931142 
L 77.664 66.694474 
L 83.616 68.238635 
L 89.568 69.597919 
L 92.865698 70.272 
L 95.52 70.852618 
L 101.472 72.023968 
L 107.424 73.067828 
L 113.376 74.003242 
L 119.328 74.845801 
L 125.28 75.60834 
L 127.045123 75.816 
L 131.232 76.350628 
L 137.184 77.045683 
L 143.136 77.680891 
L 149.088 78.263584 
L 155.04 78.799953 
L 160.992 79.295267 
L 166.944 79.754029 
L 172.896 80.180113 
L 178.848 80.576869 
L 184.8 80.947207 
L 190.752 81.293667 
L 191.960968 81.36 
L 196.704 81.645883 
L 202.656 81.982931 
L 208.608 82.299724 
L 214.56 82.59803 
L 214.56 84.594644 
L 208.608 84.308903 
L 202.656 84.005529 
L 196.704 83.682844 
L 190.752 83.338947 
L 184.8 82.971685 
L 178.848 82.578598 
L 172.896 82.156876 
L 166.944 81.703285 
L 162.754041 81.36 
L 160.992 81.228774 
L 155.04 80.753599 
L 149.088 80.239261 
L 143.136 79.68077 
L 137.184 79.072264 
L 131.232 78.406813 
L 125.28 77.676173 
L 119.328 76.870465 
L 113.376 75.977769 
L 112.389842 75.816 
L 107.424 75.065406 
L 101.472 74.065615 
L 95.52 72.944932 
L 89.568 71.681477 
L 83.711132 70.272 
L 83.616 70.250587 
L 77.664 68.773294 
L 71.712 67.089612 
L 65.76 65.163286 
L 64.538052 64.728 
L 59.808 63.123588 
L 53.856 60.861157 
L 49.822149 59.184 
L 47.904 58.413705 
L 41.952 55.94587 
z
" clip-path="url(#p003ed4209d)" style="fill: #3d4e8a"/>
   </g>
   <g id="PathCollection_6">
    <path d="M 41.952 140.070753 
L 47.868732 142.344 
L 47.904 142.3558 
L 53.856 144.136775 
L 59.808 145.757891 
L 65.76 147.221943 
L 68.812772 147.888 
L 71.712 148.425355 
L 77.664 149.396616 
L 83.616 150.267903 
L 89.568 151.053013 
L 95.52 151.763707 
L 101.472 152.409899 
L 107.424 152.999928 
L 112.194756 153.432 
L 113.376 153.520563 
L 119.328 153.924151 
L 125.28 154.294591 
L 131.232 154.635774 
L 137.184 154.951018 
L 143.136 155.243162 
L 149.088 155.514653 
L 155.04 155.767604 
L 160.992 156.003853 
L 166.944 156.225002 
L 172.896 156.432458 
L 178.848 156.627457 
L 184.8 156.811092 
L 190.752 156.984329 
L 196.704 157.148032 
L 202.656 157.302969 
L 208.608 157.449827 
L 214.56 157.589226 
L 214.56 158.976 
L 214.56 159.165901 
L 208.608 159.046426 
L 205.288854 158.976 
L 202.656 158.907461 
L 196.704 158.743599 
L 190.752 158.570569 
L 184.8 158.387572 
L 178.848 158.193718 
L 172.896 157.988006 
L 166.944 157.769309 
L 160.992 157.53635 
L 155.04 157.287682 
L 149.088 157.021655 
L 143.136 156.736381 
L 137.184 156.429689 
L 131.232 156.099074 
L 125.28 155.741627 
L 119.328 155.353958 
L 113.376 154.932095 
L 107.424 154.47136 
L 101.472 153.966219 
L 95.758112 153.432 
L 95.52 153.405353 
L 89.568 152.660196 
L 83.616 151.838656 
L 77.664 150.92889 
L 71.712 149.917056 
L 65.76 148.787419 
L 61.563737 147.888 
L 59.808 147.448855 
L 53.856 145.761347 
L 47.904 143.913752 
L 43.212234 142.344 
L 41.952 141.85981 
L 36 139.513454 
L 36 137.808916 
z
" clip-path="url(#p003ed4209d)" style="fill: #355e8d"/>
    <path d="M 36 53.64 
L 36 53.462565 
L 36.436419 53.64 
L 41.952 55.94587 
L 47.904 58.413705 
L 49.822149 59.184 
L 53.856 60.861157 
L 59.808 63.123588 
L 64.538052 64.728 
L 65.76 65.163286 
L 71.712 67.089612 
L 77.664 68.773294 
L 83.616 70.250587 
L 83.711132 70.272 
L 89.568 71.681477 
L 95.52 72.944932 
L 101.472 74.065615 
L 107.424 75.065406 
L 112.389842 75.816 
L 113.376 75.977769 
L 119.328 76.870465 
L 125.28 77.676173 
L 131.232 78.406813 
L 137.184 79.072264 
L 143.136 79.68077 
L 149.088 80.239261 
L 155.04 80.753599 
L 160.992 81.228774 
L 162.754041 81.36 
L 166.944 81.703285 
L 172.896 82.156876 
L 178.848 82.578598 
L 184.8 82.971685 
L 190.752 83.338947 
L 196.704 83.682844 
L 202.656 84.005529 
L 208.608 84.308903 
L 214.56 84.594644 
L 214.56 86.591258 
L 208.608 86.318082 
L 202.656 86.028127 
L 196.704 85.719804 
L 190.752 85.391316 
L 184.8 85.040624 
L 178.848 84.665407 
L 172.896 84.26301 
L 166.944 83.830383 
L 160.992 83.364004 
L 155.04 82.859785 
L 149.088 82.312955 
L 143.136 81.717914 
L 139.836161 81.36 
L 137.184 81.098845 
L 131.232 80.462998 
L 125.28 79.765353 
L 119.328 78.996635 
L 113.376 78.145676 
L 107.424 77.198919 
L 101.472 76.13979 
L 99.822783 75.816 
L 95.52 75.037246 
L 89.568 73.832581 
L 83.616 72.468389 
L 77.664 70.914313 
L 75.459475 70.272 
L 71.712 69.248081 
L 65.76 67.417755 
L 59.808 65.327091 
L 58.242515 64.728 
L 53.856 63.125332 
L 47.904 60.743615 
L 44.190535 59.184 
L 41.952 58.274645 
L 36 55.934412 
z
" clip-path="url(#p003ed4209d)" style="fill: #355e8d"/>
   </g>
   <g id="PathCollection_7">
    <path d="M 36 136.8 
L 36 135.957845 
L 37.964743 136.8 
L 41.952 138.281697 
L 47.904 140.47537 
L 53.293712 142.344 
L 53.856 142.512202 
L 59.808 144.066926 
L 65.76 145.465964 
L 71.712 146.724263 
L 77.664 147.858978 
L 77.837206 147.888 
L 83.616 148.69715 
L 89.568 149.445831 
L 95.52 150.122061 
L 101.472 150.735653 
L 107.424 151.294835 
L 113.376 151.806517 
L 119.328 152.276517 
L 125.28 152.70976 
L 131.232 153.110434 
L 136.390408 153.432 
L 137.184 153.472346 
L 143.136 153.749944 
L 149.088 154.007651 
L 155.04 154.247526 
L 160.992 154.471355 
L 166.944 154.680696 
L 172.896 154.87691 
L 178.848 155.061197 
L 184.8 155.234611 
L 190.752 155.39809 
L 196.704 155.552465 
L 202.656 155.698477 
L 208.608 155.836789 
L 214.56 155.967997 
L 214.56 157.589226 
L 208.608 157.449827 
L 202.656 157.302969 
L 196.704 157.148032 
L 190.752 156.984329 
L 184.8 156.811092 
L 178.848 156.627457 
L 172.896 156.432458 
L 166.944 156.225002 
L 160.992 156.003853 
L 155.04 155.767604 
L 149.088 155.514653 
L 143.136 155.243162 
L 137.184 154.951018 
L 131.232 154.635774 
L 125.28 154.294591 
L 119.328 153.924151 
L 113.376 153.520563 
L 112.194756 153.432 
L 107.424 152.999928 
L 101.472 152.409899 
L 95.52 151.763707 
L 89.568 151.053013 
L 83.616 150.267903 
L 77.664 149.396616 
L 71.712 148.425355 
L 68.812772 147.888 
L 65.76 147.221943 
L 59.808 145.757891 
L 53.856 144.136775 
L 47.904 142.3558 
L 47.868732 142.344 
L 41.952 140.070753 
L 36 137.808916 
z
" clip-path="url(#p003ed4209d)" style="fill: #2e6e8e"/>
    <path d="M 37.98654 59.184 
L 36 58.423865 
L 36 55.934412 
L 41.952 58.274645 
L 44.190535 59.184 
L 47.904 60.743615 
L 53.856 63.125332 
L 58.242515 64.728 
L 59.808 65.327091 
L 65.76 67.417755 
L 71.712 69.248081 
L 75.459475 70.272 
L 77.664 70.914313 
L 83.616 72.468389 
L 89.568 73.832581 
L 95.52 75.037246 
L 99.822783 75.816 
L 101.472 76.13979 
L 107.424 77.198919 
L 113.376 78.145676 
L 119.328 78.996635 
L 125.28 79.765353 
L 131.232 80.462998 
L 137.184 81.098845 
L 139.836161 81.36 
L 143.136 81.717914 
L 149.088 82.312955 
L 155.04 82.859785 
L 160.992 83.364004 
L 166.944 83.830383 
L 172.896 84.26301 
L 178.848 84.665407 
L 184.8 85.040624 
L 190.752 85.391316 
L 196.704 85.719804 
L 202.656 86.028127 
L 208.608 86.318082 
L 214.56 86.591258 
L 214.56 86.904 
L 214.56 88.796313 
L 208.608 88.504689 
L 202.656 88.194755 
L 196.704 87.864729 
L 190.752 87.512594 
L 184.8 87.13605 
L 181.363628 86.904 
L 178.848 86.752216 
L 172.896 86.369144 
L 166.944 85.957482 
L 160.992 85.513921 
L 155.04 85.034629 
L 149.088 84.515138 
L 143.136 83.950208 
L 137.184 83.333657 
L 131.232 82.658145 
L 125.28 81.914885 
L 121.234567 81.36 
L 119.328 81.122806 
L 113.376 80.313582 
L 107.424 79.414255 
L 101.472 78.409457 
L 95.52 77.280322 
L 89.568 76.003536 
L 88.77606 75.816 
L 83.616 74.688406 
L 77.664 73.216022 
L 71.712 71.533378 
L 67.760163 70.272 
L 65.76 69.672225 
L 59.808 67.698627 
L 53.856 65.463002 
L 52.019796 64.728 
L 47.904 63.151281 
L 41.952 60.757002 
z
" clip-path="url(#p003ed4209d)" style="fill: #2e6e8e"/>
   </g>
   <g id="PathCollection_8">
    <path d="M 37.964743 136.8 
L 36 135.957845 
L 36 133.894246 
L 41.952 136.423967 
L 42.861922 136.8 
L 47.904 138.592479 
L 53.856 140.568037 
L 59.685096 142.344 
L 59.808 142.375962 
L 65.76 143.709984 
L 71.712 144.90527 
L 77.664 145.979292 
L 83.616 146.94837 
L 89.568 147.826781 
L 90.034747 147.888 
L 95.52 148.480415 
L 101.472 149.061406 
L 107.424 149.589742 
L 113.376 150.07222 
L 119.328 150.514551 
L 125.28 150.921557 
L 131.232 151.297327 
L 137.184 151.645351 
L 143.136 151.968619 
L 149.088 152.269708 
L 155.04 152.550849 
L 160.992 152.813984 
L 166.944 153.060811 
L 172.896 153.292817 
L 176.699299 153.432 
L 178.848 153.494936 
L 184.8 153.658131 
L 190.752 153.811851 
L 196.704 153.956898 
L 202.656 154.093985 
L 208.608 154.223751 
L 214.56 154.346767 
L 214.56 155.967997 
L 208.608 155.836789 
L 202.656 155.698477 
L 196.704 155.552465 
L 190.752 155.39809 
L 184.8 155.234611 
L 178.848 155.061197 
L 172.896 154.87691 
L 166.944 154.680696 
L 160.992 154.471355 
L 155.04 154.247526 
L 149.088 154.007651 
L 143.136 153.749944 
L 137.184 153.472346 
L 136.390408 153.432 
L 131.232 153.110434 
L 125.28 152.70976 
L 119.328 152.276517 
L 113.376 151.806517 
L 107.424 151.294835 
L 101.472 150.735653 
L 95.52 150.122061 
L 89.568 149.445831 
L 83.616 148.69715 
L 77.837206 147.888 
L 77.664 147.858978 
L 71.712 146.724263 
L 65.76 145.465964 
L 59.808 144.066926 
L 53.856 142.512202 
L 53.293712 142.344 
L 47.904 140.47537 
L 41.952 138.281697 
z
" clip-path="url(#p003ed4209d)" style="fill: #287d8e"/>
    <path d="M 36 59.184 
L 36 58.423865 
L 37.98654 59.184 
L 41.952 60.757002 
L 47.904 63.151281 
L 52.019796 64.728 
L 53.856 65.463002 
L 59.808 67.698627 
L 65.76 69.672225 
L 67.760163 70.272 
L 71.712 71.533378 
L 77.664 73.216022 
L 83.616 74.688406 
L 88.77606 75.816 
L 89.568 76.003536 
L 95.52 77.280322 
L 101.472 78.409457 
L 107.424 79.414255 
L 113.376 80.313582 
L 119.328 81.122806 
L 121.234567 81.36 
L 125.28 81.914885 
L 131.232 82.658145 
L 137.184 83.333657 
L 143.136 83.950208 
L 149.088 84.515138 
L 155.04 85.034629 
L 160.992 85.513921 
L 166.944 85.957482 
L 172.896 86.369144 
L 178.848 86.752216 
L 181.363628 86.904 
L 184.8 87.13605 
L 190.752 87.512594 
L 196.704 87.864729 
L 202.656 88.194755 
L 208.608 88.504689 
L 214.56 88.796313 
L 214.56 91.040083 
L 208.608 90.764339 
L 202.656 90.471392 
L 196.704 90.15958 
L 190.752 89.82702 
L 184.8 89.47157 
L 178.848 89.090785 
L 172.896 88.681854 
L 166.944 88.241542 
L 160.992 87.766091 
L 155.04 87.251124 
L 151.328181 86.904 
L 149.088 86.717321 
L 143.136 86.182502 
L 137.184 85.599272 
L 131.232 84.960823 
L 125.28 84.259023 
L 119.328 83.484091 
L 113.376 82.624165 
L 107.424 81.664737 
L 105.706319 81.36 
L 101.472 80.679123 
L 95.52 79.61278 
L 89.568 78.40929 
L 83.616 77.042396 
L 78.904692 75.816 
L 77.664 75.517732 
L 71.712 73.933136 
L 65.76 72.120859 
L 60.426459 70.272 
L 59.808 70.070164 
L 53.856 67.978727 
L 47.904 65.657812 
L 45.579799 64.728 
L 41.952 63.337752 
L 36 61.114843 
z
" clip-path="url(#p003ed4209d)" style="fill: #287d8e"/>
   </g>
   <g id="PathCollection_9">
    <path d="M 41.952 134.235184 
L 47.904 136.688075 
L 48.204834 136.8 
L 53.856 138.586961 
L 59.808 140.302632 
L 65.76 141.859828 
L 67.857723 142.344 
L 71.712 143.086277 
L 77.664 144.099606 
L 83.616 145.010447 
L 89.568 145.833105 
L 95.52 146.579704 
L 101.472 147.260421 
L 107.424 147.883782 
L 107.468744 147.888 
L 113.376 148.337923 
L 119.328 148.752585 
L 125.28 149.133353 
L 131.232 149.484221 
L 137.184 149.808585 
L 143.136 150.109353 
L 149.088 150.389024 
L 155.04 150.649757 
L 160.992 150.893428 
L 166.944 151.121671 
L 172.896 151.335919 
L 178.848 151.537433 
L 184.8 151.727326 
L 190.752 151.906584 
L 196.704 152.076085 
L 202.656 152.236611 
L 208.608 152.388864 
L 214.56 152.533474 
L 214.56 153.432 
L 214.56 154.346767 
L 208.608 154.223751 
L 202.656 154.093985 
L 196.704 153.956898 
L 190.752 153.811851 
L 184.8 153.658131 
L 178.848 153.494936 
L 176.699299 153.432 
L 172.896 153.292817 
L 166.944 153.060811 
L 160.992 152.813984 
L 155.04 152.550849 
L 149.088 152.269708 
L 143.136 151.968619 
L 137.184 151.645351 
L 131.232 151.297327 
L 125.28 150.921557 
L 119.328 150.514551 
L 113.376 150.07222 
L 107.424 149.589742 
L 101.472 149.061406 
L 95.52 148.480415 
L 90.034747 147.888 
L 89.568 147.826781 
L 83.616 146.94837 
L 77.664 145.979292 
L 71.712 144.90527 
L 65.76 143.709984 
L 59.808 142.375962 
L 59.685096 142.344 
L 53.856 140.568037 
L 47.904 138.592479 
L 42.861922 136.8 
L 41.952 136.423967 
L 36 133.894246 
L 36 131.830647 
z
" clip-path="url(#p003ed4209d)" style="fill: #228b8d"/>
    <path d="M 38.344995 64.728 
L 36 63.894405 
L 36 61.114843 
L 41.952 63.337752 
L 45.579799 64.728 
L 47.904 65.657812 
L 53.856 67.978727 
L 59.808 70.070164 
L 60.426459 70.272 
L 65.76 72.120859 
L 71.712 73.933136 
L 77.664 75.517732 
L 78.904692 75.816 
L 83.616 77.042396 
L 89.568 78.40929 
L 95.52 79.61278 
L 101.472 80.679123 
L 105.706319 81.36 
L 107.424 81.664737 
L 113.376 82.624165 
L 119.328 83.484091 
L 125.28 84.259023 
L 131.232 84.960823 
L 137.184 85.599272 
L 143.136 86.182502 
L 149.088 86.717321 
L 151.328181 86.904 
L 155.04 87.251124 
L 160.992 87.766091 
L 166.944 88.241542 
L 172.896 88.681854 
L 178.848 89.090785 
L 184.8 89.47157 
L 190.752 89.82702 
L 196.704 90.15958 
L 202.656 90.471392 
L 208.608 90.764339 
L 214.56 91.040083 
L 214.56 92.448 
L 214.56 93.410305 
L 208.608 93.11184 
L 202.656 92.794188 
L 196.704 92.45543 
L 196.580681 92.448 
L 190.752 92.141446 
L 184.8 91.807091 
L 178.848 91.449101 
L 172.896 91.064882 
L 166.944 90.651444 
L 160.992 90.205324 
L 155.04 89.722495 
L 149.088 89.198238 
L 143.136 88.626989 
L 137.184 88.002148 
L 131.232 87.315817 
L 127.965303 86.904 
L 125.28 86.603161 
L 119.328 85.874899 
L 113.376 85.067875 
L 107.424 84.16888 
L 101.472 83.161676 
L 95.52 82.026124 
L 92.39198 81.36 
L 89.568 80.815044 
L 83.616 79.534672 
L 77.664 78.075336 
L 71.712 76.402105 
L 69.833006 75.816 
L 65.76 74.639873 
L 59.808 72.71116 
L 53.856 70.523983 
L 53.199028 70.272 
L 47.904 68.35194 
L 41.952 66.071638 
z
" clip-path="url(#p003ed4209d)" style="fill: #228b8d"/>
   </g>
   <g id="PathCollection_10">
    <path d="M 36 131.256 
L 36 129.406955 
L 39.966722 131.256 
L 41.952 132.046401 
L 47.904 134.357178 
L 53.856 136.55668 
L 54.602377 136.8 
L 59.808 138.221936 
L 65.76 139.679814 
L 71.712 140.995593 
L 77.664 142.187291 
L 78.553029 142.344 
L 83.616 143.072524 
L 89.568 143.839429 
L 95.52 144.53272 
L 101.472 145.162501 
L 107.424 145.737202 
L 113.376 146.263871 
L 119.328 146.748425 
L 125.28 147.195858 
L 131.232 147.610404 
L 135.540393 147.888 
L 137.184 147.971819 
L 143.136 148.250088 
L 149.088 148.508341 
L 155.04 148.748666 
L 160.992 148.972871 
L 166.944 149.182531 
L 172.896 149.379021 
L 178.848 149.563551 
L 184.8 149.737185 
L 190.752 149.900866 
L 196.704 150.055429 
L 202.656 150.201621 
L 208.608 150.340107 
L 214.56 150.471484 
L 214.56 152.533474 
L 208.608 152.388864 
L 202.656 152.236611 
L 196.704 152.076085 
L 190.752 151.906584 
L 184.8 151.727326 
L 178.848 151.537433 
L 172.896 151.335919 
L 166.944 151.121671 
L 160.992 150.893428 
L 155.04 150.649757 
L 149.088 150.389024 
L 143.136 150.109353 
L 137.184 149.808585 
L 131.232 149.484221 
L 125.28 149.133353 
L 119.328 148.752585 
L 113.376 148.337923 
L 107.468744 147.888 
L 107.424 147.883782 
L 101.472 147.260421 
L 95.52 146.579704 
L 89.568 145.833105 
L 83.616 145.010447 
L 77.664 144.099606 
L 71.712 143.086277 
L 67.857723 142.344 
L 65.76 141.859828 
L 59.808 140.302632 
L 53.856 138.586961 
L 48.204834 136.8 
L 47.904 136.688075 
L 41.952 134.235184 
L 36 131.830647 
z
" clip-path="url(#p003ed4209d)" style="fill: #1f9a8a"/>
    <path d="M 36 64.728 
L 36 63.894405 
L 38.344995 64.728 
L 41.952 66.071638 
L 47.904 68.35194 
L 53.199028 70.272 
L 53.856 70.523983 
L 59.808 72.71116 
L 65.76 74.639873 
L 69.833006 75.816 
L 71.712 76.402105 
L 77.664 78.075336 
L 83.616 79.534672 
L 89.568 80.815044 
L 92.39198 81.36 
L 95.52 82.026124 
L 101.472 83.161676 
L 107.424 84.16888 
L 113.376 85.067875 
L 119.328 85.874899 
L 125.28 86.603161 
L 127.965303 86.904 
L 131.232 87.315817 
L 137.184 88.002148 
L 143.136 88.626989 
L 149.088 89.198238 
L 155.04 89.722495 
L 160.992 90.205324 
L 166.944 90.651444 
L 172.896 91.064882 
L 178.848 91.449101 
L 184.8 91.807091 
L 190.752 92.141446 
L 196.580681 92.448 
L 196.704 92.45543 
L 202.656 92.794188 
L 208.608 93.11184 
L 214.56 93.410305 
L 214.56 95.993527 
L 208.608 95.716134 
L 202.656 95.421073 
L 196.704 95.106592 
L 190.752 94.770702 
L 184.8 94.411128 
L 178.848 94.025262 
L 172.896 93.610095 
L 166.944 93.162136 
L 160.992 92.677317 
L 158.377001 92.448 
L 155.04 92.193867 
L 149.088 91.704971 
L 143.136 91.172812 
L 137.184 90.5914 
L 131.232 89.953591 
L 125.28 89.250797 
L 119.328 88.472604 
L 113.376 87.606262 
L 109.034584 86.904 
L 107.424 86.673023 
L 101.472 85.735461 
L 95.52 84.680955 
L 89.568 83.487222 
L 83.616 82.126386 
L 80.62782 81.36 
L 77.664 80.671037 
L 71.712 79.123183 
L 65.76 77.348895 
L 61.212047 75.816 
L 59.808 75.377222 
L 53.856 73.373659 
L 47.904 71.157153 
L 45.559441 70.272 
L 41.952 68.984354 
L 36 66.946261 
z
" clip-path="url(#p003ed4209d)" style="fill: #1f9a8a"/>
   </g>
   <g id="PathCollection_11">
    <path d="M 39.966722 131.256 
L 36 129.406955 
L 36 126.844288 
L 41.952 129.493572 
L 45.874879 131.256 
L 47.904 132.026281 
L 53.856 134.073426 
L 59.808 135.96359 
L 62.76346 136.8 
L 65.76 137.499799 
L 71.712 138.717609 
L 77.664 139.813311 
L 83.616 140.804024 
L 89.568 141.704532 
L 94.228698 142.344 
L 95.52 142.485737 
L 101.472 143.064582 
L 107.424 143.590622 
L 113.376 144.070799 
L 119.328 144.510922 
L 125.28 144.915873 
L 131.232 145.28978 
L 137.184 145.636151 
L 143.136 145.957985 
L 149.088 146.257861 
L 155.04 146.538004 
L 160.992 146.800349 
L 166.944 147.046582 
L 172.896 147.27818 
L 178.848 147.496443 
L 184.8 147.70252 
L 190.466872 147.888 
L 190.752 147.895148 
L 196.704 148.034774 
L 202.656 148.166631 
L 208.608 148.291349 
L 214.56 148.409494 
L 214.56 150.471484 
L 208.608 150.340107 
L 202.656 150.201621 
L 196.704 150.055429 
L 190.752 149.900866 
L 184.8 149.737185 
L 178.848 149.563551 
L 172.896 149.379021 
L 166.944 149.182531 
L 160.992 148.972871 
L 155.04 148.748666 
L 149.088 148.508341 
L 143.136 148.250088 
L 137.184 147.971819 
L 135.540393 147.888 
L 131.232 147.610404 
L 125.28 147.195858 
L 119.328 146.748425 
L 113.376 146.263871 
L 107.424 145.737202 
L 101.472 145.162501 
L 95.52 144.53272 
L 89.568 143.839429 
L 83.616 143.072524 
L 78.553029 142.344 
L 77.664 142.187291 
L 71.712 140.995593 
L 65.76 139.679814 
L 59.808 138.221936 
L 54.602377 136.8 
L 53.856 136.55668 
L 47.904 134.357178 
L 41.952 132.046401 
z
" clip-path="url(#p003ed4209d)" style="fill: #23a983"/>
    <path d="M 36.48617 70.272 
L 36 70.114761 
L 36 66.946261 
L 41.952 68.984354 
L 45.559441 70.272 
L 47.904 71.157153 
L 53.856 73.373659 
L 59.808 75.377222 
L 61.212047 75.816 
L 65.76 77.348895 
L 71.712 79.123183 
L 77.664 80.671037 
L 80.62782 81.36 
L 83.616 82.126386 
L 89.568 83.487222 
L 95.52 84.680955 
L 101.472 85.735461 
L 107.424 86.673023 
L 109.034584 86.904 
L 113.376 87.606262 
L 119.328 88.472604 
L 125.28 89.250797 
L 131.232 89.953591 
L 137.184 90.5914 
L 143.136 91.172812 
L 149.088 91.704971 
L 155.04 92.193867 
L 158.377001 92.448 
L 160.992 92.677317 
L 166.944 93.162136 
L 172.896 93.610095 
L 178.848 94.025262 
L 184.8 94.411128 
L 190.752 94.770702 
L 196.704 95.106592 
L 202.656 95.421073 
L 208.608 95.716134 
L 214.56 95.993527 
L 214.56 97.992 
L 214.56 98.688872 
L 208.608 98.384016 
L 202.656 98.058904 
L 201.499778 97.992 
L 196.704 97.757755 
L 190.752 97.448025 
L 184.8 97.11672 
L 178.848 96.761495 
L 172.896 96.379648 
L 166.944 95.968055 
L 160.992 95.52308 
L 155.04 95.040463 
L 149.088 94.515183 
L 143.136 93.941278 
L 137.184 93.31161 
L 131.232 92.617558 
L 129.894564 92.448 
L 125.28 91.943119 
L 119.328 91.226672 
L 113.376 90.430765 
L 107.424 89.541549 
L 101.472 88.541805 
L 95.52 87.409881 
L 93.129855 86.904 
L 89.568 86.237425 
L 83.616 84.990247 
L 77.664 83.564663 
L 71.712 81.924185 
L 69.863129 81.36 
L 65.76 80.224331 
L 59.808 78.379604 
L 53.856 76.28977 
L 52.55745 75.816 
L 47.904 74.237913 
L 41.952 72.152176 
z
" clip-path="url(#p003ed4209d)" style="fill: #23a983"/>
   </g>
   <g id="PathCollection_12">
    <path d="M 36 125.712 
L 36 123.868136 
L 39.576103 125.712 
L 41.952 126.734975 
L 47.904 129.255284 
L 52.859907 131.256 
L 53.856 131.590173 
L 59.808 133.321788 
L 65.76 134.896105 
L 71.712 136.330435 
L 73.914538 136.8 
L 77.664 137.439332 
L 83.616 138.336388 
L 89.568 139.145782 
L 95.52 139.88007 
L 101.472 140.549687 
L 107.424 141.163298 
L 113.376 141.728113 
L 119.328 142.250162 
L 120.504636 142.344 
L 125.28 142.635889 
L 131.232 142.969156 
L 137.184 143.276626 
L 143.136 143.561201 
L 149.088 143.825366 
L 155.04 144.071259 
L 160.992 144.300732 
L 166.944 144.515394 
L 172.896 144.716651 
L 178.848 144.905735 
L 184.8 145.083731 
L 190.752 145.251601 
L 196.704 145.410194 
L 202.656 145.56027 
L 208.608 145.702506 
L 214.56 145.837508 
L 214.56 147.888 
L 214.56 148.409494 
L 208.608 148.291349 
L 202.656 148.166631 
L 196.704 148.034774 
L 190.752 147.895148 
L 190.466872 147.888 
L 184.8 147.70252 
L 178.848 147.496443 
L 172.896 147.27818 
L 166.944 147.046582 
L 160.992 146.800349 
L 155.04 146.538004 
L 149.088 146.257861 
L 143.136 145.957985 
L 137.184 145.636151 
L 131.232 145.28978 
L 125.28 144.915873 
L 119.328 144.510922 
L 113.376 144.070799 
L 107.424 143.590622 
L 101.472 143.064582 
L 95.52 142.485737 
L 94.228698 142.344 
L 89.568 141.704532 
L 83.616 140.804024 
L 77.664 139.813311 
L 71.712 138.717609 
L 65.76 137.499799 
L 62.76346 136.8 
L 59.808 135.96359 
L 53.856 134.073426 
L 47.904 132.026281 
L 45.874879 131.256 
L 41.952 129.493572 
L 36 126.844288 
z
" clip-path="url(#p003ed4209d)" style="fill: #34b679"/>
    <path d="M 36 70.272 
L 36 70.114761 
L 36.48617 70.272 
L 41.952 72.152176 
L 47.904 74.237913 
L 52.55745 75.816 
L 53.856 76.28977 
L 59.808 78.379604 
L 65.76 80.224331 
L 69.863129 81.36 
L 71.712 81.924185 
L 77.664 83.564663 
L 83.616 84.990247 
L 89.568 86.237425 
L 93.129855 86.904 
L 95.52 87.409881 
L 101.472 88.541805 
L 107.424 89.541549 
L 113.376 90.430765 
L 119.328 91.226672 
L 125.28 91.943119 
L 129.894564 92.448 
L 131.232 92.617558 
L 137.184 93.31161 
L 143.136 93.941278 
L 149.088 94.515183 
L 155.04 95.040463 
L 160.992 95.52308 
L 166.944 95.968055 
L 172.896 96.379648 
L 178.848 96.761495 
L 184.8 97.11672 
L 190.752 97.448025 
L 196.704 97.757755 
L 201.499778 97.992 
L 202.656 98.058904 
L 208.608 98.384016 
L 214.56 98.688872 
L 214.56 101.767416 
L 208.608 101.492534 
L 202.656 101.199661 
L 196.704 100.88695 
L 190.752 100.552292 
L 184.8 100.193261 
L 178.848 99.807058 
L 172.896 99.390431 
L 166.944 98.939579 
L 160.992 98.450027 
L 155.869177 97.992 
L 155.04 97.930065 
L 149.088 97.453246 
L 143.136 96.933184 
L 137.184 96.363678 
L 131.232 95.737271 
L 125.28 95.044912 
L 119.328 94.275502 
L 113.376 93.415272 
L 107.430445 92.448 
L 107.424 92.4471 
L 101.472 91.541534 
L 95.52 90.520277 
L 89.568 89.360317 
L 83.616 88.032389 
L 79.172628 86.904 
L 77.664 86.565938 
L 71.712 85.094353 
L 65.76 83.406055 
L 59.808 81.465017 
L 59.501545 81.36 
L 53.856 79.604215 
L 47.904 77.587178 
L 42.85471 75.816 
L 41.952 75.522134 
L 36 73.804672 
z
" clip-path="url(#p003ed4209d)" style="fill: #34b679"/>
   </g>
   <g id="PathCollection_13">
    <path d="M 39.576103 125.712 
L 36 123.868136 
L 36 120.564669 
L 41.952 123.424089 
L 46.547314 125.712 
L 47.904 126.267065 
L 53.856 128.449131 
L 59.808 130.488686 
L 62.321962 131.256 
L 65.76 132.092108 
L 71.712 133.362247 
L 77.664 134.510541 
L 83.616 135.555195 
L 89.568 136.51174 
L 91.575761 136.8 
L 95.52 137.232842 
L 101.472 137.816644 
L 107.424 138.347088 
L 113.376 138.831337 
L 119.328 139.275359 
L 125.28 139.684147 
L 131.232 140.061906 
L 137.184 140.412196 
L 143.136 140.738051 
L 149.088 141.042069 
L 155.04 141.326487 
L 160.992 141.593244 
L 166.944 141.844023 
L 172.896 142.080299 
L 178.848 142.303366 
L 180.008337 142.344 
L 184.8 142.464943 
L 190.752 142.605773 
L 196.704 142.738312 
L 202.656 142.863267 
L 208.608 142.981267 
L 214.56 143.092875 
L 214.56 145.837508 
L 208.608 145.702506 
L 202.656 145.56027 
L 196.704 145.410194 
L 190.752 145.251601 
L 184.8 145.083731 
L 178.848 144.905735 
L 172.896 144.716651 
L 166.944 144.515394 
L 160.992 144.300732 
L 155.04 144.071259 
L 149.088 143.825366 
L 143.136 143.561201 
L 137.184 143.276626 
L 131.232 142.969156 
L 125.28 142.635889 
L 120.504636 142.344 
L 119.328 142.250162 
L 113.376 141.728113 
L 107.424 141.163298 
L 101.472 140.549687 
L 95.52 139.88007 
L 89.568 139.145782 
L 83.616 138.336388 
L 77.664 137.439332 
L 73.914538 136.8 
L 71.712 136.330435 
L 65.76 134.896105 
L 59.808 133.321788 
L 53.856 131.590173 
L 52.859907 131.256 
L 47.904 129.255284 
L 41.952 126.734975 
z
" clip-path="url(#p003ed4209d)" style="fill: #50c46a"/>
    <path d="M 36 75.816 
L 36 73.804672 
L 41.952 75.522134 
L 42.85471 75.816 
L 47.904 77.587178 
L 53.856 79.604215 
L 59.501545 81.36 
L 59.808 81.465017 
L 65.76 83.406055 
L 71.712 85.094353 
L 77.664 86.565938 
L 79.172628 86.904 
L 83.616 88.032389 
L 89.568 89.360317 
L 95.52 90.520277 
L 101.472 91.541534 
L 107.424 92.4471 
L 107.430445 92.448 
L 113.376 93.415272 
L 119.328 94.275502 
L 125.28 95.044912 
L 131.232 95.737271 
L 137.184 96.363678 
L 143.136 96.933184 
L 149.088 97.453246 
L 155.04 97.930065 
L 155.869177 97.992 
L 160.992 98.450027 
L 166.944 98.939579 
L 172.896 99.390431 
L 178.848 99.807058 
L 184.8 100.193261 
L 190.752 100.552292 
L 196.704 100.88695 
L 202.656 101.199661 
L 208.608 101.492534 
L 214.56 101.767416 
L 214.56 103.536 
L 214.56 105.182344 
L 208.608 104.877903 
L 202.656 104.552259 
L 196.704 104.203066 
L 190.752 103.82761 
L 186.445916 103.536 
L 184.8 103.447194 
L 178.848 103.105412 
L 172.896 102.737325 
L 166.944 102.339726 
L 160.992 101.908856 
L 155.04 101.44028 
L 149.088 100.928715 
L 143.136 100.367823 
L 137.184 99.74992 
L 131.232 99.065592 
L 125.28 98.30316 
L 123.067696 97.992 
L 119.328 97.559207 
L 113.376 96.799603 
L 107.424 95.948271 
L 101.472 94.987381 
L 95.52 93.894096 
L 89.568 92.638634 
L 88.748258 92.448 
L 83.616 91.433638 
L 77.664 90.095688 
L 71.712 88.552909 
L 66.20153 86.904 
L 65.76 86.787715 
L 59.808 85.117092 
L 53.856 83.243695 
L 48.359693 81.36 
L 47.904 81.218421 
L 41.952 79.503595 
L 36 77.903666 
z
" clip-path="url(#p003ed4209d)" style="fill: #50c46a"/>
   </g>
   <g id="PathCollection_14">
    <path d="M 36 120.168 
L 36 116.192723 
L 41.952 119.627879 
L 42.894474 120.168 
L 47.904 122.417331 
L 53.856 125.005212 
L 55.66538 125.712 
L 59.808 126.969512 
L 65.76 128.579988 
L 71.712 130.05867 
L 76.964033 131.256 
L 77.664 131.377265 
L 83.616 132.256688 
L 89.568 133.048381 
L 95.52 133.765654 
L 101.472 134.419467 
L 107.424 135.018837 
L 113.376 135.571208 
L 119.328 136.082753 
L 125.28 136.558617 
L 128.563235 136.8 
L 131.232 136.938354 
L 137.184 137.217758 
L 143.136 137.474936 
L 149.088 137.712403 
L 155.04 137.932312 
L 160.992 138.136518 
L 166.944 138.326629 
L 172.896 138.50404 
L 178.848 138.669972 
L 184.8 138.825495 
L 190.752 138.971552 
L 196.704 139.108975 
L 202.656 139.238504 
L 208.608 139.360795 
L 214.56 139.476436 
L 214.56 142.344 
L 214.56 143.092875 
L 208.608 142.981267 
L 202.656 142.863267 
L 196.704 142.738312 
L 190.752 142.605773 
L 184.8 142.464943 
L 180.008337 142.344 
L 178.848 142.303366 
L 172.896 142.080299 
L 166.944 141.844023 
L 160.992 141.593244 
L 155.04 141.326487 
L 149.088 141.042069 
L 143.136 140.738051 
L 137.184 140.412196 
L 131.232 140.061906 
L 125.28 139.684147 
L 119.328 139.275359 
L 113.376 138.831337 
L 107.424 138.347088 
L 101.472 137.816644 
L 95.52 137.232842 
L 91.575761 136.8 
L 89.568 136.51174 
L 83.616 135.555195 
L 77.664 134.510541 
L 71.712 133.362247 
L 65.76 132.092108 
L 62.321962 131.256 
L 59.808 130.488686 
L 53.856 128.449131 
L 47.904 126.267065 
L 46.547314 125.712 
L 41.952 123.424089 
L 36 120.564669 
z
" clip-path="url(#p003ed4209d)" style="fill: #73d056"/>
    <path d="M 36 81.36 
L 36 77.903666 
L 41.952 79.503595 
L 47.904 81.218421 
L 48.359693 81.36 
L 53.856 83.243695 
L 59.808 85.117092 
L 65.76 86.787715 
L 66.20153 86.904 
L 71.712 88.552909 
L 77.664 90.095688 
L 83.616 91.433638 
L 88.748258 92.448 
L 89.568 92.638634 
L 95.52 93.894096 
L 101.472 94.987381 
L 107.424 95.948271 
L 113.376 96.799603 
L 119.328 97.559207 
L 123.067696 97.992 
L 125.28 98.30316 
L 131.232 99.065592 
L 137.184 99.74992 
L 143.136 100.367823 
L 149.088 100.928715 
L 155.04 101.44028 
L 160.992 101.908856 
L 166.944 102.339726 
L 172.896 102.737325 
L 178.848 103.105412 
L 184.8 103.447194 
L 186.445916 103.536 
L 190.752 103.82761 
L 196.704 104.203066 
L 202.656 104.552259 
L 208.608 104.877903 
L 214.56 105.182344 
L 214.56 109.051427 
L 208.608 108.794451 
L 202.656 108.520124 
L 196.704 108.226585 
L 190.752 107.911692 
L 184.8 107.572961 
L 178.848 107.207498 
L 172.896 106.811903 
L 166.944 106.382156 
L 160.992 105.913461 
L 155.04 105.400039 
L 149.088 104.834863 
L 143.136 104.209275 
L 137.378766 103.536 
L 137.184 103.518355 
L 131.232 102.937691 
L 125.28 102.29395 
L 119.328 101.575906 
L 113.376 100.769383 
L 107.424 99.856165 
L 101.472 98.812352 
L 97.351526 97.992 
L 95.52 97.697286 
L 89.568 96.640635 
L 83.616 95.428608 
L 77.664 94.024639 
L 71.939977 92.448 
L 71.712 92.395053 
L 65.76 90.918298 
L 59.808 89.239786 
L 53.856 87.347277 
L 52.443726 86.904 
L 47.904 85.663153 
L 41.952 84.125005 
L 36 82.792076 
z
" clip-path="url(#p003ed4209d)" style="fill: #73d056"/>
   </g>
   <g id="PathCollection_15">
    <path d="M 36 114.624 
L 36 110.137747 
L 41.952 114.360128 
L 42.31756 114.624 
L 47.904 117.489133 
L 53.064131 120.168 
L 53.856 120.476626 
L 59.808 122.443944 
L 65.76 124.293815 
L 70.643679 125.712 
L 71.712 125.935536 
L 77.664 126.97944 
L 83.616 127.919608 
L 89.568 128.773696 
L 95.52 129.556349 
L 101.472 130.279653 
L 107.424 130.953605 
L 110.363328 131.256 
L 113.376 131.458226 
L 119.328 131.810671 
L 125.28 132.128948 
L 131.232 132.417426 
L 137.184 132.679779 
L 143.136 132.919121 
L 149.088 133.138101 
L 155.04 133.338989 
L 160.992 133.523736 
L 166.944 133.694032 
L 172.896 133.851341 
L 178.848 133.996945 
L 184.8 134.131964 
L 190.752 134.257385 
L 196.704 134.374077 
L 202.656 134.482811 
L 208.608 134.584275 
L 214.56 134.679077 
L 214.56 136.8 
L 214.56 139.476436 
L 208.608 139.360795 
L 202.656 139.238504 
L 196.704 139.108975 
L 190.752 138.971552 
L 184.8 138.825495 
L 178.848 138.669972 
L 172.896 138.50404 
L 166.944 138.326629 
L 160.992 138.136518 
L 155.04 137.932312 
L 149.088 137.712403 
L 143.136 137.474936 
L 137.184 137.217758 
L 131.232 136.938354 
L 128.563235 136.8 
L 125.28 136.558617 
L 119.328 136.082753 
L 113.376 135.571208 
L 107.424 135.018837 
L 101.472 134.419467 
L 95.52 133.765654 
L 89.568 133.048381 
L 83.616 132.256688 
L 77.664 131.377265 
L 76.964033 131.256 
L 71.712 130.05867 
L 65.76 128.579988 
L 59.808 126.969512 
L 55.66538 125.712 
L 53.856 125.005212 
L 47.904 122.417331 
L 42.894474 120.168 
L 41.952 119.627879 
L 36 116.192723 
z
" clip-path="url(#p003ed4209d)" style="fill: #98d83e"/>
    <path d="M 36 86.904 
L 36 82.792076 
L 41.952 84.125005 
L 47.904 85.663153 
L 52.443726 86.904 
L 53.856 87.347277 
L 59.808 89.239786 
L 65.76 90.918298 
L 71.712 92.395053 
L 71.939977 92.448 
L 77.664 94.024639 
L 83.616 95.428608 
L 89.568 96.640635 
L 95.52 97.697286 
L 97.351526 97.992 
L 101.472 98.812352 
L 107.424 99.856165 
L 113.376 100.769383 
L 119.328 101.575906 
L 125.28 102.29395 
L 131.232 102.937691 
L 137.184 103.518355 
L 137.378766 103.536 
L 143.136 104.209275 
L 149.088 104.834863 
L 155.04 105.400039 
L 160.992 105.913461 
L 166.944 106.382156 
L 172.896 106.811903 
L 178.848 107.207498 
L 184.8 107.572961 
L 190.752 107.911692 
L 196.704 108.226585 
L 202.656 108.520124 
L 208.608 108.794451 
L 214.56 109.051427 
L 214.56 109.08 
L 214.56 114.371452 
L 208.608 114.106081 
L 202.656 113.821254 
L 196.704 113.51464 
L 190.752 113.183497 
L 184.8 112.824583 
L 178.848 112.434021 
L 172.896 112.007134 
L 166.944 111.538214 
L 160.992 111.020207 
L 155.04 110.44427 
L 149.088 109.799131 
L 143.213006 109.08 
L 143.136 109.073543 
L 137.184 108.537787 
L 131.232 107.942121 
L 125.28 107.27511 
L 119.328 106.521948 
L 113.376 105.663013 
L 107.424 104.671541 
L 101.597538 103.536 
L 101.472 103.51793 
L 95.52 102.589539 
L 89.568 101.522712 
L 83.616 100.281578 
L 77.664 98.81488 
L 74.718804 97.992 
L 71.712 97.337386 
L 65.76 95.921164 
L 59.808 94.312861 
L 53.856 92.506956 
L 53.636615 92.448 
L 47.904 91.20285 
L 41.952 90.159725 
L 36 89.659199 
z
" clip-path="url(#p003ed4209d)" style="fill: #98d83e"/>
   </g>
   <g id="PathCollection_16">
    <path d="M 36 109.08 
L 36 103.536 
L 36 97.992 
L 36 92.448 
L 36 89.659199 
L 41.952 90.159725 
L 47.904 91.20285 
L 53.636615 92.448 
L 53.856 92.506956 
L 59.808 94.312861 
L 65.76 95.921164 
L 71.712 97.337386 
L 74.718804 97.992 
L 77.664 98.81488 
L 83.616 100.281578 
L 89.568 101.522712 
L 95.52 102.589539 
L 101.472 103.51793 
L 101.597538 103.536 
L 107.424 104.671541 
L 113.376 105.663013 
L 119.328 106.521948 
L 125.28 107.27511 
L 131.232 107.942121 
L 137.184 108.537787 
L 143.136 109.073543 
L 143.213006 109.08 
L 149.088 109.799131 
L 155.04 110.44427 
L 160.992 111.020207 
L 166.944 111.538214 
L 172.896 112.007134 
L 178.848 112.434021 
L 184.8 112.824583 
L 190.752 113.183497 
L 196.704 113.51464 
L 202.656 113.821254 
L 208.608 114.106081 
L 214.56 114.371452 
L 214.56 114.624 
L 214.56 120.168 
L 214.56 125.712 
L 214.56 131.256 
L 214.56 134.679077 
L 208.608 134.584275 
L 202.656 134.482811 
L 196.704 134.374077 
L 190.752 134.257385 
L 184.8 134.131964 
L 178.848 133.996945 
L 172.896 133.851341 
L 166.944 133.694032 
L 160.992 133.523736 
L 155.04 133.338989 
L 149.088 133.138101 
L 143.136 132.919121 
L 137.184 132.679779 
L 131.232 132.417426 
L 125.28 132.128948 
L 119.328 131.810671 
L 113.376 131.458226 
L 110.363328 131.256 
L 107.424 130.953605 
L 101.472 130.279653 
L 95.52 129.556349 
L 89.568 128.773696 
L 83.616 127.919608 
L 77.664 126.97944 
L 71.712 125.935536 
L 70.643679 125.712 
L 65.76 124.293815 
L 59.808 122.443944 
L 53.856 120.476626 
L 53.064131 120.168 
L 47.904 117.489133 
L 42.31756 114.624 
L 41.952 114.360128 
L 36 110.137747 
z
M 47.904 107.692989 
L 48.618021 109.08 
L 53.856 112.129057 
L 57.704797 114.624 
L 59.808 115.376248 
L 65.76 117.18071 
L 71.712 118.996325 
L 75.59582 120.168 
L 77.664 120.502809 
L 83.616 121.267582 
L 89.568 121.922773 
L 95.52 122.481521 
L 101.472 122.953151 
L 107.424 123.343246 
L 113.376 123.653335 
L 119.328 123.87993 
L 125.28 124.012335 
L 131.232 124.027956 
L 137.184 123.881705 
L 143.136 123.479496 
L 149.088 122.599635 
L 155.04 120.586179 
L 155.785051 120.168 
L 155.04 120.104913 
L 149.088 119.555368 
L 143.136 118.902298 
L 137.184 118.101634 
L 131.232 117.075406 
L 125.28 115.669292 
L 122.007144 114.624 
L 119.328 114.318504 
L 113.376 113.560892 
L 107.424 112.659233 
L 101.472 111.550176 
L 95.52 110.114907 
L 92.133651 109.08 
L 89.568 108.669831 
L 83.616 107.62312 
L 77.664 106.37698 
L 71.712 104.836538 
L 67.536733 103.536 
L 65.76 103.19823 
L 59.808 102.194894 
L 53.856 101.448512 
L 47.904 101.861038 
L 45.512286 103.536 
z
" clip-path="url(#p003ed4209d)" style="fill: #c2df23"/>
   </g>
   <g id="PathCollection_17">
    <path d="M 45.512286 103.536 
L 47.904 101.861038 
L 53.856 101.448512 
L 59.808 102.194894 
L 65.76 103.19823 
L 67.536733 103.536 
L 71.712 104.836538 
L 77.664 106.37698 
L 83.616 107.62312 
L 89.568 108.669831 
L 92.133651 109.08 
L 95.52 110.114907 
L 101.472 111.550176 
L 107.424 112.659233 
L 113.376 113.560892 
L 119.328 114.318504 
L 122.007144 114.624 
L 125.28 115.669292 
L 131.232 117.075406 
L 137.184 118.101634 
L 143.136 118.902298 
L 149.088 119.555368 
L 155.04 120.104913 
L 155.785051 120.168 
L 155.04 120.586179 
L 149.088 122.599635 
L 143.136 123.479496 
L 137.184 123.881705 
L 131.232 124.027956 
L 125.28 124.012335 
L 119.328 123.87993 
L 113.376 123.653335 
L 107.424 123.343246 
L 101.472 122.953151 
L 95.52 122.481521 
L 89.568 121.922773 
L 83.616 121.267582 
L 77.664 120.502809 
L 75.59582 120.168 
L 71.712 118.996325 
L 65.76 117.18071 
L 59.808 115.376248 
L 57.704797 114.624 
L 53.856 112.129057 
L 48.618021 109.08 
L 47.904 107.692989 
z
" clip-path="url(#p003ed4209d)" style="fill: #ece51b"/>
   </g>
   <g id="PathCollection_18">
    <defs>
     <path id="m72ea27a764" d="M -4.330127 4.330127 
L 4.330127 -4.330127 
M -4.330127 -4.330127 
L 4.330127 4.330127 
" style="stroke: #000000; stroke-width: 2"/>
    </defs>
    <g clip-path="url(#p003ed4209d)">
     <use xlink:href="#m72ea27a764" x="65.76" y="109.08" style="stroke: #000000; stroke-width: 2"/>
    </g>
   </g>
   <g id="matplotlib.axis_1">
    <g id="xtick_1">
     <g id="line2d_1">
      <defs>
       <path id="m578737f1b7" d="M 0 0 
L 0 3.5 
" style="stroke: #000000; stroke-width: 0.8"/>
      </defs>
      <g>
       <use xlink:href="#m578737f1b7" x="75.68" y="192.24" style="stroke: #000000; stroke-width: 0.8"/>
      </g>
     </g>
     <g id="text_1">
      <!-- 250 -->
      <g transform="translate(64.2275 208.358125) scale(0.12 -0.12)">
       <defs>
        <path id="DejaVuSans-32" d="M 1228 531 
L 3431 531 
L 3431 0 
L 469 0 
L 469 531 
Q 828 903 1448 1529 
Q 2069 2156 2228 2338 
Q 2531 2678 2651 2914 
Q 2772 3150 2772 3378 
Q 2772 3750 2511 3984 
Q 2250 4219 1831 4219 
Q 1534 4219 1204 4116 
Q 875 4013 500 3803 
L 500 4441 
Q 881 4594 1212 4672 
Q 1544 4750 1819 4750 
Q 2544 4750 2975 4387 
Q 3406 4025 3406 3419 
Q 3406 3131 3298 2873 
Q 3191 2616 2906 2266 
Q 2828 2175 2409 1742 
Q 1991 1309 1228 531 
z
" transform="scale(0.015625)"/>
        <path id="DejaVuSans-35" d="M 691 4666 
L 3169 4666 
L 3169 4134 
L 1269 4134 
L 1269 2991 
Q 1406 3038 1543 3061 
Q 1681 3084 1819 3084 
Q 2600 3084 3056 2656 
Q 3513 2228 3513 1497 
Q 3513 744 3044 326 
Q 2575 -91 1722 -91 
Q 1428 -91 1123 -41 
Q 819 9 494 109 
L 494 744 
Q 775 591 1075 516 
Q 1375 441 1709 441 
Q 2250 441 2565 725 
Q 2881 1009 2881 1497 
Q 2881 1984 2565 2268 
Q 2250 2553 1709 2553 
Q 1456 2553 1204 2497 
Q 953 2441 691 2322 
L 691 4666 
z
" transform="scale(0.015625)"/>
        <path id="DejaVuSans-30" d="M 2034 4250 
Q 1547 4250 1301 3770 
Q 1056 3291 1056 2328 
Q 1056 1369 1301 889 
Q 1547 409 2034 409 
Q 2525 409 2770 889 
Q 3016 1369 3016 2328 
Q 3016 3291 2770 3770 
Q 2525 4250 2034 4250 
z
M 2034 4750 
Q 2819 4750 3233 4129 
Q 3647 3509 3647 2328 
Q 3647 1150 3233 529 
Q 2819 -91 2034 -91 
Q 1250 -91 836 529 
Q 422 1150 422 2328 
Q 422 3509 836 4129 
Q 1250 4750 2034 4750 
z
" transform="scale(0.015625)"/>
       </defs>
       <use xlink:href="#DejaVuSans-32"/>
       <use xlink:href="#DejaVuSans-35" x="63.623047"/>
       <use xlink:href="#DejaVuSans-30" x="127.246094"/>
      </g>
     </g>
    </g>
    <g id="xtick_2">
     <g id="line2d_2">
      <g>
       <use xlink:href="#m578737f1b7" x="125.28" y="192.24" style="stroke: #000000; stroke-width: 0.8"/>
      </g>
     </g>
     <g id="text_2">
      <!-- 500 -->
      <g transform="translate(113.8275 208.358125) scale(0.12 -0.12)">
       <use xlink:href="#DejaVuSans-35"/>
       <use xlink:href="#DejaVuSans-30" x="63.623047"/>
       <use xlink:href="#DejaVuSans-30" x="127.246094"/>
      </g>
     </g>
    </g>
    <g id="xtick_3">
     <g id="line2d_3">
      <g>
       <use xlink:href="#m578737f1b7" x="174.88" y="192.24" style="stroke: #000000; stroke-width: 0.8"/>
      </g>
     </g>
     <g id="text_3">
      <!-- 750 -->
      <g transform="translate(163.4275 208.358125) scale(0.12 -0.12)">
       <defs>
        <path id="DejaVuSans-37" d="M 525 4666 
L 3525 4666 
L 3525 4397 
L 1831 0 
L 1172 0 
L 2766 4134 
L 525 4134 
L 525 4666 
z
" transform="scale(0.015625)"/>
       </defs>
       <use xlink:href="#DejaVuSans-37"/>
       <use xlink:href="#DejaVuSans-35" x="63.623047"/>
       <use xlink:href="#DejaVuSans-30" x="127.246094"/>
      </g>
     </g>
    </g>
    <g id="text_4">
     <!-- Diploid N$_e$0 -->
     <g transform="translate(80 227.01375) scale(0.16 -0.16)">
      <defs>
       <path id="DejaVuSans-44" d="M 1259 4147 
L 1259 519 
L 2022 519 
Q 2988 519 3436 956 
Q 3884 1394 3884 2338 
Q 3884 3275 3436 3711 
Q 2988 4147 2022 4147 
L 1259 4147 
z
M 628 4666 
L 1925 4666 
Q 3281 4666 3915 4102 
Q 4550 3538 4550 2338 
Q 4550 1131 3912 565 
Q 3275 0 1925 0 
L 628 0 
L 628 4666 
z
" transform="scale(0.015625)"/>
       <path id="DejaVuSans-69" d="M 603 3500 
L 1178 3500 
L 1178 0 
L 603 0 
L 603 3500 
z
M 603 4863 
L 1178 4863 
L 1178 4134 
L 603 4134 
L 603 4863 
z
" transform="scale(0.015625)"/>
       <path id="DejaVuSans-70" d="M 1159 525 
L 1159 -1331 
L 581 -1331 
L 581 3500 
L 1159 3500 
L 1159 2969 
Q 1341 3281 1617 3432 
Q 1894 3584 2278 3584 
Q 2916 3584 3314 3078 
Q 3713 2572 3713 1747 
Q 3713 922 3314 415 
Q 2916 -91 2278 -91 
Q 1894 -91 1617 61 
Q 1341 213 1159 525 
z
M 3116 1747 
Q 3116 2381 2855 2742 
Q 2594 3103 2138 3103 
Q 1681 3103 1420 2742 
Q 1159 2381 1159 1747 
Q 1159 1113 1420 752 
Q 1681 391 2138 391 
Q 2594 391 2855 752 
Q 3116 1113 3116 1747 
z
" transform="scale(0.015625)"/>
       <path id="DejaVuSans-6c" d="M 603 4863 
L 1178 4863 
L 1178 0 
L 603 0 
L 603 4863 
z
" transform="scale(0.015625)"/>
       <path id="DejaVuSans-6f" d="M 1959 3097 
Q 1497 3097 1228 2736 
Q 959 2375 959 1747 
Q 959 1119 1226 758 
Q 1494 397 1959 397 
Q 2419 397 2687 759 
Q 2956 1122 2956 1747 
Q 2956 2369 2687 2733 
Q 2419 3097 1959 3097 
z
M 1959 3584 
Q 2709 3584 3137 3096 
Q 3566 2609 3566 1747 
Q 3566 888 3137 398 
Q 2709 -91 1959 -91 
Q 1206 -91 779 398 
Q 353 888 353 1747 
Q 353 2609 779 3096 
Q 1206 3584 1959 3584 
z
" transform="scale(0.015625)"/>
       <path id="DejaVuSans-64" d="M 2906 2969 
L 2906 4863 
L 3481 4863 
L 3481 0 
L 2906 0 
L 2906 525 
Q 2725 213 2448 61 
Q 2172 -91 1784 -91 
Q 1150 -91 751 415 
Q 353 922 353 1747 
Q 353 2572 751 3078 
Q 1150 3584 1784 3584 
Q 2172 3584 2448 3432 
Q 2725 3281 2906 2969 
z
M 947 1747 
Q 947 1113 1208 752 
Q 1469 391 1925 391 
Q 2381 391 2643 752 
Q 2906 1113 2906 1747 
Q 2906 2381 2643 2742 
Q 2381 3103 1925 3103 
Q 1469 3103 1208 2742 
Q 947 2381 947 1747 
z
" transform="scale(0.015625)"/>
       <path id="DejaVuSans-20" transform="scale(0.015625)"/>
       <path id="DejaVuSans-4e" d="M 628 4666 
L 1478 4666 
L 3547 763 
L 3547 4666 
L 4159 4666 
L 4159 0 
L 3309 0 
L 1241 3903 
L 1241 0 
L 628 0 
L 628 4666 
z
" transform="scale(0.015625)"/>
       <path id="DejaVuSans-Oblique-65" d="M 3078 2063 
Q 3088 2113 3092 2166 
Q 3097 2219 3097 2272 
Q 3097 2653 2873 2875 
Q 2650 3097 2266 3097 
Q 1838 3097 1509 2826 
Q 1181 2556 1013 2059 
L 3078 2063 
z
M 3578 1613 
L 903 1613 
Q 884 1494 878 1425 
Q 872 1356 872 1306 
Q 872 872 1139 634 
Q 1406 397 1894 397 
Q 2269 397 2603 481 
Q 2938 566 3225 728 
L 3116 159 
Q 2806 34 2476 -28 
Q 2147 -91 1806 -91 
Q 1078 -91 686 257 
Q 294 606 294 1247 
Q 294 1794 489 2264 
Q 684 2734 1063 3103 
Q 1306 3334 1642 3459 
Q 1978 3584 2356 3584 
Q 2950 3584 3301 3228 
Q 3653 2872 3653 2272 
Q 3653 2128 3634 1964 
Q 3616 1800 3578 1613 
z
" transform="scale(0.015625)"/>
      </defs>
      <use xlink:href="#DejaVuSans-44" transform="translate(0 0.015625)"/>
      <use xlink:href="#DejaVuSans-69" transform="translate(77.001953 0.015625)"/>
      <use xlink:href="#DejaVuSans-70" transform="translate(104.785156 0.015625)"/>
      <use xlink:href="#DejaVuSans-6c" transform="translate(168.261719 0.015625)"/>
      <use xlink:href="#DejaVuSans-6f" transform="translate(196.044922 0.015625)"/>
      <use xlink:href="#DejaVuSans-69" transform="translate(257.226562 0.015625)"/>
      <use xlink:href="#DejaVuSans-64" transform="translate(285.009766 0.015625)"/>
      <use xlink:href="#DejaVuSans-20" transform="translate(348.486328 0.015625)"/>
      <use xlink:href="#DejaVuSans-4e" transform="translate(380.273438 0.015625)"/>
      <use xlink:href="#DejaVuSans-Oblique-65" transform="translate(456.035156 -16.390625) scale(0.7)"/>
      <use xlink:href="#DejaVuSans-30" transform="translate(501.835938 0.015625)"/>
     </g>
    </g>
    <g id="text_5">
     <!-- 1e3 -->
     <g transform="translate(195.681875 221.452188) scale(0.1 -0.1)">
      <defs>
       <path id="DejaVuSans-31" d="M 794 531 
L 1825 531 
L 1825 4091 
L 703 3866 
L 703 4441 
L 1819 4666 
L 2450 4666 
L 2450 531 
L 3481 531 
L 3481 0 
L 794 0 
L 794 531 
z
" transform="scale(0.015625)"/>
       <path id="DejaVuSans-65" d="M 3597 1894 
L 3597 1613 
L 953 1613 
Q 991 1019 1311 708 
Q 1631 397 2203 397 
Q 2534 397 2845 478 
Q 3156 559 3463 722 
L 3463 178 
Q 3153 47 2828 -22 
Q 2503 -91 2169 -91 
Q 1331 -91 842 396 
Q 353 884 353 1716 
Q 353 2575 817 3079 
Q 1281 3584 2069 3584 
Q 2775 3584 3186 3129 
Q 3597 2675 3597 1894 
z
M 3022 2063 
Q 3016 2534 2758 2815 
Q 2500 3097 2075 3097 
Q 1594 3097 1305 2825 
Q 1016 2553 972 2059 
L 3022 2063 
z
" transform="scale(0.015625)"/>
       <path id="DejaVuSans-33" d="M 2597 2516 
Q 3050 2419 3304 2112 
Q 3559 1806 3559 1356 
Q 3559 666 3084 287 
Q 2609 -91 1734 -91 
Q 1441 -91 1130 -33 
Q 819 25 488 141 
L 488 750 
Q 750 597 1062 519 
Q 1375 441 1716 441 
Q 2309 441 2620 675 
Q 2931 909 2931 1356 
Q 2931 1769 2642 2001 
Q 2353 2234 1838 2234 
L 1294 2234 
L 1294 2753 
L 1863 2753 
Q 2328 2753 2575 2939 
Q 2822 3125 2822 3475 
Q 2822 3834 2567 4026 
Q 2313 4219 1838 4219 
Q 1578 4219 1281 4162 
Q 984 4106 628 3988 
L 628 4550 
Q 988 4650 1302 4700 
Q 1616 4750 1894 4750 
Q 2613 4750 3031 4423 
Q 3450 4097 3450 3541 
Q 3450 3153 3228 2886 
Q 3006 2619 2597 2516 
z
" transform="scale(0.015625)"/>
      </defs>
      <use xlink:href="#DejaVuSans-31"/>
      <use xlink:href="#DejaVuSans-65" x="63.623047"/>
      <use xlink:href="#DejaVuSans-33" x="125.146484"/>
     </g>
    </g>
   </g>
   <g id="matplotlib.axis_2">
    <g id="ytick_1">
     <g id="line2d_4">
      <defs>
       <path id="mf6bf2a86ed" d="M 0 0 
L -3.5 0 
" style="stroke: #000000; stroke-width: 0.8"/>
      </defs>
      <g>
       <use xlink:href="#mf6bf2a86ed" x="36" y="192.24" style="stroke: #000000; stroke-width: 0.8"/>
      </g>
     </g>
     <g id="text_6">
      <!-- 1.0 -->
      <g transform="translate(9.91625 196.799062) scale(0.12 -0.12)">
       <defs>
        <path id="DejaVuSans-2e" d="M 684 794 
L 1344 794 
L 1344 0 
L 684 0 
L 684 794 
z
" transform="scale(0.015625)"/>
       </defs>
       <use xlink:href="#DejaVuSans-31"/>
       <use xlink:href="#DejaVuSans-2e" x="63.623047"/>
       <use xlink:href="#DejaVuSans-30" x="95.410156"/>
      </g>
     </g>
    </g>
    <g id="ytick_2">
     <g id="line2d_5">
      <g>
       <use xlink:href="#mf6bf2a86ed" x="36" y="150.66" style="stroke: #000000; stroke-width: 0.8"/>
      </g>
     </g>
     <g id="text_7">
      <!-- 1.5 -->
      <g transform="translate(9.91625 155.219063) scale(0.12 -0.12)">
       <use xlink:href="#DejaVuSans-31"/>
       <use xlink:href="#DejaVuSans-2e" x="63.623047"/>
       <use xlink:href="#DejaVuSans-35" x="95.410156"/>
      </g>
     </g>
    </g>
    <g id="ytick_3">
     <g id="line2d_6">
      <g>
       <use xlink:href="#mf6bf2a86ed" x="36" y="109.08" style="stroke: #000000; stroke-width: 0.8"/>
      </g>
     </g>
     <g id="text_8">
      <!-- 2.0 -->
      <g transform="translate(9.91625 113.639062) scale(0.12 -0.12)">
       <use xlink:href="#DejaVuSans-32"/>
       <use xlink:href="#DejaVuSans-2e" x="63.623047"/>
       <use xlink:href="#DejaVuSans-30" x="95.410156"/>
      </g>
     </g>
    </g>
    <g id="ytick_4">
     <g id="line2d_7">
      <g>
       <use xlink:href="#mf6bf2a86ed" x="36" y="67.5" style="stroke: #000000; stroke-width: 0.8"/>
      </g>
     </g>
     <g id="text_9">
      <!-- 2.5 -->
      <g transform="translate(9.91625 72.059063) scale(0.12 -0.12)">
       <use xlink:href="#DejaVuSans-32"/>
       <use xlink:href="#DejaVuSans-2e" x="63.623047"/>
       <use xlink:href="#DejaVuSans-35" x="95.410156"/>
      </g>
     </g>
    </g>
    <g id="ytick_5">
     <g id="line2d_8">
      <g>
       <use xlink:href="#mf6bf2a86ed" x="36" y="25.92" style="stroke: #000000; stroke-width: 0.8"/>
      </g>
     </g>
     <g id="text_10">
      <!-- 3.0 -->
      <g transform="translate(9.91625 30.479062) scale(0.12 -0.12)">
       <use xlink:href="#DejaVuSans-33"/>
       <use xlink:href="#DejaVuSans-2e" x="63.623047"/>
       <use xlink:href="#DejaVuSans-30" x="95.410156"/>
      </g>
     </g>
    </g>
    <g id="text_11">
     <!-- Recombination rate -->
     <g transform="translate(2.58875 187.6775) rotate(-90) scale(0.16 -0.16)">
      <defs>
       <path id="DejaVuSans-52" d="M 2841 2188 
Q 3044 2119 3236 1894 
Q 3428 1669 3622 1275 
L 4263 0 
L 3584 0 
L 2988 1197 
Q 2756 1666 2539 1819 
Q 2322 1972 1947 1972 
L 1259 1972 
L 1259 0 
L 628 0 
L 628 4666 
L 2053 4666 
Q 2853 4666 3247 4331 
Q 3641 3997 3641 3322 
Q 3641 2881 3436 2590 
Q 3231 2300 2841 2188 
z
M 1259 4147 
L 1259 2491 
L 2053 2491 
Q 2509 2491 2742 2702 
Q 2975 2913 2975 3322 
Q 2975 3731 2742 3939 
Q 2509 4147 2053 4147 
L 1259 4147 
z
" transform="scale(0.015625)"/>
       <path id="DejaVuSans-63" d="M 3122 3366 
L 3122 2828 
Q 2878 2963 2633 3030 
Q 2388 3097 2138 3097 
Q 1578 3097 1268 2742 
Q 959 2388 959 1747 
Q 959 1106 1268 751 
Q 1578 397 2138 397 
Q 2388 397 2633 464 
Q 2878 531 3122 666 
L 3122 134 
Q 2881 22 2623 -34 
Q 2366 -91 2075 -91 
Q 1284 -91 818 406 
Q 353 903 353 1747 
Q 353 2603 823 3093 
Q 1294 3584 2113 3584 
Q 2378 3584 2631 3529 
Q 2884 3475 3122 3366 
z
" transform="scale(0.015625)"/>
       <path id="DejaVuSans-6d" d="M 3328 2828 
Q 3544 3216 3844 3400 
Q 4144 3584 4550 3584 
Q 5097 3584 5394 3201 
Q 5691 2819 5691 2113 
L 5691 0 
L 5113 0 
L 5113 2094 
Q 5113 2597 4934 2840 
Q 4756 3084 4391 3084 
Q 3944 3084 3684 2787 
Q 3425 2491 3425 1978 
L 3425 0 
L 2847 0 
L 2847 2094 
Q 2847 2600 2669 2842 
Q 2491 3084 2119 3084 
Q 1678 3084 1418 2786 
Q 1159 2488 1159 1978 
L 1159 0 
L 581 0 
L 581 3500 
L 1159 3500 
L 1159 2956 
Q 1356 3278 1631 3431 
Q 1906 3584 2284 3584 
Q 2666 3584 2933 3390 
Q 3200 3197 3328 2828 
z
" transform="scale(0.015625)"/>
       <path id="DejaVuSans-62" d="M 3116 1747 
Q 3116 2381 2855 2742 
Q 2594 3103 2138 3103 
Q 1681 3103 1420 2742 
Q 1159 2381 1159 1747 
Q 1159 1113 1420 752 
Q 1681 391 2138 391 
Q 2594 391 2855 752 
Q 3116 1113 3116 1747 
z
M 1159 2969 
Q 1341 3281 1617 3432 
Q 1894 3584 2278 3584 
Q 2916 3584 3314 3078 
Q 3713 2572 3713 1747 
Q 3713 922 3314 415 
Q 2916 -91 2278 -91 
Q 1894 -91 1617 61 
Q 1341 213 1159 525 
L 1159 0 
L 581 0 
L 581 4863 
L 1159 4863 
L 1159 2969 
z
" transform="scale(0.015625)"/>
       <path id="DejaVuSans-6e" d="M 3513 2113 
L 3513 0 
L 2938 0 
L 2938 2094 
Q 2938 2591 2744 2837 
Q 2550 3084 2163 3084 
Q 1697 3084 1428 2787 
Q 1159 2491 1159 1978 
L 1159 0 
L 581 0 
L 581 3500 
L 1159 3500 
L 1159 2956 
Q 1366 3272 1645 3428 
Q 1925 3584 2291 3584 
Q 2894 3584 3203 3211 
Q 3513 2838 3513 2113 
z
" transform="scale(0.015625)"/>
       <path id="DejaVuSans-61" d="M 2194 1759 
Q 1497 1759 1228 1600 
Q 959 1441 959 1056 
Q 959 750 1161 570 
Q 1363 391 1709 391 
Q 2188 391 2477 730 
Q 2766 1069 2766 1631 
L 2766 1759 
L 2194 1759 
z
M 3341 1997 
L 3341 0 
L 2766 0 
L 2766 531 
Q 2569 213 2275 61 
Q 1981 -91 1556 -91 
Q 1019 -91 701 211 
Q 384 513 384 1019 
Q 384 1609 779 1909 
Q 1175 2209 1959 2209 
L 2766 2209 
L 2766 2266 
Q 2766 2663 2505 2880 
Q 2244 3097 1772 3097 
Q 1472 3097 1187 3025 
Q 903 2953 641 2809 
L 641 3341 
Q 956 3463 1253 3523 
Q 1550 3584 1831 3584 
Q 2591 3584 2966 3190 
Q 3341 2797 3341 1997 
z
" transform="scale(0.015625)"/>
       <path id="DejaVuSans-74" d="M 1172 4494 
L 1172 3500 
L 2356 3500 
L 2356 3053 
L 1172 3053 
L 1172 1153 
Q 1172 725 1289 603 
Q 1406 481 1766 481 
L 2356 481 
L 2356 0 
L 1766 0 
Q 1100 0 847 248 
Q 594 497 594 1153 
L 594 3053 
L 172 3053 
L 172 3500 
L 594 3500 
L 594 4494 
L 1172 4494 
z
" transform="scale(0.015625)"/>
       <path id="DejaVuSans-72" d="M 2631 2963 
Q 2534 3019 2420 3045 
Q 2306 3072 2169 3072 
Q 1681 3072 1420 2755 
Q 1159 2438 1159 1844 
L 1159 0 
L 581 0 
L 581 3500 
L 1159 3500 
L 1159 2956 
Q 1341 3275 1631 3429 
Q 1922 3584 2338 3584 
Q 2397 3584 2469 3576 
Q 2541 3569 2628 3553 
L 2631 2963 
z
" transform="scale(0.015625)"/>
      </defs>
      <use xlink:href="#DejaVuSans-52"/>
      <use xlink:href="#DejaVuSans-65" x="64.982422"/>
      <use xlink:href="#DejaVuSans-63" x="126.505859"/>
      <use xlink:href="#DejaVuSans-6f" x="181.486328"/>
      <use xlink:href="#DejaVuSans-6d" x="242.667969"/>
      <use xlink:href="#DejaVuSans-62" x="340.080078"/>
      <use xlink:href="#DejaVuSans-69" x="403.556641"/>
      <use xlink:href="#DejaVuSans-6e" x="431.339844"/>
      <use xlink:href="#DejaVuSans-61" x="494.71875"/>
      <use xlink:href="#DejaVuSans-74" x="555.998047"/>
      <use xlink:href="#DejaVuSans-69" x="595.207031"/>
      <use xlink:href="#DejaVuSans-6f" x="622.990234"/>
      <use xlink:href="#DejaVuSans-6e" x="684.171875"/>
      <use xlink:href="#DejaVuSans-20" x="747.550781"/>
      <use xlink:href="#DejaVuSans-72" x="779.337891"/>
      <use xlink:href="#DejaVuSans-61" x="820.451172"/>
      <use xlink:href="#DejaVuSans-74" x="881.730469"/>
      <use xlink:href="#DejaVuSans-65" x="920.939453"/>
     </g>
    </g>
    <g id="text_12">
     <!-- 1e9 -->
     <g transform="translate(36 22.92) scale(0.1 -0.1)">
      <defs>
       <path id="DejaVuSans-2212" d="M 678 2272 
L 4684 2272 
L 4684 1741 
L 678 1741 
L 678 2272 
z
" transform="scale(0.015625)"/>
       <path id="DejaVuSans-39" d="M 703 97 
L 703 672 
Q 941 559 1184 500 
Q 1428 441 1663 441 
Q 2288 441 2617 861 
Q 2947 1281 2994 2138 
Q 2813 1869 2534 1725 
Q 2256 1581 1919 1581 
Q 1219 1581 811 2004 
Q 403 2428 403 3163 
Q 403 3881 828 4315 
Q 1253 4750 1959 4750 
Q 2769 4750 3195 4129 
Q 3622 3509 3622 2328 
Q 3622 1225 3098 567 
Q 2575 -91 1691 -91 
Q 1453 -91 1209 -44 
Q 966 3 703 97 
z
M 1959 2075 
Q 2384 2075 2632 2365 
Q 2881 2656 2881 3163 
Q 2881 3666 2632 3958 
Q 2384 4250 1959 4250 
Q 1534 4250 1286 3958 
Q 1038 3666 1038 3163 
Q 1038 2656 1286 2365 
Q 1534 2075 1959 2075 
z
" transform="scale(0.015625)"/>
      </defs>
      <use xlink:href="#DejaVuSans-31"/>
      <use xlink:href="#DejaVuSans-65" x="63.623047"/>
      <use xlink:href="#DejaVuSans-2212" x="125.146484"/>
      <use xlink:href="#DejaVuSans-39" x="208.935547"/>
     </g>
    </g>
   </g>
   <g id="patch_3">
    <path d="M 36 192.24 
L 36 25.92 
" style="fill: none; stroke: #000000; stroke-width: 0.8; stroke-linejoin: miter; stroke-linecap: square"/>
   </g>
   <g id="patch_4">
    <path d="M 214.56 192.24 
L 214.56 25.92 
" style="fill: none; stroke: #000000; stroke-width: 0.8; stroke-linejoin: miter; stroke-linecap: square"/>
   </g>
   <g id="patch_5">
    <path d="M 36 192.24 
L 214.56 192.24 
" style="fill: none; stroke: #000000; stroke-width: 0.8; stroke-linejoin: miter; stroke-linecap: square"/>
   </g>
   <g id="patch_6">
    <path d="M 36 25.92 
L 214.56 25.92 
" style="fill: none; stroke: #000000; stroke-width: 0.8; stroke-linejoin: miter; stroke-linecap: square"/>
   </g>
   <g id="text_13">
    <!-- Ne0r-SMC-T-P2-S4 -->
    <g transform="translate(53.8825 10.92) scale(0.16 -0.16)">
     <defs>
      <path id="DejaVuSans-2d" d="M 313 2009 
L 1997 2009 
L 1997 1497 
L 313 1497 
L 313 2009 
z
" transform="scale(0.015625)"/>
      <path id="DejaVuSans-53" d="M 3425 4513 
L 3425 3897 
Q 3066 4069 2747 4153 
Q 2428 4238 2131 4238 
Q 1616 4238 1336 4038 
Q 1056 3838 1056 3469 
Q 1056 3159 1242 3001 
Q 1428 2844 1947 2747 
L 2328 2669 
Q 3034 2534 3370 2195 
Q 3706 1856 3706 1288 
Q 3706 609 3251 259 
Q 2797 -91 1919 -91 
Q 1588 -91 1214 -16 
Q 841 59 441 206 
L 441 856 
Q 825 641 1194 531 
Q 1563 422 1919 422 
Q 2459 422 2753 634 
Q 3047 847 3047 1241 
Q 3047 1584 2836 1778 
Q 2625 1972 2144 2069 
L 1759 2144 
Q 1053 2284 737 2584 
Q 422 2884 422 3419 
Q 422 4038 858 4394 
Q 1294 4750 2059 4750 
Q 2388 4750 2728 4690 
Q 3069 4631 3425 4513 
z
" transform="scale(0.015625)"/>
      <path id="DejaVuSans-4d" d="M 628 4666 
L 1569 4666 
L 2759 1491 
L 3956 4666 
L 4897 4666 
L 4897 0 
L 4281 0 
L 4281 4097 
L 3078 897 
L 2444 897 
L 1241 4097 
L 1241 0 
L 628 0 
L 628 4666 
z
" transform="scale(0.015625)"/>
      <path id="DejaVuSans-43" d="M 4122 4306 
L 4122 3641 
Q 3803 3938 3442 4084 
Q 3081 4231 2675 4231 
Q 1875 4231 1450 3742 
Q 1025 3253 1025 2328 
Q 1025 1406 1450 917 
Q 1875 428 2675 428 
Q 3081 428 3442 575 
Q 3803 722 4122 1019 
L 4122 359 
Q 3791 134 3420 21 
Q 3050 -91 2638 -91 
Q 1578 -91 968 557 
Q 359 1206 359 2328 
Q 359 3453 968 4101 
Q 1578 4750 2638 4750 
Q 3056 4750 3426 4639 
Q 3797 4528 4122 4306 
z
" transform="scale(0.015625)"/>
      <path id="DejaVuSans-54" d="M -19 4666 
L 3928 4666 
L 3928 4134 
L 2272 4134 
L 2272 0 
L 1638 0 
L 1638 4134 
L -19 4134 
L -19 4666 
z
" transform="scale(0.015625)"/>
      <path id="DejaVuSans-50" d="M 1259 4147 
L 1259 2394 
L 2053 2394 
Q 2494 2394 2734 2622 
Q 2975 2850 2975 3272 
Q 2975 3691 2734 3919 
Q 2494 4147 2053 4147 
L 1259 4147 
z
M 628 4666 
L 2053 4666 
Q 2838 4666 3239 4311 
Q 3641 3956 3641 3272 
Q 3641 2581 3239 2228 
Q 2838 1875 2053 1875 
L 1259 1875 
L 1259 0 
L 628 0 
L 628 4666 
z
" transform="scale(0.015625)"/>
      <path id="DejaVuSans-34" d="M 2419 4116 
L 825 1625 
L 2419 1625 
L 2419 4116 
z
M 2253 4666 
L 3047 4666 
L 3047 1625 
L 3713 1625 
L 3713 1100 
L 3047 1100 
L 3047 0 
L 2419 0 
L 2419 1100 
L 313 1100 
L 313 1709 
L 2253 4666 
z
" transform="scale(0.015625)"/>
     </defs>
     <use xlink:href="#DejaVuSans-4e"/>
     <use xlink:href="#DejaVuSans-65" x="74.804688"/>
     <use xlink:href="#DejaVuSans-30" x="136.328125"/>
     <use xlink:href="#DejaVuSans-72" x="199.951172"/>
     <use xlink:href="#DejaVuSans-2d" x="234.689453"/>
     <use xlink:href="#DejaVuSans-53" x="270.773438"/>
     <use xlink:href="#DejaVuSans-4d" x="334.25"/>
     <use xlink:href="#DejaVuSans-43" x="420.529297"/>
     <use xlink:href="#DejaVuSans-2d" x="490.353516"/>
     <use xlink:href="#DejaVuSans-54" x="517.3125"/>
     <use xlink:href="#DejaVuSans-2d" x="569.271484"/>
     <use xlink:href="#DejaVuSans-50" x="605.355469"/>
     <use xlink:href="#DejaVuSans-32" x="665.658203"/>
     <use xlink:href="#DejaVuSans-2d" x="729.28125"/>
     <use xlink:href="#DejaVuSans-53" x="765.365234"/>
     <use xlink:href="#DejaVuSans-34" x="828.841797"/>
    </g>
   </g>
  </g>
  <g id="axes_2">
   <g id="patch_7">
    <path d="M 225.72 192.24 
L 234.036 192.24 
L 234.036 25.92 
L 225.72 25.92 
z
" style="fill: #ffffff"/>
   </g>
   <g id="QuadMesh_1">
    <path d="M 225.72 192.24 
L 234.036 192.24 
L 234.036 182.456471 
L 225.72 182.456471 
L 225.72 192.24 
" clip-path="url(#p715f7348f3)" style="fill: #440154"/>
    <path d="M 225.72 182.456471 
L 234.036 182.456471 
L 234.036 172.672941 
L 225.72 172.672941 
L 225.72 182.456471 
" clip-path="url(#p715f7348f3)" style="fill: #481467"/>
    <path d="M 225.72 172.672941 
L 234.036 172.672941 
L 234.036 162.889412 
L 225.72 162.889412 
L 225.72 172.672941 
" clip-path="url(#p715f7348f3)" style="fill: #482979"/>
    <path d="M 225.72 162.889412 
L 234.036 162.889412 
L 234.036 153.105882 
L 225.72 153.105882 
L 225.72 162.889412 
" clip-path="url(#p715f7348f3)" style="fill: #443b84"/>
    <path d="M 225.72 153.105882 
L 234.036 153.105882 
L 234.036 143.322353 
L 225.72 143.322353 
L 225.72 153.105882 
" clip-path="url(#p715f7348f3)" style="fill: #3d4e8a"/>
    <path d="M 225.72 143.322353 
L 234.036 143.322353 
L 234.036 133.538824 
L 225.72 133.538824 
L 225.72 143.322353 
" clip-path="url(#p715f7348f3)" style="fill: #355e8d"/>
    <path d="M 225.72 133.538824 
L 234.036 133.538824 
L 234.036 123.755294 
L 225.72 123.755294 
L 225.72 133.538824 
" clip-path="url(#p715f7348f3)" style="fill: #2e6e8e"/>
    <path d="M 225.72 123.755294 
L 234.036 123.755294 
L 234.036 113.971765 
L 225.72 113.971765 
L 225.72 123.755294 
" clip-path="url(#p715f7348f3)" style="fill: #287d8e"/>
    <path d="M 225.72 113.971765 
L 234.036 113.971765 
L 234.036 104.188235 
L 225.72 104.188235 
L 225.72 113.971765 
" clip-path="url(#p715f7348f3)" style="fill: #228b8d"/>
    <path d="M 225.72 104.188235 
L 234.036 104.188235 
L 234.036 94.404706 
L 225.72 94.404706 
L 225.72 104.188235 
" clip-path="url(#p715f7348f3)" style="fill: #1f9a8a"/>
    <path d="M 225.72 94.404706 
L 234.036 94.404706 
L 234.036 84.621176 
L 225.72 84.621176 
L 225.72 94.404706 
" clip-path="url(#p715f7348f3)" style="fill: #23a983"/>
    <path d="M 225.72 84.621176 
L 234.036 84.621176 
L 234.036 74.837647 
L 225.72 74.837647 
L 225.72 84.621176 
" clip-path="url(#p715f7348f3)" style="fill: #34b679"/>
    <path d="M 225.72 74.837647 
L 234.036 74.837647 
L 234.036 65.054118 
L 225.72 65.054118 
L 225.72 74.837647 
" clip-path="url(#p715f7348f3)" style="fill: #50c46a"/>
    <path d="M 225.72 65.054118 
L 234.036 65.054118 
L 234.036 55.270588 
L 225.72 55.270588 
L 225.72 65.054118 
" clip-path="url(#p715f7348f3)" style="fill: #73d056"/>
    <path d="M 225.72 55.270588 
L 234.036 55.270588 
L 234.036 45.487059 
L 225.72 45.487059 
L 225.72 55.270588 
" clip-path="url(#p715f7348f3)" style="fill: #98d83e"/>
    <path d="M 225.72 45.487059 
L 234.036 45.487059 
L 234.036 35.703529 
L 225.72 35.703529 
L 225.72 45.487059 
" clip-path="url(#p715f7348f3)" style="fill: #c2df23"/>
    <path d="M 225.72 35.703529 
L 234.036 35.703529 
L 234.036 25.92 
L 225.72 25.92 
L 225.72 35.703529 
" clip-path="url(#p715f7348f3)" style="fill: #ece51b"/>
   </g>
   <g id="matplotlib.axis_3"/>
   <g id="matplotlib.axis_4">
    <g id="ytick_6">
     <g id="line2d_9">
      <defs>
       <path id="m8abe5cc739" d="M 0 0 
L 3.5 0 
" style="stroke: #000000; stroke-width: 0.8"/>
      </defs>
      <g>
       <use xlink:href="#m8abe5cc739" x="234.036" y="182.456471" style="stroke: #000000; stroke-width: 0.8"/>
      </g>
     </g>
     <g id="text_14">
      <!-- $\mathdefault{117.0}$ -->
      <g transform="translate(241.036 186.255689) scale(0.1 -0.1)">
       <use xlink:href="#DejaVuSans-2212" transform="translate(0 0.78125)"/>
       <use xlink:href="#DejaVuSans-31" transform="translate(83.789062 0.78125)"/>
       <use xlink:href="#DejaVuSans-31" transform="translate(147.412109 0.78125)"/>
       <use xlink:href="#DejaVuSans-37" transform="translate(211.035156 0.78125)"/>
       <use xlink:href="#DejaVuSans-2e" transform="translate(274.658203 0.78125)"/>
       <use xlink:href="#DejaVuSans-30" transform="translate(306.445312 0.78125)"/>
      </g>
     </g>
    </g>
    <g id="ytick_7">
     <g id="line2d_10">
      <g>
       <use xlink:href="#m8abe5cc739" x="234.036" y="162.889412" style="stroke: #000000; stroke-width: 0.8"/>
      </g>
     </g>
     <g id="text_15">
      <!-- $\mathdefault{116.9}$ -->
      <g transform="translate(241.036 166.688631) scale(0.1 -0.1)">
       <defs>
        <path id="DejaVuSans-36" d="M 2113 2584 
Q 1688 2584 1439 2293 
Q 1191 2003 1191 1497 
Q 1191 994 1439 701 
Q 1688 409 2113 409 
Q 2538 409 2786 701 
Q 3034 994 3034 1497 
Q 3034 2003 2786 2293 
Q 2538 2584 2113 2584 
z
M 3366 4563 
L 3366 3988 
Q 3128 4100 2886 4159 
Q 2644 4219 2406 4219 
Q 1781 4219 1451 3797 
Q 1122 3375 1075 2522 
Q 1259 2794 1537 2939 
Q 1816 3084 2150 3084 
Q 2853 3084 3261 2657 
Q 3669 2231 3669 1497 
Q 3669 778 3244 343 
Q 2819 -91 2113 -91 
Q 1303 -91 875 529 
Q 447 1150 447 2328 
Q 447 3434 972 4092 
Q 1497 4750 2381 4750 
Q 2619 4750 2861 4703 
Q 3103 4656 3366 4563 
z
" transform="scale(0.015625)"/>
       </defs>
       <use xlink:href="#DejaVuSans-2212" transform="translate(0 0.78125)"/>
       <use xlink:href="#DejaVuSans-31" transform="translate(83.789062 0.78125)"/>
       <use xlink:href="#DejaVuSans-31" transform="translate(147.412109 0.78125)"/>
       <use xlink:href="#DejaVuSans-36" transform="translate(211.035156 0.78125)"/>
       <use xlink:href="#DejaVuSans-2e" transform="translate(274.658203 0.78125)"/>
       <use xlink:href="#DejaVuSans-39" transform="translate(306.445312 0.78125)"/>
      </g>
     </g>
    </g>
    <g id="ytick_8">
     <g id="line2d_11">
      <g>
       <use xlink:href="#m8abe5cc739" x="234.036" y="143.322353" style="stroke: #000000; stroke-width: 0.8"/>
      </g>
     </g>
     <g id="text_16">
      <!-- $\mathdefault{116.8}$ -->
      <g transform="translate(241.036 147.121572) scale(0.1 -0.1)">
       <defs>
        <path id="DejaVuSans-38" d="M 2034 2216 
Q 1584 2216 1326 1975 
Q 1069 1734 1069 1313 
Q 1069 891 1326 650 
Q 1584 409 2034 409 
Q 2484 409 2743 651 
Q 3003 894 3003 1313 
Q 3003 1734 2745 1975 
Q 2488 2216 2034 2216 
z
M 1403 2484 
Q 997 2584 770 2862 
Q 544 3141 544 3541 
Q 544 4100 942 4425 
Q 1341 4750 2034 4750 
Q 2731 4750 3128 4425 
Q 3525 4100 3525 3541 
Q 3525 3141 3298 2862 
Q 3072 2584 2669 2484 
Q 3125 2378 3379 2068 
Q 3634 1759 3634 1313 
Q 3634 634 3220 271 
Q 2806 -91 2034 -91 
Q 1263 -91 848 271 
Q 434 634 434 1313 
Q 434 1759 690 2068 
Q 947 2378 1403 2484 
z
M 1172 3481 
Q 1172 3119 1398 2916 
Q 1625 2713 2034 2713 
Q 2441 2713 2670 2916 
Q 2900 3119 2900 3481 
Q 2900 3844 2670 4047 
Q 2441 4250 2034 4250 
Q 1625 4250 1398 4047 
Q 1172 3844 1172 3481 
z
" transform="scale(0.015625)"/>
       </defs>
       <use xlink:href="#DejaVuSans-2212" transform="translate(0 0.78125)"/>
       <use xlink:href="#DejaVuSans-31" transform="translate(83.789062 0.78125)"/>
       <use xlink:href="#DejaVuSans-31" transform="translate(147.412109 0.78125)"/>
       <use xlink:href="#DejaVuSans-36" transform="translate(211.035156 0.78125)"/>
       <use xlink:href="#DejaVuSans-2e" transform="translate(274.658203 0.78125)"/>
       <use xlink:href="#DejaVuSans-38" transform="translate(303.820312 0.78125)"/>
      </g>
     </g>
    </g>
    <g id="ytick_9">
     <g id="line2d_12">
      <g>
       <use xlink:href="#m8abe5cc739" x="234.036" y="123.755294" style="stroke: #000000; stroke-width: 0.8"/>
      </g>
     </g>
     <g id="text_17">
      <!-- $\mathdefault{116.7}$ -->
      <g transform="translate(241.036 127.554513) scale(0.1 -0.1)">
       <use xlink:href="#DejaVuSans-2212" transform="translate(0 0.78125)"/>
       <use xlink:href="#DejaVuSans-31" transform="translate(83.789062 0.78125)"/>
       <use xlink:href="#DejaVuSans-31" transform="translate(147.412109 0.78125)"/>
       <use xlink:href="#DejaVuSans-36" transform="translate(211.035156 0.78125)"/>
       <use xlink:href="#DejaVuSans-2e" transform="translate(274.658203 0.78125)"/>
       <use xlink:href="#DejaVuSans-37" transform="translate(298.695312 0.78125)"/>
      </g>
     </g>
    </g>
    <g id="ytick_10">
     <g id="line2d_13">
      <g>
       <use xlink:href="#m8abe5cc739" x="234.036" y="104.188235" style="stroke: #000000; stroke-width: 0.8"/>
      </g>
     </g>
     <g id="text_18">
      <!-- $\mathdefault{116.6}$ -->
      <g transform="translate(241.036 107.987454) scale(0.1 -0.1)">
       <use xlink:href="#DejaVuSans-2212" transform="translate(0 0.78125)"/>
       <use xlink:href="#DejaVuSans-31" transform="translate(83.789062 0.78125)"/>
       <use xlink:href="#DejaVuSans-31" transform="translate(147.412109 0.78125)"/>
       <use xlink:href="#DejaVuSans-36" transform="translate(211.035156 0.78125)"/>
       <use xlink:href="#DejaVuSans-2e" transform="translate(274.658203 0.78125)"/>
       <use xlink:href="#DejaVuSans-36" transform="translate(306.445312 0.78125)"/>
      </g>
     </g>
    </g>
    <g id="ytick_11">
     <g id="line2d_14">
      <g>
       <use xlink:href="#m8abe5cc739" x="234.036" y="84.621176" style="stroke: #000000; stroke-width: 0.8"/>
      </g>
     </g>
     <g id="text_19">
      <!-- $\mathdefault{116.5}$ -->
      <g transform="translate(241.036 88.420395) scale(0.1 -0.1)">
       <use xlink:href="#DejaVuSans-2212" transform="translate(0 0.78125)"/>
       <use xlink:href="#DejaVuSans-31" transform="translate(83.789062 0.78125)"/>
       <use xlink:href="#DejaVuSans-31" transform="translate(147.412109 0.78125)"/>
       <use xlink:href="#DejaVuSans-36" transform="translate(211.035156 0.78125)"/>
       <use xlink:href="#DejaVuSans-2e" transform="translate(274.658203 0.78125)"/>
       <use xlink:href="#DejaVuSans-35" transform="translate(306.445312 0.78125)"/>
      </g>
     </g>
    </g>
    <g id="ytick_12">
     <g id="line2d_15">
      <g>
       <use xlink:href="#m8abe5cc739" x="234.036" y="65.054118" style="stroke: #000000; stroke-width: 0.8"/>
      </g>
     </g>
     <g id="text_20">
      <!-- $\mathdefault{116.4}$ -->
      <g transform="translate(241.036 68.853336) scale(0.1 -0.1)">
       <use xlink:href="#DejaVuSans-2212" transform="translate(0 0.78125)"/>
       <use xlink:href="#DejaVuSans-31" transform="translate(83.789062 0.78125)"/>
       <use xlink:href="#DejaVuSans-31" transform="translate(147.412109 0.78125)"/>
       <use xlink:href="#DejaVuSans-36" transform="translate(211.035156 0.78125)"/>
       <use xlink:href="#DejaVuSans-2e" transform="translate(274.658203 0.78125)"/>
       <use xlink:href="#DejaVuSans-34" transform="translate(306.445312 0.78125)"/>
      </g>
     </g>
    </g>
    <g id="ytick_13">
     <g id="line2d_16">
      <g>
       <use xlink:href="#m8abe5cc739" x="234.036" y="45.487059" style="stroke: #000000; stroke-width: 0.8"/>
      </g>
     </g>
     <g id="text_21">
      <!-- $\mathdefault{116.3}$ -->
      <g transform="translate(241.036 49.286278) scale(0.1 -0.1)">
       <use xlink:href="#DejaVuSans-2212" transform="translate(0 0.78125)"/>
       <use xlink:href="#DejaVuSans-31" transform="translate(83.789062 0.78125)"/>
       <use xlink:href="#DejaVuSans-31" transform="translate(147.412109 0.78125)"/>
       <use xlink:href="#DejaVuSans-36" transform="translate(211.035156 0.78125)"/>
       <use xlink:href="#DejaVuSans-2e" transform="translate(274.658203 0.78125)"/>
       <use xlink:href="#DejaVuSans-33" transform="translate(306.445312 0.78125)"/>
      </g>
     </g>
    </g>
    <g id="ytick_14">
     <g id="line2d_17">
      <g>
       <use xlink:href="#m8abe5cc739" x="234.036" y="25.92" style="stroke: #000000; stroke-width: 0.8"/>
      </g>
     </g>
     <g id="text_22">
      <!-- $\mathdefault{116.2}$ -->
      <g transform="translate(241.036 29.719219) scale(0.1 -0.1)">
       <use xlink:href="#DejaVuSans-2212" transform="translate(0 0.78125)"/>
       <use xlink:href="#DejaVuSans-31" transform="translate(83.789062 0.78125)"/>
       <use xlink:href="#DejaVuSans-31" transform="translate(147.412109 0.78125)"/>
       <use xlink:href="#DejaVuSans-36" transform="translate(211.035156 0.78125)"/>
       <use xlink:href="#DejaVuSans-2e" transform="translate(274.658203 0.78125)"/>
       <use xlink:href="#DejaVuSans-32" transform="translate(300.945312 0.78125)"/>
      </g>
     </g>
    </g>
    <g id="text_23">
     <!-- log likelihood -->
     <g transform="translate(291.254125 148.704375) rotate(-90) scale(0.12 -0.12)">
      <defs>
       <path id="DejaVuSans-67" d="M 2906 1791 
Q 2906 2416 2648 2759 
Q 2391 3103 1925 3103 
Q 1463 3103 1205 2759 
Q 947 2416 947 1791 
Q 947 1169 1205 825 
Q 1463 481 1925 481 
Q 2391 481 2648 825 
Q 2906 1169 2906 1791 
z
M 3481 434 
Q 3481 -459 3084 -895 
Q 2688 -1331 1869 -1331 
Q 1566 -1331 1297 -1286 
Q 1028 -1241 775 -1147 
L 775 -588 
Q 1028 -725 1275 -790 
Q 1522 -856 1778 -856 
Q 2344 -856 2625 -561 
Q 2906 -266 2906 331 
L 2906 616 
Q 2728 306 2450 153 
Q 2172 0 1784 0 
Q 1141 0 747 490 
Q 353 981 353 1791 
Q 353 2603 747 3093 
Q 1141 3584 1784 3584 
Q 2172 3584 2450 3431 
Q 2728 3278 2906 2969 
L 2906 3500 
L 3481 3500 
L 3481 434 
z
" transform="scale(0.015625)"/>
       <path id="DejaVuSans-6b" d="M 581 4863 
L 1159 4863 
L 1159 1991 
L 2875 3500 
L 3609 3500 
L 1753 1863 
L 3688 0 
L 2938 0 
L 1159 1709 
L 1159 0 
L 581 0 
L 581 4863 
z
" transform="scale(0.015625)"/>
       <path id="DejaVuSans-68" d="M 3513 2113 
L 3513 0 
L 2938 0 
L 2938 2094 
Q 2938 2591 2744 2837 
Q 2550 3084 2163 3084 
Q 1697 3084 1428 2787 
Q 1159 2491 1159 1978 
L 1159 0 
L 581 0 
L 581 4863 
L 1159 4863 
L 1159 2956 
Q 1366 3272 1645 3428 
Q 1925 3584 2291 3584 
Q 2894 3584 3203 3211 
Q 3513 2838 3513 2113 
z
" transform="scale(0.015625)"/>
      </defs>
      <use xlink:href="#DejaVuSans-6c"/>
      <use xlink:href="#DejaVuSans-6f" x="27.783203"/>
      <use xlink:href="#DejaVuSans-67" x="88.964844"/>
      <use xlink:href="#DejaVuSans-20" x="152.441406"/>
      <use xlink:href="#DejaVuSans-6c" x="184.228516"/>
      <use xlink:href="#DejaVuSans-69" x="212.011719"/>
      <use xlink:href="#DejaVuSans-6b" x="239.794922"/>
      <use xlink:href="#DejaVuSans-65" x="294.080078"/>
      <use xlink:href="#DejaVuSans-6c" x="355.603516"/>
      <use xlink:href="#DejaVuSans-69" x="383.386719"/>
      <use xlink:href="#DejaVuSans-68" x="411.169922"/>
      <use xlink:href="#DejaVuSans-6f" x="474.548828"/>
      <use xlink:href="#DejaVuSans-6f" x="535.730469"/>
      <use xlink:href="#DejaVuSans-64" x="596.912109"/>
     </g>
    </g>
    <g id="text_24">
     <!-- $\times\mathdefault{10^{3}}\mathdefault{}$ -->
     <g transform="translate(208.036 22.92) scale(0.1 -0.1)">
      <defs>
       <path id="DejaVuSans-d7" d="M 4488 3438 
L 3059 2003 
L 4488 575 
L 4116 197 
L 2681 1631 
L 1247 197 
L 878 575 
L 2303 2003 
L 878 3438 
L 1247 3816 
L 2681 2381 
L 4116 3816 
L 4488 3438 
z
" transform="scale(0.015625)"/>
      </defs>
      <use xlink:href="#DejaVuSans-d7" transform="translate(0 0.765625)"/>
      <use xlink:href="#DejaVuSans-31" transform="translate(83.789062 0.765625)"/>
      <use xlink:href="#DejaVuSans-30" transform="translate(147.412109 0.765625)"/>
      <use xlink:href="#DejaVuSans-33" transform="translate(211.992188 39.046875) scale(0.7)"/>
     </g>
    </g>
   </g>
   <g id="LineCollection_1"/>
   <g id="patch_8">
    <path d="M 225.72 192.24 
L 229.878 192.24 
L 234.036 192.24 
L 234.036 25.92 
L 229.878 25.92 
L 225.72 25.92 
L 225.72 192.24 
z
" style="fill: none; stroke: #000000; stroke-width: 0.8; stroke-linejoin: miter; stroke-linecap: square"/>
   </g>
  </g>
 </g>
 <defs>
  <clipPath id="p003ed4209d">
   <rect x="36" y="25.92" width="178.56" height="166.32"/>
  </clipPath>
  <clipPath id="p715f7348f3">
   <rect x="225.72" y="25.92" width="8.316" height="166.32"/>
  </clipPath>
 </defs>
</svg>
