<?xml version="1.0" encoding="utf-8" standalone="no"?>
<!DOCTYPE svg PUBLIC "-//W3C//DTD SVG 1.1//EN"
  "http://www.w3.org/Graphics/SVG/1.1/DTD/svg11.dtd">
<svg xmlns:xlink="http://www.w3.org/1999/xlink" width="288pt" height="216pt" viewBox="0 0 288 216" xmlns="http://www.w3.org/2000/svg" version="1.1">
 <metadata>
  <rdf:RDF xmlns:dc="http://purl.org/dc/elements/1.1/" xmlns:cc="http://creativecommons.org/ns#" xmlns:rdf="http://www.w3.org/1999/02/22-rdf-syntax-ns#">
   <cc:Work>
    <dc:type rdf:resource="http://purl.org/dc/dcmitype/StillImage"/>
    <dc:date>2023-07-18T20:47:19.237625</dc:date>
    <dc:format>image/svg+xml</dc:format>
    <dc:creator>
     <cc:Agent>
      <dc:title>Matplotlib v3.7.1, https://matplotlib.org/</dc:title>
     </cc:Agent>
    </dc:creator>
   </cc:Work>
  </rdf:RDF>
 </metadata>
 <defs>
  <style type="text/css">*{stroke-linejoin: round; stroke-linecap: butt}</style>
 </defs>
 <g id="figure_1">
  <g id="patch_1">
   <path d="M 0 216 
L 288 216 
L 288 0 
L 0 0 
z
" style="fill: #ffffff"/>
  </g>
  <g id="axes_1">
   <g id="patch_2">
    <path d="M 36 192.24 
L 214.56 192.24 
L 214.56 25.92 
L 36 25.92 
z
" style="fill: #ffffff"/>
   </g>
   <g id="PathCollection_1">
    <path d="M 36 186.696 
L 36 181.152 
L 36 175.608 
L 36 170.064 
L 36 164.52 
L 36 158.976 
L 36 153.432 
L 36 147.888 
L 36 142.344 
L 36 136.8 
L 36 131.256 
L 36 125.712 
L 36 120.168 
L 36 114.624 
L 36 109.08 
L 36 103.536 
L 36 97.992 
L 36 92.448 
L 36 86.904 
L 36 81.36 
L 36 75.816 
L 36 70.272 
L 36 64.728 
L 36 59.184 
L 36 53.64 
L 36 48.096 
L 36 42.552 
L 36 37.008 
L 36 31.464 
L 36 25.92 
L 41.952 25.92 
L 47.904 25.92 
L 50.558257 25.92 
L 50.076694 31.464 
L 49.763652 37.008 
L 49.547128 42.552 
L 49.391635 48.096 
L 49.27782 53.64 
L 49.194416 59.184 
L 49.134648 64.728 
L 49.094484 70.272 
L 49.071772 75.816 
L 49.065854 81.36 
L 49.077506 86.904 
L 49.109209 92.448 
L 49.165877 97.992 
L 49.25648 103.536 
L 49.397626 109.08 
L 49.622367 114.624 
L 50.005415 120.168 
L 50.756327 125.712 
L 52.767327 131.256 
L 53.856 132.520605 
L 54.56459 136.8 
L 54.898613 142.344 
L 55.125109 147.888 
L 55.531 153.432 
L 56.435337 158.976 
L 59.808 164.376777 
L 59.846659 164.52 
L 60.991368 170.064 
L 61.426256 175.608 
L 62.413429 181.152 
L 65.76 186.365109 
L 65.873971 186.696 
L 67.25633 192.24 
L 65.76 192.24 
L 59.808 192.24 
L 53.856 192.24 
L 47.904 192.24 
L 41.952 192.24 
L 36 192.24 
z
" clip-path="url(#p2e9c76a8ad)" style="fill: #46085c"/>
    <path d="M 81.692817 31.464 
L 79.857561 25.92 
L 83.616 25.92 
L 89.568 25.92 
L 95.52 25.92 
L 101.472 25.92 
L 107.424 25.92 
L 113.376 25.92 
L 119.328 25.92 
L 125.28 25.92 
L 131.232 25.92 
L 137.184 25.92 
L 143.136 25.92 
L 149.088 25.92 
L 155.04 25.92 
L 160.992 25.92 
L 166.944 25.92 
L 172.896 25.92 
L 178.848 25.92 
L 184.8 25.92 
L 190.752 25.92 
L 196.704 25.92 
L 202.656 25.92 
L 208.608 25.92 
L 214.56 25.92 
L 214.56 31.464 
L 214.56 37.008 
L 214.56 42.552 
L 214.56 48.096 
L 214.56 53.64 
L 214.56 59.184 
L 214.56 64.728 
L 214.56 70.272 
L 214.56 75.816 
L 214.56 81.36 
L 214.56 86.904 
L 214.56 92.448 
L 214.56 97.992 
L 214.56 103.536 
L 214.56 109.08 
L 214.56 114.624 
L 214.56 120.168 
L 214.56 125.712 
L 214.56 131.256 
L 214.56 136.8 
L 214.56 142.344 
L 214.56 147.888 
L 214.56 153.432 
L 214.56 157.268188 
L 208.608 155.187998 
L 204.712811 153.432 
L 202.656 152.14148 
L 196.704 149.84963 
L 192.752208 147.888 
L 190.752 146.500586 
L 184.8 143.903603 
L 181.986021 142.344 
L 178.848 140.286266 
L 172.896 137.193687 
L 172.266867 136.8 
L 166.944 133.551031 
L 163.500185 131.256 
L 160.992 129.225867 
L 155.688213 125.712 
L 155.04 125.108221 
L 149.088 120.832627 
L 148.278656 120.168 
L 143.136 115.938721 
L 141.652234 114.624 
L 137.184 110.629618 
L 135.567056 109.08 
L 131.232 104.857971 
L 129.9585 103.536 
L 125.28 98.564374 
L 124.771118 97.992 
L 120.47723 92.448 
L 119.328 91.377548 
L 116.081447 86.904 
L 113.376 84.204783 
L 111.257326 81.36 
L 107.424 75.955771 
L 107.327146 75.816 
L 104.36548 70.272 
L 101.472 66.953376 
L 100.062183 64.728 
L 97.675641 59.184 
L 95.52 57.09956 
L 93.494363 53.64 
L 91.362816 48.096 
L 89.568 46.41397 
L 87.434272 42.552 
L 85.533935 37.008 
L 83.616 35.013899 
z
" clip-path="url(#p2e9c76a8ad)" style="fill: #46085c"/>
   </g>
   <g id="PathCollection_2">
    <path d="M 52.767327 131.256 
L 50.756327 125.712 
L 50.005415 120.168 
L 49.622367 114.624 
L 49.397626 109.08 
L 49.25648 103.536 
L 49.165877 97.992 
L 49.109209 92.448 
L 49.077506 86.904 
L 49.065854 81.36 
L 49.071772 75.816 
L 49.094484 70.272 
L 49.134648 64.728 
L 49.194416 59.184 
L 49.27782 53.64 
L 49.391635 48.096 
L 49.547128 42.552 
L 49.763652 37.008 
L 50.076694 31.464 
L 50.558257 25.92 
L 53.72889 25.92 
L 52.672077 31.464 
L 51.985093 37.008 
L 51.509921 42.552 
L 51.168684 48.096 
L 50.918911 53.64 
L 50.735879 59.184 
L 50.604714 64.728 
L 50.516572 70.272 
L 50.466731 75.816 
L 50.453744 81.36 
L 50.479315 86.904 
L 50.548886 92.448 
L 50.673249 97.992 
L 50.87208 103.536 
L 51.181833 109.08 
L 51.675036 114.624 
L 52.515652 120.168 
L 53.856 124.910289 
L 53.964003 125.712 
L 54.794716 131.256 
L 55.681985 136.8 
L 56.144063 142.344 
L 56.641118 147.888 
L 57.531866 153.432 
L 59.516475 158.976 
L 59.808 159.442831 
L 61.178445 164.52 
L 62.404956 170.064 
L 63.359338 175.608 
L 65.525736 181.152 
L 65.76 181.516924 
L 67.543864 186.696 
L 69.043766 192.24 
L 67.25633 192.24 
L 65.873971 186.696 
L 65.76 186.365109 
L 62.413429 181.152 
L 61.426256 175.608 
L 60.991368 170.064 
L 59.846659 164.52 
L 59.808 164.376777 
L 56.435337 158.976 
L 55.531 153.432 
L 55.125109 147.888 
L 54.898613 142.344 
L 54.56459 136.8 
L 53.856 132.520605 
z
" clip-path="url(#p2e9c76a8ad)" style="fill: #482173"/>
    <path d="M 75.938168 25.92 
L 77.664 25.92 
L 79.857561 25.92 
L 81.692817 31.464 
L 83.616 35.013899 
L 85.533935 37.008 
L 87.434272 42.552 
L 89.568 46.41397 
L 91.362816 48.096 
L 93.494363 53.64 
L 95.52 57.09956 
L 97.675641 59.184 
L 100.062183 64.728 
L 101.472 66.953376 
L 104.36548 70.272 
L 107.327146 75.816 
L 107.424 75.955771 
L 111.257326 81.36 
L 113.376 84.204783 
L 116.081447 86.904 
L 119.328 91.377548 
L 120.47723 92.448 
L 124.771118 97.992 
L 125.28 98.564374 
L 129.9585 103.536 
L 131.232 104.857971 
L 135.567056 109.08 
L 137.184 110.629618 
L 141.652234 114.624 
L 143.136 115.938721 
L 148.278656 120.168 
L 149.088 120.832627 
L 155.04 125.108221 
L 155.688213 125.712 
L 160.992 129.225867 
L 163.500185 131.256 
L 166.944 133.551031 
L 172.266867 136.8 
L 172.896 137.193687 
L 178.848 140.286266 
L 181.986021 142.344 
L 184.8 143.903603 
L 190.752 146.500586 
L 192.752208 147.888 
L 196.704 149.84963 
L 202.656 152.14148 
L 204.712811 153.432 
L 208.608 155.187998 
L 214.56 157.268188 
L 214.56 158.976 
L 214.56 161.461987 
L 208.944732 158.976 
L 208.608 158.838667 
L 202.656 156.254038 
L 196.768563 153.432 
L 196.704 153.402931 
L 190.752 150.548066 
L 185.721409 147.888 
L 184.8 147.423447 
L 178.848 144.20053 
L 175.709909 142.344 
L 172.896 140.736764 
L 166.944 137.022323 
L 166.611845 136.8 
L 160.992 133.127188 
L 158.367542 131.256 
L 155.04 128.917947 
L 150.841329 125.712 
L 149.088 124.381606 
L 143.956919 120.168 
L 143.136 119.492883 
L 137.641082 114.624 
L 137.184 114.215391 
L 131.825492 109.08 
L 131.232 108.501982 
L 126.448098 103.536 
L 125.28 102.294716 
L 121.454576 97.992 
L 119.328 95.524892 
L 116.800463 92.448 
L 113.376 88.113684 
L 112.454929 86.904 
L 108.375688 81.36 
L 107.424 80.018308 
L 104.512006 75.816 
L 101.472 71.167515 
L 100.888448 70.272 
L 97.407509 64.728 
L 95.52 61.537946 
L 94.097032 59.184 
L 90.926782 53.64 
L 89.568 51.127611 
L 87.830796 48.096 
L 84.863011 42.552 
L 83.616 40.078412 
L 81.878902 37.008 
L 78.978478 31.464 
L 77.664 28.767569 
z
" clip-path="url(#p2e9c76a8ad)" style="fill: #482173"/>
   </g>
   <g id="PathCollection_3">
    <path d="M 52.515652 120.168 
L 51.675036 114.624 
L 51.181833 109.08 
L 50.87208 103.536 
L 50.673249 97.992 
L 50.548886 92.448 
L 50.479315 86.904 
L 50.453744 81.36 
L 50.466731 75.816 
L 50.516572 70.272 
L 50.604714 64.728 
L 50.735879 59.184 
L 50.918911 53.64 
L 51.168684 48.096 
L 51.509921 42.552 
L 51.985093 37.008 
L 52.672077 31.464 
L 53.72889 25.92 
L 53.856 25.92 
L 56.86492 25.92 
L 55.434286 31.464 
L 54.281821 37.008 
L 53.856 39.485741 
L 53.472714 42.552 
L 52.945734 48.096 
L 52.560003 53.64 
L 52.277341 59.184 
L 52.074781 64.728 
L 51.938661 70.272 
L 51.861689 75.816 
L 51.841633 81.36 
L 51.881123 86.904 
L 51.988564 92.448 
L 52.18062 97.992 
L 52.48768 103.536 
L 52.966039 109.08 
L 53.727706 114.624 
L 53.856 115.27958 
L 54.434544 120.168 
L 55.160475 125.712 
L 55.949912 131.256 
L 56.799379 136.8 
L 57.389512 142.344 
L 58.157127 147.888 
L 59.532732 153.432 
L 59.808 154.163297 
L 61.052626 158.976 
L 62.510232 164.52 
L 63.818544 170.064 
L 65.292421 175.608 
L 65.76 176.75748 
L 67.322639 181.152 
L 69.213756 186.696 
L 70.831202 192.24 
L 69.043766 192.24 
L 67.543864 186.696 
L 65.76 181.516924 
L 65.525736 181.152 
L 63.359338 175.608 
L 62.404956 170.064 
L 61.178445 164.52 
L 59.808 159.442831 
L 59.516475 158.976 
L 57.531866 153.432 
L 56.641118 147.888 
L 56.144063 142.344 
L 55.681985 136.8 
L 54.794716 131.256 
L 53.964003 125.712 
L 53.856 124.910289 
z
" clip-path="url(#p2e9c76a8ad)" style="fill: #453781"/>
    <path d="M 75.778719 31.464 
L 72.563552 25.92 
L 75.938168 25.92 
L 77.664 28.767569 
L 78.978478 31.464 
L 81.878902 37.008 
L 83.616 40.078412 
L 84.863011 42.552 
L 87.830796 48.096 
L 89.568 51.127611 
L 90.926782 53.64 
L 94.097032 59.184 
L 95.52 61.537946 
L 97.407509 64.728 
L 100.888448 70.272 
L 101.472 71.167515 
L 104.512006 75.816 
L 107.424 80.018308 
L 108.375688 81.36 
L 112.454929 86.904 
L 113.376 88.113684 
L 116.800463 92.448 
L 119.328 95.524892 
L 121.454576 97.992 
L 125.28 102.294716 
L 126.448098 103.536 
L 131.232 108.501982 
L 131.825492 109.08 
L 137.184 114.215391 
L 137.641082 114.624 
L 143.136 119.492883 
L 143.956919 120.168 
L 149.088 124.381606 
L 150.841329 125.712 
L 155.04 128.917947 
L 158.367542 131.256 
L 160.992 133.127188 
L 166.611845 136.8 
L 166.944 137.022323 
L 172.896 140.736764 
L 175.709909 142.344 
L 178.848 144.20053 
L 184.8 147.423447 
L 185.721409 147.888 
L 190.752 150.548066 
L 196.704 153.402931 
L 196.768563 153.432 
L 202.656 156.254038 
L 208.608 158.838667 
L 208.944732 158.976 
L 214.56 161.461987 
L 214.56 164.52 
L 214.56 165.571173 
L 212.349135 164.52 
L 208.608 162.931812 
L 202.656 160.175438 
L 200.266821 158.976 
L 196.704 157.331668 
L 190.752 154.329237 
L 189.106243 153.432 
L 184.8 151.228757 
L 178.880752 147.888 
L 178.848 147.870374 
L 172.896 144.443164 
L 169.57835 142.344 
L 166.944 140.733802 
L 161.06682 136.8 
L 160.992 136.751102 
L 155.04 132.575098 
L 153.313315 131.256 
L 149.088 128.069363 
L 146.206348 125.712 
L 143.136 123.210381 
L 139.67692 120.168 
L 137.184 117.966028 
L 133.660097 114.624 
L 131.232 112.292764 
L 128.096005 109.08 
L 125.28 106.136004 
L 122.931896 103.536 
L 119.328 99.430412 
L 118.124805 97.992 
L 113.639801 92.448 
L 113.376 92.114109 
L 109.408949 86.904 
L 107.424 84.169925 
L 105.428297 81.36 
L 101.696866 75.816 
L 101.472 75.472157 
L 98.083376 70.272 
L 95.52 66.059985 
L 94.688462 64.728 
L 91.384851 59.184 
L 89.568 55.928178 
L 88.206688 53.64 
L 85.11036 48.096 
L 83.616 45.234696 
L 82.027687 42.552 
L 78.993337 37.008 
L 77.664 34.392265 
z
" clip-path="url(#p2e9c76a8ad)" style="fill: #453781"/>
   </g>
   <g id="PathCollection_4">
    <path d="M 53.727706 114.624 
L 52.966039 109.08 
L 52.48768 103.536 
L 52.18062 97.992 
L 51.988564 92.448 
L 51.881123 86.904 
L 51.841633 81.36 
L 51.861689 75.816 
L 51.938661 70.272 
L 52.074781 64.728 
L 52.277341 59.184 
L 52.560003 53.64 
L 52.945734 48.096 
L 53.472714 42.552 
L 53.856 39.485741 
L 54.281821 37.008 
L 55.434286 31.464 
L 56.86492 25.92 
L 59.808 25.92 
L 61.257944 25.92 
L 59.808 26.516148 
L 58.336426 31.464 
L 56.98038 37.008 
L 55.882985 42.552 
L 55.006707 48.096 
L 54.322058 53.64 
L 53.856 58.613296 
L 53.818803 59.184 
L 53.544847 64.728 
L 53.360749 70.272 
L 53.256648 75.816 
L 53.229522 81.36 
L 53.282931 86.904 
L 53.428242 92.448 
L 53.687991 97.992 
L 53.856 100.328058 
L 54.070343 103.536 
L 54.529137 109.08 
L 55.065517 114.624 
L 55.67593 120.168 
L 56.356947 125.712 
L 57.105107 131.256 
L 57.916774 136.8 
L 58.634962 142.344 
L 59.673137 147.888 
L 59.808 148.406392 
L 61.036991 153.432 
L 62.427321 158.976 
L 63.842018 164.52 
L 65.232132 170.064 
L 65.76 171.893597 
L 67.071617 175.608 
L 69.012473 181.152 
L 70.883649 186.696 
L 71.712 189.437117 
L 72.85961 192.24 
L 71.712 192.24 
L 70.831202 192.24 
L 69.213756 186.696 
L 67.322639 181.152 
L 65.76 176.75748 
L 65.292421 175.608 
L 63.818544 170.064 
L 62.510232 164.52 
L 61.052626 158.976 
L 59.808 154.163297 
L 59.532732 153.432 
L 58.157127 147.888 
L 57.389512 142.344 
L 56.799379 136.8 
L 55.949912 131.256 
L 55.160475 125.712 
L 54.434544 120.168 
L 53.856 115.27958 
z
" clip-path="url(#p2e9c76a8ad)" style="fill: #3e4a89"/>
    <path d="M 66.964533 25.92 
L 71.712 25.92 
L 72.563552 25.92 
L 75.778719 31.464 
L 77.664 34.392265 
L 78.993337 37.008 
L 82.027687 42.552 
L 83.616 45.234696 
L 85.11036 48.096 
L 88.206688 53.64 
L 89.568 55.928178 
L 91.384851 59.184 
L 94.688462 64.728 
L 95.52 66.059985 
L 98.083376 70.272 
L 101.472 75.472157 
L 101.696866 75.816 
L 105.428297 81.36 
L 107.424 84.169925 
L 109.408949 86.904 
L 113.376 92.114109 
L 113.639801 92.448 
L 118.124805 97.992 
L 119.328 99.430412 
L 122.931896 103.536 
L 125.28 106.136004 
L 128.096005 109.08 
L 131.232 112.292764 
L 133.660097 114.624 
L 137.184 117.966028 
L 139.67692 120.168 
L 143.136 123.210381 
L 146.206348 125.712 
L 149.088 128.069363 
L 153.313315 131.256 
L 155.04 132.575098 
L 160.992 136.751102 
L 161.06682 136.8 
L 166.944 140.733802 
L 169.57835 142.344 
L 172.896 144.443164 
L 178.848 147.870374 
L 178.880752 147.888 
L 184.8 151.228757 
L 189.106243 153.432 
L 190.752 154.329237 
L 196.704 157.331668 
L 200.266821 158.976 
L 202.656 160.175438 
L 208.608 162.931812 
L 212.349135 164.52 
L 214.56 165.571173 
L 214.56 170.064 
L 214.56 170.200488 
L 214.306618 170.064 
L 208.608 167.465343 
L 202.805598 164.52 
L 202.656 164.452337 
L 196.704 161.574327 
L 191.859963 158.976 
L 190.752 158.430271 
L 184.8 155.268194 
L 181.652357 153.432 
L 178.848 151.897406 
L 172.896 148.326 
L 172.219104 147.888 
L 166.944 144.632148 
L 163.569375 142.344 
L 160.992 140.654502 
L 155.617703 136.8 
L 155.04 136.394932 
L 149.088 131.883775 
L 148.322112 131.256 
L 143.136 127.050429 
L 141.61024 125.712 
L 137.184 121.834096 
L 135.415812 120.168 
L 131.232 116.195196 
L 129.683202 114.624 
L 125.28 110.082665 
L 124.362746 109.08 
L 119.412803 103.536 
L 119.328 103.439392 
L 114.771394 97.992 
L 113.376 96.260917 
L 110.412125 92.448 
L 107.424 88.421783 
L 106.320249 86.904 
L 102.44848 81.36 
L 101.472 79.904055 
L 98.732805 75.816 
L 95.52 70.681905 
L 95.255651 70.272 
L 91.811035 64.728 
L 89.568 60.833318 
L 88.548057 59.184 
L 85.315157 53.64 
L 83.616 50.502409 
L 82.121268 48.096 
L 78.943704 42.552 
L 77.664 40.141256 
L 75.509609 37.008 
L 72.123146 31.464 
L 71.712 30.739064 
z
" clip-path="url(#p2e9c76a8ad)" style="fill: #3e4a89"/>
   </g>
   <g id="PathCollection_5">
    <path d="M 53.687991 97.992 
L 53.428242 92.448 
L 53.282931 86.904 
L 53.229522 81.36 
L 53.256648 75.816 
L 53.360749 70.272 
L 53.544847 64.728 
L 53.818803 59.184 
L 53.856 58.613296 
L 54.322058 53.64 
L 55.006707 48.096 
L 55.882985 42.552 
L 56.98038 37.008 
L 58.336426 31.464 
L 59.808 26.516148 
L 61.257944 25.92 
L 65.76 25.92 
L 66.964533 25.92 
L 71.712 30.739064 
L 72.123146 31.464 
L 75.509609 37.008 
L 77.664 40.141256 
L 78.943704 42.552 
L 82.121268 48.096 
L 83.616 50.502409 
L 85.315157 53.64 
L 88.548057 59.184 
L 89.568 60.833318 
L 91.811035 64.728 
L 95.255651 70.272 
L 95.52 70.681905 
L 98.732805 75.816 
L 101.472 79.904055 
L 102.44848 81.36 
L 106.320249 86.904 
L 107.424 88.421783 
L 110.412125 92.448 
L 113.376 96.260917 
L 114.771394 97.992 
L 119.328 103.439392 
L 119.412803 103.536 
L 124.362746 109.08 
L 125.28 110.082665 
L 129.683202 114.624 
L 131.232 116.195196 
L 135.415812 120.168 
L 137.184 121.834096 
L 141.61024 125.712 
L 143.136 127.050429 
L 148.322112 131.256 
L 149.088 131.883775 
L 155.04 136.394932 
L 155.617703 136.8 
L 160.992 140.654502 
L 163.569375 142.344 
L 166.944 144.632148 
L 172.219104 147.888 
L 172.896 148.326 
L 178.848 151.897406 
L 181.652357 153.432 
L 184.8 155.268194 
L 190.752 158.430271 
L 191.859963 158.976 
L 196.704 161.574327 
L 202.656 164.452337 
L 202.805598 164.52 
L 208.608 167.465343 
L 214.306618 170.064 
L 214.56 170.200488 
L 214.56 175.608 
L 214.56 175.969771 
L 214.028101 175.608 
L 208.608 172.797399 
L 203.885482 170.064 
L 202.656 169.464196 
L 196.704 166.317839 
L 193.621614 164.52 
L 190.752 163.035799 
L 184.8 159.650371 
L 183.707224 158.976 
L 178.848 156.229595 
L 174.377043 153.432 
L 172.896 152.563067 
L 166.944 148.759081 
L 165.691061 147.888 
L 160.992 144.770755 
L 157.658961 142.344 
L 155.04 140.498718 
L 150.235444 136.8 
L 149.088 135.935057 
L 143.379528 131.256 
L 143.136 131.058516 
L 137.184 125.84624 
L 137.041342 125.712 
L 131.232 120.233365 
L 131.167208 120.168 
L 125.706634 114.624 
L 125.28 114.183982 
L 120.610793 109.08 
L 119.328 107.641624 
L 115.839024 103.536 
L 113.376 100.53523 
L 111.361454 97.992 
L 107.424 92.794004 
L 107.166701 92.448 
L 103.151629 86.904 
L 101.472 84.459876 
L 99.337269 81.36 
L 95.755816 75.816 
L 95.52 75.439163 
L 92.18768 70.272 
L 89.568 65.865706 
L 88.835664 64.728 
L 85.458392 59.184 
L 83.616 55.906503 
L 82.134476 53.64 
L 78.804735 48.096 
L 77.664 46.043388 
L 75.082818 42.552 
L 71.712 37.344265 
L 71.259315 37.008 
L 65.76 32.209869 
L 59.808 36.517676 
L 59.678938 37.008 
L 58.401841 42.552 
L 57.365847 48.096 
L 56.538386 53.64 
L 55.893566 59.184 
L 55.410609 64.728 
L 55.072704 70.272 
L 54.866148 75.816 
L 54.7797 81.36 
L 54.804074 86.904 
L 54.93154 92.448 
L 55.155606 97.992 
L 55.470749 103.536 
L 55.872185 109.08 
L 56.355669 114.624 
L 56.917315 120.168 
L 57.553418 125.712 
L 58.260303 131.256 
L 59.034169 136.8 
L 59.808 141.914606 
L 59.89804 142.344 
L 61.15899 147.888 
L 62.462031 153.432 
L 63.802015 158.976 
L 65.173804 164.52 
L 65.76 166.807577 
L 66.879955 170.064 
L 68.801714 175.608 
L 70.702306 181.152 
L 71.712 184.159462 
L 72.855566 186.696 
L 75.122123 192.24 
L 72.85961 192.24 
L 71.712 189.437117 
L 70.883649 186.696 
L 69.012473 181.152 
L 67.071617 175.608 
L 65.76 171.893597 
L 65.232132 170.064 
L 63.842018 164.52 
L 62.427321 158.976 
L 61.036991 153.432 
L 59.808 148.406392 
L 59.673137 147.888 
L 58.634962 142.344 
L 57.916774 136.8 
L 57.105107 131.256 
L 56.356947 125.712 
L 55.67593 120.168 
L 55.065517 114.624 
L 54.529137 109.08 
L 54.070343 103.536 
L 53.856 100.328058 
z
" clip-path="url(#p2e9c76a8ad)" style="fill: #365d8d"/>
   </g>
   <g id="PathCollection_6">
    <path d="M 59.034169 136.8 
L 58.260303 131.256 
L 57.553418 125.712 
L 56.917315 120.168 
L 56.355669 114.624 
L 55.872185 109.08 
L 55.470749 103.536 
L 55.155606 97.992 
L 54.93154 92.448 
L 54.804074 86.904 
L 54.7797 81.36 
L 54.866148 75.816 
L 55.072704 70.272 
L 55.410609 64.728 
L 55.893566 59.184 
L 56.538386 53.64 
L 57.365847 48.096 
L 58.401841 42.552 
L 59.678938 37.008 
L 59.808 36.517676 
L 65.76 32.209869 
L 71.259315 37.008 
L 71.712 37.344265 
L 75.082818 42.552 
L 77.664 46.043388 
L 78.804735 48.096 
L 82.134476 53.64 
L 83.616 55.906503 
L 85.458392 59.184 
L 88.835664 64.728 
L 89.568 65.865706 
L 92.18768 70.272 
L 95.52 75.439163 
L 95.755816 75.816 
L 99.337269 81.36 
L 101.472 84.459876 
L 103.151629 86.904 
L 107.166701 92.448 
L 107.424 92.794004 
L 111.361454 97.992 
L 113.376 100.53523 
L 115.839024 103.536 
L 119.328 107.641624 
L 120.610793 109.08 
L 125.28 114.183982 
L 125.706634 114.624 
L 131.167208 120.168 
L 131.232 120.233365 
L 137.041342 125.712 
L 137.184 125.84624 
L 143.136 131.058516 
L 143.379528 131.256 
L 149.088 135.935057 
L 150.235444 136.8 
L 155.04 140.498718 
L 157.658961 142.344 
L 160.992 144.770755 
L 165.691061 147.888 
L 166.944 148.759081 
L 172.896 152.563067 
L 174.377043 153.432 
L 178.848 156.229595 
L 183.707224 158.976 
L 184.8 159.650371 
L 190.752 163.035799 
L 193.621614 164.52 
L 196.704 166.317839 
L 202.656 169.464196 
L 203.885482 170.064 
L 208.608 172.797399 
L 214.028101 175.608 
L 214.56 175.969771 
L 214.56 181.152 
L 214.56 185.964947 
L 210.315842 181.152 
L 208.608 180.01954 
L 202.656 175.609335 
L 202.654356 175.608 
L 196.704 172.008705 
L 193.826278 170.064 
L 190.752 168.331498 
L 184.8 164.597419 
L 184.685969 164.52 
L 178.848 161.026606 
L 175.76372 158.976 
L 172.896 157.232425 
L 167.248612 153.432 
L 166.944 153.239877 
L 160.992 149.180136 
L 159.266422 147.888 
L 155.04 144.866665 
L 151.819999 142.344 
L 149.088 140.270117 
L 144.895259 136.8 
L 143.136 135.371458 
L 138.461399 131.256 
L 137.184 130.140383 
L 132.477931 125.712 
L 131.232 124.536996 
L 126.901304 120.168 
L 125.28 118.512515 
L 121.689447 114.624 
L 119.328 112.010003 
L 116.805805 109.08 
L 113.376 104.966 
L 112.22439 103.536 
L 107.911229 97.992 
L 107.424 97.348789 
L 103.779625 92.448 
L 101.472 89.167011 
L 99.871343 86.904 
L 96.162012 81.36 
L 95.52 80.361803 
L 92.490648 75.816 
L 89.568 71.055092 
L 89.042422 70.272 
L 85.513988 64.728 
L 83.616 61.479252 
L 82.031123 59.184 
L 78.541749 53.64 
L 77.664 52.135633 
L 74.424739 48.096 
L 71.712 44.217732 
L 68.903955 42.552 
L 65.76 40.349023 
L 63.532459 42.552 
L 59.808 47.686968 
L 59.724987 48.096 
L 58.754714 53.64 
L 57.981516 59.184 
L 57.382611 64.728 
L 56.939547 70.272 
L 56.637268 75.816 
L 56.463408 81.36 
L 56.407736 86.904 
L 56.461732 92.448 
L 56.618235 97.992 
L 56.871155 103.536 
L 57.215233 109.08 
L 57.645822 114.624 
L 58.1587 120.168 
L 58.74989 125.712 
L 59.415499 131.256 
L 59.808 134.166344 
L 60.306959 136.8 
L 61.446677 142.344 
L 62.641898 147.888 
L 63.887071 153.432 
L 65.176709 158.976 
L 65.76 161.366241 
L 66.801636 164.52 
L 68.667377 170.064 
L 70.531811 175.608 
L 71.712 179.094729 
L 72.645948 181.152 
L 75.124775 186.696 
L 77.384635 192.24 
L 75.122123 192.24 
L 72.855566 186.696 
L 71.712 184.159462 
L 70.702306 181.152 
L 68.801714 175.608 
L 66.879955 170.064 
L 65.76 166.807577 
L 65.173804 164.52 
L 63.802015 158.976 
L 62.462031 153.432 
L 61.15899 147.888 
L 59.89804 142.344 
L 59.808 141.914606 
z
" clip-path="url(#p2e9c76a8ad)" style="fill: #2e6f8e"/>
   </g>
   <g id="PathCollection_7">
    <path d="M 59.415499 131.256 
L 58.74989 125.712 
L 58.1587 120.168 
L 57.645822 114.624 
L 57.215233 109.08 
L 56.871155 103.536 
L 56.618235 97.992 
L 56.461732 92.448 
L 56.407736 86.904 
L 56.463408 81.36 
L 56.637268 75.816 
L 56.939547 70.272 
L 57.382611 64.728 
L 57.981516 59.184 
L 58.754714 53.64 
L 59.724987 48.096 
L 59.808 47.686968 
L 63.532459 42.552 
L 65.76 40.349023 
L 68.903955 42.552 
L 71.712 44.217732 
L 74.424739 48.096 
L 77.664 52.135633 
L 78.541749 53.64 
L 82.031123 59.184 
L 83.616 61.479252 
L 85.513988 64.728 
L 89.042422 70.272 
L 89.568 71.055092 
L 92.490648 75.816 
L 95.52 80.361803 
L 96.162012 81.36 
L 99.871343 86.904 
L 101.472 89.167011 
L 103.779625 92.448 
L 107.424 97.348789 
L 107.911229 97.992 
L 112.22439 103.536 
L 113.376 104.966 
L 116.805805 109.08 
L 119.328 112.010003 
L 121.689447 114.624 
L 125.28 118.512515 
L 126.901304 120.168 
L 131.232 124.536996 
L 132.477931 125.712 
L 137.184 130.140383 
L 138.461399 131.256 
L 143.136 135.371458 
L 144.895259 136.8 
L 149.088 140.270117 
L 151.819999 142.344 
L 155.04 144.866665 
L 159.266422 147.888 
L 160.992 149.180136 
L 166.944 153.239877 
L 167.248612 153.432 
L 172.896 157.232425 
L 175.76372 158.976 
L 178.848 161.026606 
L 184.685969 164.52 
L 184.8 164.597419 
L 190.752 168.331498 
L 193.826278 170.064 
L 196.704 172.008705 
L 202.654356 175.608 
L 202.656 175.609335 
L 208.608 180.01954 
L 210.315842 181.152 
L 214.56 185.964947 
L 214.56 186.696 
L 214.56 192.24 
L 208.608 192.24 
L 202.656 192.24 
L 200.895261 192.24 
L 201.606751 186.696 
L 197.994473 181.152 
L 196.704 180.117259 
L 191.674648 175.608 
L 190.752 175.001023 
L 184.8 170.669759 
L 184.046796 170.064 
L 178.848 166.627173 
L 175.98857 164.52 
L 172.896 162.518875 
L 167.966706 158.976 
L 166.944 158.304928 
L 160.992 154.025279 
L 160.236582 153.432 
L 155.04 149.609936 
L 152.910524 147.888 
L 149.088 144.934996 
L 146.020605 142.344 
L 143.136 139.979161 
L 139.56799 136.8 
L 137.184 134.710686 
L 133.532588 131.256 
L 131.232 129.089362 
L 127.884304 125.712 
L 125.28 123.067198 
L 122.590332 120.168 
L 119.328 116.589122 
L 117.620934 114.624 
L 113.376 109.59475 
L 112.955817 109.08 
L 108.522266 103.536 
L 107.424 102.112584 
L 104.295879 97.992 
L 101.472 94.063109 
L 100.299659 92.448 
L 96.465093 86.904 
L 95.52 85.473442 
L 92.686443 81.36 
L 89.568 76.441429 
L 89.12941 75.816 
L 85.445528 70.272 
L 83.616 67.263287 
L 81.757707 64.728 
L 78.105171 59.184 
L 77.664 58.466313 
L 73.417181 53.64 
L 71.712 51.409034 
L 65.76 49.035245 
L 62.860809 53.64 
L 60.436564 59.184 
L 59.808 61.138883 
L 59.354612 64.728 
L 58.80639 70.272 
L 58.408389 75.816 
L 58.147115 81.36 
L 58.011398 86.904 
L 57.991924 92.448 
L 58.080863 97.992 
L 58.271561 103.536 
L 58.558281 109.08 
L 58.935974 114.624 
L 59.400085 120.168 
L 59.808 124.268816 
L 60.016141 125.712 
L 60.934476 131.256 
L 61.929755 136.8 
L 62.995315 142.344 
L 64.124807 147.888 
L 65.312111 153.432 
L 65.76 155.389851 
L 66.882398 158.976 
L 68.662224 164.52 
L 70.4548 170.064 
L 71.712 173.882443 
L 72.477168 175.608 
L 74.966381 181.152 
L 77.393983 186.696 
L 77.664 187.358661 
L 80.380802 192.24 
L 77.664 192.24 
L 77.384635 192.24 
L 75.124775 186.696 
L 72.645948 181.152 
L 71.712 179.094729 
L 70.531811 175.608 
L 68.667377 170.064 
L 66.801636 164.52 
L 65.76 161.366241 
L 65.176709 158.976 
L 63.887071 153.432 
L 62.641898 147.888 
L 61.446677 142.344 
L 60.306959 136.8 
L 59.808 134.166344 
z
" clip-path="url(#p2e9c76a8ad)" style="fill: #277f8e"/>
   </g>
   <g id="PathCollection_8">
    <path d="M 59.400085 120.168 
L 58.935974 114.624 
L 58.558281 109.08 
L 58.271561 103.536 
L 58.080863 97.992 
L 57.991924 92.448 
L 58.011398 86.904 
L 58.147115 81.36 
L 58.408389 75.816 
L 58.80639 70.272 
L 59.354612 64.728 
L 59.808 61.138883 
L 60.436564 59.184 
L 62.860809 53.64 
L 65.76 49.035245 
L 71.712 51.409034 
L 73.417181 53.64 
L 77.664 58.466313 
L 78.105171 59.184 
L 81.757707 64.728 
L 83.616 67.263287 
L 85.445528 70.272 
L 89.12941 75.816 
L 89.568 76.441429 
L 92.686443 81.36 
L 95.52 85.473442 
L 96.465093 86.904 
L 100.299659 92.448 
L 101.472 94.063109 
L 104.295879 97.992 
L 107.424 102.112584 
L 108.522266 103.536 
L 112.955817 109.08 
L 113.376 109.59475 
L 117.620934 114.624 
L 119.328 116.589122 
L 122.590332 120.168 
L 125.28 123.067198 
L 127.884304 125.712 
L 131.232 129.089362 
L 133.532588 131.256 
L 137.184 134.710686 
L 139.56799 136.8 
L 143.136 139.979161 
L 146.020605 142.344 
L 149.088 144.934996 
L 152.910524 147.888 
L 155.04 149.609936 
L 160.236582 153.432 
L 160.992 154.025279 
L 166.944 158.304928 
L 167.966706 158.976 
L 172.896 162.518875 
L 175.98857 164.52 
L 178.848 166.627173 
L 184.046796 170.064 
L 184.8 170.669759 
L 190.752 175.001023 
L 191.674648 175.608 
L 196.704 180.117259 
L 197.994473 181.152 
L 201.606751 186.696 
L 200.895261 192.24 
L 196.704 192.24 
L 190.752 192.24 
L 186.402149 192.24 
L 188.331322 186.696 
L 186.020938 181.152 
L 184.8 179.92309 
L 180.965778 175.608 
L 178.848 173.929099 
L 174.484622 170.064 
L 172.896 168.918057 
L 167.424377 164.52 
L 166.944 164.182434 
L 160.992 159.588345 
L 160.271857 158.976 
L 155.04 154.931038 
L 153.282187 153.432 
L 149.088 150.083434 
L 146.580589 147.888 
L 143.136 145.003635 
L 140.221174 142.344 
L 137.184 139.648486 
L 134.217187 136.8 
L 131.232 133.971687 
L 128.560198 131.256 
L 125.28 127.92256 
L 123.232031 125.712 
L 119.328 121.445824 
L 118.213379 120.168 
L 113.486377 114.624 
L 113.376 114.493229 
L 108.957257 109.08 
L 107.424 107.123917 
L 104.649469 103.536 
L 101.472 99.201411 
L 100.572145 97.992 
L 96.621116 92.448 
L 95.52 90.824015 
L 92.727682 86.904 
L 89.568 82.079747 
L 89.039201 81.36 
L 85.20101 75.816 
L 83.616 73.316247 
L 81.23227 70.272 
L 77.664 65.118983 
L 77.225918 64.728 
L 71.858554 59.184 
L 71.712 59.011219 
L 65.76 58.586753 
L 65.455993 59.184 
L 63.200332 64.728 
L 61.623889 70.272 
L 60.546889 75.816 
L 59.851314 81.36 
L 59.808 81.921368 
L 59.61506 86.904 
L 59.522116 92.448 
L 59.543491 97.992 
L 59.671967 103.536 
L 59.808 106.767946 
L 59.957977 109.08 
L 60.463943 114.624 
L 61.087171 120.168 
L 61.816017 125.712 
L 62.640665 131.256 
L 63.552552 136.8 
L 64.543953 142.344 
L 65.607715 147.888 
L 65.76 148.61014 
L 67.169505 153.432 
L 68.832041 158.976 
L 70.522812 164.52 
L 71.712 168.306574 
L 72.461594 170.064 
L 74.884505 175.608 
L 77.286813 181.152 
L 77.664 182.015563 
L 80.42917 186.696 
L 83.480317 192.24 
L 80.380802 192.24 
L 77.664 187.358661 
L 77.393983 186.696 
L 74.966381 181.152 
L 72.477168 175.608 
L 71.712 173.882443 
L 70.4548 170.064 
L 68.662224 164.52 
L 66.882398 158.976 
L 65.76 155.389851 
L 65.312111 153.432 
L 64.124807 147.888 
L 62.995315 142.344 
L 61.929755 136.8 
L 60.934476 131.256 
L 60.016141 125.712 
L 59.808 124.268816 
z
" clip-path="url(#p2e9c76a8ad)" style="fill: #218f8d"/>
   </g>
   <g id="PathCollection_9">
    <path d="M 59.671967 103.536 
L 59.543491 97.992 
L 59.522116 92.448 
L 59.61506 86.904 
L 59.808 81.921368 
L 59.851314 81.36 
L 60.546889 75.816 
L 61.623889 70.272 
L 63.200332 64.728 
L 65.455993 59.184 
L 65.76 58.586753 
L 71.712 59.011219 
L 71.858554 59.184 
L 77.225918 64.728 
L 77.664 65.118983 
L 81.23227 70.272 
L 83.616 73.316247 
L 85.20101 75.816 
L 89.039201 81.36 
L 89.568 82.079747 
L 92.727682 86.904 
L 95.52 90.824015 
L 96.621116 92.448 
L 100.572145 97.992 
L 101.472 99.201411 
L 104.649469 103.536 
L 107.424 107.123917 
L 108.957257 109.08 
L 113.376 114.493229 
L 113.486377 114.624 
L 118.213379 120.168 
L 119.328 121.445824 
L 123.232031 125.712 
L 125.28 127.92256 
L 128.560198 131.256 
L 131.232 133.971687 
L 134.217187 136.8 
L 137.184 139.648486 
L 140.221174 142.344 
L 143.136 145.003635 
L 146.580589 147.888 
L 149.088 150.083434 
L 153.282187 153.432 
L 155.04 154.931038 
L 160.271857 158.976 
L 160.992 159.588345 
L 166.944 164.182434 
L 167.424377 164.52 
L 172.896 168.918057 
L 174.484622 170.064 
L 178.848 173.929099 
L 180.965778 175.608 
L 184.8 179.92309 
L 186.020938 181.152 
L 188.331322 186.696 
L 186.402149 192.24 
L 184.8 192.24 
L 178.848 192.24 
L 172.896 192.24 
L 171.936808 192.24 
L 172.896 190.741827 
L 175.209784 186.696 
L 174.22206 181.152 
L 172.896 179.366126 
L 170.396879 175.608 
L 166.944 172.188461 
L 165.021094 170.064 
L 160.992 166.531995 
L 158.927706 164.52 
L 155.04 161.245649 
L 152.604511 158.976 
L 149.088 156.003933 
L 146.321578 153.432 
L 143.136 150.659953 
L 140.220482 147.888 
L 137.184 145.123021 
L 134.368986 142.344 
L 131.232 139.32302 
L 128.793525 136.8 
L 125.28 133.197101 
L 123.498963 131.256 
L 119.328 126.684461 
L 118.481895 125.712 
L 113.72017 120.168 
L 113.376 119.763525 
L 109.140258 114.624 
L 107.424 112.461232 
L 104.768159 109.08 
L 101.472 104.659656 
L 100.6163 103.536 
L 96.568197 97.992 
L 95.52 96.484016 
L 92.545732 92.448 
L 89.568 88.048071 
L 88.684202 86.904 
L 84.704096 81.36 
L 83.616 79.718125 
L 80.323484 75.816 
L 77.664 72.236649 
L 75.056654 70.272 
L 71.712 67.318553 
L 65.76 69.621708 
L 65.541887 70.272 
L 64.069443 75.816 
L 63.046733 81.36 
L 62.377195 86.904 
L 61.992736 92.448 
L 61.844018 97.992 
L 61.894435 103.536 
L 62.116228 109.08 
L 62.487892 114.624 
L 62.992391 120.168 
L 63.615893 125.712 
L 64.346855 131.256 
L 65.175349 136.8 
L 65.76 140.273443 
L 66.259583 142.344 
L 67.716294 147.888 
L 69.225074 153.432 
L 70.781684 158.976 
L 71.712 162.132755 
L 72.679132 164.52 
L 74.988537 170.064 
L 77.291841 175.608 
L 77.664 176.471942 
L 80.390292 181.152 
L 83.567812 186.696 
L 83.616 186.783607 
L 87.761118 192.24 
L 83.616 192.24 
L 83.480317 192.24 
L 80.42917 186.696 
L 77.664 182.015563 
L 77.286813 181.152 
L 74.884505 175.608 
L 72.461594 170.064 
L 71.712 168.306574 
L 70.522812 164.52 
L 68.832041 158.976 
L 67.169505 153.432 
L 65.76 148.61014 
L 65.607715 147.888 
L 64.543953 142.344 
L 63.552552 136.8 
L 62.640665 131.256 
L 61.816017 125.712 
L 61.087171 120.168 
L 60.463943 114.624 
L 59.957977 109.08 
L 59.808 106.767946 
z
" clip-path="url(#p2e9c76a8ad)" style="fill: #1f9f88"/>
   </g>
   <g id="PathCollection_10">
    <path d="M 65.175349 136.8 
L 64.346855 131.256 
L 63.615893 125.712 
L 62.992391 120.168 
L 62.487892 114.624 
L 62.116228 109.08 
L 61.894435 103.536 
L 61.844018 97.992 
L 61.992736 92.448 
L 62.377195 86.904 
L 63.046733 81.36 
L 64.069443 75.816 
L 65.541887 70.272 
L 65.76 69.621708 
L 71.712 67.318553 
L 75.056654 70.272 
L 77.664 72.236649 
L 80.323484 75.816 
L 83.616 79.718125 
L 84.704096 81.36 
L 88.684202 86.904 
L 89.568 88.048071 
L 92.545732 92.448 
L 95.52 96.484016 
L 96.568197 97.992 
L 100.6163 103.536 
L 101.472 104.659656 
L 104.768159 109.08 
L 107.424 112.461232 
L 109.140258 114.624 
L 113.376 119.763525 
L 113.72017 120.168 
L 118.481895 125.712 
L 119.328 126.684461 
L 123.498963 131.256 
L 125.28 133.197101 
L 128.793525 136.8 
L 131.232 139.32302 
L 134.368986 142.344 
L 137.184 145.123021 
L 140.220482 147.888 
L 143.136 150.659953 
L 146.321578 153.432 
L 149.088 156.003933 
L 152.604511 158.976 
L 155.04 161.245649 
L 158.927706 164.52 
L 160.992 166.531995 
L 165.021094 170.064 
L 166.944 172.188461 
L 170.396879 175.608 
L 172.896 179.366126 
L 174.22206 181.152 
L 175.209784 186.696 
L 172.896 190.741827 
L 171.936808 192.24 
L 166.944 192.24 
L 160.992 192.24 
L 156.841814 192.24 
L 160.992 187.800486 
L 161.883076 186.696 
L 162.350265 181.152 
L 160.992 178.352852 
L 159.794522 175.608 
L 155.528045 170.064 
L 155.04 169.585658 
L 150.380916 164.52 
L 149.088 163.315054 
L 144.867296 158.976 
L 143.136 157.366765 
L 139.271655 153.432 
L 137.184 151.442566 
L 133.750844 147.888 
L 131.232 145.385086 
L 128.3876 142.344 
L 125.28 139.090063 
L 123.223238 136.8 
L 119.328 132.476387 
L 118.278688 131.256 
L 113.556775 125.712 
L 113.376 125.500054 
L 108.962574 120.168 
L 107.424 118.243919 
L 104.546997 114.624 
L 101.472 110.555717 
L 100.324119 109.08 
L 96.21712 103.536 
L 95.52 102.556231 
L 92.038164 97.992 
L 89.568 94.46079 
L 87.924972 92.448 
L 83.838802 86.904 
L 83.616 86.583333 
L 78.808212 81.36 
L 77.664 79.940955 
L 71.712 76.555717 
L 67.218096 81.36 
L 65.76 84.065848 
L 65.297771 86.904 
L 64.679423 92.448 
L 64.329527 97.992 
L 64.205347 103.536 
L 64.274478 109.08 
L 64.51184 114.624 
L 64.897611 120.168 
L 65.415769 125.712 
L 65.76 128.632899 
L 66.223568 131.256 
L 67.357665 136.8 
L 68.585786 142.344 
L 69.896478 147.888 
L 71.280642 153.432 
L 71.712 155.019877 
L 73.212887 158.976 
L 75.359252 164.52 
L 77.515479 170.064 
L 77.664 170.424379 
L 80.572584 175.608 
L 83.616 181.095291 
L 83.65906 181.152 
L 87.996705 186.696 
L 89.568 188.787112 
L 93.215182 192.24 
L 89.568 192.24 
L 87.761118 192.24 
L 83.616 186.783607 
L 83.567812 186.696 
L 80.390292 181.152 
L 77.664 176.471942 
L 77.291841 175.608 
L 74.988537 170.064 
L 72.679132 164.52 
L 71.712 162.132755 
L 70.781684 158.976 
L 69.225074 153.432 
L 67.716294 147.888 
L 66.259583 142.344 
L 65.76 140.273443 
z
" clip-path="url(#p2e9c76a8ad)" style="fill: #29af7f"/>
   </g>
   <g id="PathCollection_11">
    <path d="M 65.415769 125.712 
L 64.897611 120.168 
L 64.51184 114.624 
L 64.274478 109.08 
L 64.205347 103.536 
L 64.329527 97.992 
L 64.679423 92.448 
L 65.297771 86.904 
L 65.76 84.065848 
L 67.218096 81.36 
L 71.712 76.555717 
L 77.664 79.940955 
L 78.808212 81.36 
L 83.616 86.583333 
L 83.838802 86.904 
L 87.924972 92.448 
L 89.568 94.46079 
L 92.038164 97.992 
L 95.52 102.556231 
L 96.21712 103.536 
L 100.324119 109.08 
L 101.472 110.555717 
L 104.546997 114.624 
L 107.424 118.243919 
L 108.962574 120.168 
L 113.376 125.500054 
L 113.556775 125.712 
L 118.278688 131.256 
L 119.328 132.476387 
L 123.223238 136.8 
L 125.28 139.090063 
L 128.3876 142.344 
L 131.232 145.385086 
L 133.750844 147.888 
L 137.184 151.442566 
L 139.271655 153.432 
L 143.136 157.366765 
L 144.867296 158.976 
L 149.088 163.315054 
L 150.380916 164.52 
L 155.04 169.585658 
L 155.528045 170.064 
L 159.794522 175.608 
L 160.992 178.352852 
L 162.350265 181.152 
L 161.883076 186.696 
L 160.992 187.800486 
L 156.841814 192.24 
L 155.04 192.24 
L 149.088 192.24 
L 143.136 192.24 
L 139.147127 192.24 
L 143.136 189.972119 
L 147.547452 186.696 
L 149.088 183.449783 
L 149.971348 181.152 
L 149.088 176.778713 
L 148.873425 175.608 
L 145.75282 170.064 
L 143.136 166.700901 
L 141.59251 164.52 
L 137.184 159.315022 
L 136.920587 158.976 
L 132.007946 153.432 
L 131.232 152.617605 
L 127.049005 147.888 
L 125.28 145.962583 
L 122.154051 142.344 
L 119.328 139.122133 
L 117.381513 136.8 
L 113.376 131.996921 
L 112.772719 131.256 
L 108.264462 125.712 
L 107.424 124.662232 
L 103.828869 120.168 
L 101.472 117.076636 
L 99.528817 114.624 
L 95.52 109.208739 
L 95.41444 109.08 
L 91.046249 103.536 
L 89.568 101.492386 
L 86.52686 97.992 
L 83.616 94.236526 
L 81.523732 92.448 
L 77.664 88.625436 
L 71.712 87.648321 
L 69.473697 92.448 
L 67.990889 97.992 
L 67.248268 103.536 
L 67.00791 109.08 
L 67.129566 114.624 
L 67.525121 120.168 
L 68.136255 125.712 
L 68.922603 131.256 
L 69.855084 136.8 
L 70.911988 142.344 
L 71.712 146.073945 
L 72.279876 147.888 
L 74.165843 153.432 
L 76.083597 158.976 
L 77.664 163.395616 
L 78.228764 164.52 
L 81.14237 170.064 
L 83.616 174.792713 
L 84.206606 175.608 
L 88.369176 181.152 
L 89.568 182.717515 
L 93.804259 186.696 
L 95.52 188.321598 
L 101.472 192.210831 
L 101.542325 192.24 
L 101.472 192.24 
L 95.52 192.24 
L 93.215182 192.24 
L 89.568 188.787112 
L 87.996705 186.696 
L 83.65906 181.152 
L 83.616 181.095291 
L 80.572584 175.608 
L 77.664 170.424379 
L 77.515479 170.064 
L 75.359252 164.52 
L 73.212887 158.976 
L 71.712 155.019877 
L 71.280642 153.432 
L 69.896478 147.888 
L 68.585786 142.344 
L 67.357665 136.8 
L 66.223568 131.256 
L 65.76 128.632899 
z
" clip-path="url(#p2e9c76a8ad)" style="fill: #42be71"/>
   </g>
   <g id="PathCollection_12">
    <path d="M 70.911988 142.344 
L 69.855084 136.8 
L 68.922603 131.256 
L 68.136255 125.712 
L 67.525121 120.168 
L 67.129566 114.624 
L 67.00791 109.08 
L 67.248268 103.536 
L 67.990889 97.992 
L 69.473697 92.448 
L 71.712 87.648321 
L 77.664 88.625436 
L 81.523732 92.448 
L 83.616 94.236526 
L 86.52686 97.992 
L 89.568 101.492386 
L 91.046249 103.536 
L 95.41444 109.08 
L 95.52 109.208739 
L 99.528817 114.624 
L 101.472 117.076636 
L 103.828869 120.168 
L 107.424 124.662232 
L 108.264462 125.712 
L 112.772719 131.256 
L 113.376 131.996921 
L 117.381513 136.8 
L 119.328 139.122133 
L 122.154051 142.344 
L 125.28 145.962583 
L 127.049005 147.888 
L 131.232 152.617605 
L 132.007946 153.432 
L 136.920587 158.976 
L 137.184 159.315022 
L 141.59251 164.52 
L 143.136 166.700901 
L 145.75282 170.064 
L 148.873425 175.608 
L 149.088 176.778713 
L 149.971348 181.152 
L 149.088 183.449783 
L 147.547452 186.696 
L 143.136 189.972119 
L 139.147127 192.24 
L 137.184 192.24 
L 131.232 192.24 
L 125.28 192.24 
L 119.328 192.24 
L 113.376 192.24 
L 107.424 192.24 
L 101.542325 192.24 
L 101.472 192.210831 
L 95.52 188.321598 
L 93.804259 186.696 
L 89.568 182.717515 
L 88.369176 181.152 
L 84.206606 175.608 
L 83.616 174.792713 
L 81.14237 170.064 
L 78.228764 164.52 
L 77.664 163.395616 
L 76.083597 158.976 
L 74.165843 153.432 
L 72.279876 147.888 
L 71.712 146.073945 
z
M 71.712 131.896157 
L 72.791783 136.8 
L 74.175831 142.344 
L 75.675009 147.888 
L 77.271377 153.432 
L 77.664 154.649069 
L 79.674472 158.976 
L 82.261117 164.52 
L 83.616 167.314254 
L 85.501079 170.064 
L 89.324349 175.608 
L 89.568 175.940806 
L 94.905109 181.152 
L 95.52 181.729921 
L 101.472 185.513087 
L 104.381174 186.696 
L 107.424 187.85681 
L 113.376 188.911869 
L 119.328 188.921171 
L 125.28 187.922127 
L 129.001205 186.696 
L 131.232 185.428858 
L 135.913472 181.152 
L 136.970256 175.608 
L 135.273276 170.064 
L 132.243375 164.52 
L 131.232 163.137269 
L 128.408202 158.976 
L 125.28 154.875174 
L 124.243035 153.432 
L 119.903828 147.888 
L 119.328 147.198744 
L 115.443715 142.344 
L 113.376 139.77781 
L 111.021834 136.8 
L 107.424 132.169521 
L 106.703183 131.256 
L 102.369534 125.712 
L 101.472 124.536624 
L 97.960686 120.168 
L 95.52 116.917372 
L 93.564957 114.624 
L 89.568 109.468573 
L 89.169826 109.08 
L 84.06459 103.536 
L 83.616 102.994941 
L 77.664 99.054494 
L 72.004214 103.536 
L 71.712 104.065295 
L 71.01146 109.08 
L 70.70262 114.624 
L 70.749944 120.168 
L 71.074446 125.712 
L 71.621638 131.256 
z
" clip-path="url(#p2e9c76a8ad)" style="fill: #65cb5e"/>
   </g>
   <g id="PathCollection_13">
    <path d="M 71.621638 131.256 
L 71.074446 125.712 
L 70.749944 120.168 
L 70.70262 114.624 
L 71.01146 109.08 
L 71.712 104.065295 
L 72.004214 103.536 
L 77.664 99.054494 
L 83.616 102.994941 
L 84.06459 103.536 
L 89.169826 109.08 
L 89.568 109.468573 
L 93.564957 114.624 
L 95.52 116.917372 
L 97.960686 120.168 
L 101.472 124.536624 
L 102.369534 125.712 
L 106.703183 131.256 
L 107.424 132.169521 
L 111.021834 136.8 
L 113.376 139.77781 
L 115.443715 142.344 
L 119.328 147.198744 
L 119.903828 147.888 
L 124.243035 153.432 
L 125.28 154.875174 
L 128.408202 158.976 
L 131.232 163.137269 
L 132.243375 164.52 
L 135.273276 170.064 
L 136.970256 175.608 
L 135.913472 181.152 
L 131.232 185.428858 
L 129.001205 186.696 
L 125.28 187.922127 
L 119.328 188.921171 
L 113.376 188.911869 
L 107.424 187.85681 
L 104.381174 186.696 
L 101.472 185.513087 
L 95.52 181.729921 
L 94.905109 181.152 
L 89.568 175.940806 
L 89.324349 175.608 
L 85.501079 170.064 
L 83.616 167.314254 
L 82.261117 164.52 
L 79.674472 158.976 
L 77.664 154.649069 
L 77.271377 153.432 
L 75.675009 147.888 
L 74.175831 142.344 
L 72.791783 136.8 
L 71.712 131.896157 
z
M 77.664 140.616899 
L 78.158552 142.344 
L 80.083825 147.888 
L 82.079923 153.432 
L 83.616 157.417676 
L 84.533539 158.976 
L 87.949455 164.52 
L 89.568 167.091656 
L 92.347257 170.064 
L 95.52 173.368562 
L 98.811406 175.608 
L 101.472 177.283731 
L 107.424 179.284854 
L 113.376 179.571478 
L 119.328 177.400214 
L 121.348844 175.608 
L 122.687219 170.064 
L 121.341134 164.52 
L 119.328 160.223283 
L 118.757105 158.976 
L 115.355352 153.432 
L 113.376 150.492765 
L 111.624002 147.888 
L 107.772893 142.344 
L 107.424 141.874466 
L 103.544118 136.8 
L 101.472 133.988039 
L 99.261498 131.256 
L 95.52 126.296394 
L 94.973549 125.712 
L 90.160633 120.168 
L 89.568 119.431475 
L 83.985064 114.624 
L 83.616 114.258106 
L 77.664 114.588011 
L 77.648969 114.624 
L 76.390263 120.168 
L 76.081107 125.712 
L 76.348999 131.256 
L 77.002021 136.8 
z
" clip-path="url(#p2e9c76a8ad)" style="fill: #8ed645"/>
   </g>
   <g id="PathCollection_14">
    <path d="M 77.002021 136.8 
L 76.348999 131.256 
L 76.081107 125.712 
L 76.390263 120.168 
L 77.648969 114.624 
L 77.664 114.588011 
L 83.616 114.258106 
L 83.985064 114.624 
L 89.568 119.431475 
L 90.160633 120.168 
L 94.973549 125.712 
L 95.52 126.296394 
L 99.261498 131.256 
L 101.472 133.988039 
L 103.544118 136.8 
L 107.424 141.874466 
L 107.772893 142.344 
L 111.624002 147.888 
L 113.376 150.492765 
L 115.355352 153.432 
L 118.757105 158.976 
L 119.328 160.223283 
L 121.341134 164.52 
L 122.687219 170.064 
L 121.348844 175.608 
L 119.328 177.400214 
L 113.376 179.571478 
L 107.424 179.284854 
L 101.472 177.283731 
L 98.811406 175.608 
L 95.52 173.368562 
L 92.347257 170.064 
L 89.568 167.091656 
L 87.949455 164.52 
L 84.533539 158.976 
L 83.616 157.417676 
L 82.079923 153.432 
L 80.083825 147.888 
L 78.158552 142.344 
L 77.664 140.616899 
z
M 89.568 150.689536 
L 91.664061 153.432 
L 95.490997 158.976 
L 95.52 159.011279 
L 101.472 160.42391 
L 102.534548 158.976 
L 102.090815 153.432 
L 101.472 152.027223 
L 98.954121 147.888 
L 95.755845 142.344 
L 95.52 142.001379 
L 89.72926 136.8 
L 89.568 136.6303 
L 89.328573 136.8 
L 87.677874 142.344 
L 88.620182 147.888 
z
" clip-path="url(#p2e9c76a8ad)" style="fill: #bddf26"/>
   </g>
   <g id="PathCollection_15">
    <path d="M 88.620182 147.888 
L 87.677874 142.344 
L 89.328573 136.8 
L 89.568 136.6303 
L 89.72926 136.8 
L 95.52 142.001379 
L 95.755845 142.344 
L 98.954121 147.888 
L 101.472 152.027223 
L 102.090815 153.432 
L 102.534548 158.976 
L 101.472 160.42391 
L 95.52 159.011279 
L 95.490997 158.976 
L 91.664061 153.432 
L 89.568 150.689536 
z
" clip-path="url(#p2e9c76a8ad)" style="fill: #eae51a"/>
   </g>
   <g id="PathCollection_16">
    <defs>
     <path id="m1454dd0099" d="M -4.330127 4.330127 
L 4.330127 -4.330127 
M -4.330127 -4.330127 
L 4.330127 4.330127 
" style="stroke: #000000; stroke-width: 2"/>
    </defs>
    <g clip-path="url(#p2e9c76a8ad)">
     <use xlink:href="#m1454dd0099" x="85.6" y="127.56" style="stroke: #000000; stroke-width: 2"/>
    </g>
   </g>
   <g id="matplotlib.axis_1">
    <g id="xtick_1">
     <g id="line2d_1">
      <defs>
       <path id="m6162b5f85e" d="M 0 0 
L 0 6 
" style="stroke: #000000; stroke-width: 2"/>
      </defs>
      <g>
       <use xlink:href="#m6162b5f85e" x="75.68" y="192.24" style="stroke: #000000; stroke-width: 2"/>
      </g>
     </g>
     <g id="text_1">
      <!-- $\mathdefault{250}$ -->
      <g transform="translate(62.31 212.377813) scale(0.14 -0.14)">
       <defs>
        <path id="DejaVuSans-32" d="M 1228 531 
L 3431 531 
L 3431 0 
L 469 0 
L 469 531 
Q 828 903 1448 1529 
Q 2069 2156 2228 2338 
Q 2531 2678 2651 2914 
Q 2772 3150 2772 3378 
Q 2772 3750 2511 3984 
Q 2250 4219 1831 4219 
Q 1534 4219 1204 4116 
Q 875 4013 500 3803 
L 500 4441 
Q 881 4594 1212 4672 
Q 1544 4750 1819 4750 
Q 2544 4750 2975 4387 
Q 3406 4025 3406 3419 
Q 3406 3131 3298 2873 
Q 3191 2616 2906 2266 
Q 2828 2175 2409 1742 
Q 1991 1309 1228 531 
z
" transform="scale(0.015625)"/>
        <path id="DejaVuSans-35" d="M 691 4666 
L 3169 4666 
L 3169 4134 
L 1269 4134 
L 1269 2991 
Q 1406 3038 1543 3061 
Q 1681 3084 1819 3084 
Q 2600 3084 3056 2656 
Q 3513 2228 3513 1497 
Q 3513 744 3044 326 
Q 2575 -91 1722 -91 
Q 1428 -91 1123 -41 
Q 819 9 494 109 
L 494 744 
Q 775 591 1075 516 
Q 1375 441 1709 441 
Q 2250 441 2565 725 
Q 2881 1009 2881 1497 
Q 2881 1984 2565 2268 
Q 2250 2553 1709 2553 
Q 1456 2553 1204 2497 
Q 953 2441 691 2322 
L 691 4666 
z
" transform="scale(0.015625)"/>
        <path id="DejaVuSans-30" d="M 2034 4250 
Q 1547 4250 1301 3770 
Q 1056 3291 1056 2328 
Q 1056 1369 1301 889 
Q 1547 409 2034 409 
Q 2525 409 2770 889 
Q 3016 1369 3016 2328 
Q 3016 3291 2770 3770 
Q 2525 4250 2034 4250 
z
M 2034 4750 
Q 2819 4750 3233 4129 
Q 3647 3509 3647 2328 
Q 3647 1150 3233 529 
Q 2819 -91 2034 -91 
Q 1250 -91 836 529 
Q 422 1150 422 2328 
Q 422 3509 836 4129 
Q 1250 4750 2034 4750 
z
" transform="scale(0.015625)"/>
       </defs>
       <use xlink:href="#DejaVuSans-32" transform="translate(0 0.78125)"/>
       <use xlink:href="#DejaVuSans-35" transform="translate(63.623047 0.78125)"/>
       <use xlink:href="#DejaVuSans-30" transform="translate(127.246094 0.78125)"/>
      </g>
     </g>
    </g>
    <g id="xtick_2">
     <g id="line2d_2">
      <g>
       <use xlink:href="#m6162b5f85e" x="125.28" y="192.24" style="stroke: #000000; stroke-width: 2"/>
      </g>
     </g>
     <g id="text_2">
      <!-- $\mathdefault{500}$ -->
      <g transform="translate(111.91 212.377813) scale(0.14 -0.14)">
       <use xlink:href="#DejaVuSans-35" transform="translate(0 0.78125)"/>
       <use xlink:href="#DejaVuSans-30" transform="translate(63.623047 0.78125)"/>
       <use xlink:href="#DejaVuSans-30" transform="translate(127.246094 0.78125)"/>
      </g>
     </g>
    </g>
    <g id="xtick_3">
     <g id="line2d_3">
      <g>
       <use xlink:href="#m6162b5f85e" x="174.88" y="192.24" style="stroke: #000000; stroke-width: 2"/>
      </g>
     </g>
     <g id="text_3">
      <!-- $\mathdefault{750}$ -->
      <g transform="translate(161.51 212.377813) scale(0.14 -0.14)">
       <defs>
        <path id="DejaVuSans-37" d="M 525 4666 
L 3525 4666 
L 3525 4397 
L 1831 0 
L 1172 0 
L 2766 4134 
L 525 4134 
L 525 4666 
z
" transform="scale(0.015625)"/>
       </defs>
       <use xlink:href="#DejaVuSans-37" transform="translate(0 0.78125)"/>
       <use xlink:href="#DejaVuSans-35" transform="translate(63.623047 0.78125)"/>
       <use xlink:href="#DejaVuSans-30" transform="translate(127.246094 0.78125)"/>
      </g>
     </g>
    </g>
    <g id="text_4">
     <!-- Diploid N$_e$1 -->
     <g transform="translate(74.34 232.969375) scale(0.18 -0.18)">
      <defs>
       <path id="DejaVuSans-44" d="M 1259 4147 
L 1259 519 
L 2022 519 
Q 2988 519 3436 956 
Q 3884 1394 3884 2338 
Q 3884 3275 3436 3711 
Q 2988 4147 2022 4147 
L 1259 4147 
z
M 628 4666 
L 1925 4666 
Q 3281 4666 3915 4102 
Q 4550 3538 4550 2338 
Q 4550 1131 3912 565 
Q 3275 0 1925 0 
L 628 0 
L 628 4666 
z
" transform="scale(0.015625)"/>
       <path id="DejaVuSans-69" d="M 603 3500 
L 1178 3500 
L 1178 0 
L 603 0 
L 603 3500 
z
M 603 4863 
L 1178 4863 
L 1178 4134 
L 603 4134 
L 603 4863 
z
" transform="scale(0.015625)"/>
       <path id="DejaVuSans-70" d="M 1159 525 
L 1159 -1331 
L 581 -1331 
L 581 3500 
L 1159 3500 
L 1159 2969 
Q 1341 3281 1617 3432 
Q 1894 3584 2278 3584 
Q 2916 3584 3314 3078 
Q 3713 2572 3713 1747 
Q 3713 922 3314 415 
Q 2916 -91 2278 -91 
Q 1894 -91 1617 61 
Q 1341 213 1159 525 
z
M 3116 1747 
Q 3116 2381 2855 2742 
Q 2594 3103 2138 3103 
Q 1681 3103 1420 2742 
Q 1159 2381 1159 1747 
Q 1159 1113 1420 752 
Q 1681 391 2138 391 
Q 2594 391 2855 752 
Q 3116 1113 3116 1747 
z
" transform="scale(0.015625)"/>
       <path id="DejaVuSans-6c" d="M 603 4863 
L 1178 4863 
L 1178 0 
L 603 0 
L 603 4863 
z
" transform="scale(0.015625)"/>
       <path id="DejaVuSans-6f" d="M 1959 3097 
Q 1497 3097 1228 2736 
Q 959 2375 959 1747 
Q 959 1119 1226 758 
Q 1494 397 1959 397 
Q 2419 397 2687 759 
Q 2956 1122 2956 1747 
Q 2956 2369 2687 2733 
Q 2419 3097 1959 3097 
z
M 1959 3584 
Q 2709 3584 3137 3096 
Q 3566 2609 3566 1747 
Q 3566 888 3137 398 
Q 2709 -91 1959 -91 
Q 1206 -91 779 398 
Q 353 888 353 1747 
Q 353 2609 779 3096 
Q 1206 3584 1959 3584 
z
" transform="scale(0.015625)"/>
       <path id="DejaVuSans-64" d="M 2906 2969 
L 2906 4863 
L 3481 4863 
L 3481 0 
L 2906 0 
L 2906 525 
Q 2725 213 2448 61 
Q 2172 -91 1784 -91 
Q 1150 -91 751 415 
Q 353 922 353 1747 
Q 353 2572 751 3078 
Q 1150 3584 1784 3584 
Q 2172 3584 2448 3432 
Q 2725 3281 2906 2969 
z
M 947 1747 
Q 947 1113 1208 752 
Q 1469 391 1925 391 
Q 2381 391 2643 752 
Q 2906 1113 2906 1747 
Q 2906 2381 2643 2742 
Q 2381 3103 1925 3103 
Q 1469 3103 1208 2742 
Q 947 2381 947 1747 
z
" transform="scale(0.015625)"/>
       <path id="DejaVuSans-20" transform="scale(0.015625)"/>
       <path id="DejaVuSans-4e" d="M 628 4666 
L 1478 4666 
L 3547 763 
L 3547 4666 
L 4159 4666 
L 4159 0 
L 3309 0 
L 1241 3903 
L 1241 0 
L 628 0 
L 628 4666 
z
" transform="scale(0.015625)"/>
       <path id="DejaVuSans-Oblique-65" d="M 3078 2063 
Q 3088 2113 3092 2166 
Q 3097 2219 3097 2272 
Q 3097 2653 2873 2875 
Q 2650 3097 2266 3097 
Q 1838 3097 1509 2826 
Q 1181 2556 1013 2059 
L 3078 2063 
z
M 3578 1613 
L 903 1613 
Q 884 1494 878 1425 
Q 872 1356 872 1306 
Q 872 872 1139 634 
Q 1406 397 1894 397 
Q 2269 397 2603 481 
Q 2938 566 3225 728 
L 3116 159 
Q 2806 34 2476 -28 
Q 2147 -91 1806 -91 
Q 1078 -91 686 257 
Q 294 606 294 1247 
Q 294 1794 489 2264 
Q 684 2734 1063 3103 
Q 1306 3334 1642 3459 
Q 1978 3584 2356 3584 
Q 2950 3584 3301 3228 
Q 3653 2872 3653 2272 
Q 3653 2128 3634 1964 
Q 3616 1800 3578 1613 
z
" transform="scale(0.015625)"/>
       <path id="DejaVuSans-31" d="M 794 531 
L 1825 531 
L 1825 4091 
L 703 3866 
L 703 4441 
L 1819 4666 
L 2450 4666 
L 2450 531 
L 3481 531 
L 3481 0 
L 794 0 
L 794 531 
z
" transform="scale(0.015625)"/>
      </defs>
      <use xlink:href="#DejaVuSans-44" transform="translate(0 0.015625)"/>
      <use xlink:href="#DejaVuSans-69" transform="translate(77.001953 0.015625)"/>
      <use xlink:href="#DejaVuSans-70" transform="translate(104.785156 0.015625)"/>
      <use xlink:href="#DejaVuSans-6c" transform="translate(168.261719 0.015625)"/>
      <use xlink:href="#DejaVuSans-6f" transform="translate(196.044922 0.015625)"/>
      <use xlink:href="#DejaVuSans-69" transform="translate(257.226562 0.015625)"/>
      <use xlink:href="#DejaVuSans-64" transform="translate(285.009766 0.015625)"/>
      <use xlink:href="#DejaVuSans-20" transform="translate(348.486328 0.015625)"/>
      <use xlink:href="#DejaVuSans-4e" transform="translate(380.273438 0.015625)"/>
      <use xlink:href="#DejaVuSans-Oblique-65" transform="translate(456.035156 -16.390625) scale(0.7)"/>
      <use xlink:href="#DejaVuSans-31" transform="translate(501.835938 0.015625)"/>
     </g>
    </g>
    <g id="text_5">
     <!-- $\times\mathdefault{10^{3}}\mathdefault{}$ -->
     <g transform="translate(188.56 225.887812) scale(0.1 -0.1)">
      <defs>
       <path id="DejaVuSans-d7" d="M 4488 3438 
L 3059 2003 
L 4488 575 
L 4116 197 
L 2681 1631 
L 1247 197 
L 878 575 
L 2303 2003 
L 878 3438 
L 1247 3816 
L 2681 2381 
L 4116 3816 
L 4488 3438 
z
" transform="scale(0.015625)"/>
       <path id="DejaVuSans-33" d="M 2597 2516 
Q 3050 2419 3304 2112 
Q 3559 1806 3559 1356 
Q 3559 666 3084 287 
Q 2609 -91 1734 -91 
Q 1441 -91 1130 -33 
Q 819 25 488 141 
L 488 750 
Q 750 597 1062 519 
Q 1375 441 1716 441 
Q 2309 441 2620 675 
Q 2931 909 2931 1356 
Q 2931 1769 2642 2001 
Q 2353 2234 1838 2234 
L 1294 2234 
L 1294 2753 
L 1863 2753 
Q 2328 2753 2575 2939 
Q 2822 3125 2822 3475 
Q 2822 3834 2567 4026 
Q 2313 4219 1838 4219 
Q 1578 4219 1281 4162 
Q 984 4106 628 3988 
L 628 4550 
Q 988 4650 1302 4700 
Q 1616 4750 1894 4750 
Q 2613 4750 3031 4423 
Q 3450 4097 3450 3541 
Q 3450 3153 3228 2886 
Q 3006 2619 2597 2516 
z
" transform="scale(0.015625)"/>
      </defs>
      <use xlink:href="#DejaVuSans-d7" transform="translate(0 0.765625)"/>
      <use xlink:href="#DejaVuSans-31" transform="translate(83.789062 0.765625)"/>
      <use xlink:href="#DejaVuSans-30" transform="translate(147.412109 0.765625)"/>
      <use xlink:href="#DejaVuSans-33" transform="translate(211.992188 39.046875) scale(0.7)"/>
     </g>
    </g>
   </g>
   <g id="matplotlib.axis_2">
    <g id="ytick_1">
     <g id="line2d_4">
      <defs>
       <path id="m662705e5bf" d="M 0 0 
L -6 0 
" style="stroke: #000000; stroke-width: 2"/>
      </defs>
      <g>
       <use xlink:href="#m662705e5bf" x="36" y="155.28" style="stroke: #000000; stroke-width: 2"/>
      </g>
     </g>
     <g id="text_6">
      <!-- $\mathdefault{250}$ -->
      <g transform="translate(-0.24 160.598906) scale(0.14 -0.14)">
       <use xlink:href="#DejaVuSans-32" transform="translate(0 0.78125)"/>
       <use xlink:href="#DejaVuSans-35" transform="translate(63.623047 0.78125)"/>
       <use xlink:href="#DejaVuSans-30" transform="translate(127.246094 0.78125)"/>
      </g>
     </g>
    </g>
    <g id="ytick_2">
     <g id="line2d_5">
      <g>
       <use xlink:href="#m662705e5bf" x="36" y="109.08" style="stroke: #000000; stroke-width: 2"/>
      </g>
     </g>
     <g id="text_7">
      <!-- $\mathdefault{500}$ -->
      <g transform="translate(-0.24 114.398906) scale(0.14 -0.14)">
       <use xlink:href="#DejaVuSans-35" transform="translate(0 0.78125)"/>
       <use xlink:href="#DejaVuSans-30" transform="translate(63.623047 0.78125)"/>
       <use xlink:href="#DejaVuSans-30" transform="translate(127.246094 0.78125)"/>
      </g>
     </g>
    </g>
    <g id="ytick_3">
     <g id="line2d_6">
      <g>
       <use xlink:href="#m662705e5bf" x="36" y="62.88" style="stroke: #000000; stroke-width: 2"/>
      </g>
     </g>
     <g id="text_8">
      <!-- $\mathdefault{750}$ -->
      <g transform="translate(-0.24 68.198906) scale(0.14 -0.14)">
       <use xlink:href="#DejaVuSans-37" transform="translate(0 0.78125)"/>
       <use xlink:href="#DejaVuSans-35" transform="translate(63.623047 0.78125)"/>
       <use xlink:href="#DejaVuSans-30" transform="translate(127.246094 0.78125)"/>
      </g>
     </g>
    </g>
    <g id="text_9">
     <!-- Diploid N$_e$2 -->
     <g transform="translate(-8.02 160.02) rotate(-90) scale(0.18 -0.18)">
      <use xlink:href="#DejaVuSans-44" transform="translate(0 0.015625)"/>
      <use xlink:href="#DejaVuSans-69" transform="translate(77.001953 0.015625)"/>
      <use xlink:href="#DejaVuSans-70" transform="translate(104.785156 0.015625)"/>
      <use xlink:href="#DejaVuSans-6c" transform="translate(168.261719 0.015625)"/>
      <use xlink:href="#DejaVuSans-6f" transform="translate(196.044922 0.015625)"/>
      <use xlink:href="#DejaVuSans-69" transform="translate(257.226562 0.015625)"/>
      <use xlink:href="#DejaVuSans-64" transform="translate(285.009766 0.015625)"/>
      <use xlink:href="#DejaVuSans-20" transform="translate(348.486328 0.015625)"/>
      <use xlink:href="#DejaVuSans-4e" transform="translate(380.273438 0.015625)"/>
      <use xlink:href="#DejaVuSans-Oblique-65" transform="translate(456.035156 -16.390625) scale(0.7)"/>
      <use xlink:href="#DejaVuSans-32" transform="translate(501.835938 0.015625)"/>
     </g>
    </g>
    <g id="text_10">
     <!-- $\times\mathdefault{10^{3}}\mathdefault{}$ -->
     <g transform="translate(36 22.92) scale(0.1 -0.1)">
      <use xlink:href="#DejaVuSans-d7" transform="translate(0 0.765625)"/>
      <use xlink:href="#DejaVuSans-31" transform="translate(83.789062 0.765625)"/>
      <use xlink:href="#DejaVuSans-30" transform="translate(147.412109 0.765625)"/>
      <use xlink:href="#DejaVuSans-33" transform="translate(211.992188 39.046875) scale(0.7)"/>
     </g>
    </g>
   </g>
   <g id="patch_3">
    <path d="M 36 192.24 
L 36 25.92 
" style="fill: none; stroke: #000000; stroke-width: 0.8; stroke-linejoin: miter; stroke-linecap: square"/>
   </g>
   <g id="patch_4">
    <path d="M 214.56 192.24 
L 214.56 25.92 
" style="fill: none; stroke: #000000; stroke-width: 0.8; stroke-linejoin: miter; stroke-linecap: square"/>
   </g>
   <g id="patch_5">
    <path d="M 36 192.24 
L 214.56 192.24 
" style="fill: none; stroke: #000000; stroke-width: 0.8; stroke-linejoin: miter; stroke-linecap: square"/>
   </g>
   <g id="patch_6">
    <path d="M 36 25.92 
L 214.56 25.92 
" style="fill: none; stroke: #000000; stroke-width: 0.8; stroke-linejoin: miter; stroke-linecap: square"/>
   </g>
   <g id="text_11">
    <!-- Ne1Ne2-SMC-T-P2-S4 -->
    <g transform="translate(40.66375 10.92) scale(0.16 -0.16)">
     <defs>
      <path id="DejaVuSans-65" d="M 3597 1894 
L 3597 1613 
L 953 1613 
Q 991 1019 1311 708 
Q 1631 397 2203 397 
Q 2534 397 2845 478 
Q 3156 559 3463 722 
L 3463 178 
Q 3153 47 2828 -22 
Q 2503 -91 2169 -91 
Q 1331 -91 842 396 
Q 353 884 353 1716 
Q 353 2575 817 3079 
Q 1281 3584 2069 3584 
Q 2775 3584 3186 3129 
Q 3597 2675 3597 1894 
z
M 3022 2063 
Q 3016 2534 2758 2815 
Q 2500 3097 2075 3097 
Q 1594 3097 1305 2825 
Q 1016 2553 972 2059 
L 3022 2063 
z
" transform="scale(0.015625)"/>
      <path id="DejaVuSans-2d" d="M 313 2009 
L 1997 2009 
L 1997 1497 
L 313 1497 
L 313 2009 
z
" transform="scale(0.015625)"/>
      <path id="DejaVuSans-53" d="M 3425 4513 
L 3425 3897 
Q 3066 4069 2747 4153 
Q 2428 4238 2131 4238 
Q 1616 4238 1336 4038 
Q 1056 3838 1056 3469 
Q 1056 3159 1242 3001 
Q 1428 2844 1947 2747 
L 2328 2669 
Q 3034 2534 3370 2195 
Q 3706 1856 3706 1288 
Q 3706 609 3251 259 
Q 2797 -91 1919 -91 
Q 1588 -91 1214 -16 
Q 841 59 441 206 
L 441 856 
Q 825 641 1194 531 
Q 1563 422 1919 422 
Q 2459 422 2753 634 
Q 3047 847 3047 1241 
Q 3047 1584 2836 1778 
Q 2625 1972 2144 2069 
L 1759 2144 
Q 1053 2284 737 2584 
Q 422 2884 422 3419 
Q 422 4038 858 4394 
Q 1294 4750 2059 4750 
Q 2388 4750 2728 4690 
Q 3069 4631 3425 4513 
z
" transform="scale(0.015625)"/>
      <path id="DejaVuSans-4d" d="M 628 4666 
L 1569 4666 
L 2759 1491 
L 3956 4666 
L 4897 4666 
L 4897 0 
L 4281 0 
L 4281 4097 
L 3078 897 
L 2444 897 
L 1241 4097 
L 1241 0 
L 628 0 
L 628 4666 
z
" transform="scale(0.015625)"/>
      <path id="DejaVuSans-43" d="M 4122 4306 
L 4122 3641 
Q 3803 3938 3442 4084 
Q 3081 4231 2675 4231 
Q 1875 4231 1450 3742 
Q 1025 3253 1025 2328 
Q 1025 1406 1450 917 
Q 1875 428 2675 428 
Q 3081 428 3442 575 
Q 3803 722 4122 1019 
L 4122 359 
Q 3791 134 3420 21 
Q 3050 -91 2638 -91 
Q 1578 -91 968 557 
Q 359 1206 359 2328 
Q 359 3453 968 4101 
Q 1578 4750 2638 4750 
Q 3056 4750 3426 4639 
Q 3797 4528 4122 4306 
z
" transform="scale(0.015625)"/>
      <path id="DejaVuSans-54" d="M -19 4666 
L 3928 4666 
L 3928 4134 
L 2272 4134 
L 2272 0 
L 1638 0 
L 1638 4134 
L -19 4134 
L -19 4666 
z
" transform="scale(0.015625)"/>
      <path id="DejaVuSans-50" d="M 1259 4147 
L 1259 2394 
L 2053 2394 
Q 2494 2394 2734 2622 
Q 2975 2850 2975 3272 
Q 2975 3691 2734 3919 
Q 2494 4147 2053 4147 
L 1259 4147 
z
M 628 4666 
L 2053 4666 
Q 2838 4666 3239 4311 
Q 3641 3956 3641 3272 
Q 3641 2581 3239 2228 
Q 2838 1875 2053 1875 
L 1259 1875 
L 1259 0 
L 628 0 
L 628 4666 
z
" transform="scale(0.015625)"/>
      <path id="DejaVuSans-34" d="M 2419 4116 
L 825 1625 
L 2419 1625 
L 2419 4116 
z
M 2253 4666 
L 3047 4666 
L 3047 1625 
L 3713 1625 
L 3713 1100 
L 3047 1100 
L 3047 0 
L 2419 0 
L 2419 1100 
L 313 1100 
L 313 1709 
L 2253 4666 
z
" transform="scale(0.015625)"/>
     </defs>
     <use xlink:href="#DejaVuSans-4e"/>
     <use xlink:href="#DejaVuSans-65" x="74.804688"/>
     <use xlink:href="#DejaVuSans-31" x="136.328125"/>
     <use xlink:href="#DejaVuSans-4e" x="199.951172"/>
     <use xlink:href="#DejaVuSans-65" x="274.755859"/>
     <use xlink:href="#DejaVuSans-32" x="336.279297"/>
     <use xlink:href="#DejaVuSans-2d" x="399.902344"/>
     <use xlink:href="#DejaVuSans-53" x="435.986328"/>
     <use xlink:href="#DejaVuSans-4d" x="499.462891"/>
     <use xlink:href="#DejaVuSans-43" x="585.742188"/>
     <use xlink:href="#DejaVuSans-2d" x="655.566406"/>
     <use xlink:href="#DejaVuSans-54" x="682.525391"/>
     <use xlink:href="#DejaVuSans-2d" x="734.484375"/>
     <use xlink:href="#DejaVuSans-50" x="770.568359"/>
     <use xlink:href="#DejaVuSans-32" x="830.871094"/>
     <use xlink:href="#DejaVuSans-2d" x="894.494141"/>
     <use xlink:href="#DejaVuSans-53" x="930.578125"/>
     <use xlink:href="#DejaVuSans-34" x="994.054688"/>
    </g>
   </g>
  </g>
  <g id="axes_2">
   <g id="patch_7">
    <path d="M 225.72 192.24 
L 234.036 192.24 
L 234.036 25.92 
L 225.72 25.92 
z
" style="fill: #ffffff"/>
   </g>
   <g id="QuadMesh_1">
    <path d="M 225.72 192.24 
L 234.036 192.24 
L 234.036 181.152 
L 225.72 181.152 
L 225.72 192.24 
" clip-path="url(#pd7e23cce7d)" style="fill: #46085c"/>
    <path d="M 225.72 181.152 
L 234.036 181.152 
L 234.036 170.064 
L 225.72 170.064 
L 225.72 181.152 
" clip-path="url(#pd7e23cce7d)" style="fill: #482173"/>
    <path d="M 225.72 170.064 
L 234.036 170.064 
L 234.036 158.976 
L 225.72 158.976 
L 225.72 170.064 
" clip-path="url(#pd7e23cce7d)" style="fill: #453781"/>
    <path d="M 225.72 158.976 
L 234.036 158.976 
L 234.036 147.888 
L 225.72 147.888 
L 225.72 158.976 
" clip-path="url(#pd7e23cce7d)" style="fill: #3e4a89"/>
    <path d="M 225.72 147.888 
L 234.036 147.888 
L 234.036 136.8 
L 225.72 136.8 
L 225.72 147.888 
" clip-path="url(#pd7e23cce7d)" style="fill: #365d8d"/>
    <path d="M 225.72 136.8 
L 234.036 136.8 
L 234.036 125.712 
L 225.72 125.712 
L 225.72 136.8 
" clip-path="url(#pd7e23cce7d)" style="fill: #2e6f8e"/>
    <path d="M 225.72 125.712 
L 234.036 125.712 
L 234.036 114.624 
L 225.72 114.624 
L 225.72 125.712 
" clip-path="url(#pd7e23cce7d)" style="fill: #277f8e"/>
    <path d="M 225.72 114.624 
L 234.036 114.624 
L 234.036 103.536 
L 225.72 103.536 
L 225.72 114.624 
" clip-path="url(#pd7e23cce7d)" style="fill: #218f8d"/>
    <path d="M 225.72 103.536 
L 234.036 103.536 
L 234.036 92.448 
L 225.72 92.448 
L 225.72 103.536 
" clip-path="url(#pd7e23cce7d)" style="fill: #1f9f88"/>
    <path d="M 225.72 92.448 
L 234.036 92.448 
L 234.036 81.36 
L 225.72 81.36 
L 225.72 92.448 
" clip-path="url(#pd7e23cce7d)" style="fill: #29af7f"/>
    <path d="M 225.72 81.36 
L 234.036 81.36 
L 234.036 70.272 
L 225.72 70.272 
L 225.72 81.36 
" clip-path="url(#pd7e23cce7d)" style="fill: #42be71"/>
    <path d="M 225.72 70.272 
L 234.036 70.272 
L 234.036 59.184 
L 225.72 59.184 
L 225.72 70.272 
" clip-path="url(#pd7e23cce7d)" style="fill: #65cb5e"/>
    <path d="M 225.72 59.184 
L 234.036 59.184 
L 234.036 48.096 
L 225.72 48.096 
L 225.72 59.184 
" clip-path="url(#pd7e23cce7d)" style="fill: #8ed645"/>
    <path d="M 225.72 48.096 
L 234.036 48.096 
L 234.036 37.008 
L 225.72 37.008 
L 225.72 48.096 
" clip-path="url(#pd7e23cce7d)" style="fill: #bddf26"/>
    <path d="M 225.72 37.008 
L 234.036 37.008 
L 234.036 25.92 
L 225.72 25.92 
L 225.72 37.008 
" clip-path="url(#pd7e23cce7d)" style="fill: #eae51a"/>
   </g>
   <g id="matplotlib.axis_3"/>
   <g id="matplotlib.axis_4">
    <g id="ytick_4">
     <g id="line2d_7">
      <defs>
       <path id="mdd359772ed" d="M 0 0 
L 3.5 0 
" style="stroke: #000000; stroke-width: 0.8"/>
      </defs>
      <g>
       <use xlink:href="#mdd359772ed" x="234.036" y="181.152" style="stroke: #000000; stroke-width: 0.8"/>
      </g>
     </g>
     <g id="text_12">
      <!-- $\mathdefault{0.065}$ -->
      <g transform="translate(241.036 184.951219) scale(0.1 -0.1)">
       <defs>
        <path id="DejaVuSans-2212" d="M 678 2272 
L 4684 2272 
L 4684 1741 
L 678 1741 
L 678 2272 
z
" transform="scale(0.015625)"/>
        <path id="DejaVuSans-2e" d="M 684 794 
L 1344 794 
L 1344 0 
L 684 0 
L 684 794 
z
" transform="scale(0.015625)"/>
        <path id="DejaVuSans-36" d="M 2113 2584 
Q 1688 2584 1439 2293 
Q 1191 2003 1191 1497 
Q 1191 994 1439 701 
Q 1688 409 2113 409 
Q 2538 409 2786 701 
Q 3034 994 3034 1497 
Q 3034 2003 2786 2293 
Q 2538 2584 2113 2584 
z
M 3366 4563 
L 3366 3988 
Q 3128 4100 2886 4159 
Q 2644 4219 2406 4219 
Q 1781 4219 1451 3797 
Q 1122 3375 1075 2522 
Q 1259 2794 1537 2939 
Q 1816 3084 2150 3084 
Q 2853 3084 3261 2657 
Q 3669 2231 3669 1497 
Q 3669 778 3244 343 
Q 2819 -91 2113 -91 
Q 1303 -91 875 529 
Q 447 1150 447 2328 
Q 447 3434 972 4092 
Q 1497 4750 2381 4750 
Q 2619 4750 2861 4703 
Q 3103 4656 3366 4563 
z
" transform="scale(0.015625)"/>
       </defs>
       <use xlink:href="#DejaVuSans-2212" transform="translate(0 0.78125)"/>
       <use xlink:href="#DejaVuSans-30" transform="translate(83.789062 0.78125)"/>
       <use xlink:href="#DejaVuSans-2e" transform="translate(147.412109 0.78125)"/>
       <use xlink:href="#DejaVuSans-30" transform="translate(179.199219 0.78125)"/>
       <use xlink:href="#DejaVuSans-36" transform="translate(242.822266 0.78125)"/>
       <use xlink:href="#DejaVuSans-35" transform="translate(306.445312 0.78125)"/>
      </g>
     </g>
    </g>
    <g id="ytick_5">
     <g id="line2d_8">
      <g>
       <use xlink:href="#mdd359772ed" x="234.036" y="158.976" style="stroke: #000000; stroke-width: 0.8"/>
      </g>
     </g>
     <g id="text_13">
      <!-- $\mathdefault{0.060}$ -->
      <g transform="translate(241.036 162.775219) scale(0.1 -0.1)">
       <use xlink:href="#DejaVuSans-2212" transform="translate(0 0.78125)"/>
       <use xlink:href="#DejaVuSans-30" transform="translate(83.789062 0.78125)"/>
       <use xlink:href="#DejaVuSans-2e" transform="translate(147.412109 0.78125)"/>
       <use xlink:href="#DejaVuSans-30" transform="translate(179.199219 0.78125)"/>
       <use xlink:href="#DejaVuSans-36" transform="translate(242.822266 0.78125)"/>
       <use xlink:href="#DejaVuSans-30" transform="translate(306.445312 0.78125)"/>
      </g>
     </g>
    </g>
    <g id="ytick_6">
     <g id="line2d_9">
      <g>
       <use xlink:href="#mdd359772ed" x="234.036" y="136.8" style="stroke: #000000; stroke-width: 0.8"/>
      </g>
     </g>
     <g id="text_14">
      <!-- $\mathdefault{0.055}$ -->
      <g transform="translate(241.036 140.599219) scale(0.1 -0.1)">
       <use xlink:href="#DejaVuSans-2212" transform="translate(0 0.78125)"/>
       <use xlink:href="#DejaVuSans-30" transform="translate(83.789062 0.78125)"/>
       <use xlink:href="#DejaVuSans-2e" transform="translate(147.412109 0.78125)"/>
       <use xlink:href="#DejaVuSans-30" transform="translate(179.199219 0.78125)"/>
       <use xlink:href="#DejaVuSans-35" transform="translate(242.822266 0.78125)"/>
       <use xlink:href="#DejaVuSans-35" transform="translate(306.445312 0.78125)"/>
      </g>
     </g>
    </g>
    <g id="ytick_7">
     <g id="line2d_10">
      <g>
       <use xlink:href="#mdd359772ed" x="234.036" y="114.624" style="stroke: #000000; stroke-width: 0.8"/>
      </g>
     </g>
     <g id="text_15">
      <!-- $\mathdefault{0.050}$ -->
      <g transform="translate(241.036 118.423219) scale(0.1 -0.1)">
       <use xlink:href="#DejaVuSans-2212" transform="translate(0 0.78125)"/>
       <use xlink:href="#DejaVuSans-30" transform="translate(83.789062 0.78125)"/>
       <use xlink:href="#DejaVuSans-2e" transform="translate(147.412109 0.78125)"/>
       <use xlink:href="#DejaVuSans-30" transform="translate(179.199219 0.78125)"/>
       <use xlink:href="#DejaVuSans-35" transform="translate(242.822266 0.78125)"/>
       <use xlink:href="#DejaVuSans-30" transform="translate(306.445312 0.78125)"/>
      </g>
     </g>
    </g>
    <g id="ytick_8">
     <g id="line2d_11">
      <g>
       <use xlink:href="#mdd359772ed" x="234.036" y="92.448" style="stroke: #000000; stroke-width: 0.8"/>
      </g>
     </g>
     <g id="text_16">
      <!-- $\mathdefault{0.045}$ -->
      <g transform="translate(241.036 96.247219) scale(0.1 -0.1)">
       <use xlink:href="#DejaVuSans-2212" transform="translate(0 0.78125)"/>
       <use xlink:href="#DejaVuSans-30" transform="translate(83.789062 0.78125)"/>
       <use xlink:href="#DejaVuSans-2e" transform="translate(147.412109 0.78125)"/>
       <use xlink:href="#DejaVuSans-30" transform="translate(179.199219 0.78125)"/>
       <use xlink:href="#DejaVuSans-34" transform="translate(242.822266 0.78125)"/>
       <use xlink:href="#DejaVuSans-35" transform="translate(306.445312 0.78125)"/>
      </g>
     </g>
    </g>
    <g id="ytick_9">
     <g id="line2d_12">
      <g>
       <use xlink:href="#mdd359772ed" x="234.036" y="70.272" style="stroke: #000000; stroke-width: 0.8"/>
      </g>
     </g>
     <g id="text_17">
      <!-- $\mathdefault{0.040}$ -->
      <g transform="translate(241.036 74.071219) scale(0.1 -0.1)">
       <use xlink:href="#DejaVuSans-2212" transform="translate(0 0.78125)"/>
       <use xlink:href="#DejaVuSans-30" transform="translate(83.789062 0.78125)"/>
       <use xlink:href="#DejaVuSans-2e" transform="translate(147.412109 0.78125)"/>
       <use xlink:href="#DejaVuSans-30" transform="translate(179.199219 0.78125)"/>
       <use xlink:href="#DejaVuSans-34" transform="translate(242.822266 0.78125)"/>
       <use xlink:href="#DejaVuSans-30" transform="translate(306.445312 0.78125)"/>
      </g>
     </g>
    </g>
    <g id="ytick_10">
     <g id="line2d_13">
      <g>
       <use xlink:href="#mdd359772ed" x="234.036" y="48.096" style="stroke: #000000; stroke-width: 0.8"/>
      </g>
     </g>
     <g id="text_18">
      <!-- $\mathdefault{0.035}$ -->
      <g transform="translate(241.036 51.895219) scale(0.1 -0.1)">
       <use xlink:href="#DejaVuSans-2212" transform="translate(0 0.78125)"/>
       <use xlink:href="#DejaVuSans-30" transform="translate(83.789062 0.78125)"/>
       <use xlink:href="#DejaVuSans-2e" transform="translate(147.412109 0.78125)"/>
       <use xlink:href="#DejaVuSans-30" transform="translate(179.199219 0.78125)"/>
       <use xlink:href="#DejaVuSans-33" transform="translate(242.822266 0.78125)"/>
       <use xlink:href="#DejaVuSans-35" transform="translate(306.445312 0.78125)"/>
      </g>
     </g>
    </g>
    <g id="ytick_11">
     <g id="line2d_14">
      <g>
       <use xlink:href="#mdd359772ed" x="234.036" y="25.92" style="stroke: #000000; stroke-width: 0.8"/>
      </g>
     </g>
     <g id="text_19">
      <!-- $\mathdefault{0.030}$ -->
      <g transform="translate(241.036 29.719219) scale(0.1 -0.1)">
       <use xlink:href="#DejaVuSans-2212" transform="translate(0 0.78125)"/>
       <use xlink:href="#DejaVuSans-30" transform="translate(83.789062 0.78125)"/>
       <use xlink:href="#DejaVuSans-2e" transform="translate(147.412109 0.78125)"/>
       <use xlink:href="#DejaVuSans-30" transform="translate(179.199219 0.78125)"/>
       <use xlink:href="#DejaVuSans-33" transform="translate(242.822266 0.78125)"/>
       <use xlink:href="#DejaVuSans-30" transform="translate(306.445312 0.78125)"/>
      </g>
     </g>
    </g>
    <g id="text_20">
     <!-- log likelihood -->
     <g transform="translate(291.254125 148.704375) rotate(-90) scale(0.12 -0.12)">
      <defs>
       <path id="DejaVuSans-67" d="M 2906 1791 
Q 2906 2416 2648 2759 
Q 2391 3103 1925 3103 
Q 1463 3103 1205 2759 
Q 947 2416 947 1791 
Q 947 1169 1205 825 
Q 1463 481 1925 481 
Q 2391 481 2648 825 
Q 2906 1169 2906 1791 
z
M 3481 434 
Q 3481 -459 3084 -895 
Q 2688 -1331 1869 -1331 
Q 1566 -1331 1297 -1286 
Q 1028 -1241 775 -1147 
L 775 -588 
Q 1028 -725 1275 -790 
Q 1522 -856 1778 -856 
Q 2344 -856 2625 -561 
Q 2906 -266 2906 331 
L 2906 616 
Q 2728 306 2450 153 
Q 2172 0 1784 0 
Q 1141 0 747 490 
Q 353 981 353 1791 
Q 353 2603 747 3093 
Q 1141 3584 1784 3584 
Q 2172 3584 2450 3431 
Q 2728 3278 2906 2969 
L 2906 3500 
L 3481 3500 
L 3481 434 
z
" transform="scale(0.015625)"/>
       <path id="DejaVuSans-6b" d="M 581 4863 
L 1159 4863 
L 1159 1991 
L 2875 3500 
L 3609 3500 
L 1753 1863 
L 3688 0 
L 2938 0 
L 1159 1709 
L 1159 0 
L 581 0 
L 581 4863 
z
" transform="scale(0.015625)"/>
       <path id="DejaVuSans-68" d="M 3513 2113 
L 3513 0 
L 2938 0 
L 2938 2094 
Q 2938 2591 2744 2837 
Q 2550 3084 2163 3084 
Q 1697 3084 1428 2787 
Q 1159 2491 1159 1978 
L 1159 0 
L 581 0 
L 581 4863 
L 1159 4863 
L 1159 2956 
Q 1366 3272 1645 3428 
Q 1925 3584 2291 3584 
Q 2894 3584 3203 3211 
Q 3513 2838 3513 2113 
z
" transform="scale(0.015625)"/>
      </defs>
      <use xlink:href="#DejaVuSans-6c"/>
      <use xlink:href="#DejaVuSans-6f" x="27.783203"/>
      <use xlink:href="#DejaVuSans-67" x="88.964844"/>
      <use xlink:href="#DejaVuSans-20" x="152.441406"/>
      <use xlink:href="#DejaVuSans-6c" x="184.228516"/>
      <use xlink:href="#DejaVuSans-69" x="212.011719"/>
      <use xlink:href="#DejaVuSans-6b" x="239.794922"/>
      <use xlink:href="#DejaVuSans-65" x="294.080078"/>
      <use xlink:href="#DejaVuSans-6c" x="355.603516"/>
      <use xlink:href="#DejaVuSans-69" x="383.386719"/>
      <use xlink:href="#DejaVuSans-68" x="411.169922"/>
      <use xlink:href="#DejaVuSans-6f" x="474.548828"/>
      <use xlink:href="#DejaVuSans-6f" x="535.730469"/>
      <use xlink:href="#DejaVuSans-64" x="596.912109"/>
     </g>
    </g>
    <g id="text_21">
     <!-- $\times\mathdefault{10^{3}}\mathdefault{1.162 \times 10^{5}}$ -->
     <g transform="translate(141.236 22.92) scale(0.1 -0.1)">
      <use xlink:href="#DejaVuSans-d7" transform="translate(0 0.765625)"/>
      <use xlink:href="#DejaVuSans-31" transform="translate(83.789062 0.765625)"/>
      <use xlink:href="#DejaVuSans-30" transform="translate(147.412109 0.765625)"/>
      <use xlink:href="#DejaVuSans-33" transform="translate(211.992188 39.046875) scale(0.7)"/>
      <use xlink:href="#DejaVuSans-2212" transform="translate(259.262695 0.765625)"/>
      <use xlink:href="#DejaVuSans-31" transform="translate(343.051758 0.765625)"/>
      <use xlink:href="#DejaVuSans-2e" transform="translate(406.674805 0.765625)"/>
      <use xlink:href="#DejaVuSans-31" transform="translate(438.461914 0.765625)"/>
      <use xlink:href="#DejaVuSans-36" transform="translate(502.084961 0.765625)"/>
      <use xlink:href="#DejaVuSans-32" transform="translate(565.708008 0.765625)"/>
      <use xlink:href="#DejaVuSans-d7" transform="translate(648.813477 0.765625)"/>
      <use xlink:href="#DejaVuSans-31" transform="translate(752.084961 0.765625)"/>
      <use xlink:href="#DejaVuSans-30" transform="translate(815.708008 0.765625)"/>
      <use xlink:href="#DejaVuSans-35" transform="translate(880.288086 39.046875) scale(0.7)"/>
     </g>
    </g>
   </g>
   <g id="LineCollection_1"/>
   <g id="patch_8">
    <path d="M 225.72 192.24 
L 229.878 192.24 
L 234.036 192.24 
L 234.036 25.92 
L 229.878 25.92 
L 225.72 25.92 
L 225.72 192.24 
z
" style="fill: none; stroke: #000000; stroke-width: 0.8; stroke-linejoin: miter; stroke-linecap: square"/>
   </g>
  </g>
 </g>
 <defs>
  <clipPath id="p2e9c76a8ad">
   <rect x="36" y="25.92" width="178.56" height="166.32"/>
  </clipPath>
  <clipPath id="pd7e23cce7d">
   <rect x="225.72" y="25.92" width="8.316" height="166.32"/>
  </clipPath>
 </defs>
</svg>
