<?xml version="1.0" encoding="utf-8" standalone="no"?>
<!DOCTYPE svg PUBLIC "-//W3C//DTD SVG 1.1//EN"
  "http://www.w3.org/Graphics/SVG/1.1/DTD/svg11.dtd">
<svg xmlns:xlink="http://www.w3.org/1999/xlink" width="288pt" height="216pt" viewBox="0 0 288 216" xmlns="http://www.w3.org/2000/svg" version="1.1">
 <metadata>
  <rdf:RDF xmlns:dc="http://purl.org/dc/elements/1.1/" xmlns:cc="http://creativecommons.org/ns#" xmlns:rdf="http://www.w3.org/1999/02/22-rdf-syntax-ns#">
   <cc:Work>
    <dc:type rdf:resource="http://purl.org/dc/dcmitype/StillImage"/>
    <dc:date>2023-07-18T21:17:44.942439</dc:date>
    <dc:format>image/svg+xml</dc:format>
    <dc:creator>
     <cc:Agent>
      <dc:title>Matplotlib v3.7.1, https://matplotlib.org/</dc:title>
     </cc:Agent>
    </dc:creator>
   </cc:Work>
  </rdf:RDF>
 </metadata>
 <defs>
  <style type="text/css">*{stroke-linejoin: round; stroke-linecap: butt}</style>
 </defs>
 <g id="figure_1">
  <g id="patch_1">
   <path d="M 0 216 
L 288 216 
L 288 0 
L 0 0 
z
" style="fill: #ffffff"/>
  </g>
  <g id="axes_1">
   <g id="patch_2">
    <path d="M 36 192.24 
L 214.56 192.24 
L 214.56 25.92 
L 36 25.92 
z
" style="fill: #ffffff"/>
   </g>
   <g id="PathCollection_1">
    <path d="M 36 186.696 
L 36 181.152 
L 36 175.608 
L 36 170.064 
L 36 164.52 
L 36 158.976 
L 36 153.432 
L 36 147.888 
L 36 142.344 
L 36 136.8 
L 36 131.256 
L 36 125.712 
L 36 120.168 
L 36 114.624 
L 36 109.08 
L 36 103.536 
L 36 97.992 
L 36 92.448 
L 36 86.904 
L 36 81.36 
L 36 75.816 
L 36 70.272 
L 36 64.728 
L 36 59.184 
L 36 53.64 
L 36 48.096 
L 36 42.552 
L 36 37.008 
L 36 31.464 
L 36 25.92 
L 36.321232 25.92 
L 36.214355 31.464 
L 36.162668 37.008 
L 36.132449 42.552 
L 36.112845 48.096 
L 36.099305 53.64 
L 36.089598 59.184 
L 36.082515 64.728 
L 36.077362 70.272 
L 36.07373 75.816 
L 36.071395 81.36 
L 36.070266 86.904 
L 36.070377 92.448 
L 36.071911 97.992 
L 36.075276 103.536 
L 36.081296 109.08 
L 36.091708 114.624 
L 36.110675 120.168 
L 36.150945 125.712 
L 36.278628 131.256 
L 41.952 136.540472 
L 41.998695 136.8 
L 42.009736 142.344 
L 42.03375 147.888 
L 42.120255 153.432 
L 47.904 158.819278 
L 47.977672 158.976 
L 48.129731 164.52 
L 53.856 169.853742 
L 54.088585 170.064 
L 59.808 175.391359 
L 65.76 175.534184 
L 65.971784 175.608 
L 71.712 180.954734 
L 77.664 181.054621 
L 83.616 181.081396 
L 89.568 181.093449 
L 95.52 181.100056 
L 96.364056 181.152 
L 101.472 185.909803 
L 107.424 186.326143 
L 113.376 186.430732 
L 119.328 186.476024 
L 125.28 186.499579 
L 131.232 186.51255 
L 137.184 186.519384 
L 143.136 186.522165 
L 149.088 186.521956 
L 155.04 186.519312 
L 160.992 186.514496 
L 166.944 186.507578 
L 172.896 186.498478 
L 178.848 186.486974 
L 184.8 186.472684 
L 190.752 186.455026 
L 196.704 186.433137 
L 202.656 186.405728 
L 208.608 186.370829 
L 214.56 186.32531 
L 214.56 186.696 
L 214.56 192.24 
L 208.608 192.24 
L 202.656 192.24 
L 196.704 192.24 
L 190.752 192.24 
L 184.8 192.24 
L 178.848 192.24 
L 172.896 192.24 
L 166.944 192.24 
L 160.992 192.24 
L 155.04 192.24 
L 149.088 192.24 
L 143.136 192.24 
L 137.184 192.24 
L 131.232 192.24 
L 125.28 192.24 
L 119.328 192.24 
L 113.376 192.24 
L 107.424 192.24 
L 101.472 192.24 
L 95.52 192.24 
L 89.568 192.24 
L 83.616 192.24 
L 77.664 192.24 
L 71.712 192.24 
L 65.76 192.24 
L 59.808 192.24 
L 53.856 192.24 
L 47.904 192.24 
L 41.952 192.24 
L 36 192.24 
z
" clip-path="url(#p3b7d7af318)" style="fill: #440154"/>
    <path d="M 116.055119 25.92 
L 119.328 25.92 
L 125.28 25.92 
L 131.232 25.92 
L 137.184 25.92 
L 143.136 25.92 
L 149.088 25.92 
L 155.04 25.92 
L 160.992 25.92 
L 166.944 25.92 
L 172.896 25.92 
L 178.848 25.92 
L 184.8 25.92 
L 190.752 25.92 
L 196.704 25.92 
L 202.656 25.92 
L 208.608 25.92 
L 214.56 25.92 
L 214.56 31.464 
L 214.56 37.008 
L 214.56 42.552 
L 214.56 48.096 
L 214.56 53.64 
L 214.56 59.184 
L 214.56 64.728 
L 214.56 70.272 
L 214.56 75.816 
L 214.56 76.615881 
L 208.608 76.155944 
L 202.656 76.02916 
L 201.998484 75.816 
L 196.704 70.884444 
L 190.752 70.552158 
L 189.32821 70.272 
L 184.8 66.054191 
L 178.848 65.072919 
L 175.986356 64.728 
L 172.896 61.849483 
L 166.944 59.547333 
L 165.054148 59.184 
L 160.992 55.400306 
L 155.04 53.952374 
L 154.275885 53.64 
L 149.088 48.807736 
L 143.136 48.327644 
L 142.772529 48.096 
L 137.184 42.890556 
L 136.606333 42.552 
L 131.232 37.546069 
L 130.207553 37.008 
L 125.28 32.418222 
L 123.273898 31.464 
L 119.328 27.788587 
z
" clip-path="url(#p3b7d7af318)" style="fill: #440154"/>
   </g>
   <g id="PathCollection_2">
    <path d="M 36.278628 131.256 
L 36.150945 125.712 
L 36.110675 120.168 
L 36.091708 114.624 
L 36.081296 109.08 
L 36.075276 103.536 
L 36.071911 97.992 
L 36.070377 92.448 
L 36.070266 86.904 
L 36.071395 81.36 
L 36.07373 75.816 
L 36.077362 70.272 
L 36.082515 64.728 
L 36.089598 59.184 
L 36.099305 53.64 
L 36.112845 48.096 
L 36.132449 42.552 
L 36.162668 37.008 
L 36.214355 31.464 
L 36.321232 25.92 
L 41.952 25.92 
L 42.244677 25.92 
L 41.952 28.407099 
L 40.860093 31.464 
L 39.688187 37.008 
L 39.003035 42.552 
L 38.55854 48.096 
L 38.251538 53.64 
L 38.031452 59.184 
L 37.870874 64.728 
L 37.754032 70.272 
L 37.67169 75.816 
L 37.618743 81.36 
L 37.593142 86.904 
L 37.595661 92.448 
L 37.630438 97.992 
L 37.706728 103.536 
L 37.843227 109.08 
L 38.079311 114.624 
L 38.509339 120.168 
L 39.422387 125.712 
L 41.952 130.853697 
L 42.014179 131.256 
L 43.010719 136.8 
L 43.261049 142.344 
L 43.805523 147.888 
L 45.766862 153.432 
L 47.904 155.422641 
L 49.57437 158.976 
L 53.022021 164.52 
L 53.856 165.296811 
L 59.12941 170.064 
L 59.808 170.696074 
L 65.76 173.934368 
L 70.561784 175.608 
L 71.712 176.67937 
L 77.664 178.944114 
L 83.616 179.551183 
L 89.568 179.824473 
L 95.52 179.974277 
L 101.472 180.354229 
L 107.424 180.754074 
L 113.376 181.058936 
L 115.828994 181.152 
L 119.328 181.708479 
L 125.28 182.242527 
L 131.232 182.53662 
L 137.184 182.691577 
L 143.136 182.75462 
L 149.088 182.74988 
L 155.04 182.689932 
L 160.992 182.58074 
L 166.944 182.423897 
L 172.896 182.217574 
L 178.848 181.956729 
L 184.8 181.63273 
L 190.752 181.232381 
L 191.788335 181.152 
L 196.704 181.058065 
L 202.656 180.938566 
L 208.608 180.81423 
L 214.56 180.685952 
L 214.56 181.152 
L 214.56 186.32531 
L 208.608 186.370829 
L 202.656 186.405728 
L 196.704 186.433137 
L 190.752 186.455026 
L 184.8 186.472684 
L 178.848 186.486974 
L 172.896 186.498478 
L 166.944 186.507578 
L 160.992 186.514496 
L 155.04 186.519312 
L 149.088 186.521956 
L 143.136 186.522165 
L 137.184 186.519384 
L 131.232 186.51255 
L 125.28 186.499579 
L 119.328 186.476024 
L 113.376 186.430732 
L 107.424 186.326143 
L 101.472 185.909803 
L 96.364056 181.152 
L 95.52 181.100056 
L 89.568 181.093449 
L 83.616 181.081396 
L 77.664 181.054621 
L 71.712 180.954734 
L 65.971784 175.608 
L 65.76 175.534184 
L 59.808 175.391359 
L 54.088585 170.064 
L 53.856 169.853742 
L 48.129731 164.52 
L 47.977672 158.976 
L 47.904 158.819278 
L 42.120255 153.432 
L 42.03375 147.888 
L 42.009736 142.344 
L 41.998695 136.8 
L 41.952 136.540472 
z
" clip-path="url(#p3b7d7af318)" style="fill: #470d60"/>
    <path d="M 107.785673 25.92 
L 113.376 25.92 
L 116.055119 25.92 
L 119.328 27.788587 
L 123.273898 31.464 
L 125.28 32.418222 
L 130.207553 37.008 
L 131.232 37.546069 
L 136.606333 42.552 
L 137.184 42.890556 
L 142.772529 48.096 
L 143.136 48.327644 
L 149.088 48.807736 
L 154.275885 53.64 
L 155.04 53.952374 
L 160.992 55.400306 
L 165.054148 59.184 
L 166.944 59.547333 
L 172.896 61.849483 
L 175.986356 64.728 
L 178.848 65.072919 
L 184.8 66.054191 
L 189.32821 70.272 
L 190.752 70.552158 
L 196.704 70.884444 
L 201.998484 75.816 
L 202.656 76.02916 
L 208.608 76.155944 
L 214.56 76.615881 
L 214.56 81.36 
L 214.56 84.543304 
L 208.608 82.661784 
L 204.702724 81.36 
L 202.656 80.648989 
L 196.704 78.613605 
L 190.752 76.416212 
L 189.207913 75.816 
L 184.8 74.108054 
L 178.848 71.660777 
L 175.66023 70.272 
L 172.896 69.066361 
L 166.944 66.314907 
L 163.712801 64.728 
L 160.992 63.384713 
L 155.04 60.262629 
L 153.101379 59.184 
L 149.088 56.930106 
L 143.600625 53.64 
L 143.136 53.348077 
L 137.184 49.535655 
L 135.075856 48.096 
L 131.232 45.427066 
L 127.33555 42.552 
L 125.28 41.005207 
L 120.267138 37.008 
L 119.328 36.242004 
L 113.779111 31.464 
L 113.376 31.107869 
z
" clip-path="url(#p3b7d7af318)" style="fill: #470d60"/>
   </g>
   <g id="PathCollection_3">
    <path d="M 39.422387 125.712 
L 38.509339 120.168 
L 38.079311 114.624 
L 37.843227 109.08 
L 37.706728 103.536 
L 37.630438 97.992 
L 37.595661 92.448 
L 37.593142 86.904 
L 37.618743 81.36 
L 37.67169 75.816 
L 37.754032 70.272 
L 37.870874 64.728 
L 38.031452 59.184 
L 38.251538 53.64 
L 38.55854 48.096 
L 39.003035 42.552 
L 39.688187 37.008 
L 40.860093 31.464 
L 41.952 28.407099 
L 42.244677 25.92 
L 43.77522 25.92 
L 43.1007 31.464 
L 42.479161 37.008 
L 41.952 42.159006 
L 41.873621 42.552 
L 41.004235 48.096 
L 40.403772 53.64 
L 39.973307 59.184 
L 39.659232 64.728 
L 39.430703 70.272 
L 39.26965 75.816 
L 39.16609 81.36 
L 39.116019 86.904 
L 39.120946 92.448 
L 39.188966 97.992 
L 39.33818 103.536 
L 39.605159 109.08 
L 40.066913 114.624 
L 40.908003 120.168 
L 41.952 123.81298 
L 42.19052 125.712 
L 43.041924 131.256 
L 44.022744 136.8 
L 44.512363 142.344 
L 45.577295 147.888 
L 47.904 152.103292 
L 48.506722 153.432 
L 51.171068 158.976 
L 53.856 162.68855 
L 55.482127 164.52 
L 59.808 168.502322 
L 62.062512 170.064 
L 65.76 172.334553 
L 71.712 174.52495 
L 75.065427 175.608 
L 77.664 176.833607 
L 83.616 178.020971 
L 89.568 178.555496 
L 95.52 178.848498 
L 101.472 179.247405 
L 107.424 179.631628 
L 113.376 179.921633 
L 119.328 180.134959 
L 125.28 180.285509 
L 131.232 180.384412 
L 137.184 180.440644 
L 143.136 180.461499 
L 149.088 180.452942 
L 155.04 180.419883 
L 160.992 180.366382 
L 166.944 180.295816 
L 172.896 180.211004 
L 178.848 180.114311 
L 184.8 180.007727 
L 190.752 179.892932 
L 196.704 179.771349 
L 202.656 179.644187 
L 208.608 179.512476 
L 214.56 179.377093 
L 214.56 180.685952 
L 208.608 180.81423 
L 202.656 180.938566 
L 196.704 181.058065 
L 191.788335 181.152 
L 190.752 181.232381 
L 184.8 181.63273 
L 178.848 181.956729 
L 172.896 182.217574 
L 166.944 182.423897 
L 160.992 182.58074 
L 155.04 182.689932 
L 149.088 182.74988 
L 143.136 182.75462 
L 137.184 182.691577 
L 131.232 182.53662 
L 125.28 182.242527 
L 119.328 181.708479 
L 115.828994 181.152 
L 113.376 181.058936 
L 107.424 180.754074 
L 101.472 180.354229 
L 95.52 179.974277 
L 89.568 179.824473 
L 83.616 179.551183 
L 77.664 178.944114 
L 71.712 176.67937 
L 70.561784 175.608 
L 65.76 173.934368 
L 59.808 170.696074 
L 59.12941 170.064 
L 53.856 165.296811 
L 53.022021 164.52 
L 49.57437 158.976 
L 47.904 155.422641 
L 45.766862 153.432 
L 43.805523 147.888 
L 43.261049 142.344 
L 43.010719 136.8 
L 42.014179 131.256 
L 41.952 130.853697 
z
" clip-path="url(#p3b7d7af318)" style="fill: #482374"/>
    <path d="M 102.039153 25.92 
L 107.424 25.92 
L 107.785673 25.92 
L 113.376 31.107869 
L 113.779111 31.464 
L 119.328 36.242004 
L 120.267138 37.008 
L 125.28 41.005207 
L 127.33555 42.552 
L 131.232 45.427066 
L 135.075856 48.096 
L 137.184 49.535655 
L 143.136 53.348077 
L 143.600625 53.64 
L 149.088 56.930106 
L 153.101379 59.184 
L 155.04 60.262629 
L 160.992 63.384713 
L 163.712801 64.728 
L 166.944 66.314907 
L 172.896 69.066361 
L 175.66023 70.272 
L 178.848 71.660777 
L 184.8 74.108054 
L 189.207913 75.816 
L 190.752 76.416212 
L 196.704 78.613605 
L 202.656 80.648989 
L 204.702724 81.36 
L 208.608 82.661784 
L 214.56 84.543304 
L 214.56 86.904 
L 214.56 88.976705 
L 208.608 87.099681 
L 208.015747 86.904 
L 202.656 85.156523 
L 196.704 83.101083 
L 191.946101 81.36 
L 190.752 80.926426 
L 184.8 78.652246 
L 178.848 76.228738 
L 177.886049 75.816 
L 172.896 73.680364 
L 166.944 70.963884 
L 165.510064 70.272 
L 160.992 68.087333 
L 155.04 65.01271 
L 154.518053 64.728 
L 149.088 61.746252 
L 144.721729 59.184 
L 143.136 58.24391 
L 137.184 54.49736 
L 135.899017 53.64 
L 131.232 50.480004 
L 127.920781 48.096 
L 125.28 46.160139 
L 120.637136 42.552 
L 119.328 41.512758 
L 113.95407 37.008 
L 113.376 36.511396 
L 107.782717 31.464 
L 107.424 31.131146 
z
" clip-path="url(#p3b7d7af318)" style="fill: #482374"/>
   </g>
   <g id="PathCollection_4">
    <path d="M 40.908003 120.168 
L 40.066913 114.624 
L 39.605159 109.08 
L 39.33818 103.536 
L 39.188966 97.992 
L 39.120946 92.448 
L 39.116019 86.904 
L 39.16609 81.36 
L 39.26965 75.816 
L 39.430703 70.272 
L 39.659232 64.728 
L 39.973307 59.184 
L 40.403772 53.64 
L 41.004235 48.096 
L 41.873621 42.552 
L 41.952 42.159006 
L 42.479161 37.008 
L 43.1007 31.464 
L 43.77522 25.92 
L 45.305762 25.92 
L 44.602335 31.464 
L 43.952179 37.008 
L 43.35724 42.552 
L 42.819656 48.096 
L 42.341773 53.64 
L 41.952 58.832966 
L 41.915162 59.184 
L 41.447591 64.728 
L 41.107373 70.272 
L 40.867611 75.816 
L 40.713438 81.36 
L 40.638895 86.904 
L 40.64623 92.448 
L 40.747493 97.992 
L 40.969632 103.536 
L 41.36709 109.08 
L 41.952 113.878471 
L 42.008781 114.624 
L 42.559822 120.168 
L 43.242387 125.712 
L 44.069669 131.256 
L 45.034768 136.8 
L 45.763676 142.344 
L 47.349068 147.888 
L 47.904 148.89337 
L 49.962792 153.432 
L 52.767766 158.976 
L 53.856 160.48074 
L 57.442422 164.52 
L 59.808 166.69771 
L 64.667736 170.064 
L 65.76 170.734737 
L 71.712 173.079743 
L 77.664 174.984905 
L 80.169169 175.608 
L 83.616 176.490758 
L 89.568 177.28652 
L 95.52 177.722718 
L 101.472 178.140581 
L 107.424 178.509181 
L 113.376 178.784331 
L 119.328 178.983519 
L 125.28 179.120606 
L 131.232 179.206678 
L 137.184 179.250672 
L 143.136 179.259844 
L 149.088 179.240127 
L 155.04 179.196397 
L 160.992 179.132685 
L 166.944 179.052341 
L 172.896 178.958158 
L 178.848 178.852476 
L 184.8 178.737265 
L 190.752 178.614182 
L 196.704 178.484633 
L 202.656 178.349809 
L 208.608 178.210722 
L 214.56 178.068235 
L 214.56 179.377093 
L 208.608 179.512476 
L 202.656 179.644187 
L 196.704 179.771349 
L 190.752 179.892932 
L 184.8 180.007727 
L 178.848 180.114311 
L 172.896 180.211004 
L 166.944 180.295816 
L 160.992 180.366382 
L 155.04 180.419883 
L 149.088 180.452942 
L 143.136 180.461499 
L 137.184 180.440644 
L 131.232 180.384412 
L 125.28 180.285509 
L 119.328 180.134959 
L 113.376 179.921633 
L 107.424 179.631628 
L 101.472 179.247405 
L 95.52 178.848498 
L 89.568 178.555496 
L 83.616 178.020971 
L 77.664 176.833607 
L 75.065427 175.608 
L 71.712 174.52495 
L 65.76 172.334553 
L 62.062512 170.064 
L 59.808 168.502322 
L 55.482127 164.52 
L 53.856 162.68855 
L 51.171068 158.976 
L 48.506722 153.432 
L 47.904 152.103292 
L 45.577295 147.888 
L 44.512363 142.344 
L 44.022744 136.8 
L 43.041924 131.256 
L 42.19052 125.712 
L 41.952 123.81298 
z
" clip-path="url(#p3b7d7af318)" style="fill: #453781"/>
    <path d="M 96.290395 25.92 
L 101.472 25.92 
L 102.039153 25.92 
L 107.424 31.131146 
L 107.782717 31.464 
L 113.376 36.511396 
L 113.95407 37.008 
L 119.328 41.512758 
L 120.637136 42.552 
L 125.28 46.160139 
L 127.920781 48.096 
L 131.232 50.480004 
L 135.899017 53.64 
L 137.184 54.49736 
L 143.136 58.24391 
L 144.721729 59.184 
L 149.088 61.746252 
L 154.518053 64.728 
L 155.04 65.01271 
L 160.992 68.087333 
L 165.510064 70.272 
L 166.944 70.963884 
L 172.896 73.680364 
L 177.886049 75.816 
L 178.848 76.228738 
L 184.8 78.652246 
L 190.752 80.926426 
L 191.946101 81.36 
L 196.704 83.101083 
L 202.656 85.156523 
L 208.015747 86.904 
L 208.608 87.099681 
L 214.56 88.976705 
L 214.56 92.448 
L 214.56 93.502308 
L 211.206786 92.448 
L 208.608 91.646836 
L 202.656 89.716134 
L 196.704 87.666776 
L 194.601504 86.904 
L 190.752 85.525561 
L 184.8 83.268209 
L 180.067721 81.36 
L 178.848 80.87175 
L 172.896 78.358612 
L 167.262877 75.816 
L 166.944 75.672373 
L 160.992 72.846001 
L 155.928378 70.272 
L 155.04 69.819164 
L 149.088 66.609769 
L 145.816598 64.728 
L 143.136 63.174438 
L 137.184 59.497352 
L 136.703877 59.184 
L 131.232 55.568169 
L 128.489744 53.64 
L 125.28 51.346505 
L 120.990987 48.096 
L 119.328 46.810662 
L 114.111497 42.552 
L 113.376 41.937474 
L 107.759548 37.008 
L 107.424 36.705509 
L 101.847389 31.464 
L 101.472 31.100252 
z
" clip-path="url(#p3b7d7af318)" style="fill: #453781"/>
   </g>
   <g id="PathCollection_5">
    <path d="M 41.36709 109.08 
L 40.969632 103.536 
L 40.747493 97.992 
L 40.64623 92.448 
L 40.638895 86.904 
L 40.713438 81.36 
L 40.867611 75.816 
L 41.107373 70.272 
L 41.447591 64.728 
L 41.915162 59.184 
L 41.952 58.832966 
L 42.341773 53.64 
L 42.819656 48.096 
L 43.35724 42.552 
L 43.952179 37.008 
L 44.602335 31.464 
L 45.305762 25.92 
L 46.836305 25.92 
L 46.103971 31.464 
L 45.425197 37.008 
L 44.801926 42.552 
L 44.236292 48.096 
L 43.730638 53.64 
L 43.287542 59.184 
L 42.909846 64.728 
L 42.600688 70.272 
L 42.36354 75.816 
L 42.202259 81.36 
L 42.121139 86.904 
L 42.124987 92.448 
L 42.219204 97.992 
L 42.409905 103.536 
L 42.704056 109.08 
L 43.109671 114.624 
L 43.636071 120.168 
L 44.294254 125.712 
L 45.097414 131.256 
L 46.046793 136.8 
L 47.01499 142.344 
L 47.904 145.162956 
L 48.939266 147.888 
L 51.418861 153.432 
L 53.856 158.08982 
L 54.509121 158.976 
L 59.402716 164.52 
L 59.808 164.893097 
L 65.76 168.97156 
L 67.832954 170.064 
L 71.712 171.634536 
L 77.664 173.498808 
L 83.616 174.962517 
L 86.992518 175.608 
L 89.568 176.017544 
L 95.52 176.596939 
L 101.472 177.033757 
L 107.424 177.386735 
L 113.376 177.647029 
L 119.328 177.832079 
L 125.28 177.955702 
L 131.232 178.028943 
L 137.184 178.060699 
L 143.136 178.058189 
L 149.088 178.027312 
L 155.04 177.972911 
L 160.992 177.898989 
L 166.944 177.808866 
L 172.896 177.705312 
L 178.848 177.590642 
L 184.8 177.466802 
L 190.752 177.335433 
L 196.704 177.197918 
L 202.656 177.055431 
L 208.608 176.908968 
L 214.56 176.759376 
L 214.56 178.068235 
L 208.608 178.210722 
L 202.656 178.349809 
L 196.704 178.484633 
L 190.752 178.614182 
L 184.8 178.737265 
L 178.848 178.852476 
L 172.896 178.958158 
L 166.944 179.052341 
L 160.992 179.132685 
L 155.04 179.196397 
L 149.088 179.240127 
L 143.136 179.259844 
L 137.184 179.250672 
L 131.232 179.206678 
L 125.28 179.120606 
L 119.328 178.983519 
L 113.376 178.784331 
L 107.424 178.509181 
L 101.472 178.140581 
L 95.52 177.722718 
L 89.568 177.28652 
L 83.616 176.490758 
L 80.169169 175.608 
L 77.664 174.984905 
L 71.712 173.079743 
L 65.76 170.734737 
L 64.667736 170.064 
L 59.808 166.69771 
L 57.442422 164.52 
L 53.856 160.48074 
L 52.767766 158.976 
L 49.962792 153.432 
L 47.904 148.89337 
L 47.349068 147.888 
L 45.763676 142.344 
L 45.034768 136.8 
L 44.069669 131.256 
L 43.242387 125.712 
L 42.559822 120.168 
L 42.008781 114.624 
L 41.952 113.878471 
z
" clip-path="url(#p3b7d7af318)" style="fill: #3e4989"/>
    <path d="M 90.436547 25.92 
L 95.52 25.92 
L 96.290395 25.92 
L 101.472 31.100252 
L 101.847389 31.464 
L 107.424 36.705509 
L 107.759548 37.008 
L 113.376 41.937474 
L 114.111497 42.552 
L 119.328 46.810662 
L 120.990987 48.096 
L 125.28 51.346505 
L 128.489744 53.64 
L 131.232 55.568169 
L 136.703877 59.184 
L 137.184 59.497352 
L 143.136 63.174438 
L 145.816598 64.728 
L 149.088 66.609769 
L 155.04 69.819164 
L 155.928378 70.272 
L 160.992 72.846001 
L 166.944 75.672373 
L 167.262877 75.816 
L 172.896 78.358612 
L 178.848 80.87175 
L 180.067721 81.36 
L 184.8 83.268209 
L 190.752 85.525561 
L 194.601504 86.904 
L 196.704 87.666776 
L 202.656 89.716134 
L 208.608 91.646836 
L 211.206786 92.448 
L 214.56 93.502308 
L 214.56 97.992 
L 214.56 98.146044 
L 214.071054 97.992 
L 208.608 96.317856 
L 202.656 94.385568 
L 197.035282 92.448 
L 196.704 92.336028 
L 190.752 90.224797 
L 184.8 87.975439 
L 182.120578 86.904 
L 178.848 85.61194 
L 172.896 83.118761 
L 168.951866 81.36 
L 166.944 80.470586 
L 160.992 77.676742 
L 157.275088 75.816 
L 155.04 74.698266 
L 149.088 71.535294 
L 146.851851 70.272 
L 143.136 68.163728 
L 137.471943 64.728 
L 137.184 64.551844 
L 131.232 60.704781 
L 129.019871 59.184 
L 125.28 56.577184 
L 121.309222 53.64 
L 119.328 52.148262 
L 114.234223 48.096 
L 113.376 47.398362 
L 107.700628 42.552 
L 107.424 42.309694 
L 101.616933 37.008 
L 101.472 36.871733 
L 95.892925 31.464 
L 95.52 31.090188 
z
" clip-path="url(#p3b7d7af318)" style="fill: #3e4989"/>
   </g>
   <g id="PathCollection_6">
    <path d="M 47.01499 142.344 
L 46.046793 136.8 
L 45.097414 131.256 
L 44.294254 125.712 
L 43.636071 120.168 
L 43.109671 114.624 
L 42.704056 109.08 
L 42.409905 103.536 
L 42.219204 97.992 
L 42.124987 92.448 
L 42.121139 86.904 
L 42.202259 81.36 
L 42.36354 75.816 
L 42.600688 70.272 
L 42.909846 64.728 
L 43.287542 59.184 
L 43.730638 53.64 
L 44.236292 48.096 
L 44.801926 42.552 
L 45.425197 37.008 
L 46.103971 31.464 
L 46.836305 25.92 
L 47.904 25.92 
L 48.908417 25.92 
L 47.904 29.265603 
L 47.605607 31.464 
L 46.898215 37.008 
L 46.246612 42.552 
L 45.652928 48.096 
L 45.119502 53.64 
L 44.64891 59.184 
L 44.243989 64.728 
L 43.907874 70.272 
L 43.644035 75.816 
L 43.456325 81.36 
L 43.349037 86.904 
L 43.326973 92.448 
L 43.395536 97.992 
L 43.560836 103.536 
L 43.829839 109.08 
L 44.21056 114.624 
L 44.712321 120.168 
L 45.346121 125.712 
L 46.125158 131.256 
L 47.058817 136.8 
L 47.904 140.916748 
L 48.355871 142.344 
L 50.446657 147.888 
L 52.874931 153.432 
L 53.856 155.307004 
L 56.560078 158.976 
L 59.808 162.66975 
L 61.994156 164.52 
L 65.76 167.090445 
L 71.402453 170.064 
L 71.712 170.189329 
L 77.664 172.012711 
L 83.616 173.436962 
L 89.568 174.549035 
L 95.52 175.413489 
L 97.285854 175.608 
L 101.472 175.926932 
L 107.424 176.264289 
L 113.376 176.509726 
L 119.328 176.680638 
L 125.28 176.790799 
L 131.232 176.851209 
L 137.184 176.870726 
L 143.136 176.856534 
L 149.088 176.814496 
L 155.04 176.749425 
L 160.992 176.665292 
L 166.944 176.565391 
L 172.896 176.452465 
L 178.848 176.328807 
L 184.8 176.19634 
L 190.752 176.056683 
L 196.704 175.911202 
L 202.656 175.761052 
L 208.577752 175.608 
L 208.608 175.606736 
L 214.56 175.354041 
L 214.56 175.608 
L 214.56 176.759376 
L 208.608 176.908968 
L 202.656 177.055431 
L 196.704 177.197918 
L 190.752 177.335433 
L 184.8 177.466802 
L 178.848 177.590642 
L 172.896 177.705312 
L 166.944 177.808866 
L 160.992 177.898989 
L 155.04 177.972911 
L 149.088 178.027312 
L 143.136 178.058189 
L 137.184 178.060699 
L 131.232 178.028943 
L 125.28 177.955702 
L 119.328 177.832079 
L 113.376 177.647029 
L 107.424 177.386735 
L 101.472 177.033757 
L 95.52 176.596939 
L 89.568 176.017544 
L 86.992518 175.608 
L 83.616 174.962517 
L 77.664 173.498808 
L 71.712 171.634536 
L 67.832954 170.064 
L 65.76 168.97156 
L 59.808 164.893097 
L 59.402716 164.52 
L 54.509121 158.976 
L 53.856 158.08982 
L 51.418861 153.432 
L 48.939266 147.888 
L 47.904 145.162956 
z
" clip-path="url(#p3b7d7af318)" style="fill: #375b8d"/>
    <path d="M 84.30157 25.92 
L 89.568 25.92 
L 90.436547 25.92 
L 95.52 31.090188 
L 95.892925 31.464 
L 101.472 36.871733 
L 101.616933 37.008 
L 107.424 42.309694 
L 107.700628 42.552 
L 113.376 47.398362 
L 114.234223 48.096 
L 119.328 52.148262 
L 121.309222 53.64 
L 125.28 56.577184 
L 129.019871 59.184 
L 131.232 60.704781 
L 137.184 64.551844 
L 137.471943 64.728 
L 143.136 68.163728 
L 146.851851 70.272 
L 149.088 71.535294 
L 155.04 74.698266 
L 157.275088 75.816 
L 160.992 77.676742 
L 166.944 80.470586 
L 168.951866 81.36 
L 172.896 83.118761 
L 178.848 85.61194 
L 182.120578 86.904 
L 184.8 87.975439 
L 190.752 90.224797 
L 196.704 92.336028 
L 197.035282 92.448 
L 202.656 94.385568 
L 208.608 96.317856 
L 214.071054 97.992 
L 214.56 98.146044 
L 214.56 102.975447 
L 208.608 101.143374 
L 202.656 99.197843 
L 199.167118 97.992 
L 196.704 97.164125 
L 190.752 95.052904 
L 184.8 92.800542 
L 183.915545 92.448 
L 178.848 90.467155 
L 172.896 87.984313 
L 170.453653 86.904 
L 166.944 85.370476 
L 160.992 82.600434 
L 158.484069 81.36 
L 155.04 79.666267 
L 149.088 76.541545 
L 147.783689 75.816 
L 143.136 73.229663 
L 138.170304 70.272 
L 137.184 69.68144 
L 131.232 65.906246 
L 129.48175 64.728 
L 125.28 61.867966 
L 121.566626 59.184 
L 119.328 57.54077 
L 114.300139 53.64 
L 113.376 52.90878 
L 107.586056 48.096 
L 107.424 47.958041 
L 101.472 42.683402 
L 101.327771 42.552 
L 95.52 37.092396 
L 95.431221 37.008 
L 89.79758 31.464 
L 89.568 31.229642 
z
" clip-path="url(#p3b7d7af318)" style="fill: #375b8d"/>
   </g>
   <g id="PathCollection_7">
    <path d="M 47.058817 136.8 
L 46.125158 131.256 
L 45.346121 125.712 
L 44.712321 120.168 
L 44.21056 114.624 
L 43.829839 109.08 
L 43.560836 103.536 
L 43.395536 97.992 
L 43.326973 92.448 
L 43.349037 86.904 
L 43.456325 81.36 
L 43.644035 75.816 
L 43.907874 70.272 
L 44.243989 64.728 
L 44.64891 59.184 
L 45.119502 53.64 
L 45.652928 48.096 
L 46.246612 42.552 
L 46.898215 37.008 
L 47.605607 31.464 
L 47.904 29.265603 
L 48.908417 25.92 
L 52.229818 25.92 
L 50.465363 31.464 
L 48.880202 37.008 
L 47.904 40.794456 
L 47.691298 42.552 
L 47.069564 48.096 
L 46.508367 53.64 
L 46.010278 59.184 
L 45.578132 64.728 
L 45.215061 70.272 
L 44.924531 75.816 
L 44.710392 81.36 
L 44.576935 86.904 
L 44.52896 92.448 
L 44.571867 97.992 
L 44.711766 103.536 
L 44.955622 109.08 
L 45.311449 114.624 
L 45.788571 120.168 
L 46.397988 125.712 
L 47.152903 131.256 
L 47.904 135.77957 
L 48.170399 136.8 
L 49.916533 142.344 
L 51.954049 147.888 
L 53.856 152.293082 
L 54.556606 153.432 
L 58.611035 158.976 
L 59.808 160.337267 
L 64.750092 164.52 
L 65.76 165.209331 
L 71.712 168.277026 
L 76.150964 170.064 
L 77.664 170.526614 
L 83.616 171.911408 
L 89.568 172.985443 
L 95.52 173.813253 
L 101.472 174.443754 
L 107.424 174.91465 
L 113.376 175.255411 
L 119.328 175.48935 
L 124.188881 175.608 
L 125.28 175.625895 
L 131.232 175.673474 
L 137.184 175.680753 
L 143.136 175.65488 
L 148.386765 175.608 
L 149.088 175.598232 
L 155.04 175.480562 
L 160.992 175.332828 
L 166.944 175.15983 
L 172.896 174.965609 
L 178.848 174.753581 
L 184.8 174.526647 
L 190.752 174.287276 
L 196.704 174.037579 
L 202.656 173.779362 
L 208.608 173.514176 
L 214.56 173.243354 
L 214.56 175.354041 
L 208.608 175.606736 
L 208.577752 175.608 
L 202.656 175.761052 
L 196.704 175.911202 
L 190.752 176.056683 
L 184.8 176.19634 
L 178.848 176.328807 
L 172.896 176.452465 
L 166.944 176.565391 
L 160.992 176.665292 
L 155.04 176.749425 
L 149.088 176.814496 
L 143.136 176.856534 
L 137.184 176.870726 
L 131.232 176.851209 
L 125.28 176.790799 
L 119.328 176.680638 
L 113.376 176.509726 
L 107.424 176.264289 
L 101.472 175.926932 
L 97.285854 175.608 
L 95.52 175.413489 
L 89.568 174.549035 
L 83.616 173.436962 
L 77.664 172.012711 
L 71.712 170.189329 
L 71.402453 170.064 
L 65.76 167.090445 
L 61.994156 164.52 
L 59.808 162.66975 
L 56.560078 158.976 
L 53.856 155.307004 
L 52.874931 153.432 
L 50.446657 147.888 
L 48.355871 142.344 
L 47.904 140.916748 
z
" clip-path="url(#p3b7d7af318)" style="fill: #2f6b8e"/>
    <path d="M 77.482468 25.92 
L 77.664 25.92 
L 83.616 25.92 
L 84.30157 25.92 
L 89.568 31.229642 
L 89.79758 31.464 
L 95.431221 37.008 
L 95.52 37.092396 
L 101.327771 42.552 
L 101.472 42.683402 
L 107.424 47.958041 
L 107.586056 48.096 
L 113.376 52.90878 
L 114.300139 53.64 
L 119.328 57.54077 
L 121.566626 59.184 
L 125.28 61.867966 
L 129.48175 64.728 
L 131.232 65.906246 
L 137.184 69.68144 
L 138.170304 70.272 
L 143.136 73.229663 
L 147.783689 75.816 
L 149.088 76.541545 
L 155.04 79.666267 
L 158.484069 81.36 
L 160.992 82.600434 
L 166.944 85.370476 
L 170.453653 86.904 
L 172.896 87.984313 
L 178.848 90.467155 
L 183.915545 92.448 
L 184.8 92.800542 
L 190.752 95.052904 
L 196.704 97.164125 
L 199.167118 97.992 
L 202.656 99.197843 
L 208.608 101.143374 
L 214.56 102.975447 
L 214.56 103.536 
L 214.56 108.031712 
L 208.608 106.175962 
L 202.656 104.201804 
L 200.751523 103.536 
L 196.704 102.174535 
L 190.752 100.050934 
L 185.343177 97.992 
L 184.8 97.790964 
L 178.848 95.472237 
L 172.896 92.987804 
L 171.672314 92.448 
L 166.944 90.401994 
L 160.992 87.645243 
L 159.481541 86.904 
L 155.04 84.749287 
L 149.088 81.653222 
L 148.554443 81.36 
L 143.136 78.395394 
L 138.737073 75.816 
L 137.184 74.904148 
L 131.232 71.193469 
L 129.836936 70.272 
L 125.28 67.238671 
L 121.730423 64.728 
L 119.328 63.007035 
L 114.280665 59.184 
L 113.376 58.486758 
L 107.424 53.668343 
L 107.390193 53.64 
L 101.472 48.554184 
L 100.953362 48.096 
L 95.52 43.15061 
L 94.868364 42.552 
L 89.568 37.508553 
L 89.031871 37.008 
L 83.616 31.74018 
L 83.312832 31.464 
L 77.664 26.068935 
z
" clip-path="url(#p3b7d7af318)" style="fill: #2f6b8e"/>
   </g>
   <g id="PathCollection_8">
    <path d="M 47.152903 131.256 
L 46.397988 125.712 
L 45.788571 120.168 
L 45.311449 114.624 
L 44.955622 109.08 
L 44.711766 103.536 
L 44.571867 97.992 
L 44.52896 92.448 
L 44.576935 86.904 
L 44.710392 81.36 
L 44.924531 75.816 
L 45.215061 70.272 
L 45.578132 64.728 
L 46.010278 59.184 
L 46.508367 53.64 
L 47.069564 48.096 
L 47.691298 42.552 
L 47.904 40.794456 
L 48.880202 37.008 
L 50.465363 31.464 
L 52.229818 25.92 
L 53.856 25.92 
L 58.475238 25.92 
L 53.856 30.874611 
L 53.661921 31.464 
L 51.95782 37.008 
L 50.431757 42.552 
L 49.077683 48.096 
L 47.904 53.575029 
L 47.897232 53.64 
L 47.371646 59.184 
L 46.912276 64.728 
L 46.522247 70.272 
L 46.205026 75.816 
L 45.964458 81.36 
L 45.804832 86.904 
L 45.730947 92.448 
L 45.748199 97.992 
L 45.862697 103.536 
L 46.081405 109.08 
L 46.412339 114.624 
L 46.864821 120.168 
L 47.449856 125.712 
L 47.904 129.126928 
L 48.354399 131.256 
L 49.78632 136.8 
L 51.477195 142.344 
L 53.46144 147.888 
L 53.856 148.801834 
L 56.704251 153.432 
L 59.808 157.735948 
L 61.024334 158.976 
L 65.76 162.96219 
L 68.18708 164.52 
L 71.712 166.32037 
L 77.664 168.665195 
L 82.220258 170.064 
L 83.616 170.385853 
L 89.568 171.421851 
L 95.52 172.213017 
L 101.472 172.808231 
L 107.424 173.245152 
L 113.376 173.553203 
L 119.328 173.755644 
L 125.28 173.871058 
L 131.232 173.914428 
L 137.184 173.89793 
L 143.136 173.831536 
L 149.088 173.723462 
L 155.04 173.580523 
L 160.992 173.408397 
L 166.944 173.211841 
L 172.896 172.994857 
L 178.848 172.760825 
L 184.8 172.512611 
L 190.752 172.25265 
L 196.704 171.983022 
L 202.656 171.705503 
L 208.608 171.421615 
L 214.56 171.132666 
L 214.56 173.243354 
L 208.608 173.514176 
L 202.656 173.779362 
L 196.704 174.037579 
L 190.752 174.287276 
L 184.8 174.526647 
L 178.848 174.753581 
L 172.896 174.965609 
L 166.944 175.15983 
L 160.992 175.332828 
L 155.04 175.480562 
L 149.088 175.598232 
L 148.386765 175.608 
L 143.136 175.65488 
L 137.184 175.680753 
L 131.232 175.673474 
L 125.28 175.625895 
L 124.188881 175.608 
L 119.328 175.48935 
L 113.376 175.255411 
L 107.424 174.91465 
L 101.472 174.443754 
L 95.52 173.813253 
L 89.568 172.985443 
L 83.616 171.911408 
L 77.664 170.526614 
L 76.150964 170.064 
L 71.712 168.277026 
L 65.76 165.209331 
L 64.750092 164.52 
L 59.808 160.337267 
L 58.611035 158.976 
L 54.556606 153.432 
L 53.856 152.293082 
L 51.954049 147.888 
L 49.916533 142.344 
L 48.170399 136.8 
L 47.904 135.77957 
z
" clip-path="url(#p3b7d7af318)" style="fill: #297a8e"/>
    <path d="M 67.460031 25.92 
L 71.712 25.92 
L 77.482468 25.92 
L 77.664 26.068935 
L 83.312832 31.464 
L 83.616 31.74018 
L 89.031871 37.008 
L 89.568 37.508553 
L 94.868364 42.552 
L 95.52 43.15061 
L 100.953362 48.096 
L 101.472 48.554184 
L 107.390193 53.64 
L 107.424 53.668343 
L 113.376 58.486758 
L 114.280665 59.184 
L 119.328 63.007035 
L 121.730423 64.728 
L 125.28 67.238671 
L 129.836936 70.272 
L 131.232 71.193469 
L 137.184 74.904148 
L 138.737073 75.816 
L 143.136 78.395394 
L 148.554443 81.36 
L 149.088 81.653222 
L 155.04 84.749287 
L 159.481541 86.904 
L 160.992 87.645243 
L 166.944 90.401994 
L 171.672314 92.448 
L 172.896 92.987804 
L 178.848 95.472237 
L 184.8 97.790964 
L 185.343177 97.992 
L 190.752 100.050934 
L 196.704 102.174535 
L 200.751523 103.536 
L 202.656 104.201804 
L 208.608 106.175962 
L 214.56 108.031712 
L 214.56 109.08 
L 214.56 113.396072 
L 208.608 111.498088 
L 202.656 109.474206 
L 201.554841 109.08 
L 196.704 107.432734 
L 190.752 105.280528 
L 186.226235 103.536 
L 184.8 103.00735 
L 178.848 100.677584 
L 172.896 98.176361 
L 172.479967 97.992 
L 166.944 95.607132 
L 160.992 92.850723 
L 160.169555 92.448 
L 155.04 89.983008 
L 149.088 86.904128 
L 149.087765 86.904 
L 143.136 83.691862 
L 139.110246 81.36 
L 137.184 80.248252 
L 131.232 76.593884 
L 130.034913 75.816 
L 125.28 72.714858 
L 121.757809 70.272 
L 119.328 68.570984 
L 114.138679 64.728 
L 113.376 64.154879 
L 107.424 59.465992 
L 107.078415 59.184 
L 101.472 54.505322 
L 100.462204 53.64 
L 95.52 49.284512 
L 94.180836 48.096 
L 89.568 43.861423 
L 88.108595 42.552 
L 83.616 38.356992 
L 82.062473 37.008 
L 77.664 33.006479 
L 75.661344 31.464 
L 71.712 28.25325 
z
" clip-path="url(#p3b7d7af318)" style="fill: #297a8e"/>
   </g>
   <g id="PathCollection_9">
    <path d="M 47.449856 125.712 
L 46.864821 120.168 
L 46.412339 114.624 
L 46.081405 109.08 
L 45.862697 103.536 
L 45.748199 97.992 
L 45.730947 92.448 
L 45.804832 86.904 
L 45.964458 81.36 
L 46.205026 75.816 
L 46.522247 70.272 
L 46.912276 64.728 
L 47.371646 59.184 
L 47.897232 53.64 
L 47.904 53.575029 
L 49.077683 48.096 
L 50.431757 42.552 
L 51.95782 37.008 
L 53.661921 31.464 
L 53.856 30.874611 
L 58.475238 25.92 
L 59.808 25.92 
L 65.76 25.92 
L 67.460031 25.92 
L 71.712 28.25325 
L 75.661344 31.464 
L 77.664 33.006479 
L 82.062473 37.008 
L 83.616 38.356992 
L 88.108595 42.552 
L 89.568 43.861423 
L 94.180836 48.096 
L 95.52 49.284512 
L 100.462204 53.64 
L 101.472 54.505322 
L 107.078415 59.184 
L 107.424 59.465992 
L 113.376 64.154879 
L 114.138679 64.728 
L 119.328 68.570984 
L 121.757809 70.272 
L 125.28 72.714858 
L 130.034913 75.816 
L 131.232 76.593884 
L 137.184 80.248252 
L 139.110246 81.36 
L 143.136 83.691862 
L 149.087765 86.904 
L 149.088 86.904128 
L 155.04 89.983008 
L 160.169555 92.448 
L 160.992 92.850723 
L 166.944 95.607132 
L 172.479967 97.992 
L 172.896 98.176361 
L 178.848 100.677584 
L 184.8 103.00735 
L 186.226235 103.536 
L 190.752 105.280528 
L 196.704 107.432734 
L 201.554841 109.08 
L 202.656 109.474206 
L 208.608 111.498088 
L 214.56 113.396072 
L 214.56 114.624 
L 214.56 119.215404 
L 208.608 117.248943 
L 202.656 115.145078 
L 201.259582 114.624 
L 196.704 113.042935 
L 190.752 110.84012 
L 186.300692 109.08 
L 184.8 108.517798 
L 178.848 106.159988 
L 172.896 103.622016 
L 172.704698 103.536 
L 166.944 101.047492 
L 160.992 98.27507 
L 160.417071 97.992 
L 155.04 95.418156 
L 149.287002 92.448 
L 149.088 92.347139 
L 143.136 89.16193 
L 139.207779 86.904 
L 137.184 85.751977 
L 131.232 82.144697 
L 130.008863 81.36 
L 125.28 78.330458 
L 121.592507 75.816 
L 119.328 74.263811 
L 113.825634 70.272 
L 113.376 69.942119 
L 107.424 65.378956 
L 106.605335 64.728 
L 101.472 60.565019 
L 99.811472 59.184 
L 95.52 55.521534 
L 93.325341 53.64 
L 89.568 50.313798 
L 86.99332 48.096 
L 83.616 45.072267 
L 80.564001 42.552 
L 77.664 40.045233 
L 73.441867 37.008 
L 71.712 35.695116 
L 65.76 32.905474 
L 59.808 33.393589 
L 56.746137 37.008 
L 53.856 40.953898 
L 53.395932 42.552 
L 51.933544 48.096 
L 50.642927 53.64 
L 49.51975 59.184 
L 48.560655 64.728 
L 47.904 69.263883 
L 47.829434 70.272 
L 47.485521 75.816 
L 47.218525 81.36 
L 47.03273 86.904 
L 46.932933 92.448 
L 46.92453 97.992 
L 47.013627 103.536 
L 47.207189 109.08 
L 47.513228 114.624 
L 47.904 119.677608 
L 47.965803 120.168 
L 48.888578 125.712 
L 50.027626 131.256 
L 51.402242 136.8 
L 53.037857 142.344 
L 53.856 144.646076 
L 55.517586 147.888 
L 58.851895 153.432 
L 59.808 154.757824 
L 63.945494 158.976 
L 65.76 160.503338 
L 71.712 164.313403 
L 72.136179 164.52 
L 77.664 166.634131 
L 83.616 168.403727 
L 89.568 169.777678 
L 91.218461 170.064 
L 95.52 170.612782 
L 101.472 171.172708 
L 107.424 171.575655 
L 113.376 171.850994 
L 119.328 172.021938 
L 125.28 172.107017 
L 131.232 172.121163 
L 137.184 172.076501 
L 143.136 171.982954 
L 149.088 171.848692 
L 155.04 171.680484 
L 160.992 171.483965 
L 166.944 171.263851 
L 172.896 171.024104 
L 178.848 170.768069 
L 184.8 170.498574 
L 190.752 170.218024 
L 193.932469 170.064 
L 196.704 169.850925 
L 202.656 169.38083 
L 208.608 168.896949 
L 214.56 168.401344 
L 214.56 170.064 
L 214.56 171.132666 
L 208.608 171.421615 
L 202.656 171.705503 
L 196.704 171.983022 
L 190.752 172.25265 
L 184.8 172.512611 
L 178.848 172.760825 
L 172.896 172.994857 
L 166.944 173.211841 
L 160.992 173.408397 
L 155.04 173.580523 
L 149.088 173.723462 
L 143.136 173.831536 
L 137.184 173.89793 
L 131.232 173.914428 
L 125.28 173.871058 
L 119.328 173.755644 
L 113.376 173.553203 
L 107.424 173.245152 
L 101.472 172.808231 
L 95.52 172.213017 
L 89.568 171.421851 
L 83.616 170.385853 
L 82.220258 170.064 
L 77.664 168.665195 
L 71.712 166.32037 
L 68.18708 164.52 
L 65.76 162.96219 
L 61.024334 158.976 
L 59.808 157.735948 
L 56.704251 153.432 
L 53.856 148.801834 
L 53.46144 147.888 
L 51.477195 142.344 
L 49.78632 136.8 
L 48.354399 131.256 
L 47.904 129.126928 
z
" clip-path="url(#p3b7d7af318)" style="fill: #23898e"/>
   </g>
   <g id="PathCollection_10">
    <path d="M 47.513228 114.624 
L 47.207189 109.08 
L 47.013627 103.536 
L 46.92453 97.992 
L 46.932933 92.448 
L 47.03273 86.904 
L 47.218525 81.36 
L 47.485521 75.816 
L 47.829434 70.272 
L 47.904 69.263883 
L 48.560655 64.728 
L 49.51975 59.184 
L 50.642927 53.64 
L 51.933544 48.096 
L 53.395932 42.552 
L 53.856 40.953898 
L 56.746137 37.008 
L 59.808 33.393589 
L 65.76 32.905474 
L 71.712 35.695116 
L 73.441867 37.008 
L 77.664 40.045233 
L 80.564001 42.552 
L 83.616 45.072267 
L 86.99332 48.096 
L 89.568 50.313798 
L 93.325341 53.64 
L 95.52 55.521534 
L 99.811472 59.184 
L 101.472 60.565019 
L 106.605335 64.728 
L 107.424 65.378956 
L 113.376 69.942119 
L 113.825634 70.272 
L 119.328 74.263811 
L 121.592507 75.816 
L 125.28 78.330458 
L 130.008863 81.36 
L 131.232 82.144697 
L 137.184 85.751977 
L 139.207779 86.904 
L 143.136 89.16193 
L 149.088 92.347139 
L 149.287002 92.448 
L 155.04 95.418156 
L 160.417071 97.992 
L 160.992 98.27507 
L 166.944 101.047492 
L 172.704698 103.536 
L 172.896 103.622016 
L 178.848 106.159988 
L 184.8 108.517798 
L 186.300692 109.08 
L 190.752 110.84012 
L 196.704 113.042935 
L 201.259582 114.624 
L 202.656 115.145078 
L 208.608 117.248943 
L 214.56 119.215404 
L 214.56 120.168 
L 214.56 125.712 
L 214.56 125.769354 
L 214.41698 125.712 
L 208.608 123.687006 
L 202.656 121.457431 
L 199.428991 120.168 
L 196.704 119.183997 
L 190.752 116.899589 
L 185.246721 114.624 
L 184.8 114.452644 
L 178.848 112.044156 
L 172.896 109.442349 
L 172.112985 109.08 
L 166.944 106.818434 
L 160.992 104.00882 
L 160.047077 103.536 
L 155.04 101.130302 
L 149.088 98.040393 
L 148.999683 97.992 
L 143.136 94.867496 
L 138.920181 92.448 
L 137.184 91.468877 
L 131.232 87.898306 
L 129.669623 86.904 
L 125.28 84.132053 
L 121.159902 81.36 
L 119.328 80.127409 
L 113.376 75.889028 
L 113.277264 75.816 
L 107.424 71.446326 
L 105.910961 70.272 
L 101.472 66.77012 
L 98.944199 64.728 
L 95.52 61.897056 
L 92.244071 59.184 
L 89.568 56.900396 
L 85.62128 53.64 
L 83.616 51.920959 
L 78.731937 48.096 
L 77.664 47.221494 
L 71.712 43.301503 
L 69.60941 42.552 
L 65.76 41.091951 
L 59.808 42.433073 
L 59.717649 42.552 
L 55.951475 48.096 
L 53.856 51.762256 
L 53.395268 53.64 
L 52.173058 59.184 
L 51.119138 64.728 
L 50.230847 70.272 
L 49.506493 75.816 
L 48.945358 81.36 
L 48.547733 86.904 
L 48.314968 92.448 
L 48.249562 97.992 
L 48.355278 103.536 
L 48.637328 109.08 
L 49.102614 114.624 
L 49.760081 120.168 
L 50.62123 125.712 
L 51.700854 131.256 
L 53.018163 136.8 
L 53.856 139.691095 
L 54.979105 142.344 
L 57.768296 147.888 
L 59.808 151.326765 
L 61.529256 153.432 
L 65.76 157.770691 
L 67.323305 158.976 
L 71.712 161.726859 
L 77.446806 164.52 
L 77.664 164.603067 
L 83.616 166.299519 
L 89.568 167.601687 
L 95.52 168.588007 
L 101.472 169.318238 
L 107.424 169.838728 
L 111.322276 170.064 
L 113.376 170.148786 
L 119.328 170.288232 
L 125.28 170.342976 
L 131.232 170.327897 
L 137.184 170.255071 
L 143.136 170.134372 
L 145.767125 170.064 
L 149.088 169.928783 
L 155.04 169.635628 
L 160.992 169.297158 
L 166.944 168.919893 
L 172.896 168.509391 
L 178.848 168.070418 
L 184.8 167.607073 
L 190.752 167.122894 
L 196.704 166.620949 
L 202.656 166.103905 
L 208.608 165.574084 
L 214.56 165.033518 
L 214.56 168.401344 
L 208.608 168.896949 
L 202.656 169.38083 
L 196.704 169.850925 
L 193.932469 170.064 
L 190.752 170.218024 
L 184.8 170.498574 
L 178.848 170.768069 
L 172.896 171.024104 
L 166.944 171.263851 
L 160.992 171.483965 
L 155.04 171.680484 
L 149.088 171.848692 
L 143.136 171.982954 
L 137.184 172.076501 
L 131.232 172.121163 
L 125.28 172.107017 
L 119.328 172.021938 
L 113.376 171.850994 
L 107.424 171.575655 
L 101.472 171.172708 
L 95.52 170.612782 
L 91.218461 170.064 
L 89.568 169.777678 
L 83.616 168.403727 
L 77.664 166.634131 
L 72.136179 164.52 
L 71.712 164.313403 
L 65.76 160.503338 
L 63.945494 158.976 
L 59.808 154.757824 
L 58.851895 153.432 
L 55.517586 147.888 
L 53.856 144.646076 
L 53.037857 142.344 
L 51.402242 136.8 
L 50.027626 131.256 
L 48.888578 125.712 
L 47.965803 120.168 
L 47.904 119.677608 
z
" clip-path="url(#p3b7d7af318)" style="fill: #1f988b"/>
   </g>
   <g id="PathCollection_11">
    <path d="M 53.018163 136.8 
L 51.700854 131.256 
L 50.62123 125.712 
L 49.760081 120.168 
L 49.102614 114.624 
L 48.637328 109.08 
L 48.355278 103.536 
L 48.249562 97.992 
L 48.314968 92.448 
L 48.547733 86.904 
L 48.945358 81.36 
L 49.506493 75.816 
L 50.230847 70.272 
L 51.119138 64.728 
L 52.173058 59.184 
L 53.395268 53.64 
L 53.856 51.762256 
L 55.951475 48.096 
L 59.717649 42.552 
L 59.808 42.433073 
L 65.76 41.091951 
L 69.60941 42.552 
L 71.712 43.301503 
L 77.664 47.221494 
L 78.731937 48.096 
L 83.616 51.920959 
L 85.62128 53.64 
L 89.568 56.900396 
L 92.244071 59.184 
L 95.52 61.897056 
L 98.944199 64.728 
L 101.472 66.77012 
L 105.910961 70.272 
L 107.424 71.446326 
L 113.277264 75.816 
L 113.376 75.889028 
L 119.328 80.127409 
L 121.159902 81.36 
L 125.28 84.132053 
L 129.669623 86.904 
L 131.232 87.898306 
L 137.184 91.468877 
L 138.920181 92.448 
L 143.136 94.867496 
L 148.999683 97.992 
L 149.088 98.040393 
L 155.04 101.130302 
L 160.047077 103.536 
L 160.992 104.00882 
L 166.944 106.818434 
L 172.112985 109.08 
L 172.896 109.442349 
L 178.848 112.044156 
L 184.8 114.452644 
L 185.246721 114.624 
L 190.752 116.899589 
L 196.704 119.183997 
L 199.428991 120.168 
L 202.656 121.457431 
L 208.608 123.687006 
L 214.41698 125.712 
L 214.56 125.769354 
L 214.56 131.256 
L 214.56 134.235796 
L 208.608 131.389574 
L 208.345428 131.256 
L 202.656 128.931992 
L 196.704 126.288545 
L 195.485827 125.712 
L 190.752 123.783785 
L 184.8 121.165195 
L 182.679768 120.168 
L 178.848 118.549687 
L 172.896 115.846075 
L 170.383545 114.624 
L 166.944 113.077725 
L 160.992 110.202862 
L 158.817594 109.08 
L 155.04 107.238547 
L 149.088 104.112449 
L 148.054734 103.536 
L 143.136 100.902444 
L 138.099789 97.992 
L 137.184 97.477203 
L 131.232 93.931804 
L 128.896942 92.448 
L 125.28 90.186068 
L 120.360041 86.904 
L 119.328 86.219974 
L 113.376 82.068783 
L 112.402321 81.36 
L 107.424 77.721634 
L 104.914508 75.816 
L 101.472 73.17017 
L 97.783612 70.272 
L 95.52 68.45793 
L 90.858708 64.728 
L 89.568 63.666617 
L 83.903561 59.184 
L 83.616 58.948325 
L 77.664 54.607535 
L 75.934852 53.64 
L 71.712 51.153523 
L 65.76 49.583683 
L 59.808 51.993545 
L 58.807017 53.64 
L 55.879674 59.184 
L 53.856 63.840315 
L 53.67762 64.728 
L 52.698454 70.272 
L 51.88694 75.816 
L 51.242143 81.36 
L 50.764156 86.904 
L 50.454146 92.448 
L 50.314443 97.992 
L 50.348658 103.536 
L 50.561857 109.08 
L 50.960815 114.624 
L 51.554359 120.168 
L 52.353882 125.712 
L 53.374082 131.256 
L 53.856 133.330994 
L 55.049107 136.8 
L 57.3397 142.344 
L 59.808 147.431827 
L 60.117527 147.888 
L 64.631668 153.432 
L 65.76 154.589121 
L 71.449853 158.976 
L 71.712 159.140315 
L 77.664 161.915836 
L 83.616 164.081072 
L 85.225776 164.52 
L 89.568 165.425696 
L 95.52 166.341654 
L 101.472 167.002983 
L 107.424 167.456046 
L 113.376 167.737333 
L 119.328 167.875927 
L 125.28 167.895267 
L 131.232 167.814431 
L 137.184 167.649083 
L 143.136 167.412184 
L 149.088 167.114536 
L 155.04 166.765202 
L 160.992 166.371825 
L 166.944 165.94089 
L 172.896 165.477922 
L 178.848 164.987652 
L 184.276253 164.52 
L 184.8 164.446452 
L 190.752 163.582898 
L 196.704 162.676877 
L 202.656 161.732125 
L 208.608 160.751963 
L 214.56 159.739362 
L 214.56 164.52 
L 214.56 165.033518 
L 208.608 165.574084 
L 202.656 166.103905 
L 196.704 166.620949 
L 190.752 167.122894 
L 184.8 167.607073 
L 178.848 168.070418 
L 172.896 168.509391 
L 166.944 168.919893 
L 160.992 169.297158 
L 155.04 169.635628 
L 149.088 169.928783 
L 145.767125 170.064 
L 143.136 170.134372 
L 137.184 170.255071 
L 131.232 170.327897 
L 125.28 170.342976 
L 119.328 170.288232 
L 113.376 170.148786 
L 111.322276 170.064 
L 107.424 169.838728 
L 101.472 169.318238 
L 95.52 168.588007 
L 89.568 167.601687 
L 83.616 166.299519 
L 77.664 164.603067 
L 77.446806 164.52 
L 71.712 161.726859 
L 67.323305 158.976 
L 65.76 157.770691 
L 61.529256 153.432 
L 59.808 151.326765 
L 57.768296 147.888 
L 54.979105 142.344 
L 53.856 139.691095 
z
" clip-path="url(#p3b7d7af318)" style="fill: #22a785"/>
   </g>
   <g id="PathCollection_12">
    <path d="M 53.374082 131.256 
L 52.353882 125.712 
L 51.554359 120.168 
L 50.960815 114.624 
L 50.561857 109.08 
L 50.348658 103.536 
L 50.314443 97.992 
L 50.454146 92.448 
L 50.764156 86.904 
L 51.242143 81.36 
L 51.88694 75.816 
L 52.698454 70.272 
L 53.67762 64.728 
L 53.856 63.840315 
L 55.879674 59.184 
L 58.807017 53.64 
L 59.808 51.993545 
L 65.76 49.583683 
L 71.712 51.153523 
L 75.934852 53.64 
L 77.664 54.607535 
L 83.616 58.948325 
L 83.903561 59.184 
L 89.568 63.666617 
L 90.858708 64.728 
L 95.52 68.45793 
L 97.783612 70.272 
L 101.472 73.17017 
L 104.914508 75.816 
L 107.424 77.721634 
L 112.402321 81.36 
L 113.376 82.068783 
L 119.328 86.219974 
L 120.360041 86.904 
L 125.28 90.186068 
L 128.896942 92.448 
L 131.232 93.931804 
L 137.184 97.477203 
L 138.099789 97.992 
L 143.136 100.902444 
L 148.054734 103.536 
L 149.088 104.112449 
L 155.04 107.238547 
L 158.817594 109.08 
L 160.992 110.202862 
L 166.944 113.077725 
L 170.383545 114.624 
L 172.896 115.846075 
L 178.848 118.549687 
L 182.679768 120.168 
L 184.8 121.165195 
L 190.752 123.783785 
L 195.485827 125.712 
L 196.704 126.288545 
L 202.656 128.931992 
L 208.345428 131.256 
L 208.608 131.389574 
L 214.56 134.235796 
L 214.56 136.8 
L 214.56 142.344 
L 214.56 147.888 
L 214.56 153.432 
L 214.56 158.976 
L 214.56 159.739362 
L 208.608 160.751963 
L 202.656 161.732125 
L 196.704 162.676877 
L 190.752 163.582898 
L 184.8 164.446452 
L 184.276253 164.52 
L 178.848 164.987652 
L 172.896 165.477922 
L 166.944 165.94089 
L 160.992 166.371825 
L 155.04 166.765202 
L 149.088 167.114536 
L 143.136 167.412184 
L 137.184 167.649083 
L 131.232 167.814431 
L 125.28 167.895267 
L 119.328 167.875927 
L 113.376 167.737333 
L 107.424 167.456046 
L 101.472 167.002983 
L 95.52 166.341654 
L 89.568 165.425696 
L 85.225776 164.52 
L 83.616 164.081072 
L 77.664 161.915836 
L 71.712 159.140315 
L 71.449853 158.976 
L 65.76 154.589121 
L 64.631668 153.432 
L 60.117527 147.888 
L 59.808 147.431827 
L 57.3397 142.344 
L 55.049107 136.8 
L 53.856 133.330994 
z
M 53.856 123.938051 
L 54.220165 125.712 
L 55.709336 131.256 
L 57.526945 136.8 
L 59.700296 142.344 
L 59.808 142.566007 
L 63.419133 147.888 
L 65.76 150.809805 
L 68.599399 153.432 
L 71.712 155.798644 
L 77.180878 158.976 
L 77.664 159.200625 
L 83.616 161.236513 
L 89.568 162.783643 
L 95.52 163.933082 
L 99.82313 164.52 
L 101.472 164.687727 
L 107.424 165.073363 
L 113.376 165.288701 
L 119.328 165.362815 
L 125.28 165.319127 
L 131.232 165.176693 
L 137.184 164.951147 
L 143.136 164.655423 
L 145.434731 164.52 
L 149.088 164.1868 
L 155.04 163.562621 
L 160.992 162.860451 
L 166.944 162.08856 
L 172.896 161.2541 
L 178.848 160.363291 
L 184.8 159.421575 
L 187.520748 158.976 
L 190.752 157.992996 
L 196.704 156.072892 
L 202.656 154.008048 
L 204.254821 153.432 
L 208.608 148.053768 
L 208.732155 147.888 
L 208.608 147.678262 
L 205.768601 142.344 
L 202.656 140.135609 
L 198.405706 136.8 
L 196.704 135.905889 
L 190.752 132.518134 
L 188.715608 131.256 
L 184.8 129.352269 
L 178.848 126.194406 
L 177.99969 125.712 
L 172.896 123.247919 
L 167.067502 120.168 
L 166.944 120.109711 
L 160.992 117.132115 
L 156.393023 114.624 
L 155.04 113.944288 
L 149.088 110.754285 
L 146.189529 109.08 
L 143.136 107.417944 
L 137.184 103.927615 
L 136.553558 103.536 
L 131.232 100.364715 
L 127.526505 97.992 
L 125.28 96.591565 
L 119.328 92.63648 
L 119.056433 92.448 
L 113.376 88.558639 
L 111.077788 86.904 
L 107.424 84.280906 
L 103.505594 81.36 
L 101.472 79.833983 
L 96.224629 75.816 
L 95.52 75.268052 
L 89.568 70.689195 
L 88.991313 70.272 
L 83.616 66.267751 
L 81.25753 64.728 
L 77.664 62.288414 
L 71.712 59.310532 
L 70.720345 59.184 
L 65.76 58.511918 
L 64.550296 59.184 
L 59.808 62.322678 
L 58.660044 64.728 
L 56.421279 70.272 
L 54.639141 75.816 
L 53.856 78.898032 
L 53.538928 81.36 
L 52.980579 86.904 
L 52.593325 92.448 
L 52.379325 97.992 
L 52.342037 103.536 
L 52.486386 109.08 
L 52.819016 114.624 
L 53.348637 120.168 
z
" clip-path="url(#p3b7d7af318)" style="fill: #32b67a"/>
   </g>
   <g id="PathCollection_13">
    <path d="M 53.348637 120.168 
L 52.819016 114.624 
L 52.486386 109.08 
L 52.342037 103.536 
L 52.379325 97.992 
L 52.593325 92.448 
L 52.980579 86.904 
L 53.538928 81.36 
L 53.856 78.898032 
L 54.639141 75.816 
L 56.421279 70.272 
L 58.660044 64.728 
L 59.808 62.322678 
L 64.550296 59.184 
L 65.76 58.511918 
L 70.720345 59.184 
L 71.712 59.310532 
L 77.664 62.288414 
L 81.25753 64.728 
L 83.616 66.267751 
L 88.991313 70.272 
L 89.568 70.689195 
L 95.52 75.268052 
L 96.224629 75.816 
L 101.472 79.833983 
L 103.505594 81.36 
L 107.424 84.280906 
L 111.077788 86.904 
L 113.376 88.558639 
L 119.056433 92.448 
L 119.328 92.63648 
L 125.28 96.591565 
L 127.526505 97.992 
L 131.232 100.364715 
L 136.553558 103.536 
L 137.184 103.927615 
L 143.136 107.417944 
L 146.189529 109.08 
L 149.088 110.754285 
L 155.04 113.944288 
L 156.393023 114.624 
L 160.992 117.132115 
L 166.944 120.109711 
L 167.067502 120.168 
L 172.896 123.247919 
L 177.99969 125.712 
L 178.848 126.194406 
L 184.8 129.352269 
L 188.715608 131.256 
L 190.752 132.518134 
L 196.704 135.905889 
L 198.405706 136.8 
L 202.656 140.135609 
L 205.768601 142.344 
L 208.608 147.678262 
L 208.732155 147.888 
L 208.608 148.053768 
L 204.254821 153.432 
L 202.656 154.008048 
L 196.704 156.072892 
L 190.752 157.992996 
L 187.520748 158.976 
L 184.8 159.421575 
L 178.848 160.363291 
L 172.896 161.2541 
L 166.944 162.08856 
L 160.992 162.860451 
L 155.04 163.562621 
L 149.088 164.1868 
L 145.434731 164.52 
L 143.136 164.655423 
L 137.184 164.951147 
L 131.232 165.176693 
L 125.28 165.319127 
L 119.328 165.362815 
L 113.376 165.288701 
L 107.424 165.073363 
L 101.472 164.687727 
L 99.82313 164.52 
L 95.52 163.933082 
L 89.568 162.783643 
L 83.616 161.236513 
L 77.664 159.200625 
L 77.180878 158.976 
L 71.712 155.798644 
L 68.599399 153.432 
L 65.76 150.809805 
L 63.419133 147.888 
L 59.808 142.566007 
L 59.700296 142.344 
L 57.526945 136.8 
L 55.709336 131.256 
L 54.220165 125.712 
L 53.856 123.938051 
z
M 59.808 136.126748 
L 60.106914 136.8 
L 63.168462 142.344 
L 65.76 146.317142 
L 67.170134 147.888 
L 71.712 152.079355 
L 73.668566 153.432 
L 77.664 155.662929 
L 83.616 158.187909 
L 86.133224 158.976 
L 89.568 159.809296 
L 95.52 160.828701 
L 101.472 161.519813 
L 107.424 161.936804 
L 113.376 162.122485 
L 119.328 162.111159 
L 125.28 161.930649 
L 131.232 161.603769 
L 137.184 161.149407 
L 143.136 160.583343 
L 149.088 159.918867 
L 155.04 159.167255 
L 156.443282 158.976 
L 160.992 157.918344 
L 166.944 156.384186 
L 172.896 154.689118 
L 176.989483 153.432 
L 178.848 152.050466 
L 183.872637 147.888 
L 183.201234 142.344 
L 178.848 137.713688 
L 178.075414 136.8 
L 172.896 133.143849 
L 170.477249 131.256 
L 166.944 129.166981 
L 161.632883 125.712 
L 160.992 125.362355 
L 155.04 121.883924 
L 152.346343 120.168 
L 149.088 118.333886 
L 143.136 114.684072 
L 143.043777 114.624 
L 137.184 111.130838 
L 134.007668 109.08 
L 131.232 107.394733 
L 125.330243 103.536 
L 125.28 103.504488 
L 119.328 99.587768 
L 117.045571 97.992 
L 113.376 95.490325 
L 109.133238 92.448 
L 107.424 91.236801 
L 101.530746 86.904 
L 101.472 86.860824 
L 95.52 82.475112 
L 93.982654 81.36 
L 89.568 78.111952 
L 86.241465 75.816 
L 83.616 73.957791 
L 77.664 70.348171 
L 77.46105 70.272 
L 71.712 68.01508 
L 65.76 68.174305 
L 63.313909 70.272 
L 59.808 74.042913 
L 59.170708 75.816 
L 57.526802 81.36 
L 56.28204 86.904 
L 55.405542 92.448 
L 54.873591 97.992 
L 54.668659 103.536 
L 54.77876 109.08 
L 55.197095 114.624 
L 55.921993 120.168 
L 56.957168 125.712 
L 58.312399 131.256 
z
" clip-path="url(#p3b7d7af318)" style="fill: #4ec36b"/>
   </g>
   <g id="PathCollection_14">
    <path d="M 58.312399 131.256 
L 56.957168 125.712 
L 55.921993 120.168 
L 55.197095 114.624 
L 54.77876 109.08 
L 54.668659 103.536 
L 54.873591 97.992 
L 55.405542 92.448 
L 56.28204 86.904 
L 57.526802 81.36 
L 59.170708 75.816 
L 59.808 74.042913 
L 63.313909 70.272 
L 65.76 68.174305 
L 71.712 68.01508 
L 77.46105 70.272 
L 77.664 70.348171 
L 83.616 73.957791 
L 86.241465 75.816 
L 89.568 78.111952 
L 93.982654 81.36 
L 95.52 82.475112 
L 101.472 86.860824 
L 101.530746 86.904 
L 107.424 91.236801 
L 109.133238 92.448 
L 113.376 95.490325 
L 117.045571 97.992 
L 119.328 99.587768 
L 125.28 103.504488 
L 125.330243 103.536 
L 131.232 107.394733 
L 134.007668 109.08 
L 137.184 111.130838 
L 143.043777 114.624 
L 143.136 114.684072 
L 149.088 118.333886 
L 152.346343 120.168 
L 155.04 121.883924 
L 160.992 125.362355 
L 161.632883 125.712 
L 166.944 129.166981 
L 170.477249 131.256 
L 172.896 133.143849 
L 178.075414 136.8 
L 178.848 137.713688 
L 183.201234 142.344 
L 183.872637 147.888 
L 178.848 152.050466 
L 176.989483 153.432 
L 172.896 154.689118 
L 166.944 156.384186 
L 160.992 157.918344 
L 156.443282 158.976 
L 155.04 159.167255 
L 149.088 159.918867 
L 143.136 160.583343 
L 137.184 161.149407 
L 131.232 161.603769 
L 125.28 161.930649 
L 119.328 162.111159 
L 113.376 162.122485 
L 107.424 161.936804 
L 101.472 161.519813 
L 95.52 160.828701 
L 89.568 159.809296 
L 86.133224 158.976 
L 83.616 158.187909 
L 77.664 155.662929 
L 73.668566 153.432 
L 71.712 152.079355 
L 67.170134 147.888 
L 65.76 146.317142 
L 63.168462 142.344 
L 60.106914 136.8 
L 59.808 136.126748 
z
M 59.808 126.205687 
L 61.523993 131.256 
L 63.870766 136.8 
L 65.76 140.433125 
L 67.155931 142.344 
L 71.712 147.511647 
L 72.165437 147.888 
L 77.664 151.578014 
L 81.326241 153.432 
L 83.616 154.349555 
L 89.568 156.044635 
L 95.52 157.236782 
L 101.472 158.001765 
L 107.424 158.397697 
L 113.376 158.469736 
L 119.328 158.253329 
L 125.28 157.7765 
L 131.232 157.061511 
L 137.184 156.126071 
L 143.136 154.984245 
L 149.088 153.647139 
L 149.962382 153.432 
L 155.04 150.916109 
L 160.21958 147.888 
L 160.992 145.555966 
L 161.937642 142.344 
L 160.992 140.736405 
L 158.915494 136.8 
L 155.04 133.173766 
L 153.189071 131.256 
L 149.088 128.220669 
L 146.007267 125.712 
L 143.136 123.803136 
L 138.135476 120.168 
L 137.184 119.56289 
L 131.232 115.500882 
L 130.034557 114.624 
L 125.28 111.456384 
L 121.960023 109.08 
L 119.328 107.31261 
L 114.043913 103.536 
L 113.376 103.078022 
L 107.424 98.836649 
L 106.270973 97.992 
L 101.472 94.554306 
L 98.567048 92.448 
L 95.52 90.253575 
L 90.767362 86.904 
L 89.568 86.05282 
L 83.616 82.210367 
L 81.948625 81.36 
L 77.664 79.115384 
L 71.712 77.49488 
L 65.76 79.06093 
L 63.993988 81.36 
L 60.778504 86.904 
L 59.808 89.252972 
L 59.187329 92.448 
L 58.445815 97.992 
L 58.047642 103.536 
L 57.979029 109.08 
L 58.231644 114.624 
L 58.802498 120.168 
L 59.694171 125.712 
z
" clip-path="url(#p3b7d7af318)" style="fill: #70cf57"/>
   </g>
   <g id="PathCollection_15">
    <path d="M 59.694171 125.712 
L 58.802498 120.168 
L 58.231644 114.624 
L 57.979029 109.08 
L 58.047642 103.536 
L 58.445815 97.992 
L 59.187329 92.448 
L 59.808 89.252972 
L 60.778504 86.904 
L 63.993988 81.36 
L 65.76 79.06093 
L 71.712 77.49488 
L 77.664 79.115384 
L 81.948625 81.36 
L 83.616 82.210367 
L 89.568 86.05282 
L 90.767362 86.904 
L 95.52 90.253575 
L 98.567048 92.448 
L 101.472 94.554306 
L 106.270973 97.992 
L 107.424 98.836649 
L 113.376 103.078022 
L 114.043913 103.536 
L 119.328 107.31261 
L 121.960023 109.08 
L 125.28 111.456384 
L 130.034557 114.624 
L 131.232 115.500882 
L 137.184 119.56289 
L 138.135476 120.168 
L 143.136 123.803136 
L 146.007267 125.712 
L 149.088 128.220669 
L 153.189071 131.256 
L 155.04 133.173766 
L 158.915494 136.8 
L 160.992 140.736405 
L 161.937642 142.344 
L 160.992 145.555966 
L 160.21958 147.888 
L 155.04 150.916109 
L 149.962382 153.432 
L 149.088 153.647139 
L 143.136 154.984245 
L 137.184 156.126071 
L 131.232 157.061511 
L 125.28 157.7765 
L 119.328 158.253329 
L 113.376 158.469736 
L 107.424 158.397697 
L 101.472 158.001765 
L 95.52 157.236782 
L 89.568 156.044635 
L 83.616 154.349555 
L 81.326241 153.432 
L 77.664 151.578014 
L 72.165437 147.888 
L 71.712 147.511647 
L 67.155931 142.344 
L 65.76 140.433125 
L 63.870766 136.8 
L 61.523993 131.256 
L 59.808 126.205687 
z
M 65.76 131.763914 
L 68.649077 136.8 
L 71.712 141.192993 
L 72.839984 142.344 
L 77.664 146.292729 
L 80.332152 147.888 
L 83.616 149.433761 
L 89.568 151.392619 
L 95.52 152.705634 
L 101.390738 153.432 
L 101.472 153.439449 
L 107.424 153.579073 
L 112.040411 153.432 
L 113.376 153.363139 
L 119.328 152.59183 
L 125.28 151.34093 
L 131.232 149.601394 
L 135.851773 147.888 
L 137.184 146.639393 
L 140.896935 142.344 
L 140.138451 136.8 
L 137.184 132.701242 
L 136.239991 131.256 
L 131.232 126.405891 
L 130.576225 125.712 
L 125.28 121.353448 
L 123.947596 120.168 
L 119.328 116.655563 
L 116.827051 114.624 
L 113.376 112.0943 
L 109.471716 109.08 
L 107.424 107.601147 
L 101.980676 103.536 
L 101.472 103.17124 
L 95.52 98.948877 
L 94.104445 97.992 
L 89.568 94.977559 
L 85.300645 92.448 
L 83.616 91.447329 
L 77.664 88.965268 
L 71.712 88.465811 
L 66.005142 92.448 
L 65.76 92.698565 
L 63.86778 97.992 
L 62.67492 103.536 
L 62.159112 109.08 
L 62.236136 114.624 
L 62.848977 120.168 
L 63.961941 125.712 
L 65.557396 131.256 
z
" clip-path="url(#p3b7d7af318)" style="fill: #98d83e"/>
   </g>
   <g id="PathCollection_16">
    <path d="M 65.557396 131.256 
L 63.961941 125.712 
L 62.848977 120.168 
L 62.236136 114.624 
L 62.159112 109.08 
L 62.67492 103.536 
L 63.86778 97.992 
L 65.76 92.698565 
L 66.005142 92.448 
L 71.712 88.465811 
L 77.664 88.965268 
L 83.616 91.447329 
L 85.300645 92.448 
L 89.568 94.977559 
L 94.104445 97.992 
L 95.52 98.948877 
L 101.472 103.17124 
L 101.980676 103.536 
L 107.424 107.601147 
L 109.471716 109.08 
L 113.376 112.0943 
L 116.827051 114.624 
L 119.328 116.655563 
L 123.947596 120.168 
L 125.28 121.353448 
L 130.576225 125.712 
L 131.232 126.405891 
L 136.239991 131.256 
L 137.184 132.701242 
L 140.138451 136.8 
L 140.896935 142.344 
L 137.184 146.639393 
L 135.851773 147.888 
L 131.232 149.601394 
L 125.28 151.34093 
L 119.328 152.59183 
L 113.376 153.363139 
L 112.040411 153.432 
L 107.424 153.579073 
L 101.472 153.439449 
L 101.390738 153.432 
L 95.52 152.705634 
L 89.568 151.392619 
L 83.616 149.433761 
L 80.332152 147.888 
L 77.664 146.292729 
L 72.839984 142.344 
L 71.712 141.192993 
L 68.649077 136.8 
L 65.76 131.763914 
z
M 71.712 130.841676 
L 71.930856 131.256 
L 76.107872 136.8 
L 77.664 138.409776 
L 83.094629 142.344 
L 83.616 142.635721 
L 89.568 144.693451 
L 95.52 145.857492 
L 101.472 146.141661 
L 107.424 145.508804 
L 113.376 143.863446 
L 116.773321 142.344 
L 119.328 138.310851 
L 120.012806 136.8 
L 119.328 134.663784 
L 118.316356 131.256 
L 114.19866 125.712 
L 113.376 124.930227 
L 108.625686 120.168 
L 107.424 119.1667 
L 102.131558 114.624 
L 101.472 114.119448 
L 95.52 109.651092 
L 94.687803 109.08 
L 89.568 105.813798 
L 85.257718 103.536 
L 83.616 102.699233 
L 77.664 101.311078 
L 71.712 103.45078 
L 71.654541 103.536 
L 69.337376 109.08 
L 68.500908 114.624 
L 68.770541 120.168 
L 69.926578 125.712 
z
" clip-path="url(#p3b7d7af318)" style="fill: #c2df23"/>
   </g>
   <g id="PathCollection_17">
    <path d="M 69.926578 125.712 
L 68.770541 120.168 
L 68.500908 114.624 
L 69.337376 109.08 
L 71.654541 103.536 
L 71.712 103.45078 
L 77.664 101.311078 
L 83.616 102.699233 
L 85.257718 103.536 
L 89.568 105.813798 
L 94.687803 109.08 
L 95.52 109.651092 
L 101.472 114.119448 
L 102.131558 114.624 
L 107.424 119.1667 
L 108.625686 120.168 
L 113.376 124.930227 
L 114.19866 125.712 
L 118.316356 131.256 
L 119.328 134.663784 
L 120.012806 136.8 
L 119.328 138.310851 
L 116.773321 142.344 
L 113.376 143.863446 
L 107.424 145.508804 
L 101.472 146.141661 
L 95.52 145.857492 
L 89.568 144.693451 
L 83.616 142.635721 
L 83.094629 142.344 
L 77.664 138.409776 
L 76.107872 136.8 
L 71.930856 131.256 
L 71.712 130.841676 
z
" clip-path="url(#p3b7d7af318)" style="fill: #ece51b"/>
   </g>
   <g id="PathCollection_18">
    <defs>
     <path id="mcf029fd4d8" d="M -4.330127 4.330127 
L 4.330127 -4.330127 
M -4.330127 -4.330127 
L 4.330127 4.330127 
" style="stroke: #000000; stroke-width: 2"/>
    </defs>
    <g clip-path="url(#p3b7d7af318)">
     <use xlink:href="#mcf029fd4d8" x="85.6" y="127.56" style="stroke: #000000; stroke-width: 2"/>
    </g>
   </g>
   <g id="matplotlib.axis_1">
    <g id="xtick_1">
     <g id="line2d_1">
      <defs>
       <path id="m2a22046394" d="M 0 0 
L 0 6 
" style="stroke: #000000; stroke-width: 2"/>
      </defs>
      <g>
       <use xlink:href="#m2a22046394" x="75.68" y="192.24" style="stroke: #000000; stroke-width: 2"/>
      </g>
     </g>
     <g id="text_1">
      <!-- $\mathdefault{250}$ -->
      <g transform="translate(62.31 212.377813) scale(0.14 -0.14)">
       <defs>
        <path id="DejaVuSans-32" d="M 1228 531 
L 3431 531 
L 3431 0 
L 469 0 
L 469 531 
Q 828 903 1448 1529 
Q 2069 2156 2228 2338 
Q 2531 2678 2651 2914 
Q 2772 3150 2772 3378 
Q 2772 3750 2511 3984 
Q 2250 4219 1831 4219 
Q 1534 4219 1204 4116 
Q 875 4013 500 3803 
L 500 4441 
Q 881 4594 1212 4672 
Q 1544 4750 1819 4750 
Q 2544 4750 2975 4387 
Q 3406 4025 3406 3419 
Q 3406 3131 3298 2873 
Q 3191 2616 2906 2266 
Q 2828 2175 2409 1742 
Q 1991 1309 1228 531 
z
" transform="scale(0.015625)"/>
        <path id="DejaVuSans-35" d="M 691 4666 
L 3169 4666 
L 3169 4134 
L 1269 4134 
L 1269 2991 
Q 1406 3038 1543 3061 
Q 1681 3084 1819 3084 
Q 2600 3084 3056 2656 
Q 3513 2228 3513 1497 
Q 3513 744 3044 326 
Q 2575 -91 1722 -91 
Q 1428 -91 1123 -41 
Q 819 9 494 109 
L 494 744 
Q 775 591 1075 516 
Q 1375 441 1709 441 
Q 2250 441 2565 725 
Q 2881 1009 2881 1497 
Q 2881 1984 2565 2268 
Q 2250 2553 1709 2553 
Q 1456 2553 1204 2497 
Q 953 2441 691 2322 
L 691 4666 
z
" transform="scale(0.015625)"/>
        <path id="DejaVuSans-30" d="M 2034 4250 
Q 1547 4250 1301 3770 
Q 1056 3291 1056 2328 
Q 1056 1369 1301 889 
Q 1547 409 2034 409 
Q 2525 409 2770 889 
Q 3016 1369 3016 2328 
Q 3016 3291 2770 3770 
Q 2525 4250 2034 4250 
z
M 2034 4750 
Q 2819 4750 3233 4129 
Q 3647 3509 3647 2328 
Q 3647 1150 3233 529 
Q 2819 -91 2034 -91 
Q 1250 -91 836 529 
Q 422 1150 422 2328 
Q 422 3509 836 4129 
Q 1250 4750 2034 4750 
z
" transform="scale(0.015625)"/>
       </defs>
       <use xlink:href="#DejaVuSans-32" transform="translate(0 0.78125)"/>
       <use xlink:href="#DejaVuSans-35" transform="translate(63.623047 0.78125)"/>
       <use xlink:href="#DejaVuSans-30" transform="translate(127.246094 0.78125)"/>
      </g>
     </g>
    </g>
    <g id="xtick_2">
     <g id="line2d_2">
      <g>
       <use xlink:href="#m2a22046394" x="125.28" y="192.24" style="stroke: #000000; stroke-width: 2"/>
      </g>
     </g>
     <g id="text_2">
      <!-- $\mathdefault{500}$ -->
      <g transform="translate(111.91 212.377813) scale(0.14 -0.14)">
       <use xlink:href="#DejaVuSans-35" transform="translate(0 0.78125)"/>
       <use xlink:href="#DejaVuSans-30" transform="translate(63.623047 0.78125)"/>
       <use xlink:href="#DejaVuSans-30" transform="translate(127.246094 0.78125)"/>
      </g>
     </g>
    </g>
    <g id="xtick_3">
     <g id="line2d_3">
      <g>
       <use xlink:href="#m2a22046394" x="174.88" y="192.24" style="stroke: #000000; stroke-width: 2"/>
      </g>
     </g>
     <g id="text_3">
      <!-- $\mathdefault{750}$ -->
      <g transform="translate(161.51 212.377813) scale(0.14 -0.14)">
       <defs>
        <path id="DejaVuSans-37" d="M 525 4666 
L 3525 4666 
L 3525 4397 
L 1831 0 
L 1172 0 
L 2766 4134 
L 525 4134 
L 525 4666 
z
" transform="scale(0.015625)"/>
       </defs>
       <use xlink:href="#DejaVuSans-37" transform="translate(0 0.78125)"/>
       <use xlink:href="#DejaVuSans-35" transform="translate(63.623047 0.78125)"/>
       <use xlink:href="#DejaVuSans-30" transform="translate(127.246094 0.78125)"/>
      </g>
     </g>
    </g>
    <g id="text_4">
     <!-- Diploid N$_e$1 -->
     <g transform="translate(74.34 232.969375) scale(0.18 -0.18)">
      <defs>
       <path id="DejaVuSans-44" d="M 1259 4147 
L 1259 519 
L 2022 519 
Q 2988 519 3436 956 
Q 3884 1394 3884 2338 
Q 3884 3275 3436 3711 
Q 2988 4147 2022 4147 
L 1259 4147 
z
M 628 4666 
L 1925 4666 
Q 3281 4666 3915 4102 
Q 4550 3538 4550 2338 
Q 4550 1131 3912 565 
Q 3275 0 1925 0 
L 628 0 
L 628 4666 
z
" transform="scale(0.015625)"/>
       <path id="DejaVuSans-69" d="M 603 3500 
L 1178 3500 
L 1178 0 
L 603 0 
L 603 3500 
z
M 603 4863 
L 1178 4863 
L 1178 4134 
L 603 4134 
L 603 4863 
z
" transform="scale(0.015625)"/>
       <path id="DejaVuSans-70" d="M 1159 525 
L 1159 -1331 
L 581 -1331 
L 581 3500 
L 1159 3500 
L 1159 2969 
Q 1341 3281 1617 3432 
Q 1894 3584 2278 3584 
Q 2916 3584 3314 3078 
Q 3713 2572 3713 1747 
Q 3713 922 3314 415 
Q 2916 -91 2278 -91 
Q 1894 -91 1617 61 
Q 1341 213 1159 525 
z
M 3116 1747 
Q 3116 2381 2855 2742 
Q 2594 3103 2138 3103 
Q 1681 3103 1420 2742 
Q 1159 2381 1159 1747 
Q 1159 1113 1420 752 
Q 1681 391 2138 391 
Q 2594 391 2855 752 
Q 3116 1113 3116 1747 
z
" transform="scale(0.015625)"/>
       <path id="DejaVuSans-6c" d="M 603 4863 
L 1178 4863 
L 1178 0 
L 603 0 
L 603 4863 
z
" transform="scale(0.015625)"/>
       <path id="DejaVuSans-6f" d="M 1959 3097 
Q 1497 3097 1228 2736 
Q 959 2375 959 1747 
Q 959 1119 1226 758 
Q 1494 397 1959 397 
Q 2419 397 2687 759 
Q 2956 1122 2956 1747 
Q 2956 2369 2687 2733 
Q 2419 3097 1959 3097 
z
M 1959 3584 
Q 2709 3584 3137 3096 
Q 3566 2609 3566 1747 
Q 3566 888 3137 398 
Q 2709 -91 1959 -91 
Q 1206 -91 779 398 
Q 353 888 353 1747 
Q 353 2609 779 3096 
Q 1206 3584 1959 3584 
z
" transform="scale(0.015625)"/>
       <path id="DejaVuSans-64" d="M 2906 2969 
L 2906 4863 
L 3481 4863 
L 3481 0 
L 2906 0 
L 2906 525 
Q 2725 213 2448 61 
Q 2172 -91 1784 -91 
Q 1150 -91 751 415 
Q 353 922 353 1747 
Q 353 2572 751 3078 
Q 1150 3584 1784 3584 
Q 2172 3584 2448 3432 
Q 2725 3281 2906 2969 
z
M 947 1747 
Q 947 1113 1208 752 
Q 1469 391 1925 391 
Q 2381 391 2643 752 
Q 2906 1113 2906 1747 
Q 2906 2381 2643 2742 
Q 2381 3103 1925 3103 
Q 1469 3103 1208 2742 
Q 947 2381 947 1747 
z
" transform="scale(0.015625)"/>
       <path id="DejaVuSans-20" transform="scale(0.015625)"/>
       <path id="DejaVuSans-4e" d="M 628 4666 
L 1478 4666 
L 3547 763 
L 3547 4666 
L 4159 4666 
L 4159 0 
L 3309 0 
L 1241 3903 
L 1241 0 
L 628 0 
L 628 4666 
z
" transform="scale(0.015625)"/>
       <path id="DejaVuSans-Oblique-65" d="M 3078 2063 
Q 3088 2113 3092 2166 
Q 3097 2219 3097 2272 
Q 3097 2653 2873 2875 
Q 2650 3097 2266 3097 
Q 1838 3097 1509 2826 
Q 1181 2556 1013 2059 
L 3078 2063 
z
M 3578 1613 
L 903 1613 
Q 884 1494 878 1425 
Q 872 1356 872 1306 
Q 872 872 1139 634 
Q 1406 397 1894 397 
Q 2269 397 2603 481 
Q 2938 566 3225 728 
L 3116 159 
Q 2806 34 2476 -28 
Q 2147 -91 1806 -91 
Q 1078 -91 686 257 
Q 294 606 294 1247 
Q 294 1794 489 2264 
Q 684 2734 1063 3103 
Q 1306 3334 1642 3459 
Q 1978 3584 2356 3584 
Q 2950 3584 3301 3228 
Q 3653 2872 3653 2272 
Q 3653 2128 3634 1964 
Q 3616 1800 3578 1613 
z
" transform="scale(0.015625)"/>
       <path id="DejaVuSans-31" d="M 794 531 
L 1825 531 
L 1825 4091 
L 703 3866 
L 703 4441 
L 1819 4666 
L 2450 4666 
L 2450 531 
L 3481 531 
L 3481 0 
L 794 0 
L 794 531 
z
" transform="scale(0.015625)"/>
      </defs>
      <use xlink:href="#DejaVuSans-44" transform="translate(0 0.015625)"/>
      <use xlink:href="#DejaVuSans-69" transform="translate(77.001953 0.015625)"/>
      <use xlink:href="#DejaVuSans-70" transform="translate(104.785156 0.015625)"/>
      <use xlink:href="#DejaVuSans-6c" transform="translate(168.261719 0.015625)"/>
      <use xlink:href="#DejaVuSans-6f" transform="translate(196.044922 0.015625)"/>
      <use xlink:href="#DejaVuSans-69" transform="translate(257.226562 0.015625)"/>
      <use xlink:href="#DejaVuSans-64" transform="translate(285.009766 0.015625)"/>
      <use xlink:href="#DejaVuSans-20" transform="translate(348.486328 0.015625)"/>
      <use xlink:href="#DejaVuSans-4e" transform="translate(380.273438 0.015625)"/>
      <use xlink:href="#DejaVuSans-Oblique-65" transform="translate(456.035156 -16.390625) scale(0.7)"/>
      <use xlink:href="#DejaVuSans-31" transform="translate(501.835938 0.015625)"/>
     </g>
    </g>
    <g id="text_5">
     <!-- $\times\mathdefault{10^{3}}\mathdefault{}$ -->
     <g transform="translate(188.56 225.887812) scale(0.1 -0.1)">
      <defs>
       <path id="DejaVuSans-d7" d="M 4488 3438 
L 3059 2003 
L 4488 575 
L 4116 197 
L 2681 1631 
L 1247 197 
L 878 575 
L 2303 2003 
L 878 3438 
L 1247 3816 
L 2681 2381 
L 4116 3816 
L 4488 3438 
z
" transform="scale(0.015625)"/>
       <path id="DejaVuSans-33" d="M 2597 2516 
Q 3050 2419 3304 2112 
Q 3559 1806 3559 1356 
Q 3559 666 3084 287 
Q 2609 -91 1734 -91 
Q 1441 -91 1130 -33 
Q 819 25 488 141 
L 488 750 
Q 750 597 1062 519 
Q 1375 441 1716 441 
Q 2309 441 2620 675 
Q 2931 909 2931 1356 
Q 2931 1769 2642 2001 
Q 2353 2234 1838 2234 
L 1294 2234 
L 1294 2753 
L 1863 2753 
Q 2328 2753 2575 2939 
Q 2822 3125 2822 3475 
Q 2822 3834 2567 4026 
Q 2313 4219 1838 4219 
Q 1578 4219 1281 4162 
Q 984 4106 628 3988 
L 628 4550 
Q 988 4650 1302 4700 
Q 1616 4750 1894 4750 
Q 2613 4750 3031 4423 
Q 3450 4097 3450 3541 
Q 3450 3153 3228 2886 
Q 3006 2619 2597 2516 
z
" transform="scale(0.015625)"/>
      </defs>
      <use xlink:href="#DejaVuSans-d7" transform="translate(0 0.765625)"/>
      <use xlink:href="#DejaVuSans-31" transform="translate(83.789062 0.765625)"/>
      <use xlink:href="#DejaVuSans-30" transform="translate(147.412109 0.765625)"/>
      <use xlink:href="#DejaVuSans-33" transform="translate(211.992188 39.046875) scale(0.7)"/>
     </g>
    </g>
   </g>
   <g id="matplotlib.axis_2">
    <g id="ytick_1">
     <g id="line2d_4">
      <defs>
       <path id="m2bf3814718" d="M 0 0 
L -6 0 
" style="stroke: #000000; stroke-width: 2"/>
      </defs>
      <g>
       <use xlink:href="#m2bf3814718" x="36" y="155.28" style="stroke: #000000; stroke-width: 2"/>
      </g>
     </g>
     <g id="text_6">
      <!-- $\mathdefault{250}$ -->
      <g transform="translate(-0.24 160.598906) scale(0.14 -0.14)">
       <use xlink:href="#DejaVuSans-32" transform="translate(0 0.78125)"/>
       <use xlink:href="#DejaVuSans-35" transform="translate(63.623047 0.78125)"/>
       <use xlink:href="#DejaVuSans-30" transform="translate(127.246094 0.78125)"/>
      </g>
     </g>
    </g>
    <g id="ytick_2">
     <g id="line2d_5">
      <g>
       <use xlink:href="#m2bf3814718" x="36" y="109.08" style="stroke: #000000; stroke-width: 2"/>
      </g>
     </g>
     <g id="text_7">
      <!-- $\mathdefault{500}$ -->
      <g transform="translate(-0.24 114.398906) scale(0.14 -0.14)">
       <use xlink:href="#DejaVuSans-35" transform="translate(0 0.78125)"/>
       <use xlink:href="#DejaVuSans-30" transform="translate(63.623047 0.78125)"/>
       <use xlink:href="#DejaVuSans-30" transform="translate(127.246094 0.78125)"/>
      </g>
     </g>
    </g>
    <g id="ytick_3">
     <g id="line2d_6">
      <g>
       <use xlink:href="#m2bf3814718" x="36" y="62.88" style="stroke: #000000; stroke-width: 2"/>
      </g>
     </g>
     <g id="text_8">
      <!-- $\mathdefault{750}$ -->
      <g transform="translate(-0.24 68.198906) scale(0.14 -0.14)">
       <use xlink:href="#DejaVuSans-37" transform="translate(0 0.78125)"/>
       <use xlink:href="#DejaVuSans-35" transform="translate(63.623047 0.78125)"/>
       <use xlink:href="#DejaVuSans-30" transform="translate(127.246094 0.78125)"/>
      </g>
     </g>
    </g>
    <g id="text_9">
     <!-- Diploid N$_e$2 -->
     <g transform="translate(-8.02 160.02) rotate(-90) scale(0.18 -0.18)">
      <use xlink:href="#DejaVuSans-44" transform="translate(0 0.015625)"/>
      <use xlink:href="#DejaVuSans-69" transform="translate(77.001953 0.015625)"/>
      <use xlink:href="#DejaVuSans-70" transform="translate(104.785156 0.015625)"/>
      <use xlink:href="#DejaVuSans-6c" transform="translate(168.261719 0.015625)"/>
      <use xlink:href="#DejaVuSans-6f" transform="translate(196.044922 0.015625)"/>
      <use xlink:href="#DejaVuSans-69" transform="translate(257.226562 0.015625)"/>
      <use xlink:href="#DejaVuSans-64" transform="translate(285.009766 0.015625)"/>
      <use xlink:href="#DejaVuSans-20" transform="translate(348.486328 0.015625)"/>
      <use xlink:href="#DejaVuSans-4e" transform="translate(380.273438 0.015625)"/>
      <use xlink:href="#DejaVuSans-Oblique-65" transform="translate(456.035156 -16.390625) scale(0.7)"/>
      <use xlink:href="#DejaVuSans-32" transform="translate(501.835938 0.015625)"/>
     </g>
    </g>
    <g id="text_10">
     <!-- $\times\mathdefault{10^{3}}\mathdefault{}$ -->
     <g transform="translate(36 22.92) scale(0.1 -0.1)">
      <use xlink:href="#DejaVuSans-d7" transform="translate(0 0.765625)"/>
      <use xlink:href="#DejaVuSans-31" transform="translate(83.789062 0.765625)"/>
      <use xlink:href="#DejaVuSans-30" transform="translate(147.412109 0.765625)"/>
      <use xlink:href="#DejaVuSans-33" transform="translate(211.992188 39.046875) scale(0.7)"/>
     </g>
    </g>
   </g>
   <g id="patch_3">
    <path d="M 36 192.24 
L 36 25.92 
" style="fill: none; stroke: #000000; stroke-width: 0.8; stroke-linejoin: miter; stroke-linecap: square"/>
   </g>
   <g id="patch_4">
    <path d="M 214.56 192.24 
L 214.56 25.92 
" style="fill: none; stroke: #000000; stroke-width: 0.8; stroke-linejoin: miter; stroke-linecap: square"/>
   </g>
   <g id="patch_5">
    <path d="M 36 192.24 
L 214.56 192.24 
" style="fill: none; stroke: #000000; stroke-width: 0.8; stroke-linejoin: miter; stroke-linecap: square"/>
   </g>
   <g id="patch_6">
    <path d="M 36 25.92 
L 214.56 25.92 
" style="fill: none; stroke: #000000; stroke-width: 0.8; stroke-linejoin: miter; stroke-linecap: square"/>
   </g>
   <g id="text_11">
    <!-- Ne1Ne2-MSSMC-GT-P2-S4 -->
    <g transform="translate(21.75375 10.92) scale(0.16 -0.16)">
     <defs>
      <path id="DejaVuSans-65" d="M 3597 1894 
L 3597 1613 
L 953 1613 
Q 991 1019 1311 708 
Q 1631 397 2203 397 
Q 2534 397 2845 478 
Q 3156 559 3463 722 
L 3463 178 
Q 3153 47 2828 -22 
Q 2503 -91 2169 -91 
Q 1331 -91 842 396 
Q 353 884 353 1716 
Q 353 2575 817 3079 
Q 1281 3584 2069 3584 
Q 2775 3584 3186 3129 
Q 3597 2675 3597 1894 
z
M 3022 2063 
Q 3016 2534 2758 2815 
Q 2500 3097 2075 3097 
Q 1594 3097 1305 2825 
Q 1016 2553 972 2059 
L 3022 2063 
z
" transform="scale(0.015625)"/>
      <path id="DejaVuSans-2d" d="M 313 2009 
L 1997 2009 
L 1997 1497 
L 313 1497 
L 313 2009 
z
" transform="scale(0.015625)"/>
      <path id="DejaVuSans-4d" d="M 628 4666 
L 1569 4666 
L 2759 1491 
L 3956 4666 
L 4897 4666 
L 4897 0 
L 4281 0 
L 4281 4097 
L 3078 897 
L 2444 897 
L 1241 4097 
L 1241 0 
L 628 0 
L 628 4666 
z
" transform="scale(0.015625)"/>
      <path id="DejaVuSans-53" d="M 3425 4513 
L 3425 3897 
Q 3066 4069 2747 4153 
Q 2428 4238 2131 4238 
Q 1616 4238 1336 4038 
Q 1056 3838 1056 3469 
Q 1056 3159 1242 3001 
Q 1428 2844 1947 2747 
L 2328 2669 
Q 3034 2534 3370 2195 
Q 3706 1856 3706 1288 
Q 3706 609 3251 259 
Q 2797 -91 1919 -91 
Q 1588 -91 1214 -16 
Q 841 59 441 206 
L 441 856 
Q 825 641 1194 531 
Q 1563 422 1919 422 
Q 2459 422 2753 634 
Q 3047 847 3047 1241 
Q 3047 1584 2836 1778 
Q 2625 1972 2144 2069 
L 1759 2144 
Q 1053 2284 737 2584 
Q 422 2884 422 3419 
Q 422 4038 858 4394 
Q 1294 4750 2059 4750 
Q 2388 4750 2728 4690 
Q 3069 4631 3425 4513 
z
" transform="scale(0.015625)"/>
      <path id="DejaVuSans-43" d="M 4122 4306 
L 4122 3641 
Q 3803 3938 3442 4084 
Q 3081 4231 2675 4231 
Q 1875 4231 1450 3742 
Q 1025 3253 1025 2328 
Q 1025 1406 1450 917 
Q 1875 428 2675 428 
Q 3081 428 3442 575 
Q 3803 722 4122 1019 
L 4122 359 
Q 3791 134 3420 21 
Q 3050 -91 2638 -91 
Q 1578 -91 968 557 
Q 359 1206 359 2328 
Q 359 3453 968 4101 
Q 1578 4750 2638 4750 
Q 3056 4750 3426 4639 
Q 3797 4528 4122 4306 
z
" transform="scale(0.015625)"/>
      <path id="DejaVuSans-47" d="M 3809 666 
L 3809 1919 
L 2778 1919 
L 2778 2438 
L 4434 2438 
L 4434 434 
Q 4069 175 3628 42 
Q 3188 -91 2688 -91 
Q 1594 -91 976 548 
Q 359 1188 359 2328 
Q 359 3472 976 4111 
Q 1594 4750 2688 4750 
Q 3144 4750 3555 4637 
Q 3966 4525 4313 4306 
L 4313 3634 
Q 3963 3931 3569 4081 
Q 3175 4231 2741 4231 
Q 1884 4231 1454 3753 
Q 1025 3275 1025 2328 
Q 1025 1384 1454 906 
Q 1884 428 2741 428 
Q 3075 428 3337 486 
Q 3600 544 3809 666 
z
" transform="scale(0.015625)"/>
      <path id="DejaVuSans-54" d="M -19 4666 
L 3928 4666 
L 3928 4134 
L 2272 4134 
L 2272 0 
L 1638 0 
L 1638 4134 
L -19 4134 
L -19 4666 
z
" transform="scale(0.015625)"/>
      <path id="DejaVuSans-50" d="M 1259 4147 
L 1259 2394 
L 2053 2394 
Q 2494 2394 2734 2622 
Q 2975 2850 2975 3272 
Q 2975 3691 2734 3919 
Q 2494 4147 2053 4147 
L 1259 4147 
z
M 628 4666 
L 2053 4666 
Q 2838 4666 3239 4311 
Q 3641 3956 3641 3272 
Q 3641 2581 3239 2228 
Q 2838 1875 2053 1875 
L 1259 1875 
L 1259 0 
L 628 0 
L 628 4666 
z
" transform="scale(0.015625)"/>
      <path id="DejaVuSans-34" d="M 2419 4116 
L 825 1625 
L 2419 1625 
L 2419 4116 
z
M 2253 4666 
L 3047 4666 
L 3047 1625 
L 3713 1625 
L 3713 1100 
L 3047 1100 
L 3047 0 
L 2419 0 
L 2419 1100 
L 313 1100 
L 313 1709 
L 2253 4666 
z
" transform="scale(0.015625)"/>
     </defs>
     <use xlink:href="#DejaVuSans-4e"/>
     <use xlink:href="#DejaVuSans-65" x="74.804688"/>
     <use xlink:href="#DejaVuSans-31" x="136.328125"/>
     <use xlink:href="#DejaVuSans-4e" x="199.951172"/>
     <use xlink:href="#DejaVuSans-65" x="274.755859"/>
     <use xlink:href="#DejaVuSans-32" x="336.279297"/>
     <use xlink:href="#DejaVuSans-2d" x="399.902344"/>
     <use xlink:href="#DejaVuSans-4d" x="435.986328"/>
     <use xlink:href="#DejaVuSans-53" x="522.265625"/>
     <use xlink:href="#DejaVuSans-53" x="585.742188"/>
     <use xlink:href="#DejaVuSans-4d" x="649.21875"/>
     <use xlink:href="#DejaVuSans-43" x="735.498047"/>
     <use xlink:href="#DejaVuSans-2d" x="805.322266"/>
     <use xlink:href="#DejaVuSans-47" x="845.03125"/>
     <use xlink:href="#DejaVuSans-54" x="918.896484"/>
     <use xlink:href="#DejaVuSans-2d" x="970.855469"/>
     <use xlink:href="#DejaVuSans-50" x="1006.939453"/>
     <use xlink:href="#DejaVuSans-32" x="1067.242188"/>
     <use xlink:href="#DejaVuSans-2d" x="1130.865234"/>
     <use xlink:href="#DejaVuSans-53" x="1166.949219"/>
     <use xlink:href="#DejaVuSans-34" x="1230.425781"/>
    </g>
   </g>
  </g>
  <g id="axes_2">
   <g id="patch_7">
    <path d="M 225.72 192.24 
L 234.036 192.24 
L 234.036 25.92 
L 225.72 25.92 
z
" style="fill: #ffffff"/>
   </g>
   <g id="QuadMesh_1">
    <path d="M 225.72 192.24 
L 234.036 192.24 
L 234.036 182.456471 
L 225.72 182.456471 
L 225.72 192.24 
" clip-path="url(#pacb1beceb6)" style="fill: #440154"/>
    <path d="M 225.72 182.456471 
L 234.036 182.456471 
L 234.036 172.672941 
L 225.72 172.672941 
L 225.72 182.456471 
" clip-path="url(#pacb1beceb6)" style="fill: #470d60"/>
    <path d="M 225.72 172.672941 
L 234.036 172.672941 
L 234.036 162.889412 
L 225.72 162.889412 
L 225.72 172.672941 
" clip-path="url(#pacb1beceb6)" style="fill: #482374"/>
    <path d="M 225.72 162.889412 
L 234.036 162.889412 
L 234.036 153.105882 
L 225.72 153.105882 
L 225.72 162.889412 
" clip-path="url(#pacb1beceb6)" style="fill: #453781"/>
    <path d="M 225.72 153.105882 
L 234.036 153.105882 
L 234.036 143.322353 
L 225.72 143.322353 
L 225.72 153.105882 
" clip-path="url(#pacb1beceb6)" style="fill: #3e4989"/>
    <path d="M 225.72 143.322353 
L 234.036 143.322353 
L 234.036 133.538824 
L 225.72 133.538824 
L 225.72 143.322353 
" clip-path="url(#pacb1beceb6)" style="fill: #375b8d"/>
    <path d="M 225.72 133.538824 
L 234.036 133.538824 
L 234.036 123.755294 
L 225.72 123.755294 
L 225.72 133.538824 
" clip-path="url(#pacb1beceb6)" style="fill: #2f6b8e"/>
    <path d="M 225.72 123.755294 
L 234.036 123.755294 
L 234.036 113.971765 
L 225.72 113.971765 
L 225.72 123.755294 
" clip-path="url(#pacb1beceb6)" style="fill: #297a8e"/>
    <path d="M 225.72 113.971765 
L 234.036 113.971765 
L 234.036 104.188235 
L 225.72 104.188235 
L 225.72 113.971765 
" clip-path="url(#pacb1beceb6)" style="fill: #23898e"/>
    <path d="M 225.72 104.188235 
L 234.036 104.188235 
L 234.036 94.404706 
L 225.72 94.404706 
L 225.72 104.188235 
" clip-path="url(#pacb1beceb6)" style="fill: #1f988b"/>
    <path d="M 225.72 94.404706 
L 234.036 94.404706 
L 234.036 84.621176 
L 225.72 84.621176 
L 225.72 94.404706 
" clip-path="url(#pacb1beceb6)" style="fill: #22a785"/>
    <path d="M 225.72 84.621176 
L 234.036 84.621176 
L 234.036 74.837647 
L 225.72 74.837647 
L 225.72 84.621176 
" clip-path="url(#pacb1beceb6)" style="fill: #32b67a"/>
    <path d="M 225.72 74.837647 
L 234.036 74.837647 
L 234.036 65.054118 
L 225.72 65.054118 
L 225.72 74.837647 
" clip-path="url(#pacb1beceb6)" style="fill: #4ec36b"/>
    <path d="M 225.72 65.054118 
L 234.036 65.054118 
L 234.036 55.270588 
L 225.72 55.270588 
L 225.72 65.054118 
" clip-path="url(#pacb1beceb6)" style="fill: #70cf57"/>
    <path d="M 225.72 55.270588 
L 234.036 55.270588 
L 234.036 45.487059 
L 225.72 45.487059 
L 225.72 55.270588 
" clip-path="url(#pacb1beceb6)" style="fill: #98d83e"/>
    <path d="M 225.72 45.487059 
L 234.036 45.487059 
L 234.036 35.703529 
L 225.72 35.703529 
L 225.72 45.487059 
" clip-path="url(#pacb1beceb6)" style="fill: #c2df23"/>
    <path d="M 225.72 35.703529 
L 234.036 35.703529 
L 234.036 25.92 
L 225.72 25.92 
L 225.72 35.703529 
" clip-path="url(#pacb1beceb6)" style="fill: #ece51b"/>
   </g>
   <g id="matplotlib.axis_3"/>
   <g id="matplotlib.axis_4">
    <g id="ytick_4">
     <g id="line2d_7">
      <defs>
       <path id="m0243b83299" d="M 0 0 
L 3.5 0 
" style="stroke: #000000; stroke-width: 0.8"/>
      </defs>
      <g>
       <use xlink:href="#m0243b83299" x="234.036" y="182.456471" style="stroke: #000000; stroke-width: 0.8"/>
      </g>
     </g>
     <g id="text_12">
      <!-- $\mathdefault{2.40}$ -->
      <g transform="translate(241.036 186.255689) scale(0.1 -0.1)">
       <defs>
        <path id="DejaVuSans-2212" d="M 678 2272 
L 4684 2272 
L 4684 1741 
L 678 1741 
L 678 2272 
z
" transform="scale(0.015625)"/>
        <path id="DejaVuSans-2e" d="M 684 794 
L 1344 794 
L 1344 0 
L 684 0 
L 684 794 
z
" transform="scale(0.015625)"/>
       </defs>
       <use xlink:href="#DejaVuSans-2212" transform="translate(0 0.78125)"/>
       <use xlink:href="#DejaVuSans-32" transform="translate(83.789062 0.78125)"/>
       <use xlink:href="#DejaVuSans-2e" transform="translate(147.412109 0.78125)"/>
       <use xlink:href="#DejaVuSans-34" transform="translate(179.199219 0.78125)"/>
       <use xlink:href="#DejaVuSans-30" transform="translate(242.822266 0.78125)"/>
      </g>
     </g>
    </g>
    <g id="ytick_5">
     <g id="line2d_8">
      <g>
       <use xlink:href="#m0243b83299" x="234.036" y="162.889412" style="stroke: #000000; stroke-width: 0.8"/>
      </g>
     </g>
     <g id="text_13">
      <!-- $\mathdefault{2.35}$ -->
      <g transform="translate(241.036 166.688631) scale(0.1 -0.1)">
       <use xlink:href="#DejaVuSans-2212" transform="translate(0 0.78125)"/>
       <use xlink:href="#DejaVuSans-32" transform="translate(83.789062 0.78125)"/>
       <use xlink:href="#DejaVuSans-2e" transform="translate(147.412109 0.78125)"/>
       <use xlink:href="#DejaVuSans-33" transform="translate(179.199219 0.78125)"/>
       <use xlink:href="#DejaVuSans-35" transform="translate(242.822266 0.78125)"/>
      </g>
     </g>
    </g>
    <g id="ytick_6">
     <g id="line2d_9">
      <g>
       <use xlink:href="#m0243b83299" x="234.036" y="143.322353" style="stroke: #000000; stroke-width: 0.8"/>
      </g>
     </g>
     <g id="text_14">
      <!-- $\mathdefault{2.30}$ -->
      <g transform="translate(241.036 147.121572) scale(0.1 -0.1)">
       <use xlink:href="#DejaVuSans-2212" transform="translate(0 0.78125)"/>
       <use xlink:href="#DejaVuSans-32" transform="translate(83.789062 0.78125)"/>
       <use xlink:href="#DejaVuSans-2e" transform="translate(147.412109 0.78125)"/>
       <use xlink:href="#DejaVuSans-33" transform="translate(179.199219 0.78125)"/>
       <use xlink:href="#DejaVuSans-30" transform="translate(242.822266 0.78125)"/>
      </g>
     </g>
    </g>
    <g id="ytick_7">
     <g id="line2d_10">
      <g>
       <use xlink:href="#m0243b83299" x="234.036" y="123.755294" style="stroke: #000000; stroke-width: 0.8"/>
      </g>
     </g>
     <g id="text_15">
      <!-- $\mathdefault{2.25}$ -->
      <g transform="translate(241.036 127.554513) scale(0.1 -0.1)">
       <use xlink:href="#DejaVuSans-2212" transform="translate(0 0.78125)"/>
       <use xlink:href="#DejaVuSans-32" transform="translate(83.789062 0.78125)"/>
       <use xlink:href="#DejaVuSans-2e" transform="translate(147.412109 0.78125)"/>
       <use xlink:href="#DejaVuSans-32" transform="translate(173.699219 0.78125)"/>
       <use xlink:href="#DejaVuSans-35" transform="translate(237.322266 0.78125)"/>
      </g>
     </g>
    </g>
    <g id="ytick_8">
     <g id="line2d_11">
      <g>
       <use xlink:href="#m0243b83299" x="234.036" y="104.188235" style="stroke: #000000; stroke-width: 0.8"/>
      </g>
     </g>
     <g id="text_16">
      <!-- $\mathdefault{2.20}$ -->
      <g transform="translate(241.036 107.987454) scale(0.1 -0.1)">
       <use xlink:href="#DejaVuSans-2212" transform="translate(0 0.78125)"/>
       <use xlink:href="#DejaVuSans-32" transform="translate(83.789062 0.78125)"/>
       <use xlink:href="#DejaVuSans-2e" transform="translate(147.412109 0.78125)"/>
       <use xlink:href="#DejaVuSans-32" transform="translate(173.699219 0.78125)"/>
       <use xlink:href="#DejaVuSans-30" transform="translate(237.322266 0.78125)"/>
      </g>
     </g>
    </g>
    <g id="ytick_9">
     <g id="line2d_12">
      <g>
       <use xlink:href="#m0243b83299" x="234.036" y="84.621176" style="stroke: #000000; stroke-width: 0.8"/>
      </g>
     </g>
     <g id="text_17">
      <!-- $\mathdefault{2.15}$ -->
      <g transform="translate(241.036 88.420395) scale(0.1 -0.1)">
       <use xlink:href="#DejaVuSans-2212" transform="translate(0 0.78125)"/>
       <use xlink:href="#DejaVuSans-32" transform="translate(83.789062 0.78125)"/>
       <use xlink:href="#DejaVuSans-2e" transform="translate(147.412109 0.78125)"/>
       <use xlink:href="#DejaVuSans-31" transform="translate(179.199219 0.78125)"/>
       <use xlink:href="#DejaVuSans-35" transform="translate(242.822266 0.78125)"/>
      </g>
     </g>
    </g>
    <g id="ytick_10">
     <g id="line2d_13">
      <g>
       <use xlink:href="#m0243b83299" x="234.036" y="65.054118" style="stroke: #000000; stroke-width: 0.8"/>
      </g>
     </g>
     <g id="text_18">
      <!-- $\mathdefault{2.10}$ -->
      <g transform="translate(241.036 68.853336) scale(0.1 -0.1)">
       <use xlink:href="#DejaVuSans-2212" transform="translate(0 0.78125)"/>
       <use xlink:href="#DejaVuSans-32" transform="translate(83.789062 0.78125)"/>
       <use xlink:href="#DejaVuSans-2e" transform="translate(147.412109 0.78125)"/>
       <use xlink:href="#DejaVuSans-31" transform="translate(179.199219 0.78125)"/>
       <use xlink:href="#DejaVuSans-30" transform="translate(242.822266 0.78125)"/>
      </g>
     </g>
    </g>
    <g id="ytick_11">
     <g id="line2d_14">
      <g>
       <use xlink:href="#m0243b83299" x="234.036" y="45.487059" style="stroke: #000000; stroke-width: 0.8"/>
      </g>
     </g>
     <g id="text_19">
      <!-- $\mathdefault{2.05}$ -->
      <g transform="translate(241.036 49.286278) scale(0.1 -0.1)">
       <use xlink:href="#DejaVuSans-2212" transform="translate(0 0.78125)"/>
       <use xlink:href="#DejaVuSans-32" transform="translate(83.789062 0.78125)"/>
       <use xlink:href="#DejaVuSans-2e" transform="translate(147.412109 0.78125)"/>
       <use xlink:href="#DejaVuSans-30" transform="translate(179.199219 0.78125)"/>
       <use xlink:href="#DejaVuSans-35" transform="translate(242.822266 0.78125)"/>
      </g>
     </g>
    </g>
    <g id="ytick_12">
     <g id="line2d_15">
      <g>
       <use xlink:href="#m0243b83299" x="234.036" y="25.92" style="stroke: #000000; stroke-width: 0.8"/>
      </g>
     </g>
     <g id="text_20">
      <!-- $\mathdefault{2.00}$ -->
      <g transform="translate(241.036 29.719219) scale(0.1 -0.1)">
       <use xlink:href="#DejaVuSans-2212" transform="translate(0 0.78125)"/>
       <use xlink:href="#DejaVuSans-32" transform="translate(83.789062 0.78125)"/>
       <use xlink:href="#DejaVuSans-2e" transform="translate(147.412109 0.78125)"/>
       <use xlink:href="#DejaVuSans-30" transform="translate(179.199219 0.78125)"/>
       <use xlink:href="#DejaVuSans-30" transform="translate(242.822266 0.78125)"/>
      </g>
     </g>
    </g>
    <g id="text_21">
     <!-- log likelihood -->
     <g transform="translate(284.854125 148.704375) rotate(-90) scale(0.12 -0.12)">
      <defs>
       <path id="DejaVuSans-67" d="M 2906 1791 
Q 2906 2416 2648 2759 
Q 2391 3103 1925 3103 
Q 1463 3103 1205 2759 
Q 947 2416 947 1791 
Q 947 1169 1205 825 
Q 1463 481 1925 481 
Q 2391 481 2648 825 
Q 2906 1169 2906 1791 
z
M 3481 434 
Q 3481 -459 3084 -895 
Q 2688 -1331 1869 -1331 
Q 1566 -1331 1297 -1286 
Q 1028 -1241 775 -1147 
L 775 -588 
Q 1028 -725 1275 -790 
Q 1522 -856 1778 -856 
Q 2344 -856 2625 -561 
Q 2906 -266 2906 331 
L 2906 616 
Q 2728 306 2450 153 
Q 2172 0 1784 0 
Q 1141 0 747 490 
Q 353 981 353 1791 
Q 353 2603 747 3093 
Q 1141 3584 1784 3584 
Q 2172 3584 2450 3431 
Q 2728 3278 2906 2969 
L 2906 3500 
L 3481 3500 
L 3481 434 
z
" transform="scale(0.015625)"/>
       <path id="DejaVuSans-6b" d="M 581 4863 
L 1159 4863 
L 1159 1991 
L 2875 3500 
L 3609 3500 
L 1753 1863 
L 3688 0 
L 2938 0 
L 1159 1709 
L 1159 0 
L 581 0 
L 581 4863 
z
" transform="scale(0.015625)"/>
       <path id="DejaVuSans-68" d="M 3513 2113 
L 3513 0 
L 2938 0 
L 2938 2094 
Q 2938 2591 2744 2837 
Q 2550 3084 2163 3084 
Q 1697 3084 1428 2787 
Q 1159 2491 1159 1978 
L 1159 0 
L 581 0 
L 581 4863 
L 1159 4863 
L 1159 2956 
Q 1366 3272 1645 3428 
Q 1925 3584 2291 3584 
Q 2894 3584 3203 3211 
Q 3513 2838 3513 2113 
z
" transform="scale(0.015625)"/>
      </defs>
      <use xlink:href="#DejaVuSans-6c"/>
      <use xlink:href="#DejaVuSans-6f" x="27.783203"/>
      <use xlink:href="#DejaVuSans-67" x="88.964844"/>
      <use xlink:href="#DejaVuSans-20" x="152.441406"/>
      <use xlink:href="#DejaVuSans-6c" x="184.228516"/>
      <use xlink:href="#DejaVuSans-69" x="212.011719"/>
      <use xlink:href="#DejaVuSans-6b" x="239.794922"/>
      <use xlink:href="#DejaVuSans-65" x="294.080078"/>
      <use xlink:href="#DejaVuSans-6c" x="355.603516"/>
      <use xlink:href="#DejaVuSans-69" x="383.386719"/>
      <use xlink:href="#DejaVuSans-68" x="411.169922"/>
      <use xlink:href="#DejaVuSans-6f" x="474.548828"/>
      <use xlink:href="#DejaVuSans-6f" x="535.730469"/>
      <use xlink:href="#DejaVuSans-64" x="596.912109"/>
     </g>
    </g>
   </g>
   <g id="LineCollection_1"/>
   <g id="patch_8">
    <path d="M 225.72 192.24 
L 229.878 192.24 
L 234.036 192.24 
L 234.036 25.92 
L 229.878 25.92 
L 225.72 25.92 
L 225.72 192.24 
z
" style="fill: none; stroke: #000000; stroke-width: 0.8; stroke-linejoin: miter; stroke-linecap: square"/>
   </g>
  </g>
 </g>
 <defs>
  <clipPath id="p3b7d7af318">
   <rect x="36" y="25.92" width="178.56" height="166.32"/>
  </clipPath>
  <clipPath id="pacb1beceb6">
   <rect x="225.72" y="25.92" width="8.316" height="166.32"/>
  </clipPath>
 </defs>
</svg>
