<?xml version="1.0" encoding="utf-8" standalone="no"?>
<!DOCTYPE svg PUBLIC "-//W3C//DTD SVG 1.1//EN"
  "http://www.w3.org/Graphics/SVG/1.1/DTD/svg11.dtd">
<svg xmlns:xlink="http://www.w3.org/1999/xlink" width="288pt" height="216pt" viewBox="0 0 288 216" xmlns="http://www.w3.org/2000/svg" version="1.1">
 <metadata>
  <rdf:RDF xmlns:dc="http://purl.org/dc/elements/1.1/" xmlns:cc="http://creativecommons.org/ns#" xmlns:rdf="http://www.w3.org/1999/02/22-rdf-syntax-ns#">
   <cc:Work>
    <dc:type rdf:resource="http://purl.org/dc/dcmitype/StillImage"/>
    <dc:date>2023-07-18T21:17:45.141410</dc:date>
    <dc:format>image/svg+xml</dc:format>
    <dc:creator>
     <cc:Agent>
      <dc:title>Matplotlib v3.7.1, https://matplotlib.org/</dc:title>
     </cc:Agent>
    </dc:creator>
   </cc:Work>
  </rdf:RDF>
 </metadata>
 <defs>
  <style type="text/css">*{stroke-linejoin: round; stroke-linecap: butt}</style>
 </defs>
 <g id="figure_1">
  <g id="patch_1">
   <path d="M 0 216 
L 288 216 
L 288 0 
L 0 0 
z
" style="fill: #ffffff"/>
  </g>
  <g id="axes_1">
   <g id="patch_2">
    <path d="M 36 192.24 
L 214.56 192.24 
L 214.56 25.92 
L 36 25.92 
z
" style="fill: #ffffff"/>
   </g>
   <g id="PathCollection_1">
    <path d="M 36 186.696 
L 36 181.152 
L 36 175.608 
L 36 170.064 
L 36 164.52 
L 36 158.976 
L 36 153.432 
L 36 147.888 
L 36 142.344 
L 36 136.8 
L 36 131.256 
L 36 125.712 
L 36 120.168 
L 36 114.624 
L 36 109.08 
L 36 103.536 
L 36 97.992 
L 36 92.448 
L 36 86.904 
L 36 81.36 
L 36 75.816 
L 36 70.272 
L 36 64.728 
L 36 59.184 
L 36 53.64 
L 36 48.096 
L 36 42.552 
L 36 37.008 
L 36 31.464 
L 36 25.92 
L 36.288359 25.92 
L 36.20956 31.464 
L 36.16621 37.008 
L 36.139021 42.552 
L 36.120591 48.096 
L 36.107481 53.64 
L 36.09789 59.184 
L 36.090793 64.728 
L 36.085583 70.272 
L 36.0819 75.816 
L 36.079546 81.36 
L 36.07845 86.904 
L 36.078664 92.448 
L 36.080391 97.992 
L 36.084067 103.536 
L 36.090549 109.08 
L 36.101611 114.624 
L 36.121388 120.168 
L 36.161964 125.712 
L 36.279418 131.256 
L 38.732573 136.8 
L 41.952 139.79874 
L 42.019023 142.344 
L 42.046529 147.888 
L 42.143735 153.432 
L 47.904 158.797409 
L 47.990921 158.976 
L 48.173511 164.52 
L 53.856 169.812963 
L 54.145389 170.064 
L 59.808 175.338448 
L 65.76 175.518819 
L 66.034924 175.608 
L 71.712 180.895922 
L 77.664 181.031173 
L 83.616 181.065417 
L 89.568 181.080569 
L 95.52 181.088805 
L 97.809426 181.152 
L 101.472 184.56351 
L 107.424 186.097665 
L 113.376 186.306244 
L 119.328 186.385065 
L 125.28 186.423669 
L 131.232 186.444239 
L 137.184 186.454839 
L 143.136 186.459027 
L 149.088 186.458536 
L 155.04 186.454217 
L 160.992 186.446421 
L 166.944 186.435159 
L 172.896 186.420159 
L 178.848 186.400851 
L 184.8 186.376297 
L 190.752 186.34503 
L 196.704 186.304762 
L 202.656 186.251811 
L 208.608 186.179956 
L 214.56 186.077862 
L 214.56 186.696 
L 214.56 192.24 
L 208.608 192.24 
L 202.656 192.24 
L 196.704 192.24 
L 190.752 192.24 
L 184.8 192.24 
L 178.848 192.24 
L 172.896 192.24 
L 166.944 192.24 
L 160.992 192.24 
L 155.04 192.24 
L 149.088 192.24 
L 143.136 192.24 
L 137.184 192.24 
L 131.232 192.24 
L 125.28 192.24 
L 119.328 192.24 
L 113.376 192.24 
L 107.424 192.24 
L 101.472 192.24 
L 95.52 192.24 
L 89.568 192.24 
L 83.616 192.24 
L 77.664 192.24 
L 71.712 192.24 
L 65.76 192.24 
L 59.808 192.24 
L 53.856 192.24 
L 47.904 192.24 
L 41.952 192.24 
L 36 192.24 
z
" clip-path="url(#p30a22e9242)" style="fill: #440154"/>
    <path d="M 117.236373 25.92 
L 119.328 25.92 
L 125.28 25.92 
L 131.232 25.92 
L 137.184 25.92 
L 143.136 25.92 
L 149.088 25.92 
L 155.04 25.92 
L 160.992 25.92 
L 166.944 25.92 
L 172.896 25.92 
L 178.848 25.92 
L 184.8 25.92 
L 190.752 25.92 
L 196.704 25.92 
L 202.656 25.92 
L 208.608 25.92 
L 214.56 25.92 
L 214.56 31.464 
L 214.56 37.008 
L 214.56 42.552 
L 214.56 48.096 
L 214.56 53.64 
L 214.56 59.184 
L 214.56 64.728 
L 214.56 70.272 
L 214.56 75.816 
L 214.56 76.702371 
L 208.608 76.206588 
L 202.656 76.063425 
L 201.925079 75.816 
L 196.704 70.952817 
L 190.752 70.593678 
L 189.303596 70.272 
L 184.8 66.077118 
L 178.848 65.118938 
L 176.389793 64.728 
L 172.896 61.473701 
L 166.944 59.592132 
L 165.20255 59.184 
L 160.992 55.262077 
L 155.04 53.991217 
L 154.239995 53.64 
L 149.088 48.841166 
L 143.136 48.302297 
L 142.81869 48.096 
L 137.184 42.926384 
L 136.573879 42.552 
L 131.232 37.576298 
L 130.246554 37.008 
L 125.28 32.381895 
L 123.681625 31.464 
L 119.328 27.408809 
z
" clip-path="url(#p30a22e9242)" style="fill: #440154"/>
   </g>
   <g id="PathCollection_2">
    <path d="M 38.732573 136.8 
L 36.279418 131.256 
L 36.161964 125.712 
L 36.121388 120.168 
L 36.101611 114.624 
L 36.090549 109.08 
L 36.084067 103.536 
L 36.080391 97.992 
L 36.078664 92.448 
L 36.07845 86.904 
L 36.079546 81.36 
L 36.0819 75.816 
L 36.085583 70.272 
L 36.090793 64.728 
L 36.09789 59.184 
L 36.107481 53.64 
L 36.120591 48.096 
L 36.139021 42.552 
L 36.16621 37.008 
L 36.20956 31.464 
L 36.288359 25.92 
L 41.57781 25.92 
L 40.053576 31.464 
L 39.215051 37.008 
L 38.68912 42.552 
L 38.33262 48.096 
L 38.079042 53.64 
L 37.893507 59.184 
L 37.756225 64.728 
L 37.655455 70.272 
L 37.584213 75.816 
L 37.538675 81.36 
L 37.517475 86.904 
L 37.52162 92.448 
L 37.555035 97.992 
L 37.626124 103.536 
L 37.751507 109.08 
L 37.965486 114.624 
L 38.348034 120.168 
L 39.132923 125.712 
L 41.404854 131.256 
L 41.952 131.823689 
L 42.902868 136.8 
L 43.248438 142.344 
L 43.780507 147.888 
L 45.660774 153.432 
L 47.904 155.521456 
L 49.585338 158.976 
L 53.117228 164.52 
L 53.856 165.20813 
L 59.453738 170.064 
L 59.808 170.393978 
L 65.76 173.882952 
L 71.077922 175.608 
L 71.712 176.198613 
L 77.664 178.814814 
L 83.616 179.477193 
L 89.568 179.770287 
L 95.52 179.929593 
L 101.472 180.149337 
L 107.424 180.540066 
L 113.376 180.837081 
L 119.328 181.057762 
L 122.891424 181.152 
L 125.28 181.42822 
L 131.232 181.826113 
L 137.184 182.031148 
L 143.136 182.112166 
L 149.088 182.102675 
L 155.04 182.019131 
L 160.992 181.868321 
L 166.944 181.650476 
L 172.896 181.360322 
L 176.314948 181.152 
L 178.848 181.113841 
L 184.8 181.01453 
L 190.752 180.906884 
L 196.704 180.792323 
L 202.656 180.672053 
L 208.608 180.547104 
L 214.56 180.418352 
L 214.56 181.152 
L 214.56 186.077862 
L 208.608 186.179956 
L 202.656 186.251811 
L 196.704 186.304762 
L 190.752 186.34503 
L 184.8 186.376297 
L 178.848 186.400851 
L 172.896 186.420159 
L 166.944 186.435159 
L 160.992 186.446421 
L 155.04 186.454217 
L 149.088 186.458536 
L 143.136 186.459027 
L 137.184 186.454839 
L 131.232 186.444239 
L 125.28 186.423669 
L 119.328 186.385065 
L 113.376 186.306244 
L 107.424 186.097665 
L 101.472 184.56351 
L 97.809426 181.152 
L 95.52 181.088805 
L 89.568 181.080569 
L 83.616 181.065417 
L 77.664 181.031173 
L 71.712 180.895922 
L 66.034924 175.608 
L 65.76 175.518819 
L 59.808 175.338448 
L 54.145389 170.064 
L 53.856 169.812963 
L 48.173511 164.52 
L 47.990921 158.976 
L 47.904 158.797409 
L 42.143735 153.432 
L 42.046529 147.888 
L 42.019023 142.344 
L 41.952 139.79874 
z
" clip-path="url(#p30a22e9242)" style="fill: #470d60"/>
    <path d="M 108.162842 25.92 
L 113.376 25.92 
L 117.236373 25.92 
L 119.328 27.408809 
L 123.681625 31.464 
L 125.28 32.381895 
L 130.246554 37.008 
L 131.232 37.576298 
L 136.573879 42.552 
L 137.184 42.926384 
L 142.81869 48.096 
L 143.136 48.302297 
L 149.088 48.841166 
L 154.239995 53.64 
L 155.04 53.991217 
L 160.992 55.262077 
L 165.20255 59.184 
L 166.944 59.592132 
L 172.896 61.473701 
L 176.389793 64.728 
L 178.848 65.118938 
L 184.8 66.077118 
L 189.303596 70.272 
L 190.752 70.593678 
L 196.704 70.952817 
L 201.925079 75.816 
L 202.656 76.063425 
L 208.608 76.206588 
L 214.56 76.702371 
L 214.56 81.36 
L 214.56 84.499149 
L 208.608 82.609242 
L 204.876175 81.36 
L 202.656 80.602018 
L 196.704 78.544031 
L 190.752 76.336414 
L 189.418928 75.816 
L 184.8 74.018947 
L 178.848 71.560033 
L 175.904127 70.272 
L 172.896 68.954559 
L 166.944 66.189551 
L 163.98095 64.728 
L 160.992 63.246101 
L 155.04 60.107853 
L 153.386961 59.184 
L 149.088 56.759188 
L 143.90882 53.64 
L 143.136 53.16878 
L 137.184 49.324899 
L 135.392944 48.096 
L 131.232 45.193456 
L 127.669293 42.552 
L 125.28 40.745524 
L 120.615843 37.008 
L 119.328 35.952446 
L 114.141956 31.464 
L 113.376 30.783866 
z
" clip-path="url(#p30a22e9242)" style="fill: #470d60"/>
   </g>
   <g id="PathCollection_3">
    <path d="M 41.404854 131.256 
L 39.132923 125.712 
L 38.348034 120.168 
L 37.965486 114.624 
L 37.751507 109.08 
L 37.626124 103.536 
L 37.555035 97.992 
L 37.52162 92.448 
L 37.517475 86.904 
L 37.538675 81.36 
L 37.584213 75.816 
L 37.655455 70.272 
L 37.756225 64.728 
L 37.893507 59.184 
L 38.079042 53.64 
L 38.33262 48.096 
L 38.68912 42.552 
L 39.215051 37.008 
L 40.053576 31.464 
L 41.57781 25.92 
L 41.952 25.92 
L 43.400886 25.92 
L 42.725981 31.464 
L 42.105399 37.008 
L 41.952 38.493405 
L 41.239219 42.552 
L 40.54465 48.096 
L 40.050603 53.64 
L 39.689125 59.184 
L 39.421658 64.728 
L 39.225327 70.272 
L 39.086526 75.816 
L 38.997804 81.36 
L 38.956501 86.904 
L 38.964577 92.448 
L 39.029679 97.992 
L 39.168181 103.536 
L 39.412466 109.08 
L 39.829361 114.624 
L 40.574681 120.168 
L 41.952 125.288786 
L 42.006461 125.712 
L 42.881498 131.256 
L 43.919002 136.8 
L 44.477854 142.344 
L 45.514484 147.888 
L 47.904 152.278167 
L 48.436526 153.432 
L 51.179755 158.976 
L 53.856 162.655474 
L 55.537122 164.52 
L 59.808 168.391789 
L 62.257442 170.064 
L 65.76 172.247084 
L 71.712 174.353674 
L 75.650715 175.608 
L 77.664 176.598454 
L 83.616 177.888969 
L 89.568 178.460006 
L 95.52 178.770382 
L 101.472 179.050874 
L 107.424 179.426217 
L 113.376 179.708604 
L 119.328 179.915368 
L 125.28 180.060255 
L 131.232 180.154261 
L 137.184 180.206257 
L 143.136 180.223448 
L 149.088 180.211726 
L 155.04 180.175937 
L 160.992 180.120091 
L 166.944 180.047517 
L 172.896 179.960997 
L 178.848 179.862861 
L 184.8 179.755071 
L 190.752 179.639281 
L 196.704 179.516892 
L 202.656 179.389094 
L 208.608 179.256899 
L 214.56 179.121169 
L 214.56 180.418352 
L 208.608 180.547104 
L 202.656 180.672053 
L 196.704 180.792323 
L 190.752 180.906884 
L 184.8 181.01453 
L 178.848 181.113841 
L 176.314948 181.152 
L 172.896 181.360322 
L 166.944 181.650476 
L 160.992 181.868321 
L 155.04 182.019131 
L 149.088 182.102675 
L 143.136 182.112166 
L 137.184 182.031148 
L 131.232 181.826113 
L 125.28 181.42822 
L 122.891424 181.152 
L 119.328 181.057762 
L 113.376 180.837081 
L 107.424 180.540066 
L 101.472 180.149337 
L 95.52 179.929593 
L 89.568 179.770287 
L 83.616 179.477193 
L 77.664 178.814814 
L 71.712 176.198613 
L 71.077922 175.608 
L 65.76 173.882952 
L 59.808 170.393978 
L 59.453738 170.064 
L 53.856 165.20813 
L 53.117228 164.52 
L 49.585338 158.976 
L 47.904 155.521456 
L 45.660774 153.432 
L 43.780507 147.888 
L 43.248438 142.344 
L 42.902868 136.8 
L 41.952 131.823689 
z
" clip-path="url(#p30a22e9242)" style="fill: #482374"/>
    <path d="M 102.42741 25.92 
L 107.424 25.92 
L 108.162842 25.92 
L 113.376 30.783866 
L 114.141956 31.464 
L 119.328 35.952446 
L 120.615843 37.008 
L 125.28 40.745524 
L 127.669293 42.552 
L 131.232 45.193456 
L 135.392944 48.096 
L 137.184 49.324899 
L 143.136 53.16878 
L 143.90882 53.64 
L 149.088 56.759188 
L 153.386961 59.184 
L 155.04 60.107853 
L 160.992 63.246101 
L 163.98095 64.728 
L 166.944 66.189551 
L 172.896 68.954559 
L 175.904127 70.272 
L 178.848 71.560033 
L 184.8 74.018947 
L 189.418928 75.816 
L 190.752 76.336414 
L 196.704 78.544031 
L 202.656 80.602018 
L 204.876175 81.36 
L 208.608 82.609242 
L 214.56 84.499149 
L 214.56 86.904 
L 214.56 88.949292 
L 208.608 87.063446 
L 208.127617 86.904 
L 202.656 85.112375 
L 196.704 83.047285 
L 192.113653 81.36 
L 190.752 80.863491 
L 184.8 78.578487 
L 178.848 76.142958 
L 178.089442 75.816 
L 172.896 73.583588 
L 166.944 70.853202 
L 165.744981 70.272 
L 160.992 67.963528 
L 155.04 64.87241 
L 154.776504 64.728 
L 149.088 61.590023 
L 145.007071 59.184 
L 143.136 58.069677 
L 137.184 54.301277 
L 136.197776 53.64 
L 131.232 50.2614 
L 128.239414 48.096 
L 125.28 45.915839 
L 120.97361 42.552 
L 119.328 41.239016 
L 114.307311 37.008 
L 113.376 36.203717 
L 108.152755 31.464 
L 107.424 30.784038 
z
" clip-path="url(#p30a22e9242)" style="fill: #482374"/>
   </g>
   <g id="PathCollection_4">
    <path d="M 40.574681 120.168 
L 39.829361 114.624 
L 39.412466 109.08 
L 39.168181 103.536 
L 39.029679 97.992 
L 38.964577 92.448 
L 38.956501 86.904 
L 38.997804 81.36 
L 39.086526 75.816 
L 39.225327 70.272 
L 39.421658 64.728 
L 39.689125 59.184 
L 40.050603 53.64 
L 40.54465 48.096 
L 41.239219 42.552 
L 41.952 38.493405 
L 42.105399 37.008 
L 42.725981 31.464 
L 43.400886 25.92 
L 44.960074 25.92 
L 44.25518 31.464 
L 43.60493 37.008 
L 43.011249 42.552 
L 42.47625 48.096 
L 42.002265 53.64 
L 41.952 54.306983 
L 41.484742 59.184 
L 41.08709 64.728 
L 40.795199 70.272 
L 40.588839 75.816 
L 40.456933 81.36 
L 40.395527 86.904 
L 40.407533 92.448 
L 40.504322 97.992 
L 40.710238 103.536 
L 41.073424 109.08 
L 41.693235 114.624 
L 41.952 116.103391 
L 42.367895 120.168 
L 43.071779 125.712 
L 43.92208 131.256 
L 44.935135 136.8 
L 45.70727 142.344 
L 47.248461 147.888 
L 47.904 149.092396 
L 49.906848 153.432 
L 52.774172 158.976 
L 53.856 160.463367 
L 57.513603 164.52 
L 59.808 166.599999 
L 64.882042 170.064 
L 65.76 170.611216 
L 71.712 172.918955 
L 77.664 174.792148 
L 80.991781 175.608 
L 83.616 176.300746 
L 89.568 177.149724 
L 95.52 177.611171 
L 101.472 177.95241 
L 107.424 178.312369 
L 113.376 178.580127 
L 119.328 178.772973 
L 125.28 178.904609 
L 131.232 178.985988 
L 137.184 179.025943 
L 143.136 179.031642 
L 149.088 179.008942 
L 155.04 178.962659 
L 160.992 178.896772 
L 166.944 178.814585 
L 172.896 178.718852 
L 178.848 178.611881 
L 184.8 178.495612 
L 190.752 178.371678 
L 196.704 178.241462 
L 202.656 178.106136 
L 208.608 177.966694 
L 214.56 177.823986 
L 214.56 179.121169 
L 208.608 179.256899 
L 202.656 179.389094 
L 196.704 179.516892 
L 190.752 179.639281 
L 184.8 179.755071 
L 178.848 179.862861 
L 172.896 179.960997 
L 166.944 180.047517 
L 160.992 180.120091 
L 155.04 180.175937 
L 149.088 180.211726 
L 143.136 180.223448 
L 137.184 180.206257 
L 131.232 180.154261 
L 125.28 180.060255 
L 119.328 179.915368 
L 113.376 179.708604 
L 107.424 179.426217 
L 101.472 179.050874 
L 95.52 178.770382 
L 89.568 178.460006 
L 83.616 177.888969 
L 77.664 176.598454 
L 75.650715 175.608 
L 71.712 174.353674 
L 65.76 172.247084 
L 62.257442 170.064 
L 59.808 168.391789 
L 55.537122 164.52 
L 53.856 162.655474 
L 51.179755 158.976 
L 48.436526 153.432 
L 47.904 152.278167 
L 45.514484 147.888 
L 44.477854 142.344 
L 43.919002 136.8 
L 42.881498 131.256 
L 42.006461 125.712 
L 41.952 125.288786 
z
" clip-path="url(#p30a22e9242)" style="fill: #453781"/>
    <path d="M 96.697847 25.92 
L 101.472 25.92 
L 102.42741 25.92 
L 107.424 30.784038 
L 108.152755 31.464 
L 113.376 36.203717 
L 114.307311 37.008 
L 119.328 41.239016 
L 120.97361 42.552 
L 125.28 45.915839 
L 128.239414 48.096 
L 131.232 50.2614 
L 136.197776 53.64 
L 137.184 54.301277 
L 143.136 58.069677 
L 145.007071 59.184 
L 149.088 61.590023 
L 154.776504 64.728 
L 155.04 64.87241 
L 160.992 67.963528 
L 165.744981 70.272 
L 166.944 70.853202 
L 172.896 73.583588 
L 178.089442 75.816 
L 178.848 76.142958 
L 184.8 78.578487 
L 190.752 80.863491 
L 192.113653 81.36 
L 196.704 83.047285 
L 202.656 85.112375 
L 208.127617 86.904 
L 208.608 87.063446 
L 214.56 88.949292 
L 214.56 92.448 
L 214.56 93.493652 
L 211.250434 92.448 
L 208.608 91.62969 
L 202.656 89.689795 
L 196.704 87.630301 
L 194.711671 86.904 
L 190.752 85.479665 
L 184.8 83.211064 
L 180.231125 81.36 
L 178.848 80.803844 
L 172.896 78.277887 
L 167.467411 75.816 
L 166.944 75.579179 
L 160.992 72.737819 
L 156.164327 70.272 
L 155.04 69.696241 
L 149.088 66.46886 
L 146.076429 64.728 
L 143.136 63.015673 
L 137.184 59.316398 
L 136.982185 59.184 
L 131.232 55.364959 
L 128.791554 53.64 
L 125.28 51.117908 
L 121.313861 48.096 
L 119.328 46.552994 
L 114.454068 42.552 
L 113.376 41.646312 
L 108.121663 37.008 
L 107.424 36.375453 
L 102.230422 31.464 
L 101.472 30.7246 
z
" clip-path="url(#p30a22e9242)" style="fill: #453781"/>
   </g>
   <g id="PathCollection_5">
    <path d="M 41.693235 114.624 
L 41.073424 109.08 
L 40.710238 103.536 
L 40.504322 97.992 
L 40.407533 92.448 
L 40.395527 86.904 
L 40.456933 81.36 
L 40.588839 75.816 
L 40.795199 70.272 
L 41.08709 64.728 
L 41.484742 59.184 
L 41.952 54.306983 
L 42.002265 53.64 
L 42.47625 48.096 
L 43.011249 42.552 
L 43.60493 37.008 
L 44.25518 31.464 
L 44.960074 25.92 
L 46.519261 25.92 
L 45.784379 31.464 
L 45.104461 37.008 
L 44.481429 42.552 
L 43.917392 48.096 
L 43.414676 53.64 
L 42.975842 59.184 
L 42.603719 64.728 
L 42.301435 70.272 
L 42.072457 75.816 
L 41.952 80.195475 
L 41.916062 81.36 
L 41.834552 86.904 
L 41.85049 92.448 
L 41.952 96.848214 
L 41.973819 97.992 
L 42.179268 103.536 
L 42.489556 109.08 
L 42.912747 114.624 
L 43.458231 120.168 
L 44.137096 125.712 
L 44.962662 131.256 
L 45.951269 136.8 
L 46.936686 142.344 
L 47.904 145.440401 
L 48.851018 147.888 
L 51.37717 153.432 
L 53.856 158.088116 
L 54.52106 158.976 
L 59.490083 164.52 
L 59.808 164.808209 
L 65.76 168.821409 
L 68.152777 170.064 
L 71.712 171.484236 
L 77.664 173.317138 
L 83.616 174.754443 
L 88.148156 175.608 
L 89.568 175.839443 
L 95.52 176.45196 
L 101.472 176.853947 
L 107.424 177.19852 
L 113.376 177.45165 
L 119.328 177.630579 
L 125.28 177.748963 
L 131.232 177.817715 
L 137.184 177.845629 
L 143.136 177.839835 
L 149.088 177.806158 
L 155.04 177.749381 
L 160.992 177.673454 
L 166.944 177.581653 
L 172.896 177.476707 
L 178.848 177.360902 
L 184.8 177.236153 
L 190.752 177.104075 
L 196.704 176.966032 
L 202.656 176.823177 
L 208.608 176.67649 
L 214.56 176.526802 
L 214.56 177.823986 
L 208.608 177.966694 
L 202.656 178.106136 
L 196.704 178.241462 
L 190.752 178.371678 
L 184.8 178.495612 
L 178.848 178.611881 
L 172.896 178.718852 
L 166.944 178.814585 
L 160.992 178.896772 
L 155.04 178.962659 
L 149.088 179.008942 
L 143.136 179.031642 
L 137.184 179.025943 
L 131.232 178.985988 
L 125.28 178.904609 
L 119.328 178.772973 
L 113.376 178.580127 
L 107.424 178.312369 
L 101.472 177.95241 
L 95.52 177.611171 
L 89.568 177.149724 
L 83.616 176.300746 
L 80.991781 175.608 
L 77.664 174.792148 
L 71.712 172.918955 
L 65.76 170.611216 
L 64.882042 170.064 
L 59.808 166.599999 
L 57.513603 164.52 
L 53.856 160.463367 
L 52.774172 158.976 
L 49.906848 153.432 
L 47.904 149.092396 
L 47.248461 147.888 
L 45.70727 142.344 
L 44.935135 136.8 
L 43.92208 131.256 
L 43.071779 125.712 
L 42.367895 120.168 
L 41.952 116.103391 
z
" clip-path="url(#p30a22e9242)" style="fill: #3e4989"/>
    <path d="M 90.876294 25.92 
L 95.52 25.92 
L 96.697847 25.92 
L 101.472 30.7246 
L 102.230422 31.464 
L 107.424 36.375453 
L 108.121663 37.008 
L 113.376 41.646312 
L 114.454068 42.552 
L 119.328 46.552994 
L 121.313861 48.096 
L 125.28 51.117908 
L 128.791554 53.64 
L 131.232 55.364959 
L 136.982185 59.184 
L 137.184 59.316398 
L 143.136 63.015673 
L 146.076429 64.728 
L 149.088 66.46886 
L 155.04 69.696241 
L 156.164327 70.272 
L 160.992 72.737819 
L 166.944 75.579179 
L 167.467411 75.816 
L 172.896 78.277887 
L 178.848 80.803844 
L 180.231125 81.36 
L 184.8 83.211064 
L 190.752 85.479665 
L 194.711671 86.904 
L 196.704 87.630301 
L 202.656 89.689795 
L 208.608 91.62969 
L 211.250434 92.448 
L 214.56 93.493652 
L 214.56 97.992 
L 214.56 98.159033 
L 214.032658 97.992 
L 208.608 96.321407 
L 202.656 94.379373 
L 197.081835 92.448 
L 196.704 92.319683 
L 190.752 90.197833 
L 184.8 87.936672 
L 182.230702 86.904 
L 178.848 85.562002 
L 172.896 83.055509 
L 169.112906 81.36 
L 166.944 80.394609 
L 160.992 77.585318 
L 157.475659 75.816 
L 155.04 74.591992 
L 149.088 71.41059 
L 147.083075 70.272 
L 143.136 68.0212 
L 137.734922 64.728 
L 137.184 64.389258 
L 131.232 60.517532 
L 129.302876 59.184 
L 125.28 56.364771 
L 121.616925 53.64 
L 119.328 51.907065 
L 114.564907 48.096 
L 113.376 47.124038 
L 108.053925 42.552 
L 107.424 41.996935 
L 101.994153 37.008 
L 101.472 36.513947 
L 96.297728 31.464 
L 95.52 30.679052 
z
" clip-path="url(#p30a22e9242)" style="fill: #3e4989"/>
   </g>
   <g id="PathCollection_6">
    <path d="M 41.85049 92.448 
L 41.834552 86.904 
L 41.916062 81.36 
L 41.952 80.195475 
L 42.072457 75.816 
L 42.301435 70.272 
L 42.603719 64.728 
L 42.975842 59.184 
L 43.414676 53.64 
L 43.917392 48.096 
L 44.481429 42.552 
L 45.104461 37.008 
L 45.784379 31.464 
L 46.519261 25.92 
L 47.904 25.92 
L 48.284015 25.92 
L 47.904 27.165595 
L 47.313577 31.464 
L 46.603992 37.008 
L 45.951609 42.552 
L 45.358533 48.096 
L 44.827086 53.64 
L 44.359825 59.184 
L 43.959575 64.728 
L 43.629459 70.272 
L 43.372941 75.816 
L 43.193873 81.36 
L 43.096551 86.904 
L 43.085786 92.448 
L 43.166998 97.992 
L 43.346322 103.536 
L 43.63076 109.08 
L 44.028378 114.624 
L 44.548566 120.168 
L 45.202414 125.712 
L 46.003243 131.256 
L 46.967402 136.8 
L 47.904 141.302572 
L 48.240214 142.344 
L 50.373689 147.888 
L 52.847491 153.432 
L 53.856 155.326334 
L 56.589741 158.976 
L 59.808 162.577399 
L 62.138846 164.52 
L 65.76 166.954224 
L 71.712 170.0444 
L 71.761428 170.064 
L 77.664 171.842129 
L 83.616 173.24057 
L 89.568 174.330697 
L 95.52 175.176304 
L 99.504739 175.608 
L 101.472 175.755483 
L 107.424 176.084671 
L 113.376 176.323173 
L 119.328 176.488184 
L 125.28 176.593317 
L 131.232 176.649443 
L 137.184 176.665315 
L 143.136 176.648029 
L 149.088 176.603374 
L 155.04 176.536103 
L 160.992 176.450136 
L 166.944 176.348721 
L 172.896 176.234563 
L 178.848 176.109922 
L 184.8 175.976694 
L 190.752 175.836472 
L 196.704 175.690602 
L 199.98195 175.608 
L 202.656 175.499571 
L 208.608 175.252171 
L 214.56 174.998828 
L 214.56 175.608 
L 214.56 176.526802 
L 208.608 176.67649 
L 202.656 176.823177 
L 196.704 176.966032 
L 190.752 177.104075 
L 184.8 177.236153 
L 178.848 177.360902 
L 172.896 177.476707 
L 166.944 177.581653 
L 160.992 177.673454 
L 155.04 177.749381 
L 149.088 177.806158 
L 143.136 177.839835 
L 137.184 177.845629 
L 131.232 177.817715 
L 125.28 177.748963 
L 119.328 177.630579 
L 113.376 177.45165 
L 107.424 177.19852 
L 101.472 176.853947 
L 95.52 176.45196 
L 89.568 175.839443 
L 88.148156 175.608 
L 83.616 174.754443 
L 77.664 173.317138 
L 71.712 171.484236 
L 68.152777 170.064 
L 65.76 168.821409 
L 59.808 164.808209 
L 59.490083 164.52 
L 54.52106 158.976 
L 53.856 158.088116 
L 51.37717 153.432 
L 48.851018 147.888 
L 47.904 145.440401 
L 46.936686 142.344 
L 45.951269 136.8 
L 44.962662 131.256 
L 44.137096 125.712 
L 43.458231 120.168 
L 42.912747 114.624 
L 42.489556 109.08 
L 42.179268 103.536 
L 41.973819 97.992 
L 41.952 96.848214 
z
" clip-path="url(#p30a22e9242)" style="fill: #375b8d"/>
    <path d="M 84.797164 25.92 
L 89.568 25.92 
L 90.876294 25.92 
L 95.52 30.679052 
L 96.297728 31.464 
L 101.472 36.513947 
L 101.994153 37.008 
L 107.424 41.996935 
L 108.053925 42.552 
L 113.376 47.124038 
L 114.564907 48.096 
L 119.328 51.907065 
L 121.616925 53.64 
L 125.28 56.364771 
L 129.302876 59.184 
L 131.232 60.517532 
L 137.184 64.389258 
L 137.734922 64.728 
L 143.136 68.0212 
L 147.083075 70.272 
L 149.088 71.41059 
L 155.04 74.591992 
L 157.475659 75.816 
L 160.992 77.585318 
L 166.944 80.394609 
L 169.112906 81.36 
L 172.896 83.055509 
L 178.848 85.562002 
L 182.230702 86.904 
L 184.8 87.936672 
L 190.752 90.197833 
L 196.704 92.319683 
L 197.081835 92.448 
L 202.656 94.379373 
L 208.608 96.321407 
L 214.032658 97.992 
L 214.56 98.159033 
L 214.56 103.012726 
L 208.608 101.171175 
L 202.656 99.215167 
L 199.136914 97.992 
L 196.704 97.170012 
L 190.752 95.047557 
L 184.8 92.782668 
L 183.965061 92.448 
L 178.848 90.437334 
L 172.896 87.940534 
L 170.565412 86.904 
L 166.944 85.313438 
L 160.992 82.527353 
L 158.64468 81.36 
L 155.04 79.578013 
L 149.088 76.434284 
L 147.982675 75.816 
L 143.136 73.104445 
L 138.406534 70.272 
L 137.184 69.536093 
L 131.232 65.735767 
L 129.743651 64.728 
L 125.28 61.672426 
L 121.857342 59.184 
L 119.328 57.316625 
L 114.61754 53.64 
L 113.376 52.651775 
L 107.929516 48.096 
L 107.424 47.66297 
L 101.700041 42.552 
L 101.472 42.342582 
L 95.835645 37.008 
L 95.52 36.699376 
L 90.238574 31.464 
L 89.568 30.774016 
z
" clip-path="url(#p30a22e9242)" style="fill: #375b8d"/>
   </g>
   <g id="PathCollection_7">
    <path d="M 46.967402 136.8 
L 46.003243 131.256 
L 45.202414 125.712 
L 44.548566 120.168 
L 44.028378 114.624 
L 43.63076 109.08 
L 43.346322 103.536 
L 43.166998 97.992 
L 43.085786 92.448 
L 43.096551 86.904 
L 43.193873 81.36 
L 43.372941 75.816 
L 43.629459 70.272 
L 43.959575 64.728 
L 44.359825 59.184 
L 44.827086 53.64 
L 45.358533 48.096 
L 45.951609 42.552 
L 46.603992 37.008 
L 47.313577 31.464 
L 47.904 27.165595 
L 48.284015 25.92 
L 51.680515 25.92 
L 49.909035 31.464 
L 48.322065 37.008 
L 47.904 38.607971 
L 47.421789 42.552 
L 46.799675 48.096 
L 46.239497 53.64 
L 45.743809 59.184 
L 45.31543 64.728 
L 44.957482 70.272 
L 44.673425 75.816 
L 44.467105 81.36 
L 44.342817 86.904 
L 44.305369 92.448 
L 44.360176 97.992 
L 44.513375 103.536 
L 44.771965 109.08 
L 45.14401 114.624 
L 45.638901 120.168 
L 46.267731 125.712 
L 47.043825 131.256 
L 47.904 136.320452 
L 48.031858 136.8 
L 49.81726 142.344 
L 51.896361 147.888 
L 53.856 152.344402 
L 54.53666 153.432 
L 58.658423 158.976 
L 59.808 160.262436 
L 64.916474 164.52 
L 65.76 165.087038 
L 71.712 168.10281 
L 76.657782 170.064 
L 77.664 170.36712 
L 83.616 171.726697 
L 89.568 172.779374 
L 95.52 173.588917 
L 101.472 174.203685 
L 107.424 174.660961 
L 113.376 174.98989 
L 119.328 175.213527 
L 125.28 175.350299 
L 131.232 175.415069 
L 137.184 175.419923 
L 143.136 175.374762 
L 149.088 175.287749 
L 155.04 175.165657 
L 160.992 175.014133 
L 166.944 174.837911 
L 172.896 174.640975 
L 178.848 174.426691 
L 184.8 174.197918 
L 190.752 173.957085 
L 196.704 173.706267 
L 202.656 173.44724 
L 208.608 173.181527 
L 214.56 172.910437 
L 214.56 174.998828 
L 208.608 175.252171 
L 202.656 175.499571 
L 199.98195 175.608 
L 196.704 175.690602 
L 190.752 175.836472 
L 184.8 175.976694 
L 178.848 176.109922 
L 172.896 176.234563 
L 166.944 176.348721 
L 160.992 176.450136 
L 155.04 176.536103 
L 149.088 176.603374 
L 143.136 176.648029 
L 137.184 176.665315 
L 131.232 176.649443 
L 125.28 176.593317 
L 119.328 176.488184 
L 113.376 176.323173 
L 107.424 176.084671 
L 101.472 175.755483 
L 99.504739 175.608 
L 95.52 175.176304 
L 89.568 174.330697 
L 83.616 173.24057 
L 77.664 171.842129 
L 71.761428 170.064 
L 71.712 170.0444 
L 65.76 166.954224 
L 62.138846 164.52 
L 59.808 162.577399 
L 56.589741 158.976 
L 53.856 155.326334 
L 52.847491 153.432 
L 50.373689 147.888 
L 48.240214 142.344 
L 47.904 141.302572 
z
" clip-path="url(#p30a22e9242)" style="fill: #2f6b8e"/>
    <path d="M 78.117365 25.92 
L 83.616 25.92 
L 84.797164 25.92 
L 89.568 30.774016 
L 90.238574 31.464 
L 95.52 36.699376 
L 95.835645 37.008 
L 101.472 42.342582 
L 101.700041 42.552 
L 107.424 47.66297 
L 107.929516 48.096 
L 113.376 52.651775 
L 114.61754 53.64 
L 119.328 57.316625 
L 121.857342 59.184 
L 125.28 61.672426 
L 129.743651 64.728 
L 131.232 65.735767 
L 137.184 69.536093 
L 138.406534 70.272 
L 143.136 73.104445 
L 147.982675 75.816 
L 149.088 76.434284 
L 155.04 79.578013 
L 158.64468 81.36 
L 160.992 82.527353 
L 166.944 85.313438 
L 170.565412 86.904 
L 172.896 87.940534 
L 178.848 90.437334 
L 183.965061 92.448 
L 184.8 92.782668 
L 190.752 95.047557 
L 196.704 97.170012 
L 199.136914 97.992 
L 202.656 99.215167 
L 208.608 101.171175 
L 214.56 103.012726 
L 214.56 103.536 
L 214.56 108.099407 
L 208.608 106.233332 
L 202.656 104.247711 
L 200.633044 103.536 
L 196.704 102.20677 
L 190.752 100.071125 
L 185.322693 97.992 
L 184.8 97.797474 
L 178.848 95.465608 
L 172.896 92.966378 
L 171.727886 92.448 
L 166.944 90.366324 
L 160.992 87.592761 
L 159.596756 86.904 
L 155.04 84.680975 
L 149.088 81.565162 
L 148.716903 81.36 
L 143.136 78.288994 
L 138.943117 75.816 
L 137.184 74.777329 
L 131.232 71.040911 
L 130.075048 70.272 
L 125.28 67.060988 
L 122.002049 64.728 
L 119.328 62.800777 
L 114.583181 59.184 
L 113.376 58.247775 
L 107.722706 53.64 
L 107.424 53.391147 
L 101.472 48.229286 
L 101.322306 48.096 
L 95.52 42.773428 
L 95.28104 42.552 
L 89.568 37.068572 
L 89.503768 37.008 
L 83.849185 31.464 
L 83.616 31.225742 
z
" clip-path="url(#p30a22e9242)" style="fill: #2f6b8e"/>
   </g>
   <g id="PathCollection_8">
    <path d="M 47.043825 131.256 
L 46.267731 125.712 
L 45.638901 120.168 
L 45.14401 114.624 
L 44.771965 109.08 
L 44.513375 103.536 
L 44.360176 97.992 
L 44.305369 92.448 
L 44.342817 86.904 
L 44.467105 81.36 
L 44.673425 75.816 
L 44.957482 70.272 
L 45.31543 64.728 
L 45.743809 59.184 
L 46.239497 53.64 
L 46.799675 48.096 
L 47.421789 42.552 
L 47.904 38.607971 
L 48.322065 37.008 
L 49.909035 31.464 
L 51.680515 25.92 
L 53.856 25.92 
L 57.237382 25.92 
L 53.856 29.429024 
L 53.175095 31.464 
L 51.464056 37.008 
L 49.93604 42.552 
L 48.584393 48.096 
L 47.904 51.239426 
L 47.651908 53.64 
L 47.127792 59.184 
L 46.671286 64.728 
L 46.285506 70.272 
L 45.973909 75.816 
L 45.740338 81.36 
L 45.589083 86.904 
L 45.524951 92.448 
L 45.553355 97.992 
L 45.680428 103.536 
L 45.913169 109.08 
L 46.259641 114.624 
L 46.729237 120.168 
L 47.333049 125.712 
L 47.904 129.900937 
L 48.197356 131.256 
L 49.665352 136.8 
L 51.394307 142.344 
L 53.419032 147.888 
L 53.856 148.881705 
L 56.703748 153.432 
L 59.808 157.663533 
L 61.116689 158.976 
L 65.76 162.821419 
L 68.448396 164.52 
L 71.712 166.16122 
L 77.664 168.46322 
L 82.960621 170.064 
L 83.616 170.212825 
L 89.568 171.228052 
L 95.52 172.00153 
L 101.472 172.581581 
L 107.424 173.005443 
L 113.376 173.302212 
L 119.328 173.494893 
L 125.28 173.601859 
L 131.232 173.637924 
L 137.184 173.615121 
L 143.136 173.543305 
L 149.088 173.43059 
L 155.04 173.283705 
L 160.992 173.108253 
L 166.944 172.908928 
L 172.896 172.689674 
L 178.848 172.453821 
L 184.8 172.204193 
L 190.752 171.943185 
L 196.704 171.672842 
L 202.656 171.39491 
L 208.608 171.110883 
L 214.56 170.822046 
L 214.56 172.910437 
L 208.608 173.181527 
L 202.656 173.44724 
L 196.704 173.706267 
L 190.752 173.957085 
L 184.8 174.197918 
L 178.848 174.426691 
L 172.896 174.640975 
L 166.944 174.837911 
L 160.992 175.014133 
L 155.04 175.165657 
L 149.088 175.287749 
L 143.136 175.374762 
L 137.184 175.419923 
L 131.232 175.415069 
L 125.28 175.350299 
L 119.328 175.213527 
L 113.376 174.98989 
L 107.424 174.660961 
L 101.472 174.203685 
L 95.52 173.588917 
L 89.568 172.779374 
L 83.616 171.726697 
L 77.664 170.36712 
L 76.657782 170.064 
L 71.712 168.10281 
L 65.76 165.087038 
L 64.916474 164.52 
L 59.808 160.262436 
L 58.658423 158.976 
L 54.53666 153.432 
L 53.856 152.344402 
L 51.896361 147.888 
L 49.81726 142.344 
L 48.031858 136.8 
L 47.904 136.320452 
z
" clip-path="url(#p30a22e9242)" style="fill: #297a8e"/>
    <path d="M 68.845078 25.92 
L 71.712 25.92 
L 77.664 25.92 
L 78.117365 25.92 
L 83.616 31.225742 
L 83.849185 31.464 
L 89.503768 37.008 
L 89.568 37.068572 
L 95.28104 42.552 
L 95.52 42.773428 
L 101.322306 48.096 
L 101.472 48.229286 
L 107.424 53.391147 
L 107.722706 53.64 
L 113.376 58.247775 
L 114.583181 59.184 
L 119.328 62.800777 
L 122.002049 64.728 
L 125.28 67.060988 
L 130.075048 70.272 
L 131.232 71.040911 
L 137.184 74.777329 
L 138.943117 75.816 
L 143.136 78.288994 
L 148.716903 81.36 
L 149.088 81.565162 
L 155.04 84.680975 
L 159.596756 86.904 
L 160.992 87.592761 
L 166.944 90.366324 
L 171.727886 92.448 
L 172.896 92.966378 
L 178.848 95.465608 
L 184.8 97.797474 
L 185.322693 97.992 
L 190.752 100.071125 
L 196.704 102.20677 
L 200.633044 103.536 
L 202.656 104.247711 
L 208.608 106.233332 
L 214.56 108.099407 
L 214.56 109.08 
L 214.56 113.502856 
L 208.608 111.593393 
L 202.656 109.556689 
L 201.33402 109.08 
L 196.704 107.49755 
L 190.752 105.332219 
L 186.123281 103.536 
L 184.8 103.042508 
L 178.848 100.698692 
L 172.896 98.181565 
L 172.47104 97.992 
L 166.944 95.596349 
L 160.992 92.822128 
L 160.232874 92.448 
L 155.04 89.937383 
L 149.21204 86.904 
L 149.088 86.840166 
L 143.136 83.606421 
L 139.282047 81.36 
L 137.184 80.141774 
L 131.232 76.46089 
L 130.246084 75.816 
L 125.28 72.556429 
L 122.007894 70.272 
L 119.328 68.3838 
L 114.424459 64.728 
L 113.376 63.934923 
L 107.424 59.203616 
L 107.400145 59.184 
L 101.472 54.199032 
L 100.824999 53.64 
L 95.52 48.92627 
L 94.592991 48.096 
L 89.568 43.440871 
L 88.587686 42.552 
L 83.616 37.860508 
L 82.646834 37.008 
L 77.664 32.41574 
L 76.450021 31.464 
L 71.712 27.542918 
z
" clip-path="url(#p30a22e9242)" style="fill: #297a8e"/>
   </g>
   <g id="PathCollection_9">
    <path d="M 47.333049 125.712 
L 46.729237 120.168 
L 46.259641 114.624 
L 45.913169 109.08 
L 45.680428 103.536 
L 45.553355 97.992 
L 45.524951 92.448 
L 45.589083 86.904 
L 45.740338 81.36 
L 45.973909 75.816 
L 46.285506 70.272 
L 46.671286 64.728 
L 47.127792 59.184 
L 47.651908 53.64 
L 47.904 51.239426 
L 48.584393 48.096 
L 49.93604 42.552 
L 51.464056 37.008 
L 53.175095 31.464 
L 53.856 29.429024 
L 57.237382 25.92 
L 59.808 25.92 
L 65.76 25.92 
L 68.845078 25.92 
L 71.712 27.542918 
L 76.450021 31.464 
L 77.664 32.41574 
L 82.646834 37.008 
L 83.616 37.860508 
L 88.587686 42.552 
L 89.568 43.440871 
L 94.592991 48.096 
L 95.52 48.92627 
L 100.824999 53.64 
L 101.472 54.199032 
L 107.400145 59.184 
L 107.424 59.203616 
L 113.376 63.934923 
L 114.424459 64.728 
L 119.328 68.3838 
L 122.007894 70.272 
L 125.28 72.556429 
L 130.246084 75.816 
L 131.232 76.46089 
L 137.184 80.141774 
L 139.282047 81.36 
L 143.136 83.606421 
L 149.088 86.840166 
L 149.21204 86.904 
L 155.04 89.937383 
L 160.232874 92.448 
L 160.992 92.822128 
L 166.944 95.596349 
L 172.47104 97.992 
L 172.896 98.181565 
L 178.848 100.698692 
L 184.8 103.042508 
L 186.123281 103.536 
L 190.752 105.332219 
L 196.704 107.49755 
L 201.33402 109.08 
L 202.656 109.556689 
L 208.608 111.593393 
L 214.56 113.502856 
L 214.56 114.624 
L 214.56 119.375821 
L 208.608 117.396271 
L 202.656 115.277656 
L 200.919058 114.624 
L 196.704 113.150284 
L 190.752 110.932876 
L 186.101932 109.08 
L 184.8 108.588901 
L 178.848 106.215843 
L 172.896 103.660492 
L 172.621177 103.536 
L 166.944 101.066866 
L 160.992 98.275327 
L 160.420655 97.992 
L 155.04 95.399249 
L 149.362107 92.448 
L 149.088 92.308187 
L 143.136 89.100554 
L 139.340513 86.904 
L 137.184 85.668425 
L 131.232 82.033648 
L 130.18937 81.36 
L 125.28 78.193287 
L 121.818182 75.816 
L 119.328 74.097392 
L 114.092535 70.272 
L 113.376 69.742622 
L 107.424 65.136255 
L 106.914743 64.728 
L 101.472 60.278395 
L 100.167561 59.184 
L 95.52 55.183115 
L 93.737369 53.64 
L 89.568 49.913403 
L 87.481504 48.096 
L 83.616 44.596471 
L 81.173949 42.552 
L 77.664 39.475944 
L 74.298124 37.008 
L 71.712 35.007284 
L 65.76 32.049079 
L 59.808 32.303872 
L 55.714851 37.008 
L 53.856 39.481423 
L 52.959884 42.552 
L 51.495602 48.096 
L 50.207295 53.64 
L 49.09015 59.184 
L 48.140394 64.728 
L 47.904 66.354639 
L 47.61353 70.272 
L 47.274392 75.816 
L 47.01357 81.36 
L 46.835349 86.904 
L 46.744533 92.448 
L 46.746534 97.992 
L 46.847481 103.536 
L 47.054373 109.08 
L 47.375273 114.624 
L 47.819572 120.168 
L 47.904 120.960794 
L 48.717429 125.712 
L 49.889432 131.256 
L 51.298845 136.8 
L 52.971354 142.344 
L 53.856 144.785107 
L 55.476046 147.888 
L 58.870835 153.432 
L 59.808 154.709488 
L 64.062232 158.976 
L 65.76 160.382029 
L 71.712 164.123184 
L 72.540203 164.52 
L 77.664 166.448384 
L 83.616 168.182353 
L 89.568 169.525435 
L 92.727925 170.064 
L 95.52 170.414143 
L 101.472 170.959478 
L 107.424 171.349925 
L 113.376 171.614535 
L 119.328 171.776258 
L 125.28 171.853419 
L 131.232 171.860778 
L 137.184 171.81032 
L 143.136 171.711848 
L 149.088 171.573431 
L 155.04 171.401753 
L 160.992 171.202373 
L 166.944 170.979945 
L 172.896 170.738373 
L 178.848 170.480951 
L 184.8 170.210467 
L 187.915336 170.064 
L 190.752 169.853801 
L 196.704 169.398104 
L 202.656 168.926896 
L 208.608 168.442488 
L 214.56 167.946904 
L 214.56 170.064 
L 214.56 170.822046 
L 208.608 171.110883 
L 202.656 171.39491 
L 196.704 171.672842 
L 190.752 171.943185 
L 184.8 172.204193 
L 178.848 172.453821 
L 172.896 172.689674 
L 166.944 172.908928 
L 160.992 173.108253 
L 155.04 173.283705 
L 149.088 173.43059 
L 143.136 173.543305 
L 137.184 173.615121 
L 131.232 173.637924 
L 125.28 173.601859 
L 119.328 173.494893 
L 113.376 173.302212 
L 107.424 173.005443 
L 101.472 172.581581 
L 95.52 172.00153 
L 89.568 171.228052 
L 83.616 170.212825 
L 82.960621 170.064 
L 77.664 168.46322 
L 71.712 166.16122 
L 68.448396 164.52 
L 65.76 162.821419 
L 61.116689 158.976 
L 59.808 157.663533 
L 56.703748 153.432 
L 53.856 148.881705 
L 53.419032 147.888 
L 51.394307 142.344 
L 49.665352 136.8 
L 48.197356 131.256 
L 47.904 129.900937 
z
" clip-path="url(#p30a22e9242)" style="fill: #23898e"/>
   </g>
   <g id="PathCollection_10">
    <path d="M 47.819572 120.168 
L 47.375273 114.624 
L 47.054373 109.08 
L 46.847481 103.536 
L 46.746534 97.992 
L 46.744533 92.448 
L 46.835349 86.904 
L 47.01357 81.36 
L 47.274392 75.816 
L 47.61353 70.272 
L 47.904 66.354639 
L 48.140394 64.728 
L 49.09015 59.184 
L 50.207295 53.64 
L 51.495602 48.096 
L 52.959884 42.552 
L 53.856 39.481423 
L 55.714851 37.008 
L 59.808 32.303872 
L 65.76 32.049079 
L 71.712 35.007284 
L 74.298124 37.008 
L 77.664 39.475944 
L 81.173949 42.552 
L 83.616 44.596471 
L 87.481504 48.096 
L 89.568 49.913403 
L 93.737369 53.64 
L 95.52 55.183115 
L 100.167561 59.184 
L 101.472 60.278395 
L 106.914743 64.728 
L 107.424 65.136255 
L 113.376 69.742622 
L 114.092535 70.272 
L 119.328 74.097392 
L 121.818182 75.816 
L 125.28 78.193287 
L 130.18937 81.36 
L 131.232 82.033648 
L 137.184 85.668425 
L 139.340513 86.904 
L 143.136 89.100554 
L 149.088 92.308187 
L 149.362107 92.448 
L 155.04 95.399249 
L 160.420655 97.992 
L 160.992 98.275327 
L 166.944 101.066866 
L 172.621177 103.536 
L 172.896 103.660492 
L 178.848 106.215843 
L 184.8 108.588901 
L 186.101932 109.08 
L 190.752 110.932876 
L 196.704 113.150284 
L 200.919058 114.624 
L 202.656 115.277656 
L 208.608 117.396271 
L 214.56 119.375821 
L 214.56 120.168 
L 214.56 125.712 
L 214.56 126.053341 
L 213.719274 125.712 
L 208.608 123.912466 
L 202.656 121.665324 
L 198.947061 120.168 
L 196.704 119.350972 
L 190.752 117.049946 
L 184.935661 114.624 
L 184.8 114.571552 
L 178.848 112.146221 
L 172.896 109.525036 
L 171.942478 109.08 
L 166.944 106.87624 
L 160.992 104.045789 
L 159.981384 103.536 
L 155.04 101.144258 
L 149.088 98.030829 
L 149.017693 97.992 
L 143.136 94.834829 
L 139.00807 92.448 
L 137.184 91.412028 
L 131.232 87.812729 
L 129.815044 86.904 
L 125.28 84.019058 
L 121.357795 81.36 
L 119.328 79.984191 
L 113.523052 75.816 
L 113.376 75.709685 
L 107.424 71.225157 
L 106.206591 70.272 
L 101.472 66.50473 
L 99.293079 64.728 
L 95.52 61.579785 
L 92.656691 59.184 
L 89.568 56.521277 
L 86.121269 53.64 
L 83.616 51.466798 
L 79.374618 48.096 
L 77.664 46.67446 
L 71.712 42.622816 
L 71.522685 42.552 
L 65.76 40.258068 
L 59.808 41.364516 
L 58.884083 42.552 
L 55.102433 48.096 
L 53.856 50.234139 
L 53.011007 53.64 
L 51.791168 59.184 
L 50.743208 64.728 
L 49.864082 70.272 
L 49.151766 75.816 
L 48.605259 81.36 
L 48.22461 86.904 
L 48.010968 92.448 
L 47.966665 97.992 
L 48.095336 103.536 
L 48.402099 109.08 
L 48.893795 114.624 
L 49.579353 120.168 
L 50.470299 125.712 
L 51.581507 131.256 
L 52.932339 136.8 
L 53.856 139.920819 
L 54.902739 142.344 
L 57.748119 147.888 
L 59.808 151.297573 
L 61.584379 153.432 
L 65.76 157.639876 
L 67.522813 158.976 
L 71.712 161.558167 
L 77.664 164.404514 
L 77.984064 164.52 
L 83.616 166.095558 
L 89.568 167.36806 
L 95.52 168.328604 
L 101.472 169.03631 
L 107.424 169.537048 
L 113.376 169.866935 
L 119.328 170.054768 
L 120.141388 170.064 
L 125.28 170.104979 
L 131.232 170.083632 
L 132.745268 170.064 
L 137.184 169.977503 
L 143.136 169.790615 
L 149.088 169.542887 
L 155.04 169.243308 
L 160.992 168.899465 
L 166.944 168.517792 
L 172.896 168.103776 
L 178.848 167.662116 
L 184.8 167.196851 
L 190.752 166.711466 
L 196.704 166.208978 
L 202.656 165.692009 
L 208.608 165.16284 
L 214.56 164.623464 
L 214.56 167.946904 
L 208.608 168.442488 
L 202.656 168.926896 
L 196.704 169.398104 
L 190.752 169.853801 
L 187.915336 170.064 
L 184.8 170.210467 
L 178.848 170.480951 
L 172.896 170.738373 
L 166.944 170.979945 
L 160.992 171.202373 
L 155.04 171.401753 
L 149.088 171.573431 
L 143.136 171.711848 
L 137.184 171.81032 
L 131.232 171.860778 
L 125.28 171.853419 
L 119.328 171.776258 
L 113.376 171.614535 
L 107.424 171.349925 
L 101.472 170.959478 
L 95.52 170.414143 
L 92.727925 170.064 
L 89.568 169.525435 
L 83.616 168.182353 
L 77.664 166.448384 
L 72.540203 164.52 
L 71.712 164.123184 
L 65.76 160.382029 
L 64.062232 158.976 
L 59.808 154.709488 
L 58.870835 153.432 
L 55.476046 147.888 
L 53.856 144.785107 
L 52.971354 142.344 
L 51.298845 136.8 
L 49.889432 131.256 
L 48.717429 125.712 
L 47.904 120.960794 
z
" clip-path="url(#p30a22e9242)" style="fill: #1f988b"/>
   </g>
   <g id="PathCollection_11">
    <path d="M 52.932339 136.8 
L 51.581507 131.256 
L 50.470299 125.712 
L 49.579353 120.168 
L 48.893795 114.624 
L 48.402099 109.08 
L 48.095336 103.536 
L 47.966665 97.992 
L 48.010968 92.448 
L 48.22461 86.904 
L 48.605259 81.36 
L 49.151766 75.816 
L 49.864082 70.272 
L 50.743208 64.728 
L 51.791168 59.184 
L 53.011007 53.64 
L 53.856 50.234139 
L 55.102433 48.096 
L 58.884083 42.552 
L 59.808 41.364516 
L 65.76 40.258068 
L 71.522685 42.552 
L 71.712 42.622816 
L 77.664 46.67446 
L 79.374618 48.096 
L 83.616 51.466798 
L 86.121269 53.64 
L 89.568 56.521277 
L 92.656691 59.184 
L 95.52 61.579785 
L 99.293079 64.728 
L 101.472 66.50473 
L 106.206591 70.272 
L 107.424 71.225157 
L 113.376 75.709685 
L 113.523052 75.816 
L 119.328 79.984191 
L 121.357795 81.36 
L 125.28 84.019058 
L 129.815044 86.904 
L 131.232 87.812729 
L 137.184 91.412028 
L 139.00807 92.448 
L 143.136 94.834829 
L 149.017693 97.992 
L 149.088 98.030829 
L 155.04 101.144258 
L 159.981384 103.536 
L 160.992 104.045789 
L 166.944 106.87624 
L 171.942478 109.08 
L 172.896 109.525036 
L 178.848 112.146221 
L 184.8 114.571552 
L 184.935661 114.624 
L 190.752 117.049946 
L 196.704 119.350972 
L 198.947061 120.168 
L 202.656 121.665324 
L 208.608 123.912466 
L 213.719274 125.712 
L 214.56 126.053341 
L 214.56 131.256 
L 214.56 134.732466 
L 208.608 131.852922 
L 207.455357 131.256 
L 202.656 129.269625 
L 196.704 126.60054 
L 194.852173 125.712 
L 190.752 124.023504 
L 184.8 121.382204 
L 182.247723 120.168 
L 178.848 118.718273 
L 172.896 115.992545 
L 170.110674 114.624 
L 166.944 113.187797 
L 160.992 110.289821 
L 158.670892 109.08 
L 155.04 107.295219 
L 149.088 104.143541 
L 148.008651 103.536 
L 143.136 100.905719 
L 138.135861 97.992 
L 137.184 97.452759 
L 131.232 93.877101 
L 129.001989 92.448 
L 125.28 90.101615 
L 120.526169 86.904 
L 119.328 86.103536 
L 113.376 81.911234 
L 112.6256 81.36 
L 107.424 77.524767 
L 105.194783 75.816 
L 101.472 72.92834 
L 98.124921 70.272 
L 95.52 68.163779 
L 91.273157 64.728 
L 89.568 63.310463 
L 84.419313 59.184 
L 83.616 58.51726 
L 77.664 54.069951 
L 76.914905 53.64 
L 71.712 50.497367 
L 65.76 48.748348 
L 59.808 50.908656 
L 58.116102 53.64 
L 55.190154 59.184 
L 53.856 62.210424 
L 53.346022 64.728 
L 52.372903 70.272 
L 51.570544 75.816 
L 50.937708 81.36 
L 50.474227 86.904 
L 50.18105 92.448 
L 50.060326 97.992 
L 50.115524 103.536 
L 50.351604 109.08 
L 50.775271 114.624 
L 51.395323 120.168 
L 52.223169 125.712 
L 53.273583 131.256 
L 53.856 133.70641 
L 54.944003 136.8 
L 57.286846 142.344 
L 59.808 147.438116 
L 60.119253 147.888 
L 64.714306 153.432 
L 65.76 154.485772 
L 71.684176 158.976 
L 71.712 158.993151 
L 77.664 161.713016 
L 83.616 163.829495 
L 86.196186 164.52 
L 89.568 165.210685 
L 95.52 166.102085 
L 101.472 166.742119 
L 107.424 167.176669 
L 113.376 167.441852 
L 119.328 167.566456 
L 125.28 167.57368 
L 131.232 167.482405 
L 137.184 167.308127 
L 143.136 167.063666 
L 149.088 166.759702 
L 155.04 166.405189 
L 160.992 166.007679 
L 166.944 165.573571 
L 172.896 165.108317 
L 178.848 164.616582 
L 179.980478 164.52 
L 184.8 163.852722 
L 190.752 162.987469 
L 196.704 162.081378 
L 202.656 161.138151 
L 208.608 160.161082 
L 214.56 159.153112 
L 214.56 164.52 
L 214.56 164.623464 
L 208.608 165.16284 
L 202.656 165.692009 
L 196.704 166.208978 
L 190.752 166.711466 
L 184.8 167.196851 
L 178.848 167.662116 
L 172.896 168.103776 
L 166.944 168.517792 
L 160.992 168.899465 
L 155.04 169.243308 
L 149.088 169.542887 
L 143.136 169.790615 
L 137.184 169.977503 
L 132.745268 170.064 
L 131.232 170.083632 
L 125.28 170.104979 
L 120.141388 170.064 
L 119.328 170.054768 
L 113.376 169.866935 
L 107.424 169.537048 
L 101.472 169.03631 
L 95.52 168.328604 
L 89.568 167.36806 
L 83.616 166.095558 
L 77.984064 164.52 
L 77.664 164.404514 
L 71.712 161.558167 
L 67.522813 158.976 
L 65.76 157.639876 
L 61.584379 153.432 
L 59.808 151.297573 
L 57.748119 147.888 
L 54.902739 142.344 
L 53.856 139.920819 
z
" clip-path="url(#p30a22e9242)" style="fill: #22a785"/>
   </g>
   <g id="PathCollection_12">
    <path d="M 53.273583 131.256 
L 52.223169 125.712 
L 51.395323 120.168 
L 50.775271 114.624 
L 50.351604 109.08 
L 50.115524 103.536 
L 50.060326 97.992 
L 50.18105 92.448 
L 50.474227 86.904 
L 50.937708 81.36 
L 51.570544 75.816 
L 52.372903 70.272 
L 53.346022 64.728 
L 53.856 62.210424 
L 55.190154 59.184 
L 58.116102 53.64 
L 59.808 50.908656 
L 65.76 48.748348 
L 71.712 50.497367 
L 76.914905 53.64 
L 77.664 54.069951 
L 83.616 58.51726 
L 84.419313 59.184 
L 89.568 63.310463 
L 91.273157 64.728 
L 95.52 68.163779 
L 98.124921 70.272 
L 101.472 72.92834 
L 105.194783 75.816 
L 107.424 77.524767 
L 112.6256 81.36 
L 113.376 81.911234 
L 119.328 86.103536 
L 120.526169 86.904 
L 125.28 90.101615 
L 129.001989 92.448 
L 131.232 93.877101 
L 137.184 97.452759 
L 138.135861 97.992 
L 143.136 100.905719 
L 148.008651 103.536 
L 149.088 104.143541 
L 155.04 107.295219 
L 158.670892 109.08 
L 160.992 110.289821 
L 166.944 113.187797 
L 170.110674 114.624 
L 172.896 115.992545 
L 178.848 118.718273 
L 182.247723 120.168 
L 184.8 121.382204 
L 190.752 124.023504 
L 194.852173 125.712 
L 196.704 126.60054 
L 202.656 129.269625 
L 207.455357 131.256 
L 208.608 131.852922 
L 214.56 134.732466 
L 214.56 136.8 
L 214.56 142.344 
L 214.56 147.888 
L 214.56 153.432 
L 214.56 158.976 
L 214.56 159.153112 
L 208.608 160.161082 
L 202.656 161.138151 
L 196.704 162.081378 
L 190.752 162.987469 
L 184.8 163.852722 
L 179.980478 164.52 
L 178.848 164.616582 
L 172.896 165.108317 
L 166.944 165.573571 
L 160.992 166.007679 
L 155.04 166.405189 
L 149.088 166.759702 
L 143.136 167.063666 
L 137.184 167.308127 
L 131.232 167.482405 
L 125.28 167.57368 
L 119.328 167.566456 
L 113.376 167.441852 
L 107.424 167.176669 
L 101.472 166.742119 
L 95.52 166.102085 
L 89.568 165.210685 
L 86.196186 164.52 
L 83.616 163.829495 
L 77.664 161.713016 
L 71.712 158.993151 
L 71.684176 158.976 
L 65.76 154.485772 
L 64.714306 153.432 
L 60.119253 147.888 
L 59.808 147.438116 
L 57.286846 142.344 
L 54.944003 136.8 
L 53.856 133.70641 
z
M 53.856 124.815518 
L 54.045603 125.712 
L 55.581849 131.256 
L 57.447758 136.8 
L 59.670953 142.344 
L 59.808 142.62091 
L 63.452038 147.888 
L 65.76 150.714276 
L 68.75861 153.432 
L 71.712 155.636799 
L 77.564362 158.976 
L 77.664 159.021517 
L 83.616 161.010952 
L 89.568 162.517221 
L 95.52 163.630443 
L 101.472 164.419442 
L 102.663428 164.52 
L 107.424 164.816289 
L 113.376 165.016768 
L 119.328 165.078143 
L 125.28 165.023592 
L 131.232 164.871973 
L 137.184 164.638751 
L 139.554529 164.52 
L 143.136 164.24543 
L 149.088 163.697968 
L 155.04 163.064959 
L 160.992 162.355947 
L 166.944 161.579141 
L 172.896 160.741637 
L 178.848 159.849611 
L 184.382566 158.976 
L 184.8 158.856743 
L 190.752 157.08347 
L 196.704 155.172646 
L 201.792141 153.432 
L 202.656 152.541271 
L 206.814579 147.888 
L 204.283242 142.344 
L 202.656 141.152094 
L 197.284725 136.8 
L 196.704 136.488893 
L 190.752 133.058704 
L 187.902375 131.256 
L 184.8 129.725131 
L 178.848 126.533282 
L 177.426139 125.712 
L 172.896 123.497609 
L 166.944 120.318738 
L 166.67902 120.168 
L 160.992 117.293615 
L 156.150721 114.624 
L 155.04 114.060597 
L 149.088 110.842386 
L 146.068285 109.08 
L 143.136 107.469077 
L 137.184 103.946435 
L 136.529852 103.536 
L 131.232 100.349551 
L 127.584821 97.992 
L 125.28 96.542427 
L 119.328 92.547128 
L 119.186587 92.448 
L 113.376 88.431614 
L 111.275196 86.904 
L 107.424 84.112555 
L 103.768872 81.36 
L 101.472 79.619222 
L 96.558303 75.816 
L 95.52 74.999986 
L 89.568 70.345631 
L 89.467724 70.272 
L 83.616 65.847953 
L 81.932671 64.728 
L 77.664 61.774866 
L 72.650906 59.184 
L 71.712 58.674106 
L 65.76 57.699251 
L 62.975191 59.184 
L 59.808 61.198707 
L 58.099827 64.728 
L 55.87221 70.272 
L 54.110596 75.816 
L 53.856 76.813684 
L 53.270156 81.36 
L 52.723843 86.904 
L 52.351132 92.448 
L 52.153988 97.992 
L 52.135711 103.536 
L 52.30111 109.08 
L 52.656746 114.624 
L 53.211292 120.168 
z
" clip-path="url(#p30a22e9242)" style="fill: #32b67a"/>
   </g>
   <g id="PathCollection_13">
    <path d="M 53.211292 120.168 
L 52.656746 114.624 
L 52.30111 109.08 
L 52.135711 103.536 
L 52.153988 97.992 
L 52.351132 92.448 
L 52.723843 86.904 
L 53.270156 81.36 
L 53.856 76.813684 
L 54.110596 75.816 
L 55.87221 70.272 
L 58.099827 64.728 
L 59.808 61.198707 
L 62.975191 59.184 
L 65.76 57.699251 
L 71.712 58.674106 
L 72.650906 59.184 
L 77.664 61.774866 
L 81.932671 64.728 
L 83.616 65.847953 
L 89.467724 70.272 
L 89.568 70.345631 
L 95.52 74.999986 
L 96.558303 75.816 
L 101.472 79.619222 
L 103.768872 81.36 
L 107.424 84.112555 
L 111.275196 86.904 
L 113.376 88.431614 
L 119.186587 92.448 
L 119.328 92.547128 
L 125.28 96.542427 
L 127.584821 97.992 
L 131.232 100.349551 
L 136.529852 103.536 
L 137.184 103.946435 
L 143.136 107.469077 
L 146.068285 109.08 
L 149.088 110.842386 
L 155.04 114.060597 
L 156.150721 114.624 
L 160.992 117.293615 
L 166.67902 120.168 
L 166.944 120.318738 
L 172.896 123.497609 
L 177.426139 125.712 
L 178.848 126.533282 
L 184.8 129.725131 
L 187.902375 131.256 
L 190.752 133.058704 
L 196.704 136.488893 
L 197.284725 136.8 
L 202.656 141.152094 
L 204.283242 142.344 
L 206.814579 147.888 
L 202.656 152.541271 
L 201.792141 153.432 
L 196.704 155.172646 
L 190.752 157.08347 
L 184.8 158.856743 
L 184.382566 158.976 
L 178.848 159.849611 
L 172.896 160.741637 
L 166.944 161.579141 
L 160.992 162.355947 
L 155.04 163.064959 
L 149.088 163.697968 
L 143.136 164.24543 
L 139.554529 164.52 
L 137.184 164.638751 
L 131.232 164.871973 
L 125.28 165.023592 
L 119.328 165.078143 
L 113.376 165.016768 
L 107.424 164.816289 
L 102.663428 164.52 
L 101.472 164.419442 
L 95.52 163.630443 
L 89.568 162.517221 
L 83.616 161.010952 
L 77.664 159.021517 
L 77.564362 158.976 
L 71.712 155.636799 
L 68.75861 153.432 
L 65.76 150.714276 
L 63.452038 147.888 
L 59.808 142.62091 
L 59.670953 142.344 
L 57.447758 136.8 
L 55.581849 131.256 
L 54.045603 125.712 
L 53.856 124.815518 
z
M 59.808 136.320837 
L 60.026067 136.8 
L 63.160155 142.344 
L 65.76 146.246416 
L 67.264909 147.888 
L 71.712 151.909106 
L 73.960023 153.432 
L 77.664 155.459964 
L 83.616 157.919981 
L 87.062706 158.976 
L 89.568 159.571306 
L 95.52 160.55702 
L 101.472 161.218527 
L 107.424 161.609515 
L 113.376 161.772435 
L 119.328 161.741314 
L 125.28 161.543761 
L 131.232 161.202418 
L 137.184 160.736035 
L 143.136 160.160275 
L 149.088 159.488331 
L 153.154192 158.976 
L 155.04 158.579396 
L 160.992 157.200482 
L 166.944 155.662091 
L 172.896 153.968496 
L 174.678989 153.432 
L 178.848 150.466433 
L 182.101966 147.888 
L 181.847382 142.344 
L 178.848 139.007583 
L 177.06322 136.8 
L 172.896 133.785457 
L 169.733827 131.256 
L 166.944 129.577768 
L 161.103747 125.712 
L 160.992 125.650195 
L 155.04 122.135047 
L 151.996835 120.168 
L 149.088 118.510513 
L 143.136 114.821869 
L 142.836196 114.624 
L 137.184 111.21563 
L 133.914749 109.08 
L 131.232 107.4339 
L 125.334143 103.536 
L 125.28 103.501702 
L 119.328 99.542342 
L 117.135165 97.992 
L 113.376 95.402129 
L 109.301339 92.448 
L 107.424 91.103596 
L 101.775445 86.904 
L 101.472 86.678553 
L 95.52 82.225319 
L 94.343749 81.36 
L 89.568 77.797218 
L 86.744088 75.816 
L 83.616 73.565854 
L 78.30702 70.272 
L 77.664 69.858419 
L 71.712 67.38373 
L 65.76 67.344789 
L 62.255956 70.272 
L 59.808 72.843012 
L 58.729607 75.816 
L 57.102817 81.36 
L 55.881728 86.904 
L 55.033872 92.448 
L 54.534359 97.992 
L 54.364796 103.536 
L 54.512572 109.08 
L 54.970454 114.624 
L 55.736493 120.168 
L 56.814263 125.712 
L 58.213531 131.256 
z
" clip-path="url(#p30a22e9242)" style="fill: #4ec36b"/>
   </g>
   <g id="PathCollection_14">
    <path d="M 58.213531 131.256 
L 56.814263 125.712 
L 55.736493 120.168 
L 54.970454 114.624 
L 54.512572 109.08 
L 54.364796 103.536 
L 54.534359 97.992 
L 55.033872 92.448 
L 55.881728 86.904 
L 57.102817 81.36 
L 58.729607 75.816 
L 59.808 72.843012 
L 62.255956 70.272 
L 65.76 67.344789 
L 71.712 67.38373 
L 77.664 69.858419 
L 78.30702 70.272 
L 83.616 73.565854 
L 86.744088 75.816 
L 89.568 77.797218 
L 94.343749 81.36 
L 95.52 82.225319 
L 101.472 86.678553 
L 101.775445 86.904 
L 107.424 91.103596 
L 109.301339 92.448 
L 113.376 95.402129 
L 117.135165 97.992 
L 119.328 99.542342 
L 125.28 103.501702 
L 125.334143 103.536 
L 131.232 107.4339 
L 133.914749 109.08 
L 137.184 111.21563 
L 142.836196 114.624 
L 143.136 114.821869 
L 149.088 118.510513 
L 151.996835 120.168 
L 155.04 122.135047 
L 160.992 125.650195 
L 161.103747 125.712 
L 166.944 129.577768 
L 169.733827 131.256 
L 172.896 133.785457 
L 177.06322 136.8 
L 178.848 139.007583 
L 181.847382 142.344 
L 182.101966 147.888 
L 178.848 150.466433 
L 174.678989 153.432 
L 172.896 153.968496 
L 166.944 155.662091 
L 160.992 157.200482 
L 155.04 158.579396 
L 153.154192 158.976 
L 149.088 159.488331 
L 143.136 160.160275 
L 137.184 160.736035 
L 131.232 161.202418 
L 125.28 161.543761 
L 119.328 161.741314 
L 113.376 161.772435 
L 107.424 161.609515 
L 101.472 161.218527 
L 95.52 160.55702 
L 89.568 159.571306 
L 87.062706 158.976 
L 83.616 157.919981 
L 77.664 155.459964 
L 73.960023 153.432 
L 71.712 151.909106 
L 67.264909 147.888 
L 65.76 146.246416 
L 63.160155 142.344 
L 60.026067 136.8 
L 59.808 136.320837 
z
M 59.808 126.659996 
L 61.416044 131.256 
L 63.830495 136.8 
L 65.76 140.422566 
L 67.197823 142.344 
L 71.712 147.34701 
L 72.379173 147.888 
L 77.664 151.356213 
L 81.85774 153.432 
L 83.616 154.121532 
L 89.568 155.762479 
L 95.52 156.905848 
L 101.472 157.626841 
L 107.424 157.983238 
L 113.376 158.020028 
L 119.328 157.77261 
L 125.28 157.269054 
L 131.232 156.53174 
L 137.184 155.578561 
L 143.136 154.42382 
L 147.578133 153.432 
L 149.088 152.785978 
L 155.04 149.864351 
L 158.521764 147.888 
L 160.66571 142.344 
L 157.971503 136.8 
L 155.04 133.968779 
L 152.503669 131.256 
L 149.088 128.673581 
L 145.528122 125.712 
L 143.136 124.09514 
L 137.823307 120.168 
L 137.184 119.755716 
L 131.232 115.644329 
L 129.859854 114.624 
L 125.28 111.531615 
L 121.901556 109.08 
L 119.328 107.33029 
L 114.086726 103.536 
L 113.376 103.042838 
L 107.424 98.742341 
L 106.414053 97.992 
L 101.472 94.404056 
L 98.81313 92.448 
L 95.52 90.042896 
L 91.135725 86.904 
L 89.568 85.774171 
L 83.616 81.828334 
L 82.722744 81.36 
L 77.664 78.636082 
L 71.712 76.851605 
L 65.76 78.192403 
L 63.287256 81.36 
L 60.114431 86.904 
L 59.808 87.641979 
L 58.876366 92.448 
L 58.1607 97.992 
L 57.792159 103.536 
L 57.756206 109.08 
L 58.043966 114.624 
L 58.652083 120.168 
L 59.582924 125.712 
z
" clip-path="url(#p30a22e9242)" style="fill: #70cf57"/>
   </g>
   <g id="PathCollection_15">
    <path d="M 59.582924 125.712 
L 58.652083 120.168 
L 58.043966 114.624 
L 57.756206 109.08 
L 57.792159 103.536 
L 58.1607 97.992 
L 58.876366 92.448 
L 59.808 87.641979 
L 60.114431 86.904 
L 63.287256 81.36 
L 65.76 78.192403 
L 71.712 76.851605 
L 77.664 78.636082 
L 82.722744 81.36 
L 83.616 81.828334 
L 89.568 85.774171 
L 91.135725 86.904 
L 95.52 90.042896 
L 98.81313 92.448 
L 101.472 94.404056 
L 106.414053 97.992 
L 107.424 98.742341 
L 113.376 103.042838 
L 114.086726 103.536 
L 119.328 107.33029 
L 121.901556 109.08 
L 125.28 111.531615 
L 129.859854 114.624 
L 131.232 115.644329 
L 137.184 119.755716 
L 137.823307 120.168 
L 143.136 124.09514 
L 145.528122 125.712 
L 149.088 128.673581 
L 152.503669 131.256 
L 155.04 133.968779 
L 157.971503 136.8 
L 160.66571 142.344 
L 158.521764 147.888 
L 155.04 149.864351 
L 149.088 152.785978 
L 147.578133 153.432 
L 143.136 154.42382 
L 137.184 155.578561 
L 131.232 156.53174 
L 125.28 157.269054 
L 119.328 157.77261 
L 113.376 158.020028 
L 107.424 157.983238 
L 101.472 157.626841 
L 95.52 156.905848 
L 89.568 155.762479 
L 83.616 154.121532 
L 81.85774 153.432 
L 77.664 151.356213 
L 72.379173 147.888 
L 71.712 147.34701 
L 67.197823 142.344 
L 65.76 140.422566 
L 63.830495 136.8 
L 61.416044 131.256 
L 59.808 126.659996 
z
M 65.76 131.899252 
L 68.652748 136.8 
L 71.712 141.070504 
L 72.994975 142.344 
L 77.664 146.067329 
L 80.791625 147.888 
L 83.616 149.18425 
L 89.568 151.066468 
L 95.52 152.308068 
L 101.472 152.978931 
L 107.424 153.126987 
L 113.376 152.783029 
L 119.328 151.963775 
L 125.28 150.673723 
L 131.232 148.906107 
L 134.026299 147.888 
L 137.184 145.059361 
L 139.643794 142.344 
L 139.234077 136.8 
L 137.184 133.816052 
L 135.590509 131.256 
L 131.232 126.910959 
L 130.131516 125.712 
L 125.28 121.631375 
L 123.671266 120.168 
L 119.328 116.804669 
L 116.69339 114.624 
L 113.376 112.151995 
L 109.464239 109.08 
L 107.424 107.583505 
L 102.092321 103.536 
L 101.472 103.084313 
L 95.52 98.776085 
L 94.383737 97.992 
L 89.568 94.727837 
L 85.813229 92.448 
L 83.616 91.11181 
L 77.664 88.487557 
L 71.712 87.793064 
L 65.76 91.715472 
L 65.406593 92.448 
L 63.457041 97.992 
L 62.31533 103.536 
L 61.855952 109.08 
L 61.992132 114.624 
L 62.665413 120.168 
L 63.83936 125.712 
L 65.496077 131.256 
z
" clip-path="url(#p30a22e9242)" style="fill: #98d83e"/>
   </g>
   <g id="PathCollection_16">
    <path d="M 65.496077 131.256 
L 63.83936 125.712 
L 62.665413 120.168 
L 61.992132 114.624 
L 61.855952 109.08 
L 62.31533 103.536 
L 63.457041 97.992 
L 65.406593 92.448 
L 65.76 91.715472 
L 71.712 87.793064 
L 77.664 88.487557 
L 83.616 91.11181 
L 85.813229 92.448 
L 89.568 94.727837 
L 94.383737 97.992 
L 95.52 98.776085 
L 101.472 103.084313 
L 102.092321 103.536 
L 107.424 107.583505 
L 109.464239 109.08 
L 113.376 112.151995 
L 116.69339 114.624 
L 119.328 116.804669 
L 123.671266 120.168 
L 125.28 121.631375 
L 130.131516 125.712 
L 131.232 126.910959 
L 135.590509 131.256 
L 137.184 133.816052 
L 139.234077 136.8 
L 139.643794 142.344 
L 137.184 145.059361 
L 134.026299 147.888 
L 131.232 148.906107 
L 125.28 150.673723 
L 119.328 151.963775 
L 113.376 152.783029 
L 107.424 153.126987 
L 101.472 152.978931 
L 95.52 152.308068 
L 89.568 151.066468 
L 83.616 149.18425 
L 80.791625 147.888 
L 77.664 146.067329 
L 72.994975 142.344 
L 71.712 141.070504 
L 68.652748 136.8 
L 65.76 131.899252 
z
M 71.712 130.90149 
L 71.908253 131.256 
L 76.235066 136.8 
L 77.664 138.231951 
L 83.53125 142.344 
L 83.616 142.389982 
L 89.568 144.340285 
L 95.52 145.400857 
L 101.472 145.587031 
L 107.424 144.865348 
L 113.376 143.147474 
L 115.204478 142.344 
L 119.056864 136.8 
L 117.650069 131.256 
L 113.791512 125.712 
L 113.376 125.305655 
L 108.399875 120.168 
L 107.424 119.335073 
L 102.071703 114.624 
L 101.472 114.154991 
L 95.52 109.568277 
L 94.83017 109.08 
L 89.568 105.625088 
L 85.754823 103.536 
L 83.616 102.407408 
L 77.664 100.843976 
L 71.712 102.745745 
L 71.175919 103.536 
L 68.944678 109.08 
L 68.205151 114.624 
L 68.572267 120.168 
L 69.822595 125.712 
z
" clip-path="url(#p30a22e9242)" style="fill: #c2df23"/>
   </g>
   <g id="PathCollection_17">
    <path d="M 69.822595 125.712 
L 68.572267 120.168 
L 68.205151 114.624 
L 68.944678 109.08 
L 71.175919 103.536 
L 71.712 102.745745 
L 77.664 100.843976 
L 83.616 102.407408 
L 85.754823 103.536 
L 89.568 105.625088 
L 94.83017 109.08 
L 95.52 109.568277 
L 101.472 114.154991 
L 102.071703 114.624 
L 107.424 119.335073 
L 108.399875 120.168 
L 113.376 125.305655 
L 113.791512 125.712 
L 117.650069 131.256 
L 119.056864 136.8 
L 115.204478 142.344 
L 113.376 143.147474 
L 107.424 144.865348 
L 101.472 145.587031 
L 95.52 145.400857 
L 89.568 144.340285 
L 83.616 142.389982 
L 83.53125 142.344 
L 77.664 138.231951 
L 76.235066 136.8 
L 71.908253 131.256 
L 71.712 130.90149 
z
" clip-path="url(#p30a22e9242)" style="fill: #ece51b"/>
   </g>
   <g id="PathCollection_18">
    <defs>
     <path id="m1cfbd3be62" d="M -4.330127 4.330127 
L 4.330127 -4.330127 
M -4.330127 -4.330127 
L 4.330127 4.330127 
" style="stroke: #000000; stroke-width: 2"/>
    </defs>
    <g clip-path="url(#p30a22e9242)">
     <use xlink:href="#m1cfbd3be62" x="85.6" y="127.56" style="stroke: #000000; stroke-width: 2"/>
    </g>
   </g>
   <g id="matplotlib.axis_1">
    <g id="xtick_1">
     <g id="line2d_1">
      <defs>
       <path id="m745767d2c2" d="M 0 0 
L 0 6 
" style="stroke: #000000; stroke-width: 2"/>
      </defs>
      <g>
       <use xlink:href="#m745767d2c2" x="75.68" y="192.24" style="stroke: #000000; stroke-width: 2"/>
      </g>
     </g>
     <g id="text_1">
      <!-- $\mathdefault{250}$ -->
      <g transform="translate(62.31 212.377813) scale(0.14 -0.14)">
       <defs>
        <path id="DejaVuSans-32" d="M 1228 531 
L 3431 531 
L 3431 0 
L 469 0 
L 469 531 
Q 828 903 1448 1529 
Q 2069 2156 2228 2338 
Q 2531 2678 2651 2914 
Q 2772 3150 2772 3378 
Q 2772 3750 2511 3984 
Q 2250 4219 1831 4219 
Q 1534 4219 1204 4116 
Q 875 4013 500 3803 
L 500 4441 
Q 881 4594 1212 4672 
Q 1544 4750 1819 4750 
Q 2544 4750 2975 4387 
Q 3406 4025 3406 3419 
Q 3406 3131 3298 2873 
Q 3191 2616 2906 2266 
Q 2828 2175 2409 1742 
Q 1991 1309 1228 531 
z
" transform="scale(0.015625)"/>
        <path id="DejaVuSans-35" d="M 691 4666 
L 3169 4666 
L 3169 4134 
L 1269 4134 
L 1269 2991 
Q 1406 3038 1543 3061 
Q 1681 3084 1819 3084 
Q 2600 3084 3056 2656 
Q 3513 2228 3513 1497 
Q 3513 744 3044 326 
Q 2575 -91 1722 -91 
Q 1428 -91 1123 -41 
Q 819 9 494 109 
L 494 744 
Q 775 591 1075 516 
Q 1375 441 1709 441 
Q 2250 441 2565 725 
Q 2881 1009 2881 1497 
Q 2881 1984 2565 2268 
Q 2250 2553 1709 2553 
Q 1456 2553 1204 2497 
Q 953 2441 691 2322 
L 691 4666 
z
" transform="scale(0.015625)"/>
        <path id="DejaVuSans-30" d="M 2034 4250 
Q 1547 4250 1301 3770 
Q 1056 3291 1056 2328 
Q 1056 1369 1301 889 
Q 1547 409 2034 409 
Q 2525 409 2770 889 
Q 3016 1369 3016 2328 
Q 3016 3291 2770 3770 
Q 2525 4250 2034 4250 
z
M 2034 4750 
Q 2819 4750 3233 4129 
Q 3647 3509 3647 2328 
Q 3647 1150 3233 529 
Q 2819 -91 2034 -91 
Q 1250 -91 836 529 
Q 422 1150 422 2328 
Q 422 3509 836 4129 
Q 1250 4750 2034 4750 
z
" transform="scale(0.015625)"/>
       </defs>
       <use xlink:href="#DejaVuSans-32" transform="translate(0 0.78125)"/>
       <use xlink:href="#DejaVuSans-35" transform="translate(63.623047 0.78125)"/>
       <use xlink:href="#DejaVuSans-30" transform="translate(127.246094 0.78125)"/>
      </g>
     </g>
    </g>
    <g id="xtick_2">
     <g id="line2d_2">
      <g>
       <use xlink:href="#m745767d2c2" x="125.28" y="192.24" style="stroke: #000000; stroke-width: 2"/>
      </g>
     </g>
     <g id="text_2">
      <!-- $\mathdefault{500}$ -->
      <g transform="translate(111.91 212.377813) scale(0.14 -0.14)">
       <use xlink:href="#DejaVuSans-35" transform="translate(0 0.78125)"/>
       <use xlink:href="#DejaVuSans-30" transform="translate(63.623047 0.78125)"/>
       <use xlink:href="#DejaVuSans-30" transform="translate(127.246094 0.78125)"/>
      </g>
     </g>
    </g>
    <g id="xtick_3">
     <g id="line2d_3">
      <g>
       <use xlink:href="#m745767d2c2" x="174.88" y="192.24" style="stroke: #000000; stroke-width: 2"/>
      </g>
     </g>
     <g id="text_3">
      <!-- $\mathdefault{750}$ -->
      <g transform="translate(161.51 212.377813) scale(0.14 -0.14)">
       <defs>
        <path id="DejaVuSans-37" d="M 525 4666 
L 3525 4666 
L 3525 4397 
L 1831 0 
L 1172 0 
L 2766 4134 
L 525 4134 
L 525 4666 
z
" transform="scale(0.015625)"/>
       </defs>
       <use xlink:href="#DejaVuSans-37" transform="translate(0 0.78125)"/>
       <use xlink:href="#DejaVuSans-35" transform="translate(63.623047 0.78125)"/>
       <use xlink:href="#DejaVuSans-30" transform="translate(127.246094 0.78125)"/>
      </g>
     </g>
    </g>
    <g id="text_4">
     <!-- Diploid N$_e$1 -->
     <g transform="translate(74.34 232.969375) scale(0.18 -0.18)">
      <defs>
       <path id="DejaVuSans-44" d="M 1259 4147 
L 1259 519 
L 2022 519 
Q 2988 519 3436 956 
Q 3884 1394 3884 2338 
Q 3884 3275 3436 3711 
Q 2988 4147 2022 4147 
L 1259 4147 
z
M 628 4666 
L 1925 4666 
Q 3281 4666 3915 4102 
Q 4550 3538 4550 2338 
Q 4550 1131 3912 565 
Q 3275 0 1925 0 
L 628 0 
L 628 4666 
z
" transform="scale(0.015625)"/>
       <path id="DejaVuSans-69" d="M 603 3500 
L 1178 3500 
L 1178 0 
L 603 0 
L 603 3500 
z
M 603 4863 
L 1178 4863 
L 1178 4134 
L 603 4134 
L 603 4863 
z
" transform="scale(0.015625)"/>
       <path id="DejaVuSans-70" d="M 1159 525 
L 1159 -1331 
L 581 -1331 
L 581 3500 
L 1159 3500 
L 1159 2969 
Q 1341 3281 1617 3432 
Q 1894 3584 2278 3584 
Q 2916 3584 3314 3078 
Q 3713 2572 3713 1747 
Q 3713 922 3314 415 
Q 2916 -91 2278 -91 
Q 1894 -91 1617 61 
Q 1341 213 1159 525 
z
M 3116 1747 
Q 3116 2381 2855 2742 
Q 2594 3103 2138 3103 
Q 1681 3103 1420 2742 
Q 1159 2381 1159 1747 
Q 1159 1113 1420 752 
Q 1681 391 2138 391 
Q 2594 391 2855 752 
Q 3116 1113 3116 1747 
z
" transform="scale(0.015625)"/>
       <path id="DejaVuSans-6c" d="M 603 4863 
L 1178 4863 
L 1178 0 
L 603 0 
L 603 4863 
z
" transform="scale(0.015625)"/>
       <path id="DejaVuSans-6f" d="M 1959 3097 
Q 1497 3097 1228 2736 
Q 959 2375 959 1747 
Q 959 1119 1226 758 
Q 1494 397 1959 397 
Q 2419 397 2687 759 
Q 2956 1122 2956 1747 
Q 2956 2369 2687 2733 
Q 2419 3097 1959 3097 
z
M 1959 3584 
Q 2709 3584 3137 3096 
Q 3566 2609 3566 1747 
Q 3566 888 3137 398 
Q 2709 -91 1959 -91 
Q 1206 -91 779 398 
Q 353 888 353 1747 
Q 353 2609 779 3096 
Q 1206 3584 1959 3584 
z
" transform="scale(0.015625)"/>
       <path id="DejaVuSans-64" d="M 2906 2969 
L 2906 4863 
L 3481 4863 
L 3481 0 
L 2906 0 
L 2906 525 
Q 2725 213 2448 61 
Q 2172 -91 1784 -91 
Q 1150 -91 751 415 
Q 353 922 353 1747 
Q 353 2572 751 3078 
Q 1150 3584 1784 3584 
Q 2172 3584 2448 3432 
Q 2725 3281 2906 2969 
z
M 947 1747 
Q 947 1113 1208 752 
Q 1469 391 1925 391 
Q 2381 391 2643 752 
Q 2906 1113 2906 1747 
Q 2906 2381 2643 2742 
Q 2381 3103 1925 3103 
Q 1469 3103 1208 2742 
Q 947 2381 947 1747 
z
" transform="scale(0.015625)"/>
       <path id="DejaVuSans-20" transform="scale(0.015625)"/>
       <path id="DejaVuSans-4e" d="M 628 4666 
L 1478 4666 
L 3547 763 
L 3547 4666 
L 4159 4666 
L 4159 0 
L 3309 0 
L 1241 3903 
L 1241 0 
L 628 0 
L 628 4666 
z
" transform="scale(0.015625)"/>
       <path id="DejaVuSans-Oblique-65" d="M 3078 2063 
Q 3088 2113 3092 2166 
Q 3097 2219 3097 2272 
Q 3097 2653 2873 2875 
Q 2650 3097 2266 3097 
Q 1838 3097 1509 2826 
Q 1181 2556 1013 2059 
L 3078 2063 
z
M 3578 1613 
L 903 1613 
Q 884 1494 878 1425 
Q 872 1356 872 1306 
Q 872 872 1139 634 
Q 1406 397 1894 397 
Q 2269 397 2603 481 
Q 2938 566 3225 728 
L 3116 159 
Q 2806 34 2476 -28 
Q 2147 -91 1806 -91 
Q 1078 -91 686 257 
Q 294 606 294 1247 
Q 294 1794 489 2264 
Q 684 2734 1063 3103 
Q 1306 3334 1642 3459 
Q 1978 3584 2356 3584 
Q 2950 3584 3301 3228 
Q 3653 2872 3653 2272 
Q 3653 2128 3634 1964 
Q 3616 1800 3578 1613 
z
" transform="scale(0.015625)"/>
       <path id="DejaVuSans-31" d="M 794 531 
L 1825 531 
L 1825 4091 
L 703 3866 
L 703 4441 
L 1819 4666 
L 2450 4666 
L 2450 531 
L 3481 531 
L 3481 0 
L 794 0 
L 794 531 
z
" transform="scale(0.015625)"/>
      </defs>
      <use xlink:href="#DejaVuSans-44" transform="translate(0 0.015625)"/>
      <use xlink:href="#DejaVuSans-69" transform="translate(77.001953 0.015625)"/>
      <use xlink:href="#DejaVuSans-70" transform="translate(104.785156 0.015625)"/>
      <use xlink:href="#DejaVuSans-6c" transform="translate(168.261719 0.015625)"/>
      <use xlink:href="#DejaVuSans-6f" transform="translate(196.044922 0.015625)"/>
      <use xlink:href="#DejaVuSans-69" transform="translate(257.226562 0.015625)"/>
      <use xlink:href="#DejaVuSans-64" transform="translate(285.009766 0.015625)"/>
      <use xlink:href="#DejaVuSans-20" transform="translate(348.486328 0.015625)"/>
      <use xlink:href="#DejaVuSans-4e" transform="translate(380.273438 0.015625)"/>
      <use xlink:href="#DejaVuSans-Oblique-65" transform="translate(456.035156 -16.390625) scale(0.7)"/>
      <use xlink:href="#DejaVuSans-31" transform="translate(501.835938 0.015625)"/>
     </g>
    </g>
    <g id="text_5">
     <!-- $\times\mathdefault{10^{3}}\mathdefault{}$ -->
     <g transform="translate(188.56 225.887812) scale(0.1 -0.1)">
      <defs>
       <path id="DejaVuSans-d7" d="M 4488 3438 
L 3059 2003 
L 4488 575 
L 4116 197 
L 2681 1631 
L 1247 197 
L 878 575 
L 2303 2003 
L 878 3438 
L 1247 3816 
L 2681 2381 
L 4116 3816 
L 4488 3438 
z
" transform="scale(0.015625)"/>
       <path id="DejaVuSans-33" d="M 2597 2516 
Q 3050 2419 3304 2112 
Q 3559 1806 3559 1356 
Q 3559 666 3084 287 
Q 2609 -91 1734 -91 
Q 1441 -91 1130 -33 
Q 819 25 488 141 
L 488 750 
Q 750 597 1062 519 
Q 1375 441 1716 441 
Q 2309 441 2620 675 
Q 2931 909 2931 1356 
Q 2931 1769 2642 2001 
Q 2353 2234 1838 2234 
L 1294 2234 
L 1294 2753 
L 1863 2753 
Q 2328 2753 2575 2939 
Q 2822 3125 2822 3475 
Q 2822 3834 2567 4026 
Q 2313 4219 1838 4219 
Q 1578 4219 1281 4162 
Q 984 4106 628 3988 
L 628 4550 
Q 988 4650 1302 4700 
Q 1616 4750 1894 4750 
Q 2613 4750 3031 4423 
Q 3450 4097 3450 3541 
Q 3450 3153 3228 2886 
Q 3006 2619 2597 2516 
z
" transform="scale(0.015625)"/>
      </defs>
      <use xlink:href="#DejaVuSans-d7" transform="translate(0 0.765625)"/>
      <use xlink:href="#DejaVuSans-31" transform="translate(83.789062 0.765625)"/>
      <use xlink:href="#DejaVuSans-30" transform="translate(147.412109 0.765625)"/>
      <use xlink:href="#DejaVuSans-33" transform="translate(211.992188 39.046875) scale(0.7)"/>
     </g>
    </g>
   </g>
   <g id="matplotlib.axis_2">
    <g id="ytick_1">
     <g id="line2d_4">
      <defs>
       <path id="mf6479b92cc" d="M 0 0 
L -6 0 
" style="stroke: #000000; stroke-width: 2"/>
      </defs>
      <g>
       <use xlink:href="#mf6479b92cc" x="36" y="155.28" style="stroke: #000000; stroke-width: 2"/>
      </g>
     </g>
     <g id="text_6">
      <!-- $\mathdefault{250}$ -->
      <g transform="translate(-0.24 160.598906) scale(0.14 -0.14)">
       <use xlink:href="#DejaVuSans-32" transform="translate(0 0.78125)"/>
       <use xlink:href="#DejaVuSans-35" transform="translate(63.623047 0.78125)"/>
       <use xlink:href="#DejaVuSans-30" transform="translate(127.246094 0.78125)"/>
      </g>
     </g>
    </g>
    <g id="ytick_2">
     <g id="line2d_5">
      <g>
       <use xlink:href="#mf6479b92cc" x="36" y="109.08" style="stroke: #000000; stroke-width: 2"/>
      </g>
     </g>
     <g id="text_7">
      <!-- $\mathdefault{500}$ -->
      <g transform="translate(-0.24 114.398906) scale(0.14 -0.14)">
       <use xlink:href="#DejaVuSans-35" transform="translate(0 0.78125)"/>
       <use xlink:href="#DejaVuSans-30" transform="translate(63.623047 0.78125)"/>
       <use xlink:href="#DejaVuSans-30" transform="translate(127.246094 0.78125)"/>
      </g>
     </g>
    </g>
    <g id="ytick_3">
     <g id="line2d_6">
      <g>
       <use xlink:href="#mf6479b92cc" x="36" y="62.88" style="stroke: #000000; stroke-width: 2"/>
      </g>
     </g>
     <g id="text_8">
      <!-- $\mathdefault{750}$ -->
      <g transform="translate(-0.24 68.198906) scale(0.14 -0.14)">
       <use xlink:href="#DejaVuSans-37" transform="translate(0 0.78125)"/>
       <use xlink:href="#DejaVuSans-35" transform="translate(63.623047 0.78125)"/>
       <use xlink:href="#DejaVuSans-30" transform="translate(127.246094 0.78125)"/>
      </g>
     </g>
    </g>
    <g id="text_9">
     <!-- Diploid N$_e$2 -->
     <g transform="translate(-8.02 160.02) rotate(-90) scale(0.18 -0.18)">
      <use xlink:href="#DejaVuSans-44" transform="translate(0 0.015625)"/>
      <use xlink:href="#DejaVuSans-69" transform="translate(77.001953 0.015625)"/>
      <use xlink:href="#DejaVuSans-70" transform="translate(104.785156 0.015625)"/>
      <use xlink:href="#DejaVuSans-6c" transform="translate(168.261719 0.015625)"/>
      <use xlink:href="#DejaVuSans-6f" transform="translate(196.044922 0.015625)"/>
      <use xlink:href="#DejaVuSans-69" transform="translate(257.226562 0.015625)"/>
      <use xlink:href="#DejaVuSans-64" transform="translate(285.009766 0.015625)"/>
      <use xlink:href="#DejaVuSans-20" transform="translate(348.486328 0.015625)"/>
      <use xlink:href="#DejaVuSans-4e" transform="translate(380.273438 0.015625)"/>
      <use xlink:href="#DejaVuSans-Oblique-65" transform="translate(456.035156 -16.390625) scale(0.7)"/>
      <use xlink:href="#DejaVuSans-32" transform="translate(501.835938 0.015625)"/>
     </g>
    </g>
    <g id="text_10">
     <!-- $\times\mathdefault{10^{3}}\mathdefault{}$ -->
     <g transform="translate(36 22.92) scale(0.1 -0.1)">
      <use xlink:href="#DejaVuSans-d7" transform="translate(0 0.765625)"/>
      <use xlink:href="#DejaVuSans-31" transform="translate(83.789062 0.765625)"/>
      <use xlink:href="#DejaVuSans-30" transform="translate(147.412109 0.765625)"/>
      <use xlink:href="#DejaVuSans-33" transform="translate(211.992188 39.046875) scale(0.7)"/>
     </g>
    </g>
   </g>
   <g id="patch_3">
    <path d="M 36 192.24 
L 36 25.92 
" style="fill: none; stroke: #000000; stroke-width: 0.8; stroke-linejoin: miter; stroke-linecap: square"/>
   </g>
   <g id="patch_4">
    <path d="M 214.56 192.24 
L 214.56 25.92 
" style="fill: none; stroke: #000000; stroke-width: 0.8; stroke-linejoin: miter; stroke-linecap: square"/>
   </g>
   <g id="patch_5">
    <path d="M 36 192.24 
L 214.56 192.24 
" style="fill: none; stroke: #000000; stroke-width: 0.8; stroke-linejoin: miter; stroke-linecap: square"/>
   </g>
   <g id="patch_6">
    <path d="M 36 25.92 
L 214.56 25.92 
" style="fill: none; stroke: #000000; stroke-width: 0.8; stroke-linejoin: miter; stroke-linecap: square"/>
   </g>
   <g id="text_11">
    <!-- Ne1Ne2-MSSMC-RGT-P2-S4 -->
    <g transform="translate(16.485 10.92) scale(0.16 -0.16)">
     <defs>
      <path id="DejaVuSans-65" d="M 3597 1894 
L 3597 1613 
L 953 1613 
Q 991 1019 1311 708 
Q 1631 397 2203 397 
Q 2534 397 2845 478 
Q 3156 559 3463 722 
L 3463 178 
Q 3153 47 2828 -22 
Q 2503 -91 2169 -91 
Q 1331 -91 842 396 
Q 353 884 353 1716 
Q 353 2575 817 3079 
Q 1281 3584 2069 3584 
Q 2775 3584 3186 3129 
Q 3597 2675 3597 1894 
z
M 3022 2063 
Q 3016 2534 2758 2815 
Q 2500 3097 2075 3097 
Q 1594 3097 1305 2825 
Q 1016 2553 972 2059 
L 3022 2063 
z
" transform="scale(0.015625)"/>
      <path id="DejaVuSans-2d" d="M 313 2009 
L 1997 2009 
L 1997 1497 
L 313 1497 
L 313 2009 
z
" transform="scale(0.015625)"/>
      <path id="DejaVuSans-4d" d="M 628 4666 
L 1569 4666 
L 2759 1491 
L 3956 4666 
L 4897 4666 
L 4897 0 
L 4281 0 
L 4281 4097 
L 3078 897 
L 2444 897 
L 1241 4097 
L 1241 0 
L 628 0 
L 628 4666 
z
" transform="scale(0.015625)"/>
      <path id="DejaVuSans-53" d="M 3425 4513 
L 3425 3897 
Q 3066 4069 2747 4153 
Q 2428 4238 2131 4238 
Q 1616 4238 1336 4038 
Q 1056 3838 1056 3469 
Q 1056 3159 1242 3001 
Q 1428 2844 1947 2747 
L 2328 2669 
Q 3034 2534 3370 2195 
Q 3706 1856 3706 1288 
Q 3706 609 3251 259 
Q 2797 -91 1919 -91 
Q 1588 -91 1214 -16 
Q 841 59 441 206 
L 441 856 
Q 825 641 1194 531 
Q 1563 422 1919 422 
Q 2459 422 2753 634 
Q 3047 847 3047 1241 
Q 3047 1584 2836 1778 
Q 2625 1972 2144 2069 
L 1759 2144 
Q 1053 2284 737 2584 
Q 422 2884 422 3419 
Q 422 4038 858 4394 
Q 1294 4750 2059 4750 
Q 2388 4750 2728 4690 
Q 3069 4631 3425 4513 
z
" transform="scale(0.015625)"/>
      <path id="DejaVuSans-43" d="M 4122 4306 
L 4122 3641 
Q 3803 3938 3442 4084 
Q 3081 4231 2675 4231 
Q 1875 4231 1450 3742 
Q 1025 3253 1025 2328 
Q 1025 1406 1450 917 
Q 1875 428 2675 428 
Q 3081 428 3442 575 
Q 3803 722 4122 1019 
L 4122 359 
Q 3791 134 3420 21 
Q 3050 -91 2638 -91 
Q 1578 -91 968 557 
Q 359 1206 359 2328 
Q 359 3453 968 4101 
Q 1578 4750 2638 4750 
Q 3056 4750 3426 4639 
Q 3797 4528 4122 4306 
z
" transform="scale(0.015625)"/>
      <path id="DejaVuSans-52" d="M 2841 2188 
Q 3044 2119 3236 1894 
Q 3428 1669 3622 1275 
L 4263 0 
L 3584 0 
L 2988 1197 
Q 2756 1666 2539 1819 
Q 2322 1972 1947 1972 
L 1259 1972 
L 1259 0 
L 628 0 
L 628 4666 
L 2053 4666 
Q 2853 4666 3247 4331 
Q 3641 3997 3641 3322 
Q 3641 2881 3436 2590 
Q 3231 2300 2841 2188 
z
M 1259 4147 
L 1259 2491 
L 2053 2491 
Q 2509 2491 2742 2702 
Q 2975 2913 2975 3322 
Q 2975 3731 2742 3939 
Q 2509 4147 2053 4147 
L 1259 4147 
z
" transform="scale(0.015625)"/>
      <path id="DejaVuSans-47" d="M 3809 666 
L 3809 1919 
L 2778 1919 
L 2778 2438 
L 4434 2438 
L 4434 434 
Q 4069 175 3628 42 
Q 3188 -91 2688 -91 
Q 1594 -91 976 548 
Q 359 1188 359 2328 
Q 359 3472 976 4111 
Q 1594 4750 2688 4750 
Q 3144 4750 3555 4637 
Q 3966 4525 4313 4306 
L 4313 3634 
Q 3963 3931 3569 4081 
Q 3175 4231 2741 4231 
Q 1884 4231 1454 3753 
Q 1025 3275 1025 2328 
Q 1025 1384 1454 906 
Q 1884 428 2741 428 
Q 3075 428 3337 486 
Q 3600 544 3809 666 
z
" transform="scale(0.015625)"/>
      <path id="DejaVuSans-54" d="M -19 4666 
L 3928 4666 
L 3928 4134 
L 2272 4134 
L 2272 0 
L 1638 0 
L 1638 4134 
L -19 4134 
L -19 4666 
z
" transform="scale(0.015625)"/>
      <path id="DejaVuSans-50" d="M 1259 4147 
L 1259 2394 
L 2053 2394 
Q 2494 2394 2734 2622 
Q 2975 2850 2975 3272 
Q 2975 3691 2734 3919 
Q 2494 4147 2053 4147 
L 1259 4147 
z
M 628 4666 
L 2053 4666 
Q 2838 4666 3239 4311 
Q 3641 3956 3641 3272 
Q 3641 2581 3239 2228 
Q 2838 1875 2053 1875 
L 1259 1875 
L 1259 0 
L 628 0 
L 628 4666 
z
" transform="scale(0.015625)"/>
      <path id="DejaVuSans-34" d="M 2419 4116 
L 825 1625 
L 2419 1625 
L 2419 4116 
z
M 2253 4666 
L 3047 4666 
L 3047 1625 
L 3713 1625 
L 3713 1100 
L 3047 1100 
L 3047 0 
L 2419 0 
L 2419 1100 
L 313 1100 
L 313 1709 
L 2253 4666 
z
" transform="scale(0.015625)"/>
     </defs>
     <use xlink:href="#DejaVuSans-4e"/>
     <use xlink:href="#DejaVuSans-65" x="74.804688"/>
     <use xlink:href="#DejaVuSans-31" x="136.328125"/>
     <use xlink:href="#DejaVuSans-4e" x="199.951172"/>
     <use xlink:href="#DejaVuSans-65" x="274.755859"/>
     <use xlink:href="#DejaVuSans-32" x="336.279297"/>
     <use xlink:href="#DejaVuSans-2d" x="399.902344"/>
     <use xlink:href="#DejaVuSans-4d" x="435.986328"/>
     <use xlink:href="#DejaVuSans-53" x="522.265625"/>
     <use xlink:href="#DejaVuSans-53" x="585.742188"/>
     <use xlink:href="#DejaVuSans-4d" x="649.21875"/>
     <use xlink:href="#DejaVuSans-43" x="735.498047"/>
     <use xlink:href="#DejaVuSans-2d" x="805.322266"/>
     <use xlink:href="#DejaVuSans-52" x="841.40625"/>
     <use xlink:href="#DejaVuSans-47" x="910.888672"/>
     <use xlink:href="#DejaVuSans-54" x="984.753906"/>
     <use xlink:href="#DejaVuSans-2d" x="1036.712891"/>
     <use xlink:href="#DejaVuSans-50" x="1072.796875"/>
     <use xlink:href="#DejaVuSans-32" x="1133.099609"/>
     <use xlink:href="#DejaVuSans-2d" x="1196.722656"/>
     <use xlink:href="#DejaVuSans-53" x="1232.806641"/>
     <use xlink:href="#DejaVuSans-34" x="1296.283203"/>
    </g>
   </g>
  </g>
  <g id="axes_2">
   <g id="patch_7">
    <path d="M 225.72 192.24 
L 234.036 192.24 
L 234.036 25.92 
L 225.72 25.92 
z
" style="fill: #ffffff"/>
   </g>
   <g id="QuadMesh_1">
    <path d="M 225.72 192.24 
L 234.036 192.24 
L 234.036 182.456471 
L 225.72 182.456471 
L 225.72 192.24 
" clip-path="url(#p60f8ec7b8f)" style="fill: #440154"/>
    <path d="M 225.72 182.456471 
L 234.036 182.456471 
L 234.036 172.672941 
L 225.72 172.672941 
L 225.72 182.456471 
" clip-path="url(#p60f8ec7b8f)" style="fill: #470d60"/>
    <path d="M 225.72 172.672941 
L 234.036 172.672941 
L 234.036 162.889412 
L 225.72 162.889412 
L 225.72 172.672941 
" clip-path="url(#p60f8ec7b8f)" style="fill: #482374"/>
    <path d="M 225.72 162.889412 
L 234.036 162.889412 
L 234.036 153.105882 
L 225.72 153.105882 
L 225.72 162.889412 
" clip-path="url(#p60f8ec7b8f)" style="fill: #453781"/>
    <path d="M 225.72 153.105882 
L 234.036 153.105882 
L 234.036 143.322353 
L 225.72 143.322353 
L 225.72 153.105882 
" clip-path="url(#p60f8ec7b8f)" style="fill: #3e4989"/>
    <path d="M 225.72 143.322353 
L 234.036 143.322353 
L 234.036 133.538824 
L 225.72 133.538824 
L 225.72 143.322353 
" clip-path="url(#p60f8ec7b8f)" style="fill: #375b8d"/>
    <path d="M 225.72 133.538824 
L 234.036 133.538824 
L 234.036 123.755294 
L 225.72 123.755294 
L 225.72 133.538824 
" clip-path="url(#p60f8ec7b8f)" style="fill: #2f6b8e"/>
    <path d="M 225.72 123.755294 
L 234.036 123.755294 
L 234.036 113.971765 
L 225.72 113.971765 
L 225.72 123.755294 
" clip-path="url(#p60f8ec7b8f)" style="fill: #297a8e"/>
    <path d="M 225.72 113.971765 
L 234.036 113.971765 
L 234.036 104.188235 
L 225.72 104.188235 
L 225.72 113.971765 
" clip-path="url(#p60f8ec7b8f)" style="fill: #23898e"/>
    <path d="M 225.72 104.188235 
L 234.036 104.188235 
L 234.036 94.404706 
L 225.72 94.404706 
L 225.72 104.188235 
" clip-path="url(#p60f8ec7b8f)" style="fill: #1f988b"/>
    <path d="M 225.72 94.404706 
L 234.036 94.404706 
L 234.036 84.621176 
L 225.72 84.621176 
L 225.72 94.404706 
" clip-path="url(#p60f8ec7b8f)" style="fill: #22a785"/>
    <path d="M 225.72 84.621176 
L 234.036 84.621176 
L 234.036 74.837647 
L 225.72 74.837647 
L 225.72 84.621176 
" clip-path="url(#p60f8ec7b8f)" style="fill: #32b67a"/>
    <path d="M 225.72 74.837647 
L 234.036 74.837647 
L 234.036 65.054118 
L 225.72 65.054118 
L 225.72 74.837647 
" clip-path="url(#p60f8ec7b8f)" style="fill: #4ec36b"/>
    <path d="M 225.72 65.054118 
L 234.036 65.054118 
L 234.036 55.270588 
L 225.72 55.270588 
L 225.72 65.054118 
" clip-path="url(#p60f8ec7b8f)" style="fill: #70cf57"/>
    <path d="M 225.72 55.270588 
L 234.036 55.270588 
L 234.036 45.487059 
L 225.72 45.487059 
L 225.72 55.270588 
" clip-path="url(#p60f8ec7b8f)" style="fill: #98d83e"/>
    <path d="M 225.72 45.487059 
L 234.036 45.487059 
L 234.036 35.703529 
L 225.72 35.703529 
L 225.72 45.487059 
" clip-path="url(#p60f8ec7b8f)" style="fill: #c2df23"/>
    <path d="M 225.72 35.703529 
L 234.036 35.703529 
L 234.036 25.92 
L 225.72 25.92 
L 225.72 35.703529 
" clip-path="url(#p60f8ec7b8f)" style="fill: #ece51b"/>
   </g>
   <g id="matplotlib.axis_3"/>
   <g id="matplotlib.axis_4">
    <g id="ytick_4">
     <g id="line2d_7">
      <defs>
       <path id="m69abaaff2f" d="M 0 0 
L 3.5 0 
" style="stroke: #000000; stroke-width: 0.8"/>
      </defs>
      <g>
       <use xlink:href="#m69abaaff2f" x="234.036" y="182.456471" style="stroke: #000000; stroke-width: 0.8"/>
      </g>
     </g>
     <g id="text_12">
      <!-- $\mathdefault{2.40}$ -->
      <g transform="translate(241.036 186.255689) scale(0.1 -0.1)">
       <defs>
        <path id="DejaVuSans-2212" d="M 678 2272 
L 4684 2272 
L 4684 1741 
L 678 1741 
L 678 2272 
z
" transform="scale(0.015625)"/>
        <path id="DejaVuSans-2e" d="M 684 794 
L 1344 794 
L 1344 0 
L 684 0 
L 684 794 
z
" transform="scale(0.015625)"/>
       </defs>
       <use xlink:href="#DejaVuSans-2212" transform="translate(0 0.78125)"/>
       <use xlink:href="#DejaVuSans-32" transform="translate(83.789062 0.78125)"/>
       <use xlink:href="#DejaVuSans-2e" transform="translate(147.412109 0.78125)"/>
       <use xlink:href="#DejaVuSans-34" transform="translate(179.199219 0.78125)"/>
       <use xlink:href="#DejaVuSans-30" transform="translate(242.822266 0.78125)"/>
      </g>
     </g>
    </g>
    <g id="ytick_5">
     <g id="line2d_8">
      <g>
       <use xlink:href="#m69abaaff2f" x="234.036" y="162.889412" style="stroke: #000000; stroke-width: 0.8"/>
      </g>
     </g>
     <g id="text_13">
      <!-- $\mathdefault{2.35}$ -->
      <g transform="translate(241.036 166.688631) scale(0.1 -0.1)">
       <use xlink:href="#DejaVuSans-2212" transform="translate(0 0.78125)"/>
       <use xlink:href="#DejaVuSans-32" transform="translate(83.789062 0.78125)"/>
       <use xlink:href="#DejaVuSans-2e" transform="translate(147.412109 0.78125)"/>
       <use xlink:href="#DejaVuSans-33" transform="translate(179.199219 0.78125)"/>
       <use xlink:href="#DejaVuSans-35" transform="translate(242.822266 0.78125)"/>
      </g>
     </g>
    </g>
    <g id="ytick_6">
     <g id="line2d_9">
      <g>
       <use xlink:href="#m69abaaff2f" x="234.036" y="143.322353" style="stroke: #000000; stroke-width: 0.8"/>
      </g>
     </g>
     <g id="text_14">
      <!-- $\mathdefault{2.30}$ -->
      <g transform="translate(241.036 147.121572) scale(0.1 -0.1)">
       <use xlink:href="#DejaVuSans-2212" transform="translate(0 0.78125)"/>
       <use xlink:href="#DejaVuSans-32" transform="translate(83.789062 0.78125)"/>
       <use xlink:href="#DejaVuSans-2e" transform="translate(147.412109 0.78125)"/>
       <use xlink:href="#DejaVuSans-33" transform="translate(179.199219 0.78125)"/>
       <use xlink:href="#DejaVuSans-30" transform="translate(242.822266 0.78125)"/>
      </g>
     </g>
    </g>
    <g id="ytick_7">
     <g id="line2d_10">
      <g>
       <use xlink:href="#m69abaaff2f" x="234.036" y="123.755294" style="stroke: #000000; stroke-width: 0.8"/>
      </g>
     </g>
     <g id="text_15">
      <!-- $\mathdefault{2.25}$ -->
      <g transform="translate(241.036 127.554513) scale(0.1 -0.1)">
       <use xlink:href="#DejaVuSans-2212" transform="translate(0 0.78125)"/>
       <use xlink:href="#DejaVuSans-32" transform="translate(83.789062 0.78125)"/>
       <use xlink:href="#DejaVuSans-2e" transform="translate(147.412109 0.78125)"/>
       <use xlink:href="#DejaVuSans-32" transform="translate(173.699219 0.78125)"/>
       <use xlink:href="#DejaVuSans-35" transform="translate(237.322266 0.78125)"/>
      </g>
     </g>
    </g>
    <g id="ytick_8">
     <g id="line2d_11">
      <g>
       <use xlink:href="#m69abaaff2f" x="234.036" y="104.188235" style="stroke: #000000; stroke-width: 0.8"/>
      </g>
     </g>
     <g id="text_16">
      <!-- $\mathdefault{2.20}$ -->
      <g transform="translate(241.036 107.987454) scale(0.1 -0.1)">
       <use xlink:href="#DejaVuSans-2212" transform="translate(0 0.78125)"/>
       <use xlink:href="#DejaVuSans-32" transform="translate(83.789062 0.78125)"/>
       <use xlink:href="#DejaVuSans-2e" transform="translate(147.412109 0.78125)"/>
       <use xlink:href="#DejaVuSans-32" transform="translate(173.699219 0.78125)"/>
       <use xlink:href="#DejaVuSans-30" transform="translate(237.322266 0.78125)"/>
      </g>
     </g>
    </g>
    <g id="ytick_9">
     <g id="line2d_12">
      <g>
       <use xlink:href="#m69abaaff2f" x="234.036" y="84.621176" style="stroke: #000000; stroke-width: 0.8"/>
      </g>
     </g>
     <g id="text_17">
      <!-- $\mathdefault{2.15}$ -->
      <g transform="translate(241.036 88.420395) scale(0.1 -0.1)">
       <use xlink:href="#DejaVuSans-2212" transform="translate(0 0.78125)"/>
       <use xlink:href="#DejaVuSans-32" transform="translate(83.789062 0.78125)"/>
       <use xlink:href="#DejaVuSans-2e" transform="translate(147.412109 0.78125)"/>
       <use xlink:href="#DejaVuSans-31" transform="translate(179.199219 0.78125)"/>
       <use xlink:href="#DejaVuSans-35" transform="translate(242.822266 0.78125)"/>
      </g>
     </g>
    </g>
    <g id="ytick_10">
     <g id="line2d_13">
      <g>
       <use xlink:href="#m69abaaff2f" x="234.036" y="65.054118" style="stroke: #000000; stroke-width: 0.8"/>
      </g>
     </g>
     <g id="text_18">
      <!-- $\mathdefault{2.10}$ -->
      <g transform="translate(241.036 68.853336) scale(0.1 -0.1)">
       <use xlink:href="#DejaVuSans-2212" transform="translate(0 0.78125)"/>
       <use xlink:href="#DejaVuSans-32" transform="translate(83.789062 0.78125)"/>
       <use xlink:href="#DejaVuSans-2e" transform="translate(147.412109 0.78125)"/>
       <use xlink:href="#DejaVuSans-31" transform="translate(179.199219 0.78125)"/>
       <use xlink:href="#DejaVuSans-30" transform="translate(242.822266 0.78125)"/>
      </g>
     </g>
    </g>
    <g id="ytick_11">
     <g id="line2d_14">
      <g>
       <use xlink:href="#m69abaaff2f" x="234.036" y="45.487059" style="stroke: #000000; stroke-width: 0.8"/>
      </g>
     </g>
     <g id="text_19">
      <!-- $\mathdefault{2.05}$ -->
      <g transform="translate(241.036 49.286278) scale(0.1 -0.1)">
       <use xlink:href="#DejaVuSans-2212" transform="translate(0 0.78125)"/>
       <use xlink:href="#DejaVuSans-32" transform="translate(83.789062 0.78125)"/>
       <use xlink:href="#DejaVuSans-2e" transform="translate(147.412109 0.78125)"/>
       <use xlink:href="#DejaVuSans-30" transform="translate(179.199219 0.78125)"/>
       <use xlink:href="#DejaVuSans-35" transform="translate(242.822266 0.78125)"/>
      </g>
     </g>
    </g>
    <g id="ytick_12">
     <g id="line2d_15">
      <g>
       <use xlink:href="#m69abaaff2f" x="234.036" y="25.92" style="stroke: #000000; stroke-width: 0.8"/>
      </g>
     </g>
     <g id="text_20">
      <!-- $\mathdefault{2.00}$ -->
      <g transform="translate(241.036 29.719219) scale(0.1 -0.1)">
       <use xlink:href="#DejaVuSans-2212" transform="translate(0 0.78125)"/>
       <use xlink:href="#DejaVuSans-32" transform="translate(83.789062 0.78125)"/>
       <use xlink:href="#DejaVuSans-2e" transform="translate(147.412109 0.78125)"/>
       <use xlink:href="#DejaVuSans-30" transform="translate(179.199219 0.78125)"/>
       <use xlink:href="#DejaVuSans-30" transform="translate(242.822266 0.78125)"/>
      </g>
     </g>
    </g>
    <g id="text_21">
     <!-- log likelihood -->
     <g transform="translate(284.854125 148.704375) rotate(-90) scale(0.12 -0.12)">
      <defs>
       <path id="DejaVuSans-67" d="M 2906 1791 
Q 2906 2416 2648 2759 
Q 2391 3103 1925 3103 
Q 1463 3103 1205 2759 
Q 947 2416 947 1791 
Q 947 1169 1205 825 
Q 1463 481 1925 481 
Q 2391 481 2648 825 
Q 2906 1169 2906 1791 
z
M 3481 434 
Q 3481 -459 3084 -895 
Q 2688 -1331 1869 -1331 
Q 1566 -1331 1297 -1286 
Q 1028 -1241 775 -1147 
L 775 -588 
Q 1028 -725 1275 -790 
Q 1522 -856 1778 -856 
Q 2344 -856 2625 -561 
Q 2906 -266 2906 331 
L 2906 616 
Q 2728 306 2450 153 
Q 2172 0 1784 0 
Q 1141 0 747 490 
Q 353 981 353 1791 
Q 353 2603 747 3093 
Q 1141 3584 1784 3584 
Q 2172 3584 2450 3431 
Q 2728 3278 2906 2969 
L 2906 3500 
L 3481 3500 
L 3481 434 
z
" transform="scale(0.015625)"/>
       <path id="DejaVuSans-6b" d="M 581 4863 
L 1159 4863 
L 1159 1991 
L 2875 3500 
L 3609 3500 
L 1753 1863 
L 3688 0 
L 2938 0 
L 1159 1709 
L 1159 0 
L 581 0 
L 581 4863 
z
" transform="scale(0.015625)"/>
       <path id="DejaVuSans-68" d="M 3513 2113 
L 3513 0 
L 2938 0 
L 2938 2094 
Q 2938 2591 2744 2837 
Q 2550 3084 2163 3084 
Q 1697 3084 1428 2787 
Q 1159 2491 1159 1978 
L 1159 0 
L 581 0 
L 581 4863 
L 1159 4863 
L 1159 2956 
Q 1366 3272 1645 3428 
Q 1925 3584 2291 3584 
Q 2894 3584 3203 3211 
Q 3513 2838 3513 2113 
z
" transform="scale(0.015625)"/>
      </defs>
      <use xlink:href="#DejaVuSans-6c"/>
      <use xlink:href="#DejaVuSans-6f" x="27.783203"/>
      <use xlink:href="#DejaVuSans-67" x="88.964844"/>
      <use xlink:href="#DejaVuSans-20" x="152.441406"/>
      <use xlink:href="#DejaVuSans-6c" x="184.228516"/>
      <use xlink:href="#DejaVuSans-69" x="212.011719"/>
      <use xlink:href="#DejaVuSans-6b" x="239.794922"/>
      <use xlink:href="#DejaVuSans-65" x="294.080078"/>
      <use xlink:href="#DejaVuSans-6c" x="355.603516"/>
      <use xlink:href="#DejaVuSans-69" x="383.386719"/>
      <use xlink:href="#DejaVuSans-68" x="411.169922"/>
      <use xlink:href="#DejaVuSans-6f" x="474.548828"/>
      <use xlink:href="#DejaVuSans-6f" x="535.730469"/>
      <use xlink:href="#DejaVuSans-64" x="596.912109"/>
     </g>
    </g>
   </g>
   <g id="LineCollection_1"/>
   <g id="patch_8">
    <path d="M 225.72 192.24 
L 229.878 192.24 
L 234.036 192.24 
L 234.036 25.92 
L 229.878 25.92 
L 225.72 25.92 
L 225.72 192.24 
z
" style="fill: none; stroke: #000000; stroke-width: 0.8; stroke-linejoin: miter; stroke-linecap: square"/>
   </g>
  </g>
 </g>
 <defs>
  <clipPath id="p30a22e9242">
   <rect x="36" y="25.92" width="178.56" height="166.32"/>
  </clipPath>
  <clipPath id="p60f8ec7b8f">
   <rect x="225.72" y="25.92" width="8.316" height="166.32"/>
  </clipPath>
 </defs>
</svg>
