<?xml version="1.0" encoding="utf-8" standalone="no"?>
<!DOCTYPE svg PUBLIC "-//W3C//DTD SVG 1.1//EN"
  "http://www.w3.org/Graphics/SVG/1.1/DTD/svg11.dtd">
<svg xmlns:xlink="http://www.w3.org/1999/xlink" width="288pt" height="216pt" viewBox="0 0 288 216" xmlns="http://www.w3.org/2000/svg" version="1.1">
 <metadata>
  <rdf:RDF xmlns:dc="http://purl.org/dc/elements/1.1/" xmlns:cc="http://creativecommons.org/ns#" xmlns:rdf="http://www.w3.org/1999/02/22-rdf-syntax-ns#">
   <cc:Work>
    <dc:type rdf:resource="http://purl.org/dc/dcmitype/StillImage"/>
    <dc:date>2023-07-18T20:48:08.928035</dc:date>
    <dc:format>image/svg+xml</dc:format>
    <dc:creator>
     <cc:Agent>
      <dc:title>Matplotlib v3.7.1, https://matplotlib.org/</dc:title>
     </cc:Agent>
    </dc:creator>
   </cc:Work>
  </rdf:RDF>
 </metadata>
 <defs>
  <style type="text/css">*{stroke-linejoin: round; stroke-linecap: butt}</style>
 </defs>
 <g id="figure_1">
  <g id="patch_1">
   <path d="M 0 216 
L 288 216 
L 288 0 
L 0 0 
z
" style="fill: #ffffff"/>
  </g>
  <g id="axes_1">
   <g id="patch_2">
    <path d="M 36 192.24 
L 214.56 192.24 
L 214.56 25.92 
L 36 25.92 
z
" style="fill: #ffffff"/>
   </g>
   <g id="PathCollection_1">
    <path d="M 36 186.696 
L 36 181.152 
L 36 175.608 
L 36 170.064 
L 36 164.52 
L 36 158.976 
L 36 153.432 
L 36 147.888 
L 36 147.150647 
L 41.952 147.561235 
L 43.498098 147.888 
L 47.904 151.259741 
L 53.856 152.155549 
L 59.808 152.487353 
L 65.76 152.658931 
L 71.712 152.763172 
L 77.664 152.832916 
L 83.616 153.056918 
L 88.300969 153.432 
L 89.568 154.271489 
L 95.52 156.087063 
L 101.472 156.824774 
L 107.424 157.224382 
L 113.376 157.474782 
L 119.328 157.646275 
L 125.28 157.771009 
L 131.232 157.865765 
L 137.184 157.94016 
L 143.136 158.000097 
L 149.088 158.049403 
L 155.04 158.090663 
L 160.992 158.125691 
L 166.944 158.155794 
L 172.896 158.181936 
L 178.848 158.204848 
L 184.8 158.22509 
L 190.752 158.243102 
L 196.704 158.25923 
L 202.656 158.273755 
L 208.608 158.286903 
L 214.56 158.298859 
L 214.56 158.976 
L 214.56 164.52 
L 214.56 170.064 
L 214.56 175.608 
L 214.56 181.152 
L 214.56 186.696 
L 214.56 192.24 
L 208.608 192.24 
L 202.656 192.24 
L 196.704 192.24 
L 190.752 192.24 
L 184.8 192.24 
L 178.848 192.24 
L 172.896 192.24 
L 166.944 192.24 
L 160.992 192.24 
L 155.04 192.24 
L 149.088 192.24 
L 143.136 192.24 
L 137.184 192.24 
L 131.232 192.24 
L 125.28 192.24 
L 119.328 192.24 
L 113.376 192.24 
L 107.424 192.24 
L 101.472 192.24 
L 95.52 192.24 
L 89.568 192.24 
L 83.616 192.24 
L 77.664 192.24 
L 71.712 192.24 
L 65.76 192.24 
L 59.808 192.24 
L 53.856 192.24 
L 47.904 192.24 
L 41.952 192.24 
L 36 192.24 
z
" clip-path="url(#p3e27d03125)" style="fill: #440154"/>
    <path d="M 36 42.552 
L 36 37.008 
L 36 31.464 
L 36 25.92 
L 41.952 25.92 
L 47.904 25.92 
L 53.856 25.92 
L 59.808 25.92 
L 65.76 25.92 
L 71.712 25.92 
L 77.664 25.92 
L 83.616 25.92 
L 89.568 25.92 
L 95.52 25.92 
L 101.472 25.92 
L 107.424 25.92 
L 113.376 25.92 
L 119.328 25.92 
L 125.28 25.92 
L 131.232 25.92 
L 137.184 25.92 
L 143.136 25.92 
L 149.088 25.92 
L 155.04 25.92 
L 160.992 25.92 
L 166.944 25.92 
L 172.896 25.92 
L 178.848 25.92 
L 184.8 25.92 
L 190.752 25.92 
L 196.704 25.92 
L 202.656 25.92 
L 208.608 25.92 
L 214.56 25.92 
L 214.56 31.464 
L 214.56 37.008 
L 214.56 42.552 
L 214.56 48.096 
L 214.56 53.64 
L 214.56 59.184 
L 214.56 61.896184 
L 208.608 61.6185 
L 202.656 61.382379 
L 196.704 61.179154 
L 190.752 61.002417 
L 184.8 60.847321 
L 178.848 60.710139 
L 172.896 60.587952 
L 166.944 60.478448 
L 160.992 60.379767 
L 155.04 60.290401 
L 149.088 60.20911 
L 143.136 60.13487 
L 137.184 60.066826 
L 131.232 60.004259 
L 125.28 59.765876 
L 119.328 59.285688 
L 118.164911 59.184 
L 113.376 57.276735 
L 107.424 56.132282 
L 101.472 55.502046 
L 95.52 55.103498 
L 89.568 54.829135 
L 83.616 54.629144 
L 77.664 54.477306 
L 71.712 53.686425 
L 71.456012 53.64 
L 65.76 50.547015 
L 59.808 49.6035 
L 53.856 49.164726 
L 47.904 48.811312 
L 45.205455 48.096 
L 41.952 45.279263 
L 36 43.933718 
z
" clip-path="url(#p3e27d03125)" style="fill: #440154"/>
   </g>
   <g id="PathCollection_2">
    <path d="M 41.952 145.664521 
L 47.904 146.89876 
L 53.252311 147.888 
L 53.856 148.119887 
L 59.808 149.50073 
L 65.76 150.214775 
L 71.712 150.648589 
L 77.664 150.938837 
L 83.616 151.259636 
L 89.568 151.717743 
L 95.52 152.13051 
L 101.472 152.504041 
L 107.424 152.843464 
L 113.376 153.153097 
L 119.232327 153.432 
L 119.328 153.44218 
L 125.28 153.961275 
L 131.232 154.355617 
L 137.184 154.66522 
L 143.136 154.914657 
L 149.088 155.119848 
L 155.04 155.291559 
L 160.992 155.437333 
L 166.944 155.562607 
L 172.896 155.671401 
L 178.848 155.766752 
L 184.8 155.850994 
L 190.752 155.925952 
L 196.704 155.993073 
L 202.656 156.053519 
L 208.608 156.108234 
L 214.56 156.157992 
L 214.56 158.298859 
L 208.608 158.286903 
L 202.656 158.273755 
L 196.704 158.25923 
L 190.752 158.243102 
L 184.8 158.22509 
L 178.848 158.204848 
L 172.896 158.181936 
L 166.944 158.155794 
L 160.992 158.125691 
L 155.04 158.090663 
L 149.088 158.049403 
L 143.136 158.000097 
L 137.184 157.94016 
L 131.232 157.865765 
L 125.28 157.771009 
L 119.328 157.646275 
L 113.376 157.474782 
L 107.424 157.224382 
L 101.472 156.824774 
L 95.52 156.087063 
L 89.568 154.271489 
L 88.300969 153.432 
L 83.616 153.056918 
L 77.664 152.832916 
L 71.712 152.763172 
L 65.76 152.658931 
L 59.808 152.487353 
L 53.856 152.155549 
L 47.904 151.259741 
L 43.498098 147.888 
L 41.952 147.561235 
L 36 147.150647 
L 36 144.81941 
z
" clip-path="url(#p3e27d03125)" style="fill: #48186a"/>
    <path d="M 36 48.096 
L 36 43.933718 
L 41.952 45.279263 
L 45.205455 48.096 
L 47.904 48.811312 
L 53.856 49.164726 
L 59.808 49.6035 
L 65.76 50.547015 
L 71.456012 53.64 
L 71.712 53.686425 
L 77.664 54.477306 
L 83.616 54.629144 
L 89.568 54.829135 
L 95.52 55.103498 
L 101.472 55.502046 
L 107.424 56.132282 
L 113.376 57.276735 
L 118.164911 59.184 
L 119.328 59.285688 
L 125.28 59.765876 
L 131.232 60.004259 
L 137.184 60.066826 
L 143.136 60.13487 
L 149.088 60.20911 
L 155.04 60.290401 
L 160.992 60.379767 
L 166.944 60.478448 
L 172.896 60.587952 
L 178.848 60.710139 
L 184.8 60.847321 
L 190.752 61.002417 
L 196.704 61.179154 
L 202.656 61.382379 
L 208.608 61.6185 
L 214.56 61.896184 
L 214.56 64.728 
L 214.56 66.41736 
L 208.608 66.236439 
L 202.656 66.045338 
L 196.704 65.843184 
L 190.752 65.629 
L 184.8 65.401692 
L 178.848 65.160032 
L 172.896 64.902637 
L 169.104912 64.728 
L 166.944 64.571008 
L 160.992 64.160337 
L 155.04 63.788427 
L 149.088 63.450125 
L 143.136 63.141165 
L 137.184 62.85799 
L 131.232 62.597613 
L 125.28 62.267931 
L 119.328 61.809774 
L 113.376 61.309709 
L 107.424 60.762026 
L 101.472 60.160016 
L 95.52 59.49578 
L 92.976913 59.184 
L 89.568 58.588737 
L 83.616 57.75645 
L 77.664 57.124554 
L 71.712 56.27456 
L 65.76 55.228736 
L 59.808 54.054789 
L 57.89999 53.64 
L 53.856 52.543639 
L 47.904 51.451302 
L 41.952 49.934924 
L 36 48.230016 
z
" clip-path="url(#p3e27d03125)" style="fill: #48186a"/>
   </g>
   <g id="PathCollection_3">
    <path d="M 41.952 143.767807 
L 47.904 144.955476 
L 53.856 146.015012 
L 59.808 146.954985 
L 65.76 147.788758 
L 66.56856 147.888 
L 71.712 148.534006 
L 77.664 149.044757 
L 83.616 149.462353 
L 89.568 149.900945 
L 95.52 150.295649 
L 101.472 150.652432 
L 107.424 150.976298 
L 113.376 151.271452 
L 119.328 151.541444 
L 125.28 151.789282 
L 131.232 152.017528 
L 137.184 152.228372 
L 143.136 152.4237 
L 149.088 152.605139 
L 155.04 152.774098 
L 160.992 152.931809 
L 166.944 153.079345 
L 172.896 153.217651 
L 178.848 153.34756 
L 182.963735 153.432 
L 184.8 153.476897 
L 190.752 153.608801 
L 196.704 153.726915 
L 202.656 153.833283 
L 208.608 153.929565 
L 214.56 154.017124 
L 214.56 156.157992 
L 208.608 156.108234 
L 202.656 156.053519 
L 196.704 155.993073 
L 190.752 155.925952 
L 184.8 155.850994 
L 178.848 155.766752 
L 172.896 155.671401 
L 166.944 155.562607 
L 160.992 155.437333 
L 155.04 155.291559 
L 149.088 155.119848 
L 143.136 154.914657 
L 137.184 154.66522 
L 131.232 154.355617 
L 125.28 153.961275 
L 119.328 153.44218 
L 119.232327 153.432 
L 113.376 153.153097 
L 107.424 152.843464 
L 101.472 152.504041 
L 95.52 152.13051 
L 89.568 151.717743 
L 83.616 151.259636 
L 77.664 150.938837 
L 71.712 150.648589 
L 65.76 150.214775 
L 59.808 149.50073 
L 53.856 148.119887 
L 53.252311 147.888 
L 47.904 146.89876 
L 41.952 145.664521 
L 36 144.81941 
L 36 142.488174 
z
" clip-path="url(#p3e27d03125)" style="fill: #46337f"/>
    <path d="M 41.952 49.934924 
L 47.904 51.451302 
L 53.856 52.543639 
L 57.89999 53.64 
L 59.808 54.054789 
L 65.76 55.228736 
L 71.712 56.27456 
L 77.664 57.124554 
L 83.616 57.75645 
L 89.568 58.588737 
L 92.976913 59.184 
L 95.52 59.49578 
L 101.472 60.160016 
L 107.424 60.762026 
L 113.376 61.309709 
L 119.328 61.809774 
L 125.28 62.267931 
L 131.232 62.597613 
L 137.184 62.85799 
L 143.136 63.141165 
L 149.088 63.450125 
L 155.04 63.788427 
L 160.992 64.160337 
L 166.944 64.571008 
L 169.104912 64.728 
L 172.896 64.902637 
L 178.848 65.160032 
L 184.8 65.401692 
L 190.752 65.629 
L 196.704 65.843184 
L 202.656 66.045338 
L 208.608 66.236439 
L 214.56 66.41736 
L 214.56 68.939712 
L 208.608 68.767332 
L 202.656 68.585291 
L 196.704 68.392762 
L 190.752 68.188824 
L 184.8 67.972444 
L 178.848 67.742464 
L 172.896 67.49758 
L 166.944 67.236319 
L 160.992 66.95701 
L 155.04 66.657754 
L 149.088 66.336382 
L 143.136 65.99041 
L 137.184 65.616975 
L 131.232 65.212774 
L 125.28 64.773971 
L 124.702436 64.728 
L 119.328 64.33386 
L 113.376 63.858147 
L 107.424 63.337512 
L 101.472 62.7657 
L 95.52 62.13537 
L 89.568 61.437897 
L 83.616 60.663163 
L 77.664 59.799354 
L 73.84643 59.184 
L 71.712 58.862695 
L 65.76 57.872823 
L 59.808 56.764228 
L 53.856 55.522255 
L 47.904 54.131886 
L 45.975441 53.64 
L 41.952 52.66601 
L 36 51.06929 
L 36 48.230016 
z
" clip-path="url(#p3e27d03125)" style="fill: #46337f"/>
   </g>
   <g id="PathCollection_4">
    <path d="M 36 142.344 
L 36 140.278923 
L 41.952 141.777784 
L 44.453801 142.344 
L 47.904 143.012193 
L 53.856 144.027842 
L 59.808 144.926757 
L 65.76 145.722296 
L 71.712 146.428178 
L 77.664 147.05692 
L 83.616 147.619397 
L 86.798185 147.888 
L 89.568 148.084147 
L 95.52 148.460787 
L 101.472 148.800823 
L 107.424 149.109131 
L 113.376 149.389807 
L 119.328 149.646299 
L 125.28 149.881525 
L 131.232 150.097965 
L 137.184 150.297741 
L 143.136 150.482672 
L 149.088 150.654328 
L 155.04 150.814068 
L 160.992 150.963077 
L 166.944 151.102387 
L 172.896 151.232906 
L 178.848 151.355432 
L 184.8 151.470672 
L 190.752 151.579252 
L 196.704 151.681727 
L 202.656 151.778596 
L 208.608 151.870303 
L 214.56 151.957247 
L 214.56 153.432 
L 214.56 154.017124 
L 208.608 153.929565 
L 202.656 153.833283 
L 196.704 153.726915 
L 190.752 153.608801 
L 184.8 153.476897 
L 182.963735 153.432 
L 178.848 153.34756 
L 172.896 153.217651 
L 166.944 153.079345 
L 160.992 152.931809 
L 155.04 152.774098 
L 149.088 152.605139 
L 143.136 152.4237 
L 137.184 152.228372 
L 131.232 152.017528 
L 125.28 151.789282 
L 119.328 151.541444 
L 113.376 151.271452 
L 107.424 150.976298 
L 101.472 150.652432 
L 95.52 150.295649 
L 89.568 149.900945 
L 83.616 149.462353 
L 77.664 149.044757 
L 71.712 148.534006 
L 66.56856 147.888 
L 65.76 147.788758 
L 59.808 146.954985 
L 53.856 146.015012 
L 47.904 144.955476 
L 41.952 143.767807 
L 36 142.488174 
z
" clip-path="url(#p3e27d03125)" style="fill: #3e4c8a"/>
    <path d="M 36 53.64 
L 36 51.06929 
L 41.952 52.66601 
L 45.975441 53.64 
L 47.904 54.131886 
L 53.856 55.522255 
L 59.808 56.764228 
L 65.76 57.872823 
L 71.712 58.862695 
L 73.84643 59.184 
L 77.664 59.799354 
L 83.616 60.663163 
L 89.568 61.437897 
L 95.52 62.13537 
L 101.472 62.7657 
L 107.424 63.337512 
L 113.376 63.858147 
L 119.328 64.33386 
L 124.702436 64.728 
L 125.28 64.773971 
L 131.232 65.212774 
L 137.184 65.616975 
L 143.136 65.99041 
L 149.088 66.336382 
L 155.04 66.657754 
L 160.992 66.95701 
L 166.944 67.236319 
L 172.896 67.49758 
L 178.848 67.742464 
L 184.8 67.972444 
L 190.752 68.188824 
L 196.704 68.392762 
L 202.656 68.585291 
L 208.608 68.767332 
L 214.56 68.939712 
L 214.56 70.272 
L 214.56 71.582876 
L 208.608 71.402793 
L 202.656 71.212528 
L 196.704 71.011201 
L 190.752 70.797829 
L 184.8 70.57131 
L 178.848 70.330408 
L 177.488046 70.272 
L 172.896 70.092523 
L 166.944 69.844695 
L 160.992 69.579845 
L 155.04 69.296195 
L 149.088 68.991716 
L 143.136 68.664085 
L 137.184 68.310632 
L 131.232 67.928278 
L 125.28 67.513456 
L 119.328 67.062015 
L 113.376 66.569112 
L 107.424 66.02907 
L 101.472 65.435217 
L 95.52 64.779685 
L 95.09027 64.728 
L 89.568 64.115788 
L 83.616 63.38461 
L 77.664 62.570687 
L 71.712 61.66171 
L 65.76 60.643845 
L 59.808 59.502002 
L 58.296833 59.184 
L 53.856 58.308599 
L 47.904 57.009347 
L 41.952 55.561113 
L 36 53.934725 
z
" clip-path="url(#p3e27d03125)" style="fill: #3e4c8a"/>
   </g>
   <g id="PathCollection_5">
    <path d="M 41.952 139.506829 
L 47.904 140.809889 
L 53.856 141.977372 
L 55.988458 142.344 
L 59.808 142.89853 
L 65.76 143.655835 
L 71.712 144.326202 
L 77.664 144.921988 
L 83.616 145.453886 
L 89.568 145.930956 
L 95.52 146.360809 
L 101.472 146.749825 
L 107.424 147.103354 
L 113.376 147.425898 
L 119.328 147.721257 
L 122.996182 147.888 
L 125.28 147.973767 
L 131.232 148.178403 
L 137.184 148.36711 
L 143.136 148.541644 
L 149.088 148.703517 
L 155.04 148.854038 
L 160.992 148.994344 
L 166.944 149.125429 
L 172.896 149.24816 
L 178.848 149.363305 
L 184.8 149.471539 
L 190.752 149.573459 
L 196.704 149.669598 
L 202.656 149.760431 
L 208.608 149.846382 
L 214.56 149.927831 
L 214.56 151.957247 
L 208.608 151.870303 
L 202.656 151.778596 
L 196.704 151.681727 
L 190.752 151.579252 
L 184.8 151.470672 
L 178.848 151.355432 
L 172.896 151.232906 
L 166.944 151.102387 
L 160.992 150.963077 
L 155.04 150.814068 
L 149.088 150.654328 
L 143.136 150.482672 
L 137.184 150.297741 
L 131.232 150.097965 
L 125.28 149.881525 
L 119.328 149.646299 
L 113.376 149.389807 
L 107.424 149.109131 
L 101.472 148.800823 
L 95.52 148.460787 
L 89.568 148.084147 
L 86.798185 147.888 
L 83.616 147.619397 
L 77.664 147.05692 
L 71.712 146.428178 
L 65.76 145.722296 
L 59.808 144.926757 
L 53.856 144.027842 
L 47.904 143.012193 
L 44.453801 142.344 
L 41.952 141.777784 
L 36 140.278923 
L 36 138.077713 
z
" clip-path="url(#p3e27d03125)" style="fill: #33628d"/>
    <path d="M 41.952 55.561113 
L 47.904 57.009347 
L 53.856 58.308599 
L 58.296833 59.184 
L 59.808 59.502002 
L 65.76 60.643845 
L 71.712 61.66171 
L 77.664 62.570687 
L 83.616 63.38461 
L 89.568 64.115788 
L 95.09027 64.728 
L 95.52 64.779685 
L 101.472 65.435217 
L 107.424 66.02907 
L 113.376 66.569112 
L 119.328 67.062015 
L 125.28 67.513456 
L 131.232 67.928278 
L 137.184 68.310632 
L 143.136 68.664085 
L 149.088 68.991716 
L 155.04 69.296195 
L 160.992 69.579845 
L 166.944 69.844695 
L 172.896 70.092523 
L 177.488046 70.272 
L 178.848 70.330408 
L 184.8 70.57131 
L 190.752 70.797829 
L 196.704 71.011201 
L 202.656 71.212528 
L 208.608 71.402793 
L 214.56 71.582876 
L 214.56 74.36129 
L 208.608 74.191573 
L 202.656 74.012311 
L 196.704 73.822684 
L 190.752 73.621777 
L 184.8 73.408564 
L 178.848 73.181895 
L 172.896 72.940473 
L 166.944 72.682833 
L 160.992 72.407313 
L 155.04 72.11202 
L 149.088 71.794791 
L 143.136 71.453147 
L 137.184 71.084229 
L 131.232 70.684734 
L 125.567837 70.272 
L 125.28 70.25294 
L 119.328 69.827932 
L 113.376 69.364299 
L 107.424 68.85683 
L 101.472 68.299421 
L 95.52 67.684909 
L 89.568 67.004884 
L 83.616 66.249486 
L 77.664 65.407223 
L 73.347014 64.728 
L 71.712 64.490615 
L 65.76 63.539732 
L 59.808 62.476466 
L 53.856 61.287704 
L 47.904 59.960263 
L 44.726594 59.184 
L 41.952 58.547135 
L 36 57.050555 
L 36 53.934725 
z
" clip-path="url(#p3e27d03125)" style="fill: #33628d"/>
   </g>
   <g id="PathCollection_6">
    <path d="M 36 136.8 
L 36 135.678919 
L 40.083739 136.8 
L 41.952 137.235875 
L 47.904 138.471849 
L 53.856 139.575513 
L 59.808 140.555053 
L 65.76 141.424237 
L 71.712 142.197464 
L 72.994207 142.344 
L 77.664 142.787057 
L 83.616 143.288375 
L 89.568 143.73705 
L 95.52 144.140509 
L 101.472 144.504955 
L 107.424 144.835575 
L 113.376 145.136726 
L 119.328 145.412073 
L 125.28 145.66472 
L 131.232 145.897309 
L 137.184 146.112095 
L 143.136 146.311015 
L 149.088 146.49574 
L 155.04 146.667719 
L 160.992 146.828213 
L 166.944 146.978323 
L 172.896 147.119017 
L 178.848 147.251146 
L 184.8 147.375464 
L 190.752 147.492639 
L 196.704 147.603265 
L 202.656 147.707873 
L 208.608 147.806939 
L 213.745787 147.888 
L 214.56 147.898415 
L 214.56 149.927831 
L 208.608 149.846382 
L 202.656 149.760431 
L 196.704 149.669598 
L 190.752 149.573459 
L 184.8 149.471539 
L 178.848 149.363305 
L 172.896 149.24816 
L 166.944 149.125429 
L 160.992 148.994344 
L 155.04 148.854038 
L 149.088 148.703517 
L 143.136 148.541644 
L 137.184 148.36711 
L 131.232 148.178403 
L 125.28 147.973767 
L 122.996182 147.888 
L 119.328 147.721257 
L 113.376 147.425898 
L 107.424 147.103354 
L 101.472 146.749825 
L 95.52 146.360809 
L 89.568 145.930956 
L 83.616 145.453886 
L 77.664 144.921988 
L 71.712 144.326202 
L 65.76 143.655835 
L 59.808 142.89853 
L 55.988458 142.344 
L 53.856 141.977372 
L 47.904 140.809889 
L 41.952 139.506829 
L 36 138.077713 
z
" clip-path="url(#p3e27d03125)" style="fill: #2a768e"/>
    <path d="M 36 59.184 
L 36 57.050555 
L 41.952 58.547135 
L 44.726594 59.184 
L 47.904 59.960263 
L 53.856 61.287704 
L 59.808 62.476466 
L 65.76 63.539732 
L 71.712 64.490615 
L 73.347014 64.728 
L 77.664 65.407223 
L 83.616 66.249486 
L 89.568 67.004884 
L 95.52 67.684909 
L 101.472 68.299421 
L 107.424 68.85683 
L 113.376 69.364299 
L 119.328 69.827932 
L 125.28 70.25294 
L 125.567837 70.272 
L 131.232 70.684734 
L 137.184 71.084229 
L 143.136 71.453147 
L 149.088 71.794791 
L 155.04 72.11202 
L 160.992 72.407313 
L 166.944 72.682833 
L 172.896 72.940473 
L 178.848 73.181895 
L 184.8 73.408564 
L 190.752 73.621777 
L 196.704 73.822684 
L 202.656 74.012311 
L 208.608 74.191573 
L 214.56 74.36129 
L 214.56 75.816 
L 214.56 77.298704 
L 208.608 77.120798 
L 202.656 76.932775 
L 196.704 76.733756 
L 190.752 76.522757 
L 184.8 76.298674 
L 178.848 76.060266 
L 173.125826 75.816 
L 172.896 75.807222 
L 166.944 75.565986 
L 160.992 75.308142 
L 155.04 75.03195 
L 149.088 74.735425 
L 143.136 74.416292 
L 137.184 74.071937 
L 131.232 73.699342 
L 125.28 73.295011 
L 119.328 72.854875 
L 113.376 72.37418 
L 107.424 71.847354 
L 101.472 71.267842 
L 95.52 70.627914 
L 92.507669 70.272 
L 89.568 69.956575 
L 83.616 69.254183 
L 77.664 68.472846 
L 71.712 67.601055 
L 65.76 66.626012 
L 59.808 65.533974 
L 55.840452 64.728 
L 53.856 64.355112 
L 47.904 63.138464 
L 41.952 61.788951 
L 36 60.278537 
z
" clip-path="url(#p3e27d03125)" style="fill: #2a768e"/>
   </g>
   <g id="PathCollection_7">
    <path d="M 40.083739 136.8 
L 36 135.678919 
L 36 133.006756 
L 41.952 134.557097 
L 47.904 135.980377 
L 51.753991 136.8 
L 53.856 137.173653 
L 59.808 138.092953 
L 65.76 138.905566 
L 71.712 139.625835 
L 77.664 140.266827 
L 83.616 140.839862 
L 89.568 141.354538 
L 95.52 141.818915 
L 101.472 142.239751 
L 103.10718 142.344 
L 107.424 142.567797 
L 113.376 142.847554 
L 119.328 143.102888 
L 125.28 143.336783 
L 131.232 143.551771 
L 137.184 143.750009 
L 143.136 143.933346 
L 149.088 144.103376 
L 155.04 144.261475 
L 160.992 144.40884 
L 166.944 144.546516 
L 172.896 144.675416 
L 178.848 144.796346 
L 184.8 144.910016 
L 190.752 145.017055 
L 196.704 145.118022 
L 202.656 145.213416 
L 208.608 145.303682 
L 214.56 145.389221 
L 214.56 147.888 
L 214.56 147.898415 
L 213.745787 147.888 
L 208.608 147.806939 
L 202.656 147.707873 
L 196.704 147.603265 
L 190.752 147.492639 
L 184.8 147.375464 
L 178.848 147.251146 
L 172.896 147.119017 
L 166.944 146.978323 
L 160.992 146.828213 
L 155.04 146.667719 
L 149.088 146.49574 
L 143.136 146.311015 
L 137.184 146.112095 
L 131.232 145.897309 
L 125.28 145.66472 
L 119.328 145.412073 
L 113.376 145.136726 
L 107.424 144.835575 
L 101.472 144.504955 
L 95.52 144.140509 
L 89.568 143.73705 
L 83.616 143.288375 
L 77.664 142.787057 
L 72.994207 142.344 
L 71.712 142.197464 
L 65.76 141.424237 
L 59.808 140.555053 
L 53.856 139.575513 
L 47.904 138.471849 
L 41.952 137.235875 
z
" clip-path="url(#p3e27d03125)" style="fill: #23898e"/>
    <path d="M 40.254633 64.728 
L 36 63.750077 
L 36 60.278537 
L 41.952 61.788951 
L 47.904 63.138464 
L 53.856 64.355112 
L 55.840452 64.728 
L 59.808 65.533974 
L 65.76 66.626012 
L 71.712 67.601055 
L 77.664 68.472846 
L 83.616 69.254183 
L 89.568 69.956575 
L 92.507669 70.272 
L 95.52 70.627914 
L 101.472 71.267842 
L 107.424 71.847354 
L 113.376 72.37418 
L 119.328 72.854875 
L 125.28 73.295011 
L 131.232 73.699342 
L 137.184 74.071937 
L 143.136 74.416292 
L 149.088 74.735425 
L 155.04 75.03195 
L 160.992 75.308142 
L 166.944 75.565986 
L 172.896 75.807222 
L 173.125826 75.816 
L 178.848 76.060266 
L 184.8 76.298674 
L 190.752 76.522757 
L 196.704 76.733756 
L 202.656 76.932775 
L 208.608 77.120798 
L 214.56 77.298704 
L 214.56 80.410855 
L 208.608 80.245962 
L 202.656 80.071764 
L 196.704 79.887459 
L 190.752 79.692152 
L 184.8 79.484838 
L 178.848 79.264391 
L 172.896 79.029538 
L 166.944 78.778842 
L 160.992 78.510671 
L 155.04 78.223166 
L 149.088 77.9142 
L 143.136 77.581332 
L 137.184 77.221748 
L 131.232 76.832188 
L 125.28 76.408861 
L 119.328 75.947338 
L 117.764484 75.816 
L 113.376 75.487309 
L 107.424 75.000941 
L 101.472 74.466824 
L 95.52 73.878152 
L 89.568 73.226951 
L 83.616 72.503909 
L 77.664 71.698222 
L 71.712 70.797502 
L 68.570519 70.272 
L 65.76 69.844779 
L 59.808 68.850111 
L 53.856 67.742858 
L 47.904 66.513199 
L 41.952 65.148324 
z
" clip-path="url(#p3e27d03125)" style="fill: #23898e"/>
   </g>
   <g id="PathCollection_8">
    <path d="M 36 131.256 
L 36 130.107401 
L 39.842455 131.256 
L 41.952 131.781452 
L 47.904 133.103853 
L 53.856 134.288881 
L 59.808 135.343784 
L 65.76 136.282545 
L 69.473767 136.8 
L 71.712 137.054206 
L 77.664 137.645698 
L 83.616 138.172489 
L 89.568 138.643953 
L 95.52 139.067925 
L 101.472 139.45094 
L 107.424 139.79846 
L 113.376 140.115062 
L 119.328 140.404598 
L 125.28 140.670328 
L 131.232 140.915021 
L 137.184 141.141042 
L 143.136 141.350423 
L 149.088 141.544915 
L 155.04 141.726037 
L 160.992 141.895108 
L 166.944 142.053284 
L 172.896 142.201578 
L 178.848 142.340881 
L 178.990363 142.344 
L 184.8 142.444568 
L 190.752 142.541471 
L 196.704 142.63278 
L 202.656 142.718959 
L 208.608 142.800426 
L 214.56 142.877552 
L 214.56 145.389221 
L 208.608 145.303682 
L 202.656 145.213416 
L 196.704 145.118022 
L 190.752 145.017055 
L 184.8 144.910016 
L 178.848 144.796346 
L 172.896 144.675416 
L 166.944 144.546516 
L 160.992 144.40884 
L 155.04 144.261475 
L 149.088 144.103376 
L 143.136 143.933346 
L 137.184 143.750009 
L 131.232 143.551771 
L 125.28 143.336783 
L 119.328 143.102888 
L 113.376 142.847554 
L 107.424 142.567797 
L 103.10718 142.344 
L 101.472 142.239751 
L 95.52 141.818915 
L 89.568 141.354538 
L 83.616 140.839862 
L 77.664 140.266827 
L 71.712 139.625835 
L 65.76 138.905566 
L 59.808 138.092953 
L 53.856 137.173653 
L 51.753991 136.8 
L 47.904 135.980377 
L 41.952 134.557097 
L 36 133.006756 
z
" clip-path="url(#p3e27d03125)" style="fill: #1e9d89"/>
    <path d="M 36 64.728 
L 36 63.750077 
L 40.254633 64.728 
L 41.952 65.148324 
L 47.904 66.513199 
L 53.856 67.742858 
L 59.808 68.850111 
L 65.76 69.844779 
L 68.570519 70.272 
L 71.712 70.797502 
L 77.664 71.698222 
L 83.616 72.503909 
L 89.568 73.226951 
L 95.52 73.878152 
L 101.472 74.466824 
L 107.424 75.000941 
L 113.376 75.487309 
L 117.764484 75.816 
L 119.328 75.947338 
L 125.28 76.408861 
L 131.232 76.832188 
L 137.184 77.221748 
L 143.136 77.581332 
L 149.088 77.9142 
L 155.04 78.223166 
L 160.992 78.510671 
L 166.944 78.778842 
L 172.896 79.029538 
L 178.848 79.264391 
L 184.8 79.484838 
L 190.752 79.692152 
L 196.704 79.887459 
L 202.656 80.071764 
L 208.608 80.245962 
L 214.56 80.410855 
L 214.56 81.36 
L 214.56 83.837907 
L 208.608 83.665317 
L 202.656 83.482858 
L 196.704 83.289663 
L 190.752 83.084767 
L 184.8 82.867082 
L 178.848 82.635386 
L 172.896 82.388297 
L 166.944 82.124247 
L 160.992 81.84145 
L 155.04 81.537869 
L 151.785987 81.36 
L 149.088 81.231321 
L 143.136 80.927126 
L 137.184 80.598891 
L 131.232 80.243743 
L 125.28 79.858351 
L 119.328 79.438842 
L 113.376 78.980696 
L 107.424 78.478615 
L 101.472 77.926373 
L 95.52 77.316641 
L 89.568 76.640779 
L 83.616 75.888616 
L 83.089341 75.816 
L 77.664 75.150542 
L 71.712 74.339624 
L 65.76 73.435606 
L 59.808 72.427406 
L 53.856 71.304397 
L 48.893838 70.272 
L 47.904 70.084575 
L 41.952 68.888468 
L 36 67.562467 
z
" clip-path="url(#p3e27d03125)" style="fill: #1e9d89"/>
   </g>
   <g id="PathCollection_9">
    <path d="M 39.842455 131.256 
L 36 130.107401 
L 36 126.776363 
L 41.952 128.423934 
L 47.904 129.949044 
L 53.542416 131.256 
L 53.856 131.315144 
L 59.808 132.277149 
L 65.76 133.127652 
L 71.712 133.88169 
L 77.664 134.553 
L 83.616 135.153468 
L 89.568 135.69315 
L 95.52 136.180475 
L 101.472 136.622494 
L 104.120036 136.8 
L 107.424 136.974208 
L 113.376 137.257552 
L 119.328 137.515838 
L 125.28 137.75216 
L 131.232 137.969141 
L 137.184 138.169013 
L 143.136 138.353683 
L 149.088 138.524793 
L 155.04 138.683761 
L 160.992 138.831816 
L 166.944 138.97003 
L 172.896 139.099341 
L 178.848 139.220572 
L 184.8 139.33445 
L 190.752 139.441618 
L 196.704 139.542646 
L 202.656 139.638043 
L 208.608 139.728264 
L 214.56 139.813715 
L 214.56 142.344 
L 214.56 142.877552 
L 208.608 142.800426 
L 202.656 142.718959 
L 196.704 142.63278 
L 190.752 142.541471 
L 184.8 142.444568 
L 178.990363 142.344 
L 178.848 142.340881 
L 172.896 142.201578 
L 166.944 142.053284 
L 160.992 141.895108 
L 155.04 141.726037 
L 149.088 141.544915 
L 143.136 141.350423 
L 137.184 141.141042 
L 131.232 140.915021 
L 125.28 140.670328 
L 119.328 140.404598 
L 113.376 140.115062 
L 107.424 139.79846 
L 101.472 139.45094 
L 95.52 139.067925 
L 89.568 138.643953 
L 83.616 138.172489 
L 77.664 137.645698 
L 71.712 137.054206 
L 69.473767 136.8 
L 65.76 136.282545 
L 59.808 135.343784 
L 53.856 134.288881 
L 47.904 133.103853 
L 41.952 131.781452 
z
" clip-path="url(#p3e27d03125)" style="fill: #2ab07f"/>
    <path d="M 36 70.272 
L 36 67.562467 
L 41.952 68.888468 
L 47.904 70.084575 
L 48.893838 70.272 
L 53.856 71.304397 
L 59.808 72.427406 
L 65.76 73.435606 
L 71.712 74.339624 
L 77.664 75.150542 
L 83.089341 75.816 
L 83.616 75.888616 
L 89.568 76.640779 
L 95.52 77.316641 
L 101.472 77.926373 
L 107.424 78.478615 
L 113.376 78.980696 
L 119.328 79.438842 
L 125.28 79.858351 
L 131.232 80.243743 
L 137.184 80.598891 
L 143.136 80.927126 
L 149.088 81.231321 
L 151.785987 81.36 
L 155.04 81.537869 
L 160.992 81.84145 
L 166.944 82.124247 
L 172.896 82.388297 
L 178.848 82.635386 
L 184.8 82.867082 
L 190.752 83.084767 
L 196.704 83.289663 
L 202.656 83.482858 
L 208.608 83.665317 
L 214.56 83.837907 
L 214.56 86.904 
L 214.56 87.494193 
L 208.608 87.310679 
L 202.656 87.116455 
L 196.704 86.910559 
L 196.524275 86.904 
L 190.752 86.725324 
L 184.8 86.529784 
L 178.848 86.321843 
L 172.896 86.100302 
L 166.944 85.8638 
L 160.992 85.610796 
L 155.04 85.33953 
L 149.088 85.047991 
L 143.136 84.73387 
L 137.184 84.394504 
L 131.232 84.026808 
L 125.28 83.627193 
L 119.328 83.191465 
L 113.376 82.714702 
L 107.424 82.191101 
L 101.472 81.613792 
L 99.078179 81.36 
L 95.52 81.033101 
L 89.568 80.433619 
L 83.616 79.769428 
L 77.664 79.031292 
L 71.712 78.208887 
L 65.76 77.291046 
L 59.808 76.266319 
L 57.396495 75.816 
L 53.856 75.228564 
L 47.904 74.163789 
L 41.952 73.001633 
L 36 71.716845 
z
" clip-path="url(#p3e27d03125)" style="fill: #2ab07f"/>
   </g>
   <g id="PathCollection_10">
    <path d="M 36 125.712 
L 36 122.773489 
L 41.952 124.684069 
L 45.428021 125.712 
L 47.904 126.294339 
L 53.856 127.518757 
L 59.808 128.60984 
L 65.76 129.581775 
L 71.712 130.450067 
L 77.664 131.229064 
L 77.898885 131.256 
L 83.616 131.761725 
L 89.568 132.23123 
L 95.52 132.652372 
L 101.472 133.031944 
L 107.424 133.375597 
L 113.376 133.688053 
L 119.328 133.97327 
L 125.28 134.234586 
L 131.232 134.47483 
L 137.184 134.69641 
L 143.136 134.901391 
L 149.088 135.091547 
L 155.04 135.268413 
L 160.992 135.433321 
L 166.944 135.587434 
L 172.896 135.731769 
L 178.848 135.867224 
L 184.8 135.994586 
L 190.752 136.114557 
L 196.704 136.227758 
L 202.656 136.334744 
L 208.608 136.436011 
L 214.56 136.532003 
L 214.56 136.8 
L 214.56 139.813715 
L 208.608 139.728264 
L 202.656 139.638043 
L 196.704 139.542646 
L 190.752 139.441618 
L 184.8 139.33445 
L 178.848 139.220572 
L 172.896 139.099341 
L 166.944 138.97003 
L 160.992 138.831816 
L 155.04 138.683761 
L 149.088 138.524793 
L 143.136 138.353683 
L 137.184 138.169013 
L 131.232 137.969141 
L 125.28 137.75216 
L 119.328 137.515838 
L 113.376 137.257552 
L 107.424 136.974208 
L 104.120036 136.8 
L 101.472 136.622494 
L 95.52 136.180475 
L 89.568 135.69315 
L 83.616 135.153468 
L 77.664 134.553 
L 71.712 133.88169 
L 65.76 133.127652 
L 59.808 132.277149 
L 53.856 131.315144 
L 53.542416 131.256 
L 47.904 129.949044 
L 41.952 128.423934 
L 36 126.776363 
z
" clip-path="url(#p3e27d03125)" style="fill: #4cc26c"/>
    <path d="M 36 75.816 
L 36 71.716845 
L 41.952 73.001633 
L 47.904 74.163789 
L 53.856 75.228564 
L 57.396495 75.816 
L 59.808 76.266319 
L 65.76 77.291046 
L 71.712 78.208887 
L 77.664 79.031292 
L 83.616 79.769428 
L 89.568 80.433619 
L 95.52 81.033101 
L 99.078179 81.36 
L 101.472 81.613792 
L 107.424 82.191101 
L 113.376 82.714702 
L 119.328 83.191465 
L 125.28 83.627193 
L 131.232 84.026808 
L 137.184 84.394504 
L 143.136 84.73387 
L 149.088 85.047991 
L 155.04 85.33953 
L 160.992 85.610796 
L 166.944 85.8638 
L 172.896 86.100302 
L 178.848 86.321843 
L 184.8 86.529784 
L 190.752 86.725324 
L 196.524275 86.904 
L 196.704 86.910559 
L 202.656 87.116455 
L 208.608 87.310679 
L 214.56 87.494193 
L 214.56 91.7098 
L 208.608 91.550197 
L 202.656 91.381454 
L 196.704 91.202768 
L 190.752 91.013241 
L 184.8 90.811864 
L 178.848 90.597501 
L 172.896 90.368865 
L 166.944 90.1245 
L 160.992 89.862743 
L 155.04 89.581695 
L 149.088 89.279173 
L 143.136 88.95266 
L 137.184 88.599235 
L 131.232 88.215499 
L 125.28 87.797466 
L 119.328 87.340446 
L 114.136129 86.904 
L 113.376 86.850536 
L 107.424 86.398647 
L 101.472 85.902538 
L 95.52 85.35599 
L 89.568 84.751772 
L 83.616 84.081521 
L 77.664 83.335681 
L 71.712 82.503553 
L 65.76 81.573566 
L 64.490111 81.36 
L 59.808 80.682862 
L 53.856 79.748316 
L 47.904 78.733667 
L 41.952 77.638533 
L 36 76.438474 
z
" clip-path="url(#p3e27d03125)" style="fill: #4cc26c"/>
   </g>
   <g id="PathCollection_11">
    <path d="M 36 120.168 
L 36 117.80351 
L 41.952 120.056021 
L 42.279512 120.168 
L 47.904 121.610882 
L 53.856 122.994447 
L 59.808 124.242537 
L 65.76 125.368625 
L 67.828705 125.712 
L 71.712 126.190574 
L 77.664 126.832031 
L 83.616 127.402513 
L 89.568 127.912516 
L 95.52 128.370772 
L 101.472 128.784527 
L 107.424 129.159809 
L 113.376 129.50165 
L 119.328 129.814268 
L 125.28 130.101219 
L 131.232 130.365519 
L 137.184 130.609735 
L 143.136 130.836066 
L 149.088 131.046405 
L 155.04 131.24239 
L 155.487869 131.256 
L 160.992 131.374537 
L 166.944 131.493531 
L 172.896 131.604332 
L 178.848 131.707734 
L 184.8 131.804432 
L 190.752 131.895042 
L 196.704 131.980105 
L 202.656 132.060103 
L 208.608 132.135463 
L 214.56 132.206568 
L 214.56 136.532003 
L 208.608 136.436011 
L 202.656 136.334744 
L 196.704 136.227758 
L 190.752 136.114557 
L 184.8 135.994586 
L 178.848 135.867224 
L 172.896 135.731769 
L 166.944 135.587434 
L 160.992 135.433321 
L 155.04 135.268413 
L 149.088 135.091547 
L 143.136 134.901391 
L 137.184 134.69641 
L 131.232 134.47483 
L 125.28 134.234586 
L 119.328 133.97327 
L 113.376 133.688053 
L 107.424 133.375597 
L 101.472 133.031944 
L 95.52 132.652372 
L 89.568 132.23123 
L 83.616 131.761725 
L 77.898885 131.256 
L 77.664 131.229064 
L 71.712 130.450067 
L 65.76 129.581775 
L 59.808 128.60984 
L 53.856 127.518757 
L 47.904 126.294339 
L 45.428021 125.712 
L 41.952 124.684069 
L 36 122.773489 
z
" clip-path="url(#p3e27d03125)" style="fill: #7ad151"/>
    <path d="M 36 81.36 
L 36 76.438474 
L 41.952 77.638533 
L 47.904 78.733667 
L 53.856 79.748316 
L 59.808 80.682862 
L 64.490111 81.36 
L 65.76 81.573566 
L 71.712 82.503553 
L 77.664 83.335681 
L 83.616 84.081521 
L 89.568 84.751772 
L 95.52 85.35599 
L 101.472 85.902538 
L 107.424 86.398647 
L 113.376 86.850536 
L 114.136129 86.904 
L 119.328 87.340446 
L 125.28 87.797466 
L 131.232 88.215499 
L 137.184 88.599235 
L 143.136 88.95266 
L 149.088 89.279173 
L 155.04 89.581695 
L 160.992 89.862743 
L 166.944 90.1245 
L 172.896 90.368865 
L 178.848 90.597501 
L 184.8 90.811864 
L 190.752 91.013241 
L 196.704 91.202768 
L 202.656 91.381454 
L 208.608 91.550197 
L 214.56 91.7098 
L 214.56 92.448 
L 214.56 96.760528 
L 208.608 96.597902 
L 202.656 96.425774 
L 196.704 96.24329 
L 190.752 96.049488 
L 184.8 95.843285 
L 178.848 95.623456 
L 172.896 95.388609 
L 166.944 95.137156 
L 160.992 94.867279 
L 155.04 94.576886 
L 149.088 94.263557 
L 143.136 93.924477 
L 137.184 93.556354 
L 131.232 93.155315 
L 125.28 92.716769 
L 121.925542 92.448 
L 119.328 92.283547 
L 113.376 91.876252 
L 107.424 91.43031 
L 101.472 90.940381 
L 95.52 90.400233 
L 89.568 89.802624 
L 83.616 89.13919 
L 77.664 88.400409 
L 71.712 87.575704 
L 67.314073 86.904 
L 65.76 86.709427 
L 59.808 85.922181 
L 53.856 85.074354 
L 47.904 84.176119 
L 41.952 83.2398 
L 36 82.251789 
z
" clip-path="url(#p3e27d03125)" style="fill: #7ad151"/>
   </g>
   <g id="PathCollection_12">
    <path d="M 36 114.624 
L 36 110.313746 
L 41.952 112.879114 
L 45.983626 114.624 
L 47.904 115.179264 
L 53.856 116.679961 
L 59.808 118.056187 
L 65.76 119.321936 
L 70.145345 120.168 
L 71.712 120.369022 
L 77.664 121.018516 
L 83.616 121.59362 
L 89.568 122.10559 
L 95.52 122.563756 
L 101.472 122.975837 
L 107.424 123.348227 
L 113.376 123.686244 
L 119.328 123.994331 
L 125.28 124.276222 
L 131.232 124.53507 
L 137.184 124.773553 
L 143.136 124.993956 
L 149.088 125.198242 
L 155.04 125.388104 
L 160.992 125.565007 
L 166.299283 125.712 
L 166.944 125.722879 
L 172.896 125.81436 
L 178.848 125.898796 
L 184.8 125.976894 
L 190.752 126.049277 
L 196.704 126.116491 
L 202.656 126.179017 
L 208.608 126.237283 
L 214.56 126.291669 
L 214.56 131.256 
L 214.56 132.206568 
L 208.608 132.135463 
L 202.656 132.060103 
L 196.704 131.980105 
L 190.752 131.895042 
L 184.8 131.804432 
L 178.848 131.707734 
L 172.896 131.604332 
L 166.944 131.493531 
L 160.992 131.374537 
L 155.487869 131.256 
L 155.04 131.24239 
L 149.088 131.046405 
L 143.136 130.836066 
L 137.184 130.609735 
L 131.232 130.365519 
L 125.28 130.101219 
L 119.328 129.814268 
L 113.376 129.50165 
L 107.424 129.159809 
L 101.472 128.784527 
L 95.52 128.370772 
L 89.568 127.912516 
L 83.616 127.402513 
L 77.664 126.832031 
L 71.712 126.190574 
L 67.828705 125.712 
L 65.76 125.368625 
L 59.808 124.242537 
L 53.856 122.994447 
L 47.904 121.610882 
L 42.279512 120.168 
L 41.952 120.056021 
L 36 117.80351 
z
" clip-path="url(#p3e27d03125)" style="fill: #addc30"/>
    <path d="M 36 86.904 
L 36 82.251789 
L 41.952 83.2398 
L 47.904 84.176119 
L 53.856 85.074354 
L 59.808 85.922181 
L 65.76 86.709427 
L 67.314073 86.904 
L 71.712 87.575704 
L 77.664 88.400409 
L 83.616 89.13919 
L 89.568 89.802624 
L 95.52 90.400233 
L 101.472 90.940381 
L 107.424 91.43031 
L 113.376 91.876252 
L 119.328 92.283547 
L 121.925542 92.448 
L 125.28 92.716769 
L 131.232 93.155315 
L 137.184 93.556354 
L 143.136 93.924477 
L 149.088 94.263557 
L 155.04 94.576886 
L 160.992 94.867279 
L 166.944 95.137156 
L 172.896 95.388609 
L 178.848 95.623456 
L 184.8 95.843285 
L 190.752 96.049488 
L 196.704 96.24329 
L 202.656 96.425774 
L 208.608 96.597902 
L 214.56 96.760528 
L 214.56 97.992 
L 214.56 103.359421 
L 208.608 103.203059 
L 202.656 103.037369 
L 196.704 102.861486 
L 190.752 102.674434 
L 184.8 102.475107 
L 178.848 102.262247 
L 172.896 102.034415 
L 166.944 101.789958 
L 160.992 101.526969 
L 155.04 101.243231 
L 149.088 100.936153 
L 143.136 100.602684 
L 137.184 100.239207 
L 131.232 99.841389 
L 125.28 99.403997 
L 119.328 98.920632 
L 113.376 98.383375 
L 109.446241 97.992 
L 107.424 97.851285 
L 101.472 97.405726 
L 95.52 96.916352 
L 89.568 96.377543 
L 83.616 95.783212 
L 77.664 95.127135 
L 71.712 94.403724 
L 65.76 93.609623 
L 59.808 92.746803 
L 57.723581 92.448 
L 53.856 92.043588 
L 47.904 91.479347 
L 41.952 91.021695 
L 36 90.732585 
z
" clip-path="url(#p3e27d03125)" style="fill: #addc30"/>
   </g>
   <g id="PathCollection_13">
    <path d="M 36 109.08 
L 36 103.536 
L 36 97.992 
L 36 92.448 
L 36 90.732585 
L 41.952 91.021695 
L 47.904 91.479347 
L 53.856 92.043588 
L 57.723581 92.448 
L 59.808 92.746803 
L 65.76 93.609623 
L 71.712 94.403724 
L 77.664 95.127135 
L 83.616 95.783212 
L 89.568 96.377543 
L 95.52 96.916352 
L 101.472 97.405726 
L 107.424 97.851285 
L 109.446241 97.992 
L 113.376 98.383375 
L 119.328 98.920632 
L 125.28 99.403997 
L 131.232 99.841389 
L 137.184 100.239207 
L 143.136 100.602684 
L 149.088 100.936153 
L 155.04 101.243231 
L 160.992 101.526969 
L 166.944 101.789958 
L 172.896 102.034415 
L 178.848 102.262247 
L 184.8 102.475107 
L 190.752 102.674434 
L 196.704 102.861486 
L 202.656 103.037369 
L 208.608 103.203059 
L 214.56 103.359421 
L 214.56 103.536 
L 214.56 109.08 
L 214.56 114.624 
L 214.56 120.168 
L 214.56 125.712 
L 214.56 126.291669 
L 208.608 126.237283 
L 202.656 126.179017 
L 196.704 126.116491 
L 190.752 126.049277 
L 184.8 125.976894 
L 178.848 125.898796 
L 172.896 125.81436 
L 166.944 125.722879 
L 166.299283 125.712 
L 160.992 125.565007 
L 155.04 125.388104 
L 149.088 125.198242 
L 143.136 124.993956 
L 137.184 124.773553 
L 131.232 124.53507 
L 125.28 124.276222 
L 119.328 123.994331 
L 113.376 123.686244 
L 107.424 123.348227 
L 101.472 122.975837 
L 95.52 122.563756 
L 89.568 122.10559 
L 83.616 121.59362 
L 77.664 121.018516 
L 71.712 120.369022 
L 70.145345 120.168 
L 65.76 119.321936 
L 59.808 118.056187 
L 53.856 116.679961 
L 47.904 115.179264 
L 45.983626 114.624 
L 41.952 112.879114 
L 36 110.313746 
z
" clip-path="url(#p3e27d03125)" style="fill: #e5e419"/>
   </g>
   <g id="PathCollection_14">
    <defs>
     <path id="m3df793fede" d="M -4.330127 4.330127 
L 4.330127 -4.330127 
M -4.330127 -4.330127 
L 4.330127 4.330127 
" style="stroke: #000000; stroke-width: 2"/>
    </defs>
    <g clip-path="url(#p3e27d03125)">
     <use xlink:href="#m3df793fede" x="85.6" y="109.08" style="stroke: #000000; stroke-width: 2"/>
    </g>
   </g>
   <g id="matplotlib.axis_1">
    <g id="xtick_1">
     <g id="line2d_1">
      <defs>
       <path id="m2cf754eaec" d="M 0 0 
L 0 3.5 
" style="stroke: #000000; stroke-width: 0.8"/>
      </defs>
      <g>
       <use xlink:href="#m2cf754eaec" x="75.68" y="192.24" style="stroke: #000000; stroke-width: 0.8"/>
      </g>
     </g>
     <g id="text_1">
      <!-- 250 -->
      <g transform="translate(64.2275 208.358125) scale(0.12 -0.12)">
       <defs>
        <path id="DejaVuSans-32" d="M 1228 531 
L 3431 531 
L 3431 0 
L 469 0 
L 469 531 
Q 828 903 1448 1529 
Q 2069 2156 2228 2338 
Q 2531 2678 2651 2914 
Q 2772 3150 2772 3378 
Q 2772 3750 2511 3984 
Q 2250 4219 1831 4219 
Q 1534 4219 1204 4116 
Q 875 4013 500 3803 
L 500 4441 
Q 881 4594 1212 4672 
Q 1544 4750 1819 4750 
Q 2544 4750 2975 4387 
Q 3406 4025 3406 3419 
Q 3406 3131 3298 2873 
Q 3191 2616 2906 2266 
Q 2828 2175 2409 1742 
Q 1991 1309 1228 531 
z
" transform="scale(0.015625)"/>
        <path id="DejaVuSans-35" d="M 691 4666 
L 3169 4666 
L 3169 4134 
L 1269 4134 
L 1269 2991 
Q 1406 3038 1543 3061 
Q 1681 3084 1819 3084 
Q 2600 3084 3056 2656 
Q 3513 2228 3513 1497 
Q 3513 744 3044 326 
Q 2575 -91 1722 -91 
Q 1428 -91 1123 -41 
Q 819 9 494 109 
L 494 744 
Q 775 591 1075 516 
Q 1375 441 1709 441 
Q 2250 441 2565 725 
Q 2881 1009 2881 1497 
Q 2881 1984 2565 2268 
Q 2250 2553 1709 2553 
Q 1456 2553 1204 2497 
Q 953 2441 691 2322 
L 691 4666 
z
" transform="scale(0.015625)"/>
        <path id="DejaVuSans-30" d="M 2034 4250 
Q 1547 4250 1301 3770 
Q 1056 3291 1056 2328 
Q 1056 1369 1301 889 
Q 1547 409 2034 409 
Q 2525 409 2770 889 
Q 3016 1369 3016 2328 
Q 3016 3291 2770 3770 
Q 2525 4250 2034 4250 
z
M 2034 4750 
Q 2819 4750 3233 4129 
Q 3647 3509 3647 2328 
Q 3647 1150 3233 529 
Q 2819 -91 2034 -91 
Q 1250 -91 836 529 
Q 422 1150 422 2328 
Q 422 3509 836 4129 
Q 1250 4750 2034 4750 
z
" transform="scale(0.015625)"/>
       </defs>
       <use xlink:href="#DejaVuSans-32"/>
       <use xlink:href="#DejaVuSans-35" x="63.623047"/>
       <use xlink:href="#DejaVuSans-30" x="127.246094"/>
      </g>
     </g>
    </g>
    <g id="xtick_2">
     <g id="line2d_2">
      <g>
       <use xlink:href="#m2cf754eaec" x="125.28" y="192.24" style="stroke: #000000; stroke-width: 0.8"/>
      </g>
     </g>
     <g id="text_2">
      <!-- 500 -->
      <g transform="translate(113.8275 208.358125) scale(0.12 -0.12)">
       <use xlink:href="#DejaVuSans-35"/>
       <use xlink:href="#DejaVuSans-30" x="63.623047"/>
       <use xlink:href="#DejaVuSans-30" x="127.246094"/>
      </g>
     </g>
    </g>
    <g id="xtick_3">
     <g id="line2d_3">
      <g>
       <use xlink:href="#m2cf754eaec" x="174.88" y="192.24" style="stroke: #000000; stroke-width: 0.8"/>
      </g>
     </g>
     <g id="text_3">
      <!-- 750 -->
      <g transform="translate(163.4275 208.358125) scale(0.12 -0.12)">
       <defs>
        <path id="DejaVuSans-37" d="M 525 4666 
L 3525 4666 
L 3525 4397 
L 1831 0 
L 1172 0 
L 2766 4134 
L 525 4134 
L 525 4666 
z
" transform="scale(0.015625)"/>
       </defs>
       <use xlink:href="#DejaVuSans-37"/>
       <use xlink:href="#DejaVuSans-35" x="63.623047"/>
       <use xlink:href="#DejaVuSans-30" x="127.246094"/>
      </g>
     </g>
    </g>
    <g id="text_4">
     <!-- Diploid N$_e$1 -->
     <g transform="translate(80 227.01375) scale(0.16 -0.16)">
      <defs>
       <path id="DejaVuSans-44" d="M 1259 4147 
L 1259 519 
L 2022 519 
Q 2988 519 3436 956 
Q 3884 1394 3884 2338 
Q 3884 3275 3436 3711 
Q 2988 4147 2022 4147 
L 1259 4147 
z
M 628 4666 
L 1925 4666 
Q 3281 4666 3915 4102 
Q 4550 3538 4550 2338 
Q 4550 1131 3912 565 
Q 3275 0 1925 0 
L 628 0 
L 628 4666 
z
" transform="scale(0.015625)"/>
       <path id="DejaVuSans-69" d="M 603 3500 
L 1178 3500 
L 1178 0 
L 603 0 
L 603 3500 
z
M 603 4863 
L 1178 4863 
L 1178 4134 
L 603 4134 
L 603 4863 
z
" transform="scale(0.015625)"/>
       <path id="DejaVuSans-70" d="M 1159 525 
L 1159 -1331 
L 581 -1331 
L 581 3500 
L 1159 3500 
L 1159 2969 
Q 1341 3281 1617 3432 
Q 1894 3584 2278 3584 
Q 2916 3584 3314 3078 
Q 3713 2572 3713 1747 
Q 3713 922 3314 415 
Q 2916 -91 2278 -91 
Q 1894 -91 1617 61 
Q 1341 213 1159 525 
z
M 3116 1747 
Q 3116 2381 2855 2742 
Q 2594 3103 2138 3103 
Q 1681 3103 1420 2742 
Q 1159 2381 1159 1747 
Q 1159 1113 1420 752 
Q 1681 391 2138 391 
Q 2594 391 2855 752 
Q 3116 1113 3116 1747 
z
" transform="scale(0.015625)"/>
       <path id="DejaVuSans-6c" d="M 603 4863 
L 1178 4863 
L 1178 0 
L 603 0 
L 603 4863 
z
" transform="scale(0.015625)"/>
       <path id="DejaVuSans-6f" d="M 1959 3097 
Q 1497 3097 1228 2736 
Q 959 2375 959 1747 
Q 959 1119 1226 758 
Q 1494 397 1959 397 
Q 2419 397 2687 759 
Q 2956 1122 2956 1747 
Q 2956 2369 2687 2733 
Q 2419 3097 1959 3097 
z
M 1959 3584 
Q 2709 3584 3137 3096 
Q 3566 2609 3566 1747 
Q 3566 888 3137 398 
Q 2709 -91 1959 -91 
Q 1206 -91 779 398 
Q 353 888 353 1747 
Q 353 2609 779 3096 
Q 1206 3584 1959 3584 
z
" transform="scale(0.015625)"/>
       <path id="DejaVuSans-64" d="M 2906 2969 
L 2906 4863 
L 3481 4863 
L 3481 0 
L 2906 0 
L 2906 525 
Q 2725 213 2448 61 
Q 2172 -91 1784 -91 
Q 1150 -91 751 415 
Q 353 922 353 1747 
Q 353 2572 751 3078 
Q 1150 3584 1784 3584 
Q 2172 3584 2448 3432 
Q 2725 3281 2906 2969 
z
M 947 1747 
Q 947 1113 1208 752 
Q 1469 391 1925 391 
Q 2381 391 2643 752 
Q 2906 1113 2906 1747 
Q 2906 2381 2643 2742 
Q 2381 3103 1925 3103 
Q 1469 3103 1208 2742 
Q 947 2381 947 1747 
z
" transform="scale(0.015625)"/>
       <path id="DejaVuSans-20" transform="scale(0.015625)"/>
       <path id="DejaVuSans-4e" d="M 628 4666 
L 1478 4666 
L 3547 763 
L 3547 4666 
L 4159 4666 
L 4159 0 
L 3309 0 
L 1241 3903 
L 1241 0 
L 628 0 
L 628 4666 
z
" transform="scale(0.015625)"/>
       <path id="DejaVuSans-Oblique-65" d="M 3078 2063 
Q 3088 2113 3092 2166 
Q 3097 2219 3097 2272 
Q 3097 2653 2873 2875 
Q 2650 3097 2266 3097 
Q 1838 3097 1509 2826 
Q 1181 2556 1013 2059 
L 3078 2063 
z
M 3578 1613 
L 903 1613 
Q 884 1494 878 1425 
Q 872 1356 872 1306 
Q 872 872 1139 634 
Q 1406 397 1894 397 
Q 2269 397 2603 481 
Q 2938 566 3225 728 
L 3116 159 
Q 2806 34 2476 -28 
Q 2147 -91 1806 -91 
Q 1078 -91 686 257 
Q 294 606 294 1247 
Q 294 1794 489 2264 
Q 684 2734 1063 3103 
Q 1306 3334 1642 3459 
Q 1978 3584 2356 3584 
Q 2950 3584 3301 3228 
Q 3653 2872 3653 2272 
Q 3653 2128 3634 1964 
Q 3616 1800 3578 1613 
z
" transform="scale(0.015625)"/>
       <path id="DejaVuSans-31" d="M 794 531 
L 1825 531 
L 1825 4091 
L 703 3866 
L 703 4441 
L 1819 4666 
L 2450 4666 
L 2450 531 
L 3481 531 
L 3481 0 
L 794 0 
L 794 531 
z
" transform="scale(0.015625)"/>
      </defs>
      <use xlink:href="#DejaVuSans-44" transform="translate(0 0.015625)"/>
      <use xlink:href="#DejaVuSans-69" transform="translate(77.001953 0.015625)"/>
      <use xlink:href="#DejaVuSans-70" transform="translate(104.785156 0.015625)"/>
      <use xlink:href="#DejaVuSans-6c" transform="translate(168.261719 0.015625)"/>
      <use xlink:href="#DejaVuSans-6f" transform="translate(196.044922 0.015625)"/>
      <use xlink:href="#DejaVuSans-69" transform="translate(257.226562 0.015625)"/>
      <use xlink:href="#DejaVuSans-64" transform="translate(285.009766 0.015625)"/>
      <use xlink:href="#DejaVuSans-20" transform="translate(348.486328 0.015625)"/>
      <use xlink:href="#DejaVuSans-4e" transform="translate(380.273438 0.015625)"/>
      <use xlink:href="#DejaVuSans-Oblique-65" transform="translate(456.035156 -16.390625) scale(0.7)"/>
      <use xlink:href="#DejaVuSans-31" transform="translate(501.835938 0.015625)"/>
     </g>
    </g>
    <g id="text_5">
     <!-- 1e3 -->
     <g transform="translate(195.681875 221.452188) scale(0.1 -0.1)">
      <defs>
       <path id="DejaVuSans-65" d="M 3597 1894 
L 3597 1613 
L 953 1613 
Q 991 1019 1311 708 
Q 1631 397 2203 397 
Q 2534 397 2845 478 
Q 3156 559 3463 722 
L 3463 178 
Q 3153 47 2828 -22 
Q 2503 -91 2169 -91 
Q 1331 -91 842 396 
Q 353 884 353 1716 
Q 353 2575 817 3079 
Q 1281 3584 2069 3584 
Q 2775 3584 3186 3129 
Q 3597 2675 3597 1894 
z
M 3022 2063 
Q 3016 2534 2758 2815 
Q 2500 3097 2075 3097 
Q 1594 3097 1305 2825 
Q 1016 2553 972 2059 
L 3022 2063 
z
" transform="scale(0.015625)"/>
       <path id="DejaVuSans-33" d="M 2597 2516 
Q 3050 2419 3304 2112 
Q 3559 1806 3559 1356 
Q 3559 666 3084 287 
Q 2609 -91 1734 -91 
Q 1441 -91 1130 -33 
Q 819 25 488 141 
L 488 750 
Q 750 597 1062 519 
Q 1375 441 1716 441 
Q 2309 441 2620 675 
Q 2931 909 2931 1356 
Q 2931 1769 2642 2001 
Q 2353 2234 1838 2234 
L 1294 2234 
L 1294 2753 
L 1863 2753 
Q 2328 2753 2575 2939 
Q 2822 3125 2822 3475 
Q 2822 3834 2567 4026 
Q 2313 4219 1838 4219 
Q 1578 4219 1281 4162 
Q 984 4106 628 3988 
L 628 4550 
Q 988 4650 1302 4700 
Q 1616 4750 1894 4750 
Q 2613 4750 3031 4423 
Q 3450 4097 3450 3541 
Q 3450 3153 3228 2886 
Q 3006 2619 2597 2516 
z
" transform="scale(0.015625)"/>
      </defs>
      <use xlink:href="#DejaVuSans-31"/>
      <use xlink:href="#DejaVuSans-65" x="63.623047"/>
      <use xlink:href="#DejaVuSans-33" x="125.146484"/>
     </g>
    </g>
   </g>
   <g id="matplotlib.axis_2">
    <g id="ytick_1">
     <g id="line2d_4">
      <defs>
       <path id="m85a0267c51" d="M 0 0 
L -3.5 0 
" style="stroke: #000000; stroke-width: 0.8"/>
      </defs>
      <g>
       <use xlink:href="#m85a0267c51" x="36" y="192.24" style="stroke: #000000; stroke-width: 0.8"/>
      </g>
     </g>
     <g id="text_6">
      <!-- 1.0 -->
      <g transform="translate(9.91625 196.799062) scale(0.12 -0.12)">
       <defs>
        <path id="DejaVuSans-2e" d="M 684 794 
L 1344 794 
L 1344 0 
L 684 0 
L 684 794 
z
" transform="scale(0.015625)"/>
       </defs>
       <use xlink:href="#DejaVuSans-31"/>
       <use xlink:href="#DejaVuSans-2e" x="63.623047"/>
       <use xlink:href="#DejaVuSans-30" x="95.410156"/>
      </g>
     </g>
    </g>
    <g id="ytick_2">
     <g id="line2d_5">
      <g>
       <use xlink:href="#m85a0267c51" x="36" y="150.66" style="stroke: #000000; stroke-width: 0.8"/>
      </g>
     </g>
     <g id="text_7">
      <!-- 1.5 -->
      <g transform="translate(9.91625 155.219063) scale(0.12 -0.12)">
       <use xlink:href="#DejaVuSans-31"/>
       <use xlink:href="#DejaVuSans-2e" x="63.623047"/>
       <use xlink:href="#DejaVuSans-35" x="95.410156"/>
      </g>
     </g>
    </g>
    <g id="ytick_3">
     <g id="line2d_6">
      <g>
       <use xlink:href="#m85a0267c51" x="36" y="109.08" style="stroke: #000000; stroke-width: 0.8"/>
      </g>
     </g>
     <g id="text_8">
      <!-- 2.0 -->
      <g transform="translate(9.91625 113.639062) scale(0.12 -0.12)">
       <use xlink:href="#DejaVuSans-32"/>
       <use xlink:href="#DejaVuSans-2e" x="63.623047"/>
       <use xlink:href="#DejaVuSans-30" x="95.410156"/>
      </g>
     </g>
    </g>
    <g id="ytick_4">
     <g id="line2d_7">
      <g>
       <use xlink:href="#m85a0267c51" x="36" y="67.5" style="stroke: #000000; stroke-width: 0.8"/>
      </g>
     </g>
     <g id="text_9">
      <!-- 2.5 -->
      <g transform="translate(9.91625 72.059063) scale(0.12 -0.12)">
       <use xlink:href="#DejaVuSans-32"/>
       <use xlink:href="#DejaVuSans-2e" x="63.623047"/>
       <use xlink:href="#DejaVuSans-35" x="95.410156"/>
      </g>
     </g>
    </g>
    <g id="ytick_5">
     <g id="line2d_8">
      <g>
       <use xlink:href="#m85a0267c51" x="36" y="25.92" style="stroke: #000000; stroke-width: 0.8"/>
      </g>
     </g>
     <g id="text_10">
      <!-- 3.0 -->
      <g transform="translate(9.91625 30.479062) scale(0.12 -0.12)">
       <use xlink:href="#DejaVuSans-33"/>
       <use xlink:href="#DejaVuSans-2e" x="63.623047"/>
       <use xlink:href="#DejaVuSans-30" x="95.410156"/>
      </g>
     </g>
    </g>
    <g id="text_11">
     <!-- Recombination rate -->
     <g transform="translate(2.58875 187.6775) rotate(-90) scale(0.16 -0.16)">
      <defs>
       <path id="DejaVuSans-52" d="M 2841 2188 
Q 3044 2119 3236 1894 
Q 3428 1669 3622 1275 
L 4263 0 
L 3584 0 
L 2988 1197 
Q 2756 1666 2539 1819 
Q 2322 1972 1947 1972 
L 1259 1972 
L 1259 0 
L 628 0 
L 628 4666 
L 2053 4666 
Q 2853 4666 3247 4331 
Q 3641 3997 3641 3322 
Q 3641 2881 3436 2590 
Q 3231 2300 2841 2188 
z
M 1259 4147 
L 1259 2491 
L 2053 2491 
Q 2509 2491 2742 2702 
Q 2975 2913 2975 3322 
Q 2975 3731 2742 3939 
Q 2509 4147 2053 4147 
L 1259 4147 
z
" transform="scale(0.015625)"/>
       <path id="DejaVuSans-63" d="M 3122 3366 
L 3122 2828 
Q 2878 2963 2633 3030 
Q 2388 3097 2138 3097 
Q 1578 3097 1268 2742 
Q 959 2388 959 1747 
Q 959 1106 1268 751 
Q 1578 397 2138 397 
Q 2388 397 2633 464 
Q 2878 531 3122 666 
L 3122 134 
Q 2881 22 2623 -34 
Q 2366 -91 2075 -91 
Q 1284 -91 818 406 
Q 353 903 353 1747 
Q 353 2603 823 3093 
Q 1294 3584 2113 3584 
Q 2378 3584 2631 3529 
Q 2884 3475 3122 3366 
z
" transform="scale(0.015625)"/>
       <path id="DejaVuSans-6d" d="M 3328 2828 
Q 3544 3216 3844 3400 
Q 4144 3584 4550 3584 
Q 5097 3584 5394 3201 
Q 5691 2819 5691 2113 
L 5691 0 
L 5113 0 
L 5113 2094 
Q 5113 2597 4934 2840 
Q 4756 3084 4391 3084 
Q 3944 3084 3684 2787 
Q 3425 2491 3425 1978 
L 3425 0 
L 2847 0 
L 2847 2094 
Q 2847 2600 2669 2842 
Q 2491 3084 2119 3084 
Q 1678 3084 1418 2786 
Q 1159 2488 1159 1978 
L 1159 0 
L 581 0 
L 581 3500 
L 1159 3500 
L 1159 2956 
Q 1356 3278 1631 3431 
Q 1906 3584 2284 3584 
Q 2666 3584 2933 3390 
Q 3200 3197 3328 2828 
z
" transform="scale(0.015625)"/>
       <path id="DejaVuSans-62" d="M 3116 1747 
Q 3116 2381 2855 2742 
Q 2594 3103 2138 3103 
Q 1681 3103 1420 2742 
Q 1159 2381 1159 1747 
Q 1159 1113 1420 752 
Q 1681 391 2138 391 
Q 2594 391 2855 752 
Q 3116 1113 3116 1747 
z
M 1159 2969 
Q 1341 3281 1617 3432 
Q 1894 3584 2278 3584 
Q 2916 3584 3314 3078 
Q 3713 2572 3713 1747 
Q 3713 922 3314 415 
Q 2916 -91 2278 -91 
Q 1894 -91 1617 61 
Q 1341 213 1159 525 
L 1159 0 
L 581 0 
L 581 4863 
L 1159 4863 
L 1159 2969 
z
" transform="scale(0.015625)"/>
       <path id="DejaVuSans-6e" d="M 3513 2113 
L 3513 0 
L 2938 0 
L 2938 2094 
Q 2938 2591 2744 2837 
Q 2550 3084 2163 3084 
Q 1697 3084 1428 2787 
Q 1159 2491 1159 1978 
L 1159 0 
L 581 0 
L 581 3500 
L 1159 3500 
L 1159 2956 
Q 1366 3272 1645 3428 
Q 1925 3584 2291 3584 
Q 2894 3584 3203 3211 
Q 3513 2838 3513 2113 
z
" transform="scale(0.015625)"/>
       <path id="DejaVuSans-61" d="M 2194 1759 
Q 1497 1759 1228 1600 
Q 959 1441 959 1056 
Q 959 750 1161 570 
Q 1363 391 1709 391 
Q 2188 391 2477 730 
Q 2766 1069 2766 1631 
L 2766 1759 
L 2194 1759 
z
M 3341 1997 
L 3341 0 
L 2766 0 
L 2766 531 
Q 2569 213 2275 61 
Q 1981 -91 1556 -91 
Q 1019 -91 701 211 
Q 384 513 384 1019 
Q 384 1609 779 1909 
Q 1175 2209 1959 2209 
L 2766 2209 
L 2766 2266 
Q 2766 2663 2505 2880 
Q 2244 3097 1772 3097 
Q 1472 3097 1187 3025 
Q 903 2953 641 2809 
L 641 3341 
Q 956 3463 1253 3523 
Q 1550 3584 1831 3584 
Q 2591 3584 2966 3190 
Q 3341 2797 3341 1997 
z
" transform="scale(0.015625)"/>
       <path id="DejaVuSans-74" d="M 1172 4494 
L 1172 3500 
L 2356 3500 
L 2356 3053 
L 1172 3053 
L 1172 1153 
Q 1172 725 1289 603 
Q 1406 481 1766 481 
L 2356 481 
L 2356 0 
L 1766 0 
Q 1100 0 847 248 
Q 594 497 594 1153 
L 594 3053 
L 172 3053 
L 172 3500 
L 594 3500 
L 594 4494 
L 1172 4494 
z
" transform="scale(0.015625)"/>
       <path id="DejaVuSans-72" d="M 2631 2963 
Q 2534 3019 2420 3045 
Q 2306 3072 2169 3072 
Q 1681 3072 1420 2755 
Q 1159 2438 1159 1844 
L 1159 0 
L 581 0 
L 581 3500 
L 1159 3500 
L 1159 2956 
Q 1341 3275 1631 3429 
Q 1922 3584 2338 3584 
Q 2397 3584 2469 3576 
Q 2541 3569 2628 3553 
L 2631 2963 
z
" transform="scale(0.015625)"/>
      </defs>
      <use xlink:href="#DejaVuSans-52"/>
      <use xlink:href="#DejaVuSans-65" x="64.982422"/>
      <use xlink:href="#DejaVuSans-63" x="126.505859"/>
      <use xlink:href="#DejaVuSans-6f" x="181.486328"/>
      <use xlink:href="#DejaVuSans-6d" x="242.667969"/>
      <use xlink:href="#DejaVuSans-62" x="340.080078"/>
      <use xlink:href="#DejaVuSans-69" x="403.556641"/>
      <use xlink:href="#DejaVuSans-6e" x="431.339844"/>
      <use xlink:href="#DejaVuSans-61" x="494.71875"/>
      <use xlink:href="#DejaVuSans-74" x="555.998047"/>
      <use xlink:href="#DejaVuSans-69" x="595.207031"/>
      <use xlink:href="#DejaVuSans-6f" x="622.990234"/>
      <use xlink:href="#DejaVuSans-6e" x="684.171875"/>
      <use xlink:href="#DejaVuSans-20" x="747.550781"/>
      <use xlink:href="#DejaVuSans-72" x="779.337891"/>
      <use xlink:href="#DejaVuSans-61" x="820.451172"/>
      <use xlink:href="#DejaVuSans-74" x="881.730469"/>
      <use xlink:href="#DejaVuSans-65" x="920.939453"/>
     </g>
    </g>
    <g id="text_12">
     <!-- 1e9 -->
     <g transform="translate(36 22.92) scale(0.1 -0.1)">
      <defs>
       <path id="DejaVuSans-2212" d="M 678 2272 
L 4684 2272 
L 4684 1741 
L 678 1741 
L 678 2272 
z
" transform="scale(0.015625)"/>
       <path id="DejaVuSans-39" d="M 703 97 
L 703 672 
Q 941 559 1184 500 
Q 1428 441 1663 441 
Q 2288 441 2617 861 
Q 2947 1281 2994 2138 
Q 2813 1869 2534 1725 
Q 2256 1581 1919 1581 
Q 1219 1581 811 2004 
Q 403 2428 403 3163 
Q 403 3881 828 4315 
Q 1253 4750 1959 4750 
Q 2769 4750 3195 4129 
Q 3622 3509 3622 2328 
Q 3622 1225 3098 567 
Q 2575 -91 1691 -91 
Q 1453 -91 1209 -44 
Q 966 3 703 97 
z
M 1959 2075 
Q 2384 2075 2632 2365 
Q 2881 2656 2881 3163 
Q 2881 3666 2632 3958 
Q 2384 4250 1959 4250 
Q 1534 4250 1286 3958 
Q 1038 3666 1038 3163 
Q 1038 2656 1286 2365 
Q 1534 2075 1959 2075 
z
" transform="scale(0.015625)"/>
      </defs>
      <use xlink:href="#DejaVuSans-31"/>
      <use xlink:href="#DejaVuSans-65" x="63.623047"/>
      <use xlink:href="#DejaVuSans-2212" x="125.146484"/>
      <use xlink:href="#DejaVuSans-39" x="208.935547"/>
     </g>
    </g>
   </g>
   <g id="patch_3">
    <path d="M 36 192.24 
L 36 25.92 
" style="fill: none; stroke: #000000; stroke-width: 0.8; stroke-linejoin: miter; stroke-linecap: square"/>
   </g>
   <g id="patch_4">
    <path d="M 214.56 192.24 
L 214.56 25.92 
" style="fill: none; stroke: #000000; stroke-width: 0.8; stroke-linejoin: miter; stroke-linecap: square"/>
   </g>
   <g id="patch_5">
    <path d="M 36 192.24 
L 214.56 192.24 
" style="fill: none; stroke: #000000; stroke-width: 0.8; stroke-linejoin: miter; stroke-linecap: square"/>
   </g>
   <g id="patch_6">
    <path d="M 36 25.92 
L 214.56 25.92 
" style="fill: none; stroke: #000000; stroke-width: 0.8; stroke-linejoin: miter; stroke-linecap: square"/>
   </g>
   <g id="text_13">
    <!-- Ne1r-SMC-GT-P2-S4 -->
    <g transform="translate(46.95375 10.92) scale(0.16 -0.16)">
     <defs>
      <path id="DejaVuSans-2d" d="M 313 2009 
L 1997 2009 
L 1997 1497 
L 313 1497 
L 313 2009 
z
" transform="scale(0.015625)"/>
      <path id="DejaVuSans-53" d="M 3425 4513 
L 3425 3897 
Q 3066 4069 2747 4153 
Q 2428 4238 2131 4238 
Q 1616 4238 1336 4038 
Q 1056 3838 1056 3469 
Q 1056 3159 1242 3001 
Q 1428 2844 1947 2747 
L 2328 2669 
Q 3034 2534 3370 2195 
Q 3706 1856 3706 1288 
Q 3706 609 3251 259 
Q 2797 -91 1919 -91 
Q 1588 -91 1214 -16 
Q 841 59 441 206 
L 441 856 
Q 825 641 1194 531 
Q 1563 422 1919 422 
Q 2459 422 2753 634 
Q 3047 847 3047 1241 
Q 3047 1584 2836 1778 
Q 2625 1972 2144 2069 
L 1759 2144 
Q 1053 2284 737 2584 
Q 422 2884 422 3419 
Q 422 4038 858 4394 
Q 1294 4750 2059 4750 
Q 2388 4750 2728 4690 
Q 3069 4631 3425 4513 
z
" transform="scale(0.015625)"/>
      <path id="DejaVuSans-4d" d="M 628 4666 
L 1569 4666 
L 2759 1491 
L 3956 4666 
L 4897 4666 
L 4897 0 
L 4281 0 
L 4281 4097 
L 3078 897 
L 2444 897 
L 1241 4097 
L 1241 0 
L 628 0 
L 628 4666 
z
" transform="scale(0.015625)"/>
      <path id="DejaVuSans-43" d="M 4122 4306 
L 4122 3641 
Q 3803 3938 3442 4084 
Q 3081 4231 2675 4231 
Q 1875 4231 1450 3742 
Q 1025 3253 1025 2328 
Q 1025 1406 1450 917 
Q 1875 428 2675 428 
Q 3081 428 3442 575 
Q 3803 722 4122 1019 
L 4122 359 
Q 3791 134 3420 21 
Q 3050 -91 2638 -91 
Q 1578 -91 968 557 
Q 359 1206 359 2328 
Q 359 3453 968 4101 
Q 1578 4750 2638 4750 
Q 3056 4750 3426 4639 
Q 3797 4528 4122 4306 
z
" transform="scale(0.015625)"/>
      <path id="DejaVuSans-47" d="M 3809 666 
L 3809 1919 
L 2778 1919 
L 2778 2438 
L 4434 2438 
L 4434 434 
Q 4069 175 3628 42 
Q 3188 -91 2688 -91 
Q 1594 -91 976 548 
Q 359 1188 359 2328 
Q 359 3472 976 4111 
Q 1594 4750 2688 4750 
Q 3144 4750 3555 4637 
Q 3966 4525 4313 4306 
L 4313 3634 
Q 3963 3931 3569 4081 
Q 3175 4231 2741 4231 
Q 1884 4231 1454 3753 
Q 1025 3275 1025 2328 
Q 1025 1384 1454 906 
Q 1884 428 2741 428 
Q 3075 428 3337 486 
Q 3600 544 3809 666 
z
" transform="scale(0.015625)"/>
      <path id="DejaVuSans-54" d="M -19 4666 
L 3928 4666 
L 3928 4134 
L 2272 4134 
L 2272 0 
L 1638 0 
L 1638 4134 
L -19 4134 
L -19 4666 
z
" transform="scale(0.015625)"/>
      <path id="DejaVuSans-50" d="M 1259 4147 
L 1259 2394 
L 2053 2394 
Q 2494 2394 2734 2622 
Q 2975 2850 2975 3272 
Q 2975 3691 2734 3919 
Q 2494 4147 2053 4147 
L 1259 4147 
z
M 628 4666 
L 2053 4666 
Q 2838 4666 3239 4311 
Q 3641 3956 3641 3272 
Q 3641 2581 3239 2228 
Q 2838 1875 2053 1875 
L 1259 1875 
L 1259 0 
L 628 0 
L 628 4666 
z
" transform="scale(0.015625)"/>
      <path id="DejaVuSans-34" d="M 2419 4116 
L 825 1625 
L 2419 1625 
L 2419 4116 
z
M 2253 4666 
L 3047 4666 
L 3047 1625 
L 3713 1625 
L 3713 1100 
L 3047 1100 
L 3047 0 
L 2419 0 
L 2419 1100 
L 313 1100 
L 313 1709 
L 2253 4666 
z
" transform="scale(0.015625)"/>
     </defs>
     <use xlink:href="#DejaVuSans-4e"/>
     <use xlink:href="#DejaVuSans-65" x="74.804688"/>
     <use xlink:href="#DejaVuSans-31" x="136.328125"/>
     <use xlink:href="#DejaVuSans-72" x="199.951172"/>
     <use xlink:href="#DejaVuSans-2d" x="234.689453"/>
     <use xlink:href="#DejaVuSans-53" x="270.773438"/>
     <use xlink:href="#DejaVuSans-4d" x="334.25"/>
     <use xlink:href="#DejaVuSans-43" x="420.529297"/>
     <use xlink:href="#DejaVuSans-2d" x="490.353516"/>
     <use xlink:href="#DejaVuSans-47" x="530.0625"/>
     <use xlink:href="#DejaVuSans-54" x="603.927734"/>
     <use xlink:href="#DejaVuSans-2d" x="655.886719"/>
     <use xlink:href="#DejaVuSans-50" x="691.970703"/>
     <use xlink:href="#DejaVuSans-32" x="752.273438"/>
     <use xlink:href="#DejaVuSans-2d" x="815.896484"/>
     <use xlink:href="#DejaVuSans-53" x="851.980469"/>
     <use xlink:href="#DejaVuSans-34" x="915.457031"/>
    </g>
   </g>
  </g>
  <g id="axes_2">
   <g id="patch_7">
    <path d="M 225.72 192.24 
L 234.036 192.24 
L 234.036 25.92 
L 225.72 25.92 
z
" style="fill: #ffffff"/>
   </g>
   <g id="QuadMesh_1">
    <path d="M 225.72 192.24 
L 234.036 192.24 
L 234.036 179.446154 
L 225.72 179.446154 
L 225.72 192.24 
" clip-path="url(#pfad9459da4)" style="fill: #440154"/>
    <path d="M 225.72 179.446154 
L 234.036 179.446154 
L 234.036 166.652308 
L 225.72 166.652308 
L 225.72 179.446154 
" clip-path="url(#pfad9459da4)" style="fill: #48186a"/>
    <path d="M 225.72 166.652308 
L 234.036 166.652308 
L 234.036 153.858462 
L 225.72 153.858462 
L 225.72 166.652308 
" clip-path="url(#pfad9459da4)" style="fill: #46337f"/>
    <path d="M 225.72 153.858462 
L 234.036 153.858462 
L 234.036 141.064615 
L 225.72 141.064615 
L 225.72 153.858462 
" clip-path="url(#pfad9459da4)" style="fill: #3e4c8a"/>
    <path d="M 225.72 141.064615 
L 234.036 141.064615 
L 234.036 128.270769 
L 225.72 128.270769 
L 225.72 141.064615 
" clip-path="url(#pfad9459da4)" style="fill: #33628d"/>
    <path d="M 225.72 128.270769 
L 234.036 128.270769 
L 234.036 115.476923 
L 225.72 115.476923 
L 225.72 128.270769 
" clip-path="url(#pfad9459da4)" style="fill: #2a768e"/>
    <path d="M 225.72 115.476923 
L 234.036 115.476923 
L 234.036 102.683077 
L 225.72 102.683077 
L 225.72 115.476923 
" clip-path="url(#pfad9459da4)" style="fill: #23898e"/>
    <path d="M 225.72 102.683077 
L 234.036 102.683077 
L 234.036 89.889231 
L 225.72 89.889231 
L 225.72 102.683077 
" clip-path="url(#pfad9459da4)" style="fill: #1e9d89"/>
    <path d="M 225.72 89.889231 
L 234.036 89.889231 
L 234.036 77.095385 
L 225.72 77.095385 
L 225.72 89.889231 
" clip-path="url(#pfad9459da4)" style="fill: #2ab07f"/>
    <path d="M 225.72 77.095385 
L 234.036 77.095385 
L 234.036 64.301538 
L 225.72 64.301538 
L 225.72 77.095385 
" clip-path="url(#pfad9459da4)" style="fill: #4cc26c"/>
    <path d="M 225.72 64.301538 
L 234.036 64.301538 
L 234.036 51.507692 
L 225.72 51.507692 
L 225.72 64.301538 
" clip-path="url(#pfad9459da4)" style="fill: #7ad151"/>
    <path d="M 225.72 51.507692 
L 234.036 51.507692 
L 234.036 38.713846 
L 225.72 38.713846 
L 225.72 51.507692 
" clip-path="url(#pfad9459da4)" style="fill: #addc30"/>
    <path d="M 225.72 38.713846 
L 234.036 38.713846 
L 234.036 25.92 
L 225.72 25.92 
L 225.72 38.713846 
" clip-path="url(#pfad9459da4)" style="fill: #e5e419"/>
   </g>
   <g id="matplotlib.axis_3"/>
   <g id="matplotlib.axis_4">
    <g id="ytick_6">
     <g id="line2d_9">
      <defs>
       <path id="mf072f0dbcc" d="M 0 0 
L 3.5 0 
" style="stroke: #000000; stroke-width: 0.8"/>
      </defs>
      <g>
       <use xlink:href="#mf072f0dbcc" x="234.036" y="179.446154" style="stroke: #000000; stroke-width: 0.8"/>
      </g>
     </g>
     <g id="text_14">
      <!-- $\mathdefault{339.0}$ -->
      <g transform="translate(241.036 183.245373) scale(0.1 -0.1)">
       <use xlink:href="#DejaVuSans-2212" transform="translate(0 0.78125)"/>
       <use xlink:href="#DejaVuSans-33" transform="translate(83.789062 0.78125)"/>
       <use xlink:href="#DejaVuSans-33" transform="translate(147.412109 0.78125)"/>
       <use xlink:href="#DejaVuSans-39" transform="translate(211.035156 0.78125)"/>
       <use xlink:href="#DejaVuSans-2e" transform="translate(274.658203 0.78125)"/>
       <use xlink:href="#DejaVuSans-30" transform="translate(306.445312 0.78125)"/>
      </g>
     </g>
    </g>
    <g id="ytick_7">
     <g id="line2d_10">
      <g>
       <use xlink:href="#mf072f0dbcc" x="234.036" y="153.858462" style="stroke: #000000; stroke-width: 0.8"/>
      </g>
     </g>
     <g id="text_15">
      <!-- $\mathdefault{338.6}$ -->
      <g transform="translate(241.036 157.65768) scale(0.1 -0.1)">
       <defs>
        <path id="DejaVuSans-38" d="M 2034 2216 
Q 1584 2216 1326 1975 
Q 1069 1734 1069 1313 
Q 1069 891 1326 650 
Q 1584 409 2034 409 
Q 2484 409 2743 651 
Q 3003 894 3003 1313 
Q 3003 1734 2745 1975 
Q 2488 2216 2034 2216 
z
M 1403 2484 
Q 997 2584 770 2862 
Q 544 3141 544 3541 
Q 544 4100 942 4425 
Q 1341 4750 2034 4750 
Q 2731 4750 3128 4425 
Q 3525 4100 3525 3541 
Q 3525 3141 3298 2862 
Q 3072 2584 2669 2484 
Q 3125 2378 3379 2068 
Q 3634 1759 3634 1313 
Q 3634 634 3220 271 
Q 2806 -91 2034 -91 
Q 1263 -91 848 271 
Q 434 634 434 1313 
Q 434 1759 690 2068 
Q 947 2378 1403 2484 
z
M 1172 3481 
Q 1172 3119 1398 2916 
Q 1625 2713 2034 2713 
Q 2441 2713 2670 2916 
Q 2900 3119 2900 3481 
Q 2900 3844 2670 4047 
Q 2441 4250 2034 4250 
Q 1625 4250 1398 4047 
Q 1172 3844 1172 3481 
z
" transform="scale(0.015625)"/>
        <path id="DejaVuSans-36" d="M 2113 2584 
Q 1688 2584 1439 2293 
Q 1191 2003 1191 1497 
Q 1191 994 1439 701 
Q 1688 409 2113 409 
Q 2538 409 2786 701 
Q 3034 994 3034 1497 
Q 3034 2003 2786 2293 
Q 2538 2584 2113 2584 
z
M 3366 4563 
L 3366 3988 
Q 3128 4100 2886 4159 
Q 2644 4219 2406 4219 
Q 1781 4219 1451 3797 
Q 1122 3375 1075 2522 
Q 1259 2794 1537 2939 
Q 1816 3084 2150 3084 
Q 2853 3084 3261 2657 
Q 3669 2231 3669 1497 
Q 3669 778 3244 343 
Q 2819 -91 2113 -91 
Q 1303 -91 875 529 
Q 447 1150 447 2328 
Q 447 3434 972 4092 
Q 1497 4750 2381 4750 
Q 2619 4750 2861 4703 
Q 3103 4656 3366 4563 
z
" transform="scale(0.015625)"/>
       </defs>
       <use xlink:href="#DejaVuSans-2212" transform="translate(0 0.78125)"/>
       <use xlink:href="#DejaVuSans-33" transform="translate(83.789062 0.78125)"/>
       <use xlink:href="#DejaVuSans-33" transform="translate(147.412109 0.78125)"/>
       <use xlink:href="#DejaVuSans-38" transform="translate(211.035156 0.78125)"/>
       <use xlink:href="#DejaVuSans-2e" transform="translate(274.658203 0.78125)"/>
       <use xlink:href="#DejaVuSans-36" transform="translate(306.445312 0.78125)"/>
      </g>
     </g>
    </g>
    <g id="ytick_8">
     <g id="line2d_11">
      <g>
       <use xlink:href="#mf072f0dbcc" x="234.036" y="128.270769" style="stroke: #000000; stroke-width: 0.8"/>
      </g>
     </g>
     <g id="text_16">
      <!-- $\mathdefault{338.2}$ -->
      <g transform="translate(241.036 132.069988) scale(0.1 -0.1)">
       <use xlink:href="#DejaVuSans-2212" transform="translate(0 0.78125)"/>
       <use xlink:href="#DejaVuSans-33" transform="translate(83.789062 0.78125)"/>
       <use xlink:href="#DejaVuSans-33" transform="translate(147.412109 0.78125)"/>
       <use xlink:href="#DejaVuSans-38" transform="translate(211.035156 0.78125)"/>
       <use xlink:href="#DejaVuSans-2e" transform="translate(274.658203 0.78125)"/>
       <use xlink:href="#DejaVuSans-32" transform="translate(300.945312 0.78125)"/>
      </g>
     </g>
    </g>
    <g id="ytick_9">
     <g id="line2d_12">
      <g>
       <use xlink:href="#mf072f0dbcc" x="234.036" y="102.683077" style="stroke: #000000; stroke-width: 0.8"/>
      </g>
     </g>
     <g id="text_17">
      <!-- $\mathdefault{337.8}$ -->
      <g transform="translate(241.036 106.482296) scale(0.1 -0.1)">
       <use xlink:href="#DejaVuSans-2212" transform="translate(0 0.78125)"/>
       <use xlink:href="#DejaVuSans-33" transform="translate(83.789062 0.78125)"/>
       <use xlink:href="#DejaVuSans-33" transform="translate(147.412109 0.78125)"/>
       <use xlink:href="#DejaVuSans-37" transform="translate(211.035156 0.78125)"/>
       <use xlink:href="#DejaVuSans-2e" transform="translate(274.658203 0.78125)"/>
       <use xlink:href="#DejaVuSans-38" transform="translate(303.820312 0.78125)"/>
      </g>
     </g>
    </g>
    <g id="ytick_10">
     <g id="line2d_13">
      <g>
       <use xlink:href="#mf072f0dbcc" x="234.036" y="77.095385" style="stroke: #000000; stroke-width: 0.8"/>
      </g>
     </g>
     <g id="text_18">
      <!-- $\mathdefault{337.4}$ -->
      <g transform="translate(241.036 80.894603) scale(0.1 -0.1)">
       <use xlink:href="#DejaVuSans-2212" transform="translate(0 0.78125)"/>
       <use xlink:href="#DejaVuSans-33" transform="translate(83.789062 0.78125)"/>
       <use xlink:href="#DejaVuSans-33" transform="translate(147.412109 0.78125)"/>
       <use xlink:href="#DejaVuSans-37" transform="translate(211.035156 0.78125)"/>
       <use xlink:href="#DejaVuSans-2e" transform="translate(274.658203 0.78125)"/>
       <use xlink:href="#DejaVuSans-34" transform="translate(306.445312 0.78125)"/>
      </g>
     </g>
    </g>
    <g id="ytick_11">
     <g id="line2d_14">
      <g>
       <use xlink:href="#mf072f0dbcc" x="234.036" y="51.507692" style="stroke: #000000; stroke-width: 0.8"/>
      </g>
     </g>
     <g id="text_19">
      <!-- $\mathdefault{337.0}$ -->
      <g transform="translate(241.036 55.306911) scale(0.1 -0.1)">
       <use xlink:href="#DejaVuSans-2212" transform="translate(0 0.78125)"/>
       <use xlink:href="#DejaVuSans-33" transform="translate(83.789062 0.78125)"/>
       <use xlink:href="#DejaVuSans-33" transform="translate(147.412109 0.78125)"/>
       <use xlink:href="#DejaVuSans-37" transform="translate(211.035156 0.78125)"/>
       <use xlink:href="#DejaVuSans-2e" transform="translate(274.658203 0.78125)"/>
       <use xlink:href="#DejaVuSans-30" transform="translate(306.445312 0.78125)"/>
      </g>
     </g>
    </g>
    <g id="ytick_12">
     <g id="line2d_15">
      <g>
       <use xlink:href="#mf072f0dbcc" x="234.036" y="25.92" style="stroke: #000000; stroke-width: 0.8"/>
      </g>
     </g>
     <g id="text_20">
      <!-- $\mathdefault{336.6}$ -->
      <g transform="translate(241.036 29.719219) scale(0.1 -0.1)">
       <use xlink:href="#DejaVuSans-2212" transform="translate(0 0.78125)"/>
       <use xlink:href="#DejaVuSans-33" transform="translate(83.789062 0.78125)"/>
       <use xlink:href="#DejaVuSans-33" transform="translate(147.412109 0.78125)"/>
       <use xlink:href="#DejaVuSans-36" transform="translate(211.035156 0.78125)"/>
       <use xlink:href="#DejaVuSans-2e" transform="translate(274.658203 0.78125)"/>
       <use xlink:href="#DejaVuSans-36" transform="translate(306.445312 0.78125)"/>
      </g>
     </g>
    </g>
    <g id="text_21">
     <!-- log likelihood -->
     <g transform="translate(291.254125 148.704375) rotate(-90) scale(0.12 -0.12)">
      <defs>
       <path id="DejaVuSans-67" d="M 2906 1791 
Q 2906 2416 2648 2759 
Q 2391 3103 1925 3103 
Q 1463 3103 1205 2759 
Q 947 2416 947 1791 
Q 947 1169 1205 825 
Q 1463 481 1925 481 
Q 2391 481 2648 825 
Q 2906 1169 2906 1791 
z
M 3481 434 
Q 3481 -459 3084 -895 
Q 2688 -1331 1869 -1331 
Q 1566 -1331 1297 -1286 
Q 1028 -1241 775 -1147 
L 775 -588 
Q 1028 -725 1275 -790 
Q 1522 -856 1778 -856 
Q 2344 -856 2625 -561 
Q 2906 -266 2906 331 
L 2906 616 
Q 2728 306 2450 153 
Q 2172 0 1784 0 
Q 1141 0 747 490 
Q 353 981 353 1791 
Q 353 2603 747 3093 
Q 1141 3584 1784 3584 
Q 2172 3584 2450 3431 
Q 2728 3278 2906 2969 
L 2906 3500 
L 3481 3500 
L 3481 434 
z
" transform="scale(0.015625)"/>
       <path id="DejaVuSans-6b" d="M 581 4863 
L 1159 4863 
L 1159 1991 
L 2875 3500 
L 3609 3500 
L 1753 1863 
L 3688 0 
L 2938 0 
L 1159 1709 
L 1159 0 
L 581 0 
L 581 4863 
z
" transform="scale(0.015625)"/>
       <path id="DejaVuSans-68" d="M 3513 2113 
L 3513 0 
L 2938 0 
L 2938 2094 
Q 2938 2591 2744 2837 
Q 2550 3084 2163 3084 
Q 1697 3084 1428 2787 
Q 1159 2491 1159 1978 
L 1159 0 
L 581 0 
L 581 4863 
L 1159 4863 
L 1159 2956 
Q 1366 3272 1645 3428 
Q 1925 3584 2291 3584 
Q 2894 3584 3203 3211 
Q 3513 2838 3513 2113 
z
" transform="scale(0.015625)"/>
      </defs>
      <use xlink:href="#DejaVuSans-6c"/>
      <use xlink:href="#DejaVuSans-6f" x="27.783203"/>
      <use xlink:href="#DejaVuSans-67" x="88.964844"/>
      <use xlink:href="#DejaVuSans-20" x="152.441406"/>
      <use xlink:href="#DejaVuSans-6c" x="184.228516"/>
      <use xlink:href="#DejaVuSans-69" x="212.011719"/>
      <use xlink:href="#DejaVuSans-6b" x="239.794922"/>
      <use xlink:href="#DejaVuSans-65" x="294.080078"/>
      <use xlink:href="#DejaVuSans-6c" x="355.603516"/>
      <use xlink:href="#DejaVuSans-69" x="383.386719"/>
      <use xlink:href="#DejaVuSans-68" x="411.169922"/>
      <use xlink:href="#DejaVuSans-6f" x="474.548828"/>
      <use xlink:href="#DejaVuSans-6f" x="535.730469"/>
      <use xlink:href="#DejaVuSans-64" x="596.912109"/>
     </g>
    </g>
    <g id="text_22">
     <!-- $\times\mathdefault{10^{3}}\mathdefault{}$ -->
     <g transform="translate(208.036 22.92) scale(0.1 -0.1)">
      <defs>
       <path id="DejaVuSans-d7" d="M 4488 3438 
L 3059 2003 
L 4488 575 
L 4116 197 
L 2681 1631 
L 1247 197 
L 878 575 
L 2303 2003 
L 878 3438 
L 1247 3816 
L 2681 2381 
L 4116 3816 
L 4488 3438 
z
" transform="scale(0.015625)"/>
      </defs>
      <use xlink:href="#DejaVuSans-d7" transform="translate(0 0.765625)"/>
      <use xlink:href="#DejaVuSans-31" transform="translate(83.789062 0.765625)"/>
      <use xlink:href="#DejaVuSans-30" transform="translate(147.412109 0.765625)"/>
      <use xlink:href="#DejaVuSans-33" transform="translate(211.992188 39.046875) scale(0.7)"/>
     </g>
    </g>
   </g>
   <g id="LineCollection_1"/>
   <g id="patch_8">
    <path d="M 225.72 192.24 
L 229.878 192.24 
L 234.036 192.24 
L 234.036 25.92 
L 229.878 25.92 
L 225.72 25.92 
L 225.72 192.24 
z
" style="fill: none; stroke: #000000; stroke-width: 0.8; stroke-linejoin: miter; stroke-linecap: square"/>
   </g>
  </g>
 </g>
 <defs>
  <clipPath id="p3e27d03125">
   <rect x="36" y="25.92" width="178.56" height="166.32"/>
  </clipPath>
  <clipPath id="pfad9459da4">
   <rect x="225.72" y="25.92" width="8.316" height="166.32"/>
  </clipPath>
 </defs>
</svg>
