<?xml version="1.0" encoding="utf-8" standalone="no"?>
<!DOCTYPE svg PUBLIC "-//W3C//DTD SVG 1.1//EN"
  "http://www.w3.org/Graphics/SVG/1.1/DTD/svg11.dtd">
<svg xmlns:xlink="http://www.w3.org/1999/xlink" width="288pt" height="216pt" viewBox="0 0 288 216" xmlns="http://www.w3.org/2000/svg" version="1.1">
 <metadata>
  <rdf:RDF xmlns:dc="http://purl.org/dc/elements/1.1/" xmlns:cc="http://creativecommons.org/ns#" xmlns:rdf="http://www.w3.org/1999/02/22-rdf-syntax-ns#">
   <cc:Work>
    <dc:type rdf:resource="http://purl.org/dc/dcmitype/StillImage"/>
    <dc:date>2023-07-18T20:46:57.782592</dc:date>
    <dc:format>image/svg+xml</dc:format>
    <dc:creator>
     <cc:Agent>
      <dc:title>Matplotlib v3.7.1, https://matplotlib.org/</dc:title>
     </cc:Agent>
    </dc:creator>
   </cc:Work>
  </rdf:RDF>
 </metadata>
 <defs>
  <style type="text/css">*{stroke-linejoin: round; stroke-linecap: butt}</style>
 </defs>
 <g id="figure_1">
  <g id="patch_1">
   <path d="M 0 216 
L 288 216 
L 288 0 
L 0 0 
z
" style="fill: #ffffff"/>
  </g>
  <g id="axes_1">
   <g id="patch_2">
    <path d="M 36 192.24 
L 214.56 192.24 
L 214.56 25.92 
L 36 25.92 
z
" style="fill: #ffffff"/>
   </g>
   <g id="PathCollection_1">
    <path d="M 36 186.696 
L 36 181.152 
L 36 175.608 
L 36 170.064 
L 36 164.52 
L 36 158.976 
L 36 153.432 
L 36 147.888 
L 36 142.344 
L 36 136.8 
L 36 131.256 
L 36 125.712 
L 36 120.168 
L 36 114.624 
L 36 109.08 
L 36 103.536 
L 36 97.992 
L 36 92.448 
L 36 86.904 
L 36 81.36 
L 36 75.816 
L 36 70.272 
L 36 64.728 
L 36 59.184 
L 36 53.64 
L 36 48.096 
L 36 42.552 
L 36 37.008 
L 36 31.464 
L 36 25.92 
L 41.952 25.92 
L 47.904 25.92 
L 51.758056 25.92 
L 51.758056 31.464 
L 51.758056 37.008 
L 51.758056 42.552 
L 51.758056 48.096 
L 51.758056 53.64 
L 51.758056 59.184 
L 51.758056 64.728 
L 51.758056 70.272 
L 51.758056 75.816 
L 51.758056 81.36 
L 51.758056 86.904 
L 51.758056 92.448 
L 51.758056 97.992 
L 51.758056 103.536 
L 51.758056 109.08 
L 51.758056 114.624 
L 51.758056 120.168 
L 51.758056 125.712 
L 51.758056 131.256 
L 51.758056 136.8 
L 51.758056 142.344 
L 51.758056 147.888 
L 51.758056 153.432 
L 51.758056 158.976 
L 51.758056 164.52 
L 51.758056 170.064 
L 51.758056 175.608 
L 51.758056 181.152 
L 51.758056 186.696 
L 51.758056 192.24 
L 47.904 192.24 
L 41.952 192.24 
L 36 192.24 
z
" clip-path="url(#p1b811616f4)" style="fill: #440154"/>
   </g>
   <g id="PathCollection_2">
    <path d="M 51.758056 186.696 
L 51.758056 181.152 
L 51.758056 175.608 
L 51.758056 170.064 
L 51.758056 164.52 
L 51.758056 158.976 
L 51.758056 153.432 
L 51.758056 147.888 
L 51.758056 142.344 
L 51.758056 136.8 
L 51.758056 131.256 
L 51.758056 125.712 
L 51.758056 120.168 
L 51.758056 114.624 
L 51.758056 109.08 
L 51.758056 103.536 
L 51.758056 97.992 
L 51.758056 92.448 
L 51.758056 86.904 
L 51.758056 81.36 
L 51.758056 75.816 
L 51.758056 70.272 
L 51.758056 64.728 
L 51.758056 59.184 
L 51.758056 53.64 
L 51.758056 48.096 
L 51.758056 42.552 
L 51.758056 37.008 
L 51.758056 31.464 
L 51.758056 25.92 
L 53.856 25.92 
L 55.181177 25.92 
L 55.181177 31.464 
L 55.181177 37.008 
L 55.181177 42.552 
L 55.181177 48.096 
L 55.181177 53.64 
L 55.181177 59.184 
L 55.181177 64.728 
L 55.181177 70.272 
L 55.181177 75.816 
L 55.181177 81.36 
L 55.181177 86.904 
L 55.181177 92.448 
L 55.181177 97.992 
L 55.181177 103.536 
L 55.181177 109.08 
L 55.181177 114.624 
L 55.181177 120.168 
L 55.181177 125.712 
L 55.181177 131.256 
L 55.181177 136.8 
L 55.181177 142.344 
L 55.181177 147.888 
L 55.181177 153.432 
L 55.181177 158.976 
L 55.181177 164.52 
L 55.181177 170.064 
L 55.181177 175.608 
L 55.181177 181.152 
L 55.181177 186.696 
L 55.181177 192.24 
L 53.856 192.24 
L 51.758056 192.24 
z
" clip-path="url(#p1b811616f4)" style="fill: #481c6e"/>
   </g>
   <g id="PathCollection_3">
    <path d="M 55.181177 186.696 
L 55.181177 181.152 
L 55.181177 175.608 
L 55.181177 170.064 
L 55.181177 164.52 
L 55.181177 158.976 
L 55.181177 153.432 
L 55.181177 147.888 
L 55.181177 142.344 
L 55.181177 136.8 
L 55.181177 131.256 
L 55.181177 125.712 
L 55.181177 120.168 
L 55.181177 114.624 
L 55.181177 109.08 
L 55.181177 103.536 
L 55.181177 97.992 
L 55.181177 92.448 
L 55.181177 86.904 
L 55.181177 81.36 
L 55.181177 75.816 
L 55.181177 70.272 
L 55.181177 64.728 
L 55.181177 59.184 
L 55.181177 53.64 
L 55.181177 48.096 
L 55.181177 42.552 
L 55.181177 37.008 
L 55.181177 31.464 
L 55.181177 25.92 
L 56.855799 25.92 
L 56.855799 31.464 
L 56.855799 37.008 
L 56.855799 42.552 
L 56.855799 48.096 
L 56.855799 53.64 
L 56.855799 59.184 
L 56.855799 64.728 
L 56.855799 70.272 
L 56.855799 75.816 
L 56.855799 81.36 
L 56.855799 86.904 
L 56.855799 92.448 
L 56.855799 97.992 
L 56.855799 103.536 
L 56.855799 109.08 
L 56.855799 114.624 
L 56.855799 120.168 
L 56.855799 125.712 
L 56.855799 131.256 
L 56.855799 136.8 
L 56.855799 142.344 
L 56.855799 147.888 
L 56.855799 153.432 
L 56.855799 158.976 
L 56.855799 164.52 
L 56.855799 170.064 
L 56.855799 175.608 
L 56.855799 181.152 
L 56.855799 186.696 
L 56.855799 192.24 
L 55.181177 192.24 
z
" clip-path="url(#p1b811616f4)" style="fill: #443983"/>
   </g>
   <g id="PathCollection_4">
    <path d="M 56.855799 186.696 
L 56.855799 181.152 
L 56.855799 175.608 
L 56.855799 170.064 
L 56.855799 164.52 
L 56.855799 158.976 
L 56.855799 153.432 
L 56.855799 147.888 
L 56.855799 142.344 
L 56.855799 136.8 
L 56.855799 131.256 
L 56.855799 125.712 
L 56.855799 120.168 
L 56.855799 114.624 
L 56.855799 109.08 
L 56.855799 103.536 
L 56.855799 97.992 
L 56.855799 92.448 
L 56.855799 86.904 
L 56.855799 81.36 
L 56.855799 75.816 
L 56.855799 70.272 
L 56.855799 64.728 
L 56.855799 59.184 
L 56.855799 53.64 
L 56.855799 48.096 
L 56.855799 42.552 
L 56.855799 37.008 
L 56.855799 31.464 
L 56.855799 25.92 
L 58.530422 25.92 
L 58.530422 31.464 
L 58.530422 37.008 
L 58.530422 42.552 
L 58.530422 48.096 
L 58.530422 53.64 
L 58.530422 59.184 
L 58.530422 64.728 
L 58.530422 70.272 
L 58.530422 75.816 
L 58.530422 81.36 
L 58.530422 86.904 
L 58.530422 92.448 
L 58.530422 97.992 
L 58.530422 103.536 
L 58.530422 109.08 
L 58.530422 114.624 
L 58.530422 120.168 
L 58.530422 125.712 
L 58.530422 131.256 
L 58.530422 136.8 
L 58.530422 142.344 
L 58.530422 147.888 
L 58.530422 153.432 
L 58.530422 158.976 
L 58.530422 164.52 
L 58.530422 170.064 
L 58.530422 175.608 
L 58.530422 181.152 
L 58.530422 186.696 
L 58.530422 192.24 
L 56.855799 192.24 
z
" clip-path="url(#p1b811616f4)" style="fill: #3b528b"/>
   </g>
   <g id="PathCollection_5">
    <path d="M 58.530422 186.696 
L 58.530422 181.152 
L 58.530422 175.608 
L 58.530422 170.064 
L 58.530422 164.52 
L 58.530422 158.976 
L 58.530422 153.432 
L 58.530422 147.888 
L 58.530422 142.344 
L 58.530422 136.8 
L 58.530422 131.256 
L 58.530422 125.712 
L 58.530422 120.168 
L 58.530422 114.624 
L 58.530422 109.08 
L 58.530422 103.536 
L 58.530422 97.992 
L 58.530422 92.448 
L 58.530422 86.904 
L 58.530422 81.36 
L 58.530422 75.816 
L 58.530422 70.272 
L 58.530422 64.728 
L 58.530422 59.184 
L 58.530422 53.64 
L 58.530422 48.096 
L 58.530422 42.552 
L 58.530422 37.008 
L 58.530422 31.464 
L 58.530422 25.92 
L 59.808 25.92 
L 60.432684 25.92 
L 60.432684 31.464 
L 60.432684 37.008 
L 60.432684 42.552 
L 60.432684 48.096 
L 60.432684 53.64 
L 60.432684 59.184 
L 60.432684 64.728 
L 60.432684 70.272 
L 60.432684 75.816 
L 60.432684 81.36 
L 60.432684 86.904 
L 60.432684 92.448 
L 60.432684 97.992 
L 60.432684 103.536 
L 60.432684 109.08 
L 60.432684 114.624 
L 60.432684 120.168 
L 60.432684 125.712 
L 60.432684 131.256 
L 60.432684 136.8 
L 60.432684 142.344 
L 60.432684 147.888 
L 60.432684 153.432 
L 60.432684 158.976 
L 60.432684 164.52 
L 60.432684 170.064 
L 60.432684 175.608 
L 60.432684 181.152 
L 60.432684 186.696 
L 60.432684 192.24 
L 59.808 192.24 
L 58.530422 192.24 
z
" clip-path="url(#p1b811616f4)" style="fill: #306a8e"/>
   </g>
   <g id="PathCollection_6">
    <path d="M 60.432684 186.696 
L 60.432684 181.152 
L 60.432684 175.608 
L 60.432684 170.064 
L 60.432684 164.52 
L 60.432684 158.976 
L 60.432684 153.432 
L 60.432684 147.888 
L 60.432684 142.344 
L 60.432684 136.8 
L 60.432684 131.256 
L 60.432684 125.712 
L 60.432684 120.168 
L 60.432684 114.624 
L 60.432684 109.08 
L 60.432684 103.536 
L 60.432684 97.992 
L 60.432684 92.448 
L 60.432684 86.904 
L 60.432684 81.36 
L 60.432684 75.816 
L 60.432684 70.272 
L 60.432684 64.728 
L 60.432684 59.184 
L 60.432684 53.64 
L 60.432684 48.096 
L 60.432684 42.552 
L 60.432684 37.008 
L 60.432684 31.464 
L 60.432684 25.92 
L 63.067427 25.92 
L 63.067427 31.464 
L 63.067427 37.008 
L 63.067427 42.552 
L 63.067427 48.096 
L 63.067427 53.64 
L 63.067427 59.184 
L 63.067427 64.728 
L 63.067427 70.272 
L 63.067427 75.816 
L 63.067427 81.36 
L 63.067427 86.904 
L 63.067427 92.448 
L 63.067427 97.992 
L 63.067427 103.536 
L 63.067427 109.08 
L 63.067427 114.624 
L 63.067427 120.168 
L 63.067427 125.712 
L 63.067427 131.256 
L 63.067427 136.8 
L 63.067427 142.344 
L 63.067427 147.888 
L 63.067427 153.432 
L 63.067427 158.976 
L 63.067427 164.52 
L 63.067427 170.064 
L 63.067427 175.608 
L 63.067427 181.152 
L 63.067427 186.696 
L 63.067427 192.24 
L 60.432684 192.24 
z
" clip-path="url(#p1b811616f4)" style="fill: #277f8e"/>
   </g>
   <g id="PathCollection_7">
    <path d="M 63.067427 186.696 
L 63.067427 181.152 
L 63.067427 175.608 
L 63.067427 170.064 
L 63.067427 164.52 
L 63.067427 158.976 
L 63.067427 153.432 
L 63.067427 147.888 
L 63.067427 142.344 
L 63.067427 136.8 
L 63.067427 131.256 
L 63.067427 125.712 
L 63.067427 120.168 
L 63.067427 114.624 
L 63.067427 109.08 
L 63.067427 103.536 
L 63.067427 97.992 
L 63.067427 92.448 
L 63.067427 86.904 
L 63.067427 81.36 
L 63.067427 75.816 
L 63.067427 70.272 
L 63.067427 64.728 
L 63.067427 59.184 
L 63.067427 53.64 
L 63.067427 48.096 
L 63.067427 42.552 
L 63.067427 37.008 
L 63.067427 31.464 
L 63.067427 25.92 
L 65.70217 25.92 
L 65.70217 31.464 
L 65.70217 37.008 
L 65.70217 42.552 
L 65.70217 48.096 
L 65.70217 53.64 
L 65.70217 59.184 
L 65.70217 64.728 
L 65.70217 70.272 
L 65.70217 75.816 
L 65.70217 81.36 
L 65.70217 86.904 
L 65.70217 92.448 
L 65.70217 97.992 
L 65.70217 103.536 
L 65.70217 109.08 
L 65.70217 114.624 
L 65.70217 120.168 
L 65.70217 125.712 
L 65.70217 131.256 
L 65.70217 136.8 
L 65.70217 142.344 
L 65.70217 147.888 
L 65.70217 153.432 
L 65.70217 158.976 
L 65.70217 164.52 
L 65.70217 170.064 
L 65.70217 175.608 
L 65.70217 181.152 
L 65.70217 186.696 
L 65.70217 192.24 
L 63.067427 192.24 
z
" clip-path="url(#p1b811616f4)" style="fill: #1f948c"/>
   </g>
   <g id="PathCollection_8">
    <path d="M 65.70217 186.696 
L 65.70217 181.152 
L 65.70217 175.608 
L 65.70217 170.064 
L 65.70217 164.52 
L 65.70217 158.976 
L 65.70217 153.432 
L 65.70217 147.888 
L 65.70217 142.344 
L 65.70217 136.8 
L 65.70217 131.256 
L 65.70217 125.712 
L 65.70217 120.168 
L 65.70217 114.624 
L 65.70217 109.08 
L 65.70217 103.536 
L 65.70217 97.992 
L 65.70217 92.448 
L 65.70217 86.904 
L 65.70217 81.36 
L 65.70217 75.816 
L 65.70217 70.272 
L 65.70217 64.728 
L 65.70217 59.184 
L 65.70217 53.64 
L 65.70217 48.096 
L 65.70217 42.552 
L 65.70217 37.008 
L 65.70217 31.464 
L 65.70217 25.92 
L 65.76 25.92 
L 69.638904 25.92 
L 69.638904 31.464 
L 69.638904 37.008 
L 69.638904 42.552 
L 69.638904 48.096 
L 69.638904 53.64 
L 69.638904 59.184 
L 69.638904 64.728 
L 69.638904 70.272 
L 69.638904 75.816 
L 69.638904 81.36 
L 69.638904 86.904 
L 69.638904 92.448 
L 69.638904 97.992 
L 69.638904 103.536 
L 69.638904 109.08 
L 69.638904 114.624 
L 69.638904 120.168 
L 69.638904 125.712 
L 69.638904 131.256 
L 69.638904 136.8 
L 69.638904 142.344 
L 69.638904 147.888 
L 69.638904 153.432 
L 69.638904 158.976 
L 69.638904 164.52 
L 69.638904 170.064 
L 69.638904 175.608 
L 69.638904 181.152 
L 69.638904 186.696 
L 69.638904 192.24 
L 65.76 192.24 
L 65.70217 192.24 
z
" clip-path="url(#p1b811616f4)" style="fill: #23a983"/>
   </g>
   <g id="PathCollection_9">
    <path d="M 69.638904 186.696 
L 69.638904 181.152 
L 69.638904 175.608 
L 69.638904 170.064 
L 69.638904 164.52 
L 69.638904 158.976 
L 69.638904 153.432 
L 69.638904 147.888 
L 69.638904 142.344 
L 69.638904 136.8 
L 69.638904 131.256 
L 69.638904 125.712 
L 69.638904 120.168 
L 69.638904 114.624 
L 69.638904 109.08 
L 69.638904 103.536 
L 69.638904 97.992 
L 69.638904 92.448 
L 69.638904 86.904 
L 69.638904 81.36 
L 69.638904 75.816 
L 69.638904 70.272 
L 69.638904 64.728 
L 69.638904 59.184 
L 69.638904 53.64 
L 69.638904 48.096 
L 69.638904 42.552 
L 69.638904 37.008 
L 69.638904 31.464 
L 69.638904 25.92 
L 71.712 25.92 
L 74.484553 25.92 
L 74.484553 31.464 
L 74.484553 37.008 
L 74.484553 42.552 
L 74.484553 48.096 
L 74.484553 53.64 
L 74.484553 59.184 
L 74.484553 64.728 
L 74.484553 70.272 
L 74.484553 75.816 
L 74.484553 81.36 
L 74.484553 86.904 
L 74.484553 92.448 
L 74.484553 97.992 
L 74.484553 103.536 
L 74.484553 109.08 
L 74.484553 114.624 
L 74.484553 120.168 
L 74.484553 125.712 
L 74.484553 131.256 
L 74.484553 136.8 
L 74.484553 142.344 
L 74.484553 147.888 
L 74.484553 153.432 
L 74.484553 158.976 
L 74.484553 164.52 
L 74.484553 170.064 
L 74.484553 175.608 
L 74.484553 181.152 
L 74.484553 186.696 
L 74.484553 192.24 
L 71.712 192.24 
L 69.638904 192.24 
z
" clip-path="url(#p1b811616f4)" style="fill: #40bd72"/>
   </g>
   <g id="PathCollection_10">
    <path d="M 74.484553 186.696 
L 74.484553 181.152 
L 74.484553 175.608 
L 74.484553 170.064 
L 74.484553 164.52 
L 74.484553 158.976 
L 74.484553 153.432 
L 74.484553 147.888 
L 74.484553 142.344 
L 74.484553 136.8 
L 74.484553 131.256 
L 74.484553 125.712 
L 74.484553 120.168 
L 74.484553 114.624 
L 74.484553 109.08 
L 74.484553 103.536 
L 74.484553 97.992 
L 74.484553 92.448 
L 74.484553 86.904 
L 74.484553 81.36 
L 74.484553 75.816 
L 74.484553 70.272 
L 74.484553 64.728 
L 74.484553 59.184 
L 74.484553 53.64 
L 74.484553 48.096 
L 74.484553 42.552 
L 74.484553 37.008 
L 74.484553 31.464 
L 74.484553 25.92 
L 77.664 25.92 
L 81.46048 25.92 
L 81.46048 31.464 
L 81.46048 37.008 
L 81.46048 42.552 
L 81.46048 48.096 
L 81.46048 53.64 
L 81.46048 59.184 
L 81.46048 64.728 
L 81.46048 70.272 
L 81.46048 75.816 
L 81.46048 81.36 
L 81.46048 86.904 
L 81.46048 92.448 
L 81.46048 97.992 
L 81.46048 103.536 
L 81.46048 109.08 
L 81.46048 114.624 
L 81.46048 120.168 
L 81.46048 125.712 
L 81.46048 131.256 
L 81.46048 136.8 
L 81.46048 142.344 
L 81.46048 147.888 
L 81.46048 153.432 
L 81.46048 158.976 
L 81.46048 164.52 
L 81.46048 170.064 
L 81.46048 175.608 
L 81.46048 181.152 
L 81.46048 186.696 
L 81.46048 192.24 
L 77.664 192.24 
L 74.484553 192.24 
z
" clip-path="url(#p1b811616f4)" style="fill: #6ece58"/>
    <path d="M 213.602301 186.696 
L 213.602301 181.152 
L 213.602301 175.608 
L 213.602301 170.064 
L 213.602301 164.52 
L 213.602301 158.976 
L 213.602301 153.432 
L 213.602301 147.888 
L 213.602301 142.344 
L 213.602301 136.8 
L 213.602301 131.256 
L 213.602301 125.712 
L 213.602301 120.168 
L 213.602301 114.624 
L 213.602301 109.08 
L 213.602301 103.536 
L 213.602301 97.992 
L 213.602301 92.448 
L 213.602301 86.904 
L 213.602301 81.36 
L 213.602301 75.816 
L 213.602301 70.272 
L 213.602301 64.728 
L 213.602301 59.184 
L 213.602301 53.64 
L 213.602301 48.096 
L 213.602301 42.552 
L 213.602301 37.008 
L 213.602301 31.464 
L 213.602301 25.92 
L 214.56 25.92 
L 214.56 31.464 
L 214.56 37.008 
L 214.56 42.552 
L 214.56 48.096 
L 214.56 53.64 
L 214.56 59.184 
L 214.56 64.728 
L 214.56 70.272 
L 214.56 75.816 
L 214.56 81.36 
L 214.56 86.904 
L 214.56 92.448 
L 214.56 97.992 
L 214.56 103.536 
L 214.56 109.08 
L 214.56 114.624 
L 214.56 120.168 
L 214.56 125.712 
L 214.56 131.256 
L 214.56 136.8 
L 214.56 142.344 
L 214.56 147.888 
L 214.56 153.432 
L 214.56 158.976 
L 214.56 164.52 
L 214.56 170.064 
L 214.56 175.608 
L 214.56 181.152 
L 214.56 186.696 
L 214.56 192.24 
L 213.602301 192.24 
z
" clip-path="url(#p1b811616f4)" style="fill: #6ece58"/>
   </g>
   <g id="PathCollection_11">
    <path d="M 81.46048 186.696 
L 81.46048 181.152 
L 81.46048 175.608 
L 81.46048 170.064 
L 81.46048 164.52 
L 81.46048 158.976 
L 81.46048 153.432 
L 81.46048 147.888 
L 81.46048 142.344 
L 81.46048 136.8 
L 81.46048 131.256 
L 81.46048 125.712 
L 81.46048 120.168 
L 81.46048 114.624 
L 81.46048 109.08 
L 81.46048 103.536 
L 81.46048 97.992 
L 81.46048 92.448 
L 81.46048 86.904 
L 81.46048 81.36 
L 81.46048 75.816 
L 81.46048 70.272 
L 81.46048 64.728 
L 81.46048 59.184 
L 81.46048 53.64 
L 81.46048 48.096 
L 81.46048 42.552 
L 81.46048 37.008 
L 81.46048 31.464 
L 81.46048 25.92 
L 83.616 25.92 
L 89.568 25.92 
L 93.952514 25.92 
L 93.952514 31.464 
L 93.952514 37.008 
L 93.952514 42.552 
L 93.952514 48.096 
L 93.952514 53.64 
L 93.952514 59.184 
L 93.952514 64.728 
L 93.952514 70.272 
L 93.952514 75.816 
L 93.952514 81.36 
L 93.952514 86.904 
L 93.952514 92.448 
L 93.952514 97.992 
L 93.952514 103.536 
L 93.952514 109.08 
L 93.952514 114.624 
L 93.952514 120.168 
L 93.952514 125.712 
L 93.952514 131.256 
L 93.952514 136.8 
L 93.952514 142.344 
L 93.952514 147.888 
L 93.952514 153.432 
L 93.952514 158.976 
L 93.952514 164.52 
L 93.952514 170.064 
L 93.952514 175.608 
L 93.952514 181.152 
L 93.952514 186.696 
L 93.952514 192.24 
L 89.568 192.24 
L 83.616 192.24 
L 81.46048 192.24 
z
" clip-path="url(#p1b811616f4)" style="fill: #a8db34"/>
    <path d="M 167.383075 186.696 
L 167.383075 181.152 
L 167.383075 175.608 
L 167.383075 170.064 
L 167.383075 164.52 
L 167.383075 158.976 
L 167.383075 153.432 
L 167.383075 147.888 
L 167.383075 142.344 
L 167.383075 136.8 
L 167.383075 131.256 
L 167.383075 125.712 
L 167.383075 120.168 
L 167.383075 114.624 
L 167.383075 109.08 
L 167.383075 103.536 
L 167.383075 97.992 
L 167.383075 92.448 
L 167.383075 86.904 
L 167.383075 81.36 
L 167.383075 75.816 
L 167.383075 70.272 
L 167.383075 64.728 
L 167.383075 59.184 
L 167.383075 53.64 
L 167.383075 48.096 
L 167.383075 42.552 
L 167.383075 37.008 
L 167.383075 31.464 
L 167.383075 25.92 
L 172.896 25.92 
L 178.848 25.92 
L 184.8 25.92 
L 190.752 25.92 
L 196.704 25.92 
L 202.656 25.92 
L 208.608 25.92 
L 213.602301 25.92 
L 213.602301 31.464 
L 213.602301 37.008 
L 213.602301 42.552 
L 213.602301 48.096 
L 213.602301 53.64 
L 213.602301 59.184 
L 213.602301 64.728 
L 213.602301 70.272 
L 213.602301 75.816 
L 213.602301 81.36 
L 213.602301 86.904 
L 213.602301 92.448 
L 213.602301 97.992 
L 213.602301 103.536 
L 213.602301 109.08 
L 213.602301 114.624 
L 213.602301 120.168 
L 213.602301 125.712 
L 213.602301 131.256 
L 213.602301 136.8 
L 213.602301 142.344 
L 213.602301 147.888 
L 213.602301 153.432 
L 213.602301 158.976 
L 213.602301 164.52 
L 213.602301 170.064 
L 213.602301 175.608 
L 213.602301 181.152 
L 213.602301 186.696 
L 213.602301 192.24 
L 208.608 192.24 
L 202.656 192.24 
L 196.704 192.24 
L 190.752 192.24 
L 184.8 192.24 
L 178.848 192.24 
L 172.896 192.24 
L 167.383075 192.24 
z
" clip-path="url(#p1b811616f4)" style="fill: #a8db34"/>
   </g>
   <g id="PathCollection_12">
    <path d="M 93.952514 186.696 
L 93.952514 181.152 
L 93.952514 175.608 
L 93.952514 170.064 
L 93.952514 164.52 
L 93.952514 158.976 
L 93.952514 153.432 
L 93.952514 147.888 
L 93.952514 142.344 
L 93.952514 136.8 
L 93.952514 131.256 
L 93.952514 125.712 
L 93.952514 120.168 
L 93.952514 114.624 
L 93.952514 109.08 
L 93.952514 103.536 
L 93.952514 97.992 
L 93.952514 92.448 
L 93.952514 86.904 
L 93.952514 81.36 
L 93.952514 75.816 
L 93.952514 70.272 
L 93.952514 64.728 
L 93.952514 59.184 
L 93.952514 53.64 
L 93.952514 48.096 
L 93.952514 42.552 
L 93.952514 37.008 
L 93.952514 31.464 
L 93.952514 25.92 
L 95.52 25.92 
L 101.472 25.92 
L 107.424 25.92 
L 113.376 25.92 
L 119.328 25.92 
L 125.28 25.92 
L 131.232 25.92 
L 137.184 25.92 
L 143.136 25.92 
L 149.088 25.92 
L 155.04 25.92 
L 160.992 25.92 
L 166.944 25.92 
L 167.383075 25.92 
L 167.383075 31.464 
L 167.383075 37.008 
L 167.383075 42.552 
L 167.383075 48.096 
L 167.383075 53.64 
L 167.383075 59.184 
L 167.383075 64.728 
L 167.383075 70.272 
L 167.383075 75.816 
L 167.383075 81.36 
L 167.383075 86.904 
L 167.383075 92.448 
L 167.383075 97.992 
L 167.383075 103.536 
L 167.383075 109.08 
L 167.383075 114.624 
L 167.383075 120.168 
L 167.383075 125.712 
L 167.383075 131.256 
L 167.383075 136.8 
L 167.383075 142.344 
L 167.383075 147.888 
L 167.383075 153.432 
L 167.383075 158.976 
L 167.383075 164.52 
L 167.383075 170.064 
L 167.383075 175.608 
L 167.383075 181.152 
L 167.383075 186.696 
L 167.383075 192.24 
L 166.944 192.24 
L 160.992 192.24 
L 155.04 192.24 
L 149.088 192.24 
L 143.136 192.24 
L 137.184 192.24 
L 131.232 192.24 
L 125.28 192.24 
L 119.328 192.24 
L 113.376 192.24 
L 107.424 192.24 
L 101.472 192.24 
L 95.52 192.24 
L 93.952514 192.24 
z
" clip-path="url(#p1b811616f4)" style="fill: #e2e418"/>
   </g>
   <g id="PathCollection_13">
    <defs>
     <path id="m7ba1bffd33" d="M -4.330127 4.330127 
L 4.330127 -4.330127 
M -4.330127 -4.330127 
L 4.330127 4.330127 
" style="stroke: #000000; stroke-width: 2"/>
    </defs>
    <g clip-path="url(#p1b811616f4)">
     <use xlink:href="#m7ba1bffd33" x="105.44" y="109.08" style="stroke: #000000; stroke-width: 2"/>
    </g>
   </g>
   <g id="matplotlib.axis_1">
    <g id="xtick_1">
     <g id="line2d_1">
      <defs>
       <path id="m4ccb2ffeff" d="M 0 0 
L 0 3.5 
" style="stroke: #000000; stroke-width: 0.8"/>
      </defs>
      <g>
       <use xlink:href="#m4ccb2ffeff" x="75.68" y="192.24" style="stroke: #000000; stroke-width: 0.8"/>
      </g>
     </g>
     <g id="text_1">
      <!-- 250 -->
      <g transform="translate(64.2275 208.358125) scale(0.12 -0.12)">
       <defs>
        <path id="DejaVuSans-32" d="M 1228 531 
L 3431 531 
L 3431 0 
L 469 0 
L 469 531 
Q 828 903 1448 1529 
Q 2069 2156 2228 2338 
Q 2531 2678 2651 2914 
Q 2772 3150 2772 3378 
Q 2772 3750 2511 3984 
Q 2250 4219 1831 4219 
Q 1534 4219 1204 4116 
Q 875 4013 500 3803 
L 500 4441 
Q 881 4594 1212 4672 
Q 1544 4750 1819 4750 
Q 2544 4750 2975 4387 
Q 3406 4025 3406 3419 
Q 3406 3131 3298 2873 
Q 3191 2616 2906 2266 
Q 2828 2175 2409 1742 
Q 1991 1309 1228 531 
z
" transform="scale(0.015625)"/>
        <path id="DejaVuSans-35" d="M 691 4666 
L 3169 4666 
L 3169 4134 
L 1269 4134 
L 1269 2991 
Q 1406 3038 1543 3061 
Q 1681 3084 1819 3084 
Q 2600 3084 3056 2656 
Q 3513 2228 3513 1497 
Q 3513 744 3044 326 
Q 2575 -91 1722 -91 
Q 1428 -91 1123 -41 
Q 819 9 494 109 
L 494 744 
Q 775 591 1075 516 
Q 1375 441 1709 441 
Q 2250 441 2565 725 
Q 2881 1009 2881 1497 
Q 2881 1984 2565 2268 
Q 2250 2553 1709 2553 
Q 1456 2553 1204 2497 
Q 953 2441 691 2322 
L 691 4666 
z
" transform="scale(0.015625)"/>
        <path id="DejaVuSans-30" d="M 2034 4250 
Q 1547 4250 1301 3770 
Q 1056 3291 1056 2328 
Q 1056 1369 1301 889 
Q 1547 409 2034 409 
Q 2525 409 2770 889 
Q 3016 1369 3016 2328 
Q 3016 3291 2770 3770 
Q 2525 4250 2034 4250 
z
M 2034 4750 
Q 2819 4750 3233 4129 
Q 3647 3509 3647 2328 
Q 3647 1150 3233 529 
Q 2819 -91 2034 -91 
Q 1250 -91 836 529 
Q 422 1150 422 2328 
Q 422 3509 836 4129 
Q 1250 4750 2034 4750 
z
" transform="scale(0.015625)"/>
       </defs>
       <use xlink:href="#DejaVuSans-32"/>
       <use xlink:href="#DejaVuSans-35" x="63.623047"/>
       <use xlink:href="#DejaVuSans-30" x="127.246094"/>
      </g>
     </g>
    </g>
    <g id="xtick_2">
     <g id="line2d_2">
      <g>
       <use xlink:href="#m4ccb2ffeff" x="125.28" y="192.24" style="stroke: #000000; stroke-width: 0.8"/>
      </g>
     </g>
     <g id="text_2">
      <!-- 500 -->
      <g transform="translate(113.8275 208.358125) scale(0.12 -0.12)">
       <use xlink:href="#DejaVuSans-35"/>
       <use xlink:href="#DejaVuSans-30" x="63.623047"/>
       <use xlink:href="#DejaVuSans-30" x="127.246094"/>
      </g>
     </g>
    </g>
    <g id="xtick_3">
     <g id="line2d_3">
      <g>
       <use xlink:href="#m4ccb2ffeff" x="174.88" y="192.24" style="stroke: #000000; stroke-width: 0.8"/>
      </g>
     </g>
     <g id="text_3">
      <!-- 750 -->
      <g transform="translate(163.4275 208.358125) scale(0.12 -0.12)">
       <defs>
        <path id="DejaVuSans-37" d="M 525 4666 
L 3525 4666 
L 3525 4397 
L 1831 0 
L 1172 0 
L 2766 4134 
L 525 4134 
L 525 4666 
z
" transform="scale(0.015625)"/>
       </defs>
       <use xlink:href="#DejaVuSans-37"/>
       <use xlink:href="#DejaVuSans-35" x="63.623047"/>
       <use xlink:href="#DejaVuSans-30" x="127.246094"/>
      </g>
     </g>
    </g>
    <g id="text_4">
     <!-- Diploid N$_e$2 -->
     <g transform="translate(80 227.01375) scale(0.16 -0.16)">
      <defs>
       <path id="DejaVuSans-44" d="M 1259 4147 
L 1259 519 
L 2022 519 
Q 2988 519 3436 956 
Q 3884 1394 3884 2338 
Q 3884 3275 3436 3711 
Q 2988 4147 2022 4147 
L 1259 4147 
z
M 628 4666 
L 1925 4666 
Q 3281 4666 3915 4102 
Q 4550 3538 4550 2338 
Q 4550 1131 3912 565 
Q 3275 0 1925 0 
L 628 0 
L 628 4666 
z
" transform="scale(0.015625)"/>
       <path id="DejaVuSans-69" d="M 603 3500 
L 1178 3500 
L 1178 0 
L 603 0 
L 603 3500 
z
M 603 4863 
L 1178 4863 
L 1178 4134 
L 603 4134 
L 603 4863 
z
" transform="scale(0.015625)"/>
       <path id="DejaVuSans-70" d="M 1159 525 
L 1159 -1331 
L 581 -1331 
L 581 3500 
L 1159 3500 
L 1159 2969 
Q 1341 3281 1617 3432 
Q 1894 3584 2278 3584 
Q 2916 3584 3314 3078 
Q 3713 2572 3713 1747 
Q 3713 922 3314 415 
Q 2916 -91 2278 -91 
Q 1894 -91 1617 61 
Q 1341 213 1159 525 
z
M 3116 1747 
Q 3116 2381 2855 2742 
Q 2594 3103 2138 3103 
Q 1681 3103 1420 2742 
Q 1159 2381 1159 1747 
Q 1159 1113 1420 752 
Q 1681 391 2138 391 
Q 2594 391 2855 752 
Q 3116 1113 3116 1747 
z
" transform="scale(0.015625)"/>
       <path id="DejaVuSans-6c" d="M 603 4863 
L 1178 4863 
L 1178 0 
L 603 0 
L 603 4863 
z
" transform="scale(0.015625)"/>
       <path id="DejaVuSans-6f" d="M 1959 3097 
Q 1497 3097 1228 2736 
Q 959 2375 959 1747 
Q 959 1119 1226 758 
Q 1494 397 1959 397 
Q 2419 397 2687 759 
Q 2956 1122 2956 1747 
Q 2956 2369 2687 2733 
Q 2419 3097 1959 3097 
z
M 1959 3584 
Q 2709 3584 3137 3096 
Q 3566 2609 3566 1747 
Q 3566 888 3137 398 
Q 2709 -91 1959 -91 
Q 1206 -91 779 398 
Q 353 888 353 1747 
Q 353 2609 779 3096 
Q 1206 3584 1959 3584 
z
" transform="scale(0.015625)"/>
       <path id="DejaVuSans-64" d="M 2906 2969 
L 2906 4863 
L 3481 4863 
L 3481 0 
L 2906 0 
L 2906 525 
Q 2725 213 2448 61 
Q 2172 -91 1784 -91 
Q 1150 -91 751 415 
Q 353 922 353 1747 
Q 353 2572 751 3078 
Q 1150 3584 1784 3584 
Q 2172 3584 2448 3432 
Q 2725 3281 2906 2969 
z
M 947 1747 
Q 947 1113 1208 752 
Q 1469 391 1925 391 
Q 2381 391 2643 752 
Q 2906 1113 2906 1747 
Q 2906 2381 2643 2742 
Q 2381 3103 1925 3103 
Q 1469 3103 1208 2742 
Q 947 2381 947 1747 
z
" transform="scale(0.015625)"/>
       <path id="DejaVuSans-20" transform="scale(0.015625)"/>
       <path id="DejaVuSans-4e" d="M 628 4666 
L 1478 4666 
L 3547 763 
L 3547 4666 
L 4159 4666 
L 4159 0 
L 3309 0 
L 1241 3903 
L 1241 0 
L 628 0 
L 628 4666 
z
" transform="scale(0.015625)"/>
       <path id="DejaVuSans-Oblique-65" d="M 3078 2063 
Q 3088 2113 3092 2166 
Q 3097 2219 3097 2272 
Q 3097 2653 2873 2875 
Q 2650 3097 2266 3097 
Q 1838 3097 1509 2826 
Q 1181 2556 1013 2059 
L 3078 2063 
z
M 3578 1613 
L 903 1613 
Q 884 1494 878 1425 
Q 872 1356 872 1306 
Q 872 872 1139 634 
Q 1406 397 1894 397 
Q 2269 397 2603 481 
Q 2938 566 3225 728 
L 3116 159 
Q 2806 34 2476 -28 
Q 2147 -91 1806 -91 
Q 1078 -91 686 257 
Q 294 606 294 1247 
Q 294 1794 489 2264 
Q 684 2734 1063 3103 
Q 1306 3334 1642 3459 
Q 1978 3584 2356 3584 
Q 2950 3584 3301 3228 
Q 3653 2872 3653 2272 
Q 3653 2128 3634 1964 
Q 3616 1800 3578 1613 
z
" transform="scale(0.015625)"/>
      </defs>
      <use xlink:href="#DejaVuSans-44" transform="translate(0 0.015625)"/>
      <use xlink:href="#DejaVuSans-69" transform="translate(77.001953 0.015625)"/>
      <use xlink:href="#DejaVuSans-70" transform="translate(104.785156 0.015625)"/>
      <use xlink:href="#DejaVuSans-6c" transform="translate(168.261719 0.015625)"/>
      <use xlink:href="#DejaVuSans-6f" transform="translate(196.044922 0.015625)"/>
      <use xlink:href="#DejaVuSans-69" transform="translate(257.226562 0.015625)"/>
      <use xlink:href="#DejaVuSans-64" transform="translate(285.009766 0.015625)"/>
      <use xlink:href="#DejaVuSans-20" transform="translate(348.486328 0.015625)"/>
      <use xlink:href="#DejaVuSans-4e" transform="translate(380.273438 0.015625)"/>
      <use xlink:href="#DejaVuSans-Oblique-65" transform="translate(456.035156 -16.390625) scale(0.7)"/>
      <use xlink:href="#DejaVuSans-32" transform="translate(501.835938 0.015625)"/>
     </g>
    </g>
    <g id="text_5">
     <!-- 1e3 -->
     <g transform="translate(195.681875 221.452188) scale(0.1 -0.1)">
      <defs>
       <path id="DejaVuSans-31" d="M 794 531 
L 1825 531 
L 1825 4091 
L 703 3866 
L 703 4441 
L 1819 4666 
L 2450 4666 
L 2450 531 
L 3481 531 
L 3481 0 
L 794 0 
L 794 531 
z
" transform="scale(0.015625)"/>
       <path id="DejaVuSans-65" d="M 3597 1894 
L 3597 1613 
L 953 1613 
Q 991 1019 1311 708 
Q 1631 397 2203 397 
Q 2534 397 2845 478 
Q 3156 559 3463 722 
L 3463 178 
Q 3153 47 2828 -22 
Q 2503 -91 2169 -91 
Q 1331 -91 842 396 
Q 353 884 353 1716 
Q 353 2575 817 3079 
Q 1281 3584 2069 3584 
Q 2775 3584 3186 3129 
Q 3597 2675 3597 1894 
z
M 3022 2063 
Q 3016 2534 2758 2815 
Q 2500 3097 2075 3097 
Q 1594 3097 1305 2825 
Q 1016 2553 972 2059 
L 3022 2063 
z
" transform="scale(0.015625)"/>
       <path id="DejaVuSans-33" d="M 2597 2516 
Q 3050 2419 3304 2112 
Q 3559 1806 3559 1356 
Q 3559 666 3084 287 
Q 2609 -91 1734 -91 
Q 1441 -91 1130 -33 
Q 819 25 488 141 
L 488 750 
Q 750 597 1062 519 
Q 1375 441 1716 441 
Q 2309 441 2620 675 
Q 2931 909 2931 1356 
Q 2931 1769 2642 2001 
Q 2353 2234 1838 2234 
L 1294 2234 
L 1294 2753 
L 1863 2753 
Q 2328 2753 2575 2939 
Q 2822 3125 2822 3475 
Q 2822 3834 2567 4026 
Q 2313 4219 1838 4219 
Q 1578 4219 1281 4162 
Q 984 4106 628 3988 
L 628 4550 
Q 988 4650 1302 4700 
Q 1616 4750 1894 4750 
Q 2613 4750 3031 4423 
Q 3450 4097 3450 3541 
Q 3450 3153 3228 2886 
Q 3006 2619 2597 2516 
z
" transform="scale(0.015625)"/>
      </defs>
      <use xlink:href="#DejaVuSans-31"/>
      <use xlink:href="#DejaVuSans-65" x="63.623047"/>
      <use xlink:href="#DejaVuSans-33" x="125.146484"/>
     </g>
    </g>
   </g>
   <g id="matplotlib.axis_2">
    <g id="ytick_1">
     <g id="line2d_4">
      <defs>
       <path id="maffa3500e4" d="M 0 0 
L -3.5 0 
" style="stroke: #000000; stroke-width: 0.8"/>
      </defs>
      <g>
       <use xlink:href="#maffa3500e4" x="36" y="192.24" style="stroke: #000000; stroke-width: 0.8"/>
      </g>
     </g>
     <g id="text_6">
      <!-- 1.0 -->
      <g transform="translate(9.91625 196.799062) scale(0.12 -0.12)">
       <defs>
        <path id="DejaVuSans-2e" d="M 684 794 
L 1344 794 
L 1344 0 
L 684 0 
L 684 794 
z
" transform="scale(0.015625)"/>
       </defs>
       <use xlink:href="#DejaVuSans-31"/>
       <use xlink:href="#DejaVuSans-2e" x="63.623047"/>
       <use xlink:href="#DejaVuSans-30" x="95.410156"/>
      </g>
     </g>
    </g>
    <g id="ytick_2">
     <g id="line2d_5">
      <g>
       <use xlink:href="#maffa3500e4" x="36" y="150.66" style="stroke: #000000; stroke-width: 0.8"/>
      </g>
     </g>
     <g id="text_7">
      <!-- 1.5 -->
      <g transform="translate(9.91625 155.219063) scale(0.12 -0.12)">
       <use xlink:href="#DejaVuSans-31"/>
       <use xlink:href="#DejaVuSans-2e" x="63.623047"/>
       <use xlink:href="#DejaVuSans-35" x="95.410156"/>
      </g>
     </g>
    </g>
    <g id="ytick_3">
     <g id="line2d_6">
      <g>
       <use xlink:href="#maffa3500e4" x="36" y="109.08" style="stroke: #000000; stroke-width: 0.8"/>
      </g>
     </g>
     <g id="text_8">
      <!-- 2.0 -->
      <g transform="translate(9.91625 113.639062) scale(0.12 -0.12)">
       <use xlink:href="#DejaVuSans-32"/>
       <use xlink:href="#DejaVuSans-2e" x="63.623047"/>
       <use xlink:href="#DejaVuSans-30" x="95.410156"/>
      </g>
     </g>
    </g>
    <g id="ytick_4">
     <g id="line2d_7">
      <g>
       <use xlink:href="#maffa3500e4" x="36" y="67.5" style="stroke: #000000; stroke-width: 0.8"/>
      </g>
     </g>
     <g id="text_9">
      <!-- 2.5 -->
      <g transform="translate(9.91625 72.059063) scale(0.12 -0.12)">
       <use xlink:href="#DejaVuSans-32"/>
       <use xlink:href="#DejaVuSans-2e" x="63.623047"/>
       <use xlink:href="#DejaVuSans-35" x="95.410156"/>
      </g>
     </g>
    </g>
    <g id="ytick_5">
     <g id="line2d_8">
      <g>
       <use xlink:href="#maffa3500e4" x="36" y="25.92" style="stroke: #000000; stroke-width: 0.8"/>
      </g>
     </g>
     <g id="text_10">
      <!-- 3.0 -->
      <g transform="translate(9.91625 30.479062) scale(0.12 -0.12)">
       <use xlink:href="#DejaVuSans-33"/>
       <use xlink:href="#DejaVuSans-2e" x="63.623047"/>
       <use xlink:href="#DejaVuSans-30" x="95.410156"/>
      </g>
     </g>
    </g>
    <g id="text_11">
     <!-- Recombination rate -->
     <g transform="translate(2.58875 187.6775) rotate(-90) scale(0.16 -0.16)">
      <defs>
       <path id="DejaVuSans-52" d="M 2841 2188 
Q 3044 2119 3236 1894 
Q 3428 1669 3622 1275 
L 4263 0 
L 3584 0 
L 2988 1197 
Q 2756 1666 2539 1819 
Q 2322 1972 1947 1972 
L 1259 1972 
L 1259 0 
L 628 0 
L 628 4666 
L 2053 4666 
Q 2853 4666 3247 4331 
Q 3641 3997 3641 3322 
Q 3641 2881 3436 2590 
Q 3231 2300 2841 2188 
z
M 1259 4147 
L 1259 2491 
L 2053 2491 
Q 2509 2491 2742 2702 
Q 2975 2913 2975 3322 
Q 2975 3731 2742 3939 
Q 2509 4147 2053 4147 
L 1259 4147 
z
" transform="scale(0.015625)"/>
       <path id="DejaVuSans-63" d="M 3122 3366 
L 3122 2828 
Q 2878 2963 2633 3030 
Q 2388 3097 2138 3097 
Q 1578 3097 1268 2742 
Q 959 2388 959 1747 
Q 959 1106 1268 751 
Q 1578 397 2138 397 
Q 2388 397 2633 464 
Q 2878 531 3122 666 
L 3122 134 
Q 2881 22 2623 -34 
Q 2366 -91 2075 -91 
Q 1284 -91 818 406 
Q 353 903 353 1747 
Q 353 2603 823 3093 
Q 1294 3584 2113 3584 
Q 2378 3584 2631 3529 
Q 2884 3475 3122 3366 
z
" transform="scale(0.015625)"/>
       <path id="DejaVuSans-6d" d="M 3328 2828 
Q 3544 3216 3844 3400 
Q 4144 3584 4550 3584 
Q 5097 3584 5394 3201 
Q 5691 2819 5691 2113 
L 5691 0 
L 5113 0 
L 5113 2094 
Q 5113 2597 4934 2840 
Q 4756 3084 4391 3084 
Q 3944 3084 3684 2787 
Q 3425 2491 3425 1978 
L 3425 0 
L 2847 0 
L 2847 2094 
Q 2847 2600 2669 2842 
Q 2491 3084 2119 3084 
Q 1678 3084 1418 2786 
Q 1159 2488 1159 1978 
L 1159 0 
L 581 0 
L 581 3500 
L 1159 3500 
L 1159 2956 
Q 1356 3278 1631 3431 
Q 1906 3584 2284 3584 
Q 2666 3584 2933 3390 
Q 3200 3197 3328 2828 
z
" transform="scale(0.015625)"/>
       <path id="DejaVuSans-62" d="M 3116 1747 
Q 3116 2381 2855 2742 
Q 2594 3103 2138 3103 
Q 1681 3103 1420 2742 
Q 1159 2381 1159 1747 
Q 1159 1113 1420 752 
Q 1681 391 2138 391 
Q 2594 391 2855 752 
Q 3116 1113 3116 1747 
z
M 1159 2969 
Q 1341 3281 1617 3432 
Q 1894 3584 2278 3584 
Q 2916 3584 3314 3078 
Q 3713 2572 3713 1747 
Q 3713 922 3314 415 
Q 2916 -91 2278 -91 
Q 1894 -91 1617 61 
Q 1341 213 1159 525 
L 1159 0 
L 581 0 
L 581 4863 
L 1159 4863 
L 1159 2969 
z
" transform="scale(0.015625)"/>
       <path id="DejaVuSans-6e" d="M 3513 2113 
L 3513 0 
L 2938 0 
L 2938 2094 
Q 2938 2591 2744 2837 
Q 2550 3084 2163 3084 
Q 1697 3084 1428 2787 
Q 1159 2491 1159 1978 
L 1159 0 
L 581 0 
L 581 3500 
L 1159 3500 
L 1159 2956 
Q 1366 3272 1645 3428 
Q 1925 3584 2291 3584 
Q 2894 3584 3203 3211 
Q 3513 2838 3513 2113 
z
" transform="scale(0.015625)"/>
       <path id="DejaVuSans-61" d="M 2194 1759 
Q 1497 1759 1228 1600 
Q 959 1441 959 1056 
Q 959 750 1161 570 
Q 1363 391 1709 391 
Q 2188 391 2477 730 
Q 2766 1069 2766 1631 
L 2766 1759 
L 2194 1759 
z
M 3341 1997 
L 3341 0 
L 2766 0 
L 2766 531 
Q 2569 213 2275 61 
Q 1981 -91 1556 -91 
Q 1019 -91 701 211 
Q 384 513 384 1019 
Q 384 1609 779 1909 
Q 1175 2209 1959 2209 
L 2766 2209 
L 2766 2266 
Q 2766 2663 2505 2880 
Q 2244 3097 1772 3097 
Q 1472 3097 1187 3025 
Q 903 2953 641 2809 
L 641 3341 
Q 956 3463 1253 3523 
Q 1550 3584 1831 3584 
Q 2591 3584 2966 3190 
Q 3341 2797 3341 1997 
z
" transform="scale(0.015625)"/>
       <path id="DejaVuSans-74" d="M 1172 4494 
L 1172 3500 
L 2356 3500 
L 2356 3053 
L 1172 3053 
L 1172 1153 
Q 1172 725 1289 603 
Q 1406 481 1766 481 
L 2356 481 
L 2356 0 
L 1766 0 
Q 1100 0 847 248 
Q 594 497 594 1153 
L 594 3053 
L 172 3053 
L 172 3500 
L 594 3500 
L 594 4494 
L 1172 4494 
z
" transform="scale(0.015625)"/>
       <path id="DejaVuSans-72" d="M 2631 2963 
Q 2534 3019 2420 3045 
Q 2306 3072 2169 3072 
Q 1681 3072 1420 2755 
Q 1159 2438 1159 1844 
L 1159 0 
L 581 0 
L 581 3500 
L 1159 3500 
L 1159 2956 
Q 1341 3275 1631 3429 
Q 1922 3584 2338 3584 
Q 2397 3584 2469 3576 
Q 2541 3569 2628 3553 
L 2631 2963 
z
" transform="scale(0.015625)"/>
      </defs>
      <use xlink:href="#DejaVuSans-52"/>
      <use xlink:href="#DejaVuSans-65" x="64.982422"/>
      <use xlink:href="#DejaVuSans-63" x="126.505859"/>
      <use xlink:href="#DejaVuSans-6f" x="181.486328"/>
      <use xlink:href="#DejaVuSans-6d" x="242.667969"/>
      <use xlink:href="#DejaVuSans-62" x="340.080078"/>
      <use xlink:href="#DejaVuSans-69" x="403.556641"/>
      <use xlink:href="#DejaVuSans-6e" x="431.339844"/>
      <use xlink:href="#DejaVuSans-61" x="494.71875"/>
      <use xlink:href="#DejaVuSans-74" x="555.998047"/>
      <use xlink:href="#DejaVuSans-69" x="595.207031"/>
      <use xlink:href="#DejaVuSans-6f" x="622.990234"/>
      <use xlink:href="#DejaVuSans-6e" x="684.171875"/>
      <use xlink:href="#DejaVuSans-20" x="747.550781"/>
      <use xlink:href="#DejaVuSans-72" x="779.337891"/>
      <use xlink:href="#DejaVuSans-61" x="820.451172"/>
      <use xlink:href="#DejaVuSans-74" x="881.730469"/>
      <use xlink:href="#DejaVuSans-65" x="920.939453"/>
     </g>
    </g>
    <g id="text_12">
     <!-- 1e−9 -->
     <g transform="translate(36 22.92) scale(0.1 -0.1)">
      <defs>
       <path id="DejaVuSans-2212" d="M 678 2272 
L 4684 2272 
L 4684 1741 
L 678 1741 
L 678 2272 
z
" transform="scale(0.015625)"/>
       <path id="DejaVuSans-39" d="M 703 97 
L 703 672 
Q 941 559 1184 500 
Q 1428 441 1663 441 
Q 2288 441 2617 861 
Q 2947 1281 2994 2138 
Q 2813 1869 2534 1725 
Q 2256 1581 1919 1581 
Q 1219 1581 811 2004 
Q 403 2428 403 3163 
Q 403 3881 828 4315 
Q 1253 4750 1959 4750 
Q 2769 4750 3195 4129 
Q 3622 3509 3622 2328 
Q 3622 1225 3098 567 
Q 2575 -91 1691 -91 
Q 1453 -91 1209 -44 
Q 966 3 703 97 
z
M 1959 2075 
Q 2384 2075 2632 2365 
Q 2881 2656 2881 3163 
Q 2881 3666 2632 3958 
Q 2384 4250 1959 4250 
Q 1534 4250 1286 3958 
Q 1038 3666 1038 3163 
Q 1038 2656 1286 2365 
Q 1534 2075 1959 2075 
z
" transform="scale(0.015625)"/>
      </defs>
      <use xlink:href="#DejaVuSans-31"/>
      <use xlink:href="#DejaVuSans-65" x="63.623047"/>
      <use xlink:href="#DejaVuSans-2212" x="125.146484"/>
      <use xlink:href="#DejaVuSans-39" x="208.935547"/>
     </g>
    </g>
   </g>
   <g id="patch_3">
    <path d="M 36 192.24 
L 36 25.92 
" style="fill: none; stroke: #000000; stroke-width: 0.8; stroke-linejoin: miter; stroke-linecap: square"/>
   </g>
   <g id="patch_4">
    <path d="M 214.56 192.24 
L 214.56 25.92 
" style="fill: none; stroke: #000000; stroke-width: 0.8; stroke-linejoin: miter; stroke-linecap: square"/>
   </g>
   <g id="patch_5">
    <path d="M 36 192.24 
L 214.56 192.24 
" style="fill: none; stroke: #000000; stroke-width: 0.8; stroke-linejoin: miter; stroke-linecap: square"/>
   </g>
   <g id="patch_6">
    <path d="M 36 25.92 
L 214.56 25.92 
" style="fill: none; stroke: #000000; stroke-width: 0.8; stroke-linejoin: miter; stroke-linecap: square"/>
   </g>
   <g id="text_13">
    <!-- Ne2r-MSC-R-P2-S4 -->
    <g transform="translate(52.07 10.92) scale(0.16 -0.16)">
     <defs>
      <path id="DejaVuSans-2d" d="M 313 2009 
L 1997 2009 
L 1997 1497 
L 313 1497 
L 313 2009 
z
" transform="scale(0.015625)"/>
      <path id="DejaVuSans-4d" d="M 628 4666 
L 1569 4666 
L 2759 1491 
L 3956 4666 
L 4897 4666 
L 4897 0 
L 4281 0 
L 4281 4097 
L 3078 897 
L 2444 897 
L 1241 4097 
L 1241 0 
L 628 0 
L 628 4666 
z
" transform="scale(0.015625)"/>
      <path id="DejaVuSans-53" d="M 3425 4513 
L 3425 3897 
Q 3066 4069 2747 4153 
Q 2428 4238 2131 4238 
Q 1616 4238 1336 4038 
Q 1056 3838 1056 3469 
Q 1056 3159 1242 3001 
Q 1428 2844 1947 2747 
L 2328 2669 
Q 3034 2534 3370 2195 
Q 3706 1856 3706 1288 
Q 3706 609 3251 259 
Q 2797 -91 1919 -91 
Q 1588 -91 1214 -16 
Q 841 59 441 206 
L 441 856 
Q 825 641 1194 531 
Q 1563 422 1919 422 
Q 2459 422 2753 634 
Q 3047 847 3047 1241 
Q 3047 1584 2836 1778 
Q 2625 1972 2144 2069 
L 1759 2144 
Q 1053 2284 737 2584 
Q 422 2884 422 3419 
Q 422 4038 858 4394 
Q 1294 4750 2059 4750 
Q 2388 4750 2728 4690 
Q 3069 4631 3425 4513 
z
" transform="scale(0.015625)"/>
      <path id="DejaVuSans-43" d="M 4122 4306 
L 4122 3641 
Q 3803 3938 3442 4084 
Q 3081 4231 2675 4231 
Q 1875 4231 1450 3742 
Q 1025 3253 1025 2328 
Q 1025 1406 1450 917 
Q 1875 428 2675 428 
Q 3081 428 3442 575 
Q 3803 722 4122 1019 
L 4122 359 
Q 3791 134 3420 21 
Q 3050 -91 2638 -91 
Q 1578 -91 968 557 
Q 359 1206 359 2328 
Q 359 3453 968 4101 
Q 1578 4750 2638 4750 
Q 3056 4750 3426 4639 
Q 3797 4528 4122 4306 
z
" transform="scale(0.015625)"/>
      <path id="DejaVuSans-50" d="M 1259 4147 
L 1259 2394 
L 2053 2394 
Q 2494 2394 2734 2622 
Q 2975 2850 2975 3272 
Q 2975 3691 2734 3919 
Q 2494 4147 2053 4147 
L 1259 4147 
z
M 628 4666 
L 2053 4666 
Q 2838 4666 3239 4311 
Q 3641 3956 3641 3272 
Q 3641 2581 3239 2228 
Q 2838 1875 2053 1875 
L 1259 1875 
L 1259 0 
L 628 0 
L 628 4666 
z
" transform="scale(0.015625)"/>
      <path id="DejaVuSans-34" d="M 2419 4116 
L 825 1625 
L 2419 1625 
L 2419 4116 
z
M 2253 4666 
L 3047 4666 
L 3047 1625 
L 3713 1625 
L 3713 1100 
L 3047 1100 
L 3047 0 
L 2419 0 
L 2419 1100 
L 313 1100 
L 313 1709 
L 2253 4666 
z
" transform="scale(0.015625)"/>
     </defs>
     <use xlink:href="#DejaVuSans-4e"/>
     <use xlink:href="#DejaVuSans-65" x="74.804688"/>
     <use xlink:href="#DejaVuSans-32" x="136.328125"/>
     <use xlink:href="#DejaVuSans-72" x="199.951172"/>
     <use xlink:href="#DejaVuSans-2d" x="234.689453"/>
     <use xlink:href="#DejaVuSans-4d" x="270.773438"/>
     <use xlink:href="#DejaVuSans-53" x="357.052734"/>
     <use xlink:href="#DejaVuSans-43" x="420.529297"/>
     <use xlink:href="#DejaVuSans-2d" x="490.353516"/>
     <use xlink:href="#DejaVuSans-52" x="526.4375"/>
     <use xlink:href="#DejaVuSans-2d" x="591.919922"/>
     <use xlink:href="#DejaVuSans-50" x="628.003906"/>
     <use xlink:href="#DejaVuSans-32" x="688.306641"/>
     <use xlink:href="#DejaVuSans-2d" x="751.929688"/>
     <use xlink:href="#DejaVuSans-53" x="788.013672"/>
     <use xlink:href="#DejaVuSans-34" x="851.490234"/>
    </g>
   </g>
  </g>
  <g id="axes_2">
   <g id="patch_7">
    <path d="M 225.72 192.24 
L 234.036 192.24 
L 234.036 25.92 
L 225.72 25.92 
z
" style="fill: #ffffff"/>
   </g>
   <g id="QuadMesh_1">
    <path d="M 225.72 192.24 
L 234.036 192.24 
L 234.036 178.38 
L 225.72 178.38 
L 225.72 192.24 
" clip-path="url(#p74a436e895)" style="fill: #440154"/>
    <path d="M 225.72 178.38 
L 234.036 178.38 
L 234.036 164.52 
L 225.72 164.52 
L 225.72 178.38 
" clip-path="url(#p74a436e895)" style="fill: #481c6e"/>
    <path d="M 225.72 164.52 
L 234.036 164.52 
L 234.036 150.66 
L 225.72 150.66 
L 225.72 164.52 
" clip-path="url(#p74a436e895)" style="fill: #443983"/>
    <path d="M 225.72 150.66 
L 234.036 150.66 
L 234.036 136.8 
L 225.72 136.8 
L 225.72 150.66 
" clip-path="url(#p74a436e895)" style="fill: #3b528b"/>
    <path d="M 225.72 136.8 
L 234.036 136.8 
L 234.036 122.94 
L 225.72 122.94 
L 225.72 136.8 
" clip-path="url(#p74a436e895)" style="fill: #306a8e"/>
    <path d="M 225.72 122.94 
L 234.036 122.94 
L 234.036 109.08 
L 225.72 109.08 
L 225.72 122.94 
" clip-path="url(#p74a436e895)" style="fill: #277f8e"/>
    <path d="M 225.72 109.08 
L 234.036 109.08 
L 234.036 95.22 
L 225.72 95.22 
L 225.72 109.08 
" clip-path="url(#p74a436e895)" style="fill: #1f948c"/>
    <path d="M 225.72 95.22 
L 234.036 95.22 
L 234.036 81.36 
L 225.72 81.36 
L 225.72 95.22 
" clip-path="url(#p74a436e895)" style="fill: #23a983"/>
    <path d="M 225.72 81.36 
L 234.036 81.36 
L 234.036 67.5 
L 225.72 67.5 
L 225.72 81.36 
" clip-path="url(#p74a436e895)" style="fill: #40bd72"/>
    <path d="M 225.72 67.5 
L 234.036 67.5 
L 234.036 53.64 
L 225.72 53.64 
L 225.72 67.5 
" clip-path="url(#p74a436e895)" style="fill: #6ece58"/>
    <path d="M 225.72 53.64 
L 234.036 53.64 
L 234.036 39.78 
L 225.72 39.78 
L 225.72 53.64 
" clip-path="url(#p74a436e895)" style="fill: #a8db34"/>
    <path d="M 225.72 39.78 
L 234.036 39.78 
L 234.036 25.92 
L 225.72 25.92 
L 225.72 39.78 
" clip-path="url(#p74a436e895)" style="fill: #e2e418"/>
   </g>
   <g id="matplotlib.axis_3"/>
   <g id="matplotlib.axis_4">
    <g id="ytick_6">
     <g id="line2d_9">
      <defs>
       <path id="mb52fac27cc" d="M 0 0 
L 3.5 0 
" style="stroke: #000000; stroke-width: 0.8"/>
      </defs>
      <g>
       <use xlink:href="#mb52fac27cc" x="234.036" y="192.24" style="stroke: #000000; stroke-width: 0.8"/>
      </g>
     </g>
     <g id="text_14">
      <!-- $\mathdefault{−5295}$ -->
      <g transform="translate(241.036 196.039219) scale(0.1 -0.1)">
       <use xlink:href="#DejaVuSans-2212" transform="translate(0 0.78125)"/>
       <use xlink:href="#DejaVuSans-35" transform="translate(83.789062 0.78125)"/>
       <use xlink:href="#DejaVuSans-32" transform="translate(147.412109 0.78125)"/>
       <use xlink:href="#DejaVuSans-39" transform="translate(209.285156 0.78125)"/>
       <use xlink:href="#DejaVuSans-35" transform="translate(272.908203 0.78125)"/>
      </g>
     </g>
    </g>
    <g id="ytick_7">
     <g id="line2d_10">
      <g>
       <use xlink:href="#mb52fac27cc" x="234.036" y="164.52" style="stroke: #000000; stroke-width: 0.8"/>
      </g>
     </g>
     <g id="text_15">
      <!-- $\mathdefault{−5265}$ -->
      <g transform="translate(241.036 168.319219) scale(0.1 -0.1)">
       <defs>
        <path id="DejaVuSans-36" d="M 2113 2584 
Q 1688 2584 1439 2293 
Q 1191 2003 1191 1497 
Q 1191 994 1439 701 
Q 1688 409 2113 409 
Q 2538 409 2786 701 
Q 3034 994 3034 1497 
Q 3034 2003 2786 2293 
Q 2538 2584 2113 2584 
z
M 3366 4563 
L 3366 3988 
Q 3128 4100 2886 4159 
Q 2644 4219 2406 4219 
Q 1781 4219 1451 3797 
Q 1122 3375 1075 2522 
Q 1259 2794 1537 2939 
Q 1816 3084 2150 3084 
Q 2853 3084 3261 2657 
Q 3669 2231 3669 1497 
Q 3669 778 3244 343 
Q 2819 -91 2113 -91 
Q 1303 -91 875 529 
Q 447 1150 447 2328 
Q 447 3434 972 4092 
Q 1497 4750 2381 4750 
Q 2619 4750 2861 4703 
Q 3103 4656 3366 4563 
z
" transform="scale(0.015625)"/>
       </defs>
       <use xlink:href="#DejaVuSans-2212" transform="translate(0 0.78125)"/>
       <use xlink:href="#DejaVuSans-35" transform="translate(83.789062 0.78125)"/>
       <use xlink:href="#DejaVuSans-32" transform="translate(147.412109 0.78125)"/>
       <use xlink:href="#DejaVuSans-36" transform="translate(211.035156 0.78125)"/>
       <use xlink:href="#DejaVuSans-35" transform="translate(274.658203 0.78125)"/>
      </g>
     </g>
    </g>
    <g id="ytick_8">
     <g id="line2d_11">
      <g>
       <use xlink:href="#mb52fac27cc" x="234.036" y="136.8" style="stroke: #000000; stroke-width: 0.8"/>
      </g>
     </g>
     <g id="text_16">
      <!-- $\mathdefault{−5235}$ -->
      <g transform="translate(241.036 140.599219) scale(0.1 -0.1)">
       <use xlink:href="#DejaVuSans-2212" transform="translate(0 0.78125)"/>
       <use xlink:href="#DejaVuSans-35" transform="translate(83.789062 0.78125)"/>
       <use xlink:href="#DejaVuSans-32" transform="translate(147.412109 0.78125)"/>
       <use xlink:href="#DejaVuSans-33" transform="translate(211.035156 0.78125)"/>
       <use xlink:href="#DejaVuSans-35" transform="translate(274.658203 0.78125)"/>
      </g>
     </g>
    </g>
    <g id="ytick_9">
     <g id="line2d_12">
      <g>
       <use xlink:href="#mb52fac27cc" x="234.036" y="109.08" style="stroke: #000000; stroke-width: 0.8"/>
      </g>
     </g>
     <g id="text_17">
      <!-- $\mathdefault{−5205}$ -->
      <g transform="translate(241.036 112.879219) scale(0.1 -0.1)">
       <use xlink:href="#DejaVuSans-2212" transform="translate(0 0.78125)"/>
       <use xlink:href="#DejaVuSans-35" transform="translate(83.789062 0.78125)"/>
       <use xlink:href="#DejaVuSans-32" transform="translate(147.412109 0.78125)"/>
       <use xlink:href="#DejaVuSans-30" transform="translate(211.035156 0.78125)"/>
       <use xlink:href="#DejaVuSans-35" transform="translate(274.658203 0.78125)"/>
      </g>
     </g>
    </g>
    <g id="ytick_10">
     <g id="line2d_13">
      <g>
       <use xlink:href="#mb52fac27cc" x="234.036" y="81.36" style="stroke: #000000; stroke-width: 0.8"/>
      </g>
     </g>
     <g id="text_18">
      <!-- $\mathdefault{−5175}$ -->
      <g transform="translate(241.036 85.159219) scale(0.1 -0.1)">
       <use xlink:href="#DejaVuSans-2212" transform="translate(0 0.09375)"/>
       <use xlink:href="#DejaVuSans-35" transform="translate(83.789062 0.09375)"/>
       <use xlink:href="#DejaVuSans-31" transform="translate(147.412109 0.09375)"/>
       <use xlink:href="#DejaVuSans-37" transform="translate(211.035156 0.09375)"/>
       <use xlink:href="#DejaVuSans-35" transform="translate(274.658203 0.09375)"/>
      </g>
     </g>
    </g>
    <g id="ytick_11">
     <g id="line2d_14">
      <g>
       <use xlink:href="#mb52fac27cc" x="234.036" y="53.64" style="stroke: #000000; stroke-width: 0.8"/>
      </g>
     </g>
     <g id="text_19">
      <!-- $\mathdefault{−5145}$ -->
      <g transform="translate(241.036 57.439219) scale(0.1 -0.1)">
       <use xlink:href="#DejaVuSans-2212" transform="translate(0 0.09375)"/>
       <use xlink:href="#DejaVuSans-35" transform="translate(83.789062 0.09375)"/>
       <use xlink:href="#DejaVuSans-31" transform="translate(147.412109 0.09375)"/>
       <use xlink:href="#DejaVuSans-34" transform="translate(211.035156 0.09375)"/>
       <use xlink:href="#DejaVuSans-35" transform="translate(274.658203 0.09375)"/>
      </g>
     </g>
    </g>
    <g id="ytick_12">
     <g id="line2d_15">
      <g>
       <use xlink:href="#mb52fac27cc" x="234.036" y="25.92" style="stroke: #000000; stroke-width: 0.8"/>
      </g>
     </g>
     <g id="text_20">
      <!-- $\mathdefault{−5115}$ -->
      <g transform="translate(241.036 29.719219) scale(0.1 -0.1)">
       <use xlink:href="#DejaVuSans-2212" transform="translate(0 0.09375)"/>
       <use xlink:href="#DejaVuSans-35" transform="translate(83.789062 0.09375)"/>
       <use xlink:href="#DejaVuSans-31" transform="translate(147.412109 0.09375)"/>
       <use xlink:href="#DejaVuSans-31" transform="translate(211.035156 0.09375)"/>
       <use xlink:href="#DejaVuSans-35" transform="translate(274.658203 0.09375)"/>
      </g>
     </g>
    </g>
    <g id="text_21">
     <!-- log likelihood -->
     <g transform="translate(288.054125 148.704375) rotate(-90) scale(0.12 -0.12)">
      <defs>
       <path id="DejaVuSans-67" d="M 2906 1791 
Q 2906 2416 2648 2759 
Q 2391 3103 1925 3103 
Q 1463 3103 1205 2759 
Q 947 2416 947 1791 
Q 947 1169 1205 825 
Q 1463 481 1925 481 
Q 2391 481 2648 825 
Q 2906 1169 2906 1791 
z
M 3481 434 
Q 3481 -459 3084 -895 
Q 2688 -1331 1869 -1331 
Q 1566 -1331 1297 -1286 
Q 1028 -1241 775 -1147 
L 775 -588 
Q 1028 -725 1275 -790 
Q 1522 -856 1778 -856 
Q 2344 -856 2625 -561 
Q 2906 -266 2906 331 
L 2906 616 
Q 2728 306 2450 153 
Q 2172 0 1784 0 
Q 1141 0 747 490 
Q 353 981 353 1791 
Q 353 2603 747 3093 
Q 1141 3584 1784 3584 
Q 2172 3584 2450 3431 
Q 2728 3278 2906 2969 
L 2906 3500 
L 3481 3500 
L 3481 434 
z
" transform="scale(0.015625)"/>
       <path id="DejaVuSans-6b" d="M 581 4863 
L 1159 4863 
L 1159 1991 
L 2875 3500 
L 3609 3500 
L 1753 1863 
L 3688 0 
L 2938 0 
L 1159 1709 
L 1159 0 
L 581 0 
L 581 4863 
z
" transform="scale(0.015625)"/>
       <path id="DejaVuSans-68" d="M 3513 2113 
L 3513 0 
L 2938 0 
L 2938 2094 
Q 2938 2591 2744 2837 
Q 2550 3084 2163 3084 
Q 1697 3084 1428 2787 
Q 1159 2491 1159 1978 
L 1159 0 
L 581 0 
L 581 4863 
L 1159 4863 
L 1159 2956 
Q 1366 3272 1645 3428 
Q 1925 3584 2291 3584 
Q 2894 3584 3203 3211 
Q 3513 2838 3513 2113 
z
" transform="scale(0.015625)"/>
      </defs>
      <use xlink:href="#DejaVuSans-6c"/>
      <use xlink:href="#DejaVuSans-6f" x="27.783203"/>
      <use xlink:href="#DejaVuSans-67" x="88.964844"/>
      <use xlink:href="#DejaVuSans-20" x="152.441406"/>
      <use xlink:href="#DejaVuSans-6c" x="184.228516"/>
      <use xlink:href="#DejaVuSans-69" x="212.011719"/>
      <use xlink:href="#DejaVuSans-6b" x="239.794922"/>
      <use xlink:href="#DejaVuSans-65" x="294.080078"/>
      <use xlink:href="#DejaVuSans-6c" x="355.603516"/>
      <use xlink:href="#DejaVuSans-69" x="383.386719"/>
      <use xlink:href="#DejaVuSans-68" x="411.169922"/>
      <use xlink:href="#DejaVuSans-6f" x="474.548828"/>
      <use xlink:href="#DejaVuSans-6f" x="535.730469"/>
      <use xlink:href="#DejaVuSans-64" x="596.912109"/>
     </g>
    </g>
    <g id="text_22">
     <!-- $\times\mathdefault{10^{3}}\mathdefault{}$ -->
     <g transform="translate(208.036 22.92) scale(0.1 -0.1)">
      <defs>
       <path id="DejaVuSans-d7" d="M 4488 3438 
L 3059 2003 
L 4488 575 
L 4116 197 
L 2681 1631 
L 1247 197 
L 878 575 
L 2303 2003 
L 878 3438 
L 1247 3816 
L 2681 2381 
L 4116 3816 
L 4488 3438 
z
" transform="scale(0.015625)"/>
      </defs>
      <use xlink:href="#DejaVuSans-d7" transform="translate(0 0.765625)"/>
      <use xlink:href="#DejaVuSans-31" transform="translate(83.789062 0.765625)"/>
      <use xlink:href="#DejaVuSans-30" transform="translate(147.412109 0.765625)"/>
      <use xlink:href="#DejaVuSans-33" transform="translate(211.992188 39.046875) scale(0.7)"/>
     </g>
    </g>
   </g>
   <g id="LineCollection_1"/>
   <g id="patch_8">
    <path d="M 225.72 192.24 
L 229.878 192.24 
L 234.036 192.24 
L 234.036 25.92 
L 229.878 25.92 
L 225.72 25.92 
L 225.72 192.24 
z
" style="fill: none; stroke: #000000; stroke-width: 0.8; stroke-linejoin: miter; stroke-linecap: square"/>
   </g>
  </g>
 </g>
 <defs>
  <clipPath id="p1b811616f4">
   <rect x="36" y="25.92" width="178.56" height="166.32"/>
  </clipPath>
  <clipPath id="p74a436e895">
   <rect x="225.72" y="25.92" width="8.316" height="166.32"/>
  </clipPath>
 </defs>
</svg>
