<?xml version="1.0" encoding="utf-8" standalone="no"?>
<!DOCTYPE svg PUBLIC "-//W3C//DTD SVG 1.1//EN"
  "http://www.w3.org/Graphics/SVG/1.1/DTD/svg11.dtd">
<svg xmlns:xlink="http://www.w3.org/1999/xlink" width="288pt" height="216pt" viewBox="0 0 288 216" xmlns="http://www.w3.org/2000/svg" version="1.1">
 <metadata>
  <rdf:RDF xmlns:dc="http://purl.org/dc/elements/1.1/" xmlns:cc="http://creativecommons.org/ns#" xmlns:rdf="http://www.w3.org/1999/02/22-rdf-syntax-ns#">
   <cc:Work>
    <dc:type rdf:resource="http://purl.org/dc/dcmitype/StillImage"/>
    <dc:date>2023-07-18T21:22:04.941705</dc:date>
    <dc:format>image/svg+xml</dc:format>
    <dc:creator>
     <cc:Agent>
      <dc:title>Matplotlib v3.7.1, https://matplotlib.org/</dc:title>
     </cc:Agent>
    </dc:creator>
   </cc:Work>
  </rdf:RDF>
 </metadata>
 <defs>
  <style type="text/css">*{stroke-linejoin: round; stroke-linecap: butt}</style>
 </defs>
 <g id="figure_1">
  <g id="patch_1">
   <path d="M 0 216 
L 288 216 
L 288 0 
L 0 0 
z
" style="fill: #ffffff"/>
  </g>
  <g id="axes_1">
   <g id="patch_2">
    <path d="M 36 192.24 
L 214.56 192.24 
L 214.56 25.92 
L 36 25.92 
z
" style="fill: #ffffff"/>
   </g>
   <g id="PathCollection_1">
    <path d="M 36 186.696 
L 36 181.152 
L 36 175.608 
L 36 170.064 
L 36 164.52 
L 36 158.976 
L 36 153.432 
L 36 147.888 
L 36 142.344 
L 36 136.8 
L 36 131.256 
L 36 125.712 
L 36 120.168 
L 36 114.624 
L 36 109.08 
L 36 103.536 
L 36 97.992 
L 36 92.448 
L 36 86.904 
L 36 81.36 
L 36 75.816 
L 36 70.272 
L 36 64.728 
L 36 59.184 
L 36 53.64 
L 36 48.096 
L 36 42.552 
L 36 37.008 
L 36 31.464 
L 36 25.92 
L 41.952 25.92 
L 47.904 25.92 
L 53.856 25.92 
L 59.808 25.92 
L 65.76 25.92 
L 71.712 25.92 
L 77.664 25.92 
L 83.616 25.92 
L 89.568 25.92 
L 95.52 25.92 
L 101.472 25.92 
L 107.424 25.92 
L 113.376 25.92 
L 119.328 25.92 
L 125.28 25.92 
L 131.232 25.92 
L 137.184 25.92 
L 143.136 25.92 
L 149.088 25.92 
L 155.04 25.92 
L 160.992 25.92 
L 166.944 25.92 
L 172.896 25.92 
L 178.848 25.92 
L 184.8 25.92 
L 190.752 25.92 
L 196.704 25.92 
L 202.656 25.92 
L 208.608 25.92 
L 214.56 25.92 
L 214.56 31.464 
L 214.56 37.008 
L 214.56 42.552 
L 214.56 48.096 
L 214.56 48.19164 
L 208.608 48.164031 
L 202.656 48.148653 
L 196.704 48.13886 
L 190.752 48.120325 
L 190.596781 48.096 
L 184.8 42.764234 
L 178.848 42.658386 
L 172.896 42.622849 
L 166.944 42.605064 
L 160.992 42.594411 
L 159.00922 42.552 
L 155.04 38.854863 
L 149.088 37.190083 
L 143.136 37.104281 
L 137.184 37.07383 
L 131.232 37.058346 
L 125.28 37.049071 
L 124.168613 37.008 
L 119.328 32.499203 
L 113.376 31.658831 
L 107.424 31.577258 
L 101.472 31.548094 
L 95.52 31.534955 
L 89.568 31.530138 
L 83.616 31.53288 
L 77.664 31.55009 
L 71.712 31.650055 
L 65.959747 37.008 
L 65.76 37.059904 
L 59.863723 42.552 
L 59.808 42.594931 
L 53.90209 48.096 
L 53.856 48.179577 
L 47.993727 53.64 
L 47.937562 59.184 
L 47.925362 64.728 
L 47.904 64.852346 
L 42.085497 70.272 
L 41.999938 75.816 
L 41.982949 81.36 
L 41.975962 86.904 
L 41.972407 92.448 
L 41.970522 97.992 
L 41.969683 103.536 
L 41.969692 109.08 
L 41.970611 114.624 
L 41.97284 120.168 
L 41.977598 125.712 
L 41.989405 131.256 
L 42.045239 136.8 
L 47.904 142.257152 
L 47.92538 142.344 
L 47.948298 147.888 
L 53.856 153.390738 
L 53.892564 153.432 
L 59.808 158.941943 
L 59.872575 158.976 
L 65.76 164.459851 
L 71.712 164.489627 
L 72.083452 164.52 
L 77.664 169.718011 
L 83.616 169.97976 
L 89.568 170.010797 
L 95.52 170.022776 
L 101.472 170.02909 
L 107.424 170.032965 
L 113.376 170.03557 
L 119.328 170.037428 
L 125.28 170.038809 
L 131.232 170.039868 
L 137.184 170.040697 
L 143.136 170.041357 
L 149.088 170.06094 
L 149.215255 170.064 
L 155.04 174.849771 
L 160.992 175.17993 
L 166.944 175.297915 
L 172.896 175.358013 
L 178.848 175.394066 
L 184.8 175.417808 
L 190.752 175.434381 
L 196.704 175.44639 
L 202.656 175.455297 
L 208.608 175.461981 
L 214.56 175.467001 
L 214.56 175.608 
L 214.56 181.152 
L 214.56 186.696 
L 214.56 192.24 
L 208.608 192.24 
L 202.656 192.24 
L 196.704 192.24 
L 190.752 192.24 
L 184.8 192.24 
L 178.848 192.24 
L 172.896 192.24 
L 166.944 192.24 
L 160.992 192.24 
L 155.04 192.24 
L 149.088 192.24 
L 143.136 192.24 
L 137.184 192.24 
L 131.232 192.24 
L 125.28 192.24 
L 119.328 192.24 
L 113.376 192.24 
L 107.424 192.24 
L 101.472 192.24 
L 95.52 192.24 
L 89.568 192.24 
L 83.616 192.24 
L 77.664 192.24 
L 71.712 192.24 
L 65.76 192.24 
L 59.808 192.24 
L 53.856 192.24 
L 47.904 192.24 
L 41.952 192.24 
L 36 192.24 
z
" clip-path="url(#p1678fb7ccc)" style="fill: #440154"/>
   </g>
   <g id="PathCollection_2">
    <path d="M 42.045239 136.8 
L 41.989405 131.256 
L 41.977598 125.712 
L 41.97284 120.168 
L 41.970611 114.624 
L 41.969692 109.08 
L 41.969683 103.536 
L 41.970522 97.992 
L 41.972407 92.448 
L 41.975962 86.904 
L 41.982949 81.36 
L 41.999938 75.816 
L 42.085497 70.272 
L 47.904 64.852346 
L 47.925362 64.728 
L 47.937562 59.184 
L 47.993727 53.64 
L 53.856 48.179577 
L 53.90209 48.096 
L 59.808 42.594931 
L 59.863723 42.552 
L 65.76 37.059904 
L 65.959747 37.008 
L 71.712 31.650055 
L 77.664 31.55009 
L 83.616 31.53288 
L 89.568 31.530138 
L 95.52 31.534955 
L 101.472 31.548094 
L 107.424 31.577258 
L 113.376 31.658831 
L 119.328 32.499203 
L 124.168613 37.008 
L 125.28 37.049071 
L 131.232 37.058346 
L 137.184 37.07383 
L 143.136 37.104281 
L 149.088 37.190083 
L 155.04 38.854863 
L 159.00922 42.552 
L 160.992 42.594411 
L 166.944 42.605064 
L 172.896 42.622849 
L 178.848 42.658386 
L 184.8 42.764234 
L 190.596781 48.096 
L 190.752 48.120325 
L 196.704 48.13886 
L 202.656 48.148653 
L 208.608 48.164031 
L 214.56 48.19164 
L 214.56 53.64 
L 214.56 54.305389 
L 210.036246 53.64 
L 208.608 53.255955 
L 202.656 52.089571 
L 196.704 51.346798 
L 190.752 50.826833 
L 184.8 49.909451 
L 178.848 48.969241 
L 173.443183 48.096 
L 172.896 47.925752 
L 166.944 46.576763 
L 160.992 45.768778 
L 155.04 45.176423 
L 149.088 44.203447 
L 143.136 43.223057 
L 139.054199 42.552 
L 137.184 42.001049 
L 131.232 40.826599 
L 125.28 40.12317 
L 119.328 39.561169 
L 113.376 38.742605 
L 107.424 38.002996 
L 101.472 37.37897 
L 96.63469 37.008 
L 95.52 36.845783 
L 89.568 36.480423 
L 83.616 36.688388 
L 81.899555 37.008 
L 77.664 37.454641 
L 71.712 38.821928 
L 65.76 40.944773 
L 64.034492 42.552 
L 59.808 45.808214 
L 57.351849 48.096 
L 54.163774 53.64 
L 53.856 54.115108 
L 50.449601 59.184 
L 49.524268 64.728 
L 48.476408 70.272 
L 47.904 72.450077 
L 45.58801 75.816 
L 44.299414 81.36 
L 43.769466 86.904 
L 43.499804 92.448 
L 43.356819 97.992 
L 43.293235 103.536 
L 43.293895 109.08 
L 43.363589 114.624 
L 43.532663 120.168 
L 43.893556 125.712 
L 44.789045 131.256 
L 47.904 136.101138 
L 48.118778 136.8 
L 49.525632 142.344 
L 51.263907 147.888 
L 53.856 150.30241 
L 56.629276 153.432 
L 59.808 156.392828 
L 64.705886 158.976 
L 65.76 159.957856 
L 71.712 162.216277 
L 77.664 163.087369 
L 83.616 164.278138 
L 85.171836 164.52 
L 89.568 166.02868 
L 95.52 166.937241 
L 101.472 167.416131 
L 107.424 167.710082 
L 113.376 167.907629 
L 119.328 168.048547 
L 125.28 168.153338 
L 131.232 168.233636 
L 137.184 168.296529 
L 143.136 168.346579 
L 149.088 168.400196 
L 155.04 168.534281 
L 160.992 168.651934 
L 166.944 168.755056 
L 172.896 168.845223 
L 178.848 168.923751 
L 184.8 168.991756 
L 190.752 169.050189 
L 196.704 169.099872 
L 202.656 169.141519 
L 208.608 169.175756 
L 214.56 169.203137 
L 214.56 170.064 
L 214.56 175.467001 
L 208.608 175.461981 
L 202.656 175.455297 
L 196.704 175.44639 
L 190.752 175.434381 
L 184.8 175.417808 
L 178.848 175.394066 
L 172.896 175.358013 
L 166.944 175.297915 
L 160.992 175.17993 
L 155.04 174.849771 
L 149.215255 170.064 
L 149.088 170.06094 
L 143.136 170.041357 
L 137.184 170.040697 
L 131.232 170.039868 
L 125.28 170.038809 
L 119.328 170.037428 
L 113.376 170.03557 
L 107.424 170.032965 
L 101.472 170.02909 
L 95.52 170.022776 
L 89.568 170.010797 
L 83.616 169.97976 
L 77.664 169.718011 
L 72.083452 164.52 
L 71.712 164.489627 
L 65.76 164.459851 
L 59.872575 158.976 
L 59.808 158.941943 
L 53.892564 153.432 
L 53.856 153.390738 
L 47.948298 147.888 
L 47.92538 142.344 
L 47.904 142.257152 
z
" clip-path="url(#p1678fb7ccc)" style="fill: #470d60"/>
   </g>
   <g id="PathCollection_3">
    <path d="M 44.789045 131.256 
L 43.893556 125.712 
L 43.532663 120.168 
L 43.363589 114.624 
L 43.293895 109.08 
L 43.293235 103.536 
L 43.356819 97.992 
L 43.499804 92.448 
L 43.769466 86.904 
L 44.299414 81.36 
L 45.58801 75.816 
L 47.904 72.450077 
L 48.476408 70.272 
L 49.524268 64.728 
L 50.449601 59.184 
L 53.856 54.115108 
L 54.163774 53.64 
L 57.351849 48.096 
L 59.808 45.808214 
L 64.034492 42.552 
L 65.76 40.944773 
L 71.712 38.821928 
L 77.664 37.454641 
L 81.899555 37.008 
L 83.616 36.688388 
L 89.568 36.480423 
L 95.52 36.845783 
L 96.63469 37.008 
L 101.472 37.37897 
L 107.424 38.002996 
L 113.376 38.742605 
L 119.328 39.561169 
L 125.28 40.12317 
L 131.232 40.826599 
L 137.184 42.001049 
L 139.054199 42.552 
L 143.136 43.223057 
L 149.088 44.203447 
L 155.04 45.176423 
L 160.992 45.768778 
L 166.944 46.576763 
L 172.896 47.925752 
L 173.443183 48.096 
L 178.848 48.969241 
L 184.8 49.909451 
L 190.752 50.826833 
L 196.704 51.346798 
L 202.656 52.089571 
L 208.608 53.255955 
L 210.036246 53.64 
L 214.56 54.305389 
L 214.56 57.090741 
L 208.608 56.235916 
L 202.656 55.357174 
L 196.704 54.454117 
L 191.474699 53.64 
L 190.752 53.533342 
L 184.8 52.639086 
L 178.848 51.72294 
L 172.896 50.785529 
L 166.944 49.82792 
L 160.992 48.851756 
L 156.44824 48.096 
L 155.04 47.872967 
L 149.088 46.926065 
L 143.136 45.972748 
L 137.184 45.019172 
L 131.232 44.073671 
L 125.28 43.147499 
L 121.290466 42.552 
L 119.328 42.272089 
L 113.376 41.48211 
L 107.424 40.771796 
L 101.472 40.177655 
L 95.52 39.750579 
L 89.568 39.562728 
L 83.616 39.718677 
L 77.664 40.374261 
L 71.712 41.770214 
L 69.858377 42.552 
L 65.76 44.407858 
L 60.987722 48.096 
L 59.808 49.082344 
L 56.585273 53.64 
L 53.856 57.853148 
L 52.961641 59.184 
L 51.123173 64.728 
L 49.846852 70.272 
L 48.388895 75.816 
L 47.904 77.974481 
L 46.615878 81.36 
L 45.562969 86.904 
L 45.027201 92.448 
L 44.743116 97.992 
L 44.616787 103.536 
L 44.618099 109.08 
L 44.756566 114.624 
L 45.092487 120.168 
L 45.809514 125.712 
L 47.588684 131.256 
L 47.904 131.746456 
L 49.457085 136.8 
L 51.125884 142.344 
L 53.856 147.259302 
L 54.34323 147.888 
L 59.365988 153.432 
L 59.808 153.843713 
L 65.76 157.358391 
L 69.615005 158.976 
L 71.712 159.942927 
L 77.664 161.29496 
L 83.616 162.474314 
L 89.568 163.392107 
L 95.52 164.123995 
L 99.487051 164.52 
L 101.472 164.803172 
L 107.424 165.387199 
L 113.376 165.779689 
L 119.328 166.059666 
L 125.28 166.267867 
L 131.232 166.427405 
L 137.184 166.552362 
L 143.136 166.651802 
L 149.088 166.739452 
L 155.04 166.863683 
L 160.992 166.971556 
L 166.944 167.064981 
L 172.896 167.145543 
L 178.848 167.214564 
L 184.8 167.273165 
L 190.752 167.322302 
L 196.704 167.362801 
L 202.656 167.395377 
L 208.608 167.420659 
L 214.56 167.439202 
L 214.56 169.203137 
L 208.608 169.175756 
L 202.656 169.141519 
L 196.704 169.099872 
L 190.752 169.050189 
L 184.8 168.991756 
L 178.848 168.923751 
L 172.896 168.845223 
L 166.944 168.755056 
L 160.992 168.651934 
L 155.04 168.534281 
L 149.088 168.400196 
L 143.136 168.346579 
L 137.184 168.296529 
L 131.232 168.233636 
L 125.28 168.153338 
L 119.328 168.048547 
L 113.376 167.907629 
L 107.424 167.710082 
L 101.472 167.416131 
L 95.52 166.937241 
L 89.568 166.02868 
L 85.171836 164.52 
L 83.616 164.278138 
L 77.664 163.087369 
L 71.712 162.216277 
L 65.76 159.957856 
L 64.705886 158.976 
L 59.808 156.392828 
L 56.629276 153.432 
L 53.856 150.30241 
L 51.263907 147.888 
L 49.525632 142.344 
L 48.118778 136.8 
L 47.904 136.101138 
z
" clip-path="url(#p1678fb7ccc)" style="fill: #482374"/>
   </g>
   <g id="PathCollection_4">
    <path d="M 47.588684 131.256 
L 45.809514 125.712 
L 45.092487 120.168 
L 44.756566 114.624 
L 44.618099 109.08 
L 44.616787 103.536 
L 44.743116 97.992 
L 45.027201 92.448 
L 45.562969 86.904 
L 46.615878 81.36 
L 47.904 77.974481 
L 48.388895 75.816 
L 49.846852 70.272 
L 51.123173 64.728 
L 52.961641 59.184 
L 53.856 57.853148 
L 56.585273 53.64 
L 59.808 49.082344 
L 60.987722 48.096 
L 65.76 44.407858 
L 69.858377 42.552 
L 71.712 41.770214 
L 77.664 40.374261 
L 83.616 39.718677 
L 89.568 39.562728 
L 95.52 39.750579 
L 101.472 40.177655 
L 107.424 40.771796 
L 113.376 41.48211 
L 119.328 42.272089 
L 121.290466 42.552 
L 125.28 43.147499 
L 131.232 44.073671 
L 137.184 45.019172 
L 143.136 45.972748 
L 149.088 46.926065 
L 155.04 47.872967 
L 156.44824 48.096 
L 160.992 48.851756 
L 166.944 49.82792 
L 172.896 50.785529 
L 178.848 51.72294 
L 184.8 52.639086 
L 190.752 53.533342 
L 191.474699 53.64 
L 196.704 54.454117 
L 202.656 55.357174 
L 208.608 56.235916 
L 214.56 57.090741 
L 214.56 59.184 
L 214.56 59.924443 
L 209.605199 59.184 
L 208.608 59.043594 
L 202.656 58.188077 
L 196.704 57.309191 
L 190.752 56.406733 
L 184.8 55.480696 
L 178.848 54.531339 
L 173.38596 53.64 
L 172.896 53.564269 
L 166.944 52.632721 
L 160.992 51.683677 
L 155.04 50.719576 
L 149.088 49.743849 
L 143.136 48.761239 
L 139.094048 48.096 
L 137.184 47.796949 
L 131.232 46.880553 
L 125.28 45.984492 
L 119.328 45.123945 
L 113.376 44.31949 
L 107.424 43.599205 
L 101.472 43.001785 
L 95.52 42.58124 
L 94.468027 42.552 
L 89.568 42.422206 
L 85.408036 42.552 
L 83.616 42.612012 
L 77.664 43.34041 
L 71.712 44.855794 
L 65.76 47.573309 
L 65.083663 48.096 
L 59.808 52.506886 
L 59.006773 53.64 
L 55.407661 59.184 
L 53.856 61.822404 
L 52.722079 64.728 
L 51.217297 70.272 
L 49.756602 75.816 
L 48.509953 81.36 
L 47.904 84.644969 
L 47.356473 86.904 
L 46.554597 92.448 
L 46.129413 97.992 
L 45.940339 103.536 
L 45.942302 109.08 
L 46.149544 114.624 
L 46.65231 120.168 
L 47.725472 125.712 
L 47.904 126.238833 
L 49.093902 131.256 
L 50.795391 136.8 
L 52.726136 142.344 
L 53.856 144.378208 
L 56.576031 147.888 
L 59.808 151.398487 
L 62.682163 153.432 
L 65.76 155.28959 
L 71.712 157.779561 
L 75.650605 158.976 
L 77.664 159.502552 
L 83.616 160.67049 
L 89.568 161.576251 
L 95.52 162.295627 
L 101.472 162.878287 
L 107.424 163.357887 
L 113.376 163.757892 
L 119.328 164.095079 
L 125.28 164.381704 
L 128.64747 164.52 
L 131.232 164.621173 
L 137.184 164.808194 
L 143.136 164.957024 
L 149.088 165.078707 
L 155.04 165.193086 
L 160.992 165.291178 
L 166.944 165.374907 
L 172.896 165.445863 
L 178.848 165.505377 
L 184.8 165.554574 
L 190.752 165.594416 
L 196.704 165.62573 
L 202.656 165.649235 
L 208.608 165.665562 
L 214.56 165.675267 
L 214.56 167.439202 
L 208.608 167.420659 
L 202.656 167.395377 
L 196.704 167.362801 
L 190.752 167.322302 
L 184.8 167.273165 
L 178.848 167.214564 
L 172.896 167.145543 
L 166.944 167.064981 
L 160.992 166.971556 
L 155.04 166.863683 
L 149.088 166.739452 
L 143.136 166.651802 
L 137.184 166.552362 
L 131.232 166.427405 
L 125.28 166.267867 
L 119.328 166.059666 
L 113.376 165.779689 
L 107.424 165.387199 
L 101.472 164.803172 
L 99.487051 164.52 
L 95.52 164.123995 
L 89.568 163.392107 
L 83.616 162.474314 
L 77.664 161.29496 
L 71.712 159.942927 
L 69.615005 158.976 
L 65.76 157.358391 
L 59.808 153.843713 
L 59.365988 153.432 
L 54.34323 147.888 
L 53.856 147.259302 
L 51.125884 142.344 
L 49.457085 136.8 
L 47.904 131.746456 
z
" clip-path="url(#p1678fb7ccc)" style="fill: #453781"/>
   </g>
   <g id="PathCollection_5">
    <path d="M 47.725472 125.712 
L 46.65231 120.168 
L 46.149544 114.624 
L 45.942302 109.08 
L 45.940339 103.536 
L 46.129413 97.992 
L 46.554597 92.448 
L 47.356473 86.904 
L 47.904 84.644969 
L 48.509953 81.36 
L 49.756602 75.816 
L 51.217297 70.272 
L 52.722079 64.728 
L 53.856 61.822404 
L 55.407661 59.184 
L 59.006773 53.64 
L 59.808 52.506886 
L 65.083663 48.096 
L 65.76 47.573309 
L 71.712 44.855794 
L 77.664 43.34041 
L 83.616 42.612012 
L 85.408036 42.552 
L 89.568 42.422206 
L 94.468027 42.552 
L 95.52 42.58124 
L 101.472 43.001785 
L 107.424 43.599205 
L 113.376 44.31949 
L 119.328 45.123945 
L 125.28 45.984492 
L 131.232 46.880553 
L 137.184 47.796949 
L 139.094048 48.096 
L 143.136 48.761239 
L 149.088 49.743849 
L 155.04 50.719576 
L 160.992 51.683677 
L 166.944 52.632721 
L 172.896 53.564269 
L 173.38596 53.64 
L 178.848 54.531339 
L 184.8 55.480696 
L 190.752 56.406733 
L 196.704 57.309191 
L 202.656 58.188077 
L 208.608 59.043594 
L 209.605199 59.184 
L 214.56 59.924443 
L 214.56 62.904384 
L 208.608 62.03921 
L 202.656 61.14942 
L 196.704 60.234585 
L 190.752 59.294426 
L 190.065418 59.184 
L 184.8 58.387138 
L 178.848 57.465078 
L 172.896 56.521448 
L 166.944 55.557373 
L 160.992 54.574583 
L 155.419849 53.64 
L 155.04 53.579716 
L 149.088 52.63334 
L 143.136 51.681242 
L 137.184 50.729922 
L 131.232 49.788185 
L 125.28 48.867938 
L 120.066991 48.096 
L 119.328 47.992029 
L 113.376 47.219588 
L 107.424 46.532154 
L 101.472 45.968289 
L 95.52 45.581814 
L 89.568 45.449138 
L 83.616 45.681119 
L 77.664 46.44314 
L 71.712 47.990917 
L 71.482267 48.096 
L 65.76 50.92898 
L 62.520842 53.64 
L 59.808 56.120757 
L 57.817182 59.184 
L 54.553273 64.728 
L 53.856 66.05361 
L 52.587741 70.272 
L 51.124309 75.816 
L 49.874934 81.36 
L 48.850389 86.904 
L 48.062436 92.448 
L 47.904 94.076909 
L 47.51571 97.992 
L 47.263891 103.536 
L 47.266505 109.08 
L 47.542522 114.624 
L 47.904 117.77177 
L 48.169933 120.168 
L 49.122366 125.712 
L 50.434829 131.256 
L 52.133697 136.8 
L 53.856 141.313154 
L 54.515345 142.344 
L 58.808831 147.888 
L 59.808 148.973273 
L 65.76 153.182776 
L 66.270513 153.432 
L 71.712 155.697597 
L 77.664 157.495385 
L 83.616 158.847978 
L 84.348398 158.976 
L 89.568 159.760396 
L 95.52 160.467259 
L 101.472 161.037033 
L 107.424 161.503465 
L 113.376 161.890093 
L 119.328 162.213754 
L 125.28 162.486758 
L 131.232 162.718286 
L 137.184 162.915313 
L 143.136 163.083225 
L 149.088 163.226249 
L 155.04 163.347747 
L 160.992 163.450433 
L 166.944 163.536522 
L 172.896 163.607847 
L 178.848 163.665939 
L 184.8 163.712094 
L 190.752 163.747416 
L 196.704 163.772855 
L 202.656 163.789237 
L 208.608 163.797285 
L 214.56 163.797638 
L 214.56 164.52 
L 214.56 165.675267 
L 208.608 165.665562 
L 202.656 165.649235 
L 196.704 165.62573 
L 190.752 165.594416 
L 184.8 165.554574 
L 178.848 165.505377 
L 172.896 165.445863 
L 166.944 165.374907 
L 160.992 165.291178 
L 155.04 165.193086 
L 149.088 165.078707 
L 143.136 164.957024 
L 137.184 164.808194 
L 131.232 164.621173 
L 128.64747 164.52 
L 125.28 164.381704 
L 119.328 164.095079 
L 113.376 163.757892 
L 107.424 163.357887 
L 101.472 162.878287 
L 95.52 162.295627 
L 89.568 161.576251 
L 83.616 160.67049 
L 77.664 159.502552 
L 75.650605 158.976 
L 71.712 157.779561 
L 65.76 155.28959 
L 62.682163 153.432 
L 59.808 151.398487 
L 56.576031 147.888 
L 53.856 144.378208 
L 52.726136 142.344 
L 50.795391 136.8 
L 49.093902 131.256 
L 47.904 126.238833 
z
" clip-path="url(#p1678fb7ccc)" style="fill: #3e4989"/>
   </g>
   <g id="PathCollection_6">
    <path d="M 47.542522 114.624 
L 47.266505 109.08 
L 47.263891 103.536 
L 47.51571 97.992 
L 47.904 94.076909 
L 48.062436 92.448 
L 48.850389 86.904 
L 49.874934 81.36 
L 51.124309 75.816 
L 52.587741 70.272 
L 53.856 66.05361 
L 54.553273 64.728 
L 57.817182 59.184 
L 59.808 56.120757 
L 62.520842 53.64 
L 65.76 50.92898 
L 71.482267 48.096 
L 71.712 47.990917 
L 77.664 46.44314 
L 83.616 45.681119 
L 89.568 45.449138 
L 95.52 45.581814 
L 101.472 45.968289 
L 107.424 46.532154 
L 113.376 47.219588 
L 119.328 47.992029 
L 120.066991 48.096 
L 125.28 48.867938 
L 131.232 49.788185 
L 137.184 50.729922 
L 143.136 51.681242 
L 149.088 52.63334 
L 155.04 53.579716 
L 155.419849 53.64 
L 160.992 54.574583 
L 166.944 55.557373 
L 172.896 56.521448 
L 178.848 57.465078 
L 184.8 58.387138 
L 190.065418 59.184 
L 190.752 59.294426 
L 196.704 60.234585 
L 202.656 61.14942 
L 208.608 62.03921 
L 214.56 62.904384 
L 214.56 64.728 
L 214.56 65.976175 
L 208.608 65.07011 
L 206.411828 64.728 
L 202.656 64.181558 
L 196.704 63.294469 
L 190.752 62.383232 
L 184.8 61.447834 
L 178.848 60.488541 
L 172.896 59.505988 
L 170.974572 59.184 
L 166.944 58.549185 
L 160.992 57.597273 
L 155.04 56.630473 
L 149.088 55.652422 
L 143.136 54.668152 
L 137.184 53.684548 
L 136.908551 53.64 
L 131.232 52.772766 
L 125.28 51.886587 
L 119.328 51.039167 
L 113.376 50.252336 
L 107.424 49.55593 
L 101.472 48.991118 
L 95.52 48.615449 
L 89.568 48.510731 
L 83.616 48.795784 
L 77.664 49.648015 
L 71.712 51.341898 
L 67.111736 53.64 
L 65.76 54.37809 
L 60.505442 59.184 
L 59.808 59.889579 
L 56.950934 64.728 
L 54.033903 70.272 
L 53.856 70.657674 
L 52.492017 75.816 
L 51.239916 81.36 
L 50.212655 86.904 
L 49.421997 92.448 
L 48.880821 97.992 
L 48.60326 103.536 
L 48.604871 109.08 
L 48.902823 114.624 
L 49.516132 120.168 
L 50.465923 125.712 
L 51.775756 131.256 
L 53.472004 136.8 
L 53.856 137.806231 
L 56.758428 142.344 
L 59.808 146.28601 
L 61.718271 147.888 
L 65.76 150.741642 
L 71.270951 153.432 
L 71.712 153.615633 
L 77.664 155.398886 
L 83.616 156.735844 
L 89.568 157.766865 
L 95.52 158.580351 
L 99.132988 158.976 
L 101.472 159.195779 
L 107.424 159.649043 
L 113.376 160.022294 
L 119.328 160.33243 
L 125.28 160.591812 
L 131.232 160.809663 
L 137.184 160.992994 
L 143.136 161.147222 
L 149.088 161.276596 
L 155.04 161.384501 
L 160.992 161.473665 
L 166.944 161.546321 
L 172.896 161.604313 
L 178.848 161.649182 
L 184.8 161.682232 
L 190.752 161.704572 
L 196.704 161.717161 
L 202.656 161.720828 
L 208.608 161.716298 
L 214.56 161.704214 
L 214.56 163.797638 
L 208.608 163.797285 
L 202.656 163.789237 
L 196.704 163.772855 
L 190.752 163.747416 
L 184.8 163.712094 
L 178.848 163.665939 
L 172.896 163.607847 
L 166.944 163.536522 
L 160.992 163.450433 
L 155.04 163.347747 
L 149.088 163.226249 
L 143.136 163.083225 
L 137.184 162.915313 
L 131.232 162.718286 
L 125.28 162.486758 
L 119.328 162.213754 
L 113.376 161.890093 
L 107.424 161.503465 
L 101.472 161.037033 
L 95.52 160.467259 
L 89.568 159.760396 
L 84.348398 158.976 
L 83.616 158.847978 
L 77.664 157.495385 
L 71.712 155.697597 
L 66.270513 153.432 
L 65.76 153.182776 
L 59.808 148.973273 
L 58.808831 147.888 
L 54.515345 142.344 
L 53.856 141.313154 
L 52.133697 136.8 
L 50.434829 131.256 
L 49.122366 125.712 
L 48.169933 120.168 
L 47.904 117.77177 
z
" clip-path="url(#p1678fb7ccc)" style="fill: #375b8d"/>
   </g>
   <g id="PathCollection_7">
    <path d="M 53.472004 136.8 
L 51.775756 131.256 
L 50.465923 125.712 
L 49.516132 120.168 
L 48.902823 114.624 
L 48.604871 109.08 
L 48.60326 103.536 
L 48.880821 97.992 
L 49.421997 92.448 
L 50.212655 86.904 
L 51.239916 81.36 
L 52.492017 75.816 
L 53.856 70.657674 
L 54.033903 70.272 
L 56.950934 64.728 
L 59.808 59.889579 
L 60.505442 59.184 
L 65.76 54.37809 
L 67.111736 53.64 
L 71.712 51.341898 
L 77.664 49.648015 
L 83.616 48.795784 
L 89.568 48.510731 
L 95.52 48.615449 
L 101.472 48.991118 
L 107.424 49.55593 
L 113.376 50.252336 
L 119.328 51.039167 
L 125.28 51.886587 
L 131.232 52.772766 
L 136.908551 53.64 
L 137.184 53.684548 
L 143.136 54.668152 
L 149.088 55.652422 
L 155.04 56.630473 
L 160.992 57.597273 
L 166.944 58.549185 
L 170.974572 59.184 
L 172.896 59.505988 
L 178.848 60.488541 
L 184.8 61.447834 
L 190.752 62.383232 
L 196.704 63.294469 
L 202.656 64.181558 
L 206.411828 64.728 
L 208.608 65.07011 
L 214.56 65.976175 
L 214.56 69.192823 
L 208.608 68.31657 
L 202.656 67.414882 
L 196.704 66.487289 
L 190.752 65.533477 
L 185.851477 64.728 
L 184.8 64.566797 
L 178.848 63.638961 
L 172.896 62.689227 
L 166.944 61.718788 
L 160.992 60.729482 
L 155.04 59.724008 
L 151.864706 59.184 
L 149.088 58.740789 
L 143.136 57.791401 
L 137.184 56.844084 
L 131.232 55.908215 
L 125.28 54.996492 
L 119.328 54.126125 
L 115.718292 53.64 
L 113.376 53.342532 
L 107.424 52.683452 
L 101.472 52.156823 
L 95.52 51.819983 
L 89.568 51.754441 
L 83.616 52.078608 
L 77.664 52.969336 
L 75.342248 53.64 
L 71.712 54.786152 
L 65.76 58.048989 
L 64.519031 59.184 
L 59.808 63.949999 
L 59.348594 64.728 
L 56.419819 70.272 
L 53.862464 75.816 
L 53.856 75.83242 
L 52.604897 81.36 
L 51.574921 86.904 
L 50.781559 92.448 
L 50.237689 97.992 
L 49.957445 103.536 
L 49.956383 109.08 
L 50.251673 114.624 
L 50.862331 120.168 
L 51.809481 125.712 
L 53.116683 131.256 
L 53.856 133.673449 
L 55.462881 136.8 
L 59.00151 142.344 
L 59.808 143.386504 
L 65.175747 147.888 
L 65.76 148.300508 
L 71.712 151.18945 
L 77.664 153.27869 
L 78.251776 153.432 
L 83.616 154.62371 
L 89.568 155.638217 
L 95.52 156.434488 
L 101.472 157.070626 
L 107.424 157.586035 
L 113.376 158.008216 
L 119.328 158.356844 
L 125.28 158.646309 
L 131.232 158.887348 
L 133.872595 158.976 
L 137.184 159.070676 
L 143.136 159.211219 
L 149.088 159.326943 
L 155.04 159.421254 
L 160.992 159.496898 
L 166.944 159.556121 
L 172.896 159.600779 
L 178.848 159.632425 
L 184.8 159.652369 
L 190.752 159.661729 
L 196.704 159.661467 
L 202.656 159.652418 
L 208.608 159.635312 
L 214.56 159.61079 
L 214.56 161.704214 
L 208.608 161.716298 
L 202.656 161.720828 
L 196.704 161.717161 
L 190.752 161.704572 
L 184.8 161.682232 
L 178.848 161.649182 
L 172.896 161.604313 
L 166.944 161.546321 
L 160.992 161.473665 
L 155.04 161.384501 
L 149.088 161.276596 
L 143.136 161.147222 
L 137.184 160.992994 
L 131.232 160.809663 
L 125.28 160.591812 
L 119.328 160.33243 
L 113.376 160.022294 
L 107.424 159.649043 
L 101.472 159.195779 
L 99.132988 158.976 
L 95.52 158.580351 
L 89.568 157.766865 
L 83.616 156.735844 
L 77.664 155.398886 
L 71.712 153.615633 
L 71.270951 153.432 
L 65.76 150.741642 
L 61.718271 147.888 
L 59.808 146.28601 
L 56.758428 142.344 
L 53.856 137.806231 
z
" clip-path="url(#p1678fb7ccc)" style="fill: #2f6b8e"/>
   </g>
   <g id="PathCollection_8">
    <path d="M 53.116683 131.256 
L 51.809481 125.712 
L 50.862331 120.168 
L 50.251673 114.624 
L 49.956383 109.08 
L 49.957445 103.536 
L 50.237689 97.992 
L 50.781559 92.448 
L 51.574921 86.904 
L 52.604897 81.36 
L 53.856 75.83242 
L 53.862464 75.816 
L 56.419819 70.272 
L 59.348594 64.728 
L 59.808 63.949999 
L 64.519031 59.184 
L 65.76 58.048989 
L 71.712 54.786152 
L 75.342248 53.64 
L 77.664 52.969336 
L 83.616 52.078608 
L 89.568 51.754441 
L 95.52 51.819983 
L 101.472 52.156823 
L 107.424 52.683452 
L 113.376 53.342532 
L 115.718292 53.64 
L 119.328 54.126125 
L 125.28 54.996492 
L 131.232 55.908215 
L 137.184 56.844084 
L 143.136 57.791401 
L 149.088 58.740789 
L 151.864706 59.184 
L 155.04 59.724008 
L 160.992 60.729482 
L 166.944 61.718788 
L 172.896 62.689227 
L 178.848 63.638961 
L 184.8 64.566797 
L 185.851477 64.728 
L 190.752 65.533477 
L 196.704 66.487289 
L 202.656 67.414882 
L 208.608 68.31657 
L 214.56 69.192823 
L 214.56 70.272 
L 214.56 72.604941 
L 208.608 71.682289 
L 202.656 70.731679 
L 199.845855 70.272 
L 196.704 69.797284 
L 190.752 68.877341 
L 184.8 67.932582 
L 178.848 66.963281 
L 172.896 65.970107 
L 166.944 64.954251 
L 165.632727 64.728 
L 160.992 63.982709 
L 155.04 63.014529 
L 149.088 62.035624 
L 143.136 61.051383 
L 137.184 60.069187 
L 131.746874 59.184 
L 131.232 59.105459 
L 125.28 58.232864 
L 119.328 57.403019 
L 113.376 56.639283 
L 107.424 55.973628 
L 101.472 55.450244 
L 95.52 55.131 
L 89.568 55.103982 
L 83.616 55.497315 
L 77.664 56.50254 
L 71.712 58.416326 
L 70.317009 59.184 
L 65.76 61.958676 
L 63.02027 64.728 
L 59.808 68.376227 
L 58.805735 70.272 
L 56.236751 75.816 
L 54.053122 81.36 
L 53.856 81.970272 
L 52.937187 86.904 
L 52.14112 92.448 
L 51.594557 97.992 
L 51.31163 103.536 
L 51.307895 109.08 
L 51.600524 114.624 
L 52.208529 120.168 
L 53.153039 125.712 
L 53.856 128.696656 
L 54.871718 131.256 
L 57.716341 136.8 
L 59.808 140.080479 
L 62.041701 142.344 
L 65.76 145.459525 
L 69.975454 147.888 
L 71.712 148.729968 
L 77.664 150.798899 
L 83.616 152.341814 
L 89.108695 153.432 
L 89.568 153.509569 
L 95.52 154.288624 
L 101.472 154.906992 
L 107.424 155.404195 
L 113.376 155.807835 
L 119.328 156.137668 
L 125.28 156.408154 
L 131.232 156.630089 
L 137.184 156.811678 
L 143.136 156.959259 
L 149.088 157.07781 
L 155.04 157.17129 
L 160.992 157.242893 
L 166.944 157.295227 
L 172.896 157.33045 
L 178.848 157.350361 
L 184.8 157.35648 
L 190.752 157.350105 
L 196.704 157.332348 
L 202.656 157.304176 
L 208.608 157.266435 
L 214.56 157.219868 
L 214.56 158.976 
L 214.56 159.61079 
L 208.608 159.635312 
L 202.656 159.652418 
L 196.704 159.661467 
L 190.752 159.661729 
L 184.8 159.652369 
L 178.848 159.632425 
L 172.896 159.600779 
L 166.944 159.556121 
L 160.992 159.496898 
L 155.04 159.421254 
L 149.088 159.326943 
L 143.136 159.211219 
L 137.184 159.070676 
L 133.872595 158.976 
L 131.232 158.887348 
L 125.28 158.646309 
L 119.328 158.356844 
L 113.376 158.008216 
L 107.424 157.586035 
L 101.472 157.070626 
L 95.52 156.434488 
L 89.568 155.638217 
L 83.616 154.62371 
L 78.251776 153.432 
L 77.664 153.27869 
L 71.712 151.18945 
L 65.76 148.300508 
L 65.175747 147.888 
L 59.808 143.386504 
L 59.00151 142.344 
L 55.462881 136.8 
L 53.856 133.673449 
z
" clip-path="url(#p1678fb7ccc)" style="fill: #297a8e"/>
   </g>
   <g id="PathCollection_9">
    <path d="M 53.153039 125.712 
L 52.208529 120.168 
L 51.600524 114.624 
L 51.307895 109.08 
L 51.31163 103.536 
L 51.594557 97.992 
L 52.14112 92.448 
L 52.937187 86.904 
L 53.856 81.970272 
L 54.053122 81.36 
L 56.236751 75.816 
L 58.805735 70.272 
L 59.808 68.376227 
L 63.02027 64.728 
L 65.76 61.958676 
L 70.317009 59.184 
L 71.712 58.416326 
L 77.664 56.50254 
L 83.616 55.497315 
L 89.568 55.103982 
L 95.52 55.131 
L 101.472 55.450244 
L 107.424 55.973628 
L 113.376 56.639283 
L 119.328 57.403019 
L 125.28 58.232864 
L 131.232 59.105459 
L 131.746874 59.184 
L 137.184 60.069187 
L 143.136 61.051383 
L 149.088 62.035624 
L 155.04 63.014529 
L 160.992 63.982709 
L 165.632727 64.728 
L 166.944 64.954251 
L 172.896 65.970107 
L 178.848 66.963281 
L 184.8 67.932582 
L 190.752 68.877341 
L 196.704 69.797284 
L 199.845855 70.272 
L 202.656 70.731679 
L 208.608 71.682289 
L 214.56 72.604941 
L 214.56 75.816 
L 214.56 76.147801 
L 212.535422 75.816 
L 208.608 75.22864 
L 202.656 74.315164 
L 196.704 73.374798 
L 190.752 72.40718 
L 184.8 71.412179 
L 178.848 70.389972 
L 178.171142 70.272 
L 172.896 69.424924 
L 166.944 68.449446 
L 160.992 67.455014 
L 155.04 66.444531 
L 149.088 65.422124 
L 145.054119 64.728 
L 143.136 64.421388 
L 137.184 63.481478 
L 131.232 62.55541 
L 125.28 61.65686 
L 119.328 60.804398 
L 113.376 60.02334 
L 107.424 59.34843 
L 105.525891 59.184 
L 101.472 58.856246 
L 95.52 58.581992 
L 89.568 58.600451 
L 83.616 59.039272 
L 82.786722 59.184 
L 77.664 60.172474 
L 71.712 62.312777 
L 67.770661 64.728 
L 65.76 66.112573 
L 62.089703 70.272 
L 59.808 73.237794 
L 58.611037 75.816 
L 56.415891 81.36 
L 54.621429 86.904 
L 53.856 89.979136 
L 53.500682 92.448 
L 52.951425 97.992 
L 52.665815 103.536 
L 52.659407 109.08 
L 52.949374 114.624 
L 53.554728 120.168 
L 53.856 121.938971 
L 54.940463 125.712 
L 57.135652 131.256 
L 59.808 136.482108 
L 60.060626 136.8 
L 65.529381 142.344 
L 65.76 142.537234 
L 71.712 145.948796 
L 76.419588 147.888 
L 77.664 148.319107 
L 83.616 149.840118 
L 89.568 150.999111 
L 95.52 151.900463 
L 101.472 152.612659 
L 107.424 153.182167 
L 110.676723 153.432 
L 113.376 153.607453 
L 119.328 153.918491 
L 125.28 154.17 
L 131.232 154.37283 
L 137.184 154.535238 
L 143.136 154.663603 
L 149.088 154.762936 
L 155.04 154.837227 
L 160.992 154.889694 
L 166.944 154.922968 
L 172.896 154.939222 
L 178.848 154.940273 
L 184.8 154.927653 
L 190.752 154.902669 
L 196.704 154.866445 
L 202.656 154.819954 
L 208.608 154.764047 
L 214.56 154.699475 
L 214.56 157.219868 
L 208.608 157.266435 
L 202.656 157.304176 
L 196.704 157.332348 
L 190.752 157.350105 
L 184.8 157.35648 
L 178.848 157.350361 
L 172.896 157.33045 
L 166.944 157.295227 
L 160.992 157.242893 
L 155.04 157.17129 
L 149.088 157.07781 
L 143.136 156.959259 
L 137.184 156.811678 
L 131.232 156.630089 
L 125.28 156.408154 
L 119.328 156.137668 
L 113.376 155.807835 
L 107.424 155.404195 
L 101.472 154.906992 
L 95.52 154.288624 
L 89.568 153.509569 
L 89.108695 153.432 
L 83.616 152.341814 
L 77.664 150.798899 
L 71.712 148.729968 
L 69.975454 147.888 
L 65.76 145.459525 
L 62.041701 142.344 
L 59.808 140.080479 
L 57.716341 136.8 
L 54.871718 131.256 
L 53.856 128.696656 
z
" clip-path="url(#p1678fb7ccc)" style="fill: #23898e"/>
   </g>
   <g id="PathCollection_10">
    <path d="M 53.554728 120.168 
L 52.949374 114.624 
L 52.659407 109.08 
L 52.665815 103.536 
L 52.951425 97.992 
L 53.500682 92.448 
L 53.856 89.979136 
L 54.621429 86.904 
L 56.415891 81.36 
L 58.611037 75.816 
L 59.808 73.237794 
L 62.089703 70.272 
L 65.76 66.112573 
L 67.770661 64.728 
L 71.712 62.312777 
L 77.664 60.172474 
L 82.786722 59.184 
L 83.616 59.039272 
L 89.568 58.600451 
L 95.52 58.581992 
L 101.472 58.856246 
L 105.525891 59.184 
L 107.424 59.34843 
L 113.376 60.02334 
L 119.328 60.804398 
L 125.28 61.65686 
L 131.232 62.55541 
L 137.184 63.481478 
L 143.136 64.421388 
L 145.054119 64.728 
L 149.088 65.422124 
L 155.04 66.444531 
L 160.992 67.455014 
L 166.944 68.449446 
L 172.896 69.424924 
L 178.171142 70.272 
L 178.848 70.389972 
L 184.8 71.412179 
L 190.752 72.40718 
L 196.704 73.374798 
L 202.656 74.315164 
L 208.608 75.22864 
L 212.535422 75.816 
L 214.56 76.147801 
L 214.56 80.034026 
L 208.608 79.094952 
L 202.656 78.126467 
L 196.704 77.127854 
L 190.752 76.098564 
L 189.150832 75.816 
L 184.8 75.117571 
L 178.848 74.139845 
L 172.896 73.13762 
L 166.944 72.112174 
L 160.992 71.065544 
L 156.540729 70.272 
L 155.04 70.026081 
L 149.088 69.049817 
L 143.136 68.069472 
L 137.184 67.09306 
L 131.232 66.131518 
L 125.28 65.199743 
L 122.073595 64.728 
L 119.328 64.353983 
L 113.376 63.622092 
L 107.424 62.997906 
L 101.472 62.529378 
L 95.52 62.28377 
L 89.568 62.357014 
L 83.616 62.888873 
L 77.664 64.088591 
L 75.911645 64.728 
L 71.712 66.4493 
L 66.186911 70.272 
L 65.76 70.610738 
L 61.73993 75.816 
L 59.808 78.767185 
L 58.77866 81.36 
L 56.972793 86.904 
L 55.584496 92.448 
L 54.632298 97.992 
L 54.136698 103.536 
L 54.120423 109.08 
L 54.608732 114.624 
L 55.629766 120.168 
L 57.214968 125.712 
L 59.399585 131.256 
L 59.808 132.054706 
L 63.579041 136.8 
L 65.76 139.011789 
L 70.566621 142.344 
L 71.712 143.000173 
L 77.664 145.427832 
L 83.616 147.226865 
L 86.50973 147.888 
L 89.568 148.474214 
L 95.52 149.351308 
L 101.472 150.038387 
L 107.424 150.582082 
L 113.376 151.014967 
L 119.328 151.360374 
L 125.28 151.635385 
L 131.232 151.852756 
L 137.184 152.022185 
L 143.136 152.151166 
L 149.088 152.24558 
L 155.04 152.310107 
L 160.992 152.348521 
L 166.944 152.363902 
L 172.896 152.358794 
L 178.848 152.335321 
L 184.8 152.295275 
L 190.752 152.240183 
L 196.704 152.171355 
L 202.656 152.089928 
L 208.608 151.996896 
L 214.56 151.893132 
L 214.56 153.432 
L 214.56 154.699475 
L 208.608 154.764047 
L 202.656 154.819954 
L 196.704 154.866445 
L 190.752 154.902669 
L 184.8 154.927653 
L 178.848 154.940273 
L 172.896 154.939222 
L 166.944 154.922968 
L 160.992 154.889694 
L 155.04 154.837227 
L 149.088 154.762936 
L 143.136 154.663603 
L 137.184 154.535238 
L 131.232 154.37283 
L 125.28 154.17 
L 119.328 153.918491 
L 113.376 153.607453 
L 110.676723 153.432 
L 107.424 153.182167 
L 101.472 152.612659 
L 95.52 151.900463 
L 89.568 150.999111 
L 83.616 149.840118 
L 77.664 148.319107 
L 76.419588 147.888 
L 71.712 145.948796 
L 65.76 142.537234 
L 65.529381 142.344 
L 60.060626 136.8 
L 59.808 136.482108 
L 57.135652 131.256 
L 54.940463 125.712 
L 53.856 121.938971 
z
" clip-path="url(#p1678fb7ccc)" style="fill: #1f988b"/>
   </g>
   <g id="PathCollection_11">
    <path d="M 59.399585 131.256 
L 57.214968 125.712 
L 55.629766 120.168 
L 54.608732 114.624 
L 54.120423 109.08 
L 54.136698 103.536 
L 54.632298 97.992 
L 55.584496 92.448 
L 56.972793 86.904 
L 58.77866 81.36 
L 59.808 78.767185 
L 61.73993 75.816 
L 65.76 70.610738 
L 66.186911 70.272 
L 71.712 66.4493 
L 75.911645 64.728 
L 77.664 64.088591 
L 83.616 62.888873 
L 89.568 62.357014 
L 95.52 62.28377 
L 101.472 62.529378 
L 107.424 62.997906 
L 113.376 63.622092 
L 119.328 64.353983 
L 122.073595 64.728 
L 125.28 65.199743 
L 131.232 66.131518 
L 137.184 67.09306 
L 143.136 68.069472 
L 149.088 69.049817 
L 155.04 70.026081 
L 156.540729 70.272 
L 160.992 71.065544 
L 166.944 72.112174 
L 172.896 73.13762 
L 178.848 74.139845 
L 184.8 75.117571 
L 189.150832 75.816 
L 190.752 76.098564 
L 196.704 77.127854 
L 202.656 78.126467 
L 208.608 79.094952 
L 214.56 80.034026 
L 214.56 81.36 
L 214.56 84.246845 
L 208.608 83.239831 
L 202.656 82.199045 
L 197.999192 81.36 
L 196.704 81.151162 
L 190.752 80.172021 
L 184.8 79.164347 
L 178.848 78.128303 
L 172.896 77.064505 
L 166.944 75.974189 
L 166.088613 75.816 
L 160.992 74.96198 
L 155.04 73.950835 
L 149.088 72.928537 
L 143.136 71.901405 
L 137.184 70.878183 
L 133.580041 70.272 
L 131.232 69.910365 
L 125.28 69.033371 
L 119.328 68.208666 
L 113.376 67.46399 
L 107.424 66.837493 
L 101.472 66.382156 
L 95.52 66.172476 
L 89.568 66.31494 
L 83.616 66.964957 
L 77.664 68.355511 
L 73.072488 70.272 
L 71.712 70.922747 
L 65.76 75.65547 
L 65.636021 75.816 
L 61.98551 81.36 
L 59.808 85.422678 
L 59.324156 86.904 
L 57.924563 92.448 
L 56.961177 97.992 
L 56.454495 103.536 
L 56.427244 109.08 
L 56.904679 114.624 
L 57.914941 120.168 
L 59.489473 125.712 
L 59.808 126.521046 
L 62.717329 131.256 
L 65.76 135.096733 
L 67.745604 136.8 
L 71.712 139.539306 
L 77.403495 142.344 
L 77.664 142.449968 
L 83.616 144.217359 
L 89.568 145.551391 
L 95.52 146.576691 
L 101.472 147.375052 
L 106.352499 147.888 
L 107.424 147.981996 
L 113.376 148.388507 
L 119.328 148.707091 
L 125.28 148.954927 
L 131.232 149.144851 
L 137.184 149.286629 
L 143.136 149.387813 
L 149.088 149.454334 
L 155.04 149.490914 
L 160.992 149.501364 
L 166.944 149.488794 
L 172.896 149.455777 
L 178.848 149.40446 
L 184.8 149.336655 
L 190.752 149.253905 
L 196.704 149.157536 
L 202.656 149.048699 
L 208.608 148.928398 
L 214.56 148.797516 
L 214.56 151.893132 
L 208.608 151.996896 
L 202.656 152.089928 
L 196.704 152.171355 
L 190.752 152.240183 
L 184.8 152.295275 
L 178.848 152.335321 
L 172.896 152.358794 
L 166.944 152.363902 
L 160.992 152.348521 
L 155.04 152.310107 
L 149.088 152.24558 
L 143.136 152.151166 
L 137.184 152.022185 
L 131.232 151.852756 
L 125.28 151.635385 
L 119.328 151.360374 
L 113.376 151.014967 
L 107.424 150.582082 
L 101.472 150.038387 
L 95.52 149.351308 
L 89.568 148.474214 
L 86.50973 147.888 
L 83.616 147.226865 
L 77.664 145.427832 
L 71.712 143.000173 
L 70.566621 142.344 
L 65.76 139.011789 
L 63.579041 136.8 
L 59.808 132.054706 
z
" clip-path="url(#p1678fb7ccc)" style="fill: #22a785"/>
   </g>
   <g id="PathCollection_12">
    <path d="M 59.489473 125.712 
L 57.914941 120.168 
L 56.904679 114.624 
L 56.427244 109.08 
L 56.454495 103.536 
L 56.961177 97.992 
L 57.924563 92.448 
L 59.324156 86.904 
L 59.808 85.422678 
L 61.98551 81.36 
L 65.636021 75.816 
L 65.76 75.65547 
L 71.712 70.922747 
L 73.072488 70.272 
L 77.664 68.355511 
L 83.616 66.964957 
L 89.568 66.31494 
L 95.52 66.172476 
L 101.472 66.382156 
L 107.424 66.837493 
L 113.376 67.46399 
L 119.328 68.208666 
L 125.28 69.033371 
L 131.232 69.910365 
L 133.580041 70.272 
L 137.184 70.878183 
L 143.136 71.901405 
L 149.088 72.928537 
L 155.04 73.950835 
L 160.992 74.96198 
L 166.088613 75.816 
L 166.944 75.974189 
L 172.896 77.064505 
L 178.848 78.128303 
L 184.8 79.164347 
L 190.752 80.172021 
L 196.704 81.151162 
L 197.999192 81.36 
L 202.656 82.199045 
L 208.608 83.239831 
L 214.56 84.246845 
L 214.56 86.904 
L 214.56 88.898419 
L 208.608 87.79996 
L 203.910272 86.904 
L 202.656 86.694818 
L 196.704 85.680498 
L 190.752 84.63368 
L 184.8 83.553942 
L 178.848 82.441212 
L 173.224182 81.36 
L 172.896 81.303816 
L 166.944 80.274458 
L 160.992 79.223773 
L 155.04 78.155129 
L 149.088 77.073406 
L 143.136 75.985522 
L 142.192117 75.816 
L 137.184 75.005027 
L 131.232 74.062294 
L 125.28 73.154876 
L 119.328 72.305349 
L 113.376 71.544693 
L 107.424 70.915694 
L 101.472 70.477983 
L 95.52 70.315688 
L 89.568 70.549391 
L 83.616 71.35548 
L 77.664 72.998819 
L 71.863678 75.816 
L 71.712 75.902746 
L 65.893497 81.36 
L 65.76 81.513652 
L 62.843149 86.904 
L 60.546642 92.448 
L 59.808 95.038988 
L 59.290056 97.992 
L 58.772292 103.536 
L 58.734064 109.08 
L 59.200626 114.624 
L 59.808 117.986778 
L 60.428125 120.168 
L 62.887972 125.712 
L 65.76 130.417791 
L 66.517364 131.256 
L 71.712 135.706688 
L 73.514714 136.8 
L 77.664 138.822582 
L 83.616 140.947539 
L 88.823508 142.344 
L 89.568 142.508245 
L 95.52 143.498237 
L 101.472 144.259892 
L 107.424 144.848946 
L 113.376 145.304351 
L 119.328 145.654015 
L 125.28 145.918376 
L 131.232 146.112698 
L 137.184 146.248586 
L 143.136 146.335007 
L 149.088 146.378995 
L 155.04 146.386143 
L 160.992 146.360959 
L 166.944 146.30712 
L 172.896 146.227659 
L 178.848 146.125107 
L 184.8 146.001593 
L 190.752 145.858931 
L 196.704 145.698677 
L 202.656 145.522178 
L 208.608 145.330609 
L 214.56 145.125002 
L 214.56 147.888 
L 214.56 148.797516 
L 208.608 148.928398 
L 202.656 149.048699 
L 196.704 149.157536 
L 190.752 149.253905 
L 184.8 149.336655 
L 178.848 149.40446 
L 172.896 149.455777 
L 166.944 149.488794 
L 160.992 149.501364 
L 155.04 149.490914 
L 149.088 149.454334 
L 143.136 149.387813 
L 137.184 149.286629 
L 131.232 149.144851 
L 125.28 148.954927 
L 119.328 148.707091 
L 113.376 148.388507 
L 107.424 147.981996 
L 106.352499 147.888 
L 101.472 147.375052 
L 95.52 146.576691 
L 89.568 145.551391 
L 83.616 144.217359 
L 77.664 142.449968 
L 77.403495 142.344 
L 71.712 139.539306 
L 67.745604 136.8 
L 65.76 135.096733 
L 62.717329 131.256 
L 59.808 126.521046 
z
" clip-path="url(#p1678fb7ccc)" style="fill: #32b67a"/>
   </g>
   <g id="PathCollection_13">
    <path d="M 59.200626 114.624 
L 58.734064 109.08 
L 58.772292 103.536 
L 59.290056 97.992 
L 59.808 95.038988 
L 60.546642 92.448 
L 62.843149 86.904 
L 65.76 81.513652 
L 65.893497 81.36 
L 71.712 75.902746 
L 71.863678 75.816 
L 77.664 72.998819 
L 83.616 71.35548 
L 89.568 70.549391 
L 95.52 70.315688 
L 101.472 70.477983 
L 107.424 70.915694 
L 113.376 71.544693 
L 119.328 72.305349 
L 125.28 73.154876 
L 131.232 74.062294 
L 137.184 75.005027 
L 142.192117 75.816 
L 143.136 75.985522 
L 149.088 77.073406 
L 155.04 78.155129 
L 160.992 79.223773 
L 166.944 80.274458 
L 172.896 81.303816 
L 173.224182 81.36 
L 178.848 82.441212 
L 184.8 83.553942 
L 190.752 84.63368 
L 196.704 85.680498 
L 202.656 86.694818 
L 203.910272 86.904 
L 208.608 87.79996 
L 214.56 88.898419 
L 214.56 92.448 
L 214.56 94.267202 
L 208.608 93.041108 
L 205.817014 92.448 
L 202.656 91.880838 
L 196.704 90.782833 
L 190.752 89.646108 
L 184.8 88.469777 
L 178.848 87.253309 
L 177.171388 86.904 
L 172.896 86.13205 
L 166.944 85.034753 
L 160.992 83.91241 
L 155.04 82.76859 
L 149.088 81.608594 
L 147.80279 81.36 
L 143.136 80.562653 
L 137.184 79.55663 
L 131.232 78.571495 
L 125.28 77.625883 
L 119.328 76.745434 
L 113.376 75.96554 
L 111.942476 75.816 
L 107.424 75.394584 
L 101.472 75.035599 
L 95.52 74.95422 
L 89.568 75.270457 
L 85.89251 75.816 
L 83.616 76.21224 
L 77.664 78.207735 
L 72.216581 81.36 
L 71.712 81.717469 
L 67.187575 86.904 
L 65.76 89.041485 
L 64.331917 92.448 
L 62.723784 97.992 
L 61.862861 103.536 
L 61.775098 109.08 
L 62.490194 114.624 
L 64.042084 120.168 
L 65.76 124.081194 
L 66.826499 125.712 
L 71.712 131.134641 
L 71.86775 131.256 
L 77.664 134.742382 
L 82.343945 136.8 
L 83.616 137.248498 
L 89.568 138.796403 
L 95.52 139.966429 
L 101.472 140.858005 
L 107.424 141.538615 
L 113.376 142.055379 
L 117.836328 142.344 
L 119.328 142.422404 
L 125.28 142.646362 
L 131.232 142.799693 
L 137.184 142.894097 
L 143.136 142.938623 
L 149.088 142.940376 
L 155.04 142.905012 
L 160.992 142.837091 
L 166.944 142.740336 
L 172.896 142.617822 
L 178.848 142.472115 
L 183.433675 142.344 
L 184.8 142.293907 
L 190.752 142.051755 
L 196.704 141.784909 
L 202.656 141.494901 
L 208.608 141.18306 
L 214.56 140.850544 
L 214.56 142.344 
L 214.56 145.125002 
L 208.608 145.330609 
L 202.656 145.522178 
L 196.704 145.698677 
L 190.752 145.858931 
L 184.8 146.001593 
L 178.848 146.125107 
L 172.896 146.227659 
L 166.944 146.30712 
L 160.992 146.360959 
L 155.04 146.386143 
L 149.088 146.378995 
L 143.136 146.335007 
L 137.184 146.248586 
L 131.232 146.112698 
L 125.28 145.918376 
L 119.328 145.654015 
L 113.376 145.304351 
L 107.424 144.848946 
L 101.472 144.259892 
L 95.52 143.498237 
L 89.568 142.508245 
L 88.823508 142.344 
L 83.616 140.947539 
L 77.664 138.822582 
L 73.514714 136.8 
L 71.712 135.706688 
L 66.517364 131.256 
L 65.76 130.417791 
L 62.887972 125.712 
L 60.428125 120.168 
L 59.808 117.986778 
z
" clip-path="url(#p1678fb7ccc)" style="fill: #4ec36b"/>
   </g>
   <g id="PathCollection_14">
    <path d="M 64.042084 120.168 
L 62.490194 114.624 
L 61.775098 109.08 
L 61.862861 103.536 
L 62.723784 97.992 
L 64.331917 92.448 
L 65.76 89.041485 
L 67.187575 86.904 
L 71.712 81.717469 
L 72.216581 81.36 
L 77.664 78.207735 
L 83.616 76.21224 
L 85.89251 75.816 
L 89.568 75.270457 
L 95.52 74.95422 
L 101.472 75.035599 
L 107.424 75.394584 
L 111.942476 75.816 
L 113.376 75.96554 
L 119.328 76.745434 
L 125.28 77.625883 
L 131.232 78.571495 
L 137.184 79.55663 
L 143.136 80.562653 
L 147.80279 81.36 
L 149.088 81.608594 
L 155.04 82.76859 
L 160.992 83.91241 
L 166.944 85.034753 
L 172.896 86.13205 
L 177.171388 86.904 
L 178.848 87.253309 
L 184.8 88.469777 
L 190.752 89.646108 
L 196.704 90.782833 
L 202.656 91.880838 
L 205.817014 92.448 
L 208.608 93.041108 
L 214.56 94.267202 
L 214.56 97.992 
L 214.56 100.972835 
L 208.608 99.56113 
L 202.656 98.078845 
L 202.316491 97.992 
L 196.704 96.849637 
L 190.752 95.59077 
L 184.8 94.281372 
L 178.848 92.919925 
L 176.832226 92.448 
L 172.896 91.680865 
L 166.944 90.494933 
L 160.992 89.278127 
L 155.04 88.034162 
L 149.711777 86.904 
L 149.088 86.790407 
L 143.136 85.720847 
L 137.184 84.659253 
L 131.232 83.621186 
L 125.28 82.628245 
L 119.328 81.710419 
L 116.691297 81.36 
L 113.376 80.975156 
L 107.424 80.443802 
L 101.472 80.134818 
L 95.52 80.145311 
L 89.568 80.614918 
L 85.628909 81.36 
L 83.616 81.823126 
L 77.664 84.345036 
L 74.07733 86.904 
L 71.712 89.098412 
L 69.451956 92.448 
L 66.869407 97.992 
L 65.76 102.399338 
L 65.577697 103.536 
L 65.455688 109.08 
L 65.76 111.543099 
L 66.334364 114.624 
L 68.628418 120.168 
L 71.712 124.930727 
L 72.438794 125.712 
L 77.664 129.767262 
L 80.317387 131.256 
L 83.616 132.679434 
L 89.568 134.568828 
L 95.52 135.985926 
L 100.076596 136.8 
L 101.472 136.998056 
L 107.424 137.620337 
L 113.376 138.076895 
L 119.328 138.401671 
L 125.28 138.61951 
L 131.232 138.748956 
L 137.184 138.804095 
L 143.136 138.795795 
L 149.088 138.732564 
L 155.04 138.621156 
L 160.992 138.466994 
L 166.944 138.274488 
L 172.896 138.047263 
L 178.848 137.788326 
L 184.8 137.5002 
L 190.752 137.185017 
L 196.704 136.844598 
L 197.442637 136.8 
L 202.656 136.352391 
L 208.608 135.805104 
L 214.56 135.221191 
L 214.56 136.8 
L 214.56 140.850544 
L 208.608 141.18306 
L 202.656 141.494901 
L 196.704 141.784909 
L 190.752 142.051755 
L 184.8 142.293907 
L 183.433675 142.344 
L 178.848 142.472115 
L 172.896 142.617822 
L 166.944 142.740336 
L 160.992 142.837091 
L 155.04 142.905012 
L 149.088 142.940376 
L 143.136 142.938623 
L 137.184 142.894097 
L 131.232 142.799693 
L 125.28 142.646362 
L 119.328 142.422404 
L 117.836328 142.344 
L 113.376 142.055379 
L 107.424 141.538615 
L 101.472 140.858005 
L 95.52 139.966429 
L 89.568 138.796403 
L 83.616 137.248498 
L 82.343945 136.8 
L 77.664 134.742382 
L 71.86775 131.256 
L 71.712 131.134641 
L 66.826499 125.712 
L 65.76 124.081194 
z
" clip-path="url(#p1678fb7ccc)" style="fill: #70cf57"/>
   </g>
   <g id="PathCollection_15">
    <path d="M 65.455688 109.08 
L 65.577697 103.536 
L 65.76 102.399338 
L 66.869407 97.992 
L 69.451956 92.448 
L 71.712 89.098412 
L 74.07733 86.904 
L 77.664 84.345036 
L 83.616 81.823126 
L 85.628909 81.36 
L 89.568 80.614918 
L 95.52 80.145311 
L 101.472 80.134818 
L 107.424 80.443802 
L 113.376 80.975156 
L 116.691297 81.36 
L 119.328 81.710419 
L 125.28 82.628245 
L 131.232 83.621186 
L 137.184 84.659253 
L 143.136 85.720847 
L 149.088 86.790407 
L 149.711777 86.904 
L 155.04 88.034162 
L 160.992 89.278127 
L 166.944 90.494933 
L 172.896 91.680865 
L 176.832226 92.448 
L 178.848 92.919925 
L 184.8 94.281372 
L 190.752 95.59077 
L 196.704 96.849637 
L 202.316491 97.992 
L 202.656 98.078845 
L 208.608 99.56113 
L 214.56 100.972835 
L 214.56 103.536 
L 214.56 109.08 
L 214.56 111.975609 
L 208.701639 109.08 
L 208.608 109.052668 
L 202.656 107.256476 
L 196.704 105.336473 
L 191.472618 103.536 
L 190.752 103.359586 
L 184.8 101.864823 
L 178.848 100.296077 
L 172.896 98.649663 
L 170.585538 97.992 
L 166.944 97.188835 
L 160.992 95.847469 
L 155.04 94.469225 
L 149.088 93.060218 
L 146.498639 92.448 
L 143.136 91.799064 
L 137.184 90.670312 
L 131.232 89.568807 
L 125.28 88.520606 
L 119.328 87.562365 
L 114.504375 86.904 
L 113.376 86.774379 
L 107.424 86.284606 
L 101.472 86.058743 
L 95.52 86.213799 
L 89.690633 86.904 
L 89.568 86.922562 
L 83.616 88.811414 
L 77.664 92.208147 
L 77.405495 92.448 
L 73.227471 97.992 
L 71.712 101.656481 
L 71.213674 103.536 
L 70.936435 109.08 
L 71.712 113.584458 
L 71.973934 114.624 
L 75.222655 120.168 
L 77.664 122.80248 
L 81.437499 125.712 
L 83.616 126.916542 
L 89.568 129.306755 
L 95.52 131.082885 
L 96.317895 131.256 
L 101.472 132.103301 
L 107.424 132.809579 
L 113.376 133.304643 
L 119.328 133.630312 
L 125.28 133.817084 
L 131.232 133.887614 
L 137.184 133.859001 
L 143.136 133.744334 
L 149.088 133.553761 
L 155.04 133.295233 
L 160.992 132.975042 
L 166.944 132.59821 
L 172.896 132.168767 
L 178.848 131.689973 
L 183.781064 131.256 
L 184.8 131.115558 
L 190.752 130.229302 
L 196.704 129.254956 
L 202.656 128.190977 
L 208.608 127.035186 
L 214.56 125.784793 
L 214.56 131.256 
L 214.56 135.221191 
L 208.608 135.805104 
L 202.656 136.352391 
L 197.442637 136.8 
L 196.704 136.844598 
L 190.752 137.185017 
L 184.8 137.5002 
L 178.848 137.788326 
L 172.896 138.047263 
L 166.944 138.274488 
L 160.992 138.466994 
L 155.04 138.621156 
L 149.088 138.732564 
L 143.136 138.795795 
L 137.184 138.804095 
L 131.232 138.748956 
L 125.28 138.61951 
L 119.328 138.401671 
L 113.376 138.076895 
L 107.424 137.620337 
L 101.472 136.998056 
L 100.076596 136.8 
L 95.52 135.985926 
L 89.568 134.568828 
L 83.616 132.679434 
L 80.317387 131.256 
L 77.664 129.767262 
L 72.438794 125.712 
L 71.712 124.930727 
L 68.628418 120.168 
L 66.334364 114.624 
L 65.76 111.543099 
z
" clip-path="url(#p1678fb7ccc)" style="fill: #98d83e"/>
   </g>
   <g id="PathCollection_16">
    <path d="M 70.936435 109.08 
L 71.213674 103.536 
L 71.712 101.656481 
L 73.227471 97.992 
L 77.405495 92.448 
L 77.664 92.208147 
L 83.616 88.811414 
L 89.568 86.922562 
L 89.690633 86.904 
L 95.52 86.213799 
L 101.472 86.058743 
L 107.424 86.284606 
L 113.376 86.774379 
L 114.504375 86.904 
L 119.328 87.562365 
L 125.28 88.520606 
L 131.232 89.568807 
L 137.184 90.670312 
L 143.136 91.799064 
L 146.498639 92.448 
L 149.088 93.060218 
L 155.04 94.469225 
L 160.992 95.847469 
L 166.944 97.188835 
L 170.585538 97.992 
L 172.896 98.649663 
L 178.848 100.296077 
L 184.8 101.864823 
L 190.752 103.359586 
L 191.472618 103.536 
L 196.704 105.336473 
L 202.656 107.256476 
L 208.608 109.052668 
L 208.701639 109.08 
L 214.56 111.975609 
L 214.56 114.624 
L 214.56 120.168 
L 214.56 125.712 
L 214.56 125.784793 
L 208.608 127.035186 
L 202.656 128.190977 
L 196.704 129.254956 
L 190.752 130.229302 
L 184.8 131.115558 
L 183.781064 131.256 
L 178.848 131.689973 
L 172.896 132.168767 
L 166.944 132.59821 
L 160.992 132.975042 
L 155.04 133.295233 
L 149.088 133.553761 
L 143.136 133.744334 
L 137.184 133.859001 
L 131.232 133.887614 
L 125.28 133.817084 
L 119.328 133.630312 
L 113.376 133.304643 
L 107.424 132.809579 
L 101.472 132.103301 
L 96.317895 131.256 
L 95.52 131.082885 
L 89.568 129.306755 
L 83.616 126.916542 
L 81.437499 125.712 
L 77.664 122.80248 
L 75.222655 120.168 
L 71.973934 114.624 
L 71.712 113.584458 
z
M 83.616 117.319087 
L 86.816211 120.168 
L 89.568 121.668044 
L 95.52 124.002387 
L 101.472 125.69628 
L 101.553393 125.712 
L 107.424 126.494261 
L 113.376 127.001581 
L 119.328 127.275856 
L 125.28 127.354848 
L 131.232 127.266097 
L 137.184 127.029859 
L 143.136 126.661091 
L 149.088 126.170815 
L 153.643832 125.712 
L 155.04 125.460491 
L 160.992 124.191008 
L 166.944 122.668732 
L 172.896 120.873764 
L 174.982282 120.168 
L 177.405078 114.624 
L 172.896 111.472319 
L 169.823615 109.08 
L 166.944 108.036113 
L 160.992 105.772581 
L 155.504886 103.536 
L 155.04 103.411461 
L 149.088 101.819342 
L 143.136 100.189821 
L 137.184 98.540546 
L 135.135978 97.992 
L 131.232 97.221065 
L 125.28 96.125818 
L 119.328 95.146619 
L 113.376 94.352905 
L 107.424 93.844896 
L 101.472 93.76817 
L 95.52 94.336071 
L 89.568 95.864938 
L 85.250576 97.992 
L 83.616 99.381307 
L 80.69767 103.536 
L 79.696208 109.08 
L 81.449002 114.624 
z
" clip-path="url(#p1678fb7ccc)" style="fill: #c2df23"/>
   </g>
   <g id="PathCollection_17">
    <path d="M 81.449002 114.624 
L 79.696208 109.08 
L 80.69767 103.536 
L 83.616 99.381307 
L 85.250576 97.992 
L 89.568 95.864938 
L 95.52 94.336071 
L 101.472 93.76817 
L 107.424 93.844896 
L 113.376 94.352905 
L 119.328 95.146619 
L 125.28 96.125818 
L 131.232 97.221065 
L 135.135978 97.992 
L 137.184 98.540546 
L 143.136 100.189821 
L 149.088 101.819342 
L 155.04 103.411461 
L 155.504886 103.536 
L 160.992 105.772581 
L 166.944 108.036113 
L 169.823615 109.08 
L 172.896 111.472319 
L 177.405078 114.624 
L 174.982282 120.168 
L 172.896 120.873764 
L 166.944 122.668732 
L 160.992 124.191008 
L 155.04 125.460491 
L 153.643832 125.712 
L 149.088 126.170815 
L 143.136 126.661091 
L 137.184 127.029859 
L 131.232 127.266097 
L 125.28 127.354848 
L 119.328 127.275856 
L 113.376 127.001581 
L 107.424 126.494261 
L 101.553393 125.712 
L 101.472 125.69628 
L 95.52 124.002387 
L 89.568 121.668044 
L 86.816211 120.168 
L 83.616 117.319087 
z
" clip-path="url(#p1678fb7ccc)" style="fill: #ece51b"/>
   </g>
   <g id="PathCollection_18">
    <defs>
     <path id="m677aa5a953" d="M -4.330127 4.330127 
L 4.330127 -4.330127 
M -4.330127 -4.330127 
L 4.330127 4.330127 
" style="stroke: #000000; stroke-width: 2"/>
    </defs>
    <g clip-path="url(#p1678fb7ccc)">
     <use xlink:href="#m677aa5a953" x="105.44" y="109.08" style="stroke: #000000; stroke-width: 2"/>
    </g>
   </g>
   <g id="matplotlib.axis_1">
    <g id="xtick_1">
     <g id="line2d_1">
      <defs>
       <path id="md53159d431" d="M 0 0 
L 0 3.5 
" style="stroke: #000000; stroke-width: 0.8"/>
      </defs>
      <g>
       <use xlink:href="#md53159d431" x="75.68" y="192.24" style="stroke: #000000; stroke-width: 0.8"/>
      </g>
     </g>
     <g id="text_1">
      <!-- 250 -->
      <g transform="translate(64.2275 208.358125) scale(0.12 -0.12)">
       <defs>
        <path id="DejaVuSans-32" d="M 1228 531 
L 3431 531 
L 3431 0 
L 469 0 
L 469 531 
Q 828 903 1448 1529 
Q 2069 2156 2228 2338 
Q 2531 2678 2651 2914 
Q 2772 3150 2772 3378 
Q 2772 3750 2511 3984 
Q 2250 4219 1831 4219 
Q 1534 4219 1204 4116 
Q 875 4013 500 3803 
L 500 4441 
Q 881 4594 1212 4672 
Q 1544 4750 1819 4750 
Q 2544 4750 2975 4387 
Q 3406 4025 3406 3419 
Q 3406 3131 3298 2873 
Q 3191 2616 2906 2266 
Q 2828 2175 2409 1742 
Q 1991 1309 1228 531 
z
" transform="scale(0.015625)"/>
        <path id="DejaVuSans-35" d="M 691 4666 
L 3169 4666 
L 3169 4134 
L 1269 4134 
L 1269 2991 
Q 1406 3038 1543 3061 
Q 1681 3084 1819 3084 
Q 2600 3084 3056 2656 
Q 3513 2228 3513 1497 
Q 3513 744 3044 326 
Q 2575 -91 1722 -91 
Q 1428 -91 1123 -41 
Q 819 9 494 109 
L 494 744 
Q 775 591 1075 516 
Q 1375 441 1709 441 
Q 2250 441 2565 725 
Q 2881 1009 2881 1497 
Q 2881 1984 2565 2268 
Q 2250 2553 1709 2553 
Q 1456 2553 1204 2497 
Q 953 2441 691 2322 
L 691 4666 
z
" transform="scale(0.015625)"/>
        <path id="DejaVuSans-30" d="M 2034 4250 
Q 1547 4250 1301 3770 
Q 1056 3291 1056 2328 
Q 1056 1369 1301 889 
Q 1547 409 2034 409 
Q 2525 409 2770 889 
Q 3016 1369 3016 2328 
Q 3016 3291 2770 3770 
Q 2525 4250 2034 4250 
z
M 2034 4750 
Q 2819 4750 3233 4129 
Q 3647 3509 3647 2328 
Q 3647 1150 3233 529 
Q 2819 -91 2034 -91 
Q 1250 -91 836 529 
Q 422 1150 422 2328 
Q 422 3509 836 4129 
Q 1250 4750 2034 4750 
z
" transform="scale(0.015625)"/>
       </defs>
       <use xlink:href="#DejaVuSans-32"/>
       <use xlink:href="#DejaVuSans-35" x="63.623047"/>
       <use xlink:href="#DejaVuSans-30" x="127.246094"/>
      </g>
     </g>
    </g>
    <g id="xtick_2">
     <g id="line2d_2">
      <g>
       <use xlink:href="#md53159d431" x="125.28" y="192.24" style="stroke: #000000; stroke-width: 0.8"/>
      </g>
     </g>
     <g id="text_2">
      <!-- 500 -->
      <g transform="translate(113.8275 208.358125) scale(0.12 -0.12)">
       <use xlink:href="#DejaVuSans-35"/>
       <use xlink:href="#DejaVuSans-30" x="63.623047"/>
       <use xlink:href="#DejaVuSans-30" x="127.246094"/>
      </g>
     </g>
    </g>
    <g id="xtick_3">
     <g id="line2d_3">
      <g>
       <use xlink:href="#md53159d431" x="174.88" y="192.24" style="stroke: #000000; stroke-width: 0.8"/>
      </g>
     </g>
     <g id="text_3">
      <!-- 750 -->
      <g transform="translate(163.4275 208.358125) scale(0.12 -0.12)">
       <defs>
        <path id="DejaVuSans-37" d="M 525 4666 
L 3525 4666 
L 3525 4397 
L 1831 0 
L 1172 0 
L 2766 4134 
L 525 4134 
L 525 4666 
z
" transform="scale(0.015625)"/>
       </defs>
       <use xlink:href="#DejaVuSans-37"/>
       <use xlink:href="#DejaVuSans-35" x="63.623047"/>
       <use xlink:href="#DejaVuSans-30" x="127.246094"/>
      </g>
     </g>
    </g>
    <g id="text_4">
     <!-- Diploid N$_e$2 -->
     <g transform="translate(80 227.01375) scale(0.16 -0.16)">
      <defs>
       <path id="DejaVuSans-44" d="M 1259 4147 
L 1259 519 
L 2022 519 
Q 2988 519 3436 956 
Q 3884 1394 3884 2338 
Q 3884 3275 3436 3711 
Q 2988 4147 2022 4147 
L 1259 4147 
z
M 628 4666 
L 1925 4666 
Q 3281 4666 3915 4102 
Q 4550 3538 4550 2338 
Q 4550 1131 3912 565 
Q 3275 0 1925 0 
L 628 0 
L 628 4666 
z
" transform="scale(0.015625)"/>
       <path id="DejaVuSans-69" d="M 603 3500 
L 1178 3500 
L 1178 0 
L 603 0 
L 603 3500 
z
M 603 4863 
L 1178 4863 
L 1178 4134 
L 603 4134 
L 603 4863 
z
" transform="scale(0.015625)"/>
       <path id="DejaVuSans-70" d="M 1159 525 
L 1159 -1331 
L 581 -1331 
L 581 3500 
L 1159 3500 
L 1159 2969 
Q 1341 3281 1617 3432 
Q 1894 3584 2278 3584 
Q 2916 3584 3314 3078 
Q 3713 2572 3713 1747 
Q 3713 922 3314 415 
Q 2916 -91 2278 -91 
Q 1894 -91 1617 61 
Q 1341 213 1159 525 
z
M 3116 1747 
Q 3116 2381 2855 2742 
Q 2594 3103 2138 3103 
Q 1681 3103 1420 2742 
Q 1159 2381 1159 1747 
Q 1159 1113 1420 752 
Q 1681 391 2138 391 
Q 2594 391 2855 752 
Q 3116 1113 3116 1747 
z
" transform="scale(0.015625)"/>
       <path id="DejaVuSans-6c" d="M 603 4863 
L 1178 4863 
L 1178 0 
L 603 0 
L 603 4863 
z
" transform="scale(0.015625)"/>
       <path id="DejaVuSans-6f" d="M 1959 3097 
Q 1497 3097 1228 2736 
Q 959 2375 959 1747 
Q 959 1119 1226 758 
Q 1494 397 1959 397 
Q 2419 397 2687 759 
Q 2956 1122 2956 1747 
Q 2956 2369 2687 2733 
Q 2419 3097 1959 3097 
z
M 1959 3584 
Q 2709 3584 3137 3096 
Q 3566 2609 3566 1747 
Q 3566 888 3137 398 
Q 2709 -91 1959 -91 
Q 1206 -91 779 398 
Q 353 888 353 1747 
Q 353 2609 779 3096 
Q 1206 3584 1959 3584 
z
" transform="scale(0.015625)"/>
       <path id="DejaVuSans-64" d="M 2906 2969 
L 2906 4863 
L 3481 4863 
L 3481 0 
L 2906 0 
L 2906 525 
Q 2725 213 2448 61 
Q 2172 -91 1784 -91 
Q 1150 -91 751 415 
Q 353 922 353 1747 
Q 353 2572 751 3078 
Q 1150 3584 1784 3584 
Q 2172 3584 2448 3432 
Q 2725 3281 2906 2969 
z
M 947 1747 
Q 947 1113 1208 752 
Q 1469 391 1925 391 
Q 2381 391 2643 752 
Q 2906 1113 2906 1747 
Q 2906 2381 2643 2742 
Q 2381 3103 1925 3103 
Q 1469 3103 1208 2742 
Q 947 2381 947 1747 
z
" transform="scale(0.015625)"/>
       <path id="DejaVuSans-20" transform="scale(0.015625)"/>
       <path id="DejaVuSans-4e" d="M 628 4666 
L 1478 4666 
L 3547 763 
L 3547 4666 
L 4159 4666 
L 4159 0 
L 3309 0 
L 1241 3903 
L 1241 0 
L 628 0 
L 628 4666 
z
" transform="scale(0.015625)"/>
       <path id="DejaVuSans-Oblique-65" d="M 3078 2063 
Q 3088 2113 3092 2166 
Q 3097 2219 3097 2272 
Q 3097 2653 2873 2875 
Q 2650 3097 2266 3097 
Q 1838 3097 1509 2826 
Q 1181 2556 1013 2059 
L 3078 2063 
z
M 3578 1613 
L 903 1613 
Q 884 1494 878 1425 
Q 872 1356 872 1306 
Q 872 872 1139 634 
Q 1406 397 1894 397 
Q 2269 397 2603 481 
Q 2938 566 3225 728 
L 3116 159 
Q 2806 34 2476 -28 
Q 2147 -91 1806 -91 
Q 1078 -91 686 257 
Q 294 606 294 1247 
Q 294 1794 489 2264 
Q 684 2734 1063 3103 
Q 1306 3334 1642 3459 
Q 1978 3584 2356 3584 
Q 2950 3584 3301 3228 
Q 3653 2872 3653 2272 
Q 3653 2128 3634 1964 
Q 3616 1800 3578 1613 
z
" transform="scale(0.015625)"/>
      </defs>
      <use xlink:href="#DejaVuSans-44" transform="translate(0 0.015625)"/>
      <use xlink:href="#DejaVuSans-69" transform="translate(77.001953 0.015625)"/>
      <use xlink:href="#DejaVuSans-70" transform="translate(104.785156 0.015625)"/>
      <use xlink:href="#DejaVuSans-6c" transform="translate(168.261719 0.015625)"/>
      <use xlink:href="#DejaVuSans-6f" transform="translate(196.044922 0.015625)"/>
      <use xlink:href="#DejaVuSans-69" transform="translate(257.226562 0.015625)"/>
      <use xlink:href="#DejaVuSans-64" transform="translate(285.009766 0.015625)"/>
      <use xlink:href="#DejaVuSans-20" transform="translate(348.486328 0.015625)"/>
      <use xlink:href="#DejaVuSans-4e" transform="translate(380.273438 0.015625)"/>
      <use xlink:href="#DejaVuSans-Oblique-65" transform="translate(456.035156 -16.390625) scale(0.7)"/>
      <use xlink:href="#DejaVuSans-32" transform="translate(501.835938 0.015625)"/>
     </g>
    </g>
    <g id="text_5">
     <!-- 1e3 -->
     <g transform="translate(195.681875 221.452188) scale(0.1 -0.1)">
      <defs>
       <path id="DejaVuSans-31" d="M 794 531 
L 1825 531 
L 1825 4091 
L 703 3866 
L 703 4441 
L 1819 4666 
L 2450 4666 
L 2450 531 
L 3481 531 
L 3481 0 
L 794 0 
L 794 531 
z
" transform="scale(0.015625)"/>
       <path id="DejaVuSans-65" d="M 3597 1894 
L 3597 1613 
L 953 1613 
Q 991 1019 1311 708 
Q 1631 397 2203 397 
Q 2534 397 2845 478 
Q 3156 559 3463 722 
L 3463 178 
Q 3153 47 2828 -22 
Q 2503 -91 2169 -91 
Q 1331 -91 842 396 
Q 353 884 353 1716 
Q 353 2575 817 3079 
Q 1281 3584 2069 3584 
Q 2775 3584 3186 3129 
Q 3597 2675 3597 1894 
z
M 3022 2063 
Q 3016 2534 2758 2815 
Q 2500 3097 2075 3097 
Q 1594 3097 1305 2825 
Q 1016 2553 972 2059 
L 3022 2063 
z
" transform="scale(0.015625)"/>
       <path id="DejaVuSans-33" d="M 2597 2516 
Q 3050 2419 3304 2112 
Q 3559 1806 3559 1356 
Q 3559 666 3084 287 
Q 2609 -91 1734 -91 
Q 1441 -91 1130 -33 
Q 819 25 488 141 
L 488 750 
Q 750 597 1062 519 
Q 1375 441 1716 441 
Q 2309 441 2620 675 
Q 2931 909 2931 1356 
Q 2931 1769 2642 2001 
Q 2353 2234 1838 2234 
L 1294 2234 
L 1294 2753 
L 1863 2753 
Q 2328 2753 2575 2939 
Q 2822 3125 2822 3475 
Q 2822 3834 2567 4026 
Q 2313 4219 1838 4219 
Q 1578 4219 1281 4162 
Q 984 4106 628 3988 
L 628 4550 
Q 988 4650 1302 4700 
Q 1616 4750 1894 4750 
Q 2613 4750 3031 4423 
Q 3450 4097 3450 3541 
Q 3450 3153 3228 2886 
Q 3006 2619 2597 2516 
z
" transform="scale(0.015625)"/>
      </defs>
      <use xlink:href="#DejaVuSans-31"/>
      <use xlink:href="#DejaVuSans-65" x="63.623047"/>
      <use xlink:href="#DejaVuSans-33" x="125.146484"/>
     </g>
    </g>
   </g>
   <g id="matplotlib.axis_2">
    <g id="ytick_1">
     <g id="line2d_4">
      <defs>
       <path id="m107b9f52ca" d="M 0 0 
L -3.5 0 
" style="stroke: #000000; stroke-width: 0.8"/>
      </defs>
      <g>
       <use xlink:href="#m107b9f52ca" x="36" y="192.24" style="stroke: #000000; stroke-width: 0.8"/>
      </g>
     </g>
     <g id="text_6">
      <!-- 1.0 -->
      <g transform="translate(9.91625 196.799062) scale(0.12 -0.12)">
       <defs>
        <path id="DejaVuSans-2e" d="M 684 794 
L 1344 794 
L 1344 0 
L 684 0 
L 684 794 
z
" transform="scale(0.015625)"/>
       </defs>
       <use xlink:href="#DejaVuSans-31"/>
       <use xlink:href="#DejaVuSans-2e" x="63.623047"/>
       <use xlink:href="#DejaVuSans-30" x="95.410156"/>
      </g>
     </g>
    </g>
    <g id="ytick_2">
     <g id="line2d_5">
      <g>
       <use xlink:href="#m107b9f52ca" x="36" y="150.66" style="stroke: #000000; stroke-width: 0.8"/>
      </g>
     </g>
     <g id="text_7">
      <!-- 1.5 -->
      <g transform="translate(9.91625 155.219063) scale(0.12 -0.12)">
       <use xlink:href="#DejaVuSans-31"/>
       <use xlink:href="#DejaVuSans-2e" x="63.623047"/>
       <use xlink:href="#DejaVuSans-35" x="95.410156"/>
      </g>
     </g>
    </g>
    <g id="ytick_3">
     <g id="line2d_6">
      <g>
       <use xlink:href="#m107b9f52ca" x="36" y="109.08" style="stroke: #000000; stroke-width: 0.8"/>
      </g>
     </g>
     <g id="text_8">
      <!-- 2.0 -->
      <g transform="translate(9.91625 113.639062) scale(0.12 -0.12)">
       <use xlink:href="#DejaVuSans-32"/>
       <use xlink:href="#DejaVuSans-2e" x="63.623047"/>
       <use xlink:href="#DejaVuSans-30" x="95.410156"/>
      </g>
     </g>
    </g>
    <g id="ytick_4">
     <g id="line2d_7">
      <g>
       <use xlink:href="#m107b9f52ca" x="36" y="67.5" style="stroke: #000000; stroke-width: 0.8"/>
      </g>
     </g>
     <g id="text_9">
      <!-- 2.5 -->
      <g transform="translate(9.91625 72.059063) scale(0.12 -0.12)">
       <use xlink:href="#DejaVuSans-32"/>
       <use xlink:href="#DejaVuSans-2e" x="63.623047"/>
       <use xlink:href="#DejaVuSans-35" x="95.410156"/>
      </g>
     </g>
    </g>
    <g id="ytick_5">
     <g id="line2d_8">
      <g>
       <use xlink:href="#m107b9f52ca" x="36" y="25.92" style="stroke: #000000; stroke-width: 0.8"/>
      </g>
     </g>
     <g id="text_10">
      <!-- 3.0 -->
      <g transform="translate(9.91625 30.479062) scale(0.12 -0.12)">
       <use xlink:href="#DejaVuSans-33"/>
       <use xlink:href="#DejaVuSans-2e" x="63.623047"/>
       <use xlink:href="#DejaVuSans-30" x="95.410156"/>
      </g>
     </g>
    </g>
    <g id="text_11">
     <!-- Recombination rate -->
     <g transform="translate(2.58875 187.6775) rotate(-90) scale(0.16 -0.16)">
      <defs>
       <path id="DejaVuSans-52" d="M 2841 2188 
Q 3044 2119 3236 1894 
Q 3428 1669 3622 1275 
L 4263 0 
L 3584 0 
L 2988 1197 
Q 2756 1666 2539 1819 
Q 2322 1972 1947 1972 
L 1259 1972 
L 1259 0 
L 628 0 
L 628 4666 
L 2053 4666 
Q 2853 4666 3247 4331 
Q 3641 3997 3641 3322 
Q 3641 2881 3436 2590 
Q 3231 2300 2841 2188 
z
M 1259 4147 
L 1259 2491 
L 2053 2491 
Q 2509 2491 2742 2702 
Q 2975 2913 2975 3322 
Q 2975 3731 2742 3939 
Q 2509 4147 2053 4147 
L 1259 4147 
z
" transform="scale(0.015625)"/>
       <path id="DejaVuSans-63" d="M 3122 3366 
L 3122 2828 
Q 2878 2963 2633 3030 
Q 2388 3097 2138 3097 
Q 1578 3097 1268 2742 
Q 959 2388 959 1747 
Q 959 1106 1268 751 
Q 1578 397 2138 397 
Q 2388 397 2633 464 
Q 2878 531 3122 666 
L 3122 134 
Q 2881 22 2623 -34 
Q 2366 -91 2075 -91 
Q 1284 -91 818 406 
Q 353 903 353 1747 
Q 353 2603 823 3093 
Q 1294 3584 2113 3584 
Q 2378 3584 2631 3529 
Q 2884 3475 3122 3366 
z
" transform="scale(0.015625)"/>
       <path id="DejaVuSans-6d" d="M 3328 2828 
Q 3544 3216 3844 3400 
Q 4144 3584 4550 3584 
Q 5097 3584 5394 3201 
Q 5691 2819 5691 2113 
L 5691 0 
L 5113 0 
L 5113 2094 
Q 5113 2597 4934 2840 
Q 4756 3084 4391 3084 
Q 3944 3084 3684 2787 
Q 3425 2491 3425 1978 
L 3425 0 
L 2847 0 
L 2847 2094 
Q 2847 2600 2669 2842 
Q 2491 3084 2119 3084 
Q 1678 3084 1418 2786 
Q 1159 2488 1159 1978 
L 1159 0 
L 581 0 
L 581 3500 
L 1159 3500 
L 1159 2956 
Q 1356 3278 1631 3431 
Q 1906 3584 2284 3584 
Q 2666 3584 2933 3390 
Q 3200 3197 3328 2828 
z
" transform="scale(0.015625)"/>
       <path id="DejaVuSans-62" d="M 3116 1747 
Q 3116 2381 2855 2742 
Q 2594 3103 2138 3103 
Q 1681 3103 1420 2742 
Q 1159 2381 1159 1747 
Q 1159 1113 1420 752 
Q 1681 391 2138 391 
Q 2594 391 2855 752 
Q 3116 1113 3116 1747 
z
M 1159 2969 
Q 1341 3281 1617 3432 
Q 1894 3584 2278 3584 
Q 2916 3584 3314 3078 
Q 3713 2572 3713 1747 
Q 3713 922 3314 415 
Q 2916 -91 2278 -91 
Q 1894 -91 1617 61 
Q 1341 213 1159 525 
L 1159 0 
L 581 0 
L 581 4863 
L 1159 4863 
L 1159 2969 
z
" transform="scale(0.015625)"/>
       <path id="DejaVuSans-6e" d="M 3513 2113 
L 3513 0 
L 2938 0 
L 2938 2094 
Q 2938 2591 2744 2837 
Q 2550 3084 2163 3084 
Q 1697 3084 1428 2787 
Q 1159 2491 1159 1978 
L 1159 0 
L 581 0 
L 581 3500 
L 1159 3500 
L 1159 2956 
Q 1366 3272 1645 3428 
Q 1925 3584 2291 3584 
Q 2894 3584 3203 3211 
Q 3513 2838 3513 2113 
z
" transform="scale(0.015625)"/>
       <path id="DejaVuSans-61" d="M 2194 1759 
Q 1497 1759 1228 1600 
Q 959 1441 959 1056 
Q 959 750 1161 570 
Q 1363 391 1709 391 
Q 2188 391 2477 730 
Q 2766 1069 2766 1631 
L 2766 1759 
L 2194 1759 
z
M 3341 1997 
L 3341 0 
L 2766 0 
L 2766 531 
Q 2569 213 2275 61 
Q 1981 -91 1556 -91 
Q 1019 -91 701 211 
Q 384 513 384 1019 
Q 384 1609 779 1909 
Q 1175 2209 1959 2209 
L 2766 2209 
L 2766 2266 
Q 2766 2663 2505 2880 
Q 2244 3097 1772 3097 
Q 1472 3097 1187 3025 
Q 903 2953 641 2809 
L 641 3341 
Q 956 3463 1253 3523 
Q 1550 3584 1831 3584 
Q 2591 3584 2966 3190 
Q 3341 2797 3341 1997 
z
" transform="scale(0.015625)"/>
       <path id="DejaVuSans-74" d="M 1172 4494 
L 1172 3500 
L 2356 3500 
L 2356 3053 
L 1172 3053 
L 1172 1153 
Q 1172 725 1289 603 
Q 1406 481 1766 481 
L 2356 481 
L 2356 0 
L 1766 0 
Q 1100 0 847 248 
Q 594 497 594 1153 
L 594 3053 
L 172 3053 
L 172 3500 
L 594 3500 
L 594 4494 
L 1172 4494 
z
" transform="scale(0.015625)"/>
       <path id="DejaVuSans-72" d="M 2631 2963 
Q 2534 3019 2420 3045 
Q 2306 3072 2169 3072 
Q 1681 3072 1420 2755 
Q 1159 2438 1159 1844 
L 1159 0 
L 581 0 
L 581 3500 
L 1159 3500 
L 1159 2956 
Q 1341 3275 1631 3429 
Q 1922 3584 2338 3584 
Q 2397 3584 2469 3576 
Q 2541 3569 2628 3553 
L 2631 2963 
z
" transform="scale(0.015625)"/>
      </defs>
      <use xlink:href="#DejaVuSans-52"/>
      <use xlink:href="#DejaVuSans-65" x="64.982422"/>
      <use xlink:href="#DejaVuSans-63" x="126.505859"/>
      <use xlink:href="#DejaVuSans-6f" x="181.486328"/>
      <use xlink:href="#DejaVuSans-6d" x="242.667969"/>
      <use xlink:href="#DejaVuSans-62" x="340.080078"/>
      <use xlink:href="#DejaVuSans-69" x="403.556641"/>
      <use xlink:href="#DejaVuSans-6e" x="431.339844"/>
      <use xlink:href="#DejaVuSans-61" x="494.71875"/>
      <use xlink:href="#DejaVuSans-74" x="555.998047"/>
      <use xlink:href="#DejaVuSans-69" x="595.207031"/>
      <use xlink:href="#DejaVuSans-6f" x="622.990234"/>
      <use xlink:href="#DejaVuSans-6e" x="684.171875"/>
      <use xlink:href="#DejaVuSans-20" x="747.550781"/>
      <use xlink:href="#DejaVuSans-72" x="779.337891"/>
      <use xlink:href="#DejaVuSans-61" x="820.451172"/>
      <use xlink:href="#DejaVuSans-74" x="881.730469"/>
      <use xlink:href="#DejaVuSans-65" x="920.939453"/>
     </g>
    </g>
    <g id="text_12">
     <!-- 1e9 -->
     <g transform="translate(36 22.92) scale(0.1 -0.1)">
      <defs>
       <path id="DejaVuSans-2212" d="M 678 2272 
L 4684 2272 
L 4684 1741 
L 678 1741 
L 678 2272 
z
" transform="scale(0.015625)"/>
       <path id="DejaVuSans-39" d="M 703 97 
L 703 672 
Q 941 559 1184 500 
Q 1428 441 1663 441 
Q 2288 441 2617 861 
Q 2947 1281 2994 2138 
Q 2813 1869 2534 1725 
Q 2256 1581 1919 1581 
Q 1219 1581 811 2004 
Q 403 2428 403 3163 
Q 403 3881 828 4315 
Q 1253 4750 1959 4750 
Q 2769 4750 3195 4129 
Q 3622 3509 3622 2328 
Q 3622 1225 3098 567 
Q 2575 -91 1691 -91 
Q 1453 -91 1209 -44 
Q 966 3 703 97 
z
M 1959 2075 
Q 2384 2075 2632 2365 
Q 2881 2656 2881 3163 
Q 2881 3666 2632 3958 
Q 2384 4250 1959 4250 
Q 1534 4250 1286 3958 
Q 1038 3666 1038 3163 
Q 1038 2656 1286 2365 
Q 1534 2075 1959 2075 
z
" transform="scale(0.015625)"/>
      </defs>
      <use xlink:href="#DejaVuSans-31"/>
      <use xlink:href="#DejaVuSans-65" x="63.623047"/>
      <use xlink:href="#DejaVuSans-2212" x="125.146484"/>
      <use xlink:href="#DejaVuSans-39" x="208.935547"/>
     </g>
    </g>
   </g>
   <g id="patch_3">
    <path d="M 36 192.24 
L 36 25.92 
" style="fill: none; stroke: #000000; stroke-width: 0.8; stroke-linejoin: miter; stroke-linecap: square"/>
   </g>
   <g id="patch_4">
    <path d="M 214.56 192.24 
L 214.56 25.92 
" style="fill: none; stroke: #000000; stroke-width: 0.8; stroke-linejoin: miter; stroke-linecap: square"/>
   </g>
   <g id="patch_5">
    <path d="M 36 192.24 
L 214.56 192.24 
" style="fill: none; stroke: #000000; stroke-width: 0.8; stroke-linejoin: miter; stroke-linecap: square"/>
   </g>
   <g id="patch_6">
    <path d="M 36 25.92 
L 214.56 25.92 
" style="fill: none; stroke: #000000; stroke-width: 0.8; stroke-linejoin: miter; stroke-linecap: square"/>
   </g>
   <g id="text_13">
    <!-- Ne2r-MSSMC-T-P2-S4 -->
    <g transform="translate(41.90125 10.92) scale(0.16 -0.16)">
     <defs>
      <path id="DejaVuSans-2d" d="M 313 2009 
L 1997 2009 
L 1997 1497 
L 313 1497 
L 313 2009 
z
" transform="scale(0.015625)"/>
      <path id="DejaVuSans-4d" d="M 628 4666 
L 1569 4666 
L 2759 1491 
L 3956 4666 
L 4897 4666 
L 4897 0 
L 4281 0 
L 4281 4097 
L 3078 897 
L 2444 897 
L 1241 4097 
L 1241 0 
L 628 0 
L 628 4666 
z
" transform="scale(0.015625)"/>
      <path id="DejaVuSans-53" d="M 3425 4513 
L 3425 3897 
Q 3066 4069 2747 4153 
Q 2428 4238 2131 4238 
Q 1616 4238 1336 4038 
Q 1056 3838 1056 3469 
Q 1056 3159 1242 3001 
Q 1428 2844 1947 2747 
L 2328 2669 
Q 3034 2534 3370 2195 
Q 3706 1856 3706 1288 
Q 3706 609 3251 259 
Q 2797 -91 1919 -91 
Q 1588 -91 1214 -16 
Q 841 59 441 206 
L 441 856 
Q 825 641 1194 531 
Q 1563 422 1919 422 
Q 2459 422 2753 634 
Q 3047 847 3047 1241 
Q 3047 1584 2836 1778 
Q 2625 1972 2144 2069 
L 1759 2144 
Q 1053 2284 737 2584 
Q 422 2884 422 3419 
Q 422 4038 858 4394 
Q 1294 4750 2059 4750 
Q 2388 4750 2728 4690 
Q 3069 4631 3425 4513 
z
" transform="scale(0.015625)"/>
      <path id="DejaVuSans-43" d="M 4122 4306 
L 4122 3641 
Q 3803 3938 3442 4084 
Q 3081 4231 2675 4231 
Q 1875 4231 1450 3742 
Q 1025 3253 1025 2328 
Q 1025 1406 1450 917 
Q 1875 428 2675 428 
Q 3081 428 3442 575 
Q 3803 722 4122 1019 
L 4122 359 
Q 3791 134 3420 21 
Q 3050 -91 2638 -91 
Q 1578 -91 968 557 
Q 359 1206 359 2328 
Q 359 3453 968 4101 
Q 1578 4750 2638 4750 
Q 3056 4750 3426 4639 
Q 3797 4528 4122 4306 
z
" transform="scale(0.015625)"/>
      <path id="DejaVuSans-54" d="M -19 4666 
L 3928 4666 
L 3928 4134 
L 2272 4134 
L 2272 0 
L 1638 0 
L 1638 4134 
L -19 4134 
L -19 4666 
z
" transform="scale(0.015625)"/>
      <path id="DejaVuSans-50" d="M 1259 4147 
L 1259 2394 
L 2053 2394 
Q 2494 2394 2734 2622 
Q 2975 2850 2975 3272 
Q 2975 3691 2734 3919 
Q 2494 4147 2053 4147 
L 1259 4147 
z
M 628 4666 
L 2053 4666 
Q 2838 4666 3239 4311 
Q 3641 3956 3641 3272 
Q 3641 2581 3239 2228 
Q 2838 1875 2053 1875 
L 1259 1875 
L 1259 0 
L 628 0 
L 628 4666 
z
" transform="scale(0.015625)"/>
      <path id="DejaVuSans-34" d="M 2419 4116 
L 825 1625 
L 2419 1625 
L 2419 4116 
z
M 2253 4666 
L 3047 4666 
L 3047 1625 
L 3713 1625 
L 3713 1100 
L 3047 1100 
L 3047 0 
L 2419 0 
L 2419 1100 
L 313 1100 
L 313 1709 
L 2253 4666 
z
" transform="scale(0.015625)"/>
     </defs>
     <use xlink:href="#DejaVuSans-4e"/>
     <use xlink:href="#DejaVuSans-65" x="74.804688"/>
     <use xlink:href="#DejaVuSans-32" x="136.328125"/>
     <use xlink:href="#DejaVuSans-72" x="199.951172"/>
     <use xlink:href="#DejaVuSans-2d" x="234.689453"/>
     <use xlink:href="#DejaVuSans-4d" x="270.773438"/>
     <use xlink:href="#DejaVuSans-53" x="357.052734"/>
     <use xlink:href="#DejaVuSans-53" x="420.529297"/>
     <use xlink:href="#DejaVuSans-4d" x="484.005859"/>
     <use xlink:href="#DejaVuSans-43" x="570.285156"/>
     <use xlink:href="#DejaVuSans-2d" x="640.109375"/>
     <use xlink:href="#DejaVuSans-54" x="667.068359"/>
     <use xlink:href="#DejaVuSans-2d" x="719.027344"/>
     <use xlink:href="#DejaVuSans-50" x="755.111328"/>
     <use xlink:href="#DejaVuSans-32" x="815.414062"/>
     <use xlink:href="#DejaVuSans-2d" x="879.037109"/>
     <use xlink:href="#DejaVuSans-53" x="915.121094"/>
     <use xlink:href="#DejaVuSans-34" x="978.597656"/>
    </g>
   </g>
  </g>
  <g id="axes_2">
   <g id="patch_7">
    <path d="M 225.72 192.24 
L 234.036 192.24 
L 234.036 25.92 
L 225.72 25.92 
z
" style="fill: #ffffff"/>
   </g>
   <g id="QuadMesh_1">
    <path d="M 225.72 192.24 
L 234.036 192.24 
L 234.036 182.456471 
L 225.72 182.456471 
L 225.72 192.24 
" clip-path="url(#p5c8f621f80)" style="fill: #440154"/>
    <path d="M 225.72 182.456471 
L 234.036 182.456471 
L 234.036 172.672941 
L 225.72 172.672941 
L 225.72 182.456471 
" clip-path="url(#p5c8f621f80)" style="fill: #470d60"/>
    <path d="M 225.72 172.672941 
L 234.036 172.672941 
L 234.036 162.889412 
L 225.72 162.889412 
L 225.72 172.672941 
" clip-path="url(#p5c8f621f80)" style="fill: #482374"/>
    <path d="M 225.72 162.889412 
L 234.036 162.889412 
L 234.036 153.105882 
L 225.72 153.105882 
L 225.72 162.889412 
" clip-path="url(#p5c8f621f80)" style="fill: #453781"/>
    <path d="M 225.72 153.105882 
L 234.036 153.105882 
L 234.036 143.322353 
L 225.72 143.322353 
L 225.72 153.105882 
" clip-path="url(#p5c8f621f80)" style="fill: #3e4989"/>
    <path d="M 225.72 143.322353 
L 234.036 143.322353 
L 234.036 133.538824 
L 225.72 133.538824 
L 225.72 143.322353 
" clip-path="url(#p5c8f621f80)" style="fill: #375b8d"/>
    <path d="M 225.72 133.538824 
L 234.036 133.538824 
L 234.036 123.755294 
L 225.72 123.755294 
L 225.72 133.538824 
" clip-path="url(#p5c8f621f80)" style="fill: #2f6b8e"/>
    <path d="M 225.72 123.755294 
L 234.036 123.755294 
L 234.036 113.971765 
L 225.72 113.971765 
L 225.72 123.755294 
" clip-path="url(#p5c8f621f80)" style="fill: #297a8e"/>
    <path d="M 225.72 113.971765 
L 234.036 113.971765 
L 234.036 104.188235 
L 225.72 104.188235 
L 225.72 113.971765 
" clip-path="url(#p5c8f621f80)" style="fill: #23898e"/>
    <path d="M 225.72 104.188235 
L 234.036 104.188235 
L 234.036 94.404706 
L 225.72 94.404706 
L 225.72 104.188235 
" clip-path="url(#p5c8f621f80)" style="fill: #1f988b"/>
    <path d="M 225.72 94.404706 
L 234.036 94.404706 
L 234.036 84.621176 
L 225.72 84.621176 
L 225.72 94.404706 
" clip-path="url(#p5c8f621f80)" style="fill: #22a785"/>
    <path d="M 225.72 84.621176 
L 234.036 84.621176 
L 234.036 74.837647 
L 225.72 74.837647 
L 225.72 84.621176 
" clip-path="url(#p5c8f621f80)" style="fill: #32b67a"/>
    <path d="M 225.72 74.837647 
L 234.036 74.837647 
L 234.036 65.054118 
L 225.72 65.054118 
L 225.72 74.837647 
" clip-path="url(#p5c8f621f80)" style="fill: #4ec36b"/>
    <path d="M 225.72 65.054118 
L 234.036 65.054118 
L 234.036 55.270588 
L 225.72 55.270588 
L 225.72 65.054118 
" clip-path="url(#p5c8f621f80)" style="fill: #70cf57"/>
    <path d="M 225.72 55.270588 
L 234.036 55.270588 
L 234.036 45.487059 
L 225.72 45.487059 
L 225.72 55.270588 
" clip-path="url(#p5c8f621f80)" style="fill: #98d83e"/>
    <path d="M 225.72 45.487059 
L 234.036 45.487059 
L 234.036 35.703529 
L 225.72 35.703529 
L 225.72 45.487059 
" clip-path="url(#p5c8f621f80)" style="fill: #c2df23"/>
    <path d="M 225.72 35.703529 
L 234.036 35.703529 
L 234.036 25.92 
L 225.72 25.92 
L 225.72 35.703529 
" clip-path="url(#p5c8f621f80)" style="fill: #ece51b"/>
   </g>
   <g id="matplotlib.axis_3"/>
   <g id="matplotlib.axis_4">
    <g id="ytick_6">
     <g id="line2d_9">
      <defs>
       <path id="m3b2cac61d5" d="M 0 0 
L 3.5 0 
" style="stroke: #000000; stroke-width: 0.8"/>
      </defs>
      <g>
       <use xlink:href="#m3b2cac61d5" x="234.036" y="182.456471" style="stroke: #000000; stroke-width: 0.8"/>
      </g>
     </g>
     <g id="text_14">
      <!-- $\mathdefault{2.40}$ -->
      <g transform="translate(241.036 186.255689) scale(0.1 -0.1)">
       <use xlink:href="#DejaVuSans-2212" transform="translate(0 0.78125)"/>
       <use xlink:href="#DejaVuSans-32" transform="translate(83.789062 0.78125)"/>
       <use xlink:href="#DejaVuSans-2e" transform="translate(147.412109 0.78125)"/>
       <use xlink:href="#DejaVuSans-34" transform="translate(179.199219 0.78125)"/>
       <use xlink:href="#DejaVuSans-30" transform="translate(242.822266 0.78125)"/>
      </g>
     </g>
    </g>
    <g id="ytick_7">
     <g id="line2d_10">
      <g>
       <use xlink:href="#m3b2cac61d5" x="234.036" y="162.889412" style="stroke: #000000; stroke-width: 0.8"/>
      </g>
     </g>
     <g id="text_15">
      <!-- $\mathdefault{2.35}$ -->
      <g transform="translate(241.036 166.688631) scale(0.1 -0.1)">
       <use xlink:href="#DejaVuSans-2212" transform="translate(0 0.78125)"/>
       <use xlink:href="#DejaVuSans-32" transform="translate(83.789062 0.78125)"/>
       <use xlink:href="#DejaVuSans-2e" transform="translate(147.412109 0.78125)"/>
       <use xlink:href="#DejaVuSans-33" transform="translate(179.199219 0.78125)"/>
       <use xlink:href="#DejaVuSans-35" transform="translate(242.822266 0.78125)"/>
      </g>
     </g>
    </g>
    <g id="ytick_8">
     <g id="line2d_11">
      <g>
       <use xlink:href="#m3b2cac61d5" x="234.036" y="143.322353" style="stroke: #000000; stroke-width: 0.8"/>
      </g>
     </g>
     <g id="text_16">
      <!-- $\mathdefault{2.30}$ -->
      <g transform="translate(241.036 147.121572) scale(0.1 -0.1)">
       <use xlink:href="#DejaVuSans-2212" transform="translate(0 0.78125)"/>
       <use xlink:href="#DejaVuSans-32" transform="translate(83.789062 0.78125)"/>
       <use xlink:href="#DejaVuSans-2e" transform="translate(147.412109 0.78125)"/>
       <use xlink:href="#DejaVuSans-33" transform="translate(179.199219 0.78125)"/>
       <use xlink:href="#DejaVuSans-30" transform="translate(242.822266 0.78125)"/>
      </g>
     </g>
    </g>
    <g id="ytick_9">
     <g id="line2d_12">
      <g>
       <use xlink:href="#m3b2cac61d5" x="234.036" y="123.755294" style="stroke: #000000; stroke-width: 0.8"/>
      </g>
     </g>
     <g id="text_17">
      <!-- $\mathdefault{2.25}$ -->
      <g transform="translate(241.036 127.554513) scale(0.1 -0.1)">
       <use xlink:href="#DejaVuSans-2212" transform="translate(0 0.78125)"/>
       <use xlink:href="#DejaVuSans-32" transform="translate(83.789062 0.78125)"/>
       <use xlink:href="#DejaVuSans-2e" transform="translate(147.412109 0.78125)"/>
       <use xlink:href="#DejaVuSans-32" transform="translate(173.699219 0.78125)"/>
       <use xlink:href="#DejaVuSans-35" transform="translate(237.322266 0.78125)"/>
      </g>
     </g>
    </g>
    <g id="ytick_10">
     <g id="line2d_13">
      <g>
       <use xlink:href="#m3b2cac61d5" x="234.036" y="104.188235" style="stroke: #000000; stroke-width: 0.8"/>
      </g>
     </g>
     <g id="text_18">
      <!-- $\mathdefault{2.20}$ -->
      <g transform="translate(241.036 107.987454) scale(0.1 -0.1)">
       <use xlink:href="#DejaVuSans-2212" transform="translate(0 0.78125)"/>
       <use xlink:href="#DejaVuSans-32" transform="translate(83.789062 0.78125)"/>
       <use xlink:href="#DejaVuSans-2e" transform="translate(147.412109 0.78125)"/>
       <use xlink:href="#DejaVuSans-32" transform="translate(173.699219 0.78125)"/>
       <use xlink:href="#DejaVuSans-30" transform="translate(237.322266 0.78125)"/>
      </g>
     </g>
    </g>
    <g id="ytick_11">
     <g id="line2d_14">
      <g>
       <use xlink:href="#m3b2cac61d5" x="234.036" y="84.621176" style="stroke: #000000; stroke-width: 0.8"/>
      </g>
     </g>
     <g id="text_19">
      <!-- $\mathdefault{2.15}$ -->
      <g transform="translate(241.036 88.420395) scale(0.1 -0.1)">
       <use xlink:href="#DejaVuSans-2212" transform="translate(0 0.78125)"/>
       <use xlink:href="#DejaVuSans-32" transform="translate(83.789062 0.78125)"/>
       <use xlink:href="#DejaVuSans-2e" transform="translate(147.412109 0.78125)"/>
       <use xlink:href="#DejaVuSans-31" transform="translate(179.199219 0.78125)"/>
       <use xlink:href="#DejaVuSans-35" transform="translate(242.822266 0.78125)"/>
      </g>
     </g>
    </g>
    <g id="ytick_12">
     <g id="line2d_15">
      <g>
       <use xlink:href="#m3b2cac61d5" x="234.036" y="65.054118" style="stroke: #000000; stroke-width: 0.8"/>
      </g>
     </g>
     <g id="text_20">
      <!-- $\mathdefault{2.10}$ -->
      <g transform="translate(241.036 68.853336) scale(0.1 -0.1)">
       <use xlink:href="#DejaVuSans-2212" transform="translate(0 0.78125)"/>
       <use xlink:href="#DejaVuSans-32" transform="translate(83.789062 0.78125)"/>
       <use xlink:href="#DejaVuSans-2e" transform="translate(147.412109 0.78125)"/>
       <use xlink:href="#DejaVuSans-31" transform="translate(179.199219 0.78125)"/>
       <use xlink:href="#DejaVuSans-30" transform="translate(242.822266 0.78125)"/>
      </g>
     </g>
    </g>
    <g id="ytick_13">
     <g id="line2d_16">
      <g>
       <use xlink:href="#m3b2cac61d5" x="234.036" y="45.487059" style="stroke: #000000; stroke-width: 0.8"/>
      </g>
     </g>
     <g id="text_21">
      <!-- $\mathdefault{2.05}$ -->
      <g transform="translate(241.036 49.286278) scale(0.1 -0.1)">
       <use xlink:href="#DejaVuSans-2212" transform="translate(0 0.78125)"/>
       <use xlink:href="#DejaVuSans-32" transform="translate(83.789062 0.78125)"/>
       <use xlink:href="#DejaVuSans-2e" transform="translate(147.412109 0.78125)"/>
       <use xlink:href="#DejaVuSans-30" transform="translate(179.199219 0.78125)"/>
       <use xlink:href="#DejaVuSans-35" transform="translate(242.822266 0.78125)"/>
      </g>
     </g>
    </g>
    <g id="ytick_14">
     <g id="line2d_17">
      <g>
       <use xlink:href="#m3b2cac61d5" x="234.036" y="25.92" style="stroke: #000000; stroke-width: 0.8"/>
      </g>
     </g>
     <g id="text_22">
      <!-- $\mathdefault{2.00}$ -->
      <g transform="translate(241.036 29.719219) scale(0.1 -0.1)">
       <use xlink:href="#DejaVuSans-2212" transform="translate(0 0.78125)"/>
       <use xlink:href="#DejaVuSans-32" transform="translate(83.789062 0.78125)"/>
       <use xlink:href="#DejaVuSans-2e" transform="translate(147.412109 0.78125)"/>
       <use xlink:href="#DejaVuSans-30" transform="translate(179.199219 0.78125)"/>
       <use xlink:href="#DejaVuSans-30" transform="translate(242.822266 0.78125)"/>
      </g>
     </g>
    </g>
    <g id="text_23">
     <!-- log likelihood -->
     <g transform="translate(284.854125 148.704375) rotate(-90) scale(0.12 -0.12)">
      <defs>
       <path id="DejaVuSans-67" d="M 2906 1791 
Q 2906 2416 2648 2759 
Q 2391 3103 1925 3103 
Q 1463 3103 1205 2759 
Q 947 2416 947 1791 
Q 947 1169 1205 825 
Q 1463 481 1925 481 
Q 2391 481 2648 825 
Q 2906 1169 2906 1791 
z
M 3481 434 
Q 3481 -459 3084 -895 
Q 2688 -1331 1869 -1331 
Q 1566 -1331 1297 -1286 
Q 1028 -1241 775 -1147 
L 775 -588 
Q 1028 -725 1275 -790 
Q 1522 -856 1778 -856 
Q 2344 -856 2625 -561 
Q 2906 -266 2906 331 
L 2906 616 
Q 2728 306 2450 153 
Q 2172 0 1784 0 
Q 1141 0 747 490 
Q 353 981 353 1791 
Q 353 2603 747 3093 
Q 1141 3584 1784 3584 
Q 2172 3584 2450 3431 
Q 2728 3278 2906 2969 
L 2906 3500 
L 3481 3500 
L 3481 434 
z
" transform="scale(0.015625)"/>
       <path id="DejaVuSans-6b" d="M 581 4863 
L 1159 4863 
L 1159 1991 
L 2875 3500 
L 3609 3500 
L 1753 1863 
L 3688 0 
L 2938 0 
L 1159 1709 
L 1159 0 
L 581 0 
L 581 4863 
z
" transform="scale(0.015625)"/>
       <path id="DejaVuSans-68" d="M 3513 2113 
L 3513 0 
L 2938 0 
L 2938 2094 
Q 2938 2591 2744 2837 
Q 2550 3084 2163 3084 
Q 1697 3084 1428 2787 
Q 1159 2491 1159 1978 
L 1159 0 
L 581 0 
L 581 4863 
L 1159 4863 
L 1159 2956 
Q 1366 3272 1645 3428 
Q 1925 3584 2291 3584 
Q 2894 3584 3203 3211 
Q 3513 2838 3513 2113 
z
" transform="scale(0.015625)"/>
      </defs>
      <use xlink:href="#DejaVuSans-6c"/>
      <use xlink:href="#DejaVuSans-6f" x="27.783203"/>
      <use xlink:href="#DejaVuSans-67" x="88.964844"/>
      <use xlink:href="#DejaVuSans-20" x="152.441406"/>
      <use xlink:href="#DejaVuSans-6c" x="184.228516"/>
      <use xlink:href="#DejaVuSans-69" x="212.011719"/>
      <use xlink:href="#DejaVuSans-6b" x="239.794922"/>
      <use xlink:href="#DejaVuSans-65" x="294.080078"/>
      <use xlink:href="#DejaVuSans-6c" x="355.603516"/>
      <use xlink:href="#DejaVuSans-69" x="383.386719"/>
      <use xlink:href="#DejaVuSans-68" x="411.169922"/>
      <use xlink:href="#DejaVuSans-6f" x="474.548828"/>
      <use xlink:href="#DejaVuSans-6f" x="535.730469"/>
      <use xlink:href="#DejaVuSans-64" x="596.912109"/>
     </g>
    </g>
   </g>
   <g id="LineCollection_1"/>
   <g id="patch_8">
    <path d="M 225.72 192.24 
L 229.878 192.24 
L 234.036 192.24 
L 234.036 25.92 
L 229.878 25.92 
L 225.72 25.92 
L 225.72 192.24 
z
" style="fill: none; stroke: #000000; stroke-width: 0.8; stroke-linejoin: miter; stroke-linecap: square"/>
   </g>
  </g>
 </g>
 <defs>
  <clipPath id="p1678fb7ccc">
   <rect x="36" y="25.92" width="178.56" height="166.32"/>
  </clipPath>
  <clipPath id="p5c8f621f80">
   <rect x="225.72" y="25.92" width="8.316" height="166.32"/>
  </clipPath>
 </defs>
</svg>
