<?xml version="1.0" encoding="utf-8" standalone="no"?>
<!DOCTYPE svg PUBLIC "-//W3C//DTD SVG 1.1//EN"
  "http://www.w3.org/Graphics/SVG/1.1/DTD/svg11.dtd">
<svg xmlns:xlink="http://www.w3.org/1999/xlink" width="288pt" height="216pt" viewBox="0 0 288 216" xmlns="http://www.w3.org/2000/svg" version="1.1">
 <metadata>
  <rdf:RDF xmlns:dc="http://purl.org/dc/elements/1.1/" xmlns:cc="http://creativecommons.org/ns#" xmlns:rdf="http://www.w3.org/1999/02/22-rdf-syntax-ns#">
   <cc:Work>
    <dc:type rdf:resource="http://purl.org/dc/dcmitype/StillImage"/>
    <dc:date>2023-08-07T19:56:39.231349</dc:date>
    <dc:format>image/svg+xml</dc:format>
    <dc:creator>
     <cc:Agent>
      <dc:title>Matplotlib v3.7.1, https://matplotlib.org/</dc:title>
     </cc:Agent>
    </dc:creator>
   </cc:Work>
  </rdf:RDF>
 </metadata>
 <defs>
  <style type="text/css">*{stroke-linejoin: round; stroke-linecap: butt}</style>
 </defs>
 <g id="figure_1">
  <g id="patch_1">
   <path d="M 0 216 
L 288 216 
L 288 0 
L 0 0 
z
" style="fill: #ffffff"/>
  </g>
  <g id="axes_1">
   <g id="patch_2">
    <path d="M 36 192.24 
L 214.56 192.24 
L 214.56 25.92 
L 36 25.92 
z
" style="fill: #ffffff"/>
   </g>
   <g id="PathCollection_1">
    <path d="M 36 186.696 
L 36 181.152 
L 36 175.608 
L 36 170.064 
L 36 164.52 
L 36 158.976 
L 36 153.432 
L 36 147.888 
L 36 142.344 
L 36 136.8 
L 36 131.256 
L 36 125.712 
L 36 120.168 
L 36 114.624 
L 36 109.08 
L 36 103.536 
L 36 97.992 
L 36 92.448 
L 36 86.904 
L 36 81.36 
L 36 75.816 
L 36 70.272 
L 36 64.728 
L 36 59.184 
L 36 53.64 
L 36 48.096 
L 36 42.552 
L 36 37.008 
L 36 31.464 
L 36 25.92 
L 36.001365 25.92 
L 36.001339 31.464 
L 36.001314 37.008 
L 36.001291 42.552 
L 36.001269 48.096 
L 36.001248 53.64 
L 36.001229 59.184 
L 36.001211 64.728 
L 36.001195 70.272 
L 36.001181 75.816 
L 36.001169 81.36 
L 36.00116 86.904 
L 36.001153 92.448 
L 36.00115 97.992 
L 36.001152 103.536 
L 36.001159 109.08 
L 36.001172 114.624 
L 36.001195 120.168 
L 36.001231 125.712 
L 36.001286 131.256 
L 36.001371 136.8 
L 36.001506 142.344 
L 36.001736 147.888 
L 36.002186 153.432 
L 36.003371 158.976 
L 36.013113 164.52 
L 41.952 170.051786 
L 41.954037 170.064 
L 41.962125 175.608 
L 47.904 181.142569 
L 53.856 181.150237 
L 53.859841 181.152 
L 59.808 186.692422 
L 65.76 186.693904 
L 71.712 186.694339 
L 77.664 186.694527 
L 83.616 186.694617 
L 89.568 186.694658 
L 95.52 186.694669 
L 101.472 186.694659 
L 107.424 186.694635 
L 113.376 186.694598 
L 119.328 186.69455 
L 125.28 186.694493 
L 131.232 186.694425 
L 137.184 186.694347 
L 143.136 186.694259 
L 149.088 186.694158 
L 155.04 186.694044 
L 160.992 186.693915 
L 166.944 186.693769 
L 172.896 186.693601 
L 178.848 186.693409 
L 184.8 186.693186 
L 190.752 186.692926 
L 196.704 186.692618 
L 202.656 186.692249 
L 208.608 186.691799 
L 214.56 186.691238 
L 214.56 186.696 
L 214.56 192.24 
L 208.608 192.24 
L 202.656 192.24 
L 196.704 192.24 
L 190.752 192.24 
L 184.8 192.24 
L 178.848 192.24 
L 172.896 192.24 
L 166.944 192.24 
L 160.992 192.24 
L 155.04 192.24 
L 149.088 192.24 
L 143.136 192.24 
L 137.184 192.24 
L 131.232 192.24 
L 125.28 192.24 
L 119.328 192.24 
L 113.376 192.24 
L 107.424 192.24 
L 101.472 192.24 
L 95.52 192.24 
L 89.568 192.24 
L 83.616 192.24 
L 77.664 192.24 
L 71.712 192.24 
L 65.76 192.24 
L 59.808 192.24 
L 53.856 192.24 
L 47.904 192.24 
L 41.952 192.24 
L 36 192.24 
z
" clip-path="url(#pbc6721864c)" style="fill: #440154"/>
    <path d="M 125.266312 31.464 
L 125.249974 25.92 
L 125.28 25.92 
L 131.232 25.92 
L 137.184 25.92 
L 143.136 25.92 
L 149.088 25.92 
L 155.04 25.92 
L 160.992 25.92 
L 166.944 25.92 
L 172.896 25.92 
L 178.848 25.92 
L 184.8 25.92 
L 190.752 25.92 
L 196.704 25.92 
L 202.656 25.92 
L 208.608 25.92 
L 214.56 25.92 
L 214.56 31.464 
L 214.56 37.008 
L 214.56 42.552 
L 214.56 48.096 
L 214.56 53.64 
L 214.56 59.184 
L 214.56 64.728 
L 214.56 70.272 
L 214.56 75.816 
L 214.56 81.36 
L 214.56 86.904 
L 214.56 92.448 
L 214.56 97.992 
L 214.56 103.536 
L 214.56 109.08 
L 214.56 114.624 
L 214.56 120.168 
L 214.56 120.18348 
L 214.507004 120.168 
L 208.608 114.673363 
L 202.656 114.638553 
L 202.622853 114.624 
L 196.704 109.110875 
L 196.174342 109.08 
L 190.752 104.029351 
L 184.8 103.553288 
L 184.770806 103.536 
L 178.848 98.019193 
L 178.79992 97.992 
L 172.896 92.492784 
L 172.822834 92.448 
L 166.944 86.97215 
L 166.867014 86.904 
L 160.992 81.431709 
L 160.93905 81.36 
L 155.04 75.86532 
L 155.008237 75.816 
L 149.088 70.301586 
L 149.06836 70.272 
L 143.136 64.746294 
L 143.123069 64.728 
L 143.098091 59.184 
L 137.184 53.67531 
L 137.167986 53.64 
L 137.119838 48.096 
L 131.232 42.611764 
L 131.215652 42.552 
L 131.176557 37.008 
L 125.28 31.515643 
z
" clip-path="url(#pbc6721864c)" style="fill: #440154"/>
   </g>
   <g id="PathCollection_2">
    <path d="M 36.013113 164.52 
L 36.003371 158.976 
L 36.002186 153.432 
L 36.001736 147.888 
L 36.001506 142.344 
L 36.001371 136.8 
L 36.001286 131.256 
L 36.001231 125.712 
L 36.001195 120.168 
L 36.001172 114.624 
L 36.001159 109.08 
L 36.001152 103.536 
L 36.00115 97.992 
L 36.001153 92.448 
L 36.00116 86.904 
L 36.001169 81.36 
L 36.001181 75.816 
L 36.001195 70.272 
L 36.001211 64.728 
L 36.001229 59.184 
L 36.001248 53.64 
L 36.001269 48.096 
L 36.001291 42.552 
L 36.001314 37.008 
L 36.001339 31.464 
L 36.001365 25.92 
L 36.831021 25.92 
L 36.815129 31.464 
L 36.80001 37.008 
L 36.785684 42.552 
L 36.772178 48.096 
L 36.759529 53.64 
L 36.747789 59.184 
L 36.737023 64.728 
L 36.727319 70.272 
L 36.718791 75.816 
L 36.711588 81.36 
L 36.705906 86.904 
L 36.702002 92.448 
L 36.700228 97.992 
L 36.70106 103.536 
L 36.70517 109.08 
L 36.713522 114.624 
L 36.727551 120.168 
L 36.749489 125.712 
L 36.782994 131.256 
L 36.834499 136.8 
L 36.916452 142.344 
L 37.056472 147.888 
L 37.330583 153.432 
L 38.052016 158.976 
L 41.952 163.865859 
L 42.179725 164.52 
L 43.191773 170.064 
L 47.904 175.55853 
L 47.952477 175.608 
L 53.856 180.079125 
L 56.193808 181.152 
L 59.808 184.518445 
L 65.76 185.420472 
L 71.712 185.684773 
L 77.664 185.799241 
L 83.616 185.854279 
L 89.568 185.879005 
L 95.52 185.885565 
L 101.472 185.87984 
L 107.424 185.864933 
L 113.376 185.842549 
L 119.328 185.813604 
L 125.28 185.778527 
L 131.232 185.737406 
L 137.184 185.690071 
L 143.136 185.636123 
L 149.088 185.574939 
L 155.04 185.505657 
L 160.992 185.427133 
L 166.944 185.337879 
L 172.896 185.235969 
L 178.848 185.11889 
L 184.8 184.983337 
L 190.752 184.824893 
L 196.704 184.637536 
L 202.656 184.412865 
L 208.608 184.138801 
L 214.56 183.797359 
L 214.56 186.691238 
L 208.608 186.691799 
L 202.656 186.692249 
L 196.704 186.692618 
L 190.752 186.692926 
L 184.8 186.693186 
L 178.848 186.693409 
L 172.896 186.693601 
L 166.944 186.693769 
L 160.992 186.693915 
L 155.04 186.694044 
L 149.088 186.694158 
L 143.136 186.694259 
L 137.184 186.694347 
L 131.232 186.694425 
L 125.28 186.694493 
L 119.328 186.69455 
L 113.376 186.694598 
L 107.424 186.694635 
L 101.472 186.694659 
L 95.52 186.694669 
L 89.568 186.694658 
L 83.616 186.694617 
L 77.664 186.694527 
L 71.712 186.694339 
L 65.76 186.693904 
L 59.808 186.692422 
L 53.859841 181.152 
L 53.856 181.150237 
L 47.904 181.142569 
L 41.962125 175.608 
L 41.954037 170.064 
L 41.952 170.051786 
z
" clip-path="url(#pbc6721864c)" style="fill: #470d60"/>
    <path d="M 117.61446 31.464 
L 115.312334 25.92 
L 119.328 25.92 
L 125.249974 25.92 
L 125.266312 31.464 
L 125.28 31.515643 
L 131.176557 37.008 
L 131.215652 42.552 
L 131.232 42.611764 
L 137.119838 48.096 
L 137.167986 53.64 
L 137.184 53.67531 
L 143.098091 59.184 
L 143.123069 64.728 
L 143.136 64.746294 
L 149.06836 70.272 
L 149.088 70.301586 
L 155.008237 75.816 
L 155.04 75.86532 
L 160.93905 81.36 
L 160.992 81.431709 
L 166.867014 86.904 
L 166.944 86.97215 
L 172.822834 92.448 
L 172.896 92.492784 
L 178.79992 97.992 
L 178.848 98.019193 
L 184.770806 103.536 
L 184.8 103.553288 
L 190.752 104.029351 
L 196.174342 109.08 
L 196.704 109.110875 
L 202.622853 114.624 
L 202.656 114.638553 
L 208.608 114.673363 
L 214.507004 120.168 
L 214.56 120.18348 
L 214.56 125.712 
L 214.56 128.416237 
L 208.708145 125.712 
L 208.608 125.664522 
L 202.656 122.715339 
L 197.784138 120.168 
L 196.704 119.58439 
L 190.752 116.209214 
L 188.099808 114.624 
L 184.8 112.575445 
L 179.466501 109.08 
L 178.848 108.657469 
L 172.896 104.375471 
L 171.790448 103.536 
L 166.944 99.689047 
L 164.920841 97.992 
L 160.992 94.540417 
L 158.738461 92.448 
L 155.04 88.846311 
L 153.153258 86.904 
L 149.088 82.509896 
L 148.081881 81.36 
L 143.462292 75.816 
L 143.136 75.405562 
L 139.275305 70.272 
L 137.184 67.348242 
L 135.411432 64.728 
L 131.840617 59.184 
L 131.232 58.195228 
L 128.579606 53.64 
L 125.509443 48.096 
L 125.28 47.663686 
L 122.712811 42.552 
L 120.060636 37.008 
L 119.328 35.410386 
z
" clip-path="url(#pbc6721864c)" style="fill: #470d60"/>
   </g>
   <g id="PathCollection_3">
    <path d="M 38.052016 158.976 
L 37.330583 153.432 
L 37.056472 147.888 
L 36.916452 142.344 
L 36.834499 136.8 
L 36.782994 131.256 
L 36.749489 125.712 
L 36.727551 120.168 
L 36.713522 114.624 
L 36.70517 109.08 
L 36.70106 103.536 
L 36.700228 97.992 
L 36.702002 92.448 
L 36.705906 86.904 
L 36.711588 81.36 
L 36.718791 75.816 
L 36.727319 70.272 
L 36.737023 64.728 
L 36.747789 59.184 
L 36.759529 53.64 
L 36.772178 48.096 
L 36.785684 42.552 
L 36.80001 37.008 
L 36.815129 31.464 
L 36.831021 25.92 
L 37.660678 25.92 
L 37.628918 31.464 
L 37.598706 37.008 
L 37.570078 42.552 
L 37.543088 48.096 
L 37.517811 53.64 
L 37.494349 59.184 
L 37.472834 64.728 
L 37.453443 70.272 
L 37.436402 75.816 
L 37.422008 81.36 
L 37.410652 86.904 
L 37.402852 92.448 
L 37.399305 97.992 
L 37.400969 103.536 
L 37.409182 109.08 
L 37.425871 114.624 
L 37.453906 120.168 
L 37.497747 125.712 
L 37.564702 131.256 
L 37.667628 136.8 
L 37.831399 142.344 
L 38.111208 147.888 
L 38.658979 153.432 
L 40.10066 158.976 
L 41.952 161.297238 
L 43.073934 164.52 
L 44.429508 170.064 
L 47.904 174.115311 
L 49.366738 175.608 
L 53.856 179.008013 
L 58.527775 181.152 
L 59.808 182.344468 
L 65.76 184.14704 
L 71.712 184.675206 
L 77.664 184.903956 
L 83.616 185.013942 
L 89.568 185.063352 
L 95.52 185.076462 
L 101.472 185.06502 
L 107.424 185.035231 
L 113.376 184.9905 
L 119.328 184.932658 
L 125.28 184.86256 
L 131.232 184.780387 
L 137.184 184.685795 
L 143.136 184.577988 
L 149.088 184.455721 
L 155.04 184.317269 
L 160.992 184.16035 
L 166.944 183.98199 
L 172.896 183.778336 
L 178.848 183.544371 
L 184.8 183.273488 
L 190.752 182.956859 
L 196.704 182.582454 
L 202.656 182.13348 
L 208.608 181.585804 
L 212.561759 181.152 
L 214.56 180.962409 
L 214.56 181.152 
L 214.56 183.797359 
L 208.608 184.138801 
L 202.656 184.412865 
L 196.704 184.637536 
L 190.752 184.824893 
L 184.8 184.983337 
L 178.848 185.11889 
L 172.896 185.235969 
L 166.944 185.337879 
L 160.992 185.427133 
L 155.04 185.505657 
L 149.088 185.574939 
L 143.136 185.636123 
L 137.184 185.690071 
L 131.232 185.737406 
L 125.28 185.778527 
L 119.328 185.813604 
L 113.376 185.842549 
L 107.424 185.864933 
L 101.472 185.87984 
L 95.52 185.885565 
L 89.568 185.879005 
L 83.616 185.854279 
L 77.664 185.799241 
L 71.712 185.684773 
L 65.76 185.420472 
L 59.808 184.518445 
L 56.193808 181.152 
L 53.856 180.079125 
L 47.952477 175.608 
L 47.904 175.55853 
L 43.191773 170.064 
L 42.179725 164.52 
L 41.952 163.865859 
z
" clip-path="url(#pbc6721864c)" style="fill: #482374"/>
    <path d="M 111.702178 31.464 
L 109.547295 25.92 
L 113.376 25.92 
L 115.312334 25.92 
L 117.61446 31.464 
L 119.328 35.410386 
L 120.060636 37.008 
L 122.712811 42.552 
L 125.28 47.663686 
L 125.509443 48.096 
L 128.579606 53.64 
L 131.232 58.195228 
L 131.840617 59.184 
L 135.411432 64.728 
L 137.184 67.348242 
L 139.275305 70.272 
L 143.136 75.405562 
L 143.462292 75.816 
L 148.081881 81.36 
L 149.088 82.509896 
L 153.153258 86.904 
L 155.04 88.846311 
L 158.738461 92.448 
L 160.992 94.540417 
L 164.920841 97.992 
L 166.944 99.689047 
L 171.790448 103.536 
L 172.896 104.375471 
L 178.848 108.657469 
L 179.466501 109.08 
L 184.8 112.575445 
L 188.099808 114.624 
L 190.752 116.209214 
L 196.704 119.58439 
L 197.784138 120.168 
L 202.656 122.715339 
L 208.608 125.664522 
L 208.708145 125.712 
L 214.56 128.416237 
L 214.56 131.256 
L 214.56 134.961045 
L 208.608 132.289711 
L 206.415362 131.256 
L 202.656 129.459007 
L 196.704 126.459098 
L 195.293876 125.712 
L 190.752 123.244682 
L 185.397931 120.168 
L 184.8 119.812958 
L 178.848 116.094958 
L 176.620482 114.624 
L 172.896 112.068712 
L 168.778786 109.08 
L 166.944 107.690945 
L 161.756072 103.536 
L 160.992 102.896046 
L 155.457096 97.992 
L 155.04 97.604743 
L 149.790142 92.448 
L 149.088 91.724165 
L 144.668972 86.904 
L 143.136 85.14693 
L 140.013837 81.36 
L 137.184 77.749482 
L 135.752048 75.816 
L 131.845452 70.272 
L 131.232 69.359471 
L 128.28854 64.728 
L 125.28 59.741025 
L 124.962229 59.184 
L 121.936672 53.64 
L 119.328 48.608141 
L 119.076704 48.096 
L 116.46953 42.552 
L 113.988663 37.008 
L 113.376 35.58005 
z
" clip-path="url(#pbc6721864c)" style="fill: #482374"/>
   </g>
   <g id="PathCollection_4">
    <path d="M 40.10066 158.976 
L 38.658979 153.432 
L 38.111208 147.888 
L 37.831399 142.344 
L 37.667628 136.8 
L 37.564702 131.256 
L 37.497747 125.712 
L 37.453906 120.168 
L 37.425871 114.624 
L 37.409182 109.08 
L 37.400969 103.536 
L 37.399305 97.992 
L 37.402852 92.448 
L 37.410652 86.904 
L 37.422008 81.36 
L 37.436402 75.816 
L 37.453443 70.272 
L 37.472834 64.728 
L 37.494349 59.184 
L 37.517811 53.64 
L 37.543088 48.096 
L 37.570078 42.552 
L 37.598706 37.008 
L 37.628918 31.464 
L 37.660678 25.92 
L 38.490334 25.92 
L 38.442708 31.464 
L 38.397402 37.008 
L 38.354472 42.552 
L 38.313997 48.096 
L 38.276092 53.64 
L 38.240909 59.184 
L 38.208646 64.728 
L 38.179567 70.272 
L 38.154012 75.816 
L 38.132427 81.36 
L 38.115398 86.904 
L 38.103701 92.448 
L 38.098383 97.992 
L 38.100878 103.536 
L 38.113194 109.08 
L 38.13822 114.624 
L 38.180262 120.168 
L 38.246005 125.712 
L 38.34641 131.256 
L 38.500756 136.8 
L 38.746345 142.344 
L 39.165943 147.888 
L 39.987376 153.432 
L 41.952 158.637045 
L 42.043042 158.976 
L 43.968143 164.52 
L 45.667244 170.064 
L 47.904 172.672092 
L 50.780998 175.608 
L 53.856 177.936901 
L 59.808 180.662049 
L 61.298062 181.152 
L 65.76 182.873608 
L 71.712 183.66564 
L 77.664 184.008671 
L 83.616 184.173604 
L 89.568 184.247699 
L 95.52 184.267359 
L 101.472 184.250201 
L 107.424 184.20553 
L 113.376 184.138451 
L 119.328 184.051712 
L 125.28 183.946594 
L 131.232 183.823368 
L 137.184 183.681519 
L 143.136 183.519852 
L 149.088 183.336502 
L 155.04 183.128882 
L 160.992 182.893567 
L 166.944 182.6261 
L 172.896 182.320703 
L 178.848 181.969852 
L 184.8 181.563639 
L 190.018885 181.152 
L 190.752 181.080963 
L 196.704 180.504997 
L 202.656 179.924402 
L 208.608 179.340578 
L 214.56 178.754731 
L 214.56 180.962409 
L 212.561759 181.152 
L 208.608 181.585804 
L 202.656 182.13348 
L 196.704 182.582454 
L 190.752 182.956859 
L 184.8 183.273488 
L 178.848 183.544371 
L 172.896 183.778336 
L 166.944 183.98199 
L 160.992 184.16035 
L 155.04 184.317269 
L 149.088 184.455721 
L 143.136 184.577988 
L 137.184 184.685795 
L 131.232 184.780387 
L 125.28 184.86256 
L 119.328 184.932658 
L 113.376 184.9905 
L 107.424 185.035231 
L 101.472 185.06502 
L 95.52 185.076462 
L 89.568 185.063352 
L 83.616 185.013942 
L 77.664 184.903956 
L 71.712 184.675206 
L 65.76 184.14704 
L 59.808 182.344468 
L 58.527775 181.152 
L 53.856 179.008013 
L 49.366738 175.608 
L 47.904 174.115311 
L 44.429508 170.064 
L 43.073934 164.52 
L 41.952 161.297238 
z
" clip-path="url(#pbc6721864c)" style="fill: #453781"/>
    <path d="M 106.039528 31.464 
L 104.020688 25.92 
L 107.424 25.92 
L 109.547295 25.92 
L 111.702178 31.464 
L 113.376 35.58005 
L 113.988663 37.008 
L 116.46953 42.552 
L 119.076704 48.096 
L 119.328 48.608141 
L 121.936672 53.64 
L 124.962229 59.184 
L 125.28 59.741025 
L 128.28854 64.728 
L 131.232 69.359471 
L 131.845452 70.272 
L 135.752048 75.816 
L 137.184 77.749482 
L 140.013837 81.36 
L 143.136 85.14693 
L 144.668972 86.904 
L 149.088 91.724165 
L 149.790142 92.448 
L 155.04 97.604743 
L 155.457096 97.992 
L 160.992 102.896046 
L 161.756072 103.536 
L 166.944 107.690945 
L 168.778786 109.08 
L 172.896 112.068712 
L 176.620482 114.624 
L 178.848 116.094958 
L 184.8 119.812958 
L 185.397931 120.168 
L 190.752 123.244682 
L 195.293876 125.712 
L 196.704 126.459098 
L 202.656 129.459007 
L 206.415362 131.256 
L 208.608 132.289711 
L 214.56 134.961045 
L 214.56 136.8 
L 214.56 141.567681 
L 208.608 138.934643 
L 204.046366 136.8 
L 202.656 136.152408 
L 196.704 133.23955 
L 192.873906 131.256 
L 190.752 130.142726 
L 184.8 126.848129 
L 182.856884 125.712 
L 178.848 123.309429 
L 173.904321 120.168 
L 172.896 119.505896 
L 166.944 115.37554 
L 165.920666 114.624 
L 160.992 110.861651 
L 158.790933 109.08 
L 155.04 105.911037 
L 152.38814 103.536 
L 149.088 100.441716 
L 146.622979 97.992 
L 143.136 94.355693 
L 141.40981 92.448 
L 137.184 87.538316 
L 136.668738 86.904 
L 132.376163 81.36 
L 131.232 79.806342 
L 128.456274 75.816 
L 125.28 71.001689 
L 124.825065 70.272 
L 121.525118 64.728 
L 119.328 60.839498 
L 118.443042 59.184 
L 115.614117 53.64 
L 113.376 49.024618 
L 112.949303 48.096 
L 110.509675 42.552 
L 108.189332 37.008 
L 107.424 35.099268 
z
" clip-path="url(#pbc6721864c)" style="fill: #453781"/>
   </g>
   <g id="PathCollection_5">
    <path d="M 39.987376 153.432 
L 39.165943 147.888 
L 38.746345 142.344 
L 38.500756 136.8 
L 38.34641 131.256 
L 38.246005 125.712 
L 38.180262 120.168 
L 38.13822 114.624 
L 38.113194 109.08 
L 38.100878 103.536 
L 38.098383 97.992 
L 38.103701 92.448 
L 38.115398 86.904 
L 38.132427 81.36 
L 38.154012 75.816 
L 38.179567 70.272 
L 38.208646 64.728 
L 38.240909 59.184 
L 38.276092 53.64 
L 38.313997 48.096 
L 38.354472 42.552 
L 38.397402 37.008 
L 38.442708 31.464 
L 38.490334 25.92 
L 39.31999 25.92 
L 39.256498 31.464 
L 39.196098 37.008 
L 39.138865 42.552 
L 39.084907 48.096 
L 39.034374 53.64 
L 38.987469 59.184 
L 38.944458 64.728 
L 38.905691 70.272 
L 38.871623 75.816 
L 38.842847 81.36 
L 38.820143 86.904 
L 38.80455 92.448 
L 38.79746 97.992 
L 38.800787 103.536 
L 38.817205 109.08 
L 38.85057 114.624 
L 38.906617 120.168 
L 38.994262 125.712 
L 39.128118 131.256 
L 39.333885 136.8 
L 39.661292 142.344 
L 40.220679 147.888 
L 41.315772 153.432 
L 41.952 155.117612 
L 42.988351 158.976 
L 44.862352 164.52 
L 46.904979 170.064 
L 47.904 171.228873 
L 52.195258 175.608 
L 53.856 176.865788 
L 59.808 179.57684 
L 64.598449 181.152 
L 65.76 181.600176 
L 71.712 182.656074 
L 77.664 183.113385 
L 83.616 183.333267 
L 89.568 183.432047 
L 95.52 183.458255 
L 101.472 183.435382 
L 107.424 183.375828 
L 113.376 183.286402 
L 119.328 183.170766 
L 125.28 183.030628 
L 131.232 182.866348 
L 137.184 182.677243 
L 143.136 182.461716 
L 149.088 182.217283 
L 155.04 181.940495 
L 160.992 181.626784 
L 166.944 181.27021 
L 168.762189 181.152 
L 172.896 180.753615 
L 178.848 180.171081 
L 184.8 179.579303 
L 190.752 178.980429 
L 196.704 178.376299 
L 202.656 177.76849 
L 208.608 177.158354 
L 214.56 176.547053 
L 214.56 178.754731 
L 208.608 179.340578 
L 202.656 179.924402 
L 196.704 180.504997 
L 190.752 181.080963 
L 190.018885 181.152 
L 184.8 181.563639 
L 178.848 181.969852 
L 172.896 182.320703 
L 166.944 182.6261 
L 160.992 182.893567 
L 155.04 183.128882 
L 149.088 183.336502 
L 143.136 183.519852 
L 137.184 183.681519 
L 131.232 183.823368 
L 125.28 183.946594 
L 119.328 184.051712 
L 113.376 184.138451 
L 107.424 184.20553 
L 101.472 184.250201 
L 95.52 184.267359 
L 89.568 184.247699 
L 83.616 184.173604 
L 77.664 184.008671 
L 71.712 183.66564 
L 65.76 182.873608 
L 61.298062 181.152 
L 59.808 180.662049 
L 53.856 177.936901 
L 50.780998 175.608 
L 47.904 172.672092 
L 45.667244 170.064 
L 43.968143 164.52 
L 42.043042 158.976 
L 41.952 158.637045 
z
" clip-path="url(#pbc6721864c)" style="fill: #3e4989"/>
    <path d="M 100.591475 31.464 
L 98.695565 25.92 
L 101.472 25.92 
L 104.020688 25.92 
L 106.039528 31.464 
L 107.424 35.099268 
L 108.189332 37.008 
L 110.509675 42.552 
L 112.949303 48.096 
L 113.376 49.024618 
L 115.614117 53.64 
L 118.443042 59.184 
L 119.328 60.839498 
L 121.525118 64.728 
L 124.825065 70.272 
L 125.28 71.001689 
L 128.456274 75.816 
L 131.232 79.806342 
L 132.376163 81.36 
L 136.668738 86.904 
L 137.184 87.538316 
L 141.40981 92.448 
L 143.136 94.355693 
L 146.622979 97.992 
L 149.088 100.441716 
L 152.38814 103.536 
L 155.04 105.911037 
L 158.790933 109.08 
L 160.992 110.861651 
L 165.920666 114.624 
L 166.944 115.37554 
L 172.896 119.505896 
L 173.904321 120.168 
L 178.848 123.309429 
L 182.856884 125.712 
L 184.8 126.848129 
L 190.752 130.142726 
L 192.873906 131.256 
L 196.704 133.23955 
L 202.656 136.152408 
L 204.046366 136.8 
L 208.608 138.934643 
L 214.56 141.567681 
L 214.56 142.344 
L 214.56 147.888 
L 214.56 148.553736 
L 213.204136 147.888 
L 208.608 145.825551 
L 202.656 142.989538 
L 201.370946 142.344 
L 196.704 140.085393 
L 190.752 137.022412 
L 190.341617 136.8 
L 184.8 133.818121 
L 180.324861 131.256 
L 178.848 130.400155 
L 172.896 126.751808 
L 171.295349 125.712 
L 166.944 122.815428 
L 163.201843 120.168 
L 160.992 118.552159 
L 155.933477 114.624 
L 155.04 113.902584 
L 149.413083 109.08 
L 149.088 108.789052 
L 143.55648 103.536 
L 143.136 103.117664 
L 138.279108 97.992 
L 137.184 96.778182 
L 133.499832 92.448 
L 131.232 89.642681 
L 129.143226 86.904 
L 125.28 81.563296 
L 125.141165 81.36 
L 121.52627 75.816 
L 119.328 72.257519 
L 118.168273 70.272 
L 115.085611 64.728 
L 113.376 61.492531 
L 112.220502 59.184 
L 109.575636 53.64 
L 107.424 48.890985 
L 107.081908 48.096 
L 104.796857 42.552 
L 102.624909 37.008 
L 101.472 33.92972 
z
" clip-path="url(#pbc6721864c)" style="fill: #3e4989"/>
   </g>
   <g id="PathCollection_6">
    <path d="M 41.315772 153.432 
L 40.220679 147.888 
L 39.661292 142.344 
L 39.333885 136.8 
L 39.128118 131.256 
L 38.994262 125.712 
L 38.906617 120.168 
L 38.85057 114.624 
L 38.817205 109.08 
L 38.800787 103.536 
L 38.79746 97.992 
L 38.80455 92.448 
L 38.820143 86.904 
L 38.842847 81.36 
L 38.871623 75.816 
L 38.905691 70.272 
L 38.944458 64.728 
L 38.987469 59.184 
L 39.034374 53.64 
L 39.084907 48.096 
L 39.138865 42.552 
L 39.196098 37.008 
L 39.256498 31.464 
L 39.31999 25.92 
L 40.149646 25.92 
L 40.070287 31.464 
L 39.994794 37.008 
L 39.923259 42.552 
L 39.855816 48.096 
L 39.792655 53.64 
L 39.734029 59.184 
L 39.68027 64.728 
L 39.631815 70.272 
L 39.589233 75.816 
L 39.553266 81.36 
L 39.524889 86.904 
L 39.505399 92.448 
L 39.496538 97.992 
L 39.500695 103.536 
L 39.521217 109.08 
L 39.562919 114.624 
L 39.632973 120.168 
L 39.74252 125.712 
L 39.909825 131.256 
L 40.167013 136.8 
L 40.576239 142.344 
L 41.275415 147.888 
L 41.952 150.94713 
L 42.470244 153.432 
L 43.933659 158.976 
L 45.756561 164.52 
L 47.904 169.65186 
L 48.20481 170.064 
L 53.609519 175.608 
L 53.856 175.794676 
L 59.808 178.49163 
L 65.76 180.402302 
L 69.149844 181.152 
L 71.712 181.646508 
L 77.664 182.2181 
L 83.616 182.492929 
L 89.568 182.616394 
L 95.52 182.649152 
L 101.472 182.620562 
L 107.424 182.546127 
L 113.376 182.434353 
L 119.328 182.28982 
L 125.28 182.114662 
L 131.232 181.909329 
L 137.184 181.672967 
L 143.136 181.403581 
L 148.084919 181.152 
L 149.088 181.061781 
L 155.04 180.50977 
L 160.992 179.936853 
L 166.944 179.347056 
L 172.896 178.743785 
L 178.848 178.129925 
L 184.8 177.507931 
L 190.752 176.879895 
L 196.704 176.247602 
L 202.656 175.612578 
L 202.699328 175.608 
L 208.608 173.963819 
L 214.56 172.260669 
L 214.56 175.608 
L 214.56 176.547053 
L 208.608 177.158354 
L 202.656 177.76849 
L 196.704 178.376299 
L 190.752 178.980429 
L 184.8 179.579303 
L 178.848 180.171081 
L 172.896 180.753615 
L 168.762189 181.152 
L 166.944 181.27021 
L 160.992 181.626784 
L 155.04 181.940495 
L 149.088 182.217283 
L 143.136 182.461716 
L 137.184 182.677243 
L 131.232 182.866348 
L 125.28 183.030628 
L 119.328 183.170766 
L 113.376 183.286402 
L 107.424 183.375828 
L 101.472 183.435382 
L 95.52 183.458255 
L 89.568 183.432047 
L 83.616 183.333267 
L 77.664 183.113385 
L 71.712 182.656074 
L 65.76 181.600176 
L 64.598449 181.152 
L 59.808 179.57684 
L 53.856 176.865788 
L 52.195258 175.608 
L 47.904 171.228873 
L 46.904979 170.064 
L 44.862352 164.52 
L 42.988351 158.976 
L 41.952 155.117612 
z
" clip-path="url(#pbc6721864c)" style="fill: #375b8d"/>
    <path d="M 95.32249 31.464 
L 93.533323 25.92 
L 95.52 25.92 
L 98.695565 25.92 
L 100.591475 31.464 
L 101.472 33.92972 
L 102.624909 37.008 
L 104.796857 42.552 
L 107.081908 48.096 
L 107.424 48.890985 
L 109.575636 53.64 
L 112.220502 59.184 
L 113.376 61.492531 
L 115.085611 64.728 
L 118.168273 70.272 
L 119.328 72.257519 
L 121.52627 75.816 
L 125.141165 81.36 
L 125.28 81.563296 
L 129.143226 86.904 
L 131.232 89.642681 
L 133.499832 92.448 
L 137.184 96.778182 
L 138.279108 97.992 
L 143.136 103.117664 
L 143.55648 103.536 
L 149.088 108.789052 
L 149.413083 109.08 
L 155.04 113.902584 
L 155.933477 114.624 
L 160.992 118.552159 
L 163.201843 120.168 
L 166.944 122.815428 
L 171.295349 125.712 
L 172.896 126.751808 
L 178.848 130.400155 
L 180.324861 131.256 
L 184.8 133.818121 
L 190.341617 136.8 
L 190.752 137.022412 
L 196.704 140.085393 
L 201.370946 142.344 
L 202.656 142.989538 
L 208.608 145.825551 
L 213.204136 147.888 
L 214.56 148.553736 
L 214.56 153.432 
L 214.56 157.014697 
L 208.608 153.478133 
L 208.534772 153.432 
L 202.656 150.447005 
L 197.955803 147.888 
L 196.704 147.268813 
L 190.752 144.157231 
L 187.498276 142.344 
L 184.8 140.900205 
L 178.848 137.514259 
L 177.663582 136.8 
L 172.896 133.95098 
L 168.668205 131.256 
L 166.944 130.144537 
L 160.992 126.064509 
L 160.507213 125.712 
L 155.04 121.63895 
L 153.18629 120.168 
L 149.088 116.805352 
L 146.589676 114.624 
L 143.136 111.485635 
L 140.646301 109.08 
L 137.184 105.581566 
L 135.278713 103.536 
L 131.232 98.975747 
L 130.40976 97.992 
L 125.99601 92.448 
L 125.28 91.503173 
L 121.991473 86.904 
L 119.328 82.97 
L 118.298242 81.36 
L 114.925107 75.816 
L 113.376 73.133721 
L 111.811148 70.272 
L 108.931943 64.728 
L 107.424 61.672866 
L 106.257429 59.184 
L 103.782455 53.64 
L 101.472 48.179358 
L 101.438362 48.096 
L 99.292668 42.552 
L 97.254951 37.008 
L 95.52 32.051858 
z
" clip-path="url(#pbc6721864c)" style="fill: #375b8d"/>
   </g>
   <g id="PathCollection_7">
    <path d="M 41.275415 147.888 
L 40.576239 142.344 
L 40.167013 136.8 
L 39.909825 131.256 
L 39.74252 125.712 
L 39.632973 120.168 
L 39.562919 114.624 
L 39.521217 109.08 
L 39.500695 103.536 
L 39.496538 97.992 
L 39.505399 92.448 
L 39.524889 86.904 
L 39.553266 81.36 
L 39.589233 75.816 
L 39.631815 70.272 
L 39.68027 64.728 
L 39.734029 59.184 
L 39.792655 53.64 
L 39.855816 48.096 
L 39.923259 42.552 
L 39.994794 37.008 
L 40.070287 31.464 
L 40.149646 25.92 
L 40.979302 25.92 
L 40.884077 31.464 
L 40.79349 37.008 
L 40.707652 42.552 
L 40.626726 48.096 
L 40.550937 53.64 
L 40.480589 59.184 
L 40.416082 64.728 
L 40.357939 70.272 
L 40.306844 75.816 
L 40.263685 81.36 
L 40.229635 86.904 
L 40.206248 92.448 
L 40.195615 97.992 
L 40.200604 103.536 
L 40.225228 109.08 
L 40.275268 114.624 
L 40.359329 120.168 
L 40.490778 125.712 
L 40.691533 131.256 
L 41.000141 136.8 
L 41.491185 142.344 
L 41.952 145.582594 
L 42.325641 147.888 
L 43.464847 153.432 
L 44.878968 158.976 
L 46.65077 164.52 
L 47.904 167.514916 
L 49.764507 170.064 
L 53.856 174.280715 
L 55.835384 175.608 
L 59.808 177.406421 
L 65.76 179.245461 
L 71.712 180.527068 
L 76.043959 181.152 
L 77.664 181.322814 
L 83.616 181.652591 
L 89.568 181.800741 
L 95.52 181.840049 
L 101.472 181.805743 
L 107.424 181.716425 
L 113.376 181.582304 
L 119.328 181.408874 
L 125.28 181.198696 
L 126.448676 181.152 
L 131.232 180.786078 
L 137.184 180.288255 
L 143.136 179.753869 
L 149.088 179.189652 
L 155.04 178.601213 
L 160.992 177.993254 
L 166.944 177.369723 
L 172.896 176.733954 
L 178.848 176.088769 
L 183.252342 175.608 
L 184.8 175.187221 
L 190.752 173.543376 
L 196.704 171.842668 
L 202.656 170.08889 
L 202.740307 170.064 
L 205.910843 164.52 
L 202.656 160.790591 
L 201.199974 158.976 
L 196.704 156.004969 
L 193.100917 153.432 
L 190.752 152.101911 
L 184.8 148.493234 
L 183.863852 147.888 
L 178.848 144.974581 
L 174.628016 142.344 
L 172.896 141.311422 
L 166.944 137.53006 
L 165.864987 136.8 
L 160.992 133.539978 
L 157.799459 131.256 
L 155.04 129.261485 
L 150.440098 125.712 
L 149.088 124.643056 
L 143.778873 120.168 
L 143.136 119.607502 
L 137.768958 114.624 
L 137.184 114.058339 
L 132.345206 109.08 
L 131.232 107.881146 
L 127.435826 103.536 
L 125.28 100.942669 
L 122.969328 97.992 
L 119.328 93.088683 
L 118.879076 92.448 
L 115.174939 86.904 
L 113.376 84.060673 
L 111.759333 81.36 
L 108.612696 75.816 
L 107.424 73.611905 
L 105.713969 70.272 
L 103.022686 64.728 
L 101.472 61.363135 
L 100.514139 59.184 
L 98.192468 53.64 
L 95.994545 48.096 
L 95.52 46.845092 
L 93.956106 42.552 
L 92.035189 37.008 
L 90.209605 31.464 
L 89.568 29.430476 
L 88.49348 25.92 
L 89.568 25.92 
L 93.533323 25.92 
L 95.32249 31.464 
L 95.52 32.051858 
L 97.254951 37.008 
L 99.292668 42.552 
L 101.438362 48.096 
L 101.472 48.179358 
L 103.782455 53.64 
L 106.257429 59.184 
L 107.424 61.672866 
L 108.931943 64.728 
L 111.811148 70.272 
L 113.376 73.133721 
L 114.925107 75.816 
L 118.298242 81.36 
L 119.328 82.97 
L 121.991473 86.904 
L 125.28 91.503173 
L 125.99601 92.448 
L 130.40976 97.992 
L 131.232 98.975747 
L 135.278713 103.536 
L 137.184 105.581566 
L 140.646301 109.08 
L 143.136 111.485635 
L 146.589676 114.624 
L 149.088 116.805352 
L 153.18629 120.168 
L 155.04 121.63895 
L 160.507213 125.712 
L 160.992 126.064509 
L 166.944 130.144537 
L 168.668205 131.256 
L 172.896 133.95098 
L 177.663582 136.8 
L 178.848 137.514259 
L 184.8 140.900205 
L 187.498276 142.344 
L 190.752 144.157231 
L 196.704 147.268813 
L 197.955803 147.888 
L 202.656 150.447005 
L 208.534772 153.432 
L 208.608 153.478133 
L 214.56 157.014697 
L 214.56 158.976 
L 214.56 164.52 
L 214.56 170.064 
L 214.56 172.260669 
L 208.608 173.963819 
L 202.699328 175.608 
L 202.656 175.612578 
L 196.704 176.247602 
L 190.752 176.879895 
L 184.8 177.507931 
L 178.848 178.129925 
L 172.896 178.743785 
L 166.944 179.347056 
L 160.992 179.936853 
L 155.04 180.50977 
L 149.088 181.061781 
L 148.084919 181.152 
L 143.136 181.403581 
L 137.184 181.672967 
L 131.232 181.909329 
L 125.28 182.114662 
L 119.328 182.28982 
L 113.376 182.434353 
L 107.424 182.546127 
L 101.472 182.620562 
L 95.52 182.649152 
L 89.568 182.616394 
L 83.616 182.492929 
L 77.664 182.2181 
L 71.712 181.646508 
L 69.149844 181.152 
L 65.76 180.402302 
L 59.808 178.49163 
L 53.856 175.794676 
L 53.609519 175.608 
L 48.20481 170.064 
L 47.904 169.65186 
L 45.756561 164.52 
L 43.933659 158.976 
L 42.470244 153.432 
L 41.952 150.94713 
z
" clip-path="url(#pbc6721864c)" style="fill: #2f6b8e"/>
   </g>
   <g id="PathCollection_8">
    <path d="M 41.491185 142.344 
L 41.000141 136.8 
L 40.691533 131.256 
L 40.490778 125.712 
L 40.359329 120.168 
L 40.275268 114.624 
L 40.225228 109.08 
L 40.200604 103.536 
L 40.195615 97.992 
L 40.206248 92.448 
L 40.229635 86.904 
L 40.263685 81.36 
L 40.306844 75.816 
L 40.357939 70.272 
L 40.416082 64.728 
L 40.480589 59.184 
L 40.550937 53.64 
L 40.626726 48.096 
L 40.707652 42.552 
L 40.79349 37.008 
L 40.884077 31.464 
L 40.979302 25.92 
L 41.808958 25.92 
L 41.697867 31.464 
L 41.592186 37.008 
L 41.492046 42.552 
L 41.397635 48.096 
L 41.309218 53.64 
L 41.227148 59.184 
L 41.151893 64.728 
L 41.084064 70.272 
L 41.024454 75.816 
L 40.974105 81.36 
L 40.934381 86.904 
L 40.907097 92.448 
L 40.894693 97.992 
L 40.900513 103.536 
L 40.92924 109.08 
L 40.987618 114.624 
L 41.085684 120.168 
L 41.239036 125.712 
L 41.473241 131.256 
L 41.83327 136.8 
L 41.952 138.036708 
L 42.492043 142.344 
L 43.367798 147.888 
L 44.45945 153.432 
L 45.824276 158.976 
L 47.544979 164.52 
L 47.904 165.377973 
L 51.324205 170.064 
L 53.856 172.673282 
L 58.232553 175.608 
L 59.808 176.321212 
L 65.76 178.08862 
L 71.712 179.302138 
L 77.664 180.108366 
L 83.616 180.605649 
L 89.568 180.863442 
L 95.52 180.932646 
L 101.472 180.851606 
L 107.424 180.649831 
L 113.376 180.350418 
L 119.328 179.971696 
L 125.28 179.528379 
L 131.232 179.032388 
L 137.184 178.493467 
L 143.136 177.919633 
L 149.088 177.317522 
L 155.04 176.692657 
L 160.992 176.049654 
L 165.014002 175.608 
L 166.944 175.103115 
L 172.896 173.504892 
L 178.848 171.836559 
L 184.8 170.103288 
L 184.93413 170.064 
L 189.054357 164.52 
L 185.594545 158.976 
L 184.8 158.374243 
L 178.848 153.488616 
L 178.784145 153.432 
L 172.896 149.42639 
L 170.80328 147.888 
L 166.944 145.363558 
L 162.65521 142.344 
L 160.992 141.229366 
L 155.04 136.953017 
L 154.840335 136.8 
L 149.088 132.452082 
L 147.611572 131.256 
L 143.136 127.596188 
L 140.981785 125.712 
L 137.184 122.308042 
L 134.947784 120.168 
L 131.232 116.485785 
L 129.469428 114.624 
L 125.28 110.006636 
L 124.489829 109.08 
L 119.971214 103.536 
L 119.328 102.708464 
L 115.871869 97.992 
L 113.376 94.393133 
L 112.101042 92.448 
L 108.651147 86.904 
L 107.424 84.826027 
L 105.481773 81.36 
L 102.544554 75.816 
L 101.472 73.685394 
L 99.833062 70.272 
L 97.31157 64.728 
L 95.52 60.567552 
L 94.947481 59.184 
L 92.758604 53.64 
L 90.689282 48.096 
L 89.568 44.942037 
L 88.742478 42.552 
L 86.915245 37.008 
L 85.181551 31.464 
L 83.616 26.20107 
L 83.533333 25.92 
L 83.616 25.92 
L 88.49348 25.92 
L 89.568 29.430476 
L 90.209605 31.464 
L 92.035189 37.008 
L 93.956106 42.552 
L 95.52 46.845092 
L 95.994545 48.096 
L 98.192468 53.64 
L 100.514139 59.184 
L 101.472 61.363135 
L 103.022686 64.728 
L 105.713969 70.272 
L 107.424 73.611905 
L 108.612696 75.816 
L 111.759333 81.36 
L 113.376 84.060673 
L 115.174939 86.904 
L 118.879076 92.448 
L 119.328 93.088683 
L 122.969328 97.992 
L 125.28 100.942669 
L 127.435826 103.536 
L 131.232 107.881146 
L 132.345206 109.08 
L 137.184 114.058339 
L 137.768958 114.624 
L 143.136 119.607502 
L 143.778873 120.168 
L 149.088 124.643056 
L 150.440098 125.712 
L 155.04 129.261485 
L 157.799459 131.256 
L 160.992 133.539978 
L 165.864987 136.8 
L 166.944 137.53006 
L 172.896 141.311422 
L 174.628016 142.344 
L 178.848 144.974581 
L 183.863852 147.888 
L 184.8 148.493234 
L 190.752 152.101911 
L 193.100917 153.432 
L 196.704 156.004969 
L 201.199974 158.976 
L 202.656 160.790591 
L 205.910843 164.52 
L 202.740307 170.064 
L 202.656 170.08889 
L 196.704 171.842668 
L 190.752 173.543376 
L 184.8 175.187221 
L 183.252342 175.608 
L 178.848 176.088769 
L 172.896 176.733954 
L 166.944 177.369723 
L 160.992 177.993254 
L 155.04 178.601213 
L 149.088 179.189652 
L 143.136 179.753869 
L 137.184 180.288255 
L 131.232 180.786078 
L 126.448676 181.152 
L 125.28 181.198696 
L 119.328 181.408874 
L 113.376 181.582304 
L 107.424 181.716425 
L 101.472 181.805743 
L 95.52 181.840049 
L 89.568 181.800741 
L 83.616 181.652591 
L 77.664 181.322814 
L 76.043959 181.152 
L 71.712 180.527068 
L 65.76 179.245461 
L 59.808 177.406421 
L 55.835384 175.608 
L 53.856 174.280715 
L 49.764507 170.064 
L 47.904 167.514916 
L 46.65077 164.52 
L 44.878968 158.976 
L 43.464847 153.432 
L 42.325641 147.888 
L 41.952 145.582594 
z
" clip-path="url(#pbc6721864c)" style="fill: #297a8e"/>
   </g>
   <g id="PathCollection_9">
    <path d="M 41.83327 136.8 
L 41.473241 131.256 
L 41.239036 125.712 
L 41.085684 120.168 
L 40.987618 114.624 
L 40.92924 109.08 
L 40.900513 103.536 
L 40.894693 97.992 
L 40.907097 92.448 
L 40.934381 86.904 
L 40.974105 81.36 
L 41.024454 75.816 
L 41.084064 70.272 
L 41.151893 64.728 
L 41.227148 59.184 
L 41.309218 53.64 
L 41.397635 48.096 
L 41.492046 42.552 
L 41.592186 37.008 
L 41.697867 31.464 
L 41.808958 25.92 
L 41.952 25.92 
L 43.415695 25.92 
L 43.152172 31.464 
L 42.897699 37.008 
L 42.653578 42.552 
L 42.421278 48.096 
L 42.202464 53.64 
L 41.999027 59.184 
L 41.952 60.568272 
L 41.887705 64.728 
L 41.810188 70.272 
L 41.742065 75.816 
L 41.684524 81.36 
L 41.639127 86.904 
L 41.607946 92.448 
L 41.59377 97.992 
L 41.600421 103.536 
L 41.633252 109.08 
L 41.699967 114.624 
L 41.81204 120.168 
L 41.952 124.621775 
L 42.009369 125.712 
L 42.407378 131.256 
L 42.922936 136.8 
L 43.580077 142.344 
L 44.409954 147.888 
L 45.454053 153.432 
L 46.769585 158.976 
L 47.904 162.675122 
L 48.926756 164.52 
L 52.883902 170.064 
L 53.856 171.06585 
L 59.808 175.000763 
L 61.179989 175.608 
L 65.76 176.931779 
L 71.712 178.077207 
L 77.664 178.818665 
L 83.616 179.254289 
L 89.568 179.453338 
L 95.52 179.466529 
L 101.472 179.332035 
L 107.424 179.079205 
L 113.376 178.730986 
L 119.328 178.305569 
L 125.28 177.817539 
L 131.232 177.278698 
L 137.184 176.698679 
L 143.136 176.085397 
L 147.598712 175.608 
L 149.088 175.245833 
L 155.04 173.741399 
L 160.992 172.147963 
L 166.944 170.472885 
L 168.369222 170.064 
L 172.896 165.126276 
L 173.420957 164.52 
L 172.896 163.336379 
L 171.136022 158.976 
L 166.944 154.933863 
L 165.515506 153.432 
L 160.992 149.89463 
L 158.625038 147.888 
L 155.04 145.216388 
L 151.469034 142.344 
L 149.088 140.531457 
L 144.531279 136.8 
L 143.136 135.674669 
L 138.029086 131.256 
L 137.184 130.518245 
L 132.040101 125.712 
L 131.232 124.938045 
L 126.568624 120.168 
L 125.28 118.801966 
L 121.581715 114.624 
L 119.328 111.963823 
L 117.029757 109.08 
L 113.376 104.25886 
L 112.859083 103.536 
L 109.07189 97.992 
L 107.424 95.444458 
L 105.586342 92.448 
L 102.371928 86.904 
L 101.472 85.270677 
L 99.417179 81.36 
L 96.669547 75.816 
L 95.52 73.371601 
L 94.118616 70.272 
L 91.744586 64.728 
L 89.568 59.334556 
L 89.508872 59.184 
L 87.425405 53.64 
L 85.459845 48.096 
L 83.616 42.597362 
L 83.600918 42.552 
L 81.833317 37.008 
L 80.160553 31.464 
L 78.573953 25.92 
L 83.533333 25.92 
L 83.616 26.20107 
L 85.181551 31.464 
L 86.915245 37.008 
L 88.742478 42.552 
L 89.568 44.942037 
L 90.689282 48.096 
L 92.758604 53.64 
L 94.947481 59.184 
L 95.52 60.567552 
L 97.31157 64.728 
L 99.833062 70.272 
L 101.472 73.685394 
L 102.544554 75.816 
L 105.481773 81.36 
L 107.424 84.826027 
L 108.651147 86.904 
L 112.101042 92.448 
L 113.376 94.393133 
L 115.871869 97.992 
L 119.328 102.708464 
L 119.971214 103.536 
L 124.489829 109.08 
L 125.28 110.006636 
L 129.469428 114.624 
L 131.232 116.485785 
L 134.947784 120.168 
L 137.184 122.308042 
L 140.981785 125.712 
L 143.136 127.596188 
L 147.611572 131.256 
L 149.088 132.452082 
L 154.840335 136.8 
L 155.04 136.953017 
L 160.992 141.229366 
L 162.65521 142.344 
L 166.944 145.363558 
L 170.80328 147.888 
L 172.896 149.42639 
L 178.784145 153.432 
L 178.848 153.488616 
L 184.8 158.374243 
L 185.594545 158.976 
L 189.054357 164.52 
L 184.93413 170.064 
L 184.8 170.103288 
L 178.848 171.836559 
L 172.896 173.504892 
L 166.944 175.103115 
L 165.014002 175.608 
L 160.992 176.049654 
L 155.04 176.692657 
L 149.088 177.317522 
L 143.136 177.919633 
L 137.184 178.493467 
L 131.232 179.032388 
L 125.28 179.528379 
L 119.328 179.971696 
L 113.376 180.350418 
L 107.424 180.649831 
L 101.472 180.851606 
L 95.52 180.932646 
L 89.568 180.863442 
L 83.616 180.605649 
L 77.664 180.108366 
L 71.712 179.302138 
L 65.76 178.08862 
L 59.808 176.321212 
L 58.232553 175.608 
L 53.856 172.673282 
L 51.324205 170.064 
L 47.904 165.377973 
L 47.544979 164.52 
L 45.824276 158.976 
L 44.45945 153.432 
L 43.367798 147.888 
L 42.492043 142.344 
L 41.952 138.036708 
z
" clip-path="url(#pbc6721864c)" style="fill: #23898e"/>
   </g>
   <g id="PathCollection_10">
    <path d="M 41.81204 120.168 
L 41.699967 114.624 
L 41.633252 109.08 
L 41.600421 103.536 
L 41.59377 97.992 
L 41.607946 92.448 
L 41.639127 86.904 
L 41.684524 81.36 
L 41.742065 75.816 
L 41.810188 70.272 
L 41.887705 64.728 
L 41.952 60.568272 
L 41.999027 59.184 
L 42.202464 53.64 
L 42.421278 48.096 
L 42.653578 42.552 
L 42.897699 37.008 
L 43.152172 31.464 
L 43.415695 25.92 
L 45.18432 25.92 
L 44.897328 31.464 
L 44.618722 37.008 
L 44.349777 42.552 
L 44.091931 48.096 
L 43.846819 53.64 
L 43.616299 59.184 
L 43.402491 64.728 
L 43.207822 70.272 
L 43.035078 75.816 
L 42.887472 81.36 
L 42.768722 86.904 
L 42.683156 92.448 
L 42.635832 97.992 
L 42.6327 103.536 
L 42.680806 109.08 
L 42.788557 114.624 
L 42.966069 120.168 
L 43.22564 125.712 
L 43.582403 131.256 
L 44.055237 136.8 
L 44.668111 142.344 
L 45.452111 147.888 
L 46.448656 153.432 
L 47.714893 158.976 
L 47.904 159.592643 
L 50.635609 164.52 
L 53.856 169.140342 
L 54.892413 170.064 
L 59.808 173.229302 
L 65.182426 175.608 
L 65.76 175.774939 
L 71.712 176.852277 
L 77.664 177.528964 
L 83.616 177.902929 
L 89.568 178.043234 
L 95.52 178.000412 
L 101.472 177.812464 
L 107.424 177.508578 
L 113.376 177.111554 
L 119.328 176.639442 
L 125.28 176.106699 
L 130.400655 175.608 
L 131.232 175.432789 
L 137.184 174.094132 
L 143.136 172.638232 
L 149.088 171.076138 
L 152.771118 170.064 
L 155.04 168.087756 
L 158.843452 164.52 
L 157.640579 158.976 
L 155.04 155.920828 
L 153.104288 153.432 
L 149.088 149.754925 
L 147.21282 147.888 
L 143.136 144.377087 
L 140.954195 142.344 
L 137.184 139.043288 
L 134.806277 136.8 
L 131.232 133.48913 
L 128.987067 131.256 
L 125.28 127.537837 
L 123.579263 125.712 
L 119.328 121.028636 
L 118.595621 120.168 
L 114.035342 114.624 
L 113.376 113.788938 
L 109.871717 109.08 
L 107.424 105.612812 
L 106.035839 103.536 
L 102.516491 97.992 
L 101.472 96.25998 
L 99.280718 92.448 
L 96.280176 86.904 
L 95.52 85.426545 
L 93.507735 81.36 
L 90.925412 75.816 
L 89.568 72.735875 
L 88.510005 70.272 
L 86.253743 64.728 
L 84.133331 59.184 
L 83.616 57.765627 
L 82.120816 53.64 
L 80.222585 48.096 
L 78.4327 42.552 
L 77.664 40.053611 
L 76.701458 37.008 
L 75.037425 31.464 
L 73.465448 25.92 
L 77.664 25.92 
L 78.573953 25.92 
L 80.160553 31.464 
L 81.833317 37.008 
L 83.600918 42.552 
L 83.616 42.597362 
L 85.459845 48.096 
L 87.425405 53.64 
L 89.508872 59.184 
L 89.568 59.334556 
L 91.744586 64.728 
L 94.118616 70.272 
L 95.52 73.371601 
L 96.669547 75.816 
L 99.417179 81.36 
L 101.472 85.270677 
L 102.371928 86.904 
L 105.586342 92.448 
L 107.424 95.444458 
L 109.07189 97.992 
L 112.859083 103.536 
L 113.376 104.25886 
L 117.029757 109.08 
L 119.328 111.963823 
L 121.581715 114.624 
L 125.28 118.801966 
L 126.568624 120.168 
L 131.232 124.938045 
L 132.040101 125.712 
L 137.184 130.518245 
L 138.029086 131.256 
L 143.136 135.674669 
L 144.531279 136.8 
L 149.088 140.531457 
L 151.469034 142.344 
L 155.04 145.216388 
L 158.625038 147.888 
L 160.992 149.89463 
L 165.515506 153.432 
L 166.944 154.933863 
L 171.136022 158.976 
L 172.896 163.336379 
L 173.420957 164.52 
L 172.896 165.126276 
L 168.369222 170.064 
L 166.944 170.472885 
L 160.992 172.147963 
L 155.04 173.741399 
L 149.088 175.245833 
L 147.598712 175.608 
L 143.136 176.085397 
L 137.184 176.698679 
L 131.232 177.278698 
L 125.28 177.817539 
L 119.328 178.305569 
L 113.376 178.730986 
L 107.424 179.079205 
L 101.472 179.332035 
L 95.52 179.466529 
L 89.568 179.453338 
L 83.616 179.254289 
L 77.664 178.818665 
L 71.712 178.077207 
L 65.76 176.931779 
L 61.179989 175.608 
L 59.808 175.000763 
L 53.856 171.06585 
L 52.883902 170.064 
L 48.926756 164.52 
L 47.904 162.675122 
L 46.769585 158.976 
L 45.454053 153.432 
L 44.409954 147.888 
L 43.580077 142.344 
L 42.922936 136.8 
L 42.407378 131.256 
L 42.009369 125.712 
L 41.952 124.621775 
z
" clip-path="url(#pbc6721864c)" style="fill: #1f988b"/>
   </g>
   <g id="PathCollection_11">
    <path d="M 47.714893 158.976 
L 46.448656 153.432 
L 45.452111 147.888 
L 44.668111 142.344 
L 44.055237 136.8 
L 43.582403 131.256 
L 43.22564 125.712 
L 42.966069 120.168 
L 42.788557 114.624 
L 42.680806 109.08 
L 42.6327 103.536 
L 42.635832 97.992 
L 42.683156 92.448 
L 42.768722 86.904 
L 42.887472 81.36 
L 43.035078 75.816 
L 43.207822 70.272 
L 43.402491 64.728 
L 43.616299 59.184 
L 43.846819 53.64 
L 44.091931 48.096 
L 44.349777 42.552 
L 44.618722 37.008 
L 44.897328 31.464 
L 45.18432 25.92 
L 46.952946 25.92 
L 46.642483 31.464 
L 46.339745 37.008 
L 46.045975 42.552 
L 45.762584 48.096 
L 45.491173 53.64 
L 45.23357 59.184 
L 44.99186 64.728 
L 44.768431 70.272 
L 44.566033 75.816 
L 44.387837 81.36 
L 44.237518 86.904 
L 44.119358 92.448 
L 44.038369 97.992 
L 44.000449 103.536 
L 44.012591 109.08 
L 44.083147 114.624 
L 44.222174 120.168 
L 44.441912 125.712 
L 44.757428 131.256 
L 45.187538 136.8 
L 45.756145 142.344 
L 46.494268 147.888 
L 47.443259 153.432 
L 47.904 155.465107 
L 49.393329 158.976 
L 52.344461 164.52 
L 53.856 166.688627 
L 57.643422 170.064 
L 59.808 171.45784 
L 65.76 173.952012 
L 71.604133 175.608 
L 71.712 175.627346 
L 77.664 176.239264 
L 83.616 176.551569 
L 89.568 176.63313 
L 95.52 176.534295 
L 101.472 176.292893 
L 107.424 175.937952 
L 111.863761 175.608 
L 113.376 175.376999 
L 119.328 174.317758 
L 125.28 173.096298 
L 131.232 171.730443 
L 137.184 170.235251 
L 137.839155 170.064 
L 143.136 166.113673 
L 145.08447 164.52 
L 144.944683 158.976 
L 143.136 156.260001 
L 141.421251 153.432 
L 137.184 148.774217 
L 136.444471 147.888 
L 131.232 142.604489 
L 130.994842 142.344 
L 125.557949 136.8 
L 125.28 136.52276 
L 120.362021 131.256 
L 119.328 130.139662 
L 115.492493 125.712 
L 113.376 123.202364 
L 110.971883 120.168 
L 107.424 115.505797 
L 106.790078 114.624 
L 102.956221 109.08 
L 101.472 106.821667 
L 99.415424 103.536 
L 96.140752 97.992 
L 95.52 96.88886 
L 93.116126 92.448 
L 90.303294 86.904 
L 89.568 85.378641 
L 87.677985 81.36 
L 85.228928 75.816 
L 83.616 71.939009 
L 82.924223 70.272 
L 80.741705 64.728 
L 78.698503 59.184 
L 77.664 56.220849 
L 76.732609 53.64 
L 74.839571 48.096 
L 73.063807 42.552 
L 71.712 38.082497 
L 71.352464 37.008 
L 69.587464 31.464 
L 67.933535 25.92 
L 71.712 25.92 
L 73.465448 25.92 
L 75.037425 31.464 
L 76.701458 37.008 
L 77.664 40.053611 
L 78.4327 42.552 
L 80.222585 48.096 
L 82.120816 53.64 
L 83.616 57.765627 
L 84.133331 59.184 
L 86.253743 64.728 
L 88.510005 70.272 
L 89.568 72.735875 
L 90.925412 75.816 
L 93.507735 81.36 
L 95.52 85.426545 
L 96.280176 86.904 
L 99.280718 92.448 
L 101.472 96.25998 
L 102.516491 97.992 
L 106.035839 103.536 
L 107.424 105.612812 
L 109.871717 109.08 
L 113.376 113.788938 
L 114.035342 114.624 
L 118.595621 120.168 
L 119.328 121.028636 
L 123.579263 125.712 
L 125.28 127.537837 
L 128.987067 131.256 
L 131.232 133.48913 
L 134.806277 136.8 
L 137.184 139.043288 
L 140.954195 142.344 
L 143.136 144.377087 
L 147.21282 147.888 
L 149.088 149.754925 
L 153.104288 153.432 
L 155.04 155.920828 
L 157.640579 158.976 
L 158.843452 164.52 
L 155.04 168.087756 
L 152.771118 170.064 
L 149.088 171.076138 
L 143.136 172.638232 
L 137.184 174.094132 
L 131.232 175.432789 
L 130.400655 175.608 
L 125.28 176.106699 
L 119.328 176.639442 
L 113.376 177.111554 
L 107.424 177.508578 
L 101.472 177.812464 
L 95.52 178.000412 
L 89.568 178.043234 
L 83.616 177.902929 
L 77.664 177.528964 
L 71.712 176.852277 
L 65.76 175.774939 
L 65.182426 175.608 
L 59.808 173.229302 
L 54.892413 170.064 
L 53.856 169.140342 
L 50.635609 164.52 
L 47.904 159.592643 
z
" clip-path="url(#pbc6721864c)" style="fill: #22a785"/>
   </g>
   <g id="PathCollection_12">
    <path d="M 47.443259 153.432 
L 46.494268 147.888 
L 45.756145 142.344 
L 45.187538 136.8 
L 44.757428 131.256 
L 44.441912 125.712 
L 44.222174 120.168 
L 44.083147 114.624 
L 44.012591 109.08 
L 44.000449 103.536 
L 44.038369 97.992 
L 44.119358 92.448 
L 44.237518 86.904 
L 44.387837 81.36 
L 44.566033 75.816 
L 44.768431 70.272 
L 44.99186 64.728 
L 45.23357 59.184 
L 45.491173 53.64 
L 45.762584 48.096 
L 46.045975 42.552 
L 46.339745 37.008 
L 46.642483 31.464 
L 46.952946 25.92 
L 47.904 25.92 
L 51.093202 25.92 
L 49.739197 31.464 
L 48.482656 37.008 
L 47.904 39.715856 
L 47.742173 42.552 
L 47.433236 48.096 
L 47.135528 53.64 
L 46.850842 59.184 
L 46.581229 64.728 
L 46.329041 70.272 
L 46.096988 75.816 
L 45.888202 81.36 
L 45.706314 86.904 
L 45.555561 92.448 
L 45.440905 97.992 
L 45.368197 103.536 
L 45.344376 109.08 
L 45.377737 114.624 
L 45.47828 120.168 
L 45.658184 125.712 
L 45.932453 131.256 
L 46.319839 136.8 
L 46.844178 142.344 
L 47.536424 147.888 
L 47.904 150.086405 
L 48.987444 153.432 
L 51.255103 158.976 
L 53.856 164.096756 
L 54.219165 164.52 
L 59.808 169.470154 
L 60.846107 170.064 
L 65.76 172.016755 
L 71.712 173.542414 
L 77.664 174.453271 
L 83.616 174.876407 
L 89.568 174.901873 
L 95.52 174.596232 
L 101.472 174.010293 
L 107.424 173.183846 
L 113.376 172.148697 
L 119.328 170.930712 
L 123.130584 170.064 
L 125.28 168.847492 
L 131.232 165.005377 
L 131.918571 164.52 
L 132.881707 158.976 
L 131.232 155.524753 
L 130.323595 153.432 
L 126.216342 147.888 
L 125.28 146.849216 
L 121.532299 142.344 
L 119.328 139.892895 
L 116.745044 136.8 
L 113.376 132.861947 
L 112.092102 131.256 
L 107.685643 125.712 
L 107.424 125.377372 
L 103.582383 120.168 
L 101.472 117.180383 
L 99.755072 114.624 
L 96.207228 109.08 
L 95.52 107.957678 
L 92.915651 103.536 
L 89.858234 97.992 
L 89.568 97.441147 
L 86.997635 92.448 
L 84.338498 86.904 
L 83.616 85.316651 
L 81.81399 81.36 
L 79.451137 75.816 
L 77.664 71.336567 
L 77.22134 70.272 
L 75.036235 64.728 
L 73.004743 59.184 
L 71.712 55.43247 
L 71.018864 53.64 
L 68.997984 48.096 
L 67.122456 42.552 
L 65.76 38.254625 
L 65.23135 37.008 
L 63.02672 31.464 
L 61.006081 25.92 
L 65.76 25.92 
L 67.933535 25.92 
L 69.587464 31.464 
L 71.352464 37.008 
L 71.712 38.082497 
L 73.063807 42.552 
L 74.839571 48.096 
L 76.732609 53.64 
L 77.664 56.220849 
L 78.698503 59.184 
L 80.741705 64.728 
L 82.924223 70.272 
L 83.616 71.939009 
L 85.228928 75.816 
L 87.677985 81.36 
L 89.568 85.378641 
L 90.303294 86.904 
L 93.116126 92.448 
L 95.52 96.88886 
L 96.140752 97.992 
L 99.415424 103.536 
L 101.472 106.821667 
L 102.956221 109.08 
L 106.790078 114.624 
L 107.424 115.505797 
L 110.971883 120.168 
L 113.376 123.202364 
L 115.492493 125.712 
L 119.328 130.139662 
L 120.362021 131.256 
L 125.28 136.52276 
L 125.557949 136.8 
L 130.994842 142.344 
L 131.232 142.604489 
L 136.444471 147.888 
L 137.184 148.774217 
L 141.421251 153.432 
L 143.136 156.260001 
L 144.944683 158.976 
L 145.08447 164.52 
L 143.136 166.113673 
L 137.839155 170.064 
L 137.184 170.235251 
L 131.232 171.730443 
L 125.28 173.096298 
L 119.328 174.317758 
L 113.376 175.376999 
L 111.863761 175.608 
L 107.424 175.937952 
L 101.472 176.292893 
L 95.52 176.534295 
L 89.568 176.63313 
L 83.616 176.551569 
L 77.664 176.239264 
L 71.712 175.627346 
L 71.604133 175.608 
L 65.76 173.952012 
L 59.808 171.45784 
L 57.643422 170.064 
L 53.856 166.688627 
L 52.344461 164.52 
L 49.393329 158.976 
L 47.904 155.465107 
z
" clip-path="url(#pbc6721864c)" style="fill: #32b67a"/>
   </g>
   <g id="PathCollection_13">
    <path d="M 47.536424 147.888 
L 46.844178 142.344 
L 46.319839 136.8 
L 45.932453 131.256 
L 45.658184 125.712 
L 45.47828 120.168 
L 45.377737 114.624 
L 45.344376 109.08 
L 45.368197 103.536 
L 45.440905 97.992 
L 45.555561 92.448 
L 45.706314 86.904 
L 45.888202 81.36 
L 46.096988 75.816 
L 46.329041 70.272 
L 46.581229 64.728 
L 46.850842 59.184 
L 47.135528 53.64 
L 47.433236 48.096 
L 47.742173 42.552 
L 47.904 39.715856 
L 48.482656 37.008 
L 49.739197 31.464 
L 51.093202 25.92 
L 53.856 25.92 
L 59.808 25.92 
L 61.006081 25.92 
L 63.02672 31.464 
L 65.23135 37.008 
L 65.76 38.254625 
L 67.122456 42.552 
L 68.997984 48.096 
L 71.018864 53.64 
L 71.712 55.43247 
L 73.004743 59.184 
L 75.036235 64.728 
L 77.22134 70.272 
L 77.664 71.336567 
L 79.451137 75.816 
L 81.81399 81.36 
L 83.616 85.316651 
L 84.338498 86.904 
L 86.997635 92.448 
L 89.568 97.441147 
L 89.858234 97.992 
L 92.915651 103.536 
L 95.52 107.957678 
L 96.207228 109.08 
L 99.755072 114.624 
L 101.472 117.180383 
L 103.582383 120.168 
L 107.424 125.377372 
L 107.685643 125.712 
L 112.092102 131.256 
L 113.376 132.861947 
L 116.745044 136.8 
L 119.328 139.892895 
L 121.532299 142.344 
L 125.28 146.849216 
L 126.216342 147.888 
L 130.323595 153.432 
L 131.232 155.524753 
L 132.881707 158.976 
L 131.918571 164.52 
L 131.232 165.005377 
L 125.28 168.847492 
L 123.130584 170.064 
L 119.328 170.930712 
L 113.376 172.148697 
L 107.424 173.183846 
L 101.472 174.010293 
L 95.52 174.596232 
L 89.568 174.901873 
L 83.616 174.876407 
L 77.664 174.453271 
L 71.712 173.542414 
L 65.76 172.016755 
L 60.846107 170.064 
L 59.808 169.470154 
L 54.219165 164.52 
L 53.856 164.096756 
L 51.255103 158.976 
L 48.987444 153.432 
L 47.904 150.086405 
z
M 47.904 142.005752 
L 47.964765 142.344 
L 49.314477 147.888 
L 51.005934 153.432 
L 53.116876 158.976 
L 53.856 160.431218 
L 57.364386 164.52 
L 59.808 166.684363 
L 65.715967 170.064 
L 65.76 170.081498 
L 71.712 171.443681 
L 77.664 172.191467 
L 83.616 172.452014 
L 89.568 172.315436 
L 95.52 171.848345 
L 101.472 171.101593 
L 107.424 170.114999 
L 107.69071 170.064 
L 113.376 167.577112 
L 119.031098 164.52 
L 119.328 163.847193 
L 121.237331 158.976 
L 119.653411 153.432 
L 119.328 152.922949 
L 116.376379 147.888 
L 113.376 143.803206 
L 112.383666 142.344 
L 108.195755 136.8 
L 107.424 135.817897 
L 104.059667 131.256 
L 101.472 127.715183 
L 100.084339 125.712 
L 96.333416 120.168 
L 95.52 118.92787 
L 92.80629 114.624 
L 89.568 109.167399 
L 89.517214 109.08 
L 86.413737 103.536 
L 83.616 98.145216 
L 83.535968 97.992 
L 80.769081 92.448 
L 78.2148 86.904 
L 77.664 85.64389 
L 75.69861 81.36 
L 73.341516 75.816 
L 71.712 71.700425 
L 71.064744 70.272 
L 68.709361 64.728 
L 66.551845 59.184 
L 65.76 57.017169 
L 64.034998 53.64 
L 61.461671 48.096 
L 59.808 44.184315 
L 56.732194 42.552 
L 53.856 40.77518 
L 53.413209 42.552 
L 52.094676 48.096 
L 50.879489 53.64 
L 49.767926 59.184 
L 48.760729 64.728 
L 47.904 69.983888 
L 47.88965 70.272 
L 47.627943 75.816 
L 47.388567 81.36 
L 47.17511 86.904 
L 46.991763 92.448 
L 46.843442 97.992 
L 46.735946 103.536 
L 46.676161 109.08 
L 46.672327 114.624 
L 46.734386 120.168 
L 46.874456 125.712 
L 47.107478 131.256 
L 47.45214 136.8 
z
" clip-path="url(#pbc6721864c)" style="fill: #4ec36b"/>
   </g>
   <g id="PathCollection_14">
    <path d="M 47.45214 136.8 
L 47.107478 131.256 
L 46.874456 125.712 
L 46.734386 120.168 
L 46.672327 114.624 
L 46.676161 109.08 
L 46.735946 103.536 
L 46.843442 97.992 
L 46.991763 92.448 
L 47.17511 86.904 
L 47.388567 81.36 
L 47.627943 75.816 
L 47.88965 70.272 
L 47.904 69.983888 
L 48.760729 64.728 
L 49.767926 59.184 
L 50.879489 53.64 
L 52.094676 48.096 
L 53.413209 42.552 
L 53.856 40.77518 
L 56.732194 42.552 
L 59.808 44.184315 
L 61.461671 48.096 
L 64.034998 53.64 
L 65.76 57.017169 
L 66.551845 59.184 
L 68.709361 64.728 
L 71.064744 70.272 
L 71.712 71.700425 
L 73.341516 75.816 
L 75.69861 81.36 
L 77.664 85.64389 
L 78.2148 86.904 
L 80.769081 92.448 
L 83.535968 97.992 
L 83.616 98.145216 
L 86.413737 103.536 
L 89.517214 109.08 
L 89.568 109.167399 
L 92.80629 114.624 
L 95.52 118.92787 
L 96.333416 120.168 
L 100.084339 125.712 
L 101.472 127.715183 
L 104.059667 131.256 
L 107.424 135.817897 
L 108.195755 136.8 
L 112.383666 142.344 
L 113.376 143.803206 
L 116.376379 147.888 
L 119.328 152.922949 
L 119.653411 153.432 
L 121.237331 158.976 
L 119.328 163.847193 
L 119.031098 164.52 
L 113.376 167.577112 
L 107.69071 170.064 
L 107.424 170.114999 
L 101.472 171.101593 
L 95.52 171.848345 
L 89.568 172.315436 
L 83.616 172.452014 
L 77.664 172.191467 
L 71.712 171.443681 
L 65.76 170.081498 
L 65.715967 170.064 
L 59.808 166.684363 
L 57.364386 164.52 
L 53.856 160.431218 
L 53.116876 158.976 
L 51.005934 153.432 
L 49.314477 147.888 
L 47.964765 142.344 
L 47.904 142.005752 
z
M 53.856 155.682303 
L 56.018857 158.976 
L 59.808 163.55343 
L 61.139419 164.52 
L 65.76 166.951513 
L 71.712 168.858401 
L 77.664 169.831076 
L 83.616 169.998701 
L 89.568 169.44075 
L 95.52 168.203819 
L 101.472 166.310748 
L 105.77343 164.52 
L 107.424 162.431283 
L 109.688626 158.976 
L 109.181686 153.432 
L 107.424 149.556774 
L 106.725215 147.888 
L 103.414143 142.344 
L 101.472 139.462693 
L 99.780612 136.8 
L 96.109653 131.256 
L 95.52 130.379571 
L 92.506432 125.712 
L 89.568 120.984648 
L 89.070351 120.168 
L 85.776429 114.624 
L 83.616 110.758727 
L 82.666867 109.08 
L 79.690312 103.536 
L 77.664 99.47746 
L 76.874285 97.992 
L 74.101771 92.448 
L 71.712 87.222383 
L 71.54045 86.904 
L 68.734041 81.36 
L 66.211564 75.816 
L 65.76 74.758398 
L 62.895851 70.272 
L 59.814199 64.728 
L 59.808 64.715971 
L 58.625866 64.728 
L 53.856 64.785462 
L 52.736462 70.272 
L 51.717824 75.816 
L 50.814636 81.36 
L 50.029924 86.904 
L 49.36759 92.448 
L 48.832566 97.992 
L 48.431016 103.536 
L 48.170595 109.08 
L 48.060798 114.624 
L 48.113418 120.168 
L 48.343184 125.712 
L 48.768646 131.256 
L 49.413451 136.8 
L 50.308231 142.344 
L 51.493516 147.888 
L 53.024425 153.432 
z
" clip-path="url(#pbc6721864c)" style="fill: #70cf57"/>
   </g>
   <g id="PathCollection_15">
    <path d="M 53.024425 153.432 
L 51.493516 147.888 
L 50.308231 142.344 
L 49.413451 136.8 
L 48.768646 131.256 
L 48.343184 125.712 
L 48.113418 120.168 
L 48.060798 114.624 
L 48.170595 109.08 
L 48.431016 103.536 
L 48.832566 97.992 
L 49.36759 92.448 
L 50.029924 86.904 
L 50.814636 81.36 
L 51.717824 75.816 
L 52.736462 70.272 
L 53.856 64.785462 
L 58.625866 64.728 
L 59.808 64.715971 
L 59.814199 64.728 
L 62.895851 70.272 
L 65.76 74.758398 
L 66.211564 75.816 
L 68.734041 81.36 
L 71.54045 86.904 
L 71.712 87.222383 
L 74.101771 92.448 
L 76.874285 97.992 
L 77.664 99.47746 
L 79.690312 103.536 
L 82.666867 109.08 
L 83.616 110.758727 
L 85.776429 114.624 
L 89.070351 120.168 
L 89.568 120.984648 
L 92.506432 125.712 
L 95.52 130.379571 
L 96.109653 131.256 
L 99.780612 136.8 
L 101.472 139.462693 
L 103.414143 142.344 
L 106.725215 147.888 
L 107.424 149.556774 
L 109.181686 153.432 
L 109.688626 158.976 
L 107.424 162.431283 
L 105.77343 164.52 
L 101.472 166.310748 
L 95.52 168.203819 
L 89.568 169.44075 
L 83.616 169.998701 
L 77.664 169.831076 
L 71.712 168.858401 
L 65.76 166.951513 
L 61.139419 164.52 
L 59.808 163.55343 
L 56.018857 158.976 
L 53.856 155.682303 
z
M 53.856 148.58232 
L 56.257794 153.432 
L 59.605683 158.976 
L 59.808 159.220407 
L 65.76 163.367154 
L 68.690249 164.52 
L 71.712 165.339554 
L 77.664 165.909349 
L 83.616 165.646838 
L 89.568 164.628824 
L 89.978129 164.52 
L 95.52 160.891946 
L 97.567692 158.976 
L 98.48112 153.432 
L 96.961824 147.888 
L 95.52 144.914473 
L 94.333196 142.344 
L 91.234716 136.8 
L 89.568 134.004516 
L 87.9604 131.256 
L 84.697209 125.712 
L 83.616 123.851897 
L 81.436043 120.168 
L 78.339287 114.624 
L 77.664 113.36749 
L 75.176304 109.08 
L 72.237642 103.536 
L 71.712 102.489212 
L 68.973206 97.992 
L 65.980999 92.448 
L 65.76 92.011213 
L 61.414325 86.904 
L 59.808 84.704493 
L 56.595112 86.904 
L 53.856 89.343796 
L 53.379322 92.448 
L 52.64083 97.992 
L 52.040651 103.536 
L 51.586292 109.08 
L 51.287106 114.624 
L 51.154759 120.168 
L 51.20386 125.712 
L 51.452851 131.256 
L 51.925281 136.8 
L 52.651697 142.344 
L 53.672556 147.888 
z
" clip-path="url(#pbc6721864c)" style="fill: #98d83e"/>
   </g>
   <g id="PathCollection_16">
    <path d="M 53.672556 147.888 
L 52.651697 142.344 
L 51.925281 136.8 
L 51.452851 131.256 
L 51.20386 125.712 
L 51.154759 120.168 
L 51.287106 114.624 
L 51.586292 109.08 
L 52.040651 103.536 
L 52.64083 97.992 
L 53.379322 92.448 
L 53.856 89.343796 
L 56.595112 86.904 
L 59.808 84.704493 
L 61.414325 86.904 
L 65.76 92.011213 
L 65.980999 92.448 
L 68.973206 97.992 
L 71.712 102.489212 
L 72.237642 103.536 
L 75.176304 109.08 
L 77.664 113.36749 
L 78.339287 114.624 
L 81.436043 120.168 
L 83.616 123.851897 
L 84.697209 125.712 
L 87.9604 131.256 
L 89.568 134.004516 
L 91.234716 136.8 
L 94.333196 142.344 
L 95.52 144.914473 
L 96.961824 147.888 
L 98.48112 153.432 
L 97.567692 158.976 
L 95.52 160.891946 
L 89.978129 164.52 
L 89.568 164.628824 
L 83.616 165.646838 
L 77.664 165.909349 
L 71.712 165.339554 
L 68.690249 164.52 
L 65.76 163.367154 
L 59.808 159.220407 
L 59.605683 158.976 
L 56.257794 153.432 
L 53.856 148.58232 
z
M 59.808 151.967374 
L 61.032245 153.432 
L 65.76 157.774761 
L 68.571955 158.976 
L 71.712 159.913131 
L 77.664 159.953657 
L 81.482615 158.976 
L 83.616 157.437033 
L 86.385086 153.432 
L 86.268089 147.888 
L 84.519453 142.344 
L 83.616 140.393921 
L 81.896407 136.8 
L 78.98367 131.256 
L 77.664 128.82387 
L 75.777641 125.712 
L 72.570652 120.168 
L 71.712 118.629956 
L 68.788353 114.624 
L 65.76 109.9041 
L 64.367037 109.08 
L 59.808 105.855161 
L 58.069712 109.08 
L 56.032078 114.624 
L 54.881804 120.168 
L 54.434801 125.712 
L 54.579696 131.256 
L 55.253655 136.8 
L 56.430126 142.344 
L 58.113949 147.888 
z
" clip-path="url(#pbc6721864c)" style="fill: #c2df23"/>
   </g>
   <g id="PathCollection_17">
    <path d="M 58.113949 147.888 
L 56.430126 142.344 
L 55.253655 136.8 
L 54.579696 131.256 
L 54.434801 125.712 
L 54.881804 120.168 
L 56.032078 114.624 
L 58.069712 109.08 
L 59.808 105.855161 
L 64.367037 109.08 
L 65.76 109.9041 
L 68.788353 114.624 
L 71.712 118.629956 
L 72.570652 120.168 
L 75.777641 125.712 
L 77.664 128.82387 
L 78.98367 131.256 
L 81.896407 136.8 
L 83.616 140.393921 
L 84.519453 142.344 
L 86.268089 147.888 
L 86.385086 153.432 
L 83.616 157.437033 
L 81.482615 158.976 
L 77.664 159.953657 
L 71.712 159.913131 
L 68.571955 158.976 
L 65.76 157.774761 
L 61.032245 153.432 
L 59.808 151.967374 
z
" clip-path="url(#pbc6721864c)" style="fill: #ece51b"/>
   </g>
   <g id="PathCollection_18">
    <defs>
     <path id="m38bfd7e216" d="M -4.330127 4.330127 
L 4.330127 -4.330127 
M -4.330127 -4.330127 
L 4.330127 4.330127 
" style="stroke: #000000; stroke-width: 2"/>
    </defs>
    <g clip-path="url(#pbc6721864c)">
     <use xlink:href="#m38bfd7e216" x="65.76" y="146.04" style="stroke: #000000; stroke-width: 2"/>
    </g>
   </g>
   <g id="matplotlib.axis_1">
    <g id="xtick_1">
     <g id="line2d_1">
      <defs>
       <path id="m97a2e6b749" d="M 0 0 
L 0 6 
" style="stroke: #000000; stroke-width: 2"/>
      </defs>
      <g>
       <use xlink:href="#m97a2e6b749" x="65.76" y="192.24" style="stroke: #000000; stroke-width: 2"/>
      </g>
     </g>
     <g id="text_1">
      <!-- $\mathdefault{200}$ -->
      <g transform="translate(52.39 212.377813) scale(0.14 -0.14)">
       <defs>
        <path id="DejaVuSans-32" d="M 1228 531 
L 3431 531 
L 3431 0 
L 469 0 
L 469 531 
Q 828 903 1448 1529 
Q 2069 2156 2228 2338 
Q 2531 2678 2651 2914 
Q 2772 3150 2772 3378 
Q 2772 3750 2511 3984 
Q 2250 4219 1831 4219 
Q 1534 4219 1204 4116 
Q 875 4013 500 3803 
L 500 4441 
Q 881 4594 1212 4672 
Q 1544 4750 1819 4750 
Q 2544 4750 2975 4387 
Q 3406 4025 3406 3419 
Q 3406 3131 3298 2873 
Q 3191 2616 2906 2266 
Q 2828 2175 2409 1742 
Q 1991 1309 1228 531 
z
" transform="scale(0.015625)"/>
        <path id="DejaVuSans-30" d="M 2034 4250 
Q 1547 4250 1301 3770 
Q 1056 3291 1056 2328 
Q 1056 1369 1301 889 
Q 1547 409 2034 409 
Q 2525 409 2770 889 
Q 3016 1369 3016 2328 
Q 3016 3291 2770 3770 
Q 2525 4250 2034 4250 
z
M 2034 4750 
Q 2819 4750 3233 4129 
Q 3647 3509 3647 2328 
Q 3647 1150 3233 529 
Q 2819 -91 2034 -91 
Q 1250 -91 836 529 
Q 422 1150 422 2328 
Q 422 3509 836 4129 
Q 1250 4750 2034 4750 
z
" transform="scale(0.015625)"/>
       </defs>
       <use xlink:href="#DejaVuSans-32" transform="translate(0 0.78125)"/>
       <use xlink:href="#DejaVuSans-30" transform="translate(63.623047 0.78125)"/>
       <use xlink:href="#DejaVuSans-30" transform="translate(127.246094 0.78125)"/>
      </g>
     </g>
    </g>
    <g id="xtick_2">
     <g id="line2d_2">
      <g>
       <use xlink:href="#m97a2e6b749" x="105.44" y="192.24" style="stroke: #000000; stroke-width: 2"/>
      </g>
     </g>
     <g id="text_2">
      <!-- $\mathdefault{400}$ -->
      <g transform="translate(92.07 212.377813) scale(0.14 -0.14)">
       <defs>
        <path id="DejaVuSans-34" d="M 2419 4116 
L 825 1625 
L 2419 1625 
L 2419 4116 
z
M 2253 4666 
L 3047 4666 
L 3047 1625 
L 3713 1625 
L 3713 1100 
L 3047 1100 
L 3047 0 
L 2419 0 
L 2419 1100 
L 313 1100 
L 313 1709 
L 2253 4666 
z
" transform="scale(0.015625)"/>
       </defs>
       <use xlink:href="#DejaVuSans-34" transform="translate(0 0.78125)"/>
       <use xlink:href="#DejaVuSans-30" transform="translate(63.623047 0.78125)"/>
       <use xlink:href="#DejaVuSans-30" transform="translate(127.246094 0.78125)"/>
      </g>
     </g>
    </g>
    <g id="xtick_3">
     <g id="line2d_3">
      <g>
       <use xlink:href="#m97a2e6b749" x="145.12" y="192.24" style="stroke: #000000; stroke-width: 2"/>
      </g>
     </g>
     <g id="text_3">
      <!-- $\mathdefault{600}$ -->
      <g transform="translate(131.75 212.377813) scale(0.14 -0.14)">
       <defs>
        <path id="DejaVuSans-36" d="M 2113 2584 
Q 1688 2584 1439 2293 
Q 1191 2003 1191 1497 
Q 1191 994 1439 701 
Q 1688 409 2113 409 
Q 2538 409 2786 701 
Q 3034 994 3034 1497 
Q 3034 2003 2786 2293 
Q 2538 2584 2113 2584 
z
M 3366 4563 
L 3366 3988 
Q 3128 4100 2886 4159 
Q 2644 4219 2406 4219 
Q 1781 4219 1451 3797 
Q 1122 3375 1075 2522 
Q 1259 2794 1537 2939 
Q 1816 3084 2150 3084 
Q 2853 3084 3261 2657 
Q 3669 2231 3669 1497 
Q 3669 778 3244 343 
Q 2819 -91 2113 -91 
Q 1303 -91 875 529 
Q 447 1150 447 2328 
Q 447 3434 972 4092 
Q 1497 4750 2381 4750 
Q 2619 4750 2861 4703 
Q 3103 4656 3366 4563 
z
" transform="scale(0.015625)"/>
       </defs>
       <use xlink:href="#DejaVuSans-36" transform="translate(0 0.78125)"/>
       <use xlink:href="#DejaVuSans-30" transform="translate(63.623047 0.78125)"/>
       <use xlink:href="#DejaVuSans-30" transform="translate(127.246094 0.78125)"/>
      </g>
     </g>
    </g>
    <g id="xtick_4">
     <g id="line2d_4">
      <g>
       <use xlink:href="#m97a2e6b749" x="184.8" y="192.24" style="stroke: #000000; stroke-width: 2"/>
      </g>
     </g>
     <g id="text_4">
      <!-- $\mathdefault{800}$ -->
      <g transform="translate(171.43 212.377813) scale(0.14 -0.14)">
       <defs>
        <path id="DejaVuSans-38" d="M 2034 2216 
Q 1584 2216 1326 1975 
Q 1069 1734 1069 1313 
Q 1069 891 1326 650 
Q 1584 409 2034 409 
Q 2484 409 2743 651 
Q 3003 894 3003 1313 
Q 3003 1734 2745 1975 
Q 2488 2216 2034 2216 
z
M 1403 2484 
Q 997 2584 770 2862 
Q 544 3141 544 3541 
Q 544 4100 942 4425 
Q 1341 4750 2034 4750 
Q 2731 4750 3128 4425 
Q 3525 4100 3525 3541 
Q 3525 3141 3298 2862 
Q 3072 2584 2669 2484 
Q 3125 2378 3379 2068 
Q 3634 1759 3634 1313 
Q 3634 634 3220 271 
Q 2806 -91 2034 -91 
Q 1263 -91 848 271 
Q 434 634 434 1313 
Q 434 1759 690 2068 
Q 947 2378 1403 2484 
z
M 1172 3481 
Q 1172 3119 1398 2916 
Q 1625 2713 2034 2713 
Q 2441 2713 2670 2916 
Q 2900 3119 2900 3481 
Q 2900 3844 2670 4047 
Q 2441 4250 2034 4250 
Q 1625 4250 1398 4047 
Q 1172 3844 1172 3481 
z
" transform="scale(0.015625)"/>
       </defs>
       <use xlink:href="#DejaVuSans-38" transform="translate(0 0.78125)"/>
       <use xlink:href="#DejaVuSans-30" transform="translate(63.623047 0.78125)"/>
       <use xlink:href="#DejaVuSans-30" transform="translate(127.246094 0.78125)"/>
      </g>
     </g>
    </g>
    <g id="text_5">
     <!-- Diploid N$_e$0 -->
     <g transform="translate(74.34 232.969375) scale(0.18 -0.18)">
      <defs>
       <path id="DejaVuSans-44" d="M 1259 4147 
L 1259 519 
L 2022 519 
Q 2988 519 3436 956 
Q 3884 1394 3884 2338 
Q 3884 3275 3436 3711 
Q 2988 4147 2022 4147 
L 1259 4147 
z
M 628 4666 
L 1925 4666 
Q 3281 4666 3915 4102 
Q 4550 3538 4550 2338 
Q 4550 1131 3912 565 
Q 3275 0 1925 0 
L 628 0 
L 628 4666 
z
" transform="scale(0.015625)"/>
       <path id="DejaVuSans-69" d="M 603 3500 
L 1178 3500 
L 1178 0 
L 603 0 
L 603 3500 
z
M 603 4863 
L 1178 4863 
L 1178 4134 
L 603 4134 
L 603 4863 
z
" transform="scale(0.015625)"/>
       <path id="DejaVuSans-70" d="M 1159 525 
L 1159 -1331 
L 581 -1331 
L 581 3500 
L 1159 3500 
L 1159 2969 
Q 1341 3281 1617 3432 
Q 1894 3584 2278 3584 
Q 2916 3584 3314 3078 
Q 3713 2572 3713 1747 
Q 3713 922 3314 415 
Q 2916 -91 2278 -91 
Q 1894 -91 1617 61 
Q 1341 213 1159 525 
z
M 3116 1747 
Q 3116 2381 2855 2742 
Q 2594 3103 2138 3103 
Q 1681 3103 1420 2742 
Q 1159 2381 1159 1747 
Q 1159 1113 1420 752 
Q 1681 391 2138 391 
Q 2594 391 2855 752 
Q 3116 1113 3116 1747 
z
" transform="scale(0.015625)"/>
       <path id="DejaVuSans-6c" d="M 603 4863 
L 1178 4863 
L 1178 0 
L 603 0 
L 603 4863 
z
" transform="scale(0.015625)"/>
       <path id="DejaVuSans-6f" d="M 1959 3097 
Q 1497 3097 1228 2736 
Q 959 2375 959 1747 
Q 959 1119 1226 758 
Q 1494 397 1959 397 
Q 2419 397 2687 759 
Q 2956 1122 2956 1747 
Q 2956 2369 2687 2733 
Q 2419 3097 1959 3097 
z
M 1959 3584 
Q 2709 3584 3137 3096 
Q 3566 2609 3566 1747 
Q 3566 888 3137 398 
Q 2709 -91 1959 -91 
Q 1206 -91 779 398 
Q 353 888 353 1747 
Q 353 2609 779 3096 
Q 1206 3584 1959 3584 
z
" transform="scale(0.015625)"/>
       <path id="DejaVuSans-64" d="M 2906 2969 
L 2906 4863 
L 3481 4863 
L 3481 0 
L 2906 0 
L 2906 525 
Q 2725 213 2448 61 
Q 2172 -91 1784 -91 
Q 1150 -91 751 415 
Q 353 922 353 1747 
Q 353 2572 751 3078 
Q 1150 3584 1784 3584 
Q 2172 3584 2448 3432 
Q 2725 3281 2906 2969 
z
M 947 1747 
Q 947 1113 1208 752 
Q 1469 391 1925 391 
Q 2381 391 2643 752 
Q 2906 1113 2906 1747 
Q 2906 2381 2643 2742 
Q 2381 3103 1925 3103 
Q 1469 3103 1208 2742 
Q 947 2381 947 1747 
z
" transform="scale(0.015625)"/>
       <path id="DejaVuSans-20" transform="scale(0.015625)"/>
       <path id="DejaVuSans-4e" d="M 628 4666 
L 1478 4666 
L 3547 763 
L 3547 4666 
L 4159 4666 
L 4159 0 
L 3309 0 
L 1241 3903 
L 1241 0 
L 628 0 
L 628 4666 
z
" transform="scale(0.015625)"/>
       <path id="DejaVuSans-Oblique-65" d="M 3078 2063 
Q 3088 2113 3092 2166 
Q 3097 2219 3097 2272 
Q 3097 2653 2873 2875 
Q 2650 3097 2266 3097 
Q 1838 3097 1509 2826 
Q 1181 2556 1013 2059 
L 3078 2063 
z
M 3578 1613 
L 903 1613 
Q 884 1494 878 1425 
Q 872 1356 872 1306 
Q 872 872 1139 634 
Q 1406 397 1894 397 
Q 2269 397 2603 481 
Q 2938 566 3225 728 
L 3116 159 
Q 2806 34 2476 -28 
Q 2147 -91 1806 -91 
Q 1078 -91 686 257 
Q 294 606 294 1247 
Q 294 1794 489 2264 
Q 684 2734 1063 3103 
Q 1306 3334 1642 3459 
Q 1978 3584 2356 3584 
Q 2950 3584 3301 3228 
Q 3653 2872 3653 2272 
Q 3653 2128 3634 1964 
Q 3616 1800 3578 1613 
z
" transform="scale(0.015625)"/>
      </defs>
      <use xlink:href="#DejaVuSans-44" transform="translate(0 0.015625)"/>
      <use xlink:href="#DejaVuSans-69" transform="translate(77.001953 0.015625)"/>
      <use xlink:href="#DejaVuSans-70" transform="translate(104.785156 0.015625)"/>
      <use xlink:href="#DejaVuSans-6c" transform="translate(168.261719 0.015625)"/>
      <use xlink:href="#DejaVuSans-6f" transform="translate(196.044922 0.015625)"/>
      <use xlink:href="#DejaVuSans-69" transform="translate(257.226562 0.015625)"/>
      <use xlink:href="#DejaVuSans-64" transform="translate(285.009766 0.015625)"/>
      <use xlink:href="#DejaVuSans-20" transform="translate(348.486328 0.015625)"/>
      <use xlink:href="#DejaVuSans-4e" transform="translate(380.273438 0.015625)"/>
      <use xlink:href="#DejaVuSans-Oblique-65" transform="translate(456.035156 -16.390625) scale(0.7)"/>
      <use xlink:href="#DejaVuSans-30" transform="translate(501.835938 0.015625)"/>
     </g>
    </g>
    <g id="text_6">
     <!-- $\times\mathdefault{10^{3}}\mathdefault{}$ -->
     <g transform="translate(188.56 225.887812) scale(0.1 -0.1)">
      <defs>
       <path id="DejaVuSans-d7" d="M 4488 3438 
L 3059 2003 
L 4488 575 
L 4116 197 
L 2681 1631 
L 1247 197 
L 878 575 
L 2303 2003 
L 878 3438 
L 1247 3816 
L 2681 2381 
L 4116 3816 
L 4488 3438 
z
" transform="scale(0.015625)"/>
       <path id="DejaVuSans-31" d="M 794 531 
L 1825 531 
L 1825 4091 
L 703 3866 
L 703 4441 
L 1819 4666 
L 2450 4666 
L 2450 531 
L 3481 531 
L 3481 0 
L 794 0 
L 794 531 
z
" transform="scale(0.015625)"/>
       <path id="DejaVuSans-33" d="M 2597 2516 
Q 3050 2419 3304 2112 
Q 3559 1806 3559 1356 
Q 3559 666 3084 287 
Q 2609 -91 1734 -91 
Q 1441 -91 1130 -33 
Q 819 25 488 141 
L 488 750 
Q 750 597 1062 519 
Q 1375 441 1716 441 
Q 2309 441 2620 675 
Q 2931 909 2931 1356 
Q 2931 1769 2642 2001 
Q 2353 2234 1838 2234 
L 1294 2234 
L 1294 2753 
L 1863 2753 
Q 2328 2753 2575 2939 
Q 2822 3125 2822 3475 
Q 2822 3834 2567 4026 
Q 2313 4219 1838 4219 
Q 1578 4219 1281 4162 
Q 984 4106 628 3988 
L 628 4550 
Q 988 4650 1302 4700 
Q 1616 4750 1894 4750 
Q 2613 4750 3031 4423 
Q 3450 4097 3450 3541 
Q 3450 3153 3228 2886 
Q 3006 2619 2597 2516 
z
" transform="scale(0.015625)"/>
      </defs>
      <use xlink:href="#DejaVuSans-d7" transform="translate(0 0.765625)"/>
      <use xlink:href="#DejaVuSans-31" transform="translate(83.789062 0.765625)"/>
      <use xlink:href="#DejaVuSans-30" transform="translate(147.412109 0.765625)"/>
      <use xlink:href="#DejaVuSans-33" transform="translate(211.992188 39.046875) scale(0.7)"/>
     </g>
    </g>
   </g>
   <g id="matplotlib.axis_2">
    <g id="ytick_1">
     <g id="line2d_5">
      <defs>
       <path id="m18ec17e8e9" d="M 0 0 
L -6 0 
" style="stroke: #000000; stroke-width: 2"/>
      </defs>
      <g>
       <use xlink:href="#m18ec17e8e9" x="36" y="164.52" style="stroke: #000000; stroke-width: 2"/>
      </g>
     </g>
     <g id="text_7">
      <!-- $\mathdefault{200}$ -->
      <g transform="translate(-0.24 169.838906) scale(0.14 -0.14)">
       <use xlink:href="#DejaVuSans-32" transform="translate(0 0.78125)"/>
       <use xlink:href="#DejaVuSans-30" transform="translate(63.623047 0.78125)"/>
       <use xlink:href="#DejaVuSans-30" transform="translate(127.246094 0.78125)"/>
      </g>
     </g>
    </g>
    <g id="ytick_2">
     <g id="line2d_6">
      <g>
       <use xlink:href="#m18ec17e8e9" x="36" y="127.56" style="stroke: #000000; stroke-width: 2"/>
      </g>
     </g>
     <g id="text_8">
      <!-- $\mathdefault{400}$ -->
      <g transform="translate(-0.24 132.878906) scale(0.14 -0.14)">
       <use xlink:href="#DejaVuSans-34" transform="translate(0 0.78125)"/>
       <use xlink:href="#DejaVuSans-30" transform="translate(63.623047 0.78125)"/>
       <use xlink:href="#DejaVuSans-30" transform="translate(127.246094 0.78125)"/>
      </g>
     </g>
    </g>
    <g id="ytick_3">
     <g id="line2d_7">
      <g>
       <use xlink:href="#m18ec17e8e9" x="36" y="90.6" style="stroke: #000000; stroke-width: 2"/>
      </g>
     </g>
     <g id="text_9">
      <!-- $\mathdefault{600}$ -->
      <g transform="translate(-0.24 95.918906) scale(0.14 -0.14)">
       <use xlink:href="#DejaVuSans-36" transform="translate(0 0.78125)"/>
       <use xlink:href="#DejaVuSans-30" transform="translate(63.623047 0.78125)"/>
       <use xlink:href="#DejaVuSans-30" transform="translate(127.246094 0.78125)"/>
      </g>
     </g>
    </g>
    <g id="ytick_4">
     <g id="line2d_8">
      <g>
       <use xlink:href="#m18ec17e8e9" x="36" y="53.64" style="stroke: #000000; stroke-width: 2"/>
      </g>
     </g>
     <g id="text_10">
      <!-- $\mathdefault{800}$ -->
      <g transform="translate(-0.24 58.958906) scale(0.14 -0.14)">
       <use xlink:href="#DejaVuSans-38" transform="translate(0 0.78125)"/>
       <use xlink:href="#DejaVuSans-30" transform="translate(63.623047 0.78125)"/>
       <use xlink:href="#DejaVuSans-30" transform="translate(127.246094 0.78125)"/>
      </g>
     </g>
    </g>
    <g id="text_11">
     <!-- Diploid N$_e$1 -->
     <g transform="translate(-8.02 160.02) rotate(-90) scale(0.18 -0.18)">
      <use xlink:href="#DejaVuSans-44" transform="translate(0 0.015625)"/>
      <use xlink:href="#DejaVuSans-69" transform="translate(77.001953 0.015625)"/>
      <use xlink:href="#DejaVuSans-70" transform="translate(104.785156 0.015625)"/>
      <use xlink:href="#DejaVuSans-6c" transform="translate(168.261719 0.015625)"/>
      <use xlink:href="#DejaVuSans-6f" transform="translate(196.044922 0.015625)"/>
      <use xlink:href="#DejaVuSans-69" transform="translate(257.226562 0.015625)"/>
      <use xlink:href="#DejaVuSans-64" transform="translate(285.009766 0.015625)"/>
      <use xlink:href="#DejaVuSans-20" transform="translate(348.486328 0.015625)"/>
      <use xlink:href="#DejaVuSans-4e" transform="translate(380.273438 0.015625)"/>
      <use xlink:href="#DejaVuSans-Oblique-65" transform="translate(456.035156 -16.390625) scale(0.7)"/>
      <use xlink:href="#DejaVuSans-31" transform="translate(501.835938 0.015625)"/>
     </g>
    </g>
    <g id="text_12">
     <!-- $\times\mathdefault{10^{3}}\mathdefault{}$ -->
     <g transform="translate(36 22.92) scale(0.1 -0.1)">
      <use xlink:href="#DejaVuSans-d7" transform="translate(0 0.765625)"/>
      <use xlink:href="#DejaVuSans-31" transform="translate(83.789062 0.765625)"/>
      <use xlink:href="#DejaVuSans-30" transform="translate(147.412109 0.765625)"/>
      <use xlink:href="#DejaVuSans-33" transform="translate(211.992188 39.046875) scale(0.7)"/>
     </g>
    </g>
   </g>
   <g id="patch_3">
    <path d="M 36 192.24 
L 36 25.92 
" style="fill: none; stroke: #000000; stroke-width: 0.8; stroke-linejoin: miter; stroke-linecap: square"/>
   </g>
   <g id="patch_4">
    <path d="M 214.56 192.24 
L 214.56 25.92 
" style="fill: none; stroke: #000000; stroke-width: 0.8; stroke-linejoin: miter; stroke-linecap: square"/>
   </g>
   <g id="patch_5">
    <path d="M 36 192.24 
L 214.56 192.24 
" style="fill: none; stroke: #000000; stroke-width: 0.8; stroke-linejoin: miter; stroke-linecap: square"/>
   </g>
   <g id="patch_6">
    <path d="M 36 25.92 
L 214.56 25.92 
" style="fill: none; stroke: #000000; stroke-width: 0.8; stroke-linejoin: miter; stroke-linecap: square"/>
   </g>
   <g id="text_13">
    <!-- Ne0Ne1-MSSMC-G-P2-S4 -->
    <g transform="translate(25.62 10.92) scale(0.16 -0.16)">
     <defs>
      <path id="DejaVuSans-65" d="M 3597 1894 
L 3597 1613 
L 953 1613 
Q 991 1019 1311 708 
Q 1631 397 2203 397 
Q 2534 397 2845 478 
Q 3156 559 3463 722 
L 3463 178 
Q 3153 47 2828 -22 
Q 2503 -91 2169 -91 
Q 1331 -91 842 396 
Q 353 884 353 1716 
Q 353 2575 817 3079 
Q 1281 3584 2069 3584 
Q 2775 3584 3186 3129 
Q 3597 2675 3597 1894 
z
M 3022 2063 
Q 3016 2534 2758 2815 
Q 2500 3097 2075 3097 
Q 1594 3097 1305 2825 
Q 1016 2553 972 2059 
L 3022 2063 
z
" transform="scale(0.015625)"/>
      <path id="DejaVuSans-2d" d="M 313 2009 
L 1997 2009 
L 1997 1497 
L 313 1497 
L 313 2009 
z
" transform="scale(0.015625)"/>
      <path id="DejaVuSans-4d" d="M 628 4666 
L 1569 4666 
L 2759 1491 
L 3956 4666 
L 4897 4666 
L 4897 0 
L 4281 0 
L 4281 4097 
L 3078 897 
L 2444 897 
L 1241 4097 
L 1241 0 
L 628 0 
L 628 4666 
z
" transform="scale(0.015625)"/>
      <path id="DejaVuSans-53" d="M 3425 4513 
L 3425 3897 
Q 3066 4069 2747 4153 
Q 2428 4238 2131 4238 
Q 1616 4238 1336 4038 
Q 1056 3838 1056 3469 
Q 1056 3159 1242 3001 
Q 1428 2844 1947 2747 
L 2328 2669 
Q 3034 2534 3370 2195 
Q 3706 1856 3706 1288 
Q 3706 609 3251 259 
Q 2797 -91 1919 -91 
Q 1588 -91 1214 -16 
Q 841 59 441 206 
L 441 856 
Q 825 641 1194 531 
Q 1563 422 1919 422 
Q 2459 422 2753 634 
Q 3047 847 3047 1241 
Q 3047 1584 2836 1778 
Q 2625 1972 2144 2069 
L 1759 2144 
Q 1053 2284 737 2584 
Q 422 2884 422 3419 
Q 422 4038 858 4394 
Q 1294 4750 2059 4750 
Q 2388 4750 2728 4690 
Q 3069 4631 3425 4513 
z
" transform="scale(0.015625)"/>
      <path id="DejaVuSans-43" d="M 4122 4306 
L 4122 3641 
Q 3803 3938 3442 4084 
Q 3081 4231 2675 4231 
Q 1875 4231 1450 3742 
Q 1025 3253 1025 2328 
Q 1025 1406 1450 917 
Q 1875 428 2675 428 
Q 3081 428 3442 575 
Q 3803 722 4122 1019 
L 4122 359 
Q 3791 134 3420 21 
Q 3050 -91 2638 -91 
Q 1578 -91 968 557 
Q 359 1206 359 2328 
Q 359 3453 968 4101 
Q 1578 4750 2638 4750 
Q 3056 4750 3426 4639 
Q 3797 4528 4122 4306 
z
" transform="scale(0.015625)"/>
      <path id="DejaVuSans-47" d="M 3809 666 
L 3809 1919 
L 2778 1919 
L 2778 2438 
L 4434 2438 
L 4434 434 
Q 4069 175 3628 42 
Q 3188 -91 2688 -91 
Q 1594 -91 976 548 
Q 359 1188 359 2328 
Q 359 3472 976 4111 
Q 1594 4750 2688 4750 
Q 3144 4750 3555 4637 
Q 3966 4525 4313 4306 
L 4313 3634 
Q 3963 3931 3569 4081 
Q 3175 4231 2741 4231 
Q 1884 4231 1454 3753 
Q 1025 3275 1025 2328 
Q 1025 1384 1454 906 
Q 1884 428 2741 428 
Q 3075 428 3337 486 
Q 3600 544 3809 666 
z
" transform="scale(0.015625)"/>
      <path id="DejaVuSans-50" d="M 1259 4147 
L 1259 2394 
L 2053 2394 
Q 2494 2394 2734 2622 
Q 2975 2850 2975 3272 
Q 2975 3691 2734 3919 
Q 2494 4147 2053 4147 
L 1259 4147 
z
M 628 4666 
L 2053 4666 
Q 2838 4666 3239 4311 
Q 3641 3956 3641 3272 
Q 3641 2581 3239 2228 
Q 2838 1875 2053 1875 
L 1259 1875 
L 1259 0 
L 628 0 
L 628 4666 
z
" transform="scale(0.015625)"/>
     </defs>
     <use xlink:href="#DejaVuSans-4e"/>
     <use xlink:href="#DejaVuSans-65" x="74.804688"/>
     <use xlink:href="#DejaVuSans-30" x="136.328125"/>
     <use xlink:href="#DejaVuSans-4e" x="199.951172"/>
     <use xlink:href="#DejaVuSans-65" x="274.755859"/>
     <use xlink:href="#DejaVuSans-31" x="336.279297"/>
     <use xlink:href="#DejaVuSans-2d" x="399.902344"/>
     <use xlink:href="#DejaVuSans-4d" x="435.986328"/>
     <use xlink:href="#DejaVuSans-53" x="522.265625"/>
     <use xlink:href="#DejaVuSans-53" x="585.742188"/>
     <use xlink:href="#DejaVuSans-4d" x="649.21875"/>
     <use xlink:href="#DejaVuSans-43" x="735.498047"/>
     <use xlink:href="#DejaVuSans-2d" x="805.322266"/>
     <use xlink:href="#DejaVuSans-47" x="845.03125"/>
     <use xlink:href="#DejaVuSans-2d" x="922.521484"/>
     <use xlink:href="#DejaVuSans-50" x="958.605469"/>
     <use xlink:href="#DejaVuSans-32" x="1018.908203"/>
     <use xlink:href="#DejaVuSans-2d" x="1082.53125"/>
     <use xlink:href="#DejaVuSans-53" x="1118.615234"/>
     <use xlink:href="#DejaVuSans-34" x="1182.091797"/>
    </g>
   </g>
  </g>
  <g id="axes_2">
   <g id="patch_7">
    <path d="M 225.72 192.24 
L 234.036 192.24 
L 234.036 25.92 
L 225.72 25.92 
z
" style="fill: #ffffff"/>
   </g>
   <g id="QuadMesh_1">
    <path d="M 225.72 192.24 
L 234.036 192.24 
L 234.036 182.456471 
L 225.72 182.456471 
L 225.72 192.24 
" clip-path="url(#p98450bab87)" style="fill: #440154"/>
    <path d="M 225.72 182.456471 
L 234.036 182.456471 
L 234.036 172.672941 
L 225.72 172.672941 
L 225.72 182.456471 
" clip-path="url(#p98450bab87)" style="fill: #470d60"/>
    <path d="M 225.72 172.672941 
L 234.036 172.672941 
L 234.036 162.889412 
L 225.72 162.889412 
L 225.72 172.672941 
" clip-path="url(#p98450bab87)" style="fill: #482374"/>
    <path d="M 225.72 162.889412 
L 234.036 162.889412 
L 234.036 153.105882 
L 225.72 153.105882 
L 225.72 162.889412 
" clip-path="url(#p98450bab87)" style="fill: #453781"/>
    <path d="M 225.72 153.105882 
L 234.036 153.105882 
L 234.036 143.322353 
L 225.72 143.322353 
L 225.72 153.105882 
" clip-path="url(#p98450bab87)" style="fill: #3e4989"/>
    <path d="M 225.72 143.322353 
L 234.036 143.322353 
L 234.036 133.538824 
L 225.72 133.538824 
L 225.72 143.322353 
" clip-path="url(#p98450bab87)" style="fill: #375b8d"/>
    <path d="M 225.72 133.538824 
L 234.036 133.538824 
L 234.036 123.755294 
L 225.72 123.755294 
L 225.72 133.538824 
" clip-path="url(#p98450bab87)" style="fill: #2f6b8e"/>
    <path d="M 225.72 123.755294 
L 234.036 123.755294 
L 234.036 113.971765 
L 225.72 113.971765 
L 225.72 123.755294 
" clip-path="url(#p98450bab87)" style="fill: #297a8e"/>
    <path d="M 225.72 113.971765 
L 234.036 113.971765 
L 234.036 104.188235 
L 225.72 104.188235 
L 225.72 113.971765 
" clip-path="url(#p98450bab87)" style="fill: #23898e"/>
    <path d="M 225.72 104.188235 
L 234.036 104.188235 
L 234.036 94.404706 
L 225.72 94.404706 
L 225.72 104.188235 
" clip-path="url(#p98450bab87)" style="fill: #1f988b"/>
    <path d="M 225.72 94.404706 
L 234.036 94.404706 
L 234.036 84.621176 
L 225.72 84.621176 
L 225.72 94.404706 
" clip-path="url(#p98450bab87)" style="fill: #22a785"/>
    <path d="M 225.72 84.621176 
L 234.036 84.621176 
L 234.036 74.837647 
L 225.72 74.837647 
L 225.72 84.621176 
" clip-path="url(#p98450bab87)" style="fill: #32b67a"/>
    <path d="M 225.72 74.837647 
L 234.036 74.837647 
L 234.036 65.054118 
L 225.72 65.054118 
L 225.72 74.837647 
" clip-path="url(#p98450bab87)" style="fill: #4ec36b"/>
    <path d="M 225.72 65.054118 
L 234.036 65.054118 
L 234.036 55.270588 
L 225.72 55.270588 
L 225.72 65.054118 
" clip-path="url(#p98450bab87)" style="fill: #70cf57"/>
    <path d="M 225.72 55.270588 
L 234.036 55.270588 
L 234.036 45.487059 
L 225.72 45.487059 
L 225.72 55.270588 
" clip-path="url(#p98450bab87)" style="fill: #98d83e"/>
    <path d="M 225.72 45.487059 
L 234.036 45.487059 
L 234.036 35.703529 
L 225.72 35.703529 
L 225.72 45.487059 
" clip-path="url(#p98450bab87)" style="fill: #c2df23"/>
    <path d="M 225.72 35.703529 
L 234.036 35.703529 
L 234.036 25.92 
L 225.72 25.92 
L 225.72 35.703529 
" clip-path="url(#p98450bab87)" style="fill: #ece51b"/>
   </g>
   <g id="matplotlib.axis_3"/>
   <g id="matplotlib.axis_4">
    <g id="ytick_5">
     <g id="line2d_9">
      <defs>
       <path id="m372a356943" d="M 0 0 
L 3.5 0 
" style="stroke: #000000; stroke-width: 0.8"/>
      </defs>
      <g>
       <use xlink:href="#m372a356943" x="234.036" y="182.456471" style="stroke: #000000; stroke-width: 0.8"/>
      </g>
     </g>
     <g id="text_14">
      <!-- $\mathdefault{2.40}$ -->
      <g transform="translate(241.036 186.255689) scale(0.1 -0.1)">
       <defs>
        <path id="DejaVuSans-2212" d="M 678 2272 
L 4684 2272 
L 4684 1741 
L 678 1741 
L 678 2272 
z
" transform="scale(0.015625)"/>
        <path id="DejaVuSans-2e" d="M 684 794 
L 1344 794 
L 1344 0 
L 684 0 
L 684 794 
z
" transform="scale(0.015625)"/>
       </defs>
       <use xlink:href="#DejaVuSans-2212" transform="translate(0 0.78125)"/>
       <use xlink:href="#DejaVuSans-32" transform="translate(83.789062 0.78125)"/>
       <use xlink:href="#DejaVuSans-2e" transform="translate(147.412109 0.78125)"/>
       <use xlink:href="#DejaVuSans-34" transform="translate(179.199219 0.78125)"/>
       <use xlink:href="#DejaVuSans-30" transform="translate(242.822266 0.78125)"/>
      </g>
     </g>
    </g>
    <g id="ytick_6">
     <g id="line2d_10">
      <g>
       <use xlink:href="#m372a356943" x="234.036" y="162.889412" style="stroke: #000000; stroke-width: 0.8"/>
      </g>
     </g>
     <g id="text_15">
      <!-- $\mathdefault{2.35}$ -->
      <g transform="translate(241.036 166.688631) scale(0.1 -0.1)">
       <defs>
        <path id="DejaVuSans-35" d="M 691 4666 
L 3169 4666 
L 3169 4134 
L 1269 4134 
L 1269 2991 
Q 1406 3038 1543 3061 
Q 1681 3084 1819 3084 
Q 2600 3084 3056 2656 
Q 3513 2228 3513 1497 
Q 3513 744 3044 326 
Q 2575 -91 1722 -91 
Q 1428 -91 1123 -41 
Q 819 9 494 109 
L 494 744 
Q 775 591 1075 516 
Q 1375 441 1709 441 
Q 2250 441 2565 725 
Q 2881 1009 2881 1497 
Q 2881 1984 2565 2268 
Q 2250 2553 1709 2553 
Q 1456 2553 1204 2497 
Q 953 2441 691 2322 
L 691 4666 
z
" transform="scale(0.015625)"/>
       </defs>
       <use xlink:href="#DejaVuSans-2212" transform="translate(0 0.78125)"/>
       <use xlink:href="#DejaVuSans-32" transform="translate(83.789062 0.78125)"/>
       <use xlink:href="#DejaVuSans-2e" transform="translate(147.412109 0.78125)"/>
       <use xlink:href="#DejaVuSans-33" transform="translate(179.199219 0.78125)"/>
       <use xlink:href="#DejaVuSans-35" transform="translate(242.822266 0.78125)"/>
      </g>
     </g>
    </g>
    <g id="ytick_7">
     <g id="line2d_11">
      <g>
       <use xlink:href="#m372a356943" x="234.036" y="143.322353" style="stroke: #000000; stroke-width: 0.8"/>
      </g>
     </g>
     <g id="text_16">
      <!-- $\mathdefault{2.30}$ -->
      <g transform="translate(241.036 147.121572) scale(0.1 -0.1)">
       <use xlink:href="#DejaVuSans-2212" transform="translate(0 0.78125)"/>
       <use xlink:href="#DejaVuSans-32" transform="translate(83.789062 0.78125)"/>
       <use xlink:href="#DejaVuSans-2e" transform="translate(147.412109 0.78125)"/>
       <use xlink:href="#DejaVuSans-33" transform="translate(179.199219 0.78125)"/>
       <use xlink:href="#DejaVuSans-30" transform="translate(242.822266 0.78125)"/>
      </g>
     </g>
    </g>
    <g id="ytick_8">
     <g id="line2d_12">
      <g>
       <use xlink:href="#m372a356943" x="234.036" y="123.755294" style="stroke: #000000; stroke-width: 0.8"/>
      </g>
     </g>
     <g id="text_17">
      <!-- $\mathdefault{2.25}$ -->
      <g transform="translate(241.036 127.554513) scale(0.1 -0.1)">
       <use xlink:href="#DejaVuSans-2212" transform="translate(0 0.78125)"/>
       <use xlink:href="#DejaVuSans-32" transform="translate(83.789062 0.78125)"/>
       <use xlink:href="#DejaVuSans-2e" transform="translate(147.412109 0.78125)"/>
       <use xlink:href="#DejaVuSans-32" transform="translate(173.699219 0.78125)"/>
       <use xlink:href="#DejaVuSans-35" transform="translate(237.322266 0.78125)"/>
      </g>
     </g>
    </g>
    <g id="ytick_9">
     <g id="line2d_13">
      <g>
       <use xlink:href="#m372a356943" x="234.036" y="104.188235" style="stroke: #000000; stroke-width: 0.8"/>
      </g>
     </g>
     <g id="text_18">
      <!-- $\mathdefault{2.20}$ -->
      <g transform="translate(241.036 107.987454) scale(0.1 -0.1)">
       <use xlink:href="#DejaVuSans-2212" transform="translate(0 0.78125)"/>
       <use xlink:href="#DejaVuSans-32" transform="translate(83.789062 0.78125)"/>
       <use xlink:href="#DejaVuSans-2e" transform="translate(147.412109 0.78125)"/>
       <use xlink:href="#DejaVuSans-32" transform="translate(173.699219 0.78125)"/>
       <use xlink:href="#DejaVuSans-30" transform="translate(237.322266 0.78125)"/>
      </g>
     </g>
    </g>
    <g id="ytick_10">
     <g id="line2d_14">
      <g>
       <use xlink:href="#m372a356943" x="234.036" y="84.621176" style="stroke: #000000; stroke-width: 0.8"/>
      </g>
     </g>
     <g id="text_19">
      <!-- $\mathdefault{2.15}$ -->
      <g transform="translate(241.036 88.420395) scale(0.1 -0.1)">
       <use xlink:href="#DejaVuSans-2212" transform="translate(0 0.78125)"/>
       <use xlink:href="#DejaVuSans-32" transform="translate(83.789062 0.78125)"/>
       <use xlink:href="#DejaVuSans-2e" transform="translate(147.412109 0.78125)"/>
       <use xlink:href="#DejaVuSans-31" transform="translate(179.199219 0.78125)"/>
       <use xlink:href="#DejaVuSans-35" transform="translate(242.822266 0.78125)"/>
      </g>
     </g>
    </g>
    <g id="ytick_11">
     <g id="line2d_15">
      <g>
       <use xlink:href="#m372a356943" x="234.036" y="65.054118" style="stroke: #000000; stroke-width: 0.8"/>
      </g>
     </g>
     <g id="text_20">
      <!-- $\mathdefault{2.10}$ -->
      <g transform="translate(241.036 68.853336) scale(0.1 -0.1)">
       <use xlink:href="#DejaVuSans-2212" transform="translate(0 0.78125)"/>
       <use xlink:href="#DejaVuSans-32" transform="translate(83.789062 0.78125)"/>
       <use xlink:href="#DejaVuSans-2e" transform="translate(147.412109 0.78125)"/>
       <use xlink:href="#DejaVuSans-31" transform="translate(179.199219 0.78125)"/>
       <use xlink:href="#DejaVuSans-30" transform="translate(242.822266 0.78125)"/>
      </g>
     </g>
    </g>
    <g id="ytick_12">
     <g id="line2d_16">
      <g>
       <use xlink:href="#m372a356943" x="234.036" y="45.487059" style="stroke: #000000; stroke-width: 0.8"/>
      </g>
     </g>
     <g id="text_21">
      <!-- $\mathdefault{2.05}$ -->
      <g transform="translate(241.036 49.286278) scale(0.1 -0.1)">
       <use xlink:href="#DejaVuSans-2212" transform="translate(0 0.78125)"/>
       <use xlink:href="#DejaVuSans-32" transform="translate(83.789062 0.78125)"/>
       <use xlink:href="#DejaVuSans-2e" transform="translate(147.412109 0.78125)"/>
       <use xlink:href="#DejaVuSans-30" transform="translate(179.199219 0.78125)"/>
       <use xlink:href="#DejaVuSans-35" transform="translate(242.822266 0.78125)"/>
      </g>
     </g>
    </g>
    <g id="ytick_13">
     <g id="line2d_17">
      <g>
       <use xlink:href="#m372a356943" x="234.036" y="25.92" style="stroke: #000000; stroke-width: 0.8"/>
      </g>
     </g>
     <g id="text_22">
      <!-- $\mathdefault{2.00}$ -->
      <g transform="translate(241.036 29.719219) scale(0.1 -0.1)">
       <use xlink:href="#DejaVuSans-2212" transform="translate(0 0.78125)"/>
       <use xlink:href="#DejaVuSans-32" transform="translate(83.789062 0.78125)"/>
       <use xlink:href="#DejaVuSans-2e" transform="translate(147.412109 0.78125)"/>
       <use xlink:href="#DejaVuSans-30" transform="translate(179.199219 0.78125)"/>
       <use xlink:href="#DejaVuSans-30" transform="translate(242.822266 0.78125)"/>
      </g>
     </g>
    </g>
    <g id="text_23">
     <!-- log likelihood -->
     <g transform="translate(284.854125 148.704375) rotate(-90) scale(0.12 -0.12)">
      <defs>
       <path id="DejaVuSans-67" d="M 2906 1791 
Q 2906 2416 2648 2759 
Q 2391 3103 1925 3103 
Q 1463 3103 1205 2759 
Q 947 2416 947 1791 
Q 947 1169 1205 825 
Q 1463 481 1925 481 
Q 2391 481 2648 825 
Q 2906 1169 2906 1791 
z
M 3481 434 
Q 3481 -459 3084 -895 
Q 2688 -1331 1869 -1331 
Q 1566 -1331 1297 -1286 
Q 1028 -1241 775 -1147 
L 775 -588 
Q 1028 -725 1275 -790 
Q 1522 -856 1778 -856 
Q 2344 -856 2625 -561 
Q 2906 -266 2906 331 
L 2906 616 
Q 2728 306 2450 153 
Q 2172 0 1784 0 
Q 1141 0 747 490 
Q 353 981 353 1791 
Q 353 2603 747 3093 
Q 1141 3584 1784 3584 
Q 2172 3584 2450 3431 
Q 2728 3278 2906 2969 
L 2906 3500 
L 3481 3500 
L 3481 434 
z
" transform="scale(0.015625)"/>
       <path id="DejaVuSans-6b" d="M 581 4863 
L 1159 4863 
L 1159 1991 
L 2875 3500 
L 3609 3500 
L 1753 1863 
L 3688 0 
L 2938 0 
L 1159 1709 
L 1159 0 
L 581 0 
L 581 4863 
z
" transform="scale(0.015625)"/>
       <path id="DejaVuSans-68" d="M 3513 2113 
L 3513 0 
L 2938 0 
L 2938 2094 
Q 2938 2591 2744 2837 
Q 2550 3084 2163 3084 
Q 1697 3084 1428 2787 
Q 1159 2491 1159 1978 
L 1159 0 
L 581 0 
L 581 4863 
L 1159 4863 
L 1159 2956 
Q 1366 3272 1645 3428 
Q 1925 3584 2291 3584 
Q 2894 3584 3203 3211 
Q 3513 2838 3513 2113 
z
" transform="scale(0.015625)"/>
      </defs>
      <use xlink:href="#DejaVuSans-6c"/>
      <use xlink:href="#DejaVuSans-6f" x="27.783203"/>
      <use xlink:href="#DejaVuSans-67" x="88.964844"/>
      <use xlink:href="#DejaVuSans-20" x="152.441406"/>
      <use xlink:href="#DejaVuSans-6c" x="184.228516"/>
      <use xlink:href="#DejaVuSans-69" x="212.011719"/>
      <use xlink:href="#DejaVuSans-6b" x="239.794922"/>
      <use xlink:href="#DejaVuSans-65" x="294.080078"/>
      <use xlink:href="#DejaVuSans-6c" x="355.603516"/>
      <use xlink:href="#DejaVuSans-69" x="383.386719"/>
      <use xlink:href="#DejaVuSans-68" x="411.169922"/>
      <use xlink:href="#DejaVuSans-6f" x="474.548828"/>
      <use xlink:href="#DejaVuSans-6f" x="535.730469"/>
      <use xlink:href="#DejaVuSans-64" x="596.912109"/>
     </g>
    </g>
   </g>
   <g id="LineCollection_1"/>
   <g id="patch_8">
    <path d="M 225.72 192.24 
L 229.878 192.24 
L 234.036 192.24 
L 234.036 25.92 
L 229.878 25.92 
L 225.72 25.92 
L 225.72 192.24 
z
" style="fill: none; stroke: #000000; stroke-width: 0.8; stroke-linejoin: miter; stroke-linecap: square"/>
   </g>
  </g>
 </g>
 <defs>
  <clipPath id="pbc6721864c">
   <rect x="36" y="25.92" width="178.56" height="166.32"/>
  </clipPath>
  <clipPath id="p98450bab87">
   <rect x="225.72" y="25.92" width="8.316" height="166.32"/>
  </clipPath>
 </defs>
</svg>
