<?xml version="1.0" encoding="utf-8" standalone="no"?>
<!DOCTYPE svg PUBLIC "-//W3C//DTD SVG 1.1//EN"
  "http://www.w3.org/Graphics/SVG/1.1/DTD/svg11.dtd">
<svg xmlns:xlink="http://www.w3.org/1999/xlink" width="288pt" height="216pt" viewBox="0 0 288 216" xmlns="http://www.w3.org/2000/svg" version="1.1">
 <metadata>
  <rdf:RDF xmlns:dc="http://purl.org/dc/elements/1.1/" xmlns:cc="http://creativecommons.org/ns#" xmlns:rdf="http://www.w3.org/1999/02/22-rdf-syntax-ns#">
   <cc:Work>
    <dc:type rdf:resource="http://purl.org/dc/dcmitype/StillImage"/>
    <dc:date>2023-08-07T19:49:27.522305</dc:date>
    <dc:format>image/svg+xml</dc:format>
    <dc:creator>
     <cc:Agent>
      <dc:title>Matplotlib v3.7.1, https://matplotlib.org/</dc:title>
     </cc:Agent>
    </dc:creator>
   </cc:Work>
  </rdf:RDF>
 </metadata>
 <defs>
  <style type="text/css">*{stroke-linejoin: round; stroke-linecap: butt}</style>
 </defs>
 <g id="figure_1">
  <g id="patch_1">
   <path d="M 0 216 
L 288 216 
L 288 0 
L 0 0 
z
" style="fill: #ffffff"/>
  </g>
  <g id="axes_1">
   <g id="patch_2">
    <path d="M 36 192.24 
L 214.56 192.24 
L 214.56 25.92 
L 36 25.92 
z
" style="fill: #ffffff"/>
   </g>
   <g id="PathCollection_1">
    <path d="M 36 186.696 
L 36 181.152 
L 36 175.608 
L 36 170.064 
L 36 164.52 
L 36 158.976 
L 36 153.432 
L 36 147.888 
L 36 142.344 
L 36 136.8 
L 36 131.256 
L 36 129.241212 
L 36.205507 131.256 
L 36.287472 136.8 
L 36.563294 142.344 
L 41.952 147.363319 
L 42.164426 147.888 
L 42.335621 153.432 
L 47.904 158.733606 
L 48.071158 158.976 
L 48.673262 164.52 
L 53.856 169.34747 
L 54.667911 170.064 
L 59.808 174.851744 
L 65.76 175.391555 
L 66.223796 175.608 
L 71.712 180.617405 
L 77.664 180.829714 
L 83.616 181.035179 
L 84.333017 181.152 
L 89.568 185.388632 
L 95.52 185.848693 
L 101.472 185.987158 
L 107.424 186.03106 
L 113.376 186.026978 
L 119.328 185.986478 
L 125.28 185.907111 
L 131.232 185.773667 
L 137.184 185.547255 
L 143.136 185.121611 
L 149.088 184.09714 
L 153.761492 181.152 
L 155.04 181.022398 
L 160.992 180.693734 
L 166.944 180.611176 
L 172.896 180.493731 
L 178.848 180.314397 
L 184.8 180.008261 
L 190.752 179.370144 
L 196.704 177.231499 
L 198.446977 175.608 
L 202.656 174.696382 
L 208.608 174.298474 
L 214.56 173.33564 
L 214.56 175.608 
L 214.56 181.152 
L 214.56 186.696 
L 214.56 192.24 
L 208.608 192.24 
L 202.656 192.24 
L 196.704 192.24 
L 190.752 192.24 
L 184.8 192.24 
L 178.848 192.24 
L 172.896 192.24 
L 166.944 192.24 
L 160.992 192.24 
L 155.04 192.24 
L 149.088 192.24 
L 143.136 192.24 
L 137.184 192.24 
L 131.232 192.24 
L 125.28 192.24 
L 119.328 192.24 
L 113.376 192.24 
L 107.424 192.24 
L 101.472 192.24 
L 95.52 192.24 
L 89.568 192.24 
L 83.616 192.24 
L 77.664 192.24 
L 71.712 192.24 
L 65.76 192.24 
L 59.808 192.24 
L 53.856 192.24 
L 47.904 192.24 
L 41.952 192.24 
L 36 192.24 
z
" clip-path="url(#pa0837d099d)" style="fill: #440154"/>
    <path d="M 53.045068 25.92 
L 53.856 25.92 
L 59.808 25.92 
L 65.76 25.92 
L 71.712 25.92 
L 77.664 25.92 
L 83.616 25.92 
L 89.568 25.92 
L 95.52 25.92 
L 101.472 25.92 
L 107.424 25.92 
L 113.376 25.92 
L 119.328 25.92 
L 125.28 25.92 
L 131.232 25.92 
L 137.184 25.92 
L 143.136 25.92 
L 149.088 25.92 
L 155.04 25.92 
L 160.992 25.92 
L 166.944 25.92 
L 172.896 25.92 
L 178.848 25.92 
L 184.8 25.92 
L 190.752 25.92 
L 196.704 25.92 
L 202.656 25.92 
L 208.608 25.92 
L 214.56 25.92 
L 214.56 31.464 
L 214.56 37.008 
L 214.56 42.552 
L 214.56 48.096 
L 214.56 53.64 
L 214.56 59.184 
L 214.56 64.728 
L 214.56 70.272 
L 214.56 75.816 
L 214.56 81.36 
L 214.56 86.904 
L 214.56 92.448 
L 214.56 97.992 
L 214.56 103.536 
L 214.56 109.08 
L 214.56 114.624 
L 214.56 120.168 
L 214.56 125.712 
L 214.56 131.256 
L 214.56 136.8 
L 214.56 142.344 
L 214.56 147.888 
L 214.56 153.432 
L 214.56 154.922642 
L 212.212845 153.432 
L 208.608 150.129177 
L 202.656 148.99787 
L 200.282008 147.888 
L 196.704 144.555259 
L 190.752 143.360674 
L 187.842696 142.344 
L 184.8 139.509876 
L 178.848 137.812135 
L 174.981191 136.8 
L 172.896 134.857745 
L 166.944 132.259046 
L 162.735104 131.256 
L 160.992 129.632383 
L 155.04 126.630169 
L 152.185255 125.712 
L 149.088 122.827057 
L 143.136 120.913887 
L 141.632493 120.168 
L 137.184 116.024444 
L 131.232 114.843 
L 130.903933 114.624 
L 125.28 109.826099 
L 124.113175 109.08 
L 119.328 104.622841 
L 117.521064 103.536 
L 113.376 99.675073 
L 110.61116 97.992 
L 107.424 95.023315 
L 104.117242 92.448 
L 101.472 89.984085 
L 98.919911 86.904 
L 95.52 83.737147 
L 93.957946 81.36 
L 89.568 77.270978 
L 88.614633 75.816 
L 83.616 71.160015 
L 82.993465 70.272 
L 77.664 64.886722 
L 77.546922 64.728 
L 76.530024 59.184 
L 71.712 54.696243 
L 71.125821 53.64 
L 69.018635 48.096 
L 65.76 45.060739 
L 64.970103 42.552 
L 59.808 37.682335 
L 59.343977 37.008 
L 58.614886 31.464 
L 53.856 27.031328 
z
" clip-path="url(#pa0837d099d)" style="fill: #440154"/>
   </g>
   <g id="PathCollection_2">
    <path d="M 36.563294 142.344 
L 36.287472 136.8 
L 36.205507 131.256 
L 36 129.241212 
L 36 125.712 
L 36 123.172687 
L 36.598303 125.712 
L 37.243191 131.256 
L 37.739027 136.8 
L 39.407584 142.344 
L 41.952 144.714001 
L 43.237048 147.888 
L 44.272673 153.432 
L 47.904 156.889356 
L 49.342977 158.976 
L 52.557558 164.52 
L 53.856 165.729435 
L 58.767562 170.064 
L 59.808 171.033117 
L 65.76 174.011398 
L 69.18118 175.608 
L 71.712 177.918027 
L 77.664 179.20237 
L 83.616 179.706183 
L 89.568 180.651636 
L 94.243776 181.152 
L 95.52 181.570316 
L 101.472 182.407944 
L 107.424 182.673524 
L 113.376 182.648832 
L 119.328 182.403832 
L 125.28 181.923707 
L 131.006399 181.152 
L 131.232 181.137816 
L 137.184 180.686305 
L 143.136 180.15784 
L 149.088 179.563205 
L 155.04 178.911518 
L 160.992 178.379773 
L 166.944 177.88035 
L 172.896 177.169877 
L 178.848 176.08502 
L 180.761323 175.608 
L 184.8 174.669829 
L 190.752 173.222914 
L 196.704 171.696444 
L 202.656 170.093273 
L 202.759428 170.064 
L 208.608 165.793779 
L 210.210727 164.52 
L 208.608 160.553401 
L 208.051056 158.976 
L 202.656 155.292892 
L 200.254617 153.432 
L 196.704 151.737894 
L 190.752 148.567899 
L 189.590957 147.888 
L 184.8 145.777636 
L 178.848 142.855021 
L 177.893318 142.344 
L 172.896 140.13232 
L 166.944 137.201092 
L 166.194446 136.8 
L 160.992 134.367183 
L 155.04 131.26387 
L 155.026044 131.256 
L 149.088 128.220113 
L 144.67567 125.712 
L 143.136 124.680157 
L 137.184 121.450965 
L 135.164776 120.168 
L 131.232 117.790837 
L 126.487989 114.624 
L 125.28 113.593438 
L 119.328 109.640058 
L 118.600458 109.08 
L 113.376 105.13298 
L 111.44428 103.536 
L 107.424 100.235024 
L 104.914537 97.992 
L 101.472 94.903346 
L 98.941979 92.448 
L 95.52 89.081346 
L 93.45703 86.904 
L 89.568 82.702466 
L 88.396624 81.36 
L 83.80072 75.816 
L 83.616 75.643942 
L 79.850044 70.272 
L 77.664 68.063062 
L 75.203965 64.728 
L 71.712 59.717072 
L 71.335848 59.184 
L 68.165978 53.64 
L 65.76 50.775529 
L 63.949225 48.096 
L 60.981609 42.552 
L 59.808 41.444877 
L 56.7549 37.008 
L 53.856 32.339856 
L 53.092126 31.464 
L 48.950359 25.92 
L 53.045068 25.92 
L 53.856 27.031328 
L 58.614886 31.464 
L 59.343977 37.008 
L 59.808 37.682335 
L 64.970103 42.552 
L 65.76 45.060739 
L 69.018635 48.096 
L 71.125821 53.64 
L 71.712 54.696243 
L 76.530024 59.184 
L 77.546922 64.728 
L 77.664 64.886722 
L 82.993465 70.272 
L 83.616 71.160015 
L 88.614633 75.816 
L 89.568 77.270978 
L 93.957946 81.36 
L 95.52 83.737147 
L 98.919911 86.904 
L 101.472 89.984085 
L 104.117242 92.448 
L 107.424 95.023315 
L 110.61116 97.992 
L 113.376 99.675073 
L 117.521064 103.536 
L 119.328 104.622841 
L 124.113175 109.08 
L 125.28 109.826099 
L 130.903933 114.624 
L 131.232 114.843 
L 137.184 116.024444 
L 141.632493 120.168 
L 143.136 120.913887 
L 149.088 122.827057 
L 152.185255 125.712 
L 155.04 126.630169 
L 160.992 129.632383 
L 162.735104 131.256 
L 166.944 132.259046 
L 172.896 134.857745 
L 174.981191 136.8 
L 178.848 137.812135 
L 184.8 139.509876 
L 187.842696 142.344 
L 190.752 143.360674 
L 196.704 144.555259 
L 200.282008 147.888 
L 202.656 148.99787 
L 208.608 150.129177 
L 212.212845 153.432 
L 214.56 154.922642 
L 214.56 158.976 
L 214.56 164.52 
L 214.56 170.064 
L 214.56 173.33564 
L 208.608 174.298474 
L 202.656 174.696382 
L 198.446977 175.608 
L 196.704 177.231499 
L 190.752 179.370144 
L 184.8 180.008261 
L 178.848 180.314397 
L 172.896 180.493731 
L 166.944 180.611176 
L 160.992 180.693734 
L 155.04 181.022398 
L 153.761492 181.152 
L 149.088 184.09714 
L 143.136 185.121611 
L 137.184 185.547255 
L 131.232 185.773667 
L 125.28 185.907111 
L 119.328 185.986478 
L 113.376 186.026978 
L 107.424 186.03106 
L 101.472 185.987158 
L 95.52 185.848693 
L 89.568 185.388632 
L 84.333017 181.152 
L 83.616 181.035179 
L 77.664 180.829714 
L 71.712 180.617405 
L 66.223796 175.608 
L 65.76 175.391555 
L 59.808 174.851744 
L 54.667911 170.064 
L 53.856 169.34747 
L 48.673262 164.52 
L 48.071158 158.976 
L 47.904 158.733606 
L 42.335621 153.432 
L 42.164426 147.888 
L 41.952 147.363319 
z
" clip-path="url(#pa0837d099d)" style="fill: #471164"/>
    <path d="M 36 25.92 
L 36.784505 25.92 
L 36 26.890811 
z
" clip-path="url(#pa0837d099d)" style="fill: #471164"/>
   </g>
   <g id="PathCollection_3">
    <path d="M 39.407584 142.344 
L 37.739027 136.8 
L 37.243191 131.256 
L 36.598303 125.712 
L 36 123.172687 
L 36 120.168 
L 36 119.074108 
L 36.222215 120.168 
L 37.514408 125.712 
L 38.280874 131.256 
L 39.190582 136.8 
L 41.952 142.052886 
L 42.06674 142.344 
L 44.309669 147.888 
L 46.209724 153.432 
L 47.904 155.045106 
L 50.614797 158.976 
L 53.856 163.371734 
L 54.999549 164.52 
L 59.808 168.897156 
L 61.512111 170.064 
L 65.76 172.631241 
L 71.712 175.393946 
L 72.346529 175.608 
L 77.664 177.575027 
L 83.616 178.377187 
L 89.568 179.254839 
L 95.52 179.83098 
L 101.472 180.158154 
L 107.424 180.278393 
L 113.376 180.225558 
L 119.328 180.027128 
L 125.28 179.705574 
L 131.232 179.279406 
L 137.184 178.763984 
L 143.136 178.172136 
L 149.088 177.514648 
L 155.04 176.800637 
L 160.992 176.065813 
L 164.211772 175.608 
L 166.944 175.022845 
L 172.896 173.681665 
L 178.848 172.249328 
L 184.8 170.729156 
L 187.323269 170.064 
L 190.752 167.982039 
L 195.933473 164.52 
L 195.298296 158.976 
L 190.752 155.061879 
L 189.089672 153.432 
L 184.8 151.001211 
L 179.941654 147.888 
L 178.848 147.367244 
L 172.896 144.266863 
L 169.590969 142.344 
L 166.944 141.079304 
L 160.992 137.942449 
L 159.023931 136.8 
L 155.04 134.787361 
L 149.088 131.438706 
L 148.789389 131.256 
L 143.136 128.127868 
L 139.211623 125.712 
L 137.184 124.549627 
L 131.232 120.795159 
L 130.322112 120.168 
L 125.28 116.862422 
L 122.186757 114.624 
L 119.328 112.621991 
L 114.726781 109.08 
L 113.376 108.0595 
L 107.904336 103.536 
L 107.424 103.141605 
L 101.662696 97.992 
L 101.472 97.820907 
L 95.935685 92.448 
L 95.52 92.039036 
L 90.654708 86.904 
L 89.568 85.729969 
L 85.75496 81.36 
L 83.616 78.825753 
L 81.18279 75.816 
L 77.664 71.268038 
L 76.908045 70.272 
L 72.861008 64.728 
L 71.712 63.079187 
L 68.963439 59.184 
L 65.76 54.314787 
L 65.283304 53.64 
L 61.567853 48.096 
L 59.808 45.260192 
L 57.832643 42.552 
L 54.165823 37.008 
L 53.856 36.509088 
L 49.455952 31.464 
L 47.904 29.443774 
L 41.952 26.752223 
L 37.910679 31.464 
L 36 34.549527 
L 36 31.464 
L 36 26.890811 
L 36.784505 25.92 
L 41.952 25.92 
L 47.904 25.92 
L 48.950359 25.92 
L 53.092126 31.464 
L 53.856 32.339856 
L 56.7549 37.008 
L 59.808 41.444877 
L 60.981609 42.552 
L 63.949225 48.096 
L 65.76 50.775529 
L 68.165978 53.64 
L 71.335848 59.184 
L 71.712 59.717072 
L 75.203965 64.728 
L 77.664 68.063062 
L 79.850044 70.272 
L 83.616 75.643942 
L 83.80072 75.816 
L 88.396624 81.36 
L 89.568 82.702466 
L 93.45703 86.904 
L 95.52 89.081346 
L 98.941979 92.448 
L 101.472 94.903346 
L 104.914537 97.992 
L 107.424 100.235024 
L 111.44428 103.536 
L 113.376 105.13298 
L 118.600458 109.08 
L 119.328 109.640058 
L 125.28 113.593438 
L 126.487989 114.624 
L 131.232 117.790837 
L 135.164776 120.168 
L 137.184 121.450965 
L 143.136 124.680157 
L 144.67567 125.712 
L 149.088 128.220113 
L 155.026044 131.256 
L 155.04 131.26387 
L 160.992 134.367183 
L 166.194446 136.8 
L 166.944 137.201092 
L 172.896 140.13232 
L 177.893318 142.344 
L 178.848 142.855021 
L 184.8 145.777636 
L 189.590957 147.888 
L 190.752 148.567899 
L 196.704 151.737894 
L 200.254617 153.432 
L 202.656 155.292892 
L 208.051056 158.976 
L 208.608 160.553401 
L 210.210727 164.52 
L 208.608 165.793779 
L 202.759428 170.064 
L 202.656 170.093273 
L 196.704 171.696444 
L 190.752 173.222914 
L 184.8 174.669829 
L 180.761323 175.608 
L 178.848 176.08502 
L 172.896 177.169877 
L 166.944 177.88035 
L 160.992 178.379773 
L 155.04 178.911518 
L 149.088 179.563205 
L 143.136 180.15784 
L 137.184 180.686305 
L 131.232 181.137816 
L 131.006399 181.152 
L 125.28 181.923707 
L 119.328 182.403832 
L 113.376 182.648832 
L 107.424 182.673524 
L 101.472 182.407944 
L 95.52 181.570316 
L 94.243776 181.152 
L 89.568 180.651636 
L 83.616 179.706183 
L 77.664 179.20237 
L 71.712 177.918027 
L 69.18118 175.608 
L 65.76 174.011398 
L 59.808 171.033117 
L 58.767562 170.064 
L 53.856 165.729435 
L 52.557558 164.52 
L 49.342977 158.976 
L 47.904 156.889356 
L 44.272673 153.432 
L 43.237048 147.888 
L 41.952 144.714001 
z
" clip-path="url(#pa0837d099d)" style="fill: #482576"/>
   </g>
   <g id="PathCollection_4">
    <path d="M 39.190582 136.8 
L 38.280874 131.256 
L 37.514408 125.712 
L 36.222215 120.168 
L 36 119.074108 
L 36 114.624 
L 36 114.16166 
L 36.079137 114.624 
L 37.200216 120.168 
L 38.430512 125.712 
L 39.318558 131.256 
L 40.642138 136.8 
L 41.952 139.291676 
L 43.155051 142.344 
L 45.382291 147.888 
L 47.904 153.151404 
L 48.07779 153.432 
L 51.886616 158.976 
L 53.856 161.646887 
L 56.717311 164.52 
L 59.808 167.333469 
L 63.795791 170.064 
L 65.76 171.251083 
L 71.712 173.9099 
L 76.745734 175.608 
L 77.664 175.947683 
L 83.616 177.048191 
L 89.568 177.858042 
L 95.52 178.366801 
L 101.472 178.627041 
L 107.424 178.680818 
L 113.376 178.562011 
L 119.328 178.298111 
L 125.28 177.9116 
L 131.232 177.420996 
L 137.184 176.841663 
L 143.136 176.186432 
L 147.944503 175.608 
L 149.088 175.396163 
L 155.04 174.217076 
L 160.992 172.92888 
L 166.944 171.537485 
L 172.833737 170.064 
L 172.896 170.032284 
L 178.848 166.813515 
L 182.66435 164.52 
L 183.390699 158.976 
L 178.848 153.754627 
L 178.60238 153.432 
L 172.896 149.49646 
L 170.839995 147.888 
L 166.944 145.69232 
L 161.673592 142.344 
L 160.992 141.99115 
L 155.04 138.621539 
L 152.158996 136.8 
L 149.088 135.118206 
L 143.136 131.487448 
L 142.788623 131.256 
L 137.184 127.88867 
L 133.928917 125.712 
L 131.232 124.034766 
L 125.622061 120.168 
L 125.28 119.943747 
L 119.328 115.688823 
L 117.973106 114.624 
L 113.376 111.124265 
L 110.927617 109.08 
L 107.424 106.203551 
L 104.444216 103.536 
L 101.472 100.8858 
L 98.474722 97.992 
L 95.52 95.117368 
L 92.96319 92.448 
L 89.568 88.836307 
L 87.854642 86.904 
L 83.616 81.978835 
L 83.104947 81.36 
L 78.652487 75.816 
L 77.664 74.538401 
L 74.425966 70.272 
L 71.712 66.49041 
L 70.423749 64.728 
L 66.59103 59.184 
L 65.76 57.920838 
L 62.735846 53.64 
L 59.808 49.121971 
L 59.010922 48.096 
L 55.0337 42.552 
L 53.856 40.759112 
L 50.24001 37.008 
L 47.904 34.246863 
L 41.952 32.522316 
L 38.844956 37.008 
L 36.141965 42.552 
L 36 42.926095 
L 36 42.552 
L 36 37.008 
L 36 34.549527 
L 37.910679 31.464 
L 41.952 26.752223 
L 47.904 29.443774 
L 49.455952 31.464 
L 53.856 36.509088 
L 54.165823 37.008 
L 57.832643 42.552 
L 59.808 45.260192 
L 61.567853 48.096 
L 65.283304 53.64 
L 65.76 54.314787 
L 68.963439 59.184 
L 71.712 63.079187 
L 72.861008 64.728 
L 76.908045 70.272 
L 77.664 71.268038 
L 81.18279 75.816 
L 83.616 78.825753 
L 85.75496 81.36 
L 89.568 85.729969 
L 90.654708 86.904 
L 95.52 92.039036 
L 95.935685 92.448 
L 101.472 97.820907 
L 101.662696 97.992 
L 107.424 103.141605 
L 107.904336 103.536 
L 113.376 108.0595 
L 114.726781 109.08 
L 119.328 112.621991 
L 122.186757 114.624 
L 125.28 116.862422 
L 130.322112 120.168 
L 131.232 120.795159 
L 137.184 124.549627 
L 139.211623 125.712 
L 143.136 128.127868 
L 148.789389 131.256 
L 149.088 131.438706 
L 155.04 134.787361 
L 159.023931 136.8 
L 160.992 137.942449 
L 166.944 141.079304 
L 169.590969 142.344 
L 172.896 144.266863 
L 178.848 147.367244 
L 179.941654 147.888 
L 184.8 151.001211 
L 189.089672 153.432 
L 190.752 155.061879 
L 195.298296 158.976 
L 195.933473 164.52 
L 190.752 167.982039 
L 187.323269 170.064 
L 184.8 170.729156 
L 178.848 172.249328 
L 172.896 173.681665 
L 166.944 175.022845 
L 164.211772 175.608 
L 160.992 176.065813 
L 155.04 176.800637 
L 149.088 177.514648 
L 143.136 178.172136 
L 137.184 178.763984 
L 131.232 179.279406 
L 125.28 179.705574 
L 119.328 180.027128 
L 113.376 180.225558 
L 107.424 180.278393 
L 101.472 180.158154 
L 95.52 179.83098 
L 89.568 179.254839 
L 83.616 178.377187 
L 77.664 177.575027 
L 72.346529 175.608 
L 71.712 175.393946 
L 65.76 172.631241 
L 61.512111 170.064 
L 59.808 168.897156 
L 54.999549 164.52 
L 53.856 163.371734 
L 50.614797 158.976 
L 47.904 155.045106 
L 46.209724 153.432 
L 44.309669 147.888 
L 42.06674 142.344 
L 41.952 142.052886 
z
" clip-path="url(#pa0837d099d)" style="fill: #443983"/>
   </g>
   <g id="PathCollection_5">
    <path d="M 40.642138 136.8 
L 39.318558 131.256 
L 38.430512 125.712 
L 37.200216 120.168 
L 36.079137 114.624 
L 36 114.16166 
L 36 109.08 
L 36 107.72637 
L 36.188712 109.08 
L 37.125054 114.624 
L 38.178218 120.168 
L 39.346616 125.712 
L 40.356242 131.256 
L 41.952 136.469092 
L 42.066666 136.8 
L 44.243362 142.344 
L 46.454912 147.888 
L 47.904 150.912589 
L 49.464423 153.432 
L 53.158435 158.976 
L 53.856 159.92204 
L 58.435074 164.52 
L 59.808 165.769781 
L 65.76 169.824089 
L 66.240909 170.064 
L 71.712 172.425854 
L 77.664 174.349612 
L 83.046818 175.608 
L 83.616 175.719196 
L 89.568 176.461245 
L 95.52 176.902622 
L 101.472 177.095928 
L 107.424 177.083243 
L 113.376 176.898463 
L 119.328 176.569093 
L 125.28 176.117626 
L 130.760546 175.608 
L 131.232 175.543085 
L 137.184 174.609389 
L 143.136 173.537622 
L 149.088 172.338164 
L 155.04 171.019585 
L 159.072747 170.064 
L 160.992 169.200741 
L 166.944 166.277817 
L 170.191029 164.52 
L 172.197412 158.976 
L 168.742577 153.432 
L 166.944 152.046482 
L 162.192459 147.888 
L 160.992 147.146244 
L 155.04 143.03847 
L 154.138779 142.344 
L 149.088 139.234623 
L 145.56866 136.8 
L 143.136 135.350318 
L 137.184 131.391938 
L 136.997387 131.256 
L 131.232 127.481194 
L 128.80408 125.712 
L 125.28 123.327059 
L 121.065755 120.168 
L 119.328 118.929104 
L 113.850133 114.624 
L 113.376 114.263047 
L 107.424 109.306438 
L 107.174008 109.08 
L 101.472 103.988596 
L 101.00444 103.536 
L 95.52 98.228305 
L 95.292543 97.992 
L 89.996119 92.448 
L 89.568 91.992581 
L 85.056005 86.904 
L 83.616 85.23076 
L 80.419406 81.36 
L 77.664 77.881718 
L 76.052879 75.816 
L 71.943886 70.272 
L 71.712 69.948894 
L 67.895735 64.728 
L 65.76 61.594106 
L 63.976668 59.184 
L 60.188389 53.64 
L 59.808 53.053013 
L 55.956892 48.096 
L 53.856 45.086264 
L 51.11002 42.552 
L 47.904 39.166838 
L 41.952 38.539493 
L 39.674325 42.552 
L 37.368527 48.096 
L 36 52.710029 
L 36 48.096 
L 36 42.926095 
L 36.141965 42.552 
L 38.844956 37.008 
L 41.952 32.522316 
L 47.904 34.246863 
L 50.24001 37.008 
L 53.856 40.759112 
L 55.0337 42.552 
L 59.010922 48.096 
L 59.808 49.121971 
L 62.735846 53.64 
L 65.76 57.920838 
L 66.59103 59.184 
L 70.423749 64.728 
L 71.712 66.49041 
L 74.425966 70.272 
L 77.664 74.538401 
L 78.652487 75.816 
L 83.104947 81.36 
L 83.616 81.978835 
L 87.854642 86.904 
L 89.568 88.836307 
L 92.96319 92.448 
L 95.52 95.117368 
L 98.474722 97.992 
L 101.472 100.8858 
L 104.444216 103.536 
L 107.424 106.203551 
L 110.927617 109.08 
L 113.376 111.124265 
L 117.973106 114.624 
L 119.328 115.688823 
L 125.28 119.943747 
L 125.622061 120.168 
L 131.232 124.034766 
L 133.928917 125.712 
L 137.184 127.88867 
L 142.788623 131.256 
L 143.136 131.487448 
L 149.088 135.118206 
L 152.158996 136.8 
L 155.04 138.621539 
L 160.992 141.99115 
L 161.673592 142.344 
L 166.944 145.69232 
L 170.839995 147.888 
L 172.896 149.49646 
L 178.60238 153.432 
L 178.848 153.754627 
L 183.390699 158.976 
L 182.66435 164.52 
L 178.848 166.813515 
L 172.896 170.032284 
L 172.833737 170.064 
L 166.944 171.537485 
L 160.992 172.92888 
L 155.04 174.217076 
L 149.088 175.396163 
L 147.944503 175.608 
L 143.136 176.186432 
L 137.184 176.841663 
L 131.232 177.420996 
L 125.28 177.9116 
L 119.328 178.298111 
L 113.376 178.562011 
L 107.424 178.680818 
L 101.472 178.627041 
L 95.52 178.366801 
L 89.568 177.858042 
L 83.616 177.048191 
L 77.664 175.947683 
L 76.745734 175.608 
L 71.712 173.9099 
L 65.76 171.251083 
L 63.795791 170.064 
L 59.808 167.333469 
L 56.717311 164.52 
L 53.856 161.646887 
L 51.886616 158.976 
L 48.07779 153.432 
L 47.904 153.151404 
L 45.382291 147.888 
L 43.155051 142.344 
L 41.952 139.291676 
z
" clip-path="url(#pa0837d099d)" style="fill: #3e4c8a"/>
   </g>
   <g id="PathCollection_6">
    <path d="M 40.356242 131.256 
L 39.346616 125.712 
L 38.178218 120.168 
L 37.125054 114.624 
L 36.188712 109.08 
L 36 107.72637 
L 36 103.536 
L 36 98.17999 
L 36.576243 103.536 
L 37.30947 109.08 
L 38.170971 114.624 
L 39.156219 120.168 
L 40.262721 125.712 
L 41.393925 131.256 
L 41.952 133.079142 
L 43.241349 136.8 
L 45.331673 142.344 
L 47.527534 147.888 
L 47.904 148.673774 
L 50.851056 153.432 
L 53.856 158.020055 
L 54.718184 158.976 
L 59.808 164.131709 
L 60.328953 164.52 
L 65.76 168.109129 
L 69.678611 170.064 
L 71.712 170.941808 
L 77.664 172.759263 
L 83.616 174.051103 
L 89.568 174.903591 
L 95.52 175.385233 
L 101.472 175.550474 
L 107.424 175.442761 
L 113.376 175.096945 
L 119.328 174.541151 
L 125.28 173.798196 
L 131.232 172.886688 
L 137.184 171.821866 
L 143.136 170.616254 
L 145.662397 170.064 
L 149.088 168.72854 
L 155.04 166.122553 
L 158.341905 164.52 
L 160.992 160.113285 
L 161.608532 158.976 
L 160.992 157.598793 
L 159.368538 153.432 
L 155.04 149.119453 
L 153.9553 147.888 
L 149.088 144.197738 
L 146.927145 142.344 
L 143.136 139.778943 
L 139.220953 136.8 
L 137.184 135.473398 
L 131.394436 131.256 
L 131.232 131.149648 
L 125.28 126.879527 
L 123.814596 125.712 
L 119.328 122.397164 
L 116.600187 120.168 
L 113.376 117.66195 
L 109.821682 114.624 
L 107.424 112.636142 
L 103.497952 109.08 
L 101.472 107.270999 
L 97.61351 103.536 
L 95.52 101.509956 
L 92.133762 97.992 
L 89.568 95.292204 
L 87.016692 92.448 
L 83.616 88.559172 
L 82.224142 86.904 
L 77.733865 81.36 
L 77.664 81.271806 
L 73.408837 75.816 
L 71.712 73.518105 
L 69.253871 70.272 
L 65.76 65.323868 
L 65.297098 64.728 
L 61.231858 59.184 
L 59.808 57.083902 
L 56.940626 53.64 
L 53.856 49.505879 
L 52.096949 48.096 
L 47.904 44.233029 
L 41.952 44.88464 
L 40.446744 48.096 
L 38.473875 53.64 
L 37.079304 59.184 
L 36.126165 64.728 
L 36 65.79655 
L 36 64.728 
L 36 59.184 
L 36 53.64 
L 36 52.710029 
L 37.368527 48.096 
L 39.674325 42.552 
L 41.952 38.539493 
L 47.904 39.166838 
L 51.11002 42.552 
L 53.856 45.086264 
L 55.956892 48.096 
L 59.808 53.053013 
L 60.188389 53.64 
L 63.976668 59.184 
L 65.76 61.594106 
L 67.895735 64.728 
L 71.712 69.948894 
L 71.943886 70.272 
L 76.052879 75.816 
L 77.664 77.881718 
L 80.419406 81.36 
L 83.616 85.23076 
L 85.056005 86.904 
L 89.568 91.992581 
L 89.996119 92.448 
L 95.292543 97.992 
L 95.52 98.228305 
L 101.00444 103.536 
L 101.472 103.988596 
L 107.174008 109.08 
L 107.424 109.306438 
L 113.376 114.263047 
L 113.850133 114.624 
L 119.328 118.929104 
L 121.065755 120.168 
L 125.28 123.327059 
L 128.80408 125.712 
L 131.232 127.481194 
L 136.997387 131.256 
L 137.184 131.391938 
L 143.136 135.350318 
L 145.56866 136.8 
L 149.088 139.234623 
L 154.138779 142.344 
L 155.04 143.03847 
L 160.992 147.146244 
L 162.192459 147.888 
L 166.944 152.046482 
L 168.742577 153.432 
L 172.197412 158.976 
L 170.191029 164.52 
L 166.944 166.277817 
L 160.992 169.200741 
L 159.072747 170.064 
L 155.04 171.019585 
L 149.088 172.338164 
L 143.136 173.537622 
L 137.184 174.609389 
L 131.232 175.543085 
L 130.760546 175.608 
L 125.28 176.117626 
L 119.328 176.569093 
L 113.376 176.898463 
L 107.424 177.083243 
L 101.472 177.095928 
L 95.52 176.902622 
L 89.568 176.461245 
L 83.616 175.719196 
L 83.046818 175.608 
L 77.664 174.349612 
L 71.712 172.425854 
L 66.240909 170.064 
L 65.76 169.824089 
L 59.808 165.769781 
L 58.435074 164.52 
L 53.856 159.92204 
L 53.158435 158.976 
L 49.464423 153.432 
L 47.904 150.912589 
L 46.454912 147.888 
L 44.243362 142.344 
L 42.066666 136.8 
L 41.952 136.469092 
z
" clip-path="url(#pa0837d099d)" style="fill: #365d8d"/>
   </g>
   <g id="PathCollection_7">
    <path d="M 41.393925 131.256 
L 40.262721 125.712 
L 39.156219 120.168 
L 38.170971 114.624 
L 37.30947 109.08 
L 36.576243 103.536 
L 36 98.17999 
L 36 97.992 
L 36 92.448 
L 36 86.904 
L 36 81.36 
L 36 75.816 
L 36 70.272 
L 36 65.79655 
L 36.126165 64.728 
L 37.079304 59.184 
L 38.473875 53.64 
L 40.446744 48.096 
L 41.952 44.88464 
L 47.904 44.233029 
L 52.096949 48.096 
L 53.856 49.505879 
L 56.940626 53.64 
L 59.808 57.083902 
L 61.231858 59.184 
L 65.297098 64.728 
L 65.76 65.323868 
L 69.253871 70.272 
L 71.712 73.518105 
L 73.408837 75.816 
L 77.664 81.271806 
L 77.733865 81.36 
L 82.224142 86.904 
L 83.616 88.559172 
L 87.016692 92.448 
L 89.568 95.292204 
L 92.133762 97.992 
L 95.52 101.509956 
L 97.61351 103.536 
L 101.472 107.270999 
L 103.497952 109.08 
L 107.424 112.636142 
L 109.821682 114.624 
L 113.376 117.66195 
L 116.600187 120.168 
L 119.328 122.397164 
L 123.814596 125.712 
L 125.28 126.879527 
L 131.232 131.149648 
L 131.394436 131.256 
L 137.184 135.473398 
L 139.220953 136.8 
L 143.136 139.778943 
L 146.927145 142.344 
L 149.088 144.197738 
L 153.9553 147.888 
L 155.04 149.119453 
L 159.368538 153.432 
L 160.992 157.598793 
L 161.608532 158.976 
L 160.992 160.113285 
L 158.341905 164.52 
L 155.04 166.122553 
L 149.088 168.72854 
L 145.662397 170.064 
L 143.136 170.616254 
L 137.184 171.821866 
L 131.232 172.886688 
L 125.28 173.798196 
L 119.328 174.541151 
L 113.376 175.096945 
L 107.424 175.442761 
L 101.472 175.550474 
L 95.52 175.385233 
L 89.568 174.903591 
L 83.616 174.051103 
L 77.664 172.759263 
L 71.712 170.941808 
L 69.678611 170.064 
L 65.76 168.109129 
L 60.328953 164.52 
L 59.808 164.131709 
L 54.718184 158.976 
L 53.856 158.020055 
L 50.851056 153.432 
L 47.904 148.673774 
L 47.527534 147.888 
L 45.331673 142.344 
L 43.241349 136.8 
L 41.952 133.079142 
z
M 41.952 129.294245 
L 42.539902 131.256 
L 44.416032 136.8 
L 46.419984 142.344 
L 47.904 146.10019 
L 48.89022 147.888 
L 52.237689 153.432 
L 53.856 155.902895 
L 56.62769 158.976 
L 59.808 162.197482 
L 62.92402 164.52 
L 65.76 166.394169 
L 71.712 169.297976 
L 73.91583 170.064 
L 77.664 171.168915 
L 83.616 172.352048 
L 89.568 173.093433 
L 95.52 173.461572 
L 101.472 173.510898 
L 107.424 173.284834 
L 113.376 172.818203 
L 119.328 172.13909 
L 125.28 171.270266 
L 131.232 170.23029 
L 132.094525 170.064 
L 137.184 168.408905 
L 143.136 166.146219 
L 146.92453 164.52 
L 149.088 162.073283 
L 151.505818 158.976 
L 150.413214 153.432 
L 149.088 151.891089 
L 146.070815 147.888 
L 143.136 145.389779 
L 139.976694 142.344 
L 137.184 140.25387 
L 133.082437 136.8 
L 131.232 135.476441 
L 125.956497 131.256 
L 125.28 130.771399 
L 119.328 126.051693 
L 118.939419 125.712 
L 113.376 121.209367 
L 112.209549 120.168 
L 107.424 116.103108 
L 105.833771 114.624 
L 101.472 110.681168 
L 99.840394 109.08 
L 95.52 104.886044 
L 94.225014 103.536 
L 89.568 98.657612 
L 88.967769 97.992 
L 84.035181 92.448 
L 83.616 91.968649 
L 79.357063 86.904 
L 77.664 84.811429 
L 74.902823 81.36 
L 71.712 77.154533 
L 70.662048 75.816 
L 66.542429 70.272 
L 65.76 69.1639 
L 62.313956 64.728 
L 59.808 61.20329 
L 57.991639 59.184 
L 53.856 54.038523 
L 53.261926 53.64 
L 47.904 49.485847 
L 41.952 51.677698 
L 41.191245 53.64 
L 39.503058 59.184 
L 38.306353 64.728 
L 37.496222 70.272 
L 36.999083 75.816 
L 36.762118 81.36 
L 36.746752 86.904 
L 36.924477 92.448 
L 37.274096 97.992 
L 37.779869 103.536 
L 38.430228 109.08 
L 39.216887 114.624 
L 40.13422 120.168 
L 41.178825 125.712 
z
" clip-path="url(#pa0837d099d)" style="fill: #2e6d8e"/>
   </g>
   <g id="PathCollection_8">
    <path d="M 41.178825 125.712 
L 40.13422 120.168 
L 39.216887 114.624 
L 38.430228 109.08 
L 37.779869 103.536 
L 37.274096 97.992 
L 36.924477 92.448 
L 36.746752 86.904 
L 36.762118 81.36 
L 36.999083 75.816 
L 37.496222 70.272 
L 38.306353 64.728 
L 39.503058 59.184 
L 41.191245 53.64 
L 41.952 51.677698 
L 47.904 49.485847 
L 53.261926 53.64 
L 53.856 54.038523 
L 57.991639 59.184 
L 59.808 61.20329 
L 62.313956 64.728 
L 65.76 69.1639 
L 66.542429 70.272 
L 70.662048 75.816 
L 71.712 77.154533 
L 74.902823 81.36 
L 77.664 84.811429 
L 79.357063 86.904 
L 83.616 91.968649 
L 84.035181 92.448 
L 88.967769 97.992 
L 89.568 98.657612 
L 94.225014 103.536 
L 95.52 104.886044 
L 99.840394 109.08 
L 101.472 110.681168 
L 105.833771 114.624 
L 107.424 116.103108 
L 112.209549 120.168 
L 113.376 121.209367 
L 118.939419 125.712 
L 119.328 126.051693 
L 125.28 130.771399 
L 125.956497 131.256 
L 131.232 135.476441 
L 133.082437 136.8 
L 137.184 140.25387 
L 139.976694 142.344 
L 143.136 145.389779 
L 146.070815 147.888 
L 149.088 151.891089 
L 150.413214 153.432 
L 151.505818 158.976 
L 149.088 162.073283 
L 146.92453 164.52 
L 143.136 166.146219 
L 137.184 168.408905 
L 132.094525 170.064 
L 131.232 170.23029 
L 125.28 171.270266 
L 119.328 172.13909 
L 113.376 172.818203 
L 107.424 173.284834 
L 101.472 173.510898 
L 95.52 173.461572 
L 89.568 173.093433 
L 83.616 172.352048 
L 77.664 171.168915 
L 73.91583 170.064 
L 71.712 169.297976 
L 65.76 166.394169 
L 62.92402 164.52 
L 59.808 162.197482 
L 56.62769 158.976 
L 53.856 155.902895 
L 52.237689 153.432 
L 48.89022 147.888 
L 47.904 146.10019 
L 46.419984 142.344 
L 44.416032 136.8 
L 42.539902 131.256 
L 41.952 129.294245 
z
M 41.952 124.859554 
L 42.167672 125.712 
L 43.811888 131.256 
L 45.590715 136.8 
L 47.508294 142.344 
L 47.904 143.345569 
L 50.409768 147.888 
L 53.624322 153.432 
L 53.856 153.785734 
L 58.537196 158.976 
L 59.808 160.263256 
L 65.519087 164.52 
L 65.76 164.679208 
L 71.712 167.422779 
L 77.664 169.439786 
L 80.450902 170.064 
L 83.616 170.652994 
L 89.568 171.283275 
L 95.52 171.537911 
L 101.472 171.471321 
L 107.424 171.126907 
L 113.376 170.539461 
L 116.978059 170.064 
L 119.328 169.57761 
L 125.28 168.048879 
L 131.232 166.16813 
L 135.69689 164.52 
L 137.184 163.310424 
L 141.733137 158.976 
L 141.791336 153.432 
L 138.451549 147.888 
L 137.184 146.661562 
L 133.246374 142.344 
L 131.232 140.663113 
L 127.117418 136.8 
L 125.28 135.34827 
L 120.645957 131.256 
L 119.328 130.218491 
L 114.172933 125.712 
L 113.376 125.067019 
L 107.888536 120.168 
L 107.424 119.773418 
L 101.887722 114.624 
L 101.472 114.248207 
L 96.205548 109.08 
L 95.52 108.414515 
L 90.840445 103.536 
L 89.568 102.203069 
L 85.770572 97.992 
L 83.616 95.555381 
L 80.967175 92.448 
L 77.664 88.436662 
L 76.409681 86.904 
L 72.067895 81.36 
L 71.712 80.890935 
L 67.731196 75.816 
L 65.76 73.121846 
L 63.428878 70.272 
L 59.808 65.429038 
L 59.119209 64.728 
L 54.217419 59.184 
L 53.856 58.73433 
L 47.904 54.98294 
L 41.952 59.105127 
L 41.926813 59.184 
L 40.48654 64.728 
L 39.471105 70.272 
L 38.798571 75.816 
L 38.410034 81.36 
L 38.262381 86.904 
L 38.323648 92.448 
L 38.569968 97.992 
L 38.983494 103.536 
L 39.550986 109.08 
L 40.262804 114.624 
L 41.112221 120.168 
z
" clip-path="url(#pa0837d099d)" style="fill: #297b8e"/>
   </g>
   <g id="PathCollection_9">
    <path d="M 41.112221 120.168 
L 40.262804 114.624 
L 39.550986 109.08 
L 38.983494 103.536 
L 38.569968 97.992 
L 38.323648 92.448 
L 38.262381 86.904 
L 38.410034 81.36 
L 38.798571 75.816 
L 39.471105 70.272 
L 40.48654 64.728 
L 41.926813 59.184 
L 41.952 59.105127 
L 47.904 54.98294 
L 53.856 58.73433 
L 54.217419 59.184 
L 59.119209 64.728 
L 59.808 65.429038 
L 63.428878 70.272 
L 65.76 73.121846 
L 67.731196 75.816 
L 71.712 80.890935 
L 72.067895 81.36 
L 76.409681 86.904 
L 77.664 88.436662 
L 80.967175 92.448 
L 83.616 95.555381 
L 85.770572 97.992 
L 89.568 102.203069 
L 90.840445 103.536 
L 95.52 108.414515 
L 96.205548 109.08 
L 101.472 114.248207 
L 101.887722 114.624 
L 107.424 119.773418 
L 107.888536 120.168 
L 113.376 125.067019 
L 114.172933 125.712 
L 119.328 130.218491 
L 120.645957 131.256 
L 125.28 135.34827 
L 127.117418 136.8 
L 131.232 140.663113 
L 133.246374 142.344 
L 137.184 146.661562 
L 138.451549 147.888 
L 141.791336 153.432 
L 141.733137 158.976 
L 137.184 163.310424 
L 135.69689 164.52 
L 131.232 166.16813 
L 125.28 168.048879 
L 119.328 169.57761 
L 116.978059 170.064 
L 113.376 170.539461 
L 107.424 171.126907 
L 101.472 171.471321 
L 95.52 171.537911 
L 89.568 171.283275 
L 83.616 170.652994 
L 80.450902 170.064 
L 77.664 169.439786 
L 71.712 167.422779 
L 65.76 164.679208 
L 65.519087 164.52 
L 59.808 160.263256 
L 58.537196 158.976 
L 53.856 153.785734 
L 53.624322 153.432 
L 50.409768 147.888 
L 47.904 143.345569 
L 47.508294 142.344 
L 45.590715 136.8 
L 43.811888 131.256 
L 42.167672 125.712 
L 41.952 124.859554 
z
M 41.952 119.132075 
L 42.1652 120.168 
L 43.55002 125.712 
L 45.083873 131.256 
L 46.765398 136.8 
L 47.904 140.146672 
L 48.96992 142.344 
L 51.929315 147.888 
L 53.856 151.233983 
L 55.640269 153.432 
L 59.808 158.162685 
L 60.809488 158.976 
L 65.76 162.555866 
L 69.470575 164.52 
L 71.712 165.547581 
L 77.664 167.394773 
L 83.616 168.610259 
L 89.568 169.275287 
L 95.52 169.451622 
L 101.472 169.185099 
L 107.424 168.508543 
L 113.376 167.444008 
L 119.328 166.004396 
L 124.274649 164.52 
L 125.28 163.936762 
L 131.232 159.741897 
L 132.155483 158.976 
L 133.409367 153.432 
L 131.232 148.382464 
L 131.045589 147.888 
L 126.689992 142.344 
L 125.28 141.019115 
L 121.286595 136.8 
L 119.328 135.078817 
L 115.429471 131.256 
L 113.376 129.47066 
L 109.471544 125.712 
L 107.424 123.890454 
L 103.613221 120.168 
L 101.472 118.176634 
L 97.959187 114.624 
L 95.52 112.219984 
L 92.55493 109.08 
L 89.568 105.936203 
L 87.411739 103.536 
L 83.616 99.26105 
L 82.526505 97.992 
L 77.885019 92.448 
L 77.664 92.179597 
L 73.346491 86.904 
L 71.712 84.803062 
L 68.915544 81.36 
L 65.76 77.197305 
L 64.565876 75.816 
L 60.152228 70.272 
L 59.808 69.811592 
L 54.813224 64.728 
L 53.856 63.634 
L 47.904 60.809987 
L 43.965249 64.728 
L 41.952 67.839849 
L 41.445989 70.272 
L 40.598059 75.816 
L 40.05795 81.36 
L 39.778009 86.904 
L 39.72282 92.448 
L 39.865839 97.992 
L 40.18712 103.536 
L 40.671743 109.08 
L 41.308721 114.624 
z
" clip-path="url(#pa0837d099d)" style="fill: #238a8d"/>
   </g>
   <g id="PathCollection_10">
    <path d="M 41.308721 114.624 
L 40.671743 109.08 
L 40.18712 103.536 
L 39.865839 97.992 
L 39.72282 92.448 
L 39.778009 86.904 
L 40.05795 81.36 
L 40.598059 75.816 
L 41.445989 70.272 
L 41.952 67.839849 
L 43.965249 64.728 
L 47.904 60.809987 
L 53.856 63.634 
L 54.813224 64.728 
L 59.808 69.811592 
L 60.152228 70.272 
L 64.565876 75.816 
L 65.76 77.197305 
L 68.915544 81.36 
L 71.712 84.803062 
L 73.346491 86.904 
L 77.664 92.179597 
L 77.885019 92.448 
L 82.526505 97.992 
L 83.616 99.26105 
L 87.411739 103.536 
L 89.568 105.936203 
L 92.55493 109.08 
L 95.52 112.219984 
L 97.959187 114.624 
L 101.472 118.176634 
L 103.613221 120.168 
L 107.424 123.890454 
L 109.471544 125.712 
L 113.376 129.47066 
L 115.429471 131.256 
L 119.328 135.078817 
L 121.286595 136.8 
L 125.28 141.019115 
L 126.689992 142.344 
L 131.045589 147.888 
L 131.232 148.382464 
L 133.409367 153.432 
L 132.155483 158.976 
L 131.232 159.741897 
L 125.28 163.936762 
L 124.274649 164.52 
L 119.328 166.004396 
L 113.376 167.444008 
L 107.424 168.508543 
L 101.472 169.185099 
L 95.52 169.451622 
L 89.568 169.275287 
L 83.616 168.610259 
L 77.664 167.394773 
L 71.712 165.547581 
L 69.470575 164.52 
L 65.76 162.555866 
L 60.809488 158.976 
L 59.808 158.162685 
L 55.640269 153.432 
L 53.856 151.233983 
L 51.929315 147.888 
L 48.96992 142.344 
L 47.904 140.146672 
L 46.765398 136.8 
L 45.083873 131.256 
L 43.55002 125.712 
L 42.1652 120.168 
L 41.952 119.132075 
z
M 41.952 110.576346 
L 42.588742 114.624 
L 43.673706 120.168 
L 44.932367 125.712 
L 46.355859 131.256 
L 47.904 136.663532 
L 47.96109 136.8 
L 50.644832 142.344 
L 53.448863 147.888 
L 53.856 148.595056 
L 57.782454 153.432 
L 59.808 155.731146 
L 63.803602 158.976 
L 65.76 160.390731 
L 71.712 163.425823 
L 74.848521 164.52 
L 77.664 165.34976 
L 83.616 166.385169 
L 89.568 166.859082 
L 95.52 166.832377 
L 101.472 166.349875 
L 107.424 165.443245 
L 111.71257 164.52 
L 113.376 163.893659 
L 119.328 160.972199 
L 122.533203 158.976 
L 125.14261 153.432 
L 123.788815 147.888 
L 120.253017 142.344 
L 119.328 141.352366 
L 115.544648 136.8 
L 113.376 134.662063 
L 110.269831 131.256 
L 107.424 128.507581 
L 104.79643 125.712 
L 101.472 122.449921 
L 99.337785 120.168 
L 95.52 116.276796 
L 94.011701 114.624 
L 89.568 109.859664 
L 88.879597 109.08 
L 83.956443 103.536 
L 83.616 103.152576 
L 79.18558 97.992 
L 77.664 96.167262 
L 74.562661 92.448 
L 71.712 88.863412 
L 70.065583 86.904 
L 65.76 81.419584 
L 65.705291 81.36 
L 60.918944 75.816 
L 59.808 74.40813 
L 55.298785 70.272 
L 53.856 68.780035 
L 47.904 67.100736 
L 45.57145 70.272 
L 42.944027 75.816 
L 41.952 79.273997 
L 41.705867 81.36 
L 41.293638 86.904 
L 41.121992 92.448 
L 41.161711 97.992 
L 41.390745 103.536 
L 41.792501 109.08 
z
" clip-path="url(#pa0837d099d)" style="fill: #1f998a"/>
   </g>
   <g id="PathCollection_11">
    <path d="M 41.792501 109.08 
L 41.390745 103.536 
L 41.161711 97.992 
L 41.121992 92.448 
L 41.293638 86.904 
L 41.705867 81.36 
L 41.952 79.273997 
L 42.944027 75.816 
L 45.57145 70.272 
L 47.904 67.100736 
L 53.856 68.780035 
L 55.298785 70.272 
L 59.808 74.40813 
L 60.918944 75.816 
L 65.705291 81.36 
L 65.76 81.419584 
L 70.065583 86.904 
L 71.712 88.863412 
L 74.562661 92.448 
L 77.664 96.167262 
L 79.18558 97.992 
L 83.616 103.152576 
L 83.956443 103.536 
L 88.879597 109.08 
L 89.568 109.859664 
L 94.011701 114.624 
L 95.52 116.276796 
L 99.337785 120.168 
L 101.472 122.449921 
L 104.79643 125.712 
L 107.424 128.507581 
L 110.269831 131.256 
L 113.376 134.662063 
L 115.544648 136.8 
L 119.328 141.352366 
L 120.253017 142.344 
L 123.788815 147.888 
L 125.14261 153.432 
L 122.533203 158.976 
L 119.328 160.972199 
L 113.376 163.893659 
L 111.71257 164.52 
L 107.424 165.443245 
L 101.472 166.349875 
L 95.52 166.832377 
L 89.568 166.859082 
L 83.616 166.385169 
L 77.664 165.34976 
L 74.848521 164.52 
L 71.712 163.425823 
L 65.76 160.390731 
L 63.803602 158.976 
L 59.808 155.731146 
L 57.782454 153.432 
L 53.856 148.595056 
L 53.448863 147.888 
L 50.644832 142.344 
L 47.96109 136.8 
L 47.904 136.663532 
L 46.355859 131.256 
L 44.932367 125.712 
L 43.673706 120.168 
L 42.588742 114.624 
L 41.952 110.576346 
z
M 47.904 132.220587 
L 49.819742 136.8 
L 52.319744 142.344 
L 53.856 145.427186 
L 55.634687 147.888 
L 59.808 153.261657 
L 59.999762 153.432 
L 65.76 158.006606 
L 67.501049 158.976 
L 71.712 161.005153 
L 77.664 162.912815 
L 83.616 164.03128 
L 89.568 164.412218 
L 95.52 164.077387 
L 101.472 163.018691 
L 107.424 161.196077 
L 112.479588 158.976 
L 113.376 158.042525 
L 116.821285 153.432 
L 116.560154 147.888 
L 113.866678 142.344 
L 113.376 141.732832 
L 109.835607 136.8 
L 107.424 134.102943 
L 105.12265 131.256 
L 101.472 127.312719 
L 100.115354 125.712 
L 95.52 120.722743 
L 95.045097 120.168 
L 90.029753 114.624 
L 89.568 114.128929 
L 85.110062 109.08 
L 83.616 107.386878 
L 80.318344 103.536 
L 77.664 100.368885 
L 75.656732 97.992 
L 71.712 93.116516 
L 71.131791 92.448 
L 66.535597 86.904 
L 65.76 85.916051 
L 61.576751 81.36 
L 59.808 79.246482 
L 55.557959 75.816 
L 53.856 74.259908 
L 47.904 74.077103 
L 46.950651 75.816 
L 44.833756 81.36 
L 43.604165 86.904 
L 42.991928 92.448 
L 42.835258 97.992 
L 43.032194 103.536 
L 43.516169 109.08 
L 44.242782 114.624 
L 45.182213 120.168 
L 46.314715 125.712 
L 47.627845 131.256 
z
" clip-path="url(#pa0837d099d)" style="fill: #22a884"/>
   </g>
   <g id="PathCollection_12">
    <path d="M 47.627845 131.256 
L 46.314715 125.712 
L 45.182213 120.168 
L 44.242782 114.624 
L 43.516169 109.08 
L 43.032194 103.536 
L 42.835258 97.992 
L 42.991928 92.448 
L 43.604165 86.904 
L 44.833756 81.36 
L 46.950651 75.816 
L 47.904 74.077103 
L 53.856 74.259908 
L 55.557959 75.816 
L 59.808 79.246482 
L 61.576751 81.36 
L 65.76 85.916051 
L 66.535597 86.904 
L 71.131791 92.448 
L 71.712 93.116516 
L 75.656732 97.992 
L 77.664 100.368885 
L 80.318344 103.536 
L 83.616 107.386878 
L 85.110062 109.08 
L 89.568 114.128929 
L 90.029753 114.624 
L 95.045097 120.168 
L 95.52 120.722743 
L 100.115354 125.712 
L 101.472 127.312719 
L 105.12265 131.256 
L 107.424 134.102943 
L 109.835607 136.8 
L 113.376 141.732832 
L 113.866678 142.344 
L 116.560154 147.888 
L 116.821285 153.432 
L 113.376 158.042525 
L 112.479588 158.976 
L 107.424 161.196077 
L 101.472 163.018691 
L 95.52 164.077387 
L 89.568 164.412218 
L 83.616 164.03128 
L 77.664 162.912815 
L 71.712 161.005153 
L 67.501049 158.976 
L 65.76 158.006606 
L 59.999762 153.432 
L 59.808 153.261657 
L 55.634687 147.888 
L 53.856 145.427186 
L 52.319744 142.344 
L 49.819742 136.8 
L 47.904 132.220587 
z
M 47.904 126.60192 
L 49.531673 131.256 
L 51.678393 136.8 
L 53.856 141.978123 
L 54.087225 142.344 
L 58.064366 147.888 
L 59.808 150.133145 
L 63.521661 153.432 
L 65.76 155.209621 
L 71.712 158.454206 
L 73.27132 158.976 
L 77.664 160.208265 
L 83.616 161.009933 
L 89.568 161.035478 
L 95.52 160.299501 
L 100.792332 158.976 
L 101.472 158.646807 
L 107.424 154.207511 
L 108.18537 153.432 
L 109.220328 147.888 
L 107.436292 142.344 
L 107.424 142.325714 
L 104.083272 136.8 
L 101.472 133.434779 
L 99.929065 131.256 
L 95.52 125.883618 
L 95.389202 125.712 
L 90.656878 120.168 
L 89.568 118.952931 
L 85.890175 114.624 
L 83.616 111.989373 
L 81.16778 109.08 
L 77.664 104.872386 
L 76.531813 103.536 
L 71.970719 97.992 
L 71.712 97.672236 
L 67.17785 92.448 
L 65.76 90.702389 
L 62.029933 86.904 
L 59.808 84.417601 
L 55.329424 81.36 
L 53.856 80.213834 
L 49.883763 81.36 
L 47.904 82.27839 
L 46.525158 86.904 
L 45.548377 92.448 
L 45.099161 97.992 
L 45.056178 103.536 
L 45.339877 109.08 
L 45.896822 114.624 
L 46.69072 120.168 
L 47.697063 125.712 
z
" clip-path="url(#pa0837d099d)" style="fill: #34b679"/>
   </g>
   <g id="PathCollection_13">
    <path d="M 47.697063 125.712 
L 46.69072 120.168 
L 45.896822 114.624 
L 45.339877 109.08 
L 45.056178 103.536 
L 45.099161 97.992 
L 45.548377 92.448 
L 46.525158 86.904 
L 47.904 82.27839 
L 49.883763 81.36 
L 53.856 80.213834 
L 55.329424 81.36 
L 59.808 84.417601 
L 62.029933 86.904 
L 65.76 90.702389 
L 67.17785 92.448 
L 71.712 97.672236 
L 71.970719 97.992 
L 76.531813 103.536 
L 77.664 104.872386 
L 81.16778 109.08 
L 83.616 111.989373 
L 85.890175 114.624 
L 89.568 118.952931 
L 90.656878 120.168 
L 95.389202 125.712 
L 95.52 125.883618 
L 99.929065 131.256 
L 101.472 133.434779 
L 104.083272 136.8 
L 107.424 142.325714 
L 107.436292 142.344 
L 109.220328 147.888 
L 108.18537 153.432 
L 107.424 154.207511 
L 101.472 158.646807 
L 100.792332 158.976 
L 95.52 160.299501 
L 89.568 161.035478 
L 83.616 161.009933 
L 77.664 160.208265 
L 73.27132 158.976 
L 71.712 158.454206 
L 65.76 155.209621 
L 63.521661 153.432 
L 59.808 150.133145 
L 58.064366 147.888 
L 54.087225 142.344 
L 53.856 141.978123 
L 51.678393 136.8 
L 49.531673 131.256 
L 47.904 126.60192 
z
M 47.904 117.516527 
L 48.429135 120.168 
L 49.900503 125.712 
L 51.610718 131.256 
L 53.537045 136.8 
L 53.856 137.558441 
L 56.880352 142.344 
L 59.808 146.711466 
L 61.008149 147.888 
L 65.76 152.069017 
L 68.114846 153.432 
L 71.712 155.228057 
L 77.664 156.942044 
L 83.616 157.553756 
L 89.568 156.983284 
L 95.52 155.039629 
L 98.391781 153.432 
L 101.472 148.041748 
L 101.535097 147.888 
L 101.472 147.468234 
L 100.7755 142.344 
L 98.169192 136.8 
L 95.52 132.768914 
L 94.597626 131.256 
L 90.484369 125.712 
L 89.568 124.608567 
L 86.065133 120.168 
L 83.616 117.191209 
L 81.544794 114.624 
L 77.664 109.845536 
L 77.023462 109.08 
L 72.405597 103.536 
L 71.712 102.687185 
L 67.514967 97.992 
L 65.76 95.899714 
L 62.096339 92.448 
L 59.808 90.074617 
L 53.890819 86.904 
L 53.856 86.88258 
L 53.820706 86.904 
L 48.49669 92.448 
L 47.904 93.819728 
L 47.363064 97.992 
L 47.080163 103.536 
L 47.163585 109.08 
L 47.550862 114.624 
z
" clip-path="url(#pa0837d099d)" style="fill: #4ec36b"/>
   </g>
   <g id="PathCollection_14">
    <path d="M 47.550862 114.624 
L 47.163585 109.08 
L 47.080163 103.536 
L 47.363064 97.992 
L 47.904 93.819728 
L 48.49669 92.448 
L 53.820706 86.904 
L 53.856 86.88258 
L 53.890819 86.904 
L 59.808 90.074617 
L 62.096339 92.448 
L 65.76 95.899714 
L 67.514967 97.992 
L 71.712 102.687185 
L 72.405597 103.536 
L 77.023462 109.08 
L 77.664 109.845536 
L 81.544794 114.624 
L 83.616 117.191209 
L 86.065133 120.168 
L 89.568 124.608567 
L 90.484369 125.712 
L 94.597626 131.256 
L 95.52 132.768914 
L 98.169192 136.8 
L 100.7755 142.344 
L 101.472 147.468234 
L 101.535097 147.888 
L 101.472 148.041748 
L 98.391781 153.432 
L 95.52 155.039629 
L 89.568 156.983284 
L 83.616 157.553756 
L 77.664 156.942044 
L 71.712 155.228057 
L 68.114846 153.432 
L 65.76 152.069017 
L 61.008149 147.888 
L 59.808 146.711466 
L 56.880352 142.344 
L 53.856 137.558441 
L 53.537045 136.8 
L 51.610718 131.256 
L 49.900503 125.712 
L 48.429135 120.168 
L 47.904 117.516527 
z
M 53.856 131.744014 
L 56.561819 136.8 
L 59.673478 142.344 
L 59.808 142.544679 
L 65.258571 147.888 
L 65.76 148.329193 
L 71.712 151.427183 
L 77.664 153.095355 
L 83.616 153.062296 
L 89.568 150.658026 
L 92.608356 147.888 
L 93.536877 142.344 
L 91.874397 136.8 
L 89.568 132.468534 
L 88.950908 131.256 
L 85.244461 125.712 
L 83.616 123.536707 
L 81.123524 120.168 
L 77.664 115.655849 
L 76.834857 114.624 
L 72.316615 109.08 
L 71.712 108.338454 
L 67.313447 103.536 
L 65.76 101.736177 
L 61.388902 97.992 
L 59.808 96.498231 
L 53.856 95.197265 
L 52.195587 97.992 
L 50.554919 103.536 
L 50.09072 109.08 
L 50.351973 114.624 
L 51.112392 120.168 
L 52.248499 125.712 
L 53.689763 131.256 
z
" clip-path="url(#pa0837d099d)" style="fill: #70cf57"/>
   </g>
   <g id="PathCollection_15">
    <path d="M 53.689763 131.256 
L 52.248499 125.712 
L 51.112392 120.168 
L 50.351973 114.624 
L 50.09072 109.08 
L 50.554919 103.536 
L 52.195587 97.992 
L 53.856 95.197265 
L 59.808 96.498231 
L 61.388902 97.992 
L 65.76 101.736177 
L 67.313447 103.536 
L 71.712 108.338454 
L 72.316615 109.08 
L 76.834857 114.624 
L 77.664 115.655849 
L 81.123524 120.168 
L 83.616 123.536707 
L 85.244461 125.712 
L 88.950908 131.256 
L 89.568 132.468534 
L 91.874397 136.8 
L 93.536877 142.344 
L 92.608356 147.888 
L 89.568 150.658026 
L 83.616 153.062296 
L 77.664 153.095355 
L 71.712 151.427183 
L 65.76 148.329193 
L 65.258571 147.888 
L 59.808 142.544679 
L 59.673478 142.344 
L 56.561819 136.8 
L 53.856 131.744014 
z
M 53.856 120.537068 
L 55.376598 125.712 
L 57.450531 131.256 
L 59.808 136.743869 
L 59.851393 136.8 
L 64.870173 142.344 
L 65.76 143.22797 
L 71.712 146.381161 
L 77.664 147.281748 
L 83.616 144.088284 
L 84.772031 142.344 
L 84.689425 136.8 
L 83.616 134.035507 
L 82.519554 131.256 
L 79.301241 125.712 
L 77.664 123.299402 
L 75.381298 120.168 
L 71.712 115.249344 
L 71.135194 114.624 
L 66.112538 109.08 
L 65.76 108.680285 
L 59.808 104.472357 
L 53.856 108.635399 
L 53.772034 109.08 
L 53.464464 114.624 
L 53.795648 120.168 
z
" clip-path="url(#pa0837d099d)" style="fill: #98d83e"/>
   </g>
   <g id="PathCollection_16">
    <path d="M 53.795648 120.168 
L 53.464464 114.624 
L 53.772034 109.08 
L 53.856 108.635399 
L 59.808 104.472357 
L 65.76 108.680285 
L 66.112538 109.08 
L 71.135194 114.624 
L 71.712 115.249344 
L 75.381298 120.168 
L 77.664 123.299402 
L 79.301241 125.712 
L 82.519554 131.256 
L 83.616 134.035507 
L 84.689425 136.8 
L 84.772031 142.344 
L 83.616 144.088284 
L 77.664 147.281748 
L 71.712 146.381161 
L 65.76 143.22797 
L 64.870173 142.344 
L 59.851393 136.8 
L 59.808 136.743869 
L 57.450531 131.256 
L 55.376598 125.712 
L 53.856 120.537068 
z
M 65.76 134.238716 
L 71.236679 136.8 
L 71.712 136.978107 
L 72.003051 136.8 
L 73.223157 131.256 
L 71.712 127.106692 
L 70.843573 125.712 
L 66.427425 120.168 
L 65.76 119.391038 
L 61.495136 120.168 
L 61.281651 125.712 
L 63.860507 131.256 
z
" clip-path="url(#pa0837d099d)" style="fill: #c2df23"/>
   </g>
   <g id="PathCollection_17">
    <path d="M 63.860507 131.256 
L 61.281651 125.712 
L 61.495136 120.168 
L 65.76 119.391038 
L 66.427425 120.168 
L 70.843573 125.712 
L 71.712 127.106692 
L 73.223157 131.256 
L 72.003051 136.8 
L 71.712 136.978107 
L 71.236679 136.8 
L 65.76 134.238716 
z
" clip-path="url(#pa0837d099d)" style="fill: #ece51b"/>
   </g>
   <g id="PathCollection_18">
    <defs>
     <path id="m95faa085c4" d="M -4.330127 4.330127 
L 4.330127 -4.330127 
M -4.330127 -4.330127 
L 4.330127 4.330127 
" style="stroke: #000000; stroke-width: 2"/>
    </defs>
    <g clip-path="url(#pa0837d099d)">
     <use xlink:href="#m95faa085c4" x="65.76" y="127.56" style="stroke: #000000; stroke-width: 2"/>
    </g>
   </g>
   <g id="matplotlib.axis_1">
    <g id="xtick_1">
     <g id="line2d_1">
      <defs>
       <path id="m4e602123c5" d="M 0 0 
L 0 6 
" style="stroke: #000000; stroke-width: 2"/>
      </defs>
      <g>
       <use xlink:href="#m4e602123c5" x="65.76" y="192.24" style="stroke: #000000; stroke-width: 2"/>
      </g>
     </g>
     <g id="text_1">
      <!-- $\mathdefault{200}$ -->
      <g transform="translate(52.39 212.377813) scale(0.14 -0.14)">
       <defs>
        <path id="DejaVuSans-32" d="M 1228 531 
L 3431 531 
L 3431 0 
L 469 0 
L 469 531 
Q 828 903 1448 1529 
Q 2069 2156 2228 2338 
Q 2531 2678 2651 2914 
Q 2772 3150 2772 3378 
Q 2772 3750 2511 3984 
Q 2250 4219 1831 4219 
Q 1534 4219 1204 4116 
Q 875 4013 500 3803 
L 500 4441 
Q 881 4594 1212 4672 
Q 1544 4750 1819 4750 
Q 2544 4750 2975 4387 
Q 3406 4025 3406 3419 
Q 3406 3131 3298 2873 
Q 3191 2616 2906 2266 
Q 2828 2175 2409 1742 
Q 1991 1309 1228 531 
z
" transform="scale(0.015625)"/>
        <path id="DejaVuSans-30" d="M 2034 4250 
Q 1547 4250 1301 3770 
Q 1056 3291 1056 2328 
Q 1056 1369 1301 889 
Q 1547 409 2034 409 
Q 2525 409 2770 889 
Q 3016 1369 3016 2328 
Q 3016 3291 2770 3770 
Q 2525 4250 2034 4250 
z
M 2034 4750 
Q 2819 4750 3233 4129 
Q 3647 3509 3647 2328 
Q 3647 1150 3233 529 
Q 2819 -91 2034 -91 
Q 1250 -91 836 529 
Q 422 1150 422 2328 
Q 422 3509 836 4129 
Q 1250 4750 2034 4750 
z
" transform="scale(0.015625)"/>
       </defs>
       <use xlink:href="#DejaVuSans-32" transform="translate(0 0.78125)"/>
       <use xlink:href="#DejaVuSans-30" transform="translate(63.623047 0.78125)"/>
       <use xlink:href="#DejaVuSans-30" transform="translate(127.246094 0.78125)"/>
      </g>
     </g>
    </g>
    <g id="xtick_2">
     <g id="line2d_2">
      <g>
       <use xlink:href="#m4e602123c5" x="105.44" y="192.24" style="stroke: #000000; stroke-width: 2"/>
      </g>
     </g>
     <g id="text_2">
      <!-- $\mathdefault{400}$ -->
      <g transform="translate(92.07 212.377813) scale(0.14 -0.14)">
       <defs>
        <path id="DejaVuSans-34" d="M 2419 4116 
L 825 1625 
L 2419 1625 
L 2419 4116 
z
M 2253 4666 
L 3047 4666 
L 3047 1625 
L 3713 1625 
L 3713 1100 
L 3047 1100 
L 3047 0 
L 2419 0 
L 2419 1100 
L 313 1100 
L 313 1709 
L 2253 4666 
z
" transform="scale(0.015625)"/>
       </defs>
       <use xlink:href="#DejaVuSans-34" transform="translate(0 0.78125)"/>
       <use xlink:href="#DejaVuSans-30" transform="translate(63.623047 0.78125)"/>
       <use xlink:href="#DejaVuSans-30" transform="translate(127.246094 0.78125)"/>
      </g>
     </g>
    </g>
    <g id="xtick_3">
     <g id="line2d_3">
      <g>
       <use xlink:href="#m4e602123c5" x="145.12" y="192.24" style="stroke: #000000; stroke-width: 2"/>
      </g>
     </g>
     <g id="text_3">
      <!-- $\mathdefault{600}$ -->
      <g transform="translate(131.75 212.377813) scale(0.14 -0.14)">
       <defs>
        <path id="DejaVuSans-36" d="M 2113 2584 
Q 1688 2584 1439 2293 
Q 1191 2003 1191 1497 
Q 1191 994 1439 701 
Q 1688 409 2113 409 
Q 2538 409 2786 701 
Q 3034 994 3034 1497 
Q 3034 2003 2786 2293 
Q 2538 2584 2113 2584 
z
M 3366 4563 
L 3366 3988 
Q 3128 4100 2886 4159 
Q 2644 4219 2406 4219 
Q 1781 4219 1451 3797 
Q 1122 3375 1075 2522 
Q 1259 2794 1537 2939 
Q 1816 3084 2150 3084 
Q 2853 3084 3261 2657 
Q 3669 2231 3669 1497 
Q 3669 778 3244 343 
Q 2819 -91 2113 -91 
Q 1303 -91 875 529 
Q 447 1150 447 2328 
Q 447 3434 972 4092 
Q 1497 4750 2381 4750 
Q 2619 4750 2861 4703 
Q 3103 4656 3366 4563 
z
" transform="scale(0.015625)"/>
       </defs>
       <use xlink:href="#DejaVuSans-36" transform="translate(0 0.78125)"/>
       <use xlink:href="#DejaVuSans-30" transform="translate(63.623047 0.78125)"/>
       <use xlink:href="#DejaVuSans-30" transform="translate(127.246094 0.78125)"/>
      </g>
     </g>
    </g>
    <g id="xtick_4">
     <g id="line2d_4">
      <g>
       <use xlink:href="#m4e602123c5" x="184.8" y="192.24" style="stroke: #000000; stroke-width: 2"/>
      </g>
     </g>
     <g id="text_4">
      <!-- $\mathdefault{800}$ -->
      <g transform="translate(171.43 212.377813) scale(0.14 -0.14)">
       <defs>
        <path id="DejaVuSans-38" d="M 2034 2216 
Q 1584 2216 1326 1975 
Q 1069 1734 1069 1313 
Q 1069 891 1326 650 
Q 1584 409 2034 409 
Q 2484 409 2743 651 
Q 3003 894 3003 1313 
Q 3003 1734 2745 1975 
Q 2488 2216 2034 2216 
z
M 1403 2484 
Q 997 2584 770 2862 
Q 544 3141 544 3541 
Q 544 4100 942 4425 
Q 1341 4750 2034 4750 
Q 2731 4750 3128 4425 
Q 3525 4100 3525 3541 
Q 3525 3141 3298 2862 
Q 3072 2584 2669 2484 
Q 3125 2378 3379 2068 
Q 3634 1759 3634 1313 
Q 3634 634 3220 271 
Q 2806 -91 2034 -91 
Q 1263 -91 848 271 
Q 434 634 434 1313 
Q 434 1759 690 2068 
Q 947 2378 1403 2484 
z
M 1172 3481 
Q 1172 3119 1398 2916 
Q 1625 2713 2034 2713 
Q 2441 2713 2670 2916 
Q 2900 3119 2900 3481 
Q 2900 3844 2670 4047 
Q 2441 4250 2034 4250 
Q 1625 4250 1398 4047 
Q 1172 3844 1172 3481 
z
" transform="scale(0.015625)"/>
       </defs>
       <use xlink:href="#DejaVuSans-38" transform="translate(0 0.78125)"/>
       <use xlink:href="#DejaVuSans-30" transform="translate(63.623047 0.78125)"/>
       <use xlink:href="#DejaVuSans-30" transform="translate(127.246094 0.78125)"/>
      </g>
     </g>
    </g>
    <g id="text_5">
     <!-- Diploid N$_e$0 -->
     <g transform="translate(74.34 232.969375) scale(0.18 -0.18)">
      <defs>
       <path id="DejaVuSans-44" d="M 1259 4147 
L 1259 519 
L 2022 519 
Q 2988 519 3436 956 
Q 3884 1394 3884 2338 
Q 3884 3275 3436 3711 
Q 2988 4147 2022 4147 
L 1259 4147 
z
M 628 4666 
L 1925 4666 
Q 3281 4666 3915 4102 
Q 4550 3538 4550 2338 
Q 4550 1131 3912 565 
Q 3275 0 1925 0 
L 628 0 
L 628 4666 
z
" transform="scale(0.015625)"/>
       <path id="DejaVuSans-69" d="M 603 3500 
L 1178 3500 
L 1178 0 
L 603 0 
L 603 3500 
z
M 603 4863 
L 1178 4863 
L 1178 4134 
L 603 4134 
L 603 4863 
z
" transform="scale(0.015625)"/>
       <path id="DejaVuSans-70" d="M 1159 525 
L 1159 -1331 
L 581 -1331 
L 581 3500 
L 1159 3500 
L 1159 2969 
Q 1341 3281 1617 3432 
Q 1894 3584 2278 3584 
Q 2916 3584 3314 3078 
Q 3713 2572 3713 1747 
Q 3713 922 3314 415 
Q 2916 -91 2278 -91 
Q 1894 -91 1617 61 
Q 1341 213 1159 525 
z
M 3116 1747 
Q 3116 2381 2855 2742 
Q 2594 3103 2138 3103 
Q 1681 3103 1420 2742 
Q 1159 2381 1159 1747 
Q 1159 1113 1420 752 
Q 1681 391 2138 391 
Q 2594 391 2855 752 
Q 3116 1113 3116 1747 
z
" transform="scale(0.015625)"/>
       <path id="DejaVuSans-6c" d="M 603 4863 
L 1178 4863 
L 1178 0 
L 603 0 
L 603 4863 
z
" transform="scale(0.015625)"/>
       <path id="DejaVuSans-6f" d="M 1959 3097 
Q 1497 3097 1228 2736 
Q 959 2375 959 1747 
Q 959 1119 1226 758 
Q 1494 397 1959 397 
Q 2419 397 2687 759 
Q 2956 1122 2956 1747 
Q 2956 2369 2687 2733 
Q 2419 3097 1959 3097 
z
M 1959 3584 
Q 2709 3584 3137 3096 
Q 3566 2609 3566 1747 
Q 3566 888 3137 398 
Q 2709 -91 1959 -91 
Q 1206 -91 779 398 
Q 353 888 353 1747 
Q 353 2609 779 3096 
Q 1206 3584 1959 3584 
z
" transform="scale(0.015625)"/>
       <path id="DejaVuSans-64" d="M 2906 2969 
L 2906 4863 
L 3481 4863 
L 3481 0 
L 2906 0 
L 2906 525 
Q 2725 213 2448 61 
Q 2172 -91 1784 -91 
Q 1150 -91 751 415 
Q 353 922 353 1747 
Q 353 2572 751 3078 
Q 1150 3584 1784 3584 
Q 2172 3584 2448 3432 
Q 2725 3281 2906 2969 
z
M 947 1747 
Q 947 1113 1208 752 
Q 1469 391 1925 391 
Q 2381 391 2643 752 
Q 2906 1113 2906 1747 
Q 2906 2381 2643 2742 
Q 2381 3103 1925 3103 
Q 1469 3103 1208 2742 
Q 947 2381 947 1747 
z
" transform="scale(0.015625)"/>
       <path id="DejaVuSans-20" transform="scale(0.015625)"/>
       <path id="DejaVuSans-4e" d="M 628 4666 
L 1478 4666 
L 3547 763 
L 3547 4666 
L 4159 4666 
L 4159 0 
L 3309 0 
L 1241 3903 
L 1241 0 
L 628 0 
L 628 4666 
z
" transform="scale(0.015625)"/>
       <path id="DejaVuSans-Oblique-65" d="M 3078 2063 
Q 3088 2113 3092 2166 
Q 3097 2219 3097 2272 
Q 3097 2653 2873 2875 
Q 2650 3097 2266 3097 
Q 1838 3097 1509 2826 
Q 1181 2556 1013 2059 
L 3078 2063 
z
M 3578 1613 
L 903 1613 
Q 884 1494 878 1425 
Q 872 1356 872 1306 
Q 872 872 1139 634 
Q 1406 397 1894 397 
Q 2269 397 2603 481 
Q 2938 566 3225 728 
L 3116 159 
Q 2806 34 2476 -28 
Q 2147 -91 1806 -91 
Q 1078 -91 686 257 
Q 294 606 294 1247 
Q 294 1794 489 2264 
Q 684 2734 1063 3103 
Q 1306 3334 1642 3459 
Q 1978 3584 2356 3584 
Q 2950 3584 3301 3228 
Q 3653 2872 3653 2272 
Q 3653 2128 3634 1964 
Q 3616 1800 3578 1613 
z
" transform="scale(0.015625)"/>
      </defs>
      <use xlink:href="#DejaVuSans-44" transform="translate(0 0.015625)"/>
      <use xlink:href="#DejaVuSans-69" transform="translate(77.001953 0.015625)"/>
      <use xlink:href="#DejaVuSans-70" transform="translate(104.785156 0.015625)"/>
      <use xlink:href="#DejaVuSans-6c" transform="translate(168.261719 0.015625)"/>
      <use xlink:href="#DejaVuSans-6f" transform="translate(196.044922 0.015625)"/>
      <use xlink:href="#DejaVuSans-69" transform="translate(257.226562 0.015625)"/>
      <use xlink:href="#DejaVuSans-64" transform="translate(285.009766 0.015625)"/>
      <use xlink:href="#DejaVuSans-20" transform="translate(348.486328 0.015625)"/>
      <use xlink:href="#DejaVuSans-4e" transform="translate(380.273438 0.015625)"/>
      <use xlink:href="#DejaVuSans-Oblique-65" transform="translate(456.035156 -16.390625) scale(0.7)"/>
      <use xlink:href="#DejaVuSans-30" transform="translate(501.835938 0.015625)"/>
     </g>
    </g>
    <g id="text_6">
     <!-- $\times\mathdefault{10^{3}}\mathdefault{}$ -->
     <g transform="translate(188.56 225.887812) scale(0.1 -0.1)">
      <defs>
       <path id="DejaVuSans-d7" d="M 4488 3438 
L 3059 2003 
L 4488 575 
L 4116 197 
L 2681 1631 
L 1247 197 
L 878 575 
L 2303 2003 
L 878 3438 
L 1247 3816 
L 2681 2381 
L 4116 3816 
L 4488 3438 
z
" transform="scale(0.015625)"/>
       <path id="DejaVuSans-31" d="M 794 531 
L 1825 531 
L 1825 4091 
L 703 3866 
L 703 4441 
L 1819 4666 
L 2450 4666 
L 2450 531 
L 3481 531 
L 3481 0 
L 794 0 
L 794 531 
z
" transform="scale(0.015625)"/>
       <path id="DejaVuSans-33" d="M 2597 2516 
Q 3050 2419 3304 2112 
Q 3559 1806 3559 1356 
Q 3559 666 3084 287 
Q 2609 -91 1734 -91 
Q 1441 -91 1130 -33 
Q 819 25 488 141 
L 488 750 
Q 750 597 1062 519 
Q 1375 441 1716 441 
Q 2309 441 2620 675 
Q 2931 909 2931 1356 
Q 2931 1769 2642 2001 
Q 2353 2234 1838 2234 
L 1294 2234 
L 1294 2753 
L 1863 2753 
Q 2328 2753 2575 2939 
Q 2822 3125 2822 3475 
Q 2822 3834 2567 4026 
Q 2313 4219 1838 4219 
Q 1578 4219 1281 4162 
Q 984 4106 628 3988 
L 628 4550 
Q 988 4650 1302 4700 
Q 1616 4750 1894 4750 
Q 2613 4750 3031 4423 
Q 3450 4097 3450 3541 
Q 3450 3153 3228 2886 
Q 3006 2619 2597 2516 
z
" transform="scale(0.015625)"/>
      </defs>
      <use xlink:href="#DejaVuSans-d7" transform="translate(0 0.765625)"/>
      <use xlink:href="#DejaVuSans-31" transform="translate(83.789062 0.765625)"/>
      <use xlink:href="#DejaVuSans-30" transform="translate(147.412109 0.765625)"/>
      <use xlink:href="#DejaVuSans-33" transform="translate(211.992188 39.046875) scale(0.7)"/>
     </g>
    </g>
   </g>
   <g id="matplotlib.axis_2">
    <g id="ytick_1">
     <g id="line2d_5">
      <defs>
       <path id="m96ed6f3dfa" d="M 0 0 
L -6 0 
" style="stroke: #000000; stroke-width: 2"/>
      </defs>
      <g>
       <use xlink:href="#m96ed6f3dfa" x="36" y="164.52" style="stroke: #000000; stroke-width: 2"/>
      </g>
     </g>
     <g id="text_7">
      <!-- $\mathdefault{200}$ -->
      <g transform="translate(-0.24 169.838906) scale(0.14 -0.14)">
       <use xlink:href="#DejaVuSans-32" transform="translate(0 0.78125)"/>
       <use xlink:href="#DejaVuSans-30" transform="translate(63.623047 0.78125)"/>
       <use xlink:href="#DejaVuSans-30" transform="translate(127.246094 0.78125)"/>
      </g>
     </g>
    </g>
    <g id="ytick_2">
     <g id="line2d_6">
      <g>
       <use xlink:href="#m96ed6f3dfa" x="36" y="127.56" style="stroke: #000000; stroke-width: 2"/>
      </g>
     </g>
     <g id="text_8">
      <!-- $\mathdefault{400}$ -->
      <g transform="translate(-0.24 132.878906) scale(0.14 -0.14)">
       <use xlink:href="#DejaVuSans-34" transform="translate(0 0.78125)"/>
       <use xlink:href="#DejaVuSans-30" transform="translate(63.623047 0.78125)"/>
       <use xlink:href="#DejaVuSans-30" transform="translate(127.246094 0.78125)"/>
      </g>
     </g>
    </g>
    <g id="ytick_3">
     <g id="line2d_7">
      <g>
       <use xlink:href="#m96ed6f3dfa" x="36" y="90.6" style="stroke: #000000; stroke-width: 2"/>
      </g>
     </g>
     <g id="text_9">
      <!-- $\mathdefault{600}$ -->
      <g transform="translate(-0.24 95.918906) scale(0.14 -0.14)">
       <use xlink:href="#DejaVuSans-36" transform="translate(0 0.78125)"/>
       <use xlink:href="#DejaVuSans-30" transform="translate(63.623047 0.78125)"/>
       <use xlink:href="#DejaVuSans-30" transform="translate(127.246094 0.78125)"/>
      </g>
     </g>
    </g>
    <g id="ytick_4">
     <g id="line2d_8">
      <g>
       <use xlink:href="#m96ed6f3dfa" x="36" y="53.64" style="stroke: #000000; stroke-width: 2"/>
      </g>
     </g>
     <g id="text_10">
      <!-- $\mathdefault{800}$ -->
      <g transform="translate(-0.24 58.958906) scale(0.14 -0.14)">
       <use xlink:href="#DejaVuSans-38" transform="translate(0 0.78125)"/>
       <use xlink:href="#DejaVuSans-30" transform="translate(63.623047 0.78125)"/>
       <use xlink:href="#DejaVuSans-30" transform="translate(127.246094 0.78125)"/>
      </g>
     </g>
    </g>
    <g id="text_11">
     <!-- Diploid N$_e$2 -->
     <g transform="translate(-8.02 160.02) rotate(-90) scale(0.18 -0.18)">
      <use xlink:href="#DejaVuSans-44" transform="translate(0 0.015625)"/>
      <use xlink:href="#DejaVuSans-69" transform="translate(77.001953 0.015625)"/>
      <use xlink:href="#DejaVuSans-70" transform="translate(104.785156 0.015625)"/>
      <use xlink:href="#DejaVuSans-6c" transform="translate(168.261719 0.015625)"/>
      <use xlink:href="#DejaVuSans-6f" transform="translate(196.044922 0.015625)"/>
      <use xlink:href="#DejaVuSans-69" transform="translate(257.226562 0.015625)"/>
      <use xlink:href="#DejaVuSans-64" transform="translate(285.009766 0.015625)"/>
      <use xlink:href="#DejaVuSans-20" transform="translate(348.486328 0.015625)"/>
      <use xlink:href="#DejaVuSans-4e" transform="translate(380.273438 0.015625)"/>
      <use xlink:href="#DejaVuSans-Oblique-65" transform="translate(456.035156 -16.390625) scale(0.7)"/>
      <use xlink:href="#DejaVuSans-32" transform="translate(501.835938 0.015625)"/>
     </g>
    </g>
    <g id="text_12">
     <!-- $\times\mathdefault{10^{3}}\mathdefault{}$ -->
     <g transform="translate(36 22.92) scale(0.1 -0.1)">
      <use xlink:href="#DejaVuSans-d7" transform="translate(0 0.765625)"/>
      <use xlink:href="#DejaVuSans-31" transform="translate(83.789062 0.765625)"/>
      <use xlink:href="#DejaVuSans-30" transform="translate(147.412109 0.765625)"/>
      <use xlink:href="#DejaVuSans-33" transform="translate(211.992188 39.046875) scale(0.7)"/>
     </g>
    </g>
   </g>
   <g id="patch_3">
    <path d="M 36 192.24 
L 36 25.92 
" style="fill: none; stroke: #000000; stroke-width: 0.8; stroke-linejoin: miter; stroke-linecap: square"/>
   </g>
   <g id="patch_4">
    <path d="M 214.56 192.24 
L 214.56 25.92 
" style="fill: none; stroke: #000000; stroke-width: 0.8; stroke-linejoin: miter; stroke-linecap: square"/>
   </g>
   <g id="patch_5">
    <path d="M 36 192.24 
L 214.56 192.24 
" style="fill: none; stroke: #000000; stroke-width: 0.8; stroke-linejoin: miter; stroke-linecap: square"/>
   </g>
   <g id="patch_6">
    <path d="M 36 25.92 
L 214.56 25.92 
" style="fill: none; stroke: #000000; stroke-width: 0.8; stroke-linejoin: miter; stroke-linecap: square"/>
   </g>
   <g id="text_13">
    <!-- Ne0Ne2-SMC-GT-P2-S4 -->
    <g transform="translate(33.735 10.92) scale(0.16 -0.16)">
     <defs>
      <path id="DejaVuSans-65" d="M 3597 1894 
L 3597 1613 
L 953 1613 
Q 991 1019 1311 708 
Q 1631 397 2203 397 
Q 2534 397 2845 478 
Q 3156 559 3463 722 
L 3463 178 
Q 3153 47 2828 -22 
Q 2503 -91 2169 -91 
Q 1331 -91 842 396 
Q 353 884 353 1716 
Q 353 2575 817 3079 
Q 1281 3584 2069 3584 
Q 2775 3584 3186 3129 
Q 3597 2675 3597 1894 
z
M 3022 2063 
Q 3016 2534 2758 2815 
Q 2500 3097 2075 3097 
Q 1594 3097 1305 2825 
Q 1016 2553 972 2059 
L 3022 2063 
z
" transform="scale(0.015625)"/>
      <path id="DejaVuSans-2d" d="M 313 2009 
L 1997 2009 
L 1997 1497 
L 313 1497 
L 313 2009 
z
" transform="scale(0.015625)"/>
      <path id="DejaVuSans-53" d="M 3425 4513 
L 3425 3897 
Q 3066 4069 2747 4153 
Q 2428 4238 2131 4238 
Q 1616 4238 1336 4038 
Q 1056 3838 1056 3469 
Q 1056 3159 1242 3001 
Q 1428 2844 1947 2747 
L 2328 2669 
Q 3034 2534 3370 2195 
Q 3706 1856 3706 1288 
Q 3706 609 3251 259 
Q 2797 -91 1919 -91 
Q 1588 -91 1214 -16 
Q 841 59 441 206 
L 441 856 
Q 825 641 1194 531 
Q 1563 422 1919 422 
Q 2459 422 2753 634 
Q 3047 847 3047 1241 
Q 3047 1584 2836 1778 
Q 2625 1972 2144 2069 
L 1759 2144 
Q 1053 2284 737 2584 
Q 422 2884 422 3419 
Q 422 4038 858 4394 
Q 1294 4750 2059 4750 
Q 2388 4750 2728 4690 
Q 3069 4631 3425 4513 
z
" transform="scale(0.015625)"/>
      <path id="DejaVuSans-4d" d="M 628 4666 
L 1569 4666 
L 2759 1491 
L 3956 4666 
L 4897 4666 
L 4897 0 
L 4281 0 
L 4281 4097 
L 3078 897 
L 2444 897 
L 1241 4097 
L 1241 0 
L 628 0 
L 628 4666 
z
" transform="scale(0.015625)"/>
      <path id="DejaVuSans-43" d="M 4122 4306 
L 4122 3641 
Q 3803 3938 3442 4084 
Q 3081 4231 2675 4231 
Q 1875 4231 1450 3742 
Q 1025 3253 1025 2328 
Q 1025 1406 1450 917 
Q 1875 428 2675 428 
Q 3081 428 3442 575 
Q 3803 722 4122 1019 
L 4122 359 
Q 3791 134 3420 21 
Q 3050 -91 2638 -91 
Q 1578 -91 968 557 
Q 359 1206 359 2328 
Q 359 3453 968 4101 
Q 1578 4750 2638 4750 
Q 3056 4750 3426 4639 
Q 3797 4528 4122 4306 
z
" transform="scale(0.015625)"/>
      <path id="DejaVuSans-47" d="M 3809 666 
L 3809 1919 
L 2778 1919 
L 2778 2438 
L 4434 2438 
L 4434 434 
Q 4069 175 3628 42 
Q 3188 -91 2688 -91 
Q 1594 -91 976 548 
Q 359 1188 359 2328 
Q 359 3472 976 4111 
Q 1594 4750 2688 4750 
Q 3144 4750 3555 4637 
Q 3966 4525 4313 4306 
L 4313 3634 
Q 3963 3931 3569 4081 
Q 3175 4231 2741 4231 
Q 1884 4231 1454 3753 
Q 1025 3275 1025 2328 
Q 1025 1384 1454 906 
Q 1884 428 2741 428 
Q 3075 428 3337 486 
Q 3600 544 3809 666 
z
" transform="scale(0.015625)"/>
      <path id="DejaVuSans-54" d="M -19 4666 
L 3928 4666 
L 3928 4134 
L 2272 4134 
L 2272 0 
L 1638 0 
L 1638 4134 
L -19 4134 
L -19 4666 
z
" transform="scale(0.015625)"/>
      <path id="DejaVuSans-50" d="M 1259 4147 
L 1259 2394 
L 2053 2394 
Q 2494 2394 2734 2622 
Q 2975 2850 2975 3272 
Q 2975 3691 2734 3919 
Q 2494 4147 2053 4147 
L 1259 4147 
z
M 628 4666 
L 2053 4666 
Q 2838 4666 3239 4311 
Q 3641 3956 3641 3272 
Q 3641 2581 3239 2228 
Q 2838 1875 2053 1875 
L 1259 1875 
L 1259 0 
L 628 0 
L 628 4666 
z
" transform="scale(0.015625)"/>
     </defs>
     <use xlink:href="#DejaVuSans-4e"/>
     <use xlink:href="#DejaVuSans-65" x="74.804688"/>
     <use xlink:href="#DejaVuSans-30" x="136.328125"/>
     <use xlink:href="#DejaVuSans-4e" x="199.951172"/>
     <use xlink:href="#DejaVuSans-65" x="274.755859"/>
     <use xlink:href="#DejaVuSans-32" x="336.279297"/>
     <use xlink:href="#DejaVuSans-2d" x="399.902344"/>
     <use xlink:href="#DejaVuSans-53" x="435.986328"/>
     <use xlink:href="#DejaVuSans-4d" x="499.462891"/>
     <use xlink:href="#DejaVuSans-43" x="585.742188"/>
     <use xlink:href="#DejaVuSans-2d" x="655.566406"/>
     <use xlink:href="#DejaVuSans-47" x="695.275391"/>
     <use xlink:href="#DejaVuSans-54" x="769.140625"/>
     <use xlink:href="#DejaVuSans-2d" x="821.099609"/>
     <use xlink:href="#DejaVuSans-50" x="857.183594"/>
     <use xlink:href="#DejaVuSans-32" x="917.486328"/>
     <use xlink:href="#DejaVuSans-2d" x="981.109375"/>
     <use xlink:href="#DejaVuSans-53" x="1017.193359"/>
     <use xlink:href="#DejaVuSans-34" x="1080.669922"/>
    </g>
   </g>
  </g>
  <g id="axes_2">
   <g id="patch_7">
    <path d="M 225.72 192.24 
L 234.036 192.24 
L 234.036 25.92 
L 225.72 25.92 
z
" style="fill: #ffffff"/>
   </g>
   <g id="QuadMesh_1">
    <path d="M 225.72 192.24 
L 234.036 192.24 
L 234.036 182.456471 
L 225.72 182.456471 
L 225.72 192.24 
" clip-path="url(#pfc9fdeabc5)" style="fill: #440154"/>
    <path d="M 225.72 182.456471 
L 234.036 182.456471 
L 234.036 172.672941 
L 225.72 172.672941 
L 225.72 182.456471 
" clip-path="url(#pfc9fdeabc5)" style="fill: #471164"/>
    <path d="M 225.72 172.672941 
L 234.036 172.672941 
L 234.036 162.889412 
L 225.72 162.889412 
L 225.72 172.672941 
" clip-path="url(#pfc9fdeabc5)" style="fill: #482576"/>
    <path d="M 225.72 162.889412 
L 234.036 162.889412 
L 234.036 153.105882 
L 225.72 153.105882 
L 225.72 162.889412 
" clip-path="url(#pfc9fdeabc5)" style="fill: #443983"/>
    <path d="M 225.72 153.105882 
L 234.036 153.105882 
L 234.036 143.322353 
L 225.72 143.322353 
L 225.72 153.105882 
" clip-path="url(#pfc9fdeabc5)" style="fill: #3e4c8a"/>
    <path d="M 225.72 143.322353 
L 234.036 143.322353 
L 234.036 133.538824 
L 225.72 133.538824 
L 225.72 143.322353 
" clip-path="url(#pfc9fdeabc5)" style="fill: #365d8d"/>
    <path d="M 225.72 133.538824 
L 234.036 133.538824 
L 234.036 123.755294 
L 225.72 123.755294 
L 225.72 133.538824 
" clip-path="url(#pfc9fdeabc5)" style="fill: #2e6d8e"/>
    <path d="M 225.72 123.755294 
L 234.036 123.755294 
L 234.036 113.971765 
L 225.72 113.971765 
L 225.72 123.755294 
" clip-path="url(#pfc9fdeabc5)" style="fill: #297b8e"/>
    <path d="M 225.72 113.971765 
L 234.036 113.971765 
L 234.036 104.188235 
L 225.72 104.188235 
L 225.72 113.971765 
" clip-path="url(#pfc9fdeabc5)" style="fill: #238a8d"/>
    <path d="M 225.72 104.188235 
L 234.036 104.188235 
L 234.036 94.404706 
L 225.72 94.404706 
L 225.72 104.188235 
" clip-path="url(#pfc9fdeabc5)" style="fill: #1f998a"/>
    <path d="M 225.72 94.404706 
L 234.036 94.404706 
L 234.036 84.621176 
L 225.72 84.621176 
L 225.72 94.404706 
" clip-path="url(#pfc9fdeabc5)" style="fill: #22a884"/>
    <path d="M 225.72 84.621176 
L 234.036 84.621176 
L 234.036 74.837647 
L 225.72 74.837647 
L 225.72 84.621176 
" clip-path="url(#pfc9fdeabc5)" style="fill: #34b679"/>
    <path d="M 225.72 74.837647 
L 234.036 74.837647 
L 234.036 65.054118 
L 225.72 65.054118 
L 225.72 74.837647 
" clip-path="url(#pfc9fdeabc5)" style="fill: #4ec36b"/>
    <path d="M 225.72 65.054118 
L 234.036 65.054118 
L 234.036 55.270588 
L 225.72 55.270588 
L 225.72 65.054118 
" clip-path="url(#pfc9fdeabc5)" style="fill: #70cf57"/>
    <path d="M 225.72 55.270588 
L 234.036 55.270588 
L 234.036 45.487059 
L 225.72 45.487059 
L 225.72 55.270588 
" clip-path="url(#pfc9fdeabc5)" style="fill: #98d83e"/>
    <path d="M 225.72 45.487059 
L 234.036 45.487059 
L 234.036 35.703529 
L 225.72 35.703529 
L 225.72 45.487059 
" clip-path="url(#pfc9fdeabc5)" style="fill: #c2df23"/>
    <path d="M 225.72 35.703529 
L 234.036 35.703529 
L 234.036 25.92 
L 225.72 25.92 
L 225.72 35.703529 
" clip-path="url(#pfc9fdeabc5)" style="fill: #ece51b"/>
   </g>
   <g id="matplotlib.axis_3"/>
   <g id="matplotlib.axis_4">
    <g id="ytick_5">
     <g id="line2d_9">
      <defs>
       <path id="m4d12f498a7" d="M 0 0 
L 3.5 0 
" style="stroke: #000000; stroke-width: 0.8"/>
      </defs>
      <g>
       <use xlink:href="#m4d12f498a7" x="234.036" y="182.456471" style="stroke: #000000; stroke-width: 0.8"/>
      </g>
     </g>
     <g id="text_14">
      <!-- $\mathdefault{336.718}$ -->
      <g transform="translate(241.036 186.255689) scale(0.1 -0.1)">
       <defs>
        <path id="DejaVuSans-2212" d="M 678 2272 
L 4684 2272 
L 4684 1741 
L 678 1741 
L 678 2272 
z
" transform="scale(0.015625)"/>
        <path id="DejaVuSans-2e" d="M 684 794 
L 1344 794 
L 1344 0 
L 684 0 
L 684 794 
z
" transform="scale(0.015625)"/>
        <path id="DejaVuSans-37" d="M 525 4666 
L 3525 4666 
L 3525 4397 
L 1831 0 
L 1172 0 
L 2766 4134 
L 525 4134 
L 525 4666 
z
" transform="scale(0.015625)"/>
       </defs>
       <use xlink:href="#DejaVuSans-2212" transform="translate(0 0.78125)"/>
       <use xlink:href="#DejaVuSans-33" transform="translate(83.789062 0.78125)"/>
       <use xlink:href="#DejaVuSans-33" transform="translate(147.412109 0.78125)"/>
       <use xlink:href="#DejaVuSans-36" transform="translate(211.035156 0.78125)"/>
       <use xlink:href="#DejaVuSans-2e" transform="translate(274.658203 0.78125)"/>
       <use xlink:href="#DejaVuSans-37" transform="translate(298.695312 0.78125)"/>
       <use xlink:href="#DejaVuSans-31" transform="translate(362.318359 0.78125)"/>
       <use xlink:href="#DejaVuSans-38" transform="translate(425.941406 0.78125)"/>
      </g>
     </g>
    </g>
    <g id="ytick_6">
     <g id="line2d_10">
      <g>
       <use xlink:href="#m4d12f498a7" x="234.036" y="162.889412" style="stroke: #000000; stroke-width: 0.8"/>
      </g>
     </g>
     <g id="text_15">
      <!-- $\mathdefault{336.706}$ -->
      <g transform="translate(241.036 166.688631) scale(0.1 -0.1)">
       <use xlink:href="#DejaVuSans-2212" transform="translate(0 0.78125)"/>
       <use xlink:href="#DejaVuSans-33" transform="translate(83.789062 0.78125)"/>
       <use xlink:href="#DejaVuSans-33" transform="translate(147.412109 0.78125)"/>
       <use xlink:href="#DejaVuSans-36" transform="translate(211.035156 0.78125)"/>
       <use xlink:href="#DejaVuSans-2e" transform="translate(274.658203 0.78125)"/>
       <use xlink:href="#DejaVuSans-37" transform="translate(298.695312 0.78125)"/>
       <use xlink:href="#DejaVuSans-30" transform="translate(362.318359 0.78125)"/>
       <use xlink:href="#DejaVuSans-36" transform="translate(425.941406 0.78125)"/>
      </g>
     </g>
    </g>
    <g id="ytick_7">
     <g id="line2d_11">
      <g>
       <use xlink:href="#m4d12f498a7" x="234.036" y="143.322353" style="stroke: #000000; stroke-width: 0.8"/>
      </g>
     </g>
     <g id="text_16">
      <!-- $\mathdefault{336.694}$ -->
      <g transform="translate(241.036 147.121572) scale(0.1 -0.1)">
       <defs>
        <path id="DejaVuSans-39" d="M 703 97 
L 703 672 
Q 941 559 1184 500 
Q 1428 441 1663 441 
Q 2288 441 2617 861 
Q 2947 1281 2994 2138 
Q 2813 1869 2534 1725 
Q 2256 1581 1919 1581 
Q 1219 1581 811 2004 
Q 403 2428 403 3163 
Q 403 3881 828 4315 
Q 1253 4750 1959 4750 
Q 2769 4750 3195 4129 
Q 3622 3509 3622 2328 
Q 3622 1225 3098 567 
Q 2575 -91 1691 -91 
Q 1453 -91 1209 -44 
Q 966 3 703 97 
z
M 1959 2075 
Q 2384 2075 2632 2365 
Q 2881 2656 2881 3163 
Q 2881 3666 2632 3958 
Q 2384 4250 1959 4250 
Q 1534 4250 1286 3958 
Q 1038 3666 1038 3163 
Q 1038 2656 1286 2365 
Q 1534 2075 1959 2075 
z
" transform="scale(0.015625)"/>
       </defs>
       <use xlink:href="#DejaVuSans-2212" transform="translate(0 0.78125)"/>
       <use xlink:href="#DejaVuSans-33" transform="translate(83.789062 0.78125)"/>
       <use xlink:href="#DejaVuSans-33" transform="translate(147.412109 0.78125)"/>
       <use xlink:href="#DejaVuSans-36" transform="translate(211.035156 0.78125)"/>
       <use xlink:href="#DejaVuSans-2e" transform="translate(274.658203 0.78125)"/>
       <use xlink:href="#DejaVuSans-36" transform="translate(306.445312 0.78125)"/>
       <use xlink:href="#DejaVuSans-39" transform="translate(370.068359 0.78125)"/>
       <use xlink:href="#DejaVuSans-34" transform="translate(433.691406 0.78125)"/>
      </g>
     </g>
    </g>
    <g id="ytick_8">
     <g id="line2d_12">
      <g>
       <use xlink:href="#m4d12f498a7" x="234.036" y="123.755294" style="stroke: #000000; stroke-width: 0.8"/>
      </g>
     </g>
     <g id="text_17">
      <!-- $\mathdefault{336.682}$ -->
      <g transform="translate(241.036 127.554513) scale(0.1 -0.1)">
       <use xlink:href="#DejaVuSans-2212" transform="translate(0 0.78125)"/>
       <use xlink:href="#DejaVuSans-33" transform="translate(83.789062 0.78125)"/>
       <use xlink:href="#DejaVuSans-33" transform="translate(147.412109 0.78125)"/>
       <use xlink:href="#DejaVuSans-36" transform="translate(211.035156 0.78125)"/>
       <use xlink:href="#DejaVuSans-2e" transform="translate(274.658203 0.78125)"/>
       <use xlink:href="#DejaVuSans-36" transform="translate(306.445312 0.78125)"/>
       <use xlink:href="#DejaVuSans-38" transform="translate(370.068359 0.78125)"/>
       <use xlink:href="#DejaVuSans-32" transform="translate(433.691406 0.78125)"/>
      </g>
     </g>
    </g>
    <g id="ytick_9">
     <g id="line2d_13">
      <g>
       <use xlink:href="#m4d12f498a7" x="234.036" y="104.188235" style="stroke: #000000; stroke-width: 0.8"/>
      </g>
     </g>
     <g id="text_18">
      <!-- $\mathdefault{336.670}$ -->
      <g transform="translate(241.036 107.987454) scale(0.1 -0.1)">
       <use xlink:href="#DejaVuSans-2212" transform="translate(0 0.78125)"/>
       <use xlink:href="#DejaVuSans-33" transform="translate(83.789062 0.78125)"/>
       <use xlink:href="#DejaVuSans-33" transform="translate(147.412109 0.78125)"/>
       <use xlink:href="#DejaVuSans-36" transform="translate(211.035156 0.78125)"/>
       <use xlink:href="#DejaVuSans-2e" transform="translate(274.658203 0.78125)"/>
       <use xlink:href="#DejaVuSans-36" transform="translate(306.445312 0.78125)"/>
       <use xlink:href="#DejaVuSans-37" transform="translate(370.068359 0.78125)"/>
       <use xlink:href="#DejaVuSans-30" transform="translate(433.691406 0.78125)"/>
      </g>
     </g>
    </g>
    <g id="ytick_10">
     <g id="line2d_14">
      <g>
       <use xlink:href="#m4d12f498a7" x="234.036" y="84.621176" style="stroke: #000000; stroke-width: 0.8"/>
      </g>
     </g>
     <g id="text_19">
      <!-- $\mathdefault{336.658}$ -->
      <g transform="translate(241.036 88.420395) scale(0.1 -0.1)">
       <defs>
        <path id="DejaVuSans-35" d="M 691 4666 
L 3169 4666 
L 3169 4134 
L 1269 4134 
L 1269 2991 
Q 1406 3038 1543 3061 
Q 1681 3084 1819 3084 
Q 2600 3084 3056 2656 
Q 3513 2228 3513 1497 
Q 3513 744 3044 326 
Q 2575 -91 1722 -91 
Q 1428 -91 1123 -41 
Q 819 9 494 109 
L 494 744 
Q 775 591 1075 516 
Q 1375 441 1709 441 
Q 2250 441 2565 725 
Q 2881 1009 2881 1497 
Q 2881 1984 2565 2268 
Q 2250 2553 1709 2553 
Q 1456 2553 1204 2497 
Q 953 2441 691 2322 
L 691 4666 
z
" transform="scale(0.015625)"/>
       </defs>
       <use xlink:href="#DejaVuSans-2212" transform="translate(0 0.78125)"/>
       <use xlink:href="#DejaVuSans-33" transform="translate(83.789062 0.78125)"/>
       <use xlink:href="#DejaVuSans-33" transform="translate(147.412109 0.78125)"/>
       <use xlink:href="#DejaVuSans-36" transform="translate(211.035156 0.78125)"/>
       <use xlink:href="#DejaVuSans-2e" transform="translate(274.658203 0.78125)"/>
       <use xlink:href="#DejaVuSans-36" transform="translate(306.445312 0.78125)"/>
       <use xlink:href="#DejaVuSans-35" transform="translate(370.068359 0.78125)"/>
       <use xlink:href="#DejaVuSans-38" transform="translate(433.691406 0.78125)"/>
      </g>
     </g>
    </g>
    <g id="ytick_11">
     <g id="line2d_15">
      <g>
       <use xlink:href="#m4d12f498a7" x="234.036" y="65.054118" style="stroke: #000000; stroke-width: 0.8"/>
      </g>
     </g>
     <g id="text_20">
      <!-- $\mathdefault{336.646}$ -->
      <g transform="translate(241.036 68.853336) scale(0.1 -0.1)">
       <use xlink:href="#DejaVuSans-2212" transform="translate(0 0.78125)"/>
       <use xlink:href="#DejaVuSans-33" transform="translate(83.789062 0.78125)"/>
       <use xlink:href="#DejaVuSans-33" transform="translate(147.412109 0.78125)"/>
       <use xlink:href="#DejaVuSans-36" transform="translate(211.035156 0.78125)"/>
       <use xlink:href="#DejaVuSans-2e" transform="translate(274.658203 0.78125)"/>
       <use xlink:href="#DejaVuSans-36" transform="translate(306.445312 0.78125)"/>
       <use xlink:href="#DejaVuSans-34" transform="translate(370.068359 0.78125)"/>
       <use xlink:href="#DejaVuSans-36" transform="translate(433.691406 0.78125)"/>
      </g>
     </g>
    </g>
    <g id="ytick_12">
     <g id="line2d_16">
      <g>
       <use xlink:href="#m4d12f498a7" x="234.036" y="45.487059" style="stroke: #000000; stroke-width: 0.8"/>
      </g>
     </g>
     <g id="text_21">
      <!-- $\mathdefault{336.634}$ -->
      <g transform="translate(241.036 49.286278) scale(0.1 -0.1)">
       <use xlink:href="#DejaVuSans-2212" transform="translate(0 0.78125)"/>
       <use xlink:href="#DejaVuSans-33" transform="translate(83.789062 0.78125)"/>
       <use xlink:href="#DejaVuSans-33" transform="translate(147.412109 0.78125)"/>
       <use xlink:href="#DejaVuSans-36" transform="translate(211.035156 0.78125)"/>
       <use xlink:href="#DejaVuSans-2e" transform="translate(274.658203 0.78125)"/>
       <use xlink:href="#DejaVuSans-36" transform="translate(306.445312 0.78125)"/>
       <use xlink:href="#DejaVuSans-33" transform="translate(370.068359 0.78125)"/>
       <use xlink:href="#DejaVuSans-34" transform="translate(433.691406 0.78125)"/>
      </g>
     </g>
    </g>
    <g id="ytick_13">
     <g id="line2d_17">
      <g>
       <use xlink:href="#m4d12f498a7" x="234.036" y="25.92" style="stroke: #000000; stroke-width: 0.8"/>
      </g>
     </g>
     <g id="text_22">
      <!-- $\mathdefault{336.622}$ -->
      <g transform="translate(241.036 29.719219) scale(0.1 -0.1)">
       <use xlink:href="#DejaVuSans-2212" transform="translate(0 0.78125)"/>
       <use xlink:href="#DejaVuSans-33" transform="translate(83.789062 0.78125)"/>
       <use xlink:href="#DejaVuSans-33" transform="translate(147.412109 0.78125)"/>
       <use xlink:href="#DejaVuSans-36" transform="translate(211.035156 0.78125)"/>
       <use xlink:href="#DejaVuSans-2e" transform="translate(274.658203 0.78125)"/>
       <use xlink:href="#DejaVuSans-36" transform="translate(306.445312 0.78125)"/>
       <use xlink:href="#DejaVuSans-32" transform="translate(370.068359 0.78125)"/>
       <use xlink:href="#DejaVuSans-32" transform="translate(433.691406 0.78125)"/>
      </g>
     </g>
    </g>
    <g id="text_23">
     <!-- log likelihood -->
     <g transform="translate(303.954125 148.704375) rotate(-90) scale(0.12 -0.12)">
      <defs>
       <path id="DejaVuSans-67" d="M 2906 1791 
Q 2906 2416 2648 2759 
Q 2391 3103 1925 3103 
Q 1463 3103 1205 2759 
Q 947 2416 947 1791 
Q 947 1169 1205 825 
Q 1463 481 1925 481 
Q 2391 481 2648 825 
Q 2906 1169 2906 1791 
z
M 3481 434 
Q 3481 -459 3084 -895 
Q 2688 -1331 1869 -1331 
Q 1566 -1331 1297 -1286 
Q 1028 -1241 775 -1147 
L 775 -588 
Q 1028 -725 1275 -790 
Q 1522 -856 1778 -856 
Q 2344 -856 2625 -561 
Q 2906 -266 2906 331 
L 2906 616 
Q 2728 306 2450 153 
Q 2172 0 1784 0 
Q 1141 0 747 490 
Q 353 981 353 1791 
Q 353 2603 747 3093 
Q 1141 3584 1784 3584 
Q 2172 3584 2450 3431 
Q 2728 3278 2906 2969 
L 2906 3500 
L 3481 3500 
L 3481 434 
z
" transform="scale(0.015625)"/>
       <path id="DejaVuSans-6b" d="M 581 4863 
L 1159 4863 
L 1159 1991 
L 2875 3500 
L 3609 3500 
L 1753 1863 
L 3688 0 
L 2938 0 
L 1159 1709 
L 1159 0 
L 581 0 
L 581 4863 
z
" transform="scale(0.015625)"/>
       <path id="DejaVuSans-68" d="M 3513 2113 
L 3513 0 
L 2938 0 
L 2938 2094 
Q 2938 2591 2744 2837 
Q 2550 3084 2163 3084 
Q 1697 3084 1428 2787 
Q 1159 2491 1159 1978 
L 1159 0 
L 581 0 
L 581 4863 
L 1159 4863 
L 1159 2956 
Q 1366 3272 1645 3428 
Q 1925 3584 2291 3584 
Q 2894 3584 3203 3211 
Q 3513 2838 3513 2113 
z
" transform="scale(0.015625)"/>
      </defs>
      <use xlink:href="#DejaVuSans-6c"/>
      <use xlink:href="#DejaVuSans-6f" x="27.783203"/>
      <use xlink:href="#DejaVuSans-67" x="88.964844"/>
      <use xlink:href="#DejaVuSans-20" x="152.441406"/>
      <use xlink:href="#DejaVuSans-6c" x="184.228516"/>
      <use xlink:href="#DejaVuSans-69" x="212.011719"/>
      <use xlink:href="#DejaVuSans-6b" x="239.794922"/>
      <use xlink:href="#DejaVuSans-65" x="294.080078"/>
      <use xlink:href="#DejaVuSans-6c" x="355.603516"/>
      <use xlink:href="#DejaVuSans-69" x="383.386719"/>
      <use xlink:href="#DejaVuSans-68" x="411.169922"/>
      <use xlink:href="#DejaVuSans-6f" x="474.548828"/>
      <use xlink:href="#DejaVuSans-6f" x="535.730469"/>
      <use xlink:href="#DejaVuSans-64" x="596.912109"/>
     </g>
    </g>
    <g id="text_24">
     <!-- $\times\mathdefault{10^{3}}\mathdefault{}$ -->
     <g transform="translate(208.036 22.92) scale(0.1 -0.1)">
      <use xlink:href="#DejaVuSans-d7" transform="translate(0 0.765625)"/>
      <use xlink:href="#DejaVuSans-31" transform="translate(83.789062 0.765625)"/>
      <use xlink:href="#DejaVuSans-30" transform="translate(147.412109 0.765625)"/>
      <use xlink:href="#DejaVuSans-33" transform="translate(211.992188 39.046875) scale(0.7)"/>
     </g>
    </g>
   </g>
   <g id="LineCollection_1"/>
   <g id="patch_8">
    <path d="M 225.72 192.24 
L 229.878 192.24 
L 234.036 192.24 
L 234.036 25.92 
L 229.878 25.92 
L 225.72 25.92 
L 225.72 192.24 
z
" style="fill: none; stroke: #000000; stroke-width: 0.8; stroke-linejoin: miter; stroke-linecap: square"/>
   </g>
  </g>
 </g>
 <defs>
  <clipPath id="pa0837d099d">
   <rect x="36" y="25.92" width="178.56" height="166.32"/>
  </clipPath>
  <clipPath id="pfc9fdeabc5">
   <rect x="225.72" y="25.92" width="8.316" height="166.32"/>
  </clipPath>
 </defs>
</svg>
