<?xml version="1.0" encoding="utf-8" standalone="no"?>
<!DOCTYPE svg PUBLIC "-//W3C//DTD SVG 1.1//EN"
  "http://www.w3.org/Graphics/SVG/1.1/DTD/svg11.dtd">
<svg xmlns:xlink="http://www.w3.org/1999/xlink" width="288pt" height="216pt" viewBox="0 0 288 216" xmlns="http://www.w3.org/2000/svg" version="1.1">
 <metadata>
  <rdf:RDF xmlns:dc="http://purl.org/dc/elements/1.1/" xmlns:cc="http://creativecommons.org/ns#" xmlns:rdf="http://www.w3.org/1999/02/22-rdf-syntax-ns#">
   <cc:Work>
    <dc:type rdf:resource="http://purl.org/dc/dcmitype/StillImage"/>
    <dc:date>2023-08-07T19:56:39.687137</dc:date>
    <dc:format>image/svg+xml</dc:format>
    <dc:creator>
     <cc:Agent>
      <dc:title>Matplotlib v3.7.1, https://matplotlib.org/</dc:title>
     </cc:Agent>
    </dc:creator>
   </cc:Work>
  </rdf:RDF>
 </metadata>
 <defs>
  <style type="text/css">*{stroke-linejoin: round; stroke-linecap: butt}</style>
 </defs>
 <g id="figure_1">
  <g id="patch_1">
   <path d="M 0 216 
L 288 216 
L 288 0 
L 0 0 
z
" style="fill: #ffffff"/>
  </g>
  <g id="axes_1">
   <g id="patch_2">
    <path d="M 36 192.24 
L 214.56 192.24 
L 214.56 25.92 
L 36 25.92 
z
" style="fill: #ffffff"/>
   </g>
   <g id="PathCollection_1">
    <path d="M 36 186.696 
L 36 181.152 
L 36 175.608 
L 36 170.064 
L 36 164.52 
L 36 158.976 
L 36 153.432 
L 36 147.888 
L 36 142.344 
L 36 136.8 
L 36 131.256 
L 36 125.712 
L 36 120.168 
L 36 114.624 
L 36 109.08 
L 36 103.536 
L 36 97.992 
L 36 92.448 
L 36 86.904 
L 36 81.36 
L 36 75.816 
L 36 70.272 
L 36 64.728 
L 36 59.184 
L 36 53.64 
L 36 48.096 
L 36 42.552 
L 36 37.008 
L 36 31.464 
L 36 25.92 
L 36.008598 25.92 
L 36.008131 31.464 
L 36.007709 37.008 
L 36.007328 42.552 
L 36.006983 48.096 
L 36.00667 53.64 
L 36.006386 59.184 
L 36.00613 64.728 
L 36.005899 70.272 
L 36.005692 75.816 
L 36.005508 81.36 
L 36.005348 86.904 
L 36.005211 92.448 
L 36.0051 97.992 
L 36.005016 103.536 
L 36.004963 109.08 
L 36.004949 114.624 
L 36.004981 120.168 
L 36.005078 125.712 
L 36.005267 131.256 
L 36.005599 136.8 
L 36.006177 142.344 
L 36.00725 147.888 
L 36.009586 153.432 
L 36.017344 158.976 
L 41.952 164.503845 
L 41.9578 164.52 
L 41.962656 170.064 
L 47.904 175.598075 
L 47.913838 175.608 
L 53.856 181.142836 
L 53.888688 181.152 
L 59.808 186.665552 
L 65.76 186.685076 
L 71.712 186.688171 
L 77.664 186.689266 
L 83.616 186.689691 
L 89.568 186.689787 
L 95.52 186.689672 
L 101.472 186.689392 
L 107.424 186.688956 
L 113.376 186.68835 
L 119.328 186.687539 
L 125.28 186.686458 
L 131.232 186.684995 
L 137.184 186.682951 
L 143.136 186.67994 
L 149.088 186.67512 
L 155.04 186.666247 
L 160.992 186.644681 
L 166.944 186.516463 
L 172.703251 181.152 
L 172.896 181.137952 
L 178.848 181.134265 
L 184.8 181.128169 
L 190.752 181.116177 
L 196.704 181.081784 
L 202.656 180.085972 
L 207.46352 175.608 
L 208.608 175.532328 
L 214.478759 170.064 
L 214.474169 164.52 
L 208.608 159.055947 
L 208.518664 158.976 
L 202.656 153.515212 
L 202.408248 153.432 
L 196.704 148.118769 
L 190.752 147.934686 
L 190.658108 147.888 
L 184.8 142.431455 
L 179.504256 142.344 
L 178.848 141.732729 
L 172.896 136.848605 
L 172.798237 136.8 
L 166.944 131.347062 
L 166.537917 131.256 
L 160.992 126.090247 
L 155.04 125.749294 
L 154.991198 125.712 
L 149.088 120.213457 
L 149.033276 120.168 
L 143.136 114.674973 
L 143.082293 114.624 
L 137.184 109.130025 
L 137.137997 109.08 
L 131.232 103.57885 
L 131.195993 103.536 
L 131.00123 97.992 
L 125.28 92.662951 
L 125.211477 92.448 
L 119.328 86.967826 
L 119.29218 86.904 
L 119.195319 81.36 
L 113.376 75.939586 
L 113.336137 75.816 
L 113.221656 70.272 
L 107.424 64.871764 
L 107.388411 64.728 
L 107.334349 59.184 
L 101.472 53.723506 
L 101.444672 53.64 
L 101.424802 48.096 
L 101.312347 42.552 
L 95.52 37.156709 
L 95.492277 37.008 
L 95.475576 31.464 
L 95.413156 25.92 
L 95.52 25.92 
L 101.472 25.92 
L 107.424 25.92 
L 113.376 25.92 
L 119.328 25.92 
L 125.28 25.92 
L 131.232 25.92 
L 137.184 25.92 
L 143.136 25.92 
L 149.088 25.92 
L 155.04 25.92 
L 160.992 25.92 
L 166.944 25.92 
L 172.896 25.92 
L 178.848 25.92 
L 184.8 25.92 
L 190.752 25.92 
L 196.704 25.92 
L 202.656 25.92 
L 208.608 25.92 
L 214.56 25.92 
L 214.56 31.464 
L 214.56 37.008 
L 214.56 42.552 
L 214.56 48.096 
L 214.56 53.64 
L 214.56 59.184 
L 214.56 64.728 
L 214.56 70.272 
L 214.56 75.816 
L 214.56 81.36 
L 214.56 86.904 
L 214.56 92.448 
L 214.56 97.992 
L 214.56 103.536 
L 214.56 109.08 
L 214.56 114.624 
L 214.56 120.168 
L 214.56 125.712 
L 214.56 131.256 
L 214.56 136.8 
L 214.56 142.344 
L 214.56 147.888 
L 214.56 153.432 
L 214.56 158.976 
L 214.56 164.52 
L 214.56 170.064 
L 214.56 175.608 
L 214.56 181.152 
L 214.56 186.696 
L 214.56 192.24 
L 208.608 192.24 
L 202.656 192.24 
L 196.704 192.24 
L 190.752 192.24 
L 184.8 192.24 
L 178.848 192.24 
L 172.896 192.24 
L 166.944 192.24 
L 160.992 192.24 
L 155.04 192.24 
L 149.088 192.24 
L 143.136 192.24 
L 137.184 192.24 
L 131.232 192.24 
L 125.28 192.24 
L 119.328 192.24 
L 113.376 192.24 
L 107.424 192.24 
L 101.472 192.24 
L 95.52 192.24 
L 89.568 192.24 
L 83.616 192.24 
L 77.664 192.24 
L 71.712 192.24 
L 65.76 192.24 
L 59.808 192.24 
L 53.856 192.24 
L 47.904 192.24 
L 41.952 192.24 
L 36 192.24 
z
" clip-path="url(#pfbfdf9bb82)" style="fill: #440154"/>
   </g>
   <g id="PathCollection_2">
    <path d="M 36.017344 158.976 
L 36.009586 153.432 
L 36.00725 147.888 
L 36.006177 142.344 
L 36.005599 136.8 
L 36.005267 131.256 
L 36.005078 125.712 
L 36.004981 120.168 
L 36.004949 114.624 
L 36.004963 109.08 
L 36.005016 103.536 
L 36.0051 97.992 
L 36.005211 92.448 
L 36.005348 86.904 
L 36.005508 81.36 
L 36.005692 75.816 
L 36.005899 70.272 
L 36.00613 64.728 
L 36.006386 59.184 
L 36.00667 53.64 
L 36.006983 48.096 
L 36.007328 42.552 
L 36.007709 37.008 
L 36.008131 31.464 
L 36.008598 25.92 
L 37.355274 25.92 
L 37.28164 31.464 
L 37.215215 37.008 
L 37.155145 42.552 
L 37.100734 48.096 
L 37.051414 53.64 
L 37.006725 59.184 
L 36.966307 64.728 
L 36.929881 70.272 
L 36.897254 75.816 
L 36.868313 81.36 
L 36.843036 86.904 
L 36.821504 92.448 
L 36.803924 97.992 
L 36.790679 103.536 
L 36.782392 109.08 
L 36.780053 114.624 
L 36.785234 120.168 
L 36.800502 125.712 
L 36.830246 131.256 
L 36.882519 136.8 
L 36.973711 142.344 
L 37.142875 147.888 
L 37.51111 153.432 
L 38.733957 158.976 
L 41.952 161.973451 
L 42.866216 164.52 
L 43.631691 170.064 
L 47.904 174.043449 
L 49.454852 175.608 
L 53.856 179.707457 
L 59.008774 181.152 
L 59.808 181.89644 
L 65.76 184.973955 
L 71.712 185.461935 
L 77.664 185.63447 
L 83.616 185.701496 
L 89.568 185.716593 
L 95.52 185.69857 
L 101.472 185.65442 
L 107.424 185.585636 
L 113.376 185.490105 
L 119.328 185.362234 
L 125.28 185.191836 
L 131.232 184.961273 
L 137.184 184.639046 
L 143.136 184.164408 
L 149.088 183.404684 
L 155.04 182.005989 
L 157.221674 181.152 
L 160.992 180.549958 
L 166.944 179.58297 
L 172.896 178.937618 
L 178.848 178.356411 
L 184.8 177.395444 
L 190.532372 175.608 
L 190.752 175.505737 
L 196.704 172.702872 
L 202.083346 170.064 
L 202.151335 164.52 
L 196.704 159.191725 
L 196.500624 158.976 
L 190.752 155.13449 
L 188.391097 153.432 
L 184.8 151.294322 
L 179.476869 147.888 
L 178.848 147.51981 
L 172.896 143.817747 
L 170.682846 142.344 
L 166.944 139.948566 
L 162.352889 136.8 
L 160.992 135.873747 
L 155.04 131.552391 
L 154.656375 131.256 
L 149.088 126.903404 
L 147.659927 125.712 
L 143.136 121.841748 
L 141.300007 120.168 
L 137.184 116.283626 
L 135.531132 114.624 
L 131.232 110.124158 
L 130.292865 109.08 
L 125.556119 103.536 
L 125.28 103.23126 
L 121.221724 97.992 
L 119.328 95.41383 
L 117.26694 92.448 
L 113.681605 86.904 
L 113.376 86.514077 
L 110.30797 81.36 
L 107.424 76.219601 
L 107.208183 75.816 
L 104.380001 70.272 
L 101.814021 64.728 
L 101.472 64.19971 
L 99.264766 59.184 
L 97.164147 53.64 
L 95.52 50.002302 
L 94.791747 48.096 
L 92.771774 42.552 
L 91.149947 37.008 
L 89.568 33.088541 
L 89.045471 31.464 
L 87.339608 25.92 
L 89.568 25.92 
L 95.413156 25.92 
L 95.475576 31.464 
L 95.492277 37.008 
L 95.52 37.156709 
L 101.312347 42.552 
L 101.424802 48.096 
L 101.444672 53.64 
L 101.472 53.723506 
L 107.334349 59.184 
L 107.388411 64.728 
L 107.424 64.871764 
L 113.221656 70.272 
L 113.336137 75.816 
L 113.376 75.939586 
L 119.195319 81.36 
L 119.29218 86.904 
L 119.328 86.967826 
L 125.211477 92.448 
L 125.28 92.662951 
L 131.00123 97.992 
L 131.195993 103.536 
L 131.232 103.57885 
L 137.137997 109.08 
L 137.184 109.130025 
L 143.082293 114.624 
L 143.136 114.674973 
L 149.033276 120.168 
L 149.088 120.213457 
L 154.991198 125.712 
L 155.04 125.749294 
L 160.992 126.090247 
L 166.537917 131.256 
L 166.944 131.347062 
L 172.798237 136.8 
L 172.896 136.848605 
L 178.848 141.732729 
L 179.504256 142.344 
L 184.8 142.431455 
L 190.658108 147.888 
L 190.752 147.934686 
L 196.704 148.118769 
L 202.408248 153.432 
L 202.656 153.515212 
L 208.518664 158.976 
L 208.608 159.055947 
L 214.474169 164.52 
L 214.478759 170.064 
L 208.608 175.532328 
L 207.46352 175.608 
L 202.656 180.085972 
L 196.704 181.081784 
L 190.752 181.116177 
L 184.8 181.128169 
L 178.848 181.134265 
L 172.896 181.137952 
L 172.703251 181.152 
L 166.944 186.516463 
L 160.992 186.644681 
L 155.04 186.666247 
L 149.088 186.67512 
L 143.136 186.67994 
L 137.184 186.682951 
L 131.232 186.684995 
L 125.28 186.686458 
L 119.328 186.687539 
L 113.376 186.68835 
L 107.424 186.688956 
L 101.472 186.689392 
L 95.52 186.689672 
L 89.568 186.689787 
L 83.616 186.689691 
L 77.664 186.689266 
L 71.712 186.688171 
L 65.76 186.685076 
L 59.808 186.665552 
L 53.888688 181.152 
L 53.856 181.142836 
L 47.913838 175.608 
L 47.904 175.598075 
L 41.962656 170.064 
L 41.9578 164.52 
L 41.952 164.503845 
z
" clip-path="url(#pfbfdf9bb82)" style="fill: #470d60"/>
   </g>
   <g id="PathCollection_3">
    <path d="M 38.733957 158.976 
L 37.51111 153.432 
L 37.142875 147.888 
L 36.973711 142.344 
L 36.882519 136.8 
L 36.830246 131.256 
L 36.800502 125.712 
L 36.785234 120.168 
L 36.780053 114.624 
L 36.782392 109.08 
L 36.790679 103.536 
L 36.803924 97.992 
L 36.821504 92.448 
L 36.843036 86.904 
L 36.868313 81.36 
L 36.897254 75.816 
L 36.929881 70.272 
L 36.966307 64.728 
L 37.006725 59.184 
L 37.051414 53.64 
L 37.100734 48.096 
L 37.155145 42.552 
L 37.215215 37.008 
L 37.28164 31.464 
L 37.355274 25.92 
L 38.701951 25.92 
L 38.555149 31.464 
L 38.42272 37.008 
L 38.302963 42.552 
L 38.194485 48.096 
L 38.096157 53.64 
L 38.007064 59.184 
L 37.926484 64.728 
L 37.853864 70.272 
L 37.788816 75.816 
L 37.731118 81.36 
L 37.680725 86.904 
L 37.637796 92.448 
L 37.602749 97.992 
L 37.576343 103.536 
L 37.559821 109.08 
L 37.555157 114.624 
L 37.565486 120.168 
L 37.595926 125.712 
L 37.655226 131.256 
L 37.75944 136.8 
L 37.941246 142.344 
L 38.278499 147.888 
L 39.012634 153.432 
L 41.450571 158.976 
L 41.952 159.443057 
L 43.774632 164.52 
L 45.300726 170.064 
L 47.904 172.488824 
L 50.995865 175.608 
L 53.856 178.272077 
L 59.808 180.308142 
L 62.225767 181.152 
L 65.76 183.262835 
L 71.712 184.235699 
L 77.664 184.579673 
L 83.616 184.713302 
L 89.568 184.7434 
L 95.52 184.707468 
L 101.472 184.619447 
L 107.424 184.482316 
L 113.376 184.29186 
L 119.328 184.03693 
L 125.28 183.697215 
L 131.232 183.237551 
L 137.184 182.595142 
L 143.136 181.648876 
L 145.447008 181.152 
L 149.088 180.585177 
L 155.04 179.631276 
L 160.992 178.648903 
L 166.944 177.644075 
L 172.896 176.737284 
L 178.727568 175.608 
L 178.848 175.553289 
L 184.8 172.811229 
L 190.488562 170.064 
L 190.752 168.042221 
L 191.19744 164.52 
L 190.752 164.044151 
L 186.383927 158.976 
L 184.8 157.845063 
L 179.080569 153.432 
L 178.848 153.284955 
L 172.896 149.273096 
L 170.987318 147.888 
L 166.944 145.222384 
L 162.879795 142.344 
L 160.992 141.060056 
L 155.14628 136.8 
L 155.04 136.723203 
L 149.088 132.145901 
L 148.006076 131.256 
L 143.136 127.204461 
L 141.455943 125.712 
L 137.184 121.819631 
L 135.483193 120.168 
L 131.232 115.891693 
L 130.047251 114.624 
L 125.28 109.301207 
L 125.093348 109.08 
L 120.609492 103.536 
L 119.328 101.869641 
L 116.508719 97.992 
L 113.376 93.439847 
L 112.728647 92.448 
L 109.283314 86.904 
L 107.424 83.740378 
L 106.090948 81.36 
L 103.1468 75.816 
L 101.472 72.484097 
L 100.405994 70.272 
L 97.868596 64.728 
L 95.52 59.287985 
L 95.47659 59.184 
L 93.263951 53.64 
L 91.173704 48.096 
L 89.568 43.606685 
L 89.198744 42.552 
L 87.343463 37.008 
L 85.584986 31.464 
L 83.915155 25.92 
L 87.339608 25.92 
L 89.045471 31.464 
L 89.568 33.088541 
L 91.149947 37.008 
L 92.771774 42.552 
L 94.791747 48.096 
L 95.52 50.002302 
L 97.164147 53.64 
L 99.264766 59.184 
L 101.472 64.19971 
L 101.814021 64.728 
L 104.380001 70.272 
L 107.208183 75.816 
L 107.424 76.219601 
L 110.30797 81.36 
L 113.376 86.514077 
L 113.681605 86.904 
L 117.26694 92.448 
L 119.328 95.41383 
L 121.221724 97.992 
L 125.28 103.23126 
L 125.556119 103.536 
L 130.292865 109.08 
L 131.232 110.124158 
L 135.531132 114.624 
L 137.184 116.283626 
L 141.300007 120.168 
L 143.136 121.841748 
L 147.659927 125.712 
L 149.088 126.903404 
L 154.656375 131.256 
L 155.04 131.552391 
L 160.992 135.873747 
L 162.352889 136.8 
L 166.944 139.948566 
L 170.682846 142.344 
L 172.896 143.817747 
L 178.848 147.51981 
L 179.476869 147.888 
L 184.8 151.294322 
L 188.391097 153.432 
L 190.752 155.13449 
L 196.500624 158.976 
L 196.704 159.191725 
L 202.151335 164.52 
L 202.083346 170.064 
L 196.704 172.702872 
L 190.752 175.505737 
L 190.532372 175.608 
L 184.8 177.395444 
L 178.848 178.356411 
L 172.896 178.937618 
L 166.944 179.58297 
L 160.992 180.549958 
L 157.221674 181.152 
L 155.04 182.005989 
L 149.088 183.404684 
L 143.136 184.164408 
L 137.184 184.639046 
L 131.232 184.961273 
L 125.28 185.191836 
L 119.328 185.362234 
L 113.376 185.490105 
L 107.424 185.585636 
L 101.472 185.65442 
L 95.52 185.69857 
L 89.568 185.716593 
L 83.616 185.701496 
L 77.664 185.63447 
L 71.712 185.461935 
L 65.76 184.973955 
L 59.808 181.89644 
L 59.008774 181.152 
L 53.856 179.707457 
L 49.454852 175.608 
L 47.904 174.043449 
L 43.631691 170.064 
L 42.866216 164.52 
L 41.952 161.973451 
z
" clip-path="url(#pfbfdf9bb82)" style="fill: #482374"/>
   </g>
   <g id="PathCollection_4">
    <path d="M 41.450571 158.976 
L 39.012634 153.432 
L 38.278499 147.888 
L 37.941246 142.344 
L 37.75944 136.8 
L 37.655226 131.256 
L 37.595926 125.712 
L 37.565486 120.168 
L 37.555157 114.624 
L 37.559821 109.08 
L 37.576343 103.536 
L 37.602749 97.992 
L 37.637796 92.448 
L 37.680725 86.904 
L 37.731118 81.36 
L 37.788816 75.816 
L 37.853864 70.272 
L 37.926484 64.728 
L 38.007064 59.184 
L 38.096157 53.64 
L 38.194485 48.096 
L 38.302963 42.552 
L 38.42272 37.008 
L 38.555149 31.464 
L 38.701951 25.92 
L 40.048628 25.92 
L 39.828658 31.464 
L 39.630226 37.008 
L 39.45078 42.552 
L 39.288237 48.096 
L 39.140901 53.64 
L 39.007403 59.184 
L 38.88666 64.728 
L 38.777846 70.272 
L 38.680378 75.816 
L 38.593923 81.36 
L 38.518413 86.904 
L 38.454088 92.448 
L 38.401573 97.992 
L 38.362006 103.536 
L 38.33725 109.08 
L 38.330261 114.624 
L 38.345738 120.168 
L 38.39135 125.712 
L 38.480205 131.256 
L 38.63636 136.8 
L 38.90878 142.344 
L 39.414123 147.888 
L 40.514158 153.432 
L 41.952 156.42627 
L 42.705605 158.976 
L 44.683049 164.52 
L 46.969761 170.064 
L 47.904 170.934198 
L 52.536879 175.608 
L 53.856 176.836697 
L 59.808 179.308195 
L 65.090747 181.152 
L 65.76 181.551714 
L 71.712 183.009463 
L 77.664 183.524877 
L 83.616 183.725107 
L 89.568 183.770207 
L 95.52 183.716366 
L 101.472 183.584474 
L 107.424 183.378997 
L 113.376 183.093615 
L 119.328 182.711626 
L 125.28 182.202593 
L 131.232 181.513829 
L 133.71174 181.152 
L 137.184 180.641717 
L 143.136 179.723993 
L 149.088 178.763753 
L 155.04 177.769357 
L 160.992 176.747848 
L 166.944 175.70518 
L 167.499649 175.608 
L 172.896 173.193846 
L 178.848 170.391428 
L 179.532557 170.064 
L 180.858065 164.52 
L 178.848 161.896673 
L 176.794198 158.976 
L 172.896 155.762874 
L 170.286682 153.432 
L 166.944 151.028187 
L 162.897492 147.888 
L 160.992 146.550205 
L 155.421155 142.344 
L 155.04 142.068201 
L 149.088 137.467643 
L 148.281854 136.8 
L 143.136 132.582683 
L 141.623866 131.256 
L 137.184 127.317046 
L 135.490049 125.712 
L 131.232 121.572461 
L 129.876189 120.168 
L 125.28 115.232124 
L 124.747233 114.624 
L 120.081227 109.08 
L 119.328 108.143166 
L 115.829042 103.536 
L 113.376 100.130098 
L 111.916468 97.992 
L 108.325322 92.448 
L 107.424 90.983987 
L 105.031287 86.904 
L 101.966499 81.36 
L 101.472 80.420532 
L 99.148525 75.816 
L 96.512325 70.272 
L 95.52 68.074864 
L 94.058023 64.728 
L 91.764503 59.184 
L 89.600941 53.64 
L 89.568 53.551788 
L 87.57273 48.096 
L 85.657198 42.552 
L 83.844066 37.008 
L 83.616 36.2798 
L 82.110392 31.464 
L 80.46592 25.92 
L 83.616 25.92 
L 83.915155 25.92 
L 85.584986 31.464 
L 87.343463 37.008 
L 89.198744 42.552 
L 89.568 43.606685 
L 91.173704 48.096 
L 93.263951 53.64 
L 95.47659 59.184 
L 95.52 59.287985 
L 97.868596 64.728 
L 100.405994 70.272 
L 101.472 72.484097 
L 103.1468 75.816 
L 106.090948 81.36 
L 107.424 83.740378 
L 109.283314 86.904 
L 112.728647 92.448 
L 113.376 93.439847 
L 116.508719 97.992 
L 119.328 101.869641 
L 120.609492 103.536 
L 125.093348 109.08 
L 125.28 109.301207 
L 130.047251 114.624 
L 131.232 115.891693 
L 135.483193 120.168 
L 137.184 121.819631 
L 141.455943 125.712 
L 143.136 127.204461 
L 148.006076 131.256 
L 149.088 132.145901 
L 155.04 136.723203 
L 155.14628 136.8 
L 160.992 141.060056 
L 162.879795 142.344 
L 166.944 145.222384 
L 170.987318 147.888 
L 172.896 149.273096 
L 178.848 153.284955 
L 179.080569 153.432 
L 184.8 157.845063 
L 186.383927 158.976 
L 190.752 164.044151 
L 191.19744 164.52 
L 190.752 168.042221 
L 190.488562 170.064 
L 184.8 172.811229 
L 178.848 175.553289 
L 178.727568 175.608 
L 172.896 176.737284 
L 166.944 177.644075 
L 160.992 178.648903 
L 155.04 179.631276 
L 149.088 180.585177 
L 145.447008 181.152 
L 143.136 181.648876 
L 137.184 182.595142 
L 131.232 183.237551 
L 125.28 183.697215 
L 119.328 184.03693 
L 113.376 184.29186 
L 107.424 184.482316 
L 101.472 184.619447 
L 95.52 184.707468 
L 89.568 184.7434 
L 83.616 184.713302 
L 77.664 184.579673 
L 71.712 184.235699 
L 65.76 183.262835 
L 62.225767 181.152 
L 59.808 180.308142 
L 53.856 178.272077 
L 50.995865 175.608 
L 47.904 172.488824 
L 45.300726 170.064 
L 43.774632 164.52 
L 41.952 159.443057 
z
" clip-path="url(#pfbfdf9bb82)" style="fill: #453781"/>
   </g>
   <g id="PathCollection_5">
    <path d="M 40.514158 153.432 
L 39.414123 147.888 
L 38.90878 142.344 
L 38.63636 136.8 
L 38.480205 131.256 
L 38.39135 125.712 
L 38.345738 120.168 
L 38.330261 114.624 
L 38.33725 109.08 
L 38.362006 103.536 
L 38.401573 97.992 
L 38.454088 92.448 
L 38.518413 86.904 
L 38.593923 81.36 
L 38.680378 75.816 
L 38.777846 70.272 
L 38.88666 64.728 
L 39.007403 59.184 
L 39.140901 53.64 
L 39.288237 48.096 
L 39.45078 42.552 
L 39.630226 37.008 
L 39.828658 31.464 
L 40.048628 25.92 
L 41.395304 25.92 
L 41.102167 31.464 
L 40.837732 37.008 
L 40.598597 42.552 
L 40.381988 48.096 
L 40.185644 53.64 
L 40.007742 59.184 
L 39.846837 64.728 
L 39.701828 70.272 
L 39.57194 75.816 
L 39.456728 81.36 
L 39.356101 86.904 
L 39.27038 92.448 
L 39.200398 97.992 
L 39.14767 103.536 
L 39.114679 109.08 
L 39.105365 114.624 
L 39.125991 120.168 
L 39.186774 125.712 
L 39.305185 131.256 
L 39.513281 136.8 
L 39.876315 142.344 
L 40.549748 147.888 
L 41.952 153.247902 
L 41.993307 153.432 
L 43.629796 158.976 
L 45.591465 164.52 
L 47.904 169.24658 
L 48.528663 170.064 
L 53.856 175.403238 
L 54.157308 175.608 
L 59.808 178.308249 
L 65.76 180.332541 
L 69.320516 181.152 
L 71.712 181.783227 
L 77.664 182.470081 
L 83.616 182.736913 
L 89.568 182.797014 
L 95.52 182.725263 
L 101.472 182.549501 
L 107.424 182.275677 
L 113.376 181.895371 
L 119.328 181.386321 
L 121.548657 181.152 
L 125.28 180.663468 
L 131.232 179.8159 
L 137.184 178.905642 
L 143.136 177.944494 
L 149.088 176.94233 
L 155.04 175.907437 
L 156.745546 175.608 
L 160.992 173.78122 
L 166.944 171.086858 
L 169.134858 170.064 
L 171.037041 164.52 
L 167.673359 158.976 
L 166.944 158.325771 
L 161.886046 153.432 
L 160.992 152.743119 
L 155.159947 147.888 
L 155.04 147.798082 
L 149.088 143.016985 
L 148.309918 142.344 
L 143.136 138.075841 
L 141.695839 136.8 
L 137.184 132.848921 
L 135.485203 131.256 
L 131.232 127.223959 
L 129.738326 125.712 
L 125.28 121.079399 
L 124.456169 120.168 
L 119.619896 114.624 
L 119.328 114.275887 
L 115.217045 109.08 
L 113.376 106.633699 
L 111.168182 103.536 
L 107.429261 97.992 
L 107.424 97.983839 
L 104.025912 92.448 
L 101.472 88.024647 
L 100.851846 86.904 
L 97.933273 81.36 
L 95.52 76.484621 
L 95.199765 75.816 
L 92.669792 70.272 
L 90.292159 64.728 
L 89.568 62.952903 
L 88.06061 59.184 
L 85.963395 53.64 
L 83.985375 48.096 
L 83.616 47.012 
L 82.096262 42.552 
L 80.308296 37.008 
L 78.617172 31.464 
L 77.664 28.183182 
L 76.984809 25.92 
L 77.664 25.92 
L 80.46592 25.92 
L 82.110392 31.464 
L 83.616 36.2798 
L 83.844066 37.008 
L 85.657198 42.552 
L 87.57273 48.096 
L 89.568 53.551788 
L 89.600941 53.64 
L 91.764503 59.184 
L 94.058023 64.728 
L 95.52 68.074864 
L 96.512325 70.272 
L 99.148525 75.816 
L 101.472 80.420532 
L 101.966499 81.36 
L 105.031287 86.904 
L 107.424 90.983987 
L 108.325322 92.448 
L 111.916468 97.992 
L 113.376 100.130098 
L 115.829042 103.536 
L 119.328 108.143166 
L 120.081227 109.08 
L 124.747233 114.624 
L 125.28 115.232124 
L 129.876189 120.168 
L 131.232 121.572461 
L 135.490049 125.712 
L 137.184 127.317046 
L 141.623866 131.256 
L 143.136 132.582683 
L 148.281854 136.8 
L 149.088 137.467643 
L 155.04 142.068201 
L 155.421155 142.344 
L 160.992 146.550205 
L 162.897492 147.888 
L 166.944 151.028187 
L 170.286682 153.432 
L 172.896 155.762874 
L 176.794198 158.976 
L 178.848 161.896673 
L 180.858065 164.52 
L 179.532557 170.064 
L 178.848 170.391428 
L 172.896 173.193846 
L 167.499649 175.608 
L 166.944 175.70518 
L 160.992 176.747848 
L 155.04 177.769357 
L 149.088 178.763753 
L 143.136 179.723993 
L 137.184 180.641717 
L 133.71174 181.152 
L 131.232 181.513829 
L 125.28 182.202593 
L 119.328 182.711626 
L 113.376 183.093615 
L 107.424 183.378997 
L 101.472 183.584474 
L 95.52 183.716366 
L 89.568 183.770207 
L 83.616 183.725107 
L 77.664 183.524877 
L 71.712 183.009463 
L 65.76 181.551714 
L 65.090747 181.152 
L 59.808 179.308195 
L 53.856 176.836697 
L 52.536879 175.608 
L 47.904 170.934198 
L 46.969761 170.064 
L 44.683049 164.52 
L 42.705605 158.976 
L 41.952 156.42627 
z
" clip-path="url(#pfbfdf9bb82)" style="fill: #3e4989"/>
   </g>
   <g id="PathCollection_6">
    <path d="M 40.549748 147.888 
L 39.876315 142.344 
L 39.513281 136.8 
L 39.305185 131.256 
L 39.186774 125.712 
L 39.125991 120.168 
L 39.105365 114.624 
L 39.114679 109.08 
L 39.14767 103.536 
L 39.200398 97.992 
L 39.27038 92.448 
L 39.356101 86.904 
L 39.456728 81.36 
L 39.57194 75.816 
L 39.701828 70.272 
L 39.846837 64.728 
L 40.007742 59.184 
L 40.185644 53.64 
L 40.381988 48.096 
L 40.598597 42.552 
L 40.837732 37.008 
L 41.102167 31.464 
L 41.395304 25.92 
L 41.952 25.92 
L 43.000576 25.92 
L 42.538269 31.464 
L 42.086068 37.008 
L 41.952 38.678066 
L 41.746414 42.552 
L 41.475739 48.096 
L 41.230388 53.64 
L 41.008081 59.184 
L 40.807014 64.728 
L 40.62581 70.272 
L 40.463502 75.816 
L 40.319533 81.36 
L 40.19379 86.904 
L 40.086672 92.448 
L 39.999222 97.992 
L 39.933333 103.536 
L 39.892108 109.08 
L 39.88047 114.624 
L 39.906243 120.168 
L 39.982198 125.712 
L 40.130164 131.256 
L 40.390202 136.8 
L 40.843849 142.344 
L 41.685372 147.888 
L 41.952 148.907147 
L 42.967254 153.432 
L 44.553988 158.976 
L 46.499882 164.52 
L 47.904 167.389872 
L 49.947539 170.064 
L 53.856 173.981193 
L 56.249851 175.608 
L 59.808 177.308303 
L 65.76 179.263313 
L 71.712 180.600521 
L 75.64225 181.152 
L 77.664 181.415285 
L 83.616 181.748718 
L 89.568 181.82382 
L 95.52 181.734161 
L 101.472 181.514528 
L 107.424 181.172357 
L 107.699879 181.152 
L 113.376 180.565178 
L 119.328 179.838152 
L 125.28 179.019044 
L 131.232 178.124823 
L 137.184 177.169566 
L 143.136 176.164995 
L 146.345709 175.608 
L 149.088 174.491662 
L 155.04 171.943185 
L 159.200944 170.064 
L 160.992 166.106657 
L 161.678008 164.52 
L 160.992 163.190515 
L 159.006024 158.976 
L 155.04 154.768362 
L 153.882469 153.432 
L 149.088 149.142688 
L 147.792678 147.888 
L 143.136 143.87218 
L 141.492388 142.344 
L 137.184 138.534142 
L 135.358375 136.8 
L 131.232 132.929919 
L 129.56481 131.256 
L 125.28 126.906923 
L 124.176537 125.712 
L 119.328 120.318553 
L 119.200669 120.168 
L 114.653795 114.624 
L 113.376 112.994754 
L 110.471153 109.08 
L 107.424 104.753271 
L 106.608655 103.536 
L 103.068595 97.992 
L 101.472 95.350297 
L 99.791111 92.448 
L 96.75665 86.904 
L 95.52 84.518413 
L 93.935505 81.36 
L 91.309292 75.816 
L 89.568 71.91852 
L 88.845967 70.272 
L 86.537362 64.728 
L 84.368594 59.184 
L 83.616 57.160452 
L 82.304089 53.64 
L 80.3501 48.096 
L 78.508949 42.552 
L 77.664 39.877251 
L 76.724811 37.008 
L 75.002371 31.464 
L 73.376451 25.92 
L 76.984809 25.92 
L 77.664 28.183182 
L 78.617172 31.464 
L 80.308296 37.008 
L 82.096262 42.552 
L 83.616 47.012 
L 83.985375 48.096 
L 85.963395 53.64 
L 88.06061 59.184 
L 89.568 62.952903 
L 90.292159 64.728 
L 92.669792 70.272 
L 95.199765 75.816 
L 95.52 76.484621 
L 97.933273 81.36 
L 100.851846 86.904 
L 101.472 88.024647 
L 104.025912 92.448 
L 107.424 97.983839 
L 107.429261 97.992 
L 111.168182 103.536 
L 113.376 106.633699 
L 115.217045 109.08 
L 119.328 114.275887 
L 119.619896 114.624 
L 124.456169 120.168 
L 125.28 121.079399 
L 129.738326 125.712 
L 131.232 127.223959 
L 135.485203 131.256 
L 137.184 132.848921 
L 141.695839 136.8 
L 143.136 138.075841 
L 148.309918 142.344 
L 149.088 143.016985 
L 155.04 147.798082 
L 155.159947 147.888 
L 160.992 152.743119 
L 161.886046 153.432 
L 166.944 158.325771 
L 167.673359 158.976 
L 171.037041 164.52 
L 169.134858 170.064 
L 166.944 171.086858 
L 160.992 173.78122 
L 156.745546 175.608 
L 155.04 175.907437 
L 149.088 176.94233 
L 143.136 177.944494 
L 137.184 178.905642 
L 131.232 179.8159 
L 125.28 180.663468 
L 121.548657 181.152 
L 119.328 181.386321 
L 113.376 181.895371 
L 107.424 182.275677 
L 101.472 182.549501 
L 95.52 182.725263 
L 89.568 182.797014 
L 83.616 182.736913 
L 77.664 182.470081 
L 71.712 181.783227 
L 69.320516 181.152 
L 65.76 180.332541 
L 59.808 178.308249 
L 54.157308 175.608 
L 53.856 175.403238 
L 48.528663 170.064 
L 47.904 169.24658 
L 45.591465 164.52 
L 43.629796 158.976 
L 41.993307 153.432 
L 41.952 153.247902 
z
" clip-path="url(#pfbfdf9bb82)" style="fill: #375b8d"/>
   </g>
   <g id="PathCollection_7">
    <path d="M 41.685372 147.888 
L 40.843849 142.344 
L 40.390202 136.8 
L 40.130164 131.256 
L 39.982198 125.712 
L 39.906243 120.168 
L 39.88047 114.624 
L 39.892108 109.08 
L 39.933333 103.536 
L 39.999222 97.992 
L 40.086672 92.448 
L 40.19379 86.904 
L 40.319533 81.36 
L 40.463502 75.816 
L 40.62581 70.272 
L 40.807014 64.728 
L 41.008081 59.184 
L 41.230388 53.64 
L 41.475739 48.096 
L 41.746414 42.552 
L 41.952 38.678066 
L 42.086068 37.008 
L 42.538269 31.464 
L 43.000576 25.92 
L 44.788078 25.92 
L 44.300508 31.464 
L 43.82236 37.008 
L 43.355424 42.552 
L 42.901731 48.096 
L 42.463595 53.64 
L 42.043658 59.184 
L 41.952 60.440395 
L 41.767191 64.728 
L 41.549793 70.272 
L 41.355065 75.816 
L 41.182338 81.36 
L 41.031478 86.904 
L 40.902964 92.448 
L 40.798046 97.992 
L 40.718996 103.536 
L 40.669537 109.08 
L 40.655574 114.624 
L 40.686495 120.168 
L 40.777621 125.712 
L 40.955143 131.256 
L 41.267122 136.8 
L 41.811383 142.344 
L 41.952 143.228892 
L 42.734303 147.888 
L 43.941201 153.432 
L 45.478179 158.976 
L 47.408298 164.52 
L 47.904 165.533163 
L 51.366414 170.064 
L 53.856 172.559147 
L 58.342394 175.608 
L 59.808 176.308357 
L 65.76 178.194085 
L 71.712 179.463995 
L 77.664 180.250303 
L 83.616 180.651074 
L 89.568 180.741666 
L 95.52 180.581191 
L 101.472 180.216663 
L 107.424 179.685852 
L 113.376 179.019352 
L 119.328 178.242117 
L 125.28 177.374619 
L 131.232 176.433746 
L 136.167907 175.608 
L 137.184 175.226442 
L 143.136 172.87103 
L 149.088 170.317259 
L 149.660847 170.064 
L 152.750265 164.52 
L 150.705102 158.976 
L 149.088 157.084015 
L 146.222969 153.432 
L 143.136 150.436042 
L 140.713014 147.888 
L 137.184 144.607089 
L 134.926995 142.344 
L 131.232 138.831433 
L 129.242297 136.8 
L 125.28 132.81054 
L 123.836565 131.256 
L 119.328 126.347204 
L 118.780231 125.712 
L 114.107932 120.168 
L 113.376 119.268601 
L 109.804236 114.624 
L 107.424 111.378153 
L 105.822481 109.08 
L 102.148732 103.536 
L 101.472 102.465177 
L 98.763848 97.992 
L 95.61257 92.448 
L 95.52 92.27746 
L 92.696851 86.904 
L 89.972311 81.36 
L 89.568 80.495779 
L 87.41777 75.816 
L 85.027365 70.272 
L 83.616 66.804992 
L 82.766884 64.728 
L 80.619487 59.184 
L 78.604762 53.64 
L 77.664 50.910457 
L 76.655233 48.096 
L 74.775043 42.552 
L 73.007695 37.008 
L 71.712 32.710413 
L 71.295709 31.464 
L 69.534279 25.92 
L 71.712 25.92 
L 73.376451 25.92 
L 75.002371 31.464 
L 76.724811 37.008 
L 77.664 39.877251 
L 78.508949 42.552 
L 80.3501 48.096 
L 82.304089 53.64 
L 83.616 57.160452 
L 84.368594 59.184 
L 86.537362 64.728 
L 88.845967 70.272 
L 89.568 71.91852 
L 91.309292 75.816 
L 93.935505 81.36 
L 95.52 84.518413 
L 96.75665 86.904 
L 99.791111 92.448 
L 101.472 95.350297 
L 103.068595 97.992 
L 106.608655 103.536 
L 107.424 104.753271 
L 110.471153 109.08 
L 113.376 112.994754 
L 114.653795 114.624 
L 119.200669 120.168 
L 119.328 120.318553 
L 124.176537 125.712 
L 125.28 126.906923 
L 129.56481 131.256 
L 131.232 132.929919 
L 135.358375 136.8 
L 137.184 138.534142 
L 141.492388 142.344 
L 143.136 143.87218 
L 147.792678 147.888 
L 149.088 149.142688 
L 153.882469 153.432 
L 155.04 154.768362 
L 159.006024 158.976 
L 160.992 163.190515 
L 161.678008 164.52 
L 160.992 166.106657 
L 159.200944 170.064 
L 155.04 171.943185 
L 149.088 174.491662 
L 146.345709 175.608 
L 143.136 176.164995 
L 137.184 177.169566 
L 131.232 178.124823 
L 125.28 179.019044 
L 119.328 179.838152 
L 113.376 180.565178 
L 107.699879 181.152 
L 107.424 181.172357 
L 101.472 181.514528 
L 95.52 181.734161 
L 89.568 181.82382 
L 83.616 181.748718 
L 77.664 181.415285 
L 75.64225 181.152 
L 71.712 180.600521 
L 65.76 179.263313 
L 59.808 177.308303 
L 56.249851 175.608 
L 53.856 173.981193 
L 49.947539 170.064 
L 47.904 167.389872 
L 46.499882 164.52 
L 44.553988 158.976 
L 42.967254 153.432 
L 41.952 148.907147 
z
" clip-path="url(#pfbfdf9bb82)" style="fill: #2f6b8e"/>
   </g>
   <g id="PathCollection_8">
    <path d="M 41.811383 142.344 
L 41.267122 136.8 
L 40.955143 131.256 
L 40.777621 125.712 
L 40.686495 120.168 
L 40.655574 114.624 
L 40.669537 109.08 
L 40.718996 103.536 
L 40.798046 97.992 
L 40.902964 92.448 
L 41.031478 86.904 
L 41.182338 81.36 
L 41.355065 75.816 
L 41.549793 70.272 
L 41.767191 64.728 
L 41.952 60.440395 
L 42.043658 59.184 
L 42.463595 53.64 
L 42.901731 48.096 
L 43.355424 42.552 
L 43.82236 37.008 
L 44.300508 31.464 
L 44.788078 25.92 
L 46.575581 25.92 
L 46.062746 31.464 
L 45.558653 37.008 
L 45.065061 42.552 
L 44.583975 48.096 
L 44.117678 53.64 
L 43.668782 59.184 
L 43.240272 64.728 
L 42.835576 70.272 
L 42.458636 75.816 
L 42.113998 81.36 
L 41.952 84.253554 
L 41.869166 86.904 
L 41.719256 92.448 
L 41.596871 97.992 
L 41.50466 103.536 
L 41.446966 109.08 
L 41.430678 114.624 
L 41.466748 120.168 
L 41.573045 125.712 
L 41.780123 131.256 
L 41.952 133.958881 
L 42.196157 136.8 
L 42.865905 142.344 
L 43.756635 147.888 
L 44.915148 153.432 
L 46.40237 158.976 
L 47.904 163.308546 
L 48.61203 164.52 
L 52.78529 170.064 
L 53.856 171.137102 
L 59.808 175.137412 
L 60.845829 175.608 
L 65.76 177.124857 
L 71.712 178.327469 
L 77.664 179.04867 
L 83.616 179.386599 
L 89.568 179.416615 
L 95.52 179.197788 
L 101.472 178.777067 
L 107.424 178.192144 
L 113.376 177.473526 
L 119.328 176.646081 
L 125.28 175.730195 
L 126.034738 175.608 
L 131.232 173.760727 
L 137.184 171.430575 
L 140.453296 170.064 
L 143.136 166.116502 
L 144.15215 164.52 
L 143.136 160.684614 
L 142.724402 158.976 
L 138.845532 153.432 
L 137.184 151.673068 
L 133.885842 147.888 
L 131.232 145.217625 
L 128.583819 142.344 
L 125.28 138.957337 
L 123.31885 136.8 
L 119.328 132.476123 
L 118.273343 131.256 
L 113.528735 125.712 
L 113.376 125.52988 
L 109.133203 120.168 
L 107.424 117.919042 
L 105.046733 114.624 
L 101.472 109.413989 
L 101.252685 109.08 
L 97.757186 103.536 
L 95.52 99.767911 
L 94.499254 97.992 
L 91.475686 92.448 
L 89.568 88.729251 
L 88.647199 86.904 
L 85.998743 81.36 
L 83.616 76.023222 
L 83.522841 75.816 
L 81.148671 70.272 
L 78.932 64.728 
L 77.664 61.366904 
L 76.803949 59.184 
L 74.739391 53.64 
L 72.808174 48.096 
L 71.712 44.766189 
L 70.898787 42.552 
L 68.975625 37.008 
L 67.177931 31.464 
L 65.76 26.815339 
L 65.408116 25.92 
L 65.76 25.92 
L 69.534279 25.92 
L 71.295709 31.464 
L 71.712 32.710413 
L 73.007695 37.008 
L 74.775043 42.552 
L 76.655233 48.096 
L 77.664 50.910457 
L 78.604762 53.64 
L 80.619487 59.184 
L 82.766884 64.728 
L 83.616 66.804992 
L 85.027365 70.272 
L 87.41777 75.816 
L 89.568 80.495779 
L 89.972311 81.36 
L 92.696851 86.904 
L 95.52 92.27746 
L 95.61257 92.448 
L 98.763848 97.992 
L 101.472 102.465177 
L 102.148732 103.536 
L 105.822481 109.08 
L 107.424 111.378153 
L 109.804236 114.624 
L 113.376 119.268601 
L 114.107932 120.168 
L 118.780231 125.712 
L 119.328 126.347204 
L 123.836565 131.256 
L 125.28 132.81054 
L 129.242297 136.8 
L 131.232 138.831433 
L 134.926995 142.344 
L 137.184 144.607089 
L 140.713014 147.888 
L 143.136 150.436042 
L 146.222969 153.432 
L 149.088 157.084015 
L 150.705102 158.976 
L 152.750265 164.52 
L 149.660847 170.064 
L 149.088 170.317259 
L 143.136 172.87103 
L 137.184 175.226442 
L 136.167907 175.608 
L 131.232 176.433746 
L 125.28 177.374619 
L 119.328 178.242117 
L 113.376 179.019352 
L 107.424 179.685852 
L 101.472 180.216663 
L 95.52 180.581191 
L 89.568 180.741666 
L 83.616 180.651074 
L 77.664 180.250303 
L 71.712 179.463995 
L 65.76 178.194085 
L 59.808 176.308357 
L 58.342394 175.608 
L 53.856 172.559147 
L 51.366414 170.064 
L 47.904 165.533163 
L 47.408298 164.52 
L 45.478179 158.976 
L 43.941201 153.432 
L 42.734303 147.888 
L 41.952 143.228892 
z
" clip-path="url(#pfbfdf9bb82)" style="fill: #297a8e"/>
   </g>
   <g id="PathCollection_9">
    <path d="M 41.780123 131.256 
L 41.573045 125.712 
L 41.466748 120.168 
L 41.430678 114.624 
L 41.446966 109.08 
L 41.50466 103.536 
L 41.596871 97.992 
L 41.719256 92.448 
L 41.869166 86.904 
L 41.952 84.253554 
L 42.113998 81.36 
L 42.458636 75.816 
L 42.835576 70.272 
L 43.240272 64.728 
L 43.668782 59.184 
L 44.117678 53.64 
L 44.583975 48.096 
L 45.065061 42.552 
L 45.558653 37.008 
L 46.062746 31.464 
L 46.575581 25.92 
L 47.904 25.92 
L 49.870988 25.92 
L 47.904 30.639977 
L 47.824985 31.464 
L 47.294946 37.008 
L 46.774698 42.552 
L 46.266219 48.096 
L 45.771762 53.64 
L 45.293906 59.184 
L 44.835605 64.728 
L 44.400253 70.272 
L 43.991755 75.816 
L 43.61462 81.36 
L 43.274071 86.904 
L 42.976173 92.448 
L 42.728 97.992 
L 42.537838 103.536 
L 42.415428 109.08 
L 42.372289 114.624 
L 42.422116 120.168 
L 42.581298 125.712 
L 42.869596 131.256 
L 43.311048 136.8 
L 43.935218 142.344 
L 44.778967 147.888 
L 45.889095 153.432 
L 47.326561 158.976 
L 47.904 160.642043 
L 50.170459 164.52 
L 53.856 169.542834 
L 54.446003 170.064 
L 59.808 173.566718 
L 64.309813 175.608 
L 65.76 176.055629 
L 71.712 177.190943 
L 77.664 177.847036 
L 83.616 178.122124 
L 89.568 178.091563 
L 95.52 177.814386 
L 101.472 177.337472 
L 107.424 176.698435 
L 113.376 175.927701 
L 115.588363 175.608 
L 119.328 174.473501 
L 125.28 172.436114 
L 131.232 170.150683 
L 131.447238 170.064 
L 135.844372 164.52 
L 135.043674 158.976 
L 131.714142 153.432 
L 131.232 152.871609 
L 127.276957 147.888 
L 125.28 145.703446 
L 122.430193 142.344 
L 119.328 138.903793 
L 117.557095 136.8 
L 113.376 131.914357 
L 112.846723 131.256 
L 108.403424 125.712 
L 107.424 124.459214 
L 104.243511 120.168 
L 101.472 116.265109 
L 100.357534 114.624 
L 96.751014 109.08 
L 95.52 107.092015 
L 93.388315 103.536 
L 90.259682 97.992 
L 89.568 96.703363 
L 87.320285 92.448 
L 84.579888 86.904 
L 83.616 84.843119 
L 81.973228 81.36 
L 79.520615 75.816 
L 77.664 71.332082 
L 77.203255 70.272 
L 74.921359 64.728 
L 72.79894 59.184 
L 71.712 56.171729 
L 70.684096 53.64 
L 68.570489 48.096 
L 66.606797 42.552 
L 65.76 40.01874 
L 64.440521 37.008 
L 62.181903 31.464 
L 60.102361 25.92 
L 65.408116 25.92 
L 65.76 26.815339 
L 67.177931 31.464 
L 68.975625 37.008 
L 70.898787 42.552 
L 71.712 44.766189 
L 72.808174 48.096 
L 74.739391 53.64 
L 76.803949 59.184 
L 77.664 61.366904 
L 78.932 64.728 
L 81.148671 70.272 
L 83.522841 75.816 
L 83.616 76.023222 
L 85.998743 81.36 
L 88.647199 86.904 
L 89.568 88.729251 
L 91.475686 92.448 
L 94.499254 97.992 
L 95.52 99.767911 
L 97.757186 103.536 
L 101.252685 109.08 
L 101.472 109.413989 
L 105.046733 114.624 
L 107.424 117.919042 
L 109.133203 120.168 
L 113.376 125.52988 
L 113.528735 125.712 
L 118.273343 131.256 
L 119.328 132.476123 
L 123.31885 136.8 
L 125.28 138.957337 
L 128.583819 142.344 
L 131.232 145.217625 
L 133.885842 147.888 
L 137.184 151.673068 
L 138.845532 153.432 
L 142.724402 158.976 
L 143.136 160.684614 
L 144.15215 164.52 
L 143.136 166.116502 
L 140.453296 170.064 
L 137.184 171.430575 
L 131.232 173.760727 
L 126.034738 175.608 
L 125.28 175.730195 
L 119.328 176.646081 
L 113.376 177.473526 
L 107.424 178.192144 
L 101.472 178.777067 
L 95.52 179.197788 
L 89.568 179.416615 
L 83.616 179.386599 
L 77.664 179.04867 
L 71.712 178.327469 
L 65.76 177.124857 
L 60.845829 175.608 
L 59.808 175.137412 
L 53.856 171.137102 
L 52.78529 170.064 
L 48.61203 164.52 
L 47.904 163.308546 
L 46.40237 158.976 
L 44.915148 153.432 
L 43.756635 147.888 
L 42.865905 142.344 
L 42.196157 136.8 
L 41.952 133.958881 
z
" clip-path="url(#pfbfdf9bb82)" style="fill: #23898e"/>
   </g>
   <g id="PathCollection_10">
    <path d="M 47.326561 158.976 
L 45.889095 153.432 
L 44.778967 147.888 
L 43.935218 142.344 
L 43.311048 136.8 
L 42.869596 131.256 
L 42.581298 125.712 
L 42.422116 120.168 
L 42.372289 114.624 
L 42.415428 109.08 
L 42.537838 103.536 
L 42.728 97.992 
L 42.976173 92.448 
L 43.274071 86.904 
L 43.61462 81.36 
L 43.991755 75.816 
L 44.400253 70.272 
L 44.835605 64.728 
L 45.293906 59.184 
L 45.771762 53.64 
L 46.266219 48.096 
L 46.774698 42.552 
L 47.294946 37.008 
L 47.824985 31.464 
L 47.904 30.639977 
L 49.870988 25.92 
L 53.856 25.92 
L 59.808 25.92 
L 60.102361 25.92 
L 62.181903 31.464 
L 64.440521 37.008 
L 65.76 40.01874 
L 66.606797 42.552 
L 68.570489 48.096 
L 70.684096 53.64 
L 71.712 56.171729 
L 72.79894 59.184 
L 74.921359 64.728 
L 77.203255 70.272 
L 77.664 71.332082 
L 79.520615 75.816 
L 81.973228 81.36 
L 83.616 84.843119 
L 84.579888 86.904 
L 87.320285 92.448 
L 89.568 96.703363 
L 90.259682 97.992 
L 93.388315 103.536 
L 95.52 107.092015 
L 96.751014 109.08 
L 100.357534 114.624 
L 101.472 116.265109 
L 104.243511 120.168 
L 107.424 124.459214 
L 108.403424 125.712 
L 112.846723 131.256 
L 113.376 131.914357 
L 117.557095 136.8 
L 119.328 138.903793 
L 122.430193 142.344 
L 125.28 145.703446 
L 127.276957 147.888 
L 131.232 152.871609 
L 131.714142 153.432 
L 135.043674 158.976 
L 135.844372 164.52 
L 131.447238 170.064 
L 131.232 170.150683 
L 125.28 172.436114 
L 119.328 174.473501 
L 115.588363 175.608 
L 113.376 175.927701 
L 107.424 176.698435 
L 101.472 177.337472 
L 95.52 177.814386 
L 89.568 178.091563 
L 83.616 178.122124 
L 77.664 177.847036 
L 71.712 177.190943 
L 65.76 176.055629 
L 64.309813 175.608 
L 59.808 173.566718 
L 54.446003 170.064 
L 53.856 169.542834 
L 50.170459 164.52 
L 47.904 160.642043 
z
M 47.904 157.535498 
L 48.543487 158.976 
L 51.728888 164.52 
L 53.856 167.418932 
L 56.850436 170.064 
L 59.808 171.996025 
L 65.76 174.605558 
L 69.312056 175.608 
L 71.712 176.054417 
L 77.664 176.645403 
L 83.616 176.857649 
L 89.568 176.766512 
L 95.52 176.430983 
L 101.472 175.897877 
L 104.014732 175.608 
L 107.424 174.827855 
L 113.376 173.175869 
L 119.328 171.22825 
L 122.531904 170.064 
L 125.28 167.286621 
L 127.743188 164.52 
L 127.569151 158.976 
L 125.28 154.469456 
L 124.797042 153.432 
L 120.847515 147.888 
L 119.328 146.071517 
L 116.429416 142.344 
L 113.376 138.66812 
L 111.922853 136.8 
L 107.527866 131.256 
L 107.424 131.125294 
L 103.352956 125.712 
L 101.472 123.13165 
L 99.408149 120.168 
L 95.714315 114.624 
L 95.52 114.322056 
L 92.254579 109.08 
L 89.568 104.484476 
L 89.021575 103.536 
L 85.976602 97.992 
L 83.616 93.386725 
L 83.129139 92.448 
L 80.400714 86.904 
L 77.871727 81.36 
L 77.664 80.881458 
L 75.349141 75.816 
L 73.002198 70.272 
L 71.712 67.021816 
L 70.676705 64.728 
L 68.336214 59.184 
L 66.177723 53.64 
L 65.76 52.505499 
L 63.584931 48.096 
L 61.089142 42.552 
L 59.808 39.476812 
L 57.114542 37.008 
L 53.856 33.621681 
L 52.381289 37.008 
L 50.124689 42.552 
L 48.067972 48.096 
L 47.904 48.56043 
L 47.425845 53.64 
L 46.919029 59.184 
L 46.430938 64.728 
L 45.964929 70.272 
L 45.524873 75.816 
L 45.115242 81.36 
L 44.741218 86.904 
L 44.408828 92.448 
L 44.125104 97.992 
L 43.898286 103.536 
L 43.738074 109.08 
L 43.655941 114.624 
L 43.665538 120.168 
L 43.783209 125.712 
L 44.028675 131.256 
L 44.425938 136.8 
L 45.004532 142.344 
L 45.801299 147.888 
L 46.863042 153.432 
z
" clip-path="url(#pfbfdf9bb82)" style="fill: #1f988b"/>
   </g>
   <g id="PathCollection_11">
    <path d="M 46.863042 153.432 
L 45.801299 147.888 
L 45.004532 142.344 
L 44.425938 136.8 
L 44.028675 131.256 
L 43.783209 125.712 
L 43.665538 120.168 
L 43.655941 114.624 
L 43.738074 109.08 
L 43.898286 103.536 
L 44.125104 97.992 
L 44.408828 92.448 
L 44.741218 86.904 
L 45.115242 81.36 
L 45.524873 75.816 
L 45.964929 70.272 
L 46.430938 64.728 
L 46.919029 59.184 
L 47.425845 53.64 
L 47.904 48.56043 
L 48.067972 48.096 
L 50.124689 42.552 
L 52.381289 37.008 
L 53.856 33.621681 
L 57.114542 37.008 
L 59.808 39.476812 
L 61.089142 42.552 
L 63.584931 48.096 
L 65.76 52.505499 
L 66.177723 53.64 
L 68.336214 59.184 
L 70.676705 64.728 
L 71.712 67.021816 
L 73.002198 70.272 
L 75.349141 75.816 
L 77.664 80.881458 
L 77.871727 81.36 
L 80.400714 86.904 
L 83.129139 92.448 
L 83.616 93.386725 
L 85.976602 97.992 
L 89.021575 103.536 
L 89.568 104.484476 
L 92.254579 109.08 
L 95.52 114.322056 
L 95.714315 114.624 
L 99.408149 120.168 
L 101.472 123.13165 
L 103.352956 125.712 
L 107.424 131.125294 
L 107.527866 131.256 
L 111.922853 136.8 
L 113.376 138.66812 
L 116.429416 142.344 
L 119.328 146.071517 
L 120.847515 147.888 
L 124.797042 153.432 
L 125.28 154.469456 
L 127.569151 158.976 
L 127.743188 164.52 
L 125.28 167.286621 
L 122.531904 170.064 
L 119.328 171.22825 
L 113.376 173.175869 
L 107.424 174.827855 
L 104.014732 175.608 
L 101.472 175.897877 
L 95.52 176.430983 
L 89.568 176.766512 
L 83.616 176.857649 
L 77.664 176.645403 
L 71.712 176.054417 
L 69.312056 175.608 
L 65.76 174.605558 
L 59.808 171.996025 
L 56.850436 170.064 
L 53.856 167.418932 
L 51.728888 164.52 
L 48.543487 158.976 
L 47.904 157.535498 
z
M 47.904 153.69616 
L 50.247899 158.976 
L 53.287317 164.52 
L 53.856 165.295029 
L 59.25487 170.064 
L 59.808 170.425332 
L 65.76 172.881232 
L 71.712 174.465249 
L 77.664 175.328774 
L 83.616 175.582121 
L 89.568 175.30963 
L 95.52 174.577663 
L 101.472 173.439437 
L 107.424 171.938223 
L 113.376 170.109583 
L 113.510857 170.064 
L 119.328 164.939642 
L 119.746981 164.52 
L 120.242489 158.976 
L 119.328 156.795918 
L 118.032954 153.432 
L 114.551548 147.888 
L 113.376 146.342993 
L 110.538439 142.344 
L 107.424 138.259064 
L 106.376713 136.8 
L 102.280159 131.256 
L 101.472 130.16162 
L 98.337264 125.712 
L 95.52 121.57505 
L 94.593159 120.168 
L 91.06122 114.624 
L 89.568 112.163911 
L 87.722039 109.08 
L 84.592455 103.536 
L 83.616 101.71286 
L 81.595705 97.992 
L 78.786889 92.448 
L 77.664 90.094462 
L 76.05036 86.904 
L 73.438637 81.36 
L 71.712 77.418063 
L 70.903573 75.816 
L 68.289244 70.272 
L 65.900139 64.728 
L 65.76 64.384346 
L 62.839615 59.184 
L 60.055311 53.64 
L 59.808 53.112906 
L 53.856 49.105385 
L 52.084919 53.64 
L 50.098948 59.184 
L 48.308424 64.728 
L 47.904 66.072978 
L 47.529606 70.272 
L 47.057992 75.816 
L 46.615864 81.36 
L 46.208366 86.904 
L 45.841484 92.448 
L 45.522207 97.992 
L 45.258734 103.536 
L 45.06072 109.08 
L 44.939593 114.624 
L 44.908959 120.168 
L 44.985121 125.712 
L 45.187755 131.256 
L 45.540828 136.8 
L 46.073845 142.344 
L 46.823631 147.888 
L 47.836989 153.432 
z
" clip-path="url(#pfbfdf9bb82)" style="fill: #22a785"/>
   </g>
   <g id="PathCollection_12">
    <path d="M 47.836989 153.432 
L 46.823631 147.888 
L 46.073845 142.344 
L 45.540828 136.8 
L 45.187755 131.256 
L 44.985121 125.712 
L 44.908959 120.168 
L 44.939593 114.624 
L 45.06072 109.08 
L 45.258734 103.536 
L 45.522207 97.992 
L 45.841484 92.448 
L 46.208366 86.904 
L 46.615864 81.36 
L 47.057992 75.816 
L 47.529606 70.272 
L 47.904 66.072978 
L 48.308424 64.728 
L 50.098948 59.184 
L 52.084919 53.64 
L 53.856 49.105385 
L 59.808 53.112906 
L 60.055311 53.64 
L 62.839615 59.184 
L 65.76 64.384346 
L 65.900139 64.728 
L 68.289244 70.272 
L 70.903573 75.816 
L 71.712 77.418063 
L 73.438637 81.36 
L 76.05036 86.904 
L 77.664 90.094462 
L 78.786889 92.448 
L 81.595705 97.992 
L 83.616 101.71286 
L 84.592455 103.536 
L 87.722039 109.08 
L 89.568 112.163911 
L 91.06122 114.624 
L 94.593159 120.168 
L 95.52 121.57505 
L 98.337264 125.712 
L 101.472 130.16162 
L 102.280159 131.256 
L 106.376713 136.8 
L 107.424 138.259064 
L 110.538439 142.344 
L 113.376 146.342993 
L 114.551548 147.888 
L 118.032954 153.432 
L 119.328 156.795918 
L 120.242489 158.976 
L 119.746981 164.52 
L 119.328 164.939642 
L 113.510857 170.064 
L 113.376 170.109583 
L 107.424 171.938223 
L 101.472 173.439437 
L 95.52 174.577663 
L 89.568 175.30963 
L 83.616 175.582121 
L 77.664 175.328774 
L 71.712 174.465249 
L 65.76 172.881232 
L 59.808 170.425332 
L 59.25487 170.064 
L 53.856 165.295029 
L 53.287317 164.52 
L 50.247899 158.976 
L 47.904 153.69616 
z
M 47.904 148.206564 
L 49.632859 153.432 
L 51.952312 158.976 
L 53.856 162.510337 
L 55.610718 164.52 
L 59.808 168.199233 
L 63.072611 170.064 
L 65.76 171.156907 
L 71.712 172.583277 
L 77.664 173.285744 
L 83.616 173.375009 
L 89.568 172.93567 
L 95.52 172.034261 
L 101.472 170.724118 
L 103.905928 170.064 
L 107.424 167.84677 
L 111.717431 164.52 
L 112.984906 158.976 
L 111.344709 153.432 
L 108.331406 147.888 
L 107.424 146.567154 
L 104.703393 142.344 
L 101.472 137.709194 
L 100.869935 136.8 
L 97.03839 131.256 
L 95.52 129.046123 
L 93.305735 125.712 
L 89.751992 120.168 
L 89.568 119.874184 
L 86.323504 114.624 
L 83.616 109.948473 
L 83.103848 109.08 
L 79.981579 103.536 
L 77.664 99.101443 
L 77.043899 97.992 
L 74.120426 92.448 
L 71.712 87.471984 
L 71.389813 86.904 
L 68.440279 81.36 
L 65.776067 75.816 
L 65.76 75.780629 
L 62.185974 70.272 
L 59.808 66.13451 
L 55.745297 64.728 
L 53.856 63.973353 
L 53.585157 64.728 
L 51.702838 70.272 
L 50.020502 75.816 
L 48.535843 81.36 
L 47.904 84.000213 
L 47.675514 86.904 
L 47.274139 92.448 
L 46.919311 97.992 
L 46.619183 103.536 
L 46.383366 109.08 
L 46.223245 114.624 
L 46.152381 120.168 
L 46.187032 125.712 
L 46.346835 131.256 
L 46.655719 136.8 
L 47.143159 142.344 
L 47.845963 147.888 
z
" clip-path="url(#pfbfdf9bb82)" style="fill: #32b67a"/>
   </g>
   <g id="PathCollection_13">
    <path d="M 47.845963 147.888 
L 47.143159 142.344 
L 46.655719 136.8 
L 46.346835 131.256 
L 46.187032 125.712 
L 46.152381 120.168 
L 46.223245 114.624 
L 46.383366 109.08 
L 46.619183 103.536 
L 46.919311 97.992 
L 47.274139 92.448 
L 47.675514 86.904 
L 47.904 84.000213 
L 48.535843 81.36 
L 50.020502 75.816 
L 51.702838 70.272 
L 53.585157 64.728 
L 53.856 63.973353 
L 55.745297 64.728 
L 59.808 66.13451 
L 62.185974 70.272 
L 65.76 75.780629 
L 65.776067 75.816 
L 68.440279 81.36 
L 71.389813 86.904 
L 71.712 87.471984 
L 74.120426 92.448 
L 77.043899 97.992 
L 77.664 99.101443 
L 79.981579 103.536 
L 83.103848 109.08 
L 83.616 109.948473 
L 86.323504 114.624 
L 89.568 119.874184 
L 89.751992 120.168 
L 93.305735 125.712 
L 95.52 129.046123 
L 97.03839 131.256 
L 100.869935 136.8 
L 101.472 137.709194 
L 104.703393 142.344 
L 107.424 146.567154 
L 108.331406 147.888 
L 111.344709 153.432 
L 112.984906 158.976 
L 111.717431 164.52 
L 107.424 167.84677 
L 103.905928 170.064 
L 101.472 170.724118 
L 95.52 172.034261 
L 89.568 172.93567 
L 83.616 173.375009 
L 77.664 173.285744 
L 71.712 172.583277 
L 65.76 171.156907 
L 63.072611 170.064 
L 59.808 168.199233 
L 55.610718 164.52 
L 53.856 162.510337 
L 51.952312 158.976 
L 49.632859 153.432 
L 47.904 148.206564 
z
M 47.904 138.42528 
L 48.532714 142.344 
L 49.804539 147.888 
L 51.489459 153.432 
L 53.656724 158.976 
L 53.856 159.345971 
L 58.373654 164.52 
L 59.808 165.777312 
L 65.76 169.05637 
L 68.85231 170.064 
L 71.712 170.701305 
L 77.664 171.242714 
L 83.616 171.167897 
L 89.568 170.561709 
L 92.436654 170.064 
L 95.52 168.93654 
L 101.472 165.811968 
L 103.419864 164.52 
L 105.654251 158.976 
L 104.639479 153.432 
L 102.108777 147.888 
L 101.472 146.851771 
L 98.85021 142.344 
L 95.52 137.101905 
L 95.335132 136.8 
L 91.727708 131.256 
L 89.568 127.892089 
L 88.185008 125.712 
L 84.755707 120.168 
L 83.616 118.257432 
L 81.402823 114.624 
L 78.238614 109.08 
L 77.664 108.025628 
L 75.032991 103.536 
L 72.057683 97.992 
L 71.712 97.312241 
L 68.781664 92.448 
L 65.788281 86.904 
L 65.76 86.848424 
L 61.562425 81.36 
L 59.808 78.755387 
L 53.856 78.55552 
L 52.998049 81.36 
L 51.460345 86.904 
L 50.129907 92.448 
L 49.008483 97.992 
L 48.099664 103.536 
L 47.904 105.03736 
L 47.706012 109.08 
L 47.506896 114.624 
L 47.395802 120.168 
L 47.388943 125.712 
L 47.505914 131.256 
L 47.770609 136.8 
z
" clip-path="url(#pfbfdf9bb82)" style="fill: #4ec36b"/>
   </g>
   <g id="PathCollection_14">
    <path d="M 47.770609 136.8 
L 47.505914 131.256 
L 47.388943 125.712 
L 47.395802 120.168 
L 47.506896 114.624 
L 47.706012 109.08 
L 47.904 105.03736 
L 48.099664 103.536 
L 49.008483 97.992 
L 50.129907 92.448 
L 51.460345 86.904 
L 52.998049 81.36 
L 53.856 78.55552 
L 59.808 78.755387 
L 61.562425 81.36 
L 65.76 86.848424 
L 65.788281 86.904 
L 68.781664 92.448 
L 71.712 97.312241 
L 72.057683 97.992 
L 75.032991 103.536 
L 77.664 108.025628 
L 78.238614 109.08 
L 81.402823 114.624 
L 83.616 118.257432 
L 84.755707 120.168 
L 88.185008 125.712 
L 89.568 127.892089 
L 91.727708 131.256 
L 95.335132 136.8 
L 95.52 137.101905 
L 98.85021 142.344 
L 101.472 146.851771 
L 102.108777 147.888 
L 104.639479 153.432 
L 105.654251 158.976 
L 103.419864 164.52 
L 101.472 165.811968 
L 95.52 168.93654 
L 92.436654 170.064 
L 89.568 170.561709 
L 83.616 171.167897 
L 77.664 171.242714 
L 71.712 170.701305 
L 68.85231 170.064 
L 65.76 169.05637 
L 59.808 165.777312 
L 58.373654 164.52 
L 53.856 159.345971 
L 53.656724 158.976 
L 51.489459 153.432 
L 49.804539 147.888 
L 48.532714 142.344 
L 47.904 138.42528 
z
M 53.856 154.747259 
L 56.660766 158.976 
L 59.808 162.708646 
L 62.342109 164.52 
L 65.76 166.30466 
L 71.712 168.003413 
L 77.664 168.575951 
L 83.616 168.083809 
L 89.568 166.543495 
L 94.298754 164.52 
L 95.52 163.032891 
L 98.027888 158.976 
L 97.769474 153.432 
L 95.765262 147.888 
L 95.52 147.436123 
L 92.862621 142.344 
L 89.656198 136.8 
L 89.568 136.659086 
L 86.224939 131.256 
L 83.616 126.952237 
L 82.843231 125.712 
L 79.443731 120.168 
L 77.664 117.111399 
L 76.084836 114.624 
L 72.789269 109.08 
L 71.712 107.150913 
L 69.252596 103.536 
L 65.870414 97.992 
L 65.76 97.799276 
L 60.786895 92.448 
L 59.808 91.244782 
L 56.18915 92.448 
L 53.856 93.409073 
L 52.750054 97.992 
L 51.619282 103.536 
L 50.715132 109.08 
L 50.045242 114.624 
L 49.620075 120.168 
L 49.453474 125.712 
L 49.563408 131.256 
L 49.973025 136.8 
L 50.712142 142.344 
L 51.819465 147.888 
L 53.346059 153.432 
z
" clip-path="url(#pfbfdf9bb82)" style="fill: #70cf57"/>
   </g>
   <g id="PathCollection_15">
    <path d="M 53.346059 153.432 
L 51.819465 147.888 
L 50.712142 142.344 
L 49.973025 136.8 
L 49.563408 131.256 
L 49.453474 125.712 
L 49.620075 120.168 
L 50.045242 114.624 
L 50.715132 109.08 
L 51.619282 103.536 
L 52.750054 97.992 
L 53.856 93.409073 
L 56.18915 92.448 
L 59.808 91.244782 
L 60.786895 92.448 
L 65.76 97.799276 
L 65.870414 97.992 
L 69.252596 103.536 
L 71.712 107.150913 
L 72.789269 109.08 
L 76.084836 114.624 
L 77.664 117.111399 
L 79.443731 120.168 
L 82.843231 125.712 
L 83.616 126.952237 
L 86.224939 131.256 
L 89.568 136.659086 
L 89.656198 136.8 
L 92.862621 142.344 
L 95.52 147.436123 
L 95.765262 147.888 
L 97.769474 153.432 
L 98.027888 158.976 
L 95.52 163.032891 
L 94.298754 164.52 
L 89.568 166.543495 
L 83.616 168.083809 
L 77.664 168.575951 
L 71.712 168.003413 
L 65.76 166.30466 
L 62.342109 164.52 
L 59.808 162.708646 
L 56.660766 158.976 
L 53.856 154.747259 
z
M 53.856 147.968777 
L 56.507198 153.432 
L 59.808 158.920739 
L 59.868827 158.976 
L 65.76 162.93855 
L 70.215579 164.52 
L 71.712 164.887745 
L 77.664 165.058569 
L 81.258646 164.52 
L 83.616 163.716685 
L 89.568 159.089268 
L 89.665976 158.976 
L 90.460807 153.432 
L 89.568 149.949465 
L 89.045772 147.888 
L 86.521995 142.344 
L 83.617983 136.8 
L 83.616 136.796604 
L 80.276868 131.256 
L 77.664 126.801367 
L 76.952769 125.712 
L 73.405793 120.168 
L 71.712 117.348535 
L 69.630562 114.624 
L 65.822857 109.08 
L 65.76 108.982767 
L 59.808 104.079274 
L 54.566114 109.08 
L 53.856 110.07229 
L 53.14559 114.624 
L 52.522328 120.168 
L 52.164865 125.712 
L 52.090874 131.256 
L 52.323243 136.8 
L 52.891569 142.344 
L 53.834391 147.888 
z
" clip-path="url(#pfbfdf9bb82)" style="fill: #98d83e"/>
   </g>
   <g id="PathCollection_16">
    <path d="M 53.834391 147.888 
L 52.891569 142.344 
L 52.323243 136.8 
L 52.090874 131.256 
L 52.164865 125.712 
L 52.522328 120.168 
L 53.14559 114.624 
L 53.856 110.07229 
L 54.566114 109.08 
L 59.808 104.079274 
L 65.76 108.982767 
L 65.822857 109.08 
L 69.630562 114.624 
L 71.712 117.348535 
L 73.405793 120.168 
L 76.952769 125.712 
L 77.664 126.801367 
L 80.276868 131.256 
L 83.616 136.796604 
L 83.617983 136.8 
L 86.521995 142.344 
L 89.045772 147.888 
L 89.568 149.949465 
L 90.460807 153.432 
L 89.665976 158.976 
L 89.568 159.089268 
L 83.616 163.716685 
L 81.258646 164.52 
L 77.664 165.058569 
L 71.712 164.887745 
L 70.215579 164.52 
L 65.76 162.93855 
L 59.868827 158.976 
L 59.808 158.920739 
L 56.507198 153.432 
L 53.856 147.968777 
z
M 59.808 152.397844 
L 60.657421 153.432 
L 65.76 158.03251 
L 68.457643 158.976 
L 71.712 159.754467 
L 77.664 158.983231 
L 77.680114 158.976 
L 81.654574 153.432 
L 81.254152 147.888 
L 79.300463 142.344 
L 77.664 138.918436 
L 76.497429 136.8 
L 73.163573 131.256 
L 71.712 128.854289 
L 69.109057 125.712 
L 65.76 121.290164 
L 63.024922 120.168 
L 59.808 118.647257 
L 58.924706 120.168 
L 56.806546 125.712 
L 55.858147 131.256 
L 55.828464 136.8 
L 56.575061 142.344 
L 58.026029 147.888 
z
" clip-path="url(#pfbfdf9bb82)" style="fill: #c2df23"/>
   </g>
   <g id="PathCollection_17">
    <path d="M 58.026029 147.888 
L 56.575061 142.344 
L 55.828464 136.8 
L 55.858147 131.256 
L 56.806546 125.712 
L 58.924706 120.168 
L 59.808 118.647257 
L 63.024922 120.168 
L 65.76 121.290164 
L 69.109057 125.712 
L 71.712 128.854289 
L 73.163573 131.256 
L 76.497429 136.8 
L 77.664 138.918436 
L 79.300463 142.344 
L 81.254152 147.888 
L 81.654574 153.432 
L 77.680114 158.976 
L 77.664 158.983231 
L 71.712 159.754467 
L 68.457643 158.976 
L 65.76 158.03251 
L 60.657421 153.432 
L 59.808 152.397844 
z
" clip-path="url(#pfbfdf9bb82)" style="fill: #ece51b"/>
   </g>
   <g id="PathCollection_18">
    <defs>
     <path id="m572c2960bb" d="M -4.330127 4.330127 
L 4.330127 -4.330127 
M -4.330127 -4.330127 
L 4.330127 4.330127 
" style="stroke: #000000; stroke-width: 2"/>
    </defs>
    <g clip-path="url(#pfbfdf9bb82)">
     <use xlink:href="#m572c2960bb" x="65.76" y="146.04" style="stroke: #000000; stroke-width: 2"/>
    </g>
   </g>
   <g id="matplotlib.axis_1">
    <g id="xtick_1">
     <g id="line2d_1">
      <defs>
       <path id="m506362f0c9" d="M 0 0 
L 0 6 
" style="stroke: #000000; stroke-width: 2"/>
      </defs>
      <g>
       <use xlink:href="#m506362f0c9" x="65.76" y="192.24" style="stroke: #000000; stroke-width: 2"/>
      </g>
     </g>
     <g id="text_1">
      <!-- $\mathdefault{200}$ -->
      <g transform="translate(52.39 212.377813) scale(0.14 -0.14)">
       <defs>
        <path id="DejaVuSans-32" d="M 1228 531 
L 3431 531 
L 3431 0 
L 469 0 
L 469 531 
Q 828 903 1448 1529 
Q 2069 2156 2228 2338 
Q 2531 2678 2651 2914 
Q 2772 3150 2772 3378 
Q 2772 3750 2511 3984 
Q 2250 4219 1831 4219 
Q 1534 4219 1204 4116 
Q 875 4013 500 3803 
L 500 4441 
Q 881 4594 1212 4672 
Q 1544 4750 1819 4750 
Q 2544 4750 2975 4387 
Q 3406 4025 3406 3419 
Q 3406 3131 3298 2873 
Q 3191 2616 2906 2266 
Q 2828 2175 2409 1742 
Q 1991 1309 1228 531 
z
" transform="scale(0.015625)"/>
        <path id="DejaVuSans-30" d="M 2034 4250 
Q 1547 4250 1301 3770 
Q 1056 3291 1056 2328 
Q 1056 1369 1301 889 
Q 1547 409 2034 409 
Q 2525 409 2770 889 
Q 3016 1369 3016 2328 
Q 3016 3291 2770 3770 
Q 2525 4250 2034 4250 
z
M 2034 4750 
Q 2819 4750 3233 4129 
Q 3647 3509 3647 2328 
Q 3647 1150 3233 529 
Q 2819 -91 2034 -91 
Q 1250 -91 836 529 
Q 422 1150 422 2328 
Q 422 3509 836 4129 
Q 1250 4750 2034 4750 
z
" transform="scale(0.015625)"/>
       </defs>
       <use xlink:href="#DejaVuSans-32" transform="translate(0 0.78125)"/>
       <use xlink:href="#DejaVuSans-30" transform="translate(63.623047 0.78125)"/>
       <use xlink:href="#DejaVuSans-30" transform="translate(127.246094 0.78125)"/>
      </g>
     </g>
    </g>
    <g id="xtick_2">
     <g id="line2d_2">
      <g>
       <use xlink:href="#m506362f0c9" x="105.44" y="192.24" style="stroke: #000000; stroke-width: 2"/>
      </g>
     </g>
     <g id="text_2">
      <!-- $\mathdefault{400}$ -->
      <g transform="translate(92.07 212.377813) scale(0.14 -0.14)">
       <defs>
        <path id="DejaVuSans-34" d="M 2419 4116 
L 825 1625 
L 2419 1625 
L 2419 4116 
z
M 2253 4666 
L 3047 4666 
L 3047 1625 
L 3713 1625 
L 3713 1100 
L 3047 1100 
L 3047 0 
L 2419 0 
L 2419 1100 
L 313 1100 
L 313 1709 
L 2253 4666 
z
" transform="scale(0.015625)"/>
       </defs>
       <use xlink:href="#DejaVuSans-34" transform="translate(0 0.78125)"/>
       <use xlink:href="#DejaVuSans-30" transform="translate(63.623047 0.78125)"/>
       <use xlink:href="#DejaVuSans-30" transform="translate(127.246094 0.78125)"/>
      </g>
     </g>
    </g>
    <g id="xtick_3">
     <g id="line2d_3">
      <g>
       <use xlink:href="#m506362f0c9" x="145.12" y="192.24" style="stroke: #000000; stroke-width: 2"/>
      </g>
     </g>
     <g id="text_3">
      <!-- $\mathdefault{600}$ -->
      <g transform="translate(131.75 212.377813) scale(0.14 -0.14)">
       <defs>
        <path id="DejaVuSans-36" d="M 2113 2584 
Q 1688 2584 1439 2293 
Q 1191 2003 1191 1497 
Q 1191 994 1439 701 
Q 1688 409 2113 409 
Q 2538 409 2786 701 
Q 3034 994 3034 1497 
Q 3034 2003 2786 2293 
Q 2538 2584 2113 2584 
z
M 3366 4563 
L 3366 3988 
Q 3128 4100 2886 4159 
Q 2644 4219 2406 4219 
Q 1781 4219 1451 3797 
Q 1122 3375 1075 2522 
Q 1259 2794 1537 2939 
Q 1816 3084 2150 3084 
Q 2853 3084 3261 2657 
Q 3669 2231 3669 1497 
Q 3669 778 3244 343 
Q 2819 -91 2113 -91 
Q 1303 -91 875 529 
Q 447 1150 447 2328 
Q 447 3434 972 4092 
Q 1497 4750 2381 4750 
Q 2619 4750 2861 4703 
Q 3103 4656 3366 4563 
z
" transform="scale(0.015625)"/>
       </defs>
       <use xlink:href="#DejaVuSans-36" transform="translate(0 0.78125)"/>
       <use xlink:href="#DejaVuSans-30" transform="translate(63.623047 0.78125)"/>
       <use xlink:href="#DejaVuSans-30" transform="translate(127.246094 0.78125)"/>
      </g>
     </g>
    </g>
    <g id="xtick_4">
     <g id="line2d_4">
      <g>
       <use xlink:href="#m506362f0c9" x="184.8" y="192.24" style="stroke: #000000; stroke-width: 2"/>
      </g>
     </g>
     <g id="text_4">
      <!-- $\mathdefault{800}$ -->
      <g transform="translate(171.43 212.377813) scale(0.14 -0.14)">
       <defs>
        <path id="DejaVuSans-38" d="M 2034 2216 
Q 1584 2216 1326 1975 
Q 1069 1734 1069 1313 
Q 1069 891 1326 650 
Q 1584 409 2034 409 
Q 2484 409 2743 651 
Q 3003 894 3003 1313 
Q 3003 1734 2745 1975 
Q 2488 2216 2034 2216 
z
M 1403 2484 
Q 997 2584 770 2862 
Q 544 3141 544 3541 
Q 544 4100 942 4425 
Q 1341 4750 2034 4750 
Q 2731 4750 3128 4425 
Q 3525 4100 3525 3541 
Q 3525 3141 3298 2862 
Q 3072 2584 2669 2484 
Q 3125 2378 3379 2068 
Q 3634 1759 3634 1313 
Q 3634 634 3220 271 
Q 2806 -91 2034 -91 
Q 1263 -91 848 271 
Q 434 634 434 1313 
Q 434 1759 690 2068 
Q 947 2378 1403 2484 
z
M 1172 3481 
Q 1172 3119 1398 2916 
Q 1625 2713 2034 2713 
Q 2441 2713 2670 2916 
Q 2900 3119 2900 3481 
Q 2900 3844 2670 4047 
Q 2441 4250 2034 4250 
Q 1625 4250 1398 4047 
Q 1172 3844 1172 3481 
z
" transform="scale(0.015625)"/>
       </defs>
       <use xlink:href="#DejaVuSans-38" transform="translate(0 0.78125)"/>
       <use xlink:href="#DejaVuSans-30" transform="translate(63.623047 0.78125)"/>
       <use xlink:href="#DejaVuSans-30" transform="translate(127.246094 0.78125)"/>
      </g>
     </g>
    </g>
    <g id="text_5">
     <!-- Diploid N$_e$0 -->
     <g transform="translate(74.34 232.969375) scale(0.18 -0.18)">
      <defs>
       <path id="DejaVuSans-44" d="M 1259 4147 
L 1259 519 
L 2022 519 
Q 2988 519 3436 956 
Q 3884 1394 3884 2338 
Q 3884 3275 3436 3711 
Q 2988 4147 2022 4147 
L 1259 4147 
z
M 628 4666 
L 1925 4666 
Q 3281 4666 3915 4102 
Q 4550 3538 4550 2338 
Q 4550 1131 3912 565 
Q 3275 0 1925 0 
L 628 0 
L 628 4666 
z
" transform="scale(0.015625)"/>
       <path id="DejaVuSans-69" d="M 603 3500 
L 1178 3500 
L 1178 0 
L 603 0 
L 603 3500 
z
M 603 4863 
L 1178 4863 
L 1178 4134 
L 603 4134 
L 603 4863 
z
" transform="scale(0.015625)"/>
       <path id="DejaVuSans-70" d="M 1159 525 
L 1159 -1331 
L 581 -1331 
L 581 3500 
L 1159 3500 
L 1159 2969 
Q 1341 3281 1617 3432 
Q 1894 3584 2278 3584 
Q 2916 3584 3314 3078 
Q 3713 2572 3713 1747 
Q 3713 922 3314 415 
Q 2916 -91 2278 -91 
Q 1894 -91 1617 61 
Q 1341 213 1159 525 
z
M 3116 1747 
Q 3116 2381 2855 2742 
Q 2594 3103 2138 3103 
Q 1681 3103 1420 2742 
Q 1159 2381 1159 1747 
Q 1159 1113 1420 752 
Q 1681 391 2138 391 
Q 2594 391 2855 752 
Q 3116 1113 3116 1747 
z
" transform="scale(0.015625)"/>
       <path id="DejaVuSans-6c" d="M 603 4863 
L 1178 4863 
L 1178 0 
L 603 0 
L 603 4863 
z
" transform="scale(0.015625)"/>
       <path id="DejaVuSans-6f" d="M 1959 3097 
Q 1497 3097 1228 2736 
Q 959 2375 959 1747 
Q 959 1119 1226 758 
Q 1494 397 1959 397 
Q 2419 397 2687 759 
Q 2956 1122 2956 1747 
Q 2956 2369 2687 2733 
Q 2419 3097 1959 3097 
z
M 1959 3584 
Q 2709 3584 3137 3096 
Q 3566 2609 3566 1747 
Q 3566 888 3137 398 
Q 2709 -91 1959 -91 
Q 1206 -91 779 398 
Q 353 888 353 1747 
Q 353 2609 779 3096 
Q 1206 3584 1959 3584 
z
" transform="scale(0.015625)"/>
       <path id="DejaVuSans-64" d="M 2906 2969 
L 2906 4863 
L 3481 4863 
L 3481 0 
L 2906 0 
L 2906 525 
Q 2725 213 2448 61 
Q 2172 -91 1784 -91 
Q 1150 -91 751 415 
Q 353 922 353 1747 
Q 353 2572 751 3078 
Q 1150 3584 1784 3584 
Q 2172 3584 2448 3432 
Q 2725 3281 2906 2969 
z
M 947 1747 
Q 947 1113 1208 752 
Q 1469 391 1925 391 
Q 2381 391 2643 752 
Q 2906 1113 2906 1747 
Q 2906 2381 2643 2742 
Q 2381 3103 1925 3103 
Q 1469 3103 1208 2742 
Q 947 2381 947 1747 
z
" transform="scale(0.015625)"/>
       <path id="DejaVuSans-20" transform="scale(0.015625)"/>
       <path id="DejaVuSans-4e" d="M 628 4666 
L 1478 4666 
L 3547 763 
L 3547 4666 
L 4159 4666 
L 4159 0 
L 3309 0 
L 1241 3903 
L 1241 0 
L 628 0 
L 628 4666 
z
" transform="scale(0.015625)"/>
       <path id="DejaVuSans-Oblique-65" d="M 3078 2063 
Q 3088 2113 3092 2166 
Q 3097 2219 3097 2272 
Q 3097 2653 2873 2875 
Q 2650 3097 2266 3097 
Q 1838 3097 1509 2826 
Q 1181 2556 1013 2059 
L 3078 2063 
z
M 3578 1613 
L 903 1613 
Q 884 1494 878 1425 
Q 872 1356 872 1306 
Q 872 872 1139 634 
Q 1406 397 1894 397 
Q 2269 397 2603 481 
Q 2938 566 3225 728 
L 3116 159 
Q 2806 34 2476 -28 
Q 2147 -91 1806 -91 
Q 1078 -91 686 257 
Q 294 606 294 1247 
Q 294 1794 489 2264 
Q 684 2734 1063 3103 
Q 1306 3334 1642 3459 
Q 1978 3584 2356 3584 
Q 2950 3584 3301 3228 
Q 3653 2872 3653 2272 
Q 3653 2128 3634 1964 
Q 3616 1800 3578 1613 
z
" transform="scale(0.015625)"/>
      </defs>
      <use xlink:href="#DejaVuSans-44" transform="translate(0 0.015625)"/>
      <use xlink:href="#DejaVuSans-69" transform="translate(77.001953 0.015625)"/>
      <use xlink:href="#DejaVuSans-70" transform="translate(104.785156 0.015625)"/>
      <use xlink:href="#DejaVuSans-6c" transform="translate(168.261719 0.015625)"/>
      <use xlink:href="#DejaVuSans-6f" transform="translate(196.044922 0.015625)"/>
      <use xlink:href="#DejaVuSans-69" transform="translate(257.226562 0.015625)"/>
      <use xlink:href="#DejaVuSans-64" transform="translate(285.009766 0.015625)"/>
      <use xlink:href="#DejaVuSans-20" transform="translate(348.486328 0.015625)"/>
      <use xlink:href="#DejaVuSans-4e" transform="translate(380.273438 0.015625)"/>
      <use xlink:href="#DejaVuSans-Oblique-65" transform="translate(456.035156 -16.390625) scale(0.7)"/>
      <use xlink:href="#DejaVuSans-30" transform="translate(501.835938 0.015625)"/>
     </g>
    </g>
    <g id="text_6">
     <!-- $\times\mathdefault{10^{3}}\mathdefault{}$ -->
     <g transform="translate(188.56 225.887812) scale(0.1 -0.1)">
      <defs>
       <path id="DejaVuSans-d7" d="M 4488 3438 
L 3059 2003 
L 4488 575 
L 4116 197 
L 2681 1631 
L 1247 197 
L 878 575 
L 2303 2003 
L 878 3438 
L 1247 3816 
L 2681 2381 
L 4116 3816 
L 4488 3438 
z
" transform="scale(0.015625)"/>
       <path id="DejaVuSans-31" d="M 794 531 
L 1825 531 
L 1825 4091 
L 703 3866 
L 703 4441 
L 1819 4666 
L 2450 4666 
L 2450 531 
L 3481 531 
L 3481 0 
L 794 0 
L 794 531 
z
" transform="scale(0.015625)"/>
       <path id="DejaVuSans-33" d="M 2597 2516 
Q 3050 2419 3304 2112 
Q 3559 1806 3559 1356 
Q 3559 666 3084 287 
Q 2609 -91 1734 -91 
Q 1441 -91 1130 -33 
Q 819 25 488 141 
L 488 750 
Q 750 597 1062 519 
Q 1375 441 1716 441 
Q 2309 441 2620 675 
Q 2931 909 2931 1356 
Q 2931 1769 2642 2001 
Q 2353 2234 1838 2234 
L 1294 2234 
L 1294 2753 
L 1863 2753 
Q 2328 2753 2575 2939 
Q 2822 3125 2822 3475 
Q 2822 3834 2567 4026 
Q 2313 4219 1838 4219 
Q 1578 4219 1281 4162 
Q 984 4106 628 3988 
L 628 4550 
Q 988 4650 1302 4700 
Q 1616 4750 1894 4750 
Q 2613 4750 3031 4423 
Q 3450 4097 3450 3541 
Q 3450 3153 3228 2886 
Q 3006 2619 2597 2516 
z
" transform="scale(0.015625)"/>
      </defs>
      <use xlink:href="#DejaVuSans-d7" transform="translate(0 0.765625)"/>
      <use xlink:href="#DejaVuSans-31" transform="translate(83.789062 0.765625)"/>
      <use xlink:href="#DejaVuSans-30" transform="translate(147.412109 0.765625)"/>
      <use xlink:href="#DejaVuSans-33" transform="translate(211.992188 39.046875) scale(0.7)"/>
     </g>
    </g>
   </g>
   <g id="matplotlib.axis_2">
    <g id="ytick_1">
     <g id="line2d_5">
      <defs>
       <path id="m81b153d5ad" d="M 0 0 
L -6 0 
" style="stroke: #000000; stroke-width: 2"/>
      </defs>
      <g>
       <use xlink:href="#m81b153d5ad" x="36" y="164.52" style="stroke: #000000; stroke-width: 2"/>
      </g>
     </g>
     <g id="text_7">
      <!-- $\mathdefault{200}$ -->
      <g transform="translate(-0.24 169.838906) scale(0.14 -0.14)">
       <use xlink:href="#DejaVuSans-32" transform="translate(0 0.78125)"/>
       <use xlink:href="#DejaVuSans-30" transform="translate(63.623047 0.78125)"/>
       <use xlink:href="#DejaVuSans-30" transform="translate(127.246094 0.78125)"/>
      </g>
     </g>
    </g>
    <g id="ytick_2">
     <g id="line2d_6">
      <g>
       <use xlink:href="#m81b153d5ad" x="36" y="127.56" style="stroke: #000000; stroke-width: 2"/>
      </g>
     </g>
     <g id="text_8">
      <!-- $\mathdefault{400}$ -->
      <g transform="translate(-0.24 132.878906) scale(0.14 -0.14)">
       <use xlink:href="#DejaVuSans-34" transform="translate(0 0.78125)"/>
       <use xlink:href="#DejaVuSans-30" transform="translate(63.623047 0.78125)"/>
       <use xlink:href="#DejaVuSans-30" transform="translate(127.246094 0.78125)"/>
      </g>
     </g>
    </g>
    <g id="ytick_3">
     <g id="line2d_7">
      <g>
       <use xlink:href="#m81b153d5ad" x="36" y="90.6" style="stroke: #000000; stroke-width: 2"/>
      </g>
     </g>
     <g id="text_9">
      <!-- $\mathdefault{600}$ -->
      <g transform="translate(-0.24 95.918906) scale(0.14 -0.14)">
       <use xlink:href="#DejaVuSans-36" transform="translate(0 0.78125)"/>
       <use xlink:href="#DejaVuSans-30" transform="translate(63.623047 0.78125)"/>
       <use xlink:href="#DejaVuSans-30" transform="translate(127.246094 0.78125)"/>
      </g>
     </g>
    </g>
    <g id="ytick_4">
     <g id="line2d_8">
      <g>
       <use xlink:href="#m81b153d5ad" x="36" y="53.64" style="stroke: #000000; stroke-width: 2"/>
      </g>
     </g>
     <g id="text_10">
      <!-- $\mathdefault{800}$ -->
      <g transform="translate(-0.24 58.958906) scale(0.14 -0.14)">
       <use xlink:href="#DejaVuSans-38" transform="translate(0 0.78125)"/>
       <use xlink:href="#DejaVuSans-30" transform="translate(63.623047 0.78125)"/>
       <use xlink:href="#DejaVuSans-30" transform="translate(127.246094 0.78125)"/>
      </g>
     </g>
    </g>
    <g id="text_11">
     <!-- Diploid N$_e$1 -->
     <g transform="translate(-8.02 160.02) rotate(-90) scale(0.18 -0.18)">
      <use xlink:href="#DejaVuSans-44" transform="translate(0 0.015625)"/>
      <use xlink:href="#DejaVuSans-69" transform="translate(77.001953 0.015625)"/>
      <use xlink:href="#DejaVuSans-70" transform="translate(104.785156 0.015625)"/>
      <use xlink:href="#DejaVuSans-6c" transform="translate(168.261719 0.015625)"/>
      <use xlink:href="#DejaVuSans-6f" transform="translate(196.044922 0.015625)"/>
      <use xlink:href="#DejaVuSans-69" transform="translate(257.226562 0.015625)"/>
      <use xlink:href="#DejaVuSans-64" transform="translate(285.009766 0.015625)"/>
      <use xlink:href="#DejaVuSans-20" transform="translate(348.486328 0.015625)"/>
      <use xlink:href="#DejaVuSans-4e" transform="translate(380.273438 0.015625)"/>
      <use xlink:href="#DejaVuSans-Oblique-65" transform="translate(456.035156 -16.390625) scale(0.7)"/>
      <use xlink:href="#DejaVuSans-31" transform="translate(501.835938 0.015625)"/>
     </g>
    </g>
    <g id="text_12">
     <!-- $\times\mathdefault{10^{3}}\mathdefault{}$ -->
     <g transform="translate(36 22.92) scale(0.1 -0.1)">
      <use xlink:href="#DejaVuSans-d7" transform="translate(0 0.765625)"/>
      <use xlink:href="#DejaVuSans-31" transform="translate(83.789062 0.765625)"/>
      <use xlink:href="#DejaVuSans-30" transform="translate(147.412109 0.765625)"/>
      <use xlink:href="#DejaVuSans-33" transform="translate(211.992188 39.046875) scale(0.7)"/>
     </g>
    </g>
   </g>
   <g id="patch_3">
    <path d="M 36 192.24 
L 36 25.92 
" style="fill: none; stroke: #000000; stroke-width: 0.8; stroke-linejoin: miter; stroke-linecap: square"/>
   </g>
   <g id="patch_4">
    <path d="M 214.56 192.24 
L 214.56 25.92 
" style="fill: none; stroke: #000000; stroke-width: 0.8; stroke-linejoin: miter; stroke-linecap: square"/>
   </g>
   <g id="patch_5">
    <path d="M 36 192.24 
L 214.56 192.24 
" style="fill: none; stroke: #000000; stroke-width: 0.8; stroke-linejoin: miter; stroke-linecap: square"/>
   </g>
   <g id="patch_6">
    <path d="M 36 25.92 
L 214.56 25.92 
" style="fill: none; stroke: #000000; stroke-width: 0.8; stroke-linejoin: miter; stroke-linecap: square"/>
   </g>
   <g id="text_13">
    <!-- Ne0Ne1-MSSMC-RGT-P2-S4 -->
    <g transform="translate(16.485 10.92) scale(0.16 -0.16)">
     <defs>
      <path id="DejaVuSans-65" d="M 3597 1894 
L 3597 1613 
L 953 1613 
Q 991 1019 1311 708 
Q 1631 397 2203 397 
Q 2534 397 2845 478 
Q 3156 559 3463 722 
L 3463 178 
Q 3153 47 2828 -22 
Q 2503 -91 2169 -91 
Q 1331 -91 842 396 
Q 353 884 353 1716 
Q 353 2575 817 3079 
Q 1281 3584 2069 3584 
Q 2775 3584 3186 3129 
Q 3597 2675 3597 1894 
z
M 3022 2063 
Q 3016 2534 2758 2815 
Q 2500 3097 2075 3097 
Q 1594 3097 1305 2825 
Q 1016 2553 972 2059 
L 3022 2063 
z
" transform="scale(0.015625)"/>
      <path id="DejaVuSans-2d" d="M 313 2009 
L 1997 2009 
L 1997 1497 
L 313 1497 
L 313 2009 
z
" transform="scale(0.015625)"/>
      <path id="DejaVuSans-4d" d="M 628 4666 
L 1569 4666 
L 2759 1491 
L 3956 4666 
L 4897 4666 
L 4897 0 
L 4281 0 
L 4281 4097 
L 3078 897 
L 2444 897 
L 1241 4097 
L 1241 0 
L 628 0 
L 628 4666 
z
" transform="scale(0.015625)"/>
      <path id="DejaVuSans-53" d="M 3425 4513 
L 3425 3897 
Q 3066 4069 2747 4153 
Q 2428 4238 2131 4238 
Q 1616 4238 1336 4038 
Q 1056 3838 1056 3469 
Q 1056 3159 1242 3001 
Q 1428 2844 1947 2747 
L 2328 2669 
Q 3034 2534 3370 2195 
Q 3706 1856 3706 1288 
Q 3706 609 3251 259 
Q 2797 -91 1919 -91 
Q 1588 -91 1214 -16 
Q 841 59 441 206 
L 441 856 
Q 825 641 1194 531 
Q 1563 422 1919 422 
Q 2459 422 2753 634 
Q 3047 847 3047 1241 
Q 3047 1584 2836 1778 
Q 2625 1972 2144 2069 
L 1759 2144 
Q 1053 2284 737 2584 
Q 422 2884 422 3419 
Q 422 4038 858 4394 
Q 1294 4750 2059 4750 
Q 2388 4750 2728 4690 
Q 3069 4631 3425 4513 
z
" transform="scale(0.015625)"/>
      <path id="DejaVuSans-43" d="M 4122 4306 
L 4122 3641 
Q 3803 3938 3442 4084 
Q 3081 4231 2675 4231 
Q 1875 4231 1450 3742 
Q 1025 3253 1025 2328 
Q 1025 1406 1450 917 
Q 1875 428 2675 428 
Q 3081 428 3442 575 
Q 3803 722 4122 1019 
L 4122 359 
Q 3791 134 3420 21 
Q 3050 -91 2638 -91 
Q 1578 -91 968 557 
Q 359 1206 359 2328 
Q 359 3453 968 4101 
Q 1578 4750 2638 4750 
Q 3056 4750 3426 4639 
Q 3797 4528 4122 4306 
z
" transform="scale(0.015625)"/>
      <path id="DejaVuSans-52" d="M 2841 2188 
Q 3044 2119 3236 1894 
Q 3428 1669 3622 1275 
L 4263 0 
L 3584 0 
L 2988 1197 
Q 2756 1666 2539 1819 
Q 2322 1972 1947 1972 
L 1259 1972 
L 1259 0 
L 628 0 
L 628 4666 
L 2053 4666 
Q 2853 4666 3247 4331 
Q 3641 3997 3641 3322 
Q 3641 2881 3436 2590 
Q 3231 2300 2841 2188 
z
M 1259 4147 
L 1259 2491 
L 2053 2491 
Q 2509 2491 2742 2702 
Q 2975 2913 2975 3322 
Q 2975 3731 2742 3939 
Q 2509 4147 2053 4147 
L 1259 4147 
z
" transform="scale(0.015625)"/>
      <path id="DejaVuSans-47" d="M 3809 666 
L 3809 1919 
L 2778 1919 
L 2778 2438 
L 4434 2438 
L 4434 434 
Q 4069 175 3628 42 
Q 3188 -91 2688 -91 
Q 1594 -91 976 548 
Q 359 1188 359 2328 
Q 359 3472 976 4111 
Q 1594 4750 2688 4750 
Q 3144 4750 3555 4637 
Q 3966 4525 4313 4306 
L 4313 3634 
Q 3963 3931 3569 4081 
Q 3175 4231 2741 4231 
Q 1884 4231 1454 3753 
Q 1025 3275 1025 2328 
Q 1025 1384 1454 906 
Q 1884 428 2741 428 
Q 3075 428 3337 486 
Q 3600 544 3809 666 
z
" transform="scale(0.015625)"/>
      <path id="DejaVuSans-54" d="M -19 4666 
L 3928 4666 
L 3928 4134 
L 2272 4134 
L 2272 0 
L 1638 0 
L 1638 4134 
L -19 4134 
L -19 4666 
z
" transform="scale(0.015625)"/>
      <path id="DejaVuSans-50" d="M 1259 4147 
L 1259 2394 
L 2053 2394 
Q 2494 2394 2734 2622 
Q 2975 2850 2975 3272 
Q 2975 3691 2734 3919 
Q 2494 4147 2053 4147 
L 1259 4147 
z
M 628 4666 
L 2053 4666 
Q 2838 4666 3239 4311 
Q 3641 3956 3641 3272 
Q 3641 2581 3239 2228 
Q 2838 1875 2053 1875 
L 1259 1875 
L 1259 0 
L 628 0 
L 628 4666 
z
" transform="scale(0.015625)"/>
     </defs>
     <use xlink:href="#DejaVuSans-4e"/>
     <use xlink:href="#DejaVuSans-65" x="74.804688"/>
     <use xlink:href="#DejaVuSans-30" x="136.328125"/>
     <use xlink:href="#DejaVuSans-4e" x="199.951172"/>
     <use xlink:href="#DejaVuSans-65" x="274.755859"/>
     <use xlink:href="#DejaVuSans-31" x="336.279297"/>
     <use xlink:href="#DejaVuSans-2d" x="399.902344"/>
     <use xlink:href="#DejaVuSans-4d" x="435.986328"/>
     <use xlink:href="#DejaVuSans-53" x="522.265625"/>
     <use xlink:href="#DejaVuSans-53" x="585.742188"/>
     <use xlink:href="#DejaVuSans-4d" x="649.21875"/>
     <use xlink:href="#DejaVuSans-43" x="735.498047"/>
     <use xlink:href="#DejaVuSans-2d" x="805.322266"/>
     <use xlink:href="#DejaVuSans-52" x="841.40625"/>
     <use xlink:href="#DejaVuSans-47" x="910.888672"/>
     <use xlink:href="#DejaVuSans-54" x="984.753906"/>
     <use xlink:href="#DejaVuSans-2d" x="1036.712891"/>
     <use xlink:href="#DejaVuSans-50" x="1072.796875"/>
     <use xlink:href="#DejaVuSans-32" x="1133.099609"/>
     <use xlink:href="#DejaVuSans-2d" x="1196.722656"/>
     <use xlink:href="#DejaVuSans-53" x="1232.806641"/>
     <use xlink:href="#DejaVuSans-34" x="1296.283203"/>
    </g>
   </g>
  </g>
  <g id="axes_2">
   <g id="patch_7">
    <path d="M 225.72 192.24 
L 234.036 192.24 
L 234.036 25.92 
L 225.72 25.92 
z
" style="fill: #ffffff"/>
   </g>
   <g id="QuadMesh_1">
    <path d="M 225.72 192.24 
L 234.036 192.24 
L 234.036 182.456471 
L 225.72 182.456471 
L 225.72 192.24 
" clip-path="url(#pf818a0ac1e)" style="fill: #440154"/>
    <path d="M 225.72 182.456471 
L 234.036 182.456471 
L 234.036 172.672941 
L 225.72 172.672941 
L 225.72 182.456471 
" clip-path="url(#pf818a0ac1e)" style="fill: #470d60"/>
    <path d="M 225.72 172.672941 
L 234.036 172.672941 
L 234.036 162.889412 
L 225.72 162.889412 
L 225.72 172.672941 
" clip-path="url(#pf818a0ac1e)" style="fill: #482374"/>
    <path d="M 225.72 162.889412 
L 234.036 162.889412 
L 234.036 153.105882 
L 225.72 153.105882 
L 225.72 162.889412 
" clip-path="url(#pf818a0ac1e)" style="fill: #453781"/>
    <path d="M 225.72 153.105882 
L 234.036 153.105882 
L 234.036 143.322353 
L 225.72 143.322353 
L 225.72 153.105882 
" clip-path="url(#pf818a0ac1e)" style="fill: #3e4989"/>
    <path d="M 225.72 143.322353 
L 234.036 143.322353 
L 234.036 133.538824 
L 225.72 133.538824 
L 225.72 143.322353 
" clip-path="url(#pf818a0ac1e)" style="fill: #375b8d"/>
    <path d="M 225.72 133.538824 
L 234.036 133.538824 
L 234.036 123.755294 
L 225.72 123.755294 
L 225.72 133.538824 
" clip-path="url(#pf818a0ac1e)" style="fill: #2f6b8e"/>
    <path d="M 225.72 123.755294 
L 234.036 123.755294 
L 234.036 113.971765 
L 225.72 113.971765 
L 225.72 123.755294 
" clip-path="url(#pf818a0ac1e)" style="fill: #297a8e"/>
    <path d="M 225.72 113.971765 
L 234.036 113.971765 
L 234.036 104.188235 
L 225.72 104.188235 
L 225.72 113.971765 
" clip-path="url(#pf818a0ac1e)" style="fill: #23898e"/>
    <path d="M 225.72 104.188235 
L 234.036 104.188235 
L 234.036 94.404706 
L 225.72 94.404706 
L 225.72 104.188235 
" clip-path="url(#pf818a0ac1e)" style="fill: #1f988b"/>
    <path d="M 225.72 94.404706 
L 234.036 94.404706 
L 234.036 84.621176 
L 225.72 84.621176 
L 225.72 94.404706 
" clip-path="url(#pf818a0ac1e)" style="fill: #22a785"/>
    <path d="M 225.72 84.621176 
L 234.036 84.621176 
L 234.036 74.837647 
L 225.72 74.837647 
L 225.72 84.621176 
" clip-path="url(#pf818a0ac1e)" style="fill: #32b67a"/>
    <path d="M 225.72 74.837647 
L 234.036 74.837647 
L 234.036 65.054118 
L 225.72 65.054118 
L 225.72 74.837647 
" clip-path="url(#pf818a0ac1e)" style="fill: #4ec36b"/>
    <path d="M 225.72 65.054118 
L 234.036 65.054118 
L 234.036 55.270588 
L 225.72 55.270588 
L 225.72 65.054118 
" clip-path="url(#pf818a0ac1e)" style="fill: #70cf57"/>
    <path d="M 225.72 55.270588 
L 234.036 55.270588 
L 234.036 45.487059 
L 225.72 45.487059 
L 225.72 55.270588 
" clip-path="url(#pf818a0ac1e)" style="fill: #98d83e"/>
    <path d="M 225.72 45.487059 
L 234.036 45.487059 
L 234.036 35.703529 
L 225.72 35.703529 
L 225.72 45.487059 
" clip-path="url(#pf818a0ac1e)" style="fill: #c2df23"/>
    <path d="M 225.72 35.703529 
L 234.036 35.703529 
L 234.036 25.92 
L 225.72 25.92 
L 225.72 35.703529 
" clip-path="url(#pf818a0ac1e)" style="fill: #ece51b"/>
   </g>
   <g id="matplotlib.axis_3"/>
   <g id="matplotlib.axis_4">
    <g id="ytick_5">
     <g id="line2d_9">
      <defs>
       <path id="m3ba9d857fb" d="M 0 0 
L 3.5 0 
" style="stroke: #000000; stroke-width: 0.8"/>
      </defs>
      <g>
       <use xlink:href="#m3ba9d857fb" x="234.036" y="182.456471" style="stroke: #000000; stroke-width: 0.8"/>
      </g>
     </g>
     <g id="text_14">
      <!-- $\mathdefault{2.40}$ -->
      <g transform="translate(241.036 186.255689) scale(0.1 -0.1)">
       <defs>
        <path id="DejaVuSans-2212" d="M 678 2272 
L 4684 2272 
L 4684 1741 
L 678 1741 
L 678 2272 
z
" transform="scale(0.015625)"/>
        <path id="DejaVuSans-2e" d="M 684 794 
L 1344 794 
L 1344 0 
L 684 0 
L 684 794 
z
" transform="scale(0.015625)"/>
       </defs>
       <use xlink:href="#DejaVuSans-2212" transform="translate(0 0.78125)"/>
       <use xlink:href="#DejaVuSans-32" transform="translate(83.789062 0.78125)"/>
       <use xlink:href="#DejaVuSans-2e" transform="translate(147.412109 0.78125)"/>
       <use xlink:href="#DejaVuSans-34" transform="translate(179.199219 0.78125)"/>
       <use xlink:href="#DejaVuSans-30" transform="translate(242.822266 0.78125)"/>
      </g>
     </g>
    </g>
    <g id="ytick_6">
     <g id="line2d_10">
      <g>
       <use xlink:href="#m3ba9d857fb" x="234.036" y="162.889412" style="stroke: #000000; stroke-width: 0.8"/>
      </g>
     </g>
     <g id="text_15">
      <!-- $\mathdefault{2.35}$ -->
      <g transform="translate(241.036 166.688631) scale(0.1 -0.1)">
       <defs>
        <path id="DejaVuSans-35" d="M 691 4666 
L 3169 4666 
L 3169 4134 
L 1269 4134 
L 1269 2991 
Q 1406 3038 1543 3061 
Q 1681 3084 1819 3084 
Q 2600 3084 3056 2656 
Q 3513 2228 3513 1497 
Q 3513 744 3044 326 
Q 2575 -91 1722 -91 
Q 1428 -91 1123 -41 
Q 819 9 494 109 
L 494 744 
Q 775 591 1075 516 
Q 1375 441 1709 441 
Q 2250 441 2565 725 
Q 2881 1009 2881 1497 
Q 2881 1984 2565 2268 
Q 2250 2553 1709 2553 
Q 1456 2553 1204 2497 
Q 953 2441 691 2322 
L 691 4666 
z
" transform="scale(0.015625)"/>
       </defs>
       <use xlink:href="#DejaVuSans-2212" transform="translate(0 0.78125)"/>
       <use xlink:href="#DejaVuSans-32" transform="translate(83.789062 0.78125)"/>
       <use xlink:href="#DejaVuSans-2e" transform="translate(147.412109 0.78125)"/>
       <use xlink:href="#DejaVuSans-33" transform="translate(179.199219 0.78125)"/>
       <use xlink:href="#DejaVuSans-35" transform="translate(242.822266 0.78125)"/>
      </g>
     </g>
    </g>
    <g id="ytick_7">
     <g id="line2d_11">
      <g>
       <use xlink:href="#m3ba9d857fb" x="234.036" y="143.322353" style="stroke: #000000; stroke-width: 0.8"/>
      </g>
     </g>
     <g id="text_16">
      <!-- $\mathdefault{2.30}$ -->
      <g transform="translate(241.036 147.121572) scale(0.1 -0.1)">
       <use xlink:href="#DejaVuSans-2212" transform="translate(0 0.78125)"/>
       <use xlink:href="#DejaVuSans-32" transform="translate(83.789062 0.78125)"/>
       <use xlink:href="#DejaVuSans-2e" transform="translate(147.412109 0.78125)"/>
       <use xlink:href="#DejaVuSans-33" transform="translate(179.199219 0.78125)"/>
       <use xlink:href="#DejaVuSans-30" transform="translate(242.822266 0.78125)"/>
      </g>
     </g>
    </g>
    <g id="ytick_8">
     <g id="line2d_12">
      <g>
       <use xlink:href="#m3ba9d857fb" x="234.036" y="123.755294" style="stroke: #000000; stroke-width: 0.8"/>
      </g>
     </g>
     <g id="text_17">
      <!-- $\mathdefault{2.25}$ -->
      <g transform="translate(241.036 127.554513) scale(0.1 -0.1)">
       <use xlink:href="#DejaVuSans-2212" transform="translate(0 0.78125)"/>
       <use xlink:href="#DejaVuSans-32" transform="translate(83.789062 0.78125)"/>
       <use xlink:href="#DejaVuSans-2e" transform="translate(147.412109 0.78125)"/>
       <use xlink:href="#DejaVuSans-32" transform="translate(173.699219 0.78125)"/>
       <use xlink:href="#DejaVuSans-35" transform="translate(237.322266 0.78125)"/>
      </g>
     </g>
    </g>
    <g id="ytick_9">
     <g id="line2d_13">
      <g>
       <use xlink:href="#m3ba9d857fb" x="234.036" y="104.188235" style="stroke: #000000; stroke-width: 0.8"/>
      </g>
     </g>
     <g id="text_18">
      <!-- $\mathdefault{2.20}$ -->
      <g transform="translate(241.036 107.987454) scale(0.1 -0.1)">
       <use xlink:href="#DejaVuSans-2212" transform="translate(0 0.78125)"/>
       <use xlink:href="#DejaVuSans-32" transform="translate(83.789062 0.78125)"/>
       <use xlink:href="#DejaVuSans-2e" transform="translate(147.412109 0.78125)"/>
       <use xlink:href="#DejaVuSans-32" transform="translate(173.699219 0.78125)"/>
       <use xlink:href="#DejaVuSans-30" transform="translate(237.322266 0.78125)"/>
      </g>
     </g>
    </g>
    <g id="ytick_10">
     <g id="line2d_14">
      <g>
       <use xlink:href="#m3ba9d857fb" x="234.036" y="84.621176" style="stroke: #000000; stroke-width: 0.8"/>
      </g>
     </g>
     <g id="text_19">
      <!-- $\mathdefault{2.15}$ -->
      <g transform="translate(241.036 88.420395) scale(0.1 -0.1)">
       <use xlink:href="#DejaVuSans-2212" transform="translate(0 0.78125)"/>
       <use xlink:href="#DejaVuSans-32" transform="translate(83.789062 0.78125)"/>
       <use xlink:href="#DejaVuSans-2e" transform="translate(147.412109 0.78125)"/>
       <use xlink:href="#DejaVuSans-31" transform="translate(179.199219 0.78125)"/>
       <use xlink:href="#DejaVuSans-35" transform="translate(242.822266 0.78125)"/>
      </g>
     </g>
    </g>
    <g id="ytick_11">
     <g id="line2d_15">
      <g>
       <use xlink:href="#m3ba9d857fb" x="234.036" y="65.054118" style="stroke: #000000; stroke-width: 0.8"/>
      </g>
     </g>
     <g id="text_20">
      <!-- $\mathdefault{2.10}$ -->
      <g transform="translate(241.036 68.853336) scale(0.1 -0.1)">
       <use xlink:href="#DejaVuSans-2212" transform="translate(0 0.78125)"/>
       <use xlink:href="#DejaVuSans-32" transform="translate(83.789062 0.78125)"/>
       <use xlink:href="#DejaVuSans-2e" transform="translate(147.412109 0.78125)"/>
       <use xlink:href="#DejaVuSans-31" transform="translate(179.199219 0.78125)"/>
       <use xlink:href="#DejaVuSans-30" transform="translate(242.822266 0.78125)"/>
      </g>
     </g>
    </g>
    <g id="ytick_12">
     <g id="line2d_16">
      <g>
       <use xlink:href="#m3ba9d857fb" x="234.036" y="45.487059" style="stroke: #000000; stroke-width: 0.8"/>
      </g>
     </g>
     <g id="text_21">
      <!-- $\mathdefault{2.05}$ -->
      <g transform="translate(241.036 49.286278) scale(0.1 -0.1)">
       <use xlink:href="#DejaVuSans-2212" transform="translate(0 0.78125)"/>
       <use xlink:href="#DejaVuSans-32" transform="translate(83.789062 0.78125)"/>
       <use xlink:href="#DejaVuSans-2e" transform="translate(147.412109 0.78125)"/>
       <use xlink:href="#DejaVuSans-30" transform="translate(179.199219 0.78125)"/>
       <use xlink:href="#DejaVuSans-35" transform="translate(242.822266 0.78125)"/>
      </g>
     </g>
    </g>
    <g id="ytick_13">
     <g id="line2d_17">
      <g>
       <use xlink:href="#m3ba9d857fb" x="234.036" y="25.92" style="stroke: #000000; stroke-width: 0.8"/>
      </g>
     </g>
     <g id="text_22">
      <!-- $\mathdefault{2.00}$ -->
      <g transform="translate(241.036 29.719219) scale(0.1 -0.1)">
       <use xlink:href="#DejaVuSans-2212" transform="translate(0 0.78125)"/>
       <use xlink:href="#DejaVuSans-32" transform="translate(83.789062 0.78125)"/>
       <use xlink:href="#DejaVuSans-2e" transform="translate(147.412109 0.78125)"/>
       <use xlink:href="#DejaVuSans-30" transform="translate(179.199219 0.78125)"/>
       <use xlink:href="#DejaVuSans-30" transform="translate(242.822266 0.78125)"/>
      </g>
     </g>
    </g>
    <g id="text_23">
     <!-- log likelihood -->
     <g transform="translate(284.854125 148.704375) rotate(-90) scale(0.12 -0.12)">
      <defs>
       <path id="DejaVuSans-67" d="M 2906 1791 
Q 2906 2416 2648 2759 
Q 2391 3103 1925 3103 
Q 1463 3103 1205 2759 
Q 947 2416 947 1791 
Q 947 1169 1205 825 
Q 1463 481 1925 481 
Q 2391 481 2648 825 
Q 2906 1169 2906 1791 
z
M 3481 434 
Q 3481 -459 3084 -895 
Q 2688 -1331 1869 -1331 
Q 1566 -1331 1297 -1286 
Q 1028 -1241 775 -1147 
L 775 -588 
Q 1028 -725 1275 -790 
Q 1522 -856 1778 -856 
Q 2344 -856 2625 -561 
Q 2906 -266 2906 331 
L 2906 616 
Q 2728 306 2450 153 
Q 2172 0 1784 0 
Q 1141 0 747 490 
Q 353 981 353 1791 
Q 353 2603 747 3093 
Q 1141 3584 1784 3584 
Q 2172 3584 2450 3431 
Q 2728 3278 2906 2969 
L 2906 3500 
L 3481 3500 
L 3481 434 
z
" transform="scale(0.015625)"/>
       <path id="DejaVuSans-6b" d="M 581 4863 
L 1159 4863 
L 1159 1991 
L 2875 3500 
L 3609 3500 
L 1753 1863 
L 3688 0 
L 2938 0 
L 1159 1709 
L 1159 0 
L 581 0 
L 581 4863 
z
" transform="scale(0.015625)"/>
       <path id="DejaVuSans-68" d="M 3513 2113 
L 3513 0 
L 2938 0 
L 2938 2094 
Q 2938 2591 2744 2837 
Q 2550 3084 2163 3084 
Q 1697 3084 1428 2787 
Q 1159 2491 1159 1978 
L 1159 0 
L 581 0 
L 581 4863 
L 1159 4863 
L 1159 2956 
Q 1366 3272 1645 3428 
Q 1925 3584 2291 3584 
Q 2894 3584 3203 3211 
Q 3513 2838 3513 2113 
z
" transform="scale(0.015625)"/>
      </defs>
      <use xlink:href="#DejaVuSans-6c"/>
      <use xlink:href="#DejaVuSans-6f" x="27.783203"/>
      <use xlink:href="#DejaVuSans-67" x="88.964844"/>
      <use xlink:href="#DejaVuSans-20" x="152.441406"/>
      <use xlink:href="#DejaVuSans-6c" x="184.228516"/>
      <use xlink:href="#DejaVuSans-69" x="212.011719"/>
      <use xlink:href="#DejaVuSans-6b" x="239.794922"/>
      <use xlink:href="#DejaVuSans-65" x="294.080078"/>
      <use xlink:href="#DejaVuSans-6c" x="355.603516"/>
      <use xlink:href="#DejaVuSans-69" x="383.386719"/>
      <use xlink:href="#DejaVuSans-68" x="411.169922"/>
      <use xlink:href="#DejaVuSans-6f" x="474.548828"/>
      <use xlink:href="#DejaVuSans-6f" x="535.730469"/>
      <use xlink:href="#DejaVuSans-64" x="596.912109"/>
     </g>
    </g>
   </g>
   <g id="LineCollection_1"/>
   <g id="patch_8">
    <path d="M 225.72 192.24 
L 229.878 192.24 
L 234.036 192.24 
L 234.036 25.92 
L 229.878 25.92 
L 225.72 25.92 
L 225.72 192.24 
z
" style="fill: none; stroke: #000000; stroke-width: 0.8; stroke-linejoin: miter; stroke-linecap: square"/>
   </g>
  </g>
 </g>
 <defs>
  <clipPath id="pfbfdf9bb82">
   <rect x="36" y="25.92" width="178.56" height="166.32"/>
  </clipPath>
  <clipPath id="pf818a0ac1e">
   <rect x="225.72" y="25.92" width="8.316" height="166.32"/>
  </clipPath>
 </defs>
</svg>
