<?xml version="1.0" encoding="utf-8" standalone="no"?>
<!DOCTYPE svg PUBLIC "-//W3C//DTD SVG 1.1//EN"
  "http://www.w3.org/Graphics/SVG/1.1/DTD/svg11.dtd">
<svg xmlns:xlink="http://www.w3.org/1999/xlink" width="288pt" height="216pt" viewBox="0 0 288 216" xmlns="http://www.w3.org/2000/svg" version="1.1">
 <metadata>
  <rdf:RDF xmlns:dc="http://purl.org/dc/elements/1.1/" xmlns:cc="http://creativecommons.org/ns#" xmlns:rdf="http://www.w3.org/1999/02/22-rdf-syntax-ns#">
   <cc:Work>
    <dc:type rdf:resource="http://purl.org/dc/dcmitype/StillImage"/>
    <dc:date>2023-08-07T20:00:03.029978</dc:date>
    <dc:format>image/svg+xml</dc:format>
    <dc:creator>
     <cc:Agent>
      <dc:title>Matplotlib v3.7.1, https://matplotlib.org/</dc:title>
     </cc:Agent>
    </dc:creator>
   </cc:Work>
  </rdf:RDF>
 </metadata>
 <defs>
  <style type="text/css">*{stroke-linejoin: round; stroke-linecap: butt}</style>
 </defs>
 <g id="figure_1">
  <g id="patch_1">
   <path d="M 0 216 
L 288 216 
L 288 0 
L 0 0 
z
" style="fill: #ffffff"/>
  </g>
  <g id="axes_1">
   <g id="patch_2">
    <path d="M 36 192.24 
L 214.56 192.24 
L 214.56 25.92 
L 36 25.92 
z
" style="fill: #ffffff"/>
   </g>
   <g id="PathCollection_1">
    <path d="M 36 186.696 
L 36 181.152 
L 36 175.608 
L 36 170.064 
L 36 164.52 
L 36 158.976 
L 36 153.432 
L 36 147.888 
L 36 142.344 
L 36 136.8 
L 36 131.256 
L 36 125.712 
L 36 120.168 
L 36 114.624 
L 36 109.08 
L 36 103.536 
L 36 97.992 
L 36 92.448 
L 36 86.904 
L 36 81.36 
L 36 75.816 
L 36 70.272 
L 36 64.728 
L 36 59.184 
L 36 53.64 
L 36 48.096 
L 36 42.552 
L 36 37.008 
L 36 31.464 
L 36 25.92 
L 41.952 25.92 
L 47.904 25.92 
L 53.856 25.92 
L 59.808 25.92 
L 65.76 25.92 
L 71.712 25.92 
L 77.664 25.92 
L 83.616 25.92 
L 89.568 25.92 
L 95.52 25.92 
L 101.472 25.92 
L 107.424 25.92 
L 113.376 25.92 
L 119.328 25.92 
L 125.28 25.92 
L 131.232 25.92 
L 137.184 25.92 
L 143.136 25.92 
L 149.088 25.92 
L 155.04 25.92 
L 160.992 25.92 
L 166.944 25.92 
L 172.896 25.92 
L 178.848 25.92 
L 184.8 25.92 
L 190.752 25.92 
L 196.704 25.92 
L 202.656 25.92 
L 208.608 25.92 
L 214.56 25.92 
L 214.56 31.464 
L 214.56 37.008 
L 214.56 42.552 
L 214.56 48.096 
L 214.56 53.64 
L 214.56 59.184 
L 214.56 64.728 
L 214.56 70.272 
L 214.56 75.816 
L 214.56 81.36 
L 214.56 86.904 
L 214.56 92.448 
L 214.56 97.992 
L 214.56 103.536 
L 214.56 109.08 
L 214.56 114.624 
L 214.56 120.168 
L 214.56 125.712 
L 214.56 131.256 
L 214.56 136.8 
L 214.56 142.344 
L 214.56 147.888 
L 214.56 153.432 
L 214.56 158.976 
L 214.56 164.52 
L 214.56 170.064 
L 214.56 175.608 
L 214.56 181.152 
L 214.56 186.696 
L 214.56 192.24 
L 208.608 192.24 
L 202.656 192.24 
L 196.704 192.24 
L 190.752 192.24 
L 184.8 192.24 
L 178.848 192.24 
L 172.896 192.24 
L 166.944 192.24 
L 160.992 192.24 
L 155.04 192.24 
L 149.088 192.24 
L 143.136 192.24 
L 137.184 192.24 
L 131.232 192.24 
L 125.28 192.24 
L 119.328 192.24 
L 113.376 192.24 
L 107.424 192.24 
L 101.472 192.24 
L 95.52 192.24 
L 89.568 192.24 
L 83.616 192.24 
L 77.664 192.24 
L 71.712 192.24 
L 65.76 192.24 
L 59.808 192.24 
L 53.856 192.24 
L 47.904 192.24 
L 41.952 192.24 
L 36 192.24 
z
M 41.952 125.708042 
L 41.952069 125.712 
L 41.952077 131.256 
L 41.952092 136.8 
L 41.95212 142.344 
L 41.952194 147.888 
L 41.952714 153.432 
L 47.904 158.975335 
L 47.904243 158.976 
L 53.856 164.519774 
L 53.856421 164.52 
L 59.808 170.063608 
L 65.76 170.063753 
L 71.712 170.063773 
L 77.664 170.063757 
L 83.616 170.063707 
L 89.568 170.063594 
L 95.52 170.063266 
L 101.472 170.058193 
L 107.417766 164.52 
L 107.424 164.519753 
L 113.376 164.519638 
L 119.328 164.519319 
L 125.28 164.514189 
L 131.225762 158.976 
L 131.232 158.975685 
L 137.184 158.975471 
L 143.136 158.974414 
L 149.086298 153.432 
L 149.088 153.431659 
L 155.04 153.431415 
L 160.992 153.430045 
L 166.941901 147.888 
L 166.944 147.887545 
L 172.896 147.887044 
L 178.846974 142.344 
L 178.848 142.343538 
L 184.8 142.343053 
L 190.750984 136.8 
L 190.752 136.799396 
L 196.704 136.798302 
L 202.654177 131.256 
L 202.656 131.254591 
L 208.606487 125.712 
L 208.608 125.709302 
L 214.557104 120.168 
L 214.558264 114.624 
L 214.557652 109.08 
L 208.608 103.538187 
L 208.606884 103.536 
L 208.592007 97.992 
L 202.656 92.462897 
L 196.704 92.448873 
L 196.70296 92.448 
L 190.752 86.904969 
L 190.750332 86.904 
L 184.8 81.361554 
L 183.600355 81.36 
L 178.848 76.933412 
L 172.896 75.816825 
L 172.893136 75.816 
L 166.944 70.274668 
L 160.992 70.272603 
L 160.990349 70.272 
L 155.04 64.729538 
L 149.088 64.728496 
L 149.086746 64.728 
L 143.136 59.185168 
L 137.184 59.184434 
L 137.182946 59.184 
L 131.232 53.640982 
L 125.28 53.640392 
L 125.279071 53.64 
L 119.328 48.096866 
L 113.376 48.096361 
L 113.375151 48.096 
L 107.424 42.552791 
L 101.472 42.55234 
L 101.471173 42.552 
L 95.52 37.00877 
L 89.568 37.008338 
L 89.567015 37.008 
L 83.616 31.464917 
L 77.664 31.464393 
L 77.656556 31.464 
L 71.712 25.926933 
L 65.76 25.921211 
L 59.808 25.921837 
L 53.857973 31.464 
L 53.856 31.46455 
L 47.90459 37.008 
L 47.904213 42.552 
L 47.904 42.552538 
L 41.952578 48.096 
L 41.952233 53.64 
L 41.95215 59.184 
L 41.952113 64.728 
L 41.952093 70.272 
L 41.95208 75.816 
L 41.952072 81.36 
L 41.952 81.377096 
L 36.018354 86.904 
L 36.001128 92.448 
L 36.000702 97.992 
L 36.000606 103.536 
L 36.000648 109.08 
L 36.000927 114.624 
L 36.00425 120.168 
z
" clip-path="url(#pdcf06df8f2)" style="fill: #440154"/>
   </g>
   <g id="PathCollection_2">
    <path d="M 36.00425 120.168 
L 36.000927 114.624 
L 36.000648 109.08 
L 36.000606 103.536 
L 36.000702 97.992 
L 36.001128 92.448 
L 36.018354 86.904 
L 41.952 81.377096 
L 41.952072 81.36 
L 41.95208 75.816 
L 41.952093 70.272 
L 41.952113 64.728 
L 41.95215 59.184 
L 41.952233 53.64 
L 41.952578 48.096 
L 47.904 42.552538 
L 47.904213 42.552 
L 47.90459 37.008 
L 53.856 31.46455 
L 53.857973 31.464 
L 59.808 25.921837 
L 65.76 25.921211 
L 71.712 25.926933 
L 77.656556 31.464 
L 77.664 31.464393 
L 83.616 31.464917 
L 89.567015 37.008 
L 89.568 37.008338 
L 95.52 37.00877 
L 101.471173 42.552 
L 101.472 42.55234 
L 107.424 42.552791 
L 113.375151 48.096 
L 113.376 48.096361 
L 119.328 48.096866 
L 125.279071 53.64 
L 125.28 53.640392 
L 131.232 53.640982 
L 137.182946 59.184 
L 137.184 59.184434 
L 143.136 59.185168 
L 149.086746 64.728 
L 149.088 64.728496 
L 155.04 64.729538 
L 160.990349 70.272 
L 160.992 70.272603 
L 166.944 70.274668 
L 172.893136 75.816 
L 172.896 75.816825 
L 178.848 76.933412 
L 183.600355 81.36 
L 184.8 81.361554 
L 190.750332 86.904 
L 190.752 86.904969 
L 196.70296 92.448 
L 196.704 92.448873 
L 202.656 92.462897 
L 208.592007 97.992 
L 208.606884 103.536 
L 208.608 103.538187 
L 214.557652 109.08 
L 214.558264 114.624 
L 214.557104 120.168 
L 208.608 125.709302 
L 208.606487 125.712 
L 202.656 131.254591 
L 202.654177 131.256 
L 196.704 136.798302 
L 190.752 136.799396 
L 190.750984 136.8 
L 184.8 142.343053 
L 178.848 142.343538 
L 178.846974 142.344 
L 172.896 147.887044 
L 166.944 147.887545 
L 166.941901 147.888 
L 160.992 153.430045 
L 155.04 153.431415 
L 149.088 153.431659 
L 149.086298 153.432 
L 143.136 158.974414 
L 137.184 158.975471 
L 131.232 158.975685 
L 131.225762 158.976 
L 125.28 164.514189 
L 119.328 164.519319 
L 113.376 164.519638 
L 107.424 164.519753 
L 107.417766 164.52 
L 101.472 170.058193 
L 95.52 170.063266 
L 89.568 170.063594 
L 83.616 170.063707 
L 77.664 170.063757 
L 71.712 170.063773 
L 65.76 170.063753 
L 59.808 170.063608 
L 53.856421 164.52 
L 53.856 164.519774 
L 47.904243 158.976 
L 47.904 158.975335 
L 41.952714 153.432 
L 41.952194 147.888 
L 41.95212 142.344 
L 41.952092 136.8 
L 41.952077 131.256 
L 41.952069 125.712 
L 41.952 125.708042 
z
M 47.904 152.995947 
L 48.152783 153.432 
L 50.35535 158.976 
L 53.856 162.236686 
L 58.108915 164.52 
L 59.808 166.102616 
L 65.76 167.570438 
L 71.712 167.774733 
L 77.664 167.60705 
L 83.616 167.101968 
L 89.568 165.962858 
L 93.038998 164.52 
L 95.52 164.029108 
L 101.472 162.744746 
L 107.424 162.031276 
L 113.376 160.87053 
L 117.708572 158.976 
L 119.328 158.521866 
L 125.28 156.849269 
L 131.232 155.793234 
L 137.184 153.636991 
L 137.514217 153.432 
L 143.136 151.572809 
L 149.088 149.988738 
L 154.494711 147.888 
L 155.04 147.672198 
L 160.992 145.35786 
L 166.944 143.300118 
L 168.901409 142.344 
L 172.896 140.440333 
L 178.848 137.683665 
L 180.699717 136.8 
L 184.8 134.292803 
L 189.850298 131.256 
L 190.752 130.476146 
L 196.355497 125.712 
L 196.704 125.21276 
L 200.287132 120.168 
L 201.721997 114.624 
L 200.86001 109.08 
L 197.888328 103.536 
L 196.704 102.205044 
L 193.064322 97.992 
L 190.752 96.038889 
L 186.627364 92.448 
L 184.8 91.178862 
L 178.848 86.915243 
L 178.83277 86.904 
L 172.896 83.223126 
L 169.985926 81.36 
L 166.944 79.667248 
L 160.992 76.246714 
L 160.265389 75.816 
L 155.04 73.05872 
L 149.933189 70.272 
L 149.088 69.738906 
L 143.136 66.817734 
L 139.173522 64.728 
L 137.184 63.563384 
L 131.232 60.788182 
L 128.122605 59.184 
L 125.28 57.592395 
L 119.328 54.883007 
L 116.877366 53.64 
L 113.376 51.737952 
L 107.424 49.075753 
L 105.445539 48.096 
L 101.472 45.987686 
L 95.52 43.427237 
L 93.647527 42.552 
L 89.568 40.419476 
L 83.616 38.182038 
L 80.626229 37.008 
L 77.664 35.431087 
L 71.712 34.071263 
L 65.76 33.030915 
L 59.808 33.50306 
L 53.858467 37.008 
L 53.856 37.009564 
L 50.052245 42.552 
L 47.904 47.984521 
L 47.784317 48.096 
L 44.301948 53.64 
L 43.467584 59.184 
L 43.09716 64.728 
L 42.891218 70.272 
L 42.763008 75.816 
L 42.678274 81.36 
L 42.60181 86.904 
L 42.270743 92.448 
L 42.058336 97.992 
L 41.969945 103.536 
L 42.011521 109.08 
L 42.189694 114.624 
L 42.511865 120.168 
L 42.643698 125.712 
L 42.729412 131.256 
L 42.87792 136.8 
L 43.16714 142.344 
L 43.909602 147.888 
z
" clip-path="url(#pdcf06df8f2)" style="fill: #470d60"/>
   </g>
   <g id="PathCollection_3">
    <path d="M 43.909602 147.888 
L 43.16714 142.344 
L 42.87792 136.8 
L 42.729412 131.256 
L 42.643698 125.712 
L 42.511865 120.168 
L 42.189694 114.624 
L 42.011521 109.08 
L 41.969945 103.536 
L 42.058336 97.992 
L 42.270743 92.448 
L 42.60181 86.904 
L 42.678274 81.36 
L 42.763008 75.816 
L 42.891218 70.272 
L 43.09716 64.728 
L 43.467584 59.184 
L 44.301948 53.64 
L 47.784317 48.096 
L 47.904 47.984521 
L 50.052245 42.552 
L 53.856 37.009564 
L 53.858467 37.008 
L 59.808 33.50306 
L 65.76 33.030915 
L 71.712 34.071263 
L 77.664 35.431087 
L 80.626229 37.008 
L 83.616 38.182038 
L 89.568 40.419476 
L 93.647527 42.552 
L 95.52 43.427237 
L 101.472 45.987686 
L 105.445539 48.096 
L 107.424 49.075753 
L 113.376 51.737952 
L 116.877366 53.64 
L 119.328 54.883007 
L 125.28 57.592395 
L 128.122605 59.184 
L 131.232 60.788182 
L 137.184 63.563384 
L 139.173522 64.728 
L 143.136 66.817734 
L 149.088 69.738906 
L 149.933189 70.272 
L 155.04 73.05872 
L 160.265389 75.816 
L 160.992 76.246714 
L 166.944 79.667248 
L 169.985926 81.36 
L 172.896 83.223126 
L 178.83277 86.904 
L 178.848 86.915243 
L 184.8 91.178862 
L 186.627364 92.448 
L 190.752 96.038889 
L 193.064322 97.992 
L 196.704 102.205044 
L 197.888328 103.536 
L 200.86001 109.08 
L 201.721997 114.624 
L 200.287132 120.168 
L 196.704 125.21276 
L 196.355497 125.712 
L 190.752 130.476146 
L 189.850298 131.256 
L 184.8 134.292803 
L 180.699717 136.8 
L 178.848 137.683665 
L 172.896 140.440333 
L 168.901409 142.344 
L 166.944 143.300118 
L 160.992 145.35786 
L 155.04 147.672198 
L 154.494711 147.888 
L 149.088 149.988738 
L 143.136 151.572809 
L 137.514217 153.432 
L 137.184 153.636991 
L 131.232 155.793234 
L 125.28 156.849269 
L 119.328 158.521866 
L 117.708572 158.976 
L 113.376 160.87053 
L 107.424 162.031276 
L 101.472 162.744746 
L 95.52 164.029108 
L 93.038998 164.52 
L 89.568 165.962858 
L 83.616 167.101968 
L 77.664 167.60705 
L 71.712 167.774733 
L 65.76 167.570438 
L 59.808 166.102616 
L 58.108915 164.52 
L 53.856 162.236686 
L 50.35535 158.976 
L 48.152783 153.432 
L 47.904 152.995947 
z
M 47.904 150.492857 
L 49.580886 153.432 
L 52.806458 158.976 
L 53.856 159.953598 
L 59.808 163.395601 
L 64.145772 164.52 
L 65.76 165.077124 
L 71.712 165.485692 
L 77.664 165.150343 
L 81.63267 164.52 
L 83.616 164.272325 
L 89.568 163.261121 
L 95.52 162.077236 
L 101.472 160.784231 
L 107.424 159.542799 
L 109.337204 158.976 
L 113.376 157.855125 
L 119.328 156.181665 
L 125.28 154.500769 
L 129.078278 153.432 
L 131.232 152.70316 
L 137.184 150.706236 
L 143.136 148.72879 
L 145.703009 147.888 
L 149.088 146.525668 
L 155.04 144.165343 
L 159.704335 142.344 
L 160.992 141.707051 
L 166.944 138.813925 
L 171.155468 136.8 
L 172.896 135.695276 
L 178.848 131.981828 
L 180.03241 131.256 
L 184.8 127.059977 
L 186.357909 125.712 
L 190.176939 120.168 
L 190.752 117.939609 
L 191.622831 114.624 
L 190.837902 109.08 
L 190.752 108.913558 
L 188.058346 103.536 
L 184.8 99.63717 
L 183.466474 97.992 
L 178.848 93.848156 
L 177.335443 92.448 
L 172.896 89.175283 
L 169.911648 86.904 
L 166.944 85.007927 
L 161.416967 81.36 
L 160.992 81.116287 
L 155.04 77.596168 
L 152.127619 75.816 
L 149.088 74.162422 
L 143.136 70.816235 
L 142.197632 70.272 
L 137.184 67.637281 
L 131.829641 64.728 
L 131.232 64.429647 
L 125.28 61.369915 
L 121.156892 59.184 
L 119.328 58.28319 
L 113.376 55.273434 
L 110.221169 53.64 
L 107.424 52.282036 
L 101.472 49.342649 
L 98.964548 48.096 
L 95.52 46.477415 
L 89.568 43.70421 
L 86.998582 42.552 
L 83.616 41.108099 
L 77.664 38.787747 
L 72.058536 37.008 
L 71.712 36.902549 
L 65.76 35.897125 
L 59.808 36.411208 
L 58.794962 37.008 
L 53.856 40.139454 
L 52.200278 42.552 
L 49.611316 48.096 
L 47.904 51.686345 
L 46.651663 53.64 
L 44.983017 59.184 
L 44.242206 64.728 
L 43.830343 70.272 
L 43.573935 75.816 
L 43.404476 81.36 
L 43.273124 86.904 
L 42.938408 92.448 
L 42.722392 97.992 
L 42.630431 103.536 
L 42.668475 109.08 
L 42.843154 114.624 
L 43.161868 120.168 
L 43.335327 125.712 
L 43.506747 131.256 
L 43.803748 136.8 
L 44.382159 142.344 
L 45.867011 147.888 
z
" clip-path="url(#pdcf06df8f2)" style="fill: #482374"/>
   </g>
   <g id="PathCollection_4">
    <path d="M 45.867011 147.888 
L 44.382159 142.344 
L 43.803748 136.8 
L 43.506747 131.256 
L 43.335327 125.712 
L 43.161868 120.168 
L 42.843154 114.624 
L 42.668475 109.08 
L 42.630431 103.536 
L 42.722392 97.992 
L 42.938408 92.448 
L 43.273124 86.904 
L 43.404476 81.36 
L 43.573935 75.816 
L 43.830343 70.272 
L 44.242206 64.728 
L 44.983017 59.184 
L 46.651663 53.64 
L 47.904 51.686345 
L 49.611316 48.096 
L 52.200278 42.552 
L 53.856 40.139454 
L 58.794962 37.008 
L 59.808 36.411208 
L 65.76 35.897125 
L 71.712 36.902549 
L 72.058536 37.008 
L 77.664 38.787747 
L 83.616 41.108099 
L 86.998582 42.552 
L 89.568 43.70421 
L 95.52 46.477415 
L 98.964548 48.096 
L 101.472 49.342649 
L 107.424 52.282036 
L 110.221169 53.64 
L 113.376 55.273434 
L 119.328 58.28319 
L 121.156892 59.184 
L 125.28 61.369915 
L 131.232 64.429647 
L 131.829641 64.728 
L 137.184 67.637281 
L 142.197632 70.272 
L 143.136 70.816235 
L 149.088 74.162422 
L 152.127619 75.816 
L 155.04 77.596168 
L 160.992 81.116287 
L 161.416967 81.36 
L 166.944 85.007927 
L 169.911648 86.904 
L 172.896 89.175283 
L 177.335443 92.448 
L 178.848 93.848156 
L 183.466474 97.992 
L 184.8 99.63717 
L 188.058346 103.536 
L 190.752 108.913558 
L 190.837902 109.08 
L 191.622831 114.624 
L 190.752 117.939609 
L 190.176939 120.168 
L 186.357909 125.712 
L 184.8 127.059977 
L 180.03241 131.256 
L 178.848 131.981828 
L 172.896 135.695276 
L 171.155468 136.8 
L 166.944 138.813925 
L 160.992 141.707051 
L 159.704335 142.344 
L 155.04 144.165343 
L 149.088 146.525668 
L 145.703009 147.888 
L 143.136 148.72879 
L 137.184 150.706236 
L 131.232 152.70316 
L 129.078278 153.432 
L 125.28 154.500769 
L 119.328 156.181665 
L 113.376 157.855125 
L 109.337204 158.976 
L 107.424 159.542799 
L 101.472 160.784231 
L 95.52 162.077236 
L 89.568 163.261121 
L 83.616 164.272325 
L 81.63267 164.52 
L 77.664 165.150343 
L 71.712 165.485692 
L 65.76 165.077124 
L 64.145772 164.52 
L 59.808 163.395601 
L 53.856 159.953598 
L 52.806458 158.976 
L 49.580886 153.432 
L 47.904 150.492857 
z
M 47.904 147.989767 
L 51.008988 153.432 
L 53.856 157.74027 
L 55.617638 158.976 
L 59.808 161.523005 
L 65.76 163.052 
L 71.712 163.418148 
L 77.664 163.092989 
L 83.616 162.340766 
L 89.568 161.318845 
L 95.52 160.125363 
L 100.77837 158.976 
L 101.472 158.79654 
L 107.424 157.183452 
L 113.376 155.523969 
L 119.328 153.841464 
L 120.77465 153.432 
L 125.28 151.89889 
L 131.232 149.878698 
L 137.135618 147.888 
L 137.184 147.867972 
L 143.136 145.435762 
L 149.088 143.031061 
L 150.815897 142.344 
L 155.04 140.217609 
L 160.992 137.264654 
L 161.945378 136.8 
L 166.944 133.569441 
L 170.580814 131.256 
L 172.896 129.147617 
L 176.731891 125.712 
L 178.848 122.551737 
L 180.471834 120.168 
L 181.922675 114.624 
L 181.232316 109.08 
L 178.848 104.101136 
L 178.585573 103.536 
L 174.239471 97.992 
L 172.896 96.748416 
L 168.394891 92.448 
L 166.944 91.34512 
L 161.28691 86.904 
L 160.992 86.709745 
L 155.04 82.665288 
L 153.180947 81.36 
L 149.088 78.86466 
L 144.25136 75.816 
L 143.136 75.190412 
L 137.184 71.745891 
L 134.717459 70.272 
L 131.232 68.385012 
L 125.28 65.058274 
L 124.705194 64.728 
L 119.328 61.889208 
L 114.348846 59.184 
L 113.376 58.692894 
L 107.424 55.623612 
L 103.64542 53.64 
L 101.472 52.569903 
L 95.52 49.621824 
L 92.409403 48.096 
L 89.568 46.778123 
L 83.616 44.122846 
L 79.75456 42.552 
L 77.664 41.741871 
L 71.712 39.883705 
L 65.76 38.861103 
L 59.808 39.45008 
L 54.95725 42.552 
L 53.856 43.315447 
L 51.354406 48.096 
L 48.708726 53.64 
L 47.904 55.496696 
L 46.49845 59.184 
L 45.387253 64.728 
L 44.769468 70.272 
L 44.384862 75.816 
L 44.130678 81.36 
L 43.944437 86.904 
L 43.606073 92.448 
L 43.386448 97.992 
L 43.290917 103.536 
L 43.325429 109.08 
L 43.496614 114.624 
L 43.81187 120.168 
L 44.026957 125.712 
L 44.284082 131.256 
L 44.729576 136.8 
L 45.597178 142.344 
L 47.824419 147.888 
z
" clip-path="url(#pdcf06df8f2)" style="fill: #453781"/>
   </g>
   <g id="PathCollection_5">
    <path d="M 47.824419 147.888 
L 45.597178 142.344 
L 44.729576 136.8 
L 44.284082 131.256 
L 44.026957 125.712 
L 43.81187 120.168 
L 43.496614 114.624 
L 43.325429 109.08 
L 43.290917 103.536 
L 43.386448 97.992 
L 43.606073 92.448 
L 43.944437 86.904 
L 44.130678 81.36 
L 44.384862 75.816 
L 44.769468 70.272 
L 45.387253 64.728 
L 46.49845 59.184 
L 47.904 55.496696 
L 48.708726 53.64 
L 51.354406 48.096 
L 53.856 43.315447 
L 54.95725 42.552 
L 59.808 39.45008 
L 65.76 38.861103 
L 71.712 39.883705 
L 77.664 41.741871 
L 79.75456 42.552 
L 83.616 44.122846 
L 89.568 46.778123 
L 92.409403 48.096 
L 95.52 49.621824 
L 101.472 52.569903 
L 103.64542 53.64 
L 107.424 55.623612 
L 113.376 58.692894 
L 114.348846 59.184 
L 119.328 61.889208 
L 124.705194 64.728 
L 125.28 65.058274 
L 131.232 68.385012 
L 134.717459 70.272 
L 137.184 71.745891 
L 143.136 75.190412 
L 144.25136 75.816 
L 149.088 78.86466 
L 153.180947 81.36 
L 155.04 82.665288 
L 160.992 86.709745 
L 161.28691 86.904 
L 166.944 91.34512 
L 168.394891 92.448 
L 172.896 96.748416 
L 174.239471 97.992 
L 178.585573 103.536 
L 178.848 104.101136 
L 181.232316 109.08 
L 181.922675 114.624 
L 180.471834 120.168 
L 178.848 122.551737 
L 176.731891 125.712 
L 172.896 129.147617 
L 170.580814 131.256 
L 166.944 133.569441 
L 161.945378 136.8 
L 160.992 137.264654 
L 155.04 140.217609 
L 150.815897 142.344 
L 149.088 143.031061 
L 143.136 145.435762 
L 137.184 147.867972 
L 137.135618 147.888 
L 131.232 149.878698 
L 125.28 151.89889 
L 120.77465 153.432 
L 119.328 153.841464 
L 113.376 155.523969 
L 107.424 157.183452 
L 101.472 158.79654 
L 100.77837 158.976 
L 95.52 160.125363 
L 89.568 161.318845 
L 83.616 162.340766 
L 77.664 163.092989 
L 71.712 163.418148 
L 65.76 163.052 
L 59.808 161.523005 
L 55.617638 158.976 
L 53.856 157.74027 
L 51.008988 153.432 
L 47.904 147.989767 
z
M 47.904 145.025355 
L 49.287196 147.888 
L 52.43709 153.432 
L 53.856 155.57918 
L 58.698454 158.976 
L 59.808 159.650409 
L 65.76 161.161594 
L 71.712 161.512236 
L 77.664 161.173467 
L 83.616 160.409206 
L 89.568 159.37657 
L 91.556263 158.976 
L 95.52 158.031018 
L 101.472 156.486149 
L 107.424 154.862191 
L 112.526306 153.432 
L 113.376 153.145874 
L 119.328 151.120605 
L 125.28 149.0854 
L 128.79439 147.888 
L 131.232 146.868924 
L 137.184 144.400578 
L 142.191009 142.344 
L 143.136 141.853266 
L 149.088 138.805318 
L 153.056732 136.8 
L 155.04 135.473785 
L 160.992 131.552033 
L 161.449027 131.256 
L 166.944 126.169154 
L 167.445917 125.712 
L 171.12249 120.168 
L 172.564906 114.624 
L 171.965718 109.08 
L 169.497913 103.536 
L 166.944 100.157987 
L 165.357609 97.992 
L 160.992 93.682875 
L 159.780658 92.448 
L 155.04 88.611067 
L 152.998694 86.904 
L 149.088 84.163307 
L 145.217778 81.36 
L 143.136 80.051142 
L 137.184 76.185142 
L 136.632792 75.816 
L 131.232 72.59884 
L 127.448653 70.272 
L 125.28 69.063682 
L 119.328 65.649337 
L 117.762939 64.728 
L 113.376 62.355 
L 107.655797 59.184 
L 107.424 59.064589 
L 101.472 55.956167 
L 97.073126 53.64 
L 95.52 52.872773 
L 89.568 49.968582 
L 85.579314 48.096 
L 83.616 47.223986 
L 77.664 44.825585 
L 71.712 42.890147 
L 69.767024 42.552 
L 65.76 41.886953 
L 59.808 42.522707 
L 59.762191 42.552 
L 53.856 46.646495 
L 53.097495 48.096 
L 50.431813 53.64 
L 48.027523 59.184 
L 47.904 59.500418 
L 46.532299 64.728 
L 45.708592 70.272 
L 45.195789 75.816 
L 44.85688 81.36 
L 44.61575 86.904 
L 44.273738 92.448 
L 44.050504 97.992 
L 43.951402 103.536 
L 43.982383 109.08 
L 44.150073 114.624 
L 44.461872 120.168 
L 44.718586 125.712 
L 45.061417 131.256 
L 45.655404 136.8 
L 46.812197 142.344 
z
" clip-path="url(#pdcf06df8f2)" style="fill: #3e4989"/>
   </g>
   <g id="PathCollection_6">
    <path d="M 46.812197 142.344 
L 45.655404 136.8 
L 45.061417 131.256 
L 44.718586 125.712 
L 44.461872 120.168 
L 44.150073 114.624 
L 43.982383 109.08 
L 43.951402 103.536 
L 44.050504 97.992 
L 44.273738 92.448 
L 44.61575 86.904 
L 44.85688 81.36 
L 45.195789 75.816 
L 45.708592 70.272 
L 46.532299 64.728 
L 47.904 59.500418 
L 48.027523 59.184 
L 50.431813 53.64 
L 53.097495 48.096 
L 53.856 46.646495 
L 59.762191 42.552 
L 59.808 42.522707 
L 65.76 41.886953 
L 69.767024 42.552 
L 71.712 42.890147 
L 77.664 44.825585 
L 83.616 47.223986 
L 85.579314 48.096 
L 89.568 49.968582 
L 95.52 52.872773 
L 97.073126 53.64 
L 101.472 55.956167 
L 107.424 59.064589 
L 107.655797 59.184 
L 113.376 62.355 
L 117.762939 64.728 
L 119.328 65.649337 
L 125.28 69.063682 
L 127.448653 70.272 
L 131.232 72.59884 
L 136.632792 75.816 
L 137.184 76.185142 
L 143.136 80.051142 
L 145.217778 81.36 
L 149.088 84.163307 
L 152.998694 86.904 
L 155.04 88.611067 
L 159.780658 92.448 
L 160.992 93.682875 
L 165.357609 97.992 
L 166.944 100.157987 
L 169.497913 103.536 
L 171.965718 109.08 
L 172.564906 114.624 
L 171.12249 120.168 
L 167.445917 125.712 
L 166.944 126.169154 
L 161.449027 131.256 
L 160.992 131.552033 
L 155.04 135.473785 
L 153.056732 136.8 
L 149.088 138.805318 
L 143.136 141.853266 
L 142.191009 142.344 
L 137.184 144.400578 
L 131.232 146.868924 
L 128.79439 147.888 
L 125.28 149.0854 
L 119.328 151.120605 
L 113.376 153.145874 
L 112.526306 153.432 
L 107.424 154.862191 
L 101.472 156.486149 
L 95.52 158.031018 
L 91.556263 158.976 
L 89.568 159.37657 
L 83.616 160.409206 
L 77.664 161.173467 
L 71.712 161.512236 
L 65.76 161.161594 
L 59.808 159.650409 
L 58.698454 158.976 
L 53.856 155.57918 
L 52.43709 153.432 
L 49.287196 147.888 
L 47.904 145.025355 
z
M 47.904 141.97657 
L 48.051634 142.344 
L 50.729011 147.888 
L 53.856 153.415596 
L 53.876174 153.432 
L 59.808 157.575195 
L 64.592406 158.976 
L 65.76 159.271188 
L 71.712 159.606325 
L 77.664 159.253944 
L 79.803601 158.976 
L 83.616 158.390253 
L 89.568 157.162171 
L 95.52 155.73262 
L 101.472 154.175759 
L 104.186769 153.432 
L 107.424 152.36695 
L 113.376 150.357239 
L 119.328 148.319017 
L 120.585388 147.888 
L 125.28 145.914424 
L 131.232 143.4167 
L 133.809241 142.344 
L 137.184 140.56938 
L 143.136 137.469424 
L 144.43919 136.8 
L 149.088 133.643021 
L 152.649529 131.256 
L 155.04 128.974655 
L 158.509778 125.712 
L 160.992 121.866134 
L 162.105767 120.168 
L 163.576165 114.624 
L 163.0525 109.08 
L 160.992 104.217217 
L 160.712357 103.536 
L 156.794635 97.992 
L 155.04 96.202042 
L 151.47731 92.448 
L 149.088 90.451465 
L 144.979044 86.904 
L 143.136 85.571392 
L 137.499084 81.36 
L 137.184 81.155745 
L 131.232 77.178292 
L 129.255912 75.816 
L 125.28 73.378455 
L 120.363762 70.272 
L 119.328 69.679118 
L 113.376 66.184964 
L 110.949554 64.728 
L 107.424 62.78267 
L 101.472 59.441259 
L 101.014972 59.184 
L 95.52 56.308247 
L 90.376216 53.64 
L 89.568 53.246508 
L 83.616 50.47447 
L 78.007079 48.096 
L 77.664 47.958265 
L 71.712 46.059769 
L 65.76 45.059176 
L 59.808 45.787125 
L 56.499621 48.096 
L 53.856 50.11362 
L 52.1549 53.64 
L 49.731061 59.184 
L 47.904 63.864215 
L 47.677346 64.728 
L 46.647717 70.272 
L 46.006717 75.816 
L 45.583082 81.36 
L 45.287063 86.904 
L 44.941403 92.448 
L 44.71456 97.992 
L 44.611888 103.536 
L 44.639337 109.08 
L 44.803533 114.624 
L 45.111875 120.168 
L 45.410215 125.712 
L 45.838752 131.256 
L 46.581232 136.8 
z
" clip-path="url(#pdcf06df8f2)" style="fill: #375b8d"/>
   </g>
   <g id="PathCollection_7">
    <path d="M 46.581232 136.8 
L 45.838752 131.256 
L 45.410215 125.712 
L 45.111875 120.168 
L 44.803533 114.624 
L 44.639337 109.08 
L 44.611888 103.536 
L 44.71456 97.992 
L 44.941403 92.448 
L 45.287063 86.904 
L 45.583082 81.36 
L 46.006717 75.816 
L 46.647717 70.272 
L 47.677346 64.728 
L 47.904 63.864215 
L 49.731061 59.184 
L 52.1549 53.64 
L 53.856 50.11362 
L 56.499621 48.096 
L 59.808 45.787125 
L 65.76 45.059176 
L 71.712 46.059769 
L 77.664 47.958265 
L 78.007079 48.096 
L 83.616 50.47447 
L 89.568 53.246508 
L 90.376216 53.64 
L 95.52 56.308247 
L 101.014972 59.184 
L 101.472 59.441259 
L 107.424 62.78267 
L 110.949554 64.728 
L 113.376 66.184964 
L 119.328 69.679118 
L 120.363762 70.272 
L 125.28 73.378455 
L 129.255912 75.816 
L 131.232 77.178292 
L 137.184 81.155745 
L 137.499084 81.36 
L 143.136 85.571392 
L 144.979044 86.904 
L 149.088 90.451465 
L 151.47731 92.448 
L 155.04 96.202042 
L 156.794635 97.992 
L 160.712357 103.536 
L 160.992 104.217217 
L 163.0525 109.08 
L 163.576165 114.624 
L 162.105767 120.168 
L 160.992 121.866134 
L 158.509778 125.712 
L 155.04 128.974655 
L 152.649529 131.256 
L 149.088 133.643021 
L 144.43919 136.8 
L 143.136 137.469424 
L 137.184 140.56938 
L 133.809241 142.344 
L 131.232 143.4167 
L 125.28 145.914424 
L 120.585388 147.888 
L 119.328 148.319017 
L 113.376 150.357239 
L 107.424 152.36695 
L 104.186769 153.432 
L 101.472 154.175759 
L 95.52 155.73262 
L 89.568 157.162171 
L 83.616 158.390253 
L 79.803601 158.976 
L 77.664 159.253944 
L 71.712 159.606325 
L 65.76 159.271188 
L 64.592406 158.976 
L 59.808 157.575195 
L 53.876174 153.432 
L 53.856 153.415596 
L 50.729011 147.888 
L 48.051634 142.344 
L 47.904 141.97657 
z
M 47.904 138.353401 
L 49.507428 142.344 
L 52.170826 147.888 
L 53.856 150.866892 
L 57.010546 153.432 
L 59.808 155.385934 
L 65.76 157.108019 
L 71.712 157.480205 
L 77.664 157.048655 
L 83.616 156.119969 
L 89.568 154.877069 
L 95.52 153.434221 
L 95.528472 153.432 
L 101.472 151.561194 
L 107.424 149.592464 
L 112.440701 147.888 
L 113.376 147.498714 
L 119.328 144.995755 
L 125.28 142.478578 
L 125.600043 142.344 
L 131.232 139.354247 
L 136.068851 136.8 
L 137.184 136.023281 
L 143.136 131.919986 
L 144.111501 131.256 
L 149.088 126.442271 
L 149.853353 125.712 
L 153.407987 120.168 
L 154.873932 114.624 
L 154.43684 109.08 
L 152.263259 103.536 
L 149.088 98.860062 
L 148.517076 97.992 
L 143.432684 92.448 
L 143.136 92.192009 
L 137.202539 86.904 
L 137.184 86.890173 
L 131.232 82.312846 
L 130.030742 81.36 
L 125.28 78.092892 
L 122.065793 75.816 
L 119.328 74.091599 
L 113.427416 70.272 
L 113.376 70.24185 
L 107.424 66.682462 
L 104.210062 64.728 
L 101.472 63.197685 
L 95.52 59.853008 
L 94.311919 59.184 
L 89.568 56.74064 
L 83.616 53.794232 
L 83.269719 53.64 
L 77.664 51.293774 
L 71.712 49.307117 
L 65.76 48.284925 
L 59.808 49.121187 
L 53.914207 53.64 
L 53.856 53.689325 
L 51.434599 59.184 
L 49.255006 64.728 
L 47.904 68.629305 
L 47.586842 70.272 
L 46.817644 75.816 
L 46.309284 81.36 
L 45.958376 86.904 
L 45.609068 92.448 
L 45.378616 97.992 
L 45.272374 103.536 
L 45.296291 109.08 
L 45.456993 114.624 
L 45.761877 120.168 
L 46.101844 125.712 
L 46.616087 131.256 
L 47.50706 136.8 
z
" clip-path="url(#pdcf06df8f2)" style="fill: #2f6b8e"/>
   </g>
   <g id="PathCollection_8">
    <path d="M 47.50706 136.8 
L 46.616087 131.256 
L 46.101844 125.712 
L 45.761877 120.168 
L 45.456993 114.624 
L 45.296291 109.08 
L 45.272374 103.536 
L 45.378616 97.992 
L 45.609068 92.448 
L 45.958376 86.904 
L 46.309284 81.36 
L 46.817644 75.816 
L 47.586842 70.272 
L 47.904 68.629305 
L 49.255006 64.728 
L 51.434599 59.184 
L 53.856 53.689325 
L 53.914207 53.64 
L 59.808 49.121187 
L 65.76 48.284925 
L 71.712 49.307117 
L 77.664 51.293774 
L 83.269719 53.64 
L 83.616 53.794232 
L 89.568 56.74064 
L 94.311919 59.184 
L 95.52 59.853008 
L 101.472 63.197685 
L 104.210062 64.728 
L 107.424 66.682462 
L 113.376 70.24185 
L 113.427416 70.272 
L 119.328 74.091599 
L 122.065793 75.816 
L 125.28 78.092892 
L 130.030742 81.36 
L 131.232 82.312846 
L 137.184 86.890173 
L 137.202539 86.904 
L 143.136 92.192009 
L 143.432684 92.448 
L 148.517076 97.992 
L 149.088 98.860062 
L 152.263259 103.536 
L 154.43684 109.08 
L 154.873932 114.624 
L 153.407987 120.168 
L 149.853353 125.712 
L 149.088 126.442271 
L 144.111501 131.256 
L 143.136 131.919986 
L 137.184 136.023281 
L 136.068851 136.8 
L 131.232 139.354247 
L 125.600043 142.344 
L 125.28 142.478578 
L 119.328 144.995755 
L 113.376 147.498714 
L 112.440701 147.888 
L 107.424 149.592464 
L 101.472 151.561194 
L 95.528472 153.432 
L 95.52 153.434221 
L 89.568 154.877069 
L 83.616 156.119969 
L 77.664 157.048655 
L 71.712 157.480205 
L 65.76 157.108019 
L 59.808 155.385934 
L 57.010546 153.432 
L 53.856 150.866892 
L 52.170826 147.888 
L 49.507428 142.344 
L 47.904 138.353401 
z
M 47.904 134.221152 
L 48.743777 136.8 
L 50.963221 142.344 
L 53.612641 147.888 
L 53.856 148.318187 
L 59.808 153.153814 
L 60.640938 153.432 
L 65.76 154.894376 
L 71.712 155.245271 
L 77.664 154.794981 
L 83.616 153.849684 
L 85.601239 153.432 
L 89.568 152.430994 
L 95.52 150.692763 
L 101.472 148.802222 
L 104.222623 147.888 
L 107.424 146.585279 
L 113.376 144.099863 
L 117.526638 142.344 
L 119.328 141.383544 
L 125.28 138.201161 
L 127.907636 136.8 
L 131.232 134.464832 
L 135.827816 131.256 
L 137.184 129.916119 
L 141.481475 125.712 
L 143.136 123.08116 
L 144.991394 120.168 
L 146.491144 114.624 
L 146.1296 109.08 
L 144.071779 103.536 
L 143.136 102.105818 
L 140.527962 97.992 
L 137.184 94.218779 
L 135.662933 92.448 
L 131.232 88.373935 
L 129.681263 86.904 
L 125.28 83.417809 
L 122.756408 81.36 
L 119.328 78.937232 
L 115.027472 75.816 
L 113.376 74.75047 
L 107.424 70.825965 
L 106.595108 70.272 
L 101.472 67.170369 
L 97.460941 64.728 
L 95.52 63.641574 
L 89.568 60.35674 
L 87.344835 59.184 
L 83.616 57.353684 
L 77.664 54.715109 
L 74.588706 53.64 
L 71.712 52.694103 
L 65.76 51.722011 
L 59.808 52.618755 
L 58.476012 53.64 
L 53.856 57.555016 
L 53.138137 59.184 
L 50.939434 64.728 
L 49.007193 70.272 
L 47.904 73.936626 
L 47.628571 75.816 
L 47.035486 81.36 
L 46.629689 86.904 
L 46.276732 92.448 
L 46.042672 97.992 
L 45.93286 103.536 
L 45.953245 109.08 
L 46.110452 114.624 
L 46.411879 120.168 
L 46.793474 125.712 
L 47.393422 131.256 
z
" clip-path="url(#pdcf06df8f2)" style="fill: #297a8e"/>
   </g>
   <g id="PathCollection_9">
    <path d="M 47.393422 131.256 
L 46.793474 125.712 
L 46.411879 120.168 
L 46.110452 114.624 
L 45.953245 109.08 
L 45.93286 103.536 
L 46.042672 97.992 
L 46.276732 92.448 
L 46.629689 86.904 
L 47.035486 81.36 
L 47.628571 75.816 
L 47.904 73.936626 
L 49.007193 70.272 
L 50.939434 64.728 
L 53.138137 59.184 
L 53.856 57.555016 
L 58.476012 53.64 
L 59.808 52.618755 
L 65.76 51.722011 
L 71.712 52.694103 
L 74.588706 53.64 
L 77.664 54.715109 
L 83.616 57.353684 
L 87.344835 59.184 
L 89.568 60.35674 
L 95.52 63.641574 
L 97.460941 64.728 
L 101.472 67.170369 
L 106.595108 70.272 
L 107.424 70.825965 
L 113.376 74.75047 
L 115.027472 75.816 
L 119.328 78.937232 
L 122.756408 81.36 
L 125.28 83.417809 
L 129.681263 86.904 
L 131.232 88.373935 
L 135.662933 92.448 
L 137.184 94.218779 
L 140.527962 97.992 
L 143.136 102.105818 
L 144.071779 103.536 
L 146.1296 109.08 
L 146.491144 114.624 
L 144.991394 120.168 
L 143.136 123.08116 
L 141.481475 125.712 
L 137.184 129.916119 
L 135.827816 131.256 
L 131.232 134.464832 
L 127.907636 136.8 
L 125.28 138.201161 
L 119.328 141.383544 
L 117.526638 142.344 
L 113.376 144.099863 
L 107.424 146.585279 
L 104.222623 147.888 
L 101.472 148.802222 
L 95.52 150.692763 
L 89.568 152.430994 
L 85.601239 153.432 
L 83.616 153.849684 
L 77.664 154.794981 
L 71.712 155.245271 
L 65.76 154.894376 
L 60.640938 153.432 
L 59.808 153.153814 
L 53.856 148.318187 
L 53.612641 147.888 
L 50.963221 142.344 
L 48.743777 136.8 
L 47.904 134.221152 
z
M 47.904 129.250884 
L 48.413461 131.256 
L 50.213823 136.8 
L 52.419015 142.344 
L 53.856 145.35362 
L 56.507424 147.888 
L 59.808 150.565835 
L 65.76 152.542104 
L 71.712 152.93164 
L 77.664 152.373417 
L 83.616 151.227134 
L 89.568 149.708007 
L 95.52 147.950876 
L 95.717362 147.888 
L 101.472 145.6448 
L 107.424 143.207424 
L 109.482718 142.344 
L 113.376 140.287821 
L 119.328 137.09971 
L 119.886955 136.8 
L 125.28 132.995732 
L 127.750429 131.256 
L 131.232 127.794693 
L 133.34125 125.712 
L 136.816409 120.168 
L 137.184 118.824855 
L 138.346619 114.624 
L 138.061757 109.08 
L 137.184 106.587932 
L 136.141155 103.536 
L 132.762821 97.992 
L 131.232 96.205815 
L 128.106423 92.448 
L 125.28 89.768395 
L 122.343384 86.904 
L 119.328 84.448292 
L 115.633074 81.36 
L 113.376 79.725803 
L 108.093577 75.816 
L 107.424 75.375506 
L 101.472 71.40814 
L 99.773146 70.272 
L 95.52 67.69511 
L 90.560523 64.728 
L 89.568 64.181993 
L 83.616 61.062786 
L 79.637616 59.184 
L 77.664 58.316173 
L 71.712 56.270626 
L 65.76 55.278928 
L 59.808 56.315378 
L 56.430348 59.184 
L 53.856 61.632517 
L 52.623862 64.728 
L 50.672935 70.272 
L 48.991909 75.816 
L 47.904 80.091265 
L 47.761688 81.36 
L 47.301003 86.904 
L 46.944397 92.448 
L 46.706728 97.992 
L 46.593346 103.536 
L 46.610199 109.08 
L 46.763912 114.624 
L 47.061882 120.168 
L 47.485103 125.712 
z
" clip-path="url(#pdcf06df8f2)" style="fill: #23898e"/>
   </g>
   <g id="PathCollection_10">
    <path d="M 47.485103 125.712 
L 47.061882 120.168 
L 46.763912 114.624 
L 46.610199 109.08 
L 46.593346 103.536 
L 46.706728 97.992 
L 46.944397 92.448 
L 47.301003 86.904 
L 47.761688 81.36 
L 47.904 80.091265 
L 48.991909 75.816 
L 50.672935 70.272 
L 52.623862 64.728 
L 53.856 61.632517 
L 56.430348 59.184 
L 59.808 56.315378 
L 65.76 55.278928 
L 71.712 56.270626 
L 77.664 58.316173 
L 79.637616 59.184 
L 83.616 61.062786 
L 89.568 64.181993 
L 90.560523 64.728 
L 95.52 67.69511 
L 99.773146 70.272 
L 101.472 71.40814 
L 107.424 75.375506 
L 108.093577 75.816 
L 113.376 79.725803 
L 115.633074 81.36 
L 119.328 84.448292 
L 122.343384 86.904 
L 125.28 89.768395 
L 128.106423 92.448 
L 131.232 96.205815 
L 132.762821 97.992 
L 136.141155 103.536 
L 137.184 106.587932 
L 138.061757 109.08 
L 138.346619 114.624 
L 137.184 118.824855 
L 136.816409 120.168 
L 133.34125 125.712 
L 131.232 127.794693 
L 127.750429 131.256 
L 125.28 132.995732 
L 119.886955 136.8 
L 119.328 137.09971 
L 113.376 140.287821 
L 109.482718 142.344 
L 107.424 143.207424 
L 101.472 145.6448 
L 95.717362 147.888 
L 95.52 147.950876 
L 89.568 149.708007 
L 83.616 151.227134 
L 77.664 152.373417 
L 71.712 152.93164 
L 65.76 152.542104 
L 59.808 150.565835 
L 56.507424 147.888 
L 53.856 145.35362 
L 52.419015 142.344 
L 50.213823 136.8 
L 48.413461 131.256 
L 47.904 129.250884 
z
M 47.904 122.543138 
L 48.495265 125.712 
L 49.898041 131.256 
L 51.68387 136.8 
L 53.856 142.295943 
L 53.897955 142.344 
L 59.697247 147.888 
L 59.808 147.977856 
L 65.76 149.919983 
L 71.712 150.279592 
L 77.664 149.694941 
L 83.616 148.525162 
L 86.089556 147.888 
L 89.568 146.793069 
L 95.52 144.634695 
L 101.335713 142.344 
L 101.472 142.27653 
L 107.424 139.202099 
L 111.945614 136.8 
L 113.376 135.80318 
L 119.328 131.602851 
L 119.81838 131.256 
L 125.28 125.815719 
L 125.384397 125.712 
L 128.876939 120.168 
L 130.430709 114.624 
L 130.228701 109.08 
L 128.434519 103.536 
L 125.28 98.139106 
L 125.196324 97.992 
L 120.725154 92.448 
L 119.328 91.084544 
L 115.150945 86.904 
L 113.376 85.422146 
L 108.612236 81.36 
L 107.424 80.482671 
L 101.472 76.025259 
L 101.192802 75.816 
L 95.52 72.037825 
L 92.829628 70.272 
L 89.568 68.332229 
L 83.616 64.950588 
L 83.176754 64.728 
L 77.664 62.156798 
L 71.712 59.986108 
L 66.999616 59.184 
L 65.76 58.987143 
L 64.685023 59.184 
L 59.808 60.178156 
L 55.021904 64.728 
L 53.856 65.990181 
L 52.338676 70.272 
L 50.639374 75.816 
L 49.21424 81.36 
L 48.068053 86.904 
L 47.904 87.950686 
L 47.612062 92.448 
L 47.370784 97.992 
L 47.253832 103.536 
L 47.267153 109.08 
L 47.417372 114.624 
L 47.711884 120.168 
z
" clip-path="url(#pdcf06df8f2)" style="fill: #1f988b"/>
   </g>
   <g id="PathCollection_11">
    <path d="M 47.711884 120.168 
L 47.417372 114.624 
L 47.267153 109.08 
L 47.253832 103.536 
L 47.370784 97.992 
L 47.612062 92.448 
L 47.904 87.950686 
L 48.068053 86.904 
L 49.21424 81.36 
L 50.639374 75.816 
L 52.338676 70.272 
L 53.856 65.990181 
L 55.021904 64.728 
L 59.808 60.178156 
L 64.685023 59.184 
L 65.76 58.987143 
L 66.999616 59.184 
L 71.712 59.986108 
L 77.664 62.156798 
L 83.176754 64.728 
L 83.616 64.950588 
L 89.568 68.332229 
L 92.829628 70.272 
L 95.52 72.037825 
L 101.192802 75.816 
L 101.472 76.025259 
L 107.424 80.482671 
L 108.612236 81.36 
L 113.376 85.422146 
L 115.150945 86.904 
L 119.328 91.084544 
L 120.725154 92.448 
L 125.196324 97.992 
L 125.28 98.139106 
L 128.434519 103.536 
L 130.228701 109.08 
L 130.430709 114.624 
L 128.876939 120.168 
L 125.384397 125.712 
L 125.28 125.815719 
L 119.81838 131.256 
L 119.328 131.602851 
L 113.376 135.80318 
L 111.945614 136.8 
L 107.424 139.202099 
L 101.472 142.27653 
L 101.335713 142.344 
L 95.52 144.634695 
L 89.568 146.793069 
L 86.089556 147.888 
L 83.616 148.525162 
L 77.664 149.694941 
L 71.712 150.279592 
L 65.76 149.919983 
L 59.808 147.977856 
L 59.697247 147.888 
L 53.897955 142.344 
L 53.856 142.295943 
L 51.68387 136.8 
L 49.898041 131.256 
L 48.495265 125.712 
L 47.904 122.543138 
z
M 53.856 138.576419 
L 57.145228 142.344 
L 59.808 144.89043 
L 65.76 147.178004 
L 71.712 147.573917 
L 77.664 146.834856 
L 83.616 145.388362 
L 89.568 143.491241 
L 92.70385 142.344 
L 95.52 141.050372 
L 101.472 138.091541 
L 103.95592 136.8 
L 107.424 134.438165 
L 111.974892 131.256 
L 113.376 129.883622 
L 117.584506 125.712 
L 119.328 122.962907 
L 121.096578 120.168 
L 122.707217 114.624 
L 122.585895 109.08 
L 120.897491 103.536 
L 119.328 100.75076 
L 117.809932 97.992 
L 113.478175 92.448 
L 113.376 92.345655 
L 108.052345 86.904 
L 107.424 86.368745 
L 101.623359 81.36 
L 101.472 81.246884 
L 95.52 76.79743 
L 94.184682 75.816 
L 89.568 72.800936 
L 85.505365 70.272 
L 83.616 69.206038 
L 77.664 66.210338 
L 73.853398 64.728 
L 71.712 63.960713 
L 65.76 63.013104 
L 59.808 64.30591 
L 59.363992 64.728 
L 54.233783 70.272 
L 53.856 70.746257 
L 52.28684 75.816 
L 50.843826 81.36 
L 49.680144 86.904 
L 48.801564 92.448 
L 48.214956 97.992 
L 47.928397 103.536 
L 47.951308 109.08 
L 48.294606 114.624 
L 48.970891 120.168 
L 49.994671 125.712 
L 51.382622 131.256 
L 53.153916 136.8 
z
" clip-path="url(#pdcf06df8f2)" style="fill: #22a785"/>
   </g>
   <g id="PathCollection_12">
    <path d="M 53.153916 136.8 
L 51.382622 131.256 
L 49.994671 125.712 
L 48.970891 120.168 
L 48.294606 114.624 
L 47.951308 109.08 
L 47.928397 103.536 
L 48.214956 97.992 
L 48.801564 92.448 
L 49.680144 86.904 
L 50.843826 81.36 
L 52.28684 75.816 
L 53.856 70.746257 
L 54.233783 70.272 
L 59.363992 64.728 
L 59.808 64.30591 
L 65.76 63.013104 
L 71.712 63.960713 
L 73.853398 64.728 
L 77.664 66.210338 
L 83.616 69.206038 
L 85.505365 70.272 
L 89.568 72.800936 
L 94.184682 75.816 
L 95.52 76.79743 
L 101.472 81.246884 
L 101.623359 81.36 
L 107.424 86.368745 
L 108.052345 86.904 
L 113.376 92.345655 
L 113.478175 92.448 
L 117.809932 97.992 
L 119.328 100.75076 
L 120.897491 103.536 
L 122.585895 109.08 
L 122.707217 114.624 
L 121.096578 120.168 
L 119.328 122.962907 
L 117.584506 125.712 
L 113.376 129.883622 
L 111.974892 131.256 
L 107.424 134.438165 
L 103.95592 136.8 
L 101.472 138.091541 
L 95.52 141.050372 
L 92.70385 142.344 
L 89.568 143.491241 
L 83.616 145.388362 
L 77.664 146.834856 
L 71.712 147.573917 
L 65.76 147.178004 
L 59.808 144.89043 
L 57.145228 142.344 
L 53.856 138.576419 
z
M 53.856 134.363028 
L 55.58351 136.8 
L 59.808 141.659332 
L 61.312008 142.344 
L 65.76 144.023325 
L 71.712 144.375819 
L 77.664 143.598247 
L 82.713282 142.344 
L 83.616 142.063049 
L 89.568 139.666779 
L 95.52 136.904567 
L 95.729491 136.8 
L 101.472 133.051929 
L 104.098501 131.256 
L 107.424 128.079951 
L 109.843167 125.712 
L 113.376 120.244727 
L 113.425059 120.168 
L 115.106517 114.624 
L 115.070874 109.08 
L 113.485765 103.536 
L 113.376 103.334337 
L 110.521222 97.992 
L 107.424 93.929367 
L 106.307289 92.448 
L 101.472 87.430158 
L 100.964924 86.904 
L 95.52 82.205509 
L 94.521595 81.36 
L 89.568 77.732409 
L 86.813738 75.816 
L 83.616 73.83888 
L 77.664 70.555856 
L 76.986545 70.272 
L 71.712 68.266866 
L 65.76 67.302251 
L 59.808 68.833077 
L 58.473764 70.272 
L 54.052899 75.816 
L 53.856 76.11011 
L 52.473412 81.36 
L 51.292234 86.904 
L 50.39653 92.448 
L 49.793158 97.992 
L 49.490185 103.536 
L 49.497019 109.08 
L 49.824567 114.624 
L 50.48542 120.168 
L 51.494076 125.712 
L 52.867203 131.256 
z
" clip-path="url(#pdcf06df8f2)" style="fill: #32b67a"/>
   </g>
   <g id="PathCollection_13">
    <path d="M 52.867203 131.256 
L 51.494076 125.712 
L 50.48542 120.168 
L 49.824567 114.624 
L 49.497019 109.08 
L 49.490185 103.536 
L 49.793158 97.992 
L 50.39653 92.448 
L 51.292234 86.904 
L 52.473412 81.36 
L 53.856 76.11011 
L 54.052899 75.816 
L 58.473764 70.272 
L 59.808 68.833077 
L 65.76 67.302251 
L 71.712 68.266866 
L 76.986545 70.272 
L 77.664 70.555856 
L 83.616 73.83888 
L 86.813738 75.816 
L 89.568 77.732409 
L 94.521595 81.36 
L 95.52 82.205509 
L 100.964924 86.904 
L 101.472 87.430158 
L 106.307289 92.448 
L 107.424 93.929367 
L 110.521222 97.992 
L 113.376 103.334337 
L 113.485765 103.536 
L 115.070874 109.08 
L 115.106517 114.624 
L 113.425059 120.168 
L 113.376 120.244727 
L 109.843167 125.712 
L 107.424 128.079951 
L 104.098501 131.256 
L 101.472 133.051929 
L 95.729491 136.8 
L 95.52 136.904567 
L 89.568 139.666779 
L 83.616 142.063049 
L 82.713282 142.344 
L 77.664 143.598247 
L 71.712 144.375819 
L 65.76 144.023325 
L 61.312008 142.344 
L 59.808 141.659332 
L 55.58351 136.8 
L 53.856 134.363028 
z
M 53.856 129.219643 
L 54.980964 131.256 
L 58.890339 136.8 
L 59.808 137.855565 
L 65.76 140.530377 
L 71.712 140.905778 
L 77.664 139.892526 
L 83.616 138.007824 
L 86.575061 136.8 
L 89.568 135.20821 
L 95.52 131.57956 
L 96.013186 131.256 
L 101.472 126.269095 
L 102.055528 125.712 
L 105.776448 120.168 
L 107.424 115.063964 
L 107.563052 114.624 
L 107.621152 109.08 
L 107.424 108.35168 
L 106.13187 103.536 
L 103.253743 97.992 
L 101.472 95.614591 
L 99.094792 92.448 
L 95.52 88.732187 
L 93.723944 86.904 
L 89.568 83.390095 
L 87.032625 81.36 
L 83.616 78.995228 
L 78.444592 75.816 
L 77.664 75.389507 
L 71.712 72.943645 
L 65.76 71.959636 
L 59.808 73.807721 
L 58.195465 75.816 
L 54.46979 81.36 
L 53.856 82.492633 
L 52.904324 86.904 
L 51.991497 92.448 
L 51.371361 97.992 
L 51.051972 103.536 
L 51.042729 109.08 
L 51.354528 114.624 
L 51.999949 120.168 
L 52.993481 125.712 
z
" clip-path="url(#pdcf06df8f2)" style="fill: #4ec36b"/>
   </g>
   <g id="PathCollection_14">
    <path d="M 52.993481 125.712 
L 51.999949 120.168 
L 51.354528 114.624 
L 51.042729 109.08 
L 51.051972 103.536 
L 51.371361 97.992 
L 51.991497 92.448 
L 52.904324 86.904 
L 53.856 82.492633 
L 54.46979 81.36 
L 58.195465 75.816 
L 59.808 73.807721 
L 65.76 71.959636 
L 71.712 72.943645 
L 77.664 75.389507 
L 78.444592 75.816 
L 83.616 78.995228 
L 87.032625 81.36 
L 89.568 83.390095 
L 93.723944 86.904 
L 95.52 88.732187 
L 99.094792 92.448 
L 101.472 95.614591 
L 103.253743 97.992 
L 106.13187 103.536 
L 107.424 108.35168 
L 107.621152 109.08 
L 107.563052 114.624 
L 107.424 115.063964 
L 105.776448 120.168 
L 102.055528 125.712 
L 101.472 126.269095 
L 96.013186 131.256 
L 95.52 131.57956 
L 89.568 135.20821 
L 86.575061 136.8 
L 83.616 138.007824 
L 77.664 139.892526 
L 71.712 140.905778 
L 65.76 140.530377 
L 59.808 137.855565 
L 58.890339 136.8 
L 54.980964 131.256 
L 53.856 129.219643 
z
M 53.856 122.09056 
L 55.31409 125.712 
L 58.349574 131.256 
L 59.808 133.333347 
L 65.76 136.612853 
L 68.622845 136.8 
L 71.712 136.961977 
L 72.622691 136.8 
L 77.664 135.636198 
L 83.616 133.145051 
L 87.12862 131.256 
L 89.568 129.441353 
L 93.962031 125.712 
L 95.52 123.663438 
L 97.993012 120.168 
L 99.941843 114.624 
L 100.113706 109.08 
L 98.703574 103.536 
L 95.883899 97.992 
L 95.52 97.503997 
L 91.66126 92.448 
L 89.568 90.313754 
L 86.024475 86.904 
L 83.616 84.981277 
L 78.478314 81.36 
L 77.664 80.864019 
L 71.712 78.170154 
L 65.76 77.166727 
L 59.808 79.460831 
L 58.519316 81.36 
L 55.478503 86.904 
L 53.856 90.828917 
L 53.586463 92.448 
L 52.949564 97.992 
L 52.61376 103.536 
L 52.588439 109.08 
L 52.884488 114.624 
L 53.514478 120.168 
z
" clip-path="url(#pdcf06df8f2)" style="fill: #70cf57"/>
   </g>
   <g id="PathCollection_15">
    <path d="M 53.514478 120.168 
L 52.884488 114.624 
L 52.588439 109.08 
L 52.61376 103.536 
L 52.949564 97.992 
L 53.586463 92.448 
L 53.856 90.828917 
L 55.478503 86.904 
L 58.519316 81.36 
L 59.808 79.460831 
L 65.76 77.166727 
L 71.712 78.170154 
L 77.664 80.864019 
L 78.478314 81.36 
L 83.616 84.981277 
L 86.024475 86.904 
L 89.568 90.313754 
L 91.66126 92.448 
L 95.52 97.503997 
L 95.883899 97.992 
L 98.703574 103.536 
L 100.113706 109.08 
L 99.941843 114.624 
L 97.993012 120.168 
L 95.52 123.663438 
L 93.962031 125.712 
L 89.568 129.441353 
L 87.12862 131.256 
L 83.616 133.145051 
L 77.664 135.636198 
L 72.622691 136.8 
L 71.712 136.961977 
L 68.622845 136.8 
L 65.76 136.612853 
L 59.808 133.333347 
L 58.349574 131.256 
L 55.31409 125.712 
L 53.856 122.09056 
z
M 59.808 127.668003 
L 64.948749 131.256 
L 65.76 131.695989 
L 71.712 131.983152 
L 74.692786 131.256 
L 77.664 130.26077 
L 83.616 126.761211 
L 85.019295 125.712 
L 89.568 120.482396 
L 89.809034 120.168 
L 92.00905 114.624 
L 92.329822 109.08 
L 90.991405 103.536 
L 89.568 100.747486 
L 88.066779 97.992 
L 83.633533 92.448 
L 83.616 92.431116 
L 77.664 87.415569 
L 76.836614 86.904 
L 71.712 84.282139 
L 65.76 83.267809 
L 59.808 86.237582 
L 59.439076 86.904 
L 57.076525 92.448 
L 55.470883 97.992 
L 54.616248 103.536 
L 54.511139 109.08 
L 55.15858 114.624 
L 56.56627 120.168 
L 58.746834 125.712 
z
" clip-path="url(#pdcf06df8f2)" style="fill: #98d83e"/>
   </g>
   <g id="PathCollection_16">
    <path d="M 58.746834 125.712 
L 56.56627 120.168 
L 55.15858 114.624 
L 54.511139 109.08 
L 54.616248 103.536 
L 55.470883 97.992 
L 57.076525 92.448 
L 59.439076 86.904 
L 59.808 86.237582 
L 65.76 83.267809 
L 71.712 84.282139 
L 76.836614 86.904 
L 77.664 87.415569 
L 83.616 92.431116 
L 83.633533 92.448 
L 88.066779 97.992 
L 89.568 100.747486 
L 90.991405 103.536 
L 92.329822 109.08 
L 92.00905 114.624 
L 89.809034 120.168 
L 89.568 120.482396 
L 85.019295 125.712 
L 83.616 126.761211 
L 77.664 130.26077 
L 74.692786 131.256 
L 71.712 131.983152 
L 65.76 131.695989 
L 64.948749 131.256 
L 59.808 127.668003 
z
M 59.808 119.083832 
L 60.537432 120.168 
L 65.76 125.126679 
L 71.712 125.409972 
L 77.664 122.24754 
L 79.964438 120.168 
L 83.198981 114.624 
L 83.616 111.180057 
L 83.820998 109.08 
L 83.616 108.205161 
L 82.342637 103.536 
L 78.968453 97.992 
L 77.664 96.562756 
L 72.458556 92.448 
L 71.712 91.993676 
L 65.76 91.008115 
L 63.616744 92.448 
L 59.808 96.181182 
L 59.264782 97.992 
L 58.331962 103.536 
L 58.151825 109.08 
L 58.727208 114.624 
z
" clip-path="url(#pdcf06df8f2)" style="fill: #c2df23"/>
   </g>
   <g id="PathCollection_17">
    <path d="M 58.727208 114.624 
L 58.151825 109.08 
L 58.331962 103.536 
L 59.264782 97.992 
L 59.808 96.181182 
L 63.616744 92.448 
L 65.76 91.008115 
L 71.712 91.993676 
L 72.458556 92.448 
L 77.664 96.562756 
L 78.968453 97.992 
L 82.342637 103.536 
L 83.616 108.205161 
L 83.820998 109.08 
L 83.616 111.180057 
L 83.198981 114.624 
L 79.964438 120.168 
L 77.664 122.24754 
L 71.712 125.409972 
L 65.76 125.126679 
L 60.537432 120.168 
L 59.808 119.083832 
z
" clip-path="url(#pdcf06df8f2)" style="fill: #ece51b"/>
   </g>
   <g id="PathCollection_18">
    <defs>
     <path id="m16e3a95da1" d="M -4.330127 4.330127 
L 4.330127 -4.330127 
M -4.330127 -4.330127 
L 4.330127 4.330127 
" style="stroke: #000000; stroke-width: 2"/>
    </defs>
    <g clip-path="url(#pdcf06df8f2)">
     <use xlink:href="#m16e3a95da1" x="65.76" y="109.08" style="stroke: #000000; stroke-width: 2"/>
    </g>
   </g>
   <g id="matplotlib.axis_1">
    <g id="xtick_1">
     <g id="line2d_1">
      <defs>
       <path id="maa2290208c" d="M 0 0 
L 0 3.5 
" style="stroke: #000000; stroke-width: 0.8"/>
      </defs>
      <g>
       <use xlink:href="#maa2290208c" x="65.76" y="192.24" style="stroke: #000000; stroke-width: 0.8"/>
      </g>
     </g>
     <g id="text_1">
      <!-- 200 -->
      <g transform="translate(54.3075 208.358125) scale(0.12 -0.12)">
       <defs>
        <path id="DejaVuSans-32" d="M 1228 531 
L 3431 531 
L 3431 0 
L 469 0 
L 469 531 
Q 828 903 1448 1529 
Q 2069 2156 2228 2338 
Q 2531 2678 2651 2914 
Q 2772 3150 2772 3378 
Q 2772 3750 2511 3984 
Q 2250 4219 1831 4219 
Q 1534 4219 1204 4116 
Q 875 4013 500 3803 
L 500 4441 
Q 881 4594 1212 4672 
Q 1544 4750 1819 4750 
Q 2544 4750 2975 4387 
Q 3406 4025 3406 3419 
Q 3406 3131 3298 2873 
Q 3191 2616 2906 2266 
Q 2828 2175 2409 1742 
Q 1991 1309 1228 531 
z
" transform="scale(0.015625)"/>
        <path id="DejaVuSans-30" d="M 2034 4250 
Q 1547 4250 1301 3770 
Q 1056 3291 1056 2328 
Q 1056 1369 1301 889 
Q 1547 409 2034 409 
Q 2525 409 2770 889 
Q 3016 1369 3016 2328 
Q 3016 3291 2770 3770 
Q 2525 4250 2034 4250 
z
M 2034 4750 
Q 2819 4750 3233 4129 
Q 3647 3509 3647 2328 
Q 3647 1150 3233 529 
Q 2819 -91 2034 -91 
Q 1250 -91 836 529 
Q 422 1150 422 2328 
Q 422 3509 836 4129 
Q 1250 4750 2034 4750 
z
" transform="scale(0.015625)"/>
       </defs>
       <use xlink:href="#DejaVuSans-32"/>
       <use xlink:href="#DejaVuSans-30" x="63.623047"/>
       <use xlink:href="#DejaVuSans-30" x="127.246094"/>
      </g>
     </g>
    </g>
    <g id="xtick_2">
     <g id="line2d_2">
      <g>
       <use xlink:href="#maa2290208c" x="105.44" y="192.24" style="stroke: #000000; stroke-width: 0.8"/>
      </g>
     </g>
     <g id="text_2">
      <!-- 400 -->
      <g transform="translate(93.9875 208.358125) scale(0.12 -0.12)">
       <defs>
        <path id="DejaVuSans-34" d="M 2419 4116 
L 825 1625 
L 2419 1625 
L 2419 4116 
z
M 2253 4666 
L 3047 4666 
L 3047 1625 
L 3713 1625 
L 3713 1100 
L 3047 1100 
L 3047 0 
L 2419 0 
L 2419 1100 
L 313 1100 
L 313 1709 
L 2253 4666 
z
" transform="scale(0.015625)"/>
       </defs>
       <use xlink:href="#DejaVuSans-34"/>
       <use xlink:href="#DejaVuSans-30" x="63.623047"/>
       <use xlink:href="#DejaVuSans-30" x="127.246094"/>
      </g>
     </g>
    </g>
    <g id="xtick_3">
     <g id="line2d_3">
      <g>
       <use xlink:href="#maa2290208c" x="145.12" y="192.24" style="stroke: #000000; stroke-width: 0.8"/>
      </g>
     </g>
     <g id="text_3">
      <!-- 600 -->
      <g transform="translate(133.6675 208.358125) scale(0.12 -0.12)">
       <defs>
        <path id="DejaVuSans-36" d="M 2113 2584 
Q 1688 2584 1439 2293 
Q 1191 2003 1191 1497 
Q 1191 994 1439 701 
Q 1688 409 2113 409 
Q 2538 409 2786 701 
Q 3034 994 3034 1497 
Q 3034 2003 2786 2293 
Q 2538 2584 2113 2584 
z
M 3366 4563 
L 3366 3988 
Q 3128 4100 2886 4159 
Q 2644 4219 2406 4219 
Q 1781 4219 1451 3797 
Q 1122 3375 1075 2522 
Q 1259 2794 1537 2939 
Q 1816 3084 2150 3084 
Q 2853 3084 3261 2657 
Q 3669 2231 3669 1497 
Q 3669 778 3244 343 
Q 2819 -91 2113 -91 
Q 1303 -91 875 529 
Q 447 1150 447 2328 
Q 447 3434 972 4092 
Q 1497 4750 2381 4750 
Q 2619 4750 2861 4703 
Q 3103 4656 3366 4563 
z
" transform="scale(0.015625)"/>
       </defs>
       <use xlink:href="#DejaVuSans-36"/>
       <use xlink:href="#DejaVuSans-30" x="63.623047"/>
       <use xlink:href="#DejaVuSans-30" x="127.246094"/>
      </g>
     </g>
    </g>
    <g id="xtick_4">
     <g id="line2d_4">
      <g>
       <use xlink:href="#maa2290208c" x="184.8" y="192.24" style="stroke: #000000; stroke-width: 0.8"/>
      </g>
     </g>
     <g id="text_4">
      <!-- 800 -->
      <g transform="translate(173.3475 208.358125) scale(0.12 -0.12)">
       <defs>
        <path id="DejaVuSans-38" d="M 2034 2216 
Q 1584 2216 1326 1975 
Q 1069 1734 1069 1313 
Q 1069 891 1326 650 
Q 1584 409 2034 409 
Q 2484 409 2743 651 
Q 3003 894 3003 1313 
Q 3003 1734 2745 1975 
Q 2488 2216 2034 2216 
z
M 1403 2484 
Q 997 2584 770 2862 
Q 544 3141 544 3541 
Q 544 4100 942 4425 
Q 1341 4750 2034 4750 
Q 2731 4750 3128 4425 
Q 3525 4100 3525 3541 
Q 3525 3141 3298 2862 
Q 3072 2584 2669 2484 
Q 3125 2378 3379 2068 
Q 3634 1759 3634 1313 
Q 3634 634 3220 271 
Q 2806 -91 2034 -91 
Q 1263 -91 848 271 
Q 434 634 434 1313 
Q 434 1759 690 2068 
Q 947 2378 1403 2484 
z
M 1172 3481 
Q 1172 3119 1398 2916 
Q 1625 2713 2034 2713 
Q 2441 2713 2670 2916 
Q 2900 3119 2900 3481 
Q 2900 3844 2670 4047 
Q 2441 4250 2034 4250 
Q 1625 4250 1398 4047 
Q 1172 3844 1172 3481 
z
" transform="scale(0.015625)"/>
       </defs>
       <use xlink:href="#DejaVuSans-38"/>
       <use xlink:href="#DejaVuSans-30" x="63.623047"/>
       <use xlink:href="#DejaVuSans-30" x="127.246094"/>
      </g>
     </g>
    </g>
    <g id="text_5">
     <!-- Diploid N$_e$0 -->
     <g transform="translate(80 227.01375) scale(0.16 -0.16)">
      <defs>
       <path id="DejaVuSans-44" d="M 1259 4147 
L 1259 519 
L 2022 519 
Q 2988 519 3436 956 
Q 3884 1394 3884 2338 
Q 3884 3275 3436 3711 
Q 2988 4147 2022 4147 
L 1259 4147 
z
M 628 4666 
L 1925 4666 
Q 3281 4666 3915 4102 
Q 4550 3538 4550 2338 
Q 4550 1131 3912 565 
Q 3275 0 1925 0 
L 628 0 
L 628 4666 
z
" transform="scale(0.015625)"/>
       <path id="DejaVuSans-69" d="M 603 3500 
L 1178 3500 
L 1178 0 
L 603 0 
L 603 3500 
z
M 603 4863 
L 1178 4863 
L 1178 4134 
L 603 4134 
L 603 4863 
z
" transform="scale(0.015625)"/>
       <path id="DejaVuSans-70" d="M 1159 525 
L 1159 -1331 
L 581 -1331 
L 581 3500 
L 1159 3500 
L 1159 2969 
Q 1341 3281 1617 3432 
Q 1894 3584 2278 3584 
Q 2916 3584 3314 3078 
Q 3713 2572 3713 1747 
Q 3713 922 3314 415 
Q 2916 -91 2278 -91 
Q 1894 -91 1617 61 
Q 1341 213 1159 525 
z
M 3116 1747 
Q 3116 2381 2855 2742 
Q 2594 3103 2138 3103 
Q 1681 3103 1420 2742 
Q 1159 2381 1159 1747 
Q 1159 1113 1420 752 
Q 1681 391 2138 391 
Q 2594 391 2855 752 
Q 3116 1113 3116 1747 
z
" transform="scale(0.015625)"/>
       <path id="DejaVuSans-6c" d="M 603 4863 
L 1178 4863 
L 1178 0 
L 603 0 
L 603 4863 
z
" transform="scale(0.015625)"/>
       <path id="DejaVuSans-6f" d="M 1959 3097 
Q 1497 3097 1228 2736 
Q 959 2375 959 1747 
Q 959 1119 1226 758 
Q 1494 397 1959 397 
Q 2419 397 2687 759 
Q 2956 1122 2956 1747 
Q 2956 2369 2687 2733 
Q 2419 3097 1959 3097 
z
M 1959 3584 
Q 2709 3584 3137 3096 
Q 3566 2609 3566 1747 
Q 3566 888 3137 398 
Q 2709 -91 1959 -91 
Q 1206 -91 779 398 
Q 353 888 353 1747 
Q 353 2609 779 3096 
Q 1206 3584 1959 3584 
z
" transform="scale(0.015625)"/>
       <path id="DejaVuSans-64" d="M 2906 2969 
L 2906 4863 
L 3481 4863 
L 3481 0 
L 2906 0 
L 2906 525 
Q 2725 213 2448 61 
Q 2172 -91 1784 -91 
Q 1150 -91 751 415 
Q 353 922 353 1747 
Q 353 2572 751 3078 
Q 1150 3584 1784 3584 
Q 2172 3584 2448 3432 
Q 2725 3281 2906 2969 
z
M 947 1747 
Q 947 1113 1208 752 
Q 1469 391 1925 391 
Q 2381 391 2643 752 
Q 2906 1113 2906 1747 
Q 2906 2381 2643 2742 
Q 2381 3103 1925 3103 
Q 1469 3103 1208 2742 
Q 947 2381 947 1747 
z
" transform="scale(0.015625)"/>
       <path id="DejaVuSans-20" transform="scale(0.015625)"/>
       <path id="DejaVuSans-4e" d="M 628 4666 
L 1478 4666 
L 3547 763 
L 3547 4666 
L 4159 4666 
L 4159 0 
L 3309 0 
L 1241 3903 
L 1241 0 
L 628 0 
L 628 4666 
z
" transform="scale(0.015625)"/>
       <path id="DejaVuSans-Oblique-65" d="M 3078 2063 
Q 3088 2113 3092 2166 
Q 3097 2219 3097 2272 
Q 3097 2653 2873 2875 
Q 2650 3097 2266 3097 
Q 1838 3097 1509 2826 
Q 1181 2556 1013 2059 
L 3078 2063 
z
M 3578 1613 
L 903 1613 
Q 884 1494 878 1425 
Q 872 1356 872 1306 
Q 872 872 1139 634 
Q 1406 397 1894 397 
Q 2269 397 2603 481 
Q 2938 566 3225 728 
L 3116 159 
Q 2806 34 2476 -28 
Q 2147 -91 1806 -91 
Q 1078 -91 686 257 
Q 294 606 294 1247 
Q 294 1794 489 2264 
Q 684 2734 1063 3103 
Q 1306 3334 1642 3459 
Q 1978 3584 2356 3584 
Q 2950 3584 3301 3228 
Q 3653 2872 3653 2272 
Q 3653 2128 3634 1964 
Q 3616 1800 3578 1613 
z
" transform="scale(0.015625)"/>
      </defs>
      <use xlink:href="#DejaVuSans-44" transform="translate(0 0.015625)"/>
      <use xlink:href="#DejaVuSans-69" transform="translate(77.001953 0.015625)"/>
      <use xlink:href="#DejaVuSans-70" transform="translate(104.785156 0.015625)"/>
      <use xlink:href="#DejaVuSans-6c" transform="translate(168.261719 0.015625)"/>
      <use xlink:href="#DejaVuSans-6f" transform="translate(196.044922 0.015625)"/>
      <use xlink:href="#DejaVuSans-69" transform="translate(257.226562 0.015625)"/>
      <use xlink:href="#DejaVuSans-64" transform="translate(285.009766 0.015625)"/>
      <use xlink:href="#DejaVuSans-20" transform="translate(348.486328 0.015625)"/>
      <use xlink:href="#DejaVuSans-4e" transform="translate(380.273438 0.015625)"/>
      <use xlink:href="#DejaVuSans-Oblique-65" transform="translate(456.035156 -16.390625) scale(0.7)"/>
      <use xlink:href="#DejaVuSans-30" transform="translate(501.835938 0.015625)"/>
     </g>
    </g>
    <g id="text_6">
     <!-- 1e3 -->
     <g transform="translate(195.681875 221.452188) scale(0.1 -0.1)">
      <defs>
       <path id="DejaVuSans-31" d="M 794 531 
L 1825 531 
L 1825 4091 
L 703 3866 
L 703 4441 
L 1819 4666 
L 2450 4666 
L 2450 531 
L 3481 531 
L 3481 0 
L 794 0 
L 794 531 
z
" transform="scale(0.015625)"/>
       <path id="DejaVuSans-65" d="M 3597 1894 
L 3597 1613 
L 953 1613 
Q 991 1019 1311 708 
Q 1631 397 2203 397 
Q 2534 397 2845 478 
Q 3156 559 3463 722 
L 3463 178 
Q 3153 47 2828 -22 
Q 2503 -91 2169 -91 
Q 1331 -91 842 396 
Q 353 884 353 1716 
Q 353 2575 817 3079 
Q 1281 3584 2069 3584 
Q 2775 3584 3186 3129 
Q 3597 2675 3597 1894 
z
M 3022 2063 
Q 3016 2534 2758 2815 
Q 2500 3097 2075 3097 
Q 1594 3097 1305 2825 
Q 1016 2553 972 2059 
L 3022 2063 
z
" transform="scale(0.015625)"/>
       <path id="DejaVuSans-33" d="M 2597 2516 
Q 3050 2419 3304 2112 
Q 3559 1806 3559 1356 
Q 3559 666 3084 287 
Q 2609 -91 1734 -91 
Q 1441 -91 1130 -33 
Q 819 25 488 141 
L 488 750 
Q 750 597 1062 519 
Q 1375 441 1716 441 
Q 2309 441 2620 675 
Q 2931 909 2931 1356 
Q 2931 1769 2642 2001 
Q 2353 2234 1838 2234 
L 1294 2234 
L 1294 2753 
L 1863 2753 
Q 2328 2753 2575 2939 
Q 2822 3125 2822 3475 
Q 2822 3834 2567 4026 
Q 2313 4219 1838 4219 
Q 1578 4219 1281 4162 
Q 984 4106 628 3988 
L 628 4550 
Q 988 4650 1302 4700 
Q 1616 4750 1894 4750 
Q 2613 4750 3031 4423 
Q 3450 4097 3450 3541 
Q 3450 3153 3228 2886 
Q 3006 2619 2597 2516 
z
" transform="scale(0.015625)"/>
      </defs>
      <use xlink:href="#DejaVuSans-31"/>
      <use xlink:href="#DejaVuSans-65" x="63.623047"/>
      <use xlink:href="#DejaVuSans-33" x="125.146484"/>
     </g>
    </g>
   </g>
   <g id="matplotlib.axis_2">
    <g id="ytick_1">
     <g id="line2d_5">
      <defs>
       <path id="m4f132cec64" d="M 0 0 
L -3.5 0 
" style="stroke: #000000; stroke-width: 0.8"/>
      </defs>
      <g>
       <use xlink:href="#m4f132cec64" x="36" y="192.24" style="stroke: #000000; stroke-width: 0.8"/>
      </g>
     </g>
     <g id="text_7">
      <!-- 1.0 -->
      <g transform="translate(9.91625 196.799062) scale(0.12 -0.12)">
       <defs>
        <path id="DejaVuSans-2e" d="M 684 794 
L 1344 794 
L 1344 0 
L 684 0 
L 684 794 
z
" transform="scale(0.015625)"/>
       </defs>
       <use xlink:href="#DejaVuSans-31"/>
       <use xlink:href="#DejaVuSans-2e" x="63.623047"/>
       <use xlink:href="#DejaVuSans-30" x="95.410156"/>
      </g>
     </g>
    </g>
    <g id="ytick_2">
     <g id="line2d_6">
      <g>
       <use xlink:href="#m4f132cec64" x="36" y="150.66" style="stroke: #000000; stroke-width: 0.8"/>
      </g>
     </g>
     <g id="text_8">
      <!-- 1.5 -->
      <g transform="translate(9.91625 155.219063) scale(0.12 -0.12)">
       <defs>
        <path id="DejaVuSans-35" d="M 691 4666 
L 3169 4666 
L 3169 4134 
L 1269 4134 
L 1269 2991 
Q 1406 3038 1543 3061 
Q 1681 3084 1819 3084 
Q 2600 3084 3056 2656 
Q 3513 2228 3513 1497 
Q 3513 744 3044 326 
Q 2575 -91 1722 -91 
Q 1428 -91 1123 -41 
Q 819 9 494 109 
L 494 744 
Q 775 591 1075 516 
Q 1375 441 1709 441 
Q 2250 441 2565 725 
Q 2881 1009 2881 1497 
Q 2881 1984 2565 2268 
Q 2250 2553 1709 2553 
Q 1456 2553 1204 2497 
Q 953 2441 691 2322 
L 691 4666 
z
" transform="scale(0.015625)"/>
       </defs>
       <use xlink:href="#DejaVuSans-31"/>
       <use xlink:href="#DejaVuSans-2e" x="63.623047"/>
       <use xlink:href="#DejaVuSans-35" x="95.410156"/>
      </g>
     </g>
    </g>
    <g id="ytick_3">
     <g id="line2d_7">
      <g>
       <use xlink:href="#m4f132cec64" x="36" y="109.08" style="stroke: #000000; stroke-width: 0.8"/>
      </g>
     </g>
     <g id="text_9">
      <!-- 2.0 -->
      <g transform="translate(9.91625 113.639062) scale(0.12 -0.12)">
       <use xlink:href="#DejaVuSans-32"/>
       <use xlink:href="#DejaVuSans-2e" x="63.623047"/>
       <use xlink:href="#DejaVuSans-30" x="95.410156"/>
      </g>
     </g>
    </g>
    <g id="ytick_4">
     <g id="line2d_8">
      <g>
       <use xlink:href="#m4f132cec64" x="36" y="67.5" style="stroke: #000000; stroke-width: 0.8"/>
      </g>
     </g>
     <g id="text_10">
      <!-- 2.5 -->
      <g transform="translate(9.91625 72.059063) scale(0.12 -0.12)">
       <use xlink:href="#DejaVuSans-32"/>
       <use xlink:href="#DejaVuSans-2e" x="63.623047"/>
       <use xlink:href="#DejaVuSans-35" x="95.410156"/>
      </g>
     </g>
    </g>
    <g id="ytick_5">
     <g id="line2d_9">
      <g>
       <use xlink:href="#m4f132cec64" x="36" y="25.92" style="stroke: #000000; stroke-width: 0.8"/>
      </g>
     </g>
     <g id="text_11">
      <!-- 3.0 -->
      <g transform="translate(9.91625 30.479062) scale(0.12 -0.12)">
       <use xlink:href="#DejaVuSans-33"/>
       <use xlink:href="#DejaVuSans-2e" x="63.623047"/>
       <use xlink:href="#DejaVuSans-30" x="95.410156"/>
      </g>
     </g>
    </g>
    <g id="text_12">
     <!-- Recombination rate -->
     <g transform="translate(2.58875 187.6775) rotate(-90) scale(0.16 -0.16)">
      <defs>
       <path id="DejaVuSans-52" d="M 2841 2188 
Q 3044 2119 3236 1894 
Q 3428 1669 3622 1275 
L 4263 0 
L 3584 0 
L 2988 1197 
Q 2756 1666 2539 1819 
Q 2322 1972 1947 1972 
L 1259 1972 
L 1259 0 
L 628 0 
L 628 4666 
L 2053 4666 
Q 2853 4666 3247 4331 
Q 3641 3997 3641 3322 
Q 3641 2881 3436 2590 
Q 3231 2300 2841 2188 
z
M 1259 4147 
L 1259 2491 
L 2053 2491 
Q 2509 2491 2742 2702 
Q 2975 2913 2975 3322 
Q 2975 3731 2742 3939 
Q 2509 4147 2053 4147 
L 1259 4147 
z
" transform="scale(0.015625)"/>
       <path id="DejaVuSans-63" d="M 3122 3366 
L 3122 2828 
Q 2878 2963 2633 3030 
Q 2388 3097 2138 3097 
Q 1578 3097 1268 2742 
Q 959 2388 959 1747 
Q 959 1106 1268 751 
Q 1578 397 2138 397 
Q 2388 397 2633 464 
Q 2878 531 3122 666 
L 3122 134 
Q 2881 22 2623 -34 
Q 2366 -91 2075 -91 
Q 1284 -91 818 406 
Q 353 903 353 1747 
Q 353 2603 823 3093 
Q 1294 3584 2113 3584 
Q 2378 3584 2631 3529 
Q 2884 3475 3122 3366 
z
" transform="scale(0.015625)"/>
       <path id="DejaVuSans-6d" d="M 3328 2828 
Q 3544 3216 3844 3400 
Q 4144 3584 4550 3584 
Q 5097 3584 5394 3201 
Q 5691 2819 5691 2113 
L 5691 0 
L 5113 0 
L 5113 2094 
Q 5113 2597 4934 2840 
Q 4756 3084 4391 3084 
Q 3944 3084 3684 2787 
Q 3425 2491 3425 1978 
L 3425 0 
L 2847 0 
L 2847 2094 
Q 2847 2600 2669 2842 
Q 2491 3084 2119 3084 
Q 1678 3084 1418 2786 
Q 1159 2488 1159 1978 
L 1159 0 
L 581 0 
L 581 3500 
L 1159 3500 
L 1159 2956 
Q 1356 3278 1631 3431 
Q 1906 3584 2284 3584 
Q 2666 3584 2933 3390 
Q 3200 3197 3328 2828 
z
" transform="scale(0.015625)"/>
       <path id="DejaVuSans-62" d="M 3116 1747 
Q 3116 2381 2855 2742 
Q 2594 3103 2138 3103 
Q 1681 3103 1420 2742 
Q 1159 2381 1159 1747 
Q 1159 1113 1420 752 
Q 1681 391 2138 391 
Q 2594 391 2855 752 
Q 3116 1113 3116 1747 
z
M 1159 2969 
Q 1341 3281 1617 3432 
Q 1894 3584 2278 3584 
Q 2916 3584 3314 3078 
Q 3713 2572 3713 1747 
Q 3713 922 3314 415 
Q 2916 -91 2278 -91 
Q 1894 -91 1617 61 
Q 1341 213 1159 525 
L 1159 0 
L 581 0 
L 581 4863 
L 1159 4863 
L 1159 2969 
z
" transform="scale(0.015625)"/>
       <path id="DejaVuSans-6e" d="M 3513 2113 
L 3513 0 
L 2938 0 
L 2938 2094 
Q 2938 2591 2744 2837 
Q 2550 3084 2163 3084 
Q 1697 3084 1428 2787 
Q 1159 2491 1159 1978 
L 1159 0 
L 581 0 
L 581 3500 
L 1159 3500 
L 1159 2956 
Q 1366 3272 1645 3428 
Q 1925 3584 2291 3584 
Q 2894 3584 3203 3211 
Q 3513 2838 3513 2113 
z
" transform="scale(0.015625)"/>
       <path id="DejaVuSans-61" d="M 2194 1759 
Q 1497 1759 1228 1600 
Q 959 1441 959 1056 
Q 959 750 1161 570 
Q 1363 391 1709 391 
Q 2188 391 2477 730 
Q 2766 1069 2766 1631 
L 2766 1759 
L 2194 1759 
z
M 3341 1997 
L 3341 0 
L 2766 0 
L 2766 531 
Q 2569 213 2275 61 
Q 1981 -91 1556 -91 
Q 1019 -91 701 211 
Q 384 513 384 1019 
Q 384 1609 779 1909 
Q 1175 2209 1959 2209 
L 2766 2209 
L 2766 2266 
Q 2766 2663 2505 2880 
Q 2244 3097 1772 3097 
Q 1472 3097 1187 3025 
Q 903 2953 641 2809 
L 641 3341 
Q 956 3463 1253 3523 
Q 1550 3584 1831 3584 
Q 2591 3584 2966 3190 
Q 3341 2797 3341 1997 
z
" transform="scale(0.015625)"/>
       <path id="DejaVuSans-74" d="M 1172 4494 
L 1172 3500 
L 2356 3500 
L 2356 3053 
L 1172 3053 
L 1172 1153 
Q 1172 725 1289 603 
Q 1406 481 1766 481 
L 2356 481 
L 2356 0 
L 1766 0 
Q 1100 0 847 248 
Q 594 497 594 1153 
L 594 3053 
L 172 3053 
L 172 3500 
L 594 3500 
L 594 4494 
L 1172 4494 
z
" transform="scale(0.015625)"/>
       <path id="DejaVuSans-72" d="M 2631 2963 
Q 2534 3019 2420 3045 
Q 2306 3072 2169 3072 
Q 1681 3072 1420 2755 
Q 1159 2438 1159 1844 
L 1159 0 
L 581 0 
L 581 3500 
L 1159 3500 
L 1159 2956 
Q 1341 3275 1631 3429 
Q 1922 3584 2338 3584 
Q 2397 3584 2469 3576 
Q 2541 3569 2628 3553 
L 2631 2963 
z
" transform="scale(0.015625)"/>
      </defs>
      <use xlink:href="#DejaVuSans-52"/>
      <use xlink:href="#DejaVuSans-65" x="64.982422"/>
      <use xlink:href="#DejaVuSans-63" x="126.505859"/>
      <use xlink:href="#DejaVuSans-6f" x="181.486328"/>
      <use xlink:href="#DejaVuSans-6d" x="242.667969"/>
      <use xlink:href="#DejaVuSans-62" x="340.080078"/>
      <use xlink:href="#DejaVuSans-69" x="403.556641"/>
      <use xlink:href="#DejaVuSans-6e" x="431.339844"/>
      <use xlink:href="#DejaVuSans-61" x="494.71875"/>
      <use xlink:href="#DejaVuSans-74" x="555.998047"/>
      <use xlink:href="#DejaVuSans-69" x="595.207031"/>
      <use xlink:href="#DejaVuSans-6f" x="622.990234"/>
      <use xlink:href="#DejaVuSans-6e" x="684.171875"/>
      <use xlink:href="#DejaVuSans-20" x="747.550781"/>
      <use xlink:href="#DejaVuSans-72" x="779.337891"/>
      <use xlink:href="#DejaVuSans-61" x="820.451172"/>
      <use xlink:href="#DejaVuSans-74" x="881.730469"/>
      <use xlink:href="#DejaVuSans-65" x="920.939453"/>
     </g>
    </g>
    <g id="text_13">
     <!-- 1e9 -->
     <g transform="translate(36 22.92) scale(0.1 -0.1)">
      <defs>
       <path id="DejaVuSans-2212" d="M 678 2272 
L 4684 2272 
L 4684 1741 
L 678 1741 
L 678 2272 
z
" transform="scale(0.015625)"/>
       <path id="DejaVuSans-39" d="M 703 97 
L 703 672 
Q 941 559 1184 500 
Q 1428 441 1663 441 
Q 2288 441 2617 861 
Q 2947 1281 2994 2138 
Q 2813 1869 2534 1725 
Q 2256 1581 1919 1581 
Q 1219 1581 811 2004 
Q 403 2428 403 3163 
Q 403 3881 828 4315 
Q 1253 4750 1959 4750 
Q 2769 4750 3195 4129 
Q 3622 3509 3622 2328 
Q 3622 1225 3098 567 
Q 2575 -91 1691 -91 
Q 1453 -91 1209 -44 
Q 966 3 703 97 
z
M 1959 2075 
Q 2384 2075 2632 2365 
Q 2881 2656 2881 3163 
Q 2881 3666 2632 3958 
Q 2384 4250 1959 4250 
Q 1534 4250 1286 3958 
Q 1038 3666 1038 3163 
Q 1038 2656 1286 2365 
Q 1534 2075 1959 2075 
z
" transform="scale(0.015625)"/>
      </defs>
      <use xlink:href="#DejaVuSans-31"/>
      <use xlink:href="#DejaVuSans-65" x="63.623047"/>
      <use xlink:href="#DejaVuSans-2212" x="125.146484"/>
      <use xlink:href="#DejaVuSans-39" x="208.935547"/>
     </g>
    </g>
   </g>
   <g id="patch_3">
    <path d="M 36 192.24 
L 36 25.92 
" style="fill: none; stroke: #000000; stroke-width: 0.8; stroke-linejoin: miter; stroke-linecap: square"/>
   </g>
   <g id="patch_4">
    <path d="M 214.56 192.24 
L 214.56 25.92 
" style="fill: none; stroke: #000000; stroke-width: 0.8; stroke-linejoin: miter; stroke-linecap: square"/>
   </g>
   <g id="patch_5">
    <path d="M 36 192.24 
L 214.56 192.24 
" style="fill: none; stroke: #000000; stroke-width: 0.8; stroke-linejoin: miter; stroke-linecap: square"/>
   </g>
   <g id="patch_6">
    <path d="M 36 25.92 
L 214.56 25.92 
" style="fill: none; stroke: #000000; stroke-width: 0.8; stroke-linejoin: miter; stroke-linecap: square"/>
   </g>
   <g id="text_14">
    <!-- Ne0r-MSSMC-G-P2-S4 -->
    <g transform="translate(38.83875 10.92) scale(0.16 -0.16)">
     <defs>
      <path id="DejaVuSans-2d" d="M 313 2009 
L 1997 2009 
L 1997 1497 
L 313 1497 
L 313 2009 
z
" transform="scale(0.015625)"/>
      <path id="DejaVuSans-4d" d="M 628 4666 
L 1569 4666 
L 2759 1491 
L 3956 4666 
L 4897 4666 
L 4897 0 
L 4281 0 
L 4281 4097 
L 3078 897 
L 2444 897 
L 1241 4097 
L 1241 0 
L 628 0 
L 628 4666 
z
" transform="scale(0.015625)"/>
      <path id="DejaVuSans-53" d="M 3425 4513 
L 3425 3897 
Q 3066 4069 2747 4153 
Q 2428 4238 2131 4238 
Q 1616 4238 1336 4038 
Q 1056 3838 1056 3469 
Q 1056 3159 1242 3001 
Q 1428 2844 1947 2747 
L 2328 2669 
Q 3034 2534 3370 2195 
Q 3706 1856 3706 1288 
Q 3706 609 3251 259 
Q 2797 -91 1919 -91 
Q 1588 -91 1214 -16 
Q 841 59 441 206 
L 441 856 
Q 825 641 1194 531 
Q 1563 422 1919 422 
Q 2459 422 2753 634 
Q 3047 847 3047 1241 
Q 3047 1584 2836 1778 
Q 2625 1972 2144 2069 
L 1759 2144 
Q 1053 2284 737 2584 
Q 422 2884 422 3419 
Q 422 4038 858 4394 
Q 1294 4750 2059 4750 
Q 2388 4750 2728 4690 
Q 3069 4631 3425 4513 
z
" transform="scale(0.015625)"/>
      <path id="DejaVuSans-43" d="M 4122 4306 
L 4122 3641 
Q 3803 3938 3442 4084 
Q 3081 4231 2675 4231 
Q 1875 4231 1450 3742 
Q 1025 3253 1025 2328 
Q 1025 1406 1450 917 
Q 1875 428 2675 428 
Q 3081 428 3442 575 
Q 3803 722 4122 1019 
L 4122 359 
Q 3791 134 3420 21 
Q 3050 -91 2638 -91 
Q 1578 -91 968 557 
Q 359 1206 359 2328 
Q 359 3453 968 4101 
Q 1578 4750 2638 4750 
Q 3056 4750 3426 4639 
Q 3797 4528 4122 4306 
z
" transform="scale(0.015625)"/>
      <path id="DejaVuSans-47" d="M 3809 666 
L 3809 1919 
L 2778 1919 
L 2778 2438 
L 4434 2438 
L 4434 434 
Q 4069 175 3628 42 
Q 3188 -91 2688 -91 
Q 1594 -91 976 548 
Q 359 1188 359 2328 
Q 359 3472 976 4111 
Q 1594 4750 2688 4750 
Q 3144 4750 3555 4637 
Q 3966 4525 4313 4306 
L 4313 3634 
Q 3963 3931 3569 4081 
Q 3175 4231 2741 4231 
Q 1884 4231 1454 3753 
Q 1025 3275 1025 2328 
Q 1025 1384 1454 906 
Q 1884 428 2741 428 
Q 3075 428 3337 486 
Q 3600 544 3809 666 
z
" transform="scale(0.015625)"/>
      <path id="DejaVuSans-50" d="M 1259 4147 
L 1259 2394 
L 2053 2394 
Q 2494 2394 2734 2622 
Q 2975 2850 2975 3272 
Q 2975 3691 2734 3919 
Q 2494 4147 2053 4147 
L 1259 4147 
z
M 628 4666 
L 2053 4666 
Q 2838 4666 3239 4311 
Q 3641 3956 3641 3272 
Q 3641 2581 3239 2228 
Q 2838 1875 2053 1875 
L 1259 1875 
L 1259 0 
L 628 0 
L 628 4666 
z
" transform="scale(0.015625)"/>
     </defs>
     <use xlink:href="#DejaVuSans-4e"/>
     <use xlink:href="#DejaVuSans-65" x="74.804688"/>
     <use xlink:href="#DejaVuSans-30" x="136.328125"/>
     <use xlink:href="#DejaVuSans-72" x="199.951172"/>
     <use xlink:href="#DejaVuSans-2d" x="234.689453"/>
     <use xlink:href="#DejaVuSans-4d" x="270.773438"/>
     <use xlink:href="#DejaVuSans-53" x="357.052734"/>
     <use xlink:href="#DejaVuSans-53" x="420.529297"/>
     <use xlink:href="#DejaVuSans-4d" x="484.005859"/>
     <use xlink:href="#DejaVuSans-43" x="570.285156"/>
     <use xlink:href="#DejaVuSans-2d" x="640.109375"/>
     <use xlink:href="#DejaVuSans-47" x="679.818359"/>
     <use xlink:href="#DejaVuSans-2d" x="757.308594"/>
     <use xlink:href="#DejaVuSans-50" x="793.392578"/>
     <use xlink:href="#DejaVuSans-32" x="853.695312"/>
     <use xlink:href="#DejaVuSans-2d" x="917.318359"/>
     <use xlink:href="#DejaVuSans-53" x="953.402344"/>
     <use xlink:href="#DejaVuSans-34" x="1016.878906"/>
    </g>
   </g>
  </g>
  <g id="axes_2">
   <g id="patch_7">
    <path d="M 225.72 192.24 
L 234.036 192.24 
L 234.036 25.92 
L 225.72 25.92 
z
" style="fill: #ffffff"/>
   </g>
   <g id="QuadMesh_1">
    <path d="M 225.72 192.24 
L 234.036 192.24 
L 234.036 182.456471 
L 225.72 182.456471 
L 225.72 192.24 
" clip-path="url(#p0b723cb491)" style="fill: #440154"/>
    <path d="M 225.72 182.456471 
L 234.036 182.456471 
L 234.036 172.672941 
L 225.72 172.672941 
L 225.72 182.456471 
" clip-path="url(#p0b723cb491)" style="fill: #470d60"/>
    <path d="M 225.72 172.672941 
L 234.036 172.672941 
L 234.036 162.889412 
L 225.72 162.889412 
L 225.72 172.672941 
" clip-path="url(#p0b723cb491)" style="fill: #482374"/>
    <path d="M 225.72 162.889412 
L 234.036 162.889412 
L 234.036 153.105882 
L 225.72 153.105882 
L 225.72 162.889412 
" clip-path="url(#p0b723cb491)" style="fill: #453781"/>
    <path d="M 225.72 153.105882 
L 234.036 153.105882 
L 234.036 143.322353 
L 225.72 143.322353 
L 225.72 153.105882 
" clip-path="url(#p0b723cb491)" style="fill: #3e4989"/>
    <path d="M 225.72 143.322353 
L 234.036 143.322353 
L 234.036 133.538824 
L 225.72 133.538824 
L 225.72 143.322353 
" clip-path="url(#p0b723cb491)" style="fill: #375b8d"/>
    <path d="M 225.72 133.538824 
L 234.036 133.538824 
L 234.036 123.755294 
L 225.72 123.755294 
L 225.72 133.538824 
" clip-path="url(#p0b723cb491)" style="fill: #2f6b8e"/>
    <path d="M 225.72 123.755294 
L 234.036 123.755294 
L 234.036 113.971765 
L 225.72 113.971765 
L 225.72 123.755294 
" clip-path="url(#p0b723cb491)" style="fill: #297a8e"/>
    <path d="M 225.72 113.971765 
L 234.036 113.971765 
L 234.036 104.188235 
L 225.72 104.188235 
L 225.72 113.971765 
" clip-path="url(#p0b723cb491)" style="fill: #23898e"/>
    <path d="M 225.72 104.188235 
L 234.036 104.188235 
L 234.036 94.404706 
L 225.72 94.404706 
L 225.72 104.188235 
" clip-path="url(#p0b723cb491)" style="fill: #1f988b"/>
    <path d="M 225.72 94.404706 
L 234.036 94.404706 
L 234.036 84.621176 
L 225.72 84.621176 
L 225.72 94.404706 
" clip-path="url(#p0b723cb491)" style="fill: #22a785"/>
    <path d="M 225.72 84.621176 
L 234.036 84.621176 
L 234.036 74.837647 
L 225.72 74.837647 
L 225.72 84.621176 
" clip-path="url(#p0b723cb491)" style="fill: #32b67a"/>
    <path d="M 225.72 74.837647 
L 234.036 74.837647 
L 234.036 65.054118 
L 225.72 65.054118 
L 225.72 74.837647 
" clip-path="url(#p0b723cb491)" style="fill: #4ec36b"/>
    <path d="M 225.72 65.054118 
L 234.036 65.054118 
L 234.036 55.270588 
L 225.72 55.270588 
L 225.72 65.054118 
" clip-path="url(#p0b723cb491)" style="fill: #70cf57"/>
    <path d="M 225.72 55.270588 
L 234.036 55.270588 
L 234.036 45.487059 
L 225.72 45.487059 
L 225.72 55.270588 
" clip-path="url(#p0b723cb491)" style="fill: #98d83e"/>
    <path d="M 225.72 45.487059 
L 234.036 45.487059 
L 234.036 35.703529 
L 225.72 35.703529 
L 225.72 45.487059 
" clip-path="url(#p0b723cb491)" style="fill: #c2df23"/>
    <path d="M 225.72 35.703529 
L 234.036 35.703529 
L 234.036 25.92 
L 225.72 25.92 
L 225.72 35.703529 
" clip-path="url(#p0b723cb491)" style="fill: #ece51b"/>
   </g>
   <g id="matplotlib.axis_3"/>
   <g id="matplotlib.axis_4">
    <g id="ytick_6">
     <g id="line2d_10">
      <defs>
       <path id="mdb7b615dc6" d="M 0 0 
L 3.5 0 
" style="stroke: #000000; stroke-width: 0.8"/>
      </defs>
      <g>
       <use xlink:href="#mdb7b615dc6" x="234.036" y="182.456471" style="stroke: #000000; stroke-width: 0.8"/>
      </g>
     </g>
     <g id="text_15">
      <!-- $\mathdefault{2.40}$ -->
      <g transform="translate(241.036 186.255689) scale(0.1 -0.1)">
       <use xlink:href="#DejaVuSans-2212" transform="translate(0 0.78125)"/>
       <use xlink:href="#DejaVuSans-32" transform="translate(83.789062 0.78125)"/>
       <use xlink:href="#DejaVuSans-2e" transform="translate(147.412109 0.78125)"/>
       <use xlink:href="#DejaVuSans-34" transform="translate(179.199219 0.78125)"/>
       <use xlink:href="#DejaVuSans-30" transform="translate(242.822266 0.78125)"/>
      </g>
     </g>
    </g>
    <g id="ytick_7">
     <g id="line2d_11">
      <g>
       <use xlink:href="#mdb7b615dc6" x="234.036" y="162.889412" style="stroke: #000000; stroke-width: 0.8"/>
      </g>
     </g>
     <g id="text_16">
      <!-- $\mathdefault{2.35}$ -->
      <g transform="translate(241.036 166.688631) scale(0.1 -0.1)">
       <use xlink:href="#DejaVuSans-2212" transform="translate(0 0.78125)"/>
       <use xlink:href="#DejaVuSans-32" transform="translate(83.789062 0.78125)"/>
       <use xlink:href="#DejaVuSans-2e" transform="translate(147.412109 0.78125)"/>
       <use xlink:href="#DejaVuSans-33" transform="translate(179.199219 0.78125)"/>
       <use xlink:href="#DejaVuSans-35" transform="translate(242.822266 0.78125)"/>
      </g>
     </g>
    </g>
    <g id="ytick_8">
     <g id="line2d_12">
      <g>
       <use xlink:href="#mdb7b615dc6" x="234.036" y="143.322353" style="stroke: #000000; stroke-width: 0.8"/>
      </g>
     </g>
     <g id="text_17">
      <!-- $\mathdefault{2.30}$ -->
      <g transform="translate(241.036 147.121572) scale(0.1 -0.1)">
       <use xlink:href="#DejaVuSans-2212" transform="translate(0 0.78125)"/>
       <use xlink:href="#DejaVuSans-32" transform="translate(83.789062 0.78125)"/>
       <use xlink:href="#DejaVuSans-2e" transform="translate(147.412109 0.78125)"/>
       <use xlink:href="#DejaVuSans-33" transform="translate(179.199219 0.78125)"/>
       <use xlink:href="#DejaVuSans-30" transform="translate(242.822266 0.78125)"/>
      </g>
     </g>
    </g>
    <g id="ytick_9">
     <g id="line2d_13">
      <g>
       <use xlink:href="#mdb7b615dc6" x="234.036" y="123.755294" style="stroke: #000000; stroke-width: 0.8"/>
      </g>
     </g>
     <g id="text_18">
      <!-- $\mathdefault{2.25}$ -->
      <g transform="translate(241.036 127.554513) scale(0.1 -0.1)">
       <use xlink:href="#DejaVuSans-2212" transform="translate(0 0.78125)"/>
       <use xlink:href="#DejaVuSans-32" transform="translate(83.789062 0.78125)"/>
       <use xlink:href="#DejaVuSans-2e" transform="translate(147.412109 0.78125)"/>
       <use xlink:href="#DejaVuSans-32" transform="translate(173.699219 0.78125)"/>
       <use xlink:href="#DejaVuSans-35" transform="translate(237.322266 0.78125)"/>
      </g>
     </g>
    </g>
    <g id="ytick_10">
     <g id="line2d_14">
      <g>
       <use xlink:href="#mdb7b615dc6" x="234.036" y="104.188235" style="stroke: #000000; stroke-width: 0.8"/>
      </g>
     </g>
     <g id="text_19">
      <!-- $\mathdefault{2.20}$ -->
      <g transform="translate(241.036 107.987454) scale(0.1 -0.1)">
       <use xlink:href="#DejaVuSans-2212" transform="translate(0 0.78125)"/>
       <use xlink:href="#DejaVuSans-32" transform="translate(83.789062 0.78125)"/>
       <use xlink:href="#DejaVuSans-2e" transform="translate(147.412109 0.78125)"/>
       <use xlink:href="#DejaVuSans-32" transform="translate(173.699219 0.78125)"/>
       <use xlink:href="#DejaVuSans-30" transform="translate(237.322266 0.78125)"/>
      </g>
     </g>
    </g>
    <g id="ytick_11">
     <g id="line2d_15">
      <g>
       <use xlink:href="#mdb7b615dc6" x="234.036" y="84.621176" style="stroke: #000000; stroke-width: 0.8"/>
      </g>
     </g>
     <g id="text_20">
      <!-- $\mathdefault{2.15}$ -->
      <g transform="translate(241.036 88.420395) scale(0.1 -0.1)">
       <use xlink:href="#DejaVuSans-2212" transform="translate(0 0.78125)"/>
       <use xlink:href="#DejaVuSans-32" transform="translate(83.789062 0.78125)"/>
       <use xlink:href="#DejaVuSans-2e" transform="translate(147.412109 0.78125)"/>
       <use xlink:href="#DejaVuSans-31" transform="translate(179.199219 0.78125)"/>
       <use xlink:href="#DejaVuSans-35" transform="translate(242.822266 0.78125)"/>
      </g>
     </g>
    </g>
    <g id="ytick_12">
     <g id="line2d_16">
      <g>
       <use xlink:href="#mdb7b615dc6" x="234.036" y="65.054118" style="stroke: #000000; stroke-width: 0.8"/>
      </g>
     </g>
     <g id="text_21">
      <!-- $\mathdefault{2.10}$ -->
      <g transform="translate(241.036 68.853336) scale(0.1 -0.1)">
       <use xlink:href="#DejaVuSans-2212" transform="translate(0 0.78125)"/>
       <use xlink:href="#DejaVuSans-32" transform="translate(83.789062 0.78125)"/>
       <use xlink:href="#DejaVuSans-2e" transform="translate(147.412109 0.78125)"/>
       <use xlink:href="#DejaVuSans-31" transform="translate(179.199219 0.78125)"/>
       <use xlink:href="#DejaVuSans-30" transform="translate(242.822266 0.78125)"/>
      </g>
     </g>
    </g>
    <g id="ytick_13">
     <g id="line2d_17">
      <g>
       <use xlink:href="#mdb7b615dc6" x="234.036" y="45.487059" style="stroke: #000000; stroke-width: 0.8"/>
      </g>
     </g>
     <g id="text_22">
      <!-- $\mathdefault{2.05}$ -->
      <g transform="translate(241.036 49.286278) scale(0.1 -0.1)">
       <use xlink:href="#DejaVuSans-2212" transform="translate(0 0.78125)"/>
       <use xlink:href="#DejaVuSans-32" transform="translate(83.789062 0.78125)"/>
       <use xlink:href="#DejaVuSans-2e" transform="translate(147.412109 0.78125)"/>
       <use xlink:href="#DejaVuSans-30" transform="translate(179.199219 0.78125)"/>
       <use xlink:href="#DejaVuSans-35" transform="translate(242.822266 0.78125)"/>
      </g>
     </g>
    </g>
    <g id="ytick_14">
     <g id="line2d_18">
      <g>
       <use xlink:href="#mdb7b615dc6" x="234.036" y="25.92" style="stroke: #000000; stroke-width: 0.8"/>
      </g>
     </g>
     <g id="text_23">
      <!-- $\mathdefault{2.00}$ -->
      <g transform="translate(241.036 29.719219) scale(0.1 -0.1)">
       <use xlink:href="#DejaVuSans-2212" transform="translate(0 0.78125)"/>
       <use xlink:href="#DejaVuSans-32" transform="translate(83.789062 0.78125)"/>
       <use xlink:href="#DejaVuSans-2e" transform="translate(147.412109 0.78125)"/>
       <use xlink:href="#DejaVuSans-30" transform="translate(179.199219 0.78125)"/>
       <use xlink:href="#DejaVuSans-30" transform="translate(242.822266 0.78125)"/>
      </g>
     </g>
    </g>
    <g id="text_24">
     <!-- log likelihood -->
     <g transform="translate(284.854125 148.704375) rotate(-90) scale(0.12 -0.12)">
      <defs>
       <path id="DejaVuSans-67" d="M 2906 1791 
Q 2906 2416 2648 2759 
Q 2391 3103 1925 3103 
Q 1463 3103 1205 2759 
Q 947 2416 947 1791 
Q 947 1169 1205 825 
Q 1463 481 1925 481 
Q 2391 481 2648 825 
Q 2906 1169 2906 1791 
z
M 3481 434 
Q 3481 -459 3084 -895 
Q 2688 -1331 1869 -1331 
Q 1566 -1331 1297 -1286 
Q 1028 -1241 775 -1147 
L 775 -588 
Q 1028 -725 1275 -790 
Q 1522 -856 1778 -856 
Q 2344 -856 2625 -561 
Q 2906 -266 2906 331 
L 2906 616 
Q 2728 306 2450 153 
Q 2172 0 1784 0 
Q 1141 0 747 490 
Q 353 981 353 1791 
Q 353 2603 747 3093 
Q 1141 3584 1784 3584 
Q 2172 3584 2450 3431 
Q 2728 3278 2906 2969 
L 2906 3500 
L 3481 3500 
L 3481 434 
z
" transform="scale(0.015625)"/>
       <path id="DejaVuSans-6b" d="M 581 4863 
L 1159 4863 
L 1159 1991 
L 2875 3500 
L 3609 3500 
L 1753 1863 
L 3688 0 
L 2938 0 
L 1159 1709 
L 1159 0 
L 581 0 
L 581 4863 
z
" transform="scale(0.015625)"/>
       <path id="DejaVuSans-68" d="M 3513 2113 
L 3513 0 
L 2938 0 
L 2938 2094 
Q 2938 2591 2744 2837 
Q 2550 3084 2163 3084 
Q 1697 3084 1428 2787 
Q 1159 2491 1159 1978 
L 1159 0 
L 581 0 
L 581 4863 
L 1159 4863 
L 1159 2956 
Q 1366 3272 1645 3428 
Q 1925 3584 2291 3584 
Q 2894 3584 3203 3211 
Q 3513 2838 3513 2113 
z
" transform="scale(0.015625)"/>
      </defs>
      <use xlink:href="#DejaVuSans-6c"/>
      <use xlink:href="#DejaVuSans-6f" x="27.783203"/>
      <use xlink:href="#DejaVuSans-67" x="88.964844"/>
      <use xlink:href="#DejaVuSans-20" x="152.441406"/>
      <use xlink:href="#DejaVuSans-6c" x="184.228516"/>
      <use xlink:href="#DejaVuSans-69" x="212.011719"/>
      <use xlink:href="#DejaVuSans-6b" x="239.794922"/>
      <use xlink:href="#DejaVuSans-65" x="294.080078"/>
      <use xlink:href="#DejaVuSans-6c" x="355.603516"/>
      <use xlink:href="#DejaVuSans-69" x="383.386719"/>
      <use xlink:href="#DejaVuSans-68" x="411.169922"/>
      <use xlink:href="#DejaVuSans-6f" x="474.548828"/>
      <use xlink:href="#DejaVuSans-6f" x="535.730469"/>
      <use xlink:href="#DejaVuSans-64" x="596.912109"/>
     </g>
    </g>
   </g>
   <g id="LineCollection_1"/>
   <g id="patch_8">
    <path d="M 225.72 192.24 
L 229.878 192.24 
L 234.036 192.24 
L 234.036 25.92 
L 229.878 25.92 
L 225.72 25.92 
L 225.72 192.24 
z
" style="fill: none; stroke: #000000; stroke-width: 0.8; stroke-linejoin: miter; stroke-linecap: square"/>
   </g>
  </g>
 </g>
 <defs>
  <clipPath id="pdcf06df8f2">
   <rect x="36" y="25.92" width="178.56" height="166.32"/>
  </clipPath>
  <clipPath id="p0b723cb491">
   <rect x="225.72" y="25.92" width="8.316" height="166.32"/>
  </clipPath>
 </defs>
</svg>
