<?xml version="1.0" encoding="utf-8" standalone="no"?>
<!DOCTYPE svg PUBLIC "-//W3C//DTD SVG 1.1//EN"
  "http://www.w3.org/Graphics/SVG/1.1/DTD/svg11.dtd">
<svg xmlns:xlink="http://www.w3.org/1999/xlink" width="288pt" height="216pt" viewBox="0 0 288 216" xmlns="http://www.w3.org/2000/svg" version="1.1">
 <metadata>
  <rdf:RDF xmlns:dc="http://purl.org/dc/elements/1.1/" xmlns:cc="http://creativecommons.org/ns#" xmlns:rdf="http://www.w3.org/1999/02/22-rdf-syntax-ns#">
   <cc:Work>
    <dc:type rdf:resource="http://purl.org/dc/dcmitype/StillImage"/>
    <dc:date>2023-08-07T20:00:03.168010</dc:date>
    <dc:format>image/svg+xml</dc:format>
    <dc:creator>
     <cc:Agent>
      <dc:title>Matplotlib v3.7.1, https://matplotlib.org/</dc:title>
     </cc:Agent>
    </dc:creator>
   </cc:Work>
  </rdf:RDF>
 </metadata>
 <defs>
  <style type="text/css">*{stroke-linejoin: round; stroke-linecap: butt}</style>
 </defs>
 <g id="figure_1">
  <g id="patch_1">
   <path d="M 0 216 
L 288 216 
L 288 0 
L 0 0 
z
" style="fill: #ffffff"/>
  </g>
  <g id="axes_1">
   <g id="patch_2">
    <path d="M 36 192.24 
L 214.56 192.24 
L 214.56 25.92 
L 36 25.92 
z
" style="fill: #ffffff"/>
   </g>
   <g id="PathCollection_1">
    <path d="M 36 186.696 
L 36 181.152 
L 36 175.608 
L 36 170.064 
L 36 164.52 
L 36 158.976 
L 36 153.432 
L 36 147.888 
L 36 142.344 
L 36 136.8 
L 36 131.256 
L 36 125.712 
L 36 120.168 
L 36 114.624 
L 36 109.08 
L 36 103.536 
L 36 97.992 
L 36 92.448 
L 36 86.904 
L 36 81.36 
L 36 75.816 
L 36 70.272 
L 36 64.728 
L 36 59.184 
L 36 53.64 
L 36 48.096 
L 36 42.552 
L 36 37.008 
L 36 31.464 
L 36 25.92 
L 41.952 25.92 
L 47.904 25.92 
L 53.856 25.92 
L 59.808 25.92 
L 65.76 25.92 
L 71.712 25.92 
L 77.664 25.92 
L 83.616 25.92 
L 89.568 25.92 
L 95.52 25.92 
L 101.472 25.92 
L 107.424 25.92 
L 113.376 25.92 
L 119.328 25.92 
L 125.28 25.92 
L 131.232 25.92 
L 137.184 25.92 
L 143.136 25.92 
L 149.088 25.92 
L 155.04 25.92 
L 160.992 25.92 
L 166.944 25.92 
L 172.896 25.92 
L 178.848 25.92 
L 184.8 25.92 
L 190.752 25.92 
L 196.704 25.92 
L 202.656 25.92 
L 208.608 25.92 
L 214.56 25.92 
L 214.56 31.464 
L 214.56 37.008 
L 214.56 42.552 
L 214.56 48.096 
L 214.56 53.64 
L 214.56 59.184 
L 214.56 64.728 
L 214.56 70.272 
L 214.56 75.816 
L 214.56 81.36 
L 214.56 86.904 
L 214.56 92.448 
L 214.56 97.992 
L 214.56 98.101045 
L 214.302569 97.992 
L 208.608 92.687784 
L 202.656 92.536241 
L 202.429881 92.448 
L 196.704 87.114619 
L 190.752 86.984592 
L 190.511355 86.904 
L 184.8 81.584149 
L 178.848 81.438863 
L 178.54937 81.36 
L 172.896 76.094159 
L 166.944 75.896374 
L 166.505107 75.816 
L 160.992 70.680808 
L 155.04 70.355349 
L 154.229914 70.272 
L 149.088 65.482556 
L 143.136 64.813734 
L 141.195441 64.728 
L 137.184 60.991537 
L 131.232 59.269041 
L 128.816674 59.184 
L 125.28 55.88976 
L 119.328 53.719523 
L 118.476577 53.64 
L 113.376 48.889059 
L 107.424 48.16592 
L 107.076595 48.096 
L 101.472 42.875591 
L 95.52 42.611419 
L 95.325679 42.552 
L 89.568 37.189 
L 83.616 37.060045 
L 83.457115 37.008 
L 77.664 31.611994 
L 71.712 31.519263 
L 70.202034 31.464 
L 65.76 27.326461 
L 59.808 26.370582 
L 54.339741 31.464 
L 53.856 31.537 
L 47.982372 37.008 
L 47.934025 42.552 
L 47.904 42.623843 
L 42.02913 48.096 
L 41.985268 53.64 
L 41.973843 59.184 
L 41.968649 64.728 
L 41.965731 70.272 
L 41.963906 75.816 
L 41.9627 81.36 
L 41.961888 86.904 
L 41.961353 92.448 
L 41.952 93.442378 
L 37.067558 97.992 
L 36.62282 103.536 
L 41.952 108.499873 
L 41.960956 109.08 
L 41.961211 114.624 
L 41.961721 120.168 
L 41.962597 125.712 
L 41.964068 131.256 
L 41.966682 136.8 
L 41.972062 142.344 
L 41.988003 147.888 
L 42.594124 153.432 
L 47.904 158.377892 
L 47.939025 158.976 
L 53.856 164.487376 
L 53.896467 164.52 
L 59.808 170.026307 
L 60.185348 170.064 
L 65.76 175.256518 
L 71.712 175.529112 
L 77.664 175.549401 
L 83.616 175.552302 
L 89.568 175.547457 
L 95.52 175.533926 
L 101.472 175.501543 
L 107.424 175.387323 
L 113.139083 170.064 
L 113.376 170.036627 
L 119.328 170.031165 
L 125.28 170.022619 
L 131.232 170.007653 
L 137.184 169.975208 
L 143.136 169.853723 
L 148.862248 164.52 
L 149.088 164.484412 
L 155.04 164.473339 
L 160.992 164.452577 
L 166.944 164.399713 
L 172.896 163.98956 
L 178.278523 158.976 
L 178.848 158.923705 
L 184.8 158.897487 
L 190.752 158.821249 
L 196.704 155.624813 
L 199.058189 153.432 
L 202.656 153.351265 
L 208.608 153.273799 
L 214.56 150.732777 
L 214.56 153.432 
L 214.56 158.976 
L 214.56 164.52 
L 214.56 170.064 
L 214.56 175.608 
L 214.56 181.152 
L 214.56 186.696 
L 214.56 192.24 
L 208.608 192.24 
L 202.656 192.24 
L 196.704 192.24 
L 190.752 192.24 
L 184.8 192.24 
L 178.848 192.24 
L 172.896 192.24 
L 166.944 192.24 
L 160.992 192.24 
L 155.04 192.24 
L 149.088 192.24 
L 143.136 192.24 
L 137.184 192.24 
L 131.232 192.24 
L 125.28 192.24 
L 119.328 192.24 
L 113.376 192.24 
L 107.424 192.24 
L 101.472 192.24 
L 95.52 192.24 
L 89.568 192.24 
L 83.616 192.24 
L 77.664 192.24 
L 71.712 192.24 
L 65.76 192.24 
L 59.808 192.24 
L 53.856 192.24 
L 47.904 192.24 
L 41.952 192.24 
L 36 192.24 
z
" clip-path="url(#p267cd6a1b8)" style="fill: #440154"/>
   </g>
   <g id="PathCollection_2">
    <path d="M 36.62282 103.536 
L 37.067558 97.992 
L 41.952 93.442378 
L 41.961353 92.448 
L 41.961888 86.904 
L 41.9627 81.36 
L 41.963906 75.816 
L 41.965731 70.272 
L 41.968649 64.728 
L 41.973843 59.184 
L 41.985268 53.64 
L 42.02913 48.096 
L 47.904 42.623843 
L 47.934025 42.552 
L 47.982372 37.008 
L 53.856 31.537 
L 54.339741 31.464 
L 59.808 26.370582 
L 65.76 27.326461 
L 70.202034 31.464 
L 71.712 31.519263 
L 77.664 31.611994 
L 83.457115 37.008 
L 83.616 37.060045 
L 89.568 37.189 
L 95.325679 42.552 
L 95.52 42.611419 
L 101.472 42.875591 
L 107.076595 48.096 
L 107.424 48.16592 
L 113.376 48.889059 
L 118.476577 53.64 
L 119.328 53.719523 
L 125.28 55.88976 
L 128.816674 59.184 
L 131.232 59.269041 
L 137.184 60.991537 
L 141.195441 64.728 
L 143.136 64.813734 
L 149.088 65.482556 
L 154.229914 70.272 
L 155.04 70.355349 
L 160.992 70.680808 
L 166.505107 75.816 
L 166.944 75.896374 
L 172.896 76.094159 
L 178.54937 81.36 
L 178.848 81.438863 
L 184.8 81.584149 
L 190.511355 86.904 
L 190.752 86.984592 
L 196.704 87.114619 
L 202.429881 92.448 
L 202.656 92.536241 
L 208.608 92.687784 
L 214.302569 97.992 
L 214.56 98.101045 
L 214.56 103.536 
L 214.56 105.910335 
L 211.022687 103.536 
L 208.608 102.233809 
L 202.656 98.899576 
L 201.095656 97.992 
L 196.704 95.835779 
L 190.752 92.789204 
L 190.109351 92.448 
L 184.8 89.988964 
L 178.848 87.108157 
L 178.441612 86.904 
L 172.896 84.415961 
L 166.944 81.620312 
L 166.410835 81.36 
L 160.992 78.9551 
L 155.04 76.185402 
L 154.2776 75.816 
L 149.088 73.498459 
L 143.136 70.70752 
L 142.245106 70.272 
L 137.184 67.965776 
L 131.232 65.114386 
L 130.458312 64.728 
L 125.28 62.294418 
L 119.328 59.351747 
L 119.001546 59.184 
L 113.376 56.441075 
L 107.901065 53.64 
L 107.424 53.234814 
L 101.472 50.401183 
L 97.06786 48.096 
L 95.52 46.918982 
L 89.568 44.271389 
L 86.206198 42.552 
L 83.616 40.833096 
L 77.664 38.441218 
L 74.251986 37.008 
L 71.712 35.525578 
L 65.76 34.24261 
L 59.808 33.990113 
L 53.856 36.829143 
L 53.663981 37.008 
L 50.110684 42.552 
L 47.904 47.832111 
L 47.620691 48.096 
L 44.39705 53.64 
L 43.55733 59.184 
L 43.175623 64.728 
L 42.96118 70.272 
L 42.827068 75.816 
L 42.738405 81.36 
L 42.678694 86.904 
L 42.639394 92.448 
L 42.570858 97.992 
L 42.529543 103.536 
L 42.610216 109.08 
L 42.628964 114.624 
L 42.666478 120.168 
L 42.730819 125.712 
L 42.838975 131.256 
L 43.031089 136.8 
L 43.426427 142.344 
L 44.598019 147.888 
L 47.904 151.15027 
L 49.033936 153.432 
L 50.478196 158.976 
L 53.856 162.122261 
L 56.830109 164.52 
L 59.808 167.293761 
L 65.76 168.675653 
L 71.712 169.985205 
L 72.499338 170.064 
L 77.664 171.301214 
L 83.616 171.514468 
L 89.568 171.158403 
L 95.52 170.163917 
L 95.872644 170.064 
L 101.472 169.502586 
L 107.424 168.782631 
L 113.376 168.052226 
L 119.328 167.65077 
L 125.28 167.02266 
L 131.232 165.922792 
L 135.353472 164.52 
L 137.184 164.155168 
L 143.136 162.95238 
L 149.088 161.904472 
L 155.04 161.090618 
L 160.992 159.564692 
L 162.43011 158.976 
L 166.944 157.829548 
L 172.896 156.319492 
L 178.848 155.132554 
L 184.315308 153.432 
L 184.8 153.276585 
L 190.752 151.385306 
L 196.704 149.49966 
L 201.817731 147.888 
L 202.656 147.535379 
L 208.608 145.053584 
L 214.56 142.576456 
L 214.56 147.888 
L 214.56 150.732777 
L 208.608 153.273799 
L 202.656 153.351265 
L 199.058189 153.432 
L 196.704 155.624813 
L 190.752 158.821249 
L 184.8 158.897487 
L 178.848 158.923705 
L 178.278523 158.976 
L 172.896 163.98956 
L 166.944 164.399713 
L 160.992 164.452577 
L 155.04 164.473339 
L 149.088 164.484412 
L 148.862248 164.52 
L 143.136 169.853723 
L 137.184 169.975208 
L 131.232 170.007653 
L 125.28 170.022619 
L 119.328 170.031165 
L 113.376 170.036627 
L 113.139083 170.064 
L 107.424 175.387323 
L 101.472 175.501543 
L 95.52 175.533926 
L 89.568 175.547457 
L 83.616 175.552302 
L 77.664 175.549401 
L 71.712 175.529112 
L 65.76 175.256518 
L 60.185348 170.064 
L 59.808 170.026307 
L 53.896467 164.52 
L 53.856 164.487376 
L 47.939025 158.976 
L 47.904 158.377892 
L 42.594124 153.432 
L 41.988003 147.888 
L 41.972062 142.344 
L 41.966682 136.8 
L 41.964068 131.256 
L 41.962597 125.712 
L 41.961721 120.168 
L 41.961211 114.624 
L 41.960956 109.08 
L 41.952 108.499873 
z
" clip-path="url(#p267cd6a1b8)" style="fill: #470d60"/>
   </g>
   <g id="PathCollection_3">
    <path d="M 44.598019 147.888 
L 43.426427 142.344 
L 43.031089 136.8 
L 42.838975 131.256 
L 42.730819 125.712 
L 42.666478 120.168 
L 42.628964 114.624 
L 42.610216 109.08 
L 42.529543 103.536 
L 42.570858 97.992 
L 42.639394 92.448 
L 42.678694 86.904 
L 42.738405 81.36 
L 42.827068 75.816 
L 42.96118 70.272 
L 43.175623 64.728 
L 43.55733 59.184 
L 44.39705 53.64 
L 47.620691 48.096 
L 47.904 47.832111 
L 50.110684 42.552 
L 53.663981 37.008 
L 53.856 36.829143 
L 59.808 33.990113 
L 65.76 34.24261 
L 71.712 35.525578 
L 74.251986 37.008 
L 77.664 38.441218 
L 83.616 40.833096 
L 86.206198 42.552 
L 89.568 44.271389 
L 95.52 46.918982 
L 97.06786 48.096 
L 101.472 50.401183 
L 107.424 53.234814 
L 107.901065 53.64 
L 113.376 56.441075 
L 119.001546 59.184 
L 119.328 59.351747 
L 125.28 62.294418 
L 130.458312 64.728 
L 131.232 65.114386 
L 137.184 67.965776 
L 142.245106 70.272 
L 143.136 70.70752 
L 149.088 73.498459 
L 154.2776 75.816 
L 155.04 76.185402 
L 160.992 78.9551 
L 166.410835 81.36 
L 166.944 81.620312 
L 172.896 84.415961 
L 178.441612 86.904 
L 178.848 87.108157 
L 184.8 89.988964 
L 190.109351 92.448 
L 190.752 92.789204 
L 196.704 95.835779 
L 201.095656 97.992 
L 202.656 98.899576 
L 208.608 102.233809 
L 211.022687 103.536 
L 214.56 105.910335 
L 214.56 109.08 
L 214.56 114.624 
L 214.56 115.55988 
L 213.93621 114.624 
L 208.608 109.781274 
L 207.866979 109.08 
L 202.656 105.470671 
L 199.97619 103.536 
L 196.704 101.645397 
L 190.752 98.057915 
L 190.646622 97.992 
L 184.8 94.912555 
L 180.324303 92.448 
L 178.848 91.739413 
L 172.896 88.768641 
L 169.320815 86.904 
L 166.944 85.797502 
L 160.992 82.907931 
L 157.941638 81.36 
L 155.04 80.021965 
L 149.088 77.152982 
L 146.435824 75.816 
L 143.136 74.283016 
L 137.184 71.38671 
L 134.993328 70.272 
L 131.232 68.487869 
L 125.28 65.525919 
L 123.743516 64.728 
L 119.328 62.569602 
L 113.376 59.516118 
L 112.751713 59.184 
L 107.424 56.493128 
L 102.014928 53.64 
L 101.472 53.366182 
L 95.52 50.290121 
L 91.368765 48.096 
L 89.568 47.179265 
L 83.616 44.169689 
L 80.275681 42.552 
L 77.664 41.324626 
L 71.712 38.873096 
L 65.76 37.145748 
L 60.740975 37.008 
L 59.808 36.982886 
L 59.756751 37.008 
L 53.856 40.183475 
L 52.287342 42.552 
L 49.640014 48.096 
L 47.904 51.846188 
L 46.808833 53.64 
L 45.140817 59.184 
L 44.382598 64.728 
L 43.956629 70.272 
L 43.69023 75.816 
L 43.514109 81.36 
L 43.3955 86.904 
L 43.317435 92.448 
L 43.231406 97.992 
L 43.184375 103.536 
L 43.259476 109.08 
L 43.296717 114.624 
L 43.371235 120.168 
L 43.499041 125.712 
L 43.713881 131.256 
L 44.095495 136.8 
L 44.880793 142.344 
L 47.208036 147.888 
L 47.904 148.574762 
L 50.309353 153.432 
L 53.017367 158.976 
L 53.856 159.757146 
L 59.763752 164.52 
L 59.808 164.561215 
L 65.76 166.931976 
L 71.712 168.21044 
L 77.664 168.785597 
L 83.616 168.890999 
L 89.568 168.671135 
L 95.52 168.220228 
L 101.472 167.602294 
L 107.424 166.86226 
L 113.376 166.067824 
L 119.328 165.270375 
L 123.228744 164.52 
L 125.28 164.130504 
L 131.232 162.962945 
L 137.184 161.763212 
L 143.136 160.541074 
L 149.088 159.324531 
L 150.664704 158.976 
L 155.04 157.856946 
L 160.992 156.328949 
L 166.944 154.796844 
L 172.250308 153.432 
L 172.896 153.221549 
L 178.848 151.294446 
L 184.8 149.368353 
L 189.392823 147.888 
L 190.752 147.305576 
L 196.704 144.772038 
L 202.411506 142.344 
L 202.656 142.194284 
L 208.608 138.572891 
L 211.525814 136.8 
L 214.56 133.676077 
L 214.56 136.8 
L 214.56 142.344 
L 214.56 142.576456 
L 208.608 145.053584 
L 202.656 147.535379 
L 201.817731 147.888 
L 196.704 149.49966 
L 190.752 151.385306 
L 184.8 153.276585 
L 184.315308 153.432 
L 178.848 155.132554 
L 172.896 156.319492 
L 166.944 157.829548 
L 162.43011 158.976 
L 160.992 159.564692 
L 155.04 161.090618 
L 149.088 161.904472 
L 143.136 162.95238 
L 137.184 164.155168 
L 135.353472 164.52 
L 131.232 165.922792 
L 125.28 167.02266 
L 119.328 167.65077 
L 113.376 168.052226 
L 107.424 168.782631 
L 101.472 169.502586 
L 95.872644 170.064 
L 95.52 170.163917 
L 89.568 171.158403 
L 83.616 171.514468 
L 77.664 171.301214 
L 72.499338 170.064 
L 71.712 169.985205 
L 65.76 168.675653 
L 59.808 167.293761 
L 56.830109 164.52 
L 53.856 162.122261 
L 50.478196 158.976 
L 49.033936 153.432 
L 47.904 151.15027 
z
" clip-path="url(#p267cd6a1b8)" style="fill: #482374"/>
   </g>
   <g id="PathCollection_4">
    <path d="M 47.208036 147.888 
L 44.880793 142.344 
L 44.095495 136.8 
L 43.713881 131.256 
L 43.499041 125.712 
L 43.371235 120.168 
L 43.296717 114.624 
L 43.259476 109.08 
L 43.184375 103.536 
L 43.231406 97.992 
L 43.317435 92.448 
L 43.3955 86.904 
L 43.514109 81.36 
L 43.69023 75.816 
L 43.956629 70.272 
L 44.382598 64.728 
L 45.140817 59.184 
L 46.808833 53.64 
L 47.904 51.846188 
L 49.640014 48.096 
L 52.287342 42.552 
L 53.856 40.183475 
L 59.756751 37.008 
L 59.808 36.982886 
L 60.740975 37.008 
L 65.76 37.145748 
L 71.712 38.873096 
L 77.664 41.324626 
L 80.275681 42.552 
L 83.616 44.169689 
L 89.568 47.179265 
L 91.368765 48.096 
L 95.52 50.290121 
L 101.472 53.366182 
L 102.014928 53.64 
L 107.424 56.493128 
L 112.751713 59.184 
L 113.376 59.516118 
L 119.328 62.569602 
L 123.743516 64.728 
L 125.28 65.525919 
L 131.232 68.487869 
L 134.993328 70.272 
L 137.184 71.38671 
L 143.136 74.283016 
L 146.435824 75.816 
L 149.088 77.152982 
L 155.04 80.021965 
L 157.941638 81.36 
L 160.992 82.907931 
L 166.944 85.797502 
L 169.320815 86.904 
L 172.896 88.768641 
L 178.848 91.739413 
L 180.324303 92.448 
L 184.8 94.912555 
L 190.646622 97.992 
L 190.752 98.057915 
L 196.704 101.645397 
L 199.97619 103.536 
L 202.656 105.470671 
L 207.866979 109.08 
L 208.608 109.781274 
L 213.93621 114.624 
L 214.56 115.55988 
L 214.56 120.168 
L 214.56 125.712 
L 214.56 131.256 
L 214.56 133.676077 
L 211.525814 136.8 
L 208.608 138.572891 
L 202.656 142.194284 
L 202.411506 142.344 
L 196.704 144.772038 
L 190.752 147.305576 
L 189.392823 147.888 
L 184.8 149.368353 
L 178.848 151.294446 
L 172.896 153.221549 
L 172.250308 153.432 
L 166.944 154.796844 
L 160.992 156.328949 
L 155.04 157.856946 
L 150.664704 158.976 
L 149.088 159.324531 
L 143.136 160.541074 
L 137.184 161.763212 
L 131.232 162.962945 
L 125.28 164.130504 
L 123.228744 164.52 
L 119.328 165.270375 
L 113.376 166.067824 
L 107.424 166.86226 
L 101.472 167.602294 
L 95.52 168.220228 
L 89.568 168.671135 
L 83.616 168.890999 
L 77.664 168.785597 
L 71.712 168.21044 
L 65.76 166.931976 
L 59.808 164.561215 
L 59.763752 164.52 
L 53.856 159.757146 
L 53.017367 158.976 
L 50.309353 153.432 
L 47.904 148.574762 
z
M 47.904 145.644318 
L 48.85446 147.888 
L 51.584771 153.432 
L 53.856 157.460821 
L 55.466173 158.976 
L 59.808 162.563449 
L 64.092668 164.52 
L 65.76 165.188299 
L 71.712 166.435675 
L 77.664 166.981897 
L 83.616 167.060418 
L 89.568 166.815594 
L 95.52 166.3415 
L 101.472 165.702003 
L 107.424 164.94189 
L 110.397885 164.52 
L 113.376 164.0136 
L 119.328 162.926911 
L 125.28 161.780862 
L 131.232 160.59151 
L 137.184 159.371256 
L 139.089376 158.976 
L 143.136 157.946901 
L 149.088 156.416353 
L 155.04 154.871821 
L 160.563663 153.432 
L 160.992 153.290932 
L 166.944 151.337717 
L 172.896 149.378599 
L 177.430851 147.888 
L 178.848 147.271315 
L 184.8 144.6932 
L 190.217243 142.344 
L 190.752 142.012572 
L 196.704 138.339943 
L 199.201594 136.8 
L 202.656 133.246467 
L 204.593397 131.256 
L 206.68868 125.712 
L 205.826768 120.168 
L 202.656 115.097266 
L 202.371942 114.624 
L 196.756984 109.08 
L 196.704 109.041904 
L 190.752 104.593334 
L 189.396815 103.536 
L 184.8 100.678509 
L 180.665058 97.992 
L 178.848 96.999268 
L 172.896 93.610692 
L 170.938851 92.448 
L 166.944 90.382948 
L 160.992 87.160336 
L 160.537209 86.904 
L 155.04 84.141422 
L 149.770374 81.36 
L 149.088 81.032812 
L 143.136 78.059513 
L 138.860135 75.816 
L 137.184 75.005617 
L 131.232 71.999596 
L 127.969236 70.272 
L 125.28 68.944508 
L 119.328 65.870104 
L 117.209197 64.728 
L 113.376 62.782435 
L 107.424 59.623215 
L 106.622291 59.184 
L 101.472 56.503489 
L 96.161147 53.64 
L 95.52 53.309186 
L 89.568 50.20564 
L 85.517224 48.096 
L 83.616 47.141057 
L 77.664 44.300856 
L 73.479706 42.552 
L 71.712 41.833666 
L 65.76 40.197069 
L 59.808 40.140279 
L 55.450286 42.552 
L 53.856 43.529139 
L 51.468681 48.096 
L 48.880005 53.64 
L 47.904 55.984492 
L 46.724304 59.184 
L 45.589572 64.728 
L 44.952078 70.272 
L 44.553392 75.816 
L 44.289813 81.36 
L 44.112306 86.904 
L 43.995476 92.448 
L 43.891953 97.992 
L 43.839208 103.536 
L 43.908736 109.08 
L 43.964471 114.624 
L 44.075992 120.168 
L 44.267263 125.712 
L 44.588787 131.256 
L 45.159901 136.8 
L 46.335159 142.344 
z
" clip-path="url(#p267cd6a1b8)" style="fill: #453781"/>
   </g>
   <g id="PathCollection_5">
    <path d="M 46.335159 142.344 
L 45.159901 136.8 
L 44.588787 131.256 
L 44.267263 125.712 
L 44.075992 120.168 
L 43.964471 114.624 
L 43.908736 109.08 
L 43.839208 103.536 
L 43.891953 97.992 
L 43.995476 92.448 
L 44.112306 86.904 
L 44.289813 81.36 
L 44.553392 75.816 
L 44.952078 70.272 
L 45.589572 64.728 
L 46.724304 59.184 
L 47.904 55.984492 
L 48.880005 53.64 
L 51.468681 48.096 
L 53.856 43.529139 
L 55.450286 42.552 
L 59.808 40.140279 
L 65.76 40.197069 
L 71.712 41.833666 
L 73.479706 42.552 
L 77.664 44.300856 
L 83.616 47.141057 
L 85.517224 48.096 
L 89.568 50.20564 
L 95.52 53.309186 
L 96.161147 53.64 
L 101.472 56.503489 
L 106.622291 59.184 
L 107.424 59.623215 
L 113.376 62.782435 
L 117.209197 64.728 
L 119.328 65.870104 
L 125.28 68.944508 
L 127.969236 70.272 
L 131.232 71.999596 
L 137.184 75.005617 
L 138.860135 75.816 
L 143.136 78.059513 
L 149.088 81.032812 
L 149.770374 81.36 
L 155.04 84.141422 
L 160.537209 86.904 
L 160.992 87.160336 
L 166.944 90.382948 
L 170.938851 92.448 
L 172.896 93.610692 
L 178.848 96.999268 
L 180.665058 97.992 
L 184.8 100.678509 
L 189.396815 103.536 
L 190.752 104.593334 
L 196.704 109.041904 
L 196.756984 109.08 
L 202.371942 114.624 
L 202.656 115.097266 
L 205.826768 120.168 
L 206.68868 125.712 
L 204.593397 131.256 
L 202.656 133.246467 
L 199.201594 136.8 
L 196.704 138.339943 
L 190.752 142.012572 
L 190.217243 142.344 
L 184.8 144.6932 
L 178.848 147.271315 
L 177.430851 147.888 
L 172.896 149.378599 
L 166.944 151.337717 
L 160.992 153.290932 
L 160.563663 153.432 
L 155.04 154.871821 
L 149.088 156.416353 
L 143.136 157.946901 
L 139.089376 158.976 
L 137.184 159.371256 
L 131.232 160.59151 
L 125.28 161.780862 
L 119.328 162.926911 
L 113.376 164.0136 
L 110.397885 164.52 
L 107.424 164.94189 
L 101.472 165.702003 
L 95.52 166.3415 
L 89.568 166.815594 
L 83.616 167.060418 
L 77.664 166.981897 
L 71.712 166.435675 
L 65.76 165.188299 
L 64.092668 164.52 
L 59.808 162.563449 
L 55.466173 158.976 
L 53.856 157.460821 
L 51.584771 153.432 
L 48.85446 147.888 
L 47.904 145.644318 
z
M 47.904 142.584817 
L 50.150515 147.888 
L 52.860188 153.432 
L 53.856 155.198421 
L 57.870415 158.976 
L 59.808 160.576936 
L 65.76 163.267107 
L 71.033147 164.52 
L 71.712 164.66091 
L 77.664 165.178197 
L 83.616 165.229838 
L 89.568 164.960054 
L 94.842526 164.52 
L 95.52 164.452462 
L 101.472 163.670548 
L 107.424 162.744462 
L 113.376 161.711829 
L 119.328 160.600449 
L 125.28 159.43122 
L 127.530021 158.976 
L 131.232 158.059996 
L 137.184 156.552026 
L 143.136 155.014522 
L 149.088 153.456906 
L 149.183215 153.432 
L 155.04 151.49936 
L 160.992 149.519348 
L 165.88044 147.888 
L 166.944 147.420227 
L 172.896 144.808833 
L 178.488375 142.344 
L 178.848 142.11917 
L 184.8 138.408934 
L 187.377351 136.8 
L 190.752 133.341075 
L 192.78601 131.256 
L 195.016456 125.712 
L 194.405315 120.168 
L 191.30525 114.624 
L 190.752 114.05305 
L 186.135083 109.08 
L 184.8 108.04162 
L 179.255791 103.536 
L 178.848 103.272623 
L 172.896 99.269985 
L 171.078941 97.992 
L 166.944 95.553856 
L 161.918088 92.448 
L 160.992 91.950496 
L 155.04 88.618033 
L 152.118255 86.904 
L 149.088 85.319941 
L 143.136 82.05972 
L 141.912648 81.36 
L 137.184 78.904597 
L 131.529058 75.816 
L 131.232 75.666509 
L 125.28 72.547631 
L 121.14586 70.272 
L 119.328 69.338979 
L 113.376 66.153457 
L 110.819847 64.728 
L 107.424 62.94408 
L 101.472 59.692583 
L 100.562329 59.184 
L 95.52 56.503714 
L 90.247287 53.64 
L 89.568 53.286574 
L 83.616 50.235209 
L 79.249177 48.096 
L 77.664 47.345883 
L 71.712 44.923474 
L 65.76 43.289831 
L 59.808 43.345186 
L 53.856 47.027319 
L 53.297349 48.096 
L 50.667854 53.64 
L 48.349951 59.184 
L 47.904 60.38969 
L 46.796546 64.728 
L 45.947527 70.272 
L 45.416554 75.816 
L 45.065518 81.36 
L 44.829112 86.904 
L 44.673518 92.448 
L 44.5525 97.992 
L 44.49404 103.536 
L 44.557995 109.08 
L 44.632224 114.624 
L 44.780749 120.168 
L 45.035485 125.712 
L 45.463693 131.256 
L 46.224308 136.8 
L 47.789525 142.344 
z
" clip-path="url(#p267cd6a1b8)" style="fill: #3e4989"/>
   </g>
   <g id="PathCollection_6">
    <path d="M 47.789525 142.344 
L 46.224308 136.8 
L 45.463693 131.256 
L 45.035485 125.712 
L 44.780749 120.168 
L 44.632224 114.624 
L 44.557995 109.08 
L 44.49404 103.536 
L 44.5525 97.992 
L 44.673518 92.448 
L 44.829112 86.904 
L 45.065518 81.36 
L 45.416554 75.816 
L 45.947527 70.272 
L 46.796546 64.728 
L 47.904 60.38969 
L 48.349951 59.184 
L 50.667854 53.64 
L 53.297349 48.096 
L 53.856 47.027319 
L 59.808 43.345186 
L 65.76 43.289831 
L 71.712 44.923474 
L 77.664 47.345883 
L 79.249177 48.096 
L 83.616 50.235209 
L 89.568 53.286574 
L 90.247287 53.64 
L 95.52 56.503714 
L 100.562329 59.184 
L 101.472 59.692583 
L 107.424 62.94408 
L 110.819847 64.728 
L 113.376 66.153457 
L 119.328 69.338979 
L 121.14586 70.272 
L 125.28 72.547631 
L 131.232 75.666509 
L 131.529058 75.816 
L 137.184 78.904597 
L 141.912648 81.36 
L 143.136 82.05972 
L 149.088 85.319941 
L 152.118255 86.904 
L 155.04 88.618033 
L 160.992 91.950496 
L 161.918088 92.448 
L 166.944 95.553856 
L 171.078941 97.992 
L 172.896 99.269985 
L 178.848 103.272623 
L 179.255791 103.536 
L 184.8 108.04162 
L 186.135083 109.08 
L 190.752 114.05305 
L 191.30525 114.624 
L 194.405315 120.168 
L 195.016456 125.712 
L 192.78601 131.256 
L 190.752 133.341075 
L 187.377351 136.8 
L 184.8 138.408934 
L 178.848 142.11917 
L 178.488375 142.344 
L 172.896 144.808833 
L 166.944 147.420227 
L 165.88044 147.888 
L 160.992 149.519348 
L 155.04 151.49936 
L 149.183215 153.432 
L 149.088 153.456906 
L 143.136 155.014522 
L 137.184 156.552026 
L 131.232 158.059996 
L 127.530021 158.976 
L 125.28 159.43122 
L 119.328 160.600449 
L 113.376 161.711829 
L 107.424 162.744462 
L 101.472 163.670548 
L 95.52 164.452462 
L 94.842526 164.52 
L 89.568 164.960054 
L 83.616 165.229838 
L 77.664 165.178197 
L 71.712 164.66091 
L 71.033147 164.52 
L 65.76 163.267107 
L 59.808 160.576936 
L 57.870415 158.976 
L 53.856 155.198421 
L 52.860188 153.432 
L 50.150515 147.888 
L 47.904 142.584817 
z
M 47.904 138.937428 
L 49.117679 142.344 
L 51.44657 147.888 
L 53.856 152.847191 
L 54.398013 153.432 
L 59.808 158.524297 
L 60.692332 158.976 
L 65.76 161.235598 
L 71.712 162.610822 
L 77.664 163.177779 
L 83.616 163.203422 
L 89.568 162.853205 
L 95.52 162.235261 
L 101.472 161.423253 
L 107.424 160.46903 
L 113.376 159.410058 
L 115.665091 158.976 
L 119.328 158.128728 
L 125.28 156.684864 
L 131.232 155.186372 
L 137.184 153.648215 
L 138.012703 153.432 
L 143.136 151.751241 
L 149.088 149.769802 
L 154.681278 147.888 
L 155.04 147.729703 
L 160.992 145.10247 
L 166.944 142.449488 
L 167.181775 142.344 
L 172.896 138.762211 
L 176.010644 136.8 
L 178.848 133.913246 
L 181.45419 131.256 
L 183.819448 125.712 
L 183.452681 120.168 
L 180.702912 114.624 
L 178.848 112.521354 
L 175.943877 109.08 
L 172.896 106.501293 
L 169.546968 103.536 
L 166.944 101.714713 
L 161.86552 97.992 
L 160.992 97.456081 
L 155.04 93.64448 
L 153.255706 92.448 
L 149.088 90.02359 
L 143.982344 86.904 
L 143.136 86.443493 
L 137.184 83.064192 
L 134.322723 81.36 
L 131.232 79.689314 
L 125.28 76.314359 
L 124.436513 75.816 
L 119.328 73.035224 
L 114.489825 70.272 
L 113.376 69.678717 
L 107.424 66.388989 
L 104.528626 64.728 
L 101.472 63.075258 
L 95.52 59.75934 
L 94.495837 59.184 
L 89.568 56.549426 
L 84.109835 53.64 
L 83.616 53.387509 
L 77.664 50.534332 
L 71.814409 48.096 
L 71.712 48.054686 
L 65.76 46.522735 
L 59.808 46.698981 
L 57.576514 48.096 
L 53.856 50.701565 
L 52.455704 53.64 
L 50.098765 59.184 
L 48.045116 64.728 
L 47.904 65.164243 
L 46.942975 70.272 
L 46.279716 75.816 
L 45.841222 81.36 
L 45.545918 86.904 
L 45.351559 92.448 
L 45.213047 97.992 
L 45.148872 103.536 
L 45.207255 109.08 
L 45.299977 114.624 
L 45.485506 120.168 
L 45.803707 125.712 
L 46.338599 131.256 
L 47.288714 136.8 
z
" clip-path="url(#p267cd6a1b8)" style="fill: #375b8d"/>
   </g>
   <g id="PathCollection_7">
    <path d="M 47.288714 136.8 
L 46.338599 131.256 
L 45.803707 125.712 
L 45.485506 120.168 
L 45.299977 114.624 
L 45.207255 109.08 
L 45.148872 103.536 
L 45.213047 97.992 
L 45.351559 92.448 
L 45.545918 86.904 
L 45.841222 81.36 
L 46.279716 75.816 
L 46.942975 70.272 
L 47.904 65.164243 
L 48.045116 64.728 
L 50.098765 59.184 
L 52.455704 53.64 
L 53.856 50.701565 
L 57.576514 48.096 
L 59.808 46.698981 
L 65.76 46.522735 
L 71.712 48.054686 
L 71.814409 48.096 
L 77.664 50.534332 
L 83.616 53.387509 
L 84.109835 53.64 
L 89.568 56.549426 
L 94.495837 59.184 
L 95.52 59.75934 
L 101.472 63.075258 
L 104.528626 64.728 
L 107.424 66.388989 
L 113.376 69.678717 
L 114.489825 70.272 
L 119.328 73.035224 
L 124.436513 75.816 
L 125.28 76.314359 
L 131.232 79.689314 
L 134.322723 81.36 
L 137.184 83.064192 
L 143.136 86.443493 
L 143.982344 86.904 
L 149.088 90.02359 
L 153.255706 92.448 
L 155.04 93.64448 
L 160.992 97.456081 
L 161.86552 97.992 
L 166.944 101.714713 
L 169.546968 103.536 
L 172.896 106.501293 
L 175.943877 109.08 
L 178.848 112.521354 
L 180.702912 114.624 
L 183.452681 120.168 
L 183.819448 125.712 
L 181.45419 131.256 
L 178.848 133.913246 
L 176.010644 136.8 
L 172.896 138.762211 
L 167.181775 142.344 
L 166.944 142.449488 
L 160.992 145.10247 
L 155.04 147.729703 
L 154.681278 147.888 
L 149.088 149.769802 
L 143.136 151.751241 
L 138.012703 153.432 
L 137.184 153.648215 
L 131.232 155.186372 
L 125.28 156.684864 
L 119.328 158.128728 
L 115.665091 158.976 
L 113.376 159.410058 
L 107.424 160.46903 
L 101.472 161.423253 
L 95.52 162.235261 
L 89.568 162.853205 
L 83.616 163.203422 
L 77.664 163.177779 
L 71.712 162.610822 
L 65.76 161.235598 
L 60.692332 158.976 
L 59.808 158.524297 
L 54.398013 153.432 
L 53.856 152.847191 
L 51.44657 147.888 
L 49.117679 142.344 
L 47.904 138.937428 
z
M 47.904 134.868588 
L 48.469152 136.8 
L 50.435051 142.344 
L 52.742625 147.888 
L 53.856 150.179595 
L 56.870394 153.432 
L 59.808 156.197101 
L 65.248459 158.976 
L 65.76 159.204088 
L 71.712 160.53699 
L 77.664 161.064328 
L 83.616 161.052972 
L 89.568 160.668227 
L 95.52 160.01806 
L 101.472 159.175957 
L 102.695567 158.976 
L 107.424 158.035971 
L 113.376 156.726762 
L 119.328 155.320878 
L 125.28 153.843179 
L 126.892223 153.432 
L 131.232 152.045187 
L 137.184 150.093541 
L 143.136 148.100021 
L 143.76607 147.888 
L 149.088 145.545015 
L 155.04 142.885516 
L 156.250097 142.344 
L 160.992 139.370387 
L 165.054106 136.8 
L 166.944 134.901469 
L 170.554449 131.256 
L 172.896 126.076047 
L 173.060241 125.712 
L 172.929137 120.168 
L 172.896 120.095133 
L 170.516765 114.624 
L 166.944 110.135586 
L 166.141341 109.08 
L 160.992 104.31097 
L 160.193468 103.536 
L 155.04 99.610336 
L 153.01455 97.992 
L 149.088 95.376185 
L 144.901164 92.448 
L 143.136 91.378294 
L 137.184 87.600451 
L 136.13442 86.904 
L 131.232 84.011027 
L 126.95622 81.36 
L 125.28 80.417085 
L 119.328 76.919656 
L 117.527437 75.816 
L 113.376 73.471525 
L 107.957892 70.272 
L 107.424 69.977873 
L 101.472 66.600364 
L 98.268743 64.728 
L 95.52 63.212567 
L 89.568 59.885038 
L 88.29123 59.184 
L 83.616 56.738006 
L 77.664 53.778772 
L 77.331194 53.64 
L 71.712 51.38482 
L 65.76 49.866186 
L 59.808 50.188326 
L 54.950075 53.64 
L 53.856 54.520284 
L 51.84758 59.184 
L 49.756564 64.728 
L 47.961947 70.272 
L 47.904 70.481219 
L 47.142878 75.816 
L 46.616927 81.36 
L 46.262724 86.904 
L 46.0296 92.448 
L 45.873594 97.992 
L 45.803704 103.536 
L 45.856515 109.08 
L 45.96773 114.624 
L 46.190263 120.168 
L 46.57193 125.712 
L 47.213505 131.256 
z
" clip-path="url(#p267cd6a1b8)" style="fill: #2f6b8e"/>
   </g>
   <g id="PathCollection_8">
    <path d="M 47.213505 131.256 
L 46.57193 125.712 
L 46.190263 120.168 
L 45.96773 114.624 
L 45.856515 109.08 
L 45.803704 103.536 
L 45.873594 97.992 
L 46.0296 92.448 
L 46.262724 86.904 
L 46.616927 81.36 
L 47.142878 75.816 
L 47.904 70.481219 
L 47.961947 70.272 
L 49.756564 64.728 
L 51.84758 59.184 
L 53.856 54.520284 
L 54.950075 53.64 
L 59.808 50.188326 
L 65.76 49.866186 
L 71.712 51.38482 
L 77.331194 53.64 
L 77.664 53.778772 
L 83.616 56.738006 
L 88.29123 59.184 
L 89.568 59.885038 
L 95.52 63.212567 
L 98.268743 64.728 
L 101.472 66.600364 
L 107.424 69.977873 
L 107.957892 70.272 
L 113.376 73.471525 
L 117.527437 75.816 
L 119.328 76.919656 
L 125.28 80.417085 
L 126.95622 81.36 
L 131.232 84.011027 
L 136.13442 86.904 
L 137.184 87.600451 
L 143.136 91.378294 
L 144.901164 92.448 
L 149.088 95.376185 
L 153.01455 97.992 
L 155.04 99.610336 
L 160.193468 103.536 
L 160.992 104.31097 
L 166.141341 109.08 
L 166.944 110.135586 
L 170.516765 114.624 
L 172.896 120.095133 
L 172.929137 120.168 
L 173.060241 125.712 
L 172.896 126.076047 
L 170.554449 131.256 
L 166.944 134.901469 
L 165.054106 136.8 
L 160.992 139.370387 
L 156.250097 142.344 
L 155.04 142.885516 
L 149.088 145.545015 
L 143.76607 147.888 
L 143.136 148.100021 
L 137.184 150.093541 
L 131.232 152.045187 
L 126.892223 153.432 
L 125.28 153.843179 
L 119.328 155.320878 
L 113.376 156.726762 
L 107.424 158.035971 
L 102.695567 158.976 
L 101.472 159.175957 
L 95.52 160.01806 
L 89.568 160.668227 
L 83.616 161.052972 
L 77.664 161.064328 
L 71.712 160.53699 
L 65.76 159.204088 
L 65.248459 158.976 
L 59.808 156.197101 
L 56.870394 153.432 
L 53.856 150.179595 
L 52.742625 147.888 
L 50.435051 142.344 
L 48.469152 136.8 
L 47.904 134.868588 
z
M 47.904 130.019096 
L 48.191118 131.256 
L 49.808553 136.8 
L 51.752422 142.344 
L 53.856 147.43832 
L 54.214649 147.888 
L 59.342775 153.432 
L 59.808 153.869906 
L 65.76 156.855058 
L 71.712 158.370643 
L 77.664 158.946244 
L 83.616 158.888685 
L 89.568 158.388682 
L 95.52 157.571351 
L 101.472 156.522306 
L 107.424 155.302118 
L 113.376 153.954799 
L 115.551975 153.432 
L 119.328 152.299541 
L 125.28 150.428454 
L 131.232 148.484614 
L 133.025408 147.888 
L 137.184 146.087629 
L 143.136 143.45452 
L 145.617819 142.344 
L 149.088 140.186851 
L 154.45494 136.8 
L 155.04 136.22411 
L 160.039257 131.256 
L 160.992 129.2924 
L 162.720123 125.712 
L 162.829473 120.168 
L 160.992 115.406928 
L 160.70338 114.624 
L 156.723593 109.08 
L 155.04 107.444472 
L 151.202356 103.536 
L 149.088 101.852377 
L 144.467624 97.992 
L 143.136 97.066354 
L 137.184 92.727618 
L 136.817029 92.448 
L 131.232 88.770081 
L 128.532874 86.904 
L 125.28 84.905425 
L 119.781107 81.36 
L 119.328 81.095023 
L 113.376 77.478752 
L 110.751616 75.816 
L 107.424 73.873342 
L 101.490454 70.272 
L 101.472 70.261546 
L 95.52 66.828947 
L 91.933958 64.728 
L 89.568 63.419448 
L 83.616 60.177168 
L 81.664295 59.184 
L 77.664 57.241463 
L 71.712 54.795791 
L 67.10521 53.64 
L 65.76 53.31443 
L 61.499671 53.64 
L 59.808 53.784998 
L 53.856 58.581176 
L 53.596395 59.184 
L 51.468012 64.728 
L 49.637591 70.272 
L 48.098029 75.816 
L 47.904 76.659003 
L 47.392631 81.36 
L 46.97953 86.904 
L 46.707641 92.448 
L 46.534141 97.992 
L 46.458536 103.536 
L 46.505775 109.08 
L 46.635483 114.624 
L 46.89502 120.168 
L 47.340152 125.712 
z
" clip-path="url(#p267cd6a1b8)" style="fill: #297a8e"/>
   </g>
   <g id="PathCollection_9">
    <path d="M 47.340152 125.712 
L 46.89502 120.168 
L 46.635483 114.624 
L 46.505775 109.08 
L 46.458536 103.536 
L 46.534141 97.992 
L 46.707641 92.448 
L 46.97953 86.904 
L 47.392631 81.36 
L 47.904 76.659003 
L 48.098029 75.816 
L 49.637591 70.272 
L 51.468012 64.728 
L 53.596395 59.184 
L 53.856 58.581176 
L 59.808 53.784998 
L 61.499671 53.64 
L 65.76 53.31443 
L 67.10521 53.64 
L 71.712 54.795791 
L 77.664 57.241463 
L 81.664295 59.184 
L 83.616 60.177168 
L 89.568 63.419448 
L 91.933958 64.728 
L 95.52 66.828947 
L 101.472 70.261546 
L 101.490454 70.272 
L 107.424 73.873342 
L 110.751616 75.816 
L 113.376 77.478752 
L 119.328 81.095023 
L 119.781107 81.36 
L 125.28 84.905425 
L 128.532874 86.904 
L 131.232 88.770081 
L 136.817029 92.448 
L 137.184 92.727618 
L 143.136 97.066354 
L 144.467624 97.992 
L 149.088 101.852377 
L 151.202356 103.536 
L 155.04 107.444472 
L 156.723593 109.08 
L 160.70338 114.624 
L 160.992 115.406928 
L 162.829473 120.168 
L 162.720123 125.712 
L 160.992 129.2924 
L 160.039257 131.256 
L 155.04 136.22411 
L 154.45494 136.8 
L 149.088 140.186851 
L 145.617819 142.344 
L 143.136 143.45452 
L 137.184 146.087629 
L 133.025408 147.888 
L 131.232 148.484614 
L 125.28 150.428454 
L 119.328 152.299541 
L 115.551975 153.432 
L 113.376 153.954799 
L 107.424 155.302118 
L 101.472 156.522306 
L 95.52 157.571351 
L 89.568 158.388682 
L 83.616 158.888685 
L 77.664 158.946244 
L 71.712 158.370643 
L 65.76 156.855058 
L 59.808 153.869906 
L 59.342775 153.432 
L 54.214649 147.888 
L 53.856 147.43832 
L 51.752422 142.344 
L 49.808553 136.8 
L 48.191118 131.256 
L 47.904 130.019096 
z
M 47.904 123.598076 
L 48.272656 125.712 
L 49.553297 131.256 
L 51.147954 136.8 
L 53.069793 142.344 
L 53.856 144.247988 
L 56.759144 147.888 
L 59.808 151.192853 
L 63.690516 153.432 
L 65.76 154.465868 
L 71.712 155.9227 
L 77.664 156.442908 
L 83.616 156.333271 
L 89.568 155.784364 
L 95.52 154.921124 
L 101.472 153.828967 
L 103.365377 153.432 
L 107.424 152.374087 
L 113.376 150.668537 
L 119.328 148.839397 
L 122.295319 147.888 
L 125.28 146.649688 
L 131.232 144.094381 
L 135.199797 142.344 
L 137.184 141.139078 
L 143.136 137.447829 
L 144.167876 136.8 
L 149.088 132.025147 
L 149.870604 131.256 
L 152.727068 125.712 
L 153.074687 120.168 
L 151.264858 114.624 
L 149.088 111.36582 
L 147.630834 109.08 
L 143.136 104.249683 
L 142.50271 103.536 
L 137.184 98.892428 
L 136.200859 97.992 
L 131.232 94.224583 
L 128.998323 92.448 
L 125.28 89.895743 
L 121.122705 86.904 
L 119.328 85.757103 
L 113.376 81.783925 
L 112.763128 81.36 
L 107.424 78.012041 
L 104.049696 75.816 
L 101.472 74.269931 
L 95.52 70.602249 
L 94.985195 70.272 
L 89.568 67.146051 
L 85.327302 64.728 
L 83.616 63.805821 
L 77.664 60.825505 
L 73.744289 59.184 
L 71.712 58.370365 
L 65.76 56.997648 
L 59.808 57.652601 
L 57.918853 59.184 
L 53.856 62.970333 
L 53.17946 64.728 
L 51.313235 70.272 
L 49.739337 75.816 
L 48.452075 81.36 
L 47.904 84.356501 
L 47.696336 86.904 
L 47.385682 92.448 
L 47.194688 97.992 
L 47.113368 103.536 
L 47.155035 109.08 
L 47.303237 114.624 
L 47.599777 120.168 
z
" clip-path="url(#p267cd6a1b8)" style="fill: #23898e"/>
   </g>
   <g id="PathCollection_10">
    <path d="M 47.599777 120.168 
L 47.303237 114.624 
L 47.155035 109.08 
L 47.113368 103.536 
L 47.194688 97.992 
L 47.385682 92.448 
L 47.696336 86.904 
L 47.904 84.356501 
L 48.452075 81.36 
L 49.739337 75.816 
L 51.313235 70.272 
L 53.17946 64.728 
L 53.856 62.970333 
L 57.918853 59.184 
L 59.808 57.652601 
L 65.76 56.997648 
L 71.712 58.370365 
L 73.744289 59.184 
L 77.664 60.825505 
L 83.616 63.805821 
L 85.327302 64.728 
L 89.568 67.146051 
L 94.985195 70.272 
L 95.52 70.602249 
L 101.472 74.269931 
L 104.049696 75.816 
L 107.424 78.012041 
L 112.763128 81.36 
L 113.376 81.783925 
L 119.328 85.757103 
L 121.122705 86.904 
L 125.28 89.895743 
L 128.998323 92.448 
L 131.232 94.224583 
L 136.200859 97.992 
L 137.184 98.892428 
L 142.50271 103.536 
L 143.136 104.249683 
L 147.630834 109.08 
L 149.088 111.36582 
L 151.264858 114.624 
L 153.074687 120.168 
L 152.727068 125.712 
L 149.870604 131.256 
L 149.088 132.025147 
L 144.167876 136.8 
L 143.136 137.447829 
L 137.184 141.139078 
L 135.199797 142.344 
L 131.232 144.094381 
L 125.28 146.649688 
L 122.295319 147.888 
L 119.328 148.839397 
L 113.376 150.668537 
L 107.424 152.374087 
L 103.365377 153.432 
L 101.472 153.828967 
L 95.52 154.921124 
L 89.568 155.784364 
L 83.616 156.333271 
L 77.664 156.442908 
L 71.712 155.9227 
L 65.76 154.465868 
L 63.690516 153.432 
L 59.808 151.192853 
L 56.759144 147.888 
L 53.856 144.247988 
L 53.069793 142.344 
L 51.147954 136.8 
L 49.553297 131.256 
L 48.272656 125.712 
L 47.904 123.598076 
z
M 47.904 112.433352 
L 48.048002 114.624 
L 48.705425 120.168 
L 49.658402 125.712 
L 50.915476 131.256 
L 52.487354 136.8 
L 53.856 140.775377 
L 54.912765 142.344 
L 59.30364 147.888 
L 59.808 148.434709 
L 65.76 151.817738 
L 71.534214 153.432 
L 71.712 153.474756 
L 77.664 153.939573 
L 83.616 153.777857 
L 87.086935 153.432 
L 89.568 153.126657 
L 95.52 152.019581 
L 101.472 150.628716 
L 107.424 149.02563 
L 111.288008 147.888 
L 113.376 147.097327 
L 119.328 144.702169 
L 124.882983 142.344 
L 125.28 142.114232 
L 131.232 138.565985 
L 134.106083 136.8 
L 137.184 133.92998 
L 139.990633 131.256 
L 143.028179 125.712 
L 143.136 124.719371 
L 143.624753 120.168 
L 143.136 118.428399 
L 142.11531 114.624 
L 138.831792 109.08 
L 137.184 107.212365 
L 134.089636 103.536 
L 131.232 100.920004 
L 128.180339 97.992 
L 125.28 95.69487 
L 121.366009 92.448 
L 119.328 90.991274 
L 113.860152 86.904 
L 113.376 86.582875 
L 107.424 82.493206 
L 105.828956 81.36 
L 101.472 78.554424 
L 97.331967 75.816 
L 95.52 74.711129 
L 89.568 71.05715 
L 88.25597 70.272 
L 83.616 67.674949 
L 77.993402 64.728 
L 77.664 64.564614 
L 71.712 62.173048 
L 65.76 60.836143 
L 59.808 61.730468 
L 56.591467 64.728 
L 53.856 67.715431 
L 52.988879 70.272 
L 51.380645 75.816 
L 50.060426 81.36 
L 49.023913 86.904 
L 48.268245 92.448 
L 47.904 96.669128 
L 47.855235 97.992 
L 47.768201 103.536 
L 47.804295 109.08 
z
" clip-path="url(#p267cd6a1b8)" style="fill: #1f988b"/>
   </g>
   <g id="PathCollection_11">
    <path d="M 47.804295 109.08 
L 47.768201 103.536 
L 47.855235 97.992 
L 47.904 96.669128 
L 48.268245 92.448 
L 49.023913 86.904 
L 50.060426 81.36 
L 51.380645 75.816 
L 52.988879 70.272 
L 53.856 67.715431 
L 56.591467 64.728 
L 59.808 61.730468 
L 65.76 60.836143 
L 71.712 62.173048 
L 77.664 64.564614 
L 77.993402 64.728 
L 83.616 67.674949 
L 88.25597 70.272 
L 89.568 71.05715 
L 95.52 74.711129 
L 97.331967 75.816 
L 101.472 78.554424 
L 105.828956 81.36 
L 107.424 82.493206 
L 113.376 86.582875 
L 113.860152 86.904 
L 119.328 90.991274 
L 121.366009 92.448 
L 125.28 95.69487 
L 128.180339 97.992 
L 131.232 100.920004 
L 134.089636 103.536 
L 137.184 107.212365 
L 138.831792 109.08 
L 142.11531 114.624 
L 143.136 118.428399 
L 143.624753 120.168 
L 143.136 124.719371 
L 143.028179 125.712 
L 139.990633 131.256 
L 137.184 133.92998 
L 134.106083 136.8 
L 131.232 138.565985 
L 125.28 142.114232 
L 124.882983 142.344 
L 119.328 144.702169 
L 113.376 147.097327 
L 111.288008 147.888 
L 107.424 149.02563 
L 101.472 150.628716 
L 95.52 152.019581 
L 89.568 153.126657 
L 87.086935 153.432 
L 83.616 153.777857 
L 77.664 153.939573 
L 71.712 153.474756 
L 71.534214 153.432 
L 65.76 151.817738 
L 59.808 148.434709 
L 59.30364 147.888 
L 54.912765 142.344 
L 53.856 140.775377 
L 52.487354 136.8 
L 50.915476 131.256 
L 49.658402 125.712 
L 48.705425 120.168 
L 48.048002 114.624 
L 47.904 112.433352 
z
M 53.856 136.884946 
L 57.533708 142.344 
L 59.808 145.225508 
L 63.842866 147.888 
L 65.76 148.972083 
L 71.712 150.553768 
L 77.664 151.033041 
L 83.616 150.764844 
L 89.568 149.970477 
L 95.52 148.795721 
L 99.260924 147.888 
L 101.472 147.202375 
L 107.424 145.104741 
L 113.376 142.790581 
L 114.464478 142.344 
L 119.328 139.637321 
L 124.157697 136.8 
L 125.28 135.818225 
L 130.307292 131.256 
L 131.232 129.72451 
L 133.596074 125.712 
L 134.450321 120.168 
L 133.232816 114.624 
L 131.232 110.934016 
L 130.271044 109.08 
L 125.878762 103.536 
L 125.28 102.960986 
L 120.334741 97.992 
L 119.328 97.159658 
L 113.871975 92.448 
L 113.376 92.079587 
L 107.424 87.492079 
L 106.684366 86.904 
L 101.472 83.232889 
L 98.876692 81.36 
L 95.52 79.164791 
L 90.446142 75.816 
L 89.568 75.281482 
L 83.616 71.76604 
L 80.875992 70.272 
L 77.664 68.631994 
L 71.712 66.168298 
L 65.76 64.875981 
L 59.808 66.073745 
L 55.931144 70.272 
L 53.856 72.972244 
L 53.021954 75.816 
L 51.668777 81.36 
L 50.600604 86.904 
L 49.814499 92.448 
L 49.308979 97.992 
L 49.084031 103.536 
L 49.141151 109.08 
L 49.483415 114.624 
L 50.115567 120.168 
L 51.044148 125.712 
L 52.277656 131.256 
L 53.826755 136.8 
z
" clip-path="url(#p267cd6a1b8)" style="fill: #22a785"/>
   </g>
   <g id="PathCollection_12">
    <path d="M 53.826755 136.8 
L 52.277656 131.256 
L 51.044148 125.712 
L 50.115567 120.168 
L 49.483415 114.624 
L 49.141151 109.08 
L 49.084031 103.536 
L 49.308979 97.992 
L 49.814499 92.448 
L 50.600604 86.904 
L 51.668777 81.36 
L 53.021954 75.816 
L 53.856 72.972244 
L 55.931144 70.272 
L 59.808 66.073745 
L 65.76 64.875981 
L 71.712 66.168298 
L 77.664 68.631994 
L 80.875992 70.272 
L 83.616 71.76604 
L 89.568 75.281482 
L 90.446142 75.816 
L 95.52 79.164791 
L 98.876692 81.36 
L 101.472 83.232889 
L 106.684366 86.904 
L 107.424 87.492079 
L 113.376 92.079587 
L 113.871975 92.448 
L 119.328 97.159658 
L 120.334741 97.992 
L 125.28 102.960986 
L 125.878762 103.536 
L 130.271044 109.08 
L 131.232 110.934016 
L 133.232816 114.624 
L 134.450321 120.168 
L 133.596074 125.712 
L 131.232 129.72451 
L 130.307292 131.256 
L 125.28 135.818225 
L 124.157697 136.8 
L 119.328 139.637321 
L 114.464478 142.344 
L 113.376 142.790581 
L 107.424 145.104741 
L 101.472 147.202375 
L 99.260924 147.888 
L 95.52 148.795721 
L 89.568 149.970477 
L 83.616 150.764844 
L 77.664 151.033041 
L 71.712 150.553768 
L 65.76 148.972083 
L 63.842866 147.888 
L 59.808 145.225508 
L 57.533708 142.344 
L 53.856 136.884946 
z
M 53.856 132.029873 
L 56.499126 136.8 
L 59.808 141.803569 
L 60.510294 142.344 
L 65.76 145.753314 
L 71.712 147.566528 
L 75.674483 147.888 
L 77.664 148.023965 
L 80.053537 147.888 
L 83.616 147.631631 
L 89.568 146.556094 
L 95.52 144.999986 
L 101.472 143.082486 
L 103.506736 142.344 
L 107.424 140.435495 
L 113.376 137.245198 
L 114.162069 136.8 
L 119.328 132.485143 
L 120.729848 131.256 
L 124.315151 125.712 
L 125.28 121.027757 
L 125.452098 120.168 
L 125.28 119.161898 
L 124.53548 114.624 
L 121.900475 109.08 
L 119.328 105.624295 
L 117.835674 103.536 
L 113.376 98.829174 
L 112.611787 97.992 
L 107.424 93.351783 
L 106.444709 92.448 
L 101.472 88.516204 
L 99.476526 86.904 
L 95.52 84.074936 
L 91.743638 81.36 
L 89.568 79.942618 
L 83.616 76.163684 
L 83.01136 75.816 
L 77.664 72.976243 
L 71.712 70.422196 
L 70.95525 70.272 
L 65.76 69.303302 
L 61.656316 70.272 
L 59.808 70.787961 
L 55.871868 75.816 
L 53.856 79.017338 
L 53.277127 81.36 
L 52.177295 86.904 
L 51.360752 92.448 
L 50.825948 97.992 
L 50.572804 103.536 
L 50.602758 109.08 
L 50.918828 114.624 
L 51.52571 120.168 
L 52.429894 125.712 
L 53.639835 131.256 
z
" clip-path="url(#p267cd6a1b8)" style="fill: #32b67a"/>
   </g>
   <g id="PathCollection_13">
    <path d="M 53.639835 131.256 
L 52.429894 125.712 
L 51.52571 120.168 
L 50.918828 114.624 
L 50.602758 109.08 
L 50.572804 103.536 
L 50.825948 97.992 
L 51.360752 92.448 
L 52.177295 86.904 
L 53.277127 81.36 
L 53.856 79.017338 
L 55.871868 75.816 
L 59.808 70.787961 
L 61.656316 70.272 
L 65.76 69.303302 
L 70.95525 70.272 
L 71.712 70.422196 
L 77.664 72.976243 
L 83.01136 75.816 
L 83.616 76.163684 
L 89.568 79.942618 
L 91.743638 81.36 
L 95.52 84.074936 
L 99.476526 86.904 
L 101.472 88.516204 
L 106.444709 92.448 
L 107.424 93.351783 
L 112.611787 97.992 
L 113.376 98.829174 
L 117.835674 103.536 
L 119.328 105.624295 
L 121.900475 109.08 
L 124.53548 114.624 
L 125.28 119.161898 
L 125.452098 120.168 
L 125.28 121.027757 
L 124.315151 125.712 
L 120.729848 131.256 
L 119.328 132.485143 
L 114.162069 136.8 
L 113.376 137.245198 
L 107.424 140.435495 
L 103.506736 142.344 
L 101.472 143.082486 
L 95.52 144.999986 
L 89.568 146.556094 
L 83.616 147.631631 
L 80.053537 147.888 
L 77.664 148.023965 
L 75.674483 147.888 
L 71.712 147.566528 
L 65.76 145.753314 
L 60.510294 142.344 
L 59.808 141.803569 
L 56.499126 136.8 
L 53.856 132.029873 
z
M 53.856 125.897508 
L 56.20199 131.256 
L 59.201252 136.8 
L 59.808 137.717504 
L 65.76 142.29549 
L 65.902479 142.344 
L 71.712 143.994395 
L 77.664 144.363471 
L 83.616 143.825944 
L 89.568 142.640919 
L 90.655361 142.344 
L 95.52 140.580191 
L 101.472 137.938914 
L 103.748357 136.8 
L 107.424 134.140485 
L 111.068153 131.256 
L 113.376 128.149116 
L 115.08305 125.712 
L 116.55576 120.168 
L 115.952484 114.624 
L 113.622919 109.08 
L 113.376 108.728202 
L 109.858615 103.536 
L 107.424 100.85129 
L 104.905301 97.992 
L 101.472 94.82458 
L 98.943489 92.448 
L 95.52 89.69766 
L 92.047252 86.904 
L 89.568 85.140522 
L 84.098155 81.36 
L 83.616 81.058008 
L 77.664 77.710958 
L 73.378327 75.816 
L 71.712 75.134833 
L 65.76 74.136464 
L 60.430339 75.816 
L 59.808 76.054909 
L 56.361732 81.36 
L 53.856 86.395042 
L 53.753985 86.904 
L 52.907006 92.448 
L 52.342917 97.992 
L 52.061577 103.536 
L 52.064364 109.08 
L 52.354241 114.624 
L 52.935852 120.168 
L 53.815639 125.712 
z
" clip-path="url(#p267cd6a1b8)" style="fill: #4ec36b"/>
   </g>
   <g id="PathCollection_14">
    <path d="M 53.815639 125.712 
L 52.935852 120.168 
L 52.354241 114.624 
L 52.064364 109.08 
L 52.061577 103.536 
L 52.342917 97.992 
L 52.907006 92.448 
L 53.753985 86.904 
L 53.856 86.395042 
L 56.361732 81.36 
L 59.808 76.054909 
L 60.430339 75.816 
L 65.76 74.136464 
L 71.712 75.134833 
L 73.378327 75.816 
L 77.664 77.710958 
L 83.616 81.058008 
L 84.098155 81.36 
L 89.568 85.140522 
L 92.047252 86.904 
L 95.52 89.69766 
L 98.943489 92.448 
L 101.472 94.82458 
L 104.905301 97.992 
L 107.424 100.85129 
L 109.858615 103.536 
L 113.376 108.728202 
L 113.622919 109.08 
L 115.952484 114.624 
L 116.55576 120.168 
L 115.08305 125.712 
L 113.376 128.149116 
L 111.068153 131.256 
L 107.424 134.140485 
L 103.748357 136.8 
L 101.472 137.938914 
L 95.52 140.580191 
L 90.655361 142.344 
L 89.568 142.640919 
L 83.616 143.825944 
L 77.664 144.363471 
L 71.712 143.994395 
L 65.902479 142.344 
L 65.76 142.29549 
L 59.808 137.717504 
L 59.201252 136.8 
L 56.20199 131.256 
L 53.856 125.897508 
z
M 53.856 115.274869 
L 54.891118 120.168 
L 56.652678 125.712 
L 58.990489 131.256 
L 59.808 132.776967 
L 64.165886 136.8 
L 65.76 138.014384 
L 71.712 139.937345 
L 77.664 140.232509 
L 83.616 139.385084 
L 89.568 137.70021 
L 91.927096 136.8 
L 95.52 134.856347 
L 101.005058 131.256 
L 101.472 130.757342 
L 105.679273 125.712 
L 107.424 120.727941 
L 107.606147 120.168 
L 107.424 116.275818 
L 107.348311 114.624 
L 105.306826 109.08 
L 101.820242 103.536 
L 101.472 103.137059 
L 97.049567 97.992 
L 95.52 96.553757 
L 91.139867 92.448 
L 89.568 91.191961 
L 84.007906 86.904 
L 83.616 86.637023 
L 77.664 83.034697 
L 74.036165 81.36 
L 71.712 80.387273 
L 65.76 79.545594 
L 61.423079 81.36 
L 59.808 82.218188 
L 57.360162 86.904 
L 55.243567 92.448 
L 53.864838 97.992 
L 53.856 98.060324 
L 53.55035 103.536 
L 53.52597 109.08 
L 53.789655 114.624 
z
" clip-path="url(#p267cd6a1b8)" style="fill: #70cf57"/>
   </g>
   <g id="PathCollection_15">
    <path d="M 53.789655 114.624 
L 53.52597 109.08 
L 53.55035 103.536 
L 53.856 98.060324 
L 53.864838 97.992 
L 55.243567 92.448 
L 57.360162 86.904 
L 59.808 82.218188 
L 61.423079 81.36 
L 65.76 79.545594 
L 71.712 80.387273 
L 74.036165 81.36 
L 77.664 83.034697 
L 83.616 86.637023 
L 84.007906 86.904 
L 89.568 91.191961 
L 91.139867 92.448 
L 95.52 96.553757 
L 97.049567 97.992 
L 101.472 103.137059 
L 101.820242 103.536 
L 105.306826 109.08 
L 107.348311 114.624 
L 107.424 116.275818 
L 107.606147 120.168 
L 107.424 120.727941 
L 105.679273 125.712 
L 101.472 130.757342 
L 101.005058 131.256 
L 95.52 134.856347 
L 91.927096 136.8 
L 89.568 137.70021 
L 83.616 139.385084 
L 77.664 140.232509 
L 71.712 139.937345 
L 65.76 138.014384 
L 64.165886 136.8 
L 59.808 132.776967 
L 58.990489 131.256 
L 56.652678 125.712 
L 54.891118 120.168 
L 53.856 115.274869 
z
M 59.808 126.371154 
L 64.026417 131.256 
L 65.76 132.855495 
L 71.712 135.059007 
L 77.664 135.17725 
L 83.616 133.777904 
L 89.481895 131.256 
L 89.568 131.198259 
L 95.52 125.898819 
L 95.696412 125.712 
L 98.247848 120.168 
L 98.429046 114.624 
L 96.724809 109.08 
L 95.52 107.059984 
L 93.389695 103.536 
L 89.568 99.010588 
L 88.662366 97.992 
L 83.616 93.469831 
L 82.322875 92.448 
L 77.664 89.330342 
L 72.74995 86.904 
L 71.712 86.452299 
L 65.76 85.867059 
L 63.911569 86.904 
L 59.808 90.017421 
L 58.835858 92.448 
L 57.315054 97.992 
L 56.493559 103.536 
L 56.331356 109.08 
L 56.797708 114.624 
L 57.870061 120.168 
L 59.533255 125.712 
z
" clip-path="url(#p267cd6a1b8)" style="fill: #98d83e"/>
   </g>
   <g id="PathCollection_16">
    <path d="M 59.533255 125.712 
L 57.870061 120.168 
L 56.797708 114.624 
L 56.331356 109.08 
L 56.493559 103.536 
L 57.315054 97.992 
L 58.835858 92.448 
L 59.808 90.017421 
L 63.911569 86.904 
L 65.76 85.867059 
L 71.712 86.452299 
L 72.74995 86.904 
L 77.664 89.330342 
L 82.322875 92.448 
L 83.616 93.469831 
L 88.662366 97.992 
L 89.568 99.010588 
L 93.389695 103.536 
L 95.52 107.059984 
L 96.724809 109.08 
L 98.429046 114.624 
L 98.247848 120.168 
L 95.696412 125.712 
L 95.52 125.898819 
L 89.568 131.198259 
L 89.481895 131.256 
L 83.616 133.777904 
L 77.664 135.17725 
L 71.712 135.059007 
L 65.76 132.855495 
L 64.026417 131.256 
L 59.808 126.371154 
z
M 59.808 113.429866 
L 59.983834 114.624 
L 62.188693 120.168 
L 65.56361 125.712 
L 65.76 125.94313 
L 71.712 128.441789 
L 77.664 128.087115 
L 83.185029 125.712 
L 83.616 125.3684 
L 87.62786 120.168 
L 88.608888 114.624 
L 87.16271 109.08 
L 83.924393 103.536 
L 83.616 103.184176 
L 78.363076 97.992 
L 77.664 97.446781 
L 71.712 94.323837 
L 65.76 94.226166 
L 62.444247 97.992 
L 59.819748 103.536 
L 59.808 103.620881 
L 59.528663 109.08 
z
" clip-path="url(#p267cd6a1b8)" style="fill: #c2df23"/>
   </g>
   <g id="PathCollection_17">
    <path d="M 59.528663 109.08 
L 59.808 103.620881 
L 59.819748 103.536 
L 62.444247 97.992 
L 65.76 94.226166 
L 71.712 94.323837 
L 77.664 97.446781 
L 78.363076 97.992 
L 83.616 103.184176 
L 83.924393 103.536 
L 87.16271 109.08 
L 88.608888 114.624 
L 87.62786 120.168 
L 83.616 125.3684 
L 83.185029 125.712 
L 77.664 128.087115 
L 71.712 128.441789 
L 65.76 125.94313 
L 65.56361 125.712 
L 62.188693 120.168 
L 59.983834 114.624 
L 59.808 113.429866 
z
" clip-path="url(#p267cd6a1b8)" style="fill: #ece51b"/>
   </g>
   <g id="PathCollection_18">
    <defs>
     <path id="me3e55b05b9" d="M -4.330127 4.330127 
L 4.330127 -4.330127 
M -4.330127 -4.330127 
L 4.330127 4.330127 
" style="stroke: #000000; stroke-width: 2"/>
    </defs>
    <g clip-path="url(#p267cd6a1b8)">
     <use xlink:href="#me3e55b05b9" x="65.76" y="109.08" style="stroke: #000000; stroke-width: 2"/>
    </g>
   </g>
   <g id="matplotlib.axis_1">
    <g id="xtick_1">
     <g id="line2d_1">
      <defs>
       <path id="m7ef1a1e446" d="M 0 0 
L 0 3.5 
" style="stroke: #000000; stroke-width: 0.8"/>
      </defs>
      <g>
       <use xlink:href="#m7ef1a1e446" x="65.76" y="192.24" style="stroke: #000000; stroke-width: 0.8"/>
      </g>
     </g>
     <g id="text_1">
      <!-- 200 -->
      <g transform="translate(54.3075 208.358125) scale(0.12 -0.12)">
       <defs>
        <path id="DejaVuSans-32" d="M 1228 531 
L 3431 531 
L 3431 0 
L 469 0 
L 469 531 
Q 828 903 1448 1529 
Q 2069 2156 2228 2338 
Q 2531 2678 2651 2914 
Q 2772 3150 2772 3378 
Q 2772 3750 2511 3984 
Q 2250 4219 1831 4219 
Q 1534 4219 1204 4116 
Q 875 4013 500 3803 
L 500 4441 
Q 881 4594 1212 4672 
Q 1544 4750 1819 4750 
Q 2544 4750 2975 4387 
Q 3406 4025 3406 3419 
Q 3406 3131 3298 2873 
Q 3191 2616 2906 2266 
Q 2828 2175 2409 1742 
Q 1991 1309 1228 531 
z
" transform="scale(0.015625)"/>
        <path id="DejaVuSans-30" d="M 2034 4250 
Q 1547 4250 1301 3770 
Q 1056 3291 1056 2328 
Q 1056 1369 1301 889 
Q 1547 409 2034 409 
Q 2525 409 2770 889 
Q 3016 1369 3016 2328 
Q 3016 3291 2770 3770 
Q 2525 4250 2034 4250 
z
M 2034 4750 
Q 2819 4750 3233 4129 
Q 3647 3509 3647 2328 
Q 3647 1150 3233 529 
Q 2819 -91 2034 -91 
Q 1250 -91 836 529 
Q 422 1150 422 2328 
Q 422 3509 836 4129 
Q 1250 4750 2034 4750 
z
" transform="scale(0.015625)"/>
       </defs>
       <use xlink:href="#DejaVuSans-32"/>
       <use xlink:href="#DejaVuSans-30" x="63.623047"/>
       <use xlink:href="#DejaVuSans-30" x="127.246094"/>
      </g>
     </g>
    </g>
    <g id="xtick_2">
     <g id="line2d_2">
      <g>
       <use xlink:href="#m7ef1a1e446" x="105.44" y="192.24" style="stroke: #000000; stroke-width: 0.8"/>
      </g>
     </g>
     <g id="text_2">
      <!-- 400 -->
      <g transform="translate(93.9875 208.358125) scale(0.12 -0.12)">
       <defs>
        <path id="DejaVuSans-34" d="M 2419 4116 
L 825 1625 
L 2419 1625 
L 2419 4116 
z
M 2253 4666 
L 3047 4666 
L 3047 1625 
L 3713 1625 
L 3713 1100 
L 3047 1100 
L 3047 0 
L 2419 0 
L 2419 1100 
L 313 1100 
L 313 1709 
L 2253 4666 
z
" transform="scale(0.015625)"/>
       </defs>
       <use xlink:href="#DejaVuSans-34"/>
       <use xlink:href="#DejaVuSans-30" x="63.623047"/>
       <use xlink:href="#DejaVuSans-30" x="127.246094"/>
      </g>
     </g>
    </g>
    <g id="xtick_3">
     <g id="line2d_3">
      <g>
       <use xlink:href="#m7ef1a1e446" x="145.12" y="192.24" style="stroke: #000000; stroke-width: 0.8"/>
      </g>
     </g>
     <g id="text_3">
      <!-- 600 -->
      <g transform="translate(133.6675 208.358125) scale(0.12 -0.12)">
       <defs>
        <path id="DejaVuSans-36" d="M 2113 2584 
Q 1688 2584 1439 2293 
Q 1191 2003 1191 1497 
Q 1191 994 1439 701 
Q 1688 409 2113 409 
Q 2538 409 2786 701 
Q 3034 994 3034 1497 
Q 3034 2003 2786 2293 
Q 2538 2584 2113 2584 
z
M 3366 4563 
L 3366 3988 
Q 3128 4100 2886 4159 
Q 2644 4219 2406 4219 
Q 1781 4219 1451 3797 
Q 1122 3375 1075 2522 
Q 1259 2794 1537 2939 
Q 1816 3084 2150 3084 
Q 2853 3084 3261 2657 
Q 3669 2231 3669 1497 
Q 3669 778 3244 343 
Q 2819 -91 2113 -91 
Q 1303 -91 875 529 
Q 447 1150 447 2328 
Q 447 3434 972 4092 
Q 1497 4750 2381 4750 
Q 2619 4750 2861 4703 
Q 3103 4656 3366 4563 
z
" transform="scale(0.015625)"/>
       </defs>
       <use xlink:href="#DejaVuSans-36"/>
       <use xlink:href="#DejaVuSans-30" x="63.623047"/>
       <use xlink:href="#DejaVuSans-30" x="127.246094"/>
      </g>
     </g>
    </g>
    <g id="xtick_4">
     <g id="line2d_4">
      <g>
       <use xlink:href="#m7ef1a1e446" x="184.8" y="192.24" style="stroke: #000000; stroke-width: 0.8"/>
      </g>
     </g>
     <g id="text_4">
      <!-- 800 -->
      <g transform="translate(173.3475 208.358125) scale(0.12 -0.12)">
       <defs>
        <path id="DejaVuSans-38" d="M 2034 2216 
Q 1584 2216 1326 1975 
Q 1069 1734 1069 1313 
Q 1069 891 1326 650 
Q 1584 409 2034 409 
Q 2484 409 2743 651 
Q 3003 894 3003 1313 
Q 3003 1734 2745 1975 
Q 2488 2216 2034 2216 
z
M 1403 2484 
Q 997 2584 770 2862 
Q 544 3141 544 3541 
Q 544 4100 942 4425 
Q 1341 4750 2034 4750 
Q 2731 4750 3128 4425 
Q 3525 4100 3525 3541 
Q 3525 3141 3298 2862 
Q 3072 2584 2669 2484 
Q 3125 2378 3379 2068 
Q 3634 1759 3634 1313 
Q 3634 634 3220 271 
Q 2806 -91 2034 -91 
Q 1263 -91 848 271 
Q 434 634 434 1313 
Q 434 1759 690 2068 
Q 947 2378 1403 2484 
z
M 1172 3481 
Q 1172 3119 1398 2916 
Q 1625 2713 2034 2713 
Q 2441 2713 2670 2916 
Q 2900 3119 2900 3481 
Q 2900 3844 2670 4047 
Q 2441 4250 2034 4250 
Q 1625 4250 1398 4047 
Q 1172 3844 1172 3481 
z
" transform="scale(0.015625)"/>
       </defs>
       <use xlink:href="#DejaVuSans-38"/>
       <use xlink:href="#DejaVuSans-30" x="63.623047"/>
       <use xlink:href="#DejaVuSans-30" x="127.246094"/>
      </g>
     </g>
    </g>
    <g id="text_5">
     <!-- Diploid N$_e$0 -->
     <g transform="translate(80 227.01375) scale(0.16 -0.16)">
      <defs>
       <path id="DejaVuSans-44" d="M 1259 4147 
L 1259 519 
L 2022 519 
Q 2988 519 3436 956 
Q 3884 1394 3884 2338 
Q 3884 3275 3436 3711 
Q 2988 4147 2022 4147 
L 1259 4147 
z
M 628 4666 
L 1925 4666 
Q 3281 4666 3915 4102 
Q 4550 3538 4550 2338 
Q 4550 1131 3912 565 
Q 3275 0 1925 0 
L 628 0 
L 628 4666 
z
" transform="scale(0.015625)"/>
       <path id="DejaVuSans-69" d="M 603 3500 
L 1178 3500 
L 1178 0 
L 603 0 
L 603 3500 
z
M 603 4863 
L 1178 4863 
L 1178 4134 
L 603 4134 
L 603 4863 
z
" transform="scale(0.015625)"/>
       <path id="DejaVuSans-70" d="M 1159 525 
L 1159 -1331 
L 581 -1331 
L 581 3500 
L 1159 3500 
L 1159 2969 
Q 1341 3281 1617 3432 
Q 1894 3584 2278 3584 
Q 2916 3584 3314 3078 
Q 3713 2572 3713 1747 
Q 3713 922 3314 415 
Q 2916 -91 2278 -91 
Q 1894 -91 1617 61 
Q 1341 213 1159 525 
z
M 3116 1747 
Q 3116 2381 2855 2742 
Q 2594 3103 2138 3103 
Q 1681 3103 1420 2742 
Q 1159 2381 1159 1747 
Q 1159 1113 1420 752 
Q 1681 391 2138 391 
Q 2594 391 2855 752 
Q 3116 1113 3116 1747 
z
" transform="scale(0.015625)"/>
       <path id="DejaVuSans-6c" d="M 603 4863 
L 1178 4863 
L 1178 0 
L 603 0 
L 603 4863 
z
" transform="scale(0.015625)"/>
       <path id="DejaVuSans-6f" d="M 1959 3097 
Q 1497 3097 1228 2736 
Q 959 2375 959 1747 
Q 959 1119 1226 758 
Q 1494 397 1959 397 
Q 2419 397 2687 759 
Q 2956 1122 2956 1747 
Q 2956 2369 2687 2733 
Q 2419 3097 1959 3097 
z
M 1959 3584 
Q 2709 3584 3137 3096 
Q 3566 2609 3566 1747 
Q 3566 888 3137 398 
Q 2709 -91 1959 -91 
Q 1206 -91 779 398 
Q 353 888 353 1747 
Q 353 2609 779 3096 
Q 1206 3584 1959 3584 
z
" transform="scale(0.015625)"/>
       <path id="DejaVuSans-64" d="M 2906 2969 
L 2906 4863 
L 3481 4863 
L 3481 0 
L 2906 0 
L 2906 525 
Q 2725 213 2448 61 
Q 2172 -91 1784 -91 
Q 1150 -91 751 415 
Q 353 922 353 1747 
Q 353 2572 751 3078 
Q 1150 3584 1784 3584 
Q 2172 3584 2448 3432 
Q 2725 3281 2906 2969 
z
M 947 1747 
Q 947 1113 1208 752 
Q 1469 391 1925 391 
Q 2381 391 2643 752 
Q 2906 1113 2906 1747 
Q 2906 2381 2643 2742 
Q 2381 3103 1925 3103 
Q 1469 3103 1208 2742 
Q 947 2381 947 1747 
z
" transform="scale(0.015625)"/>
       <path id="DejaVuSans-20" transform="scale(0.015625)"/>
       <path id="DejaVuSans-4e" d="M 628 4666 
L 1478 4666 
L 3547 763 
L 3547 4666 
L 4159 4666 
L 4159 0 
L 3309 0 
L 1241 3903 
L 1241 0 
L 628 0 
L 628 4666 
z
" transform="scale(0.015625)"/>
       <path id="DejaVuSans-Oblique-65" d="M 3078 2063 
Q 3088 2113 3092 2166 
Q 3097 2219 3097 2272 
Q 3097 2653 2873 2875 
Q 2650 3097 2266 3097 
Q 1838 3097 1509 2826 
Q 1181 2556 1013 2059 
L 3078 2063 
z
M 3578 1613 
L 903 1613 
Q 884 1494 878 1425 
Q 872 1356 872 1306 
Q 872 872 1139 634 
Q 1406 397 1894 397 
Q 2269 397 2603 481 
Q 2938 566 3225 728 
L 3116 159 
Q 2806 34 2476 -28 
Q 2147 -91 1806 -91 
Q 1078 -91 686 257 
Q 294 606 294 1247 
Q 294 1794 489 2264 
Q 684 2734 1063 3103 
Q 1306 3334 1642 3459 
Q 1978 3584 2356 3584 
Q 2950 3584 3301 3228 
Q 3653 2872 3653 2272 
Q 3653 2128 3634 1964 
Q 3616 1800 3578 1613 
z
" transform="scale(0.015625)"/>
      </defs>
      <use xlink:href="#DejaVuSans-44" transform="translate(0 0.015625)"/>
      <use xlink:href="#DejaVuSans-69" transform="translate(77.001953 0.015625)"/>
      <use xlink:href="#DejaVuSans-70" transform="translate(104.785156 0.015625)"/>
      <use xlink:href="#DejaVuSans-6c" transform="translate(168.261719 0.015625)"/>
      <use xlink:href="#DejaVuSans-6f" transform="translate(196.044922 0.015625)"/>
      <use xlink:href="#DejaVuSans-69" transform="translate(257.226562 0.015625)"/>
      <use xlink:href="#DejaVuSans-64" transform="translate(285.009766 0.015625)"/>
      <use xlink:href="#DejaVuSans-20" transform="translate(348.486328 0.015625)"/>
      <use xlink:href="#DejaVuSans-4e" transform="translate(380.273438 0.015625)"/>
      <use xlink:href="#DejaVuSans-Oblique-65" transform="translate(456.035156 -16.390625) scale(0.7)"/>
      <use xlink:href="#DejaVuSans-30" transform="translate(501.835938 0.015625)"/>
     </g>
    </g>
    <g id="text_6">
     <!-- 1e3 -->
     <g transform="translate(195.681875 221.452188) scale(0.1 -0.1)">
      <defs>
       <path id="DejaVuSans-31" d="M 794 531 
L 1825 531 
L 1825 4091 
L 703 3866 
L 703 4441 
L 1819 4666 
L 2450 4666 
L 2450 531 
L 3481 531 
L 3481 0 
L 794 0 
L 794 531 
z
" transform="scale(0.015625)"/>
       <path id="DejaVuSans-65" d="M 3597 1894 
L 3597 1613 
L 953 1613 
Q 991 1019 1311 708 
Q 1631 397 2203 397 
Q 2534 397 2845 478 
Q 3156 559 3463 722 
L 3463 178 
Q 3153 47 2828 -22 
Q 2503 -91 2169 -91 
Q 1331 -91 842 396 
Q 353 884 353 1716 
Q 353 2575 817 3079 
Q 1281 3584 2069 3584 
Q 2775 3584 3186 3129 
Q 3597 2675 3597 1894 
z
M 3022 2063 
Q 3016 2534 2758 2815 
Q 2500 3097 2075 3097 
Q 1594 3097 1305 2825 
Q 1016 2553 972 2059 
L 3022 2063 
z
" transform="scale(0.015625)"/>
       <path id="DejaVuSans-33" d="M 2597 2516 
Q 3050 2419 3304 2112 
Q 3559 1806 3559 1356 
Q 3559 666 3084 287 
Q 2609 -91 1734 -91 
Q 1441 -91 1130 -33 
Q 819 25 488 141 
L 488 750 
Q 750 597 1062 519 
Q 1375 441 1716 441 
Q 2309 441 2620 675 
Q 2931 909 2931 1356 
Q 2931 1769 2642 2001 
Q 2353 2234 1838 2234 
L 1294 2234 
L 1294 2753 
L 1863 2753 
Q 2328 2753 2575 2939 
Q 2822 3125 2822 3475 
Q 2822 3834 2567 4026 
Q 2313 4219 1838 4219 
Q 1578 4219 1281 4162 
Q 984 4106 628 3988 
L 628 4550 
Q 988 4650 1302 4700 
Q 1616 4750 1894 4750 
Q 2613 4750 3031 4423 
Q 3450 4097 3450 3541 
Q 3450 3153 3228 2886 
Q 3006 2619 2597 2516 
z
" transform="scale(0.015625)"/>
      </defs>
      <use xlink:href="#DejaVuSans-31"/>
      <use xlink:href="#DejaVuSans-65" x="63.623047"/>
      <use xlink:href="#DejaVuSans-33" x="125.146484"/>
     </g>
    </g>
   </g>
   <g id="matplotlib.axis_2">
    <g id="ytick_1">
     <g id="line2d_5">
      <defs>
       <path id="m8d06c46f91" d="M 0 0 
L -3.5 0 
" style="stroke: #000000; stroke-width: 0.8"/>
      </defs>
      <g>
       <use xlink:href="#m8d06c46f91" x="36" y="192.24" style="stroke: #000000; stroke-width: 0.8"/>
      </g>
     </g>
     <g id="text_7">
      <!-- 1.0 -->
      <g transform="translate(9.91625 196.799062) scale(0.12 -0.12)">
       <defs>
        <path id="DejaVuSans-2e" d="M 684 794 
L 1344 794 
L 1344 0 
L 684 0 
L 684 794 
z
" transform="scale(0.015625)"/>
       </defs>
       <use xlink:href="#DejaVuSans-31"/>
       <use xlink:href="#DejaVuSans-2e" x="63.623047"/>
       <use xlink:href="#DejaVuSans-30" x="95.410156"/>
      </g>
     </g>
    </g>
    <g id="ytick_2">
     <g id="line2d_6">
      <g>
       <use xlink:href="#m8d06c46f91" x="36" y="150.66" style="stroke: #000000; stroke-width: 0.8"/>
      </g>
     </g>
     <g id="text_8">
      <!-- 1.5 -->
      <g transform="translate(9.91625 155.219063) scale(0.12 -0.12)">
       <defs>
        <path id="DejaVuSans-35" d="M 691 4666 
L 3169 4666 
L 3169 4134 
L 1269 4134 
L 1269 2991 
Q 1406 3038 1543 3061 
Q 1681 3084 1819 3084 
Q 2600 3084 3056 2656 
Q 3513 2228 3513 1497 
Q 3513 744 3044 326 
Q 2575 -91 1722 -91 
Q 1428 -91 1123 -41 
Q 819 9 494 109 
L 494 744 
Q 775 591 1075 516 
Q 1375 441 1709 441 
Q 2250 441 2565 725 
Q 2881 1009 2881 1497 
Q 2881 1984 2565 2268 
Q 2250 2553 1709 2553 
Q 1456 2553 1204 2497 
Q 953 2441 691 2322 
L 691 4666 
z
" transform="scale(0.015625)"/>
       </defs>
       <use xlink:href="#DejaVuSans-31"/>
       <use xlink:href="#DejaVuSans-2e" x="63.623047"/>
       <use xlink:href="#DejaVuSans-35" x="95.410156"/>
      </g>
     </g>
    </g>
    <g id="ytick_3">
     <g id="line2d_7">
      <g>
       <use xlink:href="#m8d06c46f91" x="36" y="109.08" style="stroke: #000000; stroke-width: 0.8"/>
      </g>
     </g>
     <g id="text_9">
      <!-- 2.0 -->
      <g transform="translate(9.91625 113.639062) scale(0.12 -0.12)">
       <use xlink:href="#DejaVuSans-32"/>
       <use xlink:href="#DejaVuSans-2e" x="63.623047"/>
       <use xlink:href="#DejaVuSans-30" x="95.410156"/>
      </g>
     </g>
    </g>
    <g id="ytick_4">
     <g id="line2d_8">
      <g>
       <use xlink:href="#m8d06c46f91" x="36" y="67.5" style="stroke: #000000; stroke-width: 0.8"/>
      </g>
     </g>
     <g id="text_10">
      <!-- 2.5 -->
      <g transform="translate(9.91625 72.059063) scale(0.12 -0.12)">
       <use xlink:href="#DejaVuSans-32"/>
       <use xlink:href="#DejaVuSans-2e" x="63.623047"/>
       <use xlink:href="#DejaVuSans-35" x="95.410156"/>
      </g>
     </g>
    </g>
    <g id="ytick_5">
     <g id="line2d_9">
      <g>
       <use xlink:href="#m8d06c46f91" x="36" y="25.92" style="stroke: #000000; stroke-width: 0.8"/>
      </g>
     </g>
     <g id="text_11">
      <!-- 3.0 -->
      <g transform="translate(9.91625 30.479062) scale(0.12 -0.12)">
       <use xlink:href="#DejaVuSans-33"/>
       <use xlink:href="#DejaVuSans-2e" x="63.623047"/>
       <use xlink:href="#DejaVuSans-30" x="95.410156"/>
      </g>
     </g>
    </g>
    <g id="text_12">
     <!-- Recombination rate -->
     <g transform="translate(2.58875 187.6775) rotate(-90) scale(0.16 -0.16)">
      <defs>
       <path id="DejaVuSans-52" d="M 2841 2188 
Q 3044 2119 3236 1894 
Q 3428 1669 3622 1275 
L 4263 0 
L 3584 0 
L 2988 1197 
Q 2756 1666 2539 1819 
Q 2322 1972 1947 1972 
L 1259 1972 
L 1259 0 
L 628 0 
L 628 4666 
L 2053 4666 
Q 2853 4666 3247 4331 
Q 3641 3997 3641 3322 
Q 3641 2881 3436 2590 
Q 3231 2300 2841 2188 
z
M 1259 4147 
L 1259 2491 
L 2053 2491 
Q 2509 2491 2742 2702 
Q 2975 2913 2975 3322 
Q 2975 3731 2742 3939 
Q 2509 4147 2053 4147 
L 1259 4147 
z
" transform="scale(0.015625)"/>
       <path id="DejaVuSans-63" d="M 3122 3366 
L 3122 2828 
Q 2878 2963 2633 3030 
Q 2388 3097 2138 3097 
Q 1578 3097 1268 2742 
Q 959 2388 959 1747 
Q 959 1106 1268 751 
Q 1578 397 2138 397 
Q 2388 397 2633 464 
Q 2878 531 3122 666 
L 3122 134 
Q 2881 22 2623 -34 
Q 2366 -91 2075 -91 
Q 1284 -91 818 406 
Q 353 903 353 1747 
Q 353 2603 823 3093 
Q 1294 3584 2113 3584 
Q 2378 3584 2631 3529 
Q 2884 3475 3122 3366 
z
" transform="scale(0.015625)"/>
       <path id="DejaVuSans-6d" d="M 3328 2828 
Q 3544 3216 3844 3400 
Q 4144 3584 4550 3584 
Q 5097 3584 5394 3201 
Q 5691 2819 5691 2113 
L 5691 0 
L 5113 0 
L 5113 2094 
Q 5113 2597 4934 2840 
Q 4756 3084 4391 3084 
Q 3944 3084 3684 2787 
Q 3425 2491 3425 1978 
L 3425 0 
L 2847 0 
L 2847 2094 
Q 2847 2600 2669 2842 
Q 2491 3084 2119 3084 
Q 1678 3084 1418 2786 
Q 1159 2488 1159 1978 
L 1159 0 
L 581 0 
L 581 3500 
L 1159 3500 
L 1159 2956 
Q 1356 3278 1631 3431 
Q 1906 3584 2284 3584 
Q 2666 3584 2933 3390 
Q 3200 3197 3328 2828 
z
" transform="scale(0.015625)"/>
       <path id="DejaVuSans-62" d="M 3116 1747 
Q 3116 2381 2855 2742 
Q 2594 3103 2138 3103 
Q 1681 3103 1420 2742 
Q 1159 2381 1159 1747 
Q 1159 1113 1420 752 
Q 1681 391 2138 391 
Q 2594 391 2855 752 
Q 3116 1113 3116 1747 
z
M 1159 2969 
Q 1341 3281 1617 3432 
Q 1894 3584 2278 3584 
Q 2916 3584 3314 3078 
Q 3713 2572 3713 1747 
Q 3713 922 3314 415 
Q 2916 -91 2278 -91 
Q 1894 -91 1617 61 
Q 1341 213 1159 525 
L 1159 0 
L 581 0 
L 581 4863 
L 1159 4863 
L 1159 2969 
z
" transform="scale(0.015625)"/>
       <path id="DejaVuSans-6e" d="M 3513 2113 
L 3513 0 
L 2938 0 
L 2938 2094 
Q 2938 2591 2744 2837 
Q 2550 3084 2163 3084 
Q 1697 3084 1428 2787 
Q 1159 2491 1159 1978 
L 1159 0 
L 581 0 
L 581 3500 
L 1159 3500 
L 1159 2956 
Q 1366 3272 1645 3428 
Q 1925 3584 2291 3584 
Q 2894 3584 3203 3211 
Q 3513 2838 3513 2113 
z
" transform="scale(0.015625)"/>
       <path id="DejaVuSans-61" d="M 2194 1759 
Q 1497 1759 1228 1600 
Q 959 1441 959 1056 
Q 959 750 1161 570 
Q 1363 391 1709 391 
Q 2188 391 2477 730 
Q 2766 1069 2766 1631 
L 2766 1759 
L 2194 1759 
z
M 3341 1997 
L 3341 0 
L 2766 0 
L 2766 531 
Q 2569 213 2275 61 
Q 1981 -91 1556 -91 
Q 1019 -91 701 211 
Q 384 513 384 1019 
Q 384 1609 779 1909 
Q 1175 2209 1959 2209 
L 2766 2209 
L 2766 2266 
Q 2766 2663 2505 2880 
Q 2244 3097 1772 3097 
Q 1472 3097 1187 3025 
Q 903 2953 641 2809 
L 641 3341 
Q 956 3463 1253 3523 
Q 1550 3584 1831 3584 
Q 2591 3584 2966 3190 
Q 3341 2797 3341 1997 
z
" transform="scale(0.015625)"/>
       <path id="DejaVuSans-74" d="M 1172 4494 
L 1172 3500 
L 2356 3500 
L 2356 3053 
L 1172 3053 
L 1172 1153 
Q 1172 725 1289 603 
Q 1406 481 1766 481 
L 2356 481 
L 2356 0 
L 1766 0 
Q 1100 0 847 248 
Q 594 497 594 1153 
L 594 3053 
L 172 3053 
L 172 3500 
L 594 3500 
L 594 4494 
L 1172 4494 
z
" transform="scale(0.015625)"/>
       <path id="DejaVuSans-72" d="M 2631 2963 
Q 2534 3019 2420 3045 
Q 2306 3072 2169 3072 
Q 1681 3072 1420 2755 
Q 1159 2438 1159 1844 
L 1159 0 
L 581 0 
L 581 3500 
L 1159 3500 
L 1159 2956 
Q 1341 3275 1631 3429 
Q 1922 3584 2338 3584 
Q 2397 3584 2469 3576 
Q 2541 3569 2628 3553 
L 2631 2963 
z
" transform="scale(0.015625)"/>
      </defs>
      <use xlink:href="#DejaVuSans-52"/>
      <use xlink:href="#DejaVuSans-65" x="64.982422"/>
      <use xlink:href="#DejaVuSans-63" x="126.505859"/>
      <use xlink:href="#DejaVuSans-6f" x="181.486328"/>
      <use xlink:href="#DejaVuSans-6d" x="242.667969"/>
      <use xlink:href="#DejaVuSans-62" x="340.080078"/>
      <use xlink:href="#DejaVuSans-69" x="403.556641"/>
      <use xlink:href="#DejaVuSans-6e" x="431.339844"/>
      <use xlink:href="#DejaVuSans-61" x="494.71875"/>
      <use xlink:href="#DejaVuSans-74" x="555.998047"/>
      <use xlink:href="#DejaVuSans-69" x="595.207031"/>
      <use xlink:href="#DejaVuSans-6f" x="622.990234"/>
      <use xlink:href="#DejaVuSans-6e" x="684.171875"/>
      <use xlink:href="#DejaVuSans-20" x="747.550781"/>
      <use xlink:href="#DejaVuSans-72" x="779.337891"/>
      <use xlink:href="#DejaVuSans-61" x="820.451172"/>
      <use xlink:href="#DejaVuSans-74" x="881.730469"/>
      <use xlink:href="#DejaVuSans-65" x="920.939453"/>
     </g>
    </g>
    <g id="text_13">
     <!-- 1e9 -->
     <g transform="translate(36 22.92) scale(0.1 -0.1)">
      <defs>
       <path id="DejaVuSans-2212" d="M 678 2272 
L 4684 2272 
L 4684 1741 
L 678 1741 
L 678 2272 
z
" transform="scale(0.015625)"/>
       <path id="DejaVuSans-39" d="M 703 97 
L 703 672 
Q 941 559 1184 500 
Q 1428 441 1663 441 
Q 2288 441 2617 861 
Q 2947 1281 2994 2138 
Q 2813 1869 2534 1725 
Q 2256 1581 1919 1581 
Q 1219 1581 811 2004 
Q 403 2428 403 3163 
Q 403 3881 828 4315 
Q 1253 4750 1959 4750 
Q 2769 4750 3195 4129 
Q 3622 3509 3622 2328 
Q 3622 1225 3098 567 
Q 2575 -91 1691 -91 
Q 1453 -91 1209 -44 
Q 966 3 703 97 
z
M 1959 2075 
Q 2384 2075 2632 2365 
Q 2881 2656 2881 3163 
Q 2881 3666 2632 3958 
Q 2384 4250 1959 4250 
Q 1534 4250 1286 3958 
Q 1038 3666 1038 3163 
Q 1038 2656 1286 2365 
Q 1534 2075 1959 2075 
z
" transform="scale(0.015625)"/>
      </defs>
      <use xlink:href="#DejaVuSans-31"/>
      <use xlink:href="#DejaVuSans-65" x="63.623047"/>
      <use xlink:href="#DejaVuSans-2212" x="125.146484"/>
      <use xlink:href="#DejaVuSans-39" x="208.935547"/>
     </g>
    </g>
   </g>
   <g id="patch_3">
    <path d="M 36 192.24 
L 36 25.92 
" style="fill: none; stroke: #000000; stroke-width: 0.8; stroke-linejoin: miter; stroke-linecap: square"/>
   </g>
   <g id="patch_4">
    <path d="M 214.56 192.24 
L 214.56 25.92 
" style="fill: none; stroke: #000000; stroke-width: 0.8; stroke-linejoin: miter; stroke-linecap: square"/>
   </g>
   <g id="patch_5">
    <path d="M 36 192.24 
L 214.56 192.24 
" style="fill: none; stroke: #000000; stroke-width: 0.8; stroke-linejoin: miter; stroke-linecap: square"/>
   </g>
   <g id="patch_6">
    <path d="M 36 25.92 
L 214.56 25.92 
" style="fill: none; stroke: #000000; stroke-width: 0.8; stroke-linejoin: miter; stroke-linecap: square"/>
   </g>
   <g id="text_14">
    <!-- Ne0r-MSSMC-T-P2-S4 -->
    <g transform="translate(41.90125 10.92) scale(0.16 -0.16)">
     <defs>
      <path id="DejaVuSans-2d" d="M 313 2009 
L 1997 2009 
L 1997 1497 
L 313 1497 
L 313 2009 
z
" transform="scale(0.015625)"/>
      <path id="DejaVuSans-4d" d="M 628 4666 
L 1569 4666 
L 2759 1491 
L 3956 4666 
L 4897 4666 
L 4897 0 
L 4281 0 
L 4281 4097 
L 3078 897 
L 2444 897 
L 1241 4097 
L 1241 0 
L 628 0 
L 628 4666 
z
" transform="scale(0.015625)"/>
      <path id="DejaVuSans-53" d="M 3425 4513 
L 3425 3897 
Q 3066 4069 2747 4153 
Q 2428 4238 2131 4238 
Q 1616 4238 1336 4038 
Q 1056 3838 1056 3469 
Q 1056 3159 1242 3001 
Q 1428 2844 1947 2747 
L 2328 2669 
Q 3034 2534 3370 2195 
Q 3706 1856 3706 1288 
Q 3706 609 3251 259 
Q 2797 -91 1919 -91 
Q 1588 -91 1214 -16 
Q 841 59 441 206 
L 441 856 
Q 825 641 1194 531 
Q 1563 422 1919 422 
Q 2459 422 2753 634 
Q 3047 847 3047 1241 
Q 3047 1584 2836 1778 
Q 2625 1972 2144 2069 
L 1759 2144 
Q 1053 2284 737 2584 
Q 422 2884 422 3419 
Q 422 4038 858 4394 
Q 1294 4750 2059 4750 
Q 2388 4750 2728 4690 
Q 3069 4631 3425 4513 
z
" transform="scale(0.015625)"/>
      <path id="DejaVuSans-43" d="M 4122 4306 
L 4122 3641 
Q 3803 3938 3442 4084 
Q 3081 4231 2675 4231 
Q 1875 4231 1450 3742 
Q 1025 3253 1025 2328 
Q 1025 1406 1450 917 
Q 1875 428 2675 428 
Q 3081 428 3442 575 
Q 3803 722 4122 1019 
L 4122 359 
Q 3791 134 3420 21 
Q 3050 -91 2638 -91 
Q 1578 -91 968 557 
Q 359 1206 359 2328 
Q 359 3453 968 4101 
Q 1578 4750 2638 4750 
Q 3056 4750 3426 4639 
Q 3797 4528 4122 4306 
z
" transform="scale(0.015625)"/>
      <path id="DejaVuSans-54" d="M -19 4666 
L 3928 4666 
L 3928 4134 
L 2272 4134 
L 2272 0 
L 1638 0 
L 1638 4134 
L -19 4134 
L -19 4666 
z
" transform="scale(0.015625)"/>
      <path id="DejaVuSans-50" d="M 1259 4147 
L 1259 2394 
L 2053 2394 
Q 2494 2394 2734 2622 
Q 2975 2850 2975 3272 
Q 2975 3691 2734 3919 
Q 2494 4147 2053 4147 
L 1259 4147 
z
M 628 4666 
L 2053 4666 
Q 2838 4666 3239 4311 
Q 3641 3956 3641 3272 
Q 3641 2581 3239 2228 
Q 2838 1875 2053 1875 
L 1259 1875 
L 1259 0 
L 628 0 
L 628 4666 
z
" transform="scale(0.015625)"/>
     </defs>
     <use xlink:href="#DejaVuSans-4e"/>
     <use xlink:href="#DejaVuSans-65" x="74.804688"/>
     <use xlink:href="#DejaVuSans-30" x="136.328125"/>
     <use xlink:href="#DejaVuSans-72" x="199.951172"/>
     <use xlink:href="#DejaVuSans-2d" x="234.689453"/>
     <use xlink:href="#DejaVuSans-4d" x="270.773438"/>
     <use xlink:href="#DejaVuSans-53" x="357.052734"/>
     <use xlink:href="#DejaVuSans-53" x="420.529297"/>
     <use xlink:href="#DejaVuSans-4d" x="484.005859"/>
     <use xlink:href="#DejaVuSans-43" x="570.285156"/>
     <use xlink:href="#DejaVuSans-2d" x="640.109375"/>
     <use xlink:href="#DejaVuSans-54" x="667.068359"/>
     <use xlink:href="#DejaVuSans-2d" x="719.027344"/>
     <use xlink:href="#DejaVuSans-50" x="755.111328"/>
     <use xlink:href="#DejaVuSans-32" x="815.414062"/>
     <use xlink:href="#DejaVuSans-2d" x="879.037109"/>
     <use xlink:href="#DejaVuSans-53" x="915.121094"/>
     <use xlink:href="#DejaVuSans-34" x="978.597656"/>
    </g>
   </g>
  </g>
  <g id="axes_2">
   <g id="patch_7">
    <path d="M 225.72 192.24 
L 234.036 192.24 
L 234.036 25.92 
L 225.72 25.92 
z
" style="fill: #ffffff"/>
   </g>
   <g id="QuadMesh_1">
    <path d="M 225.72 192.24 
L 234.036 192.24 
L 234.036 182.456471 
L 225.72 182.456471 
L 225.72 192.24 
" clip-path="url(#p2bbec57a97)" style="fill: #440154"/>
    <path d="M 225.72 182.456471 
L 234.036 182.456471 
L 234.036 172.672941 
L 225.72 172.672941 
L 225.72 182.456471 
" clip-path="url(#p2bbec57a97)" style="fill: #470d60"/>
    <path d="M 225.72 172.672941 
L 234.036 172.672941 
L 234.036 162.889412 
L 225.72 162.889412 
L 225.72 172.672941 
" clip-path="url(#p2bbec57a97)" style="fill: #482374"/>
    <path d="M 225.72 162.889412 
L 234.036 162.889412 
L 234.036 153.105882 
L 225.72 153.105882 
L 225.72 162.889412 
" clip-path="url(#p2bbec57a97)" style="fill: #453781"/>
    <path d="M 225.72 153.105882 
L 234.036 153.105882 
L 234.036 143.322353 
L 225.72 143.322353 
L 225.72 153.105882 
" clip-path="url(#p2bbec57a97)" style="fill: #3e4989"/>
    <path d="M 225.72 143.322353 
L 234.036 143.322353 
L 234.036 133.538824 
L 225.72 133.538824 
L 225.72 143.322353 
" clip-path="url(#p2bbec57a97)" style="fill: #375b8d"/>
    <path d="M 225.72 133.538824 
L 234.036 133.538824 
L 234.036 123.755294 
L 225.72 123.755294 
L 225.72 133.538824 
" clip-path="url(#p2bbec57a97)" style="fill: #2f6b8e"/>
    <path d="M 225.72 123.755294 
L 234.036 123.755294 
L 234.036 113.971765 
L 225.72 113.971765 
L 225.72 123.755294 
" clip-path="url(#p2bbec57a97)" style="fill: #297a8e"/>
    <path d="M 225.72 113.971765 
L 234.036 113.971765 
L 234.036 104.188235 
L 225.72 104.188235 
L 225.72 113.971765 
" clip-path="url(#p2bbec57a97)" style="fill: #23898e"/>
    <path d="M 225.72 104.188235 
L 234.036 104.188235 
L 234.036 94.404706 
L 225.72 94.404706 
L 225.72 104.188235 
" clip-path="url(#p2bbec57a97)" style="fill: #1f988b"/>
    <path d="M 225.72 94.404706 
L 234.036 94.404706 
L 234.036 84.621176 
L 225.72 84.621176 
L 225.72 94.404706 
" clip-path="url(#p2bbec57a97)" style="fill: #22a785"/>
    <path d="M 225.72 84.621176 
L 234.036 84.621176 
L 234.036 74.837647 
L 225.72 74.837647 
L 225.72 84.621176 
" clip-path="url(#p2bbec57a97)" style="fill: #32b67a"/>
    <path d="M 225.72 74.837647 
L 234.036 74.837647 
L 234.036 65.054118 
L 225.72 65.054118 
L 225.72 74.837647 
" clip-path="url(#p2bbec57a97)" style="fill: #4ec36b"/>
    <path d="M 225.72 65.054118 
L 234.036 65.054118 
L 234.036 55.270588 
L 225.72 55.270588 
L 225.72 65.054118 
" clip-path="url(#p2bbec57a97)" style="fill: #70cf57"/>
    <path d="M 225.72 55.270588 
L 234.036 55.270588 
L 234.036 45.487059 
L 225.72 45.487059 
L 225.72 55.270588 
" clip-path="url(#p2bbec57a97)" style="fill: #98d83e"/>
    <path d="M 225.72 45.487059 
L 234.036 45.487059 
L 234.036 35.703529 
L 225.72 35.703529 
L 225.72 45.487059 
" clip-path="url(#p2bbec57a97)" style="fill: #c2df23"/>
    <path d="M 225.72 35.703529 
L 234.036 35.703529 
L 234.036 25.92 
L 225.72 25.92 
L 225.72 35.703529 
" clip-path="url(#p2bbec57a97)" style="fill: #ece51b"/>
   </g>
   <g id="matplotlib.axis_3"/>
   <g id="matplotlib.axis_4">
    <g id="ytick_6">
     <g id="line2d_10">
      <defs>
       <path id="m40787d8fe5" d="M 0 0 
L 3.5 0 
" style="stroke: #000000; stroke-width: 0.8"/>
      </defs>
      <g>
       <use xlink:href="#m40787d8fe5" x="234.036" y="182.456471" style="stroke: #000000; stroke-width: 0.8"/>
      </g>
     </g>
     <g id="text_15">
      <!-- $\mathdefault{2.40}$ -->
      <g transform="translate(241.036 186.255689) scale(0.1 -0.1)">
       <use xlink:href="#DejaVuSans-2212" transform="translate(0 0.78125)"/>
       <use xlink:href="#DejaVuSans-32" transform="translate(83.789062 0.78125)"/>
       <use xlink:href="#DejaVuSans-2e" transform="translate(147.412109 0.78125)"/>
       <use xlink:href="#DejaVuSans-34" transform="translate(179.199219 0.78125)"/>
       <use xlink:href="#DejaVuSans-30" transform="translate(242.822266 0.78125)"/>
      </g>
     </g>
    </g>
    <g id="ytick_7">
     <g id="line2d_11">
      <g>
       <use xlink:href="#m40787d8fe5" x="234.036" y="162.889412" style="stroke: #000000; stroke-width: 0.8"/>
      </g>
     </g>
     <g id="text_16">
      <!-- $\mathdefault{2.35}$ -->
      <g transform="translate(241.036 166.688631) scale(0.1 -0.1)">
       <use xlink:href="#DejaVuSans-2212" transform="translate(0 0.78125)"/>
       <use xlink:href="#DejaVuSans-32" transform="translate(83.789062 0.78125)"/>
       <use xlink:href="#DejaVuSans-2e" transform="translate(147.412109 0.78125)"/>
       <use xlink:href="#DejaVuSans-33" transform="translate(179.199219 0.78125)"/>
       <use xlink:href="#DejaVuSans-35" transform="translate(242.822266 0.78125)"/>
      </g>
     </g>
    </g>
    <g id="ytick_8">
     <g id="line2d_12">
      <g>
       <use xlink:href="#m40787d8fe5" x="234.036" y="143.322353" style="stroke: #000000; stroke-width: 0.8"/>
      </g>
     </g>
     <g id="text_17">
      <!-- $\mathdefault{2.30}$ -->
      <g transform="translate(241.036 147.121572) scale(0.1 -0.1)">
       <use xlink:href="#DejaVuSans-2212" transform="translate(0 0.78125)"/>
       <use xlink:href="#DejaVuSans-32" transform="translate(83.789062 0.78125)"/>
       <use xlink:href="#DejaVuSans-2e" transform="translate(147.412109 0.78125)"/>
       <use xlink:href="#DejaVuSans-33" transform="translate(179.199219 0.78125)"/>
       <use xlink:href="#DejaVuSans-30" transform="translate(242.822266 0.78125)"/>
      </g>
     </g>
    </g>
    <g id="ytick_9">
     <g id="line2d_13">
      <g>
       <use xlink:href="#m40787d8fe5" x="234.036" y="123.755294" style="stroke: #000000; stroke-width: 0.8"/>
      </g>
     </g>
     <g id="text_18">
      <!-- $\mathdefault{2.25}$ -->
      <g transform="translate(241.036 127.554513) scale(0.1 -0.1)">
       <use xlink:href="#DejaVuSans-2212" transform="translate(0 0.78125)"/>
       <use xlink:href="#DejaVuSans-32" transform="translate(83.789062 0.78125)"/>
       <use xlink:href="#DejaVuSans-2e" transform="translate(147.412109 0.78125)"/>
       <use xlink:href="#DejaVuSans-32" transform="translate(173.699219 0.78125)"/>
       <use xlink:href="#DejaVuSans-35" transform="translate(237.322266 0.78125)"/>
      </g>
     </g>
    </g>
    <g id="ytick_10">
     <g id="line2d_14">
      <g>
       <use xlink:href="#m40787d8fe5" x="234.036" y="104.188235" style="stroke: #000000; stroke-width: 0.8"/>
      </g>
     </g>
     <g id="text_19">
      <!-- $\mathdefault{2.20}$ -->
      <g transform="translate(241.036 107.987454) scale(0.1 -0.1)">
       <use xlink:href="#DejaVuSans-2212" transform="translate(0 0.78125)"/>
       <use xlink:href="#DejaVuSans-32" transform="translate(83.789062 0.78125)"/>
       <use xlink:href="#DejaVuSans-2e" transform="translate(147.412109 0.78125)"/>
       <use xlink:href="#DejaVuSans-32" transform="translate(173.699219 0.78125)"/>
       <use xlink:href="#DejaVuSans-30" transform="translate(237.322266 0.78125)"/>
      </g>
     </g>
    </g>
    <g id="ytick_11">
     <g id="line2d_15">
      <g>
       <use xlink:href="#m40787d8fe5" x="234.036" y="84.621176" style="stroke: #000000; stroke-width: 0.8"/>
      </g>
     </g>
     <g id="text_20">
      <!-- $\mathdefault{2.15}$ -->
      <g transform="translate(241.036 88.420395) scale(0.1 -0.1)">
       <use xlink:href="#DejaVuSans-2212" transform="translate(0 0.78125)"/>
       <use xlink:href="#DejaVuSans-32" transform="translate(83.789062 0.78125)"/>
       <use xlink:href="#DejaVuSans-2e" transform="translate(147.412109 0.78125)"/>
       <use xlink:href="#DejaVuSans-31" transform="translate(179.199219 0.78125)"/>
       <use xlink:href="#DejaVuSans-35" transform="translate(242.822266 0.78125)"/>
      </g>
     </g>
    </g>
    <g id="ytick_12">
     <g id="line2d_16">
      <g>
       <use xlink:href="#m40787d8fe5" x="234.036" y="65.054118" style="stroke: #000000; stroke-width: 0.8"/>
      </g>
     </g>
     <g id="text_21">
      <!-- $\mathdefault{2.10}$ -->
      <g transform="translate(241.036 68.853336) scale(0.1 -0.1)">
       <use xlink:href="#DejaVuSans-2212" transform="translate(0 0.78125)"/>
       <use xlink:href="#DejaVuSans-32" transform="translate(83.789062 0.78125)"/>
       <use xlink:href="#DejaVuSans-2e" transform="translate(147.412109 0.78125)"/>
       <use xlink:href="#DejaVuSans-31" transform="translate(179.199219 0.78125)"/>
       <use xlink:href="#DejaVuSans-30" transform="translate(242.822266 0.78125)"/>
      </g>
     </g>
    </g>
    <g id="ytick_13">
     <g id="line2d_17">
      <g>
       <use xlink:href="#m40787d8fe5" x="234.036" y="45.487059" style="stroke: #000000; stroke-width: 0.8"/>
      </g>
     </g>
     <g id="text_22">
      <!-- $\mathdefault{2.05}$ -->
      <g transform="translate(241.036 49.286278) scale(0.1 -0.1)">
       <use xlink:href="#DejaVuSans-2212" transform="translate(0 0.78125)"/>
       <use xlink:href="#DejaVuSans-32" transform="translate(83.789062 0.78125)"/>
       <use xlink:href="#DejaVuSans-2e" transform="translate(147.412109 0.78125)"/>
       <use xlink:href="#DejaVuSans-30" transform="translate(179.199219 0.78125)"/>
       <use xlink:href="#DejaVuSans-35" transform="translate(242.822266 0.78125)"/>
      </g>
     </g>
    </g>
    <g id="ytick_14">
     <g id="line2d_18">
      <g>
       <use xlink:href="#m40787d8fe5" x="234.036" y="25.92" style="stroke: #000000; stroke-width: 0.8"/>
      </g>
     </g>
     <g id="text_23">
      <!-- $\mathdefault{2.00}$ -->
      <g transform="translate(241.036 29.719219) scale(0.1 -0.1)">
       <use xlink:href="#DejaVuSans-2212" transform="translate(0 0.78125)"/>
       <use xlink:href="#DejaVuSans-32" transform="translate(83.789062 0.78125)"/>
       <use xlink:href="#DejaVuSans-2e" transform="translate(147.412109 0.78125)"/>
       <use xlink:href="#DejaVuSans-30" transform="translate(179.199219 0.78125)"/>
       <use xlink:href="#DejaVuSans-30" transform="translate(242.822266 0.78125)"/>
      </g>
     </g>
    </g>
    <g id="text_24">
     <!-- log likelihood -->
     <g transform="translate(284.854125 148.704375) rotate(-90) scale(0.12 -0.12)">
      <defs>
       <path id="DejaVuSans-67" d="M 2906 1791 
Q 2906 2416 2648 2759 
Q 2391 3103 1925 3103 
Q 1463 3103 1205 2759 
Q 947 2416 947 1791 
Q 947 1169 1205 825 
Q 1463 481 1925 481 
Q 2391 481 2648 825 
Q 2906 1169 2906 1791 
z
M 3481 434 
Q 3481 -459 3084 -895 
Q 2688 -1331 1869 -1331 
Q 1566 -1331 1297 -1286 
Q 1028 -1241 775 -1147 
L 775 -588 
Q 1028 -725 1275 -790 
Q 1522 -856 1778 -856 
Q 2344 -856 2625 -561 
Q 2906 -266 2906 331 
L 2906 616 
Q 2728 306 2450 153 
Q 2172 0 1784 0 
Q 1141 0 747 490 
Q 353 981 353 1791 
Q 353 2603 747 3093 
Q 1141 3584 1784 3584 
Q 2172 3584 2450 3431 
Q 2728 3278 2906 2969 
L 2906 3500 
L 3481 3500 
L 3481 434 
z
" transform="scale(0.015625)"/>
       <path id="DejaVuSans-6b" d="M 581 4863 
L 1159 4863 
L 1159 1991 
L 2875 3500 
L 3609 3500 
L 1753 1863 
L 3688 0 
L 2938 0 
L 1159 1709 
L 1159 0 
L 581 0 
L 581 4863 
z
" transform="scale(0.015625)"/>
       <path id="DejaVuSans-68" d="M 3513 2113 
L 3513 0 
L 2938 0 
L 2938 2094 
Q 2938 2591 2744 2837 
Q 2550 3084 2163 3084 
Q 1697 3084 1428 2787 
Q 1159 2491 1159 1978 
L 1159 0 
L 581 0 
L 581 4863 
L 1159 4863 
L 1159 2956 
Q 1366 3272 1645 3428 
Q 1925 3584 2291 3584 
Q 2894 3584 3203 3211 
Q 3513 2838 3513 2113 
z
" transform="scale(0.015625)"/>
      </defs>
      <use xlink:href="#DejaVuSans-6c"/>
      <use xlink:href="#DejaVuSans-6f" x="27.783203"/>
      <use xlink:href="#DejaVuSans-67" x="88.964844"/>
      <use xlink:href="#DejaVuSans-20" x="152.441406"/>
      <use xlink:href="#DejaVuSans-6c" x="184.228516"/>
      <use xlink:href="#DejaVuSans-69" x="212.011719"/>
      <use xlink:href="#DejaVuSans-6b" x="239.794922"/>
      <use xlink:href="#DejaVuSans-65" x="294.080078"/>
      <use xlink:href="#DejaVuSans-6c" x="355.603516"/>
      <use xlink:href="#DejaVuSans-69" x="383.386719"/>
      <use xlink:href="#DejaVuSans-68" x="411.169922"/>
      <use xlink:href="#DejaVuSans-6f" x="474.548828"/>
      <use xlink:href="#DejaVuSans-6f" x="535.730469"/>
      <use xlink:href="#DejaVuSans-64" x="596.912109"/>
     </g>
    </g>
   </g>
   <g id="LineCollection_1"/>
   <g id="patch_8">
    <path d="M 225.72 192.24 
L 229.878 192.24 
L 234.036 192.24 
L 234.036 25.92 
L 229.878 25.92 
L 225.72 25.92 
L 225.72 192.24 
z
" style="fill: none; stroke: #000000; stroke-width: 0.8; stroke-linejoin: miter; stroke-linecap: square"/>
   </g>
  </g>
 </g>
 <defs>
  <clipPath id="p267cd6a1b8">
   <rect x="36" y="25.92" width="178.56" height="166.32"/>
  </clipPath>
  <clipPath id="p2bbec57a97">
   <rect x="225.72" y="25.92" width="8.316" height="166.32"/>
  </clipPath>
 </defs>
</svg>
