<?xml version="1.0" encoding="utf-8" standalone="no"?>
<!DOCTYPE svg PUBLIC "-//W3C//DTD SVG 1.1//EN"
  "http://www.w3.org/Graphics/SVG/1.1/DTD/svg11.dtd">
<svg xmlns:xlink="http://www.w3.org/1999/xlink" width="288pt" height="216pt" viewBox="0 0 288 216" xmlns="http://www.w3.org/2000/svg" version="1.1">
 <metadata>
  <rdf:RDF xmlns:dc="http://purl.org/dc/elements/1.1/" xmlns:cc="http://creativecommons.org/ns#" xmlns:rdf="http://www.w3.org/1999/02/22-rdf-syntax-ns#">
   <cc:Work>
    <dc:type rdf:resource="http://purl.org/dc/dcmitype/StillImage"/>
    <dc:date>2023-08-07T19:51:10.981384</dc:date>
    <dc:format>image/svg+xml</dc:format>
    <dc:creator>
     <cc:Agent>
      <dc:title>Matplotlib v3.7.1, https://matplotlib.org/</dc:title>
     </cc:Agent>
    </dc:creator>
   </cc:Work>
  </rdf:RDF>
 </metadata>
 <defs>
  <style type="text/css">*{stroke-linejoin: round; stroke-linecap: butt}</style>
 </defs>
 <g id="figure_1">
  <g id="patch_1">
   <path d="M 0 216 
L 288 216 
L 288 0 
L 0 0 
z
" style="fill: #ffffff"/>
  </g>
  <g id="axes_1">
   <g id="patch_2">
    <path d="M 36 192.24 
L 214.56 192.24 
L 214.56 25.92 
L 36 25.92 
z
" style="fill: #ffffff"/>
   </g>
   <g id="PathCollection_1">
    <path d="M 36 186.696 
L 36 181.152 
L 36 175.608 
L 36 170.064 
L 36 164.52 
L 36 158.976 
L 36 153.432 
L 36 152.822792 
L 41.952 153.054674 
L 47.904 153.145455 
L 53.856 153.192897 
L 59.808 153.221653 
L 65.76 153.240766 
L 71.712 153.254298 
L 77.664 153.264334 
L 83.616 153.272046 
L 89.568 153.30014 
L 93.21403 153.432 
L 95.52 155.375585 
L 101.472 156.970187 
L 107.424 157.534754 
L 113.376 157.823444 
L 119.328 157.998648 
L 125.28 158.116224 
L 131.232 158.200548 
L 137.184 158.263951 
L 143.136 158.313342 
L 149.088 158.352892 
L 155.04 158.385266 
L 160.992 158.412249 
L 166.944 158.435079 
L 172.896 158.454643 
L 178.848 158.471592 
L 184.8 158.486415 
L 190.752 158.499488 
L 196.704 158.511101 
L 202.656 158.521485 
L 208.608 158.530825 
L 214.56 158.539269 
L 214.56 158.976 
L 214.56 164.52 
L 214.56 170.064 
L 214.56 175.608 
L 214.56 181.152 
L 214.56 186.696 
L 214.56 192.24 
L 208.608 192.24 
L 202.656 192.24 
L 196.704 192.24 
L 190.752 192.24 
L 184.8 192.24 
L 178.848 192.24 
L 172.896 192.24 
L 166.944 192.24 
L 160.992 192.24 
L 155.04 192.24 
L 149.088 192.24 
L 143.136 192.24 
L 137.184 192.24 
L 131.232 192.24 
L 125.28 192.24 
L 119.328 192.24 
L 113.376 192.24 
L 107.424 192.24 
L 101.472 192.24 
L 95.52 192.24 
L 89.568 192.24 
L 83.616 192.24 
L 77.664 192.24 
L 71.712 192.24 
L 65.76 192.24 
L 59.808 192.24 
L 53.856 192.24 
L 47.904 192.24 
L 41.952 192.24 
L 36 192.24 
z
" clip-path="url(#p11902ef4e5)" style="fill: #440154"/>
    <path d="M 40.742999 53.64 
L 36 49.222126 
L 36 48.096 
L 36 42.552 
L 36 37.008 
L 36 31.464 
L 36 25.92 
L 41.952 25.92 
L 47.904 25.92 
L 53.856 25.92 
L 59.808 25.92 
L 65.76 25.92 
L 71.712 25.92 
L 77.664 25.92 
L 83.616 25.92 
L 89.568 25.92 
L 95.52 25.92 
L 101.472 25.92 
L 107.424 25.92 
L 113.376 25.92 
L 119.328 25.92 
L 125.28 25.92 
L 131.232 25.92 
L 137.184 25.92 
L 143.136 25.92 
L 149.088 25.92 
L 155.04 25.92 
L 160.992 25.92 
L 166.944 25.92 
L 172.896 25.92 
L 178.848 25.92 
L 184.8 25.92 
L 190.752 25.92 
L 196.704 25.92 
L 202.656 25.92 
L 208.608 25.92 
L 214.56 25.92 
L 214.56 31.464 
L 214.56 37.008 
L 214.56 42.552 
L 214.56 48.096 
L 214.56 53.64 
L 214.56 59.184 
L 214.56 60.20458 
L 208.608 60.120282 
L 202.656 60.045453 
L 196.704 59.978585 
L 190.752 59.918476 
L 184.8 59.864156 
L 178.848 59.81483 
L 172.896 59.769845 
L 166.944 59.728656 
L 160.992 59.690807 
L 155.04 59.655914 
L 149.088 59.623649 
L 143.136 59.593732 
L 137.184 59.565924 
L 131.232 59.540016 
L 125.28 59.515829 
L 119.328 59.493208 
L 113.376 59.472016 
L 107.424 59.452136 
L 101.472 59.433465 
L 95.52 59.415916 
L 89.568 59.383724 
L 87.092826 59.184 
L 83.616 56.051952 
L 77.664 54.811158 
L 71.712 54.388713 
L 65.76 54.176442 
L 59.808 54.04931 
L 53.856 53.965186 
L 47.904 53.905919 
L 41.952 53.862384 
z
" clip-path="url(#p11902ef4e5)" style="fill: #440154"/>
   </g>
   <g id="PathCollection_2">
    <path d="M 36 147.888 
L 36 147.669911 
L 37.385401 147.888 
L 41.952 149.507028 
L 47.904 150.451342 
L 53.856 150.944836 
L 59.808 151.243961 
L 65.76 151.442767 
L 71.712 151.583532 
L 77.664 151.687928 
L 83.616 151.768145 
L 89.568 151.84763 
L 95.52 152.055154 
L 101.472 152.239268 
L 107.424 152.403576 
L 113.376 152.551009 
L 119.328 152.683962 
L 125.28 152.804415 
L 131.232 152.91401 
L 137.184 153.014119 
L 143.136 153.105898 
L 149.088 153.190328 
L 155.04 153.268241 
L 160.992 153.340352 
L 166.944 153.407276 
L 169.310016 153.432 
L 172.896 153.552805 
L 178.848 153.72911 
L 184.8 153.883304 
L 190.752 154.019285 
L 196.704 154.140086 
L 202.656 154.248104 
L 208.608 154.345258 
L 214.56 154.4331 
L 214.56 158.539269 
L 208.608 158.530825 
L 202.656 158.521485 
L 196.704 158.511101 
L 190.752 158.499488 
L 184.8 158.486415 
L 178.848 158.471592 
L 172.896 158.454643 
L 166.944 158.435079 
L 160.992 158.412249 
L 155.04 158.385266 
L 149.088 158.352892 
L 143.136 158.313342 
L 137.184 158.263951 
L 131.232 158.200548 
L 125.28 158.116224 
L 119.328 157.998648 
L 113.376 157.823444 
L 107.424 157.534754 
L 101.472 156.970187 
L 95.52 155.375585 
L 93.21403 153.432 
L 89.568 153.30014 
L 83.616 153.272046 
L 77.664 153.264334 
L 71.712 153.254298 
L 65.76 153.240766 
L 59.808 153.221653 
L 53.856 153.192897 
L 47.904 153.145455 
L 41.952 153.054674 
L 36 152.822792 
z
" clip-path="url(#p11902ef4e5)" style="fill: #471063"/>
    <path d="M 36 53.64 
L 36 49.222126 
L 40.742999 53.64 
L 41.952 53.862384 
L 47.904 53.905919 
L 53.856 53.965186 
L 59.808 54.04931 
L 65.76 54.176442 
L 71.712 54.388713 
L 77.664 54.811158 
L 83.616 56.051952 
L 87.092826 59.184 
L 89.568 59.383724 
L 95.52 59.415916 
L 101.472 59.433465 
L 107.424 59.452136 
L 113.376 59.472016 
L 119.328 59.493208 
L 125.28 59.515829 
L 131.232 59.540016 
L 137.184 59.565924 
L 143.136 59.593732 
L 149.088 59.623649 
L 155.04 59.655914 
L 160.992 59.690807 
L 166.944 59.728656 
L 172.896 59.769845 
L 178.848 59.81483 
L 184.8 59.864156 
L 190.752 59.918476 
L 196.704 59.978585 
L 202.656 60.045453 
L 208.608 60.120282 
L 214.56 60.20458 
L 214.56 64.728 
L 214.56 65.812476 
L 208.608 65.707511 
L 202.656 65.596722 
L 196.704 65.479615 
L 190.752 65.35564 
L 184.8 65.224182 
L 178.848 65.084552 
L 172.896 64.935975 
L 166.944 64.777574 
L 165.196652 64.728 
L 160.992 64.455845 
L 155.04 64.092884 
L 149.088 63.75726 
L 143.136 63.446064 
L 137.184 63.156797 
L 131.232 62.887301 
L 125.28 62.635708 
L 119.328 62.400398 
L 113.376 62.17996 
L 107.424 61.973167 
L 101.472 61.778955 
L 95.52 61.596406 
L 89.568 61.415012 
L 83.616 60.950208 
L 77.664 60.431791 
L 71.712 59.851341 
L 65.76 59.199182 
L 65.635193 59.184 
L 59.808 57.897672 
L 53.856 57.022605 
L 47.904 56.406103 
L 41.952 55.953252 
L 36 54.887755 
z
" clip-path="url(#p11902ef4e5)" style="fill: #471063"/>
   </g>
   <g id="PathCollection_3">
    <path d="M 37.385401 147.888 
L 36 147.669911 
L 36 146.094704 
L 41.952 147.015298 
L 47.904 147.808746 
L 48.611577 147.888 
L 53.856 148.696775 
L 59.808 149.266268 
L 65.76 149.644768 
L 71.712 149.912766 
L 77.664 150.111522 
L 83.616 150.264245 
L 89.568 150.395121 
L 95.52 150.59444 
L 101.472 150.771082 
L 107.424 150.928561 
L 113.376 151.06973 
L 119.328 151.196923 
L 125.28 151.312059 
L 131.232 151.416734 
L 137.184 151.512278 
L 143.136 151.599812 
L 149.088 151.680282 
L 155.04 151.754496 
L 160.992 151.823142 
L 166.944 151.886816 
L 172.896 151.946031 
L 178.848 152.001232 
L 184.8 152.05281 
L 190.752 152.101105 
L 196.704 152.146416 
L 202.656 152.18901 
L 208.608 152.229122 
L 214.56 152.266959 
L 214.56 153.432 
L 214.56 154.4331 
L 208.608 154.345258 
L 202.656 154.248104 
L 196.704 154.140086 
L 190.752 154.019285 
L 184.8 153.883304 
L 178.848 153.72911 
L 172.896 153.552805 
L 169.310016 153.432 
L 166.944 153.407276 
L 160.992 153.340352 
L 155.04 153.268241 
L 149.088 153.190328 
L 143.136 153.105898 
L 137.184 153.014119 
L 131.232 152.91401 
L 125.28 152.804415 
L 119.328 152.683962 
L 113.376 152.551009 
L 107.424 152.403576 
L 101.472 152.239268 
L 95.52 152.055154 
L 89.568 151.84763 
L 83.616 151.768145 
L 77.664 151.687928 
L 71.712 151.583532 
L 65.76 151.442767 
L 59.808 151.243961 
L 53.856 150.944836 
L 47.904 150.451342 
L 41.952 149.507028 
z
" clip-path="url(#p11902ef4e5)" style="fill: #482677"/>
    <path d="M 41.952 55.953252 
L 47.904 56.406103 
L 53.856 57.022605 
L 59.808 57.897672 
L 65.635193 59.184 
L 65.76 59.199182 
L 71.712 59.851341 
L 77.664 60.431791 
L 83.616 60.950208 
L 89.568 61.415012 
L 95.52 61.596406 
L 101.472 61.778955 
L 107.424 61.973167 
L 113.376 62.17996 
L 119.328 62.400398 
L 125.28 62.635708 
L 131.232 62.887301 
L 137.184 63.156797 
L 143.136 63.446064 
L 149.088 63.75726 
L 155.04 64.092884 
L 160.992 64.455845 
L 165.196652 64.728 
L 166.944 64.777574 
L 172.896 64.935975 
L 178.848 65.084552 
L 184.8 65.224182 
L 190.752 65.35564 
L 196.704 65.479615 
L 202.656 65.596722 
L 208.608 65.707511 
L 214.56 65.812476 
L 214.56 67.864106 
L 208.608 67.762831 
L 202.656 67.65595 
L 196.704 67.542991 
L 190.752 67.423424 
L 184.8 67.29666 
L 178.848 67.162039 
L 172.896 67.018816 
L 166.944 66.866154 
L 160.992 66.703104 
L 155.04 66.528589 
L 149.088 66.341382 
L 143.136 66.140078 
L 137.184 65.923064 
L 131.232 65.688482 
L 125.28 65.434179 
L 119.328 65.157652 
L 113.376 64.855981 
L 111.060537 64.728 
L 107.424 64.494198 
L 101.472 64.124445 
L 95.52 63.776897 
L 89.568 63.446301 
L 83.616 62.999443 
L 77.664 62.501518 
L 71.712 61.944644 
L 65.76 61.319832 
L 59.808 60.617111 
L 53.856 59.825921 
L 49.539881 59.184 
L 47.904 58.906288 
L 41.952 58.044121 
L 36 57.028928 
L 36 54.887755 
z
" clip-path="url(#p11902ef4e5)" style="fill: #482677"/>
   </g>
   <g id="PathCollection_4">
    <path d="M 41.952 145.409983 
L 47.904 146.175975 
L 53.856 146.826773 
L 59.808 147.378852 
L 65.76 147.84902 
L 66.341273 147.888 
L 71.712 148.242 
L 77.664 148.535116 
L 83.616 148.760344 
L 89.568 148.942611 
L 95.52 149.133727 
L 101.472 149.302896 
L 107.424 149.453546 
L 113.376 149.588452 
L 119.328 149.709883 
L 125.28 149.819702 
L 131.232 149.919457 
L 137.184 150.010437 
L 143.136 150.093725 
L 149.088 150.170237 
L 155.04 150.240751 
L 160.992 150.305933 
L 166.944 150.366357 
L 172.896 150.422515 
L 178.848 150.474839 
L 184.8 150.523701 
L 190.752 150.56943 
L 196.704 150.612315 
L 202.656 150.652608 
L 208.608 150.690536 
L 214.56 150.726298 
L 214.56 152.266959 
L 208.608 152.229122 
L 202.656 152.18901 
L 196.704 152.146416 
L 190.752 152.101105 
L 184.8 152.05281 
L 178.848 152.001232 
L 172.896 151.946031 
L 166.944 151.886816 
L 160.992 151.823142 
L 155.04 151.754496 
L 149.088 151.680282 
L 143.136 151.599812 
L 137.184 151.512278 
L 131.232 151.416734 
L 125.28 151.312059 
L 119.328 151.196923 
L 113.376 151.06973 
L 107.424 150.928561 
L 101.472 150.771082 
L 95.52 150.59444 
L 89.568 150.395121 
L 83.616 150.264245 
L 77.664 150.111522 
L 71.712 149.912766 
L 65.76 149.644768 
L 59.808 149.266268 
L 53.856 148.696775 
L 48.611577 147.888 
L 47.904 147.808746 
L 41.952 147.015298 
L 36 146.094704 
L 36 144.519496 
z
" clip-path="url(#p11902ef4e5)" style="fill: #443b84"/>
    <path d="M 36.083751 59.184 
L 36 59.170101 
L 36 57.028928 
L 41.952 58.044121 
L 47.904 58.906288 
L 49.539881 59.184 
L 53.856 59.825921 
L 59.808 60.617111 
L 65.76 61.319832 
L 71.712 61.944644 
L 77.664 62.501518 
L 83.616 62.999443 
L 89.568 63.446301 
L 95.52 63.776897 
L 101.472 64.124445 
L 107.424 64.494198 
L 111.060537 64.728 
L 113.376 64.855981 
L 119.328 65.157652 
L 125.28 65.434179 
L 131.232 65.688482 
L 137.184 65.923064 
L 143.136 66.140078 
L 149.088 66.341382 
L 155.04 66.528589 
L 160.992 66.703104 
L 166.944 66.866154 
L 172.896 67.018816 
L 178.848 67.162039 
L 184.8 67.29666 
L 190.752 67.423424 
L 196.704 67.542991 
L 202.656 67.65595 
L 208.608 67.762831 
L 214.56 67.864106 
L 214.56 69.915736 
L 208.608 69.818151 
L 202.656 69.715179 
L 196.704 69.606367 
L 190.752 69.491208 
L 184.8 69.369138 
L 178.848 69.239525 
L 172.896 69.101658 
L 166.944 68.954735 
L 160.992 68.79785 
L 155.04 68.629975 
L 149.088 68.449938 
L 143.136 68.256402 
L 137.184 68.047829 
L 131.232 67.822451 
L 125.28 67.578221 
L 119.328 67.312764 
L 113.376 67.023311 
L 107.424 66.706623 
L 101.472 66.358899 
L 95.52 65.975668 
L 89.568 65.551661 
L 83.616 65.080674 
L 79.60518 64.728 
L 77.664 64.571244 
L 71.712 64.037948 
L 65.76 63.440482 
L 59.808 62.76975 
L 53.856 62.016291 
L 47.904 61.170932 
L 41.952 60.225016 
z
" clip-path="url(#p11902ef4e5)" style="fill: #443b84"/>
   </g>
   <g id="PathCollection_5">
    <path d="M 41.952 143.804668 
L 47.904 144.543204 
L 53.856 145.169214 
L 59.808 145.699012 
L 65.76 146.14917 
L 71.712 146.534134 
L 77.664 146.86578 
L 83.616 147.153642 
L 89.568 147.405325 
L 95.52 147.626894 
L 101.472 147.823208 
L 103.683826 147.888 
L 107.424 147.978531 
L 113.376 148.107174 
L 119.328 148.222843 
L 125.28 148.327346 
L 131.232 148.422181 
L 137.184 148.508596 
L 143.136 148.587638 
L 149.088 148.660191 
L 155.04 148.727006 
L 160.992 148.788724 
L 166.944 148.845897 
L 172.896 148.898999 
L 178.848 148.948445 
L 184.8 148.994592 
L 190.752 149.037756 
L 196.704 149.078213 
L 202.656 149.116206 
L 208.608 149.15195 
L 214.56 149.185638 
L 214.56 150.726298 
L 208.608 150.690536 
L 202.656 150.652608 
L 196.704 150.612315 
L 190.752 150.56943 
L 184.8 150.523701 
L 178.848 150.474839 
L 172.896 150.422515 
L 166.944 150.366357 
L 160.992 150.305933 
L 155.04 150.240751 
L 149.088 150.170237 
L 143.136 150.093725 
L 137.184 150.010437 
L 131.232 149.919457 
L 125.28 149.819702 
L 119.328 149.709883 
L 113.376 149.588452 
L 107.424 149.453546 
L 101.472 149.302896 
L 95.52 149.133727 
L 89.568 148.942611 
L 83.616 148.760344 
L 77.664 148.535116 
L 71.712 148.242 
L 66.341273 147.888 
L 65.76 147.84902 
L 59.808 147.378852 
L 53.856 146.826773 
L 47.904 146.175975 
L 41.952 145.409983 
L 36 144.519496 
L 36 142.944289 
z
" clip-path="url(#p11902ef4e5)" style="fill: #3c4f8a"/>
    <path d="M 36 59.184 
L 36 59.170101 
L 36.083751 59.184 
L 41.952 60.225016 
L 47.904 61.170932 
L 53.856 62.016291 
L 59.808 62.76975 
L 65.76 63.440482 
L 71.712 64.037948 
L 77.664 64.571244 
L 79.60518 64.728 
L 83.616 65.080674 
L 89.568 65.551661 
L 95.52 65.975668 
L 101.472 66.358899 
L 107.424 66.706623 
L 113.376 67.023311 
L 119.328 67.312764 
L 125.28 67.578221 
L 131.232 67.822451 
L 137.184 68.047829 
L 143.136 68.256402 
L 149.088 68.449938 
L 155.04 68.629975 
L 160.992 68.79785 
L 166.944 68.954735 
L 172.896 69.101658 
L 178.848 69.239525 
L 184.8 69.369138 
L 190.752 69.491208 
L 196.704 69.606367 
L 202.656 69.715179 
L 208.608 69.818151 
L 214.56 69.915736 
L 214.56 70.272 
L 214.56 72.147006 
L 208.608 72.043501 
L 202.656 71.934256 
L 196.704 71.818786 
L 190.752 71.696551 
L 184.8 71.566943 
L 178.848 71.429287 
L 172.896 71.282817 
L 166.944 71.126675 
L 160.992 70.959885 
L 155.04 70.781343 
L 149.088 70.589786 
L 143.136 70.383772 
L 140.134451 70.272 
L 137.184 70.172594 
L 131.232 69.95642 
L 125.28 69.722264 
L 119.328 69.467876 
L 113.376 69.190641 
L 107.424 68.887502 
L 101.472 68.554882 
L 95.52 68.188582 
L 89.568 67.783673 
L 83.616 67.334375 
L 77.664 66.833941 
L 71.712 66.274581 
L 65.76 65.647456 
L 59.808 64.942865 
L 58.170926 64.728 
L 53.856 64.20666 
L 47.904 63.406143 
L 41.952 62.513817 
L 36 61.521648 
z
" clip-path="url(#p11902ef4e5)" style="fill: #3c4f8a"/>
   </g>
   <g id="PathCollection_6">
    <path d="M 36 142.344 
L 36 141.162396 
L 41.952 142.167974 
L 43.179185 142.344 
L 47.904 142.910432 
L 53.856 143.511654 
L 59.808 144.019171 
L 65.76 144.44932 
L 71.712 144.816296 
L 77.664 145.131731 
L 83.616 145.404943 
L 89.568 145.643341 
L 95.52 145.852824 
L 101.472 146.038104 
L 107.424 146.202973 
L 113.376 146.350502 
L 119.328 146.483198 
L 125.28 146.603124 
L 131.232 146.711984 
L 137.184 146.811204 
L 143.136 146.901979 
L 149.088 146.985319 
L 155.04 147.062081 
L 160.992 147.133 
L 166.944 147.198706 
L 172.896 147.259742 
L 178.848 147.316582 
L 184.8 147.369637 
L 190.752 147.419267 
L 196.704 147.465788 
L 202.656 147.50948 
L 208.608 147.55059 
L 214.56 147.589338 
L 214.56 147.888 
L 214.56 149.185638 
L 208.608 149.15195 
L 202.656 149.116206 
L 196.704 149.078213 
L 190.752 149.037756 
L 184.8 148.994592 
L 178.848 148.948445 
L 172.896 148.898999 
L 166.944 148.845897 
L 160.992 148.788724 
L 155.04 148.727006 
L 149.088 148.660191 
L 143.136 148.587638 
L 137.184 148.508596 
L 131.232 148.422181 
L 125.28 148.327346 
L 119.328 148.222843 
L 113.376 148.107174 
L 107.424 147.978531 
L 103.683826 147.888 
L 101.472 147.823208 
L 95.52 147.626894 
L 89.568 147.405325 
L 83.616 147.153642 
L 77.664 146.86578 
L 71.712 146.534134 
L 65.76 146.14917 
L 59.808 145.699012 
L 53.856 145.169214 
L 47.904 144.543204 
L 41.952 143.804668 
L 36 142.944289 
z
" clip-path="url(#p11902ef4e5)" style="fill: #34618d"/>
    <path d="M 41.461133 64.728 
L 36 63.87457 
L 36 61.521648 
L 41.952 62.513817 
L 47.904 63.406143 
L 53.856 64.20666 
L 58.170926 64.728 
L 59.808 64.942865 
L 65.76 65.647456 
L 71.712 66.274581 
L 77.664 66.833941 
L 83.616 67.334375 
L 89.568 67.783673 
L 95.52 68.188582 
L 101.472 68.554882 
L 107.424 68.887502 
L 113.376 69.190641 
L 119.328 69.467876 
L 125.28 69.722264 
L 131.232 69.95642 
L 137.184 70.172594 
L 140.134451 70.272 
L 143.136 70.383772 
L 149.088 70.589786 
L 155.04 70.781343 
L 160.992 70.959885 
L 166.944 71.126675 
L 172.896 71.282817 
L 178.848 71.429287 
L 184.8 71.566943 
L 190.752 71.696551 
L 196.704 71.818786 
L 202.656 71.934256 
L 208.608 72.043501 
L 214.56 72.147006 
L 214.56 74.416026 
L 208.608 74.317035 
L 202.656 74.212575 
L 196.704 74.102183 
L 190.752 73.985347 
L 184.8 73.861492 
L 178.848 73.729976 
L 172.896 73.590076 
L 166.944 73.440977 
L 160.992 73.28176 
L 155.04 73.111378 
L 149.088 72.928641 
L 143.136 72.732188 
L 137.184 72.520459 
L 131.232 72.291654 
L 125.28 72.043695 
L 119.328 71.774168 
L 113.376 71.480261 
L 107.424 71.158685 
L 101.472 70.805583 
L 95.52 70.41642 
L 93.510815 70.272 
L 89.568 70.015685 
L 83.616 69.588075 
L 77.664 69.112451 
L 71.712 68.581696 
L 65.76 67.987835 
L 59.808 67.322265 
L 53.856 66.576259 
L 47.904 65.741664 
L 41.952 64.811033 
z
" clip-path="url(#p11902ef4e5)" style="fill: #34618d"/>
   </g>
   <g id="PathCollection_7">
    <path d="M 41.952 140.21441 
L 47.904 141.041502 
L 53.856 141.743578 
L 59.808 142.338259 
L 59.876577 142.344 
L 65.76 142.749469 
L 71.712 143.098457 
L 77.664 143.397682 
L 83.616 143.656244 
L 89.568 143.881358 
L 95.52 144.078754 
L 101.472 144.253 
L 107.424 144.407762 
L 113.376 144.546006 
L 119.328 144.670144 
L 125.28 144.78216 
L 131.232 144.883691 
L 137.184 144.9761 
L 143.136 145.060532 
L 149.088 145.13795 
L 155.04 145.209172 
L 160.992 145.274898 
L 166.944 145.335725 
L 172.896 145.392172 
L 178.848 145.444686 
L 184.8 145.493656 
L 190.752 145.539423 
L 196.704 145.582286 
L 202.656 145.622509 
L 208.608 145.660325 
L 214.56 145.69594 
L 214.56 147.589338 
L 208.608 147.55059 
L 202.656 147.50948 
L 196.704 147.465788 
L 190.752 147.419267 
L 184.8 147.369637 
L 178.848 147.316582 
L 172.896 147.259742 
L 166.944 147.198706 
L 160.992 147.133 
L 155.04 147.062081 
L 149.088 146.985319 
L 143.136 146.901979 
L 137.184 146.811204 
L 131.232 146.711984 
L 125.28 146.603124 
L 119.328 146.483198 
L 113.376 146.350502 
L 107.424 146.202973 
L 101.472 146.038104 
L 95.52 145.852824 
L 89.568 145.643341 
L 83.616 145.404943 
L 77.664 145.131731 
L 71.712 144.816296 
L 65.76 144.44932 
L 59.808 144.019171 
L 53.856 143.511654 
L 47.904 142.910432 
L 43.179185 142.344 
L 41.952 142.167974 
L 36 141.162396 
L 36 139.253238 
z
" clip-path="url(#p11902ef4e5)" style="fill: #2c718e"/>
    <path d="M 36 64.728 
L 36 63.87457 
L 41.461133 64.728 
L 41.952 64.811033 
L 47.904 65.741664 
L 53.856 66.576259 
L 59.808 67.322265 
L 65.76 67.987835 
L 71.712 68.581696 
L 77.664 69.112451 
L 83.616 69.588075 
L 89.568 70.015685 
L 93.510815 70.272 
L 95.52 70.41642 
L 101.472 70.805583 
L 107.424 71.158685 
L 113.376 71.480261 
L 119.328 71.774168 
L 125.28 72.043695 
L 131.232 72.291654 
L 137.184 72.520459 
L 143.136 72.732188 
L 149.088 72.928641 
L 155.04 73.111378 
L 160.992 73.28176 
L 166.944 73.440977 
L 172.896 73.590076 
L 178.848 73.729976 
L 184.8 73.861492 
L 190.752 73.985347 
L 196.704 74.102183 
L 202.656 74.212575 
L 208.608 74.317035 
L 214.56 74.416026 
L 214.56 75.816 
L 214.56 76.794579 
L 208.608 76.688414 
L 202.656 76.576349 
L 196.704 76.457881 
L 190.752 76.332453 
L 184.8 76.199442 
L 178.848 76.058147 
L 172.896 75.90778 
L 169.483691 75.816 
L 166.944 75.75528 
L 160.992 75.603635 
L 155.04 75.441413 
L 149.088 75.267496 
L 143.136 75.080605 
L 137.184 74.879273 
L 131.232 74.661818 
L 125.28 74.426292 
L 119.328 74.170443 
L 113.376 73.89165 
L 107.424 73.586858 
L 101.472 73.252494 
L 95.52 72.884372 
L 89.568 72.47759 
L 83.616 72.026418 
L 77.664 71.524199 
L 71.712 70.963291 
L 65.76 70.335111 
L 65.217896 70.272 
L 59.808 69.701665 
L 53.856 69.001843 
L 47.904 68.22236 
L 41.952 67.35791 
L 36 66.401856 
z
" clip-path="url(#p11902ef4e5)" style="fill: #2c718e"/>
   </g>
   <g id="PathCollection_8">
    <path d="M 41.952 138.260846 
L 47.904 139.047125 
L 53.856 139.712093 
L 59.808 140.273203 
L 65.76 140.748439 
L 71.712 141.153524 
L 77.664 141.501379 
L 83.616 141.802367 
L 89.568 142.064733 
L 95.52 142.295038 
L 96.960547 142.344 
L 101.472 142.467895 
L 107.424 142.612552 
L 113.376 142.741509 
L 119.328 142.85709 
L 125.28 142.961196 
L 131.232 143.055397 
L 137.184 143.140996 
L 143.136 143.219084 
L 149.088 143.290581 
L 155.04 143.356263 
L 160.992 143.416795 
L 166.944 143.472745 
L 172.896 143.524602 
L 178.848 143.572789 
L 184.8 143.617674 
L 190.752 143.659579 
L 196.704 143.698784 
L 202.656 143.735538 
L 208.608 143.770059 
L 214.56 143.802542 
L 214.56 145.69594 
L 208.608 145.660325 
L 202.656 145.622509 
L 196.704 145.582286 
L 190.752 145.539423 
L 184.8 145.493656 
L 178.848 145.444686 
L 172.896 145.392172 
L 166.944 145.335725 
L 160.992 145.274898 
L 155.04 145.209172 
L 149.088 145.13795 
L 143.136 145.060532 
L 137.184 144.9761 
L 131.232 144.883691 
L 125.28 144.78216 
L 119.328 144.670144 
L 113.376 144.546006 
L 107.424 144.407762 
L 101.472 144.253 
L 95.52 144.078754 
L 89.568 143.881358 
L 83.616 143.656244 
L 77.664 143.397682 
L 71.712 143.098457 
L 65.76 142.749469 
L 59.876577 142.344 
L 59.808 142.338259 
L 53.856 141.743578 
L 47.904 141.041502 
L 41.952 140.21441 
L 36 139.253238 
L 36 137.34408 
z
" clip-path="url(#p11902ef4e5)" style="fill: #26818e"/>
    <path d="M 41.952 67.35791 
L 47.904 68.22236 
L 53.856 69.001843 
L 59.808 69.701665 
L 65.217896 70.272 
L 65.76 70.335111 
L 71.712 70.963291 
L 77.664 71.524199 
L 83.616 72.026418 
L 89.568 72.47759 
L 95.52 72.884372 
L 101.472 73.252494 
L 107.424 73.586858 
L 113.376 73.89165 
L 119.328 74.170443 
L 125.28 74.426292 
L 131.232 74.661818 
L 137.184 74.879273 
L 143.136 75.080605 
L 149.088 75.267496 
L 155.04 75.441413 
L 160.992 75.603635 
L 166.944 75.75528 
L 169.483691 75.816 
L 172.896 75.90778 
L 178.848 76.058147 
L 184.8 76.199442 
L 190.752 76.332453 
L 196.704 76.457881 
L 202.656 76.576349 
L 208.608 76.688414 
L 214.56 76.794579 
L 214.56 79.349583 
L 208.608 79.249144 
L 202.656 79.143148 
L 196.704 79.031127 
L 190.752 78.912559 
L 184.8 78.78686 
L 178.848 78.653376 
L 172.896 78.511372 
L 166.944 78.36002 
L 160.992 78.198383 
L 155.04 78.025398 
L 149.088 77.839855 
L 143.136 77.640369 
L 137.184 77.425353 
L 131.232 77.192977 
L 125.28 76.941129 
L 119.328 76.667355 
L 113.376 76.368797 
L 107.424 76.042116 
L 103.66007 75.816 
L 101.472 75.699405 
L 95.52 75.352323 
L 89.568 74.969319 
L 83.616 74.545206 
L 77.664 74.074017 
L 71.712 73.548986 
L 65.76 72.962661 
L 59.808 72.307206 
L 53.856 71.575022 
L 47.904 70.759533 
L 44.651104 70.272 
L 41.952 69.904788 
L 36 69.02838 
L 36 66.401856 
z
" clip-path="url(#p11902ef4e5)" style="fill: #26818e"/>
   </g>
   <g id="PathCollection_9">
    <path d="M 36 136.8 
L 36 135.103472 
L 41.952 136.184168 
L 45.91348 136.8 
L 47.904 137.052748 
L 53.856 137.680607 
L 59.808 138.208148 
L 65.76 138.653062 
L 71.712 139.030746 
L 77.664 139.353794 
L 83.616 139.632265 
L 89.568 139.874135 
L 95.52 140.085726 
L 101.472 140.272077 
L 107.424 140.437224 
L 113.376 140.584426 
L 119.328 140.716335 
L 125.28 140.835122 
L 131.232 140.942581 
L 137.184 141.040203 
L 143.136 141.129235 
L 149.088 141.210729 
L 155.04 141.285575 
L 160.992 141.354531 
L 166.944 141.418249 
L 172.896 141.477288 
L 178.848 141.532132 
L 184.8 141.583203 
L 190.752 141.630869 
L 196.704 141.675451 
L 202.656 141.717234 
L 208.608 141.756467 
L 214.56 141.793373 
L 214.56 142.344 
L 214.56 143.802542 
L 208.608 143.770059 
L 202.656 143.735538 
L 196.704 143.698784 
L 190.752 143.659579 
L 184.8 143.617674 
L 178.848 143.572789 
L 172.896 143.524602 
L 166.944 143.472745 
L 160.992 143.416795 
L 155.04 143.356263 
L 149.088 143.290581 
L 143.136 143.219084 
L 137.184 143.140996 
L 131.232 143.055397 
L 125.28 142.961196 
L 119.328 142.85709 
L 113.376 142.741509 
L 107.424 142.612552 
L 101.472 142.467895 
L 96.960547 142.344 
L 95.52 142.295038 
L 89.568 142.064733 
L 83.616 141.802367 
L 77.664 141.501379 
L 71.712 141.153524 
L 65.76 140.748439 
L 59.808 140.273203 
L 53.856 139.712093 
L 47.904 139.047125 
L 41.952 138.260846 
L 36 137.34408 
z
" clip-path="url(#p11902ef4e5)" style="fill: #21918c"/>
    <path d="M 36 70.272 
L 36 69.02838 
L 41.952 69.904788 
L 44.651104 70.272 
L 47.904 70.759533 
L 53.856 71.575022 
L 59.808 72.307206 
L 65.76 72.962661 
L 71.712 73.548986 
L 77.664 74.074017 
L 83.616 74.545206 
L 89.568 74.969319 
L 95.52 75.352323 
L 101.472 75.699405 
L 103.66007 75.816 
L 107.424 76.042116 
L 113.376 76.368797 
L 119.328 76.667355 
L 125.28 76.941129 
L 131.232 77.192977 
L 137.184 77.425353 
L 143.136 77.640369 
L 149.088 77.839855 
L 155.04 78.025398 
L 160.992 78.198383 
L 166.944 78.36002 
L 172.896 78.511372 
L 178.848 78.653376 
L 184.8 78.78686 
L 190.752 78.912559 
L 196.704 79.031127 
L 202.656 79.143148 
L 208.608 79.249144 
L 214.56 79.349583 
L 214.56 81.36 
L 214.56 81.988378 
L 208.608 81.879271 
L 202.656 81.764079 
L 196.704 81.642284 
L 190.752 81.513309 
L 184.8 81.376507 
L 184.121983 81.36 
L 178.848 81.248604 
L 172.896 81.114963 
L 166.944 80.972584 
L 160.992 80.820601 
L 155.04 80.65803 
L 149.088 80.483751 
L 143.136 80.296489 
L 137.184 80.094782 
L 131.232 79.876951 
L 125.28 79.641057 
L 119.328 79.384861 
L 113.376 79.105758 
L 107.424 78.80072 
L 101.472 78.466212 
L 95.52 78.098108 
L 89.568 77.69159 
L 83.616 77.241062 
L 77.664 76.740066 
L 71.712 76.181273 
L 68.205101 75.816 
L 65.76 75.59021 
L 59.808 74.984042 
L 53.856 74.310451 
L 47.904 73.565257 
L 41.952 72.7459 
L 36 71.848237 
z
" clip-path="url(#p11902ef4e5)" style="fill: #21918c"/>
   </g>
   <g id="PathCollection_10">
    <path d="M 41.952 133.742475 
L 47.904 134.611775 
L 53.856 135.347077 
L 59.808 135.967076 
L 65.76 136.491545 
L 69.893852 136.8 
L 71.712 136.907968 
L 77.664 137.206208 
L 83.616 137.462163 
L 89.568 137.683536 
L 95.52 137.876414 
L 101.472 138.045627 
L 107.424 138.19503 
L 113.376 138.327728 
L 119.328 138.446236 
L 125.28 138.55261 
L 131.232 138.64854 
L 137.184 138.73543 
L 143.136 138.814447 
L 149.088 138.886576 
L 155.04 138.952647 
L 160.992 139.013365 
L 166.944 139.069334 
L 172.896 139.121071 
L 178.848 139.169024 
L 184.8 139.213582 
L 190.752 139.255081 
L 196.704 139.293818 
L 202.656 139.330051 
L 208.608 139.36401 
L 214.56 139.395896 
L 214.56 141.793373 
L 208.608 141.756467 
L 202.656 141.717234 
L 196.704 141.675451 
L 190.752 141.630869 
L 184.8 141.583203 
L 178.848 141.532132 
L 172.896 141.477288 
L 166.944 141.418249 
L 160.992 141.354531 
L 155.04 141.285575 
L 149.088 141.210729 
L 143.136 141.129235 
L 137.184 141.040203 
L 131.232 140.942581 
L 125.28 140.835122 
L 119.328 140.716335 
L 113.376 140.584426 
L 107.424 140.437224 
L 101.472 140.272077 
L 95.52 140.085726 
L 89.568 139.874135 
L 83.616 139.632265 
L 77.664 139.353794 
L 71.712 139.030746 
L 65.76 138.653062 
L 59.808 138.208148 
L 53.856 137.680607 
L 47.904 137.052748 
L 45.91348 136.8 
L 41.952 136.184168 
L 36 135.103472 
L 36 132.730758 
z
" clip-path="url(#p11902ef4e5)" style="fill: #1fa188"/>
    <path d="M 41.952 72.7459 
L 47.904 73.565257 
L 53.856 74.310451 
L 59.808 74.984042 
L 65.76 75.59021 
L 68.205101 75.816 
L 71.712 76.181273 
L 77.664 76.740066 
L 83.616 77.241062 
L 89.568 77.69159 
L 95.52 78.098108 
L 101.472 78.466212 
L 107.424 78.80072 
L 113.376 79.105758 
L 119.328 79.384861 
L 125.28 79.641057 
L 131.232 79.876951 
L 137.184 80.094782 
L 143.136 80.296489 
L 149.088 80.483751 
L 155.04 80.65803 
L 160.992 80.820601 
L 166.944 80.972584 
L 172.896 81.114963 
L 178.848 81.248604 
L 184.121983 81.36 
L 184.8 81.376507 
L 190.752 81.513309 
L 196.704 81.642284 
L 202.656 81.764079 
L 208.608 81.879271 
L 214.56 81.988378 
L 214.56 84.936502 
L 208.608 84.835021 
L 202.656 84.72792 
L 196.704 84.614725 
L 190.752 84.494906 
L 184.8 84.367873 
L 178.848 84.232964 
L 172.896 84.089435 
L 166.944 83.936449 
L 160.992 83.773056 
L 155.04 83.598182 
L 149.088 83.410601 
L 143.136 83.208912 
L 137.184 82.991511 
L 131.232 82.756549 
L 125.28 82.50189 
L 119.328 82.225055 
L 113.376 81.923163 
L 107.424 81.592847 
L 103.588728 81.36 
L 101.472 81.249026 
L 95.52 80.908167 
L 89.568 80.532517 
L 83.616 80.117218 
L 77.664 79.656752 
L 71.712 79.144999 
L 65.76 78.575428 
L 59.808 77.941552 
L 53.856 77.237726 
L 47.904 76.460133 
L 43.373577 75.816 
L 41.952 75.636582 
L 36 74.841956 
L 36 71.848237 
z
" clip-path="url(#p11902ef4e5)" style="fill: #1fa188"/>
   </g>
   <g id="PathCollection_11">
    <path d="M 36 131.256 
L 36 130.098131 
L 41.676885 131.256 
L 41.952 131.300782 
L 47.904 132.105991 
L 53.856 132.782433 
L 59.808 133.348696 
L 65.76 133.824226 
L 71.712 134.226051 
L 77.664 134.568126 
L 83.616 134.861592 
L 89.568 135.115272 
L 95.52 135.336147 
L 101.472 135.529768 
L 107.424 135.700572 
L 113.376 135.852135 
L 119.328 135.987356 
L 125.28 136.108605 
L 131.232 136.217833 
L 137.184 136.316659 
L 143.136 136.406432 
L 149.088 136.488287 
L 155.04 136.563183 
L 160.992 136.631934 
L 166.944 136.695236 
L 172.896 136.753687 
L 177.9925 136.8 
L 178.848 136.805917 
L 184.8 136.843961 
L 190.752 136.879294 
L 196.704 136.912184 
L 202.656 136.942868 
L 208.608 136.971552 
L 214.56 136.998418 
L 214.56 139.395896 
L 208.608 139.36401 
L 202.656 139.330051 
L 196.704 139.293818 
L 190.752 139.255081 
L 184.8 139.213582 
L 178.848 139.169024 
L 172.896 139.121071 
L 166.944 139.069334 
L 160.992 139.013365 
L 155.04 138.952647 
L 149.088 138.886576 
L 143.136 138.814447 
L 137.184 138.73543 
L 131.232 138.64854 
L 125.28 138.55261 
L 119.328 138.446236 
L 113.376 138.327728 
L 107.424 138.19503 
L 101.472 138.045627 
L 95.52 137.876414 
L 89.568 137.683536 
L 83.616 137.462163 
L 77.664 137.206208 
L 71.712 136.907968 
L 69.893852 136.8 
L 65.76 136.491545 
L 59.808 135.967076 
L 53.856 135.347077 
L 47.904 134.611775 
L 41.952 133.742475 
L 36 132.730758 
z
" clip-path="url(#p11902ef4e5)" style="fill: #2ab07f"/>
    <path d="M 36 75.816 
L 36 74.841956 
L 41.952 75.636582 
L 43.373577 75.816 
L 47.904 76.460133 
L 53.856 77.237726 
L 59.808 77.941552 
L 65.76 78.575428 
L 71.712 79.144999 
L 77.664 79.656752 
L 83.616 80.117218 
L 89.568 80.532517 
L 95.52 80.908167 
L 101.472 81.249026 
L 103.588728 81.36 
L 107.424 81.592847 
L 113.376 81.923163 
L 119.328 82.225055 
L 125.28 82.50189 
L 131.232 82.756549 
L 137.184 82.991511 
L 143.136 83.208912 
L 149.088 83.410601 
L 155.04 83.598182 
L 160.992 83.773056 
L 166.944 83.936449 
L 172.896 84.089435 
L 178.848 84.232964 
L 184.8 84.367873 
L 190.752 84.494906 
L 196.704 84.614725 
L 202.656 84.72792 
L 208.608 84.835021 
L 214.56 84.936502 
L 214.56 86.904 
L 214.56 88.075668 
L 208.608 87.964064 
L 202.656 87.846209 
L 196.704 87.72157 
L 190.752 87.589551 
L 184.8 87.449485 
L 178.848 87.300622 
L 172.896 87.14212 
L 166.944 86.973025 
L 164.664008 86.904 
L 160.992 86.811035 
L 155.04 86.650146 
L 149.088 86.477714 
L 143.136 86.292489 
L 137.184 86.093041 
L 131.232 85.877729 
L 125.28 85.644666 
L 119.328 85.391674 
L 113.376 85.11623 
L 107.424 84.81541 
L 101.472 84.485819 
L 95.52 84.123517 
L 89.568 83.723943 
L 83.616 83.281858 
L 77.664 82.791316 
L 71.712 82.245726 
L 65.76 81.638083 
L 63.276973 81.36 
L 59.808 81.025634 
L 53.856 80.399847 
L 47.904 79.716568 
L 41.952 78.978183 
L 36 78.185619 
z
" clip-path="url(#p11902ef4e5)" style="fill: #2ab07f"/>
   </g>
   <g id="PathCollection_12">
    <path d="M 41.676885 131.256 
L 36 130.098131 
L 36 127.038636 
L 41.952 128.139077 
L 47.904 129.085709 
L 53.856 129.885183 
L 59.808 130.557215 
L 65.76 131.123461 
L 67.43073 131.256 
L 71.712 131.514171 
L 77.664 131.815626 
L 83.616 132.071996 
L 89.568 132.291715 
L 95.52 132.481424 
L 101.472 132.646365 
L 107.424 132.79071 
L 113.376 132.917797 
L 119.328 133.030321 
L 125.28 133.130472 
L 131.232 133.220044 
L 137.184 133.300515 
L 143.136 133.373115 
L 149.088 133.438869 
L 155.04 133.49864 
L 160.992 133.553159 
L 166.944 133.603046 
L 172.896 133.648832 
L 178.848 133.690972 
L 184.8 133.72986 
L 190.752 133.765836 
L 196.704 133.799196 
L 202.656 133.830201 
L 208.608 133.859077 
L 214.56 133.886023 
L 214.56 136.8 
L 214.56 136.998418 
L 208.608 136.971552 
L 202.656 136.942868 
L 196.704 136.912184 
L 190.752 136.879294 
L 184.8 136.843961 
L 178.848 136.805917 
L 177.9925 136.8 
L 172.896 136.753687 
L 166.944 136.695236 
L 160.992 136.631934 
L 155.04 136.563183 
L 149.088 136.488287 
L 143.136 136.406432 
L 137.184 136.316659 
L 131.232 136.217833 
L 125.28 136.108605 
L 119.328 135.987356 
L 113.376 135.852135 
L 107.424 135.700572 
L 101.472 135.529768 
L 95.52 135.336147 
L 89.568 135.115272 
L 83.616 134.861592 
L 77.664 134.568126 
L 71.712 134.226051 
L 65.76 133.824226 
L 59.808 133.348696 
L 53.856 132.782433 
L 47.904 132.105991 
L 41.952 131.300782 
z
" clip-path="url(#p11902ef4e5)" style="fill: #44bf70"/>
    <path d="M 36 81.36 
L 36 78.185619 
L 41.952 78.978183 
L 47.904 79.716568 
L 53.856 80.399847 
L 59.808 81.025634 
L 63.276973 81.36 
L 65.76 81.638083 
L 71.712 82.245726 
L 77.664 82.791316 
L 83.616 83.281858 
L 89.568 83.723943 
L 95.52 84.123517 
L 101.472 84.485819 
L 107.424 84.81541 
L 113.376 85.11623 
L 119.328 85.391674 
L 125.28 85.644666 
L 131.232 85.877729 
L 137.184 86.093041 
L 143.136 86.292489 
L 149.088 86.477714 
L 155.04 86.650146 
L 160.992 86.811035 
L 164.664008 86.904 
L 166.944 86.973025 
L 172.896 87.14212 
L 178.848 87.300622 
L 184.8 87.449485 
L 190.752 87.589551 
L 196.704 87.72157 
L 202.656 87.846209 
L 208.608 87.964064 
L 214.56 88.075668 
L 214.56 91.598135 
L 208.608 91.497423 
L 202.656 91.391136 
L 196.704 91.278806 
L 190.752 91.159908 
L 184.8 91.033859 
L 178.848 90.900004 
L 172.896 90.757607 
L 166.944 90.60584 
L 160.992 90.443767 
L 155.04 90.270326 
L 149.088 90.08431 
L 143.136 89.884341 
L 137.184 89.668838 
L 131.232 89.435986 
L 125.28 89.183692 
L 119.328 88.909533 
L 113.376 88.610697 
L 107.424 88.283915 
L 101.472 87.925377 
L 95.52 87.530648 
L 89.568 87.094572 
L 87.196077 86.904 
L 83.616 86.665998 
L 77.664 86.231707 
L 71.712 85.751755 
L 65.76 85.221508 
L 59.808 84.637214 
L 53.856 83.997189 
L 47.904 83.303269 
L 41.952 82.560935 
L 36 81.773933 
z
" clip-path="url(#p11902ef4e5)" style="fill: #44bf70"/>
   </g>
   <g id="PathCollection_13">
    <path d="M 36 125.712 
L 36 123.343441 
L 41.952 124.675106 
L 47.288119 125.712 
L 47.904 125.801312 
L 53.856 126.498921 
L 59.808 127.076637 
L 65.76 127.555872 
L 71.712 127.955509 
L 77.664 128.291034 
L 83.616 128.574787 
L 89.568 128.816501 
L 95.52 129.023849 
L 101.472 129.202897 
L 107.424 129.358471 
L 113.376 129.494433 
L 119.328 129.613899 
L 125.28 129.7194 
L 131.232 129.813005 
L 137.184 129.896419 
L 143.136 129.971053 
L 149.088 130.038088 
L 155.04 130.098511 
L 160.992 130.153156 
L 166.944 130.202731 
L 172.896 130.247839 
L 178.848 130.288996 
L 184.8 130.326648 
L 190.752 130.361177 
L 196.704 130.392917 
L 202.656 130.422158 
L 208.608 130.449153 
L 214.56 130.474124 
L 214.56 131.256 
L 214.56 133.886023 
L 208.608 133.859077 
L 202.656 133.830201 
L 196.704 133.799196 
L 190.752 133.765836 
L 184.8 133.72986 
L 178.848 133.690972 
L 172.896 133.648832 
L 166.944 133.603046 
L 160.992 133.553159 
L 155.04 133.49864 
L 149.088 133.438869 
L 143.136 133.373115 
L 137.184 133.300515 
L 131.232 133.220044 
L 125.28 133.130472 
L 119.328 133.030321 
L 113.376 132.917797 
L 107.424 132.79071 
L 101.472 132.646365 
L 95.52 132.481424 
L 89.568 132.291715 
L 83.616 132.071996 
L 77.664 131.815626 
L 71.712 131.514171 
L 67.43073 131.256 
L 65.76 131.123461 
L 59.808 130.557215 
L 53.856 129.885183 
L 47.904 129.085709 
L 41.952 128.139077 
L 36 127.038636 
z
" clip-path="url(#p11902ef4e5)" style="fill: #67cc5c"/>
    <path d="M 41.952 82.560935 
L 47.904 83.303269 
L 53.856 83.997189 
L 59.808 84.637214 
L 65.76 85.221508 
L 71.712 85.751755 
L 77.664 86.231707 
L 83.616 86.665998 
L 87.196077 86.904 
L 89.568 87.094572 
L 95.52 87.530648 
L 101.472 87.925377 
L 107.424 88.283915 
L 113.376 88.610697 
L 119.328 88.909533 
L 125.28 89.183692 
L 131.232 89.435986 
L 137.184 89.668838 
L 143.136 89.884341 
L 149.088 90.08431 
L 155.04 90.270326 
L 160.992 90.443767 
L 166.944 90.60584 
L 172.896 90.757607 
L 178.848 90.900004 
L 184.8 91.033859 
L 190.752 91.159908 
L 196.704 91.278806 
L 202.656 91.391136 
L 208.608 91.497423 
L 214.56 91.598135 
L 214.56 92.448 
L 214.56 95.817424 
L 208.608 95.706813 
L 202.656 95.589995 
L 196.704 95.466439 
L 190.752 95.335552 
L 184.8 95.196669 
L 178.848 95.049047 
L 172.896 94.891846 
L 166.944 94.724119 
L 160.992 94.544792 
L 155.04 94.352643 
L 149.088 94.146279 
L 143.136 93.924102 
L 137.184 93.684275 
L 131.232 93.424676 
L 125.28 93.142845 
L 119.328 92.835922 
L 113.376 92.50056 
L 112.514621 92.448 
L 107.424 92.205402 
L 101.472 91.895969 
L 95.52 91.556941 
L 89.568 91.184538 
L 83.616 90.774578 
L 77.664 90.322572 
L 71.712 89.82399 
L 65.76 89.274796 
L 59.808 88.672449 
L 53.856 88.017539 
L 47.904 87.315824 
L 44.500048 86.904 
L 41.952 86.65227 
L 36 86.074775 
L 36 81.773933 
z
" clip-path="url(#p11902ef4e5)" style="fill: #67cc5c"/>
   </g>
   <g id="PathCollection_14">
    <path d="M 36 120.168 
L 36 118.640563 
L 41.410036 120.168 
L 41.952 120.274105 
L 47.904 121.223762 
L 53.856 122.014203 
L 59.808 122.666035 
L 65.76 123.203086 
L 71.712 123.64694 
L 77.664 124.015551 
L 83.616 124.323349 
L 89.568 124.581791 
L 95.52 124.799946 
L 101.472 124.985013 
L 107.424 125.142729 
L 113.376 125.277699 
L 119.328 125.393638 
L 125.28 125.493563 
L 131.232 125.579943 
L 137.184 125.654809 
L 142.426247 125.712 
L 143.136 125.716915 
L 149.088 125.752212 
L 155.04 125.782699 
L 160.992 125.809064 
L 166.944 125.831883 
L 172.896 125.851642 
L 178.848 125.86875 
L 184.8 125.883556 
L 190.752 125.896357 
L 196.704 125.907407 
L 202.656 125.916923 
L 208.608 125.925093 
L 214.56 125.932081 
L 214.56 130.474124 
L 208.608 130.449153 
L 202.656 130.422158 
L 196.704 130.392917 
L 190.752 130.361177 
L 184.8 130.326648 
L 178.848 130.288996 
L 172.896 130.247839 
L 166.944 130.202731 
L 160.992 130.153156 
L 155.04 130.098511 
L 149.088 130.038088 
L 143.136 129.971053 
L 137.184 129.896419 
L 131.232 129.813005 
L 125.28 129.7194 
L 119.328 129.613899 
L 113.376 129.494433 
L 107.424 129.358471 
L 101.472 129.202897 
L 95.52 129.023849 
L 89.568 128.816501 
L 83.616 128.574787 
L 77.664 128.291034 
L 71.712 127.955509 
L 65.76 127.555872 
L 59.808 127.076637 
L 53.856 126.498921 
L 47.904 125.801312 
L 47.288119 125.712 
L 41.952 124.675106 
L 36 123.343441 
z
" clip-path="url(#p11902ef4e5)" style="fill: #90d743"/>
    <path d="M 36 86.904 
L 36 86.074775 
L 41.952 86.65227 
L 44.500048 86.904 
L 47.904 87.315824 
L 53.856 88.017539 
L 59.808 88.672449 
L 65.76 89.274796 
L 71.712 89.82399 
L 77.664 90.322572 
L 83.616 90.774578 
L 89.568 91.184538 
L 95.52 91.556941 
L 101.472 91.895969 
L 107.424 92.205402 
L 112.514621 92.448 
L 113.376 92.50056 
L 119.328 92.835922 
L 125.28 93.142845 
L 131.232 93.424676 
L 137.184 93.684275 
L 143.136 93.924102 
L 149.088 94.146279 
L 155.04 94.352643 
L 160.992 94.544792 
L 166.944 94.724119 
L 172.896 94.891846 
L 178.848 95.049047 
L 184.8 95.196669 
L 190.752 95.335552 
L 196.704 95.466439 
L 202.656 95.589995 
L 208.608 95.706813 
L 214.56 95.817424 
L 214.56 97.992 
L 214.56 101.127815 
L 208.608 101.003248 
L 202.656 100.871503 
L 196.704 100.731945 
L 190.752 100.583865 
L 184.8 100.426462 
L 178.848 100.258837 
L 172.896 100.079968 
L 166.944 99.888697 
L 160.992 99.683703 
L 155.04 99.463472 
L 149.088 99.226263 
L 143.136 98.970064 
L 137.184 98.692537 
L 131.232 98.390955 
L 125.28 98.062114 
L 124.104407 97.992 
L 119.328 97.7919 
L 113.376 97.52163 
L 107.424 97.227235 
L 101.472 96.905737 
L 95.52 96.553793 
L 89.568 96.167702 
L 83.616 95.7435 
L 77.664 95.277167 
L 71.712 94.765088 
L 65.76 94.204959 
L 59.808 93.597439 
L 53.856 92.948929 
L 49.359017 92.448 
L 47.904 92.326162 
L 41.952 91.866517 
L 36 91.459124 
z
" clip-path="url(#p11902ef4e5)" style="fill: #90d743"/>
   </g>
   <g id="PathCollection_15">
    <path d="M 41.410036 120.168 
L 36 118.640563 
L 36 114.624 
L 36 110.120646 
L 41.952 112.205477 
L 47.904 114.256592 
L 49.152005 114.624 
L 53.856 115.273947 
L 59.808 115.919261 
L 65.76 116.42504 
L 71.712 116.815945 
L 77.664 117.113072 
L 83.616 117.333718 
L 89.568 117.49184 
L 95.52 117.59865 
L 101.472 117.663165 
L 107.424 117.692673 
L 113.376 117.69309 
L 119.328 117.669249 
L 125.28 117.625124 
L 131.232 117.564 
L 137.184 117.48861 
L 143.136 117.401235 
L 149.088 117.303794 
L 155.04 117.197906 
L 160.992 117.084943 
L 166.944 116.966073 
L 172.896 116.842291 
L 178.848 116.714451 
L 184.8 116.583288 
L 190.752 116.449431 
L 196.704 116.313427 
L 202.656 116.175748 
L 208.608 116.036801 
L 214.56 115.896942 
L 214.56 120.168 
L 214.56 125.712 
L 214.56 125.932081 
L 208.608 125.925093 
L 202.656 125.916923 
L 196.704 125.907407 
L 190.752 125.896357 
L 184.8 125.883556 
L 178.848 125.86875 
L 172.896 125.851642 
L 166.944 125.831883 
L 160.992 125.809064 
L 155.04 125.782699 
L 149.088 125.752212 
L 143.136 125.716915 
L 142.426247 125.712 
L 137.184 125.654809 
L 131.232 125.579943 
L 125.28 125.493563 
L 119.328 125.393638 
L 113.376 125.277699 
L 107.424 125.142729 
L 101.472 124.985013 
L 95.52 124.799946 
L 89.568 124.581791 
L 83.616 124.323349 
L 77.664 124.015551 
L 71.712 123.64694 
L 65.76 123.203086 
L 59.808 122.666035 
L 53.856 122.014203 
L 47.904 121.223762 
L 41.952 120.274105 
z
" clip-path="url(#p11902ef4e5)" style="fill: #bddf26"/>
    <path d="M 36 97.992 
L 36 92.448 
L 36 91.459124 
L 41.952 91.866517 
L 47.904 92.326162 
L 49.359017 92.448 
L 53.856 92.948929 
L 59.808 93.597439 
L 65.76 94.204959 
L 71.712 94.765088 
L 77.664 95.277167 
L 83.616 95.7435 
L 89.568 96.167702 
L 95.52 96.553793 
L 101.472 96.905737 
L 107.424 97.227235 
L 113.376 97.52163 
L 119.328 97.7919 
L 124.104407 97.992 
L 125.28 98.062114 
L 131.232 98.390955 
L 137.184 98.692537 
L 143.136 98.970064 
L 149.088 99.226263 
L 155.04 99.463472 
L 160.992 99.683703 
L 166.944 99.888697 
L 172.896 100.079968 
L 178.848 100.258837 
L 184.8 100.426462 
L 190.752 100.583865 
L 196.704 100.731945 
L 202.656 100.871503 
L 208.608 101.003248 
L 214.56 101.127815 
L 214.56 103.536 
L 214.56 109.08 
L 214.56 112.049933 
L 208.608 111.613243 
L 202.656 111.125052 
L 196.704 110.57483 
L 190.752 109.948828 
L 184.8 109.228715 
L 183.693017 109.08 
L 178.848 108.933734 
L 172.896 108.74176 
L 166.944 108.535654 
L 160.992 108.313781 
L 155.04 108.074234 
L 149.088 107.814786 
L 143.136 107.532806 
L 137.184 107.225167 
L 131.232 106.888117 
L 125.28 106.517106 
L 119.328 106.10655 
L 113.376 105.649504 
L 107.424 105.137178 
L 101.472 104.558227 
L 95.52 103.897634 
L 92.600198 103.536 
L 89.568 103.351247 
L 83.616 102.964718 
L 77.664 102.548914 
L 71.712 102.10668 
L 65.76 101.646474 
L 59.808 101.187614 
L 53.856 100.770221 
L 47.904 100.473798 
L 41.952 100.450596 
L 36 100.986005 
z
" clip-path="url(#p11902ef4e5)" style="fill: #bddf26"/>
   </g>
   <g id="PathCollection_16">
    <path d="M 36 109.08 
L 36 103.536 
L 36 100.986005 
L 41.952 100.450596 
L 47.904 100.473798 
L 53.856 100.770221 
L 59.808 101.187614 
L 65.76 101.646474 
L 71.712 102.10668 
L 77.664 102.548914 
L 83.616 102.964718 
L 89.568 103.351247 
L 92.600198 103.536 
L 95.52 103.897634 
L 101.472 104.558227 
L 107.424 105.137178 
L 113.376 105.649504 
L 119.328 106.10655 
L 125.28 106.517106 
L 131.232 106.888117 
L 137.184 107.225167 
L 143.136 107.532806 
L 149.088 107.814786 
L 155.04 108.074234 
L 160.992 108.313781 
L 166.944 108.535654 
L 172.896 108.74176 
L 178.848 108.933734 
L 183.693017 109.08 
L 184.8 109.228715 
L 190.752 109.948828 
L 196.704 110.57483 
L 202.656 111.125052 
L 208.608 111.613243 
L 214.56 112.049933 
L 214.56 114.624 
L 214.56 115.896942 
L 208.608 116.036801 
L 202.656 116.175748 
L 196.704 116.313427 
L 190.752 116.449431 
L 184.8 116.583288 
L 178.848 116.714451 
L 172.896 116.842291 
L 166.944 116.966073 
L 160.992 117.084943 
L 155.04 117.197906 
L 149.088 117.303794 
L 143.136 117.401235 
L 137.184 117.48861 
L 131.232 117.564 
L 125.28 117.625124 
L 119.328 117.669249 
L 113.376 117.69309 
L 107.424 117.692673 
L 101.472 117.663165 
L 95.52 117.59865 
L 89.568 117.49184 
L 83.616 117.333718 
L 77.664 117.113072 
L 71.712 116.815945 
L 65.76 116.42504 
L 59.808 115.919261 
L 53.856 115.273947 
L 49.152005 114.624 
L 47.904 114.256592 
L 41.952 112.205477 
L 36 110.120646 
z
" clip-path="url(#p11902ef4e5)" style="fill: #eae51a"/>
   </g>
   <g id="PathCollection_17">
    <defs>
     <path id="m13474bb13b" d="M -4.330127 4.330127 
L 4.330127 -4.330127 
M -4.330127 -4.330127 
L 4.330127 4.330127 
" style="stroke: #000000; stroke-width: 2"/>
    </defs>
    <g clip-path="url(#p11902ef4e5)">
     <use xlink:href="#m13474bb13b" x="65.76" y="109.08" style="stroke: #000000; stroke-width: 2"/>
    </g>
   </g>
   <g id="matplotlib.axis_1">
    <g id="xtick_1">
     <g id="line2d_1">
      <defs>
       <path id="m987dc0df15" d="M 0 0 
L 0 3.5 
" style="stroke: #000000; stroke-width: 0.8"/>
      </defs>
      <g>
       <use xlink:href="#m987dc0df15" x="65.76" y="192.24" style="stroke: #000000; stroke-width: 0.8"/>
      </g>
     </g>
     <g id="text_1">
      <!-- 200 -->
      <g transform="translate(54.3075 208.358125) scale(0.12 -0.12)">
       <defs>
        <path id="DejaVuSans-32" d="M 1228 531 
L 3431 531 
L 3431 0 
L 469 0 
L 469 531 
Q 828 903 1448 1529 
Q 2069 2156 2228 2338 
Q 2531 2678 2651 2914 
Q 2772 3150 2772 3378 
Q 2772 3750 2511 3984 
Q 2250 4219 1831 4219 
Q 1534 4219 1204 4116 
Q 875 4013 500 3803 
L 500 4441 
Q 881 4594 1212 4672 
Q 1544 4750 1819 4750 
Q 2544 4750 2975 4387 
Q 3406 4025 3406 3419 
Q 3406 3131 3298 2873 
Q 3191 2616 2906 2266 
Q 2828 2175 2409 1742 
Q 1991 1309 1228 531 
z
" transform="scale(0.015625)"/>
        <path id="DejaVuSans-30" d="M 2034 4250 
Q 1547 4250 1301 3770 
Q 1056 3291 1056 2328 
Q 1056 1369 1301 889 
Q 1547 409 2034 409 
Q 2525 409 2770 889 
Q 3016 1369 3016 2328 
Q 3016 3291 2770 3770 
Q 2525 4250 2034 4250 
z
M 2034 4750 
Q 2819 4750 3233 4129 
Q 3647 3509 3647 2328 
Q 3647 1150 3233 529 
Q 2819 -91 2034 -91 
Q 1250 -91 836 529 
Q 422 1150 422 2328 
Q 422 3509 836 4129 
Q 1250 4750 2034 4750 
z
" transform="scale(0.015625)"/>
       </defs>
       <use xlink:href="#DejaVuSans-32"/>
       <use xlink:href="#DejaVuSans-30" x="63.623047"/>
       <use xlink:href="#DejaVuSans-30" x="127.246094"/>
      </g>
     </g>
    </g>
    <g id="xtick_2">
     <g id="line2d_2">
      <g>
       <use xlink:href="#m987dc0df15" x="105.44" y="192.24" style="stroke: #000000; stroke-width: 0.8"/>
      </g>
     </g>
     <g id="text_2">
      <!-- 400 -->
      <g transform="translate(93.9875 208.358125) scale(0.12 -0.12)">
       <defs>
        <path id="DejaVuSans-34" d="M 2419 4116 
L 825 1625 
L 2419 1625 
L 2419 4116 
z
M 2253 4666 
L 3047 4666 
L 3047 1625 
L 3713 1625 
L 3713 1100 
L 3047 1100 
L 3047 0 
L 2419 0 
L 2419 1100 
L 313 1100 
L 313 1709 
L 2253 4666 
z
" transform="scale(0.015625)"/>
       </defs>
       <use xlink:href="#DejaVuSans-34"/>
       <use xlink:href="#DejaVuSans-30" x="63.623047"/>
       <use xlink:href="#DejaVuSans-30" x="127.246094"/>
      </g>
     </g>
    </g>
    <g id="xtick_3">
     <g id="line2d_3">
      <g>
       <use xlink:href="#m987dc0df15" x="145.12" y="192.24" style="stroke: #000000; stroke-width: 0.8"/>
      </g>
     </g>
     <g id="text_3">
      <!-- 600 -->
      <g transform="translate(133.6675 208.358125) scale(0.12 -0.12)">
       <defs>
        <path id="DejaVuSans-36" d="M 2113 2584 
Q 1688 2584 1439 2293 
Q 1191 2003 1191 1497 
Q 1191 994 1439 701 
Q 1688 409 2113 409 
Q 2538 409 2786 701 
Q 3034 994 3034 1497 
Q 3034 2003 2786 2293 
Q 2538 2584 2113 2584 
z
M 3366 4563 
L 3366 3988 
Q 3128 4100 2886 4159 
Q 2644 4219 2406 4219 
Q 1781 4219 1451 3797 
Q 1122 3375 1075 2522 
Q 1259 2794 1537 2939 
Q 1816 3084 2150 3084 
Q 2853 3084 3261 2657 
Q 3669 2231 3669 1497 
Q 3669 778 3244 343 
Q 2819 -91 2113 -91 
Q 1303 -91 875 529 
Q 447 1150 447 2328 
Q 447 3434 972 4092 
Q 1497 4750 2381 4750 
Q 2619 4750 2861 4703 
Q 3103 4656 3366 4563 
z
" transform="scale(0.015625)"/>
       </defs>
       <use xlink:href="#DejaVuSans-36"/>
       <use xlink:href="#DejaVuSans-30" x="63.623047"/>
       <use xlink:href="#DejaVuSans-30" x="127.246094"/>
      </g>
     </g>
    </g>
    <g id="xtick_4">
     <g id="line2d_4">
      <g>
       <use xlink:href="#m987dc0df15" x="184.8" y="192.24" style="stroke: #000000; stroke-width: 0.8"/>
      </g>
     </g>
     <g id="text_4">
      <!-- 800 -->
      <g transform="translate(173.3475 208.358125) scale(0.12 -0.12)">
       <defs>
        <path id="DejaVuSans-38" d="M 2034 2216 
Q 1584 2216 1326 1975 
Q 1069 1734 1069 1313 
Q 1069 891 1326 650 
Q 1584 409 2034 409 
Q 2484 409 2743 651 
Q 3003 894 3003 1313 
Q 3003 1734 2745 1975 
Q 2488 2216 2034 2216 
z
M 1403 2484 
Q 997 2584 770 2862 
Q 544 3141 544 3541 
Q 544 4100 942 4425 
Q 1341 4750 2034 4750 
Q 2731 4750 3128 4425 
Q 3525 4100 3525 3541 
Q 3525 3141 3298 2862 
Q 3072 2584 2669 2484 
Q 3125 2378 3379 2068 
Q 3634 1759 3634 1313 
Q 3634 634 3220 271 
Q 2806 -91 2034 -91 
Q 1263 -91 848 271 
Q 434 634 434 1313 
Q 434 1759 690 2068 
Q 947 2378 1403 2484 
z
M 1172 3481 
Q 1172 3119 1398 2916 
Q 1625 2713 2034 2713 
Q 2441 2713 2670 2916 
Q 2900 3119 2900 3481 
Q 2900 3844 2670 4047 
Q 2441 4250 2034 4250 
Q 1625 4250 1398 4047 
Q 1172 3844 1172 3481 
z
" transform="scale(0.015625)"/>
       </defs>
       <use xlink:href="#DejaVuSans-38"/>
       <use xlink:href="#DejaVuSans-30" x="63.623047"/>
       <use xlink:href="#DejaVuSans-30" x="127.246094"/>
      </g>
     </g>
    </g>
    <g id="text_5">
     <!-- Diploid N$_e$0 -->
     <g transform="translate(80 227.01375) scale(0.16 -0.16)">
      <defs>
       <path id="DejaVuSans-44" d="M 1259 4147 
L 1259 519 
L 2022 519 
Q 2988 519 3436 956 
Q 3884 1394 3884 2338 
Q 3884 3275 3436 3711 
Q 2988 4147 2022 4147 
L 1259 4147 
z
M 628 4666 
L 1925 4666 
Q 3281 4666 3915 4102 
Q 4550 3538 4550 2338 
Q 4550 1131 3912 565 
Q 3275 0 1925 0 
L 628 0 
L 628 4666 
z
" transform="scale(0.015625)"/>
       <path id="DejaVuSans-69" d="M 603 3500 
L 1178 3500 
L 1178 0 
L 603 0 
L 603 3500 
z
M 603 4863 
L 1178 4863 
L 1178 4134 
L 603 4134 
L 603 4863 
z
" transform="scale(0.015625)"/>
       <path id="DejaVuSans-70" d="M 1159 525 
L 1159 -1331 
L 581 -1331 
L 581 3500 
L 1159 3500 
L 1159 2969 
Q 1341 3281 1617 3432 
Q 1894 3584 2278 3584 
Q 2916 3584 3314 3078 
Q 3713 2572 3713 1747 
Q 3713 922 3314 415 
Q 2916 -91 2278 -91 
Q 1894 -91 1617 61 
Q 1341 213 1159 525 
z
M 3116 1747 
Q 3116 2381 2855 2742 
Q 2594 3103 2138 3103 
Q 1681 3103 1420 2742 
Q 1159 2381 1159 1747 
Q 1159 1113 1420 752 
Q 1681 391 2138 391 
Q 2594 391 2855 752 
Q 3116 1113 3116 1747 
z
" transform="scale(0.015625)"/>
       <path id="DejaVuSans-6c" d="M 603 4863 
L 1178 4863 
L 1178 0 
L 603 0 
L 603 4863 
z
" transform="scale(0.015625)"/>
       <path id="DejaVuSans-6f" d="M 1959 3097 
Q 1497 3097 1228 2736 
Q 959 2375 959 1747 
Q 959 1119 1226 758 
Q 1494 397 1959 397 
Q 2419 397 2687 759 
Q 2956 1122 2956 1747 
Q 2956 2369 2687 2733 
Q 2419 3097 1959 3097 
z
M 1959 3584 
Q 2709 3584 3137 3096 
Q 3566 2609 3566 1747 
Q 3566 888 3137 398 
Q 2709 -91 1959 -91 
Q 1206 -91 779 398 
Q 353 888 353 1747 
Q 353 2609 779 3096 
Q 1206 3584 1959 3584 
z
" transform="scale(0.015625)"/>
       <path id="DejaVuSans-64" d="M 2906 2969 
L 2906 4863 
L 3481 4863 
L 3481 0 
L 2906 0 
L 2906 525 
Q 2725 213 2448 61 
Q 2172 -91 1784 -91 
Q 1150 -91 751 415 
Q 353 922 353 1747 
Q 353 2572 751 3078 
Q 1150 3584 1784 3584 
Q 2172 3584 2448 3432 
Q 2725 3281 2906 2969 
z
M 947 1747 
Q 947 1113 1208 752 
Q 1469 391 1925 391 
Q 2381 391 2643 752 
Q 2906 1113 2906 1747 
Q 2906 2381 2643 2742 
Q 2381 3103 1925 3103 
Q 1469 3103 1208 2742 
Q 947 2381 947 1747 
z
" transform="scale(0.015625)"/>
       <path id="DejaVuSans-20" transform="scale(0.015625)"/>
       <path id="DejaVuSans-4e" d="M 628 4666 
L 1478 4666 
L 3547 763 
L 3547 4666 
L 4159 4666 
L 4159 0 
L 3309 0 
L 1241 3903 
L 1241 0 
L 628 0 
L 628 4666 
z
" transform="scale(0.015625)"/>
       <path id="DejaVuSans-Oblique-65" d="M 3078 2063 
Q 3088 2113 3092 2166 
Q 3097 2219 3097 2272 
Q 3097 2653 2873 2875 
Q 2650 3097 2266 3097 
Q 1838 3097 1509 2826 
Q 1181 2556 1013 2059 
L 3078 2063 
z
M 3578 1613 
L 903 1613 
Q 884 1494 878 1425 
Q 872 1356 872 1306 
Q 872 872 1139 634 
Q 1406 397 1894 397 
Q 2269 397 2603 481 
Q 2938 566 3225 728 
L 3116 159 
Q 2806 34 2476 -28 
Q 2147 -91 1806 -91 
Q 1078 -91 686 257 
Q 294 606 294 1247 
Q 294 1794 489 2264 
Q 684 2734 1063 3103 
Q 1306 3334 1642 3459 
Q 1978 3584 2356 3584 
Q 2950 3584 3301 3228 
Q 3653 2872 3653 2272 
Q 3653 2128 3634 1964 
Q 3616 1800 3578 1613 
z
" transform="scale(0.015625)"/>
      </defs>
      <use xlink:href="#DejaVuSans-44" transform="translate(0 0.015625)"/>
      <use xlink:href="#DejaVuSans-69" transform="translate(77.001953 0.015625)"/>
      <use xlink:href="#DejaVuSans-70" transform="translate(104.785156 0.015625)"/>
      <use xlink:href="#DejaVuSans-6c" transform="translate(168.261719 0.015625)"/>
      <use xlink:href="#DejaVuSans-6f" transform="translate(196.044922 0.015625)"/>
      <use xlink:href="#DejaVuSans-69" transform="translate(257.226562 0.015625)"/>
      <use xlink:href="#DejaVuSans-64" transform="translate(285.009766 0.015625)"/>
      <use xlink:href="#DejaVuSans-20" transform="translate(348.486328 0.015625)"/>
      <use xlink:href="#DejaVuSans-4e" transform="translate(380.273438 0.015625)"/>
      <use xlink:href="#DejaVuSans-Oblique-65" transform="translate(456.035156 -16.390625) scale(0.7)"/>
      <use xlink:href="#DejaVuSans-30" transform="translate(501.835938 0.015625)"/>
     </g>
    </g>
    <g id="text_6">
     <!-- 1e3 -->
     <g transform="translate(195.681875 221.452188) scale(0.1 -0.1)">
      <defs>
       <path id="DejaVuSans-31" d="M 794 531 
L 1825 531 
L 1825 4091 
L 703 3866 
L 703 4441 
L 1819 4666 
L 2450 4666 
L 2450 531 
L 3481 531 
L 3481 0 
L 794 0 
L 794 531 
z
" transform="scale(0.015625)"/>
       <path id="DejaVuSans-65" d="M 3597 1894 
L 3597 1613 
L 953 1613 
Q 991 1019 1311 708 
Q 1631 397 2203 397 
Q 2534 397 2845 478 
Q 3156 559 3463 722 
L 3463 178 
Q 3153 47 2828 -22 
Q 2503 -91 2169 -91 
Q 1331 -91 842 396 
Q 353 884 353 1716 
Q 353 2575 817 3079 
Q 1281 3584 2069 3584 
Q 2775 3584 3186 3129 
Q 3597 2675 3597 1894 
z
M 3022 2063 
Q 3016 2534 2758 2815 
Q 2500 3097 2075 3097 
Q 1594 3097 1305 2825 
Q 1016 2553 972 2059 
L 3022 2063 
z
" transform="scale(0.015625)"/>
       <path id="DejaVuSans-33" d="M 2597 2516 
Q 3050 2419 3304 2112 
Q 3559 1806 3559 1356 
Q 3559 666 3084 287 
Q 2609 -91 1734 -91 
Q 1441 -91 1130 -33 
Q 819 25 488 141 
L 488 750 
Q 750 597 1062 519 
Q 1375 441 1716 441 
Q 2309 441 2620 675 
Q 2931 909 2931 1356 
Q 2931 1769 2642 2001 
Q 2353 2234 1838 2234 
L 1294 2234 
L 1294 2753 
L 1863 2753 
Q 2328 2753 2575 2939 
Q 2822 3125 2822 3475 
Q 2822 3834 2567 4026 
Q 2313 4219 1838 4219 
Q 1578 4219 1281 4162 
Q 984 4106 628 3988 
L 628 4550 
Q 988 4650 1302 4700 
Q 1616 4750 1894 4750 
Q 2613 4750 3031 4423 
Q 3450 4097 3450 3541 
Q 3450 3153 3228 2886 
Q 3006 2619 2597 2516 
z
" transform="scale(0.015625)"/>
      </defs>
      <use xlink:href="#DejaVuSans-31"/>
      <use xlink:href="#DejaVuSans-65" x="63.623047"/>
      <use xlink:href="#DejaVuSans-33" x="125.146484"/>
     </g>
    </g>
   </g>
   <g id="matplotlib.axis_2">
    <g id="ytick_1">
     <g id="line2d_5">
      <defs>
       <path id="m0ac4bb67f5" d="M 0 0 
L -3.5 0 
" style="stroke: #000000; stroke-width: 0.8"/>
      </defs>
      <g>
       <use xlink:href="#m0ac4bb67f5" x="36" y="192.24" style="stroke: #000000; stroke-width: 0.8"/>
      </g>
     </g>
     <g id="text_7">
      <!-- 1.0 -->
      <g transform="translate(9.91625 196.799062) scale(0.12 -0.12)">
       <defs>
        <path id="DejaVuSans-2e" d="M 684 794 
L 1344 794 
L 1344 0 
L 684 0 
L 684 794 
z
" transform="scale(0.015625)"/>
       </defs>
       <use xlink:href="#DejaVuSans-31"/>
       <use xlink:href="#DejaVuSans-2e" x="63.623047"/>
       <use xlink:href="#DejaVuSans-30" x="95.410156"/>
      </g>
     </g>
    </g>
    <g id="ytick_2">
     <g id="line2d_6">
      <g>
       <use xlink:href="#m0ac4bb67f5" x="36" y="150.66" style="stroke: #000000; stroke-width: 0.8"/>
      </g>
     </g>
     <g id="text_8">
      <!-- 1.5 -->
      <g transform="translate(9.91625 155.219063) scale(0.12 -0.12)">
       <defs>
        <path id="DejaVuSans-35" d="M 691 4666 
L 3169 4666 
L 3169 4134 
L 1269 4134 
L 1269 2991 
Q 1406 3038 1543 3061 
Q 1681 3084 1819 3084 
Q 2600 3084 3056 2656 
Q 3513 2228 3513 1497 
Q 3513 744 3044 326 
Q 2575 -91 1722 -91 
Q 1428 -91 1123 -41 
Q 819 9 494 109 
L 494 744 
Q 775 591 1075 516 
Q 1375 441 1709 441 
Q 2250 441 2565 725 
Q 2881 1009 2881 1497 
Q 2881 1984 2565 2268 
Q 2250 2553 1709 2553 
Q 1456 2553 1204 2497 
Q 953 2441 691 2322 
L 691 4666 
z
" transform="scale(0.015625)"/>
       </defs>
       <use xlink:href="#DejaVuSans-31"/>
       <use xlink:href="#DejaVuSans-2e" x="63.623047"/>
       <use xlink:href="#DejaVuSans-35" x="95.410156"/>
      </g>
     </g>
    </g>
    <g id="ytick_3">
     <g id="line2d_7">
      <g>
       <use xlink:href="#m0ac4bb67f5" x="36" y="109.08" style="stroke: #000000; stroke-width: 0.8"/>
      </g>
     </g>
     <g id="text_9">
      <!-- 2.0 -->
      <g transform="translate(9.91625 113.639062) scale(0.12 -0.12)">
       <use xlink:href="#DejaVuSans-32"/>
       <use xlink:href="#DejaVuSans-2e" x="63.623047"/>
       <use xlink:href="#DejaVuSans-30" x="95.410156"/>
      </g>
     </g>
    </g>
    <g id="ytick_4">
     <g id="line2d_8">
      <g>
       <use xlink:href="#m0ac4bb67f5" x="36" y="67.5" style="stroke: #000000; stroke-width: 0.8"/>
      </g>
     </g>
     <g id="text_10">
      <!-- 2.5 -->
      <g transform="translate(9.91625 72.059063) scale(0.12 -0.12)">
       <use xlink:href="#DejaVuSans-32"/>
       <use xlink:href="#DejaVuSans-2e" x="63.623047"/>
       <use xlink:href="#DejaVuSans-35" x="95.410156"/>
      </g>
     </g>
    </g>
    <g id="ytick_5">
     <g id="line2d_9">
      <g>
       <use xlink:href="#m0ac4bb67f5" x="36" y="25.92" style="stroke: #000000; stroke-width: 0.8"/>
      </g>
     </g>
     <g id="text_11">
      <!-- 3.0 -->
      <g transform="translate(9.91625 30.479062) scale(0.12 -0.12)">
       <use xlink:href="#DejaVuSans-33"/>
       <use xlink:href="#DejaVuSans-2e" x="63.623047"/>
       <use xlink:href="#DejaVuSans-30" x="95.410156"/>
      </g>
     </g>
    </g>
    <g id="text_12">
     <!-- Recombination rate -->
     <g transform="translate(2.58875 187.6775) rotate(-90) scale(0.16 -0.16)">
      <defs>
       <path id="DejaVuSans-52" d="M 2841 2188 
Q 3044 2119 3236 1894 
Q 3428 1669 3622 1275 
L 4263 0 
L 3584 0 
L 2988 1197 
Q 2756 1666 2539 1819 
Q 2322 1972 1947 1972 
L 1259 1972 
L 1259 0 
L 628 0 
L 628 4666 
L 2053 4666 
Q 2853 4666 3247 4331 
Q 3641 3997 3641 3322 
Q 3641 2881 3436 2590 
Q 3231 2300 2841 2188 
z
M 1259 4147 
L 1259 2491 
L 2053 2491 
Q 2509 2491 2742 2702 
Q 2975 2913 2975 3322 
Q 2975 3731 2742 3939 
Q 2509 4147 2053 4147 
L 1259 4147 
z
" transform="scale(0.015625)"/>
       <path id="DejaVuSans-63" d="M 3122 3366 
L 3122 2828 
Q 2878 2963 2633 3030 
Q 2388 3097 2138 3097 
Q 1578 3097 1268 2742 
Q 959 2388 959 1747 
Q 959 1106 1268 751 
Q 1578 397 2138 397 
Q 2388 397 2633 464 
Q 2878 531 3122 666 
L 3122 134 
Q 2881 22 2623 -34 
Q 2366 -91 2075 -91 
Q 1284 -91 818 406 
Q 353 903 353 1747 
Q 353 2603 823 3093 
Q 1294 3584 2113 3584 
Q 2378 3584 2631 3529 
Q 2884 3475 3122 3366 
z
" transform="scale(0.015625)"/>
       <path id="DejaVuSans-6d" d="M 3328 2828 
Q 3544 3216 3844 3400 
Q 4144 3584 4550 3584 
Q 5097 3584 5394 3201 
Q 5691 2819 5691 2113 
L 5691 0 
L 5113 0 
L 5113 2094 
Q 5113 2597 4934 2840 
Q 4756 3084 4391 3084 
Q 3944 3084 3684 2787 
Q 3425 2491 3425 1978 
L 3425 0 
L 2847 0 
L 2847 2094 
Q 2847 2600 2669 2842 
Q 2491 3084 2119 3084 
Q 1678 3084 1418 2786 
Q 1159 2488 1159 1978 
L 1159 0 
L 581 0 
L 581 3500 
L 1159 3500 
L 1159 2956 
Q 1356 3278 1631 3431 
Q 1906 3584 2284 3584 
Q 2666 3584 2933 3390 
Q 3200 3197 3328 2828 
z
" transform="scale(0.015625)"/>
       <path id="DejaVuSans-62" d="M 3116 1747 
Q 3116 2381 2855 2742 
Q 2594 3103 2138 3103 
Q 1681 3103 1420 2742 
Q 1159 2381 1159 1747 
Q 1159 1113 1420 752 
Q 1681 391 2138 391 
Q 2594 391 2855 752 
Q 3116 1113 3116 1747 
z
M 1159 2969 
Q 1341 3281 1617 3432 
Q 1894 3584 2278 3584 
Q 2916 3584 3314 3078 
Q 3713 2572 3713 1747 
Q 3713 922 3314 415 
Q 2916 -91 2278 -91 
Q 1894 -91 1617 61 
Q 1341 213 1159 525 
L 1159 0 
L 581 0 
L 581 4863 
L 1159 4863 
L 1159 2969 
z
" transform="scale(0.015625)"/>
       <path id="DejaVuSans-6e" d="M 3513 2113 
L 3513 0 
L 2938 0 
L 2938 2094 
Q 2938 2591 2744 2837 
Q 2550 3084 2163 3084 
Q 1697 3084 1428 2787 
Q 1159 2491 1159 1978 
L 1159 0 
L 581 0 
L 581 3500 
L 1159 3500 
L 1159 2956 
Q 1366 3272 1645 3428 
Q 1925 3584 2291 3584 
Q 2894 3584 3203 3211 
Q 3513 2838 3513 2113 
z
" transform="scale(0.015625)"/>
       <path id="DejaVuSans-61" d="M 2194 1759 
Q 1497 1759 1228 1600 
Q 959 1441 959 1056 
Q 959 750 1161 570 
Q 1363 391 1709 391 
Q 2188 391 2477 730 
Q 2766 1069 2766 1631 
L 2766 1759 
L 2194 1759 
z
M 3341 1997 
L 3341 0 
L 2766 0 
L 2766 531 
Q 2569 213 2275 61 
Q 1981 -91 1556 -91 
Q 1019 -91 701 211 
Q 384 513 384 1019 
Q 384 1609 779 1909 
Q 1175 2209 1959 2209 
L 2766 2209 
L 2766 2266 
Q 2766 2663 2505 2880 
Q 2244 3097 1772 3097 
Q 1472 3097 1187 3025 
Q 903 2953 641 2809 
L 641 3341 
Q 956 3463 1253 3523 
Q 1550 3584 1831 3584 
Q 2591 3584 2966 3190 
Q 3341 2797 3341 1997 
z
" transform="scale(0.015625)"/>
       <path id="DejaVuSans-74" d="M 1172 4494 
L 1172 3500 
L 2356 3500 
L 2356 3053 
L 1172 3053 
L 1172 1153 
Q 1172 725 1289 603 
Q 1406 481 1766 481 
L 2356 481 
L 2356 0 
L 1766 0 
Q 1100 0 847 248 
Q 594 497 594 1153 
L 594 3053 
L 172 3053 
L 172 3500 
L 594 3500 
L 594 4494 
L 1172 4494 
z
" transform="scale(0.015625)"/>
       <path id="DejaVuSans-72" d="M 2631 2963 
Q 2534 3019 2420 3045 
Q 2306 3072 2169 3072 
Q 1681 3072 1420 2755 
Q 1159 2438 1159 1844 
L 1159 0 
L 581 0 
L 581 3500 
L 1159 3500 
L 1159 2956 
Q 1341 3275 1631 3429 
Q 1922 3584 2338 3584 
Q 2397 3584 2469 3576 
Q 2541 3569 2628 3553 
L 2631 2963 
z
" transform="scale(0.015625)"/>
      </defs>
      <use xlink:href="#DejaVuSans-52"/>
      <use xlink:href="#DejaVuSans-65" x="64.982422"/>
      <use xlink:href="#DejaVuSans-63" x="126.505859"/>
      <use xlink:href="#DejaVuSans-6f" x="181.486328"/>
      <use xlink:href="#DejaVuSans-6d" x="242.667969"/>
      <use xlink:href="#DejaVuSans-62" x="340.080078"/>
      <use xlink:href="#DejaVuSans-69" x="403.556641"/>
      <use xlink:href="#DejaVuSans-6e" x="431.339844"/>
      <use xlink:href="#DejaVuSans-61" x="494.71875"/>
      <use xlink:href="#DejaVuSans-74" x="555.998047"/>
      <use xlink:href="#DejaVuSans-69" x="595.207031"/>
      <use xlink:href="#DejaVuSans-6f" x="622.990234"/>
      <use xlink:href="#DejaVuSans-6e" x="684.171875"/>
      <use xlink:href="#DejaVuSans-20" x="747.550781"/>
      <use xlink:href="#DejaVuSans-72" x="779.337891"/>
      <use xlink:href="#DejaVuSans-61" x="820.451172"/>
      <use xlink:href="#DejaVuSans-74" x="881.730469"/>
      <use xlink:href="#DejaVuSans-65" x="920.939453"/>
     </g>
    </g>
    <g id="text_13">
     <!-- 1e9 -->
     <g transform="translate(36 22.92) scale(0.1 -0.1)">
      <defs>
       <path id="DejaVuSans-2212" d="M 678 2272 
L 4684 2272 
L 4684 1741 
L 678 1741 
L 678 2272 
z
" transform="scale(0.015625)"/>
       <path id="DejaVuSans-39" d="M 703 97 
L 703 672 
Q 941 559 1184 500 
Q 1428 441 1663 441 
Q 2288 441 2617 861 
Q 2947 1281 2994 2138 
Q 2813 1869 2534 1725 
Q 2256 1581 1919 1581 
Q 1219 1581 811 2004 
Q 403 2428 403 3163 
Q 403 3881 828 4315 
Q 1253 4750 1959 4750 
Q 2769 4750 3195 4129 
Q 3622 3509 3622 2328 
Q 3622 1225 3098 567 
Q 2575 -91 1691 -91 
Q 1453 -91 1209 -44 
Q 966 3 703 97 
z
M 1959 2075 
Q 2384 2075 2632 2365 
Q 2881 2656 2881 3163 
Q 2881 3666 2632 3958 
Q 2384 4250 1959 4250 
Q 1534 4250 1286 3958 
Q 1038 3666 1038 3163 
Q 1038 2656 1286 2365 
Q 1534 2075 1959 2075 
z
" transform="scale(0.015625)"/>
      </defs>
      <use xlink:href="#DejaVuSans-31"/>
      <use xlink:href="#DejaVuSans-65" x="63.623047"/>
      <use xlink:href="#DejaVuSans-2212" x="125.146484"/>
      <use xlink:href="#DejaVuSans-39" x="208.935547"/>
     </g>
    </g>
   </g>
   <g id="patch_3">
    <path d="M 36 192.24 
L 36 25.92 
" style="fill: none; stroke: #000000; stroke-width: 0.8; stroke-linejoin: miter; stroke-linecap: square"/>
   </g>
   <g id="patch_4">
    <path d="M 214.56 192.24 
L 214.56 25.92 
" style="fill: none; stroke: #000000; stroke-width: 0.8; stroke-linejoin: miter; stroke-linecap: square"/>
   </g>
   <g id="patch_5">
    <path d="M 36 192.24 
L 214.56 192.24 
" style="fill: none; stroke: #000000; stroke-width: 0.8; stroke-linejoin: miter; stroke-linecap: square"/>
   </g>
   <g id="patch_6">
    <path d="M 36 25.92 
L 214.56 25.92 
" style="fill: none; stroke: #000000; stroke-width: 0.8; stroke-linejoin: miter; stroke-linecap: square"/>
   </g>
   <g id="text_14">
    <!-- Ne0r-SMC-RGT-P2-S4 -->
    <g transform="translate(41.685 10.92) scale(0.16 -0.16)">
     <defs>
      <path id="DejaVuSans-2d" d="M 313 2009 
L 1997 2009 
L 1997 1497 
L 313 1497 
L 313 2009 
z
" transform="scale(0.015625)"/>
      <path id="DejaVuSans-53" d="M 3425 4513 
L 3425 3897 
Q 3066 4069 2747 4153 
Q 2428 4238 2131 4238 
Q 1616 4238 1336 4038 
Q 1056 3838 1056 3469 
Q 1056 3159 1242 3001 
Q 1428 2844 1947 2747 
L 2328 2669 
Q 3034 2534 3370 2195 
Q 3706 1856 3706 1288 
Q 3706 609 3251 259 
Q 2797 -91 1919 -91 
Q 1588 -91 1214 -16 
Q 841 59 441 206 
L 441 856 
Q 825 641 1194 531 
Q 1563 422 1919 422 
Q 2459 422 2753 634 
Q 3047 847 3047 1241 
Q 3047 1584 2836 1778 
Q 2625 1972 2144 2069 
L 1759 2144 
Q 1053 2284 737 2584 
Q 422 2884 422 3419 
Q 422 4038 858 4394 
Q 1294 4750 2059 4750 
Q 2388 4750 2728 4690 
Q 3069 4631 3425 4513 
z
" transform="scale(0.015625)"/>
      <path id="DejaVuSans-4d" d="M 628 4666 
L 1569 4666 
L 2759 1491 
L 3956 4666 
L 4897 4666 
L 4897 0 
L 4281 0 
L 4281 4097 
L 3078 897 
L 2444 897 
L 1241 4097 
L 1241 0 
L 628 0 
L 628 4666 
z
" transform="scale(0.015625)"/>
      <path id="DejaVuSans-43" d="M 4122 4306 
L 4122 3641 
Q 3803 3938 3442 4084 
Q 3081 4231 2675 4231 
Q 1875 4231 1450 3742 
Q 1025 3253 1025 2328 
Q 1025 1406 1450 917 
Q 1875 428 2675 428 
Q 3081 428 3442 575 
Q 3803 722 4122 1019 
L 4122 359 
Q 3791 134 3420 21 
Q 3050 -91 2638 -91 
Q 1578 -91 968 557 
Q 359 1206 359 2328 
Q 359 3453 968 4101 
Q 1578 4750 2638 4750 
Q 3056 4750 3426 4639 
Q 3797 4528 4122 4306 
z
" transform="scale(0.015625)"/>
      <path id="DejaVuSans-47" d="M 3809 666 
L 3809 1919 
L 2778 1919 
L 2778 2438 
L 4434 2438 
L 4434 434 
Q 4069 175 3628 42 
Q 3188 -91 2688 -91 
Q 1594 -91 976 548 
Q 359 1188 359 2328 
Q 359 3472 976 4111 
Q 1594 4750 2688 4750 
Q 3144 4750 3555 4637 
Q 3966 4525 4313 4306 
L 4313 3634 
Q 3963 3931 3569 4081 
Q 3175 4231 2741 4231 
Q 1884 4231 1454 3753 
Q 1025 3275 1025 2328 
Q 1025 1384 1454 906 
Q 1884 428 2741 428 
Q 3075 428 3337 486 
Q 3600 544 3809 666 
z
" transform="scale(0.015625)"/>
      <path id="DejaVuSans-54" d="M -19 4666 
L 3928 4666 
L 3928 4134 
L 2272 4134 
L 2272 0 
L 1638 0 
L 1638 4134 
L -19 4134 
L -19 4666 
z
" transform="scale(0.015625)"/>
      <path id="DejaVuSans-50" d="M 1259 4147 
L 1259 2394 
L 2053 2394 
Q 2494 2394 2734 2622 
Q 2975 2850 2975 3272 
Q 2975 3691 2734 3919 
Q 2494 4147 2053 4147 
L 1259 4147 
z
M 628 4666 
L 2053 4666 
Q 2838 4666 3239 4311 
Q 3641 3956 3641 3272 
Q 3641 2581 3239 2228 
Q 2838 1875 2053 1875 
L 1259 1875 
L 1259 0 
L 628 0 
L 628 4666 
z
" transform="scale(0.015625)"/>
     </defs>
     <use xlink:href="#DejaVuSans-4e"/>
     <use xlink:href="#DejaVuSans-65" x="74.804688"/>
     <use xlink:href="#DejaVuSans-30" x="136.328125"/>
     <use xlink:href="#DejaVuSans-72" x="199.951172"/>
     <use xlink:href="#DejaVuSans-2d" x="234.689453"/>
     <use xlink:href="#DejaVuSans-53" x="270.773438"/>
     <use xlink:href="#DejaVuSans-4d" x="334.25"/>
     <use xlink:href="#DejaVuSans-43" x="420.529297"/>
     <use xlink:href="#DejaVuSans-2d" x="490.353516"/>
     <use xlink:href="#DejaVuSans-52" x="526.4375"/>
     <use xlink:href="#DejaVuSans-47" x="595.919922"/>
     <use xlink:href="#DejaVuSans-54" x="669.785156"/>
     <use xlink:href="#DejaVuSans-2d" x="721.744141"/>
     <use xlink:href="#DejaVuSans-50" x="757.828125"/>
     <use xlink:href="#DejaVuSans-32" x="818.130859"/>
     <use xlink:href="#DejaVuSans-2d" x="881.753906"/>
     <use xlink:href="#DejaVuSans-53" x="917.837891"/>
     <use xlink:href="#DejaVuSans-34" x="981.314453"/>
    </g>
   </g>
  </g>
  <g id="axes_2">
   <g id="patch_7">
    <path d="M 225.72 192.24 
L 234.036 192.24 
L 234.036 25.92 
L 225.72 25.92 
z
" style="fill: #ffffff"/>
   </g>
   <g id="QuadMesh_1">
    <path d="M 225.72 192.24 
L 234.036 192.24 
L 234.036 181.845 
L 225.72 181.845 
L 225.72 192.24 
" clip-path="url(#p9fcc12d59b)" style="fill: #440154"/>
    <path d="M 225.72 181.845 
L 234.036 181.845 
L 234.036 171.45 
L 225.72 171.45 
L 225.72 181.845 
" clip-path="url(#p9fcc12d59b)" style="fill: #471063"/>
    <path d="M 225.72 171.45 
L 234.036 171.45 
L 234.036 161.055 
L 225.72 161.055 
L 225.72 171.45 
" clip-path="url(#p9fcc12d59b)" style="fill: #482677"/>
    <path d="M 225.72 161.055 
L 234.036 161.055 
L 234.036 150.66 
L 225.72 150.66 
L 225.72 161.055 
" clip-path="url(#p9fcc12d59b)" style="fill: #443b84"/>
    <path d="M 225.72 150.66 
L 234.036 150.66 
L 234.036 140.265 
L 225.72 140.265 
L 225.72 150.66 
" clip-path="url(#p9fcc12d59b)" style="fill: #3c4f8a"/>
    <path d="M 225.72 140.265 
L 234.036 140.265 
L 234.036 129.87 
L 225.72 129.87 
L 225.72 140.265 
" clip-path="url(#p9fcc12d59b)" style="fill: #34618d"/>
    <path d="M 225.72 129.87 
L 234.036 129.87 
L 234.036 119.475 
L 225.72 119.475 
L 225.72 129.87 
" clip-path="url(#p9fcc12d59b)" style="fill: #2c718e"/>
    <path d="M 225.72 119.475 
L 234.036 119.475 
L 234.036 109.08 
L 225.72 109.08 
L 225.72 119.475 
" clip-path="url(#p9fcc12d59b)" style="fill: #26818e"/>
    <path d="M 225.72 109.08 
L 234.036 109.08 
L 234.036 98.685 
L 225.72 98.685 
L 225.72 109.08 
" clip-path="url(#p9fcc12d59b)" style="fill: #21918c"/>
    <path d="M 225.72 98.685 
L 234.036 98.685 
L 234.036 88.29 
L 225.72 88.29 
L 225.72 98.685 
" clip-path="url(#p9fcc12d59b)" style="fill: #1fa188"/>
    <path d="M 225.72 88.29 
L 234.036 88.29 
L 234.036 77.895 
L 225.72 77.895 
L 225.72 88.29 
" clip-path="url(#p9fcc12d59b)" style="fill: #2ab07f"/>
    <path d="M 225.72 77.895 
L 234.036 77.895 
L 234.036 67.5 
L 225.72 67.5 
L 225.72 77.895 
" clip-path="url(#p9fcc12d59b)" style="fill: #44bf70"/>
    <path d="M 225.72 67.5 
L 234.036 67.5 
L 234.036 57.105 
L 225.72 57.105 
L 225.72 67.5 
" clip-path="url(#p9fcc12d59b)" style="fill: #67cc5c"/>
    <path d="M 225.72 57.105 
L 234.036 57.105 
L 234.036 46.71 
L 225.72 46.71 
L 225.72 57.105 
" clip-path="url(#p9fcc12d59b)" style="fill: #90d743"/>
    <path d="M 225.72 46.71 
L 234.036 46.71 
L 234.036 36.315 
L 225.72 36.315 
L 225.72 46.71 
" clip-path="url(#p9fcc12d59b)" style="fill: #bddf26"/>
    <path d="M 225.72 36.315 
L 234.036 36.315 
L 234.036 25.92 
L 225.72 25.92 
L 225.72 36.315 
" clip-path="url(#p9fcc12d59b)" style="fill: #eae51a"/>
   </g>
   <g id="matplotlib.axis_3"/>
   <g id="matplotlib.axis_4">
    <g id="ytick_6">
     <g id="line2d_10">
      <defs>
       <path id="m863d60f8e2" d="M 0 0 
L 3.5 0 
" style="stroke: #000000; stroke-width: 0.8"/>
      </defs>
      <g>
       <use xlink:href="#m863d60f8e2" x="234.036" y="192.24" style="stroke: #000000; stroke-width: 0.8"/>
      </g>
     </g>
     <g id="text_15">
      <!-- $\mathdefault{622.0}$ -->
      <g transform="translate(241.036 196.039219) scale(0.1 -0.1)">
       <use xlink:href="#DejaVuSans-2212" transform="translate(0 0.78125)"/>
       <use xlink:href="#DejaVuSans-36" transform="translate(83.789062 0.78125)"/>
       <use xlink:href="#DejaVuSans-32" transform="translate(147.412109 0.78125)"/>
       <use xlink:href="#DejaVuSans-32" transform="translate(211.035156 0.78125)"/>
       <use xlink:href="#DejaVuSans-2e" transform="translate(274.658203 0.78125)"/>
       <use xlink:href="#DejaVuSans-30" transform="translate(306.445312 0.78125)"/>
      </g>
     </g>
    </g>
    <g id="ytick_7">
     <g id="line2d_11">
      <g>
       <use xlink:href="#m863d60f8e2" x="234.036" y="171.45" style="stroke: #000000; stroke-width: 0.8"/>
      </g>
     </g>
     <g id="text_16">
      <!-- $\mathdefault{621.4}$ -->
      <g transform="translate(241.036 175.249219) scale(0.1 -0.1)">
       <use xlink:href="#DejaVuSans-2212" transform="translate(0 0.78125)"/>
       <use xlink:href="#DejaVuSans-36" transform="translate(83.789062 0.78125)"/>
       <use xlink:href="#DejaVuSans-32" transform="translate(147.412109 0.78125)"/>
       <use xlink:href="#DejaVuSans-31" transform="translate(211.035156 0.78125)"/>
       <use xlink:href="#DejaVuSans-2e" transform="translate(274.658203 0.78125)"/>
       <use xlink:href="#DejaVuSans-34" transform="translate(306.445312 0.78125)"/>
      </g>
     </g>
    </g>
    <g id="ytick_8">
     <g id="line2d_12">
      <g>
       <use xlink:href="#m863d60f8e2" x="234.036" y="150.66" style="stroke: #000000; stroke-width: 0.8"/>
      </g>
     </g>
     <g id="text_17">
      <!-- $\mathdefault{620.8}$ -->
      <g transform="translate(241.036 154.459219) scale(0.1 -0.1)">
       <use xlink:href="#DejaVuSans-2212" transform="translate(0 0.78125)"/>
       <use xlink:href="#DejaVuSans-36" transform="translate(83.789062 0.78125)"/>
       <use xlink:href="#DejaVuSans-32" transform="translate(147.412109 0.78125)"/>
       <use xlink:href="#DejaVuSans-30" transform="translate(211.035156 0.78125)"/>
       <use xlink:href="#DejaVuSans-2e" transform="translate(274.658203 0.78125)"/>
       <use xlink:href="#DejaVuSans-38" transform="translate(303.820312 0.78125)"/>
      </g>
     </g>
    </g>
    <g id="ytick_9">
     <g id="line2d_13">
      <g>
       <use xlink:href="#m863d60f8e2" x="234.036" y="129.87" style="stroke: #000000; stroke-width: 0.8"/>
      </g>
     </g>
     <g id="text_18">
      <!-- $\mathdefault{620.2}$ -->
      <g transform="translate(241.036 133.669219) scale(0.1 -0.1)">
       <use xlink:href="#DejaVuSans-2212" transform="translate(0 0.78125)"/>
       <use xlink:href="#DejaVuSans-36" transform="translate(83.789062 0.78125)"/>
       <use xlink:href="#DejaVuSans-32" transform="translate(147.412109 0.78125)"/>
       <use xlink:href="#DejaVuSans-30" transform="translate(211.035156 0.78125)"/>
       <use xlink:href="#DejaVuSans-2e" transform="translate(274.658203 0.78125)"/>
       <use xlink:href="#DejaVuSans-32" transform="translate(300.945312 0.78125)"/>
      </g>
     </g>
    </g>
    <g id="ytick_10">
     <g id="line2d_14">
      <g>
       <use xlink:href="#m863d60f8e2" x="234.036" y="109.08" style="stroke: #000000; stroke-width: 0.8"/>
      </g>
     </g>
     <g id="text_19">
      <!-- $\mathdefault{619.6}$ -->
      <g transform="translate(241.036 112.879219) scale(0.1 -0.1)">
       <use xlink:href="#DejaVuSans-2212" transform="translate(0 0.78125)"/>
       <use xlink:href="#DejaVuSans-36" transform="translate(83.789062 0.78125)"/>
       <use xlink:href="#DejaVuSans-31" transform="translate(147.412109 0.78125)"/>
       <use xlink:href="#DejaVuSans-39" transform="translate(211.035156 0.78125)"/>
       <use xlink:href="#DejaVuSans-2e" transform="translate(274.658203 0.78125)"/>
       <use xlink:href="#DejaVuSans-36" transform="translate(306.445312 0.78125)"/>
      </g>
     </g>
    </g>
    <g id="ytick_11">
     <g id="line2d_15">
      <g>
       <use xlink:href="#m863d60f8e2" x="234.036" y="88.29" style="stroke: #000000; stroke-width: 0.8"/>
      </g>
     </g>
     <g id="text_20">
      <!-- $\mathdefault{619.0}$ -->
      <g transform="translate(241.036 92.089219) scale(0.1 -0.1)">
       <use xlink:href="#DejaVuSans-2212" transform="translate(0 0.78125)"/>
       <use xlink:href="#DejaVuSans-36" transform="translate(83.789062 0.78125)"/>
       <use xlink:href="#DejaVuSans-31" transform="translate(147.412109 0.78125)"/>
       <use xlink:href="#DejaVuSans-39" transform="translate(211.035156 0.78125)"/>
       <use xlink:href="#DejaVuSans-2e" transform="translate(274.658203 0.78125)"/>
       <use xlink:href="#DejaVuSans-30" transform="translate(306.445312 0.78125)"/>
      </g>
     </g>
    </g>
    <g id="ytick_12">
     <g id="line2d_16">
      <g>
       <use xlink:href="#m863d60f8e2" x="234.036" y="67.5" style="stroke: #000000; stroke-width: 0.8"/>
      </g>
     </g>
     <g id="text_21">
      <!-- $\mathdefault{618.4}$ -->
      <g transform="translate(241.036 71.299219) scale(0.1 -0.1)">
       <use xlink:href="#DejaVuSans-2212" transform="translate(0 0.78125)"/>
       <use xlink:href="#DejaVuSans-36" transform="translate(83.789062 0.78125)"/>
       <use xlink:href="#DejaVuSans-31" transform="translate(147.412109 0.78125)"/>
       <use xlink:href="#DejaVuSans-38" transform="translate(211.035156 0.78125)"/>
       <use xlink:href="#DejaVuSans-2e" transform="translate(274.658203 0.78125)"/>
       <use xlink:href="#DejaVuSans-34" transform="translate(306.445312 0.78125)"/>
      </g>
     </g>
    </g>
    <g id="ytick_13">
     <g id="line2d_17">
      <g>
       <use xlink:href="#m863d60f8e2" x="234.036" y="46.71" style="stroke: #000000; stroke-width: 0.8"/>
      </g>
     </g>
     <g id="text_22">
      <!-- $\mathdefault{617.8}$ -->
      <g transform="translate(241.036 50.509219) scale(0.1 -0.1)">
       <defs>
        <path id="DejaVuSans-37" d="M 525 4666 
L 3525 4666 
L 3525 4397 
L 1831 0 
L 1172 0 
L 2766 4134 
L 525 4134 
L 525 4666 
z
" transform="scale(0.015625)"/>
       </defs>
       <use xlink:href="#DejaVuSans-2212" transform="translate(0 0.78125)"/>
       <use xlink:href="#DejaVuSans-36" transform="translate(83.789062 0.78125)"/>
       <use xlink:href="#DejaVuSans-31" transform="translate(147.412109 0.78125)"/>
       <use xlink:href="#DejaVuSans-37" transform="translate(211.035156 0.78125)"/>
       <use xlink:href="#DejaVuSans-2e" transform="translate(274.658203 0.78125)"/>
       <use xlink:href="#DejaVuSans-38" transform="translate(303.820312 0.78125)"/>
      </g>
     </g>
    </g>
    <g id="ytick_14">
     <g id="line2d_18">
      <g>
       <use xlink:href="#m863d60f8e2" x="234.036" y="25.92" style="stroke: #000000; stroke-width: 0.8"/>
      </g>
     </g>
     <g id="text_23">
      <!-- $\mathdefault{617.2}$ -->
      <g transform="translate(241.036 29.719219) scale(0.1 -0.1)">
       <use xlink:href="#DejaVuSans-2212" transform="translate(0 0.78125)"/>
       <use xlink:href="#DejaVuSans-36" transform="translate(83.789062 0.78125)"/>
       <use xlink:href="#DejaVuSans-31" transform="translate(147.412109 0.78125)"/>
       <use xlink:href="#DejaVuSans-37" transform="translate(211.035156 0.78125)"/>
       <use xlink:href="#DejaVuSans-2e" transform="translate(274.658203 0.78125)"/>
       <use xlink:href="#DejaVuSans-32" transform="translate(300.945312 0.78125)"/>
      </g>
     </g>
    </g>
    <g id="text_24">
     <!-- log likelihood -->
     <g transform="translate(291.254125 148.704375) rotate(-90) scale(0.12 -0.12)">
      <defs>
       <path id="DejaVuSans-67" d="M 2906 1791 
Q 2906 2416 2648 2759 
Q 2391 3103 1925 3103 
Q 1463 3103 1205 2759 
Q 947 2416 947 1791 
Q 947 1169 1205 825 
Q 1463 481 1925 481 
Q 2391 481 2648 825 
Q 2906 1169 2906 1791 
z
M 3481 434 
Q 3481 -459 3084 -895 
Q 2688 -1331 1869 -1331 
Q 1566 -1331 1297 -1286 
Q 1028 -1241 775 -1147 
L 775 -588 
Q 1028 -725 1275 -790 
Q 1522 -856 1778 -856 
Q 2344 -856 2625 -561 
Q 2906 -266 2906 331 
L 2906 616 
Q 2728 306 2450 153 
Q 2172 0 1784 0 
Q 1141 0 747 490 
Q 353 981 353 1791 
Q 353 2603 747 3093 
Q 1141 3584 1784 3584 
Q 2172 3584 2450 3431 
Q 2728 3278 2906 2969 
L 2906 3500 
L 3481 3500 
L 3481 434 
z
" transform="scale(0.015625)"/>
       <path id="DejaVuSans-6b" d="M 581 4863 
L 1159 4863 
L 1159 1991 
L 2875 3500 
L 3609 3500 
L 1753 1863 
L 3688 0 
L 2938 0 
L 1159 1709 
L 1159 0 
L 581 0 
L 581 4863 
z
" transform="scale(0.015625)"/>
       <path id="DejaVuSans-68" d="M 3513 2113 
L 3513 0 
L 2938 0 
L 2938 2094 
Q 2938 2591 2744 2837 
Q 2550 3084 2163 3084 
Q 1697 3084 1428 2787 
Q 1159 2491 1159 1978 
L 1159 0 
L 581 0 
L 581 4863 
L 1159 4863 
L 1159 2956 
Q 1366 3272 1645 3428 
Q 1925 3584 2291 3584 
Q 2894 3584 3203 3211 
Q 3513 2838 3513 2113 
z
" transform="scale(0.015625)"/>
      </defs>
      <use xlink:href="#DejaVuSans-6c"/>
      <use xlink:href="#DejaVuSans-6f" x="27.783203"/>
      <use xlink:href="#DejaVuSans-67" x="88.964844"/>
      <use xlink:href="#DejaVuSans-20" x="152.441406"/>
      <use xlink:href="#DejaVuSans-6c" x="184.228516"/>
      <use xlink:href="#DejaVuSans-69" x="212.011719"/>
      <use xlink:href="#DejaVuSans-6b" x="239.794922"/>
      <use xlink:href="#DejaVuSans-65" x="294.080078"/>
      <use xlink:href="#DejaVuSans-6c" x="355.603516"/>
      <use xlink:href="#DejaVuSans-69" x="383.386719"/>
      <use xlink:href="#DejaVuSans-68" x="411.169922"/>
      <use xlink:href="#DejaVuSans-6f" x="474.548828"/>
      <use xlink:href="#DejaVuSans-6f" x="535.730469"/>
      <use xlink:href="#DejaVuSans-64" x="596.912109"/>
     </g>
    </g>
    <g id="text_25">
     <!-- $\times\mathdefault{10^{3}}\mathdefault{}$ -->
     <g transform="translate(208.036 22.92) scale(0.1 -0.1)">
      <defs>
       <path id="DejaVuSans-d7" d="M 4488 3438 
L 3059 2003 
L 4488 575 
L 4116 197 
L 2681 1631 
L 1247 197 
L 878 575 
L 2303 2003 
L 878 3438 
L 1247 3816 
L 2681 2381 
L 4116 3816 
L 4488 3438 
z
" transform="scale(0.015625)"/>
      </defs>
      <use xlink:href="#DejaVuSans-d7" transform="translate(0 0.765625)"/>
      <use xlink:href="#DejaVuSans-31" transform="translate(83.789062 0.765625)"/>
      <use xlink:href="#DejaVuSans-30" transform="translate(147.412109 0.765625)"/>
      <use xlink:href="#DejaVuSans-33" transform="translate(211.992188 39.046875) scale(0.7)"/>
     </g>
    </g>
   </g>
   <g id="LineCollection_1"/>
   <g id="patch_8">
    <path d="M 225.72 192.24 
L 229.878 192.24 
L 234.036 192.24 
L 234.036 25.92 
L 229.878 25.92 
L 225.72 25.92 
L 225.72 192.24 
z
" style="fill: none; stroke: #000000; stroke-width: 0.8; stroke-linejoin: miter; stroke-linecap: square"/>
   </g>
  </g>
 </g>
 <defs>
  <clipPath id="p11902ef4e5">
   <rect x="36" y="25.92" width="178.56" height="166.32"/>
  </clipPath>
  <clipPath id="p9fcc12d59b">
   <rect x="225.72" y="25.92" width="8.316" height="166.32"/>
  </clipPath>
 </defs>
</svg>
