<?xml version="1.0" encoding="utf-8" standalone="no"?>
<!DOCTYPE svg PUBLIC "-//W3C//DTD SVG 1.1//EN"
  "http://www.w3.org/Graphics/SVG/1.1/DTD/svg11.dtd">
<svg xmlns:xlink="http://www.w3.org/1999/xlink" width="288pt" height="216pt" viewBox="0 0 288 216" xmlns="http://www.w3.org/2000/svg" version="1.1">
 <metadata>
  <rdf:RDF xmlns:dc="http://purl.org/dc/elements/1.1/" xmlns:cc="http://creativecommons.org/ns#" xmlns:rdf="http://www.w3.org/1999/02/22-rdf-syntax-ns#">
   <cc:Work>
    <dc:type rdf:resource="http://purl.org/dc/dcmitype/StillImage"/>
    <dc:date>2023-08-07T19:51:12.082392</dc:date>
    <dc:format>image/svg+xml</dc:format>
    <dc:creator>
     <cc:Agent>
      <dc:title>Matplotlib v3.7.1, https://matplotlib.org/</dc:title>
     </cc:Agent>
    </dc:creator>
   </cc:Work>
  </rdf:RDF>
 </metadata>
 <defs>
  <style type="text/css">*{stroke-linejoin: round; stroke-linecap: butt}</style>
 </defs>
 <g id="figure_1">
  <g id="patch_1">
   <path d="M 0 216 
L 288 216 
L 288 0 
L 0 0 
z
" style="fill: #ffffff"/>
  </g>
  <g id="axes_1">
   <g id="patch_2">
    <path d="M 36 192.24 
L 214.56 192.24 
L 214.56 25.92 
L 36 25.92 
z
" style="fill: #ffffff"/>
   </g>
   <g id="PathCollection_1">
    <path d="M 36 186.696 
L 36 181.152 
L 36 175.608 
L 36 170.064 
L 36 164.52 
L 36 158.976 
L 36 153.432 
L 36 147.888 
L 36 144.349908 
L 41.952 145.367157 
L 47.904 145.892559 
L 53.856 146.538482 
L 59.808 147.53983 
L 61.972061 147.888 
L 65.76 149.261129 
L 71.712 150.370982 
L 77.664 150.979711 
L 83.616 151.363846 
L 89.568 151.628075 
L 95.52 152.116956 
L 101.472 152.786776 
L 107.388816 153.432 
L 107.424 153.444068 
L 113.376 154.868748 
L 119.328 155.671247 
L 125.28 156.185782 
L 131.232 156.543561 
L 137.184 156.8066 
L 143.136 157.008021 
L 149.088 157.167122 
L 155.04 157.295909 
L 160.992 157.613657 
L 166.944 158.008096 
L 172.896 158.39086 
L 178.848 158.762465 
L 182.382011 158.976 
L 184.8 159.413698 
L 190.752 160.212924 
L 196.704 160.77328 
L 202.656 161.187826 
L 208.608 161.506844 
L 214.56 161.759882 
L 214.56 164.52 
L 214.56 170.064 
L 214.56 175.608 
L 214.56 181.152 
L 214.56 186.696 
L 214.56 192.24 
L 208.608 192.24 
L 202.656 192.24 
L 196.704 192.24 
L 190.752 192.24 
L 184.8 192.24 
L 178.848 192.24 
L 172.896 192.24 
L 166.944 192.24 
L 160.992 192.24 
L 155.04 192.24 
L 149.088 192.24 
L 143.136 192.24 
L 137.184 192.24 
L 131.232 192.24 
L 125.28 192.24 
L 119.328 192.24 
L 113.376 192.24 
L 107.424 192.24 
L 101.472 192.24 
L 95.52 192.24 
L 89.568 192.24 
L 83.616 192.24 
L 77.664 192.24 
L 71.712 192.24 
L 65.76 192.24 
L 59.808 192.24 
L 53.856 192.24 
L 47.904 192.24 
L 41.952 192.24 
L 36 192.24 
z
" clip-path="url(#p8fb40f5a03)" style="fill: #470e61"/>
    <path d="M 36 37.008 
L 36 31.464 
L 36 25.92 
L 41.952 25.92 
L 47.904 25.92 
L 53.856 25.92 
L 59.808 25.92 
L 65.76 25.92 
L 71.712 25.92 
L 77.664 25.92 
L 83.616 25.92 
L 89.568 25.92 
L 95.52 25.92 
L 101.472 25.92 
L 107.424 25.92 
L 113.376 25.92 
L 119.328 25.92 
L 125.28 25.92 
L 131.232 25.92 
L 137.184 25.92 
L 143.136 25.92 
L 149.088 25.92 
L 155.04 25.92 
L 160.992 25.92 
L 166.944 25.92 
L 172.896 25.92 
L 178.848 25.92 
L 184.8 25.92 
L 190.752 25.92 
L 196.704 25.92 
L 202.656 25.92 
L 208.608 25.92 
L 214.56 25.92 
L 214.56 31.464 
L 214.56 37.008 
L 214.56 42.552 
L 214.56 48.096 
L 214.56 53.64 
L 214.56 59.184 
L 214.56 64.728 
L 214.56 68.639424 
L 208.608 68.111479 
L 202.656 67.701092 
L 196.704 67.372998 
L 190.752 67.104759 
L 184.8 66.581549 
L 178.848 65.949344 
L 172.896 65.285938 
L 168.119002 64.728 
L 166.944 64.428496 
L 160.992 63.280917 
L 155.04 62.531315 
L 149.088 62.00347 
L 143.136 61.611841 
L 137.184 60.853747 
L 131.232 59.976505 
L 126.139534 59.184 
L 125.28 58.896988 
L 119.328 57.486791 
L 113.376 56.65919 
L 107.424 56.115475 
L 101.472 55.089047 
L 95.52 53.938231 
L 94.046496 53.64 
L 89.568 52.179614 
L 83.616 51.10758 
L 77.664 50.298939 
L 71.712 48.936588 
L 68.221753 48.096 
L 65.76 47.058372 
L 59.808 45.649424 
L 53.856 44.603434 
L 47.904 43.017861 
L 46.196763 42.552 
L 41.952 40.87418 
L 36 39.743149 
z
" clip-path="url(#p8fb40f5a03)" style="fill: #470e61"/>
   </g>
   <g id="PathCollection_2">
    <path d="M 36 142.344 
L 36 141.444518 
L 40.22375 142.344 
L 41.952 142.806834 
L 47.904 143.865867 
L 53.856 144.696447 
L 59.808 145.659695 
L 65.76 146.591394 
L 71.712 147.493979 
L 74.419361 147.888 
L 77.664 148.489014 
L 83.616 149.263302 
L 89.568 149.795897 
L 95.52 150.357254 
L 101.472 151.000443 
L 107.424 151.623164 
L 113.376 152.226455 
L 119.328 152.811282 
L 125.28 153.378544 
L 125.864918 153.432 
L 131.232 154.073025 
L 137.184 154.603224 
L 143.136 155.00922 
L 149.088 155.329914 
L 155.04 155.589504 
L 160.992 155.930134 
L 166.944 156.308444 
L 172.896 156.67533 
L 178.848 157.031306 
L 184.8 157.376858 
L 190.752 157.712442 
L 196.704 158.038488 
L 202.656 158.355405 
L 208.608 158.663576 
L 214.56 158.963364 
L 214.56 158.976 
L 214.56 161.759882 
L 208.608 161.506844 
L 202.656 161.187826 
L 196.704 160.77328 
L 190.752 160.212924 
L 184.8 159.413698 
L 182.382011 158.976 
L 178.848 158.762465 
L 172.896 158.39086 
L 166.944 158.008096 
L 160.992 157.613657 
L 155.04 157.295909 
L 149.088 157.167122 
L 143.136 157.008021 
L 137.184 156.8066 
L 131.232 156.543561 
L 125.28 156.185782 
L 119.328 155.671247 
L 113.376 154.868748 
L 107.424 153.444068 
L 107.388816 153.432 
L 101.472 152.786776 
L 95.52 152.116956 
L 89.568 151.628075 
L 83.616 151.363846 
L 77.664 150.979711 
L 71.712 150.370982 
L 65.76 149.261129 
L 61.972061 147.888 
L 59.808 147.53983 
L 53.856 146.538482 
L 47.904 145.892559 
L 41.952 145.367157 
L 36 144.349908 
z
" clip-path="url(#p8fb40f5a03)" style="fill: #482979"/>
    <path d="M 36.113268 42.552 
L 36 42.521135 
L 36 39.743149 
L 41.952 40.87418 
L 46.196763 42.552 
L 47.904 43.017861 
L 53.856 44.603434 
L 59.808 45.649424 
L 65.76 47.058372 
L 68.221753 48.096 
L 71.712 48.936588 
L 77.664 50.298939 
L 83.616 51.10758 
L 89.568 52.179614 
L 94.046496 53.64 
L 95.52 53.938231 
L 101.472 55.089047 
L 107.424 56.115475 
L 113.376 56.65919 
L 119.328 57.486791 
L 125.28 58.896988 
L 126.139534 59.184 
L 131.232 59.976505 
L 137.184 60.853747 
L 143.136 61.611841 
L 149.088 62.00347 
L 155.04 62.531315 
L 160.992 63.280917 
L 166.944 64.428496 
L 168.119002 64.728 
L 172.896 65.285938 
L 178.848 65.949344 
L 184.8 66.581549 
L 190.752 67.104759 
L 196.704 67.372998 
L 202.656 67.701092 
L 208.608 68.111479 
L 214.56 68.639424 
L 214.56 70.272 
L 214.56 71.72067 
L 208.608 71.194965 
L 202.656 70.645558 
L 198.772091 70.272 
L 196.704 70.059421 
L 190.752 69.518743 
L 184.8 68.962137 
L 178.848 68.359119 
L 172.896 67.726665 
L 166.944 67.062517 
L 160.992 66.364182 
L 155.04 65.628898 
L 149.088 64.853597 
L 148.162224 64.728 
L 143.136 64.077707 
L 137.184 63.301075 
L 131.232 62.464921 
L 125.28 61.580411 
L 119.328 60.643284 
L 113.376 59.6488 
L 110.728358 59.184 
L 107.424 58.629721 
L 101.472 57.608406 
L 95.52 56.512536 
L 89.568 55.346557 
L 83.616 54.104435 
L 81.493849 53.64 
L 77.664 52.848317 
L 71.712 51.551797 
L 65.76 50.174012 
L 59.808 48.710944 
L 57.403929 48.096 
L 53.856 47.233222 
L 47.904 45.728688 
L 41.952 44.155472 
z
" clip-path="url(#p8fb40f5a03)" style="fill: #482979"/>
   </g>
   <g id="PathCollection_3">
    <path d="M 40.22375 142.344 
L 36 141.444518 
L 36 139.408553 
L 41.952 140.633991 
L 47.904 141.811032 
L 50.721622 142.344 
L 53.856 142.854412 
L 59.808 143.779559 
L 65.76 144.672934 
L 71.712 145.537045 
L 77.664 146.374028 
L 83.616 147.185705 
L 88.931724 147.888 
L 89.568 147.963718 
L 95.52 148.597551 
L 101.472 149.21411 
L 107.424 149.810434 
L 113.376 150.387575 
L 119.328 150.946509 
L 125.28 151.488141 
L 131.232 152.013316 
L 137.184 152.522826 
L 143.136 153.017409 
L 148.281847 153.432 
L 149.088 153.492706 
L 155.04 153.8831 
L 160.992 154.246612 
L 166.944 154.608791 
L 172.896 154.9598 
L 178.848 155.300148 
L 184.8 155.630316 
L 190.752 155.950757 
L 196.704 156.261898 
L 202.656 156.564142 
L 208.608 156.857869 
L 214.56 157.143437 
L 214.56 158.963364 
L 208.608 158.663576 
L 202.656 158.355405 
L 196.704 158.038488 
L 190.752 157.712442 
L 184.8 157.376858 
L 178.848 157.031306 
L 172.896 156.67533 
L 166.944 156.308444 
L 160.992 155.930134 
L 155.04 155.589504 
L 149.088 155.329914 
L 143.136 155.00922 
L 137.184 154.603224 
L 131.232 154.073025 
L 125.864918 153.432 
L 125.28 153.378544 
L 119.328 152.811282 
L 113.376 152.226455 
L 107.424 151.623164 
L 101.472 151.000443 
L 95.52 150.357254 
L 89.568 149.795897 
L 83.616 149.263302 
L 77.664 148.489014 
L 74.419361 147.888 
L 71.712 147.493979 
L 65.76 146.591394 
L 59.808 145.659695 
L 53.856 144.696447 
L 47.904 143.865867 
L 41.952 142.806834 
z
" clip-path="url(#p8fb40f5a03)" style="fill: #424086"/>
    <path d="M 36 42.552 
L 36 42.521135 
L 36.113268 42.552 
L 41.952 44.155472 
L 47.904 45.728688 
L 53.856 47.233222 
L 57.403929 48.096 
L 59.808 48.710944 
L 65.76 50.174012 
L 71.712 51.551797 
L 77.664 52.848317 
L 81.493849 53.64 
L 83.616 54.104435 
L 89.568 55.346557 
L 95.52 56.512536 
L 101.472 57.608406 
L 107.424 58.629721 
L 110.728358 59.184 
L 113.376 59.6488 
L 119.328 60.643284 
L 125.28 61.580411 
L 131.232 62.464921 
L 137.184 63.301075 
L 143.136 64.077707 
L 148.162224 64.728 
L 149.088 64.853597 
L 155.04 65.628898 
L 160.992 66.364182 
L 166.944 67.062517 
L 172.896 67.726665 
L 178.848 68.359119 
L 184.8 68.962137 
L 190.752 69.518743 
L 196.704 70.059421 
L 198.772091 70.272 
L 202.656 70.645558 
L 208.608 71.194965 
L 214.56 71.72067 
L 214.56 74.180006 
L 208.608 73.680753 
L 202.656 73.15925 
L 196.704 72.613924 
L 190.752 72.043051 
L 184.8 71.444731 
L 178.848 70.81687 
L 173.92025 70.272 
L 172.896 70.167392 
L 166.944 69.53612 
L 160.992 68.872765 
L 155.04 68.174767 
L 149.088 67.439288 
L 143.136 66.663176 
L 137.184 65.842918 
L 131.232 64.974593 
L 129.615431 64.728 
L 125.28 64.112958 
L 119.328 63.223337 
L 113.376 62.280117 
L 107.424 61.278464 
L 101.472 60.213019 
L 96.064785 59.184 
L 95.52 59.086841 
L 89.568 57.980566 
L 83.616 56.803498 
L 77.664 55.549906 
L 71.712 54.213926 
L 69.270762 53.64 
L 65.76 52.861239 
L 59.808 51.477152 
L 53.856 50.013011 
L 47.904 48.469654 
L 46.49203 48.096 
L 41.952 46.955229 
L 36 45.417642 
z
" clip-path="url(#p8fb40f5a03)" style="fill: #424086"/>
   </g>
   <g id="PathCollection_4">
    <path d="M 41.952 138.54665 
L 47.904 139.67136 
L 53.856 140.758651 
L 59.808 141.812621 
L 62.932659 142.344 
L 65.76 142.754473 
L 71.712 143.580112 
L 77.664 144.378537 
L 83.616 145.151624 
L 89.568 145.900998 
L 95.52 146.62809 
L 101.472 147.334177 
L 106.291822 147.888 
L 107.424 147.997704 
L 113.376 148.548696 
L 119.328 149.081736 
L 125.28 149.597738 
L 131.232 150.097553 
L 137.184 150.581976 
L 143.136 151.051749 
L 149.088 151.507569 
L 155.04 151.950088 
L 160.992 152.379918 
L 166.944 152.797635 
L 172.896 153.203781 
L 176.350186 153.432 
L 178.848 153.568989 
L 184.8 153.883774 
L 190.752 154.189073 
L 196.704 154.485309 
L 202.656 154.77288 
L 208.608 155.052162 
L 214.56 155.32351 
L 214.56 157.143437 
L 208.608 156.857869 
L 202.656 156.564142 
L 196.704 156.261898 
L 190.752 155.950757 
L 184.8 155.630316 
L 178.848 155.300148 
L 172.896 154.9598 
L 166.944 154.608791 
L 160.992 154.246612 
L 155.04 153.8831 
L 149.088 153.492706 
L 148.281847 153.432 
L 143.136 153.017409 
L 137.184 152.522826 
L 131.232 152.013316 
L 125.28 151.488141 
L 119.328 150.946509 
L 113.376 150.387575 
L 107.424 149.810434 
L 101.472 149.21411 
L 95.52 148.597551 
L 89.568 147.963718 
L 88.931724 147.888 
L 83.616 147.185705 
L 77.664 146.374028 
L 71.712 145.537045 
L 65.76 144.672934 
L 59.808 143.779559 
L 53.856 142.854412 
L 50.721622 142.344 
L 47.904 141.811032 
L 41.952 140.633991 
L 36 139.408553 
L 36 137.372587 
z
" clip-path="url(#p8fb40f5a03)" style="fill: #39568c"/>
    <path d="M 36 48.096 
L 36 45.417642 
L 41.952 46.955229 
L 46.49203 48.096 
L 47.904 48.469654 
L 53.856 50.013011 
L 59.808 51.477152 
L 65.76 52.861239 
L 69.270762 53.64 
L 71.712 54.213926 
L 77.664 55.549906 
L 83.616 56.803498 
L 89.568 57.980566 
L 95.52 59.086841 
L 96.064785 59.184 
L 101.472 60.213019 
L 107.424 61.278464 
L 113.376 62.280117 
L 119.328 63.223337 
L 125.28 64.112958 
L 129.615431 64.728 
L 131.232 64.974593 
L 137.184 65.842918 
L 143.136 66.663176 
L 149.088 67.439288 
L 155.04 68.174767 
L 160.992 68.872765 
L 166.944 69.53612 
L 172.896 70.167392 
L 173.92025 70.272 
L 178.848 70.81687 
L 184.8 71.444731 
L 190.752 72.043051 
L 196.704 72.613924 
L 202.656 73.15925 
L 208.608 73.680753 
L 214.56 74.180006 
L 214.56 75.816 
L 214.56 76.72569 
L 208.608 76.203743 
L 204.367397 75.816 
L 202.656 75.672942 
L 196.704 75.157091 
L 190.752 74.617398 
L 184.8 74.052112 
L 178.848 73.459305 
L 172.896 72.836848 
L 166.944 72.182382 
L 160.992 71.493287 
L 155.04 70.766648 
L 151.180387 70.272 
L 149.088 70.02498 
L 143.136 69.291484 
L 137.184 68.516931 
L 131.232 67.697735 
L 125.28 66.829894 
L 119.328 65.908931 
L 113.376 64.92983 
L 112.202585 64.728 
L 107.424 63.965243 
L 101.472 62.959961 
L 95.52 61.890246 
L 89.568 60.750243 
L 83.616 59.53359 
L 81.981932 59.184 
L 77.664 58.320053 
L 71.712 57.061973 
L 65.76 55.723488 
L 59.808 54.300474 
L 57.155255 53.64 
L 53.856 52.866041 
L 47.904 51.418316 
L 41.952 49.905744 
L 36 48.33619 
z
" clip-path="url(#p8fb40f5a03)" style="fill: #39568c"/>
   </g>
   <g id="PathCollection_5">
    <path d="M 36 136.8 
L 36 135.051611 
L 41.952 136.390944 
L 43.875022 136.8 
L 47.904 137.531687 
L 53.856 138.565638 
L 59.808 139.565392 
L 65.76 140.534379 
L 71.712 141.475513 
L 77.363769 142.344 
L 77.664 142.383046 
L 83.616 143.117542 
L 89.568 143.828338 
L 95.52 144.516902 
L 101.472 145.184541 
L 107.424 145.832437 
L 113.376 146.461665 
L 119.328 147.073211 
L 125.28 147.667984 
L 127.565168 147.888 
L 131.232 148.181789 
L 137.184 148.641125 
L 143.136 149.086089 
L 149.088 149.517377 
L 155.04 149.935643 
L 160.992 150.341499 
L 166.944 150.735521 
L 172.896 151.118248 
L 178.848 151.490188 
L 184.8 151.851818 
L 190.752 152.203588 
L 196.704 152.545921 
L 202.656 152.879216 
L 208.608 153.20385 
L 212.912352 153.432 
L 214.56 153.503583 
L 214.56 155.32351 
L 208.608 155.052162 
L 202.656 154.77288 
L 196.704 154.485309 
L 190.752 154.189073 
L 184.8 153.883774 
L 178.848 153.568989 
L 176.350186 153.432 
L 172.896 153.203781 
L 166.944 152.797635 
L 160.992 152.379918 
L 155.04 151.950088 
L 149.088 151.507569 
L 143.136 151.051749 
L 137.184 150.581976 
L 131.232 150.097553 
L 125.28 149.597738 
L 119.328 149.081736 
L 113.376 148.548696 
L 107.424 147.997704 
L 106.291822 147.888 
L 101.472 147.334177 
L 95.52 146.62809 
L 89.568 145.900998 
L 83.616 145.151624 
L 77.664 144.378537 
L 71.712 143.580112 
L 65.76 142.754473 
L 62.932659 142.344 
L 59.808 141.812621 
L 53.856 140.758651 
L 47.904 139.67136 
L 41.952 138.54665 
L 36 137.372587 
z
" clip-path="url(#p8fb40f5a03)" style="fill: #2f6b8e"/>
    <path d="M 41.952 49.905744 
L 47.904 51.418316 
L 53.856 52.866041 
L 57.155255 53.64 
L 59.808 54.300474 
L 65.76 55.723488 
L 71.712 57.061973 
L 77.664 58.320053 
L 81.981932 59.184 
L 83.616 59.53359 
L 89.568 60.750243 
L 95.52 61.890246 
L 101.472 62.959961 
L 107.424 63.965243 
L 112.202585 64.728 
L 113.376 64.92983 
L 119.328 65.908931 
L 125.28 66.829894 
L 131.232 67.697735 
L 137.184 68.516931 
L 143.136 69.291484 
L 149.088 70.02498 
L 151.180387 70.272 
L 155.04 70.766648 
L 160.992 71.493287 
L 166.944 72.182382 
L 172.896 72.836848 
L 178.848 73.459305 
L 184.8 74.052112 
L 190.752 74.617398 
L 196.704 75.157091 
L 202.656 75.672942 
L 204.367397 75.816 
L 208.608 76.203743 
L 214.56 76.72569 
L 214.56 79.442953 
L 208.608 78.953335 
L 202.656 78.441345 
L 196.704 77.905343 
L 190.752 77.343521 
L 184.8 76.753877 
L 178.848 76.134193 
L 175.920904 75.816 
L 172.896 75.516547 
L 166.944 74.901761 
L 160.992 74.255002 
L 155.04 73.573622 
L 149.088 72.854669 
L 143.136 72.094844 
L 137.184 71.290449 
L 131.232 70.437328 
L 130.127389 70.272 
L 125.28 69.605974 
L 119.328 68.742196 
L 113.376 67.825037 
L 107.424 66.849461 
L 101.472 65.809843 
L 95.666906 64.728 
L 95.52 64.702637 
L 89.568 63.634046 
L 83.616 62.495553 
L 77.664 61.281252 
L 71.712 59.985045 
L 68.220023 59.184 
L 65.76 58.657158 
L 59.808 57.32853 
L 53.856 55.922656 
L 47.904 54.440793 
L 44.776568 53.64 
L 41.952 52.959927 
L 36 51.507464 
L 36 48.33619 
z
" clip-path="url(#p8fb40f5a03)" style="fill: #2f6b8e"/>
   </g>
   <g id="PathCollection_6">
    <path d="M 41.952 133.88475 
L 47.904 135.100936 
L 53.856 136.2816 
L 56.582298 136.8 
L 59.808 137.318163 
L 65.76 138.232179 
L 71.712 139.117687 
L 77.664 139.977208 
L 83.616 140.812864 
L 89.568 141.626465 
L 94.964268 142.344 
L 95.52 142.405714 
L 101.472 143.034906 
L 107.424 143.644461 
L 113.376 144.235478 
L 119.328 144.808961 
L 125.28 145.365835 
L 131.232 145.906958 
L 137.184 146.433123 
L 143.136 146.945069 
L 149.088 147.443485 
L 154.544048 147.888 
L 155.04 147.921198 
L 160.992 148.30308 
L 166.944 148.673407 
L 172.896 149.032716 
L 178.848 149.381513 
L 184.8 149.720274 
L 190.752 150.049447 
L 196.704 150.369451 
L 202.656 150.680684 
L 208.608 150.98352 
L 214.56 151.27831 
L 214.56 153.432 
L 214.56 153.503583 
L 212.912352 153.432 
L 208.608 153.20385 
L 202.656 152.879216 
L 196.704 152.545921 
L 190.752 152.203588 
L 184.8 151.851818 
L 178.848 151.490188 
L 172.896 151.118248 
L 166.944 150.735521 
L 160.992 150.341499 
L 155.04 149.935643 
L 149.088 149.517377 
L 143.136 149.086089 
L 137.184 148.641125 
L 131.232 148.181789 
L 127.565168 147.888 
L 125.28 147.667984 
L 119.328 147.073211 
L 113.376 146.461665 
L 107.424 145.832437 
L 101.472 145.184541 
L 95.52 144.516902 
L 89.568 143.828338 
L 83.616 143.117542 
L 77.664 142.383046 
L 77.363769 142.344 
L 71.712 141.475513 
L 65.76 140.534379 
L 59.808 139.565392 
L 53.856 138.565638 
L 47.904 137.531687 
L 43.875022 136.8 
L 41.952 136.390944 
L 36 135.051611 
L 36 132.619116 
z
" clip-path="url(#p8fb40f5a03)" style="fill: #277e8e"/>
    <path d="M 36 53.64 
L 36 51.507464 
L 41.952 52.959927 
L 44.776568 53.64 
L 47.904 54.440793 
L 53.856 55.922656 
L 59.808 57.32853 
L 65.76 58.657158 
L 68.220023 59.184 
L 71.712 59.985045 
L 77.664 61.281252 
L 83.616 62.495553 
L 89.568 63.634046 
L 95.52 64.702637 
L 95.666906 64.728 
L 101.472 65.809843 
L 107.424 66.849461 
L 113.376 67.825037 
L 119.328 68.742196 
L 125.28 69.605974 
L 130.127389 70.272 
L 131.232 70.437328 
L 137.184 71.290449 
L 143.136 72.094844 
L 149.088 72.854669 
L 155.04 73.573622 
L 160.992 74.255002 
L 166.944 74.901761 
L 172.896 75.516547 
L 175.920904 75.816 
L 178.848 76.134193 
L 184.8 76.753877 
L 190.752 77.343521 
L 196.704 77.905343 
L 202.656 78.441345 
L 208.608 78.953335 
L 214.56 79.442953 
L 214.56 81.36 
L 214.56 82.260088 
L 208.608 81.7463 
L 204.32134 81.36 
L 202.656 81.225119 
L 196.704 80.725311 
L 190.752 80.201877 
L 184.8 79.653015 
L 178.848 79.076736 
L 172.896 78.470826 
L 166.944 77.832823 
L 160.992 77.159975 
L 155.04 76.449196 
L 150.014375 75.816 
L 149.088 75.71013 
L 143.136 75.002368 
L 137.184 74.254009 
L 131.232 73.461353 
L 125.28 72.620239 
L 119.328 71.725978 
L 113.376 70.77327 
L 110.40449 70.272 
L 107.424 69.811953 
L 101.472 68.845648 
L 95.52 67.815844 
L 89.568 66.716484 
L 83.616 65.540923 
L 79.72956 64.728 
L 77.664 64.329043 
L 71.712 63.1274 
L 65.76 61.847816 
L 59.808 60.486263 
L 54.427901 59.184 
L 53.856 59.05506 
L 47.904 57.688853 
L 41.952 56.264708 
L 36 54.793047 
z
" clip-path="url(#p8fb40f5a03)" style="fill: #277e8e"/>
   </g>
   <g id="PathCollection_7">
    <path d="M 36 131.256 
L 36 129.951787 
L 41.356202 131.256 
L 41.952 131.378556 
L 47.904 132.518921 
L 53.856 133.621506 
L 59.808 134.691566 
L 65.76 135.733368 
L 71.712 136.75052 
L 72.016124 136.8 
L 77.664 137.563182 
L 83.616 138.342132 
L 89.568 139.098581 
L 95.52 139.834147 
L 101.472 140.550254 
L 107.424 141.248167 
L 113.376 141.929026 
L 117.120394 142.344 
L 119.328 142.544711 
L 125.28 143.063687 
L 131.232 143.567089 
L 137.184 144.055722 
L 143.136 144.530334 
L 149.088 144.991623 
L 155.04 145.440238 
L 160.992 145.876786 
L 166.944 146.301834 
L 172.896 146.715914 
L 178.848 147.119525 
L 184.8 147.513132 
L 190.611616 147.888 
L 190.752 147.895306 
L 196.704 148.192982 
L 202.656 148.482152 
L 208.608 148.763189 
L 214.56 149.03644 
L 214.56 151.27831 
L 208.608 150.98352 
L 202.656 150.680684 
L 196.704 150.369451 
L 190.752 150.049447 
L 184.8 149.720274 
L 178.848 149.381513 
L 172.896 149.032716 
L 166.944 148.673407 
L 160.992 148.30308 
L 155.04 147.921198 
L 154.544048 147.888 
L 149.088 147.443485 
L 143.136 146.945069 
L 137.184 146.433123 
L 131.232 145.906958 
L 125.28 145.365835 
L 119.328 144.808961 
L 113.376 144.235478 
L 107.424 143.644461 
L 101.472 143.034906 
L 95.52 142.405714 
L 94.964268 142.344 
L 89.568 141.626465 
L 83.616 140.812864 
L 77.664 139.977208 
L 71.712 139.117687 
L 65.76 138.232179 
L 59.808 137.318163 
L 56.582298 136.8 
L 53.856 136.2816 
L 47.904 135.100936 
L 41.952 133.88475 
L 36 132.619116 
z
" clip-path="url(#p8fb40f5a03)" style="fill: #21908d"/>
    <path d="M 39.846117 59.184 
L 36 58.313309 
L 36 54.793047 
L 41.952 56.264708 
L 47.904 57.688853 
L 53.856 59.05506 
L 54.427901 59.184 
L 59.808 60.486263 
L 65.76 61.847816 
L 71.712 63.1274 
L 77.664 64.329043 
L 79.72956 64.728 
L 83.616 65.540923 
L 89.568 66.716484 
L 95.52 67.815844 
L 101.472 68.845648 
L 107.424 69.811953 
L 110.40449 70.272 
L 113.376 70.77327 
L 119.328 71.725978 
L 125.28 72.620239 
L 131.232 73.461353 
L 137.184 74.254009 
L 143.136 75.002368 
L 149.088 75.71013 
L 150.014375 75.816 
L 155.04 76.449196 
L 160.992 77.159975 
L 166.944 77.832823 
L 172.896 78.470826 
L 178.848 79.076736 
L 184.8 79.653015 
L 190.752 80.201877 
L 196.704 80.725311 
L 202.656 81.225119 
L 204.32134 81.36 
L 208.608 81.7463 
L 214.56 82.260088 
L 214.56 85.316482 
L 208.608 84.843658 
L 202.656 84.34862 
L 196.704 83.829666 
L 190.752 83.284906 
L 184.8 82.712238 
L 178.848 82.109313 
L 172.896 81.473503 
L 171.874438 81.36 
L 166.944 80.871095 
L 160.992 80.251191 
L 155.04 79.597226 
L 149.088 78.906161 
L 143.136 78.174572 
L 137.184 77.398591 
L 131.232 76.57383 
L 126.080811 75.816 
L 125.28 75.709686 
L 119.328 74.886414 
L 113.376 74.010974 
L 107.424 73.078195 
L 101.472 72.082248 
L 95.52 71.016555 
L 91.600043 70.272 
L 89.568 69.920328 
L 83.616 68.84153 
L 77.664 67.689487 
L 71.712 66.458071 
L 65.76 65.141201 
L 63.963806 64.728 
L 59.808 63.849194 
L 53.856 62.532377 
L 47.904 61.146538 
L 41.952 59.698391 
z
" clip-path="url(#p8fb40f5a03)" style="fill: #21908d"/>
   </g>
   <g id="PathCollection_8">
    <path d="M 41.356202 131.256 
L 36 129.951787 
L 36 126.98512 
L 41.952 128.329448 
L 47.904 129.625221 
L 53.856 130.889185 
L 55.664504 131.256 
L 59.808 131.951281 
L 65.76 132.910903 
L 71.712 133.843988 
L 77.664 134.753624 
L 83.616 135.642398 
L 89.568 136.51251 
L 91.611025 136.8 
L 95.52 137.248718 
L 101.472 137.906926 
L 107.424 138.546627 
L 113.376 139.168992 
L 119.328 139.775085 
L 125.28 140.365873 
L 131.232 140.942246 
L 137.184 141.505022 
L 143.136 142.054957 
L 146.363567 142.344 
L 149.088 142.539761 
L 155.04 142.951461 
L 160.992 143.351313 
L 166.944 143.739889 
L 172.896 144.117723 
L 178.848 144.485316 
L 184.8 144.843139 
L 190.752 145.191631 
L 196.704 145.531207 
L 202.656 145.862256 
L 208.608 146.185143 
L 214.56 146.500214 
L 214.56 147.888 
L 214.56 149.03644 
L 208.608 148.763189 
L 202.656 148.482152 
L 196.704 148.192982 
L 190.752 147.895306 
L 190.611616 147.888 
L 184.8 147.513132 
L 178.848 147.119525 
L 172.896 146.715914 
L 166.944 146.301834 
L 160.992 145.876786 
L 155.04 145.440238 
L 149.088 144.991623 
L 143.136 144.530334 
L 137.184 144.055722 
L 131.232 143.567089 
L 125.28 143.063687 
L 119.328 142.544711 
L 117.120394 142.344 
L 113.376 141.929026 
L 107.424 141.248167 
L 101.472 140.550254 
L 95.52 139.834147 
L 89.568 139.098581 
L 83.616 138.342132 
L 77.664 137.563182 
L 72.016124 136.8 
L 71.712 136.75052 
L 65.76 135.733368 
L 59.808 134.691566 
L 53.856 133.621506 
L 47.904 132.518921 
L 41.952 131.378556 
z
" clip-path="url(#p8fb40f5a03)" style="fill: #1fa287"/>
    <path d="M 36 59.184 
L 36 58.313309 
L 39.846117 59.184 
L 41.952 59.698391 
L 47.904 61.146538 
L 53.856 62.532377 
L 59.808 63.849194 
L 63.963806 64.728 
L 65.76 65.141201 
L 71.712 66.458071 
L 77.664 67.689487 
L 83.616 68.84153 
L 89.568 69.920328 
L 91.600043 70.272 
L 95.52 71.016555 
L 101.472 72.082248 
L 107.424 73.078195 
L 113.376 74.010974 
L 119.328 74.886414 
L 125.28 75.709686 
L 126.080811 75.816 
L 131.232 76.57383 
L 137.184 77.398591 
L 143.136 78.174572 
L 149.088 78.906161 
L 155.04 79.597226 
L 160.992 80.251191 
L 166.944 80.871095 
L 171.874438 81.36 
L 172.896 81.473503 
L 178.848 82.109313 
L 184.8 82.712238 
L 190.752 83.284906 
L 196.704 83.829666 
L 202.656 84.34862 
L 208.608 84.843658 
L 214.56 85.316482 
L 214.56 86.904 
L 214.56 88.596759 
L 208.608 88.101521 
L 202.656 87.581501 
L 196.704 87.034633 
L 195.335564 86.904 
L 190.752 86.520974 
L 184.8 86.000677 
L 178.848 85.453709 
L 172.896 84.877812 
L 166.944 84.270456 
L 160.992 83.628791 
L 155.04 82.949595 
L 149.088 82.229209 
L 143.136 81.463459 
L 142.364701 81.36 
L 137.184 80.744913 
L 131.232 79.997449 
L 125.28 79.203007 
L 119.328 78.356779 
L 113.376 77.453279 
L 107.424 76.486213 
L 103.537667 75.816 
L 101.472 75.4968 
L 95.52 74.532824 
L 89.568 73.502316 
L 83.616 72.398597 
L 77.664 71.214347 
L 73.212402 70.272 
L 71.712 69.984246 
L 65.76 68.799572 
L 59.808 67.539652 
L 53.856 66.202915 
L 47.904 64.790952 
L 47.638575 64.728 
L 41.952 63.496718 
L 36 62.180452 
z
" clip-path="url(#p8fb40f5a03)" style="fill: #1fa287"/>
   </g>
   <g id="PathCollection_9">
    <path d="M 36 125.712 
L 36 123.585438 
L 41.952 125.129378 
L 44.320943 125.712 
L 47.904 126.433111 
L 53.856 127.576882 
L 59.808 128.690634 
L 65.76 129.780084 
L 71.712 130.850134 
L 74.054861 131.256 
L 77.664 131.761212 
L 83.616 132.562361 
L 89.568 133.343148 
L 95.52 134.105508 
L 101.472 134.851134 
L 107.424 135.581526 
L 113.376 136.298029 
L 117.65377 136.8 
L 119.328 136.956303 
L 125.28 137.488115 
L 131.232 138.005304 
L 137.184 138.508706 
L 143.136 138.999096 
L 149.088 139.477187 
L 155.04 139.943643 
L 160.992 140.399079 
L 166.944 140.84407 
L 172.896 141.27915 
L 178.848 141.704817 
L 184.8 142.121539 
L 188.069083 142.344 
L 190.752 142.486087 
L 196.704 142.790346 
L 202.656 143.086315 
L 208.608 143.374359 
L 214.56 143.654822 
L 214.56 146.500214 
L 208.608 146.185143 
L 202.656 145.862256 
L 196.704 145.531207 
L 190.752 145.191631 
L 184.8 144.843139 
L 178.848 144.485316 
L 172.896 144.117723 
L 166.944 143.739889 
L 160.992 143.351313 
L 155.04 142.951461 
L 149.088 142.539761 
L 146.363567 142.344 
L 143.136 142.054957 
L 137.184 141.505022 
L 131.232 140.942246 
L 125.28 140.365873 
L 119.328 139.775085 
L 113.376 139.168992 
L 107.424 138.546627 
L 101.472 137.906926 
L 95.52 137.248718 
L 91.611025 136.8 
L 89.568 136.51251 
L 83.616 135.642398 
L 77.664 134.753624 
L 71.712 133.843988 
L 65.76 132.910903 
L 59.808 131.951281 
L 55.664504 131.256 
L 53.856 130.889185 
L 47.904 129.625221 
L 41.952 128.329448 
L 36 126.98512 
z
" clip-path="url(#p8fb40f5a03)" style="fill: #31b57b"/>
    <path d="M 36 64.728 
L 36 62.180452 
L 41.952 63.496718 
L 47.638575 64.728 
L 47.904 64.790952 
L 53.856 66.202915 
L 59.808 67.539652 
L 65.76 68.799572 
L 71.712 69.984246 
L 73.212402 70.272 
L 77.664 71.214347 
L 83.616 72.398597 
L 89.568 73.502316 
L 95.52 74.532824 
L 101.472 75.4968 
L 103.537667 75.816 
L 107.424 76.486213 
L 113.376 77.453279 
L 119.328 78.356779 
L 125.28 79.203007 
L 131.232 79.997449 
L 137.184 80.744913 
L 142.364701 81.36 
L 143.136 81.463459 
L 149.088 82.229209 
L 155.04 82.949595 
L 160.992 83.628791 
L 166.944 84.270456 
L 172.896 84.877812 
L 178.848 85.453709 
L 184.8 86.000677 
L 190.752 86.520974 
L 195.335564 86.904 
L 196.704 87.034633 
L 202.656 87.581501 
L 208.608 88.101521 
L 214.56 88.596759 
L 214.56 92.119001 
L 208.608 91.678277 
L 202.656 91.216315 
L 196.704 90.731401 
L 190.752 90.221622 
L 184.8 89.684829 
L 178.848 89.118606 
L 172.896 88.520213 
L 166.944 87.886542 
L 160.992 87.214039 
L 158.376441 86.904 
L 155.04 86.561992 
L 149.088 85.922311 
L 143.136 85.244117 
L 137.184 84.523515 
L 131.232 83.756039 
L 125.28 82.936536 
L 119.328 82.059039 
L 114.87665 81.36 
L 113.376 81.15336 
L 107.424 80.296906 
L 101.472 79.38121 
L 95.52 78.399749 
L 89.568 77.34508 
L 83.616 76.20872 
L 81.656424 75.816 
L 77.664 75.106464 
L 71.712 73.98936 
L 65.76 72.795219 
L 59.808 71.519471 
L 54.32737 70.272 
L 53.856 70.175594 
L 47.904 68.951523 
L 41.952 67.683965 
L 36 66.390907 
z
" clip-path="url(#p8fb40f5a03)" style="fill: #31b57b"/>
   </g>
   <g id="PathCollection_10">
    <path d="M 36 120.168 
L 36 119.764251 
L 37.387197 120.168 
L 41.952 121.228504 
L 47.904 122.54772 
L 53.856 123.838689 
L 59.808 125.111349 
L 62.711247 125.712 
L 65.76 126.212202 
L 71.712 127.14685 
L 77.664 128.061123 
L 83.616 128.95852 
L 89.568 129.842075 
L 95.52 130.714471 
L 99.303408 131.256 
L 101.472 131.498175 
L 107.424 132.134347 
L 113.376 132.755038 
L 119.328 133.361477 
L 125.28 133.95478 
L 131.232 134.53597 
L 137.184 135.105987 
L 143.136 135.665702 
L 149.088 136.215922 
L 155.04 136.757399 
L 155.526462 136.8 
L 160.992 137.163685 
L 166.944 137.548572 
L 172.896 137.923433 
L 178.848 138.288776 
L 184.8 138.645075 
L 190.752 138.992773 
L 196.704 139.332284 
L 202.656 139.663997 
L 208.608 139.988276 
L 214.56 140.305465 
L 214.56 142.344 
L 214.56 143.654822 
L 208.608 143.374359 
L 202.656 143.086315 
L 196.704 142.790346 
L 190.752 142.486087 
L 188.069083 142.344 
L 184.8 142.121539 
L 178.848 141.704817 
L 172.896 141.27915 
L 166.944 140.84407 
L 160.992 140.399079 
L 155.04 139.943643 
L 149.088 139.477187 
L 143.136 138.999096 
L 137.184 138.508706 
L 131.232 138.005304 
L 125.28 137.488115 
L 119.328 136.956303 
L 117.65377 136.8 
L 113.376 136.298029 
L 107.424 135.581526 
L 101.472 134.851134 
L 95.52 134.105508 
L 89.568 133.343148 
L 83.616 132.562361 
L 77.664 131.761212 
L 74.054861 131.256 
L 71.712 130.850134 
L 65.76 129.780084 
L 59.808 128.690634 
L 53.856 127.576882 
L 47.904 126.433111 
L 44.320943 125.712 
L 41.952 125.129378 
L 36 123.585438 
z
" clip-path="url(#p8fb40f5a03)" style="fill: #52c569"/>
    <path d="M 36 70.272 
L 36 66.390907 
L 41.952 67.683965 
L 47.904 68.951523 
L 53.856 70.175594 
L 54.32737 70.272 
L 59.808 71.519471 
L 65.76 72.795219 
L 71.712 73.98936 
L 77.664 75.106464 
L 81.656424 75.816 
L 83.616 76.20872 
L 89.568 77.34508 
L 95.52 78.399749 
L 101.472 79.38121 
L 107.424 80.296906 
L 113.376 81.15336 
L 114.87665 81.36 
L 119.328 82.059039 
L 125.28 82.936536 
L 131.232 83.756039 
L 137.184 84.523515 
L 143.136 85.244117 
L 149.088 85.922311 
L 155.04 86.561992 
L 158.376441 86.904 
L 160.992 87.214039 
L 166.944 87.886542 
L 172.896 88.520213 
L 178.848 89.118606 
L 184.8 89.684829 
L 190.752 90.221622 
L 196.704 90.731401 
L 202.656 91.216315 
L 208.608 91.678277 
L 214.56 92.119001 
L 214.56 92.448 
L 214.56 96.257641 
L 208.608 95.806914 
L 202.656 95.332805 
L 196.704 94.833217 
L 190.752 94.305774 
L 184.8 93.747768 
L 178.848 93.156098 
L 172.896 92.527192 
L 172.175883 92.448 
L 166.944 91.967723 
L 160.992 91.391323 
L 155.04 90.780332 
L 149.088 90.131146 
L 143.136 89.439598 
L 137.184 88.700842 
L 131.232 87.909196 
L 125.28 87.057952 
L 124.251771 86.904 
L 119.328 86.278786 
L 113.376 85.475213 
L 107.424 84.613937 
L 101.472 83.68793 
L 95.52 82.688947 
L 89.568 81.607256 
L 88.268652 81.36 
L 83.616 80.597758 
L 77.664 79.561191 
L 71.712 78.448257 
L 65.76 77.252117 
L 59.808 75.966326 
L 59.124143 75.816 
L 53.856 74.806461 
L 47.904 73.621236 
L 41.952 72.397417 
L 36 71.158446 
z
" clip-path="url(#p8fb40f5a03)" style="fill: #52c569"/>
   </g>
   <g id="PathCollection_11">
    <path d="M 37.387197 120.168 
L 36 119.764251 
L 36 114.877225 
L 41.952 116.386145 
L 47.904 117.857183 
L 53.856 119.319692 
L 57.384304 120.168 
L 59.808 120.612254 
L 65.76 121.649454 
L 71.712 122.670466 
L 77.664 123.681613 
L 83.616 124.688656 
L 89.568 125.697011 
L 89.660548 125.712 
L 95.52 126.416982 
L 101.472 127.118261 
L 107.424 127.807131 
L 113.376 128.485445 
L 119.328 129.154918 
L 125.28 129.817162 
L 131.232 130.47371 
L 137.184 131.12603 
L 138.410536 131.256 
L 143.136 131.619953 
L 149.088 132.064859 
L 155.04 132.499412 
L 160.992 132.924298 
L 166.944 133.340157 
L 172.896 133.747587 
L 178.848 134.147148 
L 184.8 134.539363 
L 190.752 134.924726 
L 196.704 135.303701 
L 202.656 135.676724 
L 208.608 136.044209 
L 214.56 136.406548 
L 214.56 136.8 
L 214.56 140.305465 
L 208.608 139.988276 
L 202.656 139.663997 
L 196.704 139.332284 
L 190.752 138.992773 
L 184.8 138.645075 
L 178.848 138.288776 
L 172.896 137.923433 
L 166.944 137.548572 
L 160.992 137.163685 
L 155.526462 136.8 
L 155.04 136.757399 
L 149.088 136.215922 
L 143.136 135.665702 
L 137.184 135.105987 
L 131.232 134.53597 
L 125.28 133.95478 
L 119.328 133.361477 
L 113.376 132.755038 
L 107.424 132.134347 
L 101.472 131.498175 
L 99.303408 131.256 
L 95.52 130.714471 
L 89.568 129.842075 
L 83.616 128.95852 
L 77.664 128.061123 
L 71.712 127.14685 
L 65.76 126.212202 
L 62.711247 125.712 
L 59.808 125.111349 
L 53.856 123.838689 
L 47.904 122.54772 
L 41.952 121.228504 
z
" clip-path="url(#p8fb40f5a03)" style="fill: #7fd34e"/>
    <path d="M 36 75.816 
L 36 71.158446 
L 41.952 72.397417 
L 47.904 73.621236 
L 53.856 74.806461 
L 59.124143 75.816 
L 59.808 75.966326 
L 65.76 77.252117 
L 71.712 78.448257 
L 77.664 79.561191 
L 83.616 80.597758 
L 88.268652 81.36 
L 89.568 81.607256 
L 95.52 82.688947 
L 101.472 83.68793 
L 107.424 84.613937 
L 113.376 85.475213 
L 119.328 86.278786 
L 124.251771 86.904 
L 125.28 87.057952 
L 131.232 87.909196 
L 137.184 88.700842 
L 143.136 89.439598 
L 149.088 90.131146 
L 155.04 90.780332 
L 160.992 91.391323 
L 166.944 91.967723 
L 172.175883 92.448 
L 172.896 92.527192 
L 178.848 93.156098 
L 184.8 93.747768 
L 190.752 94.305774 
L 196.704 94.833217 
L 202.656 95.332805 
L 208.608 95.806914 
L 214.56 96.257641 
L 214.56 97.992 
L 214.56 101.09727 
L 208.608 100.640709 
L 202.656 100.157861 
L 196.704 99.645981 
L 190.752 99.101884 
L 184.8 98.521852 
L 179.693428 97.992 
L 178.848 97.922579 
L 172.896 97.416307 
L 166.944 96.879744 
L 160.992 96.309609 
L 155.04 95.702072 
L 149.088 95.052623 
L 143.136 94.355911 
L 137.184 93.605519 
L 131.232 92.79367 
L 128.838613 92.448 
L 125.28 92.033605 
L 119.328 91.301524 
L 113.376 90.514897 
L 107.424 89.666327 
L 101.472 88.746873 
L 95.52 87.7456 
L 90.893602 86.904 
L 89.568 86.705229 
L 83.616 85.77874 
L 77.664 84.781213 
L 71.712 83.704644 
L 65.76 82.540417 
L 60.162889 81.36 
L 59.808 81.297208 
L 53.856 80.248796 
L 47.904 79.161147 
L 41.952 78.052483 
L 36 76.958796 
z
" clip-path="url(#p8fb40f5a03)" style="fill: #7fd34e"/>
   </g>
   <g id="PathCollection_12">
    <path d="M 36 114.624 
L 36 109.08 
L 36 107.476688 
L 39.876483 109.08 
L 41.952 109.657764 
L 47.904 111.200309 
L 53.856 112.765877 
L 59.808 114.393406 
L 60.67926 114.624 
L 65.76 115.524191 
L 71.712 116.562572 
L 77.664 117.606773 
L 83.616 118.668917 
L 89.568 119.762269 
L 91.803003 120.168 
L 95.52 120.616495 
L 101.472 121.311298 
L 107.424 121.999794 
L 113.376 122.685267 
L 119.328 123.371041 
L 125.28 124.060557 
L 131.232 124.757458 
L 137.184 125.465677 
L 139.290843 125.712 
L 143.136 126.00024 
L 149.088 126.431318 
L 155.04 126.853975 
L 160.992 127.269124 
L 166.944 127.677643 
L 172.896 128.08038 
L 178.848 128.478161 
L 184.8 128.871793 
L 190.752 129.262076 
L 196.704 129.649804 
L 202.656 130.035769 
L 208.608 130.420775 
L 214.56 130.805634 
L 214.56 131.256 
L 214.56 136.406548 
L 208.608 136.044209 
L 202.656 135.676724 
L 196.704 135.303701 
L 190.752 134.924726 
L 184.8 134.539363 
L 178.848 134.147148 
L 172.896 133.747587 
L 166.944 133.340157 
L 160.992 132.924298 
L 155.04 132.499412 
L 149.088 132.064859 
L 143.136 131.619953 
L 138.410536 131.256 
L 137.184 131.12603 
L 131.232 130.47371 
L 125.28 129.817162 
L 119.328 129.154918 
L 113.376 128.485445 
L 107.424 127.807131 
L 101.472 127.118261 
L 95.52 126.416982 
L 89.660548 125.712 
L 89.568 125.697011 
L 83.616 124.688656 
L 77.664 123.681613 
L 71.712 122.670466 
L 65.76 121.649454 
L 59.808 120.612254 
L 57.384304 120.168 
L 53.856 119.319692 
L 47.904 117.857183 
L 41.952 116.386145 
L 36 114.877225 
z
" clip-path="url(#p8fb40f5a03)" style="fill: #b2dd2d"/>
    <path d="M 36 81.36 
L 36 76.958796 
L 41.952 78.052483 
L 47.904 79.161147 
L 53.856 80.248796 
L 59.808 81.297208 
L 60.162889 81.36 
L 65.76 82.540417 
L 71.712 83.704644 
L 77.664 84.781213 
L 83.616 85.77874 
L 89.568 86.705229 
L 90.893602 86.904 
L 95.52 87.7456 
L 101.472 88.746873 
L 107.424 89.666327 
L 113.376 90.514897 
L 119.328 91.301524 
L 125.28 92.033605 
L 128.838613 92.448 
L 131.232 92.79367 
L 137.184 93.605519 
L 143.136 94.355911 
L 149.088 95.052623 
L 155.04 95.702072 
L 160.992 96.309609 
L 166.944 96.879744 
L 172.896 97.416307 
L 178.848 97.922579 
L 179.693428 97.992 
L 184.8 98.521852 
L 190.752 99.101884 
L 196.704 99.645981 
L 202.656 100.157861 
L 208.608 100.640709 
L 214.56 101.09727 
L 214.56 103.536 
L 214.56 107.466984 
L 208.608 107.039011 
L 202.656 106.582956 
L 196.704 106.095147 
L 190.752 105.571145 
L 184.8 105.005524 
L 178.848 104.391554 
L 172.896 103.720779 
L 171.345462 103.536 
L 166.944 103.174215 
L 160.992 102.656844 
L 155.04 102.102468 
L 149.088 101.505695 
L 143.136 100.859832 
L 137.184 100.156438 
L 131.232 99.384671 
L 125.28 98.530301 
L 121.825574 97.992 
L 119.328 97.712325 
L 113.376 97.013233 
L 107.424 96.255302 
L 101.472 95.428223 
L 95.52 94.5186 
L 89.568 93.50856 
L 83.975278 92.448 
L 83.616 92.397306 
L 77.664 91.546986 
L 71.712 90.633007 
L 65.76 89.649497 
L 59.808 88.591584 
L 53.856 87.457391 
L 50.928385 86.904 
L 47.904 86.478958 
L 41.952 85.729515 
L 36 85.114551 
z
" clip-path="url(#p8fb40f5a03)" style="fill: #b2dd2d"/>
   </g>
   <g id="PathCollection_13">
    <path d="M 39.876483 109.08 
L 36 107.476688 
L 36 103.536 
L 36 97.992 
L 36 92.448 
L 36 86.904 
L 36 85.114551 
L 41.952 85.729515 
L 47.904 86.478958 
L 50.928385 86.904 
L 53.856 87.457391 
L 59.808 88.591584 
L 65.76 89.649497 
L 71.712 90.633007 
L 77.664 91.546986 
L 83.616 92.397306 
L 83.975278 92.448 
L 89.568 93.50856 
L 95.52 94.5186 
L 101.472 95.428223 
L 107.424 96.255302 
L 113.376 97.013233 
L 119.328 97.712325 
L 121.825574 97.992 
L 125.28 98.530301 
L 131.232 99.384671 
L 137.184 100.156438 
L 143.136 100.859832 
L 149.088 101.505695 
L 155.04 102.102468 
L 160.992 102.656844 
L 166.944 103.174215 
L 171.345462 103.536 
L 172.896 103.720779 
L 178.848 104.391554 
L 184.8 105.005524 
L 190.752 105.571145 
L 196.704 106.095147 
L 202.656 106.582956 
L 208.608 107.039011 
L 214.56 107.466984 
L 214.56 109.08 
L 214.56 114.624 
L 214.56 120.168 
L 214.56 125.712 
L 214.56 130.805634 
L 208.608 130.420775 
L 202.656 130.035769 
L 196.704 129.649804 
L 190.752 129.262076 
L 184.8 128.871793 
L 178.848 128.478161 
L 172.896 128.08038 
L 166.944 127.677643 
L 160.992 127.269124 
L 155.04 126.853975 
L 149.088 126.431318 
L 143.136 126.00024 
L 139.290843 125.712 
L 137.184 125.465677 
L 131.232 124.757458 
L 125.28 124.060557 
L 119.328 123.371041 
L 113.376 122.685267 
L 107.424 121.999794 
L 101.472 121.311298 
L 95.52 120.616495 
L 91.803003 120.168 
L 89.568 119.762269 
L 83.616 118.668917 
L 77.664 117.606773 
L 71.712 116.562572 
L 65.76 115.524191 
L 60.67926 114.624 
L 59.808 114.393406 
L 53.856 112.765877 
L 47.904 111.200309 
L 41.952 109.657764 
z
" clip-path="url(#p8fb40f5a03)" style="fill: #e7e419"/>
   </g>
   <g id="PathCollection_14">
    <defs>
     <path id="m4a577e3f08" d="M -4.330127 4.330127 
L 4.330127 -4.330127 
M -4.330127 -4.330127 
L 4.330127 4.330127 
" style="stroke: #000000; stroke-width: 2"/>
    </defs>
    <g clip-path="url(#p8fb40f5a03)">
     <use xlink:href="#m4a577e3f08" x="105.44" y="109.08" style="stroke: #000000; stroke-width: 2"/>
    </g>
   </g>
   <g id="matplotlib.axis_1">
    <g id="xtick_1">
     <g id="line2d_1">
      <defs>
       <path id="ma0392024f6" d="M 0 0 
L 0 3.5 
" style="stroke: #000000; stroke-width: 0.8"/>
      </defs>
      <g>
       <use xlink:href="#ma0392024f6" x="65.76" y="192.24" style="stroke: #000000; stroke-width: 0.8"/>
      </g>
     </g>
     <g id="text_1">
      <!-- 200 -->
      <g transform="translate(54.3075 208.358125) scale(0.12 -0.12)">
       <defs>
        <path id="DejaVuSans-32" d="M 1228 531 
L 3431 531 
L 3431 0 
L 469 0 
L 469 531 
Q 828 903 1448 1529 
Q 2069 2156 2228 2338 
Q 2531 2678 2651 2914 
Q 2772 3150 2772 3378 
Q 2772 3750 2511 3984 
Q 2250 4219 1831 4219 
Q 1534 4219 1204 4116 
Q 875 4013 500 3803 
L 500 4441 
Q 881 4594 1212 4672 
Q 1544 4750 1819 4750 
Q 2544 4750 2975 4387 
Q 3406 4025 3406 3419 
Q 3406 3131 3298 2873 
Q 3191 2616 2906 2266 
Q 2828 2175 2409 1742 
Q 1991 1309 1228 531 
z
" transform="scale(0.015625)"/>
        <path id="DejaVuSans-30" d="M 2034 4250 
Q 1547 4250 1301 3770 
Q 1056 3291 1056 2328 
Q 1056 1369 1301 889 
Q 1547 409 2034 409 
Q 2525 409 2770 889 
Q 3016 1369 3016 2328 
Q 3016 3291 2770 3770 
Q 2525 4250 2034 4250 
z
M 2034 4750 
Q 2819 4750 3233 4129 
Q 3647 3509 3647 2328 
Q 3647 1150 3233 529 
Q 2819 -91 2034 -91 
Q 1250 -91 836 529 
Q 422 1150 422 2328 
Q 422 3509 836 4129 
Q 1250 4750 2034 4750 
z
" transform="scale(0.015625)"/>
       </defs>
       <use xlink:href="#DejaVuSans-32"/>
       <use xlink:href="#DejaVuSans-30" x="63.623047"/>
       <use xlink:href="#DejaVuSans-30" x="127.246094"/>
      </g>
     </g>
    </g>
    <g id="xtick_2">
     <g id="line2d_2">
      <g>
       <use xlink:href="#ma0392024f6" x="105.44" y="192.24" style="stroke: #000000; stroke-width: 0.8"/>
      </g>
     </g>
     <g id="text_2">
      <!-- 400 -->
      <g transform="translate(93.9875 208.358125) scale(0.12 -0.12)">
       <defs>
        <path id="DejaVuSans-34" d="M 2419 4116 
L 825 1625 
L 2419 1625 
L 2419 4116 
z
M 2253 4666 
L 3047 4666 
L 3047 1625 
L 3713 1625 
L 3713 1100 
L 3047 1100 
L 3047 0 
L 2419 0 
L 2419 1100 
L 313 1100 
L 313 1709 
L 2253 4666 
z
" transform="scale(0.015625)"/>
       </defs>
       <use xlink:href="#DejaVuSans-34"/>
       <use xlink:href="#DejaVuSans-30" x="63.623047"/>
       <use xlink:href="#DejaVuSans-30" x="127.246094"/>
      </g>
     </g>
    </g>
    <g id="xtick_3">
     <g id="line2d_3">
      <g>
       <use xlink:href="#ma0392024f6" x="145.12" y="192.24" style="stroke: #000000; stroke-width: 0.8"/>
      </g>
     </g>
     <g id="text_3">
      <!-- 600 -->
      <g transform="translate(133.6675 208.358125) scale(0.12 -0.12)">
       <defs>
        <path id="DejaVuSans-36" d="M 2113 2584 
Q 1688 2584 1439 2293 
Q 1191 2003 1191 1497 
Q 1191 994 1439 701 
Q 1688 409 2113 409 
Q 2538 409 2786 701 
Q 3034 994 3034 1497 
Q 3034 2003 2786 2293 
Q 2538 2584 2113 2584 
z
M 3366 4563 
L 3366 3988 
Q 3128 4100 2886 4159 
Q 2644 4219 2406 4219 
Q 1781 4219 1451 3797 
Q 1122 3375 1075 2522 
Q 1259 2794 1537 2939 
Q 1816 3084 2150 3084 
Q 2853 3084 3261 2657 
Q 3669 2231 3669 1497 
Q 3669 778 3244 343 
Q 2819 -91 2113 -91 
Q 1303 -91 875 529 
Q 447 1150 447 2328 
Q 447 3434 972 4092 
Q 1497 4750 2381 4750 
Q 2619 4750 2861 4703 
Q 3103 4656 3366 4563 
z
" transform="scale(0.015625)"/>
       </defs>
       <use xlink:href="#DejaVuSans-36"/>
       <use xlink:href="#DejaVuSans-30" x="63.623047"/>
       <use xlink:href="#DejaVuSans-30" x="127.246094"/>
      </g>
     </g>
    </g>
    <g id="xtick_4">
     <g id="line2d_4">
      <g>
       <use xlink:href="#ma0392024f6" x="184.8" y="192.24" style="stroke: #000000; stroke-width: 0.8"/>
      </g>
     </g>
     <g id="text_4">
      <!-- 800 -->
      <g transform="translate(173.3475 208.358125) scale(0.12 -0.12)">
       <defs>
        <path id="DejaVuSans-38" d="M 2034 2216 
Q 1584 2216 1326 1975 
Q 1069 1734 1069 1313 
Q 1069 891 1326 650 
Q 1584 409 2034 409 
Q 2484 409 2743 651 
Q 3003 894 3003 1313 
Q 3003 1734 2745 1975 
Q 2488 2216 2034 2216 
z
M 1403 2484 
Q 997 2584 770 2862 
Q 544 3141 544 3541 
Q 544 4100 942 4425 
Q 1341 4750 2034 4750 
Q 2731 4750 3128 4425 
Q 3525 4100 3525 3541 
Q 3525 3141 3298 2862 
Q 3072 2584 2669 2484 
Q 3125 2378 3379 2068 
Q 3634 1759 3634 1313 
Q 3634 634 3220 271 
Q 2806 -91 2034 -91 
Q 1263 -91 848 271 
Q 434 634 434 1313 
Q 434 1759 690 2068 
Q 947 2378 1403 2484 
z
M 1172 3481 
Q 1172 3119 1398 2916 
Q 1625 2713 2034 2713 
Q 2441 2713 2670 2916 
Q 2900 3119 2900 3481 
Q 2900 3844 2670 4047 
Q 2441 4250 2034 4250 
Q 1625 4250 1398 4047 
Q 1172 3844 1172 3481 
z
" transform="scale(0.015625)"/>
       </defs>
       <use xlink:href="#DejaVuSans-38"/>
       <use xlink:href="#DejaVuSans-30" x="63.623047"/>
       <use xlink:href="#DejaVuSans-30" x="127.246094"/>
      </g>
     </g>
    </g>
    <g id="text_5">
     <!-- Diploid N$_e$2 -->
     <g transform="translate(80 227.01375) scale(0.16 -0.16)">
      <defs>
       <path id="DejaVuSans-44" d="M 1259 4147 
L 1259 519 
L 2022 519 
Q 2988 519 3436 956 
Q 3884 1394 3884 2338 
Q 3884 3275 3436 3711 
Q 2988 4147 2022 4147 
L 1259 4147 
z
M 628 4666 
L 1925 4666 
Q 3281 4666 3915 4102 
Q 4550 3538 4550 2338 
Q 4550 1131 3912 565 
Q 3275 0 1925 0 
L 628 0 
L 628 4666 
z
" transform="scale(0.015625)"/>
       <path id="DejaVuSans-69" d="M 603 3500 
L 1178 3500 
L 1178 0 
L 603 0 
L 603 3500 
z
M 603 4863 
L 1178 4863 
L 1178 4134 
L 603 4134 
L 603 4863 
z
" transform="scale(0.015625)"/>
       <path id="DejaVuSans-70" d="M 1159 525 
L 1159 -1331 
L 581 -1331 
L 581 3500 
L 1159 3500 
L 1159 2969 
Q 1341 3281 1617 3432 
Q 1894 3584 2278 3584 
Q 2916 3584 3314 3078 
Q 3713 2572 3713 1747 
Q 3713 922 3314 415 
Q 2916 -91 2278 -91 
Q 1894 -91 1617 61 
Q 1341 213 1159 525 
z
M 3116 1747 
Q 3116 2381 2855 2742 
Q 2594 3103 2138 3103 
Q 1681 3103 1420 2742 
Q 1159 2381 1159 1747 
Q 1159 1113 1420 752 
Q 1681 391 2138 391 
Q 2594 391 2855 752 
Q 3116 1113 3116 1747 
z
" transform="scale(0.015625)"/>
       <path id="DejaVuSans-6c" d="M 603 4863 
L 1178 4863 
L 1178 0 
L 603 0 
L 603 4863 
z
" transform="scale(0.015625)"/>
       <path id="DejaVuSans-6f" d="M 1959 3097 
Q 1497 3097 1228 2736 
Q 959 2375 959 1747 
Q 959 1119 1226 758 
Q 1494 397 1959 397 
Q 2419 397 2687 759 
Q 2956 1122 2956 1747 
Q 2956 2369 2687 2733 
Q 2419 3097 1959 3097 
z
M 1959 3584 
Q 2709 3584 3137 3096 
Q 3566 2609 3566 1747 
Q 3566 888 3137 398 
Q 2709 -91 1959 -91 
Q 1206 -91 779 398 
Q 353 888 353 1747 
Q 353 2609 779 3096 
Q 1206 3584 1959 3584 
z
" transform="scale(0.015625)"/>
       <path id="DejaVuSans-64" d="M 2906 2969 
L 2906 4863 
L 3481 4863 
L 3481 0 
L 2906 0 
L 2906 525 
Q 2725 213 2448 61 
Q 2172 -91 1784 -91 
Q 1150 -91 751 415 
Q 353 922 353 1747 
Q 353 2572 751 3078 
Q 1150 3584 1784 3584 
Q 2172 3584 2448 3432 
Q 2725 3281 2906 2969 
z
M 947 1747 
Q 947 1113 1208 752 
Q 1469 391 1925 391 
Q 2381 391 2643 752 
Q 2906 1113 2906 1747 
Q 2906 2381 2643 2742 
Q 2381 3103 1925 3103 
Q 1469 3103 1208 2742 
Q 947 2381 947 1747 
z
" transform="scale(0.015625)"/>
       <path id="DejaVuSans-20" transform="scale(0.015625)"/>
       <path id="DejaVuSans-4e" d="M 628 4666 
L 1478 4666 
L 3547 763 
L 3547 4666 
L 4159 4666 
L 4159 0 
L 3309 0 
L 1241 3903 
L 1241 0 
L 628 0 
L 628 4666 
z
" transform="scale(0.015625)"/>
       <path id="DejaVuSans-Oblique-65" d="M 3078 2063 
Q 3088 2113 3092 2166 
Q 3097 2219 3097 2272 
Q 3097 2653 2873 2875 
Q 2650 3097 2266 3097 
Q 1838 3097 1509 2826 
Q 1181 2556 1013 2059 
L 3078 2063 
z
M 3578 1613 
L 903 1613 
Q 884 1494 878 1425 
Q 872 1356 872 1306 
Q 872 872 1139 634 
Q 1406 397 1894 397 
Q 2269 397 2603 481 
Q 2938 566 3225 728 
L 3116 159 
Q 2806 34 2476 -28 
Q 2147 -91 1806 -91 
Q 1078 -91 686 257 
Q 294 606 294 1247 
Q 294 1794 489 2264 
Q 684 2734 1063 3103 
Q 1306 3334 1642 3459 
Q 1978 3584 2356 3584 
Q 2950 3584 3301 3228 
Q 3653 2872 3653 2272 
Q 3653 2128 3634 1964 
Q 3616 1800 3578 1613 
z
" transform="scale(0.015625)"/>
      </defs>
      <use xlink:href="#DejaVuSans-44" transform="translate(0 0.015625)"/>
      <use xlink:href="#DejaVuSans-69" transform="translate(77.001953 0.015625)"/>
      <use xlink:href="#DejaVuSans-70" transform="translate(104.785156 0.015625)"/>
      <use xlink:href="#DejaVuSans-6c" transform="translate(168.261719 0.015625)"/>
      <use xlink:href="#DejaVuSans-6f" transform="translate(196.044922 0.015625)"/>
      <use xlink:href="#DejaVuSans-69" transform="translate(257.226562 0.015625)"/>
      <use xlink:href="#DejaVuSans-64" transform="translate(285.009766 0.015625)"/>
      <use xlink:href="#DejaVuSans-20" transform="translate(348.486328 0.015625)"/>
      <use xlink:href="#DejaVuSans-4e" transform="translate(380.273438 0.015625)"/>
      <use xlink:href="#DejaVuSans-Oblique-65" transform="translate(456.035156 -16.390625) scale(0.7)"/>
      <use xlink:href="#DejaVuSans-32" transform="translate(501.835938 0.015625)"/>
     </g>
    </g>
    <g id="text_6">
     <!-- 1e3 -->
     <g transform="translate(195.681875 221.452188) scale(0.1 -0.1)">
      <defs>
       <path id="DejaVuSans-31" d="M 794 531 
L 1825 531 
L 1825 4091 
L 703 3866 
L 703 4441 
L 1819 4666 
L 2450 4666 
L 2450 531 
L 3481 531 
L 3481 0 
L 794 0 
L 794 531 
z
" transform="scale(0.015625)"/>
       <path id="DejaVuSans-65" d="M 3597 1894 
L 3597 1613 
L 953 1613 
Q 991 1019 1311 708 
Q 1631 397 2203 397 
Q 2534 397 2845 478 
Q 3156 559 3463 722 
L 3463 178 
Q 3153 47 2828 -22 
Q 2503 -91 2169 -91 
Q 1331 -91 842 396 
Q 353 884 353 1716 
Q 353 2575 817 3079 
Q 1281 3584 2069 3584 
Q 2775 3584 3186 3129 
Q 3597 2675 3597 1894 
z
M 3022 2063 
Q 3016 2534 2758 2815 
Q 2500 3097 2075 3097 
Q 1594 3097 1305 2825 
Q 1016 2553 972 2059 
L 3022 2063 
z
" transform="scale(0.015625)"/>
       <path id="DejaVuSans-33" d="M 2597 2516 
Q 3050 2419 3304 2112 
Q 3559 1806 3559 1356 
Q 3559 666 3084 287 
Q 2609 -91 1734 -91 
Q 1441 -91 1130 -33 
Q 819 25 488 141 
L 488 750 
Q 750 597 1062 519 
Q 1375 441 1716 441 
Q 2309 441 2620 675 
Q 2931 909 2931 1356 
Q 2931 1769 2642 2001 
Q 2353 2234 1838 2234 
L 1294 2234 
L 1294 2753 
L 1863 2753 
Q 2328 2753 2575 2939 
Q 2822 3125 2822 3475 
Q 2822 3834 2567 4026 
Q 2313 4219 1838 4219 
Q 1578 4219 1281 4162 
Q 984 4106 628 3988 
L 628 4550 
Q 988 4650 1302 4700 
Q 1616 4750 1894 4750 
Q 2613 4750 3031 4423 
Q 3450 4097 3450 3541 
Q 3450 3153 3228 2886 
Q 3006 2619 2597 2516 
z
" transform="scale(0.015625)"/>
      </defs>
      <use xlink:href="#DejaVuSans-31"/>
      <use xlink:href="#DejaVuSans-65" x="63.623047"/>
      <use xlink:href="#DejaVuSans-33" x="125.146484"/>
     </g>
    </g>
   </g>
   <g id="matplotlib.axis_2">
    <g id="ytick_1">
     <g id="line2d_5">
      <defs>
       <path id="me0a07eddc6" d="M 0 0 
L -3.5 0 
" style="stroke: #000000; stroke-width: 0.8"/>
      </defs>
      <g>
       <use xlink:href="#me0a07eddc6" x="36" y="192.24" style="stroke: #000000; stroke-width: 0.8"/>
      </g>
     </g>
     <g id="text_7">
      <!-- 1.0 -->
      <g transform="translate(9.91625 196.799062) scale(0.12 -0.12)">
       <defs>
        <path id="DejaVuSans-2e" d="M 684 794 
L 1344 794 
L 1344 0 
L 684 0 
L 684 794 
z
" transform="scale(0.015625)"/>
       </defs>
       <use xlink:href="#DejaVuSans-31"/>
       <use xlink:href="#DejaVuSans-2e" x="63.623047"/>
       <use xlink:href="#DejaVuSans-30" x="95.410156"/>
      </g>
     </g>
    </g>
    <g id="ytick_2">
     <g id="line2d_6">
      <g>
       <use xlink:href="#me0a07eddc6" x="36" y="150.66" style="stroke: #000000; stroke-width: 0.8"/>
      </g>
     </g>
     <g id="text_8">
      <!-- 1.5 -->
      <g transform="translate(9.91625 155.219063) scale(0.12 -0.12)">
       <defs>
        <path id="DejaVuSans-35" d="M 691 4666 
L 3169 4666 
L 3169 4134 
L 1269 4134 
L 1269 2991 
Q 1406 3038 1543 3061 
Q 1681 3084 1819 3084 
Q 2600 3084 3056 2656 
Q 3513 2228 3513 1497 
Q 3513 744 3044 326 
Q 2575 -91 1722 -91 
Q 1428 -91 1123 -41 
Q 819 9 494 109 
L 494 744 
Q 775 591 1075 516 
Q 1375 441 1709 441 
Q 2250 441 2565 725 
Q 2881 1009 2881 1497 
Q 2881 1984 2565 2268 
Q 2250 2553 1709 2553 
Q 1456 2553 1204 2497 
Q 953 2441 691 2322 
L 691 4666 
z
" transform="scale(0.015625)"/>
       </defs>
       <use xlink:href="#DejaVuSans-31"/>
       <use xlink:href="#DejaVuSans-2e" x="63.623047"/>
       <use xlink:href="#DejaVuSans-35" x="95.410156"/>
      </g>
     </g>
    </g>
    <g id="ytick_3">
     <g id="line2d_7">
      <g>
       <use xlink:href="#me0a07eddc6" x="36" y="109.08" style="stroke: #000000; stroke-width: 0.8"/>
      </g>
     </g>
     <g id="text_9">
      <!-- 2.0 -->
      <g transform="translate(9.91625 113.639062) scale(0.12 -0.12)">
       <use xlink:href="#DejaVuSans-32"/>
       <use xlink:href="#DejaVuSans-2e" x="63.623047"/>
       <use xlink:href="#DejaVuSans-30" x="95.410156"/>
      </g>
     </g>
    </g>
    <g id="ytick_4">
     <g id="line2d_8">
      <g>
       <use xlink:href="#me0a07eddc6" x="36" y="67.5" style="stroke: #000000; stroke-width: 0.8"/>
      </g>
     </g>
     <g id="text_10">
      <!-- 2.5 -->
      <g transform="translate(9.91625 72.059063) scale(0.12 -0.12)">
       <use xlink:href="#DejaVuSans-32"/>
       <use xlink:href="#DejaVuSans-2e" x="63.623047"/>
       <use xlink:href="#DejaVuSans-35" x="95.410156"/>
      </g>
     </g>
    </g>
    <g id="ytick_5">
     <g id="line2d_9">
      <g>
       <use xlink:href="#me0a07eddc6" x="36" y="25.92" style="stroke: #000000; stroke-width: 0.8"/>
      </g>
     </g>
     <g id="text_11">
      <!-- 3.0 -->
      <g transform="translate(9.91625 30.479062) scale(0.12 -0.12)">
       <use xlink:href="#DejaVuSans-33"/>
       <use xlink:href="#DejaVuSans-2e" x="63.623047"/>
       <use xlink:href="#DejaVuSans-30" x="95.410156"/>
      </g>
     </g>
    </g>
    <g id="text_12">
     <!-- Recombination rate -->
     <g transform="translate(2.58875 187.6775) rotate(-90) scale(0.16 -0.16)">
      <defs>
       <path id="DejaVuSans-52" d="M 2841 2188 
Q 3044 2119 3236 1894 
Q 3428 1669 3622 1275 
L 4263 0 
L 3584 0 
L 2988 1197 
Q 2756 1666 2539 1819 
Q 2322 1972 1947 1972 
L 1259 1972 
L 1259 0 
L 628 0 
L 628 4666 
L 2053 4666 
Q 2853 4666 3247 4331 
Q 3641 3997 3641 3322 
Q 3641 2881 3436 2590 
Q 3231 2300 2841 2188 
z
M 1259 4147 
L 1259 2491 
L 2053 2491 
Q 2509 2491 2742 2702 
Q 2975 2913 2975 3322 
Q 2975 3731 2742 3939 
Q 2509 4147 2053 4147 
L 1259 4147 
z
" transform="scale(0.015625)"/>
       <path id="DejaVuSans-63" d="M 3122 3366 
L 3122 2828 
Q 2878 2963 2633 3030 
Q 2388 3097 2138 3097 
Q 1578 3097 1268 2742 
Q 959 2388 959 1747 
Q 959 1106 1268 751 
Q 1578 397 2138 397 
Q 2388 397 2633 464 
Q 2878 531 3122 666 
L 3122 134 
Q 2881 22 2623 -34 
Q 2366 -91 2075 -91 
Q 1284 -91 818 406 
Q 353 903 353 1747 
Q 353 2603 823 3093 
Q 1294 3584 2113 3584 
Q 2378 3584 2631 3529 
Q 2884 3475 3122 3366 
z
" transform="scale(0.015625)"/>
       <path id="DejaVuSans-6d" d="M 3328 2828 
Q 3544 3216 3844 3400 
Q 4144 3584 4550 3584 
Q 5097 3584 5394 3201 
Q 5691 2819 5691 2113 
L 5691 0 
L 5113 0 
L 5113 2094 
Q 5113 2597 4934 2840 
Q 4756 3084 4391 3084 
Q 3944 3084 3684 2787 
Q 3425 2491 3425 1978 
L 3425 0 
L 2847 0 
L 2847 2094 
Q 2847 2600 2669 2842 
Q 2491 3084 2119 3084 
Q 1678 3084 1418 2786 
Q 1159 2488 1159 1978 
L 1159 0 
L 581 0 
L 581 3500 
L 1159 3500 
L 1159 2956 
Q 1356 3278 1631 3431 
Q 1906 3584 2284 3584 
Q 2666 3584 2933 3390 
Q 3200 3197 3328 2828 
z
" transform="scale(0.015625)"/>
       <path id="DejaVuSans-62" d="M 3116 1747 
Q 3116 2381 2855 2742 
Q 2594 3103 2138 3103 
Q 1681 3103 1420 2742 
Q 1159 2381 1159 1747 
Q 1159 1113 1420 752 
Q 1681 391 2138 391 
Q 2594 391 2855 752 
Q 3116 1113 3116 1747 
z
M 1159 2969 
Q 1341 3281 1617 3432 
Q 1894 3584 2278 3584 
Q 2916 3584 3314 3078 
Q 3713 2572 3713 1747 
Q 3713 922 3314 415 
Q 2916 -91 2278 -91 
Q 1894 -91 1617 61 
Q 1341 213 1159 525 
L 1159 0 
L 581 0 
L 581 4863 
L 1159 4863 
L 1159 2969 
z
" transform="scale(0.015625)"/>
       <path id="DejaVuSans-6e" d="M 3513 2113 
L 3513 0 
L 2938 0 
L 2938 2094 
Q 2938 2591 2744 2837 
Q 2550 3084 2163 3084 
Q 1697 3084 1428 2787 
Q 1159 2491 1159 1978 
L 1159 0 
L 581 0 
L 581 3500 
L 1159 3500 
L 1159 2956 
Q 1366 3272 1645 3428 
Q 1925 3584 2291 3584 
Q 2894 3584 3203 3211 
Q 3513 2838 3513 2113 
z
" transform="scale(0.015625)"/>
       <path id="DejaVuSans-61" d="M 2194 1759 
Q 1497 1759 1228 1600 
Q 959 1441 959 1056 
Q 959 750 1161 570 
Q 1363 391 1709 391 
Q 2188 391 2477 730 
Q 2766 1069 2766 1631 
L 2766 1759 
L 2194 1759 
z
M 3341 1997 
L 3341 0 
L 2766 0 
L 2766 531 
Q 2569 213 2275 61 
Q 1981 -91 1556 -91 
Q 1019 -91 701 211 
Q 384 513 384 1019 
Q 384 1609 779 1909 
Q 1175 2209 1959 2209 
L 2766 2209 
L 2766 2266 
Q 2766 2663 2505 2880 
Q 2244 3097 1772 3097 
Q 1472 3097 1187 3025 
Q 903 2953 641 2809 
L 641 3341 
Q 956 3463 1253 3523 
Q 1550 3584 1831 3584 
Q 2591 3584 2966 3190 
Q 3341 2797 3341 1997 
z
" transform="scale(0.015625)"/>
       <path id="DejaVuSans-74" d="M 1172 4494 
L 1172 3500 
L 2356 3500 
L 2356 3053 
L 1172 3053 
L 1172 1153 
Q 1172 725 1289 603 
Q 1406 481 1766 481 
L 2356 481 
L 2356 0 
L 1766 0 
Q 1100 0 847 248 
Q 594 497 594 1153 
L 594 3053 
L 172 3053 
L 172 3500 
L 594 3500 
L 594 4494 
L 1172 4494 
z
" transform="scale(0.015625)"/>
       <path id="DejaVuSans-72" d="M 2631 2963 
Q 2534 3019 2420 3045 
Q 2306 3072 2169 3072 
Q 1681 3072 1420 2755 
Q 1159 2438 1159 1844 
L 1159 0 
L 581 0 
L 581 3500 
L 1159 3500 
L 1159 2956 
Q 1341 3275 1631 3429 
Q 1922 3584 2338 3584 
Q 2397 3584 2469 3576 
Q 2541 3569 2628 3553 
L 2631 2963 
z
" transform="scale(0.015625)"/>
      </defs>
      <use xlink:href="#DejaVuSans-52"/>
      <use xlink:href="#DejaVuSans-65" x="64.982422"/>
      <use xlink:href="#DejaVuSans-63" x="126.505859"/>
      <use xlink:href="#DejaVuSans-6f" x="181.486328"/>
      <use xlink:href="#DejaVuSans-6d" x="242.667969"/>
      <use xlink:href="#DejaVuSans-62" x="340.080078"/>
      <use xlink:href="#DejaVuSans-69" x="403.556641"/>
      <use xlink:href="#DejaVuSans-6e" x="431.339844"/>
      <use xlink:href="#DejaVuSans-61" x="494.71875"/>
      <use xlink:href="#DejaVuSans-74" x="555.998047"/>
      <use xlink:href="#DejaVuSans-69" x="595.207031"/>
      <use xlink:href="#DejaVuSans-6f" x="622.990234"/>
      <use xlink:href="#DejaVuSans-6e" x="684.171875"/>
      <use xlink:href="#DejaVuSans-20" x="747.550781"/>
      <use xlink:href="#DejaVuSans-72" x="779.337891"/>
      <use xlink:href="#DejaVuSans-61" x="820.451172"/>
      <use xlink:href="#DejaVuSans-74" x="881.730469"/>
      <use xlink:href="#DejaVuSans-65" x="920.939453"/>
     </g>
    </g>
    <g id="text_13">
     <!-- 1e9 -->
     <g transform="translate(36 22.92) scale(0.1 -0.1)">
      <defs>
       <path id="DejaVuSans-2212" d="M 678 2272 
L 4684 2272 
L 4684 1741 
L 678 1741 
L 678 2272 
z
" transform="scale(0.015625)"/>
       <path id="DejaVuSans-39" d="M 703 97 
L 703 672 
Q 941 559 1184 500 
Q 1428 441 1663 441 
Q 2288 441 2617 861 
Q 2947 1281 2994 2138 
Q 2813 1869 2534 1725 
Q 2256 1581 1919 1581 
Q 1219 1581 811 2004 
Q 403 2428 403 3163 
Q 403 3881 828 4315 
Q 1253 4750 1959 4750 
Q 2769 4750 3195 4129 
Q 3622 3509 3622 2328 
Q 3622 1225 3098 567 
Q 2575 -91 1691 -91 
Q 1453 -91 1209 -44 
Q 966 3 703 97 
z
M 1959 2075 
Q 2384 2075 2632 2365 
Q 2881 2656 2881 3163 
Q 2881 3666 2632 3958 
Q 2384 4250 1959 4250 
Q 1534 4250 1286 3958 
Q 1038 3666 1038 3163 
Q 1038 2656 1286 2365 
Q 1534 2075 1959 2075 
z
" transform="scale(0.015625)"/>
      </defs>
      <use xlink:href="#DejaVuSans-31"/>
      <use xlink:href="#DejaVuSans-65" x="63.623047"/>
      <use xlink:href="#DejaVuSans-2212" x="125.146484"/>
      <use xlink:href="#DejaVuSans-39" x="208.935547"/>
     </g>
    </g>
   </g>
   <g id="patch_3">
    <path d="M 36 192.24 
L 36 25.92 
" style="fill: none; stroke: #000000; stroke-width: 0.8; stroke-linejoin: miter; stroke-linecap: square"/>
   </g>
   <g id="patch_4">
    <path d="M 214.56 192.24 
L 214.56 25.92 
" style="fill: none; stroke: #000000; stroke-width: 0.8; stroke-linejoin: miter; stroke-linecap: square"/>
   </g>
   <g id="patch_5">
    <path d="M 36 192.24 
L 214.56 192.24 
" style="fill: none; stroke: #000000; stroke-width: 0.8; stroke-linejoin: miter; stroke-linecap: square"/>
   </g>
   <g id="patch_6">
    <path d="M 36 25.92 
L 214.56 25.92 
" style="fill: none; stroke: #000000; stroke-width: 0.8; stroke-linejoin: miter; stroke-linecap: square"/>
   </g>
   <g id="text_14">
    <!-- Ne2r-SMC-GT-P2-S4 -->
    <g transform="translate(46.95375 10.92) scale(0.16 -0.16)">
     <defs>
      <path id="DejaVuSans-2d" d="M 313 2009 
L 1997 2009 
L 1997 1497 
L 313 1497 
L 313 2009 
z
" transform="scale(0.015625)"/>
      <path id="DejaVuSans-53" d="M 3425 4513 
L 3425 3897 
Q 3066 4069 2747 4153 
Q 2428 4238 2131 4238 
Q 1616 4238 1336 4038 
Q 1056 3838 1056 3469 
Q 1056 3159 1242 3001 
Q 1428 2844 1947 2747 
L 2328 2669 
Q 3034 2534 3370 2195 
Q 3706 1856 3706 1288 
Q 3706 609 3251 259 
Q 2797 -91 1919 -91 
Q 1588 -91 1214 -16 
Q 841 59 441 206 
L 441 856 
Q 825 641 1194 531 
Q 1563 422 1919 422 
Q 2459 422 2753 634 
Q 3047 847 3047 1241 
Q 3047 1584 2836 1778 
Q 2625 1972 2144 2069 
L 1759 2144 
Q 1053 2284 737 2584 
Q 422 2884 422 3419 
Q 422 4038 858 4394 
Q 1294 4750 2059 4750 
Q 2388 4750 2728 4690 
Q 3069 4631 3425 4513 
z
" transform="scale(0.015625)"/>
      <path id="DejaVuSans-4d" d="M 628 4666 
L 1569 4666 
L 2759 1491 
L 3956 4666 
L 4897 4666 
L 4897 0 
L 4281 0 
L 4281 4097 
L 3078 897 
L 2444 897 
L 1241 4097 
L 1241 0 
L 628 0 
L 628 4666 
z
" transform="scale(0.015625)"/>
      <path id="DejaVuSans-43" d="M 4122 4306 
L 4122 3641 
Q 3803 3938 3442 4084 
Q 3081 4231 2675 4231 
Q 1875 4231 1450 3742 
Q 1025 3253 1025 2328 
Q 1025 1406 1450 917 
Q 1875 428 2675 428 
Q 3081 428 3442 575 
Q 3803 722 4122 1019 
L 4122 359 
Q 3791 134 3420 21 
Q 3050 -91 2638 -91 
Q 1578 -91 968 557 
Q 359 1206 359 2328 
Q 359 3453 968 4101 
Q 1578 4750 2638 4750 
Q 3056 4750 3426 4639 
Q 3797 4528 4122 4306 
z
" transform="scale(0.015625)"/>
      <path id="DejaVuSans-47" d="M 3809 666 
L 3809 1919 
L 2778 1919 
L 2778 2438 
L 4434 2438 
L 4434 434 
Q 4069 175 3628 42 
Q 3188 -91 2688 -91 
Q 1594 -91 976 548 
Q 359 1188 359 2328 
Q 359 3472 976 4111 
Q 1594 4750 2688 4750 
Q 3144 4750 3555 4637 
Q 3966 4525 4313 4306 
L 4313 3634 
Q 3963 3931 3569 4081 
Q 3175 4231 2741 4231 
Q 1884 4231 1454 3753 
Q 1025 3275 1025 2328 
Q 1025 1384 1454 906 
Q 1884 428 2741 428 
Q 3075 428 3337 486 
Q 3600 544 3809 666 
z
" transform="scale(0.015625)"/>
      <path id="DejaVuSans-54" d="M -19 4666 
L 3928 4666 
L 3928 4134 
L 2272 4134 
L 2272 0 
L 1638 0 
L 1638 4134 
L -19 4134 
L -19 4666 
z
" transform="scale(0.015625)"/>
      <path id="DejaVuSans-50" d="M 1259 4147 
L 1259 2394 
L 2053 2394 
Q 2494 2394 2734 2622 
Q 2975 2850 2975 3272 
Q 2975 3691 2734 3919 
Q 2494 4147 2053 4147 
L 1259 4147 
z
M 628 4666 
L 2053 4666 
Q 2838 4666 3239 4311 
Q 3641 3956 3641 3272 
Q 3641 2581 3239 2228 
Q 2838 1875 2053 1875 
L 1259 1875 
L 1259 0 
L 628 0 
L 628 4666 
z
" transform="scale(0.015625)"/>
     </defs>
     <use xlink:href="#DejaVuSans-4e"/>
     <use xlink:href="#DejaVuSans-65" x="74.804688"/>
     <use xlink:href="#DejaVuSans-32" x="136.328125"/>
     <use xlink:href="#DejaVuSans-72" x="199.951172"/>
     <use xlink:href="#DejaVuSans-2d" x="234.689453"/>
     <use xlink:href="#DejaVuSans-53" x="270.773438"/>
     <use xlink:href="#DejaVuSans-4d" x="334.25"/>
     <use xlink:href="#DejaVuSans-43" x="420.529297"/>
     <use xlink:href="#DejaVuSans-2d" x="490.353516"/>
     <use xlink:href="#DejaVuSans-47" x="530.0625"/>
     <use xlink:href="#DejaVuSans-54" x="603.927734"/>
     <use xlink:href="#DejaVuSans-2d" x="655.886719"/>
     <use xlink:href="#DejaVuSans-50" x="691.970703"/>
     <use xlink:href="#DejaVuSans-32" x="752.273438"/>
     <use xlink:href="#DejaVuSans-2d" x="815.896484"/>
     <use xlink:href="#DejaVuSans-53" x="851.980469"/>
     <use xlink:href="#DejaVuSans-34" x="915.457031"/>
    </g>
   </g>
  </g>
  <g id="axes_2">
   <g id="patch_7">
    <path d="M 225.72 192.24 
L 234.036 192.24 
L 234.036 25.92 
L 225.72 25.92 
z
" style="fill: #ffffff"/>
   </g>
   <g id="QuadMesh_1">
    <path d="M 225.72 192.24 
L 234.036 192.24 
L 234.036 179.446154 
L 225.72 179.446154 
L 225.72 192.24 
" clip-path="url(#p609ce75e7a)" style="fill: #470e61"/>
    <path d="M 225.72 179.446154 
L 234.036 179.446154 
L 234.036 166.652308 
L 225.72 166.652308 
L 225.72 179.446154 
" clip-path="url(#p609ce75e7a)" style="fill: #482979"/>
    <path d="M 225.72 166.652308 
L 234.036 166.652308 
L 234.036 153.858462 
L 225.72 153.858462 
L 225.72 166.652308 
" clip-path="url(#p609ce75e7a)" style="fill: #424086"/>
    <path d="M 225.72 153.858462 
L 234.036 153.858462 
L 234.036 141.064615 
L 225.72 141.064615 
L 225.72 153.858462 
" clip-path="url(#p609ce75e7a)" style="fill: #39568c"/>
    <path d="M 225.72 141.064615 
L 234.036 141.064615 
L 234.036 128.270769 
L 225.72 128.270769 
L 225.72 141.064615 
" clip-path="url(#p609ce75e7a)" style="fill: #2f6b8e"/>
    <path d="M 225.72 128.270769 
L 234.036 128.270769 
L 234.036 115.476923 
L 225.72 115.476923 
L 225.72 128.270769 
" clip-path="url(#p609ce75e7a)" style="fill: #277e8e"/>
    <path d="M 225.72 115.476923 
L 234.036 115.476923 
L 234.036 102.683077 
L 225.72 102.683077 
L 225.72 115.476923 
" clip-path="url(#p609ce75e7a)" style="fill: #21908d"/>
    <path d="M 225.72 102.683077 
L 234.036 102.683077 
L 234.036 89.889231 
L 225.72 89.889231 
L 225.72 102.683077 
" clip-path="url(#p609ce75e7a)" style="fill: #1fa287"/>
    <path d="M 225.72 89.889231 
L 234.036 89.889231 
L 234.036 77.095385 
L 225.72 77.095385 
L 225.72 89.889231 
" clip-path="url(#p609ce75e7a)" style="fill: #31b57b"/>
    <path d="M 225.72 77.095385 
L 234.036 77.095385 
L 234.036 64.301538 
L 225.72 64.301538 
L 225.72 77.095385 
" clip-path="url(#p609ce75e7a)" style="fill: #52c569"/>
    <path d="M 225.72 64.301538 
L 234.036 64.301538 
L 234.036 51.507692 
L 225.72 51.507692 
L 225.72 64.301538 
" clip-path="url(#p609ce75e7a)" style="fill: #7fd34e"/>
    <path d="M 225.72 51.507692 
L 234.036 51.507692 
L 234.036 38.713846 
L 225.72 38.713846 
L 225.72 51.507692 
" clip-path="url(#p609ce75e7a)" style="fill: #b2dd2d"/>
    <path d="M 225.72 38.713846 
L 234.036 38.713846 
L 234.036 25.92 
L 225.72 25.92 
L 225.72 38.713846 
" clip-path="url(#p609ce75e7a)" style="fill: #e7e419"/>
   </g>
   <g id="matplotlib.axis_3"/>
   <g id="matplotlib.axis_4">
    <g id="ytick_6">
     <g id="line2d_10">
      <defs>
       <path id="mca54ff43f2" d="M 0 0 
L 3.5 0 
" style="stroke: #000000; stroke-width: 0.8"/>
      </defs>
      <g>
       <use xlink:href="#mca54ff43f2" x="234.036" y="179.446154" style="stroke: #000000; stroke-width: 0.8"/>
      </g>
     </g>
     <g id="text_15">
      <!-- $\mathdefault{339.0}$ -->
      <g transform="translate(241.036 183.245373) scale(0.1 -0.1)">
       <use xlink:href="#DejaVuSans-2212" transform="translate(0 0.78125)"/>
       <use xlink:href="#DejaVuSans-33" transform="translate(83.789062 0.78125)"/>
       <use xlink:href="#DejaVuSans-33" transform="translate(147.412109 0.78125)"/>
       <use xlink:href="#DejaVuSans-39" transform="translate(211.035156 0.78125)"/>
       <use xlink:href="#DejaVuSans-2e" transform="translate(274.658203 0.78125)"/>
       <use xlink:href="#DejaVuSans-30" transform="translate(306.445312 0.78125)"/>
      </g>
     </g>
    </g>
    <g id="ytick_7">
     <g id="line2d_11">
      <g>
       <use xlink:href="#mca54ff43f2" x="234.036" y="153.858462" style="stroke: #000000; stroke-width: 0.8"/>
      </g>
     </g>
     <g id="text_16">
      <!-- $\mathdefault{338.6}$ -->
      <g transform="translate(241.036 157.65768) scale(0.1 -0.1)">
       <use xlink:href="#DejaVuSans-2212" transform="translate(0 0.78125)"/>
       <use xlink:href="#DejaVuSans-33" transform="translate(83.789062 0.78125)"/>
       <use xlink:href="#DejaVuSans-33" transform="translate(147.412109 0.78125)"/>
       <use xlink:href="#DejaVuSans-38" transform="translate(211.035156 0.78125)"/>
       <use xlink:href="#DejaVuSans-2e" transform="translate(274.658203 0.78125)"/>
       <use xlink:href="#DejaVuSans-36" transform="translate(306.445312 0.78125)"/>
      </g>
     </g>
    </g>
    <g id="ytick_8">
     <g id="line2d_12">
      <g>
       <use xlink:href="#mca54ff43f2" x="234.036" y="128.270769" style="stroke: #000000; stroke-width: 0.8"/>
      </g>
     </g>
     <g id="text_17">
      <!-- $\mathdefault{338.2}$ -->
      <g transform="translate(241.036 132.069988) scale(0.1 -0.1)">
       <use xlink:href="#DejaVuSans-2212" transform="translate(0 0.78125)"/>
       <use xlink:href="#DejaVuSans-33" transform="translate(83.789062 0.78125)"/>
       <use xlink:href="#DejaVuSans-33" transform="translate(147.412109 0.78125)"/>
       <use xlink:href="#DejaVuSans-38" transform="translate(211.035156 0.78125)"/>
       <use xlink:href="#DejaVuSans-2e" transform="translate(274.658203 0.78125)"/>
       <use xlink:href="#DejaVuSans-32" transform="translate(300.945312 0.78125)"/>
      </g>
     </g>
    </g>
    <g id="ytick_9">
     <g id="line2d_13">
      <g>
       <use xlink:href="#mca54ff43f2" x="234.036" y="102.683077" style="stroke: #000000; stroke-width: 0.8"/>
      </g>
     </g>
     <g id="text_18">
      <!-- $\mathdefault{337.8}$ -->
      <g transform="translate(241.036 106.482296) scale(0.1 -0.1)">
       <defs>
        <path id="DejaVuSans-37" d="M 525 4666 
L 3525 4666 
L 3525 4397 
L 1831 0 
L 1172 0 
L 2766 4134 
L 525 4134 
L 525 4666 
z
" transform="scale(0.015625)"/>
       </defs>
       <use xlink:href="#DejaVuSans-2212" transform="translate(0 0.78125)"/>
       <use xlink:href="#DejaVuSans-33" transform="translate(83.789062 0.78125)"/>
       <use xlink:href="#DejaVuSans-33" transform="translate(147.412109 0.78125)"/>
       <use xlink:href="#DejaVuSans-37" transform="translate(211.035156 0.78125)"/>
       <use xlink:href="#DejaVuSans-2e" transform="translate(274.658203 0.78125)"/>
       <use xlink:href="#DejaVuSans-38" transform="translate(303.820312 0.78125)"/>
      </g>
     </g>
    </g>
    <g id="ytick_10">
     <g id="line2d_14">
      <g>
       <use xlink:href="#mca54ff43f2" x="234.036" y="77.095385" style="stroke: #000000; stroke-width: 0.8"/>
      </g>
     </g>
     <g id="text_19">
      <!-- $\mathdefault{337.4}$ -->
      <g transform="translate(241.036 80.894603) scale(0.1 -0.1)">
       <use xlink:href="#DejaVuSans-2212" transform="translate(0 0.78125)"/>
       <use xlink:href="#DejaVuSans-33" transform="translate(83.789062 0.78125)"/>
       <use xlink:href="#DejaVuSans-33" transform="translate(147.412109 0.78125)"/>
       <use xlink:href="#DejaVuSans-37" transform="translate(211.035156 0.78125)"/>
       <use xlink:href="#DejaVuSans-2e" transform="translate(274.658203 0.78125)"/>
       <use xlink:href="#DejaVuSans-34" transform="translate(306.445312 0.78125)"/>
      </g>
     </g>
    </g>
    <g id="ytick_11">
     <g id="line2d_15">
      <g>
       <use xlink:href="#mca54ff43f2" x="234.036" y="51.507692" style="stroke: #000000; stroke-width: 0.8"/>
      </g>
     </g>
     <g id="text_20">
      <!-- $\mathdefault{337.0}$ -->
      <g transform="translate(241.036 55.306911) scale(0.1 -0.1)">
       <use xlink:href="#DejaVuSans-2212" transform="translate(0 0.78125)"/>
       <use xlink:href="#DejaVuSans-33" transform="translate(83.789062 0.78125)"/>
       <use xlink:href="#DejaVuSans-33" transform="translate(147.412109 0.78125)"/>
       <use xlink:href="#DejaVuSans-37" transform="translate(211.035156 0.78125)"/>
       <use xlink:href="#DejaVuSans-2e" transform="translate(274.658203 0.78125)"/>
       <use xlink:href="#DejaVuSans-30" transform="translate(306.445312 0.78125)"/>
      </g>
     </g>
    </g>
    <g id="ytick_12">
     <g id="line2d_16">
      <g>
       <use xlink:href="#mca54ff43f2" x="234.036" y="25.92" style="stroke: #000000; stroke-width: 0.8"/>
      </g>
     </g>
     <g id="text_21">
      <!-- $\mathdefault{336.6}$ -->
      <g transform="translate(241.036 29.719219) scale(0.1 -0.1)">
       <use xlink:href="#DejaVuSans-2212" transform="translate(0 0.78125)"/>
       <use xlink:href="#DejaVuSans-33" transform="translate(83.789062 0.78125)"/>
       <use xlink:href="#DejaVuSans-33" transform="translate(147.412109 0.78125)"/>
       <use xlink:href="#DejaVuSans-36" transform="translate(211.035156 0.78125)"/>
       <use xlink:href="#DejaVuSans-2e" transform="translate(274.658203 0.78125)"/>
       <use xlink:href="#DejaVuSans-36" transform="translate(306.445312 0.78125)"/>
      </g>
     </g>
    </g>
    <g id="text_22">
     <!-- log likelihood -->
     <g transform="translate(291.254125 148.704375) rotate(-90) scale(0.12 -0.12)">
      <defs>
       <path id="DejaVuSans-67" d="M 2906 1791 
Q 2906 2416 2648 2759 
Q 2391 3103 1925 3103 
Q 1463 3103 1205 2759 
Q 947 2416 947 1791 
Q 947 1169 1205 825 
Q 1463 481 1925 481 
Q 2391 481 2648 825 
Q 2906 1169 2906 1791 
z
M 3481 434 
Q 3481 -459 3084 -895 
Q 2688 -1331 1869 -1331 
Q 1566 -1331 1297 -1286 
Q 1028 -1241 775 -1147 
L 775 -588 
Q 1028 -725 1275 -790 
Q 1522 -856 1778 -856 
Q 2344 -856 2625 -561 
Q 2906 -266 2906 331 
L 2906 616 
Q 2728 306 2450 153 
Q 2172 0 1784 0 
Q 1141 0 747 490 
Q 353 981 353 1791 
Q 353 2603 747 3093 
Q 1141 3584 1784 3584 
Q 2172 3584 2450 3431 
Q 2728 3278 2906 2969 
L 2906 3500 
L 3481 3500 
L 3481 434 
z
" transform="scale(0.015625)"/>
       <path id="DejaVuSans-6b" d="M 581 4863 
L 1159 4863 
L 1159 1991 
L 2875 3500 
L 3609 3500 
L 1753 1863 
L 3688 0 
L 2938 0 
L 1159 1709 
L 1159 0 
L 581 0 
L 581 4863 
z
" transform="scale(0.015625)"/>
       <path id="DejaVuSans-68" d="M 3513 2113 
L 3513 0 
L 2938 0 
L 2938 2094 
Q 2938 2591 2744 2837 
Q 2550 3084 2163 3084 
Q 1697 3084 1428 2787 
Q 1159 2491 1159 1978 
L 1159 0 
L 581 0 
L 581 4863 
L 1159 4863 
L 1159 2956 
Q 1366 3272 1645 3428 
Q 1925 3584 2291 3584 
Q 2894 3584 3203 3211 
Q 3513 2838 3513 2113 
z
" transform="scale(0.015625)"/>
      </defs>
      <use xlink:href="#DejaVuSans-6c"/>
      <use xlink:href="#DejaVuSans-6f" x="27.783203"/>
      <use xlink:href="#DejaVuSans-67" x="88.964844"/>
      <use xlink:href="#DejaVuSans-20" x="152.441406"/>
      <use xlink:href="#DejaVuSans-6c" x="184.228516"/>
      <use xlink:href="#DejaVuSans-69" x="212.011719"/>
      <use xlink:href="#DejaVuSans-6b" x="239.794922"/>
      <use xlink:href="#DejaVuSans-65" x="294.080078"/>
      <use xlink:href="#DejaVuSans-6c" x="355.603516"/>
      <use xlink:href="#DejaVuSans-69" x="383.386719"/>
      <use xlink:href="#DejaVuSans-68" x="411.169922"/>
      <use xlink:href="#DejaVuSans-6f" x="474.548828"/>
      <use xlink:href="#DejaVuSans-6f" x="535.730469"/>
      <use xlink:href="#DejaVuSans-64" x="596.912109"/>
     </g>
    </g>
    <g id="text_23">
     <!-- $\times\mathdefault{10^{3}}\mathdefault{}$ -->
     <g transform="translate(208.036 22.92) scale(0.1 -0.1)">
      <defs>
       <path id="DejaVuSans-d7" d="M 4488 3438 
L 3059 2003 
L 4488 575 
L 4116 197 
L 2681 1631 
L 1247 197 
L 878 575 
L 2303 2003 
L 878 3438 
L 1247 3816 
L 2681 2381 
L 4116 3816 
L 4488 3438 
z
" transform="scale(0.015625)"/>
      </defs>
      <use xlink:href="#DejaVuSans-d7" transform="translate(0 0.765625)"/>
      <use xlink:href="#DejaVuSans-31" transform="translate(83.789062 0.765625)"/>
      <use xlink:href="#DejaVuSans-30" transform="translate(147.412109 0.765625)"/>
      <use xlink:href="#DejaVuSans-33" transform="translate(211.992188 39.046875) scale(0.7)"/>
     </g>
    </g>
   </g>
   <g id="LineCollection_1"/>
   <g id="patch_8">
    <path d="M 225.72 192.24 
L 229.878 192.24 
L 234.036 192.24 
L 234.036 25.92 
L 229.878 25.92 
L 225.72 25.92 
L 225.72 192.24 
z
" style="fill: none; stroke: #000000; stroke-width: 0.8; stroke-linejoin: miter; stroke-linecap: square"/>
   </g>
  </g>
 </g>
 <defs>
  <clipPath id="p8fb40f5a03">
   <rect x="36" y="25.92" width="178.56" height="166.32"/>
  </clipPath>
  <clipPath id="p609ce75e7a">
   <rect x="225.72" y="25.92" width="8.316" height="166.32"/>
  </clipPath>
 </defs>
</svg>
