<svg class="toyplot-canvas-Canvas" xmlns:toyplot="http://www.sandia.gov/toyplot" xmlns:xlink="http://www.w3.org/1999/xlink" xmlns="http://www.w3.org/2000/svg" width="300.0px" height="750.0px" viewBox="0 0 300.0 750.0" preserveAspectRatio="xMidYMid meet" style="background-color:transparent;border-color:#292724;border-style:none;border-width:1.0;fill:rgb(16.1%,15.3%,14.1%);fill-opacity:1.0;font-family:Helvetica;font-size:12px;opacity:1.0;stroke:rgb(16.1%,15.3%,14.1%);stroke-opacity:1.0;stroke-width:1.0" id="td993a5ac97304cfea03656580b9e4e24"><g class="toyplot-coordinates-Cartesian" id="t5d64743e123d4e59b5522125a1eb8215"><clipPath id="tc6cb3f16c4744787b4134291a87b4752"><rect x="55.0" y="55.0" width="190.0" height="140.0" /></clipPath><g clip-path="url(#tc6cb3f16c4744787b4134291a87b4752)"><g class="toyplot-mark-Plot" style="fill:none" id="t857610b1d5d04719b2dd547735d655d2"><g class="toyplot-Series"><path d="M 65.0 143.28809233822545 L 65.85 143.4165580901567 L 66.69999999999999 143.54592625711928 L 67.55000000000001 143.67620317817918 L 68.39999999999999 143.8073952369316 L 69.25 143.93950886181366 L 70.1 144.07255052641946 L 70.95 144.20652674981716 L 71.8 144.3414440968685 L 72.64999999999999 144.4773091785505 L 73.5 144.61412865227936 L 74.35 144.75190922223663 L 75.19999999999999 144.89065763969782 L 76.05000000000001 145.03038070336316 L 76.9 145.1710852596907 L 77.75 145.3127782032319 L 78.60000000000001 145.4554664769693 L 79.45 145.59915707265685 L 80.3 145.74385703116255 L 81.15 145.88957344281326 L 82.0 146.03631344774234 L 82.85000000000001 146.18408423623939 L 83.7 146.33289304910258 L 84.55 146.4827471779936 L 85.4 146.63365396579462 L 86.25 146.78562080696852 L 87.1 146.9386551479209 L 87.95 147.09276448736514 L 88.80000000000001 147.24795637668961 L 89.64999999999999 147.40423842032803 L 90.5 147.56161827613175 L 91.35 147.72010365574522 L 92.2 147.87970232498375 L 93.05 148.04042210421403 L 93.9 148.20227086873746 L 94.75 148.36525654917585 L 95.6 148.5293871318601 L 96.44999999999999 148.6946706592217 L 97.30000000000001 148.86111523018656 L 98.15 149.02872900057187 L 99.0 149.19752018348595 L 99.85 149.36749704973056 L 100.7 149.5386679282062 L 101.55 149.71104120632003 L 102.4 149.88462533039728 L 103.25 150.05942880609473 L 104.10000000000001 150.2354601988177 L 104.94999999999999 150.41272813413954 L 105.8 150.59124129822467 L 106.65 150.77100843825377 L 107.5 150.95203836285273 L 108.35 151.13433994252404 L 109.2 151.31792211008158 L 110.05000000000001 151.5027938610883 L 110.9 151.68896425429702 L 111.75 151.87644241209418 L 112.60000000000001 152.0652375209471 L 113.45 152.25535883185387 L 114.29999999999998 152.3484673065756 L 115.15 152.42603271907936 L 116.0 152.50441685921243 L 116.85 152.58362836890564 L 117.69999999999999 152.6636759813082 L 118.55000000000001 152.74456852175035 L 119.4 152.8263149087168 L 120.25 152.90892415482935 L 121.1 152.99240536784112 L 121.95000000000002 153.07676775164043 L 122.8 153.16202060726553 L 123.64999999999999 153.24817333393005 L 124.5 153.33523543005947 L 125.35 153.42321649433802 L 126.19999999999999 153.51212622676715 L 127.04999999999998 153.60197442973495 L 127.9 153.6927710090968 L 128.75 153.7845259752675 L 129.6 153.87724944432503 L 130.45000000000002 153.97095163912584 L 131.3 154.06564289043172 L 132.15 154.16133363804911 L 133.0 154.25803443197987 L 133.85000000000002 154.35575593358442 L 134.7 154.45450891675736 L 135.54999999999998 154.55430426911505 L 136.4 154.65515299319628 L 137.25 154.75706620767488 L 138.1 154.8600551485861 L 138.95 154.96413117056497 L 139.8 155.0693057480983 L 140.65 155.1755904767898 L 141.5 155.28299707463847 L 142.35 155.3915373833306 L 143.20000000000002 155.50122336954502 L 144.05 155.61206712627293 L 144.89999999999998 155.72408087415073 L 145.75 155.8372769628076 L 146.6 155.951667872227 L 147.45 156.06726621412253 L 148.29999999999998 156.18408473332846 L 149.15 156.30213630920488 L 150.0 156.42143395705764 L 150.85 156.54199082957325 L 151.70000000000002 156.66382021826897 L 152.55 156.78693555495835 L 153.4 156.9113504132319 L 154.25 157.0370785099539 L 155.10000000000002 157.1641337067742 L 155.95000000000002 157.29253001165708 L 156.8 157.4222815804252 L 157.65 157.55340271832034 L 158.5 157.68590788158087 L 159.35000000000002 157.81981167903524 L 160.20000000000002 157.9551288737127 L 161.04999999999998 158.0918743844711 L 161.89999999999998 158.23006328764149 L 162.75 158.4365787043828 L 163.6 158.67145586629923 L 164.45 158.9079829362902 L 165.3 159.14617150422947 L 166.14999999999998 159.3860332414046 L 167.0 159.6275799010886 L 167.85 159.87082331911617 L 168.7 160.11577541446346 L 169.55 160.36244818983212 L 170.39999999999998 160.61085373223762 L 171.25 160.86100421360106 L 172.10000000000002 161.1129118913462 L 172.95 161.36658910899962 L 173.8 161.62204829679575 L 174.65 161.8793019722859 L 175.5 162.13836274095158 L 176.35000000000002 162.39924329682242 L 177.2 162.6619564230977 L 178.05 162.92651499277332 L 178.9 163.19293196927205 L 179.75 163.46122040707908 L 180.60000000000002 163.73139345238147 L 181.45000000000002 164.00346434371258 L 182.29999999999998 164.27744641260045 L 183.14999999999998 164.55335308422133 L 184.0 164.83119787805734 L 184.85 165.11099440855892 L 185.7 165.3927563858121 L 186.55 165.6764976162101 L 187.39999999999998 165.96223200313 L 188.25 166.24997354761393 L 189.1 166.53973634905515 L 189.95 166.83153460588883 L 190.8 167.1253826162881 L 191.64999999999998 167.4212947788641 L 192.5 167.7192855933721 L 193.35000000000002 168.01936966142156 L 194.2 168.32156168719197 L 195.05 168.62587647815297 L 195.9 168.93232894579023 L 196.75 169.2409341063359 L 197.60000000000002 169.5517070815048 L 198.45 169.86466309923466 L 199.3 170.1798174944331 L 200.15 170.4971857097285 L 201.0 170.81678329622696 L 201.85000000000002 171.1386259142741 L 202.70000000000002 171.46272933422264 L 203.54999999999998 171.78910943720496 L 204.39999999999998 172.1177822159114 L 205.25 172.448763775374 L 206.1 172.78207033375529 L 206.95 173.11771822314336 L 207.8 173.4557238903519 L 208.64999999999998 173.79610389772628 L 209.5 174.13887492395494 L 210.35 174.48405376488677 L 211.2 174.81105965773156 L 212.05 175.12572488560258 L 212.89999999999998 175.44371150515738 L 213.75 175.76505457474283 L 214.60000000000002 176.08978952275785 L 215.45 176.4179521515594 L 216.3 176.7495786414097 L 217.15 177.08470555446522 L 218.0 177.4233698388075 L 218.85000000000002 177.765608832517 L 219.7 178.11146026778937 L 220.55 178.4609622750957 L 221.4 178.81415338738634 L 222.25 179.17107254433918 L 223.10000000000002 179.5317590966528 L 223.95000000000002 179.89625281038485 L 224.79999999999998 180.26459387133664 L 225.65 180.63682288948317 L 226.5 181.01298090345065 L 227.35 181.3931093850412 L 228.2 181.77725024380499 L 229.05 182.16544583166075 L 229.89999999999998 182.55773894756533 L 230.75 182.95417284223205 L 231.6 183.35479122289937 L 232.45 183.75963825814958 L 233.3 184.1687585827784 L 234.14999999999998 184.58219730271597" style="stroke:rgb(40%,76.1%,64.7%);stroke-opacity:1.0;stroke-width:5.0" /></g></g><g class="toyplot-mark-FillBoundaries" style="stroke:none" id="t87e5f93bc4bf47c39ad974eda08834e3"><polygon points="65.0,185.0 65.85,185.0 66.69999999999999,185.0 67.55000000000001,185.0 68.39999999999999,185.0 69.25,185.0 70.1,185.0 70.95,185.0 71.8,185.0 72.64999999999999,185.0 73.5,185.0 74.35,185.0 75.19999999999999,185.0 76.05000000000001,185.0 76.9,185.0 77.75,185.0 78.60000000000001,185.0 79.45,185.0 80.3,185.0 81.15,185.0 82.0,185.0 82.85000000000001,185.0 83.7,185.0 84.55,185.0 85.4,185.0 86.25,185.0 87.1,185.0 87.95,185.0 88.80000000000001,185.0 89.64999999999999,185.0 90.5,185.0 91.35,185.0 92.2,185.0 93.05,185.0 93.9,185.0 94.75,185.0 95.6,185.0 96.44999999999999,185.0 97.30000000000001,185.0 98.15,185.0 99.0,185.0 99.85,185.0 100.7,185.0 101.55,185.0 102.4,185.0 103.25,185.0 104.10000000000001,185.0 104.94999999999999,185.0 105.8,185.0 106.65,185.0 107.5,185.0 108.35,185.0 109.2,185.0 110.05000000000001,185.0 110.9,185.0 111.75,185.0 112.60000000000001,185.0 113.45,185.0 114.29999999999998,185.0 115.15,185.0 116.0,185.0 116.85,185.0 117.69999999999999,185.0 118.55000000000001,185.0 119.4,185.0 120.25,185.0 121.1,185.0 121.95000000000002,185.0 122.8,185.0 123.64999999999999,185.0 124.5,185.0 125.35,185.0 126.19999999999999,185.0 127.04999999999998,185.0 127.9,185.0 128.75,185.0 129.6,185.0 130.45000000000002,185.0 131.3,185.0 132.15,185.0 133.0,185.0 133.85000000000002,185.0 134.7,185.0 135.54999999999998,185.0 136.4,185.0 137.25,185.0 138.1,185.0 138.95,185.0 139.8,185.0 140.65,185.0 141.5,185.0 142.35,185.0 143.20000000000002,185.0 144.05,185.0 144.89999999999998,185.0 145.75,185.0 146.6,185.0 147.45,185.0 148.29999999999998,185.0 149.15,185.0 150.0,185.0 150.85,185.0 151.70000000000002,185.0 152.55,185.0 153.4,185.0 154.25,185.0 155.10000000000002,185.0 155.95000000000002,185.0 156.8,185.0 157.65,185.0 158.5,185.0 159.35000000000002,185.0 160.20000000000002,185.0 161.04999999999998,185.0 161.89999999999998,185.0 162.75,185.0 163.6,185.0 164.45,185.0 165.3,185.0 166.14999999999998,185.0 167.0,185.0 167.85,185.0 168.7,185.0 169.55,185.0 170.39999999999998,185.0 171.25,185.0 172.10000000000002,185.0 172.95,185.0 173.8,185.0 174.65,185.0 175.5,185.0 176.35000000000002,185.0 177.2,185.0 178.05,185.0 178.9,185.0 179.75,185.0 180.60000000000002,185.0 181.45000000000002,185.0 182.29999999999998,185.0 183.14999999999998,185.0 184.0,185.0 184.85,185.0 185.7,185.0 186.55,185.0 187.39999999999998,185.0 188.25,185.0 189.1,185.0 189.95,185.0 190.8,185.0 191.64999999999998,185.0 192.5,185.0 193.35000000000002,185.0 194.2,185.0 195.05,185.0 195.9,185.0 196.75,185.0 197.60000000000002,185.0 198.45,185.0 199.3,185.0 200.15,185.0 201.0,185.0 201.85000000000002,185.0 202.70000000000002,185.0 203.54999999999998,185.0 204.39999999999998,185.0 205.25,185.0 206.1,185.0 206.95,185.0 207.8,185.0 208.64999999999998,185.0 209.5,185.0 210.35,185.0 211.2,185.0 212.05,185.0 212.89999999999998,185.0 213.75,185.0 214.60000000000002,185.0 215.45,185.0 216.3,185.0 217.15,185.0 218.0,185.0 218.85000000000002,185.0 219.7,185.0 220.55,185.0 221.4,185.0 222.25,185.0 223.10000000000002,185.0 223.95000000000002,185.0 224.79999999999998,185.0 225.65,185.0 226.5,185.0 227.35,185.0 228.2,185.0 229.05,185.0 229.89999999999998,185.0 230.75,185.0 231.6,185.0 232.45,185.0 233.3,185.0 234.14999999999998,185.0 234.14999999999998,184.58219730271597 233.3,184.1687585827784 232.45,183.75963825814958 231.6,183.35479122289937 230.75,182.95417284223205 229.89999999999998,182.55773894756533 229.05,182.16544583166075 228.2,181.77725024380499 227.35,181.3931093850412 226.5,181.01298090345065 225.65,180.63682288948317 224.79999999999998,180.26459387133664 223.95000000000002,179.89625281038485 223.10000000000002,179.5317590966528 222.25,179.17107254433918 221.4,178.81415338738634 220.55,178.4609622750957 219.7,178.11146026778937 218.85000000000002,177.765608832517 218.0,177.4233698388075 217.15,177.08470555446522 216.3,176.7495786414097 215.45,176.4179521515594 214.60000000000002,176.08978952275785 213.75,175.76505457474283 212.89999999999998,175.44371150515738 212.05,175.12572488560258 211.2,174.81105965773156 210.35,174.48405376488677 209.5,174.13887492395494 208.64999999999998,173.79610389772628 207.8,173.4557238903519 206.95,173.11771822314336 206.1,172.78207033375529 205.25,172.448763775374 204.39999999999998,172.1177822159114 203.54999999999998,171.78910943720496 202.70000000000002,171.46272933422264 201.85000000000002,171.1386259142741 201.0,170.81678329622696 200.15,170.4971857097285 199.3,170.1798174944331 198.45,169.86466309923466 197.60000000000002,169.5517070815048 196.75,169.2409341063359 195.9,168.93232894579023 195.05,168.62587647815297 194.2,168.32156168719197 193.35000000000002,168.01936966142156 192.5,167.7192855933721 191.64999999999998,167.4212947788641 190.8,167.1253826162881 189.95,166.83153460588883 189.1,166.53973634905515 188.25,166.24997354761393 187.39999999999998,165.96223200313 186.55,165.6764976162101 185.7,165.3927563858121 184.85,165.11099440855892 184.0,164.83119787805734 183.14999999999998,164.55335308422133 182.29999999999998,164.27744641260045 181.45000000000002,164.00346434371258 180.60000000000002,163.73139345238147 179.75,163.46122040707908 178.9,163.19293196927205 178.05,162.92651499277332 177.2,162.6619564230977 176.35000000000002,162.39924329682242 175.5,162.13836274095158 174.65,161.8793019722859 173.8,161.62204829679575 172.95,161.36658910899962 172.10000000000002,161.1129118913462 171.25,160.86100421360106 170.39999999999998,160.61085373223762 169.55,160.36244818983212 168.7,160.11577541446346 167.85,159.87082331911617 167.0,159.6275799010886 166.14999999999998,159.3860332414046 165.3,159.14617150422947 164.45,158.9079829362902 163.6,158.67145586629923 162.75,158.4365787043828 161.89999999999998,158.23006328764149 161.04999999999998,158.0918743844711 160.20000000000002,157.9551288737127 159.35000000000002,157.81981167903524 158.5,157.68590788158087 157.65,157.55340271832034 156.8,157.4222815804252 155.95000000000002,157.29253001165708 155.10000000000002,157.1641337067742 154.25,157.0370785099539 153.4,156.9113504132319 152.55,156.78693555495835 151.70000000000002,156.66382021826897 150.85,156.54199082957325 150.0,156.42143395705764 149.15,156.30213630920488 148.29999999999998,156.18408473332846 147.45,156.06726621412253 146.6,155.951667872227 145.75,155.8372769628076 144.89999999999998,155.72408087415073 144.05,155.61206712627293 143.20000000000002,155.50122336954502 142.35,155.3915373833306 141.5,155.28299707463847 140.65,155.1755904767898 139.8,155.0693057480983 138.95,154.96413117056497 138.1,154.8600551485861 137.25,154.75706620767488 136.4,154.65515299319628 135.54999999999998,154.55430426911505 134.7,154.45450891675736 133.85000000000002,154.35575593358442 133.0,154.25803443197987 132.15,154.16133363804911 131.3,154.06564289043172 130.45000000000002,153.97095163912584 129.6,153.87724944432503 128.75,153.7845259752675 127.9,153.6927710090968 127.04999999999998,153.60197442973495 126.19999999999999,153.51212622676715 125.35,153.42321649433802 124.5,153.33523543005947 123.64999999999999,153.24817333393005 122.8,153.16202060726553 121.95000000000002,153.07676775164043 121.1,152.99240536784112 120.25,152.90892415482935 119.4,152.8263149087168 118.55000000000001,152.74456852175035 117.69999999999999,152.6636759813082 116.85,152.58362836890564 116.0,152.50441685921243 115.15,152.42603271907936 114.29999999999998,152.3484673065756 113.45,152.25535883185387 112.60000000000001,152.0652375209471 111.75,151.87644241209418 110.9,151.68896425429702 110.05000000000001,151.5027938610883 109.2,151.31792211008158 108.35,151.13433994252404 107.5,150.95203836285273 106.65,150.77100843825377 105.8,150.59124129822467 104.94999999999999,150.41272813413954 104.10000000000001,150.2354601988177 103.25,150.05942880609473 102.4,149.88462533039728 101.55,149.71104120632003 100.7,149.5386679282062 99.85,149.36749704973056 99.0,149.19752018348595 98.15,149.02872900057187 97.30000000000001,148.86111523018656 96.44999999999999,148.6946706592217 95.6,148.5293871318601 94.75,148.36525654917585 93.9,148.20227086873746 93.05,148.04042210421403 92.2,147.87970232498375 91.35,147.72010365574522 90.5,147.56161827613175 89.64999999999999,147.40423842032803 88.80000000000001,147.24795637668961 87.95,147.09276448736514 87.1,146.9386551479209 86.25,146.78562080696852 85.4,146.63365396579462 84.55,146.4827471779936 83.7,146.33289304910258 82.85000000000001,146.18408423623939 82.0,146.03631344774234 81.15,145.88957344281326 80.3,145.74385703116255 79.45,145.59915707265685 78.60000000000001,145.4554664769693 77.75,145.3127782032319 76.9,145.1710852596907 76.05000000000001,145.03038070336316 75.19999999999999,144.89065763969782 74.35,144.75190922223663 73.5,144.61412865227936 72.64999999999999,144.4773091785505 71.8,144.3414440968685 70.95,144.20652674981716 70.1,144.07255052641946 69.25,143.93950886181366 68.39999999999999,143.8073952369316 67.55000000000001,143.67620317817918 66.69999999999999,143.54592625711928 65.85,143.4165580901567 65.0,143.28809233822545" style="fill:rgb(40%,76.1%,64.7%);fill-opacity:1.0;opacity:0.33;stroke:none" /></g><g class="toyplot-mark-Plot" style="fill:none;stroke:rgb(0%,0%,0%);stroke-dasharray:4,2;stroke-opacity:1.0;stroke-width:2" id="t802f4c8ecb8246cd94d98a20396f5f6a"><g class="toyplot-Series"><path d="M 65.0 185.0 L 65.0 143.28809233822545" style="stroke:rgb(0%,0%,0%);stroke-dasharray:4,2;stroke-opacity:1.0;stroke-width:2" /></g></g><g class="toyplot-mark-Plot" style="fill:none;stroke:rgb(0%,0%,0%);stroke-dasharray:4,2;stroke-opacity:1.0;stroke-width:2" id="tdcc805ec05e547c5a43b7371451180f3"><g class="toyplot-Series"><path d="M 113.5714280857143 185.0 L 113.5714280857143 152.2826277137783" style="stroke:rgb(0%,0%,0%);stroke-dasharray:4,2;stroke-opacity:1.0;stroke-width:2" /></g></g><g class="toyplot-mark-Plot" style="fill:none;stroke:rgb(0%,0%,0%);stroke-dasharray:4,2;stroke-opacity:1.0;stroke-width:2" id="ted0906a08c184bfdb52dd7b646692e2d"><g class="toyplot-Series"><path d="M 162.14285665714286 185.0 L 162.14285665714286 158.2698129927503" style="stroke:rgb(0%,0%,0%);stroke-dasharray:4,2;stroke-opacity:1.0;stroke-width:2" /></g></g><g class="toyplot-mark-Plot" style="fill:none;stroke:rgb(0%,0%,0%);stroke-dasharray:4,2;stroke-opacity:1.0;stroke-width:2" id="t4233420d98b640e290b412a150c0d10f"><g class="toyplot-Series"><path d="M 210.71428522857144 185.0 L 210.71428522857144 174.63272862873782" style="stroke:rgb(0%,0%,0%);stroke-dasharray:4,2;stroke-opacity:1.0;stroke-width:2" /></g></g><g class="toyplot-mark-Plot" style="fill:none;stroke:rgb(0%,0%,0%);stroke-dasharray:4,2;stroke-opacity:1.0;stroke-width:2" id="tde7ec34b6cf64b23ae74f0766d5def91"><g class="toyplot-Series"><path d="M 234.99999951428572 185.0 L 234.99999951428572 184.99999976" style="stroke:rgb(0%,0%,0%);stroke-dasharray:4,2;stroke-opacity:1.0;stroke-width:2" /></g></g></g><g class="toyplot-coordinates-Axis" id="tb213d3fe65364d5cb87c184e602b7b7c" transform="translate(65.0,185.0)translate(0,10.0)"><line x1="0" y1="0" x2="169.99999951428572" y2="0" style="stroke-width:1.5" /><g><line x1="0.0" y1="7.5" x2="0.0" y2="0" style="stroke-width:1.5" /><line x1="48.57142857142857" y1="7.5" x2="48.57142857142857" y2="0" style="stroke-width:1.5" /><line x1="97.14285714285714" y1="7.5" x2="97.14285714285714" y2="0" style="stroke-width:1.5" /><line x1="145.7142857142857" y1="7.5" x2="145.7142857142857" y2="0" style="stroke-width:1.5" /><line x1="170.0" y1="7.5" x2="170.0" y2="0" style="stroke-width:1.5" /></g><g><g transform="translate(0.0,15.0)"><text x="-16.68" y="8.555" style="fill:rgb(16.1%,15.3%,14.1%);fill-opacity:1.0;font-family:helvetica;font-size:10.0px;font-weight:normal;stroke:none;vertical-align:baseline;white-space:pre">100000</text></g><g transform="translate(48.57142857142857,15.0)"><text x="-16.68" y="8.555" style="fill:rgb(16.1%,15.3%,14.1%);fill-opacity:1.0;font-family:helvetica;font-size:10.0px;font-weight:normal;stroke:none;vertical-align:baseline;white-space:pre">200000</text></g><g transform="translate(97.14285714285714,15.0)"><text x="-16.68" y="8.555" style="fill:rgb(16.1%,15.3%,14.1%);fill-opacity:1.0;font-family:helvetica;font-size:10.0px;font-weight:normal;stroke:none;vertical-align:baseline;white-space:pre">300000</text></g><g transform="translate(145.7142857142857,15.0)"><text x="-16.68" y="8.555" style="fill:rgb(16.1%,15.3%,14.1%);fill-opacity:1.0;font-family:helvetica;font-size:10.0px;font-weight:normal;stroke:none;vertical-align:baseline;white-space:pre">400000</text></g><g transform="translate(170.0,15.0)"><text x="-16.68" y="8.555" style="fill:rgb(16.1%,15.3%,14.1%);fill-opacity:1.0;font-family:helvetica;font-size:10.0px;font-weight:normal;stroke:none;vertical-align:baseline;white-space:pre">450000</text></g></g><g transform="translate(85.0,35.0)"><text x="-100.02000000000002" y="10.265999999999998" style="fill:rgb(16.1%,15.3%,14.1%);fill-opacity:1.0;font-family:helvetica;font-size:12.0px;font-weight:bold;stroke:none;vertical-align:baseline;white-space:pre">Time of recombination on branch 7</text></g><g class="toyplot-coordinates-Axis-coordinates" style="visibility:hidden" transform=""><line x1="0" x2="0" y1="-7.5" y2="11.25" style="stroke:rgb(43.9%,50.2%,56.5%);stroke-opacity:1.0;stroke-width:1.0" /><text x="0" y="-15.0" style="alignment-baseline:alphabetic;fill:rgb(43.9%,50.2%,56.5%);fill-opacity:1.0;font-size:10px;font-weight:normal;stroke:none;text-anchor:middle" /></g></g><g class="toyplot-coordinates-Axis" id="tb7f943d7483e483cb0ff6d82c1da0310" transform="translate(65.0,185.0)rotate(-90.0)translate(0,-10.0)"><line x1="0" y1="0" x2="120.0" y2="0" style="stroke-width:1.5" /><g><line x1="0.0" y1="-7.5" x2="0.0" y2="0" style="stroke-width:1.5" /><line x1="60.0" y1="-7.5" x2="60.0" y2="0" style="stroke-width:1.5" /><line x1="120.0" y1="-7.5" x2="120.0" y2="0" style="stroke-width:1.5" /></g><g><g transform="translate(0.0,-15.0)"><text x="-6.95" y="-4.440892098500626e-16" style="fill:rgb(16.1%,15.3%,14.1%);fill-opacity:1.0;font-family:helvetica;font-size:10.0px;font-weight:normal;stroke:none;vertical-align:baseline;white-space:pre">0.0</text></g><g transform="translate(60.0,-15.0)"><text x="-6.95" y="-4.440892098500626e-16" style="fill:rgb(16.1%,15.3%,14.1%);fill-opacity:1.0;font-family:helvetica;font-size:10.0px;font-weight:normal;stroke:none;vertical-align:baseline;white-space:pre">0.5</text></g><g transform="translate(120.0,-15.0)"><text x="-6.95" y="-4.440892098500626e-16" style="fill:rgb(16.1%,15.3%,14.1%);fill-opacity:1.0;font-family:helvetica;font-size:10.0px;font-weight:normal;stroke:none;vertical-align:baseline;white-space:pre">1.0</text></g></g><g transform="translate(60.0,-35.0)"><text x="-31.008" y="0.0" style="fill:rgb(16.1%,15.3%,14.1%);fill-opacity:1.0;font-family:helvetica;font-size:12.0px;font-weight:bold;stroke:none;vertical-align:baseline;white-space:pre">Probability</text></g><g class="toyplot-coordinates-Axis-coordinates" style="visibility:hidden" transform=""><line x1="0" x2="0" y1="7.5" y2="-11.25" style="stroke:rgb(43.9%,50.2%,56.5%);stroke-opacity:1.0;stroke-width:1.0" /><text x="0" y="15.0" style="alignment-baseline:hanging;fill:rgb(43.9%,50.2%,56.5%);fill-opacity:1.0;font-size:10px;font-weight:normal;stroke:none;text-anchor:middle" /></g></g><g transform="translate(150.0,45.0)"><text x="-56.0" y="-4.823" style="fill:rgb(16.1%,15.3%,14.1%);fill-opacity:1.0;font-family:helvetica;font-size:14.0px;font-weight:bold;stroke:none;vertical-align:baseline;white-space:pre">Prob(no-change)</text></g></g><g class="toyplot-coordinates-Cartesian" id="t6cc8e8038a6f4615a18052ebd9c3e451"><clipPath id="te61b7fee9b5f46339988880c1e3ee139"><rect x="55.0" y="305.0" width="190.0" height="140.0" /></clipPath><g clip-path="url(#te61b7fee9b5f46339988880c1e3ee139)"><g class="toyplot-mark-Plot" style="fill:none" id="t728982aa512646ddbe28976efa1e31d7"><g class="toyplot-Series"><path d="M 65.0 356.71190766177455 L 65.85 356.58344190984326 L 66.69999999999999 356.4540737428807 L 67.55000000000001 356.3237968218208 L 68.39999999999999 356.1926047630684 L 69.25 356.0604911381863 L 70.1 355.9274494735805 L 70.95 355.79347325018284 L 71.8 355.6585559031315 L 72.64999999999999 355.5226908214495 L 73.5 355.3858713477207 L 74.35 355.2480907777634 L 75.19999999999999 355.1093423603022 L 76.05000000000001 354.96961929663684 L 76.9 354.8289147403093 L 77.75 354.6872217967681 L 78.60000000000001 354.54453352303074 L 79.45 354.4008429273431 L 80.3 354.2561429688375 L 81.15 354.1104265571867 L 82.0 353.9636865522576 L 82.85000000000001 353.8159157637606 L 83.7 353.6671069508974 L 84.55 353.5172528220064 L 85.4 353.3663460342054 L 86.25 353.2143791930315 L 87.1 353.06134485207906 L 87.95 352.9072355126349 L 88.80000000000001 352.7520436233104 L 89.64999999999999 352.59576157967194 L 90.5 352.43838172386825 L 91.35 352.2798963442548 L 92.2 352.1202976750162 L 93.05 351.95957789578597 L 93.9 351.79772913126254 L 94.75 351.6347434508242 L 95.6 351.4706128681399 L 96.44999999999999 351.30532934077826 L 97.30000000000001 351.13888476981344 L 98.15 350.97127099942816 L 99.0 350.80247981651405 L 99.85 350.63250295026944 L 100.7 350.46133207179383 L 101.55 350.28895879367997 L 102.4 350.1153746696027 L 103.25 349.94057119390527 L 104.10000000000001 349.7645398011823 L 104.94999999999999 349.58727186586043 L 105.8 349.40875870177535 L 106.65 349.2289915617462 L 107.5 349.0479616371473 L 108.35 348.86566005747596 L 109.2 348.68207788991845 L 110.05000000000001 348.4972061389117 L 110.9 348.31103574570295 L 111.75 348.1235575879058 L 112.60000000000001 347.9347624790529 L 113.45 347.74464116814613 L 114.29999999999998 347.65153269342443 L 115.15 347.57396728092067 L 116.0 347.4955831407876 L 116.85 347.41637163109436 L 117.69999999999999 347.3363240186918 L 118.55000000000001 347.2554314782496 L 119.4 347.17368509128323 L 120.25 347.0910758451707 L 121.1 347.0075946321589 L 121.95000000000002 346.92323224835957 L 122.8 346.8379793927345 L 123.64999999999999 346.7518266660699 L 124.5 346.66476456994053 L 125.35 346.576783505662 L 126.19999999999999 346.4878737732329 L 127.04999999999998 346.398025570265 L 127.9 346.30722899090324 L 128.75 346.2154740247325 L 129.6 346.12275055567494 L 130.45000000000002 346.0290483608742 L 131.3 345.9343571095683 L 132.15 345.83866636195086 L 133.0 345.74196556802013 L 133.85000000000002 345.6442440664156 L 134.7 345.5454910832426 L 135.54999999999998 345.44569573088495 L 136.4 345.3448470068038 L 137.25 345.2429337923251 L 138.1 345.1399448514139 L 138.95 345.03586882943506 L 139.8 344.93069425190174 L 140.65 344.8244095232102 L 141.5 344.7170029253615 L 142.35 344.6084626166694 L 143.20000000000002 344.498776630455 L 144.05 344.3879328737271 L 144.89999999999998 344.27591912584927 L 145.75 344.1627230371924 L 146.6 344.048332127773 L 147.45 343.9327337858775 L 148.29999999999998 343.81591526667154 L 149.15 343.6978636907951 L 150.0 343.5785660429423 L 150.85 343.45800917042675 L 151.70000000000002 343.33617978173106 L 152.55 343.2130644450417 L 153.4 343.0886495867681 L 154.25 342.96292149004614 L 155.10000000000002 342.83586629322576 L 155.95000000000002 342.70746998834295 L 156.8 342.5777184195748 L 157.65 342.44659728167966 L 158.5 342.3140921184191 L 159.35000000000002 342.18018832096476 L 160.20000000000002 342.04487112628726 L 161.04999999999998 341.9081256155289 L 161.89999999999998 341.7699367123585 L 162.75 341.5634212956172 L 163.6 341.3285441337008 L 164.45 341.0920170637098 L 165.3 340.8538284957705 L 166.14999999999998 340.61396675859544 L 167.0 340.3724200989114 L 167.85 340.1291766808838 L 168.7 339.8842245855366 L 169.55 339.63755181016785 L 170.39999999999998 339.3891462677624 L 171.25 339.13899578639894 L 172.10000000000002 338.88708810865376 L 172.95 338.6334108910004 L 173.8 338.37795170320425 L 174.65 338.1206980277141 L 175.5 337.8616372590484 L 176.35000000000002 337.6007567031776 L 177.2 337.33804357690224 L 178.05 337.0734850072267 L 178.9 336.8070680307279 L 179.75 336.53877959292095 L 180.60000000000002 336.2686065476185 L 181.45000000000002 335.99653565628745 L 182.29999999999998 335.7225535873995 L 183.14999999999998 335.4466469157787 L 184.0 335.1688021219427 L 184.85 334.88900559144105 L 185.7 334.6072436141879 L 186.55 334.3235023837899 L 187.39999999999998 334.03776799687 L 188.25 333.75002645238607 L 189.1 333.46026365094485 L 189.95 333.1684653941112 L 190.8 332.8746173837119 L 191.64999999999998 332.5787052211359 L 192.5 332.2807144066279 L 193.35000000000002 331.98063033857846 L 194.2 331.678438312808 L 195.05 331.374123521847 L 195.9 331.06767105420977 L 196.75 330.75906589366406 L 197.60000000000002 330.4482929184952 L 198.45 330.1353369007653 L 199.3 329.8201825055669 L 200.15 329.5028142902715 L 201.0 329.18321670377304 L 201.85000000000002 328.8613740857259 L 202.70000000000002 328.5372706657774 L 203.54999999999998 328.21089056279504 L 204.39999999999998 327.88221778408854 L 205.25 327.551236224626 L 206.1 327.2179296662447 L 206.95 326.88228177685664 L 207.8 326.5442761096481 L 208.64999999999998 326.20389610227375 L 209.5 325.861125076045 L 210.35 325.51594623511323 L 211.2 325.18894034226844 L 212.05 324.87427511439745 L 212.89999999999998 324.55628849484265 L 213.75 324.2349454252572 L 214.60000000000002 323.9102104772422 L 215.45 323.5820478484406 L 216.3 323.2504213585903 L 217.15 322.9152944455348 L 218.0 322.5766301611925 L 218.85000000000002 322.234391167483 L 219.7 321.8885397322107 L 220.55 321.53903772490435 L 221.4 321.18584661261366 L 222.25 320.82892745566085 L 223.10000000000002 320.46824090334724 L 223.95000000000002 320.1037471896151 L 224.79999999999998 319.7354061286633 L 225.65 319.36317711051686 L 226.5 318.9870190965494 L 227.35 318.6068906149588 L 228.2 318.222749756195 L 229.05 317.8345541683392 L 229.89999999999998 317.4422610524347 L 230.75 317.045827157768 L 231.6 316.6452087771006 L 232.45 316.24036174185045 L 233.3 315.8312414172216 L 234.14999999999998 315.417802697284" style="stroke:rgb(40%,76.1%,64.7%);stroke-opacity:1.0;stroke-width:5.0" /></g></g><g class="toyplot-mark-FillBoundaries" style="stroke:none" id="t6c17284850274f32bb261b3975417059"><polygon points="65.0,435.0 65.85,435.0 66.69999999999999,435.0 67.55000000000001,435.0 68.39999999999999,435.0 69.25,435.0 70.1,435.0 70.95,435.0 71.8,435.0 72.64999999999999,435.0 73.5,435.0 74.35,435.0 75.19999999999999,435.0 76.05000000000001,435.0 76.9,435.0 77.75,435.0 78.60000000000001,435.0 79.45,435.0 80.3,435.0 81.15,435.0 82.0,435.0 82.85000000000001,435.0 83.7,435.0 84.55,435.0 85.4,435.0 86.25,435.0 87.1,435.0 87.95,435.0 88.80000000000001,435.0 89.64999999999999,435.0 90.5,435.0 91.35,435.0 92.2,435.0 93.05,435.0 93.9,435.0 94.75,435.0 95.6,435.0 96.44999999999999,435.0 97.30000000000001,435.0 98.15,435.0 99.0,435.0 99.85,435.0 100.7,435.0 101.55,435.0 102.4,435.0 103.25,435.0 104.10000000000001,435.0 104.94999999999999,435.0 105.8,435.0 106.65,435.0 107.5,435.0 108.35,435.0 109.2,435.0 110.05000000000001,435.0 110.9,435.0 111.75,435.0 112.60000000000001,435.0 113.45,435.0 114.29999999999998,435.0 115.15,435.0 116.0,435.0 116.85,435.0 117.69999999999999,435.0 118.55000000000001,435.0 119.4,435.0 120.25,435.0 121.1,435.0 121.95000000000002,435.0 122.8,435.0 123.64999999999999,435.0 124.5,435.0 125.35,435.0 126.19999999999999,435.0 127.04999999999998,435.0 127.9,435.0 128.75,435.0 129.6,435.0 130.45000000000002,435.0 131.3,435.0 132.15,435.0 133.0,435.0 133.85000000000002,435.0 134.7,435.0 135.54999999999998,435.0 136.4,435.0 137.25,435.0 138.1,435.0 138.95,435.0 139.8,435.0 140.65,435.0 141.5,435.0 142.35,435.0 143.20000000000002,435.0 144.05,435.0 144.89999999999998,435.0 145.75,435.0 146.6,435.0 147.45,435.0 148.29999999999998,435.0 149.15,435.0 150.0,435.0 150.85,435.0 151.70000000000002,435.0 152.55,435.0 153.4,435.0 154.25,435.0 155.10000000000002,435.0 155.95000000000002,435.0 156.8,435.0 157.65,435.0 158.5,435.0 159.35000000000002,435.0 160.20000000000002,435.0 161.04999999999998,435.0 161.89999999999998,435.0 162.75,435.0 163.6,435.0 164.45,435.0 165.3,435.0 166.14999999999998,435.0 167.0,435.0 167.85,435.0 168.7,435.0 169.55,435.0 170.39999999999998,435.0 171.25,435.0 172.10000000000002,435.0 172.95,435.0 173.8,435.0 174.65,435.0 175.5,435.0 176.35000000000002,435.0 177.2,435.0 178.05,435.0 178.9,435.0 179.75,435.0 180.60000000000002,435.0 181.45000000000002,435.0 182.29999999999998,435.0 183.14999999999998,435.0 184.0,435.0 184.85,435.0 185.7,435.0 186.55,435.0 187.39999999999998,435.0 188.25,435.0 189.1,435.0 189.95,435.0 190.8,435.0 191.64999999999998,435.0 192.5,435.0 193.35000000000002,435.0 194.2,435.0 195.05,435.0 195.9,435.0 196.75,435.0 197.60000000000002,435.0 198.45,435.0 199.3,435.0 200.15,435.0 201.0,435.0 201.85000000000002,435.0 202.70000000000002,435.0 203.54999999999998,435.0 204.39999999999998,435.0 205.25,435.0 206.1,435.0 206.95,435.0 207.8,435.0 208.64999999999998,435.0 209.5,435.0 210.35,435.0 211.2,435.0 212.05,435.0 212.89999999999998,435.0 213.75,435.0 214.60000000000002,435.0 215.45,435.0 216.3,435.0 217.15,435.0 218.0,435.0 218.85000000000002,435.0 219.7,435.0 220.55,435.0 221.4,435.0 222.25,435.0 223.10000000000002,435.0 223.95000000000002,435.0 224.79999999999998,435.0 225.65,435.0 226.5,435.0 227.35,435.0 228.2,435.0 229.05,435.0 229.89999999999998,435.0 230.75,435.0 231.6,435.0 232.45,435.0 233.3,435.0 234.14999999999998,435.0 234.14999999999998,315.417802697284 233.3,315.8312414172216 232.45,316.24036174185045 231.6,316.6452087771006 230.75,317.045827157768 229.89999999999998,317.4422610524347 229.05,317.8345541683392 228.2,318.222749756195 227.35,318.6068906149588 226.5,318.9870190965494 225.65,319.36317711051686 224.79999999999998,319.7354061286633 223.95000000000002,320.1037471896151 223.10000000000002,320.46824090334724 222.25,320.82892745566085 221.4,321.18584661261366 220.55,321.53903772490435 219.7,321.8885397322107 218.85000000000002,322.234391167483 218.0,322.5766301611925 217.15,322.9152944455348 216.3,323.2504213585903 215.45,323.5820478484406 214.60000000000002,323.9102104772422 213.75,324.2349454252572 212.89999999999998,324.55628849484265 212.05,324.87427511439745 211.2,325.18894034226844 210.35,325.51594623511323 209.5,325.861125076045 208.64999999999998,326.20389610227375 207.8,326.5442761096481 206.95,326.88228177685664 206.1,327.2179296662447 205.25,327.551236224626 204.39999999999998,327.88221778408854 203.54999999999998,328.21089056279504 202.70000000000002,328.5372706657774 201.85000000000002,328.8613740857259 201.0,329.18321670377304 200.15,329.5028142902715 199.3,329.8201825055669 198.45,330.1353369007653 197.60000000000002,330.4482929184952 196.75,330.75906589366406 195.9,331.06767105420977 195.05,331.374123521847 194.2,331.678438312808 193.35000000000002,331.98063033857846 192.5,332.2807144066279 191.64999999999998,332.5787052211359 190.8,332.8746173837119 189.95,333.1684653941112 189.1,333.46026365094485 188.25,333.75002645238607 187.39999999999998,334.03776799687 186.55,334.3235023837899 185.7,334.6072436141879 184.85,334.88900559144105 184.0,335.1688021219427 183.14999999999998,335.4466469157787 182.29999999999998,335.7225535873995 181.45000000000002,335.99653565628745 180.60000000000002,336.2686065476185 179.75,336.53877959292095 178.9,336.8070680307279 178.05,337.0734850072267 177.2,337.33804357690224 176.35000000000002,337.6007567031776 175.5,337.8616372590484 174.65,338.1206980277141 173.8,338.37795170320425 172.95,338.6334108910004 172.10000000000002,338.88708810865376 171.25,339.13899578639894 170.39999999999998,339.3891462677624 169.55,339.63755181016785 168.7,339.8842245855366 167.85,340.1291766808838 167.0,340.3724200989114 166.14999999999998,340.61396675859544 165.3,340.8538284957705 164.45,341.0920170637098 163.6,341.3285441337008 162.75,341.5634212956172 161.89999999999998,341.7699367123585 161.04999999999998,341.9081256155289 160.20000000000002,342.04487112628726 159.35000000000002,342.18018832096476 158.5,342.3140921184191 157.65,342.44659728167966 156.8,342.5777184195748 155.95000000000002,342.70746998834295 155.10000000000002,342.83586629322576 154.25,342.96292149004614 153.4,343.0886495867681 152.55,343.2130644450417 151.70000000000002,343.33617978173106 150.85,343.45800917042675 150.0,343.5785660429423 149.15,343.6978636907951 148.29999999999998,343.81591526667154 147.45,343.9327337858775 146.6,344.048332127773 145.75,344.1627230371924 144.89999999999998,344.27591912584927 144.05,344.3879328737271 143.20000000000002,344.498776630455 142.35,344.6084626166694 141.5,344.7170029253615 140.65,344.8244095232102 139.8,344.93069425190174 138.95,345.03586882943506 138.1,345.1399448514139 137.25,345.2429337923251 136.4,345.3448470068038 135.54999999999998,345.44569573088495 134.7,345.5454910832426 133.85000000000002,345.6442440664156 133.0,345.74196556802013 132.15,345.83866636195086 131.3,345.9343571095683 130.45000000000002,346.0290483608742 129.6,346.12275055567494 128.75,346.2154740247325 127.9,346.30722899090324 127.04999999999998,346.398025570265 126.19999999999999,346.4878737732329 125.35,346.576783505662 124.5,346.66476456994053 123.64999999999999,346.7518266660699 122.8,346.8379793927345 121.95000000000002,346.92323224835957 121.1,347.0075946321589 120.25,347.0910758451707 119.4,347.17368509128323 118.55000000000001,347.2554314782496 117.69999999999999,347.3363240186918 116.85,347.41637163109436 116.0,347.4955831407876 115.15,347.57396728092067 114.29999999999998,347.65153269342443 113.45,347.74464116814613 112.60000000000001,347.9347624790529 111.75,348.1235575879058 110.9,348.31103574570295 110.05000000000001,348.4972061389117 109.2,348.68207788991845 108.35,348.86566005747596 107.5,349.0479616371473 106.65,349.2289915617462 105.8,349.40875870177535 104.94999999999999,349.58727186586043 104.10000000000001,349.7645398011823 103.25,349.94057119390527 102.4,350.1153746696027 101.55,350.28895879367997 100.7,350.46133207179383 99.85,350.63250295026944 99.0,350.80247981651405 98.15,350.97127099942816 97.30000000000001,351.13888476981344 96.44999999999999,351.30532934077826 95.6,351.4706128681399 94.75,351.6347434508242 93.9,351.79772913126254 93.05,351.95957789578597 92.2,352.1202976750162 91.35,352.2798963442548 90.5,352.43838172386825 89.64999999999999,352.59576157967194 88.80000000000001,352.7520436233104 87.95,352.9072355126349 87.1,353.06134485207906 86.25,353.2143791930315 85.4,353.3663460342054 84.55,353.5172528220064 83.7,353.6671069508974 82.85000000000001,353.8159157637606 82.0,353.9636865522576 81.15,354.1104265571867 80.3,354.2561429688375 79.45,354.4008429273431 78.60000000000001,354.54453352303074 77.75,354.6872217967681 76.9,354.8289147403093 76.05000000000001,354.96961929663684 75.19999999999999,355.1093423603022 74.35,355.2480907777634 73.5,355.3858713477207 72.64999999999999,355.5226908214495 71.8,355.6585559031315 70.95,355.79347325018284 70.1,355.9274494735805 69.25,356.0604911381863 68.39999999999999,356.1926047630684 67.55000000000001,356.3237968218208 66.69999999999999,356.4540737428807 65.85,356.58344190984326 65.0,356.71190766177455" style="fill:rgb(40%,76.1%,64.7%);fill-opacity:1.0;opacity:0.33;stroke:none" /></g><g class="toyplot-mark-Plot" style="fill:none;stroke:rgb(0%,0%,0%);stroke-dasharray:4,2;stroke-opacity:1.0;stroke-width:2" id="tc21dfa4dfa0244f7bcd285ee139f20ed"><g class="toyplot-Series"><path d="M 65.0 435.0 L 65.0 356.71190766177455" style="stroke:rgb(0%,0%,0%);stroke-dasharray:4,2;stroke-opacity:1.0;stroke-width:2" /></g></g><g class="toyplot-mark-Plot" style="fill:none;stroke:rgb(0%,0%,0%);stroke-dasharray:4,2;stroke-opacity:1.0;stroke-width:2" id="t2b64ffeaa23e43bf8412912d3a5da942"><g class="toyplot-Series"><path d="M 113.5714280857143 435.0 L 113.5714280857143 347.7173722862217" style="stroke:rgb(0%,0%,0%);stroke-dasharray:4,2;stroke-opacity:1.0;stroke-width:2" /></g></g><g class="toyplot-mark-Plot" style="fill:none;stroke:rgb(0%,0%,0%);stroke-dasharray:4,2;stroke-opacity:1.0;stroke-width:2" id="t91c925580d154beab4c402d3de62da91"><g class="toyplot-Series"><path d="M 162.14285665714286 435.0 L 162.14285665714286 341.7301870072497" style="stroke:rgb(0%,0%,0%);stroke-dasharray:4,2;stroke-opacity:1.0;stroke-width:2" /></g></g><g class="toyplot-mark-Plot" style="fill:none;stroke:rgb(0%,0%,0%);stroke-dasharray:4,2;stroke-opacity:1.0;stroke-width:2" id="t91063acf01c54c6cac5cae1ec19dab64"><g class="toyplot-Series"><path d="M 210.71428522857144 435.0 L 210.71428522857144 325.3672713712622" style="stroke:rgb(0%,0%,0%);stroke-dasharray:4,2;stroke-opacity:1.0;stroke-width:2" /></g></g><g class="toyplot-mark-Plot" style="fill:none;stroke:rgb(0%,0%,0%);stroke-dasharray:4,2;stroke-opacity:1.0;stroke-width:2" id="t60910b88f6154d85a587c7d85074f079"><g class="toyplot-Series"><path d="M 234.99999951428572 435.0 L 234.99999951428572 315.00000023999996" style="stroke:rgb(0%,0%,0%);stroke-dasharray:4,2;stroke-opacity:1.0;stroke-width:2" /></g></g></g><g class="toyplot-coordinates-Axis" id="t562721774b714c9d92cdc53e5ca1bb76" transform="translate(65.0,435.0)translate(0,10.0)"><line x1="0" y1="0" x2="169.99999951428572" y2="0" style="stroke-width:1.5" /><g><line x1="0.0" y1="7.5" x2="0.0" y2="0" style="stroke-width:1.5" /><line x1="48.57142857142857" y1="7.5" x2="48.57142857142857" y2="0" style="stroke-width:1.5" /><line x1="97.14285714285714" y1="7.5" x2="97.14285714285714" y2="0" style="stroke-width:1.5" /><line x1="145.7142857142857" y1="7.5" x2="145.7142857142857" y2="0" style="stroke-width:1.5" /><line x1="170.0" y1="7.5" x2="170.0" y2="0" style="stroke-width:1.5" /></g><g><g transform="translate(0.0,15.0)"><text x="-16.68" y="8.555" style="fill:rgb(16.1%,15.3%,14.1%);fill-opacity:1.0;font-family:helvetica;font-size:10.0px;font-weight:normal;stroke:none;vertical-align:baseline;white-space:pre">100000</text></g><g transform="translate(48.57142857142857,15.0)"><text x="-16.68" y="8.555" style="fill:rgb(16.1%,15.3%,14.1%);fill-opacity:1.0;font-family:helvetica;font-size:10.0px;font-weight:normal;stroke:none;vertical-align:baseline;white-space:pre">200000</text></g><g transform="translate(97.14285714285714,15.0)"><text x="-16.68" y="8.555" style="fill:rgb(16.1%,15.3%,14.1%);fill-opacity:1.0;font-family:helvetica;font-size:10.0px;font-weight:normal;stroke:none;vertical-align:baseline;white-space:pre">300000</text></g><g transform="translate(145.7142857142857,15.0)"><text x="-16.68" y="8.555" style="fill:rgb(16.1%,15.3%,14.1%);fill-opacity:1.0;font-family:helvetica;font-size:10.0px;font-weight:normal;stroke:none;vertical-align:baseline;white-space:pre">400000</text></g><g transform="translate(170.0,15.0)"><text x="-16.68" y="8.555" style="fill:rgb(16.1%,15.3%,14.1%);fill-opacity:1.0;font-family:helvetica;font-size:10.0px;font-weight:normal;stroke:none;vertical-align:baseline;white-space:pre">450000</text></g></g><g transform="translate(85.0,35.0)"><text x="-100.02000000000002" y="10.265999999999998" style="fill:rgb(16.1%,15.3%,14.1%);fill-opacity:1.0;font-family:helvetica;font-size:12.0px;font-weight:bold;stroke:none;vertical-align:baseline;white-space:pre">Time of recombination on branch 7</text></g><g class="toyplot-coordinates-Axis-coordinates" style="visibility:hidden" transform=""><line x1="0" x2="0" y1="-7.5" y2="11.25" style="stroke:rgb(43.9%,50.2%,56.5%);stroke-opacity:1.0;stroke-width:1.0" /><text x="0" y="-15.0" style="alignment-baseline:alphabetic;fill:rgb(43.9%,50.2%,56.5%);fill-opacity:1.0;font-size:10px;font-weight:normal;stroke:none;text-anchor:middle" /></g></g><g class="toyplot-coordinates-Axis" id="t5d39eb067c054c22915c1f2bceef9946" transform="translate(65.0,435.0)rotate(-90.0)translate(0,-10.0)"><line x1="0" y1="0" x2="120.0" y2="0" style="stroke-width:1.5" /><g><line x1="0.0" y1="-7.5" x2="0.0" y2="0" style="stroke-width:1.5" /><line x1="60.0" y1="-7.5" x2="60.0" y2="0" style="stroke-width:1.5" /><line x1="120.0" y1="-7.5" x2="120.0" y2="0" style="stroke-width:1.5" /></g><g><g transform="translate(0.0,-15.0)"><text x="-6.95" y="-4.440892098500626e-16" style="fill:rgb(16.1%,15.3%,14.1%);fill-opacity:1.0;font-family:helvetica;font-size:10.0px;font-weight:normal;stroke:none;vertical-align:baseline;white-space:pre">0.0</text></g><g transform="translate(60.0,-15.0)"><text x="-6.95" y="-4.440892098500626e-16" style="fill:rgb(16.1%,15.3%,14.1%);fill-opacity:1.0;font-family:helvetica;font-size:10.0px;font-weight:normal;stroke:none;vertical-align:baseline;white-space:pre">0.5</text></g><g transform="translate(120.0,-15.0)"><text x="-6.95" y="-4.440892098500626e-16" style="fill:rgb(16.1%,15.3%,14.1%);fill-opacity:1.0;font-family:helvetica;font-size:10.0px;font-weight:normal;stroke:none;vertical-align:baseline;white-space:pre">1.0</text></g></g><g transform="translate(60.0,-35.0)"><text x="-31.008" y="0.0" style="fill:rgb(16.1%,15.3%,14.1%);fill-opacity:1.0;font-family:helvetica;font-size:12.0px;font-weight:bold;stroke:none;vertical-align:baseline;white-space:pre">Probability</text></g><g class="toyplot-coordinates-Axis-coordinates" style="visibility:hidden" transform=""><line x1="0" x2="0" y1="7.5" y2="-11.25" style="stroke:rgb(43.9%,50.2%,56.5%);stroke-opacity:1.0;stroke-width:1.0" /><text x="0" y="15.0" style="alignment-baseline:hanging;fill:rgb(43.9%,50.2%,56.5%);fill-opacity:1.0;font-size:10px;font-weight:normal;stroke:none;text-anchor:middle" /></g></g><g transform="translate(150.0,295.0)"><text x="-60.284" y="-4.823" style="fill:rgb(16.1%,15.3%,14.1%);fill-opacity:1.0;font-family:helvetica;font-size:14.0px;font-weight:bold;stroke:none;vertical-align:baseline;white-space:pre">Prob(tree-change)</text></g></g><g class="toyplot-coordinates-Cartesian" id="t4cb52922907b4a459801a3c3757e081c"><clipPath id="t2027f7ba407f4b39a4d70b6be0eacc70"><rect x="55.0" y="555.0" width="190.0" height="140.0" /></clipPath><g clip-path="url(#t2027f7ba407f4b39a4d70b6be0eacc70)"><g class="toyplot-mark-Plot" style="fill:none" id="t4981ec6492a34c62a5a8f517fe73d2b7"><g class="toyplot-Series"><path d="M 65.0 624.5409677854122 L 65.85 624.5377432873336 L 66.69999999999999 624.5344961385834 L 67.55000000000001 624.531226180051 L 68.39999999999999 624.5279332515076 L 69.25 624.524617191599 L 70.1 624.5212778378377 L 70.95 624.5179150265947 L 71.8 624.5145285930915 L 72.64999999999999 624.5111183713923 L 73.5 624.5076841943954 L 74.35 624.5042258938256 L 75.19999999999999 624.5007433002254 L 76.05000000000001 624.4972362429469 L 76.9 624.4937045501438 L 77.75 624.4901480487623 L 78.60000000000001 624.4865665645332 L 79.45 624.4829599219631 L 80.3 624.4793279443256 L 81.15 624.4756704536533 L 82.0 624.4719872707283 L 82.85000000000001 624.468278215074 L 83.7 624.4645431049457 L 84.55 624.4607817573224 L 85.4 624.4569939878975 L 86.25 624.4531796110691 L 87.1 624.4493384399325 L 87.95 624.445470286269 L 88.80000000000001 624.4415749605389 L 89.64999999999999 624.4376522718699 L 90.5 624.4337020280498 L 91.35 624.4297240355157 L 92.2 624.4257180993453 L 93.05 624.4216840232468 L 93.9 624.4176216095498 L 94.75 624.4135306591951 L 95.6 624.4094109717254 L 96.44999999999999 624.4052623452751 L 97.30000000000001 624.4010845765607 L 98.15 624.3968774608708 L 99.0 624.3926407920558 L 99.85 624.3883743625179 L 100.7 624.3840779632017 L 101.55 624.3797513835822 L 102.4 624.3753944116565 L 103.25 624.3710068339319 L 104.10000000000001 624.3665884354165 L 104.94999999999999 624.3621389996076 L 105.8 624.3576583084821 L 106.65 624.353146142485 L 107.5 624.3486022805196 L 108.35 624.3440264999357 L 109.2 624.3394185765189 L 110.05000000000001 624.3347782844803 L 110.9 624.3301053964444 L 111.75 624.3253996834391 L 112.60000000000001 624.3206609148831 L 113.45 624.315888858576 L 114.29999999999998 624.489825862778 L 115.15 624.6955471811978 L 116.0 624.9034399536442 L 116.85 625.1135271005064 L 117.69999999999999 625.325831784105 L 118.55000000000001 625.5403774112463 L 119.4 625.7571876358031 L 120.25 625.9762863613221 L 121.1 626.1976977436599 L 121.95000000000002 626.4214461936457 L 122.8 626.6475563797726 L 123.64999999999999 626.8760532309177 L 124.5 627.1069619390905 L 125.35 627.3403079622096 L 126.19999999999999 627.5761170269107 L 127.04999999999998 627.8144151313819 L 127.9 628.0552285482306 L 128.75 628.2985838273801 L 129.6 628.5445077989962 L 130.45000000000002 628.7930275764461 L 131.3 629.0441705592868 L 132.15 629.2979644362865 L 133.0 629.5544371884774 L 133.85000000000002 629.8136170922403 L 134.7 630.0755327224218 L 135.54999999999998 630.3402129554856 L 136.4 630.6076869726955 L 137.25 630.8779842633329 L 138.1 631.1511346279478 L 138.95 631.4271681816446 L 139.8 631.706115357402 L 140.65 631.988006909429 L 141.5 632.2728739165547 L 142.35 632.5607477856549 L 143.20000000000002 632.8516602551156 L 144.05 633.145643398331 L 144.89999999999998 633.4427296272405 L 145.75 633.7429516959019 L 146.6 634.0463427041021 L 147.45 634.3529361010072 L 148.29999999999998 634.66276568885 L 149.15 634.975865626656 L 150.0 635.2922704340106 L 150.85 635.6120149948645 L 151.70000000000002 635.9351345613791 L 152.55 636.2616647578143 L 153.4 636.5916415844547 L 154.25 636.9251014215797 L 155.10000000000002 637.2620810334743 L 155.95000000000002 637.6026175724818 L 156.8 637.9467485831008 L 157.65 638.2945120061236 L 158.5 638.64594618282 L 159.35000000000002 639.0010898591638 L 160.20000000000002 639.3599821901053 L 161.04999999999998 639.7226627438873 L 161.89999999999998 640.0891715064083 L 162.75 639.9700090634698 L 163.6 639.6536933134105 L 164.45 639.3351555852505 L 165.3 639.0143802705772 L 166.14999999999998 638.6913516513364 L 167.0 638.366053899061 L 167.85 638.0384710740957 L 168.7 637.708587124817 L 169.55 637.376385886845 L 170.39999999999998 637.0418510822528 L 171.25 636.7049663187681 L 172.10000000000002 636.3657150889699 L 172.95 636.0240807694802 L 173.8 635.6800466201488 L 174.65 635.3335957832337 L 175.5 634.9847112825746 L 176.35000000000002 634.6333760227611 L 177.2 634.2795727882952 L 178.05 633.9232842427475 L 178.9 633.5644929279082 L 179.75 633.2031812629309 L 180.60000000000002 632.8393315434718 L 181.45000000000002 632.4729259408218 L 182.29999999999998 632.1039465010331 L 183.14999999999998 631.7323751440393 L 184.0 631.3581936627696 L 184.85 630.9813837222565 L 185.7 630.6019268587377 L 186.55 630.2198044787506 L 187.39999999999998 629.8349978582224 L 188.25 629.4474881415516 L 189.1 629.0572563406847 L 189.95 628.6642833341853 L 190.8 628.2685498662972 L 191.64999999999998 627.8700365460018 L 192.5 627.468723846066 L 193.35000000000002 627.064592102088 L 194.2 626.6576215115308 L 195.05 626.2477921327545 L 195.9 625.8350838840372 L 196.75 625.4194765425923 L 197.60000000000002 625.0009497435769 L 198.45 624.5794829790941 L 199.3 624.1550555971883 L 200.15 623.7276468008324 L 201.0 623.2972356469103 L 201.85000000000002 622.8638010451891 L 202.70000000000002 622.4273217572868 L 203.54999999999998 621.9877763956308 L 204.39999999999998 621.5451434224104 L 205.25 621.0994011485215 L 206.1 620.6505277325034 L 206.95 620.1985011794688 L 207.8 619.7432993400264 L 208.64999999999998 619.2848999091948 L 209.5 618.8232804253103 L 210.35 618.3584182689257 L 211.2 617.9966583762453 L 212.05 617.7116295063267 L 212.89999999999998 617.4235920659202 L 213.75 617.1325142986061 L 214.60000000000002 616.8383641127656 L 215.45 616.5411090780431 L 216.3 616.2407164217694 L 217.15 615.9371530253504 L 218.0 615.630385420614 L 218.85000000000002 615.3203797861208 L 219.7 615.0071019434358 L 220.55 614.6905173533596 L 221.4 614.3705911121203 L 222.25 614.0472879475258 L 223.10000000000002 613.7205722150748 L 223.95000000000002 613.3904078940266 L 224.79999999999998 613.0567585834308 L 225.65 612.7195874981124 L 226.5 612.3788574646182 L 227.35 612.0345309171166 L 228.2 611.6865698932572 L 229.05 611.3349360299844 L 229.89999999999998 610.9795905593087 L 230.75 610.620494304032 L 231.6 610.2576076734285 L 232.45 609.8908906588795 L 233.3 609.5203028294627 L 234.14999999999998 609.1458033274946" style="stroke:rgb(40%,76.1%,64.7%);stroke-opacity:1.0;stroke-width:5.0" /></g></g><g class="toyplot-mark-FillBoundaries" style="stroke:none" id="tec3eab13dce8493f90a24df6cee0f80b"><polygon points="65.0,685.0 65.85,685.0 66.69999999999999,685.0 67.55000000000001,685.0 68.39999999999999,685.0 69.25,685.0 70.1,685.0 70.95,685.0 71.8,685.0 72.64999999999999,685.0 73.5,685.0 74.35,685.0 75.19999999999999,685.0 76.05000000000001,685.0 76.9,685.0 77.75,685.0 78.60000000000001,685.0 79.45,685.0 80.3,685.0 81.15,685.0 82.0,685.0 82.85000000000001,685.0 83.7,685.0 84.55,685.0 85.4,685.0 86.25,685.0 87.1,685.0 87.95,685.0 88.80000000000001,685.0 89.64999999999999,685.0 90.5,685.0 91.35,685.0 92.2,685.0 93.05,685.0 93.9,685.0 94.75,685.0 95.6,685.0 96.44999999999999,685.0 97.30000000000001,685.0 98.15,685.0 99.0,685.0 99.85,685.0 100.7,685.0 101.55,685.0 102.4,685.0 103.25,685.0 104.10000000000001,685.0 104.94999999999999,685.0 105.8,685.0 106.65,685.0 107.5,685.0 108.35,685.0 109.2,685.0 110.05000000000001,685.0 110.9,685.0 111.75,685.0 112.60000000000001,685.0 113.45,685.0 114.29999999999998,685.0 115.15,685.0 116.0,685.0 116.85,685.0 117.69999999999999,685.0 118.55000000000001,685.0 119.4,685.0 120.25,685.0 121.1,685.0 121.95000000000002,685.0 122.8,685.0 123.64999999999999,685.0 124.5,685.0 125.35,685.0 126.19999999999999,685.0 127.04999999999998,685.0 127.9,685.0 128.75,685.0 129.6,685.0 130.45000000000002,685.0 131.3,685.0 132.15,685.0 133.0,685.0 133.85000000000002,685.0 134.7,685.0 135.54999999999998,685.0 136.4,685.0 137.25,685.0 138.1,685.0 138.95,685.0 139.8,685.0 140.65,685.0 141.5,685.0 142.35,685.0 143.20000000000002,685.0 144.05,685.0 144.89999999999998,685.0 145.75,685.0 146.6,685.0 147.45,685.0 148.29999999999998,685.0 149.15,685.0 150.0,685.0 150.85,685.0 151.70000000000002,685.0 152.55,685.0 153.4,685.0 154.25,685.0 155.10000000000002,685.0 155.95000000000002,685.0 156.8,685.0 157.65,685.0 158.5,685.0 159.35000000000002,685.0 160.20000000000002,685.0 161.04999999999998,685.0 161.89999999999998,685.0 162.75,685.0 163.6,685.0 164.45,685.0 165.3,685.0 166.14999999999998,685.0 167.0,685.0 167.85,685.0 168.7,685.0 169.55,685.0 170.39999999999998,685.0 171.25,685.0 172.10000000000002,685.0 172.95,685.0 173.8,685.0 174.65,685.0 175.5,685.0 176.35000000000002,685.0 177.2,685.0 178.05,685.0 178.9,685.0 179.75,685.0 180.60000000000002,685.0 181.45000000000002,685.0 182.29999999999998,685.0 183.14999999999998,685.0 184.0,685.0 184.85,685.0 185.7,685.0 186.55,685.0 187.39999999999998,685.0 188.25,685.0 189.1,685.0 189.95,685.0 190.8,685.0 191.64999999999998,685.0 192.5,685.0 193.35000000000002,685.0 194.2,685.0 195.05,685.0 195.9,685.0 196.75,685.0 197.60000000000002,685.0 198.45,685.0 199.3,685.0 200.15,685.0 201.0,685.0 201.85000000000002,685.0 202.70000000000002,685.0 203.54999999999998,685.0 204.39999999999998,685.0 205.25,685.0 206.1,685.0 206.95,685.0 207.8,685.0 208.64999999999998,685.0 209.5,685.0 210.35,685.0 211.2,685.0 212.05,685.0 212.89999999999998,685.0 213.75,685.0 214.60000000000002,685.0 215.45,685.0 216.3,685.0 217.15,685.0 218.0,685.0 218.85000000000002,685.0 219.7,685.0 220.55,685.0 221.4,685.0 222.25,685.0 223.10000000000002,685.0 223.95000000000002,685.0 224.79999999999998,685.0 225.65,685.0 226.5,685.0 227.35,685.0 228.2,685.0 229.05,685.0 229.89999999999998,685.0 230.75,685.0 231.6,685.0 232.45,685.0 233.3,685.0 234.14999999999998,685.0 234.14999999999998,609.1458033274946 233.3,609.5203028294627 232.45,609.8908906588795 231.6,610.2576076734285 230.75,610.620494304032 229.89999999999998,610.9795905593087 229.05,611.3349360299844 228.2,611.6865698932572 227.35,612.0345309171166 226.5,612.3788574646182 225.65,612.7195874981124 224.79999999999998,613.0567585834308 223.95000000000002,613.3904078940266 223.10000000000002,613.7205722150748 222.25,614.0472879475258 221.4,614.3705911121203 220.55,614.6905173533596 219.7,615.0071019434358 218.85000000000002,615.3203797861208 218.0,615.630385420614 217.15,615.9371530253504 216.3,616.2407164217694 215.45,616.5411090780431 214.60000000000002,616.8383641127656 213.75,617.1325142986061 212.89999999999998,617.4235920659202 212.05,617.7116295063267 211.2,617.9966583762453 210.35,618.3584182689257 209.5,618.8232804253103 208.64999999999998,619.2848999091948 207.8,619.7432993400264 206.95,620.1985011794688 206.1,620.6505277325034 205.25,621.0994011485215 204.39999999999998,621.5451434224104 203.54999999999998,621.9877763956308 202.70000000000002,622.4273217572868 201.85000000000002,622.8638010451891 201.0,623.2972356469103 200.15,623.7276468008324 199.3,624.1550555971883 198.45,624.5794829790941 197.60000000000002,625.0009497435769 196.75,625.4194765425923 195.9,625.8350838840372 195.05,626.2477921327545 194.2,626.6576215115308 193.35000000000002,627.064592102088 192.5,627.468723846066 191.64999999999998,627.8700365460018 190.8,628.2685498662972 189.95,628.6642833341853 189.1,629.0572563406847 188.25,629.4474881415516 187.39999999999998,629.8349978582224 186.55,630.2198044787506 185.7,630.6019268587377 184.85,630.9813837222565 184.0,631.3581936627696 183.14999999999998,631.7323751440393 182.29999999999998,632.1039465010331 181.45000000000002,632.4729259408218 180.60000000000002,632.8393315434718 179.75,633.2031812629309 178.9,633.5644929279082 178.05,633.9232842427475 177.2,634.2795727882952 176.35000000000002,634.6333760227611 175.5,634.9847112825746 174.65,635.3335957832337 173.8,635.6800466201488 172.95,636.0240807694802 172.10000000000002,636.3657150889699 171.25,636.7049663187681 170.39999999999998,637.0418510822528 169.55,637.376385886845 168.7,637.708587124817 167.85,638.0384710740957 167.0,638.366053899061 166.14999999999998,638.6913516513364 165.3,639.0143802705772 164.45,639.3351555852505 163.6,639.6536933134105 162.75,639.9700090634698 161.89999999999998,640.0891715064083 161.04999999999998,639.7226627438873 160.20000000000002,639.3599821901053 159.35000000000002,639.0010898591638 158.5,638.64594618282 157.65,638.2945120061236 156.8,637.9467485831008 155.95000000000002,637.6026175724818 155.10000000000002,637.2620810334743 154.25,636.9251014215797 153.4,636.5916415844547 152.55,636.2616647578143 151.70000000000002,635.9351345613791 150.85,635.6120149948645 150.0,635.2922704340106 149.15,634.975865626656 148.29999999999998,634.66276568885 147.45,634.3529361010072 146.6,634.0463427041021 145.75,633.7429516959019 144.89999999999998,633.4427296272405 144.05,633.145643398331 143.20000000000002,632.8516602551156 142.35,632.5607477856549 141.5,632.2728739165547 140.65,631.988006909429 139.8,631.706115357402 138.95,631.4271681816446 138.1,631.1511346279478 137.25,630.8779842633329 136.4,630.6076869726955 135.54999999999998,630.3402129554856 134.7,630.0755327224218 133.85000000000002,629.8136170922403 133.0,629.5544371884774 132.15,629.2979644362865 131.3,629.0441705592868 130.45000000000002,628.7930275764461 129.6,628.5445077989962 128.75,628.2985838273801 127.9,628.0552285482306 127.04999999999998,627.8144151313819 126.19999999999999,627.5761170269107 125.35,627.3403079622096 124.5,627.1069619390905 123.64999999999999,626.8760532309177 122.8,626.6475563797726 121.95000000000002,626.4214461936457 121.1,626.1976977436599 120.25,625.9762863613221 119.4,625.7571876358031 118.55000000000001,625.5403774112463 117.69999999999999,625.325831784105 116.85,625.1135271005064 116.0,624.9034399536442 115.15,624.6955471811978 114.29999999999998,624.489825862778 113.45,624.315888858576 112.60000000000001,624.3206609148831 111.75,624.3253996834391 110.9,624.3301053964444 110.05000000000001,624.3347782844803 109.2,624.3394185765189 108.35,624.3440264999357 107.5,624.3486022805196 106.65,624.353146142485 105.8,624.3576583084821 104.94999999999999,624.3621389996076 104.10000000000001,624.3665884354165 103.25,624.3710068339319 102.4,624.3753944116565 101.55,624.3797513835822 100.7,624.3840779632017 99.85,624.3883743625179 99.0,624.3926407920558 98.15,624.3968774608708 97.30000000000001,624.4010845765607 96.44999999999999,624.4052623452751 95.6,624.4094109717254 94.75,624.4135306591951 93.9,624.4176216095498 93.05,624.4216840232468 92.2,624.4257180993453 91.35,624.4297240355157 90.5,624.4337020280498 89.64999999999999,624.4376522718699 88.80000000000001,624.4415749605389 87.95,624.445470286269 87.1,624.4493384399325 86.25,624.4531796110691 85.4,624.4569939878975 84.55,624.4607817573224 83.7,624.4645431049457 82.85000000000001,624.468278215074 82.0,624.4719872707283 81.15,624.4756704536533 80.3,624.4793279443256 79.45,624.4829599219631 78.60000000000001,624.4865665645332 77.75,624.4901480487623 76.9,624.4937045501438 76.05000000000001,624.4972362429469 75.19999999999999,624.5007433002254 74.35,624.5042258938256 73.5,624.5076841943954 72.64999999999999,624.5111183713923 71.8,624.5145285930915 70.95,624.5179150265947 70.1,624.5212778378377 69.25,624.524617191599 68.39999999999999,624.5279332515076 67.55000000000001,624.531226180051 66.69999999999999,624.5344961385834 65.85,624.5377432873336 65.0,624.5409677854122" style="fill:rgb(40%,76.1%,64.7%);fill-opacity:1.0;opacity:0.33;stroke:none" /></g><g class="toyplot-mark-Plot" style="fill:none;stroke:rgb(0%,0%,0%);stroke-dasharray:4,2;stroke-opacity:1.0;stroke-width:2" id="t1e5f80f667814c41a17abc59b3b6a024"><g class="toyplot-Series"><path d="M 65.0 685.0 L 65.0 624.5409677854122" style="stroke:rgb(0%,0%,0%);stroke-dasharray:4,2;stroke-opacity:1.0;stroke-width:2" /></g></g><g class="toyplot-mark-Plot" style="fill:none;stroke:rgb(0%,0%,0%);stroke-dasharray:4,2;stroke-opacity:1.0;stroke-width:2" id="tf83c241989f8423187b792de8af9a21e"><g class="toyplot-Series"><path d="M 113.5714280857143 685.0 L 113.5714280857143 624.3152044080043" style="stroke:rgb(0%,0%,0%);stroke-dasharray:4,2;stroke-opacity:1.0;stroke-width:2" /></g></g><g class="toyplot-mark-Plot" style="fill:none;stroke:rgb(0%,0%,0%);stroke-dasharray:4,2;stroke-opacity:1.0;stroke-width:2" id="t2b6376b312264994a3755bf797ff537c"><g class="toyplot-Series"><path d="M 162.14285665714286 685.0 L 162.14285665714286 640.1945968690515" style="stroke:rgb(0%,0%,0%);stroke-dasharray:4,2;stroke-opacity:1.0;stroke-width:2" /></g></g><g class="toyplot-mark-Plot" style="fill:none;stroke:rgb(0%,0%,0%);stroke-dasharray:4,2;stroke-opacity:1.0;stroke-width:2" id="tdcc2d72e88a649fbb8d055f31100f9d0"><g class="toyplot-Series"><path d="M 210.71428522857144 685.0 L 210.71428522857144 618.1581936038697" style="stroke:rgb(0%,0%,0%);stroke-dasharray:4,2;stroke-opacity:1.0;stroke-width:2" /></g></g><g class="toyplot-mark-Plot" style="fill:none;stroke:rgb(0%,0%,0%);stroke-dasharray:4,2;stroke-opacity:1.0;stroke-width:2" id="t71399611309c486494255498dc999df3"><g class="toyplot-Series"><path d="M 234.99999951428572 685.0 L 234.99999951428572 608.7673510814216" style="stroke:rgb(0%,0%,0%);stroke-dasharray:4,2;stroke-opacity:1.0;stroke-width:2" /></g></g></g><g class="toyplot-coordinates-Axis" id="t32fd379f67a74aa69d45c7e6162b2967" transform="translate(65.0,685.0)translate(0,10.0)"><line x1="0" y1="0" x2="169.99999951428572" y2="0" style="stroke-width:1.5" /><g><line x1="0.0" y1="7.5" x2="0.0" y2="0" style="stroke-width:1.5" /><line x1="48.57142857142857" y1="7.5" x2="48.57142857142857" y2="0" style="stroke-width:1.5" /><line x1="97.14285714285714" y1="7.5" x2="97.14285714285714" y2="0" style="stroke-width:1.5" /><line x1="145.7142857142857" y1="7.5" x2="145.7142857142857" y2="0" style="stroke-width:1.5" /><line x1="170.0" y1="7.5" x2="170.0" y2="0" style="stroke-width:1.5" /></g><g><g transform="translate(0.0,15.0)"><text x="-16.68" y="8.555" style="fill:rgb(16.1%,15.3%,14.1%);fill-opacity:1.0;font-family:helvetica;font-size:10.0px;font-weight:normal;stroke:none;vertical-align:baseline;white-space:pre">100000</text></g><g transform="translate(48.57142857142857,15.0)"><text x="-16.68" y="8.555" style="fill:rgb(16.1%,15.3%,14.1%);fill-opacity:1.0;font-family:helvetica;font-size:10.0px;font-weight:normal;stroke:none;vertical-align:baseline;white-space:pre">200000</text></g><g transform="translate(97.14285714285714,15.0)"><text x="-16.68" y="8.555" style="fill:rgb(16.1%,15.3%,14.1%);fill-opacity:1.0;font-family:helvetica;font-size:10.0px;font-weight:normal;stroke:none;vertical-align:baseline;white-space:pre">300000</text></g><g transform="translate(145.7142857142857,15.0)"><text x="-16.68" y="8.555" style="fill:rgb(16.1%,15.3%,14.1%);fill-opacity:1.0;font-family:helvetica;font-size:10.0px;font-weight:normal;stroke:none;vertical-align:baseline;white-space:pre">400000</text></g><g transform="translate(170.0,15.0)"><text x="-16.68" y="8.555" style="fill:rgb(16.1%,15.3%,14.1%);fill-opacity:1.0;font-family:helvetica;font-size:10.0px;font-weight:normal;stroke:none;vertical-align:baseline;white-space:pre">450000</text></g></g><g transform="translate(85.0,35.0)"><text x="-100.02000000000002" y="10.265999999999998" style="fill:rgb(16.1%,15.3%,14.1%);fill-opacity:1.0;font-family:helvetica;font-size:12.0px;font-weight:bold;stroke:none;vertical-align:baseline;white-space:pre">Time of recombination on branch 7</text></g><g class="toyplot-coordinates-Axis-coordinates" style="visibility:hidden" transform=""><line x1="0" x2="0" y1="-7.5" y2="11.25" style="stroke:rgb(43.9%,50.2%,56.5%);stroke-opacity:1.0;stroke-width:1.0" /><text x="0" y="-15.0" style="alignment-baseline:alphabetic;fill:rgb(43.9%,50.2%,56.5%);fill-opacity:1.0;font-size:10px;font-weight:normal;stroke:none;text-anchor:middle" /></g></g><g class="toyplot-coordinates-Axis" id="t486484b045bc47c7a4f08b9f097d104e" transform="translate(65.0,685.0)rotate(-90.0)translate(0,-10.0)"><line x1="0" y1="0" x2="120.0" y2="0" style="stroke-width:1.5" /><g><line x1="0.0" y1="-7.5" x2="0.0" y2="0" style="stroke-width:1.5" /><line x1="60.0" y1="-7.5" x2="60.0" y2="0" style="stroke-width:1.5" /><line x1="120.0" y1="-7.5" x2="120.0" y2="0" style="stroke-width:1.5" /></g><g><g transform="translate(0.0,-15.0)"><text x="-6.95" y="-4.440892098500626e-16" style="fill:rgb(16.1%,15.3%,14.1%);fill-opacity:1.0;font-family:helvetica;font-size:10.0px;font-weight:normal;stroke:none;vertical-align:baseline;white-space:pre">0.0</text></g><g transform="translate(60.0,-15.0)"><text x="-6.95" y="-4.440892098500626e-16" style="fill:rgb(16.1%,15.3%,14.1%);fill-opacity:1.0;font-family:helvetica;font-size:10.0px;font-weight:normal;stroke:none;vertical-align:baseline;white-space:pre">0.5</text></g><g transform="translate(120.0,-15.0)"><text x="-6.95" y="-4.440892098500626e-16" style="fill:rgb(16.1%,15.3%,14.1%);fill-opacity:1.0;font-family:helvetica;font-size:10.0px;font-weight:normal;stroke:none;vertical-align:baseline;white-space:pre">1.0</text></g></g><g transform="translate(60.0,-35.0)"><text x="-31.008" y="0.0" style="fill:rgb(16.1%,15.3%,14.1%);fill-opacity:1.0;font-family:helvetica;font-size:12.0px;font-weight:bold;stroke:none;vertical-align:baseline;white-space:pre">Probability</text></g><g class="toyplot-coordinates-Axis-coordinates" style="visibility:hidden" transform=""><line x1="0" x2="0" y1="7.5" y2="-11.25" style="stroke:rgb(43.9%,50.2%,56.5%);stroke-opacity:1.0;stroke-width:1.0" /><text x="0" y="15.0" style="alignment-baseline:hanging;fill:rgb(43.9%,50.2%,56.5%);fill-opacity:1.0;font-size:10px;font-weight:normal;stroke:none;text-anchor:middle" /></g></g><g transform="translate(150.0,545.0)"><text x="-62.608000000000004" y="-4.823" style="fill:rgb(16.1%,15.3%,14.1%);fill-opacity:1.0;font-family:helvetica;font-size:14.0px;font-weight:bold;stroke:none;vertical-align:baseline;white-space:pre">Prob(topo-change)</text></g></g></svg>