<svg class="toyplot-canvas-Canvas" xmlns:toyplot="http://www.sandia.gov/toyplot" xmlns:xlink="http://www.w3.org/1999/xlink" xmlns="http://www.w3.org/2000/svg" width="300.0px" height="750.0px" viewBox="0 0 300.0 750.0" preserveAspectRatio="xMidYMid meet" style="background-color:transparent;border-color:#292724;border-style:none;border-width:1.0;fill:rgb(16.1%,15.3%,14.1%);fill-opacity:1.0;font-family:Helvetica;font-size:12px;opacity:1.0;stroke:rgb(16.1%,15.3%,14.1%);stroke-opacity:1.0;stroke-width:1.0" id="tb43224aa38c14249ba48c39fd9f4ef71"><g class="toyplot-coordinates-Cartesian" id="tba6cd2fa669a46d993eb61050fa80e93"><clipPath id="ta7ed1e1cb92f4264b918bb887349ebd2"><rect x="55.0" y="55.0" width="190.0" height="140.0" /></clipPath><g clip-path="url(#ta7ed1e1cb92f4264b918bb887349ebd2)"><g class="toyplot-mark-Plot" style="fill:none" id="t386165a3af5c41788bd680c3947154e9"><g class="toyplot-Series"><path d="M 65.0 127.59832309882205 L 65.85 127.69087461096944 L 66.69999999999999 127.78672278102846 L 67.55000000000001 127.88598503499398 L 68.39999999999999 127.98878298154052 L 69.25 128.09524256100826 L 70.1 128.20549419969558 L 70.95 128.31967296964763 L 71.8 128.43791875413643 L 72.64999999999999 128.56037641903555 L 73.5 128.68719599029865 L 74.35 128.81853283776022 L 75.19999999999999 128.95454786548308 L 76.05000000000001 129.09540770888572 L 76.9 129.24128493889197 L 77.75 129.39235827335153 L 78.60000000000001 129.54881279599192 L 79.45 129.71084018316918 L 80.3 129.87863893869522 L 81.15 130.05241463703004 L 82.0 130.23238017513603 L 82.85000000000001 130.41875603330328 L 83.7 130.61177054526576 L 84.55 130.8116601779384 L 85.4 131.01866982111892 L 86.25 131.23305308750827 L 87.1 131.4550726234179 L 87.95 131.68500043054448 L 88.80000000000001 131.92311819920582 L 89.64999999999999 132.1697176534469 L 90.5 132.4251009084382 L 91.35 132.6895808406046 L 92.2 132.9634814709381 L 93.05 133.2471383619641 L 93.9 133.54089902884746 L 94.75 133.845123365142 L 95.6 134.1601840837051 L 96.44999999999999 134.48646717331764 L 97.30000000000001 134.8243723715684 L 98.15 135.1743136545827 L 99.0 135.53671974419498 L 99.85 135.91203463318647 L 100.7 136.30071812923194 L 101.55 136.7032464182218 L 102.4 137.1201126476491 L 103.25 137.551827530777 L 104.10000000000001 137.99891997232638 L 104.94999999999999 138.46193771645022 L 105.8 138.94144801778884 L 106.65 139.43803833642758 L 107.5 139.95231705760895 L 108.35 140.4849142370806 L 109.2 141.03648237299257 L 110.05000000000001 141.60769720528884 L 110.9 142.19925854357356 L 111.75 142.81189112446506 L 112.60000000000001 143.4463454994891 L 113.45 144.10339895459816 L 114.29999999999998 144.16229396533464 L 115.15 144.1171394637975 L 116.0 144.0695510189382 L 116.85 144.01939743497562 L 117.69999999999999 143.96654044434 L 118.55000000000001 143.91083432648537 L 119.4 143.85212550615495 L 120.25 143.79025212999207 L 121.1 143.72504362032961 L 121.95000000000002 143.656320204927 L 122.8 143.5838924213594 L 123.64999999999999 143.50756059469182 L 124.5 143.42711428699877 L 125.35 143.34233171721127 L 126.19999999999999 143.25297914969264 L 127.04999999999998 143.1588102498564 L 127.9 143.05956540505093 L 128.75 142.95497100883736 L 129.6 142.84473870668882 L 130.45000000000002 142.72856460103066 L 131.3 142.60612841343033 L 132.15 142.47709260162716 L 133.0 142.341101428968 L 133.85000000000002 142.1977799836824 L 134.7 142.0467331452951 L 135.54999999999998 141.8875444953249 L 136.4 141.71977516926748 L 137.25 141.54296264669733 L 138.1 141.35661947615313 L 138.95 141.16023193129075 L 139.8 140.95325859459996 L 140.65 140.7351288647796 L 141.5 140.5052413836564 L 142.35 140.26296237831093 L 143.20000000000002 140.00762391383944 L 144.05 139.73852205193577 L 144.89999999999998 139.4549149102154 L 145.75 139.1560206169325 L 146.6 138.84101515545103 L 147.45 138.50903009252696 L 148.29999999999998 138.15915018413946 L 149.15 137.7904108522701 L 150.0 137.40179552567383 L 150.85 136.99223283731104 L 151.70000000000002 136.5605936707137 L 152.55 136.1056880471434 L 153.4 135.62626184495863 L 154.25 135.12099334214858 L 155.10000000000002 134.58848957249944 L 155.95000000000002 134.02728248534976 L 156.8 133.43582489834608 L 157.65 132.8124862320421 L 158.5 132.1555480145817 L 159.35000000000002 131.46319914407292 L 160.20000000000002 130.7335308955915 L 161.04999999999998 129.96453165904956 L 161.89999999999998 129.15408139342165 L 162.75 129.01369959778617 L 163.6 129.15666640866849 L 164.45 129.30472565572245 L 165.3 129.45805873004156 L 166.14999999999998 129.61685348381724 L 167.0 129.78130446048132 L 167.85 129.95161313304604 L 168.7 130.1279881509335 L 169.55 130.31064559559766 L 170.39999999999998 130.49980924525087 L 171.25 130.69571084902017 L 172.10000000000002 130.89859041086913 L 172.95 131.10869648363254 L 173.8 131.32628647352482 L 174.65 131.55162695549475 L 175.5 131.78499399981325 L 176.35000000000002 132.02667351029382 L 177.2 132.2769615745605 L 178.05 132.53616482679237 L 178.9 132.80460082338868 L 179.75 133.0825984320151 L 180.60000000000002 133.37049823450775 L 181.45000000000002 133.6686529441287 L 182.29999999999998 133.97742783768356 L 183.14999999999998 134.29720120303145 L 184.0 134.62836480253495 L 184.85 134.9713243530178 L 185.7 135.3265000228189 L 186.55 135.69432694655097 L 187.39999999999998 136.0752557581951 L 188.25 136.46975314318337 L 189.1 136.8783024101471 L 189.95 137.3014040830304 L 190.8 137.73957651429444 L 191.64999999999998 138.19335651996414 L 192.5 138.6633000372949 L 193.35000000000002 139.14998280586522 L 194.2 139.6540010729298 L 195.05 140.17597232389693 L 195.9 140.71653603882527 L 196.75 141.27635447586704 L 197.60000000000002 141.85611348261685 L 198.45 142.45652333636107 L 199.3 143.0783196142561 L 200.15 143.72226409450238 L 201.0 144.3891456896182 L 201.85000000000002 145.0797814129559 L 202.70000000000002 145.79501737964546 L 203.54999999999998 146.53572984319152 L 204.39999999999998 147.30282626899336 L 205.25 148.0972464461035 L 206.1 148.91996363858684 L 206.95 149.77198577789088 L 207.8 150.65435669768777 L 208.64999999999998 151.56815741270105 L 209.5 152.51450744308403 L 210.35 153.49456618597173 L 211.2 154.19701940746896 L 212.05 154.69276231701755 L 212.89999999999998 155.2152270395231 L 213.75 155.76585394916737 L 214.60000000000002 156.34616105999083 L 215.45 156.95774821088006 L 216.3 157.60230147613655 L 217.15 158.28159781378645 L 218.0 158.99750996444624 L 218.85000000000002 159.75201161424974 L 219.7 160.54718283607014 L 220.55 161.38521582403774 L 221.4 162.2684209371632 L 222.25 163.19923306872695 L 223.10000000000002 164.18021835899577 L 223.95000000000002 165.21408126977144 L 224.79999999999998 166.3036720402759 L 225.65 167.4519945449277 L 226.5 168.6622145746726 L 227.35 169.93766856469955 L 228.2 171.2818727926023 L 229.05 172.69853307234573 L 229.89999999999998 174.1915549707623 L 230.75 175.76505457474283 L 231.6 177.4233698388075 L 232.45 179.17107254433924 L 233.3 181.01298090345063 L 234.14999999999998 182.95417284223205" style="stroke:rgb(40%,76.1%,64.7%);stroke-opacity:1.0;stroke-width:5.0" /></g></g><g class="toyplot-mark-FillBoundaries" style="stroke:none" id="teb79ea27b66545ecbd4ac050e7acafca"><polygon points="65.0,185.0 65.85,185.0 66.69999999999999,185.0 67.55000000000001,185.0 68.39999999999999,185.0 69.25,185.0 70.1,185.0 70.95,185.0 71.8,185.0 72.64999999999999,185.0 73.5,185.0 74.35,185.0 75.19999999999999,185.0 76.05000000000001,185.0 76.9,185.0 77.75,185.0 78.60000000000001,185.0 79.45,185.0 80.3,185.0 81.15,185.0 82.0,185.0 82.85000000000001,185.0 83.7,185.0 84.55,185.0 85.4,185.0 86.25,185.0 87.1,185.0 87.95,185.0 88.80000000000001,185.0 89.64999999999999,185.0 90.5,185.0 91.35,185.0 92.2,185.0 93.05,185.0 93.9,185.0 94.75,185.0 95.6,185.0 96.44999999999999,185.0 97.30000000000001,185.0 98.15,185.0 99.0,185.0 99.85,185.0 100.7,185.0 101.55,185.0 102.4,185.0 103.25,185.0 104.10000000000001,185.0 104.94999999999999,185.0 105.8,185.0 106.65,185.0 107.5,185.0 108.35,185.0 109.2,185.0 110.05000000000001,185.0 110.9,185.0 111.75,185.0 112.60000000000001,185.0 113.45,185.0 114.29999999999998,185.0 115.15,185.0 116.0,185.0 116.85,185.0 117.69999999999999,185.0 118.55000000000001,185.0 119.4,185.0 120.25,185.0 121.1,185.0 121.95000000000002,185.0 122.8,185.0 123.64999999999999,185.0 124.5,185.0 125.35,185.0 126.19999999999999,185.0 127.04999999999998,185.0 127.9,185.0 128.75,185.0 129.6,185.0 130.45000000000002,185.0 131.3,185.0 132.15,185.0 133.0,185.0 133.85000000000002,185.0 134.7,185.0 135.54999999999998,185.0 136.4,185.0 137.25,185.0 138.1,185.0 138.95,185.0 139.8,185.0 140.65,185.0 141.5,185.0 142.35,185.0 143.20000000000002,185.0 144.05,185.0 144.89999999999998,185.0 145.75,185.0 146.6,185.0 147.45,185.0 148.29999999999998,185.0 149.15,185.0 150.0,185.0 150.85,185.0 151.70000000000002,185.0 152.55,185.0 153.4,185.0 154.25,185.0 155.10000000000002,185.0 155.95000000000002,185.0 156.8,185.0 157.65,185.0 158.5,185.0 159.35000000000002,185.0 160.20000000000002,185.0 161.04999999999998,185.0 161.89999999999998,185.0 162.75,185.0 163.6,185.0 164.45,185.0 165.3,185.0 166.14999999999998,185.0 167.0,185.0 167.85,185.0 168.7,185.0 169.55,185.0 170.39999999999998,185.0 171.25,185.0 172.10000000000002,185.0 172.95,185.0 173.8,185.0 174.65,185.0 175.5,185.0 176.35000000000002,185.0 177.2,185.0 178.05,185.0 178.9,185.0 179.75,185.0 180.60000000000002,185.0 181.45000000000002,185.0 182.29999999999998,185.0 183.14999999999998,185.0 184.0,185.0 184.85,185.0 185.7,185.0 186.55,185.0 187.39999999999998,185.0 188.25,185.0 189.1,185.0 189.95,185.0 190.8,185.0 191.64999999999998,185.0 192.5,185.0 193.35000000000002,185.0 194.2,185.0 195.05,185.0 195.9,185.0 196.75,185.0 197.60000000000002,185.0 198.45,185.0 199.3,185.0 200.15,185.0 201.0,185.0 201.85000000000002,185.0 202.70000000000002,185.0 203.54999999999998,185.0 204.39999999999998,185.0 205.25,185.0 206.1,185.0 206.95,185.0 207.8,185.0 208.64999999999998,185.0 209.5,185.0 210.35,185.0 211.2,185.0 212.05,185.0 212.89999999999998,185.0 213.75,185.0 214.60000000000002,185.0 215.45,185.0 216.3,185.0 217.15,185.0 218.0,185.0 218.85000000000002,185.0 219.7,185.0 220.55,185.0 221.4,185.0 222.25,185.0 223.10000000000002,185.0 223.95000000000002,185.0 224.79999999999998,185.0 225.65,185.0 226.5,185.0 227.35,185.0 228.2,185.0 229.05,185.0 229.89999999999998,185.0 230.75,185.0 231.6,185.0 232.45,185.0 233.3,185.0 234.14999999999998,185.0 234.14999999999998,182.95417284223205 233.3,181.01298090345063 232.45,179.17107254433924 231.6,177.4233698388075 230.75,175.76505457474283 229.89999999999998,174.1915549707623 229.05,172.69853307234573 228.2,171.2818727926023 227.35,169.93766856469955 226.5,168.6622145746726 225.65,167.4519945449277 224.79999999999998,166.3036720402759 223.95000000000002,165.21408126977144 223.10000000000002,164.18021835899577 222.25,163.19923306872695 221.4,162.2684209371632 220.55,161.38521582403774 219.7,160.54718283607014 218.85000000000002,159.75201161424974 218.0,158.99750996444624 217.15,158.28159781378645 216.3,157.60230147613655 215.45,156.95774821088006 214.60000000000002,156.34616105999083 213.75,155.76585394916737 212.89999999999998,155.2152270395231 212.05,154.69276231701755 211.2,154.19701940746896 210.35,153.49456618597173 209.5,152.51450744308403 208.64999999999998,151.56815741270105 207.8,150.65435669768777 206.95,149.77198577789088 206.1,148.91996363858684 205.25,148.0972464461035 204.39999999999998,147.30282626899336 203.54999999999998,146.53572984319152 202.70000000000002,145.79501737964546 201.85000000000002,145.0797814129559 201.0,144.3891456896182 200.15,143.72226409450238 199.3,143.0783196142561 198.45,142.45652333636107 197.60000000000002,141.85611348261685 196.75,141.27635447586704 195.9,140.71653603882527 195.05,140.17597232389693 194.2,139.6540010729298 193.35000000000002,139.14998280586522 192.5,138.6633000372949 191.64999999999998,138.19335651996414 190.8,137.73957651429444 189.95,137.3014040830304 189.1,136.8783024101471 188.25,136.46975314318337 187.39999999999998,136.0752557581951 186.55,135.69432694655097 185.7,135.3265000228189 184.85,134.9713243530178 184.0,134.62836480253495 183.14999999999998,134.29720120303145 182.29999999999998,133.97742783768356 181.45000000000002,133.6686529441287 180.60000000000002,133.37049823450775 179.75,133.0825984320151 178.9,132.80460082338868 178.05,132.53616482679237 177.2,132.2769615745605 176.35000000000002,132.02667351029382 175.5,131.78499399981325 174.65,131.55162695549475 173.8,131.32628647352482 172.95,131.10869648363254 172.10000000000002,130.89859041086913 171.25,130.69571084902017 170.39999999999998,130.49980924525087 169.55,130.31064559559766 168.7,130.1279881509335 167.85,129.95161313304604 167.0,129.78130446048132 166.14999999999998,129.61685348381724 165.3,129.45805873004156 164.45,129.30472565572245 163.6,129.15666640866849 162.75,129.01369959778617 161.89999999999998,129.15408139342165 161.04999999999998,129.96453165904956 160.20000000000002,130.7335308955915 159.35000000000002,131.46319914407292 158.5,132.1555480145817 157.65,132.8124862320421 156.8,133.43582489834608 155.95000000000002,134.02728248534976 155.10000000000002,134.58848957249944 154.25,135.12099334214858 153.4,135.62626184495863 152.55,136.1056880471434 151.70000000000002,136.5605936707137 150.85,136.99223283731104 150.0,137.40179552567383 149.15,137.7904108522701 148.29999999999998,138.15915018413946 147.45,138.50903009252696 146.6,138.84101515545103 145.75,139.1560206169325 144.89999999999998,139.4549149102154 144.05,139.73852205193577 143.20000000000002,140.00762391383944 142.35,140.26296237831093 141.5,140.5052413836564 140.65,140.7351288647796 139.8,140.95325859459996 138.95,141.16023193129075 138.1,141.35661947615313 137.25,141.54296264669733 136.4,141.71977516926748 135.54999999999998,141.8875444953249 134.7,142.0467331452951 133.85000000000002,142.1977799836824 133.0,142.341101428968 132.15,142.47709260162716 131.3,142.60612841343033 130.45000000000002,142.72856460103066 129.6,142.84473870668882 128.75,142.95497100883736 127.9,143.05956540505093 127.04999999999998,143.1588102498564 126.19999999999999,143.25297914969264 125.35,143.34233171721127 124.5,143.42711428699877 123.64999999999999,143.50756059469182 122.8,143.5838924213594 121.95000000000002,143.656320204927 121.1,143.72504362032961 120.25,143.79025212999207 119.4,143.85212550615495 118.55000000000001,143.91083432648537 117.69999999999999,143.96654044434 116.85,144.01939743497562 116.0,144.0695510189382 115.15,144.1171394637975 114.29999999999998,144.16229396533464 113.45,144.10339895459816 112.60000000000001,143.4463454994891 111.75,142.81189112446506 110.9,142.19925854357356 110.05000000000001,141.60769720528884 109.2,141.03648237299257 108.35,140.4849142370806 107.5,139.95231705760895 106.65,139.43803833642758 105.8,138.94144801778884 104.94999999999999,138.46193771645022 104.10000000000001,137.99891997232638 103.25,137.551827530777 102.4,137.1201126476491 101.55,136.7032464182218 100.7,136.30071812923194 99.85,135.91203463318647 99.0,135.53671974419498 98.15,135.1743136545827 97.30000000000001,134.8243723715684 96.44999999999999,134.48646717331764 95.6,134.1601840837051 94.75,133.845123365142 93.9,133.54089902884746 93.05,133.2471383619641 92.2,132.9634814709381 91.35,132.6895808406046 90.5,132.4251009084382 89.64999999999999,132.1697176534469 88.80000000000001,131.92311819920582 87.95,131.68500043054448 87.1,131.4550726234179 86.25,131.23305308750827 85.4,131.01866982111892 84.55,130.8116601779384 83.7,130.61177054526576 82.85000000000001,130.41875603330328 82.0,130.23238017513603 81.15,130.05241463703004 80.3,129.87863893869522 79.45,129.71084018316918 78.60000000000001,129.54881279599192 77.75,129.39235827335153 76.9,129.24128493889197 76.05000000000001,129.09540770888572 75.19999999999999,128.95454786548308 74.35,128.81853283776022 73.5,128.68719599029865 72.64999999999999,128.56037641903555 71.8,128.43791875413643 70.95,128.31967296964763 70.1,128.20549419969558 69.25,128.09524256100826 68.39999999999999,127.98878298154052 67.55000000000001,127.88598503499398 66.69999999999999,127.78672278102846 65.85,127.69087461096944 65.0,127.59832309882205" style="fill:rgb(40%,76.1%,64.7%);fill-opacity:1.0;opacity:0.33;stroke:none" /></g><g class="toyplot-mark-Plot" style="fill:none;stroke:rgb(0%,0%,0%);stroke-dasharray:4,2;stroke-opacity:1.0;stroke-width:2" id="tb2d0d8db9de043148d9a2855890bd0b9"><g class="toyplot-Series"><path d="M 65.0 185.0 L 65.0 127.59832309882205" style="stroke:rgb(0%,0%,0%);stroke-dasharray:4,2;stroke-opacity:1.0;stroke-width:2" /></g></g><g class="toyplot-mark-Plot" style="fill:none;stroke:rgb(0%,0%,0%);stroke-dasharray:4,2;stroke-opacity:1.0;stroke-width:2" id="te9498476cf6942b9b7c38da515914270"><g class="toyplot-Series"><path d="M 113.5714280857143 185.0 L 113.5714280857143 144.19915475636046" style="stroke:rgb(0%,0%,0%);stroke-dasharray:4,2;stroke-opacity:1.0;stroke-width:2" /></g></g><g class="toyplot-mark-Plot" style="fill:none;stroke:rgb(0%,0%,0%);stroke-dasharray:4,2;stroke-opacity:1.0;stroke-width:2" id="t365bff2063e34aeba831ab2dd760bb4a"><g class="toyplot-Series"><path d="M 162.14285665714286 185.0 L 162.14285665714286 128.91460148418693" style="stroke:rgb(0%,0%,0%);stroke-dasharray:4,2;stroke-opacity:1.0;stroke-width:2" /></g></g><g class="toyplot-mark-Plot" style="fill:none;stroke:rgb(0%,0%,0%);stroke-dasharray:4,2;stroke-opacity:1.0;stroke-width:2" id="t3aa34d47972f48f3bb40963d7e933b7f"><g class="toyplot-Series"><path d="M 210.71428522857144 185.0 L 210.71428522857144 153.9252058274331" style="stroke:rgb(0%,0%,0%);stroke-dasharray:4,2;stroke-opacity:1.0;stroke-width:2" /></g></g><g class="toyplot-mark-Plot" style="fill:none;stroke:rgb(0%,0%,0%);stroke-dasharray:4,2;stroke-opacity:1.0;stroke-width:2" id="t74867386f5e94ff4b7a527be7b36ce28"><g class="toyplot-Series"><path d="M 234.99999951428572 185.0 L 234.99999951428572 184.99999880000007" style="stroke:rgb(0%,0%,0%);stroke-dasharray:4,2;stroke-opacity:1.0;stroke-width:2" /></g></g></g><g class="toyplot-coordinates-Axis" id="t9bc9a9bee0634ce2a90cee46f100fa47" transform="translate(65.0,185.0)translate(0,10.0)"><line x1="0" y1="0" x2="169.99999951428572" y2="0" style="stroke-width:1.5" /><g><line x1="0.0" y1="7.5" x2="0.0" y2="0" style="stroke-width:1.5" /><line x1="48.57142857142857" y1="7.5" x2="48.57142857142857" y2="0" style="stroke-width:1.5" /><line x1="97.14285714285714" y1="7.5" x2="97.14285714285714" y2="0" style="stroke-width:1.5" /><line x1="145.7142857142857" y1="7.5" x2="145.7142857142857" y2="0" style="stroke-width:1.5" /><line x1="170.0" y1="7.5" x2="170.0" y2="0" style="stroke-width:1.5" /></g><g><g transform="translate(0.0,15.0)"><text x="-16.68" y="8.555" style="fill:rgb(16.1%,15.3%,14.1%);fill-opacity:1.0;font-family:helvetica;font-size:10.0px;font-weight:normal;stroke:none;vertical-align:baseline;white-space:pre">100000</text></g><g transform="translate(48.57142857142857,15.0)"><text x="-16.68" y="8.555" style="fill:rgb(16.1%,15.3%,14.1%);fill-opacity:1.0;font-family:helvetica;font-size:10.0px;font-weight:normal;stroke:none;vertical-align:baseline;white-space:pre">200000</text></g><g transform="translate(97.14285714285714,15.0)"><text x="-16.68" y="8.555" style="fill:rgb(16.1%,15.3%,14.1%);fill-opacity:1.0;font-family:helvetica;font-size:10.0px;font-weight:normal;stroke:none;vertical-align:baseline;white-space:pre">300000</text></g><g transform="translate(145.7142857142857,15.0)"><text x="-16.68" y="8.555" style="fill:rgb(16.1%,15.3%,14.1%);fill-opacity:1.0;font-family:helvetica;font-size:10.0px;font-weight:normal;stroke:none;vertical-align:baseline;white-space:pre">400000</text></g><g transform="translate(170.0,15.0)"><text x="-16.68" y="8.555" style="fill:rgb(16.1%,15.3%,14.1%);fill-opacity:1.0;font-family:helvetica;font-size:10.0px;font-weight:normal;stroke:none;vertical-align:baseline;white-space:pre">450000</text></g></g><g transform="translate(85.0,35.0)"><text x="-100.02000000000002" y="10.265999999999998" style="fill:rgb(16.1%,15.3%,14.1%);fill-opacity:1.0;font-family:helvetica;font-size:12.0px;font-weight:bold;stroke:none;vertical-align:baseline;white-space:pre">Time of recombination on branch 7</text></g><g class="toyplot-coordinates-Axis-coordinates" style="visibility:hidden" transform=""><line x1="0" x2="0" y1="-7.5" y2="11.25" style="stroke:rgb(43.9%,50.2%,56.5%);stroke-opacity:1.0;stroke-width:1.0" /><text x="0" y="-15.0" style="alignment-baseline:alphabetic;fill:rgb(43.9%,50.2%,56.5%);fill-opacity:1.0;font-size:10px;font-weight:normal;stroke:none;text-anchor:middle" /></g></g><g class="toyplot-coordinates-Axis" id="t79bb5a2779404112b3c3afe091771d2f" transform="translate(65.0,185.0)rotate(-90.0)translate(0,-10.0)"><line x1="0" y1="0" x2="120.0" y2="0" style="stroke-width:1.5" /><g><line x1="0.0" y1="-7.5" x2="0.0" y2="0" style="stroke-width:1.5" /><line x1="60.0" y1="-7.5" x2="60.0" y2="0" style="stroke-width:1.5" /><line x1="120.0" y1="-7.5" x2="120.0" y2="0" style="stroke-width:1.5" /></g><g><g transform="translate(0.0,-15.0)"><text x="-6.95" y="-4.440892098500626e-16" style="fill:rgb(16.1%,15.3%,14.1%);fill-opacity:1.0;font-family:helvetica;font-size:10.0px;font-weight:normal;stroke:none;vertical-align:baseline;white-space:pre">0.0</text></g><g transform="translate(60.0,-15.0)"><text x="-6.95" y="-4.440892098500626e-16" style="fill:rgb(16.1%,15.3%,14.1%);fill-opacity:1.0;font-family:helvetica;font-size:10.0px;font-weight:normal;stroke:none;vertical-align:baseline;white-space:pre">0.5</text></g><g transform="translate(120.0,-15.0)"><text x="-6.95" y="-4.440892098500626e-16" style="fill:rgb(16.1%,15.3%,14.1%);fill-opacity:1.0;font-family:helvetica;font-size:10.0px;font-weight:normal;stroke:none;vertical-align:baseline;white-space:pre">1.0</text></g></g><g transform="translate(60.0,-35.0)"><text x="-31.008" y="0.0" style="fill:rgb(16.1%,15.3%,14.1%);fill-opacity:1.0;font-family:helvetica;font-size:12.0px;font-weight:bold;stroke:none;vertical-align:baseline;white-space:pre">Probability</text></g><g class="toyplot-coordinates-Axis-coordinates" style="visibility:hidden" transform=""><line x1="0" x2="0" y1="7.5" y2="-11.25" style="stroke:rgb(43.9%,50.2%,56.5%);stroke-opacity:1.0;stroke-width:1.0" /><text x="0" y="15.0" style="alignment-baseline:hanging;fill:rgb(43.9%,50.2%,56.5%);fill-opacity:1.0;font-size:10px;font-weight:normal;stroke:none;text-anchor:middle" /></g></g><g transform="translate(150.0,45.0)"><text x="-56.0" y="-4.823" style="fill:rgb(16.1%,15.3%,14.1%);fill-opacity:1.0;font-family:helvetica;font-size:14.0px;font-weight:bold;stroke:none;vertical-align:baseline;white-space:pre">Prob(no-change)</text></g></g><g class="toyplot-coordinates-Cartesian" id="t7fd440cf37f14fd786351ebf7b138ef2"><clipPath id="t2230a3634ff246e187c8c749616e05a6"><rect x="55.0" y="305.0" width="190.0" height="140.0" /></clipPath><g clip-path="url(#t2230a3634ff246e187c8c749616e05a6)"><g class="toyplot-mark-Plot" style="fill:none" id="t7ac0e41aad924293860cd8e8ebc2e798"><g class="toyplot-Series"><path d="M 65.0 372.40167690117795 L 65.85 372.30912538903056 L 66.69999999999999 372.21327721897154 L 67.55000000000001 372.11401496500605 L 68.39999999999999 372.01121701845943 L 69.25 371.90475743899174 L 70.1 371.7945058003044 L 70.95 371.6803270303524 L 71.8 371.5620812458635 L 72.64999999999999 371.4396235809644 L 73.5 371.3128040097014 L 74.35 371.18146716223976 L 75.19999999999999 371.04545213451695 L 76.05000000000001 370.9045922911142 L 76.9 370.75871506110803 L 77.75 370.60764172664847 L 78.60000000000001 370.4511872040081 L 79.45 370.2891598168309 L 80.3 370.1213610613048 L 81.15 369.9475853629699 L 82.0 369.767619824864 L 82.85000000000001 369.5812439666967 L 83.7 369.3882294547343 L 84.55 369.1883398220616 L 85.4 368.9813301788811 L 86.25 368.76694691249173 L 87.1 368.5449273765821 L 87.95 368.31499956945555 L 88.80000000000001 368.0768818007942 L 89.64999999999999 367.8302823465531 L 90.5 367.5748990915618 L 91.35 367.31041915939545 L 92.2 367.03651852906194 L 93.05 366.75286163803594 L 93.9 366.45910097115257 L 94.75 366.15487663485806 L 95.6 365.8398159162949 L 96.44999999999999 365.51353282668236 L 97.30000000000001 365.1756276284316 L 98.15 364.8256863454173 L 99.0 364.463280255805 L 99.85 364.08796536681353 L 100.7 363.699281870768 L 101.55 363.29675358177815 L 102.4 362.8798873523509 L 103.25 362.448172469223 L 104.10000000000001 362.00108002767365 L 104.94999999999999 361.5380622835498 L 105.8 361.05855198221116 L 106.65 360.56196166357245 L 107.5 360.047682942391 L 108.35 359.5150857629194 L 109.2 358.9635176270075 L 110.05000000000001 358.39230279471116 L 110.9 357.8007414564264 L 111.75 357.1881088755349 L 112.60000000000001 356.5536545005109 L 113.45 355.89660104540184 L 114.29999999999998 355.83770603466536 L 115.15 355.8828605362025 L 116.0 355.9304489810618 L 116.85 355.9806025650244 L 117.69999999999999 356.03345955566 L 118.55000000000001 356.08916567351463 L 119.4 356.14787449384505 L 120.25 356.20974787000796 L 121.1 356.27495637967036 L 121.95000000000002 356.343679795073 L 122.8 356.4161075786406 L 123.64999999999999 356.4924394053082 L 124.5 356.57288571300126 L 125.35 356.65766828278873 L 126.19999999999999 356.74702085030736 L 127.04999999999998 356.8411897501436 L 127.9 356.94043459494907 L 128.75 357.04502899116267 L 129.6 357.1552612933112 L 130.45000000000002 357.27143539896934 L 131.3 357.39387158656973 L 132.15 357.5229073983728 L 133.0 357.658898571032 L 133.85000000000002 357.8022200163176 L 134.7 357.9532668547049 L 135.54999999999998 358.1124555046751 L 136.4 358.28022483073255 L 137.25 358.45703735330267 L 138.1 358.6433805238469 L 138.95 358.83976806870925 L 139.8 359.04674140540004 L 140.65 359.2648711352204 L 141.5 359.4947586163436 L 142.35 359.73703762168907 L 143.20000000000002 359.99237608616056 L 144.05 360.2614779480642 L 144.89999999999998 360.5450850897846 L 145.75 360.84397938306745 L 146.6 361.15898484454897 L 147.45 361.4909699074731 L 148.29999999999998 361.84084981586057 L 149.15 362.2095891477299 L 150.0 362.59820447432617 L 150.85 363.007767162689 L 151.70000000000002 363.43940632928627 L 152.55 363.89431195285664 L 153.4 364.37373815504134 L 154.25 364.87900665785145 L 155.10000000000002 365.41151042750056 L 155.95000000000002 365.97271751465024 L 156.8 366.5641751016539 L 157.65 367.1875137679579 L 158.5 367.8444519854183 L 159.35000000000002 368.5368008559271 L 160.20000000000002 369.2664691044085 L 161.04999999999998 370.03546834095044 L 161.89999999999998 370.8459186065784 L 162.75 370.9863004022138 L 163.6 370.84333359133154 L 164.45 370.69527434427755 L 165.3 370.54194126995844 L 166.14999999999998 370.3831465161827 L 167.0 370.21869553951865 L 167.85 370.048386866954 L 168.7 369.8720118490665 L 169.55 369.68935440440237 L 170.39999999999998 369.50019075474916 L 171.25 369.3042891509798 L 172.10000000000002 369.10140958913087 L 172.95 368.89130351636743 L 173.8 368.6737135264752 L 174.65 368.4483730445053 L 175.5 368.21500600018675 L 176.35000000000002 367.9733264897062 L 177.2 367.72303842543954 L 178.05 367.4638351732076 L 178.9 367.1953991766113 L 179.75 366.91740156798494 L 180.60000000000002 366.62950176549225 L 181.45000000000002 366.33134705587133 L 182.29999999999998 366.02257216231646 L 183.14999999999998 365.7027987969685 L 184.0 365.371635197465 L 184.85 365.0286756469822 L 185.7 364.6734999771811 L 186.55 364.305673053449 L 187.39999999999998 363.9247442418049 L 188.25 363.5302468568167 L 189.1 363.1216975898529 L 189.95 362.69859591696957 L 190.8 362.2604234857056 L 191.64999999999998 361.80664348003586 L 192.5 361.3366999627051 L 193.35000000000002 360.8500171941348 L 194.2 360.3459989270702 L 195.05 359.8240276761031 L 195.9 359.2834639611747 L 196.75 358.72364552413296 L 197.60000000000002 358.1438865173832 L 198.45 357.54347666363896 L 199.3 356.9216803857439 L 200.15 356.2777359054976 L 201.0 355.6108543103818 L 201.85000000000002 354.92021858704413 L 202.70000000000002 354.20498262035454 L 203.54999999999998 353.4642701568085 L 204.39999999999998 352.6971737310066 L 205.25 351.9027535538965 L 206.1 351.08003636141314 L 206.95 350.2280142221091 L 207.8 349.3456433023122 L 208.64999999999998 348.43184258729895 L 209.5 347.485492556916 L 210.35 346.50543381402827 L 211.2 345.802980592531 L 212.05 345.3072376829824 L 212.89999999999998 344.78477296047686 L 213.75 344.23414605083263 L 214.60000000000002 343.65383894000917 L 215.45 343.04225178912 L 216.3 342.3976985238635 L 217.15 341.71840218621355 L 218.0 341.00249003555376 L 218.85000000000002 340.2479883857503 L 219.7 339.4528171639299 L 220.55 338.61478417596226 L 221.4 337.73157906283683 L 222.25 336.8007669312731 L 223.10000000000002 335.8197816410042 L 223.95000000000002 334.78591873022856 L 224.79999999999998 333.6963279597241 L 225.65 332.5480054550723 L 226.5 331.3377854253274 L 227.35 330.0623314353004 L 228.2 328.71812720739774 L 229.05 327.30146692765425 L 229.89999999999998 325.8084450292377 L 230.75 324.23494542525714 L 231.6 322.5766301611925 L 232.45 320.8289274556608 L 233.3 318.9870190965494 L 234.14999999999998 317.045827157768" style="stroke:rgb(40%,76.1%,64.7%);stroke-opacity:1.0;stroke-width:5.0" /></g></g><g class="toyplot-mark-FillBoundaries" style="stroke:none" id="te0f86c26936c4b28b0f55a2cd4ed6390"><polygon points="65.0,435.0 65.85,435.0 66.69999999999999,435.0 67.55000000000001,435.0 68.39999999999999,435.0 69.25,435.0 70.1,435.0 70.95,435.0 71.8,435.0 72.64999999999999,435.0 73.5,435.0 74.35,435.0 75.19999999999999,435.0 76.05000000000001,435.0 76.9,435.0 77.75,435.0 78.60000000000001,435.0 79.45,435.0 80.3,435.0 81.15,435.0 82.0,435.0 82.85000000000001,435.0 83.7,435.0 84.55,435.0 85.4,435.0 86.25,435.0 87.1,435.0 87.95,435.0 88.80000000000001,435.0 89.64999999999999,435.0 90.5,435.0 91.35,435.0 92.2,435.0 93.05,435.0 93.9,435.0 94.75,435.0 95.6,435.0 96.44999999999999,435.0 97.30000000000001,435.0 98.15,435.0 99.0,435.0 99.85,435.0 100.7,435.0 101.55,435.0 102.4,435.0 103.25,435.0 104.10000000000001,435.0 104.94999999999999,435.0 105.8,435.0 106.65,435.0 107.5,435.0 108.35,435.0 109.2,435.0 110.05000000000001,435.0 110.9,435.0 111.75,435.0 112.60000000000001,435.0 113.45,435.0 114.29999999999998,435.0 115.15,435.0 116.0,435.0 116.85,435.0 117.69999999999999,435.0 118.55000000000001,435.0 119.4,435.0 120.25,435.0 121.1,435.0 121.95000000000002,435.0 122.8,435.0 123.64999999999999,435.0 124.5,435.0 125.35,435.0 126.19999999999999,435.0 127.04999999999998,435.0 127.9,435.0 128.75,435.0 129.6,435.0 130.45000000000002,435.0 131.3,435.0 132.15,435.0 133.0,435.0 133.85000000000002,435.0 134.7,435.0 135.54999999999998,435.0 136.4,435.0 137.25,435.0 138.1,435.0 138.95,435.0 139.8,435.0 140.65,435.0 141.5,435.0 142.35,435.0 143.20000000000002,435.0 144.05,435.0 144.89999999999998,435.0 145.75,435.0 146.6,435.0 147.45,435.0 148.29999999999998,435.0 149.15,435.0 150.0,435.0 150.85,435.0 151.70000000000002,435.0 152.55,435.0 153.4,435.0 154.25,435.0 155.10000000000002,435.0 155.95000000000002,435.0 156.8,435.0 157.65,435.0 158.5,435.0 159.35000000000002,435.0 160.20000000000002,435.0 161.04999999999998,435.0 161.89999999999998,435.0 162.75,435.0 163.6,435.0 164.45,435.0 165.3,435.0 166.14999999999998,435.0 167.0,435.0 167.85,435.0 168.7,435.0 169.55,435.0 170.39999999999998,435.0 171.25,435.0 172.10000000000002,435.0 172.95,435.0 173.8,435.0 174.65,435.0 175.5,435.0 176.35000000000002,435.0 177.2,435.0 178.05,435.0 178.9,435.0 179.75,435.0 180.60000000000002,435.0 181.45000000000002,435.0 182.29999999999998,435.0 183.14999999999998,435.0 184.0,435.0 184.85,435.0 185.7,435.0 186.55,435.0 187.39999999999998,435.0 188.25,435.0 189.1,435.0 189.95,435.0 190.8,435.0 191.64999999999998,435.0 192.5,435.0 193.35000000000002,435.0 194.2,435.0 195.05,435.0 195.9,435.0 196.75,435.0 197.60000000000002,435.0 198.45,435.0 199.3,435.0 200.15,435.0 201.0,435.0 201.85000000000002,435.0 202.70000000000002,435.0 203.54999999999998,435.0 204.39999999999998,435.0 205.25,435.0 206.1,435.0 206.95,435.0 207.8,435.0 208.64999999999998,435.0 209.5,435.0 210.35,435.0 211.2,435.0 212.05,435.0 212.89999999999998,435.0 213.75,435.0 214.60000000000002,435.0 215.45,435.0 216.3,435.0 217.15,435.0 218.0,435.0 218.85000000000002,435.0 219.7,435.0 220.55,435.0 221.4,435.0 222.25,435.0 223.10000000000002,435.0 223.95000000000002,435.0 224.79999999999998,435.0 225.65,435.0 226.5,435.0 227.35,435.0 228.2,435.0 229.05,435.0 229.89999999999998,435.0 230.75,435.0 231.6,435.0 232.45,435.0 233.3,435.0 234.14999999999998,435.0 234.14999999999998,317.045827157768 233.3,318.9870190965494 232.45,320.8289274556608 231.6,322.5766301611925 230.75,324.23494542525714 229.89999999999998,325.8084450292377 229.05,327.30146692765425 228.2,328.71812720739774 227.35,330.0623314353004 226.5,331.3377854253274 225.65,332.5480054550723 224.79999999999998,333.6963279597241 223.95000000000002,334.78591873022856 223.10000000000002,335.8197816410042 222.25,336.8007669312731 221.4,337.73157906283683 220.55,338.61478417596226 219.7,339.4528171639299 218.85000000000002,340.2479883857503 218.0,341.00249003555376 217.15,341.71840218621355 216.3,342.3976985238635 215.45,343.04225178912 214.60000000000002,343.65383894000917 213.75,344.23414605083263 212.89999999999998,344.78477296047686 212.05,345.3072376829824 211.2,345.802980592531 210.35,346.50543381402827 209.5,347.485492556916 208.64999999999998,348.43184258729895 207.8,349.3456433023122 206.95,350.2280142221091 206.1,351.08003636141314 205.25,351.9027535538965 204.39999999999998,352.6971737310066 203.54999999999998,353.4642701568085 202.70000000000002,354.20498262035454 201.85000000000002,354.92021858704413 201.0,355.6108543103818 200.15,356.2777359054976 199.3,356.9216803857439 198.45,357.54347666363896 197.60000000000002,358.1438865173832 196.75,358.72364552413296 195.9,359.2834639611747 195.05,359.8240276761031 194.2,360.3459989270702 193.35000000000002,360.8500171941348 192.5,361.3366999627051 191.64999999999998,361.80664348003586 190.8,362.2604234857056 189.95,362.69859591696957 189.1,363.1216975898529 188.25,363.5302468568167 187.39999999999998,363.9247442418049 186.55,364.305673053449 185.7,364.6734999771811 184.85,365.0286756469822 184.0,365.371635197465 183.14999999999998,365.7027987969685 182.29999999999998,366.02257216231646 181.45000000000002,366.33134705587133 180.60000000000002,366.62950176549225 179.75,366.91740156798494 178.9,367.1953991766113 178.05,367.4638351732076 177.2,367.72303842543954 176.35000000000002,367.9733264897062 175.5,368.21500600018675 174.65,368.4483730445053 173.8,368.6737135264752 172.95,368.89130351636743 172.10000000000002,369.10140958913087 171.25,369.3042891509798 170.39999999999998,369.50019075474916 169.55,369.68935440440237 168.7,369.8720118490665 167.85,370.048386866954 167.0,370.21869553951865 166.14999999999998,370.3831465161827 165.3,370.54194126995844 164.45,370.69527434427755 163.6,370.84333359133154 162.75,370.9863004022138 161.89999999999998,370.8459186065784 161.04999999999998,370.03546834095044 160.20000000000002,369.2664691044085 159.35000000000002,368.5368008559271 158.5,367.8444519854183 157.65,367.1875137679579 156.8,366.5641751016539 155.95000000000002,365.97271751465024 155.10000000000002,365.41151042750056 154.25,364.87900665785145 153.4,364.37373815504134 152.55,363.89431195285664 151.70000000000002,363.43940632928627 150.85,363.007767162689 150.0,362.59820447432617 149.15,362.2095891477299 148.29999999999998,361.84084981586057 147.45,361.4909699074731 146.6,361.15898484454897 145.75,360.84397938306745 144.89999999999998,360.5450850897846 144.05,360.2614779480642 143.20000000000002,359.99237608616056 142.35,359.73703762168907 141.5,359.4947586163436 140.65,359.2648711352204 139.8,359.04674140540004 138.95,358.83976806870925 138.1,358.6433805238469 137.25,358.45703735330267 136.4,358.28022483073255 135.54999999999998,358.1124555046751 134.7,357.9532668547049 133.85000000000002,357.8022200163176 133.0,357.658898571032 132.15,357.5229073983728 131.3,357.39387158656973 130.45000000000002,357.27143539896934 129.6,357.1552612933112 128.75,357.04502899116267 127.9,356.94043459494907 127.04999999999998,356.8411897501436 126.19999999999999,356.74702085030736 125.35,356.65766828278873 124.5,356.57288571300126 123.64999999999999,356.4924394053082 122.8,356.4161075786406 121.95000000000002,356.343679795073 121.1,356.27495637967036 120.25,356.20974787000796 119.4,356.14787449384505 118.55000000000001,356.08916567351463 117.69999999999999,356.03345955566 116.85,355.9806025650244 116.0,355.9304489810618 115.15,355.8828605362025 114.29999999999998,355.83770603466536 113.45,355.89660104540184 112.60000000000001,356.5536545005109 111.75,357.1881088755349 110.9,357.8007414564264 110.05000000000001,358.39230279471116 109.2,358.9635176270075 108.35,359.5150857629194 107.5,360.047682942391 106.65,360.56196166357245 105.8,361.05855198221116 104.94999999999999,361.5380622835498 104.10000000000001,362.00108002767365 103.25,362.448172469223 102.4,362.8798873523509 101.55,363.29675358177815 100.7,363.699281870768 99.85,364.08796536681353 99.0,364.463280255805 98.15,364.8256863454173 97.30000000000001,365.1756276284316 96.44999999999999,365.51353282668236 95.6,365.8398159162949 94.75,366.15487663485806 93.9,366.45910097115257 93.05,366.75286163803594 92.2,367.03651852906194 91.35,367.31041915939545 90.5,367.5748990915618 89.64999999999999,367.8302823465531 88.80000000000001,368.0768818007942 87.95,368.31499956945555 87.1,368.5449273765821 86.25,368.76694691249173 85.4,368.9813301788811 84.55,369.1883398220616 83.7,369.3882294547343 82.85000000000001,369.5812439666967 82.0,369.767619824864 81.15,369.9475853629699 80.3,370.1213610613048 79.45,370.2891598168309 78.60000000000001,370.4511872040081 77.75,370.60764172664847 76.9,370.75871506110803 76.05000000000001,370.9045922911142 75.19999999999999,371.04545213451695 74.35,371.18146716223976 73.5,371.3128040097014 72.64999999999999,371.4396235809644 71.8,371.5620812458635 70.95,371.6803270303524 70.1,371.7945058003044 69.25,371.90475743899174 68.39999999999999,372.01121701845943 67.55000000000001,372.11401496500605 66.69999999999999,372.21327721897154 65.85,372.30912538903056 65.0,372.40167690117795" style="fill:rgb(40%,76.1%,64.7%);fill-opacity:1.0;opacity:0.33;stroke:none" /></g><g class="toyplot-mark-Plot" style="fill:none;stroke:rgb(0%,0%,0%);stroke-dasharray:4,2;stroke-opacity:1.0;stroke-width:2" id="ta36180e6e65a4005a7b63cdaa84791a5"><g class="toyplot-Series"><path d="M 65.0 435.0 L 65.0 372.40167690117795" style="stroke:rgb(0%,0%,0%);stroke-dasharray:4,2;stroke-opacity:1.0;stroke-width:2" /></g></g><g class="toyplot-mark-Plot" style="fill:none;stroke:rgb(0%,0%,0%);stroke-dasharray:4,2;stroke-opacity:1.0;stroke-width:2" id="te815775ec90946bea8454150c79632c1"><g class="toyplot-Series"><path d="M 113.5714280857143 435.0 L 113.5714280857143 355.8008452436395" style="stroke:rgb(0%,0%,0%);stroke-dasharray:4,2;stroke-opacity:1.0;stroke-width:2" /></g></g><g class="toyplot-mark-Plot" style="fill:none;stroke:rgb(0%,0%,0%);stroke-dasharray:4,2;stroke-opacity:1.0;stroke-width:2" id="tfa79aea8639f440fb0ef2d09cc98b23a"><g class="toyplot-Series"><path d="M 162.14285665714286 435.0 L 162.14285665714286 371.08539851581304" style="stroke:rgb(0%,0%,0%);stroke-dasharray:4,2;stroke-opacity:1.0;stroke-width:2" /></g></g><g class="toyplot-mark-Plot" style="fill:none;stroke:rgb(0%,0%,0%);stroke-dasharray:4,2;stroke-opacity:1.0;stroke-width:2" id="t26971d856856475cac52b6591073e65c"><g class="toyplot-Series"><path d="M 210.71428522857144 435.0 L 210.71428522857144 346.0747941725669" style="stroke:rgb(0%,0%,0%);stroke-dasharray:4,2;stroke-opacity:1.0;stroke-width:2" /></g></g><g class="toyplot-mark-Plot" style="fill:none;stroke:rgb(0%,0%,0%);stroke-dasharray:4,2;stroke-opacity:1.0;stroke-width:2" id="t0441b907fded4bc48087215b6de2d022"><g class="toyplot-Series"><path d="M 234.99999951428572 435.0 L 234.99999951428572 315.00000119999993" style="stroke:rgb(0%,0%,0%);stroke-dasharray:4,2;stroke-opacity:1.0;stroke-width:2" /></g></g></g><g class="toyplot-coordinates-Axis" id="t831e88af77734136bf740bfde7921940" transform="translate(65.0,435.0)translate(0,10.0)"><line x1="0" y1="0" x2="169.99999951428572" y2="0" style="stroke-width:1.5" /><g><line x1="0.0" y1="7.5" x2="0.0" y2="0" style="stroke-width:1.5" /><line x1="48.57142857142857" y1="7.5" x2="48.57142857142857" y2="0" style="stroke-width:1.5" /><line x1="97.14285714285714" y1="7.5" x2="97.14285714285714" y2="0" style="stroke-width:1.5" /><line x1="145.7142857142857" y1="7.5" x2="145.7142857142857" y2="0" style="stroke-width:1.5" /><line x1="170.0" y1="7.5" x2="170.0" y2="0" style="stroke-width:1.5" /></g><g><g transform="translate(0.0,15.0)"><text x="-16.68" y="8.555" style="fill:rgb(16.1%,15.3%,14.1%);fill-opacity:1.0;font-family:helvetica;font-size:10.0px;font-weight:normal;stroke:none;vertical-align:baseline;white-space:pre">100000</text></g><g transform="translate(48.57142857142857,15.0)"><text x="-16.68" y="8.555" style="fill:rgb(16.1%,15.3%,14.1%);fill-opacity:1.0;font-family:helvetica;font-size:10.0px;font-weight:normal;stroke:none;vertical-align:baseline;white-space:pre">200000</text></g><g transform="translate(97.14285714285714,15.0)"><text x="-16.68" y="8.555" style="fill:rgb(16.1%,15.3%,14.1%);fill-opacity:1.0;font-family:helvetica;font-size:10.0px;font-weight:normal;stroke:none;vertical-align:baseline;white-space:pre">300000</text></g><g transform="translate(145.7142857142857,15.0)"><text x="-16.68" y="8.555" style="fill:rgb(16.1%,15.3%,14.1%);fill-opacity:1.0;font-family:helvetica;font-size:10.0px;font-weight:normal;stroke:none;vertical-align:baseline;white-space:pre">400000</text></g><g transform="translate(170.0,15.0)"><text x="-16.68" y="8.555" style="fill:rgb(16.1%,15.3%,14.1%);fill-opacity:1.0;font-family:helvetica;font-size:10.0px;font-weight:normal;stroke:none;vertical-align:baseline;white-space:pre">450000</text></g></g><g transform="translate(85.0,35.0)"><text x="-100.02000000000002" y="10.265999999999998" style="fill:rgb(16.1%,15.3%,14.1%);fill-opacity:1.0;font-family:helvetica;font-size:12.0px;font-weight:bold;stroke:none;vertical-align:baseline;white-space:pre">Time of recombination on branch 7</text></g><g class="toyplot-coordinates-Axis-coordinates" style="visibility:hidden" transform=""><line x1="0" x2="0" y1="-7.5" y2="11.25" style="stroke:rgb(43.9%,50.2%,56.5%);stroke-opacity:1.0;stroke-width:1.0" /><text x="0" y="-15.0" style="alignment-baseline:alphabetic;fill:rgb(43.9%,50.2%,56.5%);fill-opacity:1.0;font-size:10px;font-weight:normal;stroke:none;text-anchor:middle" /></g></g><g class="toyplot-coordinates-Axis" id="tc5da724bc35449f69e6a41fb14a46521" transform="translate(65.0,435.0)rotate(-90.0)translate(0,-10.0)"><line x1="0" y1="0" x2="120.0" y2="0" style="stroke-width:1.5" /><g><line x1="0.0" y1="-7.5" x2="0.0" y2="0" style="stroke-width:1.5" /><line x1="60.0" y1="-7.5" x2="60.0" y2="0" style="stroke-width:1.5" /><line x1="120.0" y1="-7.5" x2="120.0" y2="0" style="stroke-width:1.5" /></g><g><g transform="translate(0.0,-15.0)"><text x="-6.95" y="-4.440892098500626e-16" style="fill:rgb(16.1%,15.3%,14.1%);fill-opacity:1.0;font-family:helvetica;font-size:10.0px;font-weight:normal;stroke:none;vertical-align:baseline;white-space:pre">0.0</text></g><g transform="translate(60.0,-15.0)"><text x="-6.95" y="-4.440892098500626e-16" style="fill:rgb(16.1%,15.3%,14.1%);fill-opacity:1.0;font-family:helvetica;font-size:10.0px;font-weight:normal;stroke:none;vertical-align:baseline;white-space:pre">0.5</text></g><g transform="translate(120.0,-15.0)"><text x="-6.95" y="-4.440892098500626e-16" style="fill:rgb(16.1%,15.3%,14.1%);fill-opacity:1.0;font-family:helvetica;font-size:10.0px;font-weight:normal;stroke:none;vertical-align:baseline;white-space:pre">1.0</text></g></g><g transform="translate(60.0,-35.0)"><text x="-31.008" y="0.0" style="fill:rgb(16.1%,15.3%,14.1%);fill-opacity:1.0;font-family:helvetica;font-size:12.0px;font-weight:bold;stroke:none;vertical-align:baseline;white-space:pre">Probability</text></g><g class="toyplot-coordinates-Axis-coordinates" style="visibility:hidden" transform=""><line x1="0" x2="0" y1="7.5" y2="-11.25" style="stroke:rgb(43.9%,50.2%,56.5%);stroke-opacity:1.0;stroke-width:1.0" /><text x="0" y="15.0" style="alignment-baseline:hanging;fill:rgb(43.9%,50.2%,56.5%);fill-opacity:1.0;font-size:10px;font-weight:normal;stroke:none;text-anchor:middle" /></g></g><g transform="translate(150.0,295.0)"><text x="-60.284" y="-4.823" style="fill:rgb(16.1%,15.3%,14.1%);fill-opacity:1.0;font-family:helvetica;font-size:14.0px;font-weight:bold;stroke:none;vertical-align:baseline;white-space:pre">Prob(tree-change)</text></g></g><g class="toyplot-coordinates-Cartesian" id="tac42724a389945cdbff5d0d089ad05ec"><clipPath id="t1f2cbad3087548629e3256ed94bc4482"><rect x="55.0" y="555.0" width="190.0" height="140.0" /></clipPath><g clip-path="url(#t1f2cbad3087548629e3256ed94bc4482)"><g class="toyplot-mark-Plot" style="fill:none" id="t4a0ba81e61294193b6ad5f1d0a095746"><g class="toyplot-Series"><path d="M 65.0 622.7916213017979 L 65.85 622.7129594956486 L 66.69999999999999 622.6314957788707 L 67.55000000000001 622.5471303482234 L 68.39999999999999 622.4597598455036 L 69.25 622.3692772309194 L 70.1 622.2755716519522 L 70.95 622.1785283075493 L 71.8 622.0780283074778 L 72.64999999999999 621.9739485266695 L 73.5 621.8661614543768 L 74.35 621.7545350379567 L 75.19999999999999 621.6389325210893 L 76.05000000000001 621.5192122762346 L 76.9 621.3952276311206 L 77.75 621.2668266890523 L 78.60000000000001 621.1338521428179 L 79.45 620.9961410819687 L 80.3 620.8535247932336 L 81.15 620.7058285538237 L 82.0 620.5528714173754 L 82.85000000000001 620.3944659922678 L 83.7 620.2304182120456 L 84.55 620.0605270976627 L 85.4 619.8845845112578 L 86.25 619.7023749011597 L 87.1 619.5136750378094 L 87.95 619.3182537402761 L 88.80000000000001 619.1158715930314 L 89.64999999999999 618.9062806526356 L 90.5 618.6892241439758 L 91.35 618.4644361456845 L 92.2 618.2316412643524 L 93.05 617.9905542971374 L 93.9 617.7408798823546 L 94.75 617.4823121376226 L 95.6 617.2145342851182 L 96.44999999999999 616.9372182634847 L 97.30000000000001 616.6500243259152 L 98.15 616.3526006239202 L 99.0 616.0445827762703 L 99.85 615.7255934225818 L 100.7 615.3952417610049 L 101.55 615.0531230694412 L 102.4 614.698818209709 L 103.25 614.3318931140468 L 104.10000000000001 613.9518982533259 L 104.94999999999999 613.5583680863208 L 105.8 613.150820489363 L 106.65 612.7287561656797 L 107.5 612.291658033692 L 108.35 611.838990593526 L 109.2 611.3701992709584 L 110.05000000000001 610.884709737993 L 110.9 610.3819272092383 L 111.75 609.8612357132195 L 112.60000000000001 609.3219973377383 L 113.45 608.7635514483488 L 114.29999999999998 608.8516481280271 L 115.15 609.0592618303527 L 116.0 609.2780664431564 L 116.85 609.5086651851848 L 117.69999999999999 609.7516937902204 L 118.55000000000001 610.007822259726 L 119.4 610.2777567099592 L 120.25 610.5622413186532 L 121.1 610.8620603766276 L 121.95000000000002 611.1780404499871 L 122.8 611.5110526588662 L 123.64999999999999 611.8620150790073 L 124.5 612.2318952727874 L 125.35 612.6217129566742 L 126.19999999999999 613.0325428124661 L 127.04999999999998 613.4655174500637 L 127.9 613.9218305299426 L 128.75 614.4027400539371 L 129.6 614.9095718334027 L 130.45000000000002 615.4437231443244 L 131.3 616.0066665794425 L 132.15 616.5999541080187 L 133.0 617.2252213544343 L 133.85000000000002 617.8841921074156 L 134.7 618.5786830723173 L 135.54999999999998 619.3106088795677 L 136.4 620.0819873630803 L 137.25 620.8949451231863 L 138.1 621.7517233894239 L 138.95 622.6546841993447 L 139.8 623.6063169103769 L 140.65 624.6092450626915 L 141.5 625.6662336119964 L 142.35 626.7801965521966 L 143.20000000000002 627.9542049489341 L 144.05 629.1914954061575 L 144.89999999999998 630.4954789890605 L 145.75 631.8697506279905 L 146.6 633.3180990292506 L 147.45 634.8445171201208 L 148.29999999999998 636.4532130568922 L 149.15 638.1486218262608 L 150.0 639.9354174720687 L 150.85 641.8185259810965 L 151.70000000000002 643.8031388634329 L 152.55 645.8947274648611 L 153.4 648.0990580507207 L 154.25 650.4222077028262 L 155.10000000000002 652.8705810732719 L 155.95000000000002 655.4509280413097 L 156.8 658.1703623219761 L 157.65 661.0363810777749 L 158.5 664.0568855874761 L 159.35000000000002 667.2402030290201 L 160.20000000000002 670.5951094365727 L 161.04999999999998 674.130853895026 L 161.89999999999998 677.8571840386448 L 162.75 678.8053324827849 L 163.6 678.5846802297112 L 164.45 678.3561684076371 L 165.3 678.1195170610034 L 166.14999999999998 677.8744362623155 L 167.0 677.6206257569461 L 167.85 677.357774595285 L 168.7 677.085560751788 L 169.55 676.8036507304544 L 170.39999999999998 676.5116991562531 L 171.25 676.2093483519953 L 172.10000000000002 675.8962279001345 L 172.95 675.5719541889592 L 173.8 675.2361299426203 L 174.65 674.8883437344192 L 175.5 674.5281694827572 L 176.35000000000002 674.155165929134 L 177.2 673.7688760975497 L 178.05 673.3688267346517 L 178.9 672.9545277299421 L 179.75 672.5254715153287 L 180.60000000000002 672.0811324432922 L 181.45000000000002 671.6209661429014 L 182.29999999999998 671.1444088528912 L 183.14999999999998 670.6508767309846 L 184.0 670.1397651386123 L 184.85 669.6104479001556 L 185.7 669.0622765358025 L 186.55 668.4945794670789 L 187.39999999999998 667.9066611940809 L 188.25 667.2978014434008 L 189.1 666.6672542857016 L 189.95 666.0142472218607 L 190.8 665.3379802365617 L 191.64999999999998 664.6376248181757 L 192.5 663.9123229437304 L 193.35000000000002 663.1611860277256 L 194.2 662.383293833504 L 195.05 661.5776933458468 L 195.9 660.7433976034105 L 196.75 659.8793844895756 L 197.60000000000002 658.9845954802271 L 198.45 658.0579343469283 L 199.3 657.0982658139055 L 200.15 656.1044141671924 L 201.0 655.0751618142333 L 201.85000000000002 654.0092477921805 L 202.70000000000002 652.9053662230566 L 203.54999999999998 651.7621647138914 L 204.39999999999998 650.5782426998703 L 205.25 649.3521497284684 L 206.1 648.0823836824638 L 206.95 646.767388939657 L 207.8 645.4055544670383 L 208.64999999999998 643.9952118470717 L 209.5 642.5346332336742 L 210.35 641.0220292353885 L 211.2 640.2159987161059 L 212.05 639.958128789917 L 212.89999999999998 639.6863590140235 L 213.75 639.3999401509138 L 214.60000000000002 639.098082577255 L 215.45 638.779954106993 L 216.3 638.444677697114 L 217.15 638.0913290297378 L 218.0 637.718933963883 L 218.85000000000002 637.3264658498733 L 219.7 636.9128426989844 L 220.55 636.4769242005275 L 221.4 636.0175085781464 L 222.25 635.53332927666 L 223.10000000000002 635.023051470318 L 223.95000000000002 634.4852683828424 L 224.79999999999998 633.9184974091095 L 225.65 633.3211760277806 L 226.5 632.6916574936137 L 227.35 632.0282062975792 L 228.2 631.3289933822646 L 229.05 630.5920910993759 L 229.89999999999998 629.8154678954381 L 230.75 628.9969827110385 L 231.6 628.1343790781763 L 232.45 627.2252788994447 L 233.3 626.2671758918932 L 234.14999999999998 625.2574286774998" style="stroke:rgb(40%,76.1%,64.7%);stroke-opacity:1.0;stroke-width:5.0" /></g></g><g class="toyplot-mark-FillBoundaries" style="stroke:none" id="tec6f5f363264417192265537beba44e3"><polygon points="65.0,685.0 65.85,685.0 66.69999999999999,685.0 67.55000000000001,685.0 68.39999999999999,685.0 69.25,685.0 70.1,685.0 70.95,685.0 71.8,685.0 72.64999999999999,685.0 73.5,685.0 74.35,685.0 75.19999999999999,685.0 76.05000000000001,685.0 76.9,685.0 77.75,685.0 78.60000000000001,685.0 79.45,685.0 80.3,685.0 81.15,685.0 82.0,685.0 82.85000000000001,685.0 83.7,685.0 84.55,685.0 85.4,685.0 86.25,685.0 87.1,685.0 87.95,685.0 88.80000000000001,685.0 89.64999999999999,685.0 90.5,685.0 91.35,685.0 92.2,685.0 93.05,685.0 93.9,685.0 94.75,685.0 95.6,685.0 96.44999999999999,685.0 97.30000000000001,685.0 98.15,685.0 99.0,685.0 99.85,685.0 100.7,685.0 101.55,685.0 102.4,685.0 103.25,685.0 104.10000000000001,685.0 104.94999999999999,685.0 105.8,685.0 106.65,685.0 107.5,685.0 108.35,685.0 109.2,685.0 110.05000000000001,685.0 110.9,685.0 111.75,685.0 112.60000000000001,685.0 113.45,685.0 114.29999999999998,685.0 115.15,685.0 116.0,685.0 116.85,685.0 117.69999999999999,685.0 118.55000000000001,685.0 119.4,685.0 120.25,685.0 121.1,685.0 121.95000000000002,685.0 122.8,685.0 123.64999999999999,685.0 124.5,685.0 125.35,685.0 126.19999999999999,685.0 127.04999999999998,685.0 127.9,685.0 128.75,685.0 129.6,685.0 130.45000000000002,685.0 131.3,685.0 132.15,685.0 133.0,685.0 133.85000000000002,685.0 134.7,685.0 135.54999999999998,685.0 136.4,685.0 137.25,685.0 138.1,685.0 138.95,685.0 139.8,685.0 140.65,685.0 141.5,685.0 142.35,685.0 143.20000000000002,685.0 144.05,685.0 144.89999999999998,685.0 145.75,685.0 146.6,685.0 147.45,685.0 148.29999999999998,685.0 149.15,685.0 150.0,685.0 150.85,685.0 151.70000000000002,685.0 152.55,685.0 153.4,685.0 154.25,685.0 155.10000000000002,685.0 155.95000000000002,685.0 156.8,685.0 157.65,685.0 158.5,685.0 159.35000000000002,685.0 160.20000000000002,685.0 161.04999999999998,685.0 161.89999999999998,685.0 162.75,685.0 163.6,685.0 164.45,685.0 165.3,685.0 166.14999999999998,685.0 167.0,685.0 167.85,685.0 168.7,685.0 169.55,685.0 170.39999999999998,685.0 171.25,685.0 172.10000000000002,685.0 172.95,685.0 173.8,685.0 174.65,685.0 175.5,685.0 176.35000000000002,685.0 177.2,685.0 178.05,685.0 178.9,685.0 179.75,685.0 180.60000000000002,685.0 181.45000000000002,685.0 182.29999999999998,685.0 183.14999999999998,685.0 184.0,685.0 184.85,685.0 185.7,685.0 186.55,685.0 187.39999999999998,685.0 188.25,685.0 189.1,685.0 189.95,685.0 190.8,685.0 191.64999999999998,685.0 192.5,685.0 193.35000000000002,685.0 194.2,685.0 195.05,685.0 195.9,685.0 196.75,685.0 197.60000000000002,685.0 198.45,685.0 199.3,685.0 200.15,685.0 201.0,685.0 201.85000000000002,685.0 202.70000000000002,685.0 203.54999999999998,685.0 204.39999999999998,685.0 205.25,685.0 206.1,685.0 206.95,685.0 207.8,685.0 208.64999999999998,685.0 209.5,685.0 210.35,685.0 211.2,685.0 212.05,685.0 212.89999999999998,685.0 213.75,685.0 214.60000000000002,685.0 215.45,685.0 216.3,685.0 217.15,685.0 218.0,685.0 218.85000000000002,685.0 219.7,685.0 220.55,685.0 221.4,685.0 222.25,685.0 223.10000000000002,685.0 223.95000000000002,685.0 224.79999999999998,685.0 225.65,685.0 226.5,685.0 227.35,685.0 228.2,685.0 229.05,685.0 229.89999999999998,685.0 230.75,685.0 231.6,685.0 232.45,685.0 233.3,685.0 234.14999999999998,685.0 234.14999999999998,625.2574286774998 233.3,626.2671758918932 232.45,627.2252788994447 231.6,628.1343790781763 230.75,628.9969827110385 229.89999999999998,629.8154678954381 229.05,630.5920910993759 228.2,631.3289933822646 227.35,632.0282062975792 226.5,632.6916574936137 225.65,633.3211760277806 224.79999999999998,633.9184974091095 223.95000000000002,634.4852683828424 223.10000000000002,635.023051470318 222.25,635.53332927666 221.4,636.0175085781464 220.55,636.4769242005275 219.7,636.9128426989844 218.85000000000002,637.3264658498733 218.0,637.718933963883 217.15,638.0913290297378 216.3,638.444677697114 215.45,638.779954106993 214.60000000000002,639.098082577255 213.75,639.3999401509138 212.89999999999998,639.6863590140235 212.05,639.958128789917 211.2,640.2159987161059 210.35,641.0220292353885 209.5,642.5346332336742 208.64999999999998,643.9952118470717 207.8,645.4055544670383 206.95,646.767388939657 206.1,648.0823836824638 205.25,649.3521497284684 204.39999999999998,650.5782426998703 203.54999999999998,651.7621647138914 202.70000000000002,652.9053662230566 201.85000000000002,654.0092477921805 201.0,655.0751618142333 200.15,656.1044141671924 199.3,657.0982658139055 198.45,658.0579343469283 197.60000000000002,658.9845954802271 196.75,659.8793844895756 195.9,660.7433976034105 195.05,661.5776933458468 194.2,662.383293833504 193.35000000000002,663.1611860277256 192.5,663.9123229437304 191.64999999999998,664.6376248181757 190.8,665.3379802365617 189.95,666.0142472218607 189.1,666.6672542857016 188.25,667.2978014434008 187.39999999999998,667.9066611940809 186.55,668.4945794670789 185.7,669.0622765358025 184.85,669.6104479001556 184.0,670.1397651386123 183.14999999999998,670.6508767309846 182.29999999999998,671.1444088528912 181.45000000000002,671.6209661429014 180.60000000000002,672.0811324432922 179.75,672.5254715153287 178.9,672.9545277299421 178.05,673.3688267346517 177.2,673.7688760975497 176.35000000000002,674.155165929134 175.5,674.5281694827572 174.65,674.8883437344192 173.8,675.2361299426203 172.95,675.5719541889592 172.10000000000002,675.8962279001345 171.25,676.2093483519953 170.39999999999998,676.5116991562531 169.55,676.8036507304544 168.7,677.085560751788 167.85,677.357774595285 167.0,677.6206257569461 166.14999999999998,677.8744362623155 165.3,678.1195170610034 164.45,678.3561684076371 163.6,678.5846802297112 162.75,678.8053324827849 161.89999999999998,677.8571840386448 161.04999999999998,674.130853895026 160.20000000000002,670.5951094365727 159.35000000000002,667.2402030290201 158.5,664.0568855874761 157.65,661.0363810777749 156.8,658.1703623219761 155.95000000000002,655.4509280413097 155.10000000000002,652.8705810732719 154.25,650.4222077028262 153.4,648.0990580507207 152.55,645.8947274648611 151.70000000000002,643.8031388634329 150.85,641.8185259810965 150.0,639.9354174720687 149.15,638.1486218262608 148.29999999999998,636.4532130568922 147.45,634.8445171201208 146.6,633.3180990292506 145.75,631.8697506279905 144.89999999999998,630.4954789890605 144.05,629.1914954061575 143.20000000000002,627.9542049489341 142.35,626.7801965521966 141.5,625.6662336119964 140.65,624.6092450626915 139.8,623.6063169103769 138.95,622.6546841993447 138.1,621.7517233894239 137.25,620.8949451231863 136.4,620.0819873630803 135.54999999999998,619.3106088795677 134.7,618.5786830723173 133.85000000000002,617.8841921074156 133.0,617.2252213544343 132.15,616.5999541080187 131.3,616.0066665794425 130.45000000000002,615.4437231443244 129.6,614.9095718334027 128.75,614.4027400539371 127.9,613.9218305299426 127.04999999999998,613.4655174500637 126.19999999999999,613.0325428124661 125.35,612.6217129566742 124.5,612.2318952727874 123.64999999999999,611.8620150790073 122.8,611.5110526588662 121.95000000000002,611.1780404499871 121.1,610.8620603766276 120.25,610.5622413186532 119.4,610.2777567099592 118.55000000000001,610.007822259726 117.69999999999999,609.7516937902204 116.85,609.5086651851848 116.0,609.2780664431564 115.15,609.0592618303527 114.29999999999998,608.8516481280271 113.45,608.7635514483488 112.60000000000001,609.3219973377383 111.75,609.8612357132195 110.9,610.3819272092383 110.05000000000001,610.884709737993 109.2,611.3701992709584 108.35,611.838990593526 107.5,612.291658033692 106.65,612.7287561656797 105.8,613.150820489363 104.94999999999999,613.5583680863208 104.10000000000001,613.9518982533259 103.25,614.3318931140468 102.4,614.698818209709 101.55,615.0531230694412 100.7,615.3952417610049 99.85,615.7255934225818 99.0,616.0445827762703 98.15,616.3526006239202 97.30000000000001,616.6500243259152 96.44999999999999,616.9372182634847 95.6,617.2145342851182 94.75,617.4823121376226 93.9,617.7408798823546 93.05,617.9905542971374 92.2,618.2316412643524 91.35,618.4644361456845 90.5,618.6892241439758 89.64999999999999,618.9062806526356 88.80000000000001,619.1158715930314 87.95,619.3182537402761 87.1,619.5136750378094 86.25,619.7023749011597 85.4,619.8845845112578 84.55,620.0605270976627 83.7,620.2304182120456 82.85000000000001,620.3944659922678 82.0,620.5528714173754 81.15,620.7058285538237 80.3,620.8535247932336 79.45,620.9961410819687 78.60000000000001,621.1338521428179 77.75,621.2668266890523 76.9,621.3952276311206 76.05000000000001,621.5192122762346 75.19999999999999,621.6389325210893 74.35,621.7545350379567 73.5,621.8661614543768 72.64999999999999,621.9739485266695 71.8,622.0780283074778 70.95,622.1785283075493 70.1,622.2755716519522 69.25,622.3692772309194 68.39999999999999,622.4597598455036 67.55000000000001,622.5471303482234 66.69999999999999,622.6314957788707 65.85,622.7129594956486 65.0,622.7916213017979" style="fill:rgb(40%,76.1%,64.7%);fill-opacity:1.0;opacity:0.33;stroke:none" /></g><g class="toyplot-mark-Plot" style="fill:none;stroke:rgb(0%,0%,0%);stroke-dasharray:4,2;stroke-opacity:1.0;stroke-width:2" id="t791d33628fb64e42b6a6ca235619a7aa"><g class="toyplot-Series"><path d="M 65.0 685.0 L 65.0 622.7916213017979" style="stroke:rgb(0%,0%,0%);stroke-dasharray:4,2;stroke-opacity:1.0;stroke-width:2" /></g></g><g class="toyplot-mark-Plot" style="fill:none;stroke:rgb(0%,0%,0%);stroke-dasharray:4,2;stroke-opacity:1.0;stroke-width:2" id="tc3114714b72d4b34b1bb71b8e42cc2eb"><g class="toyplot-Series"><path d="M 113.5714280857143 685.0 L 113.5714280857143 608.6821662376577" style="stroke:rgb(0%,0%,0%);stroke-dasharray:4,2;stroke-opacity:1.0;stroke-width:2" /></g></g><g class="toyplot-mark-Plot" style="fill:none;stroke:rgb(0%,0%,0%);stroke-dasharray:4,2;stroke-opacity:1.0;stroke-width:2" id="tb02ab37f457e4e2b99b00288e88d3ff7"><g class="toyplot-Series"><path d="M 162.14285665714286 685.0 L 162.14285665714286 678.9582771499919" style="stroke:rgb(0%,0%,0%);stroke-dasharray:4,2;stroke-opacity:1.0;stroke-width:2" /></g></g><g class="toyplot-mark-Plot" style="fill:none;stroke:rgb(0%,0%,0%);stroke-dasharray:4,2;stroke-opacity:1.0;stroke-width:2" id="t29783535e7334c31bfd468dc8b841daa"><g class="toyplot-Series"><path d="M 210.71428522857144 685.0 L 210.71428522857144 640.3573882144069" style="stroke:rgb(0%,0%,0%);stroke-dasharray:4,2;stroke-opacity:1.0;stroke-width:2" /></g></g><g class="toyplot-mark-Plot" style="fill:none;stroke:rgb(0%,0%,0%);stroke-dasharray:4,2;stroke-opacity:1.0;stroke-width:2" id="t1f9eb8463d754fd284b519ab74fe5a8b"><g class="toyplot-Series"><path d="M 234.99999951428572 685.0 L 234.99999951428572 624.193254125401" style="stroke:rgb(0%,0%,0%);stroke-dasharray:4,2;stroke-opacity:1.0;stroke-width:2" /></g></g></g><g class="toyplot-coordinates-Axis" id="t5080af3555e8464d8cac55f96c1b1ce6" transform="translate(65.0,685.0)translate(0,10.0)"><line x1="0" y1="0" x2="169.99999951428572" y2="0" style="stroke-width:1.5" /><g><line x1="0.0" y1="7.5" x2="0.0" y2="0" style="stroke-width:1.5" /><line x1="48.57142857142857" y1="7.5" x2="48.57142857142857" y2="0" style="stroke-width:1.5" /><line x1="97.14285714285714" y1="7.5" x2="97.14285714285714" y2="0" style="stroke-width:1.5" /><line x1="145.7142857142857" y1="7.5" x2="145.7142857142857" y2="0" style="stroke-width:1.5" /><line x1="170.0" y1="7.5" x2="170.0" y2="0" style="stroke-width:1.5" /></g><g><g transform="translate(0.0,15.0)"><text x="-16.68" y="8.555" style="fill:rgb(16.1%,15.3%,14.1%);fill-opacity:1.0;font-family:helvetica;font-size:10.0px;font-weight:normal;stroke:none;vertical-align:baseline;white-space:pre">100000</text></g><g transform="translate(48.57142857142857,15.0)"><text x="-16.68" y="8.555" style="fill:rgb(16.1%,15.3%,14.1%);fill-opacity:1.0;font-family:helvetica;font-size:10.0px;font-weight:normal;stroke:none;vertical-align:baseline;white-space:pre">200000</text></g><g transform="translate(97.14285714285714,15.0)"><text x="-16.68" y="8.555" style="fill:rgb(16.1%,15.3%,14.1%);fill-opacity:1.0;font-family:helvetica;font-size:10.0px;font-weight:normal;stroke:none;vertical-align:baseline;white-space:pre">300000</text></g><g transform="translate(145.7142857142857,15.0)"><text x="-16.68" y="8.555" style="fill:rgb(16.1%,15.3%,14.1%);fill-opacity:1.0;font-family:helvetica;font-size:10.0px;font-weight:normal;stroke:none;vertical-align:baseline;white-space:pre">400000</text></g><g transform="translate(170.0,15.0)"><text x="-16.68" y="8.555" style="fill:rgb(16.1%,15.3%,14.1%);fill-opacity:1.0;font-family:helvetica;font-size:10.0px;font-weight:normal;stroke:none;vertical-align:baseline;white-space:pre">450000</text></g></g><g transform="translate(85.0,35.0)"><text x="-100.02000000000002" y="10.265999999999998" style="fill:rgb(16.1%,15.3%,14.1%);fill-opacity:1.0;font-family:helvetica;font-size:12.0px;font-weight:bold;stroke:none;vertical-align:baseline;white-space:pre">Time of recombination on branch 7</text></g><g class="toyplot-coordinates-Axis-coordinates" style="visibility:hidden" transform=""><line x1="0" x2="0" y1="-7.5" y2="11.25" style="stroke:rgb(43.9%,50.2%,56.5%);stroke-opacity:1.0;stroke-width:1.0" /><text x="0" y="-15.0" style="alignment-baseline:alphabetic;fill:rgb(43.9%,50.2%,56.5%);fill-opacity:1.0;font-size:10px;font-weight:normal;stroke:none;text-anchor:middle" /></g></g><g class="toyplot-coordinates-Axis" id="td1e3b36683714220b9626ddc56158970" transform="translate(65.0,685.0)rotate(-90.0)translate(0,-10.0)"><line x1="0" y1="0" x2="120.0" y2="0" style="stroke-width:1.5" /><g><line x1="0.0" y1="-7.5" x2="0.0" y2="0" style="stroke-width:1.5" /><line x1="60.0" y1="-7.5" x2="60.0" y2="0" style="stroke-width:1.5" /><line x1="120.0" y1="-7.5" x2="120.0" y2="0" style="stroke-width:1.5" /></g><g><g transform="translate(0.0,-15.0)"><text x="-6.95" y="-4.440892098500626e-16" style="fill:rgb(16.1%,15.3%,14.1%);fill-opacity:1.0;font-family:helvetica;font-size:10.0px;font-weight:normal;stroke:none;vertical-align:baseline;white-space:pre">0.0</text></g><g transform="translate(60.0,-15.0)"><text x="-6.95" y="-4.440892098500626e-16" style="fill:rgb(16.1%,15.3%,14.1%);fill-opacity:1.0;font-family:helvetica;font-size:10.0px;font-weight:normal;stroke:none;vertical-align:baseline;white-space:pre">0.5</text></g><g transform="translate(120.0,-15.0)"><text x="-6.95" y="-4.440892098500626e-16" style="fill:rgb(16.1%,15.3%,14.1%);fill-opacity:1.0;font-family:helvetica;font-size:10.0px;font-weight:normal;stroke:none;vertical-align:baseline;white-space:pre">1.0</text></g></g><g transform="translate(60.0,-35.0)"><text x="-31.008" y="0.0" style="fill:rgb(16.1%,15.3%,14.1%);fill-opacity:1.0;font-family:helvetica;font-size:12.0px;font-weight:bold;stroke:none;vertical-align:baseline;white-space:pre">Probability</text></g><g class="toyplot-coordinates-Axis-coordinates" style="visibility:hidden" transform=""><line x1="0" x2="0" y1="7.5" y2="-11.25" style="stroke:rgb(43.9%,50.2%,56.5%);stroke-opacity:1.0;stroke-width:1.0" /><text x="0" y="15.0" style="alignment-baseline:hanging;fill:rgb(43.9%,50.2%,56.5%);fill-opacity:1.0;font-size:10px;font-weight:normal;stroke:none;text-anchor:middle" /></g></g><g transform="translate(150.0,545.0)"><text x="-62.608000000000004" y="-4.823" style="fill:rgb(16.1%,15.3%,14.1%);fill-opacity:1.0;font-family:helvetica;font-size:14.0px;font-weight:bold;stroke:none;vertical-align:baseline;white-space:pre">Prob(topo-change)</text></g></g></svg>