<svg class="toyplot-canvas-Canvas" xmlns:toyplot="http://www.sandia.gov/toyplot" xmlns:xlink="http://www.w3.org/1999/xlink" xmlns="http://www.w3.org/2000/svg" width="300.0px" height="750.0px" viewBox="0 0 300.0 750.0" preserveAspectRatio="xMidYMid meet" style="background-color:transparent;border-color:#292724;border-style:none;border-width:1.0;fill:rgb(16.1%,15.3%,14.1%);fill-opacity:1.0;font-family:Helvetica;font-size:12px;opacity:1.0;stroke:rgb(16.1%,15.3%,14.1%);stroke-opacity:1.0;stroke-width:1.0" id="t4fc36da130f44602bd9ba64243517635"><g class="toyplot-coordinates-Cartesian" id="t519a156bce754c6b875ad550c0802123"><clipPath id="t2f287240f11b4c3399032eb89b3332d4"><rect x="55.0" y="55.0" width="190.0" height="140.0" /></clipPath><g clip-path="url(#t2f287240f11b4c3399032eb89b3332d4)"><g class="toyplot-mark-Plot" style="fill:none" id="tbd3a839fa73e411dbcc69621f79fc0c0"><g class="toyplot-Series"><path d="M 65.0 156.27230522108422 L 65.85 156.38195005588986 L 66.69999999999999 156.49197931997608 L 67.55000000000001 156.60239436120284 L 68.39999999999999 156.71319653215565 L 69.25 156.82438719016264 L 70.1 156.93596769731062 L 70.95 157.04793942046228 L 71.8 157.16030373127262 L 72.64999999999999 157.27306200620583 L 73.5 157.38621562655217 L 74.35 157.49976597844497 L 75.19999999999999 157.6137144528774 L 76.05000000000001 157.72806244571973 L 76.9 157.8428113577363 L 77.75 157.9579625946027 L 78.60000000000001 158.07351756692302 L 79.45 158.1894776902471 L 80.3 158.30584438508797 L 81.15 158.42261907693904 L 82.0 158.53980319629176 L 82.85000000000001 158.6573981786531 L 83.7 158.77540546456297 L 84.55 158.89382649961215 L 85.4 159.0126627344598 L 86.25 159.13191562485133 L 87.1 159.25158663163603 L 87.95 159.37167722078533 L 88.80000000000001 159.4921888634104 L 89.64999999999999 159.61312303578038 L 90.5 159.73448121934038 L 91.35 159.85626490072968 L 92.2 159.9784755717999 L 93.05 160.1011147296333 L 93.9 160.22418387656106 L 94.75 160.34768452018184 L 95.6 160.47161817338 L 96.44999999999999 160.59598635434432 L 97.30000000000001 160.72079058658667 L 98.15 160.8460323989604 L 99.0 160.97171332567925 L 99.85 161.0978349063362 L 100.7 161.22439868592215 L 101.55 161.351406214845 L 102.4 161.47885904894855 L 103.25 161.60675874953168 L 104.10000000000001 161.7351068833672 L 104.94999999999999 161.86390502272144 L 105.8 161.9931547453732 L 106.65 162.12285763463322 L 107.5 162.25301527936347 L 108.35 162.38362927399677 L 109.2 162.51470121855616 L 110.05000000000001 162.64623271867458 L 110.9 162.7782253856146 L 111.75 162.91068083628804 L 112.60000000000001 163.04360069327578 L 113.45 163.17698658484775 L 114.29999999999998 163.27814672236133 L 115.15 163.37435932975993 L 116.0 163.4710783816008 L 116.85 163.5683065437089 L 117.69999999999999 163.6660464959416 L 118.55000000000001 163.7643009322626 L 119.4 163.86307256081597 L 120.25 163.96236410400095 L 121.1 164.062178298547 L 121.95000000000002 164.1625178955892 L 122.8 164.26338566074404 L 123.64999999999999 164.36478437418566 L 124.5 164.46671683072256 L 125.35 164.56918583987448 L 126.19999999999999 164.67219422595 L 127.04999999999998 164.77574482812423 L 127.9 164.87984050051728 L 128.75 164.9844841122727 L 129.6 165.0896785476366 L 130.45000000000002 165.1954267060373 L 131.3 165.3017315021651 L 132.15 165.40859586605274 L 133.0 165.51602274315587 L 133.85000000000002 165.62401509443475 L 134.7 165.7325758964353 L 135.54999999999998 165.84170814137153 L 136.4 165.95141483720784 L 137.25 166.061699007742 L 138.1 166.17256369268844 L 138.95 166.284011947762 L 139.8 166.39604684476234 L 140.65 166.50867147165837 L 141.5 166.62188893267353 L 142.35 166.7357023483712 L 143.20000000000002 166.8501148557409 L 144.05 166.96512960828457 L 144.89999999999998 167.08074977610363 L 145.75 167.19697854598627 L 146.6 167.31381912149533 L 147.45 167.4312747230566 L 148.29999999999998 167.54934858804745 L 149.15 167.66804397088632 L 150.0 167.7873641431222 L 150.85 167.9073123935249 L 151.70000000000002 168.02789202817564 L 152.55 168.14910637055826 L 153.4 168.2709587616507 L 154.25 168.39345256001727 L 155.10000000000002 168.516591141901 L 155.95000000000002 168.64037790131687 L 156.8 168.76481625014526 L 157.65 168.88990961822603 L 158.5 169.01566145345308 L 159.35000000000002 169.14207522186933 L 160.20000000000002 169.26915440776224 L 161.04999999999998 169.39690251375993 L 161.89999999999998 169.52532306092766 L 162.75 169.67368336973703 L 163.6 169.830315207352 L 164.45 169.98749621688881 L 165.3 170.1452283238169 L 166.14999999999998 170.30351346035647 L 167.0 170.4623535655025 L 167.85 170.6217505850482 L 168.7 170.78170647160908 L 169.55 170.94222318464674 L 170.39999999999998 171.10330269049294 L 171.25 171.2649469623736 L 172.10000000000002 171.42715798043318 L 172.95 171.58993773175854 L 173.8 171.75328821040372 L 174.65 171.9172114174142 L 175.5 172.0817093608512 L 176.35000000000002 172.24678405581665 L 177.2 172.4124375244776 L 178.05 172.57867179609116 L 178.9 172.74548890702917 L 179.75 172.9128909008034 L 180.60000000000002 173.0808798280903 L 181.45000000000002 173.24945774675635 L 182.29999999999998 173.4186267218832 L 183.14999999999998 173.58838882579283 L 184.0 173.75874613807323 L 184.85 173.92970074560353 L 185.7 174.10125474257984 L 186.55 174.27341023054078 L 187.39999999999998 174.44616931839323 L 188.25 174.61953412243815 L 189.1 174.79350676639655 L 189.95 174.96808938143556 L 190.8 175.1432841061943 L 191.64999999999998 175.31909308681043 L 192.5 175.49551847694616 L 193.35000000000002 175.67256243781463 L 194.2 175.85022713820666 L 195.05 176.02851475451703 L 195.9 176.20742747077122 L 196.75 176.38696747865237 L 197.60000000000002 176.56713697752767 L 198.45 176.74793817447582 L 199.3 176.92937328431375 L 200.15 177.11144452962378 L 201.0 177.29415414078093 L 201.85000000000002 177.47750435598033 L 202.70000000000002 177.6614974212643 L 203.54999999999998 177.8461355905502 L 204.39999999999998 178.03142112565797 L 205.25 178.21735629633767 L 206.1 178.4039433802975 L 206.95 178.59118466323156 L 207.8 178.77908243884795 L 208.64999999999998 178.9676390088967 L 209.5 179.15685668319819 L 210.35 179.34673777967132 L 211.2 179.5317590966528 L 212.05 179.71352755661835 L 212.89999999999998 179.89625281038488 L 213.75 180.07993989432867 L 214.60000000000002 180.26459387133664 L 215.45 180.45021983094568 L 216.3 180.6368228894831 L 217.15 180.82440819020755 L 218.0 181.01298090345063 L 218.85000000000002 181.20254622675978 L 219.7 181.3931093850412 L 220.55 181.58467563070403 L 221.4 181.77725024380499 L 222.25 181.97083853219408 L 223.10000000000002 182.16544583166075 L 223.95000000000002 182.36107750608105 L 224.79999999999998 182.55773894756533 L 225.65 182.75543557660706 L 226.5 182.95417284223205 L 227.35 183.15395622214882 L 228.2 183.35479122289937 L 229.05 183.55668338001118 L 229.89999999999998 183.75963825814958 L 230.75 183.96366145127126 L 231.6 184.16875858277837 L 232.45 184.37493530567363 L 233.3 184.58219730271597 L 234.14999999999998 184.79055028657734" style="stroke:rgb(40%,76.1%,64.7%);stroke-opacity:1.0;stroke-width:5.0" /></g></g><g class="toyplot-mark-FillBoundaries" style="stroke:none" id="tcd1fd686af064120b719fffa909694cc"><polygon points="65.0,185.0 65.85,185.0 66.69999999999999,185.0 67.55000000000001,185.0 68.39999999999999,185.0 69.25,185.0 70.1,185.0 70.95,185.0 71.8,185.0 72.64999999999999,185.0 73.5,185.0 74.35,185.0 75.19999999999999,185.0 76.05000000000001,185.0 76.9,185.0 77.75,185.0 78.60000000000001,185.0 79.45,185.0 80.3,185.0 81.15,185.0 82.0,185.0 82.85000000000001,185.0 83.7,185.0 84.55,185.0 85.4,185.0 86.25,185.0 87.1,185.0 87.95,185.0 88.80000000000001,185.0 89.64999999999999,185.0 90.5,185.0 91.35,185.0 92.2,185.0 93.05,185.0 93.9,185.0 94.75,185.0 95.6,185.0 96.44999999999999,185.0 97.30000000000001,185.0 98.15,185.0 99.0,185.0 99.85,185.0 100.7,185.0 101.55,185.0 102.4,185.0 103.25,185.0 104.10000000000001,185.0 104.94999999999999,185.0 105.8,185.0 106.65,185.0 107.5,185.0 108.35,185.0 109.2,185.0 110.05000000000001,185.0 110.9,185.0 111.75,185.0 112.60000000000001,185.0 113.45,185.0 114.29999999999998,185.0 115.15,185.0 116.0,185.0 116.85,185.0 117.69999999999999,185.0 118.55000000000001,185.0 119.4,185.0 120.25,185.0 121.1,185.0 121.95000000000002,185.0 122.8,185.0 123.64999999999999,185.0 124.5,185.0 125.35,185.0 126.19999999999999,185.0 127.04999999999998,185.0 127.9,185.0 128.75,185.0 129.6,185.0 130.45000000000002,185.0 131.3,185.0 132.15,185.0 133.0,185.0 133.85000000000002,185.0 134.7,185.0 135.54999999999998,185.0 136.4,185.0 137.25,185.0 138.1,185.0 138.95,185.0 139.8,185.0 140.65,185.0 141.5,185.0 142.35,185.0 143.20000000000002,185.0 144.05,185.0 144.89999999999998,185.0 145.75,185.0 146.6,185.0 147.45,185.0 148.29999999999998,185.0 149.15,185.0 150.0,185.0 150.85,185.0 151.70000000000002,185.0 152.55,185.0 153.4,185.0 154.25,185.0 155.10000000000002,185.0 155.95000000000002,185.0 156.8,185.0 157.65,185.0 158.5,185.0 159.35000000000002,185.0 160.20000000000002,185.0 161.04999999999998,185.0 161.89999999999998,185.0 162.75,185.0 163.6,185.0 164.45,185.0 165.3,185.0 166.14999999999998,185.0 167.0,185.0 167.85,185.0 168.7,185.0 169.55,185.0 170.39999999999998,185.0 171.25,185.0 172.10000000000002,185.0 172.95,185.0 173.8,185.0 174.65,185.0 175.5,185.0 176.35000000000002,185.0 177.2,185.0 178.05,185.0 178.9,185.0 179.75,185.0 180.60000000000002,185.0 181.45000000000002,185.0 182.29999999999998,185.0 183.14999999999998,185.0 184.0,185.0 184.85,185.0 185.7,185.0 186.55,185.0 187.39999999999998,185.0 188.25,185.0 189.1,185.0 189.95,185.0 190.8,185.0 191.64999999999998,185.0 192.5,185.0 193.35000000000002,185.0 194.2,185.0 195.05,185.0 195.9,185.0 196.75,185.0 197.60000000000002,185.0 198.45,185.0 199.3,185.0 200.15,185.0 201.0,185.0 201.85000000000002,185.0 202.70000000000002,185.0 203.54999999999998,185.0 204.39999999999998,185.0 205.25,185.0 206.1,185.0 206.95,185.0 207.8,185.0 208.64999999999998,185.0 209.5,185.0 210.35,185.0 211.2,185.0 212.05,185.0 212.89999999999998,185.0 213.75,185.0 214.60000000000002,185.0 215.45,185.0 216.3,185.0 217.15,185.0 218.0,185.0 218.85000000000002,185.0 219.7,185.0 220.55,185.0 221.4,185.0 222.25,185.0 223.10000000000002,185.0 223.95000000000002,185.0 224.79999999999998,185.0 225.65,185.0 226.5,185.0 227.35,185.0 228.2,185.0 229.05,185.0 229.89999999999998,185.0 230.75,185.0 231.6,185.0 232.45,185.0 233.3,185.0 234.14999999999998,185.0 234.14999999999998,184.79055028657734 233.3,184.58219730271597 232.45,184.37493530567363 231.6,184.16875858277837 230.75,183.96366145127126 229.89999999999998,183.75963825814958 229.05,183.55668338001118 228.2,183.35479122289937 227.35,183.15395622214882 226.5,182.95417284223205 225.65,182.75543557660706 224.79999999999998,182.55773894756533 223.95000000000002,182.36107750608105 223.10000000000002,182.16544583166075 222.25,181.97083853219408 221.4,181.77725024380499 220.55,181.58467563070403 219.7,181.3931093850412 218.85000000000002,181.20254622675978 218.0,181.01298090345063 217.15,180.82440819020755 216.3,180.6368228894831 215.45,180.45021983094568 214.60000000000002,180.26459387133664 213.75,180.07993989432867 212.89999999999998,179.89625281038488 212.05,179.71352755661835 211.2,179.5317590966528 210.35,179.34673777967132 209.5,179.15685668319819 208.64999999999998,178.9676390088967 207.8,178.77908243884795 206.95,178.59118466323156 206.1,178.4039433802975 205.25,178.21735629633767 204.39999999999998,178.03142112565797 203.54999999999998,177.8461355905502 202.70000000000002,177.6614974212643 201.85000000000002,177.47750435598033 201.0,177.29415414078093 200.15,177.11144452962378 199.3,176.92937328431375 198.45,176.74793817447582 197.60000000000002,176.56713697752767 196.75,176.38696747865237 195.9,176.20742747077122 195.05,176.02851475451703 194.2,175.85022713820666 193.35000000000002,175.67256243781463 192.5,175.49551847694616 191.64999999999998,175.31909308681043 190.8,175.1432841061943 189.95,174.96808938143556 189.1,174.79350676639655 188.25,174.61953412243815 187.39999999999998,174.44616931839323 186.55,174.27341023054078 185.7,174.10125474257984 184.85,173.92970074560353 184.0,173.75874613807323 183.14999999999998,173.58838882579283 182.29999999999998,173.4186267218832 181.45000000000002,173.24945774675635 180.60000000000002,173.0808798280903 179.75,172.9128909008034 178.9,172.74548890702917 178.05,172.57867179609116 177.2,172.4124375244776 176.35000000000002,172.24678405581665 175.5,172.0817093608512 174.65,171.9172114174142 173.8,171.75328821040372 172.95,171.58993773175854 172.10000000000002,171.42715798043318 171.25,171.2649469623736 170.39999999999998,171.10330269049294 169.55,170.94222318464674 168.7,170.78170647160908 167.85,170.6217505850482 167.0,170.4623535655025 166.14999999999998,170.30351346035647 165.3,170.1452283238169 164.45,169.98749621688881 163.6,169.830315207352 162.75,169.67368336973703 161.89999999999998,169.52532306092766 161.04999999999998,169.39690251375993 160.20000000000002,169.26915440776224 159.35000000000002,169.14207522186933 158.5,169.01566145345308 157.65,168.88990961822603 156.8,168.76481625014526 155.95000000000002,168.64037790131687 155.10000000000002,168.516591141901 154.25,168.39345256001727 153.4,168.2709587616507 152.55,168.14910637055826 151.70000000000002,168.02789202817564 150.85,167.9073123935249 150.0,167.7873641431222 149.15,167.66804397088632 148.29999999999998,167.54934858804745 147.45,167.4312747230566 146.6,167.31381912149533 145.75,167.19697854598627 144.89999999999998,167.08074977610363 144.05,166.96512960828457 143.20000000000002,166.8501148557409 142.35,166.7357023483712 141.5,166.62188893267353 140.65,166.50867147165837 139.8,166.39604684476234 138.95,166.284011947762 138.1,166.17256369268844 137.25,166.061699007742 136.4,165.95141483720784 135.54999999999998,165.84170814137153 134.7,165.7325758964353 133.85000000000002,165.62401509443475 133.0,165.51602274315587 132.15,165.40859586605274 131.3,165.3017315021651 130.45000000000002,165.1954267060373 129.6,165.0896785476366 128.75,164.9844841122727 127.9,164.87984050051728 127.04999999999998,164.77574482812423 126.19999999999999,164.67219422595 125.35,164.56918583987448 124.5,164.46671683072256 123.64999999999999,164.36478437418566 122.8,164.26338566074404 121.95000000000002,164.1625178955892 121.1,164.062178298547 120.25,163.96236410400095 119.4,163.86307256081597 118.55000000000001,163.7643009322626 117.69999999999999,163.6660464959416 116.85,163.5683065437089 116.0,163.4710783816008 115.15,163.37435932975993 114.29999999999998,163.27814672236133 113.45,163.17698658484775 112.60000000000001,163.04360069327578 111.75,162.91068083628804 110.9,162.7782253856146 110.05000000000001,162.64623271867458 109.2,162.51470121855616 108.35,162.38362927399677 107.5,162.25301527936347 106.65,162.12285763463322 105.8,161.9931547453732 104.94999999999999,161.86390502272144 104.10000000000001,161.7351068833672 103.25,161.60675874953168 102.4,161.47885904894855 101.55,161.351406214845 100.7,161.22439868592215 99.85,161.0978349063362 99.0,160.97171332567925 98.15,160.8460323989604 97.30000000000001,160.72079058658667 96.44999999999999,160.59598635434432 95.6,160.47161817338 94.75,160.34768452018184 93.9,160.22418387656106 93.05,160.1011147296333 92.2,159.9784755717999 91.35,159.85626490072968 90.5,159.73448121934038 89.64999999999999,159.61312303578038 88.80000000000001,159.4921888634104 87.95,159.37167722078533 87.1,159.25158663163603 86.25,159.13191562485133 85.4,159.0126627344598 84.55,158.89382649961215 83.7,158.77540546456297 82.85000000000001,158.6573981786531 82.0,158.53980319629176 81.15,158.42261907693904 80.3,158.30584438508797 79.45,158.1894776902471 78.60000000000001,158.07351756692302 77.75,157.9579625946027 76.9,157.8428113577363 76.05000000000001,157.72806244571973 75.19999999999999,157.6137144528774 74.35,157.49976597844497 73.5,157.38621562655217 72.64999999999999,157.27306200620583 71.8,157.16030373127262 70.95,157.04793942046228 70.1,156.93596769731062 69.25,156.82438719016264 68.39999999999999,156.71319653215565 67.55000000000001,156.60239436120284 66.69999999999999,156.49197931997608 65.85,156.38195005588986 65.0,156.27230522108422" style="fill:rgb(40%,76.1%,64.7%);fill-opacity:1.0;opacity:0.33;stroke:none" /></g><g class="toyplot-mark-Plot" style="fill:none;stroke:rgb(0%,0%,0%);stroke-dasharray:4,2;stroke-opacity:1.0;stroke-width:2" id="tc42f88fe37434ea0abe48cd08172735c"><g class="toyplot-Series"><path d="M 65.0 185.0 L 65.0 156.27230522108422" style="stroke:rgb(0%,0%,0%);stroke-dasharray:4,2;stroke-opacity:1.0;stroke-width:2" /></g></g><g class="toyplot-mark-Plot" style="fill:none;stroke:rgb(0%,0%,0%);stroke-dasharray:4,2;stroke-opacity:1.0;stroke-width:2" id="te5d339e45d8f41de954e001e06e8ee2a"><g class="toyplot-Series"><path d="M 113.57142857142857 185.0 L 113.57142857142857 163.19607985105895" style="stroke:rgb(0%,0%,0%);stroke-dasharray:4,2;stroke-opacity:1.0;stroke-width:2" /></g></g><g class="toyplot-mark-Plot" style="fill:none;stroke:rgb(0%,0%,0%);stroke-dasharray:4,2;stroke-opacity:1.0;stroke-width:2" id="t6f44023440844b14818ca43dd0e52f5c"><g class="toyplot-Series"><path d="M 162.14285714285714 185.0 L 162.14285714285714 169.56213865030816" style="stroke:rgb(0%,0%,0%);stroke-dasharray:4,2;stroke-opacity:1.0;stroke-width:2" /></g></g><g class="toyplot-mark-Plot" style="fill:none;stroke:rgb(0%,0%,0%);stroke-dasharray:4,2;stroke-opacity:1.0;stroke-width:2" id="t6f31cb69e7a94d04a7af501ce93f9f73"><g class="toyplot-Series"><path d="M 210.7142857142857 185.0 L 210.7142857142857 179.4283190570023" style="stroke:rgb(0%,0%,0%);stroke-dasharray:4,2;stroke-opacity:1.0;stroke-width:2" /></g></g><g class="toyplot-mark-Plot" style="fill:none;stroke:rgb(0%,0%,0%);stroke-dasharray:4,2;stroke-opacity:1.0;stroke-width:2" id="t40defd8b85394fb3997dc1365c3dc04c"><g class="toyplot-Series"><path d="M 235.0 185.0 L 235.0 185.0" style="stroke:rgb(0%,0%,0%);stroke-dasharray:4,2;stroke-opacity:1.0;stroke-width:2" /></g></g></g><g class="toyplot-coordinates-Axis" id="t0b1e4153baed46fbb627bdc2145df78a" transform="translate(65.0,185.0)translate(0,10.0)"><line x1="0" y1="0" x2="170.0" y2="0" style="stroke-width:1.5" /><g><line x1="0.0" y1="7.5" x2="0.0" y2="0" style="stroke-width:1.5" /><line x1="48.57142857142857" y1="7.5" x2="48.57142857142857" y2="0" style="stroke-width:1.5" /><line x1="97.14285714285714" y1="7.5" x2="97.14285714285714" y2="0" style="stroke-width:1.5" /><line x1="145.7142857142857" y1="7.5" x2="145.7142857142857" y2="0" style="stroke-width:1.5" /><line x1="170.0" y1="7.5" x2="170.0" y2="0" style="stroke-width:1.5" /></g><g><g transform="translate(0.0,15.0)"><text x="-16.68" y="8.555" style="fill:rgb(16.1%,15.3%,14.1%);fill-opacity:1.0;font-family:helvetica;font-size:10.0px;font-weight:normal;stroke:none;vertical-align:baseline;white-space:pre">100000</text></g><g transform="translate(48.57142857142857,15.0)"><text x="-16.68" y="8.555" style="fill:rgb(16.1%,15.3%,14.1%);fill-opacity:1.0;font-family:helvetica;font-size:10.0px;font-weight:normal;stroke:none;vertical-align:baseline;white-space:pre">200000</text></g><g transform="translate(97.14285714285714,15.0)"><text x="-16.68" y="8.555" style="fill:rgb(16.1%,15.3%,14.1%);fill-opacity:1.0;font-family:helvetica;font-size:10.0px;font-weight:normal;stroke:none;vertical-align:baseline;white-space:pre">300000</text></g><g transform="translate(145.7142857142857,15.0)"><text x="-16.68" y="8.555" style="fill:rgb(16.1%,15.3%,14.1%);fill-opacity:1.0;font-family:helvetica;font-size:10.0px;font-weight:normal;stroke:none;vertical-align:baseline;white-space:pre">400000</text></g><g transform="translate(170.0,15.0)"><text x="-16.68" y="8.555" style="fill:rgb(16.1%,15.3%,14.1%);fill-opacity:1.0;font-family:helvetica;font-size:10.0px;font-weight:normal;stroke:none;vertical-align:baseline;white-space:pre">450000</text></g></g><g transform="translate(85.0,35.0)"><text x="-100.02000000000002" y="10.265999999999998" style="fill:rgb(16.1%,15.3%,14.1%);fill-opacity:1.0;font-family:helvetica;font-size:12.0px;font-weight:bold;stroke:none;vertical-align:baseline;white-space:pre">Time of recombination on branch 7</text></g><g class="toyplot-coordinates-Axis-coordinates" style="visibility:hidden" transform=""><line x1="0" x2="0" y1="-7.5" y2="11.25" style="stroke:rgb(43.9%,50.2%,56.5%);stroke-opacity:1.0;stroke-width:1.0" /><text x="0" y="-15.0" style="alignment-baseline:alphabetic;fill:rgb(43.9%,50.2%,56.5%);fill-opacity:1.0;font-size:10px;font-weight:normal;stroke:none;text-anchor:middle" /></g></g><g class="toyplot-coordinates-Axis" id="t58e2f0bd3dda45dd84bcf1bc38aeea97" transform="translate(65.0,185.0)rotate(-90.0)translate(0,-10.0)"><line x1="0" y1="0" x2="120.0" y2="0" style="stroke-width:1.5" /><g><line x1="0.0" y1="-7.5" x2="0.0" y2="0" style="stroke-width:1.5" /><line x1="60.0" y1="-7.5" x2="60.0" y2="0" style="stroke-width:1.5" /><line x1="120.0" y1="-7.5" x2="120.0" y2="0" style="stroke-width:1.5" /></g><g><g transform="translate(0.0,-15.0)"><text x="-6.95" y="-4.440892098500626e-16" style="fill:rgb(16.1%,15.3%,14.1%);fill-opacity:1.0;font-family:helvetica;font-size:10.0px;font-weight:normal;stroke:none;vertical-align:baseline;white-space:pre">0.0</text></g><g transform="translate(60.0,-15.0)"><text x="-6.95" y="-4.440892098500626e-16" style="fill:rgb(16.1%,15.3%,14.1%);fill-opacity:1.0;font-family:helvetica;font-size:10.0px;font-weight:normal;stroke:none;vertical-align:baseline;white-space:pre">0.5</text></g><g transform="translate(120.0,-15.0)"><text x="-6.95" y="-4.440892098500626e-16" style="fill:rgb(16.1%,15.3%,14.1%);fill-opacity:1.0;font-family:helvetica;font-size:10.0px;font-weight:normal;stroke:none;vertical-align:baseline;white-space:pre">1.0</text></g></g><g transform="translate(60.0,-35.0)"><text x="-31.008" y="0.0" style="fill:rgb(16.1%,15.3%,14.1%);fill-opacity:1.0;font-family:helvetica;font-size:12.0px;font-weight:bold;stroke:none;vertical-align:baseline;white-space:pre">Probability</text></g><g class="toyplot-coordinates-Axis-coordinates" style="visibility:hidden" transform=""><line x1="0" x2="0" y1="7.5" y2="-11.25" style="stroke:rgb(43.9%,50.2%,56.5%);stroke-opacity:1.0;stroke-width:1.0" /><text x="0" y="15.0" style="alignment-baseline:hanging;fill:rgb(43.9%,50.2%,56.5%);fill-opacity:1.0;font-size:10px;font-weight:normal;stroke:none;text-anchor:middle" /></g></g><g transform="translate(150.0,45.0)"><text x="-56.0" y="-4.823" style="fill:rgb(16.1%,15.3%,14.1%);fill-opacity:1.0;font-family:helvetica;font-size:14.0px;font-weight:bold;stroke:none;vertical-align:baseline;white-space:pre">Prob(no-change)</text></g></g><g class="toyplot-coordinates-Cartesian" id="t0ee166f7e3744137a148f0d570976a9c"><clipPath id="t5067d3e0c90d45cda2beb671f91d062c"><rect x="55.0" y="305.0" width="190.0" height="140.0" /></clipPath><g clip-path="url(#t5067d3e0c90d45cda2beb671f91d062c)"><g class="toyplot-mark-Plot" style="fill:none" id="t6e581f0af5cd4da5a8ab239cec681d94"><g class="toyplot-Series"><path d="M 65.0 343.7276947789158 L 65.85 343.6180499441101 L 66.69999999999999 343.50802068002395 L 67.55000000000001 343.3976056387972 L 68.39999999999999 343.2868034678443 L 69.25 343.1756128098374 L 70.1 343.0640323026894 L 70.95 342.9520605795377 L 71.8 342.8396962687274 L 72.64999999999999 342.7269379937942 L 73.5 342.61378437344786 L 74.35 342.500234021555 L 75.19999999999999 342.3862855471226 L 76.05000000000001 342.27193755428027 L 76.9 342.1571886422637 L 77.75 342.0420374053973 L 78.60000000000001 341.926482433077 L 79.45 341.81052230975286 L 80.3 341.694155614912 L 81.15 341.57738092306096 L 82.0 341.4601968037082 L 82.85000000000001 341.34260182134693 L 83.7 341.22459453543706 L 84.55 341.10617350038785 L 85.4 340.9873372655402 L 86.25 340.86808437514867 L 87.1 340.74841336836397 L 87.95 340.62832277921467 L 88.80000000000001 340.50781113658957 L 89.64999999999999 340.3868769642196 L 90.5 340.2655187806596 L 91.35 340.1437350992703 L 92.2 340.0215244282001 L 93.05 339.8988852703667 L 93.9 339.775816123439 L 94.75 339.6523154798182 L 95.6 339.52838182662003 L 96.44999999999999 339.40401364565565 L 97.30000000000001 339.27920941341335 L 98.15 339.15396760103965 L 99.0 339.0282866743207 L 99.85 338.90216509366377 L 100.7 338.77560131407785 L 101.55 338.648593785155 L 102.4 338.52114095105145 L 103.25 338.39324125046835 L 104.10000000000001 338.26489311663283 L 104.94999999999999 338.13609497727856 L 105.8 338.0068452546268 L 106.65 337.8771423653668 L 107.5 337.74698472063653 L 108.35 337.6163707260032 L 109.2 337.4852987814438 L 110.05000000000001 337.3537672813254 L 110.9 337.22177461438537 L 111.75 337.089319163712 L 112.60000000000001 336.9563993067242 L 113.45 336.8230134151523 L 114.29999999999998 336.7218532776387 L 115.15 336.6256406702401 L 116.0 336.52892161839924 L 116.85 336.4316934562911 L 117.69999999999999 336.33395350405834 L 118.55000000000001 336.2356990677374 L 119.4 336.13692743918403 L 120.25 336.0376358959991 L 121.1 335.937821701453 L 121.95000000000002 335.8374821044108 L 122.8 335.736614339256 L 123.64999999999999 335.63521562581434 L 124.5 335.53328316927747 L 125.35 335.4308141601255 L 126.19999999999999 335.32780577405003 L 127.04999999999998 335.22425517187577 L 127.9 335.1201594994827 L 128.75 335.0155158877273 L 129.6 334.9103214523634 L 130.45000000000002 334.80457329396273 L 131.3 334.69826849783493 L 132.15 334.5914041339473 L 133.0 334.4839772568441 L 133.85000000000002 334.37598490556525 L 134.7 334.26742410356474 L 135.54999999999998 334.15829185862844 L 136.4 334.04858516279216 L 137.25 333.93830099225795 L 138.1 333.82743630731153 L 138.95 333.715988052238 L 139.8 333.60395315523766 L 140.65 333.4913285283416 L 141.5 333.3781110673265 L 142.35 333.2642976516288 L 143.20000000000002 333.14988514425914 L 144.05 333.03487039171546 L 144.89999999999998 332.91925022389637 L 145.75 332.80302145401373 L 146.6 332.6861808785047 L 147.45 332.5687252769434 L 148.29999999999998 332.45065141195255 L 149.15 332.3319560291137 L 150.0 332.2126358568778 L 150.85 332.0926876064751 L 151.70000000000002 331.97210797182436 L 152.55 331.85089362944177 L 153.4 331.7290412383493 L 154.25 331.6065474399827 L 155.10000000000002 331.483408858099 L 155.95000000000002 331.35962209868313 L 156.8 331.23518374985474 L 157.65 331.11009038177394 L 158.5 330.98433854654695 L 159.35000000000002 330.8579247781307 L 160.20000000000002 330.7308455922378 L 161.04999999999998 330.6030974862401 L 161.89999999999998 330.47467693907237 L 162.75 330.326316630263 L 163.6 330.169684792648 L 164.45 330.0125037831112 L 165.3 329.8547716761831 L 166.14999999999998 329.69648653964356 L 167.0 329.53764643449756 L 167.85 329.3782494149518 L 168.7 329.2182935283909 L 169.55 329.05777681535324 L 170.39999999999998 328.89669730950703 L 171.25 328.73505303762636 L 172.10000000000002 328.57284201956685 L 172.95 328.41006226824146 L 173.8 328.2467117895963 L 174.65 328.08278858258586 L 175.5 327.9182906391488 L 176.35000000000002 327.75321594418335 L 177.2 327.58756247552236 L 178.05 327.42132820390884 L 178.9 327.2545110929708 L 179.75 327.0871090991966 L 180.60000000000002 326.9191201719097 L 181.45000000000002 326.7505422532437 L 182.29999999999998 326.5813732781168 L 183.14999999999998 326.41161117420717 L 184.0 326.2412538619268 L 184.85 326.07029925439645 L 185.7 325.89874525742016 L 186.55 325.7265897694592 L 187.39999999999998 325.55383068160677 L 188.25 325.3804658775619 L 189.1 325.20649323360345 L 189.95 325.03191061856444 L 190.8 324.8567158938057 L 191.64999999999998 324.6809069131896 L 192.5 324.50448152305387 L 193.35000000000002 324.32743756218537 L 194.2 324.1497728617933 L 195.05 323.971485245483 L 195.9 323.7925725292288 L 196.75 323.61303252134763 L 197.60000000000002 323.4328630224723 L 198.45 323.25206182552415 L 199.3 323.0706267156863 L 200.15 322.8885554703762 L 201.0 322.7058458592191 L 201.85000000000002 322.52249564401967 L 202.70000000000002 322.33850257873576 L 203.54999999999998 322.1538644094498 L 204.39999999999998 321.96857887434203 L 205.25 321.78264370366236 L 206.1 321.5960566197025 L 206.95 321.40881533676844 L 207.8 321.2209175611521 L 208.64999999999998 321.03236099110336 L 209.5 320.84314331680184 L 210.35 320.6532622203287 L 211.2 320.46824090334724 L 212.05 320.2864724433816 L 212.89999999999998 320.1037471896151 L 213.75 319.9200601056713 L 214.60000000000002 319.7354061286634 L 215.45 319.5497801690543 L 216.3 319.36317711051686 L 217.15 319.1755918097925 L 218.0 318.9870190965494 L 218.85000000000002 318.7974537732402 L 219.7 318.6068906149588 L 220.55 318.415324369296 L 221.4 318.222749756195 L 222.25 318.0291614678059 L 223.10000000000002 317.8345541683392 L 223.95000000000002 317.6389224939189 L 224.79999999999998 317.4422610524347 L 225.65 317.24456442339294 L 226.5 317.045827157768 L 227.35 316.8460437778512 L 228.2 316.6452087771006 L 229.05 316.4433166199888 L 229.89999999999998 316.24036174185045 L 230.75 316.03633854872874 L 231.6 315.83124141722163 L 232.45 315.6250646943264 L 233.3 315.417802697284 L 234.14999999999998 315.2094497134227" style="stroke:rgb(40%,76.1%,64.7%);stroke-opacity:1.0;stroke-width:5.0" /></g></g><g class="toyplot-mark-FillBoundaries" style="stroke:none" id="t958bdc3299d44599aee3d5194a14270d"><polygon points="65.0,435.0 65.85,435.0 66.69999999999999,435.0 67.55000000000001,435.0 68.39999999999999,435.0 69.25,435.0 70.1,435.0 70.95,435.0 71.8,435.0 72.64999999999999,435.0 73.5,435.0 74.35,435.0 75.19999999999999,435.0 76.05000000000001,435.0 76.9,435.0 77.75,435.0 78.60000000000001,435.0 79.45,435.0 80.3,435.0 81.15,435.0 82.0,435.0 82.85000000000001,435.0 83.7,435.0 84.55,435.0 85.4,435.0 86.25,435.0 87.1,435.0 87.95,435.0 88.80000000000001,435.0 89.64999999999999,435.0 90.5,435.0 91.35,435.0 92.2,435.0 93.05,435.0 93.9,435.0 94.75,435.0 95.6,435.0 96.44999999999999,435.0 97.30000000000001,435.0 98.15,435.0 99.0,435.0 99.85,435.0 100.7,435.0 101.55,435.0 102.4,435.0 103.25,435.0 104.10000000000001,435.0 104.94999999999999,435.0 105.8,435.0 106.65,435.0 107.5,435.0 108.35,435.0 109.2,435.0 110.05000000000001,435.0 110.9,435.0 111.75,435.0 112.60000000000001,435.0 113.45,435.0 114.29999999999998,435.0 115.15,435.0 116.0,435.0 116.85,435.0 117.69999999999999,435.0 118.55000000000001,435.0 119.4,435.0 120.25,435.0 121.1,435.0 121.95000000000002,435.0 122.8,435.0 123.64999999999999,435.0 124.5,435.0 125.35,435.0 126.19999999999999,435.0 127.04999999999998,435.0 127.9,435.0 128.75,435.0 129.6,435.0 130.45000000000002,435.0 131.3,435.0 132.15,435.0 133.0,435.0 133.85000000000002,435.0 134.7,435.0 135.54999999999998,435.0 136.4,435.0 137.25,435.0 138.1,435.0 138.95,435.0 139.8,435.0 140.65,435.0 141.5,435.0 142.35,435.0 143.20000000000002,435.0 144.05,435.0 144.89999999999998,435.0 145.75,435.0 146.6,435.0 147.45,435.0 148.29999999999998,435.0 149.15,435.0 150.0,435.0 150.85,435.0 151.70000000000002,435.0 152.55,435.0 153.4,435.0 154.25,435.0 155.10000000000002,435.0 155.95000000000002,435.0 156.8,435.0 157.65,435.0 158.5,435.0 159.35000000000002,435.0 160.20000000000002,435.0 161.04999999999998,435.0 161.89999999999998,435.0 162.75,435.0 163.6,435.0 164.45,435.0 165.3,435.0 166.14999999999998,435.0 167.0,435.0 167.85,435.0 168.7,435.0 169.55,435.0 170.39999999999998,435.0 171.25,435.0 172.10000000000002,435.0 172.95,435.0 173.8,435.0 174.65,435.0 175.5,435.0 176.35000000000002,435.0 177.2,435.0 178.05,435.0 178.9,435.0 179.75,435.0 180.60000000000002,435.0 181.45000000000002,435.0 182.29999999999998,435.0 183.14999999999998,435.0 184.0,435.0 184.85,435.0 185.7,435.0 186.55,435.0 187.39999999999998,435.0 188.25,435.0 189.1,435.0 189.95,435.0 190.8,435.0 191.64999999999998,435.0 192.5,435.0 193.35000000000002,435.0 194.2,435.0 195.05,435.0 195.9,435.0 196.75,435.0 197.60000000000002,435.0 198.45,435.0 199.3,435.0 200.15,435.0 201.0,435.0 201.85000000000002,435.0 202.70000000000002,435.0 203.54999999999998,435.0 204.39999999999998,435.0 205.25,435.0 206.1,435.0 206.95,435.0 207.8,435.0 208.64999999999998,435.0 209.5,435.0 210.35,435.0 211.2,435.0 212.05,435.0 212.89999999999998,435.0 213.75,435.0 214.60000000000002,435.0 215.45,435.0 216.3,435.0 217.15,435.0 218.0,435.0 218.85000000000002,435.0 219.7,435.0 220.55,435.0 221.4,435.0 222.25,435.0 223.10000000000002,435.0 223.95000000000002,435.0 224.79999999999998,435.0 225.65,435.0 226.5,435.0 227.35,435.0 228.2,435.0 229.05,435.0 229.89999999999998,435.0 230.75,435.0 231.6,435.0 232.45,435.0 233.3,435.0 234.14999999999998,435.0 234.14999999999998,315.2094497134227 233.3,315.417802697284 232.45,315.6250646943264 231.6,315.83124141722163 230.75,316.03633854872874 229.89999999999998,316.24036174185045 229.05,316.4433166199888 228.2,316.6452087771006 227.35,316.8460437778512 226.5,317.045827157768 225.65,317.24456442339294 224.79999999999998,317.4422610524347 223.95000000000002,317.6389224939189 223.10000000000002,317.8345541683392 222.25,318.0291614678059 221.4,318.222749756195 220.55,318.415324369296 219.7,318.6068906149588 218.85000000000002,318.7974537732402 218.0,318.9870190965494 217.15,319.1755918097925 216.3,319.36317711051686 215.45,319.5497801690543 214.60000000000002,319.7354061286634 213.75,319.9200601056713 212.89999999999998,320.1037471896151 212.05,320.2864724433816 211.2,320.46824090334724 210.35,320.6532622203287 209.5,320.84314331680184 208.64999999999998,321.03236099110336 207.8,321.2209175611521 206.95,321.40881533676844 206.1,321.5960566197025 205.25,321.78264370366236 204.39999999999998,321.96857887434203 203.54999999999998,322.1538644094498 202.70000000000002,322.33850257873576 201.85000000000002,322.52249564401967 201.0,322.7058458592191 200.15,322.8885554703762 199.3,323.0706267156863 198.45,323.25206182552415 197.60000000000002,323.4328630224723 196.75,323.61303252134763 195.9,323.7925725292288 195.05,323.971485245483 194.2,324.1497728617933 193.35000000000002,324.32743756218537 192.5,324.50448152305387 191.64999999999998,324.6809069131896 190.8,324.8567158938057 189.95,325.03191061856444 189.1,325.20649323360345 188.25,325.3804658775619 187.39999999999998,325.55383068160677 186.55,325.7265897694592 185.7,325.89874525742016 184.85,326.07029925439645 184.0,326.2412538619268 183.14999999999998,326.41161117420717 182.29999999999998,326.5813732781168 181.45000000000002,326.7505422532437 180.60000000000002,326.9191201719097 179.75,327.0871090991966 178.9,327.2545110929708 178.05,327.42132820390884 177.2,327.58756247552236 176.35000000000002,327.75321594418335 175.5,327.9182906391488 174.65,328.08278858258586 173.8,328.2467117895963 172.95,328.41006226824146 172.10000000000002,328.57284201956685 171.25,328.73505303762636 170.39999999999998,328.89669730950703 169.55,329.05777681535324 168.7,329.2182935283909 167.85,329.3782494149518 167.0,329.53764643449756 166.14999999999998,329.69648653964356 165.3,329.8547716761831 164.45,330.0125037831112 163.6,330.169684792648 162.75,330.326316630263 161.89999999999998,330.47467693907237 161.04999999999998,330.6030974862401 160.20000000000002,330.7308455922378 159.35000000000002,330.8579247781307 158.5,330.98433854654695 157.65,331.11009038177394 156.8,331.23518374985474 155.95000000000002,331.35962209868313 155.10000000000002,331.483408858099 154.25,331.6065474399827 153.4,331.7290412383493 152.55,331.85089362944177 151.70000000000002,331.97210797182436 150.85,332.0926876064751 150.0,332.2126358568778 149.15,332.3319560291137 148.29999999999998,332.45065141195255 147.45,332.5687252769434 146.6,332.6861808785047 145.75,332.80302145401373 144.89999999999998,332.91925022389637 144.05,333.03487039171546 143.20000000000002,333.14988514425914 142.35,333.2642976516288 141.5,333.3781110673265 140.65,333.4913285283416 139.8,333.60395315523766 138.95,333.715988052238 138.1,333.82743630731153 137.25,333.93830099225795 136.4,334.04858516279216 135.54999999999998,334.15829185862844 134.7,334.26742410356474 133.85000000000002,334.37598490556525 133.0,334.4839772568441 132.15,334.5914041339473 131.3,334.69826849783493 130.45000000000002,334.80457329396273 129.6,334.9103214523634 128.75,335.0155158877273 127.9,335.1201594994827 127.04999999999998,335.22425517187577 126.19999999999999,335.32780577405003 125.35,335.4308141601255 124.5,335.53328316927747 123.64999999999999,335.63521562581434 122.8,335.736614339256 121.95000000000002,335.8374821044108 121.1,335.937821701453 120.25,336.0376358959991 119.4,336.13692743918403 118.55000000000001,336.2356990677374 117.69999999999999,336.33395350405834 116.85,336.4316934562911 116.0,336.52892161839924 115.15,336.6256406702401 114.29999999999998,336.7218532776387 113.45,336.8230134151523 112.60000000000001,336.9563993067242 111.75,337.089319163712 110.9,337.22177461438537 110.05000000000001,337.3537672813254 109.2,337.4852987814438 108.35,337.6163707260032 107.5,337.74698472063653 106.65,337.8771423653668 105.8,338.0068452546268 104.94999999999999,338.13609497727856 104.10000000000001,338.26489311663283 103.25,338.39324125046835 102.4,338.52114095105145 101.55,338.648593785155 100.7,338.77560131407785 99.85,338.90216509366377 99.0,339.0282866743207 98.15,339.15396760103965 97.30000000000001,339.27920941341335 96.44999999999999,339.40401364565565 95.6,339.52838182662003 94.75,339.6523154798182 93.9,339.775816123439 93.05,339.8988852703667 92.2,340.0215244282001 91.35,340.1437350992703 90.5,340.2655187806596 89.64999999999999,340.3868769642196 88.80000000000001,340.50781113658957 87.95,340.62832277921467 87.1,340.74841336836397 86.25,340.86808437514867 85.4,340.9873372655402 84.55,341.10617350038785 83.7,341.22459453543706 82.85000000000001,341.34260182134693 82.0,341.4601968037082 81.15,341.57738092306096 80.3,341.694155614912 79.45,341.81052230975286 78.60000000000001,341.926482433077 77.75,342.0420374053973 76.9,342.1571886422637 76.05000000000001,342.27193755428027 75.19999999999999,342.3862855471226 74.35,342.500234021555 73.5,342.61378437344786 72.64999999999999,342.7269379937942 71.8,342.8396962687274 70.95,342.9520605795377 70.1,343.0640323026894 69.25,343.1756128098374 68.39999999999999,343.2868034678443 67.55000000000001,343.3976056387972 66.69999999999999,343.50802068002395 65.85,343.6180499441101 65.0,343.7276947789158" style="fill:rgb(40%,76.1%,64.7%);fill-opacity:1.0;opacity:0.33;stroke:none" /></g><g class="toyplot-mark-Plot" style="fill:none;stroke:rgb(0%,0%,0%);stroke-dasharray:4,2;stroke-opacity:1.0;stroke-width:2" id="t24434fdf06f5416f8fca220daa9f6bda"><g class="toyplot-Series"><path d="M 65.0 435.0 L 65.0 343.7276947789158" style="stroke:rgb(0%,0%,0%);stroke-dasharray:4,2;stroke-opacity:1.0;stroke-width:2" /></g></g><g class="toyplot-mark-Plot" style="fill:none;stroke:rgb(0%,0%,0%);stroke-dasharray:4,2;stroke-opacity:1.0;stroke-width:2" id="te85f2e7f688446f191f25c87cf08e5fb"><g class="toyplot-Series"><path d="M 113.57142857142857 435.0 L 113.57142857142857 336.8039201489411" style="stroke:rgb(0%,0%,0%);stroke-dasharray:4,2;stroke-opacity:1.0;stroke-width:2" /></g></g><g class="toyplot-mark-Plot" style="fill:none;stroke:rgb(0%,0%,0%);stroke-dasharray:4,2;stroke-opacity:1.0;stroke-width:2" id="tc75bc279953b44b0b917911ca865bd85"><g class="toyplot-Series"><path d="M 162.14285714285714 435.0 L 162.14285714285714 330.43786134969184" style="stroke:rgb(0%,0%,0%);stroke-dasharray:4,2;stroke-opacity:1.0;stroke-width:2" /></g></g><g class="toyplot-mark-Plot" style="fill:none;stroke:rgb(0%,0%,0%);stroke-dasharray:4,2;stroke-opacity:1.0;stroke-width:2" id="t708d3bf3a4294914947ed75190a11df5"><g class="toyplot-Series"><path d="M 210.7142857142857 435.0 L 210.7142857142857 320.5716809429977" style="stroke:rgb(0%,0%,0%);stroke-dasharray:4,2;stroke-opacity:1.0;stroke-width:2" /></g></g><g class="toyplot-mark-Plot" style="fill:none;stroke:rgb(0%,0%,0%);stroke-dasharray:4,2;stroke-opacity:1.0;stroke-width:2" id="t341f096c59b34733a31d391af121ae4a"><g class="toyplot-Series"><path d="M 235.0 435.0 L 235.0 315.0" style="stroke:rgb(0%,0%,0%);stroke-dasharray:4,2;stroke-opacity:1.0;stroke-width:2" /></g></g></g><g class="toyplot-coordinates-Axis" id="ta2ebe7d72185468fa446decc4f7b69a6" transform="translate(65.0,435.0)translate(0,10.0)"><line x1="0" y1="0" x2="170.0" y2="0" style="stroke-width:1.5" /><g><line x1="0.0" y1="7.5" x2="0.0" y2="0" style="stroke-width:1.5" /><line x1="48.57142857142857" y1="7.5" x2="48.57142857142857" y2="0" style="stroke-width:1.5" /><line x1="97.14285714285714" y1="7.5" x2="97.14285714285714" y2="0" style="stroke-width:1.5" /><line x1="145.7142857142857" y1="7.5" x2="145.7142857142857" y2="0" style="stroke-width:1.5" /><line x1="170.0" y1="7.5" x2="170.0" y2="0" style="stroke-width:1.5" /></g><g><g transform="translate(0.0,15.0)"><text x="-16.68" y="8.555" style="fill:rgb(16.1%,15.3%,14.1%);fill-opacity:1.0;font-family:helvetica;font-size:10.0px;font-weight:normal;stroke:none;vertical-align:baseline;white-space:pre">100000</text></g><g transform="translate(48.57142857142857,15.0)"><text x="-16.68" y="8.555" style="fill:rgb(16.1%,15.3%,14.1%);fill-opacity:1.0;font-family:helvetica;font-size:10.0px;font-weight:normal;stroke:none;vertical-align:baseline;white-space:pre">200000</text></g><g transform="translate(97.14285714285714,15.0)"><text x="-16.68" y="8.555" style="fill:rgb(16.1%,15.3%,14.1%);fill-opacity:1.0;font-family:helvetica;font-size:10.0px;font-weight:normal;stroke:none;vertical-align:baseline;white-space:pre">300000</text></g><g transform="translate(145.7142857142857,15.0)"><text x="-16.68" y="8.555" style="fill:rgb(16.1%,15.3%,14.1%);fill-opacity:1.0;font-family:helvetica;font-size:10.0px;font-weight:normal;stroke:none;vertical-align:baseline;white-space:pre">400000</text></g><g transform="translate(170.0,15.0)"><text x="-16.68" y="8.555" style="fill:rgb(16.1%,15.3%,14.1%);fill-opacity:1.0;font-family:helvetica;font-size:10.0px;font-weight:normal;stroke:none;vertical-align:baseline;white-space:pre">450000</text></g></g><g transform="translate(85.0,35.0)"><text x="-100.02000000000002" y="10.265999999999998" style="fill:rgb(16.1%,15.3%,14.1%);fill-opacity:1.0;font-family:helvetica;font-size:12.0px;font-weight:bold;stroke:none;vertical-align:baseline;white-space:pre">Time of recombination on branch 7</text></g><g class="toyplot-coordinates-Axis-coordinates" style="visibility:hidden" transform=""><line x1="0" x2="0" y1="-7.5" y2="11.25" style="stroke:rgb(43.9%,50.2%,56.5%);stroke-opacity:1.0;stroke-width:1.0" /><text x="0" y="-15.0" style="alignment-baseline:alphabetic;fill:rgb(43.9%,50.2%,56.5%);fill-opacity:1.0;font-size:10px;font-weight:normal;stroke:none;text-anchor:middle" /></g></g><g class="toyplot-coordinates-Axis" id="tcdfd0a2f804a4f35af752a6f122d7a93" transform="translate(65.0,435.0)rotate(-90.0)translate(0,-10.0)"><line x1="0" y1="0" x2="120.0" y2="0" style="stroke-width:1.5" /><g><line x1="0.0" y1="-7.5" x2="0.0" y2="0" style="stroke-width:1.5" /><line x1="60.0" y1="-7.5" x2="60.0" y2="0" style="stroke-width:1.5" /><line x1="120.0" y1="-7.5" x2="120.0" y2="0" style="stroke-width:1.5" /></g><g><g transform="translate(0.0,-15.0)"><text x="-6.95" y="-4.440892098500626e-16" style="fill:rgb(16.1%,15.3%,14.1%);fill-opacity:1.0;font-family:helvetica;font-size:10.0px;font-weight:normal;stroke:none;vertical-align:baseline;white-space:pre">0.0</text></g><g transform="translate(60.0,-15.0)"><text x="-6.95" y="-4.440892098500626e-16" style="fill:rgb(16.1%,15.3%,14.1%);fill-opacity:1.0;font-family:helvetica;font-size:10.0px;font-weight:normal;stroke:none;vertical-align:baseline;white-space:pre">0.5</text></g><g transform="translate(120.0,-15.0)"><text x="-6.95" y="-4.440892098500626e-16" style="fill:rgb(16.1%,15.3%,14.1%);fill-opacity:1.0;font-family:helvetica;font-size:10.0px;font-weight:normal;stroke:none;vertical-align:baseline;white-space:pre">1.0</text></g></g><g transform="translate(60.0,-35.0)"><text x="-31.008" y="0.0" style="fill:rgb(16.1%,15.3%,14.1%);fill-opacity:1.0;font-family:helvetica;font-size:12.0px;font-weight:bold;stroke:none;vertical-align:baseline;white-space:pre">Probability</text></g><g class="toyplot-coordinates-Axis-coordinates" style="visibility:hidden" transform=""><line x1="0" x2="0" y1="7.5" y2="-11.25" style="stroke:rgb(43.9%,50.2%,56.5%);stroke-opacity:1.0;stroke-width:1.0" /><text x="0" y="15.0" style="alignment-baseline:hanging;fill:rgb(43.9%,50.2%,56.5%);fill-opacity:1.0;font-size:10px;font-weight:normal;stroke:none;text-anchor:middle" /></g></g><g transform="translate(150.0,295.0)"><text x="-60.284" y="-4.823" style="fill:rgb(16.1%,15.3%,14.1%);fill-opacity:1.0;font-family:helvetica;font-size:14.0px;font-weight:bold;stroke:none;vertical-align:baseline;white-space:pre">Prob(tree-change)</text></g></g><g class="toyplot-coordinates-Cartesian" id="t842f01ef55ef4e779d0a7ca37ba172b6"><clipPath id="t5aff40eae235464180f2ce9ce6b2f01d"><rect x="55.0" y="555.0" width="190.0" height="140.0" /></clipPath><g clip-path="url(#t5aff40eae235464180f2ce9ce6b2f01d)"><g class="toyplot-mark-Plot" style="fill:none" id="t311b674219f241fe8d307d986e8de29a"><g class="toyplot-Series"><path d="M 65.0 615.74023631824 L 65.85 615.7077703630746 L 66.69999999999999 615.67519057798 L 67.55000000000001 615.6424965638533 L 68.39999999999999 615.6096879201925 L 69.25 615.5767642450915 L 70.1 615.5437251352344 L 70.95 615.510570185892 L 71.8 615.4772989909158 L 72.64999999999999 615.443911142733 L 73.5 615.4104062323423 L 74.35 615.3767838493081 L 75.19999999999999 615.3430435817556 L 76.05000000000001 615.3091850163662 L 76.9 615.2752077383723 L 77.75 615.2411113315513 L 78.60000000000001 615.2068953782223 L 79.45 615.172559459239 L 80.3 615.1381031539863 L 81.15 615.1035260403739 L 82.0 615.0688276948317 L 82.85000000000001 615.0340076923046 L 83.7 614.9990656062471 L 84.55 614.9640010086182 L 85.4 614.9288134698761 L 86.25 614.8935025589733 L 87.1 614.8580678433502 L 87.95 614.8225088889315 L 88.80000000000001 614.7868252601194 L 89.64999999999999 614.7510165197889 L 90.5 614.7150822292828 L 91.35 614.6790219484052 L 92.2 614.6428352354176 L 93.05 614.606521647032 L 93.9 614.5700807384065 L 94.75 614.5335120631398 L 95.6 614.4968151732648 L 96.44999999999999 614.4599896192444 L 97.30000000000001 614.4230349499651 L 98.15 614.3859507127318 L 99.0 614.3487364532617 L 99.85 614.3113917156801 L 100.7 614.2739160425133 L 101.55 614.236308974684 L 102.4 614.1985700515049 L 103.25 614.1606988106739 L 104.10000000000001 614.122694788268 L 104.94999999999999 614.084557518737 L 105.8 614.0462865348991 L 106.65 614.0078813679344 L 107.5 613.9693415473789 L 108.35 613.9306666011194 L 109.2 613.8918560553873 L 110.05000000000001 613.8529094347531 L 110.9 613.8138262621201 L 111.75 613.7746060587187 L 112.60000000000001 613.7352483441014 L 113.45 613.6957526361354 L 114.29999999999998 613.7292926645162 L 115.15 613.7752419623721 L 116.0 613.82143312839 L 116.85 613.867867435717 L 117.69999999999999 613.9145461642016 L 118.55000000000001 613.9614706004293 L 119.4 614.0086420377577 L 120.25 614.0560617763525 L 121.1 614.1037311232235 L 121.95000000000002 614.1516513922597 L 122.8 614.1998239042671 L 123.64999999999999 614.248249987003 L 124.5 614.2969309752147 L 125.35 614.345868210675 L 126.19999999999999 614.3950630422195 L 127.04999999999998 614.4445168257839 L 127.9 614.4942309244412 L 128.75 614.5442067084394 L 129.6 614.5944455552393 L 130.45000000000002 614.6449488495522 L 131.3 614.6957179833782 L 132.15 614.7467543560451 L 133.0 614.7980593742461 L 133.85000000000002 614.8496344520787 L 134.7 614.9014810110846 L 135.54999999999998 614.9536004802875 L 136.4 615.0059942962339 L 137.25 615.0586639030315 L 138.1 615.1116107523898 L 138.95 615.1648363036595 L 139.8 615.2183420238734 L 140.65 615.2721293877862 L 141.5 615.3261998779155 L 142.35 615.3805549845828 L 143.20000000000002 615.435196205954 L 144.05 615.4901250480812 L 144.89999999999998 615.545343024944 L 145.75 615.6008516584918 L 146.6 615.6566524786845 L 147.45 615.7127470235357 L 148.29999999999998 615.769136839155 L 149.15 615.8258234797901 L 150.0 615.8828085078703 L 150.85 615.9400934940489 L 151.70000000000002 615.9976800172471 L 152.55 616.055569664697 L 153.4 616.1137640319857 L 154.25 616.172264723099 L 155.10000000000002 616.2310733504661 L 155.95000000000002 616.2901915350035 L 156.8 616.3496209061598 L 157.65 616.4093631019607 L 158.5 616.4694197690546 L 159.35000000000002 616.5297925627569 L 160.20000000000002 616.5904831470966 L 161.04999999999998 616.6514931948618 L 161.89999999999998 616.7128243876459 L 162.75 616.5595193043898 L 163.6 616.3195579345185 L 164.45 616.078755228373 L 165.3 615.837108236117 L 166.14999999999998 615.5946139975722 L 167.0 615.3512695421807 L 167.85 615.1070718889703 L 168.7 614.8620180465166 L 169.55 614.6161050129067 L 170.39999999999998 614.3693297757031 L 171.25 614.121689311906 L 172.10000000000002 613.8731805879166 L 172.95 613.6238005595001 L 173.8 613.3735461717476 L 174.65 613.1224143590402 L 175.5 612.8704020450098 L 176.35000000000002 612.6175061425024 L 177.2 612.3637235535402 L 178.05 612.1090511692832 L 178.9 611.8534858699913 L 179.75 611.5970245249869 L 180.60000000000002 611.3396639926148 L 181.45000000000002 611.0814011202056 L 182.29999999999998 610.8222327440355 L 183.14999999999998 610.5621556892893 L 184.0 610.3011667700191 L 184.85 610.0392627891079 L 185.7 609.7764405382284 L 186.55 609.5126967978048 L 187.39999999999998 609.248028336973 L 188.25 608.982431913541 L 189.1 608.7159042739494 L 189.95 608.4484421532311 L 190.8 608.1800422749719 L 191.64999999999998 607.9107013512701 L 192.5 607.6404160826957 L 193.35000000000002 607.3691831582508 L 194.2 607.0969992553289 L 195.05 606.8238610396737 L 195.9 606.5497651653386 L 196.75 606.2747082746458 L 197.60000000000002 605.9986869981449 L 198.45 605.7216979545717 L 199.3 605.443737750807 L 200.15 605.164802981835 L 201.0 604.8848902307012 L 201.85000000000002 604.6039960684708 L 202.70000000000002 604.322117054187 L 203.54999999999998 604.039249734828 L 204.39999999999998 603.755390645266 L 205.25 603.4705363082232 L 206.1 603.1846832342309 L 206.95 602.897827921585 L 207.8 602.6099668563044 L 208.64999999999998 602.3210965120875 L 209.5 602.0312133502689 L 210.35 601.7403138197764 L 211.2 601.4849811418476 L 212.05 601.2559265506499 L 212.89999999999998 601.0256662606585 L 213.75 600.7941939253094 L 214.60000000000002 600.5615031646317 L 215.45 600.3275875650719 L 216.3 600.0924406793162 L 217.15 599.8560560261137 L 218.0 599.6184270900975 L 218.85000000000002 599.379547321605 L 219.7 599.1394101364973 L 220.55 598.8980089159782 L 221.4 598.6553370064113 L 222.25 598.4113877191365 L 223.10000000000002 598.1661543302865 L 223.95000000000002 597.9196300806002 L 224.79999999999998 597.6718081752374 L 225.65 597.4226817835913 L 226.5 597.1722440390998 L 227.35 596.9204880390567 L 228.2 596.6674068444215 L 229.05 596.4129934796275 L 229.89999999999998 596.1572409323904 L 230.75 595.9001421535144 L 231.6 595.6416900566982 L 232.45 595.3818775183393 L 233.3 595.1206973773383 L 234.14999999999998 594.858142434901" style="stroke:rgb(40%,76.1%,64.7%);stroke-opacity:1.0;stroke-width:5.0" /></g></g><g class="toyplot-mark-FillBoundaries" style="stroke:none" id="tabd59cd51e544edca82b55fbd9177cb0"><polygon points="65.0,685.0 65.85,685.0 66.69999999999999,685.0 67.55000000000001,685.0 68.39999999999999,685.0 69.25,685.0 70.1,685.0 70.95,685.0 71.8,685.0 72.64999999999999,685.0 73.5,685.0 74.35,685.0 75.19999999999999,685.0 76.05000000000001,685.0 76.9,685.0 77.75,685.0 78.60000000000001,685.0 79.45,685.0 80.3,685.0 81.15,685.0 82.0,685.0 82.85000000000001,685.0 83.7,685.0 84.55,685.0 85.4,685.0 86.25,685.0 87.1,685.0 87.95,685.0 88.80000000000001,685.0 89.64999999999999,685.0 90.5,685.0 91.35,685.0 92.2,685.0 93.05,685.0 93.9,685.0 94.75,685.0 95.6,685.0 96.44999999999999,685.0 97.30000000000001,685.0 98.15,685.0 99.0,685.0 99.85,685.0 100.7,685.0 101.55,685.0 102.4,685.0 103.25,685.0 104.10000000000001,685.0 104.94999999999999,685.0 105.8,685.0 106.65,685.0 107.5,685.0 108.35,685.0 109.2,685.0 110.05000000000001,685.0 110.9,685.0 111.75,685.0 112.60000000000001,685.0 113.45,685.0 114.29999999999998,685.0 115.15,685.0 116.0,685.0 116.85,685.0 117.69999999999999,685.0 118.55000000000001,685.0 119.4,685.0 120.25,685.0 121.1,685.0 121.95000000000002,685.0 122.8,685.0 123.64999999999999,685.0 124.5,685.0 125.35,685.0 126.19999999999999,685.0 127.04999999999998,685.0 127.9,685.0 128.75,685.0 129.6,685.0 130.45000000000002,685.0 131.3,685.0 132.15,685.0 133.0,685.0 133.85000000000002,685.0 134.7,685.0 135.54999999999998,685.0 136.4,685.0 137.25,685.0 138.1,685.0 138.95,685.0 139.8,685.0 140.65,685.0 141.5,685.0 142.35,685.0 143.20000000000002,685.0 144.05,685.0 144.89999999999998,685.0 145.75,685.0 146.6,685.0 147.45,685.0 148.29999999999998,685.0 149.15,685.0 150.0,685.0 150.85,685.0 151.70000000000002,685.0 152.55,685.0 153.4,685.0 154.25,685.0 155.10000000000002,685.0 155.95000000000002,685.0 156.8,685.0 157.65,685.0 158.5,685.0 159.35000000000002,685.0 160.20000000000002,685.0 161.04999999999998,685.0 161.89999999999998,685.0 162.75,685.0 163.6,685.0 164.45,685.0 165.3,685.0 166.14999999999998,685.0 167.0,685.0 167.85,685.0 168.7,685.0 169.55,685.0 170.39999999999998,685.0 171.25,685.0 172.10000000000002,685.0 172.95,685.0 173.8,685.0 174.65,685.0 175.5,685.0 176.35000000000002,685.0 177.2,685.0 178.05,685.0 178.9,685.0 179.75,685.0 180.60000000000002,685.0 181.45000000000002,685.0 182.29999999999998,685.0 183.14999999999998,685.0 184.0,685.0 184.85,685.0 185.7,685.0 186.55,685.0 187.39999999999998,685.0 188.25,685.0 189.1,685.0 189.95,685.0 190.8,685.0 191.64999999999998,685.0 192.5,685.0 193.35000000000002,685.0 194.2,685.0 195.05,685.0 195.9,685.0 196.75,685.0 197.60000000000002,685.0 198.45,685.0 199.3,685.0 200.15,685.0 201.0,685.0 201.85000000000002,685.0 202.70000000000002,685.0 203.54999999999998,685.0 204.39999999999998,685.0 205.25,685.0 206.1,685.0 206.95,685.0 207.8,685.0 208.64999999999998,685.0 209.5,685.0 210.35,685.0 211.2,685.0 212.05,685.0 212.89999999999998,685.0 213.75,685.0 214.60000000000002,685.0 215.45,685.0 216.3,685.0 217.15,685.0 218.0,685.0 218.85000000000002,685.0 219.7,685.0 220.55,685.0 221.4,685.0 222.25,685.0 223.10000000000002,685.0 223.95000000000002,685.0 224.79999999999998,685.0 225.65,685.0 226.5,685.0 227.35,685.0 228.2,685.0 229.05,685.0 229.89999999999998,685.0 230.75,685.0 231.6,685.0 232.45,685.0 233.3,685.0 234.14999999999998,685.0 234.14999999999998,594.858142434901 233.3,595.1206973773383 232.45,595.3818775183393 231.6,595.6416900566982 230.75,595.9001421535144 229.89999999999998,596.1572409323904 229.05,596.4129934796275 228.2,596.6674068444215 227.35,596.9204880390567 226.5,597.1722440390998 225.65,597.4226817835913 224.79999999999998,597.6718081752374 223.95000000000002,597.9196300806002 223.10000000000002,598.1661543302865 222.25,598.4113877191365 221.4,598.6553370064113 220.55,598.8980089159782 219.7,599.1394101364973 218.85000000000002,599.379547321605 218.0,599.6184270900975 217.15,599.8560560261137 216.3,600.0924406793162 215.45,600.3275875650719 214.60000000000002,600.5615031646317 213.75,600.7941939253094 212.89999999999998,601.0256662606585 212.05,601.2559265506499 211.2,601.4849811418476 210.35,601.7403138197764 209.5,602.0312133502689 208.64999999999998,602.3210965120875 207.8,602.6099668563044 206.95,602.897827921585 206.1,603.1846832342309 205.25,603.4705363082232 204.39999999999998,603.755390645266 203.54999999999998,604.039249734828 202.70000000000002,604.322117054187 201.85000000000002,604.6039960684708 201.0,604.8848902307012 200.15,605.164802981835 199.3,605.443737750807 198.45,605.7216979545717 197.60000000000002,605.9986869981449 196.75,606.2747082746458 195.9,606.5497651653386 195.05,606.8238610396737 194.2,607.0969992553289 193.35000000000002,607.3691831582508 192.5,607.6404160826957 191.64999999999998,607.9107013512701 190.8,608.1800422749719 189.95,608.4484421532311 189.1,608.7159042739494 188.25,608.982431913541 187.39999999999998,609.248028336973 186.55,609.5126967978048 185.7,609.7764405382284 184.85,610.0392627891079 184.0,610.3011667700191 183.14999999999998,610.5621556892893 182.29999999999998,610.8222327440355 181.45000000000002,611.0814011202056 180.60000000000002,611.3396639926148 179.75,611.5970245249869 178.9,611.8534858699913 178.05,612.1090511692832 177.2,612.3637235535402 176.35000000000002,612.6175061425024 175.5,612.8704020450098 174.65,613.1224143590402 173.8,613.3735461717476 172.95,613.6238005595001 172.10000000000002,613.8731805879166 171.25,614.121689311906 170.39999999999998,614.3693297757031 169.55,614.6161050129067 168.7,614.8620180465166 167.85,615.1070718889703 167.0,615.3512695421807 166.14999999999998,615.5946139975722 165.3,615.837108236117 164.45,616.078755228373 163.6,616.3195579345185 162.75,616.5595193043898 161.89999999999998,616.7128243876459 161.04999999999998,616.6514931948618 160.20000000000002,616.5904831470966 159.35000000000002,616.5297925627569 158.5,616.4694197690546 157.65,616.4093631019607 156.8,616.3496209061598 155.95000000000002,616.2901915350035 155.10000000000002,616.2310733504661 154.25,616.172264723099 153.4,616.1137640319857 152.55,616.055569664697 151.70000000000002,615.9976800172471 150.85,615.9400934940489 150.0,615.8828085078703 149.15,615.8258234797901 148.29999999999998,615.769136839155 147.45,615.7127470235357 146.6,615.6566524786845 145.75,615.6008516584918 144.89999999999998,615.545343024944 144.05,615.4901250480812 143.20000000000002,615.435196205954 142.35,615.3805549845828 141.5,615.3261998779155 140.65,615.2721293877862 139.8,615.2183420238734 138.95,615.1648363036595 138.1,615.1116107523898 137.25,615.0586639030315 136.4,615.0059942962339 135.54999999999998,614.9536004802875 134.7,614.9014810110846 133.85000000000002,614.8496344520787 133.0,614.7980593742461 132.15,614.7467543560451 131.3,614.6957179833782 130.45000000000002,614.6449488495522 129.6,614.5944455552393 128.75,614.5442067084394 127.9,614.4942309244412 127.04999999999998,614.4445168257839 126.19999999999999,614.3950630422195 125.35,614.345868210675 124.5,614.2969309752147 123.64999999999999,614.248249987003 122.8,614.1998239042671 121.95000000000002,614.1516513922597 121.1,614.1037311232235 120.25,614.0560617763525 119.4,614.0086420377577 118.55000000000001,613.9614706004293 117.69999999999999,613.9145461642016 116.85,613.867867435717 116.0,613.82143312839 115.15,613.7752419623721 114.29999999999998,613.7292926645162 113.45,613.6957526361354 112.60000000000001,613.7352483441014 111.75,613.7746060587187 110.9,613.8138262621201 110.05000000000001,613.8529094347531 109.2,613.8918560553873 108.35,613.9306666011194 107.5,613.9693415473789 106.65,614.0078813679344 105.8,614.0462865348991 104.94999999999999,614.084557518737 104.10000000000001,614.122694788268 103.25,614.1606988106739 102.4,614.1985700515049 101.55,614.236308974684 100.7,614.2739160425133 99.85,614.3113917156801 99.0,614.3487364532617 98.15,614.3859507127318 97.30000000000001,614.4230349499651 96.44999999999999,614.4599896192444 95.6,614.4968151732648 94.75,614.5335120631398 93.9,614.5700807384065 93.05,614.606521647032 92.2,614.6428352354176 91.35,614.6790219484052 90.5,614.7150822292828 89.64999999999999,614.7510165197889 88.80000000000001,614.7868252601194 87.95,614.8225088889315 87.1,614.8580678433502 86.25,614.8935025589733 85.4,614.9288134698761 84.55,614.9640010086182 83.7,614.9990656062471 82.85000000000001,615.0340076923046 82.0,615.0688276948317 81.15,615.1035260403739 80.3,615.1381031539863 79.45,615.172559459239 78.60000000000001,615.2068953782223 77.75,615.2411113315513 76.9,615.2752077383723 76.05000000000001,615.3091850163662 75.19999999999999,615.3430435817556 74.35,615.3767838493081 73.5,615.4104062323423 72.64999999999999,615.443911142733 71.8,615.4772989909158 70.95,615.510570185892 70.1,615.5437251352344 69.25,615.5767642450915 68.39999999999999,615.6096879201925 67.55000000000001,615.6424965638533 66.69999999999999,615.67519057798 65.85,615.7077703630746 65.0,615.74023631824" style="fill:rgb(40%,76.1%,64.7%);fill-opacity:1.0;opacity:0.33;stroke:none" /></g><g class="toyplot-mark-Plot" style="fill:none;stroke:rgb(0%,0%,0%);stroke-dasharray:4,2;stroke-opacity:1.0;stroke-width:2" id="t3084aecf37f44755a1e7b4f29f11aa49"><g class="toyplot-Series"><path d="M 65.0 685.0 L 65.0 615.74023631824" style="stroke:rgb(0%,0%,0%);stroke-dasharray:4,2;stroke-opacity:1.0;stroke-width:2" /></g></g><g class="toyplot-mark-Plot" style="fill:none;stroke:rgb(0%,0%,0%);stroke-dasharray:4,2;stroke-opacity:1.0;stroke-width:2" id="t2574daf425e94f0d8bce77507cdcf581"><g class="toyplot-Series"><path d="M 113.57142857142857 685.0 L 113.57142857142857 613.6900990991869" style="stroke:rgb(0%,0%,0%);stroke-dasharray:4,2;stroke-opacity:1.0;stroke-width:2" /></g></g><g class="toyplot-mark-Plot" style="fill:none;stroke:rgb(0%,0%,0%);stroke-dasharray:4,2;stroke-opacity:1.0;stroke-width:2" id="t0d4dca8f9cfd4c7c870899d9422f1a5f"><g class="toyplot-Series"><path d="M 162.14285714285714 685.0 L 162.14285714285714 616.7304068077458" style="stroke:rgb(0%,0%,0%);stroke-dasharray:4,2;stroke-opacity:1.0;stroke-width:2" /></g></g><g class="toyplot-mark-Plot" style="fill:none;stroke:rgb(0%,0%,0%);stroke-dasharray:4,2;stroke-opacity:1.0;stroke-width:2" id="t739c87591efc4cc9aa0f0fbcb515a28e"><g class="toyplot-Series"><path d="M 210.7142857142857 685.0 L 210.7142857142857 601.615330576508" style="stroke:rgb(0%,0%,0%);stroke-dasharray:4,2;stroke-opacity:1.0;stroke-width:2" /></g></g><g class="toyplot-mark-Plot" style="fill:none;stroke:rgb(0%,0%,0%);stroke-dasharray:4,2;stroke-opacity:1.0;stroke-width:2" id="t9ba5491e572e40aea2a35f08c18e354b"><g class="toyplot-Series"><path d="M 235.0 685.0 L 235.0 594.5942054543402" style="stroke:rgb(0%,0%,0%);stroke-dasharray:4,2;stroke-opacity:1.0;stroke-width:2" /></g></g></g><g class="toyplot-coordinates-Axis" id="tdcf39748b4a34512b1145a2abed3b51d" transform="translate(65.0,685.0)translate(0,10.0)"><line x1="0" y1="0" x2="170.0" y2="0" style="stroke-width:1.5" /><g><line x1="0.0" y1="7.5" x2="0.0" y2="0" style="stroke-width:1.5" /><line x1="48.57142857142857" y1="7.5" x2="48.57142857142857" y2="0" style="stroke-width:1.5" /><line x1="97.14285714285714" y1="7.5" x2="97.14285714285714" y2="0" style="stroke-width:1.5" /><line x1="145.7142857142857" y1="7.5" x2="145.7142857142857" y2="0" style="stroke-width:1.5" /><line x1="170.0" y1="7.5" x2="170.0" y2="0" style="stroke-width:1.5" /></g><g><g transform="translate(0.0,15.0)"><text x="-16.68" y="8.555" style="fill:rgb(16.1%,15.3%,14.1%);fill-opacity:1.0;font-family:helvetica;font-size:10.0px;font-weight:normal;stroke:none;vertical-align:baseline;white-space:pre">100000</text></g><g transform="translate(48.57142857142857,15.0)"><text x="-16.68" y="8.555" style="fill:rgb(16.1%,15.3%,14.1%);fill-opacity:1.0;font-family:helvetica;font-size:10.0px;font-weight:normal;stroke:none;vertical-align:baseline;white-space:pre">200000</text></g><g transform="translate(97.14285714285714,15.0)"><text x="-16.68" y="8.555" style="fill:rgb(16.1%,15.3%,14.1%);fill-opacity:1.0;font-family:helvetica;font-size:10.0px;font-weight:normal;stroke:none;vertical-align:baseline;white-space:pre">300000</text></g><g transform="translate(145.7142857142857,15.0)"><text x="-16.68" y="8.555" style="fill:rgb(16.1%,15.3%,14.1%);fill-opacity:1.0;font-family:helvetica;font-size:10.0px;font-weight:normal;stroke:none;vertical-align:baseline;white-space:pre">400000</text></g><g transform="translate(170.0,15.0)"><text x="-16.68" y="8.555" style="fill:rgb(16.1%,15.3%,14.1%);fill-opacity:1.0;font-family:helvetica;font-size:10.0px;font-weight:normal;stroke:none;vertical-align:baseline;white-space:pre">450000</text></g></g><g transform="translate(85.0,35.0)"><text x="-100.02000000000002" y="10.265999999999998" style="fill:rgb(16.1%,15.3%,14.1%);fill-opacity:1.0;font-family:helvetica;font-size:12.0px;font-weight:bold;stroke:none;vertical-align:baseline;white-space:pre">Time of recombination on branch 7</text></g><g class="toyplot-coordinates-Axis-coordinates" style="visibility:hidden" transform=""><line x1="0" x2="0" y1="-7.5" y2="11.25" style="stroke:rgb(43.9%,50.2%,56.5%);stroke-opacity:1.0;stroke-width:1.0" /><text x="0" y="-15.0" style="alignment-baseline:alphabetic;fill:rgb(43.9%,50.2%,56.5%);fill-opacity:1.0;font-size:10px;font-weight:normal;stroke:none;text-anchor:middle" /></g></g><g class="toyplot-coordinates-Axis" id="tcb13a66653f6455f9499584fb4f8b9a0" transform="translate(65.0,685.0)rotate(-90.0)translate(0,-10.0)"><line x1="0" y1="0" x2="120.0" y2="0" style="stroke-width:1.5" /><g><line x1="0.0" y1="-7.5" x2="0.0" y2="0" style="stroke-width:1.5" /><line x1="60.0" y1="-7.5" x2="60.0" y2="0" style="stroke-width:1.5" /><line x1="120.0" y1="-7.5" x2="120.0" y2="0" style="stroke-width:1.5" /></g><g><g transform="translate(0.0,-15.0)"><text x="-6.95" y="-4.440892098500626e-16" style="fill:rgb(16.1%,15.3%,14.1%);fill-opacity:1.0;font-family:helvetica;font-size:10.0px;font-weight:normal;stroke:none;vertical-align:baseline;white-space:pre">0.0</text></g><g transform="translate(60.0,-15.0)"><text x="-6.95" y="-4.440892098500626e-16" style="fill:rgb(16.1%,15.3%,14.1%);fill-opacity:1.0;font-family:helvetica;font-size:10.0px;font-weight:normal;stroke:none;vertical-align:baseline;white-space:pre">0.5</text></g><g transform="translate(120.0,-15.0)"><text x="-6.95" y="-4.440892098500626e-16" style="fill:rgb(16.1%,15.3%,14.1%);fill-opacity:1.0;font-family:helvetica;font-size:10.0px;font-weight:normal;stroke:none;vertical-align:baseline;white-space:pre">1.0</text></g></g><g transform="translate(60.0,-35.0)"><text x="-31.008" y="0.0" style="fill:rgb(16.1%,15.3%,14.1%);fill-opacity:1.0;font-family:helvetica;font-size:12.0px;font-weight:bold;stroke:none;vertical-align:baseline;white-space:pre">Probability</text></g><g class="toyplot-coordinates-Axis-coordinates" style="visibility:hidden" transform=""><line x1="0" x2="0" y1="7.5" y2="-11.25" style="stroke:rgb(43.9%,50.2%,56.5%);stroke-opacity:1.0;stroke-width:1.0" /><text x="0" y="15.0" style="alignment-baseline:hanging;fill:rgb(43.9%,50.2%,56.5%);fill-opacity:1.0;font-size:10px;font-weight:normal;stroke:none;text-anchor:middle" /></g></g><g transform="translate(150.0,545.0)"><text x="-62.608000000000004" y="-4.823" style="fill:rgb(16.1%,15.3%,14.1%);fill-opacity:1.0;font-family:helvetica;font-size:14.0px;font-weight:bold;stroke:none;vertical-align:baseline;white-space:pre">Prob(topo-change)</text></g></g></svg>