<svg class="toyplot-canvas-Canvas" xmlns:toyplot="http://www.sandia.gov/toyplot" xmlns:xlink="http://www.w3.org/1999/xlink" xmlns="http://www.w3.org/2000/svg" width="300.0px" height="750.0px" viewBox="0 0 300.0 750.0" preserveAspectRatio="xMidYMid meet" style="background-color:transparent;border-color:#292724;border-style:none;border-width:1.0;fill:rgb(16.1%,15.3%,14.1%);fill-opacity:1.0;font-family:Helvetica;font-size:12px;opacity:1.0;stroke:rgb(16.1%,15.3%,14.1%);stroke-opacity:1.0;stroke-width:1.0" id="t46a86af457ed4302906111dfa830dc05"><g class="toyplot-coordinates-Cartesian" id="tb2f924b79be14689a166f7d0a5dfc398"><clipPath id="t4a2e79c323224070b5786a036a83191f"><rect x="55.0" y="55.0" width="190.0" height="140.0" /></clipPath><g clip-path="url(#t4a2e79c323224070b5786a036a83191f)"><g class="toyplot-mark-Plot" style="fill:none" id="t64291069034040eb8a7063a0f52c7a5f"><g class="toyplot-Series"><path d="M 65.0 133.83100566852957 L 65.85 133.95550923933294 L 66.69999999999999 134.08176811861696 L 67.55000000000001 134.20980705352622 L 68.39999999999999 134.33965114010175 L 69.25 134.47132582820035 L 70.1 134.60485692648228 L 70.95 134.7402706074704 L 71.8 134.87759341267963 L 72.64999999999999 135.01685225781944 L 73.5 135.15807443806924 L 74.35 135.3012876334285 L 75.19999999999999 135.446519914142 L 76.05000000000001 135.59379974620168 L 76.9 135.7431559969261 L 77.75 135.8946179406186 L 78.60000000000001 136.04821526430496 L 79.45 136.20397807355238 L 80.3 136.36193689837012 L 81.15 136.52212269919355 L 82.0 136.6845668729524 L 82.85000000000001 136.84930125922477 L 83.7 137.01635814647778 L 84.55 137.18577027839612 L 85.4 137.35757086029997 L 86.25 137.53179356565343 L 87.1 137.70847254266448 L 87.95 137.88764242097818 L 88.80000000000001 138.06933831846433 L 89.64999999999999 138.25359584810045 L 90.5 138.44045112495226 L 91.35 138.6299407732522 L 92.2 138.82210193357798 L 93.05 139.0169722701322 L 93.9 139.21458997812465 L 94.75 139.41499379125872 L 95.6 139.6182229893234 L 96.44999999999999 139.82431740589212 L 97.30000000000001 140.03331743613026 L 98.15 140.24526404471288 L 99.0 140.46019877385373 L 99.85 140.67816375144784 L 100.7 140.89920169932856 L 101.55 141.12335594164136 L 102.4 141.3506704133353 L 103.25 141.58118966877453 L 104.10000000000001 141.8149588904711 L 104.94999999999999 142.05202389794084 L 105.8 142.29243115668416 L 106.65 142.53622778729337 L 107.5 142.7834615746886 L 108.35 143.0341809774836 L 109.2 143.288435137484 L 110.05000000000001 143.54627388931905 L 110.9 143.8077477702097 L 111.75 144.07290802987347 L 112.60000000000001 144.3418066405703 L 113.45 144.61449630728862 L 114.29999999999998 144.64747588884984 L 115.15 144.63999460395954 L 116.0 144.63235455085498 L 116.85 144.62455236014893 L 117.69999999999999 144.61658459094883 L 118.55000000000001 144.6084477293393 L 119.4 144.60013818683254 L 120.25 144.59165229878565 L 121.1 144.5829863227844 L 121.95000000000002 144.57413643699297 L 122.8 144.5650987384683 L 123.64999999999999 144.55586924143887 L 124.5 144.54644387554686 L 125.35 144.53681848405319 L 126.19999999999999 144.52698882200423 L 127.04999999999998 144.51695055435965 L 127.9 144.5066992540808 L 128.75 144.49623040017806 L 129.6 144.48553937571722 L 130.45000000000002 144.47462146578323 L 131.3 144.46347185540083 L 132.15 144.45208562741118 L 133.0 144.44045776030313 L 133.85000000000002 144.4285831259989 L 134.7 144.4164564875923 L 135.54999999999998 144.40407249703924 L 136.4 144.39142569279917 L 137.25 144.3785104974265 L 138.1 144.3653212151107 L 138.95 144.35185202916452 L 139.8 144.3380969994587 L 140.65 144.32405005980218 L 141.5 144.30970501526693 L 142.35 144.29505553945577 L 143.20000000000002 144.2800951717125 L 144.05 144.2648173142725 L 144.89999999999998 144.24921522935296 L 145.75 144.23328203618163 L 146.6 144.21701070796206 L 147.45 144.2003940687748 L 148.29999999999998 144.18342479041266 L 149.15 144.16609538914886 L 150.0 144.1483982224366 L 150.85 144.13032548553855 L 151.70000000000002 144.1118692080848 L 152.55 144.0930212505579 L 153.4 144.07377330070312 L 154.25 144.05411686986258 L 155.10000000000002 144.03404328923173 L 155.95000000000002 144.0135437060362 L 156.8 143.99260907962753 L 157.65 143.9712301774962 L 158.5 143.94939757119988 L 159.35000000000002 143.9271016322054 L 160.20000000000002 143.90433252764223 L 161.04999999999998 143.88108021596628 L 161.89999999999998 143.85733444253128 L 162.75 144.03990809091385 L 163.6 144.30834145332625 L 164.45 144.58055931247637 L 165.3 144.85661502393606 L 166.14999999999998 145.13656269550845 L 167.0 145.42045719783346 L 167.85 145.70835417514235 L 168.7 146.00031005616435 L 169.55 146.29638206518678 L 170.39999999999998 146.59662823327125 L 171.25 146.90110740962794 L 172.10000000000002 147.20987927315008 L 172.95 147.52300434411146 L 173.8 147.8405439960284 L 174.65 148.16256046768922 L 175.5 148.4891168753533 L 176.35000000000002 148.8202772251219 L 177.2 149.15610642548378 L 178.05 149.49667030003735 L 178.9 149.8420356003922 L 179.75 150.1922700192529 L 180.60000000000002 150.54744220368673 L 181.45000000000002 150.90762176857893 L 182.29999999999998 151.2728793102772 L 183.14999999999998 151.64328642042912 L 184.0 152.01891570001405 L 184.85 152.3998407735733 L 185.7 152.7861363036407 L 186.55 153.17787800537695 L 187.39999999999998 153.57514266140961 L 188.25 153.97800813688306 L 189.1 154.38655339472018 L 189.95 154.80085851109948 L 190.8 155.22100469115 L 191.64999999999998 155.64707428486818 L 192.5 156.07915080325833 L 193.35000000000002 156.51731893470128 L 194.2 156.96166456155353 L 195.05 157.41227477698047 L 195.9 157.86923790202684 L 196.75 158.33264350292808 L 197.60000000000002 158.80258240866556 L 198.45 159.2791467287691 L 199.3 159.76242987137124 L 200.15 160.25252656151494 L 201.0 160.7495328597206 L 201.85000000000002 161.25354618081366 L 202.70000000000002 161.76466531301858 L 203.54999999999998 162.2829904373216 L 204.39999999999998 162.8086231471064 L 205.25 163.3416664680668 L 206.1 163.8822248784002 L 206.95 164.43040432928555 L 207.8 164.98631226565013 L 208.64999999999998 165.55005764722915 L 209.5 166.12175096992206 L 210.35 166.70150428745043 L 211.2 167.21748194792073 L 212.05 167.6889824970754 L 212.89999999999998 168.1704892552313 L 213.75 168.6622145746726 L 214.60000000000002 169.1643753142346 L 215.45 169.67719293494187 L 216.3 170.20089359767647 L 217.15 170.73570826291825 L 218.0 171.2818727926023 L 218.85000000000002 171.83962805413782 L 219.7 172.4092200266348 L 220.55 172.99089990938444 L 221.4 173.58492423264232 L 222.25 174.19155497076227 L 223.10000000000002 174.8110596577315 L 223.95000000000002 175.44371150515735 L 224.79999999999998 176.0897895227578 L 225.65 176.7495786414097 L 226.5 177.42336983880747 L 227.35 178.1114602677893 L 228.2 178.81415338738634 L 229.05 179.5317590966528 L 229.89999999999998 180.26459387133664 L 230.75 181.01298090345063 L 231.6 181.77725024380496 L 232.45 182.55773894756533 L 233.3 183.3547912228994 L 234.14999999999998 184.1687585827784" style="stroke:rgb(40%,76.1%,64.7%);stroke-opacity:1.0;stroke-width:5.0" /></g></g><g class="toyplot-mark-FillBoundaries" style="stroke:none" id="t56e09279670647848dfdae6104540b27"><polygon points="65.0,185.0 65.85,185.0 66.69999999999999,185.0 67.55000000000001,185.0 68.39999999999999,185.0 69.25,185.0 70.1,185.0 70.95,185.0 71.8,185.0 72.64999999999999,185.0 73.5,185.0 74.35,185.0 75.19999999999999,185.0 76.05000000000001,185.0 76.9,185.0 77.75,185.0 78.60000000000001,185.0 79.45,185.0 80.3,185.0 81.15,185.0 82.0,185.0 82.85000000000001,185.0 83.7,185.0 84.55,185.0 85.4,185.0 86.25,185.0 87.1,185.0 87.95,185.0 88.80000000000001,185.0 89.64999999999999,185.0 90.5,185.0 91.35,185.0 92.2,185.0 93.05,185.0 93.9,185.0 94.75,185.0 95.6,185.0 96.44999999999999,185.0 97.30000000000001,185.0 98.15,185.0 99.0,185.0 99.85,185.0 100.7,185.0 101.55,185.0 102.4,185.0 103.25,185.0 104.10000000000001,185.0 104.94999999999999,185.0 105.8,185.0 106.65,185.0 107.5,185.0 108.35,185.0 109.2,185.0 110.05000000000001,185.0 110.9,185.0 111.75,185.0 112.60000000000001,185.0 113.45,185.0 114.29999999999998,185.0 115.15,185.0 116.0,185.0 116.85,185.0 117.69999999999999,185.0 118.55000000000001,185.0 119.4,185.0 120.25,185.0 121.1,185.0 121.95000000000002,185.0 122.8,185.0 123.64999999999999,185.0 124.5,185.0 125.35,185.0 126.19999999999999,185.0 127.04999999999998,185.0 127.9,185.0 128.75,185.0 129.6,185.0 130.45000000000002,185.0 131.3,185.0 132.15,185.0 133.0,185.0 133.85000000000002,185.0 134.7,185.0 135.54999999999998,185.0 136.4,185.0 137.25,185.0 138.1,185.0 138.95,185.0 139.8,185.0 140.65,185.0 141.5,185.0 142.35,185.0 143.20000000000002,185.0 144.05,185.0 144.89999999999998,185.0 145.75,185.0 146.6,185.0 147.45,185.0 148.29999999999998,185.0 149.15,185.0 150.0,185.0 150.85,185.0 151.70000000000002,185.0 152.55,185.0 153.4,185.0 154.25,185.0 155.10000000000002,185.0 155.95000000000002,185.0 156.8,185.0 157.65,185.0 158.5,185.0 159.35000000000002,185.0 160.20000000000002,185.0 161.04999999999998,185.0 161.89999999999998,185.0 162.75,185.0 163.6,185.0 164.45,185.0 165.3,185.0 166.14999999999998,185.0 167.0,185.0 167.85,185.0 168.7,185.0 169.55,185.0 170.39999999999998,185.0 171.25,185.0 172.10000000000002,185.0 172.95,185.0 173.8,185.0 174.65,185.0 175.5,185.0 176.35000000000002,185.0 177.2,185.0 178.05,185.0 178.9,185.0 179.75,185.0 180.60000000000002,185.0 181.45000000000002,185.0 182.29999999999998,185.0 183.14999999999998,185.0 184.0,185.0 184.85,185.0 185.7,185.0 186.55,185.0 187.39999999999998,185.0 188.25,185.0 189.1,185.0 189.95,185.0 190.8,185.0 191.64999999999998,185.0 192.5,185.0 193.35000000000002,185.0 194.2,185.0 195.05,185.0 195.9,185.0 196.75,185.0 197.60000000000002,185.0 198.45,185.0 199.3,185.0 200.15,185.0 201.0,185.0 201.85000000000002,185.0 202.70000000000002,185.0 203.54999999999998,185.0 204.39999999999998,185.0 205.25,185.0 206.1,185.0 206.95,185.0 207.8,185.0 208.64999999999998,185.0 209.5,185.0 210.35,185.0 211.2,185.0 212.05,185.0 212.89999999999998,185.0 213.75,185.0 214.60000000000002,185.0 215.45,185.0 216.3,185.0 217.15,185.0 218.0,185.0 218.85000000000002,185.0 219.7,185.0 220.55,185.0 221.4,185.0 222.25,185.0 223.10000000000002,185.0 223.95000000000002,185.0 224.79999999999998,185.0 225.65,185.0 226.5,185.0 227.35,185.0 228.2,185.0 229.05,185.0 229.89999999999998,185.0 230.75,185.0 231.6,185.0 232.45,185.0 233.3,185.0 234.14999999999998,185.0 234.14999999999998,184.1687585827784 233.3,183.3547912228994 232.45,182.55773894756533 231.6,181.77725024380496 230.75,181.01298090345063 229.89999999999998,180.26459387133664 229.05,179.5317590966528 228.2,178.81415338738634 227.35,178.1114602677893 226.5,177.42336983880747 225.65,176.7495786414097 224.79999999999998,176.0897895227578 223.95000000000002,175.44371150515735 223.10000000000002,174.8110596577315 222.25,174.19155497076227 221.4,173.58492423264232 220.55,172.99089990938444 219.7,172.4092200266348 218.85000000000002,171.83962805413782 218.0,171.2818727926023 217.15,170.73570826291825 216.3,170.20089359767647 215.45,169.67719293494187 214.60000000000002,169.1643753142346 213.75,168.6622145746726 212.89999999999998,168.1704892552313 212.05,167.6889824970754 211.2,167.21748194792073 210.35,166.70150428745043 209.5,166.12175096992206 208.64999999999998,165.55005764722915 207.8,164.98631226565013 206.95,164.43040432928555 206.1,163.8822248784002 205.25,163.3416664680668 204.39999999999998,162.8086231471064 203.54999999999998,162.2829904373216 202.70000000000002,161.76466531301858 201.85000000000002,161.25354618081366 201.0,160.7495328597206 200.15,160.25252656151494 199.3,159.76242987137124 198.45,159.2791467287691 197.60000000000002,158.80258240866556 196.75,158.33264350292808 195.9,157.86923790202684 195.05,157.41227477698047 194.2,156.96166456155353 193.35000000000002,156.51731893470128 192.5,156.07915080325833 191.64999999999998,155.64707428486818 190.8,155.22100469115 189.95,154.80085851109948 189.1,154.38655339472018 188.25,153.97800813688306 187.39999999999998,153.57514266140961 186.55,153.17787800537695 185.7,152.7861363036407 184.85,152.3998407735733 184.0,152.01891570001405 183.14999999999998,151.64328642042912 182.29999999999998,151.2728793102772 181.45000000000002,150.90762176857893 180.60000000000002,150.54744220368673 179.75,150.1922700192529 178.9,149.8420356003922 178.05,149.49667030003735 177.2,149.15610642548378 176.35000000000002,148.8202772251219 175.5,148.4891168753533 174.65,148.16256046768922 173.8,147.8405439960284 172.95,147.52300434411146 172.10000000000002,147.20987927315008 171.25,146.90110740962794 170.39999999999998,146.59662823327125 169.55,146.29638206518678 168.7,146.00031005616435 167.85,145.70835417514235 167.0,145.42045719783346 166.14999999999998,145.13656269550845 165.3,144.85661502393606 164.45,144.58055931247637 163.6,144.30834145332625 162.75,144.03990809091385 161.89999999999998,143.85733444253128 161.04999999999998,143.88108021596628 160.20000000000002,143.90433252764223 159.35000000000002,143.9271016322054 158.5,143.94939757119988 157.65,143.9712301774962 156.8,143.99260907962753 155.95000000000002,144.0135437060362 155.10000000000002,144.03404328923173 154.25,144.05411686986258 153.4,144.07377330070312 152.55,144.0930212505579 151.70000000000002,144.1118692080848 150.85,144.13032548553855 150.0,144.1483982224366 149.15,144.16609538914886 148.29999999999998,144.18342479041266 147.45,144.2003940687748 146.6,144.21701070796206 145.75,144.23328203618163 144.89999999999998,144.24921522935296 144.05,144.2648173142725 143.20000000000002,144.2800951717125 142.35,144.29505553945577 141.5,144.30970501526693 140.65,144.32405005980218 139.8,144.3380969994587 138.95,144.35185202916452 138.1,144.3653212151107 137.25,144.3785104974265 136.4,144.39142569279917 135.54999999999998,144.40407249703924 134.7,144.4164564875923 133.85000000000002,144.4285831259989 133.0,144.44045776030313 132.15,144.45208562741118 131.3,144.46347185540083 130.45000000000002,144.47462146578323 129.6,144.48553937571722 128.75,144.49623040017806 127.9,144.5066992540808 127.04999999999998,144.51695055435965 126.19999999999999,144.52698882200423 125.35,144.53681848405319 124.5,144.54644387554686 123.64999999999999,144.55586924143887 122.8,144.5650987384683 121.95000000000002,144.57413643699297 121.1,144.5829863227844 120.25,144.59165229878565 119.4,144.60013818683254 118.55000000000001,144.6084477293393 117.69999999999999,144.61658459094883 116.85,144.62455236014893 116.0,144.63235455085498 115.15,144.63999460395954 114.29999999999998,144.64747588884984 113.45,144.61449630728862 112.60000000000001,144.3418066405703 111.75,144.07290802987347 110.9,143.8077477702097 110.05000000000001,143.54627388931905 109.2,143.288435137484 108.35,143.0341809774836 107.5,142.7834615746886 106.65,142.53622778729337 105.8,142.29243115668416 104.94999999999999,142.05202389794084 104.10000000000001,141.8149588904711 103.25,141.58118966877453 102.4,141.3506704133353 101.55,141.12335594164136 100.7,140.89920169932856 99.85,140.67816375144784 99.0,140.46019877385373 98.15,140.24526404471288 97.30000000000001,140.03331743613026 96.44999999999999,139.82431740589212 95.6,139.6182229893234 94.75,139.41499379125872 93.9,139.21458997812465 93.05,139.0169722701322 92.2,138.82210193357798 91.35,138.6299407732522 90.5,138.44045112495226 89.64999999999999,138.25359584810045 88.80000000000001,138.06933831846433 87.95,137.88764242097818 87.1,137.70847254266448 86.25,137.53179356565343 85.4,137.35757086029997 84.55,137.18577027839612 83.7,137.01635814647778 82.85000000000001,136.84930125922477 82.0,136.6845668729524 81.15,136.52212269919355 80.3,136.36193689837012 79.45,136.20397807355238 78.60000000000001,136.04821526430496 77.75,135.8946179406186 76.9,135.7431559969261 76.05000000000001,135.59379974620168 75.19999999999999,135.446519914142 74.35,135.3012876334285 73.5,135.15807443806924 72.64999999999999,135.01685225781944 71.8,134.87759341267963 70.95,134.7402706074704 70.1,134.60485692648228 69.25,134.47132582820035 68.39999999999999,134.33965114010175 67.55000000000001,134.20980705352622 66.69999999999999,134.08176811861696 65.85,133.95550923933294 65.0,133.83100566852957" style="fill:rgb(40%,76.1%,64.7%);fill-opacity:1.0;opacity:0.33;stroke:none" /></g><g class="toyplot-mark-Plot" style="fill:none;stroke:rgb(0%,0%,0%);stroke-dasharray:4,2;stroke-opacity:1.0;stroke-width:2" id="t95a2e5851ace450e9a225052c717c85e"><g class="toyplot-Series"><path d="M 65.0 185.0 L 65.0 133.83100566852957" style="stroke:rgb(0%,0%,0%);stroke-dasharray:4,2;stroke-opacity:1.0;stroke-width:2" /></g></g><g class="toyplot-mark-Plot" style="fill:none;stroke:rgb(0%,0%,0%);stroke-dasharray:4,2;stroke-opacity:1.0;stroke-width:2" id="t31e7b614d1884746aa6fd639f64351a0"><g class="toyplot-Series"><path d="M 113.5714280857143 185.0 L 113.5714280857143 144.65376439783145" style="stroke:rgb(0%,0%,0%);stroke-dasharray:4,2;stroke-opacity:1.0;stroke-width:2" /></g></g><g class="toyplot-mark-Plot" style="fill:none;stroke:rgb(0%,0%,0%);stroke-dasharray:4,2;stroke-opacity:1.0;stroke-width:2" id="tf6e2321569f24d91a213221801e91bb3"><g class="toyplot-Series"><path d="M 162.14285665714286 185.0 L 162.14285665714286 143.8504578538032" style="stroke:rgb(0%,0%,0%);stroke-dasharray:4,2;stroke-opacity:1.0;stroke-width:2" /></g></g><g class="toyplot-mark-Plot" style="fill:none;stroke:rgb(0%,0%,0%);stroke-dasharray:4,2;stroke-opacity:1.0;stroke-width:2" id="t12e1320e64224783806536fce9da9b7b"><g class="toyplot-Series"><path d="M 210.71428522857144 185.0 L 210.71428522857144 166.95246510814133" style="stroke:rgb(0%,0%,0%);stroke-dasharray:4,2;stroke-opacity:1.0;stroke-width:2" /></g></g><g class="toyplot-mark-Plot" style="fill:none;stroke:rgb(0%,0%,0%);stroke-dasharray:4,2;stroke-opacity:1.0;stroke-width:2" id="t03bd69669bf54694a17dcde41bb45543"><g class="toyplot-Series"><path d="M 234.99999951428572 185.0 L 234.99999951428572 184.99999952" style="stroke:rgb(0%,0%,0%);stroke-dasharray:4,2;stroke-opacity:1.0;stroke-width:2" /></g></g></g><g class="toyplot-coordinates-Axis" id="t73222e85fe004ca2a09d291e82ca3822" transform="translate(65.0,185.0)translate(0,10.0)"><line x1="0" y1="0" x2="169.99999951428572" y2="0" style="stroke-width:1.5" /><g><line x1="0.0" y1="7.5" x2="0.0" y2="0" style="stroke-width:1.5" /><line x1="48.57142857142857" y1="7.5" x2="48.57142857142857" y2="0" style="stroke-width:1.5" /><line x1="97.14285714285714" y1="7.5" x2="97.14285714285714" y2="0" style="stroke-width:1.5" /><line x1="145.7142857142857" y1="7.5" x2="145.7142857142857" y2="0" style="stroke-width:1.5" /><line x1="170.0" y1="7.5" x2="170.0" y2="0" style="stroke-width:1.5" /></g><g><g transform="translate(0.0,15.0)"><text x="-16.68" y="8.555" style="fill:rgb(16.1%,15.3%,14.1%);fill-opacity:1.0;font-family:helvetica;font-size:10.0px;font-weight:normal;stroke:none;vertical-align:baseline;white-space:pre">100000</text></g><g transform="translate(48.57142857142857,15.0)"><text x="-16.68" y="8.555" style="fill:rgb(16.1%,15.3%,14.1%);fill-opacity:1.0;font-family:helvetica;font-size:10.0px;font-weight:normal;stroke:none;vertical-align:baseline;white-space:pre">200000</text></g><g transform="translate(97.14285714285714,15.0)"><text x="-16.68" y="8.555" style="fill:rgb(16.1%,15.3%,14.1%);fill-opacity:1.0;font-family:helvetica;font-size:10.0px;font-weight:normal;stroke:none;vertical-align:baseline;white-space:pre">300000</text></g><g transform="translate(145.7142857142857,15.0)"><text x="-16.68" y="8.555" style="fill:rgb(16.1%,15.3%,14.1%);fill-opacity:1.0;font-family:helvetica;font-size:10.0px;font-weight:normal;stroke:none;vertical-align:baseline;white-space:pre">400000</text></g><g transform="translate(170.0,15.0)"><text x="-16.68" y="8.555" style="fill:rgb(16.1%,15.3%,14.1%);fill-opacity:1.0;font-family:helvetica;font-size:10.0px;font-weight:normal;stroke:none;vertical-align:baseline;white-space:pre">450000</text></g></g><g transform="translate(85.0,35.0)"><text x="-100.02000000000002" y="10.265999999999998" style="fill:rgb(16.1%,15.3%,14.1%);fill-opacity:1.0;font-family:helvetica;font-size:12.0px;font-weight:bold;stroke:none;vertical-align:baseline;white-space:pre">Time of recombination on branch 7</text></g><g class="toyplot-coordinates-Axis-coordinates" style="visibility:hidden" transform=""><line x1="0" x2="0" y1="-7.5" y2="11.25" style="stroke:rgb(43.9%,50.2%,56.5%);stroke-opacity:1.0;stroke-width:1.0" /><text x="0" y="-15.0" style="alignment-baseline:alphabetic;fill:rgb(43.9%,50.2%,56.5%);fill-opacity:1.0;font-size:10px;font-weight:normal;stroke:none;text-anchor:middle" /></g></g><g class="toyplot-coordinates-Axis" id="t949ce41956f44b90b51d7ea33678c2cd" transform="translate(65.0,185.0)rotate(-90.0)translate(0,-10.0)"><line x1="0" y1="0" x2="120.0" y2="0" style="stroke-width:1.5" /><g><line x1="0.0" y1="-7.5" x2="0.0" y2="0" style="stroke-width:1.5" /><line x1="60.0" y1="-7.5" x2="60.0" y2="0" style="stroke-width:1.5" /><line x1="120.0" y1="-7.5" x2="120.0" y2="0" style="stroke-width:1.5" /></g><g><g transform="translate(0.0,-15.0)"><text x="-6.95" y="-4.440892098500626e-16" style="fill:rgb(16.1%,15.3%,14.1%);fill-opacity:1.0;font-family:helvetica;font-size:10.0px;font-weight:normal;stroke:none;vertical-align:baseline;white-space:pre">0.0</text></g><g transform="translate(60.0,-15.0)"><text x="-6.95" y="-4.440892098500626e-16" style="fill:rgb(16.1%,15.3%,14.1%);fill-opacity:1.0;font-family:helvetica;font-size:10.0px;font-weight:normal;stroke:none;vertical-align:baseline;white-space:pre">0.5</text></g><g transform="translate(120.0,-15.0)"><text x="-6.95" y="-4.440892098500626e-16" style="fill:rgb(16.1%,15.3%,14.1%);fill-opacity:1.0;font-family:helvetica;font-size:10.0px;font-weight:normal;stroke:none;vertical-align:baseline;white-space:pre">1.0</text></g></g><g transform="translate(60.0,-35.0)"><text x="-31.008" y="0.0" style="fill:rgb(16.1%,15.3%,14.1%);fill-opacity:1.0;font-family:helvetica;font-size:12.0px;font-weight:bold;stroke:none;vertical-align:baseline;white-space:pre">Probability</text></g><g class="toyplot-coordinates-Axis-coordinates" style="visibility:hidden" transform=""><line x1="0" x2="0" y1="7.5" y2="-11.25" style="stroke:rgb(43.9%,50.2%,56.5%);stroke-opacity:1.0;stroke-width:1.0" /><text x="0" y="15.0" style="alignment-baseline:hanging;fill:rgb(43.9%,50.2%,56.5%);fill-opacity:1.0;font-size:10px;font-weight:normal;stroke:none;text-anchor:middle" /></g></g><g transform="translate(150.0,45.0)"><text x="-56.0" y="-4.823" style="fill:rgb(16.1%,15.3%,14.1%);fill-opacity:1.0;font-family:helvetica;font-size:14.0px;font-weight:bold;stroke:none;vertical-align:baseline;white-space:pre">Prob(no-change)</text></g></g><g class="toyplot-coordinates-Cartesian" id="tdf27f4ffad1047a496e2451fec49b425"><clipPath id="tcd7825c05c314c599cbf30a8ead96ba0"><rect x="55.0" y="305.0" width="190.0" height="140.0" /></clipPath><g clip-path="url(#tcd7825c05c314c599cbf30a8ead96ba0)"><g class="toyplot-mark-Plot" style="fill:none" id="te7eb88afe5764d8fa49971428aebce5f"><g class="toyplot-Series"><path d="M 65.0 366.16899433147046 L 65.85 366.04449076066703 L 66.69999999999999 365.918231881383 L 67.55000000000001 365.7901929464738 L 68.39999999999999 365.66034885989825 L 69.25 365.52867417179965 L 70.1 365.3951430735177 L 70.95 365.2597293925296 L 71.8 365.12240658732037 L 72.64999999999999 364.98314774218056 L 73.5 364.8419255619308 L 74.35 364.6987123665715 L 75.19999999999999 364.55348008585804 L 76.05000000000001 364.4062002537984 L 76.9 364.25684400307387 L 77.75 364.10538205938144 L 78.60000000000001 363.951784735695 L 79.45 363.7960219264476 L 80.3 363.6380631016299 L 81.15 363.4778773008064 L 82.0 363.31543312704764 L 82.85000000000001 363.1506987407752 L 83.7 362.9836418535222 L 84.55 362.81422972160385 L 85.4 362.6424291397 L 86.25 362.4682064343466 L 87.1 362.2915274573355 L 87.95 362.1123575790218 L 88.80000000000001 361.9306616815357 L 89.64999999999999 361.7464041518996 L 90.5 361.55954887504777 L 91.35 361.3700592267478 L 92.2 361.177898066422 L 93.05 360.9830277298678 L 93.9 360.78541002187535 L 94.75 360.5850062087412 L 95.6 360.3817770106766 L 96.44999999999999 360.1756825941079 L 97.30000000000001 359.9666825638697 L 98.15 359.7547359552871 L 99.0 359.53980122614627 L 99.85 359.32183624855213 L 100.7 359.1007983006714 L 101.55 358.87664405835864 L 102.4 358.64932958666475 L 103.25 358.4188103312255 L 104.10000000000001 358.1850411095289 L 104.94999999999999 357.94797610205916 L 105.8 357.7075688433158 L 106.65 357.46377221270666 L 107.5 357.21653842531146 L 108.35 356.9658190225164 L 109.2 356.711564862516 L 110.05000000000001 356.4537261106809 L 110.9 356.1922522297903 L 111.75 355.9270919701265 L 112.60000000000001 355.6581933594297 L 113.45 355.3855036927114 L 114.29999999999998 355.35252411115016 L 115.15 355.3600053960405 L 116.0 355.367645449145 L 116.85 355.3754476398511 L 117.69999999999999 355.38341540905117 L 118.55000000000001 355.39155227066067 L 119.4 355.3998618131675 L 120.25 355.4083477012143 L 121.1 355.4170136772156 L 121.95000000000002 355.42586356300706 L 122.8 355.4349012615317 L 123.64999999999999 355.4441307585612 L 124.5 355.45355612445314 L 125.35 355.4631815159468 L 126.19999999999999 355.4730111779958 L 127.04999999999998 355.4830494456403 L 127.9 355.4933007459192 L 128.75 355.5037695998219 L 129.6 355.5144606242828 L 130.45000000000002 355.52537853421677 L 131.3 355.5365281445992 L 132.15 355.5479143725888 L 133.0 355.55954223969684 L 133.85000000000002 355.5714168740011 L 134.7 355.5835435124077 L 135.54999999999998 355.59592750296076 L 136.4 355.6085743072008 L 137.25 355.62148950257347 L 138.1 355.6346787848893 L 138.95 355.64814797083545 L 139.8 355.6619030005413 L 140.65 355.6759499401978 L 141.5 355.6902949847331 L 142.35 355.7049444605442 L 143.20000000000002 355.7199048282875 L 144.05 355.7351826857275 L 144.89999999999998 355.750784770647 L 145.75 355.76671796381834 L 146.6 355.78298929203794 L 147.45 355.7996059312252 L 148.29999999999998 355.8165752095873 L 149.15 355.83390461085116 L 150.0 355.85160177756336 L 150.85 355.86967451446145 L 151.70000000000002 355.8881307919152 L 152.55 355.9069787494421 L 153.4 355.9262266992969 L 154.25 355.9458831301374 L 155.10000000000002 355.9659567107683 L 155.95000000000002 355.9864562939638 L 156.8 356.0073909203725 L 157.65 356.0287698225038 L 158.5 356.05060242880006 L 159.35000000000002 356.0728983677946 L 160.20000000000002 356.0956674723578 L 161.04999999999998 356.1189197840337 L 161.89999999999998 356.1426655574687 L 162.75 355.96009190908615 L 163.6 355.69165854667375 L 164.45 355.41944068752366 L 165.3 355.143384976064 L 166.14999999999998 354.8634373044915 L 167.0 354.57954280216654 L 167.85 354.29164582485765 L 168.7 353.9996899438356 L 169.55 353.7036179348132 L 170.39999999999998 353.4033717667287 L 171.25 353.0988925903721 L 172.10000000000002 352.7901207268499 L 172.95 352.4769956558886 L 173.8 352.1594560039716 L 174.65 351.8374395323108 L 175.5 351.5108831246467 L 176.35000000000002 351.1797227748781 L 177.2 350.8438935745162 L 178.05 350.5033296999627 L 178.9 350.1579643996078 L 179.75 349.8077299807471 L 180.60000000000002 349.4525577963133 L 181.45000000000002 349.0923782314211 L 182.29999999999998 348.7271206897228 L 183.14999999999998 348.35671357957085 L 184.0 347.9810842999859 L 184.85 347.60015922642674 L 185.7 347.2138636963593 L 186.55 346.82212199462305 L 187.39999999999998 346.4248573385904 L 188.25 346.02199186311697 L 189.1 345.6134466052798 L 189.95 345.1991414889005 L 190.8 344.77899530884997 L 191.64999999999998 344.35292571513185 L 192.5 343.92084919674164 L 193.35000000000002 343.4826810652987 L 194.2 343.0383354384465 L 195.05 342.58772522301956 L 195.9 342.13076209797316 L 196.75 341.6673564970719 L 197.60000000000002 341.19741759133444 L 198.45 340.7208532712309 L 199.3 340.23757012862876 L 200.15 339.74747343848503 L 201.0 339.2504671402794 L 201.85000000000002 338.74645381918634 L 202.70000000000002 338.23533468698145 L 203.54999999999998 337.7170095626784 L 204.39999999999998 337.19137685289365 L 205.25 336.6583335319332 L 206.1 336.11777512159983 L 206.95 335.5695956707145 L 207.8 335.0136877343499 L 208.64999999999998 334.4499423527709 L 209.5 333.8782490300779 L 210.35 333.2984957125496 L 211.2 332.7825180520793 L 212.05 332.31101750292464 L 212.89999999999998 331.82951074476875 L 213.75 331.3377854253274 L 214.60000000000002 330.8356246857654 L 215.45 330.32280706505816 L 216.3 329.7991064023235 L 217.15 329.26429173708175 L 218.0 328.71812720739774 L 218.85000000000002 328.16037194586215 L 219.7 327.5907799733652 L 220.55 327.00910009061556 L 221.4 326.4150757673577 L 222.25 325.80844502923776 L 223.10000000000002 325.1889403422685 L 223.95000000000002 324.55628849484265 L 224.79999999999998 323.9102104772422 L 225.65 323.2504213585903 L 226.5 322.57663016119255 L 227.35 321.88853973221063 L 228.2 321.18584661261366 L 229.05 320.46824090334724 L 229.89999999999998 319.7354061286633 L 230.75 318.9870190965494 L 231.6 318.22274975619507 L 232.45 317.4422610524347 L 233.3 316.6452087771006 L 234.14999999999998 315.8312414172216" style="stroke:rgb(40%,76.1%,64.7%);stroke-opacity:1.0;stroke-width:5.0" /></g></g><g class="toyplot-mark-FillBoundaries" style="stroke:none" id="t3fcde3235e454ddbad3c334200b9f192"><polygon points="65.0,435.0 65.85,435.0 66.69999999999999,435.0 67.55000000000001,435.0 68.39999999999999,435.0 69.25,435.0 70.1,435.0 70.95,435.0 71.8,435.0 72.64999999999999,435.0 73.5,435.0 74.35,435.0 75.19999999999999,435.0 76.05000000000001,435.0 76.9,435.0 77.75,435.0 78.60000000000001,435.0 79.45,435.0 80.3,435.0 81.15,435.0 82.0,435.0 82.85000000000001,435.0 83.7,435.0 84.55,435.0 85.4,435.0 86.25,435.0 87.1,435.0 87.95,435.0 88.80000000000001,435.0 89.64999999999999,435.0 90.5,435.0 91.35,435.0 92.2,435.0 93.05,435.0 93.9,435.0 94.75,435.0 95.6,435.0 96.44999999999999,435.0 97.30000000000001,435.0 98.15,435.0 99.0,435.0 99.85,435.0 100.7,435.0 101.55,435.0 102.4,435.0 103.25,435.0 104.10000000000001,435.0 104.94999999999999,435.0 105.8,435.0 106.65,435.0 107.5,435.0 108.35,435.0 109.2,435.0 110.05000000000001,435.0 110.9,435.0 111.75,435.0 112.60000000000001,435.0 113.45,435.0 114.29999999999998,435.0 115.15,435.0 116.0,435.0 116.85,435.0 117.69999999999999,435.0 118.55000000000001,435.0 119.4,435.0 120.25,435.0 121.1,435.0 121.95000000000002,435.0 122.8,435.0 123.64999999999999,435.0 124.5,435.0 125.35,435.0 126.19999999999999,435.0 127.04999999999998,435.0 127.9,435.0 128.75,435.0 129.6,435.0 130.45000000000002,435.0 131.3,435.0 132.15,435.0 133.0,435.0 133.85000000000002,435.0 134.7,435.0 135.54999999999998,435.0 136.4,435.0 137.25,435.0 138.1,435.0 138.95,435.0 139.8,435.0 140.65,435.0 141.5,435.0 142.35,435.0 143.20000000000002,435.0 144.05,435.0 144.89999999999998,435.0 145.75,435.0 146.6,435.0 147.45,435.0 148.29999999999998,435.0 149.15,435.0 150.0,435.0 150.85,435.0 151.70000000000002,435.0 152.55,435.0 153.4,435.0 154.25,435.0 155.10000000000002,435.0 155.95000000000002,435.0 156.8,435.0 157.65,435.0 158.5,435.0 159.35000000000002,435.0 160.20000000000002,435.0 161.04999999999998,435.0 161.89999999999998,435.0 162.75,435.0 163.6,435.0 164.45,435.0 165.3,435.0 166.14999999999998,435.0 167.0,435.0 167.85,435.0 168.7,435.0 169.55,435.0 170.39999999999998,435.0 171.25,435.0 172.10000000000002,435.0 172.95,435.0 173.8,435.0 174.65,435.0 175.5,435.0 176.35000000000002,435.0 177.2,435.0 178.05,435.0 178.9,435.0 179.75,435.0 180.60000000000002,435.0 181.45000000000002,435.0 182.29999999999998,435.0 183.14999999999998,435.0 184.0,435.0 184.85,435.0 185.7,435.0 186.55,435.0 187.39999999999998,435.0 188.25,435.0 189.1,435.0 189.95,435.0 190.8,435.0 191.64999999999998,435.0 192.5,435.0 193.35000000000002,435.0 194.2,435.0 195.05,435.0 195.9,435.0 196.75,435.0 197.60000000000002,435.0 198.45,435.0 199.3,435.0 200.15,435.0 201.0,435.0 201.85000000000002,435.0 202.70000000000002,435.0 203.54999999999998,435.0 204.39999999999998,435.0 205.25,435.0 206.1,435.0 206.95,435.0 207.8,435.0 208.64999999999998,435.0 209.5,435.0 210.35,435.0 211.2,435.0 212.05,435.0 212.89999999999998,435.0 213.75,435.0 214.60000000000002,435.0 215.45,435.0 216.3,435.0 217.15,435.0 218.0,435.0 218.85000000000002,435.0 219.7,435.0 220.55,435.0 221.4,435.0 222.25,435.0 223.10000000000002,435.0 223.95000000000002,435.0 224.79999999999998,435.0 225.65,435.0 226.5,435.0 227.35,435.0 228.2,435.0 229.05,435.0 229.89999999999998,435.0 230.75,435.0 231.6,435.0 232.45,435.0 233.3,435.0 234.14999999999998,435.0 234.14999999999998,315.8312414172216 233.3,316.6452087771006 232.45,317.4422610524347 231.6,318.22274975619507 230.75,318.9870190965494 229.89999999999998,319.7354061286633 229.05,320.46824090334724 228.2,321.18584661261366 227.35,321.88853973221063 226.5,322.57663016119255 225.65,323.2504213585903 224.79999999999998,323.9102104772422 223.95000000000002,324.55628849484265 223.10000000000002,325.1889403422685 222.25,325.80844502923776 221.4,326.4150757673577 220.55,327.00910009061556 219.7,327.5907799733652 218.85000000000002,328.16037194586215 218.0,328.71812720739774 217.15,329.26429173708175 216.3,329.7991064023235 215.45,330.32280706505816 214.60000000000002,330.8356246857654 213.75,331.3377854253274 212.89999999999998,331.82951074476875 212.05,332.31101750292464 211.2,332.7825180520793 210.35,333.2984957125496 209.5,333.8782490300779 208.64999999999998,334.4499423527709 207.8,335.0136877343499 206.95,335.5695956707145 206.1,336.11777512159983 205.25,336.6583335319332 204.39999999999998,337.19137685289365 203.54999999999998,337.7170095626784 202.70000000000002,338.23533468698145 201.85000000000002,338.74645381918634 201.0,339.2504671402794 200.15,339.74747343848503 199.3,340.23757012862876 198.45,340.7208532712309 197.60000000000002,341.19741759133444 196.75,341.6673564970719 195.9,342.13076209797316 195.05,342.58772522301956 194.2,343.0383354384465 193.35000000000002,343.4826810652987 192.5,343.92084919674164 191.64999999999998,344.35292571513185 190.8,344.77899530884997 189.95,345.1991414889005 189.1,345.6134466052798 188.25,346.02199186311697 187.39999999999998,346.4248573385904 186.55,346.82212199462305 185.7,347.2138636963593 184.85,347.60015922642674 184.0,347.9810842999859 183.14999999999998,348.35671357957085 182.29999999999998,348.7271206897228 181.45000000000002,349.0923782314211 180.60000000000002,349.4525577963133 179.75,349.8077299807471 178.9,350.1579643996078 178.05,350.5033296999627 177.2,350.8438935745162 176.35000000000002,351.1797227748781 175.5,351.5108831246467 174.65,351.8374395323108 173.8,352.1594560039716 172.95,352.4769956558886 172.10000000000002,352.7901207268499 171.25,353.0988925903721 170.39999999999998,353.4033717667287 169.55,353.7036179348132 168.7,353.9996899438356 167.85,354.29164582485765 167.0,354.57954280216654 166.14999999999998,354.8634373044915 165.3,355.143384976064 164.45,355.41944068752366 163.6,355.69165854667375 162.75,355.96009190908615 161.89999999999998,356.1426655574687 161.04999999999998,356.1189197840337 160.20000000000002,356.0956674723578 159.35000000000002,356.0728983677946 158.5,356.05060242880006 157.65,356.0287698225038 156.8,356.0073909203725 155.95000000000002,355.9864562939638 155.10000000000002,355.9659567107683 154.25,355.9458831301374 153.4,355.9262266992969 152.55,355.9069787494421 151.70000000000002,355.8881307919152 150.85,355.86967451446145 150.0,355.85160177756336 149.15,355.83390461085116 148.29999999999998,355.8165752095873 147.45,355.7996059312252 146.6,355.78298929203794 145.75,355.76671796381834 144.89999999999998,355.750784770647 144.05,355.7351826857275 143.20000000000002,355.7199048282875 142.35,355.7049444605442 141.5,355.6902949847331 140.65,355.6759499401978 139.8,355.6619030005413 138.95,355.64814797083545 138.1,355.6346787848893 137.25,355.62148950257347 136.4,355.6085743072008 135.54999999999998,355.59592750296076 134.7,355.5835435124077 133.85000000000002,355.5714168740011 133.0,355.55954223969684 132.15,355.5479143725888 131.3,355.5365281445992 130.45000000000002,355.52537853421677 129.6,355.5144606242828 128.75,355.5037695998219 127.9,355.4933007459192 127.04999999999998,355.4830494456403 126.19999999999999,355.4730111779958 125.35,355.4631815159468 124.5,355.45355612445314 123.64999999999999,355.4441307585612 122.8,355.4349012615317 121.95000000000002,355.42586356300706 121.1,355.4170136772156 120.25,355.4083477012143 119.4,355.3998618131675 118.55000000000001,355.39155227066067 117.69999999999999,355.38341540905117 116.85,355.3754476398511 116.0,355.367645449145 115.15,355.3600053960405 114.29999999999998,355.35252411115016 113.45,355.3855036927114 112.60000000000001,355.6581933594297 111.75,355.9270919701265 110.9,356.1922522297903 110.05000000000001,356.4537261106809 109.2,356.711564862516 108.35,356.9658190225164 107.5,357.21653842531146 106.65,357.46377221270666 105.8,357.7075688433158 104.94999999999999,357.94797610205916 104.10000000000001,358.1850411095289 103.25,358.4188103312255 102.4,358.64932958666475 101.55,358.87664405835864 100.7,359.1007983006714 99.85,359.32183624855213 99.0,359.53980122614627 98.15,359.7547359552871 97.30000000000001,359.9666825638697 96.44999999999999,360.1756825941079 95.6,360.3817770106766 94.75,360.5850062087412 93.9,360.78541002187535 93.05,360.9830277298678 92.2,361.177898066422 91.35,361.3700592267478 90.5,361.55954887504777 89.64999999999999,361.7464041518996 88.80000000000001,361.9306616815357 87.95,362.1123575790218 87.1,362.2915274573355 86.25,362.4682064343466 85.4,362.6424291397 84.55,362.81422972160385 83.7,362.9836418535222 82.85000000000001,363.1506987407752 82.0,363.31543312704764 81.15,363.4778773008064 80.3,363.6380631016299 79.45,363.7960219264476 78.60000000000001,363.951784735695 77.75,364.10538205938144 76.9,364.25684400307387 76.05000000000001,364.4062002537984 75.19999999999999,364.55348008585804 74.35,364.6987123665715 73.5,364.8419255619308 72.64999999999999,364.98314774218056 71.8,365.12240658732037 70.95,365.2597293925296 70.1,365.3951430735177 69.25,365.52867417179965 68.39999999999999,365.66034885989825 67.55000000000001,365.7901929464738 66.69999999999999,365.918231881383 65.85,366.04449076066703 65.0,366.16899433147046" style="fill:rgb(40%,76.1%,64.7%);fill-opacity:1.0;opacity:0.33;stroke:none" /></g><g class="toyplot-mark-Plot" style="fill:none;stroke:rgb(0%,0%,0%);stroke-dasharray:4,2;stroke-opacity:1.0;stroke-width:2" id="t905576c0ad364fef8f40884f87888262"><g class="toyplot-Series"><path d="M 65.0 435.0 L 65.0 366.16899433147046" style="stroke:rgb(0%,0%,0%);stroke-dasharray:4,2;stroke-opacity:1.0;stroke-width:2" /></g></g><g class="toyplot-mark-Plot" style="fill:none;stroke:rgb(0%,0%,0%);stroke-dasharray:4,2;stroke-opacity:1.0;stroke-width:2" id="t51e63591726b40b1b0a8ed526ee22709"><g class="toyplot-Series"><path d="M 113.5714280857143 435.0 L 113.5714280857143 355.3462356021686" style="stroke:rgb(0%,0%,0%);stroke-dasharray:4,2;stroke-opacity:1.0;stroke-width:2" /></g></g><g class="toyplot-mark-Plot" style="fill:none;stroke:rgb(0%,0%,0%);stroke-dasharray:4,2;stroke-opacity:1.0;stroke-width:2" id="t8cf547e6f15f42d988e4e7c149d21098"><g class="toyplot-Series"><path d="M 162.14285665714286 435.0 L 162.14285665714286 356.14954214619684" style="stroke:rgb(0%,0%,0%);stroke-dasharray:4,2;stroke-opacity:1.0;stroke-width:2" /></g></g><g class="toyplot-mark-Plot" style="fill:none;stroke:rgb(0%,0%,0%);stroke-dasharray:4,2;stroke-opacity:1.0;stroke-width:2" id="tdd44e4f83b3f43a38fd4408c401606fb"><g class="toyplot-Series"><path d="M 210.71428522857144 435.0 L 210.71428522857144 333.0475348918587" style="stroke:rgb(0%,0%,0%);stroke-dasharray:4,2;stroke-opacity:1.0;stroke-width:2" /></g></g><g class="toyplot-mark-Plot" style="fill:none;stroke:rgb(0%,0%,0%);stroke-dasharray:4,2;stroke-opacity:1.0;stroke-width:2" id="t1774ced441f642b9b0f09f6e4e692006"><g class="toyplot-Series"><path d="M 234.99999951428572 435.0 L 234.99999951428572 315.00000048000004" style="stroke:rgb(0%,0%,0%);stroke-dasharray:4,2;stroke-opacity:1.0;stroke-width:2" /></g></g></g><g class="toyplot-coordinates-Axis" id="tdf4c5aae806448ed848847903d5def68" transform="translate(65.0,435.0)translate(0,10.0)"><line x1="0" y1="0" x2="169.99999951428572" y2="0" style="stroke-width:1.5" /><g><line x1="0.0" y1="7.5" x2="0.0" y2="0" style="stroke-width:1.5" /><line x1="48.57142857142857" y1="7.5" x2="48.57142857142857" y2="0" style="stroke-width:1.5" /><line x1="97.14285714285714" y1="7.5" x2="97.14285714285714" y2="0" style="stroke-width:1.5" /><line x1="145.7142857142857" y1="7.5" x2="145.7142857142857" y2="0" style="stroke-width:1.5" /><line x1="170.0" y1="7.5" x2="170.0" y2="0" style="stroke-width:1.5" /></g><g><g transform="translate(0.0,15.0)"><text x="-16.68" y="8.555" style="fill:rgb(16.1%,15.3%,14.1%);fill-opacity:1.0;font-family:helvetica;font-size:10.0px;font-weight:normal;stroke:none;vertical-align:baseline;white-space:pre">100000</text></g><g transform="translate(48.57142857142857,15.0)"><text x="-16.68" y="8.555" style="fill:rgb(16.1%,15.3%,14.1%);fill-opacity:1.0;font-family:helvetica;font-size:10.0px;font-weight:normal;stroke:none;vertical-align:baseline;white-space:pre">200000</text></g><g transform="translate(97.14285714285714,15.0)"><text x="-16.68" y="8.555" style="fill:rgb(16.1%,15.3%,14.1%);fill-opacity:1.0;font-family:helvetica;font-size:10.0px;font-weight:normal;stroke:none;vertical-align:baseline;white-space:pre">300000</text></g><g transform="translate(145.7142857142857,15.0)"><text x="-16.68" y="8.555" style="fill:rgb(16.1%,15.3%,14.1%);fill-opacity:1.0;font-family:helvetica;font-size:10.0px;font-weight:normal;stroke:none;vertical-align:baseline;white-space:pre">400000</text></g><g transform="translate(170.0,15.0)"><text x="-16.68" y="8.555" style="fill:rgb(16.1%,15.3%,14.1%);fill-opacity:1.0;font-family:helvetica;font-size:10.0px;font-weight:normal;stroke:none;vertical-align:baseline;white-space:pre">450000</text></g></g><g transform="translate(85.0,35.0)"><text x="-100.02000000000002" y="10.265999999999998" style="fill:rgb(16.1%,15.3%,14.1%);fill-opacity:1.0;font-family:helvetica;font-size:12.0px;font-weight:bold;stroke:none;vertical-align:baseline;white-space:pre">Time of recombination on branch 7</text></g><g class="toyplot-coordinates-Axis-coordinates" style="visibility:hidden" transform=""><line x1="0" x2="0" y1="-7.5" y2="11.25" style="stroke:rgb(43.9%,50.2%,56.5%);stroke-opacity:1.0;stroke-width:1.0" /><text x="0" y="-15.0" style="alignment-baseline:alphabetic;fill:rgb(43.9%,50.2%,56.5%);fill-opacity:1.0;font-size:10px;font-weight:normal;stroke:none;text-anchor:middle" /></g></g><g class="toyplot-coordinates-Axis" id="tf1e6611b58074f0e9a3f9d177d4d59f4" transform="translate(65.0,435.0)rotate(-90.0)translate(0,-10.0)"><line x1="0" y1="0" x2="120.0" y2="0" style="stroke-width:1.5" /><g><line x1="0.0" y1="-7.5" x2="0.0" y2="0" style="stroke-width:1.5" /><line x1="60.0" y1="-7.5" x2="60.0" y2="0" style="stroke-width:1.5" /><line x1="120.0" y1="-7.5" x2="120.0" y2="0" style="stroke-width:1.5" /></g><g><g transform="translate(0.0,-15.0)"><text x="-6.95" y="-4.440892098500626e-16" style="fill:rgb(16.1%,15.3%,14.1%);fill-opacity:1.0;font-family:helvetica;font-size:10.0px;font-weight:normal;stroke:none;vertical-align:baseline;white-space:pre">0.0</text></g><g transform="translate(60.0,-15.0)"><text x="-6.95" y="-4.440892098500626e-16" style="fill:rgb(16.1%,15.3%,14.1%);fill-opacity:1.0;font-family:helvetica;font-size:10.0px;font-weight:normal;stroke:none;vertical-align:baseline;white-space:pre">0.5</text></g><g transform="translate(120.0,-15.0)"><text x="-6.95" y="-4.440892098500626e-16" style="fill:rgb(16.1%,15.3%,14.1%);fill-opacity:1.0;font-family:helvetica;font-size:10.0px;font-weight:normal;stroke:none;vertical-align:baseline;white-space:pre">1.0</text></g></g><g transform="translate(60.0,-35.0)"><text x="-31.008" y="0.0" style="fill:rgb(16.1%,15.3%,14.1%);fill-opacity:1.0;font-family:helvetica;font-size:12.0px;font-weight:bold;stroke:none;vertical-align:baseline;white-space:pre">Probability</text></g><g class="toyplot-coordinates-Axis-coordinates" style="visibility:hidden" transform=""><line x1="0" x2="0" y1="7.5" y2="-11.25" style="stroke:rgb(43.9%,50.2%,56.5%);stroke-opacity:1.0;stroke-width:1.0" /><text x="0" y="15.0" style="alignment-baseline:hanging;fill:rgb(43.9%,50.2%,56.5%);fill-opacity:1.0;font-size:10px;font-weight:normal;stroke:none;text-anchor:middle" /></g></g><g transform="translate(150.0,295.0)"><text x="-60.284" y="-4.823" style="fill:rgb(16.1%,15.3%,14.1%);fill-opacity:1.0;font-family:helvetica;font-size:14.0px;font-weight:bold;stroke:none;vertical-align:baseline;white-space:pre">Prob(tree-change)</text></g></g><g class="toyplot-coordinates-Cartesian" id="t08b9539ed5f745669f3a7064dc7a344c"><clipPath id="tf9fec5e9e83549a398ac191ab60efbdf"><rect x="55.0" y="555.0" width="190.0" height="140.0" /></clipPath><g clip-path="url(#tf9fec5e9e83549a398ac191ab60efbdf)"><g class="toyplot-mark-Plot" style="fill:none" id="t7b6cd94e3eab4da3a26e9bc5b3ff110d"><g class="toyplot-Series"><path d="M 65.0 623.5499766095014 L 65.85 623.5295335142707 L 66.69999999999999 623.5088022029012 L 67.55000000000001 623.4877786119896 L 68.39999999999999 623.4664586208448 L 69.25 623.4448380506803 L 70.1 623.4229126637952 L 70.95 623.4006781627432 L 71.8 623.3781301894912 L 72.64999999999999 623.3552643245641 L 73.5 623.3320760861794 L 74.35 623.3085609293678 L 75.19999999999999 623.2847142450836 L 76.05000000000001 623.2605313593001 L 76.9 623.2360075320944 L 77.75 623.2111379567178 L 78.60000000000001 623.185917758654 L 79.45 623.1603419946634 L 80.3 623.1344056518142 L 81.15 623.1081036465005 L 82.0 623.0814308234447 L 82.85000000000001 623.0543819546884 L 83.7 623.0269517385666 L 84.55 622.9991347986692 L 85.4 622.9709256827866 L 86.25 622.9423188618423 L 87.1 622.9133087288076 L 87.95 622.8838895976032 L 88.80000000000001 622.8540557019858 L 89.64999999999999 622.823801194416 L 90.5 622.7931201449135 L 91.35 622.7620065398943 L 92.2 622.7304542809924 L 93.05 622.6984571838639 L 93.9 622.6660089769755 L 94.75 622.6331033003745 L 95.6 622.5997337044432 L 96.44999999999999 622.5658936486338 L 97.30000000000001 622.5315765001872 L 98.15 622.4967755328323 L 99.0 622.4614839254681 L 99.85 622.4256947608266 L 100.7 622.389401024117 L 101.55 622.3525956016506 L 102.4 622.315271279447 L 103.25 622.2774207418192 L 104.10000000000001 622.2390365699409 L 104.94999999999999 622.2001112403916 L 105.8 622.1606371236819 L 106.65 622.1206064827586 L 107.5 622.080011471488 L 108.35 622.0388441331179 L 109.2 621.9970963987182 L 110.05000000000001 621.9547600855992 L 110.9 621.9118268957081 L 111.75 621.8682884140024 L 112.60000000000001 621.8241361068001 L 113.45 621.7793613201075 L 114.29999999999998 622.0775596308276 L 115.15 622.439980483156 L 116.0 622.810092649527 L 116.85 623.1880593554044 L 117.69999999999999 623.5740472902312 L 118.55000000000001 623.9682266809425 L 119.4 624.3707713670378 L 120.25 624.7818588772478 L 121.1 625.2016705078271 L 121.95000000000002 625.6303914025085 L 122.8 626.068210634155 L 123.64999999999999 626.5153212881434 L 124.5 626.9719205475183 L 125.35 627.4382097799535 L 126.19999999999999 627.9143946265573 L 127.04999999999998 628.4006850925648 L 127.9 628.8972956399527 L 128.75 629.4044452820211 L 129.6 629.9223576799814 L 130.45000000000002 630.4512612415949 L 131.3 630.9913892219043 L 132.15 631.5429798261027 L 133.0 632.1062763145861 L 133.85000000000002 632.6815271102354 L 134.7 633.2689859079744 L 135.54999999999998 633.868911786654 L 136.4 634.4815693233097 L 137.25 635.1072287098443 L 138.1 635.7461658721876 L 138.95 636.3986625919831 L 139.8 637.0650066308596 L 140.65 637.7454918573374 L 141.5 638.44041837643 L 142.35 639.1500926619951 L 143.20000000000002 639.8748276918944 L 144.05 640.6149430860218 L 144.89999999999998 641.3707652472609 L 145.75 642.1426275054348 L 146.6 642.9308702643086 L 147.45 643.7358411517141 L 148.29999999999998 644.5578951728589 L 149.15 645.3973948668893 L 150.0 646.254710466776 L 150.85 647.1302200625933 L 151.70000000000002 648.024309768262 L 152.55 648.9373738918331 L 153.4 649.869815109383 L 154.25 650.8220446426008 L 155.10000000000002 651.7944824401432 L 155.95000000000002 652.7875573628393 L 156.8 653.8017073728248 L 157.65 654.8373797266904 L 158.5 655.8950311727294 L 159.35000000000002 656.9751281523706 L 160.20000000000002 658.0781470058874 L 161.04999999999998 659.2045741824708 L 161.89999999999998 660.3549064547615 L 162.75 660.4436949599207 L 163.6 660.097488901632 L 164.45 659.7464018714462 L 165.3 659.3903650551816 L 166.14999999999998 659.0293086684824 L 167.0 658.6631619431407 L 167.85 658.2918531132264 L 168.7 657.91530940102 L 169.55 657.5334570027485 L 170.39999999999998 657.1462210741194 L 171.25 656.753525715651 L 172.10000000000002 656.3552939577959 L 172.95 655.9514477458547 L 173.8 655.541907924677 L 174.65 655.1265942231468 L 175.5 654.7054252384489 L 176.35000000000002 654.278318420114 L 177.2 653.8451900538386 L 178.05 653.405955245076 L 178.9 652.9605279023979 L 179.75 652.5088207206188 L 180.60000000000002 652.0507451636854 L 181.45000000000002 651.5862114473216 L 182.29999999999998 651.1151285214322 L 183.14999999999998 650.6374040522555 L 184.0 650.1529444042662 L 184.85 649.6616546218224 L 185.7 649.163438410554 L 186.55 648.6581981184884 L 187.39999999999998 648.1458347169112 L 188.25 647.626247780955 L 189.1 647.0993354699175 L 189.95 646.5649945072985 L 190.8 646.023120160559 L 191.64999999999998 645.473606220592 L 192.5 644.9163449809064 L 193.35000000000002 644.351227216515 L 194.2 643.7781421625269 L 195.05 643.196977492437 L 195.9 642.6076192961092 L 196.75 642.0099520574505 L 197.60000000000002 641.4038586317686 L 198.45 640.7892202228119 L 199.3 640.1659163594845 L 200.15 639.5338248722337 L 201.0 638.8928218691046 L 201.85000000000002 638.2427817114565 L 202.70000000000002 637.5835769893373 L 203.54999999999998 636.9150784965113 L 204.39999999999998 636.2371552051337 L 205.25 635.5496742400692 L 206.1 634.8525008528477 L 206.95 634.1454983952535 L 207.8 633.4285282925416 L 208.64999999999998 632.7014500162763 L 209.5 631.9641210567881 L 210.35 631.2163968952405 L 211.2 630.7224181365337 L 212.05 630.4194185569681 L 212.89999999999998 630.1099887046789 L 213.75 629.7939921160863 L 214.60000000000002 629.4712894315733 L 215.45 629.1417383340258 L 216.3 628.8051934860691 L 217.15 628.4615064659706 L 218.0 628.1105257021845 L 218.85000000000002 627.7520964065056 L 219.7 627.3860605058053 L 220.55 627.0122565723193 L 221.4 626.6305197524543 L 222.25 626.2406816940863 L 223.10000000000002 625.8425704723135 L 223.95000000000002 625.4360105136345 L 224.79999999999998 625.0208225185189 L 225.65 624.5968233823315 L 226.5 624.1638261145818 L 227.35 623.7216397564569 L 228.2 623.2700692966064 L 229.05 622.8089155851392 L 229.89999999999998 622.3379752457943 L 230.75 621.8570405862495 L 231.6 621.3658995065257 L 232.45 620.8643354054466 L 233.3 620.352127085115 L 234.14999999999998 619.8290486533599" style="stroke:rgb(40%,76.1%,64.7%);stroke-opacity:1.0;stroke-width:5.0" /></g></g><g class="toyplot-mark-FillBoundaries" style="stroke:none" id="t76e2576dea8f41bbbc5fda0b376d65c1"><polygon points="65.0,685.0 65.85,685.0 66.69999999999999,685.0 67.55000000000001,685.0 68.39999999999999,685.0 69.25,685.0 70.1,685.0 70.95,685.0 71.8,685.0 72.64999999999999,685.0 73.5,685.0 74.35,685.0 75.19999999999999,685.0 76.05000000000001,685.0 76.9,685.0 77.75,685.0 78.60000000000001,685.0 79.45,685.0 80.3,685.0 81.15,685.0 82.0,685.0 82.85000000000001,685.0 83.7,685.0 84.55,685.0 85.4,685.0 86.25,685.0 87.1,685.0 87.95,685.0 88.80000000000001,685.0 89.64999999999999,685.0 90.5,685.0 91.35,685.0 92.2,685.0 93.05,685.0 93.9,685.0 94.75,685.0 95.6,685.0 96.44999999999999,685.0 97.30000000000001,685.0 98.15,685.0 99.0,685.0 99.85,685.0 100.7,685.0 101.55,685.0 102.4,685.0 103.25,685.0 104.10000000000001,685.0 104.94999999999999,685.0 105.8,685.0 106.65,685.0 107.5,685.0 108.35,685.0 109.2,685.0 110.05000000000001,685.0 110.9,685.0 111.75,685.0 112.60000000000001,685.0 113.45,685.0 114.29999999999998,685.0 115.15,685.0 116.0,685.0 116.85,685.0 117.69999999999999,685.0 118.55000000000001,685.0 119.4,685.0 120.25,685.0 121.1,685.0 121.95000000000002,685.0 122.8,685.0 123.64999999999999,685.0 124.5,685.0 125.35,685.0 126.19999999999999,685.0 127.04999999999998,685.0 127.9,685.0 128.75,685.0 129.6,685.0 130.45000000000002,685.0 131.3,685.0 132.15,685.0 133.0,685.0 133.85000000000002,685.0 134.7,685.0 135.54999999999998,685.0 136.4,685.0 137.25,685.0 138.1,685.0 138.95,685.0 139.8,685.0 140.65,685.0 141.5,685.0 142.35,685.0 143.20000000000002,685.0 144.05,685.0 144.89999999999998,685.0 145.75,685.0 146.6,685.0 147.45,685.0 148.29999999999998,685.0 149.15,685.0 150.0,685.0 150.85,685.0 151.70000000000002,685.0 152.55,685.0 153.4,685.0 154.25,685.0 155.10000000000002,685.0 155.95000000000002,685.0 156.8,685.0 157.65,685.0 158.5,685.0 159.35000000000002,685.0 160.20000000000002,685.0 161.04999999999998,685.0 161.89999999999998,685.0 162.75,685.0 163.6,685.0 164.45,685.0 165.3,685.0 166.14999999999998,685.0 167.0,685.0 167.85,685.0 168.7,685.0 169.55,685.0 170.39999999999998,685.0 171.25,685.0 172.10000000000002,685.0 172.95,685.0 173.8,685.0 174.65,685.0 175.5,685.0 176.35000000000002,685.0 177.2,685.0 178.05,685.0 178.9,685.0 179.75,685.0 180.60000000000002,685.0 181.45000000000002,685.0 182.29999999999998,685.0 183.14999999999998,685.0 184.0,685.0 184.85,685.0 185.7,685.0 186.55,685.0 187.39999999999998,685.0 188.25,685.0 189.1,685.0 189.95,685.0 190.8,685.0 191.64999999999998,685.0 192.5,685.0 193.35000000000002,685.0 194.2,685.0 195.05,685.0 195.9,685.0 196.75,685.0 197.60000000000002,685.0 198.45,685.0 199.3,685.0 200.15,685.0 201.0,685.0 201.85000000000002,685.0 202.70000000000002,685.0 203.54999999999998,685.0 204.39999999999998,685.0 205.25,685.0 206.1,685.0 206.95,685.0 207.8,685.0 208.64999999999998,685.0 209.5,685.0 210.35,685.0 211.2,685.0 212.05,685.0 212.89999999999998,685.0 213.75,685.0 214.60000000000002,685.0 215.45,685.0 216.3,685.0 217.15,685.0 218.0,685.0 218.85000000000002,685.0 219.7,685.0 220.55,685.0 221.4,685.0 222.25,685.0 223.10000000000002,685.0 223.95000000000002,685.0 224.79999999999998,685.0 225.65,685.0 226.5,685.0 227.35,685.0 228.2,685.0 229.05,685.0 229.89999999999998,685.0 230.75,685.0 231.6,685.0 232.45,685.0 233.3,685.0 234.14999999999998,685.0 234.14999999999998,619.8290486533599 233.3,620.352127085115 232.45,620.8643354054466 231.6,621.3658995065257 230.75,621.8570405862495 229.89999999999998,622.3379752457943 229.05,622.8089155851392 228.2,623.2700692966064 227.35,623.7216397564569 226.5,624.1638261145818 225.65,624.5968233823315 224.79999999999998,625.0208225185189 223.95000000000002,625.4360105136345 223.10000000000002,625.8425704723135 222.25,626.2406816940863 221.4,626.6305197524543 220.55,627.0122565723193 219.7,627.3860605058053 218.85000000000002,627.7520964065056 218.0,628.1105257021845 217.15,628.4615064659706 216.3,628.8051934860691 215.45,629.1417383340258 214.60000000000002,629.4712894315733 213.75,629.7939921160863 212.89999999999998,630.1099887046789 212.05,630.4194185569681 211.2,630.7224181365337 210.35,631.2163968952405 209.5,631.9641210567881 208.64999999999998,632.7014500162763 207.8,633.4285282925416 206.95,634.1454983952535 206.1,634.8525008528477 205.25,635.5496742400692 204.39999999999998,636.2371552051337 203.54999999999998,636.9150784965113 202.70000000000002,637.5835769893373 201.85000000000002,638.2427817114565 201.0,638.8928218691046 200.15,639.5338248722337 199.3,640.1659163594845 198.45,640.7892202228119 197.60000000000002,641.4038586317686 196.75,642.0099520574505 195.9,642.6076192961092 195.05,643.196977492437 194.2,643.7781421625269 193.35000000000002,644.351227216515 192.5,644.9163449809064 191.64999999999998,645.473606220592 190.8,646.023120160559 189.95,646.5649945072985 189.1,647.0993354699175 188.25,647.626247780955 187.39999999999998,648.1458347169112 186.55,648.6581981184884 185.7,649.163438410554 184.85,649.6616546218224 184.0,650.1529444042662 183.14999999999998,650.6374040522555 182.29999999999998,651.1151285214322 181.45000000000002,651.5862114473216 180.60000000000002,652.0507451636854 179.75,652.5088207206188 178.9,652.9605279023979 178.05,653.405955245076 177.2,653.8451900538386 176.35000000000002,654.278318420114 175.5,654.7054252384489 174.65,655.1265942231468 173.8,655.541907924677 172.95,655.9514477458547 172.10000000000002,656.3552939577959 171.25,656.753525715651 170.39999999999998,657.1462210741194 169.55,657.5334570027485 168.7,657.91530940102 167.85,658.2918531132264 167.0,658.6631619431407 166.14999999999998,659.0293086684824 165.3,659.3903650551816 164.45,659.7464018714462 163.6,660.097488901632 162.75,660.4436949599207 161.89999999999998,660.3549064547615 161.04999999999998,659.2045741824708 160.20000000000002,658.0781470058874 159.35000000000002,656.9751281523706 158.5,655.8950311727294 157.65,654.8373797266904 156.8,653.8017073728248 155.95000000000002,652.7875573628393 155.10000000000002,651.7944824401432 154.25,650.8220446426008 153.4,649.869815109383 152.55,648.9373738918331 151.70000000000002,648.024309768262 150.85,647.1302200625933 150.0,646.254710466776 149.15,645.3973948668893 148.29999999999998,644.5578951728589 147.45,643.7358411517141 146.6,642.9308702643086 145.75,642.1426275054348 144.89999999999998,641.3707652472609 144.05,640.6149430860218 143.20000000000002,639.8748276918944 142.35,639.1500926619951 141.5,638.44041837643 140.65,637.7454918573374 139.8,637.0650066308596 138.95,636.3986625919831 138.1,635.7461658721876 137.25,635.1072287098443 136.4,634.4815693233097 135.54999999999998,633.868911786654 134.7,633.2689859079744 133.85000000000002,632.6815271102354 133.0,632.1062763145861 132.15,631.5429798261027 131.3,630.9913892219043 130.45000000000002,630.4512612415949 129.6,629.9223576799814 128.75,629.4044452820211 127.9,628.8972956399527 127.04999999999998,628.4006850925648 126.19999999999999,627.9143946265573 125.35,627.4382097799535 124.5,626.9719205475183 123.64999999999999,626.5153212881434 122.8,626.068210634155 121.95000000000002,625.6303914025085 121.1,625.2016705078271 120.25,624.7818588772478 119.4,624.3707713670378 118.55000000000001,623.9682266809425 117.69999999999999,623.5740472902312 116.85,623.1880593554044 116.0,622.810092649527 115.15,622.439980483156 114.29999999999998,622.0775596308276 113.45,621.7793613201075 112.60000000000001,621.8241361068001 111.75,621.8682884140024 110.9,621.9118268957081 110.05000000000001,621.9547600855992 109.2,621.9970963987182 108.35,622.0388441331179 107.5,622.080011471488 106.65,622.1206064827586 105.8,622.1606371236819 104.94999999999999,622.2001112403916 104.10000000000001,622.2390365699409 103.25,622.2774207418192 102.4,622.315271279447 101.55,622.3525956016506 100.7,622.389401024117 99.85,622.4256947608266 99.0,622.4614839254681 98.15,622.4967755328323 97.30000000000001,622.5315765001872 96.44999999999999,622.5658936486338 95.6,622.5997337044432 94.75,622.6331033003745 93.9,622.6660089769755 93.05,622.6984571838639 92.2,622.7304542809924 91.35,622.7620065398943 90.5,622.7931201449135 89.64999999999999,622.823801194416 88.80000000000001,622.8540557019858 87.95,622.8838895976032 87.1,622.9133087288076 86.25,622.9423188618423 85.4,622.9709256827866 84.55,622.9991347986692 83.7,623.0269517385666 82.85000000000001,623.0543819546884 82.0,623.0814308234447 81.15,623.1081036465005 80.3,623.1344056518142 79.45,623.1603419946634 78.60000000000001,623.185917758654 77.75,623.2111379567178 76.9,623.2360075320944 76.05000000000001,623.2605313593001 75.19999999999999,623.2847142450836 74.35,623.3085609293678 73.5,623.3320760861794 72.64999999999999,623.3552643245641 71.8,623.3781301894912 70.95,623.4006781627432 70.1,623.4229126637952 69.25,623.4448380506803 68.39999999999999,623.4664586208448 67.55000000000001,623.4877786119896 66.69999999999999,623.5088022029012 65.85,623.5295335142707 65.0,623.5499766095014" style="fill:rgb(40%,76.1%,64.7%);fill-opacity:1.0;opacity:0.33;stroke:none" /></g><g class="toyplot-mark-Plot" style="fill:none;stroke:rgb(0%,0%,0%);stroke-dasharray:4,2;stroke-opacity:1.0;stroke-width:2" id="t600b3396270641fe83e46eb84250ab89"><g class="toyplot-Series"><path d="M 65.0 685.0 L 65.0 623.5499766095014" style="stroke:rgb(0%,0%,0%);stroke-dasharray:4,2;stroke-opacity:1.0;stroke-width:2" /></g></g><g class="toyplot-mark-Plot" style="fill:none;stroke:rgb(0%,0%,0%);stroke-dasharray:4,2;stroke-opacity:1.0;stroke-width:2" id="t9b62a089167d4e7d814c46c27d544e2d"><g class="toyplot-Series"><path d="M 113.5714280857143 685.0 L 113.5714280857143 621.7729136229907" style="stroke:rgb(0%,0%,0%);stroke-dasharray:4,2;stroke-opacity:1.0;stroke-width:2" /></g></g><g class="toyplot-mark-Plot" style="fill:none;stroke:rgb(0%,0%,0%);stroke-dasharray:4,2;stroke-opacity:1.0;stroke-width:2" id="t0bda9a9b8db8456f8e7129fd9881d439"><g class="toyplot-Series"><path d="M 162.14285665714286 685.0 L 162.14285665714286 660.6880336093192" style="stroke:rgb(0%,0%,0%);stroke-dasharray:4,2;stroke-opacity:1.0;stroke-width:2" /></g></g><g class="toyplot-mark-Plot" style="fill:none;stroke:rgb(0%,0%,0%);stroke-dasharray:4,2;stroke-opacity:1.0;stroke-width:2" id="td44e0b7a26db47f4833bd12121bb79b4"><g class="toyplot-Series"><path d="M 210.71428522857144 685.0 L 210.71428522857144 630.8927256654966" style="stroke:rgb(0%,0%,0%);stroke-dasharray:4,2;stroke-opacity:1.0;stroke-width:2" /></g></g><g class="toyplot-mark-Plot" style="fill:none;stroke:rgb(0%,0%,0%);stroke-dasharray:4,2;stroke-opacity:1.0;stroke-width:2" id="tdc0ce3e1ac994b16a6688fb9410ac52b"><g class="toyplot-Series"><path d="M 234.99999951428572 685.0 L 234.99999951428572 619.2948697325774" style="stroke:rgb(0%,0%,0%);stroke-dasharray:4,2;stroke-opacity:1.0;stroke-width:2" /></g></g></g><g class="toyplot-coordinates-Axis" id="teff858e5083043d9bf65a7f2af57b36e" transform="translate(65.0,685.0)translate(0,10.0)"><line x1="0" y1="0" x2="169.99999951428572" y2="0" style="stroke-width:1.5" /><g><line x1="0.0" y1="7.5" x2="0.0" y2="0" style="stroke-width:1.5" /><line x1="48.57142857142857" y1="7.5" x2="48.57142857142857" y2="0" style="stroke-width:1.5" /><line x1="97.14285714285714" y1="7.5" x2="97.14285714285714" y2="0" style="stroke-width:1.5" /><line x1="145.7142857142857" y1="7.5" x2="145.7142857142857" y2="0" style="stroke-width:1.5" /><line x1="170.0" y1="7.5" x2="170.0" y2="0" style="stroke-width:1.5" /></g><g><g transform="translate(0.0,15.0)"><text x="-16.68" y="8.555" style="fill:rgb(16.1%,15.3%,14.1%);fill-opacity:1.0;font-family:helvetica;font-size:10.0px;font-weight:normal;stroke:none;vertical-align:baseline;white-space:pre">100000</text></g><g transform="translate(48.57142857142857,15.0)"><text x="-16.68" y="8.555" style="fill:rgb(16.1%,15.3%,14.1%);fill-opacity:1.0;font-family:helvetica;font-size:10.0px;font-weight:normal;stroke:none;vertical-align:baseline;white-space:pre">200000</text></g><g transform="translate(97.14285714285714,15.0)"><text x="-16.68" y="8.555" style="fill:rgb(16.1%,15.3%,14.1%);fill-opacity:1.0;font-family:helvetica;font-size:10.0px;font-weight:normal;stroke:none;vertical-align:baseline;white-space:pre">300000</text></g><g transform="translate(145.7142857142857,15.0)"><text x="-16.68" y="8.555" style="fill:rgb(16.1%,15.3%,14.1%);fill-opacity:1.0;font-family:helvetica;font-size:10.0px;font-weight:normal;stroke:none;vertical-align:baseline;white-space:pre">400000</text></g><g transform="translate(170.0,15.0)"><text x="-16.68" y="8.555" style="fill:rgb(16.1%,15.3%,14.1%);fill-opacity:1.0;font-family:helvetica;font-size:10.0px;font-weight:normal;stroke:none;vertical-align:baseline;white-space:pre">450000</text></g></g><g transform="translate(85.0,35.0)"><text x="-100.02000000000002" y="10.265999999999998" style="fill:rgb(16.1%,15.3%,14.1%);fill-opacity:1.0;font-family:helvetica;font-size:12.0px;font-weight:bold;stroke:none;vertical-align:baseline;white-space:pre">Time of recombination on branch 7</text></g><g class="toyplot-coordinates-Axis-coordinates" style="visibility:hidden" transform=""><line x1="0" x2="0" y1="-7.5" y2="11.25" style="stroke:rgb(43.9%,50.2%,56.5%);stroke-opacity:1.0;stroke-width:1.0" /><text x="0" y="-15.0" style="alignment-baseline:alphabetic;fill:rgb(43.9%,50.2%,56.5%);fill-opacity:1.0;font-size:10px;font-weight:normal;stroke:none;text-anchor:middle" /></g></g><g class="toyplot-coordinates-Axis" id="t43db2274be094564a6ff90dd938a1ae1" transform="translate(65.0,685.0)rotate(-90.0)translate(0,-10.0)"><line x1="0" y1="0" x2="120.0" y2="0" style="stroke-width:1.5" /><g><line x1="0.0" y1="-7.5" x2="0.0" y2="0" style="stroke-width:1.5" /><line x1="60.0" y1="-7.5" x2="60.0" y2="0" style="stroke-width:1.5" /><line x1="120.0" y1="-7.5" x2="120.0" y2="0" style="stroke-width:1.5" /></g><g><g transform="translate(0.0,-15.0)"><text x="-6.95" y="-4.440892098500626e-16" style="fill:rgb(16.1%,15.3%,14.1%);fill-opacity:1.0;font-family:helvetica;font-size:10.0px;font-weight:normal;stroke:none;vertical-align:baseline;white-space:pre">0.0</text></g><g transform="translate(60.0,-15.0)"><text x="-6.95" y="-4.440892098500626e-16" style="fill:rgb(16.1%,15.3%,14.1%);fill-opacity:1.0;font-family:helvetica;font-size:10.0px;font-weight:normal;stroke:none;vertical-align:baseline;white-space:pre">0.5</text></g><g transform="translate(120.0,-15.0)"><text x="-6.95" y="-4.440892098500626e-16" style="fill:rgb(16.1%,15.3%,14.1%);fill-opacity:1.0;font-family:helvetica;font-size:10.0px;font-weight:normal;stroke:none;vertical-align:baseline;white-space:pre">1.0</text></g></g><g transform="translate(60.0,-35.0)"><text x="-31.008" y="0.0" style="fill:rgb(16.1%,15.3%,14.1%);fill-opacity:1.0;font-family:helvetica;font-size:12.0px;font-weight:bold;stroke:none;vertical-align:baseline;white-space:pre">Probability</text></g><g class="toyplot-coordinates-Axis-coordinates" style="visibility:hidden" transform=""><line x1="0" x2="0" y1="7.5" y2="-11.25" style="stroke:rgb(43.9%,50.2%,56.5%);stroke-opacity:1.0;stroke-width:1.0" /><text x="0" y="15.0" style="alignment-baseline:hanging;fill:rgb(43.9%,50.2%,56.5%);fill-opacity:1.0;font-size:10px;font-weight:normal;stroke:none;text-anchor:middle" /></g></g><g transform="translate(150.0,545.0)"><text x="-62.608000000000004" y="-4.823" style="fill:rgb(16.1%,15.3%,14.1%);fill-opacity:1.0;font-family:helvetica;font-size:14.0px;font-weight:bold;stroke:none;vertical-align:baseline;white-space:pre">Prob(topo-change)</text></g></g></svg>