<svg class="toyplot-canvas-Canvas" xmlns:toyplot="http://www.sandia.gov/toyplot" xmlns:xlink="http://www.w3.org/1999/xlink" xmlns="http://www.w3.org/2000/svg" width="300.0px" height="750.0px" viewBox="0 0 300.0 750.0" preserveAspectRatio="xMidYMid meet" style="background-color:transparent;border-color:#292724;border-style:none;border-width:1.0;fill:rgb(16.1%,15.3%,14.1%);fill-opacity:1.0;font-family:Helvetica;font-size:12px;opacity:1.0;stroke:rgb(16.1%,15.3%,14.1%);stroke-opacity:1.0;stroke-width:1.0" id="t5c910acc98ed4dcb8fecf1ac6abd55c8"><g class="toyplot-coordinates-Cartesian" id="ta4e39e322b9f42399c01bd3ae67113cf"><clipPath id="t8e9638e7a96d44b29945caad02cb1066"><rect x="55.0" y="55.0" width="190.0" height="140.0" /></clipPath><g clip-path="url(#t8e9638e7a96d44b29945caad02cb1066)"><g class="toyplot-mark-Plot" style="fill:none" id="t8f77ac62a0254e229168ba055dd201a4"><g class="toyplot-Series"><path d="M 65.0 125.00000004122309 L 65.85 125.00000005849833 L 66.69999999999999 125.00000008301308 L 67.55000000000001 125.00000011780116 L 68.39999999999999 125.0000001671678 L 69.25 125.0000002372224 L 70.1 125.00000033663463 L 70.95 125.00000047770726 L 71.8 125.00000067789887 L 72.64999999999999 125.00000096198428 L 73.5 125.00000136512068 L 74.35 125.00000193719846 L 75.19999999999999 125.00000274901547 L 76.05000000000001 125.00000390103861 L 76.9 125.00000553583732 L 77.75 125.00000785572706 L 78.60000000000001 125.0000111478074 L 79.45 125.0000158194917 L 80.3 125.00002244892731 L 81.15 125.00003185654421 L 82.0 125.00004520658814 L 82.85000000000001 125.00006415120221 L 83.7 125.00009103488927 L 84.55 125.00012918465711 L 85.4 125.00018332175472 L 86.25 125.00026014595306 L 87.1 125.00036916467991 L 87.95 125.00052386961735 L 88.80000000000001 125.00074340637369 L 89.64999999999999 125.00105494386031 L 90.5 125.00149703659775 L 91.35 125.00212439605494 L 92.2 125.00301466150191 L 93.05 125.00427800830735 L 93.9 125.00607078276158 L 94.75 125.00861485081151 L 95.6 125.01222505522259 L 96.44999999999999 125.01734817914613 L 97.30000000000001 125.02461823805346 L 98.15 125.03493494272523 L 99.0 125.04957504353334 L 99.85 125.07035033549825 L 100.7 125.09983187813819 L 101.55 125.14166817858103 L 102.4 125.20103671489267 L 103.25 125.28528467817996 L 104.10000000000001 125.40483822891605 L 104.94999999999999 125.57449279308474 L 105.8 125.81524407956726 L 106.65 126.15688641749668 L 107.5 126.64169997247782 L 108.35 127.32968315546974 L 109.2 128.30597776443145 L 110.05000000000001 129.69140576187553 L 110.9 131.65742167396098 L 111.75 134.44733105481941 L 112.60000000000001 138.40640092071155 L 113.45 144.02458849001255 L 114.29999999999998 144.99999999999707 L 115.15 144.99999999999503 L 116.0 144.99999999999162 L 116.85 144.99999999998582 L 117.69999999999999 144.99999999997604 L 118.55000000000001 144.99999999995947 L 119.4 144.9999999999315 L 120.25 144.9999999998842 L 121.1 144.9999999998043 L 121.95000000000002 144.99999999966914 L 122.8 144.99999999944066 L 123.64999999999999 144.99999999905447 L 124.5 144.9999999984016 L 125.35 144.99999999729798 L 126.19999999999999 144.99999999543235 L 127.04999999999998 144.9999999922786 L 127.9 144.99999998694724 L 128.75 144.9999999779349 L 129.6 144.99999996269983 L 130.45000000000002 144.99999993694558 L 131.3 144.99999989340913 L 132.15 144.99999981981247 L 133.0 144.99999969540042 L 133.85000000000002 144.9999994850869 L 134.7 144.99999912956065 L 135.54999999999998 144.99999852855805 L 136.4 144.99999751258795 L 137.25 144.9999957951323 L 138.1 144.9999928918442 L 138.95 144.99998798395512 L 139.8 144.99997968737063 L 140.65 144.99996566233594 L 141.5 144.99994195359196 L 142.35 144.99990187493592 L 143.20000000000002 144.99983412361715 L 144.05 144.99971959280083 L 144.89999999999998 144.999525983169 L 145.75 144.9991986940538 L 146.6 144.99864542527297 L 147.45 144.9977101471669 L 148.29999999999998 144.9961290980168 L 149.15 144.99345639949132 L 150.0 144.98893831261987 L 150.85 144.9813006726902 L 151.70000000000002 144.96838955669043 L 152.55 144.94656384640615 L 153.4 144.90966838133392 L 154.25 144.84729811593755 L 155.10000000000002 144.74186374892247 L 155.95000000000002 144.56363129027855 L 156.8 144.26233665349565 L 157.65 143.75301046877675 L 158.5 142.8920155131076 L 159.35000000000002 141.43653897188688 L 160.20000000000002 138.97611577417203 L 161.04999999999998 134.81687160883797 L 161.89999999999998 127.78584050697975 L 162.75 125.00000005293148 L 163.6 125.00000007511338 L 164.45 125.00000010659096 L 165.3 125.00000015125977 L 166.14999999999998 125.00000021464786 L 167.0 125.0000003045998 L 167.85 125.00000043224767 L 168.7 125.00000061338864 L 169.55 125.00000087043989 L 170.39999999999998 125.00000123521303 L 171.25 125.00000175285072 L 172.10000000000002 125.00000248741357 L 172.95 125.00000352980788 L 173.8 125.00000500903579 L 174.65 125.00000710816018 L 175.5 125.00001008695943 L 176.35000000000002 125.00001431407676 L 177.2 125.00002031264185 L 178.05 125.00002882501087 L 178.9 125.00004090463752 L 179.75 125.00005804644367 L 180.60000000000002 125.00008237182455 L 181.45000000000002 125.00011689118313 L 182.29999999999998 125.00016587648471 L 183.14999999999998 125.00023538993649 L 184.0 125.00033403422017 L 184.85 125.00047401712196 L 185.7 125.00067266231525 L 186.55 125.00095455326273 L 187.39999999999998 125.00135457555855 L 188.25 125.00192223421726 L 189.1 125.00272778019851 L 189.95 125.00387090435939 L 190.8 125.00549307476011 L 191.64999999999998 125.0077950441341 L 192.5 125.01106169417054 L 193.35000000000002 125.01569729122988 L 194.2 125.02227551658515 L 195.05 125.03161046271413 L 195.9 125.04485738183367 L 196.75 125.06365565487499 L 197.60000000000002 125.09033167411755 L 198.45 125.12818674735031 L 199.3 125.18190565332456 L 200.15 125.25813640953857 L 201.0 125.36631300188654 L 201.85000000000002 125.51982289360498 L 202.70000000000002 125.73766379933065 L 203.54999999999998 126.04679475940215 L 204.39999999999998 126.48547247310508 L 205.25 127.10798578091199 L 206.1 127.99137421458823 L 206.95 129.2449620736208 L 207.8 131.02388792368436 L 208.64999999999998 133.54830386886337 L 209.5 137.13062061581812 L 210.35 142.214170060204 L 211.2 145.0 L 212.05 145.0 L 212.89999999999998 145.0 L 213.75 145.0 L 214.60000000000002 145.0 L 215.45 145.0 L 216.3 145.0 L 217.15 145.0 L 218.0 145.0 L 218.85000000000002 145.0 L 219.7 145.0 L 220.55 145.0 L 221.4 145.0 L 222.25 145.0 L 223.10000000000002 145.0 L 223.95000000000002 145.0 L 224.79999999999998 145.0 L 225.65 145.0 L 226.5 145.0 L 227.35 145.0 L 228.2 145.0 L 229.05 145.0 L 229.89999999999998 145.0 L 230.75 145.0 L 231.6 145.0 L 232.45 145.0 L 233.3 145.0 L 234.14999999999998 145.0" style="stroke:rgb(40%,76.1%,64.7%);stroke-opacity:1.0;stroke-width:5.0" /></g></g><g class="toyplot-mark-FillBoundaries" style="stroke:none" id="t3245c1b9a126495ba9d85658f5257e79"><polygon points="65.0,185.0 65.85,185.0 66.69999999999999,185.0 67.55000000000001,185.0 68.39999999999999,185.0 69.25,185.0 70.1,185.0 70.95,185.0 71.8,185.0 72.64999999999999,185.0 73.5,185.0 74.35,185.0 75.19999999999999,185.0 76.05000000000001,185.0 76.9,185.0 77.75,185.0 78.60000000000001,185.0 79.45,185.0 80.3,185.0 81.15,185.0 82.0,185.0 82.85000000000001,185.0 83.7,185.0 84.55,185.0 85.4,185.0 86.25,185.0 87.1,185.0 87.95,185.0 88.80000000000001,185.0 89.64999999999999,185.0 90.5,185.0 91.35,185.0 92.2,185.0 93.05,185.0 93.9,185.0 94.75,185.0 95.6,185.0 96.44999999999999,185.0 97.30000000000001,185.0 98.15,185.0 99.0,185.0 99.85,185.0 100.7,185.0 101.55,185.0 102.4,185.0 103.25,185.0 104.10000000000001,185.0 104.94999999999999,185.0 105.8,185.0 106.65,185.0 107.5,185.0 108.35,185.0 109.2,185.0 110.05000000000001,185.0 110.9,185.0 111.75,185.0 112.60000000000001,185.0 113.45,185.0 114.29999999999998,185.0 115.15,185.0 116.0,185.0 116.85,185.0 117.69999999999999,185.0 118.55000000000001,185.0 119.4,185.0 120.25,185.0 121.1,185.0 121.95000000000002,185.0 122.8,185.0 123.64999999999999,185.0 124.5,185.0 125.35,185.0 126.19999999999999,185.0 127.04999999999998,185.0 127.9,185.0 128.75,185.0 129.6,185.0 130.45000000000002,185.0 131.3,185.0 132.15,185.0 133.0,185.0 133.85000000000002,185.0 134.7,185.0 135.54999999999998,185.0 136.4,185.0 137.25,185.0 138.1,185.0 138.95,185.0 139.8,185.0 140.65,185.0 141.5,185.0 142.35,185.0 143.20000000000002,185.0 144.05,185.0 144.89999999999998,185.0 145.75,185.0 146.6,185.0 147.45,185.0 148.29999999999998,185.0 149.15,185.0 150.0,185.0 150.85,185.0 151.70000000000002,185.0 152.55,185.0 153.4,185.0 154.25,185.0 155.10000000000002,185.0 155.95000000000002,185.0 156.8,185.0 157.65,185.0 158.5,185.0 159.35000000000002,185.0 160.20000000000002,185.0 161.04999999999998,185.0 161.89999999999998,185.0 162.75,185.0 163.6,185.0 164.45,185.0 165.3,185.0 166.14999999999998,185.0 167.0,185.0 167.85,185.0 168.7,185.0 169.55,185.0 170.39999999999998,185.0 171.25,185.0 172.10000000000002,185.0 172.95,185.0 173.8,185.0 174.65,185.0 175.5,185.0 176.35000000000002,185.0 177.2,185.0 178.05,185.0 178.9,185.0 179.75,185.0 180.60000000000002,185.0 181.45000000000002,185.0 182.29999999999998,185.0 183.14999999999998,185.0 184.0,185.0 184.85,185.0 185.7,185.0 186.55,185.0 187.39999999999998,185.0 188.25,185.0 189.1,185.0 189.95,185.0 190.8,185.0 191.64999999999998,185.0 192.5,185.0 193.35000000000002,185.0 194.2,185.0 195.05,185.0 195.9,185.0 196.75,185.0 197.60000000000002,185.0 198.45,185.0 199.3,185.0 200.15,185.0 201.0,185.0 201.85000000000002,185.0 202.70000000000002,185.0 203.54999999999998,185.0 204.39999999999998,185.0 205.25,185.0 206.1,185.0 206.95,185.0 207.8,185.0 208.64999999999998,185.0 209.5,185.0 210.35,185.0 211.2,185.0 212.05,185.0 212.89999999999998,185.0 213.75,185.0 214.60000000000002,185.0 215.45,185.0 216.3,185.0 217.15,185.0 218.0,185.0 218.85000000000002,185.0 219.7,185.0 220.55,185.0 221.4,185.0 222.25,185.0 223.10000000000002,185.0 223.95000000000002,185.0 224.79999999999998,185.0 225.65,185.0 226.5,185.0 227.35,185.0 228.2,185.0 229.05,185.0 229.89999999999998,185.0 230.75,185.0 231.6,185.0 232.45,185.0 233.3,185.0 234.14999999999998,185.0 234.14999999999998,145.0 233.3,145.0 232.45,145.0 231.6,145.0 230.75,145.0 229.89999999999998,145.0 229.05,145.0 228.2,145.0 227.35,145.0 226.5,145.0 225.65,145.0 224.79999999999998,145.0 223.95000000000002,145.0 223.10000000000002,145.0 222.25,145.0 221.4,145.0 220.55,145.0 219.7,145.0 218.85000000000002,145.0 218.0,145.0 217.15,145.0 216.3,145.0 215.45,145.0 214.60000000000002,145.0 213.75,145.0 212.89999999999998,145.0 212.05,145.0 211.2,145.0 210.35,142.214170060204 209.5,137.13062061581812 208.64999999999998,133.54830386886337 207.8,131.02388792368436 206.95,129.2449620736208 206.1,127.99137421458823 205.25,127.10798578091199 204.39999999999998,126.48547247310508 203.54999999999998,126.04679475940215 202.70000000000002,125.73766379933065 201.85000000000002,125.51982289360498 201.0,125.36631300188654 200.15,125.25813640953857 199.3,125.18190565332456 198.45,125.12818674735031 197.60000000000002,125.09033167411755 196.75,125.06365565487499 195.9,125.04485738183367 195.05,125.03161046271413 194.2,125.02227551658515 193.35000000000002,125.01569729122988 192.5,125.01106169417054 191.64999999999998,125.0077950441341 190.8,125.00549307476011 189.95,125.00387090435939 189.1,125.00272778019851 188.25,125.00192223421726 187.39999999999998,125.00135457555855 186.55,125.00095455326273 185.7,125.00067266231525 184.85,125.00047401712196 184.0,125.00033403422017 183.14999999999998,125.00023538993649 182.29999999999998,125.00016587648471 181.45000000000002,125.00011689118313 180.60000000000002,125.00008237182455 179.75,125.00005804644367 178.9,125.00004090463752 178.05,125.00002882501087 177.2,125.00002031264185 176.35000000000002,125.00001431407676 175.5,125.00001008695943 174.65,125.00000710816018 173.8,125.00000500903579 172.95,125.00000352980788 172.10000000000002,125.00000248741357 171.25,125.00000175285072 170.39999999999998,125.00000123521303 169.55,125.00000087043989 168.7,125.00000061338864 167.85,125.00000043224767 167.0,125.0000003045998 166.14999999999998,125.00000021464786 165.3,125.00000015125977 164.45,125.00000010659096 163.6,125.00000007511338 162.75,125.00000005293148 161.89999999999998,127.78584050697975 161.04999999999998,134.81687160883797 160.20000000000002,138.97611577417203 159.35000000000002,141.43653897188688 158.5,142.8920155131076 157.65,143.75301046877675 156.8,144.26233665349565 155.95000000000002,144.56363129027855 155.10000000000002,144.74186374892247 154.25,144.84729811593755 153.4,144.90966838133392 152.55,144.94656384640615 151.70000000000002,144.96838955669043 150.85,144.9813006726902 150.0,144.98893831261987 149.15,144.99345639949132 148.29999999999998,144.9961290980168 147.45,144.9977101471669 146.6,144.99864542527297 145.75,144.9991986940538 144.89999999999998,144.999525983169 144.05,144.99971959280083 143.20000000000002,144.99983412361715 142.35,144.99990187493592 141.5,144.99994195359196 140.65,144.99996566233594 139.8,144.99997968737063 138.95,144.99998798395512 138.1,144.9999928918442 137.25,144.9999957951323 136.4,144.99999751258795 135.54999999999998,144.99999852855805 134.7,144.99999912956065 133.85000000000002,144.9999994850869 133.0,144.99999969540042 132.15,144.99999981981247 131.3,144.99999989340913 130.45000000000002,144.99999993694558 129.6,144.99999996269983 128.75,144.9999999779349 127.9,144.99999998694724 127.04999999999998,144.9999999922786 126.19999999999999,144.99999999543235 125.35,144.99999999729798 124.5,144.9999999984016 123.64999999999999,144.99999999905447 122.8,144.99999999944066 121.95000000000002,144.99999999966914 121.1,144.9999999998043 120.25,144.9999999998842 119.4,144.9999999999315 118.55000000000001,144.99999999995947 117.69999999999999,144.99999999997604 116.85,144.99999999998582 116.0,144.99999999999162 115.15,144.99999999999503 114.29999999999998,144.99999999999707 113.45,144.02458849001255 112.60000000000001,138.40640092071155 111.75,134.44733105481941 110.9,131.65742167396098 110.05000000000001,129.69140576187553 109.2,128.30597776443145 108.35,127.32968315546974 107.5,126.64169997247782 106.65,126.15688641749668 105.8,125.81524407956726 104.94999999999999,125.57449279308474 104.10000000000001,125.40483822891605 103.25,125.28528467817996 102.4,125.20103671489267 101.55,125.14166817858103 100.7,125.09983187813819 99.85,125.07035033549825 99.0,125.04957504353334 98.15,125.03493494272523 97.30000000000001,125.02461823805346 96.44999999999999,125.01734817914613 95.6,125.01222505522259 94.75,125.00861485081151 93.9,125.00607078276158 93.05,125.00427800830735 92.2,125.00301466150191 91.35,125.00212439605494 90.5,125.00149703659775 89.64999999999999,125.00105494386031 88.80000000000001,125.00074340637369 87.95,125.00052386961735 87.1,125.00036916467991 86.25,125.00026014595306 85.4,125.00018332175472 84.55,125.00012918465711 83.7,125.00009103488927 82.85000000000001,125.00006415120221 82.0,125.00004520658814 81.15,125.00003185654421 80.3,125.00002244892731 79.45,125.0000158194917 78.60000000000001,125.0000111478074 77.75,125.00000785572706 76.9,125.00000553583732 76.05000000000001,125.00000390103861 75.19999999999999,125.00000274901547 74.35,125.00000193719846 73.5,125.00000136512068 72.64999999999999,125.00000096198428 71.8,125.00000067789887 70.95,125.00000047770726 70.1,125.00000033663463 69.25,125.0000002372224 68.39999999999999,125.0000001671678 67.55000000000001,125.00000011780116 66.69999999999999,125.00000008301308 65.85,125.00000005849833 65.0,125.00000004122309" style="fill:rgb(40%,76.1%,64.7%);fill-opacity:1.0;opacity:0.33;stroke:none" /></g><g class="toyplot-mark-Plot" style="fill:none;stroke:rgb(0%,0%,0%);stroke-dasharray:4,2;stroke-opacity:1.0;stroke-width:2" id="t7909f69a8ebe42b79a5453fe67ad4e01"><g class="toyplot-Series"><path d="M 65.0 185.0 L 65.0 125.00000004122309" style="stroke:rgb(0%,0%,0%);stroke-dasharray:4,2;stroke-opacity:1.0;stroke-width:2" /></g></g><g class="toyplot-mark-Plot" style="fill:none;stroke:rgb(0%,0%,0%);stroke-dasharray:4,2;stroke-opacity:1.0;stroke-width:2" id="t982fb9d93ff84a3bba79d5588e67f9d2"><g class="toyplot-Series"><path d="M 113.5714280857143 185.0 L 113.5714280857143 144.99999599999862" style="stroke:rgb(0%,0%,0%);stroke-dasharray:4,2;stroke-opacity:1.0;stroke-width:2" /></g></g><g class="toyplot-mark-Plot" style="fill:none;stroke:rgb(0%,0%,0%);stroke-dasharray:4,2;stroke-opacity:1.0;stroke-width:2" id="t0150e8152b6541738df2334d2d1b683f"><g class="toyplot-Series"><path d="M 162.14285665714286 185.0 L 162.14285665714286 125.0000060412221" style="stroke:rgb(0%,0%,0%);stroke-dasharray:4,2;stroke-opacity:1.0;stroke-width:2" /></g></g><g class="toyplot-mark-Plot" style="fill:none;stroke:rgb(0%,0%,0%);stroke-dasharray:4,2;stroke-opacity:1.0;stroke-width:2" id="te144b14ac5c84130aa3bfb81dcf4d354"><g class="toyplot-Series"><path d="M 210.71428522857144 185.0 L 210.71428522857144 145.00000823609102" style="stroke:rgb(0%,0%,0%);stroke-dasharray:4,2;stroke-opacity:1.0;stroke-width:2" /></g></g><g class="toyplot-mark-Plot" style="fill:none;stroke:rgb(0%,0%,0%);stroke-dasharray:4,2;stroke-opacity:1.0;stroke-width:2" id="te0a56aabc47e414187388ff83597b76c"><g class="toyplot-Series"><path d="M 234.99999951428572 185.0 L 234.99999951428572 145.0" style="stroke:rgb(0%,0%,0%);stroke-dasharray:4,2;stroke-opacity:1.0;stroke-width:2" /></g></g></g><g class="toyplot-coordinates-Axis" id="tfafddaecb8d44d6f86e2a09104dc1ef8" transform="translate(65.0,185.0)translate(0,10.0)"><line x1="0" y1="0" x2="169.99999951428572" y2="0" style="stroke-width:1.5" /><g><line x1="0.0" y1="7.5" x2="0.0" y2="0" style="stroke-width:1.5" /><line x1="48.57142857142857" y1="7.5" x2="48.57142857142857" y2="0" style="stroke-width:1.5" /><line x1="97.14285714285714" y1="7.5" x2="97.14285714285714" y2="0" style="stroke-width:1.5" /><line x1="145.7142857142857" y1="7.5" x2="145.7142857142857" y2="0" style="stroke-width:1.5" /><line x1="170.0" y1="7.5" x2="170.0" y2="0" style="stroke-width:1.5" /></g><g><g transform="translate(0.0,15.0)"><text x="-16.68" y="8.555" style="fill:rgb(16.1%,15.3%,14.1%);fill-opacity:1.0;font-family:helvetica;font-size:10.0px;font-weight:normal;stroke:none;vertical-align:baseline;white-space:pre">100000</text></g><g transform="translate(48.57142857142857,15.0)"><text x="-16.68" y="8.555" style="fill:rgb(16.1%,15.3%,14.1%);fill-opacity:1.0;font-family:helvetica;font-size:10.0px;font-weight:normal;stroke:none;vertical-align:baseline;white-space:pre">200000</text></g><g transform="translate(97.14285714285714,15.0)"><text x="-16.68" y="8.555" style="fill:rgb(16.1%,15.3%,14.1%);fill-opacity:1.0;font-family:helvetica;font-size:10.0px;font-weight:normal;stroke:none;vertical-align:baseline;white-space:pre">300000</text></g><g transform="translate(145.7142857142857,15.0)"><text x="-16.68" y="8.555" style="fill:rgb(16.1%,15.3%,14.1%);fill-opacity:1.0;font-family:helvetica;font-size:10.0px;font-weight:normal;stroke:none;vertical-align:baseline;white-space:pre">400000</text></g><g transform="translate(170.0,15.0)"><text x="-16.68" y="8.555" style="fill:rgb(16.1%,15.3%,14.1%);fill-opacity:1.0;font-family:helvetica;font-size:10.0px;font-weight:normal;stroke:none;vertical-align:baseline;white-space:pre">450000</text></g></g><g transform="translate(85.0,35.0)"><text x="-100.02000000000002" y="10.265999999999998" style="fill:rgb(16.1%,15.3%,14.1%);fill-opacity:1.0;font-family:helvetica;font-size:12.0px;font-weight:bold;stroke:none;vertical-align:baseline;white-space:pre">Time of recombination on branch 7</text></g><g class="toyplot-coordinates-Axis-coordinates" style="visibility:hidden" transform=""><line x1="0" x2="0" y1="-7.5" y2="11.25" style="stroke:rgb(43.9%,50.2%,56.5%);stroke-opacity:1.0;stroke-width:1.0" /><text x="0" y="-15.0" style="alignment-baseline:alphabetic;fill:rgb(43.9%,50.2%,56.5%);fill-opacity:1.0;font-size:10px;font-weight:normal;stroke:none;text-anchor:middle" /></g></g><g class="toyplot-coordinates-Axis" id="t7b4b489d172b4ad3a6d2c67cde4b4abc" transform="translate(65.0,185.0)rotate(-90.0)translate(0,-10.0)"><line x1="0" y1="0" x2="120.0" y2="0" style="stroke-width:1.5" /><g><line x1="0.0" y1="-7.5" x2="0.0" y2="0" style="stroke-width:1.5" /><line x1="60.0" y1="-7.5" x2="60.0" y2="0" style="stroke-width:1.5" /><line x1="120.0" y1="-7.5" x2="120.0" y2="0" style="stroke-width:1.5" /></g><g><g transform="translate(0.0,-15.0)"><text x="-6.95" y="-4.440892098500626e-16" style="fill:rgb(16.1%,15.3%,14.1%);fill-opacity:1.0;font-family:helvetica;font-size:10.0px;font-weight:normal;stroke:none;vertical-align:baseline;white-space:pre">0.0</text></g><g transform="translate(60.0,-15.0)"><text x="-6.95" y="-4.440892098500626e-16" style="fill:rgb(16.1%,15.3%,14.1%);fill-opacity:1.0;font-family:helvetica;font-size:10.0px;font-weight:normal;stroke:none;vertical-align:baseline;white-space:pre">0.5</text></g><g transform="translate(120.0,-15.0)"><text x="-6.95" y="-4.440892098500626e-16" style="fill:rgb(16.1%,15.3%,14.1%);fill-opacity:1.0;font-family:helvetica;font-size:10.0px;font-weight:normal;stroke:none;vertical-align:baseline;white-space:pre">1.0</text></g></g><g transform="translate(60.0,-35.0)"><text x="-31.008" y="0.0" style="fill:rgb(16.1%,15.3%,14.1%);fill-opacity:1.0;font-family:helvetica;font-size:12.0px;font-weight:bold;stroke:none;vertical-align:baseline;white-space:pre">Probability</text></g><g class="toyplot-coordinates-Axis-coordinates" style="visibility:hidden" transform=""><line x1="0" x2="0" y1="7.5" y2="-11.25" style="stroke:rgb(43.9%,50.2%,56.5%);stroke-opacity:1.0;stroke-width:1.0" /><text x="0" y="15.0" style="alignment-baseline:hanging;fill:rgb(43.9%,50.2%,56.5%);fill-opacity:1.0;font-size:10px;font-weight:normal;stroke:none;text-anchor:middle" /></g></g><g transform="translate(150.0,45.0)"><text x="-56.0" y="-4.823" style="fill:rgb(16.1%,15.3%,14.1%);fill-opacity:1.0;font-family:helvetica;font-size:14.0px;font-weight:bold;stroke:none;vertical-align:baseline;white-space:pre">Prob(no-change)</text></g></g><g class="toyplot-coordinates-Cartesian" id="tf7b240698045431ca9f8822f23b90710"><clipPath id="t3d03e2b217654207b3b88c850146f815"><rect x="55.0" y="305.0" width="190.0" height="140.0" /></clipPath><g clip-path="url(#t3d03e2b217654207b3b88c850146f815)"><g class="toyplot-mark-Plot" style="fill:none" id="t66df6715d5b948d0806b986a7fde74e2"><g class="toyplot-Series"><path d="M 65.0 374.9999999587769 L 65.85 374.9999999415017 L 66.69999999999999 374.9999999169869 L 67.55000000000001 374.99999988219884 L 68.39999999999999 374.9999998328322 L 69.25 374.9999997627776 L 70.1 374.9999996633654 L 70.95 374.99999952229274 L 71.8 374.99999932210113 L 72.64999999999999 374.99999903801574 L 73.5 374.9999986348793 L 74.35 374.9999980628015 L 75.19999999999999 374.9999972509845 L 76.05000000000001 374.9999960989614 L 76.9 374.9999944641627 L 77.75 374.99999214427294 L 78.60000000000001 374.9999888521926 L 79.45 374.9999841805083 L 80.3 374.9999775510727 L 81.15 374.99996814345576 L 82.0 374.99995479341186 L 82.85000000000001 374.9999358487978 L 83.7 374.99990896511076 L 84.55 374.9998708153429 L 85.4 374.9998166782453 L 86.25 374.99973985404694 L 87.1 374.9996308353201 L 87.95 374.9994761303826 L 88.80000000000001 374.99925659362634 L 89.64999999999999 374.9989450561397 L 90.5 374.99850296340225 L 91.35 374.9978756039451 L 92.2 374.9969853384981 L 93.05 374.9957219916927 L 93.9 374.9939292172384 L 94.75 374.9913851491885 L 95.6 374.9877749447774 L 96.44999999999999 374.9826518208539 L 97.30000000000001 374.97538176194655 L 98.15 374.9650650572748 L 99.0 374.9504249564667 L 99.85 374.92964966450177 L 100.7 374.90016812186184 L 101.55 374.858331821419 L 102.4 374.79896328510733 L 103.25 374.71471532182 L 104.10000000000001 374.59516177108395 L 104.94999999999999 374.42550720691526 L 105.8 374.18475592043274 L 106.65 373.84311358250335 L 107.5 373.3583000275222 L 108.35 372.67031684453025 L 109.2 371.6940222355686 L 110.05000000000001 370.30859423812444 L 110.9 368.3425783260391 L 111.75 365.5526689451806 L 112.60000000000001 361.5935990792884 L 113.45 355.97541150998745 L 114.29999999999998 355.00000000000296 L 115.15 355.000000000005 L 116.0 355.0000000000084 L 116.85 355.0000000000142 L 117.69999999999999 355.000000000024 L 118.55000000000001 355.00000000004053 L 119.4 355.0000000000685 L 120.25 355.0000000001158 L 121.1 355.00000000019577 L 121.95000000000002 355.0000000003309 L 122.8 355.00000000055934 L 123.64999999999999 355.00000000094553 L 124.5 355.0000000015984 L 125.35 355.000000002702 L 126.19999999999999 355.00000000456765 L 127.04999999999998 355.0000000077214 L 127.9 355.0000000130527 L 128.75 355.00000002206514 L 129.6 355.0000000373002 L 130.45000000000002 355.0000000630544 L 131.3 355.0000001065909 L 132.15 355.0000001801875 L 133.0 355.0000003045996 L 133.85000000000002 355.0000005149131 L 134.7 355.0000008704394 L 135.54999999999998 355.0000014714419 L 136.4 355.0000024874121 L 137.25 355.0000042048677 L 138.1 355.00000710815584 L 138.95 355.0000120160448 L 139.8 355.0000203126294 L 140.65 355.00003433766403 L 141.5 355.00005804640807 L 142.35 355.0000981250641 L 143.20000000000002 355.0001658763829 L 144.05 355.00028040719917 L 144.89999999999998 355.000474016831 L 145.75 355.0008013059462 L 146.6 355.001354574727 L 147.45 355.0022898528331 L 148.29999999999998 355.0038709019832 L 149.15 355.0065436005087 L 150.0 355.0110616873801 L 150.85 355.0186993273098 L 151.70000000000002 355.03161044330955 L 152.55 355.05343615359385 L 153.4 355.0903316186661 L 154.25 355.1527018840625 L 155.10000000000002 355.25813625107753 L 155.95000000000002 355.4363687097215 L 156.8 355.7376633465044 L 157.65 356.2469895312232 L 158.5 357.1079844868924 L 159.35000000000002 358.5634610281131 L 160.20000000000002 361.02388422582794 L 161.04999999999998 365.18312839116203 L 161.89999999999998 372.21415949302025 L 162.75 374.9999999470685 L 163.6 374.99999992488665 L 164.45 374.99999989340904 L 165.3 374.99999984874023 L 166.14999999999998 374.99999978535214 L 167.0 374.9999996954002 L 167.85 374.9999995677523 L 168.7 374.9999993866114 L 169.55 374.9999991295601 L 170.39999999999998 374.99999876478694 L 171.25 374.9999982471493 L 172.10000000000002 374.99999751258645 L 172.95 374.9999964701921 L 173.8 374.9999949909642 L 174.65 374.99999289183984 L 175.5 374.99998991304057 L 176.35000000000002 374.9999856859232 L 177.2 374.9999796873582 L 178.05 374.9999711749891 L 178.9 374.9999590953625 L 179.75 374.99994195355634 L 180.60000000000002 374.99991762817547 L 181.45000000000002 374.99988310881685 L 182.29999999999998 374.9998341235153 L 183.14999999999998 374.9997646100635 L 184.0 374.9996659657798 L 184.85 374.999525982878 L 185.7 374.99932733768475 L 186.55 374.9990454467373 L 187.39999999999998 374.9986454244414 L 188.25 374.99807776578274 L 189.1 374.99727221980146 L 189.95 374.99612909564064 L 190.8 374.9945069252399 L 191.64999999999998 374.9922049558659 L 192.5 374.9889383058295 L 193.35000000000002 374.9843027087701 L 194.2 374.9777244834148 L 195.05 374.9683895372859 L 195.9 374.9551426181663 L 196.75 374.936344345125 L 197.60000000000002 374.9096683258824 L 198.45 374.87181325264964 L 199.3 374.8180943466755 L 200.15 374.74186359046143 L 201.0 374.6336869981135 L 201.85000000000002 374.480177106395 L 202.70000000000002 374.2623362006693 L 203.54999999999998 373.95320524059787 L 204.39999999999998 373.51452752689494 L 205.25 372.89201421908797 L 206.1 372.00862578541177 L 206.95 370.7550379263792 L 207.8 368.97611207631564 L 208.64999999999998 366.4516961311366 L 209.5 362.8693793841819 L 210.35 357.78582993979603 L 211.2 355.0 L 212.05 355.0 L 212.89999999999998 355.0 L 213.75 355.0 L 214.60000000000002 355.0 L 215.45 355.0 L 216.3 355.0 L 217.15 355.0 L 218.0 355.0 L 218.85000000000002 355.0 L 219.7 355.0 L 220.55 355.0 L 221.4 355.0 L 222.25 355.0 L 223.10000000000002 355.0 L 223.95000000000002 355.0 L 224.79999999999998 355.0 L 225.65 355.0 L 226.5 355.0 L 227.35 355.0 L 228.2 355.0 L 229.05 355.0 L 229.89999999999998 355.0 L 230.75 355.0 L 231.6 355.0 L 232.45 355.0 L 233.3 355.0 L 234.14999999999998 355.0" style="stroke:rgb(40%,76.1%,64.7%);stroke-opacity:1.0;stroke-width:5.0" /></g></g><g class="toyplot-mark-FillBoundaries" style="stroke:none" id="tce18e5731d5c44ad9edc47569ec1c9fc"><polygon points="65.0,435.0 65.85,435.0 66.69999999999999,435.0 67.55000000000001,435.0 68.39999999999999,435.0 69.25,435.0 70.1,435.0 70.95,435.0 71.8,435.0 72.64999999999999,435.0 73.5,435.0 74.35,435.0 75.19999999999999,435.0 76.05000000000001,435.0 76.9,435.0 77.75,435.0 78.60000000000001,435.0 79.45,435.0 80.3,435.0 81.15,435.0 82.0,435.0 82.85000000000001,435.0 83.7,435.0 84.55,435.0 85.4,435.0 86.25,435.0 87.1,435.0 87.95,435.0 88.80000000000001,435.0 89.64999999999999,435.0 90.5,435.0 91.35,435.0 92.2,435.0 93.05,435.0 93.9,435.0 94.75,435.0 95.6,435.0 96.44999999999999,435.0 97.30000000000001,435.0 98.15,435.0 99.0,435.0 99.85,435.0 100.7,435.0 101.55,435.0 102.4,435.0 103.25,435.0 104.10000000000001,435.0 104.94999999999999,435.0 105.8,435.0 106.65,435.0 107.5,435.0 108.35,435.0 109.2,435.0 110.05000000000001,435.0 110.9,435.0 111.75,435.0 112.60000000000001,435.0 113.45,435.0 114.29999999999998,435.0 115.15,435.0 116.0,435.0 116.85,435.0 117.69999999999999,435.0 118.55000000000001,435.0 119.4,435.0 120.25,435.0 121.1,435.0 121.95000000000002,435.0 122.8,435.0 123.64999999999999,435.0 124.5,435.0 125.35,435.0 126.19999999999999,435.0 127.04999999999998,435.0 127.9,435.0 128.75,435.0 129.6,435.0 130.45000000000002,435.0 131.3,435.0 132.15,435.0 133.0,435.0 133.85000000000002,435.0 134.7,435.0 135.54999999999998,435.0 136.4,435.0 137.25,435.0 138.1,435.0 138.95,435.0 139.8,435.0 140.65,435.0 141.5,435.0 142.35,435.0 143.20000000000002,435.0 144.05,435.0 144.89999999999998,435.0 145.75,435.0 146.6,435.0 147.45,435.0 148.29999999999998,435.0 149.15,435.0 150.0,435.0 150.85,435.0 151.70000000000002,435.0 152.55,435.0 153.4,435.0 154.25,435.0 155.10000000000002,435.0 155.95000000000002,435.0 156.8,435.0 157.65,435.0 158.5,435.0 159.35000000000002,435.0 160.20000000000002,435.0 161.04999999999998,435.0 161.89999999999998,435.0 162.75,435.0 163.6,435.0 164.45,435.0 165.3,435.0 166.14999999999998,435.0 167.0,435.0 167.85,435.0 168.7,435.0 169.55,435.0 170.39999999999998,435.0 171.25,435.0 172.10000000000002,435.0 172.95,435.0 173.8,435.0 174.65,435.0 175.5,435.0 176.35000000000002,435.0 177.2,435.0 178.05,435.0 178.9,435.0 179.75,435.0 180.60000000000002,435.0 181.45000000000002,435.0 182.29999999999998,435.0 183.14999999999998,435.0 184.0,435.0 184.85,435.0 185.7,435.0 186.55,435.0 187.39999999999998,435.0 188.25,435.0 189.1,435.0 189.95,435.0 190.8,435.0 191.64999999999998,435.0 192.5,435.0 193.35000000000002,435.0 194.2,435.0 195.05,435.0 195.9,435.0 196.75,435.0 197.60000000000002,435.0 198.45,435.0 199.3,435.0 200.15,435.0 201.0,435.0 201.85000000000002,435.0 202.70000000000002,435.0 203.54999999999998,435.0 204.39999999999998,435.0 205.25,435.0 206.1,435.0 206.95,435.0 207.8,435.0 208.64999999999998,435.0 209.5,435.0 210.35,435.0 211.2,435.0 212.05,435.0 212.89999999999998,435.0 213.75,435.0 214.60000000000002,435.0 215.45,435.0 216.3,435.0 217.15,435.0 218.0,435.0 218.85000000000002,435.0 219.7,435.0 220.55,435.0 221.4,435.0 222.25,435.0 223.10000000000002,435.0 223.95000000000002,435.0 224.79999999999998,435.0 225.65,435.0 226.5,435.0 227.35,435.0 228.2,435.0 229.05,435.0 229.89999999999998,435.0 230.75,435.0 231.6,435.0 232.45,435.0 233.3,435.0 234.14999999999998,435.0 234.14999999999998,355.0 233.3,355.0 232.45,355.0 231.6,355.0 230.75,355.0 229.89999999999998,355.0 229.05,355.0 228.2,355.0 227.35,355.0 226.5,355.0 225.65,355.0 224.79999999999998,355.0 223.95000000000002,355.0 223.10000000000002,355.0 222.25,355.0 221.4,355.0 220.55,355.0 219.7,355.0 218.85000000000002,355.0 218.0,355.0 217.15,355.0 216.3,355.0 215.45,355.0 214.60000000000002,355.0 213.75,355.0 212.89999999999998,355.0 212.05,355.0 211.2,355.0 210.35,357.78582993979603 209.5,362.8693793841819 208.64999999999998,366.4516961311366 207.8,368.97611207631564 206.95,370.7550379263792 206.1,372.00862578541177 205.25,372.89201421908797 204.39999999999998,373.51452752689494 203.54999999999998,373.95320524059787 202.70000000000002,374.2623362006693 201.85000000000002,374.480177106395 201.0,374.6336869981135 200.15,374.74186359046143 199.3,374.8180943466755 198.45,374.87181325264964 197.60000000000002,374.9096683258824 196.75,374.936344345125 195.9,374.9551426181663 195.05,374.9683895372859 194.2,374.9777244834148 193.35000000000002,374.9843027087701 192.5,374.9889383058295 191.64999999999998,374.9922049558659 190.8,374.9945069252399 189.95,374.99612909564064 189.1,374.99727221980146 188.25,374.99807776578274 187.39999999999998,374.9986454244414 186.55,374.9990454467373 185.7,374.99932733768475 184.85,374.999525982878 184.0,374.9996659657798 183.14999999999998,374.9997646100635 182.29999999999998,374.9998341235153 181.45000000000002,374.99988310881685 180.60000000000002,374.99991762817547 179.75,374.99994195355634 178.9,374.9999590953625 178.05,374.9999711749891 177.2,374.9999796873582 176.35000000000002,374.9999856859232 175.5,374.99998991304057 174.65,374.99999289183984 173.8,374.9999949909642 172.95,374.9999964701921 172.10000000000002,374.99999751258645 171.25,374.9999982471493 170.39999999999998,374.99999876478694 169.55,374.9999991295601 168.7,374.9999993866114 167.85,374.9999995677523 167.0,374.9999996954002 166.14999999999998,374.99999978535214 165.3,374.99999984874023 164.45,374.99999989340904 163.6,374.99999992488665 162.75,374.9999999470685 161.89999999999998,372.21415949302025 161.04999999999998,365.18312839116203 160.20000000000002,361.02388422582794 159.35000000000002,358.5634610281131 158.5,357.1079844868924 157.65,356.2469895312232 156.8,355.7376633465044 155.95000000000002,355.4363687097215 155.10000000000002,355.25813625107753 154.25,355.1527018840625 153.4,355.0903316186661 152.55,355.05343615359385 151.70000000000002,355.03161044330955 150.85,355.0186993273098 150.0,355.0110616873801 149.15,355.0065436005087 148.29999999999998,355.0038709019832 147.45,355.0022898528331 146.6,355.001354574727 145.75,355.0008013059462 144.89999999999998,355.000474016831 144.05,355.00028040719917 143.20000000000002,355.0001658763829 142.35,355.0000981250641 141.5,355.00005804640807 140.65,355.00003433766403 139.8,355.0000203126294 138.95,355.0000120160448 138.1,355.00000710815584 137.25,355.0000042048677 136.4,355.0000024874121 135.54999999999998,355.0000014714419 134.7,355.0000008704394 133.85000000000002,355.0000005149131 133.0,355.0000003045996 132.15,355.0000001801875 131.3,355.0000001065909 130.45000000000002,355.0000000630544 129.6,355.0000000373002 128.75,355.00000002206514 127.9,355.0000000130527 127.04999999999998,355.0000000077214 126.19999999999999,355.00000000456765 125.35,355.000000002702 124.5,355.0000000015984 123.64999999999999,355.00000000094553 122.8,355.00000000055934 121.95000000000002,355.0000000003309 121.1,355.00000000019577 120.25,355.0000000001158 119.4,355.0000000000685 118.55000000000001,355.00000000004053 117.69999999999999,355.000000000024 116.85,355.0000000000142 116.0,355.0000000000084 115.15,355.000000000005 114.29999999999998,355.00000000000296 113.45,355.97541150998745 112.60000000000001,361.5935990792884 111.75,365.5526689451806 110.9,368.3425783260391 110.05000000000001,370.30859423812444 109.2,371.6940222355686 108.35,372.67031684453025 107.5,373.3583000275222 106.65,373.84311358250335 105.8,374.18475592043274 104.94999999999999,374.42550720691526 104.10000000000001,374.59516177108395 103.25,374.71471532182 102.4,374.79896328510733 101.55,374.858331821419 100.7,374.90016812186184 99.85,374.92964966450177 99.0,374.9504249564667 98.15,374.9650650572748 97.30000000000001,374.97538176194655 96.44999999999999,374.9826518208539 95.6,374.9877749447774 94.75,374.9913851491885 93.9,374.9939292172384 93.05,374.9957219916927 92.2,374.9969853384981 91.35,374.9978756039451 90.5,374.99850296340225 89.64999999999999,374.9989450561397 88.80000000000001,374.99925659362634 87.95,374.9994761303826 87.1,374.9996308353201 86.25,374.99973985404694 85.4,374.9998166782453 84.55,374.9998708153429 83.7,374.99990896511076 82.85000000000001,374.9999358487978 82.0,374.99995479341186 81.15,374.99996814345576 80.3,374.9999775510727 79.45,374.9999841805083 78.60000000000001,374.9999888521926 77.75,374.99999214427294 76.9,374.9999944641627 76.05000000000001,374.9999960989614 75.19999999999999,374.9999972509845 74.35,374.9999980628015 73.5,374.9999986348793 72.64999999999999,374.99999903801574 71.8,374.99999932210113 70.95,374.99999952229274 70.1,374.9999996633654 69.25,374.9999997627776 68.39999999999999,374.9999998328322 67.55000000000001,374.99999988219884 66.69999999999999,374.9999999169869 65.85,374.9999999415017 65.0,374.9999999587769" style="fill:rgb(40%,76.1%,64.7%);fill-opacity:1.0;opacity:0.33;stroke:none" /></g><g class="toyplot-mark-Plot" style="fill:none;stroke:rgb(0%,0%,0%);stroke-dasharray:4,2;stroke-opacity:1.0;stroke-width:2" id="t1e4ca45ee4ab43988f54fd423f9b756b"><g class="toyplot-Series"><path d="M 65.0 435.0 L 65.0 374.9999999587769" style="stroke:rgb(0%,0%,0%);stroke-dasharray:4,2;stroke-opacity:1.0;stroke-width:2" /></g></g><g class="toyplot-mark-Plot" style="fill:none;stroke:rgb(0%,0%,0%);stroke-dasharray:4,2;stroke-opacity:1.0;stroke-width:2" id="tf778626876804805ac6a1cae38891ef0"><g class="toyplot-Series"><path d="M 113.5714280857143 435.0 L 113.5714280857143 355.00000400000135" style="stroke:rgb(0%,0%,0%);stroke-dasharray:4,2;stroke-opacity:1.0;stroke-width:2" /></g></g><g class="toyplot-mark-Plot" style="fill:none;stroke:rgb(0%,0%,0%);stroke-dasharray:4,2;stroke-opacity:1.0;stroke-width:2" id="t0006af95ad254ce998d22dc36436659b"><g class="toyplot-Series"><path d="M 162.14285665714286 435.0 L 162.14285665714286 374.9999939587779" style="stroke:rgb(0%,0%,0%);stroke-dasharray:4,2;stroke-opacity:1.0;stroke-width:2" /></g></g><g class="toyplot-mark-Plot" style="fill:none;stroke:rgb(0%,0%,0%);stroke-dasharray:4,2;stroke-opacity:1.0;stroke-width:2" id="t99a81cfd2d76468f8000189eec90c6dd"><g class="toyplot-Series"><path d="M 210.71428522857144 435.0 L 210.71428522857144 354.99999176390895" style="stroke:rgb(0%,0%,0%);stroke-dasharray:4,2;stroke-opacity:1.0;stroke-width:2" /></g></g><g class="toyplot-mark-Plot" style="fill:none;stroke:rgb(0%,0%,0%);stroke-dasharray:4,2;stroke-opacity:1.0;stroke-width:2" id="t56f98b6938db44d4ada8538f6e83f844"><g class="toyplot-Series"><path d="M 234.99999951428572 435.0 L 234.99999951428572 355.0" style="stroke:rgb(0%,0%,0%);stroke-dasharray:4,2;stroke-opacity:1.0;stroke-width:2" /></g></g></g><g class="toyplot-coordinates-Axis" id="t76899ddaaa7144b09f526d28206eb74f" transform="translate(65.0,435.0)translate(0,10.0)"><line x1="0" y1="0" x2="169.99999951428572" y2="0" style="stroke-width:1.5" /><g><line x1="0.0" y1="7.5" x2="0.0" y2="0" style="stroke-width:1.5" /><line x1="48.57142857142857" y1="7.5" x2="48.57142857142857" y2="0" style="stroke-width:1.5" /><line x1="97.14285714285714" y1="7.5" x2="97.14285714285714" y2="0" style="stroke-width:1.5" /><line x1="145.7142857142857" y1="7.5" x2="145.7142857142857" y2="0" style="stroke-width:1.5" /><line x1="170.0" y1="7.5" x2="170.0" y2="0" style="stroke-width:1.5" /></g><g><g transform="translate(0.0,15.0)"><text x="-16.68" y="8.555" style="fill:rgb(16.1%,15.3%,14.1%);fill-opacity:1.0;font-family:helvetica;font-size:10.0px;font-weight:normal;stroke:none;vertical-align:baseline;white-space:pre">100000</text></g><g transform="translate(48.57142857142857,15.0)"><text x="-16.68" y="8.555" style="fill:rgb(16.1%,15.3%,14.1%);fill-opacity:1.0;font-family:helvetica;font-size:10.0px;font-weight:normal;stroke:none;vertical-align:baseline;white-space:pre">200000</text></g><g transform="translate(97.14285714285714,15.0)"><text x="-16.68" y="8.555" style="fill:rgb(16.1%,15.3%,14.1%);fill-opacity:1.0;font-family:helvetica;font-size:10.0px;font-weight:normal;stroke:none;vertical-align:baseline;white-space:pre">300000</text></g><g transform="translate(145.7142857142857,15.0)"><text x="-16.68" y="8.555" style="fill:rgb(16.1%,15.3%,14.1%);fill-opacity:1.0;font-family:helvetica;font-size:10.0px;font-weight:normal;stroke:none;vertical-align:baseline;white-space:pre">400000</text></g><g transform="translate(170.0,15.0)"><text x="-16.68" y="8.555" style="fill:rgb(16.1%,15.3%,14.1%);fill-opacity:1.0;font-family:helvetica;font-size:10.0px;font-weight:normal;stroke:none;vertical-align:baseline;white-space:pre">450000</text></g></g><g transform="translate(85.0,35.0)"><text x="-100.02000000000002" y="10.265999999999998" style="fill:rgb(16.1%,15.3%,14.1%);fill-opacity:1.0;font-family:helvetica;font-size:12.0px;font-weight:bold;stroke:none;vertical-align:baseline;white-space:pre">Time of recombination on branch 7</text></g><g class="toyplot-coordinates-Axis-coordinates" style="visibility:hidden" transform=""><line x1="0" x2="0" y1="-7.5" y2="11.25" style="stroke:rgb(43.9%,50.2%,56.5%);stroke-opacity:1.0;stroke-width:1.0" /><text x="0" y="-15.0" style="alignment-baseline:alphabetic;fill:rgb(43.9%,50.2%,56.5%);fill-opacity:1.0;font-size:10px;font-weight:normal;stroke:none;text-anchor:middle" /></g></g><g class="toyplot-coordinates-Axis" id="tce538a04b53442e99f17e815f3009b3a" transform="translate(65.0,435.0)rotate(-90.0)translate(0,-10.0)"><line x1="0" y1="0" x2="120.0" y2="0" style="stroke-width:1.5" /><g><line x1="0.0" y1="-7.5" x2="0.0" y2="0" style="stroke-width:1.5" /><line x1="60.0" y1="-7.5" x2="60.0" y2="0" style="stroke-width:1.5" /><line x1="120.0" y1="-7.5" x2="120.0" y2="0" style="stroke-width:1.5" /></g><g><g transform="translate(0.0,-15.0)"><text x="-6.95" y="-4.440892098500626e-16" style="fill:rgb(16.1%,15.3%,14.1%);fill-opacity:1.0;font-family:helvetica;font-size:10.0px;font-weight:normal;stroke:none;vertical-align:baseline;white-space:pre">0.0</text></g><g transform="translate(60.0,-15.0)"><text x="-6.95" y="-4.440892098500626e-16" style="fill:rgb(16.1%,15.3%,14.1%);fill-opacity:1.0;font-family:helvetica;font-size:10.0px;font-weight:normal;stroke:none;vertical-align:baseline;white-space:pre">0.5</text></g><g transform="translate(120.0,-15.0)"><text x="-6.95" y="-4.440892098500626e-16" style="fill:rgb(16.1%,15.3%,14.1%);fill-opacity:1.0;font-family:helvetica;font-size:10.0px;font-weight:normal;stroke:none;vertical-align:baseline;white-space:pre">1.0</text></g></g><g transform="translate(60.0,-35.0)"><text x="-31.008" y="0.0" style="fill:rgb(16.1%,15.3%,14.1%);fill-opacity:1.0;font-family:helvetica;font-size:12.0px;font-weight:bold;stroke:none;vertical-align:baseline;white-space:pre">Probability</text></g><g class="toyplot-coordinates-Axis-coordinates" style="visibility:hidden" transform=""><line x1="0" x2="0" y1="7.5" y2="-11.25" style="stroke:rgb(43.9%,50.2%,56.5%);stroke-opacity:1.0;stroke-width:1.0" /><text x="0" y="15.0" style="alignment-baseline:hanging;fill:rgb(43.9%,50.2%,56.5%);fill-opacity:1.0;font-size:10px;font-weight:normal;stroke:none;text-anchor:middle" /></g></g><g transform="translate(150.0,295.0)"><text x="-60.284" y="-4.823" style="fill:rgb(16.1%,15.3%,14.1%);fill-opacity:1.0;font-family:helvetica;font-size:14.0px;font-weight:bold;stroke:none;vertical-align:baseline;white-space:pre">Prob(tree-change)</text></g></g><g class="toyplot-coordinates-Cartesian" id="t4cf3e26aa07741f2bbeae897013b6a7d"><clipPath id="tbe1a358d687747ed82f12fb872334428"><rect x="55.0" y="555.0" width="190.0" height="140.0" /></clipPath><g clip-path="url(#tbe1a358d687747ed82f12fb872334428)"><g class="toyplot-mark-Plot" style="fill:none" id="tec2ef72db8a74533a80631215b6d3f8a"><g class="toyplot-Series"><path d="M 65.0 624.9999999587769 L 65.85 624.9999999415016 L 66.69999999999999 624.999999916987 L 67.55000000000001 624.9999998821988 L 68.39999999999999 624.9999998328321 L 69.25 624.9999997627776 L 70.1 624.9999996633653 L 70.95 624.9999995222927 L 71.8 624.9999993221011 L 72.64999999999999 624.9999990380156 L 73.5 624.9999986348794 L 74.35 624.9999980628015 L 75.19999999999999 624.9999972509845 L 76.05000000000001 624.9999960989613 L 76.9 624.9999944641627 L 77.75 624.9999921442729 L 78.60000000000001 624.9999888521927 L 79.45 624.9999841805084 L 80.3 624.9999775510727 L 81.15 624.9999681434558 L 82.0 624.9999547934119 L 82.85000000000001 624.9999358487978 L 83.7 624.9999089651108 L 84.55 624.9998708153429 L 85.4 624.9998166782452 L 86.25 624.999739854047 L 87.1 624.9996308353201 L 87.95 624.9994761303826 L 88.80000000000001 624.9992565936263 L 89.64999999999999 624.9989450561397 L 90.5 624.9985029634022 L 91.35 624.997875603945 L 92.2 624.996985338498 L 93.05 624.9957219916927 L 93.9 624.9939292172385 L 94.75 624.9913851491885 L 95.6 624.9877749447774 L 96.44999999999999 624.9826518208539 L 97.30000000000001 624.9753817619466 L 98.15 624.9650650572748 L 99.0 624.9504249564666 L 99.85 624.9296496645018 L 100.7 624.9001681218618 L 101.55 624.858331821419 L 102.4 624.7989632851074 L 103.25 624.7147153218201 L 104.10000000000001 624.5951617710841 L 104.94999999999999 624.4255072069154 L 105.8 624.184755920433 L 106.65 623.8431135825036 L 107.5 623.3583000275227 L 108.35 622.6703168445309 L 109.2 621.6940222355695 L 110.05000000000001 620.3085942381258 L 110.9 618.3425783260409 L 111.75 615.5526689451832 L 112.60000000000001 611.5935990792923 L 113.45 605.9754115099928 L 114.29999999999998 605.0000000000117 L 115.15 605.0000000000198 L 116.0 605.0000000000335 L 116.85 605.0000000000567 L 117.69999999999999 605.0000000000958 L 118.55000000000001 605.0000000001621 L 119.4 605.000000000274 L 120.25 605.0000000004632 L 121.1 605.000000000783 L 121.95000000000002 605.0000000013235 L 122.8 605.0000000022374 L 123.64999999999999 605.0000000037821 L 124.5 605.0000000063935 L 125.35 605.0000000108081 L 126.19999999999999 605.0000000182706 L 127.04999999999998 605.0000000308856 L 127.9 605.0000000522109 L 128.75 605.0000000882605 L 129.6 605.0000001492007 L 130.45000000000002 605.0000002522177 L 131.3 605.0000004263636 L 132.15 605.0000007207501 L 133.0 605.0000012183984 L 133.85000000000002 605.0000020596523 L 134.7 605.0000034817575 L 135.54999999999998 605.0000058857677 L 136.4 605.0000099496482 L 137.25 605.0000168194708 L 138.1 605.0000284326233 L 138.95 605.0000480641795 L 139.8 605.0000812505175 L 140.65 605.0001373506564 L 141.5 605.0002321856325 L 142.35 605.0003925002568 L 143.20000000000002 605.0006635055322 L 144.05 605.0011216287978 L 144.89999999999998 605.0018960673259 L 145.75 605.0032052237881 L 146.6 605.0054182989137 L 147.45 605.0091594113418 L 148.29999999999998 605.0154836079487 L 149.15 605.0261744020618 L 150.0 605.0442467495662 L 150.85 605.0747973093163 L 151.70000000000002 605.1264417733686 L 152.55 605.2137446145957 L 153.4 605.3613264750367 L 154.25 605.6108075368793 L 155.10000000000002 606.0325450053743 L 155.95000000000002 606.7454748406847 L 156.8 607.9506533890583 L 157.65 609.9879581300335 L 158.5 613.4319379562594 L 159.35000000000002 619.2538441271422 L 160.20000000000002 629.0955369281442 L 161.04999999999998 645.7325136066261 L 161.89999999999998 673.8566380430432 L 162.75 684.9999998941371 L 163.6 684.9999998497733 L 164.45 684.9999997868181 L 165.3 684.9999996974806 L 166.14999999999998 684.9999995707045 L 167.0 684.9999993908007 L 167.85 684.999999135505 L 168.7 684.9999987732233 L 169.55 684.999998259121 L 170.39999999999998 684.9999975295751 L 171.25 684.9999964943001 L 172.10000000000002 684.9999950251752 L 172.95 684.9999929403875 L 173.8 684.9999899819329 L 174.65 684.9999857836863 L 175.5 684.9999798260905 L 176.35000000000002 684.9999713718595 L 177.2 684.999959374735 L 178.05 684.9999423500047 L 178.9 684.9999181907625 L 179.75 684.9998839071659 L 180.60000000000002 684.9998352564264 L 181.45000000000002 684.999766217741 L 182.29999999999998 684.9996682471829 L 183.14999999999998 684.999529220343 L 184.0 684.9993319318661 L 184.85 684.9990519661911 L 185.7 684.9986546759868 L 186.55 684.9980908943505 L 187.39999999999998 684.997290850126 L 188.25 684.9961555333294 L 189.1 684.9945444421063 L 189.95 684.9922581948337 L 190.8 684.9890138555207 L 191.64999999999998 684.9844099188854 L 192.5 684.9778766218102 L 193.35000000000002 684.9686054319458 L 194.2 684.9554489872721 L 195.05 684.9367791035809 L 195.9 684.9102852774986 L 196.75 684.8726887486673 L 197.60000000000002 684.8193367346628 L 198.45 684.7436266229372 L 199.3 684.6361888602868 L 200.15 684.4837274178163 L 201.0 684.2673743323946 L 201.85000000000002 683.9603546898348 L 202.70000000000002 683.5246730782975 L 203.54999999999998 682.906411441846 L 204.39999999999998 682.0290564170175 L 205.25 680.7840303726881 L 206.1 679.0172543160268 L 206.95 676.5100797483873 L 207.8 672.9522296807918 L 208.64999999999998 667.9034001071064 L 209.5 660.7387699007119 L 210.35 650.571675677146 L 211.2 645.0 L 212.05 645.0 L 212.89999999999998 645.0 L 213.75 645.0 L 214.60000000000002 645.0 L 215.45 645.0 L 216.3 645.0 L 217.15 645.0 L 218.0 645.0 L 218.85000000000002 645.0 L 219.7 645.0 L 220.55 645.0 L 221.4 645.0 L 222.25 645.0 L 223.10000000000002 645.0 L 223.95000000000002 645.0 L 224.79999999999998 645.0 L 225.65 645.0 L 226.5 645.0 L 227.35 645.0 L 228.2 645.0 L 229.05 645.0 L 229.89999999999998 645.0 L 230.75 645.0 L 231.6 645.0 L 232.45 645.0 L 233.3 645.0 L 234.14999999999998 645.0" style="stroke:rgb(40%,76.1%,64.7%);stroke-opacity:1.0;stroke-width:5.0" /></g></g><g class="toyplot-mark-FillBoundaries" style="stroke:none" id="t2b51d2d8dae54f9295ee23d28f227393"><polygon points="65.0,685.0 65.85,685.0 66.69999999999999,685.0 67.55000000000001,685.0 68.39999999999999,685.0 69.25,685.0 70.1,685.0 70.95,685.0 71.8,685.0 72.64999999999999,685.0 73.5,685.0 74.35,685.0 75.19999999999999,685.0 76.05000000000001,685.0 76.9,685.0 77.75,685.0 78.60000000000001,685.0 79.45,685.0 80.3,685.0 81.15,685.0 82.0,685.0 82.85000000000001,685.0 83.7,685.0 84.55,685.0 85.4,685.0 86.25,685.0 87.1,685.0 87.95,685.0 88.80000000000001,685.0 89.64999999999999,685.0 90.5,685.0 91.35,685.0 92.2,685.0 93.05,685.0 93.9,685.0 94.75,685.0 95.6,685.0 96.44999999999999,685.0 97.30000000000001,685.0 98.15,685.0 99.0,685.0 99.85,685.0 100.7,685.0 101.55,685.0 102.4,685.0 103.25,685.0 104.10000000000001,685.0 104.94999999999999,685.0 105.8,685.0 106.65,685.0 107.5,685.0 108.35,685.0 109.2,685.0 110.05000000000001,685.0 110.9,685.0 111.75,685.0 112.60000000000001,685.0 113.45,685.0 114.29999999999998,685.0 115.15,685.0 116.0,685.0 116.85,685.0 117.69999999999999,685.0 118.55000000000001,685.0 119.4,685.0 120.25,685.0 121.1,685.0 121.95000000000002,685.0 122.8,685.0 123.64999999999999,685.0 124.5,685.0 125.35,685.0 126.19999999999999,685.0 127.04999999999998,685.0 127.9,685.0 128.75,685.0 129.6,685.0 130.45000000000002,685.0 131.3,685.0 132.15,685.0 133.0,685.0 133.85000000000002,685.0 134.7,685.0 135.54999999999998,685.0 136.4,685.0 137.25,685.0 138.1,685.0 138.95,685.0 139.8,685.0 140.65,685.0 141.5,685.0 142.35,685.0 143.20000000000002,685.0 144.05,685.0 144.89999999999998,685.0 145.75,685.0 146.6,685.0 147.45,685.0 148.29999999999998,685.0 149.15,685.0 150.0,685.0 150.85,685.0 151.70000000000002,685.0 152.55,685.0 153.4,685.0 154.25,685.0 155.10000000000002,685.0 155.95000000000002,685.0 156.8,685.0 157.65,685.0 158.5,685.0 159.35000000000002,685.0 160.20000000000002,685.0 161.04999999999998,685.0 161.89999999999998,685.0 162.75,685.0 163.6,685.0 164.45,685.0 165.3,685.0 166.14999999999998,685.0 167.0,685.0 167.85,685.0 168.7,685.0 169.55,685.0 170.39999999999998,685.0 171.25,685.0 172.10000000000002,685.0 172.95,685.0 173.8,685.0 174.65,685.0 175.5,685.0 176.35000000000002,685.0 177.2,685.0 178.05,685.0 178.9,685.0 179.75,685.0 180.60000000000002,685.0 181.45000000000002,685.0 182.29999999999998,685.0 183.14999999999998,685.0 184.0,685.0 184.85,685.0 185.7,685.0 186.55,685.0 187.39999999999998,685.0 188.25,685.0 189.1,685.0 189.95,685.0 190.8,685.0 191.64999999999998,685.0 192.5,685.0 193.35000000000002,685.0 194.2,685.0 195.05,685.0 195.9,685.0 196.75,685.0 197.60000000000002,685.0 198.45,685.0 199.3,685.0 200.15,685.0 201.0,685.0 201.85000000000002,685.0 202.70000000000002,685.0 203.54999999999998,685.0 204.39999999999998,685.0 205.25,685.0 206.1,685.0 206.95,685.0 207.8,685.0 208.64999999999998,685.0 209.5,685.0 210.35,685.0 211.2,685.0 212.05,685.0 212.89999999999998,685.0 213.75,685.0 214.60000000000002,685.0 215.45,685.0 216.3,685.0 217.15,685.0 218.0,685.0 218.85000000000002,685.0 219.7,685.0 220.55,685.0 221.4,685.0 222.25,685.0 223.10000000000002,685.0 223.95000000000002,685.0 224.79999999999998,685.0 225.65,685.0 226.5,685.0 227.35,685.0 228.2,685.0 229.05,685.0 229.89999999999998,685.0 230.75,685.0 231.6,685.0 232.45,685.0 233.3,685.0 234.14999999999998,685.0 234.14999999999998,645.0 233.3,645.0 232.45,645.0 231.6,645.0 230.75,645.0 229.89999999999998,645.0 229.05,645.0 228.2,645.0 227.35,645.0 226.5,645.0 225.65,645.0 224.79999999999998,645.0 223.95000000000002,645.0 223.10000000000002,645.0 222.25,645.0 221.4,645.0 220.55,645.0 219.7,645.0 218.85000000000002,645.0 218.0,645.0 217.15,645.0 216.3,645.0 215.45,645.0 214.60000000000002,645.0 213.75,645.0 212.89999999999998,645.0 212.05,645.0 211.2,645.0 210.35,650.571675677146 209.5,660.7387699007119 208.64999999999998,667.9034001071064 207.8,672.9522296807918 206.95,676.5100797483873 206.1,679.0172543160268 205.25,680.7840303726881 204.39999999999998,682.0290564170175 203.54999999999998,682.906411441846 202.70000000000002,683.5246730782975 201.85000000000002,683.9603546898348 201.0,684.2673743323946 200.15,684.4837274178163 199.3,684.6361888602868 198.45,684.7436266229372 197.60000000000002,684.8193367346628 196.75,684.8726887486673 195.9,684.9102852774986 195.05,684.9367791035809 194.2,684.9554489872721 193.35000000000002,684.9686054319458 192.5,684.9778766218102 191.64999999999998,684.9844099188854 190.8,684.9890138555207 189.95,684.9922581948337 189.1,684.9945444421063 188.25,684.9961555333294 187.39999999999998,684.997290850126 186.55,684.9980908943505 185.7,684.9986546759868 184.85,684.9990519661911 184.0,684.9993319318661 183.14999999999998,684.999529220343 182.29999999999998,684.9996682471829 181.45000000000002,684.999766217741 180.60000000000002,684.9998352564264 179.75,684.9998839071659 178.9,684.9999181907625 178.05,684.9999423500047 177.2,684.999959374735 176.35000000000002,684.9999713718595 175.5,684.9999798260905 174.65,684.9999857836863 173.8,684.9999899819329 172.95,684.9999929403875 172.10000000000002,684.9999950251752 171.25,684.9999964943001 170.39999999999998,684.9999975295751 169.55,684.999998259121 168.7,684.9999987732233 167.85,684.999999135505 167.0,684.9999993908007 166.14999999999998,684.9999995707045 165.3,684.9999996974806 164.45,684.9999997868181 163.6,684.9999998497733 162.75,684.9999998941371 161.89999999999998,673.8566380430432 161.04999999999998,645.7325136066261 160.20000000000002,629.0955369281442 159.35000000000002,619.2538441271422 158.5,613.4319379562594 157.65,609.9879581300335 156.8,607.9506533890583 155.95000000000002,606.7454748406847 155.10000000000002,606.0325450053743 154.25,605.6108075368793 153.4,605.3613264750367 152.55,605.2137446145957 151.70000000000002,605.1264417733686 150.85,605.0747973093163 150.0,605.0442467495662 149.15,605.0261744020618 148.29999999999998,605.0154836079487 147.45,605.0091594113418 146.6,605.0054182989137 145.75,605.0032052237881 144.89999999999998,605.0018960673259 144.05,605.0011216287978 143.20000000000002,605.0006635055322 142.35,605.0003925002568 141.5,605.0002321856325 140.65,605.0001373506564 139.8,605.0000812505175 138.95,605.0000480641795 138.1,605.0000284326233 137.25,605.0000168194708 136.4,605.0000099496482 135.54999999999998,605.0000058857677 134.7,605.0000034817575 133.85000000000002,605.0000020596523 133.0,605.0000012183984 132.15,605.0000007207501 131.3,605.0000004263636 130.45000000000002,605.0000002522177 129.6,605.0000001492007 128.75,605.0000000882605 127.9,605.0000000522109 127.04999999999998,605.0000000308856 126.19999999999999,605.0000000182706 125.35,605.0000000108081 124.5,605.0000000063935 123.64999999999999,605.0000000037821 122.8,605.0000000022374 121.95000000000002,605.0000000013235 121.1,605.000000000783 120.25,605.0000000004632 119.4,605.000000000274 118.55000000000001,605.0000000001621 117.69999999999999,605.0000000000958 116.85,605.0000000000567 116.0,605.0000000000335 115.15,605.0000000000198 114.29999999999998,605.0000000000117 113.45,605.9754115099928 112.60000000000001,611.5935990792923 111.75,615.5526689451832 110.9,618.3425783260409 110.05000000000001,620.3085942381258 109.2,621.6940222355695 108.35,622.6703168445309 107.5,623.3583000275227 106.65,623.8431135825036 105.8,624.184755920433 104.94999999999999,624.4255072069154 104.10000000000001,624.5951617710841 103.25,624.7147153218201 102.4,624.7989632851074 101.55,624.858331821419 100.7,624.9001681218618 99.85,624.9296496645018 99.0,624.9504249564666 98.15,624.9650650572748 97.30000000000001,624.9753817619466 96.44999999999999,624.9826518208539 95.6,624.9877749447774 94.75,624.9913851491885 93.9,624.9939292172385 93.05,624.9957219916927 92.2,624.996985338498 91.35,624.997875603945 90.5,624.9985029634022 89.64999999999999,624.9989450561397 88.80000000000001,624.9992565936263 87.95,624.9994761303826 87.1,624.9996308353201 86.25,624.999739854047 85.4,624.9998166782452 84.55,624.9998708153429 83.7,624.9999089651108 82.85000000000001,624.9999358487978 82.0,624.9999547934119 81.15,624.9999681434558 80.3,624.9999775510727 79.45,624.9999841805084 78.60000000000001,624.9999888521927 77.75,624.9999921442729 76.9,624.9999944641627 76.05000000000001,624.9999960989613 75.19999999999999,624.9999972509845 74.35,624.9999980628015 73.5,624.9999986348794 72.64999999999999,624.9999990380156 71.8,624.9999993221011 70.95,624.9999995222927 70.1,624.9999996633653 69.25,624.9999997627776 68.39999999999999,624.9999998328321 67.55000000000001,624.9999998821988 66.69999999999999,624.999999916987 65.85,624.9999999415016 65.0,624.9999999587769" style="fill:rgb(40%,76.1%,64.7%);fill-opacity:1.0;opacity:0.33;stroke:none" /></g><g class="toyplot-mark-Plot" style="fill:none;stroke:rgb(0%,0%,0%);stroke-dasharray:4,2;stroke-opacity:1.0;stroke-width:2" id="tdcab0268918f4286b5d61756e5c5048b"><g class="toyplot-Series"><path d="M 65.0 685.0 L 65.0 624.9999999587769" style="stroke:rgb(0%,0%,0%);stroke-dasharray:4,2;stroke-opacity:1.0;stroke-width:2" /></g></g><g class="toyplot-mark-Plot" style="fill:none;stroke:rgb(0%,0%,0%);stroke-dasharray:4,2;stroke-opacity:1.0;stroke-width:2" id="t4f11dad0283849b6bee913253e48fa40"><g class="toyplot-Series"><path d="M 113.5714280857143 685.0 L 113.5714280857143 605.0000040000069" style="stroke:rgb(0%,0%,0%);stroke-dasharray:4,2;stroke-opacity:1.0;stroke-width:2" /></g></g><g class="toyplot-mark-Plot" style="fill:none;stroke:rgb(0%,0%,0%);stroke-dasharray:4,2;stroke-opacity:1.0;stroke-width:2" id="t659ea93f60fd4aaa865d58d3c6d9ad84"><g class="toyplot-Series"><path d="M 162.14285665714286 685.0 L 162.14285665714286 684.9999759175578" style="stroke:rgb(0%,0%,0%);stroke-dasharray:4,2;stroke-opacity:1.0;stroke-width:2" /></g></g><g class="toyplot-mark-Plot" style="fill:none;stroke:rgb(0%,0%,0%);stroke-dasharray:4,2;stroke-opacity:1.0;stroke-width:2" id="taefe8e3696ae40e68b0dde4421d54e71"><g class="toyplot-Series"><path d="M 210.71428522857144 685.0 L 210.71428522857144 645.0000018819536" style="stroke:rgb(0%,0%,0%);stroke-dasharray:4,2;stroke-opacity:1.0;stroke-width:2" /></g></g><g class="toyplot-mark-Plot" style="fill:none;stroke:rgb(0%,0%,0%);stroke-dasharray:4,2;stroke-opacity:1.0;stroke-width:2" id="t3b5964c5ee054ee9bc14920a4642b2cb"><g class="toyplot-Series"><path d="M 234.99999951428572 685.0 L 234.99999951428572 645.0" style="stroke:rgb(0%,0%,0%);stroke-dasharray:4,2;stroke-opacity:1.0;stroke-width:2" /></g></g></g><g class="toyplot-coordinates-Axis" id="tb0fa38efd8754cd7bce89062b5c30477" transform="translate(65.0,685.0)translate(0,10.0)"><line x1="0" y1="0" x2="169.99999951428572" y2="0" style="stroke-width:1.5" /><g><line x1="0.0" y1="7.5" x2="0.0" y2="0" style="stroke-width:1.5" /><line x1="48.57142857142857" y1="7.5" x2="48.57142857142857" y2="0" style="stroke-width:1.5" /><line x1="97.14285714285714" y1="7.5" x2="97.14285714285714" y2="0" style="stroke-width:1.5" /><line x1="145.7142857142857" y1="7.5" x2="145.7142857142857" y2="0" style="stroke-width:1.5" /><line x1="170.0" y1="7.5" x2="170.0" y2="0" style="stroke-width:1.5" /></g><g><g transform="translate(0.0,15.0)"><text x="-16.68" y="8.555" style="fill:rgb(16.1%,15.3%,14.1%);fill-opacity:1.0;font-family:helvetica;font-size:10.0px;font-weight:normal;stroke:none;vertical-align:baseline;white-space:pre">100000</text></g><g transform="translate(48.57142857142857,15.0)"><text x="-16.68" y="8.555" style="fill:rgb(16.1%,15.3%,14.1%);fill-opacity:1.0;font-family:helvetica;font-size:10.0px;font-weight:normal;stroke:none;vertical-align:baseline;white-space:pre">200000</text></g><g transform="translate(97.14285714285714,15.0)"><text x="-16.68" y="8.555" style="fill:rgb(16.1%,15.3%,14.1%);fill-opacity:1.0;font-family:helvetica;font-size:10.0px;font-weight:normal;stroke:none;vertical-align:baseline;white-space:pre">300000</text></g><g transform="translate(145.7142857142857,15.0)"><text x="-16.68" y="8.555" style="fill:rgb(16.1%,15.3%,14.1%);fill-opacity:1.0;font-family:helvetica;font-size:10.0px;font-weight:normal;stroke:none;vertical-align:baseline;white-space:pre">400000</text></g><g transform="translate(170.0,15.0)"><text x="-16.68" y="8.555" style="fill:rgb(16.1%,15.3%,14.1%);fill-opacity:1.0;font-family:helvetica;font-size:10.0px;font-weight:normal;stroke:none;vertical-align:baseline;white-space:pre">450000</text></g></g><g transform="translate(85.0,35.0)"><text x="-100.02000000000002" y="10.265999999999998" style="fill:rgb(16.1%,15.3%,14.1%);fill-opacity:1.0;font-family:helvetica;font-size:12.0px;font-weight:bold;stroke:none;vertical-align:baseline;white-space:pre">Time of recombination on branch 7</text></g><g class="toyplot-coordinates-Axis-coordinates" style="visibility:hidden" transform=""><line x1="0" x2="0" y1="-7.5" y2="11.25" style="stroke:rgb(43.9%,50.2%,56.5%);stroke-opacity:1.0;stroke-width:1.0" /><text x="0" y="-15.0" style="alignment-baseline:alphabetic;fill:rgb(43.9%,50.2%,56.5%);fill-opacity:1.0;font-size:10px;font-weight:normal;stroke:none;text-anchor:middle" /></g></g><g class="toyplot-coordinates-Axis" id="t2b08bbbae39d42cd81e59cb4201342c1" transform="translate(65.0,685.0)rotate(-90.0)translate(0,-10.0)"><line x1="0" y1="0" x2="120.0" y2="0" style="stroke-width:1.5" /><g><line x1="0.0" y1="-7.5" x2="0.0" y2="0" style="stroke-width:1.5" /><line x1="60.0" y1="-7.5" x2="60.0" y2="0" style="stroke-width:1.5" /><line x1="120.0" y1="-7.5" x2="120.0" y2="0" style="stroke-width:1.5" /></g><g><g transform="translate(0.0,-15.0)"><text x="-6.95" y="-4.440892098500626e-16" style="fill:rgb(16.1%,15.3%,14.1%);fill-opacity:1.0;font-family:helvetica;font-size:10.0px;font-weight:normal;stroke:none;vertical-align:baseline;white-space:pre">0.0</text></g><g transform="translate(60.0,-15.0)"><text x="-6.95" y="-4.440892098500626e-16" style="fill:rgb(16.1%,15.3%,14.1%);fill-opacity:1.0;font-family:helvetica;font-size:10.0px;font-weight:normal;stroke:none;vertical-align:baseline;white-space:pre">0.5</text></g><g transform="translate(120.0,-15.0)"><text x="-6.95" y="-4.440892098500626e-16" style="fill:rgb(16.1%,15.3%,14.1%);fill-opacity:1.0;font-family:helvetica;font-size:10.0px;font-weight:normal;stroke:none;vertical-align:baseline;white-space:pre">1.0</text></g></g><g transform="translate(60.0,-35.0)"><text x="-31.008" y="0.0" style="fill:rgb(16.1%,15.3%,14.1%);fill-opacity:1.0;font-family:helvetica;font-size:12.0px;font-weight:bold;stroke:none;vertical-align:baseline;white-space:pre">Probability</text></g><g class="toyplot-coordinates-Axis-coordinates" style="visibility:hidden" transform=""><line x1="0" x2="0" y1="7.5" y2="-11.25" style="stroke:rgb(43.9%,50.2%,56.5%);stroke-opacity:1.0;stroke-width:1.0" /><text x="0" y="15.0" style="alignment-baseline:hanging;fill:rgb(43.9%,50.2%,56.5%);fill-opacity:1.0;font-size:10px;font-weight:normal;stroke:none;text-anchor:middle" /></g></g><g transform="translate(150.0,545.0)"><text x="-62.608000000000004" y="-4.823" style="fill:rgb(16.1%,15.3%,14.1%);fill-opacity:1.0;font-family:helvetica;font-size:14.0px;font-weight:bold;stroke:none;vertical-align:baseline;white-space:pre">Prob(topo-change)</text></g></g></svg>