<svg class="toyplot-canvas-Canvas" xmlns:toyplot="http://www.sandia.gov/toyplot" xmlns:xlink="http://www.w3.org/1999/xlink" xmlns="http://www.w3.org/2000/svg" width="300.0px" height="750.0px" viewBox="0 0 300.0 750.0" preserveAspectRatio="xMidYMid meet" style="background-color:transparent;border-color:#292724;border-style:none;border-width:1.0;fill:rgb(16.1%,15.3%,14.1%);fill-opacity:1.0;font-family:Helvetica;font-size:12px;opacity:1.0;stroke:rgb(16.1%,15.3%,14.1%);stroke-opacity:1.0;stroke-width:1.0" id="t9405b25cae4a4e71a177dd549b0d9fa3"><g class="toyplot-coordinates-Cartesian" id="tc89c8362b1bb41c0bc57a562a033a851"><clipPath id="t8bdf9c15ce7c413287be12e7fb9c155f"><rect x="55.0" y="55.0" width="190.0" height="140.0" /></clipPath><g clip-path="url(#t8bdf9c15ce7c413287be12e7fb9c155f)"><g class="toyplot-mark-Plot" style="fill:none" id="tb99b98b990984238afed5580d8f5bc5e"><g class="toyplot-Series"><path d="M 65.0 167.76528589885925 L 65.85 167.84019067174222 L 66.69999999999999 167.91522664274257 L 67.55000000000001 167.9903940416581 L 68.39999999999999 168.06569309868894 L 69.25 168.14112404443856 L 70.1 168.21668710991432 L 70.95 168.29238252652812 L 71.8 168.36821052609722 L 72.64999999999999 168.44417134084492 L 73.5 168.52026520340138 L 74.35 168.596492346804 L 75.19999999999999 168.67285300449853 L 76.05000000000001 168.7493474103395 L 76.9 168.8259757985911 L 77.75 168.90273840392786 L 78.60000000000001 168.97963546143527 L 79.45 169.05666720661068 L 80.3 169.13383387536382 L 81.15 169.21113570401772 L 82.0 169.28857292930925 L 82.85000000000001 169.36614578838999 L 83.7 169.4438545188269 L 84.55 169.521699358603 L 85.4 169.5996805461182 L 86.25 169.6777983201899 L 87.1 169.7560529200539 L 87.95 169.8344445853649 L 88.80000000000001 169.91297355619753 L 89.64999999999999 169.9916400730468 L 90.5 170.0704443768289 L 91.35 170.14938670888216 L 92.2 170.22846731096752 L 93.05 170.3076864252693 L 93.9 170.38704429439625 L 94.75 170.4665411613818 L 95.6 170.5461772696852 L 96.44999999999999 170.62595286319208 L 97.30000000000001 170.70586818621524 L 98.15 170.78592348349545 L 99.0 170.8661190002021 L 99.85 170.94645498193407 L 100.7 171.02693167472034 L 101.55 171.1075493250208 L 102.4 171.18830817972716 L 103.25 171.26920848616336 L 104.10000000000001 171.3502504920867 L 104.94999999999999 171.43143444568847 L 105.8 171.51276059559447 L 106.65 171.59422919086617 L 107.5 171.67584048100116 L 108.35 171.75759471593415 L 109.2 171.83949214603743 L 110.05000000000001 171.92153302212205 L 110.9 172.00371759543827 L 111.75 172.0860461176763 L 112.60000000000001 172.1685188409674 L 113.45 172.2511360178843 L 114.29999999999998 172.32436097786572 L 115.15 172.39618164882248 L 116.0 172.46819109670182 L 116.85 172.54038981769412 L 117.69999999999999 172.61277830929396 L 118.55000000000001 172.68535707030358 L 119.4 172.75812660083633 L 120.25 172.83108740232 L 121.1 172.90423997750045 L 121.95000000000002 172.9775848304449 L 122.8 173.0511224665455 L 123.64999999999999 173.12485339252288 L 124.5 173.19877811642942 L 125.35 173.272897147653 L 126.19999999999999 173.34721099692032 L 127.04999999999998 173.42172017630065 L 127.9 173.49642519920897 L 128.75 173.57132658040993 L 129.6 173.6464248360212 L 130.45000000000002 173.72172048351692 L 131.3 173.7972140417315 L 132.15 173.87290603086302 L 133.0 173.94879697247688 L 133.85000000000002 174.02488738950947 L 134.7 174.10117780627158 L 135.54999999999998 174.1776687484521 L 136.4 174.25436074312182 L 137.25 174.3312543187368 L 138.1 174.4083500051421 L 138.95 174.4856483335755 L 139.8 174.56314983667116 L 140.65 174.6408550484631 L 141.5 174.71876450438916 L 142.35 174.79687874129448 L 143.20000000000002 174.87519829743525 L 144.05 174.9537237124825 L 144.89999999999998 175.0324555275257 L 145.75 175.11139428507667 L 146.6 175.19054052907296 L 147.45 175.2698948048821 L 148.29999999999998 175.34945765930485 L 149.15 175.4292296405794 L 150.0 175.50921129838483 L 150.85 175.58940318384506 L 151.70000000000002 175.66980584953265 L 152.55 175.75041984947254 L 153.4 175.83124573914588 L 154.25 175.91228407549386 L 155.10000000000002 175.9935354169216 L 155.95000000000002 176.075000323302 L 156.8 176.1566793559794 L 157.65 176.23857307777382 L 158.5 176.32068205298444 L 159.35000000000002 176.40300684739375 L 160.20000000000002 176.48554802827135 L 161.04999999999998 176.56830616437796 L 161.89999999999998 176.6512818259691 L 162.75 176.73966336592 L 163.6 176.83028704940543 L 164.45 176.92106946318555 L 165.3 177.01201088528146 L 166.14999999999998 177.10311159420132 L 167.0 177.1943718689412 L 167.85 177.28579198898572 L 168.7 177.37737223430904 L 169.55 177.4691128853758 L 170.39999999999998 177.56101422314177 L 171.25 177.65307652905486 L 172.10000000000002 177.745300085056 L 172.95 177.83768517357984 L 173.8 177.93023207755587 L 174.65 178.02294108040894 L 175.5 178.1158124660606 L 176.35000000000002 178.20884651892936 L 177.2 178.30204352393224 L 178.05 178.39540376648506 L 178.9 178.48892753250362 L 179.75 178.58261510840458 L 180.60000000000002 178.67646678110617 L 181.45000000000002 178.77048283802924 L 182.29999999999998 178.864663567098 L 183.14999999999998 178.95900925674107 L 184.0 179.05352019589213 L 184.85 179.14819667399104 L 185.7 179.2430389809846 L 186.55 179.33804740732745 L 187.39999999999998 179.43322224398295 L 188.25 179.5285637824241 L 189.1 179.62407231463445 L 189.95 179.71974813310896 L 190.8 179.81559153085487 L 191.64999999999998 179.91160280139272 L 192.5 180.00778223875704 L 193.35000000000002 180.1041301374975 L 194.2 180.20064679267955 L 195.05 180.29733249988553 L 195.9 180.39418755521555 L 196.75 180.49121225528825 L 197.60000000000002 180.5884068972418 L 198.45 180.68577177873496 L 199.3 180.78330719794772 L 200.15 180.88101345358234 L 201.0 180.97889084486437 L 201.85000000000002 181.07693967154333 L 202.70000000000002 181.1751602338939 L 203.54999999999998 181.27355283271658 L 204.39999999999998 181.37211776933876 L 205.25 181.47085534561572 L 206.1 181.56976586393128 L 206.95 181.668849627199 L 207.8 181.768106938863 L 208.64999999999998 181.86753810289892 L 209.5 181.96714342381466 L 210.35 182.0669232066517 L 211.2 182.16544583166078 L 212.05 182.2631332856583 L 212.89999999999998 182.36107750608105 L 213.75 182.4592791678263 L 214.60000000000002 182.55773894756533 L 215.45 182.6564575237479 L 216.3 182.75543557660706 L 217.15 182.8546737881639 L 218.0 182.95417284223205 L 218.85000000000002 183.05393342442264 L 219.7 183.15395622214882 L 220.55 183.25424192463055 L 221.4 183.3547912228994 L 222.25 183.45560480980325 L 223.10000000000002 183.55668338001118 L 223.95000000000002 183.6580276300181 L 224.79999999999998 183.75963825814958 L 225.65 183.86151596456682 L 226.5 183.9636614512713 L 227.35 184.06607542210955 L 228.2 184.1687585827784 L 229.05 184.2717116408293 L 229.89999999999998 184.37493530567363 L 230.75 184.47843028858733 L 231.6 184.58219730271597 L 232.45 184.68623706307952 L 233.3 184.79055028657734 L 234.14999999999998 184.89513769199317" style="stroke:rgb(40%,76.1%,64.7%);stroke-opacity:1.0;stroke-width:5.0" /></g></g><g class="toyplot-mark-FillBoundaries" style="stroke:none" id="t825392d5fce842268149db2f2a19b854"><polygon points="65.0,185.0 65.85,185.0 66.69999999999999,185.0 67.55000000000001,185.0 68.39999999999999,185.0 69.25,185.0 70.1,185.0 70.95,185.0 71.8,185.0 72.64999999999999,185.0 73.5,185.0 74.35,185.0 75.19999999999999,185.0 76.05000000000001,185.0 76.9,185.0 77.75,185.0 78.60000000000001,185.0 79.45,185.0 80.3,185.0 81.15,185.0 82.0,185.0 82.85000000000001,185.0 83.7,185.0 84.55,185.0 85.4,185.0 86.25,185.0 87.1,185.0 87.95,185.0 88.80000000000001,185.0 89.64999999999999,185.0 90.5,185.0 91.35,185.0 92.2,185.0 93.05,185.0 93.9,185.0 94.75,185.0 95.6,185.0 96.44999999999999,185.0 97.30000000000001,185.0 98.15,185.0 99.0,185.0 99.85,185.0 100.7,185.0 101.55,185.0 102.4,185.0 103.25,185.0 104.10000000000001,185.0 104.94999999999999,185.0 105.8,185.0 106.65,185.0 107.5,185.0 108.35,185.0 109.2,185.0 110.05000000000001,185.0 110.9,185.0 111.75,185.0 112.60000000000001,185.0 113.45,185.0 114.29999999999998,185.0 115.15,185.0 116.0,185.0 116.85,185.0 117.69999999999999,185.0 118.55000000000001,185.0 119.4,185.0 120.25,185.0 121.1,185.0 121.95000000000002,185.0 122.8,185.0 123.64999999999999,185.0 124.5,185.0 125.35,185.0 126.19999999999999,185.0 127.04999999999998,185.0 127.9,185.0 128.75,185.0 129.6,185.0 130.45000000000002,185.0 131.3,185.0 132.15,185.0 133.0,185.0 133.85000000000002,185.0 134.7,185.0 135.54999999999998,185.0 136.4,185.0 137.25,185.0 138.1,185.0 138.95,185.0 139.8,185.0 140.65,185.0 141.5,185.0 142.35,185.0 143.20000000000002,185.0 144.05,185.0 144.89999999999998,185.0 145.75,185.0 146.6,185.0 147.45,185.0 148.29999999999998,185.0 149.15,185.0 150.0,185.0 150.85,185.0 151.70000000000002,185.0 152.55,185.0 153.4,185.0 154.25,185.0 155.10000000000002,185.0 155.95000000000002,185.0 156.8,185.0 157.65,185.0 158.5,185.0 159.35000000000002,185.0 160.20000000000002,185.0 161.04999999999998,185.0 161.89999999999998,185.0 162.75,185.0 163.6,185.0 164.45,185.0 165.3,185.0 166.14999999999998,185.0 167.0,185.0 167.85,185.0 168.7,185.0 169.55,185.0 170.39999999999998,185.0 171.25,185.0 172.10000000000002,185.0 172.95,185.0 173.8,185.0 174.65,185.0 175.5,185.0 176.35000000000002,185.0 177.2,185.0 178.05,185.0 178.9,185.0 179.75,185.0 180.60000000000002,185.0 181.45000000000002,185.0 182.29999999999998,185.0 183.14999999999998,185.0 184.0,185.0 184.85,185.0 185.7,185.0 186.55,185.0 187.39999999999998,185.0 188.25,185.0 189.1,185.0 189.95,185.0 190.8,185.0 191.64999999999998,185.0 192.5,185.0 193.35000000000002,185.0 194.2,185.0 195.05,185.0 195.9,185.0 196.75,185.0 197.60000000000002,185.0 198.45,185.0 199.3,185.0 200.15,185.0 201.0,185.0 201.85000000000002,185.0 202.70000000000002,185.0 203.54999999999998,185.0 204.39999999999998,185.0 205.25,185.0 206.1,185.0 206.95,185.0 207.8,185.0 208.64999999999998,185.0 209.5,185.0 210.35,185.0 211.2,185.0 212.05,185.0 212.89999999999998,185.0 213.75,185.0 214.60000000000002,185.0 215.45,185.0 216.3,185.0 217.15,185.0 218.0,185.0 218.85000000000002,185.0 219.7,185.0 220.55,185.0 221.4,185.0 222.25,185.0 223.10000000000002,185.0 223.95000000000002,185.0 224.79999999999998,185.0 225.65,185.0 226.5,185.0 227.35,185.0 228.2,185.0 229.05,185.0 229.89999999999998,185.0 230.75,185.0 231.6,185.0 232.45,185.0 233.3,185.0 234.14999999999998,185.0 234.14999999999998,184.89513769199317 233.3,184.79055028657734 232.45,184.68623706307952 231.6,184.58219730271597 230.75,184.47843028858733 229.89999999999998,184.37493530567363 229.05,184.2717116408293 228.2,184.1687585827784 227.35,184.06607542210955 226.5,183.9636614512713 225.65,183.86151596456682 224.79999999999998,183.75963825814958 223.95000000000002,183.6580276300181 223.10000000000002,183.55668338001118 222.25,183.45560480980325 221.4,183.3547912228994 220.55,183.25424192463055 219.7,183.15395622214882 218.85000000000002,183.05393342442264 218.0,182.95417284223205 217.15,182.8546737881639 216.3,182.75543557660706 215.45,182.6564575237479 214.60000000000002,182.55773894756533 213.75,182.4592791678263 212.89999999999998,182.36107750608105 212.05,182.2631332856583 211.2,182.16544583166078 210.35,182.0669232066517 209.5,181.96714342381466 208.64999999999998,181.86753810289892 207.8,181.768106938863 206.95,181.668849627199 206.1,181.56976586393128 205.25,181.47085534561572 204.39999999999998,181.37211776933876 203.54999999999998,181.27355283271658 202.70000000000002,181.1751602338939 201.85000000000002,181.07693967154333 201.0,180.97889084486437 200.15,180.88101345358234 199.3,180.78330719794772 198.45,180.68577177873496 197.60000000000002,180.5884068972418 196.75,180.49121225528825 195.9,180.39418755521555 195.05,180.29733249988553 194.2,180.20064679267955 193.35000000000002,180.1041301374975 192.5,180.00778223875704 191.64999999999998,179.91160280139272 190.8,179.81559153085487 189.95,179.71974813310896 189.1,179.62407231463445 188.25,179.5285637824241 187.39999999999998,179.43322224398295 186.55,179.33804740732745 185.7,179.2430389809846 184.85,179.14819667399104 184.0,179.05352019589213 183.14999999999998,178.95900925674107 182.29999999999998,178.864663567098 181.45000000000002,178.77048283802924 180.60000000000002,178.67646678110617 179.75,178.58261510840458 178.9,178.48892753250362 178.05,178.39540376648506 177.2,178.30204352393224 176.35000000000002,178.20884651892936 175.5,178.1158124660606 174.65,178.02294108040894 173.8,177.93023207755587 172.95,177.83768517357984 172.10000000000002,177.745300085056 171.25,177.65307652905486 170.39999999999998,177.56101422314177 169.55,177.4691128853758 168.7,177.37737223430904 167.85,177.28579198898572 167.0,177.1943718689412 166.14999999999998,177.10311159420132 165.3,177.01201088528146 164.45,176.92106946318555 163.6,176.83028704940543 162.75,176.73966336592 161.89999999999998,176.6512818259691 161.04999999999998,176.56830616437796 160.20000000000002,176.48554802827135 159.35000000000002,176.40300684739375 158.5,176.32068205298444 157.65,176.23857307777382 156.8,176.1566793559794 155.95000000000002,176.075000323302 155.10000000000002,175.9935354169216 154.25,175.91228407549386 153.4,175.83124573914588 152.55,175.75041984947254 151.70000000000002,175.66980584953265 150.85,175.58940318384506 150.0,175.50921129838483 149.15,175.4292296405794 148.29999999999998,175.34945765930485 147.45,175.2698948048821 146.6,175.19054052907296 145.75,175.11139428507667 144.89999999999998,175.0324555275257 144.05,174.9537237124825 143.20000000000002,174.87519829743525 142.35,174.79687874129448 141.5,174.71876450438916 140.65,174.6408550484631 139.8,174.56314983667116 138.95,174.4856483335755 138.1,174.4083500051421 137.25,174.3312543187368 136.4,174.25436074312182 135.54999999999998,174.1776687484521 134.7,174.10117780627158 133.85000000000002,174.02488738950947 133.0,173.94879697247688 132.15,173.87290603086302 131.3,173.7972140417315 130.45000000000002,173.72172048351692 129.6,173.6464248360212 128.75,173.57132658040993 127.9,173.49642519920897 127.04999999999998,173.42172017630065 126.19999999999999,173.34721099692032 125.35,173.272897147653 124.5,173.19877811642942 123.64999999999999,173.12485339252288 122.8,173.0511224665455 121.95000000000002,172.9775848304449 121.1,172.90423997750045 120.25,172.83108740232 119.4,172.75812660083633 118.55000000000001,172.68535707030358 117.69999999999999,172.61277830929396 116.85,172.54038981769412 116.0,172.46819109670182 115.15,172.39618164882248 114.29999999999998,172.32436097786572 113.45,172.2511360178843 112.60000000000001,172.1685188409674 111.75,172.0860461176763 110.9,172.00371759543827 110.05000000000001,171.92153302212205 109.2,171.83949214603743 108.35,171.75759471593415 107.5,171.67584048100116 106.65,171.59422919086617 105.8,171.51276059559447 104.94999999999999,171.43143444568847 104.10000000000001,171.3502504920867 103.25,171.26920848616336 102.4,171.18830817972716 101.55,171.1075493250208 100.7,171.02693167472034 99.85,170.94645498193407 99.0,170.8661190002021 98.15,170.78592348349545 97.30000000000001,170.70586818621524 96.44999999999999,170.62595286319208 95.6,170.5461772696852 94.75,170.4665411613818 93.9,170.38704429439625 93.05,170.3076864252693 92.2,170.22846731096752 91.35,170.14938670888216 90.5,170.0704443768289 89.64999999999999,169.9916400730468 88.80000000000001,169.91297355619753 87.95,169.8344445853649 87.1,169.7560529200539 86.25,169.6777983201899 85.4,169.5996805461182 84.55,169.521699358603 83.7,169.4438545188269 82.85000000000001,169.36614578838999 82.0,169.28857292930925 81.15,169.21113570401772 80.3,169.13383387536382 79.45,169.05666720661068 78.60000000000001,168.97963546143527 77.75,168.90273840392786 76.9,168.8259757985911 76.05000000000001,168.7493474103395 75.19999999999999,168.67285300449853 74.35,168.596492346804 73.5,168.52026520340138 72.64999999999999,168.44417134084492 71.8,168.36821052609722 70.95,168.29238252652812 70.1,168.21668710991432 69.25,168.14112404443856 68.39999999999999,168.06569309868894 67.55000000000001,167.9903940416581 66.69999999999999,167.91522664274257 65.85,167.84019067174222 65.0,167.76528589885925" style="fill:rgb(40%,76.1%,64.7%);fill-opacity:1.0;opacity:0.33;stroke:none" /></g><g class="toyplot-mark-Plot" style="fill:none;stroke:rgb(0%,0%,0%);stroke-dasharray:4,2;stroke-opacity:1.0;stroke-width:2" id="td2b6eba6ac614419892f64e475eeec9d"><g class="toyplot-Series"><path d="M 65.0 185.0 L 65.0 167.76528589885925" style="stroke:rgb(0%,0%,0%);stroke-dasharray:4,2;stroke-opacity:1.0;stroke-width:2" /></g></g><g class="toyplot-mark-Plot" style="fill:none;stroke:rgb(0%,0%,0%);stroke-dasharray:4,2;stroke-opacity:1.0;stroke-width:2" id="t9e3996f5c4634d738d705c749ddaffec"><g class="toyplot-Series"><path d="M 113.5714280857143 185.0 L 113.5714280857143 172.2629502313469" style="stroke:rgb(0%,0%,0%);stroke-dasharray:4,2;stroke-opacity:1.0;stroke-width:2" /></g></g><g class="toyplot-mark-Plot" style="fill:none;stroke:rgb(0%,0%,0%);stroke-dasharray:4,2;stroke-opacity:1.0;stroke-width:2" id="t10989165305243f4b9225353d5dcf018"><g class="toyplot-Series"><path d="M 162.14285665714286 185.0 L 162.14285665714286 176.67502914397494" style="stroke:rgb(0%,0%,0%);stroke-dasharray:4,2;stroke-opacity:1.0;stroke-width:2" /></g></g><g class="toyplot-mark-Plot" style="fill:none;stroke:rgb(0%,0%,0%);stroke-dasharray:4,2;stroke-opacity:1.0;stroke-width:2" id="t936098473c3e475db60c62c7b376826e"><g class="toyplot-Series"><path d="M 210.71428522857144 185.0 L 210.71428522857144 182.10973939603238" style="stroke:rgb(0%,0%,0%);stroke-dasharray:4,2;stroke-opacity:1.0;stroke-width:2" /></g></g><g class="toyplot-mark-Plot" style="fill:none;stroke:rgb(0%,0%,0%);stroke-dasharray:4,2;stroke-opacity:1.0;stroke-width:2" id="t226e1baabbfe4767a711c50ec616b86a"><g class="toyplot-Series"><path d="M 234.99999951428572 185.0 L 234.99999951428572 184.99999993999998" style="stroke:rgb(0%,0%,0%);stroke-dasharray:4,2;stroke-opacity:1.0;stroke-width:2" /></g></g></g><g class="toyplot-coordinates-Axis" id="tdb756f96632148a48645ff52eaacfd15" transform="translate(65.0,185.0)translate(0,10.0)"><line x1="0" y1="0" x2="169.99999951428572" y2="0" style="stroke-width:1.5" /><g><line x1="0.0" y1="7.5" x2="0.0" y2="0" style="stroke-width:1.5" /><line x1="48.57142857142857" y1="7.5" x2="48.57142857142857" y2="0" style="stroke-width:1.5" /><line x1="97.14285714285714" y1="7.5" x2="97.14285714285714" y2="0" style="stroke-width:1.5" /><line x1="145.7142857142857" y1="7.5" x2="145.7142857142857" y2="0" style="stroke-width:1.5" /><line x1="170.0" y1="7.5" x2="170.0" y2="0" style="stroke-width:1.5" /></g><g><g transform="translate(0.0,15.0)"><text x="-16.68" y="8.555" style="fill:rgb(16.1%,15.3%,14.1%);fill-opacity:1.0;font-family:helvetica;font-size:10.0px;font-weight:normal;stroke:none;vertical-align:baseline;white-space:pre">100000</text></g><g transform="translate(48.57142857142857,15.0)"><text x="-16.68" y="8.555" style="fill:rgb(16.1%,15.3%,14.1%);fill-opacity:1.0;font-family:helvetica;font-size:10.0px;font-weight:normal;stroke:none;vertical-align:baseline;white-space:pre">200000</text></g><g transform="translate(97.14285714285714,15.0)"><text x="-16.68" y="8.555" style="fill:rgb(16.1%,15.3%,14.1%);fill-opacity:1.0;font-family:helvetica;font-size:10.0px;font-weight:normal;stroke:none;vertical-align:baseline;white-space:pre">300000</text></g><g transform="translate(145.7142857142857,15.0)"><text x="-16.68" y="8.555" style="fill:rgb(16.1%,15.3%,14.1%);fill-opacity:1.0;font-family:helvetica;font-size:10.0px;font-weight:normal;stroke:none;vertical-align:baseline;white-space:pre">400000</text></g><g transform="translate(170.0,15.0)"><text x="-16.68" y="8.555" style="fill:rgb(16.1%,15.3%,14.1%);fill-opacity:1.0;font-family:helvetica;font-size:10.0px;font-weight:normal;stroke:none;vertical-align:baseline;white-space:pre">450000</text></g></g><g transform="translate(85.0,35.0)"><text x="-100.02000000000002" y="10.265999999999998" style="fill:rgb(16.1%,15.3%,14.1%);fill-opacity:1.0;font-family:helvetica;font-size:12.0px;font-weight:bold;stroke:none;vertical-align:baseline;white-space:pre">Time of recombination on branch 7</text></g><g class="toyplot-coordinates-Axis-coordinates" style="visibility:hidden" transform=""><line x1="0" x2="0" y1="-7.5" y2="11.25" style="stroke:rgb(43.9%,50.2%,56.5%);stroke-opacity:1.0;stroke-width:1.0" /><text x="0" y="-15.0" style="alignment-baseline:alphabetic;fill:rgb(43.9%,50.2%,56.5%);fill-opacity:1.0;font-size:10px;font-weight:normal;stroke:none;text-anchor:middle" /></g></g><g class="toyplot-coordinates-Axis" id="t6bba20943acd467584aa878a91b347d5" transform="translate(65.0,185.0)rotate(-90.0)translate(0,-10.0)"><line x1="0" y1="0" x2="120.0" y2="0" style="stroke-width:1.5" /><g><line x1="0.0" y1="-7.5" x2="0.0" y2="0" style="stroke-width:1.5" /><line x1="60.0" y1="-7.5" x2="60.0" y2="0" style="stroke-width:1.5" /><line x1="120.0" y1="-7.5" x2="120.0" y2="0" style="stroke-width:1.5" /></g><g><g transform="translate(0.0,-15.0)"><text x="-6.95" y="-4.440892098500626e-16" style="fill:rgb(16.1%,15.3%,14.1%);fill-opacity:1.0;font-family:helvetica;font-size:10.0px;font-weight:normal;stroke:none;vertical-align:baseline;white-space:pre">0.0</text></g><g transform="translate(60.0,-15.0)"><text x="-6.95" y="-4.440892098500626e-16" style="fill:rgb(16.1%,15.3%,14.1%);fill-opacity:1.0;font-family:helvetica;font-size:10.0px;font-weight:normal;stroke:none;vertical-align:baseline;white-space:pre">0.5</text></g><g transform="translate(120.0,-15.0)"><text x="-6.95" y="-4.440892098500626e-16" style="fill:rgb(16.1%,15.3%,14.1%);fill-opacity:1.0;font-family:helvetica;font-size:10.0px;font-weight:normal;stroke:none;vertical-align:baseline;white-space:pre">1.0</text></g></g><g transform="translate(60.0,-35.0)"><text x="-31.008" y="0.0" style="fill:rgb(16.1%,15.3%,14.1%);fill-opacity:1.0;font-family:helvetica;font-size:12.0px;font-weight:bold;stroke:none;vertical-align:baseline;white-space:pre">Probability</text></g><g class="toyplot-coordinates-Axis-coordinates" style="visibility:hidden" transform=""><line x1="0" x2="0" y1="7.5" y2="-11.25" style="stroke:rgb(43.9%,50.2%,56.5%);stroke-opacity:1.0;stroke-width:1.0" /><text x="0" y="15.0" style="alignment-baseline:hanging;fill:rgb(43.9%,50.2%,56.5%);fill-opacity:1.0;font-size:10px;font-weight:normal;stroke:none;text-anchor:middle" /></g></g><g transform="translate(150.0,45.0)"><text x="-56.0" y="-4.823" style="fill:rgb(16.1%,15.3%,14.1%);fill-opacity:1.0;font-family:helvetica;font-size:14.0px;font-weight:bold;stroke:none;vertical-align:baseline;white-space:pre">Prob(no-change)</text></g></g><g class="toyplot-coordinates-Cartesian" id="td621a26882b44408a63c8b96f0bb2abd"><clipPath id="t337d70c006ae4e7281073d1c2bbb0ced"><rect x="55.0" y="305.0" width="190.0" height="140.0" /></clipPath><g clip-path="url(#t337d70c006ae4e7281073d1c2bbb0ced)"><g class="toyplot-mark-Plot" style="fill:none" id="te174fbbfc52e4d3d996629452a8adf0d"><g class="toyplot-Series"><path d="M 65.0 332.23471410114075 L 65.85 332.1598093282578 L 66.69999999999999 332.0847733572574 L 67.55000000000001 332.0096059583419 L 68.39999999999999 331.93430690131106 L 69.25 331.8588759555615 L 70.1 331.78331289008565 L 70.95 331.7076174734719 L 71.8 331.6317894739028 L 72.64999999999999 331.55582865915505 L 73.5 331.4797347965986 L 74.35 331.40350765319596 L 75.19999999999999 331.3271469955015 L 76.05000000000001 331.25065258966055 L 76.9 331.17402420140894 L 77.75 331.09726159607214 L 78.60000000000001 331.0203645385647 L 79.45 330.94333279338935 L 80.3 330.8661661246362 L 81.15 330.78886429598225 L 82.0 330.7114270706908 L 82.85000000000001 330.63385421161 L 83.7 330.5561454811731 L 84.55 330.478300641397 L 85.4 330.40031945388176 L 86.25 330.32220167981006 L 87.1 330.2439470799461 L 87.95 330.16555541463504 L 88.80000000000001 330.0870264438025 L 89.64999999999999 330.0083599269532 L 90.5 329.9295556231711 L 91.35 329.85061329111784 L 92.2 329.7715326890325 L 93.05 329.69231357473063 L 93.9 329.6129557056037 L 94.75 329.5334588386182 L 95.6 329.4538227303148 L 96.44999999999999 329.374047136808 L 97.30000000000001 329.29413181378476 L 98.15 329.2140765165045 L 99.0 329.1338809997979 L 99.85 329.0535450180659 L 100.7 328.97306832527966 L 101.55 328.89245067497916 L 102.4 328.81169182027287 L 103.25 328.73079151383666 L 104.10000000000001 328.64974950791327 L 104.94999999999999 328.56856555431153 L 105.8 328.48723940440556 L 106.65 328.4057708091338 L 107.5 328.32415951899884 L 108.35 328.24240528406585 L 109.2 328.1605078539626 L 110.05000000000001 328.07846697787795 L 110.9 327.9962824045618 L 111.75 327.9139538823237 L 112.60000000000001 327.8314811590326 L 113.45 327.74886398211567 L 114.29999999999998 327.6756390221343 L 115.15 327.60381835117755 L 116.0 327.5318089032982 L 116.85 327.4596101823059 L 117.69999999999999 327.38722169070604 L 118.55000000000001 327.3146429296964 L 119.4 327.24187339916364 L 120.25 327.16891259768 L 121.1 327.0957600224995 L 121.95000000000002 327.02241516955513 L 122.8 326.94887753345444 L 123.64999999999999 326.8751466074771 L 124.5 326.8012218835706 L 125.35 326.727102852347 L 126.19999999999999 326.65278900307965 L 127.04999999999998 326.57827982369935 L 127.9 326.503574800791 L 128.75 326.42867341959004 L 129.6 326.3535751639788 L 130.45000000000002 326.27827951648305 L 131.3 326.2027859582685 L 132.15 326.127093969137 L 133.0 326.05120302752306 L 133.85000000000002 325.9751126104905 L 134.7 325.8988221937284 L 135.54999999999998 325.8223312515479 L 136.4 325.7456392568782 L 137.25 325.6687456812632 L 138.1 325.5916499948579 L 138.95 325.5143516664245 L 139.8 325.4368501633288 L 140.65 325.3591449515369 L 141.5 325.2812354956109 L 142.35 325.2031212587055 L 143.20000000000002 325.12480170256475 L 144.05 325.0462762875175 L 144.89999999999998 324.9675444724743 L 145.75 324.8886057149233 L 146.6 324.80945947092704 L 147.45 324.73010519511786 L 148.29999999999998 324.65054234069515 L 149.15 324.57077035942064 L 150.0 324.49078870161514 L 150.85 324.4105968161549 L 151.70000000000002 324.3301941504674 L 152.55 324.24958015052744 L 153.4 324.16875426085414 L 154.25 324.08771592450614 L 155.10000000000002 324.0064645830784 L 155.95000000000002 323.924999676698 L 156.8 323.8433206440206 L 157.65 323.7614269222262 L 158.5 323.6793179470156 L 159.35000000000002 323.5969931526063 L 160.20000000000002 323.51445197172865 L 161.04999999999998 323.43169383562207 L 161.89999999999998 323.3487181740309 L 162.75 323.26033663408003 L 163.6 323.16971295059454 L 164.45 323.0789305368145 L 165.3 322.9879891147185 L 166.14999999999998 322.8968884057987 L 167.0 322.8056281310588 L 167.85 322.71420801101425 L 168.7 322.622627765691 L 169.55 322.5308871146242 L 170.39999999999998 322.4389857768582 L 171.25 322.34692347094517 L 172.10000000000002 322.25469991494396 L 172.95 322.1623148264202 L 173.8 322.0697679224441 L 174.65 321.977058919591 L 175.5 321.88418753393944 L 176.35000000000002 321.79115348107064 L 177.2 321.69795647606776 L 178.05 321.60459623351494 L 178.9 321.5110724674964 L 179.75 321.4173848915955 L 180.60000000000002 321.3235332188939 L 181.45000000000002 321.22951716197076 L 182.29999999999998 321.135336432902 L 183.14999999999998 321.04099074325893 L 184.0 320.94647980410787 L 184.85 320.85180332600896 L 185.7 320.75696101901536 L 186.55 320.66195259267255 L 187.39999999999998 320.5667777560171 L 188.25 320.47143621757596 L 189.1 320.3759276853656 L 189.95 320.28025186689104 L 190.8 320.1844084691451 L 191.64999999999998 320.08839719860725 L 192.5 319.99221776124296 L 193.35000000000002 319.89586986250254 L 194.2 319.79935320732045 L 195.05 319.70266750011444 L 195.9 319.6058124447845 L 196.75 319.50878774471175 L 197.60000000000002 319.41159310275816 L 198.45 319.314228221265 L 199.3 319.2166928020523 L 200.15 319.11898654641766 L 201.0 319.0211091551356 L 201.85000000000002 318.92306032845664 L 202.70000000000002 318.8248397661061 L 203.54999999999998 318.7264471672834 L 204.39999999999998 318.6278822306612 L 205.25 318.52914465438425 L 206.1 318.4302341360687 L 206.95 318.33115037280095 L 207.8 318.231893061137 L 208.64999999999998 318.1324618971011 L 209.5 318.03285657618534 L 210.35 317.9330767933483 L 211.2 317.83455416833925 L 212.05 317.7368667143417 L 212.89999999999998 317.6389224939189 L 213.75 317.5407208321737 L 214.60000000000002 317.4422610524347 L 215.45 317.34354247625214 L 216.3 317.24456442339294 L 217.15 317.1453262118361 L 218.0 317.045827157768 L 218.85000000000002 316.94606657557733 L 219.7 316.8460437778512 L 220.55 316.7457580753695 L 221.4 316.6452087771006 L 222.25 316.5443951901967 L 223.10000000000002 316.4433166199888 L 223.95000000000002 316.3419723699819 L 224.79999999999998 316.24036174185045 L 225.65 316.1384840354332 L 226.5 316.03633854872874 L 227.35 315.9339245778904 L 228.2 315.8312414172216 L 229.05 315.7282883591707 L 229.89999999999998 315.62506469432634 L 230.75 315.52156971141267 L 231.6 315.417802697284 L 232.45 315.31376293692045 L 233.3 315.2094497134227 L 234.14999999999998 315.10486230800683" style="stroke:rgb(40%,76.1%,64.7%);stroke-opacity:1.0;stroke-width:5.0" /></g></g><g class="toyplot-mark-FillBoundaries" style="stroke:none" id="tb3d1377fc5bc4cc49c47573b356496c9"><polygon points="65.0,435.0 65.85,435.0 66.69999999999999,435.0 67.55000000000001,435.0 68.39999999999999,435.0 69.25,435.0 70.1,435.0 70.95,435.0 71.8,435.0 72.64999999999999,435.0 73.5,435.0 74.35,435.0 75.19999999999999,435.0 76.05000000000001,435.0 76.9,435.0 77.75,435.0 78.60000000000001,435.0 79.45,435.0 80.3,435.0 81.15,435.0 82.0,435.0 82.85000000000001,435.0 83.7,435.0 84.55,435.0 85.4,435.0 86.25,435.0 87.1,435.0 87.95,435.0 88.80000000000001,435.0 89.64999999999999,435.0 90.5,435.0 91.35,435.0 92.2,435.0 93.05,435.0 93.9,435.0 94.75,435.0 95.6,435.0 96.44999999999999,435.0 97.30000000000001,435.0 98.15,435.0 99.0,435.0 99.85,435.0 100.7,435.0 101.55,435.0 102.4,435.0 103.25,435.0 104.10000000000001,435.0 104.94999999999999,435.0 105.8,435.0 106.65,435.0 107.5,435.0 108.35,435.0 109.2,435.0 110.05000000000001,435.0 110.9,435.0 111.75,435.0 112.60000000000001,435.0 113.45,435.0 114.29999999999998,435.0 115.15,435.0 116.0,435.0 116.85,435.0 117.69999999999999,435.0 118.55000000000001,435.0 119.4,435.0 120.25,435.0 121.1,435.0 121.95000000000002,435.0 122.8,435.0 123.64999999999999,435.0 124.5,435.0 125.35,435.0 126.19999999999999,435.0 127.04999999999998,435.0 127.9,435.0 128.75,435.0 129.6,435.0 130.45000000000002,435.0 131.3,435.0 132.15,435.0 133.0,435.0 133.85000000000002,435.0 134.7,435.0 135.54999999999998,435.0 136.4,435.0 137.25,435.0 138.1,435.0 138.95,435.0 139.8,435.0 140.65,435.0 141.5,435.0 142.35,435.0 143.20000000000002,435.0 144.05,435.0 144.89999999999998,435.0 145.75,435.0 146.6,435.0 147.45,435.0 148.29999999999998,435.0 149.15,435.0 150.0,435.0 150.85,435.0 151.70000000000002,435.0 152.55,435.0 153.4,435.0 154.25,435.0 155.10000000000002,435.0 155.95000000000002,435.0 156.8,435.0 157.65,435.0 158.5,435.0 159.35000000000002,435.0 160.20000000000002,435.0 161.04999999999998,435.0 161.89999999999998,435.0 162.75,435.0 163.6,435.0 164.45,435.0 165.3,435.0 166.14999999999998,435.0 167.0,435.0 167.85,435.0 168.7,435.0 169.55,435.0 170.39999999999998,435.0 171.25,435.0 172.10000000000002,435.0 172.95,435.0 173.8,435.0 174.65,435.0 175.5,435.0 176.35000000000002,435.0 177.2,435.0 178.05,435.0 178.9,435.0 179.75,435.0 180.60000000000002,435.0 181.45000000000002,435.0 182.29999999999998,435.0 183.14999999999998,435.0 184.0,435.0 184.85,435.0 185.7,435.0 186.55,435.0 187.39999999999998,435.0 188.25,435.0 189.1,435.0 189.95,435.0 190.8,435.0 191.64999999999998,435.0 192.5,435.0 193.35000000000002,435.0 194.2,435.0 195.05,435.0 195.9,435.0 196.75,435.0 197.60000000000002,435.0 198.45,435.0 199.3,435.0 200.15,435.0 201.0,435.0 201.85000000000002,435.0 202.70000000000002,435.0 203.54999999999998,435.0 204.39999999999998,435.0 205.25,435.0 206.1,435.0 206.95,435.0 207.8,435.0 208.64999999999998,435.0 209.5,435.0 210.35,435.0 211.2,435.0 212.05,435.0 212.89999999999998,435.0 213.75,435.0 214.60000000000002,435.0 215.45,435.0 216.3,435.0 217.15,435.0 218.0,435.0 218.85000000000002,435.0 219.7,435.0 220.55,435.0 221.4,435.0 222.25,435.0 223.10000000000002,435.0 223.95000000000002,435.0 224.79999999999998,435.0 225.65,435.0 226.5,435.0 227.35,435.0 228.2,435.0 229.05,435.0 229.89999999999998,435.0 230.75,435.0 231.6,435.0 232.45,435.0 233.3,435.0 234.14999999999998,435.0 234.14999999999998,315.10486230800683 233.3,315.2094497134227 232.45,315.31376293692045 231.6,315.417802697284 230.75,315.52156971141267 229.89999999999998,315.62506469432634 229.05,315.7282883591707 228.2,315.8312414172216 227.35,315.9339245778904 226.5,316.03633854872874 225.65,316.1384840354332 224.79999999999998,316.24036174185045 223.95000000000002,316.3419723699819 223.10000000000002,316.4433166199888 222.25,316.5443951901967 221.4,316.6452087771006 220.55,316.7457580753695 219.7,316.8460437778512 218.85000000000002,316.94606657557733 218.0,317.045827157768 217.15,317.1453262118361 216.3,317.24456442339294 215.45,317.34354247625214 214.60000000000002,317.4422610524347 213.75,317.5407208321737 212.89999999999998,317.6389224939189 212.05,317.7368667143417 211.2,317.83455416833925 210.35,317.9330767933483 209.5,318.03285657618534 208.64999999999998,318.1324618971011 207.8,318.231893061137 206.95,318.33115037280095 206.1,318.4302341360687 205.25,318.52914465438425 204.39999999999998,318.6278822306612 203.54999999999998,318.7264471672834 202.70000000000002,318.8248397661061 201.85000000000002,318.92306032845664 201.0,319.0211091551356 200.15,319.11898654641766 199.3,319.2166928020523 198.45,319.314228221265 197.60000000000002,319.41159310275816 196.75,319.50878774471175 195.9,319.6058124447845 195.05,319.70266750011444 194.2,319.79935320732045 193.35000000000002,319.89586986250254 192.5,319.99221776124296 191.64999999999998,320.08839719860725 190.8,320.1844084691451 189.95,320.28025186689104 189.1,320.3759276853656 188.25,320.47143621757596 187.39999999999998,320.5667777560171 186.55,320.66195259267255 185.7,320.75696101901536 184.85,320.85180332600896 184.0,320.94647980410787 183.14999999999998,321.04099074325893 182.29999999999998,321.135336432902 181.45000000000002,321.22951716197076 180.60000000000002,321.3235332188939 179.75,321.4173848915955 178.9,321.5110724674964 178.05,321.60459623351494 177.2,321.69795647606776 176.35000000000002,321.79115348107064 175.5,321.88418753393944 174.65,321.977058919591 173.8,322.0697679224441 172.95,322.1623148264202 172.10000000000002,322.25469991494396 171.25,322.34692347094517 170.39999999999998,322.4389857768582 169.55,322.5308871146242 168.7,322.622627765691 167.85,322.71420801101425 167.0,322.8056281310588 166.14999999999998,322.8968884057987 165.3,322.9879891147185 164.45,323.0789305368145 163.6,323.16971295059454 162.75,323.26033663408003 161.89999999999998,323.3487181740309 161.04999999999998,323.43169383562207 160.20000000000002,323.51445197172865 159.35000000000002,323.5969931526063 158.5,323.6793179470156 157.65,323.7614269222262 156.8,323.8433206440206 155.95000000000002,323.924999676698 155.10000000000002,324.0064645830784 154.25,324.08771592450614 153.4,324.16875426085414 152.55,324.24958015052744 151.70000000000002,324.3301941504674 150.85,324.4105968161549 150.0,324.49078870161514 149.15,324.57077035942064 148.29999999999998,324.65054234069515 147.45,324.73010519511786 146.6,324.80945947092704 145.75,324.8886057149233 144.89999999999998,324.9675444724743 144.05,325.0462762875175 143.20000000000002,325.12480170256475 142.35,325.2031212587055 141.5,325.2812354956109 140.65,325.3591449515369 139.8,325.4368501633288 138.95,325.5143516664245 138.1,325.5916499948579 137.25,325.6687456812632 136.4,325.7456392568782 135.54999999999998,325.8223312515479 134.7,325.8988221937284 133.85000000000002,325.9751126104905 133.0,326.05120302752306 132.15,326.127093969137 131.3,326.2027859582685 130.45000000000002,326.27827951648305 129.6,326.3535751639788 128.75,326.42867341959004 127.9,326.503574800791 127.04999999999998,326.57827982369935 126.19999999999999,326.65278900307965 125.35,326.727102852347 124.5,326.8012218835706 123.64999999999999,326.8751466074771 122.8,326.94887753345444 121.95000000000002,327.02241516955513 121.1,327.0957600224995 120.25,327.16891259768 119.4,327.24187339916364 118.55000000000001,327.3146429296964 117.69999999999999,327.38722169070604 116.85,327.4596101823059 116.0,327.5318089032982 115.15,327.60381835117755 114.29999999999998,327.6756390221343 113.45,327.74886398211567 112.60000000000001,327.8314811590326 111.75,327.9139538823237 110.9,327.9962824045618 110.05000000000001,328.07846697787795 109.2,328.1605078539626 108.35,328.24240528406585 107.5,328.32415951899884 106.65,328.4057708091338 105.8,328.48723940440556 104.94999999999999,328.56856555431153 104.10000000000001,328.64974950791327 103.25,328.73079151383666 102.4,328.81169182027287 101.55,328.89245067497916 100.7,328.97306832527966 99.85,329.0535450180659 99.0,329.1338809997979 98.15,329.2140765165045 97.30000000000001,329.29413181378476 96.44999999999999,329.374047136808 95.6,329.4538227303148 94.75,329.5334588386182 93.9,329.6129557056037 93.05,329.69231357473063 92.2,329.7715326890325 91.35,329.85061329111784 90.5,329.9295556231711 89.64999999999999,330.0083599269532 88.80000000000001,330.0870264438025 87.95,330.16555541463504 87.1,330.2439470799461 86.25,330.32220167981006 85.4,330.40031945388176 84.55,330.478300641397 83.7,330.5561454811731 82.85000000000001,330.63385421161 82.0,330.7114270706908 81.15,330.78886429598225 80.3,330.8661661246362 79.45,330.94333279338935 78.60000000000001,331.0203645385647 77.75,331.09726159607214 76.9,331.17402420140894 76.05000000000001,331.25065258966055 75.19999999999999,331.3271469955015 74.35,331.40350765319596 73.5,331.4797347965986 72.64999999999999,331.55582865915505 71.8,331.6317894739028 70.95,331.7076174734719 70.1,331.78331289008565 69.25,331.8588759555615 68.39999999999999,331.93430690131106 67.55000000000001,332.0096059583419 66.69999999999999,332.0847733572574 65.85,332.1598093282578 65.0,332.23471410114075" style="fill:rgb(40%,76.1%,64.7%);fill-opacity:1.0;opacity:0.33;stroke:none" /></g><g class="toyplot-mark-Plot" style="fill:none;stroke:rgb(0%,0%,0%);stroke-dasharray:4,2;stroke-opacity:1.0;stroke-width:2" id="t7e6c42a1d46e43d48a5af5ad7dea8a05"><g class="toyplot-Series"><path d="M 65.0 435.0 L 65.0 332.23471410114075" style="stroke:rgb(0%,0%,0%);stroke-dasharray:4,2;stroke-opacity:1.0;stroke-width:2" /></g></g><g class="toyplot-mark-Plot" style="fill:none;stroke:rgb(0%,0%,0%);stroke-dasharray:4,2;stroke-opacity:1.0;stroke-width:2" id="ta8a7be163e1e42789e862d0faffc5726"><g class="toyplot-Series"><path d="M 113.5714280857143 435.0 L 113.5714280857143 327.73704976865315" style="stroke:rgb(0%,0%,0%);stroke-dasharray:4,2;stroke-opacity:1.0;stroke-width:2" /></g></g><g class="toyplot-mark-Plot" style="fill:none;stroke:rgb(0%,0%,0%);stroke-dasharray:4,2;stroke-opacity:1.0;stroke-width:2" id="tf71f7dc7707e4a2d862d4102f8ec3b7f"><g class="toyplot-Series"><path d="M 162.14285665714286 435.0 L 162.14285665714286 323.324970856025" style="stroke:rgb(0%,0%,0%);stroke-dasharray:4,2;stroke-opacity:1.0;stroke-width:2" /></g></g><g class="toyplot-mark-Plot" style="fill:none;stroke:rgb(0%,0%,0%);stroke-dasharray:4,2;stroke-opacity:1.0;stroke-width:2" id="taf59650c58f9420a8225c6166a4d776a"><g class="toyplot-Series"><path d="M 210.71428522857144 435.0 L 210.71428522857144 317.8902606039676" style="stroke:rgb(0%,0%,0%);stroke-dasharray:4,2;stroke-opacity:1.0;stroke-width:2" /></g></g><g class="toyplot-mark-Plot" style="fill:none;stroke:rgb(0%,0%,0%);stroke-dasharray:4,2;stroke-opacity:1.0;stroke-width:2" id="t43d220fc03b24deb8be5eb430c13f3b2"><g class="toyplot-Series"><path d="M 234.99999951428572 435.0 L 234.99999951428572 315.00000006" style="stroke:rgb(0%,0%,0%);stroke-dasharray:4,2;stroke-opacity:1.0;stroke-width:2" /></g></g></g><g class="toyplot-coordinates-Axis" id="tb677ae85352642338cfe34b635749e00" transform="translate(65.0,435.0)translate(0,10.0)"><line x1="0" y1="0" x2="169.99999951428572" y2="0" style="stroke-width:1.5" /><g><line x1="0.0" y1="7.5" x2="0.0" y2="0" style="stroke-width:1.5" /><line x1="48.57142857142857" y1="7.5" x2="48.57142857142857" y2="0" style="stroke-width:1.5" /><line x1="97.14285714285714" y1="7.5" x2="97.14285714285714" y2="0" style="stroke-width:1.5" /><line x1="145.7142857142857" y1="7.5" x2="145.7142857142857" y2="0" style="stroke-width:1.5" /><line x1="170.0" y1="7.5" x2="170.0" y2="0" style="stroke-width:1.5" /></g><g><g transform="translate(0.0,15.0)"><text x="-16.68" y="8.555" style="fill:rgb(16.1%,15.3%,14.1%);fill-opacity:1.0;font-family:helvetica;font-size:10.0px;font-weight:normal;stroke:none;vertical-align:baseline;white-space:pre">100000</text></g><g transform="translate(48.57142857142857,15.0)"><text x="-16.68" y="8.555" style="fill:rgb(16.1%,15.3%,14.1%);fill-opacity:1.0;font-family:helvetica;font-size:10.0px;font-weight:normal;stroke:none;vertical-align:baseline;white-space:pre">200000</text></g><g transform="translate(97.14285714285714,15.0)"><text x="-16.68" y="8.555" style="fill:rgb(16.1%,15.3%,14.1%);fill-opacity:1.0;font-family:helvetica;font-size:10.0px;font-weight:normal;stroke:none;vertical-align:baseline;white-space:pre">300000</text></g><g transform="translate(145.7142857142857,15.0)"><text x="-16.68" y="8.555" style="fill:rgb(16.1%,15.3%,14.1%);fill-opacity:1.0;font-family:helvetica;font-size:10.0px;font-weight:normal;stroke:none;vertical-align:baseline;white-space:pre">400000</text></g><g transform="translate(170.0,15.0)"><text x="-16.68" y="8.555" style="fill:rgb(16.1%,15.3%,14.1%);fill-opacity:1.0;font-family:helvetica;font-size:10.0px;font-weight:normal;stroke:none;vertical-align:baseline;white-space:pre">450000</text></g></g><g transform="translate(85.0,35.0)"><text x="-100.02000000000002" y="10.265999999999998" style="fill:rgb(16.1%,15.3%,14.1%);fill-opacity:1.0;font-family:helvetica;font-size:12.0px;font-weight:bold;stroke:none;vertical-align:baseline;white-space:pre">Time of recombination on branch 7</text></g><g class="toyplot-coordinates-Axis-coordinates" style="visibility:hidden" transform=""><line x1="0" x2="0" y1="-7.5" y2="11.25" style="stroke:rgb(43.9%,50.2%,56.5%);stroke-opacity:1.0;stroke-width:1.0" /><text x="0" y="-15.0" style="alignment-baseline:alphabetic;fill:rgb(43.9%,50.2%,56.5%);fill-opacity:1.0;font-size:10px;font-weight:normal;stroke:none;text-anchor:middle" /></g></g><g class="toyplot-coordinates-Axis" id="t664b7895827f4925ab9bfa822e85bb35" transform="translate(65.0,435.0)rotate(-90.0)translate(0,-10.0)"><line x1="0" y1="0" x2="120.0" y2="0" style="stroke-width:1.5" /><g><line x1="0.0" y1="-7.5" x2="0.0" y2="0" style="stroke-width:1.5" /><line x1="60.0" y1="-7.5" x2="60.0" y2="0" style="stroke-width:1.5" /><line x1="120.0" y1="-7.5" x2="120.0" y2="0" style="stroke-width:1.5" /></g><g><g transform="translate(0.0,-15.0)"><text x="-6.95" y="-4.440892098500626e-16" style="fill:rgb(16.1%,15.3%,14.1%);fill-opacity:1.0;font-family:helvetica;font-size:10.0px;font-weight:normal;stroke:none;vertical-align:baseline;white-space:pre">0.0</text></g><g transform="translate(60.0,-15.0)"><text x="-6.95" y="-4.440892098500626e-16" style="fill:rgb(16.1%,15.3%,14.1%);fill-opacity:1.0;font-family:helvetica;font-size:10.0px;font-weight:normal;stroke:none;vertical-align:baseline;white-space:pre">0.5</text></g><g transform="translate(120.0,-15.0)"><text x="-6.95" y="-4.440892098500626e-16" style="fill:rgb(16.1%,15.3%,14.1%);fill-opacity:1.0;font-family:helvetica;font-size:10.0px;font-weight:normal;stroke:none;vertical-align:baseline;white-space:pre">1.0</text></g></g><g transform="translate(60.0,-35.0)"><text x="-31.008" y="0.0" style="fill:rgb(16.1%,15.3%,14.1%);fill-opacity:1.0;font-family:helvetica;font-size:12.0px;font-weight:bold;stroke:none;vertical-align:baseline;white-space:pre">Probability</text></g><g class="toyplot-coordinates-Axis-coordinates" style="visibility:hidden" transform=""><line x1="0" x2="0" y1="7.5" y2="-11.25" style="stroke:rgb(43.9%,50.2%,56.5%);stroke-opacity:1.0;stroke-width:1.0" /><text x="0" y="15.0" style="alignment-baseline:hanging;fill:rgb(43.9%,50.2%,56.5%);fill-opacity:1.0;font-size:10px;font-weight:normal;stroke:none;text-anchor:middle" /></g></g><g transform="translate(150.0,295.0)"><text x="-60.284" y="-4.823" style="fill:rgb(16.1%,15.3%,14.1%);fill-opacity:1.0;font-family:helvetica;font-size:14.0px;font-weight:bold;stroke:none;vertical-align:baseline;white-space:pre">Prob(tree-change)</text></g></g><g class="toyplot-coordinates-Cartesian" id="t7957df9d133f46a9b5dd4477fbfea7ea"><clipPath id="t8cd4c182a4c340b9ab148464e7b980d7"><rect x="55.0" y="555.0" width="190.0" height="140.0" /></clipPath><g clip-path="url(#t8cd4c182a4c340b9ab148464e7b980d7)"><g class="toyplot-mark-Plot" style="fill:none" id="tfe96eea9c28342dbaf47ee7fd6d47156"><g class="toyplot-Series"><path d="M 65.0 600.1714753056956 L 65.85 600.1279873466149 L 66.69999999999999 600.0844232169759 L 67.55000000000001 600.0407827833636 L 68.39999999999999 599.9970659121291 L 69.25 599.9532724693894 L 70.1 599.9094023210271 L 70.95 599.8654553326896 L 71.8 599.8214313697896 L 72.64999999999999 599.7773302975035 L 73.5 599.7331519807717 L 74.35 599.6888962842979 L 75.19999999999999 599.6445630725494 L 76.05000000000001 599.6001522097555 L 76.9 599.5556635599078 L 77.75 599.5110969867599 L 78.60000000000001 599.4664523538265 L 79.45 599.4217295243836 L 80.3 599.3769283614674 L 81.15 599.3320487278743 L 82.0 599.2870904861603 L 82.85000000000001 599.2420534986408 L 83.7 599.1969376273901 L 84.55 599.1517427342405 L 85.4 599.106468680783 L 86.25 599.0611153283655 L 87.1 599.0156825380935 L 87.95 598.970170170829 L 88.80000000000001 598.9245780871902 L 89.64999999999999 598.8789061475514 L 90.5 598.8331542120424 L 91.35 598.7873221405476 L 92.2 598.7414097927065 L 93.05 598.6954170279123 L 93.9 598.649343705312 L 94.75 598.6031896838065 L 95.6 598.5569548220486 L 96.44999999999999 598.5106389784443 L 97.30000000000001 598.464242011151 L 98.15 598.4177637780782 L 99.0 598.3712041368861 L 99.85 598.324562944986 L 100.7 598.2778400595391 L 101.55 598.2310353374564 L 102.4 598.1841486353985 L 103.25 598.1371798097749 L 104.10000000000001 598.0901287167434 L 104.94999999999999 598.0429952122101 L 105.8 597.9957791518286 L 106.65 597.9484803909996 L 107.5 597.9010987848707 L 108.35 597.8536341883356 L 109.2 597.806086456034 L 110.05000000000001 597.7584554423509 L 110.9 597.7107410014163 L 111.75 597.6629429871048 L 112.60000000000001 597.6150612530347 L 113.45 597.5670956525682 L 114.29999999999998 597.5434782553792 L 115.15 597.5238791732585 L 116.0 597.5042285759631 L 116.85 597.4845263280881 L 117.69999999999999 597.4647722938726 L 118.55000000000001 597.4449663371988 L 119.4 597.4251083215912 L 120.25 597.4051981102158 L 121.1 597.3852355658785 L 121.95000000000002 597.365220551025 L 122.8 597.345152927739 L 123.64999999999999 597.3250325577422 L 124.5 597.3048593023925 L 125.35 597.2846330226835 L 126.19999999999999 597.2643535792433 L 127.04999999999998 597.244020832334 L 127.9 597.22363464185 L 128.75 597.2031948673177 L 129.6 597.1827013678941 L 130.45000000000002 597.1621540023663 L 131.3 597.1415526291498 L 132.15 597.1208971062883 L 133.0 597.1001872914524 L 133.85000000000002 597.0794230419382 L 134.7 597.0586042146671 L 135.54999999999998 597.0377306661842 L 136.4 597.0168022526576 L 137.25 596.9958188298775 L 138.1 596.9747802532548 L 138.95 596.9536863778206 L 139.8 596.9325370582249 L 140.65 596.9113321487353 L 141.5 596.8900715032366 L 142.35 596.86875497523 L 143.20000000000002 596.8473824178309 L 144.05 596.8259536837691 L 144.89999999999998 596.8044686253869 L 145.75 596.782927094639 L 146.6 596.7613289430906 L 147.45 596.7396740219168 L 148.29999999999998 596.7179621819017 L 149.15 596.696193273437 L 150.0 596.674367146521 L 150.85 596.6524836507584 L 151.70000000000002 596.6305426353579 L 152.55 596.6085439491321 L 153.4 596.5864874404963 L 154.25 596.5643729574672 L 155.10000000000002 596.542200347662 L 155.95000000000002 596.5199694582977 L 156.8 596.4976801361895 L 157.65 596.4753322277497 L 158.5 596.4529255789873 L 159.35000000000002 596.4304600355065 L 160.20000000000002 596.4079354425055 L 161.04999999999998 596.3853516447756 L 161.89999999999998 596.3627084867003 L 162.75 596.2453540915186 L 163.6 596.0898974763143 L 164.45 595.9341685738516 L 165.3 595.7781669072103 L 166.14999999999998 595.6218919986356 L 167.0 595.4653433695353 L 167.85 595.3085205404791 L 168.7 595.1514230311968 L 169.55 594.9940503605775 L 170.39999999999998 594.836402046667 L 171.25 594.6784776066672 L 172.10000000000002 594.5202765569346 L 172.95 594.3617984129783 L 173.8 594.2030426894587 L 174.65 594.0440089001863 L 175.5 593.8846965581203 L 176.35000000000002 593.7251051753661 L 177.2 593.5652342631752 L 178.05 593.4050833319428 L 178.9 593.2446518912066 L 179.75 593.0839394496448 L 180.60000000000002 592.922945515076 L 181.45000000000002 592.7616695944558 L 182.29999999999998 592.6001111938766 L 183.14999999999998 592.4382698185658 L 184.0 592.2761449728839 L 184.85 592.1137361603235 L 185.7 591.9510428835076 L 186.55 591.7880646441878 L 187.39999999999998 591.624800943243 L 188.25 591.4612512806782 L 189.1 591.2974151556223 L 189.95 591.133292066327 L 190.8 590.9688815101654 L 191.64999999999998 590.80418298363 L 192.5 590.6391959823311 L 193.35000000000002 590.4739200009965 L 194.2 590.3083545334678 L 195.05 590.1424990727008 L 195.9 589.9763531107632 L 196.75 589.8099161388327 L 197.60000000000002 589.643187647196 L 198.45 589.4761671252469 L 199.3 589.308854061485 L 200.15 589.1412479435138 L 201.0 588.9733482580396 L 201.85000000000002 588.8051544908693 L 202.70000000000002 588.6366661269095 L 203.54999999999998 588.4678826501644 L 204.39999999999998 588.2988035437345 L 205.25 588.1294282898148 L 206.1 587.9597563696935 L 206.95 587.7897872637503 L 207.8 587.6195204514546 L 208.64999999999998 587.4489554113642 L 209.5 587.2780916211235 L 210.35 587.106928557462 L 211.2 586.9464661914392 L 212.05 586.7938754775001 L 212.89999999999998 586.6408836867539 L 213.75 586.487489764991 L 214.60000000000002 586.3336926552307 L 215.45 586.1794912977142 L 216.3 586.0248846298973 L 217.15 585.8698715864426 L 218.0 585.7144510992129 L 218.85000000000002 585.5586220972632 L 219.7 585.4023835068338 L 220.55 585.2457342513422 L 221.4 585.0886732513768 L 222.25 584.9311994246887 L 223.10000000000002 584.7733116861838 L 223.95000000000002 584.6150089479164 L 224.79999999999998 584.4562901190811 L 225.65 584.2971541060055 L 226.5 584.1375998121421 L 227.35 583.9776261380616 L 228.2 583.8172319814447 L 229.05 583.656416237075 L 229.89999999999998 583.4951777968306 L 230.75 583.3335155496774 L 231.6 583.1714283816608 L 232.45 583.0089151758982 L 233.3 582.8459748125714 L 234.14999999999998 582.6826061689189" style="stroke:rgb(40%,76.1%,64.7%);stroke-opacity:1.0;stroke-width:5.0" /></g></g><g class="toyplot-mark-FillBoundaries" style="stroke:none" id="tdfa32ae3a2cd4ce29dcd7ce97299b510"><polygon points="65.0,685.0 65.85,685.0 66.69999999999999,685.0 67.55000000000001,685.0 68.39999999999999,685.0 69.25,685.0 70.1,685.0 70.95,685.0 71.8,685.0 72.64999999999999,685.0 73.5,685.0 74.35,685.0 75.19999999999999,685.0 76.05000000000001,685.0 76.9,685.0 77.75,685.0 78.60000000000001,685.0 79.45,685.0 80.3,685.0 81.15,685.0 82.0,685.0 82.85000000000001,685.0 83.7,685.0 84.55,685.0 85.4,685.0 86.25,685.0 87.1,685.0 87.95,685.0 88.80000000000001,685.0 89.64999999999999,685.0 90.5,685.0 91.35,685.0 92.2,685.0 93.05,685.0 93.9,685.0 94.75,685.0 95.6,685.0 96.44999999999999,685.0 97.30000000000001,685.0 98.15,685.0 99.0,685.0 99.85,685.0 100.7,685.0 101.55,685.0 102.4,685.0 103.25,685.0 104.10000000000001,685.0 104.94999999999999,685.0 105.8,685.0 106.65,685.0 107.5,685.0 108.35,685.0 109.2,685.0 110.05000000000001,685.0 110.9,685.0 111.75,685.0 112.60000000000001,685.0 113.45,685.0 114.29999999999998,685.0 115.15,685.0 116.0,685.0 116.85,685.0 117.69999999999999,685.0 118.55000000000001,685.0 119.4,685.0 120.25,685.0 121.1,685.0 121.95000000000002,685.0 122.8,685.0 123.64999999999999,685.0 124.5,685.0 125.35,685.0 126.19999999999999,685.0 127.04999999999998,685.0 127.9,685.0 128.75,685.0 129.6,685.0 130.45000000000002,685.0 131.3,685.0 132.15,685.0 133.0,685.0 133.85000000000002,685.0 134.7,685.0 135.54999999999998,685.0 136.4,685.0 137.25,685.0 138.1,685.0 138.95,685.0 139.8,685.0 140.65,685.0 141.5,685.0 142.35,685.0 143.20000000000002,685.0 144.05,685.0 144.89999999999998,685.0 145.75,685.0 146.6,685.0 147.45,685.0 148.29999999999998,685.0 149.15,685.0 150.0,685.0 150.85,685.0 151.70000000000002,685.0 152.55,685.0 153.4,685.0 154.25,685.0 155.10000000000002,685.0 155.95000000000002,685.0 156.8,685.0 157.65,685.0 158.5,685.0 159.35000000000002,685.0 160.20000000000002,685.0 161.04999999999998,685.0 161.89999999999998,685.0 162.75,685.0 163.6,685.0 164.45,685.0 165.3,685.0 166.14999999999998,685.0 167.0,685.0 167.85,685.0 168.7,685.0 169.55,685.0 170.39999999999998,685.0 171.25,685.0 172.10000000000002,685.0 172.95,685.0 173.8,685.0 174.65,685.0 175.5,685.0 176.35000000000002,685.0 177.2,685.0 178.05,685.0 178.9,685.0 179.75,685.0 180.60000000000002,685.0 181.45000000000002,685.0 182.29999999999998,685.0 183.14999999999998,685.0 184.0,685.0 184.85,685.0 185.7,685.0 186.55,685.0 187.39999999999998,685.0 188.25,685.0 189.1,685.0 189.95,685.0 190.8,685.0 191.64999999999998,685.0 192.5,685.0 193.35000000000002,685.0 194.2,685.0 195.05,685.0 195.9,685.0 196.75,685.0 197.60000000000002,685.0 198.45,685.0 199.3,685.0 200.15,685.0 201.0,685.0 201.85000000000002,685.0 202.70000000000002,685.0 203.54999999999998,685.0 204.39999999999998,685.0 205.25,685.0 206.1,685.0 206.95,685.0 207.8,685.0 208.64999999999998,685.0 209.5,685.0 210.35,685.0 211.2,685.0 212.05,685.0 212.89999999999998,685.0 213.75,685.0 214.60000000000002,685.0 215.45,685.0 216.3,685.0 217.15,685.0 218.0,685.0 218.85000000000002,685.0 219.7,685.0 220.55,685.0 221.4,685.0 222.25,685.0 223.10000000000002,685.0 223.95000000000002,685.0 224.79999999999998,685.0 225.65,685.0 226.5,685.0 227.35,685.0 228.2,685.0 229.05,685.0 229.89999999999998,685.0 230.75,685.0 231.6,685.0 232.45,685.0 233.3,685.0 234.14999999999998,685.0 234.14999999999998,582.6826061689189 233.3,582.8459748125714 232.45,583.0089151758982 231.6,583.1714283816608 230.75,583.3335155496774 229.89999999999998,583.4951777968306 229.05,583.656416237075 228.2,583.8172319814447 227.35,583.9776261380616 226.5,584.1375998121421 225.65,584.2971541060055 224.79999999999998,584.4562901190811 223.95000000000002,584.6150089479164 223.10000000000002,584.7733116861838 222.25,584.9311994246887 221.4,585.0886732513768 220.55,585.2457342513422 219.7,585.4023835068338 218.85000000000002,585.5586220972632 218.0,585.7144510992129 217.15,585.8698715864426 216.3,586.0248846298973 215.45,586.1794912977142 214.60000000000002,586.3336926552307 213.75,586.487489764991 212.89999999999998,586.6408836867539 212.05,586.7938754775001 211.2,586.9464661914392 210.35,587.106928557462 209.5,587.2780916211235 208.64999999999998,587.4489554113642 207.8,587.6195204514546 206.95,587.7897872637503 206.1,587.9597563696935 205.25,588.1294282898148 204.39999999999998,588.2988035437345 203.54999999999998,588.4678826501644 202.70000000000002,588.6366661269095 201.85000000000002,588.8051544908693 201.0,588.9733482580396 200.15,589.1412479435138 199.3,589.308854061485 198.45,589.4761671252469 197.60000000000002,589.643187647196 196.75,589.8099161388327 195.9,589.9763531107632 195.05,590.1424990727008 194.2,590.3083545334678 193.35000000000002,590.4739200009965 192.5,590.6391959823311 191.64999999999998,590.80418298363 190.8,590.9688815101654 189.95,591.133292066327 189.1,591.2974151556223 188.25,591.4612512806782 187.39999999999998,591.624800943243 186.55,591.7880646441878 185.7,591.9510428835076 184.85,592.1137361603235 184.0,592.2761449728839 183.14999999999998,592.4382698185658 182.29999999999998,592.6001111938766 181.45000000000002,592.7616695944558 180.60000000000002,592.922945515076 179.75,593.0839394496448 178.9,593.2446518912066 178.05,593.4050833319428 177.2,593.5652342631752 176.35000000000002,593.7251051753661 175.5,593.8846965581203 174.65,594.0440089001863 173.8,594.2030426894587 172.95,594.3617984129783 172.10000000000002,594.5202765569346 171.25,594.6784776066672 170.39999999999998,594.836402046667 169.55,594.9940503605775 168.7,595.1514230311968 167.85,595.3085205404791 167.0,595.4653433695353 166.14999999999998,595.6218919986356 165.3,595.7781669072103 164.45,595.9341685738516 163.6,596.0898974763143 162.75,596.2453540915186 161.89999999999998,596.3627084867003 161.04999999999998,596.3853516447756 160.20000000000002,596.4079354425055 159.35000000000002,596.4304600355065 158.5,596.4529255789873 157.65,596.4753322277497 156.8,596.4976801361895 155.95000000000002,596.5199694582977 155.10000000000002,596.542200347662 154.25,596.5643729574672 153.4,596.5864874404963 152.55,596.6085439491321 151.70000000000002,596.6305426353579 150.85,596.6524836507584 150.0,596.674367146521 149.15,596.696193273437 148.29999999999998,596.7179621819017 147.45,596.7396740219168 146.6,596.7613289430906 145.75,596.782927094639 144.89999999999998,596.8044686253869 144.05,596.8259536837691 143.20000000000002,596.8473824178309 142.35,596.86875497523 141.5,596.8900715032366 140.65,596.9113321487353 139.8,596.9325370582249 138.95,596.9536863778206 138.1,596.9747802532548 137.25,596.9958188298775 136.4,597.0168022526576 135.54999999999998,597.0377306661842 134.7,597.0586042146671 133.85000000000002,597.0794230419382 133.0,597.1001872914524 132.15,597.1208971062883 131.3,597.1415526291498 130.45000000000002,597.1621540023663 129.6,597.1827013678941 128.75,597.2031948673177 127.9,597.22363464185 127.04999999999998,597.244020832334 126.19999999999999,597.2643535792433 125.35,597.2846330226835 124.5,597.3048593023925 123.64999999999999,597.3250325577422 122.8,597.345152927739 121.95000000000002,597.365220551025 121.1,597.3852355658785 120.25,597.4051981102158 119.4,597.4251083215912 118.55000000000001,597.4449663371988 117.69999999999999,597.4647722938726 116.85,597.4845263280881 116.0,597.5042285759631 115.15,597.5238791732585 114.29999999999998,597.5434782553792 113.45,597.5670956525682 112.60000000000001,597.6150612530347 111.75,597.6629429871048 110.9,597.7107410014163 110.05000000000001,597.7584554423509 109.2,597.806086456034 108.35,597.8536341883356 107.5,597.9010987848707 106.65,597.9484803909996 105.8,597.9957791518286 104.94999999999999,598.0429952122101 104.10000000000001,598.0901287167434 103.25,598.1371798097749 102.4,598.1841486353985 101.55,598.2310353374564 100.7,598.2778400595391 99.85,598.324562944986 99.0,598.3712041368861 98.15,598.4177637780782 97.30000000000001,598.464242011151 96.44999999999999,598.5106389784443 95.6,598.5569548220486 94.75,598.6031896838065 93.9,598.649343705312 93.05,598.6954170279123 92.2,598.7414097927065 91.35,598.7873221405476 90.5,598.8331542120424 89.64999999999999,598.8789061475514 88.80000000000001,598.9245780871902 87.95,598.970170170829 87.1,599.0156825380935 86.25,599.0611153283655 85.4,599.106468680783 84.55,599.1517427342405 83.7,599.1969376273901 82.85000000000001,599.2420534986408 82.0,599.2870904861603 81.15,599.3320487278743 80.3,599.3769283614674 79.45,599.4217295243836 78.60000000000001,599.4664523538265 77.75,599.5110969867599 76.9,599.5556635599078 76.05000000000001,599.6001522097555 75.19999999999999,599.6445630725494 74.35,599.6888962842979 73.5,599.7331519807717 72.64999999999999,599.7773302975035 71.8,599.8214313697896 70.95,599.8654553326896 70.1,599.9094023210271 69.25,599.9532724693894 68.39999999999999,599.9970659121291 67.55000000000001,600.0407827833636 66.69999999999999,600.0844232169759 65.85,600.1279873466149 65.0,600.1714753056956" style="fill:rgb(40%,76.1%,64.7%);fill-opacity:1.0;opacity:0.33;stroke:none" /></g><g class="toyplot-mark-Plot" style="fill:none;stroke:rgb(0%,0%,0%);stroke-dasharray:4,2;stroke-opacity:1.0;stroke-width:2" id="t0d15a4d4a74c418ba797dc76a07e606b"><g class="toyplot-Series"><path d="M 65.0 685.0 L 65.0 600.1714753056956" style="stroke:rgb(0%,0%,0%);stroke-dasharray:4,2;stroke-opacity:1.0;stroke-width:2" /></g></g><g class="toyplot-mark-Plot" style="fill:none;stroke:rgb(0%,0%,0%);stroke-dasharray:4,2;stroke-opacity:1.0;stroke-width:2" id="tdfe47fb8e95b4dec8c3f0ad3a76fe5a1"><g class="toyplot-Series"><path d="M 113.5714280857143 685.0 L 113.5714280857143 597.5602365965715" style="stroke:rgb(0%,0%,0%);stroke-dasharray:4,2;stroke-opacity:1.0;stroke-width:2" /></g></g><g class="toyplot-mark-Plot" style="fill:none;stroke:rgb(0%,0%,0%);stroke-dasharray:4,2;stroke-opacity:1.0;stroke-width:2" id="tfcb0197125d840bd893e3266284fd9d8"><g class="toyplot-Series"><path d="M 162.14285665714286 685.0 L 162.14285665714286 596.3562281011853" style="stroke:rgb(0%,0%,0%);stroke-dasharray:4,2;stroke-opacity:1.0;stroke-width:2" /></g></g><g class="toyplot-mark-Plot" style="fill:none;stroke:rgb(0%,0%,0%);stroke-dasharray:4,2;stroke-opacity:1.0;stroke-width:2" id="t04a48741080b4445a58348c51e13aa2c"><g class="toyplot-Series"><path d="M 210.71428522857144 685.0 L 210.71428522857144 587.033481312536" style="stroke:rgb(0%,0%,0%);stroke-dasharray:4,2;stroke-opacity:1.0;stroke-width:2" /></g></g><g class="toyplot-mark-Plot" style="fill:none;stroke:rgb(0%,0%,0%);stroke-dasharray:4,2;stroke-opacity:1.0;stroke-width:2" id="tee99459d87514008bb3b99cb78f6ef65"><g class="toyplot-Series"><path d="M 234.99999951428572 685.0 L 234.99999951428572 582.5188082129498" style="stroke:rgb(0%,0%,0%);stroke-dasharray:4,2;stroke-opacity:1.0;stroke-width:2" /></g></g></g><g class="toyplot-coordinates-Axis" id="t7219b61b727d4a16bb8287230373d025" transform="translate(65.0,685.0)translate(0,10.0)"><line x1="0" y1="0" x2="169.99999951428572" y2="0" style="stroke-width:1.5" /><g><line x1="0.0" y1="7.5" x2="0.0" y2="0" style="stroke-width:1.5" /><line x1="48.57142857142857" y1="7.5" x2="48.57142857142857" y2="0" style="stroke-width:1.5" /><line x1="97.14285714285714" y1="7.5" x2="97.14285714285714" y2="0" style="stroke-width:1.5" /><line x1="145.7142857142857" y1="7.5" x2="145.7142857142857" y2="0" style="stroke-width:1.5" /><line x1="170.0" y1="7.5" x2="170.0" y2="0" style="stroke-width:1.5" /></g><g><g transform="translate(0.0,15.0)"><text x="-16.68" y="8.555" style="fill:rgb(16.1%,15.3%,14.1%);fill-opacity:1.0;font-family:helvetica;font-size:10.0px;font-weight:normal;stroke:none;vertical-align:baseline;white-space:pre">100000</text></g><g transform="translate(48.57142857142857,15.0)"><text x="-16.68" y="8.555" style="fill:rgb(16.1%,15.3%,14.1%);fill-opacity:1.0;font-family:helvetica;font-size:10.0px;font-weight:normal;stroke:none;vertical-align:baseline;white-space:pre">200000</text></g><g transform="translate(97.14285714285714,15.0)"><text x="-16.68" y="8.555" style="fill:rgb(16.1%,15.3%,14.1%);fill-opacity:1.0;font-family:helvetica;font-size:10.0px;font-weight:normal;stroke:none;vertical-align:baseline;white-space:pre">300000</text></g><g transform="translate(145.7142857142857,15.0)"><text x="-16.68" y="8.555" style="fill:rgb(16.1%,15.3%,14.1%);fill-opacity:1.0;font-family:helvetica;font-size:10.0px;font-weight:normal;stroke:none;vertical-align:baseline;white-space:pre">400000</text></g><g transform="translate(170.0,15.0)"><text x="-16.68" y="8.555" style="fill:rgb(16.1%,15.3%,14.1%);fill-opacity:1.0;font-family:helvetica;font-size:10.0px;font-weight:normal;stroke:none;vertical-align:baseline;white-space:pre">450000</text></g></g><g transform="translate(85.0,35.0)"><text x="-100.02000000000002" y="10.265999999999998" style="fill:rgb(16.1%,15.3%,14.1%);fill-opacity:1.0;font-family:helvetica;font-size:12.0px;font-weight:bold;stroke:none;vertical-align:baseline;white-space:pre">Time of recombination on branch 7</text></g><g class="toyplot-coordinates-Axis-coordinates" style="visibility:hidden" transform=""><line x1="0" x2="0" y1="-7.5" y2="11.25" style="stroke:rgb(43.9%,50.2%,56.5%);stroke-opacity:1.0;stroke-width:1.0" /><text x="0" y="-15.0" style="alignment-baseline:alphabetic;fill:rgb(43.9%,50.2%,56.5%);fill-opacity:1.0;font-size:10px;font-weight:normal;stroke:none;text-anchor:middle" /></g></g><g class="toyplot-coordinates-Axis" id="t90ccfafa60af4085bbd7ad793b04e141" transform="translate(65.0,685.0)rotate(-90.0)translate(0,-10.0)"><line x1="0" y1="0" x2="120.0" y2="0" style="stroke-width:1.5" /><g><line x1="0.0" y1="-7.5" x2="0.0" y2="0" style="stroke-width:1.5" /><line x1="60.0" y1="-7.5" x2="60.0" y2="0" style="stroke-width:1.5" /><line x1="120.0" y1="-7.5" x2="120.0" y2="0" style="stroke-width:1.5" /></g><g><g transform="translate(0.0,-15.0)"><text x="-6.95" y="-4.440892098500626e-16" style="fill:rgb(16.1%,15.3%,14.1%);fill-opacity:1.0;font-family:helvetica;font-size:10.0px;font-weight:normal;stroke:none;vertical-align:baseline;white-space:pre">0.0</text></g><g transform="translate(60.0,-15.0)"><text x="-6.95" y="-4.440892098500626e-16" style="fill:rgb(16.1%,15.3%,14.1%);fill-opacity:1.0;font-family:helvetica;font-size:10.0px;font-weight:normal;stroke:none;vertical-align:baseline;white-space:pre">0.5</text></g><g transform="translate(120.0,-15.0)"><text x="-6.95" y="-4.440892098500626e-16" style="fill:rgb(16.1%,15.3%,14.1%);fill-opacity:1.0;font-family:helvetica;font-size:10.0px;font-weight:normal;stroke:none;vertical-align:baseline;white-space:pre">1.0</text></g></g><g transform="translate(60.0,-35.0)"><text x="-31.008" y="0.0" style="fill:rgb(16.1%,15.3%,14.1%);fill-opacity:1.0;font-family:helvetica;font-size:12.0px;font-weight:bold;stroke:none;vertical-align:baseline;white-space:pre">Probability</text></g><g class="toyplot-coordinates-Axis-coordinates" style="visibility:hidden" transform=""><line x1="0" x2="0" y1="7.5" y2="-11.25" style="stroke:rgb(43.9%,50.2%,56.5%);stroke-opacity:1.0;stroke-width:1.0" /><text x="0" y="15.0" style="alignment-baseline:hanging;fill:rgb(43.9%,50.2%,56.5%);fill-opacity:1.0;font-size:10px;font-weight:normal;stroke:none;text-anchor:middle" /></g></g><g transform="translate(150.0,545.0)"><text x="-62.608000000000004" y="-4.823" style="fill:rgb(16.1%,15.3%,14.1%);fill-opacity:1.0;font-family:helvetica;font-size:14.0px;font-weight:bold;stroke:none;vertical-align:baseline;white-space:pre">Prob(topo-change)</text></g></g></svg>