<svg class="toyplot-canvas-Canvas" xmlns:toyplot="http://www.sandia.gov/toyplot" xmlns:xlink="http://www.w3.org/1999/xlink" xmlns="http://www.w3.org/2000/svg" width="300.0px" height="750.0px" viewBox="0 0 300.0 750.0" preserveAspectRatio="xMidYMid meet" style="background-color:transparent;border-color:#292724;border-style:none;border-width:1.0;fill:rgb(16.1%,15.3%,14.1%);fill-opacity:1.0;font-family:Helvetica;font-size:12px;opacity:1.0;stroke:rgb(16.1%,15.3%,14.1%);stroke-opacity:1.0;stroke-width:1.0" id="t99fdb7e04e3d490e8d15ff8d3f3630c0"><g class="toyplot-coordinates-Cartesian" id="tb3a4521c5603443e838a81242cecc263"><clipPath id="t4bb059056c354a8fb534f8b1e5bacfee"><rect x="55.0" y="55.0" width="190.0" height="140.0" /></clipPath><g clip-path="url(#t4bb059056c354a8fb534f8b1e5bacfee)"><g class="toyplot-mark-Plot" style="fill:none" id="t7974041b70c4467a81dc22a5c5aee4a6"><g class="toyplot-Series"><path d="M 65.0 177.25279779415874 L 65.85 177.28938755753774 L 66.69999999999999 177.32600294271768 L 67.55000000000001 177.36264396764017 L 68.39999999999999 177.3993106502592 L 69.25 177.4360030085415 L 70.1 177.4727210604663 L 70.95 177.50946482402554 L 71.8 177.54623431722356 L 72.64999999999999 177.58302955807744 L 73.5 177.61985056461685 L 74.35 177.6566973548841 L 75.19999999999999 177.6935699469341 L 76.05000000000001 177.73046835883446 L 76.9 177.76739260866532 L 77.75 177.80434271451963 L 78.60000000000001 177.84131869450295 L 79.45 177.87832056673346 L 80.3 177.91534834934214 L 81.15 177.95240206047256 L 82.0 177.989481718281 L 82.85000000000001 178.0265873409366 L 83.7 178.06371894662107 L 84.55 178.10087655352885 L 85.4 178.13806017986718 L 86.25 178.17526984385609 L 87.1 178.21250556372829 L 87.95 178.24976735772927 L 88.80000000000001 178.28705524411734 L 89.64999999999999 178.32436924116354 L 90.5 178.3617093671517 L 91.35 178.39907564037858 L 92.2 178.43646807915357 L 93.05 178.47388670179896 L 93.9 178.5113315266499 L 94.75 178.5488025720544 L 95.6 178.5862998563732 L 96.44999999999999 178.62382339798003 L 97.30000000000001 178.66137321526136 L 98.15 178.69894932661666 L 99.0 178.73655175045818 L 99.85 178.77418050521115 L 100.7 178.8118356093137 L 101.55 178.8495170812167 L 102.4 178.88722493938417 L 103.25 178.92495920229297 L 104.10000000000001 178.9627198884328 L 104.94999999999999 179.00050701630647 L 105.8 179.03832060442969 L 106.65 179.07616067133108 L 107.5 179.11402723555224 L 108.35 179.15192031564789 L 109.2 179.18983993018554 L 110.05000000000001 179.22778609774582 L 110.9 179.26575883692243 L 111.75 179.30375816632193 L 112.60000000000001 179.341784104564 L 113.45 179.37983667028138 L 114.29999999999998 179.41623560350504 L 115.15 179.45239162948053 L 116.0 179.48858563922127 L 116.85 179.52481767263114 L 117.69999999999999 179.56108776965604 L 118.55000000000001 179.59739597028369 L 119.4 179.63374231454395 L 120.25 179.67012684250855 L 121.1 179.70654959429152 L 121.95000000000002 179.74301061004894 L 122.8 179.77950992997907 L 123.64999999999999 179.81604759432244 L 124.5 179.8526236433618 L 125.35 179.88923811742225 L 126.19999999999999 179.92589105687128 L 127.04999999999998 179.96258250211872 L 127.9 179.99931249361688 L 128.75 180.03608107186068 L 129.6 180.07288827738736 L 130.45000000000002 180.10973415077694 L 131.3 180.14661873265197 L 132.15 180.18354206367772 L 133.0 180.22050418456212 L 133.85000000000002 180.25750513605598 L 134.7 180.29454495895283 L 135.54999999999998 180.3316236940891 L 136.4 180.36874138234404 L 137.25 180.4058980646399 L 138.1 180.443093781942 L 138.95 180.4803285752586 L 139.8 180.51760248564102 L 140.65 180.5549155541838 L 141.5 180.59226782202458 L 142.35 180.62965933034423 L 143.20000000000002 180.6670901203669 L 144.05 180.70456023336004 L 144.89999999999998 180.74206971063444 L 145.75 180.77961859354434 L 146.6 180.81720692348736 L 147.45 180.85483474190463 L 148.29999999999998 180.89250209028086 L 149.15 180.93020901014424 L 150.0 180.96795554306672 L 150.85 181.0057417306638 L 151.70000000000002 181.04356761459485 L 152.55 181.08143323656276 L 153.4 181.11933863831453 L 154.25 181.1572838616408 L 155.10000000000002 181.19526894837617 L 155.95000000000002 181.23329394039922 L 156.8 181.27135887963252 L 157.65 181.30946380804266 L 158.5 181.34760876764034 L 159.35000000000002 181.38579380048034 L 160.20000000000002 181.42401894866174 L 161.04999999999998 181.46228425432767 L 161.89999999999998 181.50058975966567 L 162.75 181.5398044151942 L 163.6 181.57939613376968 L 164.45 181.6190155762504 L 165.3 181.6586627620499 L 166.14999999999998 181.69833771059524 L 167.0 181.73804044132723 L 167.85 181.77777097370014 L 168.7 181.81752932718197 L 169.55 181.85731552125435 L 170.39999999999998 181.8971295754124 L 171.25 181.93697150916515 L 172.10000000000002 181.97684134203504 L 172.95 182.01673909355836 L 173.8 182.05666478328493 L 174.65 182.09661843077842 L 175.5 182.1366000556161 L 176.35000000000002 182.1766096773889 L 177.2 182.21664731570164 L 178.05 182.25671299017267 L 178.9 182.29680672043423 L 179.75 182.3369285261322 L 180.60000000000002 182.37707842692632 L 181.45000000000002 182.41725644249001 L 182.29999999999998 182.4574625925105 L 183.14999999999998 182.49769689668886 L 184.0 182.53795937473978 L 184.85 182.578250046392 L 185.7 182.61856893138784 L 186.55 182.65891604948365 L 187.39999999999998 182.69929142044947 L 188.25 182.73969506406925 L 189.1 182.78012700014074 L 189.95 182.82058724847562 L 190.8 182.86107582889943 L 191.64999999999998 182.90159276125155 L 192.5 182.94213806538525 L 193.35000000000002 182.9827117611678 L 194.2 183.02331386848024 L 195.05 183.06394440721766 L 195.9 183.10460339728897 L 196.75 183.14529085861716 L 197.60000000000002 183.186006811139 L 198.45 183.22675127480537 L 199.3 183.26752426958097 L 200.15 183.30832581544468 L 201.0 183.3491559323892 L 201.85000000000002 183.39001464042127 L 202.70000000000002 183.4309019595617 L 203.54999999999998 183.47181790984524 L 204.39999999999998 183.51276251132077 L 205.25 183.5537357840511 L 206.1 183.59473774811306 L 206.95 183.63576842359777 L 207.8 183.67682783061014 L 208.64999999999998 183.71791598926936 L 209.5 183.75903291970855 L 210.35 183.80017864207505 L 211.2 183.84111902335098 L 212.05 183.88192361698825 L 212.89999999999998 183.92277107795022 L 213.75 183.96366145127126 L 214.60000000000002 184.00459478203302 L 215.45 184.04557111536442 L 216.3 184.08659049644197 L 217.15 184.12765297048952 L 218.0 184.1687585827784 L 218.85000000000002 184.20990737862758 L 219.7 184.25109940340366 L 220.55 184.29233470252072 L 221.4 184.33361332144085 L 222.25 184.37493530567363 L 223.10000000000002 184.41630070077656 L 223.95000000000002 184.45770955235503 L 224.79999999999998 184.49916190606226 L 225.65 184.5406578075995 L 226.5 184.58219730271597 L 227.35 184.62378043720898 L 228.2 184.66540725692394 L 229.05 184.70707780775442 L 229.89999999999998 184.7487921356422 L 230.75 184.79055028657734 L 231.6 184.83235230659818 L 232.45 184.87419824179148 L 233.3 184.9160881382924 L 234.14999999999998 184.9580220422845" style="stroke:rgb(40%,76.1%,64.7%);stroke-opacity:1.0;stroke-width:5.0" /></g></g><g class="toyplot-mark-FillBoundaries" style="stroke:none" id="tea0d3eba99f646668bc77f03c599f29d"><polygon points="65.0,185.0 65.85,185.0 66.69999999999999,185.0 67.55000000000001,185.0 68.39999999999999,185.0 69.25,185.0 70.1,185.0 70.95,185.0 71.8,185.0 72.64999999999999,185.0 73.5,185.0 74.35,185.0 75.19999999999999,185.0 76.05000000000001,185.0 76.9,185.0 77.75,185.0 78.60000000000001,185.0 79.45,185.0 80.3,185.0 81.15,185.0 82.0,185.0 82.85000000000001,185.0 83.7,185.0 84.55,185.0 85.4,185.0 86.25,185.0 87.1,185.0 87.95,185.0 88.80000000000001,185.0 89.64999999999999,185.0 90.5,185.0 91.35,185.0 92.2,185.0 93.05,185.0 93.9,185.0 94.75,185.0 95.6,185.0 96.44999999999999,185.0 97.30000000000001,185.0 98.15,185.0 99.0,185.0 99.85,185.0 100.7,185.0 101.55,185.0 102.4,185.0 103.25,185.0 104.10000000000001,185.0 104.94999999999999,185.0 105.8,185.0 106.65,185.0 107.5,185.0 108.35,185.0 109.2,185.0 110.05000000000001,185.0 110.9,185.0 111.75,185.0 112.60000000000001,185.0 113.45,185.0 114.29999999999998,185.0 115.15,185.0 116.0,185.0 116.85,185.0 117.69999999999999,185.0 118.55000000000001,185.0 119.4,185.0 120.25,185.0 121.1,185.0 121.95000000000002,185.0 122.8,185.0 123.64999999999999,185.0 124.5,185.0 125.35,185.0 126.19999999999999,185.0 127.04999999999998,185.0 127.9,185.0 128.75,185.0 129.6,185.0 130.45000000000002,185.0 131.3,185.0 132.15,185.0 133.0,185.0 133.85000000000002,185.0 134.7,185.0 135.54999999999998,185.0 136.4,185.0 137.25,185.0 138.1,185.0 138.95,185.0 139.8,185.0 140.65,185.0 141.5,185.0 142.35,185.0 143.20000000000002,185.0 144.05,185.0 144.89999999999998,185.0 145.75,185.0 146.6,185.0 147.45,185.0 148.29999999999998,185.0 149.15,185.0 150.0,185.0 150.85,185.0 151.70000000000002,185.0 152.55,185.0 153.4,185.0 154.25,185.0 155.10000000000002,185.0 155.95000000000002,185.0 156.8,185.0 157.65,185.0 158.5,185.0 159.35000000000002,185.0 160.20000000000002,185.0 161.04999999999998,185.0 161.89999999999998,185.0 162.75,185.0 163.6,185.0 164.45,185.0 165.3,185.0 166.14999999999998,185.0 167.0,185.0 167.85,185.0 168.7,185.0 169.55,185.0 170.39999999999998,185.0 171.25,185.0 172.10000000000002,185.0 172.95,185.0 173.8,185.0 174.65,185.0 175.5,185.0 176.35000000000002,185.0 177.2,185.0 178.05,185.0 178.9,185.0 179.75,185.0 180.60000000000002,185.0 181.45000000000002,185.0 182.29999999999998,185.0 183.14999999999998,185.0 184.0,185.0 184.85,185.0 185.7,185.0 186.55,185.0 187.39999999999998,185.0 188.25,185.0 189.1,185.0 189.95,185.0 190.8,185.0 191.64999999999998,185.0 192.5,185.0 193.35000000000002,185.0 194.2,185.0 195.05,185.0 195.9,185.0 196.75,185.0 197.60000000000002,185.0 198.45,185.0 199.3,185.0 200.15,185.0 201.0,185.0 201.85000000000002,185.0 202.70000000000002,185.0 203.54999999999998,185.0 204.39999999999998,185.0 205.25,185.0 206.1,185.0 206.95,185.0 207.8,185.0 208.64999999999998,185.0 209.5,185.0 210.35,185.0 211.2,185.0 212.05,185.0 212.89999999999998,185.0 213.75,185.0 214.60000000000002,185.0 215.45,185.0 216.3,185.0 217.15,185.0 218.0,185.0 218.85000000000002,185.0 219.7,185.0 220.55,185.0 221.4,185.0 222.25,185.0 223.10000000000002,185.0 223.95000000000002,185.0 224.79999999999998,185.0 225.65,185.0 226.5,185.0 227.35,185.0 228.2,185.0 229.05,185.0 229.89999999999998,185.0 230.75,185.0 231.6,185.0 232.45,185.0 233.3,185.0 234.14999999999998,185.0 234.14999999999998,184.9580220422845 233.3,184.9160881382924 232.45,184.87419824179148 231.6,184.83235230659818 230.75,184.79055028657734 229.89999999999998,184.7487921356422 229.05,184.70707780775442 228.2,184.66540725692394 227.35,184.62378043720898 226.5,184.58219730271597 225.65,184.5406578075995 224.79999999999998,184.49916190606226 223.95000000000002,184.45770955235503 223.10000000000002,184.41630070077656 222.25,184.37493530567363 221.4,184.33361332144085 220.55,184.29233470252072 219.7,184.25109940340366 218.85000000000002,184.20990737862758 218.0,184.1687585827784 217.15,184.12765297048952 216.3,184.08659049644197 215.45,184.04557111536442 214.60000000000002,184.00459478203302 213.75,183.96366145127126 212.89999999999998,183.92277107795022 212.05,183.88192361698825 211.2,183.84111902335098 210.35,183.80017864207505 209.5,183.75903291970855 208.64999999999998,183.71791598926936 207.8,183.67682783061014 206.95,183.63576842359777 206.1,183.59473774811306 205.25,183.5537357840511 204.39999999999998,183.51276251132077 203.54999999999998,183.47181790984524 202.70000000000002,183.4309019595617 201.85000000000002,183.39001464042127 201.0,183.3491559323892 200.15,183.30832581544468 199.3,183.26752426958097 198.45,183.22675127480537 197.60000000000002,183.186006811139 196.75,183.14529085861716 195.9,183.10460339728897 195.05,183.06394440721766 194.2,183.02331386848024 193.35000000000002,182.9827117611678 192.5,182.94213806538525 191.64999999999998,182.90159276125155 190.8,182.86107582889943 189.95,182.82058724847562 189.1,182.78012700014074 188.25,182.73969506406925 187.39999999999998,182.69929142044947 186.55,182.65891604948365 185.7,182.61856893138784 184.85,182.578250046392 184.0,182.53795937473978 183.14999999999998,182.49769689668886 182.29999999999998,182.4574625925105 181.45000000000002,182.41725644249001 180.60000000000002,182.37707842692632 179.75,182.3369285261322 178.9,182.29680672043423 178.05,182.25671299017267 177.2,182.21664731570164 176.35000000000002,182.1766096773889 175.5,182.1366000556161 174.65,182.09661843077842 173.8,182.05666478328493 172.95,182.01673909355836 172.10000000000002,181.97684134203504 171.25,181.93697150916515 170.39999999999998,181.8971295754124 169.55,181.85731552125435 168.7,181.81752932718197 167.85,181.77777097370014 167.0,181.73804044132723 166.14999999999998,181.69833771059524 165.3,181.6586627620499 164.45,181.6190155762504 163.6,181.57939613376968 162.75,181.5398044151942 161.89999999999998,181.50058975966567 161.04999999999998,181.46228425432767 160.20000000000002,181.42401894866174 159.35000000000002,181.38579380048034 158.5,181.34760876764034 157.65,181.30946380804266 156.8,181.27135887963252 155.95000000000002,181.23329394039922 155.10000000000002,181.19526894837617 154.25,181.1572838616408 153.4,181.11933863831453 152.55,181.08143323656276 151.70000000000002,181.04356761459485 150.85,181.0057417306638 150.0,180.96795554306672 149.15,180.93020901014424 148.29999999999998,180.89250209028086 147.45,180.85483474190463 146.6,180.81720692348736 145.75,180.77961859354434 144.89999999999998,180.74206971063444 144.05,180.70456023336004 143.20000000000002,180.6670901203669 142.35,180.62965933034423 141.5,180.59226782202458 140.65,180.5549155541838 139.8,180.51760248564102 138.95,180.4803285752586 138.1,180.443093781942 137.25,180.4058980646399 136.4,180.36874138234404 135.54999999999998,180.3316236940891 134.7,180.29454495895283 133.85000000000002,180.25750513605598 133.0,180.22050418456212 132.15,180.18354206367772 131.3,180.14661873265197 130.45000000000002,180.10973415077694 129.6,180.07288827738736 128.75,180.03608107186068 127.9,179.99931249361688 127.04999999999998,179.96258250211872 126.19999999999999,179.92589105687128 125.35,179.88923811742225 124.5,179.8526236433618 123.64999999999999,179.81604759432244 122.8,179.77950992997907 121.95000000000002,179.74301061004894 121.1,179.70654959429152 120.25,179.67012684250855 119.4,179.63374231454395 118.55000000000001,179.59739597028369 117.69999999999999,179.56108776965604 116.85,179.52481767263114 116.0,179.48858563922127 115.15,179.45239162948053 114.29999999999998,179.41623560350504 113.45,179.37983667028138 112.60000000000001,179.341784104564 111.75,179.30375816632193 110.9,179.26575883692243 110.05000000000001,179.22778609774582 109.2,179.18983993018554 108.35,179.15192031564789 107.5,179.11402723555224 106.65,179.07616067133108 105.8,179.03832060442969 104.94999999999999,179.00050701630647 104.10000000000001,178.9627198884328 103.25,178.92495920229297 102.4,178.88722493938417 101.55,178.8495170812167 100.7,178.8118356093137 99.85,178.77418050521115 99.0,178.73655175045818 98.15,178.69894932661666 97.30000000000001,178.66137321526136 96.44999999999999,178.62382339798003 95.6,178.5862998563732 94.75,178.5488025720544 93.9,178.5113315266499 93.05,178.47388670179896 92.2,178.43646807915357 91.35,178.39907564037858 90.5,178.3617093671517 89.64999999999999,178.32436924116354 88.80000000000001,178.28705524411734 87.95,178.24976735772927 87.1,178.21250556372829 86.25,178.17526984385609 85.4,178.13806017986718 84.55,178.10087655352885 83.7,178.06371894662107 82.85000000000001,178.0265873409366 82.0,177.989481718281 81.15,177.95240206047256 80.3,177.91534834934214 79.45,177.87832056673346 78.60000000000001,177.84131869450295 77.75,177.80434271451963 76.9,177.76739260866532 76.05000000000001,177.73046835883446 75.19999999999999,177.6935699469341 74.35,177.6566973548841 73.5,177.61985056461685 72.64999999999999,177.58302955807744 71.8,177.54623431722356 70.95,177.50946482402554 70.1,177.4727210604663 69.25,177.4360030085415 68.39999999999999,177.3993106502592 67.55000000000001,177.36264396764017 66.69999999999999,177.32600294271768 65.85,177.28938755753774 65.0,177.25279779415874" style="fill:rgb(40%,76.1%,64.7%);fill-opacity:1.0;opacity:0.33;stroke:none" /></g><g class="toyplot-mark-Plot" style="fill:none;stroke:rgb(0%,0%,0%);stroke-dasharray:4,2;stroke-opacity:1.0;stroke-width:2" id="t3536fd453c214bb3839e9abadf796c5c"><g class="toyplot-Series"><path d="M 65.0 185.0 L 65.0 177.25279779415874" style="stroke:rgb(0%,0%,0%);stroke-dasharray:4,2;stroke-opacity:1.0;stroke-width:2" /></g></g><g class="toyplot-mark-Plot" style="fill:none;stroke:rgb(0%,0%,0%);stroke-dasharray:4,2;stroke-opacity:1.0;stroke-width:2" id="tdc3157c484d94e528b6234e7f834aa1c"><g class="toyplot-Series"><path d="M 113.57142857142857 185.0 L 113.57142857142857 179.38527492585666" style="stroke:rgb(0%,0%,0%);stroke-dasharray:4,2;stroke-opacity:1.0;stroke-width:2" /></g></g><g class="toyplot-mark-Plot" style="fill:none;stroke:rgb(0%,0%,0%);stroke-dasharray:4,2;stroke-opacity:1.0;stroke-width:2" id="t24464a98581b45bc8239f32d165fe2ff"><g class="toyplot-Series"><path d="M 162.14285714285714 185.0 L 162.14285714285714 181.51154157928437" style="stroke:rgb(0%,0%,0%);stroke-dasharray:4,2;stroke-opacity:1.0;stroke-width:2" /></g></g><g class="toyplot-mark-Plot" style="fill:none;stroke:rgb(0%,0%,0%);stroke-dasharray:4,2;stroke-opacity:1.0;stroke-width:2" id="tfd541974721d412fbe442f1b9b330360"><g class="toyplot-Series"><path d="M 210.7142857142857 185.0 L 210.7142857142857 183.81782134194032" style="stroke:rgb(0%,0%,0%);stroke-dasharray:4,2;stroke-opacity:1.0;stroke-width:2" /></g></g><g class="toyplot-mark-Plot" style="fill:none;stroke:rgb(0%,0%,0%);stroke-dasharray:4,2;stroke-opacity:1.0;stroke-width:2" id="ta38672b5031d482e93b1934d831cfbc4"><g class="toyplot-Series"><path d="M 235.0 185.0 L 235.0 185.0" style="stroke:rgb(0%,0%,0%);stroke-dasharray:4,2;stroke-opacity:1.0;stroke-width:2" /></g></g></g><g class="toyplot-coordinates-Axis" id="tc21a033c888e4c10bcac62ad4574cf05" transform="translate(65.0,185.0)translate(0,10.0)"><line x1="0" y1="0" x2="170.0" y2="0" style="stroke-width:1.5" /><g><line x1="0.0" y1="7.5" x2="0.0" y2="0" style="stroke-width:1.5" /><line x1="48.57142857142857" y1="7.5" x2="48.57142857142857" y2="0" style="stroke-width:1.5" /><line x1="97.14285714285714" y1="7.5" x2="97.14285714285714" y2="0" style="stroke-width:1.5" /><line x1="145.7142857142857" y1="7.5" x2="145.7142857142857" y2="0" style="stroke-width:1.5" /><line x1="170.0" y1="7.5" x2="170.0" y2="0" style="stroke-width:1.5" /></g><g><g transform="translate(0.0,15.0)"><text x="-16.68" y="8.555" style="fill:rgb(16.1%,15.3%,14.1%);fill-opacity:1.0;font-family:helvetica;font-size:10.0px;font-weight:normal;stroke:none;vertical-align:baseline;white-space:pre">100000</text></g><g transform="translate(48.57142857142857,15.0)"><text x="-16.68" y="8.555" style="fill:rgb(16.1%,15.3%,14.1%);fill-opacity:1.0;font-family:helvetica;font-size:10.0px;font-weight:normal;stroke:none;vertical-align:baseline;white-space:pre">200000</text></g><g transform="translate(97.14285714285714,15.0)"><text x="-16.68" y="8.555" style="fill:rgb(16.1%,15.3%,14.1%);fill-opacity:1.0;font-family:helvetica;font-size:10.0px;font-weight:normal;stroke:none;vertical-align:baseline;white-space:pre">300000</text></g><g transform="translate(145.7142857142857,15.0)"><text x="-16.68" y="8.555" style="fill:rgb(16.1%,15.3%,14.1%);fill-opacity:1.0;font-family:helvetica;font-size:10.0px;font-weight:normal;stroke:none;vertical-align:baseline;white-space:pre">400000</text></g><g transform="translate(170.0,15.0)"><text x="-16.68" y="8.555" style="fill:rgb(16.1%,15.3%,14.1%);fill-opacity:1.0;font-family:helvetica;font-size:10.0px;font-weight:normal;stroke:none;vertical-align:baseline;white-space:pre">450000</text></g></g><g transform="translate(85.0,35.0)"><text x="-100.02000000000002" y="10.265999999999998" style="fill:rgb(16.1%,15.3%,14.1%);fill-opacity:1.0;font-family:helvetica;font-size:12.0px;font-weight:bold;stroke:none;vertical-align:baseline;white-space:pre">Time of recombination on branch 7</text></g><g class="toyplot-coordinates-Axis-coordinates" style="visibility:hidden" transform=""><line x1="0" x2="0" y1="-7.5" y2="11.25" style="stroke:rgb(43.9%,50.2%,56.5%);stroke-opacity:1.0;stroke-width:1.0" /><text x="0" y="-15.0" style="alignment-baseline:alphabetic;fill:rgb(43.9%,50.2%,56.5%);fill-opacity:1.0;font-size:10px;font-weight:normal;stroke:none;text-anchor:middle" /></g></g><g class="toyplot-coordinates-Axis" id="t3d61153033c94fffb401648cbe2cf982" transform="translate(65.0,185.0)rotate(-90.0)translate(0,-10.0)"><line x1="0" y1="0" x2="120.0" y2="0" style="stroke-width:1.5" /><g><line x1="0.0" y1="-7.5" x2="0.0" y2="0" style="stroke-width:1.5" /><line x1="60.0" y1="-7.5" x2="60.0" y2="0" style="stroke-width:1.5" /><line x1="120.0" y1="-7.5" x2="120.0" y2="0" style="stroke-width:1.5" /></g><g><g transform="translate(0.0,-15.0)"><text x="-6.95" y="-4.440892098500626e-16" style="fill:rgb(16.1%,15.3%,14.1%);fill-opacity:1.0;font-family:helvetica;font-size:10.0px;font-weight:normal;stroke:none;vertical-align:baseline;white-space:pre">0.0</text></g><g transform="translate(60.0,-15.0)"><text x="-6.95" y="-4.440892098500626e-16" style="fill:rgb(16.1%,15.3%,14.1%);fill-opacity:1.0;font-family:helvetica;font-size:10.0px;font-weight:normal;stroke:none;vertical-align:baseline;white-space:pre">0.5</text></g><g transform="translate(120.0,-15.0)"><text x="-6.95" y="-4.440892098500626e-16" style="fill:rgb(16.1%,15.3%,14.1%);fill-opacity:1.0;font-family:helvetica;font-size:10.0px;font-weight:normal;stroke:none;vertical-align:baseline;white-space:pre">1.0</text></g></g><g transform="translate(60.0,-35.0)"><text x="-31.008" y="0.0" style="fill:rgb(16.1%,15.3%,14.1%);fill-opacity:1.0;font-family:helvetica;font-size:12.0px;font-weight:bold;stroke:none;vertical-align:baseline;white-space:pre">Probability</text></g><g class="toyplot-coordinates-Axis-coordinates" style="visibility:hidden" transform=""><line x1="0" x2="0" y1="7.5" y2="-11.25" style="stroke:rgb(43.9%,50.2%,56.5%);stroke-opacity:1.0;stroke-width:1.0" /><text x="0" y="15.0" style="alignment-baseline:hanging;fill:rgb(43.9%,50.2%,56.5%);fill-opacity:1.0;font-size:10px;font-weight:normal;stroke:none;text-anchor:middle" /></g></g><g transform="translate(150.0,45.0)"><text x="-56.0" y="-4.823" style="fill:rgb(16.1%,15.3%,14.1%);fill-opacity:1.0;font-family:helvetica;font-size:14.0px;font-weight:bold;stroke:none;vertical-align:baseline;white-space:pre">Prob(no-change)</text></g></g><g class="toyplot-coordinates-Cartesian" id="t4fc76c310f8941a9971dc512d4394f8c"><clipPath id="t885308a7f12845db86e22630851d23d4"><rect x="55.0" y="305.0" width="190.0" height="140.0" /></clipPath><g clip-path="url(#t885308a7f12845db86e22630851d23d4)"><g class="toyplot-mark-Plot" style="fill:none" id="td97197c8bdf8418e85ce3b5ae0df7a17"><g class="toyplot-Series"><path d="M 65.0 322.74720220584123 L 65.85 322.71061244246226 L 66.69999999999999 322.6739970572823 L 67.55000000000001 322.6373560323599 L 68.39999999999999 322.6006893497408 L 69.25 322.56399699145845 L 70.1 322.52727893953363 L 70.95 322.49053517597446 L 71.8 322.4537656827764 L 72.64999999999999 322.41697044192256 L 73.5 322.38014943538315 L 74.35 322.3433026451159 L 75.19999999999999 322.3064300530659 L 76.05000000000001 322.26953164116554 L 76.9 322.2326073913347 L 77.75 322.19565728548037 L 78.60000000000001 322.15868130549705 L 79.45 322.12167943326654 L 80.3 322.08465165065786 L 81.15 322.04759793952746 L 82.0 322.01051828171893 L 82.85000000000001 321.9734126590634 L 83.7 321.93628105337893 L 84.55 321.89912344647115 L 85.4 321.8619398201328 L 86.25 321.8247301561439 L 87.1 321.7874944362717 L 87.95 321.7502326422707 L 88.80000000000001 321.7129447558827 L 89.64999999999999 321.67563075883646 L 90.5 321.6382906328483 L 91.35 321.60092435962144 L 92.2 321.56353192084646 L 93.05 321.5261132982011 L 93.9 321.48866847335006 L 94.75 321.45119742794566 L 95.6 321.4137001436268 L 96.44999999999999 321.37617660202 L 97.30000000000001 321.33862678473866 L 98.15 321.3010506733834 L 99.0 321.2634482495418 L 99.85 321.2258194947889 L 100.7 321.18816439068627 L 101.55 321.1504829187833 L 102.4 321.11277506061583 L 103.25 321.07504079770706 L 104.10000000000001 321.0372801115672 L 104.94999999999999 320.99949298369353 L 105.8 320.96167939557034 L 106.65 320.9238393286689 L 107.5 320.88597276444773 L 108.35 320.8480796843521 L 109.2 320.81016006981446 L 110.05000000000001 320.7722139022542 L 110.9 320.73424116307757 L 111.75 320.6962418336781 L 112.60000000000001 320.658215895436 L 113.45 320.6201633297186 L 114.29999999999998 320.5837643964949 L 115.15 320.54760837051947 L 116.0 320.51141436077876 L 116.85 320.4751823273688 L 117.69999999999999 320.43891223034393 L 118.55000000000001 320.4026040297163 L 119.4 320.36625768545605 L 120.25 320.3298731574915 L 121.1 320.2934504057085 L 121.95000000000002 320.25698938995106 L 122.8 320.22049007002096 L 123.64999999999999 320.1839524056776 L 124.5 320.14737635663823 L 125.35 320.1107618825777 L 126.19999999999999 320.07410894312875 L 127.04999999999998 320.0374174978813 L 127.9 320.0006875063831 L 128.75 319.9639189281394 L 129.6 319.92711172261266 L 130.45000000000002 319.89026584922306 L 131.3 319.853381267348 L 132.15 319.8164579363223 L 133.0 319.7794958154379 L 133.85000000000002 319.742494863944 L 134.7 319.7054550410472 L 135.54999999999998 319.6683763059109 L 136.4 319.631258617656 L 137.25 319.5941019353601 L 138.1 319.55690621805803 L 138.95 319.51967142474143 L 139.8 319.4823975143589 L 140.65 319.4450844458162 L 141.5 319.40773217797545 L 142.35 319.3703406696558 L 143.20000000000002 319.33290987963306 L 144.05 319.2954397666399 L 144.89999999999998 319.25793028936556 L 145.75 319.22038140645566 L 146.6 319.18279307651267 L 147.45 319.14516525809535 L 148.29999999999998 319.1074979097192 L 149.15 319.06979098985573 L 150.0 319.03204445693325 L 150.85 318.99425826933617 L 151.70000000000002 318.9564323854052 L 152.55 318.9185667634372 L 153.4 318.8806613616855 L 154.25 318.8427161383592 L 155.10000000000002 318.80473105162383 L 155.95000000000002 318.7667060596008 L 156.8 318.7286411203675 L 157.65 318.69053619195734 L 158.5 318.65239123235966 L 159.35000000000002 318.61420619951963 L 160.20000000000002 318.57598105133826 L 161.04999999999998 318.5377157456723 L 161.89999999999998 318.4994102403343 L 162.75 318.4601955848058 L 163.6 318.4206038662303 L 164.45 318.3809844237496 L 165.3 318.34133723795014 L 166.14999999999998 318.3016622894048 L 167.0 318.2619595586728 L 167.85 318.22222902629983 L 168.7 318.18247067281806 L 169.55 318.14268447874565 L 170.39999999999998 318.1028704245876 L 171.25 318.0630284908349 L 172.10000000000002 318.0231586579649 L 172.95 317.98326090644167 L 173.8 317.94333521671507 L 174.65 317.9033815692216 L 175.5 317.8633999443839 L 176.35000000000002 317.8233903226111 L 177.2 317.7833526842984 L 178.05 317.7432870098273 L 178.9 317.70319327956577 L 179.75 317.6630714738678 L 180.60000000000002 317.62292157307365 L 181.45000000000002 317.58274355750996 L 182.29999999999998 317.5425374074895 L 183.14999999999998 317.50230310331114 L 184.0 317.4620406252602 L 184.85 317.421749953608 L 185.7 317.3814310686122 L 186.55 317.34108395051635 L 187.39999999999998 317.30070857955053 L 188.25 317.2603049359308 L 189.1 317.21987299985926 L 189.95 317.1794127515244 L 190.8 317.1389241711006 L 191.64999999999998 317.09840723874845 L 192.5 317.0578619346147 L 193.35000000000002 317.01728823883224 L 194.2 316.9766861315198 L 195.05 316.93605559278234 L 195.9 316.89539660271106 L 196.75 316.85470914138284 L 197.60000000000002 316.813993188861 L 198.45 316.7732487251946 L 199.3 316.732475730419 L 200.15 316.6916741845553 L 201.0 316.6508440676108 L 201.85000000000002 316.60998535957873 L 202.70000000000002 316.5690980404383 L 203.54999999999998 316.52818209015476 L 204.39999999999998 316.4872374886792 L 205.25 316.44626421594893 L 206.1 316.40526225188694 L 206.95 316.36423157640223 L 207.8 316.32317216938986 L 208.64999999999998 316.28208401073067 L 209.5 316.24096708029145 L 210.35 316.199821357925 L 211.2 316.158880976649 L 212.05 316.1180763830118 L 212.89999999999998 316.0772289220498 L 213.75 316.03633854872874 L 214.60000000000002 315.995405217967 L 215.45 315.95442888463555 L 216.3 315.91340950355806 L 217.15 315.8723470295105 L 218.0 315.8312414172216 L 218.85000000000002 315.7900926213724 L 219.7 315.74890059659634 L 220.55 315.7076652974793 L 221.4 315.66638667855915 L 222.25 315.62506469432634 L 223.10000000000002 315.58369929922344 L 223.95000000000002 315.54229044764503 L 224.79999999999998 315.5008380939377 L 225.65 315.4593421924005 L 226.5 315.417802697284 L 227.35 315.376219562791 L 228.2 315.3345927430761 L 229.05 315.29292219224556 L 229.89999999999998 315.2512078643578 L 230.75 315.2094497134227 L 231.6 315.1676476934018 L 232.45 315.12580175820847 L 233.3 315.0839118617076 L 234.14999999999998 315.0419779577155" style="stroke:rgb(40%,76.1%,64.7%);stroke-opacity:1.0;stroke-width:5.0" /></g></g><g class="toyplot-mark-FillBoundaries" style="stroke:none" id="tabdb02d515534453af101b03a379945b"><polygon points="65.0,435.0 65.85,435.0 66.69999999999999,435.0 67.55000000000001,435.0 68.39999999999999,435.0 69.25,435.0 70.1,435.0 70.95,435.0 71.8,435.0 72.64999999999999,435.0 73.5,435.0 74.35,435.0 75.19999999999999,435.0 76.05000000000001,435.0 76.9,435.0 77.75,435.0 78.60000000000001,435.0 79.45,435.0 80.3,435.0 81.15,435.0 82.0,435.0 82.85000000000001,435.0 83.7,435.0 84.55,435.0 85.4,435.0 86.25,435.0 87.1,435.0 87.95,435.0 88.80000000000001,435.0 89.64999999999999,435.0 90.5,435.0 91.35,435.0 92.2,435.0 93.05,435.0 93.9,435.0 94.75,435.0 95.6,435.0 96.44999999999999,435.0 97.30000000000001,435.0 98.15,435.0 99.0,435.0 99.85,435.0 100.7,435.0 101.55,435.0 102.4,435.0 103.25,435.0 104.10000000000001,435.0 104.94999999999999,435.0 105.8,435.0 106.65,435.0 107.5,435.0 108.35,435.0 109.2,435.0 110.05000000000001,435.0 110.9,435.0 111.75,435.0 112.60000000000001,435.0 113.45,435.0 114.29999999999998,435.0 115.15,435.0 116.0,435.0 116.85,435.0 117.69999999999999,435.0 118.55000000000001,435.0 119.4,435.0 120.25,435.0 121.1,435.0 121.95000000000002,435.0 122.8,435.0 123.64999999999999,435.0 124.5,435.0 125.35,435.0 126.19999999999999,435.0 127.04999999999998,435.0 127.9,435.0 128.75,435.0 129.6,435.0 130.45000000000002,435.0 131.3,435.0 132.15,435.0 133.0,435.0 133.85000000000002,435.0 134.7,435.0 135.54999999999998,435.0 136.4,435.0 137.25,435.0 138.1,435.0 138.95,435.0 139.8,435.0 140.65,435.0 141.5,435.0 142.35,435.0 143.20000000000002,435.0 144.05,435.0 144.89999999999998,435.0 145.75,435.0 146.6,435.0 147.45,435.0 148.29999999999998,435.0 149.15,435.0 150.0,435.0 150.85,435.0 151.70000000000002,435.0 152.55,435.0 153.4,435.0 154.25,435.0 155.10000000000002,435.0 155.95000000000002,435.0 156.8,435.0 157.65,435.0 158.5,435.0 159.35000000000002,435.0 160.20000000000002,435.0 161.04999999999998,435.0 161.89999999999998,435.0 162.75,435.0 163.6,435.0 164.45,435.0 165.3,435.0 166.14999999999998,435.0 167.0,435.0 167.85,435.0 168.7,435.0 169.55,435.0 170.39999999999998,435.0 171.25,435.0 172.10000000000002,435.0 172.95,435.0 173.8,435.0 174.65,435.0 175.5,435.0 176.35000000000002,435.0 177.2,435.0 178.05,435.0 178.9,435.0 179.75,435.0 180.60000000000002,435.0 181.45000000000002,435.0 182.29999999999998,435.0 183.14999999999998,435.0 184.0,435.0 184.85,435.0 185.7,435.0 186.55,435.0 187.39999999999998,435.0 188.25,435.0 189.1,435.0 189.95,435.0 190.8,435.0 191.64999999999998,435.0 192.5,435.0 193.35000000000002,435.0 194.2,435.0 195.05,435.0 195.9,435.0 196.75,435.0 197.60000000000002,435.0 198.45,435.0 199.3,435.0 200.15,435.0 201.0,435.0 201.85000000000002,435.0 202.70000000000002,435.0 203.54999999999998,435.0 204.39999999999998,435.0 205.25,435.0 206.1,435.0 206.95,435.0 207.8,435.0 208.64999999999998,435.0 209.5,435.0 210.35,435.0 211.2,435.0 212.05,435.0 212.89999999999998,435.0 213.75,435.0 214.60000000000002,435.0 215.45,435.0 216.3,435.0 217.15,435.0 218.0,435.0 218.85000000000002,435.0 219.7,435.0 220.55,435.0 221.4,435.0 222.25,435.0 223.10000000000002,435.0 223.95000000000002,435.0 224.79999999999998,435.0 225.65,435.0 226.5,435.0 227.35,435.0 228.2,435.0 229.05,435.0 229.89999999999998,435.0 230.75,435.0 231.6,435.0 232.45,435.0 233.3,435.0 234.14999999999998,435.0 234.14999999999998,315.0419779577155 233.3,315.0839118617076 232.45,315.12580175820847 231.6,315.1676476934018 230.75,315.2094497134227 229.89999999999998,315.2512078643578 229.05,315.29292219224556 228.2,315.3345927430761 227.35,315.376219562791 226.5,315.417802697284 225.65,315.4593421924005 224.79999999999998,315.5008380939377 223.95000000000002,315.54229044764503 223.10000000000002,315.58369929922344 222.25,315.62506469432634 221.4,315.66638667855915 220.55,315.7076652974793 219.7,315.74890059659634 218.85000000000002,315.7900926213724 218.0,315.8312414172216 217.15,315.8723470295105 216.3,315.91340950355806 215.45,315.95442888463555 214.60000000000002,315.995405217967 213.75,316.03633854872874 212.89999999999998,316.0772289220498 212.05,316.1180763830118 211.2,316.158880976649 210.35,316.199821357925 209.5,316.24096708029145 208.64999999999998,316.28208401073067 207.8,316.32317216938986 206.95,316.36423157640223 206.1,316.40526225188694 205.25,316.44626421594893 204.39999999999998,316.4872374886792 203.54999999999998,316.52818209015476 202.70000000000002,316.5690980404383 201.85000000000002,316.60998535957873 201.0,316.6508440676108 200.15,316.6916741845553 199.3,316.732475730419 198.45,316.7732487251946 197.60000000000002,316.813993188861 196.75,316.85470914138284 195.9,316.89539660271106 195.05,316.93605559278234 194.2,316.9766861315198 193.35000000000002,317.01728823883224 192.5,317.0578619346147 191.64999999999998,317.09840723874845 190.8,317.1389241711006 189.95,317.1794127515244 189.1,317.21987299985926 188.25,317.2603049359308 187.39999999999998,317.30070857955053 186.55,317.34108395051635 185.7,317.3814310686122 184.85,317.421749953608 184.0,317.4620406252602 183.14999999999998,317.50230310331114 182.29999999999998,317.5425374074895 181.45000000000002,317.58274355750996 180.60000000000002,317.62292157307365 179.75,317.6630714738678 178.9,317.70319327956577 178.05,317.7432870098273 177.2,317.7833526842984 176.35000000000002,317.8233903226111 175.5,317.8633999443839 174.65,317.9033815692216 173.8,317.94333521671507 172.95,317.98326090644167 172.10000000000002,318.0231586579649 171.25,318.0630284908349 170.39999999999998,318.1028704245876 169.55,318.14268447874565 168.7,318.18247067281806 167.85,318.22222902629983 167.0,318.2619595586728 166.14999999999998,318.3016622894048 165.3,318.34133723795014 164.45,318.3809844237496 163.6,318.4206038662303 162.75,318.4601955848058 161.89999999999998,318.4994102403343 161.04999999999998,318.5377157456723 160.20000000000002,318.57598105133826 159.35000000000002,318.61420619951963 158.5,318.65239123235966 157.65,318.69053619195734 156.8,318.7286411203675 155.95000000000002,318.7667060596008 155.10000000000002,318.80473105162383 154.25,318.8427161383592 153.4,318.8806613616855 152.55,318.9185667634372 151.70000000000002,318.9564323854052 150.85,318.99425826933617 150.0,319.03204445693325 149.15,319.06979098985573 148.29999999999998,319.1074979097192 147.45,319.14516525809535 146.6,319.18279307651267 145.75,319.22038140645566 144.89999999999998,319.25793028936556 144.05,319.2954397666399 143.20000000000002,319.33290987963306 142.35,319.3703406696558 141.5,319.40773217797545 140.65,319.4450844458162 139.8,319.4823975143589 138.95,319.51967142474143 138.1,319.55690621805803 137.25,319.5941019353601 136.4,319.631258617656 135.54999999999998,319.6683763059109 134.7,319.7054550410472 133.85000000000002,319.742494863944 133.0,319.7794958154379 132.15,319.8164579363223 131.3,319.853381267348 130.45000000000002,319.89026584922306 129.6,319.92711172261266 128.75,319.9639189281394 127.9,320.0006875063831 127.04999999999998,320.0374174978813 126.19999999999999,320.07410894312875 125.35,320.1107618825777 124.5,320.14737635663823 123.64999999999999,320.1839524056776 122.8,320.22049007002096 121.95000000000002,320.25698938995106 121.1,320.2934504057085 120.25,320.3298731574915 119.4,320.36625768545605 118.55000000000001,320.4026040297163 117.69999999999999,320.43891223034393 116.85,320.4751823273688 116.0,320.51141436077876 115.15,320.54760837051947 114.29999999999998,320.5837643964949 113.45,320.6201633297186 112.60000000000001,320.658215895436 111.75,320.6962418336781 110.9,320.73424116307757 110.05000000000001,320.7722139022542 109.2,320.81016006981446 108.35,320.8480796843521 107.5,320.88597276444773 106.65,320.9238393286689 105.8,320.96167939557034 104.94999999999999,320.99949298369353 104.10000000000001,321.0372801115672 103.25,321.07504079770706 102.4,321.11277506061583 101.55,321.1504829187833 100.7,321.18816439068627 99.85,321.2258194947889 99.0,321.2634482495418 98.15,321.3010506733834 97.30000000000001,321.33862678473866 96.44999999999999,321.37617660202 95.6,321.4137001436268 94.75,321.45119742794566 93.9,321.48866847335006 93.05,321.5261132982011 92.2,321.56353192084646 91.35,321.60092435962144 90.5,321.6382906328483 89.64999999999999,321.67563075883646 88.80000000000001,321.7129447558827 87.95,321.7502326422707 87.1,321.7874944362717 86.25,321.8247301561439 85.4,321.8619398201328 84.55,321.89912344647115 83.7,321.93628105337893 82.85000000000001,321.9734126590634 82.0,322.01051828171893 81.15,322.04759793952746 80.3,322.08465165065786 79.45,322.12167943326654 78.60000000000001,322.15868130549705 77.75,322.19565728548037 76.9,322.2326073913347 76.05000000000001,322.26953164116554 75.19999999999999,322.3064300530659 74.35,322.3433026451159 73.5,322.38014943538315 72.64999999999999,322.41697044192256 71.8,322.4537656827764 70.95,322.49053517597446 70.1,322.52727893953363 69.25,322.56399699145845 68.39999999999999,322.6006893497408 67.55000000000001,322.6373560323599 66.69999999999999,322.6739970572823 65.85,322.71061244246226 65.0,322.74720220584123" style="fill:rgb(40%,76.1%,64.7%);fill-opacity:1.0;opacity:0.33;stroke:none" /></g><g class="toyplot-mark-Plot" style="fill:none;stroke:rgb(0%,0%,0%);stroke-dasharray:4,2;stroke-opacity:1.0;stroke-width:2" id="ta0b7c31912de4046a28614c0ddb12878"><g class="toyplot-Series"><path d="M 65.0 435.0 L 65.0 322.74720220584123" style="stroke:rgb(0%,0%,0%);stroke-dasharray:4,2;stroke-opacity:1.0;stroke-width:2" /></g></g><g class="toyplot-mark-Plot" style="fill:none;stroke:rgb(0%,0%,0%);stroke-dasharray:4,2;stroke-opacity:1.0;stroke-width:2" id="t3b89e6d203374542b23924ec46943482"><g class="toyplot-Series"><path d="M 113.57142857142857 435.0 L 113.57142857142857 320.6147250741433" style="stroke:rgb(0%,0%,0%);stroke-dasharray:4,2;stroke-opacity:1.0;stroke-width:2" /></g></g><g class="toyplot-mark-Plot" style="fill:none;stroke:rgb(0%,0%,0%);stroke-dasharray:4,2;stroke-opacity:1.0;stroke-width:2" id="tf1a39315d6964b8ba53008dadb5863d7"><g class="toyplot-Series"><path d="M 162.14285714285714 435.0 L 162.14285714285714 318.4884584207156" style="stroke:rgb(0%,0%,0%);stroke-dasharray:4,2;stroke-opacity:1.0;stroke-width:2" /></g></g><g class="toyplot-mark-Plot" style="fill:none;stroke:rgb(0%,0%,0%);stroke-dasharray:4,2;stroke-opacity:1.0;stroke-width:2" id="t7a37621d51574424bc2fd189af2d4f0a"><g class="toyplot-Series"><path d="M 210.7142857142857 435.0 L 210.7142857142857 316.1821786580597" style="stroke:rgb(0%,0%,0%);stroke-dasharray:4,2;stroke-opacity:1.0;stroke-width:2" /></g></g><g class="toyplot-mark-Plot" style="fill:none;stroke:rgb(0%,0%,0%);stroke-dasharray:4,2;stroke-opacity:1.0;stroke-width:2" id="te361a7f8947d49e69b94f190f9d7de78"><g class="toyplot-Series"><path d="M 235.0 435.0 L 235.0 315.0" style="stroke:rgb(0%,0%,0%);stroke-dasharray:4,2;stroke-opacity:1.0;stroke-width:2" /></g></g></g><g class="toyplot-coordinates-Axis" id="te00e8c2c0c234d81854d33d910a1c59d" transform="translate(65.0,435.0)translate(0,10.0)"><line x1="0" y1="0" x2="170.0" y2="0" style="stroke-width:1.5" /><g><line x1="0.0" y1="7.5" x2="0.0" y2="0" style="stroke-width:1.5" /><line x1="48.57142857142857" y1="7.5" x2="48.57142857142857" y2="0" style="stroke-width:1.5" /><line x1="97.14285714285714" y1="7.5" x2="97.14285714285714" y2="0" style="stroke-width:1.5" /><line x1="145.7142857142857" y1="7.5" x2="145.7142857142857" y2="0" style="stroke-width:1.5" /><line x1="170.0" y1="7.5" x2="170.0" y2="0" style="stroke-width:1.5" /></g><g><g transform="translate(0.0,15.0)"><text x="-16.68" y="8.555" style="fill:rgb(16.1%,15.3%,14.1%);fill-opacity:1.0;font-family:helvetica;font-size:10.0px;font-weight:normal;stroke:none;vertical-align:baseline;white-space:pre">100000</text></g><g transform="translate(48.57142857142857,15.0)"><text x="-16.68" y="8.555" style="fill:rgb(16.1%,15.3%,14.1%);fill-opacity:1.0;font-family:helvetica;font-size:10.0px;font-weight:normal;stroke:none;vertical-align:baseline;white-space:pre">200000</text></g><g transform="translate(97.14285714285714,15.0)"><text x="-16.68" y="8.555" style="fill:rgb(16.1%,15.3%,14.1%);fill-opacity:1.0;font-family:helvetica;font-size:10.0px;font-weight:normal;stroke:none;vertical-align:baseline;white-space:pre">300000</text></g><g transform="translate(145.7142857142857,15.0)"><text x="-16.68" y="8.555" style="fill:rgb(16.1%,15.3%,14.1%);fill-opacity:1.0;font-family:helvetica;font-size:10.0px;font-weight:normal;stroke:none;vertical-align:baseline;white-space:pre">400000</text></g><g transform="translate(170.0,15.0)"><text x="-16.68" y="8.555" style="fill:rgb(16.1%,15.3%,14.1%);fill-opacity:1.0;font-family:helvetica;font-size:10.0px;font-weight:normal;stroke:none;vertical-align:baseline;white-space:pre">450000</text></g></g><g transform="translate(85.0,35.0)"><text x="-100.02000000000002" y="10.265999999999998" style="fill:rgb(16.1%,15.3%,14.1%);fill-opacity:1.0;font-family:helvetica;font-size:12.0px;font-weight:bold;stroke:none;vertical-align:baseline;white-space:pre">Time of recombination on branch 7</text></g><g class="toyplot-coordinates-Axis-coordinates" style="visibility:hidden" transform=""><line x1="0" x2="0" y1="-7.5" y2="11.25" style="stroke:rgb(43.9%,50.2%,56.5%);stroke-opacity:1.0;stroke-width:1.0" /><text x="0" y="-15.0" style="alignment-baseline:alphabetic;fill:rgb(43.9%,50.2%,56.5%);fill-opacity:1.0;font-size:10px;font-weight:normal;stroke:none;text-anchor:middle" /></g></g><g class="toyplot-coordinates-Axis" id="tfdfad41f31a7405293625dffa3616a63" transform="translate(65.0,435.0)rotate(-90.0)translate(0,-10.0)"><line x1="0" y1="0" x2="120.0" y2="0" style="stroke-width:1.5" /><g><line x1="0.0" y1="-7.5" x2="0.0" y2="0" style="stroke-width:1.5" /><line x1="60.0" y1="-7.5" x2="60.0" y2="0" style="stroke-width:1.5" /><line x1="120.0" y1="-7.5" x2="120.0" y2="0" style="stroke-width:1.5" /></g><g><g transform="translate(0.0,-15.0)"><text x="-6.95" y="-4.440892098500626e-16" style="fill:rgb(16.1%,15.3%,14.1%);fill-opacity:1.0;font-family:helvetica;font-size:10.0px;font-weight:normal;stroke:none;vertical-align:baseline;white-space:pre">0.0</text></g><g transform="translate(60.0,-15.0)"><text x="-6.95" y="-4.440892098500626e-16" style="fill:rgb(16.1%,15.3%,14.1%);fill-opacity:1.0;font-family:helvetica;font-size:10.0px;font-weight:normal;stroke:none;vertical-align:baseline;white-space:pre">0.5</text></g><g transform="translate(120.0,-15.0)"><text x="-6.95" y="-4.440892098500626e-16" style="fill:rgb(16.1%,15.3%,14.1%);fill-opacity:1.0;font-family:helvetica;font-size:10.0px;font-weight:normal;stroke:none;vertical-align:baseline;white-space:pre">1.0</text></g></g><g transform="translate(60.0,-35.0)"><text x="-31.008" y="0.0" style="fill:rgb(16.1%,15.3%,14.1%);fill-opacity:1.0;font-family:helvetica;font-size:12.0px;font-weight:bold;stroke:none;vertical-align:baseline;white-space:pre">Probability</text></g><g class="toyplot-coordinates-Axis-coordinates" style="visibility:hidden" transform=""><line x1="0" x2="0" y1="7.5" y2="-11.25" style="stroke:rgb(43.9%,50.2%,56.5%);stroke-opacity:1.0;stroke-width:1.0" /><text x="0" y="15.0" style="alignment-baseline:hanging;fill:rgb(43.9%,50.2%,56.5%);fill-opacity:1.0;font-size:10px;font-weight:normal;stroke:none;text-anchor:middle" /></g></g><g transform="translate(150.0,295.0)"><text x="-60.284" y="-4.823" style="fill:rgb(16.1%,15.3%,14.1%);fill-opacity:1.0;font-family:helvetica;font-size:14.0px;font-weight:bold;stroke:none;vertical-align:baseline;white-space:pre">Prob(tree-change)</text></g></g><g class="toyplot-coordinates-Cartesian" id="t33c7c68d19f346568bdbcfd5b3ebaf86"><clipPath id="t627d5096e50d491db952d814f8782a17"><rect x="55.0" y="555.0" width="190.0" height="140.0" /></clipPath><g clip-path="url(#t627d5096e50d491db952d814f8782a17)"><g class="toyplot-mark-Plot" style="fill:none" id="t70e4b45c40bd4640b83cdc2676a59c33"><g class="toyplot-Series"><path d="M 65.0 582.4849963535336 L 65.85 582.4552254323744 L 66.69999999999999 582.4254336642747 L 67.55000000000001 582.3956210346366 L 68.39999999999999 582.365787528852 L 69.25 582.3359331323024 L 70.1 582.3060578303594 L 70.95 582.2761616083836 L 71.8 582.2462444517264 L 72.64999999999999 582.2163063457278 L 73.5 582.1863472757187 L 74.35 582.1563672270189 L 75.19999999999999 582.1263661849381 L 76.05000000000001 582.0963441347759 L 76.9 582.0663010618215 L 77.75 582.0362369513537 L 78.60000000000001 582.0061517886412 L 79.45 581.9760455589421 L 80.3 581.9459182475047 L 81.15 581.9157698395661 L 82.0 581.885600320354 L 82.85000000000001 581.8554096750852 L 83.7 581.8251978889663 L 84.55 581.7949649471934 L 85.4 581.7647108349526 L 86.25 581.7344355374191 L 87.1 581.7041390397583 L 87.95 581.6738213271246 L 88.80000000000001 581.6434823846627 L 89.64999999999999 581.6131221975061 L 90.5 581.5827407507786 L 91.35 581.5523380295931 L 92.2 581.5219140190525 L 93.05 581.4914687042487 L 93.9 581.4610020702639 L 94.75 581.4305141021692 L 95.6 581.4000047850255 L 96.44999999999999 581.3694741038834 L 97.30000000000001 581.3389220437825 L 98.15 581.3083485897528 L 99.0 581.2777537268128 L 99.85 581.2471374399713 L 100.7 581.2164997142263 L 101.55 581.1858405345654 L 102.4 581.1551598859653 L 103.25 581.1244577533928 L 104.10000000000001 581.0937341218037 L 104.94999999999999 581.0629889761433 L 105.8 581.0322223013468 L 106.65 581.0014340823382 L 107.5 580.9706243040315 L 108.35 580.9397929513299 L 109.2 580.9089400091258 L 110.05000000000001 580.8780654623016 L 110.9 580.8471692957285 L 111.75 580.8162514942675 L 112.60000000000001 580.7853120427687 L 113.45 580.7543509260721 L 114.29999999999998 580.7280912492281 L 115.15 580.7025923604658 L 116.0 580.6770666838092 L 116.85 580.6515141911162 L 117.69999999999999 580.6259348542152 L 118.55000000000001 580.6003286449047 L 119.4 580.5746955349542 L 120.25 580.549035496103 L 121.1 580.523348500061 L 121.95000000000002 580.4976345185082 L 122.8 580.471893523095 L 123.64999999999999 580.446125485442 L 124.5 580.4203303771397 L 125.35 580.3945081697493 L 126.19999999999999 580.3686588348015 L 127.04999999999998 580.3427823437977 L 127.9 580.3168786682089 L 128.75 580.2909477794764 L 129.6 580.2649896490112 L 130.45000000000002 580.2390042481946 L 131.3 580.2129915483778 L 132.15 580.1869515208816 L 133.0 580.1608841369969 L 133.85000000000002 580.1347893679845 L 134.7 580.1086671850749 L 135.54999999999998 580.0825175594682 L 136.4 580.0563404623347 L 137.25 580.0301358648139 L 138.1 580.0039037380155 L 138.95 579.9776440530185 L 139.8 579.9513567808714 L 140.65 579.9250418925926 L 141.5 579.89869935917 L 142.35 579.872329151561 L 143.20000000000002 579.8459312406922 L 144.05 579.8195055974601 L 144.89999999999998 579.7930521927303 L 145.75 579.766570997338 L 146.6 579.7400619820877 L 147.45 579.7135251177532 L 148.29999999999998 579.6869603750777 L 149.15 579.6603677247732 L 150.0 579.6337471375217 L 150.85 579.6070985839738 L 151.70000000000002 579.5804220347496 L 152.55 579.5537174604381 L 153.4 579.5269848315975 L 154.25 579.5002241187549 L 155.10000000000002 579.4734352924071 L 155.95000000000002 579.446618323019 L 156.8 579.419773181025 L 157.65 579.3928998368284 L 158.5 579.3659982608012 L 159.35000000000002 579.3390684232845 L 160.20000000000002 579.3121102945881 L 161.04999999999998 579.2851238449908 L 161.89999999999998 579.2581090447399 L 162.75 579.1974972907067 L 163.6 579.1234096111475 L 164.45 579.0492700520571 L 165.3 578.9750785771067 L 166.14999999999998 578.9008351499428 L 167.0 578.826539734186 L 167.85 578.7521922934314 L 168.7 578.6777927912492 L 169.55 578.6033411911831 L 170.39999999999998 578.5288374567522 L 171.25 578.4542815514493 L 172.10000000000002 578.3796734387424 L 172.95 578.3050130820733 L 173.8 578.2303004448585 L 174.65 578.1555354904888 L 175.5 578.0807181823293 L 176.35000000000002 578.0058484837197 L 177.2 577.9309263579735 L 178.05 577.8559517683792 L 178.9 577.7809246781991 L 179.75 577.70584505067 L 180.60000000000002 577.6307128490027 L 181.45000000000002 577.5555280363826 L 182.29999999999998 577.4802905759692 L 183.14999999999998 577.4050004308959 L 184.0 577.3296575642707 L 184.85 577.2542619391756 L 185.7 577.1788135186666 L 186.55 577.1033122657742 L 187.39999999999998 577.0277581435025 L 188.25 576.9521511148303 L 189.1 576.8764911427098 L 189.95 576.800778190068 L 190.8 576.7250122198052 L 191.64999999999998 576.6491931947962 L 192.5 576.5733210778898 L 193.35000000000002 576.4973958319085 L 194.2 576.4214174196491 L 195.05 576.3453858038819 L 195.9 576.2693009473516 L 196.75 576.1931628127766 L 197.60000000000002 576.1169713628492 L 198.45 576.0407265602356 L 199.3 575.9644283675758 L 200.15 575.8880767474839 L 201.0 575.8116716625473 L 201.85000000000002 575.7352130753276 L 202.70000000000002 575.6587009483601 L 203.54999999999998 575.582135244154 L 204.39999999999998 575.5055159251917 L 205.25 575.4288429539303 L 206.1 575.3521162927997 L 206.95 575.2753359042038 L 207.8 575.1985017505203 L 208.64999999999998 575.1216137941005 L 209.5 575.0446719972693 L 210.35 574.9676763223252 L 211.2 574.8926098559925 L 212.05 574.8189584361126 L 212.89999999999998 574.7452296416271 L 213.75 574.6714233912503 L 214.60000000000002 574.5975396036107 L 215.45 574.5235781972514 L 216.3 574.4495390906299 L 217.15 574.3754222021181 L 218.0 574.301227450002 L 218.85000000000002 574.2269547524821 L 219.7 574.1526040276727 L 220.55 574.0781751936021 L 221.4 574.0036681682124 L 222.25 573.9290828693596 L 223.10000000000002 573.8544192148136 L 223.95000000000002 573.7796771222575 L 224.79999999999998 573.7048565092881 L 225.65 573.6299572934159 L 226.5 573.5549793920643 L 227.35 573.4799227225703 L 228.2 573.4047872021839 L 229.05 573.3295727480682 L 229.89999999999998 573.254279277299 L 230.75 573.1789067068656 L 231.6 573.1034549536695 L 232.45 573.0279239345252 L 233.3 572.9523135661599 L 234.14999999999998 572.8766237652128" style="stroke:rgb(40%,76.1%,64.7%);stroke-opacity:1.0;stroke-width:5.0" /></g></g><g class="toyplot-mark-FillBoundaries" style="stroke:none" id="t93d012cdda0f4ab29a3b17f97dcf9de7"><polygon points="65.0,685.0 65.85,685.0 66.69999999999999,685.0 67.55000000000001,685.0 68.39999999999999,685.0 69.25,685.0 70.1,685.0 70.95,685.0 71.8,685.0 72.64999999999999,685.0 73.5,685.0 74.35,685.0 75.19999999999999,685.0 76.05000000000001,685.0 76.9,685.0 77.75,685.0 78.60000000000001,685.0 79.45,685.0 80.3,685.0 81.15,685.0 82.0,685.0 82.85000000000001,685.0 83.7,685.0 84.55,685.0 85.4,685.0 86.25,685.0 87.1,685.0 87.95,685.0 88.80000000000001,685.0 89.64999999999999,685.0 90.5,685.0 91.35,685.0 92.2,685.0 93.05,685.0 93.9,685.0 94.75,685.0 95.6,685.0 96.44999999999999,685.0 97.30000000000001,685.0 98.15,685.0 99.0,685.0 99.85,685.0 100.7,685.0 101.55,685.0 102.4,685.0 103.25,685.0 104.10000000000001,685.0 104.94999999999999,685.0 105.8,685.0 106.65,685.0 107.5,685.0 108.35,685.0 109.2,685.0 110.05000000000001,685.0 110.9,685.0 111.75,685.0 112.60000000000001,685.0 113.45,685.0 114.29999999999998,685.0 115.15,685.0 116.0,685.0 116.85,685.0 117.69999999999999,685.0 118.55000000000001,685.0 119.4,685.0 120.25,685.0 121.1,685.0 121.95000000000002,685.0 122.8,685.0 123.64999999999999,685.0 124.5,685.0 125.35,685.0 126.19999999999999,685.0 127.04999999999998,685.0 127.9,685.0 128.75,685.0 129.6,685.0 130.45000000000002,685.0 131.3,685.0 132.15,685.0 133.0,685.0 133.85000000000002,685.0 134.7,685.0 135.54999999999998,685.0 136.4,685.0 137.25,685.0 138.1,685.0 138.95,685.0 139.8,685.0 140.65,685.0 141.5,685.0 142.35,685.0 143.20000000000002,685.0 144.05,685.0 144.89999999999998,685.0 145.75,685.0 146.6,685.0 147.45,685.0 148.29999999999998,685.0 149.15,685.0 150.0,685.0 150.85,685.0 151.70000000000002,685.0 152.55,685.0 153.4,685.0 154.25,685.0 155.10000000000002,685.0 155.95000000000002,685.0 156.8,685.0 157.65,685.0 158.5,685.0 159.35000000000002,685.0 160.20000000000002,685.0 161.04999999999998,685.0 161.89999999999998,685.0 162.75,685.0 163.6,685.0 164.45,685.0 165.3,685.0 166.14999999999998,685.0 167.0,685.0 167.85,685.0 168.7,685.0 169.55,685.0 170.39999999999998,685.0 171.25,685.0 172.10000000000002,685.0 172.95,685.0 173.8,685.0 174.65,685.0 175.5,685.0 176.35000000000002,685.0 177.2,685.0 178.05,685.0 178.9,685.0 179.75,685.0 180.60000000000002,685.0 181.45000000000002,685.0 182.29999999999998,685.0 183.14999999999998,685.0 184.0,685.0 184.85,685.0 185.7,685.0 186.55,685.0 187.39999999999998,685.0 188.25,685.0 189.1,685.0 189.95,685.0 190.8,685.0 191.64999999999998,685.0 192.5,685.0 193.35000000000002,685.0 194.2,685.0 195.05,685.0 195.9,685.0 196.75,685.0 197.60000000000002,685.0 198.45,685.0 199.3,685.0 200.15,685.0 201.0,685.0 201.85000000000002,685.0 202.70000000000002,685.0 203.54999999999998,685.0 204.39999999999998,685.0 205.25,685.0 206.1,685.0 206.95,685.0 207.8,685.0 208.64999999999998,685.0 209.5,685.0 210.35,685.0 211.2,685.0 212.05,685.0 212.89999999999998,685.0 213.75,685.0 214.60000000000002,685.0 215.45,685.0 216.3,685.0 217.15,685.0 218.0,685.0 218.85000000000002,685.0 219.7,685.0 220.55,685.0 221.4,685.0 222.25,685.0 223.10000000000002,685.0 223.95000000000002,685.0 224.79999999999998,685.0 225.65,685.0 226.5,685.0 227.35,685.0 228.2,685.0 229.05,685.0 229.89999999999998,685.0 230.75,685.0 231.6,685.0 232.45,685.0 233.3,685.0 234.14999999999998,685.0 234.14999999999998,572.8766237652128 233.3,572.9523135661599 232.45,573.0279239345252 231.6,573.1034549536695 230.75,573.1789067068656 229.89999999999998,573.254279277299 229.05,573.3295727480682 228.2,573.4047872021839 227.35,573.4799227225703 226.5,573.5549793920643 225.65,573.6299572934159 224.79999999999998,573.7048565092881 223.95000000000002,573.7796771222575 223.10000000000002,573.8544192148136 222.25,573.9290828693596 221.4,574.0036681682124 220.55,574.0781751936021 219.7,574.1526040276727 218.85000000000002,574.2269547524821 218.0,574.301227450002 217.15,574.3754222021181 216.3,574.4495390906299 215.45,574.5235781972514 214.60000000000002,574.5975396036107 213.75,574.6714233912503 212.89999999999998,574.7452296416271 212.05,574.8189584361126 211.2,574.8926098559925 210.35,574.9676763223252 209.5,575.0446719972693 208.64999999999998,575.1216137941005 207.8,575.1985017505203 206.95,575.2753359042038 206.1,575.3521162927997 205.25,575.4288429539303 204.39999999999998,575.5055159251917 203.54999999999998,575.582135244154 202.70000000000002,575.6587009483601 201.85000000000002,575.7352130753276 201.0,575.8116716625473 200.15,575.8880767474839 199.3,575.9644283675758 198.45,576.0407265602356 197.60000000000002,576.1169713628492 196.75,576.1931628127766 195.9,576.2693009473516 195.05,576.3453858038819 194.2,576.4214174196491 193.35000000000002,576.4973958319085 192.5,576.5733210778898 191.64999999999998,576.6491931947962 190.8,576.7250122198052 189.95,576.800778190068 189.1,576.8764911427098 188.25,576.9521511148303 187.39999999999998,577.0277581435025 186.55,577.1033122657742 185.7,577.1788135186666 184.85,577.2542619391756 184.0,577.3296575642707 183.14999999999998,577.4050004308959 182.29999999999998,577.4802905759692 181.45000000000002,577.5555280363826 180.60000000000002,577.6307128490027 179.75,577.70584505067 178.9,577.7809246781991 178.05,577.8559517683792 177.2,577.9309263579735 176.35000000000002,578.0058484837197 175.5,578.0807181823293 174.65,578.1555354904888 173.8,578.2303004448585 172.95,578.3050130820733 172.10000000000002,578.3796734387424 171.25,578.4542815514493 170.39999999999998,578.5288374567522 169.55,578.6033411911831 168.7,578.6777927912492 167.85,578.7521922934314 167.0,578.826539734186 166.14999999999998,578.9008351499428 165.3,578.9750785771067 164.45,579.0492700520571 163.6,579.1234096111475 162.75,579.1974972907067 161.89999999999998,579.2581090447399 161.04999999999998,579.2851238449908 160.20000000000002,579.3121102945881 159.35000000000002,579.3390684232845 158.5,579.3659982608012 157.65,579.3928998368284 156.8,579.419773181025 155.95000000000002,579.446618323019 155.10000000000002,579.4734352924071 154.25,579.5002241187549 153.4,579.5269848315975 152.55,579.5537174604381 151.70000000000002,579.5804220347496 150.85,579.6070985839738 150.0,579.6337471375217 149.15,579.6603677247732 148.29999999999998,579.6869603750777 147.45,579.7135251177532 146.6,579.7400619820877 145.75,579.766570997338 144.89999999999998,579.7930521927303 144.05,579.8195055974601 143.20000000000002,579.8459312406922 142.35,579.872329151561 141.5,579.89869935917 140.65,579.9250418925926 139.8,579.9513567808714 138.95,579.9776440530185 138.1,580.0039037380155 137.25,580.0301358648139 136.4,580.0563404623347 135.54999999999998,580.0825175594682 134.7,580.1086671850749 133.85000000000002,580.1347893679845 133.0,580.1608841369969 132.15,580.1869515208816 131.3,580.2129915483778 130.45000000000002,580.2390042481946 129.6,580.2649896490112 128.75,580.2909477794764 127.9,580.3168786682089 127.04999999999998,580.3427823437977 126.19999999999999,580.3686588348015 125.35,580.3945081697493 124.5,580.4203303771397 123.64999999999999,580.446125485442 122.8,580.471893523095 121.95000000000002,580.4976345185082 121.1,580.523348500061 120.25,580.549035496103 119.4,580.5746955349542 118.55000000000001,580.6003286449047 117.69999999999999,580.6259348542152 116.85,580.6515141911162 116.0,580.6770666838092 115.15,580.7025923604658 114.29999999999998,580.7280912492281 113.45,580.7543509260721 112.60000000000001,580.7853120427687 111.75,580.8162514942675 110.9,580.8471692957285 110.05000000000001,580.8780654623016 109.2,580.9089400091258 108.35,580.9397929513299 107.5,580.9706243040315 106.65,581.0014340823382 105.8,581.0322223013468 104.94999999999999,581.0629889761433 104.10000000000001,581.0937341218037 103.25,581.1244577533928 102.4,581.1551598859653 101.55,581.1858405345654 100.7,581.2164997142263 99.85,581.2471374399713 99.0,581.2777537268128 98.15,581.3083485897528 97.30000000000001,581.3389220437825 96.44999999999999,581.3694741038834 95.6,581.4000047850255 94.75,581.4305141021692 93.9,581.4610020702639 93.05,581.4914687042487 92.2,581.5219140190525 91.35,581.5523380295931 90.5,581.5827407507786 89.64999999999999,581.6131221975061 88.80000000000001,581.6434823846627 87.95,581.6738213271246 87.1,581.7041390397583 86.25,581.7344355374191 85.4,581.7647108349526 84.55,581.7949649471934 83.7,581.8251978889663 82.85000000000001,581.8554096750852 82.0,581.885600320354 81.15,581.9157698395661 80.3,581.9459182475047 79.45,581.9760455589421 78.60000000000001,582.0061517886412 77.75,582.0362369513537 76.9,582.0663010618215 76.05000000000001,582.0963441347759 75.19999999999999,582.1263661849381 74.35,582.1563672270189 73.5,582.1863472757187 72.64999999999999,582.2163063457278 71.8,582.2462444517264 70.95,582.2761616083836 70.1,582.3060578303594 69.25,582.3359331323024 68.39999999999999,582.365787528852 67.55000000000001,582.3956210346366 66.69999999999999,582.4254336642747 65.85,582.4552254323744 65.0,582.4849963535336" style="fill:rgb(40%,76.1%,64.7%);fill-opacity:1.0;opacity:0.33;stroke:none" /></g><g class="toyplot-mark-Plot" style="fill:none;stroke:rgb(0%,0%,0%);stroke-dasharray:4,2;stroke-opacity:1.0;stroke-width:2" id="td653ad21be8845eab65f11838fb38236"><g class="toyplot-Series"><path d="M 65.0 685.0 L 65.0 582.4849963535336" style="stroke:rgb(0%,0%,0%);stroke-dasharray:4,2;stroke-opacity:1.0;stroke-width:2" /></g></g><g class="toyplot-mark-Plot" style="fill:none;stroke:rgb(0%,0%,0%);stroke-dasharray:4,2;stroke-opacity:1.0;stroke-width:2" id="t5a4c5bff8d514a5faf7c989ce1c67e50"><g class="toyplot-Series"><path d="M 113.57142857142857 685.0 L 113.57142857142857 580.7499261399291" style="stroke:rgb(0%,0%,0%);stroke-dasharray:4,2;stroke-opacity:1.0;stroke-width:2" /></g></g><g class="toyplot-mark-Plot" style="fill:none;stroke:rgb(0%,0%,0%);stroke-dasharray:4,2;stroke-opacity:1.0;stroke-width:2" id="t1eb0cab021ce465baead1255ff73da97"><g class="toyplot-Series"><path d="M 162.14285714285714 685.0 L 162.14285714285714 579.2503853189525" style="stroke:rgb(0%,0%,0%);stroke-dasharray:4,2;stroke-opacity:1.0;stroke-width:2" /></g></g><g class="toyplot-mark-Plot" style="fill:none;stroke:rgb(0%,0%,0%);stroke-dasharray:4,2;stroke-opacity:1.0;stroke-width:2" id="t17b6b6c99cce4547abc552bb4110c159"><g class="toyplot-Series"><path d="M 210.7142857142857 685.0 L 210.7142857142857 574.9346616732721" style="stroke:rgb(0%,0%,0%);stroke-dasharray:4,2;stroke-opacity:1.0;stroke-width:2" /></g></g><g class="toyplot-mark-Plot" style="fill:none;stroke:rgb(0%,0%,0%);stroke-dasharray:4,2;stroke-opacity:1.0;stroke-width:2" id="t608743db0b9249a2ae000235deeede4d"><g class="toyplot-Series"><path d="M 235.0 685.0 L 235.0 572.8008544482361" style="stroke:rgb(0%,0%,0%);stroke-dasharray:4,2;stroke-opacity:1.0;stroke-width:2" /></g></g></g><g class="toyplot-coordinates-Axis" id="t4a268214ef0745aab960472e5a19cb4e" transform="translate(65.0,685.0)translate(0,10.0)"><line x1="0" y1="0" x2="170.0" y2="0" style="stroke-width:1.5" /><g><line x1="0.0" y1="7.5" x2="0.0" y2="0" style="stroke-width:1.5" /><line x1="48.57142857142857" y1="7.5" x2="48.57142857142857" y2="0" style="stroke-width:1.5" /><line x1="97.14285714285714" y1="7.5" x2="97.14285714285714" y2="0" style="stroke-width:1.5" /><line x1="145.7142857142857" y1="7.5" x2="145.7142857142857" y2="0" style="stroke-width:1.5" /><line x1="170.0" y1="7.5" x2="170.0" y2="0" style="stroke-width:1.5" /></g><g><g transform="translate(0.0,15.0)"><text x="-16.68" y="8.555" style="fill:rgb(16.1%,15.3%,14.1%);fill-opacity:1.0;font-family:helvetica;font-size:10.0px;font-weight:normal;stroke:none;vertical-align:baseline;white-space:pre">100000</text></g><g transform="translate(48.57142857142857,15.0)"><text x="-16.68" y="8.555" style="fill:rgb(16.1%,15.3%,14.1%);fill-opacity:1.0;font-family:helvetica;font-size:10.0px;font-weight:normal;stroke:none;vertical-align:baseline;white-space:pre">200000</text></g><g transform="translate(97.14285714285714,15.0)"><text x="-16.68" y="8.555" style="fill:rgb(16.1%,15.3%,14.1%);fill-opacity:1.0;font-family:helvetica;font-size:10.0px;font-weight:normal;stroke:none;vertical-align:baseline;white-space:pre">300000</text></g><g transform="translate(145.7142857142857,15.0)"><text x="-16.68" y="8.555" style="fill:rgb(16.1%,15.3%,14.1%);fill-opacity:1.0;font-family:helvetica;font-size:10.0px;font-weight:normal;stroke:none;vertical-align:baseline;white-space:pre">400000</text></g><g transform="translate(170.0,15.0)"><text x="-16.68" y="8.555" style="fill:rgb(16.1%,15.3%,14.1%);fill-opacity:1.0;font-family:helvetica;font-size:10.0px;font-weight:normal;stroke:none;vertical-align:baseline;white-space:pre">450000</text></g></g><g transform="translate(85.0,35.0)"><text x="-100.02000000000002" y="10.265999999999998" style="fill:rgb(16.1%,15.3%,14.1%);fill-opacity:1.0;font-family:helvetica;font-size:12.0px;font-weight:bold;stroke:none;vertical-align:baseline;white-space:pre">Time of recombination on branch 7</text></g><g class="toyplot-coordinates-Axis-coordinates" style="visibility:hidden" transform=""><line x1="0" x2="0" y1="-7.5" y2="11.25" style="stroke:rgb(43.9%,50.2%,56.5%);stroke-opacity:1.0;stroke-width:1.0" /><text x="0" y="-15.0" style="alignment-baseline:alphabetic;fill:rgb(43.9%,50.2%,56.5%);fill-opacity:1.0;font-size:10px;font-weight:normal;stroke:none;text-anchor:middle" /></g></g><g class="toyplot-coordinates-Axis" id="te4ffe6b18219439fb1416ace58b8eedf" transform="translate(65.0,685.0)rotate(-90.0)translate(0,-10.0)"><line x1="0" y1="0" x2="120.0" y2="0" style="stroke-width:1.5" /><g><line x1="0.0" y1="-7.5" x2="0.0" y2="0" style="stroke-width:1.5" /><line x1="60.0" y1="-7.5" x2="60.0" y2="0" style="stroke-width:1.5" /><line x1="120.0" y1="-7.5" x2="120.0" y2="0" style="stroke-width:1.5" /></g><g><g transform="translate(0.0,-15.0)"><text x="-6.95" y="-4.440892098500626e-16" style="fill:rgb(16.1%,15.3%,14.1%);fill-opacity:1.0;font-family:helvetica;font-size:10.0px;font-weight:normal;stroke:none;vertical-align:baseline;white-space:pre">0.0</text></g><g transform="translate(60.0,-15.0)"><text x="-6.95" y="-4.440892098500626e-16" style="fill:rgb(16.1%,15.3%,14.1%);fill-opacity:1.0;font-family:helvetica;font-size:10.0px;font-weight:normal;stroke:none;vertical-align:baseline;white-space:pre">0.5</text></g><g transform="translate(120.0,-15.0)"><text x="-6.95" y="-4.440892098500626e-16" style="fill:rgb(16.1%,15.3%,14.1%);fill-opacity:1.0;font-family:helvetica;font-size:10.0px;font-weight:normal;stroke:none;vertical-align:baseline;white-space:pre">1.0</text></g></g><g transform="translate(60.0,-35.0)"><text x="-31.008" y="0.0" style="fill:rgb(16.1%,15.3%,14.1%);fill-opacity:1.0;font-family:helvetica;font-size:12.0px;font-weight:bold;stroke:none;vertical-align:baseline;white-space:pre">Probability</text></g><g class="toyplot-coordinates-Axis-coordinates" style="visibility:hidden" transform=""><line x1="0" x2="0" y1="7.5" y2="-11.25" style="stroke:rgb(43.9%,50.2%,56.5%);stroke-opacity:1.0;stroke-width:1.0" /><text x="0" y="15.0" style="alignment-baseline:hanging;fill:rgb(43.9%,50.2%,56.5%);fill-opacity:1.0;font-size:10px;font-weight:normal;stroke:none;text-anchor:middle" /></g></g><g transform="translate(150.0,545.0)"><text x="-62.608000000000004" y="-4.823" style="fill:rgb(16.1%,15.3%,14.1%);fill-opacity:1.0;font-family:helvetica;font-size:14.0px;font-weight:bold;stroke:none;vertical-align:baseline;white-space:pre">Prob(topo-change)</text></g></g></svg>