<svg class="toyplot-canvas-Canvas" xmlns:toyplot="http://www.sandia.gov/toyplot" xmlns:xlink="http://www.w3.org/1999/xlink" xmlns="http://www.w3.org/2000/svg" width="350.0px" height="300.0px" viewBox="0 0 350.0 300.0" preserveAspectRatio="xMidYMid meet" style="background-color:transparent;border-color:#292724;border-style:none;border-width:1.0;fill:rgb(16.1%,15.3%,14.1%);fill-opacity:1.0;font-family:Helvetica;font-size:12px;opacity:1.0;stroke:rgb(16.1%,15.3%,14.1%);stroke-opacity:1.0;stroke-width:1.0" id="t5104139fa3894a4399da5698fa7da817"><g class="toyplot-coordinates-Cartesian" id="t7235d3d707e2438387b70884dac943ff"><clipPath id="t5bc09350eedc4a4d861ff3527d3c2056"><rect x="55.0" y="55.0" width="240.0" height="190.0" /></clipPath><g clip-path="url(#t5bc09350eedc4a4d861ff3527d3c2056)"><g class="toyplot-mark-AxisLines" style="stroke:rgb(50.2%,50.2%,50.2%);stroke-dasharray:6,6;stroke-opacity:0.7;stroke-width:2" id="tb1fd5a56d3954ebda02c8183348fefe4"><g class="toyplot-Series"><line class="toyplot-Datum" y1="150.0" y2="150.0" x1="65.0" x2="285.0" style="opacity:1.0;stroke:rgb(50.2%,50.2%,50.2%);stroke-dasharray:6,6;stroke-opacity:0.7;stroke-width:2" /></g></g><g class="toyplot-mark-FillBoundaries" style="stroke:none" id="tebd6ce5ab07d469da3a03a51e107053c"><polygon points="87.0,215.67740994807303 109.0,214.91994919241984 131.0,192.06549257992748 153.0,196.8781403738618 175.0,196.04819468404014 197.0,194.82466825097913 219.0,191.49664488341105 241.0,187.71421181526898 263.0,187.93559879494234 285.0,184.39670916533973 285.0,181.80105113711818 263.0,185.01976227773503 241.0,184.73048571120032 219.0,187.83575963210382 197.0,190.45446214082344 175.0,190.43586891009767 153.0,192.15157031504916 131.0,187.90707935532797 109.0,205.66553558333527 87.0,205.21135258788627" style="fill:rgb(40%,76.1%,64.7%);fill-opacity:1.0;opacity:0.33;stroke:none" /></g><g class="toyplot-mark-FillBoundaries" style="stroke:none" id="tdb6d65ea30834e53b18693f4e84bff61"><polygon points="87.0,169.07903304392673 109.0,164.28124014473033 131.0,154.2906034495432 153.0,148.70298383224795 175.0,152.6344338276608 197.0,151.1874164295104 219.0,151.396469474013 241.0,151.6200730083725 263.0,152.75072787018902 285.0,155.16363266635858 285.0,152.2459869042096 263.0,149.45203056207671 241.0,147.06020958967363 219.0,147.56773269046346 197.0,147.57526871481343 175.0,148.2919305969093 153.0,142.53224403031032 131.0,148.66725976252349 109.0,154.96229074541696 87.0,159.0113561054311" style="fill:rgb(0%,0%,0%);fill-opacity:1.0;opacity:0.33;stroke:none" /></g><g class="toyplot-mark-Plot" style="fill:none" id="t15afbc1f9218401081b94aae90b7a0a8"><g class="toyplot-Series"><path d="M 87.0 210.44438126797965 L 109.0 210.29274238787755 L 131.0 189.98628596762774 L 153.0 194.51485534445544 L 175.0 193.24203179706888 L 197.0 192.6395651959013 L 219.0 189.66620225775745 L 241.0 186.22234876323463 L 263.0 186.47768053633865 L 285.0 183.09888015122897" style="stroke:rgb(10.6%,62%,46.7%);stroke-opacity:0.7;stroke-width:2.0" /><g style="fill:rgb(10.6%,62%,46.7%);fill-opacity:1.0;opacity:1.0;stroke:rgb(10.6%,62%,46.7%);stroke-opacity:1.0" class="toyplot-Datum" transform="translate(87.0, 210.44438126797965)"><circle r="3.0" /></g><g style="fill:rgb(10.6%,62%,46.7%);fill-opacity:1.0;opacity:1.0;stroke:rgb(10.6%,62%,46.7%);stroke-opacity:1.0" class="toyplot-Datum" transform="translate(109.0, 210.29274238787755)"><circle r="3.0" /></g><g style="fill:rgb(10.6%,62%,46.7%);fill-opacity:1.0;opacity:1.0;stroke:rgb(10.6%,62%,46.7%);stroke-opacity:1.0" class="toyplot-Datum" transform="translate(131.0, 189.98628596762774)"><circle r="3.0" /></g><g style="fill:rgb(10.6%,62%,46.7%);fill-opacity:1.0;opacity:1.0;stroke:rgb(10.6%,62%,46.7%);stroke-opacity:1.0" class="toyplot-Datum" transform="translate(153.0, 194.51485534445544)"><circle r="3.0" /></g><g style="fill:rgb(10.6%,62%,46.7%);fill-opacity:1.0;opacity:1.0;stroke:rgb(10.6%,62%,46.7%);stroke-opacity:1.0" class="toyplot-Datum" transform="translate(175.0, 193.24203179706888)"><circle r="3.0" /></g><g style="fill:rgb(10.6%,62%,46.7%);fill-opacity:1.0;opacity:1.0;stroke:rgb(10.6%,62%,46.7%);stroke-opacity:1.0" class="toyplot-Datum" transform="translate(197.0, 192.6395651959013)"><circle r="3.0" /></g><g style="fill:rgb(10.6%,62%,46.7%);fill-opacity:1.0;opacity:1.0;stroke:rgb(10.6%,62%,46.7%);stroke-opacity:1.0" class="toyplot-Datum" transform="translate(219.0, 189.66620225775745)"><circle r="3.0" /></g><g style="fill:rgb(10.6%,62%,46.7%);fill-opacity:1.0;opacity:1.0;stroke:rgb(10.6%,62%,46.7%);stroke-opacity:1.0" class="toyplot-Datum" transform="translate(241.0, 186.22234876323463)"><circle r="3.0" /></g><g style="fill:rgb(10.6%,62%,46.7%);fill-opacity:1.0;opacity:1.0;stroke:rgb(10.6%,62%,46.7%);stroke-opacity:1.0" class="toyplot-Datum" transform="translate(263.0, 186.47768053633865)"><circle r="3.0" /></g><g style="fill:rgb(10.6%,62%,46.7%);fill-opacity:1.0;opacity:1.0;stroke:rgb(10.6%,62%,46.7%);stroke-opacity:1.0" class="toyplot-Datum" transform="translate(285.0, 183.09888015122897)"><circle r="3.0" /></g></g></g><g class="toyplot-mark-Plot" style="fill:none" id="t2b045c85cab74fe6a2f9315482a63286"><g class="toyplot-Series"><path d="M 87.0 164.0451945746789 L 109.0 159.62176544507366 L 131.0 151.47893160603334 L 153.0 145.61761393127915 L 175.0 150.46318221228506 L 197.0 149.3813425721619 L 219.0 149.48210108223822 L 241.0 149.34014129902306 L 263.0 151.10137921613287 L 285.0 153.70480978528408" style="stroke:rgb(0%,0%,0%);stroke-opacity:0.8;stroke-width:2.0" /><g style="fill:rgb(0%,0%,0%);fill-opacity:1.0;opacity:1.0;stroke:none" class="toyplot-Datum" transform="translate(87.0, 164.0451945746789)"><rect x="-3.0" y="-3.0" width="6.0" height="6.0" /></g><g style="fill:rgb(0%,0%,0%);fill-opacity:1.0;opacity:1.0;stroke:none" class="toyplot-Datum" transform="translate(109.0, 159.62176544507366)"><rect x="-3.0" y="-3.0" width="6.0" height="6.0" /></g><g style="fill:rgb(0%,0%,0%);fill-opacity:1.0;opacity:1.0;stroke:none" class="toyplot-Datum" transform="translate(131.0, 151.47893160603334)"><rect x="-3.0" y="-3.0" width="6.0" height="6.0" /></g><g style="fill:rgb(0%,0%,0%);fill-opacity:1.0;opacity:1.0;stroke:none" class="toyplot-Datum" transform="translate(153.0, 145.61761393127915)"><rect x="-3.0" y="-3.0" width="6.0" height="6.0" /></g><g style="fill:rgb(0%,0%,0%);fill-opacity:1.0;opacity:1.0;stroke:none" class="toyplot-Datum" transform="translate(175.0, 150.46318221228506)"><rect x="-3.0" y="-3.0" width="6.0" height="6.0" /></g><g style="fill:rgb(0%,0%,0%);fill-opacity:1.0;opacity:1.0;stroke:none" class="toyplot-Datum" transform="translate(197.0, 149.3813425721619)"><rect x="-3.0" y="-3.0" width="6.0" height="6.0" /></g><g style="fill:rgb(0%,0%,0%);fill-opacity:1.0;opacity:1.0;stroke:none" class="toyplot-Datum" transform="translate(219.0, 149.48210108223822)"><rect x="-3.0" y="-3.0" width="6.0" height="6.0" /></g><g style="fill:rgb(0%,0%,0%);fill-opacity:1.0;opacity:1.0;stroke:none" class="toyplot-Datum" transform="translate(241.0, 149.34014129902306)"><rect x="-3.0" y="-3.0" width="6.0" height="6.0" /></g><g style="fill:rgb(0%,0%,0%);fill-opacity:1.0;opacity:1.0;stroke:none" class="toyplot-Datum" transform="translate(263.0, 151.10137921613287)"><rect x="-3.0" y="-3.0" width="6.0" height="6.0" /></g><g style="fill:rgb(0%,0%,0%);fill-opacity:1.0;opacity:1.0;stroke:none" class="toyplot-Datum" transform="translate(285.0, 153.70480978528408)"><rect x="-3.0" y="-3.0" width="6.0" height="6.0" /></g></g></g></g><g class="toyplot-coordinates-Axis" id="te3dfd8c088f64551a98199a6cef7aed3" transform="translate(65.0,235.0)translate(0,10.0)"><line x1="0" y1="0" x2="220.0" y2="0" style="stroke-width:3" /><g><line x1="22.0" y1="7.5" x2="22.0" y2="0" style="stroke-width:3" /><line x1="88.0" y1="7.5" x2="88.0" y2="0" style="stroke-width:3" /><line x1="154.0" y1="7.5" x2="154.0" y2="0" style="stroke-width:3" /><line x1="220.0" y1="7.5" x2="220.0" y2="0" style="stroke-width:3" /></g><g><g transform="translate(22.0,12.0)"><text x="-22.24" y="13.687999999999999" style="fill:rgb(16.1%,15.3%,14.1%);fill-opacity:1.0;font-family:helvetica;font-size:16.0px;font-weight:normal;stroke:none;vertical-align:baseline;white-space:pre">50000</text></g><g transform="translate(88.0,12.0)"><text x="-26.688" y="13.687999999999999" style="fill:rgb(16.1%,15.3%,14.1%);fill-opacity:1.0;font-family:helvetica;font-size:16.0px;font-weight:normal;stroke:none;vertical-align:baseline;white-space:pre">200000</text></g><g transform="translate(154.0,12.0)"><text x="-26.688" y="13.687999999999999" style="fill:rgb(16.1%,15.3%,14.1%);fill-opacity:1.0;font-family:helvetica;font-size:16.0px;font-weight:normal;stroke:none;vertical-align:baseline;white-space:pre">350000</text></g><g transform="translate(220.0,12.0)"><text x="-26.688" y="13.687999999999999" style="fill:rgb(16.1%,15.3%,14.1%);fill-opacity:1.0;font-family:helvetica;font-size:16.0px;font-weight:normal;stroke:none;vertical-align:baseline;white-space:pre">500000</text></g></g><g transform="translate(110.0,35.0)"><text x="-42.665600000000005" y="13.687999999999999" style="fill:rgb(16.1%,15.3%,14.1%);fill-opacity:1.0;font-family:helvetica;font-size:16.0px;font-weight:bold;stroke:none;vertical-align:baseline;white-space:pre">N</text><text x="-31.113600000000005" y="15.927999999999999" style="fill:rgb(16.1%,15.3%,14.1%);fill-opacity:1.0;font-family:helvetica;font-size:11.2px;font-weight:bold;stroke:none;vertical-align:baseline;white-space:pre">e</text><text x="-24.886400000000005" y="13.687999999999999" style="fill:rgb(16.1%,15.3%,14.1%);fill-opacity:1.0;font-family:helvetica;font-size:16.0px;font-weight:bold;stroke:none;vertical-align:baseline;white-space:pre"> (diploid)</text></g><g class="toyplot-coordinates-Axis-coordinates" style="visibility:hidden" transform=""><line x1="0" x2="0" y1="-6.0" y2="9.0" style="stroke:rgb(43.9%,50.2%,56.5%);stroke-opacity:1.0;stroke-width:1.0" /><text x="0" y="-12.0" style="alignment-baseline:alphabetic;fill:rgb(43.9%,50.2%,56.5%);fill-opacity:1.0;font-size:10px;font-weight:normal;stroke:none;text-anchor:middle" /></g></g><g class="toyplot-coordinates-Axis" id="t814d1ce8580e4d3b8014e74c528ef8da" transform="translate(65.0,235.0)rotate(-90.0)translate(0,-10.0)"><line x1="0" y1="0" x2="170.0" y2="0" style="stroke-width:3" /><g><line x1="0.0" y1="-7.5" x2="0.0" y2="0" style="stroke-width:3" /><line x1="42.5" y1="-7.5" x2="42.5" y2="0" style="stroke-width:3" /><line x1="85.0" y1="-7.5" x2="85.0" y2="0" style="stroke-width:3" /><line x1="127.5" y1="-7.5" x2="127.5" y2="0" style="stroke-width:3" /><line x1="170.0" y1="-7.5" x2="170.0" y2="0" style="stroke-width:3" /></g><g><g transform="translate(0.0,-12.0)"><text x="-11.56" y="0.0" style="fill:rgb(16.1%,15.3%,14.1%);fill-opacity:1.0;font-family:helvetica;font-size:16.0px;font-weight:normal;stroke:none;vertical-align:baseline;white-space:pre">-10</text></g><g transform="translate(42.5,-12.0)"><text x="-7.111999999999999" y="0.0" style="fill:rgb(16.1%,15.3%,14.1%);fill-opacity:1.0;font-family:helvetica;font-size:16.0px;font-weight:normal;stroke:none;vertical-align:baseline;white-space:pre">-5</text></g><g transform="translate(85.0,-12.0)"><text x="-4.448" y="0.0" style="fill:rgb(16.1%,15.3%,14.1%);fill-opacity:1.0;font-family:helvetica;font-size:16.0px;font-weight:normal;stroke:none;vertical-align:baseline;white-space:pre">0</text></g><g transform="translate(127.5,-12.0)"><text x="-4.448" y="0.0" style="fill:rgb(16.1%,15.3%,14.1%);fill-opacity:1.0;font-family:helvetica;font-size:16.0px;font-weight:normal;stroke:none;vertical-align:baseline;white-space:pre">5</text></g><g transform="translate(170.0,-12.0)"><text x="-8.896" y="0.0" style="fill:rgb(16.1%,15.3%,14.1%);fill-opacity:1.0;font-family:helvetica;font-size:16.0px;font-weight:normal;stroke:none;vertical-align:baseline;white-space:pre">10</text></g></g><g transform="translate(85.0,-35.0)"><text x="-72.464" y="0.0" style="fill:rgb(16.1%,15.3%,14.1%);fill-opacity:1.0;font-family:helvetica;font-size:16.0px;font-weight:bold;stroke:none;vertical-align:baseline;white-space:pre">Mean percent error</text></g><g class="toyplot-coordinates-Axis-coordinates" style="visibility:hidden" transform=""><line x1="0" x2="0" y1="6.0" y2="-9.0" style="stroke:rgb(43.9%,50.2%,56.5%);stroke-opacity:1.0;stroke-width:1.0" /><text x="0" y="12.0" style="alignment-baseline:hanging;fill:rgb(43.9%,50.2%,56.5%);fill-opacity:1.0;font-size:10px;font-weight:normal;stroke:none;text-anchor:middle" /></g></g></g><g class="toyplot-coordinates-Cartesian" id="t7e47935223e94186b4bd7815f59ec00e"><clipPath id="t719d999e32e24085b2250e92bdd40ee4"><rect x="55.0" y="55.0" width="240.0" height="190.0" /></clipPath><g clip-path="url(#t719d999e32e24085b2250e92bdd40ee4)" /><g class="toyplot-coordinates-Axis" id="t649fba928f874e7fa12b2f0a7a43689e" transform="translate(65.0,65.0)translate(0,-10.0)"><line x1="0" y1="0" x2="220.0" y2="0" style="stroke-width:3" /><g><line x1="22.000197999802" y1="-7.5" x2="22.000197999802" y2="0" style="stroke-width:3" /><line x1="88.000131999868" y1="-7.5" x2="88.000131999868" y2="0" style="stroke-width:3" /><line x1="154.000065999934" y1="-7.5" x2="154.000065999934" y2="0" style="stroke-width:3" /><line x1="220.0" y1="-7.5" x2="220.0" y2="0" style="stroke-width:3" /></g><g><g transform="translate(22.000197999802,-12.0)"><text x="-11.12" y="0.0" style="fill:rgb(16.1%,15.3%,14.1%);fill-opacity:1.0;font-family:helvetica;font-size:16.0px;font-weight:normal;stroke:none;vertical-align:baseline;white-space:pre">5.0</text></g><g transform="translate(88.000131999868,-12.0)"><text x="-11.12" y="0.0" style="fill:rgb(16.1%,15.3%,14.1%);fill-opacity:1.0;font-family:helvetica;font-size:16.0px;font-weight:normal;stroke:none;vertical-align:baseline;white-space:pre">1.2</text></g><g transform="translate(154.000065999934,-12.0)"><text x="-11.12" y="0.0" style="fill:rgb(16.1%,15.3%,14.1%);fill-opacity:1.0;font-family:helvetica;font-size:16.0px;font-weight:normal;stroke:none;vertical-align:baseline;white-space:pre">0.7</text></g><g transform="translate(220.0,-12.0)"><text x="-11.12" y="0.0" style="fill:rgb(16.1%,15.3%,14.1%);fill-opacity:1.0;font-family:helvetica;font-size:16.0px;font-weight:normal;stroke:none;vertical-align:baseline;white-space:pre">0.5</text></g></g><g transform="translate(110.0,-35.0)"><text x="-121.36" y="0.0" style="fill:rgb(16.1%,15.3%,14.1%);fill-opacity:1.0;font-family:helvetica;font-size:16.0px;font-weight:bold;stroke:none;vertical-align:baseline;white-space:pre">Sptree edge lengths (coal units)</text></g><g class="toyplot-coordinates-Axis-coordinates" style="visibility:hidden" transform=""><line x1="0" x2="0" y1="6.0" y2="-9.0" style="stroke:rgb(43.9%,50.2%,56.5%);stroke-opacity:1.0;stroke-width:1.0" /><text x="0" y="12.0" style="alignment-baseline:hanging;fill:rgb(43.9%,50.2%,56.5%);fill-opacity:1.0;font-size:10px;font-weight:normal;stroke:none;text-anchor:middle" /></g></g></g></svg>