<svg class="toyplot-canvas-Canvas" xmlns:toyplot="http://www.sandia.gov/toyplot" xmlns:xlink="http://www.w3.org/1999/xlink" xmlns="http://www.w3.org/2000/svg" width="350.0px" height="300.0px" viewBox="0 0 350.0 300.0" preserveAspectRatio="xMidYMid meet" style="background-color:transparent;border-color:#292724;border-style:none;border-width:1.0;fill:rgb(16.1%,15.3%,14.1%);fill-opacity:1.0;font-family:Helvetica;font-size:12px;opacity:1.0;stroke:rgb(16.1%,15.3%,14.1%);stroke-opacity:1.0;stroke-width:1.0" id="t6e41e8bd386b4892b9d7a8ab71ab41df"><g class="toyplot-coordinates-Cartesian" id="t658852b0491f409c860e1a20011e5a38"><clipPath id="t2062da149c854b7ba3eb9567e60cb933"><rect x="55.0" y="55.0" width="240.0" height="190.0" /></clipPath><g clip-path="url(#t2062da149c854b7ba3eb9567e60cb933)"><g class="toyplot-mark-AxisLines" style="stroke:rgb(50.2%,50.2%,50.2%);stroke-dasharray:6,6;stroke-opacity:0.7;stroke-width:2" id="t1a8c87ff7e764d6fad19f810638fd092"><g class="toyplot-Series"><line class="toyplot-Datum" y1="150.0" y2="150.0" x1="65.0" x2="285.0" style="opacity:1.0;stroke:rgb(50.2%,50.2%,50.2%);stroke-dasharray:6,6;stroke-opacity:0.7;stroke-width:2" /></g></g><g class="toyplot-mark-FillBoundaries" style="stroke:none" id="t099562a7885344e19328ec818c293232"><polygon points="87.0,199.8224626575146 109.0,196.8248292413478 131.0,187.61182728230165 153.0,187.87814604746308 175.0,187.80696760228892 197.0,185.51104315988218 219.0,184.91950165961222 241.0,183.1557286075621 263.0,183.09308023244603 285.0,180.5320837534232 285.0,178.56987715766388 263.0,180.9548206863091 241.0,180.95524853524424 219.0,182.41217386144427 197.0,182.89107872875417 175.0,184.91387928766747 153.0,184.85069799872218 131.0,184.54053144756313 109.0,192.47019775849245 87.0,194.67594270901324" style="fill:rgb(40%,76.1%,64.7%);fill-opacity:1.0;opacity:0.33;stroke:none" /></g><g class="toyplot-mark-FillBoundaries" style="stroke:none" id="t732dce79c8094edd87fd227d7557a491"><polygon points="87.0,150.3178291654242 109.0,154.1911673779978 131.0,148.4425952834149 153.0,150.50725267895461 175.0,148.3010874735469 197.0,150.83236690768464 219.0,149.89732480204862 241.0,151.37077908703284 263.0,150.77095556401906 285.0,153.26536005624075 285.0,151.00697487304907 263.0,148.25669572810438 241.0,148.90012865368413 219.0,147.24988022111046 197.0,148.06065098786345 175.0,144.2828897010951 153.0,147.08805555699286 131.0,143.86141936973712 109.0,150.30384253011007 87.0,143.48061933746" style="fill:rgb(0%,0%,0%);fill-opacity:1.0;opacity:0.33;stroke:none" /></g><g class="toyplot-mark-Plot" style="fill:none" id="t4172e3356f5047f4aff3a2b0bafd1c65"><g class="toyplot-Series"><path d="M 87.0 197.24920268326392 L 109.0 194.64751349992014 L 131.0 186.07617936493241 L 153.0 186.3644220230926 L 175.0 186.3604234449782 L 197.0 184.2010609443182 L 219.0 183.66583776052826 L 241.0 182.05548857140317 L 263.0 182.02395045937755 L 285.0 179.55098045554354" style="stroke:rgb(10.6%,62%,46.7%);stroke-opacity:0.7;stroke-width:2.0" /><g style="fill:rgb(10.6%,62%,46.7%);fill-opacity:1.0;opacity:1.0;stroke:rgb(10.6%,62%,46.7%);stroke-opacity:1.0" class="toyplot-Datum" transform="translate(87.0, 197.24920268326392)"><circle r="3.0" /></g><g style="fill:rgb(10.6%,62%,46.7%);fill-opacity:1.0;opacity:1.0;stroke:rgb(10.6%,62%,46.7%);stroke-opacity:1.0" class="toyplot-Datum" transform="translate(109.0, 194.64751349992014)"><circle r="3.0" /></g><g style="fill:rgb(10.6%,62%,46.7%);fill-opacity:1.0;opacity:1.0;stroke:rgb(10.6%,62%,46.7%);stroke-opacity:1.0" class="toyplot-Datum" transform="translate(131.0, 186.07617936493241)"><circle r="3.0" /></g><g style="fill:rgb(10.6%,62%,46.7%);fill-opacity:1.0;opacity:1.0;stroke:rgb(10.6%,62%,46.7%);stroke-opacity:1.0" class="toyplot-Datum" transform="translate(153.0, 186.3644220230926)"><circle r="3.0" /></g><g style="fill:rgb(10.6%,62%,46.7%);fill-opacity:1.0;opacity:1.0;stroke:rgb(10.6%,62%,46.7%);stroke-opacity:1.0" class="toyplot-Datum" transform="translate(175.0, 186.3604234449782)"><circle r="3.0" /></g><g style="fill:rgb(10.6%,62%,46.7%);fill-opacity:1.0;opacity:1.0;stroke:rgb(10.6%,62%,46.7%);stroke-opacity:1.0" class="toyplot-Datum" transform="translate(197.0, 184.2010609443182)"><circle r="3.0" /></g><g style="fill:rgb(10.6%,62%,46.7%);fill-opacity:1.0;opacity:1.0;stroke:rgb(10.6%,62%,46.7%);stroke-opacity:1.0" class="toyplot-Datum" transform="translate(219.0, 183.66583776052826)"><circle r="3.0" /></g><g style="fill:rgb(10.6%,62%,46.7%);fill-opacity:1.0;opacity:1.0;stroke:rgb(10.6%,62%,46.7%);stroke-opacity:1.0" class="toyplot-Datum" transform="translate(241.0, 182.05548857140317)"><circle r="3.0" /></g><g style="fill:rgb(10.6%,62%,46.7%);fill-opacity:1.0;opacity:1.0;stroke:rgb(10.6%,62%,46.7%);stroke-opacity:1.0" class="toyplot-Datum" transform="translate(263.0, 182.02395045937755)"><circle r="3.0" /></g><g style="fill:rgb(10.6%,62%,46.7%);fill-opacity:1.0;opacity:1.0;stroke:rgb(10.6%,62%,46.7%);stroke-opacity:1.0" class="toyplot-Datum" transform="translate(285.0, 179.55098045554354)"><circle r="3.0" /></g></g></g><g class="toyplot-mark-Plot" style="fill:none" id="t62450c8f3b574a74af9c66450c75103b"><g class="toyplot-Series"><path d="M 87.0 146.89922425144212 L 109.0 152.24750495405394 L 131.0 146.152007326576 L 153.0 148.79765411797374 L 175.0 146.291988587321 L 197.0 149.44650894777405 L 219.0 148.57360251157957 L 241.0 150.1354538703585 L 263.0 149.51382564606172 L 285.0 152.13616746464493" style="stroke:rgb(0%,0%,0%);stroke-opacity:0.8;stroke-width:2.0" /><g style="fill:rgb(0%,0%,0%);fill-opacity:1.0;opacity:1.0;stroke:none" class="toyplot-Datum" transform="translate(87.0, 146.89922425144212)"><rect x="-3.0" y="-3.0" width="6.0" height="6.0" /></g><g style="fill:rgb(0%,0%,0%);fill-opacity:1.0;opacity:1.0;stroke:none" class="toyplot-Datum" transform="translate(109.0, 152.24750495405394)"><rect x="-3.0" y="-3.0" width="6.0" height="6.0" /></g><g style="fill:rgb(0%,0%,0%);fill-opacity:1.0;opacity:1.0;stroke:none" class="toyplot-Datum" transform="translate(131.0, 146.152007326576)"><rect x="-3.0" y="-3.0" width="6.0" height="6.0" /></g><g style="fill:rgb(0%,0%,0%);fill-opacity:1.0;opacity:1.0;stroke:none" class="toyplot-Datum" transform="translate(153.0, 148.79765411797374)"><rect x="-3.0" y="-3.0" width="6.0" height="6.0" /></g><g style="fill:rgb(0%,0%,0%);fill-opacity:1.0;opacity:1.0;stroke:none" class="toyplot-Datum" transform="translate(175.0, 146.291988587321)"><rect x="-3.0" y="-3.0" width="6.0" height="6.0" /></g><g style="fill:rgb(0%,0%,0%);fill-opacity:1.0;opacity:1.0;stroke:none" class="toyplot-Datum" transform="translate(197.0, 149.44650894777405)"><rect x="-3.0" y="-3.0" width="6.0" height="6.0" /></g><g style="fill:rgb(0%,0%,0%);fill-opacity:1.0;opacity:1.0;stroke:none" class="toyplot-Datum" transform="translate(219.0, 148.57360251157957)"><rect x="-3.0" y="-3.0" width="6.0" height="6.0" /></g><g style="fill:rgb(0%,0%,0%);fill-opacity:1.0;opacity:1.0;stroke:none" class="toyplot-Datum" transform="translate(241.0, 150.1354538703585)"><rect x="-3.0" y="-3.0" width="6.0" height="6.0" /></g><g style="fill:rgb(0%,0%,0%);fill-opacity:1.0;opacity:1.0;stroke:none" class="toyplot-Datum" transform="translate(263.0, 149.51382564606172)"><rect x="-3.0" y="-3.0" width="6.0" height="6.0" /></g><g style="fill:rgb(0%,0%,0%);fill-opacity:1.0;opacity:1.0;stroke:none" class="toyplot-Datum" transform="translate(285.0, 152.13616746464493)"><rect x="-3.0" y="-3.0" width="6.0" height="6.0" /></g></g></g></g><g class="toyplot-coordinates-Axis" id="tf9ab2a56e3104942b493279f9107449e" transform="translate(65.0,235.0)translate(0,10.0)"><line x1="0" y1="0" x2="220.0" y2="0" style="stroke-width:3" /><g><line x1="22.0" y1="7.5" x2="22.0" y2="0" style="stroke-width:3" /><line x1="88.0" y1="7.5" x2="88.0" y2="0" style="stroke-width:3" /><line x1="154.0" y1="7.5" x2="154.0" y2="0" style="stroke-width:3" /><line x1="220.0" y1="7.5" x2="220.0" y2="0" style="stroke-width:3" /></g><g><g transform="translate(22.0,12.0)"><text x="-22.24" y="13.687999999999999" style="fill:rgb(16.1%,15.3%,14.1%);fill-opacity:1.0;font-family:helvetica;font-size:16.0px;font-weight:normal;stroke:none;vertical-align:baseline;white-space:pre">50000</text></g><g transform="translate(88.0,12.0)"><text x="-26.688" y="13.687999999999999" style="fill:rgb(16.1%,15.3%,14.1%);fill-opacity:1.0;font-family:helvetica;font-size:16.0px;font-weight:normal;stroke:none;vertical-align:baseline;white-space:pre">200000</text></g><g transform="translate(154.0,12.0)"><text x="-26.688" y="13.687999999999999" style="fill:rgb(16.1%,15.3%,14.1%);fill-opacity:1.0;font-family:helvetica;font-size:16.0px;font-weight:normal;stroke:none;vertical-align:baseline;white-space:pre">350000</text></g><g transform="translate(220.0,12.0)"><text x="-26.688" y="13.687999999999999" style="fill:rgb(16.1%,15.3%,14.1%);fill-opacity:1.0;font-family:helvetica;font-size:16.0px;font-weight:normal;stroke:none;vertical-align:baseline;white-space:pre">500000</text></g></g><g transform="translate(110.0,35.0)"><text x="-42.665600000000005" y="13.687999999999999" style="fill:rgb(16.1%,15.3%,14.1%);fill-opacity:1.0;font-family:helvetica;font-size:16.0px;font-weight:bold;stroke:none;vertical-align:baseline;white-space:pre">N</text><text x="-31.113600000000005" y="15.927999999999999" style="fill:rgb(16.1%,15.3%,14.1%);fill-opacity:1.0;font-family:helvetica;font-size:11.2px;font-weight:bold;stroke:none;vertical-align:baseline;white-space:pre">e</text><text x="-24.886400000000005" y="13.687999999999999" style="fill:rgb(16.1%,15.3%,14.1%);fill-opacity:1.0;font-family:helvetica;font-size:16.0px;font-weight:bold;stroke:none;vertical-align:baseline;white-space:pre"> (diploid)</text></g><g class="toyplot-coordinates-Axis-coordinates" style="visibility:hidden" transform=""><line x1="0" x2="0" y1="-6.0" y2="9.0" style="stroke:rgb(43.9%,50.2%,56.5%);stroke-opacity:1.0;stroke-width:1.0" /><text x="0" y="-12.0" style="alignment-baseline:alphabetic;fill:rgb(43.9%,50.2%,56.5%);fill-opacity:1.0;font-size:10px;font-weight:normal;stroke:none;text-anchor:middle" /></g></g><g class="toyplot-coordinates-Axis" id="tc0546ece3fa040df97f406b93f68bf15" transform="translate(65.0,235.0)rotate(-90.0)translate(0,-10.0)"><line x1="0" y1="0" x2="170.0" y2="0" style="stroke-width:3" /><g><line x1="0.0" y1="-7.5" x2="0.0" y2="0" style="stroke-width:3" /><line x1="42.5" y1="-7.5" x2="42.5" y2="0" style="stroke-width:3" /><line x1="85.0" y1="-7.5" x2="85.0" y2="0" style="stroke-width:3" /><line x1="127.5" y1="-7.5" x2="127.5" y2="0" style="stroke-width:3" /><line x1="170.0" y1="-7.5" x2="170.0" y2="0" style="stroke-width:3" /></g><g><g transform="translate(0.0,-12.0)"><text x="-11.56" y="0.0" style="fill:rgb(16.1%,15.3%,14.1%);fill-opacity:1.0;font-family:helvetica;font-size:16.0px;font-weight:normal;stroke:none;vertical-align:baseline;white-space:pre">-10</text></g><g transform="translate(42.5,-12.0)"><text x="-7.111999999999999" y="0.0" style="fill:rgb(16.1%,15.3%,14.1%);fill-opacity:1.0;font-family:helvetica;font-size:16.0px;font-weight:normal;stroke:none;vertical-align:baseline;white-space:pre">-5</text></g><g transform="translate(85.0,-12.0)"><text x="-4.448" y="0.0" style="fill:rgb(16.1%,15.3%,14.1%);fill-opacity:1.0;font-family:helvetica;font-size:16.0px;font-weight:normal;stroke:none;vertical-align:baseline;white-space:pre">0</text></g><g transform="translate(127.5,-12.0)"><text x="-4.448" y="0.0" style="fill:rgb(16.1%,15.3%,14.1%);fill-opacity:1.0;font-family:helvetica;font-size:16.0px;font-weight:normal;stroke:none;vertical-align:baseline;white-space:pre">5</text></g><g transform="translate(170.0,-12.0)"><text x="-8.896" y="0.0" style="fill:rgb(16.1%,15.3%,14.1%);fill-opacity:1.0;font-family:helvetica;font-size:16.0px;font-weight:normal;stroke:none;vertical-align:baseline;white-space:pre">10</text></g></g><g transform="translate(85.0,-35.0)"><text x="-72.464" y="0.0" style="fill:rgb(16.1%,15.3%,14.1%);fill-opacity:1.0;font-family:helvetica;font-size:16.0px;font-weight:bold;stroke:none;vertical-align:baseline;white-space:pre">Mean percent error</text></g><g class="toyplot-coordinates-Axis-coordinates" style="visibility:hidden" transform=""><line x1="0" x2="0" y1="6.0" y2="-9.0" style="stroke:rgb(43.9%,50.2%,56.5%);stroke-opacity:1.0;stroke-width:1.0" /><text x="0" y="12.0" style="alignment-baseline:hanging;fill:rgb(43.9%,50.2%,56.5%);fill-opacity:1.0;font-size:10px;font-weight:normal;stroke:none;text-anchor:middle" /></g></g></g><g class="toyplot-coordinates-Cartesian" id="tff432646aafa47649e57a52548431e6e"><clipPath id="t7b9c31b9da1144a5b7032b55bed3a5be"><rect x="55.0" y="55.0" width="240.0" height="190.0" /></clipPath><g clip-path="url(#t7b9c31b9da1144a5b7032b55bed3a5be)" /><g class="toyplot-coordinates-Axis" id="t025983eae0054f19b02c2a8a972fb1cd" transform="translate(65.0,65.0)translate(0,-10.0)"><line x1="0" y1="0" x2="220.0" y2="0" style="stroke-width:3" /><g><line x1="22.000197999802" y1="-7.5" x2="22.000197999802" y2="0" style="stroke-width:3" /><line x1="88.000131999868" y1="-7.5" x2="88.000131999868" y2="0" style="stroke-width:3" /><line x1="154.000065999934" y1="-7.5" x2="154.000065999934" y2="0" style="stroke-width:3" /><line x1="220.0" y1="-7.5" x2="220.0" y2="0" style="stroke-width:3" /></g><g><g transform="translate(22.000197999802,-12.0)"><text x="-11.12" y="0.0" style="fill:rgb(16.1%,15.3%,14.1%);fill-opacity:1.0;font-family:helvetica;font-size:16.0px;font-weight:normal;stroke:none;vertical-align:baseline;white-space:pre">5.0</text></g><g transform="translate(88.000131999868,-12.0)"><text x="-11.12" y="0.0" style="fill:rgb(16.1%,15.3%,14.1%);fill-opacity:1.0;font-family:helvetica;font-size:16.0px;font-weight:normal;stroke:none;vertical-align:baseline;white-space:pre">1.2</text></g><g transform="translate(154.000065999934,-12.0)"><text x="-11.12" y="0.0" style="fill:rgb(16.1%,15.3%,14.1%);fill-opacity:1.0;font-family:helvetica;font-size:16.0px;font-weight:normal;stroke:none;vertical-align:baseline;white-space:pre">0.7</text></g><g transform="translate(220.0,-12.0)"><text x="-11.12" y="0.0" style="fill:rgb(16.1%,15.3%,14.1%);fill-opacity:1.0;font-family:helvetica;font-size:16.0px;font-weight:normal;stroke:none;vertical-align:baseline;white-space:pre">0.5</text></g></g><g transform="translate(110.0,-35.0)"><text x="-121.36" y="0.0" style="fill:rgb(16.1%,15.3%,14.1%);fill-opacity:1.0;font-family:helvetica;font-size:16.0px;font-weight:bold;stroke:none;vertical-align:baseline;white-space:pre">Sptree edge lengths (coal units)</text></g><g class="toyplot-coordinates-Axis-coordinates" style="visibility:hidden" transform=""><line x1="0" x2="0" y1="6.0" y2="-9.0" style="stroke:rgb(43.9%,50.2%,56.5%);stroke-opacity:1.0;stroke-width:1.0" /><text x="0" y="12.0" style="alignment-baseline:hanging;fill:rgb(43.9%,50.2%,56.5%);fill-opacity:1.0;font-size:10px;font-weight:normal;stroke:none;text-anchor:middle" /></g></g></g></svg>