<svg class="toyplot-canvas-Canvas" xmlns:toyplot="http://www.sandia.gov/toyplot" xmlns:xlink="http://www.w3.org/1999/xlink" xmlns="http://www.w3.org/2000/svg" width="350.0px" height="300.0px" viewBox="0 0 350.0 300.0" preserveAspectRatio="xMidYMid meet" style="background-color:transparent;border-color:#292724;border-style:none;border-width:1.0;fill:rgb(16.1%,15.3%,14.1%);fill-opacity:1.0;font-family:Helvetica;font-size:12px;opacity:1.0;stroke:rgb(16.1%,15.3%,14.1%);stroke-opacity:1.0;stroke-width:1.0" id="t3e2c1ed446e149cbad4075419cf2b328"><g class="toyplot-coordinates-Cartesian" id="ta2e2ee39eb7643c48e77917538d3e88f"><clipPath id="tfc9b6af848c04299b956af8e7f6b257e"><rect x="55.0" y="55.0" width="240.0" height="190.0" /></clipPath><g clip-path="url(#tfc9b6af848c04299b956af8e7f6b257e)"><g class="toyplot-mark-AxisLines" style="stroke:rgb(50.2%,50.2%,50.2%);stroke-dasharray:6,6;stroke-opacity:0.7;stroke-width:2" id="t74fed9ba3c3449a2a9861639a5f4cf6d"><g class="toyplot-Series"><line class="toyplot-Datum" y1="150.0" y2="150.0" x1="65.0" x2="285.0" style="opacity:1.0;stroke:rgb(50.2%,50.2%,50.2%);stroke-dasharray:6,6;stroke-opacity:0.7;stroke-width:2" /></g></g><g class="toyplot-mark-FillBoundaries" style="stroke:none" id="td4fdcd82249a433b8478b190df40ca3a"><polygon points="87.0,140.62526861791105 109.0,145.10272249469907 131.0,160.75370590614077 153.0,160.21278384039698 175.0,160.10688653549076 197.0,164.08487290648063 219.0,165.1097503963599 241.0,168.00520852725572 263.0,167.91117507394742 285.0,172.76547235443468 285.0,168.8731022524409 263.0,163.66695781531902 241.0,163.6350633710206 219.0,160.123327014976 197.0,158.87275054802282 175.0,154.34705316028015 153.0,154.1831679221839 131.0,154.6362423835842 109.0,136.4143346205846 87.0,130.35114713966638" style="fill:rgb(40%,76.1%,64.7%);fill-opacity:1.0;opacity:0.33;stroke:none" /></g><g class="toyplot-mark-FillBoundaries" style="stroke:none" id="t03aa9c0238044c36aa9e8157e8581d4f"><polygon points="87.0,136.02452575117172 109.0,156.62600353781346 131.0,161.89918421814218 153.0,160.30549383546924 175.0,160.74651005499595 197.0,166.805849900899 219.0,163.9516862733915 241.0,169.12779883489029 263.0,169.98424389749016 285.0,166.36057630360168 285.0,162.0400039656756 263.0,165.6669625160025 241.0,164.81071567056625 219.0,159.07371365479736 197.0,161.80559182017515 175.0,155.19598656184297 153.0,154.5823734436058 131.0,155.64977547984196 109.0,149.49525862292052 87.0,123.81463437645255" style="fill:rgb(0%,0%,0%);fill-opacity:1.0;opacity:0.33;stroke:none" /></g><g class="toyplot-mark-Plot" style="fill:none" id="t45a3d01943ce44c19bd22ff5d979b25f"><g class="toyplot-Series"><path d="M 87.0 135.4882078787887 L 109.0 140.75852855764182 L 131.0 157.6949741448625 L 153.0 157.19797588129046 L 175.0 157.22696984788544 L 197.0 161.47881172725172 L 219.0 162.61653870566795 L 241.0 165.82013594913815 L 263.0 165.7890664446332 L 285.0 170.81928730343776" style="stroke:rgb(10.6%,62%,46.7%);stroke-opacity:0.7;stroke-width:2.0" /><g style="fill:rgb(10.6%,62%,46.7%);fill-opacity:1.0;opacity:1.0;stroke:rgb(10.6%,62%,46.7%);stroke-opacity:1.0" class="toyplot-Datum" transform="translate(87.0, 135.4882078787887)"><circle r="3.0" /></g><g style="fill:rgb(10.6%,62%,46.7%);fill-opacity:1.0;opacity:1.0;stroke:rgb(10.6%,62%,46.7%);stroke-opacity:1.0" class="toyplot-Datum" transform="translate(109.0, 140.75852855764182)"><circle r="3.0" /></g><g style="fill:rgb(10.6%,62%,46.7%);fill-opacity:1.0;opacity:1.0;stroke:rgb(10.6%,62%,46.7%);stroke-opacity:1.0" class="toyplot-Datum" transform="translate(131.0, 157.6949741448625)"><circle r="3.0" /></g><g style="fill:rgb(10.6%,62%,46.7%);fill-opacity:1.0;opacity:1.0;stroke:rgb(10.6%,62%,46.7%);stroke-opacity:1.0" class="toyplot-Datum" transform="translate(153.0, 157.19797588129046)"><circle r="3.0" /></g><g style="fill:rgb(10.6%,62%,46.7%);fill-opacity:1.0;opacity:1.0;stroke:rgb(10.6%,62%,46.7%);stroke-opacity:1.0" class="toyplot-Datum" transform="translate(175.0, 157.22696984788544)"><circle r="3.0" /></g><g style="fill:rgb(10.6%,62%,46.7%);fill-opacity:1.0;opacity:1.0;stroke:rgb(10.6%,62%,46.7%);stroke-opacity:1.0" class="toyplot-Datum" transform="translate(197.0, 161.47881172725172)"><circle r="3.0" /></g><g style="fill:rgb(10.6%,62%,46.7%);fill-opacity:1.0;opacity:1.0;stroke:rgb(10.6%,62%,46.7%);stroke-opacity:1.0" class="toyplot-Datum" transform="translate(219.0, 162.61653870566795)"><circle r="3.0" /></g><g style="fill:rgb(10.6%,62%,46.7%);fill-opacity:1.0;opacity:1.0;stroke:rgb(10.6%,62%,46.7%);stroke-opacity:1.0" class="toyplot-Datum" transform="translate(241.0, 165.82013594913815)"><circle r="3.0" /></g><g style="fill:rgb(10.6%,62%,46.7%);fill-opacity:1.0;opacity:1.0;stroke:rgb(10.6%,62%,46.7%);stroke-opacity:1.0" class="toyplot-Datum" transform="translate(263.0, 165.7890664446332)"><circle r="3.0" /></g><g style="fill:rgb(10.6%,62%,46.7%);fill-opacity:1.0;opacity:1.0;stroke:rgb(10.6%,62%,46.7%);stroke-opacity:1.0" class="toyplot-Datum" transform="translate(285.0, 170.81928730343776)"><circle r="3.0" /></g></g></g><g class="toyplot-mark-Plot" style="fill:none" id="t3fe892d46b984ad4b86e84693dd4d69e"><g class="toyplot-Series"><path d="M 87.0 129.91958006381216 L 109.0 153.060631080367 L 131.0 158.77447984899206 L 153.0 157.4439336395375 L 175.0 157.97124830841946 L 197.0 164.30572086053706 L 219.0 161.5126999640944 L 241.0 166.96925725272828 L 263.0 167.82560320674637 L 285.0 164.20029013463864" style="stroke:rgb(0%,0%,0%);stroke-opacity:0.8;stroke-width:2.0" /><g style="fill:rgb(0%,0%,0%);fill-opacity:1.0;opacity:1.0;stroke:none" class="toyplot-Datum" transform="translate(87.0, 129.91958006381216)"><rect x="-3.0" y="-3.0" width="6.0" height="6.0" /></g><g style="fill:rgb(0%,0%,0%);fill-opacity:1.0;opacity:1.0;stroke:none" class="toyplot-Datum" transform="translate(109.0, 153.060631080367)"><rect x="-3.0" y="-3.0" width="6.0" height="6.0" /></g><g style="fill:rgb(0%,0%,0%);fill-opacity:1.0;opacity:1.0;stroke:none" class="toyplot-Datum" transform="translate(131.0, 158.77447984899206)"><rect x="-3.0" y="-3.0" width="6.0" height="6.0" /></g><g style="fill:rgb(0%,0%,0%);fill-opacity:1.0;opacity:1.0;stroke:none" class="toyplot-Datum" transform="translate(153.0, 157.4439336395375)"><rect x="-3.0" y="-3.0" width="6.0" height="6.0" /></g><g style="fill:rgb(0%,0%,0%);fill-opacity:1.0;opacity:1.0;stroke:none" class="toyplot-Datum" transform="translate(175.0, 157.97124830841946)"><rect x="-3.0" y="-3.0" width="6.0" height="6.0" /></g><g style="fill:rgb(0%,0%,0%);fill-opacity:1.0;opacity:1.0;stroke:none" class="toyplot-Datum" transform="translate(197.0, 164.30572086053706)"><rect x="-3.0" y="-3.0" width="6.0" height="6.0" /></g><g style="fill:rgb(0%,0%,0%);fill-opacity:1.0;opacity:1.0;stroke:none" class="toyplot-Datum" transform="translate(219.0, 161.5126999640944)"><rect x="-3.0" y="-3.0" width="6.0" height="6.0" /></g><g style="fill:rgb(0%,0%,0%);fill-opacity:1.0;opacity:1.0;stroke:none" class="toyplot-Datum" transform="translate(241.0, 166.96925725272828)"><rect x="-3.0" y="-3.0" width="6.0" height="6.0" /></g><g style="fill:rgb(0%,0%,0%);fill-opacity:1.0;opacity:1.0;stroke:none" class="toyplot-Datum" transform="translate(263.0, 167.82560320674637)"><rect x="-3.0" y="-3.0" width="6.0" height="6.0" /></g><g style="fill:rgb(0%,0%,0%);fill-opacity:1.0;opacity:1.0;stroke:none" class="toyplot-Datum" transform="translate(285.0, 164.20029013463864)"><rect x="-3.0" y="-3.0" width="6.0" height="6.0" /></g></g></g></g><g class="toyplot-coordinates-Axis" id="t87d584b0b7f64aa39c5b5689ab2ce3b1" transform="translate(65.0,235.0)translate(0,10.0)"><line x1="0" y1="0" x2="220.0" y2="0" style="stroke-width:3" /><g><line x1="22.0" y1="7.5" x2="22.0" y2="0" style="stroke-width:3" /><line x1="88.0" y1="7.5" x2="88.0" y2="0" style="stroke-width:3" /><line x1="154.0" y1="7.5" x2="154.0" y2="0" style="stroke-width:3" /><line x1="220.0" y1="7.5" x2="220.0" y2="0" style="stroke-width:3" /></g><g><g transform="translate(22.0,12.0)"><text x="-22.24" y="13.687999999999999" style="fill:rgb(16.1%,15.3%,14.1%);fill-opacity:1.0;font-family:helvetica;font-size:16.0px;font-weight:normal;stroke:none;vertical-align:baseline;white-space:pre">50000</text></g><g transform="translate(88.0,12.0)"><text x="-26.688" y="13.687999999999999" style="fill:rgb(16.1%,15.3%,14.1%);fill-opacity:1.0;font-family:helvetica;font-size:16.0px;font-weight:normal;stroke:none;vertical-align:baseline;white-space:pre">200000</text></g><g transform="translate(154.0,12.0)"><text x="-26.688" y="13.687999999999999" style="fill:rgb(16.1%,15.3%,14.1%);fill-opacity:1.0;font-family:helvetica;font-size:16.0px;font-weight:normal;stroke:none;vertical-align:baseline;white-space:pre">350000</text></g><g transform="translate(220.0,12.0)"><text x="-26.688" y="13.687999999999999" style="fill:rgb(16.1%,15.3%,14.1%);fill-opacity:1.0;font-family:helvetica;font-size:16.0px;font-weight:normal;stroke:none;vertical-align:baseline;white-space:pre">500000</text></g></g><g transform="translate(110.0,35.0)"><text x="-42.665600000000005" y="13.687999999999999" style="fill:rgb(16.1%,15.3%,14.1%);fill-opacity:1.0;font-family:helvetica;font-size:16.0px;font-weight:bold;stroke:none;vertical-align:baseline;white-space:pre">N</text><text x="-31.113600000000005" y="15.927999999999999" style="fill:rgb(16.1%,15.3%,14.1%);fill-opacity:1.0;font-family:helvetica;font-size:11.2px;font-weight:bold;stroke:none;vertical-align:baseline;white-space:pre">e</text><text x="-24.886400000000005" y="13.687999999999999" style="fill:rgb(16.1%,15.3%,14.1%);fill-opacity:1.0;font-family:helvetica;font-size:16.0px;font-weight:bold;stroke:none;vertical-align:baseline;white-space:pre"> (diploid)</text></g><g class="toyplot-coordinates-Axis-coordinates" style="visibility:hidden" transform=""><line x1="0" x2="0" y1="-6.0" y2="9.0" style="stroke:rgb(43.9%,50.2%,56.5%);stroke-opacity:1.0;stroke-width:1.0" /><text x="0" y="-12.0" style="alignment-baseline:alphabetic;fill:rgb(43.9%,50.2%,56.5%);fill-opacity:1.0;font-size:10px;font-weight:normal;stroke:none;text-anchor:middle" /></g></g><g class="toyplot-coordinates-Axis" id="ta9c3d536a1884de18ae5b18823f95368" transform="translate(65.0,235.0)rotate(-90.0)translate(0,-10.0)"><line x1="0" y1="0" x2="170.0" y2="0" style="stroke-width:3" /><g><line x1="0.0" y1="-7.5" x2="0.0" y2="0" style="stroke-width:3" /><line x1="85.0" y1="-7.5" x2="85.0" y2="0" style="stroke-width:3" /><line x1="170.0" y1="-7.5" x2="170.0" y2="0" style="stroke-width:3" /></g><g><g transform="translate(0.0,-12.0)"><text x="-4.448" y="0.0" style="fill:rgb(16.1%,15.3%,14.1%);fill-opacity:1.0;font-family:helvetica;font-size:16.0px;font-weight:normal;stroke:none;vertical-align:baseline;white-space:pre">0</text></g><g transform="translate(85.0,-12.0)"><text x="-4.448" y="0.0" style="fill:rgb(16.1%,15.3%,14.1%);fill-opacity:1.0;font-family:helvetica;font-size:16.0px;font-weight:normal;stroke:none;vertical-align:baseline;white-space:pre">5</text></g><g transform="translate(170.0,-12.0)"><text x="-8.896" y="0.0" style="fill:rgb(16.1%,15.3%,14.1%);fill-opacity:1.0;font-family:helvetica;font-size:16.0px;font-weight:normal;stroke:none;vertical-align:baseline;white-space:pre">10</text></g></g><g transform="translate(85.0,-35.0)"><text x="-72.464" y="0.0" style="fill:rgb(16.1%,15.3%,14.1%);fill-opacity:1.0;font-family:helvetica;font-size:16.0px;font-weight:bold;stroke:none;vertical-align:baseline;white-space:pre">Mean percent error</text></g><g class="toyplot-coordinates-Axis-coordinates" style="visibility:hidden" transform=""><line x1="0" x2="0" y1="6.0" y2="-9.0" style="stroke:rgb(43.9%,50.2%,56.5%);stroke-opacity:1.0;stroke-width:1.0" /><text x="0" y="12.0" style="alignment-baseline:hanging;fill:rgb(43.9%,50.2%,56.5%);fill-opacity:1.0;font-size:10px;font-weight:normal;stroke:none;text-anchor:middle" /></g></g></g><g class="toyplot-coordinates-Cartesian" id="t899bd0117f784908b7d252065e1ce2e5"><clipPath id="t923e48004daf45fba0ac3f814bc319ce"><rect x="55.0" y="55.0" width="240.0" height="190.0" /></clipPath><g clip-path="url(#t923e48004daf45fba0ac3f814bc319ce)" /><g class="toyplot-coordinates-Axis" id="t1659d9a31c0e4181baa58bb1a7f24db4" transform="translate(65.0,65.0)translate(0,-10.0)"><line x1="0" y1="0" x2="220.0" y2="0" style="stroke-width:3" /><g><line x1="22.000197999802" y1="-7.5" x2="22.000197999802" y2="0" style="stroke-width:3" /><line x1="88.000131999868" y1="-7.5" x2="88.000131999868" y2="0" style="stroke-width:3" /><line x1="154.000065999934" y1="-7.5" x2="154.000065999934" y2="0" style="stroke-width:3" /><line x1="220.0" y1="-7.5" x2="220.0" y2="0" style="stroke-width:3" /></g><g><g transform="translate(22.000197999802,-12.0)"><text x="-11.12" y="0.0" style="fill:rgb(16.1%,15.3%,14.1%);fill-opacity:1.0;font-family:helvetica;font-size:16.0px;font-weight:normal;stroke:none;vertical-align:baseline;white-space:pre">2.5</text></g><g transform="translate(88.000131999868,-12.0)"><text x="-11.12" y="0.0" style="fill:rgb(16.1%,15.3%,14.1%);fill-opacity:1.0;font-family:helvetica;font-size:16.0px;font-weight:normal;stroke:none;vertical-align:baseline;white-space:pre">0.6</text></g><g transform="translate(154.000065999934,-12.0)"><text x="-11.12" y="0.0" style="fill:rgb(16.1%,15.3%,14.1%);fill-opacity:1.0;font-family:helvetica;font-size:16.0px;font-weight:normal;stroke:none;vertical-align:baseline;white-space:pre">0.4</text></g><g transform="translate(220.0,-12.0)"><text x="-11.12" y="0.0" style="fill:rgb(16.1%,15.3%,14.1%);fill-opacity:1.0;font-family:helvetica;font-size:16.0px;font-weight:normal;stroke:none;vertical-align:baseline;white-space:pre">0.2</text></g></g><g transform="translate(110.0,-35.0)"><text x="-121.36" y="0.0" style="fill:rgb(16.1%,15.3%,14.1%);fill-opacity:1.0;font-family:helvetica;font-size:16.0px;font-weight:bold;stroke:none;vertical-align:baseline;white-space:pre">Sptree edge lengths (coal units)</text></g><g class="toyplot-coordinates-Axis-coordinates" style="visibility:hidden" transform=""><line x1="0" x2="0" y1="6.0" y2="-9.0" style="stroke:rgb(43.9%,50.2%,56.5%);stroke-opacity:1.0;stroke-width:1.0" /><text x="0" y="12.0" style="alignment-baseline:hanging;fill:rgb(43.9%,50.2%,56.5%);fill-opacity:1.0;font-size:10px;font-weight:normal;stroke:none;text-anchor:middle" /></g></g></g></svg>