<svg class="toyplot-canvas-Canvas" xmlns:toyplot="http://www.sandia.gov/toyplot" xmlns:xlink="http://www.w3.org/1999/xlink" xmlns="http://www.w3.org/2000/svg" width="350.0px" height="300.0px" viewBox="0 0 350.0 300.0" preserveAspectRatio="xMidYMid meet" style="background-color:transparent;border-color:#292724;border-style:none;border-width:1.0;fill:rgb(16.1%,15.3%,14.1%);fill-opacity:1.0;font-family:Helvetica;font-size:12px;opacity:1.0;stroke:rgb(16.1%,15.3%,14.1%);stroke-opacity:1.0;stroke-width:1.0" id="t898b42ed49bf402a97ec13eadb7620c7"><g class="toyplot-coordinates-Cartesian" id="te3120daf712441c984a32d03be09329d"><clipPath id="t40e0ec7702844086bacdc59dd17a4ca3"><rect x="55.0" y="55.0" width="240.0" height="190.0" /></clipPath><g clip-path="url(#t40e0ec7702844086bacdc59dd17a4ca3)"><g class="toyplot-mark-AxisLines" style="stroke:rgb(50.2%,50.2%,50.2%);stroke-dasharray:6,6;stroke-opacity:0.7;stroke-width:2" id="t2adfe1fe4d5e4ad0b45bec3607bae466"><g class="toyplot-Series"><line class="toyplot-Datum" y1="150.0" y2="150.0" x1="65.0" x2="285.0" style="opacity:1.0;stroke:rgb(50.2%,50.2%,50.2%);stroke-dasharray:6,6;stroke-opacity:0.7;stroke-width:2" /></g></g><g class="toyplot-mark-FillBoundaries" style="stroke:none" id="t3571a4dd97984aff8457b686be8feefe"><polygon points="87.0,214.32607468027402 109.0,197.91194483097308 131.0,193.04819525269838 153.0,189.03172843366156 175.0,191.56084192736154 197.0,193.63591099100495 219.0,187.38176552727737 241.0,186.99919393306098 263.0,183.6999211601488 285.0,186.85538461955738 285.0,184.24133697914252 263.0,181.44619273275242 241.0,184.26422664573278 219.0,184.36385413200213 197.0,190.03282262864136 175.0,187.84239586352535 153.0,185.73271752148864 131.0,188.7833504101551 109.0,192.66052577421078 87.0,204.39216039565423" style="fill:rgb(40%,76.1%,64.7%);fill-opacity:1.0;opacity:0.33;stroke:none" /></g><g class="toyplot-mark-FillBoundaries" style="stroke:none" id="tbf2021657dcb40f0b65e1a2b730cf05c"><polygon points="87.0,160.1530765827263 109.0,157.0276046273516 131.0,156.4102390605305 153.0,153.70261801010818 175.0,152.79420602310245 197.0,152.98326343307562 219.0,153.73531423644005 241.0,152.26371469435747 263.0,153.87912633347253 285.0,153.21308096201227 285.0,150.42933084522855 263.0,151.4647657721772 241.0,149.49010940764896 219.0,150.16629765209137 197.0,148.52621334056826 175.0,148.77660010064943 153.0,149.8474970034992 131.0,152.59267712274982 109.0,152.00674580882276 87.0,149.59447517938287" style="fill:rgb(0%,0%,0%);fill-opacity:1.0;opacity:0.33;stroke:none" /></g><g class="toyplot-mark-Plot" style="fill:none" id="t8279c85055da447792037744380fdac7"><g class="toyplot-Series"><path d="M 87.0 209.3591175379641 L 109.0 195.2862353025919 L 131.0 190.91577283142675 L 153.0 187.38222297757508 L 175.0 189.70161889544343 L 197.0 191.83436680982314 L 219.0 185.87280982963975 L 241.0 185.63171028939684 L 263.0 182.5730569464506 L 285.0 185.54836079934992" style="stroke:rgb(10.6%,62%,46.7%);stroke-opacity:0.7;stroke-width:2.0" /><g style="fill:rgb(10.6%,62%,46.7%);fill-opacity:1.0;opacity:1.0;stroke:rgb(10.6%,62%,46.7%);stroke-opacity:1.0" class="toyplot-Datum" transform="translate(87.0, 209.3591175379641)"><circle r="3.0" /></g><g style="fill:rgb(10.6%,62%,46.7%);fill-opacity:1.0;opacity:1.0;stroke:rgb(10.6%,62%,46.7%);stroke-opacity:1.0" class="toyplot-Datum" transform="translate(109.0, 195.2862353025919)"><circle r="3.0" /></g><g style="fill:rgb(10.6%,62%,46.7%);fill-opacity:1.0;opacity:1.0;stroke:rgb(10.6%,62%,46.7%);stroke-opacity:1.0" class="toyplot-Datum" transform="translate(131.0, 190.91577283142675)"><circle r="3.0" /></g><g style="fill:rgb(10.6%,62%,46.7%);fill-opacity:1.0;opacity:1.0;stroke:rgb(10.6%,62%,46.7%);stroke-opacity:1.0" class="toyplot-Datum" transform="translate(153.0, 187.38222297757508)"><circle r="3.0" /></g><g style="fill:rgb(10.6%,62%,46.7%);fill-opacity:1.0;opacity:1.0;stroke:rgb(10.6%,62%,46.7%);stroke-opacity:1.0" class="toyplot-Datum" transform="translate(175.0, 189.70161889544343)"><circle r="3.0" /></g><g style="fill:rgb(10.6%,62%,46.7%);fill-opacity:1.0;opacity:1.0;stroke:rgb(10.6%,62%,46.7%);stroke-opacity:1.0" class="toyplot-Datum" transform="translate(197.0, 191.83436680982314)"><circle r="3.0" /></g><g style="fill:rgb(10.6%,62%,46.7%);fill-opacity:1.0;opacity:1.0;stroke:rgb(10.6%,62%,46.7%);stroke-opacity:1.0" class="toyplot-Datum" transform="translate(219.0, 185.87280982963975)"><circle r="3.0" /></g><g style="fill:rgb(10.6%,62%,46.7%);fill-opacity:1.0;opacity:1.0;stroke:rgb(10.6%,62%,46.7%);stroke-opacity:1.0" class="toyplot-Datum" transform="translate(241.0, 185.63171028939684)"><circle r="3.0" /></g><g style="fill:rgb(10.6%,62%,46.7%);fill-opacity:1.0;opacity:1.0;stroke:rgb(10.6%,62%,46.7%);stroke-opacity:1.0" class="toyplot-Datum" transform="translate(263.0, 182.5730569464506)"><circle r="3.0" /></g><g style="fill:rgb(10.6%,62%,46.7%);fill-opacity:1.0;opacity:1.0;stroke:rgb(10.6%,62%,46.7%);stroke-opacity:1.0" class="toyplot-Datum" transform="translate(285.0, 185.54836079934992)"><circle r="3.0" /></g></g></g><g class="toyplot-mark-Plot" style="fill:none" id="t17d989c8f4464d7db4ba42947e99c839"><g class="toyplot-Series"><path d="M 87.0 154.87377588105457 L 109.0 154.51717521808717 L 131.0 154.50145809164016 L 153.0 151.7750575068037 L 175.0 150.7854030618759 L 197.0 150.75473838682194 L 219.0 151.95080594426568 L 241.0 150.87691205100322 L 263.0 152.67194605282486 L 285.0 151.8212059036204" style="stroke:rgb(0%,0%,0%);stroke-opacity:0.8;stroke-width:2.0" /><g style="fill:rgb(0%,0%,0%);fill-opacity:1.0;opacity:1.0;stroke:none" class="toyplot-Datum" transform="translate(87.0, 154.87377588105457)"><rect x="-3.0" y="-3.0" width="6.0" height="6.0" /></g><g style="fill:rgb(0%,0%,0%);fill-opacity:1.0;opacity:1.0;stroke:none" class="toyplot-Datum" transform="translate(109.0, 154.51717521808717)"><rect x="-3.0" y="-3.0" width="6.0" height="6.0" /></g><g style="fill:rgb(0%,0%,0%);fill-opacity:1.0;opacity:1.0;stroke:none" class="toyplot-Datum" transform="translate(131.0, 154.50145809164016)"><rect x="-3.0" y="-3.0" width="6.0" height="6.0" /></g><g style="fill:rgb(0%,0%,0%);fill-opacity:1.0;opacity:1.0;stroke:none" class="toyplot-Datum" transform="translate(153.0, 151.7750575068037)"><rect x="-3.0" y="-3.0" width="6.0" height="6.0" /></g><g style="fill:rgb(0%,0%,0%);fill-opacity:1.0;opacity:1.0;stroke:none" class="toyplot-Datum" transform="translate(175.0, 150.7854030618759)"><rect x="-3.0" y="-3.0" width="6.0" height="6.0" /></g><g style="fill:rgb(0%,0%,0%);fill-opacity:1.0;opacity:1.0;stroke:none" class="toyplot-Datum" transform="translate(197.0, 150.75473838682194)"><rect x="-3.0" y="-3.0" width="6.0" height="6.0" /></g><g style="fill:rgb(0%,0%,0%);fill-opacity:1.0;opacity:1.0;stroke:none" class="toyplot-Datum" transform="translate(219.0, 151.95080594426568)"><rect x="-3.0" y="-3.0" width="6.0" height="6.0" /></g><g style="fill:rgb(0%,0%,0%);fill-opacity:1.0;opacity:1.0;stroke:none" class="toyplot-Datum" transform="translate(241.0, 150.87691205100322)"><rect x="-3.0" y="-3.0" width="6.0" height="6.0" /></g><g style="fill:rgb(0%,0%,0%);fill-opacity:1.0;opacity:1.0;stroke:none" class="toyplot-Datum" transform="translate(263.0, 152.67194605282486)"><rect x="-3.0" y="-3.0" width="6.0" height="6.0" /></g><g style="fill:rgb(0%,0%,0%);fill-opacity:1.0;opacity:1.0;stroke:none" class="toyplot-Datum" transform="translate(285.0, 151.8212059036204)"><rect x="-3.0" y="-3.0" width="6.0" height="6.0" /></g></g></g></g><g class="toyplot-coordinates-Axis" id="t3644cf0fe43346069b7d8a9e8cf64343" transform="translate(65.0,235.0)translate(0,10.0)"><line x1="0" y1="0" x2="220.0" y2="0" style="stroke-width:3" /><g><line x1="22.0" y1="7.5" x2="22.0" y2="0" style="stroke-width:3" /><line x1="88.0" y1="7.5" x2="88.0" y2="0" style="stroke-width:3" /><line x1="154.0" y1="7.5" x2="154.0" y2="0" style="stroke-width:3" /><line x1="220.0" y1="7.5" x2="220.0" y2="0" style="stroke-width:3" /></g><g><g transform="translate(22.0,12.0)"><text x="-22.24" y="13.687999999999999" style="fill:rgb(16.1%,15.3%,14.1%);fill-opacity:1.0;font-family:helvetica;font-size:16.0px;font-weight:normal;stroke:none;vertical-align:baseline;white-space:pre">50000</text></g><g transform="translate(88.0,12.0)"><text x="-26.688" y="13.687999999999999" style="fill:rgb(16.1%,15.3%,14.1%);fill-opacity:1.0;font-family:helvetica;font-size:16.0px;font-weight:normal;stroke:none;vertical-align:baseline;white-space:pre">200000</text></g><g transform="translate(154.0,12.0)"><text x="-26.688" y="13.687999999999999" style="fill:rgb(16.1%,15.3%,14.1%);fill-opacity:1.0;font-family:helvetica;font-size:16.0px;font-weight:normal;stroke:none;vertical-align:baseline;white-space:pre">350000</text></g><g transform="translate(220.0,12.0)"><text x="-26.688" y="13.687999999999999" style="fill:rgb(16.1%,15.3%,14.1%);fill-opacity:1.0;font-family:helvetica;font-size:16.0px;font-weight:normal;stroke:none;vertical-align:baseline;white-space:pre">500000</text></g></g><g transform="translate(110.0,35.0)"><text x="-42.665600000000005" y="13.687999999999999" style="fill:rgb(16.1%,15.3%,14.1%);fill-opacity:1.0;font-family:helvetica;font-size:16.0px;font-weight:bold;stroke:none;vertical-align:baseline;white-space:pre">N</text><text x="-31.113600000000005" y="15.927999999999999" style="fill:rgb(16.1%,15.3%,14.1%);fill-opacity:1.0;font-family:helvetica;font-size:11.2px;font-weight:bold;stroke:none;vertical-align:baseline;white-space:pre">e</text><text x="-24.886400000000005" y="13.687999999999999" style="fill:rgb(16.1%,15.3%,14.1%);fill-opacity:1.0;font-family:helvetica;font-size:16.0px;font-weight:bold;stroke:none;vertical-align:baseline;white-space:pre"> (diploid)</text></g><g class="toyplot-coordinates-Axis-coordinates" style="visibility:hidden" transform=""><line x1="0" x2="0" y1="-6.0" y2="9.0" style="stroke:rgb(43.9%,50.2%,56.5%);stroke-opacity:1.0;stroke-width:1.0" /><text x="0" y="-12.0" style="alignment-baseline:alphabetic;fill:rgb(43.9%,50.2%,56.5%);fill-opacity:1.0;font-size:10px;font-weight:normal;stroke:none;text-anchor:middle" /></g></g><g class="toyplot-coordinates-Axis" id="tf6957c1d17f041d298722e4fde5e3285" transform="translate(65.0,235.0)rotate(-90.0)translate(0,-10.0)"><line x1="0" y1="0" x2="170.0" y2="0" style="stroke-width:3" /><g><line x1="0.0" y1="-7.5" x2="0.0" y2="0" style="stroke-width:3" /><line x1="42.5" y1="-7.5" x2="42.5" y2="0" style="stroke-width:3" /><line x1="85.0" y1="-7.5" x2="85.0" y2="0" style="stroke-width:3" /><line x1="127.5" y1="-7.5" x2="127.5" y2="0" style="stroke-width:3" /><line x1="170.0" y1="-7.5" x2="170.0" y2="0" style="stroke-width:3" /></g><g><g transform="translate(0.0,-12.0)"><text x="-11.56" y="0.0" style="fill:rgb(16.1%,15.3%,14.1%);fill-opacity:1.0;font-family:helvetica;font-size:16.0px;font-weight:normal;stroke:none;vertical-align:baseline;white-space:pre">-10</text></g><g transform="translate(42.5,-12.0)"><text x="-7.111999999999999" y="0.0" style="fill:rgb(16.1%,15.3%,14.1%);fill-opacity:1.0;font-family:helvetica;font-size:16.0px;font-weight:normal;stroke:none;vertical-align:baseline;white-space:pre">-5</text></g><g transform="translate(85.0,-12.0)"><text x="-4.448" y="0.0" style="fill:rgb(16.1%,15.3%,14.1%);fill-opacity:1.0;font-family:helvetica;font-size:16.0px;font-weight:normal;stroke:none;vertical-align:baseline;white-space:pre">0</text></g><g transform="translate(127.5,-12.0)"><text x="-4.448" y="0.0" style="fill:rgb(16.1%,15.3%,14.1%);fill-opacity:1.0;font-family:helvetica;font-size:16.0px;font-weight:normal;stroke:none;vertical-align:baseline;white-space:pre">5</text></g><g transform="translate(170.0,-12.0)"><text x="-8.896" y="0.0" style="fill:rgb(16.1%,15.3%,14.1%);fill-opacity:1.0;font-family:helvetica;font-size:16.0px;font-weight:normal;stroke:none;vertical-align:baseline;white-space:pre">10</text></g></g><g transform="translate(85.0,-35.0)"><text x="-72.464" y="0.0" style="fill:rgb(16.1%,15.3%,14.1%);fill-opacity:1.0;font-family:helvetica;font-size:16.0px;font-weight:bold;stroke:none;vertical-align:baseline;white-space:pre">Mean percent error</text></g><g class="toyplot-coordinates-Axis-coordinates" style="visibility:hidden" transform=""><line x1="0" x2="0" y1="6.0" y2="-9.0" style="stroke:rgb(43.9%,50.2%,56.5%);stroke-opacity:1.0;stroke-width:1.0" /><text x="0" y="12.0" style="alignment-baseline:hanging;fill:rgb(43.9%,50.2%,56.5%);fill-opacity:1.0;font-size:10px;font-weight:normal;stroke:none;text-anchor:middle" /></g></g></g><g class="toyplot-coordinates-Cartesian" id="tabaab040fa4d4f98ad3064356a8e8bb6"><clipPath id="t5ecacd8f21d24c5e9a56ffa7d52bb580"><rect x="55.0" y="55.0" width="240.0" height="190.0" /></clipPath><g clip-path="url(#t5ecacd8f21d24c5e9a56ffa7d52bb580)" /><g class="toyplot-coordinates-Axis" id="tb5b00f3ceaa640288f8a538083df2a7c" transform="translate(65.0,65.0)translate(0,-10.0)"><line x1="0" y1="0" x2="220.0" y2="0" style="stroke-width:3" /><g><line x1="22.000197999802" y1="-7.5" x2="22.000197999802" y2="0" style="stroke-width:3" /><line x1="88.000131999868" y1="-7.5" x2="88.000131999868" y2="0" style="stroke-width:3" /><line x1="154.000065999934" y1="-7.5" x2="154.000065999934" y2="0" style="stroke-width:3" /><line x1="220.0" y1="-7.5" x2="220.0" y2="0" style="stroke-width:3" /></g><g><g transform="translate(22.000197999802,-12.0)"><text x="-11.12" y="0.0" style="fill:rgb(16.1%,15.3%,14.1%);fill-opacity:1.0;font-family:helvetica;font-size:16.0px;font-weight:normal;stroke:none;vertical-align:baseline;white-space:pre">5.0</text></g><g transform="translate(88.000131999868,-12.0)"><text x="-11.12" y="0.0" style="fill:rgb(16.1%,15.3%,14.1%);fill-opacity:1.0;font-family:helvetica;font-size:16.0px;font-weight:normal;stroke:none;vertical-align:baseline;white-space:pre">1.2</text></g><g transform="translate(154.000065999934,-12.0)"><text x="-11.12" y="0.0" style="fill:rgb(16.1%,15.3%,14.1%);fill-opacity:1.0;font-family:helvetica;font-size:16.0px;font-weight:normal;stroke:none;vertical-align:baseline;white-space:pre">0.7</text></g><g transform="translate(220.0,-12.0)"><text x="-11.12" y="0.0" style="fill:rgb(16.1%,15.3%,14.1%);fill-opacity:1.0;font-family:helvetica;font-size:16.0px;font-weight:normal;stroke:none;vertical-align:baseline;white-space:pre">0.5</text></g></g><g transform="translate(110.0,-35.0)"><text x="-121.36" y="0.0" style="fill:rgb(16.1%,15.3%,14.1%);fill-opacity:1.0;font-family:helvetica;font-size:16.0px;font-weight:bold;stroke:none;vertical-align:baseline;white-space:pre">Sptree edge lengths (coal units)</text></g><g class="toyplot-coordinates-Axis-coordinates" style="visibility:hidden" transform=""><line x1="0" x2="0" y1="6.0" y2="-9.0" style="stroke:rgb(43.9%,50.2%,56.5%);stroke-opacity:1.0;stroke-width:1.0" /><text x="0" y="12.0" style="alignment-baseline:hanging;fill:rgb(43.9%,50.2%,56.5%);fill-opacity:1.0;font-size:10px;font-weight:normal;stroke:none;text-anchor:middle" /></g></g></g></svg>