<svg class="toyplot-canvas-Canvas" xmlns:toyplot="http://www.sandia.gov/toyplot" xmlns:xlink="http://www.w3.org/1999/xlink" xmlns="http://www.w3.org/2000/svg" width="350.0px" height="300.0px" viewBox="0 0 350.0 300.0" preserveAspectRatio="xMidYMid meet" style="background-color:transparent;border-color:#292724;border-style:none;border-width:1.0;fill:rgb(16.1%,15.3%,14.1%);fill-opacity:1.0;font-family:Helvetica;font-size:12px;opacity:1.0;stroke:rgb(16.1%,15.3%,14.1%);stroke-opacity:1.0;stroke-width:1.0" id="tf9c75edcd6c4430faf4bf4c05dfe4c46"><g class="toyplot-coordinates-Cartesian" id="t094b6077cd85419d9825feb78e712352"><clipPath id="td6796cfad9e14cbbb26809803f1522d1"><rect x="55.0" y="55.0" width="240.0" height="190.0" /></clipPath><g clip-path="url(#td6796cfad9e14cbbb26809803f1522d1)"><g class="toyplot-mark-AxisLines" style="stroke:rgb(50.2%,50.2%,50.2%);stroke-dasharray:6,6;stroke-opacity:0.7;stroke-width:2" id="tcd9cc209bfb74c53b388b838e0bd2a2e"><g class="toyplot-Series"><line class="toyplot-Datum" x1="65.0" x2="65.0" y1="65.0" y2="235.0" style="opacity:1.0;stroke:rgb(50.2%,50.2%,50.2%);stroke-dasharray:6,6;stroke-opacity:0.7;stroke-width:2" /><line class="toyplot-Datum" x1="138.33333333333334" x2="138.33333333333334" y1="65.0" y2="235.0" style="opacity:1.0;stroke:rgb(50.2%,50.2%,50.2%);stroke-dasharray:6,6;stroke-opacity:0.7;stroke-width:2" /><line class="toyplot-Datum" x1="211.66666666666666" x2="211.66666666666666" y1="65.0" y2="235.0" style="opacity:1.0;stroke:rgb(50.2%,50.2%,50.2%);stroke-dasharray:6,6;stroke-opacity:0.7;stroke-width:2" /><line class="toyplot-Datum" x1="285.0" x2="285.0" y1="65.0" y2="235.0" style="opacity:1.0;stroke:rgb(50.2%,50.2%,50.2%);stroke-dasharray:6,6;stroke-opacity:0.7;stroke-width:2" /></g></g><g class="toyplot-mark-FillBoundaries" style="fill:rgb(90.6%,54.1%,76.5%);fill-opacity:0.33;stroke:none" id="ta16d048e3198479c94667d1df11ec5c8"><polygon points="65.30266636977042,235.0 66.07740551806418,235.0 66.85214466635794,235.0 67.62688381465169,235.0 68.40162296294547,235.0 69.17636211123923,235.0 69.95110125953299,235.0 70.72584040782675,235.0 71.50057955612051,235.0 72.27531870441427,235.0 73.05005785270804,235.0 73.8247970010018,235.0 74.59953614929556,235.0 75.37427529758932,235.0 76.14901444588308,235.0 76.92375359417684,235.0 77.6984927424706,235.0 78.47323189076437,235.0 79.24797103905813,235.0 80.02271018735189,235.0 80.79744933564567,235.0 81.57218848393941,235.0 82.34692763223318,235.0 83.12166678052694,235.0 83.89640592882071,235.0 84.67114507711446,235.0 85.44588422540824,235.0 86.22062337370198,235.0 86.99536252199574,235.0 87.7701016702895,235.0 87.7701016702895,234.95900156758714 86.99536252199574,234.97950078379355 86.22062337370198,235.0 85.44588422540824,234.9385023513807 84.67114507711446,234.97950078379355 83.89640592882071,234.89750391896777 83.12166678052694,234.89750391896777 82.34692763223318,234.77450862172915 81.57218848393941,234.75400940552274 80.79744933564567,234.59001567587123 80.02271018735189,234.38502351380683 79.24797103905813,234.24152900036174 78.47323189076437,233.4215603521042 77.6984927424706,232.45809719040156 76.92375359417684,231.57663089352465 76.14901444588308,229.30121789460992 75.37427529758932,226.26733389605693 74.59953614929556,222.94646087061375 73.8247970010018,216.6941999276498 73.05005785270804,206.87507536476545 72.27531870441427,193.87857228988304 71.50057955612051,174.17882551549496 70.72584040782675,146.1768961774991 69.95110125953299,117.74448329916797 69.17636211123923,87.40564331363801 68.40162296294547,65.0 67.62688381465169,74.59363318461354 66.85214466635794,123.48426383697094 66.07740551806418,194.10406366815386 65.30266636977042,231.5356324611118" style="fill:rgb(90.6%,54.1%,76.5%);fill-opacity:0.33;opacity:1.0;stroke:none" /></g><g class="toyplot-mark-Plot" style="fill:none" id="t0dd8f2ce8a1e4c7ea22af259589018e8"><g class="toyplot-Series"><path d="M 65.30266636977042 231.5356324611118 L 66.07740551806418 194.10406366815386 L 66.85214466635794 123.48426383697094 L 67.62688381465169 74.59363318461354 L 68.40162296294547 65.0 L 69.17636211123923 87.40564331363801 L 69.95110125953299 117.74448329916797 L 70.72584040782675 146.1768961774991 L 71.50057955612051 174.17882551549496 L 72.27531870441427 193.87857228988304 L 73.05005785270804 206.87507536476545 L 73.8247970010018 216.6941999276498 L 74.59953614929556 222.94646087061375 L 75.37427529758932 226.26733389605693 L 76.14901444588308 229.30121789460992 L 76.92375359417684 231.57663089352465 L 77.6984927424706 232.45809719040156 L 78.47323189076437 233.4215603521042 L 79.24797103905813 234.24152900036174 L 80.02271018735189 234.38502351380683 L 80.79744933564567 234.59001567587123 L 81.57218848393941 234.75400940552274 L 82.34692763223318 234.77450862172915 L 83.12166678052694 234.89750391896777 L 83.89640592882071 234.89750391896777 L 84.67114507711446 234.97950078379355 L 85.44588422540824 234.9385023513807 L 86.22062337370198 235.0 L 86.99536252199574 234.97950078379355 L 87.7701016702895 234.95900156758714" style="stroke:rgb(90.6%,16.1%,54.1%);stroke-opacity:1.0;stroke-width:4.0" /></g></g><g class="toyplot-mark-FillBoundaries" style="fill:rgb(55.3%,62.7%,79.6%);fill-opacity:0.33;stroke:none" id="t89419300dec74299b26d854a609b674c"><polygon points="68.0266636977042,235.0 75.77405518064182,235.0 83.52144666357944,235.0 91.26883814651706,235.0 99.01622962945467,235.0 106.76362111239231,235.0 114.51101259532992,235.0 122.25840407826752,235.0 130.00579556120516,235.0 137.75318704414275,235.0 145.5005785270804,235.0 153.24797001001798,235.0 160.99536149295562,235.0 168.7427529758932,235.0 176.49014445883083,235.0 184.23753594176847,235.0 191.9849274247061,235.0 199.73231890764373,235.0 207.47971039058132,235.0 215.22710187351893,235.0 222.97449335645655,235.0 230.72188483939414,235.0 238.46927632233178,235.0 246.21666780526942,235.0 253.96405928820704,235.0 261.71145077114465,235.0 269.45884225408224,235.0 277.20623373701983,235.0 284.9536252199575,235.0 292.7010167028951,235.0 292.7010167028951,234.95900156758714 284.9536252199575,234.97950078379355 277.20623373701983,235.0 269.45884225408224,234.9385023513807 261.71145077114465,234.97950078379355 253.96405928820704,234.89750391896777 246.21666780526942,234.89750391896777 238.46927632233178,234.77450862172915 230.72188483939414,234.75400940552274 222.97449335645655,234.59001567587123 215.22710187351893,234.38502351380683 207.47971039058132,234.24152900036174 199.73231890764373,233.4215603521042 191.9849274247061,232.45809719040156 184.23753594176847,231.57663089352465 176.49014445883083,229.30121789460992 168.7427529758932,226.26733389605693 160.99536149295562,222.94646087061375 153.24797001001798,216.6941999276498 145.5005785270804,206.87507536476545 137.75318704414275,193.87857228988304 130.00579556120516,174.17882551549496 122.25840407826752,146.1768961774991 114.51101259532992,117.74448329916797 106.76362111239231,87.40564331363801 99.01622962945467,65.0 91.26883814651706,74.59363318461354 83.52144666357944,123.48426383697094 75.77405518064182,194.10406366815386 68.0266636977042,231.5356324611118" style="fill:rgb(55.3%,62.7%,79.6%);fill-opacity:0.33;opacity:1.0;stroke:none" /></g><g class="toyplot-mark-Plot" style="fill:none" id="t406a48bdde9b4d2fa2c910a99612bc72"><g class="toyplot-Series"><path d="M 68.0266636977042 231.5356324611118 L 75.77405518064182 194.10406366815386 L 83.52144666357944 123.48426383697094 L 91.26883814651706 74.59363318461354 L 99.01622962945467 65.0 L 106.76362111239231 87.40564331363801 L 114.51101259532992 117.74448329916797 L 122.25840407826752 146.1768961774991 L 130.00579556120516 174.17882551549496 L 137.75318704414275 193.87857228988304 L 145.5005785270804 206.87507536476545 L 153.24797001001798 216.6941999276498 L 160.99536149295562 222.94646087061375 L 168.7427529758932 226.26733389605693 L 176.49014445883083 229.30121789460992 L 184.23753594176847 231.57663089352465 L 191.9849274247061 232.45809719040156 L 199.73231890764373 233.4215603521042 L 207.47971039058132 234.24152900036174 L 215.22710187351893 234.38502351380683 L 222.97449335645655 234.59001567587123 L 230.72188483939414 234.75400940552274 L 238.46927632233178 234.77450862172915 L 246.21666780526942 234.89750391896777 L 253.96405928820704 234.89750391896777 L 261.71145077114465 234.97950078379355 L 269.45884225408224 234.9385023513807 L 277.20623373701983 235.0 L 284.9536252199575 234.97950078379355 L 292.7010167028951 234.95900156758714" style="stroke:rgb(45.9%,43.9%,70.2%);stroke-opacity:1.0;stroke-width:4.0" /></g></g></g><g class="toyplot-coordinates-Axis" id="tee5ab23b67e34aa486c260565c881df6" transform="translate(65.0,235.0)translate(0,10.0)"><line x1="0" y1="0" x2="220.0" y2="0" style="stroke-width:3" /><g><line x1="0.0" y1="7.5" x2="0.0" y2="0" style="stroke-width:3" /><line x1="73.33333333333333" y1="7.5" x2="73.33333333333333" y2="0" style="stroke-width:3" /><line x1="146.66666666666666" y1="7.5" x2="146.66666666666666" y2="0" style="stroke-width:3" /><line x1="220.0" y1="7.5" x2="220.0" y2="0" style="stroke-width:3" /></g><g><g transform="translate(0.0,12.0)"><text x="-4.448" y="13.687999999999999" style="fill:rgb(16.1%,15.3%,14.1%);fill-opacity:1.0;font-family:helvetica;font-size:16.0px;font-weight:normal;stroke:none;vertical-align:baseline;white-space:pre">0</text></g><g transform="translate(73.33333333333333,12.0)"><text x="-4.448" y="13.687999999999999" style="fill:rgb(16.1%,15.3%,14.1%);fill-opacity:1.0;font-family:helvetica;font-size:16.0px;font-weight:normal;stroke:none;vertical-align:baseline;white-space:pre">8</text></g><g transform="translate(146.66666666666666,12.0)"><text x="-8.896" y="13.687999999999999" style="fill:rgb(16.1%,15.3%,14.1%);fill-opacity:1.0;font-family:helvetica;font-size:16.0px;font-weight:normal;stroke:none;vertical-align:baseline;white-space:pre">16</text></g><g transform="translate(220.0,12.0)"><text x="-8.896" y="13.687999999999999" style="fill:rgb(16.1%,15.3%,14.1%);fill-opacity:1.0;font-family:helvetica;font-size:16.0px;font-weight:normal;stroke:none;vertical-align:baseline;white-space:pre">24</text></g></g><g transform="translate(110.0,35.0)"><text x="-109.8096" y="13.687999999999999" style="fill:rgb(16.1%,15.3%,14.1%);fill-opacity:1.0;font-family:helvetica;font-size:16.0px;font-weight:bold;stroke:none;vertical-align:baseline;white-space:pre">Genealogy sum length (x10</text><text x="98.25439999999999" y="10.328" style="fill:rgb(16.1%,15.3%,14.1%);fill-opacity:1.0;font-family:helvetica;font-size:11.2px;font-weight:bold;stroke:none;vertical-align:baseline;white-space:pre">6</text><text x="104.48159999999999" y="13.687999999999999" style="fill:rgb(16.1%,15.3%,14.1%);fill-opacity:1.0;font-family:helvetica;font-size:16.0px;font-weight:bold;stroke:none;vertical-align:baseline;white-space:pre">)</text></g><g class="toyplot-coordinates-Axis-coordinates" style="visibility:hidden" transform=""><line x1="0" x2="0" y1="-6.0" y2="9.0" style="stroke:rgb(43.9%,50.2%,56.5%);stroke-opacity:1.0;stroke-width:1.0" /><text x="0" y="-12.0" style="alignment-baseline:alphabetic;fill:rgb(43.9%,50.2%,56.5%);fill-opacity:1.0;font-size:10px;font-weight:normal;stroke:none;text-anchor:middle" /></g></g><g class="toyplot-coordinates-Axis" id="t1862c101ce454f95a1742204b3a84eff" transform="translate(65.0,235.0)rotate(-90.0)translate(0,-10.0)"><line x1="0" y1="0" x2="170.0" y2="0" style="stroke-width:3" /><g><line x1="0.0" y1="-7.5" x2="0.0" y2="0" style="stroke-width:3" /><line x1="85.0" y1="-7.5" x2="85.0" y2="0" style="stroke-width:3" /><line x1="170.0" y1="-7.5" x2="170.0" y2="0" style="stroke-width:3" /></g><g><g transform="translate(0.0,-12.0)"><text x="-11.12" y="0.0" style="fill:rgb(16.1%,15.3%,14.1%);fill-opacity:1.0;font-family:helvetica;font-size:16.0px;font-weight:normal;stroke:none;vertical-align:baseline;white-space:pre">0.0</text></g><g transform="translate(85.0,-12.0)"><text x="-11.12" y="0.0" style="fill:rgb(16.1%,15.3%,14.1%);fill-opacity:1.0;font-family:helvetica;font-size:16.0px;font-weight:normal;stroke:none;vertical-align:baseline;white-space:pre">0.5</text></g><g transform="translate(170.0,-12.0)"><text x="-11.12" y="0.0" style="fill:rgb(16.1%,15.3%,14.1%);fill-opacity:1.0;font-family:helvetica;font-size:16.0px;font-weight:normal;stroke:none;vertical-align:baseline;white-space:pre">1.0</text></g></g><g transform="translate(85.0,-35.0)"><text x="-40.456" y="0.0" style="fill:rgb(16.1%,15.3%,14.1%);fill-opacity:1.0;font-family:helvetica;font-size:16.0px;font-weight:bold;stroke:none;vertical-align:baseline;white-space:pre">Frequency</text></g><g class="toyplot-coordinates-Axis-coordinates" style="visibility:hidden" transform=""><line x1="0" x2="0" y1="6.0" y2="-9.0" style="stroke:rgb(43.9%,50.2%,56.5%);stroke-opacity:1.0;stroke-width:1.0" /><text x="0" y="12.0" style="alignment-baseline:hanging;fill:rgb(43.9%,50.2%,56.5%);fill-opacity:1.0;font-size:10px;font-weight:normal;stroke:none;text-anchor:middle" /></g></g></g></svg>