<svg class="toyplot-canvas-Canvas" xmlns:toyplot="http://www.sandia.gov/toyplot" xmlns:xlink="http://www.w3.org/1999/xlink" xmlns="http://www.w3.org/2000/svg" width="350.0px" height="300.0px" viewBox="0 0 350.0 300.0" preserveAspectRatio="xMidYMid meet" style="background-color:transparent;border-color:#292724;border-style:none;border-width:1.0;fill:rgb(16.1%,15.3%,14.1%);fill-opacity:1.0;font-family:Helvetica;font-size:12px;opacity:1.0;stroke:rgb(16.1%,15.3%,14.1%);stroke-opacity:1.0;stroke-width:1.0" id="t53d53b0aa5834380bf6efbabb6e9f7b1"><g class="toyplot-coordinates-Cartesian" id="td7dc5d11fb1d46e8ba9ee241a4a2c00a"><clipPath id="ta2abd8d527fd44d49de13918180cdd47"><rect x="55.0" y="55.0" width="240.0" height="190.0" /></clipPath><g clip-path="url(#ta2abd8d527fd44d49de13918180cdd47)"><g class="toyplot-mark-AxisLines" style="stroke:rgb(50.2%,50.2%,50.2%);stroke-dasharray:6,6;stroke-opacity:0.7;stroke-width:2" id="t2b70b26eb5324870a90099bfaad38993"><g class="toyplot-Series"><line class="toyplot-Datum" x1="65.0" x2="65.0" y1="65.0" y2="235.0" style="opacity:1.0;stroke:rgb(50.2%,50.2%,50.2%);stroke-dasharray:6,6;stroke-opacity:0.7;stroke-width:2" /><line class="toyplot-Datum" x1="138.33333333333334" x2="138.33333333333334" y1="65.0" y2="235.0" style="opacity:1.0;stroke:rgb(50.2%,50.2%,50.2%);stroke-dasharray:6,6;stroke-opacity:0.7;stroke-width:2" /><line class="toyplot-Datum" x1="211.66666666666666" x2="211.66666666666666" y1="65.0" y2="235.0" style="opacity:1.0;stroke:rgb(50.2%,50.2%,50.2%);stroke-dasharray:6,6;stroke-opacity:0.7;stroke-width:2" /><line class="toyplot-Datum" x1="285.0" x2="285.0" y1="65.0" y2="235.0" style="opacity:1.0;stroke:rgb(50.2%,50.2%,50.2%);stroke-dasharray:6,6;stroke-opacity:0.7;stroke-width:2" /></g></g><g class="toyplot-mark-FillBoundaries" style="fill:rgb(2%,18.8%,38%);fill-opacity:0.33;stroke:none" id="t35d9d4eff9384dae8db0cf010bd7a277"><polygon points="74.96265741112721,117.3076923076923 75.53177297979522,117.3076923076923 76.10088854846323,117.3076923076923 76.67000411713126,117.3076923076923 77.23911968579927,117.3076923076923 77.80823525446728,117.3076923076923 78.37735082313529,117.3076923076923 78.9464663918033,117.3076923076923 79.51558196047131,117.3076923076923 80.08469752913932,117.3076923076923 80.65381309780733,117.3076923076923 81.22292866647535,117.3076923076923 81.79204423514336,117.3076923076923 82.36115980381138,117.3076923076923 82.93027537247939,117.3076923076923 83.4993909411474,117.3076923076923 84.06850650981542,117.3076923076923 84.63762207848342,117.3076923076923 85.20673764715144,117.3076923076923 85.77585321581944,117.3076923076923 86.34496878448746,117.3076923076923 86.91408435315547,117.3076923076923 87.48319992182348,117.3076923076923 88.0523154904915,117.3076923076923 88.6214310591595,117.3076923076923 89.19054662782753,117.3076923076923 89.75966219649554,117.3076923076923 90.32877776516355,117.3076923076923 90.89789333383156,117.3076923076923 91.46700890249957,117.3076923076923 92.0361244711676,117.3076923076923 92.60524003983559,117.3076923076923 93.17435560850362,117.3076923076923 93.74347117717163,117.3076923076923 94.31258674583964,117.3076923076923 94.88170231450763,117.3076923076923 95.45081788317566,117.3076923076923 96.01993345184368,117.3076923076923 96.58904902051168,117.3076923076923 97.1581645891797,117.3076923076923 97.1581645891797,117.25782796802815 96.58904902051168,117.3076923076923 96.01993345184368,117.3076923076923 95.45081788317566,117.3076923076923 94.88170231450763,117.3076923076923 94.31258674583964,117.3076923076923 93.74347117717163,117.25782796802815 93.17435560850362,117.3076923076923 92.60524003983559,117.20796362836401 92.0361244711676,117.05837060937156 91.46700890249957,117.20796362836401 90.89789333383156,117.10823494903573 90.32877776516355,117.15809928869987 89.75966219649554,116.45999853340179 89.19054662782753,117.15809928869987 88.6214310591595,116.60959155239422 88.0523154904915,116.3602698540735 87.48319992182348,115.71203343843956 86.91408435315547,115.26325438146219 86.34496878448746,114.56515362616413 85.77585321581944,114.3656962675075 85.20673764715144,111.82261494463592 84.63762207848342,111.67302192564347 84.06850650981542,108.93048324411527 83.4993909411474,106.88604531788516 82.93027537247939,102.7473051257608 82.36115980381138,100.35381682188165 81.79204423514336,93.92131700520642 81.22292866647535,87.08990247121801 80.65381309780733,81.80428246681822 80.08469752913932,76.11974774510523 79.51558196047131,68.29104641783384 78.9464663918033,65.0 78.37735082313529,65.54850773630564 77.80823525446728,69.68724792843 77.23911968579927,77.66554227469385 76.67000411713126,86.54139473491236 76.10088854846323,101.15164625650803 75.53177297979522,111.52342890665102 74.96265741112721,116.31040551440931" style="fill:rgb(2%,18.8%,38%);fill-opacity:0.33;opacity:1.0;stroke:none" /></g><g class="toyplot-mark-Plot" style="fill:none;stroke-opacity:0.7" id="t8a013c8f08b242a88482b5d26db53190"><g class="toyplot-Series"><path d="M 74.96265741112721 116.31040551440931 L 75.53177297979522 111.52342890665102 L 76.10088854846323 101.15164625650803 L 76.67000411713126 86.54139473491236 L 77.23911968579927 77.66554227469385 L 77.80823525446728 69.68724792843 L 78.37735082313529 65.54850773630564 L 78.9464663918033 65.0 L 79.51558196047131 68.29104641783384 L 80.08469752913932 76.11974774510523 L 80.65381309780733 81.80428246681822 L 81.22292866647535 87.08990247121801 L 81.79204423514336 93.92131700520642 L 82.36115980381138 100.35381682188165 L 82.93027537247939 102.7473051257608 L 83.4993909411474 106.88604531788516 L 84.06850650981542 108.93048324411527 L 84.63762207848342 111.67302192564347 L 85.20673764715144 111.82261494463592 L 85.77585321581944 114.3656962675075 L 86.34496878448746 114.56515362616413 L 86.91408435315547 115.26325438146219 L 87.48319992182348 115.71203343843956 L 88.0523154904915 116.3602698540735 L 88.6214310591595 116.60959155239422 L 89.19054662782753 117.15809928869987 L 89.75966219649554 116.45999853340179 L 90.32877776516355 117.15809928869987 L 90.89789333383156 117.10823494903573 L 91.46700890249957 117.20796362836401 L 92.0361244711676 117.05837060937156 L 92.60524003983559 117.20796362836401 L 93.17435560850362 117.3076923076923 L 93.74347117717163 117.25782796802815 L 94.31258674583964 117.3076923076923 L 94.88170231450763 117.3076923076923 L 95.45081788317566 117.3076923076923 L 96.01993345184368 117.3076923076923 L 96.58904902051168 117.3076923076923 L 97.1581645891797 117.25782796802815" style="stroke:rgb(0%,0%,0%);stroke-opacity:0.7;stroke-width:2.0" /></g></g><g class="toyplot-mark-FillBoundaries" style="fill:rgb(12.9%,40%,67.5%);fill-opacity:0.33;stroke:none" id="t0ccda6496705408a996de37c61ad9832"><polygon points="75.72070063026379,130.38461538461536 76.80919483776331,130.38461538461536 77.89768904526284,130.38461538461536 78.98618325276236,130.38461538461536 80.07467746026188,130.38461538461536 81.16317166776142,130.38461538461536 82.25166587526093,130.38461538461536 83.34016008276046,130.38461538461536 84.42865429025998,130.38461538461536 85.51714849775951,130.38461538461536 86.60564270525904,130.38461538461536 87.69413691275855,130.38461538461536 88.78263112025809,130.38461538461536 89.87112532775761,130.38461538461536 90.95961953525713,130.38461538461536 92.04811374275667,130.38461538461536 93.13660795025618,130.38461538461536 94.22510215775571,130.38461538461536 95.31359636525522,130.38461538461536 96.40209057275476,130.38461538461536 97.4905847802543,130.38461538461536 98.5790789877538,130.38461538461536 99.66757319525334,130.38461538461536 100.75606740275286,130.38461538461536 101.84456161025238,130.38461538461536 102.93305581775192,130.38461538461536 104.02155002525143,130.38461538461536 105.11004423275095,130.38461538461536 106.19853844025049,130.38461538461536 107.28703264775001,130.38461538461536 108.37552685524955,130.38461538461536 109.46402106274905,130.38461538461536 110.55251527024859,130.38461538461536 111.64100947774813,130.38461538461536 112.72950368524764,130.38461538461536 113.81799789274717,130.38461538461536 114.90649210024668,130.38461538461536 115.9949863077462,130.38461538461536 117.08348051524572,130.38461538461536 118.17197472274526,130.38461538461536 118.17197472274526,130.33220286727303 117.08348051524572,130.38461538461536 115.9949863077462,130.38461538461536 114.90649210024668,130.38461538461536 113.81799789274717,130.38461538461536 112.72950368524764,130.33220286727303 111.64100947774813,130.33220286727303 110.55251527024859,130.22737783258825 109.46402106274905,130.33220286727303 108.37552685524955,130.22737783258825 107.28703264775001,130.1225527979035 106.19853844025049,130.01772776321874 105.11004423275095,130.17496531524588 104.02155002525143,129.7032526591645 102.93305581775192,129.5984276244797 101.84456161025238,129.3887775551102 100.75606740275286,129.28395252042546 99.66757319525334,127.81640203483892 98.5790789877538,128.34052720826267 97.4905847802543,127.135039309388 96.40209057275476,125.24818868506242 95.31359636525522,125.19577616772006 94.22510215775571,123.41375057807923 93.13660795025618,120.42623708956374 92.04811374275667,117.64837367041774 90.95961953525713,114.03190997379377 89.87112532775761,107.2182827192847 88.78263112025809,100.6667180514876 87.69413691275855,97.52196701094496 86.60564270525904,92.75242793278863 85.51714849775951,87.30152612918145 84.42865429025998,81.74579929088947 83.34016008276046,78.81069831971635 82.25166587526093,78.07692307692307 81.16317166776142,81.43132418683521 80.07467746026188,92.01865268999538 78.98618325276236,102.9204562972098 77.89768904526284,115.60428549406505 76.80919483776331,125.45783875443195 75.72070063026379,128.86465238168645" style="fill:rgb(12.9%,40%,67.5%);fill-opacity:0.33;opacity:1.0;stroke:none" /></g><g class="toyplot-mark-Plot" style="fill:none;stroke-opacity:0.7" id="t7f61a2ef38b24b99ac63fd638a36403c"><g class="toyplot-Series"><path d="M 75.72070063026379 128.86465238168645 L 76.80919483776331 125.45783875443195 L 77.89768904526284 115.60428549406505 L 78.98618325276236 102.9204562972098 L 80.07467746026188 92.01865268999538 L 81.16317166776142 81.43132418683521 L 82.25166587526093 78.07692307692307 L 83.34016008276046 78.81069831971635 L 84.42865429025998 81.74579929088947 L 85.51714849775951 87.30152612918145 L 86.60564270525904 92.75242793278863 L 87.69413691275855 97.52196701094496 L 88.78263112025809 100.6667180514876 L 89.87112532775761 107.2182827192847 L 90.95961953525713 114.03190997379377 L 92.04811374275667 117.64837367041774 L 93.13660795025618 120.42623708956374 L 94.22510215775571 123.41375057807923 L 95.31359636525522 125.19577616772006 L 96.40209057275476 125.24818868506242 L 97.4905847802543 127.135039309388 L 98.5790789877538 128.34052720826267 L 99.66757319525334 127.81640203483892 L 100.75606740275286 129.28395252042546 L 101.84456161025238 129.3887775551102 L 102.93305581775192 129.5984276244797 L 104.02155002525143 129.7032526591645 L 105.11004423275095 130.17496531524588 L 106.19853844025049 130.01772776321874 L 107.28703264775001 130.1225527979035 L 108.37552685524955 130.22737783258825 L 109.46402106274905 130.33220286727303 L 110.55251527024859 130.22737783258825 L 111.64100947774813 130.33220286727303 L 112.72950368524764 130.33220286727303 L 113.81799789274717 130.38461538461536 L 114.90649210024668 130.38461538461536 L 115.9949863077462 130.38461538461536 L 117.08348051524572 130.38461538461536 L 118.17197472274526 130.33220286727303" style="stroke:rgb(0%,0%,0%);stroke-opacity:0.7;stroke-width:2.0" /></g></g><g class="toyplot-mark-FillBoundaries" style="fill:rgb(26.3%,57.6%,76.5%);fill-opacity:0.33;stroke:none" id="tef26cb9d1fe54c5bb1a580b25f707af1"><polygon points="76.61321924124461,143.46153846153845 78.19707444768243,143.46153846153845 79.78092965412023,143.46153846153845 81.36478486055803,143.46153846153845 82.94864006699584,143.46153846153845 84.53249527343365,143.46153846153845 86.11635047987146,143.46153846153845 87.70020568630926,143.46153846153845 89.28406089274708,143.46153846153845 90.86791609918487,143.46153846153845 92.45177130562269,143.46153846153845 94.03562651206049,143.46153846153845 95.61948171849829,143.46153846153845 97.20333692493611,143.46153846153845 98.78719213137391,143.46153846153845 100.37104733781172,143.46153846153845 101.95490254424953,143.46153846153845 103.53875775068734,143.46153846153845 105.12261295712514,143.46153846153845 106.70646816356295,143.46153846153845 108.29032337000075,143.46153846153845 109.87417857643857,143.46153846153845 111.45803378287637,143.46153846153845 113.04188898931417,143.46153846153845 114.62574419575198,143.46153846153845 116.20959940218978,143.46153846153845 117.79345460862758,143.46153846153845 119.3773098150654,143.46153846153845 120.96116502150323,143.46153846153845 122.54502022794102,143.46153846153845 124.12887543437884,143.46153846153845 125.71273064081663,143.46153846153845 127.29658584725445,143.46153846153845 128.88044105369227,143.46153846153845 130.46429626013006,143.46153846153845 132.04815146656787,143.46153846153845 133.63200667300566,143.46153846153845 135.21586187944348,143.46153846153845 136.7997170858813,143.46153846153845 138.3835722923191,143.46153846153845 138.3835722923191,143.41040679750358 136.7997170858813,143.46153846153845 135.21586187944348,143.46153846153845 133.63200667300566,143.41040679750358 132.04815146656787,143.46153846153845 130.46429626013006,143.46153846153845 128.88044105369227,143.41040679750358 127.29658584725445,143.41040679750358 125.71273064081663,143.3081434694338 124.12887543437884,143.205880141364 122.54502022794102,143.25701180539892 120.96116502150323,143.25701180539892 119.3773098150654,143.05248514925935 117.79345460862758,142.6434318369802 116.20959940218978,142.69456350101512 114.62574419575198,142.02985186856154 113.04188898931417,141.97872020452667 111.45803378287637,141.7741935483871 109.87417857643857,139.7289269869915 108.29032337000075,139.3198736747124 106.70646816356295,139.3198736747124 105.12261295712514,137.32573877735166 103.53875775068734,135.6895255282352 101.95490254424953,133.08181066245584 100.37104733781172,129.50259418001355 98.78719213137391,126.48582600195502 97.20333692493611,121.01473795022181 95.61948171849829,116.36175652304685 94.03562651206049,109.10106023009249 92.45177130562269,102.19828558538234 90.86791609918487,97.44304083013759 89.28406089274708,98.0054891345214 87.70020568630926,91.15384615384616 86.11635047987146,98.77246409504474 84.53249527343365,100.25528235205653 82.94864006699584,107.41371531694111 81.36478486055803,118.96947138882624 79.78092965412023,130.218437476502 78.19707444768243,138.96195202646817 76.61321924124461,142.13211519663133" style="fill:rgb(26.3%,57.6%,76.5%);fill-opacity:0.33;opacity:1.0;stroke:none" /></g><g class="toyplot-mark-Plot" style="fill:none;stroke-opacity:0.7" id="tdb01be60abee4e51959d2e39f0f9c91f"><g class="toyplot-Series"><path d="M 76.61321924124461 142.13211519663133 L 78.19707444768243 138.96195202646817 L 79.78092965412023 130.218437476502 L 81.36478486055803 118.96947138882624 L 82.94864006699584 107.41371531694111 L 84.53249527343365 100.25528235205653 L 86.11635047987146 98.77246409504474 L 87.70020568630926 91.15384615384616 L 89.28406089274708 98.0054891345214 L 90.86791609918487 97.44304083013759 L 92.45177130562269 102.19828558538234 L 94.03562651206049 109.10106023009249 L 95.61948171849829 116.36175652304685 L 97.20333692493611 121.01473795022181 L 98.78719213137391 126.48582600195502 L 100.37104733781172 129.50259418001355 L 101.95490254424953 133.08181066245584 L 103.53875775068734 135.6895255282352 L 105.12261295712514 137.32573877735166 L 106.70646816356295 139.3198736747124 L 108.29032337000075 139.3198736747124 L 109.87417857643857 139.7289269869915 L 111.45803378287637 141.7741935483871 L 113.04188898931417 141.97872020452667 L 114.62574419575198 142.02985186856154 L 116.20959940218978 142.69456350101512 L 117.79345460862758 142.6434318369802 L 119.3773098150654 143.05248514925935 L 120.96116502150323 143.25701180539892 L 122.54502022794102 143.25701180539892 L 124.12887543437884 143.205880141364 L 125.71273064081663 143.3081434694338 L 127.29658584725445 143.41040679750358 L 128.88044105369227 143.41040679750358 L 130.46429626013006 143.46153846153845 L 132.04815146656787 143.46153846153845 L 133.63200667300566 143.41040679750358 L 135.21586187944348 143.46153846153845 L 136.7997170858813 143.46153846153845 L 138.3835722923191 143.41040679750358" style="stroke:rgb(0%,0%,0%);stroke-opacity:0.7;stroke-width:2.0" /></g></g><g class="toyplot-mark-FillBoundaries" style="fill:rgb(57.3%,77.3%,87.1%);fill-opacity:0.33;stroke:none" id="t90a2fa2a8b714c60b2b9b87801571c34"><polygon points="76.62185368837578,156.53846153846155 78.95817891863298,156.53846153846155 81.29450414889017,156.53846153846155 83.63082937914737,156.53846153846155 85.96715460940456,156.53846153846155 88.30347983966176,156.53846153846155 90.63980506991895,156.53846153846155 92.97613030017615,156.53846153846155 95.31245553043334,156.53846153846155 97.64878076069053,156.53846153846155 99.98510599094773,156.53846153846155 102.32143122120493,156.53846153846155 104.65775645146212,156.53846153846155 106.99408168171932,156.53846153846155 109.33040691197652,156.53846153846155 111.66673214223371,156.53846153846155 114.0030573724909,156.53846153846155 116.33938260274809,156.53846153846155 118.6757078330053,156.53846153846155 121.01203306326249,156.53846153846155 123.34835829351968,156.53846153846155 125.6846835237769,156.53846153846155 128.02100875403409,156.53846153846155 130.35733398429127,156.53846153846155 132.69365921454846,156.53846153846155 135.02998444480568,156.53846153846155 137.36630967506287,156.53846153846155 139.70263490532005,156.53846153846155 142.03896013557724,156.53846153846155 144.37528536583446,156.53846153846155 146.71161059609165,156.53846153846155 149.04793582634886,156.53846153846155 151.38426105660602,156.53846153846155 153.72058628686324,156.53846153846155 156.05691151712043,156.53846153846155 158.3932367473776,156.53846153846155 160.72956197763483,156.53846153846155 163.06588720789205,156.53846153846155 165.4022124381492,156.53846153846155 167.7385376684064,156.53846153846155 167.7385376684064,156.49233482566817 165.4022124381492,156.53846153846155 163.06588720789205,156.53846153846155 160.72956197763483,156.49233482566817 158.3932367473776,156.53846153846155 156.05691151712043,156.49233482566817 153.72058628686324,156.53846153846155 151.38426105660602,156.49233482566817 149.04793582634886,156.49233482566817 146.71161059609165,156.49233482566817 144.37528536583446,156.30782797449464 142.03896013557724,156.353954687288 139.70263490532005,156.16944783611453 137.36630967506287,156.07719441052774 135.02998444480568,155.89268755935424 132.69365921454846,155.98494098494098 130.35733398429127,155.47754714421382 128.02100875403409,155.47754714421382 125.6846835237769,154.73951973951975 123.34835829351968,154.32437932437932 121.01203306326249,153.67860534527202 118.6757078330053,152.2025505358839 116.33938260274809,152.2025505358839 114.0030573724909,148.9736806403473 111.66673214223371,147.2208655541989 109.33040691197652,144.77614977614977 106.99408168171932,140.25573192239858 104.65775645146212,134.12087912087912 102.32143122120493,131.44552977886312 99.98510599094773,122.35856735856734 97.64878076069053,114.93216659883325 95.31245553043334,108.5205535205535 92.97613030017615,104.23076923076923 90.63980506991895,106.02971102971102 88.30347983966176,110.0888617555284 85.96715460940456,122.35856735856734 83.63082937914737,131.53778320444985 81.29450414889017,144.63776963776965 78.95817891863298,152.66381766381767 76.62185368837578,156.12332112332112" style="fill:rgb(57.3%,77.3%,87.1%);fill-opacity:0.33;opacity:1.0;stroke:none" /></g><g class="toyplot-mark-Plot" style="fill:none;stroke-opacity:0.7" id="t4792c7f12d3143dab03b10f8dfabb58c"><g class="toyplot-Series"><path d="M 76.62185368837578 156.12332112332112 L 78.95817891863298 152.66381766381767 L 81.29450414889017 144.63776963776965 L 83.63082937914737 131.53778320444985 L 85.96715460940456 122.35856735856734 L 88.30347983966176 110.0888617555284 L 90.63980506991895 106.02971102971102 L 92.97613030017615 104.23076923076923 L 95.31245553043334 108.5205535205535 L 97.64878076069053 114.93216659883325 L 99.98510599094773 122.35856735856734 L 102.32143122120493 131.44552977886312 L 104.65775645146212 134.12087912087912 L 106.99408168171932 140.25573192239858 L 109.33040691197652 144.77614977614977 L 111.66673214223371 147.2208655541989 L 114.0030573724909 148.9736806403473 L 116.33938260274809 152.2025505358839 L 118.6757078330053 152.2025505358839 L 121.01203306326249 153.67860534527202 L 123.34835829351968 154.32437932437932 L 125.6846835237769 154.73951973951975 L 128.02100875403409 155.47754714421382 L 130.35733398429127 155.47754714421382 L 132.69365921454846 155.98494098494098 L 135.02998444480568 155.89268755935424 L 137.36630967506287 156.07719441052774 L 139.70263490532005 156.16944783611453 L 142.03896013557724 156.353954687288 L 144.37528536583446 156.30782797449464 L 146.71161059609165 156.49233482566817 L 149.04793582634886 156.49233482566817 L 151.38426105660602 156.49233482566817 L 153.72058628686324 156.53846153846155 L 156.05691151712043 156.49233482566817 L 158.3932367473776 156.53846153846155 L 160.72956197763483 156.49233482566817 L 163.06588720789205 156.53846153846155 L 165.4022124381492 156.53846153846155 L 167.7385376684064 156.49233482566817" style="stroke:rgb(0%,0%,0%);stroke-opacity:0.7;stroke-width:2.0" /></g></g><g class="toyplot-mark-FillBoundaries" style="fill:rgb(82%,89.8%,94.1%);fill-opacity:0.33;stroke:none" id="t1789a1387eeb44db97be0e06719e2dac"><polygon points="78.30040752967696,169.6153846153846 81.08745912171901,169.6153846153846 83.87451071376105,169.6153846153846 86.6615623058031,169.6153846153846 89.44861389784515,169.6153846153846 92.23566548988723,169.6153846153846 95.02271708192927,169.6153846153846 97.80976867397132,169.6153846153846 100.59682026601335,169.6153846153846 103.38387185805541,169.6153846153846 106.17092345009746,169.6153846153846 108.95797504213951,169.6153846153846 111.74502663418156,169.6153846153846 114.53207822622362,169.6153846153846 117.31912981826568,169.6153846153846 120.10618141030773,169.6153846153846 122.89323300234977,169.6153846153846 125.68028459439182,169.6153846153846 128.46733618643387,169.6153846153846 131.25438777847592,169.6153846153846 134.041439370518,169.6153846153846 136.82849096256,169.6153846153846 139.6155425546021,169.6153846153846 142.40259414664413,169.6153846153846 145.18964573868618,169.6153846153846 147.97669733072823,169.6153846153846 150.7637489227703,169.6153846153846 153.55080051481235,169.6153846153846 156.3378521068544,169.6153846153846 159.12490369889645,169.6153846153846 161.9119552909385,169.6153846153846 164.69900688298054,169.6153846153846 167.4860584750226,169.6153846153846 170.27311006706464,169.6153846153846 173.0601616591067,169.6153846153846 175.84721325114876,169.6153846153846 178.6342648431908,169.6153846153846 181.42131643523285,169.6153846153846 184.20836802727493,169.6153846153846 186.99541961931698,169.6153846153846 186.99541961931698,169.5675713683026 184.20836802727493,169.6153846153846 181.42131643523285,169.6153846153846 178.6342648431908,169.6153846153846 175.84721325114876,169.47194487413861 173.0601616591067,169.6153846153846 170.27311006706464,169.6153846153846 167.4860584750226,169.5675713683026 164.69900688298054,169.6153846153846 161.9119552909385,169.5675713683026 159.12490369889645,169.5675713683026 156.3378521068544,169.3285051328927 153.55080051481235,169.2806918858107 150.7637489227703,169.42413162705668 147.97669733072823,169.18506539164673 145.18964573868618,168.85037266207286 142.40259414664413,168.46786668541696 139.6155425546021,168.276613697089 136.82849096256,167.84629447335115 134.041439370518,167.2725355083673 131.25438777847592,166.50752355505557 128.46733618643387,165.88595134298976 125.68028459439182,163.25622275348053 122.89323300234977,162.15651807059484 120.10618141030773,161.34369287020107 117.31912981826568,155.03234425537897 114.53207822622362,154.12389256082125 111.74502663418156,149.05568837013078 108.95797504213951,142.26620728448881 106.17092345009746,135.52453944592884 103.38387185805541,127.3484741949093 100.59682026601335,122.18464351005485 97.80976867397132,117.3076923076923 95.02271708192927,117.3076923076923 92.23566548988723,122.85402896920263 89.44861389784515,131.69947967936997 86.6615623058031,143.79623119111238 83.87451071376105,153.6457600900014 81.08745912171901,163.63872873013642 78.30040752967696,168.18098720292505" style="fill:rgb(82%,89.8%,94.1%);fill-opacity:0.33;opacity:1.0;stroke:none" /></g><g class="toyplot-mark-Plot" style="fill:none;stroke-opacity:0.7" id="tad32d4515cb347b1b04e4c49bbd4a168"><g class="toyplot-Series"><path d="M 78.30040752967696 168.18098720292505 L 81.08745912171901 163.63872873013642 L 83.87451071376105 153.6457600900014 L 86.6615623058031 143.79623119111238 L 89.44861389784515 131.69947967936997 L 92.23566548988723 122.85402896920263 L 95.02271708192927 117.3076923076923 L 97.80976867397132 117.3076923076923 L 100.59682026601335 122.18464351005485 L 103.38387185805541 127.3484741949093 L 106.17092345009746 135.52453944592884 L 108.95797504213951 142.26620728448881 L 111.74502663418156 149.05568837013078 L 114.53207822622362 154.12389256082125 L 117.31912981826568 155.03234425537897 L 120.10618141030773 161.34369287020107 L 122.89323300234977 162.15651807059484 L 125.68028459439182 163.25622275348053 L 128.46733618643387 165.88595134298976 L 131.25438777847592 166.50752355505557 L 134.041439370518 167.2725355083673 L 136.82849096256 167.84629447335115 L 139.6155425546021 168.276613697089 L 142.40259414664413 168.46786668541696 L 145.18964573868618 168.85037266207286 L 147.97669733072823 169.18506539164673 L 150.7637489227703 169.42413162705668 L 153.55080051481235 169.2806918858107 L 156.3378521068544 169.3285051328927 L 159.12490369889645 169.5675713683026 L 161.9119552909385 169.5675713683026 L 164.69900688298054 169.6153846153846 L 167.4860584750226 169.5675713683026 L 170.27311006706464 169.6153846153846 L 173.0601616591067 169.6153846153846 L 175.84721325114876 169.47194487413861 L 178.6342648431908 169.6153846153846 L 181.42131643523285 169.6153846153846 L 184.20836802727493 169.6153846153846 L 186.99541961931698 169.5675713683026" style="stroke:rgb(0%,0%,0%);stroke-opacity:0.7;stroke-width:2.0" /></g></g><g class="toyplot-mark-FillBoundaries" style="fill:rgb(99.2%,85.9%,78%);fill-opacity:0.33;stroke:none" id="t25ed201ff906452eac3baa385b27cb3d"><polygon points="77.65040145859983,182.69230769230768 81.00799539188407,182.69230769230768 84.3655893251683,182.69230769230768 87.72318325845254,182.69230769230768 91.08077719173676,182.69230769230768 94.438371125021,182.69230769230768 97.79596505830524,182.69230769230768 101.15355899158948,182.69230769230768 104.5111529248737,182.69230769230768 107.86874685815795,182.69230769230768 111.22634079144217,182.69230769230768 114.58393472472639,182.69230769230768 117.94152865801065,182.69230769230768 121.29912259129487,182.69230769230768 124.65671652457911,182.69230769230768 128.01431045786336,182.69230769230768 131.37190439114758,182.69230769230768 134.7294983244318,182.69230769230768 138.08709225771605,182.69230769230768 141.44468619100027,182.69230769230768 144.80228012428452,182.69230769230768 148.15987405756874,182.69230769230768 151.517467990853,182.69230769230768 154.87506192413724,182.69230769230768 158.23265585742146,182.69230769230768 161.59024979070568,182.69230769230768 164.94784372398993,182.69230769230768 168.30543765727415,182.69230769230768 171.6630315905584,182.69230769230768 175.02062552384263,182.69230769230768 178.37821945712687,182.69230769230768 181.7358133904111,182.69230769230768 185.09340732369535,182.69230769230768 188.45100125697957,182.69230769230768 191.80859519026382,182.69230769230768 195.16618912354804,182.69230769230768 198.5237830568323,182.69230769230768 201.8813769901165,182.69230769230768 205.23897092340076,182.69230769230768 208.59656485668498,182.69230769230768 208.59656485668498,182.64382975689742 205.23897092340076,182.69230769230768 201.8813769901165,182.64382975689742 198.5237830568323,182.69230769230768 195.16618912354804,182.69230769230768 191.80859519026382,182.64382975689742 188.45100125697957,182.64382975689742 185.09340732369535,182.69230769230768 181.7358133904111,182.49839595066658 178.37821945712687,182.49839595066658 175.02062552384263,182.49839595066658 171.6630315905584,182.64382975689742 168.30543765727415,182.25600627361518 164.94784372398993,182.20752833820487 161.59024979070568,182.20752833820487 158.23265585742146,181.72274898410208 154.87506192413724,181.6742710486918 151.517467990853,181.62579311328153 148.15987405756874,181.189491694589 144.80228012428452,180.7531902758965 141.44468619100027,179.20189634276753 138.08709225771605,178.37777144079277 134.7294983244318,176.00235260568903 131.37190439114758,174.25714693091896 128.01431045786336,171.15455906466102 124.65671652457911,170.08804448563487 121.29912259129487,164.02830255934987 117.94152865801065,160.73180295145076 114.58393472472639,150.45448064447137 111.22634079144217,147.2064589719826 107.86874685815795,137.94717330861909 104.5111529248737,132.66307834889855 101.15355899158948,130.38461538461536 97.79596505830524,130.96635060953878 94.438371125021,137.22000427746488 91.08077719173676,144.2493049119555 87.72318325845254,159.61681043701435 84.3655893251683,171.88172809581522 81.00799539188407,179.2503742781778 77.65040145859983,182.11057246738434" style="fill:rgb(99.2%,85.9%,78%);fill-opacity:0.33;opacity:1.0;stroke:none" /></g><g class="toyplot-mark-Plot" style="fill:none;stroke-opacity:0.7" id="tda830261c4d148c9a4f974476887a6bf"><g class="toyplot-Series"><path d="M 77.65040145859983 182.11057246738434 L 81.00799539188407 179.2503742781778 L 84.3655893251683 171.88172809581522 L 87.72318325845254 159.61681043701435 L 91.08077719173676 144.2493049119555 L 94.438371125021 137.22000427746488 L 97.79596505830524 130.96635060953878 L 101.15355899158948 130.38461538461536 L 104.5111529248737 132.66307834889855 L 107.86874685815795 137.94717330861909 L 111.22634079144217 147.2064589719826 L 114.58393472472639 150.45448064447137 L 117.94152865801065 160.73180295145076 L 121.29912259129487 164.02830255934987 L 124.65671652457911 170.08804448563487 L 128.01431045786336 171.15455906466102 L 131.37190439114758 174.25714693091896 L 134.7294983244318 176.00235260568903 L 138.08709225771605 178.37777144079277 L 141.44468619100027 179.20189634276753 L 144.80228012428452 180.7531902758965 L 148.15987405756874 181.189491694589 L 151.517467990853 181.62579311328153 L 154.87506192413724 181.6742710486918 L 158.23265585742146 181.72274898410208 L 161.59024979070568 182.20752833820487 L 164.94784372398993 182.20752833820487 L 168.30543765727415 182.25600627361518 L 171.6630315905584 182.64382975689742 L 175.02062552384263 182.49839595066658 L 178.37821945712687 182.49839595066658 L 181.7358133904111 182.49839595066658 L 185.09340732369535 182.69230769230768 L 188.45100125697957 182.64382975689742 L 191.80859519026382 182.64382975689742 L 195.16618912354804 182.69230769230768 L 198.5237830568323 182.69230769230768 L 201.8813769901165 182.64382975689742 L 205.23897092340076 182.69230769230768 L 208.59656485668498 182.64382975689742" style="stroke:rgb(0%,0%,0%);stroke-opacity:0.7;stroke-width:2.0" /></g></g><g class="toyplot-mark-FillBoundaries" style="fill:rgb(95.7%,64.7%,51%);fill-opacity:0.33;stroke:none" id="t8680e1a4274044e7b24a80f3f73e9fd9"><polygon points="77.79267428430691,195.76923076923075 81.68921238978903,195.76923076923075 85.58575049527116,195.76923076923075 89.48228860075326,195.76923076923075 93.37882670623537,195.76923076923075 97.2753648117175,195.76923076923075 101.1719029171996,195.76923076923075 105.06844102268172,195.76923076923075 108.96497912816383,195.76923076923075 112.86151723364594,195.76923076923075 116.75805533912806,195.76923076923075 120.65459344461019,195.76923076923075 124.55113155009226,195.76923076923075 128.4476696555744,195.76923076923075 132.3442077610565,195.76923076923075 136.24074586653862,195.76923076923075 140.13728397202075,195.76923076923075 144.03382207750286,195.76923076923075 147.93036018298497,195.76923076923075 151.8268982884671,195.76923076923075 155.7234363939492,195.76923076923075 159.61997449943132,195.76923076923075 163.51651260491343,195.76923076923075 167.41305071039554,195.76923076923075 171.30958881587765,195.76923076923075 175.20612692135978,195.76923076923075 179.1026650268419,195.76923076923075 182.99920313232403,195.76923076923075 186.8957412378061,195.76923076923075 190.79227934328824,195.76923076923075 194.68881744877032,195.76923076923075 198.58535555425243,195.76923076923075 202.48189365973457,195.76923076923075 206.37843176521667,195.76923076923075 210.2749698706988,195.76923076923075 214.1715079761809,195.76923076923075 218.06804608166303,195.76923076923075 221.96458418714514,195.76923076923075 225.86112229262727,195.76923076923075 229.75766039810935,195.76923076923075 229.75766039810935,195.72452333990796 225.86112229262727,195.76923076923075 221.96458418714514,195.76923076923075 218.06804608166303,195.76923076923075 214.1715079761809,195.72452333990796 210.2749698706988,195.76923076923075 206.37843176521667,195.72452333990796 202.48189365973457,195.67981591058515 198.58535555425243,195.72452333990796 194.68881744877032,195.67981591058515 190.79227934328824,195.6351084812623 186.8957412378061,195.5009861932939 182.99920313232403,195.36686390532546 179.1026650268419,195.2774490466798 175.20612692135978,195.36686390532546 171.30958881587765,195.232741617357 167.41305071039554,194.69625246548324 163.51651260491343,194.6068376068376 159.61997449943132,194.38330046022355 155.7234363939492,193.26561472715318 151.8268982884671,193.04207758053914 147.93036018298497,191.0749506903353 144.03382207750286,189.68902038132805 140.13728397202075,188.07955292570676 136.24074586653862,185.30769230769232 132.3442077610565,184.0558842866535 128.4476696555744,179.09335963182116 124.55113155009226,174.48849441157134 120.65459344461019,168.09533201840895 116.75805533912806,161.61275476660091 112.86151723364594,155.0407626561473 108.96497912816383,148.46877054569364 105.06844102268172,143.46153846153845 101.1719029171996,148.60289283366205 97.2753648117175,151.4194608809993 93.37882670623537,164.16107823800132 89.48228860075326,176.18737672583825 85.58575049527116,186.11242603550295 81.68921238978903,193.53385930309008 77.79267428430691,195.5009861932939" style="fill:rgb(95.7%,64.7%,51%);fill-opacity:0.33;opacity:1.0;stroke:none" /></g><g class="toyplot-mark-Plot" style="fill:none;stroke-opacity:0.7" id="td6cc891bb18948469449987279be73de"><g class="toyplot-Series"><path d="M 77.79267428430691 195.5009861932939 L 81.68921238978903 193.53385930309008 L 85.58575049527116 186.11242603550295 L 89.48228860075326 176.18737672583825 L 93.37882670623537 164.16107823800132 L 97.2753648117175 151.4194608809993 L 101.1719029171996 148.60289283366205 L 105.06844102268172 143.46153846153845 L 108.96497912816383 148.46877054569364 L 112.86151723364594 155.0407626561473 L 116.75805533912806 161.61275476660091 L 120.65459344461019 168.09533201840895 L 124.55113155009226 174.48849441157134 L 128.4476696555744 179.09335963182116 L 132.3442077610565 184.0558842866535 L 136.24074586653862 185.30769230769232 L 140.13728397202075 188.07955292570676 L 144.03382207750286 189.68902038132805 L 147.93036018298497 191.0749506903353 L 151.8268982884671 193.04207758053914 L 155.7234363939492 193.26561472715318 L 159.61997449943132 194.38330046022355 L 163.51651260491343 194.6068376068376 L 167.41305071039554 194.69625246548324 L 171.30958881587765 195.232741617357 L 175.20612692135978 195.36686390532546 L 179.1026650268419 195.2774490466798 L 182.99920313232403 195.36686390532546 L 186.8957412378061 195.5009861932939 L 190.79227934328824 195.6351084812623 L 194.68881744877032 195.67981591058515 L 198.58535555425243 195.72452333990796 L 202.48189365973457 195.67981591058515 L 206.37843176521667 195.72452333990796 L 210.2749698706988 195.76923076923075 L 214.1715079761809 195.72452333990796 L 218.06804608166303 195.76923076923075 L 221.96458418714514 195.76923076923075 L 225.86112229262727 195.76923076923075 L 229.75766039810935 195.72452333990796" style="stroke:rgb(0%,0%,0%);stroke-opacity:0.7;stroke-width:2.0" /></g></g><g class="toyplot-mark-FillBoundaries" style="fill:rgb(83.9%,37.6%,30.2%);fill-opacity:0.33;stroke:none" id="tedb2c1580a5049aa83d1eccc7d50f70b"><polygon points="80.66683364711588,208.84615384615384 86.15828193406469,208.84615384615384 91.64973022101348,208.84615384615384 97.14117850796228,208.84615384615384 102.63262679491109,208.84615384615384 108.1240750818599,208.84615384615384 113.61552336880871,208.84615384615384 119.10697165575752,208.84615384615384 124.59841994270631,208.84615384615384 130.0898682296551,208.84615384615384 135.58131651660392,208.84615384615384 141.07276480355273,208.84615384615384 146.56421309050148,208.84615384615384 152.05566137745032,208.84615384615384 157.54710966439913,208.84615384615384 163.03855795134794,208.84615384615384 168.53000623829672,208.84615384615384 174.02145452524553,208.84615384615384 179.51290281219434,208.84615384615384 185.00435109914315,208.84615384615384 190.49579938609196,208.84615384615384 195.98724767304074,208.84615384615384 201.47869595998955,208.84615384615384 206.97014424693836,208.84615384615384 212.46159253388717,208.84615384615384 217.95304082083598,208.84615384615384 223.44448910778476,208.84615384615384 228.9359373947336,208.84615384615384 234.42738568168238,208.84615384615384 239.9188339686312,208.84615384615384 245.41028225557997,208.84615384615384 250.90173054252878,208.84615384615384 256.39317882947756,208.84615384615384 261.8846271164264,208.84615384615384 267.3760754033752,208.84615384615384 272.867523690324,208.84615384615384 278.3589719772728,208.84615384615384 283.8504202642216,208.84615384615384 289.3418685511704,208.84615384615384 294.8333168381192,208.84615384615384 294.8333168381192,208.80769230769232 289.3418685511704,208.84615384615384 283.8504202642216,208.84615384615384 278.3589719772728,208.84615384615384 272.867523690324,208.84615384615384 267.3760754033752,208.84615384615384 261.8846271164264,208.84615384615384 256.39317882947756,208.84615384615384 250.90173054252878,208.84615384615384 245.41028225557997,208.80769230769232 239.9188339686312,208.84615384615384 234.42738568168238,208.80769230769232 228.9359373947336,208.84615384615384 223.44448910778476,208.76923076923077 217.95304082083598,208.73076923076923 212.46159253388717,208.73076923076923 206.97014424693836,208.6923076923077 201.47869595998955,208.57692307692307 195.98724767304074,208.15384615384613 190.49579938609196,208.1923076923077 185.00435109914315,208.03846153846155 179.51290281219434,207.6153846153846 174.02145452524553,207.23076923076925 168.53000623829672,206.73076923076925 163.03855795134794,205.8076923076923 157.54710966439913,204.1153846153846 152.05566137745032,202.80769230769232 146.56421309050148,199.46153846153845 141.07276480355273,196.34615384615384 135.58131651660392,190.80769230769232 130.0898682296551,184.69230769230768 124.59841994270631,175.53846153846155 119.10697165575752,168.65384615384616 113.61552336880871,159.80769230769232 108.1240750818599,156.53846153846155 102.63262679491109,160.0 97.14117850796228,167.5 91.64973022101348,185.30769230769232 86.15828193406469,200.1923076923077 80.66683364711588,207.30769230769232" style="fill:rgb(83.9%,37.6%,30.2%);fill-opacity:0.33;opacity:1.0;stroke:none" /></g><g class="toyplot-mark-Plot" style="fill:none;stroke-opacity:0.7" id="tb2d20f2ecacd488cb66d8e77ea11712e"><g class="toyplot-Series"><path d="M 80.66683364711588 207.30769230769232 L 86.15828193406469 200.1923076923077 L 91.64973022101348 185.30769230769232 L 97.14117850796228 167.5 L 102.63262679491109 160.0 L 108.1240750818599 156.53846153846155 L 113.61552336880871 159.80769230769232 L 119.10697165575752 168.65384615384616 L 124.59841994270631 175.53846153846155 L 130.0898682296551 184.69230769230768 L 135.58131651660392 190.80769230769232 L 141.07276480355273 196.34615384615384 L 146.56421309050148 199.46153846153845 L 152.05566137745032 202.80769230769232 L 157.54710966439913 204.1153846153846 L 163.03855795134794 205.8076923076923 L 168.53000623829672 206.73076923076925 L 174.02145452524553 207.23076923076925 L 179.51290281219434 207.6153846153846 L 185.00435109914315 208.03846153846155 L 190.49579938609196 208.1923076923077 L 195.98724767304074 208.15384615384613 L 201.47869595998955 208.57692307692307 L 206.97014424693836 208.6923076923077 L 212.46159253388717 208.73076923076923 L 217.95304082083598 208.73076923076923 L 223.44448910778476 208.76923076923077 L 228.9359373947336 208.84615384615384 L 234.42738568168238 208.80769230769232 L 239.9188339686312 208.84615384615384 L 245.41028225557997 208.80769230769232 L 250.90173054252878 208.84615384615384 L 256.39317882947756 208.84615384615384 L 261.8846271164264 208.84615384615384 L 267.3760754033752 208.84615384615384 L 272.867523690324 208.84615384615384 L 278.3589719772728 208.84615384615384 L 283.8504202642216 208.84615384615384 L 289.3418685511704 208.84615384615384 L 294.8333168381192 208.80769230769232" style="stroke:rgb(0%,0%,0%);stroke-opacity:0.7;stroke-width:2.0" /></g></g><g class="toyplot-mark-FillBoundaries" style="fill:rgb(69.8%,9.4%,16.9%);fill-opacity:0.33;stroke:none" id="t78ff4e5353b242bc9bc7fee959557196"><polygon points="82.4782531713555,221.92307692307693 86.86749432167821,221.92307692307693 91.25673547200091,221.92307692307693 95.64597662232362,221.92307692307693 100.03521777264632,221.92307692307693 104.42445892296902,221.92307692307693 108.81370007329173,221.92307692307693 113.20294122361443,221.92307692307693 117.59218237393713,221.92307692307693 121.98142352425984,221.92307692307693 126.37066467458254,221.92307692307693 130.75990582490527,221.92307692307693 135.14914697522795,221.92307692307693 139.53838812555068,221.92307692307693 143.92762927587336,221.92307692307693 148.3168704261961,221.92307692307693 152.70611157651877,221.92307692307693 157.09535272684147,221.92307692307693 161.48459387716417,221.92307692307693 165.8738350274869,221.92307692307693 170.26307617780958,221.92307692307693 174.65231732813228,221.92307692307693 179.041558478455,221.92307692307693 183.4307996287777,221.92307692307693 187.82004077910042,221.92307692307693 192.20928192942313,221.92307692307693 196.59852307974586,221.92307692307693 200.98776423006854,221.92307692307693 205.37700538039124,221.92307692307693 209.76624653071394,221.92307692307693 214.15548768103665,221.92307692307693 218.54472883135935,221.92307692307693 222.93396998168205,221.92307692307693 227.32321113200473,221.92307692307693 231.71245228232746,221.92307692307693 236.10169343265017,221.92307692307693 240.49093458297287,221.92307692307693 244.88017573329557,221.92307692307693 249.2694168836183,221.92307692307693 253.65865803394095,221.92307692307693 253.65865803394095,221.87253808992938 249.2694168836183,221.92307692307693 244.88017573329557,221.92307692307693 240.49093458297287,221.87253808992938 236.10169343265017,221.6703827573393 231.71245228232746,221.7209215904868 227.32321113200473,221.6703827573393 222.93396998168205,221.7209215904868 218.54472883135935,221.7209215904868 214.15548768103665,221.56930509104424 209.76624653071394,221.3671497584541 205.37700538039124,221.41768859160163 200.98776423006854,221.46822742474916 196.59852307974586,221.164994425864 192.20928192942313,220.8112225938313 187.82004077910042,220.305834262356 183.4307996287777,220.50798959494608 179.041558478455,220.25529542920847 174.65231732813228,219.90152359717578 170.26307617780958,218.38535860274993 165.8738350274869,217.27350427350427 161.48459387716417,214.74656261612785 157.09535272684147,214.3422519509476 152.70611157651877,211.25938312894831 148.3168704261961,209.38944630248977 143.92762927587336,206.7614269788183 139.53838812555068,201.859160163508 135.14914697522795,196.9568933481977 130.75990582490527,193.1159420289855 126.37066467458254,187.1018208844296 121.98142352425984,180.48123374210329 117.59218237393713,172.69825343738384 113.20294122361443,171.63693794128577 108.81370007329173,169.6153846153846 104.42445892296902,174.06280193236714 100.03521777264632,186.5964325529543 95.64597662232362,194.1772575250836 91.25673547200091,209.03567447045708 86.86749432167821,216.36380527684875 82.4782531713555,220.8112225938313" style="fill:rgb(69.8%,9.4%,16.9%);fill-opacity:0.33;opacity:1.0;stroke:none" /></g><g class="toyplot-mark-Plot" style="fill:none;stroke-opacity:0.7" id="te13709bd3f5d42708ceb210101b8cbd2"><g class="toyplot-Series"><path d="M 82.4782531713555 220.8112225938313 L 86.86749432167821 216.36380527684875 L 91.25673547200091 209.03567447045708 L 95.64597662232362 194.1772575250836 L 100.03521777264632 186.5964325529543 L 104.42445892296902 174.06280193236714 L 108.81370007329173 169.6153846153846 L 113.20294122361443 171.63693794128577 L 117.59218237393713 172.69825343738384 L 121.98142352425984 180.48123374210329 L 126.37066467458254 187.1018208844296 L 130.75990582490527 193.1159420289855 L 135.14914697522795 196.9568933481977 L 139.53838812555068 201.859160163508 L 143.92762927587336 206.7614269788183 L 148.3168704261961 209.38944630248977 L 152.70611157651877 211.25938312894831 L 157.09535272684147 214.3422519509476 L 161.48459387716417 214.74656261612785 L 165.8738350274869 217.27350427350427 L 170.26307617780958 218.38535860274993 L 174.65231732813228 219.90152359717578 L 179.041558478455 220.25529542920847 L 183.4307996287777 220.50798959494608 L 187.82004077910042 220.305834262356 L 192.20928192942313 220.8112225938313 L 196.59852307974586 221.164994425864 L 200.98776423006854 221.46822742474916 L 205.37700538039124 221.41768859160163 L 209.76624653071394 221.3671497584541 L 214.15548768103665 221.56930509104424 L 218.54472883135935 221.7209215904868 L 222.93396998168205 221.7209215904868 L 227.32321113200473 221.6703827573393 L 231.71245228232746 221.7209215904868 L 236.10169343265017 221.6703827573393 L 240.49093458297287 221.87253808992938 L 244.88017573329557 221.92307692307693 L 249.2694168836183 221.92307692307693 L 253.65865803394095 221.87253808992938" style="stroke:rgb(0%,0%,0%);stroke-opacity:0.7;stroke-width:2.0" /></g></g><g class="toyplot-mark-FillBoundaries" style="fill:rgb(40.4%,0%,12.2%);fill-opacity:0.33;stroke:none" id="t58847cbcb66d485f9a45949ce0c93fd4"><polygon points="80.4415016142071,235.0 86.24716793082867,235.0 92.05283424745024,235.0 97.85850056407182,235.0 103.66416688069337,235.0 109.46983319731493,235.0 115.2754995139365,235.0 121.08116583055809,235.0 126.88683214717966,235.0 132.69249846380123,235.0 138.49816478042277,235.0 144.30383109704434,235.0 150.1094974136659,235.0 155.91516373028747,235.0 161.72083004690904,235.0 167.5264963635306,235.0 173.3321626801522,235.0 179.13782899677378,235.0 184.94349531339535,235.0 190.7491616300169,235.0 196.5548279466385,235.0 202.36049426326002,235.0 208.16616057988162,235.0 213.97182689650316,235.0 219.77749321312476,235.0 225.5831595297463,235.0 231.38882584636787,235.0 237.1944921629894,235.0 243.000158479611,235.0 248.80582479623257,235.0 254.61149111285414,235.0 260.4171574294757,235.0 266.2228237460973,235.0 272.0284900627188,235.0 277.8341563793404,235.0 283.639822695962,235.0 289.44548901258355,235.0 295.2511553292051,235.0 301.0568216458267,235.0 306.86248796244826,235.0 306.86248796244826,234.95848595848597 301.0568216458267,235.0 295.2511553292051,235.0 289.44548901258355,235.0 283.639822695962,234.95848595848597 277.8341563793404,235.0 272.0284900627188,234.9169719169719 266.2228237460973,234.95848595848597 260.4171574294757,234.9169719169719 254.61149111285414,234.9169719169719 248.80582479623257,234.87545787545787 243.000158479611,234.8339438339438 237.1944921629894,234.75091575091577 231.38882584636787,234.7924297924298 225.5831595297463,234.58485958485957 219.77749321312476,234.66788766788767 213.97182689650316,234.50183150183153 208.16616057988162,233.87912087912088 202.36049426326002,234.0866910866911 196.5548279466385,232.84126984126985 190.7491616300169,232.75824175824178 184.94349531339535,231.96947496947496 179.13782899677378,230.68253968253967 173.3321626801522,230.05982905982904 167.5264963635306,228.10866910866912 161.72083004690904,226.1990231990232 155.91516373028747,223.70818070818072 150.1094974136659,217.4810744810745 144.30383109704434,214.07692307692307 138.49816478042277,207.97435897435898 132.69249846380123,202.41147741147742 126.88683214717966,191.78388278388277 121.08116583055809,187.1758241758242 115.2754995139365,182.69230769230768 109.46983319731493,189.0854700854701 103.66416688069337,197.67887667887666 97.85850056407182,210.21611721611723 92.05283424745024,221.84004884004884 86.24716793082867,231.0976800976801 80.4415016142071,234.41880341880344" style="fill:rgb(40.4%,0%,12.2%);fill-opacity:0.33;opacity:1.0;stroke:none" /></g><g class="toyplot-mark-Plot" style="fill:none;stroke-opacity:0.7" id="t8d9e157cf37441d69afbea88cb887347"><g class="toyplot-Series"><path d="M 80.4415016142071 234.41880341880344 L 86.24716793082867 231.0976800976801 L 92.05283424745024 221.84004884004884 L 97.85850056407182 210.21611721611723 L 103.66416688069337 197.67887667887666 L 109.46983319731493 189.0854700854701 L 115.2754995139365 182.69230769230768 L 121.08116583055809 187.1758241758242 L 126.88683214717966 191.78388278388277 L 132.69249846380123 202.41147741147742 L 138.49816478042277 207.97435897435898 L 144.30383109704434 214.07692307692307 L 150.1094974136659 217.4810744810745 L 155.91516373028747 223.70818070818072 L 161.72083004690904 226.1990231990232 L 167.5264963635306 228.10866910866912 L 173.3321626801522 230.05982905982904 L 179.13782899677378 230.68253968253967 L 184.94349531339535 231.96947496947496 L 190.7491616300169 232.75824175824178 L 196.5548279466385 232.84126984126985 L 202.36049426326002 234.0866910866911 L 208.16616057988162 233.87912087912088 L 213.97182689650316 234.50183150183153 L 219.77749321312476 234.66788766788767 L 225.5831595297463 234.58485958485957 L 231.38882584636787 234.7924297924298 L 237.1944921629894 234.75091575091577 L 243.000158479611 234.8339438339438 L 248.80582479623257 234.87545787545787 L 254.61149111285414 234.9169719169719 L 260.4171574294757 234.9169719169719 L 266.2228237460973 234.95848595848597 L 272.0284900627188 234.9169719169719 L 277.8341563793404 235.0 L 283.639822695962 234.95848595848597 L 289.44548901258355 235.0 L 295.2511553292051 235.0 L 301.0568216458267 235.0 L 306.86248796244826 234.95848595848597" style="stroke:rgb(0%,0%,0%);stroke-opacity:0.7;stroke-width:2.0" /></g></g></g><g class="toyplot-coordinates-Axis" id="t1630c508f48a4bf5ac40592884d1ab2d" transform="translate(65.0,235.0)translate(0,10.0)"><line x1="0" y1="0" x2="220.0" y2="0" style="stroke-width:3" /><g><line x1="0.0" y1="7.5" x2="0.0" y2="0" style="stroke-width:3" /><line x1="73.33333333333333" y1="7.5" x2="73.33333333333333" y2="0" style="stroke-width:3" /><line x1="146.66666666666666" y1="7.5" x2="146.66666666666666" y2="0" style="stroke-width:3" /><line x1="220.0" y1="7.5" x2="220.0" y2="0" style="stroke-width:3" /></g><g><g transform="translate(0.0,12.0)"><text x="-4.448" y="13.687999999999999" style="fill:rgb(16.1%,15.3%,14.1%);fill-opacity:1.0;font-family:helvetica;font-size:16.0px;font-weight:normal;stroke:none;vertical-align:baseline;white-space:pre">0</text></g><g transform="translate(73.33333333333333,12.0)"><text x="-4.448" y="13.687999999999999" style="fill:rgb(16.1%,15.3%,14.1%);fill-opacity:1.0;font-family:helvetica;font-size:16.0px;font-weight:normal;stroke:none;vertical-align:baseline;white-space:pre">8</text></g><g transform="translate(146.66666666666666,12.0)"><text x="-8.896" y="13.687999999999999" style="fill:rgb(16.1%,15.3%,14.1%);fill-opacity:1.0;font-family:helvetica;font-size:16.0px;font-weight:normal;stroke:none;vertical-align:baseline;white-space:pre">16</text></g><g transform="translate(220.0,12.0)"><text x="-8.896" y="13.687999999999999" style="fill:rgb(16.1%,15.3%,14.1%);fill-opacity:1.0;font-family:helvetica;font-size:16.0px;font-weight:normal;stroke:none;vertical-align:baseline;white-space:pre">24</text></g></g><g transform="translate(110.0,35.0)"><text x="-109.8096" y="13.687999999999999" style="fill:rgb(16.1%,15.3%,14.1%);fill-opacity:1.0;font-family:helvetica;font-size:16.0px;font-weight:bold;stroke:none;vertical-align:baseline;white-space:pre">Genealogy sum length (x10</text><text x="98.25439999999999" y="10.328" style="fill:rgb(16.1%,15.3%,14.1%);fill-opacity:1.0;font-family:helvetica;font-size:11.2px;font-weight:bold;stroke:none;vertical-align:baseline;white-space:pre">6</text><text x="104.48159999999999" y="13.687999999999999" style="fill:rgb(16.1%,15.3%,14.1%);fill-opacity:1.0;font-family:helvetica;font-size:16.0px;font-weight:bold;stroke:none;vertical-align:baseline;white-space:pre">)</text></g><g class="toyplot-coordinates-Axis-coordinates" style="visibility:hidden" transform=""><line x1="0" x2="0" y1="-6.0" y2="9.0" style="stroke:rgb(43.9%,50.2%,56.5%);stroke-opacity:1.0;stroke-width:1.0" /><text x="0" y="-12.0" style="alignment-baseline:alphabetic;fill:rgb(43.9%,50.2%,56.5%);fill-opacity:1.0;font-size:10px;font-weight:normal;stroke:none;text-anchor:middle" /></g></g><g class="toyplot-coordinates-Axis" id="td64cf996a6fc4e84a474a6150c8a04aa" transform="translate(65.0,235.0)rotate(-90.0)translate(0,-10.0)"><line x1="0" y1="0" x2="170.0" y2="0" style="stroke-width:3" /><g><line x1="0.0" y1="-7.5" x2="0.0" y2="0" style="stroke-width:3" /><line x1="13.076923076923078" y1="-7.5" x2="13.076923076923078" y2="0" style="stroke-width:3" /><line x1="26.153846153846157" y1="-7.5" x2="26.153846153846157" y2="0" style="stroke-width:3" /><line x1="39.23076923076923" y1="-7.5" x2="39.23076923076923" y2="0" style="stroke-width:3" /><line x1="52.307692307692314" y1="-7.5" x2="52.307692307692314" y2="0" style="stroke-width:3" /><line x1="65.38461538461539" y1="-7.5" x2="65.38461538461539" y2="0" style="stroke-width:3" /><line x1="78.46153846153847" y1="-7.5" x2="78.46153846153847" y2="0" style="stroke-width:3" /><line x1="91.53846153846153" y1="-7.5" x2="91.53846153846153" y2="0" style="stroke-width:3" /><line x1="104.61538461538463" y1="-7.5" x2="104.61538461538463" y2="0" style="stroke-width:3" /><line x1="117.6923076923077" y1="-7.5" x2="117.6923076923077" y2="0" style="stroke-width:3" /></g><g /><g transform="translate(85.0,-35.0)"><text x="-40.456" y="0.0" style="fill:rgb(16.1%,15.3%,14.1%);fill-opacity:1.0;font-family:helvetica;font-size:16.0px;font-weight:bold;stroke:none;vertical-align:baseline;white-space:pre">Frequency</text></g><g class="toyplot-coordinates-Axis-coordinates" style="visibility:hidden" transform=""><line x1="0" x2="0" y1="6.0" y2="-9.0" style="stroke:rgb(43.9%,50.2%,56.5%);stroke-opacity:1.0;stroke-width:1.0" /><text x="0" y="12.0" style="alignment-baseline:hanging;fill:rgb(43.9%,50.2%,56.5%);fill-opacity:1.0;font-size:10px;font-weight:normal;stroke:none;text-anchor:middle" /></g></g></g></svg>