<svg class="toyplot-canvas-Canvas" xmlns:toyplot="http://www.sandia.gov/toyplot" xmlns:xlink="http://www.w3.org/1999/xlink" xmlns="http://www.w3.org/2000/svg" width="350.0px" height="300.0px" viewBox="0 0 350.0 300.0" preserveAspectRatio="xMidYMid meet" style="background-color:transparent;border-color:#292724;border-style:none;border-width:1.0;fill:rgb(16.1%,15.3%,14.1%);fill-opacity:1.0;font-family:Helvetica;font-size:12px;opacity:1.0;stroke:rgb(16.1%,15.3%,14.1%);stroke-opacity:1.0;stroke-width:1.0" id="tdb5436b5c3d040d38c536faf4b16433f"><g class="toyplot-coordinates-Cartesian" id="t4f8e354a929747d3927066dc0d3bc37c"><clipPath id="tdc16cfe940254caba9a450bf8206d29f"><rect x="55.0" y="55.0" width="240.0" height="190.0" /></clipPath><g clip-path="url(#tdc16cfe940254caba9a450bf8206d29f)"><g class="toyplot-mark-AxisLines" style="stroke:rgb(50.2%,50.2%,50.2%);stroke-dasharray:6,6;stroke-opacity:0.7;stroke-width:2" id="tb641c3ff03bd4605b716f859346ba45e"><g class="toyplot-Series"><line class="toyplot-Datum" x1="65.0" x2="65.0" y1="65.0" y2="235.0" style="opacity:1.0;stroke:rgb(50.2%,50.2%,50.2%);stroke-dasharray:6,6;stroke-opacity:0.7;stroke-width:2" /><line class="toyplot-Datum" x1="138.33333333333334" x2="138.33333333333334" y1="65.0" y2="235.0" style="opacity:1.0;stroke:rgb(50.2%,50.2%,50.2%);stroke-dasharray:6,6;stroke-opacity:0.7;stroke-width:2" /><line class="toyplot-Datum" x1="211.66666666666666" x2="211.66666666666666" y1="65.0" y2="235.0" style="opacity:1.0;stroke:rgb(50.2%,50.2%,50.2%);stroke-dasharray:6,6;stroke-opacity:0.7;stroke-width:2" /><line class="toyplot-Datum" x1="285.0" x2="285.0" y1="65.0" y2="235.0" style="opacity:1.0;stroke:rgb(50.2%,50.2%,50.2%);stroke-dasharray:6,6;stroke-opacity:0.7;stroke-width:2" /></g></g><g class="toyplot-mark-FillBoundaries" style="fill:rgb(55.3%,62.7%,79.6%);fill-opacity:0.33;stroke:none" id="t99d01cc3a7aa40008eb08b11a9b4ca33"><polygon points="74.63231234911827,235.0 75.35909729561631,235.0 76.08588224211435,235.0 76.8126671886124,235.0 77.53945213511042,235.0 78.2662370816085,235.0 78.99302202810652,235.0 79.71980697460457,235.0 80.44659192110261,235.0 81.17337686760065,235.0 81.9001618140987,235.0 82.62694676059675,235.0 83.35373170709478,235.0 84.08051665359284,235.0 84.80730160009088,235.0 85.53408654658892,235.0 86.26087149308697,235.0 86.98765643958501,235.0 87.71444138608305,235.0 88.4412263325811,235.0 89.16801127907914,235.0 89.89479622557718,235.0 90.62158117207522,235.0 91.34836611857327,235.0 92.07515106507131,235.0 92.80193601156935,235.0 93.5287209580674,235.0 94.25550590456544,235.0 94.98229085106348,235.0 95.70907579756152,235.0 95.70907579756152,234.87208427389015 94.98229085106348,235.0 94.25550590456544,235.0 93.5287209580674,234.93604213694508 92.80193601156935,234.74416854778028 92.07515106507131,234.42437923250566 91.34836611857327,233.97667419112113 90.62158117207522,233.8487584650113 89.89479622557718,233.8487584650113 89.16801127907914,233.20917983446202 88.4412263325811,231.86606471030854 87.71444138608305,230.52294958615497 86.98765643958501,230.13920240782542 86.26087149308697,226.941309255079 85.53408654658892,221.88863807373968 84.80730160009088,214.85327313769753 84.08051665359284,208.5214446952596 83.35373170709478,197.26486079759218 82.62694676059675,182.87434161023324 81.9001618140987,165.41384499623777 81.17337686760065,142.26109857035365 80.44659192110261,113.28818660647103 79.71980697460457,87.06546275395033 78.99302202810652,72.35515425131679 78.2662370816085,65.0 77.53945213511042,77.85553047404063 76.8126671886124,128.06245297215952 76.08588224211435,177.88562829194882 75.35909729561631,219.5221971407073 74.63231234911827,233.4010534236268" style="fill:rgb(55.3%,62.7%,79.6%);fill-opacity:0.33;opacity:1.0;stroke:none" /></g><g class="toyplot-mark-Plot" style="fill:none" id="t340d956619f54575a6cc3ca31d40f2dd"><g class="toyplot-Series"><path d="M 74.63231234911827 233.4010534236268 L 75.35909729561631 219.5221971407073 L 76.08588224211435 177.88562829194882 L 76.8126671886124 128.06245297215952 L 77.53945213511042 77.85553047404063 L 78.2662370816085 65.0 L 78.99302202810652 72.35515425131679 L 79.71980697460457 87.06546275395033 L 80.44659192110261 113.28818660647103 L 81.17337686760065 142.26109857035365 L 81.9001618140987 165.41384499623777 L 82.62694676059675 182.87434161023324 L 83.35373170709478 197.26486079759218 L 84.08051665359284 208.5214446952596 L 84.80730160009088 214.85327313769753 L 85.53408654658892 221.88863807373968 L 86.26087149308697 226.941309255079 L 86.98765643958501 230.13920240782542 L 87.71444138608305 230.52294958615497 L 88.4412263325811 231.86606471030854 L 89.16801127907914 233.20917983446202 L 89.89479622557718 233.8487584650113 L 90.62158117207522 233.8487584650113 L 91.34836611857327 233.97667419112113 L 92.07515106507131 234.42437923250566 L 92.80193601156935 234.74416854778028 L 93.5287209580674 234.93604213694508 L 94.25550590456544 235.0 L 94.98229085106348 235.0 L 95.70907579756152 234.87208427389015" style="stroke:rgb(45.9%,43.9%,70.2%);stroke-opacity:1.0;stroke-width:4.0" /></g></g><g class="toyplot-mark-FillBoundaries" style="fill:rgb(40%,76.1%,64.7%);fill-opacity:0.33;stroke:none" id="t5ec47766083c475783ebf29f6c86d213"><polygon points="78.82312349118259,235.0 86.53647710869845,235.0 94.24983072621431,235.0 101.96318434373018,235.0 109.67653796124604,235.0 117.3898915787619,235.0 125.10324519627775,235.0 132.81659881379363,235.0 140.52995243130948,235.0 148.24330604882536,235.0 155.95665966634124,235.0 163.6700132838571,235.0 171.38336690137294,235.0 179.09672051888884,235.0 186.8100741364047,235.0 194.52342775392054,235.0 202.23678137143642,235.0 209.95013498895227,235.0 217.66348860646815,235.0 225.376842223984,235.0 233.09019584149988,235.0 240.80354945901573,235.0 248.5169030765316,235.0 256.23025669404745,235.0 263.94361031156336,235.0 271.65696392907915,235.0 279.37031754659506,235.0 287.0836711641109,235.0 294.79702478162676,235.0 302.5103783991426,235.0 302.5103783991426,234.89213197969542 294.79702478162676,235.0 287.0836711641109,235.0 279.37031754659506,235.0 271.65696392907915,234.73032994923858 263.94361031156336,235.0 256.23025669404745,234.89213197969542 248.5169030765316,234.46065989847716 240.80354945901573,234.40672588832487 233.09019584149988,234.46065989847716 225.376842223984,233.75951776649745 217.66348860646815,233.5977157360406 209.95013498895227,232.19543147208122 202.23678137143642,231.22461928934013 194.52342775392054,229.876269035533 186.8100741364047,225.99302030456852 179.09672051888884,221.94796954314722 171.38336690137294,216.39276649746193 163.6700132838571,207.87119289340103 155.95665966634124,192.23032994923858 148.24330604882536,176.31979695431474 140.52995243130948,147.73477157360406 132.81659881379363,122.06218274111674 125.10324519627775,87.38261421319797 117.3898915787619,65.0 109.67653796124604,70.98667512690355 101.96318434373018,113.75634517766498 94.24983072621431,167.36675126903555 86.53647710869845,214.55901015228426 78.82312349118259,233.2201776649746" style="fill:rgb(40%,76.1%,64.7%);fill-opacity:0.33;opacity:1.0;stroke:none" /></g><g class="toyplot-mark-Plot" style="fill:none" id="t47492136769343bb86f8e0d24039ee52"><g class="toyplot-Series"><path d="M 78.82312349118259 233.2201776649746 L 86.53647710869845 214.55901015228426 L 94.24983072621431 167.36675126903555 L 101.96318434373018 113.75634517766498 L 109.67653796124604 70.98667512690355 L 117.3898915787619 65.0 L 125.10324519627775 87.38261421319797 L 132.81659881379363 122.06218274111674 L 140.52995243130948 147.73477157360406 L 148.24330604882536 176.31979695431474 L 155.95665966634124 192.23032994923858 L 163.6700132838571 207.87119289340103 L 171.38336690137294 216.39276649746193 L 179.09672051888884 221.94796954314722 L 186.8100741364047 225.99302030456852 L 194.52342775392054 229.876269035533 L 202.23678137143642 231.22461928934013 L 209.95013498895227 232.19543147208122 L 217.66348860646815 233.5977157360406 L 225.376842223984 233.75951776649745 L 233.09019584149988 234.46065989847716 L 240.80354945901573 234.40672588832487 L 248.5169030765316 234.46065989847716 L 256.23025669404745 234.89213197969542 L 263.94361031156336 235.0 L 271.65696392907915 234.73032994923858 L 279.37031754659506 235.0 L 287.0836711641109 235.0 L 294.79702478162676 235.0 L 302.5103783991426 234.89213197969542" style="stroke:rgb(10.6%,62%,46.7%);stroke-opacity:1.0;stroke-width:4.0" /></g></g></g><g class="toyplot-coordinates-Axis" id="tb9e61dc605d0490aa6ea36ce57bcc1d4" transform="translate(65.0,235.0)translate(0,10.0)"><line x1="0" y1="0" x2="220.0" y2="0" style="stroke-width:3" /><g><line x1="0.0" y1="7.5" x2="0.0" y2="0" style="stroke-width:3" /><line x1="73.33333333333333" y1="7.5" x2="73.33333333333333" y2="0" style="stroke-width:3" /><line x1="146.66666666666666" y1="7.5" x2="146.66666666666666" y2="0" style="stroke-width:3" /><line x1="220.0" y1="7.5" x2="220.0" y2="0" style="stroke-width:3" /></g><g><g transform="translate(0.0,12.0)"><text x="-4.448" y="13.687999999999999" style="fill:rgb(16.1%,15.3%,14.1%);fill-opacity:1.0;font-family:helvetica;font-size:16.0px;font-weight:normal;stroke:none;vertical-align:baseline;white-space:pre">0</text></g><g transform="translate(73.33333333333333,12.0)"><text x="-4.448" y="13.687999999999999" style="fill:rgb(16.1%,15.3%,14.1%);fill-opacity:1.0;font-family:helvetica;font-size:16.0px;font-weight:normal;stroke:none;vertical-align:baseline;white-space:pre">8</text></g><g transform="translate(146.66666666666666,12.0)"><text x="-8.896" y="13.687999999999999" style="fill:rgb(16.1%,15.3%,14.1%);fill-opacity:1.0;font-family:helvetica;font-size:16.0px;font-weight:normal;stroke:none;vertical-align:baseline;white-space:pre">16</text></g><g transform="translate(220.0,12.0)"><text x="-8.896" y="13.687999999999999" style="fill:rgb(16.1%,15.3%,14.1%);fill-opacity:1.0;font-family:helvetica;font-size:16.0px;font-weight:normal;stroke:none;vertical-align:baseline;white-space:pre">24</text></g></g><g transform="translate(110.0,35.0)"><text x="-109.8096" y="13.687999999999999" style="fill:rgb(16.1%,15.3%,14.1%);fill-opacity:1.0;font-family:helvetica;font-size:16.0px;font-weight:bold;stroke:none;vertical-align:baseline;white-space:pre">Genealogy sum length (x10</text><text x="98.25439999999999" y="10.328" style="fill:rgb(16.1%,15.3%,14.1%);fill-opacity:1.0;font-family:helvetica;font-size:11.2px;font-weight:bold;stroke:none;vertical-align:baseline;white-space:pre">6</text><text x="104.48159999999999" y="13.687999999999999" style="fill:rgb(16.1%,15.3%,14.1%);fill-opacity:1.0;font-family:helvetica;font-size:16.0px;font-weight:bold;stroke:none;vertical-align:baseline;white-space:pre">)</text></g><g class="toyplot-coordinates-Axis-coordinates" style="visibility:hidden" transform=""><line x1="0" x2="0" y1="-6.0" y2="9.0" style="stroke:rgb(43.9%,50.2%,56.5%);stroke-opacity:1.0;stroke-width:1.0" /><text x="0" y="-12.0" style="alignment-baseline:alphabetic;fill:rgb(43.9%,50.2%,56.5%);fill-opacity:1.0;font-size:10px;font-weight:normal;stroke:none;text-anchor:middle" /></g></g><g class="toyplot-coordinates-Axis" id="t8501f299f11a40db9ca015cb13be0b49" transform="translate(65.0,235.0)rotate(-90.0)translate(0,-10.0)"><line x1="0" y1="0" x2="170.0" y2="0" style="stroke-width:3" /><g><line x1="0.0" y1="-7.5" x2="0.0" y2="0" style="stroke-width:3" /><line x1="85.0" y1="-7.5" x2="85.0" y2="0" style="stroke-width:3" /><line x1="170.0" y1="-7.5" x2="170.0" y2="0" style="stroke-width:3" /></g><g><g transform="translate(0.0,-12.0)"><text x="-11.12" y="0.0" style="fill:rgb(16.1%,15.3%,14.1%);fill-opacity:1.0;font-family:helvetica;font-size:16.0px;font-weight:normal;stroke:none;vertical-align:baseline;white-space:pre">0.0</text></g><g transform="translate(85.0,-12.0)"><text x="-11.12" y="0.0" style="fill:rgb(16.1%,15.3%,14.1%);fill-opacity:1.0;font-family:helvetica;font-size:16.0px;font-weight:normal;stroke:none;vertical-align:baseline;white-space:pre">0.5</text></g><g transform="translate(170.0,-12.0)"><text x="-11.12" y="0.0" style="fill:rgb(16.1%,15.3%,14.1%);fill-opacity:1.0;font-family:helvetica;font-size:16.0px;font-weight:normal;stroke:none;vertical-align:baseline;white-space:pre">1.0</text></g></g><g class="toyplot-coordinates-Axis-coordinates" style="visibility:hidden" transform=""><line x1="0" x2="0" y1="6.0" y2="-9.0" style="stroke:rgb(43.9%,50.2%,56.5%);stroke-opacity:1.0;stroke-width:1.0" /><text x="0" y="12.0" style="alignment-baseline:hanging;fill:rgb(43.9%,50.2%,56.5%);fill-opacity:1.0;font-size:10px;font-weight:normal;stroke:none;text-anchor:middle" /></g></g></g></svg>