<svg class="toyplot-canvas-Canvas" xmlns:toyplot="http://www.sandia.gov/toyplot" xmlns:xlink="http://www.w3.org/1999/xlink" xmlns="http://www.w3.org/2000/svg" width="350.0px" height="300.0px" viewBox="0 0 350.0 300.0" preserveAspectRatio="xMidYMid meet" style="background-color:transparent;border-color:#292724;border-style:none;border-width:1.0;fill:rgb(16.1%,15.3%,14.1%);fill-opacity:1.0;font-family:Helvetica;font-size:12px;opacity:1.0;stroke:rgb(16.1%,15.3%,14.1%);stroke-opacity:1.0;stroke-width:1.0" id="t0a0c77838ce147dd8402218f7e66fd51"><g class="toyplot-coordinates-Cartesian" id="ta3d4017f918d467980d01534f5c5a527"><clipPath id="t3dab9d2a774644519eef2603f5708f04"><rect x="55.0" y="55.0" width="240.0" height="190.0" /></clipPath><g clip-path="url(#t3dab9d2a774644519eef2603f5708f04)"><g class="toyplot-mark-AxisLines" style="stroke:rgb(50.2%,50.2%,50.2%);stroke-dasharray:6,6;stroke-opacity:0.7;stroke-width:2" id="te8460941c23c48948392d89ff2e53da3"><g class="toyplot-Series"><line class="toyplot-Datum" x1="65.0" x2="65.0" y1="65.0" y2="235.0" style="opacity:1.0;stroke:rgb(50.2%,50.2%,50.2%);stroke-dasharray:6,6;stroke-opacity:0.7;stroke-width:2" /><line class="toyplot-Datum" x1="138.33333333333334" x2="138.33333333333334" y1="65.0" y2="235.0" style="opacity:1.0;stroke:rgb(50.2%,50.2%,50.2%);stroke-dasharray:6,6;stroke-opacity:0.7;stroke-width:2" /><line class="toyplot-Datum" x1="211.66666666666666" x2="211.66666666666666" y1="65.0" y2="235.0" style="opacity:1.0;stroke:rgb(50.2%,50.2%,50.2%);stroke-dasharray:6,6;stroke-opacity:0.7;stroke-width:2" /><line class="toyplot-Datum" x1="285.0" x2="285.0" y1="65.0" y2="235.0" style="opacity:1.0;stroke:rgb(50.2%,50.2%,50.2%);stroke-dasharray:6,6;stroke-opacity:0.7;stroke-width:2" /></g></g><g class="toyplot-mark-FillBoundaries" style="fill:rgb(55.3%,62.7%,79.6%);fill-opacity:0.33;stroke:none" id="ted85092785d14a34a67f9299fadf4a03"><polygon points="97.9584106829005,235.0 98.77402472934727,235.0 99.58963877579403,235.0 100.40525282224078,235.0 101.22086686868752,235.0 102.03648091513429,235.0 102.85209496158105,235.0 103.6677090080278,235.0 104.48332305447455,235.0 105.29893710092131,235.0 106.11455114736806,235.0 106.93016519381482,235.0 107.74577924026158,235.0 108.56139328670832,235.0 109.37700733315509,235.0 110.19262137960183,235.0 111.0082354260486,235.0 111.82384947249534,235.0 112.63946351894211,235.0 113.45507756538886,235.0 114.27069161183562,235.0 115.08630565828236,235.0 115.90191970472912,235.0 116.71753375117588,235.0 117.53314779762262,235.0 118.3487618440694,235.0 119.16437589051614,235.0 119.97998993696291,235.0 120.79560398340965,235.0 121.6112180298564,235.0 121.6112180298564,234.9346405228758 120.79560398340965,234.9346405228758 119.97998993696291,234.9346405228758 119.16437589051614,234.9346405228758 118.3487618440694,235.0 117.53314779762262,234.6078431372549 116.71753375117588,234.4771241830065 115.90191970472912,234.67320261437908 115.08630565828236,234.2156862745098 114.27069161183562,233.69281045751632 113.45507756538886,232.3856209150327 112.63946351894211,230.62091503267973 111.82384947249534,228.20261437908496 111.0082354260486,224.9346405228758 110.19262137960183,218.39869281045753 109.37700733315509,212.7124183006536 108.56139328670832,202.58169934640523 107.74577924026158,190.03267973856208 106.93016519381482,164.9346405228758 106.11455114736806,148.72549019607843 105.29893710092131,125.26143790849673 104.48332305447455,95.26143790849673 103.6677090080278,77.81045751633987 102.85209496158105,65.0 102.03648091513429,75.98039215686273 101.22086686868752,109.70588235294119 100.40525282224078,148.59477124183007 99.58963877579403,190.68627450980392 98.77402472934727,221.6013071895425 97.9584106829005,232.97385620915034" style="fill:rgb(55.3%,62.7%,79.6%);fill-opacity:0.33;opacity:1.0;stroke:none" /></g><g class="toyplot-mark-Plot" style="fill:none" id="t5d86a5c73b594a7e87e6be0a3d540ded"><g class="toyplot-Series"><path d="M 97.9584106829005 232.97385620915034 L 98.77402472934727 221.6013071895425 L 99.58963877579403 190.68627450980392 L 100.40525282224078 148.59477124183007 L 101.22086686868752 109.70588235294119 L 102.03648091513429 75.98039215686273 L 102.85209496158105 65.0 L 103.6677090080278 77.81045751633987 L 104.48332305447455 95.26143790849673 L 105.29893710092131 125.26143790849673 L 106.11455114736806 148.72549019607843 L 106.93016519381482 164.9346405228758 L 107.74577924026158 190.03267973856208 L 108.56139328670832 202.58169934640523 L 109.37700733315509 212.7124183006536 L 110.19262137960183 218.39869281045753 L 111.0082354260486 224.9346405228758 L 111.82384947249534 228.20261437908496 L 112.63946351894211 230.62091503267973 L 113.45507756538886 232.3856209150327 L 114.27069161183562 233.69281045751632 L 115.08630565828236 234.2156862745098 L 115.90191970472912 234.67320261437908 L 116.71753375117588 234.4771241830065 L 117.53314779762262 234.6078431372549 L 118.3487618440694 235.0 L 119.16437589051614 234.9346405228758 L 119.97998993696291 234.9346405228758 L 120.79560398340965 234.9346405228758 L 121.6112180298564 234.9346405228758" style="stroke:rgb(45.9%,43.9%,70.2%);stroke-opacity:1.0;stroke-width:4.0" /></g></g><g class="toyplot-mark-FillBoundaries" style="fill:rgb(40%,76.1%,64.7%);fill-opacity:0.33;stroke:none" id="t84bf50f8dff640dfb2f761c958520ed8"><polygon points="104.40489275110325,235.0 112.22431666822294,235.0 120.04374058534265,235.0 127.86316450246234,235.0 135.68258841958203,235.0 143.50201233670168,235.0 151.3214362538214,235.0 159.1408601709411,235.0 166.96028408806077,235.0 174.77970800518048,235.0 182.5991319223002,235.0 190.41855583941987,235.0 198.23797975653957,235.0 206.05740367365925,235.0 213.87682759077896,235.0 221.69625150789867,235.0 229.51567542501832,235.0 237.33509934213802,235.0 245.15452325925773,235.0 252.9739471763774,235.0 260.7933710934971,235.0 268.6127950106168,235.0 276.43221892773647,235.0 284.2516428448562,235.0 292.0710667619759,235.0 299.89049067909554,235.0 307.70991459621524,235.0 315.52933851333495,235.0 323.34876243045466,235.0 331.16818634757436,235.0 331.16818634757436,234.9475632325725 323.34876243045466,235.0 315.52933851333495,234.9475632325725 307.70991459621524,234.79025293028994 299.89049067909554,234.9475632325725 292.0710667619759,234.84268969771745 284.2516428448562,234.79025293028994 276.43221892773647,234.63294262800738 268.6127950106168,234.73781616286243 260.7933710934971,234.63294262800738 252.9739471763774,233.95126465144972 245.15452325925773,233.8988278840222 237.33509934213802,233.37446020974707 229.51567542501832,232.58790869833436 221.69625150789867,229.54657618753856 213.87682759077896,228.13078346699567 206.05740367365925,223.51634793337445 198.23797975653957,218.58729179518815 190.41855583941987,209.62060456508328 182.5991319223002,200.86366440468848 174.77970800518048,181.14743985194323 166.96028408806077,158.07526218383714 159.1408601709411,126.1412708204812 151.3214362538214,95.30845157310301 143.50201233670168,68.35595311536089 135.68258841958203,65.0 127.86316450246234,100.08019740900679 120.04374058534265,164.62985811227637 112.22431666822294,217.17149907464525 104.40489275110325,233.00740283775448" style="fill:rgb(40%,76.1%,64.7%);fill-opacity:0.33;opacity:1.0;stroke:none" /></g><g class="toyplot-mark-Plot" style="fill:none" id="t16facbc5c1124d168f62fd51faa82c5e"><g class="toyplot-Series"><path d="M 104.40489275110325 233.00740283775448 L 112.22431666822294 217.17149907464525 L 120.04374058534265 164.62985811227637 L 127.86316450246234 100.08019740900679 L 135.68258841958203 65.0 L 143.50201233670168 68.35595311536089 L 151.3214362538214 95.30845157310301 L 159.1408601709411 126.1412708204812 L 166.96028408806077 158.07526218383714 L 174.77970800518048 181.14743985194323 L 182.5991319223002 200.86366440468848 L 190.41855583941987 209.62060456508328 L 198.23797975653957 218.58729179518815 L 206.05740367365925 223.51634793337445 L 213.87682759077896 228.13078346699567 L 221.69625150789867 229.54657618753856 L 229.51567542501832 232.58790869833436 L 237.33509934213802 233.37446020974707 L 245.15452325925773 233.8988278840222 L 252.9739471763774 233.95126465144972 L 260.7933710934971 234.63294262800738 L 268.6127950106168 234.73781616286243 L 276.43221892773647 234.63294262800738 L 284.2516428448562 234.79025293028994 L 292.0710667619759 234.84268969771745 L 299.89049067909554 234.9475632325725 L 307.70991459621524 234.79025293028994 L 315.52933851333495 234.9475632325725 L 323.34876243045466 235.0 L 331.16818634757436 234.9475632325725" style="stroke:rgb(10.6%,62%,46.7%);stroke-opacity:1.0;stroke-width:4.0" /></g></g></g><g class="toyplot-coordinates-Axis" id="t0c058a72689a4df987937312f860c2a7" transform="translate(65.0,235.0)translate(0,10.0)"><line x1="0" y1="0" x2="220.0" y2="0" style="stroke-width:3" /><g><line x1="0.0" y1="7.5" x2="0.0" y2="0" style="stroke-width:3" /><line x1="73.33333333333333" y1="7.5" x2="73.33333333333333" y2="0" style="stroke-width:3" /><line x1="146.66666666666666" y1="7.5" x2="146.66666666666666" y2="0" style="stroke-width:3" /><line x1="220.0" y1="7.5" x2="220.0" y2="0" style="stroke-width:3" /></g><g><g transform="translate(0.0,12.0)"><text x="-4.448" y="13.687999999999999" style="fill:rgb(16.1%,15.3%,14.1%);fill-opacity:1.0;font-family:helvetica;font-size:16.0px;font-weight:normal;stroke:none;vertical-align:baseline;white-space:pre">0</text></g><g transform="translate(73.33333333333333,12.0)"><text x="-4.448" y="13.687999999999999" style="fill:rgb(16.1%,15.3%,14.1%);fill-opacity:1.0;font-family:helvetica;font-size:16.0px;font-weight:normal;stroke:none;vertical-align:baseline;white-space:pre">8</text></g><g transform="translate(146.66666666666666,12.0)"><text x="-8.896" y="13.687999999999999" style="fill:rgb(16.1%,15.3%,14.1%);fill-opacity:1.0;font-family:helvetica;font-size:16.0px;font-weight:normal;stroke:none;vertical-align:baseline;white-space:pre">16</text></g><g transform="translate(220.0,12.0)"><text x="-8.896" y="13.687999999999999" style="fill:rgb(16.1%,15.3%,14.1%);fill-opacity:1.0;font-family:helvetica;font-size:16.0px;font-weight:normal;stroke:none;vertical-align:baseline;white-space:pre">24</text></g></g><g transform="translate(110.0,35.0)"><text x="-109.8096" y="13.687999999999999" style="fill:rgb(16.1%,15.3%,14.1%);fill-opacity:1.0;font-family:helvetica;font-size:16.0px;font-weight:bold;stroke:none;vertical-align:baseline;white-space:pre">Genealogy sum length (x10</text><text x="98.25439999999999" y="10.328" style="fill:rgb(16.1%,15.3%,14.1%);fill-opacity:1.0;font-family:helvetica;font-size:11.2px;font-weight:bold;stroke:none;vertical-align:baseline;white-space:pre">6</text><text x="104.48159999999999" y="13.687999999999999" style="fill:rgb(16.1%,15.3%,14.1%);fill-opacity:1.0;font-family:helvetica;font-size:16.0px;font-weight:bold;stroke:none;vertical-align:baseline;white-space:pre">)</text></g><g class="toyplot-coordinates-Axis-coordinates" style="visibility:hidden" transform=""><line x1="0" x2="0" y1="-6.0" y2="9.0" style="stroke:rgb(43.9%,50.2%,56.5%);stroke-opacity:1.0;stroke-width:1.0" /><text x="0" y="-12.0" style="alignment-baseline:alphabetic;fill:rgb(43.9%,50.2%,56.5%);fill-opacity:1.0;font-size:10px;font-weight:normal;stroke:none;text-anchor:middle" /></g></g><g class="toyplot-coordinates-Axis" id="tb07863f205724ac5b978154f7bea592a" transform="translate(65.0,235.0)rotate(-90.0)translate(0,-10.0)"><line x1="0" y1="0" x2="170.0" y2="0" style="stroke-width:3" /><g><line x1="0.0" y1="-7.5" x2="0.0" y2="0" style="stroke-width:3" /><line x1="85.0" y1="-7.5" x2="85.0" y2="0" style="stroke-width:3" /><line x1="170.0" y1="-7.5" x2="170.0" y2="0" style="stroke-width:3" /></g><g><g transform="translate(0.0,-12.0)"><text x="-11.12" y="0.0" style="fill:rgb(16.1%,15.3%,14.1%);fill-opacity:1.0;font-family:helvetica;font-size:16.0px;font-weight:normal;stroke:none;vertical-align:baseline;white-space:pre">0.0</text></g><g transform="translate(85.0,-12.0)"><text x="-11.12" y="0.0" style="fill:rgb(16.1%,15.3%,14.1%);fill-opacity:1.0;font-family:helvetica;font-size:16.0px;font-weight:normal;stroke:none;vertical-align:baseline;white-space:pre">0.5</text></g><g transform="translate(170.0,-12.0)"><text x="-11.12" y="0.0" style="fill:rgb(16.1%,15.3%,14.1%);fill-opacity:1.0;font-family:helvetica;font-size:16.0px;font-weight:normal;stroke:none;vertical-align:baseline;white-space:pre">1.0</text></g></g><g class="toyplot-coordinates-Axis-coordinates" style="visibility:hidden" transform=""><line x1="0" x2="0" y1="6.0" y2="-9.0" style="stroke:rgb(43.9%,50.2%,56.5%);stroke-opacity:1.0;stroke-width:1.0" /><text x="0" y="12.0" style="alignment-baseline:hanging;fill:rgb(43.9%,50.2%,56.5%);fill-opacity:1.0;font-size:10px;font-weight:normal;stroke:none;text-anchor:middle" /></g></g></g></svg>