<svg class="toyplot-canvas-Canvas" xmlns:toyplot="http://www.sandia.gov/toyplot" xmlns:xlink="http://www.w3.org/1999/xlink" xmlns="http://www.w3.org/2000/svg" width="350.0px" height="300.0px" viewBox="0 0 350.0 300.0" preserveAspectRatio="xMidYMid meet" style="background-color:transparent;border-color:#292724;border-style:none;border-width:1.0;fill:rgb(16.1%,15.3%,14.1%);fill-opacity:1.0;font-family:Helvetica;font-size:12px;opacity:1.0;stroke:rgb(16.1%,15.3%,14.1%);stroke-opacity:1.0;stroke-width:1.0" id="td068ca635e0f41e9b6401c0d24b30862"><g class="toyplot-coordinates-Cartesian" id="t548f82c1149149189153f8a9ff8ceaad"><clipPath id="tb30e223b053d408f9ea7d759102094d1"><rect x="55.0" y="55.0" width="240.0" height="190.0" /></clipPath><g clip-path="url(#tb30e223b053d408f9ea7d759102094d1)"><g class="toyplot-mark-AxisLines" style="stroke:rgb(50.2%,50.2%,50.2%);stroke-dasharray:6,6;stroke-opacity:0.7;stroke-width:2" id="t24b2712216cd4cb790c79747da23a4d0"><g class="toyplot-Series"><line class="toyplot-Datum" x1="65.0" x2="65.0" y1="65.0" y2="235.0" style="opacity:1.0;stroke:rgb(50.2%,50.2%,50.2%);stroke-dasharray:6,6;stroke-opacity:0.7;stroke-width:2" /><line class="toyplot-Datum" x1="138.33333333333334" x2="138.33333333333334" y1="65.0" y2="235.0" style="opacity:1.0;stroke:rgb(50.2%,50.2%,50.2%);stroke-dasharray:6,6;stroke-opacity:0.7;stroke-width:2" /><line class="toyplot-Datum" x1="211.66666666666666" x2="211.66666666666666" y1="65.0" y2="235.0" style="opacity:1.0;stroke:rgb(50.2%,50.2%,50.2%);stroke-dasharray:6,6;stroke-opacity:0.7;stroke-width:2" /><line class="toyplot-Datum" x1="285.0" x2="285.0" y1="65.0" y2="235.0" style="opacity:1.0;stroke:rgb(50.2%,50.2%,50.2%);stroke-dasharray:6,6;stroke-opacity:0.7;stroke-width:2" /></g></g><g class="toyplot-mark-FillBoundaries" style="fill:rgb(2%,18.8%,38%);fill-opacity:0.33;stroke:none" id="t22eb8895c5f8413ba3365201b84d94a9"><polygon points="98.25236645310889,117.3076923076923 98.78616796595117,117.3076923076923 99.31996947879344,117.3076923076923 99.85377099163571,117.3076923076923 100.38757250447799,117.3076923076923 100.92137401732026,117.3076923076923 101.45517553016253,117.3076923076923 101.98897704300481,117.3076923076923 102.52277855584708,117.3076923076923 103.05658006868936,117.3076923076923 103.59038158153163,117.3076923076923 104.1241830943739,117.3076923076923 104.65798460721618,117.3076923076923 105.19178612005845,117.3076923076923 105.72558763290073,117.3076923076923 106.259389145743,117.3076923076923 106.79319065858527,117.3076923076923 107.32699217142753,117.3076923076923 107.86079368426982,117.3076923076923 108.39459519711208,117.3076923076923 108.92839670995436,117.3076923076923 109.46219822279662,117.3076923076923 109.99599973563889,117.3076923076923 110.52980124848116,117.3076923076923 111.06360276132344,117.3076923076923 111.59740427416571,117.3076923076923 112.13120578700799,117.3076923076923 112.66500729985026,117.3076923076923 113.19880881269253,117.3076923076923 113.73261032553481,117.3076923076923 114.26641183837708,117.3076923076923 114.80021335121936,117.3076923076923 115.33401486406163,117.3076923076923 115.8678163769039,117.3076923076923 116.40161788974618,117.3076923076923 116.93541940258845,117.3076923076923 117.46922091543072,117.3076923076923 118.003022428273,117.3076923076923 118.53682394111526,117.3076923076923 119.07062545395755,117.3076923076923 119.07062545395755,117.18225419664267 118.53682394111526,117.24497325216751 118.003022428273,117.24497325216751 117.46922091543072,117.18225419664267 116.93541940258845,117.18225419664267 116.40161788974618,117.11953514111788 115.8678163769039,116.99409703006825 115.33401486406163,116.93137797454345 114.80021335121936,116.93137797454345 114.26641183837708,117.05681608559308 113.73261032553481,115.86515403062168 113.19880881269253,115.92787308614648 112.66500729985026,115.92787308614648 112.13120578700799,115.67699686404724 111.59740427416571,113.98358236487732 111.06360276132344,113.66998708725328 110.52980124848116,112.41560597675706 109.99599973563889,112.10201069913302 109.46219822279662,111.4748201438849 108.92839670995436,107.89983397897068 108.39459519711208,106.20641947980079 107.86079368426982,103.57221914775872 107.32699217142753,99.55819959417082 106.79319065858527,94.41523704113632 106.259389145743,89.89946504334995 105.72558763290073,82.18502121379818 105.19178612005845,80.11529238147943 104.65798460721618,72.33812949640287 104.1241830943739,71.33462460800592 103.59038158153163,65.0 103.05658006868936,66.00350488839698 102.52277855584708,66.8815716657443 101.98897704300481,70.14296255303452 101.45517553016253,75.22320605054419 100.92137401732026,82.74949271352149 100.38757250447799,92.40822726434237 99.85377099163571,101.87880464858881 99.31996947879344,108.5897435897436 98.78616796595117,114.23445858697657 98.25236645310889,116.36690647482015" style="fill:rgb(2%,18.8%,38%);fill-opacity:0.33;opacity:1.0;stroke:none" /></g><g class="toyplot-mark-Plot" style="fill:none;stroke-opacity:0.7" id="t70bc850aacba4b8bbb5e78f5ab1abdf6"><g class="toyplot-Series"><path d="M 98.25236645310889 116.36690647482015 L 98.78616796595117 114.23445858697657 L 99.31996947879344 108.5897435897436 L 99.85377099163571 101.87880464858881 L 100.38757250447799 92.40822726434237 L 100.92137401732026 82.74949271352149 L 101.45517553016253 75.22320605054419 L 101.98897704300481 70.14296255303452 L 102.52277855584708 66.8815716657443 L 103.05658006868936 66.00350488839698 L 103.59038158153163 65.0 L 104.1241830943739 71.33462460800592 L 104.65798460721618 72.33812949640287 L 105.19178612005845 80.11529238147943 L 105.72558763290073 82.18502121379818 L 106.259389145743 89.89946504334995 L 106.79319065858527 94.41523704113632 L 107.32699217142753 99.55819959417082 L 107.86079368426982 103.57221914775872 L 108.39459519711208 106.20641947980079 L 108.92839670995436 107.89983397897068 L 109.46219822279662 111.4748201438849 L 109.99599973563889 112.10201069913302 L 110.52980124848116 112.41560597675706 L 111.06360276132344 113.66998708725328 L 111.59740427416571 113.98358236487732 L 112.13120578700799 115.67699686404724 L 112.66500729985026 115.92787308614648 L 113.19880881269253 115.92787308614648 L 113.73261032553481 115.86515403062168 L 114.26641183837708 117.05681608559308 L 114.80021335121936 116.93137797454345 L 115.33401486406163 116.93137797454345 L 115.8678163769039 116.99409703006825 L 116.40161788974618 117.11953514111788 L 116.93541940258845 117.18225419664267 L 117.46922091543072 117.18225419664267 L 118.003022428273 117.24497325216751 L 118.53682394111526 117.24497325216751 L 119.07062545395755 117.18225419664267" style="stroke:rgb(0%,0%,0%);stroke-opacity:0.7;stroke-width:2.0" /></g></g><g class="toyplot-mark-FillBoundaries" style="fill:rgb(12.9%,40%,67.5%);fill-opacity:0.33;stroke:none" id="t662d413009ea4b6aad08cc8ad07b4ecc"><polygon points="98.89573433386767,130.38461538461536 99.99117743508168,130.38461538461536 101.08662053629573,130.38461538461536 102.18206363750977,130.38461538461536 103.2775067387238,130.38461538461536 104.37294983993785,130.38461538461536 105.46839294115188,130.38461538461536 106.56383604236589,130.38461538461536 107.65927914357994,130.38461538461536 108.75472224479398,130.38461538461536 109.850165346008,130.38461538461536 110.94560844722204,130.38461538461536 112.04105154843609,130.38461538461536 113.13649464965013,130.38461538461536 114.23193775086415,130.38461538461536 115.32738085207819,130.38461538461536 116.42282395329222,130.38461538461536 117.51826705450625,130.38461538461536 118.6137101557203,130.38461538461536 119.70915325693433,130.38461538461536 120.80459635814836,130.38461538461536 121.9000394593624,130.38461538461536 122.99548256057642,130.38461538461536 124.09092566179046,130.38461538461536 125.18636876300451,130.38461538461536 126.28181186421854,130.38461538461536 127.37725496543257,130.38461538461536 128.47269806664661,130.38461538461536 129.56814116786066,130.38461538461536 130.66358426907465,130.38461538461536 131.7590273702887,130.38461538461536 132.85447047150274,130.38461538461536 133.94991357271678,130.38461538461536 135.04535667393083,130.38461538461536 136.14079977514484,130.38461538461536 137.2362428763589,130.38461538461536 138.33168597757293,130.38461538461536 139.42712907878695,130.38461538461536 140.522572180001,130.38461538461536 141.61801528121504,130.38461538461536 141.61801528121504,130.3303542930099 140.522572180001,130.3303542930099 139.42712907878695,130.22183210979892 138.33168597757293,130.2760932014044 137.2362428763589,130.16757101819343 136.14079977514484,130.2760932014044 135.04535667393083,130.22183210979892 133.94991357271678,129.95052665177144 132.85447047150274,130.2760932014044 131.7590273702887,130.16757101819343 130.66358426907465,129.787743376955 129.56814116786066,130.05904883498243 128.47269806664661,129.3536546441111 127.37725496543257,129.2451324609001 126.28181186421854,129.1908713692946 125.18636876300451,128.59399936163422 124.09092566179046,127.78008298755186 122.99548256057642,127.72582189594638 121.9000394593624,125.17555059048834 120.80459635814836,124.41589530801149 119.70915325693433,121.81136291094798 118.6137101557203,120.34631343759973 117.51826705450625,116.38525375039899 116.42282395329222,112.36993297159273 115.32738085207819,110.19948930737314 114.23193775086415,104.17650813916373 113.13649464965013,95.2776891158634 112.04105154843609,93.97542291733163 110.94560844722204,85.07660389403128 109.850165346008,82.85189913820619 108.75472224479398,78.07692307692307 107.65927914357994,79.4877114586658 106.56383604236589,84.69677625279286 105.46839294115188,91.913501436323 104.37294983993785,99.07596552824768 103.2775067387238,111.5017555059049 102.18206363750977,118.55569741461858 101.08662053629573,125.17555059048834 99.99117743508168,128.2684328120013 98.89573433386767,130.00478774337697" style="fill:rgb(12.9%,40%,67.5%);fill-opacity:0.33;opacity:1.0;stroke:none" /></g><g class="toyplot-mark-Plot" style="fill:none;stroke-opacity:0.7" id="t18dcfdda4b5e405e8074b7b0e156ecbf"><g class="toyplot-Series"><path d="M 98.89573433386767 130.00478774337697 L 99.99117743508168 128.2684328120013 L 101.08662053629573 125.17555059048834 L 102.18206363750977 118.55569741461858 L 103.2775067387238 111.5017555059049 L 104.37294983993785 99.07596552824768 L 105.46839294115188 91.913501436323 L 106.56383604236589 84.69677625279286 L 107.65927914357994 79.4877114586658 L 108.75472224479398 78.07692307692307 L 109.850165346008 82.85189913820619 L 110.94560844722204 85.07660389403128 L 112.04105154843609 93.97542291733163 L 113.13649464965013 95.2776891158634 L 114.23193775086415 104.17650813916373 L 115.32738085207819 110.19948930737314 L 116.42282395329222 112.36993297159273 L 117.51826705450625 116.38525375039899 L 118.6137101557203 120.34631343759973 L 119.70915325693433 121.81136291094798 L 120.80459635814836 124.41589530801149 L 121.9000394593624 125.17555059048834 L 122.99548256057642 127.72582189594638 L 124.09092566179046 127.78008298755186 L 125.18636876300451 128.59399936163422 L 126.28181186421854 129.1908713692946 L 127.37725496543257 129.2451324609001 L 128.47269806664661 129.3536546441111 L 129.56814116786066 130.05904883498243 L 130.66358426907465 129.787743376955 L 131.7590273702887 130.16757101819343 L 132.85447047150274 130.2760932014044 L 133.94991357271678 129.95052665177144 L 135.04535667393083 130.22183210979892 L 136.14079977514484 130.2760932014044 L 137.2362428763589 130.16757101819343 L 138.33168597757293 130.2760932014044 L 139.42712907878695 130.22183210979892 L 140.522572180001 130.3303542930099 L 141.61801528121504 130.3303542930099" style="stroke:rgb(0%,0%,0%);stroke-opacity:0.7;stroke-width:2.0" /></g></g><g class="toyplot-mark-FillBoundaries" style="fill:rgb(26.3%,57.6%,76.5%);fill-opacity:0.33;stroke:none" id="t2883f11f251542ee9979895e898dae88"><polygon points="100.8415533228738,143.46153846153845 102.28094116562849,143.46153846153845 103.72032900838317,143.46153846153845 105.15971685113783,143.46153846153845 106.59910469389251,143.46153846153845 108.0384925366472,143.46153846153845 109.47788037940188,143.46153846153845 110.91726822215657,143.46153846153845 112.35665606491122,143.46153846153845 113.7960439076659,143.46153846153845 115.23543175042059,143.46153846153845 116.67481959317524,143.46153846153845 118.11420743592993,143.46153846153845 119.55359527868461,143.46153846153845 120.9929831214393,143.46153846153845 122.43237096419395,143.46153846153845 123.87175880694863,143.46153846153845 125.31114664970332,143.46153846153845 126.75053449245797,143.46153846153845 128.18992233521266,143.46153846153845 129.62931017796734,143.46153846153845 131.068698020722,143.46153846153845 132.5080858634767,143.46153846153845 133.9474737062314,143.46153846153845 135.38686154898605,143.46153846153845 136.82624939174073,143.46153846153845 138.26563723449541,143.46153846153845 139.70502507725007,143.46153846153845 141.14441292000475,143.46153846153845 142.5838007627594,143.46153846153845 144.0231886055141,143.46153846153845 145.46257644826878,143.46153846153845 146.90196429102346,143.46153846153845 148.34135213377814,143.46153846153845 149.78073997653283,143.46153846153845 151.22012781928748,143.46153846153845 152.65951566204217,143.46153846153845 154.09890350479685,143.46153846153845 155.53829134755154,143.46153846153845 156.9776791903062,143.46153846153845 156.9776791903062,143.28260678887818 155.53829134755154,143.34225067976496 154.09890350479685,143.46153846153845 152.65951566204217,143.28260678887818 151.22012781928748,143.34225067976496 149.78073997653283,143.16331900710463 148.34135213377814,143.34225067976496 146.90196429102346,143.2229628979914 145.46257644826878,142.9247434435576 144.0231886055141,142.68616788001054 142.5838007627594,142.7458117708973 141.14441292000475,142.32830453468995 139.70502507725007,142.08972897114288 138.26563723449541,141.37400228050168 136.82624939174073,141.07578282606787 135.38686154898605,140.65827558986052 133.9474737062314,139.64432944478557 132.5080858634767,137.97430049995614 131.068698020722,138.1532321726164 129.62931017796734,135.94640820980615 128.18992233521266,132.42741864748706 126.75053449245797,131.23454082975178 125.31114664970332,128.1927023945268 123.87175880694863,124.07727392334006 122.43237096419395,119.72326988860627 120.9929831214393,113.3413735637225 119.55359527868461,106.66125778440487 118.11420743592993,104.87194105780193 116.67481959317524,98.19182527848434 115.23543175042059,92.7642312077888 113.7960439076659,91.15384615384616 112.35665606491122,91.15384615384616 110.91726822215657,97.35681080606963 109.47788037940188,102.30725374967108 108.0384925366472,107.91377949302694 106.59910469389251,120.02148934304007 105.15971685113783,129.08736075782824 103.72032900838317,135.46925708271203 102.28094116562849,139.64432944478557 100.8415533228738,142.3879484255767" style="fill:rgb(26.3%,57.6%,76.5%);fill-opacity:0.33;opacity:1.0;stroke:none" /></g><g class="toyplot-mark-Plot" style="fill:none;stroke-opacity:0.7" id="t763677e72ab649a398edac1c8d9075bf"><g class="toyplot-Series"><path d="M 100.8415533228738 142.3879484255767 L 102.28094116562849 139.64432944478557 L 103.72032900838317 135.46925708271203 L 105.15971685113783 129.08736075782824 L 106.59910469389251 120.02148934304007 L 108.0384925366472 107.91377949302694 L 109.47788037940188 102.30725374967108 L 110.91726822215657 97.35681080606963 L 112.35665606491122 91.15384615384616 L 113.7960439076659 91.15384615384616 L 115.23543175042059 92.7642312077888 L 116.67481959317524 98.19182527848434 L 118.11420743592993 104.87194105780193 L 119.55359527868461 106.66125778440487 L 120.9929831214393 113.3413735637225 L 122.43237096419395 119.72326988860627 L 123.87175880694863 124.07727392334006 L 125.31114664970332 128.1927023945268 L 126.75053449245797 131.23454082975178 L 128.18992233521266 132.42741864748706 L 129.62931017796734 135.94640820980615 L 131.068698020722 138.1532321726164 L 132.5080858634767 137.97430049995614 L 133.9474737062314 139.64432944478557 L 135.38686154898605 140.65827558986052 L 136.82624939174073 141.07578282606787 L 138.26563723449541 141.37400228050168 L 139.70502507725007 142.08972897114288 L 141.14441292000475 142.32830453468995 L 142.5838007627594 142.7458117708973 L 144.0231886055141 142.68616788001054 L 145.46257644826878 142.9247434435576 L 146.90196429102346 143.2229628979914 L 148.34135213377814 143.34225067976496 L 149.78073997653283 143.16331900710463 L 151.22012781928748 143.34225067976496 L 152.65951566204217 143.28260678887818 L 154.09890350479685 143.46153846153845 L 155.53829134755154 143.34225067976496 L 156.9776791903062 143.28260678887818" style="stroke:rgb(0%,0%,0%);stroke-opacity:0.7;stroke-width:2.0" /></g></g><g class="toyplot-mark-FillBoundaries" style="fill:rgb(57.3%,77.3%,87.1%);fill-opacity:0.33;stroke:none" id="t0b098578bbf7456f9b92235b6f043ae5"><polygon points="100.64701070751164,156.53846153846155 102.9718726145552,156.53846153846155 105.29673452159875,156.53846153846155 107.6215964286423,156.53846153846155 109.94645833568586,156.53846153846155 112.27132024272942,156.53846153846155 114.59618214977297,156.53846153846155 116.92104405681653,156.53846153846155 119.24590596386008,156.53846153846155 121.57076787090361,156.53846153846155 123.89562977794719,156.53846153846155 126.22049168499075,156.53846153846155 128.54535359203427,156.53846153846155 130.87021549907786,156.53846153846155 133.19507740612138,156.53846153846155 135.51993931316494,156.53846153846155 137.84480122020852,156.53846153846155 140.16966312725205,156.53846153846155 142.4945250342956,156.53846153846155 144.81938694133916,156.53846153846155 147.14424884838272,156.53846153846155 149.46911075542627,156.53846153846155 151.79397266246983,156.53846153846155 154.11883456951335,156.53846153846155 156.4436964765569,156.53846153846155 158.76855838360046,156.53846153846155 161.09342029064402,156.53846153846155 163.41828219768757,156.53846153846155 165.74314410473113,156.53846153846155 168.06800601177468,156.53846153846155 170.39286791881824,156.53846153846155 172.7177298258618,156.53846153846155 175.04259173290535,156.53846153846155 177.3674536399489,156.53846153846155 179.69231554699246,156.53846153846155 182.017177454036,156.53846153846155 184.34203936107957,156.53846153846155 186.66690126812313,156.53846153846155 188.99176317516665,156.53846153846155 191.3166250822102,156.53846153846155 191.3166250822102,156.44204182913862 188.99176317516665,156.53846153846155 186.66690126812313,156.53846153846155 184.34203936107957,156.53846153846155 182.017177454036,156.49025168380007 179.69231554699246,156.53846153846155 177.3674536399489,156.49025168380007 175.04259173290535,156.44204182913862 172.7177298258618,156.53846153846155 170.39286791881824,156.2492024104927 168.06800601177468,156.2492024104927 165.74314410473113,156.20099255583125 163.41828219768757,156.10457284650835 161.09342029064402,156.10457284650835 158.76855838360046,155.9599432825239 156.4436964765569,156.05636299184687 154.11883456951335,155.38142502658633 151.79397266246983,154.6582772066643 149.46911075542627,154.03154909606525 147.14424884838272,154.2725983693726 144.81938694133916,153.11556185749734 142.4945250342956,150.9461183977313 140.16966312725205,150.03013115916343 137.84480122020852,145.8840836582772 135.51993931316494,144.48599787309465 133.19507740612138,141.2559376107763 130.87021549907786,134.69939737681673 128.54535359203427,129.10705423608647 126.22049168499075,124.43069833392413 123.89562977794719,113.29422190712512 121.57076787090361,110.44984048209855 119.24590596386008,104.23076923076923 116.92104405681653,104.61644806806099 114.59618214977297,107.07515065579582 112.27132024272942,118.21162708259483 109.94645833568586,129.34810350939384 107.6215964286423,138.79723502304148 105.29673452159875,149.06593406593407 102.9718726145552,154.5136476426799 100.64701070751164,156.05636299184687" style="fill:rgb(57.3%,77.3%,87.1%);fill-opacity:0.33;opacity:1.0;stroke:none" /></g><g class="toyplot-mark-Plot" style="fill:none;stroke-opacity:0.7" id="t221574463b7a400b85aa097059721b0c"><g class="toyplot-Series"><path d="M 100.64701070751164 156.05636299184687 L 102.9718726145552 154.5136476426799 L 105.29673452159875 149.06593406593407 L 107.6215964286423 138.79723502304148 L 109.94645833568586 129.34810350939384 L 112.27132024272942 118.21162708259483 L 114.59618214977297 107.07515065579582 L 116.92104405681653 104.61644806806099 L 119.24590596386008 104.23076923076923 L 121.57076787090361 110.44984048209855 L 123.89562977794719 113.29422190712512 L 126.22049168499075 124.43069833392413 L 128.54535359203427 129.10705423608647 L 130.87021549907786 134.69939737681673 L 133.19507740612138 141.2559376107763 L 135.51993931316494 144.48599787309465 L 137.84480122020852 145.8840836582772 L 140.16966312725205 150.03013115916343 L 142.4945250342956 150.9461183977313 L 144.81938694133916 153.11556185749734 L 147.14424884838272 154.2725983693726 L 149.46911075542627 154.03154909606525 L 151.79397266246983 154.6582772066643 L 154.11883456951335 155.38142502658633 L 156.4436964765569 156.05636299184687 L 158.76855838360046 155.9599432825239 L 161.09342029064402 156.10457284650835 L 163.41828219768757 156.10457284650835 L 165.74314410473113 156.20099255583125 L 168.06800601177468 156.2492024104927 L 170.39286791881824 156.2492024104927 L 172.7177298258618 156.53846153846155 L 175.04259173290535 156.44204182913862 L 177.3674536399489 156.49025168380007 L 179.69231554699246 156.53846153846155 L 182.017177454036 156.49025168380007 L 184.34203936107957 156.53846153846155 L 186.66690126812313 156.53846153846155 L 188.99176317516665 156.53846153846155 L 191.3166250822102 156.44204182913862" style="stroke:rgb(0%,0%,0%);stroke-opacity:0.7;stroke-width:2.0" /></g></g><g class="toyplot-mark-FillBoundaries" style="fill:rgb(82%,89.8%,94.1%);fill-opacity:0.33;stroke:none" id="t8c63a8f960204c1c8be5e7802930464d"><polygon points="103.0527558089653,169.6153846153846 106.22588440990796,169.6153846153846 109.39901301085064,169.6153846153846 112.5721416117933,169.6153846153846 115.74527021273596,169.6153846153846 118.91839881367864,169.6153846153846 122.0915274146213,169.6153846153846 125.26465601556396,169.6153846153846 128.4377846165066,169.6153846153846 131.6109132174493,169.6153846153846 134.78404181839196,169.6153846153846 137.95717041933463,169.6153846153846 141.13029902027728,169.6153846153846 144.30342762121995,169.6153846153846 147.47655622216263,169.6153846153846 150.64968482310528,169.6153846153846 153.82281342404795,169.6153846153846 156.99594202499063,169.6153846153846 160.1690706259333,169.6153846153846 163.34219922687595,169.6153846153846 166.5153278278186,169.6153846153846 169.6884564287613,169.6153846153846 172.86158502970395,169.6153846153846 176.0347136306466,169.6153846153846 179.2078422315893,169.6153846153846 182.38097083253194,169.6153846153846 185.55409943347462,169.6153846153846 188.72722803441727,169.6153846153846 191.90035663535994,169.6153846153846 195.07348523630262,169.6153846153846 198.24661383724526,169.6153846153846 201.41974243818794,169.6153846153846 204.5928710391306,169.6153846153846 207.76599964007326,169.6153846153846 210.93912824101594,169.6153846153846 214.11225684195858,169.6153846153846 217.28538544290126,169.6153846153846 220.45851404384393,169.6153846153846 223.63164264478655,169.6153846153846 226.80477124572928,169.6153846153846 226.80477124572928,169.57326892109504 223.63164264478655,169.6153846153846 220.45851404384393,169.6153846153846 217.28538544290126,169.57326892109504 214.11225684195858,169.6153846153846 210.93912824101594,169.6153846153846 207.76599964007326,169.57326892109504 204.5928710391306,169.6153846153846 201.41974243818794,169.57326892109504 198.24661383724526,169.57326892109504 195.07348523630262,169.57326892109504 191.90035663535994,169.57326892109504 188.72722803441727,169.40480614393658 185.55409943347462,169.40480614393658 182.38097083253194,169.4890375325158 179.2078422315893,169.27845906106774 176.0347136306466,169.27845906106774 172.86158502970395,168.9836492010405 169.6884564287613,169.06788058961973 166.5153278278186,168.22556670382758 163.34219922687595,168.52037656385482 160.1690706259333,167.17267434658737 156.99594202499063,166.66728601511213 153.82281342404795,164.9826582435278 150.64968482310528,162.79264214046825 147.47655622216263,162.28725380899294 144.30342762121995,158.45472562863867 141.13029902027728,155.59085841694537 137.95717041933463,148.97869441347703 134.78404181839196,143.46153846153845 131.6109132174493,134.95416821503778 128.4377846165066,128.6368140715967 125.26465601556396,118.9080886906974 122.0915274146213,117.3076923076923 118.91839881367864,119.37136132788306 115.74527021273596,129.05797101449275 112.5721416117933,140.59767124984515 109.39901301085064,154.74854453115324 106.22588440990796,164.14034435773564 103.0527558089653,168.60460795243404" style="fill:rgb(82%,89.8%,94.1%);fill-opacity:0.33;opacity:1.0;stroke:none" /></g><g class="toyplot-mark-Plot" style="fill:none;stroke-opacity:0.7" id="t5604a5da5bb34f04812ba260f901d424"><g class="toyplot-Series"><path d="M 103.0527558089653 168.60460795243404 L 106.22588440990796 164.14034435773564 L 109.39901301085064 154.74854453115324 L 112.5721416117933 140.59767124984515 L 115.74527021273596 129.05797101449275 L 118.91839881367864 119.37136132788306 L 122.0915274146213 117.3076923076923 L 125.26465601556396 118.9080886906974 L 128.4377846165066 128.6368140715967 L 131.6109132174493 134.95416821503778 L 134.78404181839196 143.46153846153845 L 137.95717041933463 148.97869441347703 L 141.13029902027728 155.59085841694537 L 144.30342762121995 158.45472562863867 L 147.47655622216263 162.28725380899294 L 150.64968482310528 162.79264214046825 L 153.82281342404795 164.9826582435278 L 156.99594202499063 166.66728601511213 L 160.1690706259333 167.17267434658737 L 163.34219922687595 168.52037656385482 L 166.5153278278186 168.22556670382758 L 169.6884564287613 169.06788058961973 L 172.86158502970395 168.9836492010405 L 176.0347136306466 169.27845906106774 L 179.2078422315893 169.27845906106774 L 182.38097083253194 169.4890375325158 L 185.55409943347462 169.40480614393658 L 188.72722803441727 169.40480614393658 L 191.90035663535994 169.57326892109504 L 195.07348523630262 169.57326892109504 L 198.24661383724526 169.57326892109504 L 201.41974243818794 169.57326892109504 L 204.5928710391306 169.6153846153846 L 207.76599964007326 169.57326892109504 L 210.93912824101594 169.6153846153846 L 214.11225684195858 169.6153846153846 L 217.28538544290126 169.57326892109504 L 220.45851404384393 169.6153846153846 L 223.63164264478655 169.6153846153846 L 226.80477124572928 169.57326892109504" style="stroke:rgb(0%,0%,0%);stroke-opacity:0.7;stroke-width:2.0" /></g></g><g class="toyplot-mark-FillBoundaries" style="fill:rgb(99.2%,85.9%,78%);fill-opacity:0.33;stroke:none" id="t7181990015574dbbb0332dcf0efb0356"><polygon points="103.28374266862797,182.69230769230768 106.76603455170729,182.69230769230768 110.24832643478663,182.69230769230768 113.73061831786598,182.69230769230768 117.2129102009453,182.69230769230768 120.69520208402463,182.69230769230768 124.17749396710397,182.69230769230768 127.65978585018328,182.69230769230768 131.14207773326262,182.69230769230768 134.62436961634197,182.69230769230768 138.1066614994213,182.69230769230768 141.58895338250065,182.69230769230768 145.07124526557996,182.69230769230768 148.5535371486593,182.69230769230768 152.03582903173861,182.69230769230768 155.51812091481798,182.69230769230768 159.0004127978973,182.69230769230768 162.48270468097664,182.69230769230768 165.96499656405598,182.69230769230768 169.4472884471353,182.69230769230768 172.9295803302146,182.69230769230768 176.41187221329398,182.69230769230768 179.8941640963733,182.69230769230768 183.3764559794526,182.69230769230768 186.85874786253197,182.69230769230768 190.3410397456113,182.69230769230768 193.82333162869062,182.69230769230768 197.30562351177,182.69230769230768 200.7879153948493,182.69230769230768 204.27020727792865,182.69230769230768 207.75249916100796,182.69230769230768 211.23479104408733,182.69230769230768 214.71708292716662,182.69230769230768 218.19937481024596,182.69230769230768 221.68166669332527,182.69230769230768 225.16395857640464,182.69230769230768 228.64625045948395,182.69230769230768 232.12854234256326,182.69230769230768 235.6108342256426,182.69230769230768 239.09312610872195,182.69230769230768 239.09312610872195,182.64827764827763 235.6108342256426,182.69230769230768 232.12854234256326,182.69230769230768 228.64625045948395,182.69230769230768 225.16395857640464,182.69230769230768 221.68166669332527,182.64827764827763 218.19937481024596,182.64827764827763 214.71708292716662,182.64827764827763 211.23479104408733,182.69230769230768 207.75249916100796,182.69230769230768 204.27020727792865,182.56021756021758 200.7879153948493,182.56021756021758 197.30562351177,182.56021756021758 193.82333162869062,182.34006734006735 190.3410397456113,182.42812742812742 186.85874786253197,182.2079772079772 183.3764559794526,182.11991711991712 179.8941640963733,182.07588707588707 176.41187221329398,181.10722610722613 172.9295803302146,180.84304584304584 169.4472884471353,180.27065527065525 165.96499656405598,179.5661745661746 162.48270468097664,178.59751359751357 159.0004127978973,175.9116809116809 155.51812091481798,174.06241906241905 152.03582903173861,171.37658637658637 148.5535371486593,166.66537166537165 145.07124526557996,162.9228179228179 141.58895338250065,158.03548303548303 138.1066614994213,148.96529396529397 134.62436961634197,144.2100492100492 131.14207773326262,138.13390313390312 127.65978585018328,130.38461538461536 124.17749396710397,132.23387723387725 120.69520208402463,137.38539238539238 117.2129102009453,146.58767158767157 113.73061831786598,160.2810152810153 110.24832643478663,172.3892773892774 106.76603455170729,179.65423465423467 103.28374266862797,182.2079772079772" style="fill:rgb(99.2%,85.9%,78%);fill-opacity:0.33;opacity:1.0;stroke:none" /></g><g class="toyplot-mark-Plot" style="fill:none;stroke-opacity:0.7" id="t54c0bed5560c414e8d4bb9b585d1e348"><g class="toyplot-Series"><path d="M 103.28374266862797 182.2079772079772 L 106.76603455170729 179.65423465423467 L 110.24832643478663 172.3892773892774 L 113.73061831786598 160.2810152810153 L 117.2129102009453 146.58767158767157 L 120.69520208402463 137.38539238539238 L 124.17749396710397 132.23387723387725 L 127.65978585018328 130.38461538461536 L 131.14207773326262 138.13390313390312 L 134.62436961634197 144.2100492100492 L 138.1066614994213 148.96529396529397 L 141.58895338250065 158.03548303548303 L 145.07124526557996 162.9228179228179 L 148.5535371486593 166.66537166537165 L 152.03582903173861 171.37658637658637 L 155.51812091481798 174.06241906241905 L 159.0004127978973 175.9116809116809 L 162.48270468097664 178.59751359751357 L 165.96499656405598 179.5661745661746 L 169.4472884471353 180.27065527065525 L 172.9295803302146 180.84304584304584 L 176.41187221329398 181.10722610722613 L 179.8941640963733 182.07588707588707 L 183.3764559794526 182.11991711991712 L 186.85874786253197 182.2079772079772 L 190.3410397456113 182.42812742812742 L 193.82333162869062 182.34006734006735 L 197.30562351177 182.56021756021758 L 200.7879153948493 182.56021756021758 L 204.27020727792865 182.56021756021758 L 207.75249916100796 182.69230769230768 L 211.23479104408733 182.69230769230768 L 214.71708292716662 182.64827764827763 L 218.19937481024596 182.64827764827763 L 221.68166669332527 182.64827764827763 L 225.16395857640464 182.69230769230768 L 228.64625045948395 182.69230769230768 L 232.12854234256326 182.69230769230768 L 235.6108342256426 182.69230769230768 L 239.09312610872195 182.64827764827763" style="stroke:rgb(0%,0%,0%);stroke-opacity:0.7;stroke-width:2.0" /></g></g><g class="toyplot-mark-FillBoundaries" style="fill:rgb(95.7%,64.7%,51%);fill-opacity:0.33;stroke:none" id="tb49eb802cb4d42cf9e9c31eee62594ab"><polygon points="104.18398497424548,195.76923076923075 108.17273213940985,195.76923076923075 112.16147930457424,195.76923076923075 116.15022646973861,195.76923076923075 120.13897363490298,195.76923076923075 124.12772080006735,195.76923076923075 128.11646796523172,195.76923076923075 132.10521513039612,195.76923076923075 136.0939622955605,195.76923076923075 140.08270946072489,195.76923076923075 144.07145662588925,195.76923076923075 148.06020379105362,195.76923076923075 152.048950956218,195.76923076923075 156.03769812138236,195.76923076923075 160.02644528654673,195.76923076923075 164.01519245171113,195.76923076923075 168.00393961687553,195.76923076923075 171.99268678203987,195.76923076923075 175.98143394720427,195.76923076923075 179.9701811123686,195.76923076923075 183.958928277533,195.76923076923075 187.94767544269737,195.76923076923075 191.93642260786172,195.76923076923075 195.92516977302614,195.76923076923075 199.9139169381905,195.76923076923075 203.9026641033549,195.76923076923075 207.89141126851928,195.76923076923075 211.88015843368362,195.76923076923075 215.86890559884802,195.76923076923075 219.85765276401239,195.76923076923075 223.84639992917673,195.76923076923075 227.83514709434115,195.76923076923075 231.8238942595055,195.76923076923075 235.81264142466986,195.76923076923075 239.80138858983426,195.76923076923075 243.79013575499863,195.76923076923075 247.77888292016306,195.76923076923075 251.76763008532743,195.76923076923075 255.75637725049177,195.76923076923075 259.74512441565616,195.76923076923075 259.74512441565616,195.72322576280362 255.75637725049177,195.76923076923075 251.76763008532743,195.76923076923075 247.77888292016306,195.76923076923075 243.79013575499863,195.6772207563764 239.80138858983426,195.76923076923075 235.81264142466986,195.76923076923075 231.8238942595055,195.6772207563764 227.83514709434115,195.6772207563764 223.84639992917673,195.6772207563764 219.85765276401239,195.6772207563764 215.86890559884802,195.63121574994926 211.88015843368362,195.63121574994926 207.89141126851928,195.49320073066775 203.9026641033549,195.35518571138624 199.9139169381905,195.49320073066775 195.92516977302614,194.98714565996886 191.93642260786172,194.3430755699885 187.94767544269737,194.38908057641567 183.958928277533,193.74501048643526 179.9701811123686,192.45687030647454 175.98143394720427,192.08883025505716 171.99268678203987,191.12272512008659 168.00393961687553,189.60455990798997 164.01519245171113,186.70624450307832 160.02644528654673,182.15174886678844 156.03769812138236,181.5996887896624 152.048950956218,174.46891279345104 148.06020379105362,170.2364522021514 144.07145662588925,164.34781137947365 140.08270946072489,156.1589202354374 136.0939622955605,147.3719640078479 132.10521513039612,143.46153846153845 128.11646796523172,144.10560855151883 124.12772080006735,148.38407414924563 120.13897363490298,155.83688519044716 116.15022646973861,172.21466747851971 112.16147930457424,183.80792909816654 108.17273213940985,191.67478519721263 104.18398497424548,194.89513564711453" style="fill:rgb(95.7%,64.7%,51%);fill-opacity:0.33;opacity:1.0;stroke:none" /></g><g class="toyplot-mark-Plot" style="fill:none;stroke-opacity:0.7" id="tc6d7480d7163475f984bbb5f234277d4"><g class="toyplot-Series"><path d="M 104.18398497424548 194.89513564711453 L 108.17273213940985 191.67478519721263 L 112.16147930457424 183.80792909816654 L 116.15022646973861 172.21466747851971 L 120.13897363490298 155.83688519044716 L 124.12772080006735 148.38407414924563 L 128.11646796523172 144.10560855151883 L 132.10521513039612 143.46153846153845 L 136.0939622955605 147.3719640078479 L 140.08270946072489 156.1589202354374 L 144.07145662588925 164.34781137947365 L 148.06020379105362 170.2364522021514 L 152.048950956218 174.46891279345104 L 156.03769812138236 181.5996887896624 L 160.02644528654673 182.15174886678844 L 164.01519245171113 186.70624450307832 L 168.00393961687553 189.60455990798997 L 171.99268678203987 191.12272512008659 L 175.98143394720427 192.08883025505716 L 179.9701811123686 192.45687030647454 L 183.958928277533 193.74501048643526 L 187.94767544269737 194.38908057641567 L 191.93642260786172 194.3430755699885 L 195.92516977302614 194.98714565996886 L 199.9139169381905 195.49320073066775 L 203.9026641033549 195.35518571138624 L 207.89141126851928 195.49320073066775 L 211.88015843368362 195.63121574994926 L 215.86890559884802 195.63121574994926 L 219.85765276401239 195.6772207563764 L 223.84639992917673 195.6772207563764 L 227.83514709434115 195.6772207563764 L 231.8238942595055 195.6772207563764 L 235.81264142466986 195.76923076923075 L 239.80138858983426 195.76923076923075 L 243.79013575499863 195.6772207563764 L 247.77888292016306 195.76923076923075 L 251.76763008532743 195.76923076923075 L 255.75637725049177 195.76923076923075 L 259.74512441565616 195.72322576280362" style="stroke:rgb(0%,0%,0%);stroke-opacity:0.7;stroke-width:2.0" /></g></g><g class="toyplot-mark-FillBoundaries" style="fill:rgb(83.9%,37.6%,30.2%);fill-opacity:0.33;stroke:none" id="t8346afbb22004daa90e8d5bf7a2b2622"><polygon points="104.19454339164164,208.84615384615384 108.21272434765191,208.84615384615384 112.23090530366218,208.84615384615384 116.24908625967242,208.84615384615384 120.2672672156827,208.84615384615384 124.28544817169296,208.84615384615384 128.30362912770323,208.84615384615384 132.32181008371347,208.84615384615384 136.33999103972374,208.84615384615384 140.358171995734,208.84615384615384 144.37635295174425,208.84615384615384 148.39453390775452,208.84615384615384 152.4127148637648,208.84615384615384 156.43089581977506,208.84615384615384 160.44907677578533,208.84615384615384 164.4672577317956,208.84615384615384 168.48543868780584,208.84615384615384 172.5036196438161,208.84615384615384 176.52180059982635,208.84615384615384 180.53998155583668,208.84615384615384 184.55816251184692,208.84615384615384 188.57634346785716,208.84615384615384 192.59452442386745,208.84615384615384 196.6127053798777,208.84615384615384 200.6308863358879,208.84615384615384 204.64906729189818,208.84615384615384 208.66724824790845,208.84615384615384 212.68542920391872,208.84615384615384 216.70361015992896,208.84615384615384 220.7217911159392,208.84615384615384 224.7399720719495,208.84615384615384 228.75815302795974,208.84615384615384 232.77633398397,208.84615384615384 236.79451493998027,208.84615384615384 240.81269589599054,208.84615384615384 244.8308768520008,208.84615384615384 248.84905780801108,208.84615384615384 252.86723876402135,208.84615384615384 256.8854197200316,208.84615384615384 260.9036006760419,208.84615384615384 260.9036006760419,208.79551716434582 256.8854197200316,208.79551716434582 252.86723876402135,208.79551716434582 248.84905780801108,208.7448804825378 244.8308768520008,208.79551716434582 240.81269589599054,208.7448804825378 236.79451493998027,208.64360711892175 232.77633398397,208.79551716434582 228.75815302795974,208.7448804825378 224.7399720719495,208.5929704371137 220.7217911159392,208.28915034626556 216.70361015992896,208.39042370988162 212.68542920391872,208.08660361903344 208.66724824790845,208.4410603916896 204.64906729189818,207.73214684637725 200.6308863358879,206.97259661925682 196.6127053798777,207.52960011914513 192.59452442386745,206.77004989202473 188.57634346785716,206.46622980117655 184.55816251184692,204.94712934693572 180.53998155583668,203.4280288926949 176.52180059982635,202.01020180207013 172.5036196438161,199.832824484325 168.48543868780584,197.3009903939236 164.4672577317956,194.56660957629012 160.44907677578533,189.4016680318713 156.43089581977506,184.48990989649266 152.4127148637648,178.61605480676147 148.39453390775452,174.61575694392732 144.37635295174425,166.96961799091517 140.358171995734,162.36167994638467 136.33999103972374,158.1081986745104 132.32181008371347,156.53846153846155 128.30362912770323,161.34894631022414 124.28544817169296,167.98235162707573 120.2672672156827,181.14788889716286 116.24908625967242,191.12331521334423 112.23090530366218,200.7949214386775 108.21272434765191,207.327053391913 104.19454339164164,208.4410603916896" style="fill:rgb(83.9%,37.6%,30.2%);fill-opacity:0.33;opacity:1.0;stroke:none" /></g><g class="toyplot-mark-Plot" style="fill:none;stroke-opacity:0.7" id="tfc900da11b2247a18e1995c51e778050"><g class="toyplot-Series"><path d="M 104.19454339164164 208.4410603916896 L 108.21272434765191 207.327053391913 L 112.23090530366218 200.7949214386775 L 116.24908625967242 191.12331521334423 L 120.2672672156827 181.14788889716286 L 124.28544817169296 167.98235162707573 L 128.30362912770323 161.34894631022414 L 132.32181008371347 156.53846153846155 L 136.33999103972374 158.1081986745104 L 140.358171995734 162.36167994638467 L 144.37635295174425 166.96961799091517 L 148.39453390775452 174.61575694392732 L 152.4127148637648 178.61605480676147 L 156.43089581977506 184.48990989649266 L 160.44907677578533 189.4016680318713 L 164.4672577317956 194.56660957629012 L 168.48543868780584 197.3009903939236 L 172.5036196438161 199.832824484325 L 176.52180059982635 202.01020180207013 L 180.53998155583668 203.4280288926949 L 184.55816251184692 204.94712934693572 L 188.57634346785716 206.46622980117655 L 192.59452442386745 206.77004989202473 L 196.6127053798777 207.52960011914513 L 200.6308863358879 206.97259661925682 L 204.64906729189818 207.73214684637725 L 208.66724824790845 208.4410603916896 L 212.68542920391872 208.08660361903344 L 216.70361015992896 208.39042370988162 L 220.7217911159392 208.28915034626556 L 224.7399720719495 208.5929704371137 L 228.75815302795974 208.7448804825378 L 232.77633398397 208.79551716434582 L 236.79451493998027 208.64360711892175 L 240.81269589599054 208.7448804825378 L 244.8308768520008 208.79551716434582 L 248.84905780801108 208.7448804825378 L 252.86723876402135 208.79551716434582 L 256.8854197200316 208.79551716434582 L 260.9036006760419 208.79551716434582" style="stroke:rgb(0%,0%,0%);stroke-opacity:0.7;stroke-width:2.0" /></g></g><g class="toyplot-mark-FillBoundaries" style="fill:rgb(69.8%,9.4%,16.9%);fill-opacity:0.33;stroke:none" id="taa703bb5165d49bfbb12c0c8de608416"><polygon points="106.24678495859908,221.92307692307693 112.32059904401075,221.92307692307693 118.39441312942242,221.92307692307693 124.46822721483409,221.92307692307693 130.54204130024573,221.92307692307693 136.61585538565743,221.92307692307693 142.68966947106907,221.92307692307693 148.76348355648074,221.92307692307693 154.8372976418924,221.92307692307693 160.91111172730407,221.92307692307693 166.98492581271574,221.92307692307693 173.05873989812744,221.92307692307693 179.13255398353908,221.92307692307693 185.20636806895078,221.92307692307693 191.28018215436242,221.92307692307693 197.3539962397741,221.92307692307693 203.4278103251858,221.92307692307693 209.50162441059743,221.92307692307693 215.5754384960091,221.92307692307693 221.64925258142074,221.92307692307693 227.72306666683244,221.92307692307693 233.7968807522441,221.92307692307693 239.87069483765578,221.92307692307693 245.94450892306742,221.92307692307693 252.0183230084791,221.92307692307693 258.09213709389076,221.92307692307693 264.16595117930245,221.92307692307693 270.2397652647141,221.92307692307693 276.31357935012585,221.92307692307693 282.38739343553743,221.92307692307693 288.46120752094913,221.92307692307693 294.5350216063607,221.92307692307693 300.60883569177247,221.92307692307693 306.6826497771841,221.92307692307693 312.7564638625958,221.92307692307693 318.83027794800745,221.92307692307693 324.9040920334191,221.92307692307693 330.9779061188308,221.92307692307693 337.05172020424243,221.92307692307693 343.1255342896541,221.92307692307693 343.1255342896541,221.88503496503498 337.05172020424243,221.92307692307693 330.9779061188308,221.92307692307693 324.9040920334191,221.92307692307693 318.83027794800745,221.92307692307693 312.7564638625958,221.92307692307693 306.6826497771841,221.92307692307693 300.60883569177247,221.92307692307693 294.5350216063607,221.88503496503498 288.46120752094913,221.92307692307693 282.38739343553743,221.88503496503498 276.31357935012585,221.92307692307693 270.2397652647141,221.88503496503498 264.16595117930245,221.92307692307693 258.09213709389076,221.88503496503498 252.0183230084791,221.84699300699302 245.94450892306742,221.84699300699302 239.87069483765578,221.7709090909091 233.7968807522441,221.5806993006993 227.72306666683244,221.39048951048952 221.64925258142074,221.46657342657343 215.5754384960091,220.70573426573426 209.50162441059743,220.09706293706293 203.4278103251858,219.6786013986014 197.3539962397741,218.91776223776225 191.28018215436242,217.24391608391608 185.20636806895078,215.72223776223777 179.13255398353908,212.56475524475525 173.05873989812744,208.91272727272727 166.98492581271574,204.8802797202797 160.91111172730407,197.1197202797203 154.8372976418924,188.40811188811188 148.76348355648074,179.84867132867134 142.68966947106907,173.2674125874126 136.61585538565743,169.6153846153846 130.54204130024573,171.78377622377621 124.46822721483409,182.81594405594404 118.39441312942242,200.01090909090908 112.32059904401075,215.79832167832166 106.24678495859908,220.55356643356643" style="fill:rgb(69.8%,9.4%,16.9%);fill-opacity:0.33;opacity:1.0;stroke:none" /></g><g class="toyplot-mark-Plot" style="fill:none;stroke-opacity:0.7" id="t3a17240eccd64febbe441e47ed5ee595"><g class="toyplot-Series"><path d="M 106.24678495859908 220.55356643356643 L 112.32059904401075 215.79832167832166 L 118.39441312942242 200.01090909090908 L 124.46822721483409 182.81594405594404 L 130.54204130024573 171.78377622377621 L 136.61585538565743 169.6153846153846 L 142.68966947106907 173.2674125874126 L 148.76348355648074 179.84867132867134 L 154.8372976418924 188.40811188811188 L 160.91111172730407 197.1197202797203 L 166.98492581271574 204.8802797202797 L 173.05873989812744 208.91272727272727 L 179.13255398353908 212.56475524475525 L 185.20636806895078 215.72223776223777 L 191.28018215436242 217.24391608391608 L 197.3539962397741 218.91776223776225 L 203.4278103251858 219.6786013986014 L 209.50162441059743 220.09706293706293 L 215.5754384960091 220.70573426573426 L 221.64925258142074 221.46657342657343 L 227.72306666683244 221.39048951048952 L 233.7968807522441 221.5806993006993 L 239.87069483765578 221.7709090909091 L 245.94450892306742 221.84699300699302 L 252.0183230084791 221.84699300699302 L 258.09213709389076 221.88503496503498 L 264.16595117930245 221.92307692307693 L 270.2397652647141 221.88503496503498 L 276.31357935012585 221.92307692307693 L 282.38739343553743 221.88503496503498 L 288.46120752094913 221.92307692307693 L 294.5350216063607 221.88503496503498 L 300.60883569177247 221.92307692307693 L 306.6826497771841 221.92307692307693 L 312.7564638625958 221.92307692307693 L 318.83027794800745 221.92307692307693 L 324.9040920334191 221.92307692307693 L 330.9779061188308 221.92307692307693 L 337.05172020424243 221.92307692307693 L 343.1255342896541 221.88503496503498" style="stroke:rgb(0%,0%,0%);stroke-opacity:0.7;stroke-width:2.0" /></g></g><g class="toyplot-mark-FillBoundaries" style="fill:rgb(40.4%,0%,12.2%);fill-opacity:0.33;stroke:none" id="t70f23a9e7e8c49ce99c2d3eda596654e"><polygon points="109.16405425228734,235.0 114.94835085921294,235.0 120.73264746613856,235.0 126.51694407306417,235.0 132.30124067998975,235.0 138.08553728691535,235.0 143.86983389384093,235.0 149.65413050076657,235.0 155.43842710769218,235.0 161.22272371461776,235.0 167.00702032154337,235.0 172.79131692846897,235.0 178.57561353539458,235.0 184.35991014232016,235.0 190.14420674924577,235.0 195.92850335617135,235.0 201.71279996309693,235.0 207.49709657002256,235.0 213.28139317694814,235.0 219.06568978387375,235.0 224.84998639079936,235.0 230.634282997725,235.0 236.41857960465057,235.0 242.20287621157618,235.0 247.98717281850176,235.0 253.77146942542737,235.0 259.555766032353,235.0 265.3400626392786,235.0 271.12435924620416,235.0 276.9086558531298,235.0 282.6929524600554,235.0 288.477249066981,235.0 294.26154567390654,235.0 300.0458422808322,235.0 305.83013888775776,235.0 311.61443549468333,235.0 317.39873210160897,235.0 323.1830287085345,235.0 328.96732531546013,235.0 334.7516219223857,235.0 334.7516219223857,234.95726495726495 328.96732531546013,235.0 323.1830287085345,235.0 317.39873210160897,235.0 311.61443549468333,234.95726495726495 305.83013888775776,234.9145299145299 300.0458422808322,235.0 294.26154567390654,234.8717948717949 288.477249066981,235.0 282.6929524600554,234.95726495726495 276.9086558531298,234.95726495726495 271.12435924620416,234.8717948717949 265.3400626392786,234.82905982905984 259.555766032353,234.95726495726495 253.77146942542737,234.8717948717949 247.98717281850176,234.7008547008547 242.20287621157618,234.52991452991452 236.41857960465057,234.1880341880342 230.634282997725,234.10256410256412 224.84998639079936,233.50427350427353 219.06568978387375,233.16239316239316 213.28139317694814,232.6923076923077 207.49709657002256,231.28205128205127 201.71279996309693,229.65811965811966 195.92850335617135,228.63247863247864 190.14420674924577,226.45299145299145 184.35991014232016,224.52991452991452 178.57561353539458,220.04273504273502 172.79131692846897,216.28205128205127 167.00702032154337,210.51282051282055 161.22272371461776,204.78632478632477 155.43842710769218,196.41025641025638 149.65413050076657,189.4871794871795 143.86983389384093,187.64957264957266 138.08553728691535,182.69230769230768 132.30124067998975,188.80341880341882 126.51694407306417,200.17094017094018 120.73264746613856,213.7179487179487 114.94835085921294,226.96581196581195 109.16405425228734,233.54700854700855" style="fill:rgb(40.4%,0%,12.2%);fill-opacity:0.33;opacity:1.0;stroke:none" /></g><g class="toyplot-mark-Plot" style="fill:none;stroke-opacity:0.7" id="t172f221394fe44749f846c88aa2e15cf"><g class="toyplot-Series"><path d="M 109.16405425228734 233.54700854700855 L 114.94835085921294 226.96581196581195 L 120.73264746613856 213.7179487179487 L 126.51694407306417 200.17094017094018 L 132.30124067998975 188.80341880341882 L 138.08553728691535 182.69230769230768 L 143.86983389384093 187.64957264957266 L 149.65413050076657 189.4871794871795 L 155.43842710769218 196.41025641025638 L 161.22272371461776 204.78632478632477 L 167.00702032154337 210.51282051282055 L 172.79131692846897 216.28205128205127 L 178.57561353539458 220.04273504273502 L 184.35991014232016 224.52991452991452 L 190.14420674924577 226.45299145299145 L 195.92850335617135 228.63247863247864 L 201.71279996309693 229.65811965811966 L 207.49709657002256 231.28205128205127 L 213.28139317694814 232.6923076923077 L 219.06568978387375 233.16239316239316 L 224.84998639079936 233.50427350427353 L 230.634282997725 234.10256410256412 L 236.41857960465057 234.1880341880342 L 242.20287621157618 234.52991452991452 L 247.98717281850176 234.7008547008547 L 253.77146942542737 234.8717948717949 L 259.555766032353 234.95726495726495 L 265.3400626392786 234.82905982905984 L 271.12435924620416 234.8717948717949 L 276.9086558531298 234.95726495726495 L 282.6929524600554 234.95726495726495 L 288.477249066981 235.0 L 294.26154567390654 234.8717948717949 L 300.0458422808322 235.0 L 305.83013888775776 234.9145299145299 L 311.61443549468333 234.95726495726495 L 317.39873210160897 235.0 L 323.1830287085345 235.0 L 328.96732531546013 235.0 L 334.7516219223857 234.95726495726495" style="stroke:rgb(0%,0%,0%);stroke-opacity:0.7;stroke-width:2.0" /></g></g></g><g class="toyplot-coordinates-Axis" id="t9d51323e40c34210a691d222e1812822" transform="translate(65.0,235.0)translate(0,10.0)"><line x1="0" y1="0" x2="220.0" y2="0" style="stroke-width:3" /><g><line x1="0.0" y1="7.5" x2="0.0" y2="0" style="stroke-width:3" /><line x1="73.33333333333333" y1="7.5" x2="73.33333333333333" y2="0" style="stroke-width:3" /><line x1="146.66666666666666" y1="7.5" x2="146.66666666666666" y2="0" style="stroke-width:3" /><line x1="220.0" y1="7.5" x2="220.0" y2="0" style="stroke-width:3" /></g><g><g transform="translate(0.0,12.0)"><text x="-4.448" y="13.687999999999999" style="fill:rgb(16.1%,15.3%,14.1%);fill-opacity:1.0;font-family:helvetica;font-size:16.0px;font-weight:normal;stroke:none;vertical-align:baseline;white-space:pre">0</text></g><g transform="translate(73.33333333333333,12.0)"><text x="-4.448" y="13.687999999999999" style="fill:rgb(16.1%,15.3%,14.1%);fill-opacity:1.0;font-family:helvetica;font-size:16.0px;font-weight:normal;stroke:none;vertical-align:baseline;white-space:pre">8</text></g><g transform="translate(146.66666666666666,12.0)"><text x="-8.896" y="13.687999999999999" style="fill:rgb(16.1%,15.3%,14.1%);fill-opacity:1.0;font-family:helvetica;font-size:16.0px;font-weight:normal;stroke:none;vertical-align:baseline;white-space:pre">16</text></g><g transform="translate(220.0,12.0)"><text x="-8.896" y="13.687999999999999" style="fill:rgb(16.1%,15.3%,14.1%);fill-opacity:1.0;font-family:helvetica;font-size:16.0px;font-weight:normal;stroke:none;vertical-align:baseline;white-space:pre">24</text></g></g><g transform="translate(110.0,35.0)"><text x="-109.8096" y="13.687999999999999" style="fill:rgb(16.1%,15.3%,14.1%);fill-opacity:1.0;font-family:helvetica;font-size:16.0px;font-weight:bold;stroke:none;vertical-align:baseline;white-space:pre">Genealogy sum length (x10</text><text x="98.25439999999999" y="10.328" style="fill:rgb(16.1%,15.3%,14.1%);fill-opacity:1.0;font-family:helvetica;font-size:11.2px;font-weight:bold;stroke:none;vertical-align:baseline;white-space:pre">6</text><text x="104.48159999999999" y="13.687999999999999" style="fill:rgb(16.1%,15.3%,14.1%);fill-opacity:1.0;font-family:helvetica;font-size:16.0px;font-weight:bold;stroke:none;vertical-align:baseline;white-space:pre">)</text></g><g class="toyplot-coordinates-Axis-coordinates" style="visibility:hidden" transform=""><line x1="0" x2="0" y1="-6.0" y2="9.0" style="stroke:rgb(43.9%,50.2%,56.5%);stroke-opacity:1.0;stroke-width:1.0" /><text x="0" y="-12.0" style="alignment-baseline:alphabetic;fill:rgb(43.9%,50.2%,56.5%);fill-opacity:1.0;font-size:10px;font-weight:normal;stroke:none;text-anchor:middle" /></g></g><g class="toyplot-coordinates-Axis" id="t925eee15399845e7a7334c48ea10779a" transform="translate(65.0,235.0)rotate(-90.0)translate(0,-10.0)"><line x1="0" y1="0" x2="170.0" y2="0" style="stroke-width:3" /><g><line x1="0.0" y1="-7.5" x2="0.0" y2="0" style="stroke-width:3" /><line x1="13.076923076923078" y1="-7.5" x2="13.076923076923078" y2="0" style="stroke-width:3" /><line x1="26.153846153846157" y1="-7.5" x2="26.153846153846157" y2="0" style="stroke-width:3" /><line x1="39.23076923076923" y1="-7.5" x2="39.23076923076923" y2="0" style="stroke-width:3" /><line x1="52.307692307692314" y1="-7.5" x2="52.307692307692314" y2="0" style="stroke-width:3" /><line x1="65.38461538461539" y1="-7.5" x2="65.38461538461539" y2="0" style="stroke-width:3" /><line x1="78.46153846153847" y1="-7.5" x2="78.46153846153847" y2="0" style="stroke-width:3" /><line x1="91.53846153846153" y1="-7.5" x2="91.53846153846153" y2="0" style="stroke-width:3" /><line x1="104.61538461538463" y1="-7.5" x2="104.61538461538463" y2="0" style="stroke-width:3" /><line x1="117.6923076923077" y1="-7.5" x2="117.6923076923077" y2="0" style="stroke-width:3" /></g><g /><g transform="translate(85.0,-35.0)"><text x="-40.456" y="0.0" style="fill:rgb(16.1%,15.3%,14.1%);fill-opacity:1.0;font-family:helvetica;font-size:16.0px;font-weight:bold;stroke:none;vertical-align:baseline;white-space:pre">Frequency</text></g><g class="toyplot-coordinates-Axis-coordinates" style="visibility:hidden" transform=""><line x1="0" x2="0" y1="6.0" y2="-9.0" style="stroke:rgb(43.9%,50.2%,56.5%);stroke-opacity:1.0;stroke-width:1.0" /><text x="0" y="12.0" style="alignment-baseline:hanging;fill:rgb(43.9%,50.2%,56.5%);fill-opacity:1.0;font-size:10px;font-weight:normal;stroke:none;text-anchor:middle" /></g></g></g></svg>