<svg class="toyplot-canvas-Canvas" xmlns:toyplot="http://www.sandia.gov/toyplot" xmlns:xlink="http://www.w3.org/1999/xlink" xmlns="http://www.w3.org/2000/svg" width="350.0px" height="300.0px" viewBox="0 0 350.0 300.0" preserveAspectRatio="xMidYMid meet" style="background-color:transparent;border-color:#292724;border-style:none;border-width:1.0;fill:rgb(16.1%,15.3%,14.1%);fill-opacity:1.0;font-family:Helvetica;font-size:12px;opacity:1.0;stroke:rgb(16.1%,15.3%,14.1%);stroke-opacity:1.0;stroke-width:1.0" id="t1dcf0fdca77b42fca8f1c4100193ac7d"><g class="toyplot-coordinates-Cartesian" id="taa714fc8e87e4c138289bf751b502cf5"><clipPath id="t89bae7fb6a754c87baec2db9e2bd9d45"><rect x="55.0" y="55.0" width="240.0" height="190.0" /></clipPath><g clip-path="url(#t89bae7fb6a754c87baec2db9e2bd9d45)"><g class="toyplot-mark-AxisLines" style="stroke:rgb(50.2%,50.2%,50.2%);stroke-dasharray:6,6;stroke-opacity:0.7;stroke-width:2" id="tf12cb0495c58439d8f6bac457410592a"><g class="toyplot-Series"><line class="toyplot-Datum" x1="65.0" x2="65.0" y1="65.0" y2="235.0" style="opacity:1.0;stroke:rgb(50.2%,50.2%,50.2%);stroke-dasharray:6,6;stroke-opacity:0.7;stroke-width:2" /><line class="toyplot-Datum" x1="138.33333333333334" x2="138.33333333333334" y1="65.0" y2="235.0" style="opacity:1.0;stroke:rgb(50.2%,50.2%,50.2%);stroke-dasharray:6,6;stroke-opacity:0.7;stroke-width:2" /><line class="toyplot-Datum" x1="211.66666666666666" x2="211.66666666666666" y1="65.0" y2="235.0" style="opacity:1.0;stroke:rgb(50.2%,50.2%,50.2%);stroke-dasharray:6,6;stroke-opacity:0.7;stroke-width:2" /><line class="toyplot-Datum" x1="285.0" x2="285.0" y1="65.0" y2="235.0" style="opacity:1.0;stroke:rgb(50.2%,50.2%,50.2%);stroke-dasharray:6,6;stroke-opacity:0.7;stroke-width:2" /></g></g><g class="toyplot-mark-FillBoundaries" style="fill:rgb(2%,18.8%,38%);fill-opacity:0.33;stroke:none" id="t20bd216e3532406188e8120a9e6ee9f2"><polygon points="65.5742829759139,117.3076923076923 66.11238547236427,117.3076923076923 66.65048796881464,117.3076923076923 67.18859046526502,117.3076923076923 67.72669296171539,117.3076923076923 68.26479545816574,117.3076923076923 68.80289795461611,117.3076923076923 69.34100045106649,117.3076923076923 69.87910294751686,117.3076923076923 70.41720544396722,117.3076923076923 70.9553079404176,117.3076923076923 71.49341043686796,117.3076923076923 72.03151293331834,117.3076923076923 72.5696154297687,117.3076923076923 73.10771792621907,117.3076923076923 73.64582042266943,117.3076923076923 74.18392291911981,117.3076923076923 74.72202541557019,117.3076923076923 75.26012791202055,117.3076923076923 75.79823040847091,117.3076923076923 76.33633290492129,117.3076923076923 76.87443540137166,117.3076923076923 77.41253789782202,117.3076923076923 77.9506403942724,117.3076923076923 78.48874289072276,117.3076923076923 79.02684538717314,117.3076923076923 79.5649478836235,117.3076923076923 80.10305038007388,117.3076923076923 80.64115287652425,117.3076923076923 81.17925537297461,117.3076923076923 81.71735786942497,117.3076923076923 82.25546036587535,117.3076923076923 82.79356286232573,117.3076923076923 83.33166535877609,117.3076923076923 83.86976785522646,117.3076923076923 84.40787035167682,117.3076923076923 84.94597284812721,117.3076923076923 85.48407534457758,117.3076923076923 86.02217784102794,117.3076923076923 86.5602803374783,117.3076923076923 86.5602803374783,117.2174288179465 86.02217784102794,117.3076923076923 85.48407534457758,117.3076923076923 84.94597284812721,117.2625605628194 84.40787035167682,117.3076923076923 83.86976785522646,117.3076923076923 83.33166535877609,117.3076923076923 82.79356286232573,117.2625605628194 82.25546036587535,117.2174288179465 81.71735786942497,117.2625605628194 81.17925537297461,117.17229707307362 80.64115287652425,117.12716532820072 80.10305038007388,117.17229707307362 79.5649478836235,117.12716532820072 79.02684538717314,116.9015066038362 78.48874289072276,116.72097962434458 77.9506403942724,116.6758478794717 77.41253789782202,116.08913519612398 76.87443540137166,115.81834472688658 76.33633290492129,115.86347647175947 75.79823040847091,115.45729076790337 75.26012791202055,114.82544633968274 74.72202541557019,113.1104400345125 74.18392291911981,111.93701466781707 73.64582042266943,110.98924802548615 73.10771792621907,107.875157629256 72.5696154297687,104.89646246764451 72.03151293331834,102.18855777527045 71.49341043686796,97.40459281874294 70.9553079404176,93.25247229043606 70.41720544396722,87.2048184774673 69.87910294751686,79.03597265547222 69.34100045106649,72.76266011813898 68.80289795461611,66.66987456029734 68.26479545816574,65.0 67.72669296171539,66.80526979491603 67.18859046526502,78.31386473750581 66.65048796881464,90.9507533019181 66.11238547236427,107.60436716001857 65.5742829759139,115.27676378841176" style="fill:rgb(2%,18.8%,38%);fill-opacity:0.33;opacity:1.0;stroke:none" /></g><g class="toyplot-mark-Plot" style="fill:none;stroke-opacity:0.7" id="t90c10f13b2914225b60a4af61ee1e04b"><g class="toyplot-Series"><path d="M 65.5742829759139 115.27676378841176 L 66.11238547236427 107.60436716001857 L 66.65048796881464 90.9507533019181 L 67.18859046526502 78.31386473750581 L 67.72669296171539 66.80526979491603 L 68.26479545816574 65.0 L 68.80289795461611 66.66987456029734 L 69.34100045106649 72.76266011813898 L 69.87910294751686 79.03597265547222 L 70.41720544396722 87.2048184774673 L 70.9553079404176 93.25247229043606 L 71.49341043686796 97.40459281874294 L 72.03151293331834 102.18855777527045 L 72.5696154297687 104.89646246764451 L 73.10771792621907 107.875157629256 L 73.64582042266943 110.98924802548615 L 74.18392291911981 111.93701466781707 L 74.72202541557019 113.1104400345125 L 75.26012791202055 114.82544633968274 L 75.79823040847091 115.45729076790337 L 76.33633290492129 115.86347647175947 L 76.87443540137166 115.81834472688658 L 77.41253789782202 116.08913519612398 L 77.9506403942724 116.6758478794717 L 78.48874289072276 116.72097962434458 L 79.02684538717314 116.9015066038362 L 79.5649478836235 117.12716532820072 L 80.10305038007388 117.17229707307362 L 80.64115287652425 117.12716532820072 L 81.17925537297461 117.17229707307362 L 81.71735786942497 117.2625605628194 L 82.25546036587535 117.2174288179465 L 82.79356286232573 117.2625605628194 L 83.33166535877609 117.3076923076923 L 83.86976785522646 117.3076923076923 L 84.40787035167682 117.3076923076923 L 84.94597284812721 117.2625605628194 L 85.48407534457758 117.3076923076923 L 86.02217784102794 117.3076923076923 L 86.5602803374783 117.2174288179465" style="stroke:rgb(0%,0%,0%);stroke-opacity:0.7;stroke-width:2.0" /></g></g><g class="toyplot-mark-FillBoundaries" style="fill:rgb(12.9%,40%,67.5%);fill-opacity:0.33;stroke:none" id="t9c974a421bbe430ea2c3dbdcdc164839"><polygon points="65.87420782422755,130.38461538461536 66.85471279006288,130.38461538461536 67.83521775589821,130.38461538461536 68.81572272173355,130.38461538461536 69.79622768756887,130.38461538461536 70.77673265340421,130.38461538461536 71.75723761923955,130.38461538461536 72.73774258507487,130.38461538461536 73.7182475509102,130.38461538461536 74.69875251674553,130.38461538461536 75.67925748258085,130.38461538461536 76.65976244841619,130.38461538461536 77.64026741425153,130.38461538461536 78.62077238008685,130.38461538461536 79.60127734592217,130.38461538461536 80.58178231175751,130.38461538461536 81.56228727759284,130.38461538461536 82.54279224342817,130.38461538461536 83.52329720926349,130.38461538461536 84.50380217509883,130.38461538461536 85.48430714093416,130.38461538461536 86.4648121067695,130.38461538461536 87.44531707260482,130.38461538461536 88.42582203844016,130.38461538461536 89.40632700427548,130.38461538461536 90.38683197011082,130.38461538461536 91.36733693594616,130.38461538461536 92.34784190178146,130.38461538461536 93.3283468676168,130.38461538461536 94.30885183345214,130.38461538461536 95.28935679928746,130.38461538461536 96.2698617651228,130.38461538461536 97.25036673095812,130.38461538461536 98.23087169679346,130.38461538461536 99.2113766626288,130.38461538461536 100.1918816284641,130.38461538461536 101.17238659429944,130.38461538461536 102.15289156013478,130.38461538461536 103.13339652597011,130.38461538461536 104.11390149180545,130.38461538461536 104.11390149180545,130.3355001805706 103.13339652597011,130.3355001805706 102.15289156013478,130.3355001805706 101.17238659429944,130.3355001805706 100.1918816284641,130.38461538461536 99.2113766626288,130.3355001805706 98.23087169679346,130.38461538461536 97.25036673095812,130.38461538461536 96.2698617651228,130.23726977248106 95.28935679928746,130.18815456843626 94.30885183345214,129.8443481401228 93.3283468676168,129.99169375225716 92.34784190178146,129.99169375225716 91.36733693594616,129.795232936078 90.38683197011082,129.40231130371976 89.40632700427548,129.20585048754063 88.42582203844016,128.91115926327194 87.44531707260482,128.223546406645 86.4648121067695,127.97797038642109 85.48430714093416,127.68327916215239 84.50380217509883,126.3571686529433 83.52329720926349,124.7854821235103 82.54279224342817,123.99963885879379 81.56228727759284,121.34741784037558 80.58178231175751,118.64608161791261 79.60127734592217,116.97616468039003 78.62077238008685,113.43986998916576 77.64026741425153,107.54604550379199 76.65976244841619,105.18851570964249 75.67925748258085,97.52654387865655 74.69875251674553,90.35572408811845 73.7182475509102,84.85482123510292 72.73774258507487,81.95702419646081 71.75723761923955,78.07692307692307 70.77673265340421,82.2517154207295 69.79622768756887,90.99422174070061 68.81572272173355,98.85265438786567 67.83521775589821,113.43986998916576 66.85471279006288,123.90140845070425 65.87420782422755,129.45142650776452" style="fill:rgb(12.9%,40%,67.5%);fill-opacity:0.33;opacity:1.0;stroke:none" /></g><g class="toyplot-mark-Plot" style="fill:none;stroke-opacity:0.7" id="te5394368b9b341eab8b71a0d17a0682e"><g class="toyplot-Series"><path d="M 65.87420782422755 129.45142650776452 L 66.85471279006288 123.90140845070425 L 67.83521775589821 113.43986998916576 L 68.81572272173355 98.85265438786567 L 69.79622768756887 90.99422174070061 L 70.77673265340421 82.2517154207295 L 71.75723761923955 78.07692307692307 L 72.73774258507487 81.95702419646081 L 73.7182475509102 84.85482123510292 L 74.69875251674553 90.35572408811845 L 75.67925748258085 97.52654387865655 L 76.65976244841619 105.18851570964249 L 77.64026741425153 107.54604550379199 L 78.62077238008685 113.43986998916576 L 79.60127734592217 116.97616468039003 L 80.58178231175751 118.64608161791261 L 81.56228727759284 121.34741784037558 L 82.54279224342817 123.99963885879379 L 83.52329720926349 124.7854821235103 L 84.50380217509883 126.3571686529433 L 85.48430714093416 127.68327916215239 L 86.4648121067695 127.97797038642109 L 87.44531707260482 128.223546406645 L 88.42582203844016 128.91115926327194 L 89.40632700427548 129.20585048754063 L 90.38683197011082 129.40231130371976 L 91.36733693594616 129.795232936078 L 92.34784190178146 129.99169375225716 L 93.3283468676168 129.99169375225716 L 94.30885183345214 129.8443481401228 L 95.28935679928746 130.18815456843626 L 96.2698617651228 130.23726977248106 L 97.25036673095812 130.38461538461536 L 98.23087169679346 130.38461538461536 L 99.2113766626288 130.3355001805706 L 100.1918816284641 130.38461538461536 L 101.17238659429944 130.3355001805706 L 102.15289156013478 130.3355001805706 L 103.13339652597011 130.3355001805706 L 104.11390149180545 130.3355001805706" style="stroke:rgb(0%,0%,0%);stroke-opacity:0.7;stroke-width:2.0" /></g></g><g class="toyplot-mark-FillBoundaries" style="fill:rgb(26.3%,57.6%,76.5%);fill-opacity:0.33;stroke:none" id="t339330c9becf4109a6e3903c4169f860"><polygon points="66.41083529430436,143.46153846153845 67.8962223549832,143.46153846153845 69.38160941566201,143.46153846153845 70.86699647634086,143.46153846153845 72.35238353701968,143.46153846153845 73.83777059769851,143.46153846153845 75.32315765837734,143.46153846153845 76.80854471905617,143.46153846153845 78.293931779735,143.46153846153845 79.77931884041384,143.46153846153845 81.26470590109267,143.46153846153845 82.7500929617715,143.46153846153845 84.23548002245033,143.46153846153845 85.72086708312915,143.46153846153845 87.206254143808,143.46153846153845 88.69164120448681,143.46153846153845 90.17702826516565,143.46153846153845 91.66241532584448,143.46153846153845 93.1478023865233,143.46153846153845 94.63318944720214,143.46153846153845 96.11857650788097,143.46153846153845 97.60396356855979,143.46153846153845 99.08935062923862,143.46153846153845 100.57473768991746,143.46153846153845 102.06012475059629,143.46153846153845 103.5455118112751,143.46153846153845 105.03089887195395,143.46153846153845 106.51628593263277,143.46153846153845 108.00167299331162,143.46153846153845 109.48706005399043,143.46153846153845 110.97244711466927,143.46153846153845 112.4578341753481,143.46153846153845 113.94322123602693,143.46153846153845 115.42860829670576,143.46153846153845 116.9139953573846,143.46153846153845 118.39938241806342,143.46153846153845 119.88476947874224,143.46153846153845 121.37015653942107,143.46153846153845 122.85554360009992,143.46153846153845 124.34093066077875,143.46153846153845 124.34093066077875,143.4122380917857 122.85554360009992,143.4122380917857 121.37015653942107,143.4122380917857 119.88476947874224,143.4122380917857 118.39938241806342,143.46153846153845 116.9139953573846,143.36293772203294 115.42860829670576,143.4122380917857 113.94322123602693,143.16573624302183 112.4578341753481,143.31363735228015 110.97244711466927,143.26433698252737 109.48706005399043,143.16573624302183 108.00167299331162,143.31363735228015 106.51628593263277,143.0178351337635 105.03089887195395,142.8206336547524 103.5455118112751,142.91923439425796 102.06012475059629,142.42623069673022 100.57473768991746,142.32762995722467 99.08935062923862,141.63742478068588 97.60396356855979,140.9965199738998 96.11857650788097,140.55281664612485 94.63318944720214,140.25701442760823 93.1478023865233,138.08779815848618 91.66241532584448,137.93989704922788 90.17702826516565,134.29166968752264 88.69164120448681,133.6507648807366 87.206254143808,130.29833973754805 85.72086708312915,124.77669832523745 84.23548002245033,121.47357355180162 82.7500929617715,117.77604582034365 81.26470590109267,112.35300514753861 79.77931884041384,105.2044515333865 78.293931779735,100.71811788588414 76.80854471905617,96.23178423838178 75.32315765837734,91.49894874211557 73.83777059769851,91.15384615384616 72.35238353701968,98.54890161676212 70.86699647634086,110.13448850866382 69.38160941566201,124.53019647647356 67.8962223549832,137.49619372145293 66.41083529430436,142.22902921771913" style="fill:rgb(26.3%,57.6%,76.5%);fill-opacity:0.33;opacity:1.0;stroke:none" /></g><g class="toyplot-mark-Plot" style="fill:none;stroke-opacity:0.7" id="td7ef67fe5994469d821f93d76b01dd62"><g class="toyplot-Series"><path d="M 66.41083529430436 142.22902921771913 L 67.8962223549832 137.49619372145293 L 69.38160941566201 124.53019647647356 L 70.86699647634086 110.13448850866382 L 72.35238353701968 98.54890161676212 L 73.83777059769851 91.15384615384616 L 75.32315765837734 91.49894874211557 L 76.80854471905617 96.23178423838178 L 78.293931779735 100.71811788588414 L 79.77931884041384 105.2044515333865 L 81.26470590109267 112.35300514753861 L 82.7500929617715 117.77604582034365 L 84.23548002245033 121.47357355180162 L 85.72086708312915 124.77669832523745 L 87.206254143808 130.29833973754805 L 88.69164120448681 133.6507648807366 L 90.17702826516565 134.29166968752264 L 91.66241532584448 137.93989704922788 L 93.1478023865233 138.08779815848618 L 94.63318944720214 140.25701442760823 L 96.11857650788097 140.55281664612485 L 97.60396356855979 140.9965199738998 L 99.08935062923862 141.63742478068588 L 100.57473768991746 142.32762995722467 L 102.06012475059629 142.42623069673022 L 103.5455118112751 142.91923439425796 L 105.03089887195395 142.8206336547524 L 106.51628593263277 143.0178351337635 L 108.00167299331162 143.31363735228015 L 109.48706005399043 143.16573624302183 L 110.97244711466927 143.26433698252737 L 112.4578341753481 143.31363735228015 L 113.94322123602693 143.16573624302183 L 115.42860829670576 143.4122380917857 L 116.9139953573846 143.36293772203294 L 118.39938241806342 143.46153846153845 L 119.88476947874224 143.4122380917857 L 121.37015653942107 143.4122380917857 L 122.85554360009992 143.4122380917857 L 124.34093066077875 143.4122380917857" style="stroke:rgb(0%,0%,0%);stroke-opacity:0.7;stroke-width:2.0" /></g></g><g class="toyplot-mark-FillBoundaries" style="fill:rgb(57.3%,77.3%,87.1%);fill-opacity:0.33;stroke:none" id="t227a9abd0abe42b19e6489e027ab37e9"><polygon points="67.11467515606732,156.53846153846155 69.60607579998032,156.53846153846155 72.09747644389331,156.53846153846155 74.58887708780631,156.53846153846155 77.08027773171932,156.53846153846155 79.5716783756323,156.53846153846155 82.0630790195453,156.53846153846155 84.5544796634583,156.53846153846155 87.04588030737129,156.53846153846155 89.53728095128429,156.53846153846155 92.02868159519727,156.53846153846155 94.52008223911028,156.53846153846155 97.01148288302326,156.53846153846155 99.50288352693626,156.53846153846155 101.99428417084926,156.53846153846155 104.48568481476224,156.53846153846155 106.97708545867525,156.53846153846155 109.46848610258826,156.53846153846155 111.95988674650124,156.53846153846155 114.45128739041422,156.53846153846155 116.94268803432722,156.53846153846155 119.43408867824023,156.53846153846155 121.92548932215323,156.53846153846155 124.41688996606621,156.53846153846155 126.90829060997922,156.53846153846155 129.3996912538922,156.53846153846155 131.8910918978052,156.53846153846155 134.3824925417182,156.53846153846155 136.8738931856312,156.53846153846155 139.36529382954419,156.53846153846155 141.8566944734572,156.53846153846155 144.34809511737018,156.53846153846155 146.83949576128316,156.53846153846155 149.33089640519617,156.53846153846155 151.82229704910918,156.53846153846155 154.31369769302216,156.53846153846155 156.80509833693515,156.53846153846155 159.29649898084813,156.53846153846155 161.78789962476114,156.53846153846155 164.27930026867415,156.53846153846155 164.27930026867415,156.50061226761662 161.78789962476114,156.53846153846155 159.29649898084813,156.53846153846155 156.80509833693515,156.53846153846155 154.31369769302216,156.53846153846155 151.82229704910918,156.53846153846155 149.33089640519617,156.53846153846155 146.83949576128316,156.53846153846155 144.34809511737018,156.4627629967717 141.8566944734572,156.53846153846155 139.36529382954419,156.53846153846155 136.8738931856312,156.53846153846155 134.3824925417182,156.50061226761662 131.8910918978052,156.50061226761662 129.3996912538922,156.27351664254704 126.90829060997922,156.4627629967717 124.41688996606621,156.31136591339197 121.92548932215323,156.3870644550818 119.43408867824023,156.15996883001225 116.94268803432722,156.15996883001225 114.45128739041422,155.7057775798731 111.95988674650124,155.213737058889 109.46848610258826,154.60814872537014 106.97708545867525,154.53245018368025 104.48568481476224,153.24557497495272 101.99428417084926,151.58020705777582 99.50288352693626,148.70366247356117 97.01148288302326,146.9625960146944 94.52008223911028,144.01035288878992 92.02868159519727,139.92263163753756 89.53728095128429,135.64566403206058 87.04588030737129,127.84871423800513 84.5544796634583,119.71112100634531 82.0630790195453,111.91417121228986 79.5716783756323,104.23076923076923 77.08027773171932,105.47979516865189 74.58887708780631,113.92018256707114 72.09747644389331,130.57386173884004 69.60607579998032,145.33507736836248 67.11467515606732,154.79739507959476" style="fill:rgb(57.3%,77.3%,87.1%);fill-opacity:0.33;opacity:1.0;stroke:none" /></g><g class="toyplot-mark-Plot" style="fill:none;stroke-opacity:0.7" id="t2579f2ddabe541c285588a2bd9bede4d"><g class="toyplot-Series"><path d="M 67.11467515606732 154.79739507959476 L 69.60607579998032 145.33507736836248 L 72.09747644389331 130.57386173884004 L 74.58887708780631 113.92018256707114 L 77.08027773171932 105.47979516865189 L 79.5716783756323 104.23076923076923 L 82.0630790195453 111.91417121228986 L 84.5544796634583 119.71112100634531 L 87.04588030737129 127.84871423800513 L 89.53728095128429 135.64566403206058 L 92.02868159519727 139.92263163753756 L 94.52008223911028 144.01035288878992 L 97.01148288302326 146.9625960146944 L 99.50288352693626 148.70366247356117 L 101.99428417084926 151.58020705777582 L 104.48568481476224 153.24557497495272 L 106.97708545867525 154.53245018368025 L 109.46848610258826 154.60814872537014 L 111.95988674650124 155.213737058889 L 114.45128739041422 155.7057775798731 L 116.94268803432722 156.15996883001225 L 119.43408867824023 156.15996883001225 L 121.92548932215323 156.3870644550818 L 124.41688996606621 156.31136591339197 L 126.90829060997922 156.4627629967717 L 129.3996912538922 156.27351664254704 L 131.8910918978052 156.50061226761662 L 134.3824925417182 156.50061226761662 L 136.8738931856312 156.53846153846155 L 139.36529382954419 156.53846153846155 L 141.8566944734572 156.53846153846155 L 144.34809511737018 156.4627629967717 L 146.83949576128316 156.53846153846155 L 149.33089640519617 156.53846153846155 L 151.82229704910918 156.53846153846155 L 154.31369769302216 156.53846153846155 L 156.80509833693515 156.53846153846155 L 159.29649898084813 156.53846153846155 L 161.78789962476114 156.53846153846155 L 164.27930026867415 156.50061226761662" style="stroke:rgb(0%,0%,0%);stroke-opacity:0.7;stroke-width:2.0" /></g></g><g class="toyplot-mark-FillBoundaries" style="fill:rgb(82%,89.8%,94.1%);fill-opacity:0.33;stroke:none" id="t68007dec5f8440298773b82b2b495894"><polygon points="67.83065505866134,169.6153846153846 70.33135783329487,169.6153846153846 72.83206060792844,169.6153846153846 75.33276338256199,169.6153846153846 77.83346615719555,169.6153846153846 80.33416893182908,169.6153846153846 82.83487170646264,169.6153846153846 85.3355744810962,169.6153846153846 87.83627725572975,169.6153846153846 90.3369800303633,169.6153846153846 92.83768280499686,169.6153846153846 95.3383855796304,169.6153846153846 97.83908835426396,169.6153846153846 100.3397911288975,169.6153846153846 102.84049390353107,169.6153846153846 105.34119667816462,169.6153846153846 107.84189945279817,169.6153846153846 110.34260222743174,169.6153846153846 112.84330500206528,169.6153846153846 115.34400777669883,169.6153846153846 117.84471055133238,169.6153846153846 120.34541332596594,169.6153846153846 122.8461161005995,169.6153846153846 125.34681887523304,169.6153846153846 127.8475216498666,169.6153846153846 130.34822442450016,169.6153846153846 132.8489271991337,169.6153846153846 135.34962997376726,169.6153846153846 137.8503327484008,169.6153846153846 140.35103552303437,169.6153846153846 142.8517382976679,169.6153846153846 145.35244107230147,169.6153846153846 147.853143846935,169.6153846153846 150.35384662156858,169.6153846153846 152.85454939620212,169.6153846153846 155.3552521708357,169.6153846153846 157.85595494546925,169.6153846153846 160.3566577201028,169.6153846153846 162.85736049473635,169.6153846153846 165.3580632693699,169.6153846153846 165.3580632693699,169.5689714012695 162.85736049473635,169.5689714012695 160.3566577201028,169.5689714012695 157.85595494546925,169.5689714012695 155.3552521708357,169.5689714012695 152.85454939620212,169.47614497303937 150.35384662156858,169.6153846153846 147.853143846935,169.5689714012695 145.35244107230147,169.47614497303937 142.8517382976679,169.2904921165791 140.35103552303437,169.52255818715446 137.8503327484008,169.2904921165791 135.34962997376726,169.33690533069415 132.8489271991337,169.01201283188863 130.34822442450016,169.19766568834893 127.8475216498666,168.87277318954338 125.34681887523304,168.640707118968 122.8461161005995,168.08374854958703 120.34541332596594,167.6196164084363 117.84471055133238,167.0162446249403 115.34400777669883,165.29895570268238 112.84330500206528,165.39178213091256 110.34260222743174,164.0457989215753 107.84189945279817,162.09644392874208 105.34119667816462,160.70404750528976 102.84049390353107,157.0838168043137 100.3397911288975,155.0880485973654 97.83908835426396,150.81803289877826 95.3383855796304,147.29062862603234 92.83768280499686,143.76322435328646 90.3369800303633,137.26537437717562 87.83627725572975,129.51436761995768 85.3355744810962,122.59879871681113 82.83487170646264,117.3076923076923 80.33416893182908,121.29922872158896 77.83346615719555,125.61565763429117 75.33276338256199,134.9911268855368 72.83206060792844,149.2863968329807 70.33135783329487,161.35383250290081 67.83065505866134,167.8052692648966" style="fill:rgb(82%,89.8%,94.1%);fill-opacity:0.33;opacity:1.0;stroke:none" /></g><g class="toyplot-mark-Plot" style="fill:none;stroke-opacity:0.7" id="t34b122cc4df9410b9f35c07535363b42"><g class="toyplot-Series"><path d="M 67.83065505866134 167.8052692648966 L 70.33135783329487 161.35383250290081 L 72.83206060792844 149.2863968329807 L 75.33276338256199 134.9911268855368 L 77.83346615719555 125.61565763429117 L 80.33416893182908 121.29922872158896 L 82.83487170646264 117.3076923076923 L 85.3355744810962 122.59879871681113 L 87.83627725572975 129.51436761995768 L 90.3369800303633 137.26537437717562 L 92.83768280499686 143.76322435328646 L 95.3383855796304 147.29062862603234 L 97.83908835426396 150.81803289877826 L 100.3397911288975 155.0880485973654 L 102.84049390353107 157.0838168043137 L 105.34119667816462 160.70404750528976 L 107.84189945279817 162.09644392874208 L 110.34260222743174 164.0457989215753 L 112.84330500206528 165.39178213091256 L 115.34400777669883 165.29895570268238 L 117.84471055133238 167.0162446249403 L 120.34541332596594 167.6196164084363 L 122.8461161005995 168.08374854958703 L 125.34681887523304 168.640707118968 L 127.8475216498666 168.87277318954338 L 130.34822442450016 169.19766568834893 L 132.8489271991337 169.01201283188863 L 135.34962997376726 169.33690533069415 L 137.8503327484008 169.2904921165791 L 140.35103552303437 169.52255818715446 L 142.8517382976679 169.2904921165791 L 145.35244107230147 169.47614497303937 L 147.853143846935 169.5689714012695 L 150.35384662156858 169.6153846153846 L 152.85454939620212 169.47614497303937 L 155.3552521708357 169.5689714012695 L 157.85595494546925 169.5689714012695 L 160.3566577201028 169.5689714012695 L 162.85736049473635 169.5689714012695 L 165.3580632693699 169.5689714012695" style="stroke:rgb(0%,0%,0%);stroke-opacity:0.7;stroke-width:2.0" /></g></g><g class="toyplot-mark-FillBoundaries" style="fill:rgb(99.2%,85.9%,78%);fill-opacity:0.33;stroke:none" id="t14e0c786c927461fab147bc7b1a8554f"><polygon points="68.21224942001683,182.69230769230768 70.98873534518447,182.69230769230768 73.76522127035209,182.69230769230768 76.5417071955197,182.69230769230768 79.31819312068733,182.69230769230768 82.09467904585496,182.69230769230768 84.87116497102257,182.69230769230768 87.64765089619019,182.69230769230768 90.4241368213578,182.69230769230768 93.20062274652544,182.69230769230768 95.97710867169306,182.69230769230768 98.75359459686068,182.69230769230768 101.5300805220283,182.69230769230768 104.30656644719592,182.69230769230768 107.08305237236354,182.69230769230768 109.85953829753116,182.69230769230768 112.63602422269878,182.69230769230768 115.41251014786641,182.69230769230768 118.18899607303402,182.69230769230768 120.96548199820165,182.69230769230768 123.74196792336926,182.69230769230768 126.5184538485369,182.69230769230768 129.29493977370453,182.69230769230768 132.07142569887213,182.69230769230768 134.84791162403977,182.69230769230768 137.62439754920737,182.69230769230768 140.400883474375,182.69230769230768 143.1773693995426,182.69230769230768 145.95385532471025,182.69230769230768 148.73034124987785,182.69230769230768 151.5068271750455,182.69230769230768 154.2833131002131,182.69230769230768 157.05979902538073,182.69230769230768 159.83628495054833,182.69230769230768 162.61277087571597,182.69230769230768 165.38925680088357,182.69230769230768 168.1657427260512,182.69230769230768 170.9422286512188,182.69230769230768 173.71871457638645,182.69230769230768 176.49520050155408,182.69230769230768 176.49520050155408,182.58706082649744 173.71871457638645,182.69230769230768 170.9422286512188,182.63968425940257 168.1657427260512,182.58706082649744 165.38925680088357,182.63968425940257 162.61277087571597,182.69230769230768 159.83628495054833,182.58706082649744 157.05979902538073,182.53443739359233 154.2833131002131,182.2713202290667 151.5068271750455,182.53443739359233 148.73034124987785,182.21869679616157 145.95385532471025,182.3239436619718 143.1773693995426,182.00820306454108 140.400883474375,182.00820306454108 137.62439754920737,181.85033276582573 134.84791162403977,181.48196873548986 132.07142569887213,180.9557344064386 129.29493977370453,180.69261724191304 126.5184538485369,179.27178455347467 123.74196792336926,178.90342052313886 120.96548199820165,178.3771861940876 118.18899607303402,176.16700201207243 115.41251014786641,174.9566630552546 112.63602422269878,170.69416498993962 109.85953829753116,170.06268379507816 107.08305237236354,166.90527782077078 104.30656644719592,161.011453335397 101.5300805220283,158.11716452561524 98.75359459686068,151.53923541247485 95.97710867169306,147.48723107878038 93.20062274652544,141.43553629469125 90.4241368213578,135.48908837641233 87.64765089619019,132.75266986534592 84.87116497102257,130.38461538461536 82.09467904585496,134.96285404736108 79.31819312068733,139.17272867977093 76.5417071955197,152.32858690605167 73.76522127035209,164.6424702058505 70.98873534518447,175.9565082804519 68.21224942001683,181.53459216839497" style="fill:rgb(99.2%,85.9%,78%);fill-opacity:0.33;opacity:1.0;stroke:none" /></g><g class="toyplot-mark-Plot" style="fill:none;stroke-opacity:0.7" id="td8462d27e9284708b70d1b67c0d8e1fd"><g class="toyplot-Series"><path d="M 68.21224942001683 181.53459216839497 L 70.98873534518447 175.9565082804519 L 73.76522127035209 164.6424702058505 L 76.5417071955197 152.32858690605167 L 79.31819312068733 139.17272867977093 L 82.09467904585496 134.96285404736108 L 84.87116497102257 130.38461538461536 L 87.64765089619019 132.75266986534592 L 90.4241368213578 135.48908837641233 L 93.20062274652544 141.43553629469125 L 95.97710867169306 147.48723107878038 L 98.75359459686068 151.53923541247485 L 101.5300805220283 158.11716452561524 L 104.30656644719592 161.011453335397 L 107.08305237236354 166.90527782077078 L 109.85953829753116 170.06268379507816 L 112.63602422269878 170.69416498993962 L 115.41251014786641 174.9566630552546 L 118.18899607303402 176.16700201207243 L 120.96548199820165 178.3771861940876 L 123.74196792336926 178.90342052313886 L 126.5184538485369 179.27178455347467 L 129.29493977370453 180.69261724191304 L 132.07142569887213 180.9557344064386 L 134.84791162403977 181.48196873548986 L 137.62439754920737 181.85033276582573 L 140.400883474375 182.00820306454108 L 143.1773693995426 182.00820306454108 L 145.95385532471025 182.3239436619718 L 148.73034124987785 182.21869679616157 L 151.5068271750455 182.53443739359233 L 154.2833131002131 182.2713202290667 L 157.05979902538073 182.53443739359233 L 159.83628495054833 182.58706082649744 L 162.61277087571597 182.69230769230768 L 165.38925680088357 182.63968425940257 L 168.1657427260512 182.58706082649744 L 170.9422286512188 182.63968425940257 L 173.71871457638645 182.69230769230768 L 176.49520050155408 182.58706082649744" style="stroke:rgb(0%,0%,0%);stroke-opacity:0.7;stroke-width:2.0" /></g></g><g class="toyplot-mark-FillBoundaries" style="fill:rgb(95.7%,64.7%,51%);fill-opacity:0.33;stroke:none" id="t884b61c9549842f09852bdfb0963da44"><polygon points="69.3947489847144,195.76923076923075 72.77824276016281,195.76923076923075 76.16173653561124,195.76923076923075 79.54523031105967,195.76923076923075 82.92872408650808,195.76923076923075 86.31221786195651,195.76923076923075 89.69571163740493,195.76923076923075 93.07920541285336,195.76923076923075 96.46269918830177,195.76923076923075 99.8461929637502,195.76923076923075 103.22968673919863,195.76923076923075 106.61318051464704,195.76923076923075 109.99667429009546,195.76923076923075 113.38016806554387,195.76923076923075 116.76366184099231,195.76923076923075 120.14715561644071,195.76923076923075 123.53064939188914,195.76923076923075 126.91414316733757,195.76923076923075 130.297636942786,195.76923076923075 133.6811307182344,195.76923076923075 137.06462449368286,195.76923076923075 140.44811826913127,195.76923076923075 143.83161204457969,195.76923076923075 147.2151058200281,195.76923076923075 150.59859959547651,195.76923076923075 153.98209337092493,195.76923076923075 157.36558714637337,195.76923076923075 160.7490809218218,195.76923076923075 164.13257469727023,195.76923076923075 167.51606847271864,195.76923076923075 170.89956224816706,195.76923076923075 174.2830560236155,195.76923076923075 177.66654979906392,195.76923076923075 181.05004357451233,195.76923076923075 184.43353734996074,195.76923076923075 187.8170311254092,195.76923076923075 191.20052490085757,195.76923076923075 194.58401867630602,195.76923076923075 197.96751245175446,195.76923076923075 201.35100622720284,195.76923076923075 201.35100622720284,195.71907957814 197.96751245175446,195.76923076923075 194.58401867630602,195.71907957814 191.20052490085757,195.76923076923075 187.8170311254092,195.71907957814 184.43353734996074,195.6689283870492 181.05004357451233,195.5686260048676 177.66654979906392,195.36802124050448 174.2830560236155,195.71907957814 170.89956224816706,195.5686260048676 167.51606847271864,195.46832362268603 164.13257469727023,195.2677188583229 160.7490809218218,195.2175676672321 157.36558714637337,195.2175676672321 153.98209337092493,194.7160557563242 150.59859959547651,194.8163581385058 147.2151058200281,193.9637878899624 143.83161204457969,194.16439265432552 140.44811826913127,193.4622759790545 137.06462449368286,192.5595545394203 133.6811307182344,192.10819381960323 130.297636942786,190.9045652334243 126.91414316733757,189.45018069179142 123.53064939188914,188.44715686997566 120.14715561644071,185.78914374216387 116.76366184099231,182.78007227671657 113.38016806554387,178.56737222509034 109.99667429009546,174.40482336455491 106.61318051464704,170.39272807729185 103.22968673919863,164.9262482483959 99.8461929637502,159.66037318386313 96.46269918830177,151.78663618260933 93.07920541285336,148.07544804189098 89.69571163740493,144.71531823880815 86.31221786195651,143.46153846153845 82.92872408650808,148.77756471716202 79.54523031105967,159.10871008186444 76.16173653561124,173.15104358728522 72.77824276016281,187.0429235194336 69.3947489847144,194.26469503650713" style="fill:rgb(95.7%,64.7%,51%);fill-opacity:0.33;opacity:1.0;stroke:none" /></g><g class="toyplot-mark-Plot" style="fill:none;stroke-opacity:0.7" id="t32d6410e6acc4df09c28bc6051440d9e"><g class="toyplot-Series"><path d="M 69.3947489847144 194.26469503650713 L 72.77824276016281 187.0429235194336 L 76.16173653561124 173.15104358728522 L 79.54523031105967 159.10871008186444 L 82.92872408650808 148.77756471716202 L 86.31221786195651 143.46153846153845 L 89.69571163740493 144.71531823880815 L 93.07920541285336 148.07544804189098 L 96.46269918830177 151.78663618260933 L 99.8461929637502 159.66037318386313 L 103.22968673919863 164.9262482483959 L 106.61318051464704 170.39272807729185 L 109.99667429009546 174.40482336455491 L 113.38016806554387 178.56737222509034 L 116.76366184099231 182.78007227671657 L 120.14715561644071 185.78914374216387 L 123.53064939188914 188.44715686997566 L 126.91414316733757 189.45018069179142 L 130.297636942786 190.9045652334243 L 133.6811307182344 192.10819381960323 L 137.06462449368286 192.5595545394203 L 140.44811826913127 193.4622759790545 L 143.83161204457969 194.16439265432552 L 147.2151058200281 193.9637878899624 L 150.59859959547651 194.8163581385058 L 153.98209337092493 194.7160557563242 L 157.36558714637337 195.2175676672321 L 160.7490809218218 195.2175676672321 L 164.13257469727023 195.2677188583229 L 167.51606847271864 195.46832362268603 L 170.89956224816706 195.5686260048676 L 174.2830560236155 195.71907957814 L 177.66654979906392 195.36802124050448 L 181.05004357451233 195.5686260048676 L 184.43353734996074 195.6689283870492 L 187.8170311254092 195.71907957814 L 191.20052490085757 195.76923076923075 L 194.58401867630602 195.71907957814 L 197.96751245175446 195.76923076923075 L 201.35100622720284 195.71907957814" style="stroke:rgb(0%,0%,0%);stroke-opacity:0.7;stroke-width:2.0" /></g></g><g class="toyplot-mark-FillBoundaries" style="fill:rgb(83.9%,37.6%,30.2%);fill-opacity:0.33;stroke:none" id="td270d964d2514313865cc4cd451d33aa"><polygon points="69.28124334798684,208.84615384615384 73.66295503948973,208.84615384615384 78.04466673099262,208.84615384615384 82.4263784224955,208.84615384615384 86.80809011399839,208.84615384615384 91.18980180550128,208.84615384615384 95.57151349700416,208.84615384615384 99.95322518850705,208.84615384615384 104.33493688000993,208.84615384615384 108.71664857151282,208.84615384615384 113.09836026301572,208.84615384615384 117.48007195451859,208.84615384615384 121.8617836460215,208.84615384615384 126.2434953375244,208.84615384615384 130.62520702902725,208.84615384615384 135.00691872053017,208.84615384615384 139.38863041203305,208.84615384615384 143.77034210353594,208.84615384615384 148.1520537950388,208.84615384615384 152.5337654865417,208.84615384615384 156.9154771780446,208.84615384615384 161.29718886954748,208.84615384615384 165.67890056105037,208.84615384615384 170.06061225255326,208.84615384615384 174.44232394405614,208.84615384615384 178.82403563555903,208.84615384615384 183.20574732706194,208.84615384615384 187.5874590185648,208.84615384615384 191.9691707100677,208.84615384615384 196.3508824015706,208.84615384615384 200.7325940930735,208.84615384615384 205.11430578457635,208.84615384615384 209.49601747607923,208.84615384615384 213.87772916758215,208.84615384615384 218.25944085908503,208.84615384615384 222.64115255058792,208.84615384615384 227.0228642420908,208.84615384615384 231.40457593359372,208.84615384615384 235.78628762509658,208.84615384615384 240.16799931659946,208.84615384615384 240.16799931659946,208.8032786885246 235.78628762509658,208.84615384615384 231.40457593359372,208.84615384615384 227.0228642420908,208.84615384615384 222.64115255058792,208.84615384615384 218.25944085908503,208.84615384615384 213.87772916758215,208.84615384615384 209.49601747607923,208.76040353089533 205.11430578457635,208.84615384615384 200.7325940930735,208.76040353089533 196.3508824015706,208.58890290037832 191.9691707100677,208.76040353089533 187.5874590185648,208.76040353089533 183.20574732706194,208.76040353089533 178.82403563555903,208.46027742749052 174.44232394405614,208.46027742749052 170.06061225255326,208.46027742749052 165.67890056105037,207.94577553593948 161.29718886954748,207.73139974779318 156.9154771780446,207.17402269861287 152.5337654865417,206.7452711223203 148.1520537950388,207.08827238335437 143.77034210353594,205.07313997477934 139.38863041203305,204.30138713745274 135.00691872053017,202.6292559899117 130.62520702902725,201.72887767969738 126.2434953375244,198.85624211853718 121.8617836460215,194.22572509457754 117.48007195451859,188.39470365699876 113.09836026301572,186.12232030264815 108.71664857151282,179.60529634300127 104.33493688000993,171.80201765447666 99.95322518850705,165.11349306431273 95.57151349700416,160.3543505674653 91.18980180550128,156.53846153846155 86.80809011399839,160.6973518284994 82.4263784224955,171.93064312736445 78.04466673099262,184.8360655737705 73.66295503948973,200.14249684741486 69.28124334798684,207.5598991172762" style="fill:rgb(83.9%,37.6%,30.2%);fill-opacity:0.33;opacity:1.0;stroke:none" /></g><g class="toyplot-mark-Plot" style="fill:none;stroke-opacity:0.7" id="te311de87c4f04bbf906f4e4ac04fd417"><g class="toyplot-Series"><path d="M 69.28124334798684 207.5598991172762 L 73.66295503948973 200.14249684741486 L 78.04466673099262 184.8360655737705 L 82.4263784224955 171.93064312736445 L 86.80809011399839 160.6973518284994 L 91.18980180550128 156.53846153846155 L 95.57151349700416 160.3543505674653 L 99.95322518850705 165.11349306431273 L 104.33493688000993 171.80201765447666 L 108.71664857151282 179.60529634300127 L 113.09836026301572 186.12232030264815 L 117.48007195451859 188.39470365699876 L 121.8617836460215 194.22572509457754 L 126.2434953375244 198.85624211853718 L 130.62520702902725 201.72887767969738 L 135.00691872053017 202.6292559899117 L 139.38863041203305 204.30138713745274 L 143.77034210353594 205.07313997477934 L 148.1520537950388 207.08827238335437 L 152.5337654865417 206.7452711223203 L 156.9154771780446 207.17402269861287 L 161.29718886954748 207.73139974779318 L 165.67890056105037 207.94577553593948 L 170.06061225255326 208.46027742749052 L 174.44232394405614 208.46027742749052 L 178.82403563555903 208.46027742749052 L 183.20574732706194 208.76040353089533 L 187.5874590185648 208.76040353089533 L 191.9691707100677 208.76040353089533 L 196.3508824015706 208.58890290037832 L 200.7325940930735 208.76040353089533 L 205.11430578457635 208.84615384615384 L 209.49601747607923 208.76040353089533 L 213.87772916758215 208.84615384615384 L 218.25944085908503 208.84615384615384 L 222.64115255058792 208.84615384615384 L 227.0228642420908 208.84615384615384 L 231.40457593359372 208.84615384615384 L 235.78628762509658 208.84615384615384 L 240.16799931659946 208.8032786885246" style="stroke:rgb(0%,0%,0%);stroke-opacity:0.7;stroke-width:2.0" /></g></g><g class="toyplot-mark-FillBoundaries" style="fill:rgb(69.8%,9.4%,16.9%);fill-opacity:0.33;stroke:none" id="tcd77d2acc314469e832a9a8e919e33f8"><polygon points="69.73593748559038,221.92307692307693 73.43235793674437,221.92307692307693 77.12877838789836,221.92307692307693 80.82519883905235,221.92307692307693 84.52161929020635,221.92307692307693 88.21803974136034,221.92307692307693 91.91446019251433,221.92307692307693 95.61088064366831,221.92307692307693 99.3073010948223,221.92307692307693 103.0037215459763,221.92307692307693 106.70014199713029,221.92307692307693 110.39656244828427,221.92307692307693 114.09298289943827,221.92307692307693 117.78940335059227,221.92307692307693 121.48582380174625,221.92307692307693 125.18224425290023,221.92307692307693 128.87866470405424,221.92307692307693 132.57508515520823,221.92307692307693 136.2715056063622,221.92307692307693 139.9679260575162,221.92307692307693 143.6643465086702,221.92307692307693 147.3607669598242,221.92307692307693 151.0571874109782,221.92307692307693 154.75360786213218,221.92307692307693 158.45002831328617,221.92307692307693 162.14644876444015,221.92307692307693 165.84286921559416,221.92307692307693 169.53928966674818,221.92307692307693 173.23571011790216,221.92307692307693 176.93213056905614,221.92307692307693 180.62855102021012,221.92307692307693 184.3249714713641,221.92307692307693 188.0213919225181,221.92307692307693 191.71781237367207,221.92307692307693 195.41423282482606,221.92307692307693 199.11065327598007,221.92307692307693 202.80707372713408,221.92307692307693 206.50349417828804,221.92307692307693 210.19991462944205,221.92307692307693 213.89633508059606,221.92307692307693 213.89633508059606,221.86267543080476 210.19991462944205,221.74187244626046 206.50349417828804,221.6210694617161 202.80707372713408,221.68147095398828 199.11065327598007,221.68147095398828 195.41423282482606,221.8022739385326 191.71781237367207,221.37946349262745 188.0213919225181,221.31906200035533 184.3249714713641,221.31906200035533 180.62855102021012,221.19825901581098 176.93213056905614,221.31906200035533 173.23571011790216,220.65464558536152 169.53928966674818,220.47344110854502 165.84286921559416,220.35263812400072 162.14644876444015,219.20500977082963 158.45002831328617,218.72179783265233 154.75360786213218,218.72179783265233 151.0571874109782,217.1513590335761 147.3607669598242,216.2453366494937 143.6643465086702,215.70172321904423 139.9679260575162,212.92325457452478 136.2715056063622,212.31923965180317 132.57508515520823,208.9367560845621 128.87866470405424,207.24551430094155 125.18224425290023,202.65500088825723 121.48582380174625,199.0309113519275 117.78940335059227,193.89678450879373 114.09298289943827,191.90353526381242 110.39656244828427,184.05134126843134 106.70014199713029,176.62195771895546 103.0037215459763,173.05826967489784 99.3073010948223,169.6153846153846 95.61088064366831,169.6153846153846 91.91446019251433,172.69586072126486 88.21803974136034,174.50790548942976 84.52161929020635,179.58163084029135 80.82519883905235,195.64842778468645 77.12877838789836,206.33949191685912 73.43235793674437,217.0305560490318 69.73593748559038,221.07745603126665" style="fill:rgb(69.8%,9.4%,16.9%);fill-opacity:0.33;opacity:1.0;stroke:none" /></g><g class="toyplot-mark-Plot" style="fill:none;stroke-opacity:0.7" id="t86055cabdef144b1bec0cba60bd6ae85"><g class="toyplot-Series"><path d="M 69.73593748559038 221.07745603126665 L 73.43235793674437 217.0305560490318 L 77.12877838789836 206.33949191685912 L 80.82519883905235 195.64842778468645 L 84.52161929020635 179.58163084029135 L 88.21803974136034 174.50790548942976 L 91.91446019251433 172.69586072126486 L 95.61088064366831 169.6153846153846 L 99.3073010948223 169.6153846153846 L 103.0037215459763 173.05826967489784 L 106.70014199713029 176.62195771895546 L 110.39656244828427 184.05134126843134 L 114.09298289943827 191.90353526381242 L 117.78940335059227 193.89678450879373 L 121.48582380174625 199.0309113519275 L 125.18224425290023 202.65500088825723 L 128.87866470405424 207.24551430094155 L 132.57508515520823 208.9367560845621 L 136.2715056063622 212.31923965180317 L 139.9679260575162 212.92325457452478 L 143.6643465086702 215.70172321904423 L 147.3607669598242 216.2453366494937 L 151.0571874109782 217.1513590335761 L 154.75360786213218 218.72179783265233 L 158.45002831328617 218.72179783265233 L 162.14644876444015 219.20500977082963 L 165.84286921559416 220.35263812400072 L 169.53928966674818 220.47344110854502 L 173.23571011790216 220.65464558536152 L 176.93213056905614 221.31906200035533 L 180.62855102021012 221.19825901581098 L 184.3249714713641 221.31906200035533 L 188.0213919225181 221.31906200035533 L 191.71781237367207 221.37946349262745 L 195.41423282482606 221.8022739385326 L 199.11065327598007 221.68147095398828 L 202.80707372713408 221.68147095398828 L 206.50349417828804 221.6210694617161 L 210.19991462944205 221.74187244626046 L 213.89633508059606 221.86267543080476" style="stroke:rgb(0%,0%,0%);stroke-opacity:0.7;stroke-width:2.0" /></g></g><g class="toyplot-mark-FillBoundaries" style="fill:rgb(40.4%,0%,12.2%);fill-opacity:0.33;stroke:none" id="t9f755967f12f4a8583ef415821b844cb"><polygon points="70.51026754841112,235.0 75.48726625668806,235.0 80.464264964965,235.0 85.44126367324193,235.0 90.41826238151886,235.0 95.3952610897958,235.0 100.37225979807272,235.0 105.34925850634966,235.0 110.3262572146266,235.0 115.30325592290353,235.0 120.28025463118044,235.0 125.25725333945739,235.0 130.23425204773434,235.0 135.21125075601125,235.0 140.1882494642882,235.0 145.1652481725651,235.0 150.14224688084204,235.0 155.11924558911898,235.0 160.0962442973959,235.0 165.07324300567285,235.0 170.05024171394976,235.0 175.0272404222267,235.0 180.00423913050366,235.0 184.98123783878057,235.0 189.9582365470575,235.0 194.93523525533442,235.0 199.91223396361138,235.0 204.8892326718883,235.0 209.86623138016523,235.0 214.8432300884422,235.0 219.8202287967191,235.0 224.79722750499602,235.0 229.77422621327295,235.0 234.7512249215499,235.0 239.72822362982683,235.0 244.70522233810374,235.0 249.6822210463807,235.0 254.6592197546576,235.0 259.63621846293455,235.0 264.6132171712115,235.0 264.6132171712115,234.8590089156127 259.63621846293455,235.0 254.6592197546576,234.9530029718709 249.6822210463807,234.9530029718709 244.70522233810374,234.9530029718709 239.72822362982683,235.0 234.7512249215499,234.9060059437418 229.77422621327295,234.9060059437418 224.79722750499602,234.8590089156127 219.8202287967191,234.76501485935447 214.8432300884422,234.8590089156127 209.86623138016523,234.67102080309627 204.8892326718883,234.48303269057988 199.91223396361138,234.43603566245076 194.93523525533442,234.43603566245076 189.9582365470575,234.15405349367614 184.98123783878057,234.0130624092888 180.00423913050366,233.7780772686433 175.0272404222267,232.83813670606122 170.05024171394976,232.6971456216739 165.07324300567285,231.75720505909186 160.0962442973959,230.58227935586427 155.11924558911898,229.12537148386204 150.14224688084204,228.13843389315088 145.1652481725651,225.7415854585666 140.1882494642882,223.90870136153157 135.21125075601125,220.24293316746147 130.23425204773434,216.6241620015205 125.25725333945739,211.36049485106088 120.28025463118044,204.9219019973737 115.30325592290353,199.8932199875596 110.3262572146266,192.79666874006497 105.34925850634966,187.76798673025087 100.37225979807272,182.69230769230768 95.3952610897958,184.47819476121364 90.41826238151886,191.8567281774829 85.44126367324193,202.05508328149838 80.464264964965,216.01320063584214 75.48726625668806,227.3394844149561 70.51026754841112,233.21411293109404" style="fill:rgb(40.4%,0%,12.2%);fill-opacity:0.33;opacity:1.0;stroke:none" /></g><g class="toyplot-mark-Plot" style="fill:none;stroke-opacity:0.7" id="t9c6502ab322941bab14b401bb2b83ab8"><g class="toyplot-Series"><path d="M 70.51026754841112 233.21411293109404 L 75.48726625668806 227.3394844149561 L 80.464264964965 216.01320063584214 L 85.44126367324193 202.05508328149838 L 90.41826238151886 191.8567281774829 L 95.3952610897958 184.47819476121364 L 100.37225979807272 182.69230769230768 L 105.34925850634966 187.76798673025087 L 110.3262572146266 192.79666874006497 L 115.30325592290353 199.8932199875596 L 120.28025463118044 204.9219019973737 L 125.25725333945739 211.36049485106088 L 130.23425204773434 216.6241620015205 L 135.21125075601125 220.24293316746147 L 140.1882494642882 223.90870136153157 L 145.1652481725651 225.7415854585666 L 150.14224688084204 228.13843389315088 L 155.11924558911898 229.12537148386204 L 160.0962442973959 230.58227935586427 L 165.07324300567285 231.75720505909186 L 170.05024171394976 232.6971456216739 L 175.0272404222267 232.83813670606122 L 180.00423913050366 233.7780772686433 L 184.98123783878057 234.0130624092888 L 189.9582365470575 234.15405349367614 L 194.93523525533442 234.43603566245076 L 199.91223396361138 234.43603566245076 L 204.8892326718883 234.48303269057988 L 209.86623138016523 234.67102080309627 L 214.8432300884422 234.8590089156127 L 219.8202287967191 234.76501485935447 L 224.79722750499602 234.8590089156127 L 229.77422621327295 234.9060059437418 L 234.7512249215499 234.9060059437418 L 239.72822362982683 235.0 L 244.70522233810374 234.9530029718709 L 249.6822210463807 234.9530029718709 L 254.6592197546576 234.9530029718709 L 259.63621846293455 235.0 L 264.6132171712115 234.8590089156127" style="stroke:rgb(0%,0%,0%);stroke-opacity:0.7;stroke-width:2.0" /></g></g></g><g class="toyplot-coordinates-Axis" id="t589500bac0a64bc8bea9bacdcd0e5228" transform="translate(65.0,235.0)translate(0,10.0)"><line x1="0" y1="0" x2="220.0" y2="0" style="stroke-width:3" /><g><line x1="0.0" y1="7.5" x2="0.0" y2="0" style="stroke-width:3" /><line x1="73.33333333333333" y1="7.5" x2="73.33333333333333" y2="0" style="stroke-width:3" /><line x1="146.66666666666666" y1="7.5" x2="146.66666666666666" y2="0" style="stroke-width:3" /><line x1="220.0" y1="7.5" x2="220.0" y2="0" style="stroke-width:3" /></g><g><g transform="translate(0.0,12.0)"><text x="-4.448" y="13.687999999999999" style="fill:rgb(16.1%,15.3%,14.1%);fill-opacity:1.0;font-family:helvetica;font-size:16.0px;font-weight:normal;stroke:none;vertical-align:baseline;white-space:pre">0</text></g><g transform="translate(73.33333333333333,12.0)"><text x="-4.448" y="13.687999999999999" style="fill:rgb(16.1%,15.3%,14.1%);fill-opacity:1.0;font-family:helvetica;font-size:16.0px;font-weight:normal;stroke:none;vertical-align:baseline;white-space:pre">8</text></g><g transform="translate(146.66666666666666,12.0)"><text x="-8.896" y="13.687999999999999" style="fill:rgb(16.1%,15.3%,14.1%);fill-opacity:1.0;font-family:helvetica;font-size:16.0px;font-weight:normal;stroke:none;vertical-align:baseline;white-space:pre">16</text></g><g transform="translate(220.0,12.0)"><text x="-8.896" y="13.687999999999999" style="fill:rgb(16.1%,15.3%,14.1%);fill-opacity:1.0;font-family:helvetica;font-size:16.0px;font-weight:normal;stroke:none;vertical-align:baseline;white-space:pre">24</text></g></g><g transform="translate(110.0,35.0)"><text x="-109.8096" y="13.687999999999999" style="fill:rgb(16.1%,15.3%,14.1%);fill-opacity:1.0;font-family:helvetica;font-size:16.0px;font-weight:bold;stroke:none;vertical-align:baseline;white-space:pre">Genealogy sum length (x10</text><text x="98.25439999999999" y="10.328" style="fill:rgb(16.1%,15.3%,14.1%);fill-opacity:1.0;font-family:helvetica;font-size:11.2px;font-weight:bold;stroke:none;vertical-align:baseline;white-space:pre">6</text><text x="104.48159999999999" y="13.687999999999999" style="fill:rgb(16.1%,15.3%,14.1%);fill-opacity:1.0;font-family:helvetica;font-size:16.0px;font-weight:bold;stroke:none;vertical-align:baseline;white-space:pre">)</text></g><g class="toyplot-coordinates-Axis-coordinates" style="visibility:hidden" transform=""><line x1="0" x2="0" y1="-6.0" y2="9.0" style="stroke:rgb(43.9%,50.2%,56.5%);stroke-opacity:1.0;stroke-width:1.0" /><text x="0" y="-12.0" style="alignment-baseline:alphabetic;fill:rgb(43.9%,50.2%,56.5%);fill-opacity:1.0;font-size:10px;font-weight:normal;stroke:none;text-anchor:middle" /></g></g><g class="toyplot-coordinates-Axis" id="t10466567487047379ccc3be6e17faf49" transform="translate(65.0,235.0)rotate(-90.0)translate(0,-10.0)"><line x1="0" y1="0" x2="170.0" y2="0" style="stroke-width:3" /><g><line x1="0.0" y1="-7.5" x2="0.0" y2="0" style="stroke-width:3" /><line x1="13.076923076923078" y1="-7.5" x2="13.076923076923078" y2="0" style="stroke-width:3" /><line x1="26.153846153846157" y1="-7.5" x2="26.153846153846157" y2="0" style="stroke-width:3" /><line x1="39.23076923076923" y1="-7.5" x2="39.23076923076923" y2="0" style="stroke-width:3" /><line x1="52.307692307692314" y1="-7.5" x2="52.307692307692314" y2="0" style="stroke-width:3" /><line x1="65.38461538461539" y1="-7.5" x2="65.38461538461539" y2="0" style="stroke-width:3" /><line x1="78.46153846153847" y1="-7.5" x2="78.46153846153847" y2="0" style="stroke-width:3" /><line x1="91.53846153846153" y1="-7.5" x2="91.53846153846153" y2="0" style="stroke-width:3" /><line x1="104.61538461538463" y1="-7.5" x2="104.61538461538463" y2="0" style="stroke-width:3" /><line x1="117.6923076923077" y1="-7.5" x2="117.6923076923077" y2="0" style="stroke-width:3" /></g><g /><g transform="translate(85.0,-35.0)"><text x="-40.456" y="0.0" style="fill:rgb(16.1%,15.3%,14.1%);fill-opacity:1.0;font-family:helvetica;font-size:16.0px;font-weight:bold;stroke:none;vertical-align:baseline;white-space:pre">Frequency</text></g><g class="toyplot-coordinates-Axis-coordinates" style="visibility:hidden" transform=""><line x1="0" x2="0" y1="6.0" y2="-9.0" style="stroke:rgb(43.9%,50.2%,56.5%);stroke-opacity:1.0;stroke-width:1.0" /><text x="0" y="12.0" style="alignment-baseline:hanging;fill:rgb(43.9%,50.2%,56.5%);fill-opacity:1.0;font-size:10px;font-weight:normal;stroke:none;text-anchor:middle" /></g></g></g></svg>