<svg class="toyplot-canvas-Canvas" xmlns:toyplot="http://www.sandia.gov/toyplot" xmlns:xlink="http://www.w3.org/1999/xlink" xmlns="http://www.w3.org/2000/svg" width="350.0px" height="300.0px" viewBox="0 0 350.0 300.0" preserveAspectRatio="xMidYMid meet" style="background-color:transparent;border-color:#292724;border-style:none;border-width:1.0;fill:rgb(16.1%,15.3%,14.1%);fill-opacity:1.0;font-family:Helvetica;font-size:12px;opacity:1.0;stroke:rgb(16.1%,15.3%,14.1%);stroke-opacity:1.0;stroke-width:1.0" id="tc3a91186a7b14c17bbc614e205875ea7"><g class="toyplot-coordinates-Cartesian" id="t30065683acfb4ecbaa627a894e826ba4"><clipPath id="tb8d397f791fe4c3b85808491c4d8b3b7"><rect x="55.0" y="55.0" width="240.0" height="190.0" /></clipPath><g clip-path="url(#tb8d397f791fe4c3b85808491c4d8b3b7)"><g class="toyplot-mark-AxisLines" style="stroke:rgb(50.2%,50.2%,50.2%);stroke-dasharray:6,6;stroke-opacity:0.7;stroke-width:2" id="t3a55e1672b534f2b828cd40ec8dd9c3b"><g class="toyplot-Series"><line class="toyplot-Datum" x1="65.0" x2="65.0" y1="65.0" y2="235.0" style="opacity:1.0;stroke:rgb(50.2%,50.2%,50.2%);stroke-dasharray:6,6;stroke-opacity:0.7;stroke-width:2" /><line class="toyplot-Datum" x1="138.33333333333334" x2="138.33333333333334" y1="65.0" y2="235.0" style="opacity:1.0;stroke:rgb(50.2%,50.2%,50.2%);stroke-dasharray:6,6;stroke-opacity:0.7;stroke-width:2" /><line class="toyplot-Datum" x1="211.66666666666666" x2="211.66666666666666" y1="65.0" y2="235.0" style="opacity:1.0;stroke:rgb(50.2%,50.2%,50.2%);stroke-dasharray:6,6;stroke-opacity:0.7;stroke-width:2" /><line class="toyplot-Datum" x1="285.0" x2="285.0" y1="65.0" y2="235.0" style="opacity:1.0;stroke:rgb(50.2%,50.2%,50.2%);stroke-dasharray:6,6;stroke-opacity:0.7;stroke-width:2" /></g></g><g class="toyplot-mark-FillBoundaries" style="fill:rgb(55.3%,62.7%,79.6%);fill-opacity:0.33;stroke:none" id="t2dfdeb2fe87d4adb8b47039e0937aac2"><polygon points="65.3552108490033,235.0 66.12819851465598,235.0 66.90118618030864,235.0 67.6741738459613,235.0 68.44716151161397,235.0 69.22014917726663,235.0 69.9931368429193,235.0 70.76612450857196,235.0 71.53911217422464,235.0 72.31209983987729,235.0 73.08508750552997,235.0 73.85807517118263,235.0 74.6310628368353,235.0 75.40405050248796,235.0 76.17703816814063,235.0 76.95002583379329,235.0 77.72301349944595,235.0 78.49600116509862,235.0 79.26898883075128,235.0 80.04197649640395,235.0 80.81496416205661,235.0 81.58795182770928,235.0 82.36093949336195,235.0 83.13392715901462,235.0 83.90691482466728,235.0 84.67990249031995,235.0 85.45289015597261,235.0 86.22587782162528,235.0 86.99886548727795,235.0 87.77185315293062,235.0 87.77185315293062,234.89829494466048 86.99886548727795,235.0 86.22587782162528,235.0 85.45289015597261,234.89829494466048 84.67990249031995,235.0 83.90691482466728,234.84744241699073 83.13392715901462,234.84744241699073 82.36093949336195,234.84744241699073 81.58795182770928,234.59317977864194 80.81496416205661,234.59317977864194 80.04197649640395,234.1355070296141 79.26898883075128,234.18635955728388 78.49600116509862,233.72868680825604 77.72301349944595,232.45737361651211 76.95002583379329,232.25396350583307 76.17703816814063,229.40622195632665 75.40405050248796,226.7110379898295 74.6310628368353,222.89709841459768 73.85807517118263,217.96440323063118 73.08508750552997,205.70894406221956 72.31209983987729,195.94525874962608 71.53911217422464,175.65510020939277 70.76612450857196,149.41519593179777 69.9931368429193,122.36165121148669 69.22014917726663,89.20580317080467 68.44716151161397,65.0 67.6741738459613,74.56027520191445 66.90118618030864,122.15824110080766 66.12819851465598,190.0463655399342 65.3552108490033,230.62668262040083" style="fill:rgb(55.3%,62.7%,79.6%);fill-opacity:0.33;opacity:1.0;stroke:none" /></g><g class="toyplot-mark-Plot" style="fill:none" id="tfc343735f2ba426996c80155cd691cfd"><g class="toyplot-Series"><path d="M 65.3552108490033 230.62668262040083 L 66.12819851465598 190.0463655399342 L 66.90118618030864 122.15824110080766 L 67.6741738459613 74.56027520191445 L 68.44716151161397 65.0 L 69.22014917726663 89.20580317080467 L 69.9931368429193 122.36165121148669 L 70.76612450857196 149.41519593179777 L 71.53911217422464 175.65510020939277 L 72.31209983987729 195.94525874962608 L 73.08508750552997 205.70894406221956 L 73.85807517118263 217.96440323063118 L 74.6310628368353 222.89709841459768 L 75.40405050248796 226.7110379898295 L 76.17703816814063 229.40622195632665 L 76.95002583379329 232.25396350583307 L 77.72301349944595 232.45737361651211 L 78.49600116509862 233.72868680825604 L 79.26898883075128 234.18635955728388 L 80.04197649640395 234.1355070296141 L 80.81496416205661 234.59317977864194 L 81.58795182770928 234.59317977864194 L 82.36093949336195 234.84744241699073 L 83.13392715901462 234.84744241699073 L 83.90691482466728 234.84744241699073 L 84.67990249031995 235.0 L 85.45289015597261 234.89829494466048 L 86.22587782162528 235.0 L 86.99886548727795 235.0 L 87.77185315293062 234.89829494466048" style="stroke:rgb(45.9%,43.9%,70.2%);stroke-opacity:1.0;stroke-width:2.0" /></g></g><g class="toyplot-mark-FillBoundaries" style="fill:rgb(40%,76.1%,64.7%);fill-opacity:0.33;stroke:none" id="t803b7c007bf94c0d810a57940c27a92b"><polygon points="68.5521084900331,235.0 76.28198514655976,235.0 84.01186180308642,235.0 91.74173845961306,235.0 99.47161511613972,235.0 107.20149177266637,235.0 114.93136842919301,235.0 122.66124508571967,235.0 130.39112174224633,235.0 138.12099839877297,235.0 145.85087505529964,235.0 153.58075171182628,235.0 161.31062836835292,235.0 169.0405050248796,235.0 176.77038168140626,235.0 184.5002583379329,235.0 192.23013499445955,235.0 199.9600116509862,235.0 207.68988830751283,235.0 215.41976496403953,235.0 223.14964162056617,235.0 230.87951827709279,235.0 238.60939493361948,235.0 246.33927159014613,235.0 254.0691482466728,235.0 261.79902490319944,235.0 269.52890155972614,235.0 277.2587782162527,235.0 284.9886548727794,235.0 292.718531529306,235.0 292.718531529306,234.89829494466048 284.9886548727794,235.0 277.2587782162527,235.0 269.52890155972614,234.89829494466048 261.79902490319944,235.0 254.0691482466728,234.84744241699073 246.33927159014613,234.84744241699073 238.60939493361948,234.84744241699073 230.87951827709279,234.59317977864194 223.14964162056617,234.59317977864194 215.41976496403953,234.1355070296141 207.68988830751283,234.18635955728388 199.9600116509862,233.72868680825604 192.23013499445955,232.45737361651211 184.5002583379329,232.25396350583307 176.77038168140626,229.40622195632665 169.0405050248796,226.7110379898295 161.31062836835292,222.89709841459768 153.58075171182628,217.96440323063118 145.85087505529964,205.70894406221956 138.12099839877297,195.94525874962608 130.39112174224633,175.65510020939277 122.66124508571967,149.41519593179777 114.93136842919301,122.36165121148669 107.20149177266637,89.20580317080467 99.47161511613972,65.0 91.74173845961306,74.56027520191445 84.01186180308642,122.15824110080766 76.28198514655976,190.0463655399342 68.5521084900331,230.62668262040083" style="fill:rgb(40%,76.1%,64.7%);fill-opacity:0.33;opacity:1.0;stroke:none" /></g><g class="toyplot-mark-Plot" style="fill:none" id="t9d187223140544fbbccb4296423459fe"><g class="toyplot-Series"><path d="M 68.5521084900331 230.62668262040083 L 76.28198514655976 190.0463655399342 L 84.01186180308642 122.15824110080766 L 91.74173845961306 74.56027520191445 L 99.47161511613972 65.0 L 107.20149177266637 89.20580317080467 L 114.93136842919301 122.36165121148669 L 122.66124508571967 149.41519593179777 L 130.39112174224633 175.65510020939277 L 138.12099839877297 195.94525874962608 L 145.85087505529964 205.70894406221956 L 153.58075171182628 217.96440323063118 L 161.31062836835292 222.89709841459768 L 169.0405050248796 226.7110379898295 L 176.77038168140626 229.40622195632665 L 184.5002583379329 232.25396350583307 L 192.23013499445955 232.45737361651211 L 199.9600116509862 233.72868680825604 L 207.68988830751283 234.18635955728388 L 215.41976496403953 234.1355070296141 L 223.14964162056617 234.59317977864194 L 230.87951827709279 234.59317977864194 L 238.60939493361948 234.84744241699073 L 246.33927159014613 234.84744241699073 L 254.0691482466728 234.84744241699073 L 261.79902490319944 235.0 L 269.52890155972614 234.89829494466048 L 277.2587782162527 235.0 L 284.9886548727794 235.0 L 292.718531529306 234.89829494466048" style="stroke:rgb(10.6%,62%,46.7%);stroke-opacity:1.0;stroke-width:2.0" /></g></g></g><g class="toyplot-coordinates-Axis" id="t3b84215e61184be3ac7b40049ff6e3f3" transform="translate(65.0,235.0)translate(0,10.0)"><line x1="0" y1="0" x2="220.0" y2="0" style="stroke-width:3" /><g><line x1="0.0" y1="7.5" x2="0.0" y2="0" style="stroke-width:3" /><line x1="73.33333333333333" y1="7.5" x2="73.33333333333333" y2="0" style="stroke-width:3" /><line x1="146.66666666666666" y1="7.5" x2="146.66666666666666" y2="0" style="stroke-width:3" /><line x1="220.0" y1="7.5" x2="220.0" y2="0" style="stroke-width:3" /></g><g><g transform="translate(0.0,12.0)"><text x="-4.448" y="13.687999999999999" style="fill:rgb(16.1%,15.3%,14.1%);fill-opacity:1.0;font-family:helvetica;font-size:16.0px;font-weight:normal;stroke:none;vertical-align:baseline;white-space:pre">0</text></g><g transform="translate(73.33333333333333,12.0)"><text x="-4.448" y="13.687999999999999" style="fill:rgb(16.1%,15.3%,14.1%);fill-opacity:1.0;font-family:helvetica;font-size:16.0px;font-weight:normal;stroke:none;vertical-align:baseline;white-space:pre">8</text></g><g transform="translate(146.66666666666666,12.0)"><text x="-8.896" y="13.687999999999999" style="fill:rgb(16.1%,15.3%,14.1%);fill-opacity:1.0;font-family:helvetica;font-size:16.0px;font-weight:normal;stroke:none;vertical-align:baseline;white-space:pre">16</text></g><g transform="translate(220.0,12.0)"><text x="-8.896" y="13.687999999999999" style="fill:rgb(16.1%,15.3%,14.1%);fill-opacity:1.0;font-family:helvetica;font-size:16.0px;font-weight:normal;stroke:none;vertical-align:baseline;white-space:pre">24</text></g></g><g transform="translate(110.0,35.0)"><text x="-109.8096" y="13.687999999999999" style="fill:rgb(16.1%,15.3%,14.1%);fill-opacity:1.0;font-family:helvetica;font-size:16.0px;font-weight:bold;stroke:none;vertical-align:baseline;white-space:pre">Genealogy sum length (x10</text><text x="98.25439999999999" y="10.328" style="fill:rgb(16.1%,15.3%,14.1%);fill-opacity:1.0;font-family:helvetica;font-size:11.2px;font-weight:bold;stroke:none;vertical-align:baseline;white-space:pre">6</text><text x="104.48159999999999" y="13.687999999999999" style="fill:rgb(16.1%,15.3%,14.1%);fill-opacity:1.0;font-family:helvetica;font-size:16.0px;font-weight:bold;stroke:none;vertical-align:baseline;white-space:pre">)</text></g><g class="toyplot-coordinates-Axis-coordinates" style="visibility:hidden" transform=""><line x1="0" x2="0" y1="-6.0" y2="9.0" style="stroke:rgb(43.9%,50.2%,56.5%);stroke-opacity:1.0;stroke-width:1.0" /><text x="0" y="-12.0" style="alignment-baseline:alphabetic;fill:rgb(43.9%,50.2%,56.5%);fill-opacity:1.0;font-size:10px;font-weight:normal;stroke:none;text-anchor:middle" /></g></g><g class="toyplot-coordinates-Axis" id="t57a44040f39a4a88a29d4f277cf1e5a3" transform="translate(65.0,235.0)rotate(-90.0)translate(0,-10.0)"><line x1="0" y1="0" x2="170.0" y2="0" style="stroke-width:3" /><g><line x1="0.0" y1="-7.5" x2="0.0" y2="0" style="stroke-width:3" /><line x1="85.0" y1="-7.5" x2="85.0" y2="0" style="stroke-width:3" /><line x1="170.0" y1="-7.5" x2="170.0" y2="0" style="stroke-width:3" /></g><g><g transform="translate(0.0,-12.0)"><text x="-11.12" y="0.0" style="fill:rgb(16.1%,15.3%,14.1%);fill-opacity:1.0;font-family:helvetica;font-size:16.0px;font-weight:normal;stroke:none;vertical-align:baseline;white-space:pre">0.0</text></g><g transform="translate(85.0,-12.0)"><text x="-11.12" y="0.0" style="fill:rgb(16.1%,15.3%,14.1%);fill-opacity:1.0;font-family:helvetica;font-size:16.0px;font-weight:normal;stroke:none;vertical-align:baseline;white-space:pre">0.5</text></g><g transform="translate(170.0,-12.0)"><text x="-11.12" y="0.0" style="fill:rgb(16.1%,15.3%,14.1%);fill-opacity:1.0;font-family:helvetica;font-size:16.0px;font-weight:normal;stroke:none;vertical-align:baseline;white-space:pre">1.0</text></g></g><g class="toyplot-coordinates-Axis-coordinates" style="visibility:hidden" transform=""><line x1="0" x2="0" y1="6.0" y2="-9.0" style="stroke:rgb(43.9%,50.2%,56.5%);stroke-opacity:1.0;stroke-width:1.0" /><text x="0" y="12.0" style="alignment-baseline:hanging;fill:rgb(43.9%,50.2%,56.5%);fill-opacity:1.0;font-size:10px;font-weight:normal;stroke:none;text-anchor:middle" /></g></g></g></svg>