<svg class="toyplot-canvas-Canvas" xmlns:toyplot="http://www.sandia.gov/toyplot" xmlns:xlink="http://www.w3.org/1999/xlink" xmlns="http://www.w3.org/2000/svg" width="350.0px" height="300.0px" viewBox="0 0 350.0 300.0" preserveAspectRatio="xMidYMid meet" style="background-color:transparent;border-color:#292724;border-style:none;border-width:1.0;fill:rgb(16.1%,15.3%,14.1%);fill-opacity:1.0;font-family:Helvetica;font-size:12px;opacity:1.0;stroke:rgb(16.1%,15.3%,14.1%);stroke-opacity:1.0;stroke-width:1.0" id="t046fcd46e430498587d47767746d2312"><g class="toyplot-coordinates-Cartesian" id="t57078e7c1bbc47d4b95a2cc588c58600"><clipPath id="t5bf442d930474d889137361a3463ed1a"><rect x="55.0" y="55.0" width="240.0" height="190.0" /></clipPath><g clip-path="url(#t5bf442d930474d889137361a3463ed1a)"><g class="toyplot-mark-AxisLines" style="stroke:rgb(50.2%,50.2%,50.2%);stroke-dasharray:6,6;stroke-opacity:0.7;stroke-width:2" id="tcef972c02ad342bb8c7437e21e8e7da3"><g class="toyplot-Series"><line class="toyplot-Datum" x1="65.0" x2="65.0" y1="65.0" y2="235.0" style="opacity:1.0;stroke:rgb(50.2%,50.2%,50.2%);stroke-dasharray:6,6;stroke-opacity:0.7;stroke-width:2" /><line class="toyplot-Datum" x1="138.33333333333334" x2="138.33333333333334" y1="65.0" y2="235.0" style="opacity:1.0;stroke:rgb(50.2%,50.2%,50.2%);stroke-dasharray:6,6;stroke-opacity:0.7;stroke-width:2" /><line class="toyplot-Datum" x1="211.66666666666666" x2="211.66666666666666" y1="65.0" y2="235.0" style="opacity:1.0;stroke:rgb(50.2%,50.2%,50.2%);stroke-dasharray:6,6;stroke-opacity:0.7;stroke-width:2" /><line class="toyplot-Datum" x1="285.0" x2="285.0" y1="65.0" y2="235.0" style="opacity:1.0;stroke:rgb(50.2%,50.2%,50.2%);stroke-dasharray:6,6;stroke-opacity:0.7;stroke-width:2" /></g></g><g class="toyplot-mark-FillBoundaries" style="fill:rgb(90.6%,54.1%,76.5%);fill-opacity:0.33;stroke:none" id="tc295b70e71174fb48bb76b12e7f40b67"><polygon points="97.9584106829005,235.0 98.85207695518542,235.0 99.74574322747034,235.0 100.63940949975525,235.0 101.53307577204015,235.0 102.42674204432507,235.0 103.32040831660998,235.0 104.21407458889487,235.0 105.10774086117979,235.0 106.00140713346471,235.0 106.89507340574963,235.0 107.78873967803452,235.0 108.68240595031943,235.0 109.57607222260435,235.0 110.46973849488924,235.0 111.36340476717416,235.0 112.25707103945908,235.0 113.150737311744,235.0 114.04440358402888,235.0 114.9380698563138,235.0 115.83173612859872,235.0 116.72540240088362,235.0 117.61906867316853,235.0 118.51273494545345,235.0 119.40640121773836,235.0 120.30006749002327,235.0 121.19373376230817,235.0 122.08740003459309,235.0 122.981066306878,235.0 123.8747325791629,235.0 123.8747325791629,234.97582136253735 122.981066306878,235.0 122.08740003459309,234.97582136253735 121.19373376230817,234.97582136253735 120.30006749002327,234.90328545014933 119.40640121773836,234.927464087612 118.51273494545345,234.90328545014933 117.61906867316853,234.80657090029868 116.72540240088362,234.61314180059736 115.83173612859872,234.46806997582138 114.9380698563138,233.93613995164273 114.04440358402888,233.28331674015078 113.150737311744,231.6633480301522 112.25707103945908,229.80159294552698 111.36340476717416,226.61001280045514 110.46973849488924,221.72592803299673 109.57607222260435,214.39980088180914 108.68240595031943,204.55909543450434 107.78873967803452,190.26952069406912 106.89507340574963,165.92163276916511 106.00140713346471,143.822358128289 105.10774086117979,116.91153463234248 104.21407458889487,88.1631346892334 103.32040831660998,73.19655809984354 102.42674204432507,65.0 101.53307577204015,90.72607026027592 100.63940949975525,130.0888920494951 99.74574322747034,182.43564215616556 98.85207695518542,217.25288010240365 97.9584106829005,232.7513867159721" style="fill:rgb(90.6%,54.1%,76.5%);fill-opacity:0.33;opacity:1.0;stroke:none" /></g><g class="toyplot-mark-Plot" style="fill:none" id="td3a0f909fd3941e782dc4b711341c237"><g class="toyplot-Series"><path d="M 97.9584106829005 232.7513867159721 L 98.85207695518542 217.25288010240365 L 99.74574322747034 182.43564215616556 L 100.63940949975525 130.0888920494951 L 101.53307577204015 90.72607026027592 L 102.42674204432507 65.0 L 103.32040831660998 73.19655809984354 L 104.21407458889487 88.1631346892334 L 105.10774086117979 116.91153463234248 L 106.00140713346471 143.822358128289 L 106.89507340574963 165.92163276916511 L 107.78873967803452 190.26952069406912 L 108.68240595031943 204.55909543450434 L 109.57607222260435 214.39980088180914 L 110.46973849488924 221.72592803299673 L 111.36340476717416 226.61001280045514 L 112.25707103945908 229.80159294552698 L 113.150737311744 231.6633480301522 L 114.04440358402888 233.28331674015078 L 114.9380698563138 233.93613995164273 L 115.83173612859872 234.46806997582138 L 116.72540240088362 234.61314180059736 L 117.61906867316853 234.80657090029868 L 118.51273494545345 234.90328545014933 L 119.40640121773836 234.927464087612 L 120.30006749002327 234.90328545014933 L 121.19373376230817 234.97582136253735 L 122.08740003459309 234.97582136253735 L 122.981066306878 235.0 L 123.8747325791629 234.97582136253735" style="stroke:rgb(90.6%,16.1%,54.1%);stroke-opacity:1.0;stroke-width:4.0" /></g></g><g class="toyplot-mark-FillBoundaries" style="fill:rgb(55.3%,62.7%,79.6%);fill-opacity:0.33;stroke:none" id="tee3f12ba94f4470ea2c22a54237823f6"><polygon points="104.40489275110325,235.0 112.35967978409901,235.0 120.31446681709478,235.0 128.26925385009054,235.0 136.22404088308633,235.0 144.1788279160821,235.0 152.13361494907787,235.0 160.08840198207366,235.0 168.0431890150694,235.0 175.99797604806517,235.0 183.95276308106094,235.0 191.9075501140567,235.0 199.8623371470525,235.0 207.81712418004827,235.0 215.77191121304404,235.0 223.7266982460398,235.0 231.6814852790356,235.0 239.63627231203134,235.0 247.59105934502708,235.0 255.54584637802287,235.0 263.5006334110186,235.0 271.4554204440144,235.0 279.4102074770102,235.0 287.364994510006,235.0 295.31978154300174,235.0 303.2745685759975,235.0 311.22935560899333,235.0 319.184142641989,235.0 327.13892967498487,235.0 335.0937167079806,235.0 335.0937167079806,234.95950934857686 327.13892967498487,235.0 319.184142641989,234.97975467428847 311.22935560899333,234.93926402286533 303.2745685759975,234.8987733714422 295.31978154300174,234.8987733714422 287.364994510006,234.8987733714422 279.4102074770102,234.69632011432654 271.4554204440144,234.7570560914612 263.5006334110186,234.43313088007622 255.54584637802287,234.31165892580682 247.59105934502708,233.86626176015244 239.63627231203134,233.2184113373824 231.6814852790356,232.8337501488627 223.7266982460398,230.869953554841 215.77191121304404,228.6024770751459 207.81712418004827,225.6466595212576 199.8623371470525,220.5043467905204 191.9075501140567,212.02155531737526 183.95276308106094,201.55472192449685 175.99797604806517,184.18423246397523 168.0431890150694,161.34750506133145 160.08840198207366,134.15803263070143 152.13361494907787,101.82624746933428 144.1788279160821,74.63677503870429 136.22404088308633,65.0 128.26925385009054,101.17839704656424 120.31446681709478,164.44503989520067 112.35967978409901,216.13135643682267 104.40489275110325,232.9349767774205" style="fill:rgb(55.3%,62.7%,79.6%);fill-opacity:0.33;opacity:1.0;stroke:none" /></g><g class="toyplot-mark-Plot" style="fill:none" id="t7791f5bdf44241499e3c0e0d9c40540a"><g class="toyplot-Series"><path d="M 104.40489275110325 232.9349767774205 L 112.35967978409901 216.13135643682267 L 120.31446681709478 164.44503989520067 L 128.26925385009054 101.17839704656424 L 136.22404088308633 65.0 L 144.1788279160821 74.63677503870429 L 152.13361494907787 101.82624746933428 L 160.08840198207366 134.15803263070143 L 168.0431890150694 161.34750506133145 L 175.99797604806517 184.18423246397523 L 183.95276308106094 201.55472192449685 L 191.9075501140567 212.02155531737526 L 199.8623371470525 220.5043467905204 L 207.81712418004827 225.6466595212576 L 215.77191121304404 228.6024770751459 L 223.7266982460398 230.869953554841 L 231.6814852790356 232.8337501488627 L 239.63627231203134 233.2184113373824 L 247.59105934502708 233.86626176015244 L 255.54584637802287 234.31165892580682 L 263.5006334110186 234.43313088007622 L 271.4554204440144 234.7570560914612 L 279.4102074770102 234.69632011432654 L 287.364994510006 234.8987733714422 L 295.31978154300174 234.8987733714422 L 303.2745685759975 234.8987733714422 L 311.22935560899333 234.93926402286533 L 319.184142641989 234.97975467428847 L 327.13892967498487 235.0 L 335.0937167079806 234.95950934857686" style="stroke:rgb(45.9%,43.9%,70.2%);stroke-opacity:1.0;stroke-width:4.0" /></g></g></g><g class="toyplot-coordinates-Axis" id="t1c955522f4034c1faadb8d36179df9d0" transform="translate(65.0,235.0)translate(0,10.0)"><line x1="0" y1="0" x2="220.0" y2="0" style="stroke-width:3" /><g><line x1="0.0" y1="7.5" x2="0.0" y2="0" style="stroke-width:3" /><line x1="73.33333333333333" y1="7.5" x2="73.33333333333333" y2="0" style="stroke-width:3" /><line x1="146.66666666666666" y1="7.5" x2="146.66666666666666" y2="0" style="stroke-width:3" /><line x1="220.0" y1="7.5" x2="220.0" y2="0" style="stroke-width:3" /></g><g><g transform="translate(0.0,12.0)"><text x="-4.448" y="13.687999999999999" style="fill:rgb(16.1%,15.3%,14.1%);fill-opacity:1.0;font-family:helvetica;font-size:16.0px;font-weight:normal;stroke:none;vertical-align:baseline;white-space:pre">0</text></g><g transform="translate(73.33333333333333,12.0)"><text x="-4.448" y="13.687999999999999" style="fill:rgb(16.1%,15.3%,14.1%);fill-opacity:1.0;font-family:helvetica;font-size:16.0px;font-weight:normal;stroke:none;vertical-align:baseline;white-space:pre">8</text></g><g transform="translate(146.66666666666666,12.0)"><text x="-8.896" y="13.687999999999999" style="fill:rgb(16.1%,15.3%,14.1%);fill-opacity:1.0;font-family:helvetica;font-size:16.0px;font-weight:normal;stroke:none;vertical-align:baseline;white-space:pre">16</text></g><g transform="translate(220.0,12.0)"><text x="-8.896" y="13.687999999999999" style="fill:rgb(16.1%,15.3%,14.1%);fill-opacity:1.0;font-family:helvetica;font-size:16.0px;font-weight:normal;stroke:none;vertical-align:baseline;white-space:pre">24</text></g></g><g transform="translate(110.0,35.0)"><text x="-109.8096" y="13.687999999999999" style="fill:rgb(16.1%,15.3%,14.1%);fill-opacity:1.0;font-family:helvetica;font-size:16.0px;font-weight:bold;stroke:none;vertical-align:baseline;white-space:pre">Genealogy sum length (x10</text><text x="98.25439999999999" y="10.328" style="fill:rgb(16.1%,15.3%,14.1%);fill-opacity:1.0;font-family:helvetica;font-size:11.2px;font-weight:bold;stroke:none;vertical-align:baseline;white-space:pre">6</text><text x="104.48159999999999" y="13.687999999999999" style="fill:rgb(16.1%,15.3%,14.1%);fill-opacity:1.0;font-family:helvetica;font-size:16.0px;font-weight:bold;stroke:none;vertical-align:baseline;white-space:pre">)</text></g><g class="toyplot-coordinates-Axis-coordinates" style="visibility:hidden" transform=""><line x1="0" x2="0" y1="-6.0" y2="9.0" style="stroke:rgb(43.9%,50.2%,56.5%);stroke-opacity:1.0;stroke-width:1.0" /><text x="0" y="-12.0" style="alignment-baseline:alphabetic;fill:rgb(43.9%,50.2%,56.5%);fill-opacity:1.0;font-size:10px;font-weight:normal;stroke:none;text-anchor:middle" /></g></g><g class="toyplot-coordinates-Axis" id="t49f34f7ca6b8466280f960e73a58cc42" transform="translate(65.0,235.0)rotate(-90.0)translate(0,-10.0)"><line x1="0" y1="0" x2="170.0" y2="0" style="stroke-width:3" /><g><line x1="0.0" y1="-7.5" x2="0.0" y2="0" style="stroke-width:3" /><line x1="85.0" y1="-7.5" x2="85.0" y2="0" style="stroke-width:3" /><line x1="170.0" y1="-7.5" x2="170.0" y2="0" style="stroke-width:3" /></g><g><g transform="translate(0.0,-12.0)"><text x="-11.12" y="0.0" style="fill:rgb(16.1%,15.3%,14.1%);fill-opacity:1.0;font-family:helvetica;font-size:16.0px;font-weight:normal;stroke:none;vertical-align:baseline;white-space:pre">0.0</text></g><g transform="translate(85.0,-12.0)"><text x="-11.12" y="0.0" style="fill:rgb(16.1%,15.3%,14.1%);fill-opacity:1.0;font-family:helvetica;font-size:16.0px;font-weight:normal;stroke:none;vertical-align:baseline;white-space:pre">0.5</text></g><g transform="translate(170.0,-12.0)"><text x="-11.12" y="0.0" style="fill:rgb(16.1%,15.3%,14.1%);fill-opacity:1.0;font-family:helvetica;font-size:16.0px;font-weight:normal;stroke:none;vertical-align:baseline;white-space:pre">1.0</text></g></g><g transform="translate(85.0,-35.0)"><text x="-40.456" y="0.0" style="fill:rgb(16.1%,15.3%,14.1%);fill-opacity:1.0;font-family:helvetica;font-size:16.0px;font-weight:bold;stroke:none;vertical-align:baseline;white-space:pre">Frequency</text></g><g class="toyplot-coordinates-Axis-coordinates" style="visibility:hidden" transform=""><line x1="0" x2="0" y1="6.0" y2="-9.0" style="stroke:rgb(43.9%,50.2%,56.5%);stroke-opacity:1.0;stroke-width:1.0" /><text x="0" y="12.0" style="alignment-baseline:hanging;fill:rgb(43.9%,50.2%,56.5%);fill-opacity:1.0;font-size:10px;font-weight:normal;stroke:none;text-anchor:middle" /></g></g></g></svg>