<svg class="toyplot-canvas-Canvas" xmlns:toyplot="http://www.sandia.gov/toyplot" xmlns:xlink="http://www.w3.org/1999/xlink" xmlns="http://www.w3.org/2000/svg" width="350.0px" height="300.0px" viewBox="0 0 350.0 300.0" preserveAspectRatio="xMidYMid meet" style="background-color:transparent;border-color:#292724;border-style:none;border-width:1.0;fill:rgb(16.1%,15.3%,14.1%);fill-opacity:1.0;font-family:Helvetica;font-size:12px;opacity:1.0;stroke:rgb(16.1%,15.3%,14.1%);stroke-opacity:1.0;stroke-width:1.0" id="ta925550f7a6349d5b4652504a0f69cd1"><g class="toyplot-coordinates-Cartesian" id="tf437a3987c0e4b63b124f9bae73dbf8a"><clipPath id="tc17516f1dae94fc99427afe16020dd83"><rect x="55.0" y="55.0" width="240.0" height="190.0" /></clipPath><g clip-path="url(#tc17516f1dae94fc99427afe16020dd83)"><g class="toyplot-mark-AxisLines" style="stroke:rgb(50.2%,50.2%,50.2%);stroke-dasharray:6,6;stroke-opacity:0.7;stroke-width:2" id="t9c3d8acfd4a74427a90e0069c7dd40c2"><g class="toyplot-Series"><line class="toyplot-Datum" x1="65.0" x2="65.0" y1="65.0" y2="235.0" style="opacity:1.0;stroke:rgb(50.2%,50.2%,50.2%);stroke-dasharray:6,6;stroke-opacity:0.7;stroke-width:2" /><line class="toyplot-Datum" x1="138.33333333333334" x2="138.33333333333334" y1="65.0" y2="235.0" style="opacity:1.0;stroke:rgb(50.2%,50.2%,50.2%);stroke-dasharray:6,6;stroke-opacity:0.7;stroke-width:2" /><line class="toyplot-Datum" x1="211.66666666666666" x2="211.66666666666666" y1="65.0" y2="235.0" style="opacity:1.0;stroke:rgb(50.2%,50.2%,50.2%);stroke-dasharray:6,6;stroke-opacity:0.7;stroke-width:2" /><line class="toyplot-Datum" x1="285.0" x2="285.0" y1="65.0" y2="235.0" style="opacity:1.0;stroke:rgb(50.2%,50.2%,50.2%);stroke-dasharray:6,6;stroke-opacity:0.7;stroke-width:2" /></g></g><g class="toyplot-mark-FillBoundaries" style="fill:rgb(90.6%,54.1%,76.5%);fill-opacity:0.33;stroke:none" id="t909b59ba9b124d129ebfbeed3b53aed2"><polygon points="74.63231234911827,235.0 75.43663955926122,235.0 76.24096676940418,235.0 77.04529397954714,235.0 77.84962118969011,235.0 78.65394839983307,235.0 79.45827560997603,235.0 80.26260282011899,235.0 81.06693003026194,235.0 81.8712572404049,235.0 82.67558445054786,235.0 83.47991166069082,235.0 84.28423887083378,235.0 85.08856608097675,235.0 85.8928932911197,235.0 86.69722050126266,235.0 87.50154771140564,235.0 88.3058749215486,235.0 89.11020213169154,235.0 89.91452934183451,235.0 90.71885655197747,235.0 91.52318376212042,235.0 92.32751097226338,235.0 93.13183818240634,235.0 93.9361653925493,235.0 94.74049260269227,235.0 95.54481981283521,235.0 96.3491470229782,235.0 97.15347423312116,235.0 97.95780144326412,235.0 97.95780144326412,234.9299642955232 97.15347423312116,234.97665476517437 96.3491470229782,234.9533095303488 95.54481981283521,234.9533095303488 94.74049260269227,234.9533095303488 93.9361653925493,234.9066190606976 93.13183818240634,234.8599285910464 92.32751097226338,234.62647624279046 91.52318376212042,234.32298819005766 90.71885655197747,233.94946443284812 89.91452934183451,233.80939302389453 89.11020213169154,233.10903597912662 88.3058749215486,231.61494095028837 87.50154771140564,230.44767920900853 86.69722050126266,228.60340565778634 85.8928932911197,224.37791815435318 85.08856608097675,218.9851689096402 84.28423887083378,210.06728920626205 83.47991166069082,199.7953858829992 82.67558445054786,183.99066190606976 81.8712572404049,165.19774787146386 81.06693003026194,138.77094204888766 80.26260282011899,108.91238670694864 79.45827560997603,81.85525954408129 78.65394839983307,66.26064268058225 77.84962118969011,65.0 77.04529397954714,105.7841252403186 76.24096676940418,162.13952210931063 75.43663955926122,213.6391101345784 74.63231234911827,232.94561933534743" style="fill:rgb(90.6%,54.1%,76.5%);fill-opacity:0.33;opacity:1.0;stroke:none" /></g><g class="toyplot-mark-Plot" style="fill:none" id="te5f151c0b26042d9be1f2d1511e75378"><g class="toyplot-Series"><path d="M 74.63231234911827 232.94561933534743 L 75.43663955926122 213.6391101345784 L 76.24096676940418 162.13952210931063 L 77.04529397954714 105.7841252403186 L 77.84962118969011 65.0 L 78.65394839983307 66.26064268058225 L 79.45827560997603 81.85525954408129 L 80.26260282011899 108.91238670694864 L 81.06693003026194 138.77094204888766 L 81.8712572404049 165.19774787146386 L 82.67558445054786 183.99066190606976 L 83.47991166069082 199.7953858829992 L 84.28423887083378 210.06728920626205 L 85.08856608097675 218.9851689096402 L 85.8928932911197 224.37791815435318 L 86.69722050126266 228.60340565778634 L 87.50154771140564 230.44767920900853 L 88.3058749215486 231.61494095028837 L 89.11020213169154 233.10903597912662 L 89.91452934183451 233.80939302389453 L 90.71885655197747 233.94946443284812 L 91.52318376212042 234.32298819005766 L 92.32751097226338 234.62647624279046 L 93.13183818240634 234.8599285910464 L 93.9361653925493 234.9066190606976 L 94.74049260269227 234.9533095303488 L 95.54481981283521 234.9533095303488 L 96.3491470229782 234.9533095303488 L 97.15347423312116 234.97665476517437 L 97.95780144326412 234.9299642955232" style="stroke:rgb(90.6%,16.1%,54.1%);stroke-opacity:1.0;stroke-width:4.0" /></g></g><g class="toyplot-mark-FillBoundaries" style="fill:rgb(55.3%,62.7%,79.6%);fill-opacity:0.33;stroke:none" id="tcf49d9d6a0534b25812d798ca100dc3d"><polygon points="78.82312349118259,235.0 86.53647710869845,235.0 94.24983072621431,235.0 101.96318434373018,235.0 109.67653796124604,235.0 117.3898915787619,235.0 125.10324519627775,235.0 132.81659881379363,235.0 140.52995243130948,235.0 148.24330604882536,235.0 155.95665966634124,235.0 163.6700132838571,235.0 171.38336690137294,235.0 179.09672051888884,235.0 186.8100741364047,235.0 194.52342775392054,235.0 202.23678137143642,235.0 209.95013498895227,235.0 217.66348860646815,235.0 225.376842223984,235.0 233.09019584149988,235.0 240.80354945901573,235.0 248.5169030765316,235.0 256.23025669404745,235.0 263.94361031156336,235.0 271.65696392907915,235.0 279.37031754659506,235.0 287.0836711641109,235.0 294.79702478162676,235.0 302.5103783991426,235.0 302.5103783991426,234.9347158218126 294.79702478162676,235.0 287.0836711641109,234.97823860727087 279.37031754659506,234.97823860727087 271.65696392907915,234.8911930363543 263.94361031156336,234.97823860727087 256.23025669404745,234.8694316436252 248.5169030765316,234.58653353814645 240.80354945901573,234.45596518177163 233.09019584149988,234.41244239631334 225.376842223984,233.82488479262673 217.66348860646815,233.58550947260625 209.95013498895227,232.43215565796208 202.23678137143642,231.06118791602663 194.52342775392054,229.49436763952895 186.8100741364047,226.12135176651304 179.09672051888884,222.33486943164363 171.38336690137294,215.76292882744497 163.6700132838571,207.1236559139785 155.95665966634124,192.80465949820788 148.24330604882536,175.70020481310803 140.52995243130948,150.0435227854583 132.81659881379363,120.31746031746032 125.10324519627775,88.65463389656938 117.3898915787619,65.0 109.67653796124604,65.65284178187403 101.96318434373018,108.32693292370712 94.24983072621431,167.23502304147465 86.53647710869845,215.26241679467486 78.82312349118259,233.10675883256528" style="fill:rgb(55.3%,62.7%,79.6%);fill-opacity:0.33;opacity:1.0;stroke:none" /></g><g class="toyplot-mark-Plot" style="fill:none" id="t2e063acab8934f52a2c7933e6a83fc4e"><g class="toyplot-Series"><path d="M 78.82312349118259 233.10675883256528 L 86.53647710869845 215.26241679467486 L 94.24983072621431 167.23502304147465 L 101.96318434373018 108.32693292370712 L 109.67653796124604 65.65284178187403 L 117.3898915787619 65.0 L 125.10324519627775 88.65463389656938 L 132.81659881379363 120.31746031746032 L 140.52995243130948 150.0435227854583 L 148.24330604882536 175.70020481310803 L 155.95665966634124 192.80465949820788 L 163.6700132838571 207.1236559139785 L 171.38336690137294 215.76292882744497 L 179.09672051888884 222.33486943164363 L 186.8100741364047 226.12135176651304 L 194.52342775392054 229.49436763952895 L 202.23678137143642 231.06118791602663 L 209.95013498895227 232.43215565796208 L 217.66348860646815 233.58550947260625 L 225.376842223984 233.82488479262673 L 233.09019584149988 234.41244239631334 L 240.80354945901573 234.45596518177163 L 248.5169030765316 234.58653353814645 L 256.23025669404745 234.8694316436252 L 263.94361031156336 234.97823860727087 L 271.65696392907915 234.8911930363543 L 279.37031754659506 234.97823860727087 L 287.0836711641109 234.97823860727087 L 294.79702478162676 235.0 L 302.5103783991426 234.9347158218126" style="stroke:rgb(45.9%,43.9%,70.2%);stroke-opacity:1.0;stroke-width:4.0" /></g></g></g><g class="toyplot-coordinates-Axis" id="t70579faea59c46b1899e7f0ab38d410e" transform="translate(65.0,235.0)translate(0,10.0)"><line x1="0" y1="0" x2="220.0" y2="0" style="stroke-width:3" /><g><line x1="0.0" y1="7.5" x2="0.0" y2="0" style="stroke-width:3" /><line x1="73.33333333333333" y1="7.5" x2="73.33333333333333" y2="0" style="stroke-width:3" /><line x1="146.66666666666666" y1="7.5" x2="146.66666666666666" y2="0" style="stroke-width:3" /><line x1="220.0" y1="7.5" x2="220.0" y2="0" style="stroke-width:3" /></g><g><g transform="translate(0.0,12.0)"><text x="-4.448" y="13.687999999999999" style="fill:rgb(16.1%,15.3%,14.1%);fill-opacity:1.0;font-family:helvetica;font-size:16.0px;font-weight:normal;stroke:none;vertical-align:baseline;white-space:pre">0</text></g><g transform="translate(73.33333333333333,12.0)"><text x="-4.448" y="13.687999999999999" style="fill:rgb(16.1%,15.3%,14.1%);fill-opacity:1.0;font-family:helvetica;font-size:16.0px;font-weight:normal;stroke:none;vertical-align:baseline;white-space:pre">8</text></g><g transform="translate(146.66666666666666,12.0)"><text x="-8.896" y="13.687999999999999" style="fill:rgb(16.1%,15.3%,14.1%);fill-opacity:1.0;font-family:helvetica;font-size:16.0px;font-weight:normal;stroke:none;vertical-align:baseline;white-space:pre">16</text></g><g transform="translate(220.0,12.0)"><text x="-8.896" y="13.687999999999999" style="fill:rgb(16.1%,15.3%,14.1%);fill-opacity:1.0;font-family:helvetica;font-size:16.0px;font-weight:normal;stroke:none;vertical-align:baseline;white-space:pre">24</text></g></g><g transform="translate(110.0,35.0)"><text x="-109.8096" y="13.687999999999999" style="fill:rgb(16.1%,15.3%,14.1%);fill-opacity:1.0;font-family:helvetica;font-size:16.0px;font-weight:bold;stroke:none;vertical-align:baseline;white-space:pre">Genealogy sum length (x10</text><text x="98.25439999999999" y="10.328" style="fill:rgb(16.1%,15.3%,14.1%);fill-opacity:1.0;font-family:helvetica;font-size:11.2px;font-weight:bold;stroke:none;vertical-align:baseline;white-space:pre">6</text><text x="104.48159999999999" y="13.687999999999999" style="fill:rgb(16.1%,15.3%,14.1%);fill-opacity:1.0;font-family:helvetica;font-size:16.0px;font-weight:bold;stroke:none;vertical-align:baseline;white-space:pre">)</text></g><g class="toyplot-coordinates-Axis-coordinates" style="visibility:hidden" transform=""><line x1="0" x2="0" y1="-6.0" y2="9.0" style="stroke:rgb(43.9%,50.2%,56.5%);stroke-opacity:1.0;stroke-width:1.0" /><text x="0" y="-12.0" style="alignment-baseline:alphabetic;fill:rgb(43.9%,50.2%,56.5%);fill-opacity:1.0;font-size:10px;font-weight:normal;stroke:none;text-anchor:middle" /></g></g><g class="toyplot-coordinates-Axis" id="t00ca9cc4c816476181683634bfd00baf" transform="translate(65.0,235.0)rotate(-90.0)translate(0,-10.0)"><line x1="0" y1="0" x2="170.0" y2="0" style="stroke-width:3" /><g><line x1="0.0" y1="-7.5" x2="0.0" y2="0" style="stroke-width:3" /><line x1="85.0" y1="-7.5" x2="85.0" y2="0" style="stroke-width:3" /><line x1="170.0" y1="-7.5" x2="170.0" y2="0" style="stroke-width:3" /></g><g><g transform="translate(0.0,-12.0)"><text x="-11.12" y="0.0" style="fill:rgb(16.1%,15.3%,14.1%);fill-opacity:1.0;font-family:helvetica;font-size:16.0px;font-weight:normal;stroke:none;vertical-align:baseline;white-space:pre">0.0</text></g><g transform="translate(85.0,-12.0)"><text x="-11.12" y="0.0" style="fill:rgb(16.1%,15.3%,14.1%);fill-opacity:1.0;font-family:helvetica;font-size:16.0px;font-weight:normal;stroke:none;vertical-align:baseline;white-space:pre">0.5</text></g><g transform="translate(170.0,-12.0)"><text x="-11.12" y="0.0" style="fill:rgb(16.1%,15.3%,14.1%);fill-opacity:1.0;font-family:helvetica;font-size:16.0px;font-weight:normal;stroke:none;vertical-align:baseline;white-space:pre">1.0</text></g></g><g transform="translate(85.0,-35.0)"><text x="-40.456" y="0.0" style="fill:rgb(16.1%,15.3%,14.1%);fill-opacity:1.0;font-family:helvetica;font-size:16.0px;font-weight:bold;stroke:none;vertical-align:baseline;white-space:pre">Frequency</text></g><g class="toyplot-coordinates-Axis-coordinates" style="visibility:hidden" transform=""><line x1="0" x2="0" y1="6.0" y2="-9.0" style="stroke:rgb(43.9%,50.2%,56.5%);stroke-opacity:1.0;stroke-width:1.0" /><text x="0" y="12.0" style="alignment-baseline:hanging;fill:rgb(43.9%,50.2%,56.5%);fill-opacity:1.0;font-size:10px;font-weight:normal;stroke:none;text-anchor:middle" /></g></g></g></svg>