<?xml version="1.0" encoding="UTF-8" standalone="no"?>
<svg
   class="toyplot-canvas-Canvas"
   width="500.0px"
   height="250.0px"
   viewBox="0 0 500.0 250.0"
   preserveAspectRatio="xMidYMid meet"
   style="background-color:transparent;border-color:#292724;border-style:none;border-width:1.0;fill:rgb(16.1%,15.3%,14.1%);fill-opacity:1.0;font-family:Helvetica;font-size:12px;opacity:1.0;stroke:rgb(16.1%,15.3%,14.1%);stroke-opacity:1.0;stroke-width:1.0"
   id="t08c5d59a365c436cb69c4b46451e6faf"
   version="1.1"
   sodipodi:docname="MCMC-posterior-3pops-combined-50loci-1e5sites.svg"
   inkscape:version="1.2 (1:1.2+202206011327+fc4e4096c5)"
   xmlns:inkscape="http://www.inkscape.org/namespaces/inkscape"
   xmlns:sodipodi="http://sodipodi.sourceforge.net/DTD/sodipodi-0.dtd"
   xmlns="http://www.w3.org/2000/svg"
   xmlns:svg="http://www.w3.org/2000/svg">
  <defs
     id="defs300" />
  <sodipodi:namedview
     id="namedview298"
     pagecolor="#ffffff"
     bordercolor="#999999"
     borderopacity="1"
     inkscape:showpageshadow="0"
     inkscape:pageopacity="0"
     inkscape:pagecheckerboard="0"
     inkscape:deskcolor="#d1d1d1"
     showgrid="false"
     inkscape:zoom="0.944"
     inkscape:cx="250"
     inkscape:cy="125.52966"
     inkscape:window-width="1860"
     inkscape:window-height="1016"
     inkscape:window-x="60"
     inkscape:window-y="27"
     inkscape:window-maximized="1"
     inkscape:current-layer="t08c5d59a365c436cb69c4b46451e6faf" />
  <g
     class="toyplot-coordinates-Cartesian"
     id="t972cf2e653d84ec6b2ae9c689427c519">
    <clipPath
       id="tb0f883cf67ac4fdbbff7aed018d249e9">
      <rect
         x="55.0"
         y="55.0"
         width="390.0"
         height="140.0"
         id="rect168" />
    </clipPath>
    <g
       clip-path="url(#tb0f883cf67ac4fdbbff7aed018d249e9)"
       id="g210">
      <g
         class="toyplot-mark-FillBoundaries"
         style="stroke:none"
         id="tdaff07ce4beb42e4abca42a3a0c1e99e">
        <polygon
           points="65.0,185.0 68.34176679873738,185.0 71.68353359747475,185.0 75.02530039621213,185.0 78.3670671949495,185.0 81.70883399368688,185.0 85.05060079242426,185.0 88.39236759116163,185.0 91.73413438989903,185.0 95.07590118863641,185.0 98.41766798737378,185.0 101.75943478611117,185.0 105.10120158484851,185.0 108.4429683835859,185.0 111.78473518232326,185.0 115.12650198106066,185.0 118.46826877979802,185.0 121.8100355785354,185.0 125.15180237727277,185.0 128.49356917601017,185.0 131.83533597474755,185.0 135.17710277348493,185.0 138.51886957222231,185.0 141.86063637095967,185.0 145.20240316969705,185.0 148.5441699684344,185.0 151.8859367671718,185.0 155.22770356590917,185.0 158.56947036464658,185.0 161.91123716338393,185.0 165.2530039621213,185.0 168.5947707608587,185.0 171.93653755959608,185.0 175.27830435833343,185.0 178.6200711570708,185.0 181.9618379558082,185.0 185.30360475454552,185.0 188.64537155328298,185.0 191.9871383520203,185.0 195.3289051507577,185.0 198.67067194949507,185.0 202.01243874823248,185.0 205.3542055469698,185.0 208.69597234570722,185.0 212.03773914444457,185.0 215.37950594318193,185.0 218.72127274191934,185.0 222.0630395406567,185.0 225.4048063393941,185.0 228.74657313813145,185.0 228.74657313813145,184.64601769911505 225.4048063393941,185.0 222.0630395406567,184.82300884955754 218.72127274191934,184.82300884955754 215.37950594318193,184.4690265486726 212.03773914444457,184.64601769911505 208.69597234570722,183.4070796460177 205.3542055469698,183.93805309734512 202.01243874823248,183.23008849557522 198.67067194949507,181.28318584070797 195.3289051507577,178.80530973451326 191.9871383520203,179.5132743362832 188.64537155328298,176.3274336283186 185.30360475454552,169.070796460177 181.9618379558082,170.6637168141593 178.6200711570708,161.63716814159292 175.27830435833343,159.69026548672568 171.93653755959608,150.13274336283183 168.5947707608587,144.46902654867256 165.2530039621213,134.5575221238938 161.91123716338393,120.75221238938053 158.56947036464658,114.20353982300884 155.22770356590917,105.35398230088495 151.8859367671718,88.89380530973452 148.5441699684344,76.32743362831859 145.20240316969705,71.54867256637168 141.86063637095967,71.54867256637168 138.51886957222231,74.20353982300884 135.17710277348493,83.05309734513274 131.83533597474755,69.7787610619469 128.49356917601017,80.22123893805309 125.15180237727277,92.07964601769912 121.8100355785354,93.14159292035399 118.46826877979802,114.91150442477877 115.12650198106066,131.90265486725662 111.78473518232326,142.87610619469027 108.4429683835859,151.90265486725664 105.10120158484851,157.03539823008848 101.75943478611117,167.12389380530973 98.41766798737378,173.49557522123894 95.07590118863641,178.4513274336283 91.73413438989903,180.92920353982302 88.39236759116163,182.52212389380534 85.05060079242426,183.93805309734512 81.70883399368688,184.4690265486726 78.3670671949495,184.64601769911505 75.02530039621213,184.82300884955754 71.68353359747475,185.0 68.34176679873738,185.0 65.0,184.82300884955754"
           style="fill:rgb(40%,76.1%,64.7%);fill-opacity:1.0;opacity:0.3;stroke:none"
           id="polygon171" />
      </g>
      <g
         class="toyplot-mark-Plot"
         style="fill:none;stroke-width:3"
         id="tdd8f71f227ae4179957a3c78ff25511b">
        <g
           class="toyplot-Series"
           id="g176">
          <path
             d="M 65.0 184.82300884955754 L 68.34176679873738 185.0 L 71.68353359747475 185.0 L 75.02530039621213 184.82300884955754 L 78.3670671949495 184.64601769911505 L 81.70883399368688 184.4690265486726 L 85.05060079242426 183.93805309734512 L 88.39236759116163 182.52212389380534 L 91.73413438989903 180.92920353982302 L 95.07590118863641 178.4513274336283 L 98.41766798737378 173.49557522123894 L 101.75943478611117 167.12389380530973 L 105.10120158484851 157.03539823008848 L 108.4429683835859 151.90265486725664 L 111.78473518232326 142.87610619469027 L 115.12650198106066 131.90265486725662 L 118.46826877979802 114.91150442477877 L 121.8100355785354 93.14159292035399 L 125.15180237727277 92.07964601769912 L 128.49356917601017 80.22123893805309 L 131.83533597474755 69.7787610619469 L 135.17710277348493 83.05309734513274 L 138.51886957222231 74.20353982300884 L 141.86063637095967 71.54867256637168 L 145.20240316969705 71.54867256637168 L 148.5441699684344 76.32743362831859 L 151.8859367671718 88.89380530973452 L 155.22770356590917 105.35398230088495 L 158.56947036464658 114.20353982300884 L 161.91123716338393 120.75221238938053 L 165.2530039621213 134.5575221238938 L 168.5947707608587 144.46902654867256 L 171.93653755959608 150.13274336283183 L 175.27830435833343 159.69026548672568 L 178.6200711570708 161.63716814159292 L 181.9618379558082 170.6637168141593 L 185.30360475454552 169.070796460177 L 188.64537155328298 176.3274336283186 L 191.9871383520203 179.5132743362832 L 195.3289051507577 178.80530973451326 L 198.67067194949507 181.28318584070797 L 202.01243874823248 183.23008849557522 L 205.3542055469698 183.93805309734512 L 208.69597234570722 183.4070796460177 L 212.03773914444457 184.64601769911505 L 215.37950594318193 184.4690265486726 L 218.72127274191934 184.82300884955754 L 222.0630395406567 184.82300884955754 L 225.4048063393941 185.0 L 228.74657313813145 184.64601769911505"
             style="stroke:rgb(40%,76.1%,64.7%);stroke-opacity:1.0;stroke-width:3"
             id="path174" />
        </g>
      </g>
      <g
         class="toyplot-mark-FillBoundaries"
         style="stroke:none"
         id="t5a319ddcd11a48e4b5756f6de6fbb843">
        <polygon
           points="151.119570703922,185.0 156.91304885282153,185.0 162.7065270017211,185.0 168.50000515062064,185.0 174.29348329952023,185.0 180.0869614484198,185.0 185.8804395973193,185.0 191.67391774621888,185.0 197.4673958951184,185.0 203.26087404401798,185.0 209.05435219291752,185.0 214.8478303418171,185.0 220.6413084907166,185.0 226.43478663961616,185.0 232.22826478851573,185.0 238.02174293741527,185.0 243.8152210863148,185.0 249.60869923521437,185.0 255.4021773841139,185.0 261.19565553301345,185.0 266.989133681913,185.0 272.7826118308126,185.0 278.57608997971215,185.0 284.36956812861166,185.0 290.1630462775112,185.0 295.95652442641074,185.0 301.75000257531036,185.0 307.54348072420987,185.0 313.3369588731095,185.0 319.13043702200895,185.0 324.9239151709085,185.0 330.717393319808,185.0 336.51087146870765,185.0 342.30434961760716,185.0 348.0978277665067,185.0 353.8913059154063,185.0 359.68478406430586,185.0 365.4782622132054,185.0 371.271740362105,185.0 377.06521851100445,185.0 382.85869665990407,185.0 388.65217480880364,185.0 394.44565295770315,185.0 400.2391311066027,185.0 406.0326092555022,185.0 411.8260874044018,185.0 417.61956555330136,185.0 423.4130437022009,185.0 429.20652185110043,185.0 435.0,185.0 435.0,184.64601769911505 429.20652185110043,185.0 423.4130437022009,184.82300884955754 417.61956555330136,185.0 411.8260874044018,185.0 406.0326092555022,184.82300884955754 400.2391311066027,184.64601769911505 394.44565295770315,185.0 388.65217480880364,184.82300884955754 382.85869665990407,184.64601769911505 377.06521851100445,184.64601769911505 371.271740362105,184.11504424778758 365.4782622132054,183.58407079646017 359.68478406430586,182.87610619469027 353.8913059154063,183.4070796460177 348.0978277665067,182.34513274336283 342.30434961760716,181.28318584070797 336.51087146870765,177.7433628318584 330.717393319808,177.56637168141594 324.9239151709085,173.141592920354 319.13043702200895,166.23893805309734 313.3369588731095,165.53097345132744 307.54348072420987,158.8053097345133 301.75000257531036,149.7787610619469 295.95652442641074,141.46017699115043 290.1630462775112,131.01769911504425 284.36956812861166,122.52212389380531 278.57608997971215,121.28318584070796 272.7826118308126,108.1858407079646 266.989133681913,91.54867256637169 261.19565553301345,75.44247787610618 255.4021773841139,73.8495575221239 249.60869923521437,72.07964601769912 243.8152210863148,65.0 238.02174293741527,66.06194690265487 232.22826478851573,68.1858407079646 226.43478663961616,78.27433628318585 220.6413084907166,92.07964601769912 214.8478303418171,107.30088495575222 209.05435219291752,110.13274336283186 203.26087404401798,123.93805309734513 197.4673958951184,142.52212389380531 191.67391774621888,155.26548672566372 185.8804395973193,162.16814159292036 180.0869614484198,168.53982300884957 174.29348329952023,174.02654867256638 168.50000515062064,180.0442477876106 162.7065270017211,181.99115044247787 156.91304885282153,183.4070796460177 151.119570703922,184.2920353982301"
           style="fill:rgb(98.8%,55.3%,38.4%);fill-opacity:1.0;opacity:0.3;stroke:none"
           id="polygon179" />
      </g>
      <g
         class="toyplot-mark-Plot"
         style="fill:none;stroke-width:3"
         id="t72b6bc897b76498cb9f2c3cd3ba41f55">
        <g
           class="toyplot-Series"
           id="g184">
          <path
             d="M 151.119570703922 184.2920353982301 L 156.91304885282153 183.4070796460177 L 162.7065270017211 181.99115044247787 L 168.50000515062064 180.0442477876106 L 174.29348329952023 174.02654867256638 L 180.0869614484198 168.53982300884957 L 185.8804395973193 162.16814159292036 L 191.67391774621888 155.26548672566372 L 197.4673958951184 142.52212389380531 L 203.26087404401798 123.93805309734513 L 209.05435219291752 110.13274336283186 L 214.8478303418171 107.30088495575222 L 220.6413084907166 92.07964601769912 L 226.43478663961616 78.27433628318585 L 232.22826478851573 68.1858407079646 L 238.02174293741527 66.06194690265487 L 243.8152210863148 65.0 L 249.60869923521437 72.07964601769912 L 255.4021773841139 73.8495575221239 L 261.19565553301345 75.44247787610618 L 266.989133681913 91.54867256637169 L 272.7826118308126 108.1858407079646 L 278.57608997971215 121.28318584070796 L 284.36956812861166 122.52212389380531 L 290.1630462775112 131.01769911504425 L 295.95652442641074 141.46017699115043 L 301.75000257531036 149.7787610619469 L 307.54348072420987 158.8053097345133 L 313.3369588731095 165.53097345132744 L 319.13043702200895 166.23893805309734 L 324.9239151709085 173.141592920354 L 330.717393319808 177.56637168141594 L 336.51087146870765 177.7433628318584 L 342.30434961760716 181.28318584070797 L 348.0978277665067 182.34513274336283 L 353.8913059154063 183.4070796460177 L 359.68478406430586 182.87610619469027 L 365.4782622132054 183.58407079646017 L 371.271740362105 184.11504424778758 L 377.06521851100445 184.64601769911505 L 382.85869665990407 184.64601769911505 L 388.65217480880364 184.82300884955754 L 394.44565295770315 185.0 L 400.2391311066027 184.64601769911505 L 406.0326092555022 184.82300884955754 L 411.8260874044018 185.0 L 417.61956555330136 185.0 L 423.4130437022009 184.82300884955754 L 429.20652185110043 185.0 L 435.0 184.64601769911505"
             style="stroke:rgb(98.8%,55.3%,38.4%);stroke-opacity:1.0;stroke-width:3"
             id="path182" />
        </g>
      </g>
      <g
         class="toyplot-mark-FillBoundaries"
         style="stroke:none"
         id="t1f95ab7c7f7b45a7ac64f7ed10f1bfd6">
        <polygon
           points="223.93202175792288,185.0 227.6862014984531,185.0 231.44038123898332,185.0 235.1945609795136,185.0 238.94874072004384,185.0 242.70292046057412,185.0 246.45710020110437,185.0 250.21127994163461,185.0 253.96545968216486,185.0 257.7196394226951,185.0 261.47381916322536,185.0 265.2279989037556,185.0 268.9821786442858,185.0 272.73635838481607,185.0 276.49053812534635,185.0 280.24471786587657,185.0 283.99889760640684,185.0 287.75307734693706,185.0 291.50725708746734,185.0 295.2614368279976,185.0 299.0156165685279,185.0 302.7697963090581,185.0 306.5239760495883,185.0 310.27815579011855,185.0 314.0323355306488,185.0 317.78651527117916,185.0 321.5406950117094,185.0 325.29487475223965,185.0 329.04905449276987,185.0 332.8032342333001,185.0 336.5574139738303,185.0 340.3115937143606,185.0 344.06577345489086,185.0 347.81995319542114,185.0 351.5741329359514,185.0 355.3283126764816,185.0 359.08249241701185,185.0 362.836672157542,185.0 366.59085189807234,185.0 370.34503163860256,185.0 374.0992113791329,185.0 377.8533911196631,185.0 381.60757086019333,185.0 385.36175060072355,185.0 389.11593034125383,185.0 392.8701100817841,185.0 396.6242898223144,185.0 400.37846956284466,185.0 404.1326493033748,185.0 407.88682904390515,185.0 407.88682904390515,184.82300884955754 404.1326493033748,184.82300884955754 400.37846956284466,184.4690265486726 396.6242898223144,184.64601769911505 392.8701100817841,184.64601769911505 389.11593034125383,184.82300884955754 385.36175060072355,184.82300884955754 381.60757086019333,183.58407079646017 377.8533911196631,183.4070796460177 374.0992113791329,183.4070796460177 370.34503163860256,181.63716814159292 366.59085189807234,180.39823008849558 362.836672157542,177.56637168141594 359.08249241701185,177.212389380531 355.3283126764816,170.6637168141593 351.5741329359514,165.8849557522124 347.81995319542114,161.63716814159292 344.06577345489086,154.38053097345133 340.3115937143606,148.71681415929203 336.5574139738303,143.40707964601768 332.8032342333001,128.53982300884957 329.04905449276987,123.58407079646017 325.29487475223965,114.73451327433628 321.5406950117094,100.75221238938053 317.78651527117916,99.3362831858407 314.0323355306488,81.10619469026548 310.27815579011855,79.51327433628319 306.5239760495883,77.21238938053098 302.7697963090581,82.69911504424778 299.0156165685279,73.31858407079646 295.2614368279976,88.18584070796462 291.50725708746734,85.17699115044248 287.75307734693706,92.43362831858407 283.99889760640684,108.00884955752213 280.24471786587657,124.64601769911505 276.49053812534635,124.64601769911505 272.73635838481607,131.72566371681415 268.9821786442858,144.64601769911502 265.2279989037556,156.68141592920355 261.47381916322536,163.23008849557525 257.7196394226951,168.00884955752213 253.96545968216486,171.54867256637166 250.21127994163461,175.08849557522123 246.45710020110437,179.33628318584073 242.70292046057412,180.75221238938053 238.94874072004384,182.6991150442478 235.1945609795136,184.4690265486726 231.44038123898332,184.11504424778758 227.6862014984531,184.4690265486726 223.93202175792288,184.4690265486726"
           style="fill:rgb(55.3%,62.7%,79.6%);fill-opacity:1.0;opacity:0.3;stroke:none"
           id="polygon187" />
      </g>
      <g
         class="toyplot-mark-Plot"
         style="fill:none;stroke-width:3"
         id="t9a3c4999143c4b17aeb2ea07005cee62">
        <g
           class="toyplot-Series"
           id="g192">
          <path
             d="M 223.93202175792288 184.4690265486726 L 227.6862014984531 184.4690265486726 L 231.44038123898332 184.11504424778758 L 235.1945609795136 184.4690265486726 L 238.94874072004384 182.6991150442478 L 242.70292046057412 180.75221238938053 L 246.45710020110437 179.33628318584073 L 250.21127994163461 175.08849557522123 L 253.96545968216486 171.54867256637166 L 257.7196394226951 168.00884955752213 L 261.47381916322536 163.23008849557525 L 265.2279989037556 156.68141592920355 L 268.9821786442858 144.64601769911502 L 272.73635838481607 131.72566371681415 L 276.49053812534635 124.64601769911505 L 280.24471786587657 124.64601769911505 L 283.99889760640684 108.00884955752213 L 287.75307734693706 92.43362831858407 L 291.50725708746734 85.17699115044248 L 295.2614368279976 88.18584070796462 L 299.0156165685279 73.31858407079646 L 302.7697963090581 82.69911504424778 L 306.5239760495883 77.21238938053098 L 310.27815579011855 79.51327433628319 L 314.0323355306488 81.10619469026548 L 317.78651527117916 99.3362831858407 L 321.5406950117094 100.75221238938053 L 325.29487475223965 114.73451327433628 L 329.04905449276987 123.58407079646017 L 332.8032342333001 128.53982300884957 L 336.5574139738303 143.40707964601768 L 340.3115937143606 148.71681415929203 L 344.06577345489086 154.38053097345133 L 347.81995319542114 161.63716814159292 L 351.5741329359514 165.8849557522124 L 355.3283126764816 170.6637168141593 L 359.08249241701185 177.212389380531 L 362.836672157542 177.56637168141594 L 366.59085189807234 180.39823008849558 L 370.34503163860256 181.63716814159292 L 374.0992113791329 183.4070796460177 L 377.8533911196631 183.4070796460177 L 381.60757086019333 183.58407079646017 L 385.36175060072355 184.82300884955754 L 389.11593034125383 184.82300884955754 L 392.8701100817841 184.64601769911505 L 396.6242898223144 184.64601769911505 L 400.37846956284466 184.4690265486726 L 404.1326493033748 184.82300884955754 L 407.88682904390515 184.82300884955754"
             style="stroke:rgb(55.3%,62.7%,79.6%);stroke-opacity:1.0;stroke-width:3"
             id="path190" />
        </g>
      </g>
      <g
         class="toyplot-mark-AxisLines"
         style="stroke:rgb(40%,76.1%,64.7%);stroke-dasharray:6,6;stroke-opacity:1.0;stroke-width:3"
         id="tf19a016690fb45efa0c6d1eeb6f72741">
        <g
           class="toyplot-Series"
           id="g197">
          <line
             class="toyplot-Datum"
             x1="143.17071991296078"
             x2="143.17071991296078"
             y1="65.0"
             y2="185.0"
             style="opacity:1.0;stroke:rgb(40%,76.1%,64.7%);stroke-dasharray:6,6;stroke-opacity:1.0;stroke-width:3"
             id="line195" />
        </g>
      </g>
      <g
         class="toyplot-mark-AxisLines"
         style="stroke:rgb(98.8%,55.3%,38.4%);stroke-dasharray:6,6;stroke-opacity:1.0;stroke-width:3"
         id="t6d49ac6220314f1099844c548de14f81">
        <g
           class="toyplot-Series"
           id="g202">
          <line
             class="toyplot-Datum"
             x1="228.83065781507685"
             x2="228.83065781507685"
             y1="65.0"
             y2="185.0"
             style="opacity:1.0;stroke:rgb(98.8%,55.3%,38.4%);stroke-dasharray:6,6;stroke-opacity:1.0;stroke-width:3"
             id="line200" />
        </g>
      </g>
      <g
         class="toyplot-mark-AxisLines"
         style="stroke:rgb(55.3%,62.7%,79.6%);stroke-dasharray:6,6;stroke-opacity:1.0;stroke-width:3"
         id="tf4de582c71c74c389370e899b2e01141">
        <g
           class="toyplot-Series"
           id="g207">
          <line
             class="toyplot-Datum"
             x1="314.49059571719295"
             x2="314.49059571719295"
             y1="65.0"
             y2="185.0"
             style="opacity:1.0;stroke:rgb(55.3%,62.7%,79.6%);stroke-dasharray:6,6;stroke-opacity:1.0;stroke-width:3"
             id="line205" />
        </g>
      </g>
    </g>
    <g
       class="toyplot-coordinates-Axis"
       id="t77667271edc04eef9853133f61afa626"
       transform="translate(65.0,185.0)translate(0,10.0)">
      <line
         x1="0"
         y1="0"
         x2="370.0"
         y2="0"
         style="stroke-width:3"
         id="line212" />
      <g
         id="g222">
        <line
           x1="78.17071991296078"
           y1="7.5"
           x2="78.17071991296078"
           y2="0"
           style="stroke-width:3"
           id="line214" />
        <line
           x1="163.83065781507685"
           y1="7.5"
           x2="163.83065781507685"
           y2="0"
           style="stroke-width:3"
           id="line216" />
        <line
           x1="249.49059571719295"
           y1="7.5"
           x2="249.49059571719295"
           y2="0"
           style="stroke-width:3"
           id="line218" />
        <line
           x1="335.15053361930904"
           y1="7.5"
           x2="335.15053361930904"
           y2="0"
           style="stroke-width:3"
           id="line220" />
      </g>
      <g
         id="g240">
        <g
           transform="translate(78.17071991296078,12.0)"
           id="g226">
          <text
             x="-26.688"
             y="13.687999999999999"
             style="fill:rgb(16.1%,15.3%,14.1%);fill-opacity:1.0;font-family:helvetica;font-size:16.0px;font-weight:normal;stroke:none;vertical-align:baseline;white-space:pre"
             id="text224">200000</text>
        </g>
        <g
           transform="translate(163.83065781507685,12.0)"
           id="g230">
          <text
             x="-26.688"
             y="13.687999999999999"
             style="fill:rgb(16.1%,15.3%,14.1%);fill-opacity:1.0;font-family:helvetica;font-size:16.0px;font-weight:normal;stroke:none;vertical-align:baseline;white-space:pre"
             id="text228">300000</text>
        </g>
        <g
           transform="translate(249.49059571719295,12.0)"
           id="g234">
          <text
             x="-26.688"
             y="13.687999999999999"
             style="fill:rgb(16.1%,15.3%,14.1%);fill-opacity:1.0;font-family:helvetica;font-size:16.0px;font-weight:normal;stroke:none;vertical-align:baseline;white-space:pre"
             id="text232">400000</text>
        </g>
        <g
           transform="translate(335.15053361930904,12.0)"
           id="g238">
          <text
             x="-26.688"
             y="13.687999999999999"
             style="fill:rgb(16.1%,15.3%,14.1%);fill-opacity:1.0;font-family:helvetica;font-size:16.0px;font-weight:normal;stroke:none;vertical-align:baseline;white-space:pre"
             id="text236">500000</text>
        </g>
      </g>
      <g
         transform="translate(185.0,35.0)"
         id="g246">
        <text
           x="-38.2256"
           y="13.687999999999999"
           style="fill:rgb(16.1%,15.3%,14.1%);fill-opacity:1.0;font-family:helvetica;font-size:16.0px;font-weight:bold;stroke:none;vertical-align:baseline;white-space:pre"
           id="text242">Diploid N</text>
        <text
           x="31.998400000000004"
           y="15.927999999999999"
           style="fill:rgb(16.1%,15.3%,14.1%);fill-opacity:1.0;font-family:helvetica;font-size:11.2px;font-weight:bold;stroke:none;vertical-align:baseline;white-space:pre"
           id="text244">e</text>
      </g>
      <g
         class="toyplot-coordinates-Axis-coordinates"
         style="visibility:hidden"
         transform=""
         id="g252">
        <text
           x="0"
           y="-12.0"
           style="alignment-baseline:alphabetic;fill:rgb(43.9%,50.2%,56.5%);fill-opacity:1.0;font-size:10px;font-weight:normal;stroke:none;text-anchor:middle"
           id="text250" />
      </g>
    </g>
    <g
       class="toyplot-coordinates-Axis"
       id="t084b600e372947cab61bdabc1a48a228"
       transform="translate(65.0,185.0)rotate(-90.0)translate(0,-10.0)">
      <line
         x1="0"
         y1="0"
         x2="120.0"
         y2="0"
         style="stroke-width:3"
         id="line255" />
      <g
         id="g265">
        <line
           x1="0.0"
           y1="-7.5"
           x2="0.0"
           y2="0"
           style="stroke-width:3"
           id="line257" />
        <line
           x1="35.39823008849557"
           y1="-7.5"
           x2="35.39823008849557"
           y2="0"
           style="stroke-width:3"
           id="line259" />
        <line
           x1="70.79646017699115"
           y1="-7.5"
           x2="70.79646017699115"
           y2="0"
           style="stroke-width:3"
           id="line261" />
        <line
           x1="106.19469026548673"
           y1="-7.5"
           x2="106.19469026548673"
           y2="0"
           style="stroke-width:3"
           id="line263" />
      </g>
      <g
         id="g283">
        <g
           transform="translate(0.0,-12.0)"
           id="g269">
          <text
             x="-4.448"
             y="0.0"
             style="fill:rgb(16.1%,15.3%,14.1%);fill-opacity:1.0;font-family:helvetica;font-size:16.0px;font-weight:normal;stroke:none;vertical-align:baseline;white-space:pre"
             id="text267">0</text>
        </g>
        <g
           transform="translate(35.39823008849557,-12.0)"
           id="g273">
          <text
             x="-13.344"
             y="0.0"
             style="fill:rgb(16.1%,15.3%,14.1%);fill-opacity:1.0;font-family:helvetica;font-size:16.0px;font-weight:normal;stroke:none;vertical-align:baseline;white-space:pre"
             id="text271">200</text>
        </g>
        <g
           transform="translate(70.79646017699115,-12.0)"
           id="g277">
          <text
             x="-13.344"
             y="0.0"
             style="fill:rgb(16.1%,15.3%,14.1%);fill-opacity:1.0;font-family:helvetica;font-size:16.0px;font-weight:normal;stroke:none;vertical-align:baseline;white-space:pre"
             id="text275">400</text>
        </g>
        <g
           transform="translate(106.19469026548673,-12.0)"
           id="g281">
          <text
             x="-13.344"
             y="0.0"
             style="fill:rgb(16.1%,15.3%,14.1%);fill-opacity:1.0;font-family:helvetica;font-size:16.0px;font-weight:normal;stroke:none;vertical-align:baseline;white-space:pre"
             id="text279">600</text>
        </g>
      </g>
      <g
         transform="translate(60.0,-35.0)"
         id="g287">
        <text
           x="-65.352"
           y="0.0"
           style="fill:rgb(16.1%,15.3%,14.1%);fill-opacity:1.0;font-family:helvetica;font-size:16.0px;font-weight:bold;stroke:none;vertical-align:baseline;white-space:pre"
           id="text285">Posterior density</text>
      </g>
      <g
         class="toyplot-coordinates-Axis-coordinates"
         style="visibility:hidden"
         transform=""
         id="g293">
        <text
           x="0"
           y="12.0"
           style="alignment-baseline:hanging;fill:rgb(43.9%,50.2%,56.5%);fill-opacity:1.0;font-size:10px;font-weight:normal;stroke:none;text-anchor:middle"
           id="text291" />
      </g>
    </g>
  </g>
</svg>
