<svg class="toyplot-canvas-Canvas" xmlns:toyplot="http://www.sandia.gov/toyplot" xmlns:xlink="http://www.w3.org/1999/xlink" xmlns="http://www.w3.org/2000/svg" width="450.0px" height="225.0px" viewBox="0 0 450.0 225.0" preserveAspectRatio="xMidYMid meet" style="background-color:transparent;border-color:#292724;border-style:none;border-width:1.0;fill:rgb(16.1%,15.3%,14.1%);fill-opacity:1.0;font-family:Helvetica;font-size:12px;opacity:1.0;stroke:rgb(16.1%,15.3%,14.1%);stroke-opacity:1.0;stroke-width:1.0" id="t79a5a2939af240088ac7baa160c11eaa"><g class="toyplot-coordinates-Cartesian" id="t5d6e7b12b85d462e8983bc0d82b76dca"><clipPath id="tb87b3b4b64fc4458b4cd0f79b68ec250"><rect x="40.0" y="40.0" width="370.0" height="145.0" /></clipPath><g clip-path="url(#tb87b3b4b64fc4458b4cd0f79b68ec250)"><g class="toyplot-mark-FillBoundaries" style="stroke:none" id="tdcd62c702f13434ca99be2a47413bae4"><polygon points="50.0,175.0 53.96035573181499,175.0 57.92071146362998,175.0 61.881067195444956,175.0 65.84142292725994,175.0 69.80177865907496,175.0 73.7621343908899,175.0 77.72249012270491,175.0 81.6828458545199,175.0 85.64320158633487,175.0 89.60355731814985,175.0 93.56391304996484,175.0 97.52426878177985,175.0 101.48462451359481,175.0 105.4449802454098,175.0 109.40533597722478,175.0 113.36569170903977,175.0 117.32604744085478,175.0 121.28640317266974,175.0 125.24675890448475,175.0 129.2071146362997,175.0 133.1674703681147,175.0 137.12782609992968,175.0 141.0881818317447,175.0 145.04853756355965,175.0 149.0088932953746,175.0 152.96924902718965,175.0 156.9296047590046,175.0 160.8899604908196,175.0 164.8503162226346,175.0 168.81067195444956,175.0 172.77102768626457,175.0 176.73138341807953,175.0 180.69173914989452,175.0 184.65209488170947,175.0 188.6124506135245,175.0 192.5728063453395,175.0 196.53316207715446,175.0 200.49351780896944,175.0 204.4538735407844,175.0 204.4538735407844,174.6932515337423 200.49351780896944,174.84662576687117 196.53316207715446,174.84662576687117 192.5728063453395,174.5398773006135 188.6124506135245,174.5398773006135 184.65209488170947,173.46625766871165 180.69173914989452,173.46625766871168 176.73138341807953,171.16564417177912 172.77102768626457,167.79141104294484 168.81067195444956,168.25153374233125 164.8503162226346,161.19631901840498 160.8899604908196,158.89570552147248 156.9296047590046,149.07975460122682 152.96924902718965,145.7055214723928 149.0088932953746,131.13496932515312 145.04853756355965,122.85276073619661 141.0881818317447,104.9079754601227 137.12782609992968,93.86503067484662 133.1674703681147,79.4478527607362 129.2071146362997,58.28220858895705 125.24675890448475,51.38036809816025 121.28640317266974,58.12883435582752 117.32604744085478,59.662576687117244 113.36569170903977,50.0 109.40533597722478,59.8159509202454 105.4449802454098,74.69325153374292 101.48462451359481,92.7914110429443 97.52426878177985,115.03067484662613 93.56391304996484,130.82822085889572 89.60355731814985,141.1042944785276 85.64320158633487,151.3803680981595 81.6828458545199,161.80981595092024 77.72249012270491,167.79141104294484 73.7621343908899,171.9325153374233 69.80177865907496,173.31288343558282 65.84142292725994,174.23312883435582 61.881067195444956,174.6932515337423 57.92071146362998,174.84662576687117 53.96035573181499,175.0 50.0,174.84662576687117" style="fill:rgb(40%,76.1%,64.7%);fill-opacity:1.0;opacity:0.3;stroke:none" /></g><g class="toyplot-mark-Plot" style="fill:none;stroke-width:3" id="t6796cb1d51114ab785c6576225754a91"><g class="toyplot-Series"><path d="M 50.0 174.84662576687117 L 53.96035573181499 175.0 L 57.92071146362998 174.84662576687117 L 61.881067195444956 174.6932515337423 L 65.84142292725994 174.23312883435582 L 69.80177865907496 173.31288343558282 L 73.7621343908899 171.9325153374233 L 77.72249012270491 167.79141104294484 L 81.6828458545199 161.80981595092024 L 85.64320158633487 151.3803680981595 L 89.60355731814985 141.1042944785276 L 93.56391304996484 130.82822085889572 L 97.52426878177985 115.03067484662613 L 101.48462451359481 92.7914110429443 L 105.4449802454098 74.69325153374292 L 109.40533597722478 59.8159509202454 L 113.36569170903977 50.0 L 117.32604744085478 59.662576687117244 L 121.28640317266974 58.12883435582752 L 125.24675890448475 51.38036809816025 L 129.2071146362997 58.28220858895705 L 133.1674703681147 79.4478527607362 L 137.12782609992968 93.86503067484662 L 141.0881818317447 104.9079754601227 L 145.04853756355965 122.85276073619661 L 149.0088932953746 131.13496932515312 L 152.96924902718965 145.7055214723928 L 156.9296047590046 149.07975460122682 L 160.8899604908196 158.89570552147248 L 164.8503162226346 161.19631901840498 L 168.81067195444956 168.25153374233125 L 172.77102768626457 167.79141104294484 L 176.73138341807953 171.16564417177912 L 180.69173914989452 173.46625766871168 L 184.65209488170947 173.46625766871165 L 188.6124506135245 174.5398773006135 L 192.5728063453395 174.5398773006135 L 196.53316207715446 174.84662576687117 L 200.49351780896944 174.84662576687117 L 204.4538735407844 174.6932515337423" style="stroke:rgb(40%,76.1%,64.7%);stroke-opacity:1.0;stroke-width:3" /></g></g><g class="toyplot-mark-FillBoundaries" style="stroke:none" id="t84f20c93bb00425b9a015647fbc2f7b3"><polygon points="132.22992648394205,175.0 139.09582580486662,175.0 145.9617251257912,175.0 152.82762444671573,175.0 159.6935237676403,175.0 166.55942308856487,175.0 173.42532240948944,175.0 180.291221730414,175.0 187.15712105133855,175.0 194.02302037226312,175.0 200.88891969318763,175.0 207.7548190141122,175.0 214.62071833503677,175.0 221.48661765596134,175.0 228.3525169768859,175.0 235.21841629781048,175.0 242.08431561873502,175.0 248.9502149396596,175.0 255.81611426058413,175.0 262.6820135815087,175.0 269.54791290243327,175.0 276.4138122233578,175.0 283.27971154428235,175.0 290.14561086520695,175.0 297.0115101861315,175.0 303.8774095070561,175.0 310.7433088279806,175.0 317.6092081489052,175.0 324.47510746982977,175.0 331.34100679075436,175.0 338.2069061116789,175.0 345.07280543260345,175.0 351.938704753528,175.0 358.8046040744526,175.0 365.6705033953771,175.0 372.5364027163017,175.0 379.40230203722626,175.0 386.26820135815086,175.0 393.1341006790754,175.0 400.0,175.0 400.0,174.82306279341051 393.1341006790754,174.91153139670527 386.26820135815086,175.0 379.40230203722626,175.0 372.5364027163017,174.82306279341051 365.6705033953771,174.91153139670527 358.8046040744526,174.91153139670527 351.938704753528,174.82306279341051 345.07280543260345,174.73459419011579 338.2069061116789,174.46918838023154 331.34100679075436,173.76143955387363 324.47510746982977,173.84990815716836 317.6092081489052,173.05369072751571 310.7433088279806,172.1690046945683 303.8774095070561,170.222695422084 297.0115101861315,168.0994489430102 290.14561086520695,163.58755017497842 283.27971154428235,161.28736648931516 276.4138122233578,154.91762705209382 269.54791290243327,148.636356218167 262.6820135815087,139.87796449198785 255.81611426058413,135.98534594701925 248.9502149396596,130.2348867328611 242.08431561873502,118.73396830454479 235.21841629781048,104.93286619056518 228.3525169768859,108.56007892564958 221.48661765596134,99.53628138958601 214.62071833503677,100.77484183571238 207.7548190141122,102.72115110819666 200.88891969318763,109.53323356189128 194.02302037226312,124.48442751870294 187.15712105133855,128.81938908014524 180.291221730414,139.7010272853985 173.42532240948944,150.93653990383046 166.55942308856487,158.36790258058866 159.6935237676403,164.73764201781006 152.82762444671573,168.71872916607342 145.9617251257912,172.52287910774726 139.09582580486662,173.58450234728414 132.22992648394205,174.5576569835263" style="fill:rgb(98.8%,55.3%,38.4%);fill-opacity:1.0;opacity:0.3;stroke:none" /></g><g class="toyplot-mark-Plot" style="fill:none;stroke-width:3" id="t9606c0f2446d40569ed1b54f5fef1542"><g class="toyplot-Series"><path d="M 132.22992648394205 174.5576569835263 L 139.09582580486662 173.58450234728414 L 145.9617251257912 172.52287910774726 L 152.82762444671573 168.71872916607342 L 159.6935237676403 164.73764201781006 L 166.55942308856487 158.36790258058866 L 173.42532240948944 150.93653990383046 L 180.291221730414 139.7010272853985 L 187.15712105133855 128.81938908014524 L 194.02302037226312 124.48442751870294 L 200.88891969318763 109.53323356189128 L 207.7548190141122 102.72115110819666 L 214.62071833503677 100.77484183571238 L 221.48661765596134 99.53628138958601 L 228.3525169768859 108.56007892564958 L 235.21841629781048 104.93286619056518 L 242.08431561873502 118.73396830454479 L 248.9502149396596 130.2348867328611 L 255.81611426058413 135.98534594701925 L 262.6820135815087 139.87796449198785 L 269.54791290243327 148.636356218167 L 276.4138122233578 154.91762705209382 L 283.27971154428235 161.28736648931516 L 290.14561086520695 163.58755017497842 L 297.0115101861315 168.0994489430102 L 303.8774095070561 170.222695422084 L 310.7433088279806 172.1690046945683 L 317.6092081489052 173.05369072751571 L 324.47510746982977 173.84990815716836 L 331.34100679075436 173.76143955387363 L 338.2069061116789 174.46918838023154 L 345.07280543260345 174.73459419011579 L 351.938704753528 174.82306279341051 L 358.8046040744526 174.91153139670527 L 365.6705033953771 174.91153139670527 L 372.5364027163017 174.82306279341051 L 379.40230203722626 175.0 L 386.26820135815086 175.0 L 393.1341006790754 174.91153139670527 L 400.0 174.82306279341051" style="stroke:rgb(98.8%,55.3%,38.4%);stroke-opacity:1.0;stroke-width:3" /></g></g><g class="toyplot-mark-FillBoundaries" style="stroke:none" id="t8047f13f16144662aa6d266a9fc5afcb"><polygon points="200.77908346336582,175.0 205.2281932155156,175.0 209.6773029676653,175.0 214.12641271981502,175.0 218.5755224719648,175.0 223.0246322241145,175.0 227.47374197626428,175.0 231.92285172841397,175.0 236.3719614805637,175.0 240.82107123271348,175.0 245.2701809848632,175.0 249.71929073701295,175.0 254.1684004891627,175.0 258.6175102413124,175.0 263.06661999346215,175.0 267.5157297456119,175.0 271.9648394977616,175.0 276.41394924991135,175.0 280.86305900206105,175.0 285.3121687542108,175.0 289.76127850636055,175.0 294.21038825851025,175.0 298.65949801066,175.0 303.10860776280975,175.0 307.5577175149595,175.0 312.00682726710926,175.0 316.45593701925895,175.0 320.9050467714087,175.0 325.35415652355846,175.0 329.80326627570815,175.0 334.25237602785796,175.0 338.70148578000766,175.0 343.1505955321574,175.0 347.59970528430716,175.0 352.04881503645686,175.0 356.49792478860655,175.0 360.94703454075636,175.0 365.39614429290606,175.0 369.84525404505575,175.0 374.29436379720556,175.0 374.29436379720556,174.8634745921943 369.84525404505575,174.59042377658292 365.39614429290606,174.59042377658292 360.94703454075636,174.72694918438862 356.49792478860655,174.8634745921943 352.04881503645686,174.59042377658292 347.59970528430716,173.36169510633175 343.1505955321574,173.36169510633172 338.70148578000766,171.45033939705212 334.25237602785796,170.08508531899525 329.80326627570815,167.35457716288144 325.35415652355846,162.16661166626525 320.9050467714087,155.34034127598105 316.45593701925895,152.20025689645 312.00682726710926,140.1860210095494 307.5577175149595,135.81720795976779 303.10860776280975,121.07246391675358 298.65949801066,112.33483781718894 294.21038825851025,97.99966999759162 289.76127850636055,92.40212827755929 285.3121687542108,73.01552036915064 280.86305900206105,72.74246955353925 276.41394924991135,75.74602852526546 271.9648394977616,68.78323272717428 267.5157297456119,77.93043505015541 263.06661999346215,83.93755299360669 258.6175102413124,93.49433154000391 254.1684004891627,115.61144760452544 249.71929073701295,118.47848116844551 245.2701809848632,128.0352597148431 240.82107123271348,142.91652916566355 236.3719614805637,153.15593475108983 231.92285172841397,159.02652728673445 227.47374197626428,163.66839115212795 223.0246322241145,168.31025501752129 218.5755224719648,170.22161072680095 214.12641271981502,173.22516969852603 209.6773029676653,174.18084755316588 205.2281932155156,174.45389836877726 200.77908346336582,174.45389836877726" style="fill:rgb(55.3%,62.7%,79.6%);fill-opacity:1.0;opacity:0.3;stroke:none" /></g><g class="toyplot-mark-Plot" style="fill:none;stroke-width:3" id="t834562e5c7f9494983548d5cd29a6f5f"><g class="toyplot-Series"><path d="M 200.77908346336582 174.45389836877726 L 205.2281932155156 174.45389836877726 L 209.6773029676653 174.18084755316588 L 214.12641271981502 173.22516969852603 L 218.5755224719648 170.22161072680095 L 223.0246322241145 168.31025501752129 L 227.47374197626428 163.66839115212795 L 231.92285172841397 159.02652728673445 L 236.3719614805637 153.15593475108983 L 240.82107123271348 142.91652916566355 L 245.2701809848632 128.0352597148431 L 249.71929073701295 118.47848116844551 L 254.1684004891627 115.61144760452544 L 258.6175102413124 93.49433154000391 L 263.06661999346215 83.93755299360669 L 267.5157297456119 77.93043505015541 L 271.9648394977616 68.78323272717428 L 276.41394924991135 75.74602852526546 L 280.86305900206105 72.74246955353925 L 285.3121687542108 73.01552036915064 L 289.76127850636055 92.40212827755929 L 294.21038825851025 97.99966999759162 L 298.65949801066 112.33483781718894 L 303.10860776280975 121.07246391675358 L 307.5577175149595 135.81720795976779 L 312.00682726710926 140.1860210095494 L 316.45593701925895 152.20025689645 L 320.9050467714087 155.34034127598105 L 325.35415652355846 162.16661166626525 L 329.80326627570815 167.35457716288144 L 334.25237602785796 170.08508531899525 L 338.70148578000766 171.45033939705212 L 343.1505955321574 173.36169510633172 L 347.59970528430716 173.36169510633175 L 352.04881503645686 174.59042377658292 L 356.49792478860655 174.8634745921943 L 360.94703454075636 174.72694918438862 L 365.39614429290606 174.59042377658292 L 369.84525404505575 174.59042377658292 L 374.29436379720556 174.8634745921943" style="stroke:rgb(55.3%,62.7%,79.6%);stroke-opacity:1.0;stroke-width:3" /></g></g><g class="toyplot-mark-AxisLines" style="stroke:rgb(40%,76.1%,64.7%);stroke-dasharray:4,4;stroke-opacity:1.0;stroke-width:3" id="tc45f494746a74eee88b450d8e065377d"><g class="toyplot-Series"><line class="toyplot-Datum" x1="123.32054707328498" x2="123.32054707328498" y1="50.0" y2="175.0" style="opacity:1.0;stroke:rgb(40%,76.1%,64.7%);stroke-dasharray:4,4;stroke-opacity:1.0;stroke-width:3" /></g></g><g class="toyplot-mark-AxisLines" style="stroke:rgb(98.8%,55.3%,38.4%);stroke-dasharray:4,4;stroke-opacity:1.0;stroke-width:3" id="t677f5bf903a34b5eb3255619ff80a422"><g class="toyplot-Series"><line class="toyplot-Datum" x1="204.53359310288533" x2="204.53359310288533" y1="50.0" y2="175.0" style="opacity:1.0;stroke:rgb(98.8%,55.3%,38.4%);stroke-dasharray:4,4;stroke-opacity:1.0;stroke-width:3" /></g></g><g class="toyplot-mark-AxisLines" style="stroke:rgb(55.3%,62.7%,79.6%);stroke-dasharray:4,4;stroke-opacity:1.0;stroke-width:3" id="tc2e2615356ef44f2ad13781da8a8832e"><g class="toyplot-Series"><line class="toyplot-Datum" x1="285.74663913248577" x2="285.74663913248577" y1="50.0" y2="175.0" style="opacity:1.0;stroke:rgb(55.3%,62.7%,79.6%);stroke-dasharray:4,4;stroke-opacity:1.0;stroke-width:3" /></g></g></g><g class="toyplot-coordinates-Axis" id="t983d94cdb2284c76b0da96fefd5118a5" transform="translate(50.0,175.0)translate(0,10.0)"><line x1="0" y1="0" x2="350.0" y2="0" style="stroke-width:3" /><g><line x1="73.32054707328498" y1="7.5" x2="73.32054707328498" y2="0" style="stroke-width:3" /><line x1="154.53359310288536" y1="7.5" x2="154.53359310288536" y2="0" style="stroke-width:3" /><line x1="235.74663913248577" y1="7.5" x2="235.74663913248577" y2="0" style="stroke-width:3" /><line x1="316.95968516208615" y1="7.5" x2="316.95968516208615" y2="0" style="stroke-width:3" /></g><g><g transform="translate(73.32054707328498,12.0)"><text x="-26.688" y="13.687999999999999" style="fill:rgb(16.1%,15.3%,14.1%);fill-opacity:1.0;font-family:helvetica;font-size:16.0px;font-weight:normal;stroke:none;vertical-align:baseline;white-space:pre">200000</text></g><g transform="translate(154.53359310288536,12.0)"><text x="-26.688" y="13.687999999999999" style="fill:rgb(16.1%,15.3%,14.1%);fill-opacity:1.0;font-family:helvetica;font-size:16.0px;font-weight:normal;stroke:none;vertical-align:baseline;white-space:pre">300000</text></g><g transform="translate(235.74663913248577,12.0)"><text x="-26.688" y="13.687999999999999" style="fill:rgb(16.1%,15.3%,14.1%);fill-opacity:1.0;font-family:helvetica;font-size:16.0px;font-weight:normal;stroke:none;vertical-align:baseline;white-space:pre">400000</text></g><g transform="translate(316.95968516208615,12.0)"><text x="-26.688" y="13.687999999999999" style="fill:rgb(16.1%,15.3%,14.1%);fill-opacity:1.0;font-family:helvetica;font-size:16.0px;font-weight:normal;stroke:none;vertical-align:baseline;white-space:pre">500000</text></g></g><g class="toyplot-coordinates-Axis-coordinates" style="visibility:hidden" transform=""><line x1="0" x2="0" y1="-6.0" y2="9.0" style="stroke:rgb(43.9%,50.2%,56.5%);stroke-opacity:1.0;stroke-width:1.0" /><text x="0" y="-12.0" style="alignment-baseline:alphabetic;fill:rgb(43.9%,50.2%,56.5%);fill-opacity:1.0;font-size:10px;font-weight:normal;stroke:none;text-anchor:middle" /></g></g><g class="toyplot-coordinates-Axis" id="ta1a7d4aa9b3546dbbe50c6988fbbc31d" transform="translate(50.0,175.0)rotate(-90.0)translate(0,-10.0)"><line x1="0" y1="0" x2="125.0" y2="0" style="stroke-width:3" /><g><line x1="0.0" y1="-7.5" x2="0.0" y2="0" style="stroke-width:3" /><line x1="37.396486955009436" y1="-7.5" x2="37.396486955009436" y2="0" style="stroke-width:3" /><line x1="74.79297391001887" y1="-7.5" x2="74.79297391001887" y2="0" style="stroke-width:3" /><line x1="112.18946086502832" y1="-7.5" x2="112.18946086502832" y2="0" style="stroke-width:3" /></g><g class="toyplot-coordinates-Axis-coordinates" style="visibility:hidden" transform=""><line x1="0" x2="0" y1="6.0" y2="-9.0" style="stroke:rgb(43.9%,50.2%,56.5%);stroke-opacity:1.0;stroke-width:1.0" /><text x="0" y="12.0" style="alignment-baseline:hanging;fill:rgb(43.9%,50.2%,56.5%);fill-opacity:1.0;font-size:10px;font-weight:normal;stroke:none;text-anchor:middle" /></g></g></g></svg>