<svg class="toyplot-canvas-Canvas" xmlns:toyplot="http://www.sandia.gov/toyplot" xmlns:xlink="http://www.w3.org/1999/xlink" xmlns="http://www.w3.org/2000/svg" width="350.0px" height="300.0px" viewBox="0 0 350.0 300.0" preserveAspectRatio="xMidYMid meet" style="background-color:transparent;border-color:#292724;border-style:none;border-width:1.0;fill:rgb(16.1%,15.3%,14.1%);fill-opacity:1.0;font-family:Helvetica;font-size:12px;opacity:1.0;stroke:rgb(16.1%,15.3%,14.1%);stroke-opacity:1.0;stroke-width:1.0" id="t79863823b8534fb9a4b1f33d3ca3a704"><g class="toyplot-coordinates-Cartesian" id="tb1eb5b21ccec41f19c2aa135fb30c75a"><clipPath id="t1dab42c1474443dfb11c181020a778ce"><rect x="55.0" y="55.0" width="240.0" height="190.0" /></clipPath><g clip-path="url(#t1dab42c1474443dfb11c181020a778ce)"><g class="toyplot-mark-AxisLines" style="stroke:rgb(50.2%,50.2%,50.2%);stroke-dasharray:6,6;stroke-opacity:0.7;stroke-width:2" id="t42e9001f23cf427aaa28eae74218a738"><g class="toyplot-Series"><line class="toyplot-Datum" y1="150.0" y2="150.0" x1="65.0" x2="285.0" style="opacity:1.0;stroke:rgb(50.2%,50.2%,50.2%);stroke-dasharray:6,6;stroke-opacity:0.7;stroke-width:2" /></g></g><g class="toyplot-mark-FillBoundaries" style="stroke:none" id="t26c0b87a87444a1ebbb0451dbcf996c7"><polygon points="87.0,141.6600454326679 109.0,141.3036456590839 131.0,138.59961263244722 153.0,136.75745794889195 175.0,138.27502867126327 197.0,135.37901805746233 219.0,146.59551611518012 241.0,147.07821208493954 263.0,143.22962918338916 285.0,147.31192255212062 285.0,136.29159597860325 263.0,132.06005679080317 241.0,135.9818671714463 219.0,135.40960024988073 197.0,123.9695212267194 175.0,126.8580788823497 153.0,125.32157730028146 131.0,127.03841885865053 109.0,129.74151209843083 87.0,130.04280078006803" style="fill:rgb(40%,76.1%,64.7%);fill-opacity:1.0;opacity:0.33;stroke:none" /></g><g class="toyplot-mark-FillBoundaries" style="stroke:none" id="t39942c922e034fc5a4c00bf562e5eeac"><polygon points="87.0,141.6276296888679 109.0,152.04832966254847 131.0,150.57345483097026 153.0,155.88208561448317 175.0,144.8186038981257 197.0,151.28105172345948 219.0,149.87662504315938 241.0,157.42386408969537 263.0,151.61198000302392 285.0,155.0495564491141 285.0,144.10604524051564 263.0,140.69672288556166 241.0,146.4823272755192 219.0,138.80212120958086 197.0,140.246042702334 175.0,133.6236443583111 153.0,144.76411960827386 131.0,139.2433790068389 109.0,140.56068738565 87.0,130.13010486296042" style="fill:rgb(0%,0%,0%);fill-opacity:1.0;opacity:0.33;stroke:none" /></g><g class="toyplot-mark-Plot" style="fill:none" id="t2ab1b0e55090417b875d82e60a499acf"><g class="toyplot-Series"><path d="M 87.0 135.85142310636797 L 109.0 135.52257887875737 L 131.0 132.81901574554888 L 153.0 131.03951762458672 L 175.0 132.56655377680647 L 197.0 129.67426964209088 L 219.0 141.0025581825304 L 241.0 141.5300396281929 L 263.0 137.64484298709618 L 285.0 141.80175926536194" style="stroke:rgb(10.6%,62%,46.7%);stroke-opacity:0.7;stroke-width:2.0" /><g style="fill:rgb(10.6%,62%,46.7%);fill-opacity:1.0;opacity:1.0;stroke:rgb(10.6%,62%,46.7%);stroke-opacity:1.0" class="toyplot-Datum" transform="translate(87.0, 135.85142310636797)"><circle r="3.0" /></g><g style="fill:rgb(10.6%,62%,46.7%);fill-opacity:1.0;opacity:1.0;stroke:rgb(10.6%,62%,46.7%);stroke-opacity:1.0" class="toyplot-Datum" transform="translate(109.0, 135.52257887875737)"><circle r="3.0" /></g><g style="fill:rgb(10.6%,62%,46.7%);fill-opacity:1.0;opacity:1.0;stroke:rgb(10.6%,62%,46.7%);stroke-opacity:1.0" class="toyplot-Datum" transform="translate(131.0, 132.81901574554888)"><circle r="3.0" /></g><g style="fill:rgb(10.6%,62%,46.7%);fill-opacity:1.0;opacity:1.0;stroke:rgb(10.6%,62%,46.7%);stroke-opacity:1.0" class="toyplot-Datum" transform="translate(153.0, 131.03951762458672)"><circle r="3.0" /></g><g style="fill:rgb(10.6%,62%,46.7%);fill-opacity:1.0;opacity:1.0;stroke:rgb(10.6%,62%,46.7%);stroke-opacity:1.0" class="toyplot-Datum" transform="translate(175.0, 132.56655377680647)"><circle r="3.0" /></g><g style="fill:rgb(10.6%,62%,46.7%);fill-opacity:1.0;opacity:1.0;stroke:rgb(10.6%,62%,46.7%);stroke-opacity:1.0" class="toyplot-Datum" transform="translate(197.0, 129.67426964209088)"><circle r="3.0" /></g><g style="fill:rgb(10.6%,62%,46.7%);fill-opacity:1.0;opacity:1.0;stroke:rgb(10.6%,62%,46.7%);stroke-opacity:1.0" class="toyplot-Datum" transform="translate(219.0, 141.0025581825304)"><circle r="3.0" /></g><g style="fill:rgb(10.6%,62%,46.7%);fill-opacity:1.0;opacity:1.0;stroke:rgb(10.6%,62%,46.7%);stroke-opacity:1.0" class="toyplot-Datum" transform="translate(241.0, 141.5300396281929)"><circle r="3.0" /></g><g style="fill:rgb(10.6%,62%,46.7%);fill-opacity:1.0;opacity:1.0;stroke:rgb(10.6%,62%,46.7%);stroke-opacity:1.0" class="toyplot-Datum" transform="translate(263.0, 137.64484298709618)"><circle r="3.0" /></g><g style="fill:rgb(10.6%,62%,46.7%);fill-opacity:1.0;opacity:1.0;stroke:rgb(10.6%,62%,46.7%);stroke-opacity:1.0" class="toyplot-Datum" transform="translate(285.0, 141.80175926536194)"><circle r="3.0" /></g></g></g><g class="toyplot-mark-Plot" style="fill:none" id="tf9b24b12d8724b548d32ddcb880146c6"><g class="toyplot-Series"><path d="M 87.0 135.87886727591416 L 109.0 146.30450852409925 L 131.0 144.90841691890458 L 153.0 150.3231026113785 L 175.0 139.2211241282184 L 197.0 145.76354721289675 L 219.0 144.33937312637013 L 241.0 151.95309568260726 L 263.0 146.1543514442928 L 285.0 149.57780084481487" style="stroke:rgb(0%,0%,0%);stroke-opacity:0.8;stroke-width:2.0" /><g style="fill:rgb(0%,0%,0%);fill-opacity:1.0;opacity:1.0;stroke:none" class="toyplot-Datum" transform="translate(87.0, 135.87886727591416)"><rect x="-3.0" y="-3.0" width="6.0" height="6.0" /></g><g style="fill:rgb(0%,0%,0%);fill-opacity:1.0;opacity:1.0;stroke:none" class="toyplot-Datum" transform="translate(109.0, 146.30450852409925)"><rect x="-3.0" y="-3.0" width="6.0" height="6.0" /></g><g style="fill:rgb(0%,0%,0%);fill-opacity:1.0;opacity:1.0;stroke:none" class="toyplot-Datum" transform="translate(131.0, 144.90841691890458)"><rect x="-3.0" y="-3.0" width="6.0" height="6.0" /></g><g style="fill:rgb(0%,0%,0%);fill-opacity:1.0;opacity:1.0;stroke:none" class="toyplot-Datum" transform="translate(153.0, 150.3231026113785)"><rect x="-3.0" y="-3.0" width="6.0" height="6.0" /></g><g style="fill:rgb(0%,0%,0%);fill-opacity:1.0;opacity:1.0;stroke:none" class="toyplot-Datum" transform="translate(175.0, 139.2211241282184)"><rect x="-3.0" y="-3.0" width="6.0" height="6.0" /></g><g style="fill:rgb(0%,0%,0%);fill-opacity:1.0;opacity:1.0;stroke:none" class="toyplot-Datum" transform="translate(197.0, 145.76354721289675)"><rect x="-3.0" y="-3.0" width="6.0" height="6.0" /></g><g style="fill:rgb(0%,0%,0%);fill-opacity:1.0;opacity:1.0;stroke:none" class="toyplot-Datum" transform="translate(219.0, 144.33937312637013)"><rect x="-3.0" y="-3.0" width="6.0" height="6.0" /></g><g style="fill:rgb(0%,0%,0%);fill-opacity:1.0;opacity:1.0;stroke:none" class="toyplot-Datum" transform="translate(241.0, 151.95309568260726)"><rect x="-3.0" y="-3.0" width="6.0" height="6.0" /></g><g style="fill:rgb(0%,0%,0%);fill-opacity:1.0;opacity:1.0;stroke:none" class="toyplot-Datum" transform="translate(263.0, 146.1543514442928)"><rect x="-3.0" y="-3.0" width="6.0" height="6.0" /></g><g style="fill:rgb(0%,0%,0%);fill-opacity:1.0;opacity:1.0;stroke:none" class="toyplot-Datum" transform="translate(285.0, 149.57780084481487)"><rect x="-3.0" y="-3.0" width="6.0" height="6.0" /></g></g></g></g><g class="toyplot-coordinates-Axis" id="t3aa467f723ce45cc9a14d8bb4209ca56" transform="translate(65.0,235.0)translate(0,10.0)"><line x1="0" y1="0" x2="220.0" y2="0" style="stroke-width:3" /><g><line x1="22.0" y1="7.5" x2="22.0" y2="0" style="stroke-width:3" /><line x1="88.0" y1="7.5" x2="88.0" y2="0" style="stroke-width:3" /><line x1="154.0" y1="7.5" x2="154.0" y2="0" style="stroke-width:3" /><line x1="220.0" y1="7.5" x2="220.0" y2="0" style="stroke-width:3" /></g><g><g transform="translate(22.0,12.0)"><text x="-22.24" y="13.687999999999999" style="fill:rgb(16.1%,15.3%,14.1%);fill-opacity:1.0;font-family:helvetica;font-size:16.0px;font-weight:normal;stroke:none;vertical-align:baseline;white-space:pre">50000</text></g><g transform="translate(88.0,12.0)"><text x="-26.688" y="13.687999999999999" style="fill:rgb(16.1%,15.3%,14.1%);fill-opacity:1.0;font-family:helvetica;font-size:16.0px;font-weight:normal;stroke:none;vertical-align:baseline;white-space:pre">200000</text></g><g transform="translate(154.0,12.0)"><text x="-26.688" y="13.687999999999999" style="fill:rgb(16.1%,15.3%,14.1%);fill-opacity:1.0;font-family:helvetica;font-size:16.0px;font-weight:normal;stroke:none;vertical-align:baseline;white-space:pre">350000</text></g><g transform="translate(220.0,12.0)"><text x="-26.688" y="13.687999999999999" style="fill:rgb(16.1%,15.3%,14.1%);fill-opacity:1.0;font-family:helvetica;font-size:16.0px;font-weight:normal;stroke:none;vertical-align:baseline;white-space:pre">500000</text></g></g><g transform="translate(110.0,35.0)"><text x="-42.665600000000005" y="13.687999999999999" style="fill:rgb(16.1%,15.3%,14.1%);fill-opacity:1.0;font-family:helvetica;font-size:16.0px;font-weight:bold;stroke:none;vertical-align:baseline;white-space:pre">N</text><text x="-31.113600000000005" y="15.927999999999999" style="fill:rgb(16.1%,15.3%,14.1%);fill-opacity:1.0;font-family:helvetica;font-size:11.2px;font-weight:bold;stroke:none;vertical-align:baseline;white-space:pre">e</text><text x="-24.886400000000005" y="13.687999999999999" style="fill:rgb(16.1%,15.3%,14.1%);fill-opacity:1.0;font-family:helvetica;font-size:16.0px;font-weight:bold;stroke:none;vertical-align:baseline;white-space:pre"> (diploid)</text></g><g class="toyplot-coordinates-Axis-coordinates" style="visibility:hidden" transform=""><line x1="0" x2="0" y1="-6.0" y2="9.0" style="stroke:rgb(43.9%,50.2%,56.5%);stroke-opacity:1.0;stroke-width:1.0" /><text x="0" y="-12.0" style="alignment-baseline:alphabetic;fill:rgb(43.9%,50.2%,56.5%);fill-opacity:1.0;font-size:10px;font-weight:normal;stroke:none;text-anchor:middle" /></g></g><g class="toyplot-coordinates-Axis" id="tfb480b450897478f9705e7509fc695ec" transform="translate(65.0,235.0)rotate(-90.0)translate(0,-10.0)"><line x1="0" y1="0" x2="170.0" y2="0" style="stroke-width:3" /><g><line x1="0.0" y1="-7.5" x2="0.0" y2="0" style="stroke-width:3" /><line x1="42.5" y1="-7.5" x2="42.5" y2="0" style="stroke-width:3" /><line x1="85.0" y1="-7.5" x2="85.0" y2="0" style="stroke-width:3" /><line x1="127.5" y1="-7.5" x2="127.5" y2="0" style="stroke-width:3" /><line x1="170.0" y1="-7.5" x2="170.0" y2="0" style="stroke-width:3" /></g><g><g transform="translate(0.0,-12.0)"><text x="-11.56" y="0.0" style="fill:rgb(16.1%,15.3%,14.1%);fill-opacity:1.0;font-family:helvetica;font-size:16.0px;font-weight:normal;stroke:none;vertical-align:baseline;white-space:pre">-10</text></g><g transform="translate(42.5,-12.0)"><text x="-7.111999999999999" y="0.0" style="fill:rgb(16.1%,15.3%,14.1%);fill-opacity:1.0;font-family:helvetica;font-size:16.0px;font-weight:normal;stroke:none;vertical-align:baseline;white-space:pre">-5</text></g><g transform="translate(85.0,-12.0)"><text x="-4.448" y="0.0" style="fill:rgb(16.1%,15.3%,14.1%);fill-opacity:1.0;font-family:helvetica;font-size:16.0px;font-weight:normal;stroke:none;vertical-align:baseline;white-space:pre">0</text></g><g transform="translate(127.5,-12.0)"><text x="-4.448" y="0.0" style="fill:rgb(16.1%,15.3%,14.1%);fill-opacity:1.0;font-family:helvetica;font-size:16.0px;font-weight:normal;stroke:none;vertical-align:baseline;white-space:pre">5</text></g><g transform="translate(170.0,-12.0)"><text x="-8.896" y="0.0" style="fill:rgb(16.1%,15.3%,14.1%);fill-opacity:1.0;font-family:helvetica;font-size:16.0px;font-weight:normal;stroke:none;vertical-align:baseline;white-space:pre">10</text></g></g><g transform="translate(85.0,-35.0)"><text x="-72.464" y="0.0" style="fill:rgb(16.1%,15.3%,14.1%);fill-opacity:1.0;font-family:helvetica;font-size:16.0px;font-weight:bold;stroke:none;vertical-align:baseline;white-space:pre">Mean percent error</text></g><g class="toyplot-coordinates-Axis-coordinates" style="visibility:hidden" transform=""><line x1="0" x2="0" y1="6.0" y2="-9.0" style="stroke:rgb(43.9%,50.2%,56.5%);stroke-opacity:1.0;stroke-width:1.0" /><text x="0" y="12.0" style="alignment-baseline:hanging;fill:rgb(43.9%,50.2%,56.5%);fill-opacity:1.0;font-size:10px;font-weight:normal;stroke:none;text-anchor:middle" /></g></g></g><g class="toyplot-coordinates-Cartesian" id="t9dab7d163bba451d8e57fbde85c543cd"><clipPath id="t9939dd51c2084a409109459563666259"><rect x="55.0" y="55.0" width="240.0" height="190.0" /></clipPath><g clip-path="url(#t9939dd51c2084a409109459563666259)" /><g class="toyplot-coordinates-Axis" id="t83bc6443ef244813822965a09bc919fe" transform="translate(65.0,65.0)translate(0,-10.0)"><line x1="0" y1="0" x2="220.0" y2="0" style="stroke-width:3" /><g><line x1="22.000197999802" y1="-7.5" x2="22.000197999802" y2="0" style="stroke-width:3" /><line x1="88.000131999868" y1="-7.5" x2="88.000131999868" y2="0" style="stroke-width:3" /><line x1="154.000065999934" y1="-7.5" x2="154.000065999934" y2="0" style="stroke-width:3" /><line x1="220.0" y1="-7.5" x2="220.0" y2="0" style="stroke-width:3" /></g><g><g transform="translate(22.000197999802,-12.0)"><text x="-15.568" y="0.0" style="fill:rgb(16.1%,15.3%,14.1%);fill-opacity:1.0;font-family:helvetica;font-size:16.0px;font-weight:normal;stroke:none;vertical-align:baseline;white-space:pre">10.0</text></g><g transform="translate(88.000131999868,-12.0)"><text x="-11.12" y="0.0" style="fill:rgb(16.1%,15.3%,14.1%);fill-opacity:1.0;font-family:helvetica;font-size:16.0px;font-weight:normal;stroke:none;vertical-align:baseline;white-space:pre">2.5</text></g><g transform="translate(154.000065999934,-12.0)"><text x="-11.12" y="0.0" style="fill:rgb(16.1%,15.3%,14.1%);fill-opacity:1.0;font-family:helvetica;font-size:16.0px;font-weight:normal;stroke:none;vertical-align:baseline;white-space:pre">1.4</text></g><g transform="translate(220.0,-12.0)"><text x="-11.12" y="0.0" style="fill:rgb(16.1%,15.3%,14.1%);fill-opacity:1.0;font-family:helvetica;font-size:16.0px;font-weight:normal;stroke:none;vertical-align:baseline;white-space:pre">1.0</text></g></g><g transform="translate(110.0,-35.0)"><text x="-121.36" y="0.0" style="fill:rgb(16.1%,15.3%,14.1%);fill-opacity:1.0;font-family:helvetica;font-size:16.0px;font-weight:bold;stroke:none;vertical-align:baseline;white-space:pre">Sptree edge lengths (coal units)</text></g><g class="toyplot-coordinates-Axis-coordinates" style="visibility:hidden" transform=""><line x1="0" x2="0" y1="6.0" y2="-9.0" style="stroke:rgb(43.9%,50.2%,56.5%);stroke-opacity:1.0;stroke-width:1.0" /><text x="0" y="12.0" style="alignment-baseline:hanging;fill:rgb(43.9%,50.2%,56.5%);fill-opacity:1.0;font-size:10px;font-weight:normal;stroke:none;text-anchor:middle" /></g></g></g><g class="toyplot-mark-Text" id="tcc75c96c93e7417bac3e24f67bda9449"><g class="toyplot-Series"><g class="toyplot-Datum" transform="translate(200.0,100.0)"><text x="-75.036" y="3.066" style="fill:rgb(16.1%,15.3%,14.1%);fill-opacity:1.0;font-family:helvetica;font-size:12.0px;font-weight:normal;opacity:1;stroke:none;vertical-align:baseline;white-space:pre">topo 2 black=smc green=full</text></g></g></g></svg>