<?xml version="1.0" encoding="utf-8" standalone="no"?>
<!DOCTYPE svg PUBLIC "-//W3C//DTD SVG 1.1//EN"
  "http://www.w3.org/Graphics/SVG/1.1/DTD/svg11.dtd">
<svg xmlns:xlink="http://www.w3.org/1999/xlink" width="288pt" height="216pt" viewBox="0 0 288 216" xmlns="http://www.w3.org/2000/svg" version="1.1">
 <metadata>
  <rdf:RDF xmlns:dc="http://purl.org/dc/elements/1.1/" xmlns:cc="http://creativecommons.org/ns#" xmlns:rdf="http://www.w3.org/1999/02/22-rdf-syntax-ns#">
   <cc:Work>
    <dc:type rdf:resource="http://purl.org/dc/dcmitype/StillImage"/>
    <dc:date>2023-07-18T19:47:43.393342</dc:date>
    <dc:format>image/svg+xml</dc:format>
    <dc:creator>
     <cc:Agent>
      <dc:title>Matplotlib v3.7.1, https://matplotlib.org/</dc:title>
     </cc:Agent>
    </dc:creator>
   </cc:Work>
  </rdf:RDF>
 </metadata>
 <defs>
  <style type="text/css">*{stroke-linejoin: round; stroke-linecap: butt}</style>
 </defs>
 <g id="figure_1">
  <g id="patch_1">
   <path d="M 0 216 
L 288 216 
L 288 0 
L 0 0 
z
" style="fill: #ffffff"/>
  </g>
  <g id="axes_1">
   <g id="patch_2">
    <path d="M 36 192.24 
L 214.56 192.24 
L 214.56 25.92 
L 36 25.92 
z
" style="fill: #ffffff"/>
   </g>
   <g id="PathCollection_1">
    <path d="M 37.304697 192.24 
L 36 192.24 
L 36 191.81012 
z
" clip-path="url(#p698052f00a)" style="fill: #440154"/>
   </g>
   <g id="PathCollection_2">
    <path d="M 38.914334 192.24 
L 37.304697 192.24 
L 36 191.81012 
L 36 191.279766 
z
" clip-path="url(#p698052f00a)" style="fill: #440154"/>
   </g>
   <g id="PathCollection_3">
    <path d="M 40.523971 192.24 
L 38.914334 192.24 
L 36 191.279766 
L 36 190.749412 
z
" clip-path="url(#p698052f00a)" style="fill: #440154"/>
   </g>
   <g id="PathCollection_4">
    <path d="M 41.952 192.180133 
L 42.440064 192.24 
L 41.952 192.24 
L 40.523971 192.24 
L 36 190.749412 
L 36 190.219058 
z
" clip-path="url(#p698052f00a)" style="fill: #440154"/>
   </g>
   <g id="PathCollection_5">
    <path d="M 41.952 191.649515 
L 46.765877 192.24 
L 42.440064 192.24 
L 41.952 192.180133 
L 36 190.219058 
L 36 189.688704 
z
" clip-path="url(#p698052f00a)" style="fill: #440154"/>
    <path d="M 155.04 192.205025 
L 160.992 192.152535 
L 166.944 192.101217 
L 172.896 192.051063 
L 178.848 192.002057 
L 184.8 191.954177 
L 190.752 191.907393 
L 196.704 191.861677 
L 202.656 191.816997 
L 208.608 191.773319 
L 214.56 191.73061 
L 214.56 192.24 
L 208.608 192.24 
L 202.656 192.24 
L 196.704 192.24 
L 190.752 192.24 
L 184.8 192.24 
L 178.848 192.24 
L 172.896 192.24 
L 166.944 192.24 
L 160.992 192.24 
L 155.04 192.24 
L 151.160172 192.24 
z
" clip-path="url(#p698052f00a)" style="fill: #440154"/>
   </g>
   <g id="PathCollection_6">
    <path d="M 41.952 191.118898 
L 47.904 191.848835 
L 53.856 192.172648 
L 56.570039 192.24 
L 53.856 192.24 
L 47.904 192.24 
L 46.765877 192.24 
L 41.952 191.649515 
L 36 189.688704 
L 36 189.15835 
z
" clip-path="url(#p698052f00a)" style="fill: #440154"/>
    <path d="M 101.472 192.184932 
L 107.424 192.127445 
L 113.376 192.068996 
L 119.328 192.010332 
L 125.28 191.951953 
L 131.232 191.894197 
L 137.184 191.83729 
L 143.136 191.781378 
L 149.088 191.726553 
L 155.04 191.672868 
L 160.992 191.62035 
L 166.944 191.569005 
L 172.896 191.518826 
L 178.848 191.469796 
L 184.8 191.421893 
L 190.752 191.375089 
L 196.704 191.329353 
L 202.656 191.284654 
L 208.608 191.240958 
L 214.56 191.198232 
L 214.56 191.73061 
L 208.608 191.773319 
L 202.656 191.816997 
L 196.704 191.861677 
L 190.752 191.907393 
L 184.8 191.954177 
L 178.848 192.002057 
L 172.896 192.051063 
L 166.944 192.101217 
L 160.992 192.152535 
L 155.04 192.205025 
L 151.160172 192.24 
L 149.088 192.24 
L 143.136 192.24 
L 137.184 192.24 
L 131.232 192.24 
L 125.28 192.24 
L 119.328 192.24 
L 113.376 192.24 
L 107.424 192.24 
L 101.472 192.24 
L 95.556894 192.24 
z
" clip-path="url(#p698052f00a)" style="fill: #440154"/>
   </g>
   <g id="PathCollection_7">
    <path d="M 41.952 190.58828 
L 47.904 191.318011 
L 53.856 191.641652 
L 59.808 191.789234 
L 65.76 191.848297 
L 71.712 191.858676 
L 77.664 191.840732 
L 83.616 191.805748 
L 89.568 191.760357 
L 95.52 191.708632 
L 101.472 191.653157 
L 107.424 191.595612 
L 113.376 191.537111 
L 119.328 191.478398 
L 125.28 191.419974 
L 131.232 191.362177 
L 137.184 191.305232 
L 143.136 191.249285 
L 149.088 191.194427 
L 155.04 191.140712 
L 160.992 191.088165 
L 166.944 191.036793 
L 172.896 190.986589 
L 178.848 190.937535 
L 184.8 190.88961 
L 190.752 190.842784 
L 196.704 190.797029 
L 202.656 190.75231 
L 208.608 190.708596 
L 214.56 190.665854 
L 214.56 191.198232 
L 208.608 191.240958 
L 202.656 191.284654 
L 196.704 191.329353 
L 190.752 191.375089 
L 184.8 191.421893 
L 178.848 191.469796 
L 172.896 191.518826 
L 166.944 191.569005 
L 160.992 191.62035 
L 155.04 191.672868 
L 149.088 191.726553 
L 143.136 191.781378 
L 137.184 191.83729 
L 131.232 191.894197 
L 125.28 191.951953 
L 119.328 192.010332 
L 113.376 192.068996 
L 107.424 192.127445 
L 101.472 192.184932 
L 95.556894 192.24 
L 95.52 192.24 
L 89.568 192.24 
L 83.616 192.24 
L 77.664 192.24 
L 71.712 192.24 
L 65.76 192.24 
L 59.808 192.24 
L 56.570039 192.24 
L 53.856 192.172648 
L 47.904 191.848835 
L 41.952 191.118898 
L 36 189.15835 
L 36 188.627996 
z
" clip-path="url(#p698052f00a)" style="fill: #440154"/>
   </g>
   <g id="PathCollection_8">
    <path d="M 41.952 190.057663 
L 47.904 190.787186 
L 53.856 191.110656 
L 59.808 191.258092 
L 65.76 191.317029 
L 71.712 191.327298 
L 77.664 191.309256 
L 83.616 191.274185 
L 89.568 191.228716 
L 95.52 191.176921 
L 101.472 191.121382 
L 107.424 191.06378 
L 113.376 191.005225 
L 119.328 190.946464 
L 125.28 190.887995 
L 131.232 190.830158 
L 137.184 190.773174 
L 143.136 190.717192 
L 149.088 190.662301 
L 155.04 190.608555 
L 160.992 190.555979 
L 166.944 190.504581 
L 172.896 190.454351 
L 178.848 190.405274 
L 184.8 190.357326 
L 190.752 190.31048 
L 196.704 190.264704 
L 202.656 190.219967 
L 208.608 190.176235 
L 214.56 190.133476 
L 214.56 190.665854 
L 208.608 190.708596 
L 202.656 190.75231 
L 196.704 190.797029 
L 190.752 190.842784 
L 184.8 190.88961 
L 178.848 190.937535 
L 172.896 190.986589 
L 166.944 191.036793 
L 160.992 191.088165 
L 155.04 191.140712 
L 149.088 191.194427 
L 143.136 191.249285 
L 137.184 191.305232 
L 131.232 191.362177 
L 125.28 191.419974 
L 119.328 191.478398 
L 113.376 191.537111 
L 107.424 191.595612 
L 101.472 191.653157 
L 95.52 191.708632 
L 89.568 191.760357 
L 83.616 191.805748 
L 77.664 191.840732 
L 71.712 191.858676 
L 65.76 191.848297 
L 59.808 191.789234 
L 53.856 191.641652 
L 47.904 191.318011 
L 41.952 190.58828 
L 36 188.627996 
L 36 188.097642 
z
" clip-path="url(#p698052f00a)" style="fill: #440154"/>
   </g>
   <g id="PathCollection_9">
    <path d="M 41.952 189.527046 
L 47.904 190.256361 
L 53.856 190.57966 
L 59.808 190.72695 
L 65.76 190.785761 
L 71.712 190.795919 
L 77.664 190.77778 
L 83.616 190.742622 
L 89.568 190.697075 
L 95.52 190.64521 
L 101.472 190.589607 
L 107.424 190.531947 
L 113.376 190.47334 
L 119.328 190.41453 
L 125.28 190.356017 
L 131.232 190.298138 
L 137.184 190.241116 
L 143.136 190.185098 
L 149.088 190.130175 
L 155.04 190.076398 
L 160.992 190.023794 
L 166.944 189.972369 
L 172.896 189.922114 
L 178.848 189.873013 
L 184.8 189.825043 
L 190.752 189.778175 
L 196.704 189.73238 
L 202.656 189.687624 
L 208.608 189.643874 
L 214.56 189.601098 
L 214.56 190.133476 
L 208.608 190.176235 
L 202.656 190.219967 
L 196.704 190.264704 
L 190.752 190.31048 
L 184.8 190.357326 
L 178.848 190.405274 
L 172.896 190.454351 
L 166.944 190.504581 
L 160.992 190.555979 
L 155.04 190.608555 
L 149.088 190.662301 
L 143.136 190.717192 
L 137.184 190.773174 
L 131.232 190.830158 
L 125.28 190.887995 
L 119.328 190.946464 
L 113.376 191.005225 
L 107.424 191.06378 
L 101.472 191.121382 
L 95.52 191.176921 
L 89.568 191.228716 
L 83.616 191.274185 
L 77.664 191.309256 
L 71.712 191.327298 
L 65.76 191.317029 
L 59.808 191.258092 
L 53.856 191.110656 
L 47.904 190.787186 
L 41.952 190.057663 
L 36 188.097642 
L 36 187.567287 
z
" clip-path="url(#p698052f00a)" style="fill: #440154"/>
   </g>
   <g id="PathCollection_10">
    <path d="M 41.952 188.996428 
L 47.904 189.725536 
L 53.856 190.048664 
L 59.808 190.195808 
L 65.76 190.254493 
L 71.712 190.264541 
L 77.664 190.246304 
L 83.616 190.211059 
L 89.568 190.165434 
L 95.52 190.113499 
L 101.472 190.057832 
L 107.424 190.000114 
L 113.376 189.941454 
L 119.328 189.882596 
L 125.28 189.824038 
L 131.232 189.766118 
L 137.184 189.709059 
L 143.136 189.653005 
L 149.088 189.598049 
L 155.04 189.544242 
L 160.992 189.491609 
L 166.944 189.440156 
L 172.896 189.389876 
L 178.848 189.340752 
L 184.8 189.29276 
L 190.752 189.245871 
L 196.704 189.200055 
L 202.656 189.15528 
L 208.608 189.111513 
L 214.56 189.068719 
L 214.56 189.601098 
L 208.608 189.643874 
L 202.656 189.687624 
L 196.704 189.73238 
L 190.752 189.778175 
L 184.8 189.825043 
L 178.848 189.873013 
L 172.896 189.922114 
L 166.944 189.972369 
L 160.992 190.023794 
L 155.04 190.076398 
L 149.088 190.130175 
L 143.136 190.185098 
L 137.184 190.241116 
L 131.232 190.298138 
L 125.28 190.356017 
L 119.328 190.41453 
L 113.376 190.47334 
L 107.424 190.531947 
L 101.472 190.589607 
L 95.52 190.64521 
L 89.568 190.697075 
L 83.616 190.742622 
L 77.664 190.77778 
L 71.712 190.795919 
L 65.76 190.785761 
L 59.808 190.72695 
L 53.856 190.57966 
L 47.904 190.256361 
L 41.952 189.527046 
L 36 187.567287 
L 36 187.036933 
z
" clip-path="url(#p698052f00a)" style="fill: #440154"/>
   </g>
   <g id="PathCollection_11">
    <path d="M 36 186.696 
L 36 186.248418 
L 36.575704 186.696 
L 41.952 188.465811 
L 47.904 189.194711 
L 53.856 189.517668 
L 59.808 189.664667 
L 65.76 189.723225 
L 71.712 189.733163 
L 77.664 189.714828 
L 83.616 189.679496 
L 89.568 189.633794 
L 95.52 189.581787 
L 101.472 189.526058 
L 107.424 189.468281 
L 113.376 189.409569 
L 119.328 189.350662 
L 125.28 189.29206 
L 131.232 189.234098 
L 137.184 189.177001 
L 143.136 189.120912 
L 149.088 189.065923 
L 155.04 189.012085 
L 160.992 188.959424 
L 166.944 188.907944 
L 172.896 188.857639 
L 178.848 188.808491 
L 184.8 188.760476 
L 190.752 188.713566 
L 196.704 188.667731 
L 202.656 188.622937 
L 208.608 188.579152 
L 214.56 188.536341 
L 214.56 189.068719 
L 208.608 189.111513 
L 202.656 189.15528 
L 196.704 189.200055 
L 190.752 189.245871 
L 184.8 189.29276 
L 178.848 189.340752 
L 172.896 189.389876 
L 166.944 189.440156 
L 160.992 189.491609 
L 155.04 189.544242 
L 149.088 189.598049 
L 143.136 189.653005 
L 137.184 189.709059 
L 131.232 189.766118 
L 125.28 189.824038 
L 119.328 189.882596 
L 113.376 189.941454 
L 107.424 190.000114 
L 101.472 190.057832 
L 95.52 190.113499 
L 89.568 190.165434 
L 83.616 190.211059 
L 77.664 190.246304 
L 71.712 190.264541 
L 65.76 190.254493 
L 59.808 190.195808 
L 53.856 190.048664 
L 47.904 189.725536 
L 41.952 188.996428 
L 36 187.036933 
z
" clip-path="url(#p698052f00a)" style="fill: #440154"/>
   </g>
   <g id="PathCollection_12">
    <path d="M 36.575704 186.696 
L 36 186.248418 
L 36 184.995245 
L 38.187603 186.696 
L 41.952 187.935193 
L 47.904 188.663887 
L 53.856 188.986672 
L 59.808 189.133525 
L 65.76 189.191957 
L 71.712 189.201784 
L 77.664 189.183352 
L 83.616 189.147933 
L 89.568 189.102153 
L 95.52 189.050076 
L 101.472 188.994283 
L 107.424 188.936449 
L 113.376 188.877683 
L 119.328 188.818728 
L 125.28 188.760081 
L 131.232 188.702079 
L 137.184 188.644943 
L 143.136 188.588819 
L 149.088 188.533797 
L 155.04 188.479928 
L 160.992 188.427238 
L 166.944 188.375732 
L 172.896 188.325402 
L 178.848 188.27623 
L 184.8 188.228193 
L 190.752 188.181262 
L 196.704 188.135407 
L 202.656 188.090594 
L 208.608 188.046791 
L 214.56 188.003963 
L 214.56 188.536341 
L 208.608 188.579152 
L 202.656 188.622937 
L 196.704 188.667731 
L 190.752 188.713566 
L 184.8 188.760476 
L 178.848 188.808491 
L 172.896 188.857639 
L 166.944 188.907944 
L 160.992 188.959424 
L 155.04 189.012085 
L 149.088 189.065923 
L 143.136 189.120912 
L 137.184 189.177001 
L 131.232 189.234098 
L 125.28 189.29206 
L 119.328 189.350662 
L 113.376 189.409569 
L 107.424 189.468281 
L 101.472 189.526058 
L 95.52 189.581787 
L 89.568 189.633794 
L 83.616 189.679496 
L 77.664 189.714828 
L 71.712 189.733163 
L 65.76 189.723225 
L 59.808 189.664667 
L 53.856 189.517668 
L 47.904 189.194711 
L 41.952 188.465811 
z
" clip-path="url(#p698052f00a)" style="fill: #440154"/>
   </g>
   <g id="PathCollection_13">
    <path d="M 38.187603 186.696 
L 36 184.995245 
L 36 183.742072 
L 39.799502 186.696 
L 41.952 187.404576 
L 47.904 188.133062 
L 53.856 188.455676 
L 59.808 188.602383 
L 65.76 188.66069 
L 71.712 188.670406 
L 77.664 188.651876 
L 83.616 188.61637 
L 89.568 188.570512 
L 95.52 188.518365 
L 101.472 188.462508 
L 107.424 188.404616 
L 113.376 188.345797 
L 119.328 188.286793 
L 125.28 188.228102 
L 131.232 188.170059 
L 137.184 188.112885 
L 143.136 188.056726 
L 149.088 188.001671 
L 155.04 187.947772 
L 160.992 187.895053 
L 166.944 187.84352 
L 172.896 187.793164 
L 178.848 187.743969 
L 184.8 187.695909 
L 190.752 187.648957 
L 196.704 187.603082 
L 202.656 187.558251 
L 208.608 187.514429 
L 214.56 187.471585 
L 214.56 188.003963 
L 208.608 188.046791 
L 202.656 188.090594 
L 196.704 188.135407 
L 190.752 188.181262 
L 184.8 188.228193 
L 178.848 188.27623 
L 172.896 188.325402 
L 166.944 188.375732 
L 160.992 188.427238 
L 155.04 188.479928 
L 149.088 188.533797 
L 143.136 188.588819 
L 137.184 188.644943 
L 131.232 188.702079 
L 125.28 188.760081 
L 119.328 188.818728 
L 113.376 188.877683 
L 107.424 188.936449 
L 101.472 188.994283 
L 95.52 189.050076 
L 89.568 189.102153 
L 83.616 189.147933 
L 77.664 189.183352 
L 71.712 189.201784 
L 65.76 189.191957 
L 59.808 189.133525 
L 53.856 188.986672 
L 47.904 188.663887 
L 41.952 187.935193 
z
" clip-path="url(#p698052f00a)" style="fill: #440154"/>
   </g>
   <g id="PathCollection_14">
    <path d="M 39.799502 186.696 
L 36 183.742072 
L 36 182.488899 
L 41.411401 186.696 
L 41.952 186.873958 
L 47.904 187.602237 
L 53.856 187.924679 
L 59.808 188.071241 
L 65.76 188.129422 
L 71.712 188.139028 
L 77.664 188.1204 
L 83.616 188.084807 
L 89.568 188.038871 
L 95.52 187.986654 
L 101.472 187.930733 
L 107.424 187.872783 
L 113.376 187.813912 
L 119.328 187.754859 
L 125.28 187.696124 
L 131.232 187.638039 
L 137.184 187.580828 
L 143.136 187.524633 
L 149.088 187.469545 
L 155.04 187.415615 
L 160.992 187.362868 
L 166.944 187.311308 
L 172.896 187.260927 
L 178.848 187.211708 
L 184.8 187.163626 
L 190.752 187.116653 
L 196.704 187.070758 
L 202.656 187.025907 
L 208.608 186.982068 
L 214.56 186.939207 
L 214.56 187.471585 
L 208.608 187.514429 
L 202.656 187.558251 
L 196.704 187.603082 
L 190.752 187.648957 
L 184.8 187.695909 
L 178.848 187.743969 
L 172.896 187.793164 
L 166.944 187.84352 
L 160.992 187.895053 
L 155.04 187.947772 
L 149.088 188.001671 
L 143.136 188.056726 
L 137.184 188.112885 
L 131.232 188.170059 
L 125.28 188.228102 
L 119.328 188.286793 
L 113.376 188.345797 
L 107.424 188.404616 
L 101.472 188.462508 
L 95.52 188.518365 
L 89.568 188.570512 
L 83.616 188.61637 
L 77.664 188.651876 
L 71.712 188.670406 
L 65.76 188.66069 
L 59.808 188.602383 
L 53.856 188.455676 
L 47.904 188.133062 
L 41.952 187.404576 
z
" clip-path="url(#p698052f00a)" style="fill: #440154"/>
   </g>
   <g id="PathCollection_15">
    <path d="M 41.411401 186.696 
L 36 182.488899 
L 36 181.235726 
L 41.952 185.862193 
L 44.835578 186.696 
L 47.904 187.071412 
L 53.856 187.393683 
L 59.808 187.540099 
L 65.76 187.598154 
L 71.712 187.607649 
L 77.664 187.588924 
L 83.616 187.553244 
L 89.568 187.50723 
L 95.52 187.454942 
L 101.472 187.398958 
L 107.424 187.340951 
L 113.376 187.282026 
L 119.328 187.222925 
L 125.28 187.164145 
L 131.232 187.10602 
L 137.184 187.04877 
L 143.136 186.99254 
L 149.088 186.937419 
L 155.04 186.883458 
L 160.992 186.830682 
L 166.944 186.779096 
L 172.896 186.72869 
L 176.847267 186.696 
L 178.848 186.656699 
L 184.8 186.542481 
L 190.752 186.430886 
L 196.704 186.321842 
L 202.656 186.215272 
L 208.608 186.111098 
L 214.56 186.009238 
L 214.56 186.696 
L 214.56 186.939207 
L 208.608 186.982068 
L 202.656 187.025907 
L 196.704 187.070758 
L 190.752 187.116653 
L 184.8 187.163626 
L 178.848 187.211708 
L 172.896 187.260927 
L 166.944 187.311308 
L 160.992 187.362868 
L 155.04 187.415615 
L 149.088 187.469545 
L 143.136 187.524633 
L 137.184 187.580828 
L 131.232 187.638039 
L 125.28 187.696124 
L 119.328 187.754859 
L 113.376 187.813912 
L 107.424 187.872783 
L 101.472 187.930733 
L 95.52 187.986654 
L 89.568 188.038871 
L 83.616 188.084807 
L 77.664 188.1204 
L 71.712 188.139028 
L 65.76 188.129422 
L 59.808 188.071241 
L 53.856 187.924679 
L 47.904 187.602237 
L 41.952 186.873958 
z
" clip-path="url(#p698052f00a)" style="fill: #471365"/>
   </g>
   <g id="PathCollection_16">
    <path d="M 36 181.152 
L 36 178.945497 
L 37.506204 181.152 
L 41.952 184.607631 
L 47.904 186.328367 
L 50.77631 186.696 
L 53.856 186.862687 
L 59.808 187.008958 
L 65.76 187.066886 
L 71.712 187.076271 
L 77.664 187.057448 
L 83.616 187.021681 
L 89.568 186.975589 
L 95.52 186.923231 
L 101.472 186.867183 
L 107.424 186.809118 
L 113.376 186.750141 
L 118.824045 186.696 
L 119.328 186.684119 
L 125.28 186.544557 
L 131.232 186.406527 
L 137.184 186.270557 
L 143.136 186.136991 
L 149.088 186.006043 
L 155.04 185.877836 
L 160.992 185.752431 
L 166.944 185.629839 
L 172.896 185.510043 
L 178.848 185.393 
L 184.8 185.278656 
L 190.752 185.166942 
L 196.704 185.057786 
L 202.656 184.951109 
L 208.608 184.846833 
L 214.56 184.744878 
L 214.56 186.009238 
L 208.608 186.111098 
L 202.656 186.215272 
L 196.704 186.321842 
L 190.752 186.430886 
L 184.8 186.542481 
L 178.848 186.656699 
L 176.847267 186.696 
L 172.896 186.72869 
L 166.944 186.779096 
L 160.992 186.830682 
L 155.04 186.883458 
L 149.088 186.937419 
L 143.136 186.99254 
L 137.184 187.04877 
L 131.232 187.10602 
L 125.28 187.164145 
L 119.328 187.222925 
L 113.376 187.282026 
L 107.424 187.340951 
L 101.472 187.398958 
L 95.52 187.454942 
L 89.568 187.50723 
L 83.616 187.553244 
L 77.664 187.588924 
L 71.712 187.607649 
L 65.76 187.598154 
L 59.808 187.540099 
L 53.856 187.393683 
L 47.904 187.071412 
L 44.835578 186.696 
L 41.952 185.862193 
L 36 181.235726 
z
" clip-path="url(#p698052f00a)" style="fill: #472a7a"/>
   </g>
   <g id="PathCollection_17">
    <path d="M 37.506204 181.152 
L 36 178.945497 
L 36 176.581022 
L 39.120243 181.152 
L 41.952 183.35307 
L 47.904 185.072688 
L 53.856 185.833853 
L 59.808 186.179473 
L 65.76 186.316192 
L 71.712 186.338055 
L 77.664 186.293134 
L 83.616 186.208074 
L 89.568 186.098534 
L 95.52 185.974128 
L 101.472 185.840957 
L 107.424 185.702985 
L 113.376 185.562836 
L 119.328 185.422265 
L 125.28 185.282453 
L 131.232 185.144191 
L 137.184 185.008006 
L 143.136 184.874241 
L 149.088 184.743107 
L 155.04 184.614727 
L 160.992 184.48916 
L 166.944 184.366417 
L 172.896 184.246478 
L 178.848 184.129302 
L 184.8 184.014831 
L 190.752 183.902998 
L 196.704 183.793729 
L 202.656 183.686945 
L 208.608 183.582568 
L 214.56 183.480517 
L 214.56 184.744878 
L 208.608 184.846833 
L 202.656 184.951109 
L 196.704 185.057786 
L 190.752 185.166942 
L 184.8 185.278656 
L 178.848 185.393 
L 172.896 185.510043 
L 166.944 185.629839 
L 160.992 185.752431 
L 155.04 185.877836 
L 149.088 186.006043 
L 143.136 186.136991 
L 137.184 186.270557 
L 131.232 186.406527 
L 125.28 186.544557 
L 119.328 186.684119 
L 118.824045 186.696 
L 113.376 186.750141 
L 107.424 186.809118 
L 101.472 186.867183 
L 95.52 186.923231 
L 89.568 186.975589 
L 83.616 187.021681 
L 77.664 187.057448 
L 71.712 187.076271 
L 65.76 187.066886 
L 59.808 187.008958 
L 53.856 186.862687 
L 50.77631 186.696 
L 47.904 186.328367 
L 41.952 184.607631 
z
" clip-path="url(#p698052f00a)" style="fill: #424086"/>
   </g>
   <g id="PathCollection_18">
    <path d="M 39.120243 181.152 
L 36 176.581022 
L 36 175.608 
L 36 173.276123 
L 36.95104 175.608 
L 40.734283 181.152 
L 41.952 182.098508 
L 47.904 183.817008 
L 53.856 184.577237 
L 59.808 184.922053 
L 65.76 185.058073 
L 71.712 185.07932 
L 77.664 185.033854 
L 83.616 184.948306 
L 89.568 184.838329 
L 95.52 184.713528 
L 101.472 184.579999 
L 107.424 184.441702 
L 113.376 184.301256 
L 119.328 184.160412 
L 125.28 184.020349 
L 131.232 183.881855 
L 137.184 183.745455 
L 143.136 183.61149 
L 149.088 183.480171 
L 155.04 183.351619 
L 160.992 183.225889 
L 166.944 183.102994 
L 172.896 182.982913 
L 178.848 182.865603 
L 184.8 182.751006 
L 190.752 182.639054 
L 196.704 182.529672 
L 202.656 182.422782 
L 208.608 182.318304 
L 214.56 182.216156 
L 214.56 183.480517 
L 208.608 183.582568 
L 202.656 183.686945 
L 196.704 183.793729 
L 190.752 183.902998 
L 184.8 184.014831 
L 178.848 184.129302 
L 172.896 184.246478 
L 166.944 184.366417 
L 160.992 184.48916 
L 155.04 184.614727 
L 149.088 184.743107 
L 143.136 184.874241 
L 137.184 185.008006 
L 131.232 185.144191 
L 125.28 185.282453 
L 119.328 185.422265 
L 113.376 185.562836 
L 107.424 185.702985 
L 101.472 185.840957 
L 95.52 185.974128 
L 89.568 186.098534 
L 83.616 186.208074 
L 77.664 186.293134 
L 71.712 186.338055 
L 65.76 186.316192 
L 59.808 186.179473 
L 53.856 185.833853 
L 47.904 185.072688 
L 41.952 183.35307 
z
" clip-path="url(#p698052f00a)" style="fill: #3a548c"/>
   </g>
   <g id="PathCollection_19">
    <path d="M 40.734283 181.152 
L 36.95104 175.608 
L 36 173.276123 
L 36 170.064 
L 36 168.892774 
L 36.306418 170.064 
L 38.567128 175.608 
L 41.952 180.570251 
L 43.020414 181.152 
L 47.904 182.561328 
L 53.856 183.320621 
L 59.808 183.664633 
L 65.76 183.799953 
L 71.712 183.820585 
L 77.664 183.774573 
L 83.616 183.688538 
L 89.568 183.578123 
L 95.52 183.452929 
L 101.472 183.319042 
L 107.424 183.180419 
L 113.376 183.039676 
L 119.328 182.898559 
L 125.28 182.758244 
L 131.232 182.619519 
L 137.184 182.482905 
L 143.136 182.34874 
L 149.088 182.217236 
L 155.04 182.08851 
L 160.992 181.962619 
L 166.944 181.839572 
L 172.896 181.719348 
L 178.848 181.601904 
L 184.8 181.487181 
L 190.752 181.37511 
L 196.704 181.265615 
L 202.656 181.158618 
L 203.032704 181.152 
L 208.608 180.965752 
L 214.56 180.771337 
L 214.56 181.152 
L 214.56 182.216156 
L 208.608 182.318304 
L 202.656 182.422782 
L 196.704 182.529672 
L 190.752 182.639054 
L 184.8 182.751006 
L 178.848 182.865603 
L 172.896 182.982913 
L 166.944 183.102994 
L 160.992 183.225889 
L 155.04 183.351619 
L 149.088 183.480171 
L 143.136 183.61149 
L 137.184 183.745455 
L 131.232 183.881855 
L 125.28 184.020349 
L 119.328 184.160412 
L 113.376 184.301256 
L 107.424 184.441702 
L 101.472 184.579999 
L 95.52 184.713528 
L 89.568 184.838329 
L 83.616 184.948306 
L 77.664 185.033854 
L 71.712 185.07932 
L 65.76 185.058073 
L 59.808 184.922053 
L 53.856 184.577237 
L 47.904 183.817008 
L 41.952 182.098508 
z
" clip-path="url(#p698052f00a)" style="fill: #31678e"/>
   </g>
   <g id="PathCollection_20">
    <path d="M 38.567128 175.608 
L 36.306418 170.064 
L 36 168.892774 
L 36 164.52 
L 36 161.815905 
L 36.474598 164.52 
L 37.924472 170.064 
L 40.183215 175.608 
L 41.952 178.201053 
L 47.371579 181.152 
L 47.904 181.305649 
L 53.856 182.064005 
L 59.808 182.407213 
L 65.76 182.541834 
L 71.712 182.56185 
L 77.664 182.515292 
L 83.616 182.42877 
L 89.568 182.317918 
L 95.52 182.192329 
L 101.472 182.058085 
L 107.424 181.919137 
L 113.376 181.778095 
L 119.328 181.636706 
L 125.28 181.49614 
L 131.232 181.357183 
L 137.184 181.220354 
L 140.212149 181.152 
L 143.136 181.026634 
L 149.088 180.776477 
L 155.04 180.531564 
L 160.992 180.292004 
L 166.944 180.057821 
L 172.896 179.828979 
L 178.848 179.605399 
L 184.8 179.386972 
L 190.752 179.173571 
L 196.704 178.965054 
L 202.656 178.761274 
L 208.608 178.56208 
L 214.56 178.367319 
L 214.56 180.771337 
L 208.608 180.965752 
L 203.032704 181.152 
L 202.656 181.158618 
L 196.704 181.265615 
L 190.752 181.37511 
L 184.8 181.487181 
L 178.848 181.601904 
L 172.896 181.719348 
L 166.944 181.839572 
L 160.992 181.962619 
L 155.04 182.08851 
L 149.088 182.217236 
L 143.136 182.34874 
L 137.184 182.482905 
L 131.232 182.619519 
L 125.28 182.758244 
L 119.328 182.898559 
L 113.376 183.039676 
L 107.424 183.180419 
L 101.472 183.319042 
L 95.52 183.452929 
L 89.568 183.578123 
L 83.616 183.688538 
L 77.664 183.774573 
L 71.712 183.820585 
L 65.76 183.799953 
L 59.808 183.664633 
L 53.856 183.320621 
L 47.904 182.561328 
L 43.020414 181.152 
L 41.952 180.570251 
z
" clip-path="url(#p698052f00a)" style="fill: #2a788e"/>
   </g>
   <g id="PathCollection_21">
    <path d="M 40.183215 175.608 
L 37.924472 170.064 
L 36.474598 164.52 
L 36 161.815905 
L 36 158.976 
L 36 153.432 
L 36 148.09714 
L 36.452127 153.432 
L 37.122769 158.976 
L 38.094544 164.52 
L 39.542527 170.064 
L 41.799303 175.608 
L 41.952 175.831855 
L 47.904 179.069305 
L 53.856 180.500315 
L 59.808 181.147825 
L 59.906119 181.152 
L 65.76 181.283714 
L 71.712 181.303115 
L 77.664 181.256011 
L 83.616 181.169002 
L 84.525583 181.152 
L 89.568 180.97325 
L 95.52 180.734294 
L 101.472 180.478876 
L 107.424 180.214485 
L 113.376 179.946078 
L 119.328 179.676971 
L 125.28 179.40939 
L 131.232 179.144833 
L 137.184 178.884291 
L 143.136 178.628409 
L 149.088 178.377586 
L 155.04 178.13205 
L 160.992 177.891908 
L 166.944 177.65718 
L 172.896 177.427826 
L 178.848 177.203764 
L 184.8 176.984883 
L 190.752 176.771052 
L 196.704 176.56213 
L 202.656 176.357966 
L 208.608 176.158408 
L 214.56 175.963301 
L 214.56 178.367319 
L 208.608 178.56208 
L 202.656 178.761274 
L 196.704 178.965054 
L 190.752 179.173571 
L 184.8 179.386972 
L 178.848 179.605399 
L 172.896 179.828979 
L 166.944 180.057821 
L 160.992 180.292004 
L 155.04 180.531564 
L 149.088 180.776477 
L 143.136 181.026634 
L 140.212149 181.152 
L 137.184 181.220354 
L 131.232 181.357183 
L 125.28 181.49614 
L 119.328 181.636706 
L 113.376 181.778095 
L 107.424 181.919137 
L 101.472 182.058085 
L 95.52 182.192329 
L 89.568 182.317918 
L 83.616 182.42877 
L 77.664 182.515292 
L 71.712 182.56185 
L 65.76 182.541834 
L 59.808 182.407213 
L 53.856 182.064005 
L 47.904 181.305649 
L 47.371579 181.152 
L 41.952 178.201053 
z
" clip-path="url(#p698052f00a)" style="fill: #23898e"/>
    <path d="M 36 37.008 
L 36 31.464 
L 36 25.92 
L 36.212887 25.92 
L 36.113883 31.464 
L 36.015623 37.008 
L 36 37.898532 
z
" clip-path="url(#p698052f00a)" style="fill: #23898e"/>
   </g>
   <g id="PathCollection_22">
    <path d="M 41.799303 175.608 
L 39.542527 170.064 
L 38.094544 164.52 
L 37.122769 158.976 
L 36.452127 153.432 
L 36 148.09714 
L 36 147.888 
L 36 142.344 
L 36 136.8 
L 36 131.256 
L 36 125.712 
L 36 120.168 
L 36 114.624 
L 36 109.08 
L 36 103.536 
L 36 97.992 
L 36 92.448 
L 36 86.904 
L 36 81.36 
L 36 75.816 
L 36 70.272 
L 36 64.728 
L 36 59.184 
L 36 53.64 
L 36 48.096 
L 36 42.552 
L 36 37.898532 
L 36.015623 37.008 
L 36.113883 31.464 
L 36.212887 25.92 
L 37.862863 25.92 
L 37.763083 31.464 
L 37.664022 37.008 
L 37.565981 42.552 
L 37.469315 48.096 
L 37.374445 53.64 
L 37.281875 59.184 
L 37.192211 64.728 
L 37.106177 70.272 
L 37.024654 75.816 
L 36.94871 81.36 
L 36.879656 86.904 
L 36.819105 92.448 
L 36.769067 97.992 
L 36.732063 103.536 
L 36.711291 109.08 
L 36.710857 114.624 
L 36.7361 120.168 
L 36.794075 125.712 
L 36.894266 131.256 
L 37.049685 136.8 
L 37.278609 142.344 
L 37.607446 147.888 
L 38.075637 153.432 
L 38.744532 158.976 
L 39.714489 164.52 
L 41.160582 170.064 
L 41.952 172.00836 
L 45.903071 175.608 
L 47.904 176.696235 
L 53.856 178.123963 
L 59.808 178.768638 
L 65.76 179.019673 
L 71.712 179.054334 
L 77.664 178.963257 
L 83.616 178.796685 
L 89.568 178.58415 
L 95.52 178.343783 
L 101.472 178.087084 
L 107.424 177.821527 
L 113.376 177.552053 
L 119.328 177.281967 
L 125.28 177.013485 
L 131.232 176.748095 
L 137.184 176.486783 
L 143.136 176.230184 
L 149.088 175.978695 
L 155.04 175.732537 
L 158.119584 175.608 
L 160.992 175.411379 
L 166.944 175.013139 
L 172.896 174.62394 
L 178.848 174.24365 
L 184.8 173.872091 
L 190.752 173.509048 
L 196.704 173.154285 
L 202.656 172.807555 
L 208.608 172.468603 
L 214.56 172.137172 
L 214.56 175.608 
L 214.56 175.963301 
L 208.608 176.158408 
L 202.656 176.357966 
L 196.704 176.56213 
L 190.752 176.771052 
L 184.8 176.984883 
L 178.848 177.203764 
L 172.896 177.427826 
L 166.944 177.65718 
L 160.992 177.891908 
L 155.04 178.13205 
L 149.088 178.377586 
L 143.136 178.628409 
L 137.184 178.884291 
L 131.232 179.144833 
L 125.28 179.40939 
L 119.328 179.676971 
L 113.376 179.946078 
L 107.424 180.214485 
L 101.472 180.478876 
L 95.52 180.734294 
L 89.568 180.97325 
L 84.525583 181.152 
L 83.616 181.169002 
L 77.664 181.256011 
L 71.712 181.303115 
L 65.76 181.283714 
L 59.906119 181.152 
L 59.808 181.147825 
L 53.856 180.500315 
L 47.904 179.069305 
L 41.952 175.831855 
z
" clip-path="url(#p698052f00a)" style="fill: #1f9a8a"/>
   </g>
   <g id="PathCollection_23">
    <path d="M 41.160582 170.064 
L 39.714489 164.52 
L 38.744532 158.976 
L 38.075637 153.432 
L 37.607446 147.888 
L 37.278609 142.344 
L 37.049685 136.8 
L 36.894266 131.256 
L 36.794075 125.712 
L 36.7361 120.168 
L 36.710857 114.624 
L 36.711291 109.08 
L 36.732063 103.536 
L 36.769067 97.992 
L 36.819105 92.448 
L 36.879656 86.904 
L 36.94871 81.36 
L 37.024654 75.816 
L 37.106177 70.272 
L 37.192211 64.728 
L 37.281875 59.184 
L 37.374445 53.64 
L 37.469315 48.096 
L 37.565981 42.552 
L 37.664022 37.008 
L 37.763083 31.464 
L 37.862863 25.92 
L 39.512838 25.92 
L 39.412282 31.464 
L 39.312422 37.008 
L 39.213557 42.552 
L 39.116041 48.096 
L 39.020294 53.64 
L 38.926819 59.184 
L 38.83622 64.728 
L 38.74922 70.272 
L 38.666698 75.816 
L 38.589722 81.36 
L 38.519598 86.904 
L 38.45794 92.448 
L 38.406756 97.992 
L 38.368563 103.536 
L 38.346558 109.08 
L 38.344844 114.624 
L 38.368759 120.168 
L 38.425354 125.712 
L 38.524111 131.256 
L 38.678038 136.8 
L 38.905412 142.344 
L 39.232635 147.888 
L 39.699147 153.432 
L 40.366295 158.976 
L 41.334435 164.52 
L 41.952 166.889125 
L 44.187231 170.064 
L 47.904 173.449976 
L 53.273364 175.608 
L 53.856 175.747612 
L 59.808 176.389452 
L 65.76 176.638006 
L 71.712 176.670479 
L 77.664 176.577457 
L 83.616 176.409147 
L 89.568 176.195049 
L 95.52 175.953271 
L 101.472 175.695291 
L 103.420569 175.608 
L 107.424 175.30496 
L 113.376 174.84782 
L 119.328 174.389549 
L 125.28 173.933906 
L 131.232 173.483418 
L 137.184 173.039761 
L 143.136 172.604026 
L 149.088 172.176888 
L 155.04 171.758736 
L 160.992 171.349748 
L 166.944 170.949962 
L 172.896 170.55931 
L 178.848 170.177654 
L 180.662721 170.064 
L 184.8 169.653736 
L 190.752 169.077004 
L 196.704 168.51331 
L 202.656 167.962272 
L 208.608 167.423496 
L 214.56 166.896587 
L 214.56 170.064 
L 214.56 172.137172 
L 208.608 172.468603 
L 202.656 172.807555 
L 196.704 173.154285 
L 190.752 173.509048 
L 184.8 173.872091 
L 178.848 174.24365 
L 172.896 174.62394 
L 166.944 175.013139 
L 160.992 175.411379 
L 158.119584 175.608 
L 155.04 175.732537 
L 149.088 175.978695 
L 143.136 176.230184 
L 137.184 176.486783 
L 131.232 176.748095 
L 125.28 177.013485 
L 119.328 177.281967 
L 113.376 177.552053 
L 107.424 177.821527 
L 101.472 178.087084 
L 95.52 178.343783 
L 89.568 178.58415 
L 83.616 178.796685 
L 77.664 178.963257 
L 71.712 179.054334 
L 65.76 179.019673 
L 59.808 178.768638 
L 53.856 178.123963 
L 47.904 176.696235 
L 45.903071 175.608 
L 41.952 172.00836 
z
" clip-path="url(#p698052f00a)" style="fill: #25ab82"/>
   </g>
   <g id="PathCollection_24">
    <path d="M 41.334435 164.52 
L 40.366295 158.976 
L 39.699147 153.432 
L 39.232635 147.888 
L 38.905412 142.344 
L 38.678038 136.8 
L 38.524111 131.256 
L 38.425354 125.712 
L 38.368759 120.168 
L 38.344844 114.624 
L 38.346558 109.08 
L 38.368563 103.536 
L 38.406756 97.992 
L 38.45794 92.448 
L 38.519598 86.904 
L 38.589722 81.36 
L 38.666698 75.816 
L 38.74922 70.272 
L 38.83622 64.728 
L 38.926819 59.184 
L 39.020294 53.64 
L 39.116041 48.096 
L 39.213557 42.552 
L 39.312422 37.008 
L 39.412282 31.464 
L 39.512838 25.92 
L 41.162813 25.92 
L 41.061481 31.464 
L 40.960822 37.008 
L 40.861133 42.552 
L 40.762767 48.096 
L 40.666143 53.64 
L 40.571763 59.184 
L 40.480229 64.728 
L 40.392263 70.272 
L 40.308743 75.816 
L 40.230733 81.36 
L 40.15954 86.904 
L 40.096776 92.448 
L 40.044444 97.992 
L 40.005063 103.536 
L 39.981825 109.08 
L 39.978832 114.624 
L 40.001418 120.168 
L 40.056633 125.712 
L 40.153956 131.256 
L 40.306392 136.8 
L 40.532214 142.344 
L 40.857824 147.888 
L 41.322658 153.432 
L 41.952 158.675261 
L 42.049788 158.976 
L 44.666449 164.52 
L 47.904 169.124951 
L 49.404396 170.064 
L 53.856 171.847802 
L 59.808 172.919947 
L 65.76 173.332386 
L 71.712 173.382018 
L 77.664 173.220745 
L 83.616 172.932828 
L 89.568 172.567826 
L 95.52 172.156185 
L 101.472 171.717228 
L 107.424 171.263519 
L 113.376 170.803368 
L 119.328 170.342331 
L 122.944475 170.064 
L 125.28 169.779994 
L 131.232 169.064613 
L 137.184 168.359878 
L 143.136 167.667535 
L 149.088 166.988679 
L 155.04 166.323942 
L 160.992 165.673627 
L 166.944 165.037807 
L 171.904087 164.52 
L 172.896 164.362522 
L 178.848 163.43931 
L 184.8 162.536808 
L 190.752 161.654552 
L 196.704 160.792019 
L 202.656 159.94865 
L 208.608 159.123866 
L 209.699369 158.976 
L 214.56 157.993684 
L 214.56 158.976 
L 214.56 164.52 
L 214.56 166.896587 
L 208.608 167.423496 
L 202.656 167.962272 
L 196.704 168.51331 
L 190.752 169.077004 
L 184.8 169.653736 
L 180.662721 170.064 
L 178.848 170.177654 
L 172.896 170.55931 
L 166.944 170.949962 
L 160.992 171.349748 
L 155.04 171.758736 
L 149.088 172.176888 
L 143.136 172.604026 
L 137.184 173.039761 
L 131.232 173.483418 
L 125.28 173.933906 
L 119.328 174.389549 
L 113.376 174.84782 
L 107.424 175.30496 
L 103.420569 175.608 
L 101.472 175.695291 
L 95.52 175.953271 
L 89.568 176.195049 
L 83.616 176.409147 
L 77.664 176.577457 
L 71.712 176.670479 
L 65.76 176.638006 
L 59.808 176.389452 
L 53.856 175.747612 
L 53.273364 175.608 
L 47.904 173.449976 
L 44.187231 170.064 
L 41.952 166.889125 
z
" clip-path="url(#p698052f00a)" style="fill: #3bbb75"/>
    <path d="M 207.722626 25.92 
L 208.608 25.92 
L 214.56 25.92 
L 214.56 31.464 
L 214.56 33.19254 
L 212.924956 31.464 
L 208.608 26.884676 
z
" clip-path="url(#p698052f00a)" style="fill: #3bbb75"/>
   </g>
   <g id="PathCollection_25">
    <path d="M 41.322658 153.432 
L 40.857824 147.888 
L 40.532214 142.344 
L 40.306392 136.8 
L 40.153956 131.256 
L 40.056633 125.712 
L 40.001418 120.168 
L 39.978832 114.624 
L 39.981825 109.08 
L 40.005063 103.536 
L 40.044444 97.992 
L 40.096776 92.448 
L 40.15954 86.904 
L 40.230733 81.36 
L 40.308743 75.816 
L 40.392263 70.272 
L 40.480229 64.728 
L 40.571763 59.184 
L 40.666143 53.64 
L 40.762767 48.096 
L 40.861133 42.552 
L 40.960822 37.008 
L 41.061481 31.464 
L 41.162813 25.92 
L 41.952 25.92 
L 44.34412 25.92 
L 44.058875 31.464 
L 43.775795 37.008 
L 43.495716 42.552 
L 43.21962 48.096 
L 42.948675 53.64 
L 42.684272 59.184 
L 42.428069 64.728 
L 42.182061 70.272 
L 41.952 75.736387 
L 41.950787 75.816 
L 41.871744 81.36 
L 41.799483 86.904 
L 41.735611 92.448 
L 41.682133 97.992 
L 41.641562 103.536 
L 41.617092 109.08 
L 41.612819 114.624 
L 41.634077 120.168 
L 41.687912 125.712 
L 41.783801 131.256 
L 41.934745 136.8 
L 41.952 137.226158 
L 42.515728 142.344 
L 43.396075 147.888 
L 44.651903 153.432 
L 46.447876 158.976 
L 47.904 162.070973 
L 50.529378 164.52 
L 53.856 166.59849 
L 59.808 168.264643 
L 65.76 168.899806 
L 71.712 168.967221 
L 77.664 168.70416 
L 83.616 168.242396 
L 89.568 167.659537 
L 95.52 167.003321 
L 101.472 166.304089 
L 107.424 165.581595 
L 113.376 164.848925 
L 116.044504 164.52 
L 119.328 163.906185 
L 125.28 162.800024 
L 131.232 161.705709 
L 137.184 160.627344 
L 143.136 159.567622 
L 146.525485 158.976 
L 149.088 158.310994 
L 155.04 156.798015 
L 160.992 155.316212 
L 166.944 153.865945 
L 168.766011 153.432 
L 172.896 151.975482 
L 178.848 149.921535 
L 184.8 147.911093 
L 184.869956 147.888 
L 190.752 144.975259 
L 196.175257 142.344 
L 196.704 141.945176 
L 202.656 137.549021 
L 203.691207 136.8 
L 208.239647 131.256 
L 208.608 130.342312 
L 210.51342 125.712 
L 211.013625 120.168 
L 210.160238 114.624 
L 208.608 110.074091 
L 208.277882 109.08 
L 205.652294 103.536 
L 202.656 98.392447 
L 202.429025 97.992 
L 198.823046 92.448 
L 196.704 89.483335 
L 194.910889 86.904 
L 190.788003 81.36 
L 190.752 81.313947 
L 186.573242 75.816 
L 184.8 73.564433 
L 182.280032 70.272 
L 178.848 65.901327 
L 177.952912 64.728 
L 173.644882 59.184 
L 172.896 58.232349 
L 169.386187 53.64 
L 166.944 50.467934 
L 165.170808 48.096 
L 161.011736 42.552 
L 160.992 42.525732 
L 156.967176 37.008 
L 155.04 34.360249 
L 152.99333 31.464 
L 149.092682 25.92 
L 155.04 25.92 
L 160.992 25.92 
L 166.944 25.92 
L 172.896 25.92 
L 178.848 25.92 
L 184.8 25.92 
L 190.752 25.92 
L 196.704 25.92 
L 202.656 25.92 
L 207.722626 25.92 
L 208.608 26.884676 
L 212.924956 31.464 
L 214.56 33.19254 
L 214.56 37.008 
L 214.56 42.552 
L 214.56 48.096 
L 214.56 53.64 
L 214.56 59.184 
L 214.56 64.728 
L 214.56 70.272 
L 214.56 75.816 
L 214.56 81.36 
L 214.56 86.904 
L 214.56 92.448 
L 214.56 97.992 
L 214.56 103.536 
L 214.56 109.08 
L 214.56 114.624 
L 214.56 120.168 
L 214.56 125.712 
L 214.56 131.256 
L 214.56 136.8 
L 214.56 142.344 
L 214.56 147.888 
L 214.56 153.432 
L 214.56 157.993684 
L 209.699369 158.976 
L 208.608 159.123866 
L 202.656 159.94865 
L 196.704 160.792019 
L 190.752 161.654552 
L 184.8 162.536808 
L 178.848 163.43931 
L 172.896 164.362522 
L 171.904087 164.52 
L 166.944 165.037807 
L 160.992 165.673627 
L 155.04 166.323942 
L 149.088 166.988679 
L 143.136 167.667535 
L 137.184 168.359878 
L 131.232 169.064613 
L 125.28 169.779994 
L 122.944475 170.064 
L 119.328 170.342331 
L 113.376 170.803368 
L 107.424 171.263519 
L 101.472 171.717228 
L 95.52 172.156185 
L 89.568 172.567826 
L 83.616 172.932828 
L 77.664 173.220745 
L 71.712 173.382018 
L 65.76 173.332386 
L 59.808 172.919947 
L 53.856 171.847802 
L 49.404396 170.064 
L 47.904 169.124951 
L 44.666449 164.52 
L 42.049788 158.976 
L 41.952 158.675261 
z
" clip-path="url(#p698052f00a)" style="fill: #5ec962"/>
   </g>
   <g id="PathCollection_26">
    <path d="M 41.934745 136.8 
L 41.783801 131.256 
L 41.687912 125.712 
L 41.634077 120.168 
L 41.612819 114.624 
L 41.617092 109.08 
L 41.641562 103.536 
L 41.682133 97.992 
L 41.735611 92.448 
L 41.799483 86.904 
L 41.871744 81.36 
L 41.950787 75.816 
L 41.952 75.736387 
L 42.182061 70.272 
L 42.428069 64.728 
L 42.684272 59.184 
L 42.948675 53.64 
L 43.21962 48.096 
L 43.495716 42.552 
L 43.775795 37.008 
L 44.058875 31.464 
L 44.34412 25.92 
L 47.904 25.92 
L 50.358843 25.92 
L 49.660666 31.464 
L 48.969131 37.008 
L 48.286257 42.552 
L 47.904 45.702634 
L 47.782364 48.096 
L 47.505379 53.64 
L 47.234758 59.184 
L 46.972152 64.728 
L 46.719547 70.272 
L 46.479341 75.816 
L 46.254443 81.36 
L 46.048414 86.904 
L 45.865636 92.448 
L 45.711552 97.992 
L 45.592985 103.536 
L 45.518581 109.08 
L 45.499422 114.624 
L 45.549908 120.168 
L 45.689047 125.712 
L 45.942365 131.256 
L 46.344862 136.8 
L 46.94567 142.344 
L 47.815727 147.888 
L 47.904 148.280137 
L 50.559969 153.432 
L 53.856 157.904956 
L 55.629488 158.976 
L 59.808 160.709749 
L 65.76 161.635452 
L 71.712 161.711407 
L 77.664 161.291981 
L 83.616 160.574283 
L 89.568 159.674583 
L 93.687412 158.976 
L 95.52 158.516178 
L 101.472 156.927613 
L 107.424 155.284662 
L 113.376 153.616735 
L 114.034537 153.432 
L 119.328 151.244633 
L 125.28 148.793777 
L 127.503251 147.888 
L 131.232 145.626198 
L 136.710394 142.344 
L 137.184 141.907925 
L 142.818527 136.8 
L 143.136 136.325666 
L 146.590197 131.256 
L 148.540733 125.712 
L 149.088 120.494891 
L 149.122977 120.168 
L 149.088 119.75439 
L 148.666464 114.624 
L 147.418425 109.08 
L 145.561307 103.536 
L 143.234344 97.992 
L 143.136 97.790043 
L 140.607207 92.448 
L 137.710561 86.904 
L 137.184 85.966673 
L 134.665746 81.36 
L 131.480073 75.816 
L 131.232 75.400598 
L 128.247001 70.272 
L 125.28 65.30041 
L 124.946236 64.728 
L 121.64948 59.184 
L 119.328 55.323527 
L 118.335315 53.64 
L 115.041347 48.096 
L 113.376 45.301377 
L 111.760831 42.552 
L 108.505262 37.008 
L 107.424 35.162398 
L 105.270465 31.464 
L 102.061787 25.92 
L 107.424 25.92 
L 113.376 25.92 
L 119.328 25.92 
L 125.28 25.92 
L 131.232 25.92 
L 137.184 25.92 
L 143.136 25.92 
L 149.088 25.92 
L 149.092682 25.92 
L 152.99333 31.464 
L 155.04 34.360249 
L 156.967176 37.008 
L 160.992 42.525732 
L 161.011736 42.552 
L 165.170808 48.096 
L 166.944 50.467934 
L 169.386187 53.64 
L 172.896 58.232349 
L 173.644882 59.184 
L 177.952912 64.728 
L 178.848 65.901327 
L 182.280032 70.272 
L 184.8 73.564433 
L 186.573242 75.816 
L 190.752 81.313947 
L 190.788003 81.36 
L 194.910889 86.904 
L 196.704 89.483335 
L 198.823046 92.448 
L 202.429025 97.992 
L 202.656 98.392447 
L 205.652294 103.536 
L 208.277882 109.08 
L 208.608 110.074091 
L 210.160238 114.624 
L 211.013625 120.168 
L 210.51342 125.712 
L 208.608 130.342312 
L 208.239647 131.256 
L 203.691207 136.8 
L 202.656 137.549021 
L 196.704 141.945176 
L 196.175257 142.344 
L 190.752 144.975259 
L 184.869956 147.888 
L 184.8 147.911093 
L 178.848 149.921535 
L 172.896 151.975482 
L 168.766011 153.432 
L 166.944 153.865945 
L 160.992 155.316212 
L 155.04 156.798015 
L 149.088 158.310994 
L 146.525485 158.976 
L 143.136 159.567622 
L 137.184 160.627344 
L 131.232 161.705709 
L 125.28 162.800024 
L 119.328 163.906185 
L 116.044504 164.52 
L 113.376 164.848925 
L 107.424 165.581595 
L 101.472 166.304089 
L 95.52 167.003321 
L 89.568 167.659537 
L 83.616 168.242396 
L 77.664 168.70416 
L 71.712 168.967221 
L 65.76 168.899806 
L 59.808 168.264643 
L 53.856 166.59849 
L 50.529378 164.52 
L 47.904 162.070973 
L 46.447876 158.976 
L 44.651903 153.432 
L 43.396075 147.888 
L 42.515728 142.344 
L 41.952 137.226158 
z
" clip-path="url(#p698052f00a)" style="fill: #89d548"/>
   </g>
   <g id="PathCollection_27">
    <path d="M 47.815727 147.888 
L 46.94567 142.344 
L 46.344862 136.8 
L 45.942365 131.256 
L 45.689047 125.712 
L 45.549908 120.168 
L 45.499422 114.624 
L 45.518581 109.08 
L 45.592985 103.536 
L 45.711552 97.992 
L 45.865636 92.448 
L 46.048414 86.904 
L 46.254443 81.36 
L 46.479341 75.816 
L 46.719547 70.272 
L 46.972152 64.728 
L 47.234758 59.184 
L 47.505379 53.64 
L 47.782364 48.096 
L 47.904 45.702634 
L 48.286257 42.552 
L 48.969131 37.008 
L 49.660666 31.464 
L 50.358843 25.92 
L 53.856 25.92 
L 59.808 25.92 
L 65.76 25.92 
L 71.712 25.92 
L 77.664 25.92 
L 83.616 25.92 
L 89.568 25.92 
L 95.52 25.92 
L 101.472 25.92 
L 102.061787 25.92 
L 105.270465 31.464 
L 107.424 35.162398 
L 108.505262 37.008 
L 111.760831 42.552 
L 113.376 45.301377 
L 115.041347 48.096 
L 118.335315 53.64 
L 119.328 55.323527 
L 121.64948 59.184 
L 124.946236 64.728 
L 125.28 65.30041 
L 128.247001 70.272 
L 131.232 75.400598 
L 131.480073 75.816 
L 134.665746 81.36 
L 137.184 85.966673 
L 137.710561 86.904 
L 140.607207 92.448 
L 143.136 97.790043 
L 143.234344 97.992 
L 145.561307 103.536 
L 147.418425 109.08 
L 148.666464 114.624 
L 149.088 119.75439 
L 149.122977 120.168 
L 149.088 120.494891 
L 148.540733 125.712 
L 146.590197 131.256 
L 143.136 136.325666 
L 142.818527 136.8 
L 137.184 141.907925 
L 136.710394 142.344 
L 131.232 145.626198 
L 127.503251 147.888 
L 125.28 148.793777 
L 119.328 151.244633 
L 114.034537 153.432 
L 113.376 153.616735 
L 107.424 155.284662 
L 101.472 156.927613 
L 95.52 158.516178 
L 93.687412 158.976 
L 89.568 159.674583 
L 83.616 160.574283 
L 77.664 161.291981 
L 71.712 161.711407 
L 65.76 161.635452 
L 59.808 160.709749 
L 55.629488 158.976 
L 53.856 157.904956 
L 50.559969 153.432 
L 47.904 148.280137 
z
M 53.856 132.412383 
L 55.485214 136.8 
L 58.564674 142.344 
L 59.808 143.883907 
L 65.76 146.553148 
L 71.712 146.632031 
L 77.664 145.176695 
L 83.616 142.780981 
L 84.493804 142.344 
L 89.568 138.521458 
L 91.608523 136.8 
L 95.52 131.503439 
L 95.692029 131.256 
L 97.830023 125.712 
L 98.667054 120.168 
L 98.525732 114.624 
L 97.642597 109.08 
L 96.193869 103.536 
L 95.52 101.559023 
L 94.259736 97.992 
L 91.954372 92.448 
L 89.568 87.290388 
L 89.375142 86.904 
L 86.382033 81.36 
L 83.616 76.483159 
L 83.175101 75.816 
L 79.370813 70.272 
L 77.664 67.84114 
L 74.603478 64.728 
L 71.712 61.82309 
L 65.76 60.034216 
L 61.074929 64.728 
L 59.808 66.066545 
L 58.64366 70.272 
L 57.190164 75.816 
L 55.836265 81.36 
L 54.600922 86.904 
L 53.856 90.671193 
L 53.709479 92.448 
L 53.31933 97.992 
L 53.012908 103.536 
L 52.809953 109.08 
L 52.735705 114.624 
L 52.822887 120.168 
L 53.11459 125.712 
L 53.668589 131.256 
z
" clip-path="url(#p698052f00a)" style="fill: #b8de29"/>
   </g>
   <g id="PathCollection_28">
    <path d="M 53.668589 131.256 
L 53.11459 125.712 
L 52.822887 120.168 
L 52.735705 114.624 
L 52.809953 109.08 
L 53.012908 103.536 
L 53.31933 97.992 
L 53.709479 92.448 
L 53.856 90.671193 
L 54.600922 86.904 
L 55.836265 81.36 
L 57.190164 75.816 
L 58.64366 70.272 
L 59.808 66.066545 
L 61.074929 64.728 
L 65.76 60.034216 
L 71.712 61.82309 
L 74.603478 64.728 
L 77.664 67.84114 
L 79.370813 70.272 
L 83.175101 75.816 
L 83.616 76.483159 
L 86.382033 81.36 
L 89.375142 86.904 
L 89.568 87.290388 
L 91.954372 92.448 
L 94.259736 97.992 
L 95.52 101.559023 
L 96.193869 103.536 
L 97.642597 109.08 
L 98.525732 114.624 
L 98.667054 120.168 
L 97.830023 125.712 
L 95.692029 131.256 
L 95.52 131.503439 
L 91.608523 136.8 
L 89.568 138.521458 
L 84.493804 142.344 
L 83.616 142.780981 
L 77.664 145.176695 
L 71.712 146.632031 
L 65.76 146.553148 
L 59.808 143.883907 
L 58.564674 142.344 
L 55.485214 136.8 
L 53.856 132.412383 
z
" clip-path="url(#p698052f00a)" style="fill: #e7e419"/>
   </g>
   <g id="PathCollection_29">
    <defs>
     <path id="mb45a0cd8c8" d="M -4.330127 4.330127 
L 4.330127 -4.330127 
M -4.330127 -4.330127 
L 4.330127 4.330127 
" style="stroke: #000000; stroke-width: 2"/>
    </defs>
    <g clip-path="url(#p698052f00a)">
     <use xlink:href="#mb45a0cd8c8" x="65.76" y="127.56" style="stroke: #000000; stroke-width: 2"/>
    </g>
   </g>
   <g id="matplotlib.axis_1">
    <g id="xtick_1">
     <g id="line2d_1">
      <defs>
       <path id="m1c534c4263" d="M 0 0 
L 0 3.5 
" style="stroke: #000000; stroke-width: 0.8"/>
      </defs>
      <g>
       <use xlink:href="#m1c534c4263" x="75.68" y="192.24" style="stroke: #000000; stroke-width: 0.8"/>
      </g>
     </g>
     <g id="text_1">
      <!-- $\mathdefault{250}$ -->
      <g transform="translate(64.22 208.358125) scale(0.12 -0.12)">
       <defs>
        <path id="DejaVuSans-32" d="M 1228 531 
L 3431 531 
L 3431 0 
L 469 0 
L 469 531 
Q 828 903 1448 1529 
Q 2069 2156 2228 2338 
Q 2531 2678 2651 2914 
Q 2772 3150 2772 3378 
Q 2772 3750 2511 3984 
Q 2250 4219 1831 4219 
Q 1534 4219 1204 4116 
Q 875 4013 500 3803 
L 500 4441 
Q 881 4594 1212 4672 
Q 1544 4750 1819 4750 
Q 2544 4750 2975 4387 
Q 3406 4025 3406 3419 
Q 3406 3131 3298 2873 
Q 3191 2616 2906 2266 
Q 2828 2175 2409 1742 
Q 1991 1309 1228 531 
z
" transform="scale(0.015625)"/>
        <path id="DejaVuSans-35" d="M 691 4666 
L 3169 4666 
L 3169 4134 
L 1269 4134 
L 1269 2991 
Q 1406 3038 1543 3061 
Q 1681 3084 1819 3084 
Q 2600 3084 3056 2656 
Q 3513 2228 3513 1497 
Q 3513 744 3044 326 
Q 2575 -91 1722 -91 
Q 1428 -91 1123 -41 
Q 819 9 494 109 
L 494 744 
Q 775 591 1075 516 
Q 1375 441 1709 441 
Q 2250 441 2565 725 
Q 2881 1009 2881 1497 
Q 2881 1984 2565 2268 
Q 2250 2553 1709 2553 
Q 1456 2553 1204 2497 
Q 953 2441 691 2322 
L 691 4666 
z
" transform="scale(0.015625)"/>
        <path id="DejaVuSans-30" d="M 2034 4250 
Q 1547 4250 1301 3770 
Q 1056 3291 1056 2328 
Q 1056 1369 1301 889 
Q 1547 409 2034 409 
Q 2525 409 2770 889 
Q 3016 1369 3016 2328 
Q 3016 3291 2770 3770 
Q 2525 4250 2034 4250 
z
M 2034 4750 
Q 2819 4750 3233 4129 
Q 3647 3509 3647 2328 
Q 3647 1150 3233 529 
Q 2819 -91 2034 -91 
Q 1250 -91 836 529 
Q 422 1150 422 2328 
Q 422 3509 836 4129 
Q 1250 4750 2034 4750 
z
" transform="scale(0.015625)"/>
       </defs>
       <use xlink:href="#DejaVuSans-32" transform="translate(0 0.78125)"/>
       <use xlink:href="#DejaVuSans-35" transform="translate(63.623047 0.78125)"/>
       <use xlink:href="#DejaVuSans-30" transform="translate(127.246094 0.78125)"/>
      </g>
     </g>
    </g>
    <g id="xtick_2">
     <g id="line2d_2">
      <g>
       <use xlink:href="#m1c534c4263" x="125.28" y="192.24" style="stroke: #000000; stroke-width: 0.8"/>
      </g>
     </g>
     <g id="text_2">
      <!-- $\mathdefault{500}$ -->
      <g transform="translate(113.82 208.358125) scale(0.12 -0.12)">
       <use xlink:href="#DejaVuSans-35" transform="translate(0 0.78125)"/>
       <use xlink:href="#DejaVuSans-30" transform="translate(63.623047 0.78125)"/>
       <use xlink:href="#DejaVuSans-30" transform="translate(127.246094 0.78125)"/>
      </g>
     </g>
    </g>
    <g id="xtick_3">
     <g id="line2d_3">
      <g>
       <use xlink:href="#m1c534c4263" x="174.88" y="192.24" style="stroke: #000000; stroke-width: 0.8"/>
      </g>
     </g>
     <g id="text_3">
      <!-- $\mathdefault{750}$ -->
      <g transform="translate(163.42 208.358125) scale(0.12 -0.12)">
       <defs>
        <path id="DejaVuSans-37" d="M 525 4666 
L 3525 4666 
L 3525 4397 
L 1831 0 
L 1172 0 
L 2766 4134 
L 525 4134 
L 525 4666 
z
" transform="scale(0.015625)"/>
       </defs>
       <use xlink:href="#DejaVuSans-37" transform="translate(0 0.78125)"/>
       <use xlink:href="#DejaVuSans-35" transform="translate(63.623047 0.78125)"/>
       <use xlink:href="#DejaVuSans-30" transform="translate(127.246094 0.78125)"/>
      </g>
     </g>
    </g>
    <g id="text_4">
     <!-- Diploid N$_e$0 -->
     <g transform="translate(80 227.01375) scale(0.16 -0.16)">
      <defs>
       <path id="DejaVuSans-44" d="M 1259 4147 
L 1259 519 
L 2022 519 
Q 2988 519 3436 956 
Q 3884 1394 3884 2338 
Q 3884 3275 3436 3711 
Q 2988 4147 2022 4147 
L 1259 4147 
z
M 628 4666 
L 1925 4666 
Q 3281 4666 3915 4102 
Q 4550 3538 4550 2338 
Q 4550 1131 3912 565 
Q 3275 0 1925 0 
L 628 0 
L 628 4666 
z
" transform="scale(0.015625)"/>
       <path id="DejaVuSans-69" d="M 603 3500 
L 1178 3500 
L 1178 0 
L 603 0 
L 603 3500 
z
M 603 4863 
L 1178 4863 
L 1178 4134 
L 603 4134 
L 603 4863 
z
" transform="scale(0.015625)"/>
       <path id="DejaVuSans-70" d="M 1159 525 
L 1159 -1331 
L 581 -1331 
L 581 3500 
L 1159 3500 
L 1159 2969 
Q 1341 3281 1617 3432 
Q 1894 3584 2278 3584 
Q 2916 3584 3314 3078 
Q 3713 2572 3713 1747 
Q 3713 922 3314 415 
Q 2916 -91 2278 -91 
Q 1894 -91 1617 61 
Q 1341 213 1159 525 
z
M 3116 1747 
Q 3116 2381 2855 2742 
Q 2594 3103 2138 3103 
Q 1681 3103 1420 2742 
Q 1159 2381 1159 1747 
Q 1159 1113 1420 752 
Q 1681 391 2138 391 
Q 2594 391 2855 752 
Q 3116 1113 3116 1747 
z
" transform="scale(0.015625)"/>
       <path id="DejaVuSans-6c" d="M 603 4863 
L 1178 4863 
L 1178 0 
L 603 0 
L 603 4863 
z
" transform="scale(0.015625)"/>
       <path id="DejaVuSans-6f" d="M 1959 3097 
Q 1497 3097 1228 2736 
Q 959 2375 959 1747 
Q 959 1119 1226 758 
Q 1494 397 1959 397 
Q 2419 397 2687 759 
Q 2956 1122 2956 1747 
Q 2956 2369 2687 2733 
Q 2419 3097 1959 3097 
z
M 1959 3584 
Q 2709 3584 3137 3096 
Q 3566 2609 3566 1747 
Q 3566 888 3137 398 
Q 2709 -91 1959 -91 
Q 1206 -91 779 398 
Q 353 888 353 1747 
Q 353 2609 779 3096 
Q 1206 3584 1959 3584 
z
" transform="scale(0.015625)"/>
       <path id="DejaVuSans-64" d="M 2906 2969 
L 2906 4863 
L 3481 4863 
L 3481 0 
L 2906 0 
L 2906 525 
Q 2725 213 2448 61 
Q 2172 -91 1784 -91 
Q 1150 -91 751 415 
Q 353 922 353 1747 
Q 353 2572 751 3078 
Q 1150 3584 1784 3584 
Q 2172 3584 2448 3432 
Q 2725 3281 2906 2969 
z
M 947 1747 
Q 947 1113 1208 752 
Q 1469 391 1925 391 
Q 2381 391 2643 752 
Q 2906 1113 2906 1747 
Q 2906 2381 2643 2742 
Q 2381 3103 1925 3103 
Q 1469 3103 1208 2742 
Q 947 2381 947 1747 
z
" transform="scale(0.015625)"/>
       <path id="DejaVuSans-20" transform="scale(0.015625)"/>
       <path id="DejaVuSans-4e" d="M 628 4666 
L 1478 4666 
L 3547 763 
L 3547 4666 
L 4159 4666 
L 4159 0 
L 3309 0 
L 1241 3903 
L 1241 0 
L 628 0 
L 628 4666 
z
" transform="scale(0.015625)"/>
       <path id="DejaVuSans-Oblique-65" d="M 3078 2063 
Q 3088 2113 3092 2166 
Q 3097 2219 3097 2272 
Q 3097 2653 2873 2875 
Q 2650 3097 2266 3097 
Q 1838 3097 1509 2826 
Q 1181 2556 1013 2059 
L 3078 2063 
z
M 3578 1613 
L 903 1613 
Q 884 1494 878 1425 
Q 872 1356 872 1306 
Q 872 872 1139 634 
Q 1406 397 1894 397 
Q 2269 397 2603 481 
Q 2938 566 3225 728 
L 3116 159 
Q 2806 34 2476 -28 
Q 2147 -91 1806 -91 
Q 1078 -91 686 257 
Q 294 606 294 1247 
Q 294 1794 489 2264 
Q 684 2734 1063 3103 
Q 1306 3334 1642 3459 
Q 1978 3584 2356 3584 
Q 2950 3584 3301 3228 
Q 3653 2872 3653 2272 
Q 3653 2128 3634 1964 
Q 3616 1800 3578 1613 
z
" transform="scale(0.015625)"/>
      </defs>
      <use xlink:href="#DejaVuSans-44" transform="translate(0 0.015625)"/>
      <use xlink:href="#DejaVuSans-69" transform="translate(77.001953 0.015625)"/>
      <use xlink:href="#DejaVuSans-70" transform="translate(104.785156 0.015625)"/>
      <use xlink:href="#DejaVuSans-6c" transform="translate(168.261719 0.015625)"/>
      <use xlink:href="#DejaVuSans-6f" transform="translate(196.044922 0.015625)"/>
      <use xlink:href="#DejaVuSans-69" transform="translate(257.226562 0.015625)"/>
      <use xlink:href="#DejaVuSans-64" transform="translate(285.009766 0.015625)"/>
      <use xlink:href="#DejaVuSans-20" transform="translate(348.486328 0.015625)"/>
      <use xlink:href="#DejaVuSans-4e" transform="translate(380.273438 0.015625)"/>
      <use xlink:href="#DejaVuSans-Oblique-65" transform="translate(456.035156 -16.390625) scale(0.7)"/>
      <use xlink:href="#DejaVuSans-30" transform="translate(501.835938 0.015625)"/>
     </g>
    </g>
    <g id="text_5">
     <!-- $\times\mathdefault{10^{3}}\mathdefault{}$ -->
     <g transform="translate(188.56 221.452188) scale(0.1 -0.1)">
      <defs>
       <path id="DejaVuSans-d7" d="M 4488 3438 
L 3059 2003 
L 4488 575 
L 4116 197 
L 2681 1631 
L 1247 197 
L 878 575 
L 2303 2003 
L 878 3438 
L 1247 3816 
L 2681 2381 
L 4116 3816 
L 4488 3438 
z
" transform="scale(0.015625)"/>
       <path id="DejaVuSans-31" d="M 794 531 
L 1825 531 
L 1825 4091 
L 703 3866 
L 703 4441 
L 1819 4666 
L 2450 4666 
L 2450 531 
L 3481 531 
L 3481 0 
L 794 0 
L 794 531 
z
" transform="scale(0.015625)"/>
       <path id="DejaVuSans-33" d="M 2597 2516 
Q 3050 2419 3304 2112 
Q 3559 1806 3559 1356 
Q 3559 666 3084 287 
Q 2609 -91 1734 -91 
Q 1441 -91 1130 -33 
Q 819 25 488 141 
L 488 750 
Q 750 597 1062 519 
Q 1375 441 1716 441 
Q 2309 441 2620 675 
Q 2931 909 2931 1356 
Q 2931 1769 2642 2001 
Q 2353 2234 1838 2234 
L 1294 2234 
L 1294 2753 
L 1863 2753 
Q 2328 2753 2575 2939 
Q 2822 3125 2822 3475 
Q 2822 3834 2567 4026 
Q 2313 4219 1838 4219 
Q 1578 4219 1281 4162 
Q 984 4106 628 3988 
L 628 4550 
Q 988 4650 1302 4700 
Q 1616 4750 1894 4750 
Q 2613 4750 3031 4423 
Q 3450 4097 3450 3541 
Q 3450 3153 3228 2886 
Q 3006 2619 2597 2516 
z
" transform="scale(0.015625)"/>
      </defs>
      <use xlink:href="#DejaVuSans-d7" transform="translate(0 0.765625)"/>
      <use xlink:href="#DejaVuSans-31" transform="translate(83.789062 0.765625)"/>
      <use xlink:href="#DejaVuSans-30" transform="translate(147.412109 0.765625)"/>
      <use xlink:href="#DejaVuSans-33" transform="translate(211.992188 39.046875) scale(0.7)"/>
     </g>
    </g>
   </g>
   <g id="matplotlib.axis_2">
    <g id="ytick_1">
     <g id="line2d_4">
      <defs>
       <path id="m0c62767ed8" d="M 0 0 
L -3.5 0 
" style="stroke: #000000; stroke-width: 0.8"/>
      </defs>
      <g>
       <use xlink:href="#m0c62767ed8" x="36" y="155.28" style="stroke: #000000; stroke-width: 0.8"/>
      </g>
     </g>
     <g id="text_6">
      <!-- $\mathdefault{250}$ -->
      <g transform="translate(6.08 159.839063) scale(0.12 -0.12)">
       <use xlink:href="#DejaVuSans-32" transform="translate(0 0.78125)"/>
       <use xlink:href="#DejaVuSans-35" transform="translate(63.623047 0.78125)"/>
       <use xlink:href="#DejaVuSans-30" transform="translate(127.246094 0.78125)"/>
      </g>
     </g>
    </g>
    <g id="ytick_2">
     <g id="line2d_5">
      <g>
       <use xlink:href="#m0c62767ed8" x="36" y="109.08" style="stroke: #000000; stroke-width: 0.8"/>
      </g>
     </g>
     <g id="text_7">
      <!-- $\mathdefault{500}$ -->
      <g transform="translate(6.08 113.639062) scale(0.12 -0.12)">
       <use xlink:href="#DejaVuSans-35" transform="translate(0 0.78125)"/>
       <use xlink:href="#DejaVuSans-30" transform="translate(63.623047 0.78125)"/>
       <use xlink:href="#DejaVuSans-30" transform="translate(127.246094 0.78125)"/>
      </g>
     </g>
    </g>
    <g id="ytick_3">
     <g id="line2d_6">
      <g>
       <use xlink:href="#m0c62767ed8" x="36" y="62.88" style="stroke: #000000; stroke-width: 0.8"/>
      </g>
     </g>
     <g id="text_8">
      <!-- $\mathdefault{750}$ -->
      <g transform="translate(6.08 67.439062) scale(0.12 -0.12)">
       <use xlink:href="#DejaVuSans-37" transform="translate(0 0.78125)"/>
       <use xlink:href="#DejaVuSans-35" transform="translate(63.623047 0.78125)"/>
       <use xlink:href="#DejaVuSans-30" transform="translate(127.246094 0.78125)"/>
      </g>
     </g>
    </g>
    <g id="text_9">
     <!-- Diploid N$_e$2 -->
     <g transform="translate(-1.28 154.36) rotate(-90) scale(0.16 -0.16)">
      <use xlink:href="#DejaVuSans-44" transform="translate(0 0.015625)"/>
      <use xlink:href="#DejaVuSans-69" transform="translate(77.001953 0.015625)"/>
      <use xlink:href="#DejaVuSans-70" transform="translate(104.785156 0.015625)"/>
      <use xlink:href="#DejaVuSans-6c" transform="translate(168.261719 0.015625)"/>
      <use xlink:href="#DejaVuSans-6f" transform="translate(196.044922 0.015625)"/>
      <use xlink:href="#DejaVuSans-69" transform="translate(257.226562 0.015625)"/>
      <use xlink:href="#DejaVuSans-64" transform="translate(285.009766 0.015625)"/>
      <use xlink:href="#DejaVuSans-20" transform="translate(348.486328 0.015625)"/>
      <use xlink:href="#DejaVuSans-4e" transform="translate(380.273438 0.015625)"/>
      <use xlink:href="#DejaVuSans-Oblique-65" transform="translate(456.035156 -16.390625) scale(0.7)"/>
      <use xlink:href="#DejaVuSans-32" transform="translate(501.835938 0.015625)"/>
     </g>
    </g>
    <g id="text_10">
     <!-- $\times\mathdefault{10^{3}}\mathdefault{}$ -->
     <g transform="translate(36 22.92) scale(0.1 -0.1)">
      <use xlink:href="#DejaVuSans-d7" transform="translate(0 0.765625)"/>
      <use xlink:href="#DejaVuSans-31" transform="translate(83.789062 0.765625)"/>
      <use xlink:href="#DejaVuSans-30" transform="translate(147.412109 0.765625)"/>
      <use xlink:href="#DejaVuSans-33" transform="translate(211.992188 39.046875) scale(0.7)"/>
     </g>
    </g>
   </g>
   <g id="patch_3">
    <path d="M 36 192.24 
L 36 25.92 
" style="fill: none; stroke: #000000; stroke-width: 0.8; stroke-linejoin: miter; stroke-linecap: square"/>
   </g>
   <g id="patch_4">
    <path d="M 214.56 192.24 
L 214.56 25.92 
" style="fill: none; stroke: #000000; stroke-width: 0.8; stroke-linejoin: miter; stroke-linecap: square"/>
   </g>
   <g id="patch_5">
    <path d="M 36 192.24 
L 214.56 192.24 
" style="fill: none; stroke: #000000; stroke-width: 0.8; stroke-linejoin: miter; stroke-linecap: square"/>
   </g>
   <g id="patch_6">
    <path d="M 36 25.92 
L 214.56 25.92 
" style="fill: none; stroke: #000000; stroke-width: 0.8; stroke-linejoin: miter; stroke-linecap: square"/>
   </g>
   <g id="text_11">
    <!-- Ne0Ne2-MSSMC-RGT-P2-S4 -->
    <g transform="translate(16.485 10.92) scale(0.16 -0.16)">
     <defs>
      <path id="DejaVuSans-65" d="M 3597 1894 
L 3597 1613 
L 953 1613 
Q 991 1019 1311 708 
Q 1631 397 2203 397 
Q 2534 397 2845 478 
Q 3156 559 3463 722 
L 3463 178 
Q 3153 47 2828 -22 
Q 2503 -91 2169 -91 
Q 1331 -91 842 396 
Q 353 884 353 1716 
Q 353 2575 817 3079 
Q 1281 3584 2069 3584 
Q 2775 3584 3186 3129 
Q 3597 2675 3597 1894 
z
M 3022 2063 
Q 3016 2534 2758 2815 
Q 2500 3097 2075 3097 
Q 1594 3097 1305 2825 
Q 1016 2553 972 2059 
L 3022 2063 
z
" transform="scale(0.015625)"/>
      <path id="DejaVuSans-2d" d="M 313 2009 
L 1997 2009 
L 1997 1497 
L 313 1497 
L 313 2009 
z
" transform="scale(0.015625)"/>
      <path id="DejaVuSans-4d" d="M 628 4666 
L 1569 4666 
L 2759 1491 
L 3956 4666 
L 4897 4666 
L 4897 0 
L 4281 0 
L 4281 4097 
L 3078 897 
L 2444 897 
L 1241 4097 
L 1241 0 
L 628 0 
L 628 4666 
z
" transform="scale(0.015625)"/>
      <path id="DejaVuSans-53" d="M 3425 4513 
L 3425 3897 
Q 3066 4069 2747 4153 
Q 2428 4238 2131 4238 
Q 1616 4238 1336 4038 
Q 1056 3838 1056 3469 
Q 1056 3159 1242 3001 
Q 1428 2844 1947 2747 
L 2328 2669 
Q 3034 2534 3370 2195 
Q 3706 1856 3706 1288 
Q 3706 609 3251 259 
Q 2797 -91 1919 -91 
Q 1588 -91 1214 -16 
Q 841 59 441 206 
L 441 856 
Q 825 641 1194 531 
Q 1563 422 1919 422 
Q 2459 422 2753 634 
Q 3047 847 3047 1241 
Q 3047 1584 2836 1778 
Q 2625 1972 2144 2069 
L 1759 2144 
Q 1053 2284 737 2584 
Q 422 2884 422 3419 
Q 422 4038 858 4394 
Q 1294 4750 2059 4750 
Q 2388 4750 2728 4690 
Q 3069 4631 3425 4513 
z
" transform="scale(0.015625)"/>
      <path id="DejaVuSans-43" d="M 4122 4306 
L 4122 3641 
Q 3803 3938 3442 4084 
Q 3081 4231 2675 4231 
Q 1875 4231 1450 3742 
Q 1025 3253 1025 2328 
Q 1025 1406 1450 917 
Q 1875 428 2675 428 
Q 3081 428 3442 575 
Q 3803 722 4122 1019 
L 4122 359 
Q 3791 134 3420 21 
Q 3050 -91 2638 -91 
Q 1578 -91 968 557 
Q 359 1206 359 2328 
Q 359 3453 968 4101 
Q 1578 4750 2638 4750 
Q 3056 4750 3426 4639 
Q 3797 4528 4122 4306 
z
" transform="scale(0.015625)"/>
      <path id="DejaVuSans-52" d="M 2841 2188 
Q 3044 2119 3236 1894 
Q 3428 1669 3622 1275 
L 4263 0 
L 3584 0 
L 2988 1197 
Q 2756 1666 2539 1819 
Q 2322 1972 1947 1972 
L 1259 1972 
L 1259 0 
L 628 0 
L 628 4666 
L 2053 4666 
Q 2853 4666 3247 4331 
Q 3641 3997 3641 3322 
Q 3641 2881 3436 2590 
Q 3231 2300 2841 2188 
z
M 1259 4147 
L 1259 2491 
L 2053 2491 
Q 2509 2491 2742 2702 
Q 2975 2913 2975 3322 
Q 2975 3731 2742 3939 
Q 2509 4147 2053 4147 
L 1259 4147 
z
" transform="scale(0.015625)"/>
      <path id="DejaVuSans-47" d="M 3809 666 
L 3809 1919 
L 2778 1919 
L 2778 2438 
L 4434 2438 
L 4434 434 
Q 4069 175 3628 42 
Q 3188 -91 2688 -91 
Q 1594 -91 976 548 
Q 359 1188 359 2328 
Q 359 3472 976 4111 
Q 1594 4750 2688 4750 
Q 3144 4750 3555 4637 
Q 3966 4525 4313 4306 
L 4313 3634 
Q 3963 3931 3569 4081 
Q 3175 4231 2741 4231 
Q 1884 4231 1454 3753 
Q 1025 3275 1025 2328 
Q 1025 1384 1454 906 
Q 1884 428 2741 428 
Q 3075 428 3337 486 
Q 3600 544 3809 666 
z
" transform="scale(0.015625)"/>
      <path id="DejaVuSans-54" d="M -19 4666 
L 3928 4666 
L 3928 4134 
L 2272 4134 
L 2272 0 
L 1638 0 
L 1638 4134 
L -19 4134 
L -19 4666 
z
" transform="scale(0.015625)"/>
      <path id="DejaVuSans-50" d="M 1259 4147 
L 1259 2394 
L 2053 2394 
Q 2494 2394 2734 2622 
Q 2975 2850 2975 3272 
Q 2975 3691 2734 3919 
Q 2494 4147 2053 4147 
L 1259 4147 
z
M 628 4666 
L 2053 4666 
Q 2838 4666 3239 4311 
Q 3641 3956 3641 3272 
Q 3641 2581 3239 2228 
Q 2838 1875 2053 1875 
L 1259 1875 
L 1259 0 
L 628 0 
L 628 4666 
z
" transform="scale(0.015625)"/>
      <path id="DejaVuSans-34" d="M 2419 4116 
L 825 1625 
L 2419 1625 
L 2419 4116 
z
M 2253 4666 
L 3047 4666 
L 3047 1625 
L 3713 1625 
L 3713 1100 
L 3047 1100 
L 3047 0 
L 2419 0 
L 2419 1100 
L 313 1100 
L 313 1709 
L 2253 4666 
z
" transform="scale(0.015625)"/>
     </defs>
     <use xlink:href="#DejaVuSans-4e"/>
     <use xlink:href="#DejaVuSans-65" x="74.804688"/>
     <use xlink:href="#DejaVuSans-30" x="136.328125"/>
     <use xlink:href="#DejaVuSans-4e" x="199.951172"/>
     <use xlink:href="#DejaVuSans-65" x="274.755859"/>
     <use xlink:href="#DejaVuSans-32" x="336.279297"/>
     <use xlink:href="#DejaVuSans-2d" x="399.902344"/>
     <use xlink:href="#DejaVuSans-4d" x="435.986328"/>
     <use xlink:href="#DejaVuSans-53" x="522.265625"/>
     <use xlink:href="#DejaVuSans-53" x="585.742188"/>
     <use xlink:href="#DejaVuSans-4d" x="649.21875"/>
     <use xlink:href="#DejaVuSans-43" x="735.498047"/>
     <use xlink:href="#DejaVuSans-2d" x="805.322266"/>
     <use xlink:href="#DejaVuSans-52" x="841.40625"/>
     <use xlink:href="#DejaVuSans-47" x="910.888672"/>
     <use xlink:href="#DejaVuSans-54" x="984.753906"/>
     <use xlink:href="#DejaVuSans-2d" x="1036.712891"/>
     <use xlink:href="#DejaVuSans-50" x="1072.796875"/>
     <use xlink:href="#DejaVuSans-32" x="1133.099609"/>
     <use xlink:href="#DejaVuSans-2d" x="1196.722656"/>
     <use xlink:href="#DejaVuSans-53" x="1232.806641"/>
     <use xlink:href="#DejaVuSans-34" x="1296.283203"/>
    </g>
   </g>
  </g>
  <g id="axes_2">
   <g id="patch_7">
    <path d="M 225.72 192.24 
L 234.036 192.24 
L 234.036 25.92 
L 225.72 25.92 
z
" style="fill: #ffffff"/>
   </g>
   <g id="QuadMesh_1">
    <path d="M 225.72 192.24 
L 234.036 192.24 
L 234.036 186.3 
L 225.72 186.3 
L 225.72 192.24 
" clip-path="url(#p63a8a49cdb)" style="fill: #440154"/>
    <path d="M 225.72 186.3 
L 234.036 186.3 
L 234.036 180.36 
L 225.72 180.36 
L 225.72 186.3 
" clip-path="url(#p63a8a49cdb)" style="fill: #440154"/>
    <path d="M 225.72 180.36 
L 234.036 180.36 
L 234.036 174.42 
L 225.72 174.42 
L 225.72 180.36 
" clip-path="url(#p63a8a49cdb)" style="fill: #440154"/>
    <path d="M 225.72 174.42 
L 234.036 174.42 
L 234.036 168.48 
L 225.72 168.48 
L 225.72 174.42 
" clip-path="url(#p63a8a49cdb)" style="fill: #440154"/>
    <path d="M 225.72 168.48 
L 234.036 168.48 
L 234.036 162.54 
L 225.72 162.54 
L 225.72 168.48 
" clip-path="url(#p63a8a49cdb)" style="fill: #440154"/>
    <path d="M 225.72 162.54 
L 234.036 162.54 
L 234.036 156.6 
L 225.72 156.6 
L 225.72 162.54 
" clip-path="url(#p63a8a49cdb)" style="fill: #440154"/>
    <path d="M 225.72 156.6 
L 234.036 156.6 
L 234.036 150.66 
L 225.72 150.66 
L 225.72 156.6 
" clip-path="url(#p63a8a49cdb)" style="fill: #440154"/>
    <path d="M 225.72 150.66 
L 234.036 150.66 
L 234.036 144.72 
L 225.72 144.72 
L 225.72 150.66 
" clip-path="url(#p63a8a49cdb)" style="fill: #440154"/>
    <path d="M 225.72 144.72 
L 234.036 144.72 
L 234.036 138.78 
L 225.72 138.78 
L 225.72 144.72 
" clip-path="url(#p63a8a49cdb)" style="fill: #440154"/>
    <path d="M 225.72 138.78 
L 234.036 138.78 
L 234.036 132.84 
L 225.72 132.84 
L 225.72 138.78 
" clip-path="url(#p63a8a49cdb)" style="fill: #440154"/>
    <path d="M 225.72 132.84 
L 234.036 132.84 
L 234.036 126.9 
L 225.72 126.9 
L 225.72 132.84 
" clip-path="url(#p63a8a49cdb)" style="fill: #440154"/>
    <path d="M 225.72 126.9 
L 234.036 126.9 
L 234.036 120.96 
L 225.72 120.96 
L 225.72 126.9 
" clip-path="url(#p63a8a49cdb)" style="fill: #440154"/>
    <path d="M 225.72 120.96 
L 234.036 120.96 
L 234.036 115.02 
L 225.72 115.02 
L 225.72 120.96 
" clip-path="url(#p63a8a49cdb)" style="fill: #440154"/>
    <path d="M 225.72 115.02 
L 234.036 115.02 
L 234.036 109.08 
L 225.72 109.08 
L 225.72 115.02 
" clip-path="url(#p63a8a49cdb)" style="fill: #440154"/>
    <path d="M 225.72 109.08 
L 234.036 109.08 
L 234.036 103.14 
L 225.72 103.14 
L 225.72 109.08 
" clip-path="url(#p63a8a49cdb)" style="fill: #471365"/>
    <path d="M 225.72 103.14 
L 234.036 103.14 
L 234.036 97.2 
L 225.72 97.2 
L 225.72 103.14 
" clip-path="url(#p63a8a49cdb)" style="fill: #472a7a"/>
    <path d="M 225.72 97.2 
L 234.036 97.2 
L 234.036 91.26 
L 225.72 91.26 
L 225.72 97.2 
" clip-path="url(#p63a8a49cdb)" style="fill: #424086"/>
    <path d="M 225.72 91.26 
L 234.036 91.26 
L 234.036 85.32 
L 225.72 85.32 
L 225.72 91.26 
" clip-path="url(#p63a8a49cdb)" style="fill: #3a548c"/>
    <path d="M 225.72 85.32 
L 234.036 85.32 
L 234.036 79.38 
L 225.72 79.38 
L 225.72 85.32 
" clip-path="url(#p63a8a49cdb)" style="fill: #31678e"/>
    <path d="M 225.72 79.38 
L 234.036 79.38 
L 234.036 73.44 
L 225.72 73.44 
L 225.72 79.38 
" clip-path="url(#p63a8a49cdb)" style="fill: #2a788e"/>
    <path d="M 225.72 73.44 
L 234.036 73.44 
L 234.036 67.5 
L 225.72 67.5 
L 225.72 73.44 
" clip-path="url(#p63a8a49cdb)" style="fill: #23898e"/>
    <path d="M 225.72 67.5 
L 234.036 67.5 
L 234.036 61.56 
L 225.72 61.56 
L 225.72 67.5 
" clip-path="url(#p63a8a49cdb)" style="fill: #1f9a8a"/>
    <path d="M 225.72 61.56 
L 234.036 61.56 
L 234.036 55.62 
L 225.72 55.62 
L 225.72 61.56 
" clip-path="url(#p63a8a49cdb)" style="fill: #25ab82"/>
    <path d="M 225.72 55.62 
L 234.036 55.62 
L 234.036 49.68 
L 225.72 49.68 
L 225.72 55.62 
" clip-path="url(#p63a8a49cdb)" style="fill: #3bbb75"/>
    <path d="M 225.72 49.68 
L 234.036 49.68 
L 234.036 43.74 
L 225.72 43.74 
L 225.72 49.68 
" clip-path="url(#p63a8a49cdb)" style="fill: #5ec962"/>
    <path d="M 225.72 43.74 
L 234.036 43.74 
L 234.036 37.8 
L 225.72 37.8 
L 225.72 43.74 
" clip-path="url(#p63a8a49cdb)" style="fill: #89d548"/>
    <path d="M 225.72 37.8 
L 234.036 37.8 
L 234.036 31.86 
L 225.72 31.86 
L 225.72 37.8 
" clip-path="url(#p63a8a49cdb)" style="fill: #b8de29"/>
    <path d="M 225.72 31.86 
L 234.036 31.86 
L 234.036 25.92 
L 225.72 25.92 
L 225.72 31.86 
" clip-path="url(#p63a8a49cdb)" style="fill: #e7e419"/>
   </g>
   <g id="matplotlib.axis_3"/>
   <g id="matplotlib.axis_4">
    <g id="ytick_4">
     <g id="line2d_7">
      <defs>
       <path id="mc01384ccc9" d="M 0 0 
L 3.5 0 
" style="stroke: #000000; stroke-width: 0.8"/>
      </defs>
      <g>
       <use xlink:href="#mc01384ccc9" x="234.036" y="186.3" style="stroke: #000000; stroke-width: 0.8"/>
      </g>
     </g>
     <g id="text_12">
      <!-- $\mathdefault{74560}$ -->
      <g transform="translate(241.036 190.099219) scale(0.1 -0.1)">
       <defs>
        <path id="DejaVuSans-2212" d="M 678 2272 
L 4684 2272 
L 4684 1741 
L 678 1741 
L 678 2272 
z
" transform="scale(0.015625)"/>
        <path id="DejaVuSans-36" d="M 2113 2584 
Q 1688 2584 1439 2293 
Q 1191 2003 1191 1497 
Q 1191 994 1439 701 
Q 1688 409 2113 409 
Q 2538 409 2786 701 
Q 3034 994 3034 1497 
Q 3034 2003 2786 2293 
Q 2538 2584 2113 2584 
z
M 3366 4563 
L 3366 3988 
Q 3128 4100 2886 4159 
Q 2644 4219 2406 4219 
Q 1781 4219 1451 3797 
Q 1122 3375 1075 2522 
Q 1259 2794 1537 2939 
Q 1816 3084 2150 3084 
Q 2853 3084 3261 2657 
Q 3669 2231 3669 1497 
Q 3669 778 3244 343 
Q 2819 -91 2113 -91 
Q 1303 -91 875 529 
Q 447 1150 447 2328 
Q 447 3434 972 4092 
Q 1497 4750 2381 4750 
Q 2619 4750 2861 4703 
Q 3103 4656 3366 4563 
z
" transform="scale(0.015625)"/>
       </defs>
       <use xlink:href="#DejaVuSans-2212" transform="translate(0 0.78125)"/>
       <use xlink:href="#DejaVuSans-37" transform="translate(83.789062 0.78125)"/>
       <use xlink:href="#DejaVuSans-34" transform="translate(147.412109 0.78125)"/>
       <use xlink:href="#DejaVuSans-35" transform="translate(211.035156 0.78125)"/>
       <use xlink:href="#DejaVuSans-36" transform="translate(274.658203 0.78125)"/>
       <use xlink:href="#DejaVuSans-30" transform="translate(338.28125 0.78125)"/>
      </g>
     </g>
    </g>
    <g id="ytick_5">
     <g id="line2d_8">
      <g>
       <use xlink:href="#mc01384ccc9" x="234.036" y="168.48" style="stroke: #000000; stroke-width: 0.8"/>
      </g>
     </g>
     <g id="text_13">
      <!-- $\mathdefault{74320}$ -->
      <g transform="translate(241.036 172.279219) scale(0.1 -0.1)">
       <use xlink:href="#DejaVuSans-2212" transform="translate(0 0.78125)"/>
       <use xlink:href="#DejaVuSans-37" transform="translate(83.789062 0.78125)"/>
       <use xlink:href="#DejaVuSans-34" transform="translate(147.412109 0.78125)"/>
       <use xlink:href="#DejaVuSans-33" transform="translate(211.035156 0.78125)"/>
       <use xlink:href="#DejaVuSans-32" transform="translate(274.658203 0.78125)"/>
       <use xlink:href="#DejaVuSans-30" transform="translate(338.28125 0.78125)"/>
      </g>
     </g>
    </g>
    <g id="ytick_6">
     <g id="line2d_9">
      <g>
       <use xlink:href="#mc01384ccc9" x="234.036" y="150.66" style="stroke: #000000; stroke-width: 0.8"/>
      </g>
     </g>
     <g id="text_14">
      <!-- $\mathdefault{74080}$ -->
      <g transform="translate(241.036 154.459219) scale(0.1 -0.1)">
       <defs>
        <path id="DejaVuSans-38" d="M 2034 2216 
Q 1584 2216 1326 1975 
Q 1069 1734 1069 1313 
Q 1069 891 1326 650 
Q 1584 409 2034 409 
Q 2484 409 2743 651 
Q 3003 894 3003 1313 
Q 3003 1734 2745 1975 
Q 2488 2216 2034 2216 
z
M 1403 2484 
Q 997 2584 770 2862 
Q 544 3141 544 3541 
Q 544 4100 942 4425 
Q 1341 4750 2034 4750 
Q 2731 4750 3128 4425 
Q 3525 4100 3525 3541 
Q 3525 3141 3298 2862 
Q 3072 2584 2669 2484 
Q 3125 2378 3379 2068 
Q 3634 1759 3634 1313 
Q 3634 634 3220 271 
Q 2806 -91 2034 -91 
Q 1263 -91 848 271 
Q 434 634 434 1313 
Q 434 1759 690 2068 
Q 947 2378 1403 2484 
z
M 1172 3481 
Q 1172 3119 1398 2916 
Q 1625 2713 2034 2713 
Q 2441 2713 2670 2916 
Q 2900 3119 2900 3481 
Q 2900 3844 2670 4047 
Q 2441 4250 2034 4250 
Q 1625 4250 1398 4047 
Q 1172 3844 1172 3481 
z
" transform="scale(0.015625)"/>
       </defs>
       <use xlink:href="#DejaVuSans-2212" transform="translate(0 0.78125)"/>
       <use xlink:href="#DejaVuSans-37" transform="translate(83.789062 0.78125)"/>
       <use xlink:href="#DejaVuSans-34" transform="translate(147.412109 0.78125)"/>
       <use xlink:href="#DejaVuSans-30" transform="translate(211.035156 0.78125)"/>
       <use xlink:href="#DejaVuSans-38" transform="translate(274.658203 0.78125)"/>
       <use xlink:href="#DejaVuSans-30" transform="translate(338.28125 0.78125)"/>
      </g>
     </g>
    </g>
    <g id="ytick_7">
     <g id="line2d_10">
      <g>
       <use xlink:href="#mc01384ccc9" x="234.036" y="132.84" style="stroke: #000000; stroke-width: 0.8"/>
      </g>
     </g>
     <g id="text_15">
      <!-- $\mathdefault{73840}$ -->
      <g transform="translate(241.036 136.639219) scale(0.1 -0.1)">
       <use xlink:href="#DejaVuSans-2212" transform="translate(0 0.78125)"/>
       <use xlink:href="#DejaVuSans-37" transform="translate(83.789062 0.78125)"/>
       <use xlink:href="#DejaVuSans-33" transform="translate(147.412109 0.78125)"/>
       <use xlink:href="#DejaVuSans-38" transform="translate(211.035156 0.78125)"/>
       <use xlink:href="#DejaVuSans-34" transform="translate(274.658203 0.78125)"/>
       <use xlink:href="#DejaVuSans-30" transform="translate(338.28125 0.78125)"/>
      </g>
     </g>
    </g>
    <g id="ytick_8">
     <g id="line2d_11">
      <g>
       <use xlink:href="#mc01384ccc9" x="234.036" y="115.02" style="stroke: #000000; stroke-width: 0.8"/>
      </g>
     </g>
     <g id="text_16">
      <!-- $\mathdefault{73600}$ -->
      <g transform="translate(241.036 118.819219) scale(0.1 -0.1)">
       <use xlink:href="#DejaVuSans-2212" transform="translate(0 0.78125)"/>
       <use xlink:href="#DejaVuSans-37" transform="translate(83.789062 0.78125)"/>
       <use xlink:href="#DejaVuSans-33" transform="translate(147.412109 0.78125)"/>
       <use xlink:href="#DejaVuSans-36" transform="translate(211.035156 0.78125)"/>
       <use xlink:href="#DejaVuSans-30" transform="translate(274.658203 0.78125)"/>
       <use xlink:href="#DejaVuSans-30" transform="translate(338.28125 0.78125)"/>
      </g>
     </g>
    </g>
    <g id="ytick_9">
     <g id="line2d_12">
      <g>
       <use xlink:href="#mc01384ccc9" x="234.036" y="97.2" style="stroke: #000000; stroke-width: 0.8"/>
      </g>
     </g>
     <g id="text_17">
      <!-- $\mathdefault{73360}$ -->
      <g transform="translate(241.036 100.999219) scale(0.1 -0.1)">
       <use xlink:href="#DejaVuSans-2212" transform="translate(0 0.78125)"/>
       <use xlink:href="#DejaVuSans-37" transform="translate(83.789062 0.78125)"/>
       <use xlink:href="#DejaVuSans-33" transform="translate(147.412109 0.78125)"/>
       <use xlink:href="#DejaVuSans-33" transform="translate(211.035156 0.78125)"/>
       <use xlink:href="#DejaVuSans-36" transform="translate(274.658203 0.78125)"/>
       <use xlink:href="#DejaVuSans-30" transform="translate(338.28125 0.78125)"/>
      </g>
     </g>
    </g>
    <g id="ytick_10">
     <g id="line2d_13">
      <g>
       <use xlink:href="#mc01384ccc9" x="234.036" y="79.38" style="stroke: #000000; stroke-width: 0.8"/>
      </g>
     </g>
     <g id="text_18">
      <!-- $\mathdefault{73120}$ -->
      <g transform="translate(241.036 83.179219) scale(0.1 -0.1)">
       <use xlink:href="#DejaVuSans-2212" transform="translate(0 0.78125)"/>
       <use xlink:href="#DejaVuSans-37" transform="translate(83.789062 0.78125)"/>
       <use xlink:href="#DejaVuSans-33" transform="translate(147.412109 0.78125)"/>
       <use xlink:href="#DejaVuSans-31" transform="translate(211.035156 0.78125)"/>
       <use xlink:href="#DejaVuSans-32" transform="translate(274.658203 0.78125)"/>
       <use xlink:href="#DejaVuSans-30" transform="translate(338.28125 0.78125)"/>
      </g>
     </g>
    </g>
    <g id="ytick_11">
     <g id="line2d_14">
      <g>
       <use xlink:href="#mc01384ccc9" x="234.036" y="61.56" style="stroke: #000000; stroke-width: 0.8"/>
      </g>
     </g>
     <g id="text_19">
      <!-- $\mathdefault{72880}$ -->
      <g transform="translate(241.036 65.359219) scale(0.1 -0.1)">
       <use xlink:href="#DejaVuSans-2212" transform="translate(0 0.78125)"/>
       <use xlink:href="#DejaVuSans-37" transform="translate(83.789062 0.78125)"/>
       <use xlink:href="#DejaVuSans-32" transform="translate(147.412109 0.78125)"/>
       <use xlink:href="#DejaVuSans-38" transform="translate(211.035156 0.78125)"/>
       <use xlink:href="#DejaVuSans-38" transform="translate(274.658203 0.78125)"/>
       <use xlink:href="#DejaVuSans-30" transform="translate(338.28125 0.78125)"/>
      </g>
     </g>
    </g>
    <g id="ytick_12">
     <g id="line2d_15">
      <g>
       <use xlink:href="#mc01384ccc9" x="234.036" y="43.74" style="stroke: #000000; stroke-width: 0.8"/>
      </g>
     </g>
     <g id="text_20">
      <!-- $\mathdefault{72640}$ -->
      <g transform="translate(241.036 47.539219) scale(0.1 -0.1)">
       <use xlink:href="#DejaVuSans-2212" transform="translate(0 0.78125)"/>
       <use xlink:href="#DejaVuSans-37" transform="translate(83.789062 0.78125)"/>
       <use xlink:href="#DejaVuSans-32" transform="translate(147.412109 0.78125)"/>
       <use xlink:href="#DejaVuSans-36" transform="translate(211.035156 0.78125)"/>
       <use xlink:href="#DejaVuSans-34" transform="translate(274.658203 0.78125)"/>
       <use xlink:href="#DejaVuSans-30" transform="translate(338.28125 0.78125)"/>
      </g>
     </g>
    </g>
    <g id="ytick_13">
     <g id="line2d_16">
      <g>
       <use xlink:href="#mc01384ccc9" x="234.036" y="25.92" style="stroke: #000000; stroke-width: 0.8"/>
      </g>
     </g>
     <g id="text_21">
      <!-- $\mathdefault{72400}$ -->
      <g transform="translate(241.036 29.719219) scale(0.1 -0.1)">
       <use xlink:href="#DejaVuSans-2212" transform="translate(0 0.78125)"/>
       <use xlink:href="#DejaVuSans-37" transform="translate(83.789062 0.78125)"/>
       <use xlink:href="#DejaVuSans-32" transform="translate(147.412109 0.78125)"/>
       <use xlink:href="#DejaVuSans-34" transform="translate(211.035156 0.78125)"/>
       <use xlink:href="#DejaVuSans-30" transform="translate(274.658203 0.78125)"/>
       <use xlink:href="#DejaVuSans-30" transform="translate(338.28125 0.78125)"/>
      </g>
     </g>
    </g>
    <g id="text_22">
     <!-- log likelihood -->
     <g transform="translate(294.354125 148.704375) rotate(-90) scale(0.12 -0.12)">
      <defs>
       <path id="DejaVuSans-67" d="M 2906 1791 
Q 2906 2416 2648 2759 
Q 2391 3103 1925 3103 
Q 1463 3103 1205 2759 
Q 947 2416 947 1791 
Q 947 1169 1205 825 
Q 1463 481 1925 481 
Q 2391 481 2648 825 
Q 2906 1169 2906 1791 
z
M 3481 434 
Q 3481 -459 3084 -895 
Q 2688 -1331 1869 -1331 
Q 1566 -1331 1297 -1286 
Q 1028 -1241 775 -1147 
L 775 -588 
Q 1028 -725 1275 -790 
Q 1522 -856 1778 -856 
Q 2344 -856 2625 -561 
Q 2906 -266 2906 331 
L 2906 616 
Q 2728 306 2450 153 
Q 2172 0 1784 0 
Q 1141 0 747 490 
Q 353 981 353 1791 
Q 353 2603 747 3093 
Q 1141 3584 1784 3584 
Q 2172 3584 2450 3431 
Q 2728 3278 2906 2969 
L 2906 3500 
L 3481 3500 
L 3481 434 
z
" transform="scale(0.015625)"/>
       <path id="DejaVuSans-6b" d="M 581 4863 
L 1159 4863 
L 1159 1991 
L 2875 3500 
L 3609 3500 
L 1753 1863 
L 3688 0 
L 2938 0 
L 1159 1709 
L 1159 0 
L 581 0 
L 581 4863 
z
" transform="scale(0.015625)"/>
       <path id="DejaVuSans-68" d="M 3513 2113 
L 3513 0 
L 2938 0 
L 2938 2094 
Q 2938 2591 2744 2837 
Q 2550 3084 2163 3084 
Q 1697 3084 1428 2787 
Q 1159 2491 1159 1978 
L 1159 0 
L 581 0 
L 581 4863 
L 1159 4863 
L 1159 2956 
Q 1366 3272 1645 3428 
Q 1925 3584 2291 3584 
Q 2894 3584 3203 3211 
Q 3513 2838 3513 2113 
z
" transform="scale(0.015625)"/>
      </defs>
      <use xlink:href="#DejaVuSans-6c"/>
      <use xlink:href="#DejaVuSans-6f" x="27.783203"/>
      <use xlink:href="#DejaVuSans-67" x="88.964844"/>
      <use xlink:href="#DejaVuSans-20" x="152.441406"/>
      <use xlink:href="#DejaVuSans-6c" x="184.228516"/>
      <use xlink:href="#DejaVuSans-69" x="212.011719"/>
      <use xlink:href="#DejaVuSans-6b" x="239.794922"/>
      <use xlink:href="#DejaVuSans-65" x="294.080078"/>
      <use xlink:href="#DejaVuSans-6c" x="355.603516"/>
      <use xlink:href="#DejaVuSans-69" x="383.386719"/>
      <use xlink:href="#DejaVuSans-68" x="411.169922"/>
      <use xlink:href="#DejaVuSans-6f" x="474.548828"/>
      <use xlink:href="#DejaVuSans-6f" x="535.730469"/>
      <use xlink:href="#DejaVuSans-64" x="596.912109"/>
     </g>
    </g>
    <g id="text_23">
     <!-- $\times\mathdefault{10^{3}}\mathdefault{}$ -->
     <g transform="translate(208.036 22.92) scale(0.1 -0.1)">
      <use xlink:href="#DejaVuSans-d7" transform="translate(0 0.765625)"/>
      <use xlink:href="#DejaVuSans-31" transform="translate(83.789062 0.765625)"/>
      <use xlink:href="#DejaVuSans-30" transform="translate(147.412109 0.765625)"/>
      <use xlink:href="#DejaVuSans-33" transform="translate(211.992188 39.046875) scale(0.7)"/>
     </g>
    </g>
   </g>
   <g id="LineCollection_1"/>
   <g id="patch_8">
    <path d="M 225.72 192.24 
L 229.878 192.24 
L 234.036 192.24 
L 234.036 25.92 
L 229.878 25.92 
L 225.72 25.92 
L 225.72 192.24 
z
" style="fill: none; stroke: #000000; stroke-width: 0.8; stroke-linejoin: miter; stroke-linecap: square"/>
   </g>
  </g>
 </g>
 <defs>
  <clipPath id="p698052f00a">
   <rect x="36" y="25.92" width="178.56" height="166.32"/>
  </clipPath>
  <clipPath id="p63a8a49cdb">
   <rect x="225.72" y="25.92" width="8.316" height="166.32"/>
  </clipPath>
 </defs>
</svg>
