<?xml version="1.0" encoding="utf-8" standalone="no"?>
<!DOCTYPE svg PUBLIC "-//W3C//DTD SVG 1.1//EN"
  "http://www.w3.org/Graphics/SVG/1.1/DTD/svg11.dtd">
<svg xmlns:xlink="http://www.w3.org/1999/xlink" width="288pt" height="216pt" viewBox="0 0 288 216" xmlns="http://www.w3.org/2000/svg" version="1.1">
 <metadata>
  <rdf:RDF xmlns:dc="http://purl.org/dc/elements/1.1/" xmlns:cc="http://creativecommons.org/ns#" xmlns:rdf="http://www.w3.org/1999/02/22-rdf-syntax-ns#">
   <cc:Work>
    <dc:type rdf:resource="http://purl.org/dc/dcmitype/StillImage"/>
    <dc:date>2023-07-18T17:55:47.779395</dc:date>
    <dc:format>image/svg+xml</dc:format>
    <dc:creator>
     <cc:Agent>
      <dc:title>Matplotlib v3.7.1, https://matplotlib.org/</dc:title>
     </cc:Agent>
    </dc:creator>
   </cc:Work>
  </rdf:RDF>
 </metadata>
 <defs>
  <style type="text/css">*{stroke-linejoin: round; stroke-linecap: butt}</style>
 </defs>
 <g id="figure_1">
  <g id="patch_1">
   <path d="M 0 216 
L 288 216 
L 288 0 
L 0 0 
z
" style="fill: #ffffff"/>
  </g>
  <g id="axes_1">
   <g id="patch_2">
    <path d="M 36 192.24 
L 214.56 192.24 
L 214.56 25.92 
L 36 25.92 
z
" style="fill: #ffffff"/>
   </g>
   <g id="PathCollection_1">
    <path d="M 36.155297 192.24 
L 36 192.24 
L 36 192.07903 
z
" clip-path="url(#p8d6b1cfb56)" style="fill: #440154"/>
   </g>
   <g id="PathCollection_2">
    <path d="M 37.189488 192.24 
L 36.155297 192.24 
L 36 192.07903 
L 36 191.007054 
z
" clip-path="url(#p8d6b1cfb56)" style="fill: #440154"/>
   </g>
   <g id="PathCollection_3">
    <path d="M 38.223679 192.24 
L 37.189488 192.24 
L 36 191.007054 
L 36 189.935079 
z
" clip-path="url(#p8d6b1cfb56)" style="fill: #440154"/>
   </g>
   <g id="PathCollection_4">
    <path d="M 39.25787 192.24 
L 38.223679 192.24 
L 36 189.935079 
L 36 188.863104 
z
" clip-path="url(#p8d6b1cfb56)" style="fill: #440154"/>
   </g>
   <g id="PathCollection_5">
    <path d="M 40.292062 192.24 
L 39.25787 192.24 
L 36 188.863104 
L 36 187.791129 
z
" clip-path="url(#p8d6b1cfb56)" style="fill: #440154"/>
   </g>
   <g id="PathCollection_6">
    <path d="M 41.326253 192.24 
L 40.292062 192.24 
L 36 187.791129 
L 36 186.719154 
z
" clip-path="url(#p8d6b1cfb56)" style="fill: #440154"/>
   </g>
   <g id="PathCollection_7">
    <path d="M 36 186.696 
L 36 185.432747 
L 37.124212 186.696 
L 41.952 191.763655 
L 42.468155 192.24 
L 41.952 192.24 
L 41.326253 192.24 
L 36 186.719154 
z
" clip-path="url(#p8d6b1cfb56)" style="fill: #440154"/>
    <path d="M 206.484134 25.92 
L 208.608 25.92 
L 214.56 25.92 
L 214.56 31.464 
L 214.56 33.703486 
L 212.121682 31.464 
L 208.608 28.075622 
z
" clip-path="url(#p8d6b1cfb56)" style="fill: #440154"/>
   </g>
   <g id="PathCollection_8">
    <path d="M 37.124212 186.696 
L 36 185.432747 
L 36 184.141606 
L 38.273242 186.696 
L 41.952 190.557535 
L 43.775072 192.24 
L 42.468155 192.24 
L 41.952 191.763655 
z
" clip-path="url(#p8d6b1cfb56)" style="fill: #440154"/>
    <path d="M 192.075552 25.92 
L 196.704 25.92 
L 202.656 25.92 
L 206.484134 25.92 
L 208.608 28.075622 
L 212.121682 31.464 
L 214.56 33.703486 
L 214.56 37.008 
L 214.56 42.552 
L 214.56 47.630897 
L 208.608 42.6869 
L 208.45376 42.552 
L 202.656 37.217973 
L 202.439496 37.008 
L 197.001012 31.464 
L 196.704 31.145962 
z
" clip-path="url(#p8d6b1cfb56)" style="fill: #440154"/>
   </g>
   <g id="PathCollection_9">
    <path d="M 38.273242 186.696 
L 36 184.141606 
L 36 182.850465 
L 39.422272 186.696 
L 41.952 189.351416 
L 45.081989 192.24 
L 43.775072 192.24 
L 41.952 190.557535 
z
" clip-path="url(#p8d6b1cfb56)" style="fill: #440154"/>
    <path d="M 183.52166 31.464 
L 179.140368 25.92 
L 184.8 25.92 
L 190.752 25.92 
L 192.075552 25.92 
L 196.704 31.145962 
L 197.001012 31.464 
L 202.439496 37.008 
L 202.656 37.217973 
L 208.45376 42.552 
L 208.608 42.6869 
L 214.56 47.630897 
L 214.56 48.096 
L 214.56 53.64 
L 214.56 59.184 
L 214.56 60.134911 
L 213.218053 59.184 
L 208.608 55.741019 
L 205.940247 53.64 
L 202.656 50.915021 
L 199.435526 48.096 
L 196.704 45.578 
L 193.594123 42.552 
L 190.752 39.640718 
L 188.318462 37.008 
L 184.8 33.002114 
z
" clip-path="url(#p8d6b1cfb56)" style="fill: #440154"/>
   </g>
   <g id="PathCollection_10">
    <path d="M 39.422272 186.696 
L 36 182.850465 
L 36 181.559324 
L 40.571303 186.696 
L 41.952 188.145297 
L 46.388907 192.24 
L 45.081989 192.24 
L 41.952 189.351416 
z
" clip-path="url(#p8d6b1cfb56)" style="fill: #440154"/>
    <path d="M 171.369096 31.464 
L 167.478473 25.92 
L 172.896 25.92 
L 178.848 25.92 
L 179.140368 25.92 
L 183.52166 31.464 
L 184.8 33.002114 
L 188.318462 37.008 
L 190.752 39.640718 
L 193.594123 42.552 
L 196.704 45.578 
L 199.435526 48.096 
L 202.656 50.915021 
L 205.940247 53.64 
L 208.608 55.741019 
L 213.218053 59.184 
L 214.56 60.134911 
L 214.56 64.728 
L 214.56 70.272 
L 214.56 71.469306 
L 212.669849 70.272 
L 208.608 67.556434 
L 204.600541 64.728 
L 202.656 63.279999 
L 197.447369 59.184 
L 196.704 58.567459 
L 191.080565 53.64 
L 190.752 53.336459 
L 185.385402 48.096 
L 184.8 47.493483 
L 180.260232 42.552 
L 178.848 40.932195 
L 175.614841 37.008 
L 172.896 33.5314 
z
" clip-path="url(#p8d6b1cfb56)" style="fill: #440154"/>
   </g>
   <g id="PathCollection_11">
    <path d="M 40.571303 186.696 
L 36 181.559324 
L 36 181.152 
L 36 180.04308 
L 36.8736 181.152 
L 41.720333 186.696 
L 41.952 186.939177 
L 47.695824 192.24 
L 46.388907 192.24 
L 41.952 188.145297 
z
" clip-path="url(#p8d6b1cfb56)" style="fill: #440154"/>
    <path d="M 160.333442 31.464 
L 156.8938 25.92 
L 160.992 25.92 
L 166.944 25.92 
L 167.478473 25.92 
L 171.369096 31.464 
L 172.896 33.5314 
L 175.614841 37.008 
L 178.848 40.932195 
L 180.260232 42.552 
L 184.8 47.493483 
L 185.385402 48.096 
L 190.752 53.336459 
L 191.080565 53.64 
L 196.704 58.567459 
L 197.447369 59.184 
L 202.656 63.279999 
L 204.600541 64.728 
L 208.608 67.556434 
L 212.669849 70.272 
L 214.56 71.469306 
L 214.56 75.816 
L 214.56 81.36 
L 214.56 81.82458 
L 213.735448 81.36 
L 208.608 78.307423 
L 204.649535 75.816 
L 202.656 74.490517 
L 196.704 70.306295 
L 196.657787 70.272 
L 190.752 65.641436 
L 189.651579 64.728 
L 184.8 60.473972 
L 183.410883 59.184 
L 178.848 54.709013 
L 177.819238 53.64 
L 172.896 48.237948 
L 172.773963 48.096 
L 168.249004 42.552 
L 166.944 40.865501 
L 164.128678 37.008 
L 160.992 32.473903 
z
" clip-path="url(#p8d6b1cfb56)" style="fill: #440154"/>
   </g>
   <g id="PathCollection_12">
    <path d="M 41.720333 186.696 
L 36.8736 181.152 
L 36 180.04308 
L 36 178.423093 
L 38.149817 181.152 
L 41.952 185.524312 
L 43.125578 186.696 
L 47.904 191.100818 
L 49.352312 192.24 
L 47.904 192.24 
L 47.695824 192.24 
L 41.952 186.939177 
z
" clip-path="url(#p8d6b1cfb56)" style="fill: #440154"/>
    <path d="M 147.196711 25.92 
L 149.088 25.92 
L 155.04 25.92 
L 156.8938 25.92 
L 160.333442 31.464 
L 160.992 32.473903 
L 164.128678 37.008 
L 166.944 40.865501 
L 168.249004 42.552 
L 172.773963 48.096 
L 172.896 48.237948 
L 177.819238 53.64 
L 178.848 54.709013 
L 183.410883 59.184 
L 184.8 60.473972 
L 189.651579 64.728 
L 190.752 65.641436 
L 196.657787 70.272 
L 196.704 70.306295 
L 202.656 74.490517 
L 204.649535 75.816 
L 208.608 78.307423 
L 213.735448 81.36 
L 214.56 81.82458 
L 214.56 86.904 
L 214.56 91.309863 
L 208.608 88.162539 
L 206.354525 86.904 
L 202.656 84.719907 
L 197.283761 81.36 
L 196.704 80.976624 
L 190.752 76.816756 
L 189.400276 75.816 
L 184.8 72.21382 
L 182.461399 70.272 
L 178.848 67.099001 
L 176.302474 64.728 
L 172.896 61.372771 
L 170.801779 59.184 
L 166.944 54.920625 
L 165.852407 53.64 
L 161.379811 48.096 
L 160.992 47.589174 
L 157.36137 42.552 
L 155.04 39.148792 
L 153.665201 37.008 
L 150.287268 31.464 
L 149.088 29.391809 
z
" clip-path="url(#p8d6b1cfb56)" style="fill: #440154"/>
   </g>
   <g id="PathCollection_13">
    <path d="M 38.149817 181.152 
L 36 178.423093 
L 36 176.803105 
L 39.426033 181.152 
L 41.952 184.05673 
L 44.595528 186.696 
L 47.904 189.745798 
L 51.075032 192.24 
L 49.352312 192.24 
L 47.904 191.100818 
L 43.125578 186.696 
L 41.952 185.524312 
z
" clip-path="url(#p8d6b1cfb56)" style="fill: #440154"/>
    <path d="M 141.070443 31.464 
L 138.265464 25.92 
L 143.136 25.92 
L 147.196711 25.92 
L 149.088 29.391809 
L 150.287268 31.464 
L 153.665201 37.008 
L 155.04 39.148792 
L 157.36137 42.552 
L 160.992 47.589174 
L 161.379811 48.096 
L 165.852407 53.64 
L 166.944 54.920625 
L 170.801779 59.184 
L 172.896 61.372771 
L 176.302474 64.728 
L 178.848 67.099001 
L 182.461399 70.272 
L 184.8 72.21382 
L 189.400276 75.816 
L 190.752 76.816756 
L 196.704 80.976624 
L 197.283761 81.36 
L 202.656 84.719907 
L 206.354525 86.904 
L 208.608 88.162539 
L 214.56 91.309863 
L 214.56 92.448 
L 214.56 97.992 
L 214.56 100.074579 
L 210.114098 97.992 
L 208.608 97.246051 
L 202.656 94.134492 
L 199.610132 92.448 
L 196.704 90.745613 
L 190.752 87.047205 
L 190.534073 86.904 
L 184.8 82.91532 
L 182.694874 81.36 
L 178.848 78.351013 
L 175.79696 75.816 
L 172.896 73.264041 
L 169.69468 70.272 
L 166.944 67.549905 
L 164.260796 64.728 
L 160.992 61.087702 
L 159.38401 59.184 
L 155.04 53.737379 
L 154.966968 53.64 
L 151.023828 48.096 
L 149.088 45.215539 
L 147.404673 42.552 
L 144.087682 37.008 
L 143.136 35.33213 
z
" clip-path="url(#p8d6b1cfb56)" style="fill: #440154"/>
   </g>
   <g id="PathCollection_14">
    <path d="M 39.426033 181.152 
L 36 176.803105 
L 36 175.608 
L 36 175.065931 
L 36.3704 175.608 
L 40.70225 181.152 
L 41.952 182.589148 
L 46.065477 186.696 
L 47.904 188.390777 
L 52.797752 192.24 
L 51.075032 192.24 
L 47.904 189.745798 
L 44.595528 186.696 
L 41.952 184.05673 
z
" clip-path="url(#p8d6b1cfb56)" style="fill: #440154"/>
    <path d="M 130.018799 25.92 
L 131.232 25.92 
L 137.184 25.92 
L 138.265464 25.92 
L 141.070443 31.464 
L 143.136 35.33213 
L 144.087682 37.008 
L 147.404673 42.552 
L 149.088 45.215539 
L 151.023828 48.096 
L 154.966968 53.64 
L 155.04 53.737379 
L 159.38401 59.184 
L 160.992 61.087702 
L 164.260796 64.728 
L 166.944 67.549905 
L 169.69468 70.272 
L 172.896 73.264041 
L 175.79696 75.816 
L 178.848 78.351013 
L 182.694874 81.36 
L 184.8 82.91532 
L 190.534073 86.904 
L 190.752 87.047205 
L 196.704 90.745613 
L 199.610132 92.448 
L 202.656 94.134492 
L 208.608 97.246051 
L 210.114098 97.992 
L 214.56 100.074579 
L 214.56 103.536 
L 214.56 108.248002 
L 208.608 105.649583 
L 204.042248 103.536 
L 202.656 102.857503 
L 196.704 99.778273 
L 193.451302 97.992 
L 190.752 96.423183 
L 184.8 92.747876 
L 184.341696 92.448 
L 178.848 88.640308 
L 176.494014 86.904 
L 172.896 84.091766 
L 169.611695 81.36 
L 166.944 79.008084 
L 163.54191 75.816 
L 160.992 73.279435 
L 158.151674 70.272 
L 155.04 66.777959 
L 153.32517 64.728 
L 149.088 59.354675 
L 148.961606 59.184 
L 145.073074 53.64 
L 143.136 50.712212 
L 141.510011 48.096 
L 138.252738 42.552 
L 137.184 40.632202 
L 135.288409 37.008 
L 132.544305 31.464 
L 131.232 28.66933 
z
" clip-path="url(#p8d6b1cfb56)" style="fill: #440154"/>
   </g>
   <g id="PathCollection_15">
    <path d="M 40.70225 181.152 
L 36.3704 175.608 
L 36 175.065931 
L 36 172.99914 
L 37.782655 175.608 
L 41.952 181.113328 
L 41.986398 181.152 
L 47.535426 186.696 
L 47.904 187.035757 
L 53.856 191.656167 
L 54.7483 192.24 
L 53.856 192.24 
L 52.797752 192.24 
L 47.904 188.390777 
L 46.065477 186.696 
L 41.952 182.589148 
z
" clip-path="url(#p8d6b1cfb56)" style="fill: #440154"/>
    <path d="M 124.628287 31.464 
L 122.361325 25.92 
L 125.28 25.92 
L 130.018799 25.92 
L 131.232 28.66933 
L 132.544305 31.464 
L 135.288409 37.008 
L 137.184 40.632202 
L 138.252738 42.552 
L 141.510011 48.096 
L 143.136 50.712212 
L 145.073074 53.64 
L 148.961606 59.184 
L 149.088 59.354675 
L 153.32517 64.728 
L 155.04 66.777959 
L 158.151674 70.272 
L 160.992 73.279435 
L 163.54191 75.816 
L 166.944 79.008084 
L 169.611695 81.36 
L 172.896 84.091766 
L 176.494014 86.904 
L 178.848 88.640308 
L 184.341696 92.448 
L 184.8 92.747876 
L 190.752 96.423183 
L 193.451302 97.992 
L 196.704 99.778273 
L 202.656 102.857503 
L 204.042248 103.536 
L 208.608 105.649583 
L 214.56 108.248002 
L 214.56 109.08 
L 214.56 114.624 
L 214.56 115.879247 
L 211.310972 114.624 
L 208.608 113.522341 
L 202.656 110.95602 
L 198.558405 109.08 
L 196.704 108.182757 
L 190.752 105.13126 
L 187.825111 103.536 
L 184.8 101.790998 
L 178.848 98.133401 
L 178.631108 97.992 
L 172.896 94.029596 
L 170.749465 92.448 
L 166.944 89.474477 
L 163.85868 86.904 
L 160.992 84.369811 
L 157.798474 81.36 
L 155.04 78.600071 
L 152.429937 75.816 
L 149.088 72.029819 
L 147.632657 70.272 
L 143.311353 64.728 
L 143.136 64.490028 
L 139.466598 59.184 
L 137.184 55.676589 
L 135.940119 53.64 
L 132.740705 48.096 
L 131.232 45.328827 
L 129.810453 42.552 
L 127.125167 37.008 
L 125.28 32.978792 
z
" clip-path="url(#p8d6b1cfb56)" style="fill: #440154"/>
   </g>
   <g id="PathCollection_16">
    <path d="M 37.782655 175.608 
L 36 172.99914 
L 36 170.932348 
L 39.194909 175.608 
L 41.952 179.248545 
L 43.64509 181.152 
L 47.904 185.443653 
L 49.377658 186.696 
L 53.856 190.142513 
L 57.06169 192.24 
L 54.7483 192.24 
L 53.856 191.656167 
L 47.904 187.035757 
L 47.535426 186.696 
L 41.986398 181.152 
L 41.952 181.113328 
z
" clip-path="url(#p8d6b1cfb56)" style="fill: #471164"/>
    <path d="M 117.271215 31.464 
L 115.181714 25.92 
L 119.328 25.92 
L 122.361325 25.92 
L 124.628287 31.464 
L 125.28 32.978792 
L 127.125167 37.008 
L 129.810453 42.552 
L 131.232 45.328827 
L 132.740705 48.096 
L 135.940119 53.64 
L 137.184 55.676589 
L 139.466598 59.184 
L 143.136 64.490028 
L 143.311353 64.728 
L 147.632657 70.272 
L 149.088 72.029819 
L 152.429937 75.816 
L 155.04 78.600071 
L 157.798474 81.36 
L 160.992 84.369811 
L 163.85868 86.904 
L 166.944 89.474477 
L 170.749465 92.448 
L 172.896 94.029596 
L 178.631108 97.992 
L 178.848 98.133401 
L 184.8 101.790998 
L 187.825111 103.536 
L 190.752 105.13126 
L 196.704 108.182757 
L 198.558405 109.08 
L 202.656 110.95602 
L 208.608 113.522341 
L 211.310972 114.624 
L 214.56 115.879247 
L 214.56 120.168 
L 214.56 123.070812 
L 208.608 120.922358 
L 206.631122 120.168 
L 202.656 118.570871 
L 196.704 116.030671 
L 193.601396 114.624 
L 190.752 113.260219 
L 184.8 110.230241 
L 182.675863 109.08 
L 178.848 106.887131 
L 173.373227 103.536 
L 172.896 103.226557 
L 166.944 99.120464 
L 165.412063 97.992 
L 160.992 94.53707 
L 158.490487 92.448 
L 155.04 89.387486 
L 152.418533 86.904 
L 149.088 83.550106 
L 147.051279 81.36 
L 143.136 76.881231 
L 142.263735 75.816 
L 137.989148 70.272 
L 137.184 69.163806 
L 134.162494 64.728 
L 131.232 60.146127 
L 130.654899 59.184 
L 127.510608 53.64 
L 125.28 49.458657 
L 124.597646 48.096 
L 121.968197 42.552 
L 119.49311 37.008 
L 119.328 36.619054 
z
" clip-path="url(#p8d6b1cfb56)" style="fill: #471164"/>
   </g>
   <g id="PathCollection_17">
    <path d="M 39.194909 175.608 
L 36 170.932348 
L 36 170.064 
L 36 168.527054 
L 36.901885 170.064 
L 40.607164 175.608 
L 41.952 177.383761 
L 45.303782 181.152 
L 47.904 183.772209 
L 51.344475 186.696 
L 53.856 188.628859 
L 59.375081 192.24 
L 57.06169 192.24 
L 53.856 190.142513 
L 49.377658 186.696 
L 47.904 185.443653 
L 43.64509 181.152 
L 41.952 179.248545 
z
" clip-path="url(#p8d6b1cfb56)" style="fill: #482979"/>
    <path d="M 112.388019 37.008 
L 110.349059 31.464 
L 108.425018 25.92 
L 113.376 25.92 
L 115.181714 25.92 
L 117.271215 31.464 
L 119.328 36.619054 
L 119.49311 37.008 
L 121.968197 42.552 
L 124.597646 48.096 
L 125.28 49.458657 
L 127.510608 53.64 
L 130.654899 59.184 
L 131.232 60.146127 
L 134.162494 64.728 
L 137.184 69.163806 
L 137.989148 70.272 
L 142.263735 75.816 
L 143.136 76.881231 
L 147.051279 81.36 
L 149.088 83.550106 
L 152.418533 86.904 
L 155.04 89.387486 
L 158.490487 92.448 
L 160.992 94.53707 
L 165.412063 97.992 
L 166.944 99.120464 
L 172.896 103.226557 
L 173.373227 103.536 
L 178.848 106.887131 
L 182.675863 109.08 
L 184.8 110.230241 
L 190.752 113.260219 
L 193.601396 114.624 
L 196.704 116.030671 
L 202.656 118.570871 
L 206.631122 120.168 
L 208.608 120.922358 
L 214.56 123.070812 
L 214.56 125.712 
L 214.56 129.919994 
L 208.608 127.919824 
L 202.656 125.78905 
L 202.452112 125.712 
L 196.704 123.432038 
L 190.752 120.90968 
L 189.103417 120.168 
L 184.8 118.128202 
L 178.848 115.111225 
L 177.943862 114.624 
L 172.896 111.749276 
L 168.521626 109.08 
L 166.944 108.060552 
L 160.992 103.94938 
L 160.431319 103.536 
L 155.04 99.316823 
L 153.458966 97.992 
L 149.088 94.098804 
L 147.356015 92.448 
L 143.136 88.167265 
L 141.971601 86.904 
L 137.184 81.369491 
L 137.176319 81.36 
L 132.945144 75.816 
L 131.232 73.422468 
L 129.119655 70.272 
L 125.63335 64.728 
L 125.28 64.133178 
L 122.522472 59.184 
L 119.627802 53.64 
L 119.328 53.033719 
L 117.034866 48.096 
L 114.614039 42.552 
L 113.376 39.552514 
z
" clip-path="url(#p8d6b1cfb56)" style="fill: #482979"/>
   </g>
   <g id="PathCollection_18">
    <path d="M 40.607164 175.608 
L 36.901885 170.064 
L 36 168.527054 
L 36 165.876494 
L 38.457241 170.064 
L 41.952 175.492661 
L 42.041236 175.608 
L 46.962474 181.152 
L 47.904 182.100764 
L 53.311292 186.696 
L 53.856 187.115205 
L 59.808 190.875003 
L 62.351803 192.24 
L 59.808 192.24 
L 59.375081 192.24 
L 53.856 188.628859 
L 51.344475 186.696 
L 47.904 183.772209 
L 45.303782 181.152 
L 41.952 177.383761 
z
" clip-path="url(#p8d6b1cfb56)" style="fill: #423f85"/>
    <path d="M 105.683429 37.008 
L 103.805882 31.464 
L 102.035087 25.92 
L 107.424 25.92 
L 108.425018 25.92 
L 110.349059 31.464 
L 112.388019 37.008 
L 113.376 39.552514 
L 114.614039 42.552 
L 117.034866 48.096 
L 119.328 53.033719 
L 119.627802 53.64 
L 122.522472 59.184 
L 125.28 64.133178 
L 125.63335 64.728 
L 129.119655 70.272 
L 131.232 73.422468 
L 132.945144 75.816 
L 137.176319 81.36 
L 137.184 81.369491 
L 141.971601 86.904 
L 143.136 88.167265 
L 147.356015 92.448 
L 149.088 94.098804 
L 153.458966 97.992 
L 155.04 99.316823 
L 160.431319 103.536 
L 160.992 103.94938 
L 166.944 108.060552 
L 168.521626 109.08 
L 172.896 111.749276 
L 177.943862 114.624 
L 178.848 115.111225 
L 184.8 118.128202 
L 189.103417 120.168 
L 190.752 120.90968 
L 196.704 123.432038 
L 202.452112 125.712 
L 202.656 125.78905 
L 208.608 127.919824 
L 214.56 129.919994 
L 214.56 131.256 
L 214.56 136.493141 
L 208.608 134.62813 
L 202.656 132.63944 
L 198.765118 131.256 
L 196.704 130.490649 
L 190.752 128.14459 
L 184.995231 125.712 
L 184.8 125.625385 
L 178.848 122.825027 
L 173.594864 120.168 
L 172.896 119.795333 
L 166.944 116.414668 
L 164.00592 114.624 
L 160.992 112.680698 
L 155.790001 109.08 
L 155.04 108.529505 
L 149.088 103.850114 
L 148.714901 103.536 
L 143.136 98.540662 
L 142.564485 97.992 
L 137.184 92.488468 
L 137.147065 92.448 
L 132.385383 86.904 
L 131.232 85.4711 
L 128.136711 81.36 
L 125.28 77.304733 
L 124.298061 75.816 
L 120.859709 70.272 
L 119.328 67.640524 
L 117.737699 64.728 
L 114.893683 59.184 
L 113.376 56.038045 
L 112.288511 53.64 
L 109.916711 48.096 
L 107.69049 42.552 
L 107.424 41.852797 
z
" clip-path="url(#p8d6b1cfb56)" style="fill: #423f85"/>
   </g>
   <g id="PathCollection_19">
    <path d="M 38.457241 170.064 
L 36 165.876494 
L 36 164.52 
L 36 162.860303 
L 36.832227 164.52 
L 40.012598 170.064 
L 41.952 173.076614 
L 43.910496 175.608 
L 47.904 180.218852 
L 48.881886 181.152 
L 53.856 185.324291 
L 55.801858 186.696 
L 59.808 189.195759 
L 65.481237 192.24 
L 62.351803 192.24 
L 59.808 190.875003 
L 53.856 187.115205 
L 53.311292 186.696 
L 47.904 182.100764 
L 46.962474 181.152 
L 42.041236 175.608 
L 41.952 175.492661 
z
" clip-path="url(#p8d6b1cfb56)" style="fill: #3a538b"/>
    <path d="M 101.152427 42.552 
L 99.313604 37.008 
L 97.583965 31.464 
L 95.953799 25.92 
L 101.472 25.92 
L 102.035087 25.92 
L 103.805882 31.464 
L 105.683429 37.008 
L 107.424 41.852797 
L 107.69049 42.552 
L 109.916711 48.096 
L 112.288511 53.64 
L 113.376 56.038045 
L 114.893683 59.184 
L 117.737699 64.728 
L 119.328 67.640524 
L 120.859709 70.272 
L 124.298061 75.816 
L 125.28 77.304733 
L 128.136711 81.36 
L 131.232 85.4711 
L 132.385383 86.904 
L 137.147065 92.448 
L 137.184 92.488468 
L 142.564485 97.992 
L 143.136 98.540662 
L 148.714901 103.536 
L 149.088 103.850114 
L 155.04 108.529505 
L 155.790001 109.08 
L 160.992 112.680698 
L 164.00592 114.624 
L 166.944 116.414668 
L 172.896 119.795333 
L 173.594864 120.168 
L 178.848 122.825027 
L 184.8 125.625385 
L 184.995231 125.712 
L 190.752 128.14459 
L 196.704 130.490649 
L 198.765118 131.256 
L 202.656 132.63944 
L 208.608 134.62813 
L 214.56 136.493141 
L 214.56 136.8 
L 214.56 142.344 
L 214.56 142.860925 
L 212.756829 142.344 
L 208.608 141.12395 
L 202.656 139.261932 
L 196.704 137.268903 
L 195.384128 136.8 
L 190.752 135.09439 
L 184.8 132.748083 
L 181.262892 131.256 
L 178.848 130.191947 
L 172.896 127.389259 
L 169.577566 125.712 
L 166.944 124.313339 
L 160.992 120.919972 
L 159.760157 120.168 
L 155.04 117.125567 
L 151.435841 114.624 
L 149.088 112.897432 
L 144.260128 109.08 
L 143.136 108.135659 
L 138.03719 103.536 
L 137.184 102.716395 
L 132.598778 97.992 
L 131.232 96.489233 
L 127.801007 92.448 
L 125.28 89.272927 
L 123.521815 86.904 
L 119.67558 81.36 
L 119.328 80.827598 
L 116.26231 75.816 
L 113.376 70.751092 
L 113.119663 70.272 
L 110.319471 64.728 
L 107.707986 59.184 
L 107.424 58.5465 
L 105.364804 53.64 
L 103.183863 48.096 
L 101.472 43.465912 
z
" clip-path="url(#p8d6b1cfb56)" style="fill: #3a538b"/>
   </g>
   <g id="PathCollection_20">
    <path d="M 40.012598 170.064 
L 36.832227 164.52 
L 36 162.860303 
L 36 159.460843 
L 38.536828 164.52 
L 41.567954 170.064 
L 41.952 170.660566 
L 45.779756 175.608 
L 47.904 178.060627 
L 51.143581 181.152 
L 53.856 183.42718 
L 58.493034 186.696 
L 59.808 187.516514 
L 65.76 190.554547 
L 69.628151 192.24 
L 65.76 192.24 
L 65.481237 192.24 
L 59.808 189.195759 
L 55.801858 186.696 
L 53.856 185.324291 
L 48.881886 181.152 
L 47.904 180.218852 
L 43.910496 175.608 
L 41.952 173.076614 
z
" clip-path="url(#p8d6b1cfb56)" style="fill: #31678e"/>
    <path d="M 94.917119 42.552 
L 93.218574 37.008 
L 91.622532 31.464 
L 90.119686 25.92 
L 95.52 25.92 
L 95.953799 25.92 
L 97.583965 31.464 
L 99.313604 37.008 
L 101.152427 42.552 
L 101.472 43.465912 
L 103.183863 48.096 
L 105.364804 53.64 
L 107.424 58.5465 
L 107.707986 59.184 
L 110.319471 64.728 
L 113.119663 70.272 
L 113.376 70.751092 
L 116.26231 75.816 
L 119.328 80.827598 
L 119.67558 81.36 
L 123.521815 86.904 
L 125.28 89.272927 
L 127.801007 92.448 
L 131.232 96.489233 
L 132.598778 97.992 
L 137.184 102.716395 
L 138.03719 103.536 
L 143.136 108.135659 
L 144.260128 109.08 
L 149.088 112.897432 
L 151.435841 114.624 
L 155.04 117.125567 
L 159.760157 120.168 
L 160.992 120.919972 
L 166.944 124.313339 
L 169.577566 125.712 
L 172.896 127.389259 
L 178.848 130.191947 
L 181.262892 131.256 
L 184.8 132.748083 
L 190.752 135.09439 
L 195.384128 136.8 
L 196.704 137.268903 
L 202.656 139.261932 
L 208.608 141.12395 
L 212.756829 142.344 
L 214.56 142.860925 
L 214.56 147.888 
L 214.56 149.147742 
L 209.989198 147.888 
L 208.608 147.503852 
L 202.656 145.751172 
L 196.704 143.87158 
L 192.188712 142.344 
L 190.752 141.845957 
L 184.8 139.651634 
L 178.848 137.283974 
L 177.707101 136.8 
L 172.896 134.685332 
L 166.944 131.86022 
L 165.754207 131.256 
L 160.992 128.728476 
L 155.740421 125.712 
L 155.04 125.288883 
L 149.088 121.43376 
L 147.275117 120.168 
L 143.136 117.111596 
L 140.01177 114.624 
L 137.184 112.233342 
L 133.718393 109.08 
L 131.232 106.669916 
L 128.222545 103.536 
L 125.28 100.262056 
L 123.377317 97.992 
L 119.328 92.815659 
L 119.059211 92.448 
L 115.248847 86.904 
L 113.376 83.980455 
L 111.80178 81.36 
L 108.688135 75.816 
L 107.424 73.413488 
L 105.868172 70.272 
L 103.29749 64.728 
L 101.472 60.518338 
L 100.924933 59.184 
L 98.779709 53.64 
L 96.773932 48.096 
L 95.52 44.413642 
z
" clip-path="url(#p8d6b1cfb56)" style="fill: #31678e"/>
   </g>
   <g id="PathCollection_21">
    <path d="M 41.567954 170.064 
L 38.536828 164.52 
L 36 159.460843 
L 36 158.976 
L 36 155.245236 
L 37.59429 158.976 
L 40.241429 164.52 
L 41.952 167.687179 
L 43.533755 170.064 
L 47.649016 175.608 
L 47.904 175.902402 
L 53.405276 181.152 
L 53.856 181.530068 
L 59.808 185.600668 
L 61.714173 186.696 
L 65.76 188.704275 
L 71.712 191.20829 
L 74.654021 192.24 
L 71.712 192.24 
L 69.628151 192.24 
L 65.76 190.554547 
L 59.808 187.516514 
L 58.493034 186.696 
L 53.856 183.42718 
L 51.143581 181.152 
L 47.904 178.060627 
L 45.779756 175.608 
L 41.952 170.660566 
z
" clip-path="url(#p8d6b1cfb56)" style="fill: #2a788e"/>
    <path d="M 88.908695 42.552 
L 87.333381 37.008 
L 85.855255 31.464 
L 84.465244 25.92 
L 89.568 25.92 
L 90.119686 25.92 
L 91.622532 31.464 
L 93.218574 37.008 
L 94.917119 42.552 
L 95.52 44.413642 
L 96.773932 48.096 
L 98.779709 53.64 
L 100.924933 59.184 
L 101.472 60.518338 
L 103.29749 64.728 
L 105.868172 70.272 
L 107.424 73.413488 
L 108.688135 75.816 
L 111.80178 81.36 
L 113.376 83.980455 
L 115.248847 86.904 
L 119.059211 92.448 
L 119.328 92.815659 
L 123.377317 97.992 
L 125.28 100.262056 
L 128.222545 103.536 
L 131.232 106.669916 
L 133.718393 109.08 
L 137.184 112.233342 
L 140.01177 114.624 
L 143.136 117.111596 
L 147.275117 120.168 
L 149.088 121.43376 
L 155.04 125.288883 
L 155.740421 125.712 
L 160.992 128.728476 
L 165.754207 131.256 
L 166.944 131.86022 
L 172.896 134.685332 
L 177.707101 136.8 
L 178.848 137.283974 
L 184.8 139.651634 
L 190.752 141.845957 
L 192.188712 142.344 
L 196.704 143.87158 
L 202.656 145.751172 
L 208.608 147.503852 
L 209.989198 147.888 
L 214.56 149.147742 
L 214.56 153.432 
L 214.56 155.519687 
L 208.608 153.91951 
L 206.90265 153.432 
L 202.656 152.239558 
L 196.704 150.450501 
L 190.752 148.520315 
L 188.92585 147.888 
L 184.8 146.45077 
L 178.848 144.220239 
L 174.215603 142.344 
L 172.896 141.796992 
L 166.944 139.157368 
L 162.049209 136.8 
L 160.992 136.272454 
L 155.04 133.086468 
L 151.883831 131.256 
L 149.088 129.56009 
L 143.236451 125.712 
L 143.136 125.642431 
L 137.184 121.212854 
L 135.885463 120.168 
L 131.232 116.19843 
L 129.521046 114.624 
L 125.28 110.467163 
L 123.964584 109.08 
L 119.328 103.850488 
L 119.068112 103.536 
L 114.76621 97.992 
L 113.376 96.070003 
L 110.923417 92.448 
L 107.441123 86.904 
L 107.424 86.875047 
L 104.357088 81.36 
L 101.506802 75.816 
L 101.472 75.744261 
L 98.963212 70.272 
L 96.603578 64.728 
L 95.52 62.015253 
L 94.44434 59.184 
L 92.466362 53.64 
L 90.619275 48.096 
L 89.568 44.74364 
z
" clip-path="url(#p8d6b1cfb56)" style="fill: #2a788e"/>
   </g>
   <g id="PathCollection_22">
    <path d="M 40.241429 164.52 
L 37.59429 158.976 
L 36 155.245236 
L 36 153.432 
L 36 150.191101 
L 37.178133 153.432 
L 39.453788 158.976 
L 41.94603 164.52 
L 41.952 164.531053 
L 45.63413 170.064 
L 47.904 173.145532 
L 50.154988 175.608 
L 53.856 179.152925 
L 56.394175 181.152 
L 59.808 183.458748 
L 65.441691 186.696 
L 65.76 186.854003 
L 71.712 189.182422 
L 77.664 191.183629 
L 81.444716 192.24 
L 77.664 192.24 
L 74.654021 192.24 
L 71.712 191.20829 
L 65.76 188.704275 
L 61.714173 186.696 
L 59.808 185.600668 
L 53.856 181.530068 
L 53.405276 181.152 
L 47.904 175.902402 
L 47.649016 175.608 
L 43.533755 170.064 
L 41.952 167.687179 
z
" clip-path="url(#p8d6b1cfb56)" style="fill: #23898e"/>
    <path d="M 83.055195 42.552 
L 81.583272 37.008 
L 80.205014 31.464 
L 78.911331 25.92 
L 83.616 25.92 
L 84.465244 25.92 
L 85.855255 31.464 
L 87.333381 37.008 
L 88.908695 42.552 
L 89.568 44.74364 
L 90.619275 48.096 
L 92.466362 53.64 
L 94.44434 59.184 
L 95.52 62.015253 
L 96.603578 64.728 
L 98.963212 70.272 
L 101.472 75.744261 
L 101.506802 75.816 
L 104.357088 81.36 
L 107.424 86.875047 
L 107.441123 86.904 
L 110.923417 92.448 
L 113.376 96.070003 
L 114.76621 97.992 
L 119.068112 103.536 
L 119.328 103.850488 
L 123.964584 109.08 
L 125.28 110.467163 
L 129.521046 114.624 
L 131.232 116.19843 
L 135.885463 120.168 
L 137.184 121.212854 
L 143.136 125.642431 
L 143.236451 125.712 
L 149.088 129.56009 
L 151.883831 131.256 
L 155.04 133.086468 
L 160.992 136.272454 
L 162.049209 136.8 
L 166.944 139.157368 
L 172.896 141.796992 
L 174.215603 142.344 
L 178.848 144.220239 
L 184.8 146.45077 
L 188.92585 147.888 
L 190.752 148.520315 
L 196.704 150.450501 
L 202.656 152.239558 
L 206.90265 153.432 
L 208.608 153.91951 
L 214.56 155.519687 
L 214.56 158.976 
L 214.56 162.27077 
L 208.608 160.672457 
L 202.780969 158.976 
L 202.656 158.941791 
L 196.704 157.214288 
L 190.752 155.341872 
L 185.166357 153.432 
L 184.8 153.309519 
L 178.848 151.190087 
L 172.896 148.879351 
L 170.527976 147.888 
L 166.944 146.382821 
L 160.992 143.672957 
L 158.297041 142.344 
L 155.04 140.702122 
L 149.088 137.439813 
L 148.005878 136.8 
L 143.136 133.815427 
L 139.302356 131.256 
L 137.184 129.774937 
L 131.829528 125.712 
L 131.232 125.233494 
L 125.384321 120.168 
L 125.28 120.072041 
L 119.787309 114.624 
L 119.328 114.137711 
L 114.883357 109.08 
L 113.376 107.240456 
L 110.541453 103.536 
L 107.424 99.146539 
L 106.654933 97.992 
L 103.199252 92.448 
L 101.472 89.464505 
L 100.07282 86.904 
L 97.249327 81.36 
L 95.52 77.707592 
L 94.668272 75.816 
L 92.329129 70.272 
L 90.161435 64.728 
L 89.568 63.11518 
L 88.179222 59.184 
L 86.348926 53.64 
L 84.642739 48.096 
L 83.616 44.545943 
z
" clip-path="url(#p8d6b1cfb56)" style="fill: #23898e"/>
   </g>
   <g id="PathCollection_23">
    <path d="M 41.94603 164.52 
L 39.453788 158.976 
L 37.178133 153.432 
L 36 150.191101 
L 36 147.888 
L 36 143.742841 
L 37.279493 147.888 
L 39.197919 153.432 
L 41.313285 158.976 
L 41.952 160.397131 
L 44.295996 164.52 
L 47.734506 170.064 
L 47.904 170.294102 
L 52.761533 175.608 
L 53.856 176.656308 
L 59.564066 181.152 
L 59.808 181.316828 
L 65.76 184.496438 
L 70.527083 186.696 
L 71.712 187.156554 
L 77.664 188.978115 
L 83.616 190.50823 
L 89.568 191.782913 
L 92.261985 192.24 
L 89.568 192.24 
L 83.616 192.24 
L 81.444716 192.24 
L 77.664 191.183629 
L 71.712 189.182422 
L 65.76 186.854003 
L 65.441691 186.696 
L 59.808 183.458748 
L 56.394175 181.152 
L 53.856 179.152925 
L 50.154988 175.608 
L 47.904 173.145532 
L 45.63413 170.064 
L 41.952 164.531053 
z
" clip-path="url(#p8d6b1cfb56)" style="fill: #1f9a8a"/>
    <path d="M 77.265851 42.552 
L 75.872391 37.008 
L 74.571698 31.464 
L 73.354258 25.92 
L 77.664 25.92 
L 78.911331 25.92 
L 80.205014 31.464 
L 81.583272 37.008 
L 83.055195 42.552 
L 83.616 44.545943 
L 84.642739 48.096 
L 86.348926 53.64 
L 88.179222 59.184 
L 89.568 63.11518 
L 90.161435 64.728 
L 92.329129 70.272 
L 94.668272 75.816 
L 95.52 77.707592 
L 97.249327 81.36 
L 100.07282 86.904 
L 101.472 89.464505 
L 103.199252 92.448 
L 106.654933 97.992 
L 107.424 99.146539 
L 110.541453 103.536 
L 113.376 107.240456 
L 114.883357 109.08 
L 119.328 114.137711 
L 119.787309 114.624 
L 125.28 120.072041 
L 125.384321 120.168 
L 131.232 125.233494 
L 131.829528 125.712 
L 137.184 129.774937 
L 139.302356 131.256 
L 143.136 133.815427 
L 148.005878 136.8 
L 149.088 137.439813 
L 155.04 140.702122 
L 158.297041 142.344 
L 160.992 143.672957 
L 166.944 146.382821 
L 170.527976 147.888 
L 172.896 148.879351 
L 178.848 151.190087 
L 184.8 153.309519 
L 185.166357 153.432 
L 190.752 155.341872 
L 196.704 157.214288 
L 202.656 158.941791 
L 202.780969 158.976 
L 208.608 160.672457 
L 214.56 162.27077 
L 214.56 164.52 
L 214.56 170.064 
L 214.56 170.12575 
L 214.396997 170.064 
L 208.608 168.440928 
L 202.656 166.609788 
L 196.704 164.586607 
L 196.52147 164.52 
L 190.752 162.714218 
L 184.8 160.670295 
L 180.298211 158.976 
L 178.848 158.469244 
L 172.896 156.231886 
L 166.944 153.762688 
L 166.204355 153.432 
L 160.992 151.172151 
L 155.04 148.327843 
L 154.187962 147.888 
L 149.088 145.256006 
L 143.964596 142.344 
L 143.136 141.862897 
L 137.184 138.123444 
L 135.252716 136.8 
L 131.232 133.941535 
L 127.766433 131.256 
L 125.28 129.233869 
L 121.288469 125.712 
L 119.328 123.880288 
L 115.64925 120.168 
L 113.376 117.720773 
L 110.69997 114.624 
L 107.424 110.552837 
L 106.315524 109.08 
L 102.424247 103.536 
L 101.472 102.080952 
L 98.949868 97.992 
L 95.800394 92.448 
L 95.52 91.922171 
L 92.976303 86.904 
L 90.390455 81.36 
L 89.568 79.474695 
L 88.034372 75.816 
L 85.875849 70.272 
L 83.879922 64.728 
L 83.616 63.950709 
L 82.038872 59.184 
L 80.33393 53.64 
L 78.748641 48.096 
L 77.664 44.047176 
z
" clip-path="url(#p8d6b1cfb56)" style="fill: #1f9a8a"/>
    <path d="M 196.704 192.176087 
L 202.656 191.502296 
L 208.608 190.78158 
L 214.56 190.015524 
L 214.56 192.24 
L 208.608 192.24 
L 202.656 192.24 
L 196.704 192.24 
L 196.116468 192.24 
z
" clip-path="url(#p8d6b1cfb56)" style="fill: #1f9a8a"/>
   </g>
   <g id="PathCollection_24">
    <path d="M 41.313285 158.976 
L 39.197919 153.432 
L 37.279493 147.888 
L 36 143.742841 
L 36 142.344 
L 36 136.8 
L 36 134.653537 
L 36.473886 136.8 
L 37.890601 142.344 
L 39.464835 147.888 
L 41.217705 153.432 
L 41.952 155.407883 
L 43.67594 158.976 
L 46.648231 164.52 
L 47.904 166.556749 
L 50.66679 170.064 
L 53.856 173.648504 
L 56.039 175.608 
L 59.808 178.493097 
L 63.990043 181.152 
L 65.76 182.091508 
L 71.712 184.620491 
L 77.407965 186.696 
L 77.664 186.772601 
L 83.616 188.119339 
L 89.568 189.207115 
L 95.52 190.067515 
L 101.472 190.727648 
L 107.424 191.210599 
L 113.376 191.535972 
L 119.328 191.720411 
L 125.28 191.778068 
L 131.232 191.721002 
L 137.184 191.55951 
L 143.136 191.302413 
L 149.088 190.957284 
L 155.04 190.530641 
L 160.992 190.028104 
L 166.944 189.454529 
L 172.896 188.814116 
L 178.848 188.110499 
L 184.8 187.346825 
L 189.557015 186.696 
L 190.752 186.249223 
L 196.704 183.780675 
L 202.055489 181.152 
L 197.515793 175.608 
L 196.704 175.268647 
L 190.752 172.516846 
L 186.17783 170.064 
L 184.8 169.554059 
L 178.848 167.147988 
L 173.129981 164.52 
L 172.896 164.430041 
L 166.944 161.960381 
L 160.992 159.175305 
L 160.600334 158.976 
L 155.04 156.400131 
L 149.32637 153.432 
L 149.088 153.312587 
L 143.136 150.088354 
L 139.477738 147.888 
L 137.184 146.512549 
L 131.232 142.585612 
L 130.894803 142.344 
L 125.28 138.2363 
L 123.488009 136.8 
L 119.328 133.334491 
L 117.035545 131.256 
L 113.376 127.760986 
L 111.391956 125.712 
L 107.424 121.348606 
L 106.424275 120.168 
L 102.033644 114.624 
L 101.472 113.86598 
L 98.13764 109.08 
L 95.52 104.996401 
L 94.631476 103.536 
L 91.48786 97.992 
L 89.568 94.314939 
L 88.630897 92.448 
L 86.040435 86.904 
L 83.66974 81.36 
L 83.616 81.226585 
L 81.487265 75.816 
L 79.484526 70.272 
L 77.664 64.806079 
L 77.638002 64.728 
L 75.896374 59.184 
L 74.289657 53.64 
L 72.801523 48.096 
L 71.712 43.747034 
L 71.403252 42.552 
L 70.053379 37.008 
L 68.799833 31.464 
L 67.631887 25.92 
L 71.712 25.92 
L 73.354258 25.92 
L 74.571698 31.464 
L 75.872391 37.008 
L 77.265851 42.552 
L 77.664 44.047176 
L 78.748641 48.096 
L 80.33393 53.64 
L 82.038872 59.184 
L 83.616 63.950709 
L 83.879922 64.728 
L 85.875849 70.272 
L 88.034372 75.816 
L 89.568 79.474695 
L 90.390455 81.36 
L 92.976303 86.904 
L 95.52 91.922171 
L 95.800394 92.448 
L 98.949868 97.992 
L 101.472 102.080952 
L 102.424247 103.536 
L 106.315524 109.08 
L 107.424 110.552837 
L 110.69997 114.624 
L 113.376 117.720773 
L 115.64925 120.168 
L 119.328 123.880288 
L 121.288469 125.712 
L 125.28 129.233869 
L 127.766433 131.256 
L 131.232 133.941535 
L 135.252716 136.8 
L 137.184 138.123444 
L 143.136 141.862897 
L 143.964596 142.344 
L 149.088 145.256006 
L 154.187962 147.888 
L 155.04 148.327843 
L 160.992 151.172151 
L 166.204355 153.432 
L 166.944 153.762688 
L 172.896 156.231886 
L 178.848 158.469244 
L 180.298211 158.976 
L 184.8 160.670295 
L 190.752 162.714218 
L 196.52147 164.52 
L 196.704 164.586607 
L 202.656 166.609788 
L 208.608 168.440928 
L 214.396997 170.064 
L 214.56 170.12575 
L 214.56 175.608 
L 214.56 181.152 
L 214.56 186.696 
L 214.56 190.015524 
L 208.608 190.78158 
L 202.656 191.502296 
L 196.704 192.176087 
L 196.116468 192.24 
L 190.752 192.24 
L 184.8 192.24 
L 178.848 192.24 
L 172.896 192.24 
L 166.944 192.24 
L 160.992 192.24 
L 155.04 192.24 
L 149.088 192.24 
L 143.136 192.24 
L 137.184 192.24 
L 131.232 192.24 
L 125.28 192.24 
L 119.328 192.24 
L 113.376 192.24 
L 107.424 192.24 
L 101.472 192.24 
L 95.52 192.24 
L 92.261985 192.24 
L 89.568 191.782913 
L 83.616 190.50823 
L 77.664 188.978115 
L 71.712 187.156554 
L 70.527083 186.696 
L 65.76 184.496438 
L 59.808 181.316828 
L 59.564066 181.152 
L 53.856 176.656308 
L 52.761533 175.608 
L 47.904 170.294102 
L 47.734506 170.064 
L 44.295996 164.52 
L 41.952 160.397131 
z
" clip-path="url(#p8d6b1cfb56)" style="fill: #25ab82"/>
   </g>
   <g id="PathCollection_25">
    <path d="M 41.217705 153.432 
L 39.464835 147.888 
L 37.890601 142.344 
L 36.473886 136.8 
L 36 134.653537 
L 36 131.256 
L 36 125.712 
L 36 120.168 
L 36 119.477135 
L 36.088536 120.168 
L 36.941785 125.712 
L 37.909724 131.256 
L 39.006059 136.8 
L 40.24673 142.344 
L 41.650176 147.888 
L 41.952 148.876555 
L 43.812399 153.432 
L 46.301846 158.976 
L 47.904 162.118871 
L 49.519506 164.52 
L 53.672099 170.064 
L 53.856 170.270695 
L 59.802091 175.608 
L 59.808 175.612524 
L 65.76 179.132751 
L 69.787182 181.152 
L 71.712 181.934317 
L 77.664 183.813435 
L 83.616 185.359643 
L 89.568 186.6044 
L 90.180632 186.696 
L 95.52 187.301402 
L 101.472 187.767885 
L 107.424 188.053888 
L 113.376 188.179028 
L 119.328 188.159944 
L 125.28 188.010766 
L 131.232 187.74352 
L 137.184 187.368464 
L 143.136 186.89437 
L 145.290081 186.696 
L 149.088 185.997437 
L 155.04 184.684345 
L 160.992 183.09902 
L 166.944 181.213318 
L 167.123014 181.152 
L 168.306405 175.608 
L 166.944 174.606625 
L 161.73427 170.064 
L 160.992 169.676183 
L 155.04 166.19781 
L 152.546897 164.52 
L 149.088 162.681235 
L 143.136 159.078609 
L 142.982322 158.976 
L 137.184 155.536517 
L 134.035205 153.432 
L 131.232 151.645973 
L 125.9369 147.888 
L 125.28 147.424697 
L 119.328 142.819802 
L 118.766725 142.344 
L 113.376 137.675894 
L 112.449743 136.8 
L 107.424 131.84245 
L 106.87442 131.256 
L 101.948043 125.712 
L 101.472 125.14254 
L 97.576995 120.168 
L 95.52 117.327917 
L 93.66526 114.624 
L 90.159777 109.08 
L 89.568 108.077632 
L 86.990353 103.536 
L 84.127411 97.992 
L 83.616 96.931654 
L 81.497905 92.448 
L 79.108326 86.904 
L 77.664 83.265955 
L 76.903181 81.36 
L 74.847547 75.816 
L 72.972476 70.272 
L 71.712 66.238265 
L 71.219715 64.728 
L 69.533401 59.184 
L 67.989324 53.64 
L 66.568421 48.096 
L 65.76 44.714087 
L 65.190254 42.552 
L 63.82767 37.008 
L 62.574207 31.464 
L 61.416 25.92 
L 65.76 25.92 
L 67.631887 25.92 
L 68.799833 31.464 
L 70.053379 37.008 
L 71.403252 42.552 
L 71.712 43.747034 
L 72.801523 48.096 
L 74.289657 53.64 
L 75.896374 59.184 
L 77.638002 64.728 
L 77.664 64.806079 
L 79.484526 70.272 
L 81.487265 75.816 
L 83.616 81.226585 
L 83.66974 81.36 
L 86.040435 86.904 
L 88.630897 92.448 
L 89.568 94.314939 
L 91.48786 97.992 
L 94.631476 103.536 
L 95.52 104.996401 
L 98.13764 109.08 
L 101.472 113.86598 
L 102.033644 114.624 
L 106.424275 120.168 
L 107.424 121.348606 
L 111.391956 125.712 
L 113.376 127.760986 
L 117.035545 131.256 
L 119.328 133.334491 
L 123.488009 136.8 
L 125.28 138.2363 
L 130.894803 142.344 
L 131.232 142.585612 
L 137.184 146.512549 
L 139.477738 147.888 
L 143.136 150.088354 
L 149.088 153.312587 
L 149.32637 153.432 
L 155.04 156.400131 
L 160.600334 158.976 
L 160.992 159.175305 
L 166.944 161.960381 
L 172.896 164.430041 
L 173.129981 164.52 
L 178.848 167.147988 
L 184.8 169.554059 
L 186.17783 170.064 
L 190.752 172.516846 
L 196.704 175.268647 
L 197.515793 175.608 
L 202.055489 181.152 
L 196.704 183.780675 
L 190.752 186.249223 
L 189.557015 186.696 
L 184.8 187.346825 
L 178.848 188.110499 
L 172.896 188.814116 
L 166.944 189.454529 
L 160.992 190.028104 
L 155.04 190.530641 
L 149.088 190.957284 
L 143.136 191.302413 
L 137.184 191.55951 
L 131.232 191.721002 
L 125.28 191.778068 
L 119.328 191.720411 
L 113.376 191.535972 
L 107.424 191.210599 
L 101.472 190.727648 
L 95.52 190.067515 
L 89.568 189.207115 
L 83.616 188.119339 
L 77.664 186.772601 
L 77.407965 186.696 
L 71.712 184.620491 
L 65.76 182.091508 
L 63.990043 181.152 
L 59.808 178.493097 
L 56.039 175.608 
L 53.856 173.648504 
L 50.66679 170.064 
L 47.904 166.556749 
L 46.648231 164.52 
L 43.67594 158.976 
L 41.952 155.407883 
z
" clip-path="url(#p8d6b1cfb56)" style="fill: #3bbb75"/>
   </g>
   <g id="PathCollection_26">
    <path d="M 41.650176 147.888 
L 40.24673 142.344 
L 39.006059 136.8 
L 37.909724 131.256 
L 36.941785 125.712 
L 36.088536 120.168 
L 36 119.477135 
L 36 114.624 
L 36 109.08 
L 36 103.536 
L 36 97.992 
L 36 92.448 
L 36 86.904 
L 36 81.36 
L 36 75.816 
L 36 70.272 
L 36 64.728 
L 36 59.184 
L 36 53.64 
L 36 48.096 
L 36 42.552 
L 36 37.008 
L 36 31.464 
L 36 25.92 
L 39.625788 25.92 
L 39.142077 31.464 
L 38.708759 37.008 
L 38.325951 42.552 
L 37.99405 48.096 
L 37.713749 53.64 
L 37.486058 59.184 
L 37.312331 64.728 
L 37.194301 70.272 
L 37.134116 75.816 
L 37.134394 81.36 
L 37.198276 86.904 
L 37.329505 92.448 
L 37.532507 97.992 
L 37.8125 103.536 
L 38.175618 109.08 
L 38.629058 114.624 
L 39.181264 120.168 
L 39.842135 125.712 
L 40.623267 131.256 
L 41.538231 136.8 
L 41.952 138.860562 
L 42.945794 142.344 
L 44.749724 147.888 
L 46.735491 153.432 
L 47.904 156.238701 
L 49.463183 158.976 
L 52.985232 164.52 
L 53.856 165.690477 
L 58.078767 170.064 
L 59.808 171.605253 
L 65.403297 175.608 
L 65.76 175.818926 
L 71.712 178.456852 
L 77.664 180.67819 
L 79.361621 181.152 
L 83.616 182.053336 
L 89.568 182.956752 
L 95.52 183.562066 
L 101.472 183.88854 
L 107.424 183.950312 
L 113.376 183.756721 
L 119.328 183.312583 
L 125.28 182.618343 
L 131.232 181.670101 
L 133.90385 181.152 
L 137.184 179.292888 
L 141.949736 175.608 
L 139.709208 170.064 
L 137.184 167.912468 
L 133.793139 164.52 
L 131.232 162.670307 
L 126.777362 158.976 
L 125.28 157.901355 
L 119.763619 153.432 
L 119.328 153.099365 
L 113.376 148.052364 
L 113.20057 147.888 
L 107.424 142.541668 
L 107.229101 142.344 
L 101.859195 136.8 
L 101.472 136.382837 
L 97.044774 131.256 
L 95.52 129.373892 
L 92.721587 125.712 
L 89.568 121.240464 
L 88.841886 120.168 
L 85.333393 114.624 
L 83.616 111.660434 
L 82.146627 109.08 
L 79.251255 103.536 
L 77.664 100.209111 
L 76.591984 97.992 
L 74.128716 92.448 
L 71.91597 86.904 
L 71.712 86.358182 
L 69.739095 81.36 
L 67.77031 75.816 
L 65.992248 70.272 
L 65.76 69.498628 
L 64.141089 64.728 
L 62.446116 59.184 
L 60.916027 53.64 
L 59.808 49.255023 
L 59.431551 48.096 
L 57.772873 42.552 
L 56.291987 37.008 
L 54.958258 31.464 
L 53.856 26.430264 
L 53.663833 25.92 
L 53.856 25.92 
L 59.808 25.92 
L 61.416 25.92 
L 62.574207 31.464 
L 63.82767 37.008 
L 65.190254 42.552 
L 65.76 44.714087 
L 66.568421 48.096 
L 67.989324 53.64 
L 69.533401 59.184 
L 71.219715 64.728 
L 71.712 66.238265 
L 72.972476 70.272 
L 74.847547 75.816 
L 76.903181 81.36 
L 77.664 83.265955 
L 79.108326 86.904 
L 81.497905 92.448 
L 83.616 96.931654 
L 84.127411 97.992 
L 86.990353 103.536 
L 89.568 108.077632 
L 90.159777 109.08 
L 93.66526 114.624 
L 95.52 117.327917 
L 97.576995 120.168 
L 101.472 125.14254 
L 101.948043 125.712 
L 106.87442 131.256 
L 107.424 131.84245 
L 112.449743 136.8 
L 113.376 137.675894 
L 118.766725 142.344 
L 119.328 142.819802 
L 125.28 147.424697 
L 125.9369 147.888 
L 131.232 151.645973 
L 134.035205 153.432 
L 137.184 155.536517 
L 142.982322 158.976 
L 143.136 159.078609 
L 149.088 162.681235 
L 152.546897 164.52 
L 155.04 166.19781 
L 160.992 169.676183 
L 161.73427 170.064 
L 166.944 174.606625 
L 168.306405 175.608 
L 167.123014 181.152 
L 166.944 181.213318 
L 160.992 183.09902 
L 155.04 184.684345 
L 149.088 185.997437 
L 145.290081 186.696 
L 143.136 186.89437 
L 137.184 187.368464 
L 131.232 187.74352 
L 125.28 188.010766 
L 119.328 188.159944 
L 113.376 188.179028 
L 107.424 188.053888 
L 101.472 187.767885 
L 95.52 187.301402 
L 90.180632 186.696 
L 89.568 186.6044 
L 83.616 185.359643 
L 77.664 183.813435 
L 71.712 181.934317 
L 69.787182 181.152 
L 65.76 179.132751 
L 59.808 175.612524 
L 59.802091 175.608 
L 53.856 170.270695 
L 53.672099 170.064 
L 49.519506 164.52 
L 47.904 162.118871 
L 46.301846 158.976 
L 43.812399 153.432 
L 41.952 148.876555 
z
" clip-path="url(#p8d6b1cfb56)" style="fill: #5ec962"/>
   </g>
   <g id="PathCollection_27">
    <path d="M 41.538231 136.8 
L 40.623267 131.256 
L 39.842135 125.712 
L 39.181264 120.168 
L 38.629058 114.624 
L 38.175618 109.08 
L 37.8125 103.536 
L 37.532507 97.992 
L 37.329505 92.448 
L 37.198276 86.904 
L 37.134394 81.36 
L 37.134116 75.816 
L 37.194301 70.272 
L 37.312331 64.728 
L 37.486058 59.184 
L 37.713749 53.64 
L 37.99405 48.096 
L 38.325951 42.552 
L 38.708759 37.008 
L 39.142077 31.464 
L 39.625788 25.92 
L 41.952 25.92 
L 47.904 25.92 
L 53.663833 25.92 
L 53.856 26.430264 
L 54.958258 31.464 
L 56.291987 37.008 
L 57.772873 42.552 
L 59.431551 48.096 
L 59.808 49.255023 
L 60.916027 53.64 
L 62.446116 59.184 
L 64.141089 64.728 
L 65.76 69.498628 
L 65.992248 70.272 
L 67.77031 75.816 
L 69.739095 81.36 
L 71.712 86.358182 
L 71.91597 86.904 
L 74.128716 92.448 
L 76.591984 97.992 
L 77.664 100.209111 
L 79.251255 103.536 
L 82.146627 109.08 
L 83.616 111.660434 
L 85.333393 114.624 
L 88.841886 120.168 
L 89.568 121.240464 
L 92.721587 125.712 
L 95.52 129.373892 
L 97.044774 131.256 
L 101.472 136.382837 
L 101.859195 136.8 
L 107.229101 142.344 
L 107.424 142.541668 
L 113.20057 147.888 
L 113.376 148.052364 
L 119.328 153.099365 
L 119.763619 153.432 
L 125.28 157.901355 
L 126.777362 158.976 
L 131.232 162.670307 
L 133.793139 164.52 
L 137.184 167.912468 
L 139.709208 170.064 
L 141.949736 175.608 
L 137.184 179.292888 
L 133.90385 181.152 
L 131.232 181.670101 
L 125.28 182.618343 
L 119.328 183.312583 
L 113.376 183.756721 
L 107.424 183.950312 
L 101.472 183.88854 
L 95.52 183.562066 
L 89.568 182.956752 
L 83.616 182.053336 
L 79.361621 181.152 
L 77.664 180.67819 
L 71.712 178.456852 
L 65.76 175.818926 
L 65.403297 175.608 
L 59.808 171.605253 
L 58.078767 170.064 
L 53.856 165.690477 
L 52.985232 164.52 
L 49.463183 158.976 
L 47.904 156.238701 
L 46.735491 153.432 
L 44.749724 147.888 
L 42.945794 142.344 
L 41.952 138.860562 
z
M 41.952 115.098958 
L 42.511002 120.168 
L 43.276964 125.712 
L 44.197818 131.256 
L 45.282547 136.8 
L 46.54336 142.344 
L 47.904 147.502418 
L 48.05541 147.888 
L 50.678315 153.432 
L 53.462461 158.976 
L 53.856 159.619975 
L 57.913758 164.52 
L 59.808 166.527902 
L 64.160271 170.064 
L 65.76 171.142919 
L 71.712 174.180296 
L 75.310495 175.608 
L 77.664 176.32251 
L 83.616 177.526236 
L 89.568 178.269817 
L 95.52 178.54223 
L 101.472 178.312912 
L 107.424 177.525648 
L 113.376 176.088657 
L 114.820244 175.608 
L 118.381794 170.064 
L 115.802469 164.52 
L 113.376 161.815514 
L 111.165297 158.976 
L 107.424 155.142085 
L 105.939695 153.432 
L 101.472 148.728189 
L 100.746338 147.888 
L 95.838926 142.344 
L 95.52 141.979588 
L 91.276941 136.8 
L 89.568 134.592843 
L 87.095328 131.256 
L 83.616 126.157119 
L 83.316488 125.712 
L 79.791139 120.168 
L 77.664 116.449211 
L 76.593234 114.624 
L 73.615128 109.08 
L 71.712 105.119274 
L 70.885659 103.536 
L 68.250221 97.992 
L 65.947161 92.448 
L 65.76 91.963811 
L 63.45199 86.904 
L 61.264994 81.36 
L 59.808 77.194146 
L 59.116537 75.816 
L 56.660583 70.272 
L 54.599891 64.728 
L 53.856 62.485253 
L 51.118277 59.184 
L 47.904 53.983271 
L 45.806424 59.184 
L 44.143769 64.728 
L 42.925164 70.272 
L 42.051082 75.816 
L 41.952 76.650162 
L 41.746102 81.36 
L 41.572868 86.904 
L 41.474131 92.448 
L 41.454033 97.992 
L 41.517522 103.536 
L 41.670486 109.08 
L 41.919897 114.624 
z
" clip-path="url(#p8d6b1cfb56)" style="fill: #89d548"/>
   </g>
   <g id="PathCollection_28">
    <path d="M 41.919897 114.624 
L 41.670486 109.08 
L 41.517522 103.536 
L 41.454033 97.992 
L 41.474131 92.448 
L 41.572868 86.904 
L 41.746102 81.36 
L 41.952 76.650162 
L 42.051082 75.816 
L 42.925164 70.272 
L 44.143769 64.728 
L 45.806424 59.184 
L 47.904 53.983271 
L 51.118277 59.184 
L 53.856 62.485253 
L 54.599891 64.728 
L 56.660583 70.272 
L 59.116537 75.816 
L 59.808 77.194146 
L 61.264994 81.36 
L 63.45199 86.904 
L 65.76 91.963811 
L 65.947161 92.448 
L 68.250221 97.992 
L 70.885659 103.536 
L 71.712 105.119274 
L 73.615128 109.08 
L 76.593234 114.624 
L 77.664 116.449211 
L 79.791139 120.168 
L 83.316488 125.712 
L 83.616 126.157119 
L 87.095328 131.256 
L 89.568 134.592843 
L 91.276941 136.8 
L 95.52 141.979588 
L 95.838926 142.344 
L 100.746338 147.888 
L 101.472 148.728189 
L 105.939695 153.432 
L 107.424 155.142085 
L 111.165297 158.976 
L 113.376 161.815514 
L 115.802469 164.52 
L 118.381794 170.064 
L 114.820244 175.608 
L 113.376 176.088657 
L 107.424 177.525648 
L 101.472 178.312912 
L 95.52 178.54223 
L 89.568 178.269817 
L 83.616 177.526236 
L 77.664 176.32251 
L 75.310495 175.608 
L 71.712 174.180296 
L 65.76 171.142919 
L 64.160271 170.064 
L 59.808 166.527902 
L 57.913758 164.52 
L 53.856 159.619975 
L 53.462461 158.976 
L 50.678315 153.432 
L 48.05541 147.888 
L 47.904 147.502418 
L 46.54336 142.344 
L 45.282547 136.8 
L 44.197818 131.256 
L 43.276964 125.712 
L 42.511002 120.168 
L 41.952 115.098958 
z
M 47.904 120.634962 
L 48.398816 125.712 
L 49.26189 131.256 
L 50.394615 136.8 
L 51.778609 142.344 
L 53.411148 147.888 
L 53.856 149.052207 
L 56.403855 153.432 
L 59.805387 158.976 
L 59.808 158.979373 
L 65.76 164.510632 
L 65.774627 164.52 
L 71.712 167.539881 
L 77.664 169.770542 
L 79.50997 170.064 
L 83.616 170.517743 
L 89.568 170.195427 
L 90.176725 170.064 
L 95.52 165.492552 
L 96.052989 164.52 
L 95.52 162.702477 
L 94.556286 158.976 
L 91.300184 153.432 
L 89.568 151.010053 
L 87.463218 147.888 
L 83.631688 142.344 
L 83.616 142.322117 
L 79.703654 136.8 
L 77.664 133.668182 
L 76.017266 131.256 
L 72.57471 125.712 
L 71.712 124.20836 
L 69.083419 120.168 
L 66.031942 114.624 
L 65.76 114.088838 
L 62.442828 109.08 
L 59.808 104.084662 
L 59.186609 103.536 
L 54.423355 97.992 
L 53.856 97.135079 
L 52.971719 97.992 
L 49.5467 103.536 
L 48.134141 109.08 
L 47.904 111.685852 
L 47.825562 114.624 
L 47.880194 120.168 
z
" clip-path="url(#p8d6b1cfb56)" style="fill: #b8de29"/>
   </g>
   <g id="PathCollection_29">
    <path d="M 47.880194 120.168 
L 47.825562 114.624 
L 47.904 111.685852 
L 48.134141 109.08 
L 49.5467 103.536 
L 52.971719 97.992 
L 53.856 97.135079 
L 54.423355 97.992 
L 59.186609 103.536 
L 59.808 104.084662 
L 62.442828 109.08 
L 65.76 114.088838 
L 66.031942 114.624 
L 69.083419 120.168 
L 71.712 124.20836 
L 72.57471 125.712 
L 76.017266 131.256 
L 77.664 133.668182 
L 79.703654 136.8 
L 83.616 142.322117 
L 83.631688 142.344 
L 87.463218 147.888 
L 89.568 151.010053 
L 91.300184 153.432 
L 94.556286 158.976 
L 95.52 162.702477 
L 96.052989 164.52 
L 95.52 165.492552 
L 90.176725 170.064 
L 89.568 170.195427 
L 83.616 170.517743 
L 79.50997 170.064 
L 77.664 169.770542 
L 71.712 167.539881 
L 65.774627 164.52 
L 65.76 164.510632 
L 59.808 158.979373 
L 59.805387 158.976 
L 56.403855 153.432 
L 53.856 149.052207 
L 53.411148 147.888 
L 51.778609 142.344 
L 50.394615 136.8 
L 49.26189 131.256 
L 48.398816 125.712 
L 47.904 120.634962 
z
" clip-path="url(#p8d6b1cfb56)" style="fill: #e7e419"/>
   </g>
   <g id="PathCollection_30">
    <defs>
     <path id="mcd38665827" d="M -4.330127 4.330127 
L 4.330127 -4.330127 
M -4.330127 -4.330127 
L 4.330127 4.330127 
" style="stroke: #000000; stroke-width: 2"/>
    </defs>
    <g clip-path="url(#p8d6b1cfb56)">
     <use xlink:href="#mcd38665827" x="65.76" y="146.04" style="stroke: #000000; stroke-width: 2"/>
    </g>
   </g>
   <g id="matplotlib.axis_1">
    <g id="xtick_1">
     <g id="line2d_1">
      <defs>
       <path id="m9d90a04c2b" d="M 0 0 
L 0 3.5 
" style="stroke: #000000; stroke-width: 0.8"/>
      </defs>
      <g>
       <use xlink:href="#m9d90a04c2b" x="75.68" y="192.24" style="stroke: #000000; stroke-width: 0.8"/>
      </g>
     </g>
     <g id="text_1">
      <!-- $\mathdefault{250}$ -->
      <g transform="translate(64.22 208.358125) scale(0.12 -0.12)">
       <defs>
        <path id="DejaVuSans-32" d="M 1228 531 
L 3431 531 
L 3431 0 
L 469 0 
L 469 531 
Q 828 903 1448 1529 
Q 2069 2156 2228 2338 
Q 2531 2678 2651 2914 
Q 2772 3150 2772 3378 
Q 2772 3750 2511 3984 
Q 2250 4219 1831 4219 
Q 1534 4219 1204 4116 
Q 875 4013 500 3803 
L 500 4441 
Q 881 4594 1212 4672 
Q 1544 4750 1819 4750 
Q 2544 4750 2975 4387 
Q 3406 4025 3406 3419 
Q 3406 3131 3298 2873 
Q 3191 2616 2906 2266 
Q 2828 2175 2409 1742 
Q 1991 1309 1228 531 
z
" transform="scale(0.015625)"/>
        <path id="DejaVuSans-35" d="M 691 4666 
L 3169 4666 
L 3169 4134 
L 1269 4134 
L 1269 2991 
Q 1406 3038 1543 3061 
Q 1681 3084 1819 3084 
Q 2600 3084 3056 2656 
Q 3513 2228 3513 1497 
Q 3513 744 3044 326 
Q 2575 -91 1722 -91 
Q 1428 -91 1123 -41 
Q 819 9 494 109 
L 494 744 
Q 775 591 1075 516 
Q 1375 441 1709 441 
Q 2250 441 2565 725 
Q 2881 1009 2881 1497 
Q 2881 1984 2565 2268 
Q 2250 2553 1709 2553 
Q 1456 2553 1204 2497 
Q 953 2441 691 2322 
L 691 4666 
z
" transform="scale(0.015625)"/>
        <path id="DejaVuSans-30" d="M 2034 4250 
Q 1547 4250 1301 3770 
Q 1056 3291 1056 2328 
Q 1056 1369 1301 889 
Q 1547 409 2034 409 
Q 2525 409 2770 889 
Q 3016 1369 3016 2328 
Q 3016 3291 2770 3770 
Q 2525 4250 2034 4250 
z
M 2034 4750 
Q 2819 4750 3233 4129 
Q 3647 3509 3647 2328 
Q 3647 1150 3233 529 
Q 2819 -91 2034 -91 
Q 1250 -91 836 529 
Q 422 1150 422 2328 
Q 422 3509 836 4129 
Q 1250 4750 2034 4750 
z
" transform="scale(0.015625)"/>
       </defs>
       <use xlink:href="#DejaVuSans-32" transform="translate(0 0.78125)"/>
       <use xlink:href="#DejaVuSans-35" transform="translate(63.623047 0.78125)"/>
       <use xlink:href="#DejaVuSans-30" transform="translate(127.246094 0.78125)"/>
      </g>
     </g>
    </g>
    <g id="xtick_2">
     <g id="line2d_2">
      <g>
       <use xlink:href="#m9d90a04c2b" x="125.28" y="192.24" style="stroke: #000000; stroke-width: 0.8"/>
      </g>
     </g>
     <g id="text_2">
      <!-- $\mathdefault{500}$ -->
      <g transform="translate(113.82 208.358125) scale(0.12 -0.12)">
       <use xlink:href="#DejaVuSans-35" transform="translate(0 0.78125)"/>
       <use xlink:href="#DejaVuSans-30" transform="translate(63.623047 0.78125)"/>
       <use xlink:href="#DejaVuSans-30" transform="translate(127.246094 0.78125)"/>
      </g>
     </g>
    </g>
    <g id="xtick_3">
     <g id="line2d_3">
      <g>
       <use xlink:href="#m9d90a04c2b" x="174.88" y="192.24" style="stroke: #000000; stroke-width: 0.8"/>
      </g>
     </g>
     <g id="text_3">
      <!-- $\mathdefault{750}$ -->
      <g transform="translate(163.42 208.358125) scale(0.12 -0.12)">
       <defs>
        <path id="DejaVuSans-37" d="M 525 4666 
L 3525 4666 
L 3525 4397 
L 1831 0 
L 1172 0 
L 2766 4134 
L 525 4134 
L 525 4666 
z
" transform="scale(0.015625)"/>
       </defs>
       <use xlink:href="#DejaVuSans-37" transform="translate(0 0.78125)"/>
       <use xlink:href="#DejaVuSans-35" transform="translate(63.623047 0.78125)"/>
       <use xlink:href="#DejaVuSans-30" transform="translate(127.246094 0.78125)"/>
      </g>
     </g>
    </g>
    <g id="text_4">
     <!-- Diploid N$_e$0 -->
     <g transform="translate(80 227.01375) scale(0.16 -0.16)">
      <defs>
       <path id="DejaVuSans-44" d="M 1259 4147 
L 1259 519 
L 2022 519 
Q 2988 519 3436 956 
Q 3884 1394 3884 2338 
Q 3884 3275 3436 3711 
Q 2988 4147 2022 4147 
L 1259 4147 
z
M 628 4666 
L 1925 4666 
Q 3281 4666 3915 4102 
Q 4550 3538 4550 2338 
Q 4550 1131 3912 565 
Q 3275 0 1925 0 
L 628 0 
L 628 4666 
z
" transform="scale(0.015625)"/>
       <path id="DejaVuSans-69" d="M 603 3500 
L 1178 3500 
L 1178 0 
L 603 0 
L 603 3500 
z
M 603 4863 
L 1178 4863 
L 1178 4134 
L 603 4134 
L 603 4863 
z
" transform="scale(0.015625)"/>
       <path id="DejaVuSans-70" d="M 1159 525 
L 1159 -1331 
L 581 -1331 
L 581 3500 
L 1159 3500 
L 1159 2969 
Q 1341 3281 1617 3432 
Q 1894 3584 2278 3584 
Q 2916 3584 3314 3078 
Q 3713 2572 3713 1747 
Q 3713 922 3314 415 
Q 2916 -91 2278 -91 
Q 1894 -91 1617 61 
Q 1341 213 1159 525 
z
M 3116 1747 
Q 3116 2381 2855 2742 
Q 2594 3103 2138 3103 
Q 1681 3103 1420 2742 
Q 1159 2381 1159 1747 
Q 1159 1113 1420 752 
Q 1681 391 2138 391 
Q 2594 391 2855 752 
Q 3116 1113 3116 1747 
z
" transform="scale(0.015625)"/>
       <path id="DejaVuSans-6c" d="M 603 4863 
L 1178 4863 
L 1178 0 
L 603 0 
L 603 4863 
z
" transform="scale(0.015625)"/>
       <path id="DejaVuSans-6f" d="M 1959 3097 
Q 1497 3097 1228 2736 
Q 959 2375 959 1747 
Q 959 1119 1226 758 
Q 1494 397 1959 397 
Q 2419 397 2687 759 
Q 2956 1122 2956 1747 
Q 2956 2369 2687 2733 
Q 2419 3097 1959 3097 
z
M 1959 3584 
Q 2709 3584 3137 3096 
Q 3566 2609 3566 1747 
Q 3566 888 3137 398 
Q 2709 -91 1959 -91 
Q 1206 -91 779 398 
Q 353 888 353 1747 
Q 353 2609 779 3096 
Q 1206 3584 1959 3584 
z
" transform="scale(0.015625)"/>
       <path id="DejaVuSans-64" d="M 2906 2969 
L 2906 4863 
L 3481 4863 
L 3481 0 
L 2906 0 
L 2906 525 
Q 2725 213 2448 61 
Q 2172 -91 1784 -91 
Q 1150 -91 751 415 
Q 353 922 353 1747 
Q 353 2572 751 3078 
Q 1150 3584 1784 3584 
Q 2172 3584 2448 3432 
Q 2725 3281 2906 2969 
z
M 947 1747 
Q 947 1113 1208 752 
Q 1469 391 1925 391 
Q 2381 391 2643 752 
Q 2906 1113 2906 1747 
Q 2906 2381 2643 2742 
Q 2381 3103 1925 3103 
Q 1469 3103 1208 2742 
Q 947 2381 947 1747 
z
" transform="scale(0.015625)"/>
       <path id="DejaVuSans-20" transform="scale(0.015625)"/>
       <path id="DejaVuSans-4e" d="M 628 4666 
L 1478 4666 
L 3547 763 
L 3547 4666 
L 4159 4666 
L 4159 0 
L 3309 0 
L 1241 3903 
L 1241 0 
L 628 0 
L 628 4666 
z
" transform="scale(0.015625)"/>
       <path id="DejaVuSans-Oblique-65" d="M 3078 2063 
Q 3088 2113 3092 2166 
Q 3097 2219 3097 2272 
Q 3097 2653 2873 2875 
Q 2650 3097 2266 3097 
Q 1838 3097 1509 2826 
Q 1181 2556 1013 2059 
L 3078 2063 
z
M 3578 1613 
L 903 1613 
Q 884 1494 878 1425 
Q 872 1356 872 1306 
Q 872 872 1139 634 
Q 1406 397 1894 397 
Q 2269 397 2603 481 
Q 2938 566 3225 728 
L 3116 159 
Q 2806 34 2476 -28 
Q 2147 -91 1806 -91 
Q 1078 -91 686 257 
Q 294 606 294 1247 
Q 294 1794 489 2264 
Q 684 2734 1063 3103 
Q 1306 3334 1642 3459 
Q 1978 3584 2356 3584 
Q 2950 3584 3301 3228 
Q 3653 2872 3653 2272 
Q 3653 2128 3634 1964 
Q 3616 1800 3578 1613 
z
" transform="scale(0.015625)"/>
      </defs>
      <use xlink:href="#DejaVuSans-44" transform="translate(0 0.015625)"/>
      <use xlink:href="#DejaVuSans-69" transform="translate(77.001953 0.015625)"/>
      <use xlink:href="#DejaVuSans-70" transform="translate(104.785156 0.015625)"/>
      <use xlink:href="#DejaVuSans-6c" transform="translate(168.261719 0.015625)"/>
      <use xlink:href="#DejaVuSans-6f" transform="translate(196.044922 0.015625)"/>
      <use xlink:href="#DejaVuSans-69" transform="translate(257.226562 0.015625)"/>
      <use xlink:href="#DejaVuSans-64" transform="translate(285.009766 0.015625)"/>
      <use xlink:href="#DejaVuSans-20" transform="translate(348.486328 0.015625)"/>
      <use xlink:href="#DejaVuSans-4e" transform="translate(380.273438 0.015625)"/>
      <use xlink:href="#DejaVuSans-Oblique-65" transform="translate(456.035156 -16.390625) scale(0.7)"/>
      <use xlink:href="#DejaVuSans-30" transform="translate(501.835938 0.015625)"/>
     </g>
    </g>
    <g id="text_5">
     <!-- $\times\mathdefault{10^{3}}\mathdefault{}$ -->
     <g transform="translate(188.56 221.452188) scale(0.1 -0.1)">
      <defs>
       <path id="DejaVuSans-d7" d="M 4488 3438 
L 3059 2003 
L 4488 575 
L 4116 197 
L 2681 1631 
L 1247 197 
L 878 575 
L 2303 2003 
L 878 3438 
L 1247 3816 
L 2681 2381 
L 4116 3816 
L 4488 3438 
z
" transform="scale(0.015625)"/>
       <path id="DejaVuSans-31" d="M 794 531 
L 1825 531 
L 1825 4091 
L 703 3866 
L 703 4441 
L 1819 4666 
L 2450 4666 
L 2450 531 
L 3481 531 
L 3481 0 
L 794 0 
L 794 531 
z
" transform="scale(0.015625)"/>
       <path id="DejaVuSans-33" d="M 2597 2516 
Q 3050 2419 3304 2112 
Q 3559 1806 3559 1356 
Q 3559 666 3084 287 
Q 2609 -91 1734 -91 
Q 1441 -91 1130 -33 
Q 819 25 488 141 
L 488 750 
Q 750 597 1062 519 
Q 1375 441 1716 441 
Q 2309 441 2620 675 
Q 2931 909 2931 1356 
Q 2931 1769 2642 2001 
Q 2353 2234 1838 2234 
L 1294 2234 
L 1294 2753 
L 1863 2753 
Q 2328 2753 2575 2939 
Q 2822 3125 2822 3475 
Q 2822 3834 2567 4026 
Q 2313 4219 1838 4219 
Q 1578 4219 1281 4162 
Q 984 4106 628 3988 
L 628 4550 
Q 988 4650 1302 4700 
Q 1616 4750 1894 4750 
Q 2613 4750 3031 4423 
Q 3450 4097 3450 3541 
Q 3450 3153 3228 2886 
Q 3006 2619 2597 2516 
z
" transform="scale(0.015625)"/>
      </defs>
      <use xlink:href="#DejaVuSans-d7" transform="translate(0 0.765625)"/>
      <use xlink:href="#DejaVuSans-31" transform="translate(83.789062 0.765625)"/>
      <use xlink:href="#DejaVuSans-30" transform="translate(147.412109 0.765625)"/>
      <use xlink:href="#DejaVuSans-33" transform="translate(211.992188 39.046875) scale(0.7)"/>
     </g>
    </g>
   </g>
   <g id="matplotlib.axis_2">
    <g id="ytick_1">
     <g id="line2d_4">
      <defs>
       <path id="md78e7179b5" d="M 0 0 
L -3.5 0 
" style="stroke: #000000; stroke-width: 0.8"/>
      </defs>
      <g>
       <use xlink:href="#md78e7179b5" x="36" y="155.28" style="stroke: #000000; stroke-width: 0.8"/>
      </g>
     </g>
     <g id="text_6">
      <!-- $\mathdefault{250}$ -->
      <g transform="translate(6.08 159.839063) scale(0.12 -0.12)">
       <use xlink:href="#DejaVuSans-32" transform="translate(0 0.78125)"/>
       <use xlink:href="#DejaVuSans-35" transform="translate(63.623047 0.78125)"/>
       <use xlink:href="#DejaVuSans-30" transform="translate(127.246094 0.78125)"/>
      </g>
     </g>
    </g>
    <g id="ytick_2">
     <g id="line2d_5">
      <g>
       <use xlink:href="#md78e7179b5" x="36" y="109.08" style="stroke: #000000; stroke-width: 0.8"/>
      </g>
     </g>
     <g id="text_7">
      <!-- $\mathdefault{500}$ -->
      <g transform="translate(6.08 113.639062) scale(0.12 -0.12)">
       <use xlink:href="#DejaVuSans-35" transform="translate(0 0.78125)"/>
       <use xlink:href="#DejaVuSans-30" transform="translate(63.623047 0.78125)"/>
       <use xlink:href="#DejaVuSans-30" transform="translate(127.246094 0.78125)"/>
      </g>
     </g>
    </g>
    <g id="ytick_3">
     <g id="line2d_6">
      <g>
       <use xlink:href="#md78e7179b5" x="36" y="62.88" style="stroke: #000000; stroke-width: 0.8"/>
      </g>
     </g>
     <g id="text_8">
      <!-- $\mathdefault{750}$ -->
      <g transform="translate(6.08 67.439062) scale(0.12 -0.12)">
       <use xlink:href="#DejaVuSans-37" transform="translate(0 0.78125)"/>
       <use xlink:href="#DejaVuSans-35" transform="translate(63.623047 0.78125)"/>
       <use xlink:href="#DejaVuSans-30" transform="translate(127.246094 0.78125)"/>
      </g>
     </g>
    </g>
    <g id="text_9">
     <!-- Diploid N$_e$1 -->
     <g transform="translate(-1.28 154.36) rotate(-90) scale(0.16 -0.16)">
      <use xlink:href="#DejaVuSans-44" transform="translate(0 0.015625)"/>
      <use xlink:href="#DejaVuSans-69" transform="translate(77.001953 0.015625)"/>
      <use xlink:href="#DejaVuSans-70" transform="translate(104.785156 0.015625)"/>
      <use xlink:href="#DejaVuSans-6c" transform="translate(168.261719 0.015625)"/>
      <use xlink:href="#DejaVuSans-6f" transform="translate(196.044922 0.015625)"/>
      <use xlink:href="#DejaVuSans-69" transform="translate(257.226562 0.015625)"/>
      <use xlink:href="#DejaVuSans-64" transform="translate(285.009766 0.015625)"/>
      <use xlink:href="#DejaVuSans-20" transform="translate(348.486328 0.015625)"/>
      <use xlink:href="#DejaVuSans-4e" transform="translate(380.273438 0.015625)"/>
      <use xlink:href="#DejaVuSans-Oblique-65" transform="translate(456.035156 -16.390625) scale(0.7)"/>
      <use xlink:href="#DejaVuSans-31" transform="translate(501.835938 0.015625)"/>
     </g>
    </g>
    <g id="text_10">
     <!-- $\times\mathdefault{10^{3}}\mathdefault{}$ -->
     <g transform="translate(36 22.92) scale(0.1 -0.1)">
      <use xlink:href="#DejaVuSans-d7" transform="translate(0 0.765625)"/>
      <use xlink:href="#DejaVuSans-31" transform="translate(83.789062 0.765625)"/>
      <use xlink:href="#DejaVuSans-30" transform="translate(147.412109 0.765625)"/>
      <use xlink:href="#DejaVuSans-33" transform="translate(211.992188 39.046875) scale(0.7)"/>
     </g>
    </g>
   </g>
   <g id="patch_3">
    <path d="M 36 192.24 
L 36 25.92 
" style="fill: none; stroke: #000000; stroke-width: 0.8; stroke-linejoin: miter; stroke-linecap: square"/>
   </g>
   <g id="patch_4">
    <path d="M 214.56 192.24 
L 214.56 25.92 
" style="fill: none; stroke: #000000; stroke-width: 0.8; stroke-linejoin: miter; stroke-linecap: square"/>
   </g>
   <g id="patch_5">
    <path d="M 36 192.24 
L 214.56 192.24 
" style="fill: none; stroke: #000000; stroke-width: 0.8; stroke-linejoin: miter; stroke-linecap: square"/>
   </g>
   <g id="patch_6">
    <path d="M 36 25.92 
L 214.56 25.92 
" style="fill: none; stroke: #000000; stroke-width: 0.8; stroke-linejoin: miter; stroke-linecap: square"/>
   </g>
   <g id="text_11">
    <!-- Ne0Ne1-SMC-RGT-P2-S4 -->
    <g transform="translate(28.46625 10.92) scale(0.16 -0.16)">
     <defs>
      <path id="DejaVuSans-65" d="M 3597 1894 
L 3597 1613 
L 953 1613 
Q 991 1019 1311 708 
Q 1631 397 2203 397 
Q 2534 397 2845 478 
Q 3156 559 3463 722 
L 3463 178 
Q 3153 47 2828 -22 
Q 2503 -91 2169 -91 
Q 1331 -91 842 396 
Q 353 884 353 1716 
Q 353 2575 817 3079 
Q 1281 3584 2069 3584 
Q 2775 3584 3186 3129 
Q 3597 2675 3597 1894 
z
M 3022 2063 
Q 3016 2534 2758 2815 
Q 2500 3097 2075 3097 
Q 1594 3097 1305 2825 
Q 1016 2553 972 2059 
L 3022 2063 
z
" transform="scale(0.015625)"/>
      <path id="DejaVuSans-2d" d="M 313 2009 
L 1997 2009 
L 1997 1497 
L 313 1497 
L 313 2009 
z
" transform="scale(0.015625)"/>
      <path id="DejaVuSans-53" d="M 3425 4513 
L 3425 3897 
Q 3066 4069 2747 4153 
Q 2428 4238 2131 4238 
Q 1616 4238 1336 4038 
Q 1056 3838 1056 3469 
Q 1056 3159 1242 3001 
Q 1428 2844 1947 2747 
L 2328 2669 
Q 3034 2534 3370 2195 
Q 3706 1856 3706 1288 
Q 3706 609 3251 259 
Q 2797 -91 1919 -91 
Q 1588 -91 1214 -16 
Q 841 59 441 206 
L 441 856 
Q 825 641 1194 531 
Q 1563 422 1919 422 
Q 2459 422 2753 634 
Q 3047 847 3047 1241 
Q 3047 1584 2836 1778 
Q 2625 1972 2144 2069 
L 1759 2144 
Q 1053 2284 737 2584 
Q 422 2884 422 3419 
Q 422 4038 858 4394 
Q 1294 4750 2059 4750 
Q 2388 4750 2728 4690 
Q 3069 4631 3425 4513 
z
" transform="scale(0.015625)"/>
      <path id="DejaVuSans-4d" d="M 628 4666 
L 1569 4666 
L 2759 1491 
L 3956 4666 
L 4897 4666 
L 4897 0 
L 4281 0 
L 4281 4097 
L 3078 897 
L 2444 897 
L 1241 4097 
L 1241 0 
L 628 0 
L 628 4666 
z
" transform="scale(0.015625)"/>
      <path id="DejaVuSans-43" d="M 4122 4306 
L 4122 3641 
Q 3803 3938 3442 4084 
Q 3081 4231 2675 4231 
Q 1875 4231 1450 3742 
Q 1025 3253 1025 2328 
Q 1025 1406 1450 917 
Q 1875 428 2675 428 
Q 3081 428 3442 575 
Q 3803 722 4122 1019 
L 4122 359 
Q 3791 134 3420 21 
Q 3050 -91 2638 -91 
Q 1578 -91 968 557 
Q 359 1206 359 2328 
Q 359 3453 968 4101 
Q 1578 4750 2638 4750 
Q 3056 4750 3426 4639 
Q 3797 4528 4122 4306 
z
" transform="scale(0.015625)"/>
      <path id="DejaVuSans-52" d="M 2841 2188 
Q 3044 2119 3236 1894 
Q 3428 1669 3622 1275 
L 4263 0 
L 3584 0 
L 2988 1197 
Q 2756 1666 2539 1819 
Q 2322 1972 1947 1972 
L 1259 1972 
L 1259 0 
L 628 0 
L 628 4666 
L 2053 4666 
Q 2853 4666 3247 4331 
Q 3641 3997 3641 3322 
Q 3641 2881 3436 2590 
Q 3231 2300 2841 2188 
z
M 1259 4147 
L 1259 2491 
L 2053 2491 
Q 2509 2491 2742 2702 
Q 2975 2913 2975 3322 
Q 2975 3731 2742 3939 
Q 2509 4147 2053 4147 
L 1259 4147 
z
" transform="scale(0.015625)"/>
      <path id="DejaVuSans-47" d="M 3809 666 
L 3809 1919 
L 2778 1919 
L 2778 2438 
L 4434 2438 
L 4434 434 
Q 4069 175 3628 42 
Q 3188 -91 2688 -91 
Q 1594 -91 976 548 
Q 359 1188 359 2328 
Q 359 3472 976 4111 
Q 1594 4750 2688 4750 
Q 3144 4750 3555 4637 
Q 3966 4525 4313 4306 
L 4313 3634 
Q 3963 3931 3569 4081 
Q 3175 4231 2741 4231 
Q 1884 4231 1454 3753 
Q 1025 3275 1025 2328 
Q 1025 1384 1454 906 
Q 1884 428 2741 428 
Q 3075 428 3337 486 
Q 3600 544 3809 666 
z
" transform="scale(0.015625)"/>
      <path id="DejaVuSans-54" d="M -19 4666 
L 3928 4666 
L 3928 4134 
L 2272 4134 
L 2272 0 
L 1638 0 
L 1638 4134 
L -19 4134 
L -19 4666 
z
" transform="scale(0.015625)"/>
      <path id="DejaVuSans-50" d="M 1259 4147 
L 1259 2394 
L 2053 2394 
Q 2494 2394 2734 2622 
Q 2975 2850 2975 3272 
Q 2975 3691 2734 3919 
Q 2494 4147 2053 4147 
L 1259 4147 
z
M 628 4666 
L 2053 4666 
Q 2838 4666 3239 4311 
Q 3641 3956 3641 3272 
Q 3641 2581 3239 2228 
Q 2838 1875 2053 1875 
L 1259 1875 
L 1259 0 
L 628 0 
L 628 4666 
z
" transform="scale(0.015625)"/>
      <path id="DejaVuSans-34" d="M 2419 4116 
L 825 1625 
L 2419 1625 
L 2419 4116 
z
M 2253 4666 
L 3047 4666 
L 3047 1625 
L 3713 1625 
L 3713 1100 
L 3047 1100 
L 3047 0 
L 2419 0 
L 2419 1100 
L 313 1100 
L 313 1709 
L 2253 4666 
z
" transform="scale(0.015625)"/>
     </defs>
     <use xlink:href="#DejaVuSans-4e"/>
     <use xlink:href="#DejaVuSans-65" x="74.804688"/>
     <use xlink:href="#DejaVuSans-30" x="136.328125"/>
     <use xlink:href="#DejaVuSans-4e" x="199.951172"/>
     <use xlink:href="#DejaVuSans-65" x="274.755859"/>
     <use xlink:href="#DejaVuSans-31" x="336.279297"/>
     <use xlink:href="#DejaVuSans-2d" x="399.902344"/>
     <use xlink:href="#DejaVuSans-53" x="435.986328"/>
     <use xlink:href="#DejaVuSans-4d" x="499.462891"/>
     <use xlink:href="#DejaVuSans-43" x="585.742188"/>
     <use xlink:href="#DejaVuSans-2d" x="655.566406"/>
     <use xlink:href="#DejaVuSans-52" x="691.650391"/>
     <use xlink:href="#DejaVuSans-47" x="761.132812"/>
     <use xlink:href="#DejaVuSans-54" x="834.998047"/>
     <use xlink:href="#DejaVuSans-2d" x="886.957031"/>
     <use xlink:href="#DejaVuSans-50" x="923.041016"/>
     <use xlink:href="#DejaVuSans-32" x="983.34375"/>
     <use xlink:href="#DejaVuSans-2d" x="1046.966797"/>
     <use xlink:href="#DejaVuSans-53" x="1083.050781"/>
     <use xlink:href="#DejaVuSans-34" x="1146.527344"/>
    </g>
   </g>
  </g>
  <g id="axes_2">
   <g id="patch_7">
    <path d="M 225.72 192.24 
L 234.036 192.24 
L 234.036 25.92 
L 225.72 25.92 
z
" style="fill: #ffffff"/>
   </g>
   <g id="QuadMesh_1">
    <path d="M 225.72 192.24 
L 234.036 192.24 
L 234.036 186.504828 
L 225.72 186.504828 
L 225.72 192.24 
" clip-path="url(#p16ae541857)" style="fill: #440154"/>
    <path d="M 225.72 186.504828 
L 234.036 186.504828 
L 234.036 180.769655 
L 225.72 180.769655 
L 225.72 186.504828 
" clip-path="url(#p16ae541857)" style="fill: #440154"/>
    <path d="M 225.72 180.769655 
L 234.036 180.769655 
L 234.036 175.034483 
L 225.72 175.034483 
L 225.72 180.769655 
" clip-path="url(#p16ae541857)" style="fill: #440154"/>
    <path d="M 225.72 175.034483 
L 234.036 175.034483 
L 234.036 169.29931 
L 225.72 169.29931 
L 225.72 175.034483 
" clip-path="url(#p16ae541857)" style="fill: #440154"/>
    <path d="M 225.72 169.29931 
L 234.036 169.29931 
L 234.036 163.564138 
L 225.72 163.564138 
L 225.72 169.29931 
" clip-path="url(#p16ae541857)" style="fill: #440154"/>
    <path d="M 225.72 163.564138 
L 234.036 163.564138 
L 234.036 157.828966 
L 225.72 157.828966 
L 225.72 163.564138 
" clip-path="url(#p16ae541857)" style="fill: #440154"/>
    <path d="M 225.72 157.828966 
L 234.036 157.828966 
L 234.036 152.093793 
L 225.72 152.093793 
L 225.72 157.828966 
" clip-path="url(#p16ae541857)" style="fill: #440154"/>
    <path d="M 225.72 152.093793 
L 234.036 152.093793 
L 234.036 146.358621 
L 225.72 146.358621 
L 225.72 152.093793 
" clip-path="url(#p16ae541857)" style="fill: #440154"/>
    <path d="M 225.72 146.358621 
L 234.036 146.358621 
L 234.036 140.623448 
L 225.72 140.623448 
L 225.72 146.358621 
" clip-path="url(#p16ae541857)" style="fill: #440154"/>
    <path d="M 225.72 140.623448 
L 234.036 140.623448 
L 234.036 134.888276 
L 225.72 134.888276 
L 225.72 140.623448 
" clip-path="url(#p16ae541857)" style="fill: #440154"/>
    <path d="M 225.72 134.888276 
L 234.036 134.888276 
L 234.036 129.153103 
L 225.72 129.153103 
L 225.72 134.888276 
" clip-path="url(#p16ae541857)" style="fill: #440154"/>
    <path d="M 225.72 129.153103 
L 234.036 129.153103 
L 234.036 123.417931 
L 225.72 123.417931 
L 225.72 129.153103 
" clip-path="url(#p16ae541857)" style="fill: #440154"/>
    <path d="M 225.72 123.417931 
L 234.036 123.417931 
L 234.036 117.682759 
L 225.72 117.682759 
L 225.72 123.417931 
" clip-path="url(#p16ae541857)" style="fill: #440154"/>
    <path d="M 225.72 117.682759 
L 234.036 117.682759 
L 234.036 111.947586 
L 225.72 111.947586 
L 225.72 117.682759 
" clip-path="url(#p16ae541857)" style="fill: #440154"/>
    <path d="M 225.72 111.947586 
L 234.036 111.947586 
L 234.036 106.212414 
L 225.72 106.212414 
L 225.72 111.947586 
" clip-path="url(#p16ae541857)" style="fill: #440154"/>
    <path d="M 225.72 106.212414 
L 234.036 106.212414 
L 234.036 100.477241 
L 225.72 100.477241 
L 225.72 106.212414 
" clip-path="url(#p16ae541857)" style="fill: #471164"/>
    <path d="M 225.72 100.477241 
L 234.036 100.477241 
L 234.036 94.742069 
L 225.72 94.742069 
L 225.72 100.477241 
" clip-path="url(#p16ae541857)" style="fill: #482979"/>
    <path d="M 225.72 94.742069 
L 234.036 94.742069 
L 234.036 89.006897 
L 225.72 89.006897 
L 225.72 94.742069 
" clip-path="url(#p16ae541857)" style="fill: #423f85"/>
    <path d="M 225.72 89.006897 
L 234.036 89.006897 
L 234.036 83.271724 
L 225.72 83.271724 
L 225.72 89.006897 
" clip-path="url(#p16ae541857)" style="fill: #3a538b"/>
    <path d="M 225.72 83.271724 
L 234.036 83.271724 
L 234.036 77.536552 
L 225.72 77.536552 
L 225.72 83.271724 
" clip-path="url(#p16ae541857)" style="fill: #31678e"/>
    <path d="M 225.72 77.536552 
L 234.036 77.536552 
L 234.036 71.801379 
L 225.72 71.801379 
L 225.72 77.536552 
" clip-path="url(#p16ae541857)" style="fill: #2a788e"/>
    <path d="M 225.72 71.801379 
L 234.036 71.801379 
L 234.036 66.066207 
L 225.72 66.066207 
L 225.72 71.801379 
" clip-path="url(#p16ae541857)" style="fill: #23898e"/>
    <path d="M 225.72 66.066207 
L 234.036 66.066207 
L 234.036 60.331034 
L 225.72 60.331034 
L 225.72 66.066207 
" clip-path="url(#p16ae541857)" style="fill: #1f9a8a"/>
    <path d="M 225.72 60.331034 
L 234.036 60.331034 
L 234.036 54.595862 
L 225.72 54.595862 
L 225.72 60.331034 
" clip-path="url(#p16ae541857)" style="fill: #25ab82"/>
    <path d="M 225.72 54.595862 
L 234.036 54.595862 
L 234.036 48.86069 
L 225.72 48.86069 
L 225.72 54.595862 
" clip-path="url(#p16ae541857)" style="fill: #3bbb75"/>
    <path d="M 225.72 48.86069 
L 234.036 48.86069 
L 234.036 43.125517 
L 225.72 43.125517 
L 225.72 48.86069 
" clip-path="url(#p16ae541857)" style="fill: #5ec962"/>
    <path d="M 225.72 43.125517 
L 234.036 43.125517 
L 234.036 37.390345 
L 225.72 37.390345 
L 225.72 43.125517 
" clip-path="url(#p16ae541857)" style="fill: #89d548"/>
    <path d="M 225.72 37.390345 
L 234.036 37.390345 
L 234.036 31.655172 
L 225.72 31.655172 
L 225.72 37.390345 
" clip-path="url(#p16ae541857)" style="fill: #b8de29"/>
    <path d="M 225.72 31.655172 
L 234.036 31.655172 
L 234.036 25.92 
L 225.72 25.92 
L 225.72 31.655172 
" clip-path="url(#p16ae541857)" style="fill: #e7e419"/>
   </g>
   <g id="matplotlib.axis_3"/>
   <g id="matplotlib.axis_4">
    <g id="ytick_4">
     <g id="line2d_7">
      <defs>
       <path id="m3408dcba33" d="M 0 0 
L 3.5 0 
" style="stroke: #000000; stroke-width: 0.8"/>
      </defs>
      <g>
       <use xlink:href="#m3408dcba33" x="234.036" y="180.769655" style="stroke: #000000; stroke-width: 0.8"/>
      </g>
     </g>
     <g id="text_12">
      <!-- $\mathdefault{617.785}$ -->
      <g transform="translate(241.036 184.568874) scale(0.1 -0.1)">
       <defs>
        <path id="DejaVuSans-2212" d="M 678 2272 
L 4684 2272 
L 4684 1741 
L 678 1741 
L 678 2272 
z
" transform="scale(0.015625)"/>
        <path id="DejaVuSans-36" d="M 2113 2584 
Q 1688 2584 1439 2293 
Q 1191 2003 1191 1497 
Q 1191 994 1439 701 
Q 1688 409 2113 409 
Q 2538 409 2786 701 
Q 3034 994 3034 1497 
Q 3034 2003 2786 2293 
Q 2538 2584 2113 2584 
z
M 3366 4563 
L 3366 3988 
Q 3128 4100 2886 4159 
Q 2644 4219 2406 4219 
Q 1781 4219 1451 3797 
Q 1122 3375 1075 2522 
Q 1259 2794 1537 2939 
Q 1816 3084 2150 3084 
Q 2853 3084 3261 2657 
Q 3669 2231 3669 1497 
Q 3669 778 3244 343 
Q 2819 -91 2113 -91 
Q 1303 -91 875 529 
Q 447 1150 447 2328 
Q 447 3434 972 4092 
Q 1497 4750 2381 4750 
Q 2619 4750 2861 4703 
Q 3103 4656 3366 4563 
z
" transform="scale(0.015625)"/>
        <path id="DejaVuSans-2e" d="M 684 794 
L 1344 794 
L 1344 0 
L 684 0 
L 684 794 
z
" transform="scale(0.015625)"/>
        <path id="DejaVuSans-38" d="M 2034 2216 
Q 1584 2216 1326 1975 
Q 1069 1734 1069 1313 
Q 1069 891 1326 650 
Q 1584 409 2034 409 
Q 2484 409 2743 651 
Q 3003 894 3003 1313 
Q 3003 1734 2745 1975 
Q 2488 2216 2034 2216 
z
M 1403 2484 
Q 997 2584 770 2862 
Q 544 3141 544 3541 
Q 544 4100 942 4425 
Q 1341 4750 2034 4750 
Q 2731 4750 3128 4425 
Q 3525 4100 3525 3541 
Q 3525 3141 3298 2862 
Q 3072 2584 2669 2484 
Q 3125 2378 3379 2068 
Q 3634 1759 3634 1313 
Q 3634 634 3220 271 
Q 2806 -91 2034 -91 
Q 1263 -91 848 271 
Q 434 634 434 1313 
Q 434 1759 690 2068 
Q 947 2378 1403 2484 
z
M 1172 3481 
Q 1172 3119 1398 2916 
Q 1625 2713 2034 2713 
Q 2441 2713 2670 2916 
Q 2900 3119 2900 3481 
Q 2900 3844 2670 4047 
Q 2441 4250 2034 4250 
Q 1625 4250 1398 4047 
Q 1172 3844 1172 3481 
z
" transform="scale(0.015625)"/>
       </defs>
       <use xlink:href="#DejaVuSans-2212" transform="translate(0 0.78125)"/>
       <use xlink:href="#DejaVuSans-36" transform="translate(83.789062 0.78125)"/>
       <use xlink:href="#DejaVuSans-31" transform="translate(147.412109 0.78125)"/>
       <use xlink:href="#DejaVuSans-37" transform="translate(211.035156 0.78125)"/>
       <use xlink:href="#DejaVuSans-2e" transform="translate(274.658203 0.78125)"/>
       <use xlink:href="#DejaVuSans-37" transform="translate(298.695312 0.78125)"/>
       <use xlink:href="#DejaVuSans-38" transform="translate(362.318359 0.78125)"/>
       <use xlink:href="#DejaVuSans-35" transform="translate(425.941406 0.78125)"/>
      </g>
     </g>
    </g>
    <g id="ytick_5">
     <g id="line2d_8">
      <g>
       <use xlink:href="#m3408dcba33" x="234.036" y="163.564138" style="stroke: #000000; stroke-width: 0.8"/>
      </g>
     </g>
     <g id="text_13">
      <!-- $\mathdefault{617.740}$ -->
      <g transform="translate(241.036 167.363357) scale(0.1 -0.1)">
       <use xlink:href="#DejaVuSans-2212" transform="translate(0 0.78125)"/>
       <use xlink:href="#DejaVuSans-36" transform="translate(83.789062 0.78125)"/>
       <use xlink:href="#DejaVuSans-31" transform="translate(147.412109 0.78125)"/>
       <use xlink:href="#DejaVuSans-37" transform="translate(211.035156 0.78125)"/>
       <use xlink:href="#DejaVuSans-2e" transform="translate(274.658203 0.78125)"/>
       <use xlink:href="#DejaVuSans-37" transform="translate(298.695312 0.78125)"/>
       <use xlink:href="#DejaVuSans-34" transform="translate(362.318359 0.78125)"/>
       <use xlink:href="#DejaVuSans-30" transform="translate(425.941406 0.78125)"/>
      </g>
     </g>
    </g>
    <g id="ytick_6">
     <g id="line2d_9">
      <g>
       <use xlink:href="#m3408dcba33" x="234.036" y="146.358621" style="stroke: #000000; stroke-width: 0.8"/>
      </g>
     </g>
     <g id="text_14">
      <!-- $\mathdefault{617.695}$ -->
      <g transform="translate(241.036 150.157839) scale(0.1 -0.1)">
       <defs>
        <path id="DejaVuSans-39" d="M 703 97 
L 703 672 
Q 941 559 1184 500 
Q 1428 441 1663 441 
Q 2288 441 2617 861 
Q 2947 1281 2994 2138 
Q 2813 1869 2534 1725 
Q 2256 1581 1919 1581 
Q 1219 1581 811 2004 
Q 403 2428 403 3163 
Q 403 3881 828 4315 
Q 1253 4750 1959 4750 
Q 2769 4750 3195 4129 
Q 3622 3509 3622 2328 
Q 3622 1225 3098 567 
Q 2575 -91 1691 -91 
Q 1453 -91 1209 -44 
Q 966 3 703 97 
z
M 1959 2075 
Q 2384 2075 2632 2365 
Q 2881 2656 2881 3163 
Q 2881 3666 2632 3958 
Q 2384 4250 1959 4250 
Q 1534 4250 1286 3958 
Q 1038 3666 1038 3163 
Q 1038 2656 1286 2365 
Q 1534 2075 1959 2075 
z
" transform="scale(0.015625)"/>
       </defs>
       <use xlink:href="#DejaVuSans-2212" transform="translate(0 0.78125)"/>
       <use xlink:href="#DejaVuSans-36" transform="translate(83.789062 0.78125)"/>
       <use xlink:href="#DejaVuSans-31" transform="translate(147.412109 0.78125)"/>
       <use xlink:href="#DejaVuSans-37" transform="translate(211.035156 0.78125)"/>
       <use xlink:href="#DejaVuSans-2e" transform="translate(274.658203 0.78125)"/>
       <use xlink:href="#DejaVuSans-36" transform="translate(306.445312 0.78125)"/>
       <use xlink:href="#DejaVuSans-39" transform="translate(370.068359 0.78125)"/>
       <use xlink:href="#DejaVuSans-35" transform="translate(433.691406 0.78125)"/>
      </g>
     </g>
    </g>
    <g id="ytick_7">
     <g id="line2d_10">
      <g>
       <use xlink:href="#m3408dcba33" x="234.036" y="129.153103" style="stroke: #000000; stroke-width: 0.8"/>
      </g>
     </g>
     <g id="text_15">
      <!-- $\mathdefault{617.650}$ -->
      <g transform="translate(241.036 132.952322) scale(0.1 -0.1)">
       <use xlink:href="#DejaVuSans-2212" transform="translate(0 0.78125)"/>
       <use xlink:href="#DejaVuSans-36" transform="translate(83.789062 0.78125)"/>
       <use xlink:href="#DejaVuSans-31" transform="translate(147.412109 0.78125)"/>
       <use xlink:href="#DejaVuSans-37" transform="translate(211.035156 0.78125)"/>
       <use xlink:href="#DejaVuSans-2e" transform="translate(274.658203 0.78125)"/>
       <use xlink:href="#DejaVuSans-36" transform="translate(306.445312 0.78125)"/>
       <use xlink:href="#DejaVuSans-35" transform="translate(370.068359 0.78125)"/>
       <use xlink:href="#DejaVuSans-30" transform="translate(433.691406 0.78125)"/>
      </g>
     </g>
    </g>
    <g id="ytick_8">
     <g id="line2d_11">
      <g>
       <use xlink:href="#m3408dcba33" x="234.036" y="111.947586" style="stroke: #000000; stroke-width: 0.8"/>
      </g>
     </g>
     <g id="text_16">
      <!-- $\mathdefault{617.605}$ -->
      <g transform="translate(241.036 115.746805) scale(0.1 -0.1)">
       <use xlink:href="#DejaVuSans-2212" transform="translate(0 0.78125)"/>
       <use xlink:href="#DejaVuSans-36" transform="translate(83.789062 0.78125)"/>
       <use xlink:href="#DejaVuSans-31" transform="translate(147.412109 0.78125)"/>
       <use xlink:href="#DejaVuSans-37" transform="translate(211.035156 0.78125)"/>
       <use xlink:href="#DejaVuSans-2e" transform="translate(274.658203 0.78125)"/>
       <use xlink:href="#DejaVuSans-36" transform="translate(306.445312 0.78125)"/>
       <use xlink:href="#DejaVuSans-30" transform="translate(370.068359 0.78125)"/>
       <use xlink:href="#DejaVuSans-35" transform="translate(433.691406 0.78125)"/>
      </g>
     </g>
    </g>
    <g id="ytick_9">
     <g id="line2d_12">
      <g>
       <use xlink:href="#m3408dcba33" x="234.036" y="94.742069" style="stroke: #000000; stroke-width: 0.8"/>
      </g>
     </g>
     <g id="text_17">
      <!-- $\mathdefault{617.560}$ -->
      <g transform="translate(241.036 98.541288) scale(0.1 -0.1)">
       <use xlink:href="#DejaVuSans-2212" transform="translate(0 0.78125)"/>
       <use xlink:href="#DejaVuSans-36" transform="translate(83.789062 0.78125)"/>
       <use xlink:href="#DejaVuSans-31" transform="translate(147.412109 0.78125)"/>
       <use xlink:href="#DejaVuSans-37" transform="translate(211.035156 0.78125)"/>
       <use xlink:href="#DejaVuSans-2e" transform="translate(274.658203 0.78125)"/>
       <use xlink:href="#DejaVuSans-35" transform="translate(306.445312 0.78125)"/>
       <use xlink:href="#DejaVuSans-36" transform="translate(370.068359 0.78125)"/>
       <use xlink:href="#DejaVuSans-30" transform="translate(433.691406 0.78125)"/>
      </g>
     </g>
    </g>
    <g id="ytick_10">
     <g id="line2d_13">
      <g>
       <use xlink:href="#m3408dcba33" x="234.036" y="77.536552" style="stroke: #000000; stroke-width: 0.8"/>
      </g>
     </g>
     <g id="text_18">
      <!-- $\mathdefault{617.515}$ -->
      <g transform="translate(241.036 81.33577) scale(0.1 -0.1)">
       <use xlink:href="#DejaVuSans-2212" transform="translate(0 0.78125)"/>
       <use xlink:href="#DejaVuSans-36" transform="translate(83.789062 0.78125)"/>
       <use xlink:href="#DejaVuSans-31" transform="translate(147.412109 0.78125)"/>
       <use xlink:href="#DejaVuSans-37" transform="translate(211.035156 0.78125)"/>
       <use xlink:href="#DejaVuSans-2e" transform="translate(274.658203 0.78125)"/>
       <use xlink:href="#DejaVuSans-35" transform="translate(306.445312 0.78125)"/>
       <use xlink:href="#DejaVuSans-31" transform="translate(370.068359 0.78125)"/>
       <use xlink:href="#DejaVuSans-35" transform="translate(433.691406 0.78125)"/>
      </g>
     </g>
    </g>
    <g id="ytick_11">
     <g id="line2d_14">
      <g>
       <use xlink:href="#m3408dcba33" x="234.036" y="60.331034" style="stroke: #000000; stroke-width: 0.8"/>
      </g>
     </g>
     <g id="text_19">
      <!-- $\mathdefault{617.470}$ -->
      <g transform="translate(241.036 64.130253) scale(0.1 -0.1)">
       <use xlink:href="#DejaVuSans-2212" transform="translate(0 0.78125)"/>
       <use xlink:href="#DejaVuSans-36" transform="translate(83.789062 0.78125)"/>
       <use xlink:href="#DejaVuSans-31" transform="translate(147.412109 0.78125)"/>
       <use xlink:href="#DejaVuSans-37" transform="translate(211.035156 0.78125)"/>
       <use xlink:href="#DejaVuSans-2e" transform="translate(274.658203 0.78125)"/>
       <use xlink:href="#DejaVuSans-34" transform="translate(306.445312 0.78125)"/>
       <use xlink:href="#DejaVuSans-37" transform="translate(370.068359 0.78125)"/>
       <use xlink:href="#DejaVuSans-30" transform="translate(433.691406 0.78125)"/>
      </g>
     </g>
    </g>
    <g id="ytick_12">
     <g id="line2d_15">
      <g>
       <use xlink:href="#m3408dcba33" x="234.036" y="43.125517" style="stroke: #000000; stroke-width: 0.8"/>
      </g>
     </g>
     <g id="text_20">
      <!-- $\mathdefault{617.425}$ -->
      <g transform="translate(241.036 46.924736) scale(0.1 -0.1)">
       <use xlink:href="#DejaVuSans-2212" transform="translate(0 0.78125)"/>
       <use xlink:href="#DejaVuSans-36" transform="translate(83.789062 0.78125)"/>
       <use xlink:href="#DejaVuSans-31" transform="translate(147.412109 0.78125)"/>
       <use xlink:href="#DejaVuSans-37" transform="translate(211.035156 0.78125)"/>
       <use xlink:href="#DejaVuSans-2e" transform="translate(274.658203 0.78125)"/>
       <use xlink:href="#DejaVuSans-34" transform="translate(306.445312 0.78125)"/>
       <use xlink:href="#DejaVuSans-32" transform="translate(370.068359 0.78125)"/>
       <use xlink:href="#DejaVuSans-35" transform="translate(433.691406 0.78125)"/>
      </g>
     </g>
    </g>
    <g id="ytick_13">
     <g id="line2d_16">
      <g>
       <use xlink:href="#m3408dcba33" x="234.036" y="25.92" style="stroke: #000000; stroke-width: 0.8"/>
      </g>
     </g>
     <g id="text_21">
      <!-- $\mathdefault{617.380}$ -->
      <g transform="translate(241.036 29.719219) scale(0.1 -0.1)">
       <use xlink:href="#DejaVuSans-2212" transform="translate(0 0.78125)"/>
       <use xlink:href="#DejaVuSans-36" transform="translate(83.789062 0.78125)"/>
       <use xlink:href="#DejaVuSans-31" transform="translate(147.412109 0.78125)"/>
       <use xlink:href="#DejaVuSans-37" transform="translate(211.035156 0.78125)"/>
       <use xlink:href="#DejaVuSans-2e" transform="translate(274.658203 0.78125)"/>
       <use xlink:href="#DejaVuSans-33" transform="translate(306.445312 0.78125)"/>
       <use xlink:href="#DejaVuSans-38" transform="translate(370.068359 0.78125)"/>
       <use xlink:href="#DejaVuSans-30" transform="translate(433.691406 0.78125)"/>
      </g>
     </g>
    </g>
    <g id="text_22">
     <!-- log likelihood -->
     <g transform="translate(303.954125 148.704375) rotate(-90) scale(0.12 -0.12)">
      <defs>
       <path id="DejaVuSans-67" d="M 2906 1791 
Q 2906 2416 2648 2759 
Q 2391 3103 1925 3103 
Q 1463 3103 1205 2759 
Q 947 2416 947 1791 
Q 947 1169 1205 825 
Q 1463 481 1925 481 
Q 2391 481 2648 825 
Q 2906 1169 2906 1791 
z
M 3481 434 
Q 3481 -459 3084 -895 
Q 2688 -1331 1869 -1331 
Q 1566 -1331 1297 -1286 
Q 1028 -1241 775 -1147 
L 775 -588 
Q 1028 -725 1275 -790 
Q 1522 -856 1778 -856 
Q 2344 -856 2625 -561 
Q 2906 -266 2906 331 
L 2906 616 
Q 2728 306 2450 153 
Q 2172 0 1784 0 
Q 1141 0 747 490 
Q 353 981 353 1791 
Q 353 2603 747 3093 
Q 1141 3584 1784 3584 
Q 2172 3584 2450 3431 
Q 2728 3278 2906 2969 
L 2906 3500 
L 3481 3500 
L 3481 434 
z
" transform="scale(0.015625)"/>
       <path id="DejaVuSans-6b" d="M 581 4863 
L 1159 4863 
L 1159 1991 
L 2875 3500 
L 3609 3500 
L 1753 1863 
L 3688 0 
L 2938 0 
L 1159 1709 
L 1159 0 
L 581 0 
L 581 4863 
z
" transform="scale(0.015625)"/>
       <path id="DejaVuSans-68" d="M 3513 2113 
L 3513 0 
L 2938 0 
L 2938 2094 
Q 2938 2591 2744 2837 
Q 2550 3084 2163 3084 
Q 1697 3084 1428 2787 
Q 1159 2491 1159 1978 
L 1159 0 
L 581 0 
L 581 4863 
L 1159 4863 
L 1159 2956 
Q 1366 3272 1645 3428 
Q 1925 3584 2291 3584 
Q 2894 3584 3203 3211 
Q 3513 2838 3513 2113 
z
" transform="scale(0.015625)"/>
      </defs>
      <use xlink:href="#DejaVuSans-6c"/>
      <use xlink:href="#DejaVuSans-6f" x="27.783203"/>
      <use xlink:href="#DejaVuSans-67" x="88.964844"/>
      <use xlink:href="#DejaVuSans-20" x="152.441406"/>
      <use xlink:href="#DejaVuSans-6c" x="184.228516"/>
      <use xlink:href="#DejaVuSans-69" x="212.011719"/>
      <use xlink:href="#DejaVuSans-6b" x="239.794922"/>
      <use xlink:href="#DejaVuSans-65" x="294.080078"/>
      <use xlink:href="#DejaVuSans-6c" x="355.603516"/>
      <use xlink:href="#DejaVuSans-69" x="383.386719"/>
      <use xlink:href="#DejaVuSans-68" x="411.169922"/>
      <use xlink:href="#DejaVuSans-6f" x="474.548828"/>
      <use xlink:href="#DejaVuSans-6f" x="535.730469"/>
      <use xlink:href="#DejaVuSans-64" x="596.912109"/>
     </g>
    </g>
    <g id="text_23">
     <!-- $\times\mathdefault{10^{3}}\mathdefault{}$ -->
     <g transform="translate(208.036 22.92) scale(0.1 -0.1)">
      <use xlink:href="#DejaVuSans-d7" transform="translate(0 0.765625)"/>
      <use xlink:href="#DejaVuSans-31" transform="translate(83.789062 0.765625)"/>
      <use xlink:href="#DejaVuSans-30" transform="translate(147.412109 0.765625)"/>
      <use xlink:href="#DejaVuSans-33" transform="translate(211.992188 39.046875) scale(0.7)"/>
     </g>
    </g>
   </g>
   <g id="LineCollection_1"/>
   <g id="patch_8">
    <path d="M 225.72 192.24 
L 229.878 192.24 
L 234.036 192.24 
L 234.036 25.92 
L 229.878 25.92 
L 225.72 25.92 
L 225.72 192.24 
z
" style="fill: none; stroke: #000000; stroke-width: 0.8; stroke-linejoin: miter; stroke-linecap: square"/>
   </g>
  </g>
 </g>
 <defs>
  <clipPath id="p8d6b1cfb56">
   <rect x="36" y="25.92" width="178.56" height="166.32"/>
  </clipPath>
  <clipPath id="p16ae541857">
   <rect x="225.72" y="25.92" width="8.316" height="166.32"/>
  </clipPath>
 </defs>
</svg>
