<?xml version="1.0" encoding="utf-8" standalone="no"?>
<!DOCTYPE svg PUBLIC "-//W3C//DTD SVG 1.1//EN"
  "http://www.w3.org/Graphics/SVG/1.1/DTD/svg11.dtd">
<svg xmlns:xlink="http://www.w3.org/1999/xlink" width="288pt" height="216pt" viewBox="0 0 288 216" xmlns="http://www.w3.org/2000/svg" version="1.1">
 <metadata>
  <rdf:RDF xmlns:dc="http://purl.org/dc/elements/1.1/" xmlns:cc="http://creativecommons.org/ns#" xmlns:rdf="http://www.w3.org/1999/02/22-rdf-syntax-ns#">
   <cc:Work>
    <dc:type rdf:resource="http://purl.org/dc/dcmitype/StillImage"/>
    <dc:date>2023-07-18T17:55:47.338608</dc:date>
    <dc:format>image/svg+xml</dc:format>
    <dc:creator>
     <cc:Agent>
      <dc:title>Matplotlib v3.7.1, https://matplotlib.org/</dc:title>
     </cc:Agent>
    </dc:creator>
   </cc:Work>
  </rdf:RDF>
 </metadata>
 <defs>
  <style type="text/css">*{stroke-linejoin: round; stroke-linecap: butt}</style>
 </defs>
 <g id="figure_1">
  <g id="patch_1">
   <path d="M 0 216 
L 288 216 
L 288 0 
L 0 0 
z
" style="fill: #ffffff"/>
  </g>
  <g id="axes_1">
   <g id="patch_2">
    <path d="M 36 192.24 
L 214.56 192.24 
L 214.56 25.92 
L 36 25.92 
z
" style="fill: #ffffff"/>
   </g>
   <g id="PathCollection_1">
    <path d="M 36.17757 192.24 
L 36 192.24 
L 36 192.05172 
z
" clip-path="url(#p9f3ba0a7e5)" style="fill: #440154"/>
   </g>
   <g id="PathCollection_2">
    <path d="M 36.994971 192.24 
L 36.17757 192.24 
L 36 192.05172 
L 36 191.185018 
z
" clip-path="url(#p9f3ba0a7e5)" style="fill: #440154"/>
   </g>
   <g id="PathCollection_3">
    <path d="M 37.812372 192.24 
L 36.994971 192.24 
L 36 191.185018 
L 36 190.318316 
z
" clip-path="url(#p9f3ba0a7e5)" style="fill: #440154"/>
   </g>
   <g id="PathCollection_4">
    <path d="M 38.629773 192.24 
L 37.812372 192.24 
L 36 190.318316 
L 36 189.451615 
z
" clip-path="url(#p9f3ba0a7e5)" style="fill: #440154"/>
   </g>
   <g id="PathCollection_5">
    <path d="M 39.447173 192.24 
L 38.629773 192.24 
L 36 189.451615 
L 36 188.584913 
z
" clip-path="url(#p9f3ba0a7e5)" style="fill: #440154"/>
   </g>
   <g id="PathCollection_6">
    <path d="M 40.264574 192.24 
L 39.447173 192.24 
L 36 188.584913 
L 36 187.718212 
z
" clip-path="url(#p9f3ba0a7e5)" style="fill: #440154"/>
   </g>
   <g id="PathCollection_7">
    <path d="M 41.081975 192.24 
L 40.264574 192.24 
L 36 187.718212 
L 36 186.85151 
z
" clip-path="url(#p9f3ba0a7e5)" style="fill: #440154"/>
   </g>
   <g id="PathCollection_8">
    <path d="M 36 186.696 
L 36 185.693837 
L 36.761747 186.696 
L 41.899376 192.24 
L 41.081975 192.24 
L 36 186.85151 
z
" clip-path="url(#p9f3ba0a7e5)" style="fill: #440154"/>
   </g>
   <g id="PathCollection_9">
    <path d="M 36.761747 186.696 
L 36 185.693837 
L 36 184.472539 
L 37.690059 186.696 
L 41.952 191.301449 
L 43.095058 192.24 
L 41.952 192.24 
L 41.899376 192.24 
z
" clip-path="url(#p9f3ba0a7e5)" style="fill: #440154"/>
   </g>
   <g id="PathCollection_10">
    <path d="M 37.690059 186.696 
L 36 184.472539 
L 36 183.251241 
L 38.618371 186.696 
L 41.952 190.298316 
L 44.31677 192.24 
L 43.095058 192.24 
L 41.952 191.301449 
z
" clip-path="url(#p9f3ba0a7e5)" style="fill: #440154"/>
   </g>
   <g id="PathCollection_11">
    <path d="M 38.618371 186.696 
L 36 183.251241 
L 36 182.029944 
L 39.546683 186.696 
L 41.952 189.295183 
L 45.538482 192.24 
L 44.31677 192.24 
L 41.952 190.298316 
z
" clip-path="url(#p9f3ba0a7e5)" style="fill: #440154"/>
   </g>
   <g id="PathCollection_12">
    <path d="M 39.546683 186.696 
L 36 182.029944 
L 36 181.152 
L 36 180.685972 
L 36.292656 181.152 
L 40.474995 186.696 
L 41.952 188.29205 
L 46.760194 192.24 
L 45.538482 192.24 
L 41.952 189.295183 
z
" clip-path="url(#p9f3ba0a7e5)" style="fill: #440154"/>
   </g>
   <g id="PathCollection_13">
    <path d="M 40.474995 186.696 
L 36.292656 181.152 
L 36 180.685972 
L 36 179.02833 
L 37.333624 181.152 
L 41.403306 186.696 
L 41.952 187.288918 
L 47.904 192.167251 
L 48.015377 192.24 
L 47.904 192.24 
L 46.760194 192.24 
L 41.952 188.29205 
z
" clip-path="url(#p9f3ba0a7e5)" style="fill: #440154"/>
   </g>
   <g id="PathCollection_14">
    <path d="M 41.403306 186.696 
L 37.333624 181.152 
L 36 179.02833 
L 36 177.370687 
L 38.374592 181.152 
L 41.952 186.106454 
L 42.53086 186.696 
L 47.904 191.026418 
L 49.761966 192.24 
L 48.015377 192.24 
L 47.904 192.167251 
L 41.952 187.288918 
z
" clip-path="url(#p9f3ba0a7e5)" style="fill: #440154"/>
   </g>
   <g id="PathCollection_15">
    <path d="M 38.374592 181.152 
L 36 177.370687 
L 36 175.713044 
L 39.415559 181.152 
L 41.952 184.664788 
L 43.946395 186.696 
L 47.904 189.885585 
L 51.508555 192.24 
L 49.761966 192.24 
L 47.904 191.026418 
L 42.53086 186.696 
L 41.952 186.106454 
z
" clip-path="url(#p9f3ba0a7e5)" style="fill: #440154"/>
   </g>
   <g id="PathCollection_16">
    <path d="M 39.415559 181.152 
L 36 175.713044 
L 36 175.608 
L 36 173.558473 
L 37.082647 175.608 
L 40.456527 181.152 
L 41.952 183.223123 
L 45.36193 186.696 
L 47.904 188.744751 
L 53.255145 192.24 
L 51.508555 192.24 
L 47.904 189.885585 
L 43.946395 186.696 
L 41.952 184.664788 
z
" clip-path="url(#p9f3ba0a7e5)" style="fill: #440154"/>
   </g>
   <g id="PathCollection_17">
    <path d="M 40.456527 181.152 
L 37.082647 175.608 
L 36 173.558473 
L 36 171.370281 
L 38.238542 175.608 
L 41.497495 181.152 
L 41.952 181.781457 
L 46.777465 186.696 
L 47.904 187.603918 
L 53.856 191.400325 
L 55.43924 192.24 
L 53.856 192.24 
L 53.255145 192.24 
L 47.904 188.744751 
L 45.36193 186.696 
L 41.952 183.223123 
z
" clip-path="url(#p9f3ba0a7e5)" style="fill: #481769"/>
    <path d="M 208.733119 25.92 
L 214.56 25.92 
L 214.56 31.095717 
z
" clip-path="url(#p9f3ba0a7e5)" style="fill: #481769"/>
   </g>
   <g id="PathCollection_18">
    <path d="M 41.497495 181.152 
L 38.238542 175.608 
L 36 171.370281 
L 36 170.064 
L 36 168.9246 
L 36.513185 170.064 
L 39.394437 175.608 
L 41.952 180.026863 
L 42.865239 181.152 
L 47.904 186.354311 
L 48.326032 186.696 
L 53.856 190.120302 
L 57.852775 192.24 
L 55.43924 192.24 
L 53.856 191.400325 
L 47.904 187.603918 
L 46.777465 186.696 
L 41.952 181.781457 
z
" clip-path="url(#p9f3ba0a7e5)" style="fill: #472c7a"/>
    <path d="M 189.919974 31.464 
L 184.949724 25.92 
L 190.752 25.92 
L 196.704 25.92 
L 202.656 25.92 
L 208.608 25.92 
L 208.733119 25.92 
L 214.56 31.095717 
L 214.56 31.464 
L 214.56 37.008 
L 214.56 42.552 
L 214.56 48.096 
L 214.56 52.485498 
L 208.608 48.223506 
L 208.439388 48.096 
L 202.656 43.477296 
L 201.561728 42.552 
L 196.704 38.216116 
L 195.426401 37.008 
L 190.752 32.344079 
z
" clip-path="url(#p9f3ba0a7e5)" style="fill: #472c7a"/>
   </g>
   <g id="PathCollection_19">
    <path d="M 39.394437 175.608 
L 36.513185 170.064 
L 36 168.9246 
L 36 166.097527 
L 37.786498 170.064 
L 40.550332 175.608 
L 41.952 178.02975 
L 44.486235 181.152 
L 47.904 184.680701 
L 50.393165 186.696 
L 53.856 188.840278 
L 59.808 191.970203 
L 60.424789 192.24 
L 59.808 192.24 
L 57.852775 192.24 
L 53.856 190.120302 
L 48.326032 186.696 
L 47.904 186.354311 
L 42.865239 181.152 
L 41.952 180.026863 
z
" clip-path="url(#p9f3ba0a7e5)" style="fill: #424086"/>
    <path d="M 165.223724 25.92 
L 166.944 25.92 
L 172.896 25.92 
L 178.848 25.92 
L 184.8 25.92 
L 184.949724 25.92 
L 189.919974 31.464 
L 190.752 32.344079 
L 195.426401 37.008 
L 196.704 38.216116 
L 201.561728 42.552 
L 202.656 43.477296 
L 208.439388 48.096 
L 208.608 48.223506 
L 214.56 52.485498 
L 214.56 53.64 
L 214.56 59.184 
L 214.56 64.728 
L 214.56 70.272 
L 214.56 70.604841 
L 213.969437 70.272 
L 208.608 67.069981 
L 204.91074 64.728 
L 202.656 63.215364 
L 196.99172 59.184 
L 196.704 58.967233 
L 190.752 54.213686 
L 190.075629 53.64 
L 184.8 48.902701 
L 183.954906 48.096 
L 178.848 42.936609 
L 178.490103 42.552 
L 173.607803 37.008 
L 172.896 36.154114 
L 169.221349 31.464 
L 166.944 28.391477 
z
" clip-path="url(#p9f3ba0a7e5)" style="fill: #424086"/>
   </g>
   <g id="PathCollection_20">
    <path d="M 40.550332 175.608 
L 37.786498 170.064 
L 36 166.097527 
L 36 164.52 
L 36 162.933553 
L 36.615824 164.52 
L 39.05981 170.064 
L 41.706227 175.608 
L 41.952 176.032637 
L 46.10723 181.152 
L 47.904 183.00709 
L 52.460299 186.696 
L 53.856 187.560255 
L 59.808 190.54941 
L 63.672902 192.24 
L 60.424789 192.24 
L 59.808 191.970203 
L 53.856 188.840278 
L 50.393165 186.696 
L 47.904 184.680701 
L 44.486235 181.152 
L 41.952 178.02975 
z
" clip-path="url(#p9f3ba0a7e5)" style="fill: #3a538b"/>
    <path d="M 148.487339 25.92 
L 149.088 25.92 
L 155.04 25.92 
L 160.992 25.92 
L 165.223724 25.92 
L 166.944 28.391477 
L 169.221349 31.464 
L 172.896 36.154114 
L 173.607803 37.008 
L 178.490103 42.552 
L 178.848 42.936609 
L 183.954906 48.096 
L 184.8 48.902701 
L 190.075629 53.64 
L 190.752 54.213686 
L 196.704 58.967233 
L 196.99172 59.184 
L 202.656 63.215364 
L 204.91074 64.728 
L 208.608 67.069981 
L 213.969437 70.272 
L 214.56 70.604841 
L 214.56 75.816 
L 214.56 81.36 
L 214.56 86.165939 
L 208.608 83.238025 
L 205.012119 81.36 
L 202.656 80.053153 
L 196.704 76.547933 
L 195.532855 75.816 
L 190.752 72.642653 
L 187.398894 70.272 
L 184.8 68.321233 
L 180.30678 64.728 
L 178.848 63.489826 
L 174.088166 59.184 
L 172.896 58.039634 
L 168.597662 53.64 
L 166.944 51.844161 
L 163.709182 48.096 
L 160.992 44.755725 
L 159.313016 42.552 
L 155.329361 37.008 
L 155.04 36.582869 
L 151.777806 31.464 
L 149.088 26.988373 
z
" clip-path="url(#p9f3ba0a7e5)" style="fill: #3a538b"/>
   </g>
   <g id="PathCollection_21">
    <path d="M 41.706227 175.608 
L 39.05981 170.064 
L 36.615824 164.52 
L 36 162.933553 
L 36 159.344246 
L 38.009113 164.52 
L 40.333122 170.064 
L 41.952 173.487698 
L 43.400836 175.608 
L 47.728226 181.152 
L 47.904 181.33348 
L 53.856 186.072878 
L 54.805102 186.696 
L 59.808 189.128616 
L 65.76 191.681269 
L 67.289542 192.24 
L 65.76 192.24 
L 63.672902 192.24 
L 59.808 190.54941 
L 53.856 187.560255 
L 52.460299 186.696 
L 47.904 183.00709 
L 46.10723 181.152 
L 41.952 176.032637 
z
" clip-path="url(#p9f3ba0a7e5)" style="fill: #32648e"/>
    <path d="M 136.801085 31.464 
L 134.136128 25.92 
L 137.184 25.92 
L 143.136 25.92 
L 148.487339 25.92 
L 149.088 26.988373 
L 151.777806 31.464 
L 155.04 36.582869 
L 155.329361 37.008 
L 159.313016 42.552 
L 160.992 44.755725 
L 163.709182 48.096 
L 166.944 51.844161 
L 168.597662 53.64 
L 172.896 58.039634 
L 174.088166 59.184 
L 178.848 63.489826 
L 180.30678 64.728 
L 184.8 68.321233 
L 187.398894 70.272 
L 190.752 72.642653 
L 195.532855 75.816 
L 196.704 76.547933 
L 202.656 80.053153 
L 205.012119 81.36 
L 208.608 83.238025 
L 214.56 86.165939 
L 214.56 86.904 
L 214.56 92.448 
L 214.56 97.992 
L 214.56 99.738704 
L 210.198094 97.992 
L 208.608 97.314544 
L 202.656 94.629209 
L 198.119732 92.448 
L 196.704 91.723614 
L 190.752 88.488519 
L 188.018521 86.904 
L 184.8 84.918102 
L 179.404857 81.36 
L 178.848 80.969161 
L 172.896 76.513097 
L 172.024911 75.816 
L 166.944 71.485926 
L 165.613158 70.272 
L 160.992 65.783 
L 159.977608 64.728 
L 155.04 59.258412 
L 154.977285 59.184 
L 150.572886 53.64 
L 149.088 51.650936 
L 146.610068 48.096 
L 143.136 42.788697 
L 142.991428 42.552 
L 139.78597 37.008 
L 137.184 32.219421 
z
" clip-path="url(#p9f3ba0a7e5)" style="fill: #32648e"/>
   </g>
   <g id="PathCollection_22">
    <path d="M 40.333122 170.064 
L 38.009113 164.52 
L 36 159.344246 
L 36 158.976 
L 36 154.94592 
L 37.360323 158.976 
L 39.402403 164.52 
L 41.606434 170.064 
L 41.952 170.794822 
L 45.24092 175.608 
L 47.904 179.038617 
L 50.064086 181.152 
L 53.856 184.154476 
L 57.727095 186.696 
L 59.808 187.707822 
L 65.76 190.118134 
L 71.568664 192.24 
L 67.289542 192.24 
L 65.76 191.681269 
L 59.808 189.128616 
L 54.805102 186.696 
L 53.856 186.072878 
L 47.904 181.33348 
L 47.728226 181.152 
L 43.400836 175.608 
L 41.952 173.487698 
z
" clip-path="url(#p9f3ba0a7e5)" style="fill: #2b748e"/>
    <path d="M 123.824918 31.464 
L 121.581977 25.92 
L 125.28 25.92 
L 131.232 25.92 
L 134.136128 25.92 
L 136.801085 31.464 
L 137.184 32.219421 
L 139.78597 37.008 
L 142.991428 42.552 
L 143.136 42.788697 
L 146.610068 48.096 
L 149.088 51.650936 
L 150.572886 53.64 
L 154.977285 59.184 
L 155.04 59.258412 
L 159.977608 64.728 
L 160.992 65.783 
L 165.613158 70.272 
L 166.944 71.485926 
L 172.024911 75.816 
L 172.896 76.513097 
L 178.848 80.969161 
L 179.404857 81.36 
L 184.8 84.918102 
L 188.018521 86.904 
L 190.752 88.488519 
L 196.704 91.723614 
L 198.119732 92.448 
L 202.656 94.629209 
L 208.608 97.314544 
L 210.198094 97.992 
L 214.56 99.738704 
L 214.56 103.536 
L 214.56 109.08 
L 214.56 111.760321 
L 208.608 109.719255 
L 206.848298 109.08 
L 202.656 107.458226 
L 196.704 105.004163 
L 193.364242 103.536 
L 190.752 102.312295 
L 184.8 99.337279 
L 182.28162 97.992 
L 178.848 96.036011 
L 172.980313 92.448 
L 172.896 92.393012 
L 166.944 88.247522 
L 165.1481 86.904 
L 160.992 83.584436 
L 158.399214 81.36 
L 155.04 78.282149 
L 152.534192 75.816 
L 149.088 72.19245 
L 147.387874 70.272 
L 143.136 65.13799 
L 142.82002 64.728 
L 138.802661 59.184 
L 137.184 56.799424 
L 135.187441 53.64 
L 131.903913 48.096 
L 131.232 46.892697 
L 128.975295 42.552 
L 126.270621 37.008 
L 125.28 34.857225 
z
" clip-path="url(#p9f3ba0a7e5)" style="fill: #2b748e"/>
   </g>
   <g id="PathCollection_23">
    <path d="M 41.606434 170.064 
L 39.402403 164.52 
L 37.360323 158.976 
L 36 154.94592 
L 36 153.432 
L 36 149.753941 
L 37.087773 153.432 
L 38.876165 158.976 
L 40.795692 164.52 
L 41.952 167.472178 
L 43.463489 170.064 
L 47.081005 175.608 
L 47.904 176.668194 
L 52.486891 181.152 
L 53.856 182.236075 
L 59.808 186.069286 
L 60.967867 186.696 
L 65.76 188.554998 
L 71.712 190.590176 
L 77.065319 192.24 
L 71.712 192.24 
L 71.568664 192.24 
L 65.76 190.118134 
L 59.808 187.707822 
L 57.727095 186.696 
L 53.856 184.154476 
L 50.064086 181.152 
L 47.904 179.038617 
L 45.24092 175.608 
L 41.952 170.794822 
z
" clip-path="url(#p9f3ba0a7e5)" style="fill: #25838e"/>
    <path d="M 112.348062 31.464 
L 110.474756 25.92 
L 113.376 25.92 
L 119.328 25.92 
L 121.581977 25.92 
L 123.824918 31.464 
L 125.28 34.857225 
L 126.270621 37.008 
L 128.975295 42.552 
L 131.232 46.892697 
L 131.903913 48.096 
L 135.187441 53.64 
L 137.184 56.799424 
L 138.802661 59.184 
L 142.82002 64.728 
L 143.136 65.13799 
L 147.387874 70.272 
L 149.088 72.19245 
L 152.534192 75.816 
L 155.04 78.282149 
L 158.399214 81.36 
L 160.992 83.584436 
L 165.1481 86.904 
L 166.944 88.247522 
L 172.896 92.393012 
L 172.980313 92.448 
L 178.848 96.036011 
L 182.28162 97.992 
L 184.8 99.337279 
L 190.752 102.312295 
L 193.364242 103.536 
L 196.704 105.004163 
L 202.656 107.458226 
L 206.848298 109.08 
L 208.608 109.719255 
L 214.56 111.760321 
L 214.56 114.624 
L 214.56 120.168 
L 214.56 122.554865 
L 208.608 120.819378 
L 206.501503 120.168 
L 202.656 118.903112 
L 196.704 116.816438 
L 190.873206 114.624 
L 190.752 114.575447 
L 184.8 112.043494 
L 178.848 109.314176 
L 178.369054 109.08 
L 172.896 106.223485 
L 168.125288 103.536 
L 166.944 102.82512 
L 160.992 98.979795 
L 159.571251 97.992 
L 155.04 94.621008 
L 152.332468 92.448 
L 149.088 89.659694 
L 146.114373 86.904 
L 143.136 83.94615 
L 140.720382 81.36 
L 137.184 77.298935 
L 135.985937 75.816 
L 131.805124 70.272 
L 131.232 69.460577 
L 128.127672 64.728 
L 125.28 60.063812 
L 124.781151 59.184 
L 121.824507 53.64 
L 119.328 48.618812 
L 119.086438 48.096 
L 116.666972 42.552 
L 114.404325 37.008 
L 113.376 34.335696 
z
" clip-path="url(#p9f3ba0a7e5)" style="fill: #25838e"/>
   </g>
   <g id="PathCollection_24">
    <path d="M 40.795692 164.52 
L 38.876165 158.976 
L 37.087773 153.432 
L 36 149.753941 
L 36 147.888 
L 36 143.387611 
L 37.173876 147.888 
L 38.72874 153.432 
L 40.392006 158.976 
L 41.952 163.733679 
L 42.347595 164.52 
L 45.537974 170.064 
L 47.904 173.798259 
L 49.463486 175.608 
L 53.856 179.941461 
L 55.384625 181.152 
L 59.808 183.892041 
L 64.997322 186.696 
L 65.76 186.991863 
L 71.712 188.883173 
L 77.664 190.587869 
L 83.616 192.14147 
L 84.054384 192.24 
L 83.616 192.24 
L 77.664 192.24 
L 77.065319 192.24 
L 71.712 190.590176 
L 65.76 188.554998 
L 60.967867 186.696 
L 59.808 186.069286 
L 53.856 182.236075 
L 52.486891 181.152 
L 47.904 176.668194 
L 47.081005 175.608 
L 43.463489 170.064 
L 41.952 167.472178 
z
" clip-path="url(#p9f3ba0a7e5)" style="fill: #20938c"/>
    <path d="M 100.483581 25.92 
L 101.472 25.92 
L 107.424 25.92 
L 110.474756 25.92 
L 112.348062 31.464 
L 113.376 34.335696 
L 114.404325 37.008 
L 116.666972 42.552 
L 119.086438 48.096 
L 119.328 48.618812 
L 121.824507 53.64 
L 124.781151 59.184 
L 125.28 60.063812 
L 128.127672 64.728 
L 131.232 69.460577 
L 131.805124 70.272 
L 135.985937 75.816 
L 137.184 77.298935 
L 140.720382 81.36 
L 143.136 83.94615 
L 146.114373 86.904 
L 149.088 89.659694 
L 152.332468 92.448 
L 155.04 94.621008 
L 159.571251 97.992 
L 160.992 98.979795 
L 166.944 102.82512 
L 168.125288 103.536 
L 172.896 106.223485 
L 178.369054 109.08 
L 178.848 109.314176 
L 184.8 112.043494 
L 190.752 114.575447 
L 190.873206 114.624 
L 196.704 116.816438 
L 202.656 118.903112 
L 206.501503 120.168 
L 208.608 120.819378 
L 214.56 122.554865 
L 214.56 125.712 
L 214.56 131.256 
L 214.56 132.397861 
L 209.938768 131.256 
L 208.608 130.907836 
L 202.656 129.258149 
L 196.704 127.490508 
L 191.125559 125.712 
L 190.752 125.585462 
L 184.8 123.442839 
L 178.848 121.129914 
L 176.539025 120.168 
L 172.896 118.550419 
L 166.944 115.699269 
L 164.858714 114.624 
L 160.992 112.493435 
L 155.283082 109.08 
L 155.04 108.924457 
L 149.088 104.825039 
L 147.361364 103.536 
L 143.136 100.150997 
L 140.648747 97.992 
L 137.184 94.759968 
L 134.894462 92.448 
L 131.232 88.467309 
L 129.902257 86.904 
L 125.523593 81.36 
L 125.28 81.029814 
L 121.717173 75.816 
L 119.328 72.041502 
L 118.289907 70.272 
L 115.251598 64.728 
L 113.376 61.049672 
L 112.492956 59.184 
L 110.032552 53.64 
L 107.744204 48.096 
L 107.424 47.273738 
L 105.713901 42.552 
L 103.834605 37.008 
L 102.074933 31.464 
L 101.472 29.454692 
z
" clip-path="url(#p9f3ba0a7e5)" style="fill: #20938c"/>
   </g>
   <g id="PathCollection_25">
    <path d="M 40.392006 158.976 
L 38.72874 153.432 
L 37.173876 147.888 
L 36 143.387611 
L 36 142.344 
L 36 136.8 
L 36 135.120526 
L 36.346518 136.8 
L 37.606679 142.344 
L 38.942541 147.888 
L 40.369707 153.432 
L 41.907848 158.976 
L 41.952 159.110655 
L 44.673416 164.52 
L 47.612459 170.064 
L 47.904 170.524134 
L 52.284856 175.608 
L 53.856 177.158021 
L 58.899454 181.152 
L 59.808 181.714795 
L 65.76 184.708663 
L 70.178818 186.696 
L 71.712 187.17617 
L 77.664 188.735523 
L 83.616 190.142351 
L 89.568 191.423789 
L 93.779013 192.24 
L 89.568 192.24 
L 84.054384 192.24 
L 83.616 192.14147 
L 77.664 190.587869 
L 71.712 188.883173 
L 65.76 186.991863 
L 64.997322 186.696 
L 59.808 183.892041 
L 55.384625 181.152 
L 53.856 179.941461 
L 49.463486 175.608 
L 47.904 173.798259 
L 45.537974 170.064 
L 42.347595 164.52 
L 41.952 163.733679 
z
" clip-path="url(#p9f3ba0a7e5)" style="fill: #20a386"/>
    <path d="M 94.232707 37.008 
L 92.77757 31.464 
L 91.414353 25.92 
L 95.52 25.92 
L 100.483581 25.92 
L 101.472 29.454692 
L 102.074933 31.464 
L 103.834605 37.008 
L 105.713901 42.552 
L 107.424 47.273738 
L 107.744204 48.096 
L 110.032552 53.64 
L 112.492956 59.184 
L 113.376 61.049672 
L 115.251598 64.728 
L 118.289907 70.272 
L 119.328 72.041502 
L 121.717173 75.816 
L 125.28 81.029814 
L 125.523593 81.36 
L 129.902257 86.904 
L 131.232 88.467309 
L 134.894462 92.448 
L 137.184 94.759968 
L 140.648747 97.992 
L 143.136 100.150997 
L 147.361364 103.536 
L 149.088 104.825039 
L 155.04 108.924457 
L 155.283082 109.08 
L 160.992 112.493435 
L 164.858714 114.624 
L 166.944 115.699269 
L 172.896 118.550419 
L 176.539025 120.168 
L 178.848 121.129914 
L 184.8 123.442839 
L 190.752 125.585462 
L 191.125559 125.712 
L 196.704 127.490508 
L 202.656 129.258149 
L 208.608 130.907836 
L 209.938768 131.256 
L 214.56 132.397861 
L 214.56 136.8 
L 214.56 141.511702 
L 208.608 140.207225 
L 202.656 138.810057 
L 196.704 137.30944 
L 194.807607 136.8 
L 190.752 135.651643 
L 184.8 133.842971 
L 178.848 131.886011 
L 177.05994 131.256 
L 172.896 129.700681 
L 166.944 127.295062 
L 163.328806 125.712 
L 160.992 124.622275 
L 155.04 121.619355 
L 152.391024 120.168 
L 149.088 118.232815 
L 143.44561 114.624 
L 143.136 114.411679 
L 137.184 109.990451 
L 136.058384 109.08 
L 131.232 104.876238 
L 129.817925 103.536 
L 125.28 98.892299 
L 124.470055 97.992 
L 119.849226 92.448 
L 119.328 91.774389 
L 115.847092 86.904 
L 113.376 83.151318 
L 112.284787 81.36 
L 109.146202 75.816 
L 107.424 72.530434 
L 106.325767 70.272 
L 103.813391 64.728 
L 101.49232 59.184 
L 101.472 59.132492 
L 99.454989 53.64 
L 97.564743 48.096 
L 95.804632 42.552 
L 95.52 41.602848 
z
" clip-path="url(#p9f3ba0a7e5)" style="fill: #20a386"/>
   </g>
   <g id="PathCollection_26">
    <path d="M 41.907848 158.976 
L 40.369707 153.432 
L 38.942541 147.888 
L 37.606679 142.344 
L 36.346518 136.8 
L 36 135.120526 
L 36 131.256 
L 36 125.712 
L 36 123.842927 
L 36.31074 125.712 
L 37.316793 131.256 
L 38.378337 136.8 
L 39.505623 142.344 
L 40.711206 147.888 
L 41.952 153.163143 
L 42.055206 153.432 
L 44.472219 158.976 
L 46.999237 164.52 
L 47.904 166.24744 
L 50.715831 170.064 
L 53.856 173.856906 
L 55.725073 175.608 
L 59.808 178.747252 
L 63.509229 181.152 
L 65.76 182.257353 
L 71.712 184.725434 
L 76.930314 186.696 
L 77.664 186.883177 
L 83.616 188.143232 
L 89.568 189.276505 
L 95.52 190.304138 
L 101.472 191.242853 
L 107.424 192.106055 
L 108.470918 192.24 
L 107.424 192.24 
L 101.472 192.24 
L 95.52 192.24 
L 93.779013 192.24 
L 89.568 191.423789 
L 83.616 190.142351 
L 77.664 188.735523 
L 71.712 187.17617 
L 70.178818 186.696 
L 65.76 184.708663 
L 59.808 181.714795 
L 58.899454 181.152 
L 53.856 177.158021 
L 52.284856 175.608 
L 47.904 170.524134 
L 47.612459 170.064 
L 44.673416 164.52 
L 41.952 159.110655 
z
" clip-path="url(#p9f3ba0a7e5)" style="fill: #2db27d"/>
    <path d="M 82.981749 25.92 
L 83.616 25.92 
L 89.568 25.92 
L 91.414353 25.92 
L 92.77757 31.464 
L 94.232707 37.008 
L 95.52 41.602848 
L 95.804632 42.552 
L 97.564743 48.096 
L 99.454989 53.64 
L 101.472 59.132492 
L 101.49232 59.184 
L 103.813391 64.728 
L 106.325767 70.272 
L 107.424 72.530434 
L 109.146202 75.816 
L 112.284787 81.36 
L 113.376 83.151318 
L 115.847092 86.904 
L 119.328 91.774389 
L 119.849226 92.448 
L 124.470055 97.992 
L 125.28 98.892299 
L 129.817925 103.536 
L 131.232 104.876238 
L 136.058384 109.08 
L 137.184 109.990451 
L 143.136 114.411679 
L 143.44561 114.624 
L 149.088 118.232815 
L 152.391024 120.168 
L 155.04 121.619355 
L 160.992 124.622275 
L 163.328806 125.712 
L 166.944 127.295062 
L 172.896 129.700681 
L 177.05994 131.256 
L 178.848 131.886011 
L 184.8 133.842971 
L 190.752 135.651643 
L 194.807607 136.8 
L 196.704 137.30944 
L 202.656 138.810057 
L 208.608 140.207225 
L 214.56 141.511702 
L 214.56 142.344 
L 214.56 147.888 
L 214.56 150.147313 
L 208.608 149.029024 
L 202.956053 147.888 
L 202.656 147.82538 
L 196.704 146.50907 
L 190.752 145.089454 
L 184.8 143.553032 
L 180.464614 142.344 
L 178.848 141.8727 
L 172.896 140.012309 
L 166.944 137.981184 
L 163.75246 136.8 
L 160.992 135.72229 
L 155.04 133.200081 
L 150.853769 131.256 
L 149.088 130.384668 
L 143.136 127.189585 
L 140.621911 125.712 
L 137.184 123.550976 
L 132.286753 120.168 
L 131.232 119.38521 
L 125.374014 114.624 
L 125.28 114.541582 
L 119.574472 109.08 
L 119.328 108.824554 
L 114.64209 103.536 
L 113.376 101.982781 
L 110.380507 97.992 
L 107.424 93.691498 
L 106.634371 92.448 
L 103.372408 86.904 
L 101.472 83.385809 
L 100.456325 81.36 
L 97.878455 75.816 
L 95.52 70.279222 
L 95.51713 70.272 
L 93.446742 64.728 
L 91.539677 59.184 
L 89.776212 53.64 
L 89.568 52.945133 
L 88.203271 48.096 
L 86.751512 42.552 
L 85.399681 37.008 
L 84.137287 31.464 
L 83.616 29.037976 
z
" clip-path="url(#p9f3ba0a7e5)" style="fill: #2db27d"/>
   </g>
   <g id="PathCollection_27">
    <path d="M 40.711206 147.888 
L 39.505623 142.344 
L 38.378337 136.8 
L 37.316793 131.256 
L 36.31074 125.712 
L 36 123.842927 
L 36 120.168 
L 36 114.624 
L 36 109.08 
L 36 106.783565 
L 36.283778 109.08 
L 37.022511 114.624 
L 37.798016 120.168 
L 38.616206 125.712 
L 39.484109 131.256 
L 40.410156 136.8 
L 41.404567 142.344 
L 41.952 145.06793 
L 42.907049 147.888 
L 44.941662 153.432 
L 47.068047 158.976 
L 47.904 160.889524 
L 50.2161 164.52 
L 53.856 169.841716 
L 54.059541 170.064 
L 59.808 175.455924 
L 60.006748 175.608 
L 65.76 179.088893 
L 69.594089 181.152 
L 71.712 181.983608 
L 77.664 183.954061 
L 83.616 185.763501 
L 87.054839 186.696 
L 89.568 187.129221 
L 95.52 188.007326 
L 101.472 188.795171 
L 107.424 189.506177 
L 113.376 190.151233 
L 119.328 190.739271 
L 125.28 191.277682 
L 131.232 191.772641 
L 137.184 192.229342 
L 137.340942 192.24 
L 137.184 192.24 
L 131.232 192.24 
L 125.28 192.24 
L 119.328 192.24 
L 113.376 192.24 
L 108.470918 192.24 
L 107.424 192.106055 
L 101.472 191.242853 
L 95.52 190.304138 
L 89.568 189.276505 
L 83.616 188.143232 
L 77.664 186.883177 
L 76.930314 186.696 
L 71.712 184.725434 
L 65.76 182.257353 
L 63.509229 181.152 
L 59.808 178.747252 
L 55.725073 175.608 
L 53.856 173.856906 
L 50.715831 170.064 
L 47.904 166.24744 
L 46.999237 164.52 
L 44.472219 158.976 
L 42.055206 153.432 
L 41.952 153.163143 
z
" clip-path="url(#p9f3ba0a7e5)" style="fill: #48c16e"/>
    <path d="M 77.052201 37.008 
L 75.997543 31.464 
L 75.014807 25.92 
L 77.664 25.92 
L 82.981749 25.92 
L 83.616 29.037976 
L 84.137287 31.464 
L 85.399681 37.008 
L 86.751512 42.552 
L 88.203271 48.096 
L 89.568 52.945133 
L 89.776212 53.64 
L 91.539677 59.184 
L 93.446742 64.728 
L 95.51713 70.272 
L 95.52 70.279222 
L 97.878455 75.816 
L 100.456325 81.36 
L 101.472 83.385809 
L 103.372408 86.904 
L 106.634371 92.448 
L 107.424 93.691498 
L 110.380507 97.992 
L 113.376 101.982781 
L 114.64209 103.536 
L 119.328 108.824554 
L 119.574472 109.08 
L 125.28 114.541582 
L 125.374014 114.624 
L 131.232 119.38521 
L 132.286753 120.168 
L 137.184 123.550976 
L 140.621911 125.712 
L 143.136 127.189585 
L 149.088 130.384668 
L 150.853769 131.256 
L 155.04 133.200081 
L 160.992 135.72229 
L 163.75246 136.8 
L 166.944 137.981184 
L 172.896 140.012309 
L 178.848 141.8727 
L 180.464614 142.344 
L 184.8 143.553032 
L 190.752 145.089454 
L 196.704 146.50907 
L 202.656 147.82538 
L 202.956053 147.888 
L 208.608 149.029024 
L 214.56 150.147313 
L 214.56 153.432 
L 214.56 158.638664 
L 208.608 157.662909 
L 202.656 156.611224 
L 196.704 155.473649 
L 190.752 154.238283 
L 187.155388 153.432 
L 184.8 152.898709 
L 178.848 151.450582 
L 172.896 149.866837 
L 166.944 148.125505 
L 166.18994 147.888 
L 160.992 146.202719 
L 155.04 144.077057 
L 150.640698 142.344 
L 149.088 141.704714 
L 143.136 139.035792 
L 138.653003 136.8 
L 137.184 136.025226 
L 131.232 132.583108 
L 129.153505 131.256 
L 125.28 128.612935 
L 121.439189 125.712 
L 119.328 123.99502 
L 115.053224 120.168 
L 113.376 118.540314 
L 109.691487 114.624 
L 107.424 111.994257 
L 105.118104 109.08 
L 101.472 104.016856 
L 101.152437 103.536 
L 97.740208 97.992 
L 95.52 94.01265 
L 94.707722 92.448 
L 92.049186 86.904 
L 89.641023 81.36 
L 89.568 81.180217 
L 87.521792 75.816 
L 85.592103 70.272 
L 83.823863 64.728 
L 83.616 64.033566 
L 82.238227 59.184 
L 80.784779 53.64 
L 79.442177 48.096 
L 78.197365 42.552 
L 77.664 40.022926 
z
" clip-path="url(#p9f3ba0a7e5)" style="fill: #48c16e"/>
   </g>
   <g id="PathCollection_28">
    <path d="M 41.404567 142.344 
L 40.410156 136.8 
L 39.484109 131.256 
L 38.616206 125.712 
L 37.798016 120.168 
L 37.022511 114.624 
L 36.283778 109.08 
L 36 106.783565 
L 36 103.536 
L 36 97.992 
L 36 92.448 
L 36 86.904 
L 36 81.36 
L 36 75.816 
L 36 74.944589 
L 36.063741 75.816 
L 36.5013 81.36 
L 36.95738 86.904 
L 37.434359 92.448 
L 37.934961 97.992 
L 38.462318 103.536 
L 39.020059 109.08 
L 39.612409 114.624 
L 40.244327 120.168 
L 40.921672 125.712 
L 41.651424 131.256 
L 41.952 133.280222 
L 42.894032 136.8 
L 44.470703 142.344 
L 46.106995 147.888 
L 47.828117 153.432 
L 47.904 153.638954 
L 50.86843 158.976 
L 53.856 164.226996 
L 54.088922 164.52 
L 59.125677 170.064 
L 59.808 170.704004 
L 65.76 175.187696 
L 66.428432 175.608 
L 71.712 178.130674 
L 77.664 180.745841 
L 78.748099 181.152 
L 83.616 182.385679 
L 89.568 183.721278 
L 95.52 184.937527 
L 101.472 186.055917 
L 105.267686 186.696 
L 107.424 186.906298 
L 113.376 187.397842 
L 119.328 187.831056 
L 125.28 188.213335 
L 131.232 188.550852 
L 137.184 188.848799 
L 143.136 189.111573 
L 149.088 189.342923 
L 155.04 189.546065 
L 160.992 189.723772 
L 166.944 189.878448 
L 172.896 190.012184 
L 178.848 190.126813 
L 184.8 190.223942 
L 190.752 190.304988 
L 196.704 190.371207 
L 202.656 190.42371 
L 208.608 190.463491 
L 214.56 190.491433 
L 214.56 192.24 
L 208.608 192.24 
L 202.656 192.24 
L 196.704 192.24 
L 190.752 192.24 
L 184.8 192.24 
L 178.848 192.24 
L 172.896 192.24 
L 166.944 192.24 
L 160.992 192.24 
L 155.04 192.24 
L 149.088 192.24 
L 143.136 192.24 
L 137.340942 192.24 
L 137.184 192.229342 
L 131.232 191.772641 
L 125.28 191.277682 
L 119.328 190.739271 
L 113.376 190.151233 
L 107.424 189.506177 
L 101.472 188.795171 
L 95.52 188.007326 
L 89.568 187.129221 
L 87.054839 186.696 
L 83.616 185.763501 
L 77.664 183.954061 
L 71.712 181.983608 
L 69.594089 181.152 
L 65.76 179.088893 
L 60.006748 175.608 
L 59.808 175.455924 
L 54.059541 170.064 
L 53.856 169.841716 
L 50.2161 164.52 
L 47.904 160.889524 
L 47.068047 158.976 
L 44.941662 153.432 
L 42.907049 147.888 
L 41.952 145.06793 
z
" clip-path="url(#p9f3ba0a7e5)" style="fill: #69cd5b"/>
    <path d="M 70.929436 48.096 
L 69.875123 42.552 
L 68.902823 37.008 
L 68.00252 31.464 
L 67.165863 25.92 
L 71.712 25.92 
L 75.014807 25.92 
L 75.997543 31.464 
L 77.052201 37.008 
L 77.664 40.022926 
L 78.197365 42.552 
L 79.442177 48.096 
L 80.784779 53.64 
L 82.238227 59.184 
L 83.616 64.033566 
L 83.823863 64.728 
L 85.592103 70.272 
L 87.521792 75.816 
L 89.568 81.180217 
L 89.641023 81.36 
L 92.049186 86.904 
L 94.707722 92.448 
L 95.52 94.01265 
L 97.740208 97.992 
L 101.152437 103.536 
L 101.472 104.016856 
L 105.118104 109.08 
L 107.424 111.994257 
L 109.691487 114.624 
L 113.376 118.540314 
L 115.053224 120.168 
L 119.328 123.99502 
L 121.439189 125.712 
L 125.28 128.612935 
L 129.153505 131.256 
L 131.232 132.583108 
L 137.184 136.025226 
L 138.653003 136.8 
L 143.136 139.035792 
L 149.088 141.704714 
L 150.640698 142.344 
L 155.04 144.077057 
L 160.992 146.202719 
L 166.18994 147.888 
L 166.944 148.125505 
L 172.896 149.866837 
L 178.848 151.450582 
L 184.8 152.898709 
L 187.155388 153.432 
L 190.752 154.238283 
L 196.704 155.473649 
L 202.656 156.611224 
L 208.608 157.662909 
L 214.56 158.638664 
L 214.56 158.976 
L 214.56 164.52 
L 214.56 167.746365 
L 208.608 166.84654 
L 202.656 165.861325 
L 196.704 164.776371 
L 195.398771 164.52 
L 190.752 163.690064 
L 184.8 162.5317 
L 178.848 161.254351 
L 172.896 159.836065 
L 169.611255 158.976 
L 166.944 158.303634 
L 160.992 156.666785 
L 155.04 154.833787 
L 150.954981 153.432 
L 149.088 152.791745 
L 143.136 150.553962 
L 137.184 148.007811 
L 136.927465 147.888 
L 131.232 145.159073 
L 126.077248 142.344 
L 125.28 141.888052 
L 119.328 138.129166 
L 117.446673 136.8 
L 113.376 133.734854 
L 110.423277 131.256 
L 107.424 128.537033 
L 104.602434 125.712 
L 101.472 122.28743 
L 99.701446 120.168 
L 95.52 114.634036 
L 95.512998 114.624 
L 91.929018 109.08 
L 89.568 104.988495 
L 88.783022 103.536 
L 86.033963 97.992 
L 83.616 92.526197 
L 83.583084 92.448 
L 81.408773 86.904 
L 79.456073 81.36 
L 77.68914 75.816 
L 77.664 75.731882 
L 76.082859 70.272 
L 74.624554 64.728 
L 73.292734 59.184 
L 72.07011 53.64 
L 71.712 51.907479 
z
" clip-path="url(#p9f3ba0a7e5)" style="fill: #69cd5b"/>
   </g>
   <g id="PathCollection_29">
    <path d="M 41.651424 131.256 
L 40.921672 125.712 
L 40.244327 120.168 
L 39.612409 114.624 
L 39.020059 109.08 
L 38.462318 103.536 
L 37.934961 97.992 
L 37.434359 92.448 
L 36.95738 86.904 
L 36.5013 81.36 
L 36.063741 75.816 
L 36 74.944589 
L 36 70.272 
L 36 64.728 
L 36 59.184 
L 36 53.64 
L 36 48.096 
L 36 42.552 
L 36 37.008 
L 36 31.464 
L 36 25.92 
L 37.998988 25.92 
L 38.143033 31.464 
L 38.297302 37.008 
L 38.462558 42.552 
L 38.639654 48.096 
L 38.829547 53.64 
L 39.033307 59.184 
L 39.252142 64.728 
L 39.487416 70.272 
L 39.740671 75.816 
L 40.013665 81.36 
L 40.308401 86.904 
L 40.627176 92.448 
L 40.972635 97.992 
L 41.347837 103.536 
L 41.75634 109.08 
L 41.952 111.437536 
L 42.507176 114.624 
L 43.527943 120.168 
L 44.574759 125.712 
L 45.660824 131.256 
L 46.800431 136.8 
L 47.904 141.814292 
L 48.106988 142.344 
L 50.470256 147.888 
L 52.825527 153.432 
L 53.856 155.60304 
L 56.207073 158.976 
L 59.808 163.874908 
L 60.44597 164.52 
L 65.76 169.165858 
L 67.008979 170.064 
L 71.712 172.729551 
L 77.279221 175.608 
L 77.664 175.752362 
L 83.616 177.505735 
L 89.568 179.099194 
L 95.52 180.570361 
L 98.237458 181.152 
L 101.472 181.560446 
L 107.424 182.173546 
L 113.376 182.690131 
L 119.328 183.119231 
L 125.28 183.467709 
L 131.232 183.740596 
L 137.184 183.941315 
L 143.136 184.071816 
L 149.088 184.132643 
L 155.04 184.122921 
L 160.992 184.040274 
L 166.944 183.880656 
L 172.896 183.638086 
L 178.848 183.304232 
L 184.8 182.867829 
L 190.752 182.313808 
L 196.704 181.622044 
L 200.123834 181.152 
L 196.704 180.179629 
L 190.752 177.909393 
L 186.64149 175.608 
L 184.8 175.254108 
L 178.848 173.977023 
L 172.896 172.453668 
L 166.944 170.585166 
L 165.511346 170.064 
L 160.992 168.950932 
L 155.04 167.2634 
L 149.088 165.247131 
L 147.213696 164.52 
L 143.136 163.201714 
L 137.184 160.980655 
L 132.636934 158.976 
L 131.232 158.402022 
L 125.28 155.673876 
L 121.129923 153.432 
L 119.328 152.474847 
L 113.376 148.873528 
L 111.945241 147.888 
L 107.424 144.695489 
L 104.508739 142.344 
L 101.472 139.752044 
L 98.385634 136.8 
L 95.52 133.826358 
L 93.269046 131.256 
L 89.568 126.565145 
L 88.944006 125.712 
L 85.234561 120.168 
L 83.616 117.44968 
L 82.015096 114.624 
L 79.214408 109.08 
L 77.664 105.635477 
L 76.737535 103.536 
L 74.524855 97.992 
L 72.583703 92.448 
L 71.712 89.712657 
L 70.80106 86.904 
L 69.17462 81.36 
L 67.729898 75.816 
L 66.433678 70.272 
L 65.76 67.138243 
L 65.204331 64.728 
L 64.033194 59.184 
L 62.980531 53.64 
L 62.026867 48.096 
L 61.157092 42.552 
L 60.359251 37.008 
L 59.808 32.882023 
L 59.587702 31.464 
L 58.78482 25.92 
L 59.808 25.92 
L 65.76 25.92 
L 67.165863 25.92 
L 68.00252 31.464 
L 68.902823 37.008 
L 69.875123 42.552 
L 70.929436 48.096 
L 71.712 51.907479 
L 72.07011 53.64 
L 73.292734 59.184 
L 74.624554 64.728 
L 76.082859 70.272 
L 77.664 75.731882 
L 77.68914 75.816 
L 79.456073 81.36 
L 81.408773 86.904 
L 83.583084 92.448 
L 83.616 92.526197 
L 86.033963 97.992 
L 88.783022 103.536 
L 89.568 104.988495 
L 91.929018 109.08 
L 95.512998 114.624 
L 95.52 114.634036 
L 99.701446 120.168 
L 101.472 122.28743 
L 104.602434 125.712 
L 107.424 128.537033 
L 110.423277 131.256 
L 113.376 133.734854 
L 117.446673 136.8 
L 119.328 138.129166 
L 125.28 141.888052 
L 126.077248 142.344 
L 131.232 145.159073 
L 136.927465 147.888 
L 137.184 148.007811 
L 143.136 150.553962 
L 149.088 152.791745 
L 150.954981 153.432 
L 155.04 154.833787 
L 160.992 156.666785 
L 166.944 158.303634 
L 169.611255 158.976 
L 172.896 159.836065 
L 178.848 161.254351 
L 184.8 162.5317 
L 190.752 163.690064 
L 195.398771 164.52 
L 196.704 164.776371 
L 202.656 165.861325 
L 208.608 166.84654 
L 214.56 167.746365 
L 214.56 170.064 
L 214.56 175.608 
L 214.56 181.152 
L 214.56 186.696 
L 214.56 190.491433 
L 208.608 190.463491 
L 202.656 190.42371 
L 196.704 190.371207 
L 190.752 190.304988 
L 184.8 190.223942 
L 178.848 190.126813 
L 172.896 190.012184 
L 166.944 189.878448 
L 160.992 189.723772 
L 155.04 189.546065 
L 149.088 189.342923 
L 143.136 189.111573 
L 137.184 188.848799 
L 131.232 188.550852 
L 125.28 188.213335 
L 119.328 187.831056 
L 113.376 187.397842 
L 107.424 186.906298 
L 105.267686 186.696 
L 101.472 186.055917 
L 95.52 184.937527 
L 89.568 183.721278 
L 83.616 182.385679 
L 78.748099 181.152 
L 77.664 180.745841 
L 71.712 178.130674 
L 66.428432 175.608 
L 65.76 175.187696 
L 59.808 170.704004 
L 59.125677 170.064 
L 54.088922 164.52 
L 53.856 164.226996 
L 50.86843 158.976 
L 47.904 153.638954 
L 47.828117 153.432 
L 46.106995 147.888 
L 44.470703 142.344 
L 42.894032 136.8 
L 41.952 133.280222 
z
" clip-path="url(#p9f3ba0a7e5)" style="fill: #93d741"/>
   </g>
   <g id="PathCollection_30">
    <path d="M 41.75634 109.08 
L 41.347837 103.536 
L 40.972635 97.992 
L 40.627176 92.448 
L 40.308401 86.904 
L 40.013665 81.36 
L 39.740671 75.816 
L 39.487416 70.272 
L 39.252142 64.728 
L 39.033307 59.184 
L 38.829547 53.64 
L 38.639654 48.096 
L 38.462558 42.552 
L 38.297302 37.008 
L 38.143033 31.464 
L 37.998988 25.92 
L 41.952 25.92 
L 47.904 25.92 
L 53.856 25.92 
L 58.78482 25.92 
L 59.587702 31.464 
L 59.808 32.882023 
L 60.359251 37.008 
L 61.157092 42.552 
L 62.026867 48.096 
L 62.980531 53.64 
L 64.033194 59.184 
L 65.204331 64.728 
L 65.76 67.138243 
L 66.433678 70.272 
L 67.729898 75.816 
L 69.17462 81.36 
L 70.80106 86.904 
L 71.712 89.712657 
L 72.583703 92.448 
L 74.524855 97.992 
L 76.737535 103.536 
L 77.664 105.635477 
L 79.214408 109.08 
L 82.015096 114.624 
L 83.616 117.44968 
L 85.234561 120.168 
L 88.944006 125.712 
L 89.568 126.565145 
L 93.269046 131.256 
L 95.52 133.826358 
L 98.385634 136.8 
L 101.472 139.752044 
L 104.508739 142.344 
L 107.424 144.695489 
L 111.945241 147.888 
L 113.376 148.873528 
L 119.328 152.474847 
L 121.129923 153.432 
L 125.28 155.673876 
L 131.232 158.402022 
L 132.636934 158.976 
L 137.184 160.980655 
L 143.136 163.201714 
L 147.213696 164.52 
L 149.088 165.247131 
L 155.04 167.2634 
L 160.992 168.950932 
L 165.511346 170.064 
L 166.944 170.585166 
L 172.896 172.453668 
L 178.848 173.977023 
L 184.8 175.254108 
L 186.64149 175.608 
L 190.752 177.909393 
L 196.704 180.179629 
L 200.123834 181.152 
L 196.704 181.622044 
L 190.752 182.313808 
L 184.8 182.867829 
L 178.848 183.304232 
L 172.896 183.638086 
L 166.944 183.880656 
L 160.992 184.040274 
L 155.04 184.122921 
L 149.088 184.132643 
L 143.136 184.071816 
L 137.184 183.941315 
L 131.232 183.740596 
L 125.28 183.467709 
L 119.328 183.119231 
L 113.376 182.690131 
L 107.424 182.173546 
L 101.472 181.560446 
L 98.237458 181.152 
L 95.52 180.570361 
L 89.568 179.099194 
L 83.616 177.505735 
L 77.664 175.752362 
L 77.279221 175.608 
L 71.712 172.729551 
L 67.008979 170.064 
L 65.76 169.165858 
L 60.44597 164.52 
L 59.808 163.874908 
L 56.207073 158.976 
L 53.856 155.60304 
L 52.825527 153.432 
L 50.470256 147.888 
L 48.106988 142.344 
L 47.904 141.814292 
L 46.800431 136.8 
L 45.660824 131.256 
L 44.574759 125.712 
L 43.527943 120.168 
L 42.507176 114.624 
L 41.952 111.437536 
z
M 47.904 110.039609 
L 48.901676 114.624 
L 50.070441 120.168 
L 51.216277 125.712 
L 52.383396 131.256 
L 53.604696 136.8 
L 53.856 137.740733 
L 56.126271 142.344 
L 58.669143 147.888 
L 59.808 150.158267 
L 62.412046 153.432 
L 65.76 157.585261 
L 67.366755 158.976 
L 71.712 162.229192 
L 75.47425 164.52 
L 77.664 165.534765 
L 83.616 167.482043 
L 89.568 169.003862 
L 95.52 169.804676 
L 101.472 166.865549 
L 102.22661 164.52 
L 101.472 163.850243 
L 97.393555 158.976 
L 95.52 157.307649 
L 91.964697 153.432 
L 89.568 150.993935 
L 86.899572 147.888 
L 83.616 143.885583 
L 82.43776 142.344 
L 78.526705 136.8 
L 77.664 135.4556 
L 74.964847 131.256 
L 72.05512 125.712 
L 71.712 125.003367 
L 69.173243 120.168 
L 66.854664 114.624 
L 65.76 111.608945 
L 64.621254 109.08 
L 62.538834 103.536 
L 60.875553 97.992 
L 59.808 93.840342 
L 59.242475 92.448 
L 57.369273 86.904 
L 55.937349 81.36 
L 54.776929 75.816 
L 53.856 70.622992 
L 53.637546 70.272 
L 51.160253 64.728 
L 49.689101 59.184 
L 48.65786 53.64 
L 47.904 48.422041 
L 47.384067 53.64 
L 47.005762 59.184 
L 46.764865 64.728 
L 46.633935 70.272 
L 46.594563 75.816 
L 46.634324 81.36 
L 46.744949 86.904 
L 46.921202 92.448 
L 47.160176 97.992 
L 47.460867 103.536 
L 47.823917 109.08 
z
" clip-path="url(#p9f3ba0a7e5)" style="fill: #c0df25"/>
   </g>
   <g id="PathCollection_31">
    <path d="M 47.823917 109.08 
L 47.460867 103.536 
L 47.160176 97.992 
L 46.921202 92.448 
L 46.744949 86.904 
L 46.634324 81.36 
L 46.594563 75.816 
L 46.633935 70.272 
L 46.764865 64.728 
L 47.005762 59.184 
L 47.384067 53.64 
L 47.904 48.422041 
L 48.65786 53.64 
L 49.689101 59.184 
L 51.160253 64.728 
L 53.637546 70.272 
L 53.856 70.622992 
L 54.776929 75.816 
L 55.937349 81.36 
L 57.369273 86.904 
L 59.242475 92.448 
L 59.808 93.840342 
L 60.875553 97.992 
L 62.538834 103.536 
L 64.621254 109.08 
L 65.76 111.608945 
L 66.854664 114.624 
L 69.173243 120.168 
L 71.712 125.003367 
L 72.05512 125.712 
L 74.964847 131.256 
L 77.664 135.4556 
L 78.526705 136.8 
L 82.43776 142.344 
L 83.616 143.885583 
L 86.899572 147.888 
L 89.568 150.993935 
L 91.964697 153.432 
L 95.52 157.307649 
L 97.393555 158.976 
L 101.472 163.850243 
L 102.22661 164.52 
L 101.472 166.865549 
L 95.52 169.804676 
L 89.568 169.003862 
L 83.616 167.482043 
L 77.664 165.534765 
L 75.47425 164.52 
L 71.712 162.229192 
L 67.366755 158.976 
L 65.76 157.585261 
L 62.412046 153.432 
L 59.808 150.158267 
L 58.669143 147.888 
L 56.126271 142.344 
L 53.856 137.740733 
L 53.604696 136.8 
L 52.383396 131.256 
L 51.216277 125.712 
L 50.070441 120.168 
L 48.901676 114.624 
L 47.904 110.039609 
z
" clip-path="url(#p9f3ba0a7e5)" style="fill: #eae51a"/>
   </g>
   <g id="PathCollection_32">
    <defs>
     <path id="mf15c0d9a5f" d="M -4.330127 4.330127 
L 4.330127 -4.330127 
M -4.330127 -4.330127 
L 4.330127 4.330127 
" style="stroke: #000000; stroke-width: 2"/>
    </defs>
    <g clip-path="url(#p9f3ba0a7e5)">
     <use xlink:href="#mf15c0d9a5f" x="65.76" y="146.04" style="stroke: #000000; stroke-width: 2"/>
    </g>
   </g>
   <g id="matplotlib.axis_1">
    <g id="xtick_1">
     <g id="line2d_1">
      <defs>
       <path id="me3780ed4b5" d="M 0 0 
L 0 3.5 
" style="stroke: #000000; stroke-width: 0.8"/>
      </defs>
      <g>
       <use xlink:href="#me3780ed4b5" x="75.68" y="192.24" style="stroke: #000000; stroke-width: 0.8"/>
      </g>
     </g>
     <g id="text_1">
      <!-- $\mathdefault{250}$ -->
      <g transform="translate(64.22 208.358125) scale(0.12 -0.12)">
       <defs>
        <path id="DejaVuSans-32" d="M 1228 531 
L 3431 531 
L 3431 0 
L 469 0 
L 469 531 
Q 828 903 1448 1529 
Q 2069 2156 2228 2338 
Q 2531 2678 2651 2914 
Q 2772 3150 2772 3378 
Q 2772 3750 2511 3984 
Q 2250 4219 1831 4219 
Q 1534 4219 1204 4116 
Q 875 4013 500 3803 
L 500 4441 
Q 881 4594 1212 4672 
Q 1544 4750 1819 4750 
Q 2544 4750 2975 4387 
Q 3406 4025 3406 3419 
Q 3406 3131 3298 2873 
Q 3191 2616 2906 2266 
Q 2828 2175 2409 1742 
Q 1991 1309 1228 531 
z
" transform="scale(0.015625)"/>
        <path id="DejaVuSans-35" d="M 691 4666 
L 3169 4666 
L 3169 4134 
L 1269 4134 
L 1269 2991 
Q 1406 3038 1543 3061 
Q 1681 3084 1819 3084 
Q 2600 3084 3056 2656 
Q 3513 2228 3513 1497 
Q 3513 744 3044 326 
Q 2575 -91 1722 -91 
Q 1428 -91 1123 -41 
Q 819 9 494 109 
L 494 744 
Q 775 591 1075 516 
Q 1375 441 1709 441 
Q 2250 441 2565 725 
Q 2881 1009 2881 1497 
Q 2881 1984 2565 2268 
Q 2250 2553 1709 2553 
Q 1456 2553 1204 2497 
Q 953 2441 691 2322 
L 691 4666 
z
" transform="scale(0.015625)"/>
        <path id="DejaVuSans-30" d="M 2034 4250 
Q 1547 4250 1301 3770 
Q 1056 3291 1056 2328 
Q 1056 1369 1301 889 
Q 1547 409 2034 409 
Q 2525 409 2770 889 
Q 3016 1369 3016 2328 
Q 3016 3291 2770 3770 
Q 2525 4250 2034 4250 
z
M 2034 4750 
Q 2819 4750 3233 4129 
Q 3647 3509 3647 2328 
Q 3647 1150 3233 529 
Q 2819 -91 2034 -91 
Q 1250 -91 836 529 
Q 422 1150 422 2328 
Q 422 3509 836 4129 
Q 1250 4750 2034 4750 
z
" transform="scale(0.015625)"/>
       </defs>
       <use xlink:href="#DejaVuSans-32" transform="translate(0 0.78125)"/>
       <use xlink:href="#DejaVuSans-35" transform="translate(63.623047 0.78125)"/>
       <use xlink:href="#DejaVuSans-30" transform="translate(127.246094 0.78125)"/>
      </g>
     </g>
    </g>
    <g id="xtick_2">
     <g id="line2d_2">
      <g>
       <use xlink:href="#me3780ed4b5" x="125.28" y="192.24" style="stroke: #000000; stroke-width: 0.8"/>
      </g>
     </g>
     <g id="text_2">
      <!-- $\mathdefault{500}$ -->
      <g transform="translate(113.82 208.358125) scale(0.12 -0.12)">
       <use xlink:href="#DejaVuSans-35" transform="translate(0 0.78125)"/>
       <use xlink:href="#DejaVuSans-30" transform="translate(63.623047 0.78125)"/>
       <use xlink:href="#DejaVuSans-30" transform="translate(127.246094 0.78125)"/>
      </g>
     </g>
    </g>
    <g id="xtick_3">
     <g id="line2d_3">
      <g>
       <use xlink:href="#me3780ed4b5" x="174.88" y="192.24" style="stroke: #000000; stroke-width: 0.8"/>
      </g>
     </g>
     <g id="text_3">
      <!-- $\mathdefault{750}$ -->
      <g transform="translate(163.42 208.358125) scale(0.12 -0.12)">
       <defs>
        <path id="DejaVuSans-37" d="M 525 4666 
L 3525 4666 
L 3525 4397 
L 1831 0 
L 1172 0 
L 2766 4134 
L 525 4134 
L 525 4666 
z
" transform="scale(0.015625)"/>
       </defs>
       <use xlink:href="#DejaVuSans-37" transform="translate(0 0.78125)"/>
       <use xlink:href="#DejaVuSans-35" transform="translate(63.623047 0.78125)"/>
       <use xlink:href="#DejaVuSans-30" transform="translate(127.246094 0.78125)"/>
      </g>
     </g>
    </g>
    <g id="text_4">
     <!-- Diploid N$_e$0 -->
     <g transform="translate(80 227.01375) scale(0.16 -0.16)">
      <defs>
       <path id="DejaVuSans-44" d="M 1259 4147 
L 1259 519 
L 2022 519 
Q 2988 519 3436 956 
Q 3884 1394 3884 2338 
Q 3884 3275 3436 3711 
Q 2988 4147 2022 4147 
L 1259 4147 
z
M 628 4666 
L 1925 4666 
Q 3281 4666 3915 4102 
Q 4550 3538 4550 2338 
Q 4550 1131 3912 565 
Q 3275 0 1925 0 
L 628 0 
L 628 4666 
z
" transform="scale(0.015625)"/>
       <path id="DejaVuSans-69" d="M 603 3500 
L 1178 3500 
L 1178 0 
L 603 0 
L 603 3500 
z
M 603 4863 
L 1178 4863 
L 1178 4134 
L 603 4134 
L 603 4863 
z
" transform="scale(0.015625)"/>
       <path id="DejaVuSans-70" d="M 1159 525 
L 1159 -1331 
L 581 -1331 
L 581 3500 
L 1159 3500 
L 1159 2969 
Q 1341 3281 1617 3432 
Q 1894 3584 2278 3584 
Q 2916 3584 3314 3078 
Q 3713 2572 3713 1747 
Q 3713 922 3314 415 
Q 2916 -91 2278 -91 
Q 1894 -91 1617 61 
Q 1341 213 1159 525 
z
M 3116 1747 
Q 3116 2381 2855 2742 
Q 2594 3103 2138 3103 
Q 1681 3103 1420 2742 
Q 1159 2381 1159 1747 
Q 1159 1113 1420 752 
Q 1681 391 2138 391 
Q 2594 391 2855 752 
Q 3116 1113 3116 1747 
z
" transform="scale(0.015625)"/>
       <path id="DejaVuSans-6c" d="M 603 4863 
L 1178 4863 
L 1178 0 
L 603 0 
L 603 4863 
z
" transform="scale(0.015625)"/>
       <path id="DejaVuSans-6f" d="M 1959 3097 
Q 1497 3097 1228 2736 
Q 959 2375 959 1747 
Q 959 1119 1226 758 
Q 1494 397 1959 397 
Q 2419 397 2687 759 
Q 2956 1122 2956 1747 
Q 2956 2369 2687 2733 
Q 2419 3097 1959 3097 
z
M 1959 3584 
Q 2709 3584 3137 3096 
Q 3566 2609 3566 1747 
Q 3566 888 3137 398 
Q 2709 -91 1959 -91 
Q 1206 -91 779 398 
Q 353 888 353 1747 
Q 353 2609 779 3096 
Q 1206 3584 1959 3584 
z
" transform="scale(0.015625)"/>
       <path id="DejaVuSans-64" d="M 2906 2969 
L 2906 4863 
L 3481 4863 
L 3481 0 
L 2906 0 
L 2906 525 
Q 2725 213 2448 61 
Q 2172 -91 1784 -91 
Q 1150 -91 751 415 
Q 353 922 353 1747 
Q 353 2572 751 3078 
Q 1150 3584 1784 3584 
Q 2172 3584 2448 3432 
Q 2725 3281 2906 2969 
z
M 947 1747 
Q 947 1113 1208 752 
Q 1469 391 1925 391 
Q 2381 391 2643 752 
Q 2906 1113 2906 1747 
Q 2906 2381 2643 2742 
Q 2381 3103 1925 3103 
Q 1469 3103 1208 2742 
Q 947 2381 947 1747 
z
" transform="scale(0.015625)"/>
       <path id="DejaVuSans-20" transform="scale(0.015625)"/>
       <path id="DejaVuSans-4e" d="M 628 4666 
L 1478 4666 
L 3547 763 
L 3547 4666 
L 4159 4666 
L 4159 0 
L 3309 0 
L 1241 3903 
L 1241 0 
L 628 0 
L 628 4666 
z
" transform="scale(0.015625)"/>
       <path id="DejaVuSans-Oblique-65" d="M 3078 2063 
Q 3088 2113 3092 2166 
Q 3097 2219 3097 2272 
Q 3097 2653 2873 2875 
Q 2650 3097 2266 3097 
Q 1838 3097 1509 2826 
Q 1181 2556 1013 2059 
L 3078 2063 
z
M 3578 1613 
L 903 1613 
Q 884 1494 878 1425 
Q 872 1356 872 1306 
Q 872 872 1139 634 
Q 1406 397 1894 397 
Q 2269 397 2603 481 
Q 2938 566 3225 728 
L 3116 159 
Q 2806 34 2476 -28 
Q 2147 -91 1806 -91 
Q 1078 -91 686 257 
Q 294 606 294 1247 
Q 294 1794 489 2264 
Q 684 2734 1063 3103 
Q 1306 3334 1642 3459 
Q 1978 3584 2356 3584 
Q 2950 3584 3301 3228 
Q 3653 2872 3653 2272 
Q 3653 2128 3634 1964 
Q 3616 1800 3578 1613 
z
" transform="scale(0.015625)"/>
      </defs>
      <use xlink:href="#DejaVuSans-44" transform="translate(0 0.015625)"/>
      <use xlink:href="#DejaVuSans-69" transform="translate(77.001953 0.015625)"/>
      <use xlink:href="#DejaVuSans-70" transform="translate(104.785156 0.015625)"/>
      <use xlink:href="#DejaVuSans-6c" transform="translate(168.261719 0.015625)"/>
      <use xlink:href="#DejaVuSans-6f" transform="translate(196.044922 0.015625)"/>
      <use xlink:href="#DejaVuSans-69" transform="translate(257.226562 0.015625)"/>
      <use xlink:href="#DejaVuSans-64" transform="translate(285.009766 0.015625)"/>
      <use xlink:href="#DejaVuSans-20" transform="translate(348.486328 0.015625)"/>
      <use xlink:href="#DejaVuSans-4e" transform="translate(380.273438 0.015625)"/>
      <use xlink:href="#DejaVuSans-Oblique-65" transform="translate(456.035156 -16.390625) scale(0.7)"/>
      <use xlink:href="#DejaVuSans-30" transform="translate(501.835938 0.015625)"/>
     </g>
    </g>
    <g id="text_5">
     <!-- $\times\mathdefault{10^{3}}\mathdefault{}$ -->
     <g transform="translate(188.56 221.452188) scale(0.1 -0.1)">
      <defs>
       <path id="DejaVuSans-d7" d="M 4488 3438 
L 3059 2003 
L 4488 575 
L 4116 197 
L 2681 1631 
L 1247 197 
L 878 575 
L 2303 2003 
L 878 3438 
L 1247 3816 
L 2681 2381 
L 4116 3816 
L 4488 3438 
z
" transform="scale(0.015625)"/>
       <path id="DejaVuSans-31" d="M 794 531 
L 1825 531 
L 1825 4091 
L 703 3866 
L 703 4441 
L 1819 4666 
L 2450 4666 
L 2450 531 
L 3481 531 
L 3481 0 
L 794 0 
L 794 531 
z
" transform="scale(0.015625)"/>
       <path id="DejaVuSans-33" d="M 2597 2516 
Q 3050 2419 3304 2112 
Q 3559 1806 3559 1356 
Q 3559 666 3084 287 
Q 2609 -91 1734 -91 
Q 1441 -91 1130 -33 
Q 819 25 488 141 
L 488 750 
Q 750 597 1062 519 
Q 1375 441 1716 441 
Q 2309 441 2620 675 
Q 2931 909 2931 1356 
Q 2931 1769 2642 2001 
Q 2353 2234 1838 2234 
L 1294 2234 
L 1294 2753 
L 1863 2753 
Q 2328 2753 2575 2939 
Q 2822 3125 2822 3475 
Q 2822 3834 2567 4026 
Q 2313 4219 1838 4219 
Q 1578 4219 1281 4162 
Q 984 4106 628 3988 
L 628 4550 
Q 988 4650 1302 4700 
Q 1616 4750 1894 4750 
Q 2613 4750 3031 4423 
Q 3450 4097 3450 3541 
Q 3450 3153 3228 2886 
Q 3006 2619 2597 2516 
z
" transform="scale(0.015625)"/>
      </defs>
      <use xlink:href="#DejaVuSans-d7" transform="translate(0 0.765625)"/>
      <use xlink:href="#DejaVuSans-31" transform="translate(83.789062 0.765625)"/>
      <use xlink:href="#DejaVuSans-30" transform="translate(147.412109 0.765625)"/>
      <use xlink:href="#DejaVuSans-33" transform="translate(211.992188 39.046875) scale(0.7)"/>
     </g>
    </g>
   </g>
   <g id="matplotlib.axis_2">
    <g id="ytick_1">
     <g id="line2d_4">
      <defs>
       <path id="m7c002a80c8" d="M 0 0 
L -3.5 0 
" style="stroke: #000000; stroke-width: 0.8"/>
      </defs>
      <g>
       <use xlink:href="#m7c002a80c8" x="36" y="155.28" style="stroke: #000000; stroke-width: 0.8"/>
      </g>
     </g>
     <g id="text_6">
      <!-- $\mathdefault{250}$ -->
      <g transform="translate(6.08 159.839063) scale(0.12 -0.12)">
       <use xlink:href="#DejaVuSans-32" transform="translate(0 0.78125)"/>
       <use xlink:href="#DejaVuSans-35" transform="translate(63.623047 0.78125)"/>
       <use xlink:href="#DejaVuSans-30" transform="translate(127.246094 0.78125)"/>
      </g>
     </g>
    </g>
    <g id="ytick_2">
     <g id="line2d_5">
      <g>
       <use xlink:href="#m7c002a80c8" x="36" y="109.08" style="stroke: #000000; stroke-width: 0.8"/>
      </g>
     </g>
     <g id="text_7">
      <!-- $\mathdefault{500}$ -->
      <g transform="translate(6.08 113.639062) scale(0.12 -0.12)">
       <use xlink:href="#DejaVuSans-35" transform="translate(0 0.78125)"/>
       <use xlink:href="#DejaVuSans-30" transform="translate(63.623047 0.78125)"/>
       <use xlink:href="#DejaVuSans-30" transform="translate(127.246094 0.78125)"/>
      </g>
     </g>
    </g>
    <g id="ytick_3">
     <g id="line2d_6">
      <g>
       <use xlink:href="#m7c002a80c8" x="36" y="62.88" style="stroke: #000000; stroke-width: 0.8"/>
      </g>
     </g>
     <g id="text_8">
      <!-- $\mathdefault{750}$ -->
      <g transform="translate(6.08 67.439062) scale(0.12 -0.12)">
       <use xlink:href="#DejaVuSans-37" transform="translate(0 0.78125)"/>
       <use xlink:href="#DejaVuSans-35" transform="translate(63.623047 0.78125)"/>
       <use xlink:href="#DejaVuSans-30" transform="translate(127.246094 0.78125)"/>
      </g>
     </g>
    </g>
    <g id="text_9">
     <!-- Diploid N$_e$1 -->
     <g transform="translate(-1.28 154.36) rotate(-90) scale(0.16 -0.16)">
      <use xlink:href="#DejaVuSans-44" transform="translate(0 0.015625)"/>
      <use xlink:href="#DejaVuSans-69" transform="translate(77.001953 0.015625)"/>
      <use xlink:href="#DejaVuSans-70" transform="translate(104.785156 0.015625)"/>
      <use xlink:href="#DejaVuSans-6c" transform="translate(168.261719 0.015625)"/>
      <use xlink:href="#DejaVuSans-6f" transform="translate(196.044922 0.015625)"/>
      <use xlink:href="#DejaVuSans-69" transform="translate(257.226562 0.015625)"/>
      <use xlink:href="#DejaVuSans-64" transform="translate(285.009766 0.015625)"/>
      <use xlink:href="#DejaVuSans-20" transform="translate(348.486328 0.015625)"/>
      <use xlink:href="#DejaVuSans-4e" transform="translate(380.273438 0.015625)"/>
      <use xlink:href="#DejaVuSans-Oblique-65" transform="translate(456.035156 -16.390625) scale(0.7)"/>
      <use xlink:href="#DejaVuSans-31" transform="translate(501.835938 0.015625)"/>
     </g>
    </g>
    <g id="text_10">
     <!-- $\times\mathdefault{10^{3}}\mathdefault{}$ -->
     <g transform="translate(36 22.92) scale(0.1 -0.1)">
      <use xlink:href="#DejaVuSans-d7" transform="translate(0 0.765625)"/>
      <use xlink:href="#DejaVuSans-31" transform="translate(83.789062 0.765625)"/>
      <use xlink:href="#DejaVuSans-30" transform="translate(147.412109 0.765625)"/>
      <use xlink:href="#DejaVuSans-33" transform="translate(211.992188 39.046875) scale(0.7)"/>
     </g>
    </g>
   </g>
   <g id="patch_3">
    <path d="M 36 192.24 
L 36 25.92 
" style="fill: none; stroke: #000000; stroke-width: 0.8; stroke-linejoin: miter; stroke-linecap: square"/>
   </g>
   <g id="patch_4">
    <path d="M 214.56 192.24 
L 214.56 25.92 
" style="fill: none; stroke: #000000; stroke-width: 0.8; stroke-linejoin: miter; stroke-linecap: square"/>
   </g>
   <g id="patch_5">
    <path d="M 36 192.24 
L 214.56 192.24 
" style="fill: none; stroke: #000000; stroke-width: 0.8; stroke-linejoin: miter; stroke-linecap: square"/>
   </g>
   <g id="patch_6">
    <path d="M 36 25.92 
L 214.56 25.92 
" style="fill: none; stroke: #000000; stroke-width: 0.8; stroke-linejoin: miter; stroke-linecap: square"/>
   </g>
   <g id="text_11">
    <!-- Ne0Ne1-SMC-G-P2-S4 -->
    <g transform="translate(37.60125 10.92) scale(0.16 -0.16)">
     <defs>
      <path id="DejaVuSans-65" d="M 3597 1894 
L 3597 1613 
L 953 1613 
Q 991 1019 1311 708 
Q 1631 397 2203 397 
Q 2534 397 2845 478 
Q 3156 559 3463 722 
L 3463 178 
Q 3153 47 2828 -22 
Q 2503 -91 2169 -91 
Q 1331 -91 842 396 
Q 353 884 353 1716 
Q 353 2575 817 3079 
Q 1281 3584 2069 3584 
Q 2775 3584 3186 3129 
Q 3597 2675 3597 1894 
z
M 3022 2063 
Q 3016 2534 2758 2815 
Q 2500 3097 2075 3097 
Q 1594 3097 1305 2825 
Q 1016 2553 972 2059 
L 3022 2063 
z
" transform="scale(0.015625)"/>
      <path id="DejaVuSans-2d" d="M 313 2009 
L 1997 2009 
L 1997 1497 
L 313 1497 
L 313 2009 
z
" transform="scale(0.015625)"/>
      <path id="DejaVuSans-53" d="M 3425 4513 
L 3425 3897 
Q 3066 4069 2747 4153 
Q 2428 4238 2131 4238 
Q 1616 4238 1336 4038 
Q 1056 3838 1056 3469 
Q 1056 3159 1242 3001 
Q 1428 2844 1947 2747 
L 2328 2669 
Q 3034 2534 3370 2195 
Q 3706 1856 3706 1288 
Q 3706 609 3251 259 
Q 2797 -91 1919 -91 
Q 1588 -91 1214 -16 
Q 841 59 441 206 
L 441 856 
Q 825 641 1194 531 
Q 1563 422 1919 422 
Q 2459 422 2753 634 
Q 3047 847 3047 1241 
Q 3047 1584 2836 1778 
Q 2625 1972 2144 2069 
L 1759 2144 
Q 1053 2284 737 2584 
Q 422 2884 422 3419 
Q 422 4038 858 4394 
Q 1294 4750 2059 4750 
Q 2388 4750 2728 4690 
Q 3069 4631 3425 4513 
z
" transform="scale(0.015625)"/>
      <path id="DejaVuSans-4d" d="M 628 4666 
L 1569 4666 
L 2759 1491 
L 3956 4666 
L 4897 4666 
L 4897 0 
L 4281 0 
L 4281 4097 
L 3078 897 
L 2444 897 
L 1241 4097 
L 1241 0 
L 628 0 
L 628 4666 
z
" transform="scale(0.015625)"/>
      <path id="DejaVuSans-43" d="M 4122 4306 
L 4122 3641 
Q 3803 3938 3442 4084 
Q 3081 4231 2675 4231 
Q 1875 4231 1450 3742 
Q 1025 3253 1025 2328 
Q 1025 1406 1450 917 
Q 1875 428 2675 428 
Q 3081 428 3442 575 
Q 3803 722 4122 1019 
L 4122 359 
Q 3791 134 3420 21 
Q 3050 -91 2638 -91 
Q 1578 -91 968 557 
Q 359 1206 359 2328 
Q 359 3453 968 4101 
Q 1578 4750 2638 4750 
Q 3056 4750 3426 4639 
Q 3797 4528 4122 4306 
z
" transform="scale(0.015625)"/>
      <path id="DejaVuSans-47" d="M 3809 666 
L 3809 1919 
L 2778 1919 
L 2778 2438 
L 4434 2438 
L 4434 434 
Q 4069 175 3628 42 
Q 3188 -91 2688 -91 
Q 1594 -91 976 548 
Q 359 1188 359 2328 
Q 359 3472 976 4111 
Q 1594 4750 2688 4750 
Q 3144 4750 3555 4637 
Q 3966 4525 4313 4306 
L 4313 3634 
Q 3963 3931 3569 4081 
Q 3175 4231 2741 4231 
Q 1884 4231 1454 3753 
Q 1025 3275 1025 2328 
Q 1025 1384 1454 906 
Q 1884 428 2741 428 
Q 3075 428 3337 486 
Q 3600 544 3809 666 
z
" transform="scale(0.015625)"/>
      <path id="DejaVuSans-50" d="M 1259 4147 
L 1259 2394 
L 2053 2394 
Q 2494 2394 2734 2622 
Q 2975 2850 2975 3272 
Q 2975 3691 2734 3919 
Q 2494 4147 2053 4147 
L 1259 4147 
z
M 628 4666 
L 2053 4666 
Q 2838 4666 3239 4311 
Q 3641 3956 3641 3272 
Q 3641 2581 3239 2228 
Q 2838 1875 2053 1875 
L 1259 1875 
L 1259 0 
L 628 0 
L 628 4666 
z
" transform="scale(0.015625)"/>
      <path id="DejaVuSans-34" d="M 2419 4116 
L 825 1625 
L 2419 1625 
L 2419 4116 
z
M 2253 4666 
L 3047 4666 
L 3047 1625 
L 3713 1625 
L 3713 1100 
L 3047 1100 
L 3047 0 
L 2419 0 
L 2419 1100 
L 313 1100 
L 313 1709 
L 2253 4666 
z
" transform="scale(0.015625)"/>
     </defs>
     <use xlink:href="#DejaVuSans-4e"/>
     <use xlink:href="#DejaVuSans-65" x="74.804688"/>
     <use xlink:href="#DejaVuSans-30" x="136.328125"/>
     <use xlink:href="#DejaVuSans-4e" x="199.951172"/>
     <use xlink:href="#DejaVuSans-65" x="274.755859"/>
     <use xlink:href="#DejaVuSans-31" x="336.279297"/>
     <use xlink:href="#DejaVuSans-2d" x="399.902344"/>
     <use xlink:href="#DejaVuSans-53" x="435.986328"/>
     <use xlink:href="#DejaVuSans-4d" x="499.462891"/>
     <use xlink:href="#DejaVuSans-43" x="585.742188"/>
     <use xlink:href="#DejaVuSans-2d" x="655.566406"/>
     <use xlink:href="#DejaVuSans-47" x="695.275391"/>
     <use xlink:href="#DejaVuSans-2d" x="772.765625"/>
     <use xlink:href="#DejaVuSans-50" x="808.849609"/>
     <use xlink:href="#DejaVuSans-32" x="869.152344"/>
     <use xlink:href="#DejaVuSans-2d" x="932.775391"/>
     <use xlink:href="#DejaVuSans-53" x="968.859375"/>
     <use xlink:href="#DejaVuSans-34" x="1032.335938"/>
    </g>
   </g>
  </g>
  <g id="axes_2">
   <g id="patch_7">
    <path d="M 225.72 192.24 
L 234.036 192.24 
L 234.036 25.92 
L 225.72 25.92 
z
" style="fill: #ffffff"/>
   </g>
   <g id="QuadMesh_1">
    <path d="M 225.72 192.24 
L 234.036 192.24 
L 234.036 186.874839 
L 225.72 186.874839 
L 225.72 192.24 
" clip-path="url(#p5716cb15b0)" style="fill: #440154"/>
    <path d="M 225.72 186.874839 
L 234.036 186.874839 
L 234.036 181.509677 
L 225.72 181.509677 
L 225.72 186.874839 
" clip-path="url(#p5716cb15b0)" style="fill: #440154"/>
    <path d="M 225.72 181.509677 
L 234.036 181.509677 
L 234.036 176.144516 
L 225.72 176.144516 
L 225.72 181.509677 
" clip-path="url(#p5716cb15b0)" style="fill: #440154"/>
    <path d="M 225.72 176.144516 
L 234.036 176.144516 
L 234.036 170.779355 
L 225.72 170.779355 
L 225.72 176.144516 
" clip-path="url(#p5716cb15b0)" style="fill: #440154"/>
    <path d="M 225.72 170.779355 
L 234.036 170.779355 
L 234.036 165.414194 
L 225.72 165.414194 
L 225.72 170.779355 
" clip-path="url(#p5716cb15b0)" style="fill: #440154"/>
    <path d="M 225.72 165.414194 
L 234.036 165.414194 
L 234.036 160.049032 
L 225.72 160.049032 
L 225.72 165.414194 
" clip-path="url(#p5716cb15b0)" style="fill: #440154"/>
    <path d="M 225.72 160.049032 
L 234.036 160.049032 
L 234.036 154.683871 
L 225.72 154.683871 
L 225.72 160.049032 
" clip-path="url(#p5716cb15b0)" style="fill: #440154"/>
    <path d="M 225.72 154.683871 
L 234.036 154.683871 
L 234.036 149.31871 
L 225.72 149.31871 
L 225.72 154.683871 
" clip-path="url(#p5716cb15b0)" style="fill: #440154"/>
    <path d="M 225.72 149.31871 
L 234.036 149.31871 
L 234.036 143.953548 
L 225.72 143.953548 
L 225.72 149.31871 
" clip-path="url(#p5716cb15b0)" style="fill: #440154"/>
    <path d="M 225.72 143.953548 
L 234.036 143.953548 
L 234.036 138.588387 
L 225.72 138.588387 
L 225.72 143.953548 
" clip-path="url(#p5716cb15b0)" style="fill: #440154"/>
    <path d="M 225.72 138.588387 
L 234.036 138.588387 
L 234.036 133.223226 
L 225.72 133.223226 
L 225.72 138.588387 
" clip-path="url(#p5716cb15b0)" style="fill: #440154"/>
    <path d="M 225.72 133.223226 
L 234.036 133.223226 
L 234.036 127.858065 
L 225.72 127.858065 
L 225.72 133.223226 
" clip-path="url(#p5716cb15b0)" style="fill: #440154"/>
    <path d="M 225.72 127.858065 
L 234.036 127.858065 
L 234.036 122.492903 
L 225.72 122.492903 
L 225.72 127.858065 
" clip-path="url(#p5716cb15b0)" style="fill: #440154"/>
    <path d="M 225.72 122.492903 
L 234.036 122.492903 
L 234.036 117.127742 
L 225.72 117.127742 
L 225.72 122.492903 
" clip-path="url(#p5716cb15b0)" style="fill: #440154"/>
    <path d="M 225.72 117.127742 
L 234.036 117.127742 
L 234.036 111.762581 
L 225.72 111.762581 
L 225.72 117.127742 
" clip-path="url(#p5716cb15b0)" style="fill: #440154"/>
    <path d="M 225.72 111.762581 
L 234.036 111.762581 
L 234.036 106.397419 
L 225.72 106.397419 
L 225.72 111.762581 
" clip-path="url(#p5716cb15b0)" style="fill: #440154"/>
    <path d="M 225.72 106.397419 
L 234.036 106.397419 
L 234.036 101.032258 
L 225.72 101.032258 
L 225.72 106.397419 
" clip-path="url(#p5716cb15b0)" style="fill: #481769"/>
    <path d="M 225.72 101.032258 
L 234.036 101.032258 
L 234.036 95.667097 
L 225.72 95.667097 
L 225.72 101.032258 
" clip-path="url(#p5716cb15b0)" style="fill: #472c7a"/>
    <path d="M 225.72 95.667097 
L 234.036 95.667097 
L 234.036 90.301935 
L 225.72 90.301935 
L 225.72 95.667097 
" clip-path="url(#p5716cb15b0)" style="fill: #424086"/>
    <path d="M 225.72 90.301935 
L 234.036 90.301935 
L 234.036 84.936774 
L 225.72 84.936774 
L 225.72 90.301935 
" clip-path="url(#p5716cb15b0)" style="fill: #3a538b"/>
    <path d="M 225.72 84.936774 
L 234.036 84.936774 
L 234.036 79.571613 
L 225.72 79.571613 
L 225.72 84.936774 
" clip-path="url(#p5716cb15b0)" style="fill: #32648e"/>
    <path d="M 225.72 79.571613 
L 234.036 79.571613 
L 234.036 74.206452 
L 225.72 74.206452 
L 225.72 79.571613 
" clip-path="url(#p5716cb15b0)" style="fill: #2b748e"/>
    <path d="M 225.72 74.206452 
L 234.036 74.206452 
L 234.036 68.84129 
L 225.72 68.84129 
L 225.72 74.206452 
" clip-path="url(#p5716cb15b0)" style="fill: #25838e"/>
    <path d="M 225.72 68.84129 
L 234.036 68.84129 
L 234.036 63.476129 
L 225.72 63.476129 
L 225.72 68.84129 
" clip-path="url(#p5716cb15b0)" style="fill: #20938c"/>
    <path d="M 225.72 63.476129 
L 234.036 63.476129 
L 234.036 58.110968 
L 225.72 58.110968 
L 225.72 63.476129 
" clip-path="url(#p5716cb15b0)" style="fill: #20a386"/>
    <path d="M 225.72 58.110968 
L 234.036 58.110968 
L 234.036 52.745806 
L 225.72 52.745806 
L 225.72 58.110968 
" clip-path="url(#p5716cb15b0)" style="fill: #2db27d"/>
    <path d="M 225.72 52.745806 
L 234.036 52.745806 
L 234.036 47.380645 
L 225.72 47.380645 
L 225.72 52.745806 
" clip-path="url(#p5716cb15b0)" style="fill: #48c16e"/>
    <path d="M 225.72 47.380645 
L 234.036 47.380645 
L 234.036 42.015484 
L 225.72 42.015484 
L 225.72 47.380645 
" clip-path="url(#p5716cb15b0)" style="fill: #69cd5b"/>
    <path d="M 225.72 42.015484 
L 234.036 42.015484 
L 234.036 36.650323 
L 225.72 36.650323 
L 225.72 42.015484 
" clip-path="url(#p5716cb15b0)" style="fill: #93d741"/>
    <path d="M 225.72 36.650323 
L 234.036 36.650323 
L 234.036 31.285161 
L 225.72 31.285161 
L 225.72 36.650323 
" clip-path="url(#p5716cb15b0)" style="fill: #c0df25"/>
    <path d="M 225.72 31.285161 
L 234.036 31.285161 
L 234.036 25.92 
L 225.72 25.92 
L 225.72 31.285161 
" clip-path="url(#p5716cb15b0)" style="fill: #eae51a"/>
   </g>
   <g id="matplotlib.axis_3"/>
   <g id="matplotlib.axis_4">
    <g id="ytick_4">
     <g id="line2d_7">
      <defs>
       <path id="m1de36190ee" d="M 0 0 
L 3.5 0 
" style="stroke: #000000; stroke-width: 0.8"/>
      </defs>
      <g>
       <use xlink:href="#m1de36190ee" x="234.036" y="176.144516" style="stroke: #000000; stroke-width: 0.8"/>
      </g>
     </g>
     <g id="text_12">
      <!-- $\mathdefault{220.53}$ -->
      <g transform="translate(241.036 179.943735) scale(0.1 -0.1)">
       <defs>
        <path id="DejaVuSans-2212" d="M 678 2272 
L 4684 2272 
L 4684 1741 
L 678 1741 
L 678 2272 
z
" transform="scale(0.015625)"/>
        <path id="DejaVuSans-2e" d="M 684 794 
L 1344 794 
L 1344 0 
L 684 0 
L 684 794 
z
" transform="scale(0.015625)"/>
       </defs>
       <use xlink:href="#DejaVuSans-2212" transform="translate(0 0.78125)"/>
       <use xlink:href="#DejaVuSans-32" transform="translate(83.789062 0.78125)"/>
       <use xlink:href="#DejaVuSans-32" transform="translate(147.412109 0.78125)"/>
       <use xlink:href="#DejaVuSans-30" transform="translate(211.035156 0.78125)"/>
       <use xlink:href="#DejaVuSans-2e" transform="translate(274.658203 0.78125)"/>
       <use xlink:href="#DejaVuSans-35" transform="translate(306.445312 0.78125)"/>
       <use xlink:href="#DejaVuSans-33" transform="translate(370.068359 0.78125)"/>
      </g>
     </g>
    </g>
    <g id="ytick_5">
     <g id="line2d_8">
      <g>
       <use xlink:href="#m1de36190ee" x="234.036" y="154.683871" style="stroke: #000000; stroke-width: 0.8"/>
      </g>
     </g>
     <g id="text_13">
      <!-- $\mathdefault{220.51}$ -->
      <g transform="translate(241.036 158.48309) scale(0.1 -0.1)">
       <use xlink:href="#DejaVuSans-2212" transform="translate(0 0.78125)"/>
       <use xlink:href="#DejaVuSans-32" transform="translate(83.789062 0.78125)"/>
       <use xlink:href="#DejaVuSans-32" transform="translate(147.412109 0.78125)"/>
       <use xlink:href="#DejaVuSans-30" transform="translate(211.035156 0.78125)"/>
       <use xlink:href="#DejaVuSans-2e" transform="translate(274.658203 0.78125)"/>
       <use xlink:href="#DejaVuSans-35" transform="translate(306.445312 0.78125)"/>
       <use xlink:href="#DejaVuSans-31" transform="translate(370.068359 0.78125)"/>
      </g>
     </g>
    </g>
    <g id="ytick_6">
     <g id="line2d_9">
      <g>
       <use xlink:href="#m1de36190ee" x="234.036" y="133.223226" style="stroke: #000000; stroke-width: 0.8"/>
      </g>
     </g>
     <g id="text_14">
      <!-- $\mathdefault{220.49}$ -->
      <g transform="translate(241.036 137.022445) scale(0.1 -0.1)">
       <defs>
        <path id="DejaVuSans-39" d="M 703 97 
L 703 672 
Q 941 559 1184 500 
Q 1428 441 1663 441 
Q 2288 441 2617 861 
Q 2947 1281 2994 2138 
Q 2813 1869 2534 1725 
Q 2256 1581 1919 1581 
Q 1219 1581 811 2004 
Q 403 2428 403 3163 
Q 403 3881 828 4315 
Q 1253 4750 1959 4750 
Q 2769 4750 3195 4129 
Q 3622 3509 3622 2328 
Q 3622 1225 3098 567 
Q 2575 -91 1691 -91 
Q 1453 -91 1209 -44 
Q 966 3 703 97 
z
M 1959 2075 
Q 2384 2075 2632 2365 
Q 2881 2656 2881 3163 
Q 2881 3666 2632 3958 
Q 2384 4250 1959 4250 
Q 1534 4250 1286 3958 
Q 1038 3666 1038 3163 
Q 1038 2656 1286 2365 
Q 1534 2075 1959 2075 
z
" transform="scale(0.015625)"/>
       </defs>
       <use xlink:href="#DejaVuSans-2212" transform="translate(0 0.78125)"/>
       <use xlink:href="#DejaVuSans-32" transform="translate(83.789062 0.78125)"/>
       <use xlink:href="#DejaVuSans-32" transform="translate(147.412109 0.78125)"/>
       <use xlink:href="#DejaVuSans-30" transform="translate(211.035156 0.78125)"/>
       <use xlink:href="#DejaVuSans-2e" transform="translate(274.658203 0.78125)"/>
       <use xlink:href="#DejaVuSans-34" transform="translate(306.445312 0.78125)"/>
       <use xlink:href="#DejaVuSans-39" transform="translate(370.068359 0.78125)"/>
      </g>
     </g>
    </g>
    <g id="ytick_7">
     <g id="line2d_10">
      <g>
       <use xlink:href="#m1de36190ee" x="234.036" y="111.762581" style="stroke: #000000; stroke-width: 0.8"/>
      </g>
     </g>
     <g id="text_15">
      <!-- $\mathdefault{220.47}$ -->
      <g transform="translate(241.036 115.561799) scale(0.1 -0.1)">
       <use xlink:href="#DejaVuSans-2212" transform="translate(0 0.78125)"/>
       <use xlink:href="#DejaVuSans-32" transform="translate(83.789062 0.78125)"/>
       <use xlink:href="#DejaVuSans-32" transform="translate(147.412109 0.78125)"/>
       <use xlink:href="#DejaVuSans-30" transform="translate(211.035156 0.78125)"/>
       <use xlink:href="#DejaVuSans-2e" transform="translate(274.658203 0.78125)"/>
       <use xlink:href="#DejaVuSans-34" transform="translate(306.445312 0.78125)"/>
       <use xlink:href="#DejaVuSans-37" transform="translate(370.068359 0.78125)"/>
      </g>
     </g>
    </g>
    <g id="ytick_8">
     <g id="line2d_11">
      <g>
       <use xlink:href="#m1de36190ee" x="234.036" y="90.301935" style="stroke: #000000; stroke-width: 0.8"/>
      </g>
     </g>
     <g id="text_16">
      <!-- $\mathdefault{220.45}$ -->
      <g transform="translate(241.036 94.101154) scale(0.1 -0.1)">
       <use xlink:href="#DejaVuSans-2212" transform="translate(0 0.78125)"/>
       <use xlink:href="#DejaVuSans-32" transform="translate(83.789062 0.78125)"/>
       <use xlink:href="#DejaVuSans-32" transform="translate(147.412109 0.78125)"/>
       <use xlink:href="#DejaVuSans-30" transform="translate(211.035156 0.78125)"/>
       <use xlink:href="#DejaVuSans-2e" transform="translate(274.658203 0.78125)"/>
       <use xlink:href="#DejaVuSans-34" transform="translate(306.445312 0.78125)"/>
       <use xlink:href="#DejaVuSans-35" transform="translate(370.068359 0.78125)"/>
      </g>
     </g>
    </g>
    <g id="ytick_9">
     <g id="line2d_12">
      <g>
       <use xlink:href="#m1de36190ee" x="234.036" y="68.84129" style="stroke: #000000; stroke-width: 0.8"/>
      </g>
     </g>
     <g id="text_17">
      <!-- $\mathdefault{220.43}$ -->
      <g transform="translate(241.036 72.640509) scale(0.1 -0.1)">
       <use xlink:href="#DejaVuSans-2212" transform="translate(0 0.78125)"/>
       <use xlink:href="#DejaVuSans-32" transform="translate(83.789062 0.78125)"/>
       <use xlink:href="#DejaVuSans-32" transform="translate(147.412109 0.78125)"/>
       <use xlink:href="#DejaVuSans-30" transform="translate(211.035156 0.78125)"/>
       <use xlink:href="#DejaVuSans-2e" transform="translate(274.658203 0.78125)"/>
       <use xlink:href="#DejaVuSans-34" transform="translate(306.445312 0.78125)"/>
       <use xlink:href="#DejaVuSans-33" transform="translate(370.068359 0.78125)"/>
      </g>
     </g>
    </g>
    <g id="ytick_10">
     <g id="line2d_13">
      <g>
       <use xlink:href="#m1de36190ee" x="234.036" y="47.380645" style="stroke: #000000; stroke-width: 0.8"/>
      </g>
     </g>
     <g id="text_18">
      <!-- $\mathdefault{220.41}$ -->
      <g transform="translate(241.036 51.179864) scale(0.1 -0.1)">
       <use xlink:href="#DejaVuSans-2212" transform="translate(0 0.78125)"/>
       <use xlink:href="#DejaVuSans-32" transform="translate(83.789062 0.78125)"/>
       <use xlink:href="#DejaVuSans-32" transform="translate(147.412109 0.78125)"/>
       <use xlink:href="#DejaVuSans-30" transform="translate(211.035156 0.78125)"/>
       <use xlink:href="#DejaVuSans-2e" transform="translate(274.658203 0.78125)"/>
       <use xlink:href="#DejaVuSans-34" transform="translate(306.445312 0.78125)"/>
       <use xlink:href="#DejaVuSans-31" transform="translate(370.068359 0.78125)"/>
      </g>
     </g>
    </g>
    <g id="ytick_11">
     <g id="line2d_14">
      <g>
       <use xlink:href="#m1de36190ee" x="234.036" y="25.92" style="stroke: #000000; stroke-width: 0.8"/>
      </g>
     </g>
     <g id="text_19">
      <!-- $\mathdefault{220.39}$ -->
      <g transform="translate(241.036 29.719219) scale(0.1 -0.1)">
       <use xlink:href="#DejaVuSans-2212" transform="translate(0 0.78125)"/>
       <use xlink:href="#DejaVuSans-32" transform="translate(83.789062 0.78125)"/>
       <use xlink:href="#DejaVuSans-32" transform="translate(147.412109 0.78125)"/>
       <use xlink:href="#DejaVuSans-30" transform="translate(211.035156 0.78125)"/>
       <use xlink:href="#DejaVuSans-2e" transform="translate(274.658203 0.78125)"/>
       <use xlink:href="#DejaVuSans-33" transform="translate(306.445312 0.78125)"/>
       <use xlink:href="#DejaVuSans-39" transform="translate(370.068359 0.78125)"/>
      </g>
     </g>
    </g>
    <g id="text_20">
     <!-- log likelihood -->
     <g transform="translate(297.554125 148.704375) rotate(-90) scale(0.12 -0.12)">
      <defs>
       <path id="DejaVuSans-67" d="M 2906 1791 
Q 2906 2416 2648 2759 
Q 2391 3103 1925 3103 
Q 1463 3103 1205 2759 
Q 947 2416 947 1791 
Q 947 1169 1205 825 
Q 1463 481 1925 481 
Q 2391 481 2648 825 
Q 2906 1169 2906 1791 
z
M 3481 434 
Q 3481 -459 3084 -895 
Q 2688 -1331 1869 -1331 
Q 1566 -1331 1297 -1286 
Q 1028 -1241 775 -1147 
L 775 -588 
Q 1028 -725 1275 -790 
Q 1522 -856 1778 -856 
Q 2344 -856 2625 -561 
Q 2906 -266 2906 331 
L 2906 616 
Q 2728 306 2450 153 
Q 2172 0 1784 0 
Q 1141 0 747 490 
Q 353 981 353 1791 
Q 353 2603 747 3093 
Q 1141 3584 1784 3584 
Q 2172 3584 2450 3431 
Q 2728 3278 2906 2969 
L 2906 3500 
L 3481 3500 
L 3481 434 
z
" transform="scale(0.015625)"/>
       <path id="DejaVuSans-6b" d="M 581 4863 
L 1159 4863 
L 1159 1991 
L 2875 3500 
L 3609 3500 
L 1753 1863 
L 3688 0 
L 2938 0 
L 1159 1709 
L 1159 0 
L 581 0 
L 581 4863 
z
" transform="scale(0.015625)"/>
       <path id="DejaVuSans-68" d="M 3513 2113 
L 3513 0 
L 2938 0 
L 2938 2094 
Q 2938 2591 2744 2837 
Q 2550 3084 2163 3084 
Q 1697 3084 1428 2787 
Q 1159 2491 1159 1978 
L 1159 0 
L 581 0 
L 581 4863 
L 1159 4863 
L 1159 2956 
Q 1366 3272 1645 3428 
Q 1925 3584 2291 3584 
Q 2894 3584 3203 3211 
Q 3513 2838 3513 2113 
z
" transform="scale(0.015625)"/>
      </defs>
      <use xlink:href="#DejaVuSans-6c"/>
      <use xlink:href="#DejaVuSans-6f" x="27.783203"/>
      <use xlink:href="#DejaVuSans-67" x="88.964844"/>
      <use xlink:href="#DejaVuSans-20" x="152.441406"/>
      <use xlink:href="#DejaVuSans-6c" x="184.228516"/>
      <use xlink:href="#DejaVuSans-69" x="212.011719"/>
      <use xlink:href="#DejaVuSans-6b" x="239.794922"/>
      <use xlink:href="#DejaVuSans-65" x="294.080078"/>
      <use xlink:href="#DejaVuSans-6c" x="355.603516"/>
      <use xlink:href="#DejaVuSans-69" x="383.386719"/>
      <use xlink:href="#DejaVuSans-68" x="411.169922"/>
      <use xlink:href="#DejaVuSans-6f" x="474.548828"/>
      <use xlink:href="#DejaVuSans-6f" x="535.730469"/>
      <use xlink:href="#DejaVuSans-64" x="596.912109"/>
     </g>
    </g>
    <g id="text_21">
     <!-- $\times\mathdefault{10^{3}}\mathdefault{}$ -->
     <g transform="translate(208.036 22.92) scale(0.1 -0.1)">
      <use xlink:href="#DejaVuSans-d7" transform="translate(0 0.765625)"/>
      <use xlink:href="#DejaVuSans-31" transform="translate(83.789062 0.765625)"/>
      <use xlink:href="#DejaVuSans-30" transform="translate(147.412109 0.765625)"/>
      <use xlink:href="#DejaVuSans-33" transform="translate(211.992188 39.046875) scale(0.7)"/>
     </g>
    </g>
   </g>
   <g id="LineCollection_1"/>
   <g id="patch_8">
    <path d="M 225.72 192.24 
L 229.878 192.24 
L 234.036 192.24 
L 234.036 25.92 
L 229.878 25.92 
L 225.72 25.92 
L 225.72 192.24 
z
" style="fill: none; stroke: #000000; stroke-width: 0.8; stroke-linejoin: miter; stroke-linecap: square"/>
   </g>
  </g>
 </g>
 <defs>
  <clipPath id="p9f3ba0a7e5">
   <rect x="36" y="25.92" width="178.56" height="166.32"/>
  </clipPath>
  <clipPath id="p5716cb15b0">
   <rect x="225.72" y="25.92" width="8.316" height="166.32"/>
  </clipPath>
 </defs>
</svg>
