<?xml version="1.0" encoding="utf-8" standalone="no"?>
<!DOCTYPE svg PUBLIC "-//W3C//DTD SVG 1.1//EN"
  "http://www.w3.org/Graphics/SVG/1.1/DTD/svg11.dtd">
<svg xmlns:xlink="http://www.w3.org/1999/xlink" width="288pt" height="216pt" viewBox="0 0 288 216" xmlns="http://www.w3.org/2000/svg" version="1.1">
 <metadata>
  <rdf:RDF xmlns:dc="http://purl.org/dc/elements/1.1/" xmlns:cc="http://creativecommons.org/ns#" xmlns:rdf="http://www.w3.org/1999/02/22-rdf-syntax-ns#">
   <cc:Work>
    <dc:type rdf:resource="http://purl.org/dc/dcmitype/StillImage"/>
    <dc:date>2023-07-18T17:52:24.225753</dc:date>
    <dc:format>image/svg+xml</dc:format>
    <dc:creator>
     <cc:Agent>
      <dc:title>Matplotlib v3.7.1, https://matplotlib.org/</dc:title>
     </cc:Agent>
    </dc:creator>
   </cc:Work>
  </rdf:RDF>
 </metadata>
 <defs>
  <style type="text/css">*{stroke-linejoin: round; stroke-linecap: butt}</style>
 </defs>
 <g id="figure_1">
  <g id="patch_1">
   <path d="M 0 216 
L 288 216 
L 288 0 
L 0 0 
z
" style="fill: #ffffff"/>
  </g>
  <g id="axes_1">
   <g id="patch_2">
    <path d="M 36 192.24 
L 214.56 192.24 
L 214.56 25.92 
L 36 25.92 
z
" style="fill: #ffffff"/>
   </g>
   <g id="PathCollection_1">
    <path d="M 37.520333 192.24 
L 36 192.24 
L 36 191.697044 
z
" clip-path="url(#pb96e012a06)" style="fill: #440154"/>
   </g>
   <g id="PathCollection_2">
    <path d="M 39.281287 192.24 
L 37.520333 192.24 
L 36 191.697044 
L 36 191.068155 
z
" clip-path="url(#pb96e012a06)" style="fill: #440154"/>
   </g>
   <g id="PathCollection_3">
    <path d="M 41.04224 192.24 
L 39.281287 192.24 
L 36 191.068155 
L 36 190.439266 
z
" clip-path="url(#pb96e012a06)" style="fill: #440154"/>
   </g>
   <g id="PathCollection_4">
    <path d="M 41.952 191.936014 
L 44.258668 192.24 
L 41.952 192.24 
L 41.04224 192.24 
L 36 190.439266 
L 36 189.810377 
z
" clip-path="url(#pb96e012a06)" style="fill: #440154"/>
    <path d="M 202.656 192.218017 
L 208.608 192.174879 
L 214.56 192.132679 
L 214.56 192.24 
L 208.608 192.24 
L 202.656 192.24 
L 199.689493 192.24 
z
" clip-path="url(#pb96e012a06)" style="fill: #440154"/>
   </g>
   <g id="PathCollection_5">
    <path d="M 41.952 191.307125 
L 47.904 192.091514 
L 50.461575 192.24 
L 47.904 192.24 
L 44.258668 192.24 
L 41.952 191.936014 
L 36 189.810377 
L 36 189.181488 
z
" clip-path="url(#pb96e012a06)" style="fill: #440154"/>
    <path d="M 131.232 192.188964 
L 137.184 192.133094 
L 143.136 192.078179 
L 149.088 192.024308 
L 155.04 191.971535 
L 160.992 191.919885 
L 166.944 191.869366 
L 172.896 191.819971 
L 178.848 191.771684 
L 184.8 191.724483 
L 190.752 191.678343 
L 196.704 191.633235 
L 202.656 191.589128 
L 208.608 191.54599 
L 214.56 191.503791 
L 214.56 192.132679 
L 208.608 192.174879 
L 202.656 192.218017 
L 199.689493 192.24 
L 196.704 192.24 
L 190.752 192.24 
L 184.8 192.24 
L 178.848 192.24 
L 172.896 192.24 
L 166.944 192.24 
L 160.992 192.24 
L 155.04 192.24 
L 149.088 192.24 
L 143.136 192.24 
L 137.184 192.24 
L 131.232 192.24 
L 125.872663 192.24 
z
" clip-path="url(#pb96e012a06)" style="fill: #440154"/>
   </g>
   <g id="PathCollection_6">
    <path d="M 41.952 190.678236 
L 47.904 191.462625 
L 53.856 191.808182 
L 59.808 191.965673 
L 65.76 192.029761 
L 71.712 192.043065 
L 77.664 192.027119 
L 83.616 191.993721 
L 89.568 191.949734 
L 95.52 191.899328 
L 101.472 191.845128 
L 107.424 191.788831 
L 113.376 191.731548 
L 119.328 191.674024 
L 125.28 191.616755 
L 131.232 191.560075 
L 137.184 191.504205 
L 143.136 191.44929 
L 149.088 191.395419 
L 155.04 191.342646 
L 160.992 191.290997 
L 166.944 191.240477 
L 172.896 191.191082 
L 178.848 191.142795 
L 184.8 191.095594 
L 190.752 191.049455 
L 196.704 191.004346 
L 202.656 190.960239 
L 208.608 190.917101 
L 214.56 190.874902 
L 214.56 191.503791 
L 208.608 191.54599 
L 202.656 191.589128 
L 196.704 191.633235 
L 190.752 191.678343 
L 184.8 191.724483 
L 178.848 191.771684 
L 172.896 191.819971 
L 166.944 191.869366 
L 160.992 191.919885 
L 155.04 191.971535 
L 149.088 192.024308 
L 143.136 192.078179 
L 137.184 192.133094 
L 131.232 192.188964 
L 125.872663 192.24 
L 125.28 192.24 
L 119.328 192.24 
L 113.376 192.24 
L 107.424 192.24 
L 101.472 192.24 
L 95.52 192.24 
L 89.568 192.24 
L 83.616 192.24 
L 77.664 192.24 
L 71.712 192.24 
L 65.76 192.24 
L 59.808 192.24 
L 53.856 192.24 
L 50.461575 192.24 
L 47.904 192.091514 
L 41.952 191.307125 
L 36 189.181488 
L 36 188.5526 
z
" clip-path="url(#pb96e012a06)" style="fill: #440154"/>
   </g>
   <g id="PathCollection_7">
    <path d="M 41.952 190.049347 
L 47.904 190.833737 
L 53.856 191.179293 
L 59.808 191.336785 
L 65.76 191.400872 
L 71.712 191.414176 
L 77.664 191.39823 
L 83.616 191.364833 
L 89.568 191.320845 
L 95.52 191.270439 
L 101.472 191.21624 
L 107.424 191.159942 
L 113.376 191.102659 
L 119.328 191.045135 
L 125.28 190.987866 
L 131.232 190.931186 
L 137.184 190.875316 
L 143.136 190.820401 
L 149.088 190.76653 
L 155.04 190.713757 
L 160.992 190.662108 
L 166.944 190.611588 
L 172.896 190.562193 
L 178.848 190.513906 
L 184.8 190.466706 
L 190.752 190.420566 
L 196.704 190.375458 
L 202.656 190.33135 
L 208.608 190.288213 
L 214.56 190.246013 
L 214.56 190.874902 
L 208.608 190.917101 
L 202.656 190.960239 
L 196.704 191.004346 
L 190.752 191.049455 
L 184.8 191.095594 
L 178.848 191.142795 
L 172.896 191.191082 
L 166.944 191.240477 
L 160.992 191.290997 
L 155.04 191.342646 
L 149.088 191.395419 
L 143.136 191.44929 
L 137.184 191.504205 
L 131.232 191.560075 
L 125.28 191.616755 
L 119.328 191.674024 
L 113.376 191.731548 
L 107.424 191.788831 
L 101.472 191.845128 
L 95.52 191.899328 
L 89.568 191.949734 
L 83.616 191.993721 
L 77.664 192.027119 
L 71.712 192.043065 
L 65.76 192.029761 
L 59.808 191.965673 
L 53.856 191.808182 
L 47.904 191.462625 
L 41.952 190.678236 
L 36 188.5526 
L 36 187.923711 
z
" clip-path="url(#pb96e012a06)" style="fill: #440154"/>
   </g>
   <g id="PathCollection_8">
    <path d="M 41.952 189.420458 
L 47.904 190.204848 
L 53.856 190.550404 
L 59.808 190.707896 
L 65.76 190.771984 
L 71.712 190.785287 
L 77.664 190.769341 
L 83.616 190.735944 
L 89.568 190.691956 
L 95.52 190.64155 
L 101.472 190.587351 
L 107.424 190.531053 
L 113.376 190.473771 
L 119.328 190.416246 
L 125.28 190.358977 
L 131.232 190.302297 
L 137.184 190.246427 
L 143.136 190.191512 
L 149.088 190.137642 
L 155.04 190.084869 
L 160.992 190.033219 
L 166.944 189.982699 
L 172.896 189.933304 
L 178.848 189.885017 
L 184.8 189.837817 
L 190.752 189.791677 
L 196.704 189.746569 
L 202.656 189.702461 
L 208.608 189.659324 
L 214.56 189.617124 
L 214.56 190.246013 
L 208.608 190.288213 
L 202.656 190.33135 
L 196.704 190.375458 
L 190.752 190.420566 
L 184.8 190.466706 
L 178.848 190.513906 
L 172.896 190.562193 
L 166.944 190.611588 
L 160.992 190.662108 
L 155.04 190.713757 
L 149.088 190.76653 
L 143.136 190.820401 
L 137.184 190.875316 
L 131.232 190.931186 
L 125.28 190.987866 
L 119.328 191.045135 
L 113.376 191.102659 
L 107.424 191.159942 
L 101.472 191.21624 
L 95.52 191.270439 
L 89.568 191.320845 
L 83.616 191.364833 
L 77.664 191.39823 
L 71.712 191.414176 
L 65.76 191.400872 
L 59.808 191.336785 
L 53.856 191.179293 
L 47.904 190.833737 
L 41.952 190.049347 
L 36 187.923711 
L 36 187.294822 
z
" clip-path="url(#pb96e012a06)" style="fill: #440154"/>
   </g>
   <g id="PathCollection_9">
    <path d="M 36 186.696 
L 36 186.623911 
L 36.08419 186.696 
L 41.952 188.79157 
L 47.904 189.575959 
L 53.856 189.921516 
L 59.808 190.079007 
L 65.76 190.143095 
L 71.712 190.156399 
L 77.664 190.140452 
L 83.616 190.107055 
L 89.568 190.063067 
L 95.52 190.012661 
L 101.472 189.958462 
L 107.424 189.902164 
L 113.376 189.844882 
L 119.328 189.787358 
L 125.28 189.730089 
L 131.232 189.673408 
L 137.184 189.617539 
L 143.136 189.562623 
L 149.088 189.508753 
L 155.04 189.45598 
L 160.992 189.40433 
L 166.944 189.353811 
L 172.896 189.304415 
L 178.848 189.256128 
L 184.8 189.208928 
L 190.752 189.162788 
L 196.704 189.11768 
L 202.656 189.073573 
L 208.608 189.030435 
L 214.56 188.988235 
L 214.56 189.617124 
L 208.608 189.659324 
L 202.656 189.702461 
L 196.704 189.746569 
L 190.752 189.791677 
L 184.8 189.837817 
L 178.848 189.885017 
L 172.896 189.933304 
L 166.944 189.982699 
L 160.992 190.033219 
L 155.04 190.084869 
L 149.088 190.137642 
L 143.136 190.191512 
L 137.184 190.246427 
L 131.232 190.302297 
L 125.28 190.358977 
L 119.328 190.416246 
L 113.376 190.473771 
L 107.424 190.531053 
L 101.472 190.587351 
L 95.52 190.64155 
L 89.568 190.691956 
L 83.616 190.735944 
L 77.664 190.769341 
L 71.712 190.785287 
L 65.76 190.771984 
L 59.808 190.707896 
L 53.856 190.550404 
L 47.904 190.204848 
L 41.952 189.420458 
L 36 187.294822 
z
" clip-path="url(#pb96e012a06)" style="fill: #440154"/>
   </g>
   <g id="PathCollection_10">
    <path d="M 36.08419 186.696 
L 36 186.623911 
L 36 185.116081 
L 37.845143 186.696 
L 41.952 188.162681 
L 47.904 188.94707 
L 53.856 189.292627 
L 59.808 189.450118 
L 65.76 189.514206 
L 71.712 189.52751 
L 77.664 189.511564 
L 83.616 189.478166 
L 89.568 189.434178 
L 95.52 189.383772 
L 101.472 189.329573 
L 107.424 189.273275 
L 113.376 189.215993 
L 119.328 189.158469 
L 125.28 189.1012 
L 131.232 189.04452 
L 137.184 188.98865 
L 143.136 188.933734 
L 149.088 188.879864 
L 155.04 188.827091 
L 160.992 188.775441 
L 166.944 188.724922 
L 172.896 188.675526 
L 178.848 188.62724 
L 184.8 188.580039 
L 190.752 188.533899 
L 196.704 188.488791 
L 202.656 188.444684 
L 208.608 188.401546 
L 214.56 188.359347 
L 214.56 188.988235 
L 208.608 189.030435 
L 202.656 189.073573 
L 196.704 189.11768 
L 190.752 189.162788 
L 184.8 189.208928 
L 178.848 189.256128 
L 172.896 189.304415 
L 166.944 189.353811 
L 160.992 189.40433 
L 155.04 189.45598 
L 149.088 189.508753 
L 143.136 189.562623 
L 137.184 189.617539 
L 131.232 189.673408 
L 125.28 189.730089 
L 119.328 189.787358 
L 113.376 189.844882 
L 107.424 189.902164 
L 101.472 189.958462 
L 95.52 190.012661 
L 89.568 190.063067 
L 83.616 190.107055 
L 77.664 190.140452 
L 71.712 190.156399 
L 65.76 190.143095 
L 59.808 190.079007 
L 53.856 189.921516 
L 47.904 189.575959 
L 41.952 188.79157 
z
" clip-path="url(#pb96e012a06)" style="fill: #440154"/>
   </g>
   <g id="PathCollection_11">
    <path d="M 37.845143 186.696 
L 36 185.116081 
L 36 183.608251 
L 39.606097 186.696 
L 41.952 187.533792 
L 47.904 188.318181 
L 53.856 188.663738 
L 59.808 188.821229 
L 65.76 188.885317 
L 71.712 188.898621 
L 77.664 188.882675 
L 83.616 188.849277 
L 89.568 188.80529 
L 95.52 188.754884 
L 101.472 188.700684 
L 107.424 188.644386 
L 113.376 188.587104 
L 119.328 188.52958 
L 125.28 188.472311 
L 131.232 188.415631 
L 137.184 188.359761 
L 143.136 188.304846 
L 149.088 188.250975 
L 155.04 188.198202 
L 160.992 188.146552 
L 166.944 188.096033 
L 172.896 188.046638 
L 178.848 187.998351 
L 184.8 187.95115 
L 190.752 187.905011 
L 196.704 187.859902 
L 202.656 187.815795 
L 208.608 187.772657 
L 214.56 187.730458 
L 214.56 188.359347 
L 208.608 188.401546 
L 202.656 188.444684 
L 196.704 188.488791 
L 190.752 188.533899 
L 184.8 188.580039 
L 178.848 188.62724 
L 172.896 188.675526 
L 166.944 188.724922 
L 160.992 188.775441 
L 155.04 188.827091 
L 149.088 188.879864 
L 143.136 188.933734 
L 137.184 188.98865 
L 131.232 189.04452 
L 125.28 189.1012 
L 119.328 189.158469 
L 113.376 189.215993 
L 107.424 189.273275 
L 101.472 189.329573 
L 95.52 189.383772 
L 89.568 189.434178 
L 83.616 189.478166 
L 77.664 189.511564 
L 71.712 189.52751 
L 65.76 189.514206 
L 59.808 189.450118 
L 53.856 189.292627 
L 47.904 188.94707 
L 41.952 188.162681 
z
" clip-path="url(#pb96e012a06)" style="fill: #440154"/>
   </g>
   <g id="PathCollection_12">
    <path d="M 39.606097 186.696 
L 36 183.608251 
L 36 182.100422 
L 41.36705 186.696 
L 41.952 186.904903 
L 47.904 187.689293 
L 53.856 188.034849 
L 59.808 188.192341 
L 65.76 188.256428 
L 71.712 188.269732 
L 77.664 188.253786 
L 83.616 188.220389 
L 89.568 188.176401 
L 95.52 188.125995 
L 101.472 188.071796 
L 107.424 188.015498 
L 113.376 187.958215 
L 119.328 187.900691 
L 125.28 187.843422 
L 131.232 187.786742 
L 137.184 187.730872 
L 143.136 187.675957 
L 149.088 187.622086 
L 155.04 187.569313 
L 160.992 187.517664 
L 166.944 187.467144 
L 172.896 187.417749 
L 178.848 187.369462 
L 184.8 187.322262 
L 190.752 187.276122 
L 196.704 187.231013 
L 202.656 187.186906 
L 208.608 187.143769 
L 214.56 187.101569 
L 214.56 187.730458 
L 208.608 187.772657 
L 202.656 187.815795 
L 196.704 187.859902 
L 190.752 187.905011 
L 184.8 187.95115 
L 178.848 187.998351 
L 172.896 188.046638 
L 166.944 188.096033 
L 160.992 188.146552 
L 155.04 188.198202 
L 149.088 188.250975 
L 143.136 188.304846 
L 137.184 188.359761 
L 131.232 188.415631 
L 125.28 188.472311 
L 119.328 188.52958 
L 113.376 188.587104 
L 107.424 188.644386 
L 101.472 188.700684 
L 95.52 188.754884 
L 89.568 188.80529 
L 83.616 188.849277 
L 77.664 188.882675 
L 71.712 188.898621 
L 65.76 188.885317 
L 59.808 188.821229 
L 53.856 188.663738 
L 47.904 188.318181 
L 41.952 187.533792 
z
" clip-path="url(#pb96e012a06)" style="fill: #440154"/>
   </g>
   <g id="PathCollection_13">
    <path d="M 41.36705 186.696 
L 36 182.100422 
L 36 181.152 
L 36 180.077674 
L 36.653318 181.152 
L 41.952 185.689038 
L 45.138879 186.696 
L 47.904 187.060404 
L 53.856 187.40596 
L 59.808 187.563452 
L 65.76 187.62754 
L 71.712 187.640843 
L 77.664 187.624897 
L 83.616 187.5915 
L 89.568 187.547512 
L 95.52 187.497106 
L 101.472 187.442907 
L 107.424 187.386609 
L 113.376 187.329327 
L 119.328 187.271802 
L 125.28 187.214533 
L 131.232 187.157853 
L 137.184 187.101983 
L 143.136 187.047068 
L 149.088 186.993198 
L 155.04 186.940425 
L 160.992 186.888775 
L 166.944 186.838255 
L 172.896 186.78886 
L 178.848 186.740573 
L 184.468705 186.696 
L 184.8 186.689701 
L 190.752 186.579076 
L 196.704 186.470924 
L 202.656 186.365172 
L 208.608 186.261744 
L 214.56 186.160566 
L 214.56 186.696 
L 214.56 187.101569 
L 208.608 187.143769 
L 202.656 187.186906 
L 196.704 187.231013 
L 190.752 187.276122 
L 184.8 187.322262 
L 178.848 187.369462 
L 172.896 187.417749 
L 166.944 187.467144 
L 160.992 187.517664 
L 155.04 187.569313 
L 149.088 187.622086 
L 143.136 187.675957 
L 137.184 187.730872 
L 131.232 187.786742 
L 125.28 187.843422 
L 119.328 187.900691 
L 113.376 187.958215 
L 107.424 188.015498 
L 101.472 188.071796 
L 95.52 188.125995 
L 89.568 188.176401 
L 83.616 188.220389 
L 77.664 188.253786 
L 71.712 188.269732 
L 65.76 188.256428 
L 59.808 188.192341 
L 53.856 188.034849 
L 47.904 187.689293 
L 41.952 186.904903 
z
" clip-path="url(#pb96e012a06)" style="fill: #481a6c"/>
   </g>
   <g id="PathCollection_14">
    <path d="M 36.653318 181.152 
L 36 180.077674 
L 36 177.181936 
L 38.414271 181.152 
L 41.952 184.181209 
L 47.904 186.061868 
L 52.459593 186.696 
L 53.856 186.777072 
L 59.808 186.934563 
L 65.76 186.998651 
L 71.712 187.011955 
L 77.664 186.996008 
L 83.616 186.962611 
L 89.568 186.918623 
L 95.52 186.868217 
L 101.472 186.814018 
L 107.424 186.75772 
L 113.376 186.700438 
L 113.835173 186.696 
L 119.328 186.568719 
L 125.28 186.431411 
L 131.232 186.295514 
L 137.184 186.16156 
L 143.136 186.029894 
L 149.088 185.900734 
L 155.04 185.774205 
L 160.992 185.650369 
L 166.944 185.529243 
L 172.896 185.410812 
L 178.848 185.295039 
L 184.8 185.181871 
L 190.752 185.071246 
L 196.704 184.963094 
L 202.656 184.857342 
L 208.608 184.753914 
L 214.56 184.652736 
L 214.56 186.160566 
L 208.608 186.261744 
L 202.656 186.365172 
L 196.704 186.470924 
L 190.752 186.579076 
L 184.8 186.689701 
L 184.468705 186.696 
L 178.848 186.740573 
L 172.896 186.78886 
L 166.944 186.838255 
L 160.992 186.888775 
L 155.04 186.940425 
L 149.088 186.993198 
L 143.136 187.047068 
L 137.184 187.101983 
L 131.232 187.157853 
L 125.28 187.214533 
L 119.328 187.271802 
L 113.376 187.329327 
L 107.424 187.386609 
L 101.472 187.442907 
L 95.52 187.497106 
L 89.568 187.547512 
L 83.616 187.5915 
L 77.664 187.624897 
L 71.712 187.640843 
L 65.76 187.62754 
L 59.808 187.563452 
L 53.856 187.40596 
L 47.904 187.060404 
L 45.138879 186.696 
L 41.952 185.689038 
z
" clip-path="url(#pb96e012a06)" style="fill: #463480"/>
   </g>
   <g id="PathCollection_15">
    <path d="M 38.414271 181.152 
L 36 177.181936 
L 36 175.608 
L 36 173.345953 
L 36.803813 175.608 
L 40.175224 181.152 
L 41.952 182.673379 
L 47.904 184.554038 
L 53.856 185.382548 
L 59.808 185.760151 
L 65.76 185.913808 
L 71.712 185.945706 
L 77.664 185.907473 
L 83.616 185.827399 
L 89.568 185.721933 
L 95.52 185.601079 
L 101.472 185.471131 
L 107.424 185.336151 
L 113.376 185.19881 
L 119.328 185.060889 
L 125.28 184.923581 
L 131.232 184.787684 
L 137.184 184.65373 
L 143.136 184.522064 
L 149.088 184.392904 
L 155.04 184.266375 
L 160.992 184.142539 
L 166.944 184.021413 
L 172.896 183.902982 
L 178.848 183.787209 
L 184.8 183.674041 
L 190.752 183.563416 
L 196.704 183.455264 
L 202.656 183.349512 
L 208.608 183.246084 
L 214.56 183.144906 
L 214.56 184.652736 
L 208.608 184.753914 
L 202.656 184.857342 
L 196.704 184.963094 
L 190.752 185.071246 
L 184.8 185.181871 
L 178.848 185.295039 
L 172.896 185.410812 
L 166.944 185.529243 
L 160.992 185.650369 
L 155.04 185.774205 
L 149.088 185.900734 
L 143.136 186.029894 
L 137.184 186.16156 
L 131.232 186.295514 
L 125.28 186.431411 
L 119.328 186.568719 
L 113.835173 186.696 
L 113.376 186.700438 
L 107.424 186.75772 
L 101.472 186.814018 
L 95.52 186.868217 
L 89.568 186.918623 
L 83.616 186.962611 
L 77.664 186.996008 
L 71.712 187.011955 
L 65.76 186.998651 
L 59.808 186.934563 
L 53.856 186.777072 
L 52.459593 186.696 
L 47.904 186.061868 
L 41.952 184.181209 
z
" clip-path="url(#pb96e012a06)" style="fill: #3d4d8a"/>
   </g>
   <g id="PathCollection_16">
    <path d="M 40.175224 181.152 
L 36.803813 175.608 
L 36 173.345953 
L 36 170.064 
L 36 167.386435 
L 36.594719 170.064 
L 38.564766 175.608 
L 41.936177 181.152 
L 41.952 181.165549 
L 47.904 183.046208 
L 53.856 183.874718 
L 59.808 184.252321 
L 65.76 184.405979 
L 71.712 184.437876 
L 77.664 184.399643 
L 83.616 184.319569 
L 89.568 184.214103 
L 95.52 184.09325 
L 101.472 183.963301 
L 107.424 183.828321 
L 113.376 183.69098 
L 119.328 183.553059 
L 125.28 183.415751 
L 131.232 183.279854 
L 137.184 183.1459 
L 143.136 183.014234 
L 149.088 182.885074 
L 155.04 182.758545 
L 160.992 182.634709 
L 166.944 182.513583 
L 172.896 182.395152 
L 178.848 182.279379 
L 184.8 182.166211 
L 190.752 182.055586 
L 196.704 181.947434 
L 202.656 181.841682 
L 208.608 181.738254 
L 214.56 181.637076 
L 214.56 183.144906 
L 208.608 183.246084 
L 202.656 183.349512 
L 196.704 183.455264 
L 190.752 183.563416 
L 184.8 183.674041 
L 178.848 183.787209 
L 172.896 183.902982 
L 166.944 184.021413 
L 160.992 184.142539 
L 155.04 184.266375 
L 149.088 184.392904 
L 143.136 184.522064 
L 137.184 184.65373 
L 131.232 184.787684 
L 125.28 184.923581 
L 119.328 185.060889 
L 113.376 185.19881 
L 107.424 185.336151 
L 101.472 185.471131 
L 95.52 185.601079 
L 89.568 185.721933 
L 83.616 185.827399 
L 77.664 185.907473 
L 71.712 185.945706 
L 65.76 185.913808 
L 59.808 185.760151 
L 53.856 185.382548 
L 47.904 184.554038 
L 41.952 182.673379 
z
" clip-path="url(#pb96e012a06)" style="fill: #33628d"/>
   </g>
   <g id="PathCollection_17">
    <path d="M 41.936177 181.152 
L 38.564766 175.608 
L 36.594719 170.064 
L 36 167.386435 
L 36 164.52 
L 36 158.976 
L 36 155.612492 
L 36.323097 158.976 
L 37.124284 164.52 
L 38.355672 170.064 
L 40.325719 175.608 
L 41.952 178.282282 
L 46.681172 181.152 
L 47.904 181.538378 
L 53.856 182.366888 
L 59.808 182.744491 
L 65.76 182.898149 
L 71.712 182.930046 
L 77.664 182.891813 
L 83.616 182.811739 
L 89.568 182.706273 
L 95.52 182.58542 
L 101.472 182.455471 
L 107.424 182.320491 
L 113.376 182.18315 
L 119.328 182.045229 
L 125.28 181.907921 
L 131.232 181.772024 
L 137.184 181.63807 
L 143.136 181.506404 
L 149.088 181.377244 
L 155.04 181.250715 
L 159.784601 181.152 
L 160.992 181.103756 
L 166.944 180.871138 
L 172.896 180.643695 
L 178.848 180.421357 
L 184.8 180.204021 
L 190.752 179.991569 
L 196.704 179.783866 
L 202.656 179.580773 
L 208.608 179.382144 
L 214.56 179.187835 
L 214.56 181.152 
L 214.56 181.637076 
L 208.608 181.738254 
L 202.656 181.841682 
L 196.704 181.947434 
L 190.752 182.055586 
L 184.8 182.166211 
L 178.848 182.279379 
L 172.896 182.395152 
L 166.944 182.513583 
L 160.992 182.634709 
L 155.04 182.758545 
L 149.088 182.885074 
L 143.136 183.014234 
L 137.184 183.1459 
L 131.232 183.279854 
L 125.28 183.415751 
L 119.328 183.553059 
L 113.376 183.69098 
L 107.424 183.828321 
L 101.472 183.963301 
L 95.52 184.09325 
L 89.568 184.214103 
L 83.616 184.319569 
L 77.664 184.399643 
L 71.712 184.437876 
L 65.76 184.405979 
L 59.808 184.252321 
L 53.856 183.874718 
L 47.904 183.046208 
L 41.952 181.165549 
z
" clip-path="url(#pb96e012a06)" style="fill: #2a768e"/>
    <path d="M 36 37.008 
L 36 31.464 
L 36 25.92 
L 36.226748 25.92 
L 36.131687 31.464 
L 36.036318 37.008 
L 36 39.116392 
z
" clip-path="url(#pb96e012a06)" style="fill: #2a768e"/>
   </g>
   <g id="PathCollection_18">
    <path d="M 40.325719 175.608 
L 38.355672 170.064 
L 37.124284 164.52 
L 36.323097 158.976 
L 36 155.612492 
L 36 153.432 
L 36 147.888 
L 36 142.344 
L 36 136.8 
L 36 131.256 
L 36 125.712 
L 36 120.168 
L 36 114.624 
L 36 109.08 
L 36 103.536 
L 36 97.992 
L 36 92.448 
L 36 86.904 
L 36 81.36 
L 36 75.816 
L 36 70.272 
L 36 64.728 
L 36 59.184 
L 36 53.64 
L 36 48.096 
L 36 42.552 
L 36 39.116392 
L 36.036318 37.008 
L 36.131687 31.464 
L 36.226748 25.92 
L 37.987701 25.92 
L 37.892641 31.464 
L 37.797271 37.008 
L 37.701773 42.552 
L 37.606369 48.096 
L 37.511333 53.64 
L 37.416999 59.184 
L 37.323782 64.728 
L 37.232196 70.272 
L 37.142874 75.816 
L 37.056609 81.36 
L 36.974391 86.904 
L 36.897469 92.448 
L 36.827426 97.992 
L 36.766286 103.536 
L 36.716664 109.08 
L 36.681969 114.624 
L 36.666707 120.168 
L 36.676915 125.712 
L 36.720814 131.256 
L 36.809825 136.8 
L 36.960166 142.344 
L 37.195503 147.888 
L 37.551496 153.432 
L 38.08405 158.976 
L 38.885237 164.52 
L 40.116625 170.064 
L 41.952 175.229013 
L 42.316951 175.608 
L 47.904 178.998289 
L 53.856 180.589415 
L 58.473522 181.152 
L 59.808 181.236661 
L 65.76 181.390319 
L 71.712 181.422216 
L 77.664 181.383983 
L 83.616 181.303909 
L 89.568 181.198444 
L 91.855324 181.152 
L 95.52 181.009097 
L 101.472 180.759536 
L 107.424 180.50031 
L 113.376 180.236552 
L 119.328 179.97168 
L 125.28 179.707983 
L 131.232 179.446998 
L 137.184 179.189743 
L 143.136 178.936884 
L 149.088 178.688836 
L 155.04 178.445841 
L 160.992 178.208018 
L 166.944 177.9754 
L 172.896 177.747957 
L 178.848 177.525618 
L 184.8 177.308283 
L 190.752 177.095831 
L 196.704 176.888128 
L 202.656 176.685035 
L 208.608 176.486406 
L 214.56 176.292096 
L 214.56 179.187835 
L 208.608 179.382144 
L 202.656 179.580773 
L 196.704 179.783866 
L 190.752 179.991569 
L 184.8 180.204021 
L 178.848 180.421357 
L 172.896 180.643695 
L 166.944 180.871138 
L 160.992 181.103756 
L 159.784601 181.152 
L 155.04 181.250715 
L 149.088 181.377244 
L 143.136 181.506404 
L 137.184 181.63807 
L 131.232 181.772024 
L 125.28 181.907921 
L 119.328 182.045229 
L 113.376 182.18315 
L 107.424 182.320491 
L 101.472 182.455471 
L 95.52 182.58542 
L 89.568 182.706273 
L 83.616 182.811739 
L 77.664 182.891813 
L 71.712 182.930046 
L 65.76 182.898149 
L 59.808 182.744491 
L 53.856 182.366888 
L 47.904 181.538378 
L 46.681172 181.152 
L 41.952 178.282282 
z
" clip-path="url(#pb96e012a06)" style="fill: #238a8d"/>
   </g>
   <g id="PathCollection_19">
    <path d="M 40.116625 170.064 
L 38.885237 164.52 
L 38.08405 158.976 
L 37.551496 153.432 
L 37.195503 147.888 
L 36.960166 142.344 
L 36.809825 136.8 
L 36.720814 131.256 
L 36.676915 125.712 
L 36.666707 120.168 
L 36.681969 114.624 
L 36.716664 109.08 
L 36.766286 103.536 
L 36.827426 97.992 
L 36.897469 92.448 
L 36.974391 86.904 
L 37.056609 81.36 
L 37.142874 75.816 
L 37.232196 70.272 
L 37.323782 64.728 
L 37.416999 59.184 
L 37.511333 53.64 
L 37.606369 48.096 
L 37.701773 42.552 
L 37.797271 37.008 
L 37.892641 31.464 
L 37.987701 25.92 
L 39.748654 25.92 
L 39.653594 31.464 
L 39.558224 37.008 
L 39.462726 42.552 
L 39.367323 48.096 
L 39.272286 53.64 
L 39.177952 59.184 
L 39.084735 64.728 
L 38.993149 70.272 
L 38.903827 75.816 
L 38.817562 81.36 
L 38.735344 86.904 
L 38.658422 92.448 
L 38.588379 97.992 
L 38.527239 103.536 
L 38.477617 109.08 
L 38.442922 114.624 
L 38.42766 120.168 
L 38.437868 125.712 
L 38.481767 131.256 
L 38.570778 136.8 
L 38.72112 142.344 
L 38.956456 147.888 
L 39.312449 153.432 
L 39.845003 158.976 
L 40.64619 164.52 
L 41.877578 170.064 
L 41.952 170.273434 
L 47.089002 175.608 
L 47.904 176.10255 
L 53.856 177.693676 
L 59.808 178.418851 
L 65.76 178.713945 
L 71.712 178.775203 
L 77.664 178.701778 
L 83.616 178.547998 
L 89.568 178.345455 
L 95.52 178.113359 
L 101.472 177.863797 
L 107.424 177.604572 
L 113.376 177.340814 
L 119.328 177.075941 
L 125.28 176.812245 
L 131.232 176.551259 
L 137.184 176.294005 
L 143.136 176.041145 
L 149.088 175.793097 
L 153.621836 175.608 
L 155.04 175.508918 
L 160.992 175.101923 
L 166.944 174.703835 
L 172.896 174.314604 
L 178.848 173.934109 
L 184.8 173.562175 
L 190.752 173.198598 
L 196.704 172.843149 
L 202.656 172.495588 
L 208.608 172.155668 
L 214.56 171.823139 
L 214.56 175.608 
L 214.56 176.292096 
L 208.608 176.486406 
L 202.656 176.685035 
L 196.704 176.888128 
L 190.752 177.095831 
L 184.8 177.308283 
L 178.848 177.525618 
L 172.896 177.747957 
L 166.944 177.9754 
L 160.992 178.208018 
L 155.04 178.445841 
L 149.088 178.688836 
L 143.136 178.936884 
L 137.184 179.189743 
L 131.232 179.446998 
L 125.28 179.707983 
L 119.328 179.97168 
L 113.376 180.236552 
L 107.424 180.50031 
L 101.472 180.759536 
L 95.52 181.009097 
L 91.855324 181.152 
L 89.568 181.198444 
L 83.616 181.303909 
L 77.664 181.383983 
L 71.712 181.422216 
L 65.76 181.390319 
L 59.808 181.236661 
L 58.473522 181.152 
L 53.856 180.589415 
L 47.904 178.998289 
L 42.316951 175.608 
L 41.952 175.229013 
z
" clip-path="url(#pb96e012a06)" style="fill: #1e9d89"/>
   </g>
   <g id="PathCollection_20">
    <path d="M 41.877578 170.064 
L 40.64619 164.52 
L 39.845003 158.976 
L 39.312449 153.432 
L 38.956456 147.888 
L 38.72112 142.344 
L 38.570778 136.8 
L 38.481767 131.256 
L 38.437868 125.712 
L 38.42766 120.168 
L 38.442922 114.624 
L 38.477617 109.08 
L 38.527239 103.536 
L 38.588379 97.992 
L 38.658422 92.448 
L 38.735344 86.904 
L 38.817562 81.36 
L 38.903827 75.816 
L 38.993149 70.272 
L 39.084735 64.728 
L 39.177952 59.184 
L 39.272286 53.64 
L 39.367323 48.096 
L 39.462726 42.552 
L 39.558224 37.008 
L 39.653594 31.464 
L 39.748654 25.92 
L 41.509607 25.92 
L 41.414547 31.464 
L 41.319177 37.008 
L 41.223679 42.552 
L 41.128276 48.096 
L 41.033239 53.64 
L 40.938905 59.184 
L 40.845688 64.728 
L 40.754102 70.272 
L 40.66478 75.816 
L 40.578515 81.36 
L 40.496297 86.904 
L 40.419375 92.448 
L 40.349332 97.992 
L 40.288192 103.536 
L 40.23857 109.08 
L 40.203875 114.624 
L 40.188614 120.168 
L 40.198821 125.712 
L 40.24272 131.256 
L 40.331731 136.8 
L 40.482073 142.344 
L 40.717409 147.888 
L 41.073402 153.432 
L 41.605956 158.976 
L 41.952 161.370533 
L 43.185404 164.52 
L 46.522374 170.064 
L 47.904 171.498762 
L 53.856 174.221713 
L 59.808 175.462729 
L 61.52017 175.608 
L 65.76 175.818207 
L 71.712 175.879465 
L 77.664 175.80604 
L 83.616 175.65226 
L 84.916638 175.608 
L 89.568 175.337124 
L 95.52 174.93993 
L 101.472 174.512847 
L 107.424 174.069225 
L 113.376 173.617846 
L 119.328 173.164561 
L 125.28 172.713287 
L 131.232 172.266654 
L 137.184 171.826405 
L 143.136 171.393678 
L 149.088 170.969184 
L 155.04 170.553338 
L 160.992 170.146344 
L 162.223163 170.064 
L 166.944 169.558854 
L 172.896 168.93614 
L 178.848 168.3274 
L 184.8 167.732359 
L 190.752 167.150687 
L 196.704 166.582019 
L 202.656 166.025971 
L 208.608 165.482147 
L 214.56 164.950147 
L 214.56 170.064 
L 214.56 171.823139 
L 208.608 172.155668 
L 202.656 172.495588 
L 196.704 172.843149 
L 190.752 173.198598 
L 184.8 173.562175 
L 178.848 173.934109 
L 172.896 174.314604 
L 166.944 174.703835 
L 160.992 175.101923 
L 155.04 175.508918 
L 153.621836 175.608 
L 149.088 175.793097 
L 143.136 176.041145 
L 137.184 176.294005 
L 131.232 176.551259 
L 125.28 176.812245 
L 119.328 177.075941 
L 113.376 177.340814 
L 107.424 177.604572 
L 101.472 177.863797 
L 95.52 178.113359 
L 89.568 178.345455 
L 83.616 178.547998 
L 77.664 178.701778 
L 71.712 178.775203 
L 65.76 178.713945 
L 59.808 178.418851 
L 53.856 177.693676 
L 47.904 176.10255 
L 47.089002 175.608 
L 41.952 170.273434 
z
" clip-path="url(#pb96e012a06)" style="fill: #2ab07f"/>
   </g>
   <g id="PathCollection_21">
    <path d="M 41.605956 158.976 
L 41.073402 153.432 
L 40.717409 147.888 
L 40.482073 142.344 
L 40.331731 136.8 
L 40.24272 131.256 
L 40.198821 125.712 
L 40.188614 120.168 
L 40.203875 114.624 
L 40.23857 109.08 
L 40.288192 103.536 
L 40.349332 97.992 
L 40.419375 92.448 
L 40.496297 86.904 
L 40.578515 81.36 
L 40.66478 75.816 
L 40.754102 70.272 
L 40.845688 64.728 
L 40.938905 59.184 
L 41.033239 53.64 
L 41.128276 48.096 
L 41.223679 42.552 
L 41.319177 37.008 
L 41.414547 31.464 
L 41.509607 25.92 
L 41.952 25.92 
L 45.5252 25.92 
L 45.267593 31.464 
L 45.009148 37.008 
L 44.750357 42.552 
L 44.49182 48.096 
L 44.234277 53.64 
L 43.978639 59.184 
L 43.726029 64.728 
L 43.477836 70.272 
L 43.235781 75.816 
L 43.002009 81.36 
L 42.779205 86.904 
L 42.570752 92.448 
L 42.38094 97.992 
L 42.215256 103.536 
L 42.080783 109.08 
L 41.986764 114.624 
L 41.952 119.284035 
L 41.949567 120.168 
L 41.952 121.48968 
L 41.973067 125.712 
L 42.092031 131.256 
L 42.333244 136.8 
L 42.740658 142.344 
L 43.378403 147.888 
L 44.343117 153.432 
L 45.786297 158.976 
L 47.904 164.383504 
L 48.025339 164.52 
L 53.856 168.787526 
L 57.682625 170.064 
L 59.808 170.507149 
L 65.76 171.012155 
L 71.712 171.116988 
L 77.664 170.991333 
L 83.616 170.728164 
L 89.568 170.381545 
L 94.32645 170.064 
L 95.52 169.936573 
L 101.472 169.253299 
L 107.424 168.543567 
L 113.376 167.821425 
L 119.328 167.096232 
L 125.28 166.374259 
L 131.232 165.659708 
L 137.184 164.955372 
L 140.927067 164.52 
L 143.136 164.12511 
L 149.088 163.081319 
L 155.04 162.058792 
L 160.992 161.05803 
L 166.944 160.079168 
L 172.896 159.122085 
L 173.825341 158.976 
L 178.848 157.788225 
L 184.8 156.412351 
L 190.752 155.067388 
L 196.704 153.752495 
L 198.187681 153.432 
L 202.656 151.988066 
L 208.608 150.106965 
L 214.56 148.266767 
L 214.56 153.432 
L 214.56 158.976 
L 214.56 164.52 
L 214.56 164.950147 
L 208.608 165.482147 
L 202.656 166.025971 
L 196.704 166.582019 
L 190.752 167.150687 
L 184.8 167.732359 
L 178.848 168.3274 
L 172.896 168.93614 
L 166.944 169.558854 
L 162.223163 170.064 
L 160.992 170.146344 
L 155.04 170.553338 
L 149.088 170.969184 
L 143.136 171.393678 
L 137.184 171.826405 
L 131.232 172.266654 
L 125.28 172.713287 
L 119.328 173.164561 
L 113.376 173.617846 
L 107.424 174.069225 
L 101.472 174.512847 
L 95.52 174.93993 
L 89.568 175.337124 
L 84.916638 175.608 
L 83.616 175.65226 
L 77.664 175.80604 
L 71.712 175.879465 
L 65.76 175.818207 
L 61.52017 175.608 
L 59.808 175.462729 
L 53.856 174.221713 
L 47.904 171.498762 
L 46.522374 170.064 
L 43.185404 164.52 
L 41.952 161.370533 
z
" clip-path="url(#pb96e012a06)" style="fill: #4cc26c"/>
    <path d="M 178.066687 25.92 
L 178.848 25.92 
L 184.8 25.92 
L 190.752 25.92 
L 196.704 25.92 
L 202.656 25.92 
L 208.608 25.92 
L 214.56 25.92 
L 214.56 31.464 
L 214.56 37.008 
L 214.56 42.552 
L 214.56 48.096 
L 214.56 53.64 
L 214.56 59.184 
L 214.56 64.728 
L 214.56 70.272 
L 214.56 71.039828 
L 213.936871 70.272 
L 209.323561 64.728 
L 208.608 63.883116 
L 204.714701 59.184 
L 202.656 56.728632 
L 200.123268 53.64 
L 196.704 49.501095 
L 195.56897 48.096 
L 191.073258 42.552 
L 190.752 42.156223 
L 186.666549 37.008 
L 184.8 34.652734 
L 182.329704 31.464 
L 178.848 26.955112 
z
" clip-path="url(#pb96e012a06)" style="fill: #4cc26c"/>
   </g>
   <g id="PathCollection_22">
    <path d="M 41.949567 120.168 
L 41.952 119.284035 
L 41.986764 114.624 
L 42.080783 109.08 
L 42.215256 103.536 
L 42.38094 97.992 
L 42.570752 92.448 
L 42.779205 86.904 
L 43.002009 81.36 
L 43.235781 75.816 
L 43.477836 70.272 
L 43.726029 64.728 
L 43.978639 59.184 
L 44.234277 53.64 
L 44.49182 48.096 
L 44.750357 42.552 
L 45.009148 37.008 
L 45.267593 31.464 
L 45.5252 25.92 
L 47.904 25.92 
L 53.336515 25.92 
L 52.751763 31.464 
L 52.165113 37.008 
L 51.577674 42.552 
L 50.990812 48.096 
L 50.406208 53.64 
L 49.825928 59.184 
L 49.252522 64.728 
L 48.689141 70.272 
L 48.139692 75.816 
L 47.904 78.278428 
L 47.77406 81.36 
L 47.551256 86.904 
L 47.342803 92.448 
L 47.152991 97.992 
L 46.987307 103.536 
L 46.852835 109.08 
L 46.758815 114.624 
L 46.717457 120.168 
L 46.745118 125.712 
L 46.864083 131.256 
L 47.105295 136.8 
L 47.512709 142.344 
L 47.904 145.745543 
L 48.463434 147.888 
L 50.653269 153.432 
L 53.856 158.852143 
L 54.01658 158.976 
L 59.808 161.945217 
L 65.76 163.18698 
L 71.712 163.444754 
L 77.664 163.135781 
L 83.616 162.488673 
L 89.568 161.636368 
L 95.52 160.659704 
L 101.472 159.609544 
L 104.928879 158.976 
L 107.424 158.288053 
L 113.376 156.618293 
L 119.328 154.941476 
L 124.709906 153.432 
L 125.28 153.192802 
L 131.232 150.721154 
L 137.184 148.28484 
L 138.170345 147.888 
L 143.136 144.86586 
L 147.360022 142.344 
L 149.088 140.729105 
L 153.379669 136.8 
L 155.04 134.232573 
L 157.006785 131.256 
L 158.813465 125.712 
L 159.233548 120.168 
L 158.605451 114.624 
L 157.177603 109.08 
L 155.135408 103.536 
L 155.04 103.325785 
L 152.670743 97.992 
L 149.849479 92.448 
L 149.088 91.08545 
L 146.798747 86.904 
L 143.554573 81.36 
L 143.136 80.678258 
L 140.207497 75.816 
L 137.184 70.967799 
L 136.75749 70.272 
L 133.272963 64.728 
L 131.232 61.537531 
L 129.747955 59.184 
L 126.210217 53.64 
L 125.28 52.193038 
L 122.673193 48.096 
L 119.328 42.858687 
L 119.132982 42.552 
L 115.604154 37.008 
L 113.376 33.50273 
L 112.074587 31.464 
L 108.547059 25.92 
L 113.376 25.92 
L 119.328 25.92 
L 125.28 25.92 
L 131.232 25.92 
L 137.184 25.92 
L 143.136 25.92 
L 149.088 25.92 
L 155.04 25.92 
L 160.992 25.92 
L 166.944 25.92 
L 172.896 25.92 
L 178.066687 25.92 
L 178.848 26.955112 
L 182.329704 31.464 
L 184.8 34.652734 
L 186.666549 37.008 
L 190.752 42.156223 
L 191.073258 42.552 
L 195.56897 48.096 
L 196.704 49.501095 
L 200.123268 53.64 
L 202.656 56.728632 
L 204.714701 59.184 
L 208.608 63.883116 
L 209.323561 64.728 
L 213.936871 70.272 
L 214.56 71.039828 
L 214.56 75.816 
L 214.56 81.36 
L 214.56 86.904 
L 214.56 92.448 
L 214.56 97.992 
L 214.56 103.536 
L 214.56 109.08 
L 214.56 114.624 
L 214.56 120.168 
L 214.56 125.712 
L 214.56 131.256 
L 214.56 136.8 
L 214.56 142.344 
L 214.56 147.888 
L 214.56 148.266767 
L 208.608 150.106965 
L 202.656 151.988066 
L 198.187681 153.432 
L 196.704 153.752495 
L 190.752 155.067388 
L 184.8 156.412351 
L 178.848 157.788225 
L 173.825341 158.976 
L 172.896 159.122085 
L 166.944 160.079168 
L 160.992 161.05803 
L 155.04 162.058792 
L 149.088 163.081319 
L 143.136 164.12511 
L 140.927067 164.52 
L 137.184 164.955372 
L 131.232 165.659708 
L 125.28 166.374259 
L 119.328 167.096232 
L 113.376 167.821425 
L 107.424 168.543567 
L 101.472 169.253299 
L 95.52 169.936573 
L 94.32645 170.064 
L 89.568 170.381545 
L 83.616 170.728164 
L 77.664 170.991333 
L 71.712 171.116988 
L 65.76 171.012155 
L 59.808 170.507149 
L 57.682625 170.064 
L 53.856 168.787526 
L 48.025339 164.52 
L 47.904 164.383504 
L 45.786297 158.976 
L 44.343117 153.432 
L 43.378403 147.888 
L 42.740658 142.344 
L 42.333244 136.8 
L 42.092031 131.256 
L 41.973067 125.712 
L 41.952 121.48968 
z
" clip-path="url(#pb96e012a06)" style="fill: #7ad151"/>
   </g>
   <g id="PathCollection_23">
    <path d="M 47.512709 142.344 
L 47.105295 136.8 
L 46.864083 131.256 
L 46.745118 125.712 
L 46.717457 120.168 
L 46.758815 114.624 
L 46.852835 109.08 
L 46.987307 103.536 
L 47.152991 97.992 
L 47.342803 92.448 
L 47.551256 86.904 
L 47.77406 81.36 
L 47.904 78.278428 
L 48.139692 75.816 
L 48.689141 70.272 
L 49.252522 64.728 
L 49.825928 59.184 
L 50.406208 53.64 
L 50.990812 48.096 
L 51.577674 42.552 
L 52.165113 37.008 
L 52.751763 31.464 
L 53.336515 25.92 
L 53.856 25.92 
L 59.808 25.92 
L 65.76 25.92 
L 71.712 25.92 
L 77.664 25.92 
L 83.616 25.92 
L 89.568 25.92 
L 95.52 25.92 
L 101.472 25.92 
L 107.424 25.92 
L 108.547059 25.92 
L 112.074587 31.464 
L 113.376 33.50273 
L 115.604154 37.008 
L 119.132982 42.552 
L 119.328 42.858687 
L 122.673193 48.096 
L 125.28 52.193038 
L 126.210217 53.64 
L 129.747955 59.184 
L 131.232 61.537531 
L 133.272963 64.728 
L 136.75749 70.272 
L 137.184 70.967799 
L 140.207497 75.816 
L 143.136 80.678258 
L 143.554573 81.36 
L 146.798747 86.904 
L 149.088 91.08545 
L 149.849479 92.448 
L 152.670743 97.992 
L 155.04 103.325785 
L 155.135408 103.536 
L 157.177603 109.08 
L 158.605451 114.624 
L 159.233548 120.168 
L 158.813465 125.712 
L 157.006785 131.256 
L 155.04 134.232573 
L 153.379669 136.8 
L 149.088 140.729105 
L 147.360022 142.344 
L 143.136 144.86586 
L 138.170345 147.888 
L 137.184 148.28484 
L 131.232 150.721154 
L 125.28 153.192802 
L 124.709906 153.432 
L 119.328 154.941476 
L 113.376 156.618293 
L 107.424 158.288053 
L 104.928879 158.976 
L 101.472 159.609544 
L 95.52 160.659704 
L 89.568 161.636368 
L 83.616 162.488673 
L 77.664 163.135781 
L 71.712 163.444754 
L 65.76 163.18698 
L 59.808 161.945217 
L 54.01658 158.976 
L 53.856 158.852143 
L 50.653269 153.432 
L 48.463434 147.888 
L 47.904 145.745543 
z
M 59.808 133.210282 
L 61.719582 136.8 
L 65.76 141.292185 
L 70.317295 142.344 
L 71.712 142.549638 
L 72.875593 142.344 
L 77.664 141.01934 
L 83.616 137.570824 
L 84.626106 136.8 
L 88.927399 131.256 
L 89.568 129.58185 
L 90.860226 125.712 
L 91.290674 120.168 
L 90.647079 114.624 
L 89.568 110.535081 
L 89.127971 109.08 
L 86.730062 103.536 
L 83.775595 97.992 
L 83.616 97.730592 
L 79.368184 92.448 
L 77.664 90.518197 
L 71.712 87.300068 
L 65.76 89.984931 
L 64.626509 92.448 
L 62.303345 97.992 
L 60.275495 103.536 
L 59.808 105.110745 
L 59.328494 109.08 
L 58.860228 114.624 
L 58.654241 120.168 
L 58.792009 125.712 
L 59.384514 131.256 
z
" clip-path="url(#pb96e012a06)" style="fill: #addc30"/>
   </g>
   <g id="PathCollection_24">
    <path d="M 59.384514 131.256 
L 58.792009 125.712 
L 58.654241 120.168 
L 58.860228 114.624 
L 59.328494 109.08 
L 59.808 105.110745 
L 60.275495 103.536 
L 62.303345 97.992 
L 64.626509 92.448 
L 65.76 89.984931 
L 71.712 87.300068 
L 77.664 90.518197 
L 79.368184 92.448 
L 83.616 97.730592 
L 83.775595 97.992 
L 86.730062 103.536 
L 89.127971 109.08 
L 89.568 110.535081 
L 90.647079 114.624 
L 91.290674 120.168 
L 90.860226 125.712 
L 89.568 129.58185 
L 88.927399 131.256 
L 84.626106 136.8 
L 83.616 137.570824 
L 77.664 141.01934 
L 72.875593 142.344 
L 71.712 142.549638 
L 70.317295 142.344 
L 65.76 141.292185 
L 61.719582 136.8 
L 59.808 133.210282 
z
" clip-path="url(#pb96e012a06)" style="fill: #e5e419"/>
   </g>
   <g id="PathCollection_25">
    <defs>
     <path id="me6d79b0f74" d="M -4.330127 4.330127 
L 4.330127 -4.330127 
M -4.330127 -4.330127 
L 4.330127 4.330127 
" style="stroke: #000000; stroke-width: 2"/>
    </defs>
    <g clip-path="url(#pb96e012a06)">
     <use xlink:href="#me6d79b0f74" x="65.76" y="127.56" style="stroke: #000000; stroke-width: 2"/>
    </g>
   </g>
   <g id="matplotlib.axis_1">
    <g id="xtick_1">
     <g id="line2d_1">
      <defs>
       <path id="mdad61ac28f" d="M 0 0 
L 0 3.5 
" style="stroke: #000000; stroke-width: 0.8"/>
      </defs>
      <g>
       <use xlink:href="#mdad61ac28f" x="75.68" y="192.24" style="stroke: #000000; stroke-width: 0.8"/>
      </g>
     </g>
     <g id="text_1">
      <!-- $\mathdefault{250}$ -->
      <g transform="translate(64.22 208.358125) scale(0.12 -0.12)">
       <defs>
        <path id="DejaVuSans-32" d="M 1228 531 
L 3431 531 
L 3431 0 
L 469 0 
L 469 531 
Q 828 903 1448 1529 
Q 2069 2156 2228 2338 
Q 2531 2678 2651 2914 
Q 2772 3150 2772 3378 
Q 2772 3750 2511 3984 
Q 2250 4219 1831 4219 
Q 1534 4219 1204 4116 
Q 875 4013 500 3803 
L 500 4441 
Q 881 4594 1212 4672 
Q 1544 4750 1819 4750 
Q 2544 4750 2975 4387 
Q 3406 4025 3406 3419 
Q 3406 3131 3298 2873 
Q 3191 2616 2906 2266 
Q 2828 2175 2409 1742 
Q 1991 1309 1228 531 
z
" transform="scale(0.015625)"/>
        <path id="DejaVuSans-35" d="M 691 4666 
L 3169 4666 
L 3169 4134 
L 1269 4134 
L 1269 2991 
Q 1406 3038 1543 3061 
Q 1681 3084 1819 3084 
Q 2600 3084 3056 2656 
Q 3513 2228 3513 1497 
Q 3513 744 3044 326 
Q 2575 -91 1722 -91 
Q 1428 -91 1123 -41 
Q 819 9 494 109 
L 494 744 
Q 775 591 1075 516 
Q 1375 441 1709 441 
Q 2250 441 2565 725 
Q 2881 1009 2881 1497 
Q 2881 1984 2565 2268 
Q 2250 2553 1709 2553 
Q 1456 2553 1204 2497 
Q 953 2441 691 2322 
L 691 4666 
z
" transform="scale(0.015625)"/>
        <path id="DejaVuSans-30" d="M 2034 4250 
Q 1547 4250 1301 3770 
Q 1056 3291 1056 2328 
Q 1056 1369 1301 889 
Q 1547 409 2034 409 
Q 2525 409 2770 889 
Q 3016 1369 3016 2328 
Q 3016 3291 2770 3770 
Q 2525 4250 2034 4250 
z
M 2034 4750 
Q 2819 4750 3233 4129 
Q 3647 3509 3647 2328 
Q 3647 1150 3233 529 
Q 2819 -91 2034 -91 
Q 1250 -91 836 529 
Q 422 1150 422 2328 
Q 422 3509 836 4129 
Q 1250 4750 2034 4750 
z
" transform="scale(0.015625)"/>
       </defs>
       <use xlink:href="#DejaVuSans-32" transform="translate(0 0.78125)"/>
       <use xlink:href="#DejaVuSans-35" transform="translate(63.623047 0.78125)"/>
       <use xlink:href="#DejaVuSans-30" transform="translate(127.246094 0.78125)"/>
      </g>
     </g>
    </g>
    <g id="xtick_2">
     <g id="line2d_2">
      <g>
       <use xlink:href="#mdad61ac28f" x="125.28" y="192.24" style="stroke: #000000; stroke-width: 0.8"/>
      </g>
     </g>
     <g id="text_2">
      <!-- $\mathdefault{500}$ -->
      <g transform="translate(113.82 208.358125) scale(0.12 -0.12)">
       <use xlink:href="#DejaVuSans-35" transform="translate(0 0.78125)"/>
       <use xlink:href="#DejaVuSans-30" transform="translate(63.623047 0.78125)"/>
       <use xlink:href="#DejaVuSans-30" transform="translate(127.246094 0.78125)"/>
      </g>
     </g>
    </g>
    <g id="xtick_3">
     <g id="line2d_3">
      <g>
       <use xlink:href="#mdad61ac28f" x="174.88" y="192.24" style="stroke: #000000; stroke-width: 0.8"/>
      </g>
     </g>
     <g id="text_3">
      <!-- $\mathdefault{750}$ -->
      <g transform="translate(163.42 208.358125) scale(0.12 -0.12)">
       <defs>
        <path id="DejaVuSans-37" d="M 525 4666 
L 3525 4666 
L 3525 4397 
L 1831 0 
L 1172 0 
L 2766 4134 
L 525 4134 
L 525 4666 
z
" transform="scale(0.015625)"/>
       </defs>
       <use xlink:href="#DejaVuSans-37" transform="translate(0 0.78125)"/>
       <use xlink:href="#DejaVuSans-35" transform="translate(63.623047 0.78125)"/>
       <use xlink:href="#DejaVuSans-30" transform="translate(127.246094 0.78125)"/>
      </g>
     </g>
    </g>
    <g id="text_4">
     <!-- Diploid N$_e$0 -->
     <g transform="translate(80 227.01375) scale(0.16 -0.16)">
      <defs>
       <path id="DejaVuSans-44" d="M 1259 4147 
L 1259 519 
L 2022 519 
Q 2988 519 3436 956 
Q 3884 1394 3884 2338 
Q 3884 3275 3436 3711 
Q 2988 4147 2022 4147 
L 1259 4147 
z
M 628 4666 
L 1925 4666 
Q 3281 4666 3915 4102 
Q 4550 3538 4550 2338 
Q 4550 1131 3912 565 
Q 3275 0 1925 0 
L 628 0 
L 628 4666 
z
" transform="scale(0.015625)"/>
       <path id="DejaVuSans-69" d="M 603 3500 
L 1178 3500 
L 1178 0 
L 603 0 
L 603 3500 
z
M 603 4863 
L 1178 4863 
L 1178 4134 
L 603 4134 
L 603 4863 
z
" transform="scale(0.015625)"/>
       <path id="DejaVuSans-70" d="M 1159 525 
L 1159 -1331 
L 581 -1331 
L 581 3500 
L 1159 3500 
L 1159 2969 
Q 1341 3281 1617 3432 
Q 1894 3584 2278 3584 
Q 2916 3584 3314 3078 
Q 3713 2572 3713 1747 
Q 3713 922 3314 415 
Q 2916 -91 2278 -91 
Q 1894 -91 1617 61 
Q 1341 213 1159 525 
z
M 3116 1747 
Q 3116 2381 2855 2742 
Q 2594 3103 2138 3103 
Q 1681 3103 1420 2742 
Q 1159 2381 1159 1747 
Q 1159 1113 1420 752 
Q 1681 391 2138 391 
Q 2594 391 2855 752 
Q 3116 1113 3116 1747 
z
" transform="scale(0.015625)"/>
       <path id="DejaVuSans-6c" d="M 603 4863 
L 1178 4863 
L 1178 0 
L 603 0 
L 603 4863 
z
" transform="scale(0.015625)"/>
       <path id="DejaVuSans-6f" d="M 1959 3097 
Q 1497 3097 1228 2736 
Q 959 2375 959 1747 
Q 959 1119 1226 758 
Q 1494 397 1959 397 
Q 2419 397 2687 759 
Q 2956 1122 2956 1747 
Q 2956 2369 2687 2733 
Q 2419 3097 1959 3097 
z
M 1959 3584 
Q 2709 3584 3137 3096 
Q 3566 2609 3566 1747 
Q 3566 888 3137 398 
Q 2709 -91 1959 -91 
Q 1206 -91 779 398 
Q 353 888 353 1747 
Q 353 2609 779 3096 
Q 1206 3584 1959 3584 
z
" transform="scale(0.015625)"/>
       <path id="DejaVuSans-64" d="M 2906 2969 
L 2906 4863 
L 3481 4863 
L 3481 0 
L 2906 0 
L 2906 525 
Q 2725 213 2448 61 
Q 2172 -91 1784 -91 
Q 1150 -91 751 415 
Q 353 922 353 1747 
Q 353 2572 751 3078 
Q 1150 3584 1784 3584 
Q 2172 3584 2448 3432 
Q 2725 3281 2906 2969 
z
M 947 1747 
Q 947 1113 1208 752 
Q 1469 391 1925 391 
Q 2381 391 2643 752 
Q 2906 1113 2906 1747 
Q 2906 2381 2643 2742 
Q 2381 3103 1925 3103 
Q 1469 3103 1208 2742 
Q 947 2381 947 1747 
z
" transform="scale(0.015625)"/>
       <path id="DejaVuSans-20" transform="scale(0.015625)"/>
       <path id="DejaVuSans-4e" d="M 628 4666 
L 1478 4666 
L 3547 763 
L 3547 4666 
L 4159 4666 
L 4159 0 
L 3309 0 
L 1241 3903 
L 1241 0 
L 628 0 
L 628 4666 
z
" transform="scale(0.015625)"/>
       <path id="DejaVuSans-Oblique-65" d="M 3078 2063 
Q 3088 2113 3092 2166 
Q 3097 2219 3097 2272 
Q 3097 2653 2873 2875 
Q 2650 3097 2266 3097 
Q 1838 3097 1509 2826 
Q 1181 2556 1013 2059 
L 3078 2063 
z
M 3578 1613 
L 903 1613 
Q 884 1494 878 1425 
Q 872 1356 872 1306 
Q 872 872 1139 634 
Q 1406 397 1894 397 
Q 2269 397 2603 481 
Q 2938 566 3225 728 
L 3116 159 
Q 2806 34 2476 -28 
Q 2147 -91 1806 -91 
Q 1078 -91 686 257 
Q 294 606 294 1247 
Q 294 1794 489 2264 
Q 684 2734 1063 3103 
Q 1306 3334 1642 3459 
Q 1978 3584 2356 3584 
Q 2950 3584 3301 3228 
Q 3653 2872 3653 2272 
Q 3653 2128 3634 1964 
Q 3616 1800 3578 1613 
z
" transform="scale(0.015625)"/>
      </defs>
      <use xlink:href="#DejaVuSans-44" transform="translate(0 0.015625)"/>
      <use xlink:href="#DejaVuSans-69" transform="translate(77.001953 0.015625)"/>
      <use xlink:href="#DejaVuSans-70" transform="translate(104.785156 0.015625)"/>
      <use xlink:href="#DejaVuSans-6c" transform="translate(168.261719 0.015625)"/>
      <use xlink:href="#DejaVuSans-6f" transform="translate(196.044922 0.015625)"/>
      <use xlink:href="#DejaVuSans-69" transform="translate(257.226562 0.015625)"/>
      <use xlink:href="#DejaVuSans-64" transform="translate(285.009766 0.015625)"/>
      <use xlink:href="#DejaVuSans-20" transform="translate(348.486328 0.015625)"/>
      <use xlink:href="#DejaVuSans-4e" transform="translate(380.273438 0.015625)"/>
      <use xlink:href="#DejaVuSans-Oblique-65" transform="translate(456.035156 -16.390625) scale(0.7)"/>
      <use xlink:href="#DejaVuSans-30" transform="translate(501.835938 0.015625)"/>
     </g>
    </g>
    <g id="text_5">
     <!-- $\times\mathdefault{10^{3}}\mathdefault{}$ -->
     <g transform="translate(188.56 221.452188) scale(0.1 -0.1)">
      <defs>
       <path id="DejaVuSans-d7" d="M 4488 3438 
L 3059 2003 
L 4488 575 
L 4116 197 
L 2681 1631 
L 1247 197 
L 878 575 
L 2303 2003 
L 878 3438 
L 1247 3816 
L 2681 2381 
L 4116 3816 
L 4488 3438 
z
" transform="scale(0.015625)"/>
       <path id="DejaVuSans-31" d="M 794 531 
L 1825 531 
L 1825 4091 
L 703 3866 
L 703 4441 
L 1819 4666 
L 2450 4666 
L 2450 531 
L 3481 531 
L 3481 0 
L 794 0 
L 794 531 
z
" transform="scale(0.015625)"/>
       <path id="DejaVuSans-33" d="M 2597 2516 
Q 3050 2419 3304 2112 
Q 3559 1806 3559 1356 
Q 3559 666 3084 287 
Q 2609 -91 1734 -91 
Q 1441 -91 1130 -33 
Q 819 25 488 141 
L 488 750 
Q 750 597 1062 519 
Q 1375 441 1716 441 
Q 2309 441 2620 675 
Q 2931 909 2931 1356 
Q 2931 1769 2642 2001 
Q 2353 2234 1838 2234 
L 1294 2234 
L 1294 2753 
L 1863 2753 
Q 2328 2753 2575 2939 
Q 2822 3125 2822 3475 
Q 2822 3834 2567 4026 
Q 2313 4219 1838 4219 
Q 1578 4219 1281 4162 
Q 984 4106 628 3988 
L 628 4550 
Q 988 4650 1302 4700 
Q 1616 4750 1894 4750 
Q 2613 4750 3031 4423 
Q 3450 4097 3450 3541 
Q 3450 3153 3228 2886 
Q 3006 2619 2597 2516 
z
" transform="scale(0.015625)"/>
      </defs>
      <use xlink:href="#DejaVuSans-d7" transform="translate(0 0.765625)"/>
      <use xlink:href="#DejaVuSans-31" transform="translate(83.789062 0.765625)"/>
      <use xlink:href="#DejaVuSans-30" transform="translate(147.412109 0.765625)"/>
      <use xlink:href="#DejaVuSans-33" transform="translate(211.992188 39.046875) scale(0.7)"/>
     </g>
    </g>
   </g>
   <g id="matplotlib.axis_2">
    <g id="ytick_1">
     <g id="line2d_4">
      <defs>
       <path id="ma8b1b5c935" d="M 0 0 
L -3.5 0 
" style="stroke: #000000; stroke-width: 0.8"/>
      </defs>
      <g>
       <use xlink:href="#ma8b1b5c935" x="36" y="155.28" style="stroke: #000000; stroke-width: 0.8"/>
      </g>
     </g>
     <g id="text_6">
      <!-- $\mathdefault{250}$ -->
      <g transform="translate(6.08 159.839063) scale(0.12 -0.12)">
       <use xlink:href="#DejaVuSans-32" transform="translate(0 0.78125)"/>
       <use xlink:href="#DejaVuSans-35" transform="translate(63.623047 0.78125)"/>
       <use xlink:href="#DejaVuSans-30" transform="translate(127.246094 0.78125)"/>
      </g>
     </g>
    </g>
    <g id="ytick_2">
     <g id="line2d_5">
      <g>
       <use xlink:href="#ma8b1b5c935" x="36" y="109.08" style="stroke: #000000; stroke-width: 0.8"/>
      </g>
     </g>
     <g id="text_7">
      <!-- $\mathdefault{500}$ -->
      <g transform="translate(6.08 113.639062) scale(0.12 -0.12)">
       <use xlink:href="#DejaVuSans-35" transform="translate(0 0.78125)"/>
       <use xlink:href="#DejaVuSans-30" transform="translate(63.623047 0.78125)"/>
       <use xlink:href="#DejaVuSans-30" transform="translate(127.246094 0.78125)"/>
      </g>
     </g>
    </g>
    <g id="ytick_3">
     <g id="line2d_6">
      <g>
       <use xlink:href="#ma8b1b5c935" x="36" y="62.88" style="stroke: #000000; stroke-width: 0.8"/>
      </g>
     </g>
     <g id="text_8">
      <!-- $\mathdefault{750}$ -->
      <g transform="translate(6.08 67.439062) scale(0.12 -0.12)">
       <use xlink:href="#DejaVuSans-37" transform="translate(0 0.78125)"/>
       <use xlink:href="#DejaVuSans-35" transform="translate(63.623047 0.78125)"/>
       <use xlink:href="#DejaVuSans-30" transform="translate(127.246094 0.78125)"/>
      </g>
     </g>
    </g>
    <g id="text_9">
     <!-- Diploid N$_e$2 -->
     <g transform="translate(-1.28 154.36) rotate(-90) scale(0.16 -0.16)">
      <use xlink:href="#DejaVuSans-44" transform="translate(0 0.015625)"/>
      <use xlink:href="#DejaVuSans-69" transform="translate(77.001953 0.015625)"/>
      <use xlink:href="#DejaVuSans-70" transform="translate(104.785156 0.015625)"/>
      <use xlink:href="#DejaVuSans-6c" transform="translate(168.261719 0.015625)"/>
      <use xlink:href="#DejaVuSans-6f" transform="translate(196.044922 0.015625)"/>
      <use xlink:href="#DejaVuSans-69" transform="translate(257.226562 0.015625)"/>
      <use xlink:href="#DejaVuSans-64" transform="translate(285.009766 0.015625)"/>
      <use xlink:href="#DejaVuSans-20" transform="translate(348.486328 0.015625)"/>
      <use xlink:href="#DejaVuSans-4e" transform="translate(380.273438 0.015625)"/>
      <use xlink:href="#DejaVuSans-Oblique-65" transform="translate(456.035156 -16.390625) scale(0.7)"/>
      <use xlink:href="#DejaVuSans-32" transform="translate(501.835938 0.015625)"/>
     </g>
    </g>
    <g id="text_10">
     <!-- $\times\mathdefault{10^{3}}\mathdefault{}$ -->
     <g transform="translate(36 22.92) scale(0.1 -0.1)">
      <use xlink:href="#DejaVuSans-d7" transform="translate(0 0.765625)"/>
      <use xlink:href="#DejaVuSans-31" transform="translate(83.789062 0.765625)"/>
      <use xlink:href="#DejaVuSans-30" transform="translate(147.412109 0.765625)"/>
      <use xlink:href="#DejaVuSans-33" transform="translate(211.992188 39.046875) scale(0.7)"/>
     </g>
    </g>
   </g>
   <g id="patch_3">
    <path d="M 36 192.24 
L 36 25.92 
" style="fill: none; stroke: #000000; stroke-width: 0.8; stroke-linejoin: miter; stroke-linecap: square"/>
   </g>
   <g id="patch_4">
    <path d="M 214.56 192.24 
L 214.56 25.92 
" style="fill: none; stroke: #000000; stroke-width: 0.8; stroke-linejoin: miter; stroke-linecap: square"/>
   </g>
   <g id="patch_5">
    <path d="M 36 192.24 
L 214.56 192.24 
" style="fill: none; stroke: #000000; stroke-width: 0.8; stroke-linejoin: miter; stroke-linecap: square"/>
   </g>
   <g id="patch_6">
    <path d="M 36 25.92 
L 214.56 25.92 
" style="fill: none; stroke: #000000; stroke-width: 0.8; stroke-linejoin: miter; stroke-linecap: square"/>
   </g>
   <g id="text_11">
    <!-- Ne0Ne2-MSC-T-P2-S4 -->
    <g transform="translate(40.66375 10.92) scale(0.16 -0.16)">
     <defs>
      <path id="DejaVuSans-65" d="M 3597 1894 
L 3597 1613 
L 953 1613 
Q 991 1019 1311 708 
Q 1631 397 2203 397 
Q 2534 397 2845 478 
Q 3156 559 3463 722 
L 3463 178 
Q 3153 47 2828 -22 
Q 2503 -91 2169 -91 
Q 1331 -91 842 396 
Q 353 884 353 1716 
Q 353 2575 817 3079 
Q 1281 3584 2069 3584 
Q 2775 3584 3186 3129 
Q 3597 2675 3597 1894 
z
M 3022 2063 
Q 3016 2534 2758 2815 
Q 2500 3097 2075 3097 
Q 1594 3097 1305 2825 
Q 1016 2553 972 2059 
L 3022 2063 
z
" transform="scale(0.015625)"/>
      <path id="DejaVuSans-2d" d="M 313 2009 
L 1997 2009 
L 1997 1497 
L 313 1497 
L 313 2009 
z
" transform="scale(0.015625)"/>
      <path id="DejaVuSans-4d" d="M 628 4666 
L 1569 4666 
L 2759 1491 
L 3956 4666 
L 4897 4666 
L 4897 0 
L 4281 0 
L 4281 4097 
L 3078 897 
L 2444 897 
L 1241 4097 
L 1241 0 
L 628 0 
L 628 4666 
z
" transform="scale(0.015625)"/>
      <path id="DejaVuSans-53" d="M 3425 4513 
L 3425 3897 
Q 3066 4069 2747 4153 
Q 2428 4238 2131 4238 
Q 1616 4238 1336 4038 
Q 1056 3838 1056 3469 
Q 1056 3159 1242 3001 
Q 1428 2844 1947 2747 
L 2328 2669 
Q 3034 2534 3370 2195 
Q 3706 1856 3706 1288 
Q 3706 609 3251 259 
Q 2797 -91 1919 -91 
Q 1588 -91 1214 -16 
Q 841 59 441 206 
L 441 856 
Q 825 641 1194 531 
Q 1563 422 1919 422 
Q 2459 422 2753 634 
Q 3047 847 3047 1241 
Q 3047 1584 2836 1778 
Q 2625 1972 2144 2069 
L 1759 2144 
Q 1053 2284 737 2584 
Q 422 2884 422 3419 
Q 422 4038 858 4394 
Q 1294 4750 2059 4750 
Q 2388 4750 2728 4690 
Q 3069 4631 3425 4513 
z
" transform="scale(0.015625)"/>
      <path id="DejaVuSans-43" d="M 4122 4306 
L 4122 3641 
Q 3803 3938 3442 4084 
Q 3081 4231 2675 4231 
Q 1875 4231 1450 3742 
Q 1025 3253 1025 2328 
Q 1025 1406 1450 917 
Q 1875 428 2675 428 
Q 3081 428 3442 575 
Q 3803 722 4122 1019 
L 4122 359 
Q 3791 134 3420 21 
Q 3050 -91 2638 -91 
Q 1578 -91 968 557 
Q 359 1206 359 2328 
Q 359 3453 968 4101 
Q 1578 4750 2638 4750 
Q 3056 4750 3426 4639 
Q 3797 4528 4122 4306 
z
" transform="scale(0.015625)"/>
      <path id="DejaVuSans-54" d="M -19 4666 
L 3928 4666 
L 3928 4134 
L 2272 4134 
L 2272 0 
L 1638 0 
L 1638 4134 
L -19 4134 
L -19 4666 
z
" transform="scale(0.015625)"/>
      <path id="DejaVuSans-50" d="M 1259 4147 
L 1259 2394 
L 2053 2394 
Q 2494 2394 2734 2622 
Q 2975 2850 2975 3272 
Q 2975 3691 2734 3919 
Q 2494 4147 2053 4147 
L 1259 4147 
z
M 628 4666 
L 2053 4666 
Q 2838 4666 3239 4311 
Q 3641 3956 3641 3272 
Q 3641 2581 3239 2228 
Q 2838 1875 2053 1875 
L 1259 1875 
L 1259 0 
L 628 0 
L 628 4666 
z
" transform="scale(0.015625)"/>
      <path id="DejaVuSans-34" d="M 2419 4116 
L 825 1625 
L 2419 1625 
L 2419 4116 
z
M 2253 4666 
L 3047 4666 
L 3047 1625 
L 3713 1625 
L 3713 1100 
L 3047 1100 
L 3047 0 
L 2419 0 
L 2419 1100 
L 313 1100 
L 313 1709 
L 2253 4666 
z
" transform="scale(0.015625)"/>
     </defs>
     <use xlink:href="#DejaVuSans-4e"/>
     <use xlink:href="#DejaVuSans-65" x="74.804688"/>
     <use xlink:href="#DejaVuSans-30" x="136.328125"/>
     <use xlink:href="#DejaVuSans-4e" x="199.951172"/>
     <use xlink:href="#DejaVuSans-65" x="274.755859"/>
     <use xlink:href="#DejaVuSans-32" x="336.279297"/>
     <use xlink:href="#DejaVuSans-2d" x="399.902344"/>
     <use xlink:href="#DejaVuSans-4d" x="435.986328"/>
     <use xlink:href="#DejaVuSans-53" x="522.265625"/>
     <use xlink:href="#DejaVuSans-43" x="585.742188"/>
     <use xlink:href="#DejaVuSans-2d" x="655.566406"/>
     <use xlink:href="#DejaVuSans-54" x="682.525391"/>
     <use xlink:href="#DejaVuSans-2d" x="734.484375"/>
     <use xlink:href="#DejaVuSans-50" x="770.568359"/>
     <use xlink:href="#DejaVuSans-32" x="830.871094"/>
     <use xlink:href="#DejaVuSans-2d" x="894.494141"/>
     <use xlink:href="#DejaVuSans-53" x="930.578125"/>
     <use xlink:href="#DejaVuSans-34" x="994.054688"/>
    </g>
   </g>
  </g>
  <g id="axes_2">
   <g id="patch_7">
    <path d="M 225.72 192.24 
L 234.036 192.24 
L 234.036 25.92 
L 225.72 25.92 
z
" style="fill: #ffffff"/>
   </g>
   <g id="QuadMesh_1">
    <path d="M 225.72 192.24 
L 234.036 192.24 
L 234.036 185.31 
L 225.72 185.31 
L 225.72 192.24 
" clip-path="url(#p499484fe67)" style="fill: #440154"/>
    <path d="M 225.72 185.31 
L 234.036 185.31 
L 234.036 178.38 
L 225.72 178.38 
L 225.72 185.31 
" clip-path="url(#p499484fe67)" style="fill: #440154"/>
    <path d="M 225.72 178.38 
L 234.036 178.38 
L 234.036 171.45 
L 225.72 171.45 
L 225.72 178.38 
" clip-path="url(#p499484fe67)" style="fill: #440154"/>
    <path d="M 225.72 171.45 
L 234.036 171.45 
L 234.036 164.52 
L 225.72 164.52 
L 225.72 171.45 
" clip-path="url(#p499484fe67)" style="fill: #440154"/>
    <path d="M 225.72 164.52 
L 234.036 164.52 
L 234.036 157.59 
L 225.72 157.59 
L 225.72 164.52 
" clip-path="url(#p499484fe67)" style="fill: #440154"/>
    <path d="M 225.72 157.59 
L 234.036 157.59 
L 234.036 150.66 
L 225.72 150.66 
L 225.72 157.59 
" clip-path="url(#p499484fe67)" style="fill: #440154"/>
    <path d="M 225.72 150.66 
L 234.036 150.66 
L 234.036 143.73 
L 225.72 143.73 
L 225.72 150.66 
" clip-path="url(#p499484fe67)" style="fill: #440154"/>
    <path d="M 225.72 143.73 
L 234.036 143.73 
L 234.036 136.8 
L 225.72 136.8 
L 225.72 143.73 
" clip-path="url(#p499484fe67)" style="fill: #440154"/>
    <path d="M 225.72 136.8 
L 234.036 136.8 
L 234.036 129.87 
L 225.72 129.87 
L 225.72 136.8 
" clip-path="url(#p499484fe67)" style="fill: #440154"/>
    <path d="M 225.72 129.87 
L 234.036 129.87 
L 234.036 122.94 
L 225.72 122.94 
L 225.72 129.87 
" clip-path="url(#p499484fe67)" style="fill: #440154"/>
    <path d="M 225.72 122.94 
L 234.036 122.94 
L 234.036 116.01 
L 225.72 116.01 
L 225.72 122.94 
" clip-path="url(#p499484fe67)" style="fill: #440154"/>
    <path d="M 225.72 116.01 
L 234.036 116.01 
L 234.036 109.08 
L 225.72 109.08 
L 225.72 116.01 
" clip-path="url(#p499484fe67)" style="fill: #440154"/>
    <path d="M 225.72 109.08 
L 234.036 109.08 
L 234.036 102.15 
L 225.72 102.15 
L 225.72 109.08 
" clip-path="url(#p499484fe67)" style="fill: #481a6c"/>
    <path d="M 225.72 102.15 
L 234.036 102.15 
L 234.036 95.22 
L 225.72 95.22 
L 225.72 102.15 
" clip-path="url(#p499484fe67)" style="fill: #463480"/>
    <path d="M 225.72 95.22 
L 234.036 95.22 
L 234.036 88.29 
L 225.72 88.29 
L 225.72 95.22 
" clip-path="url(#p499484fe67)" style="fill: #3d4d8a"/>
    <path d="M 225.72 88.29 
L 234.036 88.29 
L 234.036 81.36 
L 225.72 81.36 
L 225.72 88.29 
" clip-path="url(#p499484fe67)" style="fill: #33628d"/>
    <path d="M 225.72 81.36 
L 234.036 81.36 
L 234.036 74.43 
L 225.72 74.43 
L 225.72 81.36 
" clip-path="url(#p499484fe67)" style="fill: #2a768e"/>
    <path d="M 225.72 74.43 
L 234.036 74.43 
L 234.036 67.5 
L 225.72 67.5 
L 225.72 74.43 
" clip-path="url(#p499484fe67)" style="fill: #238a8d"/>
    <path d="M 225.72 67.5 
L 234.036 67.5 
L 234.036 60.57 
L 225.72 60.57 
L 225.72 67.5 
" clip-path="url(#p499484fe67)" style="fill: #1e9d89"/>
    <path d="M 225.72 60.57 
L 234.036 60.57 
L 234.036 53.64 
L 225.72 53.64 
L 225.72 60.57 
" clip-path="url(#p499484fe67)" style="fill: #2ab07f"/>
    <path d="M 225.72 53.64 
L 234.036 53.64 
L 234.036 46.71 
L 225.72 46.71 
L 225.72 53.64 
" clip-path="url(#p499484fe67)" style="fill: #4cc26c"/>
    <path d="M 225.72 46.71 
L 234.036 46.71 
L 234.036 39.78 
L 225.72 39.78 
L 225.72 46.71 
" clip-path="url(#p499484fe67)" style="fill: #7ad151"/>
    <path d="M 225.72 39.78 
L 234.036 39.78 
L 234.036 32.85 
L 225.72 32.85 
L 225.72 39.78 
" clip-path="url(#p499484fe67)" style="fill: #addc30"/>
    <path d="M 225.72 32.85 
L 234.036 32.85 
L 234.036 25.92 
L 225.72 25.92 
L 225.72 32.85 
" clip-path="url(#p499484fe67)" style="fill: #e5e419"/>
   </g>
   <g id="matplotlib.axis_3"/>
   <g id="matplotlib.axis_4">
    <g id="ytick_4">
     <g id="line2d_7">
      <defs>
       <path id="m3c6a4aebcc" d="M 0 0 
L 3.5 0 
" style="stroke: #000000; stroke-width: 0.8"/>
      </defs>
      <g>
       <use xlink:href="#m3c6a4aebcc" x="234.036" y="192.24" style="stroke: #000000; stroke-width: 0.8"/>
      </g>
     </g>
     <g id="text_12">
      <!-- $\mathdefault{2130}$ -->
      <g transform="translate(241.036 196.039219) scale(0.1 -0.1)">
       <defs>
        <path id="DejaVuSans-2212" d="M 678 2272 
L 4684 2272 
L 4684 1741 
L 678 1741 
L 678 2272 
z
" transform="scale(0.015625)"/>
       </defs>
       <use xlink:href="#DejaVuSans-2212" transform="translate(0 0.78125)"/>
       <use xlink:href="#DejaVuSans-32" transform="translate(83.789062 0.78125)"/>
       <use xlink:href="#DejaVuSans-31" transform="translate(147.412109 0.78125)"/>
       <use xlink:href="#DejaVuSans-33" transform="translate(211.035156 0.78125)"/>
       <use xlink:href="#DejaVuSans-30" transform="translate(274.658203 0.78125)"/>
      </g>
     </g>
    </g>
    <g id="ytick_5">
     <g id="line2d_8">
      <g>
       <use xlink:href="#m3c6a4aebcc" x="234.036" y="171.45" style="stroke: #000000; stroke-width: 0.8"/>
      </g>
     </g>
     <g id="text_13">
      <!-- $\mathdefault{2085}$ -->
      <g transform="translate(241.036 175.249219) scale(0.1 -0.1)">
       <defs>
        <path id="DejaVuSans-38" d="M 2034 2216 
Q 1584 2216 1326 1975 
Q 1069 1734 1069 1313 
Q 1069 891 1326 650 
Q 1584 409 2034 409 
Q 2484 409 2743 651 
Q 3003 894 3003 1313 
Q 3003 1734 2745 1975 
Q 2488 2216 2034 2216 
z
M 1403 2484 
Q 997 2584 770 2862 
Q 544 3141 544 3541 
Q 544 4100 942 4425 
Q 1341 4750 2034 4750 
Q 2731 4750 3128 4425 
Q 3525 4100 3525 3541 
Q 3525 3141 3298 2862 
Q 3072 2584 2669 2484 
Q 3125 2378 3379 2068 
Q 3634 1759 3634 1313 
Q 3634 634 3220 271 
Q 2806 -91 2034 -91 
Q 1263 -91 848 271 
Q 434 634 434 1313 
Q 434 1759 690 2068 
Q 947 2378 1403 2484 
z
M 1172 3481 
Q 1172 3119 1398 2916 
Q 1625 2713 2034 2713 
Q 2441 2713 2670 2916 
Q 2900 3119 2900 3481 
Q 2900 3844 2670 4047 
Q 2441 4250 2034 4250 
Q 1625 4250 1398 4047 
Q 1172 3844 1172 3481 
z
" transform="scale(0.015625)"/>
       </defs>
       <use xlink:href="#DejaVuSans-2212" transform="translate(0 0.78125)"/>
       <use xlink:href="#DejaVuSans-32" transform="translate(83.789062 0.78125)"/>
       <use xlink:href="#DejaVuSans-30" transform="translate(147.412109 0.78125)"/>
       <use xlink:href="#DejaVuSans-38" transform="translate(211.035156 0.78125)"/>
       <use xlink:href="#DejaVuSans-35" transform="translate(274.658203 0.78125)"/>
      </g>
     </g>
    </g>
    <g id="ytick_6">
     <g id="line2d_9">
      <g>
       <use xlink:href="#m3c6a4aebcc" x="234.036" y="150.66" style="stroke: #000000; stroke-width: 0.8"/>
      </g>
     </g>
     <g id="text_14">
      <!-- $\mathdefault{2040}$ -->
      <g transform="translate(241.036 154.459219) scale(0.1 -0.1)">
       <use xlink:href="#DejaVuSans-2212" transform="translate(0 0.78125)"/>
       <use xlink:href="#DejaVuSans-32" transform="translate(83.789062 0.78125)"/>
       <use xlink:href="#DejaVuSans-30" transform="translate(147.412109 0.78125)"/>
       <use xlink:href="#DejaVuSans-34" transform="translate(211.035156 0.78125)"/>
       <use xlink:href="#DejaVuSans-30" transform="translate(274.658203 0.78125)"/>
      </g>
     </g>
    </g>
    <g id="ytick_7">
     <g id="line2d_10">
      <g>
       <use xlink:href="#m3c6a4aebcc" x="234.036" y="129.87" style="stroke: #000000; stroke-width: 0.8"/>
      </g>
     </g>
     <g id="text_15">
      <!-- $\mathdefault{1995}$ -->
      <g transform="translate(241.036 133.669219) scale(0.1 -0.1)">
       <defs>
        <path id="DejaVuSans-39" d="M 703 97 
L 703 672 
Q 941 559 1184 500 
Q 1428 441 1663 441 
Q 2288 441 2617 861 
Q 2947 1281 2994 2138 
Q 2813 1869 2534 1725 
Q 2256 1581 1919 1581 
Q 1219 1581 811 2004 
Q 403 2428 403 3163 
Q 403 3881 828 4315 
Q 1253 4750 1959 4750 
Q 2769 4750 3195 4129 
Q 3622 3509 3622 2328 
Q 3622 1225 3098 567 
Q 2575 -91 1691 -91 
Q 1453 -91 1209 -44 
Q 966 3 703 97 
z
M 1959 2075 
Q 2384 2075 2632 2365 
Q 2881 2656 2881 3163 
Q 2881 3666 2632 3958 
Q 2384 4250 1959 4250 
Q 1534 4250 1286 3958 
Q 1038 3666 1038 3163 
Q 1038 2656 1286 2365 
Q 1534 2075 1959 2075 
z
" transform="scale(0.015625)"/>
       </defs>
       <use xlink:href="#DejaVuSans-2212" transform="translate(0 0.78125)"/>
       <use xlink:href="#DejaVuSans-31" transform="translate(83.789062 0.78125)"/>
       <use xlink:href="#DejaVuSans-39" transform="translate(147.412109 0.78125)"/>
       <use xlink:href="#DejaVuSans-39" transform="translate(211.035156 0.78125)"/>
       <use xlink:href="#DejaVuSans-35" transform="translate(274.658203 0.78125)"/>
      </g>
     </g>
    </g>
    <g id="ytick_8">
     <g id="line2d_11">
      <g>
       <use xlink:href="#m3c6a4aebcc" x="234.036" y="109.08" style="stroke: #000000; stroke-width: 0.8"/>
      </g>
     </g>
     <g id="text_16">
      <!-- $\mathdefault{1950}$ -->
      <g transform="translate(241.036 112.879219) scale(0.1 -0.1)">
       <use xlink:href="#DejaVuSans-2212" transform="translate(0 0.78125)"/>
       <use xlink:href="#DejaVuSans-31" transform="translate(83.789062 0.78125)"/>
       <use xlink:href="#DejaVuSans-39" transform="translate(147.412109 0.78125)"/>
       <use xlink:href="#DejaVuSans-35" transform="translate(211.035156 0.78125)"/>
       <use xlink:href="#DejaVuSans-30" transform="translate(274.658203 0.78125)"/>
      </g>
     </g>
    </g>
    <g id="ytick_9">
     <g id="line2d_12">
      <g>
       <use xlink:href="#m3c6a4aebcc" x="234.036" y="88.29" style="stroke: #000000; stroke-width: 0.8"/>
      </g>
     </g>
     <g id="text_17">
      <!-- $\mathdefault{1905}$ -->
      <g transform="translate(241.036 92.089219) scale(0.1 -0.1)">
       <use xlink:href="#DejaVuSans-2212" transform="translate(0 0.78125)"/>
       <use xlink:href="#DejaVuSans-31" transform="translate(83.789062 0.78125)"/>
       <use xlink:href="#DejaVuSans-39" transform="translate(147.412109 0.78125)"/>
       <use xlink:href="#DejaVuSans-30" transform="translate(211.035156 0.78125)"/>
       <use xlink:href="#DejaVuSans-35" transform="translate(274.658203 0.78125)"/>
      </g>
     </g>
    </g>
    <g id="ytick_10">
     <g id="line2d_13">
      <g>
       <use xlink:href="#m3c6a4aebcc" x="234.036" y="67.5" style="stroke: #000000; stroke-width: 0.8"/>
      </g>
     </g>
     <g id="text_18">
      <!-- $\mathdefault{1860}$ -->
      <g transform="translate(241.036 71.299219) scale(0.1 -0.1)">
       <defs>
        <path id="DejaVuSans-36" d="M 2113 2584 
Q 1688 2584 1439 2293 
Q 1191 2003 1191 1497 
Q 1191 994 1439 701 
Q 1688 409 2113 409 
Q 2538 409 2786 701 
Q 3034 994 3034 1497 
Q 3034 2003 2786 2293 
Q 2538 2584 2113 2584 
z
M 3366 4563 
L 3366 3988 
Q 3128 4100 2886 4159 
Q 2644 4219 2406 4219 
Q 1781 4219 1451 3797 
Q 1122 3375 1075 2522 
Q 1259 2794 1537 2939 
Q 1816 3084 2150 3084 
Q 2853 3084 3261 2657 
Q 3669 2231 3669 1497 
Q 3669 778 3244 343 
Q 2819 -91 2113 -91 
Q 1303 -91 875 529 
Q 447 1150 447 2328 
Q 447 3434 972 4092 
Q 1497 4750 2381 4750 
Q 2619 4750 2861 4703 
Q 3103 4656 3366 4563 
z
" transform="scale(0.015625)"/>
       </defs>
       <use xlink:href="#DejaVuSans-2212" transform="translate(0 0.78125)"/>
       <use xlink:href="#DejaVuSans-31" transform="translate(83.789062 0.78125)"/>
       <use xlink:href="#DejaVuSans-38" transform="translate(147.412109 0.78125)"/>
       <use xlink:href="#DejaVuSans-36" transform="translate(211.035156 0.78125)"/>
       <use xlink:href="#DejaVuSans-30" transform="translate(274.658203 0.78125)"/>
      </g>
     </g>
    </g>
    <g id="ytick_11">
     <g id="line2d_14">
      <g>
       <use xlink:href="#m3c6a4aebcc" x="234.036" y="46.71" style="stroke: #000000; stroke-width: 0.8"/>
      </g>
     </g>
     <g id="text_19">
      <!-- $\mathdefault{1815}$ -->
      <g transform="translate(241.036 50.509219) scale(0.1 -0.1)">
       <use xlink:href="#DejaVuSans-2212" transform="translate(0 0.78125)"/>
       <use xlink:href="#DejaVuSans-31" transform="translate(83.789062 0.78125)"/>
       <use xlink:href="#DejaVuSans-38" transform="translate(147.412109 0.78125)"/>
       <use xlink:href="#DejaVuSans-31" transform="translate(211.035156 0.78125)"/>
       <use xlink:href="#DejaVuSans-35" transform="translate(274.658203 0.78125)"/>
      </g>
     </g>
    </g>
    <g id="ytick_12">
     <g id="line2d_15">
      <g>
       <use xlink:href="#m3c6a4aebcc" x="234.036" y="25.92" style="stroke: #000000; stroke-width: 0.8"/>
      </g>
     </g>
     <g id="text_20">
      <!-- $\mathdefault{1770}$ -->
      <g transform="translate(241.036 29.719219) scale(0.1 -0.1)">
       <use xlink:href="#DejaVuSans-2212" transform="translate(0 0.78125)"/>
       <use xlink:href="#DejaVuSans-31" transform="translate(83.789062 0.78125)"/>
       <use xlink:href="#DejaVuSans-37" transform="translate(147.412109 0.78125)"/>
       <use xlink:href="#DejaVuSans-37" transform="translate(209.285156 0.78125)"/>
       <use xlink:href="#DejaVuSans-30" transform="translate(272.908203 0.78125)"/>
      </g>
     </g>
    </g>
    <g id="text_21">
     <!-- log likelihood -->
     <g transform="translate(288.054125 148.704375) rotate(-90) scale(0.12 -0.12)">
      <defs>
       <path id="DejaVuSans-67" d="M 2906 1791 
Q 2906 2416 2648 2759 
Q 2391 3103 1925 3103 
Q 1463 3103 1205 2759 
Q 947 2416 947 1791 
Q 947 1169 1205 825 
Q 1463 481 1925 481 
Q 2391 481 2648 825 
Q 2906 1169 2906 1791 
z
M 3481 434 
Q 3481 -459 3084 -895 
Q 2688 -1331 1869 -1331 
Q 1566 -1331 1297 -1286 
Q 1028 -1241 775 -1147 
L 775 -588 
Q 1028 -725 1275 -790 
Q 1522 -856 1778 -856 
Q 2344 -856 2625 -561 
Q 2906 -266 2906 331 
L 2906 616 
Q 2728 306 2450 153 
Q 2172 0 1784 0 
Q 1141 0 747 490 
Q 353 981 353 1791 
Q 353 2603 747 3093 
Q 1141 3584 1784 3584 
Q 2172 3584 2450 3431 
Q 2728 3278 2906 2969 
L 2906 3500 
L 3481 3500 
L 3481 434 
z
" transform="scale(0.015625)"/>
       <path id="DejaVuSans-6b" d="M 581 4863 
L 1159 4863 
L 1159 1991 
L 2875 3500 
L 3609 3500 
L 1753 1863 
L 3688 0 
L 2938 0 
L 1159 1709 
L 1159 0 
L 581 0 
L 581 4863 
z
" transform="scale(0.015625)"/>
       <path id="DejaVuSans-68" d="M 3513 2113 
L 3513 0 
L 2938 0 
L 2938 2094 
Q 2938 2591 2744 2837 
Q 2550 3084 2163 3084 
Q 1697 3084 1428 2787 
Q 1159 2491 1159 1978 
L 1159 0 
L 581 0 
L 581 4863 
L 1159 4863 
L 1159 2956 
Q 1366 3272 1645 3428 
Q 1925 3584 2291 3584 
Q 2894 3584 3203 3211 
Q 3513 2838 3513 2113 
z
" transform="scale(0.015625)"/>
      </defs>
      <use xlink:href="#DejaVuSans-6c"/>
      <use xlink:href="#DejaVuSans-6f" x="27.783203"/>
      <use xlink:href="#DejaVuSans-67" x="88.964844"/>
      <use xlink:href="#DejaVuSans-20" x="152.441406"/>
      <use xlink:href="#DejaVuSans-6c" x="184.228516"/>
      <use xlink:href="#DejaVuSans-69" x="212.011719"/>
      <use xlink:href="#DejaVuSans-6b" x="239.794922"/>
      <use xlink:href="#DejaVuSans-65" x="294.080078"/>
      <use xlink:href="#DejaVuSans-6c" x="355.603516"/>
      <use xlink:href="#DejaVuSans-69" x="383.386719"/>
      <use xlink:href="#DejaVuSans-68" x="411.169922"/>
      <use xlink:href="#DejaVuSans-6f" x="474.548828"/>
      <use xlink:href="#DejaVuSans-6f" x="535.730469"/>
      <use xlink:href="#DejaVuSans-64" x="596.912109"/>
     </g>
    </g>
    <g id="text_22">
     <!-- $\times\mathdefault{10^{3}}\mathdefault{}$ -->
     <g transform="translate(208.036 22.92) scale(0.1 -0.1)">
      <use xlink:href="#DejaVuSans-d7" transform="translate(0 0.765625)"/>
      <use xlink:href="#DejaVuSans-31" transform="translate(83.789062 0.765625)"/>
      <use xlink:href="#DejaVuSans-30" transform="translate(147.412109 0.765625)"/>
      <use xlink:href="#DejaVuSans-33" transform="translate(211.992188 39.046875) scale(0.7)"/>
     </g>
    </g>
   </g>
   <g id="LineCollection_1"/>
   <g id="patch_8">
    <path d="M 225.72 192.24 
L 229.878 192.24 
L 234.036 192.24 
L 234.036 25.92 
L 229.878 25.92 
L 225.72 25.92 
L 225.72 192.24 
z
" style="fill: none; stroke: #000000; stroke-width: 0.8; stroke-linejoin: miter; stroke-linecap: square"/>
   </g>
  </g>
 </g>
 <defs>
  <clipPath id="pb96e012a06">
   <rect x="36" y="25.92" width="178.56" height="166.32"/>
  </clipPath>
  <clipPath id="p499484fe67">
   <rect x="225.72" y="25.92" width="8.316" height="166.32"/>
  </clipPath>
 </defs>
</svg>
