<?xml version="1.0" encoding="utf-8" standalone="no"?>
<!DOCTYPE svg PUBLIC "-//W3C//DTD SVG 1.1//EN"
  "http://www.w3.org/Graphics/SVG/1.1/DTD/svg11.dtd">
<svg xmlns:xlink="http://www.w3.org/1999/xlink" width="288pt" height="216pt" viewBox="0 0 288 216" xmlns="http://www.w3.org/2000/svg" version="1.1">
 <metadata>
  <rdf:RDF xmlns:dc="http://purl.org/dc/elements/1.1/" xmlns:cc="http://creativecommons.org/ns#" xmlns:rdf="http://www.w3.org/1999/02/22-rdf-syntax-ns#">
   <cc:Work>
    <dc:type rdf:resource="http://purl.org/dc/dcmitype/StillImage"/>
    <dc:date>2023-07-18T17:52:24.363876</dc:date>
    <dc:format>image/svg+xml</dc:format>
    <dc:creator>
     <cc:Agent>
      <dc:title>Matplotlib v3.7.1, https://matplotlib.org/</dc:title>
     </cc:Agent>
    </dc:creator>
   </cc:Work>
  </rdf:RDF>
 </metadata>
 <defs>
  <style type="text/css">*{stroke-linejoin: round; stroke-linecap: butt}</style>
 </defs>
 <g id="figure_1">
  <g id="patch_1">
   <path d="M 0 216 
L 288 216 
L 288 0 
L 0 0 
z
" style="fill: #ffffff"/>
  </g>
  <g id="axes_1">
   <g id="patch_2">
    <path d="M 36 192.24 
L 214.56 192.24 
L 214.56 25.92 
L 36 25.92 
z
" style="fill: #ffffff"/>
   </g>
   <g id="PathCollection_1">
    <path d="M 36.100058 192.24 
L 36 192.24 
L 36 192.20661 
z
" clip-path="url(#p9e73ebd58d)" style="fill: #440154"/>
   </g>
   <g id="PathCollection_2">
    <path d="M 37.664477 192.24 
L 36.100058 192.24 
L 36 192.20661 
L 36 191.684559 
z
" clip-path="url(#p9e73ebd58d)" style="fill: #440154"/>
   </g>
   <g id="PathCollection_3">
    <path d="M 39.228897 192.24 
L 37.664477 192.24 
L 36 191.684559 
L 36 191.162507 
z
" clip-path="url(#p9e73ebd58d)" style="fill: #440154"/>
   </g>
   <g id="PathCollection_4">
    <path d="M 40.793316 192.24 
L 39.228897 192.24 
L 36 191.162507 
L 36 190.640456 
z
" clip-path="url(#p9e73ebd58d)" style="fill: #440154"/>
   </g>
   <g id="PathCollection_5">
    <path d="M 41.952 192.104605 
L 43.068343 192.24 
L 41.952 192.24 
L 40.793316 192.24 
L 36 190.640456 
L 36 190.118404 
z
" clip-path="url(#p9e73ebd58d)" style="fill: #440154"/>
    <path d="M 196.704 192.23387 
L 202.656 192.1893 
L 208.608 192.14574 
L 214.56 192.103153 
L 214.56 192.24 
L 208.608 192.24 
L 202.656 192.24 
L 196.704 192.24 
L 195.904134 192.24 
z
" clip-path="url(#p9e73ebd58d)" style="fill: #440154"/>
   </g>
   <g id="PathCollection_6">
    <path d="M 41.952 191.582553 
L 47.372691 192.24 
L 43.068343 192.24 
L 41.952 192.104605 
L 36 190.118404 
L 36 189.596352 
z
" clip-path="url(#p9e73ebd58d)" style="fill: #440154"/>
    <path d="M 137.184 192.219994 
L 143.136 192.16378 
L 149.088 192.108757 
L 155.04 192.054957 
L 160.992 192.002387 
L 166.944 191.951041 
L 172.896 191.900901 
L 178.848 191.85194 
L 184.8 191.804128 
L 190.752 191.757433 
L 196.704 191.711818 
L 202.656 191.667249 
L 208.608 191.623688 
L 214.56 191.581101 
L 214.56 192.103153 
L 208.608 192.14574 
L 202.656 192.1893 
L 196.704 192.23387 
L 195.904134 192.24 
L 190.752 192.24 
L 184.8 192.24 
L 178.848 192.24 
L 172.896 192.24 
L 166.944 192.24 
L 160.992 192.24 
L 155.04 192.24 
L 149.088 192.24 
L 143.136 192.24 
L 137.184 192.24 
L 135.107428 192.24 
z
" clip-path="url(#p9e73ebd58d)" style="fill: #440154"/>
   </g>
   <g id="PathCollection_7">
    <path d="M 41.952 191.060501 
L 47.904 191.782388 
L 53.856 192.092724 
L 59.808 192.227745 
L 61.309469 192.24 
L 59.808 192.24 
L 53.856 192.24 
L 47.904 192.24 
L 47.372691 192.24 
L 41.952 191.582553 
L 36 189.596352 
L 36 189.074301 
z
" clip-path="url(#p9e73ebd58d)" style="fill: #440154"/>
    <path d="M 83.616 192.213733 
L 89.568 192.164389 
L 95.52 192.109613 
L 101.472 192.05179 
L 107.424 191.992448 
L 113.376 191.932577 
L 119.328 191.872832 
L 125.28 191.813641 
L 131.232 191.755284 
L 137.184 191.697943 
L 143.136 191.641729 
L 149.088 191.586705 
L 155.04 191.532905 
L 160.992 191.480335 
L 166.944 191.428989 
L 172.896 191.378849 
L 178.848 191.329888 
L 184.8 191.282077 
L 190.752 191.235381 
L 196.704 191.189767 
L 202.656 191.145197 
L 208.608 191.101637 
L 214.56 191.059049 
L 214.56 191.581101 
L 208.608 191.623688 
L 202.656 191.667249 
L 196.704 191.711818 
L 190.752 191.757433 
L 184.8 191.804128 
L 178.848 191.85194 
L 172.896 191.900901 
L 166.944 191.951041 
L 160.992 192.002387 
L 155.04 192.054957 
L 149.088 192.108757 
L 143.136 192.16378 
L 137.184 192.219994 
L 135.107428 192.24 
L 131.232 192.24 
L 125.28 192.24 
L 119.328 192.24 
L 113.376 192.24 
L 107.424 192.24 
L 101.472 192.24 
L 95.52 192.24 
L 89.568 192.24 
L 83.616 192.24 
L 79.716191 192.24 
z
" clip-path="url(#p9e73ebd58d)" style="fill: #440154"/>
   </g>
   <g id="PathCollection_8">
    <path d="M 41.952 190.53845 
L 47.904 191.260336 
L 53.856 191.570673 
L 59.808 191.705693 
L 65.76 191.754274 
L 71.712 191.756281 
L 77.664 191.731771 
L 83.616 191.691681 
L 89.568 191.642338 
L 95.52 191.587562 
L 101.472 191.529739 
L 107.424 191.470396 
L 113.376 191.410526 
L 119.328 191.35078 
L 125.28 191.291589 
L 131.232 191.233232 
L 137.184 191.175891 
L 143.136 191.119677 
L 149.088 191.064654 
L 155.04 191.010853 
L 160.992 190.958284 
L 166.944 190.906938 
L 172.896 190.856797 
L 178.848 190.807837 
L 184.8 190.760025 
L 190.752 190.71333 
L 196.704 190.667715 
L 202.656 190.623146 
L 208.608 190.579585 
L 214.56 190.536998 
L 214.56 191.059049 
L 208.608 191.101637 
L 202.656 191.145197 
L 196.704 191.189767 
L 190.752 191.235381 
L 184.8 191.282077 
L 178.848 191.329888 
L 172.896 191.378849 
L 166.944 191.428989 
L 160.992 191.480335 
L 155.04 191.532905 
L 149.088 191.586705 
L 143.136 191.641729 
L 137.184 191.697943 
L 131.232 191.755284 
L 125.28 191.813641 
L 119.328 191.872832 
L 113.376 191.932577 
L 107.424 191.992448 
L 101.472 192.05179 
L 95.52 192.109613 
L 89.568 192.164389 
L 83.616 192.213733 
L 79.716191 192.24 
L 77.664 192.24 
L 71.712 192.24 
L 65.76 192.24 
L 61.309469 192.24 
L 59.808 192.227745 
L 53.856 192.092724 
L 47.904 191.782388 
L 41.952 191.060501 
L 36 189.074301 
L 36 188.552249 
z
" clip-path="url(#p9e73ebd58d)" style="fill: #440154"/>
   </g>
   <g id="PathCollection_9">
    <path d="M 41.952 190.016398 
L 47.904 190.738285 
L 53.856 191.048621 
L 59.808 191.183642 
L 65.76 191.232223 
L 71.712 191.234229 
L 77.664 191.209719 
L 83.616 191.16963 
L 89.568 191.120286 
L 95.52 191.06551 
L 101.472 191.007687 
L 107.424 190.948344 
L 113.376 190.888474 
L 119.328 190.828729 
L 125.28 190.769537 
L 131.232 190.711181 
L 137.184 190.65384 
L 143.136 190.597625 
L 149.088 190.542602 
L 155.04 190.488802 
L 160.992 190.436232 
L 166.944 190.384886 
L 172.896 190.334746 
L 178.848 190.285785 
L 184.8 190.237974 
L 190.752 190.191278 
L 196.704 190.145664 
L 202.656 190.101094 
L 208.608 190.057534 
L 214.56 190.014946 
L 214.56 190.536998 
L 208.608 190.579585 
L 202.656 190.623146 
L 196.704 190.667715 
L 190.752 190.71333 
L 184.8 190.760025 
L 178.848 190.807837 
L 172.896 190.856797 
L 166.944 190.906938 
L 160.992 190.958284 
L 155.04 191.010853 
L 149.088 191.064654 
L 143.136 191.119677 
L 137.184 191.175891 
L 131.232 191.233232 
L 125.28 191.291589 
L 119.328 191.35078 
L 113.376 191.410526 
L 107.424 191.470396 
L 101.472 191.529739 
L 95.52 191.587562 
L 89.568 191.642338 
L 83.616 191.691681 
L 77.664 191.731771 
L 71.712 191.756281 
L 65.76 191.754274 
L 59.808 191.705693 
L 53.856 191.570673 
L 47.904 191.260336 
L 41.952 190.53845 
L 36 188.552249 
L 36 188.030198 
z
" clip-path="url(#p9e73ebd58d)" style="fill: #440154"/>
   </g>
   <g id="PathCollection_10">
    <path d="M 41.952 189.494347 
L 47.904 190.216233 
L 53.856 190.526569 
L 59.808 190.66159 
L 65.76 190.710171 
L 71.712 190.712178 
L 77.664 190.687668 
L 83.616 190.647578 
L 89.568 190.598235 
L 95.52 190.543458 
L 101.472 190.485636 
L 107.424 190.426293 
L 113.376 190.366423 
L 119.328 190.306677 
L 125.28 190.247486 
L 131.232 190.189129 
L 137.184 190.131788 
L 143.136 190.075574 
L 149.088 190.020551 
L 155.04 189.96675 
L 160.992 189.914181 
L 166.944 189.862835 
L 172.896 189.812694 
L 178.848 189.763733 
L 184.8 189.715922 
L 190.752 189.669227 
L 196.704 189.623612 
L 202.656 189.579043 
L 208.608 189.535482 
L 214.56 189.492895 
L 214.56 190.014946 
L 208.608 190.057534 
L 202.656 190.101094 
L 196.704 190.145664 
L 190.752 190.191278 
L 184.8 190.237974 
L 178.848 190.285785 
L 172.896 190.334746 
L 166.944 190.384886 
L 160.992 190.436232 
L 155.04 190.488802 
L 149.088 190.542602 
L 143.136 190.597625 
L 137.184 190.65384 
L 131.232 190.711181 
L 125.28 190.769537 
L 119.328 190.828729 
L 113.376 190.888474 
L 107.424 190.948344 
L 101.472 191.007687 
L 95.52 191.06551 
L 89.568 191.120286 
L 83.616 191.16963 
L 77.664 191.209719 
L 71.712 191.234229 
L 65.76 191.232223 
L 59.808 191.183642 
L 53.856 191.048621 
L 47.904 190.738285 
L 41.952 190.016398 
L 36 188.030198 
L 36 187.508146 
z
" clip-path="url(#p9e73ebd58d)" style="fill: #440154"/>
   </g>
   <g id="PathCollection_11">
    <path d="M 41.952 188.972295 
L 47.904 189.694182 
L 53.856 190.004518 
L 59.808 190.139538 
L 65.76 190.188119 
L 71.712 190.190126 
L 77.664 190.165616 
L 83.616 190.125527 
L 89.568 190.076183 
L 95.52 190.021407 
L 101.472 189.963584 
L 107.424 189.904241 
L 113.376 189.844371 
L 119.328 189.784626 
L 125.28 189.725434 
L 131.232 189.667078 
L 137.184 189.609736 
L 143.136 189.553522 
L 149.088 189.498499 
L 155.04 189.444699 
L 160.992 189.392129 
L 166.944 189.340783 
L 172.896 189.290643 
L 178.848 189.241682 
L 184.8 189.19387 
L 190.752 189.147175 
L 196.704 189.10156 
L 202.656 189.056991 
L 208.608 189.01343 
L 214.56 188.970843 
L 214.56 189.492895 
L 208.608 189.535482 
L 202.656 189.579043 
L 196.704 189.623612 
L 190.752 189.669227 
L 184.8 189.715922 
L 178.848 189.763733 
L 172.896 189.812694 
L 166.944 189.862835 
L 160.992 189.914181 
L 155.04 189.96675 
L 149.088 190.020551 
L 143.136 190.075574 
L 137.184 190.131788 
L 131.232 190.189129 
L 125.28 190.247486 
L 119.328 190.306677 
L 113.376 190.366423 
L 107.424 190.426293 
L 101.472 190.485636 
L 95.52 190.543458 
L 89.568 190.598235 
L 83.616 190.647578 
L 77.664 190.687668 
L 71.712 190.712178 
L 65.76 190.710171 
L 59.808 190.66159 
L 53.856 190.526569 
L 47.904 190.216233 
L 41.952 189.494347 
L 36 187.508146 
L 36 186.986095 
z
" clip-path="url(#p9e73ebd58d)" style="fill: #440154"/>
   </g>
   <g id="PathCollection_12">
    <path d="M 36 186.696 
L 36 186.142645 
L 36.6951 186.696 
L 41.952 188.450243 
L 47.904 189.17213 
L 53.856 189.482466 
L 59.808 189.617487 
L 65.76 189.666068 
L 71.712 189.668074 
L 77.664 189.643564 
L 83.616 189.603475 
L 89.568 189.554131 
L 95.52 189.499355 
L 101.472 189.441532 
L 107.424 189.38219 
L 113.376 189.322319 
L 119.328 189.262574 
L 125.28 189.203383 
L 131.232 189.145026 
L 137.184 189.087685 
L 143.136 189.031471 
L 149.088 188.976447 
L 155.04 188.922647 
L 160.992 188.870077 
L 166.944 188.818731 
L 172.896 188.768591 
L 178.848 188.71963 
L 184.8 188.671819 
L 190.752 188.625123 
L 196.704 188.579509 
L 202.656 188.534939 
L 208.608 188.491379 
L 214.56 188.448791 
L 214.56 188.970843 
L 208.608 189.01343 
L 202.656 189.056991 
L 196.704 189.10156 
L 190.752 189.147175 
L 184.8 189.19387 
L 178.848 189.241682 
L 172.896 189.290643 
L 166.944 189.340783 
L 160.992 189.392129 
L 155.04 189.444699 
L 149.088 189.498499 
L 143.136 189.553522 
L 137.184 189.609736 
L 131.232 189.667078 
L 125.28 189.725434 
L 119.328 189.784626 
L 113.376 189.844371 
L 107.424 189.904241 
L 101.472 189.963584 
L 95.52 190.021407 
L 89.568 190.076183 
L 83.616 190.125527 
L 77.664 190.165616 
L 71.712 190.190126 
L 65.76 190.188119 
L 59.808 190.139538 
L 53.856 190.004518 
L 47.904 189.694182 
L 41.952 188.972295 
L 36 186.986095 
z
" clip-path="url(#p9e73ebd58d)" style="fill: #440154"/>
   </g>
   <g id="PathCollection_13">
    <path d="M 36.6951 186.696 
L 36 186.142645 
L 36 184.897242 
L 38.25952 186.696 
L 41.952 187.928192 
L 47.904 188.650079 
L 53.856 188.960415 
L 59.808 189.095435 
L 65.76 189.144016 
L 71.712 189.146023 
L 77.664 189.121513 
L 83.616 189.081423 
L 89.568 189.03208 
L 95.52 188.977304 
L 101.472 188.919481 
L 107.424 188.860138 
L 113.376 188.800268 
L 119.328 188.740522 
L 125.28 188.681331 
L 131.232 188.622974 
L 137.184 188.565633 
L 143.136 188.509419 
L 149.088 188.454396 
L 155.04 188.400595 
L 160.992 188.348026 
L 166.944 188.29668 
L 172.896 188.246539 
L 178.848 188.197579 
L 184.8 188.149767 
L 190.752 188.103072 
L 196.704 188.057457 
L 202.656 188.012888 
L 208.608 187.969327 
L 214.56 187.92674 
L 214.56 188.448791 
L 208.608 188.491379 
L 202.656 188.534939 
L 196.704 188.579509 
L 190.752 188.625123 
L 184.8 188.671819 
L 178.848 188.71963 
L 172.896 188.768591 
L 166.944 188.818731 
L 160.992 188.870077 
L 155.04 188.922647 
L 149.088 188.976447 
L 143.136 189.031471 
L 137.184 189.087685 
L 131.232 189.145026 
L 125.28 189.203383 
L 119.328 189.262574 
L 113.376 189.322319 
L 107.424 189.38219 
L 101.472 189.441532 
L 95.52 189.499355 
L 89.568 189.554131 
L 83.616 189.603475 
L 77.664 189.643564 
L 71.712 189.668074 
L 65.76 189.666068 
L 59.808 189.617487 
L 53.856 189.482466 
L 47.904 189.17213 
L 41.952 188.450243 
z
" clip-path="url(#p9e73ebd58d)" style="fill: #440154"/>
   </g>
   <g id="PathCollection_14">
    <path d="M 38.25952 186.696 
L 36 184.897242 
L 36 183.65184 
L 39.823939 186.696 
L 41.952 187.40614 
L 47.904 188.128027 
L 53.856 188.438363 
L 59.808 188.573384 
L 65.76 188.621965 
L 71.712 188.623971 
L 77.664 188.599461 
L 83.616 188.559372 
L 89.568 188.510028 
L 95.52 188.455252 
L 101.472 188.397429 
L 107.424 188.338086 
L 113.376 188.278216 
L 119.328 188.218471 
L 125.28 188.159279 
L 131.232 188.100923 
L 137.184 188.043582 
L 143.136 187.987367 
L 149.088 187.932344 
L 155.04 187.878544 
L 160.992 187.825974 
L 166.944 187.774628 
L 172.896 187.724488 
L 178.848 187.675527 
L 184.8 187.627716 
L 190.752 187.58102 
L 196.704 187.535406 
L 202.656 187.490836 
L 208.608 187.447276 
L 214.56 187.404688 
L 214.56 187.92674 
L 208.608 187.969327 
L 202.656 188.012888 
L 196.704 188.057457 
L 190.752 188.103072 
L 184.8 188.149767 
L 178.848 188.197579 
L 172.896 188.246539 
L 166.944 188.29668 
L 160.992 188.348026 
L 155.04 188.400595 
L 149.088 188.454396 
L 143.136 188.509419 
L 137.184 188.565633 
L 131.232 188.622974 
L 125.28 188.681331 
L 119.328 188.740522 
L 113.376 188.800268 
L 107.424 188.860138 
L 101.472 188.919481 
L 95.52 188.977304 
L 89.568 189.03208 
L 83.616 189.081423 
L 77.664 189.121513 
L 71.712 189.146023 
L 65.76 189.144016 
L 59.808 189.095435 
L 53.856 188.960415 
L 47.904 188.650079 
L 41.952 187.928192 
z
" clip-path="url(#p9e73ebd58d)" style="fill: #440154"/>
   </g>
   <g id="PathCollection_15">
    <path d="M 39.823939 186.696 
L 36 183.65184 
L 36 182.406437 
L 41.388359 186.696 
L 41.952 186.884089 
L 47.904 187.605975 
L 53.856 187.916311 
L 59.808 188.051332 
L 65.76 188.099913 
L 71.712 188.10192 
L 77.664 188.07741 
L 83.616 188.03732 
L 89.568 187.987977 
L 95.52 187.9332 
L 101.472 187.875378 
L 107.424 187.816035 
L 113.376 187.756165 
L 119.328 187.696419 
L 125.28 187.637228 
L 131.232 187.578871 
L 137.184 187.52153 
L 143.136 187.465316 
L 149.088 187.410293 
L 155.04 187.356492 
L 160.992 187.303923 
L 166.944 187.252577 
L 172.896 187.202436 
L 178.848 187.153475 
L 184.8 187.105664 
L 190.752 187.058969 
L 196.704 187.013354 
L 202.656 186.968785 
L 208.608 186.925224 
L 214.56 186.882637 
L 214.56 187.404688 
L 208.608 187.447276 
L 202.656 187.490836 
L 196.704 187.535406 
L 190.752 187.58102 
L 184.8 187.627716 
L 178.848 187.675527 
L 172.896 187.724488 
L 166.944 187.774628 
L 160.992 187.825974 
L 155.04 187.878544 
L 149.088 187.932344 
L 143.136 187.987367 
L 137.184 188.043582 
L 131.232 188.100923 
L 125.28 188.159279 
L 119.328 188.218471 
L 113.376 188.278216 
L 107.424 188.338086 
L 101.472 188.397429 
L 95.52 188.455252 
L 89.568 188.510028 
L 83.616 188.559372 
L 77.664 188.599461 
L 71.712 188.623971 
L 65.76 188.621965 
L 59.808 188.573384 
L 53.856 188.438363 
L 47.904 188.128027 
L 41.952 187.40614 
z
" clip-path="url(#p9e73ebd58d)" style="fill: #440154"/>
   </g>
   <g id="PathCollection_16">
    <path d="M 41.388359 186.696 
L 36 182.406437 
L 36 181.161035 
L 41.952 185.8993 
L 44.705545 186.696 
L 47.904 187.083924 
L 53.856 187.39426 
L 59.808 187.52928 
L 65.76 187.577861 
L 71.712 187.579868 
L 77.664 187.555358 
L 83.616 187.515269 
L 89.568 187.465925 
L 95.52 187.411149 
L 101.472 187.353326 
L 107.424 187.293983 
L 113.376 187.234113 
L 119.328 187.174368 
L 125.28 187.115176 
L 131.232 187.05682 
L 137.184 186.999478 
L 143.136 186.943264 
L 149.088 186.888241 
L 155.04 186.834441 
L 160.992 186.781871 
L 166.944 186.730525 
L 171.042347 186.696 
L 172.896 186.658748 
L 178.848 186.541947 
L 184.8 186.427889 
L 190.752 186.316493 
L 196.704 186.207675 
L 202.656 186.10135 
L 208.608 185.997432 
L 214.56 185.895837 
L 214.56 186.696 
L 214.56 186.882637 
L 208.608 186.925224 
L 202.656 186.968785 
L 196.704 187.013354 
L 190.752 187.058969 
L 184.8 187.105664 
L 178.848 187.153475 
L 172.896 187.202436 
L 166.944 187.252577 
L 160.992 187.303923 
L 155.04 187.356492 
L 149.088 187.410293 
L 143.136 187.465316 
L 137.184 187.52153 
L 131.232 187.578871 
L 125.28 187.637228 
L 119.328 187.696419 
L 113.376 187.756165 
L 107.424 187.816035 
L 101.472 187.875378 
L 95.52 187.9332 
L 89.568 187.987977 
L 83.616 188.03732 
L 77.664 188.07741 
L 71.712 188.10192 
L 65.76 188.099913 
L 59.808 188.051332 
L 53.856 187.916311 
L 47.904 187.605975 
L 41.952 186.884089 
z
" clip-path="url(#p9e73ebd58d)" style="fill: #481769"/>
   </g>
   <g id="PathCollection_17">
    <path d="M 36 181.152 
L 36 178.791578 
L 37.553071 181.152 
L 41.952 184.653898 
L 47.904 186.376026 
L 50.476466 186.696 
L 53.856 186.872208 
L 59.808 187.007229 
L 65.76 187.05581 
L 71.712 187.057816 
L 77.664 187.033306 
L 83.616 186.993217 
L 89.568 186.943873 
L 95.52 186.889097 
L 101.472 186.831274 
L 107.424 186.771932 
L 113.376 186.712061 
L 114.976083 186.696 
L 119.328 186.591788 
L 125.28 186.450581 
L 131.232 186.311366 
L 137.184 186.174573 
L 143.136 186.040469 
L 149.088 185.909206 
L 155.04 185.78086 
L 160.992 185.655451 
L 166.944 185.53296 
L 172.896 185.413345 
L 178.848 185.296545 
L 184.8 185.182486 
L 190.752 185.07109 
L 196.704 184.962273 
L 202.656 184.855948 
L 208.608 184.75203 
L 214.56 184.650434 
L 214.56 185.895837 
L 208.608 185.997432 
L 202.656 186.10135 
L 196.704 186.207675 
L 190.752 186.316493 
L 184.8 186.427889 
L 178.848 186.541947 
L 172.896 186.658748 
L 171.042347 186.696 
L 166.944 186.730525 
L 160.992 186.781871 
L 155.04 186.834441 
L 149.088 186.888241 
L 143.136 186.943264 
L 137.184 186.999478 
L 131.232 187.05682 
L 125.28 187.115176 
L 119.328 187.174368 
L 113.376 187.234113 
L 107.424 187.293983 
L 101.472 187.353326 
L 95.52 187.411149 
L 89.568 187.465925 
L 83.616 187.515269 
L 77.664 187.555358 
L 71.712 187.579868 
L 65.76 187.577861 
L 59.808 187.52928 
L 53.856 187.39426 
L 47.904 187.083924 
L 44.705545 186.696 
L 41.952 185.8993 
L 36 181.161035 
z
" clip-path="url(#p9e73ebd58d)" style="fill: #472d7b"/>
   </g>
   <g id="PathCollection_18">
    <path d="M 37.553071 181.152 
L 36 178.791578 
L 36 176.413907 
L 39.11749 181.152 
L 41.952 183.408495 
L 47.904 185.130623 
L 53.856 185.870958 
L 59.808 186.193063 
L 65.76 186.308957 
L 71.712 186.313744 
L 77.664 186.255273 
L 83.616 186.159636 
L 89.568 186.041923 
L 95.52 185.911249 
L 101.472 185.773307 
L 107.424 185.631739 
L 113.376 185.488913 
L 119.328 185.346385 
L 125.28 185.205179 
L 131.232 185.065964 
L 137.184 184.929171 
L 143.136 184.795067 
L 149.088 184.663804 
L 155.04 184.535458 
L 160.992 184.410048 
L 166.944 184.287558 
L 172.896 184.167943 
L 178.848 184.051142 
L 184.8 183.937084 
L 190.752 183.825688 
L 196.704 183.71687 
L 202.656 183.610545 
L 208.608 183.506627 
L 214.56 183.405032 
L 214.56 184.650434 
L 208.608 184.75203 
L 202.656 184.855948 
L 196.704 184.962273 
L 190.752 185.07109 
L 184.8 185.182486 
L 178.848 185.296545 
L 172.896 185.413345 
L 166.944 185.53296 
L 160.992 185.655451 
L 155.04 185.78086 
L 149.088 185.909206 
L 143.136 186.040469 
L 137.184 186.174573 
L 131.232 186.311366 
L 125.28 186.450581 
L 119.328 186.591788 
L 114.976083 186.696 
L 113.376 186.712061 
L 107.424 186.771932 
L 101.472 186.831274 
L 95.52 186.889097 
L 89.568 186.943873 
L 83.616 186.993217 
L 77.664 187.033306 
L 71.712 187.057816 
L 65.76 187.05581 
L 59.808 187.007229 
L 53.856 186.872208 
L 50.476466 186.696 
L 47.904 186.376026 
L 41.952 184.653898 
z
" clip-path="url(#p9e73ebd58d)" style="fill: #414287"/>
   </g>
   <g id="PathCollection_19">
    <path d="M 39.11749 181.152 
L 36 176.413907 
L 36 175.608 
L 36 172.937204 
L 37.034162 175.608 
L 40.68191 181.152 
L 41.952 182.163093 
L 47.904 183.88522 
L 53.856 184.625556 
L 59.808 184.94766 
L 65.76 185.063555 
L 71.712 185.068342 
L 77.664 185.009871 
L 83.616 184.914234 
L 89.568 184.79652 
L 95.52 184.665846 
L 101.472 184.527905 
L 107.424 184.386337 
L 113.376 184.243511 
L 119.328 184.100983 
L 125.28 183.959776 
L 131.232 183.820561 
L 137.184 183.683768 
L 143.136 183.549664 
L 149.088 183.418401 
L 155.04 183.290055 
L 160.992 183.164646 
L 166.944 183.042155 
L 172.896 182.92254 
L 178.848 182.80574 
L 184.8 182.691681 
L 190.752 182.580285 
L 196.704 182.471467 
L 202.656 182.365143 
L 208.608 182.261225 
L 214.56 182.159629 
L 214.56 183.405032 
L 208.608 183.506627 
L 202.656 183.610545 
L 196.704 183.71687 
L 190.752 183.825688 
L 184.8 183.937084 
L 178.848 184.051142 
L 172.896 184.167943 
L 166.944 184.287558 
L 160.992 184.410048 
L 155.04 184.535458 
L 149.088 184.663804 
L 143.136 184.795067 
L 137.184 184.929171 
L 131.232 185.065964 
L 125.28 185.205179 
L 119.328 185.346385 
L 113.376 185.488913 
L 107.424 185.631739 
L 101.472 185.773307 
L 95.52 185.911249 
L 89.568 186.041923 
L 83.616 186.159636 
L 77.664 186.255273 
L 71.712 186.313744 
L 65.76 186.308957 
L 59.808 186.193063 
L 53.856 185.870958 
L 47.904 185.130623 
L 41.952 183.408495 
z
" clip-path="url(#p9e73ebd58d)" style="fill: #39568c"/>
   </g>
   <g id="PathCollection_20">
    <path d="M 40.68191 181.152 
L 37.034162 175.608 
L 36 172.937204 
L 36 170.064 
L 36 168.213123 
L 36.451883 170.064 
L 38.598582 175.608 
L 41.952 180.704666 
L 42.761819 181.152 
L 47.904 182.639818 
L 53.856 183.380153 
L 59.808 183.702258 
L 65.76 183.818152 
L 71.712 183.822939 
L 77.664 183.764468 
L 83.616 183.668831 
L 89.568 183.551117 
L 95.52 183.420443 
L 101.472 183.282502 
L 107.424 183.140934 
L 113.376 182.998108 
L 119.328 182.85558 
L 125.28 182.714374 
L 131.232 182.575159 
L 137.184 182.438366 
L 143.136 182.304261 
L 149.088 182.172999 
L 155.04 182.044653 
L 160.992 181.919243 
L 166.944 181.796753 
L 172.896 181.677138 
L 178.848 181.560337 
L 184.8 181.446279 
L 190.752 181.334883 
L 196.704 181.226065 
L 200.850106 181.152 
L 202.656 181.090411 
L 208.608 180.892015 
L 214.56 180.698053 
L 214.56 181.152 
L 214.56 182.159629 
L 208.608 182.261225 
L 202.656 182.365143 
L 196.704 182.471467 
L 190.752 182.580285 
L 184.8 182.691681 
L 178.848 182.80574 
L 172.896 182.92254 
L 166.944 183.042155 
L 160.992 183.164646 
L 155.04 183.290055 
L 149.088 183.418401 
L 143.136 183.549664 
L 137.184 183.683768 
L 131.232 183.820561 
L 125.28 183.959776 
L 119.328 184.100983 
L 113.376 184.243511 
L 107.424 184.386337 
L 101.472 184.527905 
L 95.52 184.665846 
L 89.568 184.79652 
L 83.616 184.914234 
L 77.664 185.009871 
L 71.712 185.068342 
L 65.76 185.063555 
L 59.808 184.94766 
L 53.856 184.625556 
L 47.904 183.88522 
L 41.952 182.163093 
z
" clip-path="url(#p9e73ebd58d)" style="fill: #30698e"/>
   </g>
   <g id="PathCollection_21">
    <path d="M 38.598582 175.608 
L 36.451883 170.064 
L 36 168.213123 
L 36 164.52 
L 36 160.393206 
L 36.662762 164.52 
L 38.016302 170.064 
L 40.163002 175.608 
L 41.952 178.326995 
L 47.066167 181.152 
L 47.904 181.394415 
L 53.856 182.134751 
L 59.808 182.456855 
L 65.76 182.57275 
L 71.712 182.577537 
L 77.664 182.519066 
L 83.616 182.423429 
L 89.568 182.305715 
L 95.52 182.175041 
L 101.472 182.037099 
L 107.424 181.895532 
L 113.376 181.752706 
L 119.328 181.610178 
L 125.28 181.468971 
L 131.232 181.329756 
L 137.184 181.192963 
L 139.002086 181.152 
L 143.136 180.974179 
L 149.088 180.723578 
L 155.04 180.478545 
L 160.992 180.239118 
L 166.944 180.005264 
L 172.896 179.7769 
L 178.848 179.55391 
L 184.8 179.336154 
L 190.752 179.123481 
L 196.704 178.915731 
L 202.656 178.71274 
L 208.608 178.514344 
L 214.56 178.320382 
L 214.56 180.698053 
L 208.608 180.892015 
L 202.656 181.090411 
L 200.850106 181.152 
L 196.704 181.226065 
L 190.752 181.334883 
L 184.8 181.446279 
L 178.848 181.560337 
L 172.896 181.677138 
L 166.944 181.796753 
L 160.992 181.919243 
L 155.04 182.044653 
L 149.088 182.172999 
L 143.136 182.304261 
L 137.184 182.438366 
L 131.232 182.575159 
L 125.28 182.714374 
L 119.328 182.85558 
L 113.376 182.998108 
L 107.424 183.140934 
L 101.472 183.282502 
L 95.52 183.420443 
L 89.568 183.551117 
L 83.616 183.668831 
L 77.664 183.764468 
L 71.712 183.822939 
L 65.76 183.818152 
L 59.808 183.702258 
L 53.856 183.380153 
L 47.904 182.639818 
L 42.761819 181.152 
L 41.952 180.704666 
z
" clip-path="url(#p9e73ebd58d)" style="fill: #297a8e"/>
   </g>
   <g id="PathCollection_22">
    <path d="M 40.163002 175.608 
L 38.016302 170.064 
L 36.662762 164.52 
L 36 160.393206 
L 36 158.976 
L 36 153.432 
L 36 147.888 
L 36 142.344 
L 36 140.859379 
L 36.04958 142.344 
L 36.327473 147.888 
L 36.736519 153.432 
L 37.336817 158.976 
L 38.227181 164.52 
L 39.580722 170.064 
L 41.727421 175.608 
L 41.952 175.949324 
L 47.904 179.237139 
L 53.856 180.650556 
L 58.709407 181.152 
L 59.808 181.211453 
L 65.76 181.327347 
L 71.712 181.332134 
L 77.664 181.273663 
L 83.616 181.178026 
L 84.931971 181.152 
L 89.568 180.976954 
L 95.52 180.727476 
L 101.472 180.464124 
L 107.424 180.193849 
L 113.376 179.921172 
L 119.328 179.649063 
L 125.28 179.379477 
L 131.232 179.113694 
L 137.184 178.852535 
L 143.136 178.596508 
L 149.088 178.345907 
L 155.04 178.100874 
L 160.992 177.861447 
L 166.944 177.627593 
L 172.896 177.39923 
L 178.848 177.176239 
L 184.8 176.958483 
L 190.752 176.74581 
L 196.704 176.53806 
L 202.656 176.335069 
L 208.608 176.136674 
L 214.56 175.942711 
L 214.56 178.320382 
L 208.608 178.514344 
L 202.656 178.71274 
L 196.704 178.915731 
L 190.752 179.123481 
L 184.8 179.336154 
L 178.848 179.55391 
L 172.896 179.7769 
L 166.944 180.005264 
L 160.992 180.239118 
L 155.04 180.478545 
L 149.088 180.723578 
L 143.136 180.974179 
L 139.002086 181.152 
L 137.184 181.192963 
L 131.232 181.329756 
L 125.28 181.468971 
L 119.328 181.610178 
L 113.376 181.752706 
L 107.424 181.895532 
L 101.472 182.037099 
L 95.52 182.175041 
L 89.568 182.305715 
L 83.616 182.423429 
L 77.664 182.519066 
L 71.712 182.577537 
L 65.76 182.57275 
L 59.808 182.456855 
L 53.856 182.134751 
L 47.904 181.394415 
L 47.066167 181.152 
L 41.952 178.326995 
z
" clip-path="url(#p9e73ebd58d)" style="fill: #228b8d"/>
    <path d="M 36 75.816 
L 36 70.272 
L 36 64.728 
L 36 59.184 
L 36 53.64 
L 36 48.096 
L 36 42.552 
L 36 37.008 
L 36 31.464 
L 36 25.92 
L 36.83014 25.92 
L 36.738375 31.464 
L 36.646586 37.008 
L 36.554984 42.552 
L 36.46383 48.096 
L 36.373437 53.64 
L 36.284193 59.184 
L 36.196567 64.728 
L 36.111141 70.272 
L 36.028629 75.816 
L 36 77.832419 
z
" clip-path="url(#p9e73ebd58d)" style="fill: #228b8d"/>
   </g>
   <g id="PathCollection_23">
    <path d="M 41.727421 175.608 
L 39.580722 170.064 
L 38.227181 164.52 
L 37.336817 158.976 
L 36.736519 153.432 
L 36.327473 147.888 
L 36.04958 142.344 
L 36 140.859379 
L 36 136.8 
L 36 131.256 
L 36 125.712 
L 36 120.168 
L 36 114.624 
L 36 109.08 
L 36 103.536 
L 36 97.992 
L 36 92.448 
L 36 86.904 
L 36 81.36 
L 36 77.832419 
L 36.028629 75.816 
L 36.111141 70.272 
L 36.196567 64.728 
L 36.284193 59.184 
L 36.373437 53.64 
L 36.46383 48.096 
L 36.554984 42.552 
L 36.646586 37.008 
L 36.738375 31.464 
L 36.83014 25.92 
L 38.39456 25.92 
L 38.302795 31.464 
L 38.211005 37.008 
L 38.119404 42.552 
L 38.028249 48.096 
L 37.937857 53.64 
L 37.848612 59.184 
L 37.760987 64.728 
L 37.675561 70.272 
L 37.593048 75.816 
L 37.514336 81.36 
L 37.440528 86.904 
L 37.373011 92.448 
L 37.313534 97.992 
L 37.264328 103.536 
L 37.228263 109.08 
L 37.209074 114.624 
L 37.211678 120.168 
L 37.242648 125.712 
L 37.310914 131.256 
L 37.428853 136.8 
L 37.614 142.344 
L 37.891893 147.888 
L 38.300938 153.432 
L 38.901236 158.976 
L 39.791601 164.52 
L 41.145142 170.064 
L 41.952 172.147768 
L 45.638441 175.608 
L 47.904 176.859468 
L 53.856 178.272886 
L 59.808 178.887834 
L 65.76 179.109095 
L 71.712 179.118234 
L 77.664 179.006603 
L 83.616 178.824017 
L 89.568 178.599283 
L 95.52 178.349806 
L 101.472 178.086454 
L 107.424 177.816178 
L 113.376 177.543501 
L 119.328 177.271392 
L 125.28 177.001807 
L 131.232 176.736023 
L 137.184 176.474864 
L 143.136 176.218837 
L 149.088 175.968236 
L 155.04 175.723203 
L 157.90388 175.608 
L 160.992 175.396915 
L 166.944 174.999543 
L 172.896 174.611499 
L 178.848 174.232585 
L 184.8 173.862567 
L 190.752 173.501185 
L 196.704 173.148169 
L 202.656 172.803239 
L 208.608 172.466119 
L 214.56 172.136531 
L 214.56 175.608 
L 214.56 175.942711 
L 208.608 176.136674 
L 202.656 176.335069 
L 196.704 176.53806 
L 190.752 176.74581 
L 184.8 176.958483 
L 178.848 177.176239 
L 172.896 177.39923 
L 166.944 177.627593 
L 160.992 177.861447 
L 155.04 178.100874 
L 149.088 178.345907 
L 143.136 178.596508 
L 137.184 178.852535 
L 131.232 179.113694 
L 125.28 179.379477 
L 119.328 179.649063 
L 113.376 179.921172 
L 107.424 180.193849 
L 101.472 180.464124 
L 95.52 180.727476 
L 89.568 180.976954 
L 84.931971 181.152 
L 83.616 181.178026 
L 77.664 181.273663 
L 71.712 181.332134 
L 65.76 181.327347 
L 59.808 181.211453 
L 58.709407 181.152 
L 53.856 180.650556 
L 47.904 179.237139 
L 41.952 175.949324 
z
" clip-path="url(#p9e73ebd58d)" style="fill: #1e9c89"/>
   </g>
   <g id="PathCollection_24">
    <path d="M 41.145142 170.064 
L 39.791601 164.52 
L 38.901236 158.976 
L 38.300938 153.432 
L 37.891893 147.888 
L 37.614 142.344 
L 37.428853 136.8 
L 37.310914 131.256 
L 37.242648 125.712 
L 37.211678 120.168 
L 37.209074 114.624 
L 37.228263 109.08 
L 37.264328 103.536 
L 37.313534 97.992 
L 37.373011 92.448 
L 37.440528 86.904 
L 37.514336 81.36 
L 37.593048 75.816 
L 37.675561 70.272 
L 37.760987 64.728 
L 37.848612 59.184 
L 37.937857 53.64 
L 38.028249 48.096 
L 38.119404 42.552 
L 38.211005 37.008 
L 38.302795 31.464 
L 38.39456 25.92 
L 39.958979 25.92 
L 39.867214 31.464 
L 39.775425 37.008 
L 39.683823 42.552 
L 39.592669 48.096 
L 39.502277 53.64 
L 39.413032 59.184 
L 39.325407 64.728 
L 39.23998 70.272 
L 39.157468 75.816 
L 39.078756 81.36 
L 39.004948 86.904 
L 38.93743 92.448 
L 38.877953 97.992 
L 38.828747 103.536 
L 38.792683 109.08 
L 38.773494 114.624 
L 38.776098 120.168 
L 38.807067 125.712 
L 38.875334 131.256 
L 38.993272 136.8 
L 39.17842 142.344 
L 39.456312 147.888 
L 39.865358 153.432 
L 40.465656 158.976 
L 41.35602 164.52 
L 41.952 166.961087 
L 44.036356 170.064 
L 47.904 173.694316 
L 52.646518 175.608 
L 53.856 175.895215 
L 59.808 176.510163 
L 65.76 176.731424 
L 71.712 176.740563 
L 77.664 176.628933 
L 83.616 176.446347 
L 89.568 176.221612 
L 95.52 175.972135 
L 101.472 175.708783 
L 103.69144 175.608 
L 107.424 175.319992 
L 113.376 174.85665 
L 119.328 174.394273 
L 125.28 173.936183 
L 131.232 173.484555 
L 137.184 173.040784 
L 143.136 172.605734 
L 149.088 172.179904 
L 155.04 171.763535 
L 160.992 171.356693 
L 166.944 170.95932 
L 172.896 170.571276 
L 178.848 170.192363 
L 180.912802 170.064 
L 184.8 169.680737 
L 190.752 169.107591 
L 196.704 168.547711 
L 202.656 168.000657 
L 208.608 167.465988 
L 214.56 166.943265 
L 214.56 170.064 
L 214.56 172.136531 
L 208.608 172.466119 
L 202.656 172.803239 
L 196.704 173.148169 
L 190.752 173.501185 
L 184.8 173.862567 
L 178.848 174.232585 
L 172.896 174.611499 
L 166.944 174.999543 
L 160.992 175.396915 
L 157.90388 175.608 
L 155.04 175.723203 
L 149.088 175.968236 
L 143.136 176.218837 
L 137.184 176.474864 
L 131.232 176.736023 
L 125.28 177.001807 
L 119.328 177.271392 
L 113.376 177.543501 
L 107.424 177.816178 
L 101.472 178.086454 
L 95.52 178.349806 
L 89.568 178.599283 
L 83.616 178.824017 
L 77.664 179.006603 
L 71.712 179.118234 
L 65.76 179.109095 
L 59.808 178.887834 
L 53.856 178.272886 
L 47.904 176.859468 
L 45.638441 175.608 
L 41.952 172.147768 
z
" clip-path="url(#p9e73ebd58d)" style="fill: #25ac82"/>
   </g>
   <g id="PathCollection_25">
    <path d="M 41.35602 164.52 
L 40.465656 158.976 
L 39.865358 153.432 
L 39.456312 147.888 
L 39.17842 142.344 
L 38.993272 136.8 
L 38.875334 131.256 
L 38.807067 125.712 
L 38.776098 120.168 
L 38.773494 114.624 
L 38.792683 109.08 
L 38.828747 103.536 
L 38.877953 97.992 
L 38.93743 92.448 
L 39.004948 86.904 
L 39.078756 81.36 
L 39.157468 75.816 
L 39.23998 70.272 
L 39.325407 64.728 
L 39.413032 59.184 
L 39.502277 53.64 
L 39.592669 48.096 
L 39.683823 42.552 
L 39.775425 37.008 
L 39.867214 31.464 
L 39.958979 25.92 
L 41.523399 25.92 
L 41.431634 31.464 
L 41.339844 37.008 
L 41.248243 42.552 
L 41.157088 48.096 
L 41.066696 53.64 
L 40.977451 59.184 
L 40.889826 64.728 
L 40.8044 70.272 
L 40.721887 75.816 
L 40.643175 81.36 
L 40.569368 86.904 
L 40.50185 92.448 
L 40.442373 97.992 
L 40.393167 103.536 
L 40.357103 109.08 
L 40.337913 114.624 
L 40.340517 120.168 
L 40.371487 125.712 
L 40.439754 131.256 
L 40.557692 136.8 
L 40.742839 142.344 
L 41.020732 147.888 
L 41.429778 153.432 
L 41.952 158.25494 
L 42.166817 158.976 
L 44.616568 164.52 
L 47.904 169.413894 
L 48.919836 170.064 
L 53.856 172.055823 
L 59.808 173.100765 
L 65.76 173.476739 
L 71.712 173.492269 
L 77.664 173.302583 
L 83.616 172.992326 
L 89.568 172.610449 
L 95.52 172.186529 
L 101.472 171.739031 
L 107.424 171.27977 
L 113.376 170.816427 
L 119.328 170.35405 
L 123.09665 170.064 
L 125.28 169.797492 
L 131.232 169.081215 
L 137.184 168.377399 
L 143.136 167.687416 
L 149.088 167.012054 
L 155.04 166.351698 
L 160.992 165.706451 
L 166.944 165.076223 
L 172.323369 164.52 
L 172.896 164.429989 
L 178.848 163.516415 
L 184.8 162.624289 
L 190.752 161.752986 
L 196.704 160.901851 
L 202.656 160.070214 
L 208.608 159.257404 
L 210.715749 158.976 
L 214.56 158.214755 
L 214.56 158.976 
L 214.56 164.52 
L 214.56 166.943265 
L 208.608 167.465988 
L 202.656 168.000657 
L 196.704 168.547711 
L 190.752 169.107591 
L 184.8 169.680737 
L 180.912802 170.064 
L 178.848 170.192363 
L 172.896 170.571276 
L 166.944 170.95932 
L 160.992 171.356693 
L 155.04 171.763535 
L 149.088 172.179904 
L 143.136 172.605734 
L 137.184 173.040784 
L 131.232 173.484555 
L 125.28 173.936183 
L 119.328 174.394273 
L 113.376 174.85665 
L 107.424 175.319992 
L 103.69144 175.608 
L 101.472 175.708783 
L 95.52 175.972135 
L 89.568 176.221612 
L 83.616 176.446347 
L 77.664 176.628933 
L 71.712 176.740563 
L 65.76 176.731424 
L 59.808 176.510163 
L 53.856 175.895215 
L 52.646518 175.608 
L 47.904 173.694316 
L 44.036356 170.064 
L 41.952 166.961087 
z
" clip-path="url(#p9e73ebd58d)" style="fill: #3dbc74"/>
   </g>
   <g id="PathCollection_26">
    <path d="M 41.429778 153.432 
L 41.020732 147.888 
L 40.742839 142.344 
L 40.557692 136.8 
L 40.439754 131.256 
L 40.371487 125.712 
L 40.340517 120.168 
L 40.337913 114.624 
L 40.357103 109.08 
L 40.393167 103.536 
L 40.442373 97.992 
L 40.50185 92.448 
L 40.569368 86.904 
L 40.643175 81.36 
L 40.721887 75.816 
L 40.8044 70.272 
L 40.889826 64.728 
L 40.977451 59.184 
L 41.066696 53.64 
L 41.157088 48.096 
L 41.248243 42.552 
L 41.339844 37.008 
L 41.431634 31.464 
L 41.523399 25.92 
L 41.952 25.92 
L 45.077093 25.92 
L 44.824611 31.464 
L 44.572061 37.008 
L 44.320029 42.552 
L 44.069226 48.096 
L 43.820521 53.64 
L 43.574973 59.184 
L 43.33388 64.728 
L 43.098838 70.272 
L 42.871813 75.816 
L 42.655244 81.36 
L 42.45217 86.904 
L 42.266401 92.448 
L 42.102756 97.992 
L 41.967371 103.536 
L 41.952 104.39479 
L 41.921522 109.08 
L 41.902333 114.624 
L 41.904937 120.168 
L 41.935906 125.712 
L 41.952 127.018972 
L 42.09555 131.256 
L 42.420045 136.8 
L 42.92946 142.344 
L 43.694055 147.888 
L 44.819504 153.432 
L 46.471165 158.976 
L 47.904 162.218631 
L 50.269493 164.52 
L 53.856 166.815264 
L 59.808 168.472529 
L 65.76 169.06882 
L 71.712 169.093449 
L 77.664 168.792609 
L 83.616 168.300546 
L 89.568 167.694894 
L 95.52 167.022561 
L 101.472 166.312836 
L 107.424 165.584453 
L 113.376 164.849597 
L 116.051165 164.52 
L 119.328 163.90625 
L 125.28 162.80178 
L 131.232 161.712889 
L 137.184 160.642941 
L 143.136 159.594022 
L 146.718837 158.976 
L 149.088 158.36986 
L 155.04 156.880901 
L 160.992 155.42601 
L 166.944 154.004984 
L 169.401651 153.432 
L 172.896 152.236406 
L 178.848 150.247841 
L 184.8 148.30596 
L 186.111694 147.888 
L 190.752 145.711576 
L 196.704 142.984553 
L 198.13485 142.344 
L 202.656 139.306125 
L 206.47216 136.8 
L 208.608 134.598046 
L 211.92379 131.256 
L 214.56 126.665611 
L 214.56 131.256 
L 214.56 136.8 
L 214.56 142.344 
L 214.56 147.888 
L 214.56 153.432 
L 214.56 158.214755 
L 210.715749 158.976 
L 208.608 159.257404 
L 202.656 160.070214 
L 196.704 160.901851 
L 190.752 161.752986 
L 184.8 162.624289 
L 178.848 163.516415 
L 172.896 164.429989 
L 172.323369 164.52 
L 166.944 165.076223 
L 160.992 165.706451 
L 155.04 166.351698 
L 149.088 167.012054 
L 143.136 167.687416 
L 137.184 168.377399 
L 131.232 169.081215 
L 125.28 169.797492 
L 123.09665 170.064 
L 119.328 170.35405 
L 113.376 170.816427 
L 107.424 171.27977 
L 101.472 171.739031 
L 95.52 172.186529 
L 89.568 172.610449 
L 83.616 172.992326 
L 77.664 173.302583 
L 71.712 173.492269 
L 65.76 173.476739 
L 59.808 173.100765 
L 53.856 172.055823 
L 48.919836 170.064 
L 47.904 169.413894 
L 44.616568 164.52 
L 42.166817 158.976 
L 41.952 158.25494 
z
" clip-path="url(#p9e73ebd58d)" style="fill: #60ca60"/>
    <path d="M 165.722435 25.92 
L 166.944 25.92 
L 172.896 25.92 
L 178.848 25.92 
L 184.8 25.92 
L 190.752 25.92 
L 196.704 25.92 
L 202.656 25.92 
L 208.608 25.92 
L 214.56 25.92 
L 214.56 31.464 
L 214.56 37.008 
L 214.56 42.552 
L 214.56 48.096 
L 214.56 53.64 
L 214.56 59.184 
L 214.56 64.728 
L 214.56 70.272 
L 214.56 75.816 
L 214.56 81.36 
L 214.56 86.904 
L 214.56 92.448 
L 214.56 97.992 
L 214.56 103.536 
L 214.56 105.063673 
L 214.096522 103.536 
L 211.801641 97.992 
L 209.027722 92.448 
L 208.608 91.709034 
L 205.93979 86.904 
L 202.656 81.494365 
L 202.576283 81.36 
L 199.068547 75.816 
L 196.704 72.250936 
L 195.421529 70.272 
L 191.701796 64.728 
L 190.752 63.347921 
L 187.952644 59.184 
L 184.8 54.579669 
L 184.171615 53.64 
L 180.416501 48.096 
L 178.848 45.799652 
L 176.681796 42.552 
L 172.965787 37.008 
L 172.896 36.904096 
L 169.328123 31.464 
L 166.944 27.827857 
z
" clip-path="url(#p9e73ebd58d)" style="fill: #60ca60"/>
   </g>
   <g id="PathCollection_27">
    <path d="M 41.935906 125.712 
L 41.904937 120.168 
L 41.902333 114.624 
L 41.921522 109.08 
L 41.952 104.39479 
L 41.967371 103.536 
L 42.102756 97.992 
L 42.266401 92.448 
L 42.45217 86.904 
L 42.655244 81.36 
L 42.871813 75.816 
L 43.098838 70.272 
L 43.33388 64.728 
L 43.574973 59.184 
L 43.820521 53.64 
L 44.069226 48.096 
L 44.320029 42.552 
L 44.572061 37.008 
L 44.824611 31.464 
L 45.077093 25.92 
L 47.904 25.92 
L 51.340742 25.92 
L 50.753431 31.464 
L 50.165964 37.008 
L 49.579701 42.552 
L 48.996297 48.096 
L 48.417772 53.64 
L 47.904 58.626784 
L 47.87932 59.184 
L 47.638228 64.728 
L 47.403186 70.272 
L 47.176161 75.816 
L 46.959592 81.36 
L 46.756517 86.904 
L 46.570749 92.448 
L 46.407104 97.992 
L 46.271719 103.536 
L 46.172491 109.08 
L 46.119693 114.624 
L 46.126858 120.168 
L 46.212068 125.712 
L 46.399897 131.256 
L 46.724393 136.8 
L 47.233808 142.344 
L 47.904 147.203496 
L 48.123594 147.888 
L 50.741551 153.432 
L 53.856 157.926141 
L 55.528237 158.976 
L 59.808 160.787558 
L 65.76 161.694046 
L 71.712 161.731488 
L 77.664 161.274148 
L 83.616 160.526109 
L 89.568 159.605391 
L 93.23318 158.976 
L 95.52 158.393551 
L 101.472 156.793276 
L 107.424 155.150931 
L 113.376 153.493992 
L 113.599151 153.432 
L 119.328 151.09639 
L 125.28 148.692304 
L 127.299771 147.888 
L 131.232 145.583106 
L 136.85587 142.344 
L 137.184 142.060342 
L 143.136 137.016143 
L 143.396564 136.8 
L 147.653847 131.256 
L 149.088 128.029511 
L 150.141526 125.712 
L 151.284861 120.168 
L 151.38099 114.624 
L 150.672561 109.08 
L 149.341142 103.536 
L 149.088 102.763436 
L 147.559305 97.992 
L 145.412323 92.448 
L 143.136 87.270007 
L 142.978508 86.904 
L 140.370688 81.36 
L 137.589575 75.816 
L 137.184 75.044743 
L 134.72352 70.272 
L 131.7645 64.728 
L 131.232 63.755349 
L 128.772852 59.184 
L 125.735353 53.64 
L 125.28 52.819447 
L 122.695767 48.096 
L 119.637025 42.552 
L 119.328 41.994621 
L 116.588928 37.008 
L 113.537443 31.464 
L 113.376 31.170608 
L 110.492791 25.92 
L 113.376 25.92 
L 119.328 25.92 
L 125.28 25.92 
L 131.232 25.92 
L 137.184 25.92 
L 143.136 25.92 
L 149.088 25.92 
L 155.04 25.92 
L 160.992 25.92 
L 165.722435 25.92 
L 166.944 27.827857 
L 169.328123 31.464 
L 172.896 36.904096 
L 172.965787 37.008 
L 176.681796 42.552 
L 178.848 45.799652 
L 180.416501 48.096 
L 184.171615 53.64 
L 184.8 54.579669 
L 187.952644 59.184 
L 190.752 63.347921 
L 191.701796 64.728 
L 195.421529 70.272 
L 196.704 72.250936 
L 199.068547 75.816 
L 202.576283 81.36 
L 202.656 81.494365 
L 205.93979 86.904 
L 208.608 91.709034 
L 209.027722 92.448 
L 211.801641 97.992 
L 214.096522 103.536 
L 214.56 105.063673 
L 214.56 109.08 
L 214.56 114.624 
L 214.56 120.168 
L 214.56 125.712 
L 214.56 126.665611 
L 211.92379 131.256 
L 208.608 134.598046 
L 206.47216 136.8 
L 202.656 139.306125 
L 198.13485 142.344 
L 196.704 142.984553 
L 190.752 145.711576 
L 186.111694 147.888 
L 184.8 148.30596 
L 178.848 150.247841 
L 172.896 152.236406 
L 169.401651 153.432 
L 166.944 154.004984 
L 160.992 155.42601 
L 155.04 156.880901 
L 149.088 158.36986 
L 146.718837 158.976 
L 143.136 159.594022 
L 137.184 160.642941 
L 131.232 161.712889 
L 125.28 162.80178 
L 119.328 163.90625 
L 116.051165 164.52 
L 113.376 164.849597 
L 107.424 165.584453 
L 101.472 166.312836 
L 95.52 167.022561 
L 89.568 167.694894 
L 83.616 168.300546 
L 77.664 168.792609 
L 71.712 169.093449 
L 65.76 169.06882 
L 59.808 168.472529 
L 53.856 166.815264 
L 50.269493 164.52 
L 47.904 162.218631 
L 46.471165 158.976 
L 44.819504 153.432 
L 43.694055 147.888 
L 42.92946 142.344 
L 42.420045 136.8 
L 42.09555 131.256 
L 41.952 127.018972 
z
" clip-path="url(#p9e73ebd58d)" style="fill: #8bd646"/>
   </g>
   <g id="PathCollection_28">
    <path d="M 47.233808 142.344 
L 46.724393 136.8 
L 46.399897 131.256 
L 46.212068 125.712 
L 46.126858 120.168 
L 46.119693 114.624 
L 46.172491 109.08 
L 46.271719 103.536 
L 46.407104 97.992 
L 46.570749 92.448 
L 46.756517 86.904 
L 46.959592 81.36 
L 47.176161 75.816 
L 47.403186 70.272 
L 47.638228 64.728 
L 47.87932 59.184 
L 47.904 58.626784 
L 48.417772 53.64 
L 48.996297 48.096 
L 49.579701 42.552 
L 50.165964 37.008 
L 50.753431 31.464 
L 51.340742 25.92 
L 53.856 25.92 
L 59.808 25.92 
L 65.76 25.92 
L 71.712 25.92 
L 77.664 25.92 
L 83.616 25.92 
L 89.568 25.92 
L 95.52 25.92 
L 101.472 25.92 
L 107.424 25.92 
L 110.492791 25.92 
L 113.376 31.170608 
L 113.537443 31.464 
L 116.588928 37.008 
L 119.328 41.994621 
L 119.637025 42.552 
L 122.695767 48.096 
L 125.28 52.819447 
L 125.735353 53.64 
L 128.772852 59.184 
L 131.232 63.755349 
L 131.7645 64.728 
L 134.72352 70.272 
L 137.184 75.044743 
L 137.589575 75.816 
L 140.370688 81.36 
L 142.978508 86.904 
L 143.136 87.270007 
L 145.412323 92.448 
L 147.559305 97.992 
L 149.088 102.763436 
L 149.341142 103.536 
L 150.672561 109.08 
L 151.38099 114.624 
L 151.284861 120.168 
L 150.141526 125.712 
L 149.088 128.029511 
L 147.653847 131.256 
L 143.396564 136.8 
L 143.136 137.016143 
L 137.184 142.060342 
L 136.85587 142.344 
L 131.232 145.583106 
L 127.299771 147.888 
L 125.28 148.692304 
L 119.328 151.09639 
L 113.599151 153.432 
L 113.376 153.493992 
L 107.424 155.150931 
L 101.472 156.793276 
L 95.52 158.393551 
L 93.23318 158.976 
L 89.568 159.605391 
L 83.616 160.526109 
L 77.664 161.274148 
L 71.712 161.731488 
L 65.76 161.694046 
L 59.808 160.787558 
L 55.528237 158.976 
L 53.856 157.926141 
L 50.741551 153.432 
L 48.123594 147.888 
L 47.904 147.203496 
z
M 53.856 122.219729 
L 54.142975 125.712 
L 55.147205 131.256 
L 56.882116 136.8 
L 59.605698 142.344 
L 59.808 142.618361 
L 65.76 145.522734 
L 71.712 145.642699 
L 77.664 144.177388 
L 82.217051 142.344 
L 83.616 141.4985 
L 89.568 137.070814 
L 89.895941 136.8 
L 94.172403 131.256 
L 95.52 128.237837 
L 96.588358 125.712 
L 97.652161 120.168 
L 97.741603 114.624 
L 97.082454 109.08 
L 95.843649 103.536 
L 95.52 102.47441 
L 94.077435 97.992 
L 91.920781 92.448 
L 89.568 87.120089 
L 89.46207 86.904 
L 86.491137 81.36 
L 83.616 76.329075 
L 83.255094 75.816 
L 79.167073 70.272 
L 77.664 68.303128 
L 73.199846 64.728 
L 71.712 63.566358 
L 65.76 63.946811 
L 65.2552 64.728 
L 61.762604 70.272 
L 59.808 73.48423 
L 59.29749 75.816 
L 58.139606 81.36 
L 57.05387 86.904 
L 56.060662 92.448 
L 55.185733 97.992 
L 54.461898 103.536 
L 53.931378 109.08 
L 53.856 110.560425 
L 53.765981 114.624 
L 53.782646 120.168 
z
" clip-path="url(#p9e73ebd58d)" style="fill: #bade28"/>
   </g>
   <g id="PathCollection_29">
    <path d="M 53.782646 120.168 
L 53.765981 114.624 
L 53.856 110.560425 
L 53.931378 109.08 
L 54.461898 103.536 
L 55.185733 97.992 
L 56.060662 92.448 
L 57.05387 86.904 
L 58.139606 81.36 
L 59.29749 75.816 
L 59.808 73.48423 
L 61.762604 70.272 
L 65.2552 64.728 
L 65.76 63.946811 
L 71.712 63.566358 
L 73.199846 64.728 
L 77.664 68.303128 
L 79.167073 70.272 
L 83.255094 75.816 
L 83.616 76.329075 
L 86.491137 81.36 
L 89.46207 86.904 
L 89.568 87.120089 
L 91.920781 92.448 
L 94.077435 97.992 
L 95.52 102.47441 
L 95.843649 103.536 
L 97.082454 109.08 
L 97.741603 114.624 
L 97.652161 120.168 
L 96.588358 125.712 
L 95.52 128.237837 
L 94.172403 131.256 
L 89.895941 136.8 
L 89.568 137.070814 
L 83.616 141.4985 
L 82.217051 142.344 
L 77.664 144.177388 
L 71.712 145.642699 
L 65.76 145.522734 
L 59.808 142.618361 
L 59.605698 142.344 
L 56.882116 136.8 
L 55.147205 131.256 
L 54.142975 125.712 
L 53.856 122.219729 
z
" clip-path="url(#p9e73ebd58d)" style="fill: #eae51a"/>
   </g>
   <g id="PathCollection_30">
    <defs>
     <path id="m742db8c2dc" d="M -4.330127 4.330127 
L 4.330127 -4.330127 
M -4.330127 -4.330127 
L 4.330127 4.330127 
" style="stroke: #000000; stroke-width: 2"/>
    </defs>
    <g clip-path="url(#p9e73ebd58d)">
     <use xlink:href="#m742db8c2dc" x="65.76" y="127.56" style="stroke: #000000; stroke-width: 2"/>
    </g>
   </g>
   <g id="matplotlib.axis_1">
    <g id="xtick_1">
     <g id="line2d_1">
      <defs>
       <path id="m6106d2e5cd" d="M 0 0 
L 0 3.5 
" style="stroke: #000000; stroke-width: 0.8"/>
      </defs>
      <g>
       <use xlink:href="#m6106d2e5cd" x="75.68" y="192.24" style="stroke: #000000; stroke-width: 0.8"/>
      </g>
     </g>
     <g id="text_1">
      <!-- $\mathdefault{250}$ -->
      <g transform="translate(64.22 208.358125) scale(0.12 -0.12)">
       <defs>
        <path id="DejaVuSans-32" d="M 1228 531 
L 3431 531 
L 3431 0 
L 469 0 
L 469 531 
Q 828 903 1448 1529 
Q 2069 2156 2228 2338 
Q 2531 2678 2651 2914 
Q 2772 3150 2772 3378 
Q 2772 3750 2511 3984 
Q 2250 4219 1831 4219 
Q 1534 4219 1204 4116 
Q 875 4013 500 3803 
L 500 4441 
Q 881 4594 1212 4672 
Q 1544 4750 1819 4750 
Q 2544 4750 2975 4387 
Q 3406 4025 3406 3419 
Q 3406 3131 3298 2873 
Q 3191 2616 2906 2266 
Q 2828 2175 2409 1742 
Q 1991 1309 1228 531 
z
" transform="scale(0.015625)"/>
        <path id="DejaVuSans-35" d="M 691 4666 
L 3169 4666 
L 3169 4134 
L 1269 4134 
L 1269 2991 
Q 1406 3038 1543 3061 
Q 1681 3084 1819 3084 
Q 2600 3084 3056 2656 
Q 3513 2228 3513 1497 
Q 3513 744 3044 326 
Q 2575 -91 1722 -91 
Q 1428 -91 1123 -41 
Q 819 9 494 109 
L 494 744 
Q 775 591 1075 516 
Q 1375 441 1709 441 
Q 2250 441 2565 725 
Q 2881 1009 2881 1497 
Q 2881 1984 2565 2268 
Q 2250 2553 1709 2553 
Q 1456 2553 1204 2497 
Q 953 2441 691 2322 
L 691 4666 
z
" transform="scale(0.015625)"/>
        <path id="DejaVuSans-30" d="M 2034 4250 
Q 1547 4250 1301 3770 
Q 1056 3291 1056 2328 
Q 1056 1369 1301 889 
Q 1547 409 2034 409 
Q 2525 409 2770 889 
Q 3016 1369 3016 2328 
Q 3016 3291 2770 3770 
Q 2525 4250 2034 4250 
z
M 2034 4750 
Q 2819 4750 3233 4129 
Q 3647 3509 3647 2328 
Q 3647 1150 3233 529 
Q 2819 -91 2034 -91 
Q 1250 -91 836 529 
Q 422 1150 422 2328 
Q 422 3509 836 4129 
Q 1250 4750 2034 4750 
z
" transform="scale(0.015625)"/>
       </defs>
       <use xlink:href="#DejaVuSans-32" transform="translate(0 0.78125)"/>
       <use xlink:href="#DejaVuSans-35" transform="translate(63.623047 0.78125)"/>
       <use xlink:href="#DejaVuSans-30" transform="translate(127.246094 0.78125)"/>
      </g>
     </g>
    </g>
    <g id="xtick_2">
     <g id="line2d_2">
      <g>
       <use xlink:href="#m6106d2e5cd" x="125.28" y="192.24" style="stroke: #000000; stroke-width: 0.8"/>
      </g>
     </g>
     <g id="text_2">
      <!-- $\mathdefault{500}$ -->
      <g transform="translate(113.82 208.358125) scale(0.12 -0.12)">
       <use xlink:href="#DejaVuSans-35" transform="translate(0 0.78125)"/>
       <use xlink:href="#DejaVuSans-30" transform="translate(63.623047 0.78125)"/>
       <use xlink:href="#DejaVuSans-30" transform="translate(127.246094 0.78125)"/>
      </g>
     </g>
    </g>
    <g id="xtick_3">
     <g id="line2d_3">
      <g>
       <use xlink:href="#m6106d2e5cd" x="174.88" y="192.24" style="stroke: #000000; stroke-width: 0.8"/>
      </g>
     </g>
     <g id="text_3">
      <!-- $\mathdefault{750}$ -->
      <g transform="translate(163.42 208.358125) scale(0.12 -0.12)">
       <defs>
        <path id="DejaVuSans-37" d="M 525 4666 
L 3525 4666 
L 3525 4397 
L 1831 0 
L 1172 0 
L 2766 4134 
L 525 4134 
L 525 4666 
z
" transform="scale(0.015625)"/>
       </defs>
       <use xlink:href="#DejaVuSans-37" transform="translate(0 0.78125)"/>
       <use xlink:href="#DejaVuSans-35" transform="translate(63.623047 0.78125)"/>
       <use xlink:href="#DejaVuSans-30" transform="translate(127.246094 0.78125)"/>
      </g>
     </g>
    </g>
    <g id="text_4">
     <!-- Diploid N$_e$0 -->
     <g transform="translate(80 227.01375) scale(0.16 -0.16)">
      <defs>
       <path id="DejaVuSans-44" d="M 1259 4147 
L 1259 519 
L 2022 519 
Q 2988 519 3436 956 
Q 3884 1394 3884 2338 
Q 3884 3275 3436 3711 
Q 2988 4147 2022 4147 
L 1259 4147 
z
M 628 4666 
L 1925 4666 
Q 3281 4666 3915 4102 
Q 4550 3538 4550 2338 
Q 4550 1131 3912 565 
Q 3275 0 1925 0 
L 628 0 
L 628 4666 
z
" transform="scale(0.015625)"/>
       <path id="DejaVuSans-69" d="M 603 3500 
L 1178 3500 
L 1178 0 
L 603 0 
L 603 3500 
z
M 603 4863 
L 1178 4863 
L 1178 4134 
L 603 4134 
L 603 4863 
z
" transform="scale(0.015625)"/>
       <path id="DejaVuSans-70" d="M 1159 525 
L 1159 -1331 
L 581 -1331 
L 581 3500 
L 1159 3500 
L 1159 2969 
Q 1341 3281 1617 3432 
Q 1894 3584 2278 3584 
Q 2916 3584 3314 3078 
Q 3713 2572 3713 1747 
Q 3713 922 3314 415 
Q 2916 -91 2278 -91 
Q 1894 -91 1617 61 
Q 1341 213 1159 525 
z
M 3116 1747 
Q 3116 2381 2855 2742 
Q 2594 3103 2138 3103 
Q 1681 3103 1420 2742 
Q 1159 2381 1159 1747 
Q 1159 1113 1420 752 
Q 1681 391 2138 391 
Q 2594 391 2855 752 
Q 3116 1113 3116 1747 
z
" transform="scale(0.015625)"/>
       <path id="DejaVuSans-6c" d="M 603 4863 
L 1178 4863 
L 1178 0 
L 603 0 
L 603 4863 
z
" transform="scale(0.015625)"/>
       <path id="DejaVuSans-6f" d="M 1959 3097 
Q 1497 3097 1228 2736 
Q 959 2375 959 1747 
Q 959 1119 1226 758 
Q 1494 397 1959 397 
Q 2419 397 2687 759 
Q 2956 1122 2956 1747 
Q 2956 2369 2687 2733 
Q 2419 3097 1959 3097 
z
M 1959 3584 
Q 2709 3584 3137 3096 
Q 3566 2609 3566 1747 
Q 3566 888 3137 398 
Q 2709 -91 1959 -91 
Q 1206 -91 779 398 
Q 353 888 353 1747 
Q 353 2609 779 3096 
Q 1206 3584 1959 3584 
z
" transform="scale(0.015625)"/>
       <path id="DejaVuSans-64" d="M 2906 2969 
L 2906 4863 
L 3481 4863 
L 3481 0 
L 2906 0 
L 2906 525 
Q 2725 213 2448 61 
Q 2172 -91 1784 -91 
Q 1150 -91 751 415 
Q 353 922 353 1747 
Q 353 2572 751 3078 
Q 1150 3584 1784 3584 
Q 2172 3584 2448 3432 
Q 2725 3281 2906 2969 
z
M 947 1747 
Q 947 1113 1208 752 
Q 1469 391 1925 391 
Q 2381 391 2643 752 
Q 2906 1113 2906 1747 
Q 2906 2381 2643 2742 
Q 2381 3103 1925 3103 
Q 1469 3103 1208 2742 
Q 947 2381 947 1747 
z
" transform="scale(0.015625)"/>
       <path id="DejaVuSans-20" transform="scale(0.015625)"/>
       <path id="DejaVuSans-4e" d="M 628 4666 
L 1478 4666 
L 3547 763 
L 3547 4666 
L 4159 4666 
L 4159 0 
L 3309 0 
L 1241 3903 
L 1241 0 
L 628 0 
L 628 4666 
z
" transform="scale(0.015625)"/>
       <path id="DejaVuSans-Oblique-65" d="M 3078 2063 
Q 3088 2113 3092 2166 
Q 3097 2219 3097 2272 
Q 3097 2653 2873 2875 
Q 2650 3097 2266 3097 
Q 1838 3097 1509 2826 
Q 1181 2556 1013 2059 
L 3078 2063 
z
M 3578 1613 
L 903 1613 
Q 884 1494 878 1425 
Q 872 1356 872 1306 
Q 872 872 1139 634 
Q 1406 397 1894 397 
Q 2269 397 2603 481 
Q 2938 566 3225 728 
L 3116 159 
Q 2806 34 2476 -28 
Q 2147 -91 1806 -91 
Q 1078 -91 686 257 
Q 294 606 294 1247 
Q 294 1794 489 2264 
Q 684 2734 1063 3103 
Q 1306 3334 1642 3459 
Q 1978 3584 2356 3584 
Q 2950 3584 3301 3228 
Q 3653 2872 3653 2272 
Q 3653 2128 3634 1964 
Q 3616 1800 3578 1613 
z
" transform="scale(0.015625)"/>
      </defs>
      <use xlink:href="#DejaVuSans-44" transform="translate(0 0.015625)"/>
      <use xlink:href="#DejaVuSans-69" transform="translate(77.001953 0.015625)"/>
      <use xlink:href="#DejaVuSans-70" transform="translate(104.785156 0.015625)"/>
      <use xlink:href="#DejaVuSans-6c" transform="translate(168.261719 0.015625)"/>
      <use xlink:href="#DejaVuSans-6f" transform="translate(196.044922 0.015625)"/>
      <use xlink:href="#DejaVuSans-69" transform="translate(257.226562 0.015625)"/>
      <use xlink:href="#DejaVuSans-64" transform="translate(285.009766 0.015625)"/>
      <use xlink:href="#DejaVuSans-20" transform="translate(348.486328 0.015625)"/>
      <use xlink:href="#DejaVuSans-4e" transform="translate(380.273438 0.015625)"/>
      <use xlink:href="#DejaVuSans-Oblique-65" transform="translate(456.035156 -16.390625) scale(0.7)"/>
      <use xlink:href="#DejaVuSans-30" transform="translate(501.835938 0.015625)"/>
     </g>
    </g>
    <g id="text_5">
     <!-- $\times\mathdefault{10^{3}}\mathdefault{}$ -->
     <g transform="translate(188.56 221.452188) scale(0.1 -0.1)">
      <defs>
       <path id="DejaVuSans-d7" d="M 4488 3438 
L 3059 2003 
L 4488 575 
L 4116 197 
L 2681 1631 
L 1247 197 
L 878 575 
L 2303 2003 
L 878 3438 
L 1247 3816 
L 2681 2381 
L 4116 3816 
L 4488 3438 
z
" transform="scale(0.015625)"/>
       <path id="DejaVuSans-31" d="M 794 531 
L 1825 531 
L 1825 4091 
L 703 3866 
L 703 4441 
L 1819 4666 
L 2450 4666 
L 2450 531 
L 3481 531 
L 3481 0 
L 794 0 
L 794 531 
z
" transform="scale(0.015625)"/>
       <path id="DejaVuSans-33" d="M 2597 2516 
Q 3050 2419 3304 2112 
Q 3559 1806 3559 1356 
Q 3559 666 3084 287 
Q 2609 -91 1734 -91 
Q 1441 -91 1130 -33 
Q 819 25 488 141 
L 488 750 
Q 750 597 1062 519 
Q 1375 441 1716 441 
Q 2309 441 2620 675 
Q 2931 909 2931 1356 
Q 2931 1769 2642 2001 
Q 2353 2234 1838 2234 
L 1294 2234 
L 1294 2753 
L 1863 2753 
Q 2328 2753 2575 2939 
Q 2822 3125 2822 3475 
Q 2822 3834 2567 4026 
Q 2313 4219 1838 4219 
Q 1578 4219 1281 4162 
Q 984 4106 628 3988 
L 628 4550 
Q 988 4650 1302 4700 
Q 1616 4750 1894 4750 
Q 2613 4750 3031 4423 
Q 3450 4097 3450 3541 
Q 3450 3153 3228 2886 
Q 3006 2619 2597 2516 
z
" transform="scale(0.015625)"/>
      </defs>
      <use xlink:href="#DejaVuSans-d7" transform="translate(0 0.765625)"/>
      <use xlink:href="#DejaVuSans-31" transform="translate(83.789062 0.765625)"/>
      <use xlink:href="#DejaVuSans-30" transform="translate(147.412109 0.765625)"/>
      <use xlink:href="#DejaVuSans-33" transform="translate(211.992188 39.046875) scale(0.7)"/>
     </g>
    </g>
   </g>
   <g id="matplotlib.axis_2">
    <g id="ytick_1">
     <g id="line2d_4">
      <defs>
       <path id="mb9367a3767" d="M 0 0 
L -3.5 0 
" style="stroke: #000000; stroke-width: 0.8"/>
      </defs>
      <g>
       <use xlink:href="#mb9367a3767" x="36" y="155.28" style="stroke: #000000; stroke-width: 0.8"/>
      </g>
     </g>
     <g id="text_6">
      <!-- $\mathdefault{250}$ -->
      <g transform="translate(6.08 159.839063) scale(0.12 -0.12)">
       <use xlink:href="#DejaVuSans-32" transform="translate(0 0.78125)"/>
       <use xlink:href="#DejaVuSans-35" transform="translate(63.623047 0.78125)"/>
       <use xlink:href="#DejaVuSans-30" transform="translate(127.246094 0.78125)"/>
      </g>
     </g>
    </g>
    <g id="ytick_2">
     <g id="line2d_5">
      <g>
       <use xlink:href="#mb9367a3767" x="36" y="109.08" style="stroke: #000000; stroke-width: 0.8"/>
      </g>
     </g>
     <g id="text_7">
      <!-- $\mathdefault{500}$ -->
      <g transform="translate(6.08 113.639062) scale(0.12 -0.12)">
       <use xlink:href="#DejaVuSans-35" transform="translate(0 0.78125)"/>
       <use xlink:href="#DejaVuSans-30" transform="translate(63.623047 0.78125)"/>
       <use xlink:href="#DejaVuSans-30" transform="translate(127.246094 0.78125)"/>
      </g>
     </g>
    </g>
    <g id="ytick_3">
     <g id="line2d_6">
      <g>
       <use xlink:href="#mb9367a3767" x="36" y="62.88" style="stroke: #000000; stroke-width: 0.8"/>
      </g>
     </g>
     <g id="text_8">
      <!-- $\mathdefault{750}$ -->
      <g transform="translate(6.08 67.439062) scale(0.12 -0.12)">
       <use xlink:href="#DejaVuSans-37" transform="translate(0 0.78125)"/>
       <use xlink:href="#DejaVuSans-35" transform="translate(63.623047 0.78125)"/>
       <use xlink:href="#DejaVuSans-30" transform="translate(127.246094 0.78125)"/>
      </g>
     </g>
    </g>
    <g id="text_9">
     <!-- Diploid N$_e$2 -->
     <g transform="translate(-1.28 154.36) rotate(-90) scale(0.16 -0.16)">
      <use xlink:href="#DejaVuSans-44" transform="translate(0 0.015625)"/>
      <use xlink:href="#DejaVuSans-69" transform="translate(77.001953 0.015625)"/>
      <use xlink:href="#DejaVuSans-70" transform="translate(104.785156 0.015625)"/>
      <use xlink:href="#DejaVuSans-6c" transform="translate(168.261719 0.015625)"/>
      <use xlink:href="#DejaVuSans-6f" transform="translate(196.044922 0.015625)"/>
      <use xlink:href="#DejaVuSans-69" transform="translate(257.226562 0.015625)"/>
      <use xlink:href="#DejaVuSans-64" transform="translate(285.009766 0.015625)"/>
      <use xlink:href="#DejaVuSans-20" transform="translate(348.486328 0.015625)"/>
      <use xlink:href="#DejaVuSans-4e" transform="translate(380.273438 0.015625)"/>
      <use xlink:href="#DejaVuSans-Oblique-65" transform="translate(456.035156 -16.390625) scale(0.7)"/>
      <use xlink:href="#DejaVuSans-32" transform="translate(501.835938 0.015625)"/>
     </g>
    </g>
    <g id="text_10">
     <!-- $\times\mathdefault{10^{3}}\mathdefault{}$ -->
     <g transform="translate(36 22.92) scale(0.1 -0.1)">
      <use xlink:href="#DejaVuSans-d7" transform="translate(0 0.765625)"/>
      <use xlink:href="#DejaVuSans-31" transform="translate(83.789062 0.765625)"/>
      <use xlink:href="#DejaVuSans-30" transform="translate(147.412109 0.765625)"/>
      <use xlink:href="#DejaVuSans-33" transform="translate(211.992188 39.046875) scale(0.7)"/>
     </g>
    </g>
   </g>
   <g id="patch_3">
    <path d="M 36 192.24 
L 36 25.92 
" style="fill: none; stroke: #000000; stroke-width: 0.8; stroke-linejoin: miter; stroke-linecap: square"/>
   </g>
   <g id="patch_4">
    <path d="M 214.56 192.24 
L 214.56 25.92 
" style="fill: none; stroke: #000000; stroke-width: 0.8; stroke-linejoin: miter; stroke-linecap: square"/>
   </g>
   <g id="patch_5">
    <path d="M 36 192.24 
L 214.56 192.24 
" style="fill: none; stroke: #000000; stroke-width: 0.8; stroke-linejoin: miter; stroke-linecap: square"/>
   </g>
   <g id="patch_6">
    <path d="M 36 25.92 
L 214.56 25.92 
" style="fill: none; stroke: #000000; stroke-width: 0.8; stroke-linejoin: miter; stroke-linecap: square"/>
   </g>
   <g id="text_11">
    <!-- Ne0Ne2-MSC-GT-P2-S4 -->
    <g transform="translate(33.735 10.92) scale(0.16 -0.16)">
     <defs>
      <path id="DejaVuSans-65" d="M 3597 1894 
L 3597 1613 
L 953 1613 
Q 991 1019 1311 708 
Q 1631 397 2203 397 
Q 2534 397 2845 478 
Q 3156 559 3463 722 
L 3463 178 
Q 3153 47 2828 -22 
Q 2503 -91 2169 -91 
Q 1331 -91 842 396 
Q 353 884 353 1716 
Q 353 2575 817 3079 
Q 1281 3584 2069 3584 
Q 2775 3584 3186 3129 
Q 3597 2675 3597 1894 
z
M 3022 2063 
Q 3016 2534 2758 2815 
Q 2500 3097 2075 3097 
Q 1594 3097 1305 2825 
Q 1016 2553 972 2059 
L 3022 2063 
z
" transform="scale(0.015625)"/>
      <path id="DejaVuSans-2d" d="M 313 2009 
L 1997 2009 
L 1997 1497 
L 313 1497 
L 313 2009 
z
" transform="scale(0.015625)"/>
      <path id="DejaVuSans-4d" d="M 628 4666 
L 1569 4666 
L 2759 1491 
L 3956 4666 
L 4897 4666 
L 4897 0 
L 4281 0 
L 4281 4097 
L 3078 897 
L 2444 897 
L 1241 4097 
L 1241 0 
L 628 0 
L 628 4666 
z
" transform="scale(0.015625)"/>
      <path id="DejaVuSans-53" d="M 3425 4513 
L 3425 3897 
Q 3066 4069 2747 4153 
Q 2428 4238 2131 4238 
Q 1616 4238 1336 4038 
Q 1056 3838 1056 3469 
Q 1056 3159 1242 3001 
Q 1428 2844 1947 2747 
L 2328 2669 
Q 3034 2534 3370 2195 
Q 3706 1856 3706 1288 
Q 3706 609 3251 259 
Q 2797 -91 1919 -91 
Q 1588 -91 1214 -16 
Q 841 59 441 206 
L 441 856 
Q 825 641 1194 531 
Q 1563 422 1919 422 
Q 2459 422 2753 634 
Q 3047 847 3047 1241 
Q 3047 1584 2836 1778 
Q 2625 1972 2144 2069 
L 1759 2144 
Q 1053 2284 737 2584 
Q 422 2884 422 3419 
Q 422 4038 858 4394 
Q 1294 4750 2059 4750 
Q 2388 4750 2728 4690 
Q 3069 4631 3425 4513 
z
" transform="scale(0.015625)"/>
      <path id="DejaVuSans-43" d="M 4122 4306 
L 4122 3641 
Q 3803 3938 3442 4084 
Q 3081 4231 2675 4231 
Q 1875 4231 1450 3742 
Q 1025 3253 1025 2328 
Q 1025 1406 1450 917 
Q 1875 428 2675 428 
Q 3081 428 3442 575 
Q 3803 722 4122 1019 
L 4122 359 
Q 3791 134 3420 21 
Q 3050 -91 2638 -91 
Q 1578 -91 968 557 
Q 359 1206 359 2328 
Q 359 3453 968 4101 
Q 1578 4750 2638 4750 
Q 3056 4750 3426 4639 
Q 3797 4528 4122 4306 
z
" transform="scale(0.015625)"/>
      <path id="DejaVuSans-47" d="M 3809 666 
L 3809 1919 
L 2778 1919 
L 2778 2438 
L 4434 2438 
L 4434 434 
Q 4069 175 3628 42 
Q 3188 -91 2688 -91 
Q 1594 -91 976 548 
Q 359 1188 359 2328 
Q 359 3472 976 4111 
Q 1594 4750 2688 4750 
Q 3144 4750 3555 4637 
Q 3966 4525 4313 4306 
L 4313 3634 
Q 3963 3931 3569 4081 
Q 3175 4231 2741 4231 
Q 1884 4231 1454 3753 
Q 1025 3275 1025 2328 
Q 1025 1384 1454 906 
Q 1884 428 2741 428 
Q 3075 428 3337 486 
Q 3600 544 3809 666 
z
" transform="scale(0.015625)"/>
      <path id="DejaVuSans-54" d="M -19 4666 
L 3928 4666 
L 3928 4134 
L 2272 4134 
L 2272 0 
L 1638 0 
L 1638 4134 
L -19 4134 
L -19 4666 
z
" transform="scale(0.015625)"/>
      <path id="DejaVuSans-50" d="M 1259 4147 
L 1259 2394 
L 2053 2394 
Q 2494 2394 2734 2622 
Q 2975 2850 2975 3272 
Q 2975 3691 2734 3919 
Q 2494 4147 2053 4147 
L 1259 4147 
z
M 628 4666 
L 2053 4666 
Q 2838 4666 3239 4311 
Q 3641 3956 3641 3272 
Q 3641 2581 3239 2228 
Q 2838 1875 2053 1875 
L 1259 1875 
L 1259 0 
L 628 0 
L 628 4666 
z
" transform="scale(0.015625)"/>
      <path id="DejaVuSans-34" d="M 2419 4116 
L 825 1625 
L 2419 1625 
L 2419 4116 
z
M 2253 4666 
L 3047 4666 
L 3047 1625 
L 3713 1625 
L 3713 1100 
L 3047 1100 
L 3047 0 
L 2419 0 
L 2419 1100 
L 313 1100 
L 313 1709 
L 2253 4666 
z
" transform="scale(0.015625)"/>
     </defs>
     <use xlink:href="#DejaVuSans-4e"/>
     <use xlink:href="#DejaVuSans-65" x="74.804688"/>
     <use xlink:href="#DejaVuSans-30" x="136.328125"/>
     <use xlink:href="#DejaVuSans-4e" x="199.951172"/>
     <use xlink:href="#DejaVuSans-65" x="274.755859"/>
     <use xlink:href="#DejaVuSans-32" x="336.279297"/>
     <use xlink:href="#DejaVuSans-2d" x="399.902344"/>
     <use xlink:href="#DejaVuSans-4d" x="435.986328"/>
     <use xlink:href="#DejaVuSans-53" x="522.265625"/>
     <use xlink:href="#DejaVuSans-43" x="585.742188"/>
     <use xlink:href="#DejaVuSans-2d" x="655.566406"/>
     <use xlink:href="#DejaVuSans-47" x="695.275391"/>
     <use xlink:href="#DejaVuSans-54" x="769.140625"/>
     <use xlink:href="#DejaVuSans-2d" x="821.099609"/>
     <use xlink:href="#DejaVuSans-50" x="857.183594"/>
     <use xlink:href="#DejaVuSans-32" x="917.486328"/>
     <use xlink:href="#DejaVuSans-2d" x="981.109375"/>
     <use xlink:href="#DejaVuSans-53" x="1017.193359"/>
     <use xlink:href="#DejaVuSans-34" x="1080.669922"/>
    </g>
   </g>
  </g>
  <g id="axes_2">
   <g id="patch_7">
    <path d="M 225.72 192.24 
L 234.036 192.24 
L 234.036 25.92 
L 225.72 25.92 
z
" style="fill: #ffffff"/>
   </g>
   <g id="QuadMesh_1">
    <path d="M 225.72 192.24 
L 234.036 192.24 
L 234.036 186.504828 
L 225.72 186.504828 
L 225.72 192.24 
" clip-path="url(#pb031398eac)" style="fill: #440154"/>
    <path d="M 225.72 186.504828 
L 234.036 186.504828 
L 234.036 180.769655 
L 225.72 180.769655 
L 225.72 186.504828 
" clip-path="url(#pb031398eac)" style="fill: #440154"/>
    <path d="M 225.72 180.769655 
L 234.036 180.769655 
L 234.036 175.034483 
L 225.72 175.034483 
L 225.72 180.769655 
" clip-path="url(#pb031398eac)" style="fill: #440154"/>
    <path d="M 225.72 175.034483 
L 234.036 175.034483 
L 234.036 169.29931 
L 225.72 169.29931 
L 225.72 175.034483 
" clip-path="url(#pb031398eac)" style="fill: #440154"/>
    <path d="M 225.72 169.29931 
L 234.036 169.29931 
L 234.036 163.564138 
L 225.72 163.564138 
L 225.72 169.29931 
" clip-path="url(#pb031398eac)" style="fill: #440154"/>
    <path d="M 225.72 163.564138 
L 234.036 163.564138 
L 234.036 157.828966 
L 225.72 157.828966 
L 225.72 163.564138 
" clip-path="url(#pb031398eac)" style="fill: #440154"/>
    <path d="M 225.72 157.828966 
L 234.036 157.828966 
L 234.036 152.093793 
L 225.72 152.093793 
L 225.72 157.828966 
" clip-path="url(#pb031398eac)" style="fill: #440154"/>
    <path d="M 225.72 152.093793 
L 234.036 152.093793 
L 234.036 146.358621 
L 225.72 146.358621 
L 225.72 152.093793 
" clip-path="url(#pb031398eac)" style="fill: #440154"/>
    <path d="M 225.72 146.358621 
L 234.036 146.358621 
L 234.036 140.623448 
L 225.72 140.623448 
L 225.72 146.358621 
" clip-path="url(#pb031398eac)" style="fill: #440154"/>
    <path d="M 225.72 140.623448 
L 234.036 140.623448 
L 234.036 134.888276 
L 225.72 134.888276 
L 225.72 140.623448 
" clip-path="url(#pb031398eac)" style="fill: #440154"/>
    <path d="M 225.72 134.888276 
L 234.036 134.888276 
L 234.036 129.153103 
L 225.72 129.153103 
L 225.72 134.888276 
" clip-path="url(#pb031398eac)" style="fill: #440154"/>
    <path d="M 225.72 129.153103 
L 234.036 129.153103 
L 234.036 123.417931 
L 225.72 123.417931 
L 225.72 129.153103 
" clip-path="url(#pb031398eac)" style="fill: #440154"/>
    <path d="M 225.72 123.417931 
L 234.036 123.417931 
L 234.036 117.682759 
L 225.72 117.682759 
L 225.72 123.417931 
" clip-path="url(#pb031398eac)" style="fill: #440154"/>
    <path d="M 225.72 117.682759 
L 234.036 117.682759 
L 234.036 111.947586 
L 225.72 111.947586 
L 225.72 117.682759 
" clip-path="url(#pb031398eac)" style="fill: #440154"/>
    <path d="M 225.72 111.947586 
L 234.036 111.947586 
L 234.036 106.212414 
L 225.72 106.212414 
L 225.72 111.947586 
" clip-path="url(#pb031398eac)" style="fill: #440154"/>
    <path d="M 225.72 106.212414 
L 234.036 106.212414 
L 234.036 100.477241 
L 225.72 100.477241 
L 225.72 106.212414 
" clip-path="url(#pb031398eac)" style="fill: #481769"/>
    <path d="M 225.72 100.477241 
L 234.036 100.477241 
L 234.036 94.742069 
L 225.72 94.742069 
L 225.72 100.477241 
" clip-path="url(#pb031398eac)" style="fill: #472d7b"/>
    <path d="M 225.72 94.742069 
L 234.036 94.742069 
L 234.036 89.006897 
L 225.72 89.006897 
L 225.72 94.742069 
" clip-path="url(#pb031398eac)" style="fill: #414287"/>
    <path d="M 225.72 89.006897 
L 234.036 89.006897 
L 234.036 83.271724 
L 225.72 83.271724 
L 225.72 89.006897 
" clip-path="url(#pb031398eac)" style="fill: #39568c"/>
    <path d="M 225.72 83.271724 
L 234.036 83.271724 
L 234.036 77.536552 
L 225.72 77.536552 
L 225.72 83.271724 
" clip-path="url(#pb031398eac)" style="fill: #30698e"/>
    <path d="M 225.72 77.536552 
L 234.036 77.536552 
L 234.036 71.801379 
L 225.72 71.801379 
L 225.72 77.536552 
" clip-path="url(#pb031398eac)" style="fill: #297a8e"/>
    <path d="M 225.72 71.801379 
L 234.036 71.801379 
L 234.036 66.066207 
L 225.72 66.066207 
L 225.72 71.801379 
" clip-path="url(#pb031398eac)" style="fill: #228b8d"/>
    <path d="M 225.72 66.066207 
L 234.036 66.066207 
L 234.036 60.331034 
L 225.72 60.331034 
L 225.72 66.066207 
" clip-path="url(#pb031398eac)" style="fill: #1e9c89"/>
    <path d="M 225.72 60.331034 
L 234.036 60.331034 
L 234.036 54.595862 
L 225.72 54.595862 
L 225.72 60.331034 
" clip-path="url(#pb031398eac)" style="fill: #25ac82"/>
    <path d="M 225.72 54.595862 
L 234.036 54.595862 
L 234.036 48.86069 
L 225.72 48.86069 
L 225.72 54.595862 
" clip-path="url(#pb031398eac)" style="fill: #3dbc74"/>
    <path d="M 225.72 48.86069 
L 234.036 48.86069 
L 234.036 43.125517 
L 225.72 43.125517 
L 225.72 48.86069 
" clip-path="url(#pb031398eac)" style="fill: #60ca60"/>
    <path d="M 225.72 43.125517 
L 234.036 43.125517 
L 234.036 37.390345 
L 225.72 37.390345 
L 225.72 43.125517 
" clip-path="url(#pb031398eac)" style="fill: #8bd646"/>
    <path d="M 225.72 37.390345 
L 234.036 37.390345 
L 234.036 31.655172 
L 225.72 31.655172 
L 225.72 37.390345 
" clip-path="url(#pb031398eac)" style="fill: #bade28"/>
    <path d="M 225.72 31.655172 
L 234.036 31.655172 
L 234.036 25.92 
L 225.72 25.92 
L 225.72 31.655172 
" clip-path="url(#pb031398eac)" style="fill: #eae51a"/>
   </g>
   <g id="matplotlib.axis_3"/>
   <g id="matplotlib.axis_4">
    <g id="ytick_4">
     <g id="line2d_7">
      <defs>
       <path id="mfc85d35149" d="M 0 0 
L 3.5 0 
" style="stroke: #000000; stroke-width: 0.8"/>
      </defs>
      <g>
       <use xlink:href="#mfc85d35149" x="234.036" y="180.769655" style="stroke: #000000; stroke-width: 0.8"/>
      </g>
     </g>
     <g id="text_12">
      <!-- $\mathdefault{6640}$ -->
      <g transform="translate(241.036 184.568874) scale(0.1 -0.1)">
       <defs>
        <path id="DejaVuSans-2212" d="M 678 2272 
L 4684 2272 
L 4684 1741 
L 678 1741 
L 678 2272 
z
" transform="scale(0.015625)"/>
        <path id="DejaVuSans-36" d="M 2113 2584 
Q 1688 2584 1439 2293 
Q 1191 2003 1191 1497 
Q 1191 994 1439 701 
Q 1688 409 2113 409 
Q 2538 409 2786 701 
Q 3034 994 3034 1497 
Q 3034 2003 2786 2293 
Q 2538 2584 2113 2584 
z
M 3366 4563 
L 3366 3988 
Q 3128 4100 2886 4159 
Q 2644 4219 2406 4219 
Q 1781 4219 1451 3797 
Q 1122 3375 1075 2522 
Q 1259 2794 1537 2939 
Q 1816 3084 2150 3084 
Q 2853 3084 3261 2657 
Q 3669 2231 3669 1497 
Q 3669 778 3244 343 
Q 2819 -91 2113 -91 
Q 1303 -91 875 529 
Q 447 1150 447 2328 
Q 447 3434 972 4092 
Q 1497 4750 2381 4750 
Q 2619 4750 2861 4703 
Q 3103 4656 3366 4563 
z
" transform="scale(0.015625)"/>
       </defs>
       <use xlink:href="#DejaVuSans-2212" transform="translate(0 0.78125)"/>
       <use xlink:href="#DejaVuSans-36" transform="translate(83.789062 0.78125)"/>
       <use xlink:href="#DejaVuSans-36" transform="translate(147.412109 0.78125)"/>
       <use xlink:href="#DejaVuSans-34" transform="translate(211.035156 0.78125)"/>
       <use xlink:href="#DejaVuSans-30" transform="translate(274.658203 0.78125)"/>
      </g>
     </g>
    </g>
    <g id="ytick_5">
     <g id="line2d_8">
      <g>
       <use xlink:href="#mfc85d35149" x="234.036" y="163.564138" style="stroke: #000000; stroke-width: 0.8"/>
      </g>
     </g>
     <g id="text_13">
      <!-- $\mathdefault{6520}$ -->
      <g transform="translate(241.036 167.363357) scale(0.1 -0.1)">
       <use xlink:href="#DejaVuSans-2212" transform="translate(0 0.78125)"/>
       <use xlink:href="#DejaVuSans-36" transform="translate(83.789062 0.78125)"/>
       <use xlink:href="#DejaVuSans-35" transform="translate(147.412109 0.78125)"/>
       <use xlink:href="#DejaVuSans-32" transform="translate(211.035156 0.78125)"/>
       <use xlink:href="#DejaVuSans-30" transform="translate(274.658203 0.78125)"/>
      </g>
     </g>
    </g>
    <g id="ytick_6">
     <g id="line2d_9">
      <g>
       <use xlink:href="#mfc85d35149" x="234.036" y="146.358621" style="stroke: #000000; stroke-width: 0.8"/>
      </g>
     </g>
     <g id="text_14">
      <!-- $\mathdefault{6400}$ -->
      <g transform="translate(241.036 150.157839) scale(0.1 -0.1)">
       <use xlink:href="#DejaVuSans-2212" transform="translate(0 0.78125)"/>
       <use xlink:href="#DejaVuSans-36" transform="translate(83.789062 0.78125)"/>
       <use xlink:href="#DejaVuSans-34" transform="translate(147.412109 0.78125)"/>
       <use xlink:href="#DejaVuSans-30" transform="translate(211.035156 0.78125)"/>
       <use xlink:href="#DejaVuSans-30" transform="translate(274.658203 0.78125)"/>
      </g>
     </g>
    </g>
    <g id="ytick_7">
     <g id="line2d_10">
      <g>
       <use xlink:href="#mfc85d35149" x="234.036" y="129.153103" style="stroke: #000000; stroke-width: 0.8"/>
      </g>
     </g>
     <g id="text_15">
      <!-- $\mathdefault{6280}$ -->
      <g transform="translate(241.036 132.952322) scale(0.1 -0.1)">
       <defs>
        <path id="DejaVuSans-38" d="M 2034 2216 
Q 1584 2216 1326 1975 
Q 1069 1734 1069 1313 
Q 1069 891 1326 650 
Q 1584 409 2034 409 
Q 2484 409 2743 651 
Q 3003 894 3003 1313 
Q 3003 1734 2745 1975 
Q 2488 2216 2034 2216 
z
M 1403 2484 
Q 997 2584 770 2862 
Q 544 3141 544 3541 
Q 544 4100 942 4425 
Q 1341 4750 2034 4750 
Q 2731 4750 3128 4425 
Q 3525 4100 3525 3541 
Q 3525 3141 3298 2862 
Q 3072 2584 2669 2484 
Q 3125 2378 3379 2068 
Q 3634 1759 3634 1313 
Q 3634 634 3220 271 
Q 2806 -91 2034 -91 
Q 1263 -91 848 271 
Q 434 634 434 1313 
Q 434 1759 690 2068 
Q 947 2378 1403 2484 
z
M 1172 3481 
Q 1172 3119 1398 2916 
Q 1625 2713 2034 2713 
Q 2441 2713 2670 2916 
Q 2900 3119 2900 3481 
Q 2900 3844 2670 4047 
Q 2441 4250 2034 4250 
Q 1625 4250 1398 4047 
Q 1172 3844 1172 3481 
z
" transform="scale(0.015625)"/>
       </defs>
       <use xlink:href="#DejaVuSans-2212" transform="translate(0 0.78125)"/>
       <use xlink:href="#DejaVuSans-36" transform="translate(83.789062 0.78125)"/>
       <use xlink:href="#DejaVuSans-32" transform="translate(147.412109 0.78125)"/>
       <use xlink:href="#DejaVuSans-38" transform="translate(211.035156 0.78125)"/>
       <use xlink:href="#DejaVuSans-30" transform="translate(274.658203 0.78125)"/>
      </g>
     </g>
    </g>
    <g id="ytick_8">
     <g id="line2d_11">
      <g>
       <use xlink:href="#mfc85d35149" x="234.036" y="111.947586" style="stroke: #000000; stroke-width: 0.8"/>
      </g>
     </g>
     <g id="text_16">
      <!-- $\mathdefault{6160}$ -->
      <g transform="translate(241.036 115.746805) scale(0.1 -0.1)">
       <use xlink:href="#DejaVuSans-2212" transform="translate(0 0.78125)"/>
       <use xlink:href="#DejaVuSans-36" transform="translate(83.789062 0.78125)"/>
       <use xlink:href="#DejaVuSans-31" transform="translate(147.412109 0.78125)"/>
       <use xlink:href="#DejaVuSans-36" transform="translate(211.035156 0.78125)"/>
       <use xlink:href="#DejaVuSans-30" transform="translate(274.658203 0.78125)"/>
      </g>
     </g>
    </g>
    <g id="ytick_9">
     <g id="line2d_12">
      <g>
       <use xlink:href="#mfc85d35149" x="234.036" y="94.742069" style="stroke: #000000; stroke-width: 0.8"/>
      </g>
     </g>
     <g id="text_17">
      <!-- $\mathdefault{6040}$ -->
      <g transform="translate(241.036 98.541288) scale(0.1 -0.1)">
       <use xlink:href="#DejaVuSans-2212" transform="translate(0 0.78125)"/>
       <use xlink:href="#DejaVuSans-36" transform="translate(83.789062 0.78125)"/>
       <use xlink:href="#DejaVuSans-30" transform="translate(147.412109 0.78125)"/>
       <use xlink:href="#DejaVuSans-34" transform="translate(211.035156 0.78125)"/>
       <use xlink:href="#DejaVuSans-30" transform="translate(274.658203 0.78125)"/>
      </g>
     </g>
    </g>
    <g id="ytick_10">
     <g id="line2d_13">
      <g>
       <use xlink:href="#mfc85d35149" x="234.036" y="77.536552" style="stroke: #000000; stroke-width: 0.8"/>
      </g>
     </g>
     <g id="text_18">
      <!-- $\mathdefault{5920}$ -->
      <g transform="translate(241.036 81.33577) scale(0.1 -0.1)">
       <defs>
        <path id="DejaVuSans-39" d="M 703 97 
L 703 672 
Q 941 559 1184 500 
Q 1428 441 1663 441 
Q 2288 441 2617 861 
Q 2947 1281 2994 2138 
Q 2813 1869 2534 1725 
Q 2256 1581 1919 1581 
Q 1219 1581 811 2004 
Q 403 2428 403 3163 
Q 403 3881 828 4315 
Q 1253 4750 1959 4750 
Q 2769 4750 3195 4129 
Q 3622 3509 3622 2328 
Q 3622 1225 3098 567 
Q 2575 -91 1691 -91 
Q 1453 -91 1209 -44 
Q 966 3 703 97 
z
M 1959 2075 
Q 2384 2075 2632 2365 
Q 2881 2656 2881 3163 
Q 2881 3666 2632 3958 
Q 2384 4250 1959 4250 
Q 1534 4250 1286 3958 
Q 1038 3666 1038 3163 
Q 1038 2656 1286 2365 
Q 1534 2075 1959 2075 
z
" transform="scale(0.015625)"/>
       </defs>
       <use xlink:href="#DejaVuSans-2212" transform="translate(0 0.78125)"/>
       <use xlink:href="#DejaVuSans-35" transform="translate(83.789062 0.78125)"/>
       <use xlink:href="#DejaVuSans-39" transform="translate(141.912109 0.78125)"/>
       <use xlink:href="#DejaVuSans-32" transform="translate(203.785156 0.78125)"/>
       <use xlink:href="#DejaVuSans-30" transform="translate(267.408203 0.78125)"/>
      </g>
     </g>
    </g>
    <g id="ytick_11">
     <g id="line2d_14">
      <g>
       <use xlink:href="#mfc85d35149" x="234.036" y="60.331034" style="stroke: #000000; stroke-width: 0.8"/>
      </g>
     </g>
     <g id="text_19">
      <!-- $\mathdefault{5800}$ -->
      <g transform="translate(241.036 64.130253) scale(0.1 -0.1)">
       <use xlink:href="#DejaVuSans-2212" transform="translate(0 0.78125)"/>
       <use xlink:href="#DejaVuSans-35" transform="translate(83.789062 0.78125)"/>
       <use xlink:href="#DejaVuSans-38" transform="translate(147.412109 0.78125)"/>
       <use xlink:href="#DejaVuSans-30" transform="translate(211.035156 0.78125)"/>
       <use xlink:href="#DejaVuSans-30" transform="translate(274.658203 0.78125)"/>
      </g>
     </g>
    </g>
    <g id="ytick_12">
     <g id="line2d_15">
      <g>
       <use xlink:href="#mfc85d35149" x="234.036" y="43.125517" style="stroke: #000000; stroke-width: 0.8"/>
      </g>
     </g>
     <g id="text_20">
      <!-- $\mathdefault{5680}$ -->
      <g transform="translate(241.036 46.924736) scale(0.1 -0.1)">
       <use xlink:href="#DejaVuSans-2212" transform="translate(0 0.78125)"/>
       <use xlink:href="#DejaVuSans-35" transform="translate(83.789062 0.78125)"/>
       <use xlink:href="#DejaVuSans-36" transform="translate(147.412109 0.78125)"/>
       <use xlink:href="#DejaVuSans-38" transform="translate(211.035156 0.78125)"/>
       <use xlink:href="#DejaVuSans-30" transform="translate(274.658203 0.78125)"/>
      </g>
     </g>
    </g>
    <g id="ytick_13">
     <g id="line2d_16">
      <g>
       <use xlink:href="#mfc85d35149" x="234.036" y="25.92" style="stroke: #000000; stroke-width: 0.8"/>
      </g>
     </g>
     <g id="text_21">
      <!-- $\mathdefault{5560}$ -->
      <g transform="translate(241.036 29.719219) scale(0.1 -0.1)">
       <use xlink:href="#DejaVuSans-2212" transform="translate(0 0.78125)"/>
       <use xlink:href="#DejaVuSans-35" transform="translate(83.789062 0.78125)"/>
       <use xlink:href="#DejaVuSans-35" transform="translate(147.412109 0.78125)"/>
       <use xlink:href="#DejaVuSans-36" transform="translate(211.035156 0.78125)"/>
       <use xlink:href="#DejaVuSans-30" transform="translate(274.658203 0.78125)"/>
      </g>
     </g>
    </g>
    <g id="text_22">
     <!-- log likelihood -->
     <g transform="translate(288.054125 148.704375) rotate(-90) scale(0.12 -0.12)">
      <defs>
       <path id="DejaVuSans-67" d="M 2906 1791 
Q 2906 2416 2648 2759 
Q 2391 3103 1925 3103 
Q 1463 3103 1205 2759 
Q 947 2416 947 1791 
Q 947 1169 1205 825 
Q 1463 481 1925 481 
Q 2391 481 2648 825 
Q 2906 1169 2906 1791 
z
M 3481 434 
Q 3481 -459 3084 -895 
Q 2688 -1331 1869 -1331 
Q 1566 -1331 1297 -1286 
Q 1028 -1241 775 -1147 
L 775 -588 
Q 1028 -725 1275 -790 
Q 1522 -856 1778 -856 
Q 2344 -856 2625 -561 
Q 2906 -266 2906 331 
L 2906 616 
Q 2728 306 2450 153 
Q 2172 0 1784 0 
Q 1141 0 747 490 
Q 353 981 353 1791 
Q 353 2603 747 3093 
Q 1141 3584 1784 3584 
Q 2172 3584 2450 3431 
Q 2728 3278 2906 2969 
L 2906 3500 
L 3481 3500 
L 3481 434 
z
" transform="scale(0.015625)"/>
       <path id="DejaVuSans-6b" d="M 581 4863 
L 1159 4863 
L 1159 1991 
L 2875 3500 
L 3609 3500 
L 1753 1863 
L 3688 0 
L 2938 0 
L 1159 1709 
L 1159 0 
L 581 0 
L 581 4863 
z
" transform="scale(0.015625)"/>
       <path id="DejaVuSans-68" d="M 3513 2113 
L 3513 0 
L 2938 0 
L 2938 2094 
Q 2938 2591 2744 2837 
Q 2550 3084 2163 3084 
Q 1697 3084 1428 2787 
Q 1159 2491 1159 1978 
L 1159 0 
L 581 0 
L 581 4863 
L 1159 4863 
L 1159 2956 
Q 1366 3272 1645 3428 
Q 1925 3584 2291 3584 
Q 2894 3584 3203 3211 
Q 3513 2838 3513 2113 
z
" transform="scale(0.015625)"/>
      </defs>
      <use xlink:href="#DejaVuSans-6c"/>
      <use xlink:href="#DejaVuSans-6f" x="27.783203"/>
      <use xlink:href="#DejaVuSans-67" x="88.964844"/>
      <use xlink:href="#DejaVuSans-20" x="152.441406"/>
      <use xlink:href="#DejaVuSans-6c" x="184.228516"/>
      <use xlink:href="#DejaVuSans-69" x="212.011719"/>
      <use xlink:href="#DejaVuSans-6b" x="239.794922"/>
      <use xlink:href="#DejaVuSans-65" x="294.080078"/>
      <use xlink:href="#DejaVuSans-6c" x="355.603516"/>
      <use xlink:href="#DejaVuSans-69" x="383.386719"/>
      <use xlink:href="#DejaVuSans-68" x="411.169922"/>
      <use xlink:href="#DejaVuSans-6f" x="474.548828"/>
      <use xlink:href="#DejaVuSans-6f" x="535.730469"/>
      <use xlink:href="#DejaVuSans-64" x="596.912109"/>
     </g>
    </g>
    <g id="text_23">
     <!-- $\times\mathdefault{10^{3}}\mathdefault{}$ -->
     <g transform="translate(208.036 22.92) scale(0.1 -0.1)">
      <use xlink:href="#DejaVuSans-d7" transform="translate(0 0.765625)"/>
      <use xlink:href="#DejaVuSans-31" transform="translate(83.789062 0.765625)"/>
      <use xlink:href="#DejaVuSans-30" transform="translate(147.412109 0.765625)"/>
      <use xlink:href="#DejaVuSans-33" transform="translate(211.992188 39.046875) scale(0.7)"/>
     </g>
    </g>
   </g>
   <g id="LineCollection_1"/>
   <g id="patch_8">
    <path d="M 225.72 192.24 
L 229.878 192.24 
L 234.036 192.24 
L 234.036 25.92 
L 229.878 25.92 
L 225.72 25.92 
L 225.72 192.24 
z
" style="fill: none; stroke: #000000; stroke-width: 0.8; stroke-linejoin: miter; stroke-linecap: square"/>
   </g>
  </g>
 </g>
 <defs>
  <clipPath id="p9e73ebd58d">
   <rect x="36" y="25.92" width="178.56" height="166.32"/>
  </clipPath>
  <clipPath id="pb031398eac">
   <rect x="225.72" y="25.92" width="8.316" height="166.32"/>
  </clipPath>
 </defs>
</svg>
