<?xml version="1.0" encoding="utf-8" standalone="no"?>
<!DOCTYPE svg PUBLIC "-//W3C//DTD SVG 1.1//EN"
  "http://www.w3.org/Graphics/SVG/1.1/DTD/svg11.dtd">
<svg xmlns:xlink="http://www.w3.org/1999/xlink" width="288pt" height="216pt" viewBox="0 0 288 216" xmlns="http://www.w3.org/2000/svg" version="1.1">
 <metadata>
  <rdf:RDF xmlns:dc="http://purl.org/dc/elements/1.1/" xmlns:cc="http://creativecommons.org/ns#" xmlns:rdf="http://www.w3.org/1999/02/22-rdf-syntax-ns#">
   <cc:Work>
    <dc:type rdf:resource="http://purl.org/dc/dcmitype/StillImage"/>
    <dc:date>2023-07-18T17:53:45.753644</dc:date>
    <dc:format>image/svg+xml</dc:format>
    <dc:creator>
     <cc:Agent>
      <dc:title>Matplotlib v3.7.1, https://matplotlib.org/</dc:title>
     </cc:Agent>
    </dc:creator>
   </cc:Work>
  </rdf:RDF>
 </metadata>
 <defs>
  <style type="text/css">*{stroke-linejoin: round; stroke-linecap: butt}</style>
 </defs>
 <g id="figure_1">
  <g id="patch_1">
   <path d="M 0 216 
L 288 216 
L 288 0 
L 0 0 
z
" style="fill: #ffffff"/>
  </g>
  <g id="axes_1">
   <g id="patch_2">
    <path d="M 36 192.24 
L 214.56 192.24 
L 214.56 25.92 
L 36 25.92 
z
" style="fill: #ffffff"/>
   </g>
   <g id="PathCollection_1">
    <path d="M 36 186.696 
L 36 181.152 
L 36 175.608 
L 36 170.064 
L 36 164.52 
L 36 158.976 
L 36 153.432 
L 36 147.888 
L 36 142.344 
L 36 136.8 
L 36 131.256 
L 36 125.712 
L 36 120.168 
L 36 114.624 
L 36 109.08 
L 36 103.536 
L 36 97.992 
L 36 92.448 
L 36 86.904 
L 36 81.36 
L 36 75.816 
L 36 70.272 
L 36 64.728 
L 36 59.184 
L 36 53.64 
L 36 48.096 
L 36 42.552 
L 36 37.008 
L 36 31.464 
L 36 25.92 
L 36.203557 25.92 
L 36.203557 31.464 
L 36.203557 37.008 
L 36.203557 42.552 
L 36.203557 48.096 
L 36.203557 53.64 
L 36.203557 59.184 
L 36.203557 64.728 
L 36.203557 70.272 
L 36.203557 75.816 
L 36.203557 81.36 
L 36.203557 86.904 
L 36.203557 92.448 
L 36.203557 97.992 
L 36.203557 103.536 
L 36.203557 109.08 
L 36.203557 114.624 
L 36.203557 120.168 
L 36.203557 125.712 
L 36.203557 131.256 
L 36.203557 136.8 
L 36.203557 142.344 
L 36.203557 147.888 
L 36.203557 153.432 
L 36.203557 158.976 
L 36.203557 164.52 
L 36.203557 170.064 
L 36.203557 175.608 
L 36.203557 181.152 
L 36.203557 186.696 
L 36.203557 192.24 
L 36 192.24 
z
" clip-path="url(#p22f3578ceb)" style="fill: #440154"/>
   </g>
   <g id="PathCollection_2">
    <path d="M 36.203557 186.696 
L 36.203557 181.152 
L 36.203557 175.608 
L 36.203557 170.064 
L 36.203557 164.52 
L 36.203557 158.976 
L 36.203557 153.432 
L 36.203557 147.888 
L 36.203557 142.344 
L 36.203557 136.8 
L 36.203557 131.256 
L 36.203557 125.712 
L 36.203557 120.168 
L 36.203557 114.624 
L 36.203557 109.08 
L 36.203557 103.536 
L 36.203557 97.992 
L 36.203557 92.448 
L 36.203557 86.904 
L 36.203557 81.36 
L 36.203557 75.816 
L 36.203557 70.272 
L 36.203557 64.728 
L 36.203557 59.184 
L 36.203557 53.64 
L 36.203557 48.096 
L 36.203557 42.552 
L 36.203557 37.008 
L 36.203557 31.464 
L 36.203557 25.92 
L 36.554162 25.92 
L 36.554162 31.464 
L 36.554162 37.008 
L 36.554162 42.552 
L 36.554162 48.096 
L 36.554162 53.64 
L 36.554162 59.184 
L 36.554162 64.728 
L 36.554162 70.272 
L 36.554162 75.816 
L 36.554162 81.36 
L 36.554162 86.904 
L 36.554162 92.448 
L 36.554162 97.992 
L 36.554162 103.536 
L 36.554162 109.08 
L 36.554162 114.624 
L 36.554162 120.168 
L 36.554162 125.712 
L 36.554162 131.256 
L 36.554162 136.8 
L 36.554162 142.344 
L 36.554162 147.888 
L 36.554162 153.432 
L 36.554162 158.976 
L 36.554162 164.52 
L 36.554162 170.064 
L 36.554162 175.608 
L 36.554162 181.152 
L 36.554162 186.696 
L 36.554162 192.24 
L 36.203557 192.24 
z
" clip-path="url(#p22f3578ceb)" style="fill: #440154"/>
   </g>
   <g id="PathCollection_3">
    <path d="M 36.554162 186.696 
L 36.554162 181.152 
L 36.554162 175.608 
L 36.554162 170.064 
L 36.554162 164.52 
L 36.554162 158.976 
L 36.554162 153.432 
L 36.554162 147.888 
L 36.554162 142.344 
L 36.554162 136.8 
L 36.554162 131.256 
L 36.554162 125.712 
L 36.554162 120.168 
L 36.554162 114.624 
L 36.554162 109.08 
L 36.554162 103.536 
L 36.554162 97.992 
L 36.554162 92.448 
L 36.554162 86.904 
L 36.554162 81.36 
L 36.554162 75.816 
L 36.554162 70.272 
L 36.554162 64.728 
L 36.554162 59.184 
L 36.554162 53.64 
L 36.554162 48.096 
L 36.554162 42.552 
L 36.554162 37.008 
L 36.554162 31.464 
L 36.554162 25.92 
L 36.904766 25.92 
L 36.904766 31.464 
L 36.904766 37.008 
L 36.904766 42.552 
L 36.904766 48.096 
L 36.904766 53.64 
L 36.904766 59.184 
L 36.904766 64.728 
L 36.904766 70.272 
L 36.904766 75.816 
L 36.904766 81.36 
L 36.904766 86.904 
L 36.904766 92.448 
L 36.904766 97.992 
L 36.904766 103.536 
L 36.904766 109.08 
L 36.904766 114.624 
L 36.904766 120.168 
L 36.904766 125.712 
L 36.904766 131.256 
L 36.904766 136.8 
L 36.904766 142.344 
L 36.904766 147.888 
L 36.904766 153.432 
L 36.904766 158.976 
L 36.904766 164.52 
L 36.904766 170.064 
L 36.904766 175.608 
L 36.904766 181.152 
L 36.904766 186.696 
L 36.904766 192.24 
L 36.554162 192.24 
z
" clip-path="url(#p22f3578ceb)" style="fill: #440154"/>
   </g>
   <g id="PathCollection_4">
    <path d="M 36.904766 186.696 
L 36.904766 181.152 
L 36.904766 175.608 
L 36.904766 170.064 
L 36.904766 164.52 
L 36.904766 158.976 
L 36.904766 153.432 
L 36.904766 147.888 
L 36.904766 142.344 
L 36.904766 136.8 
L 36.904766 131.256 
L 36.904766 125.712 
L 36.904766 120.168 
L 36.904766 114.624 
L 36.904766 109.08 
L 36.904766 103.536 
L 36.904766 97.992 
L 36.904766 92.448 
L 36.904766 86.904 
L 36.904766 81.36 
L 36.904766 75.816 
L 36.904766 70.272 
L 36.904766 64.728 
L 36.904766 59.184 
L 36.904766 53.64 
L 36.904766 48.096 
L 36.904766 42.552 
L 36.904766 37.008 
L 36.904766 31.464 
L 36.904766 25.92 
L 37.255371 25.92 
L 37.255371 31.464 
L 37.255371 37.008 
L 37.255371 42.552 
L 37.255371 48.096 
L 37.255371 53.64 
L 37.255371 59.184 
L 37.255371 64.728 
L 37.255371 70.272 
L 37.255371 75.816 
L 37.255371 81.36 
L 37.255371 86.904 
L 37.255371 92.448 
L 37.255371 97.992 
L 37.255371 103.536 
L 37.255371 109.08 
L 37.255371 114.624 
L 37.255371 120.168 
L 37.255371 125.712 
L 37.255371 131.256 
L 37.255371 136.8 
L 37.255371 142.344 
L 37.255371 147.888 
L 37.255371 153.432 
L 37.255371 158.976 
L 37.255371 164.52 
L 37.255371 170.064 
L 37.255371 175.608 
L 37.255371 181.152 
L 37.255371 186.696 
L 37.255371 192.24 
L 36.904766 192.24 
z
" clip-path="url(#p22f3578ceb)" style="fill: #440154"/>
   </g>
   <g id="PathCollection_5">
    <path d="M 37.255371 186.696 
L 37.255371 181.152 
L 37.255371 175.608 
L 37.255371 170.064 
L 37.255371 164.52 
L 37.255371 158.976 
L 37.255371 153.432 
L 37.255371 147.888 
L 37.255371 142.344 
L 37.255371 136.8 
L 37.255371 131.256 
L 37.255371 125.712 
L 37.255371 120.168 
L 37.255371 114.624 
L 37.255371 109.08 
L 37.255371 103.536 
L 37.255371 97.992 
L 37.255371 92.448 
L 37.255371 86.904 
L 37.255371 81.36 
L 37.255371 75.816 
L 37.255371 70.272 
L 37.255371 64.728 
L 37.255371 59.184 
L 37.255371 53.64 
L 37.255371 48.096 
L 37.255371 42.552 
L 37.255371 37.008 
L 37.255371 31.464 
L 37.255371 25.92 
L 37.605975 25.92 
L 37.605975 31.464 
L 37.605975 37.008 
L 37.605975 42.552 
L 37.605975 48.096 
L 37.605975 53.64 
L 37.605975 59.184 
L 37.605975 64.728 
L 37.605975 70.272 
L 37.605975 75.816 
L 37.605975 81.36 
L 37.605975 86.904 
L 37.605975 92.448 
L 37.605975 97.992 
L 37.605975 103.536 
L 37.605975 109.08 
L 37.605975 114.624 
L 37.605975 120.168 
L 37.605975 125.712 
L 37.605975 131.256 
L 37.605975 136.8 
L 37.605975 142.344 
L 37.605975 147.888 
L 37.605975 153.432 
L 37.605975 158.976 
L 37.605975 164.52 
L 37.605975 170.064 
L 37.605975 175.608 
L 37.605975 181.152 
L 37.605975 186.696 
L 37.605975 192.24 
L 37.255371 192.24 
z
" clip-path="url(#p22f3578ceb)" style="fill: #440154"/>
   </g>
   <g id="PathCollection_6">
    <path d="M 37.605975 186.696 
L 37.605975 181.152 
L 37.605975 175.608 
L 37.605975 170.064 
L 37.605975 164.52 
L 37.605975 158.976 
L 37.605975 153.432 
L 37.605975 147.888 
L 37.605975 142.344 
L 37.605975 136.8 
L 37.605975 131.256 
L 37.605975 125.712 
L 37.605975 120.168 
L 37.605975 114.624 
L 37.605975 109.08 
L 37.605975 103.536 
L 37.605975 97.992 
L 37.605975 92.448 
L 37.605975 86.904 
L 37.605975 81.36 
L 37.605975 75.816 
L 37.605975 70.272 
L 37.605975 64.728 
L 37.605975 59.184 
L 37.605975 53.64 
L 37.605975 48.096 
L 37.605975 42.552 
L 37.605975 37.008 
L 37.605975 31.464 
L 37.605975 25.92 
L 37.956579 25.92 
L 37.956579 31.464 
L 37.956579 37.008 
L 37.956579 42.552 
L 37.956579 48.096 
L 37.956579 53.64 
L 37.956579 59.184 
L 37.956579 64.728 
L 37.956579 70.272 
L 37.956579 75.816 
L 37.956579 81.36 
L 37.956579 86.904 
L 37.956579 92.448 
L 37.956579 97.992 
L 37.956579 103.536 
L 37.956579 109.08 
L 37.956579 114.624 
L 37.956579 120.168 
L 37.956579 125.712 
L 37.956579 131.256 
L 37.956579 136.8 
L 37.956579 142.344 
L 37.956579 147.888 
L 37.956579 153.432 
L 37.956579 158.976 
L 37.956579 164.52 
L 37.956579 170.064 
L 37.956579 175.608 
L 37.956579 181.152 
L 37.956579 186.696 
L 37.956579 192.24 
L 37.605975 192.24 
z
" clip-path="url(#p22f3578ceb)" style="fill: #440154"/>
   </g>
   <g id="PathCollection_7">
    <path d="M 37.956579 186.696 
L 37.956579 181.152 
L 37.956579 175.608 
L 37.956579 170.064 
L 37.956579 164.52 
L 37.956579 158.976 
L 37.956579 153.432 
L 37.956579 147.888 
L 37.956579 142.344 
L 37.956579 136.8 
L 37.956579 131.256 
L 37.956579 125.712 
L 37.956579 120.168 
L 37.956579 114.624 
L 37.956579 109.08 
L 37.956579 103.536 
L 37.956579 97.992 
L 37.956579 92.448 
L 37.956579 86.904 
L 37.956579 81.36 
L 37.956579 75.816 
L 37.956579 70.272 
L 37.956579 64.728 
L 37.956579 59.184 
L 37.956579 53.64 
L 37.956579 48.096 
L 37.956579 42.552 
L 37.956579 37.008 
L 37.956579 31.464 
L 37.956579 25.92 
L 38.307184 25.92 
L 38.307184 31.464 
L 38.307184 37.008 
L 38.307184 42.552 
L 38.307184 48.096 
L 38.307184 53.64 
L 38.307184 59.184 
L 38.307184 64.728 
L 38.307184 70.272 
L 38.307184 75.816 
L 38.307184 81.36 
L 38.307184 86.904 
L 38.307184 92.448 
L 38.307184 97.992 
L 38.307184 103.536 
L 38.307184 109.08 
L 38.307184 114.624 
L 38.307184 120.168 
L 38.307184 125.712 
L 38.307184 131.256 
L 38.307184 136.8 
L 38.307184 142.344 
L 38.307184 147.888 
L 38.307184 153.432 
L 38.307184 158.976 
L 38.307184 164.52 
L 38.307184 170.064 
L 38.307184 175.608 
L 38.307184 181.152 
L 38.307184 186.696 
L 38.307184 192.24 
L 37.956579 192.24 
z
" clip-path="url(#p22f3578ceb)" style="fill: #440154"/>
   </g>
   <g id="PathCollection_8">
    <path d="M 38.307184 186.696 
L 38.307184 181.152 
L 38.307184 175.608 
L 38.307184 170.064 
L 38.307184 164.52 
L 38.307184 158.976 
L 38.307184 153.432 
L 38.307184 147.888 
L 38.307184 142.344 
L 38.307184 136.8 
L 38.307184 131.256 
L 38.307184 125.712 
L 38.307184 120.168 
L 38.307184 114.624 
L 38.307184 109.08 
L 38.307184 103.536 
L 38.307184 97.992 
L 38.307184 92.448 
L 38.307184 86.904 
L 38.307184 81.36 
L 38.307184 75.816 
L 38.307184 70.272 
L 38.307184 64.728 
L 38.307184 59.184 
L 38.307184 53.64 
L 38.307184 48.096 
L 38.307184 42.552 
L 38.307184 37.008 
L 38.307184 31.464 
L 38.307184 25.92 
L 38.657788 25.92 
L 38.657788 31.464 
L 38.657788 37.008 
L 38.657788 42.552 
L 38.657788 48.096 
L 38.657788 53.64 
L 38.657788 59.184 
L 38.657788 64.728 
L 38.657788 70.272 
L 38.657788 75.816 
L 38.657788 81.36 
L 38.657788 86.904 
L 38.657788 92.448 
L 38.657788 97.992 
L 38.657788 103.536 
L 38.657788 109.08 
L 38.657788 114.624 
L 38.657788 120.168 
L 38.657788 125.712 
L 38.657788 131.256 
L 38.657788 136.8 
L 38.657788 142.344 
L 38.657788 147.888 
L 38.657788 153.432 
L 38.657788 158.976 
L 38.657788 164.52 
L 38.657788 170.064 
L 38.657788 175.608 
L 38.657788 181.152 
L 38.657788 186.696 
L 38.657788 192.24 
L 38.307184 192.24 
z
" clip-path="url(#p22f3578ceb)" style="fill: #440154"/>
   </g>
   <g id="PathCollection_9">
    <path d="M 38.657788 186.696 
L 38.657788 181.152 
L 38.657788 175.608 
L 38.657788 170.064 
L 38.657788 164.52 
L 38.657788 158.976 
L 38.657788 153.432 
L 38.657788 147.888 
L 38.657788 142.344 
L 38.657788 136.8 
L 38.657788 131.256 
L 38.657788 125.712 
L 38.657788 120.168 
L 38.657788 114.624 
L 38.657788 109.08 
L 38.657788 103.536 
L 38.657788 97.992 
L 38.657788 92.448 
L 38.657788 86.904 
L 38.657788 81.36 
L 38.657788 75.816 
L 38.657788 70.272 
L 38.657788 64.728 
L 38.657788 59.184 
L 38.657788 53.64 
L 38.657788 48.096 
L 38.657788 42.552 
L 38.657788 37.008 
L 38.657788 31.464 
L 38.657788 25.92 
L 39.008393 25.92 
L 39.008393 31.464 
L 39.008393 37.008 
L 39.008393 42.552 
L 39.008393 48.096 
L 39.008393 53.64 
L 39.008393 59.184 
L 39.008393 64.728 
L 39.008393 70.272 
L 39.008393 75.816 
L 39.008393 81.36 
L 39.008393 86.904 
L 39.008393 92.448 
L 39.008393 97.992 
L 39.008393 103.536 
L 39.008393 109.08 
L 39.008393 114.624 
L 39.008393 120.168 
L 39.008393 125.712 
L 39.008393 131.256 
L 39.008393 136.8 
L 39.008393 142.344 
L 39.008393 147.888 
L 39.008393 153.432 
L 39.008393 158.976 
L 39.008393 164.52 
L 39.008393 170.064 
L 39.008393 175.608 
L 39.008393 181.152 
L 39.008393 186.696 
L 39.008393 192.24 
L 38.657788 192.24 
z
" clip-path="url(#p22f3578ceb)" style="fill: #440154"/>
   </g>
   <g id="PathCollection_10">
    <path d="M 39.008393 186.696 
L 39.008393 181.152 
L 39.008393 175.608 
L 39.008393 170.064 
L 39.008393 164.52 
L 39.008393 158.976 
L 39.008393 153.432 
L 39.008393 147.888 
L 39.008393 142.344 
L 39.008393 136.8 
L 39.008393 131.256 
L 39.008393 125.712 
L 39.008393 120.168 
L 39.008393 114.624 
L 39.008393 109.08 
L 39.008393 103.536 
L 39.008393 97.992 
L 39.008393 92.448 
L 39.008393 86.904 
L 39.008393 81.36 
L 39.008393 75.816 
L 39.008393 70.272 
L 39.008393 64.728 
L 39.008393 59.184 
L 39.008393 53.64 
L 39.008393 48.096 
L 39.008393 42.552 
L 39.008393 37.008 
L 39.008393 31.464 
L 39.008393 25.92 
L 39.358997 25.92 
L 39.358997 31.464 
L 39.358997 37.008 
L 39.358997 42.552 
L 39.358997 48.096 
L 39.358997 53.64 
L 39.358997 59.184 
L 39.358997 64.728 
L 39.358997 70.272 
L 39.358997 75.816 
L 39.358997 81.36 
L 39.358997 86.904 
L 39.358997 92.448 
L 39.358997 97.992 
L 39.358997 103.536 
L 39.358997 109.08 
L 39.358997 114.624 
L 39.358997 120.168 
L 39.358997 125.712 
L 39.358997 131.256 
L 39.358997 136.8 
L 39.358997 142.344 
L 39.358997 147.888 
L 39.358997 153.432 
L 39.358997 158.976 
L 39.358997 164.52 
L 39.358997 170.064 
L 39.358997 175.608 
L 39.358997 181.152 
L 39.358997 186.696 
L 39.358997 192.24 
L 39.008393 192.24 
z
" clip-path="url(#p22f3578ceb)" style="fill: #440154"/>
   </g>
   <g id="PathCollection_11">
    <path d="M 39.358997 186.696 
L 39.358997 181.152 
L 39.358997 175.608 
L 39.358997 170.064 
L 39.358997 164.52 
L 39.358997 158.976 
L 39.358997 153.432 
L 39.358997 147.888 
L 39.358997 142.344 
L 39.358997 136.8 
L 39.358997 131.256 
L 39.358997 125.712 
L 39.358997 120.168 
L 39.358997 114.624 
L 39.358997 109.08 
L 39.358997 103.536 
L 39.358997 97.992 
L 39.358997 92.448 
L 39.358997 86.904 
L 39.358997 81.36 
L 39.358997 75.816 
L 39.358997 70.272 
L 39.358997 64.728 
L 39.358997 59.184 
L 39.358997 53.64 
L 39.358997 48.096 
L 39.358997 42.552 
L 39.358997 37.008 
L 39.358997 31.464 
L 39.358997 25.92 
L 39.709601 25.92 
L 39.709601 31.464 
L 39.709601 37.008 
L 39.709601 42.552 
L 39.709601 48.096 
L 39.709601 53.64 
L 39.709601 59.184 
L 39.709601 64.728 
L 39.709601 70.272 
L 39.709601 75.816 
L 39.709601 81.36 
L 39.709601 86.904 
L 39.709601 92.448 
L 39.709601 97.992 
L 39.709601 103.536 
L 39.709601 109.08 
L 39.709601 114.624 
L 39.709601 120.168 
L 39.709601 125.712 
L 39.709601 131.256 
L 39.709601 136.8 
L 39.709601 142.344 
L 39.709601 147.888 
L 39.709601 153.432 
L 39.709601 158.976 
L 39.709601 164.52 
L 39.709601 170.064 
L 39.709601 175.608 
L 39.709601 181.152 
L 39.709601 186.696 
L 39.709601 192.24 
L 39.358997 192.24 
z
" clip-path="url(#p22f3578ceb)" style="fill: #440154"/>
   </g>
   <g id="PathCollection_12">
    <path d="M 39.709601 186.696 
L 39.709601 181.152 
L 39.709601 175.608 
L 39.709601 170.064 
L 39.709601 164.52 
L 39.709601 158.976 
L 39.709601 153.432 
L 39.709601 147.888 
L 39.709601 142.344 
L 39.709601 136.8 
L 39.709601 131.256 
L 39.709601 125.712 
L 39.709601 120.168 
L 39.709601 114.624 
L 39.709601 109.08 
L 39.709601 103.536 
L 39.709601 97.992 
L 39.709601 92.448 
L 39.709601 86.904 
L 39.709601 81.36 
L 39.709601 75.816 
L 39.709601 70.272 
L 39.709601 64.728 
L 39.709601 59.184 
L 39.709601 53.64 
L 39.709601 48.096 
L 39.709601 42.552 
L 39.709601 37.008 
L 39.709601 31.464 
L 39.709601 25.92 
L 40.060206 25.92 
L 40.060206 31.464 
L 40.060206 37.008 
L 40.060206 42.552 
L 40.060206 48.096 
L 40.060206 53.64 
L 40.060206 59.184 
L 40.060206 64.728 
L 40.060206 70.272 
L 40.060206 75.816 
L 40.060206 81.36 
L 40.060206 86.904 
L 40.060206 92.448 
L 40.060206 97.992 
L 40.060206 103.536 
L 40.060206 109.08 
L 40.060206 114.624 
L 40.060206 120.168 
L 40.060206 125.712 
L 40.060206 131.256 
L 40.060206 136.8 
L 40.060206 142.344 
L 40.060206 147.888 
L 40.060206 153.432 
L 40.060206 158.976 
L 40.060206 164.52 
L 40.060206 170.064 
L 40.060206 175.608 
L 40.060206 181.152 
L 40.060206 186.696 
L 40.060206 192.24 
L 39.709601 192.24 
z
" clip-path="url(#p22f3578ceb)" style="fill: #440154"/>
   </g>
   <g id="PathCollection_13">
    <path d="M 40.060206 186.696 
L 40.060206 181.152 
L 40.060206 175.608 
L 40.060206 170.064 
L 40.060206 164.52 
L 40.060206 158.976 
L 40.060206 153.432 
L 40.060206 147.888 
L 40.060206 142.344 
L 40.060206 136.8 
L 40.060206 131.256 
L 40.060206 125.712 
L 40.060206 120.168 
L 40.060206 114.624 
L 40.060206 109.08 
L 40.060206 103.536 
L 40.060206 97.992 
L 40.060206 92.448 
L 40.060206 86.904 
L 40.060206 81.36 
L 40.060206 75.816 
L 40.060206 70.272 
L 40.060206 64.728 
L 40.060206 59.184 
L 40.060206 53.64 
L 40.060206 48.096 
L 40.060206 42.552 
L 40.060206 37.008 
L 40.060206 31.464 
L 40.060206 25.92 
L 40.41081 25.92 
L 40.41081 31.464 
L 40.41081 37.008 
L 40.41081 42.552 
L 40.41081 48.096 
L 40.41081 53.64 
L 40.41081 59.184 
L 40.41081 64.728 
L 40.41081 70.272 
L 40.41081 75.816 
L 40.41081 81.36 
L 40.41081 86.904 
L 40.41081 92.448 
L 40.41081 97.992 
L 40.41081 103.536 
L 40.41081 109.08 
L 40.41081 114.624 
L 40.41081 120.168 
L 40.41081 125.712 
L 40.41081 131.256 
L 40.41081 136.8 
L 40.41081 142.344 
L 40.41081 147.888 
L 40.41081 153.432 
L 40.41081 158.976 
L 40.41081 164.52 
L 40.41081 170.064 
L 40.41081 175.608 
L 40.41081 181.152 
L 40.41081 186.696 
L 40.41081 192.24 
L 40.060206 192.24 
z
" clip-path="url(#p22f3578ceb)" style="fill: #440154"/>
   </g>
   <g id="PathCollection_14">
    <path d="M 40.41081 186.696 
L 40.41081 181.152 
L 40.41081 175.608 
L 40.41081 170.064 
L 40.41081 164.52 
L 40.41081 158.976 
L 40.41081 153.432 
L 40.41081 147.888 
L 40.41081 142.344 
L 40.41081 136.8 
L 40.41081 131.256 
L 40.41081 125.712 
L 40.41081 120.168 
L 40.41081 114.624 
L 40.41081 109.08 
L 40.41081 103.536 
L 40.41081 97.992 
L 40.41081 92.448 
L 40.41081 86.904 
L 40.41081 81.36 
L 40.41081 75.816 
L 40.41081 70.272 
L 40.41081 64.728 
L 40.41081 59.184 
L 40.41081 53.64 
L 40.41081 48.096 
L 40.41081 42.552 
L 40.41081 37.008 
L 40.41081 31.464 
L 40.41081 25.92 
L 40.761415 25.92 
L 40.761415 31.464 
L 40.761415 37.008 
L 40.761415 42.552 
L 40.761415 48.096 
L 40.761415 53.64 
L 40.761415 59.184 
L 40.761415 64.728 
L 40.761415 70.272 
L 40.761415 75.816 
L 40.761415 81.36 
L 40.761415 86.904 
L 40.761415 92.448 
L 40.761415 97.992 
L 40.761415 103.536 
L 40.761415 109.08 
L 40.761415 114.624 
L 40.761415 120.168 
L 40.761415 125.712 
L 40.761415 131.256 
L 40.761415 136.8 
L 40.761415 142.344 
L 40.761415 147.888 
L 40.761415 153.432 
L 40.761415 158.976 
L 40.761415 164.52 
L 40.761415 170.064 
L 40.761415 175.608 
L 40.761415 181.152 
L 40.761415 186.696 
L 40.761415 192.24 
L 40.41081 192.24 
z
" clip-path="url(#p22f3578ceb)" style="fill: #440154"/>
   </g>
   <g id="PathCollection_15">
    <path d="M 40.761415 186.696 
L 40.761415 181.152 
L 40.761415 175.608 
L 40.761415 170.064 
L 40.761415 164.52 
L 40.761415 158.976 
L 40.761415 153.432 
L 40.761415 147.888 
L 40.761415 142.344 
L 40.761415 136.8 
L 40.761415 131.256 
L 40.761415 125.712 
L 40.761415 120.168 
L 40.761415 114.624 
L 40.761415 109.08 
L 40.761415 103.536 
L 40.761415 97.992 
L 40.761415 92.448 
L 40.761415 86.904 
L 40.761415 81.36 
L 40.761415 75.816 
L 40.761415 70.272 
L 40.761415 64.728 
L 40.761415 59.184 
L 40.761415 53.64 
L 40.761415 48.096 
L 40.761415 42.552 
L 40.761415 37.008 
L 40.761415 31.464 
L 40.761415 25.92 
L 41.112019 25.92 
L 41.112019 31.464 
L 41.112019 37.008 
L 41.112019 42.552 
L 41.112019 48.096 
L 41.112019 53.64 
L 41.112019 59.184 
L 41.112019 64.728 
L 41.112019 70.272 
L 41.112019 75.816 
L 41.112019 81.36 
L 41.112019 86.904 
L 41.112019 92.448 
L 41.112019 97.992 
L 41.112019 103.536 
L 41.112019 109.08 
L 41.112019 114.624 
L 41.112019 120.168 
L 41.112019 125.712 
L 41.112019 131.256 
L 41.112019 136.8 
L 41.112019 142.344 
L 41.112019 147.888 
L 41.112019 153.432 
L 41.112019 158.976 
L 41.112019 164.52 
L 41.112019 170.064 
L 41.112019 175.608 
L 41.112019 181.152 
L 41.112019 186.696 
L 41.112019 192.24 
L 40.761415 192.24 
z
" clip-path="url(#p22f3578ceb)" style="fill: #470e61"/>
   </g>
   <g id="PathCollection_16">
    <path d="M 41.112019 186.696 
L 41.112019 181.152 
L 41.112019 175.608 
L 41.112019 170.064 
L 41.112019 164.52 
L 41.112019 158.976 
L 41.112019 153.432 
L 41.112019 147.888 
L 41.112019 142.344 
L 41.112019 136.8 
L 41.112019 131.256 
L 41.112019 125.712 
L 41.112019 120.168 
L 41.112019 114.624 
L 41.112019 109.08 
L 41.112019 103.536 
L 41.112019 97.992 
L 41.112019 92.448 
L 41.112019 86.904 
L 41.112019 81.36 
L 41.112019 75.816 
L 41.112019 70.272 
L 41.112019 64.728 
L 41.112019 59.184 
L 41.112019 53.64 
L 41.112019 48.096 
L 41.112019 42.552 
L 41.112019 37.008 
L 41.112019 31.464 
L 41.112019 25.92 
L 41.462623 25.92 
L 41.462623 31.464 
L 41.462623 37.008 
L 41.462623 42.552 
L 41.462623 48.096 
L 41.462623 53.64 
L 41.462623 59.184 
L 41.462623 64.728 
L 41.462623 70.272 
L 41.462623 75.816 
L 41.462623 81.36 
L 41.462623 86.904 
L 41.462623 92.448 
L 41.462623 97.992 
L 41.462623 103.536 
L 41.462623 109.08 
L 41.462623 114.624 
L 41.462623 120.168 
L 41.462623 125.712 
L 41.462623 131.256 
L 41.462623 136.8 
L 41.462623 142.344 
L 41.462623 147.888 
L 41.462623 153.432 
L 41.462623 158.976 
L 41.462623 164.52 
L 41.462623 170.064 
L 41.462623 175.608 
L 41.462623 181.152 
L 41.462623 186.696 
L 41.462623 192.24 
L 41.112019 192.24 
z
" clip-path="url(#p22f3578ceb)" style="fill: #482677"/>
   </g>
   <g id="PathCollection_17">
    <path d="M 41.462623 186.696 
L 41.462623 181.152 
L 41.462623 175.608 
L 41.462623 170.064 
L 41.462623 164.52 
L 41.462623 158.976 
L 41.462623 153.432 
L 41.462623 147.888 
L 41.462623 142.344 
L 41.462623 136.8 
L 41.462623 131.256 
L 41.462623 125.712 
L 41.462623 120.168 
L 41.462623 114.624 
L 41.462623 109.08 
L 41.462623 103.536 
L 41.462623 97.992 
L 41.462623 92.448 
L 41.462623 86.904 
L 41.462623 81.36 
L 41.462623 75.816 
L 41.462623 70.272 
L 41.462623 64.728 
L 41.462623 59.184 
L 41.462623 53.64 
L 41.462623 48.096 
L 41.462623 42.552 
L 41.462623 37.008 
L 41.462623 31.464 
L 41.462623 25.92 
L 41.813228 25.92 
L 41.813228 31.464 
L 41.813228 37.008 
L 41.813228 42.552 
L 41.813228 48.096 
L 41.813228 53.64 
L 41.813228 59.184 
L 41.813228 64.728 
L 41.813228 70.272 
L 41.813228 75.816 
L 41.813228 81.36 
L 41.813228 86.904 
L 41.813228 92.448 
L 41.813228 97.992 
L 41.813228 103.536 
L 41.813228 109.08 
L 41.813228 114.624 
L 41.813228 120.168 
L 41.813228 125.712 
L 41.813228 131.256 
L 41.813228 136.8 
L 41.813228 142.344 
L 41.813228 147.888 
L 41.813228 153.432 
L 41.813228 158.976 
L 41.813228 164.52 
L 41.813228 170.064 
L 41.813228 175.608 
L 41.813228 181.152 
L 41.813228 186.696 
L 41.813228 192.24 
L 41.462623 192.24 
z
" clip-path="url(#p22f3578ceb)" style="fill: #433e85"/>
    <path d="M 205.332895 186.696 
L 205.332895 181.152 
L 205.332895 175.608 
L 205.332895 170.064 
L 205.332895 164.52 
L 205.332895 158.976 
L 205.332895 153.432 
L 205.332895 147.888 
L 205.332895 142.344 
L 205.332895 136.8 
L 205.332895 131.256 
L 205.332895 125.712 
L 205.332895 120.168 
L 205.332895 114.624 
L 205.332895 109.08 
L 205.332895 103.536 
L 205.332895 97.992 
L 205.332895 92.448 
L 205.332895 86.904 
L 205.332895 81.36 
L 205.332895 75.816 
L 205.332895 70.272 
L 205.332895 64.728 
L 205.332895 59.184 
L 205.332895 53.64 
L 205.332895 48.096 
L 205.332895 42.552 
L 205.332895 37.008 
L 205.332895 31.464 
L 205.332895 25.92 
L 208.608 25.92 
L 214.56 25.92 
L 214.56 31.464 
L 214.56 37.008 
L 214.56 42.552 
L 214.56 48.096 
L 214.56 53.64 
L 214.56 59.184 
L 214.56 64.728 
L 214.56 70.272 
L 214.56 75.816 
L 214.56 81.36 
L 214.56 86.904 
L 214.56 92.448 
L 214.56 97.992 
L 214.56 103.536 
L 214.56 109.08 
L 214.56 114.624 
L 214.56 120.168 
L 214.56 125.712 
L 214.56 131.256 
L 214.56 136.8 
L 214.56 142.344 
L 214.56 147.888 
L 214.56 153.432 
L 214.56 158.976 
L 214.56 164.52 
L 214.56 170.064 
L 214.56 175.608 
L 214.56 181.152 
L 214.56 186.696 
L 214.56 192.24 
L 208.608 192.24 
L 205.332895 192.24 
z
" clip-path="url(#p22f3578ceb)" style="fill: #433e85"/>
   </g>
   <g id="PathCollection_18">
    <path d="M 41.813228 186.696 
L 41.813228 181.152 
L 41.813228 175.608 
L 41.813228 170.064 
L 41.813228 164.52 
L 41.813228 158.976 
L 41.813228 153.432 
L 41.813228 147.888 
L 41.813228 142.344 
L 41.813228 136.8 
L 41.813228 131.256 
L 41.813228 125.712 
L 41.813228 120.168 
L 41.813228 114.624 
L 41.813228 109.08 
L 41.813228 103.536 
L 41.813228 97.992 
L 41.813228 92.448 
L 41.813228 86.904 
L 41.813228 81.36 
L 41.813228 75.816 
L 41.813228 70.272 
L 41.813228 64.728 
L 41.813228 59.184 
L 41.813228 53.64 
L 41.813228 48.096 
L 41.813228 42.552 
L 41.813228 37.008 
L 41.813228 31.464 
L 41.813228 25.92 
L 41.952 25.92 
L 42.540402 25.92 
L 42.540402 31.464 
L 42.540402 37.008 
L 42.540402 42.552 
L 42.540402 48.096 
L 42.540402 53.64 
L 42.540402 59.184 
L 42.540402 64.728 
L 42.540402 70.272 
L 42.540402 75.816 
L 42.540402 81.36 
L 42.540402 86.904 
L 42.540402 92.448 
L 42.540402 97.992 
L 42.540402 103.536 
L 42.540402 109.08 
L 42.540402 114.624 
L 42.540402 120.168 
L 42.540402 125.712 
L 42.540402 131.256 
L 42.540402 136.8 
L 42.540402 142.344 
L 42.540402 147.888 
L 42.540402 153.432 
L 42.540402 158.976 
L 42.540402 164.52 
L 42.540402 170.064 
L 42.540402 175.608 
L 42.540402 181.152 
L 42.540402 186.696 
L 42.540402 192.24 
L 41.952 192.24 
L 41.813228 192.24 
z
" clip-path="url(#p22f3578ceb)" style="fill: #3b528b"/>
    <path d="M 190.496093 186.696 
L 190.496093 181.152 
L 190.496093 175.608 
L 190.496093 170.064 
L 190.496093 164.52 
L 190.496093 158.976 
L 190.496093 153.432 
L 190.496093 147.888 
L 190.496093 142.344 
L 190.496093 136.8 
L 190.496093 131.256 
L 190.496093 125.712 
L 190.496093 120.168 
L 190.496093 114.624 
L 190.496093 109.08 
L 190.496093 103.536 
L 190.496093 97.992 
L 190.496093 92.448 
L 190.496093 86.904 
L 190.496093 81.36 
L 190.496093 75.816 
L 190.496093 70.272 
L 190.496093 64.728 
L 190.496093 59.184 
L 190.496093 53.64 
L 190.496093 48.096 
L 190.496093 42.552 
L 190.496093 37.008 
L 190.496093 31.464 
L 190.496093 25.92 
L 190.752 25.92 
L 196.704 25.92 
L 202.656 25.92 
L 205.332895 25.92 
L 205.332895 31.464 
L 205.332895 37.008 
L 205.332895 42.552 
L 205.332895 48.096 
L 205.332895 53.64 
L 205.332895 59.184 
L 205.332895 64.728 
L 205.332895 70.272 
L 205.332895 75.816 
L 205.332895 81.36 
L 205.332895 86.904 
L 205.332895 92.448 
L 205.332895 97.992 
L 205.332895 103.536 
L 205.332895 109.08 
L 205.332895 114.624 
L 205.332895 120.168 
L 205.332895 125.712 
L 205.332895 131.256 
L 205.332895 136.8 
L 205.332895 142.344 
L 205.332895 147.888 
L 205.332895 153.432 
L 205.332895 158.976 
L 205.332895 164.52 
L 205.332895 170.064 
L 205.332895 175.608 
L 205.332895 181.152 
L 205.332895 186.696 
L 205.332895 192.24 
L 202.656 192.24 
L 196.704 192.24 
L 190.752 192.24 
L 190.496093 192.24 
z
" clip-path="url(#p22f3578ceb)" style="fill: #3b528b"/>
   </g>
   <g id="PathCollection_19">
    <path d="M 42.540402 186.696 
L 42.540402 181.152 
L 42.540402 175.608 
L 42.540402 170.064 
L 42.540402 164.52 
L 42.540402 158.976 
L 42.540402 153.432 
L 42.540402 147.888 
L 42.540402 142.344 
L 42.540402 136.8 
L 42.540402 131.256 
L 42.540402 125.712 
L 42.540402 120.168 
L 42.540402 114.624 
L 42.540402 109.08 
L 42.540402 103.536 
L 42.540402 97.992 
L 42.540402 92.448 
L 42.540402 86.904 
L 42.540402 81.36 
L 42.540402 75.816 
L 42.540402 70.272 
L 42.540402 64.728 
L 42.540402 59.184 
L 42.540402 53.64 
L 42.540402 48.096 
L 42.540402 42.552 
L 42.540402 37.008 
L 42.540402 31.464 
L 42.540402 25.92 
L 43.514268 25.92 
L 43.514268 31.464 
L 43.514268 37.008 
L 43.514268 42.552 
L 43.514268 48.096 
L 43.514268 53.64 
L 43.514268 59.184 
L 43.514268 64.728 
L 43.514268 70.272 
L 43.514268 75.816 
L 43.514268 81.36 
L 43.514268 86.904 
L 43.514268 92.448 
L 43.514268 97.992 
L 43.514268 103.536 
L 43.514268 109.08 
L 43.514268 114.624 
L 43.514268 120.168 
L 43.514268 125.712 
L 43.514268 131.256 
L 43.514268 136.8 
L 43.514268 142.344 
L 43.514268 147.888 
L 43.514268 153.432 
L 43.514268 158.976 
L 43.514268 164.52 
L 43.514268 170.064 
L 43.514268 175.608 
L 43.514268 181.152 
L 43.514268 186.696 
L 43.514268 192.24 
L 42.540402 192.24 
z
" clip-path="url(#p22f3578ceb)" style="fill: #32658e"/>
    <path d="M 176.51882 186.696 
L 176.51882 181.152 
L 176.51882 175.608 
L 176.51882 170.064 
L 176.51882 164.52 
L 176.51882 158.976 
L 176.51882 153.432 
L 176.51882 147.888 
L 176.51882 142.344 
L 176.51882 136.8 
L 176.51882 131.256 
L 176.51882 125.712 
L 176.51882 120.168 
L 176.51882 114.624 
L 176.51882 109.08 
L 176.51882 103.536 
L 176.51882 97.992 
L 176.51882 92.448 
L 176.51882 86.904 
L 176.51882 81.36 
L 176.51882 75.816 
L 176.51882 70.272 
L 176.51882 64.728 
L 176.51882 59.184 
L 176.51882 53.64 
L 176.51882 48.096 
L 176.51882 42.552 
L 176.51882 37.008 
L 176.51882 31.464 
L 176.51882 25.92 
L 178.848 25.92 
L 184.8 25.92 
L 190.496093 25.92 
L 190.496093 31.464 
L 190.496093 37.008 
L 190.496093 42.552 
L 190.496093 48.096 
L 190.496093 53.64 
L 190.496093 59.184 
L 190.496093 64.728 
L 190.496093 70.272 
L 190.496093 75.816 
L 190.496093 81.36 
L 190.496093 86.904 
L 190.496093 92.448 
L 190.496093 97.992 
L 190.496093 103.536 
L 190.496093 109.08 
L 190.496093 114.624 
L 190.496093 120.168 
L 190.496093 125.712 
L 190.496093 131.256 
L 190.496093 136.8 
L 190.496093 142.344 
L 190.496093 147.888 
L 190.496093 153.432 
L 190.496093 158.976 
L 190.496093 164.52 
L 190.496093 170.064 
L 190.496093 175.608 
L 190.496093 181.152 
L 190.496093 186.696 
L 190.496093 192.24 
L 184.8 192.24 
L 178.848 192.24 
L 176.51882 192.24 
z
" clip-path="url(#p22f3578ceb)" style="fill: #32658e"/>
   </g>
   <g id="PathCollection_20">
    <path d="M 43.514268 186.696 
L 43.514268 181.152 
L 43.514268 175.608 
L 43.514268 170.064 
L 43.514268 164.52 
L 43.514268 158.976 
L 43.514268 153.432 
L 43.514268 147.888 
L 43.514268 142.344 
L 43.514268 136.8 
L 43.514268 131.256 
L 43.514268 125.712 
L 43.514268 120.168 
L 43.514268 114.624 
L 43.514268 109.08 
L 43.514268 103.536 
L 43.514268 97.992 
L 43.514268 92.448 
L 43.514268 86.904 
L 43.514268 81.36 
L 43.514268 75.816 
L 43.514268 70.272 
L 43.514268 64.728 
L 43.514268 59.184 
L 43.514268 53.64 
L 43.514268 48.096 
L 43.514268 42.552 
L 43.514268 37.008 
L 43.514268 31.464 
L 43.514268 25.92 
L 44.488134 25.92 
L 44.488134 31.464 
L 44.488134 37.008 
L 44.488134 42.552 
L 44.488134 48.096 
L 44.488134 53.64 
L 44.488134 59.184 
L 44.488134 64.728 
L 44.488134 70.272 
L 44.488134 75.816 
L 44.488134 81.36 
L 44.488134 86.904 
L 44.488134 92.448 
L 44.488134 97.992 
L 44.488134 103.536 
L 44.488134 109.08 
L 44.488134 114.624 
L 44.488134 120.168 
L 44.488134 125.712 
L 44.488134 131.256 
L 44.488134 136.8 
L 44.488134 142.344 
L 44.488134 147.888 
L 44.488134 153.432 
L 44.488134 158.976 
L 44.488134 164.52 
L 44.488134 170.064 
L 44.488134 175.608 
L 44.488134 181.152 
L 44.488134 186.696 
L 44.488134 192.24 
L 43.514268 192.24 
z
" clip-path="url(#p22f3578ceb)" style="fill: #2a768e"/>
    <path d="M 163.2839 186.696 
L 163.2839 181.152 
L 163.2839 175.608 
L 163.2839 170.064 
L 163.2839 164.52 
L 163.2839 158.976 
L 163.2839 153.432 
L 163.2839 147.888 
L 163.2839 142.344 
L 163.2839 136.8 
L 163.2839 131.256 
L 163.2839 125.712 
L 163.2839 120.168 
L 163.2839 114.624 
L 163.2839 109.08 
L 163.2839 103.536 
L 163.2839 97.992 
L 163.2839 92.448 
L 163.2839 86.904 
L 163.2839 81.36 
L 163.2839 75.816 
L 163.2839 70.272 
L 163.2839 64.728 
L 163.2839 59.184 
L 163.2839 53.64 
L 163.2839 48.096 
L 163.2839 42.552 
L 163.2839 37.008 
L 163.2839 31.464 
L 163.2839 25.92 
L 166.944 25.92 
L 172.896 25.92 
L 176.51882 25.92 
L 176.51882 31.464 
L 176.51882 37.008 
L 176.51882 42.552 
L 176.51882 48.096 
L 176.51882 53.64 
L 176.51882 59.184 
L 176.51882 64.728 
L 176.51882 70.272 
L 176.51882 75.816 
L 176.51882 81.36 
L 176.51882 86.904 
L 176.51882 92.448 
L 176.51882 97.992 
L 176.51882 103.536 
L 176.51882 109.08 
L 176.51882 114.624 
L 176.51882 120.168 
L 176.51882 125.712 
L 176.51882 131.256 
L 176.51882 136.8 
L 176.51882 142.344 
L 176.51882 147.888 
L 176.51882 153.432 
L 176.51882 158.976 
L 176.51882 164.52 
L 176.51882 170.064 
L 176.51882 175.608 
L 176.51882 181.152 
L 176.51882 186.696 
L 176.51882 192.24 
L 172.896 192.24 
L 166.944 192.24 
L 163.2839 192.24 
z
" clip-path="url(#p22f3578ceb)" style="fill: #2a768e"/>
   </g>
   <g id="PathCollection_21">
    <path d="M 44.488134 186.696 
L 44.488134 181.152 
L 44.488134 175.608 
L 44.488134 170.064 
L 44.488134 164.52 
L 44.488134 158.976 
L 44.488134 153.432 
L 44.488134 147.888 
L 44.488134 142.344 
L 44.488134 136.8 
L 44.488134 131.256 
L 44.488134 125.712 
L 44.488134 120.168 
L 44.488134 114.624 
L 44.488134 109.08 
L 44.488134 103.536 
L 44.488134 97.992 
L 44.488134 92.448 
L 44.488134 86.904 
L 44.488134 81.36 
L 44.488134 75.816 
L 44.488134 70.272 
L 44.488134 64.728 
L 44.488134 59.184 
L 44.488134 53.64 
L 44.488134 48.096 
L 44.488134 42.552 
L 44.488134 37.008 
L 44.488134 31.464 
L 44.488134 25.92 
L 45.462 25.92 
L 45.462 31.464 
L 45.462 37.008 
L 45.462 42.552 
L 45.462 48.096 
L 45.462 53.64 
L 45.462 59.184 
L 45.462 64.728 
L 45.462 70.272 
L 45.462 75.816 
L 45.462 81.36 
L 45.462 86.904 
L 45.462 92.448 
L 45.462 97.992 
L 45.462 103.536 
L 45.462 109.08 
L 45.462 114.624 
L 45.462 120.168 
L 45.462 125.712 
L 45.462 131.256 
L 45.462 136.8 
L 45.462 142.344 
L 45.462 147.888 
L 45.462 153.432 
L 45.462 158.976 
L 45.462 164.52 
L 45.462 170.064 
L 45.462 175.608 
L 45.462 181.152 
L 45.462 186.696 
L 45.462 192.24 
L 44.488134 192.24 
z
" clip-path="url(#p22f3578ceb)" style="fill: #23888e"/>
    <path d="M 150.725634 186.696 
L 150.725634 181.152 
L 150.725634 175.608 
L 150.725634 170.064 
L 150.725634 164.52 
L 150.725634 158.976 
L 150.725634 153.432 
L 150.725634 147.888 
L 150.725634 142.344 
L 150.725634 136.8 
L 150.725634 131.256 
L 150.725634 125.712 
L 150.725634 120.168 
L 150.725634 114.624 
L 150.725634 109.08 
L 150.725634 103.536 
L 150.725634 97.992 
L 150.725634 92.448 
L 150.725634 86.904 
L 150.725634 81.36 
L 150.725634 75.816 
L 150.725634 70.272 
L 150.725634 64.728 
L 150.725634 59.184 
L 150.725634 53.64 
L 150.725634 48.096 
L 150.725634 42.552 
L 150.725634 37.008 
L 150.725634 31.464 
L 150.725634 25.92 
L 155.04 25.92 
L 160.992 25.92 
L 163.2839 25.92 
L 163.2839 31.464 
L 163.2839 37.008 
L 163.2839 42.552 
L 163.2839 48.096 
L 163.2839 53.64 
L 163.2839 59.184 
L 163.2839 64.728 
L 163.2839 70.272 
L 163.2839 75.816 
L 163.2839 81.36 
L 163.2839 86.904 
L 163.2839 92.448 
L 163.2839 97.992 
L 163.2839 103.536 
L 163.2839 109.08 
L 163.2839 114.624 
L 163.2839 120.168 
L 163.2839 125.712 
L 163.2839 131.256 
L 163.2839 136.8 
L 163.2839 142.344 
L 163.2839 147.888 
L 163.2839 153.432 
L 163.2839 158.976 
L 163.2839 164.52 
L 163.2839 170.064 
L 163.2839 175.608 
L 163.2839 181.152 
L 163.2839 186.696 
L 163.2839 192.24 
L 160.992 192.24 
L 155.04 192.24 
L 150.725634 192.24 
z
" clip-path="url(#p22f3578ceb)" style="fill: #23888e"/>
   </g>
   <g id="PathCollection_22">
    <path d="M 45.462 186.696 
L 45.462 181.152 
L 45.462 175.608 
L 45.462 170.064 
L 45.462 164.52 
L 45.462 158.976 
L 45.462 153.432 
L 45.462 147.888 
L 45.462 142.344 
L 45.462 136.8 
L 45.462 131.256 
L 45.462 125.712 
L 45.462 120.168 
L 45.462 114.624 
L 45.462 109.08 
L 45.462 103.536 
L 45.462 97.992 
L 45.462 92.448 
L 45.462 86.904 
L 45.462 81.36 
L 45.462 75.816 
L 45.462 70.272 
L 45.462 64.728 
L 45.462 59.184 
L 45.462 53.64 
L 45.462 48.096 
L 45.462 42.552 
L 45.462 37.008 
L 45.462 31.464 
L 45.462 25.92 
L 46.435866 25.92 
L 46.435866 31.464 
L 46.435866 37.008 
L 46.435866 42.552 
L 46.435866 48.096 
L 46.435866 53.64 
L 46.435866 59.184 
L 46.435866 64.728 
L 46.435866 70.272 
L 46.435866 75.816 
L 46.435866 81.36 
L 46.435866 86.904 
L 46.435866 92.448 
L 46.435866 97.992 
L 46.435866 103.536 
L 46.435866 109.08 
L 46.435866 114.624 
L 46.435866 120.168 
L 46.435866 125.712 
L 46.435866 131.256 
L 46.435866 136.8 
L 46.435866 142.344 
L 46.435866 147.888 
L 46.435866 153.432 
L 46.435866 158.976 
L 46.435866 164.52 
L 46.435866 170.064 
L 46.435866 175.608 
L 46.435866 181.152 
L 46.435866 186.696 
L 46.435866 192.24 
L 45.462 192.24 
z
" clip-path="url(#p22f3578ceb)" style="fill: #1f998a"/>
    <path d="M 138.764455 186.696 
L 138.764455 181.152 
L 138.764455 175.608 
L 138.764455 170.064 
L 138.764455 164.52 
L 138.764455 158.976 
L 138.764455 153.432 
L 138.764455 147.888 
L 138.764455 142.344 
L 138.764455 136.8 
L 138.764455 131.256 
L 138.764455 125.712 
L 138.764455 120.168 
L 138.764455 114.624 
L 138.764455 109.08 
L 138.764455 103.536 
L 138.764455 97.992 
L 138.764455 92.448 
L 138.764455 86.904 
L 138.764455 81.36 
L 138.764455 75.816 
L 138.764455 70.272 
L 138.764455 64.728 
L 138.764455 59.184 
L 138.764455 53.64 
L 138.764455 48.096 
L 138.764455 42.552 
L 138.764455 37.008 
L 138.764455 31.464 
L 138.764455 25.92 
L 143.136 25.92 
L 149.088 25.92 
L 150.725634 25.92 
L 150.725634 31.464 
L 150.725634 37.008 
L 150.725634 42.552 
L 150.725634 48.096 
L 150.725634 53.64 
L 150.725634 59.184 
L 150.725634 64.728 
L 150.725634 70.272 
L 150.725634 75.816 
L 150.725634 81.36 
L 150.725634 86.904 
L 150.725634 92.448 
L 150.725634 97.992 
L 150.725634 103.536 
L 150.725634 109.08 
L 150.725634 114.624 
L 150.725634 120.168 
L 150.725634 125.712 
L 150.725634 131.256 
L 150.725634 136.8 
L 150.725634 142.344 
L 150.725634 147.888 
L 150.725634 153.432 
L 150.725634 158.976 
L 150.725634 164.52 
L 150.725634 170.064 
L 150.725634 175.608 
L 150.725634 181.152 
L 150.725634 186.696 
L 150.725634 192.24 
L 149.088 192.24 
L 143.136 192.24 
L 138.764455 192.24 
z
" clip-path="url(#p22f3578ceb)" style="fill: #1f998a"/>
   </g>
   <g id="PathCollection_23">
    <path d="M 46.435866 186.696 
L 46.435866 181.152 
L 46.435866 175.608 
L 46.435866 170.064 
L 46.435866 164.52 
L 46.435866 158.976 
L 46.435866 153.432 
L 46.435866 147.888 
L 46.435866 142.344 
L 46.435866 136.8 
L 46.435866 131.256 
L 46.435866 125.712 
L 46.435866 120.168 
L 46.435866 114.624 
L 46.435866 109.08 
L 46.435866 103.536 
L 46.435866 97.992 
L 46.435866 92.448 
L 46.435866 86.904 
L 46.435866 81.36 
L 46.435866 75.816 
L 46.435866 70.272 
L 46.435866 64.728 
L 46.435866 59.184 
L 46.435866 53.64 
L 46.435866 48.096 
L 46.435866 42.552 
L 46.435866 37.008 
L 46.435866 31.464 
L 46.435866 25.92 
L 47.409731 25.92 
L 47.409731 31.464 
L 47.409731 37.008 
L 47.409731 42.552 
L 47.409731 48.096 
L 47.409731 53.64 
L 47.409731 59.184 
L 47.409731 64.728 
L 47.409731 70.272 
L 47.409731 75.816 
L 47.409731 81.36 
L 47.409731 86.904 
L 47.409731 92.448 
L 47.409731 97.992 
L 47.409731 103.536 
L 47.409731 109.08 
L 47.409731 114.624 
L 47.409731 120.168 
L 47.409731 125.712 
L 47.409731 131.256 
L 47.409731 136.8 
L 47.409731 142.344 
L 47.409731 147.888 
L 47.409731 153.432 
L 47.409731 158.976 
L 47.409731 164.52 
L 47.409731 170.064 
L 47.409731 175.608 
L 47.409731 181.152 
L 47.409731 186.696 
L 47.409731 192.24 
L 46.435866 192.24 
z
" clip-path="url(#p22f3578ceb)" style="fill: #24aa83"/>
    <path d="M 127.300273 186.696 
L 127.300273 181.152 
L 127.300273 175.608 
L 127.300273 170.064 
L 127.300273 164.52 
L 127.300273 158.976 
L 127.300273 153.432 
L 127.300273 147.888 
L 127.300273 142.344 
L 127.300273 136.8 
L 127.300273 131.256 
L 127.300273 125.712 
L 127.300273 120.168 
L 127.300273 114.624 
L 127.300273 109.08 
L 127.300273 103.536 
L 127.300273 97.992 
L 127.300273 92.448 
L 127.300273 86.904 
L 127.300273 81.36 
L 127.300273 75.816 
L 127.300273 70.272 
L 127.300273 64.728 
L 127.300273 59.184 
L 127.300273 53.64 
L 127.300273 48.096 
L 127.300273 42.552 
L 127.300273 37.008 
L 127.300273 31.464 
L 127.300273 25.92 
L 131.232 25.92 
L 137.184 25.92 
L 138.764455 25.92 
L 138.764455 31.464 
L 138.764455 37.008 
L 138.764455 42.552 
L 138.764455 48.096 
L 138.764455 53.64 
L 138.764455 59.184 
L 138.764455 64.728 
L 138.764455 70.272 
L 138.764455 75.816 
L 138.764455 81.36 
L 138.764455 86.904 
L 138.764455 92.448 
L 138.764455 97.992 
L 138.764455 103.536 
L 138.764455 109.08 
L 138.764455 114.624 
L 138.764455 120.168 
L 138.764455 125.712 
L 138.764455 131.256 
L 138.764455 136.8 
L 138.764455 142.344 
L 138.764455 147.888 
L 138.764455 153.432 
L 138.764455 158.976 
L 138.764455 164.52 
L 138.764455 170.064 
L 138.764455 175.608 
L 138.764455 181.152 
L 138.764455 186.696 
L 138.764455 192.24 
L 137.184 192.24 
L 131.232 192.24 
L 127.300273 192.24 
z
" clip-path="url(#p22f3578ceb)" style="fill: #24aa83"/>
   </g>
   <g id="PathCollection_24">
    <path d="M 47.409731 186.696 
L 47.409731 181.152 
L 47.409731 175.608 
L 47.409731 170.064 
L 47.409731 164.52 
L 47.409731 158.976 
L 47.409731 153.432 
L 47.409731 147.888 
L 47.409731 142.344 
L 47.409731 136.8 
L 47.409731 131.256 
L 47.409731 125.712 
L 47.409731 120.168 
L 47.409731 114.624 
L 47.409731 109.08 
L 47.409731 103.536 
L 47.409731 97.992 
L 47.409731 92.448 
L 47.409731 86.904 
L 47.409731 81.36 
L 47.409731 75.816 
L 47.409731 70.272 
L 47.409731 64.728 
L 47.409731 59.184 
L 47.409731 53.64 
L 47.409731 48.096 
L 47.409731 42.552 
L 47.409731 37.008 
L 47.409731 31.464 
L 47.409731 25.92 
L 47.904 25.92 
L 49.037394 25.92 
L 49.037394 31.464 
L 49.037394 37.008 
L 49.037394 42.552 
L 49.037394 48.096 
L 49.037394 53.64 
L 49.037394 59.184 
L 49.037394 64.728 
L 49.037394 70.272 
L 49.037394 75.816 
L 49.037394 81.36 
L 49.037394 86.904 
L 49.037394 92.448 
L 49.037394 97.992 
L 49.037394 103.536 
L 49.037394 109.08 
L 49.037394 114.624 
L 49.037394 120.168 
L 49.037394 125.712 
L 49.037394 131.256 
L 49.037394 136.8 
L 49.037394 142.344 
L 49.037394 147.888 
L 49.037394 153.432 
L 49.037394 158.976 
L 49.037394 164.52 
L 49.037394 170.064 
L 49.037394 175.608 
L 49.037394 181.152 
L 49.037394 186.696 
L 49.037394 192.24 
L 47.904 192.24 
L 47.409731 192.24 
z
" clip-path="url(#p22f3578ceb)" style="fill: #3aba76"/>
    <path d="M 116.198916 186.696 
L 116.198916 181.152 
L 116.198916 175.608 
L 116.198916 170.064 
L 116.198916 164.52 
L 116.198916 158.976 
L 116.198916 153.432 
L 116.198916 147.888 
L 116.198916 142.344 
L 116.198916 136.8 
L 116.198916 131.256 
L 116.198916 125.712 
L 116.198916 120.168 
L 116.198916 114.624 
L 116.198916 109.08 
L 116.198916 103.536 
L 116.198916 97.992 
L 116.198916 92.448 
L 116.198916 86.904 
L 116.198916 81.36 
L 116.198916 75.816 
L 116.198916 70.272 
L 116.198916 64.728 
L 116.198916 59.184 
L 116.198916 53.64 
L 116.198916 48.096 
L 116.198916 42.552 
L 116.198916 37.008 
L 116.198916 31.464 
L 116.198916 25.92 
L 119.328 25.92 
L 125.28 25.92 
L 127.300273 25.92 
L 127.300273 31.464 
L 127.300273 37.008 
L 127.300273 42.552 
L 127.300273 48.096 
L 127.300273 53.64 
L 127.300273 59.184 
L 127.300273 64.728 
L 127.300273 70.272 
L 127.300273 75.816 
L 127.300273 81.36 
L 127.300273 86.904 
L 127.300273 92.448 
L 127.300273 97.992 
L 127.300273 103.536 
L 127.300273 109.08 
L 127.300273 114.624 
L 127.300273 120.168 
L 127.300273 125.712 
L 127.300273 131.256 
L 127.300273 136.8 
L 127.300273 142.344 
L 127.300273 147.888 
L 127.300273 153.432 
L 127.300273 158.976 
L 127.300273 164.52 
L 127.300273 170.064 
L 127.300273 175.608 
L 127.300273 181.152 
L 127.300273 186.696 
L 127.300273 192.24 
L 125.28 192.24 
L 119.328 192.24 
L 116.198916 192.24 
z
" clip-path="url(#p22f3578ceb)" style="fill: #3aba76"/>
   </g>
   <g id="PathCollection_25">
    <path d="M 49.037394 186.696 
L 49.037394 181.152 
L 49.037394 175.608 
L 49.037394 170.064 
L 49.037394 164.52 
L 49.037394 158.976 
L 49.037394 153.432 
L 49.037394 147.888 
L 49.037394 142.344 
L 49.037394 136.8 
L 49.037394 131.256 
L 49.037394 125.712 
L 49.037394 120.168 
L 49.037394 114.624 
L 49.037394 109.08 
L 49.037394 103.536 
L 49.037394 97.992 
L 49.037394 92.448 
L 49.037394 86.904 
L 49.037394 81.36 
L 49.037394 75.816 
L 49.037394 70.272 
L 49.037394 64.728 
L 49.037394 59.184 
L 49.037394 53.64 
L 49.037394 48.096 
L 49.037394 42.552 
L 49.037394 37.008 
L 49.037394 31.464 
L 49.037394 25.92 
L 51.338852 25.92 
L 51.338852 31.464 
L 51.338852 37.008 
L 51.338852 42.552 
L 51.338852 48.096 
L 51.338852 53.64 
L 51.338852 59.184 
L 51.338852 64.728 
L 51.338852 70.272 
L 51.338852 75.816 
L 51.338852 81.36 
L 51.338852 86.904 
L 51.338852 92.448 
L 51.338852 97.992 
L 51.338852 103.536 
L 51.338852 109.08 
L 51.338852 114.624 
L 51.338852 120.168 
L 51.338852 125.712 
L 51.338852 131.256 
L 51.338852 136.8 
L 51.338852 142.344 
L 51.338852 147.888 
L 51.338852 153.432 
L 51.338852 158.976 
L 51.338852 164.52 
L 51.338852 170.064 
L 51.338852 175.608 
L 51.338852 181.152 
L 51.338852 186.696 
L 51.338852 192.24 
L 49.037394 192.24 
z
" clip-path="url(#p22f3578ceb)" style="fill: #5ec962"/>
    <path d="M 105.257828 186.696 
L 105.257828 181.152 
L 105.257828 175.608 
L 105.257828 170.064 
L 105.257828 164.52 
L 105.257828 158.976 
L 105.257828 153.432 
L 105.257828 147.888 
L 105.257828 142.344 
L 105.257828 136.8 
L 105.257828 131.256 
L 105.257828 125.712 
L 105.257828 120.168 
L 105.257828 114.624 
L 105.257828 109.08 
L 105.257828 103.536 
L 105.257828 97.992 
L 105.257828 92.448 
L 105.257828 86.904 
L 105.257828 81.36 
L 105.257828 75.816 
L 105.257828 70.272 
L 105.257828 64.728 
L 105.257828 59.184 
L 105.257828 53.64 
L 105.257828 48.096 
L 105.257828 42.552 
L 105.257828 37.008 
L 105.257828 31.464 
L 105.257828 25.92 
L 107.424 25.92 
L 113.376 25.92 
L 116.198916 25.92 
L 116.198916 31.464 
L 116.198916 37.008 
L 116.198916 42.552 
L 116.198916 48.096 
L 116.198916 53.64 
L 116.198916 59.184 
L 116.198916 64.728 
L 116.198916 70.272 
L 116.198916 75.816 
L 116.198916 81.36 
L 116.198916 86.904 
L 116.198916 92.448 
L 116.198916 97.992 
L 116.198916 103.536 
L 116.198916 109.08 
L 116.198916 114.624 
L 116.198916 120.168 
L 116.198916 125.712 
L 116.198916 131.256 
L 116.198916 136.8 
L 116.198916 142.344 
L 116.198916 147.888 
L 116.198916 153.432 
L 116.198916 158.976 
L 116.198916 164.52 
L 116.198916 170.064 
L 116.198916 175.608 
L 116.198916 181.152 
L 116.198916 186.696 
L 116.198916 192.24 
L 113.376 192.24 
L 107.424 192.24 
L 105.257828 192.24 
z
" clip-path="url(#p22f3578ceb)" style="fill: #5ec962"/>
   </g>
   <g id="PathCollection_26">
    <path d="M 51.338852 186.696 
L 51.338852 181.152 
L 51.338852 175.608 
L 51.338852 170.064 
L 51.338852 164.52 
L 51.338852 158.976 
L 51.338852 153.432 
L 51.338852 147.888 
L 51.338852 142.344 
L 51.338852 136.8 
L 51.338852 131.256 
L 51.338852 125.712 
L 51.338852 120.168 
L 51.338852 114.624 
L 51.338852 109.08 
L 51.338852 103.536 
L 51.338852 97.992 
L 51.338852 92.448 
L 51.338852 86.904 
L 51.338852 81.36 
L 51.338852 75.816 
L 51.338852 70.272 
L 51.338852 64.728 
L 51.338852 59.184 
L 51.338852 53.64 
L 51.338852 48.096 
L 51.338852 42.552 
L 51.338852 37.008 
L 51.338852 31.464 
L 51.338852 25.92 
L 53.640311 25.92 
L 53.640311 31.464 
L 53.640311 37.008 
L 53.640311 42.552 
L 53.640311 48.096 
L 53.640311 53.64 
L 53.640311 59.184 
L 53.640311 64.728 
L 53.640311 70.272 
L 53.640311 75.816 
L 53.640311 81.36 
L 53.640311 86.904 
L 53.640311 92.448 
L 53.640311 97.992 
L 53.640311 103.536 
L 53.640311 109.08 
L 53.640311 114.624 
L 53.640311 120.168 
L 53.640311 125.712 
L 53.640311 131.256 
L 53.640311 136.8 
L 53.640311 142.344 
L 53.640311 147.888 
L 53.640311 153.432 
L 53.640311 158.976 
L 53.640311 164.52 
L 53.640311 170.064 
L 53.640311 175.608 
L 53.640311 181.152 
L 53.640311 186.696 
L 53.640311 192.24 
L 51.338852 192.24 
z
" clip-path="url(#p22f3578ceb)" style="fill: #89d548"/>
    <path d="M 94.085624 186.696 
L 94.085624 181.152 
L 94.085624 175.608 
L 94.085624 170.064 
L 94.085624 164.52 
L 94.085624 158.976 
L 94.085624 153.432 
L 94.085624 147.888 
L 94.085624 142.344 
L 94.085624 136.8 
L 94.085624 131.256 
L 94.085624 125.712 
L 94.085624 120.168 
L 94.085624 114.624 
L 94.085624 109.08 
L 94.085624 103.536 
L 94.085624 97.992 
L 94.085624 92.448 
L 94.085624 86.904 
L 94.085624 81.36 
L 94.085624 75.816 
L 94.085624 70.272 
L 94.085624 64.728 
L 94.085624 59.184 
L 94.085624 53.64 
L 94.085624 48.096 
L 94.085624 42.552 
L 94.085624 37.008 
L 94.085624 31.464 
L 94.085624 25.92 
L 95.52 25.92 
L 101.472 25.92 
L 105.257828 25.92 
L 105.257828 31.464 
L 105.257828 37.008 
L 105.257828 42.552 
L 105.257828 48.096 
L 105.257828 53.64 
L 105.257828 59.184 
L 105.257828 64.728 
L 105.257828 70.272 
L 105.257828 75.816 
L 105.257828 81.36 
L 105.257828 86.904 
L 105.257828 92.448 
L 105.257828 97.992 
L 105.257828 103.536 
L 105.257828 109.08 
L 105.257828 114.624 
L 105.257828 120.168 
L 105.257828 125.712 
L 105.257828 131.256 
L 105.257828 136.8 
L 105.257828 142.344 
L 105.257828 147.888 
L 105.257828 153.432 
L 105.257828 158.976 
L 105.257828 164.52 
L 105.257828 170.064 
L 105.257828 175.608 
L 105.257828 181.152 
L 105.257828 186.696 
L 105.257828 192.24 
L 101.472 192.24 
L 95.52 192.24 
L 94.085624 192.24 
z
" clip-path="url(#p22f3578ceb)" style="fill: #89d548"/>
   </g>
   <g id="PathCollection_27">
    <path d="M 53.640311 186.696 
L 53.640311 181.152 
L 53.640311 175.608 
L 53.640311 170.064 
L 53.640311 164.52 
L 53.640311 158.976 
L 53.640311 153.432 
L 53.640311 147.888 
L 53.640311 142.344 
L 53.640311 136.8 
L 53.640311 131.256 
L 53.640311 125.712 
L 53.640311 120.168 
L 53.640311 114.624 
L 53.640311 109.08 
L 53.640311 103.536 
L 53.640311 97.992 
L 53.640311 92.448 
L 53.640311 86.904 
L 53.640311 81.36 
L 53.640311 75.816 
L 53.640311 70.272 
L 53.640311 64.728 
L 53.640311 59.184 
L 53.640311 53.64 
L 53.640311 48.096 
L 53.640311 42.552 
L 53.640311 37.008 
L 53.640311 31.464 
L 53.640311 25.92 
L 53.856 25.92 
L 58.805171 25.92 
L 58.805171 31.464 
L 58.805171 37.008 
L 58.805171 42.552 
L 58.805171 48.096 
L 58.805171 53.64 
L 58.805171 59.184 
L 58.805171 64.728 
L 58.805171 70.272 
L 58.805171 75.816 
L 58.805171 81.36 
L 58.805171 86.904 
L 58.805171 92.448 
L 58.805171 97.992 
L 58.805171 103.536 
L 58.805171 109.08 
L 58.805171 114.624 
L 58.805171 120.168 
L 58.805171 125.712 
L 58.805171 131.256 
L 58.805171 136.8 
L 58.805171 142.344 
L 58.805171 147.888 
L 58.805171 153.432 
L 58.805171 158.976 
L 58.805171 164.52 
L 58.805171 170.064 
L 58.805171 175.608 
L 58.805171 181.152 
L 58.805171 186.696 
L 58.805171 192.24 
L 53.856 192.24 
L 53.640311 192.24 
z
" clip-path="url(#p22f3578ceb)" style="fill: #b8de29"/>
    <path d="M 81.34591 186.696 
L 81.34591 181.152 
L 81.34591 175.608 
L 81.34591 170.064 
L 81.34591 164.52 
L 81.34591 158.976 
L 81.34591 153.432 
L 81.34591 147.888 
L 81.34591 142.344 
L 81.34591 136.8 
L 81.34591 131.256 
L 81.34591 125.712 
L 81.34591 120.168 
L 81.34591 114.624 
L 81.34591 109.08 
L 81.34591 103.536 
L 81.34591 97.992 
L 81.34591 92.448 
L 81.34591 86.904 
L 81.34591 81.36 
L 81.34591 75.816 
L 81.34591 70.272 
L 81.34591 64.728 
L 81.34591 59.184 
L 81.34591 53.64 
L 81.34591 48.096 
L 81.34591 42.552 
L 81.34591 37.008 
L 81.34591 31.464 
L 81.34591 25.92 
L 83.616 25.92 
L 89.568 25.92 
L 94.085624 25.92 
L 94.085624 31.464 
L 94.085624 37.008 
L 94.085624 42.552 
L 94.085624 48.096 
L 94.085624 53.64 
L 94.085624 59.184 
L 94.085624 64.728 
L 94.085624 70.272 
L 94.085624 75.816 
L 94.085624 81.36 
L 94.085624 86.904 
L 94.085624 92.448 
L 94.085624 97.992 
L 94.085624 103.536 
L 94.085624 109.08 
L 94.085624 114.624 
L 94.085624 120.168 
L 94.085624 125.712 
L 94.085624 131.256 
L 94.085624 136.8 
L 94.085624 142.344 
L 94.085624 147.888 
L 94.085624 153.432 
L 94.085624 158.976 
L 94.085624 164.52 
L 94.085624 170.064 
L 94.085624 175.608 
L 94.085624 181.152 
L 94.085624 186.696 
L 94.085624 192.24 
L 89.568 192.24 
L 83.616 192.24 
L 81.34591 192.24 
z
" clip-path="url(#p22f3578ceb)" style="fill: #b8de29"/>
   </g>
   <g id="PathCollection_28">
    <path d="M 58.805171 186.696 
L 58.805171 181.152 
L 58.805171 175.608 
L 58.805171 170.064 
L 58.805171 164.52 
L 58.805171 158.976 
L 58.805171 153.432 
L 58.805171 147.888 
L 58.805171 142.344 
L 58.805171 136.8 
L 58.805171 131.256 
L 58.805171 125.712 
L 58.805171 120.168 
L 58.805171 114.624 
L 58.805171 109.08 
L 58.805171 103.536 
L 58.805171 97.992 
L 58.805171 92.448 
L 58.805171 86.904 
L 58.805171 81.36 
L 58.805171 75.816 
L 58.805171 70.272 
L 58.805171 64.728 
L 58.805171 59.184 
L 58.805171 53.64 
L 58.805171 48.096 
L 58.805171 42.552 
L 58.805171 37.008 
L 58.805171 31.464 
L 58.805171 25.92 
L 59.808 25.92 
L 65.76 25.92 
L 71.712 25.92 
L 77.664 25.92 
L 81.34591 25.92 
L 81.34591 31.464 
L 81.34591 37.008 
L 81.34591 42.552 
L 81.34591 48.096 
L 81.34591 53.64 
L 81.34591 59.184 
L 81.34591 64.728 
L 81.34591 70.272 
L 81.34591 75.816 
L 81.34591 81.36 
L 81.34591 86.904 
L 81.34591 92.448 
L 81.34591 97.992 
L 81.34591 103.536 
L 81.34591 109.08 
L 81.34591 114.624 
L 81.34591 120.168 
L 81.34591 125.712 
L 81.34591 131.256 
L 81.34591 136.8 
L 81.34591 142.344 
L 81.34591 147.888 
L 81.34591 153.432 
L 81.34591 158.976 
L 81.34591 164.52 
L 81.34591 170.064 
L 81.34591 175.608 
L 81.34591 181.152 
L 81.34591 186.696 
L 81.34591 192.24 
L 77.664 192.24 
L 71.712 192.24 
L 65.76 192.24 
L 59.808 192.24 
L 58.805171 192.24 
z
" clip-path="url(#p22f3578ceb)" style="fill: #e7e419"/>
   </g>
   <g id="PathCollection_29">
    <defs>
     <path id="m32d1dd1c3e" d="M -4.330127 4.330127 
L 4.330127 -4.330127 
M -4.330127 -4.330127 
L 4.330127 4.330127 
" style="stroke: #000000; stroke-width: 2"/>
    </defs>
    <g clip-path="url(#p22f3578ceb)">
     <use xlink:href="#m32d1dd1c3e" x="65.76" y="109.08" style="stroke: #000000; stroke-width: 2"/>
    </g>
   </g>
   <g id="matplotlib.axis_1">
    <g id="xtick_1">
     <g id="line2d_1">
      <defs>
       <path id="mf0b2b83ad9" d="M 0 0 
L 0 3.5 
" style="stroke: #000000; stroke-width: 0.8"/>
      </defs>
      <g>
       <use xlink:href="#mf0b2b83ad9" x="75.68" y="192.24" style="stroke: #000000; stroke-width: 0.8"/>
      </g>
     </g>
     <g id="text_1">
      <!-- 250 -->
      <g transform="translate(64.2275 208.358125) scale(0.12 -0.12)">
       <defs>
        <path id="DejaVuSans-32" d="M 1228 531 
L 3431 531 
L 3431 0 
L 469 0 
L 469 531 
Q 828 903 1448 1529 
Q 2069 2156 2228 2338 
Q 2531 2678 2651 2914 
Q 2772 3150 2772 3378 
Q 2772 3750 2511 3984 
Q 2250 4219 1831 4219 
Q 1534 4219 1204 4116 
Q 875 4013 500 3803 
L 500 4441 
Q 881 4594 1212 4672 
Q 1544 4750 1819 4750 
Q 2544 4750 2975 4387 
Q 3406 4025 3406 3419 
Q 3406 3131 3298 2873 
Q 3191 2616 2906 2266 
Q 2828 2175 2409 1742 
Q 1991 1309 1228 531 
z
" transform="scale(0.015625)"/>
        <path id="DejaVuSans-35" d="M 691 4666 
L 3169 4666 
L 3169 4134 
L 1269 4134 
L 1269 2991 
Q 1406 3038 1543 3061 
Q 1681 3084 1819 3084 
Q 2600 3084 3056 2656 
Q 3513 2228 3513 1497 
Q 3513 744 3044 326 
Q 2575 -91 1722 -91 
Q 1428 -91 1123 -41 
Q 819 9 494 109 
L 494 744 
Q 775 591 1075 516 
Q 1375 441 1709 441 
Q 2250 441 2565 725 
Q 2881 1009 2881 1497 
Q 2881 1984 2565 2268 
Q 2250 2553 1709 2553 
Q 1456 2553 1204 2497 
Q 953 2441 691 2322 
L 691 4666 
z
" transform="scale(0.015625)"/>
        <path id="DejaVuSans-30" d="M 2034 4250 
Q 1547 4250 1301 3770 
Q 1056 3291 1056 2328 
Q 1056 1369 1301 889 
Q 1547 409 2034 409 
Q 2525 409 2770 889 
Q 3016 1369 3016 2328 
Q 3016 3291 2770 3770 
Q 2525 4250 2034 4250 
z
M 2034 4750 
Q 2819 4750 3233 4129 
Q 3647 3509 3647 2328 
Q 3647 1150 3233 529 
Q 2819 -91 2034 -91 
Q 1250 -91 836 529 
Q 422 1150 422 2328 
Q 422 3509 836 4129 
Q 1250 4750 2034 4750 
z
" transform="scale(0.015625)"/>
       </defs>
       <use xlink:href="#DejaVuSans-32"/>
       <use xlink:href="#DejaVuSans-35" x="63.623047"/>
       <use xlink:href="#DejaVuSans-30" x="127.246094"/>
      </g>
     </g>
    </g>
    <g id="xtick_2">
     <g id="line2d_2">
      <g>
       <use xlink:href="#mf0b2b83ad9" x="125.28" y="192.24" style="stroke: #000000; stroke-width: 0.8"/>
      </g>
     </g>
     <g id="text_2">
      <!-- 500 -->
      <g transform="translate(113.8275 208.358125) scale(0.12 -0.12)">
       <use xlink:href="#DejaVuSans-35"/>
       <use xlink:href="#DejaVuSans-30" x="63.623047"/>
       <use xlink:href="#DejaVuSans-30" x="127.246094"/>
      </g>
     </g>
    </g>
    <g id="xtick_3">
     <g id="line2d_3">
      <g>
       <use xlink:href="#mf0b2b83ad9" x="174.88" y="192.24" style="stroke: #000000; stroke-width: 0.8"/>
      </g>
     </g>
     <g id="text_3">
      <!-- 750 -->
      <g transform="translate(163.4275 208.358125) scale(0.12 -0.12)">
       <defs>
        <path id="DejaVuSans-37" d="M 525 4666 
L 3525 4666 
L 3525 4397 
L 1831 0 
L 1172 0 
L 2766 4134 
L 525 4134 
L 525 4666 
z
" transform="scale(0.015625)"/>
       </defs>
       <use xlink:href="#DejaVuSans-37"/>
       <use xlink:href="#DejaVuSans-35" x="63.623047"/>
       <use xlink:href="#DejaVuSans-30" x="127.246094"/>
      </g>
     </g>
    </g>
    <g id="text_4">
     <!-- Diploid N$_e$0 -->
     <g transform="translate(80 227.01375) scale(0.16 -0.16)">
      <defs>
       <path id="DejaVuSans-44" d="M 1259 4147 
L 1259 519 
L 2022 519 
Q 2988 519 3436 956 
Q 3884 1394 3884 2338 
Q 3884 3275 3436 3711 
Q 2988 4147 2022 4147 
L 1259 4147 
z
M 628 4666 
L 1925 4666 
Q 3281 4666 3915 4102 
Q 4550 3538 4550 2338 
Q 4550 1131 3912 565 
Q 3275 0 1925 0 
L 628 0 
L 628 4666 
z
" transform="scale(0.015625)"/>
       <path id="DejaVuSans-69" d="M 603 3500 
L 1178 3500 
L 1178 0 
L 603 0 
L 603 3500 
z
M 603 4863 
L 1178 4863 
L 1178 4134 
L 603 4134 
L 603 4863 
z
" transform="scale(0.015625)"/>
       <path id="DejaVuSans-70" d="M 1159 525 
L 1159 -1331 
L 581 -1331 
L 581 3500 
L 1159 3500 
L 1159 2969 
Q 1341 3281 1617 3432 
Q 1894 3584 2278 3584 
Q 2916 3584 3314 3078 
Q 3713 2572 3713 1747 
Q 3713 922 3314 415 
Q 2916 -91 2278 -91 
Q 1894 -91 1617 61 
Q 1341 213 1159 525 
z
M 3116 1747 
Q 3116 2381 2855 2742 
Q 2594 3103 2138 3103 
Q 1681 3103 1420 2742 
Q 1159 2381 1159 1747 
Q 1159 1113 1420 752 
Q 1681 391 2138 391 
Q 2594 391 2855 752 
Q 3116 1113 3116 1747 
z
" transform="scale(0.015625)"/>
       <path id="DejaVuSans-6c" d="M 603 4863 
L 1178 4863 
L 1178 0 
L 603 0 
L 603 4863 
z
" transform="scale(0.015625)"/>
       <path id="DejaVuSans-6f" d="M 1959 3097 
Q 1497 3097 1228 2736 
Q 959 2375 959 1747 
Q 959 1119 1226 758 
Q 1494 397 1959 397 
Q 2419 397 2687 759 
Q 2956 1122 2956 1747 
Q 2956 2369 2687 2733 
Q 2419 3097 1959 3097 
z
M 1959 3584 
Q 2709 3584 3137 3096 
Q 3566 2609 3566 1747 
Q 3566 888 3137 398 
Q 2709 -91 1959 -91 
Q 1206 -91 779 398 
Q 353 888 353 1747 
Q 353 2609 779 3096 
Q 1206 3584 1959 3584 
z
" transform="scale(0.015625)"/>
       <path id="DejaVuSans-64" d="M 2906 2969 
L 2906 4863 
L 3481 4863 
L 3481 0 
L 2906 0 
L 2906 525 
Q 2725 213 2448 61 
Q 2172 -91 1784 -91 
Q 1150 -91 751 415 
Q 353 922 353 1747 
Q 353 2572 751 3078 
Q 1150 3584 1784 3584 
Q 2172 3584 2448 3432 
Q 2725 3281 2906 2969 
z
M 947 1747 
Q 947 1113 1208 752 
Q 1469 391 1925 391 
Q 2381 391 2643 752 
Q 2906 1113 2906 1747 
Q 2906 2381 2643 2742 
Q 2381 3103 1925 3103 
Q 1469 3103 1208 2742 
Q 947 2381 947 1747 
z
" transform="scale(0.015625)"/>
       <path id="DejaVuSans-20" transform="scale(0.015625)"/>
       <path id="DejaVuSans-4e" d="M 628 4666 
L 1478 4666 
L 3547 763 
L 3547 4666 
L 4159 4666 
L 4159 0 
L 3309 0 
L 1241 3903 
L 1241 0 
L 628 0 
L 628 4666 
z
" transform="scale(0.015625)"/>
       <path id="DejaVuSans-Oblique-65" d="M 3078 2063 
Q 3088 2113 3092 2166 
Q 3097 2219 3097 2272 
Q 3097 2653 2873 2875 
Q 2650 3097 2266 3097 
Q 1838 3097 1509 2826 
Q 1181 2556 1013 2059 
L 3078 2063 
z
M 3578 1613 
L 903 1613 
Q 884 1494 878 1425 
Q 872 1356 872 1306 
Q 872 872 1139 634 
Q 1406 397 1894 397 
Q 2269 397 2603 481 
Q 2938 566 3225 728 
L 3116 159 
Q 2806 34 2476 -28 
Q 2147 -91 1806 -91 
Q 1078 -91 686 257 
Q 294 606 294 1247 
Q 294 1794 489 2264 
Q 684 2734 1063 3103 
Q 1306 3334 1642 3459 
Q 1978 3584 2356 3584 
Q 2950 3584 3301 3228 
Q 3653 2872 3653 2272 
Q 3653 2128 3634 1964 
Q 3616 1800 3578 1613 
z
" transform="scale(0.015625)"/>
      </defs>
      <use xlink:href="#DejaVuSans-44" transform="translate(0 0.015625)"/>
      <use xlink:href="#DejaVuSans-69" transform="translate(77.001953 0.015625)"/>
      <use xlink:href="#DejaVuSans-70" transform="translate(104.785156 0.015625)"/>
      <use xlink:href="#DejaVuSans-6c" transform="translate(168.261719 0.015625)"/>
      <use xlink:href="#DejaVuSans-6f" transform="translate(196.044922 0.015625)"/>
      <use xlink:href="#DejaVuSans-69" transform="translate(257.226562 0.015625)"/>
      <use xlink:href="#DejaVuSans-64" transform="translate(285.009766 0.015625)"/>
      <use xlink:href="#DejaVuSans-20" transform="translate(348.486328 0.015625)"/>
      <use xlink:href="#DejaVuSans-4e" transform="translate(380.273438 0.015625)"/>
      <use xlink:href="#DejaVuSans-Oblique-65" transform="translate(456.035156 -16.390625) scale(0.7)"/>
      <use xlink:href="#DejaVuSans-30" transform="translate(501.835938 0.015625)"/>
     </g>
    </g>
    <g id="text_5">
     <!-- 1e3 -->
     <g transform="translate(195.681875 221.452188) scale(0.1 -0.1)">
      <defs>
       <path id="DejaVuSans-31" d="M 794 531 
L 1825 531 
L 1825 4091 
L 703 3866 
L 703 4441 
L 1819 4666 
L 2450 4666 
L 2450 531 
L 3481 531 
L 3481 0 
L 794 0 
L 794 531 
z
" transform="scale(0.015625)"/>
       <path id="DejaVuSans-65" d="M 3597 1894 
L 3597 1613 
L 953 1613 
Q 991 1019 1311 708 
Q 1631 397 2203 397 
Q 2534 397 2845 478 
Q 3156 559 3463 722 
L 3463 178 
Q 3153 47 2828 -22 
Q 2503 -91 2169 -91 
Q 1331 -91 842 396 
Q 353 884 353 1716 
Q 353 2575 817 3079 
Q 1281 3584 2069 3584 
Q 2775 3584 3186 3129 
Q 3597 2675 3597 1894 
z
M 3022 2063 
Q 3016 2534 2758 2815 
Q 2500 3097 2075 3097 
Q 1594 3097 1305 2825 
Q 1016 2553 972 2059 
L 3022 2063 
z
" transform="scale(0.015625)"/>
       <path id="DejaVuSans-33" d="M 2597 2516 
Q 3050 2419 3304 2112 
Q 3559 1806 3559 1356 
Q 3559 666 3084 287 
Q 2609 -91 1734 -91 
Q 1441 -91 1130 -33 
Q 819 25 488 141 
L 488 750 
Q 750 597 1062 519 
Q 1375 441 1716 441 
Q 2309 441 2620 675 
Q 2931 909 2931 1356 
Q 2931 1769 2642 2001 
Q 2353 2234 1838 2234 
L 1294 2234 
L 1294 2753 
L 1863 2753 
Q 2328 2753 2575 2939 
Q 2822 3125 2822 3475 
Q 2822 3834 2567 4026 
Q 2313 4219 1838 4219 
Q 1578 4219 1281 4162 
Q 984 4106 628 3988 
L 628 4550 
Q 988 4650 1302 4700 
Q 1616 4750 1894 4750 
Q 2613 4750 3031 4423 
Q 3450 4097 3450 3541 
Q 3450 3153 3228 2886 
Q 3006 2619 2597 2516 
z
" transform="scale(0.015625)"/>
      </defs>
      <use xlink:href="#DejaVuSans-31"/>
      <use xlink:href="#DejaVuSans-65" x="63.623047"/>
      <use xlink:href="#DejaVuSans-33" x="125.146484"/>
     </g>
    </g>
   </g>
   <g id="matplotlib.axis_2">
    <g id="ytick_1">
     <g id="line2d_4">
      <defs>
       <path id="m5f25d9c02f" d="M 0 0 
L -3.5 0 
" style="stroke: #000000; stroke-width: 0.8"/>
      </defs>
      <g>
       <use xlink:href="#m5f25d9c02f" x="36" y="192.24" style="stroke: #000000; stroke-width: 0.8"/>
      </g>
     </g>
     <g id="text_6">
      <!-- 1.0 -->
      <g transform="translate(9.91625 196.799062) scale(0.12 -0.12)">
       <defs>
        <path id="DejaVuSans-2e" d="M 684 794 
L 1344 794 
L 1344 0 
L 684 0 
L 684 794 
z
" transform="scale(0.015625)"/>
       </defs>
       <use xlink:href="#DejaVuSans-31"/>
       <use xlink:href="#DejaVuSans-2e" x="63.623047"/>
       <use xlink:href="#DejaVuSans-30" x="95.410156"/>
      </g>
     </g>
    </g>
    <g id="ytick_2">
     <g id="line2d_5">
      <g>
       <use xlink:href="#m5f25d9c02f" x="36" y="150.66" style="stroke: #000000; stroke-width: 0.8"/>
      </g>
     </g>
     <g id="text_7">
      <!-- 1.5 -->
      <g transform="translate(9.91625 155.219063) scale(0.12 -0.12)">
       <use xlink:href="#DejaVuSans-31"/>
       <use xlink:href="#DejaVuSans-2e" x="63.623047"/>
       <use xlink:href="#DejaVuSans-35" x="95.410156"/>
      </g>
     </g>
    </g>
    <g id="ytick_3">
     <g id="line2d_6">
      <g>
       <use xlink:href="#m5f25d9c02f" x="36" y="109.08" style="stroke: #000000; stroke-width: 0.8"/>
      </g>
     </g>
     <g id="text_8">
      <!-- 2.0 -->
      <g transform="translate(9.91625 113.639062) scale(0.12 -0.12)">
       <use xlink:href="#DejaVuSans-32"/>
       <use xlink:href="#DejaVuSans-2e" x="63.623047"/>
       <use xlink:href="#DejaVuSans-30" x="95.410156"/>
      </g>
     </g>
    </g>
    <g id="ytick_4">
     <g id="line2d_7">
      <g>
       <use xlink:href="#m5f25d9c02f" x="36" y="67.5" style="stroke: #000000; stroke-width: 0.8"/>
      </g>
     </g>
     <g id="text_9">
      <!-- 2.5 -->
      <g transform="translate(9.91625 72.059063) scale(0.12 -0.12)">
       <use xlink:href="#DejaVuSans-32"/>
       <use xlink:href="#DejaVuSans-2e" x="63.623047"/>
       <use xlink:href="#DejaVuSans-35" x="95.410156"/>
      </g>
     </g>
    </g>
    <g id="ytick_5">
     <g id="line2d_8">
      <g>
       <use xlink:href="#m5f25d9c02f" x="36" y="25.92" style="stroke: #000000; stroke-width: 0.8"/>
      </g>
     </g>
     <g id="text_10">
      <!-- 3.0 -->
      <g transform="translate(9.91625 30.479062) scale(0.12 -0.12)">
       <use xlink:href="#DejaVuSans-33"/>
       <use xlink:href="#DejaVuSans-2e" x="63.623047"/>
       <use xlink:href="#DejaVuSans-30" x="95.410156"/>
      </g>
     </g>
    </g>
    <g id="text_11">
     <!-- Recombination rate -->
     <g transform="translate(2.58875 187.6775) rotate(-90) scale(0.16 -0.16)">
      <defs>
       <path id="DejaVuSans-52" d="M 2841 2188 
Q 3044 2119 3236 1894 
Q 3428 1669 3622 1275 
L 4263 0 
L 3584 0 
L 2988 1197 
Q 2756 1666 2539 1819 
Q 2322 1972 1947 1972 
L 1259 1972 
L 1259 0 
L 628 0 
L 628 4666 
L 2053 4666 
Q 2853 4666 3247 4331 
Q 3641 3997 3641 3322 
Q 3641 2881 3436 2590 
Q 3231 2300 2841 2188 
z
M 1259 4147 
L 1259 2491 
L 2053 2491 
Q 2509 2491 2742 2702 
Q 2975 2913 2975 3322 
Q 2975 3731 2742 3939 
Q 2509 4147 2053 4147 
L 1259 4147 
z
" transform="scale(0.015625)"/>
       <path id="DejaVuSans-63" d="M 3122 3366 
L 3122 2828 
Q 2878 2963 2633 3030 
Q 2388 3097 2138 3097 
Q 1578 3097 1268 2742 
Q 959 2388 959 1747 
Q 959 1106 1268 751 
Q 1578 397 2138 397 
Q 2388 397 2633 464 
Q 2878 531 3122 666 
L 3122 134 
Q 2881 22 2623 -34 
Q 2366 -91 2075 -91 
Q 1284 -91 818 406 
Q 353 903 353 1747 
Q 353 2603 823 3093 
Q 1294 3584 2113 3584 
Q 2378 3584 2631 3529 
Q 2884 3475 3122 3366 
z
" transform="scale(0.015625)"/>
       <path id="DejaVuSans-6d" d="M 3328 2828 
Q 3544 3216 3844 3400 
Q 4144 3584 4550 3584 
Q 5097 3584 5394 3201 
Q 5691 2819 5691 2113 
L 5691 0 
L 5113 0 
L 5113 2094 
Q 5113 2597 4934 2840 
Q 4756 3084 4391 3084 
Q 3944 3084 3684 2787 
Q 3425 2491 3425 1978 
L 3425 0 
L 2847 0 
L 2847 2094 
Q 2847 2600 2669 2842 
Q 2491 3084 2119 3084 
Q 1678 3084 1418 2786 
Q 1159 2488 1159 1978 
L 1159 0 
L 581 0 
L 581 3500 
L 1159 3500 
L 1159 2956 
Q 1356 3278 1631 3431 
Q 1906 3584 2284 3584 
Q 2666 3584 2933 3390 
Q 3200 3197 3328 2828 
z
" transform="scale(0.015625)"/>
       <path id="DejaVuSans-62" d="M 3116 1747 
Q 3116 2381 2855 2742 
Q 2594 3103 2138 3103 
Q 1681 3103 1420 2742 
Q 1159 2381 1159 1747 
Q 1159 1113 1420 752 
Q 1681 391 2138 391 
Q 2594 391 2855 752 
Q 3116 1113 3116 1747 
z
M 1159 2969 
Q 1341 3281 1617 3432 
Q 1894 3584 2278 3584 
Q 2916 3584 3314 3078 
Q 3713 2572 3713 1747 
Q 3713 922 3314 415 
Q 2916 -91 2278 -91 
Q 1894 -91 1617 61 
Q 1341 213 1159 525 
L 1159 0 
L 581 0 
L 581 4863 
L 1159 4863 
L 1159 2969 
z
" transform="scale(0.015625)"/>
       <path id="DejaVuSans-6e" d="M 3513 2113 
L 3513 0 
L 2938 0 
L 2938 2094 
Q 2938 2591 2744 2837 
Q 2550 3084 2163 3084 
Q 1697 3084 1428 2787 
Q 1159 2491 1159 1978 
L 1159 0 
L 581 0 
L 581 3500 
L 1159 3500 
L 1159 2956 
Q 1366 3272 1645 3428 
Q 1925 3584 2291 3584 
Q 2894 3584 3203 3211 
Q 3513 2838 3513 2113 
z
" transform="scale(0.015625)"/>
       <path id="DejaVuSans-61" d="M 2194 1759 
Q 1497 1759 1228 1600 
Q 959 1441 959 1056 
Q 959 750 1161 570 
Q 1363 391 1709 391 
Q 2188 391 2477 730 
Q 2766 1069 2766 1631 
L 2766 1759 
L 2194 1759 
z
M 3341 1997 
L 3341 0 
L 2766 0 
L 2766 531 
Q 2569 213 2275 61 
Q 1981 -91 1556 -91 
Q 1019 -91 701 211 
Q 384 513 384 1019 
Q 384 1609 779 1909 
Q 1175 2209 1959 2209 
L 2766 2209 
L 2766 2266 
Q 2766 2663 2505 2880 
Q 2244 3097 1772 3097 
Q 1472 3097 1187 3025 
Q 903 2953 641 2809 
L 641 3341 
Q 956 3463 1253 3523 
Q 1550 3584 1831 3584 
Q 2591 3584 2966 3190 
Q 3341 2797 3341 1997 
z
" transform="scale(0.015625)"/>
       <path id="DejaVuSans-74" d="M 1172 4494 
L 1172 3500 
L 2356 3500 
L 2356 3053 
L 1172 3053 
L 1172 1153 
Q 1172 725 1289 603 
Q 1406 481 1766 481 
L 2356 481 
L 2356 0 
L 1766 0 
Q 1100 0 847 248 
Q 594 497 594 1153 
L 594 3053 
L 172 3053 
L 172 3500 
L 594 3500 
L 594 4494 
L 1172 4494 
z
" transform="scale(0.015625)"/>
       <path id="DejaVuSans-72" d="M 2631 2963 
Q 2534 3019 2420 3045 
Q 2306 3072 2169 3072 
Q 1681 3072 1420 2755 
Q 1159 2438 1159 1844 
L 1159 0 
L 581 0 
L 581 3500 
L 1159 3500 
L 1159 2956 
Q 1341 3275 1631 3429 
Q 1922 3584 2338 3584 
Q 2397 3584 2469 3576 
Q 2541 3569 2628 3553 
L 2631 2963 
z
" transform="scale(0.015625)"/>
      </defs>
      <use xlink:href="#DejaVuSans-52"/>
      <use xlink:href="#DejaVuSans-65" x="64.982422"/>
      <use xlink:href="#DejaVuSans-63" x="126.505859"/>
      <use xlink:href="#DejaVuSans-6f" x="181.486328"/>
      <use xlink:href="#DejaVuSans-6d" x="242.667969"/>
      <use xlink:href="#DejaVuSans-62" x="340.080078"/>
      <use xlink:href="#DejaVuSans-69" x="403.556641"/>
      <use xlink:href="#DejaVuSans-6e" x="431.339844"/>
      <use xlink:href="#DejaVuSans-61" x="494.71875"/>
      <use xlink:href="#DejaVuSans-74" x="555.998047"/>
      <use xlink:href="#DejaVuSans-69" x="595.207031"/>
      <use xlink:href="#DejaVuSans-6f" x="622.990234"/>
      <use xlink:href="#DejaVuSans-6e" x="684.171875"/>
      <use xlink:href="#DejaVuSans-20" x="747.550781"/>
      <use xlink:href="#DejaVuSans-72" x="779.337891"/>
      <use xlink:href="#DejaVuSans-61" x="820.451172"/>
      <use xlink:href="#DejaVuSans-74" x="881.730469"/>
      <use xlink:href="#DejaVuSans-65" x="920.939453"/>
     </g>
    </g>
    <g id="text_12">
     <!-- 1e9 -->
     <g transform="translate(36 22.92) scale(0.1 -0.1)">
      <defs>
       <path id="DejaVuSans-2212" d="M 678 2272 
L 4684 2272 
L 4684 1741 
L 678 1741 
L 678 2272 
z
" transform="scale(0.015625)"/>
       <path id="DejaVuSans-39" d="M 703 97 
L 703 672 
Q 941 559 1184 500 
Q 1428 441 1663 441 
Q 2288 441 2617 861 
Q 2947 1281 2994 2138 
Q 2813 1869 2534 1725 
Q 2256 1581 1919 1581 
Q 1219 1581 811 2004 
Q 403 2428 403 3163 
Q 403 3881 828 4315 
Q 1253 4750 1959 4750 
Q 2769 4750 3195 4129 
Q 3622 3509 3622 2328 
Q 3622 1225 3098 567 
Q 2575 -91 1691 -91 
Q 1453 -91 1209 -44 
Q 966 3 703 97 
z
M 1959 2075 
Q 2384 2075 2632 2365 
Q 2881 2656 2881 3163 
Q 2881 3666 2632 3958 
Q 2384 4250 1959 4250 
Q 1534 4250 1286 3958 
Q 1038 3666 1038 3163 
Q 1038 2656 1286 2365 
Q 1534 2075 1959 2075 
z
" transform="scale(0.015625)"/>
      </defs>
      <use xlink:href="#DejaVuSans-31"/>
      <use xlink:href="#DejaVuSans-65" x="63.623047"/>
      <use xlink:href="#DejaVuSans-2212" x="125.146484"/>
      <use xlink:href="#DejaVuSans-39" x="208.935547"/>
     </g>
    </g>
   </g>
   <g id="patch_3">
    <path d="M 36 192.24 
L 36 25.92 
" style="fill: none; stroke: #000000; stroke-width: 0.8; stroke-linejoin: miter; stroke-linecap: square"/>
   </g>
   <g id="patch_4">
    <path d="M 214.56 192.24 
L 214.56 25.92 
" style="fill: none; stroke: #000000; stroke-width: 0.8; stroke-linejoin: miter; stroke-linecap: square"/>
   </g>
   <g id="patch_5">
    <path d="M 36 192.24 
L 214.56 192.24 
" style="fill: none; stroke: #000000; stroke-width: 0.8; stroke-linejoin: miter; stroke-linecap: square"/>
   </g>
   <g id="patch_6">
    <path d="M 36 25.92 
L 214.56 25.92 
" style="fill: none; stroke: #000000; stroke-width: 0.8; stroke-linejoin: miter; stroke-linecap: square"/>
   </g>
   <g id="text_13">
    <!-- Ne0r-MSC-R-P2-S4 -->
    <g transform="translate(52.07 10.92) scale(0.16 -0.16)">
     <defs>
      <path id="DejaVuSans-2d" d="M 313 2009 
L 1997 2009 
L 1997 1497 
L 313 1497 
L 313 2009 
z
" transform="scale(0.015625)"/>
      <path id="DejaVuSans-4d" d="M 628 4666 
L 1569 4666 
L 2759 1491 
L 3956 4666 
L 4897 4666 
L 4897 0 
L 4281 0 
L 4281 4097 
L 3078 897 
L 2444 897 
L 1241 4097 
L 1241 0 
L 628 0 
L 628 4666 
z
" transform="scale(0.015625)"/>
      <path id="DejaVuSans-53" d="M 3425 4513 
L 3425 3897 
Q 3066 4069 2747 4153 
Q 2428 4238 2131 4238 
Q 1616 4238 1336 4038 
Q 1056 3838 1056 3469 
Q 1056 3159 1242 3001 
Q 1428 2844 1947 2747 
L 2328 2669 
Q 3034 2534 3370 2195 
Q 3706 1856 3706 1288 
Q 3706 609 3251 259 
Q 2797 -91 1919 -91 
Q 1588 -91 1214 -16 
Q 841 59 441 206 
L 441 856 
Q 825 641 1194 531 
Q 1563 422 1919 422 
Q 2459 422 2753 634 
Q 3047 847 3047 1241 
Q 3047 1584 2836 1778 
Q 2625 1972 2144 2069 
L 1759 2144 
Q 1053 2284 737 2584 
Q 422 2884 422 3419 
Q 422 4038 858 4394 
Q 1294 4750 2059 4750 
Q 2388 4750 2728 4690 
Q 3069 4631 3425 4513 
z
" transform="scale(0.015625)"/>
      <path id="DejaVuSans-43" d="M 4122 4306 
L 4122 3641 
Q 3803 3938 3442 4084 
Q 3081 4231 2675 4231 
Q 1875 4231 1450 3742 
Q 1025 3253 1025 2328 
Q 1025 1406 1450 917 
Q 1875 428 2675 428 
Q 3081 428 3442 575 
Q 3803 722 4122 1019 
L 4122 359 
Q 3791 134 3420 21 
Q 3050 -91 2638 -91 
Q 1578 -91 968 557 
Q 359 1206 359 2328 
Q 359 3453 968 4101 
Q 1578 4750 2638 4750 
Q 3056 4750 3426 4639 
Q 3797 4528 4122 4306 
z
" transform="scale(0.015625)"/>
      <path id="DejaVuSans-50" d="M 1259 4147 
L 1259 2394 
L 2053 2394 
Q 2494 2394 2734 2622 
Q 2975 2850 2975 3272 
Q 2975 3691 2734 3919 
Q 2494 4147 2053 4147 
L 1259 4147 
z
M 628 4666 
L 2053 4666 
Q 2838 4666 3239 4311 
Q 3641 3956 3641 3272 
Q 3641 2581 3239 2228 
Q 2838 1875 2053 1875 
L 1259 1875 
L 1259 0 
L 628 0 
L 628 4666 
z
" transform="scale(0.015625)"/>
      <path id="DejaVuSans-34" d="M 2419 4116 
L 825 1625 
L 2419 1625 
L 2419 4116 
z
M 2253 4666 
L 3047 4666 
L 3047 1625 
L 3713 1625 
L 3713 1100 
L 3047 1100 
L 3047 0 
L 2419 0 
L 2419 1100 
L 313 1100 
L 313 1709 
L 2253 4666 
z
" transform="scale(0.015625)"/>
     </defs>
     <use xlink:href="#DejaVuSans-4e"/>
     <use xlink:href="#DejaVuSans-65" x="74.804688"/>
     <use xlink:href="#DejaVuSans-30" x="136.328125"/>
     <use xlink:href="#DejaVuSans-72" x="199.951172"/>
     <use xlink:href="#DejaVuSans-2d" x="234.689453"/>
     <use xlink:href="#DejaVuSans-4d" x="270.773438"/>
     <use xlink:href="#DejaVuSans-53" x="357.052734"/>
     <use xlink:href="#DejaVuSans-43" x="420.529297"/>
     <use xlink:href="#DejaVuSans-2d" x="490.353516"/>
     <use xlink:href="#DejaVuSans-52" x="526.4375"/>
     <use xlink:href="#DejaVuSans-2d" x="591.919922"/>
     <use xlink:href="#DejaVuSans-50" x="628.003906"/>
     <use xlink:href="#DejaVuSans-32" x="688.306641"/>
     <use xlink:href="#DejaVuSans-2d" x="751.929688"/>
     <use xlink:href="#DejaVuSans-53" x="788.013672"/>
     <use xlink:href="#DejaVuSans-34" x="851.490234"/>
    </g>
   </g>
  </g>
  <g id="axes_2">
   <g id="patch_7">
    <path d="M 225.72 192.24 
L 234.036 192.24 
L 234.036 25.92 
L 225.72 25.92 
z
" style="fill: #ffffff"/>
   </g>
   <g id="QuadMesh_1">
    <path d="M 225.72 192.24 
L 234.036 192.24 
L 234.036 186.3 
L 225.72 186.3 
L 225.72 192.24 
" clip-path="url(#p5858ccea91)" style="fill: #440154"/>
    <path d="M 225.72 186.3 
L 234.036 186.3 
L 234.036 180.36 
L 225.72 180.36 
L 225.72 186.3 
" clip-path="url(#p5858ccea91)" style="fill: #440154"/>
    <path d="M 225.72 180.36 
L 234.036 180.36 
L 234.036 174.42 
L 225.72 174.42 
L 225.72 180.36 
" clip-path="url(#p5858ccea91)" style="fill: #440154"/>
    <path d="M 225.72 174.42 
L 234.036 174.42 
L 234.036 168.48 
L 225.72 168.48 
L 225.72 174.42 
" clip-path="url(#p5858ccea91)" style="fill: #440154"/>
    <path d="M 225.72 168.48 
L 234.036 168.48 
L 234.036 162.54 
L 225.72 162.54 
L 225.72 168.48 
" clip-path="url(#p5858ccea91)" style="fill: #440154"/>
    <path d="M 225.72 162.54 
L 234.036 162.54 
L 234.036 156.6 
L 225.72 156.6 
L 225.72 162.54 
" clip-path="url(#p5858ccea91)" style="fill: #440154"/>
    <path d="M 225.72 156.6 
L 234.036 156.6 
L 234.036 150.66 
L 225.72 150.66 
L 225.72 156.6 
" clip-path="url(#p5858ccea91)" style="fill: #440154"/>
    <path d="M 225.72 150.66 
L 234.036 150.66 
L 234.036 144.72 
L 225.72 144.72 
L 225.72 150.66 
" clip-path="url(#p5858ccea91)" style="fill: #440154"/>
    <path d="M 225.72 144.72 
L 234.036 144.72 
L 234.036 138.78 
L 225.72 138.78 
L 225.72 144.72 
" clip-path="url(#p5858ccea91)" style="fill: #440154"/>
    <path d="M 225.72 138.78 
L 234.036 138.78 
L 234.036 132.84 
L 225.72 132.84 
L 225.72 138.78 
" clip-path="url(#p5858ccea91)" style="fill: #440154"/>
    <path d="M 225.72 132.84 
L 234.036 132.84 
L 234.036 126.9 
L 225.72 126.9 
L 225.72 132.84 
" clip-path="url(#p5858ccea91)" style="fill: #440154"/>
    <path d="M 225.72 126.9 
L 234.036 126.9 
L 234.036 120.96 
L 225.72 120.96 
L 225.72 126.9 
" clip-path="url(#p5858ccea91)" style="fill: #440154"/>
    <path d="M 225.72 120.96 
L 234.036 120.96 
L 234.036 115.02 
L 225.72 115.02 
L 225.72 120.96 
" clip-path="url(#p5858ccea91)" style="fill: #440154"/>
    <path d="M 225.72 115.02 
L 234.036 115.02 
L 234.036 109.08 
L 225.72 109.08 
L 225.72 115.02 
" clip-path="url(#p5858ccea91)" style="fill: #440154"/>
    <path d="M 225.72 109.08 
L 234.036 109.08 
L 234.036 103.14 
L 225.72 103.14 
L 225.72 109.08 
" clip-path="url(#p5858ccea91)" style="fill: #470e61"/>
    <path d="M 225.72 103.14 
L 234.036 103.14 
L 234.036 97.2 
L 225.72 97.2 
L 225.72 103.14 
" clip-path="url(#p5858ccea91)" style="fill: #482677"/>
    <path d="M 225.72 97.2 
L 234.036 97.2 
L 234.036 91.26 
L 225.72 91.26 
L 225.72 97.2 
" clip-path="url(#p5858ccea91)" style="fill: #433e85"/>
    <path d="M 225.72 91.26 
L 234.036 91.26 
L 234.036 85.32 
L 225.72 85.32 
L 225.72 91.26 
" clip-path="url(#p5858ccea91)" style="fill: #3b528b"/>
    <path d="M 225.72 85.32 
L 234.036 85.32 
L 234.036 79.38 
L 225.72 79.38 
L 225.72 85.32 
" clip-path="url(#p5858ccea91)" style="fill: #32658e"/>
    <path d="M 225.72 79.38 
L 234.036 79.38 
L 234.036 73.44 
L 225.72 73.44 
L 225.72 79.38 
" clip-path="url(#p5858ccea91)" style="fill: #2a768e"/>
    <path d="M 225.72 73.44 
L 234.036 73.44 
L 234.036 67.5 
L 225.72 67.5 
L 225.72 73.44 
" clip-path="url(#p5858ccea91)" style="fill: #23888e"/>
    <path d="M 225.72 67.5 
L 234.036 67.5 
L 234.036 61.56 
L 225.72 61.56 
L 225.72 67.5 
" clip-path="url(#p5858ccea91)" style="fill: #1f998a"/>
    <path d="M 225.72 61.56 
L 234.036 61.56 
L 234.036 55.62 
L 225.72 55.62 
L 225.72 61.56 
" clip-path="url(#p5858ccea91)" style="fill: #24aa83"/>
    <path d="M 225.72 55.62 
L 234.036 55.62 
L 234.036 49.68 
L 225.72 49.68 
L 225.72 55.62 
" clip-path="url(#p5858ccea91)" style="fill: #3aba76"/>
    <path d="M 225.72 49.68 
L 234.036 49.68 
L 234.036 43.74 
L 225.72 43.74 
L 225.72 49.68 
" clip-path="url(#p5858ccea91)" style="fill: #5ec962"/>
    <path d="M 225.72 43.74 
L 234.036 43.74 
L 234.036 37.8 
L 225.72 37.8 
L 225.72 43.74 
" clip-path="url(#p5858ccea91)" style="fill: #89d548"/>
    <path d="M 225.72 37.8 
L 234.036 37.8 
L 234.036 31.86 
L 225.72 31.86 
L 225.72 37.8 
" clip-path="url(#p5858ccea91)" style="fill: #b8de29"/>
    <path d="M 225.72 31.86 
L 234.036 31.86 
L 234.036 25.92 
L 225.72 25.92 
L 225.72 31.86 
" clip-path="url(#p5858ccea91)" style="fill: #e7e419"/>
   </g>
   <g id="matplotlib.axis_3"/>
   <g id="matplotlib.axis_4">
    <g id="ytick_6">
     <g id="line2d_9">
      <defs>
       <path id="m081586bb62" d="M 0 0 
L 3.5 0 
" style="stroke: #000000; stroke-width: 0.8"/>
      </defs>
      <g>
       <use xlink:href="#m081586bb62" x="234.036" y="186.3" style="stroke: #000000; stroke-width: 0.8"/>
      </g>
     </g>
     <g id="text_14">
      <!-- $\mathdefault{5336}$ -->
      <g transform="translate(241.036 190.099219) scale(0.1 -0.1)">
       <defs>
        <path id="DejaVuSans-36" d="M 2113 2584 
Q 1688 2584 1439 2293 
Q 1191 2003 1191 1497 
Q 1191 994 1439 701 
Q 1688 409 2113 409 
Q 2538 409 2786 701 
Q 3034 994 3034 1497 
Q 3034 2003 2786 2293 
Q 2538 2584 2113 2584 
z
M 3366 4563 
L 3366 3988 
Q 3128 4100 2886 4159 
Q 2644 4219 2406 4219 
Q 1781 4219 1451 3797 
Q 1122 3375 1075 2522 
Q 1259 2794 1537 2939 
Q 1816 3084 2150 3084 
Q 2853 3084 3261 2657 
Q 3669 2231 3669 1497 
Q 3669 778 3244 343 
Q 2819 -91 2113 -91 
Q 1303 -91 875 529 
Q 447 1150 447 2328 
Q 447 3434 972 4092 
Q 1497 4750 2381 4750 
Q 2619 4750 2861 4703 
Q 3103 4656 3366 4563 
z
" transform="scale(0.015625)"/>
       </defs>
       <use xlink:href="#DejaVuSans-2212" transform="translate(0 0.78125)"/>
       <use xlink:href="#DejaVuSans-35" transform="translate(83.789062 0.78125)"/>
       <use xlink:href="#DejaVuSans-33" transform="translate(147.412109 0.78125)"/>
       <use xlink:href="#DejaVuSans-33" transform="translate(211.035156 0.78125)"/>
       <use xlink:href="#DejaVuSans-36" transform="translate(274.658203 0.78125)"/>
      </g>
     </g>
    </g>
    <g id="ytick_7">
     <g id="line2d_10">
      <g>
       <use xlink:href="#m081586bb62" x="234.036" y="168.48" style="stroke: #000000; stroke-width: 0.8"/>
      </g>
     </g>
     <g id="text_15">
      <!-- $\mathdefault{5312}$ -->
      <g transform="translate(241.036 172.279219) scale(0.1 -0.1)">
       <use xlink:href="#DejaVuSans-2212" transform="translate(0 0.78125)"/>
       <use xlink:href="#DejaVuSans-35" transform="translate(83.789062 0.78125)"/>
       <use xlink:href="#DejaVuSans-33" transform="translate(147.412109 0.78125)"/>
       <use xlink:href="#DejaVuSans-31" transform="translate(211.035156 0.78125)"/>
       <use xlink:href="#DejaVuSans-32" transform="translate(274.658203 0.78125)"/>
      </g>
     </g>
    </g>
    <g id="ytick_8">
     <g id="line2d_11">
      <g>
       <use xlink:href="#m081586bb62" x="234.036" y="150.66" style="stroke: #000000; stroke-width: 0.8"/>
      </g>
     </g>
     <g id="text_16">
      <!-- $\mathdefault{5288}$ -->
      <g transform="translate(241.036 154.459219) scale(0.1 -0.1)">
       <defs>
        <path id="DejaVuSans-38" d="M 2034 2216 
Q 1584 2216 1326 1975 
Q 1069 1734 1069 1313 
Q 1069 891 1326 650 
Q 1584 409 2034 409 
Q 2484 409 2743 651 
Q 3003 894 3003 1313 
Q 3003 1734 2745 1975 
Q 2488 2216 2034 2216 
z
M 1403 2484 
Q 997 2584 770 2862 
Q 544 3141 544 3541 
Q 544 4100 942 4425 
Q 1341 4750 2034 4750 
Q 2731 4750 3128 4425 
Q 3525 4100 3525 3541 
Q 3525 3141 3298 2862 
Q 3072 2584 2669 2484 
Q 3125 2378 3379 2068 
Q 3634 1759 3634 1313 
Q 3634 634 3220 271 
Q 2806 -91 2034 -91 
Q 1263 -91 848 271 
Q 434 634 434 1313 
Q 434 1759 690 2068 
Q 947 2378 1403 2484 
z
M 1172 3481 
Q 1172 3119 1398 2916 
Q 1625 2713 2034 2713 
Q 2441 2713 2670 2916 
Q 2900 3119 2900 3481 
Q 2900 3844 2670 4047 
Q 2441 4250 2034 4250 
Q 1625 4250 1398 4047 
Q 1172 3844 1172 3481 
z
" transform="scale(0.015625)"/>
       </defs>
       <use xlink:href="#DejaVuSans-2212" transform="translate(0 0.78125)"/>
       <use xlink:href="#DejaVuSans-35" transform="translate(83.789062 0.78125)"/>
       <use xlink:href="#DejaVuSans-32" transform="translate(147.412109 0.78125)"/>
       <use xlink:href="#DejaVuSans-38" transform="translate(211.035156 0.78125)"/>
       <use xlink:href="#DejaVuSans-38" transform="translate(274.658203 0.78125)"/>
      </g>
     </g>
    </g>
    <g id="ytick_9">
     <g id="line2d_12">
      <g>
       <use xlink:href="#m081586bb62" x="234.036" y="132.84" style="stroke: #000000; stroke-width: 0.8"/>
      </g>
     </g>
     <g id="text_17">
      <!-- $\mathdefault{5264}$ -->
      <g transform="translate(241.036 136.639219) scale(0.1 -0.1)">
       <use xlink:href="#DejaVuSans-2212" transform="translate(0 0.78125)"/>
       <use xlink:href="#DejaVuSans-35" transform="translate(83.789062 0.78125)"/>
       <use xlink:href="#DejaVuSans-32" transform="translate(147.412109 0.78125)"/>
       <use xlink:href="#DejaVuSans-36" transform="translate(211.035156 0.78125)"/>
       <use xlink:href="#DejaVuSans-34" transform="translate(274.658203 0.78125)"/>
      </g>
     </g>
    </g>
    <g id="ytick_10">
     <g id="line2d_13">
      <g>
       <use xlink:href="#m081586bb62" x="234.036" y="115.02" style="stroke: #000000; stroke-width: 0.8"/>
      </g>
     </g>
     <g id="text_18">
      <!-- $\mathdefault{5240}$ -->
      <g transform="translate(241.036 118.819219) scale(0.1 -0.1)">
       <use xlink:href="#DejaVuSans-2212" transform="translate(0 0.78125)"/>
       <use xlink:href="#DejaVuSans-35" transform="translate(83.789062 0.78125)"/>
       <use xlink:href="#DejaVuSans-32" transform="translate(147.412109 0.78125)"/>
       <use xlink:href="#DejaVuSans-34" transform="translate(211.035156 0.78125)"/>
       <use xlink:href="#DejaVuSans-30" transform="translate(274.658203 0.78125)"/>
      </g>
     </g>
    </g>
    <g id="ytick_11">
     <g id="line2d_14">
      <g>
       <use xlink:href="#m081586bb62" x="234.036" y="97.2" style="stroke: #000000; stroke-width: 0.8"/>
      </g>
     </g>
     <g id="text_19">
      <!-- $\mathdefault{5216}$ -->
      <g transform="translate(241.036 100.999219) scale(0.1 -0.1)">
       <use xlink:href="#DejaVuSans-2212" transform="translate(0 0.78125)"/>
       <use xlink:href="#DejaVuSans-35" transform="translate(83.789062 0.78125)"/>
       <use xlink:href="#DejaVuSans-32" transform="translate(147.412109 0.78125)"/>
       <use xlink:href="#DejaVuSans-31" transform="translate(211.035156 0.78125)"/>
       <use xlink:href="#DejaVuSans-36" transform="translate(274.658203 0.78125)"/>
      </g>
     </g>
    </g>
    <g id="ytick_12">
     <g id="line2d_15">
      <g>
       <use xlink:href="#m081586bb62" x="234.036" y="79.38" style="stroke: #000000; stroke-width: 0.8"/>
      </g>
     </g>
     <g id="text_20">
      <!-- $\mathdefault{5192}$ -->
      <g transform="translate(241.036 83.179219) scale(0.1 -0.1)">
       <use xlink:href="#DejaVuSans-2212" transform="translate(0 0.78125)"/>
       <use xlink:href="#DejaVuSans-35" transform="translate(83.789062 0.78125)"/>
       <use xlink:href="#DejaVuSans-31" transform="translate(147.412109 0.78125)"/>
       <use xlink:href="#DejaVuSans-39" transform="translate(211.035156 0.78125)"/>
       <use xlink:href="#DejaVuSans-32" transform="translate(272.908203 0.78125)"/>
      </g>
     </g>
    </g>
    <g id="ytick_13">
     <g id="line2d_16">
      <g>
       <use xlink:href="#m081586bb62" x="234.036" y="61.56" style="stroke: #000000; stroke-width: 0.8"/>
      </g>
     </g>
     <g id="text_21">
      <!-- $\mathdefault{5168}$ -->
      <g transform="translate(241.036 65.359219) scale(0.1 -0.1)">
       <use xlink:href="#DejaVuSans-2212" transform="translate(0 0.78125)"/>
       <use xlink:href="#DejaVuSans-35" transform="translate(83.789062 0.78125)"/>
       <use xlink:href="#DejaVuSans-31" transform="translate(147.412109 0.78125)"/>
       <use xlink:href="#DejaVuSans-36" transform="translate(211.035156 0.78125)"/>
       <use xlink:href="#DejaVuSans-38" transform="translate(274.658203 0.78125)"/>
      </g>
     </g>
    </g>
    <g id="ytick_14">
     <g id="line2d_17">
      <g>
       <use xlink:href="#m081586bb62" x="234.036" y="43.74" style="stroke: #000000; stroke-width: 0.8"/>
      </g>
     </g>
     <g id="text_22">
      <!-- $\mathdefault{5144}$ -->
      <g transform="translate(241.036 47.539219) scale(0.1 -0.1)">
       <use xlink:href="#DejaVuSans-2212" transform="translate(0 0.09375)"/>
       <use xlink:href="#DejaVuSans-35" transform="translate(83.789062 0.09375)"/>
       <use xlink:href="#DejaVuSans-31" transform="translate(147.412109 0.09375)"/>
       <use xlink:href="#DejaVuSans-34" transform="translate(211.035156 0.09375)"/>
       <use xlink:href="#DejaVuSans-34" transform="translate(274.658203 0.09375)"/>
      </g>
     </g>
    </g>
    <g id="ytick_15">
     <g id="line2d_18">
      <g>
       <use xlink:href="#m081586bb62" x="234.036" y="25.92" style="stroke: #000000; stroke-width: 0.8"/>
      </g>
     </g>
     <g id="text_23">
      <!-- $\mathdefault{5120}$ -->
      <g transform="translate(241.036 29.719219) scale(0.1 -0.1)">
       <use xlink:href="#DejaVuSans-2212" transform="translate(0 0.78125)"/>
       <use xlink:href="#DejaVuSans-35" transform="translate(83.789062 0.78125)"/>
       <use xlink:href="#DejaVuSans-31" transform="translate(147.412109 0.78125)"/>
       <use xlink:href="#DejaVuSans-32" transform="translate(211.035156 0.78125)"/>
       <use xlink:href="#DejaVuSans-30" transform="translate(274.658203 0.78125)"/>
      </g>
     </g>
    </g>
    <g id="text_24">
     <!-- log likelihood -->
     <g transform="translate(288.054125 148.704375) rotate(-90) scale(0.12 -0.12)">
      <defs>
       <path id="DejaVuSans-67" d="M 2906 1791 
Q 2906 2416 2648 2759 
Q 2391 3103 1925 3103 
Q 1463 3103 1205 2759 
Q 947 2416 947 1791 
Q 947 1169 1205 825 
Q 1463 481 1925 481 
Q 2391 481 2648 825 
Q 2906 1169 2906 1791 
z
M 3481 434 
Q 3481 -459 3084 -895 
Q 2688 -1331 1869 -1331 
Q 1566 -1331 1297 -1286 
Q 1028 -1241 775 -1147 
L 775 -588 
Q 1028 -725 1275 -790 
Q 1522 -856 1778 -856 
Q 2344 -856 2625 -561 
Q 2906 -266 2906 331 
L 2906 616 
Q 2728 306 2450 153 
Q 2172 0 1784 0 
Q 1141 0 747 490 
Q 353 981 353 1791 
Q 353 2603 747 3093 
Q 1141 3584 1784 3584 
Q 2172 3584 2450 3431 
Q 2728 3278 2906 2969 
L 2906 3500 
L 3481 3500 
L 3481 434 
z
" transform="scale(0.015625)"/>
       <path id="DejaVuSans-6b" d="M 581 4863 
L 1159 4863 
L 1159 1991 
L 2875 3500 
L 3609 3500 
L 1753 1863 
L 3688 0 
L 2938 0 
L 1159 1709 
L 1159 0 
L 581 0 
L 581 4863 
z
" transform="scale(0.015625)"/>
       <path id="DejaVuSans-68" d="M 3513 2113 
L 3513 0 
L 2938 0 
L 2938 2094 
Q 2938 2591 2744 2837 
Q 2550 3084 2163 3084 
Q 1697 3084 1428 2787 
Q 1159 2491 1159 1978 
L 1159 0 
L 581 0 
L 581 4863 
L 1159 4863 
L 1159 2956 
Q 1366 3272 1645 3428 
Q 1925 3584 2291 3584 
Q 2894 3584 3203 3211 
Q 3513 2838 3513 2113 
z
" transform="scale(0.015625)"/>
      </defs>
      <use xlink:href="#DejaVuSans-6c"/>
      <use xlink:href="#DejaVuSans-6f" x="27.783203"/>
      <use xlink:href="#DejaVuSans-67" x="88.964844"/>
      <use xlink:href="#DejaVuSans-20" x="152.441406"/>
      <use xlink:href="#DejaVuSans-6c" x="184.228516"/>
      <use xlink:href="#DejaVuSans-69" x="212.011719"/>
      <use xlink:href="#DejaVuSans-6b" x="239.794922"/>
      <use xlink:href="#DejaVuSans-65" x="294.080078"/>
      <use xlink:href="#DejaVuSans-6c" x="355.603516"/>
      <use xlink:href="#DejaVuSans-69" x="383.386719"/>
      <use xlink:href="#DejaVuSans-68" x="411.169922"/>
      <use xlink:href="#DejaVuSans-6f" x="474.548828"/>
      <use xlink:href="#DejaVuSans-6f" x="535.730469"/>
      <use xlink:href="#DejaVuSans-64" x="596.912109"/>
     </g>
    </g>
    <g id="text_25">
     <!-- $\times\mathdefault{10^{3}}\mathdefault{}$ -->
     <g transform="translate(208.036 22.92) scale(0.1 -0.1)">
      <defs>
       <path id="DejaVuSans-d7" d="M 4488 3438 
L 3059 2003 
L 4488 575 
L 4116 197 
L 2681 1631 
L 1247 197 
L 878 575 
L 2303 2003 
L 878 3438 
L 1247 3816 
L 2681 2381 
L 4116 3816 
L 4488 3438 
z
" transform="scale(0.015625)"/>
      </defs>
      <use xlink:href="#DejaVuSans-d7" transform="translate(0 0.765625)"/>
      <use xlink:href="#DejaVuSans-31" transform="translate(83.789062 0.765625)"/>
      <use xlink:href="#DejaVuSans-30" transform="translate(147.412109 0.765625)"/>
      <use xlink:href="#DejaVuSans-33" transform="translate(211.992188 39.046875) scale(0.7)"/>
     </g>
    </g>
   </g>
   <g id="LineCollection_1"/>
   <g id="patch_8">
    <path d="M 225.72 192.24 
L 229.878 192.24 
L 234.036 192.24 
L 234.036 25.92 
L 229.878 25.92 
L 225.72 25.92 
L 225.72 192.24 
z
" style="fill: none; stroke: #000000; stroke-width: 0.8; stroke-linejoin: miter; stroke-linecap: square"/>
   </g>
  </g>
 </g>
 <defs>
  <clipPath id="p22f3578ceb">
   <rect x="36" y="25.92" width="178.56" height="166.32"/>
  </clipPath>
  <clipPath id="p5858ccea91">
   <rect x="225.72" y="25.92" width="8.316" height="166.32"/>
  </clipPath>
 </defs>
</svg>
