<?xml version="1.0" encoding="utf-8" standalone="no"?>
<!DOCTYPE svg PUBLIC "-//W3C//DTD SVG 1.1//EN"
  "http://www.w3.org/Graphics/SVG/1.1/DTD/svg11.dtd">
<svg xmlns:xlink="http://www.w3.org/1999/xlink" width="288pt" height="216pt" viewBox="0 0 288 216" xmlns="http://www.w3.org/2000/svg" version="1.1">
 <metadata>
  <rdf:RDF xmlns:dc="http://purl.org/dc/elements/1.1/" xmlns:cc="http://creativecommons.org/ns#" xmlns:rdf="http://www.w3.org/1999/02/22-rdf-syntax-ns#">
   <cc:Work>
    <dc:type rdf:resource="http://purl.org/dc/dcmitype/StillImage"/>
    <dc:date>2023-07-18T19:47:44.253045</dc:date>
    <dc:format>image/svg+xml</dc:format>
    <dc:creator>
     <cc:Agent>
      <dc:title>Matplotlib v3.7.1, https://matplotlib.org/</dc:title>
     </cc:Agent>
    </dc:creator>
   </cc:Work>
  </rdf:RDF>
 </metadata>
 <defs>
  <style type="text/css">*{stroke-linejoin: round; stroke-linecap: butt}</style>
 </defs>
 <g id="figure_1">
  <g id="patch_1">
   <path d="M 0 216 
L 288 216 
L 288 0 
L 0 0 
z
" style="fill: #ffffff"/>
  </g>
  <g id="axes_1">
   <g id="patch_2">
    <path d="M 36 192.24 
L 214.56 192.24 
L 214.56 25.92 
L 36 25.92 
z
" style="fill: #ffffff"/>
   </g>
   <g id="PathCollection_1">
    <path d="M 36.081945 192.24 
L 36 192.24 
L 36 192.19831 
z
" clip-path="url(#p73b85b3185)" style="fill: #440154"/>
   </g>
   <g id="PathCollection_2">
    <path d="M 37.384994 192.24 
L 36.081945 192.24 
L 36 192.19831 
L 36 191.535368 
z
" clip-path="url(#p73b85b3185)" style="fill: #440154"/>
   </g>
   <g id="PathCollection_3">
    <path d="M 38.688044 192.24 
L 37.384994 192.24 
L 36 191.535368 
L 36 190.872427 
z
" clip-path="url(#p73b85b3185)" style="fill: #440154"/>
   </g>
   <g id="PathCollection_4">
    <path d="M 39.991093 192.24 
L 38.688044 192.24 
L 36 190.872427 
L 36 190.209486 
z
" clip-path="url(#p73b85b3185)" style="fill: #440154"/>
   </g>
   <g id="PathCollection_5">
    <path d="M 41.294143 192.24 
L 39.991093 192.24 
L 36 190.209486 
L 36 189.546545 
z
" clip-path="url(#p73b85b3185)" style="fill: #440154"/>
   </g>
   <g id="PathCollection_6">
    <path d="M 41.952 191.911646 
L 43.524269 192.24 
L 41.952 192.24 
L 41.294143 192.24 
L 36 189.546545 
L 36 188.883603 
z
" clip-path="url(#p73b85b3185)" style="fill: #440154"/>
   </g>
   <g id="PathCollection_7">
    <path d="M 41.952 191.248492 
L 46.699668 192.24 
L 43.524269 192.24 
L 41.952 191.911646 
L 36 188.883603 
L 36 188.220662 
z
" clip-path="url(#p73b85b3185)" style="fill: #440154"/>
   </g>
   <g id="PathCollection_8">
    <path d="M 41.952 190.585339 
L 47.904 191.828251 
L 51.769599 192.24 
L 47.904 192.24 
L 46.699668 192.24 
L 41.952 191.248492 
L 36 188.220662 
L 36 187.557721 
z
" clip-path="url(#p73b85b3185)" style="fill: #440154"/>
   </g>
   <g id="PathCollection_9">
    <path d="M 41.952 189.922185 
L 47.904 191.164921 
L 53.856 191.798803 
L 59.808 192.158706 
L 62.048568 192.24 
L 59.808 192.24 
L 53.856 192.24 
L 51.769599 192.24 
L 47.904 191.828251 
L 41.952 190.585339 
L 36 187.557721 
L 36 186.89478 
z
" clip-path="url(#p73b85b3185)" style="fill: #440154"/>
    <path d="M 196.704 192.231557 
L 202.656 192.201524 
L 208.608 192.171829 
L 214.56 192.142491 
L 214.56 192.24 
L 208.608 192.24 
L 202.656 192.24 
L 196.704 192.24 
L 195.047827 192.24 
z
" clip-path="url(#p73b85b3185)" style="fill: #440154"/>
   </g>
   <g id="PathCollection_10">
    <path d="M 36 186.696 
L 36 185.599462 
L 36.912872 186.696 
L 41.952 189.259031 
L 47.904 190.501591 
L 53.856 191.135319 
L 59.808 191.495084 
L 65.76 191.710941 
L 71.712 191.843364 
L 77.664 191.924017 
L 83.616 191.970942 
L 89.568 191.995081 
L 95.52 192.003402 
L 101.472 192.000517 
L 107.424 191.989573 
L 113.376 191.972773 
L 119.328 191.951694 
L 125.28 191.92748 
L 131.232 191.900981 
L 137.184 191.872829 
L 143.136 191.843504 
L 149.088 191.813371 
L 155.04 191.782711 
L 160.992 191.751739 
L 166.944 191.720624 
L 172.896 191.689496 
L 178.848 191.658456 
L 184.8 191.627584 
L 190.752 191.596939 
L 196.704 191.56657 
L 202.656 191.536512 
L 208.608 191.506792 
L 214.56 191.477431 
L 214.56 192.142491 
L 208.608 192.171829 
L 202.656 192.201524 
L 196.704 192.231557 
L 195.047827 192.24 
L 190.752 192.24 
L 184.8 192.24 
L 178.848 192.24 
L 172.896 192.24 
L 166.944 192.24 
L 160.992 192.24 
L 155.04 192.24 
L 149.088 192.24 
L 143.136 192.24 
L 137.184 192.24 
L 131.232 192.24 
L 125.28 192.24 
L 119.328 192.24 
L 113.376 192.24 
L 107.424 192.24 
L 101.472 192.24 
L 95.52 192.24 
L 89.568 192.24 
L 83.616 192.24 
L 77.664 192.24 
L 71.712 192.24 
L 65.76 192.24 
L 62.048568 192.24 
L 59.808 192.158706 
L 53.856 191.798803 
L 47.904 191.164921 
L 41.952 189.922185 
L 36 186.89478 
z
" clip-path="url(#p73b85b3185)" style="fill: #440154"/>
   </g>
   <g id="PathCollection_11">
    <path d="M 36.912872 186.696 
L 36 185.599462 
L 36 184.033326 
L 38.216686 186.696 
L 41.952 188.595878 
L 47.904 189.83826 
L 53.856 190.471835 
L 59.808 190.831463 
L 65.76 191.047196 
L 71.712 191.179506 
L 77.664 191.260056 
L 83.616 191.306887 
L 89.568 191.330939 
L 95.52 191.339181 
L 101.472 191.336222 
L 107.424 191.32521 
L 113.376 191.308347 
L 119.328 191.287208 
L 125.28 191.26294 
L 131.232 191.23639 
L 137.184 191.208191 
L 143.136 191.178821 
L 149.088 191.148646 
L 155.04 191.117946 
L 160.992 191.086937 
L 166.944 191.055786 
L 172.896 191.024625 
L 178.848 190.993554 
L 184.8 190.962652 
L 190.752 190.931979 
L 196.704 190.901583 
L 202.656 190.8715 
L 208.608 190.841756 
L 214.56 190.812371 
L 214.56 191.477431 
L 208.608 191.506792 
L 202.656 191.536512 
L 196.704 191.56657 
L 190.752 191.596939 
L 184.8 191.627584 
L 178.848 191.658456 
L 172.896 191.689496 
L 166.944 191.720624 
L 160.992 191.751739 
L 155.04 191.782711 
L 149.088 191.813371 
L 143.136 191.843504 
L 137.184 191.872829 
L 131.232 191.900981 
L 125.28 191.92748 
L 119.328 191.951694 
L 113.376 191.972773 
L 107.424 191.989573 
L 101.472 192.000517 
L 95.52 192.003402 
L 89.568 191.995081 
L 83.616 191.970942 
L 77.664 191.924017 
L 71.712 191.843364 
L 65.76 191.710941 
L 59.808 191.495084 
L 53.856 191.135319 
L 47.904 190.501591 
L 41.952 189.259031 
z
" clip-path="url(#p73b85b3185)" style="fill: #440154"/>
   </g>
   <g id="PathCollection_12">
    <path d="M 38.216686 186.696 
L 36 184.033326 
L 36 182.46719 
L 39.5205 186.696 
L 41.952 187.932724 
L 47.904 189.17493 
L 53.856 189.808351 
L 59.808 190.167842 
L 65.76 190.383451 
L 71.712 190.515648 
L 77.664 190.596095 
L 83.616 190.642831 
L 89.568 190.666797 
L 95.52 190.674959 
L 101.472 190.671927 
L 107.424 190.660847 
L 113.376 190.643921 
L 119.328 190.622723 
L 125.28 190.5984 
L 131.232 190.571799 
L 137.184 190.543552 
L 143.136 190.514137 
L 149.088 190.48392 
L 155.04 190.453181 
L 160.992 190.422134 
L 166.944 190.390949 
L 172.896 190.359755 
L 178.848 190.328652 
L 184.8 190.29772 
L 190.752 190.267019 
L 196.704 190.236597 
L 202.656 190.206488 
L 208.608 190.176719 
L 214.56 190.147312 
L 214.56 190.812371 
L 208.608 190.841756 
L 202.656 190.8715 
L 196.704 190.901583 
L 190.752 190.931979 
L 184.8 190.962652 
L 178.848 190.993554 
L 172.896 191.024625 
L 166.944 191.055786 
L 160.992 191.086937 
L 155.04 191.117946 
L 149.088 191.148646 
L 143.136 191.178821 
L 137.184 191.208191 
L 131.232 191.23639 
L 125.28 191.26294 
L 119.328 191.287208 
L 113.376 191.308347 
L 107.424 191.32521 
L 101.472 191.336222 
L 95.52 191.339181 
L 89.568 191.330939 
L 83.616 191.306887 
L 77.664 191.260056 
L 71.712 191.179506 
L 65.76 191.047196 
L 59.808 190.831463 
L 53.856 190.471835 
L 47.904 189.83826 
L 41.952 188.595878 
z
" clip-path="url(#p73b85b3185)" style="fill: #440154"/>
   </g>
   <g id="PathCollection_13">
    <path d="M 39.5205 186.696 
L 36 182.46719 
L 36 181.152 
L 36 180.678693 
L 36.209034 181.152 
L 40.824314 186.696 
L 41.952 187.26957 
L 47.904 188.5116 
L 53.856 189.144867 
L 59.808 189.504221 
L 65.76 189.719706 
L 71.712 189.85179 
L 77.664 189.932135 
L 83.616 189.978776 
L 89.568 190.002655 
L 95.52 190.010738 
L 101.472 190.007632 
L 107.424 189.996484 
L 113.376 189.979494 
L 119.328 189.958238 
L 125.28 189.933861 
L 131.232 189.907208 
L 137.184 189.878913 
L 143.136 189.849454 
L 149.088 189.819195 
L 155.04 189.788416 
L 160.992 189.757332 
L 166.944 189.726112 
L 172.896 189.694884 
L 178.848 189.66375 
L 184.8 189.632788 
L 190.752 189.602059 
L 196.704 189.57161 
L 202.656 189.541475 
L 208.608 189.511683 
L 214.56 189.482252 
L 214.56 190.147312 
L 208.608 190.176719 
L 202.656 190.206488 
L 196.704 190.236597 
L 190.752 190.267019 
L 184.8 190.29772 
L 178.848 190.328652 
L 172.896 190.359755 
L 166.944 190.390949 
L 160.992 190.422134 
L 155.04 190.453181 
L 149.088 190.48392 
L 143.136 190.514137 
L 137.184 190.543552 
L 131.232 190.571799 
L 125.28 190.5984 
L 119.328 190.622723 
L 113.376 190.643921 
L 107.424 190.660847 
L 101.472 190.671927 
L 95.52 190.674959 
L 89.568 190.666797 
L 83.616 190.642831 
L 77.664 190.596095 
L 71.712 190.515648 
L 65.76 190.383451 
L 59.808 190.167842 
L 53.856 189.808351 
L 47.904 189.17493 
L 41.952 187.932724 
z
" clip-path="url(#p73b85b3185)" style="fill: #440154"/>
   </g>
   <g id="PathCollection_14">
    <path d="M 40.824314 186.696 
L 36.209034 181.152 
L 36 180.678693 
L 36 177.724815 
L 37.513604 181.152 
L 41.952 186.484278 
L 42.381464 186.696 
L 47.904 187.84827 
L 53.856 188.481383 
L 59.808 188.840599 
L 65.76 189.05596 
L 71.712 189.187932 
L 77.664 189.268174 
L 83.616 189.314721 
L 89.568 189.338514 
L 95.52 189.346516 
L 101.472 189.343337 
L 107.424 189.33212 
L 113.376 189.315068 
L 119.328 189.293753 
L 125.28 189.269321 
L 131.232 189.242617 
L 137.184 189.214274 
L 143.136 189.18477 
L 149.088 189.154469 
L 155.04 189.12365 
L 160.992 189.09253 
L 166.944 189.061274 
L 172.896 189.030013 
L 178.848 188.998848 
L 184.8 188.967857 
L 190.752 188.937099 
L 196.704 188.906623 
L 202.656 188.876463 
L 208.608 188.846646 
L 214.56 188.817192 
L 214.56 189.482252 
L 208.608 189.511683 
L 202.656 189.541475 
L 196.704 189.57161 
L 190.752 189.602059 
L 184.8 189.632788 
L 178.848 189.66375 
L 172.896 189.694884 
L 166.944 189.726112 
L 160.992 189.757332 
L 155.04 189.788416 
L 149.088 189.819195 
L 143.136 189.849454 
L 137.184 189.878913 
L 131.232 189.907208 
L 125.28 189.933861 
L 119.328 189.958238 
L 113.376 189.979494 
L 107.424 189.996484 
L 101.472 190.007632 
L 95.52 190.010738 
L 89.568 190.002655 
L 83.616 189.978776 
L 77.664 189.932135 
L 71.712 189.85179 
L 65.76 189.719706 
L 59.808 189.504221 
L 53.856 189.144867 
L 47.904 188.5116 
L 41.952 187.26957 
z
" clip-path="url(#p73b85b3185)" style="fill: #440154"/>
   </g>
   <g id="PathCollection_15">
    <path d="M 37.513604 181.152 
L 36 177.724815 
L 36 175.608 
L 36 174.205943 
L 36.369895 175.608 
L 38.818174 181.152 
L 41.952 184.916971 
L 45.560636 186.696 
L 47.904 187.18494 
L 53.856 187.817899 
L 59.808 188.176978 
L 65.76 188.392215 
L 71.712 188.524074 
L 77.664 188.604213 
L 83.616 188.650666 
L 89.568 188.674372 
L 95.52 188.682295 
L 101.472 188.679042 
L 107.424 188.667757 
L 113.376 188.650641 
L 119.328 188.629268 
L 125.28 188.604781 
L 131.232 188.578026 
L 137.184 188.549635 
L 143.136 188.520087 
L 149.088 188.489744 
L 155.04 188.458885 
L 160.992 188.427727 
L 166.944 188.396437 
L 172.896 188.365143 
L 178.848 188.333946 
L 184.8 188.302925 
L 190.752 188.272139 
L 196.704 188.241636 
L 202.656 188.211451 
L 208.608 188.18161 
L 214.56 188.152133 
L 214.56 188.817192 
L 208.608 188.846646 
L 202.656 188.876463 
L 196.704 188.906623 
L 190.752 188.937099 
L 184.8 188.967857 
L 178.848 188.998848 
L 172.896 189.030013 
L 166.944 189.061274 
L 160.992 189.09253 
L 155.04 189.12365 
L 149.088 189.154469 
L 143.136 189.18477 
L 137.184 189.214274 
L 131.232 189.242617 
L 125.28 189.269321 
L 119.328 189.293753 
L 113.376 189.315068 
L 107.424 189.33212 
L 101.472 189.343337 
L 95.52 189.346516 
L 89.568 189.338514 
L 83.616 189.314721 
L 77.664 189.268174 
L 71.712 189.187932 
L 65.76 189.05596 
L 59.808 188.840599 
L 53.856 188.481383 
L 47.904 187.84827 
L 42.381464 186.696 
L 41.952 186.484278 
z
" clip-path="url(#p73b85b3185)" style="fill: #481668"/>
   </g>
   <g id="PathCollection_16">
    <path d="M 38.818174 181.152 
L 36.369895 175.608 
L 36 174.205943 
L 36 170.064 
L 36 168.807327 
L 36.212684 170.064 
L 37.675205 175.608 
L 40.122744 181.152 
L 41.952 183.349664 
L 47.904 186.283692 
L 49.544543 186.696 
L 53.856 187.154415 
L 59.808 187.513357 
L 65.76 187.72847 
L 71.712 187.860216 
L 77.664 187.940252 
L 83.616 187.986611 
L 89.568 188.01023 
L 95.52 188.018073 
L 101.472 188.014747 
L 107.424 188.003394 
L 113.376 187.986215 
L 119.328 187.964782 
L 125.28 187.940241 
L 131.232 187.913435 
L 137.184 187.884997 
L 143.136 187.855403 
L 149.088 187.825018 
L 155.04 187.79412 
L 160.992 187.762925 
L 166.944 187.731599 
L 172.896 187.700272 
L 178.848 187.669044 
L 184.8 187.637993 
L 190.752 187.607179 
L 196.704 187.57665 
L 202.656 187.546439 
L 208.608 187.516573 
L 214.56 187.487073 
L 214.56 188.152133 
L 208.608 188.18161 
L 202.656 188.211451 
L 196.704 188.241636 
L 190.752 188.272139 
L 184.8 188.302925 
L 178.848 188.333946 
L 172.896 188.365143 
L 166.944 188.396437 
L 160.992 188.427727 
L 155.04 188.458885 
L 149.088 188.489744 
L 143.136 188.520087 
L 137.184 188.549635 
L 131.232 188.578026 
L 125.28 188.604781 
L 119.328 188.629268 
L 113.376 188.650641 
L 107.424 188.667757 
L 101.472 188.679042 
L 95.52 188.682295 
L 89.568 188.674372 
L 83.616 188.650666 
L 77.664 188.604213 
L 71.712 188.524074 
L 65.76 188.392215 
L 59.808 188.176978 
L 53.856 187.817899 
L 47.904 187.18494 
L 45.560636 186.696 
L 41.952 184.916971 
z
" clip-path="url(#p73b85b3185)" style="fill: #472e7c"/>
   </g>
   <g id="PathCollection_17">
    <path d="M 40.122744 181.152 
L 37.675205 175.608 
L 36.212684 170.064 
L 36 168.807327 
L 36 164.52 
L 36 159.406732 
L 36.580732 164.52 
L 37.518711 170.064 
L 38.980514 175.608 
L 41.427314 181.152 
L 41.952 181.782357 
L 47.904 184.715389 
L 53.856 186.211 
L 57.258069 186.696 
L 59.808 186.849736 
L 65.76 187.064725 
L 71.712 187.196358 
L 77.664 187.276291 
L 83.616 187.322556 
L 89.568 187.346088 
L 95.52 187.353852 
L 101.472 187.350452 
L 107.424 187.339031 
L 113.376 187.321788 
L 119.328 187.300297 
L 125.28 187.275701 
L 131.232 187.248844 
L 137.184 187.220358 
L 143.136 187.19072 
L 149.088 187.160292 
L 155.04 187.129355 
L 160.992 187.098123 
L 166.944 187.066762 
L 172.896 187.035402 
L 178.848 187.004142 
L 184.8 186.973061 
L 190.752 186.94222 
L 196.704 186.911663 
L 202.656 186.881426 
L 208.608 186.851537 
L 214.56 186.822013 
L 214.56 187.487073 
L 208.608 187.516573 
L 202.656 187.546439 
L 196.704 187.57665 
L 190.752 187.607179 
L 184.8 187.637993 
L 178.848 187.669044 
L 172.896 187.700272 
L 166.944 187.731599 
L 160.992 187.762925 
L 155.04 187.79412 
L 149.088 187.825018 
L 143.136 187.855403 
L 137.184 187.884997 
L 131.232 187.913435 
L 125.28 187.940241 
L 119.328 187.964782 
L 113.376 187.986215 
L 107.424 188.003394 
L 101.472 188.014747 
L 95.52 188.018073 
L 89.568 188.01023 
L 83.616 187.986611 
L 77.664 187.940252 
L 71.712 187.860216 
L 65.76 187.72847 
L 59.808 187.513357 
L 53.856 187.154415 
L 49.544543 186.696 
L 47.904 186.283692 
L 41.952 183.349664 
z
" clip-path="url(#p73b85b3185)" style="fill: #404688"/>
   </g>
   <g id="PathCollection_18">
    <path d="M 41.427314 181.152 
L 38.980514 175.608 
L 37.518711 170.064 
L 36.580732 164.52 
L 36 159.406732 
L 36 158.976 
L 36 153.432 
L 36 147.888 
L 36 142.344 
L 36 136.8 
L 36 131.256 
L 36 126.771675 
L 36.053837 131.256 
L 36.156042 136.8 
L 36.305714 142.344 
L 36.519947 147.888 
L 36.824279 153.432 
L 37.258443 158.976 
L 37.887452 164.52 
L 38.824737 170.064 
L 40.285823 175.608 
L 41.952 179.38371 
L 43.85482 181.152 
L 47.904 183.147087 
L 53.856 184.641819 
L 59.808 185.489731 
L 65.76 185.997863 
L 71.712 186.308999 
L 77.664 186.497911 
L 83.616 186.607202 
L 89.568 186.662716 
L 95.52 186.680911 
L 101.472 186.672679 
L 107.424 186.645451 
L 113.376 186.604432 
L 119.328 186.553343 
L 125.28 186.494892 
L 131.232 186.431078 
L 137.184 186.363399 
L 143.136 186.292982 
L 149.088 186.220692 
L 155.04 186.147187 
L 160.992 186.072979 
L 166.944 185.998462 
L 172.896 185.923943 
L 178.848 185.84966 
L 184.8 185.775799 
L 190.752 185.702502 
L 196.704 185.62988 
L 202.656 185.558016 
L 208.608 185.486973 
L 214.56 185.416797 
L 214.56 186.696 
L 214.56 186.822013 
L 208.608 186.851537 
L 202.656 186.881426 
L 196.704 186.911663 
L 190.752 186.94222 
L 184.8 186.973061 
L 178.848 187.004142 
L 172.896 187.035402 
L 166.944 187.066762 
L 160.992 187.098123 
L 155.04 187.129355 
L 149.088 187.160292 
L 143.136 187.19072 
L 137.184 187.220358 
L 131.232 187.248844 
L 125.28 187.275701 
L 119.328 187.300297 
L 113.376 187.321788 
L 107.424 187.339031 
L 101.472 187.350452 
L 95.52 187.353852 
L 89.568 187.346088 
L 83.616 187.322556 
L 77.664 187.276291 
L 71.712 187.196358 
L 65.76 187.064725 
L 59.808 186.849736 
L 57.258069 186.696 
L 53.856 186.211 
L 47.904 184.715389 
L 41.952 181.782357 
z
" clip-path="url(#p73b85b3185)" style="fill: #375b8d"/>
    <path d="M 36 86.904 
L 36 81.36 
L 36 75.816 
L 36 70.272 
L 36 64.728 
L 36 59.184 
L 36 53.64 
L 36 48.096 
L 36 42.552 
L 36 37.008 
L 36 31.464 
L 36 25.92 
L 36.637754 25.92 
L 36.575694 31.464 
L 36.514095 37.008 
L 36.453148 42.552 
L 36.393079 48.096 
L 36.334159 53.64 
L 36.276709 59.184 
L 36.221118 64.728 
L 36.16785 70.272 
L 36.117469 75.816 
L 36.070664 81.36 
L 36.028274 86.904 
L 36 91.147885 
z
" clip-path="url(#p73b85b3185)" style="fill: #375b8d"/>
   </g>
   <g id="PathCollection_19">
    <path d="M 40.285823 175.608 
L 38.824737 170.064 
L 37.887452 164.52 
L 37.258443 158.976 
L 36.824279 153.432 
L 36.519947 147.888 
L 36.305714 142.344 
L 36.156042 136.8 
L 36.053837 131.256 
L 36 126.771675 
L 36 125.712 
L 36 120.168 
L 36 114.624 
L 36 109.08 
L 36 103.536 
L 36 97.992 
L 36 92.448 
L 36 91.147885 
L 36.028274 86.904 
L 36.070664 81.36 
L 36.117469 75.816 
L 36.16785 70.272 
L 36.221118 64.728 
L 36.276709 59.184 
L 36.334159 53.64 
L 36.393079 48.096 
L 36.453148 42.552 
L 36.514095 37.008 
L 36.575694 31.464 
L 36.637754 25.92 
L 37.955611 25.92 
L 37.893259 31.464 
L 37.831359 37.008 
L 37.770102 42.552 
L 37.709714 48.096 
L 37.650465 53.64 
L 37.592676 59.184 
L 37.536735 64.728 
L 37.483106 70.272 
L 37.432354 75.816 
L 37.385163 81.36 
L 37.342376 86.904 
L 37.305032 92.448 
L 37.274422 97.992 
L 37.252171 103.536 
L 37.240341 109.08 
L 37.24158 114.624 
L 37.259337 120.168 
L 37.298167 125.712 
L 37.364203 131.256 
L 37.465857 136.8 
L 37.614958 142.344 
L 37.828597 147.888 
L 38.13231 153.432 
L 38.565831 158.976 
L 39.194172 164.52 
L 40.130764 170.064 
L 41.591132 175.608 
L 41.952 176.425759 
L 47.037808 181.152 
L 47.904 181.578784 
L 53.856 183.072637 
L 59.808 183.91976 
L 65.76 184.427176 
L 71.712 184.73766 
L 77.664 184.925978 
L 83.616 185.034724 
L 89.568 185.089738 
L 95.52 185.107473 
L 101.472 185.098816 
L 107.424 185.071196 
L 113.376 185.029814 
L 119.328 184.978387 
L 125.28 184.919621 
L 131.232 184.855515 
L 137.184 184.787561 
L 143.136 184.716888 
L 149.088 184.644357 
L 155.04 184.570626 
L 160.992 184.496205 
L 166.944 184.421487 
L 172.896 184.346779 
L 178.848 184.272317 
L 184.8 184.198286 
L 190.752 184.124828 
L 196.704 184.052053 
L 202.656 183.980043 
L 208.608 183.908862 
L 214.56 183.838554 
L 214.56 185.416797 
L 208.608 185.486973 
L 202.656 185.558016 
L 196.704 185.62988 
L 190.752 185.702502 
L 184.8 185.775799 
L 178.848 185.84966 
L 172.896 185.923943 
L 166.944 185.998462 
L 160.992 186.072979 
L 155.04 186.147187 
L 149.088 186.220692 
L 143.136 186.292982 
L 137.184 186.363399 
L 131.232 186.431078 
L 125.28 186.494892 
L 119.328 186.553343 
L 113.376 186.604432 
L 107.424 186.645451 
L 101.472 186.672679 
L 95.52 186.680911 
L 89.568 186.662716 
L 83.616 186.607202 
L 77.664 186.497911 
L 71.712 186.308999 
L 65.76 185.997863 
L 59.808 185.489731 
L 53.856 184.641819 
L 47.904 183.147087 
L 43.85482 181.152 
L 41.952 179.38371 
z
" clip-path="url(#p73b85b3185)" style="fill: #2e6e8e"/>
   </g>
   <g id="PathCollection_20">
    <path d="M 41.591132 175.608 
L 40.130764 170.064 
L 39.194172 164.52 
L 38.565831 158.976 
L 38.13231 153.432 
L 37.828597 147.888 
L 37.614958 142.344 
L 37.465857 136.8 
L 37.364203 131.256 
L 37.298167 125.712 
L 37.259337 120.168 
L 37.24158 114.624 
L 37.240341 109.08 
L 37.252171 103.536 
L 37.274422 97.992 
L 37.305032 92.448 
L 37.342376 86.904 
L 37.385163 81.36 
L 37.432354 75.816 
L 37.483106 70.272 
L 37.536735 64.728 
L 37.592676 59.184 
L 37.650465 53.64 
L 37.709714 48.096 
L 37.770102 42.552 
L 37.831359 37.008 
L 37.893259 31.464 
L 37.955611 25.92 
L 39.273469 25.92 
L 39.210824 31.464 
L 39.148623 37.008 
L 39.087056 42.552 
L 39.026349 48.096 
L 38.966771 53.64 
L 38.908643 59.184 
L 38.852352 64.728 
L 38.798363 70.272 
L 38.747238 75.816 
L 38.699663 81.36 
L 38.656478 86.904 
L 38.618722 92.448 
L 38.587687 97.992 
L 38.564995 103.536 
L 38.552709 109.08 
L 38.553475 114.624 
L 38.570741 120.168 
L 38.609062 125.712 
L 38.674568 131.256 
L 38.775673 136.8 
L 38.924202 142.344 
L 39.137246 147.888 
L 39.440341 153.432 
L 39.873219 158.976 
L 40.500892 164.52 
L 41.436791 170.064 
L 41.952 172.020155 
L 44.257762 175.608 
L 47.904 178.996439 
L 52.45546 181.152 
L 53.856 181.503456 
L 59.808 182.349788 
L 65.76 182.856489 
L 71.712 183.166322 
L 77.664 183.354044 
L 83.616 183.462245 
L 89.568 183.516759 
L 95.52 183.534035 
L 101.472 183.524953 
L 107.424 183.496941 
L 113.376 183.455195 
L 119.328 183.403431 
L 125.28 183.344351 
L 131.232 183.279951 
L 137.184 183.211723 
L 143.136 183.140794 
L 149.088 183.068022 
L 155.04 182.994065 
L 160.992 182.919431 
L 166.944 182.844512 
L 172.896 182.769614 
L 178.848 182.694973 
L 184.8 182.620773 
L 190.752 182.547154 
L 196.704 182.474225 
L 202.656 182.40207 
L 208.608 182.33075 
L 214.56 182.260311 
L 214.56 183.838554 
L 208.608 183.908862 
L 202.656 183.980043 
L 196.704 184.052053 
L 190.752 184.124828 
L 184.8 184.198286 
L 178.848 184.272317 
L 172.896 184.346779 
L 166.944 184.421487 
L 160.992 184.496205 
L 155.04 184.570626 
L 149.088 184.644357 
L 143.136 184.716888 
L 137.184 184.787561 
L 131.232 184.855515 
L 125.28 184.919621 
L 119.328 184.978387 
L 113.376 185.029814 
L 107.424 185.071196 
L 101.472 185.098816 
L 95.52 185.107473 
L 89.568 185.089738 
L 83.616 185.034724 
L 77.664 184.925978 
L 71.712 184.73766 
L 65.76 184.427176 
L 59.808 183.91976 
L 53.856 183.072637 
L 47.904 181.578784 
L 47.037808 181.152 
L 41.952 176.425759 
z
" clip-path="url(#p73b85b3185)" style="fill: #26818e"/>
   </g>
   <g id="PathCollection_21">
    <path d="M 41.436791 170.064 
L 40.500892 164.52 
L 39.873219 158.976 
L 39.440341 153.432 
L 39.137246 147.888 
L 38.924202 142.344 
L 38.775673 136.8 
L 38.674568 131.256 
L 38.609062 125.712 
L 38.570741 120.168 
L 38.553475 114.624 
L 38.552709 109.08 
L 38.564995 103.536 
L 38.587687 97.992 
L 38.618722 92.448 
L 38.656478 86.904 
L 38.699663 81.36 
L 38.747238 75.816 
L 38.798363 70.272 
L 38.852352 64.728 
L 38.908643 59.184 
L 38.966771 53.64 
L 39.026349 48.096 
L 39.087056 42.552 
L 39.148623 37.008 
L 39.210824 31.464 
L 39.273469 25.92 
L 40.591326 25.92 
L 40.528389 31.464 
L 40.465887 37.008 
L 40.40401 42.552 
L 40.342984 48.096 
L 40.283077 53.64 
L 40.22461 59.184 
L 40.16797 64.728 
L 40.11362 70.272 
L 40.062122 75.816 
L 40.014162 81.36 
L 39.97058 86.904 
L 39.932413 92.448 
L 39.900952 97.992 
L 39.87782 103.536 
L 39.865077 109.08 
L 39.86537 114.624 
L 39.882145 120.168 
L 39.919957 125.712 
L 39.984934 131.256 
L 40.085488 136.8 
L 40.233446 142.344 
L 40.445895 147.888 
L 40.748372 153.432 
L 41.180608 158.976 
L 41.807612 164.52 
L 41.952 165.375565 
L 43.883904 170.064 
L 47.444547 175.608 
L 47.904 176.034968 
L 53.856 178.851387 
L 59.808 180.448528 
L 64.186587 181.152 
L 65.76 181.285802 
L 71.712 181.594983 
L 77.664 181.782111 
L 83.616 181.889767 
L 89.568 181.943781 
L 95.52 181.960597 
L 101.472 181.951091 
L 107.424 181.922686 
L 113.376 181.880577 
L 119.328 181.828475 
L 125.28 181.76908 
L 131.232 181.704388 
L 137.184 181.635886 
L 143.136 181.5647 
L 149.088 181.491687 
L 155.04 181.417504 
L 160.992 181.342657 
L 166.944 181.267538 
L 172.896 181.19245 
L 176.113998 181.152 
L 178.848 181.086762 
L 184.8 180.945579 
L 190.752 180.805492 
L 196.704 180.666709 
L 202.656 180.529387 
L 208.608 180.393645 
L 214.56 180.259569 
L 214.56 181.152 
L 214.56 182.260311 
L 208.608 182.33075 
L 202.656 182.40207 
L 196.704 182.474225 
L 190.752 182.547154 
L 184.8 182.620773 
L 178.848 182.694973 
L 172.896 182.769614 
L 166.944 182.844512 
L 160.992 182.919431 
L 155.04 182.994065 
L 149.088 183.068022 
L 143.136 183.140794 
L 137.184 183.211723 
L 131.232 183.279951 
L 125.28 183.344351 
L 119.328 183.403431 
L 113.376 183.455195 
L 107.424 183.496941 
L 101.472 183.524953 
L 95.52 183.534035 
L 89.568 183.516759 
L 83.616 183.462245 
L 77.664 183.354044 
L 71.712 183.166322 
L 65.76 182.856489 
L 59.808 182.349788 
L 53.856 181.503456 
L 52.45546 181.152 
L 47.904 178.996439 
L 44.257762 175.608 
L 41.952 172.020155 
z
" clip-path="url(#p73b85b3185)" style="fill: #20928c"/>
   </g>
   <g id="PathCollection_22">
    <path d="M 41.807612 164.52 
L 41.180608 158.976 
L 40.748372 153.432 
L 40.445895 147.888 
L 40.233446 142.344 
L 40.085488 136.8 
L 39.984934 131.256 
L 39.919957 125.712 
L 39.882145 120.168 
L 39.86537 114.624 
L 39.865077 109.08 
L 39.87782 103.536 
L 39.900952 97.992 
L 39.932413 92.448 
L 39.97058 86.904 
L 40.014162 81.36 
L 40.062122 75.816 
L 40.11362 70.272 
L 40.16797 64.728 
L 40.22461 59.184 
L 40.283077 53.64 
L 40.342984 48.096 
L 40.40401 42.552 
L 40.465887 37.008 
L 40.528389 31.464 
L 40.591326 25.92 
L 41.909184 25.92 
L 41.845954 31.464 
L 41.783151 37.008 
L 41.720964 42.552 
L 41.659618 48.096 
L 41.599383 53.64 
L 41.540577 59.184 
L 41.483587 64.728 
L 41.428876 70.272 
L 41.377006 75.816 
L 41.328662 81.36 
L 41.284682 86.904 
L 41.246104 92.448 
L 41.214217 97.992 
L 41.190645 103.536 
L 41.177445 109.08 
L 41.177265 114.624 
L 41.193549 120.168 
L 41.230851 125.712 
L 41.295299 131.256 
L 41.395304 136.8 
L 41.54269 142.344 
L 41.754545 147.888 
L 41.952 151.513917 
L 42.207506 153.432 
L 43.262978 158.976 
L 44.793217 164.52 
L 47.074421 170.064 
L 47.904 171.355868 
L 53.266755 175.608 
L 53.856 175.886779 
L 59.808 177.481087 
L 65.76 178.434992 
L 71.712 179.017591 
L 77.664 179.369829 
L 83.616 179.572017 
L 89.568 179.672887 
L 95.52 179.703472 
L 101.472 179.684309 
L 107.424 179.629416 
L 113.376 179.548606 
L 119.328 179.448896 
L 125.28 179.335392 
L 131.232 179.211863 
L 137.184 179.081129 
L 143.136 178.945319 
L 149.088 178.806055 
L 155.04 178.66458 
L 160.992 178.521855 
L 166.944 178.378621 
L 172.896 178.235455 
L 178.848 178.092803 
L 184.8 177.951011 
L 190.752 177.810346 
L 196.704 177.671015 
L 202.656 177.533171 
L 208.608 177.396933 
L 214.56 177.262384 
L 214.56 180.259569 
L 208.608 180.393645 
L 202.656 180.529387 
L 196.704 180.666709 
L 190.752 180.805492 
L 184.8 180.945579 
L 178.848 181.086762 
L 176.113998 181.152 
L 172.896 181.19245 
L 166.944 181.267538 
L 160.992 181.342657 
L 155.04 181.417504 
L 149.088 181.491687 
L 143.136 181.5647 
L 137.184 181.635886 
L 131.232 181.704388 
L 125.28 181.76908 
L 119.328 181.828475 
L 113.376 181.880577 
L 107.424 181.922686 
L 101.472 181.951091 
L 95.52 181.960597 
L 89.568 181.943781 
L 83.616 181.889767 
L 77.664 181.782111 
L 71.712 181.594983 
L 65.76 181.285802 
L 64.186587 181.152 
L 59.808 180.448528 
L 53.856 178.851387 
L 47.904 176.034968 
L 47.444547 175.608 
L 43.883904 170.064 
L 41.952 165.375565 
z
" clip-path="url(#p73b85b3185)" style="fill: #20a486"/>
   </g>
   <g id="PathCollection_23">
    <path d="M 41.754545 147.888 
L 41.54269 142.344 
L 41.395304 136.8 
L 41.295299 131.256 
L 41.230851 125.712 
L 41.193549 120.168 
L 41.177265 114.624 
L 41.177445 109.08 
L 41.190645 103.536 
L 41.214217 97.992 
L 41.246104 92.448 
L 41.284682 86.904 
L 41.328662 81.36 
L 41.377006 75.816 
L 41.428876 70.272 
L 41.483587 64.728 
L 41.540577 59.184 
L 41.599383 53.64 
L 41.659618 48.096 
L 41.720964 42.552 
L 41.783151 37.008 
L 41.845954 31.464 
L 41.909184 25.92 
L 41.952 25.92 
L 45.102265 25.92 
L 44.944436 31.464 
L 44.787711 37.008 
L 44.632557 42.552 
L 44.479531 48.096 
L 44.329294 53.64 
L 44.182638 59.184 
L 44.040509 64.728 
L 43.904048 70.272 
L 43.774634 75.816 
L 43.653948 81.36 
L 43.544048 86.904 
L 43.447472 92.448 
L 43.367379 97.992 
L 43.307738 103.536 
L 43.273581 109.08 
L 43.271372 114.624 
L 43.309523 120.168 
L 43.399146 125.712 
L 43.555188 131.256 
L 43.798156 136.8 
L 44.15687 142.344 
L 44.672967 147.888 
L 45.40865 153.432 
L 46.460684 158.976 
L 47.904 164.216901 
L 48.068239 164.52 
L 52.550448 170.064 
L 53.856 171.098856 
L 59.808 173.769564 
L 65.76 175.367593 
L 67.227944 175.608 
L 71.712 176.045231 
L 77.664 176.395325 
L 83.616 176.595551 
L 89.568 176.69462 
L 95.52 176.723548 
L 101.472 176.702858 
L 107.424 176.646553 
L 113.376 176.564435 
L 119.328 176.463511 
L 125.28 176.348877 
L 131.232 176.224295 
L 137.184 176.092577 
L 143.136 175.955845 
L 149.088 175.815716 
L 155.04 175.67343 
L 157.754419 175.608 
L 160.992 175.476144 
L 166.944 175.232922 
L 172.896 174.989809 
L 178.848 174.747562 
L 184.8 174.506765 
L 190.752 174.267872 
L 196.704 174.03123 
L 202.656 173.797104 
L 208.608 173.565691 
L 214.56 173.337138 
L 214.56 175.608 
L 214.56 177.262384 
L 208.608 177.396933 
L 202.656 177.533171 
L 196.704 177.671015 
L 190.752 177.810346 
L 184.8 177.951011 
L 178.848 178.092803 
L 172.896 178.235455 
L 166.944 178.378621 
L 160.992 178.521855 
L 155.04 178.66458 
L 149.088 178.806055 
L 143.136 178.945319 
L 137.184 179.081129 
L 131.232 179.211863 
L 125.28 179.335392 
L 119.328 179.448896 
L 113.376 179.548606 
L 107.424 179.629416 
L 101.472 179.684309 
L 95.52 179.703472 
L 89.568 179.672887 
L 83.616 179.572017 
L 77.664 179.369829 
L 71.712 179.017591 
L 65.76 178.434992 
L 59.808 177.481087 
L 53.856 175.886779 
L 53.266755 175.608 
L 47.904 171.355868 
L 47.074421 170.064 
L 44.793217 164.52 
L 43.262978 158.976 
L 42.207506 153.432 
L 41.952 151.513917 
z
" clip-path="url(#p73b85b3185)" style="fill: #34b679"/>
   </g>
   <g id="PathCollection_24">
    <path d="M 46.460684 158.976 
L 45.40865 153.432 
L 44.672967 147.888 
L 44.15687 142.344 
L 43.798156 136.8 
L 43.555188 131.256 
L 43.399146 125.712 
L 43.309523 120.168 
L 43.271372 114.624 
L 43.273581 109.08 
L 43.307738 103.536 
L 43.367379 97.992 
L 43.447472 92.448 
L 43.544048 86.904 
L 43.653948 81.36 
L 43.774634 75.816 
L 43.904048 70.272 
L 44.040509 64.728 
L 44.182638 59.184 
L 44.329294 53.64 
L 44.479531 48.096 
L 44.632557 42.552 
L 44.787711 37.008 
L 44.944436 31.464 
L 45.102265 25.92 
L 47.904 25.92 
L 48.81329 25.92 
L 48.493772 31.464 
L 48.176651 37.008 
L 47.904 41.824613 
L 47.88342 42.552 
L 47.728566 48.096 
L 47.57645 53.64 
L 47.427859 59.184 
L 47.283738 64.728 
L 47.145225 70.272 
L 47.013698 75.816 
L 46.890834 81.36 
L 46.778687 86.904 
L 46.679794 92.448 
L 46.59731 97.992 
L 46.535199 103.536 
L 46.498491 109.08 
L 46.493648 114.624 
L 46.529074 120.168 
L 46.615882 125.712 
L 46.769011 131.256 
L 47.008967 136.8 
L 47.364565 142.344 
L 47.877441 147.888 
L 47.904 148.088854 
L 49.296643 153.432 
L 51.362759 158.976 
L 53.856 163.586145 
L 54.749476 164.52 
L 59.808 168.060459 
L 64.596637 170.064 
L 65.76 170.3753 
L 71.712 171.344459 
L 77.664 171.927867 
L 83.616 172.259989 
L 89.568 172.422435 
L 95.52 172.467193 
L 101.472 172.428676 
L 107.424 172.330374 
L 113.376 172.188739 
L 119.328 172.015534 
L 125.28 171.819318 
L 131.232 171.606413 
L 137.184 171.381546 
L 143.136 171.148286 
L 149.088 170.909351 
L 155.04 170.666826 
L 160.992 170.422317 
L 166.944 170.177068 
L 169.691117 170.064 
L 172.896 169.855739 
L 178.848 169.470444 
L 184.8 169.087451 
L 190.752 168.707476 
L 196.704 168.331068 
L 202.656 167.958645 
L 208.608 167.590523 
L 214.56 167.226931 
L 214.56 170.064 
L 214.56 173.337138 
L 208.608 173.565691 
L 202.656 173.797104 
L 196.704 174.03123 
L 190.752 174.267872 
L 184.8 174.506765 
L 178.848 174.747562 
L 172.896 174.989809 
L 166.944 175.232922 
L 160.992 175.476144 
L 157.754419 175.608 
L 155.04 175.67343 
L 149.088 175.815716 
L 143.136 175.955845 
L 137.184 176.092577 
L 131.232 176.224295 
L 125.28 176.348877 
L 119.328 176.463511 
L 113.376 176.564435 
L 107.424 176.646553 
L 101.472 176.702858 
L 95.52 176.723548 
L 89.568 176.69462 
L 83.616 176.595551 
L 77.664 176.395325 
L 71.712 176.045231 
L 67.227944 175.608 
L 65.76 175.367593 
L 59.808 173.769564 
L 53.856 171.098856 
L 52.550448 170.064 
L 48.068239 164.52 
L 47.904 164.216901 
z
" clip-path="url(#p73b85b3185)" style="fill: #56c667"/>
   </g>
   <g id="PathCollection_25">
    <path d="M 47.877441 147.888 
L 47.364565 142.344 
L 47.008967 136.8 
L 46.769011 131.256 
L 46.615882 125.712 
L 46.529074 120.168 
L 46.493648 114.624 
L 46.498491 109.08 
L 46.535199 103.536 
L 46.59731 97.992 
L 46.679794 92.448 
L 46.778687 86.904 
L 46.890834 81.36 
L 47.013698 75.816 
L 47.145225 70.272 
L 47.283738 64.728 
L 47.427859 59.184 
L 47.57645 53.64 
L 47.728566 48.096 
L 47.88342 42.552 
L 47.904 41.824613 
L 48.176651 37.008 
L 48.493772 31.464 
L 48.81329 25.92 
L 53.856 25.92 
L 56.529192 25.92 
L 55.936971 31.464 
L 55.349546 37.008 
L 54.768628 42.552 
L 54.196237 48.096 
L 53.856 51.453121 
L 53.73358 53.64 
L 53.430187 59.184 
L 53.135832 64.728 
L 52.852776 70.272 
L 52.583749 75.816 
L 52.332071 81.36 
L 52.101805 86.904 
L 51.89796 92.448 
L 51.726764 97.992 
L 51.596028 103.536 
L 51.515659 109.08 
L 51.498366 114.624 
L 51.560678 120.168 
L 51.724422 125.712 
L 52.018934 131.256 
L 52.484455 136.8 
L 53.177504 142.344 
L 53.856 146.095088 
L 54.431859 147.888 
L 56.977928 153.432 
L 59.808 157.737527 
L 61.174611 158.976 
L 65.76 161.832415 
L 71.712 164.088785 
L 73.608736 164.52 
L 77.664 165.135089 
L 83.616 165.644969 
L 89.568 165.889799 
L 95.52 165.950724 
L 101.472 165.881485 
L 107.424 165.718791 
L 113.376 165.488361 
L 119.328 165.208594 
L 125.28 164.892886 
L 131.232 164.551134 
L 131.746588 164.52 
L 137.184 164.022275 
L 143.136 163.457358 
L 149.088 162.878758 
L 155.04 162.291442 
L 160.992 161.699246 
L 166.944 161.105147 
L 172.896 160.511456 
L 178.848 159.91997 
L 184.8 159.332086 
L 188.435143 158.976 
L 190.752 158.639407 
L 196.704 157.782883 
L 202.656 156.934968 
L 208.608 156.096405 
L 214.56 155.267752 
L 214.56 158.976 
L 214.56 164.52 
L 214.56 167.226931 
L 208.608 167.590523 
L 202.656 167.958645 
L 196.704 168.331068 
L 190.752 168.707476 
L 184.8 169.087451 
L 178.848 169.470444 
L 172.896 169.855739 
L 169.691117 170.064 
L 166.944 170.177068 
L 160.992 170.422317 
L 155.04 170.666826 
L 149.088 170.909351 
L 143.136 171.148286 
L 137.184 171.381546 
L 131.232 171.606413 
L 125.28 171.819318 
L 119.328 172.015534 
L 113.376 172.188739 
L 107.424 172.330374 
L 101.472 172.428676 
L 95.52 172.467193 
L 89.568 172.422435 
L 83.616 172.259989 
L 77.664 171.927867 
L 71.712 171.344459 
L 65.76 170.3753 
L 64.596637 170.064 
L 59.808 168.060459 
L 54.749476 164.52 
L 53.856 163.586145 
L 51.362759 158.976 
L 49.296643 153.432 
L 47.904 148.088854 
z
" clip-path="url(#p73b85b3185)" style="fill: #81d34d"/>
    <path d="M 196.599622 25.92 
L 196.704 25.92 
L 202.656 25.92 
L 208.608 25.92 
L 214.56 25.92 
L 214.56 31.464 
L 214.56 37.008 
L 214.56 40.388538 
L 210.273988 37.008 
L 208.608 35.693461 
L 203.351825 31.464 
L 202.656 30.902643 
L 196.704 26.007456 
z
" clip-path="url(#p73b85b3185)" style="fill: #81d34d"/>
   </g>
   <g id="PathCollection_26">
    <path d="M 53.177504 142.344 
L 52.484455 136.8 
L 52.018934 131.256 
L 51.724422 125.712 
L 51.560678 120.168 
L 51.498366 114.624 
L 51.515659 109.08 
L 51.596028 103.536 
L 51.726764 97.992 
L 51.89796 92.448 
L 52.101805 86.904 
L 52.332071 81.36 
L 52.583749 75.816 
L 52.852776 70.272 
L 53.135832 64.728 
L 53.430187 59.184 
L 53.73358 53.64 
L 53.856 51.453121 
L 54.196237 48.096 
L 54.768628 42.552 
L 55.349546 37.008 
L 55.936971 31.464 
L 56.529192 25.92 
L 59.808 25.92 
L 65.76 25.92 
L 71.712 25.92 
L 77.664 25.92 
L 83.616 25.92 
L 89.568 25.92 
L 95.52 25.92 
L 101.472 25.92 
L 107.424 25.92 
L 113.376 25.92 
L 119.328 25.92 
L 125.28 25.92 
L 131.232 25.92 
L 137.184 25.92 
L 143.136 25.92 
L 149.088 25.92 
L 155.04 25.92 
L 160.992 25.92 
L 166.944 25.92 
L 172.896 25.92 
L 178.848 25.92 
L 184.8 25.92 
L 190.752 25.92 
L 196.599622 25.92 
L 196.704 26.007456 
L 202.656 30.902643 
L 203.351825 31.464 
L 208.608 35.693461 
L 210.273988 37.008 
L 214.56 40.388538 
L 214.56 42.552 
L 214.56 48.096 
L 214.56 53.64 
L 214.56 59.184 
L 214.56 64.728 
L 214.56 70.272 
L 214.56 75.816 
L 214.56 81.36 
L 214.56 86.904 
L 214.56 92.448 
L 214.56 97.992 
L 214.56 103.536 
L 214.56 109.08 
L 214.56 114.624 
L 214.56 120.168 
L 214.56 125.712 
L 214.56 131.256 
L 214.56 136.8 
L 214.56 142.344 
L 214.56 147.888 
L 214.56 153.432 
L 214.56 155.267752 
L 208.608 156.096405 
L 202.656 156.934968 
L 196.704 157.782883 
L 190.752 158.639407 
L 188.435143 158.976 
L 184.8 159.332086 
L 178.848 159.91997 
L 172.896 160.511456 
L 166.944 161.105147 
L 160.992 161.699246 
L 155.04 162.291442 
L 149.088 162.878758 
L 143.136 163.457358 
L 137.184 164.022275 
L 131.746588 164.52 
L 131.232 164.551134 
L 125.28 164.892886 
L 119.328 165.208594 
L 113.376 165.488361 
L 107.424 165.718791 
L 101.472 165.881485 
L 95.52 165.950724 
L 89.568 165.889799 
L 83.616 165.644969 
L 77.664 165.135089 
L 73.608736 164.52 
L 71.712 164.088785 
L 65.76 161.832415 
L 61.174611 158.976 
L 59.808 157.737527 
L 56.977928 153.432 
L 54.431859 147.888 
L 53.856 146.095088 
z
M 65.76 139.506725 
L 67.488031 142.344 
L 71.712 147.123082 
L 72.848641 147.888 
L 77.664 150.14076 
L 83.616 151.693653 
L 89.568 152.411954 
L 95.52 152.547876 
L 101.472 152.269192 
L 107.424 151.69104 
L 113.376 150.894488 
L 119.328 149.937831 
L 125.28 148.863738 
L 130.289428 147.888 
L 131.232 147.617316 
L 137.184 145.818679 
L 143.136 143.951788 
L 148.136937 142.344 
L 149.088 141.879992 
L 155.04 138.931201 
L 159.293433 136.8 
L 160.992 135.425748 
L 166.113659 131.256 
L 166.944 130.004762 
L 169.787562 125.712 
L 171.096005 120.168 
L 170.615102 114.624 
L 168.771414 109.08 
L 166.944 105.578819 
L 165.890489 103.536 
L 162.225294 97.992 
L 160.992 96.399229 
L 157.961262 92.448 
L 155.04 89.02612 
L 153.23908 86.904 
L 149.088 82.370024 
L 148.164497 81.36 
L 143.136 76.153241 
L 142.808714 75.816 
L 137.210985 70.272 
L 137.184 70.246031 
L 131.374881 64.728 
L 131.232 64.594944 
L 125.28 59.187737 
L 125.275708 59.184 
L 119.328 54.071935 
L 118.78996 53.64 
L 113.376 49.325943 
L 111.652812 48.096 
L 107.424 45.086562 
L 103.138671 42.552 
L 101.472 41.565462 
L 95.52 39.092982 
L 89.568 38.14679 
L 83.616 39.477597 
L 79.76929 42.552 
L 77.664 44.269949 
L 75.414265 48.096 
L 72.237246 53.64 
L 71.712 54.581916 
L 70.287663 59.184 
L 68.628603 64.728 
L 67.03947 70.272 
L 65.76 74.981261 
L 65.627918 75.816 
L 64.804258 81.36 
L 64.048848 86.904 
L 63.376773 92.448 
L 62.806713 97.992 
L 62.362016 103.536 
L 62.072184 109.08 
L 61.974959 114.624 
L 62.119286 120.168 
L 62.569643 125.712 
L 63.41251 131.256 
L 64.766291 136.8 
z
" clip-path="url(#p73b85b3185)" style="fill: #b5de2b"/>
   </g>
   <g id="PathCollection_27">
    <path d="M 64.766291 136.8 
L 63.41251 131.256 
L 62.569643 125.712 
L 62.119286 120.168 
L 61.974959 114.624 
L 62.072184 109.08 
L 62.362016 103.536 
L 62.806713 97.992 
L 63.376773 92.448 
L 64.048848 86.904 
L 64.804258 81.36 
L 65.627918 75.816 
L 65.76 74.981261 
L 67.03947 70.272 
L 68.628603 64.728 
L 70.287663 59.184 
L 71.712 54.581916 
L 72.237246 53.64 
L 75.414265 48.096 
L 77.664 44.269949 
L 79.76929 42.552 
L 83.616 39.477597 
L 89.568 38.14679 
L 95.52 39.092982 
L 101.472 41.565462 
L 103.138671 42.552 
L 107.424 45.086562 
L 111.652812 48.096 
L 113.376 49.325943 
L 118.78996 53.64 
L 119.328 54.071935 
L 125.275708 59.184 
L 125.28 59.187737 
L 131.232 64.594944 
L 131.374881 64.728 
L 137.184 70.246031 
L 137.210985 70.272 
L 142.808714 75.816 
L 143.136 76.153241 
L 148.164497 81.36 
L 149.088 82.370024 
L 153.23908 86.904 
L 155.04 89.02612 
L 157.961262 92.448 
L 160.992 96.399229 
L 162.225294 97.992 
L 165.890489 103.536 
L 166.944 105.578819 
L 168.771414 109.08 
L 170.615102 114.624 
L 171.096005 120.168 
L 169.787562 125.712 
L 166.944 130.004762 
L 166.113659 131.256 
L 160.992 135.425748 
L 159.293433 136.8 
L 155.04 138.931201 
L 149.088 141.879992 
L 148.136937 142.344 
L 143.136 143.951788 
L 137.184 145.818679 
L 131.232 147.617316 
L 130.289428 147.888 
L 125.28 148.863738 
L 119.328 149.937831 
L 113.376 150.894488 
L 107.424 151.69104 
L 101.472 152.269192 
L 95.52 152.547876 
L 89.568 152.411954 
L 83.616 151.693653 
L 77.664 150.14076 
L 72.848641 147.888 
L 71.712 147.123082 
L 67.488031 142.344 
L 65.76 139.506725 
z
" clip-path="url(#p73b85b3185)" style="fill: #e7e419"/>
   </g>
   <g id="PathCollection_28">
    <defs>
     <path id="mc50469e29c" d="M -4.330127 4.330127 
L 4.330127 -4.330127 
M -4.330127 -4.330127 
L 4.330127 4.330127 
" style="stroke: #000000; stroke-width: 2"/>
    </defs>
    <g clip-path="url(#p73b85b3185)">
     <use xlink:href="#mc50469e29c" x="85.6" y="127.56" style="stroke: #000000; stroke-width: 2"/>
    </g>
   </g>
   <g id="matplotlib.axis_1">
    <g id="xtick_1">
     <g id="line2d_1">
      <defs>
       <path id="m0f5e0b2745" d="M 0 0 
L 0 3.5 
" style="stroke: #000000; stroke-width: 0.8"/>
      </defs>
      <g>
       <use xlink:href="#m0f5e0b2745" x="75.68" y="192.24" style="stroke: #000000; stroke-width: 0.8"/>
      </g>
     </g>
     <g id="text_1">
      <!-- $\mathdefault{250}$ -->
      <g transform="translate(64.22 208.358125) scale(0.12 -0.12)">
       <defs>
        <path id="DejaVuSans-32" d="M 1228 531 
L 3431 531 
L 3431 0 
L 469 0 
L 469 531 
Q 828 903 1448 1529 
Q 2069 2156 2228 2338 
Q 2531 2678 2651 2914 
Q 2772 3150 2772 3378 
Q 2772 3750 2511 3984 
Q 2250 4219 1831 4219 
Q 1534 4219 1204 4116 
Q 875 4013 500 3803 
L 500 4441 
Q 881 4594 1212 4672 
Q 1544 4750 1819 4750 
Q 2544 4750 2975 4387 
Q 3406 4025 3406 3419 
Q 3406 3131 3298 2873 
Q 3191 2616 2906 2266 
Q 2828 2175 2409 1742 
Q 1991 1309 1228 531 
z
" transform="scale(0.015625)"/>
        <path id="DejaVuSans-35" d="M 691 4666 
L 3169 4666 
L 3169 4134 
L 1269 4134 
L 1269 2991 
Q 1406 3038 1543 3061 
Q 1681 3084 1819 3084 
Q 2600 3084 3056 2656 
Q 3513 2228 3513 1497 
Q 3513 744 3044 326 
Q 2575 -91 1722 -91 
Q 1428 -91 1123 -41 
Q 819 9 494 109 
L 494 744 
Q 775 591 1075 516 
Q 1375 441 1709 441 
Q 2250 441 2565 725 
Q 2881 1009 2881 1497 
Q 2881 1984 2565 2268 
Q 2250 2553 1709 2553 
Q 1456 2553 1204 2497 
Q 953 2441 691 2322 
L 691 4666 
z
" transform="scale(0.015625)"/>
        <path id="DejaVuSans-30" d="M 2034 4250 
Q 1547 4250 1301 3770 
Q 1056 3291 1056 2328 
Q 1056 1369 1301 889 
Q 1547 409 2034 409 
Q 2525 409 2770 889 
Q 3016 1369 3016 2328 
Q 3016 3291 2770 3770 
Q 2525 4250 2034 4250 
z
M 2034 4750 
Q 2819 4750 3233 4129 
Q 3647 3509 3647 2328 
Q 3647 1150 3233 529 
Q 2819 -91 2034 -91 
Q 1250 -91 836 529 
Q 422 1150 422 2328 
Q 422 3509 836 4129 
Q 1250 4750 2034 4750 
z
" transform="scale(0.015625)"/>
       </defs>
       <use xlink:href="#DejaVuSans-32" transform="translate(0 0.78125)"/>
       <use xlink:href="#DejaVuSans-35" transform="translate(63.623047 0.78125)"/>
       <use xlink:href="#DejaVuSans-30" transform="translate(127.246094 0.78125)"/>
      </g>
     </g>
    </g>
    <g id="xtick_2">
     <g id="line2d_2">
      <g>
       <use xlink:href="#m0f5e0b2745" x="125.28" y="192.24" style="stroke: #000000; stroke-width: 0.8"/>
      </g>
     </g>
     <g id="text_2">
      <!-- $\mathdefault{500}$ -->
      <g transform="translate(113.82 208.358125) scale(0.12 -0.12)">
       <use xlink:href="#DejaVuSans-35" transform="translate(0 0.78125)"/>
       <use xlink:href="#DejaVuSans-30" transform="translate(63.623047 0.78125)"/>
       <use xlink:href="#DejaVuSans-30" transform="translate(127.246094 0.78125)"/>
      </g>
     </g>
    </g>
    <g id="xtick_3">
     <g id="line2d_3">
      <g>
       <use xlink:href="#m0f5e0b2745" x="174.88" y="192.24" style="stroke: #000000; stroke-width: 0.8"/>
      </g>
     </g>
     <g id="text_3">
      <!-- $\mathdefault{750}$ -->
      <g transform="translate(163.42 208.358125) scale(0.12 -0.12)">
       <defs>
        <path id="DejaVuSans-37" d="M 525 4666 
L 3525 4666 
L 3525 4397 
L 1831 0 
L 1172 0 
L 2766 4134 
L 525 4134 
L 525 4666 
z
" transform="scale(0.015625)"/>
       </defs>
       <use xlink:href="#DejaVuSans-37" transform="translate(0 0.78125)"/>
       <use xlink:href="#DejaVuSans-35" transform="translate(63.623047 0.78125)"/>
       <use xlink:href="#DejaVuSans-30" transform="translate(127.246094 0.78125)"/>
      </g>
     </g>
    </g>
    <g id="text_4">
     <!-- Diploid N$_e$1 -->
     <g transform="translate(80 227.01375) scale(0.16 -0.16)">
      <defs>
       <path id="DejaVuSans-44" d="M 1259 4147 
L 1259 519 
L 2022 519 
Q 2988 519 3436 956 
Q 3884 1394 3884 2338 
Q 3884 3275 3436 3711 
Q 2988 4147 2022 4147 
L 1259 4147 
z
M 628 4666 
L 1925 4666 
Q 3281 4666 3915 4102 
Q 4550 3538 4550 2338 
Q 4550 1131 3912 565 
Q 3275 0 1925 0 
L 628 0 
L 628 4666 
z
" transform="scale(0.015625)"/>
       <path id="DejaVuSans-69" d="M 603 3500 
L 1178 3500 
L 1178 0 
L 603 0 
L 603 3500 
z
M 603 4863 
L 1178 4863 
L 1178 4134 
L 603 4134 
L 603 4863 
z
" transform="scale(0.015625)"/>
       <path id="DejaVuSans-70" d="M 1159 525 
L 1159 -1331 
L 581 -1331 
L 581 3500 
L 1159 3500 
L 1159 2969 
Q 1341 3281 1617 3432 
Q 1894 3584 2278 3584 
Q 2916 3584 3314 3078 
Q 3713 2572 3713 1747 
Q 3713 922 3314 415 
Q 2916 -91 2278 -91 
Q 1894 -91 1617 61 
Q 1341 213 1159 525 
z
M 3116 1747 
Q 3116 2381 2855 2742 
Q 2594 3103 2138 3103 
Q 1681 3103 1420 2742 
Q 1159 2381 1159 1747 
Q 1159 1113 1420 752 
Q 1681 391 2138 391 
Q 2594 391 2855 752 
Q 3116 1113 3116 1747 
z
" transform="scale(0.015625)"/>
       <path id="DejaVuSans-6c" d="M 603 4863 
L 1178 4863 
L 1178 0 
L 603 0 
L 603 4863 
z
" transform="scale(0.015625)"/>
       <path id="DejaVuSans-6f" d="M 1959 3097 
Q 1497 3097 1228 2736 
Q 959 2375 959 1747 
Q 959 1119 1226 758 
Q 1494 397 1959 397 
Q 2419 397 2687 759 
Q 2956 1122 2956 1747 
Q 2956 2369 2687 2733 
Q 2419 3097 1959 3097 
z
M 1959 3584 
Q 2709 3584 3137 3096 
Q 3566 2609 3566 1747 
Q 3566 888 3137 398 
Q 2709 -91 1959 -91 
Q 1206 -91 779 398 
Q 353 888 353 1747 
Q 353 2609 779 3096 
Q 1206 3584 1959 3584 
z
" transform="scale(0.015625)"/>
       <path id="DejaVuSans-64" d="M 2906 2969 
L 2906 4863 
L 3481 4863 
L 3481 0 
L 2906 0 
L 2906 525 
Q 2725 213 2448 61 
Q 2172 -91 1784 -91 
Q 1150 -91 751 415 
Q 353 922 353 1747 
Q 353 2572 751 3078 
Q 1150 3584 1784 3584 
Q 2172 3584 2448 3432 
Q 2725 3281 2906 2969 
z
M 947 1747 
Q 947 1113 1208 752 
Q 1469 391 1925 391 
Q 2381 391 2643 752 
Q 2906 1113 2906 1747 
Q 2906 2381 2643 2742 
Q 2381 3103 1925 3103 
Q 1469 3103 1208 2742 
Q 947 2381 947 1747 
z
" transform="scale(0.015625)"/>
       <path id="DejaVuSans-20" transform="scale(0.015625)"/>
       <path id="DejaVuSans-4e" d="M 628 4666 
L 1478 4666 
L 3547 763 
L 3547 4666 
L 4159 4666 
L 4159 0 
L 3309 0 
L 1241 3903 
L 1241 0 
L 628 0 
L 628 4666 
z
" transform="scale(0.015625)"/>
       <path id="DejaVuSans-Oblique-65" d="M 3078 2063 
Q 3088 2113 3092 2166 
Q 3097 2219 3097 2272 
Q 3097 2653 2873 2875 
Q 2650 3097 2266 3097 
Q 1838 3097 1509 2826 
Q 1181 2556 1013 2059 
L 3078 2063 
z
M 3578 1613 
L 903 1613 
Q 884 1494 878 1425 
Q 872 1356 872 1306 
Q 872 872 1139 634 
Q 1406 397 1894 397 
Q 2269 397 2603 481 
Q 2938 566 3225 728 
L 3116 159 
Q 2806 34 2476 -28 
Q 2147 -91 1806 -91 
Q 1078 -91 686 257 
Q 294 606 294 1247 
Q 294 1794 489 2264 
Q 684 2734 1063 3103 
Q 1306 3334 1642 3459 
Q 1978 3584 2356 3584 
Q 2950 3584 3301 3228 
Q 3653 2872 3653 2272 
Q 3653 2128 3634 1964 
Q 3616 1800 3578 1613 
z
" transform="scale(0.015625)"/>
       <path id="DejaVuSans-31" d="M 794 531 
L 1825 531 
L 1825 4091 
L 703 3866 
L 703 4441 
L 1819 4666 
L 2450 4666 
L 2450 531 
L 3481 531 
L 3481 0 
L 794 0 
L 794 531 
z
" transform="scale(0.015625)"/>
      </defs>
      <use xlink:href="#DejaVuSans-44" transform="translate(0 0.015625)"/>
      <use xlink:href="#DejaVuSans-69" transform="translate(77.001953 0.015625)"/>
      <use xlink:href="#DejaVuSans-70" transform="translate(104.785156 0.015625)"/>
      <use xlink:href="#DejaVuSans-6c" transform="translate(168.261719 0.015625)"/>
      <use xlink:href="#DejaVuSans-6f" transform="translate(196.044922 0.015625)"/>
      <use xlink:href="#DejaVuSans-69" transform="translate(257.226562 0.015625)"/>
      <use xlink:href="#DejaVuSans-64" transform="translate(285.009766 0.015625)"/>
      <use xlink:href="#DejaVuSans-20" transform="translate(348.486328 0.015625)"/>
      <use xlink:href="#DejaVuSans-4e" transform="translate(380.273438 0.015625)"/>
      <use xlink:href="#DejaVuSans-Oblique-65" transform="translate(456.035156 -16.390625) scale(0.7)"/>
      <use xlink:href="#DejaVuSans-31" transform="translate(501.835938 0.015625)"/>
     </g>
    </g>
    <g id="text_5">
     <!-- $\times\mathdefault{10^{3}}\mathdefault{}$ -->
     <g transform="translate(188.56 221.452188) scale(0.1 -0.1)">
      <defs>
       <path id="DejaVuSans-d7" d="M 4488 3438 
L 3059 2003 
L 4488 575 
L 4116 197 
L 2681 1631 
L 1247 197 
L 878 575 
L 2303 2003 
L 878 3438 
L 1247 3816 
L 2681 2381 
L 4116 3816 
L 4488 3438 
z
" transform="scale(0.015625)"/>
       <path id="DejaVuSans-33" d="M 2597 2516 
Q 3050 2419 3304 2112 
Q 3559 1806 3559 1356 
Q 3559 666 3084 287 
Q 2609 -91 1734 -91 
Q 1441 -91 1130 -33 
Q 819 25 488 141 
L 488 750 
Q 750 597 1062 519 
Q 1375 441 1716 441 
Q 2309 441 2620 675 
Q 2931 909 2931 1356 
Q 2931 1769 2642 2001 
Q 2353 2234 1838 2234 
L 1294 2234 
L 1294 2753 
L 1863 2753 
Q 2328 2753 2575 2939 
Q 2822 3125 2822 3475 
Q 2822 3834 2567 4026 
Q 2313 4219 1838 4219 
Q 1578 4219 1281 4162 
Q 984 4106 628 3988 
L 628 4550 
Q 988 4650 1302 4700 
Q 1616 4750 1894 4750 
Q 2613 4750 3031 4423 
Q 3450 4097 3450 3541 
Q 3450 3153 3228 2886 
Q 3006 2619 2597 2516 
z
" transform="scale(0.015625)"/>
      </defs>
      <use xlink:href="#DejaVuSans-d7" transform="translate(0 0.765625)"/>
      <use xlink:href="#DejaVuSans-31" transform="translate(83.789062 0.765625)"/>
      <use xlink:href="#DejaVuSans-30" transform="translate(147.412109 0.765625)"/>
      <use xlink:href="#DejaVuSans-33" transform="translate(211.992188 39.046875) scale(0.7)"/>
     </g>
    </g>
   </g>
   <g id="matplotlib.axis_2">
    <g id="ytick_1">
     <g id="line2d_4">
      <defs>
       <path id="mdc1b844bb1" d="M 0 0 
L -3.5 0 
" style="stroke: #000000; stroke-width: 0.8"/>
      </defs>
      <g>
       <use xlink:href="#mdc1b844bb1" x="36" y="155.28" style="stroke: #000000; stroke-width: 0.8"/>
      </g>
     </g>
     <g id="text_6">
      <!-- $\mathdefault{250}$ -->
      <g transform="translate(6.08 159.839063) scale(0.12 -0.12)">
       <use xlink:href="#DejaVuSans-32" transform="translate(0 0.78125)"/>
       <use xlink:href="#DejaVuSans-35" transform="translate(63.623047 0.78125)"/>
       <use xlink:href="#DejaVuSans-30" transform="translate(127.246094 0.78125)"/>
      </g>
     </g>
    </g>
    <g id="ytick_2">
     <g id="line2d_5">
      <g>
       <use xlink:href="#mdc1b844bb1" x="36" y="109.08" style="stroke: #000000; stroke-width: 0.8"/>
      </g>
     </g>
     <g id="text_7">
      <!-- $\mathdefault{500}$ -->
      <g transform="translate(6.08 113.639062) scale(0.12 -0.12)">
       <use xlink:href="#DejaVuSans-35" transform="translate(0 0.78125)"/>
       <use xlink:href="#DejaVuSans-30" transform="translate(63.623047 0.78125)"/>
       <use xlink:href="#DejaVuSans-30" transform="translate(127.246094 0.78125)"/>
      </g>
     </g>
    </g>
    <g id="ytick_3">
     <g id="line2d_6">
      <g>
       <use xlink:href="#mdc1b844bb1" x="36" y="62.88" style="stroke: #000000; stroke-width: 0.8"/>
      </g>
     </g>
     <g id="text_8">
      <!-- $\mathdefault{750}$ -->
      <g transform="translate(6.08 67.439062) scale(0.12 -0.12)">
       <use xlink:href="#DejaVuSans-37" transform="translate(0 0.78125)"/>
       <use xlink:href="#DejaVuSans-35" transform="translate(63.623047 0.78125)"/>
       <use xlink:href="#DejaVuSans-30" transform="translate(127.246094 0.78125)"/>
      </g>
     </g>
    </g>
    <g id="text_9">
     <!-- Diploid N$_e$2 -->
     <g transform="translate(-1.28 154.36) rotate(-90) scale(0.16 -0.16)">
      <use xlink:href="#DejaVuSans-44" transform="translate(0 0.015625)"/>
      <use xlink:href="#DejaVuSans-69" transform="translate(77.001953 0.015625)"/>
      <use xlink:href="#DejaVuSans-70" transform="translate(104.785156 0.015625)"/>
      <use xlink:href="#DejaVuSans-6c" transform="translate(168.261719 0.015625)"/>
      <use xlink:href="#DejaVuSans-6f" transform="translate(196.044922 0.015625)"/>
      <use xlink:href="#DejaVuSans-69" transform="translate(257.226562 0.015625)"/>
      <use xlink:href="#DejaVuSans-64" transform="translate(285.009766 0.015625)"/>
      <use xlink:href="#DejaVuSans-20" transform="translate(348.486328 0.015625)"/>
      <use xlink:href="#DejaVuSans-4e" transform="translate(380.273438 0.015625)"/>
      <use xlink:href="#DejaVuSans-Oblique-65" transform="translate(456.035156 -16.390625) scale(0.7)"/>
      <use xlink:href="#DejaVuSans-32" transform="translate(501.835938 0.015625)"/>
     </g>
    </g>
    <g id="text_10">
     <!-- $\times\mathdefault{10^{3}}\mathdefault{}$ -->
     <g transform="translate(36 22.92) scale(0.1 -0.1)">
      <use xlink:href="#DejaVuSans-d7" transform="translate(0 0.765625)"/>
      <use xlink:href="#DejaVuSans-31" transform="translate(83.789062 0.765625)"/>
      <use xlink:href="#DejaVuSans-30" transform="translate(147.412109 0.765625)"/>
      <use xlink:href="#DejaVuSans-33" transform="translate(211.992188 39.046875) scale(0.7)"/>
     </g>
    </g>
   </g>
   <g id="patch_3">
    <path d="M 36 192.24 
L 36 25.92 
" style="fill: none; stroke: #000000; stroke-width: 0.8; stroke-linejoin: miter; stroke-linecap: square"/>
   </g>
   <g id="patch_4">
    <path d="M 214.56 192.24 
L 214.56 25.92 
" style="fill: none; stroke: #000000; stroke-width: 0.8; stroke-linejoin: miter; stroke-linecap: square"/>
   </g>
   <g id="patch_5">
    <path d="M 36 192.24 
L 214.56 192.24 
" style="fill: none; stroke: #000000; stroke-width: 0.8; stroke-linejoin: miter; stroke-linecap: square"/>
   </g>
   <g id="patch_6">
    <path d="M 36 25.92 
L 214.56 25.92 
" style="fill: none; stroke: #000000; stroke-width: 0.8; stroke-linejoin: miter; stroke-linecap: square"/>
   </g>
   <g id="text_11">
    <!-- Ne1Ne2-MSSMC-RGT-P2-S4 -->
    <g transform="translate(16.485 10.92) scale(0.16 -0.16)">
     <defs>
      <path id="DejaVuSans-65" d="M 3597 1894 
L 3597 1613 
L 953 1613 
Q 991 1019 1311 708 
Q 1631 397 2203 397 
Q 2534 397 2845 478 
Q 3156 559 3463 722 
L 3463 178 
Q 3153 47 2828 -22 
Q 2503 -91 2169 -91 
Q 1331 -91 842 396 
Q 353 884 353 1716 
Q 353 2575 817 3079 
Q 1281 3584 2069 3584 
Q 2775 3584 3186 3129 
Q 3597 2675 3597 1894 
z
M 3022 2063 
Q 3016 2534 2758 2815 
Q 2500 3097 2075 3097 
Q 1594 3097 1305 2825 
Q 1016 2553 972 2059 
L 3022 2063 
z
" transform="scale(0.015625)"/>
      <path id="DejaVuSans-2d" d="M 313 2009 
L 1997 2009 
L 1997 1497 
L 313 1497 
L 313 2009 
z
" transform="scale(0.015625)"/>
      <path id="DejaVuSans-4d" d="M 628 4666 
L 1569 4666 
L 2759 1491 
L 3956 4666 
L 4897 4666 
L 4897 0 
L 4281 0 
L 4281 4097 
L 3078 897 
L 2444 897 
L 1241 4097 
L 1241 0 
L 628 0 
L 628 4666 
z
" transform="scale(0.015625)"/>
      <path id="DejaVuSans-53" d="M 3425 4513 
L 3425 3897 
Q 3066 4069 2747 4153 
Q 2428 4238 2131 4238 
Q 1616 4238 1336 4038 
Q 1056 3838 1056 3469 
Q 1056 3159 1242 3001 
Q 1428 2844 1947 2747 
L 2328 2669 
Q 3034 2534 3370 2195 
Q 3706 1856 3706 1288 
Q 3706 609 3251 259 
Q 2797 -91 1919 -91 
Q 1588 -91 1214 -16 
Q 841 59 441 206 
L 441 856 
Q 825 641 1194 531 
Q 1563 422 1919 422 
Q 2459 422 2753 634 
Q 3047 847 3047 1241 
Q 3047 1584 2836 1778 
Q 2625 1972 2144 2069 
L 1759 2144 
Q 1053 2284 737 2584 
Q 422 2884 422 3419 
Q 422 4038 858 4394 
Q 1294 4750 2059 4750 
Q 2388 4750 2728 4690 
Q 3069 4631 3425 4513 
z
" transform="scale(0.015625)"/>
      <path id="DejaVuSans-43" d="M 4122 4306 
L 4122 3641 
Q 3803 3938 3442 4084 
Q 3081 4231 2675 4231 
Q 1875 4231 1450 3742 
Q 1025 3253 1025 2328 
Q 1025 1406 1450 917 
Q 1875 428 2675 428 
Q 3081 428 3442 575 
Q 3803 722 4122 1019 
L 4122 359 
Q 3791 134 3420 21 
Q 3050 -91 2638 -91 
Q 1578 -91 968 557 
Q 359 1206 359 2328 
Q 359 3453 968 4101 
Q 1578 4750 2638 4750 
Q 3056 4750 3426 4639 
Q 3797 4528 4122 4306 
z
" transform="scale(0.015625)"/>
      <path id="DejaVuSans-52" d="M 2841 2188 
Q 3044 2119 3236 1894 
Q 3428 1669 3622 1275 
L 4263 0 
L 3584 0 
L 2988 1197 
Q 2756 1666 2539 1819 
Q 2322 1972 1947 1972 
L 1259 1972 
L 1259 0 
L 628 0 
L 628 4666 
L 2053 4666 
Q 2853 4666 3247 4331 
Q 3641 3997 3641 3322 
Q 3641 2881 3436 2590 
Q 3231 2300 2841 2188 
z
M 1259 4147 
L 1259 2491 
L 2053 2491 
Q 2509 2491 2742 2702 
Q 2975 2913 2975 3322 
Q 2975 3731 2742 3939 
Q 2509 4147 2053 4147 
L 1259 4147 
z
" transform="scale(0.015625)"/>
      <path id="DejaVuSans-47" d="M 3809 666 
L 3809 1919 
L 2778 1919 
L 2778 2438 
L 4434 2438 
L 4434 434 
Q 4069 175 3628 42 
Q 3188 -91 2688 -91 
Q 1594 -91 976 548 
Q 359 1188 359 2328 
Q 359 3472 976 4111 
Q 1594 4750 2688 4750 
Q 3144 4750 3555 4637 
Q 3966 4525 4313 4306 
L 4313 3634 
Q 3963 3931 3569 4081 
Q 3175 4231 2741 4231 
Q 1884 4231 1454 3753 
Q 1025 3275 1025 2328 
Q 1025 1384 1454 906 
Q 1884 428 2741 428 
Q 3075 428 3337 486 
Q 3600 544 3809 666 
z
" transform="scale(0.015625)"/>
      <path id="DejaVuSans-54" d="M -19 4666 
L 3928 4666 
L 3928 4134 
L 2272 4134 
L 2272 0 
L 1638 0 
L 1638 4134 
L -19 4134 
L -19 4666 
z
" transform="scale(0.015625)"/>
      <path id="DejaVuSans-50" d="M 1259 4147 
L 1259 2394 
L 2053 2394 
Q 2494 2394 2734 2622 
Q 2975 2850 2975 3272 
Q 2975 3691 2734 3919 
Q 2494 4147 2053 4147 
L 1259 4147 
z
M 628 4666 
L 2053 4666 
Q 2838 4666 3239 4311 
Q 3641 3956 3641 3272 
Q 3641 2581 3239 2228 
Q 2838 1875 2053 1875 
L 1259 1875 
L 1259 0 
L 628 0 
L 628 4666 
z
" transform="scale(0.015625)"/>
      <path id="DejaVuSans-34" d="M 2419 4116 
L 825 1625 
L 2419 1625 
L 2419 4116 
z
M 2253 4666 
L 3047 4666 
L 3047 1625 
L 3713 1625 
L 3713 1100 
L 3047 1100 
L 3047 0 
L 2419 0 
L 2419 1100 
L 313 1100 
L 313 1709 
L 2253 4666 
z
" transform="scale(0.015625)"/>
     </defs>
     <use xlink:href="#DejaVuSans-4e"/>
     <use xlink:href="#DejaVuSans-65" x="74.804688"/>
     <use xlink:href="#DejaVuSans-31" x="136.328125"/>
     <use xlink:href="#DejaVuSans-4e" x="199.951172"/>
     <use xlink:href="#DejaVuSans-65" x="274.755859"/>
     <use xlink:href="#DejaVuSans-32" x="336.279297"/>
     <use xlink:href="#DejaVuSans-2d" x="399.902344"/>
     <use xlink:href="#DejaVuSans-4d" x="435.986328"/>
     <use xlink:href="#DejaVuSans-53" x="522.265625"/>
     <use xlink:href="#DejaVuSans-53" x="585.742188"/>
     <use xlink:href="#DejaVuSans-4d" x="649.21875"/>
     <use xlink:href="#DejaVuSans-43" x="735.498047"/>
     <use xlink:href="#DejaVuSans-2d" x="805.322266"/>
     <use xlink:href="#DejaVuSans-52" x="841.40625"/>
     <use xlink:href="#DejaVuSans-47" x="910.888672"/>
     <use xlink:href="#DejaVuSans-54" x="984.753906"/>
     <use xlink:href="#DejaVuSans-2d" x="1036.712891"/>
     <use xlink:href="#DejaVuSans-50" x="1072.796875"/>
     <use xlink:href="#DejaVuSans-32" x="1133.099609"/>
     <use xlink:href="#DejaVuSans-2d" x="1196.722656"/>
     <use xlink:href="#DejaVuSans-53" x="1232.806641"/>
     <use xlink:href="#DejaVuSans-34" x="1296.283203"/>
    </g>
   </g>
  </g>
  <g id="axes_2">
   <g id="patch_7">
    <path d="M 225.72 192.24 
L 234.036 192.24 
L 234.036 25.92 
L 225.72 25.92 
z
" style="fill: #ffffff"/>
   </g>
   <g id="QuadMesh_1">
    <path d="M 225.72 192.24 
L 234.036 192.24 
L 234.036 186.08 
L 225.72 186.08 
L 225.72 192.24 
" clip-path="url(#p91804cb88c)" style="fill: #440154"/>
    <path d="M 225.72 186.08 
L 234.036 186.08 
L 234.036 179.92 
L 225.72 179.92 
L 225.72 186.08 
" clip-path="url(#p91804cb88c)" style="fill: #440154"/>
    <path d="M 225.72 179.92 
L 234.036 179.92 
L 234.036 173.76 
L 225.72 173.76 
L 225.72 179.92 
" clip-path="url(#p91804cb88c)" style="fill: #440154"/>
    <path d="M 225.72 173.76 
L 234.036 173.76 
L 234.036 167.6 
L 225.72 167.6 
L 225.72 173.76 
" clip-path="url(#p91804cb88c)" style="fill: #440154"/>
    <path d="M 225.72 167.6 
L 234.036 167.6 
L 234.036 161.44 
L 225.72 161.44 
L 225.72 167.6 
" clip-path="url(#p91804cb88c)" style="fill: #440154"/>
    <path d="M 225.72 161.44 
L 234.036 161.44 
L 234.036 155.28 
L 225.72 155.28 
L 225.72 161.44 
" clip-path="url(#p91804cb88c)" style="fill: #440154"/>
    <path d="M 225.72 155.28 
L 234.036 155.28 
L 234.036 149.12 
L 225.72 149.12 
L 225.72 155.28 
" clip-path="url(#p91804cb88c)" style="fill: #440154"/>
    <path d="M 225.72 149.12 
L 234.036 149.12 
L 234.036 142.96 
L 225.72 142.96 
L 225.72 149.12 
" clip-path="url(#p91804cb88c)" style="fill: #440154"/>
    <path d="M 225.72 142.96 
L 234.036 142.96 
L 234.036 136.8 
L 225.72 136.8 
L 225.72 142.96 
" clip-path="url(#p91804cb88c)" style="fill: #440154"/>
    <path d="M 225.72 136.8 
L 234.036 136.8 
L 234.036 130.64 
L 225.72 130.64 
L 225.72 136.8 
" clip-path="url(#p91804cb88c)" style="fill: #440154"/>
    <path d="M 225.72 130.64 
L 234.036 130.64 
L 234.036 124.48 
L 225.72 124.48 
L 225.72 130.64 
" clip-path="url(#p91804cb88c)" style="fill: #440154"/>
    <path d="M 225.72 124.48 
L 234.036 124.48 
L 234.036 118.32 
L 225.72 118.32 
L 225.72 124.48 
" clip-path="url(#p91804cb88c)" style="fill: #440154"/>
    <path d="M 225.72 118.32 
L 234.036 118.32 
L 234.036 112.16 
L 225.72 112.16 
L 225.72 118.32 
" clip-path="url(#p91804cb88c)" style="fill: #440154"/>
    <path d="M 225.72 112.16 
L 234.036 112.16 
L 234.036 106 
L 225.72 106 
L 225.72 112.16 
" clip-path="url(#p91804cb88c)" style="fill: #440154"/>
    <path d="M 225.72 106 
L 234.036 106 
L 234.036 99.84 
L 225.72 99.84 
L 225.72 106 
" clip-path="url(#p91804cb88c)" style="fill: #481668"/>
    <path d="M 225.72 99.84 
L 234.036 99.84 
L 234.036 93.68 
L 225.72 93.68 
L 225.72 99.84 
" clip-path="url(#p91804cb88c)" style="fill: #472e7c"/>
    <path d="M 225.72 93.68 
L 234.036 93.68 
L 234.036 87.52 
L 225.72 87.52 
L 225.72 93.68 
" clip-path="url(#p91804cb88c)" style="fill: #404688"/>
    <path d="M 225.72 87.52 
L 234.036 87.52 
L 234.036 81.36 
L 225.72 81.36 
L 225.72 87.52 
" clip-path="url(#p91804cb88c)" style="fill: #375b8d"/>
    <path d="M 225.72 81.36 
L 234.036 81.36 
L 234.036 75.2 
L 225.72 75.2 
L 225.72 81.36 
" clip-path="url(#p91804cb88c)" style="fill: #2e6e8e"/>
    <path d="M 225.72 75.2 
L 234.036 75.2 
L 234.036 69.04 
L 225.72 69.04 
L 225.72 75.2 
" clip-path="url(#p91804cb88c)" style="fill: #26818e"/>
    <path d="M 225.72 69.04 
L 234.036 69.04 
L 234.036 62.88 
L 225.72 62.88 
L 225.72 69.04 
" clip-path="url(#p91804cb88c)" style="fill: #20928c"/>
    <path d="M 225.72 62.88 
L 234.036 62.88 
L 234.036 56.72 
L 225.72 56.72 
L 225.72 62.88 
" clip-path="url(#p91804cb88c)" style="fill: #20a486"/>
    <path d="M 225.72 56.72 
L 234.036 56.72 
L 234.036 50.56 
L 225.72 50.56 
L 225.72 56.72 
" clip-path="url(#p91804cb88c)" style="fill: #34b679"/>
    <path d="M 225.72 50.56 
L 234.036 50.56 
L 234.036 44.4 
L 225.72 44.4 
L 225.72 50.56 
" clip-path="url(#p91804cb88c)" style="fill: #56c667"/>
    <path d="M 225.72 44.4 
L 234.036 44.4 
L 234.036 38.24 
L 225.72 38.24 
L 225.72 44.4 
" clip-path="url(#p91804cb88c)" style="fill: #81d34d"/>
    <path d="M 225.72 38.24 
L 234.036 38.24 
L 234.036 32.08 
L 225.72 32.08 
L 225.72 38.24 
" clip-path="url(#p91804cb88c)" style="fill: #b5de2b"/>
    <path d="M 225.72 32.08 
L 234.036 32.08 
L 234.036 25.92 
L 225.72 25.92 
L 225.72 32.08 
" clip-path="url(#p91804cb88c)" style="fill: #e7e419"/>
   </g>
   <g id="matplotlib.axis_3"/>
   <g id="matplotlib.axis_4">
    <g id="ytick_4">
     <g id="line2d_7">
      <defs>
       <path id="m46926343dd" d="M 0 0 
L 3.5 0 
" style="stroke: #000000; stroke-width: 0.8"/>
      </defs>
      <g>
       <use xlink:href="#m46926343dd" x="234.036" y="192.24" style="stroke: #000000; stroke-width: 0.8"/>
      </g>
     </g>
     <g id="text_12">
      <!-- $\mathdefault{75100}$ -->
      <g transform="translate(241.036 196.039219) scale(0.1 -0.1)">
       <defs>
        <path id="DejaVuSans-2212" d="M 678 2272 
L 4684 2272 
L 4684 1741 
L 678 1741 
L 678 2272 
z
" transform="scale(0.015625)"/>
       </defs>
       <use xlink:href="#DejaVuSans-2212" transform="translate(0 0.78125)"/>
       <use xlink:href="#DejaVuSans-37" transform="translate(83.789062 0.78125)"/>
       <use xlink:href="#DejaVuSans-35" transform="translate(147.412109 0.78125)"/>
       <use xlink:href="#DejaVuSans-31" transform="translate(211.035156 0.78125)"/>
       <use xlink:href="#DejaVuSans-30" transform="translate(274.658203 0.78125)"/>
       <use xlink:href="#DejaVuSans-30" transform="translate(338.28125 0.78125)"/>
      </g>
     </g>
    </g>
    <g id="ytick_5">
     <g id="line2d_8">
      <g>
       <use xlink:href="#m46926343dd" x="234.036" y="173.76" style="stroke: #000000; stroke-width: 0.8"/>
      </g>
     </g>
     <g id="text_13">
      <!-- $\mathdefault{74800}$ -->
      <g transform="translate(241.036 177.559219) scale(0.1 -0.1)">
       <defs>
        <path id="DejaVuSans-38" d="M 2034 2216 
Q 1584 2216 1326 1975 
Q 1069 1734 1069 1313 
Q 1069 891 1326 650 
Q 1584 409 2034 409 
Q 2484 409 2743 651 
Q 3003 894 3003 1313 
Q 3003 1734 2745 1975 
Q 2488 2216 2034 2216 
z
M 1403 2484 
Q 997 2584 770 2862 
Q 544 3141 544 3541 
Q 544 4100 942 4425 
Q 1341 4750 2034 4750 
Q 2731 4750 3128 4425 
Q 3525 4100 3525 3541 
Q 3525 3141 3298 2862 
Q 3072 2584 2669 2484 
Q 3125 2378 3379 2068 
Q 3634 1759 3634 1313 
Q 3634 634 3220 271 
Q 2806 -91 2034 -91 
Q 1263 -91 848 271 
Q 434 634 434 1313 
Q 434 1759 690 2068 
Q 947 2378 1403 2484 
z
M 1172 3481 
Q 1172 3119 1398 2916 
Q 1625 2713 2034 2713 
Q 2441 2713 2670 2916 
Q 2900 3119 2900 3481 
Q 2900 3844 2670 4047 
Q 2441 4250 2034 4250 
Q 1625 4250 1398 4047 
Q 1172 3844 1172 3481 
z
" transform="scale(0.015625)"/>
       </defs>
       <use xlink:href="#DejaVuSans-2212" transform="translate(0 0.78125)"/>
       <use xlink:href="#DejaVuSans-37" transform="translate(83.789062 0.78125)"/>
       <use xlink:href="#DejaVuSans-34" transform="translate(147.412109 0.78125)"/>
       <use xlink:href="#DejaVuSans-38" transform="translate(211.035156 0.78125)"/>
       <use xlink:href="#DejaVuSans-30" transform="translate(274.658203 0.78125)"/>
       <use xlink:href="#DejaVuSans-30" transform="translate(338.28125 0.78125)"/>
      </g>
     </g>
    </g>
    <g id="ytick_6">
     <g id="line2d_9">
      <g>
       <use xlink:href="#m46926343dd" x="234.036" y="155.28" style="stroke: #000000; stroke-width: 0.8"/>
      </g>
     </g>
     <g id="text_14">
      <!-- $\mathdefault{74500}$ -->
      <g transform="translate(241.036 159.079219) scale(0.1 -0.1)">
       <use xlink:href="#DejaVuSans-2212" transform="translate(0 0.78125)"/>
       <use xlink:href="#DejaVuSans-37" transform="translate(83.789062 0.78125)"/>
       <use xlink:href="#DejaVuSans-34" transform="translate(147.412109 0.78125)"/>
       <use xlink:href="#DejaVuSans-35" transform="translate(211.035156 0.78125)"/>
       <use xlink:href="#DejaVuSans-30" transform="translate(274.658203 0.78125)"/>
       <use xlink:href="#DejaVuSans-30" transform="translate(338.28125 0.78125)"/>
      </g>
     </g>
    </g>
    <g id="ytick_7">
     <g id="line2d_10">
      <g>
       <use xlink:href="#m46926343dd" x="234.036" y="136.8" style="stroke: #000000; stroke-width: 0.8"/>
      </g>
     </g>
     <g id="text_15">
      <!-- $\mathdefault{74200}$ -->
      <g transform="translate(241.036 140.599219) scale(0.1 -0.1)">
       <use xlink:href="#DejaVuSans-2212" transform="translate(0 0.78125)"/>
       <use xlink:href="#DejaVuSans-37" transform="translate(83.789062 0.78125)"/>
       <use xlink:href="#DejaVuSans-34" transform="translate(147.412109 0.78125)"/>
       <use xlink:href="#DejaVuSans-32" transform="translate(211.035156 0.78125)"/>
       <use xlink:href="#DejaVuSans-30" transform="translate(274.658203 0.78125)"/>
       <use xlink:href="#DejaVuSans-30" transform="translate(338.28125 0.78125)"/>
      </g>
     </g>
    </g>
    <g id="ytick_8">
     <g id="line2d_11">
      <g>
       <use xlink:href="#m46926343dd" x="234.036" y="118.32" style="stroke: #000000; stroke-width: 0.8"/>
      </g>
     </g>
     <g id="text_16">
      <!-- $\mathdefault{73900}$ -->
      <g transform="translate(241.036 122.119219) scale(0.1 -0.1)">
       <defs>
        <path id="DejaVuSans-39" d="M 703 97 
L 703 672 
Q 941 559 1184 500 
Q 1428 441 1663 441 
Q 2288 441 2617 861 
Q 2947 1281 2994 2138 
Q 2813 1869 2534 1725 
Q 2256 1581 1919 1581 
Q 1219 1581 811 2004 
Q 403 2428 403 3163 
Q 403 3881 828 4315 
Q 1253 4750 1959 4750 
Q 2769 4750 3195 4129 
Q 3622 3509 3622 2328 
Q 3622 1225 3098 567 
Q 2575 -91 1691 -91 
Q 1453 -91 1209 -44 
Q 966 3 703 97 
z
M 1959 2075 
Q 2384 2075 2632 2365 
Q 2881 2656 2881 3163 
Q 2881 3666 2632 3958 
Q 2384 4250 1959 4250 
Q 1534 4250 1286 3958 
Q 1038 3666 1038 3163 
Q 1038 2656 1286 2365 
Q 1534 2075 1959 2075 
z
" transform="scale(0.015625)"/>
       </defs>
       <use xlink:href="#DejaVuSans-2212" transform="translate(0 0.78125)"/>
       <use xlink:href="#DejaVuSans-37" transform="translate(83.789062 0.78125)"/>
       <use xlink:href="#DejaVuSans-33" transform="translate(147.412109 0.78125)"/>
       <use xlink:href="#DejaVuSans-39" transform="translate(211.035156 0.78125)"/>
       <use xlink:href="#DejaVuSans-30" transform="translate(274.658203 0.78125)"/>
       <use xlink:href="#DejaVuSans-30" transform="translate(338.28125 0.78125)"/>
      </g>
     </g>
    </g>
    <g id="ytick_9">
     <g id="line2d_12">
      <g>
       <use xlink:href="#m46926343dd" x="234.036" y="99.84" style="stroke: #000000; stroke-width: 0.8"/>
      </g>
     </g>
     <g id="text_17">
      <!-- $\mathdefault{73600}$ -->
      <g transform="translate(241.036 103.639219) scale(0.1 -0.1)">
       <defs>
        <path id="DejaVuSans-36" d="M 2113 2584 
Q 1688 2584 1439 2293 
Q 1191 2003 1191 1497 
Q 1191 994 1439 701 
Q 1688 409 2113 409 
Q 2538 409 2786 701 
Q 3034 994 3034 1497 
Q 3034 2003 2786 2293 
Q 2538 2584 2113 2584 
z
M 3366 4563 
L 3366 3988 
Q 3128 4100 2886 4159 
Q 2644 4219 2406 4219 
Q 1781 4219 1451 3797 
Q 1122 3375 1075 2522 
Q 1259 2794 1537 2939 
Q 1816 3084 2150 3084 
Q 2853 3084 3261 2657 
Q 3669 2231 3669 1497 
Q 3669 778 3244 343 
Q 2819 -91 2113 -91 
Q 1303 -91 875 529 
Q 447 1150 447 2328 
Q 447 3434 972 4092 
Q 1497 4750 2381 4750 
Q 2619 4750 2861 4703 
Q 3103 4656 3366 4563 
z
" transform="scale(0.015625)"/>
       </defs>
       <use xlink:href="#DejaVuSans-2212" transform="translate(0 0.78125)"/>
       <use xlink:href="#DejaVuSans-37" transform="translate(83.789062 0.78125)"/>
       <use xlink:href="#DejaVuSans-33" transform="translate(147.412109 0.78125)"/>
       <use xlink:href="#DejaVuSans-36" transform="translate(211.035156 0.78125)"/>
       <use xlink:href="#DejaVuSans-30" transform="translate(274.658203 0.78125)"/>
       <use xlink:href="#DejaVuSans-30" transform="translate(338.28125 0.78125)"/>
      </g>
     </g>
    </g>
    <g id="ytick_10">
     <g id="line2d_13">
      <g>
       <use xlink:href="#m46926343dd" x="234.036" y="81.36" style="stroke: #000000; stroke-width: 0.8"/>
      </g>
     </g>
     <g id="text_18">
      <!-- $\mathdefault{73300}$ -->
      <g transform="translate(241.036 85.159219) scale(0.1 -0.1)">
       <use xlink:href="#DejaVuSans-2212" transform="translate(0 0.78125)"/>
       <use xlink:href="#DejaVuSans-37" transform="translate(83.789062 0.78125)"/>
       <use xlink:href="#DejaVuSans-33" transform="translate(147.412109 0.78125)"/>
       <use xlink:href="#DejaVuSans-33" transform="translate(211.035156 0.78125)"/>
       <use xlink:href="#DejaVuSans-30" transform="translate(274.658203 0.78125)"/>
       <use xlink:href="#DejaVuSans-30" transform="translate(338.28125 0.78125)"/>
      </g>
     </g>
    </g>
    <g id="ytick_11">
     <g id="line2d_14">
      <g>
       <use xlink:href="#m46926343dd" x="234.036" y="62.88" style="stroke: #000000; stroke-width: 0.8"/>
      </g>
     </g>
     <g id="text_19">
      <!-- $\mathdefault{73000}$ -->
      <g transform="translate(241.036 66.679219) scale(0.1 -0.1)">
       <use xlink:href="#DejaVuSans-2212" transform="translate(0 0.78125)"/>
       <use xlink:href="#DejaVuSans-37" transform="translate(83.789062 0.78125)"/>
       <use xlink:href="#DejaVuSans-33" transform="translate(147.412109 0.78125)"/>
       <use xlink:href="#DejaVuSans-30" transform="translate(211.035156 0.78125)"/>
       <use xlink:href="#DejaVuSans-30" transform="translate(274.658203 0.78125)"/>
       <use xlink:href="#DejaVuSans-30" transform="translate(338.28125 0.78125)"/>
      </g>
     </g>
    </g>
    <g id="ytick_12">
     <g id="line2d_15">
      <g>
       <use xlink:href="#m46926343dd" x="234.036" y="44.4" style="stroke: #000000; stroke-width: 0.8"/>
      </g>
     </g>
     <g id="text_20">
      <!-- $\mathdefault{72700}$ -->
      <g transform="translate(241.036 48.199219) scale(0.1 -0.1)">
       <use xlink:href="#DejaVuSans-2212" transform="translate(0 0.78125)"/>
       <use xlink:href="#DejaVuSans-37" transform="translate(83.789062 0.78125)"/>
       <use xlink:href="#DejaVuSans-32" transform="translate(147.412109 0.78125)"/>
       <use xlink:href="#DejaVuSans-37" transform="translate(211.035156 0.78125)"/>
       <use xlink:href="#DejaVuSans-30" transform="translate(274.658203 0.78125)"/>
       <use xlink:href="#DejaVuSans-30" transform="translate(338.28125 0.78125)"/>
      </g>
     </g>
    </g>
    <g id="ytick_13">
     <g id="line2d_16">
      <g>
       <use xlink:href="#m46926343dd" x="234.036" y="25.92" style="stroke: #000000; stroke-width: 0.8"/>
      </g>
     </g>
     <g id="text_21">
      <!-- $\mathdefault{72400}$ -->
      <g transform="translate(241.036 29.719219) scale(0.1 -0.1)">
       <use xlink:href="#DejaVuSans-2212" transform="translate(0 0.78125)"/>
       <use xlink:href="#DejaVuSans-37" transform="translate(83.789062 0.78125)"/>
       <use xlink:href="#DejaVuSans-32" transform="translate(147.412109 0.78125)"/>
       <use xlink:href="#DejaVuSans-34" transform="translate(211.035156 0.78125)"/>
       <use xlink:href="#DejaVuSans-30" transform="translate(274.658203 0.78125)"/>
       <use xlink:href="#DejaVuSans-30" transform="translate(338.28125 0.78125)"/>
      </g>
     </g>
    </g>
    <g id="text_22">
     <!-- log likelihood -->
     <g transform="translate(294.354125 148.704375) rotate(-90) scale(0.12 -0.12)">
      <defs>
       <path id="DejaVuSans-67" d="M 2906 1791 
Q 2906 2416 2648 2759 
Q 2391 3103 1925 3103 
Q 1463 3103 1205 2759 
Q 947 2416 947 1791 
Q 947 1169 1205 825 
Q 1463 481 1925 481 
Q 2391 481 2648 825 
Q 2906 1169 2906 1791 
z
M 3481 434 
Q 3481 -459 3084 -895 
Q 2688 -1331 1869 -1331 
Q 1566 -1331 1297 -1286 
Q 1028 -1241 775 -1147 
L 775 -588 
Q 1028 -725 1275 -790 
Q 1522 -856 1778 -856 
Q 2344 -856 2625 -561 
Q 2906 -266 2906 331 
L 2906 616 
Q 2728 306 2450 153 
Q 2172 0 1784 0 
Q 1141 0 747 490 
Q 353 981 353 1791 
Q 353 2603 747 3093 
Q 1141 3584 1784 3584 
Q 2172 3584 2450 3431 
Q 2728 3278 2906 2969 
L 2906 3500 
L 3481 3500 
L 3481 434 
z
" transform="scale(0.015625)"/>
       <path id="DejaVuSans-6b" d="M 581 4863 
L 1159 4863 
L 1159 1991 
L 2875 3500 
L 3609 3500 
L 1753 1863 
L 3688 0 
L 2938 0 
L 1159 1709 
L 1159 0 
L 581 0 
L 581 4863 
z
" transform="scale(0.015625)"/>
       <path id="DejaVuSans-68" d="M 3513 2113 
L 3513 0 
L 2938 0 
L 2938 2094 
Q 2938 2591 2744 2837 
Q 2550 3084 2163 3084 
Q 1697 3084 1428 2787 
Q 1159 2491 1159 1978 
L 1159 0 
L 581 0 
L 581 4863 
L 1159 4863 
L 1159 2956 
Q 1366 3272 1645 3428 
Q 1925 3584 2291 3584 
Q 2894 3584 3203 3211 
Q 3513 2838 3513 2113 
z
" transform="scale(0.015625)"/>
      </defs>
      <use xlink:href="#DejaVuSans-6c"/>
      <use xlink:href="#DejaVuSans-6f" x="27.783203"/>
      <use xlink:href="#DejaVuSans-67" x="88.964844"/>
      <use xlink:href="#DejaVuSans-20" x="152.441406"/>
      <use xlink:href="#DejaVuSans-6c" x="184.228516"/>
      <use xlink:href="#DejaVuSans-69" x="212.011719"/>
      <use xlink:href="#DejaVuSans-6b" x="239.794922"/>
      <use xlink:href="#DejaVuSans-65" x="294.080078"/>
      <use xlink:href="#DejaVuSans-6c" x="355.603516"/>
      <use xlink:href="#DejaVuSans-69" x="383.386719"/>
      <use xlink:href="#DejaVuSans-68" x="411.169922"/>
      <use xlink:href="#DejaVuSans-6f" x="474.548828"/>
      <use xlink:href="#DejaVuSans-6f" x="535.730469"/>
      <use xlink:href="#DejaVuSans-64" x="596.912109"/>
     </g>
    </g>
    <g id="text_23">
     <!-- $\times\mathdefault{10^{3}}\mathdefault{}$ -->
     <g transform="translate(208.036 22.92) scale(0.1 -0.1)">
      <use xlink:href="#DejaVuSans-d7" transform="translate(0 0.765625)"/>
      <use xlink:href="#DejaVuSans-31" transform="translate(83.789062 0.765625)"/>
      <use xlink:href="#DejaVuSans-30" transform="translate(147.412109 0.765625)"/>
      <use xlink:href="#DejaVuSans-33" transform="translate(211.992188 39.046875) scale(0.7)"/>
     </g>
    </g>
   </g>
   <g id="LineCollection_1"/>
   <g id="patch_8">
    <path d="M 225.72 192.24 
L 229.878 192.24 
L 234.036 192.24 
L 234.036 25.92 
L 229.878 25.92 
L 225.72 25.92 
L 225.72 192.24 
z
" style="fill: none; stroke: #000000; stroke-width: 0.8; stroke-linejoin: miter; stroke-linecap: square"/>
   </g>
  </g>
 </g>
 <defs>
  <clipPath id="p73b85b3185">
   <rect x="36" y="25.92" width="178.56" height="166.32"/>
  </clipPath>
  <clipPath id="p91804cb88c">
   <rect x="225.72" y="25.92" width="8.316" height="166.32"/>
  </clipPath>
 </defs>
</svg>
