<?xml version="1.0" encoding="utf-8" standalone="no"?>
<!DOCTYPE svg PUBLIC "-//W3C//DTD SVG 1.1//EN"
  "http://www.w3.org/Graphics/SVG/1.1/DTD/svg11.dtd">
<svg xmlns:xlink="http://www.w3.org/1999/xlink" width="288pt" height="216pt" viewBox="0 0 288 216" xmlns="http://www.w3.org/2000/svg" version="1.1">
 <metadata>
  <rdf:RDF xmlns:dc="http://purl.org/dc/elements/1.1/" xmlns:cc="http://creativecommons.org/ns#" xmlns:rdf="http://www.w3.org/1999/02/22-rdf-syntax-ns#">
   <cc:Work>
    <dc:type rdf:resource="http://purl.org/dc/dcmitype/StillImage"/>
    <dc:date>2023-07-18T17:53:39.517432</dc:date>
    <dc:format>image/svg+xml</dc:format>
    <dc:creator>
     <cc:Agent>
      <dc:title>Matplotlib v3.7.1, https://matplotlib.org/</dc:title>
     </cc:Agent>
    </dc:creator>
   </cc:Work>
  </rdf:RDF>
 </metadata>
 <defs>
  <style type="text/css">*{stroke-linejoin: round; stroke-linecap: butt}</style>
 </defs>
 <g id="figure_1">
  <g id="patch_1">
   <path d="M 0 216 
L 288 216 
L 288 0 
L 0 0 
z
" style="fill: #ffffff"/>
  </g>
  <g id="axes_1">
   <g id="patch_2">
    <path d="M 36 192.24 
L 214.56 192.24 
L 214.56 25.92 
L 36 25.92 
z
" style="fill: #ffffff"/>
   </g>
   <g id="PathCollection_1">
    <path d="M 36.232885 192.24 
L 36 192.24 
L 36 192.122555 
z
" clip-path="url(#p118dd17941)" style="fill: #440154"/>
   </g>
   <g id="PathCollection_2">
    <path d="M 37.556708 192.24 
L 36.232885 192.24 
L 36 192.122555 
L 36 191.454945 
z
" clip-path="url(#p118dd17941)" style="fill: #440154"/>
   </g>
   <g id="PathCollection_3">
    <path d="M 38.880531 192.24 
L 37.556708 192.24 
L 36 191.454945 
L 36 190.787334 
z
" clip-path="url(#p118dd17941)" style="fill: #440154"/>
   </g>
   <g id="PathCollection_4">
    <path d="M 40.204354 192.24 
L 38.880531 192.24 
L 36 190.787334 
L 36 190.119724 
z
" clip-path="url(#p118dd17941)" style="fill: #440154"/>
   </g>
   <g id="PathCollection_5">
    <path d="M 41.528177 192.24 
L 40.204354 192.24 
L 36 190.119724 
L 36 189.452113 
z
" clip-path="url(#p118dd17941)" style="fill: #440154"/>
   </g>
   <g id="PathCollection_6">
    <path d="M 41.952 191.786126 
L 44.179864 192.24 
L 41.952 192.24 
L 41.528177 192.24 
L 36 189.452113 
L 36 188.784503 
z
" clip-path="url(#p118dd17941)" style="fill: #440154"/>
   </g>
   <g id="PathCollection_7">
    <path d="M 41.952 191.118515 
L 47.456862 192.24 
L 44.179864 192.24 
L 41.952 191.786126 
L 36 188.784503 
L 36 188.116892 
z
" clip-path="url(#p118dd17941)" style="fill: #440154"/>
   </g>
   <g id="PathCollection_8">
    <path d="M 41.952 190.450905 
L 47.904 191.663483 
L 53.555377 192.24 
L 47.904 192.24 
L 47.456862 192.24 
L 41.952 191.118515 
L 36 188.116892 
L 36 187.449282 
z
" clip-path="url(#p118dd17941)" style="fill: #440154"/>
   </g>
   <g id="PathCollection_9">
    <path d="M 41.952 189.783294 
L 47.904 190.995873 
L 53.856 191.603057 
L 59.808 191.94075 
L 65.76 192.138598 
L 70.883738 192.24 
L 65.76 192.24 
L 59.808 192.24 
L 53.856 192.24 
L 53.555377 192.24 
L 47.904 191.663483 
L 41.952 190.450905 
L 36 187.449282 
L 36 186.781672 
z
" clip-path="url(#p118dd17941)" style="fill: #440154"/>
    <path d="M 137.184 192.225613 
L 143.136 192.194616 
L 149.088 192.163055 
L 155.04 192.131171 
L 160.992 192.099151 
L 166.944 192.067136 
L 172.896 192.035236 
L 178.848 192.003533 
L 184.8 191.972092 
L 190.752 191.940959 
L 196.704 191.910173 
L 202.656 191.879759 
L 208.608 191.849736 
L 214.56 191.820118 
L 214.56 192.24 
L 208.608 192.24 
L 202.656 192.24 
L 196.704 192.24 
L 190.752 192.24 
L 184.8 192.24 
L 178.848 192.24 
L 172.896 192.24 
L 166.944 192.24 
L 160.992 192.24 
L 155.04 192.24 
L 149.088 192.24 
L 143.136 192.24 
L 137.184 192.24 
L 134.340124 192.24 
z
" clip-path="url(#p118dd17941)" style="fill: #440154"/>
   </g>
   <g id="PathCollection_10">
    <path d="M 36 186.696 
L 36 185.310988 
L 37.153942 186.696 
L 41.952 189.115684 
L 47.904 190.328262 
L 53.856 190.935447 
L 59.808 191.273139 
L 65.76 191.470988 
L 71.712 191.588781 
L 77.664 191.657534 
L 83.616 191.694737 
L 89.568 191.710894 
L 95.52 191.712627 
L 101.472 191.704274 
L 107.424 191.688769 
L 113.376 191.668147 
L 119.328 191.64385 
L 125.28 191.616918 
L 131.232 191.588114 
L 137.184 191.558002 
L 143.136 191.527006 
L 149.088 191.495444 
L 155.04 191.463561 
L 160.992 191.431541 
L 166.944 191.399526 
L 172.896 191.367625 
L 178.848 191.335923 
L 184.8 191.304481 
L 190.752 191.273349 
L 196.704 191.242563 
L 202.656 191.212148 
L 208.608 191.182126 
L 214.56 191.152508 
L 214.56 191.820118 
L 208.608 191.849736 
L 202.656 191.879759 
L 196.704 191.910173 
L 190.752 191.940959 
L 184.8 191.972092 
L 178.848 192.003533 
L 172.896 192.035236 
L 166.944 192.067136 
L 160.992 192.099151 
L 155.04 192.131171 
L 149.088 192.163055 
L 143.136 192.194616 
L 137.184 192.225613 
L 134.340124 192.24 
L 131.232 192.24 
L 125.28 192.24 
L 119.328 192.24 
L 113.376 192.24 
L 107.424 192.24 
L 101.472 192.24 
L 95.52 192.24 
L 89.568 192.24 
L 83.616 192.24 
L 77.664 192.24 
L 71.712 192.24 
L 70.883738 192.24 
L 65.76 192.138598 
L 59.808 191.94075 
L 53.856 191.603057 
L 47.904 190.995873 
L 41.952 189.783294 
L 36 186.781672 
z
" clip-path="url(#p118dd17941)" style="fill: #440154"/>
   </g>
   <g id="PathCollection_11">
    <path d="M 37.153942 186.696 
L 36 185.310988 
L 36 183.722078 
L 38.477765 186.696 
L 41.952 188.448074 
L 47.904 189.660652 
L 53.856 190.267836 
L 59.808 190.605529 
L 65.76 190.803377 
L 71.712 190.921171 
L 77.664 190.989924 
L 83.616 191.027126 
L 89.568 191.043284 
L 95.52 191.045016 
L 101.472 191.036663 
L 107.424 191.021158 
L 113.376 191.000536 
L 119.328 190.976239 
L 125.28 190.949308 
L 131.232 190.920503 
L 137.184 190.890392 
L 143.136 190.859395 
L 149.088 190.827834 
L 155.04 190.79595 
L 160.992 190.76393 
L 166.944 190.731915 
L 172.896 190.700015 
L 178.848 190.668312 
L 184.8 190.636871 
L 190.752 190.605739 
L 196.704 190.574952 
L 202.656 190.544538 
L 208.608 190.514515 
L 214.56 190.484897 
L 214.56 191.152508 
L 208.608 191.182126 
L 202.656 191.212148 
L 196.704 191.242563 
L 190.752 191.273349 
L 184.8 191.304481 
L 178.848 191.335923 
L 172.896 191.367625 
L 166.944 191.399526 
L 160.992 191.431541 
L 155.04 191.463561 
L 149.088 191.495444 
L 143.136 191.527006 
L 137.184 191.558002 
L 131.232 191.588114 
L 125.28 191.616918 
L 119.328 191.64385 
L 113.376 191.668147 
L 107.424 191.688769 
L 101.472 191.704274 
L 95.52 191.712627 
L 89.568 191.710894 
L 83.616 191.694737 
L 77.664 191.657534 
L 71.712 191.588781 
L 65.76 191.470988 
L 59.808 191.273139 
L 53.856 190.935447 
L 47.904 190.328262 
L 41.952 189.115684 
z
" clip-path="url(#p118dd17941)" style="fill: #440154"/>
   </g>
   <g id="PathCollection_12">
    <path d="M 38.477765 186.696 
L 36 183.722078 
L 36 182.133168 
L 39.801588 186.696 
L 41.952 187.780463 
L 47.904 188.993042 
L 53.856 189.600226 
L 59.808 189.937918 
L 65.76 190.135767 
L 71.712 190.253561 
L 77.664 190.322313 
L 83.616 190.359516 
L 89.568 190.375673 
L 95.52 190.377406 
L 101.472 190.369053 
L 107.424 190.353548 
L 113.376 190.332926 
L 119.328 190.308629 
L 125.28 190.281697 
L 131.232 190.252893 
L 137.184 190.222781 
L 143.136 190.191785 
L 149.088 190.160224 
L 155.04 190.12834 
L 160.992 190.09632 
L 166.944 190.064305 
L 172.896 190.032405 
L 178.848 190.000702 
L 184.8 189.96926 
L 190.752 189.938128 
L 196.704 189.907342 
L 202.656 189.876928 
L 208.608 189.846905 
L 214.56 189.817287 
L 214.56 190.484897 
L 208.608 190.514515 
L 202.656 190.544538 
L 196.704 190.574952 
L 190.752 190.605739 
L 184.8 190.636871 
L 178.848 190.668312 
L 172.896 190.700015 
L 166.944 190.731915 
L 160.992 190.76393 
L 155.04 190.79595 
L 149.088 190.827834 
L 143.136 190.859395 
L 137.184 190.890392 
L 131.232 190.920503 
L 125.28 190.949308 
L 119.328 190.976239 
L 113.376 191.000536 
L 107.424 191.021158 
L 101.472 191.036663 
L 95.52 191.045016 
L 89.568 191.043284 
L 83.616 191.027126 
L 77.664 190.989924 
L 71.712 190.921171 
L 65.76 190.803377 
L 59.808 190.605529 
L 53.856 190.267836 
L 47.904 189.660652 
L 41.952 188.448074 
z
" clip-path="url(#p118dd17941)" style="fill: #440154"/>
   </g>
   <g id="PathCollection_13">
    <path d="M 39.801588 186.696 
L 36 182.133168 
L 36 181.152 
L 36 179.994899 
L 36.506349 181.152 
L 41.125411 186.696 
L 41.952 187.112853 
L 47.904 188.325431 
L 53.856 188.932615 
L 59.808 189.270308 
L 65.76 189.468156 
L 71.712 189.58595 
L 77.664 189.654703 
L 83.616 189.691906 
L 89.568 189.708063 
L 95.52 189.709795 
L 101.472 189.701443 
L 107.424 189.685938 
L 113.376 189.665315 
L 119.328 189.641018 
L 125.28 189.614087 
L 131.232 189.585283 
L 137.184 189.555171 
L 143.136 189.524174 
L 149.088 189.492613 
L 155.04 189.46073 
L 160.992 189.428709 
L 166.944 189.396695 
L 172.896 189.364794 
L 178.848 189.333091 
L 184.8 189.30165 
L 190.752 189.270518 
L 196.704 189.239731 
L 202.656 189.209317 
L 208.608 189.179294 
L 214.56 189.149676 
L 214.56 189.817287 
L 208.608 189.846905 
L 202.656 189.876928 
L 196.704 189.907342 
L 190.752 189.938128 
L 184.8 189.96926 
L 178.848 190.000702 
L 172.896 190.032405 
L 166.944 190.064305 
L 160.992 190.09632 
L 155.04 190.12834 
L 149.088 190.160224 
L 143.136 190.191785 
L 137.184 190.222781 
L 131.232 190.252893 
L 125.28 190.281697 
L 119.328 190.308629 
L 113.376 190.332926 
L 107.424 190.353548 
L 101.472 190.369053 
L 95.52 190.377406 
L 89.568 190.375673 
L 83.616 190.359516 
L 77.664 190.322313 
L 71.712 190.253561 
L 65.76 190.135767 
L 59.808 189.937918 
L 53.856 189.600226 
L 47.904 188.993042 
L 41.952 187.780463 
z
" clip-path="url(#p118dd17941)" style="fill: #440154"/>
   </g>
   <g id="PathCollection_14">
    <path d="M 41.125411 186.696 
L 36.506349 181.152 
L 36 179.994899 
L 36 176.969716 
L 37.830172 181.152 
L 41.952 186.099198 
L 43.182856 186.696 
L 47.904 187.657821 
L 53.856 188.265005 
L 59.808 188.602698 
L 65.76 188.800546 
L 71.712 188.91834 
L 77.664 188.987092 
L 83.616 189.024295 
L 89.568 189.040452 
L 95.52 189.042185 
L 101.472 189.033832 
L 107.424 189.018327 
L 113.376 188.997705 
L 119.328 188.973408 
L 125.28 188.946476 
L 131.232 188.917672 
L 137.184 188.88756 
L 143.136 188.856564 
L 149.088 188.825003 
L 155.04 188.793119 
L 160.992 188.761099 
L 166.944 188.729084 
L 172.896 188.697184 
L 178.848 188.665481 
L 184.8 188.634039 
L 190.752 188.602907 
L 196.704 188.572121 
L 202.656 188.541707 
L 208.608 188.511684 
L 214.56 188.482066 
L 214.56 189.149676 
L 208.608 189.179294 
L 202.656 189.209317 
L 196.704 189.239731 
L 190.752 189.270518 
L 184.8 189.30165 
L 178.848 189.333091 
L 172.896 189.364794 
L 166.944 189.396695 
L 160.992 189.428709 
L 155.04 189.46073 
L 149.088 189.492613 
L 143.136 189.524174 
L 137.184 189.555171 
L 131.232 189.585283 
L 125.28 189.614087 
L 119.328 189.641018 
L 113.376 189.665315 
L 107.424 189.685938 
L 101.472 189.701443 
L 95.52 189.709795 
L 89.568 189.708063 
L 83.616 189.691906 
L 77.664 189.654703 
L 71.712 189.58595 
L 65.76 189.468156 
L 59.808 189.270308 
L 53.856 188.932615 
L 47.904 188.325431 
L 41.952 187.112853 
z
" clip-path="url(#p118dd17941)" style="fill: #450457"/>
   </g>
   <g id="PathCollection_15">
    <path d="M 37.830172 181.152 
L 36 176.969716 
L 36 175.608 
L 36 172.790576 
L 36.727935 175.608 
L 39.153995 181.152 
L 41.952 184.510288 
L 46.459854 186.696 
L 47.904 186.99021 
L 53.856 187.597395 
L 59.808 187.935087 
L 65.76 188.132935 
L 71.712 188.250729 
L 77.664 188.319482 
L 83.616 188.356685 
L 89.568 188.372842 
L 95.52 188.374575 
L 101.472 188.366222 
L 107.424 188.350717 
L 113.376 188.330095 
L 119.328 188.305798 
L 125.28 188.278866 
L 131.232 188.250062 
L 137.184 188.21995 
L 143.136 188.188954 
L 149.088 188.157392 
L 155.04 188.125509 
L 160.992 188.093489 
L 166.944 188.061474 
L 172.896 188.029573 
L 178.848 187.997871 
L 184.8 187.966429 
L 190.752 187.935297 
L 196.704 187.904511 
L 202.656 187.874096 
L 208.608 187.844074 
L 214.56 187.814455 
L 214.56 188.482066 
L 208.608 188.511684 
L 202.656 188.541707 
L 196.704 188.572121 
L 190.752 188.602907 
L 184.8 188.634039 
L 178.848 188.665481 
L 172.896 188.697184 
L 166.944 188.729084 
L 160.992 188.761099 
L 155.04 188.793119 
L 149.088 188.825003 
L 143.136 188.856564 
L 137.184 188.88756 
L 131.232 188.917672 
L 125.28 188.946476 
L 119.328 188.973408 
L 113.376 188.997705 
L 107.424 189.018327 
L 101.472 189.033832 
L 95.52 189.042185 
L 89.568 189.040452 
L 83.616 189.024295 
L 77.664 188.987092 
L 71.712 188.91834 
L 65.76 188.800546 
L 59.808 188.602698 
L 53.856 188.265005 
L 47.904 187.657821 
L 43.182856 186.696 
L 41.952 186.099198 
z
" clip-path="url(#p118dd17941)" style="fill: #482071"/>
   </g>
   <g id="PathCollection_16">
    <path d="M 39.153995 181.152 
L 36.727935 175.608 
L 36 172.790576 
L 36 170.064 
L 36 166.277084 
L 36.619361 170.064 
L 38.051758 175.608 
L 40.477818 181.152 
L 41.952 182.921378 
L 47.904 185.807309 
L 51.564301 186.696 
L 53.856 186.929784 
L 59.808 187.267477 
L 65.76 187.465325 
L 71.712 187.583119 
L 77.664 187.651871 
L 83.616 187.689074 
L 89.568 187.705231 
L 95.52 187.706964 
L 101.472 187.698611 
L 107.424 187.683106 
L 113.376 187.662484 
L 119.328 187.638187 
L 125.28 187.611256 
L 131.232 187.582451 
L 137.184 187.55234 
L 143.136 187.521343 
L 149.088 187.489782 
L 155.04 187.457898 
L 160.992 187.425878 
L 166.944 187.393863 
L 172.896 187.361963 
L 178.848 187.33026 
L 184.8 187.298819 
L 190.752 187.267687 
L 196.704 187.2369 
L 202.656 187.206486 
L 208.608 187.176463 
L 214.56 187.146845 
L 214.56 187.814455 
L 208.608 187.844074 
L 202.656 187.874096 
L 196.704 187.904511 
L 190.752 187.935297 
L 184.8 187.966429 
L 178.848 187.997871 
L 172.896 188.029573 
L 166.944 188.061474 
L 160.992 188.093489 
L 155.04 188.125509 
L 149.088 188.157392 
L 143.136 188.188954 
L 137.184 188.21995 
L 131.232 188.250062 
L 125.28 188.278866 
L 119.328 188.305798 
L 113.376 188.330095 
L 107.424 188.350717 
L 101.472 188.366222 
L 95.52 188.374575 
L 89.568 188.372842 
L 83.616 188.356685 
L 77.664 188.319482 
L 71.712 188.250729 
L 65.76 188.132935 
L 59.808 187.935087 
L 53.856 187.597395 
L 47.904 186.99021 
L 46.459854 186.696 
L 41.952 184.510288 
z
" clip-path="url(#p118dd17941)" style="fill: #443983"/>
   </g>
   <g id="PathCollection_17">
    <path d="M 40.477818 181.152 
L 38.051758 175.608 
L 36.619361 170.064 
L 36 166.277084 
L 36 164.52 
L 36 158.976 
L 36 153.432 
L 36 152.828517 
L 36.030412 153.432 
L 36.43706 158.976 
L 37.036447 164.52 
L 37.943184 170.064 
L 39.375581 175.608 
L 41.80164 181.152 
L 41.952 181.332468 
L 47.904 184.218399 
L 53.856 185.663496 
L 59.808 186.467202 
L 62.700051 186.696 
L 65.76 186.797715 
L 71.712 186.915508 
L 77.664 186.984261 
L 83.616 187.021464 
L 89.568 187.037621 
L 95.52 187.039354 
L 101.472 187.031001 
L 107.424 187.015496 
L 113.376 186.994874 
L 119.328 186.970577 
L 125.28 186.943645 
L 131.232 186.914841 
L 137.184 186.884729 
L 143.136 186.853733 
L 149.088 186.822171 
L 155.04 186.790288 
L 160.992 186.758268 
L 166.944 186.726253 
L 172.588607 186.696 
L 172.896 186.692079 
L 178.848 186.616626 
L 184.8 186.541796 
L 190.752 186.467702 
L 196.704 186.39443 
L 202.656 186.322044 
L 208.608 186.25059 
L 214.56 186.180099 
L 214.56 186.696 
L 214.56 187.146845 
L 208.608 187.176463 
L 202.656 187.206486 
L 196.704 187.2369 
L 190.752 187.267687 
L 184.8 187.298819 
L 178.848 187.33026 
L 172.896 187.361963 
L 166.944 187.393863 
L 160.992 187.425878 
L 155.04 187.457898 
L 149.088 187.489782 
L 143.136 187.521343 
L 137.184 187.55234 
L 131.232 187.582451 
L 125.28 187.611256 
L 119.328 187.638187 
L 113.376 187.662484 
L 107.424 187.683106 
L 101.472 187.698611 
L 95.52 187.706964 
L 89.568 187.705231 
L 83.616 187.689074 
L 77.664 187.651871 
L 71.712 187.583119 
L 65.76 187.465325 
L 59.808 187.267477 
L 53.856 186.929784 
L 51.564301 186.696 
L 47.904 185.807309 
L 41.952 182.921378 
z
" clip-path="url(#p118dd17941)" style="fill: #3b518b"/>
   </g>
   <g id="PathCollection_18">
    <path d="M 41.80164 181.152 
L 39.375581 175.608 
L 37.943184 170.064 
L 37.036447 164.52 
L 36.43706 158.976 
L 36.030412 153.432 
L 36 152.828517 
L 36 147.888 
L 36 142.344 
L 36 136.8 
L 36 131.256 
L 36 125.712 
L 36 120.168 
L 36 114.624 
L 36 109.08 
L 36 103.536 
L 36 97.992 
L 36 92.448 
L 36 86.904 
L 36 81.36 
L 36 75.816 
L 36 70.272 
L 36 64.728 
L 36 59.184 
L 36 53.64 
L 36 48.096 
L 36 42.552 
L 36 37.008 
L 36 31.464 
L 36 25.92 
L 37.300308 25.92 
L 37.242682 31.464 
L 37.185134 37.008 
L 37.127812 42.552 
L 37.070893 48.096 
L 37.014594 53.64 
L 36.959176 59.184 
L 36.904961 64.728 
L 36.852343 70.272 
L 36.801805 75.816 
L 36.753946 81.36 
L 36.70951 86.904 
L 36.66943 92.448 
L 36.63488 97.992 
L 36.607358 103.536 
L 36.588786 109.08 
L 36.581658 114.624 
L 36.589261 120.168 
L 36.615978 125.712 
L 36.66776 131.256 
L 36.752842 136.8 
L 36.882885 142.344 
L 37.074853 147.888 
L 37.354235 153.432 
L 37.760883 158.976 
L 38.36027 164.52 
L 39.267007 170.064 
L 40.699404 175.608 
L 41.952 178.470416 
L 44.856797 181.152 
L 47.904 182.629489 
L 53.856 184.074586 
L 59.808 184.878293 
L 65.76 185.34917 
L 71.712 185.629519 
L 77.664 185.79315 
L 83.616 185.881693 
L 89.568 185.920147 
L 95.52 185.92427 
L 101.472 185.904391 
L 107.424 185.867489 
L 113.376 185.818408 
L 119.328 185.760581 
L 125.28 185.696484 
L 131.232 185.627931 
L 137.184 185.556265 
L 143.136 185.482493 
L 149.088 185.407377 
L 155.04 185.331495 
L 160.992 185.255287 
L 166.944 185.179092 
L 172.896 185.103169 
L 178.848 185.027716 
L 184.8 184.952886 
L 190.752 184.878792 
L 196.704 184.80552 
L 202.656 184.733134 
L 208.608 184.66168 
L 214.56 184.591189 
L 214.56 186.180099 
L 208.608 186.25059 
L 202.656 186.322044 
L 196.704 186.39443 
L 190.752 186.467702 
L 184.8 186.541796 
L 178.848 186.616626 
L 172.896 186.692079 
L 172.588607 186.696 
L 166.944 186.726253 
L 160.992 186.758268 
L 155.04 186.790288 
L 149.088 186.822171 
L 143.136 186.853733 
L 137.184 186.884729 
L 131.232 186.914841 
L 125.28 186.943645 
L 119.328 186.970577 
L 113.376 186.994874 
L 107.424 187.015496 
L 101.472 187.031001 
L 95.52 187.039354 
L 89.568 187.037621 
L 83.616 187.021464 
L 77.664 186.984261 
L 71.712 186.915508 
L 65.76 186.797715 
L 62.700051 186.696 
L 59.808 186.467202 
L 53.856 185.663496 
L 47.904 184.218399 
L 41.952 181.332468 
z
" clip-path="url(#p118dd17941)" style="fill: #31668e"/>
   </g>
   <g id="PathCollection_19">
    <path d="M 40.699404 175.608 
L 39.267007 170.064 
L 38.36027 164.52 
L 37.760883 158.976 
L 37.354235 153.432 
L 37.074853 147.888 
L 36.882885 142.344 
L 36.752842 136.8 
L 36.66776 131.256 
L 36.615978 125.712 
L 36.589261 120.168 
L 36.581658 114.624 
L 36.588786 109.08 
L 36.607358 103.536 
L 36.63488 97.992 
L 36.66943 92.448 
L 36.70951 86.904 
L 36.753946 81.36 
L 36.801805 75.816 
L 36.852343 70.272 
L 36.904961 64.728 
L 36.959176 59.184 
L 37.014594 53.64 
L 37.070893 48.096 
L 37.127812 42.552 
L 37.185134 37.008 
L 37.242682 31.464 
L 37.300308 25.92 
L 38.624131 25.92 
L 38.566505 31.464 
L 38.508957 37.008 
L 38.451635 42.552 
L 38.394716 48.096 
L 38.338417 53.64 
L 38.282999 59.184 
L 38.228784 64.728 
L 38.176166 70.272 
L 38.125628 75.816 
L 38.077769 81.36 
L 38.033333 86.904 
L 37.993253 92.448 
L 37.958703 97.992 
L 37.931181 103.536 
L 37.912608 109.08 
L 37.905481 114.624 
L 37.913084 120.168 
L 37.939801 125.712 
L 37.991583 131.256 
L 38.076665 136.8 
L 38.206708 142.344 
L 38.398676 147.888 
L 38.678058 153.432 
L 39.084706 158.976 
L 39.684093 164.52 
L 40.590829 170.064 
L 41.952 175.332321 
L 42.128315 175.608 
L 47.904 180.939863 
L 48.362914 181.152 
L 53.856 182.485676 
L 59.808 183.289383 
L 65.76 183.760261 
L 71.712 184.040609 
L 77.664 184.20424 
L 83.616 184.292783 
L 89.568 184.331237 
L 95.52 184.335361 
L 101.472 184.315481 
L 107.424 184.278579 
L 113.376 184.229498 
L 119.328 184.171671 
L 125.28 184.107574 
L 131.232 184.039021 
L 137.184 183.967355 
L 143.136 183.893584 
L 149.088 183.818468 
L 155.04 183.742585 
L 160.992 183.666377 
L 166.944 183.590182 
L 172.896 183.514259 
L 178.848 183.438807 
L 184.8 183.363976 
L 190.752 183.289882 
L 196.704 183.21661 
L 202.656 183.144225 
L 208.608 183.07277 
L 214.56 183.002279 
L 214.56 184.591189 
L 208.608 184.66168 
L 202.656 184.733134 
L 196.704 184.80552 
L 190.752 184.878792 
L 184.8 184.952886 
L 178.848 185.027716 
L 172.896 185.103169 
L 166.944 185.179092 
L 160.992 185.255287 
L 155.04 185.331495 
L 149.088 185.407377 
L 143.136 185.482493 
L 137.184 185.556265 
L 131.232 185.627931 
L 125.28 185.696484 
L 119.328 185.760581 
L 113.376 185.818408 
L 107.424 185.867489 
L 101.472 185.904391 
L 95.52 185.92427 
L 89.568 185.920147 
L 83.616 185.881693 
L 77.664 185.79315 
L 71.712 185.629519 
L 65.76 185.34917 
L 59.808 184.878293 
L 53.856 184.074586 
L 47.904 182.629489 
L 44.856797 181.152 
L 41.952 178.470416 
z
" clip-path="url(#p118dd17941)" style="fill: #29798e"/>
   </g>
   <g id="PathCollection_20">
    <path d="M 40.590829 170.064 
L 39.684093 164.52 
L 39.084706 158.976 
L 38.678058 153.432 
L 38.398676 147.888 
L 38.206708 142.344 
L 38.076665 136.8 
L 37.991583 131.256 
L 37.939801 125.712 
L 37.913084 120.168 
L 37.905481 114.624 
L 37.912608 109.08 
L 37.931181 103.536 
L 37.958703 97.992 
L 37.993253 92.448 
L 38.033333 86.904 
L 38.077769 81.36 
L 38.125628 75.816 
L 38.176166 70.272 
L 38.228784 64.728 
L 38.282999 59.184 
L 38.338417 53.64 
L 38.394716 48.096 
L 38.451635 42.552 
L 38.508957 37.008 
L 38.566505 31.464 
L 38.624131 25.92 
L 39.947954 25.92 
L 39.890328 31.464 
L 39.83278 37.008 
L 39.775458 42.552 
L 39.718539 48.096 
L 39.66224 53.64 
L 39.606822 59.184 
L 39.552607 64.728 
L 39.499989 70.272 
L 39.449451 75.816 
L 39.401592 81.36 
L 39.357156 86.904 
L 39.317076 92.448 
L 39.282526 97.992 
L 39.255004 103.536 
L 39.236431 109.08 
L 39.229304 114.624 
L 39.236907 120.168 
L 39.263624 125.712 
L 39.315406 131.256 
L 39.400488 136.8 
L 39.530531 142.344 
L 39.722499 147.888 
L 40.001881 153.432 
L 40.408529 158.976 
L 41.007916 164.52 
L 41.914652 170.064 
L 41.952 170.208551 
L 45.405313 175.608 
L 47.904 177.914679 
L 53.856 180.66605 
L 55.746184 181.152 
L 59.808 181.700473 
L 65.76 182.171351 
L 71.712 182.451699 
L 77.664 182.61533 
L 83.616 182.703873 
L 89.568 182.742327 
L 95.52 182.746451 
L 101.472 182.726571 
L 107.424 182.689669 
L 113.376 182.640588 
L 119.328 182.582762 
L 125.28 182.518664 
L 131.232 182.450111 
L 137.184 182.378445 
L 143.136 182.304674 
L 149.088 182.229558 
L 155.04 182.153675 
L 160.992 182.077467 
L 166.944 182.001272 
L 172.896 181.925349 
L 178.848 181.849897 
L 184.8 181.775066 
L 190.752 181.700972 
L 196.704 181.6277 
L 202.656 181.555315 
L 208.608 181.483861 
L 214.56 181.413369 
L 214.56 183.002279 
L 208.608 183.07277 
L 202.656 183.144225 
L 196.704 183.21661 
L 190.752 183.289882 
L 184.8 183.363976 
L 178.848 183.438807 
L 172.896 183.514259 
L 166.944 183.590182 
L 160.992 183.666377 
L 155.04 183.742585 
L 149.088 183.818468 
L 143.136 183.893584 
L 137.184 183.967355 
L 131.232 184.039021 
L 125.28 184.107574 
L 119.328 184.171671 
L 113.376 184.229498 
L 107.424 184.278579 
L 101.472 184.315481 
L 95.52 184.335361 
L 89.568 184.331237 
L 83.616 184.292783 
L 77.664 184.20424 
L 71.712 184.040609 
L 65.76 183.760261 
L 59.808 183.289383 
L 53.856 182.485676 
L 48.362914 181.152 
L 47.904 180.939863 
L 42.128315 175.608 
L 41.952 175.332321 
z
" clip-path="url(#p118dd17941)" style="fill: #228d8d"/>
   </g>
   <g id="PathCollection_21">
    <path d="M 41.914652 170.064 
L 41.007916 164.52 
L 40.408529 158.976 
L 40.001881 153.432 
L 39.722499 147.888 
L 39.530531 142.344 
L 39.400488 136.8 
L 39.315406 131.256 
L 39.263624 125.712 
L 39.236907 120.168 
L 39.229304 114.624 
L 39.236431 109.08 
L 39.255004 103.536 
L 39.282526 97.992 
L 39.317076 92.448 
L 39.357156 86.904 
L 39.401592 81.36 
L 39.449451 75.816 
L 39.499989 70.272 
L 39.552607 64.728 
L 39.606822 59.184 
L 39.66224 53.64 
L 39.718539 48.096 
L 39.775458 42.552 
L 39.83278 37.008 
L 39.890328 31.464 
L 39.947954 25.92 
L 41.271777 25.92 
L 41.214151 31.464 
L 41.156603 37.008 
L 41.099281 42.552 
L 41.042362 48.096 
L 40.986063 53.64 
L 40.930645 59.184 
L 40.87643 64.728 
L 40.823812 70.272 
L 40.773274 75.816 
L 40.725415 81.36 
L 40.680979 86.904 
L 40.640899 92.448 
L 40.606349 97.992 
L 40.578827 103.536 
L 40.560254 109.08 
L 40.553127 114.624 
L 40.56073 120.168 
L 40.587447 125.712 
L 40.639228 131.256 
L 40.724311 136.8 
L 40.854354 142.344 
L 41.046322 147.888 
L 41.325704 153.432 
L 41.732352 158.976 
L 41.952 161.007623 
L 42.892008 164.52 
L 45.136548 170.064 
L 47.904 174.391066 
L 49.458328 175.608 
L 53.856 177.640867 
L 59.808 179.171074 
L 65.76 180.067595 
L 71.712 180.601362 
L 77.664 180.912904 
L 83.616 181.081484 
L 89.348701 181.152 
L 89.568 181.153417 
L 95.52 181.157541 
L 97.178891 181.152 
L 101.472 181.124699 
L 107.424 181.054441 
L 113.376 180.960994 
L 119.328 180.850896 
L 125.28 180.728859 
L 131.232 180.598337 
L 137.184 180.46189 
L 143.136 180.321434 
L 149.088 180.178418 
L 155.04 180.033942 
L 160.992 179.888847 
L 166.944 179.743777 
L 172.896 179.599224 
L 178.848 179.455568 
L 184.8 179.313095 
L 190.752 179.172024 
L 196.704 179.03252 
L 202.656 178.894702 
L 208.608 178.758658 
L 214.56 178.624448 
L 214.56 181.152 
L 214.56 181.413369 
L 208.608 181.483861 
L 202.656 181.555315 
L 196.704 181.6277 
L 190.752 181.700972 
L 184.8 181.775066 
L 178.848 181.849897 
L 172.896 181.925349 
L 166.944 182.001272 
L 160.992 182.077467 
L 155.04 182.153675 
L 149.088 182.229558 
L 143.136 182.304674 
L 137.184 182.378445 
L 131.232 182.450111 
L 125.28 182.518664 
L 119.328 182.582762 
L 113.376 182.640588 
L 107.424 182.689669 
L 101.472 182.726571 
L 95.52 182.746451 
L 89.568 182.742327 
L 83.616 182.703873 
L 77.664 182.61533 
L 71.712 182.451699 
L 65.76 182.171351 
L 59.808 181.700473 
L 55.746184 181.152 
L 53.856 180.66605 
L 47.904 177.914679 
L 45.405313 175.608 
L 41.952 170.208551 
z
" clip-path="url(#p118dd17941)" style="fill: #1fa088"/>
   </g>
   <g id="PathCollection_22">
    <path d="M 41.732352 158.976 
L 41.325704 153.432 
L 41.046322 147.888 
L 40.854354 142.344 
L 40.724311 136.8 
L 40.639228 131.256 
L 40.587447 125.712 
L 40.56073 120.168 
L 40.553127 114.624 
L 40.560254 109.08 
L 40.578827 103.536 
L 40.606349 97.992 
L 40.640899 92.448 
L 40.680979 86.904 
L 40.725415 81.36 
L 40.773274 75.816 
L 40.823812 70.272 
L 40.87643 64.728 
L 40.930645 59.184 
L 40.986063 53.64 
L 41.042362 48.096 
L 41.099281 42.552 
L 41.156603 37.008 
L 41.214151 31.464 
L 41.271777 25.92 
L 41.952 25.92 
L 43.545171 25.92 
L 43.402522 31.464 
L 43.260069 37.008 
L 43.118174 42.552 
L 42.977276 48.096 
L 42.837912 53.64 
L 42.70073 59.184 
L 42.566527 64.728 
L 42.436275 70.272 
L 42.311173 75.816 
L 42.192703 81.36 
L 42.082706 86.904 
L 41.983491 92.448 
L 41.952 94.489383 
L 41.930172 97.992 
L 41.90265 103.536 
L 41.884077 109.08 
L 41.87695 114.624 
L 41.884553 120.168 
L 41.91127 125.712 
L 41.952 130.072776 
L 41.979357 131.256 
L 42.18997 136.8 
L 42.51188 142.344 
L 42.987078 147.888 
L 43.678661 153.432 
L 44.68528 158.976 
L 46.169006 164.52 
L 47.904 168.805424 
L 48.92159 170.064 
L 53.856 173.927309 
L 57.715782 175.608 
L 59.808 176.145891 
L 65.76 177.042412 
L 71.712 177.576179 
L 77.664 177.887721 
L 83.616 178.056301 
L 89.568 178.129514 
L 95.52 178.137366 
L 101.472 178.099516 
L 107.424 178.029258 
L 113.376 177.935811 
L 119.328 177.825712 
L 125.28 177.703676 
L 131.232 177.573154 
L 137.184 177.436706 
L 143.136 177.296251 
L 149.088 177.153235 
L 155.04 177.008759 
L 160.992 176.863664 
L 166.944 176.718594 
L 172.896 176.574041 
L 178.848 176.430384 
L 184.8 176.287912 
L 190.752 176.146841 
L 196.704 176.007337 
L 202.656 175.869519 
L 208.608 175.733475 
L 214.172596 175.608 
L 214.56 175.593205 
L 214.56 175.608 
L 214.56 178.624448 
L 208.608 178.758658 
L 202.656 178.894702 
L 196.704 179.03252 
L 190.752 179.172024 
L 184.8 179.313095 
L 178.848 179.455568 
L 172.896 179.599224 
L 166.944 179.743777 
L 160.992 179.888847 
L 155.04 180.033942 
L 149.088 180.178418 
L 143.136 180.321434 
L 137.184 180.46189 
L 131.232 180.598337 
L 125.28 180.728859 
L 119.328 180.850896 
L 113.376 180.960994 
L 107.424 181.054441 
L 101.472 181.124699 
L 97.178891 181.152 
L 95.52 181.157541 
L 89.568 181.153417 
L 89.348701 181.152 
L 83.616 181.081484 
L 77.664 180.912904 
L 71.712 180.601362 
L 65.76 180.067595 
L 59.808 179.171074 
L 53.856 177.640867 
L 49.458328 175.608 
L 47.904 174.391066 
L 45.136548 170.064 
L 42.892008 164.52 
L 41.952 161.007623 
z
" clip-path="url(#p118dd17941)" style="fill: #2db27d"/>
   </g>
   <g id="PathCollection_23">
    <path d="M 41.91127 125.712 
L 41.884553 120.168 
L 41.87695 114.624 
L 41.884077 109.08 
L 41.90265 103.536 
L 41.930172 97.992 
L 41.952 94.489383 
L 41.983491 92.448 
L 42.082706 86.904 
L 42.192703 81.36 
L 42.311173 75.816 
L 42.436275 70.272 
L 42.566527 64.728 
L 42.70073 59.184 
L 42.837912 53.64 
L 42.977276 48.096 
L 43.118174 42.552 
L 43.260069 37.008 
L 43.402522 31.464 
L 43.545171 25.92 
L 46.822169 25.92 
L 46.679521 31.464 
L 46.537067 37.008 
L 46.395172 42.552 
L 46.254275 48.096 
L 46.11491 53.64 
L 45.977729 59.184 
L 45.843525 64.728 
L 45.713274 70.272 
L 45.588172 75.816 
L 45.469701 81.36 
L 45.359704 86.904 
L 45.260489 92.448 
L 45.174966 97.992 
L 45.106838 103.536 
L 45.060862 109.08 
L 45.043219 114.624 
L 45.062039 120.168 
L 45.128174 125.712 
L 45.256355 131.256 
L 45.466968 136.8 
L 45.788878 142.344 
L 46.264076 147.888 
L 46.955659 153.432 
L 47.904 158.655029 
L 48.020385 158.976 
L 50.983462 164.52 
L 53.856 168.072814 
L 56.750705 170.064 
L 59.808 171.395259 
L 65.76 172.913702 
L 71.712 173.817745 
L 77.664 174.345407 
L 83.616 174.630931 
L 89.568 174.754933 
L 95.52 174.768232 
L 101.472 174.704126 
L 107.424 174.585128 
L 113.376 174.426857 
L 119.328 174.240382 
L 125.28 174.033688 
L 131.232 173.812622 
L 137.184 173.581521 
L 143.136 173.34363 
L 149.088 173.101403 
L 155.04 172.856704 
L 160.992 172.610956 
L 166.944 172.365249 
L 172.896 172.12042 
L 178.848 171.877107 
L 184.8 171.6358 
L 190.752 171.396868 
L 196.704 171.160589 
L 202.656 170.927166 
L 208.608 170.696748 
L 214.56 170.469435 
L 214.56 175.593205 
L 214.172596 175.608 
L 208.608 175.733475 
L 202.656 175.869519 
L 196.704 176.007337 
L 190.752 176.146841 
L 184.8 176.287912 
L 178.848 176.430384 
L 172.896 176.574041 
L 166.944 176.718594 
L 160.992 176.863664 
L 155.04 177.008759 
L 149.088 177.153235 
L 143.136 177.296251 
L 137.184 177.436706 
L 131.232 177.573154 
L 125.28 177.703676 
L 119.328 177.825712 
L 113.376 177.935811 
L 107.424 178.029258 
L 101.472 178.099516 
L 95.52 178.137366 
L 89.568 178.129514 
L 83.616 178.056301 
L 77.664 177.887721 
L 71.712 177.576179 
L 65.76 177.042412 
L 59.808 176.145891 
L 57.715782 175.608 
L 53.856 173.927309 
L 48.92159 170.064 
L 47.904 168.805424 
L 46.169006 164.52 
L 44.68528 158.976 
L 43.678661 153.432 
L 42.987078 147.888 
L 42.51188 142.344 
L 42.18997 136.8 
L 41.979357 131.256 
L 41.952 130.072776 
z
" clip-path="url(#p118dd17941)" style="fill: #4ec36b"/>
   </g>
   <g id="PathCollection_24">
    <path d="M 46.955659 153.432 
L 46.264076 147.888 
L 45.788878 142.344 
L 45.466968 136.8 
L 45.256355 131.256 
L 45.128174 125.712 
L 45.062039 120.168 
L 45.043219 114.624 
L 45.060862 109.08 
L 45.106838 103.536 
L 45.174966 97.992 
L 45.260489 92.448 
L 45.359704 86.904 
L 45.469701 81.36 
L 45.588172 75.816 
L 45.713274 70.272 
L 45.843525 64.728 
L 45.977729 59.184 
L 46.11491 53.64 
L 46.254275 48.096 
L 46.395172 42.552 
L 46.537067 37.008 
L 46.679521 31.464 
L 46.822169 25.92 
L 47.904 25.92 
L 52.287862 25.92 
L 52.002986 31.464 
L 51.718499 37.008 
L 51.435127 42.552 
L 51.153747 48.096 
L 50.875429 53.64 
L 50.601471 59.184 
L 50.33346 64.728 
L 50.073341 70.272 
L 49.823505 75.816 
L 49.586913 81.36 
L 49.367244 86.904 
L 49.169107 92.448 
L 48.998312 97.992 
L 48.862257 103.536 
L 48.770442 109.08 
L 48.735208 114.624 
L 48.772792 120.168 
L 48.904867 125.712 
L 49.160851 131.256 
L 49.581455 136.8 
L 50.224327 142.344 
L 51.173322 147.888 
L 52.554448 153.432 
L 53.856 157.021468 
L 55.130305 158.976 
L 59.808 163.843582 
L 60.91749 164.52 
L 65.76 166.471591 
L 71.712 167.899733 
L 77.664 168.733295 
L 83.616 169.184346 
L 89.568 169.380236 
L 95.52 169.401243 
L 101.472 169.299973 
L 107.424 169.111989 
L 113.376 168.861965 
L 119.328 168.567385 
L 125.28 168.240864 
L 131.232 167.89164 
L 137.184 167.526562 
L 143.136 167.15076 
L 149.088 166.768107 
L 155.04 166.381548 
L 160.992 165.993333 
L 166.944 165.605183 
L 172.896 165.218419 
L 178.848 164.834052 
L 183.751565 164.52 
L 184.8 164.418421 
L 190.752 163.847428 
L 196.704 163.282775 
L 202.656 162.724949 
L 208.608 162.174301 
L 214.56 161.631075 
L 214.56 164.52 
L 214.56 170.064 
L 214.56 170.469435 
L 208.608 170.696748 
L 202.656 170.927166 
L 196.704 171.160589 
L 190.752 171.396868 
L 184.8 171.6358 
L 178.848 171.877107 
L 172.896 172.12042 
L 166.944 172.365249 
L 160.992 172.610956 
L 155.04 172.856704 
L 149.088 173.101403 
L 143.136 173.34363 
L 137.184 173.581521 
L 131.232 173.812622 
L 125.28 174.033688 
L 119.328 174.240382 
L 113.376 174.426857 
L 107.424 174.585128 
L 101.472 174.704126 
L 95.52 174.768232 
L 89.568 174.754933 
L 83.616 174.630931 
L 77.664 174.345407 
L 71.712 173.817745 
L 65.76 172.913702 
L 59.808 171.395259 
L 56.750705 170.064 
L 53.856 168.072814 
L 50.983462 164.52 
L 48.020385 158.976 
L 47.904 158.655029 
z
" clip-path="url(#p118dd17941)" style="fill: #7cd250"/>
   </g>
   <g id="PathCollection_25">
    <path d="M 52.554448 153.432 
L 51.173322 147.888 
L 50.224327 142.344 
L 49.581455 136.8 
L 49.160851 131.256 
L 48.904867 125.712 
L 48.772792 120.168 
L 48.735208 114.624 
L 48.770442 109.08 
L 48.862257 103.536 
L 48.998312 97.992 
L 49.169107 92.448 
L 49.367244 86.904 
L 49.586913 81.36 
L 49.823505 75.816 
L 50.073341 70.272 
L 50.33346 64.728 
L 50.601471 59.184 
L 50.875429 53.64 
L 51.153747 48.096 
L 51.435127 42.552 
L 51.718499 37.008 
L 52.002986 31.464 
L 52.287862 25.92 
L 53.856 25.92 
L 59.808 25.92 
L 64.920617 25.92 
L 64.046348 31.464 
L 63.173275 37.008 
L 62.303622 42.552 
L 61.440087 48.096 
L 60.585944 53.64 
L 59.808 58.769785 
L 59.771197 59.184 
L 59.289303 64.728 
L 58.821598 70.272 
L 58.372385 75.816 
L 57.946983 81.36 
L 57.55201 86.904 
L 57.19575 92.448 
L 56.888656 97.992 
L 56.644023 103.536 
L 56.478935 109.08 
L 56.415583 114.624 
L 56.483161 120.168 
L 56.720638 125.712 
L 57.180906 131.256 
L 57.937169 136.8 
L 59.093077 142.344 
L 59.808 144.666841 
L 61.500159 147.888 
L 65.738753 153.432 
L 65.76 153.451094 
L 71.712 156.635536 
L 77.664 158.494195 
L 80.51532 158.976 
L 83.616 159.331463 
L 89.568 159.627799 
L 95.52 159.659579 
L 101.472 159.50638 
L 107.424 159.222003 
L 111.295209 158.976 
L 113.376 158.781101 
L 119.328 158.124252 
L 125.28 157.396183 
L 131.232 156.617491 
L 137.184 155.803447 
L 143.136 154.96549 
L 149.088 154.112259 
L 153.785425 153.432 
L 155.04 153.167557 
L 160.992 151.9076 
L 166.944 150.647856 
L 172.896 149.392609 
L 178.848 148.145139 
L 180.085075 147.888 
L 184.8 146.461679 
L 190.752 144.678851 
L 196.704 142.915815 
L 198.65807 142.344 
L 202.656 140.617011 
L 208.608 138.079007 
L 211.64844 136.8 
L 214.56 134.927972 
L 214.56 136.8 
L 214.56 142.344 
L 214.56 147.888 
L 214.56 153.432 
L 214.56 158.976 
L 214.56 161.631075 
L 208.608 162.174301 
L 202.656 162.724949 
L 196.704 163.282775 
L 190.752 163.847428 
L 184.8 164.418421 
L 183.751565 164.52 
L 178.848 164.834052 
L 172.896 165.218419 
L 166.944 165.605183 
L 160.992 165.993333 
L 155.04 166.381548 
L 149.088 166.768107 
L 143.136 167.15076 
L 137.184 167.526562 
L 131.232 167.89164 
L 125.28 168.240864 
L 119.328 168.567385 
L 113.376 168.861965 
L 107.424 169.111989 
L 101.472 169.299973 
L 95.52 169.401243 
L 89.568 169.380236 
L 83.616 169.184346 
L 77.664 168.733295 
L 71.712 167.899733 
L 65.76 166.471591 
L 60.91749 164.52 
L 59.808 163.843582 
L 55.130305 158.976 
L 53.856 157.021468 
z
" clip-path="url(#p118dd17941)" style="fill: #b0dd2f"/>
    <path d="M 158.845931 25.92 
L 160.992 25.92 
L 166.944 25.92 
L 172.896 25.92 
L 178.848 25.92 
L 184.8 25.92 
L 190.752 25.92 
L 196.704 25.92 
L 202.656 25.92 
L 208.608 25.92 
L 214.56 25.92 
L 214.56 31.464 
L 214.56 37.008 
L 214.56 42.552 
L 214.56 48.096 
L 214.56 53.64 
L 214.56 59.184 
L 214.56 64.728 
L 214.56 70.272 
L 214.56 75.816 
L 214.56 81.36 
L 214.56 85.082156 
L 211.536553 81.36 
L 208.608 78.012554 
L 206.712216 75.816 
L 202.656 71.365376 
L 201.672341 70.272 
L 196.704 64.96783 
L 196.482071 64.728 
L 191.196235 59.184 
L 190.752 58.728183 
L 185.848157 53.64 
L 184.8 52.56948 
L 180.463082 48.096 
L 178.848 46.448183 
L 175.060689 42.552 
L 172.896 40.340747 
L 169.653649 37.008 
L 166.944 34.233717 
L 164.248469 31.464 
L 160.992 28.122487 
z
" clip-path="url(#p118dd17941)" style="fill: #b0dd2f"/>
   </g>
   <g id="PathCollection_26">
    <path d="M 59.093077 142.344 
L 57.937169 136.8 
L 57.180906 131.256 
L 56.720638 125.712 
L 56.483161 120.168 
L 56.415583 114.624 
L 56.478935 109.08 
L 56.644023 103.536 
L 56.888656 97.992 
L 57.19575 92.448 
L 57.55201 86.904 
L 57.946983 81.36 
L 58.372385 75.816 
L 58.821598 70.272 
L 59.289303 64.728 
L 59.771197 59.184 
L 59.808 58.769785 
L 60.585944 53.64 
L 61.440087 48.096 
L 62.303622 42.552 
L 63.173275 37.008 
L 64.046348 31.464 
L 64.920617 25.92 
L 65.76 25.92 
L 71.712 25.92 
L 77.664 25.92 
L 83.616 25.92 
L 89.568 25.92 
L 95.52 25.92 
L 101.472 25.92 
L 107.424 25.92 
L 113.376 25.92 
L 119.328 25.92 
L 125.28 25.92 
L 131.232 25.92 
L 137.184 25.92 
L 143.136 25.92 
L 149.088 25.92 
L 155.04 25.92 
L 158.845931 25.92 
L 160.992 28.122487 
L 164.248469 31.464 
L 166.944 34.233717 
L 169.653649 37.008 
L 172.896 40.340747 
L 175.060689 42.552 
L 178.848 46.448183 
L 180.463082 48.096 
L 184.8 52.56948 
L 185.848157 53.64 
L 190.752 58.728183 
L 191.196235 59.184 
L 196.482071 64.728 
L 196.704 64.96783 
L 201.672341 70.272 
L 202.656 71.365376 
L 206.712216 75.816 
L 208.608 78.012554 
L 211.536553 81.36 
L 214.56 85.082156 
L 214.56 86.904 
L 214.56 92.448 
L 214.56 97.992 
L 214.56 103.536 
L 214.56 109.08 
L 214.56 114.624 
L 214.56 120.168 
L 214.56 125.712 
L 214.56 131.256 
L 214.56 134.927972 
L 211.64844 136.8 
L 208.608 138.079007 
L 202.656 140.617011 
L 198.65807 142.344 
L 196.704 142.915815 
L 190.752 144.678851 
L 184.8 146.461679 
L 180.085075 147.888 
L 178.848 148.145139 
L 172.896 149.392609 
L 166.944 150.647856 
L 160.992 151.9076 
L 155.04 153.167557 
L 153.785425 153.432 
L 149.088 154.112259 
L 143.136 154.96549 
L 137.184 155.803447 
L 131.232 156.617491 
L 125.28 157.396183 
L 119.328 158.124252 
L 113.376 158.781101 
L 111.295209 158.976 
L 107.424 159.222003 
L 101.472 159.50638 
L 95.52 159.659579 
L 89.568 159.627799 
L 83.616 159.331463 
L 80.51532 158.976 
L 77.664 158.494195 
L 71.712 156.635536 
L 65.76 153.451094 
L 65.738753 153.432 
L 61.500159 147.888 
L 59.808 144.666841 
z
" clip-path="url(#p118dd17941)" style="fill: #e5e419"/>
   </g>
   <g id="PathCollection_27">
    <defs>
     <path id="ma1df949107" d="M -4.330127 4.330127 
L 4.330127 -4.330127 
M -4.330127 -4.330127 
L 4.330127 4.330127 
" style="stroke: #000000; stroke-width: 2"/>
    </defs>
    <g clip-path="url(#p118dd17941)">
     <use xlink:href="#ma1df949107" x="85.6" y="127.56" style="stroke: #000000; stroke-width: 2"/>
    </g>
   </g>
   <g id="matplotlib.axis_1">
    <g id="xtick_1">
     <g id="line2d_1">
      <defs>
       <path id="m488cdecdb5" d="M 0 0 
L 0 3.5 
" style="stroke: #000000; stroke-width: 0.8"/>
      </defs>
      <g>
       <use xlink:href="#m488cdecdb5" x="75.68" y="192.24" style="stroke: #000000; stroke-width: 0.8"/>
      </g>
     </g>
     <g id="text_1">
      <!-- $\mathdefault{250}$ -->
      <g transform="translate(64.22 208.358125) scale(0.12 -0.12)">
       <defs>
        <path id="DejaVuSans-32" d="M 1228 531 
L 3431 531 
L 3431 0 
L 469 0 
L 469 531 
Q 828 903 1448 1529 
Q 2069 2156 2228 2338 
Q 2531 2678 2651 2914 
Q 2772 3150 2772 3378 
Q 2772 3750 2511 3984 
Q 2250 4219 1831 4219 
Q 1534 4219 1204 4116 
Q 875 4013 500 3803 
L 500 4441 
Q 881 4594 1212 4672 
Q 1544 4750 1819 4750 
Q 2544 4750 2975 4387 
Q 3406 4025 3406 3419 
Q 3406 3131 3298 2873 
Q 3191 2616 2906 2266 
Q 2828 2175 2409 1742 
Q 1991 1309 1228 531 
z
" transform="scale(0.015625)"/>
        <path id="DejaVuSans-35" d="M 691 4666 
L 3169 4666 
L 3169 4134 
L 1269 4134 
L 1269 2991 
Q 1406 3038 1543 3061 
Q 1681 3084 1819 3084 
Q 2600 3084 3056 2656 
Q 3513 2228 3513 1497 
Q 3513 744 3044 326 
Q 2575 -91 1722 -91 
Q 1428 -91 1123 -41 
Q 819 9 494 109 
L 494 744 
Q 775 591 1075 516 
Q 1375 441 1709 441 
Q 2250 441 2565 725 
Q 2881 1009 2881 1497 
Q 2881 1984 2565 2268 
Q 2250 2553 1709 2553 
Q 1456 2553 1204 2497 
Q 953 2441 691 2322 
L 691 4666 
z
" transform="scale(0.015625)"/>
        <path id="DejaVuSans-30" d="M 2034 4250 
Q 1547 4250 1301 3770 
Q 1056 3291 1056 2328 
Q 1056 1369 1301 889 
Q 1547 409 2034 409 
Q 2525 409 2770 889 
Q 3016 1369 3016 2328 
Q 3016 3291 2770 3770 
Q 2525 4250 2034 4250 
z
M 2034 4750 
Q 2819 4750 3233 4129 
Q 3647 3509 3647 2328 
Q 3647 1150 3233 529 
Q 2819 -91 2034 -91 
Q 1250 -91 836 529 
Q 422 1150 422 2328 
Q 422 3509 836 4129 
Q 1250 4750 2034 4750 
z
" transform="scale(0.015625)"/>
       </defs>
       <use xlink:href="#DejaVuSans-32" transform="translate(0 0.78125)"/>
       <use xlink:href="#DejaVuSans-35" transform="translate(63.623047 0.78125)"/>
       <use xlink:href="#DejaVuSans-30" transform="translate(127.246094 0.78125)"/>
      </g>
     </g>
    </g>
    <g id="xtick_2">
     <g id="line2d_2">
      <g>
       <use xlink:href="#m488cdecdb5" x="125.28" y="192.24" style="stroke: #000000; stroke-width: 0.8"/>
      </g>
     </g>
     <g id="text_2">
      <!-- $\mathdefault{500}$ -->
      <g transform="translate(113.82 208.358125) scale(0.12 -0.12)">
       <use xlink:href="#DejaVuSans-35" transform="translate(0 0.78125)"/>
       <use xlink:href="#DejaVuSans-30" transform="translate(63.623047 0.78125)"/>
       <use xlink:href="#DejaVuSans-30" transform="translate(127.246094 0.78125)"/>
      </g>
     </g>
    </g>
    <g id="xtick_3">
     <g id="line2d_3">
      <g>
       <use xlink:href="#m488cdecdb5" x="174.88" y="192.24" style="stroke: #000000; stroke-width: 0.8"/>
      </g>
     </g>
     <g id="text_3">
      <!-- $\mathdefault{750}$ -->
      <g transform="translate(163.42 208.358125) scale(0.12 -0.12)">
       <defs>
        <path id="DejaVuSans-37" d="M 525 4666 
L 3525 4666 
L 3525 4397 
L 1831 0 
L 1172 0 
L 2766 4134 
L 525 4134 
L 525 4666 
z
" transform="scale(0.015625)"/>
       </defs>
       <use xlink:href="#DejaVuSans-37" transform="translate(0 0.78125)"/>
       <use xlink:href="#DejaVuSans-35" transform="translate(63.623047 0.78125)"/>
       <use xlink:href="#DejaVuSans-30" transform="translate(127.246094 0.78125)"/>
      </g>
     </g>
    </g>
    <g id="text_4">
     <!-- Diploid N$_e$1 -->
     <g transform="translate(80 227.01375) scale(0.16 -0.16)">
      <defs>
       <path id="DejaVuSans-44" d="M 1259 4147 
L 1259 519 
L 2022 519 
Q 2988 519 3436 956 
Q 3884 1394 3884 2338 
Q 3884 3275 3436 3711 
Q 2988 4147 2022 4147 
L 1259 4147 
z
M 628 4666 
L 1925 4666 
Q 3281 4666 3915 4102 
Q 4550 3538 4550 2338 
Q 4550 1131 3912 565 
Q 3275 0 1925 0 
L 628 0 
L 628 4666 
z
" transform="scale(0.015625)"/>
       <path id="DejaVuSans-69" d="M 603 3500 
L 1178 3500 
L 1178 0 
L 603 0 
L 603 3500 
z
M 603 4863 
L 1178 4863 
L 1178 4134 
L 603 4134 
L 603 4863 
z
" transform="scale(0.015625)"/>
       <path id="DejaVuSans-70" d="M 1159 525 
L 1159 -1331 
L 581 -1331 
L 581 3500 
L 1159 3500 
L 1159 2969 
Q 1341 3281 1617 3432 
Q 1894 3584 2278 3584 
Q 2916 3584 3314 3078 
Q 3713 2572 3713 1747 
Q 3713 922 3314 415 
Q 2916 -91 2278 -91 
Q 1894 -91 1617 61 
Q 1341 213 1159 525 
z
M 3116 1747 
Q 3116 2381 2855 2742 
Q 2594 3103 2138 3103 
Q 1681 3103 1420 2742 
Q 1159 2381 1159 1747 
Q 1159 1113 1420 752 
Q 1681 391 2138 391 
Q 2594 391 2855 752 
Q 3116 1113 3116 1747 
z
" transform="scale(0.015625)"/>
       <path id="DejaVuSans-6c" d="M 603 4863 
L 1178 4863 
L 1178 0 
L 603 0 
L 603 4863 
z
" transform="scale(0.015625)"/>
       <path id="DejaVuSans-6f" d="M 1959 3097 
Q 1497 3097 1228 2736 
Q 959 2375 959 1747 
Q 959 1119 1226 758 
Q 1494 397 1959 397 
Q 2419 397 2687 759 
Q 2956 1122 2956 1747 
Q 2956 2369 2687 2733 
Q 2419 3097 1959 3097 
z
M 1959 3584 
Q 2709 3584 3137 3096 
Q 3566 2609 3566 1747 
Q 3566 888 3137 398 
Q 2709 -91 1959 -91 
Q 1206 -91 779 398 
Q 353 888 353 1747 
Q 353 2609 779 3096 
Q 1206 3584 1959 3584 
z
" transform="scale(0.015625)"/>
       <path id="DejaVuSans-64" d="M 2906 2969 
L 2906 4863 
L 3481 4863 
L 3481 0 
L 2906 0 
L 2906 525 
Q 2725 213 2448 61 
Q 2172 -91 1784 -91 
Q 1150 -91 751 415 
Q 353 922 353 1747 
Q 353 2572 751 3078 
Q 1150 3584 1784 3584 
Q 2172 3584 2448 3432 
Q 2725 3281 2906 2969 
z
M 947 1747 
Q 947 1113 1208 752 
Q 1469 391 1925 391 
Q 2381 391 2643 752 
Q 2906 1113 2906 1747 
Q 2906 2381 2643 2742 
Q 2381 3103 1925 3103 
Q 1469 3103 1208 2742 
Q 947 2381 947 1747 
z
" transform="scale(0.015625)"/>
       <path id="DejaVuSans-20" transform="scale(0.015625)"/>
       <path id="DejaVuSans-4e" d="M 628 4666 
L 1478 4666 
L 3547 763 
L 3547 4666 
L 4159 4666 
L 4159 0 
L 3309 0 
L 1241 3903 
L 1241 0 
L 628 0 
L 628 4666 
z
" transform="scale(0.015625)"/>
       <path id="DejaVuSans-Oblique-65" d="M 3078 2063 
Q 3088 2113 3092 2166 
Q 3097 2219 3097 2272 
Q 3097 2653 2873 2875 
Q 2650 3097 2266 3097 
Q 1838 3097 1509 2826 
Q 1181 2556 1013 2059 
L 3078 2063 
z
M 3578 1613 
L 903 1613 
Q 884 1494 878 1425 
Q 872 1356 872 1306 
Q 872 872 1139 634 
Q 1406 397 1894 397 
Q 2269 397 2603 481 
Q 2938 566 3225 728 
L 3116 159 
Q 2806 34 2476 -28 
Q 2147 -91 1806 -91 
Q 1078 -91 686 257 
Q 294 606 294 1247 
Q 294 1794 489 2264 
Q 684 2734 1063 3103 
Q 1306 3334 1642 3459 
Q 1978 3584 2356 3584 
Q 2950 3584 3301 3228 
Q 3653 2872 3653 2272 
Q 3653 2128 3634 1964 
Q 3616 1800 3578 1613 
z
" transform="scale(0.015625)"/>
       <path id="DejaVuSans-31" d="M 794 531 
L 1825 531 
L 1825 4091 
L 703 3866 
L 703 4441 
L 1819 4666 
L 2450 4666 
L 2450 531 
L 3481 531 
L 3481 0 
L 794 0 
L 794 531 
z
" transform="scale(0.015625)"/>
      </defs>
      <use xlink:href="#DejaVuSans-44" transform="translate(0 0.015625)"/>
      <use xlink:href="#DejaVuSans-69" transform="translate(77.001953 0.015625)"/>
      <use xlink:href="#DejaVuSans-70" transform="translate(104.785156 0.015625)"/>
      <use xlink:href="#DejaVuSans-6c" transform="translate(168.261719 0.015625)"/>
      <use xlink:href="#DejaVuSans-6f" transform="translate(196.044922 0.015625)"/>
      <use xlink:href="#DejaVuSans-69" transform="translate(257.226562 0.015625)"/>
      <use xlink:href="#DejaVuSans-64" transform="translate(285.009766 0.015625)"/>
      <use xlink:href="#DejaVuSans-20" transform="translate(348.486328 0.015625)"/>
      <use xlink:href="#DejaVuSans-4e" transform="translate(380.273438 0.015625)"/>
      <use xlink:href="#DejaVuSans-Oblique-65" transform="translate(456.035156 -16.390625) scale(0.7)"/>
      <use xlink:href="#DejaVuSans-31" transform="translate(501.835938 0.015625)"/>
     </g>
    </g>
    <g id="text_5">
     <!-- $\times\mathdefault{10^{3}}\mathdefault{}$ -->
     <g transform="translate(188.56 221.452188) scale(0.1 -0.1)">
      <defs>
       <path id="DejaVuSans-d7" d="M 4488 3438 
L 3059 2003 
L 4488 575 
L 4116 197 
L 2681 1631 
L 1247 197 
L 878 575 
L 2303 2003 
L 878 3438 
L 1247 3816 
L 2681 2381 
L 4116 3816 
L 4488 3438 
z
" transform="scale(0.015625)"/>
       <path id="DejaVuSans-33" d="M 2597 2516 
Q 3050 2419 3304 2112 
Q 3559 1806 3559 1356 
Q 3559 666 3084 287 
Q 2609 -91 1734 -91 
Q 1441 -91 1130 -33 
Q 819 25 488 141 
L 488 750 
Q 750 597 1062 519 
Q 1375 441 1716 441 
Q 2309 441 2620 675 
Q 2931 909 2931 1356 
Q 2931 1769 2642 2001 
Q 2353 2234 1838 2234 
L 1294 2234 
L 1294 2753 
L 1863 2753 
Q 2328 2753 2575 2939 
Q 2822 3125 2822 3475 
Q 2822 3834 2567 4026 
Q 2313 4219 1838 4219 
Q 1578 4219 1281 4162 
Q 984 4106 628 3988 
L 628 4550 
Q 988 4650 1302 4700 
Q 1616 4750 1894 4750 
Q 2613 4750 3031 4423 
Q 3450 4097 3450 3541 
Q 3450 3153 3228 2886 
Q 3006 2619 2597 2516 
z
" transform="scale(0.015625)"/>
      </defs>
      <use xlink:href="#DejaVuSans-d7" transform="translate(0 0.765625)"/>
      <use xlink:href="#DejaVuSans-31" transform="translate(83.789062 0.765625)"/>
      <use xlink:href="#DejaVuSans-30" transform="translate(147.412109 0.765625)"/>
      <use xlink:href="#DejaVuSans-33" transform="translate(211.992188 39.046875) scale(0.7)"/>
     </g>
    </g>
   </g>
   <g id="matplotlib.axis_2">
    <g id="ytick_1">
     <g id="line2d_4">
      <defs>
       <path id="m5d0e2387c3" d="M 0 0 
L -3.5 0 
" style="stroke: #000000; stroke-width: 0.8"/>
      </defs>
      <g>
       <use xlink:href="#m5d0e2387c3" x="36" y="155.28" style="stroke: #000000; stroke-width: 0.8"/>
      </g>
     </g>
     <g id="text_6">
      <!-- $\mathdefault{250}$ -->
      <g transform="translate(6.08 159.839063) scale(0.12 -0.12)">
       <use xlink:href="#DejaVuSans-32" transform="translate(0 0.78125)"/>
       <use xlink:href="#DejaVuSans-35" transform="translate(63.623047 0.78125)"/>
       <use xlink:href="#DejaVuSans-30" transform="translate(127.246094 0.78125)"/>
      </g>
     </g>
    </g>
    <g id="ytick_2">
     <g id="line2d_5">
      <g>
       <use xlink:href="#m5d0e2387c3" x="36" y="109.08" style="stroke: #000000; stroke-width: 0.8"/>
      </g>
     </g>
     <g id="text_7">
      <!-- $\mathdefault{500}$ -->
      <g transform="translate(6.08 113.639062) scale(0.12 -0.12)">
       <use xlink:href="#DejaVuSans-35" transform="translate(0 0.78125)"/>
       <use xlink:href="#DejaVuSans-30" transform="translate(63.623047 0.78125)"/>
       <use xlink:href="#DejaVuSans-30" transform="translate(127.246094 0.78125)"/>
      </g>
     </g>
    </g>
    <g id="ytick_3">
     <g id="line2d_6">
      <g>
       <use xlink:href="#m5d0e2387c3" x="36" y="62.88" style="stroke: #000000; stroke-width: 0.8"/>
      </g>
     </g>
     <g id="text_8">
      <!-- $\mathdefault{750}$ -->
      <g transform="translate(6.08 67.439062) scale(0.12 -0.12)">
       <use xlink:href="#DejaVuSans-37" transform="translate(0 0.78125)"/>
       <use xlink:href="#DejaVuSans-35" transform="translate(63.623047 0.78125)"/>
       <use xlink:href="#DejaVuSans-30" transform="translate(127.246094 0.78125)"/>
      </g>
     </g>
    </g>
    <g id="text_9">
     <!-- Diploid N$_e$2 -->
     <g transform="translate(-1.28 154.36) rotate(-90) scale(0.16 -0.16)">
      <use xlink:href="#DejaVuSans-44" transform="translate(0 0.015625)"/>
      <use xlink:href="#DejaVuSans-69" transform="translate(77.001953 0.015625)"/>
      <use xlink:href="#DejaVuSans-70" transform="translate(104.785156 0.015625)"/>
      <use xlink:href="#DejaVuSans-6c" transform="translate(168.261719 0.015625)"/>
      <use xlink:href="#DejaVuSans-6f" transform="translate(196.044922 0.015625)"/>
      <use xlink:href="#DejaVuSans-69" transform="translate(257.226562 0.015625)"/>
      <use xlink:href="#DejaVuSans-64" transform="translate(285.009766 0.015625)"/>
      <use xlink:href="#DejaVuSans-20" transform="translate(348.486328 0.015625)"/>
      <use xlink:href="#DejaVuSans-4e" transform="translate(380.273438 0.015625)"/>
      <use xlink:href="#DejaVuSans-Oblique-65" transform="translate(456.035156 -16.390625) scale(0.7)"/>
      <use xlink:href="#DejaVuSans-32" transform="translate(501.835938 0.015625)"/>
     </g>
    </g>
    <g id="text_10">
     <!-- $\times\mathdefault{10^{3}}\mathdefault{}$ -->
     <g transform="translate(36 22.92) scale(0.1 -0.1)">
      <use xlink:href="#DejaVuSans-d7" transform="translate(0 0.765625)"/>
      <use xlink:href="#DejaVuSans-31" transform="translate(83.789062 0.765625)"/>
      <use xlink:href="#DejaVuSans-30" transform="translate(147.412109 0.765625)"/>
      <use xlink:href="#DejaVuSans-33" transform="translate(211.992188 39.046875) scale(0.7)"/>
     </g>
    </g>
   </g>
   <g id="patch_3">
    <path d="M 36 192.24 
L 36 25.92 
" style="fill: none; stroke: #000000; stroke-width: 0.8; stroke-linejoin: miter; stroke-linecap: square"/>
   </g>
   <g id="patch_4">
    <path d="M 214.56 192.24 
L 214.56 25.92 
" style="fill: none; stroke: #000000; stroke-width: 0.8; stroke-linejoin: miter; stroke-linecap: square"/>
   </g>
   <g id="patch_5">
    <path d="M 36 192.24 
L 214.56 192.24 
" style="fill: none; stroke: #000000; stroke-width: 0.8; stroke-linejoin: miter; stroke-linecap: square"/>
   </g>
   <g id="patch_6">
    <path d="M 36 25.92 
L 214.56 25.92 
" style="fill: none; stroke: #000000; stroke-width: 0.8; stroke-linejoin: miter; stroke-linecap: square"/>
   </g>
   <g id="text_11">
    <!-- Ne1Ne2-MSC-RGT-P2-S4 -->
    <g transform="translate(28.46625 10.92) scale(0.16 -0.16)">
     <defs>
      <path id="DejaVuSans-65" d="M 3597 1894 
L 3597 1613 
L 953 1613 
Q 991 1019 1311 708 
Q 1631 397 2203 397 
Q 2534 397 2845 478 
Q 3156 559 3463 722 
L 3463 178 
Q 3153 47 2828 -22 
Q 2503 -91 2169 -91 
Q 1331 -91 842 396 
Q 353 884 353 1716 
Q 353 2575 817 3079 
Q 1281 3584 2069 3584 
Q 2775 3584 3186 3129 
Q 3597 2675 3597 1894 
z
M 3022 2063 
Q 3016 2534 2758 2815 
Q 2500 3097 2075 3097 
Q 1594 3097 1305 2825 
Q 1016 2553 972 2059 
L 3022 2063 
z
" transform="scale(0.015625)"/>
      <path id="DejaVuSans-2d" d="M 313 2009 
L 1997 2009 
L 1997 1497 
L 313 1497 
L 313 2009 
z
" transform="scale(0.015625)"/>
      <path id="DejaVuSans-4d" d="M 628 4666 
L 1569 4666 
L 2759 1491 
L 3956 4666 
L 4897 4666 
L 4897 0 
L 4281 0 
L 4281 4097 
L 3078 897 
L 2444 897 
L 1241 4097 
L 1241 0 
L 628 0 
L 628 4666 
z
" transform="scale(0.015625)"/>
      <path id="DejaVuSans-53" d="M 3425 4513 
L 3425 3897 
Q 3066 4069 2747 4153 
Q 2428 4238 2131 4238 
Q 1616 4238 1336 4038 
Q 1056 3838 1056 3469 
Q 1056 3159 1242 3001 
Q 1428 2844 1947 2747 
L 2328 2669 
Q 3034 2534 3370 2195 
Q 3706 1856 3706 1288 
Q 3706 609 3251 259 
Q 2797 -91 1919 -91 
Q 1588 -91 1214 -16 
Q 841 59 441 206 
L 441 856 
Q 825 641 1194 531 
Q 1563 422 1919 422 
Q 2459 422 2753 634 
Q 3047 847 3047 1241 
Q 3047 1584 2836 1778 
Q 2625 1972 2144 2069 
L 1759 2144 
Q 1053 2284 737 2584 
Q 422 2884 422 3419 
Q 422 4038 858 4394 
Q 1294 4750 2059 4750 
Q 2388 4750 2728 4690 
Q 3069 4631 3425 4513 
z
" transform="scale(0.015625)"/>
      <path id="DejaVuSans-43" d="M 4122 4306 
L 4122 3641 
Q 3803 3938 3442 4084 
Q 3081 4231 2675 4231 
Q 1875 4231 1450 3742 
Q 1025 3253 1025 2328 
Q 1025 1406 1450 917 
Q 1875 428 2675 428 
Q 3081 428 3442 575 
Q 3803 722 4122 1019 
L 4122 359 
Q 3791 134 3420 21 
Q 3050 -91 2638 -91 
Q 1578 -91 968 557 
Q 359 1206 359 2328 
Q 359 3453 968 4101 
Q 1578 4750 2638 4750 
Q 3056 4750 3426 4639 
Q 3797 4528 4122 4306 
z
" transform="scale(0.015625)"/>
      <path id="DejaVuSans-52" d="M 2841 2188 
Q 3044 2119 3236 1894 
Q 3428 1669 3622 1275 
L 4263 0 
L 3584 0 
L 2988 1197 
Q 2756 1666 2539 1819 
Q 2322 1972 1947 1972 
L 1259 1972 
L 1259 0 
L 628 0 
L 628 4666 
L 2053 4666 
Q 2853 4666 3247 4331 
Q 3641 3997 3641 3322 
Q 3641 2881 3436 2590 
Q 3231 2300 2841 2188 
z
M 1259 4147 
L 1259 2491 
L 2053 2491 
Q 2509 2491 2742 2702 
Q 2975 2913 2975 3322 
Q 2975 3731 2742 3939 
Q 2509 4147 2053 4147 
L 1259 4147 
z
" transform="scale(0.015625)"/>
      <path id="DejaVuSans-47" d="M 3809 666 
L 3809 1919 
L 2778 1919 
L 2778 2438 
L 4434 2438 
L 4434 434 
Q 4069 175 3628 42 
Q 3188 -91 2688 -91 
Q 1594 -91 976 548 
Q 359 1188 359 2328 
Q 359 3472 976 4111 
Q 1594 4750 2688 4750 
Q 3144 4750 3555 4637 
Q 3966 4525 4313 4306 
L 4313 3634 
Q 3963 3931 3569 4081 
Q 3175 4231 2741 4231 
Q 1884 4231 1454 3753 
Q 1025 3275 1025 2328 
Q 1025 1384 1454 906 
Q 1884 428 2741 428 
Q 3075 428 3337 486 
Q 3600 544 3809 666 
z
" transform="scale(0.015625)"/>
      <path id="DejaVuSans-54" d="M -19 4666 
L 3928 4666 
L 3928 4134 
L 2272 4134 
L 2272 0 
L 1638 0 
L 1638 4134 
L -19 4134 
L -19 4666 
z
" transform="scale(0.015625)"/>
      <path id="DejaVuSans-50" d="M 1259 4147 
L 1259 2394 
L 2053 2394 
Q 2494 2394 2734 2622 
Q 2975 2850 2975 3272 
Q 2975 3691 2734 3919 
Q 2494 4147 2053 4147 
L 1259 4147 
z
M 628 4666 
L 2053 4666 
Q 2838 4666 3239 4311 
Q 3641 3956 3641 3272 
Q 3641 2581 3239 2228 
Q 2838 1875 2053 1875 
L 1259 1875 
L 1259 0 
L 628 0 
L 628 4666 
z
" transform="scale(0.015625)"/>
      <path id="DejaVuSans-34" d="M 2419 4116 
L 825 1625 
L 2419 1625 
L 2419 4116 
z
M 2253 4666 
L 3047 4666 
L 3047 1625 
L 3713 1625 
L 3713 1100 
L 3047 1100 
L 3047 0 
L 2419 0 
L 2419 1100 
L 313 1100 
L 313 1709 
L 2253 4666 
z
" transform="scale(0.015625)"/>
     </defs>
     <use xlink:href="#DejaVuSans-4e"/>
     <use xlink:href="#DejaVuSans-65" x="74.804688"/>
     <use xlink:href="#DejaVuSans-31" x="136.328125"/>
     <use xlink:href="#DejaVuSans-4e" x="199.951172"/>
     <use xlink:href="#DejaVuSans-65" x="274.755859"/>
     <use xlink:href="#DejaVuSans-32" x="336.279297"/>
     <use xlink:href="#DejaVuSans-2d" x="399.902344"/>
     <use xlink:href="#DejaVuSans-4d" x="435.986328"/>
     <use xlink:href="#DejaVuSans-53" x="522.265625"/>
     <use xlink:href="#DejaVuSans-43" x="585.742188"/>
     <use xlink:href="#DejaVuSans-2d" x="655.566406"/>
     <use xlink:href="#DejaVuSans-52" x="691.650391"/>
     <use xlink:href="#DejaVuSans-47" x="761.132812"/>
     <use xlink:href="#DejaVuSans-54" x="834.998047"/>
     <use xlink:href="#DejaVuSans-2d" x="886.957031"/>
     <use xlink:href="#DejaVuSans-50" x="923.041016"/>
     <use xlink:href="#DejaVuSans-32" x="983.34375"/>
     <use xlink:href="#DejaVuSans-2d" x="1046.966797"/>
     <use xlink:href="#DejaVuSans-53" x="1083.050781"/>
     <use xlink:href="#DejaVuSans-34" x="1146.527344"/>
    </g>
   </g>
  </g>
  <g id="axes_2">
   <g id="patch_7">
    <path d="M 225.72 192.24 
L 234.036 192.24 
L 234.036 25.92 
L 225.72 25.92 
z
" style="fill: #ffffff"/>
   </g>
   <g id="QuadMesh_1">
    <path d="M 225.72 192.24 
L 234.036 192.24 
L 234.036 185.843077 
L 225.72 185.843077 
L 225.72 192.24 
" clip-path="url(#p3a8c7977dd)" style="fill: #440154"/>
    <path d="M 225.72 185.843077 
L 234.036 185.843077 
L 234.036 179.446154 
L 225.72 179.446154 
L 225.72 185.843077 
" clip-path="url(#p3a8c7977dd)" style="fill: #440154"/>
    <path d="M 225.72 179.446154 
L 234.036 179.446154 
L 234.036 173.049231 
L 225.72 173.049231 
L 225.72 179.446154 
" clip-path="url(#p3a8c7977dd)" style="fill: #440154"/>
    <path d="M 225.72 173.049231 
L 234.036 173.049231 
L 234.036 166.652308 
L 225.72 166.652308 
L 225.72 173.049231 
" clip-path="url(#p3a8c7977dd)" style="fill: #440154"/>
    <path d="M 225.72 166.652308 
L 234.036 166.652308 
L 234.036 160.255385 
L 225.72 160.255385 
L 225.72 166.652308 
" clip-path="url(#p3a8c7977dd)" style="fill: #440154"/>
    <path d="M 225.72 160.255385 
L 234.036 160.255385 
L 234.036 153.858462 
L 225.72 153.858462 
L 225.72 160.255385 
" clip-path="url(#p3a8c7977dd)" style="fill: #440154"/>
    <path d="M 225.72 153.858462 
L 234.036 153.858462 
L 234.036 147.461538 
L 225.72 147.461538 
L 225.72 153.858462 
" clip-path="url(#p3a8c7977dd)" style="fill: #440154"/>
    <path d="M 225.72 147.461538 
L 234.036 147.461538 
L 234.036 141.064615 
L 225.72 141.064615 
L 225.72 147.461538 
" clip-path="url(#p3a8c7977dd)" style="fill: #440154"/>
    <path d="M 225.72 141.064615 
L 234.036 141.064615 
L 234.036 134.667692 
L 225.72 134.667692 
L 225.72 141.064615 
" clip-path="url(#p3a8c7977dd)" style="fill: #440154"/>
    <path d="M 225.72 134.667692 
L 234.036 134.667692 
L 234.036 128.270769 
L 225.72 128.270769 
L 225.72 134.667692 
" clip-path="url(#p3a8c7977dd)" style="fill: #440154"/>
    <path d="M 225.72 128.270769 
L 234.036 128.270769 
L 234.036 121.873846 
L 225.72 121.873846 
L 225.72 128.270769 
" clip-path="url(#p3a8c7977dd)" style="fill: #440154"/>
    <path d="M 225.72 121.873846 
L 234.036 121.873846 
L 234.036 115.476923 
L 225.72 115.476923 
L 225.72 121.873846 
" clip-path="url(#p3a8c7977dd)" style="fill: #440154"/>
    <path d="M 225.72 115.476923 
L 234.036 115.476923 
L 234.036 109.08 
L 225.72 109.08 
L 225.72 115.476923 
" clip-path="url(#p3a8c7977dd)" style="fill: #440154"/>
    <path d="M 225.72 109.08 
L 234.036 109.08 
L 234.036 102.683077 
L 225.72 102.683077 
L 225.72 109.08 
" clip-path="url(#p3a8c7977dd)" style="fill: #450457"/>
    <path d="M 225.72 102.683077 
L 234.036 102.683077 
L 234.036 96.286154 
L 225.72 96.286154 
L 225.72 102.683077 
" clip-path="url(#p3a8c7977dd)" style="fill: #482071"/>
    <path d="M 225.72 96.286154 
L 234.036 96.286154 
L 234.036 89.889231 
L 225.72 89.889231 
L 225.72 96.286154 
" clip-path="url(#p3a8c7977dd)" style="fill: #443983"/>
    <path d="M 225.72 89.889231 
L 234.036 89.889231 
L 234.036 83.492308 
L 225.72 83.492308 
L 225.72 89.889231 
" clip-path="url(#p3a8c7977dd)" style="fill: #3b518b"/>
    <path d="M 225.72 83.492308 
L 234.036 83.492308 
L 234.036 77.095385 
L 225.72 77.095385 
L 225.72 83.492308 
" clip-path="url(#p3a8c7977dd)" style="fill: #31668e"/>
    <path d="M 225.72 77.095385 
L 234.036 77.095385 
L 234.036 70.698462 
L 225.72 70.698462 
L 225.72 77.095385 
" clip-path="url(#p3a8c7977dd)" style="fill: #29798e"/>
    <path d="M 225.72 70.698462 
L 234.036 70.698462 
L 234.036 64.301538 
L 225.72 64.301538 
L 225.72 70.698462 
" clip-path="url(#p3a8c7977dd)" style="fill: #228d8d"/>
    <path d="M 225.72 64.301538 
L 234.036 64.301538 
L 234.036 57.904615 
L 225.72 57.904615 
L 225.72 64.301538 
" clip-path="url(#p3a8c7977dd)" style="fill: #1fa088"/>
    <path d="M 225.72 57.904615 
L 234.036 57.904615 
L 234.036 51.507692 
L 225.72 51.507692 
L 225.72 57.904615 
" clip-path="url(#p3a8c7977dd)" style="fill: #2db27d"/>
    <path d="M 225.72 51.507692 
L 234.036 51.507692 
L 234.036 45.110769 
L 225.72 45.110769 
L 225.72 51.507692 
" clip-path="url(#p3a8c7977dd)" style="fill: #4ec36b"/>
    <path d="M 225.72 45.110769 
L 234.036 45.110769 
L 234.036 38.713846 
L 225.72 38.713846 
L 225.72 45.110769 
" clip-path="url(#p3a8c7977dd)" style="fill: #7cd250"/>
    <path d="M 225.72 38.713846 
L 234.036 38.713846 
L 234.036 32.316923 
L 225.72 32.316923 
L 225.72 38.713846 
" clip-path="url(#p3a8c7977dd)" style="fill: #b0dd2f"/>
    <path d="M 225.72 32.316923 
L 234.036 32.316923 
L 234.036 25.92 
L 225.72 25.92 
L 225.72 32.316923 
" clip-path="url(#p3a8c7977dd)" style="fill: #e5e419"/>
   </g>
   <g id="matplotlib.axis_3"/>
   <g id="matplotlib.axis_4">
    <g id="ytick_4">
     <g id="line2d_7">
      <defs>
       <path id="m8f2a0a6b56" d="M 0 0 
L 3.5 0 
" style="stroke: #000000; stroke-width: 0.8"/>
      </defs>
      <g>
       <use xlink:href="#m8f2a0a6b56" x="234.036" y="179.446154" style="stroke: #000000; stroke-width: 0.8"/>
      </g>
     </g>
     <g id="text_12">
      <!-- $\mathdefault{13100}$ -->
      <g transform="translate(241.036 183.245373) scale(0.1 -0.1)">
       <defs>
        <path id="DejaVuSans-2212" d="M 678 2272 
L 4684 2272 
L 4684 1741 
L 678 1741 
L 678 2272 
z
" transform="scale(0.015625)"/>
       </defs>
       <use xlink:href="#DejaVuSans-2212" transform="translate(0 0.78125)"/>
       <use xlink:href="#DejaVuSans-31" transform="translate(83.789062 0.78125)"/>
       <use xlink:href="#DejaVuSans-33" transform="translate(147.412109 0.78125)"/>
       <use xlink:href="#DejaVuSans-31" transform="translate(211.035156 0.78125)"/>
       <use xlink:href="#DejaVuSans-30" transform="translate(274.658203 0.78125)"/>
       <use xlink:href="#DejaVuSans-30" transform="translate(338.28125 0.78125)"/>
      </g>
     </g>
    </g>
    <g id="ytick_5">
     <g id="line2d_8">
      <g>
       <use xlink:href="#m8f2a0a6b56" x="234.036" y="160.255385" style="stroke: #000000; stroke-width: 0.8"/>
      </g>
     </g>
     <g id="text_13">
      <!-- $\mathdefault{12800}$ -->
      <g transform="translate(241.036 164.054603) scale(0.1 -0.1)">
       <defs>
        <path id="DejaVuSans-38" d="M 2034 2216 
Q 1584 2216 1326 1975 
Q 1069 1734 1069 1313 
Q 1069 891 1326 650 
Q 1584 409 2034 409 
Q 2484 409 2743 651 
Q 3003 894 3003 1313 
Q 3003 1734 2745 1975 
Q 2488 2216 2034 2216 
z
M 1403 2484 
Q 997 2584 770 2862 
Q 544 3141 544 3541 
Q 544 4100 942 4425 
Q 1341 4750 2034 4750 
Q 2731 4750 3128 4425 
Q 3525 4100 3525 3541 
Q 3525 3141 3298 2862 
Q 3072 2584 2669 2484 
Q 3125 2378 3379 2068 
Q 3634 1759 3634 1313 
Q 3634 634 3220 271 
Q 2806 -91 2034 -91 
Q 1263 -91 848 271 
Q 434 634 434 1313 
Q 434 1759 690 2068 
Q 947 2378 1403 2484 
z
M 1172 3481 
Q 1172 3119 1398 2916 
Q 1625 2713 2034 2713 
Q 2441 2713 2670 2916 
Q 2900 3119 2900 3481 
Q 2900 3844 2670 4047 
Q 2441 4250 2034 4250 
Q 1625 4250 1398 4047 
Q 1172 3844 1172 3481 
z
" transform="scale(0.015625)"/>
       </defs>
       <use xlink:href="#DejaVuSans-2212" transform="translate(0 0.78125)"/>
       <use xlink:href="#DejaVuSans-31" transform="translate(83.789062 0.78125)"/>
       <use xlink:href="#DejaVuSans-32" transform="translate(147.412109 0.78125)"/>
       <use xlink:href="#DejaVuSans-38" transform="translate(211.035156 0.78125)"/>
       <use xlink:href="#DejaVuSans-30" transform="translate(274.658203 0.78125)"/>
       <use xlink:href="#DejaVuSans-30" transform="translate(338.28125 0.78125)"/>
      </g>
     </g>
    </g>
    <g id="ytick_6">
     <g id="line2d_9">
      <g>
       <use xlink:href="#m8f2a0a6b56" x="234.036" y="141.064615" style="stroke: #000000; stroke-width: 0.8"/>
      </g>
     </g>
     <g id="text_14">
      <!-- $\mathdefault{12500}$ -->
      <g transform="translate(241.036 144.863834) scale(0.1 -0.1)">
       <use xlink:href="#DejaVuSans-2212" transform="translate(0 0.78125)"/>
       <use xlink:href="#DejaVuSans-31" transform="translate(83.789062 0.78125)"/>
       <use xlink:href="#DejaVuSans-32" transform="translate(147.412109 0.78125)"/>
       <use xlink:href="#DejaVuSans-35" transform="translate(211.035156 0.78125)"/>
       <use xlink:href="#DejaVuSans-30" transform="translate(274.658203 0.78125)"/>
       <use xlink:href="#DejaVuSans-30" transform="translate(338.28125 0.78125)"/>
      </g>
     </g>
    </g>
    <g id="ytick_7">
     <g id="line2d_10">
      <g>
       <use xlink:href="#m8f2a0a6b56" x="234.036" y="121.873846" style="stroke: #000000; stroke-width: 0.8"/>
      </g>
     </g>
     <g id="text_15">
      <!-- $\mathdefault{12200}$ -->
      <g transform="translate(241.036 125.673065) scale(0.1 -0.1)">
       <use xlink:href="#DejaVuSans-2212" transform="translate(0 0.78125)"/>
       <use xlink:href="#DejaVuSans-31" transform="translate(83.789062 0.78125)"/>
       <use xlink:href="#DejaVuSans-32" transform="translate(147.412109 0.78125)"/>
       <use xlink:href="#DejaVuSans-32" transform="translate(211.035156 0.78125)"/>
       <use xlink:href="#DejaVuSans-30" transform="translate(274.658203 0.78125)"/>
       <use xlink:href="#DejaVuSans-30" transform="translate(338.28125 0.78125)"/>
      </g>
     </g>
    </g>
    <g id="ytick_8">
     <g id="line2d_11">
      <g>
       <use xlink:href="#m8f2a0a6b56" x="234.036" y="102.683077" style="stroke: #000000; stroke-width: 0.8"/>
      </g>
     </g>
     <g id="text_16">
      <!-- $\mathdefault{11900}$ -->
      <g transform="translate(241.036 106.482296) scale(0.1 -0.1)">
       <defs>
        <path id="DejaVuSans-39" d="M 703 97 
L 703 672 
Q 941 559 1184 500 
Q 1428 441 1663 441 
Q 2288 441 2617 861 
Q 2947 1281 2994 2138 
Q 2813 1869 2534 1725 
Q 2256 1581 1919 1581 
Q 1219 1581 811 2004 
Q 403 2428 403 3163 
Q 403 3881 828 4315 
Q 1253 4750 1959 4750 
Q 2769 4750 3195 4129 
Q 3622 3509 3622 2328 
Q 3622 1225 3098 567 
Q 2575 -91 1691 -91 
Q 1453 -91 1209 -44 
Q 966 3 703 97 
z
M 1959 2075 
Q 2384 2075 2632 2365 
Q 2881 2656 2881 3163 
Q 2881 3666 2632 3958 
Q 2384 4250 1959 4250 
Q 1534 4250 1286 3958 
Q 1038 3666 1038 3163 
Q 1038 2656 1286 2365 
Q 1534 2075 1959 2075 
z
" transform="scale(0.015625)"/>
       </defs>
       <use xlink:href="#DejaVuSans-2212" transform="translate(0 0.78125)"/>
       <use xlink:href="#DejaVuSans-31" transform="translate(83.789062 0.78125)"/>
       <use xlink:href="#DejaVuSans-31" transform="translate(147.412109 0.78125)"/>
       <use xlink:href="#DejaVuSans-39" transform="translate(211.035156 0.78125)"/>
       <use xlink:href="#DejaVuSans-30" transform="translate(274.658203 0.78125)"/>
       <use xlink:href="#DejaVuSans-30" transform="translate(338.28125 0.78125)"/>
      </g>
     </g>
    </g>
    <g id="ytick_9">
     <g id="line2d_12">
      <g>
       <use xlink:href="#m8f2a0a6b56" x="234.036" y="83.492308" style="stroke: #000000; stroke-width: 0.8"/>
      </g>
     </g>
     <g id="text_17">
      <!-- $\mathdefault{11600}$ -->
      <g transform="translate(241.036 87.291526) scale(0.1 -0.1)">
       <defs>
        <path id="DejaVuSans-36" d="M 2113 2584 
Q 1688 2584 1439 2293 
Q 1191 2003 1191 1497 
Q 1191 994 1439 701 
Q 1688 409 2113 409 
Q 2538 409 2786 701 
Q 3034 994 3034 1497 
Q 3034 2003 2786 2293 
Q 2538 2584 2113 2584 
z
M 3366 4563 
L 3366 3988 
Q 3128 4100 2886 4159 
Q 2644 4219 2406 4219 
Q 1781 4219 1451 3797 
Q 1122 3375 1075 2522 
Q 1259 2794 1537 2939 
Q 1816 3084 2150 3084 
Q 2853 3084 3261 2657 
Q 3669 2231 3669 1497 
Q 3669 778 3244 343 
Q 2819 -91 2113 -91 
Q 1303 -91 875 529 
Q 447 1150 447 2328 
Q 447 3434 972 4092 
Q 1497 4750 2381 4750 
Q 2619 4750 2861 4703 
Q 3103 4656 3366 4563 
z
" transform="scale(0.015625)"/>
       </defs>
       <use xlink:href="#DejaVuSans-2212" transform="translate(0 0.78125)"/>
       <use xlink:href="#DejaVuSans-31" transform="translate(83.789062 0.78125)"/>
       <use xlink:href="#DejaVuSans-31" transform="translate(147.412109 0.78125)"/>
       <use xlink:href="#DejaVuSans-36" transform="translate(211.035156 0.78125)"/>
       <use xlink:href="#DejaVuSans-30" transform="translate(274.658203 0.78125)"/>
       <use xlink:href="#DejaVuSans-30" transform="translate(338.28125 0.78125)"/>
      </g>
     </g>
    </g>
    <g id="ytick_10">
     <g id="line2d_13">
      <g>
       <use xlink:href="#m8f2a0a6b56" x="234.036" y="64.301538" style="stroke: #000000; stroke-width: 0.8"/>
      </g>
     </g>
     <g id="text_18">
      <!-- $\mathdefault{11300}$ -->
      <g transform="translate(241.036 68.100757) scale(0.1 -0.1)">
       <use xlink:href="#DejaVuSans-2212" transform="translate(0 0.78125)"/>
       <use xlink:href="#DejaVuSans-31" transform="translate(83.789062 0.78125)"/>
       <use xlink:href="#DejaVuSans-31" transform="translate(147.412109 0.78125)"/>
       <use xlink:href="#DejaVuSans-33" transform="translate(211.035156 0.78125)"/>
       <use xlink:href="#DejaVuSans-30" transform="translate(274.658203 0.78125)"/>
       <use xlink:href="#DejaVuSans-30" transform="translate(338.28125 0.78125)"/>
      </g>
     </g>
    </g>
    <g id="ytick_11">
     <g id="line2d_14">
      <g>
       <use xlink:href="#m8f2a0a6b56" x="234.036" y="45.110769" style="stroke: #000000; stroke-width: 0.8"/>
      </g>
     </g>
     <g id="text_19">
      <!-- $\mathdefault{11000}$ -->
      <g transform="translate(241.036 48.909988) scale(0.1 -0.1)">
       <use xlink:href="#DejaVuSans-2212" transform="translate(0 0.78125)"/>
       <use xlink:href="#DejaVuSans-31" transform="translate(83.789062 0.78125)"/>
       <use xlink:href="#DejaVuSans-31" transform="translate(147.412109 0.78125)"/>
       <use xlink:href="#DejaVuSans-30" transform="translate(211.035156 0.78125)"/>
       <use xlink:href="#DejaVuSans-30" transform="translate(274.658203 0.78125)"/>
       <use xlink:href="#DejaVuSans-30" transform="translate(338.28125 0.78125)"/>
      </g>
     </g>
    </g>
    <g id="ytick_12">
     <g id="line2d_15">
      <g>
       <use xlink:href="#m8f2a0a6b56" x="234.036" y="25.92" style="stroke: #000000; stroke-width: 0.8"/>
      </g>
     </g>
     <g id="text_20">
      <!-- $\mathdefault{10700}$ -->
      <g transform="translate(241.036 29.719219) scale(0.1 -0.1)">
       <use xlink:href="#DejaVuSans-2212" transform="translate(0 0.78125)"/>
       <use xlink:href="#DejaVuSans-31" transform="translate(83.789062 0.78125)"/>
       <use xlink:href="#DejaVuSans-30" transform="translate(147.412109 0.78125)"/>
       <use xlink:href="#DejaVuSans-37" transform="translate(211.035156 0.78125)"/>
       <use xlink:href="#DejaVuSans-30" transform="translate(274.658203 0.78125)"/>
       <use xlink:href="#DejaVuSans-30" transform="translate(338.28125 0.78125)"/>
      </g>
     </g>
    </g>
    <g id="text_21">
     <!-- log likelihood -->
     <g transform="translate(294.354125 148.704375) rotate(-90) scale(0.12 -0.12)">
      <defs>
       <path id="DejaVuSans-67" d="M 2906 1791 
Q 2906 2416 2648 2759 
Q 2391 3103 1925 3103 
Q 1463 3103 1205 2759 
Q 947 2416 947 1791 
Q 947 1169 1205 825 
Q 1463 481 1925 481 
Q 2391 481 2648 825 
Q 2906 1169 2906 1791 
z
M 3481 434 
Q 3481 -459 3084 -895 
Q 2688 -1331 1869 -1331 
Q 1566 -1331 1297 -1286 
Q 1028 -1241 775 -1147 
L 775 -588 
Q 1028 -725 1275 -790 
Q 1522 -856 1778 -856 
Q 2344 -856 2625 -561 
Q 2906 -266 2906 331 
L 2906 616 
Q 2728 306 2450 153 
Q 2172 0 1784 0 
Q 1141 0 747 490 
Q 353 981 353 1791 
Q 353 2603 747 3093 
Q 1141 3584 1784 3584 
Q 2172 3584 2450 3431 
Q 2728 3278 2906 2969 
L 2906 3500 
L 3481 3500 
L 3481 434 
z
" transform="scale(0.015625)"/>
       <path id="DejaVuSans-6b" d="M 581 4863 
L 1159 4863 
L 1159 1991 
L 2875 3500 
L 3609 3500 
L 1753 1863 
L 3688 0 
L 2938 0 
L 1159 1709 
L 1159 0 
L 581 0 
L 581 4863 
z
" transform="scale(0.015625)"/>
       <path id="DejaVuSans-68" d="M 3513 2113 
L 3513 0 
L 2938 0 
L 2938 2094 
Q 2938 2591 2744 2837 
Q 2550 3084 2163 3084 
Q 1697 3084 1428 2787 
Q 1159 2491 1159 1978 
L 1159 0 
L 581 0 
L 581 4863 
L 1159 4863 
L 1159 2956 
Q 1366 3272 1645 3428 
Q 1925 3584 2291 3584 
Q 2894 3584 3203 3211 
Q 3513 2838 3513 2113 
z
" transform="scale(0.015625)"/>
      </defs>
      <use xlink:href="#DejaVuSans-6c"/>
      <use xlink:href="#DejaVuSans-6f" x="27.783203"/>
      <use xlink:href="#DejaVuSans-67" x="88.964844"/>
      <use xlink:href="#DejaVuSans-20" x="152.441406"/>
      <use xlink:href="#DejaVuSans-6c" x="184.228516"/>
      <use xlink:href="#DejaVuSans-69" x="212.011719"/>
      <use xlink:href="#DejaVuSans-6b" x="239.794922"/>
      <use xlink:href="#DejaVuSans-65" x="294.080078"/>
      <use xlink:href="#DejaVuSans-6c" x="355.603516"/>
      <use xlink:href="#DejaVuSans-69" x="383.386719"/>
      <use xlink:href="#DejaVuSans-68" x="411.169922"/>
      <use xlink:href="#DejaVuSans-6f" x="474.548828"/>
      <use xlink:href="#DejaVuSans-6f" x="535.730469"/>
      <use xlink:href="#DejaVuSans-64" x="596.912109"/>
     </g>
    </g>
    <g id="text_22">
     <!-- $\times\mathdefault{10^{3}}\mathdefault{}$ -->
     <g transform="translate(208.036 22.92) scale(0.1 -0.1)">
      <use xlink:href="#DejaVuSans-d7" transform="translate(0 0.765625)"/>
      <use xlink:href="#DejaVuSans-31" transform="translate(83.789062 0.765625)"/>
      <use xlink:href="#DejaVuSans-30" transform="translate(147.412109 0.765625)"/>
      <use xlink:href="#DejaVuSans-33" transform="translate(211.992188 39.046875) scale(0.7)"/>
     </g>
    </g>
   </g>
   <g id="LineCollection_1"/>
   <g id="patch_8">
    <path d="M 225.72 192.24 
L 229.878 192.24 
L 234.036 192.24 
L 234.036 25.92 
L 229.878 25.92 
L 225.72 25.92 
L 225.72 192.24 
z
" style="fill: none; stroke: #000000; stroke-width: 0.8; stroke-linejoin: miter; stroke-linecap: square"/>
   </g>
  </g>
 </g>
 <defs>
  <clipPath id="p118dd17941">
   <rect x="36" y="25.92" width="178.56" height="166.32"/>
  </clipPath>
  <clipPath id="p3a8c7977dd">
   <rect x="225.72" y="25.92" width="8.316" height="166.32"/>
  </clipPath>
 </defs>
</svg>
