<?xml version="1.0" encoding="utf-8" standalone="no"?>
<!DOCTYPE svg PUBLIC "-//W3C//DTD SVG 1.1//EN"
  "http://www.w3.org/Graphics/SVG/1.1/DTD/svg11.dtd">
<svg xmlns:xlink="http://www.w3.org/1999/xlink" width="288pt" height="216pt" viewBox="0 0 288 216" xmlns="http://www.w3.org/2000/svg" version="1.1">
 <metadata>
  <rdf:RDF xmlns:dc="http://purl.org/dc/elements/1.1/" xmlns:cc="http://creativecommons.org/ns#" xmlns:rdf="http://www.w3.org/1999/02/22-rdf-syntax-ns#">
   <cc:Work>
    <dc:type rdf:resource="http://purl.org/dc/dcmitype/StillImage"/>
    <dc:date>2023-07-18T17:59:17.782259</dc:date>
    <dc:format>image/svg+xml</dc:format>
    <dc:creator>
     <cc:Agent>
      <dc:title>Matplotlib v3.7.1, https://matplotlib.org/</dc:title>
     </cc:Agent>
    </dc:creator>
   </cc:Work>
  </rdf:RDF>
 </metadata>
 <defs>
  <style type="text/css">*{stroke-linejoin: round; stroke-linecap: butt}</style>
 </defs>
 <g id="figure_1">
  <g id="patch_1">
   <path d="M 0 216 
L 288 216 
L 288 0 
L 0 0 
z
" style="fill: #ffffff"/>
  </g>
  <g id="axes_1">
   <g id="patch_2">
    <path d="M 36 192.24 
L 214.56 192.24 
L 214.56 25.92 
L 36 25.92 
z
" style="fill: #ffffff"/>
   </g>
   <g id="PathCollection_1">
    <path d="M 36.578652 192.24 
L 36 192.24 
L 36 191.57947 
z
" clip-path="url(#p11fcd4ca67)" style="fill: #440154"/>
   </g>
   <g id="PathCollection_2">
    <path d="M 38.239436 192.24 
L 36.578652 192.24 
L 36 191.57947 
L 36 189.683686 
z
" clip-path="url(#p11fcd4ca67)" style="fill: #440154"/>
   </g>
   <g id="PathCollection_3">
    <path d="M 39.900221 192.24 
L 38.239436 192.24 
L 36 189.683686 
L 36 187.787902 
z
" clip-path="url(#p11fcd4ca67)" style="fill: #440154"/>
   </g>
   <g id="PathCollection_4">
    <path d="M 36 186.696 
L 36 185.769334 
L 36.731568 186.696 
L 41.561006 192.24 
L 39.900221 192.24 
L 36 187.787902 
z
" clip-path="url(#p11fcd4ca67)" style="fill: #440154"/>
   </g>
   <g id="PathCollection_5">
    <path d="M 36.731568 186.696 
L 36 185.769334 
L 36 183.583992 
L 38.456813 186.696 
L 41.952 190.720981 
L 43.518149 192.24 
L 41.952 192.24 
L 41.561006 192.24 
z
" clip-path="url(#p11fcd4ca67)" style="fill: #440154"/>
   </g>
   <g id="PathCollection_6">
    <path d="M 38.456813 186.696 
L 36 183.583992 
L 36 181.398651 
L 40.182059 186.696 
L 41.952 188.734226 
L 45.566547 192.24 
L 43.518149 192.24 
L 41.952 190.720981 
z
" clip-path="url(#p11fcd4ca67)" style="fill: #440154"/>
   </g>
   <g id="PathCollection_7">
    <path d="M 40.182059 186.696 
L 36 181.398651 
L 36 181.152 
L 36 178.928465 
L 37.591534 181.152 
L 41.907304 186.696 
L 41.952 186.74747 
L 47.614945 192.24 
L 45.566547 192.24 
L 41.952 188.734226 
z
" clip-path="url(#p11fcd4ca67)" style="fill: #440154"/>
   </g>
   <g id="PathCollection_8">
    <path d="M 41.907304 186.696 
L 37.591534 181.152 
L 36 178.928465 
L 36 176.422039 
L 39.385551 181.152 
L 41.952 184.450199 
L 44.026751 186.696 
L 47.904 190.462761 
L 50.113604 192.24 
L 47.904 192.24 
L 47.614945 192.24 
L 41.952 186.74747 
z
" clip-path="url(#p11fcd4ca67)" style="fill: #440154"/>
   </g>
   <g id="PathCollection_9">
    <path d="M 39.385551 181.152 
L 36 176.422039 
L 36 175.608 
L 36 173.664066 
L 37.260444 175.608 
L 41.179568 181.152 
L 41.952 182.144669 
L 46.156681 186.696 
L 47.904 188.393526 
L 52.686241 192.24 
L 50.113604 192.24 
L 47.904 190.462761 
L 44.026751 186.696 
L 41.952 184.450199 
z
" clip-path="url(#p11fcd4ca67)" style="fill: #440154"/>
   </g>
   <g id="PathCollection_10">
    <path d="M 41.179568 181.152 
L 37.260444 175.608 
L 36 173.664066 
L 36 170.785098 
L 39.127162 175.608 
L 41.952 179.636194 
L 43.215627 181.152 
L 47.904 186.261565 
L 48.386339 186.696 
L 53.856 191.069292 
L 55.627363 192.24 
L 53.856 192.24 
L 52.686241 192.24 
L 47.904 188.393526 
L 46.156681 186.696 
L 41.952 182.144669 
z
" clip-path="url(#p11fcd4ca67)" style="fill: #440154"/>
    <path d="M 196.21424 25.92 
L 196.704 25.92 
L 202.656 25.92 
L 208.608 25.92 
L 214.56 25.92 
L 214.56 31.464 
L 214.56 32.803914 
L 210.730258 31.464 
L 208.608 30.711593 
L 202.656 28.48704 
L 196.704 26.12482 
z
" clip-path="url(#p11fcd4ca67)" style="fill: #440154"/>
   </g>
   <g id="PathCollection_11">
    <path d="M 39.127162 175.608 
L 36 170.785098 
L 36 170.064 
L 36 167.582494 
L 37.456373 170.064 
L 40.993881 175.608 
L 41.952 176.97427 
L 45.434696 181.152 
L 47.904 183.84314 
L 51.071432 186.696 
L 53.856 188.922414 
L 58.875741 192.24 
L 55.627363 192.24 
L 53.856 191.069292 
L 48.386339 186.696 
L 47.904 186.261565 
L 43.215627 181.152 
L 41.952 179.636194 
z
" clip-path="url(#p11fcd4ca67)" style="fill: #440154"/>
    <path d="M 179.749307 25.92 
L 184.8 25.92 
L 190.752 25.92 
L 196.21424 25.92 
L 196.704 26.12482 
L 202.656 28.48704 
L 208.608 30.711593 
L 210.730258 31.464 
L 214.56 32.803914 
L 214.56 37.008 
L 214.56 39.748337 
L 208.608 37.727954 
L 206.595634 37.008 
L 202.656 35.580841 
L 196.704 33.298132 
L 192.19756 31.464 
L 190.752 30.867179 
L 184.8 28.269307 
z
" clip-path="url(#p11fcd4ca67)" style="fill: #440154"/>
   </g>
   <g id="PathCollection_12">
    <path d="M 40.993881 175.608 
L 37.456373 170.064 
L 36 167.582494 
L 36 164.52 
L 36 164.234149 
L 36.151688 164.52 
L 39.399423 170.064 
L 41.952 174.109213 
L 43.078894 175.608 
L 47.653764 181.152 
L 47.904 181.424716 
L 53.756526 186.696 
L 53.856 186.775535 
L 59.808 190.656249 
L 62.728003 192.24 
L 59.808 192.24 
L 58.875741 192.24 
L 53.856 188.922414 
L 51.071432 186.696 
L 47.904 183.84314 
L 45.434696 181.152 
L 41.952 176.97427 
z
" clip-path="url(#p11fcd4ca67)" style="fill: #440154"/>
    <path d="M 165.043576 25.92 
L 166.944 25.92 
L 172.896 25.92 
L 178.848 25.92 
L 179.749307 25.92 
L 184.8 28.269307 
L 190.752 30.867179 
L 192.19756 31.464 
L 196.704 33.298132 
L 202.656 35.580841 
L 206.595634 37.008 
L 208.608 37.727954 
L 214.56 39.748337 
L 214.56 42.552 
L 214.56 46.671145 
L 208.608 44.718012 
L 202.656 42.64591 
L 202.399627 42.552 
L 196.704 40.44138 
L 190.752 38.095255 
L 188.148076 37.008 
L 184.8 35.590819 
L 178.848 32.913885 
L 175.816138 31.464 
L 172.896 30.045344 
L 166.944 26.965897 
z
" clip-path="url(#p11fcd4ca67)" style="fill: #440154"/>
   </g>
   <g id="PathCollection_13">
    <path d="M 39.399423 170.064 
L 36.151688 164.52 
L 36 164.234149 
L 36 160.422091 
L 38.174569 164.52 
L 41.342473 170.064 
L 41.952 171.029952 
L 45.3941 175.608 
L 47.904 178.656816 
L 50.397686 181.152 
L 53.856 184.26205 
L 57.138899 186.696 
L 59.808 188.435023 
L 65.76 191.644658 
L 67.094075 192.24 
L 65.76 192.24 
L 62.728003 192.24 
L 59.808 190.656249 
L 53.856 186.775535 
L 53.756526 186.696 
L 47.904 181.424716 
L 47.653764 181.152 
L 43.078894 175.608 
L 41.952 174.109213 
z
" clip-path="url(#p11fcd4ca67)" style="fill: #440154"/>
    <path d="M 151.76546 25.92 
L 155.04 25.92 
L 160.992 25.92 
L 165.043576 25.92 
L 166.944 26.965897 
L 172.896 30.045344 
L 175.816138 31.464 
L 178.848 32.913885 
L 184.8 35.590819 
L 188.148076 37.008 
L 190.752 38.095255 
L 196.704 40.44138 
L 202.399627 42.552 
L 202.656 42.64591 
L 208.608 44.718012 
L 214.56 46.671145 
L 214.56 48.096 
L 214.56 53.587537 
L 208.608 51.700374 
L 202.656 49.697821 
L 198.165454 48.096 
L 196.704 47.569367 
L 190.752 45.304442 
L 184.8 42.888992 
L 184.01434 42.552 
L 178.848 40.307311 
L 172.896 37.544033 
L 171.807078 37.008 
L 166.944 34.577237 
L 161.130782 31.464 
L 160.992 31.388396 
L 155.04 27.947432 
z
" clip-path="url(#p11fcd4ca67)" style="fill: #440154"/>
   </g>
   <g id="PathCollection_14">
    <path d="M 41.342473 170.064 
L 38.174569 164.52 
L 36 160.422091 
L 36 158.976 
L 36 156.247045 
L 37.307212 158.976 
L 40.197449 164.52 
L 41.952 167.615023 
L 43.611451 170.064 
L 47.709306 175.608 
L 47.904 175.844498 
L 53.208315 181.152 
L 53.856 181.734461 
L 59.808 186.124116 
L 60.747487 186.696 
L 65.76 189.351753 
L 71.712 192.00087 
L 72.360486 192.24 
L 71.712 192.24 
L 67.094075 192.24 
L 65.76 191.644658 
L 59.808 188.435023 
L 57.138899 186.696 
L 53.856 184.26205 
L 50.397686 181.152 
L 47.904 178.656816 
L 45.3941 175.608 
L 41.952 171.029952 
z
" clip-path="url(#p11fcd4ca67)" style="fill: #46075a"/>
    <path d="M 139.660108 25.92 
L 143.136 25.92 
L 149.088 25.92 
L 151.76546 25.92 
L 155.04 27.947432 
L 160.992 31.388396 
L 161.130782 31.464 
L 166.944 34.577237 
L 171.807078 37.008 
L 172.896 37.544033 
L 178.848 40.307311 
L 184.01434 42.552 
L 184.8 42.888992 
L 190.752 45.304442 
L 196.704 47.569367 
L 198.165454 48.096 
L 202.656 49.697821 
L 208.608 51.700374 
L 214.56 53.587537 
L 214.56 53.64 
L 214.56 59.184 
L 214.56 60.520331 
L 210.200661 59.184 
L 208.608 58.692849 
L 202.656 56.758629 
L 196.704 54.701942 
L 193.801682 53.64 
L 190.752 52.514211 
L 184.8 50.183492 
L 179.802461 48.096 
L 178.848 47.692742 
L 172.896 45.02931 
L 167.726425 42.552 
L 166.944 42.171765 
L 160.992 39.101323 
L 157.202977 37.008 
L 155.04 35.792845 
L 149.088 32.220299 
L 147.90609 31.464 
L 143.136 28.350814 
z
" clip-path="url(#p11fcd4ca67)" style="fill: #46075a"/>
   </g>
   <g id="PathCollection_15">
    <path d="M 40.197449 164.52 
L 37.307212 158.976 
L 36 156.247045 
L 36 153.432 
L 36 151.603 
L 36.788972 153.432 
L 39.413397 158.976 
L 41.952 163.970357 
L 42.287229 164.52 
L 46.029404 170.064 
L 47.904 172.605505 
L 50.604591 175.608 
L 53.856 178.873257 
L 56.620304 181.152 
L 59.808 183.489781 
L 65.075155 186.696 
L 65.76 187.058848 
L 71.712 189.638694 
L 77.664 191.821973 
L 79.029181 192.24 
L 77.664 192.24 
L 72.360486 192.24 
L 71.712 192.00087 
L 65.76 189.351753 
L 60.747487 186.696 
L 59.808 186.124116 
L 53.856 181.734461 
L 53.208315 181.152 
L 47.904 175.844498 
L 47.709306 175.608 
L 43.611451 170.064 
L 41.952 167.615023 
z
" clip-path="url(#p11fcd4ca67)" style="fill: #482374"/>
    <path d="M 128.515621 25.92 
L 131.232 25.92 
L 137.184 25.92 
L 139.660108 25.92 
L 143.136 28.350814 
L 147.90609 31.464 
L 149.088 32.220299 
L 155.04 35.792845 
L 157.202977 37.008 
L 160.992 39.101323 
L 166.944 42.171765 
L 167.726425 42.552 
L 172.896 45.02931 
L 178.848 47.692742 
L 179.802461 48.096 
L 184.8 50.183492 
L 190.752 52.514211 
L 193.801682 53.64 
L 196.704 54.701942 
L 202.656 56.758629 
L 208.608 58.692849 
L 210.200661 59.184 
L 214.56 60.520331 
L 214.56 64.728 
L 214.56 67.492537 
L 208.608 65.723191 
L 205.440534 64.728 
L 202.656 63.849585 
L 196.704 61.863903 
L 190.752 59.747785 
L 189.252438 59.184 
L 184.8 57.497742 
L 178.848 55.095064 
L 175.463377 53.64 
L 172.896 52.524912 
L 166.944 49.772434 
L 163.550912 48.096 
L 160.992 46.814899 
L 155.04 43.632253 
L 153.146787 42.552 
L 149.088 40.197936 
L 143.96468 37.008 
L 143.136 36.482338 
L 137.184 32.453424 
L 135.816826 31.464 
L 131.232 28.071485 
z
" clip-path="url(#p11fcd4ca67)" style="fill: #482374"/>
   </g>
   <g id="PathCollection_16">
    <path d="M 39.413397 158.976 
L 36.788972 153.432 
L 36 151.603 
L 36 147.888 
L 36 146.300091 
L 36.61483 147.888 
L 38.981982 153.432 
L 41.519582 158.976 
L 41.952 159.826723 
L 44.814449 164.52 
L 47.904 169.203157 
L 48.600312 170.064 
L 53.553135 175.608 
L 53.856 175.912155 
L 59.808 180.80197 
L 60.325448 181.152 
L 65.76 184.3904 
L 70.366966 186.696 
L 71.712 187.276517 
L 77.664 189.392814 
L 83.616 191.188039 
L 87.73263 192.24 
L 83.616 192.24 
L 79.029181 192.24 
L 77.664 191.821973 
L 71.712 189.638694 
L 65.76 187.058848 
L 65.075155 186.696 
L 59.808 183.489781 
L 56.620304 181.152 
L 53.856 178.873257 
L 50.604591 175.608 
L 47.904 172.605505 
L 46.029404 170.064 
L 42.287229 164.52 
L 41.952 163.970357 
z
" clip-path="url(#p11fcd4ca67)" style="fill: #443b84"/>
    <path d="M 118.129201 25.92 
L 119.328 25.92 
L 125.28 25.92 
L 128.515621 25.92 
L 131.232 28.071485 
L 135.816826 31.464 
L 137.184 32.453424 
L 143.136 36.482338 
L 143.96468 37.008 
L 149.088 40.197936 
L 153.146787 42.552 
L 155.04 43.632253 
L 160.992 46.814899 
L 163.550912 48.096 
L 166.944 49.772434 
L 172.896 52.524912 
L 175.463377 53.64 
L 178.848 55.095064 
L 184.8 57.497742 
L 189.252438 59.184 
L 190.752 59.747785 
L 196.704 61.863903 
L 202.656 63.849585 
L 205.440534 64.728 
L 208.608 65.723191 
L 214.56 67.492537 
L 214.56 70.272 
L 214.56 74.531395 
L 208.608 72.821344 
L 202.656 71.003709 
L 200.388738 70.272 
L 196.704 69.080808 
L 190.752 67.038789 
L 184.8 64.857296 
L 184.46597 64.728 
L 178.848 62.541488 
L 172.896 60.060004 
L 170.919618 59.184 
L 166.944 57.40623 
L 160.992 54.556486 
L 159.195516 53.64 
L 155.04 51.493918 
L 149.088 48.188888 
L 148.930555 48.096 
L 143.136 44.622765 
L 139.92081 42.552 
L 137.184 40.756434 
L 131.859239 37.008 
L 131.232 36.55703 
L 125.28 31.985715 
L 124.643423 31.464 
L 119.328 26.995201 
z
" clip-path="url(#p11fcd4ca67)" style="fill: #443b84"/>
   </g>
   <g id="PathCollection_17">
    <path d="M 41.519582 158.976 
L 38.981982 153.432 
L 36.61483 147.888 
L 36 146.300091 
L 36 142.344 
L 36 140.082332 
L 36.782682 142.344 
L 38.898281 147.888 
L 41.174992 153.432 
L 41.952 155.14157 
L 44.052461 158.976 
L 47.341669 164.52 
L 47.904 165.372384 
L 51.698917 170.064 
L 53.856 172.486093 
L 57.262647 175.608 
L 59.808 177.6926 
L 64.92201 181.152 
L 65.76 181.651351 
L 71.712 184.552599 
L 76.905331 186.696 
L 77.664 186.963655 
L 83.616 188.694121 
L 89.568 190.16427 
L 95.52 191.420676 
L 100.060338 192.24 
L 95.52 192.24 
L 89.568 192.24 
L 87.73263 192.24 
L 83.616 191.188039 
L 77.664 189.392814 
L 71.712 187.276517 
L 70.366966 186.696 
L 65.76 184.3904 
L 60.325448 181.152 
L 59.808 180.80197 
L 53.856 175.912155 
L 53.553135 175.608 
L 48.600312 170.064 
L 47.904 169.203157 
L 44.814449 164.52 
L 41.952 159.826723 
z
" clip-path="url(#p11fcd4ca67)" style="fill: #3b528b"/>
    <path d="M 108.339409 25.92 
L 113.376 25.92 
L 118.129201 25.92 
L 119.328 26.995201 
L 124.643423 31.464 
L 125.28 31.985715 
L 131.232 36.55703 
L 131.859239 37.008 
L 137.184 40.756434 
L 139.92081 42.552 
L 143.136 44.622765 
L 148.930555 48.096 
L 149.088 48.188888 
L 155.04 51.493918 
L 159.195516 53.64 
L 160.992 54.556486 
L 166.944 57.40623 
L 170.919618 59.184 
L 172.896 60.060004 
L 178.848 62.541488 
L 184.46597 64.728 
L 184.8 64.857296 
L 190.752 67.038789 
L 196.704 69.080808 
L 200.388738 70.272 
L 202.656 71.003709 
L 208.608 72.821344 
L 214.56 74.531395 
L 214.56 75.816 
L 214.56 81.36 
L 214.56 81.676185 
L 213.428998 81.36 
L 208.608 80.019593 
L 202.656 78.263623 
L 196.704 76.39268 
L 194.968831 75.816 
L 190.752 74.416124 
L 184.8 72.312422 
L 179.40311 70.272 
L 178.848 70.061548 
L 172.896 67.673169 
L 166.944 65.105343 
L 166.119882 64.728 
L 160.992 62.363282 
L 155.04 59.407328 
L 154.616702 59.184 
L 149.088 56.234625 
L 144.573072 53.64 
L 143.136 52.802416 
L 137.184 49.092935 
L 135.688512 48.096 
L 131.232 45.070193 
L 127.775579 42.552 
L 125.28 40.694563 
L 120.653169 37.008 
L 119.328 35.926029 
L 114.208176 31.464 
L 113.376 30.718477 
z
" clip-path="url(#p11fcd4ca67)" style="fill: #3b528b"/>
   </g>
   <g id="PathCollection_18">
    <path d="M 41.174992 153.432 
L 38.898281 147.888 
L 36.782682 142.344 
L 36 140.082332 
L 36 136.8 
L 36 132.59675 
L 37.292992 136.8 
L 39.160328 142.344 
L 41.181732 147.888 
L 41.952 149.790449 
L 43.737899 153.432 
L 46.695575 158.976 
L 47.904 161.02891 
L 50.439482 164.52 
L 53.856 168.817566 
L 55.078539 170.064 
L 59.808 174.39398 
L 61.423933 175.608 
L 65.76 178.488568 
L 70.558124 181.152 
L 71.712 181.710815 
L 77.664 184.077729 
L 83.616 186.091423 
L 85.746315 186.696 
L 89.568 187.607761 
L 95.52 188.803693 
L 101.472 189.825028 
L 107.424 190.701367 
L 113.376 191.456504 
L 119.328 192.109695 
L 120.714816 192.24 
L 119.328 192.24 
L 113.376 192.24 
L 107.424 192.24 
L 101.472 192.24 
L 100.060338 192.24 
L 95.52 191.420676 
L 89.568 190.16427 
L 83.616 188.694121 
L 77.664 186.963655 
L 76.905331 186.696 
L 71.712 184.552599 
L 65.76 181.651351 
L 64.92201 181.152 
L 59.808 177.6926 
L 57.262647 175.608 
L 53.856 172.486093 
L 51.698917 170.064 
L 47.904 165.372384 
L 47.341669 164.52 
L 44.052461 158.976 
L 41.952 155.14157 
z
" clip-path="url(#p11fcd4ca67)" style="fill: #31678e"/>
    <path d="M 98.951722 25.92 
L 101.472 25.92 
L 107.424 25.92 
L 108.339409 25.92 
L 113.376 30.718477 
L 114.208176 31.464 
L 119.328 35.926029 
L 120.653169 37.008 
L 125.28 40.694563 
L 127.775579 42.552 
L 131.232 45.070193 
L 135.688512 48.096 
L 137.184 49.092935 
L 143.136 52.802416 
L 144.573072 53.64 
L 149.088 56.234625 
L 154.616702 59.184 
L 155.04 59.407328 
L 160.992 62.363282 
L 166.119882 64.728 
L 166.944 65.105343 
L 172.896 67.673169 
L 178.848 70.061548 
L 179.40311 70.272 
L 184.8 72.312422 
L 190.752 74.416124 
L 194.968831 75.816 
L 196.704 76.39268 
L 202.656 78.263623 
L 208.608 80.019593 
L 213.428998 81.36 
L 214.56 81.676185 
L 214.56 86.904 
L 214.56 88.999367 
L 208.608 87.372066 
L 206.985218 86.904 
L 202.656 85.667345 
L 196.704 83.861055 
L 190.752 81.931294 
L 189.087943 81.36 
L 184.8 79.89463 
L 178.848 77.723512 
L 173.966039 75.816 
L 172.896 75.397917 
L 166.944 72.929547 
L 161.002447 70.272 
L 160.992 70.267307 
L 155.04 67.43147 
L 149.788203 64.728 
L 149.088 64.364414 
L 143.136 61.071834 
L 139.963951 59.184 
L 137.184 57.507545 
L 131.232 53.6439 
L 131.22635 53.64 
L 125.28 49.460959 
L 123.468865 48.096 
L 119.328 44.906794 
L 116.467393 42.552 
L 113.376 39.942064 
L 110.110911 37.008 
L 107.424 34.522492 
L 104.300911 31.464 
L 101.472 28.600988 
z
" clip-path="url(#p11fcd4ca67)" style="fill: #31678e"/>
   </g>
   <g id="PathCollection_19">
    <path d="M 41.181732 147.888 
L 39.160328 142.344 
L 37.292992 136.8 
L 36 132.59675 
L 36 131.256 
L 36 125.712 
L 36 122.893516 
L 36.669666 125.712 
L 38.148541 131.256 
L 39.768757 136.8 
L 41.537974 142.344 
L 41.952 143.497663 
L 43.871018 147.888 
L 46.503779 153.432 
L 47.904 156.107409 
L 49.769471 158.976 
L 53.700593 164.52 
L 53.856 164.715483 
L 59.101985 170.064 
L 59.808 170.71038 
L 65.76 175.158015 
L 66.491729 175.608 
L 71.712 178.4169 
L 77.664 181.131777 
L 77.717809 181.152 
L 83.616 183.050337 
L 89.568 184.677449 
L 95.52 186.067065 
L 98.700743 186.696 
L 101.472 187.14963 
L 107.424 187.96955 
L 113.376 188.670198 
L 119.328 189.270761 
L 125.28 189.786855 
L 131.232 190.231272 
L 137.184 190.614565 
L 143.136 190.945488 
L 149.088 191.231348 
L 155.04 191.478279 
L 160.992 191.691455 
L 166.944 191.875263 
L 172.896 192.033443 
L 178.848 192.16919 
L 182.495005 192.24 
L 178.848 192.24 
L 172.896 192.24 
L 166.944 192.24 
L 160.992 192.24 
L 155.04 192.24 
L 149.088 192.24 
L 143.136 192.24 
L 137.184 192.24 
L 131.232 192.24 
L 125.28 192.24 
L 120.714816 192.24 
L 119.328 192.109695 
L 113.376 191.456504 
L 107.424 190.701367 
L 101.472 189.825028 
L 95.52 188.803693 
L 89.568 187.607761 
L 85.746315 186.696 
L 83.616 186.091423 
L 77.664 184.077729 
L 71.712 181.710815 
L 70.558124 181.152 
L 65.76 178.488568 
L 61.423933 175.608 
L 59.808 174.39398 
L 55.078539 170.064 
L 53.856 168.817566 
L 50.439482 164.52 
L 47.904 161.02891 
L 46.695575 158.976 
L 43.737899 153.432 
L 41.952 149.790449 
z
" clip-path="url(#p11fcd4ca67)" style="fill: #297b8e"/>
    <path d="M 94.669203 31.464 
L 89.717358 25.92 
L 95.52 25.92 
L 98.951722 25.92 
L 101.472 28.600988 
L 104.300911 31.464 
L 107.424 34.522492 
L 110.110911 37.008 
L 113.376 39.942064 
L 116.467393 42.552 
L 119.328 44.906794 
L 123.468865 48.096 
L 125.28 49.460959 
L 131.22635 53.64 
L 131.232 53.6439 
L 137.184 57.507545 
L 139.963951 59.184 
L 143.136 61.071834 
L 149.088 64.364414 
L 149.788203 64.728 
L 155.04 67.43147 
L 160.992 70.267307 
L 161.002447 70.272 
L 166.944 72.929547 
L 172.896 75.397917 
L 173.966039 75.816 
L 178.848 77.723512 
L 184.8 79.89463 
L 189.087943 81.36 
L 190.752 81.931294 
L 196.704 83.861055 
L 202.656 85.667345 
L 206.985218 86.904 
L 208.608 87.372066 
L 214.56 88.999367 
L 214.56 92.448 
L 214.56 96.549637 
L 208.608 94.975598 
L 202.656 93.297355 
L 199.814394 92.448 
L 196.704 91.532081 
L 190.752 89.670987 
L 184.8 87.67657 
L 182.629805 86.904 
L 178.848 85.569621 
L 172.896 83.325212 
L 168.044769 81.36 
L 166.944 80.915624 
L 160.992 78.360969 
L 155.504842 75.816 
L 155.04 75.600042 
L 149.088 72.659499 
L 144.615887 70.272 
L 143.136 69.476572 
L 137.184 66.054105 
L 135.034717 64.728 
L 131.232 62.353231 
L 126.518424 59.184 
L 125.28 58.337842 
L 119.328 53.982948 
L 118.887465 53.64 
L 113.376 49.25351 
L 112.011111 48.096 
L 107.424 44.101909 
L 105.743436 42.552 
L 101.472 38.489539 
L 99.989605 37.008 
L 95.52 32.379823 
z
" clip-path="url(#p11fcd4ca67)" style="fill: #297b8e"/>
   </g>
   <g id="PathCollection_20">
    <path d="M 41.537974 142.344 
L 39.768757 136.8 
L 38.148541 131.256 
L 36.669666 125.712 
L 36 122.893516 
L 36 120.168 
L 36 114.624 
L 36 109.08 
L 36 108.712045 
L 36.053827 109.08 
L 37.022754 114.624 
L 38.121447 120.168 
L 39.354288 125.712 
L 40.726554 131.256 
L 41.952 135.696296 
L 42.327662 136.8 
L 44.457297 142.344 
L 46.76689 147.888 
L 47.904 150.343884 
L 49.694578 153.432 
L 53.20621 158.976 
L 53.856 159.894344 
L 57.926422 164.52 
L 59.808 166.449723 
L 64.136877 170.064 
L 65.76 171.266952 
L 71.712 174.89041 
L 73.137644 175.608 
L 77.664 177.58067 
L 83.616 179.762936 
L 88.094458 181.152 
L 89.568 181.539921 
L 95.52 182.835289 
L 101.472 183.935756 
L 107.424 184.873762 
L 113.376 185.675496 
L 119.328 186.362236 
L 122.733431 186.696 
L 125.28 186.897084 
L 131.232 187.292386 
L 137.184 187.628213 
L 143.136 187.913253 
L 149.088 188.154745 
L 155.04 188.358759 
L 160.992 188.530407 
L 166.944 188.674017 
L 172.896 188.793268 
L 178.848 188.891305 
L 184.8 188.970822 
L 190.752 189.034138 
L 196.704 189.083257 
L 202.656 189.119913 
L 208.608 189.145614 
L 214.56 189.161676 
L 214.56 192.24 
L 208.608 192.24 
L 202.656 192.24 
L 196.704 192.24 
L 190.752 192.24 
L 184.8 192.24 
L 182.495005 192.24 
L 178.848 192.16919 
L 172.896 192.033443 
L 166.944 191.875263 
L 160.992 191.691455 
L 155.04 191.478279 
L 149.088 191.231348 
L 143.136 190.945488 
L 137.184 190.614565 
L 131.232 190.231272 
L 125.28 189.786855 
L 119.328 189.270761 
L 113.376 188.670198 
L 107.424 187.96955 
L 101.472 187.14963 
L 98.700743 186.696 
L 95.52 186.067065 
L 89.568 184.677449 
L 83.616 183.050337 
L 77.717809 181.152 
L 77.664 181.131777 
L 71.712 178.4169 
L 66.491729 175.608 
L 65.76 175.158015 
L 59.808 170.71038 
L 59.101985 170.064 
L 53.856 164.715483 
L 53.700593 164.52 
L 49.769471 158.976 
L 47.904 156.107409 
L 46.503779 153.432 
L 43.871018 147.888 
L 41.952 143.497663 
z
" clip-path="url(#p11fcd4ca67)" style="fill: #218e8d"/>
    <path d="M 36 25.92 
L 36.495734 25.92 
L 36 28.632933 
z
" clip-path="url(#p11fcd4ca67)" style="fill: #218e8d"/>
    <path d="M 80.207211 25.92 
L 83.616 25.92 
L 89.568 25.92 
L 89.717358 25.92 
L 94.669203 31.464 
L 95.52 32.379823 
L 99.989605 37.008 
L 101.472 38.489539 
L 105.743436 42.552 
L 107.424 44.101909 
L 112.011111 48.096 
L 113.376 49.25351 
L 118.887465 53.64 
L 119.328 53.982948 
L 125.28 58.337842 
L 126.518424 59.184 
L 131.232 62.353231 
L 135.034717 64.728 
L 137.184 66.054105 
L 143.136 69.476572 
L 144.615887 70.272 
L 149.088 72.659499 
L 155.04 75.600042 
L 155.504842 75.816 
L 160.992 78.360969 
L 166.944 80.915624 
L 168.044769 81.36 
L 172.896 83.325212 
L 178.848 85.569621 
L 182.629805 86.904 
L 184.8 87.67657 
L 190.752 89.670987 
L 196.704 91.532081 
L 199.814394 92.448 
L 202.656 93.297355 
L 208.608 94.975598 
L 214.56 96.549637 
L 214.56 97.992 
L 214.56 103.536 
L 214.56 104.456356 
L 211.087617 103.536 
L 208.608 102.897919 
L 202.656 101.276853 
L 196.704 99.542867 
L 191.725274 97.992 
L 190.752 97.695296 
L 184.8 95.775348 
L 178.848 93.710582 
L 175.443936 92.448 
L 172.896 91.516381 
L 166.944 89.193271 
L 161.514586 86.904 
L 160.992 86.685363 
L 155.04 84.038935 
L 149.486929 81.36 
L 149.088 81.167864 
L 143.136 78.116839 
L 138.98918 75.816 
L 137.184 74.810002 
L 131.232 71.251719 
L 129.70158 70.272 
L 125.28 67.411111 
L 121.426291 64.728 
L 119.328 63.244364 
L 113.969318 59.184 
L 113.376 58.725324 
L 107.424 53.826209 
L 107.209757 53.64 
L 101.472 48.512672 
L 101.028161 48.096 
L 95.52 42.751163 
L 95.322276 42.552 
L 90.007358 37.008 
L 89.568 36.531917 
L 84.993313 31.464 
L 83.616 29.867037 
z
" clip-path="url(#p11fcd4ca67)" style="fill: #218e8d"/>
   </g>
   <g id="PathCollection_21">
    <path d="M 40.726554 131.256 
L 39.354288 125.712 
L 38.121447 120.168 
L 37.022754 114.624 
L 36.053827 109.08 
L 36 108.712045 
L 36 103.536 
L 36 97.992 
L 36 92.448 
L 36 86.904 
L 36 81.36 
L 36 75.816 
L 36 70.272 
L 36 64.728 
L 36 59.184 
L 36 53.64 
L 36 48.096 
L 36 42.552 
L 36 37.008 
L 36 31.464 
L 36 28.632933 
L 36.495734 25.92 
L 41.952 25.92 
L 42.636017 25.92 
L 41.952 27.586541 
L 41.081255 31.464 
L 39.998239 37.008 
L 39.084289 42.552 
L 38.329826 48.096 
L 37.726819 53.64 
L 37.268601 59.184 
L 36.949722 64.728 
L 36.765831 70.272 
L 36.713578 75.816 
L 36.790536 81.36 
L 36.995148 86.904 
L 37.326678 92.448 
L 37.785182 97.992 
L 38.371495 103.536 
L 39.087224 109.08 
L 39.934759 114.624 
L 40.917302 120.168 
L 41.952 125.266045 
L 42.065256 125.712 
L 43.701271 131.256 
L 45.507075 136.8 
L 47.490834 142.344 
L 47.904 143.359543 
L 50.231043 147.888 
L 53.321051 153.432 
L 53.856 154.285269 
L 57.546527 158.976 
L 59.808 161.583117 
L 62.966626 164.52 
L 65.76 166.834318 
L 70.499193 170.064 
L 71.712 170.789087 
L 77.664 173.69048 
L 82.317789 175.608 
L 83.616 176.066355 
L 89.568 177.786072 
L 95.52 179.243277 
L 101.472 180.481783 
L 105.298437 181.152 
L 107.424 181.460109 
L 113.376 182.17419 
L 119.328 182.775433 
L 125.28 183.281205 
L 131.232 183.705793 
L 137.184 184.061026 
L 143.136 184.356757 
L 149.088 184.60124 
L 155.04 184.801431 
L 160.992 184.963217 
L 166.944 185.091607 
L 172.896 185.190884 
L 178.848 185.264721 
L 184.8 185.316286 
L 190.752 185.348317 
L 196.704 185.363189 
L 202.656 185.362972 
L 208.608 185.349472 
L 214.56 185.324271 
L 214.56 186.696 
L 214.56 189.161676 
L 208.608 189.145614 
L 202.656 189.119913 
L 196.704 189.083257 
L 190.752 189.034138 
L 184.8 188.970822 
L 178.848 188.891305 
L 172.896 188.793268 
L 166.944 188.674017 
L 160.992 188.530407 
L 155.04 188.358759 
L 149.088 188.154745 
L 143.136 187.913253 
L 137.184 187.628213 
L 131.232 187.292386 
L 125.28 186.897084 
L 122.733431 186.696 
L 119.328 186.362236 
L 113.376 185.675496 
L 107.424 184.873762 
L 101.472 183.935756 
L 95.52 182.835289 
L 89.568 181.539921 
L 88.094458 181.152 
L 83.616 179.762936 
L 77.664 177.58067 
L 73.137644 175.608 
L 71.712 174.89041 
L 65.76 171.266952 
L 64.136877 170.064 
L 59.808 166.449723 
L 57.926422 164.52 
L 53.856 159.894344 
L 53.20621 158.976 
L 49.694578 153.432 
L 47.904 150.343884 
L 46.76689 147.888 
L 44.457297 142.344 
L 42.327662 136.8 
L 41.952 135.696296 
z
" clip-path="url(#p11fcd4ca67)" style="fill: #1fa188"/>
    <path d="M 69.331418 25.92 
L 71.712 25.92 
L 77.664 25.92 
L 80.207211 25.92 
L 83.616 29.867037 
L 84.993313 31.464 
L 89.568 36.531917 
L 90.007358 37.008 
L 95.322276 42.552 
L 95.52 42.751163 
L 101.028161 48.096 
L 101.472 48.512672 
L 107.209757 53.64 
L 107.424 53.826209 
L 113.376 58.725324 
L 113.969318 59.184 
L 119.328 63.244364 
L 121.426291 64.728 
L 125.28 67.411111 
L 129.70158 70.272 
L 131.232 71.251719 
L 137.184 74.810002 
L 138.98918 75.816 
L 143.136 78.116839 
L 149.088 81.167864 
L 149.486929 81.36 
L 155.04 84.038935 
L 160.992 86.685363 
L 161.514586 86.904 
L 166.944 89.193271 
L 172.896 91.516381 
L 175.443936 92.448 
L 178.848 93.710582 
L 184.8 95.775348 
L 190.752 97.695296 
L 191.725274 97.992 
L 196.704 99.542867 
L 202.656 101.276853 
L 208.608 102.897919 
L 211.087617 103.536 
L 214.56 104.456356 
L 214.56 109.08 
L 214.56 112.93646 
L 208.608 111.397262 
L 202.656 109.748099 
L 200.384695 109.08 
L 196.704 108.040299 
L 190.752 106.24698 
L 184.8 104.315926 
L 182.543945 103.536 
L 178.848 102.296423 
L 172.896 100.156986 
L 167.328274 97.992 
L 166.944 97.845724 
L 160.992 95.440392 
L 155.04 92.824907 
L 154.234851 92.448 
L 149.088 90.069313 
L 143.136 87.076375 
L 142.813838 86.904 
L 137.184 83.906759 
L 132.777752 81.36 
L 131.232 80.465368 
L 125.28 76.77075 
L 123.842995 75.816 
L 119.328 72.78948 
L 115.83181 70.272 
L 113.376 68.477595 
L 108.571032 64.728 
L 107.424 63.814631 
L 101.939502 59.184 
L 101.472 58.778976 
L 95.824987 53.64 
L 95.52 53.353572 
L 90.122516 48.096 
L 89.568 47.535202 
L 84.731872 42.552 
L 83.616 41.350377 
L 79.552775 37.008 
L 77.664 34.883094 
L 74.473079 31.464 
L 71.712 28.323752 
z
" clip-path="url(#p11fcd4ca67)" style="fill: #1fa188"/>
   </g>
   <g id="PathCollection_22">
    <path d="M 40.917302 120.168 
L 39.934759 114.624 
L 39.087224 109.08 
L 38.371495 103.536 
L 37.785182 97.992 
L 37.326678 92.448 
L 36.995148 86.904 
L 36.790536 81.36 
L 36.713578 75.816 
L 36.765831 70.272 
L 36.949722 64.728 
L 37.268601 59.184 
L 37.726819 53.64 
L 38.329826 48.096 
L 39.084289 42.552 
L 39.998239 37.008 
L 41.081255 31.464 
L 41.952 27.586541 
L 42.636017 25.92 
L 47.904 25.92 
L 53.856 25.92 
L 59.808 25.92 
L 65.76 25.92 
L 69.331418 25.92 
L 71.712 28.323752 
L 74.473079 31.464 
L 77.664 34.883094 
L 79.552775 37.008 
L 83.616 41.350377 
L 84.731872 42.552 
L 89.568 47.535202 
L 90.122516 48.096 
L 95.52 53.353572 
L 95.824987 53.64 
L 101.472 58.778976 
L 101.939502 59.184 
L 107.424 63.814631 
L 108.571032 64.728 
L 113.376 68.477595 
L 115.83181 70.272 
L 119.328 72.78948 
L 123.842995 75.816 
L 125.28 76.77075 
L 131.232 80.465368 
L 132.777752 81.36 
L 137.184 83.906759 
L 142.813838 86.904 
L 143.136 87.076375 
L 149.088 90.069313 
L 154.234851 92.448 
L 155.04 92.824907 
L 160.992 95.440392 
L 166.944 97.845724 
L 167.328274 97.992 
L 172.896 100.156986 
L 178.848 102.296423 
L 182.543945 103.536 
L 184.8 104.315926 
L 190.752 106.24698 
L 196.704 108.040299 
L 200.384695 109.08 
L 202.656 109.748099 
L 208.608 111.397262 
L 214.56 112.93646 
L 214.56 114.624 
L 214.56 120.168 
L 214.56 122.378781 
L 208.608 120.759937 
L 206.560873 120.168 
L 202.656 119.117483 
L 196.704 117.40499 
L 190.752 115.555154 
L 187.951439 114.624 
L 184.8 113.633115 
L 178.848 111.628522 
L 172.896 109.450938 
L 171.944056 109.08 
L 166.944 107.212574 
L 160.992 104.800646 
L 158.094323 103.536 
L 155.04 102.243087 
L 149.088 99.525505 
L 145.979959 97.992 
L 143.136 96.616779 
L 137.184 93.50785 
L 135.296029 92.448 
L 131.232 90.190455 
L 125.787503 86.904 
L 125.28 86.598457 
L 119.328 82.779417 
L 117.268329 81.36 
L 113.376 78.660004 
L 109.545347 75.816 
L 107.424 74.219463 
L 102.482387 70.272 
L 101.472 69.448221 
L 95.958796 64.728 
L 95.52 64.341941 
L 89.856443 59.184 
L 89.568 58.912149 
L 84.053581 53.64 
L 83.616 53.203809 
L 78.410837 48.096 
L 77.664 47.32561 
L 72.733177 42.552 
L 71.712 41.503168 
L 66.638674 37.008 
L 65.76 36.17327 
L 59.808 32.166862 
L 55.952412 31.464 
L 53.856 31.042267 
L 53.252786 31.464 
L 47.904 35.994245 
L 47.48816 37.008 
L 45.49878 42.552 
L 43.87941 48.096 
L 42.584369 53.64 
L 41.952 57.038487 
L 41.703716 59.184 
L 41.194755 64.728 
L 40.830988 70.272 
L 40.608259 75.816 
L 40.523421 81.36 
L 40.574265 86.904 
L 40.759467 92.448 
L 41.078555 97.992 
L 41.531882 103.536 
L 41.952 107.445273 
L 42.177564 109.08 
L 43.137817 114.624 
L 44.265779 120.168 
L 45.56369 125.712 
L 47.035407 131.256 
L 47.904 134.106813 
L 48.960888 136.8 
L 51.405483 142.344 
L 53.856 147.433976 
L 54.136246 147.888 
L 57.996786 153.432 
L 59.808 155.791994 
L 62.870625 158.976 
L 65.76 161.662157 
L 69.536665 164.52 
L 71.712 165.967397 
L 77.664 169.221392 
L 79.532724 170.064 
L 83.616 171.640925 
L 89.568 173.553878 
L 95.52 175.174068 
L 97.454744 175.608 
L 101.472 176.356912 
L 107.424 177.272406 
L 113.376 178.034846 
L 119.328 178.667635 
L 125.28 179.189986 
L 131.232 179.617781 
L 137.184 179.964232 
L 143.136 180.2404 
L 149.088 180.455599 
L 155.04 180.617721 
L 160.992 180.733482 
L 166.944 180.808632 
L 172.896 180.848111 
L 178.848 180.856188 
L 184.8 180.836563 
L 190.752 180.792457 
L 196.704 180.726682 
L 202.656 180.641706 
L 208.608 180.539695 
L 214.56 180.422564 
L 214.56 181.152 
L 214.56 185.324271 
L 208.608 185.349472 
L 202.656 185.362972 
L 196.704 185.363189 
L 190.752 185.348317 
L 184.8 185.316286 
L 178.848 185.264721 
L 172.896 185.190884 
L 166.944 185.091607 
L 160.992 184.963217 
L 155.04 184.801431 
L 149.088 184.60124 
L 143.136 184.356757 
L 137.184 184.061026 
L 131.232 183.705793 
L 125.28 183.281205 
L 119.328 182.775433 
L 113.376 182.17419 
L 107.424 181.460109 
L 105.298437 181.152 
L 101.472 180.481783 
L 95.52 179.243277 
L 89.568 177.786072 
L 83.616 176.066355 
L 82.317789 175.608 
L 77.664 173.69048 
L 71.712 170.789087 
L 70.499193 170.064 
L 65.76 166.834318 
L 62.966626 164.52 
L 59.808 161.583117 
L 57.546527 158.976 
L 53.856 154.285269 
L 53.321051 153.432 
L 50.231043 147.888 
L 47.904 143.359543 
L 47.490834 142.344 
L 45.507075 136.8 
L 43.701271 131.256 
L 42.065256 125.712 
L 41.952 125.266045 
z
" clip-path="url(#p11fcd4ca67)" style="fill: #2eb37c"/>
   </g>
   <g id="PathCollection_23">
    <path d="M 41.531882 103.536 
L 41.078555 97.992 
L 40.759467 92.448 
L 40.574265 86.904 
L 40.523421 81.36 
L 40.608259 75.816 
L 40.830988 70.272 
L 41.194755 64.728 
L 41.703716 59.184 
L 41.952 57.038487 
L 42.584369 53.64 
L 43.87941 48.096 
L 45.49878 42.552 
L 47.48816 37.008 
L 47.904 35.994245 
L 53.252786 31.464 
L 53.856 31.042267 
L 55.952412 31.464 
L 59.808 32.166862 
L 65.76 36.17327 
L 66.638674 37.008 
L 71.712 41.503168 
L 72.733177 42.552 
L 77.664 47.32561 
L 78.410837 48.096 
L 83.616 53.203809 
L 84.053581 53.64 
L 89.568 58.912149 
L 89.856443 59.184 
L 95.52 64.341941 
L 95.958796 64.728 
L 101.472 69.448221 
L 102.482387 70.272 
L 107.424 74.219463 
L 109.545347 75.816 
L 113.376 78.660004 
L 117.268329 81.36 
L 119.328 82.779417 
L 125.28 86.598457 
L 125.787503 86.904 
L 131.232 90.190455 
L 135.296029 92.448 
L 137.184 93.50785 
L 143.136 96.616779 
L 145.979959 97.992 
L 149.088 99.525505 
L 155.04 102.243087 
L 158.094323 103.536 
L 160.992 104.800646 
L 166.944 107.212574 
L 171.944056 109.08 
L 172.896 109.450938 
L 178.848 111.628522 
L 184.8 113.633115 
L 187.951439 114.624 
L 190.752 115.555154 
L 196.704 117.40499 
L 202.656 119.117483 
L 206.560873 120.168 
L 208.608 120.759937 
L 214.56 122.378781 
L 214.56 125.712 
L 214.56 131.256 
L 214.56 133.877082 
L 208.608 132.058919 
L 206.162412 131.256 
L 202.656 130.252423 
L 196.704 128.418764 
L 190.752 126.414861 
L 188.807932 125.712 
L 184.8 124.406992 
L 178.848 122.308567 
L 173.306437 120.168 
L 172.896 120.02149 
L 166.944 117.759034 
L 160.992 115.270878 
L 159.551535 114.624 
L 155.04 112.716684 
L 149.088 109.964649 
L 147.312071 109.08 
L 143.136 107.089289 
L 137.184 103.984278 
L 136.380933 103.536 
L 131.232 100.746504 
L 126.581375 97.992 
L 125.28 97.234999 
L 119.328 93.522083 
L 117.72122 92.448 
L 113.376 89.56122 
L 109.650053 86.904 
L 107.424 85.311047 
L 102.229629 81.36 
L 101.472 80.77661 
L 95.52 75.975039 
L 95.327216 75.816 
L 89.568 70.940776 
L 88.781704 70.272 
L 83.616 65.719491 
L 82.452203 64.728 
L 77.664 60.45741 
L 76.089549 59.184 
L 71.712 55.435239 
L 69.099589 53.64 
L 65.76 51.178735 
L 59.808 48.682276 
L 53.856 50.069269 
L 51.453723 53.64 
L 48.587324 59.184 
L 47.904 60.882495 
L 47.123685 64.728 
L 46.246955 70.272 
L 45.617427 75.816 
L 45.216739 81.36 
L 45.030264 86.904 
L 45.046521 92.448 
L 45.256725 97.992 
L 45.654447 103.536 
L 46.235358 109.08 
L 46.997052 114.624 
L 47.904 119.952408 
L 47.953005 120.168 
L 49.506751 125.712 
L 51.27319 131.256 
L 53.255247 136.8 
L 53.856 138.248685 
L 56.060882 142.344 
L 59.333314 147.888 
L 59.808 148.592812 
L 63.943557 153.432 
L 65.76 155.338873 
L 70.06993 158.976 
L 71.712 160.1964 
L 77.664 163.793028 
L 79.137486 164.52 
L 83.616 166.408976 
L 89.568 168.493619 
L 94.918767 170.064 
L 95.52 170.211488 
L 101.472 171.367314 
L 107.424 172.314826 
L 113.376 173.085198 
L 119.328 173.703924 
L 125.28 174.192 
L 131.232 174.566836 
L 137.184 174.842961 
L 143.136 175.032586 
L 149.088 175.146034 
L 155.04 175.192082 
L 160.992 175.17824 
L 166.944 175.110962 
L 172.896 174.995825 
L 178.848 174.837673 
L 184.8 174.640729 
L 190.752 174.408692 
L 196.704 174.144813 
L 202.656 173.851963 
L 208.608 173.532685 
L 214.56 173.189239 
L 214.56 175.608 
L 214.56 180.422564 
L 208.608 180.539695 
L 202.656 180.641706 
L 196.704 180.726682 
L 190.752 180.792457 
L 184.8 180.836563 
L 178.848 180.856188 
L 172.896 180.848111 
L 166.944 180.808632 
L 160.992 180.733482 
L 155.04 180.617721 
L 149.088 180.455599 
L 143.136 180.2404 
L 137.184 179.964232 
L 131.232 179.617781 
L 125.28 179.189986 
L 119.328 178.667635 
L 113.376 178.034846 
L 107.424 177.272406 
L 101.472 176.356912 
L 97.454744 175.608 
L 95.52 175.174068 
L 89.568 173.553878 
L 83.616 171.640925 
L 79.532724 170.064 
L 77.664 169.221392 
L 71.712 165.967397 
L 69.536665 164.52 
L 65.76 161.662157 
L 62.870625 158.976 
L 59.808 155.791994 
L 57.996786 153.432 
L 54.136246 147.888 
L 53.856 147.433976 
L 51.405483 142.344 
L 48.960888 136.8 
L 47.904 134.106813 
L 47.035407 131.256 
L 45.56369 125.712 
L 44.265779 120.168 
L 43.137817 114.624 
L 42.177564 109.08 
L 41.952 107.445273 
z
" clip-path="url(#p11fcd4ca67)" style="fill: #50c46a"/>
   </g>
   <g id="PathCollection_24">
    <path d="M 46.997052 114.624 
L 46.235358 109.08 
L 45.654447 103.536 
L 45.256725 97.992 
L 45.046521 92.448 
L 45.030264 86.904 
L 45.216739 81.36 
L 45.617427 75.816 
L 46.246955 70.272 
L 47.123685 64.728 
L 47.904 60.882495 
L 48.587324 59.184 
L 51.453723 53.64 
L 53.856 50.069269 
L 59.808 48.682276 
L 65.76 51.178735 
L 69.099589 53.64 
L 71.712 55.435239 
L 76.089549 59.184 
L 77.664 60.45741 
L 82.452203 64.728 
L 83.616 65.719491 
L 88.781704 70.272 
L 89.568 70.940776 
L 95.327216 75.816 
L 95.52 75.975039 
L 101.472 80.77661 
L 102.229629 81.36 
L 107.424 85.311047 
L 109.650053 86.904 
L 113.376 89.56122 
L 117.72122 92.448 
L 119.328 93.522083 
L 125.28 97.234999 
L 126.581375 97.992 
L 131.232 100.746504 
L 136.380933 103.536 
L 137.184 103.984278 
L 143.136 107.089289 
L 147.312071 109.08 
L 149.088 109.964649 
L 155.04 112.716684 
L 159.551535 114.624 
L 160.992 115.270878 
L 166.944 117.759034 
L 172.896 120.02149 
L 173.306437 120.168 
L 178.848 122.308567 
L 184.8 124.406992 
L 188.807932 125.712 
L 190.752 126.414861 
L 196.704 128.418764 
L 202.656 130.252423 
L 206.162412 131.256 
L 208.608 132.058919 
L 214.56 133.877082 
L 214.56 136.8 
L 214.56 142.344 
L 214.56 147.888 
L 214.56 153.432 
L 214.56 158.976 
L 214.56 164.52 
L 214.56 170.064 
L 214.56 173.189239 
L 208.608 173.532685 
L 202.656 173.851963 
L 196.704 174.144813 
L 190.752 174.408692 
L 184.8 174.640729 
L 178.848 174.837673 
L 172.896 174.995825 
L 166.944 175.110962 
L 160.992 175.17824 
L 155.04 175.192082 
L 149.088 175.146034 
L 143.136 175.032586 
L 137.184 174.842961 
L 131.232 174.566836 
L 125.28 174.192 
L 119.328 173.703924 
L 113.376 173.085198 
L 107.424 172.314826 
L 101.472 171.367314 
L 95.52 170.211488 
L 94.918767 170.064 
L 89.568 168.493619 
L 83.616 166.408976 
L 79.137486 164.52 
L 77.664 163.793028 
L 71.712 160.1964 
L 70.06993 158.976 
L 65.76 155.338873 
L 63.943557 153.432 
L 59.808 148.592812 
L 59.333314 147.888 
L 56.060882 142.344 
L 53.856 138.248685 
L 53.255247 136.8 
L 51.27319 131.256 
L 49.506751 125.712 
L 47.953005 120.168 
L 47.904 119.952408 
z
M 53.856 123.430203 
L 54.569139 125.712 
L 56.6602 131.256 
L 59.015379 136.8 
L 59.808 138.392344 
L 62.381009 142.344 
L 65.76 147.027048 
L 66.558166 147.888 
L 71.712 152.785162 
L 72.564069 153.432 
L 77.664 156.777267 
L 81.727594 158.976 
L 83.616 159.846039 
L 89.568 162.018243 
L 95.52 163.815383 
L 98.467477 164.52 
L 101.472 165.106612 
L 107.424 165.992658 
L 113.376 166.66574 
L 119.328 167.152606 
L 125.28 167.475138 
L 131.232 167.65133 
L 137.184 167.696044 
L 143.136 167.621607 
L 149.088 167.43827 
L 155.04 167.154582 
L 160.992 166.777674 
L 166.944 166.313495 
L 172.896 165.766999 
L 178.848 165.142289 
L 184.165844 164.52 
L 184.8 164.38474 
L 190.752 162.989844 
L 196.704 161.377645 
L 202.656 159.526189 
L 204.287048 158.976 
L 207.09631 153.432 
L 202.656 149.364309 
L 201.290045 147.888 
L 196.704 145.556975 
L 191.259821 142.344 
L 190.752 142.136005 
L 184.8 139.487505 
L 179.518423 136.8 
L 178.848 136.530731 
L 172.896 133.945891 
L 167.426058 131.256 
L 166.944 131.055248 
L 160.992 128.386468 
L 155.691159 125.712 
L 155.04 125.421024 
L 149.088 122.557447 
L 144.633671 120.168 
L 143.136 119.433565 
L 137.184 116.272062 
L 134.356228 114.624 
L 131.232 112.91852 
L 125.28 109.350946 
L 124.856534 109.08 
L 119.328 105.698964 
L 116.080643 103.536 
L 113.376 101.784102 
L 107.94542 97.992 
L 107.424 97.632798 
L 101.472 93.325325 
L 100.309379 92.448 
L 95.52 88.824074 
L 93.04752 86.904 
L 89.568 84.15975 
L 85.999367 81.36 
L 83.616 79.437215 
L 78.880453 75.816 
L 77.664 74.847209 
L 71.712 70.7687 
L 70.605565 70.272 
L 65.76 67.941739 
L 59.808 67.785467 
L 57.074695 70.272 
L 53.856 74.381821 
L 53.410587 75.816 
L 52.106051 81.36 
L 51.25613 86.904 
L 50.798088 92.448 
L 50.68506 97.992 
L 50.882001 103.536 
L 51.362908 109.08 
L 52.108884 114.624 
L 53.106787 120.168 
z
" clip-path="url(#p11fcd4ca67)" style="fill: #7cd250"/>
   </g>
   <g id="PathCollection_25">
    <path d="M 53.106787 120.168 
L 52.108884 114.624 
L 51.362908 109.08 
L 50.882001 103.536 
L 50.68506 97.992 
L 50.798088 92.448 
L 51.25613 86.904 
L 52.106051 81.36 
L 53.410587 75.816 
L 53.856 74.381821 
L 57.074695 70.272 
L 59.808 67.785467 
L 65.76 67.941739 
L 70.605565 70.272 
L 71.712 70.7687 
L 77.664 74.847209 
L 78.880453 75.816 
L 83.616 79.437215 
L 85.999367 81.36 
L 89.568 84.15975 
L 93.04752 86.904 
L 95.52 88.824074 
L 100.309379 92.448 
L 101.472 93.325325 
L 107.424 97.632798 
L 107.94542 97.992 
L 113.376 101.784102 
L 116.080643 103.536 
L 119.328 105.698964 
L 124.856534 109.08 
L 125.28 109.350946 
L 131.232 112.91852 
L 134.356228 114.624 
L 137.184 116.272062 
L 143.136 119.433565 
L 144.633671 120.168 
L 149.088 122.557447 
L 155.04 125.421024 
L 155.691159 125.712 
L 160.992 128.386468 
L 166.944 131.055248 
L 167.426058 131.256 
L 172.896 133.945891 
L 178.848 136.530731 
L 179.518423 136.8 
L 184.8 139.487505 
L 190.752 142.136005 
L 191.259821 142.344 
L 196.704 145.556975 
L 201.290045 147.888 
L 202.656 149.364309 
L 207.09631 153.432 
L 204.287048 158.976 
L 202.656 159.526189 
L 196.704 161.377645 
L 190.752 162.989844 
L 184.8 164.38474 
L 184.165844 164.52 
L 178.848 165.142289 
L 172.896 165.766999 
L 166.944 166.313495 
L 160.992 166.777674 
L 155.04 167.154582 
L 149.088 167.43827 
L 143.136 167.621607 
L 137.184 167.696044 
L 131.232 167.65133 
L 125.28 167.475138 
L 119.328 167.152606 
L 113.376 166.66574 
L 107.424 165.992658 
L 101.472 165.106612 
L 98.467477 164.52 
L 95.52 163.815383 
L 89.568 162.018243 
L 83.616 159.846039 
L 81.727594 158.976 
L 77.664 156.777267 
L 72.564069 153.432 
L 71.712 152.785162 
L 66.558166 147.888 
L 65.76 147.027048 
L 62.381009 142.344 
L 59.808 138.392344 
L 59.015379 136.8 
L 56.6602 131.256 
L 54.569139 125.712 
L 53.856 123.430203 
z
M 59.808 116.288849 
L 60.700734 120.168 
L 62.505082 125.712 
L 64.716721 131.256 
L 65.76 133.363049 
L 68.051082 136.8 
L 71.712 141.605399 
L 72.452483 142.344 
L 77.664 146.767546 
L 79.344358 147.888 
L 83.616 150.266018 
L 89.568 152.925265 
L 91.095317 153.432 
L 95.52 154.610737 
L 101.472 155.739459 
L 107.424 156.476159 
L 113.376 156.838139 
L 119.328 156.830788 
L 125.28 156.447536 
L 131.232 155.668893 
L 137.184 154.460394 
L 140.950649 153.432 
L 143.136 151.807389 
L 146.929221 147.888 
L 145.18428 142.344 
L 143.136 140.374367 
L 139.940321 136.8 
L 137.184 134.764334 
L 133.032972 131.256 
L 131.232 130.060947 
L 125.423644 125.712 
L 125.28 125.620064 
L 119.328 121.504497 
L 117.578836 120.168 
L 113.376 117.297065 
L 109.786708 114.624 
L 107.424 112.988949 
L 102.15071 109.08 
L 101.472 108.599026 
L 95.52 104.250942 
L 94.542492 103.536 
L 89.568 99.965658 
L 86.723838 97.992 
L 83.616 95.828473 
L 78.17931 92.448 
L 77.664 92.119898 
L 71.712 89.647377 
L 65.76 89.653299 
L 62.9378 92.448 
L 59.880891 97.992 
L 59.808 98.273759 
L 59.196485 103.536 
L 59.127377 109.08 
L 59.542002 114.624 
z
" clip-path="url(#p11fcd4ca67)" style="fill: #b0dd2f"/>
   </g>
   <g id="PathCollection_26">
    <path d="M 59.542002 114.624 
L 59.127377 109.08 
L 59.196485 103.536 
L 59.808 98.273759 
L 59.880891 97.992 
L 62.9378 92.448 
L 65.76 89.653299 
L 71.712 89.647377 
L 77.664 92.119898 
L 78.17931 92.448 
L 83.616 95.828473 
L 86.723838 97.992 
L 89.568 99.965658 
L 94.542492 103.536 
L 95.52 104.250942 
L 101.472 108.599026 
L 102.15071 109.08 
L 107.424 112.988949 
L 109.786708 114.624 
L 113.376 117.297065 
L 117.578836 120.168 
L 119.328 121.504497 
L 125.28 125.620064 
L 125.423644 125.712 
L 131.232 130.060947 
L 133.032972 131.256 
L 137.184 134.764334 
L 139.940321 136.8 
L 143.136 140.374367 
L 145.18428 142.344 
L 146.929221 147.888 
L 143.136 151.807389 
L 140.950649 153.432 
L 137.184 154.460394 
L 131.232 155.668893 
L 125.28 156.447536 
L 119.328 156.830788 
L 113.376 156.838139 
L 107.424 156.476159 
L 101.472 155.739459 
L 95.52 154.610737 
L 91.095317 153.432 
L 89.568 152.925265 
L 83.616 150.266018 
L 79.344358 147.888 
L 77.664 146.767546 
L 72.452483 142.344 
L 71.712 141.605399 
L 68.051082 136.8 
L 65.76 133.363049 
L 64.716721 131.256 
L 62.505082 125.712 
L 60.700734 120.168 
L 59.808 116.288849 
z
" clip-path="url(#p11fcd4ca67)" style="fill: #e5e419"/>
   </g>
   <g id="PathCollection_27">
    <defs>
     <path id="m51af8cfff6" d="M -4.330127 4.330127 
L 4.330127 -4.330127 
M -4.330127 -4.330127 
L 4.330127 4.330127 
" style="stroke: #000000; stroke-width: 2"/>
    </defs>
    <g clip-path="url(#p11fcd4ca67)">
     <use xlink:href="#m51af8cfff6" x="85.6" y="127.56" style="stroke: #000000; stroke-width: 2"/>
    </g>
   </g>
   <g id="matplotlib.axis_1">
    <g id="xtick_1">
     <g id="line2d_1">
      <defs>
       <path id="m207089ef87" d="M 0 0 
L 0 3.5 
" style="stroke: #000000; stroke-width: 0.8"/>
      </defs>
      <g>
       <use xlink:href="#m207089ef87" x="75.68" y="192.24" style="stroke: #000000; stroke-width: 0.8"/>
      </g>
     </g>
     <g id="text_1">
      <!-- $\mathdefault{250}$ -->
      <g transform="translate(64.22 208.358125) scale(0.12 -0.12)">
       <defs>
        <path id="DejaVuSans-32" d="M 1228 531 
L 3431 531 
L 3431 0 
L 469 0 
L 469 531 
Q 828 903 1448 1529 
Q 2069 2156 2228 2338 
Q 2531 2678 2651 2914 
Q 2772 3150 2772 3378 
Q 2772 3750 2511 3984 
Q 2250 4219 1831 4219 
Q 1534 4219 1204 4116 
Q 875 4013 500 3803 
L 500 4441 
Q 881 4594 1212 4672 
Q 1544 4750 1819 4750 
Q 2544 4750 2975 4387 
Q 3406 4025 3406 3419 
Q 3406 3131 3298 2873 
Q 3191 2616 2906 2266 
Q 2828 2175 2409 1742 
Q 1991 1309 1228 531 
z
" transform="scale(0.015625)"/>
        <path id="DejaVuSans-35" d="M 691 4666 
L 3169 4666 
L 3169 4134 
L 1269 4134 
L 1269 2991 
Q 1406 3038 1543 3061 
Q 1681 3084 1819 3084 
Q 2600 3084 3056 2656 
Q 3513 2228 3513 1497 
Q 3513 744 3044 326 
Q 2575 -91 1722 -91 
Q 1428 -91 1123 -41 
Q 819 9 494 109 
L 494 744 
Q 775 591 1075 516 
Q 1375 441 1709 441 
Q 2250 441 2565 725 
Q 2881 1009 2881 1497 
Q 2881 1984 2565 2268 
Q 2250 2553 1709 2553 
Q 1456 2553 1204 2497 
Q 953 2441 691 2322 
L 691 4666 
z
" transform="scale(0.015625)"/>
        <path id="DejaVuSans-30" d="M 2034 4250 
Q 1547 4250 1301 3770 
Q 1056 3291 1056 2328 
Q 1056 1369 1301 889 
Q 1547 409 2034 409 
Q 2525 409 2770 889 
Q 3016 1369 3016 2328 
Q 3016 3291 2770 3770 
Q 2525 4250 2034 4250 
z
M 2034 4750 
Q 2819 4750 3233 4129 
Q 3647 3509 3647 2328 
Q 3647 1150 3233 529 
Q 2819 -91 2034 -91 
Q 1250 -91 836 529 
Q 422 1150 422 2328 
Q 422 3509 836 4129 
Q 1250 4750 2034 4750 
z
" transform="scale(0.015625)"/>
       </defs>
       <use xlink:href="#DejaVuSans-32" transform="translate(0 0.78125)"/>
       <use xlink:href="#DejaVuSans-35" transform="translate(63.623047 0.78125)"/>
       <use xlink:href="#DejaVuSans-30" transform="translate(127.246094 0.78125)"/>
      </g>
     </g>
    </g>
    <g id="xtick_2">
     <g id="line2d_2">
      <g>
       <use xlink:href="#m207089ef87" x="125.28" y="192.24" style="stroke: #000000; stroke-width: 0.8"/>
      </g>
     </g>
     <g id="text_2">
      <!-- $\mathdefault{500}$ -->
      <g transform="translate(113.82 208.358125) scale(0.12 -0.12)">
       <use xlink:href="#DejaVuSans-35" transform="translate(0 0.78125)"/>
       <use xlink:href="#DejaVuSans-30" transform="translate(63.623047 0.78125)"/>
       <use xlink:href="#DejaVuSans-30" transform="translate(127.246094 0.78125)"/>
      </g>
     </g>
    </g>
    <g id="xtick_3">
     <g id="line2d_3">
      <g>
       <use xlink:href="#m207089ef87" x="174.88" y="192.24" style="stroke: #000000; stroke-width: 0.8"/>
      </g>
     </g>
     <g id="text_3">
      <!-- $\mathdefault{750}$ -->
      <g transform="translate(163.42 208.358125) scale(0.12 -0.12)">
       <defs>
        <path id="DejaVuSans-37" d="M 525 4666 
L 3525 4666 
L 3525 4397 
L 1831 0 
L 1172 0 
L 2766 4134 
L 525 4134 
L 525 4666 
z
" transform="scale(0.015625)"/>
       </defs>
       <use xlink:href="#DejaVuSans-37" transform="translate(0 0.78125)"/>
       <use xlink:href="#DejaVuSans-35" transform="translate(63.623047 0.78125)"/>
       <use xlink:href="#DejaVuSans-30" transform="translate(127.246094 0.78125)"/>
      </g>
     </g>
    </g>
    <g id="text_4">
     <!-- Diploid N$_e$1 -->
     <g transform="translate(80 227.01375) scale(0.16 -0.16)">
      <defs>
       <path id="DejaVuSans-44" d="M 1259 4147 
L 1259 519 
L 2022 519 
Q 2988 519 3436 956 
Q 3884 1394 3884 2338 
Q 3884 3275 3436 3711 
Q 2988 4147 2022 4147 
L 1259 4147 
z
M 628 4666 
L 1925 4666 
Q 3281 4666 3915 4102 
Q 4550 3538 4550 2338 
Q 4550 1131 3912 565 
Q 3275 0 1925 0 
L 628 0 
L 628 4666 
z
" transform="scale(0.015625)"/>
       <path id="DejaVuSans-69" d="M 603 3500 
L 1178 3500 
L 1178 0 
L 603 0 
L 603 3500 
z
M 603 4863 
L 1178 4863 
L 1178 4134 
L 603 4134 
L 603 4863 
z
" transform="scale(0.015625)"/>
       <path id="DejaVuSans-70" d="M 1159 525 
L 1159 -1331 
L 581 -1331 
L 581 3500 
L 1159 3500 
L 1159 2969 
Q 1341 3281 1617 3432 
Q 1894 3584 2278 3584 
Q 2916 3584 3314 3078 
Q 3713 2572 3713 1747 
Q 3713 922 3314 415 
Q 2916 -91 2278 -91 
Q 1894 -91 1617 61 
Q 1341 213 1159 525 
z
M 3116 1747 
Q 3116 2381 2855 2742 
Q 2594 3103 2138 3103 
Q 1681 3103 1420 2742 
Q 1159 2381 1159 1747 
Q 1159 1113 1420 752 
Q 1681 391 2138 391 
Q 2594 391 2855 752 
Q 3116 1113 3116 1747 
z
" transform="scale(0.015625)"/>
       <path id="DejaVuSans-6c" d="M 603 4863 
L 1178 4863 
L 1178 0 
L 603 0 
L 603 4863 
z
" transform="scale(0.015625)"/>
       <path id="DejaVuSans-6f" d="M 1959 3097 
Q 1497 3097 1228 2736 
Q 959 2375 959 1747 
Q 959 1119 1226 758 
Q 1494 397 1959 397 
Q 2419 397 2687 759 
Q 2956 1122 2956 1747 
Q 2956 2369 2687 2733 
Q 2419 3097 1959 3097 
z
M 1959 3584 
Q 2709 3584 3137 3096 
Q 3566 2609 3566 1747 
Q 3566 888 3137 398 
Q 2709 -91 1959 -91 
Q 1206 -91 779 398 
Q 353 888 353 1747 
Q 353 2609 779 3096 
Q 1206 3584 1959 3584 
z
" transform="scale(0.015625)"/>
       <path id="DejaVuSans-64" d="M 2906 2969 
L 2906 4863 
L 3481 4863 
L 3481 0 
L 2906 0 
L 2906 525 
Q 2725 213 2448 61 
Q 2172 -91 1784 -91 
Q 1150 -91 751 415 
Q 353 922 353 1747 
Q 353 2572 751 3078 
Q 1150 3584 1784 3584 
Q 2172 3584 2448 3432 
Q 2725 3281 2906 2969 
z
M 947 1747 
Q 947 1113 1208 752 
Q 1469 391 1925 391 
Q 2381 391 2643 752 
Q 2906 1113 2906 1747 
Q 2906 2381 2643 2742 
Q 2381 3103 1925 3103 
Q 1469 3103 1208 2742 
Q 947 2381 947 1747 
z
" transform="scale(0.015625)"/>
       <path id="DejaVuSans-20" transform="scale(0.015625)"/>
       <path id="DejaVuSans-4e" d="M 628 4666 
L 1478 4666 
L 3547 763 
L 3547 4666 
L 4159 4666 
L 4159 0 
L 3309 0 
L 1241 3903 
L 1241 0 
L 628 0 
L 628 4666 
z
" transform="scale(0.015625)"/>
       <path id="DejaVuSans-Oblique-65" d="M 3078 2063 
Q 3088 2113 3092 2166 
Q 3097 2219 3097 2272 
Q 3097 2653 2873 2875 
Q 2650 3097 2266 3097 
Q 1838 3097 1509 2826 
Q 1181 2556 1013 2059 
L 3078 2063 
z
M 3578 1613 
L 903 1613 
Q 884 1494 878 1425 
Q 872 1356 872 1306 
Q 872 872 1139 634 
Q 1406 397 1894 397 
Q 2269 397 2603 481 
Q 2938 566 3225 728 
L 3116 159 
Q 2806 34 2476 -28 
Q 2147 -91 1806 -91 
Q 1078 -91 686 257 
Q 294 606 294 1247 
Q 294 1794 489 2264 
Q 684 2734 1063 3103 
Q 1306 3334 1642 3459 
Q 1978 3584 2356 3584 
Q 2950 3584 3301 3228 
Q 3653 2872 3653 2272 
Q 3653 2128 3634 1964 
Q 3616 1800 3578 1613 
z
" transform="scale(0.015625)"/>
       <path id="DejaVuSans-31" d="M 794 531 
L 1825 531 
L 1825 4091 
L 703 3866 
L 703 4441 
L 1819 4666 
L 2450 4666 
L 2450 531 
L 3481 531 
L 3481 0 
L 794 0 
L 794 531 
z
" transform="scale(0.015625)"/>
      </defs>
      <use xlink:href="#DejaVuSans-44" transform="translate(0 0.015625)"/>
      <use xlink:href="#DejaVuSans-69" transform="translate(77.001953 0.015625)"/>
      <use xlink:href="#DejaVuSans-70" transform="translate(104.785156 0.015625)"/>
      <use xlink:href="#DejaVuSans-6c" transform="translate(168.261719 0.015625)"/>
      <use xlink:href="#DejaVuSans-6f" transform="translate(196.044922 0.015625)"/>
      <use xlink:href="#DejaVuSans-69" transform="translate(257.226562 0.015625)"/>
      <use xlink:href="#DejaVuSans-64" transform="translate(285.009766 0.015625)"/>
      <use xlink:href="#DejaVuSans-20" transform="translate(348.486328 0.015625)"/>
      <use xlink:href="#DejaVuSans-4e" transform="translate(380.273438 0.015625)"/>
      <use xlink:href="#DejaVuSans-Oblique-65" transform="translate(456.035156 -16.390625) scale(0.7)"/>
      <use xlink:href="#DejaVuSans-31" transform="translate(501.835938 0.015625)"/>
     </g>
    </g>
    <g id="text_5">
     <!-- $\times\mathdefault{10^{3}}\mathdefault{}$ -->
     <g transform="translate(188.56 221.452188) scale(0.1 -0.1)">
      <defs>
       <path id="DejaVuSans-d7" d="M 4488 3438 
L 3059 2003 
L 4488 575 
L 4116 197 
L 2681 1631 
L 1247 197 
L 878 575 
L 2303 2003 
L 878 3438 
L 1247 3816 
L 2681 2381 
L 4116 3816 
L 4488 3438 
z
" transform="scale(0.015625)"/>
       <path id="DejaVuSans-33" d="M 2597 2516 
Q 3050 2419 3304 2112 
Q 3559 1806 3559 1356 
Q 3559 666 3084 287 
Q 2609 -91 1734 -91 
Q 1441 -91 1130 -33 
Q 819 25 488 141 
L 488 750 
Q 750 597 1062 519 
Q 1375 441 1716 441 
Q 2309 441 2620 675 
Q 2931 909 2931 1356 
Q 2931 1769 2642 2001 
Q 2353 2234 1838 2234 
L 1294 2234 
L 1294 2753 
L 1863 2753 
Q 2328 2753 2575 2939 
Q 2822 3125 2822 3475 
Q 2822 3834 2567 4026 
Q 2313 4219 1838 4219 
Q 1578 4219 1281 4162 
Q 984 4106 628 3988 
L 628 4550 
Q 988 4650 1302 4700 
Q 1616 4750 1894 4750 
Q 2613 4750 3031 4423 
Q 3450 4097 3450 3541 
Q 3450 3153 3228 2886 
Q 3006 2619 2597 2516 
z
" transform="scale(0.015625)"/>
      </defs>
      <use xlink:href="#DejaVuSans-d7" transform="translate(0 0.765625)"/>
      <use xlink:href="#DejaVuSans-31" transform="translate(83.789062 0.765625)"/>
      <use xlink:href="#DejaVuSans-30" transform="translate(147.412109 0.765625)"/>
      <use xlink:href="#DejaVuSans-33" transform="translate(211.992188 39.046875) scale(0.7)"/>
     </g>
    </g>
   </g>
   <g id="matplotlib.axis_2">
    <g id="ytick_1">
     <g id="line2d_4">
      <defs>
       <path id="m2e11a67a75" d="M 0 0 
L -3.5 0 
" style="stroke: #000000; stroke-width: 0.8"/>
      </defs>
      <g>
       <use xlink:href="#m2e11a67a75" x="36" y="155.28" style="stroke: #000000; stroke-width: 0.8"/>
      </g>
     </g>
     <g id="text_6">
      <!-- $\mathdefault{250}$ -->
      <g transform="translate(6.08 159.839063) scale(0.12 -0.12)">
       <use xlink:href="#DejaVuSans-32" transform="translate(0 0.78125)"/>
       <use xlink:href="#DejaVuSans-35" transform="translate(63.623047 0.78125)"/>
       <use xlink:href="#DejaVuSans-30" transform="translate(127.246094 0.78125)"/>
      </g>
     </g>
    </g>
    <g id="ytick_2">
     <g id="line2d_5">
      <g>
       <use xlink:href="#m2e11a67a75" x="36" y="109.08" style="stroke: #000000; stroke-width: 0.8"/>
      </g>
     </g>
     <g id="text_7">
      <!-- $\mathdefault{500}$ -->
      <g transform="translate(6.08 113.639062) scale(0.12 -0.12)">
       <use xlink:href="#DejaVuSans-35" transform="translate(0 0.78125)"/>
       <use xlink:href="#DejaVuSans-30" transform="translate(63.623047 0.78125)"/>
       <use xlink:href="#DejaVuSans-30" transform="translate(127.246094 0.78125)"/>
      </g>
     </g>
    </g>
    <g id="ytick_3">
     <g id="line2d_6">
      <g>
       <use xlink:href="#m2e11a67a75" x="36" y="62.88" style="stroke: #000000; stroke-width: 0.8"/>
      </g>
     </g>
     <g id="text_8">
      <!-- $\mathdefault{750}$ -->
      <g transform="translate(6.08 67.439062) scale(0.12 -0.12)">
       <use xlink:href="#DejaVuSans-37" transform="translate(0 0.78125)"/>
       <use xlink:href="#DejaVuSans-35" transform="translate(63.623047 0.78125)"/>
       <use xlink:href="#DejaVuSans-30" transform="translate(127.246094 0.78125)"/>
      </g>
     </g>
    </g>
    <g id="text_9">
     <!-- Diploid N$_e$2 -->
     <g transform="translate(-1.28 154.36) rotate(-90) scale(0.16 -0.16)">
      <use xlink:href="#DejaVuSans-44" transform="translate(0 0.015625)"/>
      <use xlink:href="#DejaVuSans-69" transform="translate(77.001953 0.015625)"/>
      <use xlink:href="#DejaVuSans-70" transform="translate(104.785156 0.015625)"/>
      <use xlink:href="#DejaVuSans-6c" transform="translate(168.261719 0.015625)"/>
      <use xlink:href="#DejaVuSans-6f" transform="translate(196.044922 0.015625)"/>
      <use xlink:href="#DejaVuSans-69" transform="translate(257.226562 0.015625)"/>
      <use xlink:href="#DejaVuSans-64" transform="translate(285.009766 0.015625)"/>
      <use xlink:href="#DejaVuSans-20" transform="translate(348.486328 0.015625)"/>
      <use xlink:href="#DejaVuSans-4e" transform="translate(380.273438 0.015625)"/>
      <use xlink:href="#DejaVuSans-Oblique-65" transform="translate(456.035156 -16.390625) scale(0.7)"/>
      <use xlink:href="#DejaVuSans-32" transform="translate(501.835938 0.015625)"/>
     </g>
    </g>
    <g id="text_10">
     <!-- $\times\mathdefault{10^{3}}\mathdefault{}$ -->
     <g transform="translate(36 22.92) scale(0.1 -0.1)">
      <use xlink:href="#DejaVuSans-d7" transform="translate(0 0.765625)"/>
      <use xlink:href="#DejaVuSans-31" transform="translate(83.789062 0.765625)"/>
      <use xlink:href="#DejaVuSans-30" transform="translate(147.412109 0.765625)"/>
      <use xlink:href="#DejaVuSans-33" transform="translate(211.992188 39.046875) scale(0.7)"/>
     </g>
    </g>
   </g>
   <g id="patch_3">
    <path d="M 36 192.24 
L 36 25.92 
" style="fill: none; stroke: #000000; stroke-width: 0.8; stroke-linejoin: miter; stroke-linecap: square"/>
   </g>
   <g id="patch_4">
    <path d="M 214.56 192.24 
L 214.56 25.92 
" style="fill: none; stroke: #000000; stroke-width: 0.8; stroke-linejoin: miter; stroke-linecap: square"/>
   </g>
   <g id="patch_5">
    <path d="M 36 192.24 
L 214.56 192.24 
" style="fill: none; stroke: #000000; stroke-width: 0.8; stroke-linejoin: miter; stroke-linecap: square"/>
   </g>
   <g id="patch_6">
    <path d="M 36 25.92 
L 214.56 25.92 
" style="fill: none; stroke: #000000; stroke-width: 0.8; stroke-linejoin: miter; stroke-linecap: square"/>
   </g>
   <g id="text_11">
    <!-- Ne1Ne2-SMC-RGT-P2-S4 -->
    <g transform="translate(28.46625 10.92) scale(0.16 -0.16)">
     <defs>
      <path id="DejaVuSans-65" d="M 3597 1894 
L 3597 1613 
L 953 1613 
Q 991 1019 1311 708 
Q 1631 397 2203 397 
Q 2534 397 2845 478 
Q 3156 559 3463 722 
L 3463 178 
Q 3153 47 2828 -22 
Q 2503 -91 2169 -91 
Q 1331 -91 842 396 
Q 353 884 353 1716 
Q 353 2575 817 3079 
Q 1281 3584 2069 3584 
Q 2775 3584 3186 3129 
Q 3597 2675 3597 1894 
z
M 3022 2063 
Q 3016 2534 2758 2815 
Q 2500 3097 2075 3097 
Q 1594 3097 1305 2825 
Q 1016 2553 972 2059 
L 3022 2063 
z
" transform="scale(0.015625)"/>
      <path id="DejaVuSans-2d" d="M 313 2009 
L 1997 2009 
L 1997 1497 
L 313 1497 
L 313 2009 
z
" transform="scale(0.015625)"/>
      <path id="DejaVuSans-53" d="M 3425 4513 
L 3425 3897 
Q 3066 4069 2747 4153 
Q 2428 4238 2131 4238 
Q 1616 4238 1336 4038 
Q 1056 3838 1056 3469 
Q 1056 3159 1242 3001 
Q 1428 2844 1947 2747 
L 2328 2669 
Q 3034 2534 3370 2195 
Q 3706 1856 3706 1288 
Q 3706 609 3251 259 
Q 2797 -91 1919 -91 
Q 1588 -91 1214 -16 
Q 841 59 441 206 
L 441 856 
Q 825 641 1194 531 
Q 1563 422 1919 422 
Q 2459 422 2753 634 
Q 3047 847 3047 1241 
Q 3047 1584 2836 1778 
Q 2625 1972 2144 2069 
L 1759 2144 
Q 1053 2284 737 2584 
Q 422 2884 422 3419 
Q 422 4038 858 4394 
Q 1294 4750 2059 4750 
Q 2388 4750 2728 4690 
Q 3069 4631 3425 4513 
z
" transform="scale(0.015625)"/>
      <path id="DejaVuSans-4d" d="M 628 4666 
L 1569 4666 
L 2759 1491 
L 3956 4666 
L 4897 4666 
L 4897 0 
L 4281 0 
L 4281 4097 
L 3078 897 
L 2444 897 
L 1241 4097 
L 1241 0 
L 628 0 
L 628 4666 
z
" transform="scale(0.015625)"/>
      <path id="DejaVuSans-43" d="M 4122 4306 
L 4122 3641 
Q 3803 3938 3442 4084 
Q 3081 4231 2675 4231 
Q 1875 4231 1450 3742 
Q 1025 3253 1025 2328 
Q 1025 1406 1450 917 
Q 1875 428 2675 428 
Q 3081 428 3442 575 
Q 3803 722 4122 1019 
L 4122 359 
Q 3791 134 3420 21 
Q 3050 -91 2638 -91 
Q 1578 -91 968 557 
Q 359 1206 359 2328 
Q 359 3453 968 4101 
Q 1578 4750 2638 4750 
Q 3056 4750 3426 4639 
Q 3797 4528 4122 4306 
z
" transform="scale(0.015625)"/>
      <path id="DejaVuSans-52" d="M 2841 2188 
Q 3044 2119 3236 1894 
Q 3428 1669 3622 1275 
L 4263 0 
L 3584 0 
L 2988 1197 
Q 2756 1666 2539 1819 
Q 2322 1972 1947 1972 
L 1259 1972 
L 1259 0 
L 628 0 
L 628 4666 
L 2053 4666 
Q 2853 4666 3247 4331 
Q 3641 3997 3641 3322 
Q 3641 2881 3436 2590 
Q 3231 2300 2841 2188 
z
M 1259 4147 
L 1259 2491 
L 2053 2491 
Q 2509 2491 2742 2702 
Q 2975 2913 2975 3322 
Q 2975 3731 2742 3939 
Q 2509 4147 2053 4147 
L 1259 4147 
z
" transform="scale(0.015625)"/>
      <path id="DejaVuSans-47" d="M 3809 666 
L 3809 1919 
L 2778 1919 
L 2778 2438 
L 4434 2438 
L 4434 434 
Q 4069 175 3628 42 
Q 3188 -91 2688 -91 
Q 1594 -91 976 548 
Q 359 1188 359 2328 
Q 359 3472 976 4111 
Q 1594 4750 2688 4750 
Q 3144 4750 3555 4637 
Q 3966 4525 4313 4306 
L 4313 3634 
Q 3963 3931 3569 4081 
Q 3175 4231 2741 4231 
Q 1884 4231 1454 3753 
Q 1025 3275 1025 2328 
Q 1025 1384 1454 906 
Q 1884 428 2741 428 
Q 3075 428 3337 486 
Q 3600 544 3809 666 
z
" transform="scale(0.015625)"/>
      <path id="DejaVuSans-54" d="M -19 4666 
L 3928 4666 
L 3928 4134 
L 2272 4134 
L 2272 0 
L 1638 0 
L 1638 4134 
L -19 4134 
L -19 4666 
z
" transform="scale(0.015625)"/>
      <path id="DejaVuSans-50" d="M 1259 4147 
L 1259 2394 
L 2053 2394 
Q 2494 2394 2734 2622 
Q 2975 2850 2975 3272 
Q 2975 3691 2734 3919 
Q 2494 4147 2053 4147 
L 1259 4147 
z
M 628 4666 
L 2053 4666 
Q 2838 4666 3239 4311 
Q 3641 3956 3641 3272 
Q 3641 2581 3239 2228 
Q 2838 1875 2053 1875 
L 1259 1875 
L 1259 0 
L 628 0 
L 628 4666 
z
" transform="scale(0.015625)"/>
      <path id="DejaVuSans-34" d="M 2419 4116 
L 825 1625 
L 2419 1625 
L 2419 4116 
z
M 2253 4666 
L 3047 4666 
L 3047 1625 
L 3713 1625 
L 3713 1100 
L 3047 1100 
L 3047 0 
L 2419 0 
L 2419 1100 
L 313 1100 
L 313 1709 
L 2253 4666 
z
" transform="scale(0.015625)"/>
     </defs>
     <use xlink:href="#DejaVuSans-4e"/>
     <use xlink:href="#DejaVuSans-65" x="74.804688"/>
     <use xlink:href="#DejaVuSans-31" x="136.328125"/>
     <use xlink:href="#DejaVuSans-4e" x="199.951172"/>
     <use xlink:href="#DejaVuSans-65" x="274.755859"/>
     <use xlink:href="#DejaVuSans-32" x="336.279297"/>
     <use xlink:href="#DejaVuSans-2d" x="399.902344"/>
     <use xlink:href="#DejaVuSans-53" x="435.986328"/>
     <use xlink:href="#DejaVuSans-4d" x="499.462891"/>
     <use xlink:href="#DejaVuSans-43" x="585.742188"/>
     <use xlink:href="#DejaVuSans-2d" x="655.566406"/>
     <use xlink:href="#DejaVuSans-52" x="691.650391"/>
     <use xlink:href="#DejaVuSans-47" x="761.132812"/>
     <use xlink:href="#DejaVuSans-54" x="834.998047"/>
     <use xlink:href="#DejaVuSans-2d" x="886.957031"/>
     <use xlink:href="#DejaVuSans-50" x="923.041016"/>
     <use xlink:href="#DejaVuSans-32" x="983.34375"/>
     <use xlink:href="#DejaVuSans-2d" x="1046.966797"/>
     <use xlink:href="#DejaVuSans-53" x="1083.050781"/>
     <use xlink:href="#DejaVuSans-34" x="1146.527344"/>
    </g>
   </g>
  </g>
  <g id="axes_2">
   <g id="patch_7">
    <path d="M 225.72 192.24 
L 234.036 192.24 
L 234.036 25.92 
L 225.72 25.92 
z
" style="fill: #ffffff"/>
   </g>
   <g id="QuadMesh_1">
    <path d="M 225.72 192.24 
L 234.036 192.24 
L 234.036 185.843077 
L 225.72 185.843077 
L 225.72 192.24 
" clip-path="url(#p453bd2cfc9)" style="fill: #440154"/>
    <path d="M 225.72 185.843077 
L 234.036 185.843077 
L 234.036 179.446154 
L 225.72 179.446154 
L 225.72 185.843077 
" clip-path="url(#p453bd2cfc9)" style="fill: #440154"/>
    <path d="M 225.72 179.446154 
L 234.036 179.446154 
L 234.036 173.049231 
L 225.72 173.049231 
L 225.72 179.446154 
" clip-path="url(#p453bd2cfc9)" style="fill: #440154"/>
    <path d="M 225.72 173.049231 
L 234.036 173.049231 
L 234.036 166.652308 
L 225.72 166.652308 
L 225.72 173.049231 
" clip-path="url(#p453bd2cfc9)" style="fill: #440154"/>
    <path d="M 225.72 166.652308 
L 234.036 166.652308 
L 234.036 160.255385 
L 225.72 160.255385 
L 225.72 166.652308 
" clip-path="url(#p453bd2cfc9)" style="fill: #440154"/>
    <path d="M 225.72 160.255385 
L 234.036 160.255385 
L 234.036 153.858462 
L 225.72 153.858462 
L 225.72 160.255385 
" clip-path="url(#p453bd2cfc9)" style="fill: #440154"/>
    <path d="M 225.72 153.858462 
L 234.036 153.858462 
L 234.036 147.461538 
L 225.72 147.461538 
L 225.72 153.858462 
" clip-path="url(#p453bd2cfc9)" style="fill: #440154"/>
    <path d="M 225.72 147.461538 
L 234.036 147.461538 
L 234.036 141.064615 
L 225.72 141.064615 
L 225.72 147.461538 
" clip-path="url(#p453bd2cfc9)" style="fill: #440154"/>
    <path d="M 225.72 141.064615 
L 234.036 141.064615 
L 234.036 134.667692 
L 225.72 134.667692 
L 225.72 141.064615 
" clip-path="url(#p453bd2cfc9)" style="fill: #440154"/>
    <path d="M 225.72 134.667692 
L 234.036 134.667692 
L 234.036 128.270769 
L 225.72 128.270769 
L 225.72 134.667692 
" clip-path="url(#p453bd2cfc9)" style="fill: #440154"/>
    <path d="M 225.72 128.270769 
L 234.036 128.270769 
L 234.036 121.873846 
L 225.72 121.873846 
L 225.72 128.270769 
" clip-path="url(#p453bd2cfc9)" style="fill: #440154"/>
    <path d="M 225.72 121.873846 
L 234.036 121.873846 
L 234.036 115.476923 
L 225.72 115.476923 
L 225.72 121.873846 
" clip-path="url(#p453bd2cfc9)" style="fill: #440154"/>
    <path d="M 225.72 115.476923 
L 234.036 115.476923 
L 234.036 109.08 
L 225.72 109.08 
L 225.72 115.476923 
" clip-path="url(#p453bd2cfc9)" style="fill: #440154"/>
    <path d="M 225.72 109.08 
L 234.036 109.08 
L 234.036 102.683077 
L 225.72 102.683077 
L 225.72 109.08 
" clip-path="url(#p453bd2cfc9)" style="fill: #46075a"/>
    <path d="M 225.72 102.683077 
L 234.036 102.683077 
L 234.036 96.286154 
L 225.72 96.286154 
L 225.72 102.683077 
" clip-path="url(#p453bd2cfc9)" style="fill: #482374"/>
    <path d="M 225.72 96.286154 
L 234.036 96.286154 
L 234.036 89.889231 
L 225.72 89.889231 
L 225.72 96.286154 
" clip-path="url(#p453bd2cfc9)" style="fill: #443b84"/>
    <path d="M 225.72 89.889231 
L 234.036 89.889231 
L 234.036 83.492308 
L 225.72 83.492308 
L 225.72 89.889231 
" clip-path="url(#p453bd2cfc9)" style="fill: #3b528b"/>
    <path d="M 225.72 83.492308 
L 234.036 83.492308 
L 234.036 77.095385 
L 225.72 77.095385 
L 225.72 83.492308 
" clip-path="url(#p453bd2cfc9)" style="fill: #31678e"/>
    <path d="M 225.72 77.095385 
L 234.036 77.095385 
L 234.036 70.698462 
L 225.72 70.698462 
L 225.72 77.095385 
" clip-path="url(#p453bd2cfc9)" style="fill: #297b8e"/>
    <path d="M 225.72 70.698462 
L 234.036 70.698462 
L 234.036 64.301538 
L 225.72 64.301538 
L 225.72 70.698462 
" clip-path="url(#p453bd2cfc9)" style="fill: #218e8d"/>
    <path d="M 225.72 64.301538 
L 234.036 64.301538 
L 234.036 57.904615 
L 225.72 57.904615 
L 225.72 64.301538 
" clip-path="url(#p453bd2cfc9)" style="fill: #1fa188"/>
    <path d="M 225.72 57.904615 
L 234.036 57.904615 
L 234.036 51.507692 
L 225.72 51.507692 
L 225.72 57.904615 
" clip-path="url(#p453bd2cfc9)" style="fill: #2eb37c"/>
    <path d="M 225.72 51.507692 
L 234.036 51.507692 
L 234.036 45.110769 
L 225.72 45.110769 
L 225.72 51.507692 
" clip-path="url(#p453bd2cfc9)" style="fill: #50c46a"/>
    <path d="M 225.72 45.110769 
L 234.036 45.110769 
L 234.036 38.713846 
L 225.72 38.713846 
L 225.72 45.110769 
" clip-path="url(#p453bd2cfc9)" style="fill: #7cd250"/>
    <path d="M 225.72 38.713846 
L 234.036 38.713846 
L 234.036 32.316923 
L 225.72 32.316923 
L 225.72 38.713846 
" clip-path="url(#p453bd2cfc9)" style="fill: #b0dd2f"/>
    <path d="M 225.72 32.316923 
L 234.036 32.316923 
L 234.036 25.92 
L 225.72 25.92 
L 225.72 32.316923 
" clip-path="url(#p453bd2cfc9)" style="fill: #e5e419"/>
   </g>
   <g id="matplotlib.axis_3"/>
   <g id="matplotlib.axis_4">
    <g id="ytick_4">
     <g id="line2d_7">
      <defs>
       <path id="mdc8be444fa" d="M 0 0 
L 3.5 0 
" style="stroke: #000000; stroke-width: 0.8"/>
      </defs>
      <g>
       <use xlink:href="#mdc8be444fa" x="234.036" y="179.446154" style="stroke: #000000; stroke-width: 0.8"/>
      </g>
     </g>
     <g id="text_12">
      <!-- $\mathdefault{617.86}$ -->
      <g transform="translate(241.036 183.245373) scale(0.1 -0.1)">
       <defs>
        <path id="DejaVuSans-2212" d="M 678 2272 
L 4684 2272 
L 4684 1741 
L 678 1741 
L 678 2272 
z
" transform="scale(0.015625)"/>
        <path id="DejaVuSans-36" d="M 2113 2584 
Q 1688 2584 1439 2293 
Q 1191 2003 1191 1497 
Q 1191 994 1439 701 
Q 1688 409 2113 409 
Q 2538 409 2786 701 
Q 3034 994 3034 1497 
Q 3034 2003 2786 2293 
Q 2538 2584 2113 2584 
z
M 3366 4563 
L 3366 3988 
Q 3128 4100 2886 4159 
Q 2644 4219 2406 4219 
Q 1781 4219 1451 3797 
Q 1122 3375 1075 2522 
Q 1259 2794 1537 2939 
Q 1816 3084 2150 3084 
Q 2853 3084 3261 2657 
Q 3669 2231 3669 1497 
Q 3669 778 3244 343 
Q 2819 -91 2113 -91 
Q 1303 -91 875 529 
Q 447 1150 447 2328 
Q 447 3434 972 4092 
Q 1497 4750 2381 4750 
Q 2619 4750 2861 4703 
Q 3103 4656 3366 4563 
z
" transform="scale(0.015625)"/>
        <path id="DejaVuSans-2e" d="M 684 794 
L 1344 794 
L 1344 0 
L 684 0 
L 684 794 
z
" transform="scale(0.015625)"/>
        <path id="DejaVuSans-38" d="M 2034 2216 
Q 1584 2216 1326 1975 
Q 1069 1734 1069 1313 
Q 1069 891 1326 650 
Q 1584 409 2034 409 
Q 2484 409 2743 651 
Q 3003 894 3003 1313 
Q 3003 1734 2745 1975 
Q 2488 2216 2034 2216 
z
M 1403 2484 
Q 997 2584 770 2862 
Q 544 3141 544 3541 
Q 544 4100 942 4425 
Q 1341 4750 2034 4750 
Q 2731 4750 3128 4425 
Q 3525 4100 3525 3541 
Q 3525 3141 3298 2862 
Q 3072 2584 2669 2484 
Q 3125 2378 3379 2068 
Q 3634 1759 3634 1313 
Q 3634 634 3220 271 
Q 2806 -91 2034 -91 
Q 1263 -91 848 271 
Q 434 634 434 1313 
Q 434 1759 690 2068 
Q 947 2378 1403 2484 
z
M 1172 3481 
Q 1172 3119 1398 2916 
Q 1625 2713 2034 2713 
Q 2441 2713 2670 2916 
Q 2900 3119 2900 3481 
Q 2900 3844 2670 4047 
Q 2441 4250 2034 4250 
Q 1625 4250 1398 4047 
Q 1172 3844 1172 3481 
z
" transform="scale(0.015625)"/>
       </defs>
       <use xlink:href="#DejaVuSans-2212" transform="translate(0 0.78125)"/>
       <use xlink:href="#DejaVuSans-36" transform="translate(83.789062 0.78125)"/>
       <use xlink:href="#DejaVuSans-31" transform="translate(147.412109 0.78125)"/>
       <use xlink:href="#DejaVuSans-37" transform="translate(211.035156 0.78125)"/>
       <use xlink:href="#DejaVuSans-2e" transform="translate(274.658203 0.78125)"/>
       <use xlink:href="#DejaVuSans-38" transform="translate(303.820312 0.78125)"/>
       <use xlink:href="#DejaVuSans-36" transform="translate(367.443359 0.78125)"/>
      </g>
     </g>
    </g>
    <g id="ytick_5">
     <g id="line2d_8">
      <g>
       <use xlink:href="#mdc8be444fa" x="234.036" y="160.255385" style="stroke: #000000; stroke-width: 0.8"/>
      </g>
     </g>
     <g id="text_13">
      <!-- $\mathdefault{617.80}$ -->
      <g transform="translate(241.036 164.054603) scale(0.1 -0.1)">
       <use xlink:href="#DejaVuSans-2212" transform="translate(0 0.78125)"/>
       <use xlink:href="#DejaVuSans-36" transform="translate(83.789062 0.78125)"/>
       <use xlink:href="#DejaVuSans-31" transform="translate(147.412109 0.78125)"/>
       <use xlink:href="#DejaVuSans-37" transform="translate(211.035156 0.78125)"/>
       <use xlink:href="#DejaVuSans-2e" transform="translate(274.658203 0.78125)"/>
       <use xlink:href="#DejaVuSans-38" transform="translate(303.820312 0.78125)"/>
       <use xlink:href="#DejaVuSans-30" transform="translate(367.443359 0.78125)"/>
      </g>
     </g>
    </g>
    <g id="ytick_6">
     <g id="line2d_9">
      <g>
       <use xlink:href="#mdc8be444fa" x="234.036" y="141.064615" style="stroke: #000000; stroke-width: 0.8"/>
      </g>
     </g>
     <g id="text_14">
      <!-- $\mathdefault{617.74}$ -->
      <g transform="translate(241.036 144.863834) scale(0.1 -0.1)">
       <use xlink:href="#DejaVuSans-2212" transform="translate(0 0.78125)"/>
       <use xlink:href="#DejaVuSans-36" transform="translate(83.789062 0.78125)"/>
       <use xlink:href="#DejaVuSans-31" transform="translate(147.412109 0.78125)"/>
       <use xlink:href="#DejaVuSans-37" transform="translate(211.035156 0.78125)"/>
       <use xlink:href="#DejaVuSans-2e" transform="translate(274.658203 0.78125)"/>
       <use xlink:href="#DejaVuSans-37" transform="translate(298.695312 0.78125)"/>
       <use xlink:href="#DejaVuSans-34" transform="translate(362.318359 0.78125)"/>
      </g>
     </g>
    </g>
    <g id="ytick_7">
     <g id="line2d_10">
      <g>
       <use xlink:href="#mdc8be444fa" x="234.036" y="121.873846" style="stroke: #000000; stroke-width: 0.8"/>
      </g>
     </g>
     <g id="text_15">
      <!-- $\mathdefault{617.68}$ -->
      <g transform="translate(241.036 125.673065) scale(0.1 -0.1)">
       <use xlink:href="#DejaVuSans-2212" transform="translate(0 0.78125)"/>
       <use xlink:href="#DejaVuSans-36" transform="translate(83.789062 0.78125)"/>
       <use xlink:href="#DejaVuSans-31" transform="translate(147.412109 0.78125)"/>
       <use xlink:href="#DejaVuSans-37" transform="translate(211.035156 0.78125)"/>
       <use xlink:href="#DejaVuSans-2e" transform="translate(274.658203 0.78125)"/>
       <use xlink:href="#DejaVuSans-36" transform="translate(306.445312 0.78125)"/>
       <use xlink:href="#DejaVuSans-38" transform="translate(370.068359 0.78125)"/>
      </g>
     </g>
    </g>
    <g id="ytick_8">
     <g id="line2d_11">
      <g>
       <use xlink:href="#mdc8be444fa" x="234.036" y="102.683077" style="stroke: #000000; stroke-width: 0.8"/>
      </g>
     </g>
     <g id="text_16">
      <!-- $\mathdefault{617.62}$ -->
      <g transform="translate(241.036 106.482296) scale(0.1 -0.1)">
       <use xlink:href="#DejaVuSans-2212" transform="translate(0 0.78125)"/>
       <use xlink:href="#DejaVuSans-36" transform="translate(83.789062 0.78125)"/>
       <use xlink:href="#DejaVuSans-31" transform="translate(147.412109 0.78125)"/>
       <use xlink:href="#DejaVuSans-37" transform="translate(211.035156 0.78125)"/>
       <use xlink:href="#DejaVuSans-2e" transform="translate(274.658203 0.78125)"/>
       <use xlink:href="#DejaVuSans-36" transform="translate(306.445312 0.78125)"/>
       <use xlink:href="#DejaVuSans-32" transform="translate(370.068359 0.78125)"/>
      </g>
     </g>
    </g>
    <g id="ytick_9">
     <g id="line2d_12">
      <g>
       <use xlink:href="#mdc8be444fa" x="234.036" y="83.492308" style="stroke: #000000; stroke-width: 0.8"/>
      </g>
     </g>
     <g id="text_17">
      <!-- $\mathdefault{617.56}$ -->
      <g transform="translate(241.036 87.291526) scale(0.1 -0.1)">
       <use xlink:href="#DejaVuSans-2212" transform="translate(0 0.78125)"/>
       <use xlink:href="#DejaVuSans-36" transform="translate(83.789062 0.78125)"/>
       <use xlink:href="#DejaVuSans-31" transform="translate(147.412109 0.78125)"/>
       <use xlink:href="#DejaVuSans-37" transform="translate(211.035156 0.78125)"/>
       <use xlink:href="#DejaVuSans-2e" transform="translate(274.658203 0.78125)"/>
       <use xlink:href="#DejaVuSans-35" transform="translate(306.445312 0.78125)"/>
       <use xlink:href="#DejaVuSans-36" transform="translate(370.068359 0.78125)"/>
      </g>
     </g>
    </g>
    <g id="ytick_10">
     <g id="line2d_13">
      <g>
       <use xlink:href="#mdc8be444fa" x="234.036" y="64.301538" style="stroke: #000000; stroke-width: 0.8"/>
      </g>
     </g>
     <g id="text_18">
      <!-- $\mathdefault{617.50}$ -->
      <g transform="translate(241.036 68.100757) scale(0.1 -0.1)">
       <use xlink:href="#DejaVuSans-2212" transform="translate(0 0.78125)"/>
       <use xlink:href="#DejaVuSans-36" transform="translate(83.789062 0.78125)"/>
       <use xlink:href="#DejaVuSans-31" transform="translate(147.412109 0.78125)"/>
       <use xlink:href="#DejaVuSans-37" transform="translate(211.035156 0.78125)"/>
       <use xlink:href="#DejaVuSans-2e" transform="translate(274.658203 0.78125)"/>
       <use xlink:href="#DejaVuSans-35" transform="translate(306.445312 0.78125)"/>
       <use xlink:href="#DejaVuSans-30" transform="translate(370.068359 0.78125)"/>
      </g>
     </g>
    </g>
    <g id="ytick_11">
     <g id="line2d_14">
      <g>
       <use xlink:href="#mdc8be444fa" x="234.036" y="45.110769" style="stroke: #000000; stroke-width: 0.8"/>
      </g>
     </g>
     <g id="text_19">
      <!-- $\mathdefault{617.44}$ -->
      <g transform="translate(241.036 48.909988) scale(0.1 -0.1)">
       <use xlink:href="#DejaVuSans-2212" transform="translate(0 0.78125)"/>
       <use xlink:href="#DejaVuSans-36" transform="translate(83.789062 0.78125)"/>
       <use xlink:href="#DejaVuSans-31" transform="translate(147.412109 0.78125)"/>
       <use xlink:href="#DejaVuSans-37" transform="translate(211.035156 0.78125)"/>
       <use xlink:href="#DejaVuSans-2e" transform="translate(274.658203 0.78125)"/>
       <use xlink:href="#DejaVuSans-34" transform="translate(306.445312 0.78125)"/>
       <use xlink:href="#DejaVuSans-34" transform="translate(370.068359 0.78125)"/>
      </g>
     </g>
    </g>
    <g id="ytick_12">
     <g id="line2d_15">
      <g>
       <use xlink:href="#mdc8be444fa" x="234.036" y="25.92" style="stroke: #000000; stroke-width: 0.8"/>
      </g>
     </g>
     <g id="text_20">
      <!-- $\mathdefault{617.38}$ -->
      <g transform="translate(241.036 29.719219) scale(0.1 -0.1)">
       <use xlink:href="#DejaVuSans-2212" transform="translate(0 0.78125)"/>
       <use xlink:href="#DejaVuSans-36" transform="translate(83.789062 0.78125)"/>
       <use xlink:href="#DejaVuSans-31" transform="translate(147.412109 0.78125)"/>
       <use xlink:href="#DejaVuSans-37" transform="translate(211.035156 0.78125)"/>
       <use xlink:href="#DejaVuSans-2e" transform="translate(274.658203 0.78125)"/>
       <use xlink:href="#DejaVuSans-33" transform="translate(306.445312 0.78125)"/>
       <use xlink:href="#DejaVuSans-38" transform="translate(370.068359 0.78125)"/>
      </g>
     </g>
    </g>
    <g id="text_21">
     <!-- log likelihood -->
     <g transform="translate(297.554125 148.704375) rotate(-90) scale(0.12 -0.12)">
      <defs>
       <path id="DejaVuSans-67" d="M 2906 1791 
Q 2906 2416 2648 2759 
Q 2391 3103 1925 3103 
Q 1463 3103 1205 2759 
Q 947 2416 947 1791 
Q 947 1169 1205 825 
Q 1463 481 1925 481 
Q 2391 481 2648 825 
Q 2906 1169 2906 1791 
z
M 3481 434 
Q 3481 -459 3084 -895 
Q 2688 -1331 1869 -1331 
Q 1566 -1331 1297 -1286 
Q 1028 -1241 775 -1147 
L 775 -588 
Q 1028 -725 1275 -790 
Q 1522 -856 1778 -856 
Q 2344 -856 2625 -561 
Q 2906 -266 2906 331 
L 2906 616 
Q 2728 306 2450 153 
Q 2172 0 1784 0 
Q 1141 0 747 490 
Q 353 981 353 1791 
Q 353 2603 747 3093 
Q 1141 3584 1784 3584 
Q 2172 3584 2450 3431 
Q 2728 3278 2906 2969 
L 2906 3500 
L 3481 3500 
L 3481 434 
z
" transform="scale(0.015625)"/>
       <path id="DejaVuSans-6b" d="M 581 4863 
L 1159 4863 
L 1159 1991 
L 2875 3500 
L 3609 3500 
L 1753 1863 
L 3688 0 
L 2938 0 
L 1159 1709 
L 1159 0 
L 581 0 
L 581 4863 
z
" transform="scale(0.015625)"/>
       <path id="DejaVuSans-68" d="M 3513 2113 
L 3513 0 
L 2938 0 
L 2938 2094 
Q 2938 2591 2744 2837 
Q 2550 3084 2163 3084 
Q 1697 3084 1428 2787 
Q 1159 2491 1159 1978 
L 1159 0 
L 581 0 
L 581 4863 
L 1159 4863 
L 1159 2956 
Q 1366 3272 1645 3428 
Q 1925 3584 2291 3584 
Q 2894 3584 3203 3211 
Q 3513 2838 3513 2113 
z
" transform="scale(0.015625)"/>
      </defs>
      <use xlink:href="#DejaVuSans-6c"/>
      <use xlink:href="#DejaVuSans-6f" x="27.783203"/>
      <use xlink:href="#DejaVuSans-67" x="88.964844"/>
      <use xlink:href="#DejaVuSans-20" x="152.441406"/>
      <use xlink:href="#DejaVuSans-6c" x="184.228516"/>
      <use xlink:href="#DejaVuSans-69" x="212.011719"/>
      <use xlink:href="#DejaVuSans-6b" x="239.794922"/>
      <use xlink:href="#DejaVuSans-65" x="294.080078"/>
      <use xlink:href="#DejaVuSans-6c" x="355.603516"/>
      <use xlink:href="#DejaVuSans-69" x="383.386719"/>
      <use xlink:href="#DejaVuSans-68" x="411.169922"/>
      <use xlink:href="#DejaVuSans-6f" x="474.548828"/>
      <use xlink:href="#DejaVuSans-6f" x="535.730469"/>
      <use xlink:href="#DejaVuSans-64" x="596.912109"/>
     </g>
    </g>
    <g id="text_22">
     <!-- $\times\mathdefault{10^{3}}\mathdefault{}$ -->
     <g transform="translate(208.036 22.92) scale(0.1 -0.1)">
      <use xlink:href="#DejaVuSans-d7" transform="translate(0 0.765625)"/>
      <use xlink:href="#DejaVuSans-31" transform="translate(83.789062 0.765625)"/>
      <use xlink:href="#DejaVuSans-30" transform="translate(147.412109 0.765625)"/>
      <use xlink:href="#DejaVuSans-33" transform="translate(211.992188 39.046875) scale(0.7)"/>
     </g>
    </g>
   </g>
   <g id="LineCollection_1"/>
   <g id="patch_8">
    <path d="M 225.72 192.24 
L 229.878 192.24 
L 234.036 192.24 
L 234.036 25.92 
L 229.878 25.92 
L 225.72 25.92 
L 225.72 192.24 
z
" style="fill: none; stroke: #000000; stroke-width: 0.8; stroke-linejoin: miter; stroke-linecap: square"/>
   </g>
  </g>
 </g>
 <defs>
  <clipPath id="p11fcd4ca67">
   <rect x="36" y="25.92" width="178.56" height="166.32"/>
  </clipPath>
  <clipPath id="p453bd2cfc9">
   <rect x="225.72" y="25.92" width="8.316" height="166.32"/>
  </clipPath>
 </defs>
</svg>
