<?xml version="1.0" encoding="utf-8" standalone="no"?>
<!DOCTYPE svg PUBLIC "-//W3C//DTD SVG 1.1//EN"
  "http://www.w3.org/Graphics/SVG/1.1/DTD/svg11.dtd">
<svg xmlns:xlink="http://www.w3.org/1999/xlink" width="288pt" height="216pt" viewBox="0 0 288 216" xmlns="http://www.w3.org/2000/svg" version="1.1">
 <metadata>
  <rdf:RDF xmlns:dc="http://purl.org/dc/elements/1.1/" xmlns:cc="http://creativecommons.org/ns#" xmlns:rdf="http://www.w3.org/1999/02/22-rdf-syntax-ns#">
   <cc:Work>
    <dc:type rdf:resource="http://purl.org/dc/dcmitype/StillImage"/>
    <dc:date>2023-07-18T19:47:43.732624</dc:date>
    <dc:format>image/svg+xml</dc:format>
    <dc:creator>
     <cc:Agent>
      <dc:title>Matplotlib v3.7.1, https://matplotlib.org/</dc:title>
     </cc:Agent>
    </dc:creator>
   </cc:Work>
  </rdf:RDF>
 </metadata>
 <defs>
  <style type="text/css">*{stroke-linejoin: round; stroke-linecap: butt}</style>
 </defs>
 <g id="figure_1">
  <g id="patch_1">
   <path d="M 0 216 
L 288 216 
L 288 0 
L 0 0 
z
" style="fill: #ffffff"/>
  </g>
  <g id="axes_1">
   <g id="patch_2">
    <path d="M 36 192.24 
L 214.56 192.24 
L 214.56 25.92 
L 36 25.92 
z
" style="fill: #ffffff"/>
   </g>
   <g id="PathCollection_1">
    <path d="M 36.143411 192.24 
L 36 192.24 
L 36 192.166856 
z
" clip-path="url(#pb435c15832)" style="fill: #440154"/>
   </g>
   <g id="PathCollection_2">
    <path d="M 37.236436 192.24 
L 36.143411 192.24 
L 36 192.166856 
L 36 191.60938 
z
" clip-path="url(#pb435c15832)" style="fill: #440154"/>
   </g>
   <g id="PathCollection_3">
    <path d="M 38.329461 192.24 
L 37.236436 192.24 
L 36 191.60938 
L 36 191.051904 
z
" clip-path="url(#pb435c15832)" style="fill: #440154"/>
   </g>
   <g id="PathCollection_4">
    <path d="M 39.422486 192.24 
L 38.329461 192.24 
L 36 191.051904 
L 36 190.494428 
z
" clip-path="url(#pb435c15832)" style="fill: #440154"/>
   </g>
   <g id="PathCollection_5">
    <path d="M 40.51551 192.24 
L 39.422486 192.24 
L 36 190.494428 
L 36 189.936952 
z
" clip-path="url(#pb435c15832)" style="fill: #440154"/>
   </g>
   <g id="PathCollection_6">
    <path d="M 41.608535 192.24 
L 40.51551 192.24 
L 36 189.936952 
L 36 189.379476 
z
" clip-path="url(#pb435c15832)" style="fill: #440154"/>
   </g>
   <g id="PathCollection_7">
    <path d="M 41.952 191.857271 
L 43.766459 192.24 
L 41.952 192.24 
L 41.608535 192.24 
L 36 189.379476 
L 36 188.822 
z
" clip-path="url(#pb435c15832)" style="fill: #440154"/>
   </g>
   <g id="PathCollection_8">
    <path d="M 41.952 191.299167 
L 46.412344 192.24 
L 43.766459 192.24 
L 41.952 191.857271 
L 36 188.822 
L 36 188.264524 
z
" clip-path="url(#pb435c15832)" style="fill: #440154"/>
   </g>
   <g id="PathCollection_9">
    <path d="M 41.952 190.741064 
L 47.904 191.99631 
L 50.149789 192.24 
L 47.904 192.24 
L 46.412344 192.24 
L 41.952 191.299167 
L 36 188.264524 
L 36 187.707048 
z
" clip-path="url(#pb435c15832)" style="fill: #440154"/>
   </g>
   <g id="PathCollection_10">
    <path d="M 41.952 190.18296 
L 47.904 191.437691 
L 53.856 192.083419 
L 56.369984 192.24 
L 53.856 192.24 
L 50.149789 192.24 
L 47.904 191.99631 
L 41.952 190.741064 
L 36 187.707048 
L 36 187.149572 
z
" clip-path="url(#pb435c15832)" style="fill: #440154"/>
   </g>
   <g id="PathCollection_11">
    <path d="M 36 186.696 
L 36 186.453422 
L 36.204139 186.696 
L 41.952 189.624856 
L 47.904 190.879071 
L 53.856 191.524368 
L 59.808 191.894855 
L 65.76 192.120562 
L 70.785364 192.24 
L 65.76 192.24 
L 59.808 192.24 
L 56.369984 192.24 
L 53.856 192.083419 
L 47.904 191.437691 
L 41.952 190.18296 
L 36 187.149572 
z
" clip-path="url(#pb435c15832)" style="fill: #440154"/>
    <path d="M 166.944 192.219487 
L 172.896 192.191054 
L 178.848 192.162557 
L 184.8 192.134088 
L 190.752 192.105718 
L 196.704 192.077503 
L 202.656 192.049487 
L 208.608 192.021707 
L 214.56 191.994188 
L 214.56 192.24 
L 208.608 192.24 
L 202.656 192.24 
L 196.704 192.24 
L 190.752 192.24 
L 184.8 192.24 
L 178.848 192.24 
L 172.896 192.24 
L 166.944 192.24 
L 162.623272 192.24 
z
" clip-path="url(#pb435c15832)" style="fill: #440154"/>
   </g>
   <g id="PathCollection_12">
    <path d="M 36.204139 186.696 
L 36 186.453422 
L 36 185.151914 
L 37.299414 186.696 
L 41.952 189.066753 
L 47.904 190.320452 
L 53.856 190.965316 
L 59.808 191.335437 
L 65.76 191.560828 
L 71.712 191.702026 
L 77.664 191.790765 
L 83.616 191.845148 
L 89.568 191.876175 
L 95.52 191.890867 
L 101.472 191.893881 
L 107.424 191.888406 
L 113.376 191.876685 
L 119.328 191.860329 
L 125.28 191.840517 
L 131.232 191.818124 
L 137.184 191.79381 
L 143.136 191.768076 
L 149.088 191.74131 
L 155.04 191.713809 
L 160.992 191.685809 
L 166.944 191.65749 
L 172.896 191.628999 
L 178.848 191.600448 
L 184.8 191.571927 
L 190.752 191.543509 
L 196.704 191.515248 
L 202.656 191.487189 
L 208.608 191.459368 
L 214.56 191.431811 
L 214.56 191.994188 
L 208.608 192.021707 
L 202.656 192.049487 
L 196.704 192.077503 
L 190.752 192.105718 
L 184.8 192.134088 
L 178.848 192.162557 
L 172.896 192.191054 
L 166.944 192.219487 
L 162.623272 192.24 
L 160.992 192.24 
L 155.04 192.24 
L 149.088 192.24 
L 143.136 192.24 
L 137.184 192.24 
L 131.232 192.24 
L 125.28 192.24 
L 119.328 192.24 
L 113.376 192.24 
L 107.424 192.24 
L 101.472 192.24 
L 95.52 192.24 
L 89.568 192.24 
L 83.616 192.24 
L 77.664 192.24 
L 71.712 192.24 
L 70.785364 192.24 
L 65.76 192.120562 
L 59.808 191.894855 
L 53.856 191.524368 
L 47.904 190.879071 
L 41.952 189.624856 
z
" clip-path="url(#pb435c15832)" style="fill: #440154"/>
   </g>
   <g id="PathCollection_13">
    <path d="M 37.299414 186.696 
L 36 185.151914 
L 36 183.850406 
L 38.394689 186.696 
L 41.952 188.508649 
L 47.904 189.761833 
L 53.856 190.406265 
L 59.808 190.776019 
L 65.76 191.001094 
L 71.712 191.142017 
L 77.664 191.230516 
L 83.616 191.284687 
L 89.568 191.315525 
L 95.52 191.330047 
L 101.472 191.332909 
L 107.424 191.327296 
L 113.376 191.31545 
L 119.328 191.29898 
L 125.28 191.279063 
L 131.232 191.256574 
L 137.184 191.23217 
L 143.136 191.206355 
L 149.088 191.179512 
L 155.04 191.15194 
L 160.992 191.123873 
L 166.944 191.095493 
L 172.896 191.066944 
L 178.848 191.038338 
L 184.8 191.009766 
L 190.752 190.981299 
L 196.704 190.952993 
L 202.656 190.924891 
L 208.608 190.897029 
L 214.56 190.869433 
L 214.56 191.431811 
L 208.608 191.459368 
L 202.656 191.487189 
L 196.704 191.515248 
L 190.752 191.543509 
L 184.8 191.571927 
L 178.848 191.600448 
L 172.896 191.628999 
L 166.944 191.65749 
L 160.992 191.685809 
L 155.04 191.713809 
L 149.088 191.74131 
L 143.136 191.768076 
L 137.184 191.79381 
L 131.232 191.818124 
L 125.28 191.840517 
L 119.328 191.860329 
L 113.376 191.876685 
L 107.424 191.888406 
L 101.472 191.893881 
L 95.52 191.890867 
L 89.568 191.876175 
L 83.616 191.845148 
L 77.664 191.790765 
L 71.712 191.702026 
L 65.76 191.560828 
L 59.808 191.335437 
L 53.856 190.965316 
L 47.904 190.320452 
L 41.952 189.066753 
z
" clip-path="url(#pb435c15832)" style="fill: #440154"/>
   </g>
   <g id="PathCollection_14">
    <path d="M 38.394689 186.696 
L 36 183.850406 
L 36 182.548897 
L 39.489964 186.696 
L 41.952 187.950545 
L 47.904 189.203213 
L 53.856 189.847214 
L 59.808 190.2166 
L 65.76 190.44136 
L 71.712 190.582009 
L 77.664 190.670267 
L 83.616 190.724225 
L 89.568 190.754875 
L 95.52 190.769228 
L 101.472 190.771937 
L 107.424 190.766187 
L 113.376 190.754215 
L 119.328 190.737631 
L 125.28 190.717609 
L 131.232 190.695023 
L 137.184 190.670531 
L 143.136 190.644633 
L 149.088 190.617714 
L 155.04 190.590072 
L 160.992 190.561938 
L 166.944 190.533496 
L 172.896 190.504889 
L 178.848 190.476229 
L 184.8 190.447606 
L 190.752 190.41909 
L 196.704 190.390738 
L 202.656 190.362594 
L 208.608 190.334691 
L 214.56 190.307056 
L 214.56 190.869433 
L 208.608 190.897029 
L 202.656 190.924891 
L 196.704 190.952993 
L 190.752 190.981299 
L 184.8 191.009766 
L 178.848 191.038338 
L 172.896 191.066944 
L 166.944 191.095493 
L 160.992 191.123873 
L 155.04 191.15194 
L 149.088 191.179512 
L 143.136 191.206355 
L 137.184 191.23217 
L 131.232 191.256574 
L 125.28 191.279063 
L 119.328 191.29898 
L 113.376 191.31545 
L 107.424 191.327296 
L 101.472 191.332909 
L 95.52 191.330047 
L 89.568 191.315525 
L 83.616 191.284687 
L 77.664 191.230516 
L 71.712 191.142017 
L 65.76 191.001094 
L 59.808 190.776019 
L 53.856 190.406265 
L 47.904 189.761833 
L 41.952 188.508649 
z
" clip-path="url(#pb435c15832)" style="fill: #440154"/>
   </g>
   <g id="PathCollection_15">
    <path d="M 39.489964 186.696 
L 36 182.548897 
L 36 181.247389 
L 40.585238 186.696 
L 41.952 187.392441 
L 47.904 188.644594 
L 53.856 189.288162 
L 59.808 189.657182 
L 65.76 189.881626 
L 71.712 190.022 
L 77.664 190.110018 
L 83.616 190.163764 
L 89.568 190.194224 
L 95.52 190.208408 
L 101.472 190.210965 
L 107.424 190.205077 
L 113.376 190.192981 
L 119.328 190.176282 
L 125.28 190.156155 
L 131.232 190.133473 
L 137.184 190.108892 
L 143.136 190.082912 
L 149.088 190.055916 
L 155.04 190.028203 
L 160.992 190.000003 
L 166.944 189.971499 
L 172.896 189.942834 
L 178.848 189.914119 
L 184.8 189.885445 
L 190.752 189.856881 
L 196.704 189.828483 
L 202.656 189.800296 
L 208.608 189.772352 
L 214.56 189.744678 
L 214.56 190.307056 
L 208.608 190.334691 
L 202.656 190.362594 
L 196.704 190.390738 
L 190.752 190.41909 
L 184.8 190.447606 
L 178.848 190.476229 
L 172.896 190.504889 
L 166.944 190.533496 
L 160.992 190.561938 
L 155.04 190.590072 
L 149.088 190.617714 
L 143.136 190.644633 
L 137.184 190.670531 
L 131.232 190.695023 
L 125.28 190.717609 
L 119.328 190.737631 
L 113.376 190.754215 
L 107.424 190.766187 
L 101.472 190.771937 
L 95.52 190.769228 
L 89.568 190.754875 
L 83.616 190.724225 
L 77.664 190.670267 
L 71.712 190.582009 
L 65.76 190.44136 
L 59.808 190.2166 
L 53.856 189.847214 
L 47.904 189.203213 
L 41.952 187.950545 
z
" clip-path="url(#pb435c15832)" style="fill: #440154"/>
   </g>
   <g id="PathCollection_16">
    <path d="M 40.585238 186.696 
L 36 181.247389 
L 36 181.152 
L 36 178.908504 
L 37.016936 181.152 
L 41.680513 186.696 
L 41.952 186.834338 
L 47.904 188.085974 
L 53.856 188.729111 
L 59.808 189.097764 
L 65.76 189.321892 
L 71.712 189.461992 
L 77.664 189.549769 
L 83.616 189.603302 
L 89.568 189.633574 
L 95.52 189.647589 
L 101.472 189.649993 
L 107.424 189.643967 
L 113.376 189.631746 
L 119.328 189.614933 
L 125.28 189.594701 
L 131.232 189.571923 
L 137.184 189.547253 
L 143.136 189.52119 
L 149.088 189.494118 
L 155.04 189.466334 
L 160.992 189.438068 
L 166.944 189.409502 
L 172.896 189.380778 
L 178.848 189.352009 
L 184.8 189.323284 
L 190.752 189.294672 
L 196.704 189.266229 
L 202.656 189.237998 
L 208.608 189.210013 
L 214.56 189.182301 
L 214.56 189.744678 
L 208.608 189.772352 
L 202.656 189.800296 
L 196.704 189.828483 
L 190.752 189.856881 
L 184.8 189.885445 
L 178.848 189.914119 
L 172.896 189.942834 
L 166.944 189.971499 
L 160.992 190.000003 
L 155.04 190.028203 
L 149.088 190.055916 
L 143.136 190.082912 
L 137.184 190.108892 
L 131.232 190.133473 
L 125.28 190.156155 
L 119.328 190.176282 
L 113.376 190.192981 
L 107.424 190.205077 
L 101.472 190.210965 
L 95.52 190.208408 
L 89.568 190.194224 
L 83.616 190.163764 
L 77.664 190.110018 
L 71.712 190.022 
L 65.76 189.881626 
L 59.808 189.657182 
L 53.856 189.288162 
L 47.904 188.644594 
L 41.952 187.392441 
z
" clip-path="url(#pb435c15832)" style="fill: #440154"/>
   </g>
   <g id="PathCollection_17">
    <path d="M 41.680513 186.696 
L 37.016936 181.152 
L 36 178.908504 
L 36 176.487575 
L 38.114299 181.152 
L 41.952 185.714716 
L 43.950193 186.696 
L 47.904 187.527355 
L 53.856 188.17006 
L 59.808 188.538345 
L 65.76 188.762158 
L 71.712 188.901984 
L 77.664 188.98952 
L 83.616 189.042841 
L 89.568 189.072923 
L 95.52 189.086769 
L 101.472 189.089021 
L 107.424 189.082857 
L 113.376 189.070511 
L 119.328 189.053583 
L 125.28 189.033247 
L 131.232 189.010372 
L 137.184 188.985614 
L 143.136 188.959469 
L 149.088 188.932321 
L 155.04 188.904465 
L 160.992 188.876133 
L 166.944 188.847505 
L 172.896 188.818723 
L 178.848 188.7899 
L 184.8 188.761123 
L 190.752 188.732463 
L 196.704 188.703974 
L 202.656 188.6757 
L 208.608 188.647674 
L 214.56 188.619923 
L 214.56 189.182301 
L 208.608 189.210013 
L 202.656 189.237998 
L 196.704 189.266229 
L 190.752 189.294672 
L 184.8 189.323284 
L 178.848 189.352009 
L 172.896 189.380778 
L 166.944 189.409502 
L 160.992 189.438068 
L 155.04 189.466334 
L 149.088 189.494118 
L 143.136 189.52119 
L 137.184 189.547253 
L 131.232 189.571923 
L 125.28 189.594701 
L 119.328 189.614933 
L 113.376 189.631746 
L 107.424 189.643967 
L 101.472 189.649993 
L 95.52 189.647589 
L 89.568 189.633574 
L 83.616 189.603302 
L 77.664 189.549769 
L 71.712 189.461992 
L 65.76 189.321892 
L 59.808 189.097764 
L 53.856 188.729111 
L 47.904 188.085974 
L 41.952 186.834338 
z
" clip-path="url(#pb435c15832)" style="fill: #46075a"/>
   </g>
   <g id="PathCollection_18">
    <path d="M 38.114299 181.152 
L 36 176.487575 
L 36 175.608 
L 36 173.065016 
L 36.699904 175.608 
L 39.211661 181.152 
L 41.952 184.41004 
L 46.60691 186.696 
L 47.904 186.968735 
L 53.856 187.611008 
L 59.808 187.978927 
L 65.76 188.202424 
L 71.712 188.341975 
L 77.664 188.429271 
L 83.616 188.48238 
L 89.568 188.512273 
L 95.52 188.525949 
L 101.472 188.528049 
L 107.424 188.521748 
L 113.376 188.509276 
L 119.328 188.492234 
L 125.28 188.471793 
L 131.232 188.448822 
L 137.184 188.423974 
L 143.136 188.397747 
L 149.088 188.370523 
L 155.04 188.342596 
L 160.992 188.314198 
L 166.944 188.285508 
L 172.896 188.256668 
L 178.848 188.22779 
L 184.8 188.198962 
L 190.752 188.170253 
L 196.704 188.141719 
L 202.656 188.113402 
L 208.608 188.085335 
L 214.56 188.057546 
L 214.56 188.619923 
L 208.608 188.647674 
L 202.656 188.6757 
L 196.704 188.703974 
L 190.752 188.732463 
L 184.8 188.761123 
L 178.848 188.7899 
L 172.896 188.818723 
L 166.944 188.847505 
L 160.992 188.876133 
L 155.04 188.904465 
L 149.088 188.932321 
L 143.136 188.959469 
L 137.184 188.985614 
L 131.232 189.010372 
L 125.28 189.033247 
L 119.328 189.053583 
L 113.376 189.070511 
L 107.424 189.082857 
L 101.472 189.089021 
L 95.52 189.086769 
L 89.568 189.072923 
L 83.616 189.042841 
L 77.664 188.98952 
L 71.712 188.901984 
L 65.76 188.762158 
L 59.808 188.538345 
L 53.856 188.17006 
L 47.904 187.527355 
L 43.950193 186.696 
L 41.952 185.714716 
z
" clip-path="url(#pb435c15832)" style="fill: #481d6f"/>
   </g>
   <g id="PathCollection_19">
    <path d="M 39.211661 181.152 
L 36.699904 175.608 
L 36 173.065016 
L 36 170.064 
L 36 168.53949 
L 36.273788 170.064 
L 37.79921 175.608 
L 40.309024 181.152 
L 41.952 183.105365 
L 47.904 186.026968 
L 50.556232 186.696 
L 53.856 187.051957 
L 59.808 187.419508 
L 65.76 187.642689 
L 71.712 187.781967 
L 77.664 187.869022 
L 83.616 187.921918 
L 89.568 187.951622 
L 95.52 187.96513 
L 101.472 187.967077 
L 107.424 187.960638 
L 113.376 187.948041 
L 119.328 187.930885 
L 125.28 187.910339 
L 131.232 187.887272 
L 137.184 187.862335 
L 143.136 187.836026 
L 149.088 187.808725 
L 155.04 187.780728 
L 160.992 187.752263 
L 166.944 187.723511 
L 172.896 187.694613 
L 178.848 187.665681 
L 184.8 187.636801 
L 190.752 187.608044 
L 196.704 187.579464 
L 202.656 187.551104 
L 208.608 187.522996 
L 214.56 187.495168 
L 214.56 188.057546 
L 208.608 188.085335 
L 202.656 188.113402 
L 196.704 188.141719 
L 190.752 188.170253 
L 184.8 188.198962 
L 178.848 188.22779 
L 172.896 188.256668 
L 166.944 188.285508 
L 160.992 188.314198 
L 155.04 188.342596 
L 149.088 188.370523 
L 143.136 188.397747 
L 137.184 188.423974 
L 131.232 188.448822 
L 125.28 188.471793 
L 119.328 188.492234 
L 113.376 188.509276 
L 107.424 188.521748 
L 101.472 188.528049 
L 95.52 188.525949 
L 89.568 188.512273 
L 83.616 188.48238 
L 77.664 188.429271 
L 71.712 188.341975 
L 65.76 188.202424 
L 59.808 187.978927 
L 53.856 187.611008 
L 47.904 186.968735 
L 46.60691 186.696 
L 41.952 184.41004 
z
" clip-path="url(#pb435c15832)" style="fill: #46327e"/>
   </g>
   <g id="PathCollection_20">
    <path d="M 40.309024 181.152 
L 37.79921 175.608 
L 36.273788 170.064 
L 36 168.53949 
L 36 164.52 
L 36 161.423106 
L 36.379836 164.52 
L 37.374904 170.064 
L 38.898516 175.608 
L 41.406387 181.152 
L 41.952 181.800689 
L 47.904 184.719677 
L 53.856 186.220283 
L 57.14909 186.696 
L 59.808 186.86009 
L 65.76 187.082955 
L 71.712 187.221958 
L 77.664 187.308773 
L 83.616 187.361457 
L 89.568 187.390972 
L 95.52 187.40431 
L 101.472 187.406105 
L 107.424 187.399528 
L 113.376 187.386806 
L 119.328 187.369536 
L 125.28 187.348885 
L 131.232 187.325721 
L 137.184 187.300696 
L 143.136 187.274305 
L 149.088 187.246927 
L 155.04 187.218859 
L 160.992 187.190328 
L 166.944 187.161514 
L 172.896 187.132558 
L 178.848 187.103571 
L 184.8 187.07464 
L 190.752 187.045835 
L 196.704 187.017209 
L 202.656 186.988806 
L 208.608 186.960658 
L 214.56 186.932791 
L 214.56 187.495168 
L 208.608 187.522996 
L 202.656 187.551104 
L 196.704 187.579464 
L 190.752 187.608044 
L 184.8 187.636801 
L 178.848 187.665681 
L 172.896 187.694613 
L 166.944 187.723511 
L 160.992 187.752263 
L 155.04 187.780728 
L 149.088 187.808725 
L 143.136 187.836026 
L 137.184 187.862335 
L 131.232 187.887272 
L 125.28 187.910339 
L 119.328 187.930885 
L 113.376 187.948041 
L 107.424 187.960638 
L 101.472 187.967077 
L 95.52 187.96513 
L 89.568 187.951622 
L 83.616 187.921918 
L 77.664 187.869022 
L 71.712 187.781967 
L 65.76 187.642689 
L 59.808 187.419508 
L 53.856 187.051957 
L 50.556232 186.696 
L 47.904 186.026968 
L 41.952 183.105365 
z
" clip-path="url(#pb435c15832)" style="fill: #404588"/>
   </g>
   <g id="PathCollection_21">
    <path d="M 41.406387 181.152 
L 38.898516 175.608 
L 37.374904 170.064 
L 36.379836 164.52 
L 36 161.423106 
L 36 158.976 
L 36 153.432 
L 36 148.132641 
L 36.326353 153.432 
L 36.80382 158.976 
L 37.482644 164.52 
L 38.476021 170.064 
L 39.997821 175.608 
L 41.952 179.929649 
L 43.292877 181.152 
L 47.904 183.412385 
L 53.856 184.910791 
L 59.808 185.769286 
L 65.76 186.290707 
L 71.712 186.616081 
L 74.053564 186.696 
L 77.664 186.748524 
L 83.616 186.800995 
L 89.568 186.830322 
L 95.52 186.843491 
L 101.472 186.845133 
L 107.424 186.838419 
L 113.376 186.825571 
L 119.328 186.808186 
L 125.28 186.787431 
L 131.232 186.764171 
L 137.184 186.739057 
L 143.136 186.712583 
L 146.731459 186.696 
L 149.088 186.670388 
L 155.04 186.604074 
L 160.992 186.536663 
L 166.944 186.468579 
L 172.896 186.400152 
L 178.848 186.331647 
L 184.8 186.263269 
L 190.752 186.195181 
L 196.704 186.127513 
L 202.656 186.060365 
L 208.608 185.993815 
L 214.56 185.927925 
L 214.56 186.696 
L 214.56 186.932791 
L 208.608 186.960658 
L 202.656 186.988806 
L 196.704 187.017209 
L 190.752 187.045835 
L 184.8 187.07464 
L 178.848 187.103571 
L 172.896 187.132558 
L 166.944 187.161514 
L 160.992 187.190328 
L 155.04 187.218859 
L 149.088 187.246927 
L 143.136 187.274305 
L 137.184 187.300696 
L 131.232 187.325721 
L 125.28 187.348885 
L 119.328 187.369536 
L 113.376 187.386806 
L 107.424 187.399528 
L 101.472 187.406105 
L 95.52 187.40431 
L 89.568 187.390972 
L 83.616 187.361457 
L 77.664 187.308773 
L 71.712 187.221958 
L 65.76 187.082955 
L 59.808 186.86009 
L 57.14909 186.696 
L 53.856 186.220283 
L 47.904 184.719677 
L 41.952 181.800689 
z
" clip-path="url(#pb435c15832)" style="fill: #38588c"/>
    <path d="M 36 25.92 
L 36.019935 25.92 
L 36 27.486582 
z
" clip-path="url(#pb435c15832)" style="fill: #38588c"/>
   </g>
   <g id="PathCollection_22">
    <path d="M 39.997821 175.608 
L 38.476021 170.064 
L 37.482644 164.52 
L 36.80382 158.976 
L 36.326353 153.432 
L 36 148.132641 
L 36 147.888 
L 36 142.344 
L 36 136.8 
L 36 131.256 
L 36 125.712 
L 36 120.168 
L 36 114.624 
L 36 109.08 
L 36 103.536 
L 36 97.992 
L 36 92.448 
L 36 86.904 
L 36 81.36 
L 36 75.816 
L 36 70.272 
L 36 64.728 
L 36 59.184 
L 36 53.64 
L 36 48.096 
L 36 42.552 
L 36 37.008 
L 36 31.464 
L 36 27.486582 
L 36.019935 25.92 
L 37.145122 25.92 
L 37.074097 31.464 
L 37.00388 37.008 
L 36.93472 42.552 
L 36.866907 48.096 
L 36.800785 53.64 
L 36.736756 59.184 
L 36.675302 64.728 
L 36.616991 70.272 
L 36.562505 75.816 
L 36.512667 81.36 
L 36.468469 86.904 
L 36.431124 92.448 
L 36.402121 97.992 
L 36.383309 103.536 
L 36.377004 109.08 
L 36.386146 114.624 
L 36.414511 120.168 
L 36.467031 125.712 
L 36.550257 131.256 
L 36.673076 136.8 
L 36.847835 142.344 
L 37.092183 147.888 
L 37.432227 153.432 
L 37.90821 158.976 
L 38.585451 164.52 
L 39.577137 170.064 
L 41.097127 175.608 
L 41.952 177.498544 
L 45.959716 181.152 
L 47.904 182.105093 
L 53.856 183.601299 
L 59.808 184.457918 
L 65.76 184.977721 
L 71.712 185.301685 
L 77.664 185.503709 
L 83.616 185.625943 
L 89.568 185.693993 
L 95.52 185.724195 
L 101.472 185.727384 
L 107.424 185.710977 
L 113.376 185.680184 
L 119.328 185.638745 
L 125.28 185.589396 
L 131.232 185.534166 
L 137.184 185.474583 
L 143.136 185.411809 
L 149.088 185.346735 
L 155.04 185.280051 
L 160.992 185.212296 
L 166.944 185.143888 
L 172.896 185.07516 
L 178.848 185.00637 
L 184.8 184.937724 
L 190.752 184.869385 
L 196.704 184.801479 
L 202.656 184.734106 
L 208.608 184.667343 
L 214.56 184.601251 
L 214.56 185.927925 
L 208.608 185.993815 
L 202.656 186.060365 
L 196.704 186.127513 
L 190.752 186.195181 
L 184.8 186.263269 
L 178.848 186.331647 
L 172.896 186.400152 
L 166.944 186.468579 
L 160.992 186.536663 
L 155.04 186.604074 
L 149.088 186.670388 
L 146.731459 186.696 
L 143.136 186.712583 
L 137.184 186.739057 
L 131.232 186.764171 
L 125.28 186.787431 
L 119.328 186.808186 
L 113.376 186.825571 
L 107.424 186.838419 
L 101.472 186.845133 
L 95.52 186.843491 
L 89.568 186.830322 
L 83.616 186.800995 
L 77.664 186.748524 
L 74.053564 186.696 
L 71.712 186.616081 
L 65.76 186.290707 
L 59.808 185.769286 
L 53.856 184.910791 
L 47.904 183.412385 
L 43.292877 181.152 
L 41.952 179.929649 
z
" clip-path="url(#pb435c15832)" style="fill: #31688e"/>
   </g>
   <g id="PathCollection_23">
    <path d="M 41.097127 175.608 
L 39.577137 170.064 
L 38.585451 164.52 
L 37.90821 158.976 
L 37.432227 153.432 
L 37.092183 147.888 
L 36.847835 142.344 
L 36.673076 136.8 
L 36.550257 131.256 
L 36.467031 125.712 
L 36.414511 120.168 
L 36.386146 114.624 
L 36.377004 109.08 
L 36.383309 103.536 
L 36.402121 97.992 
L 36.431124 92.448 
L 36.468469 86.904 
L 36.512667 81.36 
L 36.562505 75.816 
L 36.616991 70.272 
L 36.675302 64.728 
L 36.736756 59.184 
L 36.800785 53.64 
L 36.866907 48.096 
L 36.93472 42.552 
L 37.00388 37.008 
L 37.074097 31.464 
L 37.145122 25.92 
L 38.27031 25.92 
L 38.198783 31.464 
L 38.128046 37.008 
L 38.058346 42.552 
L 37.989972 48.096 
L 37.923267 53.64 
L 37.858633 59.184 
L 37.796548 64.728 
L 37.737579 70.272 
L 37.682409 75.816 
L 37.631855 81.36 
L 37.58691 86.904 
L 37.548783 92.448 
L 37.518962 97.992 
L 37.499292 103.536 
L 37.492087 109.08 
L 37.500283 114.624 
L 37.527654 120.168 
L 37.579125 125.712 
L 37.661245 131.256 
L 37.782895 136.8 
L 37.956416 142.344 
L 38.199452 147.888 
L 38.538101 153.432 
L 39.0126 158.976 
L 39.688259 164.52 
L 40.678254 170.064 
L 41.952 174.714161 
L 42.547084 175.608 
L 47.904 180.491024 
L 49.31691 181.152 
L 53.856 182.291807 
L 59.808 183.146549 
L 65.76 183.664734 
L 71.712 183.987289 
L 77.664 184.188075 
L 83.616 184.309214 
L 89.568 184.376288 
L 95.52 184.405616 
L 101.472 184.408017 
L 107.424 184.390896 
L 113.376 184.359454 
L 119.328 184.317422 
L 125.28 184.267529 
L 131.232 184.211799 
L 137.184 184.151755 
L 143.136 184.088553 
L 149.088 184.023082 
L 155.04 183.956029 
L 160.992 183.887928 
L 166.944 183.819198 
L 172.896 183.750167 
L 178.848 183.681093 
L 184.8 183.61218 
L 190.752 183.543589 
L 196.704 183.475445 
L 202.656 183.407847 
L 208.608 183.340871 
L 214.56 183.274577 
L 214.56 184.601251 
L 208.608 184.667343 
L 202.656 184.734106 
L 196.704 184.801479 
L 190.752 184.869385 
L 184.8 184.937724 
L 178.848 185.00637 
L 172.896 185.07516 
L 166.944 185.143888 
L 160.992 185.212296 
L 155.04 185.280051 
L 149.088 185.346735 
L 143.136 185.411809 
L 137.184 185.474583 
L 131.232 185.534166 
L 125.28 185.589396 
L 119.328 185.638745 
L 113.376 185.680184 
L 107.424 185.710977 
L 101.472 185.727384 
L 95.52 185.724195 
L 89.568 185.693993 
L 83.616 185.625943 
L 77.664 185.503709 
L 71.712 185.301685 
L 65.76 184.977721 
L 59.808 184.457918 
L 53.856 183.601299 
L 47.904 182.105093 
L 45.959716 181.152 
L 41.952 177.498544 
z
" clip-path="url(#pb435c15832)" style="fill: #2a778e"/>
   </g>
   <g id="PathCollection_24">
    <path d="M 40.678254 170.064 
L 39.688259 164.52 
L 39.0126 158.976 
L 38.538101 153.432 
L 38.199452 147.888 
L 37.956416 142.344 
L 37.782895 136.8 
L 37.661245 131.256 
L 37.579125 125.712 
L 37.527654 120.168 
L 37.500283 114.624 
L 37.492087 109.08 
L 37.499292 103.536 
L 37.518962 97.992 
L 37.548783 92.448 
L 37.58691 86.904 
L 37.631855 81.36 
L 37.682409 75.816 
L 37.737579 70.272 
L 37.796548 64.728 
L 37.858633 59.184 
L 37.923267 53.64 
L 37.989972 48.096 
L 38.058346 42.552 
L 38.128046 37.008 
L 38.198783 31.464 
L 38.27031 25.92 
L 39.395498 25.92 
L 39.323469 31.464 
L 39.252212 37.008 
L 39.181972 42.552 
L 39.113038 48.096 
L 39.04575 53.64 
L 38.98051 59.184 
L 38.917794 64.728 
L 38.858168 70.272 
L 38.802312 75.816 
L 38.751043 81.36 
L 38.705351 86.904 
L 38.666443 92.448 
L 38.635803 97.992 
L 38.615276 103.536 
L 38.607171 109.08 
L 38.614421 114.624 
L 38.640796 120.168 
L 38.691219 125.712 
L 38.772233 131.256 
L 38.892713 136.8 
L 39.064997 142.344 
L 39.30672 147.888 
L 39.643975 153.432 
L 40.11699 158.976 
L 40.791067 164.52 
L 41.77937 170.064 
L 41.952 170.694233 
L 45.223399 175.608 
L 47.904 178.051466 
L 53.856 180.834955 
L 55.041559 181.152 
L 59.808 181.835181 
L 65.76 182.351747 
L 71.712 182.672893 
L 77.664 182.872441 
L 83.616 182.992485 
L 89.568 183.058583 
L 95.52 183.087036 
L 101.472 183.08865 
L 107.424 183.070815 
L 113.376 183.038724 
L 119.328 182.996099 
L 125.28 182.945663 
L 131.232 182.889433 
L 137.184 182.828926 
L 143.136 182.765297 
L 149.088 182.699429 
L 155.04 182.632006 
L 160.992 182.56356 
L 166.944 182.494507 
L 172.896 182.425174 
L 178.848 182.355816 
L 184.8 182.286636 
L 190.752 182.217793 
L 196.704 182.149411 
L 202.656 182.081588 
L 208.608 182.014399 
L 214.56 181.947903 
L 214.56 183.274577 
L 208.608 183.340871 
L 202.656 183.407847 
L 196.704 183.475445 
L 190.752 183.543589 
L 184.8 183.61218 
L 178.848 183.681093 
L 172.896 183.750167 
L 166.944 183.819198 
L 160.992 183.887928 
L 155.04 183.956029 
L 149.088 184.023082 
L 143.136 184.088553 
L 137.184 184.151755 
L 131.232 184.211799 
L 125.28 184.267529 
L 119.328 184.317422 
L 113.376 184.359454 
L 107.424 184.390896 
L 101.472 184.408017 
L 95.52 184.405616 
L 89.568 184.376288 
L 83.616 184.309214 
L 77.664 184.188075 
L 71.712 183.987289 
L 65.76 183.664734 
L 59.808 183.146549 
L 53.856 182.291807 
L 49.31691 181.152 
L 47.904 180.491024 
L 42.547084 175.608 
L 41.952 174.714161 
z
" clip-path="url(#pb435c15832)" style="fill: #24868e"/>
   </g>
   <g id="PathCollection_25">
    <path d="M 41.77937 170.064 
L 40.791067 164.52 
L 40.11699 158.976 
L 39.643975 153.432 
L 39.30672 147.888 
L 39.064997 142.344 
L 38.892713 136.8 
L 38.772233 131.256 
L 38.691219 125.712 
L 38.640796 120.168 
L 38.614421 114.624 
L 38.607171 109.08 
L 38.615276 103.536 
L 38.635803 97.992 
L 38.666443 92.448 
L 38.705351 86.904 
L 38.751043 81.36 
L 38.802312 75.816 
L 38.858168 70.272 
L 38.917794 64.728 
L 38.98051 59.184 
L 39.04575 53.64 
L 39.113038 48.096 
L 39.181972 42.552 
L 39.252212 37.008 
L 39.323469 31.464 
L 39.395498 25.92 
L 40.520686 25.92 
L 40.448155 31.464 
L 40.376378 37.008 
L 40.305598 42.552 
L 40.236103 48.096 
L 40.168233 53.64 
L 40.102387 59.184 
L 40.03904 64.728 
L 39.978757 70.272 
L 39.922216 75.816 
L 39.870232 81.36 
L 39.823792 86.904 
L 39.784102 92.448 
L 39.752644 97.992 
L 39.731259 103.536 
L 39.722254 109.08 
L 39.728559 114.624 
L 39.753939 120.168 
L 39.803313 125.712 
L 39.88322 131.256 
L 40.002532 136.8 
L 40.173577 142.344 
L 40.413988 147.888 
L 40.749849 153.432 
L 41.22138 158.976 
L 41.893874 164.52 
L 41.952 164.846151 
L 44.216216 170.064 
L 47.899714 175.608 
L 47.904 175.611907 
L 53.856 178.388257 
L 59.808 179.977026 
L 65.76 180.94 
L 67.869449 181.152 
L 71.712 181.358497 
L 77.664 181.556808 
L 83.616 181.675756 
L 89.568 181.740878 
L 95.52 181.768457 
L 101.472 181.769282 
L 107.424 181.750734 
L 113.376 181.717994 
L 119.328 181.674777 
L 125.28 181.623796 
L 131.232 181.567066 
L 137.184 181.506098 
L 143.136 181.44204 
L 149.088 181.375775 
L 155.04 181.307983 
L 160.992 181.239192 
L 166.944 181.169817 
L 168.467138 181.152 
L 172.896 181.054316 
L 178.848 180.922997 
L 184.8 180.792005 
L 190.752 180.66164 
L 196.704 180.532139 
L 202.656 180.403686 
L 208.608 180.276426 
L 214.56 180.150468 
L 214.56 181.152 
L 214.56 181.947903 
L 208.608 182.014399 
L 202.656 182.081588 
L 196.704 182.149411 
L 190.752 182.217793 
L 184.8 182.286636 
L 178.848 182.355816 
L 172.896 182.425174 
L 166.944 182.494507 
L 160.992 182.56356 
L 155.04 182.632006 
L 149.088 182.699429 
L 143.136 182.765297 
L 137.184 182.828926 
L 131.232 182.889433 
L 125.28 182.945663 
L 119.328 182.996099 
L 113.376 183.038724 
L 107.424 183.070815 
L 101.472 183.08865 
L 95.52 183.087036 
L 89.568 183.058583 
L 83.616 182.992485 
L 77.664 182.872441 
L 71.712 182.672893 
L 65.76 182.351747 
L 59.808 181.835181 
L 55.041559 181.152 
L 53.856 180.834955 
L 47.904 178.051466 
L 45.223399 175.608 
L 41.952 170.694233 
z
" clip-path="url(#pb435c15832)" style="fill: #1f968b"/>
   </g>
   <g id="PathCollection_26">
    <path d="M 41.893874 164.52 
L 41.22138 158.976 
L 40.749849 153.432 
L 40.413988 147.888 
L 40.173577 142.344 
L 40.002532 136.8 
L 39.88322 131.256 
L 39.803313 125.712 
L 39.753939 120.168 
L 39.728559 114.624 
L 39.722254 109.08 
L 39.731259 103.536 
L 39.752644 97.992 
L 39.784102 92.448 
L 39.823792 86.904 
L 39.870232 81.36 
L 39.922216 75.816 
L 39.978757 70.272 
L 40.03904 64.728 
L 40.102387 59.184 
L 40.168233 53.64 
L 40.236103 48.096 
L 40.305598 42.552 
L 40.376378 37.008 
L 40.448155 31.464 
L 40.520686 25.92 
L 41.645874 25.92 
L 41.572841 31.464 
L 41.500543 37.008 
L 41.429224 42.552 
L 41.359169 48.096 
L 41.290716 53.64 
L 41.224264 59.184 
L 41.160286 64.728 
L 41.099346 70.272 
L 41.04212 75.816 
L 40.98942 81.36 
L 40.942233 86.904 
L 40.901762 92.448 
L 40.869486 97.992 
L 40.847243 103.536 
L 40.837338 109.08 
L 40.842696 114.624 
L 40.867081 120.168 
L 40.915407 125.712 
L 40.994208 131.256 
L 41.11235 136.8 
L 41.282158 142.344 
L 41.521257 147.888 
L 41.855723 153.432 
L 41.952 154.566334 
L 42.866248 158.976 
L 44.503556 164.52 
L 46.901409 170.064 
L 47.904 171.572997 
L 53.140908 175.608 
L 53.856 175.941558 
L 59.808 177.524217 
L 65.76 178.481904 
L 71.712 179.07619 
L 77.664 179.444228 
L 83.616 179.664266 
L 89.568 179.78385 
L 95.52 179.833317 
L 101.472 179.83279 
L 107.424 179.796042 
L 113.376 179.732747 
L 119.328 179.64985 
L 125.28 179.552427 
L 131.232 179.444243 
L 137.184 179.328131 
L 143.136 179.206242 
L 149.088 179.080228 
L 155.04 178.951365 
L 160.992 178.820645 
L 166.944 178.688845 
L 172.896 178.556573 
L 178.848 178.424307 
L 184.8 178.292424 
L 190.752 178.161219 
L 196.704 178.030924 
L 202.656 177.901721 
L 208.608 177.773749 
L 214.56 177.647116 
L 214.56 180.150468 
L 208.608 180.276426 
L 202.656 180.403686 
L 196.704 180.532139 
L 190.752 180.66164 
L 184.8 180.792005 
L 178.848 180.922997 
L 172.896 181.054316 
L 168.467138 181.152 
L 166.944 181.169817 
L 160.992 181.239192 
L 155.04 181.307983 
L 149.088 181.375775 
L 143.136 181.44204 
L 137.184 181.506098 
L 131.232 181.567066 
L 125.28 181.623796 
L 119.328 181.674777 
L 113.376 181.717994 
L 107.424 181.750734 
L 101.472 181.769282 
L 95.52 181.768457 
L 89.568 181.740878 
L 83.616 181.675756 
L 77.664 181.556808 
L 71.712 181.358497 
L 67.869449 181.152 
L 65.76 180.94 
L 59.808 179.977026 
L 53.856 178.388257 
L 47.904 175.611907 
L 47.899714 175.608 
L 44.216216 170.064 
L 41.952 164.846151 
z
" clip-path="url(#pb435c15832)" style="fill: #21a585"/>
   </g>
   <g id="PathCollection_27">
    <path d="M 41.855723 153.432 
L 41.521257 147.888 
L 41.282158 142.344 
L 41.11235 136.8 
L 40.994208 131.256 
L 40.915407 125.712 
L 40.867081 120.168 
L 40.842696 114.624 
L 40.837338 109.08 
L 40.847243 103.536 
L 40.869486 97.992 
L 40.901762 92.448 
L 40.942233 86.904 
L 40.98942 81.36 
L 41.04212 75.816 
L 41.099346 70.272 
L 41.160286 64.728 
L 41.224264 59.184 
L 41.290716 53.64 
L 41.359169 48.096 
L 41.429224 42.552 
L 41.500543 37.008 
L 41.572841 31.464 
L 41.645874 25.92 
L 41.952 25.92 
L 43.995592 25.92 
L 43.81121 31.464 
L 43.628763 37.008 
L 43.448862 42.552 
L 43.272221 48.096 
L 43.099681 53.64 
L 42.932232 59.184 
L 42.771048 64.728 
L 42.617526 70.272 
L 42.473333 75.816 
L 42.340476 81.36 
L 42.221378 86.904 
L 42.118996 92.448 
L 42.036958 97.992 
L 41.979762 103.536 
L 41.953041 109.08 
L 41.963933 114.624 
L 42.021606 120.168 
L 42.138018 125.712 
L 42.329045 131.256 
L 42.616205 136.8 
L 43.029376 142.344 
L 43.611243 147.888 
L 44.424907 153.432 
L 45.567603 158.976 
L 47.19708 164.52 
L 47.904 166.15657 
L 51.208827 170.064 
L 53.856 172.101701 
L 59.808 174.716421 
L 63.16457 175.608 
L 65.76 176.023809 
L 71.712 176.613478 
L 77.664 176.977453 
L 83.616 177.19389 
L 89.568 177.31026 
L 95.52 177.356844 
L 101.472 177.353714 
L 107.424 177.314607 
L 113.376 177.249164 
L 119.328 177.164303 
L 125.28 177.065077 
L 131.232 176.955233 
L 137.184 176.837587 
L 143.136 176.714278 
L 149.088 176.586944 
L 155.04 176.456851 
L 160.992 176.324984 
L 166.944 176.192109 
L 172.896 176.05883 
L 178.848 175.925617 
L 184.8 175.792843 
L 190.752 175.660798 
L 193.149722 175.608 
L 196.704 175.476474 
L 202.656 175.258093 
L 208.608 175.041777 
L 214.56 174.827708 
L 214.56 175.608 
L 214.56 177.647116 
L 208.608 177.773749 
L 202.656 177.901721 
L 196.704 178.030924 
L 190.752 178.161219 
L 184.8 178.292424 
L 178.848 178.424307 
L 172.896 178.556573 
L 166.944 178.688845 
L 160.992 178.820645 
L 155.04 178.951365 
L 149.088 179.080228 
L 143.136 179.206242 
L 137.184 179.328131 
L 131.232 179.444243 
L 125.28 179.552427 
L 119.328 179.64985 
L 113.376 179.732747 
L 107.424 179.796042 
L 101.472 179.83279 
L 95.52 179.833317 
L 89.568 179.78385 
L 83.616 179.664266 
L 77.664 179.444228 
L 71.712 179.07619 
L 65.76 178.481904 
L 59.808 177.524217 
L 53.856 175.941558 
L 53.140908 175.608 
L 47.904 171.572997 
L 46.901409 170.064 
L 44.503556 164.52 
L 42.866248 158.976 
L 41.952 154.566334 
z
" clip-path="url(#pb435c15832)" style="fill: #2fb47c"/>
   </g>
   <g id="PathCollection_28">
    <path d="M 47.19708 164.52 
L 45.567603 158.976 
L 44.424907 153.432 
L 43.611243 147.888 
L 43.029376 142.344 
L 42.616205 136.8 
L 42.329045 131.256 
L 42.138018 125.712 
L 42.021606 120.168 
L 41.963933 114.624 
L 41.953041 109.08 
L 41.979762 103.536 
L 42.036958 97.992 
L 42.118996 92.448 
L 42.221378 86.904 
L 42.340476 81.36 
L 42.473333 75.816 
L 42.617526 70.272 
L 42.771048 64.728 
L 42.932232 59.184 
L 43.099681 53.64 
L 43.272221 48.096 
L 43.448862 42.552 
L 43.628763 37.008 
L 43.81121 31.464 
L 43.995592 25.92 
L 46.80298 25.92 
L 46.615972 31.464 
L 46.430806 37.008 
L 46.248087 42.552 
L 46.068523 48.096 
L 45.89295 53.64 
L 45.722352 59.184 
L 45.557895 64.728 
L 45.400968 70.272 
L 45.253232 75.816 
L 45.116682 81.36 
L 44.993735 86.904 
L 44.887334 92.448 
L 44.801097 97.992 
L 44.739509 103.536 
L 44.70819 109.08 
L 44.714263 114.624 
L 44.766878 120.168 
L 44.877975 125.712 
L 45.063409 131.256 
L 45.344677 136.8 
L 45.75163 142.344 
L 46.326927 147.888 
L 47.133636 153.432 
L 47.904 157.190539 
L 48.623653 158.976 
L 51.813844 164.52 
L 53.856 166.93787 
L 58.49072 170.064 
L 59.808 170.640937 
L 65.76 172.210583 
L 71.712 173.181314 
L 77.664 173.778985 
L 83.616 174.132533 
L 89.568 174.320357 
L 95.52 174.392509 
L 101.472 174.382208 
L 107.424 174.3122 
L 113.376 174.19847 
L 119.328 174.052496 
L 125.28 173.882668 
L 131.232 173.695213 
L 137.184 173.494812 
L 143.136 173.285024 
L 149.088 173.068578 
L 155.04 172.847582 
L 160.992 172.623676 
L 166.944 172.398139 
L 172.896 172.171976 
L 178.848 171.945973 
L 184.8 171.720751 
L 190.752 171.496794 
L 196.704 171.274483 
L 202.656 171.054112 
L 208.608 170.835911 
L 214.56 170.620053 
L 214.56 174.827708 
L 208.608 175.041777 
L 202.656 175.258093 
L 196.704 175.476474 
L 193.149722 175.608 
L 190.752 175.660798 
L 184.8 175.792843 
L 178.848 175.925617 
L 172.896 176.05883 
L 166.944 176.192109 
L 160.992 176.324984 
L 155.04 176.456851 
L 149.088 176.586944 
L 143.136 176.714278 
L 137.184 176.837587 
L 131.232 176.955233 
L 125.28 177.065077 
L 119.328 177.164303 
L 113.376 177.249164 
L 107.424 177.314607 
L 101.472 177.353714 
L 95.52 177.356844 
L 89.568 177.31026 
L 83.616 177.19389 
L 77.664 176.977453 
L 71.712 176.613478 
L 65.76 176.023809 
L 63.16457 175.608 
L 59.808 174.716421 
L 53.856 172.101701 
L 51.208827 170.064 
L 47.904 166.15657 
z
" clip-path="url(#pb435c15832)" style="fill: #4ac16d"/>
   </g>
   <g id="PathCollection_29">
    <path d="M 47.133636 153.432 
L 46.326927 147.888 
L 45.75163 142.344 
L 45.344677 136.8 
L 45.063409 131.256 
L 44.877975 125.712 
L 44.766878 120.168 
L 44.714263 114.624 
L 44.70819 109.08 
L 44.739509 103.536 
L 44.801097 97.992 
L 44.887334 92.448 
L 44.993735 86.904 
L 45.116682 81.36 
L 45.253232 75.816 
L 45.400968 70.272 
L 45.557895 64.728 
L 45.722352 59.184 
L 45.89295 53.64 
L 46.068523 48.096 
L 46.248087 42.552 
L 46.430806 37.008 
L 46.615972 31.464 
L 46.80298 25.92 
L 47.904 25.92 
L 51.360109 25.92 
L 50.973927 31.464 
L 50.591744 37.008 
L 50.214787 42.552 
L 49.844491 48.096 
L 49.48254 53.64 
L 49.130916 59.184 
L 48.791959 64.728 
L 48.468448 70.272 
L 48.163695 75.816 
L 47.904 80.920218 
L 47.892889 81.36 
L 47.766091 86.904 
L 47.655672 92.448 
L 47.565236 97.992 
L 47.499257 103.536 
L 47.46334 109.08 
L 47.464593 114.624 
L 47.51215 120.168 
L 47.617931 125.712 
L 47.797774 131.256 
L 47.904 133.391774 
L 48.239783 136.8 
L 49.033551 142.344 
L 50.157134 147.888 
L 51.733148 153.432 
L 53.856 158.73895 
L 54.023391 158.976 
L 59.620965 164.52 
L 59.808 164.645886 
L 65.76 167.051104 
L 71.712 168.536163 
L 77.664 169.447281 
L 83.616 169.982351 
L 85.358423 170.064 
L 89.568 170.190991 
L 95.52 170.255613 
L 101.472 170.238507 
L 107.424 170.162321 
L 112.327978 170.064 
L 113.376 170.031124 
L 119.328 169.794827 
L 125.28 169.521622 
L 131.232 169.221153 
L 137.184 168.900676 
L 143.136 168.565713 
L 149.088 168.220499 
L 155.04 167.868311 
L 160.992 167.511696 
L 166.944 167.152645 
L 172.896 166.792719 
L 178.848 166.433145 
L 184.8 166.074886 
L 190.752 165.718698 
L 196.704 165.365172 
L 202.656 165.014768 
L 208.608 164.667842 
L 211.173038 164.52 
L 214.56 164.224841 
L 214.56 164.52 
L 214.56 170.064 
L 214.56 170.620053 
L 208.608 170.835911 
L 202.656 171.054112 
L 196.704 171.274483 
L 190.752 171.496794 
L 184.8 171.720751 
L 178.848 171.945973 
L 172.896 172.171976 
L 166.944 172.398139 
L 160.992 172.623676 
L 155.04 172.847582 
L 149.088 173.068578 
L 143.136 173.285024 
L 137.184 173.494812 
L 131.232 173.695213 
L 125.28 173.882668 
L 119.328 174.052496 
L 113.376 174.19847 
L 107.424 174.3122 
L 101.472 174.382208 
L 95.52 174.392509 
L 89.568 174.320357 
L 83.616 174.132533 
L 77.664 173.778985 
L 71.712 173.181314 
L 65.76 172.210583 
L 59.808 170.640937 
L 58.49072 170.064 
L 53.856 166.93787 
L 51.813844 164.52 
L 48.623653 158.976 
L 47.904 157.190539 
z
" clip-path="url(#pb435c15832)" style="fill: #6ece58"/>
   </g>
   <g id="PathCollection_30">
    <path d="M 47.797774 131.256 
L 47.617931 125.712 
L 47.51215 120.168 
L 47.464593 114.624 
L 47.46334 109.08 
L 47.499257 103.536 
L 47.565236 97.992 
L 47.655672 92.448 
L 47.766091 86.904 
L 47.892889 81.36 
L 47.904 80.920218 
L 48.163695 75.816 
L 48.468448 70.272 
L 48.791959 64.728 
L 49.130916 59.184 
L 49.48254 53.64 
L 49.844491 48.096 
L 50.214787 42.552 
L 50.591744 37.008 
L 50.973927 31.464 
L 51.360109 25.92 
L 53.856 25.92 
L 59.720402 25.92 
L 58.988746 31.464 
L 58.265101 37.008 
L 57.551726 42.552 
L 56.851251 48.096 
L 56.166751 53.64 
L 55.501828 59.184 
L 54.860723 64.728 
L 54.248451 70.272 
L 53.856 74.035529 
L 53.754355 75.816 
L 53.459636 81.36 
L 53.191935 86.904 
L 52.957052 92.448 
L 52.762102 97.992 
L 52.615894 103.536 
L 52.529444 109.08 
L 52.516698 114.624 
L 52.595548 120.168 
L 52.789304 125.712 
L 53.128888 131.256 
L 53.656172 136.8 
L 53.856 138.228974 
L 54.879398 142.344 
L 56.840047 147.888 
L 59.593934 153.432 
L 59.808 153.736244 
L 65.76 158.806133 
L 66.08504 158.976 
L 71.712 161.018827 
L 77.664 162.335801 
L 83.616 163.099597 
L 89.568 163.487003 
L 95.52 163.611181 
L 101.472 163.547429 
L 107.424 163.347441 
L 113.376 163.047628 
L 119.328 162.674193 
L 125.28 162.246331 
L 131.232 161.778315 
L 137.184 161.280897 
L 143.136 160.76226 
L 149.088 160.228689 
L 155.04 159.685045 
L 160.992 159.135113 
L 162.70547 158.976 
L 166.944 158.394407 
L 172.896 157.575811 
L 178.848 156.757625 
L 184.8 155.942032 
L 190.752 155.130752 
L 196.704 154.32514 
L 202.656 153.526259 
L 203.365794 153.432 
L 208.608 152.404697 
L 214.56 151.249482 
L 214.56 153.432 
L 214.56 158.976 
L 214.56 164.224841 
L 211.173038 164.52 
L 208.608 164.667842 
L 202.656 165.014768 
L 196.704 165.365172 
L 190.752 165.718698 
L 184.8 166.074886 
L 178.848 166.433145 
L 172.896 166.792719 
L 166.944 167.152645 
L 160.992 167.511696 
L 155.04 167.868311 
L 149.088 168.220499 
L 143.136 168.565713 
L 137.184 168.900676 
L 131.232 169.221153 
L 125.28 169.521622 
L 119.328 169.794827 
L 113.376 170.031124 
L 112.327978 170.064 
L 107.424 170.162321 
L 101.472 170.238507 
L 95.52 170.255613 
L 89.568 170.190991 
L 85.358423 170.064 
L 83.616 169.982351 
L 77.664 169.447281 
L 71.712 168.536163 
L 65.76 167.051104 
L 59.808 164.645886 
L 59.620965 164.52 
L 54.023391 158.976 
L 53.856 158.73895 
L 51.733148 153.432 
L 50.157134 147.888 
L 49.033551 142.344 
L 48.239783 136.8 
L 47.904 133.391774 
z
" clip-path="url(#pb435c15832)" style="fill: #95d840"/>
    <path d="M 159.489217 25.92 
L 160.992 25.92 
L 166.944 25.92 
L 172.896 25.92 
L 178.848 25.92 
L 184.8 25.92 
L 190.752 25.92 
L 196.704 25.92 
L 202.656 25.92 
L 208.608 25.92 
L 214.56 25.92 
L 214.56 31.464 
L 214.56 37.008 
L 214.56 42.552 
L 214.56 48.096 
L 214.56 53.64 
L 214.56 59.184 
L 214.56 64.728 
L 214.56 65.66128 
L 213.213855 64.728 
L 208.608 61.595669 
L 205.132609 59.184 
L 202.656 57.488258 
L 197.146432 53.64 
L 196.704 53.333647 
L 190.752 49.133921 
L 189.308459 48.096 
L 184.8 44.869995 
L 181.61942 42.552 
L 178.848 40.535597 
L 174.083366 37.008 
L 172.896 36.128086 
L 166.944 31.64563 
L 166.706171 31.464 
L 160.992 27.085906 
z
" clip-path="url(#pb435c15832)" style="fill: #95d840"/>
   </g>
   <g id="PathCollection_31">
    <path d="M 53.656172 136.8 
L 53.128888 131.256 
L 52.789304 125.712 
L 52.595548 120.168 
L 52.516698 114.624 
L 52.529444 109.08 
L 52.615894 103.536 
L 52.762102 97.992 
L 52.957052 92.448 
L 53.191935 86.904 
L 53.459636 81.36 
L 53.754355 75.816 
L 53.856 74.035529 
L 54.248451 70.272 
L 54.860723 64.728 
L 55.501828 59.184 
L 56.166751 53.64 
L 56.851251 48.096 
L 57.551726 42.552 
L 58.265101 37.008 
L 58.988746 31.464 
L 59.720402 25.92 
L 59.808 25.92 
L 65.76 25.92 
L 71.712 25.92 
L 77.664 25.92 
L 83.616 25.92 
L 89.568 25.92 
L 95.52 25.92 
L 101.472 25.92 
L 107.424 25.92 
L 113.376 25.92 
L 119.328 25.92 
L 125.28 25.92 
L 131.232 25.92 
L 137.184 25.92 
L 143.136 25.92 
L 149.088 25.92 
L 155.04 25.92 
L 159.489217 25.92 
L 160.992 27.085906 
L 166.706171 31.464 
L 166.944 31.64563 
L 172.896 36.128086 
L 174.083366 37.008 
L 178.848 40.535597 
L 181.61942 42.552 
L 184.8 44.869995 
L 189.308459 48.096 
L 190.752 49.133921 
L 196.704 53.333647 
L 197.146432 53.64 
L 202.656 57.488258 
L 205.132609 59.184 
L 208.608 61.595669 
L 213.213855 64.728 
L 214.56 65.66128 
L 214.56 70.272 
L 214.56 75.816 
L 214.56 81.36 
L 214.56 86.904 
L 214.56 92.448 
L 214.56 97.992 
L 214.56 103.536 
L 214.56 109.08 
L 214.56 114.624 
L 214.56 120.168 
L 214.56 125.712 
L 214.56 131.256 
L 214.56 136.8 
L 214.56 142.344 
L 214.56 147.888 
L 214.56 151.249482 
L 208.608 152.404697 
L 203.365794 153.432 
L 202.656 153.526259 
L 196.704 154.32514 
L 190.752 155.130752 
L 184.8 155.942032 
L 178.848 156.757625 
L 172.896 157.575811 
L 166.944 158.394407 
L 162.70547 158.976 
L 160.992 159.135113 
L 155.04 159.685045 
L 149.088 160.228689 
L 143.136 160.76226 
L 137.184 161.280897 
L 131.232 161.778315 
L 125.28 162.246331 
L 119.328 162.674193 
L 113.376 163.047628 
L 107.424 163.347441 
L 101.472 163.547429 
L 95.52 163.611181 
L 89.568 163.487003 
L 83.616 163.099597 
L 77.664 162.335801 
L 71.712 161.018827 
L 66.08504 158.976 
L 65.76 158.806133 
L 59.808 153.736244 
L 59.593934 153.432 
L 56.840047 147.888 
L 54.879398 142.344 
L 53.856 138.228974 
z
M 65.76 137.314477 
L 69.126219 142.344 
L 71.712 145.040476 
L 76.253252 147.888 
L 77.664 148.509327 
L 83.616 149.986825 
L 89.568 150.694535 
L 95.52 150.860846 
L 101.472 150.638535 
L 107.424 150.133057 
L 113.376 149.419093 
L 119.328 148.55067 
L 123.34588 147.888 
L 125.28 147.417029 
L 131.232 145.843916 
L 137.184 144.174077 
L 143.136 142.432999 
L 143.432826 142.344 
L 149.088 139.745864 
L 155.04 136.946763 
L 155.348726 136.8 
L 160.992 132.364787 
L 162.388964 131.256 
L 165.944886 125.712 
L 166.900953 120.168 
L 165.896202 114.624 
L 163.400303 109.08 
L 160.992 105.417565 
L 159.768804 103.536 
L 155.277995 97.992 
L 155.04 97.737792 
L 150.128434 92.448 
L 149.088 91.433209 
L 144.463078 86.904 
L 143.136 85.693445 
L 138.37772 81.36 
L 137.184 80.327465 
L 131.919342 75.816 
L 131.232 75.248633 
L 125.28 70.434532 
L 125.071433 70.272 
L 119.328 65.914204 
L 117.66831 64.728 
L 113.376 61.716106 
L 109.398804 59.184 
L 107.424 57.941413 
L 101.472 54.769973 
L 98.582715 53.64 
L 95.52 52.449147 
L 89.568 51.375937 
L 83.616 52.159418 
L 81.167766 53.64 
L 77.664 55.829554 
L 75.22236 59.184 
L 71.712 64.218934 
L 71.520271 64.728 
L 69.518641 70.272 
L 67.634804 75.816 
L 65.889216 81.36 
L 65.76 81.80903 
L 64.916905 86.904 
L 64.105184 92.448 
L 63.420891 97.992 
L 62.890254 103.536 
L 62.545862 109.08 
L 62.428717 114.624 
L 62.59112 120.168 
L 63.100867 125.712 
L 64.047457 131.256 
L 65.55158 136.8 
z
" clip-path="url(#pb435c15832)" style="fill: #c0df25"/>
   </g>
   <g id="PathCollection_32">
    <path d="M 65.55158 136.8 
L 64.047457 131.256 
L 63.100867 125.712 
L 62.59112 120.168 
L 62.428717 114.624 
L 62.545862 109.08 
L 62.890254 103.536 
L 63.420891 97.992 
L 64.105184 92.448 
L 64.916905 86.904 
L 65.76 81.80903 
L 65.889216 81.36 
L 67.634804 75.816 
L 69.518641 70.272 
L 71.520271 64.728 
L 71.712 64.218934 
L 75.22236 59.184 
L 77.664 55.829554 
L 81.167766 53.64 
L 83.616 52.159418 
L 89.568 51.375937 
L 95.52 52.449147 
L 98.582715 53.64 
L 101.472 54.769973 
L 107.424 57.941413 
L 109.398804 59.184 
L 113.376 61.716106 
L 117.66831 64.728 
L 119.328 65.914204 
L 125.071433 70.272 
L 125.28 70.434532 
L 131.232 75.248633 
L 131.919342 75.816 
L 137.184 80.327465 
L 138.37772 81.36 
L 143.136 85.693445 
L 144.463078 86.904 
L 149.088 91.433209 
L 150.128434 92.448 
L 155.04 97.737792 
L 155.277995 97.992 
L 159.768804 103.536 
L 160.992 105.417565 
L 163.400303 109.08 
L 165.896202 114.624 
L 166.900953 120.168 
L 165.944886 125.712 
L 162.388964 131.256 
L 160.992 132.364787 
L 155.348726 136.8 
L 155.04 136.946763 
L 149.088 139.745864 
L 143.432826 142.344 
L 143.136 142.432999 
L 137.184 144.174077 
L 131.232 145.843916 
L 125.28 147.417029 
L 123.34588 147.888 
L 119.328 148.55067 
L 113.376 149.419093 
L 107.424 150.133057 
L 101.472 150.638535 
L 95.52 150.860846 
L 89.568 150.694535 
L 83.616 149.986825 
L 77.664 148.509327 
L 76.253252 147.888 
L 71.712 145.040476 
L 69.126219 142.344 
L 65.76 137.314477 
z
" clip-path="url(#pb435c15832)" style="fill: #eae51a"/>
   </g>
   <g id="PathCollection_33">
    <defs>
     <path id="m42afd84856" d="M -4.330127 4.330127 
L 4.330127 -4.330127 
M -4.330127 -4.330127 
L 4.330127 4.330127 
" style="stroke: #000000; stroke-width: 2"/>
    </defs>
    <g clip-path="url(#pb435c15832)">
     <use xlink:href="#m42afd84856" x="85.6" y="127.56" style="stroke: #000000; stroke-width: 2"/>
    </g>
   </g>
   <g id="matplotlib.axis_1">
    <g id="xtick_1">
     <g id="line2d_1">
      <defs>
       <path id="m934a31b65c" d="M 0 0 
L 0 3.5 
" style="stroke: #000000; stroke-width: 0.8"/>
      </defs>
      <g>
       <use xlink:href="#m934a31b65c" x="75.68" y="192.24" style="stroke: #000000; stroke-width: 0.8"/>
      </g>
     </g>
     <g id="text_1">
      <!-- $\mathdefault{250}$ -->
      <g transform="translate(64.22 208.358125) scale(0.12 -0.12)">
       <defs>
        <path id="DejaVuSans-32" d="M 1228 531 
L 3431 531 
L 3431 0 
L 469 0 
L 469 531 
Q 828 903 1448 1529 
Q 2069 2156 2228 2338 
Q 2531 2678 2651 2914 
Q 2772 3150 2772 3378 
Q 2772 3750 2511 3984 
Q 2250 4219 1831 4219 
Q 1534 4219 1204 4116 
Q 875 4013 500 3803 
L 500 4441 
Q 881 4594 1212 4672 
Q 1544 4750 1819 4750 
Q 2544 4750 2975 4387 
Q 3406 4025 3406 3419 
Q 3406 3131 3298 2873 
Q 3191 2616 2906 2266 
Q 2828 2175 2409 1742 
Q 1991 1309 1228 531 
z
" transform="scale(0.015625)"/>
        <path id="DejaVuSans-35" d="M 691 4666 
L 3169 4666 
L 3169 4134 
L 1269 4134 
L 1269 2991 
Q 1406 3038 1543 3061 
Q 1681 3084 1819 3084 
Q 2600 3084 3056 2656 
Q 3513 2228 3513 1497 
Q 3513 744 3044 326 
Q 2575 -91 1722 -91 
Q 1428 -91 1123 -41 
Q 819 9 494 109 
L 494 744 
Q 775 591 1075 516 
Q 1375 441 1709 441 
Q 2250 441 2565 725 
Q 2881 1009 2881 1497 
Q 2881 1984 2565 2268 
Q 2250 2553 1709 2553 
Q 1456 2553 1204 2497 
Q 953 2441 691 2322 
L 691 4666 
z
" transform="scale(0.015625)"/>
        <path id="DejaVuSans-30" d="M 2034 4250 
Q 1547 4250 1301 3770 
Q 1056 3291 1056 2328 
Q 1056 1369 1301 889 
Q 1547 409 2034 409 
Q 2525 409 2770 889 
Q 3016 1369 3016 2328 
Q 3016 3291 2770 3770 
Q 2525 4250 2034 4250 
z
M 2034 4750 
Q 2819 4750 3233 4129 
Q 3647 3509 3647 2328 
Q 3647 1150 3233 529 
Q 2819 -91 2034 -91 
Q 1250 -91 836 529 
Q 422 1150 422 2328 
Q 422 3509 836 4129 
Q 1250 4750 2034 4750 
z
" transform="scale(0.015625)"/>
       </defs>
       <use xlink:href="#DejaVuSans-32" transform="translate(0 0.78125)"/>
       <use xlink:href="#DejaVuSans-35" transform="translate(63.623047 0.78125)"/>
       <use xlink:href="#DejaVuSans-30" transform="translate(127.246094 0.78125)"/>
      </g>
     </g>
    </g>
    <g id="xtick_2">
     <g id="line2d_2">
      <g>
       <use xlink:href="#m934a31b65c" x="125.28" y="192.24" style="stroke: #000000; stroke-width: 0.8"/>
      </g>
     </g>
     <g id="text_2">
      <!-- $\mathdefault{500}$ -->
      <g transform="translate(113.82 208.358125) scale(0.12 -0.12)">
       <use xlink:href="#DejaVuSans-35" transform="translate(0 0.78125)"/>
       <use xlink:href="#DejaVuSans-30" transform="translate(63.623047 0.78125)"/>
       <use xlink:href="#DejaVuSans-30" transform="translate(127.246094 0.78125)"/>
      </g>
     </g>
    </g>
    <g id="xtick_3">
     <g id="line2d_3">
      <g>
       <use xlink:href="#m934a31b65c" x="174.88" y="192.24" style="stroke: #000000; stroke-width: 0.8"/>
      </g>
     </g>
     <g id="text_3">
      <!-- $\mathdefault{750}$ -->
      <g transform="translate(163.42 208.358125) scale(0.12 -0.12)">
       <defs>
        <path id="DejaVuSans-37" d="M 525 4666 
L 3525 4666 
L 3525 4397 
L 1831 0 
L 1172 0 
L 2766 4134 
L 525 4134 
L 525 4666 
z
" transform="scale(0.015625)"/>
       </defs>
       <use xlink:href="#DejaVuSans-37" transform="translate(0 0.78125)"/>
       <use xlink:href="#DejaVuSans-35" transform="translate(63.623047 0.78125)"/>
       <use xlink:href="#DejaVuSans-30" transform="translate(127.246094 0.78125)"/>
      </g>
     </g>
    </g>
    <g id="text_4">
     <!-- Diploid N$_e$1 -->
     <g transform="translate(80 227.01375) scale(0.16 -0.16)">
      <defs>
       <path id="DejaVuSans-44" d="M 1259 4147 
L 1259 519 
L 2022 519 
Q 2988 519 3436 956 
Q 3884 1394 3884 2338 
Q 3884 3275 3436 3711 
Q 2988 4147 2022 4147 
L 1259 4147 
z
M 628 4666 
L 1925 4666 
Q 3281 4666 3915 4102 
Q 4550 3538 4550 2338 
Q 4550 1131 3912 565 
Q 3275 0 1925 0 
L 628 0 
L 628 4666 
z
" transform="scale(0.015625)"/>
       <path id="DejaVuSans-69" d="M 603 3500 
L 1178 3500 
L 1178 0 
L 603 0 
L 603 3500 
z
M 603 4863 
L 1178 4863 
L 1178 4134 
L 603 4134 
L 603 4863 
z
" transform="scale(0.015625)"/>
       <path id="DejaVuSans-70" d="M 1159 525 
L 1159 -1331 
L 581 -1331 
L 581 3500 
L 1159 3500 
L 1159 2969 
Q 1341 3281 1617 3432 
Q 1894 3584 2278 3584 
Q 2916 3584 3314 3078 
Q 3713 2572 3713 1747 
Q 3713 922 3314 415 
Q 2916 -91 2278 -91 
Q 1894 -91 1617 61 
Q 1341 213 1159 525 
z
M 3116 1747 
Q 3116 2381 2855 2742 
Q 2594 3103 2138 3103 
Q 1681 3103 1420 2742 
Q 1159 2381 1159 1747 
Q 1159 1113 1420 752 
Q 1681 391 2138 391 
Q 2594 391 2855 752 
Q 3116 1113 3116 1747 
z
" transform="scale(0.015625)"/>
       <path id="DejaVuSans-6c" d="M 603 4863 
L 1178 4863 
L 1178 0 
L 603 0 
L 603 4863 
z
" transform="scale(0.015625)"/>
       <path id="DejaVuSans-6f" d="M 1959 3097 
Q 1497 3097 1228 2736 
Q 959 2375 959 1747 
Q 959 1119 1226 758 
Q 1494 397 1959 397 
Q 2419 397 2687 759 
Q 2956 1122 2956 1747 
Q 2956 2369 2687 2733 
Q 2419 3097 1959 3097 
z
M 1959 3584 
Q 2709 3584 3137 3096 
Q 3566 2609 3566 1747 
Q 3566 888 3137 398 
Q 2709 -91 1959 -91 
Q 1206 -91 779 398 
Q 353 888 353 1747 
Q 353 2609 779 3096 
Q 1206 3584 1959 3584 
z
" transform="scale(0.015625)"/>
       <path id="DejaVuSans-64" d="M 2906 2969 
L 2906 4863 
L 3481 4863 
L 3481 0 
L 2906 0 
L 2906 525 
Q 2725 213 2448 61 
Q 2172 -91 1784 -91 
Q 1150 -91 751 415 
Q 353 922 353 1747 
Q 353 2572 751 3078 
Q 1150 3584 1784 3584 
Q 2172 3584 2448 3432 
Q 2725 3281 2906 2969 
z
M 947 1747 
Q 947 1113 1208 752 
Q 1469 391 1925 391 
Q 2381 391 2643 752 
Q 2906 1113 2906 1747 
Q 2906 2381 2643 2742 
Q 2381 3103 1925 3103 
Q 1469 3103 1208 2742 
Q 947 2381 947 1747 
z
" transform="scale(0.015625)"/>
       <path id="DejaVuSans-20" transform="scale(0.015625)"/>
       <path id="DejaVuSans-4e" d="M 628 4666 
L 1478 4666 
L 3547 763 
L 3547 4666 
L 4159 4666 
L 4159 0 
L 3309 0 
L 1241 3903 
L 1241 0 
L 628 0 
L 628 4666 
z
" transform="scale(0.015625)"/>
       <path id="DejaVuSans-Oblique-65" d="M 3078 2063 
Q 3088 2113 3092 2166 
Q 3097 2219 3097 2272 
Q 3097 2653 2873 2875 
Q 2650 3097 2266 3097 
Q 1838 3097 1509 2826 
Q 1181 2556 1013 2059 
L 3078 2063 
z
M 3578 1613 
L 903 1613 
Q 884 1494 878 1425 
Q 872 1356 872 1306 
Q 872 872 1139 634 
Q 1406 397 1894 397 
Q 2269 397 2603 481 
Q 2938 566 3225 728 
L 3116 159 
Q 2806 34 2476 -28 
Q 2147 -91 1806 -91 
Q 1078 -91 686 257 
Q 294 606 294 1247 
Q 294 1794 489 2264 
Q 684 2734 1063 3103 
Q 1306 3334 1642 3459 
Q 1978 3584 2356 3584 
Q 2950 3584 3301 3228 
Q 3653 2872 3653 2272 
Q 3653 2128 3634 1964 
Q 3616 1800 3578 1613 
z
" transform="scale(0.015625)"/>
       <path id="DejaVuSans-31" d="M 794 531 
L 1825 531 
L 1825 4091 
L 703 3866 
L 703 4441 
L 1819 4666 
L 2450 4666 
L 2450 531 
L 3481 531 
L 3481 0 
L 794 0 
L 794 531 
z
" transform="scale(0.015625)"/>
      </defs>
      <use xlink:href="#DejaVuSans-44" transform="translate(0 0.015625)"/>
      <use xlink:href="#DejaVuSans-69" transform="translate(77.001953 0.015625)"/>
      <use xlink:href="#DejaVuSans-70" transform="translate(104.785156 0.015625)"/>
      <use xlink:href="#DejaVuSans-6c" transform="translate(168.261719 0.015625)"/>
      <use xlink:href="#DejaVuSans-6f" transform="translate(196.044922 0.015625)"/>
      <use xlink:href="#DejaVuSans-69" transform="translate(257.226562 0.015625)"/>
      <use xlink:href="#DejaVuSans-64" transform="translate(285.009766 0.015625)"/>
      <use xlink:href="#DejaVuSans-20" transform="translate(348.486328 0.015625)"/>
      <use xlink:href="#DejaVuSans-4e" transform="translate(380.273438 0.015625)"/>
      <use xlink:href="#DejaVuSans-Oblique-65" transform="translate(456.035156 -16.390625) scale(0.7)"/>
      <use xlink:href="#DejaVuSans-31" transform="translate(501.835938 0.015625)"/>
     </g>
    </g>
    <g id="text_5">
     <!-- $\times\mathdefault{10^{3}}\mathdefault{}$ -->
     <g transform="translate(188.56 221.452188) scale(0.1 -0.1)">
      <defs>
       <path id="DejaVuSans-d7" d="M 4488 3438 
L 3059 2003 
L 4488 575 
L 4116 197 
L 2681 1631 
L 1247 197 
L 878 575 
L 2303 2003 
L 878 3438 
L 1247 3816 
L 2681 2381 
L 4116 3816 
L 4488 3438 
z
" transform="scale(0.015625)"/>
       <path id="DejaVuSans-33" d="M 2597 2516 
Q 3050 2419 3304 2112 
Q 3559 1806 3559 1356 
Q 3559 666 3084 287 
Q 2609 -91 1734 -91 
Q 1441 -91 1130 -33 
Q 819 25 488 141 
L 488 750 
Q 750 597 1062 519 
Q 1375 441 1716 441 
Q 2309 441 2620 675 
Q 2931 909 2931 1356 
Q 2931 1769 2642 2001 
Q 2353 2234 1838 2234 
L 1294 2234 
L 1294 2753 
L 1863 2753 
Q 2328 2753 2575 2939 
Q 2822 3125 2822 3475 
Q 2822 3834 2567 4026 
Q 2313 4219 1838 4219 
Q 1578 4219 1281 4162 
Q 984 4106 628 3988 
L 628 4550 
Q 988 4650 1302 4700 
Q 1616 4750 1894 4750 
Q 2613 4750 3031 4423 
Q 3450 4097 3450 3541 
Q 3450 3153 3228 2886 
Q 3006 2619 2597 2516 
z
" transform="scale(0.015625)"/>
      </defs>
      <use xlink:href="#DejaVuSans-d7" transform="translate(0 0.765625)"/>
      <use xlink:href="#DejaVuSans-31" transform="translate(83.789062 0.765625)"/>
      <use xlink:href="#DejaVuSans-30" transform="translate(147.412109 0.765625)"/>
      <use xlink:href="#DejaVuSans-33" transform="translate(211.992188 39.046875) scale(0.7)"/>
     </g>
    </g>
   </g>
   <g id="matplotlib.axis_2">
    <g id="ytick_1">
     <g id="line2d_4">
      <defs>
       <path id="mf628722249" d="M 0 0 
L -3.5 0 
" style="stroke: #000000; stroke-width: 0.8"/>
      </defs>
      <g>
       <use xlink:href="#mf628722249" x="36" y="155.28" style="stroke: #000000; stroke-width: 0.8"/>
      </g>
     </g>
     <g id="text_6">
      <!-- $\mathdefault{250}$ -->
      <g transform="translate(6.08 159.839063) scale(0.12 -0.12)">
       <use xlink:href="#DejaVuSans-32" transform="translate(0 0.78125)"/>
       <use xlink:href="#DejaVuSans-35" transform="translate(63.623047 0.78125)"/>
       <use xlink:href="#DejaVuSans-30" transform="translate(127.246094 0.78125)"/>
      </g>
     </g>
    </g>
    <g id="ytick_2">
     <g id="line2d_5">
      <g>
       <use xlink:href="#mf628722249" x="36" y="109.08" style="stroke: #000000; stroke-width: 0.8"/>
      </g>
     </g>
     <g id="text_7">
      <!-- $\mathdefault{500}$ -->
      <g transform="translate(6.08 113.639062) scale(0.12 -0.12)">
       <use xlink:href="#DejaVuSans-35" transform="translate(0 0.78125)"/>
       <use xlink:href="#DejaVuSans-30" transform="translate(63.623047 0.78125)"/>
       <use xlink:href="#DejaVuSans-30" transform="translate(127.246094 0.78125)"/>
      </g>
     </g>
    </g>
    <g id="ytick_3">
     <g id="line2d_6">
      <g>
       <use xlink:href="#mf628722249" x="36" y="62.88" style="stroke: #000000; stroke-width: 0.8"/>
      </g>
     </g>
     <g id="text_8">
      <!-- $\mathdefault{750}$ -->
      <g transform="translate(6.08 67.439062) scale(0.12 -0.12)">
       <use xlink:href="#DejaVuSans-37" transform="translate(0 0.78125)"/>
       <use xlink:href="#DejaVuSans-35" transform="translate(63.623047 0.78125)"/>
       <use xlink:href="#DejaVuSans-30" transform="translate(127.246094 0.78125)"/>
      </g>
     </g>
    </g>
    <g id="text_9">
     <!-- Diploid N$_e$2 -->
     <g transform="translate(-1.28 154.36) rotate(-90) scale(0.16 -0.16)">
      <use xlink:href="#DejaVuSans-44" transform="translate(0 0.015625)"/>
      <use xlink:href="#DejaVuSans-69" transform="translate(77.001953 0.015625)"/>
      <use xlink:href="#DejaVuSans-70" transform="translate(104.785156 0.015625)"/>
      <use xlink:href="#DejaVuSans-6c" transform="translate(168.261719 0.015625)"/>
      <use xlink:href="#DejaVuSans-6f" transform="translate(196.044922 0.015625)"/>
      <use xlink:href="#DejaVuSans-69" transform="translate(257.226562 0.015625)"/>
      <use xlink:href="#DejaVuSans-64" transform="translate(285.009766 0.015625)"/>
      <use xlink:href="#DejaVuSans-20" transform="translate(348.486328 0.015625)"/>
      <use xlink:href="#DejaVuSans-4e" transform="translate(380.273438 0.015625)"/>
      <use xlink:href="#DejaVuSans-Oblique-65" transform="translate(456.035156 -16.390625) scale(0.7)"/>
      <use xlink:href="#DejaVuSans-32" transform="translate(501.835938 0.015625)"/>
     </g>
    </g>
    <g id="text_10">
     <!-- $\times\mathdefault{10^{3}}\mathdefault{}$ -->
     <g transform="translate(36 22.92) scale(0.1 -0.1)">
      <use xlink:href="#DejaVuSans-d7" transform="translate(0 0.765625)"/>
      <use xlink:href="#DejaVuSans-31" transform="translate(83.789062 0.765625)"/>
      <use xlink:href="#DejaVuSans-30" transform="translate(147.412109 0.765625)"/>
      <use xlink:href="#DejaVuSans-33" transform="translate(211.992188 39.046875) scale(0.7)"/>
     </g>
    </g>
   </g>
   <g id="patch_3">
    <path d="M 36 192.24 
L 36 25.92 
" style="fill: none; stroke: #000000; stroke-width: 0.8; stroke-linejoin: miter; stroke-linecap: square"/>
   </g>
   <g id="patch_4">
    <path d="M 214.56 192.24 
L 214.56 25.92 
" style="fill: none; stroke: #000000; stroke-width: 0.8; stroke-linejoin: miter; stroke-linecap: square"/>
   </g>
   <g id="patch_5">
    <path d="M 36 192.24 
L 214.56 192.24 
" style="fill: none; stroke: #000000; stroke-width: 0.8; stroke-linejoin: miter; stroke-linecap: square"/>
   </g>
   <g id="patch_6">
    <path d="M 36 25.92 
L 214.56 25.92 
" style="fill: none; stroke: #000000; stroke-width: 0.8; stroke-linejoin: miter; stroke-linecap: square"/>
   </g>
   <g id="text_11">
    <!-- Ne1Ne2-MSSMC-G-P2-S4 -->
    <g transform="translate(25.62 10.92) scale(0.16 -0.16)">
     <defs>
      <path id="DejaVuSans-65" d="M 3597 1894 
L 3597 1613 
L 953 1613 
Q 991 1019 1311 708 
Q 1631 397 2203 397 
Q 2534 397 2845 478 
Q 3156 559 3463 722 
L 3463 178 
Q 3153 47 2828 -22 
Q 2503 -91 2169 -91 
Q 1331 -91 842 396 
Q 353 884 353 1716 
Q 353 2575 817 3079 
Q 1281 3584 2069 3584 
Q 2775 3584 3186 3129 
Q 3597 2675 3597 1894 
z
M 3022 2063 
Q 3016 2534 2758 2815 
Q 2500 3097 2075 3097 
Q 1594 3097 1305 2825 
Q 1016 2553 972 2059 
L 3022 2063 
z
" transform="scale(0.015625)"/>
      <path id="DejaVuSans-2d" d="M 313 2009 
L 1997 2009 
L 1997 1497 
L 313 1497 
L 313 2009 
z
" transform="scale(0.015625)"/>
      <path id="DejaVuSans-4d" d="M 628 4666 
L 1569 4666 
L 2759 1491 
L 3956 4666 
L 4897 4666 
L 4897 0 
L 4281 0 
L 4281 4097 
L 3078 897 
L 2444 897 
L 1241 4097 
L 1241 0 
L 628 0 
L 628 4666 
z
" transform="scale(0.015625)"/>
      <path id="DejaVuSans-53" d="M 3425 4513 
L 3425 3897 
Q 3066 4069 2747 4153 
Q 2428 4238 2131 4238 
Q 1616 4238 1336 4038 
Q 1056 3838 1056 3469 
Q 1056 3159 1242 3001 
Q 1428 2844 1947 2747 
L 2328 2669 
Q 3034 2534 3370 2195 
Q 3706 1856 3706 1288 
Q 3706 609 3251 259 
Q 2797 -91 1919 -91 
Q 1588 -91 1214 -16 
Q 841 59 441 206 
L 441 856 
Q 825 641 1194 531 
Q 1563 422 1919 422 
Q 2459 422 2753 634 
Q 3047 847 3047 1241 
Q 3047 1584 2836 1778 
Q 2625 1972 2144 2069 
L 1759 2144 
Q 1053 2284 737 2584 
Q 422 2884 422 3419 
Q 422 4038 858 4394 
Q 1294 4750 2059 4750 
Q 2388 4750 2728 4690 
Q 3069 4631 3425 4513 
z
" transform="scale(0.015625)"/>
      <path id="DejaVuSans-43" d="M 4122 4306 
L 4122 3641 
Q 3803 3938 3442 4084 
Q 3081 4231 2675 4231 
Q 1875 4231 1450 3742 
Q 1025 3253 1025 2328 
Q 1025 1406 1450 917 
Q 1875 428 2675 428 
Q 3081 428 3442 575 
Q 3803 722 4122 1019 
L 4122 359 
Q 3791 134 3420 21 
Q 3050 -91 2638 -91 
Q 1578 -91 968 557 
Q 359 1206 359 2328 
Q 359 3453 968 4101 
Q 1578 4750 2638 4750 
Q 3056 4750 3426 4639 
Q 3797 4528 4122 4306 
z
" transform="scale(0.015625)"/>
      <path id="DejaVuSans-47" d="M 3809 666 
L 3809 1919 
L 2778 1919 
L 2778 2438 
L 4434 2438 
L 4434 434 
Q 4069 175 3628 42 
Q 3188 -91 2688 -91 
Q 1594 -91 976 548 
Q 359 1188 359 2328 
Q 359 3472 976 4111 
Q 1594 4750 2688 4750 
Q 3144 4750 3555 4637 
Q 3966 4525 4313 4306 
L 4313 3634 
Q 3963 3931 3569 4081 
Q 3175 4231 2741 4231 
Q 1884 4231 1454 3753 
Q 1025 3275 1025 2328 
Q 1025 1384 1454 906 
Q 1884 428 2741 428 
Q 3075 428 3337 486 
Q 3600 544 3809 666 
z
" transform="scale(0.015625)"/>
      <path id="DejaVuSans-50" d="M 1259 4147 
L 1259 2394 
L 2053 2394 
Q 2494 2394 2734 2622 
Q 2975 2850 2975 3272 
Q 2975 3691 2734 3919 
Q 2494 4147 2053 4147 
L 1259 4147 
z
M 628 4666 
L 2053 4666 
Q 2838 4666 3239 4311 
Q 3641 3956 3641 3272 
Q 3641 2581 3239 2228 
Q 2838 1875 2053 1875 
L 1259 1875 
L 1259 0 
L 628 0 
L 628 4666 
z
" transform="scale(0.015625)"/>
      <path id="DejaVuSans-34" d="M 2419 4116 
L 825 1625 
L 2419 1625 
L 2419 4116 
z
M 2253 4666 
L 3047 4666 
L 3047 1625 
L 3713 1625 
L 3713 1100 
L 3047 1100 
L 3047 0 
L 2419 0 
L 2419 1100 
L 313 1100 
L 313 1709 
L 2253 4666 
z
" transform="scale(0.015625)"/>
     </defs>
     <use xlink:href="#DejaVuSans-4e"/>
     <use xlink:href="#DejaVuSans-65" x="74.804688"/>
     <use xlink:href="#DejaVuSans-31" x="136.328125"/>
     <use xlink:href="#DejaVuSans-4e" x="199.951172"/>
     <use xlink:href="#DejaVuSans-65" x="274.755859"/>
     <use xlink:href="#DejaVuSans-32" x="336.279297"/>
     <use xlink:href="#DejaVuSans-2d" x="399.902344"/>
     <use xlink:href="#DejaVuSans-4d" x="435.986328"/>
     <use xlink:href="#DejaVuSans-53" x="522.265625"/>
     <use xlink:href="#DejaVuSans-53" x="585.742188"/>
     <use xlink:href="#DejaVuSans-4d" x="649.21875"/>
     <use xlink:href="#DejaVuSans-43" x="735.498047"/>
     <use xlink:href="#DejaVuSans-2d" x="805.322266"/>
     <use xlink:href="#DejaVuSans-47" x="845.03125"/>
     <use xlink:href="#DejaVuSans-2d" x="922.521484"/>
     <use xlink:href="#DejaVuSans-50" x="958.605469"/>
     <use xlink:href="#DejaVuSans-32" x="1018.908203"/>
     <use xlink:href="#DejaVuSans-2d" x="1082.53125"/>
     <use xlink:href="#DejaVuSans-53" x="1118.615234"/>
     <use xlink:href="#DejaVuSans-34" x="1182.091797"/>
    </g>
   </g>
  </g>
  <g id="axes_2">
   <g id="patch_7">
    <path d="M 225.72 192.24 
L 234.036 192.24 
L 234.036 25.92 
L 225.72 25.92 
z
" style="fill: #ffffff"/>
   </g>
   <g id="QuadMesh_1">
    <path d="M 225.72 192.24 
L 234.036 192.24 
L 234.036 187.0425 
L 225.72 187.0425 
L 225.72 192.24 
" clip-path="url(#p2fe7ee0144)" style="fill: #440154"/>
    <path d="M 225.72 187.0425 
L 234.036 187.0425 
L 234.036 181.845 
L 225.72 181.845 
L 225.72 187.0425 
" clip-path="url(#p2fe7ee0144)" style="fill: #440154"/>
    <path d="M 225.72 181.845 
L 234.036 181.845 
L 234.036 176.6475 
L 225.72 176.6475 
L 225.72 181.845 
" clip-path="url(#p2fe7ee0144)" style="fill: #440154"/>
    <path d="M 225.72 176.6475 
L 234.036 176.6475 
L 234.036 171.45 
L 225.72 171.45 
L 225.72 176.6475 
" clip-path="url(#p2fe7ee0144)" style="fill: #440154"/>
    <path d="M 225.72 171.45 
L 234.036 171.45 
L 234.036 166.2525 
L 225.72 166.2525 
L 225.72 171.45 
" clip-path="url(#p2fe7ee0144)" style="fill: #440154"/>
    <path d="M 225.72 166.2525 
L 234.036 166.2525 
L 234.036 161.055 
L 225.72 161.055 
L 225.72 166.2525 
" clip-path="url(#p2fe7ee0144)" style="fill: #440154"/>
    <path d="M 225.72 161.055 
L 234.036 161.055 
L 234.036 155.8575 
L 225.72 155.8575 
L 225.72 161.055 
" clip-path="url(#p2fe7ee0144)" style="fill: #440154"/>
    <path d="M 225.72 155.8575 
L 234.036 155.8575 
L 234.036 150.66 
L 225.72 150.66 
L 225.72 155.8575 
" clip-path="url(#p2fe7ee0144)" style="fill: #440154"/>
    <path d="M 225.72 150.66 
L 234.036 150.66 
L 234.036 145.4625 
L 225.72 145.4625 
L 225.72 150.66 
" clip-path="url(#p2fe7ee0144)" style="fill: #440154"/>
    <path d="M 225.72 145.4625 
L 234.036 145.4625 
L 234.036 140.265 
L 225.72 140.265 
L 225.72 145.4625 
" clip-path="url(#p2fe7ee0144)" style="fill: #440154"/>
    <path d="M 225.72 140.265 
L 234.036 140.265 
L 234.036 135.0675 
L 225.72 135.0675 
L 225.72 140.265 
" clip-path="url(#p2fe7ee0144)" style="fill: #440154"/>
    <path d="M 225.72 135.0675 
L 234.036 135.0675 
L 234.036 129.87 
L 225.72 129.87 
L 225.72 135.0675 
" clip-path="url(#p2fe7ee0144)" style="fill: #440154"/>
    <path d="M 225.72 129.87 
L 234.036 129.87 
L 234.036 124.6725 
L 225.72 124.6725 
L 225.72 129.87 
" clip-path="url(#p2fe7ee0144)" style="fill: #440154"/>
    <path d="M 225.72 124.6725 
L 234.036 124.6725 
L 234.036 119.475 
L 225.72 119.475 
L 225.72 124.6725 
" clip-path="url(#p2fe7ee0144)" style="fill: #440154"/>
    <path d="M 225.72 119.475 
L 234.036 119.475 
L 234.036 114.2775 
L 225.72 114.2775 
L 225.72 119.475 
" clip-path="url(#p2fe7ee0144)" style="fill: #440154"/>
    <path d="M 225.72 114.2775 
L 234.036 114.2775 
L 234.036 109.08 
L 225.72 109.08 
L 225.72 114.2775 
" clip-path="url(#p2fe7ee0144)" style="fill: #440154"/>
    <path d="M 225.72 109.08 
L 234.036 109.08 
L 234.036 103.8825 
L 225.72 103.8825 
L 225.72 109.08 
" clip-path="url(#p2fe7ee0144)" style="fill: #46075a"/>
    <path d="M 225.72 103.8825 
L 234.036 103.8825 
L 234.036 98.685 
L 225.72 98.685 
L 225.72 103.8825 
" clip-path="url(#p2fe7ee0144)" style="fill: #481d6f"/>
    <path d="M 225.72 98.685 
L 234.036 98.685 
L 234.036 93.4875 
L 225.72 93.4875 
L 225.72 98.685 
" clip-path="url(#p2fe7ee0144)" style="fill: #46327e"/>
    <path d="M 225.72 93.4875 
L 234.036 93.4875 
L 234.036 88.29 
L 225.72 88.29 
L 225.72 93.4875 
" clip-path="url(#p2fe7ee0144)" style="fill: #404588"/>
    <path d="M 225.72 88.29 
L 234.036 88.29 
L 234.036 83.0925 
L 225.72 83.0925 
L 225.72 88.29 
" clip-path="url(#p2fe7ee0144)" style="fill: #38588c"/>
    <path d="M 225.72 83.0925 
L 234.036 83.0925 
L 234.036 77.895 
L 225.72 77.895 
L 225.72 83.0925 
" clip-path="url(#p2fe7ee0144)" style="fill: #31688e"/>
    <path d="M 225.72 77.895 
L 234.036 77.895 
L 234.036 72.6975 
L 225.72 72.6975 
L 225.72 77.895 
" clip-path="url(#p2fe7ee0144)" style="fill: #2a778e"/>
    <path d="M 225.72 72.6975 
L 234.036 72.6975 
L 234.036 67.5 
L 225.72 67.5 
L 225.72 72.6975 
" clip-path="url(#p2fe7ee0144)" style="fill: #24868e"/>
    <path d="M 225.72 67.5 
L 234.036 67.5 
L 234.036 62.3025 
L 225.72 62.3025 
L 225.72 67.5 
" clip-path="url(#p2fe7ee0144)" style="fill: #1f968b"/>
    <path d="M 225.72 62.3025 
L 234.036 62.3025 
L 234.036 57.105 
L 225.72 57.105 
L 225.72 62.3025 
" clip-path="url(#p2fe7ee0144)" style="fill: #21a585"/>
    <path d="M 225.72 57.105 
L 234.036 57.105 
L 234.036 51.9075 
L 225.72 51.9075 
L 225.72 57.105 
" clip-path="url(#p2fe7ee0144)" style="fill: #2fb47c"/>
    <path d="M 225.72 51.9075 
L 234.036 51.9075 
L 234.036 46.71 
L 225.72 46.71 
L 225.72 51.9075 
" clip-path="url(#p2fe7ee0144)" style="fill: #4ac16d"/>
    <path d="M 225.72 46.71 
L 234.036 46.71 
L 234.036 41.5125 
L 225.72 41.5125 
L 225.72 46.71 
" clip-path="url(#p2fe7ee0144)" style="fill: #6ece58"/>
    <path d="M 225.72 41.5125 
L 234.036 41.5125 
L 234.036 36.315 
L 225.72 36.315 
L 225.72 41.5125 
" clip-path="url(#p2fe7ee0144)" style="fill: #95d840"/>
    <path d="M 225.72 36.315 
L 234.036 36.315 
L 234.036 31.1175 
L 225.72 31.1175 
L 225.72 36.315 
" clip-path="url(#p2fe7ee0144)" style="fill: #c0df25"/>
    <path d="M 225.72 31.1175 
L 234.036 31.1175 
L 234.036 25.92 
L 225.72 25.92 
L 225.72 31.1175 
" clip-path="url(#p2fe7ee0144)" style="fill: #eae51a"/>
   </g>
   <g id="matplotlib.axis_3"/>
   <g id="matplotlib.axis_4">
    <g id="ytick_4">
     <g id="line2d_7">
      <defs>
       <path id="mc12eed2710" d="M 0 0 
L 3.5 0 
" style="stroke: #000000; stroke-width: 0.8"/>
      </defs>
      <g>
       <use xlink:href="#mc12eed2710" x="234.036" y="192.24" style="stroke: #000000; stroke-width: 0.8"/>
      </g>
     </g>
     <g id="text_12">
      <!-- $\mathdefault{26790}$ -->
      <g transform="translate(241.036 196.039219) scale(0.1 -0.1)">
       <defs>
        <path id="DejaVuSans-2212" d="M 678 2272 
L 4684 2272 
L 4684 1741 
L 678 1741 
L 678 2272 
z
" transform="scale(0.015625)"/>
        <path id="DejaVuSans-36" d="M 2113 2584 
Q 1688 2584 1439 2293 
Q 1191 2003 1191 1497 
Q 1191 994 1439 701 
Q 1688 409 2113 409 
Q 2538 409 2786 701 
Q 3034 994 3034 1497 
Q 3034 2003 2786 2293 
Q 2538 2584 2113 2584 
z
M 3366 4563 
L 3366 3988 
Q 3128 4100 2886 4159 
Q 2644 4219 2406 4219 
Q 1781 4219 1451 3797 
Q 1122 3375 1075 2522 
Q 1259 2794 1537 2939 
Q 1816 3084 2150 3084 
Q 2853 3084 3261 2657 
Q 3669 2231 3669 1497 
Q 3669 778 3244 343 
Q 2819 -91 2113 -91 
Q 1303 -91 875 529 
Q 447 1150 447 2328 
Q 447 3434 972 4092 
Q 1497 4750 2381 4750 
Q 2619 4750 2861 4703 
Q 3103 4656 3366 4563 
z
" transform="scale(0.015625)"/>
        <path id="DejaVuSans-39" d="M 703 97 
L 703 672 
Q 941 559 1184 500 
Q 1428 441 1663 441 
Q 2288 441 2617 861 
Q 2947 1281 2994 2138 
Q 2813 1869 2534 1725 
Q 2256 1581 1919 1581 
Q 1219 1581 811 2004 
Q 403 2428 403 3163 
Q 403 3881 828 4315 
Q 1253 4750 1959 4750 
Q 2769 4750 3195 4129 
Q 3622 3509 3622 2328 
Q 3622 1225 3098 567 
Q 2575 -91 1691 -91 
Q 1453 -91 1209 -44 
Q 966 3 703 97 
z
M 1959 2075 
Q 2384 2075 2632 2365 
Q 2881 2656 2881 3163 
Q 2881 3666 2632 3958 
Q 2384 4250 1959 4250 
Q 1534 4250 1286 3958 
Q 1038 3666 1038 3163 
Q 1038 2656 1286 2365 
Q 1534 2075 1959 2075 
z
" transform="scale(0.015625)"/>
       </defs>
       <use xlink:href="#DejaVuSans-2212" transform="translate(0 0.78125)"/>
       <use xlink:href="#DejaVuSans-32" transform="translate(83.789062 0.78125)"/>
       <use xlink:href="#DejaVuSans-36" transform="translate(147.412109 0.78125)"/>
       <use xlink:href="#DejaVuSans-37" transform="translate(211.035156 0.78125)"/>
       <use xlink:href="#DejaVuSans-39" transform="translate(274.658203 0.78125)"/>
       <use xlink:href="#DejaVuSans-30" transform="translate(338.28125 0.78125)"/>
      </g>
     </g>
    </g>
    <g id="ytick_5">
     <g id="line2d_8">
      <g>
       <use xlink:href="#mc12eed2710" x="234.036" y="171.45" style="stroke: #000000; stroke-width: 0.8"/>
      </g>
     </g>
     <g id="text_13">
      <!-- $\mathdefault{26670}$ -->
      <g transform="translate(241.036 175.249219) scale(0.1 -0.1)">
       <use xlink:href="#DejaVuSans-2212" transform="translate(0 0.78125)"/>
       <use xlink:href="#DejaVuSans-32" transform="translate(83.789062 0.78125)"/>
       <use xlink:href="#DejaVuSans-36" transform="translate(147.412109 0.78125)"/>
       <use xlink:href="#DejaVuSans-36" transform="translate(211.035156 0.78125)"/>
       <use xlink:href="#DejaVuSans-37" transform="translate(274.658203 0.78125)"/>
       <use xlink:href="#DejaVuSans-30" transform="translate(338.28125 0.78125)"/>
      </g>
     </g>
    </g>
    <g id="ytick_6">
     <g id="line2d_9">
      <g>
       <use xlink:href="#mc12eed2710" x="234.036" y="150.66" style="stroke: #000000; stroke-width: 0.8"/>
      </g>
     </g>
     <g id="text_14">
      <!-- $\mathdefault{26550}$ -->
      <g transform="translate(241.036 154.459219) scale(0.1 -0.1)">
       <use xlink:href="#DejaVuSans-2212" transform="translate(0 0.78125)"/>
       <use xlink:href="#DejaVuSans-32" transform="translate(83.789062 0.78125)"/>
       <use xlink:href="#DejaVuSans-36" transform="translate(147.412109 0.78125)"/>
       <use xlink:href="#DejaVuSans-35" transform="translate(211.035156 0.78125)"/>
       <use xlink:href="#DejaVuSans-35" transform="translate(274.658203 0.78125)"/>
       <use xlink:href="#DejaVuSans-30" transform="translate(338.28125 0.78125)"/>
      </g>
     </g>
    </g>
    <g id="ytick_7">
     <g id="line2d_10">
      <g>
       <use xlink:href="#mc12eed2710" x="234.036" y="129.87" style="stroke: #000000; stroke-width: 0.8"/>
      </g>
     </g>
     <g id="text_15">
      <!-- $\mathdefault{26430}$ -->
      <g transform="translate(241.036 133.669219) scale(0.1 -0.1)">
       <use xlink:href="#DejaVuSans-2212" transform="translate(0 0.78125)"/>
       <use xlink:href="#DejaVuSans-32" transform="translate(83.789062 0.78125)"/>
       <use xlink:href="#DejaVuSans-36" transform="translate(147.412109 0.78125)"/>
       <use xlink:href="#DejaVuSans-34" transform="translate(211.035156 0.78125)"/>
       <use xlink:href="#DejaVuSans-33" transform="translate(274.658203 0.78125)"/>
       <use xlink:href="#DejaVuSans-30" transform="translate(338.28125 0.78125)"/>
      </g>
     </g>
    </g>
    <g id="ytick_8">
     <g id="line2d_11">
      <g>
       <use xlink:href="#mc12eed2710" x="234.036" y="109.08" style="stroke: #000000; stroke-width: 0.8"/>
      </g>
     </g>
     <g id="text_16">
      <!-- $\mathdefault{26310}$ -->
      <g transform="translate(241.036 112.879219) scale(0.1 -0.1)">
       <use xlink:href="#DejaVuSans-2212" transform="translate(0 0.78125)"/>
       <use xlink:href="#DejaVuSans-32" transform="translate(83.789062 0.78125)"/>
       <use xlink:href="#DejaVuSans-36" transform="translate(147.412109 0.78125)"/>
       <use xlink:href="#DejaVuSans-33" transform="translate(211.035156 0.78125)"/>
       <use xlink:href="#DejaVuSans-31" transform="translate(274.658203 0.78125)"/>
       <use xlink:href="#DejaVuSans-30" transform="translate(338.28125 0.78125)"/>
      </g>
     </g>
    </g>
    <g id="ytick_9">
     <g id="line2d_12">
      <g>
       <use xlink:href="#mc12eed2710" x="234.036" y="88.29" style="stroke: #000000; stroke-width: 0.8"/>
      </g>
     </g>
     <g id="text_17">
      <!-- $\mathdefault{26190}$ -->
      <g transform="translate(241.036 92.089219) scale(0.1 -0.1)">
       <use xlink:href="#DejaVuSans-2212" transform="translate(0 0.78125)"/>
       <use xlink:href="#DejaVuSans-32" transform="translate(83.789062 0.78125)"/>
       <use xlink:href="#DejaVuSans-36" transform="translate(147.412109 0.78125)"/>
       <use xlink:href="#DejaVuSans-31" transform="translate(211.035156 0.78125)"/>
       <use xlink:href="#DejaVuSans-39" transform="translate(274.658203 0.78125)"/>
       <use xlink:href="#DejaVuSans-30" transform="translate(338.28125 0.78125)"/>
      </g>
     </g>
    </g>
    <g id="ytick_10">
     <g id="line2d_13">
      <g>
       <use xlink:href="#mc12eed2710" x="234.036" y="67.5" style="stroke: #000000; stroke-width: 0.8"/>
      </g>
     </g>
     <g id="text_18">
      <!-- $\mathdefault{26070}$ -->
      <g transform="translate(241.036 71.299219) scale(0.1 -0.1)">
       <use xlink:href="#DejaVuSans-2212" transform="translate(0 0.78125)"/>
       <use xlink:href="#DejaVuSans-32" transform="translate(83.789062 0.78125)"/>
       <use xlink:href="#DejaVuSans-36" transform="translate(147.412109 0.78125)"/>
       <use xlink:href="#DejaVuSans-30" transform="translate(211.035156 0.78125)"/>
       <use xlink:href="#DejaVuSans-37" transform="translate(274.658203 0.78125)"/>
       <use xlink:href="#DejaVuSans-30" transform="translate(338.28125 0.78125)"/>
      </g>
     </g>
    </g>
    <g id="ytick_11">
     <g id="line2d_14">
      <g>
       <use xlink:href="#mc12eed2710" x="234.036" y="46.71" style="stroke: #000000; stroke-width: 0.8"/>
      </g>
     </g>
     <g id="text_19">
      <!-- $\mathdefault{25950}$ -->
      <g transform="translate(241.036 50.509219) scale(0.1 -0.1)">
       <use xlink:href="#DejaVuSans-2212" transform="translate(0 0.78125)"/>
       <use xlink:href="#DejaVuSans-32" transform="translate(83.789062 0.78125)"/>
       <use xlink:href="#DejaVuSans-35" transform="translate(147.412109 0.78125)"/>
       <use xlink:href="#DejaVuSans-39" transform="translate(205.535156 0.78125)"/>
       <use xlink:href="#DejaVuSans-35" transform="translate(269.158203 0.78125)"/>
       <use xlink:href="#DejaVuSans-30" transform="translate(332.78125 0.78125)"/>
      </g>
     </g>
    </g>
    <g id="ytick_12">
     <g id="line2d_15">
      <g>
       <use xlink:href="#mc12eed2710" x="234.036" y="25.92" style="stroke: #000000; stroke-width: 0.8"/>
      </g>
     </g>
     <g id="text_20">
      <!-- $\mathdefault{25830}$ -->
      <g transform="translate(241.036 29.719219) scale(0.1 -0.1)">
       <defs>
        <path id="DejaVuSans-38" d="M 2034 2216 
Q 1584 2216 1326 1975 
Q 1069 1734 1069 1313 
Q 1069 891 1326 650 
Q 1584 409 2034 409 
Q 2484 409 2743 651 
Q 3003 894 3003 1313 
Q 3003 1734 2745 1975 
Q 2488 2216 2034 2216 
z
M 1403 2484 
Q 997 2584 770 2862 
Q 544 3141 544 3541 
Q 544 4100 942 4425 
Q 1341 4750 2034 4750 
Q 2731 4750 3128 4425 
Q 3525 4100 3525 3541 
Q 3525 3141 3298 2862 
Q 3072 2584 2669 2484 
Q 3125 2378 3379 2068 
Q 3634 1759 3634 1313 
Q 3634 634 3220 271 
Q 2806 -91 2034 -91 
Q 1263 -91 848 271 
Q 434 634 434 1313 
Q 434 1759 690 2068 
Q 947 2378 1403 2484 
z
M 1172 3481 
Q 1172 3119 1398 2916 
Q 1625 2713 2034 2713 
Q 2441 2713 2670 2916 
Q 2900 3119 2900 3481 
Q 2900 3844 2670 4047 
Q 2441 4250 2034 4250 
Q 1625 4250 1398 4047 
Q 1172 3844 1172 3481 
z
" transform="scale(0.015625)"/>
       </defs>
       <use xlink:href="#DejaVuSans-2212" transform="translate(0 0.78125)"/>
       <use xlink:href="#DejaVuSans-32" transform="translate(83.789062 0.78125)"/>
       <use xlink:href="#DejaVuSans-35" transform="translate(147.412109 0.78125)"/>
       <use xlink:href="#DejaVuSans-38" transform="translate(211.035156 0.78125)"/>
       <use xlink:href="#DejaVuSans-33" transform="translate(274.658203 0.78125)"/>
       <use xlink:href="#DejaVuSans-30" transform="translate(338.28125 0.78125)"/>
      </g>
     </g>
    </g>
    <g id="text_21">
     <!-- log likelihood -->
     <g transform="translate(294.354125 148.704375) rotate(-90) scale(0.12 -0.12)">
      <defs>
       <path id="DejaVuSans-67" d="M 2906 1791 
Q 2906 2416 2648 2759 
Q 2391 3103 1925 3103 
Q 1463 3103 1205 2759 
Q 947 2416 947 1791 
Q 947 1169 1205 825 
Q 1463 481 1925 481 
Q 2391 481 2648 825 
Q 2906 1169 2906 1791 
z
M 3481 434 
Q 3481 -459 3084 -895 
Q 2688 -1331 1869 -1331 
Q 1566 -1331 1297 -1286 
Q 1028 -1241 775 -1147 
L 775 -588 
Q 1028 -725 1275 -790 
Q 1522 -856 1778 -856 
Q 2344 -856 2625 -561 
Q 2906 -266 2906 331 
L 2906 616 
Q 2728 306 2450 153 
Q 2172 0 1784 0 
Q 1141 0 747 490 
Q 353 981 353 1791 
Q 353 2603 747 3093 
Q 1141 3584 1784 3584 
Q 2172 3584 2450 3431 
Q 2728 3278 2906 2969 
L 2906 3500 
L 3481 3500 
L 3481 434 
z
" transform="scale(0.015625)"/>
       <path id="DejaVuSans-6b" d="M 581 4863 
L 1159 4863 
L 1159 1991 
L 2875 3500 
L 3609 3500 
L 1753 1863 
L 3688 0 
L 2938 0 
L 1159 1709 
L 1159 0 
L 581 0 
L 581 4863 
z
" transform="scale(0.015625)"/>
       <path id="DejaVuSans-68" d="M 3513 2113 
L 3513 0 
L 2938 0 
L 2938 2094 
Q 2938 2591 2744 2837 
Q 2550 3084 2163 3084 
Q 1697 3084 1428 2787 
Q 1159 2491 1159 1978 
L 1159 0 
L 581 0 
L 581 4863 
L 1159 4863 
L 1159 2956 
Q 1366 3272 1645 3428 
Q 1925 3584 2291 3584 
Q 2894 3584 3203 3211 
Q 3513 2838 3513 2113 
z
" transform="scale(0.015625)"/>
      </defs>
      <use xlink:href="#DejaVuSans-6c"/>
      <use xlink:href="#DejaVuSans-6f" x="27.783203"/>
      <use xlink:href="#DejaVuSans-67" x="88.964844"/>
      <use xlink:href="#DejaVuSans-20" x="152.441406"/>
      <use xlink:href="#DejaVuSans-6c" x="184.228516"/>
      <use xlink:href="#DejaVuSans-69" x="212.011719"/>
      <use xlink:href="#DejaVuSans-6b" x="239.794922"/>
      <use xlink:href="#DejaVuSans-65" x="294.080078"/>
      <use xlink:href="#DejaVuSans-6c" x="355.603516"/>
      <use xlink:href="#DejaVuSans-69" x="383.386719"/>
      <use xlink:href="#DejaVuSans-68" x="411.169922"/>
      <use xlink:href="#DejaVuSans-6f" x="474.548828"/>
      <use xlink:href="#DejaVuSans-6f" x="535.730469"/>
      <use xlink:href="#DejaVuSans-64" x="596.912109"/>
     </g>
    </g>
    <g id="text_22">
     <!-- $\times\mathdefault{10^{3}}\mathdefault{}$ -->
     <g transform="translate(208.036 22.92) scale(0.1 -0.1)">
      <use xlink:href="#DejaVuSans-d7" transform="translate(0 0.765625)"/>
      <use xlink:href="#DejaVuSans-31" transform="translate(83.789062 0.765625)"/>
      <use xlink:href="#DejaVuSans-30" transform="translate(147.412109 0.765625)"/>
      <use xlink:href="#DejaVuSans-33" transform="translate(211.992188 39.046875) scale(0.7)"/>
     </g>
    </g>
   </g>
   <g id="LineCollection_1"/>
   <g id="patch_8">
    <path d="M 225.72 192.24 
L 229.878 192.24 
L 234.036 192.24 
L 234.036 25.92 
L 229.878 25.92 
L 225.72 25.92 
L 225.72 192.24 
z
" style="fill: none; stroke: #000000; stroke-width: 0.8; stroke-linejoin: miter; stroke-linecap: square"/>
   </g>
  </g>
 </g>
 <defs>
  <clipPath id="pb435c15832">
   <rect x="36" y="25.92" width="178.56" height="166.32"/>
  </clipPath>
  <clipPath id="p2fe7ee0144">
   <rect x="225.72" y="25.92" width="8.316" height="166.32"/>
  </clipPath>
 </defs>
</svg>
