<?xml version="1.0" encoding="utf-8" standalone="no"?>
<!DOCTYPE svg PUBLIC "-//W3C//DTD SVG 1.1//EN"
  "http://www.w3.org/Graphics/SVG/1.1/DTD/svg11.dtd">
<svg xmlns:xlink="http://www.w3.org/1999/xlink" width="288pt" height="216pt" viewBox="0 0 288 216" xmlns="http://www.w3.org/2000/svg" version="1.1">
 <metadata>
  <rdf:RDF xmlns:dc="http://purl.org/dc/elements/1.1/" xmlns:cc="http://creativecommons.org/ns#" xmlns:rdf="http://www.w3.org/1999/02/22-rdf-syntax-ns#">
   <cc:Work>
    <dc:type rdf:resource="http://purl.org/dc/dcmitype/StillImage"/>
    <dc:date>2023-07-18T17:59:17.642784</dc:date>
    <dc:format>image/svg+xml</dc:format>
    <dc:creator>
     <cc:Agent>
      <dc:title>Matplotlib v3.7.1, https://matplotlib.org/</dc:title>
     </cc:Agent>
    </dc:creator>
   </cc:Work>
  </rdf:RDF>
 </metadata>
 <defs>
  <style type="text/css">*{stroke-linejoin: round; stroke-linecap: butt}</style>
 </defs>
 <g id="figure_1">
  <g id="patch_1">
   <path d="M 0 216 
L 288 216 
L 288 0 
L 0 0 
z
" style="fill: #ffffff"/>
  </g>
  <g id="axes_1">
   <g id="patch_2">
    <path d="M 36 192.24 
L 214.56 192.24 
L 214.56 25.92 
L 36 25.92 
z
" style="fill: #ffffff"/>
   </g>
   <g id="PathCollection_1">
    <path d="M 36.962531 192.24 
L 36 192.24 
L 36 191.141272 
z
" clip-path="url(#pc1fc1919da)" style="fill: #440154"/>
   </g>
   <g id="PathCollection_2">
    <path d="M 38.623316 192.24 
L 36.962531 192.24 
L 36 191.141272 
L 36 189.245488 
z
" clip-path="url(#pc1fc1919da)" style="fill: #440154"/>
   </g>
   <g id="PathCollection_3">
    <path d="M 40.284101 192.24 
L 38.623316 192.24 
L 36 189.245488 
L 36 187.349704 
z
" clip-path="url(#pc1fc1919da)" style="fill: #440154"/>
   </g>
   <g id="PathCollection_4">
    <path d="M 36 186.696 
L 36 185.264207 
L 37.130347 186.696 
L 41.944885 192.24 
L 40.284101 192.24 
L 36 187.349704 
z
" clip-path="url(#pc1fc1919da)" style="fill: #440154"/>
   </g>
   <g id="PathCollection_5">
    <path d="M 37.130347 186.696 
L 36 185.264207 
L 36 183.078865 
L 38.855592 186.696 
L 41.952 190.261756 
L 43.991623 192.24 
L 41.952 192.24 
L 41.944885 192.24 
z
" clip-path="url(#pc1fc1919da)" style="fill: #440154"/>
   </g>
   <g id="PathCollection_6">
    <path d="M 38.855592 186.696 
L 36 183.078865 
L 36 181.152 
L 36 180.855546 
L 36.212192 181.152 
L 40.580838 186.696 
L 41.952 188.275 
L 46.040021 192.24 
L 43.991623 192.24 
L 41.952 190.261756 
z
" clip-path="url(#pc1fc1919da)" style="fill: #440154"/>
   </g>
   <g id="PathCollection_7">
    <path d="M 40.580838 186.696 
L 36.212192 181.152 
L 36 180.855546 
L 36 178.349121 
L 38.006209 181.152 
L 41.952 186.222821 
L 42.38914 186.696 
L 47.904 192.053705 
L 48.135616 192.24 
L 47.904 192.24 
L 46.040021 192.24 
L 41.952 188.275 
z
" clip-path="url(#pc1fc1919da)" style="fill: #440154"/>
   </g>
   <g id="PathCollection_8">
    <path d="M 38.006209 181.152 
L 36 178.349121 
L 36 175.842696 
L 39.800226 181.152 
L 41.952 183.917291 
L 44.51907 186.696 
L 47.904 189.984471 
L 50.708252 192.24 
L 48.135616 192.24 
L 47.904 192.053705 
L 42.38914 186.696 
L 41.952 186.222821 
z
" clip-path="url(#pc1fc1919da)" style="fill: #440154"/>
   </g>
   <g id="PathCollection_9">
    <path d="M 39.800226 181.152 
L 36 175.842696 
L 36 175.608 
L 36 172.998612 
L 37.691923 175.608 
L 41.594243 181.152 
L 41.952 181.611761 
L 46.649 186.696 
L 47.904 187.915236 
L 53.280888 192.24 
L 50.708252 192.24 
L 47.904 189.984471 
L 44.51907 186.696 
L 41.952 183.917291 
z
" clip-path="url(#pc1fc1919da)" style="fill: #440154"/>
    <path d="M 210.333993 25.92 
L 214.56 25.92 
L 214.56 27.439246 
z
" clip-path="url(#pc1fc1919da)" style="fill: #440154"/>
   </g>
   <g id="PathCollection_10">
    <path d="M 41.594243 181.152 
L 37.691923 175.608 
L 36 172.998612 
L 36 170.119643 
L 39.558642 175.608 
L 41.952 179.020908 
L 43.72855 181.152 
L 47.904 185.702562 
L 49.00698 186.696 
L 53.856 190.573055 
L 56.378204 192.24 
L 53.856 192.24 
L 53.280888 192.24 
L 47.904 187.915236 
L 46.649 186.696 
L 41.952 181.611761 
z
" clip-path="url(#pc1fc1919da)" style="fill: #440154"/>
    <path d="M 192.245515 25.92 
L 196.704 25.92 
L 202.656 25.92 
L 208.608 25.92 
L 210.333993 25.92 
L 214.56 27.439246 
L 214.56 31.464 
L 214.56 34.411175 
L 208.608 32.336428 
L 206.234493 31.464 
L 202.656 30.130708 
L 196.704 27.784562 
z
" clip-path="url(#pc1fc1919da)" style="fill: #440154"/>
   </g>
   <g id="PathCollection_11">
    <path d="M 39.558642 175.608 
L 36 170.119643 
L 36 170.064 
L 36 166.817235 
L 37.905496 170.064 
L 41.42536 175.608 
L 41.952 176.358984 
L 45.947619 181.152 
L 47.904 183.284138 
L 51.692074 186.696 
L 53.856 188.426177 
L 59.626582 192.24 
L 56.378204 192.24 
L 53.856 190.573055 
L 49.00698 186.696 
L 47.904 185.702562 
L 43.72855 181.152 
L 41.952 179.020908 
z
" clip-path="url(#pc1fc1919da)" style="fill: #440154"/>
    <path d="M 176.219804 25.92 
L 178.848 25.92 
L 184.8 25.92 
L 190.752 25.92 
L 192.245515 25.92 
L 196.704 27.784562 
L 202.656 30.130708 
L 206.234493 31.464 
L 208.608 32.336428 
L 214.56 34.411175 
L 214.56 37.008 
L 214.56 41.350279 
L 208.608 39.344477 
L 202.656 37.217058 
L 202.100384 37.008 
L 196.704 34.951329 
L 190.752 32.540192 
L 188.243327 31.464 
L 184.8 29.96492 
L 178.848 27.211498 
z
" clip-path="url(#pc1fc1919da)" style="fill: #440154"/>
   </g>
   <g id="PathCollection_12">
    <path d="M 41.42536 175.608 
L 37.905496 170.064 
L 36 166.817235 
L 36 164.52 
L 36 163.353017 
L 36.619263 164.52 
L 39.848546 170.064 
L 41.952 173.397462 
L 43.614038 175.608 
L 47.904 180.819085 
L 48.236715 181.152 
L 53.856 186.205404 
L 54.517714 186.696 
L 59.808 190.142827 
L 63.674612 192.24 
L 59.808 192.24 
L 59.626582 192.24 
L 53.856 188.426177 
L 51.692074 186.696 
L 47.904 183.284138 
L 45.947619 181.152 
L 41.952 176.358984 
z
" clip-path="url(#pc1fc1919da)" style="fill: #440154"/>
    <path d="M 161.843552 25.92 
L 166.944 25.92 
L 172.896 25.92 
L 176.219804 25.92 
L 178.848 27.211498 
L 184.8 29.96492 
L 188.243327 31.464 
L 190.752 32.540192 
L 196.704 34.951329 
L 202.100384 37.008 
L 202.656 37.217058 
L 208.608 39.344477 
L 214.56 41.350279 
L 214.56 42.552 
L 214.56 48.096 
L 214.56 48.270059 
L 214.020826 48.096 
L 208.608 46.331901 
L 202.656 44.275792 
L 197.950059 42.552 
L 196.704 42.09025 
L 190.752 39.762128 
L 184.8 37.280034 
L 184.182575 37.008 
L 178.848 34.624169 
L 172.896 31.781906 
L 172.267453 31.464 
L 166.944 28.727028 
z
" clip-path="url(#pc1fc1919da)" style="fill: #440154"/>
   </g>
   <g id="PathCollection_13">
    <path d="M 39.848546 170.064 
L 36.619263 164.52 
L 36 163.353017 
L 36 159.540959 
L 38.642144 164.52 
L 41.791596 170.064 
L 41.952 170.318201 
L 45.929244 175.608 
L 47.904 178.006767 
L 51.047344 181.152 
L 53.856 183.677815 
L 57.926913 186.696 
L 59.808 187.921601 
L 65.76 191.114668 
L 68.281705 192.24 
L 65.76 192.24 
L 63.674612 192.24 
L 59.808 190.142827 
L 54.517714 186.696 
L 53.856 186.205404 
L 48.236715 181.152 
L 47.904 180.819085 
L 43.614038 175.608 
L 41.952 173.397462 
z
" clip-path="url(#pc1fc1919da)" style="fill: #440154"/>
    <path d="M 148.844546 25.92 
L 149.088 25.92 
L 155.04 25.92 
L 160.992 25.92 
L 161.843552 25.92 
L 166.944 28.727028 
L 172.267453 31.464 
L 172.896 31.781906 
L 178.848 34.624169 
L 184.182575 37.008 
L 184.8 37.280034 
L 190.752 39.762128 
L 196.704 42.09025 
L 197.950059 42.552 
L 202.656 44.275792 
L 208.608 46.331901 
L 214.020826 48.096 
L 214.56 48.270059 
L 214.56 53.64 
L 214.56 55.188746 
L 209.635395 53.64 
L 208.608 53.314338 
L 202.656 51.328236 
L 196.704 49.217118 
L 193.718857 48.096 
L 190.752 46.969961 
L 184.8 44.57444 
L 180.084895 42.552 
L 178.848 42.014589 
L 172.896 39.274082 
L 168.29258 37.008 
L 166.944 36.333925 
L 160.992 33.171633 
L 157.983988 31.464 
L 155.04 29.762616 
L 149.088 26.080127 
z
" clip-path="url(#pc1fc1919da)" style="fill: #440154"/>
   </g>
   <g id="PathCollection_14">
    <path d="M 41.791596 170.064 
L 38.642144 164.52 
L 36 159.540959 
L 36 158.976 
L 36 155.230729 
L 37.794042 158.976 
L 40.665025 164.52 
L 41.952 166.790221 
L 44.170345 170.064 
L 47.904 175.125946 
L 48.337583 175.608 
L 53.856 181.149921 
L 53.858522 181.152 
L 59.808 185.515207 
L 61.747799 186.696 
L 65.76 188.821763 
L 71.712 191.454869 
L 73.841164 192.24 
L 71.712 192.24 
L 68.281705 192.24 
L 65.76 191.114668 
L 59.808 187.921601 
L 57.926913 186.696 
L 53.856 183.677815 
L 51.047344 181.152 
L 47.904 178.006767 
L 45.929244 175.608 
L 41.952 170.318201 
z
" clip-path="url(#pc1fc1919da)" style="fill: #470d60"/>
    <path d="M 136.979841 25.92 
L 137.184 25.92 
L 143.136 25.92 
L 148.844546 25.92 
L 149.088 26.080127 
L 155.04 29.762616 
L 157.983988 31.464 
L 160.992 33.171633 
L 166.944 36.333925 
L 168.29258 37.008 
L 172.896 39.274082 
L 178.848 42.014589 
L 180.084895 42.552 
L 184.8 44.57444 
L 190.752 46.969961 
L 193.718857 48.096 
L 196.704 49.217118 
L 202.656 51.328236 
L 208.608 53.314338 
L 209.635395 53.64 
L 214.56 55.188746 
L 214.56 59.184 
L 214.56 62.127834 
L 208.608 60.314729 
L 205.097292 59.184 
L 202.656 58.392771 
L 196.704 56.354345 
L 190.752 54.18293 
L 189.344226 53.64 
L 184.8 51.871134 
L 178.848 49.401946 
L 175.888387 48.096 
L 172.896 46.759731 
L 166.944 43.927447 
L 164.233088 42.552 
L 160.992 40.883222 
L 155.04 37.604694 
L 154.022134 37.008 
L 149.088 34.064085 
L 145.024702 31.464 
L 143.136 30.231344 
L 137.184 26.071913 
z
" clip-path="url(#pc1fc1919da)" style="fill: #470d60"/>
   </g>
   <g id="PathCollection_15">
    <path d="M 40.665025 164.52 
L 37.794042 158.976 
L 36 155.230729 
L 36 153.432 
L 36 150.427902 
L 37.295872 153.432 
L 39.900228 158.976 
L 41.952 163.012584 
L 42.871379 164.52 
L 46.588298 170.064 
L 47.904 171.847779 
L 51.286127 175.608 
L 53.856 178.188818 
L 57.450586 181.152 
L 59.808 182.880871 
L 65.76 186.496336 
L 66.158961 186.696 
L 71.712 189.092692 
L 77.664 191.260488 
L 80.862857 192.24 
L 77.664 192.24 
L 73.841164 192.24 
L 71.712 191.454869 
L 65.76 188.821763 
L 61.747799 186.696 
L 59.808 185.515207 
L 53.858522 181.152 
L 53.856 181.149921 
L 48.337583 175.608 
L 47.904 175.125946 
L 44.170345 170.064 
L 41.952 166.790221 
z
" clip-path="url(#pc1fc1919da)" style="fill: #482878"/>
    <path d="M 126.039693 25.92 
L 131.232 25.92 
L 136.979841 25.92 
L 137.184 26.071913 
L 143.136 30.231344 
L 145.024702 31.464 
L 149.088 34.064085 
L 154.022134 37.008 
L 155.04 37.604694 
L 160.992 40.883222 
L 164.233088 42.552 
L 166.944 43.927447 
L 172.896 46.759731 
L 175.888387 48.096 
L 178.848 49.401946 
L 184.8 51.871134 
L 189.344226 53.64 
L 190.752 54.18293 
L 196.704 56.354345 
L 202.656 58.392771 
L 205.097292 59.184 
L 208.608 60.314729 
L 214.56 62.127834 
L 214.56 64.728 
L 214.56 69.11036 
L 208.608 67.358157 
L 202.656 65.496645 
L 200.330133 64.728 
L 196.704 63.524447 
L 190.752 61.428779 
L 184.8 59.191119 
L 184.782056 59.184 
L 178.848 56.811438 
L 172.896 54.261589 
L 171.528824 53.64 
L 166.944 51.532812 
L 160.992 48.60021 
L 160.029138 48.096 
L 155.04 45.446629 
L 149.966975 42.552 
L 149.088 42.042202 
L 143.136 38.36235 
L 141.089678 37.008 
L 137.184 34.371412 
L 133.166574 31.464 
L 131.232 30.032523 
z
" clip-path="url(#pc1fc1919da)" style="fill: #482878"/>
   </g>
   <g id="PathCollection_16">
    <path d="M 39.900228 158.976 
L 37.295872 153.432 
L 36 150.427902 
L 36 147.888 
L 36 144.936939 
L 37.142634 147.888 
L 39.488882 153.432 
L 41.952 158.851345 
L 42.020285 158.976 
L 45.398599 164.52 
L 47.904 168.317699 
L 49.316534 170.064 
L 53.856 175.161167 
L 54.343588 175.608 
L 59.808 180.083259 
L 61.387913 181.152 
L 65.76 183.757287 
L 71.632029 186.696 
L 71.712 186.730515 
L 77.664 188.83133 
L 83.616 190.611587 
L 89.568 192.12986 
L 90.082025 192.24 
L 89.568 192.24 
L 83.616 192.24 
L 80.862857 192.24 
L 77.664 191.260488 
L 71.712 189.092692 
L 66.158961 186.696 
L 65.76 186.496336 
L 59.808 182.880871 
L 57.450586 181.152 
L 53.856 178.188818 
L 51.286127 175.608 
L 47.904 171.847779 
L 46.588298 170.064 
L 42.871379 164.52 
L 41.952 163.012584 
z
" clip-path="url(#pc1fc1919da)" style="fill: #424086"/>
    <path d="M 115.829578 25.92 
L 119.328 25.92 
L 125.28 25.92 
L 126.039693 25.92 
L 131.232 30.032523 
L 133.166574 31.464 
L 137.184 34.371412 
L 141.089678 37.008 
L 143.136 38.36235 
L 149.088 42.042202 
L 149.966975 42.552 
L 155.04 45.446629 
L 160.029138 48.096 
L 160.992 48.60021 
L 166.944 51.532812 
L 171.528824 53.64 
L 172.896 54.261589 
L 178.848 56.811438 
L 184.782056 59.184 
L 184.8 59.191119 
L 190.752 61.428779 
L 196.704 63.524447 
L 200.330133 64.728 
L 202.656 65.496645 
L 208.608 67.358157 
L 214.56 69.11036 
L 214.56 70.272 
L 214.56 75.816 
L 214.56 76.168907 
L 213.323721 75.816 
L 208.608 74.472351 
L 202.656 72.674041 
L 196.704 70.759162 
L 195.270501 70.272 
L 190.752 68.73334 
L 184.8 66.574984 
L 180.028415 64.728 
L 178.848 64.268583 
L 172.896 61.813206 
L 166.964158 59.184 
L 166.944 59.174986 
L 160.992 56.35518 
L 155.669742 53.64 
L 155.04 53.314775 
L 149.088 50.044686 
L 145.784979 48.096 
L 143.136 46.508212 
L 137.184 42.677494 
L 137.000776 42.552 
L 131.232 38.521726 
L 129.210976 37.008 
L 125.28 33.996335 
L 122.190143 31.464 
L 119.328 29.05773 
z
" clip-path="url(#pc1fc1919da)" style="fill: #424086"/>
   </g>
   <g id="PathCollection_17">
    <path d="M 39.488882 153.432 
L 37.142634 147.888 
L 36 144.936939 
L 36 142.344 
L 36 138.494253 
L 37.332259 142.344 
L 39.426085 147.888 
L 41.681892 153.432 
L 41.952 154.02629 
L 44.663399 158.976 
L 47.904 164.481233 
L 47.932155 164.52 
L 52.41514 170.064 
L 53.856 171.681879 
L 58.140211 175.608 
L 59.808 176.97389 
L 65.76 180.992931 
L 66.04656 181.152 
L 71.712 183.895739 
L 77.664 186.340079 
L 78.705876 186.696 
L 83.616 188.117668 
L 89.568 189.57335 
L 95.52 190.815778 
L 101.472 191.882026 
L 103.818244 192.24 
L 101.472 192.24 
L 95.52 192.24 
L 90.082025 192.24 
L 89.568 192.12986 
L 83.616 190.611587 
L 77.664 188.83133 
L 71.712 186.730515 
L 71.632029 186.696 
L 65.76 183.757287 
L 61.387913 181.152 
L 59.808 180.083259 
L 54.343588 175.608 
L 53.856 175.161167 
L 49.316534 170.064 
L 47.904 168.317699 
L 45.398599 164.52 
L 42.020285 158.976 
L 41.952 158.851345 
z
" clip-path="url(#pc1fc1919da)" style="fill: #39568c"/>
    <path d="M 106.142617 25.92 
L 107.424 25.92 
L 113.376 25.92 
L 115.829578 25.92 
L 119.328 29.05773 
L 122.190143 31.464 
L 125.28 33.996335 
L 129.210976 37.008 
L 131.232 38.521726 
L 137.000776 42.552 
L 137.184 42.677494 
L 143.136 46.508212 
L 145.784979 48.096 
L 149.088 50.044686 
L 155.04 53.314775 
L 155.669742 53.64 
L 160.992 56.35518 
L 166.944 59.174986 
L 166.964158 59.184 
L 172.896 61.813206 
L 178.848 64.268583 
L 180.028415 64.728 
L 184.8 66.574984 
L 190.752 68.73334 
L 195.270501 70.272 
L 196.704 70.759162 
L 202.656 72.674041 
L 208.608 74.472351 
L 213.323721 75.816 
L 214.56 76.168907 
L 214.56 81.36 
L 214.56 83.358453 
L 208.608 81.698532 
L 207.45584 81.36 
L 202.656 79.957151 
L 196.704 78.108254 
L 190.752 76.134485 
L 189.84304 75.816 
L 184.8 74.050432 
L 178.848 71.823431 
L 174.963904 70.272 
L 172.896 69.443354 
L 166.944 66.905464 
L 162.188417 64.728 
L 160.992 64.176273 
L 155.04 61.254762 
L 151.115053 59.184 
L 149.088 58.102636 
L 143.136 54.704703 
L 141.392409 53.64 
L 137.184 51.030688 
L 132.781716 48.096 
L 131.232 47.0438 
L 125.28 42.711574 
L 125.074042 42.552 
L 119.328 37.995689 
L 118.161801 37.008 
L 113.376 32.845857 
L 111.882512 31.464 
L 107.424 27.213131 
z
" clip-path="url(#pc1fc1919da)" style="fill: #39568c"/>
   </g>
   <g id="PathCollection_18">
    <path d="M 41.681892 153.432 
L 39.426085 147.888 
L 37.332259 142.344 
L 36 138.494253 
L 36 136.8 
L 36 131.256 
L 36 130.643149 
L 36.166419 131.256 
L 37.865249 136.8 
L 39.709905 142.344 
L 41.709537 147.888 
L 41.952 148.486849 
L 44.377214 153.432 
L 47.306513 158.976 
L 47.904 159.991029 
L 51.193266 164.52 
L 53.856 167.869397 
L 56.008532 170.064 
L 59.808 173.54254 
L 62.557249 175.608 
L 65.76 177.735675 
L 71.712 181.034539 
L 71.969439 181.152 
L 77.664 183.397593 
L 83.616 185.388496 
L 88.223181 186.696 
L 89.568 187.016841 
L 95.52 188.198794 
L 101.472 189.206628 
L 107.424 190.069925 
L 113.376 190.812468 
L 119.328 191.453494 
L 125.28 192.008674 
L 128.160521 192.24 
L 125.28 192.24 
L 119.328 192.24 
L 113.376 192.24 
L 107.424 192.24 
L 103.818244 192.24 
L 101.472 191.882026 
L 95.52 190.815778 
L 89.568 189.57335 
L 83.616 188.117668 
L 78.705876 186.696 
L 77.664 186.340079 
L 71.712 183.895739 
L 66.04656 181.152 
L 65.76 180.992931 
L 59.808 176.97389 
L 58.140211 175.608 
L 53.856 171.681879 
L 52.41514 170.064 
L 47.932155 164.52 
L 47.904 164.481233 
L 44.663399 158.976 
L 41.952 154.02629 
z
" clip-path="url(#pc1fc1919da)" style="fill: #2f6b8e"/>
    <path d="M 96.812504 25.92 
L 101.472 25.92 
L 106.142617 25.92 
L 107.424 27.213131 
L 111.882512 31.464 
L 113.376 32.845857 
L 118.161801 37.008 
L 119.328 37.995689 
L 125.074042 42.552 
L 125.28 42.711574 
L 131.232 47.0438 
L 132.781716 48.096 
L 137.184 51.030688 
L 141.392409 53.64 
L 143.136 54.704703 
L 149.088 58.102636 
L 151.115053 59.184 
L 155.04 61.254762 
L 160.992 64.176273 
L 162.188417 64.728 
L 166.944 66.905464 
L 172.896 69.443354 
L 174.963904 70.272 
L 178.848 71.823431 
L 184.8 74.050432 
L 189.84304 75.816 
L 190.752 76.134485 
L 196.704 78.108254 
L 202.656 79.957151 
L 207.45584 81.36 
L 208.608 81.698532 
L 214.56 83.358453 
L 214.56 86.904 
L 214.56 90.718684 
L 208.608 89.113198 
L 202.656 87.403089 
L 201.011658 86.904 
L 196.704 85.608955 
L 190.752 83.704701 
L 184.8 81.666004 
L 183.95559 81.36 
L 178.848 79.516958 
L 172.896 77.214945 
L 169.51103 75.816 
L 166.944 74.754603 
L 160.992 72.127103 
L 157.078636 70.272 
L 155.04 69.300721 
L 149.088 66.269245 
L 146.267892 64.728 
L 143.136 62.999774 
L 137.184 59.464189 
L 136.741064 59.184 
L 131.232 55.648156 
L 128.322305 53.64 
L 125.28 51.501895 
L 120.76079 48.096 
L 119.328 46.992496 
L 113.93368 42.552 
L 113.376 42.081174 
L 107.730463 37.008 
L 107.424 36.724508 
L 102.052387 31.464 
L 101.472 30.876617 
z
" clip-path="url(#pc1fc1919da)" style="fill: #2f6b8e"/>
   </g>
   <g id="PathCollection_19">
    <path d="M 41.709537 147.888 
L 39.709905 142.344 
L 37.865249 136.8 
L 36.166419 131.256 
L 36 130.643149 
L 36 125.712 
L 36 120.281824 
L 37.290199 125.712 
L 38.744432 131.256 
L 40.341014 136.8 
L 41.952 141.897398 
L 42.124943 142.344 
L 44.54038 147.888 
L 47.143094 153.432 
L 47.904 154.885867 
L 50.56385 158.976 
L 53.856 163.628773 
L 54.64025 164.52 
L 59.808 169.81998 
L 60.100267 170.064 
L 65.76 174.258622 
L 67.954252 175.608 
L 71.712 177.629953 
L 77.664 180.310962 
L 79.901824 181.152 
L 83.616 182.34741 
L 89.568 183.952231 
L 95.52 185.320061 
L 101.472 186.491295 
L 102.707755 186.696 
L 107.424 187.338108 
L 113.376 188.026162 
L 119.328 188.614561 
L 125.28 189.118903 
L 131.232 189.551968 
L 137.184 189.924289 
L 143.136 190.244607 
L 149.088 190.520212 
L 155.04 190.757222 
L 160.992 190.960799 
L 166.944 191.135316 
L 172.896 191.284498 
L 178.848 191.411529 
L 184.8 191.519144 
L 190.752 191.609701 
L 196.704 191.685239 
L 202.656 191.747528 
L 208.608 191.79811 
L 214.56 191.838329 
L 214.56 192.24 
L 208.608 192.24 
L 202.656 192.24 
L 196.704 192.24 
L 190.752 192.24 
L 184.8 192.24 
L 178.848 192.24 
L 172.896 192.24 
L 166.944 192.24 
L 160.992 192.24 
L 155.04 192.24 
L 149.088 192.24 
L 143.136 192.24 
L 137.184 192.24 
L 131.232 192.24 
L 128.160521 192.24 
L 125.28 192.008674 
L 119.328 191.453494 
L 113.376 190.812468 
L 107.424 190.069925 
L 101.472 189.206628 
L 95.52 188.198794 
L 89.568 187.016841 
L 88.223181 186.696 
L 83.616 185.388496 
L 77.664 183.397593 
L 71.969439 181.152 
L 71.712 181.034539 
L 65.76 177.735675 
L 62.557249 175.608 
L 59.808 173.54254 
L 56.008532 170.064 
L 53.856 167.869397 
L 51.193266 164.52 
L 47.904 159.991029 
L 47.306513 158.976 
L 44.377214 153.432 
L 41.952 148.486849 
z
" clip-path="url(#pc1fc1919da)" style="fill: #287d8e"/>
    <path d="M 87.555125 25.92 
L 89.568 25.92 
L 95.52 25.92 
L 96.812504 25.92 
L 101.472 30.876617 
L 102.052387 31.464 
L 107.424 36.724508 
L 107.730463 37.008 
L 113.376 42.081174 
L 113.93368 42.552 
L 119.328 46.992496 
L 120.76079 48.096 
L 125.28 51.501895 
L 128.322305 53.64 
L 131.232 55.648156 
L 136.741064 59.184 
L 137.184 59.464189 
L 143.136 62.999774 
L 146.267892 64.728 
L 149.088 66.269245 
L 155.04 69.300721 
L 157.078636 70.272 
L 160.992 72.127103 
L 166.944 74.754603 
L 169.51103 75.816 
L 172.896 77.214945 
L 178.848 79.516958 
L 183.95559 81.36 
L 184.8 81.666004 
L 190.752 83.704701 
L 196.704 85.608955 
L 201.011658 86.904 
L 202.656 87.403089 
L 208.608 89.113198 
L 214.56 90.718684 
L 214.56 92.448 
L 214.56 97.992 
L 214.56 98.328743 
L 213.29821 97.992 
L 208.608 96.766935 
L 202.656 95.114363 
L 196.704 93.348889 
L 193.84356 92.448 
L 190.752 91.488649 
L 184.8 89.524248 
L 178.848 87.414286 
L 177.491762 86.904 
L 172.896 85.189611 
L 166.944 82.806129 
L 163.572914 81.36 
L 160.992 80.256103 
L 155.04 77.532011 
L 151.552332 75.816 
L 149.088 74.600526 
L 143.136 71.451244 
L 141.056571 70.272 
L 137.184 68.058522 
L 131.786063 64.728 
L 131.232 64.381992 
L 125.28 60.415786 
L 123.555444 59.184 
L 119.328 56.109976 
L 116.15518 53.64 
L 113.376 51.428093 
L 109.44693 48.096 
L 107.424 46.334594 
L 103.322539 42.552 
L 101.472 40.791996 
L 97.685818 37.008 
L 95.52 34.765344 
L 92.453061 31.464 
L 89.568 28.23007 
z
" clip-path="url(#pc1fc1919da)" style="fill: #287d8e"/>
   </g>
   <g id="PathCollection_20">
    <path d="M 40.341014 136.8 
L 38.744432 131.256 
L 37.290199 125.712 
L 36 120.281824 
L 36 120.168 
L 36 114.624 
L 36 109.08 
L 36 103.919103 
L 36.754977 109.08 
L 37.695845 114.624 
L 38.76769 120.168 
L 39.974821 125.712 
L 41.322445 131.256 
L 41.952 133.537138 
L 43.062562 136.8 
L 45.158479 142.344 
L 47.436251 147.888 
L 47.904 148.898225 
L 50.532814 153.432 
L 53.856 158.732641 
L 54.047468 158.976 
L 58.914352 164.52 
L 59.808 165.436514 
L 65.350414 170.064 
L 65.76 170.367558 
L 71.712 173.942416 
L 75.021031 175.608 
L 77.664 176.759855 
L 83.616 178.908496 
L 89.568 180.739098 
L 91.178873 181.152 
L 95.52 182.088285 
L 101.472 183.167478 
L 107.424 184.084719 
L 113.376 184.866192 
L 119.328 185.53317 
L 125.28 186.103051 
L 131.232 186.590155 
L 132.769424 186.696 
L 137.184 186.937938 
L 143.136 187.212372 
L 149.088 187.443609 
L 155.04 187.637703 
L 160.992 187.799752 
L 166.944 187.934069 
L 172.896 188.044323 
L 178.848 188.133644 
L 184.8 188.204714 
L 190.752 188.25984 
L 196.704 188.301016 
L 202.656 188.329966 
L 208.608 188.348188 
L 214.56 188.356987 
L 214.56 191.838329 
L 208.608 191.79811 
L 202.656 191.747528 
L 196.704 191.685239 
L 190.752 191.609701 
L 184.8 191.519144 
L 178.848 191.411529 
L 172.896 191.284498 
L 166.944 191.135316 
L 160.992 190.960799 
L 155.04 190.757222 
L 149.088 190.520212 
L 143.136 190.244607 
L 137.184 189.924289 
L 131.232 189.551968 
L 125.28 189.118903 
L 119.328 188.614561 
L 113.376 188.026162 
L 107.424 187.338108 
L 102.707755 186.696 
L 101.472 186.491295 
L 95.52 185.320061 
L 89.568 183.952231 
L 83.616 182.34741 
L 79.901824 181.152 
L 77.664 180.310962 
L 71.712 177.629953 
L 67.954252 175.608 
L 65.76 174.258622 
L 60.100267 170.064 
L 59.808 169.81998 
L 54.64025 164.52 
L 53.856 163.628773 
L 50.56385 158.976 
L 47.904 154.885867 
L 47.143094 153.432 
L 44.54038 147.888 
L 42.124943 142.344 
L 41.952 141.897398 
z
" clip-path="url(#pc1fc1919da)" style="fill: #21908d"/>
    <path d="M 36 31.464 
L 36 25.92 
L 37.847681 25.92 
L 36.795432 31.464 
L 36 36.420422 
z
" clip-path="url(#pc1fc1919da)" style="fill: #21908d"/>
    <path d="M 82.687921 31.464 
L 77.944448 25.92 
L 83.616 25.92 
L 87.555125 25.92 
L 89.568 28.23007 
L 92.453061 31.464 
L 95.52 34.765344 
L 97.685818 37.008 
L 101.472 40.791996 
L 103.322539 42.552 
L 107.424 46.334594 
L 109.44693 48.096 
L 113.376 51.428093 
L 116.15518 53.64 
L 119.328 56.109976 
L 123.555444 59.184 
L 125.28 60.415786 
L 131.232 64.381992 
L 131.786063 64.728 
L 137.184 68.058522 
L 141.056571 70.272 
L 143.136 71.451244 
L 149.088 74.600526 
L 151.552332 75.816 
L 155.04 77.532011 
L 160.992 80.256103 
L 163.572914 81.36 
L 166.944 82.806129 
L 172.896 85.189611 
L 177.491762 86.904 
L 178.848 87.414286 
L 184.8 89.524248 
L 190.752 91.488649 
L 193.84356 92.448 
L 196.704 93.348889 
L 202.656 95.114363 
L 208.608 96.766935 
L 213.29821 97.992 
L 214.56 98.328743 
L 214.56 103.536 
L 214.56 106.368643 
L 208.608 104.810501 
L 204.037946 103.536 
L 202.656 103.161888 
L 196.704 101.458771 
L 190.752 99.633028 
L 185.759564 97.992 
L 184.8 97.683312 
L 178.848 95.654606 
L 172.896 93.46735 
L 170.299234 92.448 
L 166.944 91.149277 
L 160.992 88.678541 
L 157.022281 86.904 
L 155.04 86.024292 
L 149.088 83.197741 
L 145.499981 81.36 
L 143.136 80.150185 
L 137.184 76.877055 
L 135.384031 75.816 
L 131.232 73.354621 
L 126.416638 70.272 
L 125.28 69.536563 
L 119.328 65.415613 
L 118.396507 64.728 
L 113.376 60.95613 
L 111.165484 59.184 
L 107.424 56.115807 
L 104.57546 53.64 
L 101.472 50.866711 
L 98.520638 48.096 
L 95.52 45.184334 
L 92.906689 42.552 
L 89.568 39.056227 
L 87.651506 37.008 
L 83.616 32.496996 
z
" clip-path="url(#pc1fc1919da)" style="fill: #21908d"/>
   </g>
   <g id="PathCollection_21">
    <path d="M 41.322445 131.256 
L 39.974821 125.712 
L 38.76769 120.168 
L 37.695845 114.624 
L 36.754977 109.08 
L 36 103.919103 
L 36 103.536 
L 36 97.992 
L 36 92.448 
L 36 86.904 
L 36 81.36 
L 36 75.816 
L 36 70.272 
L 36 64.728 
L 36 59.184 
L 36 53.64 
L 36 48.096 
L 36 42.552 
L 36 37.008 
L 36 36.420422 
L 36.795432 31.464 
L 37.847681 25.92 
L 41.952 25.92 
L 44.990945 25.92 
L 42.658325 31.464 
L 41.952 33.430768 
L 41.227281 37.008 
L 40.257608 42.552 
L 39.45078 48.096 
L 38.79847 53.64 
L 38.293748 59.184 
L 37.930933 64.728 
L 37.705465 70.272 
L 37.613807 75.816 
L 37.653368 81.36 
L 37.822437 86.904 
L 38.120144 92.448 
L 38.546424 97.992 
L 39.101998 103.536 
L 39.788373 109.08 
L 40.607849 114.624 
L 41.563545 120.168 
L 41.952 122.08195 
L 42.873896 125.712 
L 44.471934 131.256 
L 46.241975 136.8 
L 47.904 141.491843 
L 48.288862 142.344 
L 51.116685 147.888 
L 53.856 152.851394 
L 54.262221 153.432 
L 58.598459 158.976 
L 59.808 160.370408 
L 64.270899 164.52 
L 65.76 165.753725 
L 71.712 169.793534 
L 72.199298 170.064 
L 77.664 172.693337 
L 83.616 175.122766 
L 85.055314 175.608 
L 89.568 176.898296 
L 95.52 178.322493 
L 101.472 179.528346 
L 107.424 180.551194 
L 111.58167 181.152 
L 113.376 181.364887 
L 119.328 181.946368 
L 125.28 182.432866 
L 131.232 182.83866 
L 137.184 183.175566 
L 143.136 183.453425 
L 149.088 183.680479 
L 155.04 183.863671 
L 160.992 184.008876 
L 166.944 184.12109 
L 172.896 184.204583 
L 178.848 184.263017 
L 184.8 184.299547 
L 190.752 184.316898 
L 196.704 184.317437 
L 202.656 184.30322 
L 208.608 184.276045 
L 214.56 184.237482 
L 214.56 186.696 
L 214.56 188.356987 
L 208.608 188.348188 
L 202.656 188.329966 
L 196.704 188.301016 
L 190.752 188.25984 
L 184.8 188.204714 
L 178.848 188.133644 
L 172.896 188.044323 
L 166.944 187.934069 
L 160.992 187.799752 
L 155.04 187.637703 
L 149.088 187.443609 
L 143.136 187.212372 
L 137.184 186.937938 
L 132.769424 186.696 
L 131.232 186.590155 
L 125.28 186.103051 
L 119.328 185.53317 
L 113.376 184.866192 
L 107.424 184.084719 
L 101.472 183.167478 
L 95.52 182.088285 
L 91.178873 181.152 
L 89.568 180.739098 
L 83.616 178.908496 
L 77.664 176.759855 
L 75.021031 175.608 
L 71.712 173.942416 
L 65.76 170.367558 
L 65.350414 170.064 
L 59.808 165.436514 
L 58.914352 164.52 
L 54.047468 158.976 
L 53.856 158.732641 
L 50.532814 153.432 
L 47.904 148.898225 
L 47.436251 147.888 
L 45.158479 142.344 
L 43.062562 136.8 
L 41.952 133.537138 
z
" clip-path="url(#pc1fc1919da)" style="fill: #1fa287"/>
    <path d="M 66.367249 25.92 
L 71.712 25.92 
L 77.664 25.92 
L 77.944448 25.92 
L 82.687921 31.464 
L 83.616 32.496996 
L 87.651506 37.008 
L 89.568 39.056227 
L 92.906689 42.552 
L 95.52 45.184334 
L 98.520638 48.096 
L 101.472 50.866711 
L 104.57546 53.64 
L 107.424 56.115807 
L 111.165484 59.184 
L 113.376 60.95613 
L 118.396507 64.728 
L 119.328 65.415613 
L 125.28 69.536563 
L 126.416638 70.272 
L 131.232 73.354621 
L 135.384031 75.816 
L 137.184 76.877055 
L 143.136 80.150185 
L 145.499981 81.36 
L 149.088 83.197741 
L 155.04 86.024292 
L 157.022281 86.904 
L 160.992 88.678541 
L 166.944 91.149277 
L 170.299234 92.448 
L 172.896 93.46735 
L 178.848 95.654606 
L 184.8 97.683312 
L 185.759564 97.992 
L 190.752 99.633028 
L 196.704 101.458771 
L 202.656 103.161888 
L 204.037946 103.536 
L 208.608 104.810501 
L 214.56 106.368643 
L 214.56 109.08 
L 214.56 114.624 
L 214.56 114.981293 
L 213.22512 114.624 
L 208.608 113.452117 
L 202.656 111.840074 
L 196.704 110.108852 
L 193.389495 109.08 
L 190.752 108.29408 
L 184.8 106.404848 
L 178.848 104.365104 
L 176.581655 103.536 
L 172.896 102.228035 
L 166.944 99.959319 
L 162.170609 97.992 
L 160.992 97.516393 
L 155.04 94.955117 
L 149.684292 92.448 
L 149.088 92.172416 
L 143.136 89.2409 
L 138.768416 86.904 
L 137.184 86.060481 
L 131.232 82.662269 
L 129.110394 81.36 
L 125.28 79.002354 
L 120.484181 75.816 
L 119.328 75.040982 
L 113.376 70.774979 
L 112.714638 70.272 
L 107.424 66.178374 
L 105.656984 64.728 
L 101.472 61.211722 
L 99.17416 59.184 
L 95.52 55.862584 
L 93.160238 53.64 
L 89.568 50.132325 
L 87.517012 48.096 
L 83.616 44.052535 
L 82.15179 42.552 
L 77.664 37.71352 
L 76.972251 37.008 
L 71.841454 31.464 
L 71.712 31.316769 
z
" clip-path="url(#pc1fc1919da)" style="fill: #1fa287"/>
   </g>
   <g id="PathCollection_22">
    <path d="M 41.563545 120.168 
L 40.607849 114.624 
L 39.788373 109.08 
L 39.101998 103.536 
L 38.546424 97.992 
L 38.120144 92.448 
L 37.822437 86.904 
L 37.653368 81.36 
L 37.613807 75.816 
L 37.705465 70.272 
L 37.930933 64.728 
L 38.293748 59.184 
L 38.79847 53.64 
L 39.45078 48.096 
L 40.257608 42.552 
L 41.227281 37.008 
L 41.952 33.430768 
L 42.658325 31.464 
L 44.990945 25.92 
L 47.904 25.92 
L 53.856 25.92 
L 59.808 25.92 
L 65.76 25.92 
L 66.367249 25.92 
L 71.712 31.316769 
L 71.841454 31.464 
L 76.972251 37.008 
L 77.664 37.71352 
L 82.15179 42.552 
L 83.616 44.052535 
L 87.517012 48.096 
L 89.568 50.132325 
L 93.160238 53.64 
L 95.52 55.862584 
L 99.17416 59.184 
L 101.472 61.211722 
L 105.656984 64.728 
L 107.424 66.178374 
L 112.714638 70.272 
L 113.376 70.774979 
L 119.328 75.040982 
L 120.484181 75.816 
L 125.28 79.002354 
L 129.110394 81.36 
L 131.232 82.662269 
L 137.184 86.060481 
L 138.768416 86.904 
L 143.136 89.2409 
L 149.088 92.172416 
L 149.684292 92.448 
L 155.04 94.955117 
L 160.992 97.516393 
L 162.170609 97.992 
L 166.944 99.959319 
L 172.896 102.228035 
L 176.581655 103.536 
L 178.848 104.365104 
L 184.8 106.404848 
L 190.752 108.29408 
L 193.389495 109.08 
L 196.704 110.108852 
L 202.656 111.840074 
L 208.608 113.452117 
L 213.22512 114.624 
L 214.56 114.981293 
L 214.56 120.168 
L 214.56 124.748882 
L 208.608 123.180151 
L 202.656 121.488428 
L 198.333966 120.168 
L 196.704 119.705225 
L 190.752 117.908755 
L 184.8 115.962524 
L 180.998999 114.624 
L 178.848 113.908247 
L 172.896 111.790683 
L 166.944 109.482631 
L 165.970757 109.08 
L 160.992 107.106611 
L 155.04 104.539067 
L 152.877212 103.536 
L 149.088 101.83142 
L 143.136 98.925547 
L 141.35612 97.992 
L 137.184 95.846224 
L 131.232 92.507149 
L 131.132783 92.448 
L 125.28 88.991384 
L 122.019298 86.904 
L 119.328 85.182879 
L 113.780739 81.36 
L 113.376 81.079244 
L 107.424 76.701952 
L 106.286176 75.816 
L 101.472 72.003994 
L 99.388723 70.272 
L 95.52 66.97629 
L 92.967311 64.728 
L 89.568 61.636529 
L 86.902414 59.184 
L 83.616 56.036455 
L 81.061344 53.64 
L 77.664 50.293353 
L 75.264876 48.096 
L 71.712 44.645291 
L 69.165846 42.552 
L 65.76 39.549291 
L 61.560354 37.008 
L 59.808 35.8559 
L 53.856 35.22694 
L 51.783889 37.008 
L 47.904 41.120968 
L 47.383142 42.552 
L 45.63962 48.096 
L 44.232734 53.64 
L 43.124389 59.184 
L 42.284096 64.728 
L 41.952 67.731766 
L 41.770622 70.272 
L 41.508489 75.816 
L 41.386253 81.36 
L 41.401554 86.904 
L 41.552934 92.448 
L 41.839797 97.992 
L 41.952 99.419881 
L 42.371369 103.536 
L 43.115496 109.08 
L 44.029854 114.624 
L 45.114802 120.168 
L 46.37233 125.712 
L 47.80607 131.256 
L 47.904 131.577416 
L 49.953501 136.8 
L 52.342441 142.344 
L 53.856 145.487818 
L 55.337514 147.888 
L 59.119518 153.432 
L 59.808 154.329085 
L 64.277765 158.976 
L 65.76 160.353985 
L 71.265426 164.52 
L 71.712 164.817136 
L 77.664 167.999248 
L 82.243181 170.064 
L 83.616 170.594171 
L 89.568 172.457128 
L 95.52 174.027 
L 101.472 175.351088 
L 102.885861 175.608 
L 107.424 176.286695 
L 113.376 177.017255 
L 119.328 177.61857 
L 125.28 178.10986 
L 131.232 178.507011 
L 137.184 178.823237 
L 143.136 179.069599 
L 149.088 179.255411 
L 155.04 179.388561 
L 160.992 179.475762 
L 166.944 179.522759 
L 172.896 179.534489 
L 178.848 179.515213 
L 184.8 179.468627 
L 190.752 179.397946 
L 196.704 179.305976 
L 202.656 179.195177 
L 208.608 179.067712 
L 214.56 178.925486 
L 214.56 181.152 
L 214.56 184.237482 
L 208.608 184.276045 
L 202.656 184.30322 
L 196.704 184.317437 
L 190.752 184.316898 
L 184.8 184.299547 
L 178.848 184.263017 
L 172.896 184.204583 
L 166.944 184.12109 
L 160.992 184.008876 
L 155.04 183.863671 
L 149.088 183.680479 
L 143.136 183.453425 
L 137.184 183.175566 
L 131.232 182.83866 
L 125.28 182.432866 
L 119.328 181.946368 
L 113.376 181.364887 
L 111.58167 181.152 
L 107.424 180.551194 
L 101.472 179.528346 
L 95.52 178.322493 
L 89.568 176.898296 
L 85.055314 175.608 
L 83.616 175.122766 
L 77.664 172.693337 
L 72.199298 170.064 
L 71.712 169.793534 
L 65.76 165.753725 
L 64.270899 164.52 
L 59.808 160.370408 
L 58.598459 158.976 
L 54.262221 153.432 
L 53.856 152.851394 
L 51.116685 147.888 
L 48.288862 142.344 
L 47.904 141.491843 
L 46.241975 136.8 
L 44.471934 131.256 
L 42.873896 125.712 
L 41.952 122.08195 
z
" clip-path="url(#pc1fc1919da)" style="fill: #31b57b"/>
   </g>
   <g id="PathCollection_23">
    <path d="M 41.839797 97.992 
L 41.552934 92.448 
L 41.401554 86.904 
L 41.386253 81.36 
L 41.508489 75.816 
L 41.770622 70.272 
L 41.952 67.731766 
L 42.284096 64.728 
L 43.124389 59.184 
L 44.232734 53.64 
L 45.63962 48.096 
L 47.383142 42.552 
L 47.904 41.120968 
L 51.783889 37.008 
L 53.856 35.22694 
L 59.808 35.8559 
L 61.560354 37.008 
L 65.76 39.549291 
L 69.165846 42.552 
L 71.712 44.645291 
L 75.264876 48.096 
L 77.664 50.293353 
L 81.061344 53.64 
L 83.616 56.036455 
L 86.902414 59.184 
L 89.568 61.636529 
L 92.967311 64.728 
L 95.52 66.97629 
L 99.388723 70.272 
L 101.472 72.003994 
L 106.286176 75.816 
L 107.424 76.701952 
L 113.376 81.079244 
L 113.780739 81.36 
L 119.328 85.182879 
L 122.019298 86.904 
L 125.28 88.991384 
L 131.132783 92.448 
L 131.232 92.507149 
L 137.184 95.846224 
L 141.35612 97.992 
L 143.136 98.925547 
L 149.088 101.83142 
L 152.877212 103.536 
L 155.04 104.539067 
L 160.992 107.106611 
L 165.970757 109.08 
L 166.944 109.482631 
L 172.896 111.790683 
L 178.848 113.908247 
L 180.998999 114.624 
L 184.8 115.962524 
L 190.752 117.908755 
L 196.704 119.705225 
L 198.333966 120.168 
L 202.656 121.488428 
L 208.608 123.180151 
L 214.56 124.748882 
L 214.56 125.712 
L 214.56 131.256 
L 214.56 136.8 
L 214.56 137.049255 
L 213.855246 136.8 
L 208.608 135.274018 
L 202.656 133.386686 
L 196.704 131.310778 
L 196.556732 131.256 
L 190.752 129.387847 
L 184.8 127.287683 
L 180.706001 125.712 
L 178.848 125.069669 
L 172.896 122.859421 
L 166.944 120.421206 
L 166.366436 120.168 
L 160.992 117.998563 
L 155.04 115.353176 
L 153.516832 114.624 
L 149.088 112.630251 
L 143.136 109.690114 
L 141.986323 109.08 
L 137.184 106.642054 
L 131.619661 103.536 
L 131.232 103.32598 
L 125.28 99.88644 
L 122.264167 97.992 
L 119.328 96.178538 
L 113.74728 92.448 
L 113.376 92.201337 
L 107.424 88.017194 
L 105.930587 86.904 
L 101.472 83.558964 
L 98.679481 81.36 
L 95.52 78.831352 
L 91.864846 75.816 
L 89.568 73.871701 
L 85.335748 70.272 
L 83.616 68.756395 
L 78.88753 64.728 
L 77.664 63.636736 
L 72.158613 59.184 
L 71.712 58.801538 
L 65.76 54.836602 
L 62.174166 53.64 
L 59.808 52.779547 
L 57.126771 53.64 
L 53.856 54.95185 
L 51.471951 59.184 
L 49.108941 64.728 
L 47.904 68.550283 
L 47.617705 70.272 
L 46.91096 75.816 
L 46.439197 81.36 
L 46.187089 86.904 
L 46.142556 92.448 
L 46.296299 97.992 
L 46.641447 103.536 
L 47.17329 109.08 
L 47.889089 114.624 
L 47.904 114.711603 
L 49.144268 120.168 
L 50.625843 125.712 
L 52.326309 131.256 
L 53.856 135.61523 
L 54.403365 136.8 
L 57.349592 142.344 
L 59.808 146.553365 
L 60.811174 147.888 
L 65.46785 153.432 
L 65.76 153.738694 
L 71.712 158.741494 
L 72.05713 158.976 
L 77.664 162.276865 
L 82.210573 164.52 
L 83.616 165.11279 
L 89.568 167.121272 
L 95.52 168.79991 
L 100.924809 170.064 
L 101.472 170.169662 
L 107.424 171.066365 
L 113.376 171.785738 
L 119.328 172.353308 
L 125.28 172.790094 
L 131.232 173.113526 
L 137.184 173.338152 
L 143.136 173.476197 
L 149.088 173.537997 
L 155.04 173.53234 
L 160.992 173.466745 
L 166.944 173.347673 
L 172.896 173.180711 
L 178.848 172.970706 
L 184.8 172.721888 
L 190.752 172.437959 
L 196.704 172.122177 
L 202.656 171.777414 
L 208.608 171.406218 
L 214.56 171.010851 
L 214.56 175.608 
L 214.56 178.925486 
L 208.608 179.067712 
L 202.656 179.195177 
L 196.704 179.305976 
L 190.752 179.397946 
L 184.8 179.468627 
L 178.848 179.515213 
L 172.896 179.534489 
L 166.944 179.522759 
L 160.992 179.475762 
L 155.04 179.388561 
L 149.088 179.255411 
L 143.136 179.069599 
L 137.184 178.823237 
L 131.232 178.507011 
L 125.28 178.10986 
L 119.328 177.61857 
L 113.376 177.017255 
L 107.424 176.286695 
L 102.885861 175.608 
L 101.472 175.351088 
L 95.52 174.027 
L 89.568 172.457128 
L 83.616 170.594171 
L 82.243181 170.064 
L 77.664 167.999248 
L 71.712 164.817136 
L 71.265426 164.52 
L 65.76 160.353985 
L 64.277765 158.976 
L 59.808 154.329085 
L 59.119518 153.432 
L 55.337514 147.888 
L 53.856 145.487818 
L 52.342441 142.344 
L 49.953501 136.8 
L 47.904 131.577416 
L 47.80607 131.256 
L 46.37233 125.712 
L 45.114802 120.168 
L 44.029854 114.624 
L 43.115496 109.08 
L 42.371369 103.536 
L 41.952 99.419881 
z
" clip-path="url(#pc1fc1919da)" style="fill: #52c569"/>
   </g>
   <g id="PathCollection_24">
    <path d="M 47.889089 114.624 
L 47.17329 109.08 
L 46.641447 103.536 
L 46.296299 97.992 
L 46.142556 92.448 
L 46.187089 86.904 
L 46.439197 81.36 
L 46.91096 75.816 
L 47.617705 70.272 
L 47.904 68.550283 
L 49.108941 64.728 
L 51.471951 59.184 
L 53.856 54.95185 
L 57.126771 53.64 
L 59.808 52.779547 
L 62.174166 53.64 
L 65.76 54.836602 
L 71.712 58.801538 
L 72.158613 59.184 
L 77.664 63.636736 
L 78.88753 64.728 
L 83.616 68.756395 
L 85.335748 70.272 
L 89.568 73.871701 
L 91.864846 75.816 
L 95.52 78.831352 
L 98.679481 81.36 
L 101.472 83.558964 
L 105.930587 86.904 
L 107.424 88.017194 
L 113.376 92.201337 
L 113.74728 92.448 
L 119.328 96.178538 
L 122.264167 97.992 
L 125.28 99.88644 
L 131.232 103.32598 
L 131.619661 103.536 
L 137.184 106.642054 
L 141.986323 109.08 
L 143.136 109.690114 
L 149.088 112.630251 
L 153.516832 114.624 
L 155.04 115.353176 
L 160.992 117.998563 
L 166.366436 120.168 
L 166.944 120.421206 
L 172.896 122.859421 
L 178.848 125.069669 
L 180.706001 125.712 
L 184.8 127.287683 
L 190.752 129.387847 
L 196.556732 131.256 
L 196.704 131.310778 
L 202.656 133.386686 
L 208.608 135.274018 
L 213.855246 136.8 
L 214.56 137.049255 
L 214.56 142.344 
L 214.56 147.888 
L 214.56 153.432 
L 214.56 158.976 
L 214.56 164.52 
L 214.56 170.064 
L 214.56 171.010851 
L 208.608 171.406218 
L 202.656 171.777414 
L 196.704 172.122177 
L 190.752 172.437959 
L 184.8 172.721888 
L 178.848 172.970706 
L 172.896 173.180711 
L 166.944 173.347673 
L 160.992 173.466745 
L 155.04 173.53234 
L 149.088 173.537997 
L 143.136 173.476197 
L 137.184 173.338152 
L 131.232 173.113526 
L 125.28 172.790094 
L 119.328 172.353308 
L 113.376 171.785738 
L 107.424 171.066365 
L 101.472 170.169662 
L 100.924809 170.064 
L 95.52 168.79991 
L 89.568 167.121272 
L 83.616 165.11279 
L 82.210573 164.52 
L 77.664 162.276865 
L 72.05713 158.976 
L 71.712 158.741494 
L 65.76 153.738694 
L 65.46785 153.432 
L 60.811174 147.888 
L 59.808 146.553365 
L 57.349592 142.344 
L 54.403365 136.8 
L 53.856 135.61523 
L 52.326309 131.256 
L 50.625843 125.712 
L 49.144268 120.168 
L 47.904 114.711603 
z
M 53.856 117.411057 
L 54.510276 120.168 
L 56.190239 125.712 
L 58.156742 131.256 
L 59.808 135.249645 
L 60.662379 136.8 
L 64.194688 142.344 
L 65.76 144.513415 
L 68.888489 147.888 
L 71.712 150.570893 
L 75.480887 153.432 
L 77.664 154.863998 
L 83.616 158.001315 
L 85.915809 158.976 
L 89.568 160.269775 
L 95.52 161.940858 
L 101.472 163.281568 
L 107.424 164.332563 
L 108.903582 164.52 
L 113.376 164.96776 
L 119.328 165.367907 
L 125.28 165.601536 
L 131.232 165.686595 
L 137.184 165.637895 
L 143.136 165.467704 
L 149.088 165.186209 
L 155.04 164.801888 
L 158.596444 164.52 
L 160.992 164.206751 
L 166.944 163.2768 
L 172.896 162.158699 
L 178.848 160.842448 
L 184.8 159.314762 
L 186.013283 158.976 
L 190.752 154.562398 
L 191.761872 153.432 
L 190.752 152.010137 
L 188.285148 147.888 
L 184.8 145.703195 
L 180.206181 142.344 
L 178.848 141.690225 
L 172.896 138.510547 
L 170.076171 136.8 
L 166.944 135.340019 
L 160.992 132.237712 
L 159.289234 131.256 
L 155.04 129.214759 
L 149.088 126.000229 
L 148.596054 125.712 
L 143.136 122.908278 
L 138.373691 120.168 
L 137.184 119.544123 
L 131.232 116.16564 
L 128.755057 114.624 
L 125.28 112.601422 
L 119.776312 109.08 
L 119.328 108.80583 
L 113.376 104.932136 
L 111.382016 103.536 
L 107.424 100.837571 
L 103.51122 97.992 
L 101.472 96.525264 
L 96.068858 92.448 
L 95.52 92.032702 
L 89.568 87.457113 
L 88.833504 86.904 
L 83.616 82.886805 
L 81.494243 81.36 
L 77.664 78.500732 
L 73.414116 75.816 
L 71.712 74.683376 
L 65.76 72.277853 
L 59.808 72.961992 
L 57.432781 75.816 
L 54.292984 81.36 
L 53.856 82.522517 
L 53.075802 86.904 
L 52.481468 92.448 
L 52.247612 97.992 
L 52.336716 103.536 
L 52.720805 109.08 
L 53.379394 114.624 
z
" clip-path="url(#pc1fc1919da)" style="fill: #7fd34e"/>
   </g>
   <g id="PathCollection_25">
    <path d="M 53.379394 114.624 
L 52.720805 109.08 
L 52.336716 103.536 
L 52.247612 97.992 
L 52.481468 92.448 
L 53.075802 86.904 
L 53.856 82.522517 
L 54.292984 81.36 
L 57.432781 75.816 
L 59.808 72.961992 
L 65.76 72.277853 
L 71.712 74.683376 
L 73.414116 75.816 
L 77.664 78.500732 
L 81.494243 81.36 
L 83.616 82.886805 
L 88.833504 86.904 
L 89.568 87.457113 
L 95.52 92.032702 
L 96.068858 92.448 
L 101.472 96.525264 
L 103.51122 97.992 
L 107.424 100.837571 
L 111.382016 103.536 
L 113.376 104.932136 
L 119.328 108.80583 
L 119.776312 109.08 
L 125.28 112.601422 
L 128.755057 114.624 
L 131.232 116.16564 
L 137.184 119.544123 
L 138.373691 120.168 
L 143.136 122.908278 
L 148.596054 125.712 
L 149.088 126.000229 
L 155.04 129.214759 
L 159.289234 131.256 
L 160.992 132.237712 
L 166.944 135.340019 
L 170.076171 136.8 
L 172.896 138.510547 
L 178.848 141.690225 
L 180.206181 142.344 
L 184.8 145.703195 
L 188.285148 147.888 
L 190.752 152.010137 
L 191.761872 153.432 
L 190.752 154.562398 
L 186.013283 158.976 
L 184.8 159.314762 
L 178.848 160.842448 
L 172.896 162.158699 
L 166.944 163.2768 
L 160.992 164.206751 
L 158.596444 164.52 
L 155.04 164.801888 
L 149.088 165.186209 
L 143.136 165.467704 
L 137.184 165.637895 
L 131.232 165.686595 
L 125.28 165.601536 
L 119.328 165.367907 
L 113.376 164.96776 
L 108.903582 164.52 
L 107.424 164.332563 
L 101.472 163.281568 
L 95.52 161.940858 
L 89.568 160.269775 
L 85.915809 158.976 
L 83.616 158.001315 
L 77.664 154.863998 
L 75.480887 153.432 
L 71.712 150.570893 
L 68.888489 147.888 
L 65.76 144.513415 
L 64.194688 142.344 
L 60.662379 136.8 
L 59.808 135.249645 
L 58.156742 131.256 
L 56.190239 125.712 
L 54.510276 120.168 
L 53.856 117.411057 
z
M 65.76 127.809483 
L 67.566297 131.256 
L 71.023999 136.8 
L 71.712 137.703085 
L 76.364738 142.344 
L 77.664 143.446816 
L 83.616 147.33856 
L 84.731952 147.888 
L 89.568 149.809129 
L 95.52 151.572232 
L 101.472 152.804222 
L 106.917525 153.432 
L 107.424 153.475931 
L 113.376 153.54726 
L 115.571412 153.432 
L 119.328 153.067858 
L 125.28 151.699934 
L 131.232 149.236192 
L 133.485516 147.888 
L 134.36007 142.344 
L 131.232 137.661393 
L 130.737999 136.8 
L 125.28 131.58663 
L 124.976451 131.256 
L 119.328 126.733303 
L 118.187591 125.712 
L 113.376 122.138807 
L 110.957272 120.168 
L 107.424 117.615158 
L 103.571264 114.624 
L 101.472 113.114049 
L 96.12076 109.08 
L 95.52 108.646778 
L 89.568 104.403118 
L 88.268284 103.536 
L 83.616 100.474143 
L 79.220834 97.992 
L 77.664 97.101781 
L 71.712 95.273984 
L 65.76 96.969856 
L 65.090919 97.992 
L 62.99105 103.536 
L 62.288754 109.08 
L 62.533709 114.624 
L 63.475924 120.168 
L 64.968961 125.712 
z
" clip-path="url(#pc1fc1919da)" style="fill: #b2dd2d"/>
   </g>
   <g id="PathCollection_26">
    <path d="M 64.968961 125.712 
L 63.475924 120.168 
L 62.533709 114.624 
L 62.288754 109.08 
L 62.99105 103.536 
L 65.090919 97.992 
L 65.76 96.969856 
L 71.712 95.273984 
L 77.664 97.101781 
L 79.220834 97.992 
L 83.616 100.474143 
L 88.268284 103.536 
L 89.568 104.403118 
L 95.52 108.646778 
L 96.12076 109.08 
L 101.472 113.114049 
L 103.571264 114.624 
L 107.424 117.615158 
L 110.957272 120.168 
L 113.376 122.138807 
L 118.187591 125.712 
L 119.328 126.733303 
L 124.976451 131.256 
L 125.28 131.58663 
L 130.737999 136.8 
L 131.232 137.661393 
L 134.36007 142.344 
L 133.485516 147.888 
L 131.232 149.236192 
L 125.28 151.699934 
L 119.328 153.067858 
L 115.571412 153.432 
L 113.376 153.54726 
L 107.424 153.475931 
L 106.917525 153.432 
L 101.472 152.804222 
L 95.52 151.572232 
L 89.568 149.809129 
L 84.731952 147.888 
L 83.616 147.33856 
L 77.664 143.446816 
L 76.364738 142.344 
L 71.712 137.703085 
L 71.023999 136.8 
L 67.566297 131.256 
L 65.76 127.809483 
z
" clip-path="url(#pc1fc1919da)" style="fill: #e7e419"/>
   </g>
   <g id="PathCollection_27">
    <defs>
     <path id="m36736f8f68" d="M -4.330127 4.330127 
L 4.330127 -4.330127 
M -4.330127 -4.330127 
L 4.330127 4.330127 
" style="stroke: #000000; stroke-width: 2"/>
    </defs>
    <g clip-path="url(#pc1fc1919da)">
     <use xlink:href="#m36736f8f68" x="85.6" y="127.56" style="stroke: #000000; stroke-width: 2"/>
    </g>
   </g>
   <g id="matplotlib.axis_1">
    <g id="xtick_1">
     <g id="line2d_1">
      <defs>
       <path id="mb7304d6c71" d="M 0 0 
L 0 3.5 
" style="stroke: #000000; stroke-width: 0.8"/>
      </defs>
      <g>
       <use xlink:href="#mb7304d6c71" x="75.68" y="192.24" style="stroke: #000000; stroke-width: 0.8"/>
      </g>
     </g>
     <g id="text_1">
      <!-- $\mathdefault{250}$ -->
      <g transform="translate(64.22 208.358125) scale(0.12 -0.12)">
       <defs>
        <path id="DejaVuSans-32" d="M 1228 531 
L 3431 531 
L 3431 0 
L 469 0 
L 469 531 
Q 828 903 1448 1529 
Q 2069 2156 2228 2338 
Q 2531 2678 2651 2914 
Q 2772 3150 2772 3378 
Q 2772 3750 2511 3984 
Q 2250 4219 1831 4219 
Q 1534 4219 1204 4116 
Q 875 4013 500 3803 
L 500 4441 
Q 881 4594 1212 4672 
Q 1544 4750 1819 4750 
Q 2544 4750 2975 4387 
Q 3406 4025 3406 3419 
Q 3406 3131 3298 2873 
Q 3191 2616 2906 2266 
Q 2828 2175 2409 1742 
Q 1991 1309 1228 531 
z
" transform="scale(0.015625)"/>
        <path id="DejaVuSans-35" d="M 691 4666 
L 3169 4666 
L 3169 4134 
L 1269 4134 
L 1269 2991 
Q 1406 3038 1543 3061 
Q 1681 3084 1819 3084 
Q 2600 3084 3056 2656 
Q 3513 2228 3513 1497 
Q 3513 744 3044 326 
Q 2575 -91 1722 -91 
Q 1428 -91 1123 -41 
Q 819 9 494 109 
L 494 744 
Q 775 591 1075 516 
Q 1375 441 1709 441 
Q 2250 441 2565 725 
Q 2881 1009 2881 1497 
Q 2881 1984 2565 2268 
Q 2250 2553 1709 2553 
Q 1456 2553 1204 2497 
Q 953 2441 691 2322 
L 691 4666 
z
" transform="scale(0.015625)"/>
        <path id="DejaVuSans-30" d="M 2034 4250 
Q 1547 4250 1301 3770 
Q 1056 3291 1056 2328 
Q 1056 1369 1301 889 
Q 1547 409 2034 409 
Q 2525 409 2770 889 
Q 3016 1369 3016 2328 
Q 3016 3291 2770 3770 
Q 2525 4250 2034 4250 
z
M 2034 4750 
Q 2819 4750 3233 4129 
Q 3647 3509 3647 2328 
Q 3647 1150 3233 529 
Q 2819 -91 2034 -91 
Q 1250 -91 836 529 
Q 422 1150 422 2328 
Q 422 3509 836 4129 
Q 1250 4750 2034 4750 
z
" transform="scale(0.015625)"/>
       </defs>
       <use xlink:href="#DejaVuSans-32" transform="translate(0 0.78125)"/>
       <use xlink:href="#DejaVuSans-35" transform="translate(63.623047 0.78125)"/>
       <use xlink:href="#DejaVuSans-30" transform="translate(127.246094 0.78125)"/>
      </g>
     </g>
    </g>
    <g id="xtick_2">
     <g id="line2d_2">
      <g>
       <use xlink:href="#mb7304d6c71" x="125.28" y="192.24" style="stroke: #000000; stroke-width: 0.8"/>
      </g>
     </g>
     <g id="text_2">
      <!-- $\mathdefault{500}$ -->
      <g transform="translate(113.82 208.358125) scale(0.12 -0.12)">
       <use xlink:href="#DejaVuSans-35" transform="translate(0 0.78125)"/>
       <use xlink:href="#DejaVuSans-30" transform="translate(63.623047 0.78125)"/>
       <use xlink:href="#DejaVuSans-30" transform="translate(127.246094 0.78125)"/>
      </g>
     </g>
    </g>
    <g id="xtick_3">
     <g id="line2d_3">
      <g>
       <use xlink:href="#mb7304d6c71" x="174.88" y="192.24" style="stroke: #000000; stroke-width: 0.8"/>
      </g>
     </g>
     <g id="text_3">
      <!-- $\mathdefault{750}$ -->
      <g transform="translate(163.42 208.358125) scale(0.12 -0.12)">
       <defs>
        <path id="DejaVuSans-37" d="M 525 4666 
L 3525 4666 
L 3525 4397 
L 1831 0 
L 1172 0 
L 2766 4134 
L 525 4134 
L 525 4666 
z
" transform="scale(0.015625)"/>
       </defs>
       <use xlink:href="#DejaVuSans-37" transform="translate(0 0.78125)"/>
       <use xlink:href="#DejaVuSans-35" transform="translate(63.623047 0.78125)"/>
       <use xlink:href="#DejaVuSans-30" transform="translate(127.246094 0.78125)"/>
      </g>
     </g>
    </g>
    <g id="text_4">
     <!-- Diploid N$_e$1 -->
     <g transform="translate(80 227.01375) scale(0.16 -0.16)">
      <defs>
       <path id="DejaVuSans-44" d="M 1259 4147 
L 1259 519 
L 2022 519 
Q 2988 519 3436 956 
Q 3884 1394 3884 2338 
Q 3884 3275 3436 3711 
Q 2988 4147 2022 4147 
L 1259 4147 
z
M 628 4666 
L 1925 4666 
Q 3281 4666 3915 4102 
Q 4550 3538 4550 2338 
Q 4550 1131 3912 565 
Q 3275 0 1925 0 
L 628 0 
L 628 4666 
z
" transform="scale(0.015625)"/>
       <path id="DejaVuSans-69" d="M 603 3500 
L 1178 3500 
L 1178 0 
L 603 0 
L 603 3500 
z
M 603 4863 
L 1178 4863 
L 1178 4134 
L 603 4134 
L 603 4863 
z
" transform="scale(0.015625)"/>
       <path id="DejaVuSans-70" d="M 1159 525 
L 1159 -1331 
L 581 -1331 
L 581 3500 
L 1159 3500 
L 1159 2969 
Q 1341 3281 1617 3432 
Q 1894 3584 2278 3584 
Q 2916 3584 3314 3078 
Q 3713 2572 3713 1747 
Q 3713 922 3314 415 
Q 2916 -91 2278 -91 
Q 1894 -91 1617 61 
Q 1341 213 1159 525 
z
M 3116 1747 
Q 3116 2381 2855 2742 
Q 2594 3103 2138 3103 
Q 1681 3103 1420 2742 
Q 1159 2381 1159 1747 
Q 1159 1113 1420 752 
Q 1681 391 2138 391 
Q 2594 391 2855 752 
Q 3116 1113 3116 1747 
z
" transform="scale(0.015625)"/>
       <path id="DejaVuSans-6c" d="M 603 4863 
L 1178 4863 
L 1178 0 
L 603 0 
L 603 4863 
z
" transform="scale(0.015625)"/>
       <path id="DejaVuSans-6f" d="M 1959 3097 
Q 1497 3097 1228 2736 
Q 959 2375 959 1747 
Q 959 1119 1226 758 
Q 1494 397 1959 397 
Q 2419 397 2687 759 
Q 2956 1122 2956 1747 
Q 2956 2369 2687 2733 
Q 2419 3097 1959 3097 
z
M 1959 3584 
Q 2709 3584 3137 3096 
Q 3566 2609 3566 1747 
Q 3566 888 3137 398 
Q 2709 -91 1959 -91 
Q 1206 -91 779 398 
Q 353 888 353 1747 
Q 353 2609 779 3096 
Q 1206 3584 1959 3584 
z
" transform="scale(0.015625)"/>
       <path id="DejaVuSans-64" d="M 2906 2969 
L 2906 4863 
L 3481 4863 
L 3481 0 
L 2906 0 
L 2906 525 
Q 2725 213 2448 61 
Q 2172 -91 1784 -91 
Q 1150 -91 751 415 
Q 353 922 353 1747 
Q 353 2572 751 3078 
Q 1150 3584 1784 3584 
Q 2172 3584 2448 3432 
Q 2725 3281 2906 2969 
z
M 947 1747 
Q 947 1113 1208 752 
Q 1469 391 1925 391 
Q 2381 391 2643 752 
Q 2906 1113 2906 1747 
Q 2906 2381 2643 2742 
Q 2381 3103 1925 3103 
Q 1469 3103 1208 2742 
Q 947 2381 947 1747 
z
" transform="scale(0.015625)"/>
       <path id="DejaVuSans-20" transform="scale(0.015625)"/>
       <path id="DejaVuSans-4e" d="M 628 4666 
L 1478 4666 
L 3547 763 
L 3547 4666 
L 4159 4666 
L 4159 0 
L 3309 0 
L 1241 3903 
L 1241 0 
L 628 0 
L 628 4666 
z
" transform="scale(0.015625)"/>
       <path id="DejaVuSans-Oblique-65" d="M 3078 2063 
Q 3088 2113 3092 2166 
Q 3097 2219 3097 2272 
Q 3097 2653 2873 2875 
Q 2650 3097 2266 3097 
Q 1838 3097 1509 2826 
Q 1181 2556 1013 2059 
L 3078 2063 
z
M 3578 1613 
L 903 1613 
Q 884 1494 878 1425 
Q 872 1356 872 1306 
Q 872 872 1139 634 
Q 1406 397 1894 397 
Q 2269 397 2603 481 
Q 2938 566 3225 728 
L 3116 159 
Q 2806 34 2476 -28 
Q 2147 -91 1806 -91 
Q 1078 -91 686 257 
Q 294 606 294 1247 
Q 294 1794 489 2264 
Q 684 2734 1063 3103 
Q 1306 3334 1642 3459 
Q 1978 3584 2356 3584 
Q 2950 3584 3301 3228 
Q 3653 2872 3653 2272 
Q 3653 2128 3634 1964 
Q 3616 1800 3578 1613 
z
" transform="scale(0.015625)"/>
       <path id="DejaVuSans-31" d="M 794 531 
L 1825 531 
L 1825 4091 
L 703 3866 
L 703 4441 
L 1819 4666 
L 2450 4666 
L 2450 531 
L 3481 531 
L 3481 0 
L 794 0 
L 794 531 
z
" transform="scale(0.015625)"/>
      </defs>
      <use xlink:href="#DejaVuSans-44" transform="translate(0 0.015625)"/>
      <use xlink:href="#DejaVuSans-69" transform="translate(77.001953 0.015625)"/>
      <use xlink:href="#DejaVuSans-70" transform="translate(104.785156 0.015625)"/>
      <use xlink:href="#DejaVuSans-6c" transform="translate(168.261719 0.015625)"/>
      <use xlink:href="#DejaVuSans-6f" transform="translate(196.044922 0.015625)"/>
      <use xlink:href="#DejaVuSans-69" transform="translate(257.226562 0.015625)"/>
      <use xlink:href="#DejaVuSans-64" transform="translate(285.009766 0.015625)"/>
      <use xlink:href="#DejaVuSans-20" transform="translate(348.486328 0.015625)"/>
      <use xlink:href="#DejaVuSans-4e" transform="translate(380.273438 0.015625)"/>
      <use xlink:href="#DejaVuSans-Oblique-65" transform="translate(456.035156 -16.390625) scale(0.7)"/>
      <use xlink:href="#DejaVuSans-31" transform="translate(501.835938 0.015625)"/>
     </g>
    </g>
    <g id="text_5">
     <!-- $\times\mathdefault{10^{3}}\mathdefault{}$ -->
     <g transform="translate(188.56 221.452188) scale(0.1 -0.1)">
      <defs>
       <path id="DejaVuSans-d7" d="M 4488 3438 
L 3059 2003 
L 4488 575 
L 4116 197 
L 2681 1631 
L 1247 197 
L 878 575 
L 2303 2003 
L 878 3438 
L 1247 3816 
L 2681 2381 
L 4116 3816 
L 4488 3438 
z
" transform="scale(0.015625)"/>
       <path id="DejaVuSans-33" d="M 2597 2516 
Q 3050 2419 3304 2112 
Q 3559 1806 3559 1356 
Q 3559 666 3084 287 
Q 2609 -91 1734 -91 
Q 1441 -91 1130 -33 
Q 819 25 488 141 
L 488 750 
Q 750 597 1062 519 
Q 1375 441 1716 441 
Q 2309 441 2620 675 
Q 2931 909 2931 1356 
Q 2931 1769 2642 2001 
Q 2353 2234 1838 2234 
L 1294 2234 
L 1294 2753 
L 1863 2753 
Q 2328 2753 2575 2939 
Q 2822 3125 2822 3475 
Q 2822 3834 2567 4026 
Q 2313 4219 1838 4219 
Q 1578 4219 1281 4162 
Q 984 4106 628 3988 
L 628 4550 
Q 988 4650 1302 4700 
Q 1616 4750 1894 4750 
Q 2613 4750 3031 4423 
Q 3450 4097 3450 3541 
Q 3450 3153 3228 2886 
Q 3006 2619 2597 2516 
z
" transform="scale(0.015625)"/>
      </defs>
      <use xlink:href="#DejaVuSans-d7" transform="translate(0 0.765625)"/>
      <use xlink:href="#DejaVuSans-31" transform="translate(83.789062 0.765625)"/>
      <use xlink:href="#DejaVuSans-30" transform="translate(147.412109 0.765625)"/>
      <use xlink:href="#DejaVuSans-33" transform="translate(211.992188 39.046875) scale(0.7)"/>
     </g>
    </g>
   </g>
   <g id="matplotlib.axis_2">
    <g id="ytick_1">
     <g id="line2d_4">
      <defs>
       <path id="m32efaa7467" d="M 0 0 
L -3.5 0 
" style="stroke: #000000; stroke-width: 0.8"/>
      </defs>
      <g>
       <use xlink:href="#m32efaa7467" x="36" y="155.28" style="stroke: #000000; stroke-width: 0.8"/>
      </g>
     </g>
     <g id="text_6">
      <!-- $\mathdefault{250}$ -->
      <g transform="translate(6.08 159.839063) scale(0.12 -0.12)">
       <use xlink:href="#DejaVuSans-32" transform="translate(0 0.78125)"/>
       <use xlink:href="#DejaVuSans-35" transform="translate(63.623047 0.78125)"/>
       <use xlink:href="#DejaVuSans-30" transform="translate(127.246094 0.78125)"/>
      </g>
     </g>
    </g>
    <g id="ytick_2">
     <g id="line2d_5">
      <g>
       <use xlink:href="#m32efaa7467" x="36" y="109.08" style="stroke: #000000; stroke-width: 0.8"/>
      </g>
     </g>
     <g id="text_7">
      <!-- $\mathdefault{500}$ -->
      <g transform="translate(6.08 113.639062) scale(0.12 -0.12)">
       <use xlink:href="#DejaVuSans-35" transform="translate(0 0.78125)"/>
       <use xlink:href="#DejaVuSans-30" transform="translate(63.623047 0.78125)"/>
       <use xlink:href="#DejaVuSans-30" transform="translate(127.246094 0.78125)"/>
      </g>
     </g>
    </g>
    <g id="ytick_3">
     <g id="line2d_6">
      <g>
       <use xlink:href="#m32efaa7467" x="36" y="62.88" style="stroke: #000000; stroke-width: 0.8"/>
      </g>
     </g>
     <g id="text_8">
      <!-- $\mathdefault{750}$ -->
      <g transform="translate(6.08 67.439062) scale(0.12 -0.12)">
       <use xlink:href="#DejaVuSans-37" transform="translate(0 0.78125)"/>
       <use xlink:href="#DejaVuSans-35" transform="translate(63.623047 0.78125)"/>
       <use xlink:href="#DejaVuSans-30" transform="translate(127.246094 0.78125)"/>
      </g>
     </g>
    </g>
    <g id="text_9">
     <!-- Diploid N$_e$2 -->
     <g transform="translate(-1.28 154.36) rotate(-90) scale(0.16 -0.16)">
      <use xlink:href="#DejaVuSans-44" transform="translate(0 0.015625)"/>
      <use xlink:href="#DejaVuSans-69" transform="translate(77.001953 0.015625)"/>
      <use xlink:href="#DejaVuSans-70" transform="translate(104.785156 0.015625)"/>
      <use xlink:href="#DejaVuSans-6c" transform="translate(168.261719 0.015625)"/>
      <use xlink:href="#DejaVuSans-6f" transform="translate(196.044922 0.015625)"/>
      <use xlink:href="#DejaVuSans-69" transform="translate(257.226562 0.015625)"/>
      <use xlink:href="#DejaVuSans-64" transform="translate(285.009766 0.015625)"/>
      <use xlink:href="#DejaVuSans-20" transform="translate(348.486328 0.015625)"/>
      <use xlink:href="#DejaVuSans-4e" transform="translate(380.273438 0.015625)"/>
      <use xlink:href="#DejaVuSans-Oblique-65" transform="translate(456.035156 -16.390625) scale(0.7)"/>
      <use xlink:href="#DejaVuSans-32" transform="translate(501.835938 0.015625)"/>
     </g>
    </g>
    <g id="text_10">
     <!-- $\times\mathdefault{10^{3}}\mathdefault{}$ -->
     <g transform="translate(36 22.92) scale(0.1 -0.1)">
      <use xlink:href="#DejaVuSans-d7" transform="translate(0 0.765625)"/>
      <use xlink:href="#DejaVuSans-31" transform="translate(83.789062 0.765625)"/>
      <use xlink:href="#DejaVuSans-30" transform="translate(147.412109 0.765625)"/>
      <use xlink:href="#DejaVuSans-33" transform="translate(211.992188 39.046875) scale(0.7)"/>
     </g>
    </g>
   </g>
   <g id="patch_3">
    <path d="M 36 192.24 
L 36 25.92 
" style="fill: none; stroke: #000000; stroke-width: 0.8; stroke-linejoin: miter; stroke-linecap: square"/>
   </g>
   <g id="patch_4">
    <path d="M 214.56 192.24 
L 214.56 25.92 
" style="fill: none; stroke: #000000; stroke-width: 0.8; stroke-linejoin: miter; stroke-linecap: square"/>
   </g>
   <g id="patch_5">
    <path d="M 36 192.24 
L 214.56 192.24 
" style="fill: none; stroke: #000000; stroke-width: 0.8; stroke-linejoin: miter; stroke-linecap: square"/>
   </g>
   <g id="patch_6">
    <path d="M 36 25.92 
L 214.56 25.92 
" style="fill: none; stroke: #000000; stroke-width: 0.8; stroke-linejoin: miter; stroke-linecap: square"/>
   </g>
   <g id="text_11">
    <!-- Ne1Ne2-SMC-GT-P2-S4 -->
    <g transform="translate(33.735 10.92) scale(0.16 -0.16)">
     <defs>
      <path id="DejaVuSans-65" d="M 3597 1894 
L 3597 1613 
L 953 1613 
Q 991 1019 1311 708 
Q 1631 397 2203 397 
Q 2534 397 2845 478 
Q 3156 559 3463 722 
L 3463 178 
Q 3153 47 2828 -22 
Q 2503 -91 2169 -91 
Q 1331 -91 842 396 
Q 353 884 353 1716 
Q 353 2575 817 3079 
Q 1281 3584 2069 3584 
Q 2775 3584 3186 3129 
Q 3597 2675 3597 1894 
z
M 3022 2063 
Q 3016 2534 2758 2815 
Q 2500 3097 2075 3097 
Q 1594 3097 1305 2825 
Q 1016 2553 972 2059 
L 3022 2063 
z
" transform="scale(0.015625)"/>
      <path id="DejaVuSans-2d" d="M 313 2009 
L 1997 2009 
L 1997 1497 
L 313 1497 
L 313 2009 
z
" transform="scale(0.015625)"/>
      <path id="DejaVuSans-53" d="M 3425 4513 
L 3425 3897 
Q 3066 4069 2747 4153 
Q 2428 4238 2131 4238 
Q 1616 4238 1336 4038 
Q 1056 3838 1056 3469 
Q 1056 3159 1242 3001 
Q 1428 2844 1947 2747 
L 2328 2669 
Q 3034 2534 3370 2195 
Q 3706 1856 3706 1288 
Q 3706 609 3251 259 
Q 2797 -91 1919 -91 
Q 1588 -91 1214 -16 
Q 841 59 441 206 
L 441 856 
Q 825 641 1194 531 
Q 1563 422 1919 422 
Q 2459 422 2753 634 
Q 3047 847 3047 1241 
Q 3047 1584 2836 1778 
Q 2625 1972 2144 2069 
L 1759 2144 
Q 1053 2284 737 2584 
Q 422 2884 422 3419 
Q 422 4038 858 4394 
Q 1294 4750 2059 4750 
Q 2388 4750 2728 4690 
Q 3069 4631 3425 4513 
z
" transform="scale(0.015625)"/>
      <path id="DejaVuSans-4d" d="M 628 4666 
L 1569 4666 
L 2759 1491 
L 3956 4666 
L 4897 4666 
L 4897 0 
L 4281 0 
L 4281 4097 
L 3078 897 
L 2444 897 
L 1241 4097 
L 1241 0 
L 628 0 
L 628 4666 
z
" transform="scale(0.015625)"/>
      <path id="DejaVuSans-43" d="M 4122 4306 
L 4122 3641 
Q 3803 3938 3442 4084 
Q 3081 4231 2675 4231 
Q 1875 4231 1450 3742 
Q 1025 3253 1025 2328 
Q 1025 1406 1450 917 
Q 1875 428 2675 428 
Q 3081 428 3442 575 
Q 3803 722 4122 1019 
L 4122 359 
Q 3791 134 3420 21 
Q 3050 -91 2638 -91 
Q 1578 -91 968 557 
Q 359 1206 359 2328 
Q 359 3453 968 4101 
Q 1578 4750 2638 4750 
Q 3056 4750 3426 4639 
Q 3797 4528 4122 4306 
z
" transform="scale(0.015625)"/>
      <path id="DejaVuSans-47" d="M 3809 666 
L 3809 1919 
L 2778 1919 
L 2778 2438 
L 4434 2438 
L 4434 434 
Q 4069 175 3628 42 
Q 3188 -91 2688 -91 
Q 1594 -91 976 548 
Q 359 1188 359 2328 
Q 359 3472 976 4111 
Q 1594 4750 2688 4750 
Q 3144 4750 3555 4637 
Q 3966 4525 4313 4306 
L 4313 3634 
Q 3963 3931 3569 4081 
Q 3175 4231 2741 4231 
Q 1884 4231 1454 3753 
Q 1025 3275 1025 2328 
Q 1025 1384 1454 906 
Q 1884 428 2741 428 
Q 3075 428 3337 486 
Q 3600 544 3809 666 
z
" transform="scale(0.015625)"/>
      <path id="DejaVuSans-54" d="M -19 4666 
L 3928 4666 
L 3928 4134 
L 2272 4134 
L 2272 0 
L 1638 0 
L 1638 4134 
L -19 4134 
L -19 4666 
z
" transform="scale(0.015625)"/>
      <path id="DejaVuSans-50" d="M 1259 4147 
L 1259 2394 
L 2053 2394 
Q 2494 2394 2734 2622 
Q 2975 2850 2975 3272 
Q 2975 3691 2734 3919 
Q 2494 4147 2053 4147 
L 1259 4147 
z
M 628 4666 
L 2053 4666 
Q 2838 4666 3239 4311 
Q 3641 3956 3641 3272 
Q 3641 2581 3239 2228 
Q 2838 1875 2053 1875 
L 1259 1875 
L 1259 0 
L 628 0 
L 628 4666 
z
" transform="scale(0.015625)"/>
      <path id="DejaVuSans-34" d="M 2419 4116 
L 825 1625 
L 2419 1625 
L 2419 4116 
z
M 2253 4666 
L 3047 4666 
L 3047 1625 
L 3713 1625 
L 3713 1100 
L 3047 1100 
L 3047 0 
L 2419 0 
L 2419 1100 
L 313 1100 
L 313 1709 
L 2253 4666 
z
" transform="scale(0.015625)"/>
     </defs>
     <use xlink:href="#DejaVuSans-4e"/>
     <use xlink:href="#DejaVuSans-65" x="74.804688"/>
     <use xlink:href="#DejaVuSans-31" x="136.328125"/>
     <use xlink:href="#DejaVuSans-4e" x="199.951172"/>
     <use xlink:href="#DejaVuSans-65" x="274.755859"/>
     <use xlink:href="#DejaVuSans-32" x="336.279297"/>
     <use xlink:href="#DejaVuSans-2d" x="399.902344"/>
     <use xlink:href="#DejaVuSans-53" x="435.986328"/>
     <use xlink:href="#DejaVuSans-4d" x="499.462891"/>
     <use xlink:href="#DejaVuSans-43" x="585.742188"/>
     <use xlink:href="#DejaVuSans-2d" x="655.566406"/>
     <use xlink:href="#DejaVuSans-47" x="695.275391"/>
     <use xlink:href="#DejaVuSans-54" x="769.140625"/>
     <use xlink:href="#DejaVuSans-2d" x="821.099609"/>
     <use xlink:href="#DejaVuSans-50" x="857.183594"/>
     <use xlink:href="#DejaVuSans-32" x="917.486328"/>
     <use xlink:href="#DejaVuSans-2d" x="981.109375"/>
     <use xlink:href="#DejaVuSans-53" x="1017.193359"/>
     <use xlink:href="#DejaVuSans-34" x="1080.669922"/>
    </g>
   </g>
  </g>
  <g id="axes_2">
   <g id="patch_7">
    <path d="M 225.72 192.24 
L 234.036 192.24 
L 234.036 25.92 
L 225.72 25.92 
z
" style="fill: #ffffff"/>
   </g>
   <g id="QuadMesh_1">
    <path d="M 225.72 192.24 
L 234.036 192.24 
L 234.036 185.843077 
L 225.72 185.843077 
L 225.72 192.24 
" clip-path="url(#pa79ec53833)" style="fill: #440154"/>
    <path d="M 225.72 185.843077 
L 234.036 185.843077 
L 234.036 179.446154 
L 225.72 179.446154 
L 225.72 185.843077 
" clip-path="url(#pa79ec53833)" style="fill: #440154"/>
    <path d="M 225.72 179.446154 
L 234.036 179.446154 
L 234.036 173.049231 
L 225.72 173.049231 
L 225.72 179.446154 
" clip-path="url(#pa79ec53833)" style="fill: #440154"/>
    <path d="M 225.72 173.049231 
L 234.036 173.049231 
L 234.036 166.652308 
L 225.72 166.652308 
L 225.72 173.049231 
" clip-path="url(#pa79ec53833)" style="fill: #440154"/>
    <path d="M 225.72 166.652308 
L 234.036 166.652308 
L 234.036 160.255385 
L 225.72 160.255385 
L 225.72 166.652308 
" clip-path="url(#pa79ec53833)" style="fill: #440154"/>
    <path d="M 225.72 160.255385 
L 234.036 160.255385 
L 234.036 153.858462 
L 225.72 153.858462 
L 225.72 160.255385 
" clip-path="url(#pa79ec53833)" style="fill: #440154"/>
    <path d="M 225.72 153.858462 
L 234.036 153.858462 
L 234.036 147.461538 
L 225.72 147.461538 
L 225.72 153.858462 
" clip-path="url(#pa79ec53833)" style="fill: #440154"/>
    <path d="M 225.72 147.461538 
L 234.036 147.461538 
L 234.036 141.064615 
L 225.72 141.064615 
L 225.72 147.461538 
" clip-path="url(#pa79ec53833)" style="fill: #440154"/>
    <path d="M 225.72 141.064615 
L 234.036 141.064615 
L 234.036 134.667692 
L 225.72 134.667692 
L 225.72 141.064615 
" clip-path="url(#pa79ec53833)" style="fill: #440154"/>
    <path d="M 225.72 134.667692 
L 234.036 134.667692 
L 234.036 128.270769 
L 225.72 128.270769 
L 225.72 134.667692 
" clip-path="url(#pa79ec53833)" style="fill: #440154"/>
    <path d="M 225.72 128.270769 
L 234.036 128.270769 
L 234.036 121.873846 
L 225.72 121.873846 
L 225.72 128.270769 
" clip-path="url(#pa79ec53833)" style="fill: #440154"/>
    <path d="M 225.72 121.873846 
L 234.036 121.873846 
L 234.036 115.476923 
L 225.72 115.476923 
L 225.72 121.873846 
" clip-path="url(#pa79ec53833)" style="fill: #440154"/>
    <path d="M 225.72 115.476923 
L 234.036 115.476923 
L 234.036 109.08 
L 225.72 109.08 
L 225.72 115.476923 
" clip-path="url(#pa79ec53833)" style="fill: #440154"/>
    <path d="M 225.72 109.08 
L 234.036 109.08 
L 234.036 102.683077 
L 225.72 102.683077 
L 225.72 109.08 
" clip-path="url(#pa79ec53833)" style="fill: #470d60"/>
    <path d="M 225.72 102.683077 
L 234.036 102.683077 
L 234.036 96.286154 
L 225.72 96.286154 
L 225.72 102.683077 
" clip-path="url(#pa79ec53833)" style="fill: #482878"/>
    <path d="M 225.72 96.286154 
L 234.036 96.286154 
L 234.036 89.889231 
L 225.72 89.889231 
L 225.72 96.286154 
" clip-path="url(#pa79ec53833)" style="fill: #424086"/>
    <path d="M 225.72 89.889231 
L 234.036 89.889231 
L 234.036 83.492308 
L 225.72 83.492308 
L 225.72 89.889231 
" clip-path="url(#pa79ec53833)" style="fill: #39568c"/>
    <path d="M 225.72 83.492308 
L 234.036 83.492308 
L 234.036 77.095385 
L 225.72 77.095385 
L 225.72 83.492308 
" clip-path="url(#pa79ec53833)" style="fill: #2f6b8e"/>
    <path d="M 225.72 77.095385 
L 234.036 77.095385 
L 234.036 70.698462 
L 225.72 70.698462 
L 225.72 77.095385 
" clip-path="url(#pa79ec53833)" style="fill: #287d8e"/>
    <path d="M 225.72 70.698462 
L 234.036 70.698462 
L 234.036 64.301538 
L 225.72 64.301538 
L 225.72 70.698462 
" clip-path="url(#pa79ec53833)" style="fill: #21908d"/>
    <path d="M 225.72 64.301538 
L 234.036 64.301538 
L 234.036 57.904615 
L 225.72 57.904615 
L 225.72 64.301538 
" clip-path="url(#pa79ec53833)" style="fill: #1fa287"/>
    <path d="M 225.72 57.904615 
L 234.036 57.904615 
L 234.036 51.507692 
L 225.72 51.507692 
L 225.72 57.904615 
" clip-path="url(#pa79ec53833)" style="fill: #31b57b"/>
    <path d="M 225.72 51.507692 
L 234.036 51.507692 
L 234.036 45.110769 
L 225.72 45.110769 
L 225.72 51.507692 
" clip-path="url(#pa79ec53833)" style="fill: #52c569"/>
    <path d="M 225.72 45.110769 
L 234.036 45.110769 
L 234.036 38.713846 
L 225.72 38.713846 
L 225.72 45.110769 
" clip-path="url(#pa79ec53833)" style="fill: #7fd34e"/>
    <path d="M 225.72 38.713846 
L 234.036 38.713846 
L 234.036 32.316923 
L 225.72 32.316923 
L 225.72 38.713846 
" clip-path="url(#pa79ec53833)" style="fill: #b2dd2d"/>
    <path d="M 225.72 32.316923 
L 234.036 32.316923 
L 234.036 25.92 
L 225.72 25.92 
L 225.72 32.316923 
" clip-path="url(#pa79ec53833)" style="fill: #e7e419"/>
   </g>
   <g id="matplotlib.axis_3"/>
   <g id="matplotlib.axis_4">
    <g id="ytick_4">
     <g id="line2d_7">
      <defs>
       <path id="m7bc1b20a0e" d="M 0 0 
L 3.5 0 
" style="stroke: #000000; stroke-width: 0.8"/>
      </defs>
      <g>
       <use xlink:href="#m7bc1b20a0e" x="234.036" y="179.446154" style="stroke: #000000; stroke-width: 0.8"/>
      </g>
     </g>
     <g id="text_12">
      <!-- $\mathdefault{337.10}$ -->
      <g transform="translate(241.036 183.245373) scale(0.1 -0.1)">
       <defs>
        <path id="DejaVuSans-2212" d="M 678 2272 
L 4684 2272 
L 4684 1741 
L 678 1741 
L 678 2272 
z
" transform="scale(0.015625)"/>
        <path id="DejaVuSans-2e" d="M 684 794 
L 1344 794 
L 1344 0 
L 684 0 
L 684 794 
z
" transform="scale(0.015625)"/>
       </defs>
       <use xlink:href="#DejaVuSans-2212" transform="translate(0 0.78125)"/>
       <use xlink:href="#DejaVuSans-33" transform="translate(83.789062 0.78125)"/>
       <use xlink:href="#DejaVuSans-33" transform="translate(147.412109 0.78125)"/>
       <use xlink:href="#DejaVuSans-37" transform="translate(211.035156 0.78125)"/>
       <use xlink:href="#DejaVuSans-2e" transform="translate(274.658203 0.78125)"/>
       <use xlink:href="#DejaVuSans-31" transform="translate(306.445312 0.78125)"/>
       <use xlink:href="#DejaVuSans-30" transform="translate(370.068359 0.78125)"/>
      </g>
     </g>
    </g>
    <g id="ytick_5">
     <g id="line2d_8">
      <g>
       <use xlink:href="#m7bc1b20a0e" x="234.036" y="160.255385" style="stroke: #000000; stroke-width: 0.8"/>
      </g>
     </g>
     <g id="text_13">
      <!-- $\mathdefault{337.04}$ -->
      <g transform="translate(241.036 164.054603) scale(0.1 -0.1)">
       <use xlink:href="#DejaVuSans-2212" transform="translate(0 0.78125)"/>
       <use xlink:href="#DejaVuSans-33" transform="translate(83.789062 0.78125)"/>
       <use xlink:href="#DejaVuSans-33" transform="translate(147.412109 0.78125)"/>
       <use xlink:href="#DejaVuSans-37" transform="translate(211.035156 0.78125)"/>
       <use xlink:href="#DejaVuSans-2e" transform="translate(274.658203 0.78125)"/>
       <use xlink:href="#DejaVuSans-30" transform="translate(306.445312 0.78125)"/>
       <use xlink:href="#DejaVuSans-34" transform="translate(370.068359 0.78125)"/>
      </g>
     </g>
    </g>
    <g id="ytick_6">
     <g id="line2d_9">
      <g>
       <use xlink:href="#m7bc1b20a0e" x="234.036" y="141.064615" style="stroke: #000000; stroke-width: 0.8"/>
      </g>
     </g>
     <g id="text_14">
      <!-- $\mathdefault{336.98}$ -->
      <g transform="translate(241.036 144.863834) scale(0.1 -0.1)">
       <defs>
        <path id="DejaVuSans-36" d="M 2113 2584 
Q 1688 2584 1439 2293 
Q 1191 2003 1191 1497 
Q 1191 994 1439 701 
Q 1688 409 2113 409 
Q 2538 409 2786 701 
Q 3034 994 3034 1497 
Q 3034 2003 2786 2293 
Q 2538 2584 2113 2584 
z
M 3366 4563 
L 3366 3988 
Q 3128 4100 2886 4159 
Q 2644 4219 2406 4219 
Q 1781 4219 1451 3797 
Q 1122 3375 1075 2522 
Q 1259 2794 1537 2939 
Q 1816 3084 2150 3084 
Q 2853 3084 3261 2657 
Q 3669 2231 3669 1497 
Q 3669 778 3244 343 
Q 2819 -91 2113 -91 
Q 1303 -91 875 529 
Q 447 1150 447 2328 
Q 447 3434 972 4092 
Q 1497 4750 2381 4750 
Q 2619 4750 2861 4703 
Q 3103 4656 3366 4563 
z
" transform="scale(0.015625)"/>
        <path id="DejaVuSans-39" d="M 703 97 
L 703 672 
Q 941 559 1184 500 
Q 1428 441 1663 441 
Q 2288 441 2617 861 
Q 2947 1281 2994 2138 
Q 2813 1869 2534 1725 
Q 2256 1581 1919 1581 
Q 1219 1581 811 2004 
Q 403 2428 403 3163 
Q 403 3881 828 4315 
Q 1253 4750 1959 4750 
Q 2769 4750 3195 4129 
Q 3622 3509 3622 2328 
Q 3622 1225 3098 567 
Q 2575 -91 1691 -91 
Q 1453 -91 1209 -44 
Q 966 3 703 97 
z
M 1959 2075 
Q 2384 2075 2632 2365 
Q 2881 2656 2881 3163 
Q 2881 3666 2632 3958 
Q 2384 4250 1959 4250 
Q 1534 4250 1286 3958 
Q 1038 3666 1038 3163 
Q 1038 2656 1286 2365 
Q 1534 2075 1959 2075 
z
" transform="scale(0.015625)"/>
        <path id="DejaVuSans-38" d="M 2034 2216 
Q 1584 2216 1326 1975 
Q 1069 1734 1069 1313 
Q 1069 891 1326 650 
Q 1584 409 2034 409 
Q 2484 409 2743 651 
Q 3003 894 3003 1313 
Q 3003 1734 2745 1975 
Q 2488 2216 2034 2216 
z
M 1403 2484 
Q 997 2584 770 2862 
Q 544 3141 544 3541 
Q 544 4100 942 4425 
Q 1341 4750 2034 4750 
Q 2731 4750 3128 4425 
Q 3525 4100 3525 3541 
Q 3525 3141 3298 2862 
Q 3072 2584 2669 2484 
Q 3125 2378 3379 2068 
Q 3634 1759 3634 1313 
Q 3634 634 3220 271 
Q 2806 -91 2034 -91 
Q 1263 -91 848 271 
Q 434 634 434 1313 
Q 434 1759 690 2068 
Q 947 2378 1403 2484 
z
M 1172 3481 
Q 1172 3119 1398 2916 
Q 1625 2713 2034 2713 
Q 2441 2713 2670 2916 
Q 2900 3119 2900 3481 
Q 2900 3844 2670 4047 
Q 2441 4250 2034 4250 
Q 1625 4250 1398 4047 
Q 1172 3844 1172 3481 
z
" transform="scale(0.015625)"/>
       </defs>
       <use xlink:href="#DejaVuSans-2212" transform="translate(0 0.78125)"/>
       <use xlink:href="#DejaVuSans-33" transform="translate(83.789062 0.78125)"/>
       <use xlink:href="#DejaVuSans-33" transform="translate(147.412109 0.78125)"/>
       <use xlink:href="#DejaVuSans-36" transform="translate(211.035156 0.78125)"/>
       <use xlink:href="#DejaVuSans-2e" transform="translate(274.658203 0.78125)"/>
       <use xlink:href="#DejaVuSans-39" transform="translate(306.445312 0.78125)"/>
       <use xlink:href="#DejaVuSans-38" transform="translate(370.068359 0.78125)"/>
      </g>
     </g>
    </g>
    <g id="ytick_7">
     <g id="line2d_10">
      <g>
       <use xlink:href="#m7bc1b20a0e" x="234.036" y="121.873846" style="stroke: #000000; stroke-width: 0.8"/>
      </g>
     </g>
     <g id="text_15">
      <!-- $\mathdefault{336.92}$ -->
      <g transform="translate(241.036 125.673065) scale(0.1 -0.1)">
       <use xlink:href="#DejaVuSans-2212" transform="translate(0 0.78125)"/>
       <use xlink:href="#DejaVuSans-33" transform="translate(83.789062 0.78125)"/>
       <use xlink:href="#DejaVuSans-33" transform="translate(147.412109 0.78125)"/>
       <use xlink:href="#DejaVuSans-36" transform="translate(211.035156 0.78125)"/>
       <use xlink:href="#DejaVuSans-2e" transform="translate(274.658203 0.78125)"/>
       <use xlink:href="#DejaVuSans-39" transform="translate(306.445312 0.78125)"/>
       <use xlink:href="#DejaVuSans-32" transform="translate(368.318359 0.78125)"/>
      </g>
     </g>
    </g>
    <g id="ytick_8">
     <g id="line2d_11">
      <g>
       <use xlink:href="#m7bc1b20a0e" x="234.036" y="102.683077" style="stroke: #000000; stroke-width: 0.8"/>
      </g>
     </g>
     <g id="text_16">
      <!-- $\mathdefault{336.86}$ -->
      <g transform="translate(241.036 106.482296) scale(0.1 -0.1)">
       <use xlink:href="#DejaVuSans-2212" transform="translate(0 0.78125)"/>
       <use xlink:href="#DejaVuSans-33" transform="translate(83.789062 0.78125)"/>
       <use xlink:href="#DejaVuSans-33" transform="translate(147.412109 0.78125)"/>
       <use xlink:href="#DejaVuSans-36" transform="translate(211.035156 0.78125)"/>
       <use xlink:href="#DejaVuSans-2e" transform="translate(274.658203 0.78125)"/>
       <use xlink:href="#DejaVuSans-38" transform="translate(303.820312 0.78125)"/>
       <use xlink:href="#DejaVuSans-36" transform="translate(367.443359 0.78125)"/>
      </g>
     </g>
    </g>
    <g id="ytick_9">
     <g id="line2d_12">
      <g>
       <use xlink:href="#m7bc1b20a0e" x="234.036" y="83.492308" style="stroke: #000000; stroke-width: 0.8"/>
      </g>
     </g>
     <g id="text_17">
      <!-- $\mathdefault{336.80}$ -->
      <g transform="translate(241.036 87.291526) scale(0.1 -0.1)">
       <use xlink:href="#DejaVuSans-2212" transform="translate(0 0.78125)"/>
       <use xlink:href="#DejaVuSans-33" transform="translate(83.789062 0.78125)"/>
       <use xlink:href="#DejaVuSans-33" transform="translate(147.412109 0.78125)"/>
       <use xlink:href="#DejaVuSans-36" transform="translate(211.035156 0.78125)"/>
       <use xlink:href="#DejaVuSans-2e" transform="translate(274.658203 0.78125)"/>
       <use xlink:href="#DejaVuSans-38" transform="translate(303.820312 0.78125)"/>
       <use xlink:href="#DejaVuSans-30" transform="translate(367.443359 0.78125)"/>
      </g>
     </g>
    </g>
    <g id="ytick_10">
     <g id="line2d_13">
      <g>
       <use xlink:href="#m7bc1b20a0e" x="234.036" y="64.301538" style="stroke: #000000; stroke-width: 0.8"/>
      </g>
     </g>
     <g id="text_18">
      <!-- $\mathdefault{336.74}$ -->
      <g transform="translate(241.036 68.100757) scale(0.1 -0.1)">
       <use xlink:href="#DejaVuSans-2212" transform="translate(0 0.78125)"/>
       <use xlink:href="#DejaVuSans-33" transform="translate(83.789062 0.78125)"/>
       <use xlink:href="#DejaVuSans-33" transform="translate(147.412109 0.78125)"/>
       <use xlink:href="#DejaVuSans-36" transform="translate(211.035156 0.78125)"/>
       <use xlink:href="#DejaVuSans-2e" transform="translate(274.658203 0.78125)"/>
       <use xlink:href="#DejaVuSans-37" transform="translate(298.695312 0.78125)"/>
       <use xlink:href="#DejaVuSans-34" transform="translate(362.318359 0.78125)"/>
      </g>
     </g>
    </g>
    <g id="ytick_11">
     <g id="line2d_14">
      <g>
       <use xlink:href="#m7bc1b20a0e" x="234.036" y="45.110769" style="stroke: #000000; stroke-width: 0.8"/>
      </g>
     </g>
     <g id="text_19">
      <!-- $\mathdefault{336.68}$ -->
      <g transform="translate(241.036 48.909988) scale(0.1 -0.1)">
       <use xlink:href="#DejaVuSans-2212" transform="translate(0 0.78125)"/>
       <use xlink:href="#DejaVuSans-33" transform="translate(83.789062 0.78125)"/>
       <use xlink:href="#DejaVuSans-33" transform="translate(147.412109 0.78125)"/>
       <use xlink:href="#DejaVuSans-36" transform="translate(211.035156 0.78125)"/>
       <use xlink:href="#DejaVuSans-2e" transform="translate(274.658203 0.78125)"/>
       <use xlink:href="#DejaVuSans-36" transform="translate(306.445312 0.78125)"/>
       <use xlink:href="#DejaVuSans-38" transform="translate(370.068359 0.78125)"/>
      </g>
     </g>
    </g>
    <g id="ytick_12">
     <g id="line2d_15">
      <g>
       <use xlink:href="#m7bc1b20a0e" x="234.036" y="25.92" style="stroke: #000000; stroke-width: 0.8"/>
      </g>
     </g>
     <g id="text_20">
      <!-- $\mathdefault{336.62}$ -->
      <g transform="translate(241.036 29.719219) scale(0.1 -0.1)">
       <use xlink:href="#DejaVuSans-2212" transform="translate(0 0.78125)"/>
       <use xlink:href="#DejaVuSans-33" transform="translate(83.789062 0.78125)"/>
       <use xlink:href="#DejaVuSans-33" transform="translate(147.412109 0.78125)"/>
       <use xlink:href="#DejaVuSans-36" transform="translate(211.035156 0.78125)"/>
       <use xlink:href="#DejaVuSans-2e" transform="translate(274.658203 0.78125)"/>
       <use xlink:href="#DejaVuSans-36" transform="translate(306.445312 0.78125)"/>
       <use xlink:href="#DejaVuSans-32" transform="translate(370.068359 0.78125)"/>
      </g>
     </g>
    </g>
    <g id="text_21">
     <!-- log likelihood -->
     <g transform="translate(297.554125 148.704375) rotate(-90) scale(0.12 -0.12)">
      <defs>
       <path id="DejaVuSans-67" d="M 2906 1791 
Q 2906 2416 2648 2759 
Q 2391 3103 1925 3103 
Q 1463 3103 1205 2759 
Q 947 2416 947 1791 
Q 947 1169 1205 825 
Q 1463 481 1925 481 
Q 2391 481 2648 825 
Q 2906 1169 2906 1791 
z
M 3481 434 
Q 3481 -459 3084 -895 
Q 2688 -1331 1869 -1331 
Q 1566 -1331 1297 -1286 
Q 1028 -1241 775 -1147 
L 775 -588 
Q 1028 -725 1275 -790 
Q 1522 -856 1778 -856 
Q 2344 -856 2625 -561 
Q 2906 -266 2906 331 
L 2906 616 
Q 2728 306 2450 153 
Q 2172 0 1784 0 
Q 1141 0 747 490 
Q 353 981 353 1791 
Q 353 2603 747 3093 
Q 1141 3584 1784 3584 
Q 2172 3584 2450 3431 
Q 2728 3278 2906 2969 
L 2906 3500 
L 3481 3500 
L 3481 434 
z
" transform="scale(0.015625)"/>
       <path id="DejaVuSans-6b" d="M 581 4863 
L 1159 4863 
L 1159 1991 
L 2875 3500 
L 3609 3500 
L 1753 1863 
L 3688 0 
L 2938 0 
L 1159 1709 
L 1159 0 
L 581 0 
L 581 4863 
z
" transform="scale(0.015625)"/>
       <path id="DejaVuSans-68" d="M 3513 2113 
L 3513 0 
L 2938 0 
L 2938 2094 
Q 2938 2591 2744 2837 
Q 2550 3084 2163 3084 
Q 1697 3084 1428 2787 
Q 1159 2491 1159 1978 
L 1159 0 
L 581 0 
L 581 4863 
L 1159 4863 
L 1159 2956 
Q 1366 3272 1645 3428 
Q 1925 3584 2291 3584 
Q 2894 3584 3203 3211 
Q 3513 2838 3513 2113 
z
" transform="scale(0.015625)"/>
      </defs>
      <use xlink:href="#DejaVuSans-6c"/>
      <use xlink:href="#DejaVuSans-6f" x="27.783203"/>
      <use xlink:href="#DejaVuSans-67" x="88.964844"/>
      <use xlink:href="#DejaVuSans-20" x="152.441406"/>
      <use xlink:href="#DejaVuSans-6c" x="184.228516"/>
      <use xlink:href="#DejaVuSans-69" x="212.011719"/>
      <use xlink:href="#DejaVuSans-6b" x="239.794922"/>
      <use xlink:href="#DejaVuSans-65" x="294.080078"/>
      <use xlink:href="#DejaVuSans-6c" x="355.603516"/>
      <use xlink:href="#DejaVuSans-69" x="383.386719"/>
      <use xlink:href="#DejaVuSans-68" x="411.169922"/>
      <use xlink:href="#DejaVuSans-6f" x="474.548828"/>
      <use xlink:href="#DejaVuSans-6f" x="535.730469"/>
      <use xlink:href="#DejaVuSans-64" x="596.912109"/>
     </g>
    </g>
    <g id="text_22">
     <!-- $\times\mathdefault{10^{3}}\mathdefault{}$ -->
     <g transform="translate(208.036 22.92) scale(0.1 -0.1)">
      <use xlink:href="#DejaVuSans-d7" transform="translate(0 0.765625)"/>
      <use xlink:href="#DejaVuSans-31" transform="translate(83.789062 0.765625)"/>
      <use xlink:href="#DejaVuSans-30" transform="translate(147.412109 0.765625)"/>
      <use xlink:href="#DejaVuSans-33" transform="translate(211.992188 39.046875) scale(0.7)"/>
     </g>
    </g>
   </g>
   <g id="LineCollection_1"/>
   <g id="patch_8">
    <path d="M 225.72 192.24 
L 229.878 192.24 
L 234.036 192.24 
L 234.036 25.92 
L 229.878 25.92 
L 225.72 25.92 
L 225.72 192.24 
z
" style="fill: none; stroke: #000000; stroke-width: 0.8; stroke-linejoin: miter; stroke-linecap: square"/>
   </g>
  </g>
 </g>
 <defs>
  <clipPath id="pc1fc1919da">
   <rect x="36" y="25.92" width="178.56" height="166.32"/>
  </clipPath>
  <clipPath id="pa79ec53833">
   <rect x="225.72" y="25.92" width="8.316" height="166.32"/>
  </clipPath>
 </defs>
</svg>
