<?xml version="1.0" encoding="utf-8" standalone="no"?>
<!DOCTYPE svg PUBLIC "-//W3C//DTD SVG 1.1//EN"
  "http://www.w3.org/Graphics/SVG/1.1/DTD/svg11.dtd">
<svg xmlns:xlink="http://www.w3.org/1999/xlink" width="288pt" height="216pt" viewBox="0 0 288 216" xmlns="http://www.w3.org/2000/svg" version="1.1">
 <metadata>
  <rdf:RDF xmlns:dc="http://purl.org/dc/elements/1.1/" xmlns:cc="http://creativecommons.org/ns#" xmlns:rdf="http://www.w3.org/1999/02/22-rdf-syntax-ns#">
   <cc:Work>
    <dc:type rdf:resource="http://purl.org/dc/dcmitype/StillImage"/>
    <dc:date>2023-07-18T18:02:26.401244</dc:date>
    <dc:format>image/svg+xml</dc:format>
    <dc:creator>
     <cc:Agent>
      <dc:title>Matplotlib v3.7.1, https://matplotlib.org/</dc:title>
     </cc:Agent>
    </dc:creator>
   </cc:Work>
  </rdf:RDF>
 </metadata>
 <defs>
  <style type="text/css">*{stroke-linejoin: round; stroke-linecap: butt}</style>
 </defs>
 <g id="figure_1">
  <g id="patch_1">
   <path d="M 0 216 
L 288 216 
L 288 0 
L 0 0 
z
" style="fill: #ffffff"/>
  </g>
  <g id="axes_1">
   <g id="patch_2">
    <path d="M 36 192.24 
L 214.56 192.24 
L 214.56 25.92 
L 36 25.92 
z
" style="fill: #ffffff"/>
   </g>
   <g id="PathCollection_1">
    <path d="M 36 186.696 
L 36 181.152 
L 36 175.608 
L 36 170.064 
L 36 167.778279 
L 36.006497 170.064 
L 36.024408 175.608 
L 36.044719 181.152 
L 36.067719 186.696 
L 36.093757 192.24 
L 36 192.24 
z
" clip-path="url(#pbc9bc43988)" style="fill: #440154"/>
   </g>
   <g id="PathCollection_2">
    <path d="M 36.067719 186.696 
L 36.044719 181.152 
L 36.024408 175.608 
L 36.006497 170.064 
L 36 167.778279 
L 36 164.52 
L 36 158.976 
L 36 153.432 
L 36 147.888 
L 36 142.344 
L 36 136.8 
L 36 131.256 
L 36 125.712 
L 36 120.168 
L 36 114.624 
L 36 109.08 
L 36 103.536 
L 36 97.992 
L 36 92.448 
L 36 86.904 
L 36 81.36 
L 36 75.816 
L 36 70.272 
L 36 64.728 
L 36 59.184 
L 36 53.64 
L 36 48.096 
L 36 42.552 
L 36 37.008 
L 36 31.464 
L 36 25.92 
L 36.383298 25.92 
L 36.37666 31.464 
L 36.370424 37.008 
L 36.364609 42.552 
L 36.359235 48.096 
L 36.354323 53.64 
L 36.349898 59.184 
L 36.345984 64.728 
L 36.342608 70.272 
L 36.339801 75.816 
L 36.337593 81.36 
L 36.33602 86.904 
L 36.335119 92.448 
L 36.334932 97.992 
L 36.335503 103.536 
L 36.336884 109.08 
L 36.339128 114.624 
L 36.342295 120.168 
L 36.346454 125.712 
L 36.351679 131.256 
L 36.358053 136.8 
L 36.365671 142.344 
L 36.374637 147.888 
L 36.385072 153.432 
L 36.397113 158.976 
L 36.410915 164.52 
L 36.426661 170.064 
L 36.444559 175.608 
L 36.464856 181.152 
L 36.487843 186.696 
L 36.513868 192.24 
L 36.093757 192.24 
z
" clip-path="url(#pbc9bc43988)" style="fill: #440154"/>
   </g>
   <g id="PathCollection_3">
    <path d="M 36.487843 186.696 
L 36.464856 181.152 
L 36.444559 175.608 
L 36.426661 170.064 
L 36.410915 164.52 
L 36.397113 158.976 
L 36.385072 153.432 
L 36.374637 147.888 
L 36.365671 142.344 
L 36.358053 136.8 
L 36.351679 131.256 
L 36.346454 125.712 
L 36.342295 120.168 
L 36.339128 114.624 
L 36.336884 109.08 
L 36.335503 103.536 
L 36.334932 97.992 
L 36.335119 92.448 
L 36.33602 86.904 
L 36.337593 81.36 
L 36.339801 75.816 
L 36.342608 70.272 
L 36.345984 64.728 
L 36.349898 59.184 
L 36.354323 53.64 
L 36.359235 48.096 
L 36.364609 42.552 
L 36.370424 37.008 
L 36.37666 31.464 
L 36.383298 25.92 
L 36.803806 25.92 
L 36.797155 31.464 
L 36.790906 37.008 
L 36.785078 42.552 
L 36.77969 48.096 
L 36.774766 53.64 
L 36.770327 59.184 
L 36.7664 64.728 
L 36.763011 70.272 
L 36.76019 75.816 
L 36.757969 81.36 
L 36.756382 86.904 
L 36.755468 92.448 
L 36.755268 97.992 
L 36.755826 103.536 
L 36.757193 109.08 
L 36.759424 114.624 
L 36.762579 120.168 
L 36.766724 125.712 
L 36.771936 131.256 
L 36.778297 136.8 
L 36.785901 142.344 
L 36.794854 147.888 
L 36.805276 153.432 
L 36.817303 158.976 
L 36.831092 164.52 
L 36.846825 170.064 
L 36.86471 175.608 
L 36.884993 181.152 
L 36.907967 186.696 
L 36.933979 192.24 
L 36.513868 192.24 
z
" clip-path="url(#pbc9bc43988)" style="fill: #440154"/>
   </g>
   <g id="PathCollection_4">
    <path d="M 36.907967 186.696 
L 36.884993 181.152 
L 36.86471 175.608 
L 36.846825 170.064 
L 36.831092 164.52 
L 36.817303 158.976 
L 36.805276 153.432 
L 36.794854 147.888 
L 36.785901 142.344 
L 36.778297 136.8 
L 36.771936 131.256 
L 36.766724 125.712 
L 36.762579 120.168 
L 36.759424 114.624 
L 36.757193 109.08 
L 36.755826 103.536 
L 36.755268 97.992 
L 36.755468 92.448 
L 36.756382 86.904 
L 36.757969 81.36 
L 36.76019 75.816 
L 36.763011 70.272 
L 36.7664 64.728 
L 36.770327 59.184 
L 36.774766 53.64 
L 36.77969 48.096 
L 36.785078 42.552 
L 36.790906 37.008 
L 36.797155 31.464 
L 36.803806 25.92 
L 37.224315 25.92 
L 37.217651 31.464 
L 37.211388 37.008 
L 37.205547 42.552 
L 37.200146 48.096 
L 37.195208 53.64 
L 37.190756 59.184 
L 37.186815 64.728 
L 37.183413 70.272 
L 37.180579 75.816 
L 37.178345 81.36 
L 37.176745 86.904 
L 37.175817 92.448 
L 37.175604 97.992 
L 37.176149 103.536 
L 37.177503 109.08 
L 37.17972 114.624 
L 37.182862 120.168 
L 37.186994 125.712 
L 37.192192 131.256 
L 37.19854 136.8 
L 37.206131 142.344 
L 37.215071 147.888 
L 37.225479 153.432 
L 37.237493 158.976 
L 37.251269 164.52 
L 37.266988 170.064 
L 37.28486 175.608 
L 37.305131 181.152 
L 37.328091 186.696 
L 37.354089 192.24 
L 36.933979 192.24 
z
" clip-path="url(#pbc9bc43988)" style="fill: #440154"/>
   </g>
   <g id="PathCollection_5">
    <path d="M 37.328091 186.696 
L 37.305131 181.152 
L 37.28486 175.608 
L 37.266988 170.064 
L 37.251269 164.52 
L 37.237493 158.976 
L 37.225479 153.432 
L 37.215071 147.888 
L 37.206131 142.344 
L 37.19854 136.8 
L 37.192192 131.256 
L 37.186994 125.712 
L 37.182862 120.168 
L 37.17972 114.624 
L 37.177503 109.08 
L 37.176149 103.536 
L 37.175604 97.992 
L 37.175817 92.448 
L 37.176745 86.904 
L 37.178345 81.36 
L 37.180579 75.816 
L 37.183413 70.272 
L 37.186815 64.728 
L 37.190756 59.184 
L 37.195208 53.64 
L 37.200146 48.096 
L 37.205547 42.552 
L 37.211388 37.008 
L 37.217651 31.464 
L 37.224315 25.92 
L 37.644824 25.92 
L 37.638146 31.464 
L 37.63187 37.008 
L 37.626015 42.552 
L 37.620602 48.096 
L 37.61565 53.64 
L 37.611185 59.184 
L 37.607231 64.728 
L 37.603816 70.272 
L 37.600968 75.816 
L 37.598721 81.36 
L 37.597108 86.904 
L 37.596167 92.448 
L 37.59594 97.992 
L 37.596472 103.536 
L 37.597813 109.08 
L 37.600017 114.624 
L 37.603145 120.168 
L 37.607264 125.712 
L 37.612449 131.256 
L 37.618783 136.8 
L 37.626361 142.344 
L 37.635288 147.888 
L 37.645683 153.432 
L 37.657684 158.976 
L 37.671446 164.52 
L 37.687152 170.064 
L 37.705011 175.608 
L 37.725268 181.152 
L 37.748215 186.696 
L 37.7742 192.24 
L 37.354089 192.24 
z
" clip-path="url(#pbc9bc43988)" style="fill: #440154"/>
   </g>
   <g id="PathCollection_6">
    <path d="M 37.748215 186.696 
L 37.725268 181.152 
L 37.705011 175.608 
L 37.687152 170.064 
L 37.671446 164.52 
L 37.657684 158.976 
L 37.645683 153.432 
L 37.635288 147.888 
L 37.626361 142.344 
L 37.618783 136.8 
L 37.612449 131.256 
L 37.607264 125.712 
L 37.603145 120.168 
L 37.600017 114.624 
L 37.597813 109.08 
L 37.596472 103.536 
L 37.59594 97.992 
L 37.596167 92.448 
L 37.597108 86.904 
L 37.598721 81.36 
L 37.600968 75.816 
L 37.603816 70.272 
L 37.607231 64.728 
L 37.611185 59.184 
L 37.61565 53.64 
L 37.620602 48.096 
L 37.626015 42.552 
L 37.63187 37.008 
L 37.638146 31.464 
L 37.644824 25.92 
L 38.065332 25.92 
L 38.058641 31.464 
L 38.052352 37.008 
L 38.046484 42.552 
L 38.041057 48.096 
L 38.036093 53.64 
L 38.031614 59.184 
L 38.027647 64.728 
L 38.024218 70.272 
L 38.021357 75.816 
L 38.019097 81.36 
L 38.01747 86.904 
L 38.016516 92.448 
L 38.016276 97.992 
L 38.016795 103.536 
L 38.018122 109.08 
L 38.020313 114.624 
L 38.023428 120.168 
L 38.027534 125.712 
L 38.032706 131.256 
L 38.039027 136.8 
L 38.046591 142.344 
L 38.055504 147.888 
L 38.065886 153.432 
L 38.077874 158.976 
L 38.091624 164.52 
L 38.107316 170.064 
L 38.125161 175.608 
L 38.145405 181.152 
L 38.16834 186.696 
L 38.194311 192.24 
L 37.7742 192.24 
z
" clip-path="url(#pbc9bc43988)" style="fill: #440154"/>
   </g>
   <g id="PathCollection_7">
    <path d="M 38.16834 186.696 
L 38.145405 181.152 
L 38.125161 175.608 
L 38.107316 170.064 
L 38.091624 164.52 
L 38.077874 158.976 
L 38.065886 153.432 
L 38.055504 147.888 
L 38.046591 142.344 
L 38.039027 136.8 
L 38.032706 131.256 
L 38.027534 125.712 
L 38.023428 120.168 
L 38.020313 114.624 
L 38.018122 109.08 
L 38.016795 103.536 
L 38.016276 97.992 
L 38.016516 92.448 
L 38.01747 86.904 
L 38.019097 81.36 
L 38.021357 75.816 
L 38.024218 70.272 
L 38.027647 64.728 
L 38.031614 59.184 
L 38.036093 53.64 
L 38.041057 48.096 
L 38.046484 42.552 
L 38.052352 37.008 
L 38.058641 31.464 
L 38.065332 25.92 
L 38.485841 25.92 
L 38.479137 31.464 
L 38.472835 37.008 
L 38.466953 42.552 
L 38.461513 48.096 
L 38.456535 53.64 
L 38.452043 59.184 
L 38.448063 64.728 
L 38.444621 70.272 
L 38.441747 75.816 
L 38.439473 81.36 
L 38.437833 86.904 
L 38.436866 92.448 
L 38.436612 97.992 
L 38.437118 103.536 
L 38.438432 109.08 
L 38.440609 114.624 
L 38.443711 120.168 
L 38.447804 125.712 
L 38.452962 131.256 
L 38.45927 136.8 
L 38.466821 142.344 
L 38.475721 147.888 
L 38.48609 153.432 
L 38.498064 158.976 
L 38.511801 164.52 
L 38.52748 170.064 
L 38.545312 175.608 
L 38.565543 181.152 
L 38.588464 186.696 
L 38.614422 192.24 
L 38.194311 192.24 
z
" clip-path="url(#pbc9bc43988)" style="fill: #440154"/>
   </g>
   <g id="PathCollection_8">
    <path d="M 38.588464 186.696 
L 38.565543 181.152 
L 38.545312 175.608 
L 38.52748 170.064 
L 38.511801 164.52 
L 38.498064 158.976 
L 38.48609 153.432 
L 38.475721 147.888 
L 38.466821 142.344 
L 38.45927 136.8 
L 38.452962 131.256 
L 38.447804 125.712 
L 38.443711 120.168 
L 38.440609 114.624 
L 38.438432 109.08 
L 38.437118 103.536 
L 38.436612 97.992 
L 38.436866 92.448 
L 38.437833 86.904 
L 38.439473 81.36 
L 38.441747 75.816 
L 38.444621 70.272 
L 38.448063 64.728 
L 38.452043 59.184 
L 38.456535 53.64 
L 38.461513 48.096 
L 38.466953 42.552 
L 38.472835 37.008 
L 38.479137 31.464 
L 38.485841 25.92 
L 38.90635 25.92 
L 38.899632 31.464 
L 38.893317 37.008 
L 38.887422 42.552 
L 38.881968 48.096 
L 38.876977 53.64 
L 38.872472 59.184 
L 38.868478 64.728 
L 38.865023 70.272 
L 38.862136 75.816 
L 38.859848 81.36 
L 38.858196 86.904 
L 38.857215 92.448 
L 38.856948 97.992 
L 38.857441 103.536 
L 38.858741 109.08 
L 38.860906 114.624 
L 38.863994 120.168 
L 38.868073 125.712 
L 38.873219 131.256 
L 38.879513 136.8 
L 38.887051 142.344 
L 38.895938 147.888 
L 38.906294 153.432 
L 38.918255 158.976 
L 38.931978 164.52 
L 38.947643 170.064 
L 38.965462 175.608 
L 38.98568 181.152 
L 39.008588 186.696 
L 39.034533 192.24 
L 38.614422 192.24 
z
" clip-path="url(#pbc9bc43988)" style="fill: #440154"/>
   </g>
   <g id="PathCollection_9">
    <path d="M 39.008588 186.696 
L 38.98568 181.152 
L 38.965462 175.608 
L 38.947643 170.064 
L 38.931978 164.52 
L 38.918255 158.976 
L 38.906294 153.432 
L 38.895938 147.888 
L 38.887051 142.344 
L 38.879513 136.8 
L 38.873219 131.256 
L 38.868073 125.712 
L 38.863994 120.168 
L 38.860906 114.624 
L 38.858741 109.08 
L 38.857441 103.536 
L 38.856948 97.992 
L 38.857215 92.448 
L 38.858196 86.904 
L 38.859848 81.36 
L 38.862136 75.816 
L 38.865023 70.272 
L 38.868478 64.728 
L 38.872472 59.184 
L 38.876977 53.64 
L 38.881968 48.096 
L 38.887422 42.552 
L 38.893317 37.008 
L 38.899632 31.464 
L 38.90635 25.92 
L 39.326858 25.92 
L 39.320128 31.464 
L 39.313799 37.008 
L 39.307891 42.552 
L 39.302424 48.096 
L 39.297419 53.64 
L 39.292901 59.184 
L 39.288894 64.728 
L 39.285426 70.272 
L 39.282525 75.816 
L 39.280224 81.36 
L 39.278558 86.904 
L 39.277564 92.448 
L 39.277284 97.992 
L 39.277763 103.536 
L 39.279051 109.08 
L 39.281202 114.624 
L 39.284277 120.168 
L 39.288343 125.712 
L 39.293475 131.256 
L 39.299757 136.8 
L 39.307281 142.344 
L 39.316155 147.888 
L 39.326497 153.432 
L 39.338445 158.976 
L 39.352155 164.52 
L 39.367807 170.064 
L 39.385613 175.608 
L 39.405817 181.152 
L 39.428712 186.696 
L 39.454643 192.24 
L 39.034533 192.24 
z
" clip-path="url(#pbc9bc43988)" style="fill: #440154"/>
   </g>
   <g id="PathCollection_10">
    <path d="M 39.428712 186.696 
L 39.405817 181.152 
L 39.385613 175.608 
L 39.367807 170.064 
L 39.352155 164.52 
L 39.338445 158.976 
L 39.326497 153.432 
L 39.316155 147.888 
L 39.307281 142.344 
L 39.299757 136.8 
L 39.293475 131.256 
L 39.288343 125.712 
L 39.284277 120.168 
L 39.281202 114.624 
L 39.279051 109.08 
L 39.277763 103.536 
L 39.277284 97.992 
L 39.277564 92.448 
L 39.278558 86.904 
L 39.280224 81.36 
L 39.282525 75.816 
L 39.285426 70.272 
L 39.288894 64.728 
L 39.292901 59.184 
L 39.297419 53.64 
L 39.302424 48.096 
L 39.307891 42.552 
L 39.313799 37.008 
L 39.320128 31.464 
L 39.326858 25.92 
L 39.747367 25.92 
L 39.740623 31.464 
L 39.734281 37.008 
L 39.72836 42.552 
L 39.722879 48.096 
L 39.717862 53.64 
L 39.71333 59.184 
L 39.70931 64.728 
L 39.705828 70.272 
L 39.702914 75.816 
L 39.7006 81.36 
L 39.698921 86.904 
L 39.697914 92.448 
L 39.697621 97.992 
L 39.698086 103.536 
L 39.699361 109.08 
L 39.701498 114.624 
L 39.70456 120.168 
L 39.708613 125.712 
L 39.713732 131.256 
L 39.72 136.8 
L 39.727511 142.344 
L 39.736372 147.888 
L 39.746701 153.432 
L 39.758635 158.976 
L 39.772332 164.52 
L 39.787971 170.064 
L 39.805763 175.608 
L 39.825954 181.152 
L 39.848836 186.696 
L 39.874754 192.24 
L 39.454643 192.24 
z
" clip-path="url(#pbc9bc43988)" style="fill: #440154"/>
   </g>
   <g id="PathCollection_11">
    <path d="M 39.848836 186.696 
L 39.825954 181.152 
L 39.805763 175.608 
L 39.787971 170.064 
L 39.772332 164.52 
L 39.758635 158.976 
L 39.746701 153.432 
L 39.736372 147.888 
L 39.727511 142.344 
L 39.72 136.8 
L 39.713732 131.256 
L 39.708613 125.712 
L 39.70456 120.168 
L 39.701498 114.624 
L 39.699361 109.08 
L 39.698086 103.536 
L 39.697621 97.992 
L 39.697914 92.448 
L 39.698921 86.904 
L 39.7006 81.36 
L 39.702914 75.816 
L 39.705828 70.272 
L 39.70931 64.728 
L 39.71333 59.184 
L 39.717862 53.64 
L 39.722879 48.096 
L 39.72836 42.552 
L 39.734281 37.008 
L 39.740623 31.464 
L 39.747367 25.92 
L 40.167876 25.92 
L 40.161118 31.464 
L 40.154763 37.008 
L 40.148828 42.552 
L 40.143335 48.096 
L 40.138304 53.64 
L 40.133759 59.184 
L 40.129726 64.728 
L 40.126231 70.272 
L 40.123303 75.816 
L 40.120976 81.36 
L 40.119284 86.904 
L 40.118263 92.448 
L 40.117957 97.992 
L 40.118409 103.536 
L 40.11967 109.08 
L 40.121795 114.624 
L 40.124843 120.168 
L 40.128883 125.712 
L 40.133988 131.256 
L 40.140243 136.8 
L 40.147741 142.344 
L 40.156588 147.888 
L 40.166904 153.432 
L 40.178825 158.976 
L 40.192509 164.52 
L 40.208135 170.064 
L 40.225914 175.608 
L 40.246092 181.152 
L 40.26896 186.696 
L 40.294865 192.24 
L 39.874754 192.24 
z
" clip-path="url(#pbc9bc43988)" style="fill: #440154"/>
   </g>
   <g id="PathCollection_12">
    <path d="M 40.26896 186.696 
L 40.246092 181.152 
L 40.225914 175.608 
L 40.208135 170.064 
L 40.192509 164.52 
L 40.178825 158.976 
L 40.166904 153.432 
L 40.156588 147.888 
L 40.147741 142.344 
L 40.140243 136.8 
L 40.133988 131.256 
L 40.128883 125.712 
L 40.124843 120.168 
L 40.121795 114.624 
L 40.11967 109.08 
L 40.118409 103.536 
L 40.117957 97.992 
L 40.118263 92.448 
L 40.119284 86.904 
L 40.120976 81.36 
L 40.123303 75.816 
L 40.126231 70.272 
L 40.129726 64.728 
L 40.133759 59.184 
L 40.138304 53.64 
L 40.143335 48.096 
L 40.148828 42.552 
L 40.154763 37.008 
L 40.161118 31.464 
L 40.167876 25.92 
L 40.588384 25.92 
L 40.581614 31.464 
L 40.575245 37.008 
L 40.569297 42.552 
L 40.56379 48.096 
L 40.558746 53.64 
L 40.554188 59.184 
L 40.550141 64.728 
L 40.546633 70.272 
L 40.543693 75.816 
L 40.541352 81.36 
L 40.539646 86.904 
L 40.538613 92.448 
L 40.538293 97.992 
L 40.538732 103.536 
L 40.53998 109.08 
L 40.542091 114.624 
L 40.545126 120.168 
L 40.549153 125.712 
L 40.554245 131.256 
L 40.560487 136.8 
L 40.567971 142.344 
L 40.576805 147.888 
L 40.587108 153.432 
L 40.599016 158.976 
L 40.612686 164.52 
L 40.628299 170.064 
L 40.646064 175.608 
L 40.666229 181.152 
L 40.689084 186.696 
L 40.714976 192.24 
L 40.294865 192.24 
z
" clip-path="url(#pbc9bc43988)" style="fill: #440154"/>
   </g>
   <g id="PathCollection_13">
    <path d="M 40.689084 186.696 
L 40.666229 181.152 
L 40.646064 175.608 
L 40.628299 170.064 
L 40.612686 164.52 
L 40.599016 158.976 
L 40.587108 153.432 
L 40.576805 147.888 
L 40.567971 142.344 
L 40.560487 136.8 
L 40.554245 131.256 
L 40.549153 125.712 
L 40.545126 120.168 
L 40.542091 114.624 
L 40.53998 109.08 
L 40.538732 103.536 
L 40.538293 97.992 
L 40.538613 92.448 
L 40.539646 86.904 
L 40.541352 81.36 
L 40.543693 75.816 
L 40.546633 70.272 
L 40.550141 64.728 
L 40.554188 59.184 
L 40.558746 53.64 
L 40.56379 48.096 
L 40.569297 42.552 
L 40.575245 37.008 
L 40.581614 31.464 
L 40.588384 25.92 
L 41.008893 25.92 
L 41.002109 31.464 
L 40.995727 37.008 
L 40.989766 42.552 
L 40.984246 48.096 
L 40.979188 53.64 
L 40.974617 59.184 
L 40.970557 64.728 
L 40.967035 70.272 
L 40.964082 75.816 
L 40.961728 81.36 
L 40.960009 86.904 
L 40.958962 92.448 
L 40.958629 97.992 
L 40.959055 103.536 
L 40.960289 109.08 
L 40.962387 114.624 
L 40.965409 120.168 
L 40.969423 125.712 
L 40.974502 131.256 
L 40.98073 136.8 
L 40.988201 142.344 
L 40.997022 147.888 
L 41.007311 153.432 
L 41.019206 158.976 
L 41.032863 164.52 
L 41.048462 170.064 
L 41.066215 175.608 
L 41.086366 181.152 
L 41.109208 186.696 
L 41.135086 192.24 
L 40.714976 192.24 
z
" clip-path="url(#pbc9bc43988)" style="fill: #440154"/>
   </g>
   <g id="PathCollection_14">
    <path d="M 41.109208 186.696 
L 41.086366 181.152 
L 41.066215 175.608 
L 41.048462 170.064 
L 41.032863 164.52 
L 41.019206 158.976 
L 41.007311 153.432 
L 40.997022 147.888 
L 40.988201 142.344 
L 40.98073 136.8 
L 40.974502 131.256 
L 40.969423 125.712 
L 40.965409 120.168 
L 40.962387 114.624 
L 40.960289 109.08 
L 40.959055 103.536 
L 40.958629 97.992 
L 40.958962 92.448 
L 40.960009 86.904 
L 40.961728 81.36 
L 40.964082 75.816 
L 40.967035 70.272 
L 40.970557 64.728 
L 40.974617 59.184 
L 40.979188 53.64 
L 40.984246 48.096 
L 40.989766 42.552 
L 40.995727 37.008 
L 41.002109 31.464 
L 41.008893 25.92 
L 41.429401 25.92 
L 41.422604 31.464 
L 41.416209 37.008 
L 41.410235 42.552 
L 41.404701 48.096 
L 41.399631 53.64 
L 41.395046 59.184 
L 41.390973 64.728 
L 41.387438 70.272 
L 41.384471 75.816 
L 41.382104 81.36 
L 41.380372 86.904 
L 41.379311 92.448 
L 41.378965 97.992 
L 41.379378 103.536 
L 41.380599 109.08 
L 41.382684 114.624 
L 41.385693 120.168 
L 41.389692 125.712 
L 41.394758 131.256 
L 41.400973 136.8 
L 41.408431 142.344 
L 41.417239 147.888 
L 41.427515 153.432 
L 41.439396 158.976 
L 41.45304 164.52 
L 41.468626 170.064 
L 41.486365 175.608 
L 41.506504 181.152 
L 41.529332 186.696 
L 41.555197 192.24 
L 41.135086 192.24 
z
" clip-path="url(#pbc9bc43988)" style="fill: #440154"/>
   </g>
   <g id="PathCollection_15">
    <path d="M 41.529332 186.696 
L 41.506504 181.152 
L 41.486365 175.608 
L 41.468626 170.064 
L 41.45304 164.52 
L 41.439396 158.976 
L 41.427515 153.432 
L 41.417239 147.888 
L 41.408431 142.344 
L 41.400973 136.8 
L 41.394758 131.256 
L 41.389692 125.712 
L 41.385693 120.168 
L 41.382684 114.624 
L 41.380599 109.08 
L 41.379378 103.536 
L 41.378965 97.992 
L 41.379311 92.448 
L 41.380372 86.904 
L 41.382104 81.36 
L 41.384471 75.816 
L 41.387438 70.272 
L 41.390973 64.728 
L 41.395046 59.184 
L 41.399631 53.64 
L 41.404701 48.096 
L 41.410235 42.552 
L 41.416209 37.008 
L 41.422604 31.464 
L 41.429401 25.92 
L 41.84991 25.92 
L 41.8431 31.464 
L 41.836691 37.008 
L 41.830704 42.552 
L 41.825157 48.096 
L 41.820073 53.64 
L 41.815475 59.184 
L 41.811389 64.728 
L 41.80784 70.272 
L 41.80486 75.816 
L 41.80248 81.36 
L 41.800734 86.904 
L 41.799661 92.448 
L 41.799301 97.992 
L 41.799701 103.536 
L 41.800909 109.08 
L 41.80298 114.624 
L 41.805976 120.168 
L 41.809962 125.712 
L 41.815015 131.256 
L 41.821217 136.8 
L 41.828662 142.344 
L 41.837456 147.888 
L 41.847718 153.432 
L 41.859587 158.976 
L 41.873217 164.52 
L 41.88879 170.064 
L 41.906516 175.608 
L 41.926641 181.152 
L 41.949456 186.696 
L 41.952 187.241595 
L 42.007563 192.24 
L 41.952 192.24 
L 41.555197 192.24 
z
" clip-path="url(#pbc9bc43988)" style="fill: #440154"/>
   </g>
   <g id="PathCollection_16">
    <path d="M 41.949456 186.696 
L 41.926641 181.152 
L 41.906516 175.608 
L 41.88879 170.064 
L 41.873217 164.52 
L 41.859587 158.976 
L 41.847718 153.432 
L 41.837456 147.888 
L 41.828662 142.344 
L 41.821217 136.8 
L 41.815015 131.256 
L 41.809962 125.712 
L 41.805976 120.168 
L 41.80298 114.624 
L 41.800909 109.08 
L 41.799701 103.536 
L 41.799301 97.992 
L 41.799661 92.448 
L 41.800734 86.904 
L 41.80248 81.36 
L 41.80486 75.816 
L 41.80784 70.272 
L 41.811389 64.728 
L 41.815475 59.184 
L 41.820073 53.64 
L 41.825157 48.096 
L 41.830704 42.552 
L 41.836691 37.008 
L 41.8431 31.464 
L 41.84991 25.92 
L 41.952 25.92 
L 42.712014 25.92 
L 42.695697 31.464 
L 42.68034 37.008 
L 42.665988 42.552 
L 42.65269 48.096 
L 42.640497 53.64 
L 42.629465 59.184 
L 42.619654 64.728 
L 42.611129 70.272 
L 42.603959 75.816 
L 42.598222 81.36 
L 42.593998 86.904 
L 42.59138 92.448 
L 42.590464 97.992 
L 42.591358 103.536 
L 42.594182 109.08 
L 42.599065 114.624 
L 42.606151 120.168 
L 42.6156 125.712 
L 42.627591 131.256 
L 42.642322 136.8 
L 42.660017 142.344 
L 42.680926 147.888 
L 42.705337 153.432 
L 42.733574 158.976 
L 42.766009 164.52 
L 42.803075 170.064 
L 42.84527 175.608 
L 42.893181 181.152 
L 42.9475 186.696 
L 43.009056 192.24 
L 42.007563 192.24 
L 41.952 187.241595 
z
" clip-path="url(#pbc9bc43988)" style="fill: #46085c"/>
   </g>
   <g id="PathCollection_17">
    <path d="M 42.9475 186.696 
L 42.893181 181.152 
L 42.84527 175.608 
L 42.803075 170.064 
L 42.766009 164.52 
L 42.733574 158.976 
L 42.705337 153.432 
L 42.680926 147.888 
L 42.660017 142.344 
L 42.642322 136.8 
L 42.627591 131.256 
L 42.6156 125.712 
L 42.606151 120.168 
L 42.599065 114.624 
L 42.594182 109.08 
L 42.591358 103.536 
L 42.590464 97.992 
L 42.59138 92.448 
L 42.593998 86.904 
L 42.598222 81.36 
L 42.603959 75.816 
L 42.611129 70.272 
L 42.619654 64.728 
L 42.629465 59.184 
L 42.640497 53.64 
L 42.65269 48.096 
L 42.665988 42.552 
L 42.68034 37.008 
L 42.695697 31.464 
L 42.712014 25.92 
L 43.715701 25.92 
L 43.69931 31.464 
L 43.68388 37.008 
L 43.669455 42.552 
L 43.656083 48.096 
L 43.643817 53.64 
L 43.632712 59.184 
L 43.622828 64.728 
L 43.61423 70.272 
L 43.606987 75.816 
L 43.601176 81.36 
L 43.59688 86.904 
L 43.594188 92.448 
L 43.593199 97.992 
L 43.59402 103.536 
L 43.59677 109.08 
L 43.60158 114.624 
L 43.608593 120.168 
L 43.61797 125.712 
L 43.629887 131.256 
L 43.644545 136.8 
L 43.662167 142.344 
L 43.683003 147.888 
L 43.707341 153.432 
L 43.735504 158.976 
L 43.767867 164.52 
L 43.804859 170.064 
L 43.846981 175.608 
L 43.894819 181.152 
L 43.949066 186.696 
L 44.010549 192.24 
L 43.009056 192.24 
z
" clip-path="url(#pbc9bc43988)" style="fill: #482071"/>
   </g>
   <g id="PathCollection_18">
    <path d="M 43.949066 186.696 
L 43.894819 181.152 
L 43.846981 175.608 
L 43.804859 170.064 
L 43.767867 164.52 
L 43.735504 158.976 
L 43.707341 153.432 
L 43.683003 147.888 
L 43.662167 142.344 
L 43.644545 136.8 
L 43.629887 131.256 
L 43.61797 125.712 
L 43.608593 120.168 
L 43.60158 114.624 
L 43.59677 109.08 
L 43.59402 103.536 
L 43.593199 97.992 
L 43.594188 92.448 
L 43.59688 86.904 
L 43.601176 81.36 
L 43.606987 75.816 
L 43.61423 70.272 
L 43.622828 64.728 
L 43.632712 59.184 
L 43.643817 53.64 
L 43.656083 48.096 
L 43.669455 42.552 
L 43.68388 37.008 
L 43.69931 31.464 
L 43.715701 25.92 
L 44.719388 25.92 
L 44.702924 31.464 
L 44.68742 37.008 
L 44.672922 42.552 
L 44.659477 48.096 
L 44.647138 53.64 
L 44.63596 59.184 
L 44.626002 64.728 
L 44.61733 70.272 
L 44.610015 75.816 
L 44.60413 81.36 
L 44.599761 86.904 
L 44.596996 92.448 
L 44.595933 97.992 
L 44.596682 103.536 
L 44.599359 109.08 
L 44.604095 114.624 
L 44.611035 120.168 
L 44.620339 125.712 
L 44.632183 131.256 
L 44.646768 136.8 
L 44.664317 142.344 
L 44.68508 147.888 
L 44.709345 153.432 
L 44.737435 158.976 
L 44.769725 164.52 
L 44.806644 170.064 
L 44.848693 175.608 
L 44.896458 181.152 
L 44.950632 186.696 
L 45.012041 192.24 
L 44.010549 192.24 
z
" clip-path="url(#pbc9bc43988)" style="fill: #453781"/>
   </g>
   <g id="PathCollection_19">
    <path d="M 44.950632 186.696 
L 44.896458 181.152 
L 44.848693 175.608 
L 44.806644 170.064 
L 44.769725 164.52 
L 44.737435 158.976 
L 44.709345 153.432 
L 44.68508 147.888 
L 44.664317 142.344 
L 44.646768 136.8 
L 44.632183 131.256 
L 44.620339 125.712 
L 44.611035 120.168 
L 44.604095 114.624 
L 44.599359 109.08 
L 44.596682 103.536 
L 44.595933 97.992 
L 44.596996 92.448 
L 44.599761 86.904 
L 44.60413 81.36 
L 44.610015 75.816 
L 44.61733 70.272 
L 44.626002 64.728 
L 44.63596 59.184 
L 44.647138 53.64 
L 44.659477 48.096 
L 44.672922 42.552 
L 44.68742 37.008 
L 44.702924 31.464 
L 44.719388 25.92 
L 45.723075 25.92 
L 45.706537 31.464 
L 45.69096 37.008 
L 45.676389 42.552 
L 45.662871 48.096 
L 45.650458 53.64 
L 45.639207 59.184 
L 45.629176 64.728 
L 45.620431 70.272 
L 45.613042 75.816 
L 45.607085 81.36 
L 45.602642 86.904 
L 45.599804 92.448 
L 45.598668 97.992 
L 45.599343 103.536 
L 45.601947 109.08 
L 45.606611 114.624 
L 45.613478 120.168 
L 45.622708 125.712 
L 45.634479 131.256 
L 45.648991 136.8 
L 45.666466 142.344 
L 45.687157 147.888 
L 45.711348 153.432 
L 45.739366 158.976 
L 45.771583 164.52 
L 45.808429 170.064 
L 45.850405 175.608 
L 45.898097 181.152 
L 45.952197 186.696 
L 46.013534 192.24 
L 45.012041 192.24 
z
" clip-path="url(#pbc9bc43988)" style="fill: #3e4a89"/>
   </g>
   <g id="PathCollection_20">
    <path d="M 45.952197 186.696 
L 45.898097 181.152 
L 45.850405 175.608 
L 45.808429 170.064 
L 45.771583 164.52 
L 45.739366 158.976 
L 45.711348 153.432 
L 45.687157 147.888 
L 45.666466 142.344 
L 45.648991 136.8 
L 45.634479 131.256 
L 45.622708 125.712 
L 45.613478 120.168 
L 45.606611 114.624 
L 45.601947 109.08 
L 45.599343 103.536 
L 45.598668 97.992 
L 45.599804 92.448 
L 45.602642 86.904 
L 45.607085 81.36 
L 45.613042 75.816 
L 45.620431 70.272 
L 45.629176 64.728 
L 45.639207 59.184 
L 45.650458 53.64 
L 45.662871 48.096 
L 45.676389 42.552 
L 45.69096 37.008 
L 45.706537 31.464 
L 45.723075 25.92 
L 46.726762 25.92 
L 46.710151 31.464 
L 46.6945 37.008 
L 46.679856 42.552 
L 46.666265 48.096 
L 46.653779 53.64 
L 46.642454 59.184 
L 46.63235 64.728 
L 46.623532 70.272 
L 46.61607 75.816 
L 46.610039 81.36 
L 46.605523 86.904 
L 46.602612 92.448 
L 46.601403 97.992 
L 46.602005 103.536 
L 46.604536 109.08 
L 46.609126 114.624 
L 46.61592 120.168 
L 46.625077 125.712 
L 46.636776 131.256 
L 46.651214 136.8 
L 46.668616 142.344 
L 46.689234 147.888 
L 46.713352 153.432 
L 46.741297 158.976 
L 46.77344 164.52 
L 46.810213 170.064 
L 46.852116 175.608 
L 46.899735 181.152 
L 46.953763 186.696 
L 47.015027 192.24 
L 46.013534 192.24 
z
" clip-path="url(#pbc9bc43988)" style="fill: #365d8d"/>
   </g>
   <g id="PathCollection_21">
    <path d="M 46.953763 186.696 
L 46.899735 181.152 
L 46.852116 175.608 
L 46.810213 170.064 
L 46.77344 164.52 
L 46.741297 158.976 
L 46.713352 153.432 
L 46.689234 147.888 
L 46.668616 142.344 
L 46.651214 136.8 
L 46.636776 131.256 
L 46.625077 125.712 
L 46.61592 120.168 
L 46.609126 114.624 
L 46.604536 109.08 
L 46.602005 103.536 
L 46.601403 97.992 
L 46.602612 92.448 
L 46.605523 86.904 
L 46.610039 81.36 
L 46.61607 75.816 
L 46.623532 70.272 
L 46.63235 64.728 
L 46.642454 59.184 
L 46.653779 53.64 
L 46.666265 48.096 
L 46.679856 42.552 
L 46.6945 37.008 
L 46.710151 31.464 
L 46.726762 25.92 
L 47.730448 25.92 
L 47.713764 31.464 
L 47.698041 37.008 
L 47.683323 42.552 
L 47.669658 48.096 
L 47.657099 53.64 
L 47.645701 59.184 
L 47.635524 64.728 
L 47.626633 70.272 
L 47.619097 75.816 
L 47.612994 81.36 
L 47.608404 86.904 
L 47.60542 92.448 
L 47.604138 97.992 
L 47.604667 103.536 
L 47.607125 109.08 
L 47.611642 114.624 
L 47.618362 120.168 
L 47.627446 125.712 
L 47.639072 131.256 
L 47.653437 136.8 
L 47.670766 142.344 
L 47.691311 147.888 
L 47.715356 153.432 
L 47.743227 158.976 
L 47.775298 164.52 
L 47.811998 170.064 
L 47.853828 175.608 
L 47.901374 181.152 
L 47.904 181.421828 
L 48.001898 186.696 
L 48.118593 192.24 
L 47.904 192.24 
L 47.015027 192.24 
z
" clip-path="url(#pbc9bc43988)" style="fill: #2e6e8e"/>
   </g>
   <g id="PathCollection_22">
    <path d="M 47.901374 181.152 
L 47.853828 175.608 
L 47.811998 170.064 
L 47.775298 164.52 
L 47.743227 158.976 
L 47.715356 153.432 
L 47.691311 147.888 
L 47.670766 142.344 
L 47.653437 136.8 
L 47.639072 131.256 
L 47.627446 125.712 
L 47.618362 120.168 
L 47.611642 114.624 
L 47.607125 109.08 
L 47.604667 103.536 
L 47.604138 97.992 
L 47.60542 92.448 
L 47.608404 86.904 
L 47.612994 81.36 
L 47.619097 75.816 
L 47.626633 70.272 
L 47.635524 64.728 
L 47.645701 59.184 
L 47.657099 53.64 
L 47.669658 48.096 
L 47.683323 42.552 
L 47.698041 37.008 
L 47.713764 31.464 
L 47.730448 25.92 
L 47.904 25.92 
L 49.490158 25.92 
L 49.458042 31.464 
L 49.427766 37.008 
L 49.399414 42.552 
L 49.373078 48.096 
L 49.348858 53.64 
L 49.326858 59.184 
L 49.307192 64.728 
L 49.289984 70.272 
L 49.275368 75.816 
L 49.263488 81.36 
L 49.254501 86.904 
L 49.248578 92.448 
L 49.245908 97.992 
L 49.246695 103.536 
L 49.251163 109.08 
L 49.259562 114.624 
L 49.272166 120.168 
L 49.289279 125.712 
L 49.31124 131.256 
L 49.338428 136.8 
L 49.371267 142.344 
L 49.410238 147.888 
L 49.455883 153.432 
L 49.508823 158.976 
L 49.569766 164.52 
L 49.639534 170.064 
L 49.719079 175.608 
L 49.809516 181.152 
L 49.912166 186.696 
L 50.028603 192.24 
L 48.118593 192.24 
L 48.001898 186.696 
L 47.904 181.421828 
z
" clip-path="url(#pbc9bc43988)" style="fill: #277f8e"/>
   </g>
   <g id="PathCollection_23">
    <path d="M 49.912166 186.696 
L 49.809516 181.152 
L 49.719079 175.608 
L 49.639534 170.064 
L 49.569766 164.52 
L 49.508823 158.976 
L 49.455883 153.432 
L 49.410238 147.888 
L 49.371267 142.344 
L 49.338428 136.8 
L 49.31124 131.256 
L 49.289279 125.712 
L 49.272166 120.168 
L 49.259562 114.624 
L 49.251163 109.08 
L 49.246695 103.536 
L 49.245908 97.992 
L 49.248578 92.448 
L 49.254501 86.904 
L 49.263488 81.36 
L 49.275368 75.816 
L 49.289984 70.272 
L 49.307192 64.728 
L 49.326858 59.184 
L 49.348858 53.64 
L 49.373078 48.096 
L 49.399414 42.552 
L 49.427766 37.008 
L 49.458042 31.464 
L 49.490158 25.92 
L 51.407925 25.92 
L 51.375549 31.464 
L 51.345013 37.008 
L 51.316402 42.552 
L 51.289807 48.096 
L 51.265327 53.64 
L 51.243068 59.184 
L 51.223143 64.728 
L 51.205677 70.272 
L 51.190801 75.816 
L 51.178662 81.36 
L 51.169416 86.904 
L 51.163235 92.448 
L 51.160306 97.992 
L 51.160834 103.536 
L 51.165044 109.08 
L 51.173184 114.624 
L 51.18553 120.168 
L 51.202384 125.712 
L 51.224087 131.256 
L 51.251016 136.8 
L 51.283598 142.344 
L 51.32231 147.888 
L 51.367697 153.432 
L 51.420379 158.976 
L 51.481065 164.52 
L 51.550575 170.064 
L 51.629861 175.608 
L 51.720041 181.152 
L 51.822433 186.696 
L 51.938613 192.24 
L 50.028603 192.24 
z
" clip-path="url(#pbc9bc43988)" style="fill: #218f8d"/>
   </g>
   <g id="PathCollection_24">
    <path d="M 51.822433 186.696 
L 51.720041 181.152 
L 51.629861 175.608 
L 51.550575 170.064 
L 51.481065 164.52 
L 51.420379 158.976 
L 51.367697 153.432 
L 51.32231 147.888 
L 51.283598 142.344 
L 51.251016 136.8 
L 51.224087 131.256 
L 51.202384 125.712 
L 51.18553 120.168 
L 51.173184 114.624 
L 51.165044 109.08 
L 51.160834 103.536 
L 51.160306 97.992 
L 51.163235 92.448 
L 51.169416 86.904 
L 51.178662 81.36 
L 51.190801 75.816 
L 51.205677 70.272 
L 51.223143 64.728 
L 51.243068 59.184 
L 51.265327 53.64 
L 51.289807 48.096 
L 51.316402 42.552 
L 51.345013 37.008 
L 51.375549 31.464 
L 51.407925 25.92 
L 53.325692 25.92 
L 53.293057 31.464 
L 53.262261 37.008 
L 53.23339 42.552 
L 53.206536 48.096 
L 53.181797 53.64 
L 53.159278 59.184 
L 53.139094 64.728 
L 53.121369 70.272 
L 53.106234 75.816 
L 53.093836 81.36 
L 53.084331 86.904 
L 53.077891 92.448 
L 53.074704 97.992 
L 53.074973 103.536 
L 53.078924 109.08 
L 53.086806 114.624 
L 53.098893 120.168 
L 53.11549 125.712 
L 53.136934 131.256 
L 53.163605 136.8 
L 53.195928 142.344 
L 53.234382 147.888 
L 53.279512 153.432 
L 53.331935 158.976 
L 53.392363 164.52 
L 53.461615 170.064 
L 53.540644 175.608 
L 53.630566 181.152 
L 53.7327 186.696 
L 53.848623 192.24 
L 51.938613 192.24 
z
" clip-path="url(#pbc9bc43988)" style="fill: #1f9f88"/>
   </g>
   <g id="PathCollection_25">
    <path d="M 53.7327 186.696 
L 53.630566 181.152 
L 53.540644 175.608 
L 53.461615 170.064 
L 53.392363 164.52 
L 53.331935 158.976 
L 53.279512 153.432 
L 53.234382 147.888 
L 53.195928 142.344 
L 53.163605 136.8 
L 53.136934 131.256 
L 53.11549 125.712 
L 53.098893 120.168 
L 53.086806 114.624 
L 53.078924 109.08 
L 53.074973 103.536 
L 53.074704 97.992 
L 53.077891 92.448 
L 53.084331 86.904 
L 53.093836 81.36 
L 53.106234 75.816 
L 53.121369 70.272 
L 53.139094 64.728 
L 53.159278 59.184 
L 53.181797 53.64 
L 53.206536 48.096 
L 53.23339 42.552 
L 53.262261 37.008 
L 53.293057 31.464 
L 53.325692 25.92 
L 53.856 25.92 
L 56.21642 25.92 
L 56.160256 31.464 
L 56.107232 37.008 
L 56.05749 42.552 
L 56.011187 48.096 
L 55.968488 53.64 
L 55.929573 59.184 
L 55.894634 64.728 
L 55.863881 70.272 
L 55.837538 75.816 
L 55.815851 81.36 
L 55.799086 86.904 
L 55.787532 92.448 
L 55.781507 97.992 
L 55.781357 103.536 
L 55.787464 109.08 
L 55.800248 114.624 
L 55.820172 120.168 
L 55.847752 125.712 
L 55.883562 131.256 
L 55.928243 136.8 
L 55.982513 142.344 
L 56.047186 147.888 
L 56.12318 153.432 
L 56.211545 158.976 
L 56.313483 164.52 
L 56.430381 170.064 
L 56.563853 175.608 
L 56.715788 181.152 
L 56.888422 186.696 
L 57.084421 192.24 
L 53.856 192.24 
L 53.848623 192.24 
z
" clip-path="url(#pbc9bc43988)" style="fill: #28ae80"/>
   </g>
   <g id="PathCollection_26">
    <path d="M 56.888422 186.696 
L 56.715788 181.152 
L 56.563853 175.608 
L 56.430381 170.064 
L 56.313483 164.52 
L 56.211545 158.976 
L 56.12318 153.432 
L 56.047186 147.888 
L 55.982513 142.344 
L 55.928243 136.8 
L 55.883562 131.256 
L 55.847752 125.712 
L 55.820172 120.168 
L 55.800248 114.624 
L 55.787464 109.08 
L 55.781357 103.536 
L 55.781507 97.992 
L 55.787532 92.448 
L 55.799086 86.904 
L 55.815851 81.36 
L 55.837538 75.816 
L 55.863881 70.272 
L 55.894634 64.728 
L 55.929573 59.184 
L 55.968488 53.64 
L 56.011187 48.096 
L 56.05749 42.552 
L 56.107232 37.008 
L 56.160256 31.464 
L 56.21642 25.92 
L 59.479029 25.92 
L 59.422139 31.464 
L 59.368387 37.008 
L 59.317919 42.552 
L 59.27089 48.096 
L 59.227466 53.64 
L 59.187825 59.184 
L 59.152162 64.728 
L 59.120684 70.272 
L 59.093617 75.816 
L 59.071205 81.36 
L 59.053716 86.904 
L 59.041439 92.448 
L 59.034691 97.992 
L 59.033818 103.536 
L 59.039202 109.08 
L 59.051264 114.624 
L 59.070466 120.168 
L 59.097325 125.712 
L 59.132414 131.256 
L 59.176373 136.8 
L 59.229923 142.344 
L 59.293876 147.888 
L 59.36915 153.432 
L 59.456795 158.976 
L 59.558014 164.52 
L 59.674193 170.064 
L 59.806946 175.608 
L 59.808 175.646635 
L 60.045764 181.152 
L 60.317911 186.696 
L 60.626982 192.24 
L 59.808 192.24 
L 57.084421 192.24 
z
" clip-path="url(#pbc9bc43988)" style="fill: #42be71"/>
   </g>
   <g id="PathCollection_27">
    <path d="M 59.806946 175.608 
L 59.674193 170.064 
L 59.558014 164.52 
L 59.456795 158.976 
L 59.36915 153.432 
L 59.293876 147.888 
L 59.229923 142.344 
L 59.176373 136.8 
L 59.132414 131.256 
L 59.097325 125.712 
L 59.070466 120.168 
L 59.051264 114.624 
L 59.039202 109.08 
L 59.033818 103.536 
L 59.034691 97.992 
L 59.041439 92.448 
L 59.053716 86.904 
L 59.071205 81.36 
L 59.093617 75.816 
L 59.120684 70.272 
L 59.152162 64.728 
L 59.187825 59.184 
L 59.227466 53.64 
L 59.27089 48.096 
L 59.317919 42.552 
L 59.368387 37.008 
L 59.422139 31.464 
L 59.479029 25.92 
L 59.808 25.92 
L 64.468434 25.92 
L 64.376357 31.464 
L 64.28929 37.008 
L 64.207458 42.552 
L 64.131106 48.096 
L 64.060496 53.64 
L 63.995911 59.184 
L 63.937655 64.728 
L 63.886055 70.272 
L 63.841469 75.816 
L 63.804282 81.36 
L 63.774913 86.904 
L 63.75382 92.448 
L 63.741503 97.992 
L 63.738507 103.536 
L 63.745436 109.08 
L 63.76295 114.624 
L 63.791783 120.168 
L 63.832748 125.712 
L 63.886747 131.256 
L 63.954794 136.8 
L 64.038024 142.344 
L 64.137716 147.888 
L 64.255324 153.432 
L 64.392501 158.976 
L 64.551146 164.52 
L 64.733449 170.064 
L 64.941955 175.608 
L 65.179649 181.152 
L 65.450057 186.696 
L 65.757391 192.24 
L 60.626982 192.24 
L 60.317911 186.696 
L 60.045764 181.152 
L 59.808 175.646635 
z
" clip-path="url(#pbc9bc43988)" style="fill: #65cb5e"/>
   </g>
   <g id="PathCollection_28">
    <path d="M 65.450057 186.696 
L 65.179649 181.152 
L 64.941955 175.608 
L 64.733449 170.064 
L 64.551146 164.52 
L 64.392501 158.976 
L 64.255324 153.432 
L 64.137716 147.888 
L 64.038024 142.344 
L 63.954794 136.8 
L 63.886747 131.256 
L 63.832748 125.712 
L 63.791783 120.168 
L 63.76295 114.624 
L 63.745436 109.08 
L 63.738507 103.536 
L 63.741503 97.992 
L 63.75382 92.448 
L 63.774913 86.904 
L 63.804282 81.36 
L 63.841469 75.816 
L 63.886055 70.272 
L 63.937655 64.728 
L 63.995911 59.184 
L 64.060496 53.64 
L 64.131106 48.096 
L 64.207458 42.552 
L 64.28929 37.008 
L 64.376357 31.464 
L 64.468434 25.92 
L 65.76 25.92 
L 71.68936 25.92 
L 71.545437 31.464 
L 71.409191 37.008 
L 71.280965 42.552 
L 71.161128 48.096 
L 71.050074 53.64 
L 70.948228 59.184 
L 70.856049 64.728 
L 70.774032 70.272 
L 70.702715 75.816 
L 70.642678 81.36 
L 70.594554 86.904 
L 70.559034 92.448 
L 70.53687 97.992 
L 70.528888 103.536 
L 70.535995 109.08 
L 70.559192 114.624 
L 70.599582 120.168 
L 70.658393 125.712 
L 70.736989 131.256 
L 70.836898 136.8 
L 70.959834 142.344 
L 71.107731 147.888 
L 71.28278 153.432 
L 71.487482 158.976 
L 71.712 164.223022 
L 71.730797 164.52 
L 72.134789 170.064 
L 72.597296 175.608 
L 73.124948 181.152 
L 73.725583 186.696 
L 74.408564 192.24 
L 71.712 192.24 
L 65.76 192.24 
L 65.757391 192.24 
z
" clip-path="url(#pbc9bc43988)" style="fill: #8ed645"/>
   </g>
   <g id="PathCollection_29">
    <path d="M 71.487482 158.976 
L 71.28278 153.432 
L 71.107731 147.888 
L 70.959834 142.344 
L 70.836898 136.8 
L 70.736989 131.256 
L 70.658393 125.712 
L 70.599582 120.168 
L 70.559192 114.624 
L 70.535995 109.08 
L 70.528888 103.536 
L 70.53687 97.992 
L 70.559034 92.448 
L 70.594554 86.904 
L 70.642678 81.36 
L 70.702715 75.816 
L 70.774032 70.272 
L 70.856049 64.728 
L 70.948228 59.184 
L 71.050074 53.64 
L 71.161128 48.096 
L 71.280965 42.552 
L 71.409191 37.008 
L 71.545437 31.464 
L 71.68936 25.92 
L 71.712 25.92 
L 77.664 25.92 
L 83.616 25.92 
L 87.385964 25.92 
L 86.894945 31.464 
L 86.429781 37.008 
L 85.991506 42.552 
L 85.581234 48.096 
L 85.200161 53.64 
L 84.849577 59.184 
L 84.530874 64.728 
L 84.24556 70.272 
L 83.995266 75.816 
L 83.781766 81.36 
L 83.616 86.617846 
L 83.60989 86.904 
L 83.519001 92.448 
L 83.457316 97.992 
L 83.426588 103.536 
L 83.428743 109.08 
L 83.465905 114.624 
L 83.540425 120.168 
L 83.616 123.826531 
L 83.673199 125.712 
L 83.904401 131.256 
L 84.203153 136.8 
L 84.574731 142.344 
L 85.02509 147.888 
L 85.560987 153.432 
L 86.190128 158.976 
L 86.921356 164.52 
L 87.764884 170.064 
L 88.732594 175.608 
L 89.568 179.794838 
L 89.970633 181.152 
L 91.84593 186.696 
L 93.978152 192.24 
L 89.568 192.24 
L 83.616 192.24 
L 77.664 192.24 
L 74.408564 192.24 
L 73.725583 186.696 
L 73.124948 181.152 
L 72.597296 175.608 
L 72.134789 170.064 
L 71.730797 164.52 
L 71.712 164.223022 
z
" clip-path="url(#pbc9bc43988)" style="fill: #bddf26"/>
    <path d="M 160.911739 186.696 
L 160.992 186.595854 
L 165.125796 181.152 
L 166.944 178.375101 
L 168.6843 175.608 
L 171.676523 170.064 
L 172.896 167.412508 
L 174.187105 164.52 
L 176.275747 158.976 
L 178.013234 153.432 
L 178.848 150.174791 
L 179.421349 147.888 
L 180.529829 142.344 
L 181.379388 136.8 
L 181.991791 131.256 
L 182.386346 125.712 
L 182.580258 120.168 
L 182.588927 114.624 
L 182.426187 109.08 
L 182.104516 103.536 
L 181.6352 97.992 
L 181.028485 92.448 
L 180.293697 86.904 
L 179.439351 81.36 
L 178.848 77.969759 
L 178.466593 75.816 
L 177.377066 70.272 
L 176.188057 64.728 
L 174.905767 59.184 
L 173.535919 53.64 
L 172.896 51.200307 
L 172.064289 48.096 
L 170.498426 42.552 
L 168.858505 37.008 
L 167.148894 31.464 
L 166.944 30.825621 
L 165.32277 25.92 
L 166.944 25.92 
L 172.896 25.92 
L 178.848 25.92 
L 184.8 25.92 
L 190.752 25.92 
L 196.704 25.92 
L 202.656 25.92 
L 208.608 25.92 
L 214.56 25.92 
L 214.56 31.464 
L 214.56 37.008 
L 214.56 42.552 
L 214.56 48.096 
L 214.56 53.64 
L 214.56 59.184 
L 214.56 64.728 
L 214.56 70.272 
L 214.56 75.816 
L 214.56 81.36 
L 214.56 86.904 
L 214.56 92.448 
L 214.56 97.992 
L 214.56 103.536 
L 214.56 109.08 
L 214.56 114.624 
L 214.56 120.168 
L 214.56 125.712 
L 214.56 131.256 
L 214.56 136.8 
L 214.56 142.344 
L 214.56 147.888 
L 214.56 153.432 
L 214.56 158.976 
L 214.56 164.52 
L 214.56 170.064 
L 214.56 175.608 
L 214.56 181.152 
L 214.56 186.696 
L 214.56 192.24 
L 208.608 192.24 
L 202.656 192.24 
L 196.704 192.24 
L 190.752 192.24 
L 184.8 192.24 
L 178.848 192.24 
L 172.896 192.24 
L 166.944 192.24 
L 160.992 192.24 
L 155.781834 192.24 
z
" clip-path="url(#pbc9bc43988)" style="fill: #bddf26"/>
   </g>
   <g id="PathCollection_30">
    <path d="M 83.540425 120.168 
L 83.465905 114.624 
L 83.428743 109.08 
L 83.426588 103.536 
L 83.457316 97.992 
L 83.519001 92.448 
L 83.60989 86.904 
L 83.616 86.617846 
L 83.781766 81.36 
L 83.995266 75.816 
L 84.24556 70.272 
L 84.530874 64.728 
L 84.849577 59.184 
L 85.200161 53.64 
L 85.581234 48.096 
L 85.991506 42.552 
L 86.429781 37.008 
L 86.894945 31.464 
L 87.385964 25.92 
L 89.568 25.92 
L 95.52 25.92 
L 101.472 25.92 
L 107.424 25.92 
L 113.376 25.92 
L 119.328 25.92 
L 125.28 25.92 
L 131.232 25.92 
L 137.184 25.92 
L 143.136 25.92 
L 149.088 25.92 
L 155.04 25.92 
L 160.992 25.92 
L 165.32277 25.92 
L 166.944 30.825621 
L 167.148894 31.464 
L 168.858505 37.008 
L 170.498426 42.552 
L 172.064289 48.096 
L 172.896 51.200307 
L 173.535919 53.64 
L 174.905767 59.184 
L 176.188057 64.728 
L 177.377066 70.272 
L 178.466593 75.816 
L 178.848 77.969759 
L 179.439351 81.36 
L 180.293697 86.904 
L 181.028485 92.448 
L 181.6352 97.992 
L 182.104516 103.536 
L 182.426187 109.08 
L 182.588927 114.624 
L 182.580258 120.168 
L 182.386346 125.712 
L 181.991791 131.256 
L 181.379388 136.8 
L 180.529829 142.344 
L 179.421349 147.888 
L 178.848 150.174791 
L 178.013234 153.432 
L 176.275747 158.976 
L 174.187105 164.52 
L 172.896 167.412508 
L 171.676523 170.064 
L 168.6843 175.608 
L 166.944 178.375101 
L 165.125796 181.152 
L 160.992 186.595854 
L 160.911739 186.696 
L 155.781834 192.24 
L 155.04 192.24 
L 149.088 192.24 
L 143.136 192.24 
L 137.184 192.24 
L 131.232 192.24 
L 125.28 192.24 
L 119.328 192.24 
L 113.376 192.24 
L 107.424 192.24 
L 101.472 192.24 
L 95.52 192.24 
L 93.978152 192.24 
L 91.84593 186.696 
L 89.970633 181.152 
L 89.568 179.794838 
L 88.732594 175.608 
L 87.764884 170.064 
L 86.921356 164.52 
L 86.190128 158.976 
L 85.560987 153.432 
L 85.02509 147.888 
L 84.574731 142.344 
L 84.203153 136.8 
L 83.904401 131.256 
L 83.673199 125.712 
L 83.616 123.826531 
z
" clip-path="url(#pbc9bc43988)" style="fill: #eae51a"/>
   </g>
   <g id="PathCollection_31">
    <defs>
     <path id="mb8717ff0dd" d="M -4.330127 4.330127 
L 4.330127 -4.330127 
M -4.330127 -4.330127 
L 4.330127 4.330127 
" style="stroke: #000000; stroke-width: 2"/>
    </defs>
    <g clip-path="url(#pbc9bc43988)">
     <use xlink:href="#mb8717ff0dd" x="105.44" y="109.08" style="stroke: #000000; stroke-width: 2"/>
    </g>
   </g>
   <g id="matplotlib.axis_1">
    <g id="xtick_1">
     <g id="line2d_1">
      <defs>
       <path id="mf81b8c5292" d="M 0 0 
L 0 3.5 
" style="stroke: #000000; stroke-width: 0.8"/>
      </defs>
      <g>
       <use xlink:href="#mf81b8c5292" x="75.68" y="192.24" style="stroke: #000000; stroke-width: 0.8"/>
      </g>
     </g>
     <g id="text_1">
      <!-- 250 -->
      <g transform="translate(64.2275 208.358125) scale(0.12 -0.12)">
       <defs>
        <path id="DejaVuSans-32" d="M 1228 531 
L 3431 531 
L 3431 0 
L 469 0 
L 469 531 
Q 828 903 1448 1529 
Q 2069 2156 2228 2338 
Q 2531 2678 2651 2914 
Q 2772 3150 2772 3378 
Q 2772 3750 2511 3984 
Q 2250 4219 1831 4219 
Q 1534 4219 1204 4116 
Q 875 4013 500 3803 
L 500 4441 
Q 881 4594 1212 4672 
Q 1544 4750 1819 4750 
Q 2544 4750 2975 4387 
Q 3406 4025 3406 3419 
Q 3406 3131 3298 2873 
Q 3191 2616 2906 2266 
Q 2828 2175 2409 1742 
Q 1991 1309 1228 531 
z
" transform="scale(0.015625)"/>
        <path id="DejaVuSans-35" d="M 691 4666 
L 3169 4666 
L 3169 4134 
L 1269 4134 
L 1269 2991 
Q 1406 3038 1543 3061 
Q 1681 3084 1819 3084 
Q 2600 3084 3056 2656 
Q 3513 2228 3513 1497 
Q 3513 744 3044 326 
Q 2575 -91 1722 -91 
Q 1428 -91 1123 -41 
Q 819 9 494 109 
L 494 744 
Q 775 591 1075 516 
Q 1375 441 1709 441 
Q 2250 441 2565 725 
Q 2881 1009 2881 1497 
Q 2881 1984 2565 2268 
Q 2250 2553 1709 2553 
Q 1456 2553 1204 2497 
Q 953 2441 691 2322 
L 691 4666 
z
" transform="scale(0.015625)"/>
        <path id="DejaVuSans-30" d="M 2034 4250 
Q 1547 4250 1301 3770 
Q 1056 3291 1056 2328 
Q 1056 1369 1301 889 
Q 1547 409 2034 409 
Q 2525 409 2770 889 
Q 3016 1369 3016 2328 
Q 3016 3291 2770 3770 
Q 2525 4250 2034 4250 
z
M 2034 4750 
Q 2819 4750 3233 4129 
Q 3647 3509 3647 2328 
Q 3647 1150 3233 529 
Q 2819 -91 2034 -91 
Q 1250 -91 836 529 
Q 422 1150 422 2328 
Q 422 3509 836 4129 
Q 1250 4750 2034 4750 
z
" transform="scale(0.015625)"/>
       </defs>
       <use xlink:href="#DejaVuSans-32"/>
       <use xlink:href="#DejaVuSans-35" x="63.623047"/>
       <use xlink:href="#DejaVuSans-30" x="127.246094"/>
      </g>
     </g>
    </g>
    <g id="xtick_2">
     <g id="line2d_2">
      <g>
       <use xlink:href="#mf81b8c5292" x="125.28" y="192.24" style="stroke: #000000; stroke-width: 0.8"/>
      </g>
     </g>
     <g id="text_2">
      <!-- 500 -->
      <g transform="translate(113.8275 208.358125) scale(0.12 -0.12)">
       <use xlink:href="#DejaVuSans-35"/>
       <use xlink:href="#DejaVuSans-30" x="63.623047"/>
       <use xlink:href="#DejaVuSans-30" x="127.246094"/>
      </g>
     </g>
    </g>
    <g id="xtick_3">
     <g id="line2d_3">
      <g>
       <use xlink:href="#mf81b8c5292" x="174.88" y="192.24" style="stroke: #000000; stroke-width: 0.8"/>
      </g>
     </g>
     <g id="text_3">
      <!-- 750 -->
      <g transform="translate(163.4275 208.358125) scale(0.12 -0.12)">
       <defs>
        <path id="DejaVuSans-37" d="M 525 4666 
L 3525 4666 
L 3525 4397 
L 1831 0 
L 1172 0 
L 2766 4134 
L 525 4134 
L 525 4666 
z
" transform="scale(0.015625)"/>
       </defs>
       <use xlink:href="#DejaVuSans-37"/>
       <use xlink:href="#DejaVuSans-35" x="63.623047"/>
       <use xlink:href="#DejaVuSans-30" x="127.246094"/>
      </g>
     </g>
    </g>
    <g id="text_4">
     <!-- Diploid N$_e$2 -->
     <g transform="translate(80 227.01375) scale(0.16 -0.16)">
      <defs>
       <path id="DejaVuSans-44" d="M 1259 4147 
L 1259 519 
L 2022 519 
Q 2988 519 3436 956 
Q 3884 1394 3884 2338 
Q 3884 3275 3436 3711 
Q 2988 4147 2022 4147 
L 1259 4147 
z
M 628 4666 
L 1925 4666 
Q 3281 4666 3915 4102 
Q 4550 3538 4550 2338 
Q 4550 1131 3912 565 
Q 3275 0 1925 0 
L 628 0 
L 628 4666 
z
" transform="scale(0.015625)"/>
       <path id="DejaVuSans-69" d="M 603 3500 
L 1178 3500 
L 1178 0 
L 603 0 
L 603 3500 
z
M 603 4863 
L 1178 4863 
L 1178 4134 
L 603 4134 
L 603 4863 
z
" transform="scale(0.015625)"/>
       <path id="DejaVuSans-70" d="M 1159 525 
L 1159 -1331 
L 581 -1331 
L 581 3500 
L 1159 3500 
L 1159 2969 
Q 1341 3281 1617 3432 
Q 1894 3584 2278 3584 
Q 2916 3584 3314 3078 
Q 3713 2572 3713 1747 
Q 3713 922 3314 415 
Q 2916 -91 2278 -91 
Q 1894 -91 1617 61 
Q 1341 213 1159 525 
z
M 3116 1747 
Q 3116 2381 2855 2742 
Q 2594 3103 2138 3103 
Q 1681 3103 1420 2742 
Q 1159 2381 1159 1747 
Q 1159 1113 1420 752 
Q 1681 391 2138 391 
Q 2594 391 2855 752 
Q 3116 1113 3116 1747 
z
" transform="scale(0.015625)"/>
       <path id="DejaVuSans-6c" d="M 603 4863 
L 1178 4863 
L 1178 0 
L 603 0 
L 603 4863 
z
" transform="scale(0.015625)"/>
       <path id="DejaVuSans-6f" d="M 1959 3097 
Q 1497 3097 1228 2736 
Q 959 2375 959 1747 
Q 959 1119 1226 758 
Q 1494 397 1959 397 
Q 2419 397 2687 759 
Q 2956 1122 2956 1747 
Q 2956 2369 2687 2733 
Q 2419 3097 1959 3097 
z
M 1959 3584 
Q 2709 3584 3137 3096 
Q 3566 2609 3566 1747 
Q 3566 888 3137 398 
Q 2709 -91 1959 -91 
Q 1206 -91 779 398 
Q 353 888 353 1747 
Q 353 2609 779 3096 
Q 1206 3584 1959 3584 
z
" transform="scale(0.015625)"/>
       <path id="DejaVuSans-64" d="M 2906 2969 
L 2906 4863 
L 3481 4863 
L 3481 0 
L 2906 0 
L 2906 525 
Q 2725 213 2448 61 
Q 2172 -91 1784 -91 
Q 1150 -91 751 415 
Q 353 922 353 1747 
Q 353 2572 751 3078 
Q 1150 3584 1784 3584 
Q 2172 3584 2448 3432 
Q 2725 3281 2906 2969 
z
M 947 1747 
Q 947 1113 1208 752 
Q 1469 391 1925 391 
Q 2381 391 2643 752 
Q 2906 1113 2906 1747 
Q 2906 2381 2643 2742 
Q 2381 3103 1925 3103 
Q 1469 3103 1208 2742 
Q 947 2381 947 1747 
z
" transform="scale(0.015625)"/>
       <path id="DejaVuSans-20" transform="scale(0.015625)"/>
       <path id="DejaVuSans-4e" d="M 628 4666 
L 1478 4666 
L 3547 763 
L 3547 4666 
L 4159 4666 
L 4159 0 
L 3309 0 
L 1241 3903 
L 1241 0 
L 628 0 
L 628 4666 
z
" transform="scale(0.015625)"/>
       <path id="DejaVuSans-Oblique-65" d="M 3078 2063 
Q 3088 2113 3092 2166 
Q 3097 2219 3097 2272 
Q 3097 2653 2873 2875 
Q 2650 3097 2266 3097 
Q 1838 3097 1509 2826 
Q 1181 2556 1013 2059 
L 3078 2063 
z
M 3578 1613 
L 903 1613 
Q 884 1494 878 1425 
Q 872 1356 872 1306 
Q 872 872 1139 634 
Q 1406 397 1894 397 
Q 2269 397 2603 481 
Q 2938 566 3225 728 
L 3116 159 
Q 2806 34 2476 -28 
Q 2147 -91 1806 -91 
Q 1078 -91 686 257 
Q 294 606 294 1247 
Q 294 1794 489 2264 
Q 684 2734 1063 3103 
Q 1306 3334 1642 3459 
Q 1978 3584 2356 3584 
Q 2950 3584 3301 3228 
Q 3653 2872 3653 2272 
Q 3653 2128 3634 1964 
Q 3616 1800 3578 1613 
z
" transform="scale(0.015625)"/>
      </defs>
      <use xlink:href="#DejaVuSans-44" transform="translate(0 0.015625)"/>
      <use xlink:href="#DejaVuSans-69" transform="translate(77.001953 0.015625)"/>
      <use xlink:href="#DejaVuSans-70" transform="translate(104.785156 0.015625)"/>
      <use xlink:href="#DejaVuSans-6c" transform="translate(168.261719 0.015625)"/>
      <use xlink:href="#DejaVuSans-6f" transform="translate(196.044922 0.015625)"/>
      <use xlink:href="#DejaVuSans-69" transform="translate(257.226562 0.015625)"/>
      <use xlink:href="#DejaVuSans-64" transform="translate(285.009766 0.015625)"/>
      <use xlink:href="#DejaVuSans-20" transform="translate(348.486328 0.015625)"/>
      <use xlink:href="#DejaVuSans-4e" transform="translate(380.273438 0.015625)"/>
      <use xlink:href="#DejaVuSans-Oblique-65" transform="translate(456.035156 -16.390625) scale(0.7)"/>
      <use xlink:href="#DejaVuSans-32" transform="translate(501.835938 0.015625)"/>
     </g>
    </g>
    <g id="text_5">
     <!-- 1e3 -->
     <g transform="translate(195.681875 221.452188) scale(0.1 -0.1)">
      <defs>
       <path id="DejaVuSans-31" d="M 794 531 
L 1825 531 
L 1825 4091 
L 703 3866 
L 703 4441 
L 1819 4666 
L 2450 4666 
L 2450 531 
L 3481 531 
L 3481 0 
L 794 0 
L 794 531 
z
" transform="scale(0.015625)"/>
       <path id="DejaVuSans-65" d="M 3597 1894 
L 3597 1613 
L 953 1613 
Q 991 1019 1311 708 
Q 1631 397 2203 397 
Q 2534 397 2845 478 
Q 3156 559 3463 722 
L 3463 178 
Q 3153 47 2828 -22 
Q 2503 -91 2169 -91 
Q 1331 -91 842 396 
Q 353 884 353 1716 
Q 353 2575 817 3079 
Q 1281 3584 2069 3584 
Q 2775 3584 3186 3129 
Q 3597 2675 3597 1894 
z
M 3022 2063 
Q 3016 2534 2758 2815 
Q 2500 3097 2075 3097 
Q 1594 3097 1305 2825 
Q 1016 2553 972 2059 
L 3022 2063 
z
" transform="scale(0.015625)"/>
       <path id="DejaVuSans-33" d="M 2597 2516 
Q 3050 2419 3304 2112 
Q 3559 1806 3559 1356 
Q 3559 666 3084 287 
Q 2609 -91 1734 -91 
Q 1441 -91 1130 -33 
Q 819 25 488 141 
L 488 750 
Q 750 597 1062 519 
Q 1375 441 1716 441 
Q 2309 441 2620 675 
Q 2931 909 2931 1356 
Q 2931 1769 2642 2001 
Q 2353 2234 1838 2234 
L 1294 2234 
L 1294 2753 
L 1863 2753 
Q 2328 2753 2575 2939 
Q 2822 3125 2822 3475 
Q 2822 3834 2567 4026 
Q 2313 4219 1838 4219 
Q 1578 4219 1281 4162 
Q 984 4106 628 3988 
L 628 4550 
Q 988 4650 1302 4700 
Q 1616 4750 1894 4750 
Q 2613 4750 3031 4423 
Q 3450 4097 3450 3541 
Q 3450 3153 3228 2886 
Q 3006 2619 2597 2516 
z
" transform="scale(0.015625)"/>
      </defs>
      <use xlink:href="#DejaVuSans-31"/>
      <use xlink:href="#DejaVuSans-65" x="63.623047"/>
      <use xlink:href="#DejaVuSans-33" x="125.146484"/>
     </g>
    </g>
   </g>
   <g id="matplotlib.axis_2">
    <g id="ytick_1">
     <g id="line2d_4">
      <defs>
       <path id="mc155f82ecc" d="M 0 0 
L -3.5 0 
" style="stroke: #000000; stroke-width: 0.8"/>
      </defs>
      <g>
       <use xlink:href="#mc155f82ecc" x="36" y="192.24" style="stroke: #000000; stroke-width: 0.8"/>
      </g>
     </g>
     <g id="text_6">
      <!-- 1.0 -->
      <g transform="translate(9.91625 196.799062) scale(0.12 -0.12)">
       <defs>
        <path id="DejaVuSans-2e" d="M 684 794 
L 1344 794 
L 1344 0 
L 684 0 
L 684 794 
z
" transform="scale(0.015625)"/>
       </defs>
       <use xlink:href="#DejaVuSans-31"/>
       <use xlink:href="#DejaVuSans-2e" x="63.623047"/>
       <use xlink:href="#DejaVuSans-30" x="95.410156"/>
      </g>
     </g>
    </g>
    <g id="ytick_2">
     <g id="line2d_5">
      <g>
       <use xlink:href="#mc155f82ecc" x="36" y="150.66" style="stroke: #000000; stroke-width: 0.8"/>
      </g>
     </g>
     <g id="text_7">
      <!-- 1.5 -->
      <g transform="translate(9.91625 155.219063) scale(0.12 -0.12)">
       <use xlink:href="#DejaVuSans-31"/>
       <use xlink:href="#DejaVuSans-2e" x="63.623047"/>
       <use xlink:href="#DejaVuSans-35" x="95.410156"/>
      </g>
     </g>
    </g>
    <g id="ytick_3">
     <g id="line2d_6">
      <g>
       <use xlink:href="#mc155f82ecc" x="36" y="109.08" style="stroke: #000000; stroke-width: 0.8"/>
      </g>
     </g>
     <g id="text_8">
      <!-- 2.0 -->
      <g transform="translate(9.91625 113.639062) scale(0.12 -0.12)">
       <use xlink:href="#DejaVuSans-32"/>
       <use xlink:href="#DejaVuSans-2e" x="63.623047"/>
       <use xlink:href="#DejaVuSans-30" x="95.410156"/>
      </g>
     </g>
    </g>
    <g id="ytick_4">
     <g id="line2d_7">
      <g>
       <use xlink:href="#mc155f82ecc" x="36" y="67.5" style="stroke: #000000; stroke-width: 0.8"/>
      </g>
     </g>
     <g id="text_9">
      <!-- 2.5 -->
      <g transform="translate(9.91625 72.059063) scale(0.12 -0.12)">
       <use xlink:href="#DejaVuSans-32"/>
       <use xlink:href="#DejaVuSans-2e" x="63.623047"/>
       <use xlink:href="#DejaVuSans-35" x="95.410156"/>
      </g>
     </g>
    </g>
    <g id="ytick_5">
     <g id="line2d_8">
      <g>
       <use xlink:href="#mc155f82ecc" x="36" y="25.92" style="stroke: #000000; stroke-width: 0.8"/>
      </g>
     </g>
     <g id="text_10">
      <!-- 3.0 -->
      <g transform="translate(9.91625 30.479062) scale(0.12 -0.12)">
       <use xlink:href="#DejaVuSans-33"/>
       <use xlink:href="#DejaVuSans-2e" x="63.623047"/>
       <use xlink:href="#DejaVuSans-30" x="95.410156"/>
      </g>
     </g>
    </g>
    <g id="text_11">
     <!-- Recombination rate -->
     <g transform="translate(2.58875 187.6775) rotate(-90) scale(0.16 -0.16)">
      <defs>
       <path id="DejaVuSans-52" d="M 2841 2188 
Q 3044 2119 3236 1894 
Q 3428 1669 3622 1275 
L 4263 0 
L 3584 0 
L 2988 1197 
Q 2756 1666 2539 1819 
Q 2322 1972 1947 1972 
L 1259 1972 
L 1259 0 
L 628 0 
L 628 4666 
L 2053 4666 
Q 2853 4666 3247 4331 
Q 3641 3997 3641 3322 
Q 3641 2881 3436 2590 
Q 3231 2300 2841 2188 
z
M 1259 4147 
L 1259 2491 
L 2053 2491 
Q 2509 2491 2742 2702 
Q 2975 2913 2975 3322 
Q 2975 3731 2742 3939 
Q 2509 4147 2053 4147 
L 1259 4147 
z
" transform="scale(0.015625)"/>
       <path id="DejaVuSans-63" d="M 3122 3366 
L 3122 2828 
Q 2878 2963 2633 3030 
Q 2388 3097 2138 3097 
Q 1578 3097 1268 2742 
Q 959 2388 959 1747 
Q 959 1106 1268 751 
Q 1578 397 2138 397 
Q 2388 397 2633 464 
Q 2878 531 3122 666 
L 3122 134 
Q 2881 22 2623 -34 
Q 2366 -91 2075 -91 
Q 1284 -91 818 406 
Q 353 903 353 1747 
Q 353 2603 823 3093 
Q 1294 3584 2113 3584 
Q 2378 3584 2631 3529 
Q 2884 3475 3122 3366 
z
" transform="scale(0.015625)"/>
       <path id="DejaVuSans-6d" d="M 3328 2828 
Q 3544 3216 3844 3400 
Q 4144 3584 4550 3584 
Q 5097 3584 5394 3201 
Q 5691 2819 5691 2113 
L 5691 0 
L 5113 0 
L 5113 2094 
Q 5113 2597 4934 2840 
Q 4756 3084 4391 3084 
Q 3944 3084 3684 2787 
Q 3425 2491 3425 1978 
L 3425 0 
L 2847 0 
L 2847 2094 
Q 2847 2600 2669 2842 
Q 2491 3084 2119 3084 
Q 1678 3084 1418 2786 
Q 1159 2488 1159 1978 
L 1159 0 
L 581 0 
L 581 3500 
L 1159 3500 
L 1159 2956 
Q 1356 3278 1631 3431 
Q 1906 3584 2284 3584 
Q 2666 3584 2933 3390 
Q 3200 3197 3328 2828 
z
" transform="scale(0.015625)"/>
       <path id="DejaVuSans-62" d="M 3116 1747 
Q 3116 2381 2855 2742 
Q 2594 3103 2138 3103 
Q 1681 3103 1420 2742 
Q 1159 2381 1159 1747 
Q 1159 1113 1420 752 
Q 1681 391 2138 391 
Q 2594 391 2855 752 
Q 3116 1113 3116 1747 
z
M 1159 2969 
Q 1341 3281 1617 3432 
Q 1894 3584 2278 3584 
Q 2916 3584 3314 3078 
Q 3713 2572 3713 1747 
Q 3713 922 3314 415 
Q 2916 -91 2278 -91 
Q 1894 -91 1617 61 
Q 1341 213 1159 525 
L 1159 0 
L 581 0 
L 581 4863 
L 1159 4863 
L 1159 2969 
z
" transform="scale(0.015625)"/>
       <path id="DejaVuSans-6e" d="M 3513 2113 
L 3513 0 
L 2938 0 
L 2938 2094 
Q 2938 2591 2744 2837 
Q 2550 3084 2163 3084 
Q 1697 3084 1428 2787 
Q 1159 2491 1159 1978 
L 1159 0 
L 581 0 
L 581 3500 
L 1159 3500 
L 1159 2956 
Q 1366 3272 1645 3428 
Q 1925 3584 2291 3584 
Q 2894 3584 3203 3211 
Q 3513 2838 3513 2113 
z
" transform="scale(0.015625)"/>
       <path id="DejaVuSans-61" d="M 2194 1759 
Q 1497 1759 1228 1600 
Q 959 1441 959 1056 
Q 959 750 1161 570 
Q 1363 391 1709 391 
Q 2188 391 2477 730 
Q 2766 1069 2766 1631 
L 2766 1759 
L 2194 1759 
z
M 3341 1997 
L 3341 0 
L 2766 0 
L 2766 531 
Q 2569 213 2275 61 
Q 1981 -91 1556 -91 
Q 1019 -91 701 211 
Q 384 513 384 1019 
Q 384 1609 779 1909 
Q 1175 2209 1959 2209 
L 2766 2209 
L 2766 2266 
Q 2766 2663 2505 2880 
Q 2244 3097 1772 3097 
Q 1472 3097 1187 3025 
Q 903 2953 641 2809 
L 641 3341 
Q 956 3463 1253 3523 
Q 1550 3584 1831 3584 
Q 2591 3584 2966 3190 
Q 3341 2797 3341 1997 
z
" transform="scale(0.015625)"/>
       <path id="DejaVuSans-74" d="M 1172 4494 
L 1172 3500 
L 2356 3500 
L 2356 3053 
L 1172 3053 
L 1172 1153 
Q 1172 725 1289 603 
Q 1406 481 1766 481 
L 2356 481 
L 2356 0 
L 1766 0 
Q 1100 0 847 248 
Q 594 497 594 1153 
L 594 3053 
L 172 3053 
L 172 3500 
L 594 3500 
L 594 4494 
L 1172 4494 
z
" transform="scale(0.015625)"/>
       <path id="DejaVuSans-72" d="M 2631 2963 
Q 2534 3019 2420 3045 
Q 2306 3072 2169 3072 
Q 1681 3072 1420 2755 
Q 1159 2438 1159 1844 
L 1159 0 
L 581 0 
L 581 3500 
L 1159 3500 
L 1159 2956 
Q 1341 3275 1631 3429 
Q 1922 3584 2338 3584 
Q 2397 3584 2469 3576 
Q 2541 3569 2628 3553 
L 2631 2963 
z
" transform="scale(0.015625)"/>
      </defs>
      <use xlink:href="#DejaVuSans-52"/>
      <use xlink:href="#DejaVuSans-65" x="64.982422"/>
      <use xlink:href="#DejaVuSans-63" x="126.505859"/>
      <use xlink:href="#DejaVuSans-6f" x="181.486328"/>
      <use xlink:href="#DejaVuSans-6d" x="242.667969"/>
      <use xlink:href="#DejaVuSans-62" x="340.080078"/>
      <use xlink:href="#DejaVuSans-69" x="403.556641"/>
      <use xlink:href="#DejaVuSans-6e" x="431.339844"/>
      <use xlink:href="#DejaVuSans-61" x="494.71875"/>
      <use xlink:href="#DejaVuSans-74" x="555.998047"/>
      <use xlink:href="#DejaVuSans-69" x="595.207031"/>
      <use xlink:href="#DejaVuSans-6f" x="622.990234"/>
      <use xlink:href="#DejaVuSans-6e" x="684.171875"/>
      <use xlink:href="#DejaVuSans-20" x="747.550781"/>
      <use xlink:href="#DejaVuSans-72" x="779.337891"/>
      <use xlink:href="#DejaVuSans-61" x="820.451172"/>
      <use xlink:href="#DejaVuSans-74" x="881.730469"/>
      <use xlink:href="#DejaVuSans-65" x="920.939453"/>
     </g>
    </g>
    <g id="text_12">
     <!-- 1e9 -->
     <g transform="translate(36 22.92) scale(0.1 -0.1)">
      <defs>
       <path id="DejaVuSans-2212" d="M 678 2272 
L 4684 2272 
L 4684 1741 
L 678 1741 
L 678 2272 
z
" transform="scale(0.015625)"/>
       <path id="DejaVuSans-39" d="M 703 97 
L 703 672 
Q 941 559 1184 500 
Q 1428 441 1663 441 
Q 2288 441 2617 861 
Q 2947 1281 2994 2138 
Q 2813 1869 2534 1725 
Q 2256 1581 1919 1581 
Q 1219 1581 811 2004 
Q 403 2428 403 3163 
Q 403 3881 828 4315 
Q 1253 4750 1959 4750 
Q 2769 4750 3195 4129 
Q 3622 3509 3622 2328 
Q 3622 1225 3098 567 
Q 2575 -91 1691 -91 
Q 1453 -91 1209 -44 
Q 966 3 703 97 
z
M 1959 2075 
Q 2384 2075 2632 2365 
Q 2881 2656 2881 3163 
Q 2881 3666 2632 3958 
Q 2384 4250 1959 4250 
Q 1534 4250 1286 3958 
Q 1038 3666 1038 3163 
Q 1038 2656 1286 2365 
Q 1534 2075 1959 2075 
z
" transform="scale(0.015625)"/>
      </defs>
      <use xlink:href="#DejaVuSans-31"/>
      <use xlink:href="#DejaVuSans-65" x="63.623047"/>
      <use xlink:href="#DejaVuSans-2212" x="125.146484"/>
      <use xlink:href="#DejaVuSans-39" x="208.935547"/>
     </g>
    </g>
   </g>
   <g id="patch_3">
    <path d="M 36 192.24 
L 36 25.92 
" style="fill: none; stroke: #000000; stroke-width: 0.8; stroke-linejoin: miter; stroke-linecap: square"/>
   </g>
   <g id="patch_4">
    <path d="M 214.56 192.24 
L 214.56 25.92 
" style="fill: none; stroke: #000000; stroke-width: 0.8; stroke-linejoin: miter; stroke-linecap: square"/>
   </g>
   <g id="patch_5">
    <path d="M 36 192.24 
L 214.56 192.24 
" style="fill: none; stroke: #000000; stroke-width: 0.8; stroke-linejoin: miter; stroke-linecap: square"/>
   </g>
   <g id="patch_6">
    <path d="M 36 25.92 
L 214.56 25.92 
" style="fill: none; stroke: #000000; stroke-width: 0.8; stroke-linejoin: miter; stroke-linecap: square"/>
   </g>
   <g id="text_13">
    <!-- Ne2r-MSSMC-GT-P2-S4 -->
    <g transform="translate(34.9725 10.92) scale(0.16 -0.16)">
     <defs>
      <path id="DejaVuSans-2d" d="M 313 2009 
L 1997 2009 
L 1997 1497 
L 313 1497 
L 313 2009 
z
" transform="scale(0.015625)"/>
      <path id="DejaVuSans-4d" d="M 628 4666 
L 1569 4666 
L 2759 1491 
L 3956 4666 
L 4897 4666 
L 4897 0 
L 4281 0 
L 4281 4097 
L 3078 897 
L 2444 897 
L 1241 4097 
L 1241 0 
L 628 0 
L 628 4666 
z
" transform="scale(0.015625)"/>
      <path id="DejaVuSans-53" d="M 3425 4513 
L 3425 3897 
Q 3066 4069 2747 4153 
Q 2428 4238 2131 4238 
Q 1616 4238 1336 4038 
Q 1056 3838 1056 3469 
Q 1056 3159 1242 3001 
Q 1428 2844 1947 2747 
L 2328 2669 
Q 3034 2534 3370 2195 
Q 3706 1856 3706 1288 
Q 3706 609 3251 259 
Q 2797 -91 1919 -91 
Q 1588 -91 1214 -16 
Q 841 59 441 206 
L 441 856 
Q 825 641 1194 531 
Q 1563 422 1919 422 
Q 2459 422 2753 634 
Q 3047 847 3047 1241 
Q 3047 1584 2836 1778 
Q 2625 1972 2144 2069 
L 1759 2144 
Q 1053 2284 737 2584 
Q 422 2884 422 3419 
Q 422 4038 858 4394 
Q 1294 4750 2059 4750 
Q 2388 4750 2728 4690 
Q 3069 4631 3425 4513 
z
" transform="scale(0.015625)"/>
      <path id="DejaVuSans-43" d="M 4122 4306 
L 4122 3641 
Q 3803 3938 3442 4084 
Q 3081 4231 2675 4231 
Q 1875 4231 1450 3742 
Q 1025 3253 1025 2328 
Q 1025 1406 1450 917 
Q 1875 428 2675 428 
Q 3081 428 3442 575 
Q 3803 722 4122 1019 
L 4122 359 
Q 3791 134 3420 21 
Q 3050 -91 2638 -91 
Q 1578 -91 968 557 
Q 359 1206 359 2328 
Q 359 3453 968 4101 
Q 1578 4750 2638 4750 
Q 3056 4750 3426 4639 
Q 3797 4528 4122 4306 
z
" transform="scale(0.015625)"/>
      <path id="DejaVuSans-47" d="M 3809 666 
L 3809 1919 
L 2778 1919 
L 2778 2438 
L 4434 2438 
L 4434 434 
Q 4069 175 3628 42 
Q 3188 -91 2688 -91 
Q 1594 -91 976 548 
Q 359 1188 359 2328 
Q 359 3472 976 4111 
Q 1594 4750 2688 4750 
Q 3144 4750 3555 4637 
Q 3966 4525 4313 4306 
L 4313 3634 
Q 3963 3931 3569 4081 
Q 3175 4231 2741 4231 
Q 1884 4231 1454 3753 
Q 1025 3275 1025 2328 
Q 1025 1384 1454 906 
Q 1884 428 2741 428 
Q 3075 428 3337 486 
Q 3600 544 3809 666 
z
" transform="scale(0.015625)"/>
      <path id="DejaVuSans-54" d="M -19 4666 
L 3928 4666 
L 3928 4134 
L 2272 4134 
L 2272 0 
L 1638 0 
L 1638 4134 
L -19 4134 
L -19 4666 
z
" transform="scale(0.015625)"/>
      <path id="DejaVuSans-50" d="M 1259 4147 
L 1259 2394 
L 2053 2394 
Q 2494 2394 2734 2622 
Q 2975 2850 2975 3272 
Q 2975 3691 2734 3919 
Q 2494 4147 2053 4147 
L 1259 4147 
z
M 628 4666 
L 2053 4666 
Q 2838 4666 3239 4311 
Q 3641 3956 3641 3272 
Q 3641 2581 3239 2228 
Q 2838 1875 2053 1875 
L 1259 1875 
L 1259 0 
L 628 0 
L 628 4666 
z
" transform="scale(0.015625)"/>
      <path id="DejaVuSans-34" d="M 2419 4116 
L 825 1625 
L 2419 1625 
L 2419 4116 
z
M 2253 4666 
L 3047 4666 
L 3047 1625 
L 3713 1625 
L 3713 1100 
L 3047 1100 
L 3047 0 
L 2419 0 
L 2419 1100 
L 313 1100 
L 313 1709 
L 2253 4666 
z
" transform="scale(0.015625)"/>
     </defs>
     <use xlink:href="#DejaVuSans-4e"/>
     <use xlink:href="#DejaVuSans-65" x="74.804688"/>
     <use xlink:href="#DejaVuSans-32" x="136.328125"/>
     <use xlink:href="#DejaVuSans-72" x="199.951172"/>
     <use xlink:href="#DejaVuSans-2d" x="234.689453"/>
     <use xlink:href="#DejaVuSans-4d" x="270.773438"/>
     <use xlink:href="#DejaVuSans-53" x="357.052734"/>
     <use xlink:href="#DejaVuSans-53" x="420.529297"/>
     <use xlink:href="#DejaVuSans-4d" x="484.005859"/>
     <use xlink:href="#DejaVuSans-43" x="570.285156"/>
     <use xlink:href="#DejaVuSans-2d" x="640.109375"/>
     <use xlink:href="#DejaVuSans-47" x="679.818359"/>
     <use xlink:href="#DejaVuSans-54" x="753.683594"/>
     <use xlink:href="#DejaVuSans-2d" x="805.642578"/>
     <use xlink:href="#DejaVuSans-50" x="841.726562"/>
     <use xlink:href="#DejaVuSans-32" x="902.029297"/>
     <use xlink:href="#DejaVuSans-2d" x="965.652344"/>
     <use xlink:href="#DejaVuSans-53" x="1001.736328"/>
     <use xlink:href="#DejaVuSans-34" x="1065.212891"/>
    </g>
   </g>
  </g>
  <g id="axes_2">
   <g id="patch_7">
    <path d="M 225.72 192.24 
L 234.036 192.24 
L 234.036 25.92 
L 225.72 25.92 
z
" style="fill: #ffffff"/>
   </g>
   <g id="QuadMesh_1">
    <path d="M 225.72 192.24 
L 234.036 192.24 
L 234.036 186.696 
L 225.72 186.696 
L 225.72 192.24 
" clip-path="url(#pf7a3848c82)" style="fill: #440154"/>
    <path d="M 225.72 186.696 
L 234.036 186.696 
L 234.036 181.152 
L 225.72 181.152 
L 225.72 186.696 
" clip-path="url(#pf7a3848c82)" style="fill: #440154"/>
    <path d="M 225.72 181.152 
L 234.036 181.152 
L 234.036 175.608 
L 225.72 175.608 
L 225.72 181.152 
" clip-path="url(#pf7a3848c82)" style="fill: #440154"/>
    <path d="M 225.72 175.608 
L 234.036 175.608 
L 234.036 170.064 
L 225.72 170.064 
L 225.72 175.608 
" clip-path="url(#pf7a3848c82)" style="fill: #440154"/>
    <path d="M 225.72 170.064 
L 234.036 170.064 
L 234.036 164.52 
L 225.72 164.52 
L 225.72 170.064 
" clip-path="url(#pf7a3848c82)" style="fill: #440154"/>
    <path d="M 225.72 164.52 
L 234.036 164.52 
L 234.036 158.976 
L 225.72 158.976 
L 225.72 164.52 
" clip-path="url(#pf7a3848c82)" style="fill: #440154"/>
    <path d="M 225.72 158.976 
L 234.036 158.976 
L 234.036 153.432 
L 225.72 153.432 
L 225.72 158.976 
" clip-path="url(#pf7a3848c82)" style="fill: #440154"/>
    <path d="M 225.72 153.432 
L 234.036 153.432 
L 234.036 147.888 
L 225.72 147.888 
L 225.72 153.432 
" clip-path="url(#pf7a3848c82)" style="fill: #440154"/>
    <path d="M 225.72 147.888 
L 234.036 147.888 
L 234.036 142.344 
L 225.72 142.344 
L 225.72 147.888 
" clip-path="url(#pf7a3848c82)" style="fill: #440154"/>
    <path d="M 225.72 142.344 
L 234.036 142.344 
L 234.036 136.8 
L 225.72 136.8 
L 225.72 142.344 
" clip-path="url(#pf7a3848c82)" style="fill: #440154"/>
    <path d="M 225.72 136.8 
L 234.036 136.8 
L 234.036 131.256 
L 225.72 131.256 
L 225.72 136.8 
" clip-path="url(#pf7a3848c82)" style="fill: #440154"/>
    <path d="M 225.72 131.256 
L 234.036 131.256 
L 234.036 125.712 
L 225.72 125.712 
L 225.72 131.256 
" clip-path="url(#pf7a3848c82)" style="fill: #440154"/>
    <path d="M 225.72 125.712 
L 234.036 125.712 
L 234.036 120.168 
L 225.72 120.168 
L 225.72 125.712 
" clip-path="url(#pf7a3848c82)" style="fill: #440154"/>
    <path d="M 225.72 120.168 
L 234.036 120.168 
L 234.036 114.624 
L 225.72 114.624 
L 225.72 120.168 
" clip-path="url(#pf7a3848c82)" style="fill: #440154"/>
    <path d="M 225.72 114.624 
L 234.036 114.624 
L 234.036 109.08 
L 225.72 109.08 
L 225.72 114.624 
" clip-path="url(#pf7a3848c82)" style="fill: #440154"/>
    <path d="M 225.72 109.08 
L 234.036 109.08 
L 234.036 103.536 
L 225.72 103.536 
L 225.72 109.08 
" clip-path="url(#pf7a3848c82)" style="fill: #46085c"/>
    <path d="M 225.72 103.536 
L 234.036 103.536 
L 234.036 97.992 
L 225.72 97.992 
L 225.72 103.536 
" clip-path="url(#pf7a3848c82)" style="fill: #482071"/>
    <path d="M 225.72 97.992 
L 234.036 97.992 
L 234.036 92.448 
L 225.72 92.448 
L 225.72 97.992 
" clip-path="url(#pf7a3848c82)" style="fill: #453781"/>
    <path d="M 225.72 92.448 
L 234.036 92.448 
L 234.036 86.904 
L 225.72 86.904 
L 225.72 92.448 
" clip-path="url(#pf7a3848c82)" style="fill: #3e4a89"/>
    <path d="M 225.72 86.904 
L 234.036 86.904 
L 234.036 81.36 
L 225.72 81.36 
L 225.72 86.904 
" clip-path="url(#pf7a3848c82)" style="fill: #365d8d"/>
    <path d="M 225.72 81.36 
L 234.036 81.36 
L 234.036 75.816 
L 225.72 75.816 
L 225.72 81.36 
" clip-path="url(#pf7a3848c82)" style="fill: #2e6e8e"/>
    <path d="M 225.72 75.816 
L 234.036 75.816 
L 234.036 70.272 
L 225.72 70.272 
L 225.72 75.816 
" clip-path="url(#pf7a3848c82)" style="fill: #277f8e"/>
    <path d="M 225.72 70.272 
L 234.036 70.272 
L 234.036 64.728 
L 225.72 64.728 
L 225.72 70.272 
" clip-path="url(#pf7a3848c82)" style="fill: #218f8d"/>
    <path d="M 225.72 64.728 
L 234.036 64.728 
L 234.036 59.184 
L 225.72 59.184 
L 225.72 64.728 
" clip-path="url(#pf7a3848c82)" style="fill: #1f9f88"/>
    <path d="M 225.72 59.184 
L 234.036 59.184 
L 234.036 53.64 
L 225.72 53.64 
L 225.72 59.184 
" clip-path="url(#pf7a3848c82)" style="fill: #28ae80"/>
    <path d="M 225.72 53.64 
L 234.036 53.64 
L 234.036 48.096 
L 225.72 48.096 
L 225.72 53.64 
" clip-path="url(#pf7a3848c82)" style="fill: #42be71"/>
    <path d="M 225.72 48.096 
L 234.036 48.096 
L 234.036 42.552 
L 225.72 42.552 
L 225.72 48.096 
" clip-path="url(#pf7a3848c82)" style="fill: #65cb5e"/>
    <path d="M 225.72 42.552 
L 234.036 42.552 
L 234.036 37.008 
L 225.72 37.008 
L 225.72 42.552 
" clip-path="url(#pf7a3848c82)" style="fill: #8ed645"/>
    <path d="M 225.72 37.008 
L 234.036 37.008 
L 234.036 31.464 
L 225.72 31.464 
L 225.72 37.008 
" clip-path="url(#pf7a3848c82)" style="fill: #bddf26"/>
    <path d="M 225.72 31.464 
L 234.036 31.464 
L 234.036 25.92 
L 225.72 25.92 
L 225.72 31.464 
" clip-path="url(#pf7a3848c82)" style="fill: #eae51a"/>
   </g>
   <g id="matplotlib.axis_3"/>
   <g id="matplotlib.axis_4">
    <g id="ytick_6">
     <g id="line2d_9">
      <defs>
       <path id="me1ccba410b" d="M 0 0 
L 3.5 0 
" style="stroke: #000000; stroke-width: 0.8"/>
      </defs>
      <g>
       <use xlink:href="#me1ccba410b" x="234.036" y="181.152" style="stroke: #000000; stroke-width: 0.8"/>
      </g>
     </g>
     <g id="text_14">
      <!-- $\mathdefault{6750}$ -->
      <g transform="translate(241.036 184.951219) scale(0.1 -0.1)">
       <defs>
        <path id="DejaVuSans-36" d="M 2113 2584 
Q 1688 2584 1439 2293 
Q 1191 2003 1191 1497 
Q 1191 994 1439 701 
Q 1688 409 2113 409 
Q 2538 409 2786 701 
Q 3034 994 3034 1497 
Q 3034 2003 2786 2293 
Q 2538 2584 2113 2584 
z
M 3366 4563 
L 3366 3988 
Q 3128 4100 2886 4159 
Q 2644 4219 2406 4219 
Q 1781 4219 1451 3797 
Q 1122 3375 1075 2522 
Q 1259 2794 1537 2939 
Q 1816 3084 2150 3084 
Q 2853 3084 3261 2657 
Q 3669 2231 3669 1497 
Q 3669 778 3244 343 
Q 2819 -91 2113 -91 
Q 1303 -91 875 529 
Q 447 1150 447 2328 
Q 447 3434 972 4092 
Q 1497 4750 2381 4750 
Q 2619 4750 2861 4703 
Q 3103 4656 3366 4563 
z
" transform="scale(0.015625)"/>
       </defs>
       <use xlink:href="#DejaVuSans-2212" transform="translate(0 0.78125)"/>
       <use xlink:href="#DejaVuSans-36" transform="translate(83.789062 0.78125)"/>
       <use xlink:href="#DejaVuSans-37" transform="translate(147.412109 0.78125)"/>
       <use xlink:href="#DejaVuSans-35" transform="translate(211.035156 0.78125)"/>
       <use xlink:href="#DejaVuSans-30" transform="translate(274.658203 0.78125)"/>
      </g>
     </g>
    </g>
    <g id="ytick_7">
     <g id="line2d_10">
      <g>
       <use xlink:href="#me1ccba410b" x="234.036" y="158.976" style="stroke: #000000; stroke-width: 0.8"/>
      </g>
     </g>
     <g id="text_15">
      <!-- $\mathdefault{6630}$ -->
      <g transform="translate(241.036 162.775219) scale(0.1 -0.1)">
       <use xlink:href="#DejaVuSans-2212" transform="translate(0 0.78125)"/>
       <use xlink:href="#DejaVuSans-36" transform="translate(83.789062 0.78125)"/>
       <use xlink:href="#DejaVuSans-36" transform="translate(147.412109 0.78125)"/>
       <use xlink:href="#DejaVuSans-33" transform="translate(211.035156 0.78125)"/>
       <use xlink:href="#DejaVuSans-30" transform="translate(274.658203 0.78125)"/>
      </g>
     </g>
    </g>
    <g id="ytick_8">
     <g id="line2d_11">
      <g>
       <use xlink:href="#me1ccba410b" x="234.036" y="136.8" style="stroke: #000000; stroke-width: 0.8"/>
      </g>
     </g>
     <g id="text_16">
      <!-- $\mathdefault{6510}$ -->
      <g transform="translate(241.036 140.599219) scale(0.1 -0.1)">
       <use xlink:href="#DejaVuSans-2212" transform="translate(0 0.78125)"/>
       <use xlink:href="#DejaVuSans-36" transform="translate(83.789062 0.78125)"/>
       <use xlink:href="#DejaVuSans-35" transform="translate(147.412109 0.78125)"/>
       <use xlink:href="#DejaVuSans-31" transform="translate(211.035156 0.78125)"/>
       <use xlink:href="#DejaVuSans-30" transform="translate(274.658203 0.78125)"/>
      </g>
     </g>
    </g>
    <g id="ytick_9">
     <g id="line2d_12">
      <g>
       <use xlink:href="#me1ccba410b" x="234.036" y="114.624" style="stroke: #000000; stroke-width: 0.8"/>
      </g>
     </g>
     <g id="text_17">
      <!-- $\mathdefault{6390}$ -->
      <g transform="translate(241.036 118.423219) scale(0.1 -0.1)">
       <use xlink:href="#DejaVuSans-2212" transform="translate(0 0.78125)"/>
       <use xlink:href="#DejaVuSans-36" transform="translate(83.789062 0.78125)"/>
       <use xlink:href="#DejaVuSans-33" transform="translate(147.412109 0.78125)"/>
       <use xlink:href="#DejaVuSans-39" transform="translate(211.035156 0.78125)"/>
       <use xlink:href="#DejaVuSans-30" transform="translate(274.658203 0.78125)"/>
      </g>
     </g>
    </g>
    <g id="ytick_10">
     <g id="line2d_13">
      <g>
       <use xlink:href="#me1ccba410b" x="234.036" y="92.448" style="stroke: #000000; stroke-width: 0.8"/>
      </g>
     </g>
     <g id="text_18">
      <!-- $\mathdefault{6270}$ -->
      <g transform="translate(241.036 96.247219) scale(0.1 -0.1)">
       <use xlink:href="#DejaVuSans-2212" transform="translate(0 0.78125)"/>
       <use xlink:href="#DejaVuSans-36" transform="translate(83.789062 0.78125)"/>
       <use xlink:href="#DejaVuSans-32" transform="translate(147.412109 0.78125)"/>
       <use xlink:href="#DejaVuSans-37" transform="translate(211.035156 0.78125)"/>
       <use xlink:href="#DejaVuSans-30" transform="translate(274.658203 0.78125)"/>
      </g>
     </g>
    </g>
    <g id="ytick_11">
     <g id="line2d_14">
      <g>
       <use xlink:href="#me1ccba410b" x="234.036" y="70.272" style="stroke: #000000; stroke-width: 0.8"/>
      </g>
     </g>
     <g id="text_19">
      <!-- $\mathdefault{6150}$ -->
      <g transform="translate(241.036 74.071219) scale(0.1 -0.1)">
       <use xlink:href="#DejaVuSans-2212" transform="translate(0 0.78125)"/>
       <use xlink:href="#DejaVuSans-36" transform="translate(83.789062 0.78125)"/>
       <use xlink:href="#DejaVuSans-31" transform="translate(147.412109 0.78125)"/>
       <use xlink:href="#DejaVuSans-35" transform="translate(211.035156 0.78125)"/>
       <use xlink:href="#DejaVuSans-30" transform="translate(274.658203 0.78125)"/>
      </g>
     </g>
    </g>
    <g id="ytick_12">
     <g id="line2d_15">
      <g>
       <use xlink:href="#me1ccba410b" x="234.036" y="48.096" style="stroke: #000000; stroke-width: 0.8"/>
      </g>
     </g>
     <g id="text_20">
      <!-- $\mathdefault{6030}$ -->
      <g transform="translate(241.036 51.895219) scale(0.1 -0.1)">
       <use xlink:href="#DejaVuSans-2212" transform="translate(0 0.78125)"/>
       <use xlink:href="#DejaVuSans-36" transform="translate(83.789062 0.78125)"/>
       <use xlink:href="#DejaVuSans-30" transform="translate(147.412109 0.78125)"/>
       <use xlink:href="#DejaVuSans-33" transform="translate(211.035156 0.78125)"/>
       <use xlink:href="#DejaVuSans-30" transform="translate(274.658203 0.78125)"/>
      </g>
     </g>
    </g>
    <g id="ytick_13">
     <g id="line2d_16">
      <g>
       <use xlink:href="#me1ccba410b" x="234.036" y="25.92" style="stroke: #000000; stroke-width: 0.8"/>
      </g>
     </g>
     <g id="text_21">
      <!-- $\mathdefault{5910}$ -->
      <g transform="translate(241.036 29.719219) scale(0.1 -0.1)">
       <use xlink:href="#DejaVuSans-2212" transform="translate(0 0.78125)"/>
       <use xlink:href="#DejaVuSans-35" transform="translate(83.789062 0.78125)"/>
       <use xlink:href="#DejaVuSans-39" transform="translate(141.912109 0.78125)"/>
       <use xlink:href="#DejaVuSans-31" transform="translate(205.535156 0.78125)"/>
       <use xlink:href="#DejaVuSans-30" transform="translate(269.158203 0.78125)"/>
      </g>
     </g>
    </g>
    <g id="text_22">
     <!-- log likelihood -->
     <g transform="translate(288.054125 148.704375) rotate(-90) scale(0.12 -0.12)">
      <defs>
       <path id="DejaVuSans-67" d="M 2906 1791 
Q 2906 2416 2648 2759 
Q 2391 3103 1925 3103 
Q 1463 3103 1205 2759 
Q 947 2416 947 1791 
Q 947 1169 1205 825 
Q 1463 481 1925 481 
Q 2391 481 2648 825 
Q 2906 1169 2906 1791 
z
M 3481 434 
Q 3481 -459 3084 -895 
Q 2688 -1331 1869 -1331 
Q 1566 -1331 1297 -1286 
Q 1028 -1241 775 -1147 
L 775 -588 
Q 1028 -725 1275 -790 
Q 1522 -856 1778 -856 
Q 2344 -856 2625 -561 
Q 2906 -266 2906 331 
L 2906 616 
Q 2728 306 2450 153 
Q 2172 0 1784 0 
Q 1141 0 747 490 
Q 353 981 353 1791 
Q 353 2603 747 3093 
Q 1141 3584 1784 3584 
Q 2172 3584 2450 3431 
Q 2728 3278 2906 2969 
L 2906 3500 
L 3481 3500 
L 3481 434 
z
" transform="scale(0.015625)"/>
       <path id="DejaVuSans-6b" d="M 581 4863 
L 1159 4863 
L 1159 1991 
L 2875 3500 
L 3609 3500 
L 1753 1863 
L 3688 0 
L 2938 0 
L 1159 1709 
L 1159 0 
L 581 0 
L 581 4863 
z
" transform="scale(0.015625)"/>
       <path id="DejaVuSans-68" d="M 3513 2113 
L 3513 0 
L 2938 0 
L 2938 2094 
Q 2938 2591 2744 2837 
Q 2550 3084 2163 3084 
Q 1697 3084 1428 2787 
Q 1159 2491 1159 1978 
L 1159 0 
L 581 0 
L 581 4863 
L 1159 4863 
L 1159 2956 
Q 1366 3272 1645 3428 
Q 1925 3584 2291 3584 
Q 2894 3584 3203 3211 
Q 3513 2838 3513 2113 
z
" transform="scale(0.015625)"/>
      </defs>
      <use xlink:href="#DejaVuSans-6c"/>
      <use xlink:href="#DejaVuSans-6f" x="27.783203"/>
      <use xlink:href="#DejaVuSans-67" x="88.964844"/>
      <use xlink:href="#DejaVuSans-20" x="152.441406"/>
      <use xlink:href="#DejaVuSans-6c" x="184.228516"/>
      <use xlink:href="#DejaVuSans-69" x="212.011719"/>
      <use xlink:href="#DejaVuSans-6b" x="239.794922"/>
      <use xlink:href="#DejaVuSans-65" x="294.080078"/>
      <use xlink:href="#DejaVuSans-6c" x="355.603516"/>
      <use xlink:href="#DejaVuSans-69" x="383.386719"/>
      <use xlink:href="#DejaVuSans-68" x="411.169922"/>
      <use xlink:href="#DejaVuSans-6f" x="474.548828"/>
      <use xlink:href="#DejaVuSans-6f" x="535.730469"/>
      <use xlink:href="#DejaVuSans-64" x="596.912109"/>
     </g>
    </g>
    <g id="text_23">
     <!-- $\times\mathdefault{10^{3}}\mathdefault{}$ -->
     <g transform="translate(208.036 22.92) scale(0.1 -0.1)">
      <defs>
       <path id="DejaVuSans-d7" d="M 4488 3438 
L 3059 2003 
L 4488 575 
L 4116 197 
L 2681 1631 
L 1247 197 
L 878 575 
L 2303 2003 
L 878 3438 
L 1247 3816 
L 2681 2381 
L 4116 3816 
L 4488 3438 
z
" transform="scale(0.015625)"/>
      </defs>
      <use xlink:href="#DejaVuSans-d7" transform="translate(0 0.765625)"/>
      <use xlink:href="#DejaVuSans-31" transform="translate(83.789062 0.765625)"/>
      <use xlink:href="#DejaVuSans-30" transform="translate(147.412109 0.765625)"/>
      <use xlink:href="#DejaVuSans-33" transform="translate(211.992188 39.046875) scale(0.7)"/>
     </g>
    </g>
   </g>
   <g id="LineCollection_1"/>
   <g id="patch_8">
    <path d="M 225.72 192.24 
L 229.878 192.24 
L 234.036 192.24 
L 234.036 25.92 
L 229.878 25.92 
L 225.72 25.92 
L 225.72 192.24 
z
" style="fill: none; stroke: #000000; stroke-width: 0.8; stroke-linejoin: miter; stroke-linecap: square"/>
   </g>
  </g>
 </g>
 <defs>
  <clipPath id="pbc9bc43988">
   <rect x="36" y="25.92" width="178.56" height="166.32"/>
  </clipPath>
  <clipPath id="pf7a3848c82">
   <rect x="225.72" y="25.92" width="8.316" height="166.32"/>
  </clipPath>
 </defs>
</svg>
