<?xml version="1.0" encoding="utf-8" standalone="no"?>
<!DOCTYPE svg PUBLIC "-//W3C//DTD SVG 1.1//EN"
  "http://www.w3.org/Graphics/SVG/1.1/DTD/svg11.dtd">
<svg xmlns:xlink="http://www.w3.org/1999/xlink" width="288pt" height="216pt" viewBox="0 0 288 216" xmlns="http://www.w3.org/2000/svg" version="1.1">
 <metadata>
  <rdf:RDF xmlns:dc="http://purl.org/dc/elements/1.1/" xmlns:cc="http://creativecommons.org/ns#" xmlns:rdf="http://www.w3.org/1999/02/22-rdf-syntax-ns#">
   <cc:Work>
    <dc:type rdf:resource="http://purl.org/dc/dcmitype/StillImage"/>
    <dc:date>2023-07-18T18:02:26.094095</dc:date>
    <dc:format>image/svg+xml</dc:format>
    <dc:creator>
     <cc:Agent>
      <dc:title>Matplotlib v3.7.1, https://matplotlib.org/</dc:title>
     </cc:Agent>
    </dc:creator>
   </cc:Work>
  </rdf:RDF>
 </metadata>
 <defs>
  <style type="text/css">*{stroke-linejoin: round; stroke-linecap: butt}</style>
 </defs>
 <g id="figure_1">
  <g id="patch_1">
   <path d="M 0 216 
L 288 216 
L 288 0 
L 0 0 
z
" style="fill: #ffffff"/>
  </g>
  <g id="axes_1">
   <g id="patch_2">
    <path d="M 36 192.24 
L 214.56 192.24 
L 214.56 25.92 
L 36 25.92 
z
" style="fill: #ffffff"/>
   </g>
   <g id="PathCollection_1">
    <path d="M 36 186.696 
L 36 183.931678 
L 36.011659 186.696 
L 36.038046 192.24 
L 36 192.24 
z
" clip-path="url(#p445a394290)" style="fill: #440154"/>
   </g>
   <g id="PathCollection_2">
    <path d="M 36.011659 186.696 
L 36 183.931678 
L 36 181.152 
L 36 175.608 
L 36 170.064 
L 36 164.52 
L 36 158.976 
L 36 153.432 
L 36 147.888 
L 36 142.344 
L 36 136.8 
L 36 131.256 
L 36 125.712 
L 36 120.168 
L 36 114.624 
L 36 109.08 
L 36 103.536 
L 36 97.992 
L 36 92.448 
L 36 86.904 
L 36 81.36 
L 36 75.816 
L 36 70.272 
L 36 64.728 
L 36 59.184 
L 36 53.64 
L 36 48.096 
L 36 42.552 
L 36 37.008 
L 36 31.464 
L 36 25.92 
L 36.296469 25.92 
L 36.290536 31.464 
L 36.285001 37.008 
L 36.279883 42.552 
L 36.275201 48.096 
L 36.270976 53.64 
L 36.267233 59.184 
L 36.263996 64.728 
L 36.261291 70.272 
L 36.259148 75.816 
L 36.257599 81.36 
L 36.256677 86.904 
L 36.25642 92.448 
L 36.25687 97.992 
L 36.25807 103.536 
L 36.26007 109.08 
L 36.262924 114.624 
L 36.266691 120.168 
L 36.271439 125.712 
L 36.277241 131.256 
L 36.28418 136.8 
L 36.292348 142.344 
L 36.30185 147.888 
L 36.312804 153.432 
L 36.325346 158.976 
L 36.339629 164.52 
L 36.355834 170.064 
L 36.374168 175.608 
L 36.394874 181.152 
L 36.418239 186.696 
L 36.444607 192.24 
L 36.038046 192.24 
z
" clip-path="url(#p445a394290)" style="fill: #440154"/>
   </g>
   <g id="PathCollection_3">
    <path d="M 36.418239 186.696 
L 36.394874 181.152 
L 36.374168 175.608 
L 36.355834 170.064 
L 36.339629 164.52 
L 36.325346 158.976 
L 36.312804 153.432 
L 36.30185 147.888 
L 36.292348 142.344 
L 36.28418 136.8 
L 36.277241 131.256 
L 36.271439 125.712 
L 36.266691 120.168 
L 36.262924 114.624 
L 36.26007 109.08 
L 36.25807 103.536 
L 36.25687 97.992 
L 36.25642 92.448 
L 36.256677 86.904 
L 36.257599 81.36 
L 36.259148 75.816 
L 36.261291 70.272 
L 36.263996 64.728 
L 36.267233 59.184 
L 36.270976 53.64 
L 36.275201 48.096 
L 36.279883 42.552 
L 36.285001 37.008 
L 36.290536 31.464 
L 36.296469 25.92 
L 36.703596 25.92 
L 36.697644 31.464 
L 36.69209 37.008 
L 36.686953 42.552 
L 36.682252 48.096 
L 36.678009 53.64 
L 36.674247 59.184 
L 36.67099 64.728 
L 36.668267 70.272 
L 36.666105 75.816 
L 36.664537 81.36 
L 36.663596 86.904 
L 36.663321 92.448 
L 36.663751 97.992 
L 36.664932 103.536 
L 36.666913 109.08 
L 36.669748 114.624 
L 36.673497 120.168 
L 36.678226 125.712 
L 36.684009 131.256 
L 36.690929 136.8 
L 36.699078 142.344 
L 36.708561 147.888 
L 36.719496 153.432 
L 36.732019 158.976 
L 36.746284 164.52 
L 36.76247 170.064 
L 36.780785 175.608 
L 36.801472 181.152 
L 36.824818 186.696 
L 36.851167 192.24 
L 36.444607 192.24 
z
" clip-path="url(#p445a394290)" style="fill: #440154"/>
   </g>
   <g id="PathCollection_4">
    <path d="M 36.824818 186.696 
L 36.801472 181.152 
L 36.780785 175.608 
L 36.76247 170.064 
L 36.746284 164.52 
L 36.732019 158.976 
L 36.719496 153.432 
L 36.708561 147.888 
L 36.699078 142.344 
L 36.690929 136.8 
L 36.684009 131.256 
L 36.678226 125.712 
L 36.673497 120.168 
L 36.669748 114.624 
L 36.666913 109.08 
L 36.664932 103.536 
L 36.663751 97.992 
L 36.663321 92.448 
L 36.663596 86.904 
L 36.664537 81.36 
L 36.666105 75.816 
L 36.668267 70.272 
L 36.67099 64.728 
L 36.674247 59.184 
L 36.678009 53.64 
L 36.682252 48.096 
L 36.686953 42.552 
L 36.69209 37.008 
L 36.697644 31.464 
L 36.703596 25.92 
L 37.110723 25.92 
L 37.104752 31.464 
L 37.09918 37.008 
L 37.094023 42.552 
L 37.089303 48.096 
L 37.085041 53.64 
L 37.08126 59.184 
L 37.077985 64.728 
L 37.075242 70.272 
L 37.073062 75.816 
L 37.071475 81.36 
L 37.070515 86.904 
L 37.070221 92.448 
L 37.070632 97.992 
L 37.071795 103.536 
L 37.073757 109.08 
L 37.076573 114.624 
L 37.080303 120.168 
L 37.085013 125.712 
L 37.090777 131.256 
L 37.097678 136.8 
L 37.105808 142.344 
L 37.115272 147.888 
L 37.126189 153.432 
L 37.138693 158.976 
L 37.152939 164.52 
L 37.169106 170.064 
L 37.187402 175.608 
L 37.20807 181.152 
L 37.231397 186.696 
L 37.257728 192.24 
L 36.851167 192.24 
z
" clip-path="url(#p445a394290)" style="fill: #440154"/>
   </g>
   <g id="PathCollection_5">
    <path d="M 37.231397 186.696 
L 37.20807 181.152 
L 37.187402 175.608 
L 37.169106 170.064 
L 37.152939 164.52 
L 37.138693 158.976 
L 37.126189 153.432 
L 37.115272 147.888 
L 37.105808 142.344 
L 37.097678 136.8 
L 37.090777 131.256 
L 37.085013 125.712 
L 37.080303 120.168 
L 37.076573 114.624 
L 37.073757 109.08 
L 37.071795 103.536 
L 37.070632 97.992 
L 37.070221 92.448 
L 37.070515 86.904 
L 37.071475 81.36 
L 37.073062 75.816 
L 37.075242 70.272 
L 37.077985 64.728 
L 37.08126 59.184 
L 37.085041 53.64 
L 37.089303 48.096 
L 37.094023 42.552 
L 37.09918 37.008 
L 37.104752 31.464 
L 37.110723 25.92 
L 37.51785 25.92 
L 37.51186 31.464 
L 37.506269 37.008 
L 37.501094 42.552 
L 37.496355 48.096 
L 37.492074 53.64 
L 37.488274 59.184 
L 37.48498 64.728 
L 37.482218 70.272 
L 37.480019 75.816 
L 37.478413 81.36 
L 37.477434 86.904 
L 37.477121 92.448 
L 37.477514 97.992 
L 37.478657 103.536 
L 37.4806 109.08 
L 37.483398 114.624 
L 37.487109 120.168 
L 37.4918 125.712 
L 37.497545 131.256 
L 37.504427 136.8 
L 37.512539 142.344 
L 37.521984 147.888 
L 37.532881 153.432 
L 37.545366 158.976 
L 37.559594 164.52 
L 37.575742 170.064 
L 37.594019 175.608 
L 37.614668 181.152 
L 37.637976 186.696 
L 37.664288 192.24 
L 37.257728 192.24 
z
" clip-path="url(#p445a394290)" style="fill: #440154"/>
   </g>
   <g id="PathCollection_6">
    <path d="M 37.637976 186.696 
L 37.614668 181.152 
L 37.594019 175.608 
L 37.575742 170.064 
L 37.559594 164.52 
L 37.545366 158.976 
L 37.532881 153.432 
L 37.521984 147.888 
L 37.512539 142.344 
L 37.504427 136.8 
L 37.497545 131.256 
L 37.4918 125.712 
L 37.487109 120.168 
L 37.483398 114.624 
L 37.4806 109.08 
L 37.478657 103.536 
L 37.477514 97.992 
L 37.477121 92.448 
L 37.477434 86.904 
L 37.478413 81.36 
L 37.480019 75.816 
L 37.482218 70.272 
L 37.48498 64.728 
L 37.488274 59.184 
L 37.492074 53.64 
L 37.496355 48.096 
L 37.501094 42.552 
L 37.506269 37.008 
L 37.51186 31.464 
L 37.51785 25.92 
L 37.924977 25.92 
L 37.918969 31.464 
L 37.913358 37.008 
L 37.908164 42.552 
L 37.903406 48.096 
L 37.899106 53.64 
L 37.895287 59.184 
L 37.891974 64.728 
L 37.889194 70.272 
L 37.886976 75.816 
L 37.885351 81.36 
L 37.884353 86.904 
L 37.884021 92.448 
L 37.884395 97.992 
L 37.88552 103.536 
L 37.887444 109.08 
L 37.890222 114.624 
L 37.893915 120.168 
L 37.898587 125.712 
L 37.904313 131.256 
L 37.911176 136.8 
L 37.919269 142.344 
L 37.928695 147.888 
L 37.939574 153.432 
L 37.95204 158.976 
L 37.966249 164.52 
L 37.982378 170.064 
L 38.000636 175.608 
L 38.021266 181.152 
L 38.044556 186.696 
L 38.070848 192.24 
L 37.664288 192.24 
z
" clip-path="url(#p445a394290)" style="fill: #440154"/>
   </g>
   <g id="PathCollection_7">
    <path d="M 38.044556 186.696 
L 38.021266 181.152 
L 38.000636 175.608 
L 37.982378 170.064 
L 37.966249 164.52 
L 37.95204 158.976 
L 37.939574 153.432 
L 37.928695 147.888 
L 37.919269 142.344 
L 37.911176 136.8 
L 37.904313 131.256 
L 37.898587 125.712 
L 37.893915 120.168 
L 37.890222 114.624 
L 37.887444 109.08 
L 37.88552 103.536 
L 37.884395 97.992 
L 37.884021 92.448 
L 37.884353 86.904 
L 37.885351 81.36 
L 37.886976 75.816 
L 37.889194 70.272 
L 37.891974 64.728 
L 37.895287 59.184 
L 37.899106 53.64 
L 37.903406 48.096 
L 37.908164 42.552 
L 37.913358 37.008 
L 37.918969 31.464 
L 37.924977 25.92 
L 38.332104 25.92 
L 38.326077 31.464 
L 38.320447 37.008 
L 38.315234 42.552 
L 38.310458 48.096 
L 38.306139 53.64 
L 38.302301 59.184 
L 38.298969 64.728 
L 38.29617 70.272 
L 38.293932 75.816 
L 38.292289 81.36 
L 38.291272 86.904 
L 38.290921 92.448 
L 38.291276 97.992 
L 38.292382 103.536 
L 38.294288 109.08 
L 38.297047 114.624 
L 38.30072 120.168 
L 38.305374 125.712 
L 38.311081 131.256 
L 38.317925 136.8 
L 38.325999 142.344 
L 38.335406 147.888 
L 38.346266 153.432 
L 38.358714 158.976 
L 38.372903 164.52 
L 38.389014 170.064 
L 38.407253 175.608 
L 38.427864 181.152 
L 38.451135 186.696 
L 38.477409 192.24 
L 38.070848 192.24 
z
" clip-path="url(#p445a394290)" style="fill: #440154"/>
   </g>
   <g id="PathCollection_8">
    <path d="M 38.451135 186.696 
L 38.427864 181.152 
L 38.407253 175.608 
L 38.389014 170.064 
L 38.372903 164.52 
L 38.358714 158.976 
L 38.346266 153.432 
L 38.335406 147.888 
L 38.325999 142.344 
L 38.317925 136.8 
L 38.311081 131.256 
L 38.305374 125.712 
L 38.30072 120.168 
L 38.297047 114.624 
L 38.294288 109.08 
L 38.292382 103.536 
L 38.291276 97.992 
L 38.290921 92.448 
L 38.291272 86.904 
L 38.292289 81.36 
L 38.293932 75.816 
L 38.29617 70.272 
L 38.298969 64.728 
L 38.302301 59.184 
L 38.306139 53.64 
L 38.310458 48.096 
L 38.315234 42.552 
L 38.320447 37.008 
L 38.326077 31.464 
L 38.332104 25.92 
L 38.739231 25.92 
L 38.733185 31.464 
L 38.727536 37.008 
L 38.722305 42.552 
L 38.717509 48.096 
L 38.713171 53.64 
L 38.709315 59.184 
L 38.705964 64.728 
L 38.703146 70.272 
L 38.700889 75.816 
L 38.699227 81.36 
L 38.698192 86.904 
L 38.697822 92.448 
L 38.698158 97.992 
L 38.699244 103.536 
L 38.701131 109.08 
L 38.703872 114.624 
L 38.707526 120.168 
L 38.712161 125.712 
L 38.717849 131.256 
L 38.724675 136.8 
L 38.732729 142.344 
L 38.742118 147.888 
L 38.752959 153.432 
L 38.765387 158.976 
L 38.779558 164.52 
L 38.79565 170.064 
L 38.81387 175.608 
L 38.834462 181.152 
L 38.857714 186.696 
L 38.883969 192.24 
L 38.477409 192.24 
z
" clip-path="url(#p445a394290)" style="fill: #440154"/>
   </g>
   <g id="PathCollection_9">
    <path d="M 38.857714 186.696 
L 38.834462 181.152 
L 38.81387 175.608 
L 38.79565 170.064 
L 38.779558 164.52 
L 38.765387 158.976 
L 38.752959 153.432 
L 38.742118 147.888 
L 38.732729 142.344 
L 38.724675 136.8 
L 38.717849 131.256 
L 38.712161 125.712 
L 38.707526 120.168 
L 38.703872 114.624 
L 38.701131 109.08 
L 38.699244 103.536 
L 38.698158 97.992 
L 38.697822 92.448 
L 38.698192 86.904 
L 38.699227 81.36 
L 38.700889 75.816 
L 38.703146 70.272 
L 38.705964 64.728 
L 38.709315 59.184 
L 38.713171 53.64 
L 38.717509 48.096 
L 38.722305 42.552 
L 38.727536 37.008 
L 38.733185 31.464 
L 38.739231 25.92 
L 39.146358 25.92 
L 39.140293 31.464 
L 39.134626 37.008 
L 39.129375 42.552 
L 39.12456 48.096 
L 39.120204 53.64 
L 39.116328 59.184 
L 39.112958 64.728 
L 39.110121 70.272 
L 39.107846 75.816 
L 39.106165 81.36 
L 39.105111 86.904 
L 39.104722 92.448 
L 39.105039 97.992 
L 39.106107 103.536 
L 39.107975 109.08 
L 39.110696 114.624 
L 39.114332 120.168 
L 39.118948 125.712 
L 39.124617 131.256 
L 39.131424 136.8 
L 39.13946 142.344 
L 39.148829 147.888 
L 39.159651 153.432 
L 39.172061 158.976 
L 39.186213 164.52 
L 39.202286 170.064 
L 39.220487 175.608 
L 39.241061 181.152 
L 39.264294 186.696 
L 39.29053 192.24 
L 38.883969 192.24 
z
" clip-path="url(#p445a394290)" style="fill: #440154"/>
   </g>
   <g id="PathCollection_10">
    <path d="M 39.264294 186.696 
L 39.241061 181.152 
L 39.220487 175.608 
L 39.202286 170.064 
L 39.186213 164.52 
L 39.172061 158.976 
L 39.159651 153.432 
L 39.148829 147.888 
L 39.13946 142.344 
L 39.131424 136.8 
L 39.124617 131.256 
L 39.118948 125.712 
L 39.114332 120.168 
L 39.110696 114.624 
L 39.107975 109.08 
L 39.106107 103.536 
L 39.105039 97.992 
L 39.104722 92.448 
L 39.105111 86.904 
L 39.106165 81.36 
L 39.107846 75.816 
L 39.110121 70.272 
L 39.112958 64.728 
L 39.116328 59.184 
L 39.120204 53.64 
L 39.12456 48.096 
L 39.129375 42.552 
L 39.134626 37.008 
L 39.140293 31.464 
L 39.146358 25.92 
L 39.553485 25.92 
L 39.547401 31.464 
L 39.541715 37.008 
L 39.536445 42.552 
L 39.531612 48.096 
L 39.527236 53.64 
L 39.523342 59.184 
L 39.519953 64.728 
L 39.517097 70.272 
L 39.514803 75.816 
L 39.513103 81.36 
L 39.51203 86.904 
L 39.511622 92.448 
L 39.51192 97.992 
L 39.512969 103.536 
L 39.514818 109.08 
L 39.517521 114.624 
L 39.521138 120.168 
L 39.525734 125.712 
L 39.531385 131.256 
L 39.538173 136.8 
L 39.54619 142.344 
L 39.555541 147.888 
L 39.566344 153.432 
L 39.578735 158.976 
L 39.592868 164.52 
L 39.608922 170.064 
L 39.627104 175.608 
L 39.647659 181.152 
L 39.670873 186.696 
L 39.69709 192.24 
L 39.29053 192.24 
z
" clip-path="url(#p445a394290)" style="fill: #440154"/>
   </g>
   <g id="PathCollection_11">
    <path d="M 39.670873 186.696 
L 39.647659 181.152 
L 39.627104 175.608 
L 39.608922 170.064 
L 39.592868 164.52 
L 39.578735 158.976 
L 39.566344 153.432 
L 39.555541 147.888 
L 39.54619 142.344 
L 39.538173 136.8 
L 39.531385 131.256 
L 39.525734 125.712 
L 39.521138 120.168 
L 39.517521 114.624 
L 39.514818 109.08 
L 39.512969 103.536 
L 39.51192 97.992 
L 39.511622 92.448 
L 39.51203 86.904 
L 39.513103 81.36 
L 39.514803 75.816 
L 39.517097 70.272 
L 39.519953 64.728 
L 39.523342 59.184 
L 39.527236 53.64 
L 39.531612 48.096 
L 39.536445 42.552 
L 39.541715 37.008 
L 39.547401 31.464 
L 39.553485 25.92 
L 39.960612 25.92 
L 39.954509 31.464 
L 39.948804 37.008 
L 39.943515 42.552 
L 39.938663 48.096 
L 39.934269 53.64 
L 39.930355 59.184 
L 39.926948 64.728 
L 39.924073 70.272 
L 39.92176 75.816 
L 39.920041 81.36 
L 39.918949 86.904 
L 39.918522 92.448 
L 39.918802 97.992 
L 39.919832 103.536 
L 39.921662 109.08 
L 39.924346 114.624 
L 39.927943 120.168 
L 39.932521 125.712 
L 39.938153 131.256 
L 39.944922 136.8 
L 39.95292 142.344 
L 39.962252 147.888 
L 39.973036 153.432 
L 39.985408 158.976 
L 39.999522 164.52 
L 40.015557 170.064 
L 40.033721 175.608 
L 40.054257 181.152 
L 40.077452 186.696 
L 40.103651 192.24 
L 39.69709 192.24 
z
" clip-path="url(#p445a394290)" style="fill: #440154"/>
   </g>
   <g id="PathCollection_12">
    <path d="M 40.077452 186.696 
L 40.054257 181.152 
L 40.033721 175.608 
L 40.015557 170.064 
L 39.999522 164.52 
L 39.985408 158.976 
L 39.973036 153.432 
L 39.962252 147.888 
L 39.95292 142.344 
L 39.944922 136.8 
L 39.938153 131.256 
L 39.932521 125.712 
L 39.927943 120.168 
L 39.924346 114.624 
L 39.921662 109.08 
L 39.919832 103.536 
L 39.918802 97.992 
L 39.918522 92.448 
L 39.918949 86.904 
L 39.920041 81.36 
L 39.92176 75.816 
L 39.924073 70.272 
L 39.926948 64.728 
L 39.930355 59.184 
L 39.934269 53.64 
L 39.938663 48.096 
L 39.943515 42.552 
L 39.948804 37.008 
L 39.954509 31.464 
L 39.960612 25.92 
L 40.367739 25.92 
L 40.361617 31.464 
L 40.355893 37.008 
L 40.350586 42.552 
L 40.345715 48.096 
L 40.341301 53.64 
L 40.337369 59.184 
L 40.333942 64.728 
L 40.331049 70.272 
L 40.328717 75.816 
L 40.326979 81.36 
L 40.325868 86.904 
L 40.325422 92.448 
L 40.325683 97.992 
L 40.326694 103.536 
L 40.328505 109.08 
L 40.33117 114.624 
L 40.334749 120.168 
L 40.339308 125.712 
L 40.344921 131.256 
L 40.351671 136.8 
L 40.35965 142.344 
L 40.368963 147.888 
L 40.379729 153.432 
L 40.392082 158.976 
L 40.406177 164.52 
L 40.422193 170.064 
L 40.440338 175.608 
L 40.460855 181.152 
L 40.484032 186.696 
L 40.510211 192.24 
L 40.103651 192.24 
z
" clip-path="url(#p445a394290)" style="fill: #440154"/>
   </g>
   <g id="PathCollection_13">
    <path d="M 40.484032 186.696 
L 40.460855 181.152 
L 40.440338 175.608 
L 40.422193 170.064 
L 40.406177 164.52 
L 40.392082 158.976 
L 40.379729 153.432 
L 40.368963 147.888 
L 40.35965 142.344 
L 40.351671 136.8 
L 40.344921 131.256 
L 40.339308 125.712 
L 40.334749 120.168 
L 40.33117 114.624 
L 40.328505 109.08 
L 40.326694 103.536 
L 40.325683 97.992 
L 40.325422 92.448 
L 40.325868 86.904 
L 40.326979 81.36 
L 40.328717 75.816 
L 40.331049 70.272 
L 40.333942 64.728 
L 40.337369 59.184 
L 40.341301 53.64 
L 40.345715 48.096 
L 40.350586 42.552 
L 40.355893 37.008 
L 40.361617 31.464 
L 40.367739 25.92 
L 40.774866 25.92 
L 40.768726 31.464 
L 40.762983 37.008 
L 40.757656 42.552 
L 40.752766 48.096 
L 40.748334 53.64 
L 40.744383 59.184 
L 40.740937 64.728 
L 40.738025 70.272 
L 40.735674 75.816 
L 40.733917 81.36 
L 40.732787 86.904 
L 40.732323 92.448 
L 40.732564 97.992 
L 40.733557 103.536 
L 40.735349 109.08 
L 40.737995 114.624 
L 40.741555 120.168 
L 40.746095 125.712 
L 40.751689 131.256 
L 40.75842 136.8 
L 40.766381 142.344 
L 40.775675 147.888 
L 40.786421 153.432 
L 40.798755 158.976 
L 40.812832 164.52 
L 40.828829 170.064 
L 40.846955 175.608 
L 40.867453 181.152 
L 40.890611 186.696 
L 40.916771 192.24 
L 40.510211 192.24 
z
" clip-path="url(#p445a394290)" style="fill: #440154"/>
   </g>
   <g id="PathCollection_14">
    <path d="M 40.890611 186.696 
L 40.867453 181.152 
L 40.846955 175.608 
L 40.828829 170.064 
L 40.812832 164.52 
L 40.798755 158.976 
L 40.786421 153.432 
L 40.775675 147.888 
L 40.766381 142.344 
L 40.75842 136.8 
L 40.751689 131.256 
L 40.746095 125.712 
L 40.741555 120.168 
L 40.737995 114.624 
L 40.735349 109.08 
L 40.733557 103.536 
L 40.732564 97.992 
L 40.732323 92.448 
L 40.732787 86.904 
L 40.733917 81.36 
L 40.735674 75.816 
L 40.738025 70.272 
L 40.740937 64.728 
L 40.744383 59.184 
L 40.748334 53.64 
L 40.752766 48.096 
L 40.757656 42.552 
L 40.762983 37.008 
L 40.768726 31.464 
L 40.774866 25.92 
L 41.181993 25.92 
L 41.175834 31.464 
L 41.170072 37.008 
L 41.164726 42.552 
L 41.159817 48.096 
L 41.155366 53.64 
L 41.151396 59.184 
L 41.147932 64.728 
L 41.145 70.272 
L 41.142631 75.816 
L 41.140855 81.36 
L 41.139706 86.904 
L 41.139223 92.448 
L 41.139446 97.992 
L 41.140419 103.536 
L 41.142192 109.08 
L 41.14482 114.624 
L 41.148361 120.168 
L 41.152882 125.712 
L 41.158457 131.256 
L 41.165169 136.8 
L 41.173111 142.344 
L 41.182386 147.888 
L 41.193114 153.432 
L 41.205429 158.976 
L 41.219487 164.52 
L 41.235465 170.064 
L 41.253572 175.608 
L 41.274051 181.152 
L 41.29719 186.696 
L 41.323332 192.24 
L 40.916771 192.24 
z
" clip-path="url(#p445a394290)" style="fill: #440154"/>
   </g>
   <g id="PathCollection_15">
    <path d="M 41.29719 186.696 
L 41.274051 181.152 
L 41.253572 175.608 
L 41.235465 170.064 
L 41.219487 164.52 
L 41.205429 158.976 
L 41.193114 153.432 
L 41.182386 147.888 
L 41.173111 142.344 
L 41.165169 136.8 
L 41.158457 131.256 
L 41.152882 125.712 
L 41.148361 120.168 
L 41.14482 114.624 
L 41.142192 109.08 
L 41.140419 103.536 
L 41.139446 97.992 
L 41.139223 92.448 
L 41.139706 86.904 
L 41.140855 81.36 
L 41.142631 75.816 
L 41.145 70.272 
L 41.147932 64.728 
L 41.151396 59.184 
L 41.155366 53.64 
L 41.159817 48.096 
L 41.164726 42.552 
L 41.170072 37.008 
L 41.175834 31.464 
L 41.181993 25.92 
L 41.58912 25.92 
L 41.582942 31.464 
L 41.577161 37.008 
L 41.571797 42.552 
L 41.566869 48.096 
L 41.562399 53.64 
L 41.55841 59.184 
L 41.554927 64.728 
L 41.551976 70.272 
L 41.549588 75.816 
L 41.547793 81.36 
L 41.546625 86.904 
L 41.546123 92.448 
L 41.546327 97.992 
L 41.547281 103.536 
L 41.549036 109.08 
L 41.551644 114.624 
L 41.555166 120.168 
L 41.559669 125.712 
L 41.565225 131.256 
L 41.571918 136.8 
L 41.579841 142.344 
L 41.589097 147.888 
L 41.599806 153.432 
L 41.612103 158.976 
L 41.626141 164.52 
L 41.642101 170.064 
L 41.660189 175.608 
L 41.680649 181.152 
L 41.703769 186.696 
L 41.729892 192.24 
L 41.323332 192.24 
z
" clip-path="url(#p445a394290)" style="fill: #440154"/>
   </g>
   <g id="PathCollection_16">
    <path d="M 41.703769 186.696 
L 41.680649 181.152 
L 41.660189 175.608 
L 41.642101 170.064 
L 41.626141 164.52 
L 41.612103 158.976 
L 41.599806 153.432 
L 41.589097 147.888 
L 41.579841 142.344 
L 41.571918 136.8 
L 41.565225 131.256 
L 41.559669 125.712 
L 41.555166 120.168 
L 41.551644 114.624 
L 41.549036 109.08 
L 41.547281 103.536 
L 41.546327 97.992 
L 41.546123 92.448 
L 41.546625 86.904 
L 41.547793 81.36 
L 41.549588 75.816 
L 41.551976 70.272 
L 41.554927 64.728 
L 41.55841 59.184 
L 41.562399 53.64 
L 41.566869 48.096 
L 41.571797 42.552 
L 41.577161 37.008 
L 41.582942 31.464 
L 41.58912 25.92 
L 41.952 25.92 
L 42.057393 25.92 
L 42.042626 31.464 
L 42.028808 37.008 
L 42.015984 42.552 
L 42.0042 48.096 
L 41.993508 53.64 
L 41.983962 59.184 
L 41.975622 64.728 
L 41.968551 70.272 
L 41.962819 75.816 
L 41.9585 81.36 
L 41.955676 86.904 
L 41.954436 92.448 
L 41.954876 97.992 
L 41.957103 103.536 
L 41.961233 109.08 
L 41.967394 114.624 
L 41.97573 120.168 
L 41.986397 125.712 
L 41.999571 131.256 
L 42.015448 136.8 
L 42.034248 142.344 
L 42.056219 147.888 
L 42.081643 153.432 
L 42.11084 158.976 
L 42.144177 164.52 
L 42.18208 170.064 
L 42.225042 175.608 
L 42.273639 181.152 
L 42.328555 186.696 
L 42.390607 192.24 
L 41.952 192.24 
L 41.729892 192.24 
z
" clip-path="url(#p445a394290)" style="fill: #440154"/>
   </g>
   <g id="PathCollection_17">
    <path d="M 42.328555 186.696 
L 42.273639 181.152 
L 42.225042 175.608 
L 42.18208 170.064 
L 42.144177 164.52 
L 42.11084 158.976 
L 42.081643 153.432 
L 42.056219 147.888 
L 42.034248 142.344 
L 42.015448 136.8 
L 41.999571 131.256 
L 41.986397 125.712 
L 41.97573 120.168 
L 41.967394 114.624 
L 41.961233 109.08 
L 41.957103 103.536 
L 41.954876 97.992 
L 41.954436 92.448 
L 41.955676 86.904 
L 41.9585 81.36 
L 41.962819 75.816 
L 41.968551 70.272 
L 41.975622 64.728 
L 41.983962 59.184 
L 41.993508 53.64 
L 42.0042 48.096 
L 42.015984 42.552 
L 42.028808 37.008 
L 42.042626 31.464 
L 42.057393 25.92 
L 43.027129 25.92 
L 43.012262 31.464 
L 42.998345 37.008 
L 42.98542 42.552 
L 42.973537 48.096 
L 42.962745 53.64 
L 42.9531 59.184 
L 42.94466 64.728 
L 42.93749 70.272 
L 42.931658 75.816 
L 42.92724 81.36 
L 42.924316 86.904 
L 42.922976 92.448 
L 42.923317 97.992 
L 42.925444 103.536 
L 42.929474 109.08 
L 42.935537 114.624 
L 42.943773 120.168 
L 42.954341 125.712 
L 42.967415 131.256 
L 42.983193 136.8 
L 43.001893 142.344 
L 43.023765 147.888 
L 43.04909 153.432 
L 43.078187 158.976 
L 43.111426 164.52 
L 43.149229 170.064 
L 43.192091 175.608 
L 43.24059 181.152 
L 43.295407 186.696 
L 43.357359 192.24 
L 42.390607 192.24 
z
" clip-path="url(#p445a394290)" style="fill: #471063"/>
   </g>
   <g id="PathCollection_18">
    <path d="M 43.295407 186.696 
L 43.24059 181.152 
L 43.192091 175.608 
L 43.149229 170.064 
L 43.111426 164.52 
L 43.078187 158.976 
L 43.04909 153.432 
L 43.023765 147.888 
L 43.001893 142.344 
L 42.983193 136.8 
L 42.967415 131.256 
L 42.954341 125.712 
L 42.943773 120.168 
L 42.935537 114.624 
L 42.929474 109.08 
L 42.925444 103.536 
L 42.923317 97.992 
L 42.922976 92.448 
L 42.924316 86.904 
L 42.92724 81.36 
L 42.931658 75.816 
L 42.93749 70.272 
L 42.94466 64.728 
L 42.9531 59.184 
L 42.962745 53.64 
L 42.973537 48.096 
L 42.98542 42.552 
L 42.998345 37.008 
L 43.012262 31.464 
L 43.027129 25.92 
L 43.996865 25.92 
L 43.981898 31.464 
L 43.967881 37.008 
L 43.954857 42.552 
L 43.942874 48.096 
L 43.931982 53.64 
L 43.922238 59.184 
L 43.913698 64.728 
L 43.906428 70.272 
L 43.900497 75.816 
L 43.895979 81.36 
L 43.892956 86.904 
L 43.891516 92.448 
L 43.891757 97.992 
L 43.893785 103.536 
L 43.897716 109.08 
L 43.903679 114.624 
L 43.911816 120.168 
L 43.922284 125.712 
L 43.93526 131.256 
L 43.950938 136.8 
L 43.969539 142.344 
L 43.991311 147.888 
L 44.016536 153.432 
L 44.045535 158.976 
L 44.078674 164.52 
L 44.116378 170.064 
L 44.159141 175.608 
L 44.20754 181.152 
L 44.262258 186.696 
L 44.324111 192.24 
L 43.357359 192.24 
z
" clip-path="url(#p445a394290)" style="fill: #482677"/>
   </g>
   <g id="PathCollection_19">
    <path d="M 44.262258 186.696 
L 44.20754 181.152 
L 44.159141 175.608 
L 44.116378 170.064 
L 44.078674 164.52 
L 44.045535 158.976 
L 44.016536 153.432 
L 43.991311 147.888 
L 43.969539 142.344 
L 43.950938 136.8 
L 43.93526 131.256 
L 43.922284 125.712 
L 43.911816 120.168 
L 43.903679 114.624 
L 43.897716 109.08 
L 43.893785 103.536 
L 43.891757 97.992 
L 43.891516 92.448 
L 43.892956 86.904 
L 43.895979 81.36 
L 43.900497 75.816 
L 43.906428 70.272 
L 43.913698 64.728 
L 43.922238 59.184 
L 43.931982 53.64 
L 43.942874 48.096 
L 43.954857 42.552 
L 43.967881 37.008 
L 43.981898 31.464 
L 43.996865 25.92 
L 44.9666 25.92 
L 44.951534 31.464 
L 44.937417 37.008 
L 44.924294 42.552 
L 44.912211 48.096 
L 44.90122 53.64 
L 44.891375 59.184 
L 44.882736 64.728 
L 44.875367 70.272 
L 44.869336 75.816 
L 44.864718 81.36 
L 44.861596 86.904 
L 44.860056 92.448 
L 44.860198 97.992 
L 44.862126 103.536 
L 44.865958 109.08 
L 44.871821 114.624 
L 44.879859 120.168 
L 44.890228 125.712 
L 44.903104 131.256 
L 44.918682 136.8 
L 44.937184 142.344 
L 44.958857 147.888 
L 44.983983 153.432 
L 45.012882 158.976 
L 45.045922 164.52 
L 45.083528 170.064 
L 45.126191 175.608 
L 45.174491 181.152 
L 45.22911 186.696 
L 45.290863 192.24 
L 44.324111 192.24 
z
" clip-path="url(#p445a394290)" style="fill: #443b84"/>
   </g>
   <g id="PathCollection_20">
    <path d="M 45.22911 186.696 
L 45.174491 181.152 
L 45.126191 175.608 
L 45.083528 170.064 
L 45.045922 164.52 
L 45.012882 158.976 
L 44.983983 153.432 
L 44.958857 147.888 
L 44.937184 142.344 
L 44.918682 136.8 
L 44.903104 131.256 
L 44.890228 125.712 
L 44.879859 120.168 
L 44.871821 114.624 
L 44.865958 109.08 
L 44.862126 103.536 
L 44.860198 97.992 
L 44.860056 92.448 
L 44.861596 86.904 
L 44.864718 81.36 
L 44.869336 75.816 
L 44.875367 70.272 
L 44.882736 64.728 
L 44.891375 59.184 
L 44.90122 53.64 
L 44.912211 48.096 
L 44.924294 42.552 
L 44.937417 37.008 
L 44.951534 31.464 
L 44.9666 25.92 
L 45.936336 25.92 
L 45.92117 31.464 
L 45.906954 37.008 
L 45.89373 42.552 
L 45.881548 48.096 
L 45.870457 53.64 
L 45.860513 59.184 
L 45.851774 64.728 
L 45.844305 70.272 
L 45.838175 75.816 
L 45.833457 81.36 
L 45.830235 86.904 
L 45.828597 92.448 
L 45.828639 97.992 
L 45.830468 103.536 
L 45.8342 109.08 
L 45.839964 114.624 
L 45.847902 120.168 
L 45.858171 125.712 
L 45.870948 131.256 
L 45.886427 136.8 
L 45.90483 142.344 
L 45.926404 147.888 
L 45.95143 153.432 
L 45.98023 158.976 
L 46.013171 164.52 
L 46.050677 170.064 
L 46.093241 175.608 
L 46.141442 181.152 
L 46.195961 186.696 
L 46.257616 192.24 
L 45.290863 192.24 
z
" clip-path="url(#p445a394290)" style="fill: #3c4f8a"/>
   </g>
   <g id="PathCollection_21">
    <path d="M 46.195961 186.696 
L 46.141442 181.152 
L 46.093241 175.608 
L 46.050677 170.064 
L 46.013171 164.52 
L 45.98023 158.976 
L 45.95143 153.432 
L 45.926404 147.888 
L 45.90483 142.344 
L 45.886427 136.8 
L 45.870948 131.256 
L 45.858171 125.712 
L 45.847902 120.168 
L 45.839964 114.624 
L 45.8342 109.08 
L 45.830468 103.536 
L 45.828639 97.992 
L 45.828597 92.448 
L 45.830235 86.904 
L 45.833457 81.36 
L 45.838175 75.816 
L 45.844305 70.272 
L 45.851774 64.728 
L 45.860513 59.184 
L 45.870457 53.64 
L 45.881548 48.096 
L 45.89373 42.552 
L 45.906954 37.008 
L 45.92117 31.464 
L 45.936336 25.92 
L 46.906072 25.92 
L 46.890807 31.464 
L 46.87649 37.008 
L 46.863167 42.552 
L 46.850885 48.096 
L 46.839694 53.64 
L 46.829651 59.184 
L 46.820812 64.728 
L 46.813244 70.272 
L 46.807013 75.816 
L 46.802197 81.36 
L 46.798875 86.904 
L 46.797137 92.448 
L 46.797079 97.992 
L 46.798809 103.536 
L 46.802441 109.08 
L 46.808106 114.624 
L 46.815945 120.168 
L 46.826115 125.712 
L 46.838792 131.256 
L 46.854172 136.8 
L 46.872475 142.344 
L 46.89395 147.888 
L 46.918877 153.432 
L 46.947577 158.976 
L 46.980419 164.52 
L 47.017826 170.064 
L 47.060291 175.608 
L 47.108392 181.152 
L 47.162813 186.696 
L 47.224368 192.24 
L 46.257616 192.24 
z
" clip-path="url(#p445a394290)" style="fill: #34618d"/>
   </g>
   <g id="PathCollection_22">
    <path d="M 47.162813 186.696 
L 47.108392 181.152 
L 47.060291 175.608 
L 47.017826 170.064 
L 46.980419 164.52 
L 46.947577 158.976 
L 46.918877 153.432 
L 46.89395 147.888 
L 46.872475 142.344 
L 46.854172 136.8 
L 46.838792 131.256 
L 46.826115 125.712 
L 46.815945 120.168 
L 46.808106 114.624 
L 46.802441 109.08 
L 46.798809 103.536 
L 46.797079 97.992 
L 46.797137 92.448 
L 46.798875 86.904 
L 46.802197 81.36 
L 46.807013 75.816 
L 46.813244 70.272 
L 46.820812 64.728 
L 46.829651 59.184 
L 46.839694 53.64 
L 46.850885 48.096 
L 46.863167 42.552 
L 46.87649 37.008 
L 46.890807 31.464 
L 46.906072 25.92 
L 47.875808 25.92 
L 47.860443 31.464 
L 47.846027 37.008 
L 47.832604 42.552 
L 47.820222 48.096 
L 47.808932 53.64 
L 47.798788 59.184 
L 47.78985 64.728 
L 47.782182 70.272 
L 47.775852 75.816 
L 47.770936 81.36 
L 47.767515 86.904 
L 47.765677 92.448 
L 47.76552 97.992 
L 47.76715 103.536 
L 47.770683 109.08 
L 47.776248 114.624 
L 47.783988 120.168 
L 47.794058 125.712 
L 47.806636 131.256 
L 47.821917 136.8 
L 47.840121 142.344 
L 47.861496 147.888 
L 47.886324 153.432 
L 47.904 156.858202 
L 47.924784 158.976 
L 47.987069 164.52 
L 48.058027 170.064 
L 48.138595 175.608 
L 48.229869 181.152 
L 48.333146 186.696 
L 48.449973 192.24 
L 47.904 192.24 
L 47.224368 192.24 
z
" clip-path="url(#p445a394290)" style="fill: #2c718e"/>
   </g>
   <g id="PathCollection_23">
    <path d="M 47.886324 153.432 
L 47.861496 147.888 
L 47.840121 142.344 
L 47.821917 136.8 
L 47.806636 131.256 
L 47.794058 125.712 
L 47.783988 120.168 
L 47.776248 114.624 
L 47.770683 109.08 
L 47.76715 103.536 
L 47.76552 97.992 
L 47.765677 92.448 
L 47.767515 86.904 
L 47.770936 81.36 
L 47.775852 75.816 
L 47.782182 70.272 
L 47.78985 64.728 
L 47.798788 59.184 
L 47.808932 53.64 
L 47.820222 48.096 
L 47.832604 42.552 
L 47.846027 37.008 
L 47.860443 31.464 
L 47.875808 25.92 
L 47.904 25.92 
L 49.698717 25.92 
L 49.669096 31.464 
L 49.641288 37.008 
L 49.615379 42.552 
L 49.591456 48.096 
L 49.569618 53.64 
L 49.549969 59.184 
L 49.532619 64.728 
L 49.51769 70.272 
L 49.505314 75.816 
L 49.495632 81.36 
L 49.488799 86.904 
L 49.484982 92.448 
L 49.484366 97.992 
L 49.487153 103.536 
L 49.493563 109.08 
L 49.50384 114.624 
L 49.518254 120.168 
L 49.537104 125.712 
L 49.560722 131.256 
L 49.58948 136.8 
L 49.623796 142.344 
L 49.664141 147.888 
L 49.711048 153.432 
L 49.765127 158.976 
L 49.827075 164.52 
L 49.897697 170.064 
L 49.977929 175.608 
L 50.068867 181.152 
L 50.171808 186.696 
L 50.2883 192.24 
L 48.449973 192.24 
L 48.333146 186.696 
L 48.229869 181.152 
L 48.138595 175.608 
L 48.058027 170.064 
L 47.987069 164.52 
L 47.924784 158.976 
L 47.904 156.858202 
z
" clip-path="url(#p445a394290)" style="fill: #26828e"/>
   </g>
   <g id="PathCollection_24">
    <path d="M 50.171808 186.696 
L 50.068867 181.152 
L 49.977929 175.608 
L 49.897697 170.064 
L 49.827075 164.52 
L 49.765127 158.976 
L 49.711048 153.432 
L 49.664141 147.888 
L 49.623796 142.344 
L 49.58948 136.8 
L 49.560722 131.256 
L 49.537104 125.712 
L 49.518254 120.168 
L 49.50384 114.624 
L 49.493563 109.08 
L 49.487153 103.536 
L 49.484366 97.992 
L 49.484982 92.448 
L 49.488799 86.904 
L 49.495632 81.36 
L 49.505314 75.816 
L 49.51769 70.272 
L 49.532619 64.728 
L 49.549969 59.184 
L 49.569618 53.64 
L 49.591456 48.096 
L 49.615379 42.552 
L 49.641288 37.008 
L 49.669096 31.464 
L 49.698717 25.92 
L 51.547172 25.92 
L 51.517211 31.464 
L 51.489064 37.008 
L 51.462815 42.552 
L 51.438554 48.096 
L 51.416377 53.64 
L 51.396389 59.184 
L 51.3787 64.728 
L 51.363433 70.272 
L 51.350719 75.816 
L 51.340698 81.36 
L 51.333527 86.904 
L 51.329372 92.448 
L 51.328418 97.992 
L 51.330867 103.536 
L 51.33694 109.08 
L 51.346879 114.624 
L 51.360956 120.168 
L 51.379468 125.712 
L 51.402749 131.256 
L 51.43117 136.8 
L 51.465149 142.344 
L 51.505157 147.888 
L 51.551728 153.432 
L 51.60547 158.976 
L 51.667082 164.52 
L 51.737367 170.064 
L 51.817263 175.608 
L 51.907865 181.152 
L 52.01047 186.696 
L 52.126626 192.24 
L 50.2883 192.24 
z
" clip-path="url(#p445a394290)" style="fill: #20928c"/>
   </g>
   <g id="PathCollection_25">
    <path d="M 52.01047 186.696 
L 51.907865 181.152 
L 51.817263 175.608 
L 51.737367 170.064 
L 51.667082 164.52 
L 51.60547 158.976 
L 51.551728 153.432 
L 51.505157 147.888 
L 51.465149 142.344 
L 51.43117 136.8 
L 51.402749 131.256 
L 51.379468 125.712 
L 51.360956 120.168 
L 51.346879 114.624 
L 51.33694 109.08 
L 51.330867 103.536 
L 51.328418 97.992 
L 51.329372 92.448 
L 51.333527 86.904 
L 51.340698 81.36 
L 51.350719 75.816 
L 51.363433 70.272 
L 51.3787 64.728 
L 51.396389 59.184 
L 51.416377 53.64 
L 51.438554 48.096 
L 51.462815 42.552 
L 51.489064 37.008 
L 51.517211 31.464 
L 51.547172 25.92 
L 53.395626 25.92 
L 53.365326 31.464 
L 53.33684 37.008 
L 53.310252 42.552 
L 53.285652 48.096 
L 53.263136 53.64 
L 53.242809 59.184 
L 53.224782 64.728 
L 53.209176 70.272 
L 53.196123 75.816 
L 53.185764 81.36 
L 53.178255 86.904 
L 53.173762 92.448 
L 53.172471 97.992 
L 53.174582 103.536 
L 53.180316 109.08 
L 53.189918 114.624 
L 53.203657 120.168 
L 53.221832 125.712 
L 53.244776 131.256 
L 53.27286 136.8 
L 53.306502 142.344 
L 53.346173 147.888 
L 53.392408 153.432 
L 53.445814 158.976 
L 53.507088 164.52 
L 53.577038 170.064 
L 53.656597 175.608 
L 53.746863 181.152 
L 53.849132 186.696 
L 53.856 187.024688 
L 54.040228 192.24 
L 53.856 192.24 
L 52.126626 192.24 
z
" clip-path="url(#p445a394290)" style="fill: #1fa188"/>
   </g>
   <g id="PathCollection_26">
    <path d="M 53.849132 186.696 
L 53.746863 181.152 
L 53.656597 175.608 
L 53.577038 170.064 
L 53.507088 164.52 
L 53.445814 158.976 
L 53.392408 153.432 
L 53.346173 147.888 
L 53.306502 142.344 
L 53.27286 136.8 
L 53.244776 131.256 
L 53.221832 125.712 
L 53.203657 120.168 
L 53.189918 114.624 
L 53.180316 109.08 
L 53.174582 103.536 
L 53.172471 97.992 
L 53.173762 92.448 
L 53.178255 86.904 
L 53.185764 81.36 
L 53.196123 75.816 
L 53.209176 70.272 
L 53.224782 64.728 
L 53.242809 59.184 
L 53.263136 53.64 
L 53.285652 48.096 
L 53.310252 42.552 
L 53.33684 37.008 
L 53.365326 31.464 
L 53.395626 25.92 
L 53.856 25.92 
L 56.210738 25.92 
L 56.15851 31.464 
L 56.109372 37.008 
L 56.063462 42.552 
L 56.020934 48.096 
L 55.981949 53.64 
L 55.946683 59.184 
L 55.915324 64.728 
L 55.888077 70.272 
L 55.865161 75.816 
L 55.846816 81.36 
L 55.833303 86.904 
L 55.824905 92.448 
L 55.821932 97.992 
L 55.824723 103.536 
L 55.83365 109.08 
L 55.849126 114.624 
L 55.871603 120.168 
L 55.901586 125.712 
L 55.939636 131.256 
L 55.986379 136.8 
L 56.04252 142.344 
L 56.108852 147.888 
L 56.186277 153.432 
L 56.275819 158.976 
L 56.378655 164.52 
L 56.496143 170.064 
L 56.629861 175.608 
L 56.781659 181.152 
L 56.953722 186.696 
L 57.148662 192.24 
L 54.040228 192.24 
L 53.856 187.024688 
z
" clip-path="url(#p445a394290)" style="fill: #2ab07f"/>
   </g>
   <g id="PathCollection_27">
    <path d="M 56.953722 186.696 
L 56.781659 181.152 
L 56.629861 175.608 
L 56.496143 170.064 
L 56.378655 164.52 
L 56.275819 158.976 
L 56.186277 153.432 
L 56.108852 147.888 
L 56.04252 142.344 
L 55.986379 136.8 
L 55.939636 131.256 
L 55.901586 125.712 
L 55.871603 120.168 
L 55.849126 114.624 
L 55.83365 109.08 
L 55.824723 103.536 
L 55.821932 97.992 
L 55.824905 92.448 
L 55.833303 86.904 
L 55.846816 81.36 
L 55.865161 75.816 
L 55.888077 70.272 
L 55.915324 64.728 
L 55.946683 59.184 
L 55.981949 53.64 
L 56.020934 48.096 
L 56.063462 42.552 
L 56.109372 37.008 
L 56.15851 31.464 
L 56.210738 25.92 
L 59.346452 25.92 
L 59.293308 31.464 
L 59.243253 37.008 
L 59.196427 42.552 
L 59.152983 48.096 
L 59.113084 53.64 
L 59.076903 59.184 
L 59.044631 64.728 
L 59.01647 70.272 
L 58.992641 75.816 
L 58.973385 81.36 
L 58.95896 86.904 
L 58.949651 92.448 
L 58.945767 97.992 
L 58.947647 103.536 
L 58.955666 109.08 
L 58.970232 114.624 
L 58.991801 120.168 
L 59.020876 125.712 
L 59.058018 131.256 
L 59.103854 136.8 
L 59.159089 142.344 
L 59.224515 147.888 
L 59.301034 153.432 
L 59.389671 158.976 
L 59.491603 164.52 
L 59.608187 170.064 
L 59.741002 175.608 
L 59.808 178.069151 
L 59.940291 181.152 
L 60.210124 186.696 
L 60.515945 192.24 
L 59.808 192.24 
L 57.148662 192.24 
z
" clip-path="url(#p445a394290)" style="fill: #44bf70"/>
   </g>
   <g id="PathCollection_28">
    <path d="M 59.741002 175.608 
L 59.608187 170.064 
L 59.491603 164.52 
L 59.389671 158.976 
L 59.301034 153.432 
L 59.224515 147.888 
L 59.159089 142.344 
L 59.103854 136.8 
L 59.058018 131.256 
L 59.020876 125.712 
L 58.991801 120.168 
L 58.970232 114.624 
L 58.955666 109.08 
L 58.947647 103.536 
L 58.945767 97.992 
L 58.949651 92.448 
L 58.95896 86.904 
L 58.973385 81.36 
L 58.992641 75.816 
L 59.01647 70.272 
L 59.044631 64.728 
L 59.076903 59.184 
L 59.113084 53.64 
L 59.152983 48.096 
L 59.196427 42.552 
L 59.243253 37.008 
L 59.293308 31.464 
L 59.346452 25.92 
L 59.808 25.92 
L 64.041438 25.92 
L 63.95526 31.464 
L 63.873997 37.008 
L 63.79787 42.552 
L 63.727116 48.096 
L 63.66199 53.64 
L 63.602766 59.184 
L 63.549741 64.728 
L 63.503234 70.272 
L 63.463591 75.816 
L 63.431188 81.36 
L 63.406432 86.904 
L 63.389769 92.448 
L 63.381685 97.992 
L 63.382712 103.536 
L 63.393435 109.08 
L 63.414499 114.624 
L 63.446617 120.168 
L 63.490579 125.712 
L 63.547267 131.256 
L 63.617664 136.8 
L 63.702877 142.344 
L 63.804151 147.888 
L 63.922901 153.432 
L 64.060737 158.976 
L 64.219508 164.52 
L 64.401346 170.064 
L 64.608731 175.608 
L 64.844568 181.152 
L 65.112291 186.696 
L 65.416004 192.24 
L 60.515945 192.24 
L 60.210124 186.696 
L 59.940291 181.152 
L 59.808 178.069151 
z
" clip-path="url(#p445a394290)" style="fill: #67cc5c"/>
   </g>
   <g id="PathCollection_29">
    <path d="M 65.112291 186.696 
L 64.844568 181.152 
L 64.608731 175.608 
L 64.401346 170.064 
L 64.219508 164.52 
L 64.060737 158.976 
L 63.922901 153.432 
L 63.804151 147.888 
L 63.702877 142.344 
L 63.617664 136.8 
L 63.547267 131.256 
L 63.490579 125.712 
L 63.446617 120.168 
L 63.414499 114.624 
L 63.393435 109.08 
L 63.382712 103.536 
L 63.381685 97.992 
L 63.389769 92.448 
L 63.406432 86.904 
L 63.431188 81.36 
L 63.463591 75.816 
L 63.503234 70.272 
L 63.549741 64.728 
L 63.602766 59.184 
L 63.66199 53.64 
L 63.727116 48.096 
L 63.79787 42.552 
L 63.873997 37.008 
L 63.95526 31.464 
L 64.041438 25.92 
L 65.76 25.92 
L 70.683633 25.92 
L 70.548722 31.464 
L 70.421317 37.008 
L 70.301751 42.552 
L 70.190378 48.096 
L 70.08758 53.64 
L 69.993768 59.184 
L 69.909386 64.728 
L 69.834912 70.272 
L 69.770865 75.816 
L 69.717807 81.36 
L 69.676351 86.904 
L 69.647163 92.448 
L 69.630972 97.992 
L 69.628577 103.536 
L 69.640854 109.08 
L 69.668772 114.624 
L 69.713399 120.168 
L 69.775922 125.712 
L 69.857662 131.256 
L 69.960096 136.8 
L 70.084885 142.344 
L 70.233899 147.888 
L 70.40926 153.432 
L 70.613388 158.976 
L 70.849056 164.52 
L 71.119469 170.064 
L 71.428349 175.608 
L 71.712 180.078644 
L 71.812016 181.152 
L 72.399229 186.696 
L 73.065708 192.24 
L 71.712 192.24 
L 65.76 192.24 
L 65.416004 192.24 
z
" clip-path="url(#p445a394290)" style="fill: #90d743"/>
   </g>
   <g id="PathCollection_30">
    <path d="M 71.428349 175.608 
L 71.119469 170.064 
L 70.849056 164.52 
L 70.613388 158.976 
L 70.40926 153.432 
L 70.233899 147.888 
L 70.084885 142.344 
L 69.960096 136.8 
L 69.857662 131.256 
L 69.775922 125.712 
L 69.713399 120.168 
L 69.668772 114.624 
L 69.640854 109.08 
L 69.628577 103.536 
L 69.630972 97.992 
L 69.647163 92.448 
L 69.676351 86.904 
L 69.717807 81.36 
L 69.770865 75.816 
L 69.834912 70.272 
L 69.909386 64.728 
L 69.993768 59.184 
L 70.08758 53.64 
L 70.190378 48.096 
L 70.301751 42.552 
L 70.421317 37.008 
L 70.548722 31.464 
L 70.683633 25.92 
L 71.712 25.92 
L 77.664 25.92 
L 83.030998 25.92 
L 82.723738 31.464 
L 82.433083 37.008 
L 82.159719 42.552 
L 81.904383 48.096 
L 81.667867 53.64 
L 81.451026 59.184 
L 81.254779 64.728 
L 81.080123 70.272 
L 80.928138 75.816 
L 80.799994 81.36 
L 80.696967 86.904 
L 80.620447 92.448 
L 80.571955 97.992 
L 80.553156 103.536 
L 80.565885 109.08 
L 80.612161 114.624 
L 80.69422 120.168 
L 80.814544 125.712 
L 80.975897 131.256 
L 81.181373 136.8 
L 81.434446 142.344 
L 81.739038 147.888 
L 82.099596 153.432 
L 82.521193 158.976 
L 83.009649 164.52 
L 83.571684 170.064 
L 83.616 170.445428 
L 84.483629 175.608 
L 85.54575 181.152 
L 86.753673 186.696 
L 88.125943 192.24 
L 83.616 192.24 
L 77.664 192.24 
L 73.065708 192.24 
L 72.399229 186.696 
L 71.812016 181.152 
L 71.712 180.078644 
z
" clip-path="url(#p445a394290)" style="fill: #bddf26"/>
    <path d="M 184.8 187.232587 
L 185.240391 186.696 
L 189.173484 181.152 
L 190.752 178.565714 
L 192.530277 175.608 
L 195.382093 170.064 
L 196.704 167.036701 
L 197.791355 164.52 
L 199.803833 158.976 
L 201.467855 153.432 
L 202.656 148.547322 
L 202.815265 147.888 
L 203.871255 142.344 
L 204.666074 136.8 
L 205.221584 131.256 
L 205.557179 125.712 
L 205.690143 120.168 
L 205.635946 114.624 
L 205.408486 109.08 
L 205.020296 103.536 
L 204.482718 97.992 
L 203.806045 92.448 
L 202.999649 86.904 
L 202.656 84.852937 
L 202.070081 81.36 
L 201.025753 75.816 
L 199.875113 70.272 
L 198.624819 64.728 
L 197.281004 59.184 
L 196.704 56.952692 
L 195.844206 53.64 
L 194.321072 48.096 
L 192.720035 42.552 
L 191.045654 37.008 
L 190.752 36.076079 
L 189.28872 31.464 
L 187.463674 25.92 
L 190.752 25.92 
L 196.704 25.92 
L 202.656 25.92 
L 208.608 25.92 
L 214.56 25.92 
L 214.56 31.464 
L 214.56 37.008 
L 214.56 42.552 
L 214.56 48.096 
L 214.56 53.64 
L 214.56 59.184 
L 214.56 64.728 
L 214.56 70.272 
L 214.56 75.816 
L 214.56 81.36 
L 214.56 86.904 
L 214.56 92.448 
L 214.56 97.992 
L 214.56 103.536 
L 214.56 109.08 
L 214.56 114.624 
L 214.56 120.168 
L 214.56 125.712 
L 214.56 131.256 
L 214.56 136.8 
L 214.56 142.344 
L 214.56 147.888 
L 214.56 153.432 
L 214.56 158.976 
L 214.56 164.52 
L 214.56 170.064 
L 214.56 175.608 
L 214.56 181.152 
L 214.56 186.696 
L 214.56 192.24 
L 208.608 192.24 
L 202.656 192.24 
L 196.704 192.24 
L 190.752 192.24 
L 184.8 192.24 
L 180.604739 192.24 
z
" clip-path="url(#p445a394290)" style="fill: #bddf26"/>
   </g>
   <g id="PathCollection_31">
    <path d="M 83.571684 170.064 
L 83.009649 164.52 
L 82.521193 158.976 
L 82.099596 153.432 
L 81.739038 147.888 
L 81.434446 142.344 
L 81.181373 136.8 
L 80.975897 131.256 
L 80.814544 125.712 
L 80.69422 120.168 
L 80.612161 114.624 
L 80.565885 109.08 
L 80.553156 103.536 
L 80.571955 97.992 
L 80.620447 92.448 
L 80.696967 86.904 
L 80.799994 81.36 
L 80.928138 75.816 
L 81.080123 70.272 
L 81.254779 64.728 
L 81.451026 59.184 
L 81.667867 53.64 
L 81.904383 48.096 
L 82.159719 42.552 
L 82.433083 37.008 
L 82.723738 31.464 
L 83.030998 25.92 
L 83.616 25.92 
L 89.568 25.92 
L 95.52 25.92 
L 101.472 25.92 
L 107.424 25.92 
L 113.376 25.92 
L 119.328 25.92 
L 125.28 25.92 
L 131.232 25.92 
L 137.184 25.92 
L 143.136 25.92 
L 149.088 25.92 
L 155.04 25.92 
L 160.992 25.92 
L 166.944 25.92 
L 172.896 25.92 
L 178.848 25.92 
L 184.8 25.92 
L 187.463674 25.92 
L 189.28872 31.464 
L 190.752 36.076079 
L 191.045654 37.008 
L 192.720035 42.552 
L 194.321072 48.096 
L 195.844206 53.64 
L 196.704 56.952692 
L 197.281004 59.184 
L 198.624819 64.728 
L 199.875113 70.272 
L 201.025753 75.816 
L 202.070081 81.36 
L 202.656 84.852937 
L 202.999649 86.904 
L 203.806045 92.448 
L 204.482718 97.992 
L 205.020296 103.536 
L 205.408486 109.08 
L 205.635946 114.624 
L 205.690143 120.168 
L 205.557179 125.712 
L 205.221584 131.256 
L 204.666074 136.8 
L 203.871255 142.344 
L 202.815265 147.888 
L 202.656 148.547322 
L 201.467855 153.432 
L 199.803833 158.976 
L 197.791355 164.52 
L 196.704 167.036701 
L 195.382093 170.064 
L 192.530277 175.608 
L 190.752 178.565714 
L 189.173484 181.152 
L 185.240391 186.696 
L 184.8 187.232587 
L 180.604739 192.24 
L 178.848 192.24 
L 172.896 192.24 
L 166.944 192.24 
L 160.992 192.24 
L 155.04 192.24 
L 149.088 192.24 
L 143.136 192.24 
L 137.184 192.24 
L 131.232 192.24 
L 125.28 192.24 
L 119.328 192.24 
L 113.376 192.24 
L 107.424 192.24 
L 101.472 192.24 
L 95.52 192.24 
L 89.568 192.24 
L 88.125943 192.24 
L 86.753673 186.696 
L 85.54575 181.152 
L 84.483629 175.608 
L 83.616 170.445428 
z
" clip-path="url(#p445a394290)" style="fill: #eae51a"/>
   </g>
   <g id="PathCollection_32">
    <defs>
     <path id="m619083a0e9" d="M -4.330127 4.330127 
L 4.330127 -4.330127 
M -4.330127 -4.330127 
L 4.330127 4.330127 
" style="stroke: #000000; stroke-width: 2"/>
    </defs>
    <g clip-path="url(#p445a394290)">
     <use xlink:href="#m619083a0e9" x="105.44" y="109.08" style="stroke: #000000; stroke-width: 2"/>
    </g>
   </g>
   <g id="matplotlib.axis_1">
    <g id="xtick_1">
     <g id="line2d_1">
      <defs>
       <path id="m9d29bdabfe" d="M 0 0 
L 0 3.5 
" style="stroke: #000000; stroke-width: 0.8"/>
      </defs>
      <g>
       <use xlink:href="#m9d29bdabfe" x="75.68" y="192.24" style="stroke: #000000; stroke-width: 0.8"/>
      </g>
     </g>
     <g id="text_1">
      <!-- 250 -->
      <g transform="translate(64.2275 208.358125) scale(0.12 -0.12)">
       <defs>
        <path id="DejaVuSans-32" d="M 1228 531 
L 3431 531 
L 3431 0 
L 469 0 
L 469 531 
Q 828 903 1448 1529 
Q 2069 2156 2228 2338 
Q 2531 2678 2651 2914 
Q 2772 3150 2772 3378 
Q 2772 3750 2511 3984 
Q 2250 4219 1831 4219 
Q 1534 4219 1204 4116 
Q 875 4013 500 3803 
L 500 4441 
Q 881 4594 1212 4672 
Q 1544 4750 1819 4750 
Q 2544 4750 2975 4387 
Q 3406 4025 3406 3419 
Q 3406 3131 3298 2873 
Q 3191 2616 2906 2266 
Q 2828 2175 2409 1742 
Q 1991 1309 1228 531 
z
" transform="scale(0.015625)"/>
        <path id="DejaVuSans-35" d="M 691 4666 
L 3169 4666 
L 3169 4134 
L 1269 4134 
L 1269 2991 
Q 1406 3038 1543 3061 
Q 1681 3084 1819 3084 
Q 2600 3084 3056 2656 
Q 3513 2228 3513 1497 
Q 3513 744 3044 326 
Q 2575 -91 1722 -91 
Q 1428 -91 1123 -41 
Q 819 9 494 109 
L 494 744 
Q 775 591 1075 516 
Q 1375 441 1709 441 
Q 2250 441 2565 725 
Q 2881 1009 2881 1497 
Q 2881 1984 2565 2268 
Q 2250 2553 1709 2553 
Q 1456 2553 1204 2497 
Q 953 2441 691 2322 
L 691 4666 
z
" transform="scale(0.015625)"/>
        <path id="DejaVuSans-30" d="M 2034 4250 
Q 1547 4250 1301 3770 
Q 1056 3291 1056 2328 
Q 1056 1369 1301 889 
Q 1547 409 2034 409 
Q 2525 409 2770 889 
Q 3016 1369 3016 2328 
Q 3016 3291 2770 3770 
Q 2525 4250 2034 4250 
z
M 2034 4750 
Q 2819 4750 3233 4129 
Q 3647 3509 3647 2328 
Q 3647 1150 3233 529 
Q 2819 -91 2034 -91 
Q 1250 -91 836 529 
Q 422 1150 422 2328 
Q 422 3509 836 4129 
Q 1250 4750 2034 4750 
z
" transform="scale(0.015625)"/>
       </defs>
       <use xlink:href="#DejaVuSans-32"/>
       <use xlink:href="#DejaVuSans-35" x="63.623047"/>
       <use xlink:href="#DejaVuSans-30" x="127.246094"/>
      </g>
     </g>
    </g>
    <g id="xtick_2">
     <g id="line2d_2">
      <g>
       <use xlink:href="#m9d29bdabfe" x="125.28" y="192.24" style="stroke: #000000; stroke-width: 0.8"/>
      </g>
     </g>
     <g id="text_2">
      <!-- 500 -->
      <g transform="translate(113.8275 208.358125) scale(0.12 -0.12)">
       <use xlink:href="#DejaVuSans-35"/>
       <use xlink:href="#DejaVuSans-30" x="63.623047"/>
       <use xlink:href="#DejaVuSans-30" x="127.246094"/>
      </g>
     </g>
    </g>
    <g id="xtick_3">
     <g id="line2d_3">
      <g>
       <use xlink:href="#m9d29bdabfe" x="174.88" y="192.24" style="stroke: #000000; stroke-width: 0.8"/>
      </g>
     </g>
     <g id="text_3">
      <!-- 750 -->
      <g transform="translate(163.4275 208.358125) scale(0.12 -0.12)">
       <defs>
        <path id="DejaVuSans-37" d="M 525 4666 
L 3525 4666 
L 3525 4397 
L 1831 0 
L 1172 0 
L 2766 4134 
L 525 4134 
L 525 4666 
z
" transform="scale(0.015625)"/>
       </defs>
       <use xlink:href="#DejaVuSans-37"/>
       <use xlink:href="#DejaVuSans-35" x="63.623047"/>
       <use xlink:href="#DejaVuSans-30" x="127.246094"/>
      </g>
     </g>
    </g>
    <g id="text_4">
     <!-- Diploid N$_e$2 -->
     <g transform="translate(80 227.01375) scale(0.16 -0.16)">
      <defs>
       <path id="DejaVuSans-44" d="M 1259 4147 
L 1259 519 
L 2022 519 
Q 2988 519 3436 956 
Q 3884 1394 3884 2338 
Q 3884 3275 3436 3711 
Q 2988 4147 2022 4147 
L 1259 4147 
z
M 628 4666 
L 1925 4666 
Q 3281 4666 3915 4102 
Q 4550 3538 4550 2338 
Q 4550 1131 3912 565 
Q 3275 0 1925 0 
L 628 0 
L 628 4666 
z
" transform="scale(0.015625)"/>
       <path id="DejaVuSans-69" d="M 603 3500 
L 1178 3500 
L 1178 0 
L 603 0 
L 603 3500 
z
M 603 4863 
L 1178 4863 
L 1178 4134 
L 603 4134 
L 603 4863 
z
" transform="scale(0.015625)"/>
       <path id="DejaVuSans-70" d="M 1159 525 
L 1159 -1331 
L 581 -1331 
L 581 3500 
L 1159 3500 
L 1159 2969 
Q 1341 3281 1617 3432 
Q 1894 3584 2278 3584 
Q 2916 3584 3314 3078 
Q 3713 2572 3713 1747 
Q 3713 922 3314 415 
Q 2916 -91 2278 -91 
Q 1894 -91 1617 61 
Q 1341 213 1159 525 
z
M 3116 1747 
Q 3116 2381 2855 2742 
Q 2594 3103 2138 3103 
Q 1681 3103 1420 2742 
Q 1159 2381 1159 1747 
Q 1159 1113 1420 752 
Q 1681 391 2138 391 
Q 2594 391 2855 752 
Q 3116 1113 3116 1747 
z
" transform="scale(0.015625)"/>
       <path id="DejaVuSans-6c" d="M 603 4863 
L 1178 4863 
L 1178 0 
L 603 0 
L 603 4863 
z
" transform="scale(0.015625)"/>
       <path id="DejaVuSans-6f" d="M 1959 3097 
Q 1497 3097 1228 2736 
Q 959 2375 959 1747 
Q 959 1119 1226 758 
Q 1494 397 1959 397 
Q 2419 397 2687 759 
Q 2956 1122 2956 1747 
Q 2956 2369 2687 2733 
Q 2419 3097 1959 3097 
z
M 1959 3584 
Q 2709 3584 3137 3096 
Q 3566 2609 3566 1747 
Q 3566 888 3137 398 
Q 2709 -91 1959 -91 
Q 1206 -91 779 398 
Q 353 888 353 1747 
Q 353 2609 779 3096 
Q 1206 3584 1959 3584 
z
" transform="scale(0.015625)"/>
       <path id="DejaVuSans-64" d="M 2906 2969 
L 2906 4863 
L 3481 4863 
L 3481 0 
L 2906 0 
L 2906 525 
Q 2725 213 2448 61 
Q 2172 -91 1784 -91 
Q 1150 -91 751 415 
Q 353 922 353 1747 
Q 353 2572 751 3078 
Q 1150 3584 1784 3584 
Q 2172 3584 2448 3432 
Q 2725 3281 2906 2969 
z
M 947 1747 
Q 947 1113 1208 752 
Q 1469 391 1925 391 
Q 2381 391 2643 752 
Q 2906 1113 2906 1747 
Q 2906 2381 2643 2742 
Q 2381 3103 1925 3103 
Q 1469 3103 1208 2742 
Q 947 2381 947 1747 
z
" transform="scale(0.015625)"/>
       <path id="DejaVuSans-20" transform="scale(0.015625)"/>
       <path id="DejaVuSans-4e" d="M 628 4666 
L 1478 4666 
L 3547 763 
L 3547 4666 
L 4159 4666 
L 4159 0 
L 3309 0 
L 1241 3903 
L 1241 0 
L 628 0 
L 628 4666 
z
" transform="scale(0.015625)"/>
       <path id="DejaVuSans-Oblique-65" d="M 3078 2063 
Q 3088 2113 3092 2166 
Q 3097 2219 3097 2272 
Q 3097 2653 2873 2875 
Q 2650 3097 2266 3097 
Q 1838 3097 1509 2826 
Q 1181 2556 1013 2059 
L 3078 2063 
z
M 3578 1613 
L 903 1613 
Q 884 1494 878 1425 
Q 872 1356 872 1306 
Q 872 872 1139 634 
Q 1406 397 1894 397 
Q 2269 397 2603 481 
Q 2938 566 3225 728 
L 3116 159 
Q 2806 34 2476 -28 
Q 2147 -91 1806 -91 
Q 1078 -91 686 257 
Q 294 606 294 1247 
Q 294 1794 489 2264 
Q 684 2734 1063 3103 
Q 1306 3334 1642 3459 
Q 1978 3584 2356 3584 
Q 2950 3584 3301 3228 
Q 3653 2872 3653 2272 
Q 3653 2128 3634 1964 
Q 3616 1800 3578 1613 
z
" transform="scale(0.015625)"/>
      </defs>
      <use xlink:href="#DejaVuSans-44" transform="translate(0 0.015625)"/>
      <use xlink:href="#DejaVuSans-69" transform="translate(77.001953 0.015625)"/>
      <use xlink:href="#DejaVuSans-70" transform="translate(104.785156 0.015625)"/>
      <use xlink:href="#DejaVuSans-6c" transform="translate(168.261719 0.015625)"/>
      <use xlink:href="#DejaVuSans-6f" transform="translate(196.044922 0.015625)"/>
      <use xlink:href="#DejaVuSans-69" transform="translate(257.226562 0.015625)"/>
      <use xlink:href="#DejaVuSans-64" transform="translate(285.009766 0.015625)"/>
      <use xlink:href="#DejaVuSans-20" transform="translate(348.486328 0.015625)"/>
      <use xlink:href="#DejaVuSans-4e" transform="translate(380.273438 0.015625)"/>
      <use xlink:href="#DejaVuSans-Oblique-65" transform="translate(456.035156 -16.390625) scale(0.7)"/>
      <use xlink:href="#DejaVuSans-32" transform="translate(501.835938 0.015625)"/>
     </g>
    </g>
    <g id="text_5">
     <!-- 1e3 -->
     <g transform="translate(195.681875 221.452188) scale(0.1 -0.1)">
      <defs>
       <path id="DejaVuSans-31" d="M 794 531 
L 1825 531 
L 1825 4091 
L 703 3866 
L 703 4441 
L 1819 4666 
L 2450 4666 
L 2450 531 
L 3481 531 
L 3481 0 
L 794 0 
L 794 531 
z
" transform="scale(0.015625)"/>
       <path id="DejaVuSans-65" d="M 3597 1894 
L 3597 1613 
L 953 1613 
Q 991 1019 1311 708 
Q 1631 397 2203 397 
Q 2534 397 2845 478 
Q 3156 559 3463 722 
L 3463 178 
Q 3153 47 2828 -22 
Q 2503 -91 2169 -91 
Q 1331 -91 842 396 
Q 353 884 353 1716 
Q 353 2575 817 3079 
Q 1281 3584 2069 3584 
Q 2775 3584 3186 3129 
Q 3597 2675 3597 1894 
z
M 3022 2063 
Q 3016 2534 2758 2815 
Q 2500 3097 2075 3097 
Q 1594 3097 1305 2825 
Q 1016 2553 972 2059 
L 3022 2063 
z
" transform="scale(0.015625)"/>
       <path id="DejaVuSans-33" d="M 2597 2516 
Q 3050 2419 3304 2112 
Q 3559 1806 3559 1356 
Q 3559 666 3084 287 
Q 2609 -91 1734 -91 
Q 1441 -91 1130 -33 
Q 819 25 488 141 
L 488 750 
Q 750 597 1062 519 
Q 1375 441 1716 441 
Q 2309 441 2620 675 
Q 2931 909 2931 1356 
Q 2931 1769 2642 2001 
Q 2353 2234 1838 2234 
L 1294 2234 
L 1294 2753 
L 1863 2753 
Q 2328 2753 2575 2939 
Q 2822 3125 2822 3475 
Q 2822 3834 2567 4026 
Q 2313 4219 1838 4219 
Q 1578 4219 1281 4162 
Q 984 4106 628 3988 
L 628 4550 
Q 988 4650 1302 4700 
Q 1616 4750 1894 4750 
Q 2613 4750 3031 4423 
Q 3450 4097 3450 3541 
Q 3450 3153 3228 2886 
Q 3006 2619 2597 2516 
z
" transform="scale(0.015625)"/>
      </defs>
      <use xlink:href="#DejaVuSans-31"/>
      <use xlink:href="#DejaVuSans-65" x="63.623047"/>
      <use xlink:href="#DejaVuSans-33" x="125.146484"/>
     </g>
    </g>
   </g>
   <g id="matplotlib.axis_2">
    <g id="ytick_1">
     <g id="line2d_4">
      <defs>
       <path id="m6106dace53" d="M 0 0 
L -3.5 0 
" style="stroke: #000000; stroke-width: 0.8"/>
      </defs>
      <g>
       <use xlink:href="#m6106dace53" x="36" y="192.24" style="stroke: #000000; stroke-width: 0.8"/>
      </g>
     </g>
     <g id="text_6">
      <!-- 1.0 -->
      <g transform="translate(9.91625 196.799062) scale(0.12 -0.12)">
       <defs>
        <path id="DejaVuSans-2e" d="M 684 794 
L 1344 794 
L 1344 0 
L 684 0 
L 684 794 
z
" transform="scale(0.015625)"/>
       </defs>
       <use xlink:href="#DejaVuSans-31"/>
       <use xlink:href="#DejaVuSans-2e" x="63.623047"/>
       <use xlink:href="#DejaVuSans-30" x="95.410156"/>
      </g>
     </g>
    </g>
    <g id="ytick_2">
     <g id="line2d_5">
      <g>
       <use xlink:href="#m6106dace53" x="36" y="150.66" style="stroke: #000000; stroke-width: 0.8"/>
      </g>
     </g>
     <g id="text_7">
      <!-- 1.5 -->
      <g transform="translate(9.91625 155.219063) scale(0.12 -0.12)">
       <use xlink:href="#DejaVuSans-31"/>
       <use xlink:href="#DejaVuSans-2e" x="63.623047"/>
       <use xlink:href="#DejaVuSans-35" x="95.410156"/>
      </g>
     </g>
    </g>
    <g id="ytick_3">
     <g id="line2d_6">
      <g>
       <use xlink:href="#m6106dace53" x="36" y="109.08" style="stroke: #000000; stroke-width: 0.8"/>
      </g>
     </g>
     <g id="text_8">
      <!-- 2.0 -->
      <g transform="translate(9.91625 113.639062) scale(0.12 -0.12)">
       <use xlink:href="#DejaVuSans-32"/>
       <use xlink:href="#DejaVuSans-2e" x="63.623047"/>
       <use xlink:href="#DejaVuSans-30" x="95.410156"/>
      </g>
     </g>
    </g>
    <g id="ytick_4">
     <g id="line2d_7">
      <g>
       <use xlink:href="#m6106dace53" x="36" y="67.5" style="stroke: #000000; stroke-width: 0.8"/>
      </g>
     </g>
     <g id="text_9">
      <!-- 2.5 -->
      <g transform="translate(9.91625 72.059063) scale(0.12 -0.12)">
       <use xlink:href="#DejaVuSans-32"/>
       <use xlink:href="#DejaVuSans-2e" x="63.623047"/>
       <use xlink:href="#DejaVuSans-35" x="95.410156"/>
      </g>
     </g>
    </g>
    <g id="ytick_5">
     <g id="line2d_8">
      <g>
       <use xlink:href="#m6106dace53" x="36" y="25.92" style="stroke: #000000; stroke-width: 0.8"/>
      </g>
     </g>
     <g id="text_10">
      <!-- 3.0 -->
      <g transform="translate(9.91625 30.479062) scale(0.12 -0.12)">
       <use xlink:href="#DejaVuSans-33"/>
       <use xlink:href="#DejaVuSans-2e" x="63.623047"/>
       <use xlink:href="#DejaVuSans-30" x="95.410156"/>
      </g>
     </g>
    </g>
    <g id="text_11">
     <!-- Recombination rate -->
     <g transform="translate(2.58875 187.6775) rotate(-90) scale(0.16 -0.16)">
      <defs>
       <path id="DejaVuSans-52" d="M 2841 2188 
Q 3044 2119 3236 1894 
Q 3428 1669 3622 1275 
L 4263 0 
L 3584 0 
L 2988 1197 
Q 2756 1666 2539 1819 
Q 2322 1972 1947 1972 
L 1259 1972 
L 1259 0 
L 628 0 
L 628 4666 
L 2053 4666 
Q 2853 4666 3247 4331 
Q 3641 3997 3641 3322 
Q 3641 2881 3436 2590 
Q 3231 2300 2841 2188 
z
M 1259 4147 
L 1259 2491 
L 2053 2491 
Q 2509 2491 2742 2702 
Q 2975 2913 2975 3322 
Q 2975 3731 2742 3939 
Q 2509 4147 2053 4147 
L 1259 4147 
z
" transform="scale(0.015625)"/>
       <path id="DejaVuSans-63" d="M 3122 3366 
L 3122 2828 
Q 2878 2963 2633 3030 
Q 2388 3097 2138 3097 
Q 1578 3097 1268 2742 
Q 959 2388 959 1747 
Q 959 1106 1268 751 
Q 1578 397 2138 397 
Q 2388 397 2633 464 
Q 2878 531 3122 666 
L 3122 134 
Q 2881 22 2623 -34 
Q 2366 -91 2075 -91 
Q 1284 -91 818 406 
Q 353 903 353 1747 
Q 353 2603 823 3093 
Q 1294 3584 2113 3584 
Q 2378 3584 2631 3529 
Q 2884 3475 3122 3366 
z
" transform="scale(0.015625)"/>
       <path id="DejaVuSans-6d" d="M 3328 2828 
Q 3544 3216 3844 3400 
Q 4144 3584 4550 3584 
Q 5097 3584 5394 3201 
Q 5691 2819 5691 2113 
L 5691 0 
L 5113 0 
L 5113 2094 
Q 5113 2597 4934 2840 
Q 4756 3084 4391 3084 
Q 3944 3084 3684 2787 
Q 3425 2491 3425 1978 
L 3425 0 
L 2847 0 
L 2847 2094 
Q 2847 2600 2669 2842 
Q 2491 3084 2119 3084 
Q 1678 3084 1418 2786 
Q 1159 2488 1159 1978 
L 1159 0 
L 581 0 
L 581 3500 
L 1159 3500 
L 1159 2956 
Q 1356 3278 1631 3431 
Q 1906 3584 2284 3584 
Q 2666 3584 2933 3390 
Q 3200 3197 3328 2828 
z
" transform="scale(0.015625)"/>
       <path id="DejaVuSans-62" d="M 3116 1747 
Q 3116 2381 2855 2742 
Q 2594 3103 2138 3103 
Q 1681 3103 1420 2742 
Q 1159 2381 1159 1747 
Q 1159 1113 1420 752 
Q 1681 391 2138 391 
Q 2594 391 2855 752 
Q 3116 1113 3116 1747 
z
M 1159 2969 
Q 1341 3281 1617 3432 
Q 1894 3584 2278 3584 
Q 2916 3584 3314 3078 
Q 3713 2572 3713 1747 
Q 3713 922 3314 415 
Q 2916 -91 2278 -91 
Q 1894 -91 1617 61 
Q 1341 213 1159 525 
L 1159 0 
L 581 0 
L 581 4863 
L 1159 4863 
L 1159 2969 
z
" transform="scale(0.015625)"/>
       <path id="DejaVuSans-6e" d="M 3513 2113 
L 3513 0 
L 2938 0 
L 2938 2094 
Q 2938 2591 2744 2837 
Q 2550 3084 2163 3084 
Q 1697 3084 1428 2787 
Q 1159 2491 1159 1978 
L 1159 0 
L 581 0 
L 581 3500 
L 1159 3500 
L 1159 2956 
Q 1366 3272 1645 3428 
Q 1925 3584 2291 3584 
Q 2894 3584 3203 3211 
Q 3513 2838 3513 2113 
z
" transform="scale(0.015625)"/>
       <path id="DejaVuSans-61" d="M 2194 1759 
Q 1497 1759 1228 1600 
Q 959 1441 959 1056 
Q 959 750 1161 570 
Q 1363 391 1709 391 
Q 2188 391 2477 730 
Q 2766 1069 2766 1631 
L 2766 1759 
L 2194 1759 
z
M 3341 1997 
L 3341 0 
L 2766 0 
L 2766 531 
Q 2569 213 2275 61 
Q 1981 -91 1556 -91 
Q 1019 -91 701 211 
Q 384 513 384 1019 
Q 384 1609 779 1909 
Q 1175 2209 1959 2209 
L 2766 2209 
L 2766 2266 
Q 2766 2663 2505 2880 
Q 2244 3097 1772 3097 
Q 1472 3097 1187 3025 
Q 903 2953 641 2809 
L 641 3341 
Q 956 3463 1253 3523 
Q 1550 3584 1831 3584 
Q 2591 3584 2966 3190 
Q 3341 2797 3341 1997 
z
" transform="scale(0.015625)"/>
       <path id="DejaVuSans-74" d="M 1172 4494 
L 1172 3500 
L 2356 3500 
L 2356 3053 
L 1172 3053 
L 1172 1153 
Q 1172 725 1289 603 
Q 1406 481 1766 481 
L 2356 481 
L 2356 0 
L 1766 0 
Q 1100 0 847 248 
Q 594 497 594 1153 
L 594 3053 
L 172 3053 
L 172 3500 
L 594 3500 
L 594 4494 
L 1172 4494 
z
" transform="scale(0.015625)"/>
       <path id="DejaVuSans-72" d="M 2631 2963 
Q 2534 3019 2420 3045 
Q 2306 3072 2169 3072 
Q 1681 3072 1420 2755 
Q 1159 2438 1159 1844 
L 1159 0 
L 581 0 
L 581 3500 
L 1159 3500 
L 1159 2956 
Q 1341 3275 1631 3429 
Q 1922 3584 2338 3584 
Q 2397 3584 2469 3576 
Q 2541 3569 2628 3553 
L 2631 2963 
z
" transform="scale(0.015625)"/>
      </defs>
      <use xlink:href="#DejaVuSans-52"/>
      <use xlink:href="#DejaVuSans-65" x="64.982422"/>
      <use xlink:href="#DejaVuSans-63" x="126.505859"/>
      <use xlink:href="#DejaVuSans-6f" x="181.486328"/>
      <use xlink:href="#DejaVuSans-6d" x="242.667969"/>
      <use xlink:href="#DejaVuSans-62" x="340.080078"/>
      <use xlink:href="#DejaVuSans-69" x="403.556641"/>
      <use xlink:href="#DejaVuSans-6e" x="431.339844"/>
      <use xlink:href="#DejaVuSans-61" x="494.71875"/>
      <use xlink:href="#DejaVuSans-74" x="555.998047"/>
      <use xlink:href="#DejaVuSans-69" x="595.207031"/>
      <use xlink:href="#DejaVuSans-6f" x="622.990234"/>
      <use xlink:href="#DejaVuSans-6e" x="684.171875"/>
      <use xlink:href="#DejaVuSans-20" x="747.550781"/>
      <use xlink:href="#DejaVuSans-72" x="779.337891"/>
      <use xlink:href="#DejaVuSans-61" x="820.451172"/>
      <use xlink:href="#DejaVuSans-74" x="881.730469"/>
      <use xlink:href="#DejaVuSans-65" x="920.939453"/>
     </g>
    </g>
    <g id="text_12">
     <!-- 1e9 -->
     <g transform="translate(36 22.92) scale(0.1 -0.1)">
      <defs>
       <path id="DejaVuSans-2212" d="M 678 2272 
L 4684 2272 
L 4684 1741 
L 678 1741 
L 678 2272 
z
" transform="scale(0.015625)"/>
       <path id="DejaVuSans-39" d="M 703 97 
L 703 672 
Q 941 559 1184 500 
Q 1428 441 1663 441 
Q 2288 441 2617 861 
Q 2947 1281 2994 2138 
Q 2813 1869 2534 1725 
Q 2256 1581 1919 1581 
Q 1219 1581 811 2004 
Q 403 2428 403 3163 
Q 403 3881 828 4315 
Q 1253 4750 1959 4750 
Q 2769 4750 3195 4129 
Q 3622 3509 3622 2328 
Q 3622 1225 3098 567 
Q 2575 -91 1691 -91 
Q 1453 -91 1209 -44 
Q 966 3 703 97 
z
M 1959 2075 
Q 2384 2075 2632 2365 
Q 2881 2656 2881 3163 
Q 2881 3666 2632 3958 
Q 2384 4250 1959 4250 
Q 1534 4250 1286 3958 
Q 1038 3666 1038 3163 
Q 1038 2656 1286 2365 
Q 1534 2075 1959 2075 
z
" transform="scale(0.015625)"/>
      </defs>
      <use xlink:href="#DejaVuSans-31"/>
      <use xlink:href="#DejaVuSans-65" x="63.623047"/>
      <use xlink:href="#DejaVuSans-2212" x="125.146484"/>
      <use xlink:href="#DejaVuSans-39" x="208.935547"/>
     </g>
    </g>
   </g>
   <g id="patch_3">
    <path d="M 36 192.24 
L 36 25.92 
" style="fill: none; stroke: #000000; stroke-width: 0.8; stroke-linejoin: miter; stroke-linecap: square"/>
   </g>
   <g id="patch_4">
    <path d="M 214.56 192.24 
L 214.56 25.92 
" style="fill: none; stroke: #000000; stroke-width: 0.8; stroke-linejoin: miter; stroke-linecap: square"/>
   </g>
   <g id="patch_5">
    <path d="M 36 192.24 
L 214.56 192.24 
" style="fill: none; stroke: #000000; stroke-width: 0.8; stroke-linejoin: miter; stroke-linecap: square"/>
   </g>
   <g id="patch_6">
    <path d="M 36 25.92 
L 214.56 25.92 
" style="fill: none; stroke: #000000; stroke-width: 0.8; stroke-linejoin: miter; stroke-linecap: square"/>
   </g>
   <g id="text_13">
    <!-- Ne2r-MSSMC-G-P2-S4 -->
    <g transform="translate(38.83875 10.92) scale(0.16 -0.16)">
     <defs>
      <path id="DejaVuSans-2d" d="M 313 2009 
L 1997 2009 
L 1997 1497 
L 313 1497 
L 313 2009 
z
" transform="scale(0.015625)"/>
      <path id="DejaVuSans-4d" d="M 628 4666 
L 1569 4666 
L 2759 1491 
L 3956 4666 
L 4897 4666 
L 4897 0 
L 4281 0 
L 4281 4097 
L 3078 897 
L 2444 897 
L 1241 4097 
L 1241 0 
L 628 0 
L 628 4666 
z
" transform="scale(0.015625)"/>
      <path id="DejaVuSans-53" d="M 3425 4513 
L 3425 3897 
Q 3066 4069 2747 4153 
Q 2428 4238 2131 4238 
Q 1616 4238 1336 4038 
Q 1056 3838 1056 3469 
Q 1056 3159 1242 3001 
Q 1428 2844 1947 2747 
L 2328 2669 
Q 3034 2534 3370 2195 
Q 3706 1856 3706 1288 
Q 3706 609 3251 259 
Q 2797 -91 1919 -91 
Q 1588 -91 1214 -16 
Q 841 59 441 206 
L 441 856 
Q 825 641 1194 531 
Q 1563 422 1919 422 
Q 2459 422 2753 634 
Q 3047 847 3047 1241 
Q 3047 1584 2836 1778 
Q 2625 1972 2144 2069 
L 1759 2144 
Q 1053 2284 737 2584 
Q 422 2884 422 3419 
Q 422 4038 858 4394 
Q 1294 4750 2059 4750 
Q 2388 4750 2728 4690 
Q 3069 4631 3425 4513 
z
" transform="scale(0.015625)"/>
      <path id="DejaVuSans-43" d="M 4122 4306 
L 4122 3641 
Q 3803 3938 3442 4084 
Q 3081 4231 2675 4231 
Q 1875 4231 1450 3742 
Q 1025 3253 1025 2328 
Q 1025 1406 1450 917 
Q 1875 428 2675 428 
Q 3081 428 3442 575 
Q 3803 722 4122 1019 
L 4122 359 
Q 3791 134 3420 21 
Q 3050 -91 2638 -91 
Q 1578 -91 968 557 
Q 359 1206 359 2328 
Q 359 3453 968 4101 
Q 1578 4750 2638 4750 
Q 3056 4750 3426 4639 
Q 3797 4528 4122 4306 
z
" transform="scale(0.015625)"/>
      <path id="DejaVuSans-47" d="M 3809 666 
L 3809 1919 
L 2778 1919 
L 2778 2438 
L 4434 2438 
L 4434 434 
Q 4069 175 3628 42 
Q 3188 -91 2688 -91 
Q 1594 -91 976 548 
Q 359 1188 359 2328 
Q 359 3472 976 4111 
Q 1594 4750 2688 4750 
Q 3144 4750 3555 4637 
Q 3966 4525 4313 4306 
L 4313 3634 
Q 3963 3931 3569 4081 
Q 3175 4231 2741 4231 
Q 1884 4231 1454 3753 
Q 1025 3275 1025 2328 
Q 1025 1384 1454 906 
Q 1884 428 2741 428 
Q 3075 428 3337 486 
Q 3600 544 3809 666 
z
" transform="scale(0.015625)"/>
      <path id="DejaVuSans-50" d="M 1259 4147 
L 1259 2394 
L 2053 2394 
Q 2494 2394 2734 2622 
Q 2975 2850 2975 3272 
Q 2975 3691 2734 3919 
Q 2494 4147 2053 4147 
L 1259 4147 
z
M 628 4666 
L 2053 4666 
Q 2838 4666 3239 4311 
Q 3641 3956 3641 3272 
Q 3641 2581 3239 2228 
Q 2838 1875 2053 1875 
L 1259 1875 
L 1259 0 
L 628 0 
L 628 4666 
z
" transform="scale(0.015625)"/>
      <path id="DejaVuSans-34" d="M 2419 4116 
L 825 1625 
L 2419 1625 
L 2419 4116 
z
M 2253 4666 
L 3047 4666 
L 3047 1625 
L 3713 1625 
L 3713 1100 
L 3047 1100 
L 3047 0 
L 2419 0 
L 2419 1100 
L 313 1100 
L 313 1709 
L 2253 4666 
z
" transform="scale(0.015625)"/>
     </defs>
     <use xlink:href="#DejaVuSans-4e"/>
     <use xlink:href="#DejaVuSans-65" x="74.804688"/>
     <use xlink:href="#DejaVuSans-32" x="136.328125"/>
     <use xlink:href="#DejaVuSans-72" x="199.951172"/>
     <use xlink:href="#DejaVuSans-2d" x="234.689453"/>
     <use xlink:href="#DejaVuSans-4d" x="270.773438"/>
     <use xlink:href="#DejaVuSans-53" x="357.052734"/>
     <use xlink:href="#DejaVuSans-53" x="420.529297"/>
     <use xlink:href="#DejaVuSans-4d" x="484.005859"/>
     <use xlink:href="#DejaVuSans-43" x="570.285156"/>
     <use xlink:href="#DejaVuSans-2d" x="640.109375"/>
     <use xlink:href="#DejaVuSans-47" x="679.818359"/>
     <use xlink:href="#DejaVuSans-2d" x="757.308594"/>
     <use xlink:href="#DejaVuSans-50" x="793.392578"/>
     <use xlink:href="#DejaVuSans-32" x="853.695312"/>
     <use xlink:href="#DejaVuSans-2d" x="917.318359"/>
     <use xlink:href="#DejaVuSans-53" x="953.402344"/>
     <use xlink:href="#DejaVuSans-34" x="1016.878906"/>
    </g>
   </g>
  </g>
  <g id="axes_2">
   <g id="patch_7">
    <path d="M 225.72 192.24 
L 234.036 192.24 
L 234.036 25.92 
L 225.72 25.92 
z
" style="fill: #ffffff"/>
   </g>
   <g id="QuadMesh_1">
    <path d="M 225.72 192.24 
L 234.036 192.24 
L 234.036 186.874839 
L 225.72 186.874839 
L 225.72 192.24 
" clip-path="url(#pcd6100ce81)" style="fill: #440154"/>
    <path d="M 225.72 186.874839 
L 234.036 186.874839 
L 234.036 181.509677 
L 225.72 181.509677 
L 225.72 186.874839 
" clip-path="url(#pcd6100ce81)" style="fill: #440154"/>
    <path d="M 225.72 181.509677 
L 234.036 181.509677 
L 234.036 176.144516 
L 225.72 176.144516 
L 225.72 181.509677 
" clip-path="url(#pcd6100ce81)" style="fill: #440154"/>
    <path d="M 225.72 176.144516 
L 234.036 176.144516 
L 234.036 170.779355 
L 225.72 170.779355 
L 225.72 176.144516 
" clip-path="url(#pcd6100ce81)" style="fill: #440154"/>
    <path d="M 225.72 170.779355 
L 234.036 170.779355 
L 234.036 165.414194 
L 225.72 165.414194 
L 225.72 170.779355 
" clip-path="url(#pcd6100ce81)" style="fill: #440154"/>
    <path d="M 225.72 165.414194 
L 234.036 165.414194 
L 234.036 160.049032 
L 225.72 160.049032 
L 225.72 165.414194 
" clip-path="url(#pcd6100ce81)" style="fill: #440154"/>
    <path d="M 225.72 160.049032 
L 234.036 160.049032 
L 234.036 154.683871 
L 225.72 154.683871 
L 225.72 160.049032 
" clip-path="url(#pcd6100ce81)" style="fill: #440154"/>
    <path d="M 225.72 154.683871 
L 234.036 154.683871 
L 234.036 149.31871 
L 225.72 149.31871 
L 225.72 154.683871 
" clip-path="url(#pcd6100ce81)" style="fill: #440154"/>
    <path d="M 225.72 149.31871 
L 234.036 149.31871 
L 234.036 143.953548 
L 225.72 143.953548 
L 225.72 149.31871 
" clip-path="url(#pcd6100ce81)" style="fill: #440154"/>
    <path d="M 225.72 143.953548 
L 234.036 143.953548 
L 234.036 138.588387 
L 225.72 138.588387 
L 225.72 143.953548 
" clip-path="url(#pcd6100ce81)" style="fill: #440154"/>
    <path d="M 225.72 138.588387 
L 234.036 138.588387 
L 234.036 133.223226 
L 225.72 133.223226 
L 225.72 138.588387 
" clip-path="url(#pcd6100ce81)" style="fill: #440154"/>
    <path d="M 225.72 133.223226 
L 234.036 133.223226 
L 234.036 127.858065 
L 225.72 127.858065 
L 225.72 133.223226 
" clip-path="url(#pcd6100ce81)" style="fill: #440154"/>
    <path d="M 225.72 127.858065 
L 234.036 127.858065 
L 234.036 122.492903 
L 225.72 122.492903 
L 225.72 127.858065 
" clip-path="url(#pcd6100ce81)" style="fill: #440154"/>
    <path d="M 225.72 122.492903 
L 234.036 122.492903 
L 234.036 117.127742 
L 225.72 117.127742 
L 225.72 122.492903 
" clip-path="url(#pcd6100ce81)" style="fill: #440154"/>
    <path d="M 225.72 117.127742 
L 234.036 117.127742 
L 234.036 111.762581 
L 225.72 111.762581 
L 225.72 117.127742 
" clip-path="url(#pcd6100ce81)" style="fill: #440154"/>
    <path d="M 225.72 111.762581 
L 234.036 111.762581 
L 234.036 106.397419 
L 225.72 106.397419 
L 225.72 111.762581 
" clip-path="url(#pcd6100ce81)" style="fill: #440154"/>
    <path d="M 225.72 106.397419 
L 234.036 106.397419 
L 234.036 101.032258 
L 225.72 101.032258 
L 225.72 106.397419 
" clip-path="url(#pcd6100ce81)" style="fill: #471063"/>
    <path d="M 225.72 101.032258 
L 234.036 101.032258 
L 234.036 95.667097 
L 225.72 95.667097 
L 225.72 101.032258 
" clip-path="url(#pcd6100ce81)" style="fill: #482677"/>
    <path d="M 225.72 95.667097 
L 234.036 95.667097 
L 234.036 90.301935 
L 225.72 90.301935 
L 225.72 95.667097 
" clip-path="url(#pcd6100ce81)" style="fill: #443b84"/>
    <path d="M 225.72 90.301935 
L 234.036 90.301935 
L 234.036 84.936774 
L 225.72 84.936774 
L 225.72 90.301935 
" clip-path="url(#pcd6100ce81)" style="fill: #3c4f8a"/>
    <path d="M 225.72 84.936774 
L 234.036 84.936774 
L 234.036 79.571613 
L 225.72 79.571613 
L 225.72 84.936774 
" clip-path="url(#pcd6100ce81)" style="fill: #34618d"/>
    <path d="M 225.72 79.571613 
L 234.036 79.571613 
L 234.036 74.206452 
L 225.72 74.206452 
L 225.72 79.571613 
" clip-path="url(#pcd6100ce81)" style="fill: #2c718e"/>
    <path d="M 225.72 74.206452 
L 234.036 74.206452 
L 234.036 68.84129 
L 225.72 68.84129 
L 225.72 74.206452 
" clip-path="url(#pcd6100ce81)" style="fill: #26828e"/>
    <path d="M 225.72 68.84129 
L 234.036 68.84129 
L 234.036 63.476129 
L 225.72 63.476129 
L 225.72 68.84129 
" clip-path="url(#pcd6100ce81)" style="fill: #20928c"/>
    <path d="M 225.72 63.476129 
L 234.036 63.476129 
L 234.036 58.110968 
L 225.72 58.110968 
L 225.72 63.476129 
" clip-path="url(#pcd6100ce81)" style="fill: #1fa188"/>
    <path d="M 225.72 58.110968 
L 234.036 58.110968 
L 234.036 52.745806 
L 225.72 52.745806 
L 225.72 58.110968 
" clip-path="url(#pcd6100ce81)" style="fill: #2ab07f"/>
    <path d="M 225.72 52.745806 
L 234.036 52.745806 
L 234.036 47.380645 
L 225.72 47.380645 
L 225.72 52.745806 
" clip-path="url(#pcd6100ce81)" style="fill: #44bf70"/>
    <path d="M 225.72 47.380645 
L 234.036 47.380645 
L 234.036 42.015484 
L 225.72 42.015484 
L 225.72 47.380645 
" clip-path="url(#pcd6100ce81)" style="fill: #67cc5c"/>
    <path d="M 225.72 42.015484 
L 234.036 42.015484 
L 234.036 36.650323 
L 225.72 36.650323 
L 225.72 42.015484 
" clip-path="url(#pcd6100ce81)" style="fill: #90d743"/>
    <path d="M 225.72 36.650323 
L 234.036 36.650323 
L 234.036 31.285161 
L 225.72 31.285161 
L 225.72 36.650323 
" clip-path="url(#pcd6100ce81)" style="fill: #bddf26"/>
    <path d="M 225.72 31.285161 
L 234.036 31.285161 
L 234.036 25.92 
L 225.72 25.92 
L 225.72 31.285161 
" clip-path="url(#pcd6100ce81)" style="fill: #eae51a"/>
   </g>
   <g id="matplotlib.axis_3"/>
   <g id="matplotlib.axis_4">
    <g id="ytick_6">
     <g id="line2d_9">
      <defs>
       <path id="me11f65fe83" d="M 0 0 
L 3.5 0 
" style="stroke: #000000; stroke-width: 0.8"/>
      </defs>
      <g>
       <use xlink:href="#me11f65fe83" x="234.036" y="176.144516" style="stroke: #000000; stroke-width: 0.8"/>
      </g>
     </g>
     <g id="text_14">
      <!-- $\mathdefault{4580}$ -->
      <g transform="translate(241.036 179.943735) scale(0.1 -0.1)">
       <defs>
        <path id="DejaVuSans-38" d="M 2034 2216 
Q 1584 2216 1326 1975 
Q 1069 1734 1069 1313 
Q 1069 891 1326 650 
Q 1584 409 2034 409 
Q 2484 409 2743 651 
Q 3003 894 3003 1313 
Q 3003 1734 2745 1975 
Q 2488 2216 2034 2216 
z
M 1403 2484 
Q 997 2584 770 2862 
Q 544 3141 544 3541 
Q 544 4100 942 4425 
Q 1341 4750 2034 4750 
Q 2731 4750 3128 4425 
Q 3525 4100 3525 3541 
Q 3525 3141 3298 2862 
Q 3072 2584 2669 2484 
Q 3125 2378 3379 2068 
Q 3634 1759 3634 1313 
Q 3634 634 3220 271 
Q 2806 -91 2034 -91 
Q 1263 -91 848 271 
Q 434 634 434 1313 
Q 434 1759 690 2068 
Q 947 2378 1403 2484 
z
M 1172 3481 
Q 1172 3119 1398 2916 
Q 1625 2713 2034 2713 
Q 2441 2713 2670 2916 
Q 2900 3119 2900 3481 
Q 2900 3844 2670 4047 
Q 2441 4250 2034 4250 
Q 1625 4250 1398 4047 
Q 1172 3844 1172 3481 
z
" transform="scale(0.015625)"/>
       </defs>
       <use xlink:href="#DejaVuSans-2212" transform="translate(0 0.78125)"/>
       <use xlink:href="#DejaVuSans-34" transform="translate(83.789062 0.78125)"/>
       <use xlink:href="#DejaVuSans-35" transform="translate(147.412109 0.78125)"/>
       <use xlink:href="#DejaVuSans-38" transform="translate(211.035156 0.78125)"/>
       <use xlink:href="#DejaVuSans-30" transform="translate(274.658203 0.78125)"/>
      </g>
     </g>
    </g>
    <g id="ytick_7">
     <g id="line2d_10">
      <g>
       <use xlink:href="#me11f65fe83" x="234.036" y="154.683871" style="stroke: #000000; stroke-width: 0.8"/>
      </g>
     </g>
     <g id="text_15">
      <!-- $\mathdefault{4500}$ -->
      <g transform="translate(241.036 158.48309) scale(0.1 -0.1)">
       <use xlink:href="#DejaVuSans-2212" transform="translate(0 0.78125)"/>
       <use xlink:href="#DejaVuSans-34" transform="translate(83.789062 0.78125)"/>
       <use xlink:href="#DejaVuSans-35" transform="translate(147.412109 0.78125)"/>
       <use xlink:href="#DejaVuSans-30" transform="translate(211.035156 0.78125)"/>
       <use xlink:href="#DejaVuSans-30" transform="translate(274.658203 0.78125)"/>
      </g>
     </g>
    </g>
    <g id="ytick_8">
     <g id="line2d_11">
      <g>
       <use xlink:href="#me11f65fe83" x="234.036" y="133.223226" style="stroke: #000000; stroke-width: 0.8"/>
      </g>
     </g>
     <g id="text_16">
      <!-- $\mathdefault{4420}$ -->
      <g transform="translate(241.036 137.022445) scale(0.1 -0.1)">
       <use xlink:href="#DejaVuSans-2212" transform="translate(0 0.78125)"/>
       <use xlink:href="#DejaVuSans-34" transform="translate(83.789062 0.78125)"/>
       <use xlink:href="#DejaVuSans-34" transform="translate(147.412109 0.78125)"/>
       <use xlink:href="#DejaVuSans-32" transform="translate(211.035156 0.78125)"/>
       <use xlink:href="#DejaVuSans-30" transform="translate(274.658203 0.78125)"/>
      </g>
     </g>
    </g>
    <g id="ytick_9">
     <g id="line2d_12">
      <g>
       <use xlink:href="#me11f65fe83" x="234.036" y="111.762581" style="stroke: #000000; stroke-width: 0.8"/>
      </g>
     </g>
     <g id="text_17">
      <!-- $\mathdefault{4340}$ -->
      <g transform="translate(241.036 115.561799) scale(0.1 -0.1)">
       <use xlink:href="#DejaVuSans-2212" transform="translate(0 0.78125)"/>
       <use xlink:href="#DejaVuSans-34" transform="translate(83.789062 0.78125)"/>
       <use xlink:href="#DejaVuSans-33" transform="translate(147.412109 0.78125)"/>
       <use xlink:href="#DejaVuSans-34" transform="translate(211.035156 0.78125)"/>
       <use xlink:href="#DejaVuSans-30" transform="translate(274.658203 0.78125)"/>
      </g>
     </g>
    </g>
    <g id="ytick_10">
     <g id="line2d_13">
      <g>
       <use xlink:href="#me11f65fe83" x="234.036" y="90.301935" style="stroke: #000000; stroke-width: 0.8"/>
      </g>
     </g>
     <g id="text_18">
      <!-- $\mathdefault{4260}$ -->
      <g transform="translate(241.036 94.101154) scale(0.1 -0.1)">
       <defs>
        <path id="DejaVuSans-36" d="M 2113 2584 
Q 1688 2584 1439 2293 
Q 1191 2003 1191 1497 
Q 1191 994 1439 701 
Q 1688 409 2113 409 
Q 2538 409 2786 701 
Q 3034 994 3034 1497 
Q 3034 2003 2786 2293 
Q 2538 2584 2113 2584 
z
M 3366 4563 
L 3366 3988 
Q 3128 4100 2886 4159 
Q 2644 4219 2406 4219 
Q 1781 4219 1451 3797 
Q 1122 3375 1075 2522 
Q 1259 2794 1537 2939 
Q 1816 3084 2150 3084 
Q 2853 3084 3261 2657 
Q 3669 2231 3669 1497 
Q 3669 778 3244 343 
Q 2819 -91 2113 -91 
Q 1303 -91 875 529 
Q 447 1150 447 2328 
Q 447 3434 972 4092 
Q 1497 4750 2381 4750 
Q 2619 4750 2861 4703 
Q 3103 4656 3366 4563 
z
" transform="scale(0.015625)"/>
       </defs>
       <use xlink:href="#DejaVuSans-2212" transform="translate(0 0.78125)"/>
       <use xlink:href="#DejaVuSans-34" transform="translate(83.789062 0.78125)"/>
       <use xlink:href="#DejaVuSans-32" transform="translate(147.412109 0.78125)"/>
       <use xlink:href="#DejaVuSans-36" transform="translate(211.035156 0.78125)"/>
       <use xlink:href="#DejaVuSans-30" transform="translate(274.658203 0.78125)"/>
      </g>
     </g>
    </g>
    <g id="ytick_11">
     <g id="line2d_14">
      <g>
       <use xlink:href="#me11f65fe83" x="234.036" y="68.84129" style="stroke: #000000; stroke-width: 0.8"/>
      </g>
     </g>
     <g id="text_19">
      <!-- $\mathdefault{4180}$ -->
      <g transform="translate(241.036 72.640509) scale(0.1 -0.1)">
       <use xlink:href="#DejaVuSans-2212" transform="translate(0 0.78125)"/>
       <use xlink:href="#DejaVuSans-34" transform="translate(83.789062 0.78125)"/>
       <use xlink:href="#DejaVuSans-31" transform="translate(147.412109 0.78125)"/>
       <use xlink:href="#DejaVuSans-38" transform="translate(211.035156 0.78125)"/>
       <use xlink:href="#DejaVuSans-30" transform="translate(274.658203 0.78125)"/>
      </g>
     </g>
    </g>
    <g id="ytick_12">
     <g id="line2d_15">
      <g>
       <use xlink:href="#me11f65fe83" x="234.036" y="47.380645" style="stroke: #000000; stroke-width: 0.8"/>
      </g>
     </g>
     <g id="text_20">
      <!-- $\mathdefault{4100}$ -->
      <g transform="translate(241.036 51.179864) scale(0.1 -0.1)">
       <use xlink:href="#DejaVuSans-2212" transform="translate(0 0.78125)"/>
       <use xlink:href="#DejaVuSans-34" transform="translate(83.789062 0.78125)"/>
       <use xlink:href="#DejaVuSans-31" transform="translate(147.412109 0.78125)"/>
       <use xlink:href="#DejaVuSans-30" transform="translate(211.035156 0.78125)"/>
       <use xlink:href="#DejaVuSans-30" transform="translate(274.658203 0.78125)"/>
      </g>
     </g>
    </g>
    <g id="ytick_13">
     <g id="line2d_16">
      <g>
       <use xlink:href="#me11f65fe83" x="234.036" y="25.92" style="stroke: #000000; stroke-width: 0.8"/>
      </g>
     </g>
     <g id="text_21">
      <!-- $\mathdefault{4020}$ -->
      <g transform="translate(241.036 29.719219) scale(0.1 -0.1)">
       <use xlink:href="#DejaVuSans-2212" transform="translate(0 0.78125)"/>
       <use xlink:href="#DejaVuSans-34" transform="translate(83.789062 0.78125)"/>
       <use xlink:href="#DejaVuSans-30" transform="translate(147.412109 0.78125)"/>
       <use xlink:href="#DejaVuSans-32" transform="translate(211.035156 0.78125)"/>
       <use xlink:href="#DejaVuSans-30" transform="translate(274.658203 0.78125)"/>
      </g>
     </g>
    </g>
    <g id="text_22">
     <!-- log likelihood -->
     <g transform="translate(288.054125 148.704375) rotate(-90) scale(0.12 -0.12)">
      <defs>
       <path id="DejaVuSans-67" d="M 2906 1791 
Q 2906 2416 2648 2759 
Q 2391 3103 1925 3103 
Q 1463 3103 1205 2759 
Q 947 2416 947 1791 
Q 947 1169 1205 825 
Q 1463 481 1925 481 
Q 2391 481 2648 825 
Q 2906 1169 2906 1791 
z
M 3481 434 
Q 3481 -459 3084 -895 
Q 2688 -1331 1869 -1331 
Q 1566 -1331 1297 -1286 
Q 1028 -1241 775 -1147 
L 775 -588 
Q 1028 -725 1275 -790 
Q 1522 -856 1778 -856 
Q 2344 -856 2625 -561 
Q 2906 -266 2906 331 
L 2906 616 
Q 2728 306 2450 153 
Q 2172 0 1784 0 
Q 1141 0 747 490 
Q 353 981 353 1791 
Q 353 2603 747 3093 
Q 1141 3584 1784 3584 
Q 2172 3584 2450 3431 
Q 2728 3278 2906 2969 
L 2906 3500 
L 3481 3500 
L 3481 434 
z
" transform="scale(0.015625)"/>
       <path id="DejaVuSans-6b" d="M 581 4863 
L 1159 4863 
L 1159 1991 
L 2875 3500 
L 3609 3500 
L 1753 1863 
L 3688 0 
L 2938 0 
L 1159 1709 
L 1159 0 
L 581 0 
L 581 4863 
z
" transform="scale(0.015625)"/>
       <path id="DejaVuSans-68" d="M 3513 2113 
L 3513 0 
L 2938 0 
L 2938 2094 
Q 2938 2591 2744 2837 
Q 2550 3084 2163 3084 
Q 1697 3084 1428 2787 
Q 1159 2491 1159 1978 
L 1159 0 
L 581 0 
L 581 4863 
L 1159 4863 
L 1159 2956 
Q 1366 3272 1645 3428 
Q 1925 3584 2291 3584 
Q 2894 3584 3203 3211 
Q 3513 2838 3513 2113 
z
" transform="scale(0.015625)"/>
      </defs>
      <use xlink:href="#DejaVuSans-6c"/>
      <use xlink:href="#DejaVuSans-6f" x="27.783203"/>
      <use xlink:href="#DejaVuSans-67" x="88.964844"/>
      <use xlink:href="#DejaVuSans-20" x="152.441406"/>
      <use xlink:href="#DejaVuSans-6c" x="184.228516"/>
      <use xlink:href="#DejaVuSans-69" x="212.011719"/>
      <use xlink:href="#DejaVuSans-6b" x="239.794922"/>
      <use xlink:href="#DejaVuSans-65" x="294.080078"/>
      <use xlink:href="#DejaVuSans-6c" x="355.603516"/>
      <use xlink:href="#DejaVuSans-69" x="383.386719"/>
      <use xlink:href="#DejaVuSans-68" x="411.169922"/>
      <use xlink:href="#DejaVuSans-6f" x="474.548828"/>
      <use xlink:href="#DejaVuSans-6f" x="535.730469"/>
      <use xlink:href="#DejaVuSans-64" x="596.912109"/>
     </g>
    </g>
    <g id="text_23">
     <!-- $\times\mathdefault{10^{3}}\mathdefault{}$ -->
     <g transform="translate(208.036 22.92) scale(0.1 -0.1)">
      <defs>
       <path id="DejaVuSans-d7" d="M 4488 3438 
L 3059 2003 
L 4488 575 
L 4116 197 
L 2681 1631 
L 1247 197 
L 878 575 
L 2303 2003 
L 878 3438 
L 1247 3816 
L 2681 2381 
L 4116 3816 
L 4488 3438 
z
" transform="scale(0.015625)"/>
      </defs>
      <use xlink:href="#DejaVuSans-d7" transform="translate(0 0.765625)"/>
      <use xlink:href="#DejaVuSans-31" transform="translate(83.789062 0.765625)"/>
      <use xlink:href="#DejaVuSans-30" transform="translate(147.412109 0.765625)"/>
      <use xlink:href="#DejaVuSans-33" transform="translate(211.992188 39.046875) scale(0.7)"/>
     </g>
    </g>
   </g>
   <g id="LineCollection_1"/>
   <g id="patch_8">
    <path d="M 225.72 192.24 
L 229.878 192.24 
L 234.036 192.24 
L 234.036 25.92 
L 229.878 25.92 
L 225.72 25.92 
L 225.72 192.24 
z
" style="fill: none; stroke: #000000; stroke-width: 0.8; stroke-linejoin: miter; stroke-linecap: square"/>
   </g>
  </g>
 </g>
 <defs>
  <clipPath id="p445a394290">
   <rect x="36" y="25.92" width="178.56" height="166.32"/>
  </clipPath>
  <clipPath id="pcd6100ce81">
   <rect x="225.72" y="25.92" width="8.316" height="166.32"/>
  </clipPath>
 </defs>
</svg>
