<svg class="toyplot-canvas-Canvas" xmlns:toyplot="http://www.sandia.gov/toyplot" xmlns:xlink="http://www.w3.org/1999/xlink" xmlns="http://www.w3.org/2000/svg" width="700.0px" height="215.0px" viewBox="0 0 700.0 215.0" preserveAspectRatio="xMidYMid meet" style="background-color:transparent;border-color:#292724;border-style:none;border-width:1.0;fill:rgb(16.1%,15.3%,14.1%);fill-opacity:1.0;font-family:Helvetica;font-size:12px;opacity:1.0;stroke:rgb(16.1%,15.3%,14.1%);stroke-opacity:1.0;stroke-width:1.0" id="tdd39faabe2004b5394ce3c257df4e15f"><g class="toyplot-coordinates-Cartesian" id="tf6416d3573664f9babe27142ce597a80"><clipPath id="tf5f7cc108ff84a80a6423c2b3a9d671c"><rect x="65.0" y="65.0" width="570.0" height="85.0" /></clipPath><g clip-path="url(#tf5f7cc108ff84a80a6423c2b3a9d671c)"><g class="toyplot-mark-FillBoundaries" style="stroke:none" id="t071a175768c94fecb30fc09fad617a10"><polygon points="136.25,150.0 137.49687500000002,150.0 138.74374999999998,150.0 139.990625,150.0 141.2375,150.0 142.484375,150.0 143.73125,150.0 144.978125,150.0 146.225,150.0 147.47187499999998,150.0 148.71875,150.0 149.965625,150.0 151.2125,150.0 152.459375,150.0 153.70625,150.0 154.953125,150.0 156.20000000000002,150.0 157.446875,150.0 158.69375,150.0 159.940625,150.0 161.1875,150.0 162.434375,150.0 163.68125,150.0 164.92812500000002,150.0 166.17499999999998,150.0 167.421875,150.0 168.66875000000002,150.0 169.91562499999998,150.0 171.1625,150.0 172.409375,150.0 173.65625,150.0 174.903125,150.0 176.15,150.0 177.396875,150.0 178.64374999999998,150.0 179.890625,150.0 181.1375,150.0 182.38437499999998,150.0 183.63125000000002,150.0 184.878125,150.0 186.125,150.0 187.371875,150.0 188.61875,150.0 189.865625,150.0 191.1125,150.0 192.359375,150.0 193.60625,150.0 194.85312499999998,150.0 196.10000000000002,150.0 197.346875,150.0 198.59375,150.0 199.840625,150.0 201.08749999999998,150.0 202.33437500000002,150.0 203.58125,150.0 204.828125,150.0 206.075,150.0 207.321875,150.0 208.56875000000002,150.0 209.815625,150.0 211.0625,150.0 212.309375,150.0 213.55624999999998,150.0 214.80312500000002,150.0 216.05,150.0 217.296875,150.0 218.54375,150.0 219.79062499999998,150.0 221.0375,150.0 222.284375,150.0 223.53125,150.0 224.77812500000002,150.0 226.02499999999998,150.0 227.271875,150.0 228.51875,150.0 229.765625,150.0 231.0125,150.0 232.259375,150.0 233.50625000000002,150.0 234.75312499999998,150.0 236.0,150.0 237.246875,150.0 238.49375,150.0 239.74062500000002,150.0 240.9875,150.0 242.234375,150.0 243.48125,150.0 244.72812499999998,150.0 245.97500000000002,150.0 247.221875,150.0 248.46875,150.0 249.715625,150.0 250.96249999999998,150.0 252.209375,150.0 253.45625,150.0 254.703125,150.0 255.95000000000002,150.0 257.196875,150.0 258.44374999999997,150.0 259.690625,150.0 260.9375,150.0 262.184375,150.0 263.43125000000003,150.0 264.678125,150.0 265.92499999999995,150.0 267.171875,150.0 268.41875,150.0 269.66562500000003,150.0 270.9125,150.0 272.159375,150.0 273.40625,150.0 274.653125,150.0 275.9,150.0 277.146875,150.0 278.39375,150.0 279.640625,150.0 280.8875,150.0 282.134375,150.0 283.38124999999997,150.0 284.628125,150.0 285.875,150.0 287.12187500000005,150.0 288.36875,150.0 289.61562499999997,150.0 290.8625,150.0 292.109375,150.0 293.35625,150.0 294.60312500000003,150.0 295.85,150.0 297.09687499999995,150.0 298.34375,150.0 299.59062500000005,150.0 300.8375,150.0 302.084375,150.0 303.33125,150.0 304.578125,150.0 305.825,150.0 307.071875,150.0 308.31875,150.0 309.565625,150.0 310.8125,150.0 312.059375,150.0 313.30625,150.0 314.553125,150.0 315.79999999999995,150.0 317.046875,150.0 318.29375000000005,150.0 319.540625,150.0 320.7875,150.0 322.03437499999995,150.0 323.28125,150.0 324.52812500000005,150.0 325.775,150.0 327.021875,150.0 328.26874999999995,150.0 329.515625,150.0 330.76250000000005,150.0 332.009375,150.0 333.25625,150.0 334.503125,150.0 335.75,150.0 336.996875,150.0 338.24375,150.0 339.490625,150.0 340.7375,150.0 341.984375,150.0 343.23125,150.0 344.478125,150.0 345.725,150.0 346.97187499999995,150.0 348.21875,150.0 349.46562500000005,150.0 350.7125,150.0 351.959375,150.0 353.20624999999995,150.0 354.453125,150.0 355.70000000000005,150.0 356.946875,150.0 358.19375,150.0 359.440625,150.0 360.6875,150.0 361.93437500000005,150.0 363.18125,150.0 364.42812499999997,150.0 365.67499999999995,150.0 366.921875,150.0 368.16875,150.0 369.415625,150.0 370.6625,150.0 371.909375,150.0 373.15625,150.0 374.40312500000005,150.0 375.65000000000003,150.0 376.896875,150.0 378.14374999999995,150.0 379.390625,150.0 380.6375,150.0 381.884375,150.0 383.13125,150.0 384.37812499999995,150.0 384.37812499999995,148.55087242991436 383.13125,147.1758614732775 381.884375,145.87117638557362 380.6375,144.63322030248867 379.390625,143.45858032377618 378.14374999999995,142.34401810428994 376.896875,141.28646092624487 375.65000000000003,140.2829932280933 374.40312500000005,139.33084856666218 373.15625,138.4274019903931 371.909375,137.57016280265714 370.6625,136.75676769519544 369.415625,135.98497423275478 368.16875,135.25265467095534 366.921875,134.55779009034825 365.67499999999995,133.89846483049058 364.42812499999997,133.2728612086934 363.18125,132.67925450888302 361.93437500000005,132.11600822676021 360.6875,131.58156955814943 359.440625,131.07446511809871 358.19375,130.59329687893006 356.946875,130.13673831604004 355.70000000000005,129.70353075082684 354.453125,129.2924798806602 353.20624999999995,128.90245248632885 351.959375,128.53237330788744 350.7125,128.18122208029052 349.46562500000005,127.68365104839663 348.21875,126.98944277218452 346.97187499999995,126.31911150066325 345.725,125.6718359941955 344.478125,125.04682325933936 343.23125,124.44330757733233 341.984375,123.86054956598998 340.7375,123.29783527387029 339.490625,122.754475305594 338.24375,122.22980397724885 336.996875,121.72317850084374 335.75,121.2339781968129 334.503125,120.76160373360585 333.25625,120.30547639343138 332.009375,119.86503736325575 330.76250000000005,119.43974705018692 329.515625,119.02908442040581 328.26874999999995,118.63254636083457 327.021875,118.24964706276032 325.775,117.87991742665861 324.52812500000005,117.52290448748785 323.28125,117.17817085975054 322.03437499999995,116.84529420164127 320.7875,116.52386669762524 319.540625,116.21349455881321 318.29375000000005,115.91379754052086 317.046875,115.62440847642154 315.79999999999995,115.34497282872152 314.553125,115.07514825380694 313.30625,114.81460418283004 312.059375,114.56302141672094 310.8125,114.32009173512894 309.565625,114.08551751881394 308.31875,113.85901138502585 307.071875,113.6402958354245 305.825,113.42910291610966 304.578125,113.22517388934403 303.33125,113.02825891656698 302.084375,112.83811675231127 300.8375,112.654514448647 299.59062500000005,112.47722706979144 298.34375,112.30603741653438 297.09687499999995,112.14073576014212 295.85,111.98111958541341 294.60312500000003,111.82699334257306 293.35625,111.67816820769897 292.109375,111.53446185138931 290.8625,111.39569821538603 289.61562499999997,111.2617072968817 288.36875,111.13232494024456 287.12187500000005,111.00739263590759 285.875,110.88675732617428 284.628125,110.7702712177039 283.38124999999997,110.6577916004461 282.134375,110.5491806728034 280.8875,110.44430537280684 279.640625,110.34303721509853 278.39375,110.44247432034032 277.146875,111.01654325849344 275.9,111.56125105104398 274.653125,112.07809939371832 273.40625,112.5685131769954 272.159375,113.03384441436314 270.9125,113.47537596966181 269.66562500000003,113.8943250937894 268.41875,114.29184678052044 267.171875,114.66903695068856 265.92499999999995,115.02693547351237 264.678125,115.36652903339322 263.43125000000003,115.68875385008889 262.184375,115.99449825976198 260.9375,116.28460516401897 259.690625,116.55987435369131 258.44374999999997,116.82106471376545 257.196875,117.06889631553992 255.95000000000002,117.30405240177781 254.703125,117.52718127032719 253.45625,117.73889806140258 252.209375,117.9397864534545 250.96249999999998,118.13040027230295 249.715625,118.31126501797024 248.46875,118.4828793134233 247.221875,118.64571627921887 245.97500000000002,118.80022483784164 244.72812499999998,118.94683095133094 243.48125,119.08593879560846 242.234375,119.21793187474395 240.9875,119.34317407823113 239.74062500000002,119.46201068418847 238.49375,119.5747693112507 237.246875,119.68176082177503 236.0,119.78328017885232 234.75312499999998,119.87960725948592 233.50625000000002,119.9710076261798 232.259375,120.05773325906338 231.0125,120.14002325057125 229.765625,120.21810446459314 228.51875,120.29219216191109 227.271875,120.3624905936483 226.02499999999998,120.42919356436562 224.77812500000002,120.49248496635798 223.53125,120.55253928662412 222.284375,120.60952208790673 221.0375,120.66359046512957 219.79062499999998,120.71489347848996 218.54375,120.76357256440014 217.296875,120.80976192541104 216.05,120.85358890019307 214.80312500000002,120.8951743145938 213.55624999999998,120.93463281474084 212.309375,120.97207318310771 211.0625,121.00759863841455 209.815625,121.04130712018991 208.56875000000002,121.07329155877869 207.321875,121.03157425950702 206.075,120.56616139547145 204.828125,120.11675621316277 203.58125,119.68280813503128 202.33437500000002,119.26378552041294 201.08749999999998,118.85917501420306 199.840625,118.4684809179321 198.59375,118.091224582473 197.346875,117.72694382163621 196.10000000000002,117.37519234593377 194.85312499999998,117.03553921581891 193.60625,116.70756831373119 192.359375,116.39087783430037 191.1125,116.0850797920848 189.865625,115.78979954624045 188.61875,115.5046753415393 187.371875,115.22935786517374 186.125,114.96350981880478 184.878125,114.70680550532941 183.63125000000002,114.45893042986094 182.38437499999998,114.21958091443332 181.1375,113.98846372595779 179.890625,113.76529571697557 178.64374999999998,113.54980347876696 177.396875,113.34172300639125 176.15,113.14079937524781 174.903125,112.94678642876158 173.65625,112.7594464768104 172.409375,112.57855000452489 171.1625,112.40387539110412 169.91562499999998,112.23520863830234 168.66875000000002,112.07234310825434 167.421875,111.91507927031836 166.17499999999998,111.7632244566259 164.92812500000002,111.6165926260397 163.68125,111.47500413622991 162.434375,111.33828552358982 161.1875,111.20626929072134 159.940625,111.07879370122963 158.69375,110.95570258157578 157.446875,110.83684512974483 156.20000000000002,110.72207573049428 154.953125,110.61125377695734 153.70625,110.50424349838181 152.459375,110.40091379379406 151.2125,110.30113807138383 149.965625,110.20479409341348 148.71875,110.11176382646154 147.47187499999998,110.02193329681685 146.225,109.93519245084666 144.978125,109.85143502016709 143.73125,109.77055839145103 142.484375,109.6924634807142 141.2375,109.61705461192454 139.990625,109.54423939978741 138.74374999999998,109.47392863656182 137.49687500000002,109.40603618277002 136.25,109.34047886166562" style="fill:rgb(40%,76.1%,64.7%);fill-opacity:1.0;opacity:0.7;stroke:none" /></g></g><g class="toyplot-coordinates-Axis" id="t553283d2d75e4e1cb7d655de715c06df" transform="translate(65.0,150.0)"><line x1="0" y1="0" x2="570.0" y2="0" style="stroke-width:5" /><g class="toyplot-coordinates-Axis-coordinates" style="visibility:hidden" transform=""><line x1="0" x2="0" y1="-3.0" y2="4.5" style="stroke:rgb(43.9%,50.2%,56.5%);stroke-opacity:1.0;stroke-width:1.0" /><text x="0" y="-6" style="alignment-baseline:alphabetic;fill:rgb(43.9%,50.2%,56.5%);fill-opacity:1.0;font-size:10px;font-weight:normal;stroke:none;text-anchor:middle" /></g></g><g class="toyplot-coordinates-Axis" id="tce7677cbd7da4f2b8cacc0a617b57b7a" transform="translate(65.0,150.0)rotate(-90.0)"><line x1="0" y1="0" x2="85.0" y2="0" style="stroke-width:5" /><g><line x1="0.0" y1="-7.5" x2="0.0" y2="0" style="stroke-width:5" /><line x1="42.5" y1="-7.5" x2="42.5" y2="0" style="stroke-width:5" /><line x1="85.0" y1="-7.5" x2="85.0" y2="0" style="stroke-width:5" /></g><g><g transform="translate(0.0,-6)"><text x="-6.95" y="-4.440892098500626e-16" style="fill:rgb(16.1%,15.3%,14.1%);fill-opacity:1.0;font-family:helvetica;font-size:10.0px;font-weight:normal;stroke:none;vertical-align:baseline;white-space:pre">0.0</text></g><g transform="translate(42.5,-6)"><text x="-6.95" y="-4.440892098500626e-16" style="fill:rgb(16.1%,15.3%,14.1%);fill-opacity:1.0;font-family:helvetica;font-size:10.0px;font-weight:normal;stroke:none;vertical-align:baseline;white-space:pre">0.5</text></g><g transform="translate(85.0,-6)"><text x="-6.95" y="-4.440892098500626e-16" style="fill:rgb(16.1%,15.3%,14.1%);fill-opacity:1.0;font-family:helvetica;font-size:10.0px;font-weight:normal;stroke:none;vertical-align:baseline;white-space:pre">1.0</text></g></g><g transform="translate(42.5,-35.0)"><text x="-31.008" y="0.0" style="fill:rgb(16.1%,15.3%,14.1%);fill-opacity:1.0;font-family:helvetica;font-size:12.0px;font-weight:bold;stroke:none;vertical-align:baseline;white-space:pre">Probability</text></g><g class="toyplot-coordinates-Axis-coordinates" style="visibility:hidden" transform=""><line x1="0" x2="0" y1="3.0" y2="-4.5" style="stroke:rgb(43.9%,50.2%,56.5%);stroke-opacity:1.0;stroke-width:1.0" /><text x="0" y="6" style="alignment-baseline:hanging;fill:rgb(43.9%,50.2%,56.5%);fill-opacity:1.0;font-size:10px;font-weight:normal;stroke:none;text-anchor:middle" /></g></g></g><g class="toyplot-coordinates-Cartesian" id="t5e1deb1da93e4c608d8f3938d5a208cd"><clipPath id="t0577713273bf45c9ba328bf8d3edad0d"><rect x="65.0" y="65.0" width="570.0" height="85.0" /></clipPath><g clip-path="url(#t0577713273bf45c9ba328bf8d3edad0d)" /><g class="toyplot-coordinates-Axis" id="t021ecaeb942046d1b5597386f916985f" transform="translate(65.0,65.0)"><line x1="0" y1="0" x2="570.0" y2="0" style="stroke-width:5" /><g><line x1="0.0" y1="-7.5" x2="0.0" y2="0" style="stroke-width:5" /><line x1="71.25" y1="-7.5" x2="71.25" y2="0" style="stroke-width:5" /><line x1="0.0" y1="-7.5" x2="0.0" y2="0" style="stroke-width:5" /><line x1="85.5" y1="-7.5" x2="85.5" y2="0" style="stroke-width:5" /><line x1="142.5" y1="-7.5" x2="142.5" y2="0" style="stroke-width:5" /><line x1="213.75" y1="-7.5" x2="213.75" y2="0" style="stroke-width:5" /><line x1="0.0" y1="-7.5" x2="0.0" y2="0" style="stroke-width:5" /><line x1="285.0" y1="-7.5" x2="285.0" y2="0" style="stroke-width:5" /><line x1="320.625" y1="-7.5" x2="320.625" y2="0" style="stroke-width:5" /><line x1="0.0" y1="-7.5" x2="0.0" y2="0" style="stroke-width:5" /><line x1="427.5" y1="-7.5" x2="427.5" y2="0" style="stroke-width:5" /><line x1="463.125" y1="-7.5" x2="463.125" y2="0" style="stroke-width:5" /><line x1="570.0" y1="-7.5" x2="570.0" y2="0" style="stroke-width:5" /></g><g class="toyplot-coordinates-Axis-coordinates" style="visibility:hidden" transform=""><line x1="0" x2="0" y1="3.0" y2="-4.5" style="stroke:rgb(43.9%,50.2%,56.5%);stroke-opacity:1.0;stroke-width:1.0" /><text x="0" y="6" style="alignment-baseline:hanging;fill:rgb(43.9%,50.2%,56.5%);fill-opacity:1.0;font-size:10px;font-weight:normal;stroke:none;text-anchor:middle" /></g></g></g><g class="toyplot-mark-Text" id="t6025ebd33e964e9ca2d3255238c92cbc"><g class="toyplot-Series"><g class="toyplot-Datum" transform="translate(350.0,107.5)"><text x="-23.346" y="3.066" style="fill:rgb(16.1%,15.3%,14.1%);fill-opacity:1.0;font-family:helvetica;font-size:12.0px;font-weight:normal;opacity:1;stroke:none;vertical-align:baseline;white-space:pre">branch 7</text></g></g></g></svg>