<svg class="toyplot-canvas-Canvas" xmlns:toyplot="http://www.sandia.gov/toyplot" xmlns:xlink="http://www.w3.org/1999/xlink" xmlns="http://www.w3.org/2000/svg" width="700.0px" height="215.0px" viewBox="0 0 700.0 215.0" preserveAspectRatio="xMidYMid meet" style="background-color:transparent;border-color:#292724;border-style:none;border-width:1.0;fill:rgb(16.1%,15.3%,14.1%);fill-opacity:1.0;font-family:Helvetica;font-size:12px;opacity:1.0;stroke:rgb(16.1%,15.3%,14.1%);stroke-opacity:1.0;stroke-width:1.0" id="tbde0e47f9ad04ab8a1ba86c66e88aa34"><g class="toyplot-coordinates-Cartesian" id="tc8d7525c5f744671b3dd3d265cc9797b"><clipPath id="t3e44ab234f4f40438a27edb9afcd2df7"><rect x="65.0" y="65.0" width="570.0" height="85.0" /></clipPath><g clip-path="url(#t3e44ab234f4f40438a27edb9afcd2df7)"><g class="toyplot-mark-FillBoundaries" style="stroke:none" id="t64d2f898f7134bcb971cd5828d9427e8"><polygon points="65.0,150.0 66.06875,150.0 67.13749999999999,150.0 68.20625000000001,150.0 69.275,150.0 70.34375,150.0 71.4125,150.0 72.48124999999999,150.0 73.55000000000001,150.0 74.61875,150.0 75.6875,150.0 76.75625,150.0 77.825,150.0 78.89375,150.0 79.9625,150.0 81.03125,150.0 82.1,150.0 83.16875,150.0 84.23750000000001,150.0 85.30624999999999,150.0 86.375,150.0 87.44375,150.0 88.5125,150.0 89.58125,150.0 90.64999999999999,150.0 91.71875,150.0 92.78750000000001,150.0 93.85625,150.0 94.925,150.0 95.99375,150.0 97.0625,150.0 98.13125000000001,150.0 99.19999999999999,150.0 100.26875,150.0 101.3375,150.0 102.40625,150.0 103.475,150.0 104.54375,150.0 105.6125,150.0 106.68125,150.0 107.75,150.0 108.81875,150.0 109.8875,150.0 110.95625000000001,150.0 112.025,150.0 113.09375,150.0 114.1625,150.0 115.23124999999999,150.0 116.3,150.0 117.36874999999999,150.0 118.4375,150.0 119.50625000000001,150.0 120.575,150.0 121.64375000000001,150.0 122.7125,150.0 123.78125,150.0 124.85,150.0 125.91874999999999,150.0 126.98750000000001,150.0 128.05625,150.0 129.125,150.0 130.19375,150.0 131.26250000000002,150.0 132.33124999999998,150.0 133.4,150.0 134.46875,150.0 135.5375,150.0 136.60625,150.0 137.675,150.0 138.74374999999998,150.0 139.8125,150.0 140.88125,150.0 141.95000000000002,150.0 143.01874999999998,150.0 144.0875,150.0 145.15625,150.0 146.225,150.0 147.29375000000002,150.0 148.36249999999998,150.0 149.43125,150.0 150.5,150.0 151.56875000000002,150.0 152.6375,150.0 153.70625,150.0 154.775,150.0 155.84375,150.0 156.9125,150.0 157.98125,150.0 159.05,150.0 160.11875,150.0 161.1875,150.0 162.25625,150.0 163.325,150.0 164.39375,150.0 165.46249999999998,150.0 166.53125,150.0 167.6,150.0 168.66875000000002,150.0 169.73749999999998,150.0 170.80625,150.0 171.875,150.0 172.94375,150.0 174.01250000000002,150.0 175.08124999999998,150.0 176.15,150.0 177.21875,150.0 178.28750000000002,150.0 179.35625,150.0 180.425,150.0 181.49374999999998,150.0 182.5625,150.0 183.63125000000002,150.0 184.7,150.0 185.76875,150.0 186.83749999999998,150.0 187.90625,150.0 188.97500000000002,150.0 190.04375,150.0 191.1125,150.0 192.18124999999998,150.0 193.25,150.0 194.31875,150.0 195.3875,150.0 196.45625,150.0 197.525,150.0 198.59375,150.0 199.6625,150.0 200.73125,150.0 201.8,150.0 202.86875,150.0 203.9375,150.0 205.00625000000002,150.0 206.075,150.0 207.14375,150.0 208.21249999999998,150.0 209.28125,150.0 210.35000000000002,150.0 211.41875000000002,150.0 212.48749999999998,150.0 213.55624999999998,150.0 214.625,150.0 215.69375000000002,150.0 216.7625,150.0 217.83125,150.0 218.9,150.0 219.96875,150.0 221.0375,150.0 222.10625,150.0 223.175,150.0 224.24374999999998,150.0 225.3125,150.0 226.38125000000002,150.0 227.45,150.0 228.51875,150.0 229.5875,150.0 230.65625,150.0 231.725,150.0 232.79375,150.0 233.8625,150.0 234.93124999999998,150.0 236.0,150.0 237.06875000000002,150.0 238.13750000000002,150.0 239.20624999999998,150.0 240.27499999999998,150.0 241.34375,150.0 242.41250000000002,150.0 243.48125,150.0 244.55,150.0 245.61875,150.0 246.6875,150.0 247.75625,150.0 248.825,150.0 249.89375,150.0 250.96249999999998,150.0 252.03125,150.0 253.10000000000002,150.0 254.16875,150.0 255.2375,150.0 256.30625000000003,150.0 257.375,150.0 258.44374999999997,150.0 259.5125,150.0 260.58125,150.0 261.65,150.0 262.71875,150.0 263.7875,150.0 264.85625000000005,150.0 265.92499999999995,150.0 266.99375,150.0 268.0625,150.0 269.13125,150.0 270.2,150.0 271.26875,150.0 272.33750000000003,150.0 273.40625,150.0 274.47499999999997,150.0 275.54375,150.0 276.6125,150.0 277.68125,150.0 277.68125,105.47253867824391 276.6125,106.1851210892516 275.54375,106.86634807977347 274.47499999999997,107.51759936726916 273.40625,108.1401939581556 272.33750000000003,108.73539281924593 271.26875,109.30440143163823 270.2,109.8483722322266 269.13125,110.36840694777982 268.0625,110.86555882631448 266.99375,111.34083477028224 265.92499999999995,111.79519737589125 264.85625000000005,112.2295668826926 263.7875,112.64482303737975 262.71875,113.04180687557637 261.65,113.42132242522081 260.58125,113.78413833499738 259.5125,114.13098943111277 258.44374999999997,114.46257820557011 257.375,114.77957623895547 256.30625000000003,115.08262556061791 255.2375,115.37233994899844 254.16875,115.64930617474104 253.10000000000002,115.9140851891038 252.03125,116.16721326007682 250.96249999999998,116.40920305850831 249.89375,116.64054469643811 248.825,116.86170671974214 247.75625,117.07313705709792 246.6875,117.27526392719317 245.61875,117.46849670601503 244.55,117.65322675597632 243.48125,117.82982821855825 242.41250000000002,117.9986587720746 241.34375,118.16006035609271 240.27499999999998,118.31435986397791 239.20624999999998,118.46186980496425 238.13750000000002,118.60288893709253 237.06875000000002,118.73770287229746 236.0,118.8665846548694 234.93124999999998,118.9897953144623 233.8625,119.10758439476814 232.79375,119.22019045892793 231.725,119.32784157270385 230.65625,119.43075576639015 229.5875,119.52914147639913 228.51875,119.6231979674161 227.45,119.71311573597836 226.38125000000002,119.79907689629593 225.3125,119.88125554909499 224.24374999999998,119.95981813423133 223.175,120.03492376778794 222.10625,120.10672456433957 221.0375,120.17536594503653 219.96875,120.24098693213239 218.9,120.3037204305514 217.83125,120.36369349706656 216.7625,120.42102759763289 215.69375000000002,120.47583885339745 214.625,120.52823827588446 213.55624999999998,120.57833199183158 212.48749999999998,120.62622145813268 211.41875000000002,120.67200366732285 210.35000000000002,120.71577134402142 209.28125,120.75761313273094 208.21249999999998,120.79761377737265 207.14375,120.6907291400147 206.075,120.30088417817542 205.00625000000002,119.9225608761821 203.9375,119.55541871752536 202.86875,119.19912724947957 201.8,118.85336578567309 200.73125,118.51782311744893 199.6625,118.19219723375579 198.59375,117.87619504931803 197.525,117.56953214083882 196.45625,117.27193249100017 195.3875,116.98312824002868 194.31875,116.70285944460355 193.25,116.43087384389023 192.18124999999998,116.16692663248845 191.1125,115.91078024009104 190.04375,115.6622041176544 188.97500000000002,115.42097452988895 187.90625,115.18687435388223 186.83749999999998,114.95969288367358 185.76875,114.73922564060462 184.7,114.52527418927458 183.63125000000002,114.31764595893515 182.5625,114.11615407016366 181.49374999999998,113.9206171666591 180.425,113.7308592520092 179.35625,113.54670953128172 178.28750000000002,113.36800225729755 177.21875,113.19457658144697 176.15,113.02627640891514 175.08124999999998,112.86295025818619 174.01250000000002,112.7044511246996 172.94375,112.55063634853624 171.875,112.40136748601472 170.80625,112.25651018508289 169.73749999999998,112.11593406439168 168.66875000000002,111.9795125959433 167.6,111.84712299120746 166.53125,111.71864609060331 165.46249999999998,111.59396625624787 164.39375,111.47297126787404 163.325,111.35555222182492 162.25625,111.24160343303302 161.1875,111.13102233989667 160.11875,111.02370941196757 159.05,110.91956806036677 157.98125,110.81850455084806 156.9125,110.72042791943089 155.84375,110.62524989052665 154.775,110.53288479748453 153.70625,110.44324950548604 152.6375,110.35626333671777 151.56875000000002,110.27184799775613 150.5,110.18992750909781 149.43125,110.11042813677324 148.36249999999998,110.03327832598094 147.29375000000002,109.95840863668344 146.225,109.88575168110653 145.15625,109.81524206308568 144.0875,109.74681631920512 143.01874999999998,109.68041286167652 141.95000000000002,109.61597192290569 140.88125,109.55343550169789 139.8125,109.49274731105265 138.74374999999998,109.43385272750183 137.675,109.37669874194476 136.60625,109.32123391193639 135.5375,108.83113403408511 134.46875,108.14919177720327 133.4,107.49725669686867 132.33124999999998,106.87400840175013 131.26250000000002,106.27818460106002 130.19375,105.70857854798405 129.125,105.16403659560655 128.05625,104.64345586038117 126.98750000000001,104.14578198841487 125.91874999999999,103.67000702004097 124.85,103.21516734835632 123.78125,102.78034176758797 122.7125,102.36464960733682 121.64375000000001,101.96724894891896 120.575,101.58733492019266 119.50625000000001,101.22413806541726 118.4375,100.87692278684229 117.36874999999999,100.54498585487062 116.3,100.22765498377831 115.23124999999999,99.92428747010615 114.1625,99.6342688909656 113.09375,99.35701185962242 112.025,99.09195483583781 110.95625000000001,98.83856098855756 109.8875,98.59631710864564 108.81875,98.36473256946036 107.75,98.14333833316775 106.68125,97.93168600077965 105.6125,97.72934690399254 104.54375,97.53591123698766 103.475,97.35098722643431 102.40625,97.1742003380148 101.3375,97.00519251786466 100.26875,96.84362146739103 99.19999999999999,96.68915995000108 98.13125000000001,96.54149512833621 97.0625,96.40032793066925 95.99375,96.26537244518218 94.925,96.136355340897 93.85625,96.01301531408697 92.78750000000001,95.89510255904733 91.71875,95.78237826215344 90.64999999999999,95.67461411818147 89.58125,95.57159186791239 88.5125,95.47310285608235 87.44375,95.3789476087846 86.375,95.28893542946659 85.30624999999999,95.20288401270426 84.23750000000001,95.1206190749713 83.16875,95.04197400165543 82.1,94.96678950960688 81.03125,94.89491332453558 79.9625,94.82619987260364 78.89375,94.76050998558864 77.825,94.6977106190204 76.75625,94.63767458272044 75.6875,94.58028028319843 74.61875,94.52541147738384 73.55000000000001,94.4729570371939 72.48124999999999,94.42281072446136 71.4125,94.3748709757658 70.34375,94.32904069673316 69.275,94.28522706538625 68.20625000000001,94.24334134414862 67.13749999999999,94.20329870012071 66.06875,94.16501803326406 65.0,94.12842181214623" style="fill:rgb(40%,76.1%,64.7%);fill-opacity:1.0;opacity:0.7;stroke:none" /></g></g><g class="toyplot-coordinates-Axis" id="t504540e6b0b447338b9a314f73798424" transform="translate(65.0,150.0)"><line x1="0" y1="0" x2="570.0" y2="0" style="stroke-width:5" /><g class="toyplot-coordinates-Axis-coordinates" style="visibility:hidden" transform=""><line x1="0" x2="0" y1="-3.0" y2="4.5" style="stroke:rgb(43.9%,50.2%,56.5%);stroke-opacity:1.0;stroke-width:1.0" /><text x="0" y="-6" style="alignment-baseline:alphabetic;fill:rgb(43.9%,50.2%,56.5%);fill-opacity:1.0;font-size:10px;font-weight:normal;stroke:none;text-anchor:middle" /></g></g><g class="toyplot-coordinates-Axis" id="td21fcc7ce9a540fea759e73921f554e7" transform="translate(65.0,150.0)rotate(-90.0)"><line x1="0" y1="0" x2="85.0" y2="0" style="stroke-width:5" /><g><line x1="0.0" y1="-7.5" x2="0.0" y2="0" style="stroke-width:5" /><line x1="42.5" y1="-7.5" x2="42.5" y2="0" style="stroke-width:5" /><line x1="85.0" y1="-7.5" x2="85.0" y2="0" style="stroke-width:5" /></g><g><g transform="translate(0.0,-6)"><text x="-6.95" y="-4.440892098500626e-16" style="fill:rgb(16.1%,15.3%,14.1%);fill-opacity:1.0;font-family:helvetica;font-size:10.0px;font-weight:normal;stroke:none;vertical-align:baseline;white-space:pre">0.0</text></g><g transform="translate(42.5,-6)"><text x="-6.95" y="-4.440892098500626e-16" style="fill:rgb(16.1%,15.3%,14.1%);fill-opacity:1.0;font-family:helvetica;font-size:10.0px;font-weight:normal;stroke:none;vertical-align:baseline;white-space:pre">0.5</text></g><g transform="translate(85.0,-6)"><text x="-6.95" y="-4.440892098500626e-16" style="fill:rgb(16.1%,15.3%,14.1%);fill-opacity:1.0;font-family:helvetica;font-size:10.0px;font-weight:normal;stroke:none;vertical-align:baseline;white-space:pre">1.0</text></g></g><g transform="translate(42.5,-35.0)"><text x="-31.008" y="0.0" style="fill:rgb(16.1%,15.3%,14.1%);fill-opacity:1.0;font-family:helvetica;font-size:12.0px;font-weight:bold;stroke:none;vertical-align:baseline;white-space:pre">Probability</text></g><g class="toyplot-coordinates-Axis-coordinates" style="visibility:hidden" transform=""><line x1="0" x2="0" y1="3.0" y2="-4.5" style="stroke:rgb(43.9%,50.2%,56.5%);stroke-opacity:1.0;stroke-width:1.0" /><text x="0" y="6" style="alignment-baseline:hanging;fill:rgb(43.9%,50.2%,56.5%);fill-opacity:1.0;font-size:10px;font-weight:normal;stroke:none;text-anchor:middle" /></g></g></g><g class="toyplot-coordinates-Cartesian" id="te9ffe619ee89469baa20278de602c7cf"><clipPath id="t2990e9db100d4c7c8a97b005c303e2da"><rect x="65.0" y="65.0" width="570.0" height="85.0" /></clipPath><g clip-path="url(#t2990e9db100d4c7c8a97b005c303e2da)" /><g class="toyplot-coordinates-Axis" id="t3451af5753f2413896d67b508d666213" transform="translate(65.0,65.0)"><line x1="0" y1="0" x2="570.0" y2="0" style="stroke-width:5" /><g><line x1="0.0" y1="-7.5" x2="0.0" y2="0" style="stroke-width:5" /><line x1="71.25" y1="-7.5" x2="71.25" y2="0" style="stroke-width:5" /><line x1="0.0" y1="-7.5" x2="0.0" y2="0" style="stroke-width:5" /><line x1="85.5" y1="-7.5" x2="85.5" y2="0" style="stroke-width:5" /><line x1="142.5" y1="-7.5" x2="142.5" y2="0" style="stroke-width:5" /><line x1="213.75" y1="-7.5" x2="213.75" y2="0" style="stroke-width:5" /><line x1="0.0" y1="-7.5" x2="0.0" y2="0" style="stroke-width:5" /><line x1="285.0" y1="-7.5" x2="285.0" y2="0" style="stroke-width:5" /><line x1="320.625" y1="-7.5" x2="320.625" y2="0" style="stroke-width:5" /><line x1="0.0" y1="-7.5" x2="0.0" y2="0" style="stroke-width:5" /><line x1="427.5" y1="-7.5" x2="427.5" y2="0" style="stroke-width:5" /><line x1="463.125" y1="-7.5" x2="463.125" y2="0" style="stroke-width:5" /><line x1="570.0" y1="-7.5" x2="570.0" y2="0" style="stroke-width:5" /></g><g class="toyplot-coordinates-Axis-coordinates" style="visibility:hidden" transform=""><line x1="0" x2="0" y1="3.0" y2="-4.5" style="stroke:rgb(43.9%,50.2%,56.5%);stroke-opacity:1.0;stroke-width:1.0" /><text x="0" y="6" style="alignment-baseline:hanging;fill:rgb(43.9%,50.2%,56.5%);fill-opacity:1.0;font-size:10px;font-weight:normal;stroke:none;text-anchor:middle" /></g></g></g><g class="toyplot-mark-Text" id="t8213462a9773469eb87a7038fb4e21c2"><g class="toyplot-Series"><g class="toyplot-Datum" transform="translate(350.0,107.5)"><text x="-23.346" y="3.066" style="fill:rgb(16.1%,15.3%,14.1%);fill-opacity:1.0;font-family:helvetica;font-size:12.0px;font-weight:normal;opacity:1;stroke:none;vertical-align:baseline;white-space:pre">branch 2</text></g></g></g></svg>