<svg class="toyplot-canvas-Canvas" xmlns:toyplot="http://www.sandia.gov/toyplot" xmlns:xlink="http://www.w3.org/1999/xlink" xmlns="http://www.w3.org/2000/svg" width="700.0px" height="215.0px" viewBox="0 0 700.0 215.0" preserveAspectRatio="xMidYMid meet" style="background-color:transparent;border-color:#292724;border-style:none;border-width:1.0;fill:rgb(16.1%,15.3%,14.1%);fill-opacity:1.0;font-family:Helvetica;font-size:12px;opacity:1.0;stroke:rgb(16.1%,15.3%,14.1%);stroke-opacity:1.0;stroke-width:1.0" id="t99bfb222a765455e868e6c8234e424a0"><g class="toyplot-coordinates-Cartesian" id="t326cd48a6820466c9de195e9f4bcefd7"><clipPath id="t7f67742fe1d144a087e2439b94b053f3"><rect x="65.0" y="65.0" width="570.0" height="85.0" /></clipPath><g clip-path="url(#t7f67742fe1d144a087e2439b94b053f3)"><g class="toyplot-mark-FillBoundaries" style="stroke:none" id="te3e66be575c240649b18b3680a60d983"><polygon points="65.0,150.0 67.31562500000001,150.0 69.63125,150.0 71.946875,150.0 74.2625,150.0 76.578125,150.0 78.89375,150.0 81.209375,150.0 83.525,150.0 85.84062499999999,150.0 88.15625,150.0 90.471875,150.0 92.78750000000001,150.0 95.10312499999999,150.0 97.41875,150.0 99.734375,150.0 102.05000000000001,150.0 104.365625,150.0 106.68125,150.0 108.996875,150.0 111.3125,150.0 113.628125,150.0 115.94375,150.0 118.259375,150.0 120.575,150.0 122.890625,150.0 125.20624999999998,150.0 127.521875,150.0 129.8375,150.0 132.153125,150.0 134.46875,150.0 136.784375,150.0 139.1,150.0 141.415625,150.0 143.73125,150.0 146.046875,150.0 148.36249999999998,150.0 150.678125,150.0 152.99375,150.0 155.30937500000002,150.0 157.625,150.0 159.940625,150.0 162.25625,150.0 164.571875,150.0 166.8875,150.0 169.203125,150.0 171.51875,150.0 173.83437500000002,150.0 176.15,150.0 178.46562500000002,150.0 180.78125,150.0 183.096875,150.0 185.4125,150.0 187.72812499999998,150.0 190.04375,150.0 192.359375,150.0 194.675,150.0 196.99062500000002,150.0 199.30624999999998,150.0 201.621875,150.0 203.9375,150.0 206.253125,150.0 208.56875000000002,150.0 210.88437499999998,150.0 213.2,150.0 215.515625,150.0 217.83125,150.0 220.14687500000002,150.0 222.46249999999998,150.0 224.77812500000002,150.0 227.09375,150.0 229.409375,150.0 231.725,150.0 234.040625,150.0 236.35625,150.0 238.671875,150.0 240.9875,150.0 243.303125,150.0 245.61875,150.0 247.934375,150.0 250.25,150.0 252.56562499999998,150.0 254.88125000000002,150.0 257.196875,150.0 259.5125,150.0 261.828125,150.0 264.14375,150.0 266.459375,150.0 268.775,150.0 271.090625,150.0 273.40625,150.0 275.721875,150.0 278.0375,150.0 280.353125,150.0 282.66875000000005,150.0 284.984375,150.0 287.3,150.0 289.61562499999997,150.0 291.93125000000003,150.0 294.246875,150.0 296.5625,150.0 298.878125,150.0 301.19375,150.0 303.509375,150.0 305.825,150.0 308.140625,150.0 310.45624999999995,150.0 312.771875,150.0 315.0875,150.0 317.40312500000005,150.0 319.71875,150.0 322.03437499999995,150.0 324.35,150.0 326.665625,150.0 328.98125000000005,150.0 331.296875,150.0 333.61249999999995,150.0 335.928125,150.0 338.24375,150.0 340.55937500000005,150.0 342.875,150.0 345.190625,150.0 347.50625,150.0 349.821875,150.0 352.13750000000005,150.0 354.453125,150.0 356.76874999999995,150.0 359.084375,150.0 361.4,150.0 363.715625,150.0 366.03125,150.0 368.346875,150.0 370.6625,150.0 372.978125,150.0 375.29375000000005,150.0 377.609375,150.0 379.92499999999995,150.0 382.24062499999997,150.0 384.55625000000003,150.0 386.87187500000005,150.0 389.1875,150.0 391.50312499999995,150.0 393.81875,150.0 396.134375,150.0 398.45,150.0 400.765625,150.0 403.08125,150.0 405.396875,150.0 407.7125,150.0 410.02812500000005,150.0 412.34375,150.0 414.65937499999995,150.0 416.975,150.0 419.290625,150.0 421.60625,150.0 423.921875,150.0 426.2375,150.0 428.553125,150.0 430.86875,150.0 433.18437500000005,150.0 435.5,150.0 437.81562499999995,150.0 440.13124999999997,150.0 442.44687500000003,150.0 444.76250000000005,150.0 447.078125,150.0 449.39374999999995,150.0 451.709375,150.0 454.025,150.0 456.340625,150.0 458.65625,150.0 460.971875,150.0 463.2875,150.0 465.603125,150.0 467.91875000000005,150.0 470.234375,150.0 472.54999999999995,150.0 474.865625,150.0 477.18125,150.0 479.496875,150.0 481.8125,150.0 484.128125,150.0 486.44375,150.0 488.759375,150.0 491.07500000000005,150.0 493.390625,150.0 495.70624999999995,150.0 498.02187499999997,150.0 500.33750000000003,150.0 502.65312500000005,150.0 504.96875,150.0 507.28437499999995,150.0 509.6,150.0 511.915625,150.0 514.2312499999999,150.0 516.546875,150.0 518.8625000000001,150.0 521.178125,150.0 523.49375,150.0 525.809375,150.0 525.809375,67.63210032258563 523.49375,70.01968468841282 521.178125,72.18546805731668 518.8625000000001,74.15005522255201 516.546875,75.93213684032744 514.2312499999999,77.5486672486551 511.915625,79.01502576724525 509.6,80.34516301301868 507.28437499999995,81.55173362325034 504.96875,82.64621664904386 502.65312500000005,83.63902476453428 500.33750000000003,84.53960333081125 498.02187499999997,85.35652025703604 495.70624999999995,86.09754751367112 493.390625,86.76973507332147 491.07500000000005,87.81468507157773 488.759375,89.05353187423799 486.44375,90.21441490512007 484.128125,91.30224062214663 481.8125,92.3216067073974 479.496875,93.27682149915627 477.18125,94.17192220105036 474.865625,95.01069194524156 472.54999999999995,95.79667578178854 470.234375,96.53319566175725 467.91875000000005,97.22336447740658 465.603125,97.87009921878925 463.2875,98.47613330237476 460.971875,99.0440281238005 458.65625,99.57618388357906 456.340625,100.07484973151645 454.025,100.54213327271607 451.709375,100.98000947534602 449.39374999999995,101.39032901781779 447.078125,101.774826110656 444.76250000000005,102.13512582611787 442.44687500000003,102.47275096654133 440.13124999999997,102.78912850045037 437.81562499999995,103.08559559362013 435.5,103.36340526059158 433.18437500000005,103.62373166052222 430.86875,103.86767505975544 428.553125,104.09626648208254 426.2375,104.31047206635245 423.921875,104.51119714984551 421.60625,104.69929009467057 419.290625,104.875545873357 416.975,105.04070942879628 414.65937499999995,105.19547882273417 412.34375,105.34050818612 410.02812500000005,105.47641048378321 407.7125,105.60376010512161 405.396875,105.72309529175126 403.08125,105.83492041237801 400.765625,105.93970809450556 398.45,106.03790122199004 396.134375,106.129914806883 393.81875,106.21613774347492 391.50312499999995,106.29693445195204 389.1875,106.37264641861395 386.87187500000005,106.44359363916115 384.55625000000003,105.90144501251842 382.24062499999997,104.73389686645694 379.92499999999995,103.67481120928545 377.609375,102.71411212975701 375.29375000000005,101.84265974518627 372.978125,101.05216324658778 370.6625,100.33510202171739 368.346875,99.68465410559861 366.03125,99.09463127782716 363.715625,98.55942018918432 361.4,98.07392895744975 359.084375,97.63353872433854 356.76874999999995,97.23405971268502 354.453125,96.87169136581174 352.13750000000005,96.54298618985727 349.821875,96.40090055826379 347.50625,98.11486844965873 345.190625,99.77402784681907 342.875,101.38013139111882 340.55937500000005,102.93487567875464 338.24375,104.43990305293306 335.928125,105.89680333874847 333.61249999999995,107.30711552258342 331.296875,108.67232937780625 328.98125000000005,109.99388703848271 326.665625,111.27318452276407 324.35,112.51157320756116 322.03437499999995,113.71036125606176 319.71875,114.87081499959983 317.40312500000005,115.99416027533545 315.0875,117.08158372115946 312.771875,118.13423402919005 310.45624999999995,119.1532231591855 308.140625,120.13962751315515 305.825,121.09448907240912 303.509375,122.0188164982479 301.19375,122.91358619745459 298.878125,123.77974335371549 296.5625,124.61820292605809 294.246875,125.42985061536167 291.93125000000003,126.21554379996125 289.61562499999997,126.97611244133307 287.3,127.71235996081874 284.984375,128.42506408831343 282.66875000000005,129.11497768381577 280.353125,129.78282953270582 278.0375,130.42932511559277 275.721875,131.0551473535441 273.40625,131.66095732948466 271.090625,132.2473949865269 268.775,132.81507980397024 266.459375,133.36461145168374 264.14375,133.89657042356328 261.828125,134.4115186507318 259.5125,134.91000009513175 257.196875,135.3925413241353 254.88125000000002,135.85965206677986 252.56562499999998,136.3118257522172 250.25,136.7495400309435 247.934375,137.1732572793623 245.61875,137.5834250882124 243.303125,137.98047673537747 240.9875,138.3648316435757 238.671875,138.73689582341444 236.35625,139.09706230227644 234.040625,139.44571153949153 231.725,139.7832118282323 229.409375,140.10991968455792 227.09375,140.4261802240174 224.77812500000002,140.73232752620993 222.46249999999998,141.02868498768757 220.14687500000002,141.31556566357295 217.83125,141.59327259825278 215.515625,141.86209914549667 213.2,142.12232927833944 210.88437499999998,142.37423788905375 208.56875000000002,142.6180910795311 206.253125,142.8541464423761 203.9375,143.08265333301316 201.621875,143.30385313309097 199.30624999999998,143.5179795054645 196.99062500000002,143.725258641023 194.675,143.92590949762527 192.359375,144.12014403139418 190.04375,144.30816742061495 187.72812499999998,144.49017828247403 185.4125,144.66636888286678 183.096875,144.83692533949622 180.78125,145.0020278184772 178.46562500000002,145.16185072465356 176.15,145.3165628858296 173.83437500000002,145.4663277311099 171.51875,145.61130346353673 169.203125,145.75164322720667 166.8875,145.8874952690432 164.571875,146.01900309539636 162.25625,146.14630562363473 159.940625,146.26953732888978 157.625,146.38882838610763 155.30937500000002,146.50430480755864 152.99375,146.6160885759494 150.678125,146.72429777327838 148.36249999999998,146.82904670557107 146.046875,146.93044602362627 143.73125,147.02860283990125 141.415625,147.12362084165943 139.1,147.21560040049945 136.784375,147.3046386783822 134.46875,147.39082973026697 132.153125,147.47426460346603 129.8375,147.55503143382154 127.521875,147.63321553880738 125.20624999999998,147.70889950765365 122.890625,147.78216328858917 120.575,147.8530842732943 118.259375,147.92173737865298 115.94375,147.98819512589083 113.628125,148.05252771718227 111.3125,148.11480310980824 108.996875,148.1750870879422 106.68125,148.23344333214104 104.365625,148.28993348661334 102.05000000000001,148.34461722433696 99.734375,148.3975523100941 97.41875,148.44879466149078 95.10312499999999,148.49839840802488 92.78750000000001,148.54641594826566 90.471875,148.59289800520443 88.15625,148.63789367983546 85.84062499999999,148.68145050302363 83.525,148.72361448571309 81.209375,148.7644301675308 78.89375,148.8039406638355 76.578125,148.84218771126245 74.2625,148.87921171181148 71.946875,148.9150517755255 69.63125,148.94974576180408 67.31562500000001,148.98333031939586 65.0,149.0158409251124" style="fill:rgb(40%,76.1%,64.7%);fill-opacity:1.0;opacity:0.7;stroke:none" /></g></g><g class="toyplot-coordinates-Axis" id="t875f6c71be3d4e43ac11cefc43d68106" transform="translate(65.0,150.0)"><line x1="0" y1="0" x2="570.0" y2="0" style="stroke-width:5" /><g class="toyplot-coordinates-Axis-coordinates" style="visibility:hidden" transform=""><line x1="0" x2="0" y1="-3.0" y2="4.5" style="stroke:rgb(43.9%,50.2%,56.5%);stroke-opacity:1.0;stroke-width:1.0" /><text x="0" y="-6" style="alignment-baseline:alphabetic;fill:rgb(43.9%,50.2%,56.5%);fill-opacity:1.0;font-size:10px;font-weight:normal;stroke:none;text-anchor:middle" /></g></g><g class="toyplot-coordinates-Axis" id="te2349c3711004c5796775ce3691fb74e" transform="translate(65.0,150.0)rotate(-90.0)"><line x1="0" y1="0" x2="85.0" y2="0" style="stroke-width:5" /><g><line x1="0.0" y1="-7.5" x2="0.0" y2="0" style="stroke-width:5" /><line x1="42.5" y1="-7.5" x2="42.5" y2="0" style="stroke-width:5" /><line x1="85.0" y1="-7.5" x2="85.0" y2="0" style="stroke-width:5" /></g><g><g transform="translate(0.0,-6)"><text x="-6.95" y="-4.440892098500626e-16" style="fill:rgb(16.1%,15.3%,14.1%);fill-opacity:1.0;font-family:helvetica;font-size:10.0px;font-weight:normal;stroke:none;vertical-align:baseline;white-space:pre">0.0</text></g><g transform="translate(42.5,-6)"><text x="-6.95" y="-4.440892098500626e-16" style="fill:rgb(16.1%,15.3%,14.1%);fill-opacity:1.0;font-family:helvetica;font-size:10.0px;font-weight:normal;stroke:none;vertical-align:baseline;white-space:pre">0.5</text></g><g transform="translate(85.0,-6)"><text x="-6.95" y="-4.440892098500626e-16" style="fill:rgb(16.1%,15.3%,14.1%);fill-opacity:1.0;font-family:helvetica;font-size:10.0px;font-weight:normal;stroke:none;vertical-align:baseline;white-space:pre">1.0</text></g></g><g transform="translate(42.5,-35.0)"><text x="-31.008" y="0.0" style="fill:rgb(16.1%,15.3%,14.1%);fill-opacity:1.0;font-family:helvetica;font-size:12.0px;font-weight:bold;stroke:none;vertical-align:baseline;white-space:pre">Probability</text></g><g class="toyplot-coordinates-Axis-coordinates" style="visibility:hidden" transform=""><line x1="0" x2="0" y1="3.0" y2="-4.5" style="stroke:rgb(43.9%,50.2%,56.5%);stroke-opacity:1.0;stroke-width:1.0" /><text x="0" y="6" style="alignment-baseline:hanging;fill:rgb(43.9%,50.2%,56.5%);fill-opacity:1.0;font-size:10px;font-weight:normal;stroke:none;text-anchor:middle" /></g></g></g><g class="toyplot-coordinates-Cartesian" id="tc56f79370cac49aa80a6f62d1fd3b7a1"><clipPath id="t279d1a989d4f4f3f815e6589fddfadb3"><rect x="65.0" y="65.0" width="570.0" height="85.0" /></clipPath><g clip-path="url(#t279d1a989d4f4f3f815e6589fddfadb3)" /><g class="toyplot-coordinates-Axis" id="t5dac4b83672a4325913d629a5e7fe866" transform="translate(65.0,65.0)"><line x1="0" y1="0" x2="570.0" y2="0" style="stroke-width:5" /><g><line x1="0.0" y1="-7.5" x2="0.0" y2="0" style="stroke-width:5" /><line x1="71.25" y1="-7.5" x2="71.25" y2="0" style="stroke-width:5" /><line x1="0.0" y1="-7.5" x2="0.0" y2="0" style="stroke-width:5" /><line x1="85.5" y1="-7.5" x2="85.5" y2="0" style="stroke-width:5" /><line x1="142.5" y1="-7.5" x2="142.5" y2="0" style="stroke-width:5" /><line x1="213.75" y1="-7.5" x2="213.75" y2="0" style="stroke-width:5" /><line x1="0.0" y1="-7.5" x2="0.0" y2="0" style="stroke-width:5" /><line x1="285.0" y1="-7.5" x2="285.0" y2="0" style="stroke-width:5" /><line x1="320.625" y1="-7.5" x2="320.625" y2="0" style="stroke-width:5" /><line x1="0.0" y1="-7.5" x2="0.0" y2="0" style="stroke-width:5" /><line x1="427.5" y1="-7.5" x2="427.5" y2="0" style="stroke-width:5" /><line x1="463.125" y1="-7.5" x2="463.125" y2="0" style="stroke-width:5" /><line x1="570.0" y1="-7.5" x2="570.0" y2="0" style="stroke-width:5" /></g><g class="toyplot-coordinates-Axis-coordinates" style="visibility:hidden" transform=""><line x1="0" x2="0" y1="3.0" y2="-4.5" style="stroke:rgb(43.9%,50.2%,56.5%);stroke-opacity:1.0;stroke-width:1.0" /><text x="0" y="6" style="alignment-baseline:hanging;fill:rgb(43.9%,50.2%,56.5%);fill-opacity:1.0;font-size:10px;font-weight:normal;stroke:none;text-anchor:middle" /></g></g></g><g class="toyplot-mark-Text" id="te8bc793288ac43e6b34623c7d4828318"><g class="toyplot-Series"><g class="toyplot-Datum" transform="translate(350.0,107.5)"><text x="-23.346" y="3.066" style="fill:rgb(16.1%,15.3%,14.1%);fill-opacity:1.0;font-family:helvetica;font-size:12.0px;font-weight:normal;opacity:1;stroke:none;vertical-align:baseline;white-space:pre">branch 5</text></g></g></g></svg>