<svg class="toyplot-canvas-Canvas" xmlns:toyplot="http://www.sandia.gov/toyplot" xmlns:xlink="http://www.w3.org/1999/xlink" xmlns="http://www.w3.org/2000/svg" width="700.0px" height="215.0px" viewBox="0 0 700.0 215.0" preserveAspectRatio="xMidYMid meet" style="background-color:transparent;border-color:#292724;border-style:none;border-width:1.0;fill:rgb(16.1%,15.3%,14.1%);fill-opacity:1.0;font-family:Helvetica;font-size:12px;opacity:1.0;stroke:rgb(16.1%,15.3%,14.1%);stroke-opacity:1.0;stroke-width:1.0" id="t807f46f143074142adc5f982381c551a"><g class="toyplot-coordinates-Cartesian" id="t61d3d4ada9474984ae6eea2b698a6716"><clipPath id="tc7b648d9ecd643739c9c70e644855fa3"><rect x="65.0" y="65.0" width="570.0" height="85.0" /></clipPath><g clip-path="url(#tc7b648d9ecd643739c9c70e644855fa3)"><g class="toyplot-mark-FillBoundaries" style="stroke:none" id="tf85326042be6493e8f013cfbc6f0e124"><polygon points="65.0,150.0 67.31562500000001,150.0 69.63125,150.0 71.946875,150.0 74.2625,150.0 76.578125,150.0 78.89375,150.0 81.209375,150.0 83.525,150.0 85.84062499999999,150.0 88.15625,150.0 90.471875,150.0 92.78750000000001,150.0 95.10312499999999,150.0 97.41875,150.0 99.734375,150.0 102.05000000000001,150.0 104.365625,150.0 106.68125,150.0 108.996875,150.0 111.3125,150.0 113.628125,150.0 115.94375,150.0 118.259375,150.0 120.575,150.0 122.890625,150.0 125.20624999999998,150.0 127.521875,150.0 129.8375,150.0 132.153125,150.0 134.46875,150.0 136.784375,150.0 139.1,150.0 141.415625,150.0 143.73125,150.0 146.046875,150.0 148.36249999999998,150.0 150.678125,150.0 152.99375,150.0 155.30937500000002,150.0 157.625,150.0 159.940625,150.0 162.25625,150.0 164.571875,150.0 166.8875,150.0 169.203125,150.0 171.51875,150.0 173.83437500000002,150.0 176.15,150.0 178.46562500000002,150.0 180.78125,150.0 183.096875,150.0 185.4125,150.0 187.72812499999998,150.0 190.04375,150.0 192.359375,150.0 194.675,150.0 196.99062500000002,150.0 199.30624999999998,150.0 201.621875,150.0 203.9375,150.0 206.253125,150.0 208.56875000000002,150.0 210.88437499999998,150.0 213.2,150.0 215.515625,150.0 217.83125,150.0 220.14687500000002,150.0 222.46249999999998,150.0 224.77812500000002,150.0 227.09375,150.0 229.409375,150.0 231.725,150.0 234.040625,150.0 236.35625,150.0 238.671875,150.0 240.9875,150.0 243.303125,150.0 245.61875,150.0 247.934375,150.0 250.25,150.0 252.56562499999998,150.0 254.88125000000002,150.0 257.196875,150.0 259.5125,150.0 261.828125,150.0 264.14375,150.0 266.459375,150.0 268.775,150.0 271.090625,150.0 273.40625,150.0 275.721875,150.0 278.0375,150.0 280.353125,150.0 282.66875000000005,150.0 284.984375,150.0 287.3,150.0 289.61562499999997,150.0 291.93125000000003,150.0 294.246875,150.0 296.5625,150.0 298.878125,150.0 301.19375,150.0 303.509375,150.0 305.825,150.0 308.140625,150.0 310.45624999999995,150.0 312.771875,150.0 315.0875,150.0 317.40312500000005,150.0 319.71875,150.0 322.03437499999995,150.0 324.35,150.0 326.665625,150.0 328.98125000000005,150.0 331.296875,150.0 333.61249999999995,150.0 335.928125,150.0 338.24375,150.0 340.55937500000005,150.0 342.875,150.0 345.190625,150.0 347.50625,150.0 349.821875,150.0 352.13750000000005,150.0 354.453125,150.0 356.76874999999995,150.0 359.084375,150.0 361.4,150.0 363.715625,150.0 366.03125,150.0 368.346875,150.0 370.6625,150.0 372.978125,150.0 375.29375000000005,150.0 377.609375,150.0 379.92499999999995,150.0 382.24062499999997,150.0 384.55625000000003,150.0 386.87187500000005,150.0 389.1875,150.0 391.50312499999995,150.0 393.81875,150.0 396.134375,150.0 398.45,150.0 400.765625,150.0 403.08125,150.0 405.396875,150.0 407.7125,150.0 410.02812500000005,150.0 412.34375,150.0 414.65937499999995,150.0 416.975,150.0 419.290625,150.0 421.60625,150.0 423.921875,150.0 426.2375,150.0 428.553125,150.0 430.86875,150.0 433.18437500000005,150.0 435.5,150.0 437.81562499999995,150.0 440.13124999999997,150.0 442.44687500000003,150.0 444.76250000000005,150.0 447.078125,150.0 449.39374999999995,150.0 451.709375,150.0 454.025,150.0 456.340625,150.0 458.65625,150.0 460.971875,150.0 463.2875,150.0 465.603125,150.0 467.91875000000005,150.0 470.234375,150.0 472.54999999999995,150.0 474.865625,150.0 477.18125,150.0 479.496875,150.0 481.8125,150.0 484.128125,150.0 486.44375,150.0 488.759375,150.0 491.07500000000005,150.0 493.390625,150.0 495.70624999999995,150.0 498.02187499999997,150.0 500.33750000000003,150.0 502.65312500000005,150.0 504.96875,150.0 507.28437499999995,150.0 509.6,150.0 511.915625,150.0 514.2312499999999,150.0 516.546875,150.0 518.8625000000001,150.0 521.178125,150.0 523.49375,150.0 525.809375,150.0 525.809375,147.36789967741439 523.49375,144.98031531158716 521.178125,142.81453194268332 518.8625000000001,140.84994477744797 516.546875,139.06786315967256 514.2312499999999,137.45133275134492 511.915625,135.98497423275475 509.6,134.6548369869813 507.28437499999995,133.44826637674964 504.96875,132.35378335095612 502.65312500000005,131.3609752354657 500.33750000000003,130.46039666918875 498.02187499999997,129.64347974296396 495.70624999999995,128.90245248632888 493.390625,128.23026492667853 491.07500000000005,127.18531492842227 488.759375,125.946468125762 486.44375,124.78558509487993 484.128125,123.69775937785336 481.8125,122.6783932926026 479.496875,121.72317850084373 477.18125,120.82807779894964 474.865625,119.98930805475844 472.54999999999995,119.20332421821146 470.234375,118.46680433824277 467.91875000000005,117.77663552259342 465.603125,117.12990078121074 463.2875,116.52386669762522 460.971875,115.9559718761995 458.65625,115.42381611642092 456.340625,114.92515026848355 454.025,114.45786672728391 451.709375,114.01999052465399 449.39374999999995,113.60967098218221 447.078125,113.225173889344 444.76250000000005,112.86487417388213 442.44687500000003,112.52724903345867 440.13124999999997,112.21087149954963 437.81562499999995,111.91440440637987 435.5,111.63659473940841 433.18437500000005,111.37626833947776 430.86875,111.13232494024456 428.553125,110.90373351791746 426.2375,110.68952793364755 423.921875,110.48880285015449 421.60625,110.30070990532941 419.290625,110.124454126643 416.975,109.95929057120372 414.65937499999995,109.80452117726583 412.34375,109.65949181388 410.02812500000005,109.5235895162168 407.7125,109.39623989487839 405.396875,109.27690470824874 403.08125,109.16507958762199 400.765625,109.06029190549445 398.45,108.96209877800996 396.134375,108.870085193117 393.81875,108.78386225652508 391.50312499999995,108.70306554804796 389.1875,108.62735358138605 386.87187500000005,108.55640636083885 384.55625000000003,109.09855498748158 382.24062499999997,110.26610313354306 379.92499999999995,111.32518879071455 377.609375,112.285887870243 375.29375000000005,113.15734025481373 372.978125,113.94783675341222 370.6625,114.6648979782826 368.346875,115.31534589440139 366.03125,115.90536872217282 363.715625,116.44057981081568 361.4,116.92607104255023 359.084375,117.36646127566148 356.76874999999995,117.76594028731498 354.453125,118.12830863418827 352.13750000000005,118.45701381014273 349.821875,118.59909944173621 347.50625,116.88513155034126 345.190625,115.22597215318092 342.875,113.61986860888118 340.55937500000005,112.06512432124536 338.24375,110.56009694706694 335.928125,109.10319666125153 333.61249999999995,107.69288447741658 331.296875,106.32767062219375 328.98125000000005,105.00611296151729 326.665625,103.72681547723593 324.35,102.48842679243884 322.03437499999995,101.28963874393824 319.71875,100.12918500040018 317.40312500000005,99.00583972466455 315.0875,97.91841627884052 312.771875,96.86576597080995 310.45624999999995,95.8467768408145 308.140625,94.86037248684485 305.825,93.90551092759088 303.509375,92.98118350175211 301.19375,92.08641380254541 298.878125,91.22025664628451 296.5625,90.38179707394193 294.246875,89.57014938463833 291.93125000000003,88.78445620003875 289.61562499999997,88.02388755866693 287.3,87.28764003918127 284.984375,86.57493591168657 282.66875000000005,85.88502231618423 280.353125,85.21717046729418 278.0375,84.57067488440723 275.721875,83.9448526464559 273.40625,83.33904267051534 271.090625,82.75260501347312 268.775,82.18492019602976 266.459375,81.63538854831623 264.14375,81.10342957643672 261.828125,80.58848134926819 259.5125,80.08999990486824 257.196875,79.6074586758647 254.88125000000002,79.14034793322013 252.56562499999998,78.6881742477828 250.25,78.2504599690565 247.934375,77.82674272063772 245.61875,77.41657491178759 243.303125,77.01952326462256 240.9875,76.6351683564243 238.671875,76.26310417658556 236.35625,75.90293769772356 234.040625,75.55428846050846 231.725,75.21678817176769 229.409375,74.89008031544205 227.09375,74.5738197759826 224.77812500000002,74.26767247379009 222.46249999999998,73.97131501231243 220.14687500000002,73.68443433642706 217.83125,73.40672740174722 215.515625,73.13790085450333 213.2,72.87767072166058 210.88437499999998,72.62576211094624 208.56875000000002,72.38190892046893 206.253125,72.1458535576239 203.9375,71.91734666698684 201.621875,71.69614686690903 199.30624999999998,71.4820204945355 196.99062500000002,71.27474135897698 194.675,71.07409050237472 192.359375,70.87985596860585 190.04375,70.69183257938506 187.72812499999998,70.50982171752597 185.4125,70.33363111713321 183.096875,70.16307466050378 180.78125,69.9979721815228 178.46562500000002,69.83814927534642 176.15,69.6834371141704 173.83437500000002,69.5336722688901 171.51875,69.38869653646324 169.203125,69.24835677279333 166.8875,69.11250473095681 164.571875,68.98099690460366 162.25625,68.85369437636528 159.940625,68.73046267111023 157.625,68.61117161389237 155.30937500000002,68.49569519244136 152.99375,68.38391142405061 150.678125,68.27570222672162 148.36249999999998,68.17095329442893 146.046875,68.06955397637374 143.73125,67.97139716009873 141.415625,67.87637915834055 139.1,67.78439959950053 136.784375,67.69536132161782 134.46875,67.60917026973303 132.153125,67.52573539653397 129.8375,67.44496856617846 127.521875,67.36678446119262 125.20624999999998,67.29110049234635 122.890625,67.21783671141081 120.575,67.1469157267057 118.259375,67.07826262134702 115.94375,67.01180487410917 113.628125,66.94747228281773 111.3125,66.88519689019176 108.996875,66.82491291205781 106.68125,66.76655666785898 104.365625,66.71006651338668 102.05000000000001,66.65538277566304 99.734375,66.6024476899059 97.41875,66.5512053385092 95.10312499999999,66.5016015919751 92.78750000000001,66.45358405173432 90.471875,66.40710199479557 88.15625,66.36210632016453 85.84062499999999,66.31854949697637 83.525,66.2763855142869 81.209375,66.23556983246921 78.89375,66.1960593361645 76.578125,66.15781228873755 74.2625,66.12078828818852 71.946875,66.0849482244745 69.63125,66.05025423819592 67.31562500000001,66.01666968060412 65.0,65.98415907488763" style="fill:rgb(40%,76.1%,64.7%);fill-opacity:1.0;opacity:0.7;stroke:none" /></g></g><g class="toyplot-coordinates-Axis" id="t6b2e5c9c99d64185a5a193430d8c16af" transform="translate(65.0,150.0)"><line x1="0" y1="0" x2="570.0" y2="0" style="stroke-width:5" /><g class="toyplot-coordinates-Axis-coordinates" style="visibility:hidden" transform=""><line x1="0" x2="0" y1="-3.0" y2="4.5" style="stroke:rgb(43.9%,50.2%,56.5%);stroke-opacity:1.0;stroke-width:1.0" /><text x="0" y="-6" style="alignment-baseline:alphabetic;fill:rgb(43.9%,50.2%,56.5%);fill-opacity:1.0;font-size:10px;font-weight:normal;stroke:none;text-anchor:middle" /></g></g><g class="toyplot-coordinates-Axis" id="t2b06a5d4386643848e033c277dba8972" transform="translate(65.0,150.0)rotate(-90.0)"><line x1="0" y1="0" x2="85.0" y2="0" style="stroke-width:5" /><g><line x1="0.0" y1="-7.5" x2="0.0" y2="0" style="stroke-width:5" /><line x1="42.5" y1="-7.5" x2="42.5" y2="0" style="stroke-width:5" /><line x1="85.0" y1="-7.5" x2="85.0" y2="0" style="stroke-width:5" /></g><g><g transform="translate(0.0,-6)"><text x="-6.95" y="-4.440892098500626e-16" style="fill:rgb(16.1%,15.3%,14.1%);fill-opacity:1.0;font-family:helvetica;font-size:10.0px;font-weight:normal;stroke:none;vertical-align:baseline;white-space:pre">0.0</text></g><g transform="translate(42.5,-6)"><text x="-6.95" y="-4.440892098500626e-16" style="fill:rgb(16.1%,15.3%,14.1%);fill-opacity:1.0;font-family:helvetica;font-size:10.0px;font-weight:normal;stroke:none;vertical-align:baseline;white-space:pre">0.5</text></g><g transform="translate(85.0,-6)"><text x="-6.95" y="-4.440892098500626e-16" style="fill:rgb(16.1%,15.3%,14.1%);fill-opacity:1.0;font-family:helvetica;font-size:10.0px;font-weight:normal;stroke:none;vertical-align:baseline;white-space:pre">1.0</text></g></g><g transform="translate(42.5,-35.0)"><text x="-31.008" y="0.0" style="fill:rgb(16.1%,15.3%,14.1%);fill-opacity:1.0;font-family:helvetica;font-size:12.0px;font-weight:bold;stroke:none;vertical-align:baseline;white-space:pre">Probability</text></g><g class="toyplot-coordinates-Axis-coordinates" style="visibility:hidden" transform=""><line x1="0" x2="0" y1="3.0" y2="-4.5" style="stroke:rgb(43.9%,50.2%,56.5%);stroke-opacity:1.0;stroke-width:1.0" /><text x="0" y="6" style="alignment-baseline:hanging;fill:rgb(43.9%,50.2%,56.5%);fill-opacity:1.0;font-size:10px;font-weight:normal;stroke:none;text-anchor:middle" /></g></g></g><g class="toyplot-coordinates-Cartesian" id="tfb460c780836454bbb8e13dac6452d27"><clipPath id="tcff70ecf14474f19b105dbe2c3134859"><rect x="65.0" y="65.0" width="570.0" height="85.0" /></clipPath><g clip-path="url(#tcff70ecf14474f19b105dbe2c3134859)" /><g class="toyplot-coordinates-Axis" id="t880ce788deed4f07991605acdf8468b9" transform="translate(65.0,65.0)"><line x1="0" y1="0" x2="570.0" y2="0" style="stroke-width:5" /><g><line x1="0.0" y1="-7.5" x2="0.0" y2="0" style="stroke-width:5" /><line x1="71.25" y1="-7.5" x2="71.25" y2="0" style="stroke-width:5" /><line x1="0.0" y1="-7.5" x2="0.0" y2="0" style="stroke-width:5" /><line x1="85.5" y1="-7.5" x2="85.5" y2="0" style="stroke-width:5" /><line x1="142.5" y1="-7.5" x2="142.5" y2="0" style="stroke-width:5" /><line x1="213.75" y1="-7.5" x2="213.75" y2="0" style="stroke-width:5" /><line x1="0.0" y1="-7.5" x2="0.0" y2="0" style="stroke-width:5" /><line x1="285.0" y1="-7.5" x2="285.0" y2="0" style="stroke-width:5" /><line x1="320.625" y1="-7.5" x2="320.625" y2="0" style="stroke-width:5" /><line x1="0.0" y1="-7.5" x2="0.0" y2="0" style="stroke-width:5" /><line x1="427.5" y1="-7.5" x2="427.5" y2="0" style="stroke-width:5" /><line x1="463.125" y1="-7.5" x2="463.125" y2="0" style="stroke-width:5" /><line x1="570.0" y1="-7.5" x2="570.0" y2="0" style="stroke-width:5" /></g><g class="toyplot-coordinates-Axis-coordinates" style="visibility:hidden" transform=""><line x1="0" x2="0" y1="3.0" y2="-4.5" style="stroke:rgb(43.9%,50.2%,56.5%);stroke-opacity:1.0;stroke-width:1.0" /><text x="0" y="6" style="alignment-baseline:hanging;fill:rgb(43.9%,50.2%,56.5%);fill-opacity:1.0;font-size:10px;font-weight:normal;stroke:none;text-anchor:middle" /></g></g></g><g class="toyplot-mark-Text" id="t0815a9b3baad49a7b97d052d3ae99d14"><g class="toyplot-Series"><g class="toyplot-Datum" transform="translate(350.0,107.5)"><text x="-23.346" y="3.066" style="fill:rgb(16.1%,15.3%,14.1%);fill-opacity:1.0;font-family:helvetica;font-size:12.0px;font-weight:normal;opacity:1;stroke:none;vertical-align:baseline;white-space:pre">branch 5</text></g></g></g></svg>