<svg class="toyplot-canvas-Canvas" xmlns:toyplot="http://www.sandia.gov/toyplot" xmlns:xlink="http://www.w3.org/1999/xlink" xmlns="http://www.w3.org/2000/svg" width="700.0px" height="215.0px" viewBox="0 0 700.0 215.0" preserveAspectRatio="xMidYMid meet" style="background-color:transparent;border-color:#292724;border-style:none;border-width:1.0;fill:rgb(16.1%,15.3%,14.1%);fill-opacity:1.0;font-family:Helvetica;font-size:12px;opacity:1.0;stroke:rgb(16.1%,15.3%,14.1%);stroke-opacity:1.0;stroke-width:1.0" id="t742febeeef0c4106b1274714e87c1ab1"><g class="toyplot-coordinates-Cartesian" id="t0349c38148314248851e2d8a52d71707"><clipPath id="te88507d94dfb4870ba288e9740051170"><rect x="65.0" y="65.0" width="570.0" height="85.0" /></clipPath><g clip-path="url(#te88507d94dfb4870ba288e9740051170)"><g class="toyplot-mark-FillBoundaries" style="stroke:none" id="td55cfb5a5b8f4ad79f61f3f2966a07d7"><polygon points="136.25,150.0 137.49687500000002,150.0 138.74374999999998,150.0 139.990625,150.0 141.2375,150.0 142.484375,150.0 143.73125,150.0 144.978125,150.0 146.225,150.0 147.47187499999998,150.0 148.71875,150.0 149.965625,150.0 151.2125,150.0 152.459375,150.0 153.70625,150.0 154.953125,150.0 156.20000000000002,150.0 157.446875,150.0 158.69375,150.0 159.940625,150.0 161.1875,150.0 162.434375,150.0 163.68125,150.0 164.92812500000002,150.0 166.17499999999998,150.0 167.421875,150.0 168.66875000000002,150.0 169.91562499999998,150.0 171.1625,150.0 172.409375,150.0 173.65625,150.0 174.903125,150.0 176.15,150.0 177.396875,150.0 178.64374999999998,150.0 179.890625,150.0 181.1375,150.0 182.38437499999998,150.0 183.63125000000002,150.0 184.878125,150.0 186.125,150.0 187.371875,150.0 188.61875,150.0 189.865625,150.0 191.1125,150.0 192.359375,150.0 193.60625,150.0 194.85312499999998,150.0 196.10000000000002,150.0 197.346875,150.0 198.59375,150.0 199.840625,150.0 201.08749999999998,150.0 202.33437500000002,150.0 203.58125,150.0 204.828125,150.0 206.075,150.0 207.321875,150.0 208.56875000000002,150.0 209.815625,150.0 211.0625,150.0 212.309375,150.0 213.55624999999998,150.0 214.80312500000002,150.0 216.05,150.0 217.296875,150.0 218.54375,150.0 219.79062499999998,150.0 221.0375,150.0 222.284375,150.0 223.53125,150.0 224.77812500000002,150.0 226.02499999999998,150.0 227.271875,150.0 228.51875,150.0 229.765625,150.0 231.0125,150.0 232.259375,150.0 233.50625000000002,150.0 234.75312499999998,150.0 236.0,150.0 237.246875,150.0 238.49375,150.0 239.74062500000002,150.0 240.9875,150.0 242.234375,150.0 243.48125,150.0 244.72812499999998,150.0 245.97500000000002,150.0 247.221875,150.0 248.46875,150.0 249.715625,150.0 250.96249999999998,150.0 252.209375,150.0 253.45625,150.0 254.703125,150.0 255.95000000000002,150.0 257.196875,150.0 258.44374999999997,150.0 259.690625,150.0 260.9375,150.0 262.184375,150.0 263.43125000000003,150.0 264.678125,150.0 265.92499999999995,150.0 267.171875,150.0 268.41875,150.0 269.66562500000003,150.0 270.9125,150.0 272.159375,150.0 273.40625,150.0 274.653125,150.0 275.9,150.0 277.146875,150.0 278.39375,150.0 279.640625,150.0 280.8875,150.0 282.134375,150.0 283.38124999999997,150.0 284.628125,150.0 285.875,150.0 287.12187500000005,150.0 288.36875,150.0 289.61562499999997,150.0 290.8625,150.0 292.109375,150.0 293.35625,150.0 294.60312500000003,150.0 295.85,150.0 297.09687499999995,150.0 298.34375,150.0 299.59062500000005,150.0 300.8375,150.0 302.084375,150.0 303.33125,150.0 304.578125,150.0 305.825,150.0 307.071875,150.0 308.31875,150.0 309.565625,150.0 310.8125,150.0 312.059375,150.0 313.30625,150.0 314.553125,150.0 315.79999999999995,150.0 317.046875,150.0 318.29375000000005,150.0 319.540625,150.0 320.7875,150.0 322.03437499999995,150.0 323.28125,150.0 324.52812500000005,150.0 325.775,150.0 327.021875,150.0 328.26874999999995,150.0 329.515625,150.0 330.76250000000005,150.0 332.009375,150.0 333.25625,150.0 334.503125,150.0 335.75,150.0 336.996875,150.0 338.24375,150.0 339.490625,150.0 340.7375,150.0 341.984375,150.0 343.23125,150.0 344.478125,150.0 345.725,150.0 346.97187499999995,150.0 348.21875,150.0 349.46562500000005,150.0 350.7125,150.0 351.959375,150.0 353.20624999999995,150.0 354.453125,150.0 355.70000000000005,150.0 356.946875,150.0 358.19375,150.0 359.440625,150.0 360.6875,150.0 361.93437500000005,150.0 363.18125,150.0 364.42812499999997,150.0 365.67499999999995,150.0 366.921875,150.0 368.16875,150.0 369.415625,150.0 370.6625,150.0 371.909375,150.0 373.15625,150.0 374.40312500000005,150.0 375.65000000000003,150.0 376.896875,150.0 378.14374999999995,150.0 379.390625,150.0 380.6375,150.0 381.884375,150.0 383.13125,150.0 384.37812499999995,150.0 384.37812499999995,66.44912757008564 383.13125,67.82413852672248 381.884375,69.12882361442638 380.6375,70.36677969751135 379.390625,71.54141967622382 378.14374999999995,72.65598189571004 376.896875,73.7135390737551 375.65000000000003,74.71700677190672 374.40312500000005,75.66915143333782 373.15625,76.5725980096069 371.909375,77.42983719734289 370.6625,78.24323230480456 369.415625,79.01502576724522 368.16875,79.74734532904466 366.921875,80.44220990965175 365.67499999999995,81.1015351695094 364.42812499999997,81.72713879130659 363.18125,82.32074549111701 361.93437500000005,82.88399177323979 360.6875,83.41843044185057 359.440625,83.92553488190129 358.19375,84.40670312106995 356.946875,84.86326168395996 355.70000000000005,85.29646924917316 354.453125,85.70752011933979 353.20624999999995,86.09754751367112 351.959375,86.46762669211256 350.7125,86.81877791970948 349.46562500000005,87.31634895160337 348.21875,88.01055722781548 346.97187499999995,88.68088849933675 345.725,89.32816400580451 344.478125,89.95317674066064 343.23125,90.55669242266765 341.984375,91.13945043401003 340.7375,91.7021647261297 339.490625,92.245524694406 338.24375,92.77019602275114 336.996875,93.27682149915626 335.75,93.7660218031871 334.503125,94.23839626639415 333.25625,94.69452360656862 332.009375,95.13496263674425 330.76250000000005,95.56025294981306 329.515625,95.97091557959419 328.26874999999995,96.36745363916543 327.021875,96.75035293723968 325.775,97.12008257334139 324.52812500000005,97.47709551251215 323.28125,97.82182914024946 322.03437499999995,98.15470579835873 320.7875,98.47613330237476 319.540625,98.78650544118679 318.29375000000005,99.08620245947913 317.046875,99.37559152357846 315.79999999999995,99.65502717127848 314.553125,99.92485174619306 313.30625,100.18539581716996 312.059375,100.43697858327906 310.8125,100.67990826487107 309.565625,100.91448248118604 308.31875,101.14098861497415 307.071875,101.3597041645755 305.825,101.57089708389034 304.578125,101.77482611065597 303.33125,101.97174108343302 302.084375,102.16188324768873 300.8375,102.345485551353 299.59062500000005,102.52277293020856 298.34375,102.6939625834656 297.09687499999995,102.85926423985788 295.85,103.01888041458659 294.60312500000003,103.17300665742695 293.35625,103.32183179230103 292.109375,103.4655381486107 290.8625,103.60430178461397 289.61562499999997,103.7382927031183 288.36875,103.86767505975544 287.12187500000005,103.99260736409241 285.875,104.11324267382574 284.628125,104.22972878229612 283.38124999999997,104.3422083995539 282.134375,104.4508193271966 280.8875,104.55569462719316 279.640625,104.65696278490145 278.39375,104.55752567965968 277.146875,103.98345674150656 275.9,103.43874894895602 274.653125,102.92190060628168 273.40625,102.4314868230046 272.159375,101.96615558563686 270.9125,101.52462403033819 269.66562500000003,101.10567490621058 268.41875,100.70815321947956 267.171875,100.33096304931144 265.92499999999995,99.97306452648763 264.678125,99.63347096660678 263.43125000000003,99.31124614991111 262.184375,99.005501740238 260.9375,98.71539483598104 259.690625,98.44012564630869 258.44374999999997,98.17893528623455 257.196875,97.93110368446008 255.95000000000002,97.6959475982222 254.703125,97.47281872967281 253.45625,97.26110193859742 252.209375,97.0602135465455 250.96249999999998,96.86959972769705 249.715625,96.68873498202976 248.46875,96.5171206865767 247.221875,96.35428372078113 245.97500000000002,96.19977516215837 244.72812499999998,96.05316904866905 243.48125,95.91406120439153 242.234375,95.78206812525605 240.9875,95.65682592176887 239.74062500000002,95.53798931581153 238.49375,95.4252306887493 237.246875,95.31823917822496 236.0,95.21671982114768 234.75312499999998,95.12039274051408 233.50625000000002,95.02899237382019 232.259375,94.94226674093662 231.0125,94.85997674942877 229.765625,94.78189553540686 228.51875,94.70780783808891 227.271875,94.63750940635171 226.02499999999998,94.57080643563438 224.77812500000002,94.50751503364202 223.53125,94.44746071337588 222.284375,94.39047791209327 221.0375,94.33640953487043 219.79062499999998,94.28510652151004 218.54375,94.23642743559986 217.296875,94.19023807458893 216.05,94.14641109980693 214.80312500000002,94.10482568540618 213.55624999999998,94.06536718525916 212.309375,94.02792681689229 211.0625,93.99240136158545 209.815625,93.95869287981009 208.56875000000002,93.9267084412213 207.321875,93.96842574049298 206.075,94.43383860452855 204.828125,94.88324378683724 203.58125,95.31719186496873 202.33437500000002,95.73621447958708 201.08749999999998,96.14082498579694 199.840625,96.53151908206792 198.59375,96.908775417527 197.346875,97.27305617836379 196.10000000000002,97.62480765406623 194.85312499999998,97.96446078418109 193.60625,98.29243168626883 192.359375,98.60912216569963 191.1125,98.9149202079152 189.865625,99.21020045375954 188.61875,99.4953246584607 187.371875,99.77064213482626 186.125,100.03649018119523 184.878125,100.29319449467059 183.63125000000002,100.54106957013906 182.38437499999998,100.78041908556668 181.1375,101.01153627404221 179.890625,101.23470428302443 178.64374999999998,101.45019652123304 177.396875,101.65827699360875 176.15,101.85920062475219 174.903125,102.05321357123842 173.65625,102.2405535231896 172.409375,102.42144999547511 171.1625,102.59612460889588 169.91562499999998,102.76479136169766 168.66875000000002,102.92765689174566 167.421875,103.08492072968164 166.17499999999998,103.2367755433741 164.92812500000002,103.3834073739603 163.68125,103.5249958637701 162.434375,103.66171447641018 161.1875,103.79373070927866 159.940625,103.92120629877039 158.69375,104.04429741842424 157.446875,104.16315487025517 156.20000000000002,104.27792426950572 154.953125,104.38874622304266 153.70625,104.49575650161819 152.459375,104.59908620620595 151.2125,104.69886192861617 149.965625,104.79520590658652 148.71875,104.88823617353846 147.47187499999998,104.97806670318315 146.225,105.06480754915334 144.978125,105.14856497983291 143.73125,105.22944160854897 142.484375,105.3075365192858 141.2375,105.38294538807546 139.990625,105.45576060021259 138.74374999999998,105.52607136343816 137.49687500000002,105.59396381722998 136.25,105.65952113833438" style="fill:rgb(40%,76.1%,64.7%);fill-opacity:1.0;opacity:0.7;stroke:none" /></g></g><g class="toyplot-coordinates-Axis" id="tf9fb8c8f36dc45949323a5358c09c06d" transform="translate(65.0,150.0)"><line x1="0" y1="0" x2="570.0" y2="0" style="stroke-width:5" /><g class="toyplot-coordinates-Axis-coordinates" style="visibility:hidden" transform=""><line x1="0" x2="0" y1="-3.0" y2="4.5" style="stroke:rgb(43.9%,50.2%,56.5%);stroke-opacity:1.0;stroke-width:1.0" /><text x="0" y="-6" style="alignment-baseline:alphabetic;fill:rgb(43.9%,50.2%,56.5%);fill-opacity:1.0;font-size:10px;font-weight:normal;stroke:none;text-anchor:middle" /></g></g><g class="toyplot-coordinates-Axis" id="t7baf3ef6c15b42c0893c0206dc593556" transform="translate(65.0,150.0)rotate(-90.0)"><line x1="0" y1="0" x2="85.0" y2="0" style="stroke-width:5" /><g><line x1="0.0" y1="-7.5" x2="0.0" y2="0" style="stroke-width:5" /><line x1="42.5" y1="-7.5" x2="42.5" y2="0" style="stroke-width:5" /><line x1="85.0" y1="-7.5" x2="85.0" y2="0" style="stroke-width:5" /></g><g><g transform="translate(0.0,-6)"><text x="-6.95" y="-4.440892098500626e-16" style="fill:rgb(16.1%,15.3%,14.1%);fill-opacity:1.0;font-family:helvetica;font-size:10.0px;font-weight:normal;stroke:none;vertical-align:baseline;white-space:pre">0.0</text></g><g transform="translate(42.5,-6)"><text x="-6.95" y="-4.440892098500626e-16" style="fill:rgb(16.1%,15.3%,14.1%);fill-opacity:1.0;font-family:helvetica;font-size:10.0px;font-weight:normal;stroke:none;vertical-align:baseline;white-space:pre">0.5</text></g><g transform="translate(85.0,-6)"><text x="-6.95" y="-4.440892098500626e-16" style="fill:rgb(16.1%,15.3%,14.1%);fill-opacity:1.0;font-family:helvetica;font-size:10.0px;font-weight:normal;stroke:none;vertical-align:baseline;white-space:pre">1.0</text></g></g><g transform="translate(42.5,-35.0)"><text x="-31.008" y="0.0" style="fill:rgb(16.1%,15.3%,14.1%);fill-opacity:1.0;font-family:helvetica;font-size:12.0px;font-weight:bold;stroke:none;vertical-align:baseline;white-space:pre">Probability</text></g><g class="toyplot-coordinates-Axis-coordinates" style="visibility:hidden" transform=""><line x1="0" x2="0" y1="3.0" y2="-4.5" style="stroke:rgb(43.9%,50.2%,56.5%);stroke-opacity:1.0;stroke-width:1.0" /><text x="0" y="6" style="alignment-baseline:hanging;fill:rgb(43.9%,50.2%,56.5%);fill-opacity:1.0;font-size:10px;font-weight:normal;stroke:none;text-anchor:middle" /></g></g></g><g class="toyplot-coordinates-Cartesian" id="t5018d52ee5b64085a1116cf9757f5433"><clipPath id="td9f98eba1afa4bdba4d54cce30bc1f5f"><rect x="65.0" y="65.0" width="570.0" height="85.0" /></clipPath><g clip-path="url(#td9f98eba1afa4bdba4d54cce30bc1f5f)" /><g class="toyplot-coordinates-Axis" id="tf7b63868213446edbca4db2c6ca95f3f" transform="translate(65.0,65.0)"><line x1="0" y1="0" x2="570.0" y2="0" style="stroke-width:5" /><g><line x1="0.0" y1="-7.5" x2="0.0" y2="0" style="stroke-width:5" /><line x1="71.25" y1="-7.5" x2="71.25" y2="0" style="stroke-width:5" /><line x1="0.0" y1="-7.5" x2="0.0" y2="0" style="stroke-width:5" /><line x1="85.5" y1="-7.5" x2="85.5" y2="0" style="stroke-width:5" /><line x1="142.5" y1="-7.5" x2="142.5" y2="0" style="stroke-width:5" /><line x1="213.75" y1="-7.5" x2="213.75" y2="0" style="stroke-width:5" /><line x1="0.0" y1="-7.5" x2="0.0" y2="0" style="stroke-width:5" /><line x1="285.0" y1="-7.5" x2="285.0" y2="0" style="stroke-width:5" /><line x1="320.625" y1="-7.5" x2="320.625" y2="0" style="stroke-width:5" /><line x1="0.0" y1="-7.5" x2="0.0" y2="0" style="stroke-width:5" /><line x1="427.5" y1="-7.5" x2="427.5" y2="0" style="stroke-width:5" /><line x1="463.125" y1="-7.5" x2="463.125" y2="0" style="stroke-width:5" /><line x1="570.0" y1="-7.5" x2="570.0" y2="0" style="stroke-width:5" /></g><g class="toyplot-coordinates-Axis-coordinates" style="visibility:hidden" transform=""><line x1="0" x2="0" y1="3.0" y2="-4.5" style="stroke:rgb(43.9%,50.2%,56.5%);stroke-opacity:1.0;stroke-width:1.0" /><text x="0" y="6" style="alignment-baseline:hanging;fill:rgb(43.9%,50.2%,56.5%);fill-opacity:1.0;font-size:10px;font-weight:normal;stroke:none;text-anchor:middle" /></g></g></g><g class="toyplot-mark-Text" id="tcccdfd63da964833b53690154896ac50"><g class="toyplot-Series"><g class="toyplot-Datum" transform="translate(350.0,107.5)"><text x="-23.346" y="3.066" style="fill:rgb(16.1%,15.3%,14.1%);fill-opacity:1.0;font-family:helvetica;font-size:12.0px;font-weight:normal;opacity:1;stroke:none;vertical-align:baseline;white-space:pre">branch 7</text></g></g></g></svg>