<svg class="toyplot-canvas-Canvas" xmlns:toyplot="http://www.sandia.gov/toyplot" xmlns:xlink="http://www.w3.org/1999/xlink" xmlns="http://www.w3.org/2000/svg" width="700.0px" height="215.0px" viewBox="0 0 700.0 215.0" preserveAspectRatio="xMidYMid meet" style="background-color:transparent;border-color:#292724;border-style:none;border-width:1.0;fill:rgb(16.1%,15.3%,14.1%);fill-opacity:1.0;font-family:Helvetica;font-size:12px;opacity:1.0;stroke:rgb(16.1%,15.3%,14.1%);stroke-opacity:1.0;stroke-width:1.0" id="tab868767d82d4d4bbddeeceacc1fcd5a"><g class="toyplot-coordinates-Cartesian" id="tc433b24e17784b08b92b9a94070994fa"><clipPath id="tc68e9ceba163461a9b0d2c12679a20c1"><rect x="65.0" y="65.0" width="570.0" height="85.0" /></clipPath><g clip-path="url(#tc68e9ceba163461a9b0d2c12679a20c1)"><g class="toyplot-mark-FillBoundaries" style="stroke:none" id="t9273278500e6468386b462c3c05ad515"><polygon points="65.0,150.0 67.31562500000001,150.0 69.63125,150.0 71.946875,150.0 74.2625,150.0 76.578125,150.0 78.89375,150.0 81.209375,150.0 83.525,150.0 85.84062499999999,150.0 88.15625,150.0 90.471875,150.0 92.78750000000001,150.0 95.10312499999999,150.0 97.41875,150.0 99.734375,150.0 102.05000000000001,150.0 104.365625,150.0 106.68125,150.0 108.996875,150.0 111.3125,150.0 113.628125,150.0 115.94375,150.0 118.259375,150.0 120.575,150.0 122.890625,150.0 125.20624999999998,150.0 127.521875,150.0 129.8375,150.0 132.153125,150.0 134.46875,150.0 136.784375,150.0 139.1,150.0 141.415625,150.0 143.73125,150.0 146.046875,150.0 148.36249999999998,150.0 150.678125,150.0 152.99375,150.0 155.30937500000002,150.0 157.625,150.0 159.940625,150.0 162.25625,150.0 164.571875,150.0 166.8875,150.0 169.203125,150.0 171.51875,150.0 173.83437500000002,150.0 176.15,150.0 178.46562500000002,150.0 180.78125,150.0 183.096875,150.0 185.4125,150.0 187.72812499999998,150.0 190.04375,150.0 192.359375,150.0 194.675,150.0 196.99062500000002,150.0 199.30624999999998,150.0 201.621875,150.0 203.9375,150.0 206.253125,150.0 208.56875000000002,150.0 210.88437499999998,150.0 213.2,150.0 215.515625,150.0 217.83125,150.0 220.14687500000002,150.0 222.46249999999998,150.0 224.77812500000002,150.0 227.09375,150.0 229.409375,150.0 231.725,150.0 234.040625,150.0 236.35625,150.0 238.671875,150.0 240.9875,150.0 243.303125,150.0 245.61875,150.0 247.934375,150.0 250.25,150.0 252.56562499999998,150.0 254.88125000000002,150.0 257.196875,150.0 259.5125,150.0 261.828125,150.0 264.14375,150.0 266.459375,150.0 268.775,150.0 271.090625,150.0 273.40625,150.0 275.721875,150.0 278.0375,150.0 280.353125,150.0 282.66875000000005,150.0 284.984375,150.0 287.3,150.0 289.61562499999997,150.0 291.93125000000003,150.0 294.246875,150.0 296.5625,150.0 298.878125,150.0 301.19375,150.0 303.509375,150.0 305.825,150.0 308.140625,150.0 310.45624999999995,150.0 312.771875,150.0 315.0875,150.0 317.40312500000005,150.0 319.71875,150.0 322.03437499999995,150.0 324.35,150.0 326.665625,150.0 328.98125000000005,150.0 331.296875,150.0 333.61249999999995,150.0 335.928125,150.0 338.24375,150.0 340.55937500000005,150.0 342.875,150.0 345.190625,150.0 347.50625,150.0 349.821875,150.0 352.13750000000005,150.0 354.453125,150.0 356.76874999999995,150.0 359.084375,150.0 361.4,150.0 363.715625,150.0 366.03125,150.0 368.346875,150.0 370.6625,150.0 372.978125,150.0 375.29375000000005,150.0 377.609375,150.0 379.92499999999995,150.0 382.24062499999997,150.0 384.55625000000003,150.0 386.87187500000005,150.0 389.1875,150.0 391.50312499999995,150.0 393.81875,150.0 396.134375,150.0 398.45,150.0 400.765625,150.0 403.08125,150.0 405.396875,150.0 407.7125,150.0 410.02812500000005,150.0 412.34375,150.0 414.65937499999995,150.0 416.975,150.0 419.290625,150.0 421.60625,150.0 423.921875,150.0 426.2375,150.0 428.553125,150.0 430.86875,150.0 433.18437500000005,150.0 435.5,150.0 437.81562499999995,150.0 440.13124999999997,150.0 442.44687500000003,150.0 444.76250000000005,150.0 447.078125,150.0 449.39374999999995,150.0 451.709375,150.0 454.025,150.0 456.340625,150.0 458.65625,150.0 460.971875,150.0 463.2875,150.0 465.603125,150.0 467.91875000000005,150.0 470.234375,150.0 472.54999999999995,150.0 474.865625,150.0 477.18125,150.0 479.496875,150.0 481.8125,150.0 484.128125,150.0 486.44375,150.0 488.759375,150.0 491.07500000000005,150.0 493.390625,150.0 495.70624999999995,150.0 498.02187499999997,150.0 500.33750000000003,150.0 502.65312500000005,150.0 504.96875,150.0 507.28437499999995,150.0 509.6,150.0 511.915625,150.0 514.2312499999999,150.0 516.546875,150.0 518.8625000000001,150.0 521.178125,150.0 523.49375,150.0 525.809375,150.0 525.809375,106.89666659372607 523.49375,108.26876501572288 521.178125,109.51339870716123 518.8625000000001,110.64240884304417 516.546875,111.66653658094384 514.2312499999999,112.59552525004487 511.915625,113.43821304706523 509.6,114.20261712094289 507.28437499999995,114.89600984625211 504.96875,115.52498801099784 502.65312500000005,116.09553557702617 500.33750000000003,116.61308061013946 498.02187499999997,117.08254692153707 495.70624999999995,117.50840091188745 493.390625,117.89469406369514 491.07500000000005,117.62049833925099 488.759375,116.98358970687714 486.44375,116.38676335033543 484.128125,115.82749679033408 481.8125,115.30342629360183 479.496875,114.812336882598 477.18125,114.35215297393714 474.865625,113.9209296059612 472.54999999999995,113.51684421838294 470.234375,113.13818894925708 467.91875000000005,112.78336341672285 465.603125,112.45086795500944 463.2875,112.13929727611719 460.971875,111.84733453038483 458.65625,111.5737457408407 456.340625,111.3173745878141 454.025,111.07713752176433 451.709375,110.85201918367183 449.39374999999995,110.64106811363575 447.078125,110.4433927295403 444.76250000000005,110.25815755879381 442.44687500000003,110.08457970721415 440.13124999999997,109.92192555013587 437.81562499999995,109.76950763175475 435.5,109.62668175960405 433.18437500000005,109.49284428188318 430.86875,109.36742953613043 428.553125,109.24990745845778 426.2375,109.13978134324223 423.921875,109.0365857438056 421.60625,108.93988450520979 419.290625,108.84926892085336 416.975,108.76435600507803 414.65937499999995,108.68478687448444 412.34375,108.61022523111599 410.02812500000005,108.54035594109946 407.7125,108.47488370273568 405.396875,108.4135317984105 403.08125,108.3560409250511 400.765625,108.3021680981849 398.45,108.25168562496839 396.134375,108.20438014184639 393.81875,108.16005171277341 391.50312499999995,108.1185129841865 389.1875,108.07958839315762 386.87187500000005,108.0431134253792 384.55625000000003,107.37798787354515 382.24062499999997,106.07327235310181 379.92499999999995,104.88976184944345 377.609375,103.81619670031904 375.29375000000005,102.84236323973559 372.978125,101.95899662735499 370.6625,101.15769270481232 368.346875,100.43082804037599 366.03125,99.77148740127164 363.715625,99.17339796365718 361.4,98.63086963433732 359.084375,98.1387409164509 356.76874999999995,97.69232980410928 354.453125,97.28738923880768 352.13750000000005,96.92006670383165 349.821875,96.74466571129858 347.50625,98.44764083526613 345.190625,100.09615898677094 342.875,101.69196156638199 340.55937500000005,103.23673428894423 338.24375,104.73210896427145 335.928125,106.17966522089743 333.61249999999995,107.58093217470515 331.296875,108.93739004419776 328.98125000000005,110.25047171411693 326.665625,111.52156424906069 324.35,112.75201035869921 322.03437499999995,113.9431098161369 319.71875,115.09612083091847 317.40312500000005,116.2122613781298 315.0875,117.29271048499737 312.771875,118.33860947634537 310.45624999999995,119.35106318022615 308.140625,120.3311410949976 305.825,121.27987851908021 303.509375,122.19827764458731 301.19375,123.0873086159836 298.878125,123.9479105548906 296.5625,124.78099255212088 294.246875,125.58743462799009 291.93125000000003,126.36808866192007 289.61562499999997,127.12377929231563 287.3,127.85530478766572 284.984375,128.5634378897886 282.66875000000005,129.2489266301122 280.353125,129.91249511985203 278.0375,130.55484431492087 275.721875,131.17665275637853 273.40625,131.77857728720417 271.090625,132.36125374614758 268.775,132.92529763939302 266.459375,133.47130479074485 264.14375,133.99985197102185 261.828125,134.51149750732503 259.5125,135.0067818728225 257.196875,135.4862282576745 254.88125000000002,135.95034312170168 252.56562499999998,136.3996167293804 250.25,136.8345236677301 247.934375,137.25552334764 245.61875,137.6630604891646 243.303125,138.05756559130046 240.9875,138.439455386741 238.671875,138.80913328208894 236.35625,139.16698978399208 234.040625,139.51340291165246 231.725,139.84873859614396 229.409375,140.17335106696132 227.09375,140.48758322620768 224.77812500000002,140.79176701081715 222.46249999999998,141.08622374319376 220.14687500000002,141.3712644706383 217.83125,141.6471902939209 215.515625,141.91429268534657 213.2,142.1728537966503 210.88437499999998,142.4231467570456 208.56875000000002,142.66543596174301 206.253125,142.89997735124186 203.9375,143.1270186816914 201.621875,143.3467997866061 199.30624999999998,143.55955283021225 196.99062500000002,143.76550255269296 194.675,143.96486650759084 192.359375,144.15785529161911 190.04375,144.34467276712414 187.72812499999998,144.5255162774338 185.4125,144.70057685531987 183.096875,144.870039424794 180.78125,145.03408299645108 178.46562500000002,145.19288085656564 176.15,145.34660075014168 173.83437500000002,145.495405058109 171.51875,145.63945096885297 169.203125,145.77889064425952 166.8875,145.91387138045025 164.571875,146.04453576337764 162.25625,146.17102181944472 159.940625,146.29346316130824 157.625,146.41198912901964 155.30937500000002,146.5267249266522 152.99375,146.63779175455986 150.678125,146.74530693740604 148.36249999999998,146.8493840480988 146.046875,146.95013302776303 143.73125,147.04766030187557 141.415625,147.14206889268738 139.1,147.23345852805014 136.784375,147.32192574676318 134.46875,147.40756400055156 132.153125,147.49046375278306 129.8375,147.57071257402862 127.521875,147.64839523456678 125.20624999999998,147.72359379393035 122.890625,147.79638768758926 120.575,147.86685381086176 118.259375,147.93506660014208 115.94375,148.00109811153104 113.628125,148.06501809695186 111.3125,148.12689407783208 108.996875,148.1867914164295 106.68125,148.2447733848769 104.365625,148.30090123201944 102.05000000000001,148.3552342481141 99.734375,148.4078298274608 97.41875,148.45874352903024 95.10312499999999,148.50802913515352 92.78750000000001,148.5557387083344 90.471875,148.6019226462453 88.15625,148.64662973496473 85.84062499999999,148.6899072005117 83.525,148.731800758733 81.209375,148.77235466359448 78.89375,148.81161175392876 76.578125,148.8496134986874 74.2625,148.88640004074654 71.946875,148.9220102393114 69.63125,148.95648171096516 67.31562500000001,148.9898508694047 65.0,149.02215296390617" style="fill:rgb(40%,76.1%,64.7%);fill-opacity:1.0;opacity:0.7;stroke:none" /></g></g><g class="toyplot-coordinates-Axis" id="t912dd0c5c6b046999bf0e7fa119469da" transform="translate(65.0,150.0)"><line x1="0" y1="0" x2="570.0" y2="0" style="stroke-width:5" /><g class="toyplot-coordinates-Axis-coordinates" style="visibility:hidden" transform=""><line x1="0" x2="0" y1="-3.0" y2="4.5" style="stroke:rgb(43.9%,50.2%,56.5%);stroke-opacity:1.0;stroke-width:1.0" /><text x="0" y="-6" style="alignment-baseline:alphabetic;fill:rgb(43.9%,50.2%,56.5%);fill-opacity:1.0;font-size:10px;font-weight:normal;stroke:none;text-anchor:middle" /></g></g><g class="toyplot-coordinates-Axis" id="t7a976f6cb2184a0c9eb60e41053d65a4" transform="translate(65.0,150.0)rotate(-90.0)"><line x1="0" y1="0" x2="85.0" y2="0" style="stroke-width:5" /><g><line x1="0.0" y1="-7.5" x2="0.0" y2="0" style="stroke-width:5" /><line x1="42.5" y1="-7.5" x2="42.5" y2="0" style="stroke-width:5" /><line x1="85.0" y1="-7.5" x2="85.0" y2="0" style="stroke-width:5" /></g><g><g transform="translate(0.0,-6)"><text x="-6.95" y="-4.440892098500626e-16" style="fill:rgb(16.1%,15.3%,14.1%);fill-opacity:1.0;font-family:helvetica;font-size:10.0px;font-weight:normal;stroke:none;vertical-align:baseline;white-space:pre">0.0</text></g><g transform="translate(42.5,-6)"><text x="-6.95" y="-4.440892098500626e-16" style="fill:rgb(16.1%,15.3%,14.1%);fill-opacity:1.0;font-family:helvetica;font-size:10.0px;font-weight:normal;stroke:none;vertical-align:baseline;white-space:pre">0.5</text></g><g transform="translate(85.0,-6)"><text x="-6.95" y="-4.440892098500626e-16" style="fill:rgb(16.1%,15.3%,14.1%);fill-opacity:1.0;font-family:helvetica;font-size:10.0px;font-weight:normal;stroke:none;vertical-align:baseline;white-space:pre">1.0</text></g></g><g transform="translate(42.5,-35.0)"><text x="-31.008" y="0.0" style="fill:rgb(16.1%,15.3%,14.1%);fill-opacity:1.0;font-family:helvetica;font-size:12.0px;font-weight:bold;stroke:none;vertical-align:baseline;white-space:pre">Probability</text></g><g class="toyplot-coordinates-Axis-coordinates" style="visibility:hidden" transform=""><line x1="0" x2="0" y1="3.0" y2="-4.5" style="stroke:rgb(43.9%,50.2%,56.5%);stroke-opacity:1.0;stroke-width:1.0" /><text x="0" y="6" style="alignment-baseline:hanging;fill:rgb(43.9%,50.2%,56.5%);fill-opacity:1.0;font-size:10px;font-weight:normal;stroke:none;text-anchor:middle" /></g></g></g><g class="toyplot-coordinates-Cartesian" id="t7fb27b82c60b4c4487f873ee0c5848b0"><clipPath id="t2f2b197e95224abe8ca7ca7e1d8b5dc5"><rect x="65.0" y="65.0" width="570.0" height="85.0" /></clipPath><g clip-path="url(#t2f2b197e95224abe8ca7ca7e1d8b5dc5)" /><g class="toyplot-coordinates-Axis" id="t0dd8f5d0b4824794a03389a5e1ed515d" transform="translate(65.0,65.0)"><line x1="0" y1="0" x2="570.0" y2="0" style="stroke-width:5" /><g><line x1="0.0" y1="-7.5" x2="0.0" y2="0" style="stroke-width:5" /><line x1="71.25" y1="-7.5" x2="71.25" y2="0" style="stroke-width:5" /><line x1="0.0" y1="-7.5" x2="0.0" y2="0" style="stroke-width:5" /><line x1="85.5" y1="-7.5" x2="85.5" y2="0" style="stroke-width:5" /><line x1="142.5" y1="-7.5" x2="142.5" y2="0" style="stroke-width:5" /><line x1="213.75" y1="-7.5" x2="213.75" y2="0" style="stroke-width:5" /><line x1="0.0" y1="-7.5" x2="0.0" y2="0" style="stroke-width:5" /><line x1="285.0" y1="-7.5" x2="285.0" y2="0" style="stroke-width:5" /><line x1="320.625" y1="-7.5" x2="320.625" y2="0" style="stroke-width:5" /><line x1="0.0" y1="-7.5" x2="0.0" y2="0" style="stroke-width:5" /><line x1="427.5" y1="-7.5" x2="427.5" y2="0" style="stroke-width:5" /><line x1="463.125" y1="-7.5" x2="463.125" y2="0" style="stroke-width:5" /><line x1="570.0" y1="-7.5" x2="570.0" y2="0" style="stroke-width:5" /></g><g class="toyplot-coordinates-Axis-coordinates" style="visibility:hidden" transform=""><line x1="0" x2="0" y1="3.0" y2="-4.5" style="stroke:rgb(43.9%,50.2%,56.5%);stroke-opacity:1.0;stroke-width:1.0" /><text x="0" y="6" style="alignment-baseline:hanging;fill:rgb(43.9%,50.2%,56.5%);fill-opacity:1.0;font-size:10px;font-weight:normal;stroke:none;text-anchor:middle" /></g></g></g><g class="toyplot-mark-Text" id="td2521e2692554934a1e4a74ae9159402"><g class="toyplot-Series"><g class="toyplot-Datum" transform="translate(350.0,107.5)"><text x="-23.346" y="3.066" style="fill:rgb(16.1%,15.3%,14.1%);fill-opacity:1.0;font-family:helvetica;font-size:12.0px;font-weight:normal;opacity:1;stroke:none;vertical-align:baseline;white-space:pre">branch 5</text></g></g></g></svg>