<svg class="toyplot-canvas-Canvas" xmlns:toyplot="http://www.sandia.gov/toyplot" xmlns:xlink="http://www.w3.org/1999/xlink" xmlns="http://www.w3.org/2000/svg" width="700.0px" height="215.0px" viewBox="0 0 700.0 215.0" preserveAspectRatio="xMidYMid meet" style="background-color:transparent;border-color:#292724;border-style:none;border-width:1.0;fill:rgb(16.1%,15.3%,14.1%);fill-opacity:1.0;font-family:Helvetica;font-size:12px;opacity:1.0;stroke:rgb(16.1%,15.3%,14.1%);stroke-opacity:1.0;stroke-width:1.0" id="t364b37c3635e44df87f12d43639c96b3"><g class="toyplot-coordinates-Cartesian" id="te5377e30f4b846ce82f1b51501c62da9"><clipPath id="tf1653de6af704634b96faaa87402b048"><rect x="65.0" y="65.0" width="570.0" height="85.0" /></clipPath><g clip-path="url(#tf1653de6af704634b96faaa87402b048)"><g class="toyplot-mark-FillBoundaries" style="stroke:none" id="t7a31967b47d24025855d1d83c04ec95d"><polygon points="65.0,150.0 66.06875,150.0 67.13749999999999,150.0 68.20625000000001,150.0 69.275,150.0 70.34375,150.0 71.4125,150.0 72.48124999999999,150.0 73.55000000000001,150.0 74.61875,150.0 75.6875,150.0 76.75625,150.0 77.825,150.0 78.89375,150.0 79.9625,150.0 81.03125,150.0 82.1,150.0 83.16875,150.0 84.23750000000001,150.0 85.30624999999999,150.0 86.375,150.0 87.44375,150.0 88.5125,150.0 89.58125,150.0 90.64999999999999,150.0 91.71875,150.0 92.78750000000001,150.0 93.85625,150.0 94.925,150.0 95.99375,150.0 97.0625,150.0 98.13125000000001,150.0 99.19999999999999,150.0 100.26875,150.0 101.3375,150.0 102.40625,150.0 103.475,150.0 104.54375,150.0 105.6125,150.0 106.68125,150.0 107.75,150.0 108.81875,150.0 109.8875,150.0 110.95625000000001,150.0 112.025,150.0 113.09375,150.0 114.1625,150.0 115.23124999999999,150.0 116.3,150.0 117.36874999999999,150.0 118.4375,150.0 119.50625000000001,150.0 120.575,150.0 121.64375000000001,150.0 122.7125,150.0 123.78125,150.0 124.85,150.0 125.91874999999999,150.0 126.98750000000001,150.0 128.05625,150.0 129.125,150.0 130.19375,150.0 131.26250000000002,150.0 132.33124999999998,150.0 133.4,150.0 134.46875,150.0 135.5375,150.0 136.60625,150.0 137.675,150.0 138.74374999999998,150.0 139.8125,150.0 140.88125,150.0 141.95000000000002,150.0 143.01874999999998,150.0 144.0875,150.0 145.15625,150.0 146.225,150.0 147.29375000000002,150.0 148.36249999999998,150.0 149.43125,150.0 150.5,150.0 151.56875000000002,150.0 152.6375,150.0 153.70625,150.0 154.775,150.0 155.84375,150.0 156.9125,150.0 157.98125,150.0 159.05,150.0 160.11875,150.0 161.1875,150.0 162.25625,150.0 163.325,150.0 164.39375,150.0 165.46249999999998,150.0 166.53125,150.0 167.6,150.0 168.66875000000002,150.0 169.73749999999998,150.0 170.80625,150.0 171.875,150.0 172.94375,150.0 174.01250000000002,150.0 175.08124999999998,150.0 176.15,150.0 177.21875,150.0 178.28750000000002,150.0 179.35625,150.0 180.425,150.0 181.49374999999998,150.0 182.5625,150.0 183.63125000000002,150.0 184.7,150.0 185.76875,150.0 186.83749999999998,150.0 187.90625,150.0 188.97500000000002,150.0 190.04375,150.0 191.1125,150.0 192.18124999999998,150.0 193.25,150.0 194.31875,150.0 195.3875,150.0 196.45625,150.0 197.525,150.0 198.59375,150.0 199.6625,150.0 200.73125,150.0 201.8,150.0 202.86875,150.0 203.9375,150.0 205.00625000000002,150.0 206.075,150.0 207.14375,150.0 208.21249999999998,150.0 209.28125,150.0 210.35000000000002,150.0 211.41875000000002,150.0 212.48749999999998,150.0 213.55624999999998,150.0 214.625,150.0 215.69375000000002,150.0 216.7625,150.0 217.83125,150.0 218.9,150.0 219.96875,150.0 221.0375,150.0 222.10625,150.0 223.175,150.0 224.24374999999998,150.0 225.3125,150.0 226.38125000000002,150.0 227.45,150.0 228.51875,150.0 229.5875,150.0 230.65625,150.0 231.725,150.0 232.79375,150.0 233.8625,150.0 234.93124999999998,150.0 236.0,150.0 237.06875000000002,150.0 238.13750000000002,150.0 239.20624999999998,150.0 240.27499999999998,150.0 241.34375,150.0 242.41250000000002,150.0 243.48125,150.0 244.55,150.0 245.61875,150.0 246.6875,150.0 247.75625,150.0 248.825,150.0 249.89375,150.0 250.96249999999998,150.0 252.03125,150.0 253.10000000000002,150.0 254.16875,150.0 255.2375,150.0 256.30625000000003,150.0 257.375,150.0 258.44374999999997,150.0 259.5125,150.0 260.58125,150.0 261.65,150.0 262.71875,150.0 263.7875,150.0 264.85625000000005,150.0 265.92499999999995,150.0 266.99375,150.0 268.0625,150.0 269.13125,150.0 270.2,150.0 271.26875,150.0 272.33750000000003,150.0 273.40625,150.0 274.47499999999997,150.0 275.54375,150.0 276.6125,150.0 277.68125,150.0 277.68125,66.24673801472883 276.6125,67.4386164173152 275.54375,68.57804916883902 274.47499999999997,69.66734401001395 273.40625,70.70870713515097 272.33750000000003,71.70424766045582 271.26875,72.65598189571004 270.2,73.56583742798745 269.13125,74.43565702567653 268.0625,75.26720237071642 266.99375,76.06215762660455 265.92499999999995,76.8221328494036 264.85625000000005,77.54866724865505 263.7875,78.24323230480456 262.71875,78.90723474945275 261.65,79.54201941446748 260.58125,80.14887195572778 259.5125,80.72902145701667 258.44374999999997,81.28364291933556 257.375,81.81385964068302 256.30625000000003,82.32074549111701 255.2375,82.80532708770872 254.16875,83.26858587379304 253.10000000000002,83.71146010672672 252.03125,84.13484675818009 250.96249999999998,84.53960333081125 249.89375,84.92654959500204 248.825,85.29646924917316 247.75625,85.65011150704133 246.6875,85.98819261503309 245.61875,86.31139730292853 244.55,86.62038017067322 243.48125,86.9157670141667 242.41250000000002,87.19815609271313 241.34375,87.46811934070067 240.27499999999998,87.72620352596425 239.20624999999998,87.97293135717717 238.13750000000002,88.20880254251487 237.06875000000002,88.4342948017347 236.0,88.64986483372171 234.93124999999998,88.85594924145998 233.8625,89.05296541630284 232.79375,89.24131238333297 231.725,89.4213716095247 230.65625,89.59350777634481 229.5875,89.75806951835723 228.51875,89.91539012932718 227.45,90.06578823725489 226.38125000000002,90.20956844970624 225.3125,90.34702197074719 224.24374999999998,90.4784271907314 223.175,90.60405025013603 222.10625,90.72414557858703 221.0375,90.8389564101661 219.96875,90.94871527604286 218.9,91.0536444754299 217.83125,91.15395652581469 216.7625,91.24985459338005 215.69375000000002,91.34153290448519 214.625,91.42917713904042 213.55624999999998,91.51296480657241 212.48749999999998,91.59306560574166 211.41875000000002,91.6696417680403 210.35000000000002,91.7428483863662 209.28125,91.8128337291393 208.21249999999998,91.87973954059564 207.14375,92.07769645700702 206.075,92.53349440967314 205.00625000000002,92.97582149703851 203.9375,93.40507584333977 202.86875,93.8216438064641 201.8,94.22590032569752 200.73125,94.61820925919542 199.6625,94.9989237114797 198.59375,95.3683863512563 197.525,95.72692971984057 196.45625,96.07487653046658 195.3875,96.41253995875107 194.31875,96.7402239245724 193.25,97.0582233656192 192.18124999999998,97.36682450285397 191.1125,97.66630509813146 190.04375,97.95693470420292 188.97500000000002,98.23897490733196 187.90625,98.51267956273966 186.83749999999998,98.77829502309147 185.76875,99.03606036023132 184.7,99.28620758036232 183.63125000000002,99.52896183286802 182.5625,99.76454161296209 181.49374999999998,99.9931589583487 180.425,100.21501964007086 179.35625,100.43032334771817 178.28750000000002,100.63926386916094 177.21875,100.84202926497235 176.15,101.03880203769575 175.08124999999998,101.22975929610911 174.01250000000002,101.41507291463503 172.94375,101.59490968803922 171.875,101.76943148155709 170.80625,101.9387953765834 169.73749999999998,102.10315381205604 168.66875000000002,102.2626547216615 167.6,102.41744166698504 166.53125,102.56765396672586 165.46249999999998,102.71342682209342 164.39375,102.85489143849748 163.325,102.99217514364193 162.25625,103.12540150212837 161.1875,103.25469042667245 160.11875,103.38015828603358 159.05,103.50191800975445 157.98125,103.62007918980547 156.9125,103.7347481792248 155.84375,103.84602818784333 154.775,103.95401937518042 153.70625,104.05881894059429 152.6375,104.160521210768 151.56875000000002,104.25921772460983 150.5,104.35499731564443 149.43125,104.44794619196907 148.36249999999998,104.53814801384667 147.29375000000002,104.6256839690057 146.225,104.71063284571473 145.15625,104.79307110369695 144.0875,104.8730729429493 143.01874999999998,104.95071037052742 141.95000000000002,105.02605326535681 140.88125,105.0991694411286 139.8125,105.17012470733648 138.74374999999998,105.23898292850966 137.675,105.3058060816953 136.60625,105.37065431224188 135.5375,105.035458876168 134.46875,104.52053588437806 133.4,104.02827080088893 132.33124999999998,103.55766662067896 131.26250000000002,103.1077702094581 130.19375,102.67767037324519 129.125,102.26649601288884 128.05625,101.87341435979383 126.98750000000001,101.49762928928018 125.91874999999999,101.13837970815868 124.85,100.79493801325694 123.78125,100.46660861777437 122.7125,100.15272654248125 121.64375000000001,99.85265606890849 120.575,99.56578945180046 119.50625000000001,99.2915456882232 118.4375,99.0293693408349 117.36874999999999,98.77872941293549 116.3,98.53911827301684 115.23124999999999,98.31005062663544 114.1625,98.0910625335254 113.09375,97.88171046796074 112.025,97.6815704204644 110.95625000000001,97.49023703904393 109.8875,97.30732280821533 108.81875,97.13245726415178 107.75,96.96528624436763 106.68125,96.80547117041851 105.6125,96.6526883621642 104.54375,96.50662838220566 103.475,96.36699540916874 102.40625,96.23350663856456 101.3375,96.10589171001396 100.26875,95.98389215967526 99.19999999999999,95.86726089676671 98.13125000000001,95.75576170312314 97.0625,95.64916875477346 95.99375,95.54726616456998 94.925,95.4498475449432 93.85625,95.35671558989634 92.78750000000001,95.26768167539333 91.71875,95.18256547733071 90.64999999999999,95.10119460631967 89.58125,95.02340425853852 88.5125,94.94903688194884 87.44375,94.87794185719855 86.375,94.80997519256641 85.30624999999999,94.74499923232952 84.23750000000001,94.68288237796335 83.16875,94.62349882160989 82.1,94.56672829127368 81.03125,94.51245580722997 79.9625,94.46057144915132 78.89375,94.41097013348161 77.825,94.36355140060577 76.75625,94.31821921138474 75.6875,94.27488175264347 74.61875,94.23345125121776 73.55000000000001,94.1938437961837 72.48124999999999,94.15597916890931 71.4125,94.11978068058446 70.34375,94.08517501689973 69.275,94.05209208955998 68.20625000000001,94.0204648943315 67.13749999999999,93.99022937533562 66.06875,93.96132429531366 65.0,93.93369111160047" style="fill:rgb(40%,76.1%,64.7%);fill-opacity:1.0;opacity:0.7;stroke:none" /></g></g><g class="toyplot-coordinates-Axis" id="t4449db06f73343edac33e035570e449a" transform="translate(65.0,150.0)"><line x1="0" y1="0" x2="570.0" y2="0" style="stroke-width:5" /><g class="toyplot-coordinates-Axis-coordinates" style="visibility:hidden" transform=""><line x1="0" x2="0" y1="-3.0" y2="4.5" style="stroke:rgb(43.9%,50.2%,56.5%);stroke-opacity:1.0;stroke-width:1.0" /><text x="0" y="-6" style="alignment-baseline:alphabetic;fill:rgb(43.9%,50.2%,56.5%);fill-opacity:1.0;font-size:10px;font-weight:normal;stroke:none;text-anchor:middle" /></g></g><g class="toyplot-coordinates-Axis" id="t5b04dfc29c3841b8bf01799032910720" transform="translate(65.0,150.0)rotate(-90.0)"><line x1="0" y1="0" x2="85.0" y2="0" style="stroke-width:5" /><g><line x1="0.0" y1="-7.5" x2="0.0" y2="0" style="stroke-width:5" /><line x1="42.5" y1="-7.5" x2="42.5" y2="0" style="stroke-width:5" /><line x1="85.0" y1="-7.5" x2="85.0" y2="0" style="stroke-width:5" /></g><g><g transform="translate(0.0,-6)"><text x="-6.95" y="-4.440892098500626e-16" style="fill:rgb(16.1%,15.3%,14.1%);fill-opacity:1.0;font-family:helvetica;font-size:10.0px;font-weight:normal;stroke:none;vertical-align:baseline;white-space:pre">0.0</text></g><g transform="translate(42.5,-6)"><text x="-6.95" y="-4.440892098500626e-16" style="fill:rgb(16.1%,15.3%,14.1%);fill-opacity:1.0;font-family:helvetica;font-size:10.0px;font-weight:normal;stroke:none;vertical-align:baseline;white-space:pre">0.5</text></g><g transform="translate(85.0,-6)"><text x="-6.95" y="-4.440892098500626e-16" style="fill:rgb(16.1%,15.3%,14.1%);fill-opacity:1.0;font-family:helvetica;font-size:10.0px;font-weight:normal;stroke:none;vertical-align:baseline;white-space:pre">1.0</text></g></g><g transform="translate(42.5,-35.0)"><text x="-31.008" y="0.0" style="fill:rgb(16.1%,15.3%,14.1%);fill-opacity:1.0;font-family:helvetica;font-size:12.0px;font-weight:bold;stroke:none;vertical-align:baseline;white-space:pre">Probability</text></g><g class="toyplot-coordinates-Axis-coordinates" style="visibility:hidden" transform=""><line x1="0" x2="0" y1="3.0" y2="-4.5" style="stroke:rgb(43.9%,50.2%,56.5%);stroke-opacity:1.0;stroke-width:1.0" /><text x="0" y="6" style="alignment-baseline:hanging;fill:rgb(43.9%,50.2%,56.5%);fill-opacity:1.0;font-size:10px;font-weight:normal;stroke:none;text-anchor:middle" /></g></g></g><g class="toyplot-coordinates-Cartesian" id="t5f46f4758dc24ed2b503ad676ad993b0"><clipPath id="tf5003fd4acd44c87b504bd11448f92e1"><rect x="65.0" y="65.0" width="570.0" height="85.0" /></clipPath><g clip-path="url(#tf5003fd4acd44c87b504bd11448f92e1)" /><g class="toyplot-coordinates-Axis" id="t2f23ccc374714e069f0c6d0f9760ae00" transform="translate(65.0,65.0)"><line x1="0" y1="0" x2="570.0" y2="0" style="stroke-width:5" /><g><line x1="0.0" y1="-7.5" x2="0.0" y2="0" style="stroke-width:5" /><line x1="71.25" y1="-7.5" x2="71.25" y2="0" style="stroke-width:5" /><line x1="0.0" y1="-7.5" x2="0.0" y2="0" style="stroke-width:5" /><line x1="85.5" y1="-7.5" x2="85.5" y2="0" style="stroke-width:5" /><line x1="142.5" y1="-7.5" x2="142.5" y2="0" style="stroke-width:5" /><line x1="213.75" y1="-7.5" x2="213.75" y2="0" style="stroke-width:5" /><line x1="0.0" y1="-7.5" x2="0.0" y2="0" style="stroke-width:5" /><line x1="285.0" y1="-7.5" x2="285.0" y2="0" style="stroke-width:5" /><line x1="320.625" y1="-7.5" x2="320.625" y2="0" style="stroke-width:5" /><line x1="0.0" y1="-7.5" x2="0.0" y2="0" style="stroke-width:5" /><line x1="427.5" y1="-7.5" x2="427.5" y2="0" style="stroke-width:5" /><line x1="463.125" y1="-7.5" x2="463.125" y2="0" style="stroke-width:5" /><line x1="570.0" y1="-7.5" x2="570.0" y2="0" style="stroke-width:5" /></g><g class="toyplot-coordinates-Axis-coordinates" style="visibility:hidden" transform=""><line x1="0" x2="0" y1="3.0" y2="-4.5" style="stroke:rgb(43.9%,50.2%,56.5%);stroke-opacity:1.0;stroke-width:1.0" /><text x="0" y="6" style="alignment-baseline:hanging;fill:rgb(43.9%,50.2%,56.5%);fill-opacity:1.0;font-size:10px;font-weight:normal;stroke:none;text-anchor:middle" /></g></g></g><g class="toyplot-mark-Text" id="t1090c0e45c8643ec94e21c2e47914bc9"><g class="toyplot-Series"><g class="toyplot-Datum" transform="translate(350.0,107.5)"><text x="-23.346" y="3.066" style="fill:rgb(16.1%,15.3%,14.1%);fill-opacity:1.0;font-family:helvetica;font-size:12.0px;font-weight:normal;opacity:1;stroke:none;vertical-align:baseline;white-space:pre">branch 2</text></g></g></g></svg>