<svg class="toyplot-canvas-Canvas" xmlns:toyplot="http://www.sandia.gov/toyplot" xmlns:xlink="http://www.w3.org/1999/xlink" xmlns="http://www.w3.org/2000/svg" width="700.0px" height="215.0px" viewBox="0 0 700.0 215.0" preserveAspectRatio="xMidYMid meet" style="background-color:transparent;border-color:#292724;border-style:none;border-width:1.0;fill:rgb(16.1%,15.3%,14.1%);fill-opacity:1.0;font-family:Helvetica;font-size:12px;opacity:1.0;stroke:rgb(16.1%,15.3%,14.1%);stroke-opacity:1.0;stroke-width:1.0" id="t5f36c542941444e0a86ff42a128236b6"><g class="toyplot-coordinates-Cartesian" id="td13cf298104b4dcb9583d2205faabad6"><clipPath id="t0a9900f4f6654b4dbadec5556d6b3016"><rect x="65.0" y="65.0" width="570.0" height="85.0" /></clipPath><g clip-path="url(#t0a9900f4f6654b4dbadec5556d6b3016)"><g class="toyplot-mark-FillBoundaries" style="stroke:none" id="t6a5e048510fb47e292c6b0fc57bdcd9f"><polygon points="65.0,150.0 66.06875,150.0 67.13749999999999,150.0 68.20625000000001,150.0 69.275,150.0 70.34375,150.0 71.4125,150.0 72.48124999999999,150.0 73.55000000000001,150.0 74.61875,150.0 75.6875,150.0 76.75625,150.0 77.825,150.0 78.89375,150.0 79.9625,150.0 81.03125,150.0 82.1,150.0 83.16875,150.0 84.23750000000001,150.0 85.30624999999999,150.0 86.375,150.0 87.44375,150.0 88.5125,150.0 89.58125,150.0 90.64999999999999,150.0 91.71875,150.0 92.78750000000001,150.0 93.85625,150.0 94.925,150.0 95.99375,150.0 97.0625,150.0 98.13125000000001,150.0 99.19999999999999,150.0 100.26875,150.0 101.3375,150.0 102.40625,150.0 103.475,150.0 104.54375,150.0 105.6125,150.0 106.68125,150.0 107.75,150.0 108.81875,150.0 109.8875,150.0 110.95625000000001,150.0 112.025,150.0 113.09375,150.0 114.1625,150.0 115.23124999999999,150.0 116.3,150.0 117.36874999999999,150.0 118.4375,150.0 119.50625000000001,150.0 120.575,150.0 121.64375000000001,150.0 122.7125,150.0 123.78125,150.0 124.85,150.0 125.91874999999999,150.0 126.98750000000001,150.0 128.05625,150.0 129.125,150.0 130.19375,150.0 131.26250000000002,150.0 132.33124999999998,150.0 133.4,150.0 134.46875,150.0 135.5375,150.0 136.60625,150.0 137.675,150.0 138.74374999999998,150.0 139.8125,150.0 140.88125,150.0 141.95000000000002,150.0 143.01874999999998,150.0 144.0875,150.0 145.15625,150.0 146.225,150.0 147.29375000000002,150.0 148.36249999999998,150.0 149.43125,150.0 150.5,150.0 151.56875000000002,150.0 152.6375,150.0 153.70625,150.0 154.775,150.0 155.84375,150.0 156.9125,150.0 157.98125,150.0 159.05,150.0 160.11875,150.0 161.1875,150.0 162.25625,150.0 163.325,150.0 164.39375,150.0 165.46249999999998,150.0 166.53125,150.0 167.6,150.0 168.66875000000002,150.0 169.73749999999998,150.0 170.80625,150.0 171.875,150.0 172.94375,150.0 174.01250000000002,150.0 175.08124999999998,150.0 176.15,150.0 177.21875,150.0 178.28750000000002,150.0 179.35625,150.0 180.425,150.0 181.49374999999998,150.0 182.5625,150.0 183.63125000000002,150.0 184.7,150.0 185.76875,150.0 186.83749999999998,150.0 187.90625,150.0 188.97500000000002,150.0 190.04375,150.0 191.1125,150.0 192.18124999999998,150.0 193.25,150.0 194.31875,150.0 195.3875,150.0 196.45625,150.0 197.525,150.0 198.59375,150.0 199.6625,150.0 200.73125,150.0 201.8,150.0 202.86875,150.0 203.9375,150.0 205.00625000000002,150.0 206.075,150.0 207.14375,150.0 208.21249999999998,150.0 209.28125,150.0 210.35000000000002,150.0 211.41875000000002,150.0 212.48749999999998,150.0 213.55624999999998,150.0 214.625,150.0 215.69375000000002,150.0 216.7625,150.0 217.83125,150.0 218.9,150.0 219.96875,150.0 221.0375,150.0 222.10625,150.0 223.175,150.0 224.24374999999998,150.0 225.3125,150.0 226.38125000000002,150.0 227.45,150.0 228.51875,150.0 229.5875,150.0 230.65625,150.0 231.725,150.0 232.79375,150.0 233.8625,150.0 234.93124999999998,150.0 236.0,150.0 237.06875000000002,150.0 238.13750000000002,150.0 239.20624999999998,150.0 240.27499999999998,150.0 241.34375,150.0 242.41250000000002,150.0 243.48125,150.0 244.55,150.0 245.61875,150.0 246.6875,150.0 247.75625,150.0 248.825,150.0 249.89375,150.0 250.96249999999998,150.0 252.03125,150.0 253.10000000000002,150.0 254.16875,150.0 255.2375,150.0 256.30625000000003,150.0 257.375,150.0 258.44374999999997,150.0 259.5125,150.0 260.58125,150.0 261.65,150.0 262.71875,150.0 263.7875,150.0 264.85625000000005,150.0 265.92499999999995,150.0 266.99375,150.0 268.0625,150.0 269.13125,150.0 270.2,150.0 271.26875,150.0 272.33750000000003,150.0 273.40625,150.0 274.47499999999997,150.0 275.54375,150.0 276.6125,150.0 277.68125,150.0 277.68125,148.75326198527117 276.6125,147.56138358268478 275.54375,146.42195083116098 274.47499999999997,145.33265598998605 273.40625,144.29129286484903 272.33750000000003,143.29575233954418 271.26875,142.34401810428994 270.2,141.43416257201255 269.13125,140.56434297432344 268.0625,139.7327976292836 266.99375,138.93784237339545 265.92499999999995,138.1778671505964 264.85625000000005,137.45133275134495 263.7875,136.75676769519544 262.71875,136.09276525054725 261.65,135.45798058553254 260.58125,134.8511280442722 259.5125,134.27097854298333 258.44374999999997,133.71635708066444 257.375,133.18614035931697 256.30625000000003,132.67925450888302 255.2375,132.19467291229128 254.16875,131.73141412620697 253.10000000000002,131.28853989327325 252.03125,130.8651532418199 250.96249999999998,130.46039666918875 249.89375,130.07345040499797 248.825,129.70353075082684 247.75625,129.34988849295866 246.6875,129.01180738496691 245.61875,128.68860269707147 244.55,128.3796198293268 243.48125,128.0842329858333 242.41250000000002,127.80184390728687 241.34375,127.53188065929932 240.27499999999998,127.27379647403575 239.20624999999998,127.02706864282284 238.13750000000002,126.79119745748511 237.06875000000002,126.5657051982653 236.0,126.35013516627828 234.93124999999998,126.14405075854003 233.8625,125.94703458369717 232.79375,125.75868761666702 231.725,125.5786283904753 230.65625,125.40649222365519 229.5875,125.24193048164277 228.51875,125.08460987067281 227.45,124.93421176274511 226.38125000000002,124.79043155029375 225.3125,124.65297802925281 224.24374999999998,124.52157280926859 223.175,124.39594974986397 222.10625,124.27585442141299 221.0375,124.1610435898339 219.96875,124.05128472395712 218.9,123.9463555245701 217.83125,123.84604347418531 216.7625,123.75014540661995 215.69375000000002,123.65846709551481 214.625,123.57082286095958 213.55624999999998,123.4870351934276 212.48749999999998,123.40693439425834 211.41875000000002,123.33035823195972 210.35000000000002,123.2571516136338 209.28125,123.1871662708607 208.21249999999998,123.12026045940436 207.14375,122.92230354299296 206.075,122.46650559032686 205.00625000000002,122.02417850296149 203.9375,121.59492415666023 202.86875,121.1783561935359 201.8,120.77409967430248 200.73125,120.38179074080456 199.6625,120.0010762885203 198.59375,119.63161364874371 197.525,119.27307028015943 196.45625,118.92512346953342 195.3875,118.58746004124893 194.31875,118.25977607542758 193.25,117.9417766343808 192.18124999999998,117.63317549714601 191.1125,117.33369490186854 190.04375,117.04306529579708 188.97500000000002,116.76102509266804 187.90625,116.48732043726034 186.83749999999998,116.22170497690854 185.76875,115.96393963976868 184.7,115.71379241963768 183.63125000000002,115.47103816713198 182.5625,115.23545838703791 181.49374999999998,115.00684104165131 180.425,114.78498035992914 179.35625,114.56967665228183 178.28750000000002,114.36073613083906 177.21875,114.15797073502765 176.15,113.96119796230427 175.08124999999998,113.77024070389089 174.01250000000002,113.58492708536497 172.94375,113.40509031196078 171.875,113.23056851844291 170.80625,113.0612046234166 169.73749999999998,112.89684618794396 168.66875000000002,112.7373452783385 167.6,112.58255833301496 166.53125,112.43234603327414 165.46249999999998,112.28657317790659 164.39375,112.14510856150252 163.325,112.00782485635807 162.25625,111.87459849787163 161.1875,111.74530957332755 160.11875,111.61984171396642 159.05,111.49808199024555 157.98125,111.37992081019453 156.9125,111.2652518207752 155.84375,111.15397181215667 154.775,111.04598062481958 153.70625,110.94118105940571 152.6375,110.83947878923202 151.56875000000002,110.74078227539019 150.5,110.64500268435557 149.43125,110.55205380803092 148.36249999999998,110.46185198615333 147.29375000000002,110.3743160309943 146.225,110.28936715428527 145.15625,110.20692889630305 144.0875,110.1269270570507 143.01874999999998,110.04928962947258 141.95000000000002,109.9739467346432 140.88125,109.90083055887142 139.8125,109.82987529266352 138.74374999999998,109.76101707149034 137.675,109.6941939183047 136.60625,109.62934568775812 135.5375,109.964541123832 134.46875,110.47946411562195 133.4,110.97172919911108 132.33124999999998,111.44233337932104 131.26250000000002,111.8922297905419 130.19375,112.32232962675481 129.125,112.73350398711116 128.05625,113.12658564020617 126.98750000000001,113.50237071071982 125.91874999999999,113.86162029184132 124.85,114.20506198674306 123.78125,114.53339138222562 122.7125,114.84727345751874 121.64375000000001,115.14734393109151 120.575,115.43421054819954 119.50625000000001,115.7084543117768 118.4375,115.97063065916508 117.36874999999999,116.2212705870645 116.3,116.46088172698316 115.23124999999999,116.68994937336456 114.1625,116.9089374664746 113.09375,117.11828953203926 112.025,117.3184295795356 110.95625000000001,117.50976296095608 109.8875,117.69267719178467 108.81875,117.86754273584823 107.75,118.03471375563237 106.68125,118.19452882958149 105.6125,118.3473116378358 104.54375,118.49337161779434 103.475,118.63300459083126 102.40625,118.76649336143544 101.3375,118.89410828998604 100.26875,119.01610784032472 99.19999999999999,119.13273910323329 98.13125000000001,119.24423829687686 97.0625,119.35083124522656 95.99375,119.45273383543002 94.925,119.55015245505683 93.85625,119.64328441010366 92.78750000000001,119.73231832460668 91.71875,119.81743452266929 90.64999999999999,119.89880539368033 89.58125,119.9765957414615 88.5125,120.05096311805116 87.44375,120.12205814280144 86.375,120.19002480743357 85.30624999999999,120.25500076767048 84.23750000000001,120.31711762203666 83.16875,120.37650117839011 82.1,120.43327170872632 81.03125,120.48754419277005 79.9625,120.53942855084868 78.89375,120.58902986651839 77.825,120.63644859939424 76.75625,120.68178078861524 75.6875,120.72511824735653 74.61875,120.76654874878226 73.55000000000001,120.8061562038163 72.48124999999999,120.84402083109067 71.4125,120.88021931941554 70.34375,120.91482498310026 69.275,120.94790791044004 68.20625000000001,120.9795351056685 67.13749999999999,121.00977062466438 66.06875,121.03867570468636 65.0,121.06630888839953" style="fill:rgb(40%,76.1%,64.7%);fill-opacity:1.0;opacity:0.7;stroke:none" /></g></g><g class="toyplot-coordinates-Axis" id="td903bca75204463d88dd2feae66d899e" transform="translate(65.0,150.0)"><line x1="0" y1="0" x2="570.0" y2="0" style="stroke-width:5" /><g class="toyplot-coordinates-Axis-coordinates" style="visibility:hidden" transform=""><line x1="0" x2="0" y1="-3.0" y2="4.5" style="stroke:rgb(43.9%,50.2%,56.5%);stroke-opacity:1.0;stroke-width:1.0" /><text x="0" y="-6" style="alignment-baseline:alphabetic;fill:rgb(43.9%,50.2%,56.5%);fill-opacity:1.0;font-size:10px;font-weight:normal;stroke:none;text-anchor:middle" /></g></g><g class="toyplot-coordinates-Axis" id="t17d10e4d74cb4f3fa5ac173d13108a93" transform="translate(65.0,150.0)rotate(-90.0)"><line x1="0" y1="0" x2="85.0" y2="0" style="stroke-width:5" /><g><line x1="0.0" y1="-7.5" x2="0.0" y2="0" style="stroke-width:5" /><line x1="42.5" y1="-7.5" x2="42.5" y2="0" style="stroke-width:5" /><line x1="85.0" y1="-7.5" x2="85.0" y2="0" style="stroke-width:5" /></g><g><g transform="translate(0.0,-6)"><text x="-6.95" y="-4.440892098500626e-16" style="fill:rgb(16.1%,15.3%,14.1%);fill-opacity:1.0;font-family:helvetica;font-size:10.0px;font-weight:normal;stroke:none;vertical-align:baseline;white-space:pre">0.0</text></g><g transform="translate(42.5,-6)"><text x="-6.95" y="-4.440892098500626e-16" style="fill:rgb(16.1%,15.3%,14.1%);fill-opacity:1.0;font-family:helvetica;font-size:10.0px;font-weight:normal;stroke:none;vertical-align:baseline;white-space:pre">0.5</text></g><g transform="translate(85.0,-6)"><text x="-6.95" y="-4.440892098500626e-16" style="fill:rgb(16.1%,15.3%,14.1%);fill-opacity:1.0;font-family:helvetica;font-size:10.0px;font-weight:normal;stroke:none;vertical-align:baseline;white-space:pre">1.0</text></g></g><g transform="translate(42.5,-35.0)"><text x="-31.008" y="0.0" style="fill:rgb(16.1%,15.3%,14.1%);fill-opacity:1.0;font-family:helvetica;font-size:12.0px;font-weight:bold;stroke:none;vertical-align:baseline;white-space:pre">Probability</text></g><g class="toyplot-coordinates-Axis-coordinates" style="visibility:hidden" transform=""><line x1="0" x2="0" y1="3.0" y2="-4.5" style="stroke:rgb(43.9%,50.2%,56.5%);stroke-opacity:1.0;stroke-width:1.0" /><text x="0" y="6" style="alignment-baseline:hanging;fill:rgb(43.9%,50.2%,56.5%);fill-opacity:1.0;font-size:10px;font-weight:normal;stroke:none;text-anchor:middle" /></g></g></g><g class="toyplot-coordinates-Cartesian" id="t63e194b6a06c4cf9a882b792df7d1046"><clipPath id="tc6c7ae277b914e248c2da7eeefbacb7f"><rect x="65.0" y="65.0" width="570.0" height="85.0" /></clipPath><g clip-path="url(#tc6c7ae277b914e248c2da7eeefbacb7f)" /><g class="toyplot-coordinates-Axis" id="td0db3ddb5c57426d9cea254226e29a8b" transform="translate(65.0,65.0)"><line x1="0" y1="0" x2="570.0" y2="0" style="stroke-width:5" /><g><line x1="0.0" y1="-7.5" x2="0.0" y2="0" style="stroke-width:5" /><line x1="71.25" y1="-7.5" x2="71.25" y2="0" style="stroke-width:5" /><line x1="0.0" y1="-7.5" x2="0.0" y2="0" style="stroke-width:5" /><line x1="85.5" y1="-7.5" x2="85.5" y2="0" style="stroke-width:5" /><line x1="142.5" y1="-7.5" x2="142.5" y2="0" style="stroke-width:5" /><line x1="213.75" y1="-7.5" x2="213.75" y2="0" style="stroke-width:5" /><line x1="0.0" y1="-7.5" x2="0.0" y2="0" style="stroke-width:5" /><line x1="285.0" y1="-7.5" x2="285.0" y2="0" style="stroke-width:5" /><line x1="320.625" y1="-7.5" x2="320.625" y2="0" style="stroke-width:5" /><line x1="0.0" y1="-7.5" x2="0.0" y2="0" style="stroke-width:5" /><line x1="427.5" y1="-7.5" x2="427.5" y2="0" style="stroke-width:5" /><line x1="463.125" y1="-7.5" x2="463.125" y2="0" style="stroke-width:5" /><line x1="570.0" y1="-7.5" x2="570.0" y2="0" style="stroke-width:5" /></g><g class="toyplot-coordinates-Axis-coordinates" style="visibility:hidden" transform=""><line x1="0" x2="0" y1="3.0" y2="-4.5" style="stroke:rgb(43.9%,50.2%,56.5%);stroke-opacity:1.0;stroke-width:1.0" /><text x="0" y="6" style="alignment-baseline:hanging;fill:rgb(43.9%,50.2%,56.5%);fill-opacity:1.0;font-size:10px;font-weight:normal;stroke:none;text-anchor:middle" /></g></g></g><g class="toyplot-mark-Text" id="t15ef857a118341729d2c1fffaec6cdef"><g class="toyplot-Series"><g class="toyplot-Datum" transform="translate(350.0,107.5)"><text x="-23.346" y="3.066" style="fill:rgb(16.1%,15.3%,14.1%);fill-opacity:1.0;font-family:helvetica;font-size:12.0px;font-weight:normal;opacity:1;stroke:none;vertical-align:baseline;white-space:pre">branch 2</text></g></g></g></svg>