<svg class="toyplot-canvas-Canvas" xmlns:toyplot="http://www.sandia.gov/toyplot" xmlns:xlink="http://www.w3.org/1999/xlink" xmlns="http://www.w3.org/2000/svg" width="700.0px" height="215.0px" viewBox="0 0 700.0 215.0" preserveAspectRatio="xMidYMid meet" style="background-color:transparent;border-color:#292724;border-style:none;border-width:1.0;fill:rgb(16.1%,15.3%,14.1%);fill-opacity:1.0;font-family:Helvetica;font-size:12px;opacity:1.0;stroke:rgb(16.1%,15.3%,14.1%);stroke-opacity:1.0;stroke-width:1.0" id="tb7195b8bd7e646ce8e3c49dfb8ab2fbe"><g class="toyplot-coordinates-Cartesian" id="ta68ac19678b84169b09f142fa52cb7b8"><clipPath id="t380da8acee46415c808b119b558f3285"><rect x="65.0" y="65.0" width="570.0" height="85.0" /></clipPath><g clip-path="url(#t380da8acee46415c808b119b558f3285)"><g class="toyplot-mark-FillBoundaries" style="stroke:none" id="te898a4fce8274a72a2fd1f5f1a2bf61a"><polygon points="136.25,150.0 137.49687500000002,150.0 138.74374999999998,150.0 139.990625,150.0 141.2375,150.0 142.484375,150.0 143.73125,150.0 144.978125,150.0 146.225,150.0 147.47187499999998,150.0 148.71875,150.0 149.965625,150.0 151.2125,150.0 152.459375,150.0 153.70625,150.0 154.953125,150.0 156.20000000000002,150.0 157.446875,150.0 158.69375,150.0 159.940625,150.0 161.1875,150.0 162.434375,150.0 163.68125,150.0 164.92812500000002,150.0 166.17499999999998,150.0 167.421875,150.0 168.66875000000002,150.0 169.91562499999998,150.0 171.1625,150.0 172.409375,150.0 173.65625,150.0 174.903125,150.0 176.15,150.0 177.396875,150.0 178.64374999999998,150.0 179.890625,150.0 181.1375,150.0 182.38437499999998,150.0 183.63125000000002,150.0 184.878125,150.0 186.125,150.0 187.371875,150.0 188.61875,150.0 189.865625,150.0 191.1125,150.0 192.359375,150.0 193.60625,150.0 194.85312499999998,150.0 196.10000000000002,150.0 197.346875,150.0 198.59375,150.0 199.840625,150.0 201.08749999999998,150.0 202.33437500000002,150.0 203.58125,150.0 204.828125,150.0 206.075,150.0 207.321875,150.0 208.56875000000002,150.0 209.815625,150.0 211.0625,150.0 212.309375,150.0 213.55624999999998,150.0 214.80312500000002,150.0 216.05,150.0 217.296875,150.0 218.54375,150.0 219.79062499999998,150.0 221.0375,150.0 222.284375,150.0 223.53125,150.0 224.77812500000002,150.0 226.02499999999998,150.0 227.271875,150.0 228.51875,150.0 229.765625,150.0 231.0125,150.0 232.259375,150.0 233.50625000000002,150.0 234.75312499999998,150.0 236.0,150.0 237.246875,150.0 238.49375,150.0 239.74062500000002,150.0 240.9875,150.0 242.234375,150.0 243.48125,150.0 244.72812499999998,150.0 245.97500000000002,150.0 247.221875,150.0 248.46875,150.0 249.715625,150.0 250.96249999999998,150.0 252.209375,150.0 253.45625,150.0 254.703125,150.0 255.95000000000002,150.0 257.196875,150.0 258.44374999999997,150.0 259.690625,150.0 260.9375,150.0 262.184375,150.0 263.43125000000003,150.0 264.678125,150.0 265.92499999999995,150.0 267.171875,150.0 268.41875,150.0 269.66562500000003,150.0 270.9125,150.0 272.159375,150.0 273.40625,150.0 274.653125,150.0 275.9,150.0 277.146875,150.0 278.39375,150.0 279.640625,150.0 280.8875,150.0 282.134375,150.0 283.38124999999997,150.0 284.628125,150.0 285.875,150.0 287.12187500000005,150.0 288.36875,150.0 289.61562499999997,150.0 290.8625,150.0 292.109375,150.0 293.35625,150.0 294.60312500000003,150.0 295.85,150.0 297.09687499999995,150.0 298.34375,150.0 299.59062500000005,150.0 300.8375,150.0 302.084375,150.0 303.33125,150.0 304.578125,150.0 305.825,150.0 307.071875,150.0 308.31875,150.0 309.565625,150.0 310.8125,150.0 312.059375,150.0 313.30625,150.0 314.553125,150.0 315.79999999999995,150.0 317.046875,150.0 318.29375000000005,150.0 319.540625,150.0 320.7875,150.0 322.03437499999995,150.0 323.28125,150.0 324.52812500000005,150.0 325.775,150.0 327.021875,150.0 328.26874999999995,150.0 329.515625,150.0 330.76250000000005,150.0 332.009375,150.0 333.25625,150.0 334.503125,150.0 335.75,150.0 336.996875,150.0 338.24375,150.0 339.490625,150.0 340.7375,150.0 341.984375,150.0 343.23125,150.0 344.478125,150.0 345.725,150.0 346.97187499999995,150.0 348.21875,150.0 349.46562500000005,150.0 350.7125,150.0 351.959375,150.0 353.20624999999995,150.0 354.453125,150.0 355.70000000000005,150.0 356.946875,150.0 358.19375,150.0 359.440625,150.0 360.6875,150.0 361.93437500000005,150.0 363.18125,150.0 364.42812499999997,150.0 365.67499999999995,150.0 366.921875,150.0 368.16875,150.0 369.415625,150.0 370.6625,150.0 371.909375,150.0 373.15625,150.0 374.40312500000005,150.0 375.65000000000003,150.0 376.896875,150.0 378.14374999999995,150.0 379.390625,150.0 380.6375,150.0 381.884375,150.0 383.13125,150.0 384.37812499999995,150.0 384.37812499999995,107.68234531322896 383.13125,108.3975829234244 381.884375,109.07623922043993 380.6375,109.72018518037487 379.390625,110.33119608698556 378.14374999999995,110.91095642593537 376.896875,111.46106452872462 375.65000000000003,111.98303697910404 374.40312500000005,112.47831279411864 373.15625,112.94825739130967 371.909375,113.39416635301119 370.6625,113.81726899811919 369.415625,114.21873177118006 368.16875,114.59966145814191 366.921875,114.9611082376341 365.67499999999995,115.30406857618696 364.42812499999997,115.62948797537362 363.18125,115.93826357844725 361.93437500000005,116.23124664366027 360.6875,116.50924489108382 359.440625,116.7730247293976 358.19375,117.02331336878905 356.946875,117.26080082578677 355.70000000000005,117.48614182555562 354.453125,117.69995760689736 353.20624999999995,117.90283763493335 351.959375,118.09534122619124 350.7125,118.27799909057504 349.46562500000005,118.84893737506681 348.21875,119.92036520718585 346.97187499999995,120.9549417250091 345.725,121.95393441415216 344.478125,122.91856716559037 343.23125,123.85002177507859 341.984375,124.74943939099845 340.7375,125.61792191240815 339.490625,126.45653333900637 338.24375,127.26630107466511 336.996875,128.04821718612783 335.75,128.80323961841526 334.503125,129.53229336842796 333.25625,130.23627161818314 332.009375,130.91603682907424 330.76250000000005,131.57242179849416 329.515625,132.2062306801161 328.26874999999995,132.81823996908238 327.021875,133.4091994533082 325.775,133.9798331320654 324.52812500000005,134.53084010297232 323.28125,135.06289541847573 322.03437499999995,135.57665091287447 320.7875,136.07273600089798 319.540625,136.55175844881805 318.29375000000005,137.01430511903865 317.046875,137.46094268907558 315.79999999999995,137.89221834580732 314.553125,138.30866045584756 313.30625,138.71077921286013 312.059375,139.09906726261022 310.8125,139.47400030651704 309.565625,139.83603768444735 308.31875,140.1856229374646 307.071875,140.52318435122177 305.825,140.84913548066527 304.578125,141.1638756566912 303.33125,141.4677904753757 302.084375,141.76125227037838 300.8375,142.04462056909762 299.59062500000005,142.3182425331366 298.34375,142.5824533836197 297.09687499999995,142.83757681188024 295.85,143.08392537602273 294.60312500000003,143.32180088384607 293.35625,143.55149476259524 292.109375,143.7732884159967 290.8625,143.98745356901267 289.61562499999997,144.19425260073854 288.36875,144.39393886584986 287.12187500000005,144.5867570049936 285.875,144.77294324450347 284.628125,144.95272568580683 283.38124999999997,145.1263245848774 282.134375,145.29395262207626 280.8875,145.45581516271216 279.640625,145.61211050863932 278.39375,144.94050536070674 277.146875,142.30102150897673 275.9,139.79653585090566 274.653125,137.42014381222256 273.40625,135.16529395779557 272.159375,133.02576993009046 270.9125,130.99567331139974 269.66562500000003,129.0694073625943 268.41875,127.24166159356758 267.171875,125.50739712283519 265.92499999999995,123.86183278592716 264.678125,122.30043195427663 263.43125000000003,120.81889002826492 262.184375,119.41312256994337 260.9375,118.07925404271535 259.690625,116.8136071269347 258.44374999999997,115.61269258196526 257.196875,114.47319962675226 255.95000000000002,113.39198681238581 254.703125,112.36607336149325 253.45625,111.39263095058458 252.209375,110.46897591269492 250.96249999999998,109.59256183882835 249.715625,108.76097255780593 248.46875,107.97191547516412 247.221875,107.22321525273978 245.97500000000002,106.51280781151698 244.72812499999998,105.83873464120252 243.48125,105.1991374008419 242.234375,104.59225279559034 240.9875,104.01640771551514 239.74062500000002,103.47001462302708 238.49375,102.95156717622473 237.246875,102.45963607608599 236.0,101.9928651260576 234.75312499999998,101.54996749317985 233.50625000000002,101.12972216043839 232.259375,100.73097056056315 231.0125,100.35261338199359 229.765625,99.9936075382054 228.51875,99.65296329204267 227.271875,99.32974152712839 226.02499999999998,99.02305115883019 224.77812500000002,98.73204667764425 223.53125,98.45592581822436 222.284375,98.19392734763017 221.0375,97.94532896669685 219.79062499999998,97.70944531874076 218.54375,97.48562610011126 217.296875,97.27325426737933 216.05,97.07174433622109 214.80312500000002,96.88054076730592 213.55624999999998,96.6991164347395 212.309375,96.52697117283915 211.0625,96.36363039723574 209.815625,96.20864379649984 208.56875000000002,96.06158409068584 207.321875,95.99918227591374 206.075,96.39474811423128 204.828125,96.77670863019716 203.58125,97.14553177321037 202.33437500000002,97.50166939774505 201.08749999999998,97.84555781692885 199.840625,98.17761833708096 198.59375,98.49825777386516 197.346875,98.80786895068975 196.10000000000002,99.10683117996547 194.85312499999998,99.39551072781052 193.60625,99.67426126277249 192.359375,99.94342428911648 191.1125,100.2033295652105 189.865625,100.45429550752081 188.61875,100.69662958071183 187.371875,100.93062867432883 186.125,101.15657946652476 184.878125,101.37475877527685 183.63125000000002,101.58543389752319 182.38437499999998,101.78886293663498 181.1375,101.98529511862542 179.890625,102.17497109748267 178.64374999999998,102.35812325000117 177.396875,102.53497596047228 176.15,102.70574589558302 174.903125,102.8706422698599 173.65625,103.02986710198287 172.409375,103.18361546228354 171.1625,103.33207571173055 169.91562499999998,103.47542973269557 168.66875000000002,103.61385315178168 167.421875,103.74751555498813 166.17499999999998,103.87658069547426 164.92812500000002,104.00120669417774 163.68125,104.12154623353229 162.434375,104.23774674452301 161.1875,104.34995058730752 159.940625,104.45829522562519 158.69375,104.56291339520718 157.446875,104.66393326639451 156.20000000000002,104.76147860116262 154.953125,104.85566890474539 153.70625,104.94661957204383 152.459375,105.03444202899948 151.2125,105.11924386910488 149.965625,105.20112898521926 148.71875,105.28019769685018 147.47187499999998,105.35654687305751 146.225,105.43027005113012 144.978125,105.50145755118075 143.73125,105.57019658679948 142.484375,105.63657137190124 141.2375,105.70066322389843 139.990625,105.7625506633249 138.74374999999998,105.8223095100334 137.49687500000002,105.88001297608444 136.25,105.93573175544016" style="fill:rgb(40%,76.1%,64.7%);fill-opacity:1.0;opacity:0.7;stroke:none" /></g></g><g class="toyplot-coordinates-Axis" id="t5a32b7fceec847768bfea78380faa6c6" transform="translate(65.0,150.0)"><line x1="0" y1="0" x2="570.0" y2="0" style="stroke-width:5" /><g class="toyplot-coordinates-Axis-coordinates" style="visibility:hidden" transform=""><line x1="0" x2="0" y1="-3.0" y2="4.5" style="stroke:rgb(43.9%,50.2%,56.5%);stroke-opacity:1.0;stroke-width:1.0" /><text x="0" y="-6" style="alignment-baseline:alphabetic;fill:rgb(43.9%,50.2%,56.5%);fill-opacity:1.0;font-size:10px;font-weight:normal;stroke:none;text-anchor:middle" /></g></g><g class="toyplot-coordinates-Axis" id="t5d1013e74a664ddfb6ce8ce2997f4206" transform="translate(65.0,150.0)rotate(-90.0)"><line x1="0" y1="0" x2="85.0" y2="0" style="stroke-width:5" /><g><line x1="0.0" y1="-7.5" x2="0.0" y2="0" style="stroke-width:5" /><line x1="42.5" y1="-7.5" x2="42.5" y2="0" style="stroke-width:5" /><line x1="85.0" y1="-7.5" x2="85.0" y2="0" style="stroke-width:5" /></g><g><g transform="translate(0.0,-6)"><text x="-6.95" y="-4.440892098500626e-16" style="fill:rgb(16.1%,15.3%,14.1%);fill-opacity:1.0;font-family:helvetica;font-size:10.0px;font-weight:normal;stroke:none;vertical-align:baseline;white-space:pre">0.0</text></g><g transform="translate(42.5,-6)"><text x="-6.95" y="-4.440892098500626e-16" style="fill:rgb(16.1%,15.3%,14.1%);fill-opacity:1.0;font-family:helvetica;font-size:10.0px;font-weight:normal;stroke:none;vertical-align:baseline;white-space:pre">0.5</text></g><g transform="translate(85.0,-6)"><text x="-6.95" y="-4.440892098500626e-16" style="fill:rgb(16.1%,15.3%,14.1%);fill-opacity:1.0;font-family:helvetica;font-size:10.0px;font-weight:normal;stroke:none;vertical-align:baseline;white-space:pre">1.0</text></g></g><g transform="translate(42.5,-35.0)"><text x="-31.008" y="0.0" style="fill:rgb(16.1%,15.3%,14.1%);fill-opacity:1.0;font-family:helvetica;font-size:12.0px;font-weight:bold;stroke:none;vertical-align:baseline;white-space:pre">Probability</text></g><g class="toyplot-coordinates-Axis-coordinates" style="visibility:hidden" transform=""><line x1="0" x2="0" y1="3.0" y2="-4.5" style="stroke:rgb(43.9%,50.2%,56.5%);stroke-opacity:1.0;stroke-width:1.0" /><text x="0" y="6" style="alignment-baseline:hanging;fill:rgb(43.9%,50.2%,56.5%);fill-opacity:1.0;font-size:10px;font-weight:normal;stroke:none;text-anchor:middle" /></g></g></g><g class="toyplot-coordinates-Cartesian" id="ta0926678e3c84f918b14888c82edf1bc"><clipPath id="t9f679670afee47ecb8c0663a8ff0fca2"><rect x="65.0" y="65.0" width="570.0" height="85.0" /></clipPath><g clip-path="url(#t9f679670afee47ecb8c0663a8ff0fca2)" /><g class="toyplot-coordinates-Axis" id="t585838a718e34bcbb8a07c143c631f7e" transform="translate(65.0,65.0)"><line x1="0" y1="0" x2="570.0" y2="0" style="stroke-width:5" /><g><line x1="0.0" y1="-7.5" x2="0.0" y2="0" style="stroke-width:5" /><line x1="71.25" y1="-7.5" x2="71.25" y2="0" style="stroke-width:5" /><line x1="0.0" y1="-7.5" x2="0.0" y2="0" style="stroke-width:5" /><line x1="85.5" y1="-7.5" x2="85.5" y2="0" style="stroke-width:5" /><line x1="142.5" y1="-7.5" x2="142.5" y2="0" style="stroke-width:5" /><line x1="213.75" y1="-7.5" x2="213.75" y2="0" style="stroke-width:5" /><line x1="0.0" y1="-7.5" x2="0.0" y2="0" style="stroke-width:5" /><line x1="285.0" y1="-7.5" x2="285.0" y2="0" style="stroke-width:5" /><line x1="320.625" y1="-7.5" x2="320.625" y2="0" style="stroke-width:5" /><line x1="0.0" y1="-7.5" x2="0.0" y2="0" style="stroke-width:5" /><line x1="427.5" y1="-7.5" x2="427.5" y2="0" style="stroke-width:5" /><line x1="463.125" y1="-7.5" x2="463.125" y2="0" style="stroke-width:5" /><line x1="570.0" y1="-7.5" x2="570.0" y2="0" style="stroke-width:5" /></g><g class="toyplot-coordinates-Axis-coordinates" style="visibility:hidden" transform=""><line x1="0" x2="0" y1="3.0" y2="-4.5" style="stroke:rgb(43.9%,50.2%,56.5%);stroke-opacity:1.0;stroke-width:1.0" /><text x="0" y="6" style="alignment-baseline:hanging;fill:rgb(43.9%,50.2%,56.5%);fill-opacity:1.0;font-size:10px;font-weight:normal;stroke:none;text-anchor:middle" /></g></g></g><g class="toyplot-mark-Text" id="tc7672265fb1d4278859e85771bae14a7"><g class="toyplot-Series"><g class="toyplot-Datum" transform="translate(350.0,107.5)"><text x="-23.346" y="3.066" style="fill:rgb(16.1%,15.3%,14.1%);fill-opacity:1.0;font-family:helvetica;font-size:12.0px;font-weight:normal;opacity:1;stroke:none;vertical-align:baseline;white-space:pre">branch 7</text></g></g></g></svg>