<?xml version="1.0" encoding="utf-8" standalone="no"?>
<!DOCTYPE svg PUBLIC "-//W3C//DTD SVG 1.1//EN"
  "http://www.w3.org/Graphics/SVG/1.1/DTD/svg11.dtd">
<svg xmlns:xlink="http://www.w3.org/1999/xlink" width="288pt" height="216pt" viewBox="0 0 288 216" xmlns="http://www.w3.org/2000/svg" version="1.1">
 <metadata>
  <rdf:RDF xmlns:dc="http://purl.org/dc/elements/1.1/" xmlns:cc="http://creativecommons.org/ns#" xmlns:rdf="http://www.w3.org/1999/02/22-rdf-syntax-ns#">
   <cc:Work>
    <dc:type rdf:resource="http://purl.org/dc/dcmitype/StillImage"/>
    <dc:date>2023-07-18T17:18:29.542965</dc:date>
    <dc:format>image/svg+xml</dc:format>
    <dc:creator>
     <cc:Agent>
      <dc:title>Matplotlib v3.7.1, https://matplotlib.org/</dc:title>
     </cc:Agent>
    </dc:creator>
   </cc:Work>
  </rdf:RDF>
 </metadata>
 <defs>
  <style type="text/css">*{stroke-linejoin: round; stroke-linecap: butt}</style>
 </defs>
 <g id="figure_1">
  <g id="patch_1">
   <path d="M 0 216 
L 288 216 
L 288 0 
L 0 0 
z
" style="fill: #ffffff"/>
  </g>
  <g id="axes_1">
   <g id="patch_2">
    <path d="M 36 192.24 
L 214.56 192.24 
L 214.56 25.92 
L 36 25.92 
z
" style="fill: #ffffff"/>
   </g>
   <g id="PathCollection_1">
    <path d="M 36.572285 192.24 
L 36 192.24 
L 36 191.898508 
z
" clip-path="url(#pef5bdccba2)" style="fill: #440154"/>
   </g>
   <g id="PathCollection_2">
    <path d="M 37.605325 192.24 
L 36.572285 192.24 
L 36 191.898508 
L 36 191.282076 
z
" clip-path="url(#pef5bdccba2)" style="fill: #440154"/>
   </g>
   <g id="PathCollection_3">
    <path d="M 38.638365 192.24 
L 37.605325 192.24 
L 36 191.282076 
L 36 190.665644 
z
" clip-path="url(#pef5bdccba2)" style="fill: #440154"/>
   </g>
   <g id="PathCollection_4">
    <path d="M 39.671405 192.24 
L 38.638365 192.24 
L 36 190.665644 
L 36 190.049211 
z
" clip-path="url(#pef5bdccba2)" style="fill: #440154"/>
   </g>
   <g id="PathCollection_5">
    <path d="M 40.704446 192.24 
L 39.671405 192.24 
L 36 190.049211 
L 36 189.432779 
z
" clip-path="url(#pef5bdccba2)" style="fill: #440154"/>
   </g>
   <g id="PathCollection_6">
    <path d="M 41.737486 192.24 
L 40.704446 192.24 
L 36 189.432779 
L 36 188.816347 
z
" clip-path="url(#pef5bdccba2)" style="fill: #440154"/>
   </g>
   <g id="PathCollection_7">
    <path d="M 41.952 191.751563 
L 44.213381 192.24 
L 41.952 192.24 
L 41.737486 192.24 
L 36 188.816347 
L 36 188.199915 
z
" clip-path="url(#pef5bdccba2)" style="fill: #440154"/>
    <path d="M 172.896 192.239956 
L 178.848 192.1504 
L 184.8 192.062969 
L 190.752 191.977598 
L 196.704 191.89422 
L 202.656 191.812767 
L 208.608 191.733172 
L 214.56 191.655368 
L 214.56 192.24 
L 208.608 192.24 
L 202.656 192.24 
L 196.704 192.24 
L 190.752 192.24 
L 184.8 192.24 
L 178.848 192.24 
L 172.896 192.24 
L 172.893135 192.24 
z
" clip-path="url(#pef5bdccba2)" style="fill: #440154"/>
   </g>
   <g id="PathCollection_8">
    <path d="M 41.952 191.135119 
L 47.06741 192.24 
L 44.213381 192.24 
L 41.952 191.751563 
L 36 188.199915 
L 36 187.583483 
z
" clip-path="url(#pef5bdccba2)" style="fill: #440154"/>
    <path d="M 137.184 192.207838 
L 143.136 192.104771 
L 149.088 192.003943 
L 155.04 191.905401 
L 160.992 191.809153 
L 166.944 191.715178 
L 172.896 191.623438 
L 178.848 191.533882 
L 184.8 191.44645 
L 190.752 191.361078 
L 196.704 191.277699 
L 202.656 191.196246 
L 208.608 191.11665 
L 214.56 191.038845 
L 214.56 191.655368 
L 208.608 191.733172 
L 202.656 191.812767 
L 196.704 191.89422 
L 190.752 191.977598 
L 184.8 192.062969 
L 178.848 192.1504 
L 172.896 192.239956 
L 172.893135 192.24 
L 166.944 192.24 
L 160.992 192.24 
L 155.04 192.24 
L 149.088 192.24 
L 143.136 192.24 
L 137.184 192.24 
L 135.364335 192.24 
z
" clip-path="url(#pef5bdccba2)" style="fill: #440154"/>
   </g>
   <g id="PathCollection_9">
    <path d="M 41.952 190.518675 
L 47.904 191.804244 
L 52.629249 192.24 
L 47.904 192.24 
L 47.06741 192.24 
L 41.952 191.135119 
L 36 187.583483 
L 36 186.967051 
z
" clip-path="url(#pef5bdccba2)" style="fill: #440154"/>
    <path d="M 107.424 192.132707 
L 113.376 192.022384 
L 119.328 191.912456 
L 125.28 191.803675 
L 131.232 191.696528 
L 137.184 191.591326 
L 143.136 191.488258 
L 149.088 191.387429 
L 155.04 191.288886 
L 160.992 191.192637 
L 166.944 191.098661 
L 172.896 191.00692 
L 178.848 190.917363 
L 184.8 190.82993 
L 190.752 190.744557 
L 196.704 190.661178 
L 202.656 190.579724 
L 208.608 190.500128 
L 214.56 190.422322 
L 214.56 191.038845 
L 208.608 191.11665 
L 202.656 191.196246 
L 196.704 191.277699 
L 190.752 191.361078 
L 184.8 191.44645 
L 178.848 191.533882 
L 172.896 191.623438 
L 166.944 191.715178 
L 160.992 191.809153 
L 155.04 191.905401 
L 149.088 192.003943 
L 143.136 192.104771 
L 137.184 192.207838 
L 135.364335 192.24 
L 131.232 192.24 
L 125.28 192.24 
L 119.328 192.24 
L 113.376 192.24 
L 107.424 192.24 
L 101.595805 192.24 
z
" clip-path="url(#pef5bdccba2)" style="fill: #440154"/>
   </g>
   <g id="PathCollection_10">
    <path d="M 36 186.696 
L 36 185.841196 
L 36.578821 186.696 
L 41.952 189.902231 
L 47.904 191.18779 
L 53.856 191.736668 
L 59.808 191.972194 
L 65.76 192.053505 
L 71.712 192.051919 
L 77.664 192.003282 
L 83.616 191.92712 
L 89.568 191.834708 
L 95.52 191.732848 
L 101.472 191.625779 
L 107.424 191.516205 
L 113.376 191.405879 
L 119.328 191.295949 
L 125.28 191.187166 
L 131.232 191.080018 
L 137.184 190.974815 
L 143.136 190.871746 
L 149.088 190.770915 
L 155.04 190.672371 
L 160.992 190.57612 
L 166.944 190.482144 
L 172.896 190.390402 
L 178.848 190.300844 
L 184.8 190.21341 
L 190.752 190.128037 
L 196.704 190.044657 
L 202.656 189.963202 
L 208.608 189.883605 
L 214.56 189.805799 
L 214.56 190.422322 
L 208.608 190.500128 
L 202.656 190.579724 
L 196.704 190.661178 
L 190.752 190.744557 
L 184.8 190.82993 
L 178.848 190.917363 
L 172.896 191.00692 
L 166.944 191.098661 
L 160.992 191.192637 
L 155.04 191.288886 
L 149.088 191.387429 
L 143.136 191.488258 
L 137.184 191.591326 
L 131.232 191.696528 
L 125.28 191.803675 
L 119.328 191.912456 
L 113.376 192.022384 
L 107.424 192.132707 
L 101.595805 192.24 
L 101.472 192.24 
L 95.52 192.24 
L 89.568 192.24 
L 83.616 192.24 
L 77.664 192.24 
L 71.712 192.24 
L 65.76 192.24 
L 59.808 192.24 
L 53.856 192.24 
L 52.629249 192.24 
L 47.904 191.804244 
L 41.952 190.518675 
L 36 186.967051 
z
" clip-path="url(#pef5bdccba2)" style="fill: #440154"/>
   </g>
   <g id="PathCollection_11">
    <path d="M 36.578821 186.696 
L 36 185.841196 
L 36 184.315555 
L 37.611892 186.696 
L 41.952 189.285787 
L 47.904 190.571336 
L 53.856 191.120204 
L 59.808 191.355724 
L 65.76 191.437028 
L 71.712 191.435436 
L 77.664 191.386795 
L 83.616 191.310629 
L 89.568 191.218214 
L 95.52 191.116351 
L 101.472 191.009279 
L 107.424 190.899703 
L 113.376 190.789375 
L 119.328 190.679443 
L 125.28 190.570658 
L 131.232 190.463508 
L 137.184 190.358304 
L 143.136 190.255233 
L 149.088 190.154401 
L 155.04 190.055856 
L 160.992 189.959604 
L 166.944 189.865627 
L 172.896 189.773884 
L 178.848 189.684325 
L 184.8 189.596891 
L 190.752 189.511517 
L 196.704 189.428136 
L 202.656 189.346681 
L 208.608 189.267083 
L 214.56 189.189276 
L 214.56 189.805799 
L 208.608 189.883605 
L 202.656 189.963202 
L 196.704 190.044657 
L 190.752 190.128037 
L 184.8 190.21341 
L 178.848 190.300844 
L 172.896 190.390402 
L 166.944 190.482144 
L 160.992 190.57612 
L 155.04 190.672371 
L 149.088 190.770915 
L 143.136 190.871746 
L 137.184 190.974815 
L 131.232 191.080018 
L 125.28 191.187166 
L 119.328 191.295949 
L 113.376 191.405879 
L 107.424 191.516205 
L 101.472 191.625779 
L 95.52 191.732848 
L 89.568 191.834708 
L 83.616 191.92712 
L 77.664 192.003282 
L 71.712 192.051919 
L 65.76 192.053505 
L 59.808 191.972194 
L 53.856 191.736668 
L 47.904 191.18779 
L 41.952 189.902231 
z
" clip-path="url(#pef5bdccba2)" style="fill: #440154"/>
   </g>
   <g id="PathCollection_12">
    <path d="M 37.611892 186.696 
L 36 184.315555 
L 36 182.789913 
L 38.644963 186.696 
L 41.952 188.669343 
L 47.904 189.954881 
L 53.856 190.503741 
L 59.808 190.739253 
L 65.76 190.820552 
L 71.712 190.818954 
L 77.664 190.770308 
L 83.616 190.694138 
L 89.568 190.601719 
L 95.52 190.499854 
L 101.472 190.392779 
L 107.424 190.2832 
L 113.376 190.17287 
L 119.328 190.062936 
L 125.28 189.95415 
L 131.232 189.846999 
L 137.184 189.741793 
L 143.136 189.63872 
L 149.088 189.537887 
L 155.04 189.439341 
L 160.992 189.343088 
L 166.944 189.24911 
L 172.896 189.157366 
L 178.848 189.067806 
L 184.8 188.980371 
L 190.752 188.894996 
L 196.704 188.811615 
L 202.656 188.730159 
L 208.608 188.650561 
L 214.56 188.572753 
L 214.56 189.189276 
L 208.608 189.267083 
L 202.656 189.346681 
L 196.704 189.428136 
L 190.752 189.511517 
L 184.8 189.596891 
L 178.848 189.684325 
L 172.896 189.773884 
L 166.944 189.865627 
L 160.992 189.959604 
L 155.04 190.055856 
L 149.088 190.154401 
L 143.136 190.255233 
L 137.184 190.358304 
L 131.232 190.463508 
L 125.28 190.570658 
L 119.328 190.679443 
L 113.376 190.789375 
L 107.424 190.899703 
L 101.472 191.009279 
L 95.52 191.116351 
L 89.568 191.218214 
L 83.616 191.310629 
L 77.664 191.386795 
L 71.712 191.435436 
L 65.76 191.437028 
L 59.808 191.355724 
L 53.856 191.120204 
L 47.904 190.571336 
L 41.952 189.285787 
z
" clip-path="url(#pef5bdccba2)" style="fill: #440154"/>
   </g>
   <g id="PathCollection_13">
    <path d="M 38.644963 186.696 
L 36 182.789913 
L 36 181.264272 
L 39.678034 186.696 
L 41.952 188.052899 
L 47.904 189.338427 
L 53.856 189.887278 
L 59.808 190.122782 
L 65.76 190.204075 
L 71.712 190.202472 
L 77.664 190.153821 
L 83.616 190.077647 
L 89.568 189.985225 
L 95.52 189.883356 
L 101.472 189.776279 
L 107.424 189.666698 
L 113.376 189.556366 
L 119.328 189.44643 
L 125.28 189.337642 
L 131.232 189.230489 
L 137.184 189.125281 
L 143.136 189.022208 
L 149.088 188.921374 
L 155.04 188.822826 
L 160.992 188.726572 
L 166.944 188.632593 
L 172.896 188.540848 
L 178.848 188.451287 
L 184.8 188.363852 
L 190.752 188.278476 
L 196.704 188.195094 
L 202.656 188.113637 
L 208.608 188.034038 
L 214.56 187.95623 
L 214.56 188.572753 
L 208.608 188.650561 
L 202.656 188.730159 
L 196.704 188.811615 
L 190.752 188.894996 
L 184.8 188.980371 
L 178.848 189.067806 
L 172.896 189.157366 
L 166.944 189.24911 
L 160.992 189.343088 
L 155.04 189.439341 
L 149.088 189.537887 
L 143.136 189.63872 
L 137.184 189.741793 
L 131.232 189.846999 
L 125.28 189.95415 
L 119.328 190.062936 
L 113.376 190.17287 
L 107.424 190.2832 
L 101.472 190.392779 
L 95.52 190.499854 
L 89.568 190.601719 
L 83.616 190.694138 
L 77.664 190.770308 
L 71.712 190.818954 
L 65.76 190.820552 
L 59.808 190.739253 
L 53.856 190.503741 
L 47.904 189.954881 
L 41.952 188.669343 
z
" clip-path="url(#pef5bdccba2)" style="fill: #440154"/>
   </g>
   <g id="PathCollection_14">
    <path d="M 39.678034 186.696 
L 36 181.264272 
L 36 181.152 
L 36 178.330019 
L 36.957073 181.152 
L 40.711105 186.696 
L 41.952 187.436455 
L 47.904 188.721972 
L 53.856 189.270815 
L 59.808 189.506312 
L 65.76 189.587598 
L 71.712 189.58599 
L 77.664 189.537335 
L 83.616 189.461157 
L 89.568 189.368731 
L 95.52 189.266859 
L 101.472 189.159779 
L 107.424 189.050195 
L 113.376 188.939861 
L 119.328 188.829923 
L 125.28 188.721133 
L 131.232 188.613979 
L 137.184 188.50877 
L 143.136 188.405695 
L 149.088 188.30486 
L 155.04 188.206311 
L 160.992 188.110056 
L 166.944 188.016075 
L 172.896 187.92433 
L 178.848 187.834769 
L 184.8 187.747332 
L 190.752 187.661956 
L 196.704 187.578573 
L 202.656 187.497115 
L 208.608 187.417516 
L 214.56 187.339708 
L 214.56 187.95623 
L 208.608 188.034038 
L 202.656 188.113637 
L 196.704 188.195094 
L 190.752 188.278476 
L 184.8 188.363852 
L 178.848 188.451287 
L 172.896 188.540848 
L 166.944 188.632593 
L 160.992 188.726572 
L 155.04 188.822826 
L 149.088 188.921374 
L 143.136 189.022208 
L 137.184 189.125281 
L 131.232 189.230489 
L 125.28 189.337642 
L 119.328 189.44643 
L 113.376 189.556366 
L 107.424 189.666698 
L 101.472 189.776279 
L 95.52 189.883356 
L 89.568 189.985225 
L 83.616 190.077647 
L 77.664 190.153821 
L 71.712 190.202472 
L 65.76 190.204075 
L 59.808 190.122782 
L 53.856 189.887278 
L 47.904 189.338427 
L 41.952 188.052899 
z
" clip-path="url(#pef5bdccba2)" style="fill: #440154"/>
   </g>
   <g id="PathCollection_15">
    <path d="M 40.711105 186.696 
L 36.957073 181.152 
L 36 178.330019 
L 36 175.608 
L 36 175.025342 
L 36.10993 175.608 
L 37.990172 181.152 
L 41.744176 186.696 
L 41.952 186.820011 
L 47.904 188.105518 
L 53.856 188.654352 
L 59.808 188.889841 
L 65.76 188.971121 
L 71.712 188.969508 
L 77.664 188.920848 
L 83.616 188.844666 
L 89.568 188.752237 
L 95.52 188.650362 
L 101.472 188.543279 
L 107.424 188.433693 
L 113.376 188.323357 
L 119.328 188.213417 
L 125.28 188.104625 
L 131.232 187.997469 
L 137.184 187.892259 
L 143.136 187.789182 
L 149.088 187.688346 
L 155.04 187.589796 
L 160.992 187.49354 
L 166.944 187.399558 
L 172.896 187.307812 
L 178.848 187.21825 
L 184.8 187.130812 
L 190.752 187.045435 
L 196.704 186.962052 
L 202.656 186.880594 
L 208.608 186.800994 
L 214.56 186.723185 
L 214.56 187.339708 
L 208.608 187.417516 
L 202.656 187.497115 
L 196.704 187.578573 
L 190.752 187.661956 
L 184.8 187.747332 
L 178.848 187.834769 
L 172.896 187.92433 
L 166.944 188.016075 
L 160.992 188.110056 
L 155.04 188.206311 
L 149.088 188.30486 
L 143.136 188.405695 
L 137.184 188.50877 
L 131.232 188.613979 
L 125.28 188.721133 
L 119.328 188.829923 
L 113.376 188.939861 
L 107.424 189.050195 
L 101.472 189.159779 
L 95.52 189.266859 
L 89.568 189.368731 
L 83.616 189.461157 
L 77.664 189.537335 
L 71.712 189.58599 
L 65.76 189.587598 
L 59.808 189.506312 
L 53.856 189.270815 
L 47.904 188.721972 
L 41.952 187.436455 
z
" clip-path="url(#pef5bdccba2)" style="fill: #481c6e"/>
   </g>
   <g id="PathCollection_16">
    <path d="M 41.744176 186.696 
L 37.990172 181.152 
L 36.10993 175.608 
L 36 175.025342 
L 36 170.064 
L 36 169.1861 
L 36.097069 170.064 
L 37.143053 175.608 
L 39.023271 181.152 
L 41.952 185.477222 
L 44.232047 186.696 
L 47.904 187.489064 
L 53.856 188.037888 
L 59.808 188.273371 
L 65.76 188.354644 
L 71.712 188.353025 
L 77.664 188.304361 
L 83.616 188.228175 
L 89.568 188.135742 
L 95.52 188.033864 
L 101.472 187.926779 
L 107.424 187.817191 
L 113.376 187.706852 
L 119.328 187.59691 
L 125.28 187.488117 
L 131.232 187.380959 
L 137.184 187.275747 
L 143.136 187.17267 
L 149.088 187.071832 
L 155.04 186.973281 
L 160.992 186.877024 
L 166.944 186.783041 
L 172.590713 186.696 
L 172.896 186.684351 
L 178.848 186.462647 
L 184.8 186.246201 
L 190.752 186.034855 
L 196.704 185.828443 
L 202.656 185.626798 
L 208.608 185.429752 
L 214.56 185.237139 
L 214.56 186.696 
L 214.56 186.723185 
L 208.608 186.800994 
L 202.656 186.880594 
L 196.704 186.962052 
L 190.752 187.045435 
L 184.8 187.130812 
L 178.848 187.21825 
L 172.896 187.307812 
L 166.944 187.399558 
L 160.992 187.49354 
L 155.04 187.589796 
L 149.088 187.688346 
L 143.136 187.789182 
L 137.184 187.892259 
L 131.232 187.997469 
L 125.28 188.104625 
L 119.328 188.213417 
L 113.376 188.323357 
L 107.424 188.433693 
L 101.472 188.543279 
L 95.52 188.650362 
L 89.568 188.752237 
L 83.616 188.844666 
L 77.664 188.920848 
L 71.712 188.969508 
L 65.76 188.971121 
L 59.808 188.889841 
L 53.856 188.654352 
L 47.904 188.105518 
L 41.952 186.820011 
z
" clip-path="url(#pef5bdccba2)" style="fill: #463480"/>
    <path d="M 36 48.096 
L 36 42.552 
L 36 37.008 
L 36 31.464 
L 36 25.92 
L 36.467686 25.92 
L 36.375987 31.464 
L 36.283037 37.008 
L 36.188876 42.552 
L 36.093564 48.096 
L 36 53.478072 
z
" clip-path="url(#pef5bdccba2)" style="fill: #463480"/>
   </g>
   <g id="PathCollection_17">
    <path d="M 39.023271 181.152 
L 37.143053 175.608 
L 36.097069 170.064 
L 36 169.1861 
L 36 164.52 
L 36 158.976 
L 36 155.019784 
L 36.152136 158.976 
L 36.517224 164.52 
L 37.130213 170.064 
L 38.176176 175.608 
L 40.05637 181.152 
L 41.952 183.951515 
L 47.086284 186.696 
L 47.904 186.872609 
L 53.856 187.421425 
L 59.808 187.6569 
L 65.76 187.738167 
L 71.712 187.736543 
L 77.664 187.687874 
L 83.616 187.611684 
L 89.568 187.519248 
L 95.52 187.417367 
L 101.472 187.310279 
L 107.424 187.200688 
L 113.376 187.090347 
L 119.328 186.980404 
L 125.28 186.871609 
L 131.232 186.764449 
L 135.104232 186.696 
L 137.184 186.604996 
L 143.136 186.349837 
L 149.088 186.100222 
L 155.04 185.856266 
L 160.992 185.617989 
L 166.944 185.38534 
L 172.896 185.158225 
L 178.848 184.936515 
L 184.8 184.720065 
L 190.752 184.508715 
L 196.704 184.302299 
L 202.656 184.10065 
L 208.608 183.9036 
L 214.56 183.710984 
L 214.56 185.237139 
L 208.608 185.429752 
L 202.656 185.626798 
L 196.704 185.828443 
L 190.752 186.034855 
L 184.8 186.246201 
L 178.848 186.462647 
L 172.896 186.684351 
L 172.590713 186.696 
L 166.944 186.783041 
L 160.992 186.877024 
L 155.04 186.973281 
L 149.088 187.071832 
L 143.136 187.17267 
L 137.184 187.275747 
L 131.232 187.380959 
L 125.28 187.488117 
L 119.328 187.59691 
L 113.376 187.706852 
L 107.424 187.817191 
L 101.472 187.926779 
L 95.52 188.033864 
L 89.568 188.135742 
L 83.616 188.228175 
L 77.664 188.304361 
L 71.712 188.353025 
L 65.76 188.354644 
L 59.808 188.273371 
L 53.856 188.037888 
L 47.904 187.489064 
L 44.232047 186.696 
L 41.952 185.477222 
z
" clip-path="url(#pef5bdccba2)" style="fill: #3e4a89"/>
    <path d="M 36 109.08 
L 36 103.536 
L 36 97.992 
L 36 92.448 
L 36 86.904 
L 36 81.36 
L 36 75.816 
L 36 70.272 
L 36 64.728 
L 36 59.184 
L 36 53.64 
L 36 53.478072 
L 36.093564 48.096 
L 36.188876 42.552 
L 36.283037 37.008 
L 36.375987 31.464 
L 36.467686 25.92 
L 37.500993 25.92 
L 37.409292 31.464 
L 37.316339 37.008 
L 37.222176 42.552 
L 37.126863 48.096 
L 37.030481 53.64 
L 36.933143 59.184 
L 36.834999 64.728 
L 36.736246 70.272 
L 36.637142 75.816 
L 36.538027 81.36 
L 36.43934 86.904 
L 36.341657 92.448 
L 36.24573 97.992 
L 36.152551 103.536 
L 36.063431 109.08 
L 36 113.301196 
z
" clip-path="url(#pef5bdccba2)" style="fill: #3e4a89"/>
   </g>
   <g id="PathCollection_18">
    <path d="M 40.05637 181.152 
L 38.176176 175.608 
L 37.130213 170.064 
L 36.517224 164.52 
L 36.152136 158.976 
L 36 155.019784 
L 36 153.432 
L 36 147.888 
L 36 142.344 
L 36 136.8 
L 36 131.256 
L 36 125.712 
L 36 120.168 
L 36 114.624 
L 36 113.301196 
L 36.063431 109.08 
L 36.152551 103.536 
L 36.24573 97.992 
L 36.341657 92.448 
L 36.43934 86.904 
L 36.538027 81.36 
L 36.637142 75.816 
L 36.736246 70.272 
L 36.834999 64.728 
L 36.933143 59.184 
L 37.030481 53.64 
L 37.126863 48.096 
L 37.222176 42.552 
L 37.316339 37.008 
L 37.409292 31.464 
L 37.500993 25.92 
L 38.5343 25.92 
L 38.442597 31.464 
L 38.349642 37.008 
L 38.255477 42.552 
L 38.160161 48.096 
L 38.063776 53.64 
L 37.966436 59.184 
L 37.868289 64.728 
L 37.769533 70.272 
L 37.670426 75.816 
L 37.571307 81.36 
L 37.472617 86.904 
L 37.374929 92.448 
L 37.278998 97.992 
L 37.185814 103.536 
L 37.09669 109.08 
L 37.013375 114.624 
L 36.938232 120.168 
L 36.874485 125.712 
L 36.826603 131.256 
L 36.800892 136.8 
L 36.806438 142.344 
L 36.856683 147.888 
L 36.972132 153.432 
L 37.185314 158.976 
L 37.550385 164.52 
L 38.163357 170.064 
L 39.209299 175.608 
L 41.089469 181.152 
L 41.952 182.425808 
L 47.904 185.607355 
L 52.674283 186.696 
L 53.856 186.804962 
L 59.808 187.040429 
L 65.76 187.12169 
L 71.712 187.120061 
L 77.664 187.071387 
L 83.616 186.995193 
L 89.568 186.902754 
L 95.52 186.80087 
L 101.348568 186.696 
L 101.472 186.690503 
L 107.424 186.419224 
L 113.376 186.146089 
L 119.328 185.873934 
L 125.28 185.604621 
L 131.232 185.339356 
L 137.184 185.078907 
L 143.136 184.823741 
L 149.088 184.574118 
L 155.04 184.330156 
L 160.992 184.091873 
L 166.944 183.859219 
L 172.896 183.632098 
L 178.848 183.410384 
L 184.8 183.193929 
L 190.752 182.982575 
L 196.704 182.776155 
L 202.656 182.574502 
L 208.608 182.377449 
L 214.56 182.184829 
L 214.56 183.710984 
L 208.608 183.9036 
L 202.656 184.10065 
L 196.704 184.302299 
L 190.752 184.508715 
L 184.8 184.720065 
L 178.848 184.936515 
L 172.896 185.158225 
L 166.944 185.38534 
L 160.992 185.617989 
L 155.04 185.856266 
L 149.088 186.100222 
L 143.136 186.349837 
L 137.184 186.604996 
L 135.104232 186.696 
L 131.232 186.764449 
L 125.28 186.871609 
L 119.328 186.980404 
L 113.376 187.090347 
L 107.424 187.200688 
L 101.472 187.310279 
L 95.52 187.417367 
L 89.568 187.519248 
L 83.616 187.611684 
L 77.664 187.687874 
L 71.712 187.736543 
L 65.76 187.738167 
L 59.808 187.6569 
L 53.856 187.421425 
L 47.904 186.872609 
L 47.086284 186.696 
L 41.952 183.951515 
z
" clip-path="url(#pef5bdccba2)" style="fill: #355f8d"/>
   </g>
   <g id="PathCollection_19">
    <path d="M 41.089469 181.152 
L 39.209299 175.608 
L 38.163357 170.064 
L 37.550385 164.52 
L 37.185314 158.976 
L 36.972132 153.432 
L 36.856683 147.888 
L 36.806438 142.344 
L 36.800892 136.8 
L 36.826603 131.256 
L 36.874485 125.712 
L 36.938232 120.168 
L 37.013375 114.624 
L 37.09669 109.08 
L 37.185814 103.536 
L 37.278998 97.992 
L 37.374929 92.448 
L 37.472617 86.904 
L 37.571307 81.36 
L 37.670426 75.816 
L 37.769533 70.272 
L 37.868289 64.728 
L 37.966436 59.184 
L 38.063776 53.64 
L 38.160161 48.096 
L 38.255477 42.552 
L 38.349642 37.008 
L 38.442597 31.464 
L 38.5343 25.92 
L 39.567606 25.92 
L 39.475902 31.464 
L 39.382945 37.008 
L 39.288777 42.552 
L 39.193459 48.096 
L 39.097072 53.64 
L 38.999729 59.184 
L 38.901579 64.728 
L 38.80282 70.272 
L 38.70371 75.816 
L 38.604588 81.36 
L 38.505893 86.904 
L 38.408202 92.448 
L 38.312266 97.992 
L 38.219078 103.536 
L 38.129948 109.08 
L 38.046627 114.624 
L 37.971478 120.168 
L 37.907724 125.712 
L 37.859835 131.256 
L 37.834115 136.8 
L 37.839652 142.344 
L 37.889886 147.888 
L 38.005323 153.432 
L 38.218491 158.976 
L 38.583547 164.52 
L 39.196501 170.064 
L 40.242422 175.608 
L 41.952 180.649036 
L 42.423274 181.152 
L 47.904 184.08159 
L 53.856 185.439879 
L 59.808 186.022657 
L 65.76 186.223768 
L 71.712 186.219717 
L 77.664 186.099222 
L 83.616 185.910608 
L 89.568 185.681781 
L 95.52 185.429575 
L 101.472 185.164479 
L 107.424 184.893187 
L 113.376 184.620039 
L 119.328 184.347873 
L 125.28 184.07855 
L 131.232 183.813276 
L 137.184 183.552819 
L 143.136 183.297645 
L 149.088 183.048015 
L 155.04 182.804046 
L 160.992 182.565757 
L 166.944 182.333097 
L 172.896 182.105971 
L 178.848 181.884252 
L 184.8 181.667793 
L 190.752 181.456434 
L 196.704 181.250011 
L 199.59685 181.152 
L 202.656 180.945005 
L 208.608 180.551452 
L 214.56 180.166753 
L 214.56 181.152 
L 214.56 182.184829 
L 208.608 182.377449 
L 202.656 182.574502 
L 196.704 182.776155 
L 190.752 182.982575 
L 184.8 183.193929 
L 178.848 183.410384 
L 172.896 183.632098 
L 166.944 183.859219 
L 160.992 184.091873 
L 155.04 184.330156 
L 149.088 184.574118 
L 143.136 184.823741 
L 137.184 185.078907 
L 131.232 185.339356 
L 125.28 185.604621 
L 119.328 185.873934 
L 113.376 186.146089 
L 107.424 186.419224 
L 101.472 186.690503 
L 101.348568 186.696 
L 95.52 186.80087 
L 89.568 186.902754 
L 83.616 186.995193 
L 77.664 187.071387 
L 71.712 187.120061 
L 65.76 187.12169 
L 59.808 187.040429 
L 53.856 186.804962 
L 52.674283 186.696 
L 47.904 185.607355 
L 41.952 182.425808 
z
" clip-path="url(#pef5bdccba2)" style="fill: #2c718e"/>
   </g>
   <g id="PathCollection_20">
    <path d="M 40.242422 175.608 
L 39.196501 170.064 
L 38.583547 164.52 
L 38.218491 158.976 
L 38.005323 153.432 
L 37.889886 147.888 
L 37.839652 142.344 
L 37.834115 136.8 
L 37.859835 131.256 
L 37.907724 125.712 
L 37.971478 120.168 
L 38.046627 114.624 
L 38.129948 109.08 
L 38.219078 103.536 
L 38.312266 97.992 
L 38.408202 92.448 
L 38.505893 86.904 
L 38.604588 81.36 
L 38.70371 75.816 
L 38.80282 70.272 
L 38.901579 64.728 
L 38.999729 59.184 
L 39.097072 53.64 
L 39.193459 48.096 
L 39.288777 42.552 
L 39.382945 37.008 
L 39.475902 31.464 
L 39.567606 25.92 
L 40.600913 25.92 
L 40.509206 31.464 
L 40.416248 37.008 
L 40.322078 42.552 
L 40.226757 48.096 
L 40.130368 53.64 
L 40.033022 59.184 
L 39.934869 64.728 
L 39.836107 70.272 
L 39.736994 75.816 
L 39.637868 81.36 
L 39.53917 86.904 
L 39.441474 92.448 
L 39.345534 97.992 
L 39.252341 103.536 
L 39.163206 109.08 
L 39.07988 114.624 
L 39.004724 120.168 
L 38.940964 125.712 
L 38.893067 131.256 
L 38.867338 136.8 
L 38.872866 142.344 
L 38.923089 147.888 
L 39.038515 153.432 
L 39.251669 158.976 
L 39.616709 164.52 
L 40.229645 170.064 
L 41.275545 175.608 
L 41.952 177.602664 
L 45.2777 181.152 
L 47.904 182.555825 
L 53.856 183.914064 
L 59.808 184.496801 
L 65.76 184.697876 
L 71.712 184.693794 
L 77.664 184.573274 
L 83.616 184.384637 
L 89.568 184.15579 
L 95.52 183.903566 
L 101.472 183.638455 
L 107.424 183.367149 
L 113.376 183.093989 
L 119.328 182.821812 
L 125.28 182.552479 
L 131.232 182.287196 
L 137.184 182.02673 
L 143.136 181.771549 
L 149.088 181.521912 
L 155.04 181.277937 
L 158.185577 181.152 
L 160.992 180.927607 
L 166.944 180.462947 
L 172.896 180.009336 
L 178.848 179.566522 
L 184.8 179.134211 
L 190.752 178.712086 
L 196.704 178.299817 
L 202.656 177.897066 
L 208.608 177.503501 
L 214.56 177.11879 
L 214.56 180.166753 
L 208.608 180.551452 
L 202.656 180.945005 
L 199.59685 181.152 
L 196.704 181.250011 
L 190.752 181.456434 
L 184.8 181.667793 
L 178.848 181.884252 
L 172.896 182.105971 
L 166.944 182.333097 
L 160.992 182.565757 
L 155.04 182.804046 
L 149.088 183.048015 
L 143.136 183.297645 
L 137.184 183.552819 
L 131.232 183.813276 
L 125.28 184.07855 
L 119.328 184.347873 
L 113.376 184.620039 
L 107.424 184.893187 
L 101.472 185.164479 
L 95.52 185.429575 
L 89.568 185.681781 
L 83.616 185.910608 
L 77.664 186.099222 
L 71.712 186.219717 
L 65.76 186.223768 
L 59.808 186.022657 
L 53.856 185.439879 
L 47.904 184.08159 
L 42.423274 181.152 
L 41.952 180.649036 
z
" clip-path="url(#pef5bdccba2)" style="fill: #25838e"/>
   </g>
   <g id="PathCollection_21">
    <path d="M 41.275545 175.608 
L 40.229645 170.064 
L 39.616709 164.52 
L 39.251669 158.976 
L 39.038515 153.432 
L 38.923089 147.888 
L 38.872866 142.344 
L 38.867338 136.8 
L 38.893067 131.256 
L 38.940964 125.712 
L 39.004724 120.168 
L 39.07988 114.624 
L 39.163206 109.08 
L 39.252341 103.536 
L 39.345534 97.992 
L 39.441474 92.448 
L 39.53917 86.904 
L 39.637868 81.36 
L 39.736994 75.816 
L 39.836107 70.272 
L 39.934869 64.728 
L 40.033022 59.184 
L 40.130368 53.64 
L 40.226757 48.096 
L 40.322078 42.552 
L 40.416248 37.008 
L 40.509206 31.464 
L 40.600913 25.92 
L 41.63422 25.92 
L 41.542511 31.464 
L 41.44955 37.008 
L 41.355378 42.552 
L 41.260055 48.096 
L 41.163663 53.64 
L 41.066315 59.184 
L 40.968159 64.728 
L 40.869394 70.272 
L 40.770278 75.816 
L 40.671148 81.36 
L 40.572446 86.904 
L 40.474746 92.448 
L 40.378802 97.992 
L 40.285604 103.536 
L 40.196464 109.08 
L 40.113132 114.624 
L 40.03797 120.168 
L 39.974203 125.712 
L 39.926298 131.256 
L 39.900562 136.8 
L 39.90608 142.344 
L 39.956292 147.888 
L 40.071706 153.432 
L 40.284846 158.976 
L 40.649871 164.52 
L 41.262788 170.064 
L 41.952 173.717349 
L 42.937499 175.608 
L 47.904 180.908518 
L 48.438391 181.152 
L 53.856 182.38825 
L 59.808 182.970944 
L 65.76 183.171984 
L 71.712 183.167872 
L 77.664 183.047325 
L 83.616 182.858666 
L 89.568 182.629799 
L 95.52 182.377558 
L 101.472 182.112431 
L 107.424 181.841112 
L 113.376 181.567939 
L 119.328 181.295751 
L 122.504651 181.152 
L 125.28 180.901184 
L 131.232 180.371374 
L 137.184 179.851183 
L 143.136 179.341542 
L 149.088 178.842972 
L 155.04 178.355707 
L 160.992 177.879784 
L 166.944 177.415104 
L 172.896 176.961474 
L 178.848 176.518643 
L 184.8 176.086316 
L 190.752 175.664176 
L 191.56299 175.608 
L 196.704 174.967636 
L 202.656 174.243372 
L 208.608 173.535623 
L 214.56 172.843794 
L 214.56 175.608 
L 214.56 177.11879 
L 208.608 177.503501 
L 202.656 177.897066 
L 196.704 178.299817 
L 190.752 178.712086 
L 184.8 179.134211 
L 178.848 179.566522 
L 172.896 180.009336 
L 166.944 180.462947 
L 160.992 180.927607 
L 158.185577 181.152 
L 155.04 181.277937 
L 149.088 181.521912 
L 143.136 181.771549 
L 137.184 182.02673 
L 131.232 182.287196 
L 125.28 182.552479 
L 119.328 182.821812 
L 113.376 183.093989 
L 107.424 183.367149 
L 101.472 183.638455 
L 95.52 183.903566 
L 89.568 184.15579 
L 83.616 184.384637 
L 77.664 184.573274 
L 71.712 184.693794 
L 65.76 184.697876 
L 59.808 184.496801 
L 53.856 183.914064 
L 47.904 182.555825 
L 45.2777 181.152 
L 41.952 177.602664 
z
" clip-path="url(#pef5bdccba2)" style="fill: #1f958b"/>
   </g>
   <g id="PathCollection_22">
    <path d="M 41.262788 170.064 
L 40.649871 164.52 
L 40.284846 158.976 
L 40.071706 153.432 
L 39.956292 147.888 
L 39.90608 142.344 
L 39.900562 136.8 
L 39.926298 131.256 
L 39.974203 125.712 
L 40.03797 120.168 
L 40.113132 114.624 
L 40.196464 109.08 
L 40.285604 103.536 
L 40.378802 97.992 
L 40.474746 92.448 
L 40.572446 86.904 
L 40.671148 81.36 
L 40.770278 75.816 
L 40.869394 70.272 
L 40.968159 64.728 
L 41.066315 59.184 
L 41.163663 53.64 
L 41.260055 48.096 
L 41.355378 42.552 
L 41.44955 37.008 
L 41.542511 31.464 
L 41.63422 25.92 
L 41.952 25.92 
L 43.929581 25.92 
L 43.676104 31.464 
L 43.419168 37.008 
L 43.158887 42.552 
L 42.895424 48.096 
L 42.629009 53.64 
L 42.359951 59.184 
L 42.088665 64.728 
L 41.952 67.503645 
L 41.902681 70.272 
L 41.803561 75.816 
L 41.704429 81.36 
L 41.605723 86.904 
L 41.508019 92.448 
L 41.41207 97.992 
L 41.318868 103.536 
L 41.229722 109.08 
L 41.146385 114.624 
L 41.071217 120.168 
L 41.007442 125.712 
L 40.95953 131.256 
L 40.933785 136.8 
L 40.939294 142.344 
L 40.989495 147.888 
L 41.104897 153.432 
L 41.318024 158.976 
L 41.683033 164.52 
L 41.952 166.952926 
L 42.902338 170.064 
L 45.792091 175.608 
L 47.904 177.861943 
L 53.856 180.573797 
L 56.814044 181.152 
L 59.808 181.445088 
L 65.76 181.646092 
L 71.712 181.641949 
L 77.664 181.521376 
L 83.616 181.332694 
L 88.31482 181.152 
L 89.568 181.055761 
L 95.52 180.552 
L 101.472 180.022502 
L 107.424 179.480634 
L 113.376 178.935061 
L 119.328 178.391452 
L 125.28 177.853521 
L 131.232 177.323679 
L 137.184 176.803457 
L 143.136 176.293789 
L 149.088 175.795194 
L 151.374499 175.608 
L 155.04 175.068376 
L 160.992 174.212534 
L 166.944 173.376905 
L 172.896 172.561146 
L 178.848 171.7648 
L 184.8 170.987341 
L 190.752 170.228198 
L 192.070162 170.064 
L 196.704 169.078596 
L 202.656 167.842098 
L 208.608 166.633788 
L 214.56 165.452653 
L 214.56 170.064 
L 214.56 172.843794 
L 208.608 173.535623 
L 202.656 174.243372 
L 196.704 174.967636 
L 191.56299 175.608 
L 190.752 175.664176 
L 184.8 176.086316 
L 178.848 176.518643 
L 172.896 176.961474 
L 166.944 177.415104 
L 160.992 177.879784 
L 155.04 178.355707 
L 149.088 178.842972 
L 143.136 179.341542 
L 137.184 179.851183 
L 131.232 180.371374 
L 125.28 180.901184 
L 122.504651 181.152 
L 119.328 181.295751 
L 113.376 181.567939 
L 107.424 181.841112 
L 101.472 182.112431 
L 95.52 182.377558 
L 89.568 182.629799 
L 83.616 182.858666 
L 77.664 183.047325 
L 71.712 183.167872 
L 65.76 183.171984 
L 59.808 182.970944 
L 53.856 182.38825 
L 48.438391 181.152 
L 47.904 180.908518 
L 42.937499 175.608 
L 41.952 173.717349 
z
" clip-path="url(#pef5bdccba2)" style="fill: #22a785"/>
    <path d="M 176.570097 25.92 
L 178.848 25.92 
L 184.8 25.92 
L 190.752 25.92 
L 196.704 25.92 
L 202.656 25.92 
L 208.608 25.92 
L 214.56 25.92 
L 214.56 31.464 
L 214.56 37.008 
L 214.56 42.552 
L 214.56 48.096 
L 214.56 53.64 
L 214.56 59.184 
L 214.56 64.728 
L 214.56 70.272 
L 214.56 75.816 
L 214.56 77.089486 
L 213.519622 75.816 
L 208.991602 70.272 
L 208.608 69.800607 
L 204.573096 64.728 
L 202.656 62.302663 
L 200.247168 59.184 
L 196.704 54.558319 
L 196.016856 53.64 
L 191.90955 48.096 
L 190.752 46.515926 
L 187.915964 42.552 
L 184.8 38.14329 
L 184.016544 37.008 
L 180.240069 31.464 
L 178.848 29.392385 
z
" clip-path="url(#pef5bdccba2)" style="fill: #22a785"/>
   </g>
   <g id="PathCollection_23">
    <path d="M 41.683033 164.52 
L 41.318024 158.976 
L 41.104897 153.432 
L 40.989495 147.888 
L 40.939294 142.344 
L 40.933785 136.8 
L 40.95953 131.256 
L 41.007442 125.712 
L 41.071217 120.168 
L 41.146385 114.624 
L 41.229722 109.08 
L 41.318868 103.536 
L 41.41207 97.992 
L 41.508019 92.448 
L 41.605723 86.904 
L 41.704429 81.36 
L 41.803561 75.816 
L 41.902681 70.272 
L 41.952 67.503645 
L 42.088665 64.728 
L 42.359951 59.184 
L 42.629009 53.64 
L 42.895424 48.096 
L 43.158887 42.552 
L 43.419168 37.008 
L 43.676104 31.464 
L 43.929581 25.92 
L 46.785445 25.92 
L 46.531955 31.464 
L 46.275005 37.008 
L 46.014708 42.552 
L 45.751228 48.096 
L 45.484796 53.64 
L 45.21572 59.184 
L 44.944414 64.728 
L 44.671423 70.272 
L 44.397463 75.816 
L 44.123467 81.36 
L 43.850652 86.904 
L 43.580609 92.448 
L 43.315417 97.992 
L 43.057816 103.536 
L 42.811429 109.08 
L 42.581096 114.624 
L 42.373341 120.168 
L 42.197075 125.712 
L 42.064646 131.256 
L 41.993475 136.8 
L 42.008671 142.344 
L 42.147368 147.888 
L 42.466226 153.432 
L 43.055109 158.976 
L 44.063644 164.52 
L 45.757074 170.064 
L 47.904 174.183036 
L 49.643857 175.608 
L 53.856 177.527048 
L 59.808 178.690353 
L 65.76 179.091618 
L 71.712 179.083253 
L 77.664 178.842397 
L 83.616 178.465534 
L 89.568 178.008385 
L 95.52 177.504561 
L 101.472 176.975008 
L 107.424 176.433091 
L 113.376 175.887473 
L 116.435767 175.608 
L 119.328 175.132982 
L 125.28 174.165641 
L 131.232 173.212839 
L 137.184 172.277332 
L 143.136 171.360797 
L 149.088 170.464169 
L 151.806049 170.064 
L 155.04 169.251204 
L 160.992 167.790086 
L 166.944 166.363467 
L 172.896 164.97076 
L 174.869378 164.52 
L 178.848 162.993093 
L 184.8 160.762998 
L 189.684405 158.976 
L 190.752 158.306433 
L 196.704 154.6606 
L 198.757125 153.432 
L 202.656 149.115479 
L 203.790571 147.888 
L 206.009209 142.344 
L 206.236585 136.8 
L 205.071945 131.256 
L 202.920404 125.712 
L 202.656 125.19901 
L 200.122162 120.168 
L 196.834768 114.624 
L 196.704 114.424955 
L 193.273718 109.08 
L 190.752 105.405072 
L 189.499447 103.536 
L 185.616335 97.992 
L 184.8 96.85957 
L 181.694895 92.448 
L 178.848 88.47513 
L 177.748909 86.904 
L 173.831448 81.36 
L 172.896 80.041672 
L 169.969095 75.816 
L 166.944 71.44744 
L 166.149442 70.272 
L 162.415546 64.728 
L 160.992 62.601026 
L 158.759196 59.184 
L 155.166643 53.64 
L 155.04 53.442612 
L 151.689698 48.096 
L 149.088 43.897208 
L 148.273424 42.552 
L 144.95707 37.008 
L 143.136 33.923856 
L 141.715209 31.464 
L 138.556336 25.92 
L 143.136 25.92 
L 149.088 25.92 
L 155.04 25.92 
L 160.992 25.92 
L 166.944 25.92 
L 172.896 25.92 
L 176.570097 25.92 
L 178.848 29.392385 
L 180.240069 31.464 
L 184.016544 37.008 
L 184.8 38.14329 
L 187.915964 42.552 
L 190.752 46.515926 
L 191.90955 48.096 
L 196.016856 53.64 
L 196.704 54.558319 
L 200.247168 59.184 
L 202.656 62.302663 
L 204.573096 64.728 
L 208.608 69.800607 
L 208.991602 70.272 
L 213.519622 75.816 
L 214.56 77.089486 
L 214.56 81.36 
L 214.56 86.904 
L 214.56 92.448 
L 214.56 97.992 
L 214.56 103.536 
L 214.56 109.08 
L 214.56 114.624 
L 214.56 120.168 
L 214.56 125.712 
L 214.56 131.256 
L 214.56 136.8 
L 214.56 142.344 
L 214.56 147.888 
L 214.56 153.432 
L 214.56 158.976 
L 214.56 164.52 
L 214.56 165.452653 
L 208.608 166.633788 
L 202.656 167.842098 
L 196.704 169.078596 
L 192.070162 170.064 
L 190.752 170.228198 
L 184.8 170.987341 
L 178.848 171.7648 
L 172.896 172.561146 
L 166.944 173.376905 
L 160.992 174.212534 
L 155.04 175.068376 
L 151.374499 175.608 
L 149.088 175.795194 
L 143.136 176.293789 
L 137.184 176.803457 
L 131.232 177.323679 
L 125.28 177.853521 
L 119.328 178.391452 
L 113.376 178.935061 
L 107.424 179.480634 
L 101.472 180.022502 
L 95.52 180.552 
L 89.568 181.055761 
L 88.31482 181.152 
L 83.616 181.332694 
L 77.664 181.521376 
L 71.712 181.641949 
L 65.76 181.646092 
L 59.808 181.445088 
L 56.814044 181.152 
L 53.856 180.573797 
L 47.904 177.861943 
L 45.792091 175.608 
L 42.902338 170.064 
L 41.952 166.952926 
z
" clip-path="url(#pef5bdccba2)" style="fill: #35b779"/>
   </g>
   <g id="PathCollection_24">
    <path d="M 45.757074 170.064 
L 44.063644 164.52 
L 43.055109 158.976 
L 42.466226 153.432 
L 42.147368 147.888 
L 42.008671 142.344 
L 41.993475 136.8 
L 42.064646 131.256 
L 42.197075 125.712 
L 42.373341 120.168 
L 42.581096 114.624 
L 42.811429 109.08 
L 43.057816 103.536 
L 43.315417 97.992 
L 43.580609 92.448 
L 43.850652 86.904 
L 44.123467 81.36 
L 44.397463 75.816 
L 44.671423 70.272 
L 44.944414 64.728 
L 45.21572 59.184 
L 45.484796 53.64 
L 45.751228 48.096 
L 46.014708 42.552 
L 46.275005 37.008 
L 46.531955 31.464 
L 46.785445 25.92 
L 47.904 25.92 
L 51.975821 25.92 
L 51.381653 31.464 
L 50.779379 37.008 
L 50.169265 42.552 
L 49.551697 48.096 
L 48.927212 53.64 
L 48.296537 59.184 
L 47.904 62.606278 
L 47.800162 64.728 
L 47.527151 70.272 
L 47.253168 75.816 
L 46.979148 81.36 
L 46.706307 86.904 
L 46.436236 92.448 
L 46.171014 97.992 
L 45.91338 103.536 
L 45.666957 109.08 
L 45.436584 114.624 
L 45.228786 120.168 
L 45.052472 125.712 
L 44.91999 131.256 
L 44.848761 136.8 
L 44.863892 142.344 
L 45.002515 147.888 
L 45.32129 153.432 
L 45.910078 158.976 
L 46.918504 164.52 
L 47.904 167.746522 
L 49.562247 170.064 
L 53.856 173.580593 
L 59.626583 175.608 
L 59.808 175.643455 
L 65.76 176.044593 
L 71.712 176.03612 
L 77.664 175.795171 
L 80.619499 175.608 
L 83.616 175.266787 
L 89.568 174.444685 
L 95.52 173.538656 
L 101.472 172.586359 
L 107.424 171.611823 
L 113.376 170.630632 
L 116.825703 170.064 
L 119.328 169.362377 
L 125.28 167.710918 
L 131.232 166.084264 
L 137.06148 164.52 
L 137.184 164.464765 
L 143.136 161.83591 
L 149.088 159.264086 
L 149.770188 158.976 
L 155.04 155.161266 
L 157.485745 153.432 
L 160.992 148.84591 
L 161.74207 147.888 
L 163.622234 142.344 
L 163.815932 136.8 
L 162.830693 131.256 
L 161.009623 125.712 
L 160.992 125.671609 
L 158.647532 120.168 
L 155.866832 114.624 
L 155.04 113.136185 
L 152.838446 109.08 
L 149.621034 103.536 
L 149.088 102.657231 
L 146.322579 97.992 
L 143.136 92.768819 
L 142.94454 92.448 
L 139.576072 86.904 
L 137.184 83.006328 
L 136.194198 81.36 
L 132.847075 75.816 
L 131.232 73.140195 
L 129.532399 70.272 
L 126.259181 64.728 
L 125.28 63.059064 
L 123.040894 59.184 
L 119.864051 53.64 
L 119.328 52.695171 
L 116.746237 48.096 
L 113.668826 42.552 
L 113.376 42.017989 
L 110.639093 37.008 
L 107.649601 31.464 
L 107.424 31.039892 
L 104.682447 25.92 
L 107.424 25.92 
L 113.376 25.92 
L 119.328 25.92 
L 125.28 25.92 
L 131.232 25.92 
L 137.184 25.92 
L 138.556336 25.92 
L 141.715209 31.464 
L 143.136 33.923856 
L 144.95707 37.008 
L 148.273424 42.552 
L 149.088 43.897208 
L 151.689698 48.096 
L 155.04 53.442612 
L 155.166643 53.64 
L 158.759196 59.184 
L 160.992 62.601026 
L 162.415546 64.728 
L 166.149442 70.272 
L 166.944 71.44744 
L 169.969095 75.816 
L 172.896 80.041672 
L 173.831448 81.36 
L 177.748909 86.904 
L 178.848 88.47513 
L 181.694895 92.448 
L 184.8 96.85957 
L 185.616335 97.992 
L 189.499447 103.536 
L 190.752 105.405072 
L 193.273718 109.08 
L 196.704 114.424955 
L 196.834768 114.624 
L 200.122162 120.168 
L 202.656 125.19901 
L 202.920404 125.712 
L 205.071945 131.256 
L 206.236585 136.8 
L 206.009209 142.344 
L 203.790571 147.888 
L 202.656 149.115479 
L 198.757125 153.432 
L 196.704 154.6606 
L 190.752 158.306433 
L 189.684405 158.976 
L 184.8 160.762998 
L 178.848 162.993093 
L 174.869378 164.52 
L 172.896 164.97076 
L 166.944 166.363467 
L 160.992 167.790086 
L 155.04 169.251204 
L 151.806049 170.064 
L 149.088 170.464169 
L 143.136 171.360797 
L 137.184 172.277332 
L 131.232 173.212839 
L 125.28 174.165641 
L 119.328 175.132982 
L 116.435767 175.608 
L 113.376 175.887473 
L 107.424 176.433091 
L 101.472 176.975008 
L 95.52 177.504561 
L 89.568 178.008385 
L 83.616 178.465534 
L 77.664 178.842397 
L 71.712 179.083253 
L 65.76 179.091618 
L 59.808 178.690353 
L 53.856 177.527048 
L 49.643857 175.608 
L 47.904 174.183036 
z
" clip-path="url(#pef5bdccba2)" style="fill: #58c765"/>
   </g>
   <g id="PathCollection_25">
    <path d="M 46.918504 164.52 
L 45.910078 158.976 
L 45.32129 153.432 
L 45.002515 147.888 
L 44.863892 142.344 
L 44.848761 136.8 
L 44.91999 131.256 
L 45.052472 125.712 
L 45.228786 120.168 
L 45.436584 114.624 
L 45.666957 109.08 
L 45.91338 103.536 
L 46.171014 97.992 
L 46.436236 92.448 
L 46.706307 86.904 
L 46.979148 81.36 
L 47.253168 75.816 
L 47.527151 70.272 
L 47.800162 64.728 
L 47.904 62.606278 
L 48.296537 59.184 
L 48.927212 53.64 
L 49.551697 48.096 
L 50.169265 42.552 
L 50.779379 37.008 
L 51.381653 31.464 
L 51.975821 25.92 
L 53.856 25.92 
L 59.808 25.92 
L 65.76 25.92 
L 71.712 25.92 
L 77.664 25.92 
L 83.616 25.92 
L 89.568 25.92 
L 95.52 25.92 
L 101.472 25.92 
L 104.682447 25.92 
L 107.424 31.039892 
L 107.649601 31.464 
L 110.639093 37.008 
L 113.376 42.017989 
L 113.668826 42.552 
L 116.746237 48.096 
L 119.328 52.695171 
L 119.864051 53.64 
L 123.040894 59.184 
L 125.28 63.059064 
L 126.259181 64.728 
L 129.532399 70.272 
L 131.232 73.140195 
L 132.847075 75.816 
L 136.194198 81.36 
L 137.184 83.006328 
L 139.576072 86.904 
L 142.94454 92.448 
L 143.136 92.768819 
L 146.322579 97.992 
L 149.088 102.657231 
L 149.621034 103.536 
L 152.838446 109.08 
L 155.04 113.136185 
L 155.866832 114.624 
L 158.647532 120.168 
L 160.992 125.671609 
L 161.009623 125.712 
L 162.830693 131.256 
L 163.815932 136.8 
L 163.622234 142.344 
L 161.74207 147.888 
L 160.992 148.84591 
L 157.485745 153.432 
L 155.04 155.161266 
L 149.770188 158.976 
L 149.088 159.264086 
L 143.136 161.83591 
L 137.184 164.464765 
L 137.06148 164.52 
L 131.232 166.084264 
L 125.28 167.710918 
L 119.328 169.362377 
L 116.825703 170.064 
L 113.376 170.630632 
L 107.424 171.611823 
L 101.472 172.586359 
L 95.52 173.538656 
L 89.568 174.444685 
L 83.616 175.266787 
L 80.619499 175.608 
L 77.664 175.795171 
L 71.712 176.03612 
L 65.76 176.044593 
L 59.808 175.643455 
L 59.626583 175.608 
L 53.856 173.580593 
L 49.562247 170.064 
L 47.904 167.746522 
z
M 47.904 148.69408 
L 48.542141 153.432 
L 49.921419 158.976 
L 52.283718 164.52 
L 53.856 166.717436 
L 59.438478 170.064 
L 59.808 170.19381 
L 65.76 170.914667 
L 71.712 170.899142 
L 77.664 170.465669 
L 81.190354 170.064 
L 83.616 169.592384 
L 89.568 168.188786 
L 95.52 166.641927 
L 101.472 165.016084 
L 103.246703 164.52 
L 107.424 162.558332 
L 113.376 159.744112 
L 115.006415 158.976 
L 119.328 155.486335 
L 121.898887 153.432 
L 125.28 148.434773 
L 125.655591 147.888 
L 127.305777 142.344 
L 127.477002 136.8 
L 126.614366 131.256 
L 125.28 126.619709 
L 125.02271 125.712 
L 122.934887 120.168 
L 120.476403 114.624 
L 119.328 112.286831 
L 117.768932 109.08 
L 114.886897 103.536 
L 113.376 100.755285 
L 111.880209 97.992 
L 108.791495 92.448 
L 107.424 90.037101 
L 105.635054 86.904 
L 102.437572 81.36 
L 101.472 79.692823 
L 99.17479 75.816 
L 95.890559 70.272 
L 95.52 69.644186 
L 92.471105 64.728 
L 89.568 60.017305 
L 89.002308 59.184 
L 85.270015 53.64 
L 83.616 51.158498 
L 81.142237 48.096 
L 77.664 43.741293 
L 76.181642 42.552 
L 71.712 38.921836 
L 65.76 38.722023 
L 62.899788 42.552 
L 59.808 46.642304 
L 59.430085 48.096 
L 57.972676 53.64 
L 56.500845 59.184 
L 55.016859 64.728 
L 53.856 69.038175 
L 53.713583 70.272 
L 53.071372 75.816 
L 52.429078 81.36 
L 51.789552 86.904 
L 51.15652 92.448 
L 50.53486 97.992 
L 49.930987 103.536 
L 49.353394 109.08 
L 48.813419 114.624 
L 48.326352 120.168 
L 47.913068 125.712 
L 47.904 125.873868 
L 47.775335 131.256 
L 47.704047 136.8 
L 47.719113 142.344 
L 47.857662 147.888 
z
" clip-path="url(#pef5bdccba2)" style="fill: #84d44b"/>
   </g>
   <g id="PathCollection_26">
    <path d="M 47.857662 147.888 
L 47.719113 142.344 
L 47.704047 136.8 
L 47.775335 131.256 
L 47.904 125.873868 
L 47.913068 125.712 
L 48.326352 120.168 
L 48.813419 114.624 
L 49.353394 109.08 
L 49.930987 103.536 
L 50.53486 97.992 
L 51.15652 92.448 
L 51.789552 86.904 
L 52.429078 81.36 
L 53.071372 75.816 
L 53.713583 70.272 
L 53.856 69.038175 
L 55.016859 64.728 
L 56.500845 59.184 
L 57.972676 53.64 
L 59.430085 48.096 
L 59.808 46.642304 
L 62.899788 42.552 
L 65.76 38.722023 
L 71.712 38.921836 
L 76.181642 42.552 
L 77.664 43.741293 
L 81.142237 48.096 
L 83.616 51.158498 
L 85.270015 53.64 
L 89.002308 59.184 
L 89.568 60.017305 
L 92.471105 64.728 
L 95.52 69.644186 
L 95.890559 70.272 
L 99.17479 75.816 
L 101.472 79.692823 
L 102.437572 81.36 
L 105.635054 86.904 
L 107.424 90.037101 
L 108.791495 92.448 
L 111.880209 97.992 
L 113.376 100.755285 
L 114.886897 103.536 
L 117.768932 109.08 
L 119.328 112.286831 
L 120.476403 114.624 
L 122.934887 120.168 
L 125.02271 125.712 
L 125.28 126.619709 
L 126.614366 131.256 
L 127.477002 136.8 
L 127.305777 142.344 
L 125.655591 147.888 
L 125.28 148.434773 
L 121.898887 153.432 
L 119.328 155.486335 
L 115.006415 158.976 
L 113.376 159.744112 
L 107.424 162.558332 
L 103.246703 164.52 
L 101.472 165.016084 
L 95.52 166.641927 
L 89.568 168.188786 
L 83.616 169.592384 
L 81.190354 170.064 
L 77.664 170.465669 
L 71.712 170.899142 
L 65.76 170.914667 
L 59.808 170.19381 
L 59.438478 170.064 
L 53.856 166.717436 
L 52.283718 164.52 
L 49.921419 158.976 
L 48.542141 153.432 
L 47.904 148.69408 
z
M 59.808 158.16277 
L 61.17658 158.976 
L 65.76 160.565954 
L 71.712 160.520049 
L 77.664 159.276081 
L 78.582389 158.976 
L 83.616 156.157338 
L 87.628961 153.432 
L 89.568 150.996937 
L 91.814553 147.888 
L 93.551662 142.344 
L 93.733948 136.8 
L 92.829445 131.256 
L 91.154525 125.712 
L 89.568 121.760578 
L 88.86359 120.168 
L 85.975628 114.624 
L 83.616 110.536116 
L 82.597258 109.08 
L 78.449737 103.536 
L 77.664 102.531143 
L 72.123042 97.992 
L 71.712 97.664829 
L 65.76 97.474499 
L 65.366395 97.992 
L 61.270483 103.536 
L 59.808 105.605736 
L 58.963236 109.08 
L 57.702971 114.624 
L 56.566151 120.168 
L 55.601461 125.712 
L 54.876371 131.256 
L 54.486052 136.8 
L 54.567655 142.344 
L 55.323972 147.888 
L 57.064399 153.432 
z
" clip-path="url(#pef5bdccba2)" style="fill: #b5de2b"/>
   </g>
   <g id="PathCollection_27">
    <path d="M 57.064399 153.432 
L 55.323972 147.888 
L 54.567655 142.344 
L 54.486052 136.8 
L 54.876371 131.256 
L 55.601461 125.712 
L 56.566151 120.168 
L 57.702971 114.624 
L 58.963236 109.08 
L 59.808 105.605736 
L 61.270483 103.536 
L 65.366395 97.992 
L 65.76 97.474499 
L 71.712 97.664829 
L 72.123042 97.992 
L 77.664 102.531143 
L 78.449737 103.536 
L 82.597258 109.08 
L 83.616 110.536116 
L 85.975628 114.624 
L 88.86359 120.168 
L 89.568 121.760578 
L 91.154525 125.712 
L 92.829445 131.256 
L 93.733948 136.8 
L 93.551662 142.344 
L 91.814553 147.888 
L 89.568 150.996937 
L 87.628961 153.432 
L 83.616 156.157338 
L 78.582389 158.976 
L 77.664 159.276081 
L 71.712 160.520049 
L 65.76 160.565954 
L 61.17658 158.976 
L 59.808 158.16277 
z
" clip-path="url(#pef5bdccba2)" style="fill: #e7e419"/>
   </g>
   <g id="PathCollection_28">
    <defs>
     <path id="m19747a63c9" d="M -4.330127 4.330127 
L 4.330127 -4.330127 
M -4.330127 -4.330127 
L 4.330127 4.330127 
" style="stroke: #000000; stroke-width: 2"/>
    </defs>
    <g clip-path="url(#pef5bdccba2)">
     <use xlink:href="#m19747a63c9" x="65.76" y="146.04" style="stroke: #000000; stroke-width: 2"/>
    </g>
   </g>
   <g id="matplotlib.axis_1">
    <g id="xtick_1">
     <g id="line2d_1">
      <defs>
       <path id="md372630344" d="M 0 0 
L 0 3.5 
" style="stroke: #000000; stroke-width: 0.8"/>
      </defs>
      <g>
       <use xlink:href="#md372630344" x="75.68" y="192.24" style="stroke: #000000; stroke-width: 0.8"/>
      </g>
     </g>
     <g id="text_1">
      <!-- $\mathdefault{250}$ -->
      <g transform="translate(64.22 208.358125) scale(0.12 -0.12)">
       <defs>
        <path id="DejaVuSans-32" d="M 1228 531 
L 3431 531 
L 3431 0 
L 469 0 
L 469 531 
Q 828 903 1448 1529 
Q 2069 2156 2228 2338 
Q 2531 2678 2651 2914 
Q 2772 3150 2772 3378 
Q 2772 3750 2511 3984 
Q 2250 4219 1831 4219 
Q 1534 4219 1204 4116 
Q 875 4013 500 3803 
L 500 4441 
Q 881 4594 1212 4672 
Q 1544 4750 1819 4750 
Q 2544 4750 2975 4387 
Q 3406 4025 3406 3419 
Q 3406 3131 3298 2873 
Q 3191 2616 2906 2266 
Q 2828 2175 2409 1742 
Q 1991 1309 1228 531 
z
" transform="scale(0.015625)"/>
        <path id="DejaVuSans-35" d="M 691 4666 
L 3169 4666 
L 3169 4134 
L 1269 4134 
L 1269 2991 
Q 1406 3038 1543 3061 
Q 1681 3084 1819 3084 
Q 2600 3084 3056 2656 
Q 3513 2228 3513 1497 
Q 3513 744 3044 326 
Q 2575 -91 1722 -91 
Q 1428 -91 1123 -41 
Q 819 9 494 109 
L 494 744 
Q 775 591 1075 516 
Q 1375 441 1709 441 
Q 2250 441 2565 725 
Q 2881 1009 2881 1497 
Q 2881 1984 2565 2268 
Q 2250 2553 1709 2553 
Q 1456 2553 1204 2497 
Q 953 2441 691 2322 
L 691 4666 
z
" transform="scale(0.015625)"/>
        <path id="DejaVuSans-30" d="M 2034 4250 
Q 1547 4250 1301 3770 
Q 1056 3291 1056 2328 
Q 1056 1369 1301 889 
Q 1547 409 2034 409 
Q 2525 409 2770 889 
Q 3016 1369 3016 2328 
Q 3016 3291 2770 3770 
Q 2525 4250 2034 4250 
z
M 2034 4750 
Q 2819 4750 3233 4129 
Q 3647 3509 3647 2328 
Q 3647 1150 3233 529 
Q 2819 -91 2034 -91 
Q 1250 -91 836 529 
Q 422 1150 422 2328 
Q 422 3509 836 4129 
Q 1250 4750 2034 4750 
z
" transform="scale(0.015625)"/>
       </defs>
       <use xlink:href="#DejaVuSans-32" transform="translate(0 0.78125)"/>
       <use xlink:href="#DejaVuSans-35" transform="translate(63.623047 0.78125)"/>
       <use xlink:href="#DejaVuSans-30" transform="translate(127.246094 0.78125)"/>
      </g>
     </g>
    </g>
    <g id="xtick_2">
     <g id="line2d_2">
      <g>
       <use xlink:href="#md372630344" x="125.28" y="192.24" style="stroke: #000000; stroke-width: 0.8"/>
      </g>
     </g>
     <g id="text_2">
      <!-- $\mathdefault{500}$ -->
      <g transform="translate(113.82 208.358125) scale(0.12 -0.12)">
       <use xlink:href="#DejaVuSans-35" transform="translate(0 0.78125)"/>
       <use xlink:href="#DejaVuSans-30" transform="translate(63.623047 0.78125)"/>
       <use xlink:href="#DejaVuSans-30" transform="translate(127.246094 0.78125)"/>
      </g>
     </g>
    </g>
    <g id="xtick_3">
     <g id="line2d_3">
      <g>
       <use xlink:href="#md372630344" x="174.88" y="192.24" style="stroke: #000000; stroke-width: 0.8"/>
      </g>
     </g>
     <g id="text_3">
      <!-- $\mathdefault{750}$ -->
      <g transform="translate(163.42 208.358125) scale(0.12 -0.12)">
       <defs>
        <path id="DejaVuSans-37" d="M 525 4666 
L 3525 4666 
L 3525 4397 
L 1831 0 
L 1172 0 
L 2766 4134 
L 525 4134 
L 525 4666 
z
" transform="scale(0.015625)"/>
       </defs>
       <use xlink:href="#DejaVuSans-37" transform="translate(0 0.78125)"/>
       <use xlink:href="#DejaVuSans-35" transform="translate(63.623047 0.78125)"/>
       <use xlink:href="#DejaVuSans-30" transform="translate(127.246094 0.78125)"/>
      </g>
     </g>
    </g>
    <g id="text_4">
     <!-- Diploid N$_e$0 -->
     <g transform="translate(80 227.01375) scale(0.16 -0.16)">
      <defs>
       <path id="DejaVuSans-44" d="M 1259 4147 
L 1259 519 
L 2022 519 
Q 2988 519 3436 956 
Q 3884 1394 3884 2338 
Q 3884 3275 3436 3711 
Q 2988 4147 2022 4147 
L 1259 4147 
z
M 628 4666 
L 1925 4666 
Q 3281 4666 3915 4102 
Q 4550 3538 4550 2338 
Q 4550 1131 3912 565 
Q 3275 0 1925 0 
L 628 0 
L 628 4666 
z
" transform="scale(0.015625)"/>
       <path id="DejaVuSans-69" d="M 603 3500 
L 1178 3500 
L 1178 0 
L 603 0 
L 603 3500 
z
M 603 4863 
L 1178 4863 
L 1178 4134 
L 603 4134 
L 603 4863 
z
" transform="scale(0.015625)"/>
       <path id="DejaVuSans-70" d="M 1159 525 
L 1159 -1331 
L 581 -1331 
L 581 3500 
L 1159 3500 
L 1159 2969 
Q 1341 3281 1617 3432 
Q 1894 3584 2278 3584 
Q 2916 3584 3314 3078 
Q 3713 2572 3713 1747 
Q 3713 922 3314 415 
Q 2916 -91 2278 -91 
Q 1894 -91 1617 61 
Q 1341 213 1159 525 
z
M 3116 1747 
Q 3116 2381 2855 2742 
Q 2594 3103 2138 3103 
Q 1681 3103 1420 2742 
Q 1159 2381 1159 1747 
Q 1159 1113 1420 752 
Q 1681 391 2138 391 
Q 2594 391 2855 752 
Q 3116 1113 3116 1747 
z
" transform="scale(0.015625)"/>
       <path id="DejaVuSans-6c" d="M 603 4863 
L 1178 4863 
L 1178 0 
L 603 0 
L 603 4863 
z
" transform="scale(0.015625)"/>
       <path id="DejaVuSans-6f" d="M 1959 3097 
Q 1497 3097 1228 2736 
Q 959 2375 959 1747 
Q 959 1119 1226 758 
Q 1494 397 1959 397 
Q 2419 397 2687 759 
Q 2956 1122 2956 1747 
Q 2956 2369 2687 2733 
Q 2419 3097 1959 3097 
z
M 1959 3584 
Q 2709 3584 3137 3096 
Q 3566 2609 3566 1747 
Q 3566 888 3137 398 
Q 2709 -91 1959 -91 
Q 1206 -91 779 398 
Q 353 888 353 1747 
Q 353 2609 779 3096 
Q 1206 3584 1959 3584 
z
" transform="scale(0.015625)"/>
       <path id="DejaVuSans-64" d="M 2906 2969 
L 2906 4863 
L 3481 4863 
L 3481 0 
L 2906 0 
L 2906 525 
Q 2725 213 2448 61 
Q 2172 -91 1784 -91 
Q 1150 -91 751 415 
Q 353 922 353 1747 
Q 353 2572 751 3078 
Q 1150 3584 1784 3584 
Q 2172 3584 2448 3432 
Q 2725 3281 2906 2969 
z
M 947 1747 
Q 947 1113 1208 752 
Q 1469 391 1925 391 
Q 2381 391 2643 752 
Q 2906 1113 2906 1747 
Q 2906 2381 2643 2742 
Q 2381 3103 1925 3103 
Q 1469 3103 1208 2742 
Q 947 2381 947 1747 
z
" transform="scale(0.015625)"/>
       <path id="DejaVuSans-20" transform="scale(0.015625)"/>
       <path id="DejaVuSans-4e" d="M 628 4666 
L 1478 4666 
L 3547 763 
L 3547 4666 
L 4159 4666 
L 4159 0 
L 3309 0 
L 1241 3903 
L 1241 0 
L 628 0 
L 628 4666 
z
" transform="scale(0.015625)"/>
       <path id="DejaVuSans-Oblique-65" d="M 3078 2063 
Q 3088 2113 3092 2166 
Q 3097 2219 3097 2272 
Q 3097 2653 2873 2875 
Q 2650 3097 2266 3097 
Q 1838 3097 1509 2826 
Q 1181 2556 1013 2059 
L 3078 2063 
z
M 3578 1613 
L 903 1613 
Q 884 1494 878 1425 
Q 872 1356 872 1306 
Q 872 872 1139 634 
Q 1406 397 1894 397 
Q 2269 397 2603 481 
Q 2938 566 3225 728 
L 3116 159 
Q 2806 34 2476 -28 
Q 2147 -91 1806 -91 
Q 1078 -91 686 257 
Q 294 606 294 1247 
Q 294 1794 489 2264 
Q 684 2734 1063 3103 
Q 1306 3334 1642 3459 
Q 1978 3584 2356 3584 
Q 2950 3584 3301 3228 
Q 3653 2872 3653 2272 
Q 3653 2128 3634 1964 
Q 3616 1800 3578 1613 
z
" transform="scale(0.015625)"/>
      </defs>
      <use xlink:href="#DejaVuSans-44" transform="translate(0 0.015625)"/>
      <use xlink:href="#DejaVuSans-69" transform="translate(77.001953 0.015625)"/>
      <use xlink:href="#DejaVuSans-70" transform="translate(104.785156 0.015625)"/>
      <use xlink:href="#DejaVuSans-6c" transform="translate(168.261719 0.015625)"/>
      <use xlink:href="#DejaVuSans-6f" transform="translate(196.044922 0.015625)"/>
      <use xlink:href="#DejaVuSans-69" transform="translate(257.226562 0.015625)"/>
      <use xlink:href="#DejaVuSans-64" transform="translate(285.009766 0.015625)"/>
      <use xlink:href="#DejaVuSans-20" transform="translate(348.486328 0.015625)"/>
      <use xlink:href="#DejaVuSans-4e" transform="translate(380.273438 0.015625)"/>
      <use xlink:href="#DejaVuSans-Oblique-65" transform="translate(456.035156 -16.390625) scale(0.7)"/>
      <use xlink:href="#DejaVuSans-30" transform="translate(501.835938 0.015625)"/>
     </g>
    </g>
    <g id="text_5">
     <!-- $\times\mathdefault{10^{3}}\mathdefault{}$ -->
     <g transform="translate(188.56 221.452188) scale(0.1 -0.1)">
      <defs>
       <path id="DejaVuSans-d7" d="M 4488 3438 
L 3059 2003 
L 4488 575 
L 4116 197 
L 2681 1631 
L 1247 197 
L 878 575 
L 2303 2003 
L 878 3438 
L 1247 3816 
L 2681 2381 
L 4116 3816 
L 4488 3438 
z
" transform="scale(0.015625)"/>
       <path id="DejaVuSans-31" d="M 794 531 
L 1825 531 
L 1825 4091 
L 703 3866 
L 703 4441 
L 1819 4666 
L 2450 4666 
L 2450 531 
L 3481 531 
L 3481 0 
L 794 0 
L 794 531 
z
" transform="scale(0.015625)"/>
       <path id="DejaVuSans-33" d="M 2597 2516 
Q 3050 2419 3304 2112 
Q 3559 1806 3559 1356 
Q 3559 666 3084 287 
Q 2609 -91 1734 -91 
Q 1441 -91 1130 -33 
Q 819 25 488 141 
L 488 750 
Q 750 597 1062 519 
Q 1375 441 1716 441 
Q 2309 441 2620 675 
Q 2931 909 2931 1356 
Q 2931 1769 2642 2001 
Q 2353 2234 1838 2234 
L 1294 2234 
L 1294 2753 
L 1863 2753 
Q 2328 2753 2575 2939 
Q 2822 3125 2822 3475 
Q 2822 3834 2567 4026 
Q 2313 4219 1838 4219 
Q 1578 4219 1281 4162 
Q 984 4106 628 3988 
L 628 4550 
Q 988 4650 1302 4700 
Q 1616 4750 1894 4750 
Q 2613 4750 3031 4423 
Q 3450 4097 3450 3541 
Q 3450 3153 3228 2886 
Q 3006 2619 2597 2516 
z
" transform="scale(0.015625)"/>
      </defs>
      <use xlink:href="#DejaVuSans-d7" transform="translate(0 0.765625)"/>
      <use xlink:href="#DejaVuSans-31" transform="translate(83.789062 0.765625)"/>
      <use xlink:href="#DejaVuSans-30" transform="translate(147.412109 0.765625)"/>
      <use xlink:href="#DejaVuSans-33" transform="translate(211.992188 39.046875) scale(0.7)"/>
     </g>
    </g>
   </g>
   <g id="matplotlib.axis_2">
    <g id="ytick_1">
     <g id="line2d_4">
      <defs>
       <path id="m65117ad39c" d="M 0 0 
L -3.5 0 
" style="stroke: #000000; stroke-width: 0.8"/>
      </defs>
      <g>
       <use xlink:href="#m65117ad39c" x="36" y="155.28" style="stroke: #000000; stroke-width: 0.8"/>
      </g>
     </g>
     <g id="text_6">
      <!-- $\mathdefault{250}$ -->
      <g transform="translate(6.08 159.839063) scale(0.12 -0.12)">
       <use xlink:href="#DejaVuSans-32" transform="translate(0 0.78125)"/>
       <use xlink:href="#DejaVuSans-35" transform="translate(63.623047 0.78125)"/>
       <use xlink:href="#DejaVuSans-30" transform="translate(127.246094 0.78125)"/>
      </g>
     </g>
    </g>
    <g id="ytick_2">
     <g id="line2d_5">
      <g>
       <use xlink:href="#m65117ad39c" x="36" y="109.08" style="stroke: #000000; stroke-width: 0.8"/>
      </g>
     </g>
     <g id="text_7">
      <!-- $\mathdefault{500}$ -->
      <g transform="translate(6.08 113.639062) scale(0.12 -0.12)">
       <use xlink:href="#DejaVuSans-35" transform="translate(0 0.78125)"/>
       <use xlink:href="#DejaVuSans-30" transform="translate(63.623047 0.78125)"/>
       <use xlink:href="#DejaVuSans-30" transform="translate(127.246094 0.78125)"/>
      </g>
     </g>
    </g>
    <g id="ytick_3">
     <g id="line2d_6">
      <g>
       <use xlink:href="#m65117ad39c" x="36" y="62.88" style="stroke: #000000; stroke-width: 0.8"/>
      </g>
     </g>
     <g id="text_8">
      <!-- $\mathdefault{750}$ -->
      <g transform="translate(6.08 67.439062) scale(0.12 -0.12)">
       <use xlink:href="#DejaVuSans-37" transform="translate(0 0.78125)"/>
       <use xlink:href="#DejaVuSans-35" transform="translate(63.623047 0.78125)"/>
       <use xlink:href="#DejaVuSans-30" transform="translate(127.246094 0.78125)"/>
      </g>
     </g>
    </g>
    <g id="text_9">
     <!-- Diploid N$_e$1 -->
     <g transform="translate(-1.28 154.36) rotate(-90) scale(0.16 -0.16)">
      <use xlink:href="#DejaVuSans-44" transform="translate(0 0.015625)"/>
      <use xlink:href="#DejaVuSans-69" transform="translate(77.001953 0.015625)"/>
      <use xlink:href="#DejaVuSans-70" transform="translate(104.785156 0.015625)"/>
      <use xlink:href="#DejaVuSans-6c" transform="translate(168.261719 0.015625)"/>
      <use xlink:href="#DejaVuSans-6f" transform="translate(196.044922 0.015625)"/>
      <use xlink:href="#DejaVuSans-69" transform="translate(257.226562 0.015625)"/>
      <use xlink:href="#DejaVuSans-64" transform="translate(285.009766 0.015625)"/>
      <use xlink:href="#DejaVuSans-20" transform="translate(348.486328 0.015625)"/>
      <use xlink:href="#DejaVuSans-4e" transform="translate(380.273438 0.015625)"/>
      <use xlink:href="#DejaVuSans-Oblique-65" transform="translate(456.035156 -16.390625) scale(0.7)"/>
      <use xlink:href="#DejaVuSans-31" transform="translate(501.835938 0.015625)"/>
     </g>
    </g>
    <g id="text_10">
     <!-- $\times\mathdefault{10^{3}}\mathdefault{}$ -->
     <g transform="translate(36 22.92) scale(0.1 -0.1)">
      <use xlink:href="#DejaVuSans-d7" transform="translate(0 0.765625)"/>
      <use xlink:href="#DejaVuSans-31" transform="translate(83.789062 0.765625)"/>
      <use xlink:href="#DejaVuSans-30" transform="translate(147.412109 0.765625)"/>
      <use xlink:href="#DejaVuSans-33" transform="translate(211.992188 39.046875) scale(0.7)"/>
     </g>
    </g>
   </g>
   <g id="patch_3">
    <path d="M 36 192.24 
L 36 25.92 
" style="fill: none; stroke: #000000; stroke-width: 0.8; stroke-linejoin: miter; stroke-linecap: square"/>
   </g>
   <g id="patch_4">
    <path d="M 214.56 192.24 
L 214.56 25.92 
" style="fill: none; stroke: #000000; stroke-width: 0.8; stroke-linejoin: miter; stroke-linecap: square"/>
   </g>
   <g id="patch_5">
    <path d="M 36 192.24 
L 214.56 192.24 
" style="fill: none; stroke: #000000; stroke-width: 0.8; stroke-linejoin: miter; stroke-linecap: square"/>
   </g>
   <g id="patch_6">
    <path d="M 36 25.92 
L 214.56 25.92 
" style="fill: none; stroke: #000000; stroke-width: 0.8; stroke-linejoin: miter; stroke-linecap: square"/>
   </g>
   <g id="text_11">
    <!-- Ne0Ne1-MSSMC-RGT-P2-S4 -->
    <g transform="translate(16.485 10.92) scale(0.16 -0.16)">
     <defs>
      <path id="DejaVuSans-65" d="M 3597 1894 
L 3597 1613 
L 953 1613 
Q 991 1019 1311 708 
Q 1631 397 2203 397 
Q 2534 397 2845 478 
Q 3156 559 3463 722 
L 3463 178 
Q 3153 47 2828 -22 
Q 2503 -91 2169 -91 
Q 1331 -91 842 396 
Q 353 884 353 1716 
Q 353 2575 817 3079 
Q 1281 3584 2069 3584 
Q 2775 3584 3186 3129 
Q 3597 2675 3597 1894 
z
M 3022 2063 
Q 3016 2534 2758 2815 
Q 2500 3097 2075 3097 
Q 1594 3097 1305 2825 
Q 1016 2553 972 2059 
L 3022 2063 
z
" transform="scale(0.015625)"/>
      <path id="DejaVuSans-2d" d="M 313 2009 
L 1997 2009 
L 1997 1497 
L 313 1497 
L 313 2009 
z
" transform="scale(0.015625)"/>
      <path id="DejaVuSans-4d" d="M 628 4666 
L 1569 4666 
L 2759 1491 
L 3956 4666 
L 4897 4666 
L 4897 0 
L 4281 0 
L 4281 4097 
L 3078 897 
L 2444 897 
L 1241 4097 
L 1241 0 
L 628 0 
L 628 4666 
z
" transform="scale(0.015625)"/>
      <path id="DejaVuSans-53" d="M 3425 4513 
L 3425 3897 
Q 3066 4069 2747 4153 
Q 2428 4238 2131 4238 
Q 1616 4238 1336 4038 
Q 1056 3838 1056 3469 
Q 1056 3159 1242 3001 
Q 1428 2844 1947 2747 
L 2328 2669 
Q 3034 2534 3370 2195 
Q 3706 1856 3706 1288 
Q 3706 609 3251 259 
Q 2797 -91 1919 -91 
Q 1588 -91 1214 -16 
Q 841 59 441 206 
L 441 856 
Q 825 641 1194 531 
Q 1563 422 1919 422 
Q 2459 422 2753 634 
Q 3047 847 3047 1241 
Q 3047 1584 2836 1778 
Q 2625 1972 2144 2069 
L 1759 2144 
Q 1053 2284 737 2584 
Q 422 2884 422 3419 
Q 422 4038 858 4394 
Q 1294 4750 2059 4750 
Q 2388 4750 2728 4690 
Q 3069 4631 3425 4513 
z
" transform="scale(0.015625)"/>
      <path id="DejaVuSans-43" d="M 4122 4306 
L 4122 3641 
Q 3803 3938 3442 4084 
Q 3081 4231 2675 4231 
Q 1875 4231 1450 3742 
Q 1025 3253 1025 2328 
Q 1025 1406 1450 917 
Q 1875 428 2675 428 
Q 3081 428 3442 575 
Q 3803 722 4122 1019 
L 4122 359 
Q 3791 134 3420 21 
Q 3050 -91 2638 -91 
Q 1578 -91 968 557 
Q 359 1206 359 2328 
Q 359 3453 968 4101 
Q 1578 4750 2638 4750 
Q 3056 4750 3426 4639 
Q 3797 4528 4122 4306 
z
" transform="scale(0.015625)"/>
      <path id="DejaVuSans-52" d="M 2841 2188 
Q 3044 2119 3236 1894 
Q 3428 1669 3622 1275 
L 4263 0 
L 3584 0 
L 2988 1197 
Q 2756 1666 2539 1819 
Q 2322 1972 1947 1972 
L 1259 1972 
L 1259 0 
L 628 0 
L 628 4666 
L 2053 4666 
Q 2853 4666 3247 4331 
Q 3641 3997 3641 3322 
Q 3641 2881 3436 2590 
Q 3231 2300 2841 2188 
z
M 1259 4147 
L 1259 2491 
L 2053 2491 
Q 2509 2491 2742 2702 
Q 2975 2913 2975 3322 
Q 2975 3731 2742 3939 
Q 2509 4147 2053 4147 
L 1259 4147 
z
" transform="scale(0.015625)"/>
      <path id="DejaVuSans-47" d="M 3809 666 
L 3809 1919 
L 2778 1919 
L 2778 2438 
L 4434 2438 
L 4434 434 
Q 4069 175 3628 42 
Q 3188 -91 2688 -91 
Q 1594 -91 976 548 
Q 359 1188 359 2328 
Q 359 3472 976 4111 
Q 1594 4750 2688 4750 
Q 3144 4750 3555 4637 
Q 3966 4525 4313 4306 
L 4313 3634 
Q 3963 3931 3569 4081 
Q 3175 4231 2741 4231 
Q 1884 4231 1454 3753 
Q 1025 3275 1025 2328 
Q 1025 1384 1454 906 
Q 1884 428 2741 428 
Q 3075 428 3337 486 
Q 3600 544 3809 666 
z
" transform="scale(0.015625)"/>
      <path id="DejaVuSans-54" d="M -19 4666 
L 3928 4666 
L 3928 4134 
L 2272 4134 
L 2272 0 
L 1638 0 
L 1638 4134 
L -19 4134 
L -19 4666 
z
" transform="scale(0.015625)"/>
      <path id="DejaVuSans-50" d="M 1259 4147 
L 1259 2394 
L 2053 2394 
Q 2494 2394 2734 2622 
Q 2975 2850 2975 3272 
Q 2975 3691 2734 3919 
Q 2494 4147 2053 4147 
L 1259 4147 
z
M 628 4666 
L 2053 4666 
Q 2838 4666 3239 4311 
Q 3641 3956 3641 3272 
Q 3641 2581 3239 2228 
Q 2838 1875 2053 1875 
L 1259 1875 
L 1259 0 
L 628 0 
L 628 4666 
z
" transform="scale(0.015625)"/>
      <path id="DejaVuSans-34" d="M 2419 4116 
L 825 1625 
L 2419 1625 
L 2419 4116 
z
M 2253 4666 
L 3047 4666 
L 3047 1625 
L 3713 1625 
L 3713 1100 
L 3047 1100 
L 3047 0 
L 2419 0 
L 2419 1100 
L 313 1100 
L 313 1709 
L 2253 4666 
z
" transform="scale(0.015625)"/>
     </defs>
     <use xlink:href="#DejaVuSans-4e"/>
     <use xlink:href="#DejaVuSans-65" x="74.804688"/>
     <use xlink:href="#DejaVuSans-30" x="136.328125"/>
     <use xlink:href="#DejaVuSans-4e" x="199.951172"/>
     <use xlink:href="#DejaVuSans-65" x="274.755859"/>
     <use xlink:href="#DejaVuSans-31" x="336.279297"/>
     <use xlink:href="#DejaVuSans-2d" x="399.902344"/>
     <use xlink:href="#DejaVuSans-4d" x="435.986328"/>
     <use xlink:href="#DejaVuSans-53" x="522.265625"/>
     <use xlink:href="#DejaVuSans-53" x="585.742188"/>
     <use xlink:href="#DejaVuSans-4d" x="649.21875"/>
     <use xlink:href="#DejaVuSans-43" x="735.498047"/>
     <use xlink:href="#DejaVuSans-2d" x="805.322266"/>
     <use xlink:href="#DejaVuSans-52" x="841.40625"/>
     <use xlink:href="#DejaVuSans-47" x="910.888672"/>
     <use xlink:href="#DejaVuSans-54" x="984.753906"/>
     <use xlink:href="#DejaVuSans-2d" x="1036.712891"/>
     <use xlink:href="#DejaVuSans-50" x="1072.796875"/>
     <use xlink:href="#DejaVuSans-32" x="1133.099609"/>
     <use xlink:href="#DejaVuSans-2d" x="1196.722656"/>
     <use xlink:href="#DejaVuSans-53" x="1232.806641"/>
     <use xlink:href="#DejaVuSans-34" x="1296.283203"/>
    </g>
   </g>
  </g>
  <g id="axes_2">
   <g id="patch_7">
    <path d="M 225.72 192.24 
L 234.036 192.24 
L 234.036 25.92 
L 225.72 25.92 
z
" style="fill: #ffffff"/>
   </g>
   <g id="QuadMesh_1">
    <path d="M 225.72 192.24 
L 234.036 192.24 
L 234.036 186.08 
L 225.72 186.08 
L 225.72 192.24 
" clip-path="url(#p40d597b12b)" style="fill: #440154"/>
    <path d="M 225.72 186.08 
L 234.036 186.08 
L 234.036 179.92 
L 225.72 179.92 
L 225.72 186.08 
" clip-path="url(#p40d597b12b)" style="fill: #440154"/>
    <path d="M 225.72 179.92 
L 234.036 179.92 
L 234.036 173.76 
L 225.72 173.76 
L 225.72 179.92 
" clip-path="url(#p40d597b12b)" style="fill: #440154"/>
    <path d="M 225.72 173.76 
L 234.036 173.76 
L 234.036 167.6 
L 225.72 167.6 
L 225.72 173.76 
" clip-path="url(#p40d597b12b)" style="fill: #440154"/>
    <path d="M 225.72 167.6 
L 234.036 167.6 
L 234.036 161.44 
L 225.72 161.44 
L 225.72 167.6 
" clip-path="url(#p40d597b12b)" style="fill: #440154"/>
    <path d="M 225.72 161.44 
L 234.036 161.44 
L 234.036 155.28 
L 225.72 155.28 
L 225.72 161.44 
" clip-path="url(#p40d597b12b)" style="fill: #440154"/>
    <path d="M 225.72 155.28 
L 234.036 155.28 
L 234.036 149.12 
L 225.72 149.12 
L 225.72 155.28 
" clip-path="url(#p40d597b12b)" style="fill: #440154"/>
    <path d="M 225.72 149.12 
L 234.036 149.12 
L 234.036 142.96 
L 225.72 142.96 
L 225.72 149.12 
" clip-path="url(#p40d597b12b)" style="fill: #440154"/>
    <path d="M 225.72 142.96 
L 234.036 142.96 
L 234.036 136.8 
L 225.72 136.8 
L 225.72 142.96 
" clip-path="url(#p40d597b12b)" style="fill: #440154"/>
    <path d="M 225.72 136.8 
L 234.036 136.8 
L 234.036 130.64 
L 225.72 130.64 
L 225.72 136.8 
" clip-path="url(#p40d597b12b)" style="fill: #440154"/>
    <path d="M 225.72 130.64 
L 234.036 130.64 
L 234.036 124.48 
L 225.72 124.48 
L 225.72 130.64 
" clip-path="url(#p40d597b12b)" style="fill: #440154"/>
    <path d="M 225.72 124.48 
L 234.036 124.48 
L 234.036 118.32 
L 225.72 118.32 
L 225.72 124.48 
" clip-path="url(#p40d597b12b)" style="fill: #440154"/>
    <path d="M 225.72 118.32 
L 234.036 118.32 
L 234.036 112.16 
L 225.72 112.16 
L 225.72 118.32 
" clip-path="url(#p40d597b12b)" style="fill: #440154"/>
    <path d="M 225.72 112.16 
L 234.036 112.16 
L 234.036 106 
L 225.72 106 
L 225.72 112.16 
" clip-path="url(#p40d597b12b)" style="fill: #440154"/>
    <path d="M 225.72 106 
L 234.036 106 
L 234.036 99.84 
L 225.72 99.84 
L 225.72 106 
" clip-path="url(#p40d597b12b)" style="fill: #481c6e"/>
    <path d="M 225.72 99.84 
L 234.036 99.84 
L 234.036 93.68 
L 225.72 93.68 
L 225.72 99.84 
" clip-path="url(#p40d597b12b)" style="fill: #463480"/>
    <path d="M 225.72 93.68 
L 234.036 93.68 
L 234.036 87.52 
L 225.72 87.52 
L 225.72 93.68 
" clip-path="url(#p40d597b12b)" style="fill: #3e4a89"/>
    <path d="M 225.72 87.52 
L 234.036 87.52 
L 234.036 81.36 
L 225.72 81.36 
L 225.72 87.52 
" clip-path="url(#p40d597b12b)" style="fill: #355f8d"/>
    <path d="M 225.72 81.36 
L 234.036 81.36 
L 234.036 75.2 
L 225.72 75.2 
L 225.72 81.36 
" clip-path="url(#p40d597b12b)" style="fill: #2c718e"/>
    <path d="M 225.72 75.2 
L 234.036 75.2 
L 234.036 69.04 
L 225.72 69.04 
L 225.72 75.2 
" clip-path="url(#p40d597b12b)" style="fill: #25838e"/>
    <path d="M 225.72 69.04 
L 234.036 69.04 
L 234.036 62.88 
L 225.72 62.88 
L 225.72 69.04 
" clip-path="url(#p40d597b12b)" style="fill: #1f958b"/>
    <path d="M 225.72 62.88 
L 234.036 62.88 
L 234.036 56.72 
L 225.72 56.72 
L 225.72 62.88 
" clip-path="url(#p40d597b12b)" style="fill: #22a785"/>
    <path d="M 225.72 56.72 
L 234.036 56.72 
L 234.036 50.56 
L 225.72 50.56 
L 225.72 56.72 
" clip-path="url(#p40d597b12b)" style="fill: #35b779"/>
    <path d="M 225.72 50.56 
L 234.036 50.56 
L 234.036 44.4 
L 225.72 44.4 
L 225.72 50.56 
" clip-path="url(#p40d597b12b)" style="fill: #58c765"/>
    <path d="M 225.72 44.4 
L 234.036 44.4 
L 234.036 38.24 
L 225.72 38.24 
L 225.72 44.4 
" clip-path="url(#p40d597b12b)" style="fill: #84d44b"/>
    <path d="M 225.72 38.24 
L 234.036 38.24 
L 234.036 32.08 
L 225.72 32.08 
L 225.72 38.24 
" clip-path="url(#p40d597b12b)" style="fill: #b5de2b"/>
    <path d="M 225.72 32.08 
L 234.036 32.08 
L 234.036 25.92 
L 225.72 25.92 
L 225.72 32.08 
" clip-path="url(#p40d597b12b)" style="fill: #e7e419"/>
   </g>
   <g id="matplotlib.axis_3"/>
   <g id="matplotlib.axis_4">
    <g id="ytick_4">
     <g id="line2d_7">
      <defs>
       <path id="mfdae9f5dfd" d="M 0 0 
L 3.5 0 
" style="stroke: #000000; stroke-width: 0.8"/>
      </defs>
      <g>
       <use xlink:href="#mfdae9f5dfd" x="234.036" y="192.24" style="stroke: #000000; stroke-width: 0.8"/>
      </g>
     </g>
     <g id="text_12">
      <!-- 12650 -->
      <g transform="translate(241.036 196.039219) scale(0.1 -0.1)">
       <defs>
        <path id="DejaVuSans-2212" d="M 678 2272 
L 4684 2272 
L 4684 1741 
L 678 1741 
L 678 2272 
z
" transform="scale(0.015625)"/>
        <path id="DejaVuSans-36" d="M 2113 2584 
Q 1688 2584 1439 2293 
Q 1191 2003 1191 1497 
Q 1191 994 1439 701 
Q 1688 409 2113 409 
Q 2538 409 2786 701 
Q 3034 994 3034 1497 
Q 3034 2003 2786 2293 
Q 2538 2584 2113 2584 
z
M 3366 4563 
L 3366 3988 
Q 3128 4100 2886 4159 
Q 2644 4219 2406 4219 
Q 1781 4219 1451 3797 
Q 1122 3375 1075 2522 
Q 1259 2794 1537 2939 
Q 1816 3084 2150 3084 
Q 2853 3084 3261 2657 
Q 3669 2231 3669 1497 
Q 3669 778 3244 343 
Q 2819 -91 2113 -91 
Q 1303 -91 875 529 
Q 447 1150 447 2328 
Q 447 3434 972 4092 
Q 1497 4750 2381 4750 
Q 2619 4750 2861 4703 
Q 3103 4656 3366 4563 
z
" transform="scale(0.015625)"/>
       </defs>
       <use xlink:href="#DejaVuSans-2212"/>
       <use xlink:href="#DejaVuSans-31" x="83.789062"/>
       <use xlink:href="#DejaVuSans-32" x="147.412109"/>
       <use xlink:href="#DejaVuSans-36" x="211.035156"/>
       <use xlink:href="#DejaVuSans-35" x="274.658203"/>
       <use xlink:href="#DejaVuSans-30" x="338.28125"/>
      </g>
     </g>
    </g>
    <g id="ytick_5">
     <g id="line2d_8">
      <g>
       <use xlink:href="#mfdae9f5dfd" x="234.036" y="173.76" style="stroke: #000000; stroke-width: 0.8"/>
      </g>
     </g>
     <g id="text_13">
      <!-- 12500 -->
      <g transform="translate(241.036 177.559219) scale(0.1 -0.1)">
       <use xlink:href="#DejaVuSans-2212"/>
       <use xlink:href="#DejaVuSans-31" x="83.789062"/>
       <use xlink:href="#DejaVuSans-32" x="147.412109"/>
       <use xlink:href="#DejaVuSans-35" x="211.035156"/>
       <use xlink:href="#DejaVuSans-30" x="274.658203"/>
       <use xlink:href="#DejaVuSans-30" x="338.28125"/>
      </g>
     </g>
    </g>
    <g id="ytick_6">
     <g id="line2d_9">
      <g>
       <use xlink:href="#mfdae9f5dfd" x="234.036" y="155.28" style="stroke: #000000; stroke-width: 0.8"/>
      </g>
     </g>
     <g id="text_14">
      <!-- 12350 -->
      <g transform="translate(241.036 159.079219) scale(0.1 -0.1)">
       <use xlink:href="#DejaVuSans-2212"/>
       <use xlink:href="#DejaVuSans-31" x="83.789062"/>
       <use xlink:href="#DejaVuSans-32" x="147.412109"/>
       <use xlink:href="#DejaVuSans-33" x="211.035156"/>
       <use xlink:href="#DejaVuSans-35" x="274.658203"/>
       <use xlink:href="#DejaVuSans-30" x="338.28125"/>
      </g>
     </g>
    </g>
    <g id="ytick_7">
     <g id="line2d_10">
      <g>
       <use xlink:href="#mfdae9f5dfd" x="234.036" y="136.8" style="stroke: #000000; stroke-width: 0.8"/>
      </g>
     </g>
     <g id="text_15">
      <!-- 12200 -->
      <g transform="translate(241.036 140.599219) scale(0.1 -0.1)">
       <use xlink:href="#DejaVuSans-2212"/>
       <use xlink:href="#DejaVuSans-31" x="83.789062"/>
       <use xlink:href="#DejaVuSans-32" x="147.412109"/>
       <use xlink:href="#DejaVuSans-32" x="211.035156"/>
       <use xlink:href="#DejaVuSans-30" x="274.658203"/>
       <use xlink:href="#DejaVuSans-30" x="338.28125"/>
      </g>
     </g>
    </g>
    <g id="ytick_8">
     <g id="line2d_11">
      <g>
       <use xlink:href="#mfdae9f5dfd" x="234.036" y="118.32" style="stroke: #000000; stroke-width: 0.8"/>
      </g>
     </g>
     <g id="text_16">
      <!-- 12050 -->
      <g transform="translate(241.036 122.119219) scale(0.1 -0.1)">
       <use xlink:href="#DejaVuSans-2212"/>
       <use xlink:href="#DejaVuSans-31" x="83.789062"/>
       <use xlink:href="#DejaVuSans-32" x="147.412109"/>
       <use xlink:href="#DejaVuSans-30" x="211.035156"/>
       <use xlink:href="#DejaVuSans-35" x="274.658203"/>
       <use xlink:href="#DejaVuSans-30" x="338.28125"/>
      </g>
     </g>
    </g>
    <g id="ytick_9">
     <g id="line2d_12">
      <g>
       <use xlink:href="#mfdae9f5dfd" x="234.036" y="99.84" style="stroke: #000000; stroke-width: 0.8"/>
      </g>
     </g>
     <g id="text_17">
      <!-- 11900 -->
      <g transform="translate(241.036 103.639219) scale(0.1 -0.1)">
       <defs>
        <path id="DejaVuSans-39" d="M 703 97 
L 703 672 
Q 941 559 1184 500 
Q 1428 441 1663 441 
Q 2288 441 2617 861 
Q 2947 1281 2994 2138 
Q 2813 1869 2534 1725 
Q 2256 1581 1919 1581 
Q 1219 1581 811 2004 
Q 403 2428 403 3163 
Q 403 3881 828 4315 
Q 1253 4750 1959 4750 
Q 2769 4750 3195 4129 
Q 3622 3509 3622 2328 
Q 3622 1225 3098 567 
Q 2575 -91 1691 -91 
Q 1453 -91 1209 -44 
Q 966 3 703 97 
z
M 1959 2075 
Q 2384 2075 2632 2365 
Q 2881 2656 2881 3163 
Q 2881 3666 2632 3958 
Q 2384 4250 1959 4250 
Q 1534 4250 1286 3958 
Q 1038 3666 1038 3163 
Q 1038 2656 1286 2365 
Q 1534 2075 1959 2075 
z
" transform="scale(0.015625)"/>
       </defs>
       <use xlink:href="#DejaVuSans-2212"/>
       <use xlink:href="#DejaVuSans-31" x="83.789062"/>
       <use xlink:href="#DejaVuSans-31" x="147.412109"/>
       <use xlink:href="#DejaVuSans-39" x="211.035156"/>
       <use xlink:href="#DejaVuSans-30" x="274.658203"/>
       <use xlink:href="#DejaVuSans-30" x="338.28125"/>
      </g>
     </g>
    </g>
    <g id="ytick_10">
     <g id="line2d_13">
      <g>
       <use xlink:href="#mfdae9f5dfd" x="234.036" y="81.36" style="stroke: #000000; stroke-width: 0.8"/>
      </g>
     </g>
     <g id="text_18">
      <!-- 11750 -->
      <g transform="translate(241.036 85.159219) scale(0.1 -0.1)">
       <use xlink:href="#DejaVuSans-2212"/>
       <use xlink:href="#DejaVuSans-31" x="83.789062"/>
       <use xlink:href="#DejaVuSans-31" x="147.412109"/>
       <use xlink:href="#DejaVuSans-37" x="211.035156"/>
       <use xlink:href="#DejaVuSans-35" x="274.658203"/>
       <use xlink:href="#DejaVuSans-30" x="338.28125"/>
      </g>
     </g>
    </g>
    <g id="ytick_11">
     <g id="line2d_14">
      <g>
       <use xlink:href="#mfdae9f5dfd" x="234.036" y="62.88" style="stroke: #000000; stroke-width: 0.8"/>
      </g>
     </g>
     <g id="text_19">
      <!-- 11600 -->
      <g transform="translate(241.036 66.679219) scale(0.1 -0.1)">
       <use xlink:href="#DejaVuSans-2212"/>
       <use xlink:href="#DejaVuSans-31" x="83.789062"/>
       <use xlink:href="#DejaVuSans-31" x="147.412109"/>
       <use xlink:href="#DejaVuSans-36" x="211.035156"/>
       <use xlink:href="#DejaVuSans-30" x="274.658203"/>
       <use xlink:href="#DejaVuSans-30" x="338.28125"/>
      </g>
     </g>
    </g>
    <g id="ytick_12">
     <g id="line2d_15">
      <g>
       <use xlink:href="#mfdae9f5dfd" x="234.036" y="44.4" style="stroke: #000000; stroke-width: 0.8"/>
      </g>
     </g>
     <g id="text_20">
      <!-- 11450 -->
      <g transform="translate(241.036 48.199219) scale(0.1 -0.1)">
       <use xlink:href="#DejaVuSans-2212"/>
       <use xlink:href="#DejaVuSans-31" x="83.789062"/>
       <use xlink:href="#DejaVuSans-31" x="147.412109"/>
       <use xlink:href="#DejaVuSans-34" x="211.035156"/>
       <use xlink:href="#DejaVuSans-35" x="274.658203"/>
       <use xlink:href="#DejaVuSans-30" x="338.28125"/>
      </g>
     </g>
    </g>
    <g id="ytick_13">
     <g id="line2d_16">
      <g>
       <use xlink:href="#mfdae9f5dfd" x="234.036" y="25.92" style="stroke: #000000; stroke-width: 0.8"/>
      </g>
     </g>
     <g id="text_21">
      <!-- 11300 -->
      <g transform="translate(241.036 29.719219) scale(0.1 -0.1)">
       <use xlink:href="#DejaVuSans-2212"/>
       <use xlink:href="#DejaVuSans-31" x="83.789062"/>
       <use xlink:href="#DejaVuSans-31" x="147.412109"/>
       <use xlink:href="#DejaVuSans-33" x="211.035156"/>
       <use xlink:href="#DejaVuSans-30" x="274.658203"/>
       <use xlink:href="#DejaVuSans-30" x="338.28125"/>
      </g>
     </g>
    </g>
    <g id="text_22">
     <!-- log likelihood -->
     <g transform="translate(294.346313 148.704375) rotate(-90) scale(0.12 -0.12)">
      <defs>
       <path id="DejaVuSans-67" d="M 2906 1791 
Q 2906 2416 2648 2759 
Q 2391 3103 1925 3103 
Q 1463 3103 1205 2759 
Q 947 2416 947 1791 
Q 947 1169 1205 825 
Q 1463 481 1925 481 
Q 2391 481 2648 825 
Q 2906 1169 2906 1791 
z
M 3481 434 
Q 3481 -459 3084 -895 
Q 2688 -1331 1869 -1331 
Q 1566 -1331 1297 -1286 
Q 1028 -1241 775 -1147 
L 775 -588 
Q 1028 -725 1275 -790 
Q 1522 -856 1778 -856 
Q 2344 -856 2625 -561 
Q 2906 -266 2906 331 
L 2906 616 
Q 2728 306 2450 153 
Q 2172 0 1784 0 
Q 1141 0 747 490 
Q 353 981 353 1791 
Q 353 2603 747 3093 
Q 1141 3584 1784 3584 
Q 2172 3584 2450 3431 
Q 2728 3278 2906 2969 
L 2906 3500 
L 3481 3500 
L 3481 434 
z
" transform="scale(0.015625)"/>
       <path id="DejaVuSans-6b" d="M 581 4863 
L 1159 4863 
L 1159 1991 
L 2875 3500 
L 3609 3500 
L 1753 1863 
L 3688 0 
L 2938 0 
L 1159 1709 
L 1159 0 
L 581 0 
L 581 4863 
z
" transform="scale(0.015625)"/>
       <path id="DejaVuSans-68" d="M 3513 2113 
L 3513 0 
L 2938 0 
L 2938 2094 
Q 2938 2591 2744 2837 
Q 2550 3084 2163 3084 
Q 1697 3084 1428 2787 
Q 1159 2491 1159 1978 
L 1159 0 
L 581 0 
L 581 4863 
L 1159 4863 
L 1159 2956 
Q 1366 3272 1645 3428 
Q 1925 3584 2291 3584 
Q 2894 3584 3203 3211 
Q 3513 2838 3513 2113 
z
" transform="scale(0.015625)"/>
      </defs>
      <use xlink:href="#DejaVuSans-6c"/>
      <use xlink:href="#DejaVuSans-6f" x="27.783203"/>
      <use xlink:href="#DejaVuSans-67" x="88.964844"/>
      <use xlink:href="#DejaVuSans-20" x="152.441406"/>
      <use xlink:href="#DejaVuSans-6c" x="184.228516"/>
      <use xlink:href="#DejaVuSans-69" x="212.011719"/>
      <use xlink:href="#DejaVuSans-6b" x="239.794922"/>
      <use xlink:href="#DejaVuSans-65" x="294.080078"/>
      <use xlink:href="#DejaVuSans-6c" x="355.603516"/>
      <use xlink:href="#DejaVuSans-69" x="383.386719"/>
      <use xlink:href="#DejaVuSans-68" x="411.169922"/>
      <use xlink:href="#DejaVuSans-6f" x="474.548828"/>
      <use xlink:href="#DejaVuSans-6f" x="535.730469"/>
      <use xlink:href="#DejaVuSans-64" x="596.912109"/>
     </g>
    </g>
    <g id="text_23">
     <!-- 1e3 -->
     <g transform="translate(215.157875 22.92) scale(0.1 -0.1)">
      <use xlink:href="#DejaVuSans-31"/>
      <use xlink:href="#DejaVuSans-65" x="63.623047"/>
      <use xlink:href="#DejaVuSans-33" x="125.146484"/>
     </g>
    </g>
   </g>
   <g id="LineCollection_1"/>
   <g id="patch_8">
    <path d="M 225.72 192.24 
L 229.878 192.24 
L 234.036 192.24 
L 234.036 25.92 
L 229.878 25.92 
L 225.72 25.92 
L 225.72 192.24 
z
" style="fill: none; stroke: #000000; stroke-width: 0.8; stroke-linejoin: miter; stroke-linecap: square"/>
   </g>
  </g>
 </g>
 <defs>
  <clipPath id="pef5bdccba2">
   <rect x="36" y="25.92" width="178.56" height="166.32"/>
  </clipPath>
  <clipPath id="p40d597b12b">
   <rect x="225.72" y="25.92" width="8.316" height="166.32"/>
  </clipPath>
 </defs>
</svg>
