<?xml version="1.0" encoding="utf-8" standalone="no"?>
<!DOCTYPE svg PUBLIC "-//W3C//DTD SVG 1.1//EN"
  "http://www.w3.org/Graphics/SVG/1.1/DTD/svg11.dtd">
<svg xmlns:xlink="http://www.w3.org/1999/xlink" width="288pt" height="216pt" viewBox="0 0 288 216" xmlns="http://www.w3.org/2000/svg" version="1.1">
 <metadata>
  <rdf:RDF xmlns:dc="http://purl.org/dc/elements/1.1/" xmlns:cc="http://creativecommons.org/ns#" xmlns:rdf="http://www.w3.org/1999/02/22-rdf-syntax-ns#">
   <cc:Work>
    <dc:type rdf:resource="http://purl.org/dc/dcmitype/StillImage"/>
    <dc:date>2024-12-11T22:03:54.505937</dc:date>
    <dc:format>image/svg+xml</dc:format>
    <dc:creator>
     <cc:Agent>
      <dc:title>Matplotlib v3.8.4, https://matplotlib.org/</dc:title>
     </cc:Agent>
    </dc:creator>
   </cc:Work>
  </rdf:RDF>
 </metadata>
 <defs>
  <style type="text/css">*{stroke-linejoin: round; stroke-linecap: butt}</style>
 </defs>
 <g id="figure_1">
  <g id="patch_1">
   <path d="M 0 216 
L 288 216 
L 288 0 
L 0 0 
z
" style="fill: #ffffff"/>
  </g>
  <g id="axes_1">
   <g id="patch_2">
    <path d="M 36 192.24 
L 214.56 192.24 
L 214.56 25.92 
L 36 25.92 
z
" style="fill: #ffffff"/>
   </g>
   <g id="QuadContourSet_1">
    <path d="M 51.015561 142.344 
L 49.831393 136.8 
L 53.856 132.486412 
L 59.808 134.362667 
L 63.233916 136.8 
L 65.76 138.611176 
L 69.584126 142.344 
L 71.712 144.539174 
L 74.441934 147.888 
L 77.664 152.406709 
L 78.333273 153.432 
L 79.694506 158.976 
L 77.664 161.536884 
L 71.712 161.363413 
L 65.819034 158.976 
L 65.76 158.945615 
L 59.808 154.16359 
L 59.002207 153.432 
L 53.963199 147.888 
L 53.856 147.712789 
z
" clip-path="url(#pfd0110e257)" style="fill: #eae51a"/>
    <path d="M 45.703028 142.344 
L 43.057535 136.8 
L 42.375683 131.256 
L 46.569122 125.712 
L 47.904 125.096234 
L 53.856 125.633375 
L 53.991517 125.712 
L 59.808 128.932175 
L 62.703625 131.256 
L 65.76 133.626756 
L 69.031572 136.8 
L 71.712 139.380178 
L 74.413291 142.344 
L 77.664 146.025451 
L 79.201951 147.888 
L 83.324112 153.432 
L 83.616 154.018099 
L 86.01256 158.976 
L 86.462621 164.52 
L 83.616 167.10837 
L 77.664 167.442388 
L 71.712 165.686936 
L 69.417475 164.52 
L 65.76 162.387314 
L 60.785366 158.976 
L 59.808 158.188817 
L 54.568715 153.432 
L 53.856 152.653979 
L 49.689443 147.888 
L 47.904 145.318446 
z
M 53.856 147.712789 
L 53.963199 147.888 
L 59.002207 153.432 
L 59.808 154.16359 
L 65.76 158.945615 
L 65.819034 158.976 
L 71.712 161.363413 
L 77.664 161.536884 
L 79.694506 158.976 
L 78.333273 153.432 
L 77.664 152.406709 
L 74.441934 147.888 
L 71.712 144.539174 
L 69.584126 142.344 
L 65.76 138.611176 
L 63.233916 136.8 
L 59.808 134.362667 
L 53.856 132.486412 
L 49.831393 136.8 
L 51.015561 142.344 
z
" clip-path="url(#pfd0110e257)" style="fill: #bddf26"/>
    <path d="M 41.192918 142.344 
L 37.501552 136.8 
L 36 132.280295 
L 36 131.256 
L 36 127.659355 
L 36.285686 125.712 
L 41.331012 120.168 
L 41.952 119.815784 
L 47.904 118.983423 
L 51.699812 120.168 
L 53.856 120.813148 
L 59.808 124.569864 
L 61.111389 125.712 
L 65.76 129.571774 
L 67.449456 131.256 
L 71.712 135.354819 
L 73.059883 136.8 
L 77.664 141.684128 
L 78.25222 142.344 
L 82.962342 147.888 
L 83.616 148.752037 
L 87.084824 153.432 
L 89.568 157.406996 
L 90.562924 158.976 
L 92.394949 164.52 
L 90.93032 170.064 
L 89.568 171.010786 
L 83.616 172.063307 
L 77.664 171.084847 
L 74.999627 170.064 
L 71.712 168.676038 
L 65.76 165.379136 
L 64.49139 164.52 
L 59.808 161.004255 
L 57.272182 158.976 
L 53.856 155.851586 
L 51.198651 153.432 
L 47.904 149.867886 
L 45.859937 147.888 
L 41.952 143.073723 
z
M 47.904 145.318446 
L 49.689443 147.888 
L 53.856 152.653979 
L 54.568715 153.432 
L 59.808 158.188817 
L 60.785366 158.976 
L 65.76 162.387314 
L 69.417475 164.52 
L 71.712 165.686936 
L 77.664 167.442388 
L 83.616 167.10837 
L 86.462621 164.52 
L 86.01256 158.976 
L 83.616 154.018099 
L 83.324112 153.432 
L 79.201951 147.888 
L 77.664 146.025451 
L 74.413291 142.344 
L 71.712 139.380178 
L 69.031572 136.8 
L 65.76 133.626756 
L 62.703625 131.256 
L 59.808 128.932175 
L 53.991517 125.712 
L 53.856 125.633375 
L 47.904 125.096234 
L 46.569122 125.712 
L 42.375683 131.256 
L 43.057535 136.8 
L 45.703028 142.344 
z
" clip-path="url(#pfd0110e257)" style="fill: #90d743"/>
    <path d="M 36.661111 142.344 
L 36 141.415152 
L 36 136.8 
L 36 132.280295 
L 37.501552 136.8 
L 41.192918 142.344 
L 41.952 143.073723 
L 45.859937 147.888 
L 47.904 149.867886 
L 51.198651 153.432 
L 53.856 155.851586 
L 57.272182 158.976 
L 59.808 161.004255 
L 64.49139 164.52 
L 65.76 165.379136 
L 71.712 168.676038 
L 74.999627 170.064 
L 77.664 171.084847 
L 83.616 172.063307 
L 89.568 171.010786 
L 90.93032 170.064 
L 92.394949 164.52 
L 90.562924 158.976 
L 89.568 157.406996 
L 87.084824 153.432 
L 83.616 148.752037 
L 82.962342 147.888 
L 78.25222 142.344 
L 77.664 141.684128 
L 73.059883 136.8 
L 71.712 135.354819 
L 67.449456 131.256 
L 65.76 129.571774 
L 61.111389 125.712 
L 59.808 124.569864 
L 53.856 120.813148 
L 51.699812 120.168 
L 47.904 118.983423 
L 41.952 119.815784 
L 41.331012 120.168 
L 36.285686 125.712 
L 36 127.659355 
L 36 125.712 
L 36 120.168 
L 36 116.173442 
L 39.166761 114.624 
L 41.952 113.715677 
L 47.904 114.053379 
L 49.150691 114.624 
L 53.856 116.657025 
L 58.900424 120.168 
L 59.808 120.761484 
L 65.457457 125.712 
L 65.76 125.963203 
L 71.06923 131.256 
L 71.712 131.874081 
L 76.306276 136.8 
L 77.664 138.240297 
L 81.322103 142.344 
L 83.616 144.976912 
L 86.111311 147.888 
L 89.568 152.202879 
L 90.567039 153.432 
L 94.302738 158.976 
L 95.52 161.598285 
L 96.934483 164.52 
L 97.418178 170.064 
L 95.52 173.073373 
L 90.946347 175.608 
L 89.568 175.921333 
L 83.616 175.641964 
L 83.503205 175.608 
L 77.664 173.797609 
L 71.712 171.208756 
L 69.71347 170.064 
L 65.76 167.653744 
L 61.132676 164.52 
L 59.808 163.525587 
L 54.119895 158.976 
L 53.856 158.734644 
L 48.032287 153.432 
L 47.904 153.293221 
L 42.323571 147.888 
L 41.952 147.430253 
z
" clip-path="url(#pfd0110e257)" style="fill: #67cc5c"/>
    <path d="M 38.534238 147.888 
L 36 145.464005 
L 36 142.344 
L 36 141.415152 
L 36.661111 142.344 
L 41.952 147.430253 
L 42.323571 147.888 
L 47.904 153.293221 
L 48.032287 153.432 
L 53.856 158.734644 
L 54.119895 158.976 
L 59.808 163.525587 
L 61.132676 164.52 
L 65.76 167.653744 
L 69.71347 170.064 
L 71.712 171.208756 
L 77.664 173.797609 
L 83.503205 175.608 
L 83.616 175.641964 
L 89.568 175.921333 
L 90.946347 175.608 
L 95.52 173.073373 
L 97.418178 170.064 
L 96.934483 164.52 
L 95.52 161.598285 
L 94.302738 158.976 
L 90.567039 153.432 
L 89.568 152.202879 
L 86.111311 147.888 
L 83.616 144.976912 
L 81.322103 142.344 
L 77.664 138.240297 
L 76.306276 136.8 
L 71.712 131.874081 
L 71.06923 131.256 
L 65.76 125.963203 
L 65.457457 125.712 
L 59.808 120.761484 
L 58.900424 120.168 
L 53.856 116.657025 
L 49.150691 114.624 
L 47.904 114.053379 
L 41.952 113.715677 
L 39.166761 114.624 
L 36 116.173442 
L 36 114.624 
L 36 109.933453 
L 39.633702 109.08 
L 41.952 108.667806 
L 44.149794 109.08 
L 47.904 109.759351 
L 53.856 112.822185 
L 56.136373 114.624 
L 59.808 117.325963 
L 62.814576 120.168 
L 65.76 122.776913 
L 68.586859 125.712 
L 71.712 128.792697 
L 73.983673 131.256 
L 77.664 135.115024 
L 79.19408 136.8 
L 83.616 141.619435 
L 84.271527 142.344 
L 89.131637 147.888 
L 89.568 148.432699 
L 93.631469 153.432 
L 95.52 156.078933 
L 97.669207 158.976 
L 100.834852 164.52 
L 101.472 166.969367 
L 102.327949 170.064 
L 101.472 173.679427 
L 100.64993 175.608 
L 95.52 178.591765 
L 89.568 179.24328 
L 83.616 178.276622 
L 77.664 176.320914 
L 76.240815 175.608 
L 71.712 173.345854 
L 65.982498 170.064 
L 65.76 169.928353 
L 59.808 165.617941 
L 58.356156 164.52 
L 53.856 160.794522 
L 51.584032 158.976 
L 47.904 155.608826 
L 45.162256 153.432 
L 41.952 150.346163 
z
" clip-path="url(#pfd0110e257)" style="fill: #44bf70"/>
    <path d="M 36 147.888 
L 36 145.464005 
L 38.534238 147.888 
L 41.952 150.346163 
L 45.162256 153.432 
L 47.904 155.608826 
L 51.584032 158.976 
L 53.856 160.794522 
L 58.356156 164.52 
L 59.808 165.617941 
L 65.76 169.928353 
L 65.982498 170.064 
L 71.712 173.345854 
L 76.240815 175.608 
L 77.664 176.320914 
L 83.616 178.276622 
L 89.568 179.24328 
L 95.52 178.591765 
L 100.64993 175.608 
L 101.472 173.679427 
L 102.327949 170.064 
L 101.472 166.969367 
L 100.834852 164.52 
L 97.669207 158.976 
L 95.52 156.078933 
L 93.631469 153.432 
L 89.568 148.432699 
L 89.131637 147.888 
L 84.271527 142.344 
L 83.616 141.619435 
L 79.19408 136.8 
L 77.664 135.115024 
L 73.983673 131.256 
L 71.712 128.792697 
L 68.586859 125.712 
L 65.76 122.776913 
L 62.814576 120.168 
L 59.808 117.325963 
L 56.136373 114.624 
L 53.856 112.822185 
L 47.904 109.759351 
L 44.149794 109.08 
L 41.952 108.667806 
L 39.633702 109.08 
L 36 109.933453 
L 36 109.08 
L 36 104.828566 
L 41.952 104.217359 
L 47.904 105.827665 
L 53.616877 109.08 
L 53.856 109.207367 
L 59.808 114.012196 
L 60.411661 114.624 
L 65.76 119.669045 
L 66.218488 120.168 
L 71.625227 125.712 
L 71.712 125.797539 
L 76.745827 131.256 
L 77.664 132.218755 
L 81.824102 136.8 
L 83.616 138.752983 
L 86.864858 142.344 
L 89.568 145.388865 
L 91.816366 147.888 
L 95.52 152.245508 
L 96.564761 153.432 
L 100.855517 158.976 
L 101.472 160.017279 
L 104.298216 164.52 
L 106.47518 170.064 
L 106.277721 175.608 
L 101.472 180.955671 
L 101.033211 181.152 
L 95.52 182.570832 
L 89.568 182.365619 
L 84.668298 181.152 
L 83.616 180.91128 
L 77.664 178.464122 
L 71.962348 175.608 
L 71.712 175.482951 
L 65.76 171.69612 
L 63.420796 170.064 
L 59.808 167.430919 
L 55.958794 164.52 
L 53.856 162.779191 
L 49.104488 158.976 
L 47.904 157.877572 
L 42.304738 153.432 
L 41.952 153.092933 
L 36 148.703108 
z
" clip-path="url(#pfd0110e257)" style="fill: #2ab07f"/>
    <path d="M 39.098397 153.432 
L 36 151.126003 
L 36 148.703108 
L 41.952 153.092933 
L 42.304738 153.432 
L 47.904 157.877572 
L 49.104488 158.976 
L 53.856 162.779191 
L 55.958794 164.52 
L 59.808 167.430919 
L 63.420796 170.064 
L 65.76 171.69612 
L 71.712 175.482951 
L 71.962348 175.608 
L 77.664 178.464122 
L 83.616 180.91128 
L 84.668298 181.152 
L 89.568 182.365619 
L 95.52 182.570832 
L 101.033211 181.152 
L 101.472 180.955671 
L 106.277721 175.608 
L 106.47518 170.064 
L 104.298216 164.52 
L 101.472 160.017279 
L 100.855517 158.976 
L 96.564761 153.432 
L 95.52 152.245508 
L 91.816366 147.888 
L 89.568 145.388865 
L 86.864858 142.344 
L 83.616 138.752983 
L 81.824102 136.8 
L 77.664 132.218755 
L 76.745827 131.256 
L 71.712 125.797539 
L 71.625227 125.712 
L 66.218488 120.168 
L 65.76 119.669045 
L 60.411661 114.624 
L 59.808 114.012196 
L 53.856 109.207367 
L 53.616877 109.08 
L 47.904 105.827665 
L 41.952 104.217359 
L 36 104.828566 
L 36 103.536 
L 36 100.246034 
L 41.952 100.104334 
L 47.904 102.073758 
L 50.105915 103.536 
L 53.856 105.85341 
L 57.545249 109.08 
L 59.808 110.913549 
L 63.469066 114.624 
L 65.76 116.785019 
L 68.868614 120.168 
L 71.712 123.077605 
L 74.074231 125.712 
L 77.664 129.529608 
L 79.217064 131.256 
L 83.616 136.000415 
L 84.348053 136.8 
L 89.45819 142.344 
L 89.568 142.467692 
L 94.444422 147.888 
L 95.52 149.153471 
L 99.287441 153.432 
L 101.472 156.196823 
L 103.788675 158.976 
L 107.424 164.211109 
L 107.653664 164.52 
L 110.225341 170.064 
L 110.931845 175.608 
L 108.476273 181.152 
L 107.424 182.156334 
L 101.472 185.283652 
L 95.52 186.027189 
L 89.568 185.218364 
L 83.616 183.323148 
L 78.964882 181.152 
L 77.664 180.60733 
L 71.712 177.281362 
L 69.159469 175.608 
L 65.76 173.431744 
L 60.933245 170.064 
L 59.808 169.243898 
L 53.856 164.704378 
L 53.609667 164.52 
L 47.904 159.82667 
L 46.687143 158.976 
L 41.952 155.117119 
z
" clip-path="url(#pfd0110e257)" style="fill: #1fa188"/>
    <path d="M 36 153.432 
L 36 151.126003 
L 39.098397 153.432 
L 41.952 155.117119 
L 46.687143 158.976 
L 47.904 159.82667 
L 53.609667 164.52 
L 53.856 164.704378 
L 59.808 169.243898 
L 60.933245 170.064 
L 65.76 173.431744 
L 69.159469 175.608 
L 71.712 177.281362 
L 77.664 180.60733 
L 78.964882 181.152 
L 83.616 183.323148 
L 89.568 185.218364 
L 95.52 186.027189 
L 101.472 185.283652 
L 107.424 182.156334 
L 108.476273 181.152 
L 110.931845 175.608 
L 110.225341 170.064 
L 107.653664 164.52 
L 107.424 164.211109 
L 103.788675 158.976 
L 101.472 156.196823 
L 99.287441 153.432 
L 95.52 149.153471 
L 94.444422 147.888 
L 89.568 142.467692 
L 89.45819 142.344 
L 84.348053 136.8 
L 83.616 136.000415 
L 79.217064 131.256 
L 77.664 129.529608 
L 74.074231 125.712 
L 71.712 123.077605 
L 68.868614 120.168 
L 65.76 116.785019 
L 63.469066 114.624 
L 59.808 110.913549 
L 57.545249 109.08 
L 53.856 105.85341 
L 50.105915 103.536 
L 47.904 102.073758 
L 41.952 100.104334 
L 36 100.246034 
L 36 97.992 
L 36 95.964101 
L 41.952 96.173939 
L 46.589311 97.992 
L 47.904 98.479749 
L 53.856 102.561862 
L 54.876476 103.536 
L 59.808 107.883837 
L 60.912955 109.08 
L 65.76 113.943253 
L 66.354867 114.624 
L 71.518739 120.168 
L 71.712 120.365762 
L 76.505908 125.712 
L 77.664 126.943595 
L 81.543444 131.256 
L 83.616 133.491328 
L 86.645226 136.8 
L 89.568 139.963162 
L 91.794712 142.344 
L 95.52 146.394529 
L 96.938378 147.888 
L 101.472 152.906674 
L 101.970266 153.432 
L 106.661102 158.976 
L 107.424 160.074623 
L 110.729197 164.52 
L 113.376 169.323754 
L 113.817497 170.064 
L 115.150444 175.608 
L 114.034724 181.152 
L 113.376 182.146523 
L 108.646374 186.696 
L 107.424 187.512597 
L 101.472 189.538367 
L 95.52 189.634772 
L 89.568 188.213746 
L 86.357272 186.696 
L 83.616 185.712614 
L 77.664 182.662175 
L 75.356162 181.152 
L 71.712 179.058723 
L 66.448298 175.608 
L 65.76 175.167369 
L 59.808 170.855648 
L 58.763048 170.064 
L 53.856 166.204942 
L 51.604877 164.52 
L 47.904 161.475757 
L 44.328178 158.976 
L 41.952 157.039546 
L 36 153.516113 
z
" clip-path="url(#pfd0110e257)" style="fill: #21908d"/>
    <path d="M 41.952 157.039546 
L 44.328178 158.976 
L 47.904 161.475757 
L 51.604877 164.52 
L 53.856 166.204942 
L 58.763048 170.064 
L 59.808 170.855648 
L 65.76 175.167369 
L 66.448298 175.608 
L 71.712 179.058723 
L 75.356162 181.152 
L 77.664 182.662175 
L 83.616 185.712614 
L 86.357272 186.696 
L 89.568 188.213746 
L 95.52 189.634772 
L 101.472 189.538367 
L 107.424 187.512597 
L 108.646374 186.696 
L 113.376 182.146523 
L 114.034724 181.152 
L 115.150444 175.608 
L 113.817497 170.064 
L 113.376 169.323754 
L 110.729197 164.52 
L 107.424 160.074623 
L 106.661102 158.976 
L 101.970266 153.432 
L 101.472 152.906674 
L 96.938378 147.888 
L 95.52 146.394529 
L 91.794712 142.344 
L 89.568 139.963162 
L 86.645226 136.8 
L 83.616 133.491328 
L 81.543444 131.256 
L 77.664 126.943595 
L 76.505908 125.712 
L 71.712 120.365762 
L 71.518739 120.168 
L 66.354867 114.624 
L 65.76 113.943253 
L 60.912955 109.08 
L 59.808 107.883837 
L 54.876476 103.536 
L 53.856 102.561862 
L 47.904 98.479749 
L 46.589311 97.992 
L 41.952 96.173939 
L 36 95.964101 
L 36 92.448 
L 36 91.881469 
L 41.952 92.379136 
L 42.097493 92.448 
L 47.904 95.035771 
L 51.846324 97.992 
L 53.856 99.389641 
L 58.199595 103.536 
L 59.808 104.954037 
L 63.619359 109.08 
L 65.76 111.227799 
L 68.727751 114.624 
L 71.712 117.815433 
L 73.744352 120.168 
L 77.664 124.455946 
L 78.766358 125.712 
L 83.616 131.005346 
L 83.842998 131.256 
L 88.942399 136.8 
L 89.568 137.477055 
L 94.11988 142.344 
L 95.52 143.86636 
L 99.33943 147.888 
L 101.472 150.248734 
L 104.491294 153.432 
L 107.424 156.830487 
L 109.395536 158.976 
L 113.376 164.043572 
L 113.779181 164.52 
L 117.146624 170.064 
L 119.083772 175.608 
L 118.797084 181.152 
L 115.51436 186.696 
L 113.376 188.877831 
L 107.936163 192.24 
L 107.424 192.24 
L 101.472 192.24 
L 95.52 192.24 
L 92.510666 192.24 
L 89.568 191.362399 
L 83.616 188.306081 
L 81.400268 186.696 
L 77.664 184.686913 
L 72.261974 181.152 
L 71.712 180.836084 
L 65.76 176.725697 
L 64.296143 175.608 
L 59.808 172.301187 
L 56.854981 170.064 
L 53.856 167.705507 
L 49.600087 164.52 
L 47.904 163.124844 
L 41.969212 158.976 
L 41.952 158.961973 
L 36 155.259481 
L 36 153.516113 
z
" clip-path="url(#pfd0110e257)" style="fill: #27808e"/>
    <path d="M 39.170851 158.976 
L 36 157.002849 
L 36 155.259481 
L 41.952 158.961973 
L 41.969212 158.976 
L 47.904 163.124844 
L 49.600087 164.52 
L 53.856 167.705507 
L 56.854981 170.064 
L 59.808 172.301187 
L 64.296143 175.608 
L 65.76 176.725697 
L 71.712 180.836084 
L 72.261974 181.152 
L 77.664 184.686913 
L 81.400268 186.696 
L 83.616 188.306081 
L 89.568 191.362399 
L 92.510666 192.24 
L 89.568 192.24 
L 85.864033 192.24 
L 83.616 191.042222 
L 77.664 186.714468 
L 77.644712 186.696 
L 71.712 182.576631 
L 69.949682 181.152 
L 65.76 178.223698 
L 62.334198 175.608 
L 59.808 173.746726 
L 54.946914 170.064 
L 53.856 169.206071 
L 47.904 164.71831 
L 47.598912 164.52 
L 41.952 160.408175 
z
M 41.952 88.746502 
L 47.904 91.642473 
L 48.873661 92.448 
L 53.856 96.278751 
L 55.51491 97.992 
L 59.808 102.079218 
L 61.071259 103.536 
L 65.76 108.534412 
L 66.212632 109.08 
L 71.100636 114.624 
L 71.712 115.277809 
L 75.936571 120.168 
L 77.664 122.057741 
L 80.871107 125.712 
L 83.616 128.708029 
L 85.923501 131.256 
L 89.568 135.172926 
L 91.098865 136.8 
L 95.52 141.461513 
L 96.381982 142.344 
L 101.472 147.636111 
L 101.725333 147.888 
L 107.012321 153.432 
L 107.424 153.909063 
L 112.080066 158.976 
L 113.376 160.625868 
L 116.671445 164.52 
L 119.328 168.550974 
L 120.411701 170.064 
L 122.725629 175.608 
L 123.097606 181.152 
L 121.045723 186.696 
L 119.328 189.173165 
L 116.375891 192.24 
L 113.376 192.24 
L 107.936163 192.24 
L 113.376 188.877831 
L 115.51436 186.696 
L 118.797084 181.152 
L 119.083772 175.608 
L 117.146624 170.064 
L 113.779181 164.52 
L 113.376 164.043572 
L 109.395536 158.976 
L 107.424 156.830487 
L 104.491294 153.432 
L 101.472 150.248734 
L 99.33943 147.888 
L 95.52 143.86636 
L 94.11988 142.344 
L 89.568 137.477055 
L 88.942399 136.8 
L 83.842998 131.256 
L 83.616 131.005346 
L 78.766358 125.712 
L 77.664 124.455946 
L 73.744352 120.168 
L 71.712 117.815433 
L 68.727751 114.624 
L 65.76 111.227799 
L 63.619359 109.08 
L 59.808 104.954037 
L 58.199595 103.536 
L 53.856 99.389641 
L 51.846324 97.992 
L 47.904 95.035771 
L 42.097493 92.448 
L 41.952 92.379136 
L 36 91.881469 
L 36 87.982861 
z
" clip-path="url(#pfd0110e257)" style="fill: #2d708e"/>
    <path d="M 36.36926 158.976 
L 36 158.746218 
L 36 157.002849 
L 39.170851 158.976 
L 41.952 160.408175 
L 47.598912 164.52 
L 47.904 164.71831 
L 53.856 169.206071 
L 54.946914 170.064 
L 59.808 173.746726 
L 62.334198 175.608 
L 65.76 178.223698 
L 69.949682 181.152 
L 71.712 182.576631 
L 77.644712 186.696 
L 77.664 186.714468 
L 83.616 191.042222 
L 85.864033 192.24 
L 83.616 192.24 
L 81.831225 192.24 
L 77.664 189.103623 
L 75.149439 186.696 
L 71.712 184.30922 
L 67.806409 181.152 
L 65.76 179.721699 
L 60.372253 175.608 
L 59.808 175.192265 
L 53.856 170.645156 
L 53.143797 170.064 
L 47.904 166.00618 
L 45.6176 164.52 
L 41.952 161.850877 
z
M 36 86.904 
L 36 84.186113 
L 41.952 85.166349 
L 45.123659 86.904 
L 47.904 88.333463 
L 52.856915 92.448 
L 53.856 93.216163 
L 58.480363 97.992 
L 59.808 99.255972 
L 63.519458 103.536 
L 65.76 105.92452 
L 68.377855 109.08 
L 71.712 112.820661 
L 73.204871 114.624 
L 77.664 119.684163 
L 78.074508 120.168 
L 82.975857 125.712 
L 83.616 126.410711 
L 88.004005 131.256 
L 89.568 132.936904 
L 93.20267 136.8 
L 95.52 139.243324 
L 98.548633 142.344 
L 101.472 145.383436 
L 103.990919 147.888 
L 107.424 151.45979 
L 109.43214 153.432 
L 113.376 157.64867 
L 114.706055 158.976 
L 119.328 164.27954 
L 119.554664 164.52 
L 123.555047 170.064 
L 125.28 173.670233 
L 126.291416 175.608 
L 127.186857 181.152 
L 125.951023 186.696 
L 125.28 188.021548 
L 122.579462 192.24 
L 119.328 192.24 
L 116.375891 192.24 
L 119.328 189.173165 
L 121.045723 186.696 
L 123.097606 181.152 
L 122.725629 175.608 
L 120.411701 170.064 
L 119.328 168.550974 
L 116.671445 164.52 
L 113.376 160.625868 
L 112.080066 158.976 
L 107.424 153.909063 
L 107.012321 153.432 
L 101.725333 147.888 
L 101.472 147.636111 
L 96.381982 142.344 
L 95.52 141.461513 
L 91.098865 136.8 
L 89.568 135.172926 
L 85.923501 131.256 
L 83.616 128.708029 
L 80.871107 125.712 
L 77.664 122.057741 
L 75.936571 120.168 
L 71.712 115.277809 
L 71.100636 114.624 
L 66.212632 109.08 
L 65.76 108.534412 
L 61.071259 103.536 
L 59.808 102.079218 
L 55.51491 97.992 
L 53.856 96.278751 
L 48.873661 92.448 
L 47.904 91.642473 
L 41.952 88.746502 
L 36 87.982861 
z
" clip-path="url(#pfd0110e257)" style="fill: #355f8d"/>
    <path d="M 36 158.976 
L 36 158.746218 
L 36.36926 158.976 
L 41.952 161.850877 
L 45.6176 164.52 
L 47.904 166.00618 
L 53.143797 170.064 
L 53.856 170.645156 
L 59.808 175.192265 
L 60.372253 175.608 
L 65.76 179.721699 
L 67.806409 181.152 
L 71.712 184.30922 
L 75.149439 186.696 
L 77.664 189.103623 
L 81.831225 192.24 
L 78.656814 192.24 
L 77.664 191.492779 
L 72.654166 186.696 
L 71.712 186.041809 
L 65.76 181.244716 
L 65.66046 181.152 
L 59.808 176.780115 
L 58.549625 175.608 
L 53.856 172.002165 
L 51.480791 170.064 
L 47.904 167.29405 
L 43.636287 164.52 
L 41.952 163.293578 
L 36 160.341319 
z
M 36 81.36 
L 36 80.450628 
L 40.507302 81.36 
L 41.952 81.640213 
L 47.904 85.063406 
L 49.928935 86.904 
L 53.856 90.203802 
L 55.876826 92.448 
L 59.808 96.468416 
L 61.050902 97.992 
L 65.76 103.320031 
L 65.944116 103.536 
L 70.543078 109.08 
L 71.712 110.391443 
L 75.215867 114.624 
L 77.664 117.40211 
L 80.0107 120.168 
L 83.616 124.203804 
L 84.948955 125.712 
L 89.568 130.738492 
L 90.076579 131.256 
L 95.306475 136.8 
L 95.52 137.025135 
L 100.715283 142.344 
L 101.472 143.130761 
L 106.256505 147.888 
L 107.424 149.102666 
L 111.832207 153.432 
L 113.376 155.082583 
L 117.277411 158.976 
L 119.328 161.328988 
L 122.335931 164.52 
L 125.28 168.407023 
L 126.647208 170.064 
L 129.721438 175.608 
L 131.11369 181.152 
L 130.439339 186.696 
L 127.89818 192.24 
L 125.28 192.24 
L 122.579462 192.24 
L 125.28 188.021548 
L 125.951023 186.696 
L 127.186857 181.152 
L 126.291416 175.608 
L 125.28 173.670233 
L 123.555047 170.064 
L 119.554664 164.52 
L 119.328 164.27954 
L 114.706055 158.976 
L 113.376 157.64867 
L 109.43214 153.432 
L 107.424 151.45979 
L 103.990919 147.888 
L 101.472 145.383436 
L 98.548633 142.344 
L 95.52 139.243324 
L 93.20267 136.8 
L 89.568 132.936904 
L 88.004005 131.256 
L 83.616 126.410711 
L 82.975857 125.712 
L 78.074508 120.168 
L 77.664 119.684163 
L 73.204871 114.624 
L 71.712 112.820661 
L 68.377855 109.08 
L 65.76 105.92452 
L 63.519458 103.536 
L 59.808 99.255972 
L 58.480363 97.992 
L 53.856 93.216163 
L 52.856915 92.448 
L 47.904 88.333463 
L 45.123659 86.904 
L 41.952 85.166349 
L 36 84.186113 
z
" clip-path="url(#pfd0110e257)" style="fill: #3d4d8a"/>
    <path d="M 41.458236 164.52 
L 36 161.913911 
L 36 160.341319 
L 41.952 163.293578 
L 43.636287 164.52 
L 47.904 167.29405 
L 51.480791 170.064 
L 53.856 172.002165 
L 58.549625 175.608 
L 59.808 176.780115 
L 65.66046 181.152 
L 65.76 181.244716 
L 71.712 186.041809 
L 72.654166 186.696 
L 77.664 191.492779 
L 78.656814 192.24 
L 77.664 192.24 
L 75.91924 192.24 
L 71.712 188.20972 
L 70.08688 186.696 
L 65.76 183.296236 
L 63.457963 181.152 
L 59.808 178.425417 
L 56.78324 175.608 
L 53.856 173.359175 
L 49.817786 170.064 
L 47.904 168.58192 
L 41.952 164.979917 
z
M 40.507302 81.36 
L 36 80.450628 
L 36 76.782759 
L 41.952 78.174181 
L 47.10432 81.36 
L 47.904 81.822973 
L 53.493906 86.904 
L 53.856 87.208258 
L 58.574216 92.448 
L 59.808 93.709793 
L 63.30132 97.992 
L 65.76 100.773833 
L 68.114785 103.536 
L 71.712 107.875179 
L 73.005488 109.08 
L 77.226863 114.624 
L 77.664 115.120057 
L 81.946892 120.168 
L 83.616 122.036414 
L 86.864511 125.712 
L 89.568 128.653964 
L 92.12514 131.256 
L 95.52 134.850899 
L 97.612541 136.8 
L 101.472 140.780819 
L 103.150221 142.344 
L 107.424 146.633454 
L 108.770872 147.888 
L 113.376 152.449889 
L 114.430388 153.432 
L 119.328 158.37225 
L 119.976182 158.976 
L 125.117199 164.52 
L 125.28 164.734944 
L 129.677121 170.064 
L 131.232 172.716028 
L 133.08501 175.608 
L 134.848603 181.152 
L 134.67777 186.696 
L 132.755591 192.24 
L 131.232 192.24 
L 127.89818 192.24 
L 130.439339 186.696 
L 131.11369 181.152 
L 129.721438 175.608 
L 126.647208 170.064 
L 125.28 168.407023 
L 122.335931 164.52 
L 119.328 161.328988 
L 117.277411 158.976 
L 113.376 155.082583 
L 111.832207 153.432 
L 107.424 149.102666 
L 106.256505 147.888 
L 101.472 143.130761 
L 100.715283 142.344 
L 95.52 137.025135 
L 95.306475 136.8 
L 90.076579 131.256 
L 89.568 130.738492 
L 84.948955 125.712 
L 83.616 124.203804 
L 80.0107 120.168 
L 77.664 117.40211 
L 75.215867 114.624 
L 71.712 110.391443 
L 70.543078 109.08 
L 65.944116 103.536 
L 65.76 103.320031 
L 61.050902 97.992 
L 59.808 96.468416 
L 55.876826 92.448 
L 53.856 90.203802 
L 49.928935 86.904 
L 47.904 85.063406 
L 41.952 81.640213 
z
" clip-path="url(#pfd0110e257)" style="fill: #443983"/>
    <path d="M 38.164572 164.52 
L 36 163.486504 
L 36 161.913911 
L 41.458236 164.52 
L 41.952 164.979917 
L 47.904 168.58192 
L 49.817786 170.064 
L 53.856 173.359175 
L 56.78324 175.608 
L 59.808 178.425417 
L 63.457963 181.152 
L 65.76 183.296236 
L 70.08688 186.696 
L 71.712 188.20972 
L 75.91924 192.24 
L 73.380464 192.24 
L 71.712 190.641713 
L 67.47591 186.696 
L 65.76 185.347756 
L 61.255465 181.152 
L 59.808 180.07072 
L 55.016855 175.608 
L 53.856 174.716184 
L 48.15478 170.064 
L 47.904 169.86979 
L 41.952 168.047806 
z
M 36 75.816 
L 36 72.886402 
L 41.952 74.005821 
L 43.895396 75.816 
L 47.904 78.222016 
L 51.272917 81.36 
L 53.856 83.702133 
L 57.293502 86.904 
L 59.808 89.940753 
L 62.499763 92.448 
L 65.551738 97.992 
L 65.76 98.227635 
L 70.285453 103.536 
L 71.712 105.256787 
L 75.816575 109.08 
L 77.664 111.610509 
L 80.899263 114.624 
L 83.616 119.206208 
L 84.648573 120.168 
L 88.780067 125.712 
L 89.568 126.569437 
L 94.173701 131.256 
L 95.52 132.681629 
L 99.941455 136.8 
L 101.472 138.378673 
L 105.729148 142.344 
L 107.424 144.045068 
L 111.549745 147.888 
L 113.376 149.697107 
L 117.385755 153.432 
L 119.328 155.391154 
L 123.176666 158.976 
L 125.28 161.255084 
L 128.785191 164.52 
L 131.232 167.70481 
L 133.76481 170.064 
L 136.396287 175.608 
L 137.184 177.764394 
L 139.341653 181.152 
L 139.439904 186.696 
L 137.473234 192.24 
L 137.184 192.24 
L 132.755591 192.24 
L 134.67777 186.696 
L 134.848603 181.152 
L 133.08501 175.608 
L 131.232 172.716028 
L 129.677121 170.064 
L 125.28 164.734944 
L 125.117199 164.52 
L 119.976182 158.976 
L 119.328 158.37225 
L 114.430388 153.432 
L 113.376 152.449889 
L 108.770872 147.888 
L 107.424 146.633454 
L 103.150221 142.344 
L 101.472 140.780819 
L 97.612541 136.8 
L 95.52 134.850899 
L 92.12514 131.256 
L 89.568 128.653964 
L 86.864511 125.712 
L 83.616 122.036414 
L 81.946892 120.168 
L 77.664 115.120057 
L 77.226863 114.624 
L 73.005488 109.08 
L 71.712 107.875179 
L 68.114785 103.536 
L 65.76 100.773833 
L 63.30132 97.992 
L 59.808 93.709793 
L 58.574216 92.448 
L 53.856 87.208258 
L 53.493906 86.904 
L 47.904 81.822973 
L 47.10432 81.36 
L 41.952 78.174181 
L 36 76.782759 
z
" clip-path="url(#pfd0110e257)" style="fill: #482475"/>
    <path d="M 36 186.696 
L 36 181.152 
L 36 175.608 
L 36 170.064 
L 36 164.52 
L 36 163.486504 
L 38.164572 164.52 
L 41.952 168.047806 
L 47.904 169.86979 
L 48.15478 170.064 
L 53.856 174.716184 
L 55.016855 175.608 
L 59.808 180.07072 
L 61.255465 181.152 
L 65.76 185.347756 
L 67.47591 186.696 
L 71.712 190.641713 
L 73.380464 192.24 
L 71.712 192.24 
L 65.76 192.24 
L 59.808 192.24 
L 53.856 192.24 
L 47.904 192.24 
L 41.952 192.24 
L 36 192.24 
z
M 36 70.272 
L 36 64.728 
L 36 59.184 
L 36 53.64 
L 36 48.096 
L 36 42.552 
L 36 37.008 
L 36 31.464 
L 36 25.92 
L 41.952 25.92 
L 47.904 25.92 
L 53.856 25.92 
L 59.808 25.92 
L 65.76 25.92 
L 71.712 25.92 
L 77.664 25.92 
L 83.616 25.92 
L 89.568 25.92 
L 95.52 25.92 
L 101.472 25.92 
L 107.424 25.92 
L 113.376 25.92 
L 119.328 25.92 
L 125.28 25.92 
L 131.232 25.92 
L 137.184 25.92 
L 143.136 25.92 
L 149.088 25.92 
L 155.04 25.92 
L 160.992 25.92 
L 166.944 25.92 
L 172.896 25.92 
L 178.848 25.92 
L 184.8 25.92 
L 190.752 25.92 
L 196.704 25.92 
L 202.656 25.92 
L 208.608 25.92 
L 214.56 25.92 
L 214.56 31.464 
L 214.56 37.008 
L 214.56 42.552 
L 214.56 48.096 
L 214.56 53.64 
L 214.56 59.184 
L 214.56 64.728 
L 214.56 70.272 
L 214.56 75.816 
L 214.56 81.36 
L 214.56 86.904 
L 214.56 92.448 
L 214.56 97.992 
L 214.56 103.536 
L 214.56 109.08 
L 214.56 114.624 
L 214.56 120.168 
L 214.56 125.712 
L 214.56 131.256 
L 214.56 136.8 
L 214.56 142.344 
L 214.56 147.888 
L 214.56 153.432 
L 214.56 158.976 
L 214.56 164.52 
L 214.56 170.064 
L 214.56 175.608 
L 214.56 181.152 
L 214.56 186.696 
L 214.56 192.24 
L 208.608 192.24 
L 202.656 192.24 
L 196.704 192.24 
L 190.752 192.24 
L 184.8 192.24 
L 178.848 192.24 
L 172.896 192.24 
L 166.944 192.24 
L 160.992 192.24 
L 155.04 192.24 
L 149.088 192.24 
L 143.136 192.24 
L 137.473234 192.24 
L 139.439904 186.696 
L 139.341653 181.152 
L 137.184 177.764394 
L 136.396287 175.608 
L 133.76481 170.064 
L 131.232 167.70481 
L 128.785191 164.52 
L 125.28 161.255084 
L 123.176666 158.976 
L 119.328 155.391154 
L 117.385755 153.432 
L 113.376 149.697107 
L 111.549745 147.888 
L 107.424 144.045068 
L 105.729148 142.344 
L 101.472 138.378673 
L 99.941455 136.8 
L 95.52 132.681629 
L 94.173701 131.256 
L 89.568 126.569437 
L 88.780067 125.712 
L 84.648573 120.168 
L 83.616 119.206208 
L 80.899263 114.624 
L 77.664 111.610509 
L 75.816575 109.08 
L 71.712 105.256787 
L 70.285453 103.536 
L 65.76 98.227635 
L 65.551738 97.992 
L 62.499763 92.448 
L 59.808 89.940753 
L 57.293502 86.904 
L 53.856 83.702133 
L 51.272917 81.36 
L 47.904 78.222016 
L 43.895396 75.816 
L 41.952 74.005821 
L 36 72.886402 
z
" clip-path="url(#pfd0110e257)" style="fill: #470d60"/>
   </g>
   <g id="PathCollection_1">
    <defs>
     <path id="m3f6d19ecfb" d="M -4.743416 4.743416 
L 4.743416 -4.743416 
M -4.743416 -4.743416 
L 4.743416 4.743416 
" style="stroke: #ffffff; stroke-width: 5"/>
    </defs>
    <g clip-path="url(#pfd0110e257)">
     <use xlink:href="#m3f6d19ecfb" x="65.76" y="146.04" style="fill: #ffffff; stroke: #ffffff; stroke-width: 5"/>
    </g>
   </g>
   <g id="PathCollection_2">
    <defs>
     <path id="mb5fb367b71" d="M -4.330127 4.330127 
L 4.330127 -4.330127 
M -4.330127 -4.330127 
L 4.330127 4.330127 
" style="stroke: #000000; stroke-width: 2"/>
    </defs>
    <g clip-path="url(#pfd0110e257)">
     <use xlink:href="#mb5fb367b71" x="65.76" y="146.04" style="stroke: #000000; stroke-width: 2"/>
    </g>
   </g>
   <g id="matplotlib.axis_1">
    <g id="xtick_1">
     <g id="line2d_1">
      <defs>
       <path id="m51700c0024" d="M 0 0 
L 0 6 
" style="stroke: #000000; stroke-width: 2"/>
      </defs>
      <g>
       <use xlink:href="#m51700c0024" x="65.76" y="192.24" style="stroke: #000000; stroke-width: 2"/>
      </g>
     </g>
     <g id="text_1">
      <!-- $\mathdefault{200}$ -->
      <g transform="translate(52.39 212.377813) scale(0.14 -0.14)">
       <defs>
        <path id="DejaVuSans-32" d="M 1228 531 
L 3431 531 
L 3431 0 
L 469 0 
L 469 531 
Q 828 903 1448 1529 
Q 2069 2156 2228 2338 
Q 2531 2678 2651 2914 
Q 2772 3150 2772 3378 
Q 2772 3750 2511 3984 
Q 2250 4219 1831 4219 
Q 1534 4219 1204 4116 
Q 875 4013 500 3803 
L 500 4441 
Q 881 4594 1212 4672 
Q 1544 4750 1819 4750 
Q 2544 4750 2975 4387 
Q 3406 4025 3406 3419 
Q 3406 3131 3298 2873 
Q 3191 2616 2906 2266 
Q 2828 2175 2409 1742 
Q 1991 1309 1228 531 
z
" transform="scale(0.015625)"/>
        <path id="DejaVuSans-30" d="M 2034 4250 
Q 1547 4250 1301 3770 
Q 1056 3291 1056 2328 
Q 1056 1369 1301 889 
Q 1547 409 2034 409 
Q 2525 409 2770 889 
Q 3016 1369 3016 2328 
Q 3016 3291 2770 3770 
Q 2525 4250 2034 4250 
z
M 2034 4750 
Q 2819 4750 3233 4129 
Q 3647 3509 3647 2328 
Q 3647 1150 3233 529 
Q 2819 -91 2034 -91 
Q 1250 -91 836 529 
Q 422 1150 422 2328 
Q 422 3509 836 4129 
Q 1250 4750 2034 4750 
z
" transform="scale(0.015625)"/>
       </defs>
       <use xlink:href="#DejaVuSans-32" transform="translate(0 0.78125)"/>
       <use xlink:href="#DejaVuSans-30" transform="translate(63.623047 0.78125)"/>
       <use xlink:href="#DejaVuSans-30" transform="translate(127.246094 0.78125)"/>
      </g>
     </g>
    </g>
    <g id="xtick_2">
     <g id="line2d_2">
      <g>
       <use xlink:href="#m51700c0024" x="105.44" y="192.24" style="stroke: #000000; stroke-width: 2"/>
      </g>
     </g>
     <g id="text_2">
      <!-- $\mathdefault{400}$ -->
      <g transform="translate(92.07 212.377813) scale(0.14 -0.14)">
       <defs>
        <path id="DejaVuSans-34" d="M 2419 4116 
L 825 1625 
L 2419 1625 
L 2419 4116 
z
M 2253 4666 
L 3047 4666 
L 3047 1625 
L 3713 1625 
L 3713 1100 
L 3047 1100 
L 3047 0 
L 2419 0 
L 2419 1100 
L 313 1100 
L 313 1709 
L 2253 4666 
z
" transform="scale(0.015625)"/>
       </defs>
       <use xlink:href="#DejaVuSans-34" transform="translate(0 0.78125)"/>
       <use xlink:href="#DejaVuSans-30" transform="translate(63.623047 0.78125)"/>
       <use xlink:href="#DejaVuSans-30" transform="translate(127.246094 0.78125)"/>
      </g>
     </g>
    </g>
    <g id="xtick_3">
     <g id="line2d_3">
      <g>
       <use xlink:href="#m51700c0024" x="145.12" y="192.24" style="stroke: #000000; stroke-width: 2"/>
      </g>
     </g>
     <g id="text_3">
      <!-- $\mathdefault{600}$ -->
      <g transform="translate(131.75 212.377813) scale(0.14 -0.14)">
       <defs>
        <path id="DejaVuSans-36" d="M 2113 2584 
Q 1688 2584 1439 2293 
Q 1191 2003 1191 1497 
Q 1191 994 1439 701 
Q 1688 409 2113 409 
Q 2538 409 2786 701 
Q 3034 994 3034 1497 
Q 3034 2003 2786 2293 
Q 2538 2584 2113 2584 
z
M 3366 4563 
L 3366 3988 
Q 3128 4100 2886 4159 
Q 2644 4219 2406 4219 
Q 1781 4219 1451 3797 
Q 1122 3375 1075 2522 
Q 1259 2794 1537 2939 
Q 1816 3084 2150 3084 
Q 2853 3084 3261 2657 
Q 3669 2231 3669 1497 
Q 3669 778 3244 343 
Q 2819 -91 2113 -91 
Q 1303 -91 875 529 
Q 447 1150 447 2328 
Q 447 3434 972 4092 
Q 1497 4750 2381 4750 
Q 2619 4750 2861 4703 
Q 3103 4656 3366 4563 
z
" transform="scale(0.015625)"/>
       </defs>
       <use xlink:href="#DejaVuSans-36" transform="translate(0 0.78125)"/>
       <use xlink:href="#DejaVuSans-30" transform="translate(63.623047 0.78125)"/>
       <use xlink:href="#DejaVuSans-30" transform="translate(127.246094 0.78125)"/>
      </g>
     </g>
    </g>
    <g id="xtick_4">
     <g id="line2d_4">
      <g>
       <use xlink:href="#m51700c0024" x="184.8" y="192.24" style="stroke: #000000; stroke-width: 2"/>
      </g>
     </g>
     <g id="text_4">
      <!-- $\mathdefault{800}$ -->
      <g transform="translate(171.43 212.377813) scale(0.14 -0.14)">
       <defs>
        <path id="DejaVuSans-38" d="M 2034 2216 
Q 1584 2216 1326 1975 
Q 1069 1734 1069 1313 
Q 1069 891 1326 650 
Q 1584 409 2034 409 
Q 2484 409 2743 651 
Q 3003 894 3003 1313 
Q 3003 1734 2745 1975 
Q 2488 2216 2034 2216 
z
M 1403 2484 
Q 997 2584 770 2862 
Q 544 3141 544 3541 
Q 544 4100 942 4425 
Q 1341 4750 2034 4750 
Q 2731 4750 3128 4425 
Q 3525 4100 3525 3541 
Q 3525 3141 3298 2862 
Q 3072 2584 2669 2484 
Q 3125 2378 3379 2068 
Q 3634 1759 3634 1313 
Q 3634 634 3220 271 
Q 2806 -91 2034 -91 
Q 1263 -91 848 271 
Q 434 634 434 1313 
Q 434 1759 690 2068 
Q 947 2378 1403 2484 
z
M 1172 3481 
Q 1172 3119 1398 2916 
Q 1625 2713 2034 2713 
Q 2441 2713 2670 2916 
Q 2900 3119 2900 3481 
Q 2900 3844 2670 4047 
Q 2441 4250 2034 4250 
Q 1625 4250 1398 4047 
Q 1172 3844 1172 3481 
z
" transform="scale(0.015625)"/>
       </defs>
       <use xlink:href="#DejaVuSans-38" transform="translate(0 0.78125)"/>
       <use xlink:href="#DejaVuSans-30" transform="translate(63.623047 0.78125)"/>
       <use xlink:href="#DejaVuSans-30" transform="translate(127.246094 0.78125)"/>
      </g>
     </g>
    </g>
    <g id="text_5">
     <!-- Diploid N$_e$0 -->
     <g transform="translate(74.34 232.969375) scale(0.18 -0.18)">
      <defs>
       <path id="DejaVuSans-44" d="M 1259 4147 
L 1259 519 
L 2022 519 
Q 2988 519 3436 956 
Q 3884 1394 3884 2338 
Q 3884 3275 3436 3711 
Q 2988 4147 2022 4147 
L 1259 4147 
z
M 628 4666 
L 1925 4666 
Q 3281 4666 3915 4102 
Q 4550 3538 4550 2338 
Q 4550 1131 3912 565 
Q 3275 0 1925 0 
L 628 0 
L 628 4666 
z
" transform="scale(0.015625)"/>
       <path id="DejaVuSans-69" d="M 603 3500 
L 1178 3500 
L 1178 0 
L 603 0 
L 603 3500 
z
M 603 4863 
L 1178 4863 
L 1178 4134 
L 603 4134 
L 603 4863 
z
" transform="scale(0.015625)"/>
       <path id="DejaVuSans-70" d="M 1159 525 
L 1159 -1331 
L 581 -1331 
L 581 3500 
L 1159 3500 
L 1159 2969 
Q 1341 3281 1617 3432 
Q 1894 3584 2278 3584 
Q 2916 3584 3314 3078 
Q 3713 2572 3713 1747 
Q 3713 922 3314 415 
Q 2916 -91 2278 -91 
Q 1894 -91 1617 61 
Q 1341 213 1159 525 
z
M 3116 1747 
Q 3116 2381 2855 2742 
Q 2594 3103 2138 3103 
Q 1681 3103 1420 2742 
Q 1159 2381 1159 1747 
Q 1159 1113 1420 752 
Q 1681 391 2138 391 
Q 2594 391 2855 752 
Q 3116 1113 3116 1747 
z
" transform="scale(0.015625)"/>
       <path id="DejaVuSans-6c" d="M 603 4863 
L 1178 4863 
L 1178 0 
L 603 0 
L 603 4863 
z
" transform="scale(0.015625)"/>
       <path id="DejaVuSans-6f" d="M 1959 3097 
Q 1497 3097 1228 2736 
Q 959 2375 959 1747 
Q 959 1119 1226 758 
Q 1494 397 1959 397 
Q 2419 397 2687 759 
Q 2956 1122 2956 1747 
Q 2956 2369 2687 2733 
Q 2419 3097 1959 3097 
z
M 1959 3584 
Q 2709 3584 3137 3096 
Q 3566 2609 3566 1747 
Q 3566 888 3137 398 
Q 2709 -91 1959 -91 
Q 1206 -91 779 398 
Q 353 888 353 1747 
Q 353 2609 779 3096 
Q 1206 3584 1959 3584 
z
" transform="scale(0.015625)"/>
       <path id="DejaVuSans-64" d="M 2906 2969 
L 2906 4863 
L 3481 4863 
L 3481 0 
L 2906 0 
L 2906 525 
Q 2725 213 2448 61 
Q 2172 -91 1784 -91 
Q 1150 -91 751 415 
Q 353 922 353 1747 
Q 353 2572 751 3078 
Q 1150 3584 1784 3584 
Q 2172 3584 2448 3432 
Q 2725 3281 2906 2969 
z
M 947 1747 
Q 947 1113 1208 752 
Q 1469 391 1925 391 
Q 2381 391 2643 752 
Q 2906 1113 2906 1747 
Q 2906 2381 2643 2742 
Q 2381 3103 1925 3103 
Q 1469 3103 1208 2742 
Q 947 2381 947 1747 
z
" transform="scale(0.015625)"/>
       <path id="DejaVuSans-20" transform="scale(0.015625)"/>
       <path id="DejaVuSans-4e" d="M 628 4666 
L 1478 4666 
L 3547 763 
L 3547 4666 
L 4159 4666 
L 4159 0 
L 3309 0 
L 1241 3903 
L 1241 0 
L 628 0 
L 628 4666 
z
" transform="scale(0.015625)"/>
       <path id="DejaVuSans-Oblique-65" d="M 3078 2063 
Q 3088 2113 3092 2166 
Q 3097 2219 3097 2272 
Q 3097 2653 2873 2875 
Q 2650 3097 2266 3097 
Q 1838 3097 1509 2826 
Q 1181 2556 1013 2059 
L 3078 2063 
z
M 3578 1613 
L 903 1613 
Q 884 1494 878 1425 
Q 872 1356 872 1306 
Q 872 872 1139 634 
Q 1406 397 1894 397 
Q 2269 397 2603 481 
Q 2938 566 3225 728 
L 3116 159 
Q 2806 34 2476 -28 
Q 2147 -91 1806 -91 
Q 1078 -91 686 257 
Q 294 606 294 1247 
Q 294 1794 489 2264 
Q 684 2734 1063 3103 
Q 1306 3334 1642 3459 
Q 1978 3584 2356 3584 
Q 2950 3584 3301 3228 
Q 3653 2872 3653 2272 
Q 3653 2128 3634 1964 
Q 3616 1800 3578 1613 
z
" transform="scale(0.015625)"/>
      </defs>
      <use xlink:href="#DejaVuSans-44" transform="translate(0 0.015625)"/>
      <use xlink:href="#DejaVuSans-69" transform="translate(77.001953 0.015625)"/>
      <use xlink:href="#DejaVuSans-70" transform="translate(104.785156 0.015625)"/>
      <use xlink:href="#DejaVuSans-6c" transform="translate(168.261719 0.015625)"/>
      <use xlink:href="#DejaVuSans-6f" transform="translate(196.044922 0.015625)"/>
      <use xlink:href="#DejaVuSans-69" transform="translate(257.226562 0.015625)"/>
      <use xlink:href="#DejaVuSans-64" transform="translate(285.009766 0.015625)"/>
      <use xlink:href="#DejaVuSans-20" transform="translate(348.486328 0.015625)"/>
      <use xlink:href="#DejaVuSans-4e" transform="translate(380.273438 0.015625)"/>
      <use xlink:href="#DejaVuSans-Oblique-65" transform="translate(456.035156 -16.390625) scale(0.7)"/>
      <use xlink:href="#DejaVuSans-30" transform="translate(501.835938 0.015625)"/>
     </g>
    </g>
    <g id="text_6">
     <!-- $\times\mathdefault{10^{3}}\mathdefault{}$ -->
     <g transform="translate(188.56 225.887812) scale(0.1 -0.1)">
      <defs>
       <path id="DejaVuSans-d7" d="M 4488 3438 
L 3059 2003 
L 4488 575 
L 4116 197 
L 2681 1631 
L 1247 197 
L 878 575 
L 2303 2003 
L 878 3438 
L 1247 3816 
L 2681 2381 
L 4116 3816 
L 4488 3438 
z
" transform="scale(0.015625)"/>
       <path id="DejaVuSans-31" d="M 794 531 
L 1825 531 
L 1825 4091 
L 703 3866 
L 703 4441 
L 1819 4666 
L 2450 4666 
L 2450 531 
L 3481 531 
L 3481 0 
L 794 0 
L 794 531 
z
" transform="scale(0.015625)"/>
       <path id="DejaVuSans-33" d="M 2597 2516 
Q 3050 2419 3304 2112 
Q 3559 1806 3559 1356 
Q 3559 666 3084 287 
Q 2609 -91 1734 -91 
Q 1441 -91 1130 -33 
Q 819 25 488 141 
L 488 750 
Q 750 597 1062 519 
Q 1375 441 1716 441 
Q 2309 441 2620 675 
Q 2931 909 2931 1356 
Q 2931 1769 2642 2001 
Q 2353 2234 1838 2234 
L 1294 2234 
L 1294 2753 
L 1863 2753 
Q 2328 2753 2575 2939 
Q 2822 3125 2822 3475 
Q 2822 3834 2567 4026 
Q 2313 4219 1838 4219 
Q 1578 4219 1281 4162 
Q 984 4106 628 3988 
L 628 4550 
Q 988 4650 1302 4700 
Q 1616 4750 1894 4750 
Q 2613 4750 3031 4423 
Q 3450 4097 3450 3541 
Q 3450 3153 3228 2886 
Q 3006 2619 2597 2516 
z
" transform="scale(0.015625)"/>
      </defs>
      <use xlink:href="#DejaVuSans-d7" transform="translate(0 0.765625)"/>
      <use xlink:href="#DejaVuSans-31" transform="translate(83.789062 0.765625)"/>
      <use xlink:href="#DejaVuSans-30" transform="translate(147.412109 0.765625)"/>
      <use xlink:href="#DejaVuSans-33" transform="translate(211.992188 39.046875) scale(0.7)"/>
     </g>
    </g>
   </g>
   <g id="matplotlib.axis_2">
    <g id="ytick_1">
     <g id="line2d_5">
      <defs>
       <path id="m8aad16854a" d="M 0 0 
L -6 0 
" style="stroke: #000000; stroke-width: 2"/>
      </defs>
      <g>
       <use xlink:href="#m8aad16854a" x="36" y="164.52" style="stroke: #000000; stroke-width: 2"/>
      </g>
     </g>
     <g id="text_7">
      <!-- $\mathdefault{200}$ -->
      <g transform="translate(-0.24 169.838906) scale(0.14 -0.14)">
       <use xlink:href="#DejaVuSans-32" transform="translate(0 0.78125)"/>
       <use xlink:href="#DejaVuSans-30" transform="translate(63.623047 0.78125)"/>
       <use xlink:href="#DejaVuSans-30" transform="translate(127.246094 0.78125)"/>
      </g>
     </g>
    </g>
    <g id="ytick_2">
     <g id="line2d_6">
      <g>
       <use xlink:href="#m8aad16854a" x="36" y="127.56" style="stroke: #000000; stroke-width: 2"/>
      </g>
     </g>
     <g id="text_8">
      <!-- $\mathdefault{400}$ -->
      <g transform="translate(-0.24 132.878906) scale(0.14 -0.14)">
       <use xlink:href="#DejaVuSans-34" transform="translate(0 0.78125)"/>
       <use xlink:href="#DejaVuSans-30" transform="translate(63.623047 0.78125)"/>
       <use xlink:href="#DejaVuSans-30" transform="translate(127.246094 0.78125)"/>
      </g>
     </g>
    </g>
    <g id="ytick_3">
     <g id="line2d_7">
      <g>
       <use xlink:href="#m8aad16854a" x="36" y="90.6" style="stroke: #000000; stroke-width: 2"/>
      </g>
     </g>
     <g id="text_9">
      <!-- $\mathdefault{600}$ -->
      <g transform="translate(-0.24 95.918906) scale(0.14 -0.14)">
       <use xlink:href="#DejaVuSans-36" transform="translate(0 0.78125)"/>
       <use xlink:href="#DejaVuSans-30" transform="translate(63.623047 0.78125)"/>
       <use xlink:href="#DejaVuSans-30" transform="translate(127.246094 0.78125)"/>
      </g>
     </g>
    </g>
    <g id="ytick_4">
     <g id="line2d_8">
      <g>
       <use xlink:href="#m8aad16854a" x="36" y="53.64" style="stroke: #000000; stroke-width: 2"/>
      </g>
     </g>
     <g id="text_10">
      <!-- $\mathdefault{800}$ -->
      <g transform="translate(-0.24 58.958906) scale(0.14 -0.14)">
       <use xlink:href="#DejaVuSans-38" transform="translate(0 0.78125)"/>
       <use xlink:href="#DejaVuSans-30" transform="translate(63.623047 0.78125)"/>
       <use xlink:href="#DejaVuSans-30" transform="translate(127.246094 0.78125)"/>
      </g>
     </g>
    </g>
    <g id="text_11">
     <!-- Diploid N$_e$1 -->
     <g transform="translate(-8.02 160.02) rotate(-90) scale(0.18 -0.18)">
      <use xlink:href="#DejaVuSans-44" transform="translate(0 0.015625)"/>
      <use xlink:href="#DejaVuSans-69" transform="translate(77.001953 0.015625)"/>
      <use xlink:href="#DejaVuSans-70" transform="translate(104.785156 0.015625)"/>
      <use xlink:href="#DejaVuSans-6c" transform="translate(168.261719 0.015625)"/>
      <use xlink:href="#DejaVuSans-6f" transform="translate(196.044922 0.015625)"/>
      <use xlink:href="#DejaVuSans-69" transform="translate(257.226562 0.015625)"/>
      <use xlink:href="#DejaVuSans-64" transform="translate(285.009766 0.015625)"/>
      <use xlink:href="#DejaVuSans-20" transform="translate(348.486328 0.015625)"/>
      <use xlink:href="#DejaVuSans-4e" transform="translate(380.273438 0.015625)"/>
      <use xlink:href="#DejaVuSans-Oblique-65" transform="translate(456.035156 -16.390625) scale(0.7)"/>
      <use xlink:href="#DejaVuSans-31" transform="translate(501.835938 0.015625)"/>
     </g>
    </g>
    <g id="text_12">
     <!-- $\times\mathdefault{10^{3}}\mathdefault{}$ -->
     <g transform="translate(36 22.92) scale(0.1 -0.1)">
      <use xlink:href="#DejaVuSans-d7" transform="translate(0 0.765625)"/>
      <use xlink:href="#DejaVuSans-31" transform="translate(83.789062 0.765625)"/>
      <use xlink:href="#DejaVuSans-30" transform="translate(147.412109 0.765625)"/>
      <use xlink:href="#DejaVuSans-33" transform="translate(211.992188 39.046875) scale(0.7)"/>
     </g>
    </g>
   </g>
   <g id="patch_3">
    <path d="M 36 192.24 
L 36 25.92 
" style="fill: none; stroke: #000000; stroke-width: 0.8; stroke-linejoin: miter; stroke-linecap: square"/>
   </g>
   <g id="patch_4">
    <path d="M 214.56 192.24 
L 214.56 25.92 
" style="fill: none; stroke: #000000; stroke-width: 0.8; stroke-linejoin: miter; stroke-linecap: square"/>
   </g>
   <g id="patch_5">
    <path d="M 36 192.24 
L 214.56 192.24 
" style="fill: none; stroke: #000000; stroke-width: 0.8; stroke-linejoin: miter; stroke-linecap: square"/>
   </g>
   <g id="patch_6">
    <path d="M 36 25.92 
L 214.56 25.92 
" style="fill: none; stroke: #000000; stroke-width: 0.8; stroke-linejoin: miter; stroke-linecap: square"/>
   </g>
   <g id="text_13">
    <!-- Ne0Ne1-SMC-T-P2-S4 -->
    <g transform="translate(40.66375 10.92) scale(0.16 -0.16)">
     <defs>
      <path id="DejaVuSans-65" d="M 3597 1894 
L 3597 1613 
L 953 1613 
Q 991 1019 1311 708 
Q 1631 397 2203 397 
Q 2534 397 2845 478 
Q 3156 559 3463 722 
L 3463 178 
Q 3153 47 2828 -22 
Q 2503 -91 2169 -91 
Q 1331 -91 842 396 
Q 353 884 353 1716 
Q 353 2575 817 3079 
Q 1281 3584 2069 3584 
Q 2775 3584 3186 3129 
Q 3597 2675 3597 1894 
z
M 3022 2063 
Q 3016 2534 2758 2815 
Q 2500 3097 2075 3097 
Q 1594 3097 1305 2825 
Q 1016 2553 972 2059 
L 3022 2063 
z
" transform="scale(0.015625)"/>
      <path id="DejaVuSans-2d" d="M 313 2009 
L 1997 2009 
L 1997 1497 
L 313 1497 
L 313 2009 
z
" transform="scale(0.015625)"/>
      <path id="DejaVuSans-53" d="M 3425 4513 
L 3425 3897 
Q 3066 4069 2747 4153 
Q 2428 4238 2131 4238 
Q 1616 4238 1336 4038 
Q 1056 3838 1056 3469 
Q 1056 3159 1242 3001 
Q 1428 2844 1947 2747 
L 2328 2669 
Q 3034 2534 3370 2195 
Q 3706 1856 3706 1288 
Q 3706 609 3251 259 
Q 2797 -91 1919 -91 
Q 1588 -91 1214 -16 
Q 841 59 441 206 
L 441 856 
Q 825 641 1194 531 
Q 1563 422 1919 422 
Q 2459 422 2753 634 
Q 3047 847 3047 1241 
Q 3047 1584 2836 1778 
Q 2625 1972 2144 2069 
L 1759 2144 
Q 1053 2284 737 2584 
Q 422 2884 422 3419 
Q 422 4038 858 4394 
Q 1294 4750 2059 4750 
Q 2388 4750 2728 4690 
Q 3069 4631 3425 4513 
z
" transform="scale(0.015625)"/>
      <path id="DejaVuSans-4d" d="M 628 4666 
L 1569 4666 
L 2759 1491 
L 3956 4666 
L 4897 4666 
L 4897 0 
L 4281 0 
L 4281 4097 
L 3078 897 
L 2444 897 
L 1241 4097 
L 1241 0 
L 628 0 
L 628 4666 
z
" transform="scale(0.015625)"/>
      <path id="DejaVuSans-43" d="M 4122 4306 
L 4122 3641 
Q 3803 3938 3442 4084 
Q 3081 4231 2675 4231 
Q 1875 4231 1450 3742 
Q 1025 3253 1025 2328 
Q 1025 1406 1450 917 
Q 1875 428 2675 428 
Q 3081 428 3442 575 
Q 3803 722 4122 1019 
L 4122 359 
Q 3791 134 3420 21 
Q 3050 -91 2638 -91 
Q 1578 -91 968 557 
Q 359 1206 359 2328 
Q 359 3453 968 4101 
Q 1578 4750 2638 4750 
Q 3056 4750 3426 4639 
Q 3797 4528 4122 4306 
z
" transform="scale(0.015625)"/>
      <path id="DejaVuSans-54" d="M -19 4666 
L 3928 4666 
L 3928 4134 
L 2272 4134 
L 2272 0 
L 1638 0 
L 1638 4134 
L -19 4134 
L -19 4666 
z
" transform="scale(0.015625)"/>
      <path id="DejaVuSans-50" d="M 1259 4147 
L 1259 2394 
L 2053 2394 
Q 2494 2394 2734 2622 
Q 2975 2850 2975 3272 
Q 2975 3691 2734 3919 
Q 2494 4147 2053 4147 
L 1259 4147 
z
M 628 4666 
L 2053 4666 
Q 2838 4666 3239 4311 
Q 3641 3956 3641 3272 
Q 3641 2581 3239 2228 
Q 2838 1875 2053 1875 
L 1259 1875 
L 1259 0 
L 628 0 
L 628 4666 
z
" transform="scale(0.015625)"/>
     </defs>
     <use xlink:href="#DejaVuSans-4e"/>
     <use xlink:href="#DejaVuSans-65" x="74.804688"/>
     <use xlink:href="#DejaVuSans-30" x="136.328125"/>
     <use xlink:href="#DejaVuSans-4e" x="199.951172"/>
     <use xlink:href="#DejaVuSans-65" x="274.755859"/>
     <use xlink:href="#DejaVuSans-31" x="336.279297"/>
     <use xlink:href="#DejaVuSans-2d" x="399.902344"/>
     <use xlink:href="#DejaVuSans-53" x="435.986328"/>
     <use xlink:href="#DejaVuSans-4d" x="499.462891"/>
     <use xlink:href="#DejaVuSans-43" x="585.742188"/>
     <use xlink:href="#DejaVuSans-2d" x="655.566406"/>
     <use xlink:href="#DejaVuSans-54" x="682.525391"/>
     <use xlink:href="#DejaVuSans-2d" x="734.484375"/>
     <use xlink:href="#DejaVuSans-50" x="770.568359"/>
     <use xlink:href="#DejaVuSans-32" x="830.871094"/>
     <use xlink:href="#DejaVuSans-2d" x="894.494141"/>
     <use xlink:href="#DejaVuSans-53" x="930.578125"/>
     <use xlink:href="#DejaVuSans-34" x="994.054688"/>
    </g>
   </g>
  </g>
  <g id="axes_2">
   <g id="patch_7">
    <path d="M 225.72 192.24 
L 234.036 192.24 
L 234.036 25.92 
L 225.72 25.92 
z
" style="fill: #ffffff"/>
   </g>
   <g id="QuadMesh_1">
    <path d="M 225.72 192.24 
L 234.036 192.24 
L 234.036 181.152 
L 225.72 181.152 
L 225.72 192.24 
" clip-path="url(#pa017839f3a)" style="fill: #eae51a"/>
    <path d="M 225.72 181.152 
L 234.036 181.152 
L 234.036 170.064 
L 225.72 170.064 
L 225.72 181.152 
" clip-path="url(#pa017839f3a)" style="fill: #bddf26"/>
    <path d="M 225.72 170.064 
L 234.036 170.064 
L 234.036 158.976 
L 225.72 158.976 
L 225.72 170.064 
" clip-path="url(#pa017839f3a)" style="fill: #90d743"/>
    <path d="M 225.72 158.976 
L 234.036 158.976 
L 234.036 147.888 
L 225.72 147.888 
L 225.72 158.976 
" clip-path="url(#pa017839f3a)" style="fill: #67cc5c"/>
    <path d="M 225.72 147.888 
L 234.036 147.888 
L 234.036 136.8 
L 225.72 136.8 
L 225.72 147.888 
" clip-path="url(#pa017839f3a)" style="fill: #44bf70"/>
    <path d="M 225.72 136.8 
L 234.036 136.8 
L 234.036 125.712 
L 225.72 125.712 
L 225.72 136.8 
" clip-path="url(#pa017839f3a)" style="fill: #2ab07f"/>
    <path d="M 225.72 125.712 
L 234.036 125.712 
L 234.036 114.624 
L 225.72 114.624 
L 225.72 125.712 
" clip-path="url(#pa017839f3a)" style="fill: #1fa188"/>
    <path d="M 225.72 114.624 
L 234.036 114.624 
L 234.036 103.536 
L 225.72 103.536 
L 225.72 114.624 
" clip-path="url(#pa017839f3a)" style="fill: #21908d"/>
    <path d="M 225.72 103.536 
L 234.036 103.536 
L 234.036 92.448 
L 225.72 92.448 
L 225.72 103.536 
" clip-path="url(#pa017839f3a)" style="fill: #27808e"/>
    <path d="M 225.72 92.448 
L 234.036 92.448 
L 234.036 81.36 
L 225.72 81.36 
L 225.72 92.448 
" clip-path="url(#pa017839f3a)" style="fill: #2d708e"/>
    <path d="M 225.72 81.36 
L 234.036 81.36 
L 234.036 70.272 
L 225.72 70.272 
L 225.72 81.36 
" clip-path="url(#pa017839f3a)" style="fill: #355f8d"/>
    <path d="M 225.72 70.272 
L 234.036 70.272 
L 234.036 59.184 
L 225.72 59.184 
L 225.72 70.272 
" clip-path="url(#pa017839f3a)" style="fill: #3d4d8a"/>
    <path d="M 225.72 59.184 
L 234.036 59.184 
L 234.036 48.096 
L 225.72 48.096 
L 225.72 59.184 
" clip-path="url(#pa017839f3a)" style="fill: #443983"/>
    <path d="M 225.72 48.096 
L 234.036 48.096 
L 234.036 37.008 
L 225.72 37.008 
L 225.72 48.096 
" clip-path="url(#pa017839f3a)" style="fill: #482475"/>
    <path d="M 225.72 37.008 
L 234.036 37.008 
L 234.036 25.92 
L 225.72 25.92 
L 225.72 37.008 
" clip-path="url(#pa017839f3a)" style="fill: #470d60"/>
   </g>
   <g id="matplotlib.axis_3"/>
   <g id="matplotlib.axis_4">
    <g id="ytick_5">
     <g id="line2d_9">
      <defs>
       <path id="m146d0c50cd" d="M 0 0 
L 3.5 0 
" style="stroke: #000000; stroke-width: 0.8"/>
      </defs>
      <g>
       <use xlink:href="#m146d0c50cd" x="234.036" y="192.24" style="stroke: #000000; stroke-width: 0.8"/>
      </g>
     </g>
     <g id="text_14">
      <!-- $\mathdefault{0.00}$ -->
      <g transform="translate(241.036 196.039219) scale(0.1 -0.1)">
       <defs>
        <path id="DejaVuSans-2e" d="M 684 794 
L 1344 794 
L 1344 0 
L 684 0 
L 684 794 
z
" transform="scale(0.015625)"/>
       </defs>
       <use xlink:href="#DejaVuSans-30" transform="translate(0 0.78125)"/>
       <use xlink:href="#DejaVuSans-2e" transform="translate(63.623047 0.78125)"/>
       <use xlink:href="#DejaVuSans-30" transform="translate(95.410156 0.78125)"/>
       <use xlink:href="#DejaVuSans-30" transform="translate(159.033203 0.78125)"/>
      </g>
     </g>
    </g>
    <g id="ytick_6">
     <g id="line2d_10">
      <g>
       <use xlink:href="#m146d0c50cd" x="234.036" y="170.064" style="stroke: #000000; stroke-width: 0.8"/>
      </g>
     </g>
     <g id="text_15">
      <!-- $\mathdefault{0.06}$ -->
      <g transform="translate(241.036 173.863219) scale(0.1 -0.1)">
       <use xlink:href="#DejaVuSans-30" transform="translate(0 0.78125)"/>
       <use xlink:href="#DejaVuSans-2e" transform="translate(63.623047 0.78125)"/>
       <use xlink:href="#DejaVuSans-30" transform="translate(95.410156 0.78125)"/>
       <use xlink:href="#DejaVuSans-36" transform="translate(159.033203 0.78125)"/>
      </g>
     </g>
    </g>
    <g id="ytick_7">
     <g id="line2d_11">
      <g>
       <use xlink:href="#m146d0c50cd" x="234.036" y="147.888" style="stroke: #000000; stroke-width: 0.8"/>
      </g>
     </g>
     <g id="text_16">
      <!-- $\mathdefault{0.12}$ -->
      <g transform="translate(241.036 151.687219) scale(0.1 -0.1)">
       <use xlink:href="#DejaVuSans-30" transform="translate(0 0.78125)"/>
       <use xlink:href="#DejaVuSans-2e" transform="translate(63.623047 0.78125)"/>
       <use xlink:href="#DejaVuSans-31" transform="translate(95.410156 0.78125)"/>
       <use xlink:href="#DejaVuSans-32" transform="translate(159.033203 0.78125)"/>
      </g>
     </g>
    </g>
    <g id="ytick_8">
     <g id="line2d_12">
      <g>
       <use xlink:href="#m146d0c50cd" x="234.036" y="125.712" style="stroke: #000000; stroke-width: 0.8"/>
      </g>
     </g>
     <g id="text_17">
      <!-- $\mathdefault{0.18}$ -->
      <g transform="translate(241.036 129.511219) scale(0.1 -0.1)">
       <use xlink:href="#DejaVuSans-30" transform="translate(0 0.78125)"/>
       <use xlink:href="#DejaVuSans-2e" transform="translate(63.623047 0.78125)"/>
       <use xlink:href="#DejaVuSans-31" transform="translate(95.410156 0.78125)"/>
       <use xlink:href="#DejaVuSans-38" transform="translate(159.033203 0.78125)"/>
      </g>
     </g>
    </g>
    <g id="ytick_9">
     <g id="line2d_13">
      <g>
       <use xlink:href="#m146d0c50cd" x="234.036" y="103.536" style="stroke: #000000; stroke-width: 0.8"/>
      </g>
     </g>
     <g id="text_18">
      <!-- $\mathdefault{0.24}$ -->
      <g transform="translate(241.036 107.335219) scale(0.1 -0.1)">
       <use xlink:href="#DejaVuSans-30" transform="translate(0 0.78125)"/>
       <use xlink:href="#DejaVuSans-2e" transform="translate(63.623047 0.78125)"/>
       <use xlink:href="#DejaVuSans-32" transform="translate(89.910156 0.78125)"/>
       <use xlink:href="#DejaVuSans-34" transform="translate(153.533203 0.78125)"/>
      </g>
     </g>
    </g>
    <g id="ytick_10">
     <g id="line2d_14">
      <g>
       <use xlink:href="#m146d0c50cd" x="234.036" y="81.36" style="stroke: #000000; stroke-width: 0.8"/>
      </g>
     </g>
     <g id="text_19">
      <!-- $\mathdefault{0.30}$ -->
      <g transform="translate(241.036 85.159219) scale(0.1 -0.1)">
       <use xlink:href="#DejaVuSans-30" transform="translate(0 0.78125)"/>
       <use xlink:href="#DejaVuSans-2e" transform="translate(63.623047 0.78125)"/>
       <use xlink:href="#DejaVuSans-33" transform="translate(95.410156 0.78125)"/>
       <use xlink:href="#DejaVuSans-30" transform="translate(159.033203 0.78125)"/>
      </g>
     </g>
    </g>
    <g id="ytick_11">
     <g id="line2d_15">
      <g>
       <use xlink:href="#m146d0c50cd" x="234.036" y="59.184" style="stroke: #000000; stroke-width: 0.8"/>
      </g>
     </g>
     <g id="text_20">
      <!-- $\mathdefault{0.36}$ -->
      <g transform="translate(241.036 62.983219) scale(0.1 -0.1)">
       <use xlink:href="#DejaVuSans-30" transform="translate(0 0.78125)"/>
       <use xlink:href="#DejaVuSans-2e" transform="translate(63.623047 0.78125)"/>
       <use xlink:href="#DejaVuSans-33" transform="translate(95.410156 0.78125)"/>
       <use xlink:href="#DejaVuSans-36" transform="translate(159.033203 0.78125)"/>
      </g>
     </g>
    </g>
    <g id="ytick_12">
     <g id="line2d_16">
      <g>
       <use xlink:href="#m146d0c50cd" x="234.036" y="37.008" style="stroke: #000000; stroke-width: 0.8"/>
      </g>
     </g>
     <g id="text_21">
      <!-- $\mathdefault{0.42}$ -->
      <g transform="translate(241.036 40.807219) scale(0.1 -0.1)">
       <use xlink:href="#DejaVuSans-30" transform="translate(0 0.78125)"/>
       <use xlink:href="#DejaVuSans-2e" transform="translate(63.623047 0.78125)"/>
       <use xlink:href="#DejaVuSans-34" transform="translate(95.410156 0.78125)"/>
       <use xlink:href="#DejaVuSans-32" transform="translate(159.033203 0.78125)"/>
      </g>
     </g>
    </g>
    <g id="text_22">
     <!-- $\Delta$ log likelihood -->
     <g transform="translate(276.456 154.98) rotate(-90) scale(0.12 -0.12)">
      <defs>
       <path id="DejaVuSans-394" d="M 2188 4044 
L 906 525 
L 3472 525 
L 2188 4044 
z
M 50 0 
L 1831 4666 
L 2547 4666 
L 4325 0 
L 50 0 
z
" transform="scale(0.015625)"/>
       <path id="DejaVuSans-67" d="M 2906 1791 
Q 2906 2416 2648 2759 
Q 2391 3103 1925 3103 
Q 1463 3103 1205 2759 
Q 947 2416 947 1791 
Q 947 1169 1205 825 
Q 1463 481 1925 481 
Q 2391 481 2648 825 
Q 2906 1169 2906 1791 
z
M 3481 434 
Q 3481 -459 3084 -895 
Q 2688 -1331 1869 -1331 
Q 1566 -1331 1297 -1286 
Q 1028 -1241 775 -1147 
L 775 -588 
Q 1028 -725 1275 -790 
Q 1522 -856 1778 -856 
Q 2344 -856 2625 -561 
Q 2906 -266 2906 331 
L 2906 616 
Q 2728 306 2450 153 
Q 2172 0 1784 0 
Q 1141 0 747 490 
Q 353 981 353 1791 
Q 353 2603 747 3093 
Q 1141 3584 1784 3584 
Q 2172 3584 2450 3431 
Q 2728 3278 2906 2969 
L 2906 3500 
L 3481 3500 
L 3481 434 
z
" transform="scale(0.015625)"/>
       <path id="DejaVuSans-6b" d="M 581 4863 
L 1159 4863 
L 1159 1991 
L 2875 3500 
L 3609 3500 
L 1753 1863 
L 3688 0 
L 2938 0 
L 1159 1709 
L 1159 0 
L 581 0 
L 581 4863 
z
" transform="scale(0.015625)"/>
       <path id="DejaVuSans-68" d="M 3513 2113 
L 3513 0 
L 2938 0 
L 2938 2094 
Q 2938 2591 2744 2837 
Q 2550 3084 2163 3084 
Q 1697 3084 1428 2787 
Q 1159 2491 1159 1978 
L 1159 0 
L 581 0 
L 581 4863 
L 1159 4863 
L 1159 2956 
Q 1366 3272 1645 3428 
Q 1925 3584 2291 3584 
Q 2894 3584 3203 3211 
Q 3513 2838 3513 2113 
z
" transform="scale(0.015625)"/>
      </defs>
      <use xlink:href="#DejaVuSans-394" transform="translate(0 0.015625)"/>
      <use xlink:href="#DejaVuSans-20" transform="translate(68.408203 0.015625)"/>
      <use xlink:href="#DejaVuSans-6c" transform="translate(100.195312 0.015625)"/>
      <use xlink:href="#DejaVuSans-6f" transform="translate(127.978516 0.015625)"/>
      <use xlink:href="#DejaVuSans-67" transform="translate(189.160156 0.015625)"/>
      <use xlink:href="#DejaVuSans-20" transform="translate(252.636719 0.015625)"/>
      <use xlink:href="#DejaVuSans-6c" transform="translate(284.423828 0.015625)"/>
      <use xlink:href="#DejaVuSans-69" transform="translate(312.207031 0.015625)"/>
      <use xlink:href="#DejaVuSans-6b" transform="translate(339.990234 0.015625)"/>
      <use xlink:href="#DejaVuSans-65" transform="translate(397.900391 0.015625)"/>
      <use xlink:href="#DejaVuSans-6c" transform="translate(459.423828 0.015625)"/>
      <use xlink:href="#DejaVuSans-69" transform="translate(487.207031 0.015625)"/>
      <use xlink:href="#DejaVuSans-68" transform="translate(514.990234 0.015625)"/>
      <use xlink:href="#DejaVuSans-6f" transform="translate(578.369141 0.015625)"/>
      <use xlink:href="#DejaVuSans-6f" transform="translate(639.550781 0.015625)"/>
      <use xlink:href="#DejaVuSans-64" transform="translate(700.732422 0.015625)"/>
     </g>
    </g>
    <g id="text_23">
     <!-- $\times\mathdefault{10^{3}}\mathdefault{}$ -->
     <g transform="translate(208.036 22.92) scale(0.1 -0.1)">
      <use xlink:href="#DejaVuSans-d7" transform="translate(0 0.765625)"/>
      <use xlink:href="#DejaVuSans-31" transform="translate(83.789062 0.765625)"/>
      <use xlink:href="#DejaVuSans-30" transform="translate(147.412109 0.765625)"/>
      <use xlink:href="#DejaVuSans-33" transform="translate(211.992188 39.046875) scale(0.7)"/>
     </g>
    </g>
   </g>
   <g id="LineCollection_1"/>
   <g id="patch_8">
    <path d="M 225.72 192.24 
L 229.878 192.24 
L 234.036 192.24 
L 234.036 25.92 
L 229.878 25.92 
L 225.72 25.92 
L 225.72 192.24 
z
" style="fill: none; stroke: #000000; stroke-width: 0.8; stroke-linejoin: miter; stroke-linecap: square"/>
   </g>
  </g>
 </g>
 <defs>
  <clipPath id="pfd0110e257">
   <rect x="36" y="25.92" width="178.56" height="166.32"/>
  </clipPath>
  <clipPath id="pa017839f3a">
   <rect x="225.72" y="25.92" width="8.316" height="166.32"/>
  </clipPath>
 </defs>
</svg>
