<?xml version="1.0" encoding="utf-8" standalone="no"?>
<!DOCTYPE svg PUBLIC "-//W3C//DTD SVG 1.1//EN"
  "http://www.w3.org/Graphics/SVG/1.1/DTD/svg11.dtd">
<svg xmlns:xlink="http://www.w3.org/1999/xlink" width="288pt" height="216pt" viewBox="0 0 288 216" xmlns="http://www.w3.org/2000/svg" version="1.1">
 <metadata>
  <rdf:RDF xmlns:dc="http://purl.org/dc/elements/1.1/" xmlns:cc="http://creativecommons.org/ns#" xmlns:rdf="http://www.w3.org/1999/02/22-rdf-syntax-ns#">
   <cc:Work>
    <dc:type rdf:resource="http://purl.org/dc/dcmitype/StillImage"/>
    <dc:date>2024-12-11T22:03:54.622170</dc:date>
    <dc:format>image/svg+xml</dc:format>
    <dc:creator>
     <cc:Agent>
      <dc:title>Matplotlib v3.8.4, https://matplotlib.org/</dc:title>
     </cc:Agent>
    </dc:creator>
   </cc:Work>
  </rdf:RDF>
 </metadata>
 <defs>
  <style type="text/css">*{stroke-linejoin: round; stroke-linecap: butt}</style>
 </defs>
 <g id="figure_1">
  <g id="patch_1">
   <path d="M 0 216 
L 288 216 
L 288 0 
L 0 0 
z
" style="fill: #ffffff"/>
  </g>
  <g id="axes_1">
   <g id="patch_2">
    <path d="M 36 192.24 
L 214.56 192.24 
L 214.56 25.92 
L 36 25.92 
z
" style="fill: #ffffff"/>
   </g>
   <g id="QuadContourSet_1">
    <path d="M 53.076703 136.8 
L 53.856 131.339884 
L 59.808 132.211415 
L 65.511694 136.8 
L 65.76 136.978612 
L 70.638396 142.344 
L 71.712 143.479254 
L 75.190799 147.888 
L 77.664 151.17429 
L 79.256569 153.432 
L 81.732132 158.976 
L 77.664 162.980339 
L 71.712 161.124486 
L 67.991238 158.976 
L 65.76 157.430022 
L 61.595308 153.432 
L 59.808 151.480818 
L 57.468141 147.888 
L 54.263096 142.344 
L 53.856 141.040405 
z
" clip-path="url(#p851c308458)" style="fill: #eae51a"/>
    <path d="M 47.876346 131.256 
L 47.904 130.709663 
L 48.978045 125.712 
L 53.856 122.721216 
L 58.857937 125.712 
L 59.808 126.196391 
L 65.07644 131.256 
L 65.76 131.840213 
L 70.205191 136.8 
L 71.712 138.363077 
L 75.099506 142.344 
L 77.664 145.281946 
L 79.83846 147.888 
L 83.616 152.559088 
L 84.328257 153.432 
L 87.92494 158.976 
L 89.568 163.17269 
L 90.131423 164.52 
L 89.568 165.939426 
L 83.616 169.006472 
L 77.664 167.648198 
L 71.712 165.228916 
L 70.552169 164.52 
L 65.76 161.150309 
L 63.187002 158.976 
L 59.808 155.770467 
L 57.816342 153.432 
L 53.856 148.358478 
L 53.564779 147.888 
L 51.074178 142.344 
L 49.03672 136.8 
L 47.904 131.460758 
z
M 53.856 141.040405 
L 54.263096 142.344 
L 57.468141 147.888 
L 59.808 151.480818 
L 61.595308 153.432 
L 65.76 157.430022 
L 67.991238 158.976 
L 71.712 161.124486 
L 77.664 162.980339 
L 81.732132 158.976 
L 79.256569 153.432 
L 77.664 151.17429 
L 75.190799 147.888 
L 71.712 143.479254 
L 70.638396 142.344 
L 65.76 136.978612 
L 65.511694 136.8 
L 59.808 132.211415 
L 53.856 131.339884 
L 53.076703 136.8 
z
" clip-path="url(#p851c308458)" style="fill: #bddf26"/>
    <path d="M 46.37795 136.8 
L 45.304498 131.256 
L 45.031546 125.712 
L 45.972185 120.168 
L 47.904 116.28209 
L 53.856 116.881003 
L 57.883154 120.168 
L 59.808 121.521862 
L 63.719622 125.712 
L 65.76 127.65456 
L 68.855701 131.256 
L 71.712 134.303181 
L 73.835439 136.8 
L 77.664 141.064444 
L 78.773161 142.344 
L 83.616 147.829651 
L 83.667939 147.888 
L 88.204826 153.432 
L 89.568 155.29421 
L 92.403205 158.976 
L 95.52 164.090086 
L 95.805634 164.52 
L 96.461614 170.064 
L 95.52 171.072478 
L 89.568 173.118566 
L 83.616 172.540734 
L 77.664 170.862011 
L 75.906832 170.064 
L 71.712 167.841093 
L 66.278485 164.52 
L 65.76 164.155419 
L 59.808 159.083543 
L 59.701281 158.976 
L 54.943088 153.432 
L 53.856 152.039351 
L 51.286357 147.888 
L 48.116994 142.344 
L 47.904 141.839595 
z
M 47.904 131.460758 
L 49.03672 136.8 
L 51.074178 142.344 
L 53.564779 147.888 
L 53.856 148.358478 
L 57.816342 153.432 
L 59.808 155.770467 
L 63.187002 158.976 
L 65.76 161.150309 
L 70.552169 164.52 
L 71.712 165.228916 
L 77.664 167.648198 
L 83.616 169.006472 
L 89.568 165.939426 
L 90.131423 164.52 
L 89.568 163.17269 
L 87.92494 158.976 
L 84.328257 153.432 
L 83.616 152.559088 
L 79.83846 147.888 
L 77.664 145.281946 
L 75.099506 142.344 
L 71.712 138.363077 
L 70.205191 136.8 
L 65.76 131.840213 
L 65.07644 131.256 
L 59.808 126.196391 
L 58.857937 125.712 
L 53.856 122.721216 
L 48.978045 125.712 
L 47.904 130.709663 
L 47.876346 131.256 
z
" clip-path="url(#p851c308458)" style="fill: #90d743"/>
    <path d="M 41.895364 125.712 
L 41.929064 120.168 
L 41.952 119.951627 
L 43.560412 114.624 
L 47.904 109.560968 
L 53.856 111.984943 
L 56.565178 114.624 
L 59.808 117.364564 
L 62.205272 120.168 
L 65.76 123.862922 
L 67.270208 125.712 
L 71.712 130.664966 
L 72.20088 131.256 
L 77.009079 136.8 
L 77.664 137.529484 
L 81.837381 142.344 
L 83.616 144.358703 
L 86.757544 147.888 
L 89.568 151.124893 
L 91.656672 153.432 
L 95.52 158.065318 
L 96.334525 158.976 
L 100.251321 164.52 
L 101.472 167.572872 
L 102.59396 170.064 
L 101.472 173.562526 
L 99.831103 175.608 
L 95.52 176.668269 
L 89.568 176.603971 
L 83.96567 175.608 
L 83.616 175.530244 
L 77.664 173.100686 
L 71.712 170.324333 
L 71.292117 170.064 
L 65.76 166.234019 
L 63.577894 164.52 
L 59.808 161.242544 
L 57.55882 158.976 
L 53.856 154.8986 
L 52.728194 153.432 
L 49.007934 147.888 
L 47.904 145.98628 
L 46.256517 142.344 
L 44.257324 136.8 
L 42.732649 131.256 
L 41.952 126.260884 
z
M 47.904 141.839595 
L 48.116994 142.344 
L 51.286357 147.888 
L 53.856 152.039351 
L 54.943088 153.432 
L 59.701281 158.976 
L 59.808 159.083543 
L 65.76 164.155419 
L 66.278485 164.52 
L 71.712 167.841093 
L 75.906832 170.064 
L 77.664 170.862011 
L 83.616 172.540734 
L 89.568 173.118566 
L 95.52 171.072478 
L 96.461614 170.064 
L 95.805634 164.52 
L 95.52 164.090086 
L 92.403205 158.976 
L 89.568 155.29421 
L 88.204826 153.432 
L 83.667939 147.888 
L 83.616 147.829651 
L 78.773161 142.344 
L 77.664 141.064444 
L 73.835439 136.8 
L 71.712 134.303181 
L 68.855701 131.256 
L 65.76 127.65456 
L 63.719622 125.712 
L 59.808 121.521862 
L 57.883154 120.168 
L 53.856 116.881003 
L 47.904 116.28209 
L 45.972185 120.168 
L 45.031546 125.712 
L 45.304498 131.256 
L 46.37795 136.8 
z
" clip-path="url(#p851c308458)" style="fill: #67cc5c"/>
    <path d="M 40.8992 131.256 
L 40.197316 125.712 
L 40.01651 120.168 
L 40.428459 114.624 
L 41.533461 109.08 
L 41.952 107.755142 
L 47.904 104.079742 
L 53.856 107.553928 
L 55.2347 109.08 
L 59.808 113.494082 
L 60.701944 114.624 
L 65.608998 120.168 
L 65.76 120.324957 
L 70.159789 125.712 
L 71.712 127.442844 
L 74.86609 131.256 
L 77.664 134.413181 
L 79.719037 136.8 
L 83.616 141.135392 
L 84.710902 142.344 
L 89.568 147.631326 
L 89.812458 147.888 
L 94.878163 153.432 
L 95.52 154.20176 
L 99.79014 158.976 
L 101.472 161.202073 
L 104.231105 164.52 
L 107.424 169.839347 
L 107.576098 170.064 
L 107.906156 175.608 
L 107.424 176.111105 
L 101.472 179.221508 
L 95.52 179.748974 
L 89.568 178.994004 
L 83.616 177.468933 
L 78.31687 175.608 
L 77.664 175.339362 
L 71.712 172.071287 
L 68.474513 170.064 
L 65.76 168.184695 
L 61.094503 164.52 
L 59.808 163.401545 
L 55.416358 158.976 
L 53.856 157.257794 
L 50.913986 153.432 
L 47.904 149.202189 
L 47.129219 147.888 
L 44.481162 142.344 
L 42.136698 136.8 
L 41.952 136.183761 
z
M 41.952 126.260884 
L 42.732649 131.256 
L 44.257324 136.8 
L 46.256517 142.344 
L 47.904 145.98628 
L 49.007934 147.888 
L 52.728194 153.432 
L 53.856 154.8986 
L 57.55882 158.976 
L 59.808 161.242544 
L 63.577894 164.52 
L 65.76 166.234019 
L 71.292117 170.064 
L 71.712 170.324333 
L 77.664 173.100686 
L 83.616 175.530244 
L 83.96567 175.608 
L 89.568 176.603971 
L 95.52 176.668269 
L 99.831103 175.608 
L 101.472 173.562526 
L 102.59396 170.064 
L 101.472 167.572872 
L 100.251321 164.52 
L 96.334525 158.976 
L 95.52 158.065318 
L 91.656672 153.432 
L 89.568 151.124893 
L 86.757544 147.888 
L 83.616 144.358703 
L 81.837381 142.344 
L 77.664 137.529484 
L 77.009079 136.8 
L 72.20088 131.256 
L 71.712 130.664966 
L 67.270208 125.712 
L 65.76 123.862922 
L 62.205272 120.168 
L 59.808 117.364564 
L 56.565178 114.624 
L 53.856 111.984943 
L 47.904 109.560968 
L 43.560412 114.624 
L 41.952 119.951627 
L 41.929064 120.168 
L 41.895364 125.712 
z
" clip-path="url(#p851c308458)" style="fill: #44bf70"/>
    <path d="M 40.721204 136.8 
L 39.387563 131.256 
L 38.499267 125.712 
L 38.103956 120.168 
L 38.266545 114.624 
L 39.078188 109.08 
L 40.669596 103.536 
L 41.952 100.566662 
L 47.904 99.163791 
L 53.856 103.402999 
L 53.964315 103.536 
L 58.993037 109.08 
L 59.808 109.86659 
L 63.571864 114.624 
L 65.76 117.084287 
L 68.143734 120.168 
L 71.712 124.356775 
L 72.788725 125.712 
L 77.5313 131.256 
L 77.664 131.405739 
L 82.308427 136.8 
L 83.616 138.254682 
L 87.320593 142.344 
L 89.568 144.790476 
L 92.518104 147.888 
L 95.52 151.108001 
L 97.819906 153.432 
L 101.472 157.381633 
L 103.070375 158.976 
L 107.424 163.949022 
L 107.976881 164.52 
L 111.86614 170.064 
L 113.376 174.805574 
L 113.670997 175.608 
L 113.376 176.226163 
L 108.98961 181.152 
L 107.424 181.622424 
L 101.472 182.380426 
L 95.52 182.197919 
L 89.568 181.309836 
L 89.004111 181.152 
L 83.616 179.37956 
L 77.664 176.980356 
L 74.9138 175.608 
L 71.712 173.818241 
L 65.76 170.115307 
L 65.691814 170.064 
L 59.808 165.254226 
L 59.003198 164.52 
L 53.856 159.42509 
L 53.454465 158.976 
L 49.099779 153.432 
L 47.904 151.75162 
L 45.626201 147.888 
L 42.705807 142.344 
L 41.952 140.584032 
z
M 41.952 136.183761 
L 42.136698 136.8 
L 44.481162 142.344 
L 47.129219 147.888 
L 47.904 149.202189 
L 50.913986 153.432 
L 53.856 157.257794 
L 55.416358 158.976 
L 59.808 163.401545 
L 61.094503 164.52 
L 65.76 168.184695 
L 68.474513 170.064 
L 71.712 172.071287 
L 77.664 175.339362 
L 78.31687 175.608 
L 83.616 177.468933 
L 89.568 178.994004 
L 95.52 179.748974 
L 101.472 179.221508 
L 107.424 176.111105 
L 107.906156 175.608 
L 107.576098 170.064 
L 107.424 169.839347 
L 104.231105 164.52 
L 101.472 161.202073 
L 99.79014 158.976 
L 95.52 154.20176 
L 94.878163 153.432 
L 89.812458 147.888 
L 89.568 147.631326 
L 84.710902 142.344 
L 83.616 141.135392 
L 79.719037 136.8 
L 77.664 134.413181 
L 74.86609 131.256 
L 71.712 127.442844 
L 70.159789 125.712 
L 65.76 120.324957 
L 65.608998 120.168 
L 60.701944 114.624 
L 59.808 113.494082 
L 55.2347 109.08 
L 53.856 107.553928 
L 47.904 104.079742 
L 41.952 107.755142 
L 41.533461 109.08 
L 40.428459 114.624 
L 40.01651 120.168 
L 40.197316 125.712 
L 40.8992 131.256 
z
" clip-path="url(#p851c308458)" style="fill: #2ab07f"/>
    <path d="M 41.259279 142.344 
L 39.372984 136.8 
L 37.875926 131.256 
L 36.801219 125.712 
L 36.191402 120.168 
L 36.104631 114.624 
L 36.622916 109.08 
L 37.864294 103.536 
L 40.002241 97.992 
L 41.952 94.513741 
L 47.904 94.564296 
L 51.835191 97.992 
L 53.856 99.510538 
L 57.134295 103.536 
L 59.808 106.410739 
L 61.773241 109.08 
L 65.76 113.902848 
L 66.286744 114.624 
L 70.638128 120.168 
L 71.712 121.428615 
L 75.115145 125.712 
L 77.664 128.681013 
L 79.821119 131.256 
L 83.616 135.533344 
L 84.748389 136.8 
L 89.568 142.00129 
L 89.895979 142.344 
L 95.22375 147.888 
L 95.52 148.205774 
L 100.692045 153.432 
L 101.472 154.275498 
L 106.184317 158.976 
L 107.424 160.392054 
L 111.421113 164.52 
L 113.376 167.108501 
L 115.893398 170.064 
L 118.623905 175.608 
L 117.022367 181.152 
L 113.376 182.954652 
L 107.424 184.399441 
L 101.472 184.673374 
L 95.52 184.118531 
L 89.568 182.935586 
L 83.616 181.252311 
L 83.369633 181.152 
L 77.664 178.539848 
L 71.788577 175.608 
L 71.712 175.565194 
L 65.76 171.517593 
L 63.828202 170.064 
L 59.808 166.777651 
L 57.333336 164.52 
L 53.856 161.077988 
L 51.976597 158.976 
L 47.904 154.042295 
L 47.466599 153.432 
L 44.123182 147.888 
L 41.952 143.923267 
z
M 41.952 140.584032 
L 42.705807 142.344 
L 45.626201 147.888 
L 47.904 151.75162 
L 49.099779 153.432 
L 53.454465 158.976 
L 53.856 159.42509 
L 59.003198 164.52 
L 59.808 165.254226 
L 65.691814 170.064 
L 65.76 170.115307 
L 71.712 173.818241 
L 74.9138 175.608 
L 77.664 176.980356 
L 83.616 179.37956 
L 89.004111 181.152 
L 89.568 181.309836 
L 95.52 182.197919 
L 101.472 182.380426 
L 107.424 181.622424 
L 108.98961 181.152 
L 113.376 176.226163 
L 113.670997 175.608 
L 113.376 174.805574 
L 111.86614 170.064 
L 107.976881 164.52 
L 107.424 163.949022 
L 103.070375 158.976 
L 101.472 157.381633 
L 97.819906 153.432 
L 95.52 151.108001 
L 92.518104 147.888 
L 89.568 144.790476 
L 87.320593 142.344 
L 83.616 138.254682 
L 82.308427 136.8 
L 77.664 131.405739 
L 77.5313 131.256 
L 72.788725 125.712 
L 71.712 124.356775 
L 68.143734 120.168 
L 65.76 117.084287 
L 63.571864 114.624 
L 59.808 109.86659 
L 58.993037 109.08 
L 53.964315 103.536 
L 53.856 103.402999 
L 47.904 99.163791 
L 41.952 100.566662 
L 40.669596 103.536 
L 39.078188 109.08 
L 38.266545 114.624 
L 38.103956 120.168 
L 38.499267 125.712 
L 39.387563 131.256 
L 40.721204 136.8 
z
" clip-path="url(#p851c308458)" style="fill: #1fa188"/>
    <path d="M 40.055394 142.344 
L 38.024763 136.8 
L 36.364289 131.256 
L 36 129.518939 
L 36 125.712 
L 36 120.168 
L 36 114.624 
L 36 109.08 
L 36 103.536 
L 36 100.298922 
L 36.772159 97.992 
L 39.5423 92.448 
L 41.952 89.044967 
L 47.904 90.166053 
L 50.145336 92.448 
L 53.856 95.722298 
L 55.545576 97.992 
L 59.808 103.023984 
L 60.160194 103.536 
L 64.282619 109.08 
L 65.76 110.867212 
L 68.504037 114.624 
L 71.712 118.602131 
L 72.899275 120.168 
L 77.441565 125.712 
L 77.664 125.971102 
L 82.091267 131.256 
L 83.616 132.97458 
L 87.03592 136.8 
L 89.568 139.532603 
L 92.258552 142.344 
L 95.52 145.714054 
L 97.737432 147.888 
L 101.472 151.619577 
L 103.418159 153.432 
L 107.424 157.387961 
L 109.178271 158.976 
L 113.376 163.239834 
L 114.773419 164.52 
L 119.328 169.642968 
L 119.749801 170.064 
L 123.157402 175.608 
L 123.224737 181.152 
L 119.328 184.0653 
L 113.376 186.385708 
L 111.332805 186.696 
L 107.424 186.993552 
L 101.472 186.876215 
L 99.946228 186.696 
L 95.52 186.039142 
L 89.568 184.561336 
L 83.616 182.639243 
L 79.963286 181.152 
L 77.664 180.099341 
L 71.712 176.868733 
L 69.704653 175.608 
L 65.76 172.919879 
L 61.964591 170.064 
L 59.808 168.301077 
L 55.663474 164.52 
L 53.856 162.730887 
L 50.498728 158.976 
L 47.904 155.832643 
L 46.18345 153.432 
L 42.620164 147.888 
L 41.952 146.667885 
z
M 41.952 143.923267 
L 44.123182 147.888 
L 47.466599 153.432 
L 47.904 154.042295 
L 51.976597 158.976 
L 53.856 161.077988 
L 57.333336 164.52 
L 59.808 166.777651 
L 63.828202 170.064 
L 65.76 171.517593 
L 71.712 175.565194 
L 71.788577 175.608 
L 77.664 178.539848 
L 83.369633 181.152 
L 83.616 181.252311 
L 89.568 182.935586 
L 95.52 184.118531 
L 101.472 184.673374 
L 107.424 184.399441 
L 113.376 182.954652 
L 117.022367 181.152 
L 118.623905 175.608 
L 115.893398 170.064 
L 113.376 167.108501 
L 111.421113 164.52 
L 107.424 160.392054 
L 106.184317 158.976 
L 101.472 154.275498 
L 100.692045 153.432 
L 95.52 148.205774 
L 95.22375 147.888 
L 89.895979 142.344 
L 89.568 142.00129 
L 84.748389 136.8 
L 83.616 135.533344 
L 79.821119 131.256 
L 77.664 128.681013 
L 75.115145 125.712 
L 71.712 121.428615 
L 70.638128 120.168 
L 66.286744 114.624 
L 65.76 113.902848 
L 61.773241 109.08 
L 59.808 106.410739 
L 57.134295 103.536 
L 53.856 99.510538 
L 51.835191 97.992 
L 47.904 94.564296 
L 41.952 94.513741 
L 40.002241 97.992 
L 37.864294 103.536 
L 36.622916 109.08 
L 36.104631 114.624 
L 36.191402 120.168 
L 36.801219 125.712 
L 37.875926 131.256 
L 39.372984 136.8 
L 41.259279 142.344 
z
" clip-path="url(#p851c308458)" style="fill: #21908d"/>
    <path d="M 41.354564 147.888 
L 38.851509 142.344 
L 36.676543 136.8 
L 36 134.593487 
L 36 131.256 
L 36 129.518939 
L 36.364289 131.256 
L 38.024763 136.8 
L 40.055394 142.344 
L 41.952 146.667885 
L 42.620164 147.888 
L 46.18345 153.432 
L 47.904 155.832643 
L 50.498728 158.976 
L 53.856 162.730887 
L 55.663474 164.52 
L 59.808 168.301077 
L 61.964591 170.064 
L 65.76 172.919879 
L 69.704653 175.608 
L 71.712 176.868733 
L 77.664 180.099341 
L 79.963286 181.152 
L 83.616 182.639243 
L 89.568 184.561336 
L 95.52 186.039142 
L 99.946228 186.696 
L 101.472 186.876215 
L 107.424 186.993552 
L 111.332805 186.696 
L 113.376 186.385708 
L 119.328 184.0653 
L 123.224737 181.152 
L 123.157402 175.608 
L 119.749801 170.064 
L 119.328 169.642968 
L 114.773419 164.52 
L 113.376 163.239834 
L 109.178271 158.976 
L 107.424 157.387961 
L 103.418159 153.432 
L 101.472 151.619577 
L 97.737432 147.888 
L 95.52 145.714054 
L 92.258552 142.344 
L 89.568 139.532603 
L 87.03592 136.8 
L 83.616 132.97458 
L 82.091267 131.256 
L 77.664 125.971102 
L 77.441565 125.712 
L 72.899275 120.168 
L 71.712 118.602131 
L 68.504037 114.624 
L 65.76 110.867212 
L 64.282619 109.08 
L 60.160194 103.536 
L 59.808 103.023984 
L 55.545576 97.992 
L 53.856 95.722298 
L 50.145336 92.448 
L 47.904 90.166053 
L 41.952 89.044967 
L 39.5423 92.448 
L 36.772159 97.992 
L 36 100.298922 
L 36 97.992 
L 36 92.448 
L 36 92.055912 
L 39.312804 86.904 
L 41.952 83.91787 
L 47.904 85.90671 
L 48.768677 86.904 
L 53.856 92.013669 
L 54.154212 92.448 
L 58.31593 97.992 
L 59.808 99.753456 
L 62.409855 103.536 
L 65.76 107.880272 
L 66.587604 109.08 
L 70.721329 114.624 
L 71.712 115.852511 
L 74.984094 120.168 
L 77.664 123.422354 
L 79.510032 125.712 
L 83.616 130.478019 
L 84.291392 131.256 
L 89.323452 136.8 
L 89.568 137.063915 
L 94.621125 142.344 
L 95.52 143.272808 
L 100.22751 147.888 
L 101.472 149.131493 
L 106.089834 153.432 
L 107.424 154.749553 
L 112.092861 158.976 
L 113.376 160.279345 
L 118.005063 164.52 
L 119.328 166.008032 
L 123.39138 170.064 
L 125.28 172.820374 
L 127.466316 175.608 
L 128.657419 181.152 
L 125.28 184.905622 
L 122.675013 186.696 
L 119.328 187.565889 
L 113.376 188.45929 
L 107.424 188.713384 
L 101.472 188.404848 
L 95.52 187.591037 
L 91.486765 186.696 
L 89.568 186.187085 
L 83.616 184.026174 
L 77.664 181.538783 
L 76.931051 181.152 
L 71.712 178.161134 
L 67.646885 175.608 
L 65.76 174.322165 
L 60.100979 170.064 
L 59.808 169.824502 
L 53.993612 164.52 
L 53.856 164.383786 
L 49.02086 158.976 
L 47.904 157.622992 
L 44.900301 153.432 
L 41.952 148.967304 
z
" clip-path="url(#p851c308458)" style="fill: #27808e"/>
    <path d="M 40.278978 147.888 
L 37.647624 142.344 
L 36 138.279547 
L 36 136.8 
L 36 134.593487 
L 36.676543 136.8 
L 38.851509 142.344 
L 41.354564 147.888 
L 41.952 148.967304 
L 44.900301 153.432 
L 47.904 157.622992 
L 49.02086 158.976 
L 53.856 164.383786 
L 53.993612 164.52 
L 59.808 169.824502 
L 60.100979 170.064 
L 65.76 174.322165 
L 67.646885 175.608 
L 71.712 178.161134 
L 76.931051 181.152 
L 77.664 181.538783 
L 83.616 184.026174 
L 89.568 186.187085 
L 91.486765 186.696 
L 95.52 187.591037 
L 101.472 188.404848 
L 107.424 188.713384 
L 113.376 188.45929 
L 119.328 187.565889 
L 122.675013 186.696 
L 125.28 184.905622 
L 128.657419 181.152 
L 127.466316 175.608 
L 125.28 172.820374 
L 123.39138 170.064 
L 119.328 166.008032 
L 118.005063 164.52 
L 113.376 160.279345 
L 112.092861 158.976 
L 107.424 154.749553 
L 106.089834 153.432 
L 101.472 149.131493 
L 100.22751 147.888 
L 95.52 143.272808 
L 94.621125 142.344 
L 89.568 137.063915 
L 89.323452 136.8 
L 84.291392 131.256 
L 83.616 130.478019 
L 79.510032 125.712 
L 77.664 123.422354 
L 74.984094 120.168 
L 71.712 115.852511 
L 70.721329 114.624 
L 66.587604 109.08 
L 65.76 107.880272 
L 62.409855 103.536 
L 59.808 99.753456 
L 58.31593 97.992 
L 54.154212 92.448 
L 53.856 92.013669 
L 48.768677 86.904 
L 47.904 85.90671 
L 41.952 83.91787 
L 39.312804 86.904 
L 36 92.055912 
L 36 86.904 
L 36 85.328419 
L 39.357866 81.36 
L 41.952 79.00722 
L 46.930723 81.36 
L 47.904 81.756807 
L 52.366755 86.904 
L 53.856 88.399787 
L 56.635503 92.448 
L 59.808 96.52182 
L 60.755632 97.992 
L 64.659516 103.536 
L 65.76 104.963043 
L 68.599984 109.08 
L 71.712 113.163285 
L 72.765314 114.624 
L 77.068914 120.168 
L 77.664 120.890645 
L 81.551227 125.712 
L 83.616 128.108693 
L 86.348283 131.256 
L 89.568 134.785981 
L 91.460257 136.8 
L 95.52 140.989422 
L 96.896483 142.344 
L 101.472 146.804538 
L 102.655534 147.888 
L 107.424 152.32888 
L 108.703312 153.432 
L 113.376 157.67663 
L 114.942104 158.976 
L 119.328 163.002804 
L 121.162116 164.52 
L 125.28 168.587467 
L 126.9622 170.064 
L 131.232 175.201816 
L 131.61703 175.608 
L 133.680112 181.152 
L 131.232 185.34135 
L 130.092153 186.696 
L 125.28 188.413872 
L 119.328 189.757106 
L 113.376 190.397901 
L 107.424 190.433215 
L 101.472 189.933481 
L 95.52 188.951286 
L 89.568 187.527909 
L 87.031437 186.696 
L 83.616 185.413106 
L 77.664 182.728887 
L 74.675816 181.152 
L 71.712 179.453535 
L 65.76 175.71694 
L 65.638311 175.608 
L 59.808 171.033075 
L 58.676979 170.064 
L 53.856 165.647969 
L 52.73261 164.52 
L 47.904 159.299345 
L 47.572606 158.976 
L 43.617152 153.432 
L 41.952 150.910413 
z
" clip-path="url(#p851c308458)" style="fill: #2d708e"/>
    <path d="M 39.203392 147.888 
L 36.443739 142.344 
L 36 141.249359 
L 36 138.279547 
L 37.647624 142.344 
L 40.278978 147.888 
L 41.952 150.910413 
L 43.617152 153.432 
L 47.572606 158.976 
L 47.904 159.299345 
L 52.73261 164.52 
L 53.856 165.647969 
L 58.676979 170.064 
L 59.808 171.033075 
L 65.638311 175.608 
L 65.76 175.71694 
L 71.712 179.453535 
L 74.675816 181.152 
L 77.664 182.728887 
L 83.616 185.413106 
L 87.031437 186.696 
L 89.568 187.527909 
L 95.52 188.951286 
L 101.472 189.933481 
L 107.424 190.433215 
L 113.376 190.397901 
L 119.328 189.757106 
L 125.28 188.413872 
L 130.092153 186.696 
L 131.232 185.34135 
L 133.680112 181.152 
L 131.61703 175.608 
L 131.232 175.201816 
L 126.9622 170.064 
L 125.28 168.587467 
L 121.162116 164.52 
L 119.328 163.002804 
L 114.942104 158.976 
L 113.376 157.67663 
L 108.703312 153.432 
L 107.424 152.32888 
L 102.655534 147.888 
L 101.472 146.804538 
L 96.896483 142.344 
L 95.52 140.989422 
L 91.460257 136.8 
L 89.568 134.785981 
L 86.348283 131.256 
L 83.616 128.108693 
L 81.551227 125.712 
L 77.664 120.890645 
L 77.068914 120.168 
L 72.765314 114.624 
L 71.712 113.163285 
L 68.599984 109.08 
L 65.76 104.963043 
L 64.659516 103.536 
L 60.755632 97.992 
L 59.808 96.52182 
L 56.635503 92.448 
L 53.856 88.399787 
L 52.366755 86.904 
L 47.904 81.756807 
L 46.930723 81.36 
L 41.952 79.00722 
L 39.357866 81.36 
L 36 85.328419 
L 36 81.36 
L 36 79.207346 
L 39.761569 75.816 
L 41.952 74.240245 
L 44.462971 75.816 
L 47.904 77.688458 
L 50.767306 81.36 
L 53.856 84.82332 
L 55.182075 86.904 
L 59.116795 92.448 
L 59.808 93.33558 
L 62.809381 97.992 
L 65.76 102.081844 
L 66.707469 103.536 
L 70.612364 109.08 
L 71.712 110.522835 
L 74.669329 114.624 
L 77.664 118.436093 
L 78.999665 120.168 
L 83.592423 125.712 
L 83.616 125.739367 
L 88.405174 131.256 
L 89.568 132.53088 
L 93.579021 136.8 
L 95.52 138.802979 
L 99.118283 142.344 
L 101.472 144.63857 
L 105.021558 147.888 
L 107.424 150.125398 
L 111.258737 153.432 
L 113.376 155.355304 
L 117.73995 158.976 
L 119.328 160.434029 
L 124.267469 164.52 
L 125.28 165.520134 
L 130.456785 170.064 
L 131.232 170.99681 
L 135.603038 175.608 
L 137.184 178.879558 
L 138.451229 181.152 
L 137.184 184.905831 
L 136.375906 186.696 
L 131.232 189.06635 
L 125.28 190.899857 
L 119.328 191.948324 
L 114.996139 192.24 
L 113.376 192.24 
L 110.422978 192.24 
L 107.424 192.153047 
L 101.472 191.462113 
L 95.52 190.311534 
L 89.568 188.738898 
L 83.616 186.825229 
L 83.430621 186.696 
L 77.664 183.91899 
L 72.420581 181.152 
L 71.712 180.745935 
L 65.76 177.028788 
L 64.172946 175.608 
L 59.808 172.182917 
L 57.334983 170.064 
L 53.856 166.877242 
L 51.508327 164.52 
L 47.904 160.62303 
L 46.215973 158.976 
L 42.334003 153.432 
L 41.952 152.853522 
z
" clip-path="url(#p851c308458)" style="fill: #355f8d"/>
    <path d="M 40.482919 153.432 
L 38.127807 147.888 
L 36 143.685364 
L 36 142.344 
L 36 141.249359 
L 36.443739 142.344 
L 39.203392 147.888 
L 41.952 152.853522 
L 42.334003 153.432 
L 46.215973 158.976 
L 47.904 160.62303 
L 51.508327 164.52 
L 53.856 166.877242 
L 57.334983 170.064 
L 59.808 172.182917 
L 64.172946 175.608 
L 65.76 177.028788 
L 71.712 180.745935 
L 72.420581 181.152 
L 77.664 183.91899 
L 83.430621 186.696 
L 83.616 186.825229 
L 89.568 188.738898 
L 95.52 190.311534 
L 101.472 191.462113 
L 107.424 192.153047 
L 110.422978 192.24 
L 107.424 192.24 
L 101.472 192.24 
L 98.255681 192.24 
L 95.52 191.671783 
L 89.568 189.949888 
L 83.616 188.548002 
L 80.959302 186.696 
L 77.664 185.109094 
L 71.712 182.496042 
L 70.269046 181.152 
L 65.76 178.340636 
L 62.70758 175.608 
L 59.808 173.33276 
L 55.992986 170.064 
L 53.856 168.106515 
L 50.284044 164.52 
L 47.904 161.946715 
L 44.85934 158.976 
L 41.952 154.800378 
z
M 36 75.816 
L 36 73.452688 
L 40.69268 70.272 
L 41.952 69.570487 
L 42.862189 70.272 
L 47.904 73.656386 
L 49.438202 75.816 
L 53.856 81.274056 
L 53.923083 81.36 
L 57.444617 86.904 
L 59.808 90.18321 
L 61.307036 92.448 
L 64.86313 97.992 
L 65.76 99.235148 
L 68.562261 103.536 
L 71.712 107.911376 
L 72.751665 109.08 
L 76.573344 114.624 
L 77.664 116.01236 
L 80.868873 120.168 
L 83.616 123.482672 
L 85.49473 125.712 
L 89.568 130.321144 
L 90.571655 131.256 
L 95.52 136.591108 
L 95.744265 136.8 
L 101.340083 142.344 
L 101.472 142.472602 
L 107.387581 147.888 
L 107.424 147.921917 
L 113.376 153.021292 
L 113.816934 153.432 
L 119.328 158.045198 
L 120.510079 158.976 
L 125.28 162.975279 
L 127.32513 164.52 
L 131.232 167.975441 
L 133.885119 170.064 
L 137.184 173.478645 
L 139.52288 175.608 
L 143.050971 181.152 
L 142.097984 186.696 
L 137.184 189.520691 
L 131.232 191.900618 
L 130.004598 192.24 
L 125.28 192.24 
L 119.328 192.24 
L 114.996139 192.24 
L 119.328 191.948324 
L 125.28 190.899857 
L 131.232 189.06635 
L 136.375906 186.696 
L 137.184 184.905831 
L 138.451229 181.152 
L 137.184 178.879558 
L 135.603038 175.608 
L 131.232 170.99681 
L 130.456785 170.064 
L 125.28 165.520134 
L 124.267469 164.52 
L 119.328 160.434029 
L 117.73995 158.976 
L 113.376 155.355304 
L 111.258737 153.432 
L 107.424 150.125398 
L 105.021558 147.888 
L 101.472 144.63857 
L 99.118283 142.344 
L 95.52 138.802979 
L 93.579021 136.8 
L 89.568 132.53088 
L 88.405174 131.256 
L 83.616 125.739367 
L 83.592423 125.712 
L 78.999665 120.168 
L 77.664 118.436093 
L 74.669329 114.624 
L 71.712 110.522835 
L 70.612364 109.08 
L 66.707469 103.536 
L 65.76 102.081844 
L 62.809381 97.992 
L 59.808 93.33558 
L 59.116795 92.448 
L 55.182075 86.904 
L 53.856 84.82332 
L 50.767306 81.36 
L 47.904 77.688458 
L 44.462971 75.816 
L 41.952 74.240245 
L 39.761569 75.816 
L 36 79.207346 
z
" clip-path="url(#p851c308458)" style="fill: #3d4d8a"/>
    <path d="M 38.391084 153.432 
L 37.052221 147.888 
L 36 145.809756 
L 36 143.685364 
L 38.127807 147.888 
L 40.482919 153.432 
L 41.952 154.800378 
L 44.85934 158.976 
L 47.904 161.946715 
L 50.284044 164.52 
L 53.856 168.106515 
L 55.992986 170.064 
L 59.808 173.33276 
L 62.70758 175.608 
L 65.76 178.340636 
L 70.269046 181.152 
L 71.712 182.496042 
L 77.664 185.109094 
L 80.959302 186.696 
L 83.616 188.548002 
L 89.568 189.949888 
L 95.52 191.671783 
L 98.255681 192.24 
L 95.52 192.24 
L 93.167809 192.24 
L 89.568 191.160877 
L 83.616 190.270775 
L 78.487983 186.696 
L 77.664 186.299198 
L 71.712 184.455841 
L 68.165019 181.152 
L 65.76 179.652485 
L 61.242214 175.608 
L 59.808 174.482602 
L 54.650989 170.064 
L 53.856 169.335787 
L 49.059762 164.52 
L 47.904 163.2704 
L 43.502707 158.976 
L 41.952 156.748821 
z
M 36 70.272 
L 36 67.930278 
L 41.952 64.968114 
L 47.904 69.607454 
L 48.617452 70.272 
L 52.285791 75.816 
L 53.856 77.755946 
L 56.669123 81.36 
L 59.707158 86.904 
L 59.808 87.043919 
L 63.384893 92.448 
L 65.76 96.161819 
L 67.72487 97.992 
L 70.417052 103.536 
L 71.712 105.334842 
L 75.043876 109.08 
L 77.664 113.115762 
L 79.283234 114.624 
L 82.738081 120.168 
L 83.616 121.227293 
L 87.395413 125.712 
L 89.568 128.170409 
L 92.880669 131.256 
L 95.52 134.101622 
L 98.41696 136.8 
L 101.472 139.8413 
L 104.158881 142.344 
L 107.424 145.322432 
L 110.178376 147.888 
L 113.376 150.625977 
L 116.388527 153.432 
L 119.328 155.892572 
L 123.243824 158.976 
L 125.28 160.683205 
L 130.359717 164.52 
L 131.232 165.291493 
L 137.184 169.911052 
L 137.348204 170.064 
L 143.136 175.297112 
L 143.469767 175.608 
L 147.5062 181.152 
L 147.500058 186.696 
L 143.136 189.767639 
L 138.371418 192.24 
L 137.184 192.24 
L 131.232 192.24 
L 130.004598 192.24 
L 131.232 191.900618 
L 137.184 189.520691 
L 142.097984 186.696 
L 143.050971 181.152 
L 139.52288 175.608 
L 137.184 173.478645 
L 133.885119 170.064 
L 131.232 167.975441 
L 127.32513 164.52 
L 125.28 162.975279 
L 120.510079 158.976 
L 119.328 158.045198 
L 113.816934 153.432 
L 113.376 153.021292 
L 107.424 147.921917 
L 107.387581 147.888 
L 101.472 142.472602 
L 101.340083 142.344 
L 95.744265 136.8 
L 95.52 136.591108 
L 90.571655 131.256 
L 89.568 130.321144 
L 85.49473 125.712 
L 83.616 123.482672 
L 80.868873 120.168 
L 77.664 116.01236 
L 76.573344 114.624 
L 72.751665 109.08 
L 71.712 107.911376 
L 68.562261 103.536 
L 65.76 99.235148 
L 64.86313 97.992 
L 61.307036 92.448 
L 59.808 90.18321 
L 57.444617 86.904 
L 53.923083 81.36 
L 53.856 81.274056 
L 49.438202 75.816 
L 47.904 73.656386 
L 42.862189 70.272 
L 41.952 69.570487 
L 40.69268 70.272 
L 36 73.452688 
z
" clip-path="url(#p851c308458)" style="fill: #443983"/>
    <path d="M 36.299249 153.432 
L 36 148.618865 
L 36 147.888 
L 36 145.809756 
L 37.052221 147.888 
L 38.391084 153.432 
L 41.952 156.748821 
L 43.502707 158.976 
L 47.904 163.2704 
L 49.059762 164.52 
L 53.856 169.335787 
L 54.650989 170.064 
L 59.808 174.482602 
L 61.242214 175.608 
L 65.76 179.652485 
L 68.165019 181.152 
L 71.712 184.455841 
L 77.664 186.299198 
L 78.487983 186.696 
L 83.616 190.270775 
L 89.568 191.160877 
L 93.167809 192.24 
L 89.568 192.24 
L 86.995548 192.24 
L 83.616 191.993548 
L 77.664 191.260426 
L 72.763664 186.696 
L 71.712 186.41564 
L 66.060993 181.152 
L 65.76 180.964333 
L 59.808 176.325269 
L 59.037945 175.608 
L 53.856 174.167735 
L 49.450259 170.064 
L 47.904 166.079051 
L 46.230213 164.52 
L 42.146074 158.976 
L 41.952 158.697264 
z
M 36 64.728 
L 36 60.620038 
L 41.952 59.911025 
L 47.123471 64.728 
L 47.904 65.338673 
L 53.200386 70.272 
L 53.856 71.612515 
L 58.368832 75.816 
L 59.415164 81.36 
L 59.808 82.081994 
L 64.984872 86.904 
L 65.462751 92.448 
L 65.76 92.912791 
L 71.213003 97.992 
L 71.712 99.77468 
L 75.750127 103.536 
L 77.336086 109.08 
L 77.664 109.585083 
L 83.073746 114.624 
L 83.616 115.801787 
L 88.303536 120.168 
L 89.296097 125.712 
L 89.568 126.019675 
L 95.189683 131.256 
L 95.52 131.612135 
L 101.089656 136.8 
L 101.472 137.180624 
L 107.015364 142.344 
L 107.424 142.716756 
L 112.975811 147.888 
L 113.376 148.230663 
L 118.960119 153.432 
L 119.328 153.739945 
L 125.28 155.423585 
L 129.093848 158.976 
L 131.232 159.902943 
L 136.18884 164.52 
L 137.184 165.1947 
L 142.411646 170.064 
L 143.136 170.718934 
L 148.384867 175.608 
L 149.088 176.614734 
L 153.959177 181.152 
L 154.03348 186.696 
L 149.088 191.302475 
L 147.335442 192.24 
L 143.136 192.24 
L 138.371418 192.24 
L 143.136 189.767639 
L 147.500058 186.696 
L 147.5062 181.152 
L 143.469767 175.608 
L 143.136 175.297112 
L 137.348204 170.064 
L 137.184 169.911052 
L 131.232 165.291493 
L 130.359717 164.52 
L 125.28 160.683205 
L 123.243824 158.976 
L 119.328 155.892572 
L 116.388527 153.432 
L 113.376 150.625977 
L 110.178376 147.888 
L 107.424 145.322432 
L 104.158881 142.344 
L 101.472 139.8413 
L 98.41696 136.8 
L 95.52 134.101622 
L 92.880669 131.256 
L 89.568 128.170409 
L 87.395413 125.712 
L 83.616 121.227293 
L 82.738081 120.168 
L 79.283234 114.624 
L 77.664 113.115762 
L 75.043876 109.08 
L 71.712 105.334842 
L 70.417052 103.536 
L 67.72487 97.992 
L 65.76 96.161819 
L 63.384893 92.448 
L 59.808 87.043919 
L 59.707158 86.904 
L 56.669123 81.36 
L 53.856 77.755946 
L 52.285791 75.816 
L 48.617452 70.272 
L 47.904 69.607454 
L 41.952 64.968114 
L 36 67.930278 
z
" clip-path="url(#p851c308458)" style="fill: #482475"/>
    <path d="M 36 186.696 
L 36 181.152 
L 36 175.608 
L 36 170.064 
L 36 164.52 
L 36 158.976 
L 36 153.432 
L 36 148.618865 
L 36.299249 153.432 
L 41.952 158.697264 
L 42.146074 158.976 
L 46.230213 164.52 
L 47.904 166.079051 
L 49.450259 170.064 
L 53.856 174.167735 
L 59.037945 175.608 
L 59.808 176.325269 
L 65.76 180.964333 
L 66.060993 181.152 
L 71.712 186.41564 
L 72.763664 186.696 
L 77.664 191.260426 
L 83.616 191.993548 
L 86.995548 192.24 
L 83.616 192.24 
L 77.664 192.24 
L 71.712 192.24 
L 65.76 192.24 
L 59.808 192.24 
L 53.856 192.24 
L 47.904 192.24 
L 41.952 192.24 
L 36 192.24 
z
M 36 59.184 
L 36 53.64 
L 36 48.096 
L 36 42.552 
L 36 37.008 
L 36 31.464 
L 36 25.92 
L 41.952 25.92 
L 47.904 25.92 
L 53.856 25.92 
L 59.808 25.92 
L 65.76 25.92 
L 71.712 25.92 
L 77.664 25.92 
L 83.616 25.92 
L 89.568 25.92 
L 95.52 25.92 
L 101.472 25.92 
L 107.424 25.92 
L 113.376 25.92 
L 119.328 25.92 
L 125.28 25.92 
L 131.232 25.92 
L 137.184 25.92 
L 143.136 25.92 
L 149.088 25.92 
L 155.04 25.92 
L 160.992 25.92 
L 166.944 25.92 
L 172.896 25.92 
L 178.848 25.92 
L 184.8 25.92 
L 190.752 25.92 
L 196.704 25.92 
L 202.656 25.92 
L 208.608 25.92 
L 214.56 25.92 
L 214.56 31.464 
L 214.56 37.008 
L 214.56 42.552 
L 214.56 48.096 
L 214.56 53.64 
L 214.56 59.184 
L 214.56 64.728 
L 214.56 70.272 
L 214.56 75.816 
L 214.56 81.36 
L 214.56 86.904 
L 214.56 92.448 
L 214.56 97.992 
L 214.56 103.536 
L 214.56 109.08 
L 214.56 114.624 
L 214.56 120.168 
L 214.56 125.712 
L 214.56 131.256 
L 214.56 136.8 
L 214.56 142.344 
L 214.56 147.888 
L 214.56 153.432 
L 214.56 158.976 
L 214.56 164.52 
L 214.56 170.064 
L 214.56 175.608 
L 214.56 181.152 
L 214.56 186.696 
L 214.56 192.24 
L 208.608 192.24 
L 202.656 192.24 
L 196.704 192.24 
L 190.752 192.24 
L 184.8 192.24 
L 178.848 192.24 
L 172.896 192.24 
L 166.944 192.24 
L 160.992 192.24 
L 155.04 192.24 
L 149.088 192.24 
L 147.335442 192.24 
L 149.088 191.302475 
L 154.03348 186.696 
L 153.959177 181.152 
L 149.088 176.614734 
L 148.384867 175.608 
L 143.136 170.718934 
L 142.411646 170.064 
L 137.184 165.1947 
L 136.18884 164.52 
L 131.232 159.902943 
L 129.093848 158.976 
L 125.28 155.423585 
L 119.328 153.739945 
L 118.960119 153.432 
L 113.376 148.230663 
L 112.975811 147.888 
L 107.424 142.716756 
L 107.015364 142.344 
L 101.472 137.180624 
L 101.089656 136.8 
L 95.52 131.612135 
L 95.189683 131.256 
L 89.568 126.019675 
L 89.296097 125.712 
L 88.303536 120.168 
L 83.616 115.801787 
L 83.073746 114.624 
L 77.664 109.585083 
L 77.336086 109.08 
L 75.750127 103.536 
L 71.712 99.77468 
L 71.213003 97.992 
L 65.76 92.912791 
L 65.462751 92.448 
L 64.984872 86.904 
L 59.808 82.081994 
L 59.415164 81.36 
L 58.368832 75.816 
L 53.856 71.612515 
L 53.200386 70.272 
L 47.904 65.338673 
L 47.123471 64.728 
L 41.952 59.911025 
L 36 60.620038 
z
" clip-path="url(#p851c308458)" style="fill: #470d60"/>
   </g>
   <g id="PathCollection_1">
    <defs>
     <path id="m0536c6669a" d="M -4.743416 4.743416 
L 4.743416 -4.743416 
M -4.743416 -4.743416 
L 4.743416 4.743416 
" style="stroke: #ffffff; stroke-width: 5"/>
    </defs>
    <g clip-path="url(#p851c308458)">
     <use xlink:href="#m0536c6669a" x="65.76" y="146.04" style="fill: #ffffff; stroke: #ffffff; stroke-width: 5"/>
    </g>
   </g>
   <g id="PathCollection_2">
    <defs>
     <path id="m3f53a2fbcd" d="M -4.330127 4.330127 
L 4.330127 -4.330127 
M -4.330127 -4.330127 
L 4.330127 4.330127 
" style="stroke: #000000; stroke-width: 2"/>
    </defs>
    <g clip-path="url(#p851c308458)">
     <use xlink:href="#m3f53a2fbcd" x="65.76" y="146.04" style="stroke: #000000; stroke-width: 2"/>
    </g>
   </g>
   <g id="matplotlib.axis_1">
    <g id="xtick_1">
     <g id="line2d_1">
      <defs>
       <path id="ma54f56aca7" d="M 0 0 
L 0 6 
" style="stroke: #000000; stroke-width: 2"/>
      </defs>
      <g>
       <use xlink:href="#ma54f56aca7" x="65.76" y="192.24" style="stroke: #000000; stroke-width: 2"/>
      </g>
     </g>
     <g id="text_1">
      <!-- $\mathdefault{200}$ -->
      <g transform="translate(52.39 212.377813) scale(0.14 -0.14)">
       <defs>
        <path id="DejaVuSans-32" d="M 1228 531 
L 3431 531 
L 3431 0 
L 469 0 
L 469 531 
Q 828 903 1448 1529 
Q 2069 2156 2228 2338 
Q 2531 2678 2651 2914 
Q 2772 3150 2772 3378 
Q 2772 3750 2511 3984 
Q 2250 4219 1831 4219 
Q 1534 4219 1204 4116 
Q 875 4013 500 3803 
L 500 4441 
Q 881 4594 1212 4672 
Q 1544 4750 1819 4750 
Q 2544 4750 2975 4387 
Q 3406 4025 3406 3419 
Q 3406 3131 3298 2873 
Q 3191 2616 2906 2266 
Q 2828 2175 2409 1742 
Q 1991 1309 1228 531 
z
" transform="scale(0.015625)"/>
        <path id="DejaVuSans-30" d="M 2034 4250 
Q 1547 4250 1301 3770 
Q 1056 3291 1056 2328 
Q 1056 1369 1301 889 
Q 1547 409 2034 409 
Q 2525 409 2770 889 
Q 3016 1369 3016 2328 
Q 3016 3291 2770 3770 
Q 2525 4250 2034 4250 
z
M 2034 4750 
Q 2819 4750 3233 4129 
Q 3647 3509 3647 2328 
Q 3647 1150 3233 529 
Q 2819 -91 2034 -91 
Q 1250 -91 836 529 
Q 422 1150 422 2328 
Q 422 3509 836 4129 
Q 1250 4750 2034 4750 
z
" transform="scale(0.015625)"/>
       </defs>
       <use xlink:href="#DejaVuSans-32" transform="translate(0 0.78125)"/>
       <use xlink:href="#DejaVuSans-30" transform="translate(63.623047 0.78125)"/>
       <use xlink:href="#DejaVuSans-30" transform="translate(127.246094 0.78125)"/>
      </g>
     </g>
    </g>
    <g id="xtick_2">
     <g id="line2d_2">
      <g>
       <use xlink:href="#ma54f56aca7" x="105.44" y="192.24" style="stroke: #000000; stroke-width: 2"/>
      </g>
     </g>
     <g id="text_2">
      <!-- $\mathdefault{400}$ -->
      <g transform="translate(92.07 212.377813) scale(0.14 -0.14)">
       <defs>
        <path id="DejaVuSans-34" d="M 2419 4116 
L 825 1625 
L 2419 1625 
L 2419 4116 
z
M 2253 4666 
L 3047 4666 
L 3047 1625 
L 3713 1625 
L 3713 1100 
L 3047 1100 
L 3047 0 
L 2419 0 
L 2419 1100 
L 313 1100 
L 313 1709 
L 2253 4666 
z
" transform="scale(0.015625)"/>
       </defs>
       <use xlink:href="#DejaVuSans-34" transform="translate(0 0.78125)"/>
       <use xlink:href="#DejaVuSans-30" transform="translate(63.623047 0.78125)"/>
       <use xlink:href="#DejaVuSans-30" transform="translate(127.246094 0.78125)"/>
      </g>
     </g>
    </g>
    <g id="xtick_3">
     <g id="line2d_3">
      <g>
       <use xlink:href="#ma54f56aca7" x="145.12" y="192.24" style="stroke: #000000; stroke-width: 2"/>
      </g>
     </g>
     <g id="text_3">
      <!-- $\mathdefault{600}$ -->
      <g transform="translate(131.75 212.377813) scale(0.14 -0.14)">
       <defs>
        <path id="DejaVuSans-36" d="M 2113 2584 
Q 1688 2584 1439 2293 
Q 1191 2003 1191 1497 
Q 1191 994 1439 701 
Q 1688 409 2113 409 
Q 2538 409 2786 701 
Q 3034 994 3034 1497 
Q 3034 2003 2786 2293 
Q 2538 2584 2113 2584 
z
M 3366 4563 
L 3366 3988 
Q 3128 4100 2886 4159 
Q 2644 4219 2406 4219 
Q 1781 4219 1451 3797 
Q 1122 3375 1075 2522 
Q 1259 2794 1537 2939 
Q 1816 3084 2150 3084 
Q 2853 3084 3261 2657 
Q 3669 2231 3669 1497 
Q 3669 778 3244 343 
Q 2819 -91 2113 -91 
Q 1303 -91 875 529 
Q 447 1150 447 2328 
Q 447 3434 972 4092 
Q 1497 4750 2381 4750 
Q 2619 4750 2861 4703 
Q 3103 4656 3366 4563 
z
" transform="scale(0.015625)"/>
       </defs>
       <use xlink:href="#DejaVuSans-36" transform="translate(0 0.78125)"/>
       <use xlink:href="#DejaVuSans-30" transform="translate(63.623047 0.78125)"/>
       <use xlink:href="#DejaVuSans-30" transform="translate(127.246094 0.78125)"/>
      </g>
     </g>
    </g>
    <g id="xtick_4">
     <g id="line2d_4">
      <g>
       <use xlink:href="#ma54f56aca7" x="184.8" y="192.24" style="stroke: #000000; stroke-width: 2"/>
      </g>
     </g>
     <g id="text_4">
      <!-- $\mathdefault{800}$ -->
      <g transform="translate(171.43 212.377813) scale(0.14 -0.14)">
       <defs>
        <path id="DejaVuSans-38" d="M 2034 2216 
Q 1584 2216 1326 1975 
Q 1069 1734 1069 1313 
Q 1069 891 1326 650 
Q 1584 409 2034 409 
Q 2484 409 2743 651 
Q 3003 894 3003 1313 
Q 3003 1734 2745 1975 
Q 2488 2216 2034 2216 
z
M 1403 2484 
Q 997 2584 770 2862 
Q 544 3141 544 3541 
Q 544 4100 942 4425 
Q 1341 4750 2034 4750 
Q 2731 4750 3128 4425 
Q 3525 4100 3525 3541 
Q 3525 3141 3298 2862 
Q 3072 2584 2669 2484 
Q 3125 2378 3379 2068 
Q 3634 1759 3634 1313 
Q 3634 634 3220 271 
Q 2806 -91 2034 -91 
Q 1263 -91 848 271 
Q 434 634 434 1313 
Q 434 1759 690 2068 
Q 947 2378 1403 2484 
z
M 1172 3481 
Q 1172 3119 1398 2916 
Q 1625 2713 2034 2713 
Q 2441 2713 2670 2916 
Q 2900 3119 2900 3481 
Q 2900 3844 2670 4047 
Q 2441 4250 2034 4250 
Q 1625 4250 1398 4047 
Q 1172 3844 1172 3481 
z
" transform="scale(0.015625)"/>
       </defs>
       <use xlink:href="#DejaVuSans-38" transform="translate(0 0.78125)"/>
       <use xlink:href="#DejaVuSans-30" transform="translate(63.623047 0.78125)"/>
       <use xlink:href="#DejaVuSans-30" transform="translate(127.246094 0.78125)"/>
      </g>
     </g>
    </g>
    <g id="text_5">
     <!-- Diploid N$_e$0 -->
     <g transform="translate(74.34 232.969375) scale(0.18 -0.18)">
      <defs>
       <path id="DejaVuSans-44" d="M 1259 4147 
L 1259 519 
L 2022 519 
Q 2988 519 3436 956 
Q 3884 1394 3884 2338 
Q 3884 3275 3436 3711 
Q 2988 4147 2022 4147 
L 1259 4147 
z
M 628 4666 
L 1925 4666 
Q 3281 4666 3915 4102 
Q 4550 3538 4550 2338 
Q 4550 1131 3912 565 
Q 3275 0 1925 0 
L 628 0 
L 628 4666 
z
" transform="scale(0.015625)"/>
       <path id="DejaVuSans-69" d="M 603 3500 
L 1178 3500 
L 1178 0 
L 603 0 
L 603 3500 
z
M 603 4863 
L 1178 4863 
L 1178 4134 
L 603 4134 
L 603 4863 
z
" transform="scale(0.015625)"/>
       <path id="DejaVuSans-70" d="M 1159 525 
L 1159 -1331 
L 581 -1331 
L 581 3500 
L 1159 3500 
L 1159 2969 
Q 1341 3281 1617 3432 
Q 1894 3584 2278 3584 
Q 2916 3584 3314 3078 
Q 3713 2572 3713 1747 
Q 3713 922 3314 415 
Q 2916 -91 2278 -91 
Q 1894 -91 1617 61 
Q 1341 213 1159 525 
z
M 3116 1747 
Q 3116 2381 2855 2742 
Q 2594 3103 2138 3103 
Q 1681 3103 1420 2742 
Q 1159 2381 1159 1747 
Q 1159 1113 1420 752 
Q 1681 391 2138 391 
Q 2594 391 2855 752 
Q 3116 1113 3116 1747 
z
" transform="scale(0.015625)"/>
       <path id="DejaVuSans-6c" d="M 603 4863 
L 1178 4863 
L 1178 0 
L 603 0 
L 603 4863 
z
" transform="scale(0.015625)"/>
       <path id="DejaVuSans-6f" d="M 1959 3097 
Q 1497 3097 1228 2736 
Q 959 2375 959 1747 
Q 959 1119 1226 758 
Q 1494 397 1959 397 
Q 2419 397 2687 759 
Q 2956 1122 2956 1747 
Q 2956 2369 2687 2733 
Q 2419 3097 1959 3097 
z
M 1959 3584 
Q 2709 3584 3137 3096 
Q 3566 2609 3566 1747 
Q 3566 888 3137 398 
Q 2709 -91 1959 -91 
Q 1206 -91 779 398 
Q 353 888 353 1747 
Q 353 2609 779 3096 
Q 1206 3584 1959 3584 
z
" transform="scale(0.015625)"/>
       <path id="DejaVuSans-64" d="M 2906 2969 
L 2906 4863 
L 3481 4863 
L 3481 0 
L 2906 0 
L 2906 525 
Q 2725 213 2448 61 
Q 2172 -91 1784 -91 
Q 1150 -91 751 415 
Q 353 922 353 1747 
Q 353 2572 751 3078 
Q 1150 3584 1784 3584 
Q 2172 3584 2448 3432 
Q 2725 3281 2906 2969 
z
M 947 1747 
Q 947 1113 1208 752 
Q 1469 391 1925 391 
Q 2381 391 2643 752 
Q 2906 1113 2906 1747 
Q 2906 2381 2643 2742 
Q 2381 3103 1925 3103 
Q 1469 3103 1208 2742 
Q 947 2381 947 1747 
z
" transform="scale(0.015625)"/>
       <path id="DejaVuSans-20" transform="scale(0.015625)"/>
       <path id="DejaVuSans-4e" d="M 628 4666 
L 1478 4666 
L 3547 763 
L 3547 4666 
L 4159 4666 
L 4159 0 
L 3309 0 
L 1241 3903 
L 1241 0 
L 628 0 
L 628 4666 
z
" transform="scale(0.015625)"/>
       <path id="DejaVuSans-Oblique-65" d="M 3078 2063 
Q 3088 2113 3092 2166 
Q 3097 2219 3097 2272 
Q 3097 2653 2873 2875 
Q 2650 3097 2266 3097 
Q 1838 3097 1509 2826 
Q 1181 2556 1013 2059 
L 3078 2063 
z
M 3578 1613 
L 903 1613 
Q 884 1494 878 1425 
Q 872 1356 872 1306 
Q 872 872 1139 634 
Q 1406 397 1894 397 
Q 2269 397 2603 481 
Q 2938 566 3225 728 
L 3116 159 
Q 2806 34 2476 -28 
Q 2147 -91 1806 -91 
Q 1078 -91 686 257 
Q 294 606 294 1247 
Q 294 1794 489 2264 
Q 684 2734 1063 3103 
Q 1306 3334 1642 3459 
Q 1978 3584 2356 3584 
Q 2950 3584 3301 3228 
Q 3653 2872 3653 2272 
Q 3653 2128 3634 1964 
Q 3616 1800 3578 1613 
z
" transform="scale(0.015625)"/>
      </defs>
      <use xlink:href="#DejaVuSans-44" transform="translate(0 0.015625)"/>
      <use xlink:href="#DejaVuSans-69" transform="translate(77.001953 0.015625)"/>
      <use xlink:href="#DejaVuSans-70" transform="translate(104.785156 0.015625)"/>
      <use xlink:href="#DejaVuSans-6c" transform="translate(168.261719 0.015625)"/>
      <use xlink:href="#DejaVuSans-6f" transform="translate(196.044922 0.015625)"/>
      <use xlink:href="#DejaVuSans-69" transform="translate(257.226562 0.015625)"/>
      <use xlink:href="#DejaVuSans-64" transform="translate(285.009766 0.015625)"/>
      <use xlink:href="#DejaVuSans-20" transform="translate(348.486328 0.015625)"/>
      <use xlink:href="#DejaVuSans-4e" transform="translate(380.273438 0.015625)"/>
      <use xlink:href="#DejaVuSans-Oblique-65" transform="translate(456.035156 -16.390625) scale(0.7)"/>
      <use xlink:href="#DejaVuSans-30" transform="translate(501.835938 0.015625)"/>
     </g>
    </g>
    <g id="text_6">
     <!-- $\times\mathdefault{10^{3}}\mathdefault{}$ -->
     <g transform="translate(188.56 225.887812) scale(0.1 -0.1)">
      <defs>
       <path id="DejaVuSans-d7" d="M 4488 3438 
L 3059 2003 
L 4488 575 
L 4116 197 
L 2681 1631 
L 1247 197 
L 878 575 
L 2303 2003 
L 878 3438 
L 1247 3816 
L 2681 2381 
L 4116 3816 
L 4488 3438 
z
" transform="scale(0.015625)"/>
       <path id="DejaVuSans-31" d="M 794 531 
L 1825 531 
L 1825 4091 
L 703 3866 
L 703 4441 
L 1819 4666 
L 2450 4666 
L 2450 531 
L 3481 531 
L 3481 0 
L 794 0 
L 794 531 
z
" transform="scale(0.015625)"/>
       <path id="DejaVuSans-33" d="M 2597 2516 
Q 3050 2419 3304 2112 
Q 3559 1806 3559 1356 
Q 3559 666 3084 287 
Q 2609 -91 1734 -91 
Q 1441 -91 1130 -33 
Q 819 25 488 141 
L 488 750 
Q 750 597 1062 519 
Q 1375 441 1716 441 
Q 2309 441 2620 675 
Q 2931 909 2931 1356 
Q 2931 1769 2642 2001 
Q 2353 2234 1838 2234 
L 1294 2234 
L 1294 2753 
L 1863 2753 
Q 2328 2753 2575 2939 
Q 2822 3125 2822 3475 
Q 2822 3834 2567 4026 
Q 2313 4219 1838 4219 
Q 1578 4219 1281 4162 
Q 984 4106 628 3988 
L 628 4550 
Q 988 4650 1302 4700 
Q 1616 4750 1894 4750 
Q 2613 4750 3031 4423 
Q 3450 4097 3450 3541 
Q 3450 3153 3228 2886 
Q 3006 2619 2597 2516 
z
" transform="scale(0.015625)"/>
      </defs>
      <use xlink:href="#DejaVuSans-d7" transform="translate(0 0.765625)"/>
      <use xlink:href="#DejaVuSans-31" transform="translate(83.789062 0.765625)"/>
      <use xlink:href="#DejaVuSans-30" transform="translate(147.412109 0.765625)"/>
      <use xlink:href="#DejaVuSans-33" transform="translate(211.992188 39.046875) scale(0.7)"/>
     </g>
    </g>
   </g>
   <g id="matplotlib.axis_2">
    <g id="ytick_1">
     <g id="line2d_5">
      <defs>
       <path id="m0b13aca53d" d="M 0 0 
L -6 0 
" style="stroke: #000000; stroke-width: 2"/>
      </defs>
      <g>
       <use xlink:href="#m0b13aca53d" x="36" y="164.52" style="stroke: #000000; stroke-width: 2"/>
      </g>
     </g>
     <g id="text_7">
      <!-- $\mathdefault{200}$ -->
      <g transform="translate(-0.24 169.838906) scale(0.14 -0.14)">
       <use xlink:href="#DejaVuSans-32" transform="translate(0 0.78125)"/>
       <use xlink:href="#DejaVuSans-30" transform="translate(63.623047 0.78125)"/>
       <use xlink:href="#DejaVuSans-30" transform="translate(127.246094 0.78125)"/>
      </g>
     </g>
    </g>
    <g id="ytick_2">
     <g id="line2d_6">
      <g>
       <use xlink:href="#m0b13aca53d" x="36" y="127.56" style="stroke: #000000; stroke-width: 2"/>
      </g>
     </g>
     <g id="text_8">
      <!-- $\mathdefault{400}$ -->
      <g transform="translate(-0.24 132.878906) scale(0.14 -0.14)">
       <use xlink:href="#DejaVuSans-34" transform="translate(0 0.78125)"/>
       <use xlink:href="#DejaVuSans-30" transform="translate(63.623047 0.78125)"/>
       <use xlink:href="#DejaVuSans-30" transform="translate(127.246094 0.78125)"/>
      </g>
     </g>
    </g>
    <g id="ytick_3">
     <g id="line2d_7">
      <g>
       <use xlink:href="#m0b13aca53d" x="36" y="90.6" style="stroke: #000000; stroke-width: 2"/>
      </g>
     </g>
     <g id="text_9">
      <!-- $\mathdefault{600}$ -->
      <g transform="translate(-0.24 95.918906) scale(0.14 -0.14)">
       <use xlink:href="#DejaVuSans-36" transform="translate(0 0.78125)"/>
       <use xlink:href="#DejaVuSans-30" transform="translate(63.623047 0.78125)"/>
       <use xlink:href="#DejaVuSans-30" transform="translate(127.246094 0.78125)"/>
      </g>
     </g>
    </g>
    <g id="ytick_4">
     <g id="line2d_8">
      <g>
       <use xlink:href="#m0b13aca53d" x="36" y="53.64" style="stroke: #000000; stroke-width: 2"/>
      </g>
     </g>
     <g id="text_10">
      <!-- $\mathdefault{800}$ -->
      <g transform="translate(-0.24 58.958906) scale(0.14 -0.14)">
       <use xlink:href="#DejaVuSans-38" transform="translate(0 0.78125)"/>
       <use xlink:href="#DejaVuSans-30" transform="translate(63.623047 0.78125)"/>
       <use xlink:href="#DejaVuSans-30" transform="translate(127.246094 0.78125)"/>
      </g>
     </g>
    </g>
    <g id="text_11">
     <!-- Diploid N$_e$1 -->
     <g transform="translate(-8.02 160.02) rotate(-90) scale(0.18 -0.18)">
      <use xlink:href="#DejaVuSans-44" transform="translate(0 0.015625)"/>
      <use xlink:href="#DejaVuSans-69" transform="translate(77.001953 0.015625)"/>
      <use xlink:href="#DejaVuSans-70" transform="translate(104.785156 0.015625)"/>
      <use xlink:href="#DejaVuSans-6c" transform="translate(168.261719 0.015625)"/>
      <use xlink:href="#DejaVuSans-6f" transform="translate(196.044922 0.015625)"/>
      <use xlink:href="#DejaVuSans-69" transform="translate(257.226562 0.015625)"/>
      <use xlink:href="#DejaVuSans-64" transform="translate(285.009766 0.015625)"/>
      <use xlink:href="#DejaVuSans-20" transform="translate(348.486328 0.015625)"/>
      <use xlink:href="#DejaVuSans-4e" transform="translate(380.273438 0.015625)"/>
      <use xlink:href="#DejaVuSans-Oblique-65" transform="translate(456.035156 -16.390625) scale(0.7)"/>
      <use xlink:href="#DejaVuSans-31" transform="translate(501.835938 0.015625)"/>
     </g>
    </g>
    <g id="text_12">
     <!-- $\times\mathdefault{10^{3}}\mathdefault{}$ -->
     <g transform="translate(36 22.92) scale(0.1 -0.1)">
      <use xlink:href="#DejaVuSans-d7" transform="translate(0 0.765625)"/>
      <use xlink:href="#DejaVuSans-31" transform="translate(83.789062 0.765625)"/>
      <use xlink:href="#DejaVuSans-30" transform="translate(147.412109 0.765625)"/>
      <use xlink:href="#DejaVuSans-33" transform="translate(211.992188 39.046875) scale(0.7)"/>
     </g>
    </g>
   </g>
   <g id="patch_3">
    <path d="M 36 192.24 
L 36 25.92 
" style="fill: none; stroke: #000000; stroke-width: 0.8; stroke-linejoin: miter; stroke-linecap: square"/>
   </g>
   <g id="patch_4">
    <path d="M 214.56 192.24 
L 214.56 25.92 
" style="fill: none; stroke: #000000; stroke-width: 0.8; stroke-linejoin: miter; stroke-linecap: square"/>
   </g>
   <g id="patch_5">
    <path d="M 36 192.24 
L 214.56 192.24 
" style="fill: none; stroke: #000000; stroke-width: 0.8; stroke-linejoin: miter; stroke-linecap: square"/>
   </g>
   <g id="patch_6">
    <path d="M 36 25.92 
L 214.56 25.92 
" style="fill: none; stroke: #000000; stroke-width: 0.8; stroke-linejoin: miter; stroke-linecap: square"/>
   </g>
   <g id="text_13">
    <!-- Ne0Ne1-SMC-GT-P2-S4 -->
    <g transform="translate(33.735 10.92) scale(0.16 -0.16)">
     <defs>
      <path id="DejaVuSans-65" d="M 3597 1894 
L 3597 1613 
L 953 1613 
Q 991 1019 1311 708 
Q 1631 397 2203 397 
Q 2534 397 2845 478 
Q 3156 559 3463 722 
L 3463 178 
Q 3153 47 2828 -22 
Q 2503 -91 2169 -91 
Q 1331 -91 842 396 
Q 353 884 353 1716 
Q 353 2575 817 3079 
Q 1281 3584 2069 3584 
Q 2775 3584 3186 3129 
Q 3597 2675 3597 1894 
z
M 3022 2063 
Q 3016 2534 2758 2815 
Q 2500 3097 2075 3097 
Q 1594 3097 1305 2825 
Q 1016 2553 972 2059 
L 3022 2063 
z
" transform="scale(0.015625)"/>
      <path id="DejaVuSans-2d" d="M 313 2009 
L 1997 2009 
L 1997 1497 
L 313 1497 
L 313 2009 
z
" transform="scale(0.015625)"/>
      <path id="DejaVuSans-53" d="M 3425 4513 
L 3425 3897 
Q 3066 4069 2747 4153 
Q 2428 4238 2131 4238 
Q 1616 4238 1336 4038 
Q 1056 3838 1056 3469 
Q 1056 3159 1242 3001 
Q 1428 2844 1947 2747 
L 2328 2669 
Q 3034 2534 3370 2195 
Q 3706 1856 3706 1288 
Q 3706 609 3251 259 
Q 2797 -91 1919 -91 
Q 1588 -91 1214 -16 
Q 841 59 441 206 
L 441 856 
Q 825 641 1194 531 
Q 1563 422 1919 422 
Q 2459 422 2753 634 
Q 3047 847 3047 1241 
Q 3047 1584 2836 1778 
Q 2625 1972 2144 2069 
L 1759 2144 
Q 1053 2284 737 2584 
Q 422 2884 422 3419 
Q 422 4038 858 4394 
Q 1294 4750 2059 4750 
Q 2388 4750 2728 4690 
Q 3069 4631 3425 4513 
z
" transform="scale(0.015625)"/>
      <path id="DejaVuSans-4d" d="M 628 4666 
L 1569 4666 
L 2759 1491 
L 3956 4666 
L 4897 4666 
L 4897 0 
L 4281 0 
L 4281 4097 
L 3078 897 
L 2444 897 
L 1241 4097 
L 1241 0 
L 628 0 
L 628 4666 
z
" transform="scale(0.015625)"/>
      <path id="DejaVuSans-43" d="M 4122 4306 
L 4122 3641 
Q 3803 3938 3442 4084 
Q 3081 4231 2675 4231 
Q 1875 4231 1450 3742 
Q 1025 3253 1025 2328 
Q 1025 1406 1450 917 
Q 1875 428 2675 428 
Q 3081 428 3442 575 
Q 3803 722 4122 1019 
L 4122 359 
Q 3791 134 3420 21 
Q 3050 -91 2638 -91 
Q 1578 -91 968 557 
Q 359 1206 359 2328 
Q 359 3453 968 4101 
Q 1578 4750 2638 4750 
Q 3056 4750 3426 4639 
Q 3797 4528 4122 4306 
z
" transform="scale(0.015625)"/>
      <path id="DejaVuSans-47" d="M 3809 666 
L 3809 1919 
L 2778 1919 
L 2778 2438 
L 4434 2438 
L 4434 434 
Q 4069 175 3628 42 
Q 3188 -91 2688 -91 
Q 1594 -91 976 548 
Q 359 1188 359 2328 
Q 359 3472 976 4111 
Q 1594 4750 2688 4750 
Q 3144 4750 3555 4637 
Q 3966 4525 4313 4306 
L 4313 3634 
Q 3963 3931 3569 4081 
Q 3175 4231 2741 4231 
Q 1884 4231 1454 3753 
Q 1025 3275 1025 2328 
Q 1025 1384 1454 906 
Q 1884 428 2741 428 
Q 3075 428 3337 486 
Q 3600 544 3809 666 
z
" transform="scale(0.015625)"/>
      <path id="DejaVuSans-54" d="M -19 4666 
L 3928 4666 
L 3928 4134 
L 2272 4134 
L 2272 0 
L 1638 0 
L 1638 4134 
L -19 4134 
L -19 4666 
z
" transform="scale(0.015625)"/>
      <path id="DejaVuSans-50" d="M 1259 4147 
L 1259 2394 
L 2053 2394 
Q 2494 2394 2734 2622 
Q 2975 2850 2975 3272 
Q 2975 3691 2734 3919 
Q 2494 4147 2053 4147 
L 1259 4147 
z
M 628 4666 
L 2053 4666 
Q 2838 4666 3239 4311 
Q 3641 3956 3641 3272 
Q 3641 2581 3239 2228 
Q 2838 1875 2053 1875 
L 1259 1875 
L 1259 0 
L 628 0 
L 628 4666 
z
" transform="scale(0.015625)"/>
     </defs>
     <use xlink:href="#DejaVuSans-4e"/>
     <use xlink:href="#DejaVuSans-65" x="74.804688"/>
     <use xlink:href="#DejaVuSans-30" x="136.328125"/>
     <use xlink:href="#DejaVuSans-4e" x="199.951172"/>
     <use xlink:href="#DejaVuSans-65" x="274.755859"/>
     <use xlink:href="#DejaVuSans-31" x="336.279297"/>
     <use xlink:href="#DejaVuSans-2d" x="399.902344"/>
     <use xlink:href="#DejaVuSans-53" x="435.986328"/>
     <use xlink:href="#DejaVuSans-4d" x="499.462891"/>
     <use xlink:href="#DejaVuSans-43" x="585.742188"/>
     <use xlink:href="#DejaVuSans-2d" x="655.566406"/>
     <use xlink:href="#DejaVuSans-47" x="695.275391"/>
     <use xlink:href="#DejaVuSans-54" x="769.140625"/>
     <use xlink:href="#DejaVuSans-2d" x="821.099609"/>
     <use xlink:href="#DejaVuSans-50" x="857.183594"/>
     <use xlink:href="#DejaVuSans-32" x="917.486328"/>
     <use xlink:href="#DejaVuSans-2d" x="981.109375"/>
     <use xlink:href="#DejaVuSans-53" x="1017.193359"/>
     <use xlink:href="#DejaVuSans-34" x="1080.669922"/>
    </g>
   </g>
  </g>
  <g id="axes_2">
   <g id="patch_7">
    <path d="M 225.72 192.24 
L 234.036 192.24 
L 234.036 25.92 
L 225.72 25.92 
z
" style="fill: #ffffff"/>
   </g>
   <g id="QuadMesh_1">
    <path d="M 225.72 192.24 
L 234.036 192.24 
L 234.036 181.152 
L 225.72 181.152 
L 225.72 192.24 
" clip-path="url(#pfc96f021e0)" style="fill: #eae51a"/>
    <path d="M 225.72 181.152 
L 234.036 181.152 
L 234.036 170.064 
L 225.72 170.064 
L 225.72 181.152 
" clip-path="url(#pfc96f021e0)" style="fill: #bddf26"/>
    <path d="M 225.72 170.064 
L 234.036 170.064 
L 234.036 158.976 
L 225.72 158.976 
L 225.72 170.064 
" clip-path="url(#pfc96f021e0)" style="fill: #90d743"/>
    <path d="M 225.72 158.976 
L 234.036 158.976 
L 234.036 147.888 
L 225.72 147.888 
L 225.72 158.976 
" clip-path="url(#pfc96f021e0)" style="fill: #67cc5c"/>
    <path d="M 225.72 147.888 
L 234.036 147.888 
L 234.036 136.8 
L 225.72 136.8 
L 225.72 147.888 
" clip-path="url(#pfc96f021e0)" style="fill: #44bf70"/>
    <path d="M 225.72 136.8 
L 234.036 136.8 
L 234.036 125.712 
L 225.72 125.712 
L 225.72 136.8 
" clip-path="url(#pfc96f021e0)" style="fill: #2ab07f"/>
    <path d="M 225.72 125.712 
L 234.036 125.712 
L 234.036 114.624 
L 225.72 114.624 
L 225.72 125.712 
" clip-path="url(#pfc96f021e0)" style="fill: #1fa188"/>
    <path d="M 225.72 114.624 
L 234.036 114.624 
L 234.036 103.536 
L 225.72 103.536 
L 225.72 114.624 
" clip-path="url(#pfc96f021e0)" style="fill: #21908d"/>
    <path d="M 225.72 103.536 
L 234.036 103.536 
L 234.036 92.448 
L 225.72 92.448 
L 225.72 103.536 
" clip-path="url(#pfc96f021e0)" style="fill: #27808e"/>
    <path d="M 225.72 92.448 
L 234.036 92.448 
L 234.036 81.36 
L 225.72 81.36 
L 225.72 92.448 
" clip-path="url(#pfc96f021e0)" style="fill: #2d708e"/>
    <path d="M 225.72 81.36 
L 234.036 81.36 
L 234.036 70.272 
L 225.72 70.272 
L 225.72 81.36 
" clip-path="url(#pfc96f021e0)" style="fill: #355f8d"/>
    <path d="M 225.72 70.272 
L 234.036 70.272 
L 234.036 59.184 
L 225.72 59.184 
L 225.72 70.272 
" clip-path="url(#pfc96f021e0)" style="fill: #3d4d8a"/>
    <path d="M 225.72 59.184 
L 234.036 59.184 
L 234.036 48.096 
L 225.72 48.096 
L 225.72 59.184 
" clip-path="url(#pfc96f021e0)" style="fill: #443983"/>
    <path d="M 225.72 48.096 
L 234.036 48.096 
L 234.036 37.008 
L 225.72 37.008 
L 225.72 48.096 
" clip-path="url(#pfc96f021e0)" style="fill: #482475"/>
    <path d="M 225.72 37.008 
L 234.036 37.008 
L 234.036 25.92 
L 225.72 25.92 
L 225.72 37.008 
" clip-path="url(#pfc96f021e0)" style="fill: #470d60"/>
   </g>
   <g id="matplotlib.axis_3"/>
   <g id="matplotlib.axis_4">
    <g id="ytick_5">
     <g id="line2d_9">
      <defs>
       <path id="m004559b6c7" d="M 0 0 
L 3.5 0 
" style="stroke: #000000; stroke-width: 0.8"/>
      </defs>
      <g>
       <use xlink:href="#m004559b6c7" x="234.036" y="192.24" style="stroke: #000000; stroke-width: 0.8"/>
      </g>
     </g>
     <g id="text_14">
      <!-- $\mathdefault{0.00}$ -->
      <g transform="translate(241.036 196.039219) scale(0.1 -0.1)">
       <defs>
        <path id="DejaVuSans-2e" d="M 684 794 
L 1344 794 
L 1344 0 
L 684 0 
L 684 794 
z
" transform="scale(0.015625)"/>
       </defs>
       <use xlink:href="#DejaVuSans-30" transform="translate(0 0.78125)"/>
       <use xlink:href="#DejaVuSans-2e" transform="translate(63.623047 0.78125)"/>
       <use xlink:href="#DejaVuSans-30" transform="translate(95.410156 0.78125)"/>
       <use xlink:href="#DejaVuSans-30" transform="translate(159.033203 0.78125)"/>
      </g>
     </g>
    </g>
    <g id="ytick_6">
     <g id="line2d_10">
      <g>
       <use xlink:href="#m004559b6c7" x="234.036" y="170.064" style="stroke: #000000; stroke-width: 0.8"/>
      </g>
     </g>
     <g id="text_15">
      <!-- $\mathdefault{0.08}$ -->
      <g transform="translate(241.036 173.863219) scale(0.1 -0.1)">
       <use xlink:href="#DejaVuSans-30" transform="translate(0 0.78125)"/>
       <use xlink:href="#DejaVuSans-2e" transform="translate(63.623047 0.78125)"/>
       <use xlink:href="#DejaVuSans-30" transform="translate(95.410156 0.78125)"/>
       <use xlink:href="#DejaVuSans-38" transform="translate(159.033203 0.78125)"/>
      </g>
     </g>
    </g>
    <g id="ytick_7">
     <g id="line2d_11">
      <g>
       <use xlink:href="#m004559b6c7" x="234.036" y="147.888" style="stroke: #000000; stroke-width: 0.8"/>
      </g>
     </g>
     <g id="text_16">
      <!-- $\mathdefault{0.16}$ -->
      <g transform="translate(241.036 151.687219) scale(0.1 -0.1)">
       <use xlink:href="#DejaVuSans-30" transform="translate(0 0.78125)"/>
       <use xlink:href="#DejaVuSans-2e" transform="translate(63.623047 0.78125)"/>
       <use xlink:href="#DejaVuSans-31" transform="translate(95.410156 0.78125)"/>
       <use xlink:href="#DejaVuSans-36" transform="translate(159.033203 0.78125)"/>
      </g>
     </g>
    </g>
    <g id="ytick_8">
     <g id="line2d_12">
      <g>
       <use xlink:href="#m004559b6c7" x="234.036" y="125.712" style="stroke: #000000; stroke-width: 0.8"/>
      </g>
     </g>
     <g id="text_17">
      <!-- $\mathdefault{0.24}$ -->
      <g transform="translate(241.036 129.511219) scale(0.1 -0.1)">
       <use xlink:href="#DejaVuSans-30" transform="translate(0 0.78125)"/>
       <use xlink:href="#DejaVuSans-2e" transform="translate(63.623047 0.78125)"/>
       <use xlink:href="#DejaVuSans-32" transform="translate(89.910156 0.78125)"/>
       <use xlink:href="#DejaVuSans-34" transform="translate(153.533203 0.78125)"/>
      </g>
     </g>
    </g>
    <g id="ytick_9">
     <g id="line2d_13">
      <g>
       <use xlink:href="#m004559b6c7" x="234.036" y="103.536" style="stroke: #000000; stroke-width: 0.8"/>
      </g>
     </g>
     <g id="text_18">
      <!-- $\mathdefault{0.32}$ -->
      <g transform="translate(241.036 107.335219) scale(0.1 -0.1)">
       <use xlink:href="#DejaVuSans-30" transform="translate(0 0.78125)"/>
       <use xlink:href="#DejaVuSans-2e" transform="translate(63.623047 0.78125)"/>
       <use xlink:href="#DejaVuSans-33" transform="translate(95.410156 0.78125)"/>
       <use xlink:href="#DejaVuSans-32" transform="translate(159.033203 0.78125)"/>
      </g>
     </g>
    </g>
    <g id="ytick_10">
     <g id="line2d_14">
      <g>
       <use xlink:href="#m004559b6c7" x="234.036" y="81.36" style="stroke: #000000; stroke-width: 0.8"/>
      </g>
     </g>
     <g id="text_19">
      <!-- $\mathdefault{0.40}$ -->
      <g transform="translate(241.036 85.159219) scale(0.1 -0.1)">
       <use xlink:href="#DejaVuSans-30" transform="translate(0 0.78125)"/>
       <use xlink:href="#DejaVuSans-2e" transform="translate(63.623047 0.78125)"/>
       <use xlink:href="#DejaVuSans-34" transform="translate(95.410156 0.78125)"/>
       <use xlink:href="#DejaVuSans-30" transform="translate(159.033203 0.78125)"/>
      </g>
     </g>
    </g>
    <g id="ytick_11">
     <g id="line2d_15">
      <g>
       <use xlink:href="#m004559b6c7" x="234.036" y="59.184" style="stroke: #000000; stroke-width: 0.8"/>
      </g>
     </g>
     <g id="text_20">
      <!-- $\mathdefault{0.48}$ -->
      <g transform="translate(241.036 62.983219) scale(0.1 -0.1)">
       <use xlink:href="#DejaVuSans-30" transform="translate(0 0.78125)"/>
       <use xlink:href="#DejaVuSans-2e" transform="translate(63.623047 0.78125)"/>
       <use xlink:href="#DejaVuSans-34" transform="translate(95.410156 0.78125)"/>
       <use xlink:href="#DejaVuSans-38" transform="translate(159.033203 0.78125)"/>
      </g>
     </g>
    </g>
    <g id="ytick_12">
     <g id="line2d_16">
      <g>
       <use xlink:href="#m004559b6c7" x="234.036" y="37.008" style="stroke: #000000; stroke-width: 0.8"/>
      </g>
     </g>
     <g id="text_21">
      <!-- $\mathdefault{0.56}$ -->
      <g transform="translate(241.036 40.807219) scale(0.1 -0.1)">
       <defs>
        <path id="DejaVuSans-35" d="M 691 4666 
L 3169 4666 
L 3169 4134 
L 1269 4134 
L 1269 2991 
Q 1406 3038 1543 3061 
Q 1681 3084 1819 3084 
Q 2600 3084 3056 2656 
Q 3513 2228 3513 1497 
Q 3513 744 3044 326 
Q 2575 -91 1722 -91 
Q 1428 -91 1123 -41 
Q 819 9 494 109 
L 494 744 
Q 775 591 1075 516 
Q 1375 441 1709 441 
Q 2250 441 2565 725 
Q 2881 1009 2881 1497 
Q 2881 1984 2565 2268 
Q 2250 2553 1709 2553 
Q 1456 2553 1204 2497 
Q 953 2441 691 2322 
L 691 4666 
z
" transform="scale(0.015625)"/>
       </defs>
       <use xlink:href="#DejaVuSans-30" transform="translate(0 0.78125)"/>
       <use xlink:href="#DejaVuSans-2e" transform="translate(63.623047 0.78125)"/>
       <use xlink:href="#DejaVuSans-35" transform="translate(95.410156 0.78125)"/>
       <use xlink:href="#DejaVuSans-36" transform="translate(159.033203 0.78125)"/>
      </g>
     </g>
    </g>
    <g id="text_22">
     <!-- $\Delta$ log likelihood -->
     <g transform="translate(276.456 154.98) rotate(-90) scale(0.12 -0.12)">
      <defs>
       <path id="DejaVuSans-394" d="M 2188 4044 
L 906 525 
L 3472 525 
L 2188 4044 
z
M 50 0 
L 1831 4666 
L 2547 4666 
L 4325 0 
L 50 0 
z
" transform="scale(0.015625)"/>
       <path id="DejaVuSans-67" d="M 2906 1791 
Q 2906 2416 2648 2759 
Q 2391 3103 1925 3103 
Q 1463 3103 1205 2759 
Q 947 2416 947 1791 
Q 947 1169 1205 825 
Q 1463 481 1925 481 
Q 2391 481 2648 825 
Q 2906 1169 2906 1791 
z
M 3481 434 
Q 3481 -459 3084 -895 
Q 2688 -1331 1869 -1331 
Q 1566 -1331 1297 -1286 
Q 1028 -1241 775 -1147 
L 775 -588 
Q 1028 -725 1275 -790 
Q 1522 -856 1778 -856 
Q 2344 -856 2625 -561 
Q 2906 -266 2906 331 
L 2906 616 
Q 2728 306 2450 153 
Q 2172 0 1784 0 
Q 1141 0 747 490 
Q 353 981 353 1791 
Q 353 2603 747 3093 
Q 1141 3584 1784 3584 
Q 2172 3584 2450 3431 
Q 2728 3278 2906 2969 
L 2906 3500 
L 3481 3500 
L 3481 434 
z
" transform="scale(0.015625)"/>
       <path id="DejaVuSans-6b" d="M 581 4863 
L 1159 4863 
L 1159 1991 
L 2875 3500 
L 3609 3500 
L 1753 1863 
L 3688 0 
L 2938 0 
L 1159 1709 
L 1159 0 
L 581 0 
L 581 4863 
z
" transform="scale(0.015625)"/>
       <path id="DejaVuSans-68" d="M 3513 2113 
L 3513 0 
L 2938 0 
L 2938 2094 
Q 2938 2591 2744 2837 
Q 2550 3084 2163 3084 
Q 1697 3084 1428 2787 
Q 1159 2491 1159 1978 
L 1159 0 
L 581 0 
L 581 4863 
L 1159 4863 
L 1159 2956 
Q 1366 3272 1645 3428 
Q 1925 3584 2291 3584 
Q 2894 3584 3203 3211 
Q 3513 2838 3513 2113 
z
" transform="scale(0.015625)"/>
      </defs>
      <use xlink:href="#DejaVuSans-394" transform="translate(0 0.015625)"/>
      <use xlink:href="#DejaVuSans-20" transform="translate(68.408203 0.015625)"/>
      <use xlink:href="#DejaVuSans-6c" transform="translate(100.195312 0.015625)"/>
      <use xlink:href="#DejaVuSans-6f" transform="translate(127.978516 0.015625)"/>
      <use xlink:href="#DejaVuSans-67" transform="translate(189.160156 0.015625)"/>
      <use xlink:href="#DejaVuSans-20" transform="translate(252.636719 0.015625)"/>
      <use xlink:href="#DejaVuSans-6c" transform="translate(284.423828 0.015625)"/>
      <use xlink:href="#DejaVuSans-69" transform="translate(312.207031 0.015625)"/>
      <use xlink:href="#DejaVuSans-6b" transform="translate(339.990234 0.015625)"/>
      <use xlink:href="#DejaVuSans-65" transform="translate(397.900391 0.015625)"/>
      <use xlink:href="#DejaVuSans-6c" transform="translate(459.423828 0.015625)"/>
      <use xlink:href="#DejaVuSans-69" transform="translate(487.207031 0.015625)"/>
      <use xlink:href="#DejaVuSans-68" transform="translate(514.990234 0.015625)"/>
      <use xlink:href="#DejaVuSans-6f" transform="translate(578.369141 0.015625)"/>
      <use xlink:href="#DejaVuSans-6f" transform="translate(639.550781 0.015625)"/>
      <use xlink:href="#DejaVuSans-64" transform="translate(700.732422 0.015625)"/>
     </g>
    </g>
    <g id="text_23">
     <!-- $\times\mathdefault{10^{3}}\mathdefault{}$ -->
     <g transform="translate(208.036 22.92) scale(0.1 -0.1)">
      <use xlink:href="#DejaVuSans-d7" transform="translate(0 0.765625)"/>
      <use xlink:href="#DejaVuSans-31" transform="translate(83.789062 0.765625)"/>
      <use xlink:href="#DejaVuSans-30" transform="translate(147.412109 0.765625)"/>
      <use xlink:href="#DejaVuSans-33" transform="translate(211.992188 39.046875) scale(0.7)"/>
     </g>
    </g>
   </g>
   <g id="LineCollection_1"/>
   <g id="patch_8">
    <path d="M 225.72 192.24 
L 229.878 192.24 
L 234.036 192.24 
L 234.036 25.92 
L 229.878 25.92 
L 225.72 25.92 
L 225.72 192.24 
z
" style="fill: none; stroke: #000000; stroke-width: 0.8; stroke-linejoin: miter; stroke-linecap: square"/>
   </g>
  </g>
 </g>
 <defs>
  <clipPath id="p851c308458">
   <rect x="36" y="25.92" width="178.56" height="166.32"/>
  </clipPath>
  <clipPath id="pfc96f021e0">
   <rect x="225.72" y="25.92" width="8.316" height="166.32"/>
  </clipPath>
 </defs>
</svg>
