<?xml version="1.0" encoding="utf-8" standalone="no"?>
<!DOCTYPE svg PUBLIC "-//W3C//DTD SVG 1.1//EN"
  "http://www.w3.org/Graphics/SVG/1.1/DTD/svg11.dtd">
<svg xmlns:xlink="http://www.w3.org/1999/xlink" width="288pt" height="216pt" viewBox="0 0 288 216" xmlns="http://www.w3.org/2000/svg" version="1.1">
 <metadata>
  <rdf:RDF xmlns:dc="http://purl.org/dc/elements/1.1/" xmlns:cc="http://creativecommons.org/ns#" xmlns:rdf="http://www.w3.org/1999/02/22-rdf-syntax-ns#">
   <cc:Work>
    <dc:type rdf:resource="http://purl.org/dc/dcmitype/StillImage"/>
    <dc:date>2024-12-12T06:19:08.232414</dc:date>
    <dc:format>image/svg+xml</dc:format>
    <dc:creator>
     <cc:Agent>
      <dc:title>Matplotlib v3.8.4, https://matplotlib.org/</dc:title>
     </cc:Agent>
    </dc:creator>
   </cc:Work>
  </rdf:RDF>
 </metadata>
 <defs>
  <style type="text/css">*{stroke-linejoin: round; stroke-linecap: butt}</style>
 </defs>
 <g id="figure_1">
  <g id="patch_1">
   <path d="M 0 216 
L 288 216 
L 288 0 
L 0 0 
z
" style="fill: #ffffff"/>
  </g>
  <g id="axes_1">
   <g id="patch_2">
    <path d="M 36 192.24 
L 214.56 192.24 
L 214.56 25.92 
L 36 25.92 
z
" style="fill: #ffffff"/>
   </g>
   <g id="QuadContourSet_1">
    <path d="M 59.518684 147.888 
L 58.463331 142.344 
L 58.748007 136.8 
L 59.808 133.719914 
L 65.76 133.738784 
L 69.066758 136.8 
L 71.712 139.425616 
L 73.699831 142.344 
L 76.521961 147.888 
L 76.734554 153.432 
L 71.712 156.162566 
L 65.76 154.797731 
L 64.061449 153.432 
L 59.808 148.539456 
z
" clip-path="url(#p899b81a6ca)" style="fill: #eae51a"/>
    <path d="M 59.654593 153.432 
L 57.165261 147.888 
L 55.663641 142.344 
L 55.371499 136.8 
L 56.701007 131.256 
L 59.808 126.472461 
L 65.76 128.299348 
L 68.937145 131.256 
L 71.712 133.828653 
L 74.064445 136.8 
L 77.664 141.590263 
L 78.160442 142.344 
L 80.894665 147.888 
L 82.166978 153.432 
L 79.073159 158.976 
L 77.664 159.601488 
L 71.712 160.114907 
L 67.070682 158.976 
L 65.76 158.50203 
L 59.808 153.649345 
z
M 59.808 148.539456 
L 64.061449 153.432 
L 65.76 154.797731 
L 71.712 156.162566 
L 76.734554 153.432 
L 76.521961 147.888 
L 73.699831 142.344 
L 71.712 139.425616 
L 69.066758 136.8 
L 65.76 133.738784 
L 59.808 133.719914 
L 58.748007 136.8 
L 58.463331 142.344 
L 59.518684 147.888 
z
" clip-path="url(#p899b81a6ca)" style="fill: #c0df25"/>
    <path d="M 53.420684 142.344 
L 53.121022 136.8 
L 53.40188 131.256 
L 53.856 128.201415 
L 55.196692 125.712 
L 59.808 121.258722 
L 65.76 123.796892 
L 67.744989 125.712 
L 71.712 129.404314 
L 73.246569 131.256 
L 77.664 136.571244 
L 77.833658 136.8 
L 81.509203 142.344 
L 83.616 146.040254 
L 84.6175 147.888 
L 86.268827 153.432 
L 85.231021 158.976 
L 83.616 160.3448 
L 77.664 162.700703 
L 71.712 162.628526 
L 65.76 160.787494 
L 62.798955 158.976 
L 59.808 156.481381 
L 57.655674 153.432 
L 54.811837 147.888 
L 53.856 144.927169 
z
M 59.808 153.649345 
L 65.76 158.50203 
L 67.070682 158.976 
L 71.712 160.114907 
L 77.664 159.601488 
L 79.073159 158.976 
L 82.166978 153.432 
L 80.894665 147.888 
L 78.160442 142.344 
L 77.664 141.590263 
L 74.064445 136.8 
L 71.712 133.828653 
L 68.937145 131.256 
L 65.76 128.299348 
L 59.808 126.472461 
L 56.701007 131.256 
L 55.371499 136.8 
L 55.663641 142.344 
L 57.165261 147.888 
L 59.654593 153.432 
z
" clip-path="url(#p899b81a6ca)" style="fill: #95d840"/>
    <path d="M 53.185145 147.888 
L 52.192164 142.344 
L 51.787518 136.8 
L 51.956904 131.256 
L 52.693044 125.712 
L 53.856 120.719638 
L 54.420647 120.168 
L 59.808 116.739001 
L 65.76 119.733872 
L 66.188954 120.168 
L 71.712 125.469703 
L 71.913301 125.712 
L 76.533405 131.256 
L 77.664 132.616381 
L 80.7668 136.8 
L 83.616 140.812161 
L 84.657446 142.344 
L 87.80193 147.888 
L 89.568 152.464526 
L 89.940273 153.432 
L 89.797899 158.976 
L 89.568 159.293328 
L 83.616 164.262721 
L 82.799426 164.52 
L 77.664 165.206065 
L 71.712 164.881706 
L 70.301355 164.52 
L 65.76 162.86478 
L 59.808 159.183708 
L 59.604062 158.976 
L 55.656756 153.432 
L 53.856 150.090635 
z
M 53.856 144.927169 
L 54.811837 147.888 
L 57.655674 153.432 
L 59.808 156.481381 
L 62.798955 158.976 
L 65.76 160.787494 
L 71.712 162.628526 
L 77.664 162.700703 
L 83.616 160.3448 
L 85.231021 158.976 
L 86.268827 153.432 
L 84.6175 147.888 
L 83.616 146.040254 
L 81.509203 142.344 
L 77.833658 136.8 
L 77.664 136.571244 
L 73.246569 131.256 
L 71.712 129.404314 
L 67.744989 125.712 
L 65.76 123.796892 
L 59.808 121.258722 
L 55.196692 125.712 
L 53.856 128.201415 
L 53.40188 131.256 
L 53.121022 136.8 
L 53.420684 142.344 
z
" clip-path="url(#p899b81a6ca)" style="fill: #6ece58"/>
    <path d="M 53.75323 153.432 
L 52.05548 147.888 
L 50.963645 142.344 
L 50.454015 136.8 
L 50.511928 131.256 
L 51.129663 125.712 
L 52.305603 120.168 
L 53.856 115.183908 
L 54.846783 114.624 
L 59.808 112.571086 
L 63.234132 114.624 
L 65.76 116.032742 
L 69.845972 120.168 
L 71.712 121.959244 
L 74.829792 125.712 
L 77.664 129.021714 
L 79.393423 131.256 
L 83.616 136.702684 
L 83.688587 136.8 
L 87.465544 142.344 
L 89.568 145.820091 
L 90.816409 147.888 
L 93.115557 153.432 
L 93.517681 158.976 
L 89.568 164.427721 
L 89.455669 164.52 
L 83.616 166.288608 
L 77.664 166.867316 
L 71.712 166.343087 
L 65.76 164.781806 
L 65.225867 164.52 
L 59.808 160.927066 
L 57.892347 158.976 
L 53.856 153.65567 
z
M 53.856 150.090635 
L 55.656756 153.432 
L 59.604062 158.976 
L 59.808 159.183708 
L 65.76 162.86478 
L 70.301355 164.52 
L 71.712 164.881706 
L 77.664 165.206065 
L 82.799426 164.52 
L 83.616 164.262721 
L 89.568 159.293328 
L 89.797899 158.976 
L 89.940273 153.432 
L 89.568 152.464526 
L 87.80193 147.888 
L 84.657446 142.344 
L 83.616 140.812161 
L 80.7668 136.8 
L 77.664 132.616381 
L 76.533405 131.256 
L 71.913301 125.712 
L 71.712 125.469703 
L 66.188954 120.168 
L 65.76 119.733872 
L 59.808 116.739001 
L 54.420647 120.168 
L 53.856 120.719638 
L 52.693044 125.712 
L 51.956904 131.256 
L 51.787518 136.8 
L 52.192164 142.344 
L 53.185145 147.888 
z
" clip-path="url(#p899b81a6ca)" style="fill: #4cc26c"/>
    <path d="M 52.716556 153.432 
L 50.925814 147.888 
L 49.735126 142.344 
L 49.120512 136.8 
L 49.066952 131.256 
L 49.566283 125.712 
L 50.616359 120.168 
L 52.220797 114.624 
L 53.856 110.366928 
L 57.960641 109.08 
L 59.808 108.624553 
L 60.463754 109.08 
L 65.76 112.484479 
L 67.765283 114.624 
L 71.712 118.579066 
L 73.007273 120.168 
L 77.664 125.624565 
L 77.732104 125.712 
L 82.029646 131.256 
L 83.616 133.302232 
L 86.224921 136.8 
L 89.568 141.456289 
L 90.204614 142.344 
L 93.619273 147.888 
L 95.52 151.970521 
L 96.218596 153.432 
L 97.029185 158.976 
L 95.52 162.26354 
L 94.067877 164.52 
L 89.568 166.644023 
L 83.616 168.181519 
L 77.664 168.528566 
L 71.712 167.804468 
L 65.76 166.070341 
L 62.597018 164.52 
L 59.808 162.670424 
L 56.180632 158.976 
L 53.856 155.91189 
z
M 53.856 153.65567 
L 57.892347 158.976 
L 59.808 160.927066 
L 65.225867 164.52 
L 65.76 164.781806 
L 71.712 166.343087 
L 77.664 166.867316 
L 83.616 166.288608 
L 89.455669 164.52 
L 89.568 164.427721 
L 93.517681 158.976 
L 93.115557 153.432 
L 90.816409 147.888 
L 89.568 145.820091 
L 87.465544 142.344 
L 83.688587 136.8 
L 83.616 136.702684 
L 79.393423 131.256 
L 77.664 129.021714 
L 74.829792 125.712 
L 71.712 121.959244 
L 69.845972 120.168 
L 65.76 116.032742 
L 63.234132 114.624 
L 59.808 112.571086 
L 54.846783 114.624 
L 53.856 115.183908 
L 52.305603 120.168 
L 51.129663 125.712 
L 50.511928 131.256 
L 50.454015 136.8 
L 50.963645 142.344 
L 52.05548 147.888 
L 53.75323 153.432 
z
" clip-path="url(#p899b81a6ca)" style="fill: #31b57b"/>
    <path d="M 47.844414 136.8 
L 47.773047 131.256 
L 47.904 127.069094 
L 48.002902 125.712 
L 48.927114 120.168 
L 50.397615 114.624 
L 52.42312 109.08 
L 53.856 105.917122 
L 59.808 104.892251 
L 65.76 109.032356 
L 65.802272 109.08 
L 71.002874 114.624 
L 71.712 115.334626 
L 75.652086 120.168 
L 77.664 122.52548 
L 80.146012 125.712 
L 83.616 130.053283 
L 84.54447 131.256 
L 88.761256 136.8 
L 89.568 137.923645 
L 92.738019 142.344 
L 95.52 146.63136 
L 96.355415 147.888 
L 99.096288 153.432 
L 100.297867 158.976 
L 98.143605 164.52 
L 95.52 166.214182 
L 89.568 168.806919 
L 83.671897 170.064 
L 83.616 170.069845 
L 77.664 170.138101 
L 76.939153 170.064 
L 71.712 169.265849 
L 65.76 167.358876 
L 59.968168 164.52 
L 59.808 164.413782 
L 54.468918 158.976 
L 53.856 158.16811 
L 51.679883 153.432 
L 49.796149 147.888 
L 48.506606 142.344 
L 47.904 137.641141 
z
M 53.856 155.91189 
L 56.180632 158.976 
L 59.808 162.670424 
L 62.597018 164.52 
L 65.76 166.070341 
L 71.712 167.804468 
L 77.664 168.528566 
L 83.616 168.181519 
L 89.568 166.644023 
L 94.067877 164.52 
L 95.52 162.26354 
L 97.029185 158.976 
L 96.218596 153.432 
L 95.52 151.970521 
L 93.619273 147.888 
L 90.204614 142.344 
L 89.568 141.456289 
L 86.224921 136.8 
L 83.616 133.302232 
L 82.029646 131.256 
L 77.732104 125.712 
L 77.664 125.624565 
L 73.007273 120.168 
L 71.712 118.579066 
L 67.765283 114.624 
L 65.76 112.484479 
L 60.463754 109.08 
L 59.808 108.624553 
L 57.960641 109.08 
L 53.856 110.366928 
L 52.220797 114.624 
L 50.616359 120.168 
L 49.566283 125.712 
L 49.066952 131.256 
L 49.120512 136.8 
L 49.735126 142.344 
L 50.925814 147.888 
L 52.716556 153.432 
z
" clip-path="url(#p899b81a6ca)" style="fill: #21a685"/>
    <path d="M 47.533525 142.344 
L 47.165239 136.8 
L 47.102098 131.256 
L 47.256636 125.712 
L 47.613165 120.168 
L 47.904 117.299206 
L 48.574432 114.624 
L 50.457216 109.08 
L 52.900076 103.536 
L 53.856 101.692934 
L 59.808 101.25747 
L 62.720014 103.536 
L 65.76 105.730438 
L 68.731882 109.08 
L 71.712 112.216216 
L 73.615397 114.624 
L 77.664 119.46992 
L 78.200377 120.168 
L 82.55992 125.712 
L 83.616 127.033255 
L 86.87586 131.256 
L 89.568 134.741594 
L 91.156962 136.8 
L 95.271423 142.344 
L 95.52 142.727086 
L 98.950979 147.888 
L 101.472 152.587912 
L 101.944709 153.432 
L 103.405411 158.976 
L 101.931573 164.52 
L 101.472 164.901129 
L 95.52 168.694331 
L 92.134995 170.064 
L 89.568 170.544334 
L 83.616 171.130588 
L 77.664 171.116517 
L 71.712 170.472509 
L 69.972873 170.064 
L 65.76 168.647411 
L 59.808 165.589887 
L 58.422143 164.52 
L 53.856 159.928583 
L 53.246568 158.976 
L 50.64321 153.432 
L 48.666483 147.888 
L 47.904 144.728727 
z
M 47.904 137.641141 
L 48.506606 142.344 
L 49.796149 147.888 
L 51.679883 153.432 
L 53.856 158.16811 
L 54.468918 158.976 
L 59.808 164.413782 
L 59.968168 164.52 
L 65.76 167.358876 
L 71.712 169.265849 
L 76.939153 170.064 
L 77.664 170.138101 
L 83.616 170.069845 
L 83.671897 170.064 
L 89.568 168.806919 
L 95.52 166.214182 
L 98.143605 164.52 
L 100.297867 158.976 
L 99.096288 153.432 
L 96.355415 147.888 
L 95.52 146.63136 
L 92.738019 142.344 
L 89.568 137.923645 
L 88.761256 136.8 
L 84.54447 131.256 
L 83.616 130.053283 
L 80.146012 125.712 
L 77.664 122.52548 
L 75.652086 120.168 
L 71.712 115.334626 
L 71.002874 114.624 
L 65.802272 109.08 
L 65.76 109.032356 
L 59.808 104.892251 
L 53.856 105.917122 
L 52.42312 109.08 
L 50.397615 114.624 
L 48.927114 120.168 
L 48.002902 125.712 
L 47.904 127.069094 
L 47.773047 131.256 
L 47.844414 136.8 
z
" clip-path="url(#p899b81a6ca)" style="fill: #1f978b"/>
    <path d="M 47.627661 147.888 
L 46.806369 142.344 
L 46.486063 136.8 
L 46.431148 131.256 
L 46.565554 125.712 
L 46.875634 120.168 
L 47.389052 114.624 
L 47.904 110.858972 
L 48.491312 109.08 
L 50.781851 103.536 
L 53.642024 97.992 
L 53.856 97.624194 
L 59.808 97.68662 
L 60.160503 97.992 
L 65.76 102.459558 
L 66.663582 103.536 
L 71.661492 109.08 
L 71.712 109.133153 
L 76.052615 114.624 
L 77.664 116.552725 
L 80.441835 120.168 
L 83.616 124.135894 
L 84.837542 125.712 
L 89.207251 131.256 
L 89.568 131.723073 
L 93.487074 136.8 
L 95.52 139.526035 
L 97.669589 142.344 
L 101.472 147.789962 
L 101.543226 147.888 
L 104.654595 153.432 
L 106.422626 158.976 
L 105.376654 164.52 
L 101.472 167.758171 
L 97.643811 170.064 
L 95.52 170.617825 
L 89.568 171.69127 
L 83.616 172.19133 
L 77.664 172.094933 
L 71.712 171.372631 
L 66.140826 170.064 
L 65.76 169.935946 
L 59.808 166.729187 
L 56.946371 164.52 
L 53.856 161.412523 
L 52.29719 158.976 
L 49.606537 153.432 
L 47.904 148.803956 
z
M 47.904 144.728727 
L 48.666483 147.888 
L 50.64321 153.432 
L 53.246568 158.976 
L 53.856 159.928583 
L 58.422143 164.52 
L 59.808 165.589887 
L 65.76 168.647411 
L 69.972873 170.064 
L 71.712 170.472509 
L 77.664 171.116517 
L 83.616 171.130588 
L 89.568 170.544334 
L 92.134995 170.064 
L 95.52 168.694331 
L 101.472 164.901129 
L 101.931573 164.52 
L 103.405411 158.976 
L 101.944709 153.432 
L 101.472 152.587912 
L 98.950979 147.888 
L 95.52 142.727086 
L 95.271423 142.344 
L 91.156962 136.8 
L 89.568 134.741594 
L 86.87586 131.256 
L 83.616 127.033255 
L 82.55992 125.712 
L 78.200377 120.168 
L 77.664 119.46992 
L 73.615397 114.624 
L 71.712 112.216216 
L 68.731882 109.08 
L 65.76 105.730438 
L 62.720014 103.536 
L 59.808 101.25747 
L 53.856 101.692934 
L 52.900076 103.536 
L 50.457216 109.08 
L 48.574432 114.624 
L 47.904 117.299206 
L 47.613165 120.168 
L 47.256636 125.712 
L 47.102098 131.256 
L 47.165239 136.8 
L 47.533525 142.344 
z
" clip-path="url(#p899b81a6ca)" style="fill: #23898e"/>
    <path d="M 46.777481 147.888 
L 46.079214 142.344 
L 45.806888 136.8 
L 45.760198 131.256 
L 45.874471 125.712 
L 46.138103 120.168 
L 46.574614 114.624 
L 47.249493 109.08 
L 47.904 105.411858 
L 48.663625 103.536 
L 51.360943 97.992 
L 53.856 93.703227 
L 59.808 94.201813 
L 64.183041 97.992 
L 65.76 99.250176 
L 69.357587 103.536 
L 71.712 106.145544 
L 73.946357 109.08 
L 77.664 113.672362 
L 78.376903 114.624 
L 82.683294 120.168 
L 83.616 121.333938 
L 87.009163 125.712 
L 89.568 128.94022 
L 91.403653 131.256 
L 95.52 136.450474 
L 95.802985 136.8 
L 100.053041 142.344 
L 101.472 144.376288 
L 104.023337 147.888 
L 107.364481 153.432 
L 107.424 153.608453 
L 109.342957 158.976 
L 108.729152 164.52 
L 107.424 165.86335 
L 102.257658 170.064 
L 101.472 170.320727 
L 95.52 171.854741 
L 89.568 172.838206 
L 83.616 173.252073 
L 77.664 173.073348 
L 71.712 172.272752 
L 65.76 170.82323 
L 63.864285 170.064 
L 59.808 167.868488 
L 55.4706 164.52 
L 53.856 162.896463 
L 51.347813 158.976 
L 48.569863 153.432 
L 47.904 151.621969 
z
M 47.904 148.803956 
L 49.606537 153.432 
L 52.29719 158.976 
L 53.856 161.412523 
L 56.946371 164.52 
L 59.808 166.729187 
L 65.76 169.935946 
L 66.140826 170.064 
L 71.712 171.372631 
L 77.664 172.094933 
L 83.616 172.19133 
L 89.568 171.69127 
L 95.52 170.617825 
L 97.643811 170.064 
L 101.472 167.758171 
L 105.376654 164.52 
L 106.422626 158.976 
L 104.654595 153.432 
L 101.543226 147.888 
L 101.472 147.789962 
L 97.669589 142.344 
L 95.52 139.526035 
L 93.487074 136.8 
L 89.568 131.723073 
L 89.207251 131.256 
L 84.837542 125.712 
L 83.616 124.135894 
L 80.441835 120.168 
L 77.664 116.552725 
L 76.052615 114.624 
L 71.712 109.133153 
L 71.661492 109.08 
L 66.663582 103.536 
L 65.76 102.459558 
L 60.160503 97.992 
L 59.808 97.68662 
L 53.856 97.624194 
L 53.642024 97.992 
L 50.781851 103.536 
L 48.491312 109.08 
L 47.904 110.858972 
L 47.389052 114.624 
L 46.875634 120.168 
L 46.565554 125.712 
L 46.431148 131.256 
L 46.486063 136.8 
L 46.806369 142.344 
L 47.627661 147.888 
z
" clip-path="url(#p899b81a6ca)" style="fill: #29798e"/>
    <path d="M 47.481039 153.432 
L 45.927301 147.888 
L 45.352058 142.344 
L 45.127712 136.8 
L 45.089249 131.256 
L 45.183388 125.712 
L 45.400572 120.168 
L 45.760176 114.624 
L 46.316151 109.08 
L 47.186044 103.536 
L 47.904 100.462325 
L 49.079861 97.992 
L 52.186552 92.448 
L 53.856 89.851845 
L 59.808 90.743692 
L 61.60571 92.448 
L 65.76 96.072362 
L 67.284807 97.992 
L 71.712 103.166485 
L 71.981921 103.536 
L 76.219912 109.08 
L 77.664 110.863865 
L 80.480837 114.624 
L 83.616 118.607242 
L 84.809317 120.168 
L 89.180785 125.712 
L 89.568 126.20051 
L 93.575345 131.256 
L 95.52 133.709987 
L 98.02175 136.8 
L 101.472 141.199204 
L 102.403827 142.344 
L 106.503448 147.888 
L 107.424 149.413179 
L 109.982555 153.432 
L 112.215161 158.976 
L 111.946038 164.52 
L 107.424 169.174386 
L 106.329872 170.064 
L 101.472 171.651394 
L 95.52 173.091657 
L 89.568 173.985142 
L 83.616 174.312816 
L 77.664 174.051764 
L 71.712 173.172874 
L 65.76 171.666237 
L 61.759386 170.064 
L 59.808 169.007789 
L 53.994828 164.52 
L 53.856 164.380404 
L 50.398435 158.976 
L 47.904 154.096307 
z
M 47.904 151.621969 
L 48.569863 153.432 
L 51.347813 158.976 
L 53.856 162.896463 
L 55.4706 164.52 
L 59.808 167.868488 
L 63.864285 170.064 
L 65.76 170.82323 
L 71.712 172.272752 
L 77.664 173.073348 
L 83.616 173.252073 
L 89.568 172.838206 
L 95.52 171.854741 
L 101.472 170.320727 
L 102.257658 170.064 
L 107.424 165.86335 
L 108.729152 164.52 
L 109.342957 158.976 
L 107.424 153.608453 
L 107.364481 153.432 
L 104.023337 147.888 
L 101.472 144.376288 
L 100.053041 142.344 
L 95.802985 136.8 
L 95.52 136.450474 
L 91.403653 131.256 
L 89.568 128.94022 
L 87.009163 125.712 
L 83.616 121.333938 
L 82.683294 120.168 
L 78.376903 114.624 
L 77.664 113.672362 
L 73.946357 109.08 
L 71.712 106.145544 
L 69.357587 103.536 
L 65.76 99.250176 
L 64.183041 97.992 
L 59.808 94.201813 
L 53.856 93.703227 
L 51.360943 97.992 
L 48.663625 103.536 
L 47.904 105.411858 
L 47.249493 109.08 
L 46.574614 114.624 
L 46.138103 120.168 
L 45.874471 125.712 
L 45.760198 131.256 
L 45.806888 136.8 
L 46.079214 142.344 
L 46.777481 147.888 
z
" clip-path="url(#p899b81a6ca)" style="fill: #306a8e"/>
    <path d="M 46.298568 153.432 
L 45.07712 147.888 
L 44.624903 142.344 
L 44.448536 136.8 
L 44.418299 131.256 
L 44.492305 125.712 
L 44.663041 120.168 
L 44.945738 114.624 
L 45.382809 109.08 
L 46.066662 103.536 
L 47.210828 97.992 
L 47.904 95.805552 
L 49.731005 92.448 
L 53.25334 86.904 
L 53.856 86.046925 
L 57.766007 86.904 
L 59.808 87.312608 
L 65.22483 92.448 
L 65.76 92.914903 
L 69.792841 97.992 
L 71.712 100.235105 
L 74.123216 103.536 
L 77.664 108.077905 
L 78.390672 109.08 
L 82.584772 114.624 
L 83.616 115.934182 
L 86.853074 120.168 
L 89.568 123.59327 
L 91.248369 125.712 
L 95.52 130.991752 
L 95.738239 131.256 
L 100.240516 136.8 
L 101.472 138.37019 
L 104.706554 142.344 
L 107.424 145.960771 
L 108.945476 147.888 
L 112.598566 153.432 
L 113.376 155.276956 
L 115.03908 158.976 
L 115.088604 164.52 
L 113.376 166.668307 
L 110.128725 170.064 
L 107.424 171.108486 
L 101.472 172.98206 
L 95.52 174.328573 
L 89.568 175.132079 
L 83.616 175.373559 
L 77.664 175.03018 
L 71.712 174.072996 
L 65.76 172.509245 
L 59.808 170.171857 
L 59.692206 170.064 
L 53.856 165.616187 
L 52.679141 164.52 
L 49.449057 158.976 
L 47.904 155.95351 
z
M 47.904 154.096307 
L 50.398435 158.976 
L 53.856 164.380404 
L 53.994828 164.52 
L 59.808 169.007789 
L 61.759386 170.064 
L 65.76 171.666237 
L 71.712 173.172874 
L 77.664 174.051764 
L 83.616 174.312816 
L 89.568 173.985142 
L 95.52 173.091657 
L 101.472 171.651394 
L 106.329872 170.064 
L 107.424 169.174386 
L 111.946038 164.52 
L 112.215161 158.976 
L 109.982555 153.432 
L 107.424 149.413179 
L 106.503448 147.888 
L 102.403827 142.344 
L 101.472 141.199204 
L 98.02175 136.8 
L 95.52 133.709987 
L 93.575345 131.256 
L 89.568 126.20051 
L 89.180785 125.712 
L 84.809317 120.168 
L 83.616 118.607242 
L 80.480837 114.624 
L 77.664 110.863865 
L 76.219912 109.08 
L 71.981921 103.536 
L 71.712 103.166485 
L 67.284807 97.992 
L 65.76 96.072362 
L 61.60571 92.448 
L 59.808 90.743692 
L 53.856 89.851845 
L 52.186552 92.448 
L 49.079861 97.992 
L 47.904 100.462325 
L 47.186044 103.536 
L 46.316151 109.08 
L 45.760176 114.624 
L 45.400572 120.168 
L 45.183388 125.712 
L 45.089249 131.256 
L 45.127712 136.8 
L 45.352058 142.344 
L 45.927301 147.888 
L 47.481039 153.432 
z
" clip-path="url(#p899b81a6ca)" style="fill: #375b8d"/>
    <path d="M 45.116096 153.432 
L 44.22694 147.888 
L 43.897747 142.344 
L 43.769361 136.8 
L 43.74735 131.256 
L 43.801222 125.712 
L 43.92551 120.168 
L 44.1313 114.624 
L 44.449467 109.08 
L 44.94728 103.536 
L 45.780179 97.992 
L 47.384346 92.448 
L 47.904 91.339373 
L 50.61048 86.904 
L 53.856 82.288372 
L 59.808 83.902987 
L 62.725004 86.904 
L 65.76 89.776957 
L 67.768945 92.448 
L 71.712 97.309516 
L 72.192138 97.992 
L 76.264511 103.536 
L 77.664 105.33118 
L 80.382468 109.08 
L 83.616 113.298977 
L 84.604727 114.624 
L 88.89683 120.168 
L 89.568 121.014777 
L 93.293377 125.712 
L 95.52 128.464115 
L 97.825784 131.256 
L 101.472 135.674392 
L 102.434096 136.8 
L 107.009281 142.344 
L 107.424 142.895968 
L 111.365026 147.888 
L 113.376 150.891885 
L 115.181321 153.432 
L 117.830249 158.976 
L 118.171696 164.52 
L 113.800178 170.064 
L 113.376 170.305716 
L 107.424 172.536709 
L 101.472 174.312726 
L 95.52 175.565489 
L 95.18975 175.608 
L 89.568 176.602674 
L 83.616 176.858048 
L 77.664 176.343721 
L 75.477935 175.608 
L 71.712 174.973117 
L 65.76 173.352252 
L 59.808 171.650744 
L 58.104483 170.064 
L 53.856 166.826202 
L 51.380078 164.52 
L 48.499679 158.976 
L 47.904 157.810713 
z
M 47.904 155.95351 
L 49.449057 158.976 
L 52.679141 164.52 
L 53.856 165.616187 
L 59.692206 170.064 
L 59.808 170.171857 
L 65.76 172.509245 
L 71.712 174.072996 
L 77.664 175.03018 
L 83.616 175.373559 
L 89.568 175.132079 
L 95.52 174.328573 
L 101.472 172.98206 
L 107.424 171.108486 
L 110.128725 170.064 
L 113.376 166.668307 
L 115.088604 164.52 
L 115.03908 158.976 
L 113.376 155.276956 
L 112.598566 153.432 
L 108.945476 147.888 
L 107.424 145.960771 
L 104.706554 142.344 
L 101.472 138.37019 
L 100.240516 136.8 
L 95.738239 131.256 
L 95.52 130.991752 
L 91.248369 125.712 
L 89.568 123.59327 
L 86.853074 120.168 
L 83.616 115.934182 
L 82.584772 114.624 
L 78.390672 109.08 
L 77.664 108.077905 
L 74.123216 103.536 
L 71.712 100.235105 
L 69.792841 97.992 
L 65.76 92.914903 
L 65.22483 92.448 
L 59.808 87.312608 
L 57.766007 86.904 
L 53.856 86.046925 
L 53.25334 86.904 
L 49.731005 92.448 
L 47.904 95.805552 
L 47.210828 97.992 
L 46.066662 103.536 
L 45.382809 109.08 
L 44.945738 114.624 
L 44.663041 120.168 
L 44.492305 125.712 
L 44.418299 131.256 
L 44.448536 136.8 
L 44.624903 142.344 
L 45.07712 147.888 
L 46.298568 153.432 
z
" clip-path="url(#p899b81a6ca)" style="fill: #3f4889"/>
    <path d="M 46.82146 158.976 
L 43.933625 153.432 
L 43.37676 147.888 
L 43.170592 142.344 
L 43.090185 136.8 
L 43.0764 131.256 
L 43.11014 125.712 
L 43.187979 120.168 
L 43.316862 114.624 
L 43.516126 109.08 
L 43.827898 103.536 
L 44.34953 97.992 
L 45.354195 92.448 
L 47.904 87.00826 
L 47.96762 86.904 
L 51.714138 81.36 
L 53.856 78.551848 
L 59.808 80.49685 
L 60.590149 81.36 
L 65.76 86.641002 
L 66.042352 86.904 
L 70.126511 92.448 
L 71.712 94.4028 
L 74.237057 97.992 
L 77.664 102.586271 
L 78.683623 103.536 
L 82.374263 109.08 
L 83.616 110.700166 
L 86.54395 114.624 
L 89.568 118.499094 
L 91.270865 120.168 
L 95.338384 125.712 
L 95.52 125.936478 
L 99.913328 131.256 
L 101.472 133.144759 
L 104.59626 136.8 
L 107.424 140.20767 
L 109.379357 142.344 
L 113.376 147.380501 
L 113.920847 147.888 
L 117.750015 153.432 
L 119.328 156.59218 
L 120.617312 158.976 
L 121.207971 164.52 
L 119.328 167.372529 
L 117.277523 170.064 
L 113.376 172.287261 
L 107.424 173.964932 
L 101.6065 175.608 
L 101.472 175.694616 
L 95.52 177.634701 
L 89.568 178.302827 
L 83.616 178.462764 
L 77.664 178.140649 
L 71.712 176.437053 
L 70.821934 175.608 
L 65.76 174.19526 
L 59.808 173.129631 
L 56.51676 170.064 
L 53.856 168.036217 
L 50.081014 164.52 
L 47.904 159.984334 
z
M 47.904 157.810713 
L 48.499679 158.976 
L 51.380078 164.52 
L 53.856 166.826202 
L 58.104483 170.064 
L 59.808 171.650744 
L 65.76 173.352252 
L 71.712 174.973117 
L 75.477935 175.608 
L 77.664 176.343721 
L 83.616 176.858048 
L 89.568 176.602674 
L 95.18975 175.608 
L 95.52 175.565489 
L 101.472 174.312726 
L 107.424 172.536709 
L 113.376 170.305716 
L 113.800178 170.064 
L 118.171696 164.52 
L 117.830249 158.976 
L 115.181321 153.432 
L 113.376 150.891885 
L 111.365026 147.888 
L 107.424 142.895968 
L 107.009281 142.344 
L 102.434096 136.8 
L 101.472 135.674392 
L 97.825784 131.256 
L 95.52 128.464115 
L 93.293377 125.712 
L 89.568 121.014777 
L 88.89683 120.168 
L 84.604727 114.624 
L 83.616 113.298977 
L 80.382468 109.08 
L 77.664 105.33118 
L 76.264511 103.536 
L 72.192138 97.992 
L 71.712 97.309516 
L 67.768945 92.448 
L 65.76 89.776957 
L 62.725004 86.904 
L 59.808 83.902987 
L 53.856 82.288372 
L 50.61048 86.904 
L 47.904 91.339373 
L 47.384346 92.448 
L 45.780179 97.992 
L 44.94728 103.536 
L 44.449467 109.08 
L 44.1313 114.624 
L 43.92551 120.168 
L 43.801222 125.712 
L 43.74735 131.256 
L 43.769361 136.8 
L 43.897747 142.344 
L 44.22694 147.888 
L 45.116096 153.432 
z
" clip-path="url(#p899b81a6ca)" style="fill: #453581"/>
    <path d="M 43.915765 158.976 
L 42.751154 153.432 
L 42.52658 147.888 
L 42.443436 142.344 
L 42.41101 136.8 
L 42.40545 131.256 
L 42.419057 125.712 
L 42.450448 120.168 
L 42.502424 114.624 
L 42.582784 109.08 
L 42.708516 103.536 
L 42.918881 97.992 
L 43.324044 92.448 
L 44.387316 86.904 
L 47.904 82.790854 
L 48.869689 81.36 
L 52.173218 75.816 
L 53.856 74.24857 
L 56.328331 75.816 
L 59.808 77.092423 
L 63.675092 81.36 
L 65.76 83.489733 
L 69.425533 86.904 
L 71.712 90.638415 
L 73.654758 92.448 
L 76.281975 97.992 
L 77.664 99.844787 
L 81.626861 103.536 
L 83.616 107.096237 
L 85.745755 109.08 
L 88.483173 114.624 
L 89.568 116.014125 
L 93.8064 120.168 
L 95.52 122.52891 
L 98.937344 125.712 
L 101.472 129.744394 
L 103.09485 131.256 
L 106.758425 136.8 
L 107.424 137.602076 
L 111.764226 142.344 
L 113.376 144.37513 
L 117.147393 147.888 
L 119.328 151.417678 
L 121.490562 153.432 
L 123.399622 158.976 
L 124.21615 164.52 
L 121.57655 170.064 
L 119.328 172.158416 
L 113.376 174.268805 
L 107.424 175.393155 
L 106.663313 175.608 
L 101.472 178.951135 
L 95.52 179.733537 
L 89.568 180.00298 
L 83.616 180.067479 
L 77.664 179.937576 
L 71.712 179.250547 
L 67.801387 175.608 
L 65.76 175.038267 
L 59.808 174.608518 
L 54.929036 170.064 
L 53.856 169.246231 
L 48.781951 164.52 
L 47.904 162.690847 
z
M 47.904 159.984334 
L 50.081014 164.52 
L 53.856 168.036217 
L 56.51676 170.064 
L 59.808 173.129631 
L 65.76 174.19526 
L 70.821934 175.608 
L 71.712 176.437053 
L 77.664 178.140649 
L 83.616 178.462764 
L 89.568 178.302827 
L 95.52 177.634701 
L 101.472 175.694616 
L 101.6065 175.608 
L 107.424 173.964932 
L 113.376 172.287261 
L 117.277523 170.064 
L 119.328 167.372529 
L 121.207971 164.52 
L 120.617312 158.976 
L 119.328 156.59218 
L 117.750015 153.432 
L 113.920847 147.888 
L 113.376 147.380501 
L 109.379357 142.344 
L 107.424 140.20767 
L 104.59626 136.8 
L 101.472 133.144759 
L 99.913328 131.256 
L 95.52 125.936478 
L 95.338384 125.712 
L 91.270865 120.168 
L 89.568 118.499094 
L 86.54395 114.624 
L 83.616 110.700166 
L 82.374263 109.08 
L 78.683623 103.536 
L 77.664 102.586271 
L 74.237057 97.992 
L 71.712 94.4028 
L 70.126511 92.448 
L 66.042352 86.904 
L 65.76 86.641002 
L 60.590149 81.36 
L 59.808 80.49685 
L 53.856 78.551848 
L 51.714138 81.36 
L 47.96762 86.904 
L 47.904 87.00826 
L 45.354195 92.448 
L 44.34953 97.992 
L 43.827898 103.536 
L 43.516126 109.08 
L 43.316862 114.624 
L 43.187979 120.168 
L 43.11014 125.712 
L 43.0764 131.256 
L 43.090185 136.8 
L 43.170592 142.344 
L 43.37676 147.888 
L 43.933625 153.432 
L 46.82146 158.976 
z
" clip-path="url(#p899b81a6ca)" style="fill: #482173"/>
    <path d="M 36 186.696 
L 36 181.152 
L 36 175.608 
L 36 170.064 
L 36 164.52 
L 36 158.976 
L 36 153.432 
L 36 147.888 
L 36 142.344 
L 36 136.8 
L 36 131.256 
L 36 125.712 
L 36 120.168 
L 36 114.624 
L 36 109.08 
L 36 103.536 
L 36 97.992 
L 36 92.448 
L 36 86.904 
L 36 81.36 
L 36 75.816 
L 36 70.272 
L 36 64.728 
L 36 59.184 
L 36 53.64 
L 36 48.096 
L 36 42.552 
L 36 37.008 
L 36 31.464 
L 36 25.92 
L 41.952 25.92 
L 47.904 25.92 
L 53.856 25.92 
L 59.808 25.92 
L 65.76 25.92 
L 71.712 25.92 
L 77.664 25.92 
L 83.616 25.92 
L 89.568 25.92 
L 95.52 25.92 
L 101.472 25.92 
L 107.424 25.92 
L 113.376 25.92 
L 119.328 25.92 
L 125.28 25.92 
L 131.232 25.92 
L 137.184 25.92 
L 143.136 25.92 
L 149.088 25.92 
L 155.04 25.92 
L 160.992 25.92 
L 166.944 25.92 
L 172.896 25.92 
L 178.848 25.92 
L 184.8 25.92 
L 190.752 25.92 
L 196.704 25.92 
L 202.656 25.92 
L 208.608 25.92 
L 214.56 25.92 
L 214.56 31.464 
L 214.56 37.008 
L 214.56 42.552 
L 214.56 48.096 
L 214.56 53.64 
L 214.56 59.184 
L 214.56 64.728 
L 214.56 70.272 
L 214.56 75.816 
L 214.56 81.36 
L 214.56 86.904 
L 214.56 92.448 
L 214.56 97.992 
L 214.56 103.536 
L 214.56 109.08 
L 214.56 114.624 
L 214.56 120.168 
L 214.56 125.712 
L 214.56 131.256 
L 214.56 136.8 
L 214.56 142.344 
L 214.56 147.888 
L 214.56 153.432 
L 214.56 158.976 
L 214.56 164.52 
L 214.56 170.064 
L 214.56 175.608 
L 214.56 181.152 
L 214.56 186.696 
L 214.56 192.24 
L 208.608 192.24 
L 202.656 192.24 
L 196.704 192.24 
L 190.752 192.24 
L 184.8 192.24 
L 178.848 192.24 
L 172.896 192.24 
L 166.944 192.24 
L 160.992 192.24 
L 155.04 192.24 
L 149.088 192.24 
L 143.136 192.24 
L 137.184 192.24 
L 131.232 192.24 
L 125.28 192.24 
L 119.328 192.24 
L 113.376 192.24 
L 107.424 192.24 
L 101.472 192.24 
L 95.52 192.24 
L 89.568 192.24 
L 83.616 192.24 
L 77.664 192.24 
L 71.712 192.24 
L 65.76 192.24 
L 59.808 192.24 
L 53.856 192.24 
L 47.904 192.24 
L 41.952 192.24 
L 36 192.24 
z
M 47.904 162.690847 
L 48.781951 164.52 
L 53.856 169.246231 
L 54.929036 170.064 
L 59.808 174.608518 
L 65.76 175.038267 
L 67.801387 175.608 
L 71.712 179.250547 
L 77.664 179.937576 
L 83.616 180.067479 
L 89.568 180.00298 
L 95.52 179.733537 
L 101.472 178.951135 
L 106.663313 175.608 
L 107.424 175.393155 
L 113.376 174.268805 
L 119.328 172.158416 
L 121.57655 170.064 
L 124.21615 164.52 
L 123.399622 158.976 
L 121.490562 153.432 
L 119.328 151.417678 
L 117.147393 147.888 
L 113.376 144.37513 
L 111.764226 142.344 
L 107.424 137.602076 
L 106.758425 136.8 
L 103.09485 131.256 
L 101.472 129.744394 
L 98.937344 125.712 
L 95.52 122.52891 
L 93.8064 120.168 
L 89.568 116.014125 
L 88.483173 114.624 
L 85.745755 109.08 
L 83.616 107.096237 
L 81.626861 103.536 
L 77.664 99.844787 
L 76.281975 97.992 
L 73.654758 92.448 
L 71.712 90.638415 
L 69.425533 86.904 
L 65.76 83.489733 
L 63.675092 81.36 
L 59.808 77.092423 
L 56.328331 75.816 
L 53.856 74.24857 
L 52.173218 75.816 
L 48.869689 81.36 
L 47.904 82.790854 
L 44.387316 86.904 
L 43.324044 92.448 
L 42.918881 97.992 
L 42.708516 103.536 
L 42.582784 109.08 
L 42.502424 114.624 
L 42.450448 120.168 
L 42.419057 125.712 
L 42.40545 131.256 
L 42.41101 136.8 
L 42.443436 142.344 
L 42.52658 147.888 
L 42.751154 153.432 
L 43.915765 158.976 
z
" clip-path="url(#p899b81a6ca)" style="fill: #460b5e"/>
   </g>
   <g id="PathCollection_1">
    <defs>
     <path id="m74a546fe1e" d="M -4.743416 4.743416 
L 4.743416 -4.743416 
M -4.743416 -4.743416 
L 4.743416 4.743416 
" style="stroke: #ffffff; stroke-width: 5"/>
    </defs>
    <g clip-path="url(#p899b81a6ca)">
     <use xlink:href="#m74a546fe1e" x="65.76" y="146.04" style="fill: #ffffff; stroke: #ffffff; stroke-width: 5"/>
    </g>
   </g>
   <g id="PathCollection_2">
    <defs>
     <path id="m717de555b2" d="M -4.330127 4.330127 
L 4.330127 -4.330127 
M -4.330127 -4.330127 
L 4.330127 4.330127 
" style="stroke: #000000; stroke-width: 2"/>
    </defs>
    <g clip-path="url(#p899b81a6ca)">
     <use xlink:href="#m717de555b2" x="65.76" y="146.04" style="stroke: #000000; stroke-width: 2"/>
    </g>
   </g>
   <g id="matplotlib.axis_1">
    <g id="xtick_1">
     <g id="line2d_1">
      <defs>
       <path id="mebe5875d98" d="M 0 0 
L 0 6 
" style="stroke: #000000; stroke-width: 2"/>
      </defs>
      <g>
       <use xlink:href="#mebe5875d98" x="65.76" y="192.24" style="stroke: #000000; stroke-width: 2"/>
      </g>
     </g>
     <g id="text_1">
      <!-- $\mathdefault{200}$ -->
      <g transform="translate(52.39 212.377813) scale(0.14 -0.14)">
       <defs>
        <path id="DejaVuSans-32" d="M 1228 531 
L 3431 531 
L 3431 0 
L 469 0 
L 469 531 
Q 828 903 1448 1529 
Q 2069 2156 2228 2338 
Q 2531 2678 2651 2914 
Q 2772 3150 2772 3378 
Q 2772 3750 2511 3984 
Q 2250 4219 1831 4219 
Q 1534 4219 1204 4116 
Q 875 4013 500 3803 
L 500 4441 
Q 881 4594 1212 4672 
Q 1544 4750 1819 4750 
Q 2544 4750 2975 4387 
Q 3406 4025 3406 3419 
Q 3406 3131 3298 2873 
Q 3191 2616 2906 2266 
Q 2828 2175 2409 1742 
Q 1991 1309 1228 531 
z
" transform="scale(0.015625)"/>
        <path id="DejaVuSans-30" d="M 2034 4250 
Q 1547 4250 1301 3770 
Q 1056 3291 1056 2328 
Q 1056 1369 1301 889 
Q 1547 409 2034 409 
Q 2525 409 2770 889 
Q 3016 1369 3016 2328 
Q 3016 3291 2770 3770 
Q 2525 4250 2034 4250 
z
M 2034 4750 
Q 2819 4750 3233 4129 
Q 3647 3509 3647 2328 
Q 3647 1150 3233 529 
Q 2819 -91 2034 -91 
Q 1250 -91 836 529 
Q 422 1150 422 2328 
Q 422 3509 836 4129 
Q 1250 4750 2034 4750 
z
" transform="scale(0.015625)"/>
       </defs>
       <use xlink:href="#DejaVuSans-32" transform="translate(0 0.78125)"/>
       <use xlink:href="#DejaVuSans-30" transform="translate(63.623047 0.78125)"/>
       <use xlink:href="#DejaVuSans-30" transform="translate(127.246094 0.78125)"/>
      </g>
     </g>
    </g>
    <g id="xtick_2">
     <g id="line2d_2">
      <g>
       <use xlink:href="#mebe5875d98" x="105.44" y="192.24" style="stroke: #000000; stroke-width: 2"/>
      </g>
     </g>
     <g id="text_2">
      <!-- $\mathdefault{400}$ -->
      <g transform="translate(92.07 212.377813) scale(0.14 -0.14)">
       <defs>
        <path id="DejaVuSans-34" d="M 2419 4116 
L 825 1625 
L 2419 1625 
L 2419 4116 
z
M 2253 4666 
L 3047 4666 
L 3047 1625 
L 3713 1625 
L 3713 1100 
L 3047 1100 
L 3047 0 
L 2419 0 
L 2419 1100 
L 313 1100 
L 313 1709 
L 2253 4666 
z
" transform="scale(0.015625)"/>
       </defs>
       <use xlink:href="#DejaVuSans-34" transform="translate(0 0.78125)"/>
       <use xlink:href="#DejaVuSans-30" transform="translate(63.623047 0.78125)"/>
       <use xlink:href="#DejaVuSans-30" transform="translate(127.246094 0.78125)"/>
      </g>
     </g>
    </g>
    <g id="xtick_3">
     <g id="line2d_3">
      <g>
       <use xlink:href="#mebe5875d98" x="145.12" y="192.24" style="stroke: #000000; stroke-width: 2"/>
      </g>
     </g>
     <g id="text_3">
      <!-- $\mathdefault{600}$ -->
      <g transform="translate(131.75 212.377813) scale(0.14 -0.14)">
       <defs>
        <path id="DejaVuSans-36" d="M 2113 2584 
Q 1688 2584 1439 2293 
Q 1191 2003 1191 1497 
Q 1191 994 1439 701 
Q 1688 409 2113 409 
Q 2538 409 2786 701 
Q 3034 994 3034 1497 
Q 3034 2003 2786 2293 
Q 2538 2584 2113 2584 
z
M 3366 4563 
L 3366 3988 
Q 3128 4100 2886 4159 
Q 2644 4219 2406 4219 
Q 1781 4219 1451 3797 
Q 1122 3375 1075 2522 
Q 1259 2794 1537 2939 
Q 1816 3084 2150 3084 
Q 2853 3084 3261 2657 
Q 3669 2231 3669 1497 
Q 3669 778 3244 343 
Q 2819 -91 2113 -91 
Q 1303 -91 875 529 
Q 447 1150 447 2328 
Q 447 3434 972 4092 
Q 1497 4750 2381 4750 
Q 2619 4750 2861 4703 
Q 3103 4656 3366 4563 
z
" transform="scale(0.015625)"/>
       </defs>
       <use xlink:href="#DejaVuSans-36" transform="translate(0 0.78125)"/>
       <use xlink:href="#DejaVuSans-30" transform="translate(63.623047 0.78125)"/>
       <use xlink:href="#DejaVuSans-30" transform="translate(127.246094 0.78125)"/>
      </g>
     </g>
    </g>
    <g id="xtick_4">
     <g id="line2d_4">
      <g>
       <use xlink:href="#mebe5875d98" x="184.8" y="192.24" style="stroke: #000000; stroke-width: 2"/>
      </g>
     </g>
     <g id="text_4">
      <!-- $\mathdefault{800}$ -->
      <g transform="translate(171.43 212.377813) scale(0.14 -0.14)">
       <defs>
        <path id="DejaVuSans-38" d="M 2034 2216 
Q 1584 2216 1326 1975 
Q 1069 1734 1069 1313 
Q 1069 891 1326 650 
Q 1584 409 2034 409 
Q 2484 409 2743 651 
Q 3003 894 3003 1313 
Q 3003 1734 2745 1975 
Q 2488 2216 2034 2216 
z
M 1403 2484 
Q 997 2584 770 2862 
Q 544 3141 544 3541 
Q 544 4100 942 4425 
Q 1341 4750 2034 4750 
Q 2731 4750 3128 4425 
Q 3525 4100 3525 3541 
Q 3525 3141 3298 2862 
Q 3072 2584 2669 2484 
Q 3125 2378 3379 2068 
Q 3634 1759 3634 1313 
Q 3634 634 3220 271 
Q 2806 -91 2034 -91 
Q 1263 -91 848 271 
Q 434 634 434 1313 
Q 434 1759 690 2068 
Q 947 2378 1403 2484 
z
M 1172 3481 
Q 1172 3119 1398 2916 
Q 1625 2713 2034 2713 
Q 2441 2713 2670 2916 
Q 2900 3119 2900 3481 
Q 2900 3844 2670 4047 
Q 2441 4250 2034 4250 
Q 1625 4250 1398 4047 
Q 1172 3844 1172 3481 
z
" transform="scale(0.015625)"/>
       </defs>
       <use xlink:href="#DejaVuSans-38" transform="translate(0 0.78125)"/>
       <use xlink:href="#DejaVuSans-30" transform="translate(63.623047 0.78125)"/>
       <use xlink:href="#DejaVuSans-30" transform="translate(127.246094 0.78125)"/>
      </g>
     </g>
    </g>
    <g id="text_5">
     <!-- Diploid N$_e$0 -->
     <g transform="translate(74.34 232.969375) scale(0.18 -0.18)">
      <defs>
       <path id="DejaVuSans-44" d="M 1259 4147 
L 1259 519 
L 2022 519 
Q 2988 519 3436 956 
Q 3884 1394 3884 2338 
Q 3884 3275 3436 3711 
Q 2988 4147 2022 4147 
L 1259 4147 
z
M 628 4666 
L 1925 4666 
Q 3281 4666 3915 4102 
Q 4550 3538 4550 2338 
Q 4550 1131 3912 565 
Q 3275 0 1925 0 
L 628 0 
L 628 4666 
z
" transform="scale(0.015625)"/>
       <path id="DejaVuSans-69" d="M 603 3500 
L 1178 3500 
L 1178 0 
L 603 0 
L 603 3500 
z
M 603 4863 
L 1178 4863 
L 1178 4134 
L 603 4134 
L 603 4863 
z
" transform="scale(0.015625)"/>
       <path id="DejaVuSans-70" d="M 1159 525 
L 1159 -1331 
L 581 -1331 
L 581 3500 
L 1159 3500 
L 1159 2969 
Q 1341 3281 1617 3432 
Q 1894 3584 2278 3584 
Q 2916 3584 3314 3078 
Q 3713 2572 3713 1747 
Q 3713 922 3314 415 
Q 2916 -91 2278 -91 
Q 1894 -91 1617 61 
Q 1341 213 1159 525 
z
M 3116 1747 
Q 3116 2381 2855 2742 
Q 2594 3103 2138 3103 
Q 1681 3103 1420 2742 
Q 1159 2381 1159 1747 
Q 1159 1113 1420 752 
Q 1681 391 2138 391 
Q 2594 391 2855 752 
Q 3116 1113 3116 1747 
z
" transform="scale(0.015625)"/>
       <path id="DejaVuSans-6c" d="M 603 4863 
L 1178 4863 
L 1178 0 
L 603 0 
L 603 4863 
z
" transform="scale(0.015625)"/>
       <path id="DejaVuSans-6f" d="M 1959 3097 
Q 1497 3097 1228 2736 
Q 959 2375 959 1747 
Q 959 1119 1226 758 
Q 1494 397 1959 397 
Q 2419 397 2687 759 
Q 2956 1122 2956 1747 
Q 2956 2369 2687 2733 
Q 2419 3097 1959 3097 
z
M 1959 3584 
Q 2709 3584 3137 3096 
Q 3566 2609 3566 1747 
Q 3566 888 3137 398 
Q 2709 -91 1959 -91 
Q 1206 -91 779 398 
Q 353 888 353 1747 
Q 353 2609 779 3096 
Q 1206 3584 1959 3584 
z
" transform="scale(0.015625)"/>
       <path id="DejaVuSans-64" d="M 2906 2969 
L 2906 4863 
L 3481 4863 
L 3481 0 
L 2906 0 
L 2906 525 
Q 2725 213 2448 61 
Q 2172 -91 1784 -91 
Q 1150 -91 751 415 
Q 353 922 353 1747 
Q 353 2572 751 3078 
Q 1150 3584 1784 3584 
Q 2172 3584 2448 3432 
Q 2725 3281 2906 2969 
z
M 947 1747 
Q 947 1113 1208 752 
Q 1469 391 1925 391 
Q 2381 391 2643 752 
Q 2906 1113 2906 1747 
Q 2906 2381 2643 2742 
Q 2381 3103 1925 3103 
Q 1469 3103 1208 2742 
Q 947 2381 947 1747 
z
" transform="scale(0.015625)"/>
       <path id="DejaVuSans-20" transform="scale(0.015625)"/>
       <path id="DejaVuSans-4e" d="M 628 4666 
L 1478 4666 
L 3547 763 
L 3547 4666 
L 4159 4666 
L 4159 0 
L 3309 0 
L 1241 3903 
L 1241 0 
L 628 0 
L 628 4666 
z
" transform="scale(0.015625)"/>
       <path id="DejaVuSans-Oblique-65" d="M 3078 2063 
Q 3088 2113 3092 2166 
Q 3097 2219 3097 2272 
Q 3097 2653 2873 2875 
Q 2650 3097 2266 3097 
Q 1838 3097 1509 2826 
Q 1181 2556 1013 2059 
L 3078 2063 
z
M 3578 1613 
L 903 1613 
Q 884 1494 878 1425 
Q 872 1356 872 1306 
Q 872 872 1139 634 
Q 1406 397 1894 397 
Q 2269 397 2603 481 
Q 2938 566 3225 728 
L 3116 159 
Q 2806 34 2476 -28 
Q 2147 -91 1806 -91 
Q 1078 -91 686 257 
Q 294 606 294 1247 
Q 294 1794 489 2264 
Q 684 2734 1063 3103 
Q 1306 3334 1642 3459 
Q 1978 3584 2356 3584 
Q 2950 3584 3301 3228 
Q 3653 2872 3653 2272 
Q 3653 2128 3634 1964 
Q 3616 1800 3578 1613 
z
" transform="scale(0.015625)"/>
      </defs>
      <use xlink:href="#DejaVuSans-44" transform="translate(0 0.015625)"/>
      <use xlink:href="#DejaVuSans-69" transform="translate(77.001953 0.015625)"/>
      <use xlink:href="#DejaVuSans-70" transform="translate(104.785156 0.015625)"/>
      <use xlink:href="#DejaVuSans-6c" transform="translate(168.261719 0.015625)"/>
      <use xlink:href="#DejaVuSans-6f" transform="translate(196.044922 0.015625)"/>
      <use xlink:href="#DejaVuSans-69" transform="translate(257.226562 0.015625)"/>
      <use xlink:href="#DejaVuSans-64" transform="translate(285.009766 0.015625)"/>
      <use xlink:href="#DejaVuSans-20" transform="translate(348.486328 0.015625)"/>
      <use xlink:href="#DejaVuSans-4e" transform="translate(380.273438 0.015625)"/>
      <use xlink:href="#DejaVuSans-Oblique-65" transform="translate(456.035156 -16.390625) scale(0.7)"/>
      <use xlink:href="#DejaVuSans-30" transform="translate(501.835938 0.015625)"/>
     </g>
    </g>
    <g id="text_6">
     <!-- $\times\mathdefault{10^{3}}\mathdefault{}$ -->
     <g transform="translate(188.56 225.887812) scale(0.1 -0.1)">
      <defs>
       <path id="DejaVuSans-d7" d="M 4488 3438 
L 3059 2003 
L 4488 575 
L 4116 197 
L 2681 1631 
L 1247 197 
L 878 575 
L 2303 2003 
L 878 3438 
L 1247 3816 
L 2681 2381 
L 4116 3816 
L 4488 3438 
z
" transform="scale(0.015625)"/>
       <path id="DejaVuSans-31" d="M 794 531 
L 1825 531 
L 1825 4091 
L 703 3866 
L 703 4441 
L 1819 4666 
L 2450 4666 
L 2450 531 
L 3481 531 
L 3481 0 
L 794 0 
L 794 531 
z
" transform="scale(0.015625)"/>
       <path id="DejaVuSans-33" d="M 2597 2516 
Q 3050 2419 3304 2112 
Q 3559 1806 3559 1356 
Q 3559 666 3084 287 
Q 2609 -91 1734 -91 
Q 1441 -91 1130 -33 
Q 819 25 488 141 
L 488 750 
Q 750 597 1062 519 
Q 1375 441 1716 441 
Q 2309 441 2620 675 
Q 2931 909 2931 1356 
Q 2931 1769 2642 2001 
Q 2353 2234 1838 2234 
L 1294 2234 
L 1294 2753 
L 1863 2753 
Q 2328 2753 2575 2939 
Q 2822 3125 2822 3475 
Q 2822 3834 2567 4026 
Q 2313 4219 1838 4219 
Q 1578 4219 1281 4162 
Q 984 4106 628 3988 
L 628 4550 
Q 988 4650 1302 4700 
Q 1616 4750 1894 4750 
Q 2613 4750 3031 4423 
Q 3450 4097 3450 3541 
Q 3450 3153 3228 2886 
Q 3006 2619 2597 2516 
z
" transform="scale(0.015625)"/>
      </defs>
      <use xlink:href="#DejaVuSans-d7" transform="translate(0 0.765625)"/>
      <use xlink:href="#DejaVuSans-31" transform="translate(83.789062 0.765625)"/>
      <use xlink:href="#DejaVuSans-30" transform="translate(147.412109 0.765625)"/>
      <use xlink:href="#DejaVuSans-33" transform="translate(211.992188 39.046875) scale(0.7)"/>
     </g>
    </g>
   </g>
   <g id="matplotlib.axis_2">
    <g id="ytick_1">
     <g id="line2d_5">
      <defs>
       <path id="mb2b2dcd344" d="M 0 0 
L -6 0 
" style="stroke: #000000; stroke-width: 2"/>
      </defs>
      <g>
       <use xlink:href="#mb2b2dcd344" x="36" y="164.52" style="stroke: #000000; stroke-width: 2"/>
      </g>
     </g>
     <g id="text_7">
      <!-- $\mathdefault{200}$ -->
      <g transform="translate(-0.24 169.838906) scale(0.14 -0.14)">
       <use xlink:href="#DejaVuSans-32" transform="translate(0 0.78125)"/>
       <use xlink:href="#DejaVuSans-30" transform="translate(63.623047 0.78125)"/>
       <use xlink:href="#DejaVuSans-30" transform="translate(127.246094 0.78125)"/>
      </g>
     </g>
    </g>
    <g id="ytick_2">
     <g id="line2d_6">
      <g>
       <use xlink:href="#mb2b2dcd344" x="36" y="127.56" style="stroke: #000000; stroke-width: 2"/>
      </g>
     </g>
     <g id="text_8">
      <!-- $\mathdefault{400}$ -->
      <g transform="translate(-0.24 132.878906) scale(0.14 -0.14)">
       <use xlink:href="#DejaVuSans-34" transform="translate(0 0.78125)"/>
       <use xlink:href="#DejaVuSans-30" transform="translate(63.623047 0.78125)"/>
       <use xlink:href="#DejaVuSans-30" transform="translate(127.246094 0.78125)"/>
      </g>
     </g>
    </g>
    <g id="ytick_3">
     <g id="line2d_7">
      <g>
       <use xlink:href="#mb2b2dcd344" x="36" y="90.6" style="stroke: #000000; stroke-width: 2"/>
      </g>
     </g>
     <g id="text_9">
      <!-- $\mathdefault{600}$ -->
      <g transform="translate(-0.24 95.918906) scale(0.14 -0.14)">
       <use xlink:href="#DejaVuSans-36" transform="translate(0 0.78125)"/>
       <use xlink:href="#DejaVuSans-30" transform="translate(63.623047 0.78125)"/>
       <use xlink:href="#DejaVuSans-30" transform="translate(127.246094 0.78125)"/>
      </g>
     </g>
    </g>
    <g id="ytick_4">
     <g id="line2d_8">
      <g>
       <use xlink:href="#mb2b2dcd344" x="36" y="53.64" style="stroke: #000000; stroke-width: 2"/>
      </g>
     </g>
     <g id="text_10">
      <!-- $\mathdefault{800}$ -->
      <g transform="translate(-0.24 58.958906) scale(0.14 -0.14)">
       <use xlink:href="#DejaVuSans-38" transform="translate(0 0.78125)"/>
       <use xlink:href="#DejaVuSans-30" transform="translate(63.623047 0.78125)"/>
       <use xlink:href="#DejaVuSans-30" transform="translate(127.246094 0.78125)"/>
      </g>
     </g>
    </g>
    <g id="text_11">
     <!-- Diploid N$_e$1 -->
     <g transform="translate(-8.02 160.02) rotate(-90) scale(0.18 -0.18)">
      <use xlink:href="#DejaVuSans-44" transform="translate(0 0.015625)"/>
      <use xlink:href="#DejaVuSans-69" transform="translate(77.001953 0.015625)"/>
      <use xlink:href="#DejaVuSans-70" transform="translate(104.785156 0.015625)"/>
      <use xlink:href="#DejaVuSans-6c" transform="translate(168.261719 0.015625)"/>
      <use xlink:href="#DejaVuSans-6f" transform="translate(196.044922 0.015625)"/>
      <use xlink:href="#DejaVuSans-69" transform="translate(257.226562 0.015625)"/>
      <use xlink:href="#DejaVuSans-64" transform="translate(285.009766 0.015625)"/>
      <use xlink:href="#DejaVuSans-20" transform="translate(348.486328 0.015625)"/>
      <use xlink:href="#DejaVuSans-4e" transform="translate(380.273438 0.015625)"/>
      <use xlink:href="#DejaVuSans-Oblique-65" transform="translate(456.035156 -16.390625) scale(0.7)"/>
      <use xlink:href="#DejaVuSans-31" transform="translate(501.835938 0.015625)"/>
     </g>
    </g>
    <g id="text_12">
     <!-- $\times\mathdefault{10^{3}}\mathdefault{}$ -->
     <g transform="translate(36 22.92) scale(0.1 -0.1)">
      <use xlink:href="#DejaVuSans-d7" transform="translate(0 0.765625)"/>
      <use xlink:href="#DejaVuSans-31" transform="translate(83.789062 0.765625)"/>
      <use xlink:href="#DejaVuSans-30" transform="translate(147.412109 0.765625)"/>
      <use xlink:href="#DejaVuSans-33" transform="translate(211.992188 39.046875) scale(0.7)"/>
     </g>
    </g>
   </g>
   <g id="patch_3">
    <path d="M 36 192.24 
L 36 25.92 
" style="fill: none; stroke: #000000; stroke-width: 0.8; stroke-linejoin: miter; stroke-linecap: square"/>
   </g>
   <g id="patch_4">
    <path d="M 214.56 192.24 
L 214.56 25.92 
" style="fill: none; stroke: #000000; stroke-width: 0.8; stroke-linejoin: miter; stroke-linecap: square"/>
   </g>
   <g id="patch_5">
    <path d="M 36 192.24 
L 214.56 192.24 
" style="fill: none; stroke: #000000; stroke-width: 0.8; stroke-linejoin: miter; stroke-linecap: square"/>
   </g>
   <g id="patch_6">
    <path d="M 36 25.92 
L 214.56 25.92 
" style="fill: none; stroke: #000000; stroke-width: 0.8; stroke-linejoin: miter; stroke-linecap: square"/>
   </g>
   <g id="text_13">
    <!-- Ne0Ne1-MSSMC-GT-P2-S4 -->
    <g transform="translate(21.75375 10.92) scale(0.16 -0.16)">
     <defs>
      <path id="DejaVuSans-65" d="M 3597 1894 
L 3597 1613 
L 953 1613 
Q 991 1019 1311 708 
Q 1631 397 2203 397 
Q 2534 397 2845 478 
Q 3156 559 3463 722 
L 3463 178 
Q 3153 47 2828 -22 
Q 2503 -91 2169 -91 
Q 1331 -91 842 396 
Q 353 884 353 1716 
Q 353 2575 817 3079 
Q 1281 3584 2069 3584 
Q 2775 3584 3186 3129 
Q 3597 2675 3597 1894 
z
M 3022 2063 
Q 3016 2534 2758 2815 
Q 2500 3097 2075 3097 
Q 1594 3097 1305 2825 
Q 1016 2553 972 2059 
L 3022 2063 
z
" transform="scale(0.015625)"/>
      <path id="DejaVuSans-2d" d="M 313 2009 
L 1997 2009 
L 1997 1497 
L 313 1497 
L 313 2009 
z
" transform="scale(0.015625)"/>
      <path id="DejaVuSans-4d" d="M 628 4666 
L 1569 4666 
L 2759 1491 
L 3956 4666 
L 4897 4666 
L 4897 0 
L 4281 0 
L 4281 4097 
L 3078 897 
L 2444 897 
L 1241 4097 
L 1241 0 
L 628 0 
L 628 4666 
z
" transform="scale(0.015625)"/>
      <path id="DejaVuSans-53" d="M 3425 4513 
L 3425 3897 
Q 3066 4069 2747 4153 
Q 2428 4238 2131 4238 
Q 1616 4238 1336 4038 
Q 1056 3838 1056 3469 
Q 1056 3159 1242 3001 
Q 1428 2844 1947 2747 
L 2328 2669 
Q 3034 2534 3370 2195 
Q 3706 1856 3706 1288 
Q 3706 609 3251 259 
Q 2797 -91 1919 -91 
Q 1588 -91 1214 -16 
Q 841 59 441 206 
L 441 856 
Q 825 641 1194 531 
Q 1563 422 1919 422 
Q 2459 422 2753 634 
Q 3047 847 3047 1241 
Q 3047 1584 2836 1778 
Q 2625 1972 2144 2069 
L 1759 2144 
Q 1053 2284 737 2584 
Q 422 2884 422 3419 
Q 422 4038 858 4394 
Q 1294 4750 2059 4750 
Q 2388 4750 2728 4690 
Q 3069 4631 3425 4513 
z
" transform="scale(0.015625)"/>
      <path id="DejaVuSans-43" d="M 4122 4306 
L 4122 3641 
Q 3803 3938 3442 4084 
Q 3081 4231 2675 4231 
Q 1875 4231 1450 3742 
Q 1025 3253 1025 2328 
Q 1025 1406 1450 917 
Q 1875 428 2675 428 
Q 3081 428 3442 575 
Q 3803 722 4122 1019 
L 4122 359 
Q 3791 134 3420 21 
Q 3050 -91 2638 -91 
Q 1578 -91 968 557 
Q 359 1206 359 2328 
Q 359 3453 968 4101 
Q 1578 4750 2638 4750 
Q 3056 4750 3426 4639 
Q 3797 4528 4122 4306 
z
" transform="scale(0.015625)"/>
      <path id="DejaVuSans-47" d="M 3809 666 
L 3809 1919 
L 2778 1919 
L 2778 2438 
L 4434 2438 
L 4434 434 
Q 4069 175 3628 42 
Q 3188 -91 2688 -91 
Q 1594 -91 976 548 
Q 359 1188 359 2328 
Q 359 3472 976 4111 
Q 1594 4750 2688 4750 
Q 3144 4750 3555 4637 
Q 3966 4525 4313 4306 
L 4313 3634 
Q 3963 3931 3569 4081 
Q 3175 4231 2741 4231 
Q 1884 4231 1454 3753 
Q 1025 3275 1025 2328 
Q 1025 1384 1454 906 
Q 1884 428 2741 428 
Q 3075 428 3337 486 
Q 3600 544 3809 666 
z
" transform="scale(0.015625)"/>
      <path id="DejaVuSans-54" d="M -19 4666 
L 3928 4666 
L 3928 4134 
L 2272 4134 
L 2272 0 
L 1638 0 
L 1638 4134 
L -19 4134 
L -19 4666 
z
" transform="scale(0.015625)"/>
      <path id="DejaVuSans-50" d="M 1259 4147 
L 1259 2394 
L 2053 2394 
Q 2494 2394 2734 2622 
Q 2975 2850 2975 3272 
Q 2975 3691 2734 3919 
Q 2494 4147 2053 4147 
L 1259 4147 
z
M 628 4666 
L 2053 4666 
Q 2838 4666 3239 4311 
Q 3641 3956 3641 3272 
Q 3641 2581 3239 2228 
Q 2838 1875 2053 1875 
L 1259 1875 
L 1259 0 
L 628 0 
L 628 4666 
z
" transform="scale(0.015625)"/>
     </defs>
     <use xlink:href="#DejaVuSans-4e"/>
     <use xlink:href="#DejaVuSans-65" x="74.804688"/>
     <use xlink:href="#DejaVuSans-30" x="136.328125"/>
     <use xlink:href="#DejaVuSans-4e" x="199.951172"/>
     <use xlink:href="#DejaVuSans-65" x="274.755859"/>
     <use xlink:href="#DejaVuSans-31" x="336.279297"/>
     <use xlink:href="#DejaVuSans-2d" x="399.902344"/>
     <use xlink:href="#DejaVuSans-4d" x="435.986328"/>
     <use xlink:href="#DejaVuSans-53" x="522.265625"/>
     <use xlink:href="#DejaVuSans-53" x="585.742188"/>
     <use xlink:href="#DejaVuSans-4d" x="649.21875"/>
     <use xlink:href="#DejaVuSans-43" x="735.498047"/>
     <use xlink:href="#DejaVuSans-2d" x="805.322266"/>
     <use xlink:href="#DejaVuSans-47" x="845.03125"/>
     <use xlink:href="#DejaVuSans-54" x="918.896484"/>
     <use xlink:href="#DejaVuSans-2d" x="970.855469"/>
     <use xlink:href="#DejaVuSans-50" x="1006.939453"/>
     <use xlink:href="#DejaVuSans-32" x="1067.242188"/>
     <use xlink:href="#DejaVuSans-2d" x="1130.865234"/>
     <use xlink:href="#DejaVuSans-53" x="1166.949219"/>
     <use xlink:href="#DejaVuSans-34" x="1230.425781"/>
    </g>
   </g>
  </g>
  <g id="axes_2">
   <g id="patch_7">
    <path d="M 225.72 192.24 
L 234.036 192.24 
L 234.036 25.92 
L 225.72 25.92 
z
" style="fill: #ffffff"/>
   </g>
   <g id="QuadMesh_1">
    <path d="M 225.72 192.24 
L 234.036 192.24 
L 234.036 181.845 
L 225.72 181.845 
L 225.72 192.24 
" clip-path="url(#pae7bd7e7ad)" style="fill: #eae51a"/>
    <path d="M 225.72 181.845 
L 234.036 181.845 
L 234.036 171.45 
L 225.72 171.45 
L 225.72 181.845 
" clip-path="url(#pae7bd7e7ad)" style="fill: #c0df25"/>
    <path d="M 225.72 171.45 
L 234.036 171.45 
L 234.036 161.055 
L 225.72 161.055 
L 225.72 171.45 
" clip-path="url(#pae7bd7e7ad)" style="fill: #95d840"/>
    <path d="M 225.72 161.055 
L 234.036 161.055 
L 234.036 150.66 
L 225.72 150.66 
L 225.72 161.055 
" clip-path="url(#pae7bd7e7ad)" style="fill: #6ece58"/>
    <path d="M 225.72 150.66 
L 234.036 150.66 
L 234.036 140.265 
L 225.72 140.265 
L 225.72 150.66 
" clip-path="url(#pae7bd7e7ad)" style="fill: #4cc26c"/>
    <path d="M 225.72 140.265 
L 234.036 140.265 
L 234.036 129.87 
L 225.72 129.87 
L 225.72 140.265 
" clip-path="url(#pae7bd7e7ad)" style="fill: #31b57b"/>
    <path d="M 225.72 129.87 
L 234.036 129.87 
L 234.036 119.475 
L 225.72 119.475 
L 225.72 129.87 
" clip-path="url(#pae7bd7e7ad)" style="fill: #21a685"/>
    <path d="M 225.72 119.475 
L 234.036 119.475 
L 234.036 109.08 
L 225.72 109.08 
L 225.72 119.475 
" clip-path="url(#pae7bd7e7ad)" style="fill: #1f978b"/>
    <path d="M 225.72 109.08 
L 234.036 109.08 
L 234.036 98.685 
L 225.72 98.685 
L 225.72 109.08 
" clip-path="url(#pae7bd7e7ad)" style="fill: #23898e"/>
    <path d="M 225.72 98.685 
L 234.036 98.685 
L 234.036 88.29 
L 225.72 88.29 
L 225.72 98.685 
" clip-path="url(#pae7bd7e7ad)" style="fill: #29798e"/>
    <path d="M 225.72 88.29 
L 234.036 88.29 
L 234.036 77.895 
L 225.72 77.895 
L 225.72 88.29 
" clip-path="url(#pae7bd7e7ad)" style="fill: #306a8e"/>
    <path d="M 225.72 77.895 
L 234.036 77.895 
L 234.036 67.5 
L 225.72 67.5 
L 225.72 77.895 
" clip-path="url(#pae7bd7e7ad)" style="fill: #375b8d"/>
    <path d="M 225.72 67.5 
L 234.036 67.5 
L 234.036 57.105 
L 225.72 57.105 
L 225.72 67.5 
" clip-path="url(#pae7bd7e7ad)" style="fill: #3f4889"/>
    <path d="M 225.72 57.105 
L 234.036 57.105 
L 234.036 46.71 
L 225.72 46.71 
L 225.72 57.105 
" clip-path="url(#pae7bd7e7ad)" style="fill: #453581"/>
    <path d="M 225.72 46.71 
L 234.036 46.71 
L 234.036 36.315 
L 225.72 36.315 
L 225.72 46.71 
" clip-path="url(#pae7bd7e7ad)" style="fill: #482173"/>
    <path d="M 225.72 36.315 
L 234.036 36.315 
L 234.036 25.92 
L 225.72 25.92 
L 225.72 36.315 
" clip-path="url(#pae7bd7e7ad)" style="fill: #460b5e"/>
   </g>
   <g id="matplotlib.axis_3"/>
   <g id="matplotlib.axis_4">
    <g id="ytick_5">
     <g id="line2d_9">
      <defs>
       <path id="m2578898fb8" d="M 0 0 
L 3.5 0 
" style="stroke: #000000; stroke-width: 0.8"/>
      </defs>
      <g>
       <use xlink:href="#m2578898fb8" x="234.036" y="192.24" style="stroke: #000000; stroke-width: 0.8"/>
      </g>
     </g>
     <g id="text_14">
      <!-- $\mathdefault{0.0}$ -->
      <g transform="translate(241.036 196.039219) scale(0.1 -0.1)">
       <defs>
        <path id="DejaVuSans-2e" d="M 684 794 
L 1344 794 
L 1344 0 
L 684 0 
L 684 794 
z
" transform="scale(0.015625)"/>
       </defs>
       <use xlink:href="#DejaVuSans-30" transform="translate(0 0.78125)"/>
       <use xlink:href="#DejaVuSans-2e" transform="translate(63.623047 0.78125)"/>
       <use xlink:href="#DejaVuSans-30" transform="translate(95.410156 0.78125)"/>
      </g>
     </g>
    </g>
    <g id="ytick_6">
     <g id="line2d_10">
      <g>
       <use xlink:href="#m2578898fb8" x="234.036" y="171.45" style="stroke: #000000; stroke-width: 0.8"/>
      </g>
     </g>
     <g id="text_15">
      <!-- $\mathdefault{0.2}$ -->
      <g transform="translate(241.036 175.249219) scale(0.1 -0.1)">
       <use xlink:href="#DejaVuSans-30" transform="translate(0 0.78125)"/>
       <use xlink:href="#DejaVuSans-2e" transform="translate(63.623047 0.78125)"/>
       <use xlink:href="#DejaVuSans-32" transform="translate(89.910156 0.78125)"/>
      </g>
     </g>
    </g>
    <g id="ytick_7">
     <g id="line2d_11">
      <g>
       <use xlink:href="#m2578898fb8" x="234.036" y="150.66" style="stroke: #000000; stroke-width: 0.8"/>
      </g>
     </g>
     <g id="text_16">
      <!-- $\mathdefault{0.4}$ -->
      <g transform="translate(241.036 154.459219) scale(0.1 -0.1)">
       <use xlink:href="#DejaVuSans-30" transform="translate(0 0.78125)"/>
       <use xlink:href="#DejaVuSans-2e" transform="translate(63.623047 0.78125)"/>
       <use xlink:href="#DejaVuSans-34" transform="translate(95.410156 0.78125)"/>
      </g>
     </g>
    </g>
    <g id="ytick_8">
     <g id="line2d_12">
      <g>
       <use xlink:href="#m2578898fb8" x="234.036" y="129.87" style="stroke: #000000; stroke-width: 0.8"/>
      </g>
     </g>
     <g id="text_17">
      <!-- $\mathdefault{0.6}$ -->
      <g transform="translate(241.036 133.669219) scale(0.1 -0.1)">
       <use xlink:href="#DejaVuSans-30" transform="translate(0 0.78125)"/>
       <use xlink:href="#DejaVuSans-2e" transform="translate(63.623047 0.78125)"/>
       <use xlink:href="#DejaVuSans-36" transform="translate(95.410156 0.78125)"/>
      </g>
     </g>
    </g>
    <g id="ytick_9">
     <g id="line2d_13">
      <g>
       <use xlink:href="#m2578898fb8" x="234.036" y="109.08" style="stroke: #000000; stroke-width: 0.8"/>
      </g>
     </g>
     <g id="text_18">
      <!-- $\mathdefault{0.8}$ -->
      <g transform="translate(241.036 112.879219) scale(0.1 -0.1)">
       <use xlink:href="#DejaVuSans-30" transform="translate(0 0.78125)"/>
       <use xlink:href="#DejaVuSans-2e" transform="translate(63.623047 0.78125)"/>
       <use xlink:href="#DejaVuSans-38" transform="translate(92.785156 0.78125)"/>
      </g>
     </g>
    </g>
    <g id="ytick_10">
     <g id="line2d_14">
      <g>
       <use xlink:href="#m2578898fb8" x="234.036" y="88.29" style="stroke: #000000; stroke-width: 0.8"/>
      </g>
     </g>
     <g id="text_19">
      <!-- $\mathdefault{1.0}$ -->
      <g transform="translate(241.036 92.089219) scale(0.1 -0.1)">
       <use xlink:href="#DejaVuSans-31" transform="translate(0 0.78125)"/>
       <use xlink:href="#DejaVuSans-2e" transform="translate(63.623047 0.78125)"/>
       <use xlink:href="#DejaVuSans-30" transform="translate(95.410156 0.78125)"/>
      </g>
     </g>
    </g>
    <g id="ytick_11">
     <g id="line2d_15">
      <g>
       <use xlink:href="#m2578898fb8" x="234.036" y="67.5" style="stroke: #000000; stroke-width: 0.8"/>
      </g>
     </g>
     <g id="text_20">
      <!-- $\mathdefault{1.2}$ -->
      <g transform="translate(241.036 71.299219) scale(0.1 -0.1)">
       <use xlink:href="#DejaVuSans-31" transform="translate(0 0.78125)"/>
       <use xlink:href="#DejaVuSans-2e" transform="translate(63.623047 0.78125)"/>
       <use xlink:href="#DejaVuSans-32" transform="translate(89.910156 0.78125)"/>
      </g>
     </g>
    </g>
    <g id="ytick_12">
     <g id="line2d_16">
      <g>
       <use xlink:href="#m2578898fb8" x="234.036" y="46.71" style="stroke: #000000; stroke-width: 0.8"/>
      </g>
     </g>
     <g id="text_21">
      <!-- $\mathdefault{1.4}$ -->
      <g transform="translate(241.036 50.509219) scale(0.1 -0.1)">
       <use xlink:href="#DejaVuSans-31" transform="translate(0 0.09375)"/>
       <use xlink:href="#DejaVuSans-2e" transform="translate(63.623047 0.09375)"/>
       <use xlink:href="#DejaVuSans-34" transform="translate(95.410156 0.09375)"/>
      </g>
     </g>
    </g>
    <g id="ytick_13">
     <g id="line2d_17">
      <g>
       <use xlink:href="#m2578898fb8" x="234.036" y="25.92" style="stroke: #000000; stroke-width: 0.8"/>
      </g>
     </g>
     <g id="text_22">
      <!-- $\mathdefault{1.6}$ -->
      <g transform="translate(241.036 29.719219) scale(0.1 -0.1)">
       <use xlink:href="#DejaVuSans-31" transform="translate(0 0.78125)"/>
       <use xlink:href="#DejaVuSans-2e" transform="translate(63.623047 0.78125)"/>
       <use xlink:href="#DejaVuSans-36" transform="translate(95.410156 0.78125)"/>
      </g>
     </g>
    </g>
    <g id="text_23">
     <!-- $\Delta$ log likelihood -->
     <g transform="translate(270.156 154.98) rotate(-90) scale(0.12 -0.12)">
      <defs>
       <path id="DejaVuSans-394" d="M 2188 4044 
L 906 525 
L 3472 525 
L 2188 4044 
z
M 50 0 
L 1831 4666 
L 2547 4666 
L 4325 0 
L 50 0 
z
" transform="scale(0.015625)"/>
       <path id="DejaVuSans-67" d="M 2906 1791 
Q 2906 2416 2648 2759 
Q 2391 3103 1925 3103 
Q 1463 3103 1205 2759 
Q 947 2416 947 1791 
Q 947 1169 1205 825 
Q 1463 481 1925 481 
Q 2391 481 2648 825 
Q 2906 1169 2906 1791 
z
M 3481 434 
Q 3481 -459 3084 -895 
Q 2688 -1331 1869 -1331 
Q 1566 -1331 1297 -1286 
Q 1028 -1241 775 -1147 
L 775 -588 
Q 1028 -725 1275 -790 
Q 1522 -856 1778 -856 
Q 2344 -856 2625 -561 
Q 2906 -266 2906 331 
L 2906 616 
Q 2728 306 2450 153 
Q 2172 0 1784 0 
Q 1141 0 747 490 
Q 353 981 353 1791 
Q 353 2603 747 3093 
Q 1141 3584 1784 3584 
Q 2172 3584 2450 3431 
Q 2728 3278 2906 2969 
L 2906 3500 
L 3481 3500 
L 3481 434 
z
" transform="scale(0.015625)"/>
       <path id="DejaVuSans-6b" d="M 581 4863 
L 1159 4863 
L 1159 1991 
L 2875 3500 
L 3609 3500 
L 1753 1863 
L 3688 0 
L 2938 0 
L 1159 1709 
L 1159 0 
L 581 0 
L 581 4863 
z
" transform="scale(0.015625)"/>
       <path id="DejaVuSans-68" d="M 3513 2113 
L 3513 0 
L 2938 0 
L 2938 2094 
Q 2938 2591 2744 2837 
Q 2550 3084 2163 3084 
Q 1697 3084 1428 2787 
Q 1159 2491 1159 1978 
L 1159 0 
L 581 0 
L 581 4863 
L 1159 4863 
L 1159 2956 
Q 1366 3272 1645 3428 
Q 1925 3584 2291 3584 
Q 2894 3584 3203 3211 
Q 3513 2838 3513 2113 
z
" transform="scale(0.015625)"/>
      </defs>
      <use xlink:href="#DejaVuSans-394" transform="translate(0 0.015625)"/>
      <use xlink:href="#DejaVuSans-20" transform="translate(68.408203 0.015625)"/>
      <use xlink:href="#DejaVuSans-6c" transform="translate(100.195312 0.015625)"/>
      <use xlink:href="#DejaVuSans-6f" transform="translate(127.978516 0.015625)"/>
      <use xlink:href="#DejaVuSans-67" transform="translate(189.160156 0.015625)"/>
      <use xlink:href="#DejaVuSans-20" transform="translate(252.636719 0.015625)"/>
      <use xlink:href="#DejaVuSans-6c" transform="translate(284.423828 0.015625)"/>
      <use xlink:href="#DejaVuSans-69" transform="translate(312.207031 0.015625)"/>
      <use xlink:href="#DejaVuSans-6b" transform="translate(339.990234 0.015625)"/>
      <use xlink:href="#DejaVuSans-65" transform="translate(397.900391 0.015625)"/>
      <use xlink:href="#DejaVuSans-6c" transform="translate(459.423828 0.015625)"/>
      <use xlink:href="#DejaVuSans-69" transform="translate(487.207031 0.015625)"/>
      <use xlink:href="#DejaVuSans-68" transform="translate(514.990234 0.015625)"/>
      <use xlink:href="#DejaVuSans-6f" transform="translate(578.369141 0.015625)"/>
      <use xlink:href="#DejaVuSans-6f" transform="translate(639.550781 0.015625)"/>
      <use xlink:href="#DejaVuSans-64" transform="translate(700.732422 0.015625)"/>
     </g>
    </g>
    <g id="text_24">
     <!-- $\times\mathdefault{10^{1}}\mathdefault{}$ -->
     <g transform="translate(202.236 22.92) scale(0.1 -0.1)">
      <defs>
       <path id="DejaVuSans-2212" d="M 678 2272 
L 4684 2272 
L 4684 1741 
L 678 1741 
L 678 2272 
z
" transform="scale(0.015625)"/>
      </defs>
      <use xlink:href="#DejaVuSans-d7" transform="translate(0 0.684375)"/>
      <use xlink:href="#DejaVuSans-31" transform="translate(83.789062 0.684375)"/>
      <use xlink:href="#DejaVuSans-30" transform="translate(147.412109 0.684375)"/>
      <use xlink:href="#DejaVuSans-2212" transform="translate(211.992188 38.965625) scale(0.7)"/>
      <use xlink:href="#DejaVuSans-31" transform="translate(270.644531 38.965625) scale(0.7)"/>
     </g>
    </g>
   </g>
   <g id="LineCollection_1"/>
   <g id="patch_8">
    <path d="M 225.72 192.24 
L 229.878 192.24 
L 234.036 192.24 
L 234.036 25.92 
L 229.878 25.92 
L 225.72 25.92 
L 225.72 192.24 
z
" style="fill: none; stroke: #000000; stroke-width: 0.8; stroke-linejoin: miter; stroke-linecap: square"/>
   </g>
  </g>
 </g>
 <defs>
  <clipPath id="p899b81a6ca">
   <rect x="36" y="25.92" width="178.56" height="166.32"/>
  </clipPath>
  <clipPath id="pae7bd7e7ad">
   <rect x="225.72" y="25.92" width="8.316" height="166.32"/>
  </clipPath>
 </defs>
</svg>
