<?xml version="1.0" encoding="utf-8" standalone="no"?>
<!DOCTYPE svg PUBLIC "-//W3C//DTD SVG 1.1//EN"
  "http://www.w3.org/Graphics/SVG/1.1/DTD/svg11.dtd">
<svg xmlns:xlink="http://www.w3.org/1999/xlink" width="288pt" height="216pt" viewBox="0 0 288 216" xmlns="http://www.w3.org/2000/svg" version="1.1">
 <metadata>
  <rdf:RDF xmlns:dc="http://purl.org/dc/elements/1.1/" xmlns:cc="http://creativecommons.org/ns#" xmlns:rdf="http://www.w3.org/1999/02/22-rdf-syntax-ns#">
   <cc:Work>
    <dc:type rdf:resource="http://purl.org/dc/dcmitype/StillImage"/>
    <dc:date>2023-07-18T17:10:24.542821</dc:date>
    <dc:format>image/svg+xml</dc:format>
    <dc:creator>
     <cc:Agent>
      <dc:title>Matplotlib v3.7.1, https://matplotlib.org/</dc:title>
     </cc:Agent>
    </dc:creator>
   </cc:Work>
  </rdf:RDF>
 </metadata>
 <defs>
  <style type="text/css">*{stroke-linejoin: round; stroke-linecap: butt}</style>
 </defs>
 <g id="figure_1">
  <g id="patch_1">
   <path d="M 0 216 
L 288 216 
L 288 0 
L 0 0 
z
" style="fill: #ffffff"/>
  </g>
  <g id="axes_1">
   <g id="patch_2">
    <path d="M 36 192.24 
L 214.56 192.24 
L 214.56 25.92 
L 36 25.92 
z
" style="fill: #ffffff"/>
   </g>
   <g id="PathCollection_1">
    <path d="M 206.276593 25.92 
L 208.608 25.92 
L 214.56 25.92 
L 214.56 31.021113 
L 208.608 27.416646 
z
" clip-path="url(#p76ed6eaa97)" style="fill: #440154"/>
   </g>
   <g id="PathCollection_2">
    <path d="M 195.481406 25.92 
L 196.704 25.92 
L 202.656 25.92 
L 206.276593 25.92 
L 208.608 27.416646 
L 214.56 31.021113 
L 214.56 31.464 
L 214.56 37.008 
L 214.56 38.051103 
L 212.755078 37.008 
L 208.608 34.564218 
L 203.653998 31.464 
L 202.656 30.826539 
L 196.704 26.798138 
z
" clip-path="url(#p76ed6eaa97)" style="fill: #440154"/>
   </g>
   <g id="PathCollection_3">
    <path d="M 185.505336 25.92 
L 190.752 25.92 
L 195.481406 25.92 
L 196.704 26.798138 
L 202.656 30.826539 
L 203.653998 31.464 
L 208.608 34.564218 
L 212.755078 37.008 
L 214.56 38.051103 
L 214.56 42.552 
L 214.56 45.003441 
L 210.208691 42.552 
L 208.608 41.633006 
L 202.656 38.013297 
L 201.097124 37.008 
L 196.704 34.116193 
L 192.916503 31.464 
L 190.752 29.915152 
z
" clip-path="url(#p76ed6eaa97)" style="fill: #440154"/>
   </g>
   <g id="PathCollection_4">
    <path d="M 176.278141 25.92 
L 178.848 25.92 
L 184.8 25.92 
L 185.505336 25.92 
L 190.752 29.915152 
L 192.916503 31.464 
L 196.704 34.116193 
L 201.097124 37.008 
L 202.656 38.013297 
L 208.608 41.633006 
L 210.208691 42.552 
L 214.56 45.003441 
L 214.56 48.096 
L 214.56 51.890885 
L 208.608 48.627591 
L 207.691228 48.096 
L 202.656 45.121062 
L 198.569827 42.552 
L 196.704 41.355271 
L 190.752 37.295542 
L 190.354754 37.008 
L 184.8 32.898515 
L 182.980385 31.464 
L 178.848 28.130079 
z
" clip-path="url(#p76ed6eaa97)" style="fill: #440154"/>
   </g>
   <g id="PathCollection_5">
    <path d="M 167.646833 25.92 
L 172.896 25.92 
L 176.278141 25.92 
L 178.848 28.130079 
L 182.980385 31.464 
L 184.8 32.898515 
L 190.354754 37.008 
L 190.752 37.295542 
L 196.704 41.355271 
L 198.569827 42.552 
L 202.656 45.121062 
L 207.691228 48.096 
L 208.608 48.627591 
L 214.56 51.890885 
L 214.56 53.64 
L 214.56 58.722629 
L 208.608 55.556486 
L 205.218484 53.64 
L 202.656 52.164792 
L 196.704 48.521411 
L 196.048547 48.096 
L 190.752 44.589145 
L 187.865582 42.552 
L 184.8 40.341892 
L 180.462849 37.008 
L 178.848 35.738316 
L 173.750785 31.464 
L 172.896 30.729837 
z
" clip-path="url(#p76ed6eaa97)" style="fill: #440154"/>
   </g>
   <g id="PathCollection_6">
    <path d="M 159.611469 25.92 
L 160.992 25.92 
L 166.944 25.92 
L 167.646833 25.92 
L 172.896 30.729837 
L 173.750785 31.464 
L 178.848 35.738316 
L 180.462849 37.008 
L 184.8 40.341892 
L 187.865582 42.552 
L 190.752 44.589145 
L 196.048547 48.096 
L 196.704 48.521411 
L 202.656 52.164792 
L 205.218484 53.64 
L 208.608 55.556486 
L 214.56 58.722629 
L 214.56 59.184 
L 214.56 64.728 
L 214.56 65.505335 
L 213.034307 64.728 
L 208.608 62.437061 
L 202.708927 59.184 
L 202.656 59.154307 
L 196.704 55.621361 
L 193.573666 53.64 
L 190.752 51.819381 
L 185.341859 48.096 
L 184.8 47.715307 
L 178.848 43.264739 
L 177.954124 42.552 
L 172.896 38.425383 
L 171.269259 37.008 
L 166.944 33.146154 
L 165.180337 31.464 
L 160.992 27.363976 
z
" clip-path="url(#p76ed6eaa97)" style="fill: #440154"/>
   </g>
   <g id="PathCollection_7">
    <path d="M 152.076813 25.92 
L 155.04 25.92 
L 159.611469 25.92 
L 160.992 27.363976 
L 165.180337 31.464 
L 166.944 33.146154 
L 171.269259 37.008 
L 172.896 38.425383 
L 177.954124 42.552 
L 178.848 43.264739 
L 184.8 47.715307 
L 185.341859 48.096 
L 190.752 51.819381 
L 193.573666 53.64 
L 196.704 55.621361 
L 202.656 59.154307 
L 202.708927 59.184 
L 208.608 62.437061 
L 213.034307 64.728 
L 214.56 65.505335 
L 214.56 70.272 
L 214.56 72.254061 
L 210.573538 70.272 
L 208.608 69.280313 
L 202.656 66.095126 
L 200.252772 64.728 
L 196.704 62.675002 
L 191.049719 59.184 
L 190.752 58.996777 
L 184.8 55.021711 
L 182.861957 53.64 
L 178.848 50.718469 
L 175.475639 48.096 
L 172.896 46.044775 
L 168.785446 42.552 
L 166.944 40.949469 
L 162.706488 37.008 
L 160.992 35.37204 
L 157.160769 31.464 
L 155.04 29.240967 
z
" clip-path="url(#p76ed6eaa97)" style="fill: #440154"/>
   </g>
   <g id="PathCollection_8">
    <path d="M 144.972828 25.92 
L 149.088 25.92 
L 152.076813 25.92 
L 155.04 29.240967 
L 157.160769 31.464 
L 160.992 35.37204 
L 162.706488 37.008 
L 166.944 40.949469 
L 168.785446 42.552 
L 172.896 46.044775 
L 175.475639 48.096 
L 178.848 50.718469 
L 182.861957 53.64 
L 184.8 55.021711 
L 190.752 58.996777 
L 191.049719 59.184 
L 196.704 62.675002 
L 200.252772 64.728 
L 202.656 66.095126 
L 208.608 69.280313 
L 210.573538 70.272 
L 214.56 72.254061 
L 214.56 75.816 
L 214.56 78.983902 
L 208.608 76.098089 
L 208.057742 75.816 
L 202.656 73.00794 
L 197.728398 70.272 
L 196.704 69.694211 
L 190.752 66.128322 
L 188.560362 64.728 
L 184.8 62.281392 
L 180.346759 59.184 
L 178.848 58.120646 
L 172.941007 53.64 
L 172.896 53.605117 
L 166.944 48.682776 
L 166.280855 48.096 
L 160.992 43.300692 
L 160.220391 42.552 
L 155.04 37.391727 
L 154.680059 37.008 
L 149.614559 31.464 
L 149.088 30.871717 
z
" clip-path="url(#p76ed6eaa97)" style="fill: #440154"/>
   </g>
   <g id="PathCollection_9">
    <path d="M 142.534563 31.464 
L 138.262904 25.92 
L 143.136 25.92 
L 144.972828 25.92 
L 149.088 30.871717 
L 149.614559 31.464 
L 154.680059 37.008 
L 155.04 37.391727 
L 160.220391 42.552 
L 160.992 43.300692 
L 166.280855 48.096 
L 166.944 48.682776 
L 172.896 53.605117 
L 172.941007 53.64 
L 178.848 58.120646 
L 180.346759 59.184 
L 184.8 62.281392 
L 188.560362 64.728 
L 190.752 66.128322 
L 196.704 69.694211 
L 197.728398 70.272 
L 202.656 73.00794 
L 208.057742 75.816 
L 208.608 76.098089 
L 214.56 78.983902 
L 214.56 81.36 
L 214.56 85.709099 
L 208.608 82.905804 
L 205.521646 81.36 
L 202.656 79.906622 
L 196.704 76.691661 
L 195.179134 75.816 
L 190.752 73.234935 
L 186.00162 70.272 
L 184.8 69.509621 
L 178.848 65.481803 
L 177.804385 64.728 
L 172.896 61.111734 
L 170.452285 59.184 
L 166.944 56.355637 
L 163.798138 53.64 
L 160.992 51.159574 
L 157.7553 48.096 
L 155.04 45.459149 
L 152.244338 42.552 
L 149.088 39.177615 
L 147.192712 37.008 
L 143.136 32.22344 
z
" clip-path="url(#p76ed6eaa97)" style="fill: #440154"/>
   </g>
   <g id="PathCollection_10">
    <path d="M 135.858481 31.464 
L 131.91059 25.92 
L 137.184 25.92 
L 138.262904 25.92 
L 142.534563 31.464 
L 143.136 32.22344 
L 147.192712 37.008 
L 149.088 39.177615 
L 152.244338 42.552 
L 155.04 45.459149 
L 157.7553 48.096 
L 160.992 51.159574 
L 163.798138 53.64 
L 166.944 56.355637 
L 170.452285 59.184 
L 172.896 61.111734 
L 177.804385 64.728 
L 178.848 65.481803 
L 184.8 69.509621 
L 186.00162 70.272 
L 190.752 73.234935 
L 195.179134 75.816 
L 196.704 76.691661 
L 202.656 79.906622 
L 205.521646 81.36 
L 208.608 82.905804 
L 214.56 85.709099 
L 214.56 86.904 
L 214.56 92.445966 
L 208.608 89.722496 
L 202.852392 86.904 
L 202.656 86.806769 
L 196.704 83.686488 
L 192.558129 81.36 
L 190.752 80.332459 
L 184.8 76.720873 
L 183.40206 75.816 
L 178.848 72.818759 
L 175.236824 70.272 
L 172.896 68.589909 
L 167.88041 64.728 
L 166.944 63.991815 
L 161.236635 59.184 
L 160.992 58.973153 
L 155.216992 53.64 
L 155.04 53.472419 
L 149.740252 48.096 
L 149.088 47.416131 
L 144.732148 42.552 
L 143.136 40.716517 
L 140.125166 37.008 
L 137.184 33.268515 
z
" clip-path="url(#p76ed6eaa97)" style="fill: #440154"/>
   </g>
   <g id="PathCollection_11">
    <path d="M 129.524533 31.464 
L 125.879641 25.92 
L 131.232 25.92 
L 131.91059 25.92 
L 135.858481 31.464 
L 137.184 33.268515 
L 140.125166 37.008 
L 143.136 40.716517 
L 144.732148 42.552 
L 149.088 47.416131 
L 149.740252 48.096 
L 155.04 53.472419 
L 155.216992 53.64 
L 160.992 58.973153 
L 161.236635 59.184 
L 166.944 63.991815 
L 167.88041 64.728 
L 172.896 68.589909 
L 175.236824 70.272 
L 178.848 72.818759 
L 183.40206 75.816 
L 184.8 76.720873 
L 190.752 80.332459 
L 192.558129 81.36 
L 196.704 83.686488 
L 202.656 86.806769 
L 202.852392 86.904 
L 208.608 89.722496 
L 214.56 92.445966 
L 214.56 92.448 
L 214.56 97.992 
L 214.56 99.221576 
L 211.793259 97.992 
L 208.608 96.567167 
L 202.656 93.732595 
L 200.122365 92.448 
L 196.704 90.697979 
L 190.752 87.439874 
L 189.831746 86.904 
L 184.8 83.936084 
L 180.72829 81.36 
L 178.848 80.152114 
L 172.896 76.055833 
L 172.569521 75.816 
L 166.944 71.6061 
L 165.282776 70.272 
L 160.992 66.753351 
L 158.690182 64.728 
L 155.04 61.440648 
L 152.704311 59.184 
L 149.088 55.59929 
L 147.245152 53.64 
L 143.136 49.146643 
L 142.239902 48.096 
L 137.644661 42.552 
L 137.184 41.980883 
L 133.439496 37.008 
L 131.232 33.975204 
z
" clip-path="url(#p76ed6eaa97)" style="fill: #440154"/>
   </g>
   <g id="PathCollection_12">
    <path d="M 123.49675 31.464 
L 120.13409 25.92 
L 125.28 25.92 
L 125.879641 25.92 
L 129.524533 31.464 
L 131.232 33.975204 
L 133.439496 37.008 
L 137.184 41.980883 
L 137.644661 42.552 
L 142.239902 48.096 
L 143.136 49.146643 
L 147.245152 53.64 
L 149.088 55.59929 
L 152.704311 59.184 
L 155.04 61.440648 
L 158.690182 64.728 
L 160.992 66.753351 
L 165.282776 70.272 
L 166.944 71.6061 
L 172.569521 75.816 
L 172.896 76.055833 
L 178.848 80.152114 
L 180.72829 81.36 
L 184.8 83.936084 
L 189.831746 86.904 
L 190.752 87.439874 
L 196.704 90.697979 
L 200.122365 92.448 
L 202.656 93.732595 
L 208.608 96.567167 
L 211.793259 97.992 
L 214.56 99.221576 
L 214.56 103.536 
L 214.56 106.05765 
L 208.776404 103.536 
L 208.608 103.462274 
L 202.656 100.706289 
L 197.19296 97.992 
L 196.704 97.747217 
L 190.752 94.58364 
L 187.006013 92.448 
L 184.8 91.1764 
L 178.848 87.503395 
L 177.938336 86.904 
L 172.896 83.532836 
L 169.870675 81.36 
L 166.944 79.221633 
L 162.604136 75.816 
L 160.992 74.525728 
L 156.042428 70.272 
L 155.04 69.391142 
L 150.096845 64.728 
L 149.088 63.752449 
L 144.686029 59.184 
L 143.136 57.530741 
L 139.735792 53.64 
L 137.184 50.63095 
L 135.179067 48.096 
L 131.232 42.938338 
L 130.956038 42.552 
L 127.097836 37.008 
L 125.28 34.302844 
z
" clip-path="url(#p76ed6eaa97)" style="fill: #440154"/>
   </g>
   <g id="PathCollection_13">
    <path d="M 117.739725 31.464 
L 114.638356 25.92 
L 119.328 25.92 
L 120.13409 25.92 
L 123.49675 31.464 
L 125.28 34.302844 
L 127.097836 37.008 
L 130.956038 42.552 
L 131.232 42.938338 
L 135.179067 48.096 
L 137.184 50.63095 
L 139.735792 53.64 
L 143.136 57.530741 
L 144.686029 59.184 
L 149.088 63.752449 
L 150.096845 64.728 
L 155.04 69.391142 
L 156.042428 70.272 
L 160.992 74.525728 
L 162.604136 75.816 
L 166.944 79.221633 
L 169.870675 81.36 
L 172.896 83.532836 
L 177.938336 86.904 
L 178.848 87.503395 
L 184.8 91.1764 
L 187.006013 92.448 
L 190.752 94.58364 
L 196.704 97.747217 
L 197.19296 97.992 
L 202.656 100.706289 
L 208.608 103.462274 
L 208.776404 103.536 
L 214.56 106.05765 
L 214.56 109.08 
L 214.56 112.983636 
L 208.608 110.452705 
L 205.577154 109.08 
L 202.656 107.75467 
L 196.704 104.873538 
L 194.11596 103.536 
L 190.752 101.787445 
L 184.8 98.469492 
L 183.996377 97.992 
L 178.848 94.903196 
L 175.043427 92.448 
L 172.896 91.044483 
L 167.004492 86.904 
L 166.944 86.86082 
L 160.992 82.314541 
L 159.829918 81.36 
L 155.04 77.347405 
L 153.339798 75.816 
L 149.088 71.898964 
L 147.4448 70.272 
L 143.136 65.895696 
L 142.065686 64.728 
L 137.184 59.248288 
L 137.130644 59.184 
L 132.63942 53.64 
L 131.232 51.846057 
L 128.48715 48.096 
L 125.28 43.555633 
L 124.617775 42.552 
L 121.062387 37.008 
L 119.328 34.205675 
z
" clip-path="url(#p76ed6eaa97)" style="fill: #440154"/>
   </g>
   <g id="PathCollection_14">
    <path d="M 112.218862 31.464 
L 109.357393 25.92 
L 113.376 25.92 
L 114.638356 25.92 
L 117.739725 31.464 
L 119.328 34.205675 
L 121.062387 37.008 
L 124.617775 42.552 
L 125.28 43.555633 
L 128.48715 48.096 
L 131.232 51.846057 
L 132.63942 53.64 
L 137.130644 59.184 
L 137.184 59.248288 
L 142.065686 64.728 
L 143.136 65.895696 
L 147.4448 70.272 
L 149.088 71.898964 
L 153.339798 75.816 
L 155.04 77.347405 
L 159.829918 81.36 
L 160.992 82.314541 
L 166.944 86.86082 
L 167.004492 86.904 
L 172.896 91.044483 
L 175.043427 92.448 
L 178.848 94.903196 
L 183.996377 97.992 
L 184.8 98.469492 
L 190.752 101.787445 
L 194.11596 103.536 
L 196.704 104.873538 
L 202.656 107.75467 
L 205.577154 109.08 
L 208.608 110.452705 
L 214.56 112.983636 
L 214.56 114.624 
L 214.56 120.036294 
L 208.608 117.567379 
L 202.656 114.916025 
L 202.037877 114.624 
L 196.704 112.106766 
L 190.752 109.081775 
L 190.748711 109.08 
L 184.8 105.858137 
L 180.82001 103.536 
L 178.848 102.377078 
L 172.896 98.623371 
L 171.960935 97.992 
L 166.944 94.56489 
L 164.066878 92.448 
L 160.992 90.151608 
L 156.952903 86.904 
L 155.04 85.337871 
L 150.52504 81.36 
L 149.088 80.066778 
L 144.696357 75.816 
L 143.136 74.268514 
L 139.387028 70.272 
L 137.184 67.858022 
L 134.524426 64.728 
L 131.232 60.731896 
L 130.043349 59.184 
L 125.914394 53.64 
L 125.28 52.763815 
L 122.124199 48.096 
L 119.328 43.79691 
L 118.570526 42.552 
L 115.295424 37.008 
L 113.376 33.632936 
z
" clip-path="url(#p76ed6eaa97)" style="fill: #440154"/>
   </g>
   <g id="PathCollection_15">
    <path d="M 106.900768 31.464 
L 104.256936 25.92 
L 107.424 25.92 
L 109.357393 25.92 
L 112.218862 31.464 
L 113.376 33.632936 
L 115.295424 37.008 
L 118.570526 42.552 
L 119.328 43.79691 
L 122.124199 48.096 
L 125.28 52.763815 
L 125.914394 53.64 
L 130.043349 59.184 
L 131.232 60.731896 
L 134.524426 64.728 
L 137.184 67.858022 
L 139.387028 70.272 
L 143.136 74.268514 
L 144.696357 75.816 
L 149.088 80.066778 
L 150.52504 81.36 
L 155.04 85.337871 
L 156.952903 86.904 
L 160.992 90.151608 
L 164.066878 92.448 
L 166.944 94.56489 
L 171.960935 97.992 
L 172.896 98.623371 
L 178.848 102.377078 
L 180.82001 103.536 
L 184.8 105.858137 
L 190.748711 109.08 
L 190.752 109.081775 
L 196.704 112.106766 
L 202.037877 114.624 
L 202.656 114.916025 
L 208.608 117.567379 
L 214.56 120.036294 
L 214.56 120.168 
L 214.56 125.712 
L 214.56 127.303762 
L 210.709481 125.712 
L 208.608 124.852556 
L 202.656 122.26249 
L 198.170316 120.168 
L 196.704 119.486783 
L 190.752 116.53958 
L 187.151936 114.624 
L 184.8 113.372289 
L 178.848 109.973655 
L 177.386978 109.08 
L 172.896 106.318559 
L 168.70122 103.536 
L 166.944 102.359642 
L 160.992 98.065122 
L 160.897425 97.992 
L 155.04 93.398627 
L 153.915624 92.448 
L 149.088 88.292915 
L 147.590196 86.904 
L 143.136 82.68408 
L 141.837766 81.36 
L 137.184 76.4931 
L 136.581991 75.816 
L 131.777738 70.272 
L 131.232 69.625291 
L 127.38232 64.728 
L 125.28 61.962254 
L 123.309781 59.184 
L 119.518411 53.64 
L 119.328 53.354355 
L 116.049934 48.096 
L 113.376 43.620925 
L 112.777054 42.552 
L 109.759284 37.008 
L 107.424 32.529801 
z
" clip-path="url(#p76ed6eaa97)" style="fill: #481b6d"/>
   </g>
   <g id="PathCollection_16">
    <path d="M 99.303883 25.92 
L 101.472 25.92 
L 104.256936 25.92 
L 106.900768 31.464 
L 107.424 32.529801 
L 109.759284 37.008 
L 112.777054 42.552 
L 113.376 43.620925 
L 116.049934 48.096 
L 119.328 53.354355 
L 119.518411 53.64 
L 123.309781 59.184 
L 125.28 61.962254 
L 127.38232 64.728 
L 131.232 69.625291 
L 131.777738 70.272 
L 136.581991 75.816 
L 137.184 76.4931 
L 141.837766 81.36 
L 143.136 82.68408 
L 147.590196 86.904 
L 149.088 88.292915 
L 153.915624 92.448 
L 155.04 93.398627 
L 160.897425 97.992 
L 160.992 98.065122 
L 166.944 102.359642 
L 168.70122 103.536 
L 172.896 106.318559 
L 177.386978 109.08 
L 178.848 109.973655 
L 184.8 113.372289 
L 187.151936 114.624 
L 190.752 116.53958 
L 196.704 119.486783 
L 198.170316 120.168 
L 202.656 122.26249 
L 208.608 124.852556 
L 210.709481 125.712 
L 214.56 127.303762 
L 214.56 131.256 
L 214.56 134.839534 
L 208.608 132.407824 
L 205.964319 131.256 
L 202.656 129.837712 
L 196.704 127.106122 
L 193.867399 125.712 
L 190.752 124.195004 
L 184.8 121.081479 
L 183.168898 120.168 
L 178.848 117.7555 
L 173.658454 114.624 
L 172.896 114.163058 
L 166.944 110.305431 
L 165.189463 109.08 
L 160.992 106.126369 
L 157.583491 103.536 
L 155.04 101.580239 
L 150.716077 97.992 
L 149.088 96.619482 
L 144.49952 92.448 
L 143.136 91.183778 
L 138.851796 86.904 
L 137.184 85.198213 
L 133.697208 81.36 
L 131.232 78.570631 
L 128.966959 75.816 
L 125.28 71.188004 
L 124.599862 70.272 
L 120.594053 64.728 
L 119.328 62.918278 
L 116.886554 59.184 
L 113.408159 53.64 
L 113.376 53.587478 
L 110.223523 48.096 
L 107.424 42.985259 
L 107.200598 42.552 
L 104.416345 37.008 
L 101.763058 31.464 
L 101.472 30.839032 
z
" clip-path="url(#p76ed6eaa97)" style="fill: #46337f"/>
   </g>
   <g id="PathCollection_17">
    <path d="M 94.466957 25.92 
L 95.52 25.92 
L 99.303883 25.92 
L 101.472 30.839032 
L 101.763058 31.464 
L 104.416345 37.008 
L 107.200598 42.552 
L 107.424 42.985259 
L 110.223523 48.096 
L 113.376 53.587478 
L 113.408159 53.64 
L 116.886554 59.184 
L 119.328 62.918278 
L 120.594053 64.728 
L 124.599862 70.272 
L 125.28 71.188004 
L 128.966959 75.816 
L 131.232 78.570631 
L 133.697208 81.36 
L 137.184 85.198213 
L 138.851796 86.904 
L 143.136 91.183778 
L 144.49952 92.448 
L 149.088 96.619482 
L 150.716077 97.992 
L 155.04 101.580239 
L 157.583491 103.536 
L 160.992 106.126369 
L 165.189463 109.08 
L 166.944 110.305431 
L 172.896 114.163058 
L 173.658454 114.624 
L 178.848 117.7555 
L 183.168898 120.168 
L 184.8 121.081479 
L 190.752 124.195004 
L 193.867399 125.712 
L 196.704 127.106122 
L 202.656 129.837712 
L 205.964319 131.256 
L 208.608 132.407824 
L 214.56 134.839534 
L 214.56 136.8 
L 214.56 142.344 
L 214.56 142.763359 
L 213.55462 142.344 
L 208.608 140.347995 
L 202.656 137.765757 
L 200.570932 136.8 
L 196.704 135.04978 
L 190.752 132.150958 
L 189.034661 131.256 
L 184.8 129.081154 
L 178.848 125.77218 
L 178.746563 125.712 
L 172.896 122.265429 
L 169.608143 120.168 
L 166.944 118.470443 
L 161.365368 114.624 
L 160.992 114.365515 
L 155.04 109.933912 
L 153.977903 109.08 
L 149.088 105.107307 
L 147.298153 103.536 
L 143.136 99.82618 
L 141.229561 97.992 
L 137.184 94.022096 
L 135.695987 92.448 
L 131.232 87.609469 
L 130.627285 86.904 
L 125.988747 81.36 
L 125.28 80.490178 
L 121.732255 75.816 
L 119.328 72.535444 
L 117.778976 70.272 
L 114.11261 64.728 
L 113.376 63.581285 
L 110.72891 59.184 
L 107.538736 53.64 
L 107.424 53.435568 
L 104.603194 48.096 
L 101.814982 42.552 
L 101.472 41.850962 
L 99.22893 37.008 
L 96.777646 31.464 
L 95.52 28.511375 
z
" clip-path="url(#p76ed6eaa97)" style="fill: #3e4989"/>
   </g>
   <g id="PathCollection_18">
    <path d="M 36 186.696 
L 36 181.152 
L 36 175.870237 
L 36.593452 181.152 
L 37.093134 186.696 
L 37.389181 192.24 
L 36 192.24 
z
" clip-path="url(#p76ed6eaa97)" style="fill: #355e8d"/>
    <path d="M 94.159068 37.008 
L 91.883749 31.464 
L 89.719411 25.92 
L 94.466957 25.92 
L 95.52 28.511375 
L 96.777646 31.464 
L 99.22893 37.008 
L 101.472 41.850962 
L 101.814982 42.552 
L 104.603194 48.096 
L 107.424 53.435568 
L 107.538736 53.64 
L 110.72891 59.184 
L 113.376 63.581285 
L 114.11261 64.728 
L 117.778976 70.272 
L 119.328 72.535444 
L 121.732255 75.816 
L 125.28 80.490178 
L 125.988747 81.36 
L 130.627285 86.904 
L 131.232 87.609469 
L 135.695987 92.448 
L 137.184 94.022096 
L 141.229561 97.992 
L 143.136 99.82618 
L 147.298153 103.536 
L 149.088 105.107307 
L 153.977903 109.08 
L 155.04 109.933912 
L 160.992 114.365515 
L 161.365368 114.624 
L 166.944 118.470443 
L 169.608143 120.168 
L 172.896 122.265429 
L 178.746563 125.712 
L 178.848 125.77218 
L 184.8 129.081154 
L 189.034661 131.256 
L 190.752 132.150958 
L 196.704 135.04978 
L 200.570932 136.8 
L 202.656 137.765757 
L 208.608 140.347995 
L 213.55462 142.344 
L 214.56 142.763359 
L 214.56 147.888 
L 214.56 151.379914 
L 208.608 148.860333 
L 206.456953 147.888 
L 202.656 146.246123 
L 196.704 143.480635 
L 194.421736 142.344 
L 190.752 140.574214 
L 184.8 137.474991 
L 183.589889 136.8 
L 178.848 134.211041 
L 173.860328 131.256 
L 172.896 130.692089 
L 166.944 126.950971 
L 165.119597 125.712 
L 160.992 122.922676 
L 157.231406 120.168 
L 155.04 118.560569 
L 150.084211 114.624 
L 149.088 113.827075 
L 143.602406 109.08 
L 143.136 108.67138 
L 137.710977 103.536 
L 137.184 103.028419 
L 132.3378 97.992 
L 131.232 96.816848 
L 127.415339 92.448 
L 125.28 89.93598 
L 122.882089 86.904 
L 119.328 82.261498 
L 118.684122 81.36 
L 114.826186 75.816 
L 113.376 73.659967 
L 111.241564 70.272 
L 107.888299 64.728 
L 107.424 63.939173 
L 104.789817 59.184 
L 101.862632 53.64 
L 101.472 52.879429 
L 99.145482 48.096 
L 96.575216 42.552 
L 95.52 40.193598 
z
" clip-path="url(#p76ed6eaa97)" style="fill: #355e8d"/>
   </g>
   <g id="PathCollection_19">
    <path d="M 37.093134 186.696 
L 36.593452 181.152 
L 36 175.870237 
L 36 175.608 
L 36 170.064 
L 36 164.52 
L 36 159.119596 
L 36.754642 164.52 
L 37.499368 170.064 
L 38.19735 175.608 
L 38.825479 181.152 
L 39.346212 186.696 
L 39.68284 192.24 
L 37.389181 192.24 
z
" clip-path="url(#p76ed6eaa97)" style="fill: #2d718e"/>
    <path d="M 89.167867 37.008 
L 87.038205 31.464 
L 85.018008 25.92 
L 89.568 25.92 
L 89.719411 25.92 
L 91.883749 31.464 
L 94.159068 37.008 
L 95.52 40.193598 
L 96.575216 42.552 
L 99.145482 48.096 
L 101.472 52.879429 
L 101.862632 53.64 
L 104.789817 59.184 
L 107.424 63.939173 
L 107.888299 64.728 
L 111.241564 70.272 
L 113.376 73.659967 
L 114.826186 75.816 
L 118.684122 81.36 
L 119.328 82.261498 
L 122.882089 86.904 
L 125.28 89.93598 
L 127.415339 92.448 
L 131.232 96.816848 
L 132.3378 97.992 
L 137.184 103.028419 
L 137.710977 103.536 
L 143.136 108.67138 
L 143.602406 109.08 
L 149.088 113.827075 
L 150.084211 114.624 
L 155.04 118.560569 
L 157.231406 120.168 
L 160.992 122.922676 
L 165.119597 125.712 
L 166.944 126.950971 
L 172.896 130.692089 
L 173.860328 131.256 
L 178.848 134.211041 
L 183.589889 136.8 
L 184.8 137.474991 
L 190.752 140.574214 
L 194.421736 142.344 
L 196.704 143.480635 
L 202.656 146.246123 
L 206.456953 147.888 
L 208.608 148.860333 
L 214.56 151.379914 
L 214.56 153.432 
L 214.56 158.976 
L 214.56 161.152826 
L 209.954941 158.976 
L 208.608 158.392737 
L 202.656 155.642229 
L 198.235102 153.432 
L 196.704 152.713061 
L 190.752 149.71929 
L 187.384901 147.888 
L 184.8 146.543433 
L 178.848 143.199843 
L 177.432202 142.344 
L 172.896 139.684187 
L 168.371783 136.8 
L 166.944 135.907599 
L 160.992 131.885409 
L 160.128926 131.256 
L 155.04 127.580608 
L 152.656734 125.712 
L 149.088 122.919445 
L 145.845125 120.168 
L 143.136 117.858179 
L 139.632718 114.624 
L 137.184 112.337942 
L 133.955779 109.08 
L 131.232 106.283461 
L 128.751705 103.536 
L 125.28 99.600451 
L 123.961675 97.992 
L 119.540322 92.448 
L 119.328 92.176218 
L 115.48724 86.904 
L 113.376 83.897169 
L 111.708368 81.36 
L 108.192873 75.816 
L 107.424 74.567855 
L 104.933737 70.272 
L 101.867044 64.728 
L 101.472 63.99434 
L 99.018285 59.184 
L 96.327854 53.64 
L 95.52 51.919816 
L 93.803723 48.096 
L 91.424147 42.552 
L 89.568 38.018222 
z
" clip-path="url(#p76ed6eaa97)" style="fill: #2d718e"/>
   </g>
   <g id="PathCollection_20">
    <path d="M 39.346212 186.696 
L 38.825479 181.152 
L 38.19735 175.608 
L 37.499368 170.064 
L 36.754642 164.52 
L 36 159.119596 
L 36 158.976 
L 36 153.432 
L 36 147.888 
L 36 142.45305 
L 36.738924 147.888 
L 37.498986 153.432 
L 38.257872 158.976 
L 39.006523 164.52 
L 39.733521 170.064 
L 40.424095 175.608 
L 41.057507 181.152 
L 41.59929 186.696 
L 41.952 191.885904 
L 41.981784 192.24 
L 41.952 192.24 
L 39.68284 192.24 
z
" clip-path="url(#p76ed6eaa97)" style="fill: #26828e"/>
    <path d="M 82.191426 31.464 
L 80.281045 25.92 
L 83.616 25.92 
L 85.018008 25.92 
L 87.038205 31.464 
L 89.167867 37.008 
L 89.568 38.018222 
L 91.424147 42.552 
L 93.803723 48.096 
L 95.52 51.919816 
L 96.327854 53.64 
L 99.018285 59.184 
L 101.472 63.99434 
L 101.867044 64.728 
L 104.933737 70.272 
L 107.424 74.567855 
L 108.192873 75.816 
L 111.708368 81.36 
L 113.376 83.897169 
L 115.48724 86.904 
L 119.328 92.176218 
L 119.540322 92.448 
L 123.961675 97.992 
L 125.28 99.600451 
L 128.751705 103.536 
L 131.232 106.283461 
L 133.955779 109.08 
L 137.184 112.337942 
L 139.632718 114.624 
L 143.136 117.858179 
L 145.845125 120.168 
L 149.088 122.919445 
L 152.656734 125.712 
L 155.04 127.580608 
L 160.128926 131.256 
L 160.992 131.885409 
L 166.944 135.907599 
L 168.371783 136.8 
L 172.896 139.684187 
L 177.432202 142.344 
L 178.848 143.199843 
L 184.8 146.543433 
L 187.384901 147.888 
L 190.752 149.71929 
L 196.704 152.713061 
L 198.235102 153.432 
L 202.656 155.642229 
L 208.608 158.392737 
L 209.954941 158.976 
L 214.56 161.152826 
L 214.56 164.52 
L 214.56 170.064 
L 214.56 173.958656 
L 208.608 170.261686 
L 208.310692 170.064 
L 202.656 166.966923 
L 198.547148 164.52 
L 196.704 163.554543 
L 190.752 160.195993 
L 188.749885 158.976 
L 184.8 156.774049 
L 179.296572 153.432 
L 178.848 153.176073 
L 172.896 149.527925 
L 170.435121 147.888 
L 166.944 145.659491 
L 162.174578 142.344 
L 160.992 141.545195 
L 155.04 137.184177 
L 154.55492 136.8 
L 149.088 132.538685 
L 147.573922 131.256 
L 143.136 127.519717 
L 141.157384 125.712 
L 137.184 122.073828 
L 135.262473 120.168 
L 131.232 116.13081 
L 129.840176 114.624 
L 125.28 109.601784 
L 124.840441 109.08 
L 120.244939 103.536 
L 119.328 102.403869 
L 115.999444 97.992 
L 113.376 94.395859 
L 112.046646 92.448 
L 108.378621 86.904 
L 107.424 85.41847 
L 104.970059 81.36 
L 101.769543 75.816 
L 101.472 75.287756 
L 98.794425 70.272 
L 95.987217 64.728 
L 95.52 63.778823 
L 93.356021 59.184 
L 90.874235 53.64 
L 89.568 50.60036 
L 88.524784 48.096 
L 86.304595 42.552 
L 84.203652 37.008 
L 83.616 35.404942 
z
" clip-path="url(#p76ed6eaa97)" style="fill: #26828e"/>
   </g>
   <g id="PathCollection_21">
    <path d="M 41.59929 186.696 
L 41.057507 181.152 
L 40.424095 175.608 
L 39.733521 170.064 
L 39.006523 164.52 
L 38.257872 158.976 
L 37.498986 153.432 
L 36.738924 147.888 
L 36 142.45305 
L 36 142.344 
L 36 136.8 
L 36 131.256 
L 36 125.712 
L 36 122.338709 
L 36.373534 125.712 
L 37.020014 131.256 
L 37.6906 136.8 
L 38.382148 142.344 
L 39.090588 147.888 
L 39.810729 153.432 
L 40.536044 158.976 
L 41.258404 164.52 
L 41.952 169.940533 
L 41.971351 170.064 
L 42.809496 175.608 
L 43.585161 181.152 
L 44.264797 186.696 
L 44.770361 192.24 
L 41.981784 192.24 
L 41.952 191.885904 
z
" clip-path="url(#p76ed6eaa97)" style="fill: #1f948c"/>
    <path d="M 77.277603 31.464 
L 75.429424 25.92 
L 77.664 25.92 
L 80.281045 25.92 
L 82.191426 31.464 
L 83.616 35.404942 
L 84.203652 37.008 
L 86.304595 42.552 
L 88.524784 48.096 
L 89.568 50.60036 
L 90.874235 53.64 
L 93.356021 59.184 
L 95.52 63.778823 
L 95.987217 64.728 
L 98.794425 70.272 
L 101.472 75.287756 
L 101.769543 75.816 
L 104.970059 81.36 
L 107.424 85.41847 
L 108.378621 86.904 
L 112.046646 92.448 
L 113.376 94.395859 
L 115.999444 97.992 
L 119.328 102.403869 
L 120.244939 103.536 
L 124.840441 109.08 
L 125.28 109.601784 
L 129.840176 114.624 
L 131.232 116.13081 
L 135.262473 120.168 
L 137.184 122.073828 
L 141.157384 125.712 
L 143.136 127.519717 
L 147.573922 131.256 
L 149.088 132.538685 
L 154.55492 136.8 
L 155.04 137.184177 
L 160.992 141.545195 
L 162.174578 142.344 
L 166.944 145.659491 
L 170.435121 147.888 
L 172.896 149.527925 
L 178.848 153.176073 
L 179.296572 153.432 
L 184.8 156.774049 
L 188.749885 158.976 
L 190.752 160.195993 
L 196.704 163.554543 
L 198.547148 164.52 
L 202.656 166.966923 
L 208.310692 170.064 
L 208.608 170.261686 
L 214.56 173.958656 
L 214.56 175.608 
L 214.56 181.152 
L 214.56 186.696 
L 214.56 192.24 
L 208.608 192.24 
L 202.656 192.24 
L 199.605738 192.24 
L 200.206717 186.696 
L 197.468047 181.152 
L 196.704 180.400763 
L 192.204297 175.608 
L 190.752 174.50561 
L 185.368862 170.064 
L 184.8 169.6807 
L 178.848 165.34385 
L 177.806677 164.52 
L 172.896 161.119303 
L 170.058105 158.976 
L 166.944 156.826066 
L 162.436839 153.432 
L 160.992 152.408732 
L 155.137436 147.888 
L 155.04 147.815805 
L 149.088 143.040487 
L 148.290403 142.344 
L 143.136 137.951686 
L 141.893222 136.8 
L 137.184 132.487499 
L 135.945012 131.256 
L 131.232 126.577195 
L 130.427098 125.712 
L 125.310686 120.168 
L 125.28 120.134541 
L 120.594677 114.624 
L 119.328 113.102454 
L 116.212148 109.08 
L 113.376 105.310739 
L 112.127531 103.536 
L 108.332188 97.992 
L 107.424 96.63039 
L 104.79939 92.448 
L 101.481558 86.904 
L 101.472 86.887721 
L 98.394148 81.36 
L 95.52 75.892081 
L 95.481657 75.816 
L 92.749258 70.272 
L 90.173357 64.728 
L 89.568 63.383912 
L 87.730191 59.184 
L 85.425573 53.64 
L 83.616 49.054174 
L 83.241209 48.096 
L 81.141517 42.552 
L 79.163897 37.008 
L 77.664 32.583088 
z
" clip-path="url(#p76ed6eaa97)" style="fill: #1f948c"/>
   </g>
   <g id="PathCollection_22">
    <path d="M 41.258404 164.52 
L 40.536044 158.976 
L 39.810729 153.432 
L 39.090588 147.888 
L 38.382148 142.344 
L 37.6906 136.8 
L 37.020014 131.256 
L 36.373534 125.712 
L 36 122.338709 
L 36 120.168 
L 36 114.624 
L 36 109.08 
L 36 103.536 
L 36 97.992 
L 36 92.448 
L 36 90.484131 
L 36.119565 92.448 
L 36.500682 97.992 
L 36.918223 103.536 
L 37.371575 109.08 
L 37.859968 114.624 
L 38.382403 120.168 
L 38.937569 125.712 
L 39.523741 131.256 
L 40.138662 136.8 
L 40.779411 142.344 
L 41.442251 147.888 
L 41.952 152.024704 
L 42.167603 153.432 
L 43.03285 158.976 
L 43.889726 164.52 
L 44.729642 170.064 
L 45.541773 175.608 
L 46.31052 181.152 
L 47.00685 186.696 
L 47.558938 192.24 
L 44.770361 192.24 
L 44.264797 186.696 
L 43.585161 181.152 
L 42.809496 175.608 
L 41.971351 170.064 
L 41.952 169.940533 
z
" clip-path="url(#p76ed6eaa97)" style="fill: #21a685"/>
    <path d="M 70.319611 25.92 
L 71.712 25.92 
L 75.429424 25.92 
L 77.277603 31.464 
L 77.664 32.583088 
L 79.163897 37.008 
L 81.141517 42.552 
L 83.241209 48.096 
L 83.616 49.054174 
L 85.425573 53.64 
L 87.730191 59.184 
L 89.568 63.383912 
L 90.173357 64.728 
L 92.749258 70.272 
L 95.481657 75.816 
L 95.52 75.892081 
L 98.394148 81.36 
L 101.472 86.887721 
L 101.481558 86.904 
L 104.79939 92.448 
L 107.424 96.63039 
L 108.332188 97.992 
L 112.127531 103.536 
L 113.376 105.310739 
L 116.212148 109.08 
L 119.328 113.102454 
L 120.594677 114.624 
L 125.28 120.134541 
L 125.310686 120.168 
L 130.427098 125.712 
L 131.232 126.577195 
L 135.945012 131.256 
L 137.184 132.487499 
L 141.893222 136.8 
L 143.136 137.951686 
L 148.290403 142.344 
L 149.088 143.040487 
L 155.04 147.815805 
L 155.137436 147.888 
L 160.992 152.408732 
L 162.436839 153.432 
L 166.944 156.826066 
L 170.058105 158.976 
L 172.896 161.119303 
L 177.806677 164.52 
L 178.848 165.34385 
L 184.8 169.6807 
L 185.368862 170.064 
L 190.752 174.50561 
L 192.204297 175.608 
L 196.704 180.400763 
L 197.468047 181.152 
L 200.206717 186.696 
L 199.605738 192.24 
L 196.704 192.24 
L 190.752 192.24 
L 184.8 192.24 
L 178.848 192.24 
L 174.124568 192.24 
L 175.40964 186.696 
L 173.943635 181.152 
L 172.896 179.643462 
L 170.31071 175.608 
L 166.944 172.029074 
L 165.244694 170.064 
L 160.992 166.114979 
L 159.416018 164.52 
L 155.04 160.66162 
L 153.287038 158.976 
L 149.088 155.286187 
L 147.152602 153.432 
L 143.136 149.804038 
L 141.188209 147.888 
L 137.184 144.091013 
L 135.48932 142.344 
L 131.232 138.04083 
L 130.099996 136.8 
L 125.28 131.547006 
L 125.032973 131.256 
L 120.306636 125.712 
L 119.328 124.55262 
L 115.887941 120.168 
L 113.376 116.894087 
L 111.748521 114.624 
L 107.878294 109.08 
L 107.424 108.418666 
L 104.268228 103.536 
L 101.472 99.012256 
L 100.873236 97.992 
L 97.696101 92.448 
L 95.52 88.463669 
L 94.701762 86.904 
L 91.88323 81.36 
L 89.568 76.544075 
L 89.226435 75.816 
L 86.697179 70.272 
L 84.322603 64.728 
L 83.616 63.020049 
L 82.035984 59.184 
L 79.870997 53.64 
L 77.837932 48.096 
L 77.664 47.608168 
L 75.816313 42.552 
L 73.916016 37.008 
L 72.133676 31.464 
L 71.712 30.105035 
z
" clip-path="url(#p76ed6eaa97)" style="fill: #21a685"/>
   </g>
   <g id="PathCollection_23">
    <path d="M 41.442251 147.888 
L 40.779411 142.344 
L 40.138662 136.8 
L 39.523741 131.256 
L 38.937569 125.712 
L 38.382403 120.168 
L 37.859968 114.624 
L 37.371575 109.08 
L 36.918223 103.536 
L 36.500682 97.992 
L 36.119565 92.448 
L 36 90.484131 
L 36 86.904 
L 36 81.36 
L 36 75.816 
L 36 70.272 
L 36 64.728 
L 36 59.184 
L 36 53.64 
L 36 48.096 
L 36 42.552 
L 36 37.008 
L 36 31.464 
L 36 25.92 
L 39.118434 25.92 
L 38.845894 31.464 
L 38.629179 37.008 
L 38.465905 42.552 
L 38.354011 48.096 
L 38.291718 53.64 
L 38.277495 59.184 
L 38.310026 64.728 
L 38.388184 70.272 
L 38.510997 75.816 
L 38.677623 81.36 
L 38.887316 86.904 
L 39.139398 92.448 
L 39.433215 97.992 
L 39.768103 103.536 
L 40.143333 109.08 
L 40.55806 114.624 
L 41.01125 120.168 
L 41.501605 125.712 
L 41.952 130.443999 
L 42.051626 131.256 
L 42.780071 136.8 
L 43.532143 142.344 
L 44.304073 147.888 
L 45.09136 153.432 
L 45.888702 158.976 
L 46.689936 164.52 
L 47.487932 170.064 
L 47.904 172.985174 
L 48.418958 175.608 
L 49.467439 181.152 
L 50.439117 186.696 
L 51.253736 192.24 
L 47.904 192.24 
L 47.558938 192.24 
L 47.00685 186.696 
L 46.31052 181.152 
L 45.541773 175.608 
L 44.729642 170.064 
L 43.889726 164.52 
L 43.03285 158.976 
L 42.167603 153.432 
L 41.952 152.024704 
z
" clip-path="url(#p76ed6eaa97)" style="fill: #35b779"/>
    <path d="M 64.574096 25.92 
L 65.76 25.92 
L 70.319611 25.92 
L 71.712 30.105035 
L 72.133676 31.464 
L 73.916016 37.008 
L 75.816313 42.552 
L 77.664 47.608168 
L 77.837932 48.096 
L 79.870997 53.64 
L 82.035984 59.184 
L 83.616 63.020049 
L 84.322603 64.728 
L 86.697179 70.272 
L 89.226435 75.816 
L 89.568 76.544075 
L 91.88323 81.36 
L 94.701762 86.904 
L 95.52 88.463669 
L 97.696101 92.448 
L 100.873236 97.992 
L 101.472 99.012256 
L 104.268228 103.536 
L 107.424 108.418666 
L 107.878294 109.08 
L 111.748521 114.624 
L 113.376 116.894087 
L 115.887941 120.168 
L 119.328 124.55262 
L 120.306636 125.712 
L 125.032973 131.256 
L 125.28 131.547006 
L 130.099996 136.8 
L 131.232 138.04083 
L 135.48932 142.344 
L 137.184 144.091013 
L 141.188209 147.888 
L 143.136 149.804038 
L 147.152602 153.432 
L 149.088 155.286187 
L 153.287038 158.976 
L 155.04 160.66162 
L 159.416018 164.52 
L 160.992 166.114979 
L 165.244694 170.064 
L 166.944 172.029074 
L 170.31071 175.608 
L 172.896 179.643462 
L 173.943635 181.152 
L 175.40964 186.696 
L 174.124568 192.24 
L 172.896 192.24 
L 166.944 192.24 
L 160.992 192.24 
L 155.04 192.24 
L 151.762004 192.24 
L 153.602318 186.696 
L 153.164176 181.152 
L 150.815858 175.608 
L 149.088 173.096859 
L 147.165642 170.064 
L 143.136 165.063273 
L 142.733256 164.52 
L 137.941153 158.976 
L 137.184 158.178958 
L 133.037562 153.432 
L 131.232 151.476899 
L 128.17787 147.888 
L 125.28 144.587541 
L 123.458942 142.344 
L 119.328 137.31628 
L 118.934094 136.8 
L 114.64778 131.256 
L 113.376 129.599867 
L 110.587036 125.712 
L 107.424 121.193939 
L 106.747811 120.168 
L 103.136249 114.624 
L 101.472 111.990025 
L 99.724005 109.08 
L 96.512944 103.536 
L 95.52 101.773551 
L 93.46867 97.992 
L 90.60499 92.448 
L 89.568 90.370566 
L 87.872889 86.904 
L 85.294192 81.36 
L 83.616 77.560892 
L 82.842105 75.816 
L 80.477435 70.272 
L 78.271808 64.728 
L 77.664 63.144167 
L 76.087754 59.184 
L 74.013884 53.64 
L 72.083232 48.096 
L 71.712 46.991909 
L 70.083025 42.552 
L 68.189906 37.008 
L 66.436292 31.464 
L 65.76 29.221937 
z
" clip-path="url(#p76ed6eaa97)" style="fill: #35b779"/>
   </g>
   <g id="PathCollection_24">
    <path d="M 41.501605 125.712 
L 41.01125 120.168 
L 40.55806 114.624 
L 40.143333 109.08 
L 39.768103 103.536 
L 39.433215 97.992 
L 39.139398 92.448 
L 38.887316 86.904 
L 38.677623 81.36 
L 38.510997 75.816 
L 38.388184 70.272 
L 38.310026 64.728 
L 38.277495 59.184 
L 38.291718 53.64 
L 38.354011 48.096 
L 38.465905 42.552 
L 38.629179 37.008 
L 38.845894 31.464 
L 39.118434 25.92 
L 41.952 25.92 
L 45.465113 25.92 
L 44.440708 31.464 
L 43.628714 37.008 
L 42.994132 42.552 
L 42.510091 48.096 
L 42.155667 53.64 
L 41.952 58.272459 
L 41.929588 59.184 
L 41.842552 64.728 
L 41.80722 70.272 
L 41.822292 75.816 
L 41.886634 81.36 
L 41.952 84.536433 
L 42.022634 86.904 
L 42.255973 92.448 
L 42.548149 97.992 
L 42.895574 103.536 
L 43.295064 109.08 
L 43.743706 114.624 
L 44.238724 120.168 
L 44.777362 125.712 
L 45.356762 131.256 
L 45.97385 136.8 
L 46.625228 142.344 
L 47.307081 147.888 
L 47.904 152.542138 
L 48.066114 153.432 
L 49.112982 158.976 
L 50.1567 164.52 
L 51.193978 170.064 
L 52.221162 175.608 
L 53.231915 181.152 
L 53.856 184.701406 
L 54.378038 186.696 
L 55.664227 192.24 
L 53.856 192.24 
L 51.253736 192.24 
L 50.439117 186.696 
L 49.467439 181.152 
L 48.418958 175.608 
L 47.904 172.985174 
L 47.487932 170.064 
L 46.689936 164.52 
L 45.888702 158.976 
L 45.09136 153.432 
L 44.304073 147.888 
L 43.532143 142.344 
L 42.780071 136.8 
L 42.051626 131.256 
L 41.952 130.443999 
z
" clip-path="url(#p76ed6eaa97)" style="fill: #58c765"/>
    <path d="M 59.071312 31.464 
L 56.413591 25.92 
L 59.808 25.92 
L 64.574096 25.92 
L 65.76 29.221937 
L 66.436292 31.464 
L 68.189906 37.008 
L 70.083025 42.552 
L 71.712 46.991909 
L 72.083232 48.096 
L 74.013884 53.64 
L 76.087754 59.184 
L 77.664 63.144167 
L 78.271808 64.728 
L 80.477435 70.272 
L 82.842105 75.816 
L 83.616 77.560892 
L 85.294192 81.36 
L 87.872889 86.904 
L 89.568 90.370566 
L 90.60499 92.448 
L 93.46867 97.992 
L 95.52 101.773551 
L 96.512944 103.536 
L 99.724005 109.08 
L 101.472 111.990025 
L 103.136249 114.624 
L 106.747811 120.168 
L 107.424 121.193939 
L 110.587036 125.712 
L 113.376 129.599867 
L 114.64778 131.256 
L 118.934094 136.8 
L 119.328 137.31628 
L 123.458942 142.344 
L 125.28 144.587541 
L 128.17787 147.888 
L 131.232 151.476899 
L 133.037562 153.432 
L 137.184 158.178958 
L 137.941153 158.976 
L 142.733256 164.52 
L 143.136 165.063273 
L 147.165642 170.064 
L 149.088 173.096859 
L 150.815858 175.608 
L 153.164176 181.152 
L 153.602318 186.696 
L 151.762004 192.24 
L 149.088 192.24 
L 143.136 192.24 
L 137.184 192.24 
L 131.266 192.24 
L 133.703505 186.696 
L 134.166172 181.152 
L 132.919311 175.608 
L 131.232 171.910199 
L 130.449514 170.064 
L 127.217952 164.52 
L 125.28 161.699866 
L 123.545203 158.976 
L 119.671504 153.432 
L 119.328 152.977104 
L 115.756719 147.888 
L 113.376 144.569287 
L 111.883014 142.344 
L 108.120099 136.8 
L 107.424 135.787645 
L 104.486797 131.256 
L 101.472 126.473219 
L 101.014265 125.712 
L 97.688277 120.168 
L 95.52 116.406774 
L 94.525214 114.624 
L 91.506159 109.08 
L 89.568 105.350283 
L 88.637005 103.536 
L 85.883442 97.992 
L 83.616 93.124802 
L 83.295566 92.448 
L 80.741974 86.904 
L 78.378731 81.36 
L 77.664 79.619407 
L 76.016972 75.816 
L 73.773559 70.272 
L 71.712 64.749985 
L 71.702725 64.728 
L 69.447336 59.184 
L 67.398139 53.64 
L 65.76 48.834873 
L 65.442041 48.096 
L 63.192028 42.552 
L 61.185537 37.008 
L 59.808 32.847293 
z
" clip-path="url(#p76ed6eaa97)" style="fill: #58c765"/>
   </g>
   <g id="PathCollection_25">
    <path d="M 41.886634 81.36 
L 41.822292 75.816 
L 41.80722 70.272 
L 41.842552 64.728 
L 41.929588 59.184 
L 41.952 58.272459 
L 42.155667 53.64 
L 42.510091 48.096 
L 42.994132 42.552 
L 43.628714 37.008 
L 44.440708 31.464 
L 45.465113 25.92 
L 47.904 25.92 
L 53.856 25.92 
L 56.413591 25.92 
L 59.071312 31.464 
L 59.808 32.847293 
L 61.185537 37.008 
L 63.192028 42.552 
L 65.442041 48.096 
L 65.76 48.834873 
L 67.398139 53.64 
L 69.447336 59.184 
L 71.702725 64.728 
L 71.712 64.749985 
L 73.773559 70.272 
L 76.016972 75.816 
L 77.664 79.619407 
L 78.378731 81.36 
L 80.741974 86.904 
L 83.295566 92.448 
L 83.616 93.124802 
L 85.883442 97.992 
L 88.637005 103.536 
L 89.568 105.350283 
L 91.506159 109.08 
L 94.525214 114.624 
L 95.52 116.406774 
L 97.688277 120.168 
L 101.014265 125.712 
L 101.472 126.473219 
L 104.486797 131.256 
L 107.424 135.787645 
L 108.120099 136.8 
L 111.883014 142.344 
L 113.376 144.569287 
L 115.756719 147.888 
L 119.328 152.977104 
L 119.671504 153.432 
L 123.545203 158.976 
L 125.28 161.699866 
L 127.217952 164.52 
L 130.449514 170.064 
L 131.232 171.910199 
L 132.919311 175.608 
L 134.166172 181.152 
L 133.703505 186.696 
L 131.266 192.24 
L 131.232 192.24 
L 125.28 192.24 
L 119.328 192.24 
L 113.376 192.24 
L 110.943922 192.24 
L 113.376 188.340097 
L 114.317781 186.696 
L 115.79415 181.152 
L 115.639322 175.608 
L 114.284714 170.064 
L 113.376 167.818413 
L 112.112466 164.52 
L 109.447351 158.976 
L 107.424 155.225811 
L 106.503694 153.432 
L 103.415991 147.888 
L 101.472 144.489928 
L 100.292111 142.344 
L 97.185937 136.8 
L 95.52 133.807319 
L 94.132512 131.256 
L 91.163456 125.712 
L 89.568 122.648604 
L 88.275809 120.168 
L 85.478986 114.624 
L 83.616 110.734254 
L 82.795564 109.08 
L 80.139582 103.536 
L 77.6994 97.992 
L 77.664 97.910404 
L 75.101555 92.448 
L 72.748853 86.904 
L 71.712 84.320442 
L 70.310792 81.36 
L 67.901525 75.816 
L 65.76 70.291922 
L 65.749126 70.272 
L 62.92338 64.728 
L 60.530225 59.184 
L 59.808 57.362365 
L 56.664996 53.64 
L 53.856 49.367908 
L 50.797337 53.64 
L 48.363174 59.184 
L 47.904 60.723236 
L 47.550217 64.728 
L 47.175726 70.272 
L 46.911859 75.816 
L 46.747894 81.36 
L 46.674945 86.904 
L 46.685575 92.448 
L 46.773497 97.992 
L 46.933327 103.536 
L 47.160376 109.08 
L 47.450471 114.624 
L 47.799803 120.168 
L 47.904 121.554273 
L 48.387778 125.712 
L 49.094722 131.256 
L 49.847406 136.8 
L 50.640867 142.344 
L 51.47044 147.888 
L 52.33171 153.432 
L 53.220602 158.976 
L 53.856 162.795936 
L 54.291321 164.52 
L 55.722586 170.064 
L 57.143374 175.608 
L 58.564066 181.152 
L 59.808 186.012785 
L 60.087367 186.696 
L 62.238363 192.24 
L 59.808 192.24 
L 55.664227 192.24 
L 54.378038 186.696 
L 53.856 184.701406 
L 53.231915 181.152 
L 52.221162 175.608 
L 51.193978 170.064 
L 50.1567 164.52 
L 49.112982 158.976 
L 48.066114 153.432 
L 47.904 152.542138 
L 47.307081 147.888 
L 46.625228 142.344 
L 45.97385 136.8 
L 45.356762 131.256 
L 44.777362 125.712 
L 44.238724 120.168 
L 43.743706 114.624 
L 43.295064 109.08 
L 42.895574 103.536 
L 42.548149 97.992 
L 42.255973 92.448 
L 42.022634 86.904 
L 41.952 84.536433 
z
" clip-path="url(#p76ed6eaa97)" style="fill: #84d44b"/>
   </g>
   <g id="PathCollection_26">
    <path d="M 47.799803 120.168 
L 47.450471 114.624 
L 47.160376 109.08 
L 46.933327 103.536 
L 46.773497 97.992 
L 46.685575 92.448 
L 46.674945 86.904 
L 46.747894 81.36 
L 46.911859 75.816 
L 47.175726 70.272 
L 47.550217 64.728 
L 47.904 60.723236 
L 48.363174 59.184 
L 50.797337 53.64 
L 53.856 49.367908 
L 56.664996 53.64 
L 59.808 57.362365 
L 60.530225 59.184 
L 62.92338 64.728 
L 65.749126 70.272 
L 65.76 70.291922 
L 67.901525 75.816 
L 70.310792 81.36 
L 71.712 84.320442 
L 72.748853 86.904 
L 75.101555 92.448 
L 77.664 97.910404 
L 77.6994 97.992 
L 80.139582 103.536 
L 82.795564 109.08 
L 83.616 110.734254 
L 85.478986 114.624 
L 88.275809 120.168 
L 89.568 122.648604 
L 91.163456 125.712 
L 94.132512 131.256 
L 95.52 133.807319 
L 97.185937 136.8 
L 100.292111 142.344 
L 101.472 144.489928 
L 103.415991 147.888 
L 106.503694 153.432 
L 107.424 155.225811 
L 109.447351 158.976 
L 112.112466 164.52 
L 113.376 167.818413 
L 114.284714 170.064 
L 115.639322 175.608 
L 115.79415 181.152 
L 114.317781 186.696 
L 113.376 188.340097 
L 110.943922 192.24 
L 107.424 192.24 
L 101.472 192.24 
L 95.52 192.24 
L 89.568 192.24 
L 83.616 192.24 
L 77.664 192.24 
L 71.712 192.24 
L 65.76 192.24 
L 62.238363 192.24 
L 60.087367 186.696 
L 59.808 186.012785 
L 58.564066 181.152 
L 57.143374 175.608 
L 55.722586 170.064 
L 54.291321 164.52 
L 53.856 162.795936 
L 53.220602 158.976 
L 52.33171 153.432 
L 51.47044 147.888 
L 50.640867 142.344 
L 49.847406 136.8 
L 49.094722 131.256 
L 48.387778 125.712 
L 47.904 121.554273 
z
M 53.856 124.815672 
L 53.945702 125.712 
L 54.679082 131.256 
L 55.501028 136.8 
L 56.395161 142.344 
L 57.350438 147.888 
L 58.35957 153.432 
L 59.418496 158.976 
L 59.808 160.857193 
L 61.080617 164.52 
L 63.023319 170.064 
L 64.973015 175.608 
L 65.76 177.720833 
L 68.052044 181.152 
L 71.712 186.494822 
L 72.032273 186.696 
L 77.664 190.082397 
L 83.616 190.138174 
L 89.568 187.401959 
L 90.430133 186.696 
L 94.995955 181.152 
L 95.52 179.791262 
L 96.695896 175.608 
L 96.800558 170.064 
L 95.912969 164.52 
L 95.52 163.174665 
L 94.270044 158.976 
L 92.229353 153.432 
L 90.027986 147.888 
L 89.568 146.843669 
L 87.515516 142.344 
L 85.026216 136.8 
L 83.616 133.648012 
L 82.452853 131.256 
L 79.824806 125.712 
L 77.664 120.78961 
L 77.342043 120.168 
L 74.545896 114.624 
L 72.091308 109.08 
L 71.712 108.200205 
L 69.060013 103.536 
L 66.406329 97.992 
L 65.76 96.538694 
L 62.375479 92.448 
L 59.808 88.381781 
L 55.70324 92.448 
L 53.856 96.797231 
L 53.755967 97.992 
L 53.476962 103.536 
L 53.378251 109.08 
L 53.430142 114.624 
L 53.610073 120.168 
z
" clip-path="url(#p76ed6eaa97)" style="fill: #b5de2b"/>
   </g>
   <g id="PathCollection_27">
    <path d="M 53.610073 120.168 
L 53.430142 114.624 
L 53.378251 109.08 
L 53.476962 103.536 
L 53.755967 97.992 
L 53.856 96.797231 
L 55.70324 92.448 
L 59.808 88.381781 
L 62.375479 92.448 
L 65.76 96.538694 
L 66.406329 97.992 
L 69.060013 103.536 
L 71.712 108.200205 
L 72.091308 109.08 
L 74.545896 114.624 
L 77.342043 120.168 
L 77.664 120.78961 
L 79.824806 125.712 
L 82.452853 131.256 
L 83.616 133.648012 
L 85.026216 136.8 
L 87.515516 142.344 
L 89.568 146.843669 
L 90.027986 147.888 
L 92.229353 153.432 
L 94.270044 158.976 
L 95.52 163.174665 
L 95.912969 164.52 
L 96.800558 170.064 
L 96.695896 175.608 
L 95.52 179.791262 
L 94.995955 181.152 
L 90.430133 186.696 
L 89.568 187.401959 
L 83.616 190.138174 
L 77.664 190.082397 
L 72.032273 186.696 
L 71.712 186.494822 
L 68.052044 181.152 
L 65.76 177.720833 
L 64.973015 175.608 
L 63.023319 170.064 
L 61.080617 164.52 
L 59.808 160.857193 
L 59.418496 158.976 
L 58.35957 153.432 
L 57.350438 147.888 
L 56.395161 142.344 
L 55.501028 136.8 
L 54.679082 131.256 
L 53.945702 125.712 
L 53.856 124.815672 
z
" clip-path="url(#p76ed6eaa97)" style="fill: #e7e419"/>
   </g>
   <g id="PathCollection_28">
    <defs>
     <path id="m26978cc486" d="M -4.330127 4.330127 
L 4.330127 -4.330127 
M -4.330127 -4.330127 
L 4.330127 4.330127 
" style="stroke: #000000; stroke-width: 2"/>
    </defs>
    <g clip-path="url(#p76ed6eaa97)">
     <use xlink:href="#m26978cc486" x="65.76" y="127.56" style="stroke: #000000; stroke-width: 2"/>
    </g>
   </g>
   <g id="matplotlib.axis_1">
    <g id="xtick_1">
     <g id="line2d_1">
      <defs>
       <path id="m8230cabe68" d="M 0 0 
L 0 3.5 
" style="stroke: #000000; stroke-width: 0.8"/>
      </defs>
      <g>
       <use xlink:href="#m8230cabe68" x="75.68" y="192.24" style="stroke: #000000; stroke-width: 0.8"/>
      </g>
     </g>
     <g id="text_1">
      <!-- $\mathdefault{250}$ -->
      <g transform="translate(64.22 208.358125) scale(0.12 -0.12)">
       <defs>
        <path id="DejaVuSans-32" d="M 1228 531 
L 3431 531 
L 3431 0 
L 469 0 
L 469 531 
Q 828 903 1448 1529 
Q 2069 2156 2228 2338 
Q 2531 2678 2651 2914 
Q 2772 3150 2772 3378 
Q 2772 3750 2511 3984 
Q 2250 4219 1831 4219 
Q 1534 4219 1204 4116 
Q 875 4013 500 3803 
L 500 4441 
Q 881 4594 1212 4672 
Q 1544 4750 1819 4750 
Q 2544 4750 2975 4387 
Q 3406 4025 3406 3419 
Q 3406 3131 3298 2873 
Q 3191 2616 2906 2266 
Q 2828 2175 2409 1742 
Q 1991 1309 1228 531 
z
" transform="scale(0.015625)"/>
        <path id="DejaVuSans-35" d="M 691 4666 
L 3169 4666 
L 3169 4134 
L 1269 4134 
L 1269 2991 
Q 1406 3038 1543 3061 
Q 1681 3084 1819 3084 
Q 2600 3084 3056 2656 
Q 3513 2228 3513 1497 
Q 3513 744 3044 326 
Q 2575 -91 1722 -91 
Q 1428 -91 1123 -41 
Q 819 9 494 109 
L 494 744 
Q 775 591 1075 516 
Q 1375 441 1709 441 
Q 2250 441 2565 725 
Q 2881 1009 2881 1497 
Q 2881 1984 2565 2268 
Q 2250 2553 1709 2553 
Q 1456 2553 1204 2497 
Q 953 2441 691 2322 
L 691 4666 
z
" transform="scale(0.015625)"/>
        <path id="DejaVuSans-30" d="M 2034 4250 
Q 1547 4250 1301 3770 
Q 1056 3291 1056 2328 
Q 1056 1369 1301 889 
Q 1547 409 2034 409 
Q 2525 409 2770 889 
Q 3016 1369 3016 2328 
Q 3016 3291 2770 3770 
Q 2525 4250 2034 4250 
z
M 2034 4750 
Q 2819 4750 3233 4129 
Q 3647 3509 3647 2328 
Q 3647 1150 3233 529 
Q 2819 -91 2034 -91 
Q 1250 -91 836 529 
Q 422 1150 422 2328 
Q 422 3509 836 4129 
Q 1250 4750 2034 4750 
z
" transform="scale(0.015625)"/>
       </defs>
       <use xlink:href="#DejaVuSans-32" transform="translate(0 0.78125)"/>
       <use xlink:href="#DejaVuSans-35" transform="translate(63.623047 0.78125)"/>
       <use xlink:href="#DejaVuSans-30" transform="translate(127.246094 0.78125)"/>
      </g>
     </g>
    </g>
    <g id="xtick_2">
     <g id="line2d_2">
      <g>
       <use xlink:href="#m8230cabe68" x="125.28" y="192.24" style="stroke: #000000; stroke-width: 0.8"/>
      </g>
     </g>
     <g id="text_2">
      <!-- $\mathdefault{500}$ -->
      <g transform="translate(113.82 208.358125) scale(0.12 -0.12)">
       <use xlink:href="#DejaVuSans-35" transform="translate(0 0.78125)"/>
       <use xlink:href="#DejaVuSans-30" transform="translate(63.623047 0.78125)"/>
       <use xlink:href="#DejaVuSans-30" transform="translate(127.246094 0.78125)"/>
      </g>
     </g>
    </g>
    <g id="xtick_3">
     <g id="line2d_3">
      <g>
       <use xlink:href="#m8230cabe68" x="174.88" y="192.24" style="stroke: #000000; stroke-width: 0.8"/>
      </g>
     </g>
     <g id="text_3">
      <!-- $\mathdefault{750}$ -->
      <g transform="translate(163.42 208.358125) scale(0.12 -0.12)">
       <defs>
        <path id="DejaVuSans-37" d="M 525 4666 
L 3525 4666 
L 3525 4397 
L 1831 0 
L 1172 0 
L 2766 4134 
L 525 4134 
L 525 4666 
z
" transform="scale(0.015625)"/>
       </defs>
       <use xlink:href="#DejaVuSans-37" transform="translate(0 0.78125)"/>
       <use xlink:href="#DejaVuSans-35" transform="translate(63.623047 0.78125)"/>
       <use xlink:href="#DejaVuSans-30" transform="translate(127.246094 0.78125)"/>
      </g>
     </g>
    </g>
    <g id="text_4">
     <!-- Diploid N$_e$0 -->
     <g transform="translate(80 227.01375) scale(0.16 -0.16)">
      <defs>
       <path id="DejaVuSans-44" d="M 1259 4147 
L 1259 519 
L 2022 519 
Q 2988 519 3436 956 
Q 3884 1394 3884 2338 
Q 3884 3275 3436 3711 
Q 2988 4147 2022 4147 
L 1259 4147 
z
M 628 4666 
L 1925 4666 
Q 3281 4666 3915 4102 
Q 4550 3538 4550 2338 
Q 4550 1131 3912 565 
Q 3275 0 1925 0 
L 628 0 
L 628 4666 
z
" transform="scale(0.015625)"/>
       <path id="DejaVuSans-69" d="M 603 3500 
L 1178 3500 
L 1178 0 
L 603 0 
L 603 3500 
z
M 603 4863 
L 1178 4863 
L 1178 4134 
L 603 4134 
L 603 4863 
z
" transform="scale(0.015625)"/>
       <path id="DejaVuSans-70" d="M 1159 525 
L 1159 -1331 
L 581 -1331 
L 581 3500 
L 1159 3500 
L 1159 2969 
Q 1341 3281 1617 3432 
Q 1894 3584 2278 3584 
Q 2916 3584 3314 3078 
Q 3713 2572 3713 1747 
Q 3713 922 3314 415 
Q 2916 -91 2278 -91 
Q 1894 -91 1617 61 
Q 1341 213 1159 525 
z
M 3116 1747 
Q 3116 2381 2855 2742 
Q 2594 3103 2138 3103 
Q 1681 3103 1420 2742 
Q 1159 2381 1159 1747 
Q 1159 1113 1420 752 
Q 1681 391 2138 391 
Q 2594 391 2855 752 
Q 3116 1113 3116 1747 
z
" transform="scale(0.015625)"/>
       <path id="DejaVuSans-6c" d="M 603 4863 
L 1178 4863 
L 1178 0 
L 603 0 
L 603 4863 
z
" transform="scale(0.015625)"/>
       <path id="DejaVuSans-6f" d="M 1959 3097 
Q 1497 3097 1228 2736 
Q 959 2375 959 1747 
Q 959 1119 1226 758 
Q 1494 397 1959 397 
Q 2419 397 2687 759 
Q 2956 1122 2956 1747 
Q 2956 2369 2687 2733 
Q 2419 3097 1959 3097 
z
M 1959 3584 
Q 2709 3584 3137 3096 
Q 3566 2609 3566 1747 
Q 3566 888 3137 398 
Q 2709 -91 1959 -91 
Q 1206 -91 779 398 
Q 353 888 353 1747 
Q 353 2609 779 3096 
Q 1206 3584 1959 3584 
z
" transform="scale(0.015625)"/>
       <path id="DejaVuSans-64" d="M 2906 2969 
L 2906 4863 
L 3481 4863 
L 3481 0 
L 2906 0 
L 2906 525 
Q 2725 213 2448 61 
Q 2172 -91 1784 -91 
Q 1150 -91 751 415 
Q 353 922 353 1747 
Q 353 2572 751 3078 
Q 1150 3584 1784 3584 
Q 2172 3584 2448 3432 
Q 2725 3281 2906 2969 
z
M 947 1747 
Q 947 1113 1208 752 
Q 1469 391 1925 391 
Q 2381 391 2643 752 
Q 2906 1113 2906 1747 
Q 2906 2381 2643 2742 
Q 2381 3103 1925 3103 
Q 1469 3103 1208 2742 
Q 947 2381 947 1747 
z
" transform="scale(0.015625)"/>
       <path id="DejaVuSans-20" transform="scale(0.015625)"/>
       <path id="DejaVuSans-4e" d="M 628 4666 
L 1478 4666 
L 3547 763 
L 3547 4666 
L 4159 4666 
L 4159 0 
L 3309 0 
L 1241 3903 
L 1241 0 
L 628 0 
L 628 4666 
z
" transform="scale(0.015625)"/>
       <path id="DejaVuSans-Oblique-65" d="M 3078 2063 
Q 3088 2113 3092 2166 
Q 3097 2219 3097 2272 
Q 3097 2653 2873 2875 
Q 2650 3097 2266 3097 
Q 1838 3097 1509 2826 
Q 1181 2556 1013 2059 
L 3078 2063 
z
M 3578 1613 
L 903 1613 
Q 884 1494 878 1425 
Q 872 1356 872 1306 
Q 872 872 1139 634 
Q 1406 397 1894 397 
Q 2269 397 2603 481 
Q 2938 566 3225 728 
L 3116 159 
Q 2806 34 2476 -28 
Q 2147 -91 1806 -91 
Q 1078 -91 686 257 
Q 294 606 294 1247 
Q 294 1794 489 2264 
Q 684 2734 1063 3103 
Q 1306 3334 1642 3459 
Q 1978 3584 2356 3584 
Q 2950 3584 3301 3228 
Q 3653 2872 3653 2272 
Q 3653 2128 3634 1964 
Q 3616 1800 3578 1613 
z
" transform="scale(0.015625)"/>
      </defs>
      <use xlink:href="#DejaVuSans-44" transform="translate(0 0.015625)"/>
      <use xlink:href="#DejaVuSans-69" transform="translate(77.001953 0.015625)"/>
      <use xlink:href="#DejaVuSans-70" transform="translate(104.785156 0.015625)"/>
      <use xlink:href="#DejaVuSans-6c" transform="translate(168.261719 0.015625)"/>
      <use xlink:href="#DejaVuSans-6f" transform="translate(196.044922 0.015625)"/>
      <use xlink:href="#DejaVuSans-69" transform="translate(257.226562 0.015625)"/>
      <use xlink:href="#DejaVuSans-64" transform="translate(285.009766 0.015625)"/>
      <use xlink:href="#DejaVuSans-20" transform="translate(348.486328 0.015625)"/>
      <use xlink:href="#DejaVuSans-4e" transform="translate(380.273438 0.015625)"/>
      <use xlink:href="#DejaVuSans-Oblique-65" transform="translate(456.035156 -16.390625) scale(0.7)"/>
      <use xlink:href="#DejaVuSans-30" transform="translate(501.835938 0.015625)"/>
     </g>
    </g>
    <g id="text_5">
     <!-- $\times\mathdefault{10^{3}}\mathdefault{}$ -->
     <g transform="translate(188.56 221.452188) scale(0.1 -0.1)">
      <defs>
       <path id="DejaVuSans-d7" d="M 4488 3438 
L 3059 2003 
L 4488 575 
L 4116 197 
L 2681 1631 
L 1247 197 
L 878 575 
L 2303 2003 
L 878 3438 
L 1247 3816 
L 2681 2381 
L 4116 3816 
L 4488 3438 
z
" transform="scale(0.015625)"/>
       <path id="DejaVuSans-31" d="M 794 531 
L 1825 531 
L 1825 4091 
L 703 3866 
L 703 4441 
L 1819 4666 
L 2450 4666 
L 2450 531 
L 3481 531 
L 3481 0 
L 794 0 
L 794 531 
z
" transform="scale(0.015625)"/>
       <path id="DejaVuSans-33" d="M 2597 2516 
Q 3050 2419 3304 2112 
Q 3559 1806 3559 1356 
Q 3559 666 3084 287 
Q 2609 -91 1734 -91 
Q 1441 -91 1130 -33 
Q 819 25 488 141 
L 488 750 
Q 750 597 1062 519 
Q 1375 441 1716 441 
Q 2309 441 2620 675 
Q 2931 909 2931 1356 
Q 2931 1769 2642 2001 
Q 2353 2234 1838 2234 
L 1294 2234 
L 1294 2753 
L 1863 2753 
Q 2328 2753 2575 2939 
Q 2822 3125 2822 3475 
Q 2822 3834 2567 4026 
Q 2313 4219 1838 4219 
Q 1578 4219 1281 4162 
Q 984 4106 628 3988 
L 628 4550 
Q 988 4650 1302 4700 
Q 1616 4750 1894 4750 
Q 2613 4750 3031 4423 
Q 3450 4097 3450 3541 
Q 3450 3153 3228 2886 
Q 3006 2619 2597 2516 
z
" transform="scale(0.015625)"/>
      </defs>
      <use xlink:href="#DejaVuSans-d7" transform="translate(0 0.765625)"/>
      <use xlink:href="#DejaVuSans-31" transform="translate(83.789062 0.765625)"/>
      <use xlink:href="#DejaVuSans-30" transform="translate(147.412109 0.765625)"/>
      <use xlink:href="#DejaVuSans-33" transform="translate(211.992188 39.046875) scale(0.7)"/>
     </g>
    </g>
   </g>
   <g id="matplotlib.axis_2">
    <g id="ytick_1">
     <g id="line2d_4">
      <defs>
       <path id="m80025e6ca8" d="M 0 0 
L -3.5 0 
" style="stroke: #000000; stroke-width: 0.8"/>
      </defs>
      <g>
       <use xlink:href="#m80025e6ca8" x="36" y="155.28" style="stroke: #000000; stroke-width: 0.8"/>
      </g>
     </g>
     <g id="text_6">
      <!-- $\mathdefault{250}$ -->
      <g transform="translate(6.08 159.839063) scale(0.12 -0.12)">
       <use xlink:href="#DejaVuSans-32" transform="translate(0 0.78125)"/>
       <use xlink:href="#DejaVuSans-35" transform="translate(63.623047 0.78125)"/>
       <use xlink:href="#DejaVuSans-30" transform="translate(127.246094 0.78125)"/>
      </g>
     </g>
    </g>
    <g id="ytick_2">
     <g id="line2d_5">
      <g>
       <use xlink:href="#m80025e6ca8" x="36" y="109.08" style="stroke: #000000; stroke-width: 0.8"/>
      </g>
     </g>
     <g id="text_7">
      <!-- $\mathdefault{500}$ -->
      <g transform="translate(6.08 113.639062) scale(0.12 -0.12)">
       <use xlink:href="#DejaVuSans-35" transform="translate(0 0.78125)"/>
       <use xlink:href="#DejaVuSans-30" transform="translate(63.623047 0.78125)"/>
       <use xlink:href="#DejaVuSans-30" transform="translate(127.246094 0.78125)"/>
      </g>
     </g>
    </g>
    <g id="ytick_3">
     <g id="line2d_6">
      <g>
       <use xlink:href="#m80025e6ca8" x="36" y="62.88" style="stroke: #000000; stroke-width: 0.8"/>
      </g>
     </g>
     <g id="text_8">
      <!-- $\mathdefault{750}$ -->
      <g transform="translate(6.08 67.439062) scale(0.12 -0.12)">
       <use xlink:href="#DejaVuSans-37" transform="translate(0 0.78125)"/>
       <use xlink:href="#DejaVuSans-35" transform="translate(63.623047 0.78125)"/>
       <use xlink:href="#DejaVuSans-30" transform="translate(127.246094 0.78125)"/>
      </g>
     </g>
    </g>
    <g id="text_9">
     <!-- Diploid N$_e$2 -->
     <g transform="translate(-1.28 154.36) rotate(-90) scale(0.16 -0.16)">
      <use xlink:href="#DejaVuSans-44" transform="translate(0 0.015625)"/>
      <use xlink:href="#DejaVuSans-69" transform="translate(77.001953 0.015625)"/>
      <use xlink:href="#DejaVuSans-70" transform="translate(104.785156 0.015625)"/>
      <use xlink:href="#DejaVuSans-6c" transform="translate(168.261719 0.015625)"/>
      <use xlink:href="#DejaVuSans-6f" transform="translate(196.044922 0.015625)"/>
      <use xlink:href="#DejaVuSans-69" transform="translate(257.226562 0.015625)"/>
      <use xlink:href="#DejaVuSans-64" transform="translate(285.009766 0.015625)"/>
      <use xlink:href="#DejaVuSans-20" transform="translate(348.486328 0.015625)"/>
      <use xlink:href="#DejaVuSans-4e" transform="translate(380.273438 0.015625)"/>
      <use xlink:href="#DejaVuSans-Oblique-65" transform="translate(456.035156 -16.390625) scale(0.7)"/>
      <use xlink:href="#DejaVuSans-32" transform="translate(501.835938 0.015625)"/>
     </g>
    </g>
    <g id="text_10">
     <!-- $\times\mathdefault{10^{3}}\mathdefault{}$ -->
     <g transform="translate(36 22.92) scale(0.1 -0.1)">
      <use xlink:href="#DejaVuSans-d7" transform="translate(0 0.765625)"/>
      <use xlink:href="#DejaVuSans-31" transform="translate(83.789062 0.765625)"/>
      <use xlink:href="#DejaVuSans-30" transform="translate(147.412109 0.765625)"/>
      <use xlink:href="#DejaVuSans-33" transform="translate(211.992188 39.046875) scale(0.7)"/>
     </g>
    </g>
   </g>
   <g id="patch_3">
    <path d="M 36 192.24 
L 36 25.92 
" style="fill: none; stroke: #000000; stroke-width: 0.8; stroke-linejoin: miter; stroke-linecap: square"/>
   </g>
   <g id="patch_4">
    <path d="M 214.56 192.24 
L 214.56 25.92 
" style="fill: none; stroke: #000000; stroke-width: 0.8; stroke-linejoin: miter; stroke-linecap: square"/>
   </g>
   <g id="patch_5">
    <path d="M 36 192.24 
L 214.56 192.24 
" style="fill: none; stroke: #000000; stroke-width: 0.8; stroke-linejoin: miter; stroke-linecap: square"/>
   </g>
   <g id="patch_6">
    <path d="M 36 25.92 
L 214.56 25.92 
" style="fill: none; stroke: #000000; stroke-width: 0.8; stroke-linejoin: miter; stroke-linecap: square"/>
   </g>
   <g id="text_11">
    <!-- Ne0Ne2-SMC-T-P2-S4 -->
    <g transform="translate(40.66375 10.92) scale(0.16 -0.16)">
     <defs>
      <path id="DejaVuSans-65" d="M 3597 1894 
L 3597 1613 
L 953 1613 
Q 991 1019 1311 708 
Q 1631 397 2203 397 
Q 2534 397 2845 478 
Q 3156 559 3463 722 
L 3463 178 
Q 3153 47 2828 -22 
Q 2503 -91 2169 -91 
Q 1331 -91 842 396 
Q 353 884 353 1716 
Q 353 2575 817 3079 
Q 1281 3584 2069 3584 
Q 2775 3584 3186 3129 
Q 3597 2675 3597 1894 
z
M 3022 2063 
Q 3016 2534 2758 2815 
Q 2500 3097 2075 3097 
Q 1594 3097 1305 2825 
Q 1016 2553 972 2059 
L 3022 2063 
z
" transform="scale(0.015625)"/>
      <path id="DejaVuSans-2d" d="M 313 2009 
L 1997 2009 
L 1997 1497 
L 313 1497 
L 313 2009 
z
" transform="scale(0.015625)"/>
      <path id="DejaVuSans-53" d="M 3425 4513 
L 3425 3897 
Q 3066 4069 2747 4153 
Q 2428 4238 2131 4238 
Q 1616 4238 1336 4038 
Q 1056 3838 1056 3469 
Q 1056 3159 1242 3001 
Q 1428 2844 1947 2747 
L 2328 2669 
Q 3034 2534 3370 2195 
Q 3706 1856 3706 1288 
Q 3706 609 3251 259 
Q 2797 -91 1919 -91 
Q 1588 -91 1214 -16 
Q 841 59 441 206 
L 441 856 
Q 825 641 1194 531 
Q 1563 422 1919 422 
Q 2459 422 2753 634 
Q 3047 847 3047 1241 
Q 3047 1584 2836 1778 
Q 2625 1972 2144 2069 
L 1759 2144 
Q 1053 2284 737 2584 
Q 422 2884 422 3419 
Q 422 4038 858 4394 
Q 1294 4750 2059 4750 
Q 2388 4750 2728 4690 
Q 3069 4631 3425 4513 
z
" transform="scale(0.015625)"/>
      <path id="DejaVuSans-4d" d="M 628 4666 
L 1569 4666 
L 2759 1491 
L 3956 4666 
L 4897 4666 
L 4897 0 
L 4281 0 
L 4281 4097 
L 3078 897 
L 2444 897 
L 1241 4097 
L 1241 0 
L 628 0 
L 628 4666 
z
" transform="scale(0.015625)"/>
      <path id="DejaVuSans-43" d="M 4122 4306 
L 4122 3641 
Q 3803 3938 3442 4084 
Q 3081 4231 2675 4231 
Q 1875 4231 1450 3742 
Q 1025 3253 1025 2328 
Q 1025 1406 1450 917 
Q 1875 428 2675 428 
Q 3081 428 3442 575 
Q 3803 722 4122 1019 
L 4122 359 
Q 3791 134 3420 21 
Q 3050 -91 2638 -91 
Q 1578 -91 968 557 
Q 359 1206 359 2328 
Q 359 3453 968 4101 
Q 1578 4750 2638 4750 
Q 3056 4750 3426 4639 
Q 3797 4528 4122 4306 
z
" transform="scale(0.015625)"/>
      <path id="DejaVuSans-54" d="M -19 4666 
L 3928 4666 
L 3928 4134 
L 2272 4134 
L 2272 0 
L 1638 0 
L 1638 4134 
L -19 4134 
L -19 4666 
z
" transform="scale(0.015625)"/>
      <path id="DejaVuSans-50" d="M 1259 4147 
L 1259 2394 
L 2053 2394 
Q 2494 2394 2734 2622 
Q 2975 2850 2975 3272 
Q 2975 3691 2734 3919 
Q 2494 4147 2053 4147 
L 1259 4147 
z
M 628 4666 
L 2053 4666 
Q 2838 4666 3239 4311 
Q 3641 3956 3641 3272 
Q 3641 2581 3239 2228 
Q 2838 1875 2053 1875 
L 1259 1875 
L 1259 0 
L 628 0 
L 628 4666 
z
" transform="scale(0.015625)"/>
      <path id="DejaVuSans-34" d="M 2419 4116 
L 825 1625 
L 2419 1625 
L 2419 4116 
z
M 2253 4666 
L 3047 4666 
L 3047 1625 
L 3713 1625 
L 3713 1100 
L 3047 1100 
L 3047 0 
L 2419 0 
L 2419 1100 
L 313 1100 
L 313 1709 
L 2253 4666 
z
" transform="scale(0.015625)"/>
     </defs>
     <use xlink:href="#DejaVuSans-4e"/>
     <use xlink:href="#DejaVuSans-65" x="74.804688"/>
     <use xlink:href="#DejaVuSans-30" x="136.328125"/>
     <use xlink:href="#DejaVuSans-4e" x="199.951172"/>
     <use xlink:href="#DejaVuSans-65" x="274.755859"/>
     <use xlink:href="#DejaVuSans-32" x="336.279297"/>
     <use xlink:href="#DejaVuSans-2d" x="399.902344"/>
     <use xlink:href="#DejaVuSans-53" x="435.986328"/>
     <use xlink:href="#DejaVuSans-4d" x="499.462891"/>
     <use xlink:href="#DejaVuSans-43" x="585.742188"/>
     <use xlink:href="#DejaVuSans-2d" x="655.566406"/>
     <use xlink:href="#DejaVuSans-54" x="682.525391"/>
     <use xlink:href="#DejaVuSans-2d" x="734.484375"/>
     <use xlink:href="#DejaVuSans-50" x="770.568359"/>
     <use xlink:href="#DejaVuSans-32" x="830.871094"/>
     <use xlink:href="#DejaVuSans-2d" x="894.494141"/>
     <use xlink:href="#DejaVuSans-53" x="930.578125"/>
     <use xlink:href="#DejaVuSans-34" x="994.054688"/>
    </g>
   </g>
  </g>
  <g id="axes_2">
   <g id="patch_7">
    <path d="M 225.72 192.24 
L 234.036 192.24 
L 234.036 25.92 
L 225.72 25.92 
z
" style="fill: #ffffff"/>
   </g>
   <g id="QuadMesh_1">
    <path d="M 225.72 192.24 
L 234.036 192.24 
L 234.036 186.08 
L 225.72 186.08 
L 225.72 192.24 
" clip-path="url(#p598da0dbe0)" style="fill: #440154"/>
    <path d="M 225.72 186.08 
L 234.036 186.08 
L 234.036 179.92 
L 225.72 179.92 
L 225.72 186.08 
" clip-path="url(#p598da0dbe0)" style="fill: #440154"/>
    <path d="M 225.72 179.92 
L 234.036 179.92 
L 234.036 173.76 
L 225.72 173.76 
L 225.72 179.92 
" clip-path="url(#p598da0dbe0)" style="fill: #440154"/>
    <path d="M 225.72 173.76 
L 234.036 173.76 
L 234.036 167.6 
L 225.72 167.6 
L 225.72 173.76 
" clip-path="url(#p598da0dbe0)" style="fill: #440154"/>
    <path d="M 225.72 167.6 
L 234.036 167.6 
L 234.036 161.44 
L 225.72 161.44 
L 225.72 167.6 
" clip-path="url(#p598da0dbe0)" style="fill: #440154"/>
    <path d="M 225.72 161.44 
L 234.036 161.44 
L 234.036 155.28 
L 225.72 155.28 
L 225.72 161.44 
" clip-path="url(#p598da0dbe0)" style="fill: #440154"/>
    <path d="M 225.72 155.28 
L 234.036 155.28 
L 234.036 149.12 
L 225.72 149.12 
L 225.72 155.28 
" clip-path="url(#p598da0dbe0)" style="fill: #440154"/>
    <path d="M 225.72 149.12 
L 234.036 149.12 
L 234.036 142.96 
L 225.72 142.96 
L 225.72 149.12 
" clip-path="url(#p598da0dbe0)" style="fill: #440154"/>
    <path d="M 225.72 142.96 
L 234.036 142.96 
L 234.036 136.8 
L 225.72 136.8 
L 225.72 142.96 
" clip-path="url(#p598da0dbe0)" style="fill: #440154"/>
    <path d="M 225.72 136.8 
L 234.036 136.8 
L 234.036 130.64 
L 225.72 130.64 
L 225.72 136.8 
" clip-path="url(#p598da0dbe0)" style="fill: #440154"/>
    <path d="M 225.72 130.64 
L 234.036 130.64 
L 234.036 124.48 
L 225.72 124.48 
L 225.72 130.64 
" clip-path="url(#p598da0dbe0)" style="fill: #440154"/>
    <path d="M 225.72 124.48 
L 234.036 124.48 
L 234.036 118.32 
L 225.72 118.32 
L 225.72 124.48 
" clip-path="url(#p598da0dbe0)" style="fill: #440154"/>
    <path d="M 225.72 118.32 
L 234.036 118.32 
L 234.036 112.16 
L 225.72 112.16 
L 225.72 118.32 
" clip-path="url(#p598da0dbe0)" style="fill: #440154"/>
    <path d="M 225.72 112.16 
L 234.036 112.16 
L 234.036 106 
L 225.72 106 
L 225.72 112.16 
" clip-path="url(#p598da0dbe0)" style="fill: #440154"/>
    <path d="M 225.72 106 
L 234.036 106 
L 234.036 99.84 
L 225.72 99.84 
L 225.72 106 
" clip-path="url(#p598da0dbe0)" style="fill: #481b6d"/>
    <path d="M 225.72 99.84 
L 234.036 99.84 
L 234.036 93.68 
L 225.72 93.68 
L 225.72 99.84 
" clip-path="url(#p598da0dbe0)" style="fill: #46337f"/>
    <path d="M 225.72 93.68 
L 234.036 93.68 
L 234.036 87.52 
L 225.72 87.52 
L 225.72 93.68 
" clip-path="url(#p598da0dbe0)" style="fill: #3e4989"/>
    <path d="M 225.72 87.52 
L 234.036 87.52 
L 234.036 81.36 
L 225.72 81.36 
L 225.72 87.52 
" clip-path="url(#p598da0dbe0)" style="fill: #355e8d"/>
    <path d="M 225.72 81.36 
L 234.036 81.36 
L 234.036 75.2 
L 225.72 75.2 
L 225.72 81.36 
" clip-path="url(#p598da0dbe0)" style="fill: #2d718e"/>
    <path d="M 225.72 75.2 
L 234.036 75.2 
L 234.036 69.04 
L 225.72 69.04 
L 225.72 75.2 
" clip-path="url(#p598da0dbe0)" style="fill: #26828e"/>
    <path d="M 225.72 69.04 
L 234.036 69.04 
L 234.036 62.88 
L 225.72 62.88 
L 225.72 69.04 
" clip-path="url(#p598da0dbe0)" style="fill: #1f948c"/>
    <path d="M 225.72 62.88 
L 234.036 62.88 
L 234.036 56.72 
L 225.72 56.72 
L 225.72 62.88 
" clip-path="url(#p598da0dbe0)" style="fill: #21a685"/>
    <path d="M 225.72 56.72 
L 234.036 56.72 
L 234.036 50.56 
L 225.72 50.56 
L 225.72 56.72 
" clip-path="url(#p598da0dbe0)" style="fill: #35b779"/>
    <path d="M 225.72 50.56 
L 234.036 50.56 
L 234.036 44.4 
L 225.72 44.4 
L 225.72 50.56 
" clip-path="url(#p598da0dbe0)" style="fill: #58c765"/>
    <path d="M 225.72 44.4 
L 234.036 44.4 
L 234.036 38.24 
L 225.72 38.24 
L 225.72 44.4 
" clip-path="url(#p598da0dbe0)" style="fill: #84d44b"/>
    <path d="M 225.72 38.24 
L 234.036 38.24 
L 234.036 32.08 
L 225.72 32.08 
L 225.72 38.24 
" clip-path="url(#p598da0dbe0)" style="fill: #b5de2b"/>
    <path d="M 225.72 32.08 
L 234.036 32.08 
L 234.036 25.92 
L 225.72 25.92 
L 225.72 32.08 
" clip-path="url(#p598da0dbe0)" style="fill: #e7e419"/>
   </g>
   <g id="matplotlib.axis_3"/>
   <g id="matplotlib.axis_4">
    <g id="ytick_4">
     <g id="line2d_7">
      <defs>
       <path id="mec4451ce0f" d="M 0 0 
L 3.5 0 
" style="stroke: #000000; stroke-width: 0.8"/>
      </defs>
      <g>
       <use xlink:href="#mec4451ce0f" x="234.036" y="192.24" style="stroke: #000000; stroke-width: 0.8"/>
      </g>
     </g>
     <g id="text_12">
      <!-- 116.50 -->
      <g transform="translate(241.036 196.039219) scale(0.1 -0.1)">
       <defs>
        <path id="DejaVuSans-2212" d="M 678 2272 
L 4684 2272 
L 4684 1741 
L 678 1741 
L 678 2272 
z
" transform="scale(0.015625)"/>
        <path id="DejaVuSans-36" d="M 2113 2584 
Q 1688 2584 1439 2293 
Q 1191 2003 1191 1497 
Q 1191 994 1439 701 
Q 1688 409 2113 409 
Q 2538 409 2786 701 
Q 3034 994 3034 1497 
Q 3034 2003 2786 2293 
Q 2538 2584 2113 2584 
z
M 3366 4563 
L 3366 3988 
Q 3128 4100 2886 4159 
Q 2644 4219 2406 4219 
Q 1781 4219 1451 3797 
Q 1122 3375 1075 2522 
Q 1259 2794 1537 2939 
Q 1816 3084 2150 3084 
Q 2853 3084 3261 2657 
Q 3669 2231 3669 1497 
Q 3669 778 3244 343 
Q 2819 -91 2113 -91 
Q 1303 -91 875 529 
Q 447 1150 447 2328 
Q 447 3434 972 4092 
Q 1497 4750 2381 4750 
Q 2619 4750 2861 4703 
Q 3103 4656 3366 4563 
z
" transform="scale(0.015625)"/>
        <path id="DejaVuSans-2e" d="M 684 794 
L 1344 794 
L 1344 0 
L 684 0 
L 684 794 
z
" transform="scale(0.015625)"/>
       </defs>
       <use xlink:href="#DejaVuSans-2212"/>
       <use xlink:href="#DejaVuSans-31" x="83.789062"/>
       <use xlink:href="#DejaVuSans-31" x="147.412109"/>
       <use xlink:href="#DejaVuSans-36" x="211.035156"/>
       <use xlink:href="#DejaVuSans-2e" x="274.658203"/>
       <use xlink:href="#DejaVuSans-35" x="306.445312"/>
       <use xlink:href="#DejaVuSans-30" x="370.068359"/>
      </g>
     </g>
    </g>
    <g id="ytick_5">
     <g id="line2d_8">
      <g>
       <use xlink:href="#mec4451ce0f" x="234.036" y="173.76" style="stroke: #000000; stroke-width: 0.8"/>
      </g>
     </g>
     <g id="text_13">
      <!-- 116.47 -->
      <g transform="translate(241.036 177.559219) scale(0.1 -0.1)">
       <use xlink:href="#DejaVuSans-2212"/>
       <use xlink:href="#DejaVuSans-31" x="83.789062"/>
       <use xlink:href="#DejaVuSans-31" x="147.412109"/>
       <use xlink:href="#DejaVuSans-36" x="211.035156"/>
       <use xlink:href="#DejaVuSans-2e" x="274.658203"/>
       <use xlink:href="#DejaVuSans-34" x="306.445312"/>
       <use xlink:href="#DejaVuSans-37" x="370.068359"/>
      </g>
     </g>
    </g>
    <g id="ytick_6">
     <g id="line2d_9">
      <g>
       <use xlink:href="#mec4451ce0f" x="234.036" y="155.28" style="stroke: #000000; stroke-width: 0.8"/>
      </g>
     </g>
     <g id="text_14">
      <!-- 116.44 -->
      <g transform="translate(241.036 159.079219) scale(0.1 -0.1)">
       <use xlink:href="#DejaVuSans-2212"/>
       <use xlink:href="#DejaVuSans-31" x="83.789062"/>
       <use xlink:href="#DejaVuSans-31" x="147.412109"/>
       <use xlink:href="#DejaVuSans-36" x="211.035156"/>
       <use xlink:href="#DejaVuSans-2e" x="274.658203"/>
       <use xlink:href="#DejaVuSans-34" x="306.445312"/>
       <use xlink:href="#DejaVuSans-34" x="370.068359"/>
      </g>
     </g>
    </g>
    <g id="ytick_7">
     <g id="line2d_10">
      <g>
       <use xlink:href="#mec4451ce0f" x="234.036" y="136.8" style="stroke: #000000; stroke-width: 0.8"/>
      </g>
     </g>
     <g id="text_15">
      <!-- 116.41 -->
      <g transform="translate(241.036 140.599219) scale(0.1 -0.1)">
       <use xlink:href="#DejaVuSans-2212"/>
       <use xlink:href="#DejaVuSans-31" x="83.789062"/>
       <use xlink:href="#DejaVuSans-31" x="147.412109"/>
       <use xlink:href="#DejaVuSans-36" x="211.035156"/>
       <use xlink:href="#DejaVuSans-2e" x="274.658203"/>
       <use xlink:href="#DejaVuSans-34" x="306.445312"/>
       <use xlink:href="#DejaVuSans-31" x="370.068359"/>
      </g>
     </g>
    </g>
    <g id="ytick_8">
     <g id="line2d_11">
      <g>
       <use xlink:href="#mec4451ce0f" x="234.036" y="118.32" style="stroke: #000000; stroke-width: 0.8"/>
      </g>
     </g>
     <g id="text_16">
      <!-- 116.38 -->
      <g transform="translate(241.036 122.119219) scale(0.1 -0.1)">
       <defs>
        <path id="DejaVuSans-38" d="M 2034 2216 
Q 1584 2216 1326 1975 
Q 1069 1734 1069 1313 
Q 1069 891 1326 650 
Q 1584 409 2034 409 
Q 2484 409 2743 651 
Q 3003 894 3003 1313 
Q 3003 1734 2745 1975 
Q 2488 2216 2034 2216 
z
M 1403 2484 
Q 997 2584 770 2862 
Q 544 3141 544 3541 
Q 544 4100 942 4425 
Q 1341 4750 2034 4750 
Q 2731 4750 3128 4425 
Q 3525 4100 3525 3541 
Q 3525 3141 3298 2862 
Q 3072 2584 2669 2484 
Q 3125 2378 3379 2068 
Q 3634 1759 3634 1313 
Q 3634 634 3220 271 
Q 2806 -91 2034 -91 
Q 1263 -91 848 271 
Q 434 634 434 1313 
Q 434 1759 690 2068 
Q 947 2378 1403 2484 
z
M 1172 3481 
Q 1172 3119 1398 2916 
Q 1625 2713 2034 2713 
Q 2441 2713 2670 2916 
Q 2900 3119 2900 3481 
Q 2900 3844 2670 4047 
Q 2441 4250 2034 4250 
Q 1625 4250 1398 4047 
Q 1172 3844 1172 3481 
z
" transform="scale(0.015625)"/>
       </defs>
       <use xlink:href="#DejaVuSans-2212"/>
       <use xlink:href="#DejaVuSans-31" x="83.789062"/>
       <use xlink:href="#DejaVuSans-31" x="147.412109"/>
       <use xlink:href="#DejaVuSans-36" x="211.035156"/>
       <use xlink:href="#DejaVuSans-2e" x="274.658203"/>
       <use xlink:href="#DejaVuSans-33" x="306.445312"/>
       <use xlink:href="#DejaVuSans-38" x="370.068359"/>
      </g>
     </g>
    </g>
    <g id="ytick_9">
     <g id="line2d_12">
      <g>
       <use xlink:href="#mec4451ce0f" x="234.036" y="99.84" style="stroke: #000000; stroke-width: 0.8"/>
      </g>
     </g>
     <g id="text_17">
      <!-- 116.35 -->
      <g transform="translate(241.036 103.639219) scale(0.1 -0.1)">
       <use xlink:href="#DejaVuSans-2212"/>
       <use xlink:href="#DejaVuSans-31" x="83.789062"/>
       <use xlink:href="#DejaVuSans-31" x="147.412109"/>
       <use xlink:href="#DejaVuSans-36" x="211.035156"/>
       <use xlink:href="#DejaVuSans-2e" x="274.658203"/>
       <use xlink:href="#DejaVuSans-33" x="306.445312"/>
       <use xlink:href="#DejaVuSans-35" x="370.068359"/>
      </g>
     </g>
    </g>
    <g id="ytick_10">
     <g id="line2d_13">
      <g>
       <use xlink:href="#mec4451ce0f" x="234.036" y="81.36" style="stroke: #000000; stroke-width: 0.8"/>
      </g>
     </g>
     <g id="text_18">
      <!-- 116.32 -->
      <g transform="translate(241.036 85.159219) scale(0.1 -0.1)">
       <use xlink:href="#DejaVuSans-2212"/>
       <use xlink:href="#DejaVuSans-31" x="83.789062"/>
       <use xlink:href="#DejaVuSans-31" x="147.412109"/>
       <use xlink:href="#DejaVuSans-36" x="211.035156"/>
       <use xlink:href="#DejaVuSans-2e" x="274.658203"/>
       <use xlink:href="#DejaVuSans-33" x="306.445312"/>
       <use xlink:href="#DejaVuSans-32" x="370.068359"/>
      </g>
     </g>
    </g>
    <g id="ytick_11">
     <g id="line2d_14">
      <g>
       <use xlink:href="#mec4451ce0f" x="234.036" y="62.88" style="stroke: #000000; stroke-width: 0.8"/>
      </g>
     </g>
     <g id="text_19">
      <!-- 116.29 -->
      <g transform="translate(241.036 66.679219) scale(0.1 -0.1)">
       <defs>
        <path id="DejaVuSans-39" d="M 703 97 
L 703 672 
Q 941 559 1184 500 
Q 1428 441 1663 441 
Q 2288 441 2617 861 
Q 2947 1281 2994 2138 
Q 2813 1869 2534 1725 
Q 2256 1581 1919 1581 
Q 1219 1581 811 2004 
Q 403 2428 403 3163 
Q 403 3881 828 4315 
Q 1253 4750 1959 4750 
Q 2769 4750 3195 4129 
Q 3622 3509 3622 2328 
Q 3622 1225 3098 567 
Q 2575 -91 1691 -91 
Q 1453 -91 1209 -44 
Q 966 3 703 97 
z
M 1959 2075 
Q 2384 2075 2632 2365 
Q 2881 2656 2881 3163 
Q 2881 3666 2632 3958 
Q 2384 4250 1959 4250 
Q 1534 4250 1286 3958 
Q 1038 3666 1038 3163 
Q 1038 2656 1286 2365 
Q 1534 2075 1959 2075 
z
" transform="scale(0.015625)"/>
       </defs>
       <use xlink:href="#DejaVuSans-2212"/>
       <use xlink:href="#DejaVuSans-31" x="83.789062"/>
       <use xlink:href="#DejaVuSans-31" x="147.412109"/>
       <use xlink:href="#DejaVuSans-36" x="211.035156"/>
       <use xlink:href="#DejaVuSans-2e" x="274.658203"/>
       <use xlink:href="#DejaVuSans-32" x="306.445312"/>
       <use xlink:href="#DejaVuSans-39" x="370.068359"/>
      </g>
     </g>
    </g>
    <g id="ytick_12">
     <g id="line2d_15">
      <g>
       <use xlink:href="#mec4451ce0f" x="234.036" y="44.4" style="stroke: #000000; stroke-width: 0.8"/>
      </g>
     </g>
     <g id="text_20">
      <!-- 116.26 -->
      <g transform="translate(241.036 48.199219) scale(0.1 -0.1)">
       <use xlink:href="#DejaVuSans-2212"/>
       <use xlink:href="#DejaVuSans-31" x="83.789062"/>
       <use xlink:href="#DejaVuSans-31" x="147.412109"/>
       <use xlink:href="#DejaVuSans-36" x="211.035156"/>
       <use xlink:href="#DejaVuSans-2e" x="274.658203"/>
       <use xlink:href="#DejaVuSans-32" x="306.445312"/>
       <use xlink:href="#DejaVuSans-36" x="370.068359"/>
      </g>
     </g>
    </g>
    <g id="ytick_13">
     <g id="line2d_16">
      <g>
       <use xlink:href="#mec4451ce0f" x="234.036" y="25.92" style="stroke: #000000; stroke-width: 0.8"/>
      </g>
     </g>
     <g id="text_21">
      <!-- 116.23 -->
      <g transform="translate(241.036 29.719219) scale(0.1 -0.1)">
       <use xlink:href="#DejaVuSans-2212"/>
       <use xlink:href="#DejaVuSans-31" x="83.789062"/>
       <use xlink:href="#DejaVuSans-31" x="147.412109"/>
       <use xlink:href="#DejaVuSans-36" x="211.035156"/>
       <use xlink:href="#DejaVuSans-2e" x="274.658203"/>
       <use xlink:href="#DejaVuSans-32" x="306.445312"/>
       <use xlink:href="#DejaVuSans-33" x="370.068359"/>
      </g>
     </g>
    </g>
    <g id="text_22">
     <!-- log likelihood -->
     <g transform="translate(297.524438 148.704375) rotate(-90) scale(0.12 -0.12)">
      <defs>
       <path id="DejaVuSans-67" d="M 2906 1791 
Q 2906 2416 2648 2759 
Q 2391 3103 1925 3103 
Q 1463 3103 1205 2759 
Q 947 2416 947 1791 
Q 947 1169 1205 825 
Q 1463 481 1925 481 
Q 2391 481 2648 825 
Q 2906 1169 2906 1791 
z
M 3481 434 
Q 3481 -459 3084 -895 
Q 2688 -1331 1869 -1331 
Q 1566 -1331 1297 -1286 
Q 1028 -1241 775 -1147 
L 775 -588 
Q 1028 -725 1275 -790 
Q 1522 -856 1778 -856 
Q 2344 -856 2625 -561 
Q 2906 -266 2906 331 
L 2906 616 
Q 2728 306 2450 153 
Q 2172 0 1784 0 
Q 1141 0 747 490 
Q 353 981 353 1791 
Q 353 2603 747 3093 
Q 1141 3584 1784 3584 
Q 2172 3584 2450 3431 
Q 2728 3278 2906 2969 
L 2906 3500 
L 3481 3500 
L 3481 434 
z
" transform="scale(0.015625)"/>
       <path id="DejaVuSans-6b" d="M 581 4863 
L 1159 4863 
L 1159 1991 
L 2875 3500 
L 3609 3500 
L 1753 1863 
L 3688 0 
L 2938 0 
L 1159 1709 
L 1159 0 
L 581 0 
L 581 4863 
z
" transform="scale(0.015625)"/>
       <path id="DejaVuSans-68" d="M 3513 2113 
L 3513 0 
L 2938 0 
L 2938 2094 
Q 2938 2591 2744 2837 
Q 2550 3084 2163 3084 
Q 1697 3084 1428 2787 
Q 1159 2491 1159 1978 
L 1159 0 
L 581 0 
L 581 4863 
L 1159 4863 
L 1159 2956 
Q 1366 3272 1645 3428 
Q 1925 3584 2291 3584 
Q 2894 3584 3203 3211 
Q 3513 2838 3513 2113 
z
" transform="scale(0.015625)"/>
      </defs>
      <use xlink:href="#DejaVuSans-6c"/>
      <use xlink:href="#DejaVuSans-6f" x="27.783203"/>
      <use xlink:href="#DejaVuSans-67" x="88.964844"/>
      <use xlink:href="#DejaVuSans-20" x="152.441406"/>
      <use xlink:href="#DejaVuSans-6c" x="184.228516"/>
      <use xlink:href="#DejaVuSans-69" x="212.011719"/>
      <use xlink:href="#DejaVuSans-6b" x="239.794922"/>
      <use xlink:href="#DejaVuSans-65" x="294.080078"/>
      <use xlink:href="#DejaVuSans-6c" x="355.603516"/>
      <use xlink:href="#DejaVuSans-69" x="383.386719"/>
      <use xlink:href="#DejaVuSans-68" x="411.169922"/>
      <use xlink:href="#DejaVuSans-6f" x="474.548828"/>
      <use xlink:href="#DejaVuSans-6f" x="535.730469"/>
      <use xlink:href="#DejaVuSans-64" x="596.912109"/>
     </g>
    </g>
    <g id="text_23">
     <!-- 1e3 -->
     <g transform="translate(215.157875 22.92) scale(0.1 -0.1)">
      <use xlink:href="#DejaVuSans-31"/>
      <use xlink:href="#DejaVuSans-65" x="63.623047"/>
      <use xlink:href="#DejaVuSans-33" x="125.146484"/>
     </g>
    </g>
   </g>
   <g id="LineCollection_1"/>
   <g id="patch_8">
    <path d="M 225.72 192.24 
L 229.878 192.24 
L 234.036 192.24 
L 234.036 25.92 
L 229.878 25.92 
L 225.72 25.92 
L 225.72 192.24 
z
" style="fill: none; stroke: #000000; stroke-width: 0.8; stroke-linejoin: miter; stroke-linecap: square"/>
   </g>
  </g>
 </g>
 <defs>
  <clipPath id="p76ed6eaa97">
   <rect x="36" y="25.92" width="178.56" height="166.32"/>
  </clipPath>
  <clipPath id="p598da0dbe0">
   <rect x="225.72" y="25.92" width="8.316" height="166.32"/>
  </clipPath>
 </defs>
</svg>
