<?xml version="1.0" encoding="utf-8" standalone="no"?>
<!DOCTYPE svg PUBLIC "-//W3C//DTD SVG 1.1//EN"
  "http://www.w3.org/Graphics/SVG/1.1/DTD/svg11.dtd">
<svg xmlns:xlink="http://www.w3.org/1999/xlink" width="288pt" height="216pt" viewBox="0 0 288 216" xmlns="http://www.w3.org/2000/svg" version="1.1">
 <metadata>
  <rdf:RDF xmlns:dc="http://purl.org/dc/elements/1.1/" xmlns:cc="http://creativecommons.org/ns#" xmlns:rdf="http://www.w3.org/1999/02/22-rdf-syntax-ns#">
   <cc:Work>
    <dc:type rdf:resource="http://purl.org/dc/dcmitype/StillImage"/>
    <dc:date>2023-07-18T16:55:55.074556</dc:date>
    <dc:format>image/svg+xml</dc:format>
    <dc:creator>
     <cc:Agent>
      <dc:title>Matplotlib v3.7.1, https://matplotlib.org/</dc:title>
     </cc:Agent>
    </dc:creator>
   </cc:Work>
  </rdf:RDF>
 </metadata>
 <defs>
  <style type="text/css">*{stroke-linejoin: round; stroke-linecap: butt}</style>
 </defs>
 <g id="figure_1">
  <g id="patch_1">
   <path d="M 0 216 
L 288 216 
L 288 0 
L 0 0 
z
" style="fill: #ffffff"/>
  </g>
  <g id="axes_1">
   <g id="patch_2">
    <path d="M 36 192.24 
L 214.56 192.24 
L 214.56 25.92 
L 36 25.92 
z
" style="fill: #ffffff"/>
   </g>
   <g id="PathCollection_1">
    <path d="M 36.650518 192.24 
L 36 192.24 
L 36 191.847407 
z
" clip-path="url(#p12c04013ca)" style="fill: #440154"/>
   </g>
   <g id="PathCollection_2">
    <path d="M 37.589693 192.24 
L 36.650518 192.24 
L 36 191.847407 
L 36 191.280607 
z
" clip-path="url(#p12c04013ca)" style="fill: #440154"/>
   </g>
   <g id="PathCollection_3">
    <path d="M 38.528868 192.24 
L 37.589693 192.24 
L 36 191.280607 
L 36 190.713808 
z
" clip-path="url(#p12c04013ca)" style="fill: #440154"/>
   </g>
   <g id="PathCollection_4">
    <path d="M 39.468043 192.24 
L 38.528868 192.24 
L 36 190.713808 
L 36 190.147008 
z
" clip-path="url(#p12c04013ca)" style="fill: #440154"/>
   </g>
   <g id="PathCollection_5">
    <path d="M 40.407218 192.24 
L 39.468043 192.24 
L 36 190.147008 
L 36 189.580208 
z
" clip-path="url(#p12c04013ca)" style="fill: #440154"/>
   </g>
   <g id="PathCollection_6">
    <path d="M 41.346393 192.24 
L 40.407218 192.24 
L 36 189.580208 
L 36 189.013409 
z
" clip-path="url(#p12c04013ca)" style="fill: #440154"/>
   </g>
   <g id="PathCollection_7">
    <path d="M 41.952 192.038689 
L 42.855945 192.24 
L 41.952 192.24 
L 41.346393 192.24 
L 36 189.013409 
L 36 188.446609 
z
" clip-path="url(#p12c04013ca)" style="fill: #440154"/>
   </g>
   <g id="PathCollection_8">
    <path d="M 41.952 191.471889 
L 45.401039 192.24 
L 42.855945 192.24 
L 41.952 192.038689 
L 36 188.446609 
L 36 187.87981 
z
" clip-path="url(#p12c04013ca)" style="fill: #440154"/>
    <path d="M 184.8 192.177177 
L 190.752 192.099206 
L 196.704 192.022978 
L 202.656 191.948442 
L 208.608 191.875544 
L 214.56 191.804232 
L 214.56 192.24 
L 208.608 192.24 
L 202.656 192.24 
L 196.704 192.24 
L 190.752 192.24 
L 184.8 192.24 
L 180.112059 192.24 
z
" clip-path="url(#p12c04013ca)" style="fill: #440154"/>
   </g>
   <g id="PathCollection_9">
    <path d="M 41.952 190.90509 
L 47.904 192.230617 
L 47.999638 192.24 
L 47.904 192.24 
L 45.401039 192.24 
L 41.952 191.471889 
L 36 187.87981 
L 36 187.31301 
z
" clip-path="url(#p12c04013ca)" style="fill: #440154"/>
    <path d="M 143.136 192.208081 
L 149.088 192.117046 
L 155.04 192.027866 
L 160.992 191.940584 
L 166.944 191.855212 
L 172.896 191.771739 
L 178.848 191.69014 
L 184.8 191.610377 
L 190.752 191.532406 
L 196.704 191.456178 
L 202.656 191.381642 
L 208.608 191.308744 
L 214.56 191.237432 
L 214.56 191.804232 
L 208.608 191.875544 
L 202.656 191.948442 
L 196.704 192.022978 
L 190.752 192.099206 
L 184.8 192.177177 
L 180.112059 192.24 
L 178.848 192.24 
L 172.896 192.24 
L 166.944 192.24 
L 160.992 192.24 
L 155.04 192.24 
L 149.088 192.24 
L 143.136 192.24 
L 141.088795 192.24 
z
" clip-path="url(#p12c04013ca)" style="fill: #440154"/>
   </g>
   <g id="PathCollection_10">
    <path d="M 41.952 190.33829 
L 47.904 191.663817 
L 53.776825 192.24 
L 47.999638 192.24 
L 47.904 192.230617 
L 41.952 190.90509 
L 36 187.31301 
L 36 186.74621 
z
" clip-path="url(#p12c04013ca)" style="fill: #440154"/>
    <path d="M 107.424 192.215066 
L 113.376 192.118266 
L 119.328 192.021056 
L 125.28 191.924278 
L 131.232 191.828496 
L 137.184 191.734082 
L 143.136 191.641281 
L 149.088 191.550247 
L 155.04 191.461066 
L 160.992 191.373784 
L 166.944 191.288412 
L 172.896 191.20494 
L 178.848 191.12334 
L 184.8 191.043577 
L 190.752 190.965606 
L 196.704 190.889379 
L 202.656 190.814842 
L 208.608 190.741945 
L 214.56 190.670632 
L 214.56 191.237432 
L 208.608 191.308744 
L 202.656 191.381642 
L 196.704 191.456178 
L 190.752 191.532406 
L 184.8 191.610377 
L 178.848 191.69014 
L 172.896 191.771739 
L 166.944 191.855212 
L 160.992 191.940584 
L 155.04 192.027866 
L 149.088 192.117046 
L 143.136 192.208081 
L 141.088795 192.24 
L 137.184 192.24 
L 131.232 192.24 
L 125.28 192.24 
L 119.328 192.24 
L 113.376 192.24 
L 107.424 192.24 
L 105.864075 192.24 
z
" clip-path="url(#p12c04013ca)" style="fill: #440154"/>
   </g>
   <g id="PathCollection_11">
    <path d="M 36 186.696 
L 36 185.428545 
L 36.855978 186.696 
L 41.952 189.77149 
L 47.904 191.097018 
L 53.856 191.680968 
L 59.808 191.947111 
L 65.76 192.055412 
L 71.712 192.077893 
L 77.664 192.050946 
L 83.616 191.994508 
L 89.568 191.920174 
L 95.52 191.834994 
L 101.472 191.743403 
L 107.424 191.648266 
L 113.376 191.551466 
L 119.328 191.454257 
L 125.28 191.357479 
L 131.232 191.261696 
L 137.184 191.167282 
L 143.136 191.074482 
L 149.088 190.983447 
L 155.04 190.894267 
L 160.992 190.806985 
L 166.944 190.721613 
L 172.896 190.63814 
L 178.848 190.556541 
L 184.8 190.476778 
L 190.752 190.398807 
L 196.704 190.322579 
L 202.656 190.248043 
L 208.608 190.175145 
L 214.56 190.103833 
L 214.56 190.670632 
L 208.608 190.741945 
L 202.656 190.814842 
L 196.704 190.889379 
L 190.752 190.965606 
L 184.8 191.043577 
L 178.848 191.12334 
L 172.896 191.20494 
L 166.944 191.288412 
L 160.992 191.373784 
L 155.04 191.461066 
L 149.088 191.550247 
L 143.136 191.641281 
L 137.184 191.734082 
L 131.232 191.828496 
L 125.28 191.924278 
L 119.328 192.021056 
L 113.376 192.118266 
L 107.424 192.215066 
L 105.864075 192.24 
L 101.472 192.24 
L 95.52 192.24 
L 89.568 192.24 
L 83.616 192.24 
L 77.664 192.24 
L 71.712 192.24 
L 65.76 192.24 
L 59.808 192.24 
L 53.856 192.24 
L 53.776825 192.24 
L 47.904 191.663817 
L 41.952 190.33829 
L 36 186.74621 
z
" clip-path="url(#p12c04013ca)" style="fill: #440154"/>
   </g>
   <g id="PathCollection_12">
    <path d="M 36.855978 186.696 
L 36 185.428545 
L 36 184.037898 
L 37.795153 186.696 
L 41.952 189.204691 
L 47.904 190.530218 
L 53.856 191.114169 
L 59.808 191.380311 
L 65.76 191.488612 
L 71.712 191.511094 
L 77.664 191.484147 
L 83.616 191.427709 
L 89.568 191.353374 
L 95.52 191.268194 
L 101.472 191.176604 
L 107.424 191.081467 
L 113.376 190.984666 
L 119.328 190.887457 
L 125.28 190.790679 
L 131.232 190.694896 
L 137.184 190.600483 
L 143.136 190.507682 
L 149.088 190.416647 
L 155.04 190.327467 
L 160.992 190.240185 
L 166.944 190.154813 
L 172.896 190.07134 
L 178.848 189.989741 
L 184.8 189.909978 
L 190.752 189.832007 
L 196.704 189.755779 
L 202.656 189.681243 
L 208.608 189.608346 
L 214.56 189.537033 
L 214.56 190.103833 
L 208.608 190.175145 
L 202.656 190.248043 
L 196.704 190.322579 
L 190.752 190.398807 
L 184.8 190.476778 
L 178.848 190.556541 
L 172.896 190.63814 
L 166.944 190.721613 
L 160.992 190.806985 
L 155.04 190.894267 
L 149.088 190.983447 
L 143.136 191.074482 
L 137.184 191.167282 
L 131.232 191.261696 
L 125.28 191.357479 
L 119.328 191.454257 
L 113.376 191.551466 
L 107.424 191.648266 
L 101.472 191.743403 
L 95.52 191.834994 
L 89.568 191.920174 
L 83.616 191.994508 
L 77.664 192.050946 
L 71.712 192.077893 
L 65.76 192.055412 
L 59.808 191.947111 
L 53.856 191.680968 
L 47.904 191.097018 
L 41.952 189.77149 
z
" clip-path="url(#p12c04013ca)" style="fill: #440154"/>
   </g>
   <g id="PathCollection_13">
    <path d="M 37.795153 186.696 
L 36 184.037898 
L 36 182.647251 
L 38.734328 186.696 
L 41.952 188.637891 
L 47.904 189.963418 
L 53.856 190.547369 
L 59.808 190.813511 
L 65.76 190.921812 
L 71.712 190.944294 
L 77.664 190.917347 
L 83.616 190.860909 
L 89.568 190.786575 
L 95.52 190.701394 
L 101.472 190.609804 
L 107.424 190.514667 
L 113.376 190.417867 
L 119.328 190.320657 
L 125.28 190.22388 
L 131.232 190.128097 
L 137.184 190.033683 
L 143.136 189.940882 
L 149.088 189.849848 
L 155.04 189.760667 
L 160.992 189.673385 
L 166.944 189.588013 
L 172.896 189.504541 
L 178.848 189.422942 
L 184.8 189.343179 
L 190.752 189.265208 
L 196.704 189.18898 
L 202.656 189.114444 
L 208.608 189.041546 
L 214.56 188.970233 
L 214.56 189.537033 
L 208.608 189.608346 
L 202.656 189.681243 
L 196.704 189.755779 
L 190.752 189.832007 
L 184.8 189.909978 
L 178.848 189.989741 
L 172.896 190.07134 
L 166.944 190.154813 
L 160.992 190.240185 
L 155.04 190.327467 
L 149.088 190.416647 
L 143.136 190.507682 
L 137.184 190.600483 
L 131.232 190.694896 
L 125.28 190.790679 
L 119.328 190.887457 
L 113.376 190.984666 
L 107.424 191.081467 
L 101.472 191.176604 
L 95.52 191.268194 
L 89.568 191.353374 
L 83.616 191.427709 
L 77.664 191.484147 
L 71.712 191.511094 
L 65.76 191.488612 
L 59.808 191.380311 
L 53.856 191.114169 
L 47.904 190.530218 
L 41.952 189.204691 
z
" clip-path="url(#p12c04013ca)" style="fill: #440154"/>
   </g>
   <g id="PathCollection_14">
    <path d="M 38.734328 186.696 
L 36 182.647251 
L 36 181.256604 
L 39.673503 186.696 
L 41.952 188.071092 
L 47.904 189.396619 
L 53.856 189.980569 
L 59.808 190.246712 
L 65.76 190.355013 
L 71.712 190.377495 
L 77.664 190.350547 
L 83.616 190.294109 
L 89.568 190.219775 
L 95.52 190.134595 
L 101.472 190.043005 
L 107.424 189.947868 
L 113.376 189.851067 
L 119.328 189.753858 
L 125.28 189.65708 
L 131.232 189.561297 
L 137.184 189.466883 
L 143.136 189.374083 
L 149.088 189.283048 
L 155.04 189.193868 
L 160.992 189.106586 
L 166.944 189.021214 
L 172.896 188.937741 
L 178.848 188.856142 
L 184.8 188.776379 
L 190.752 188.698408 
L 196.704 188.62218 
L 202.656 188.547644 
L 208.608 188.474746 
L 214.56 188.403434 
L 214.56 188.970233 
L 208.608 189.041546 
L 202.656 189.114444 
L 196.704 189.18898 
L 190.752 189.265208 
L 184.8 189.343179 
L 178.848 189.422942 
L 172.896 189.504541 
L 166.944 189.588013 
L 160.992 189.673385 
L 155.04 189.760667 
L 149.088 189.849848 
L 143.136 189.940882 
L 137.184 190.033683 
L 131.232 190.128097 
L 125.28 190.22388 
L 119.328 190.320657 
L 113.376 190.417867 
L 107.424 190.514667 
L 101.472 190.609804 
L 95.52 190.701394 
L 89.568 190.786575 
L 83.616 190.860909 
L 77.664 190.917347 
L 71.712 190.944294 
L 65.76 190.921812 
L 59.808 190.813511 
L 53.856 190.547369 
L 47.904 189.963418 
L 41.952 188.637891 
z
" clip-path="url(#p12c04013ca)" style="fill: #440154"/>
   </g>
   <g id="PathCollection_15">
    <path d="M 39.673503 186.696 
L 36 181.256604 
L 36 181.152 
L 36 178.612217 
L 36.86853 181.152 
L 40.612677 186.696 
L 41.952 187.504292 
L 47.904 188.829819 
L 53.856 189.41377 
L 59.808 189.679912 
L 65.76 189.788213 
L 71.712 189.810695 
L 77.664 189.783748 
L 83.616 189.72731 
L 89.568 189.652975 
L 95.52 189.567795 
L 101.472 189.476205 
L 107.424 189.381068 
L 113.376 189.284268 
L 119.328 189.187058 
L 125.28 189.09028 
L 131.232 188.994497 
L 137.184 188.900084 
L 143.136 188.807283 
L 149.088 188.716248 
L 155.04 188.627068 
L 160.992 188.539786 
L 166.944 188.454414 
L 172.896 188.370942 
L 178.848 188.289342 
L 184.8 188.209579 
L 190.752 188.131608 
L 196.704 188.05538 
L 202.656 187.980844 
L 208.608 187.907947 
L 214.56 187.836634 
L 214.56 188.403434 
L 208.608 188.474746 
L 202.656 188.547644 
L 196.704 188.62218 
L 190.752 188.698408 
L 184.8 188.776379 
L 178.848 188.856142 
L 172.896 188.937741 
L 166.944 189.021214 
L 160.992 189.106586 
L 155.04 189.193868 
L 149.088 189.283048 
L 143.136 189.374083 
L 137.184 189.466883 
L 131.232 189.561297 
L 125.28 189.65708 
L 119.328 189.753858 
L 113.376 189.851067 
L 107.424 189.947868 
L 101.472 190.043005 
L 95.52 190.134595 
L 89.568 190.219775 
L 83.616 190.294109 
L 77.664 190.350547 
L 71.712 190.377495 
L 65.76 190.355013 
L 59.808 190.246712 
L 53.856 189.980569 
L 47.904 189.396619 
L 41.952 188.071092 
z
" clip-path="url(#p12c04013ca)" style="fill: #440154"/>
   </g>
   <g id="PathCollection_16">
    <path d="M 40.612677 186.696 
L 36.86853 181.152 
L 36 178.612217 
L 36 175.865852 
L 37.807705 181.152 
L 41.551852 186.696 
L 41.952 186.937492 
L 47.904 188.26302 
L 53.856 188.84697 
L 59.808 189.113112 
L 65.76 189.221413 
L 71.712 189.243895 
L 77.664 189.216948 
L 83.616 189.16051 
L 89.568 189.086176 
L 95.52 189.000996 
L 101.472 188.909405 
L 107.424 188.814268 
L 113.376 188.717468 
L 119.328 188.620258 
L 125.28 188.523481 
L 131.232 188.427698 
L 137.184 188.333284 
L 143.136 188.240484 
L 149.088 188.149449 
L 155.04 188.060269 
L 160.992 187.972986 
L 166.944 187.887614 
L 172.896 187.804142 
L 178.848 187.722543 
L 184.8 187.64278 
L 190.752 187.564809 
L 196.704 187.488581 
L 202.656 187.414045 
L 208.608 187.341147 
L 214.56 187.269834 
L 214.56 187.836634 
L 208.608 187.907947 
L 202.656 187.980844 
L 196.704 188.05538 
L 190.752 188.131608 
L 184.8 188.209579 
L 178.848 188.289342 
L 172.896 188.370942 
L 166.944 188.454414 
L 160.992 188.539786 
L 155.04 188.627068 
L 149.088 188.716248 
L 143.136 188.807283 
L 137.184 188.900084 
L 131.232 188.994497 
L 125.28 189.09028 
L 119.328 189.187058 
L 113.376 189.284268 
L 107.424 189.381068 
L 101.472 189.476205 
L 95.52 189.567795 
L 89.568 189.652975 
L 83.616 189.72731 
L 77.664 189.783748 
L 71.712 189.810695 
L 65.76 189.788213 
L 59.808 189.679912 
L 53.856 189.41377 
L 47.904 188.829819 
L 41.952 187.504292 
z
" clip-path="url(#p12c04013ca)" style="fill: #471365"/>
   </g>
   <g id="PathCollection_17">
    <path d="M 41.551852 186.696 
L 37.807705 181.152 
L 36 175.865852 
L 36 175.608 
L 36 171.198229 
L 36.850997 175.608 
L 38.74688 181.152 
L 41.952 185.897856 
L 43.412724 186.696 
L 47.904 187.69622 
L 53.856 188.28017 
L 59.808 188.546313 
L 65.76 188.654614 
L 71.712 188.677096 
L 77.664 188.650148 
L 83.616 188.593711 
L 89.568 188.519376 
L 95.52 188.434196 
L 101.472 188.342606 
L 107.424 188.247469 
L 113.376 188.150668 
L 119.328 188.053459 
L 125.28 187.956681 
L 131.232 187.860898 
L 137.184 187.766484 
L 143.136 187.673684 
L 149.088 187.582649 
L 155.04 187.493469 
L 160.992 187.406187 
L 166.944 187.320815 
L 172.896 187.237342 
L 178.848 187.155743 
L 184.8 187.07598 
L 190.752 186.998009 
L 196.704 186.921781 
L 202.656 186.847245 
L 208.608 186.774347 
L 214.56 186.703035 
L 214.56 187.269834 
L 208.608 187.341147 
L 202.656 187.414045 
L 196.704 187.488581 
L 190.752 187.564809 
L 184.8 187.64278 
L 178.848 187.722543 
L 172.896 187.804142 
L 166.944 187.887614 
L 160.992 187.972986 
L 155.04 188.060269 
L 149.088 188.149449 
L 143.136 188.240484 
L 137.184 188.333284 
L 131.232 188.427698 
L 125.28 188.523481 
L 119.328 188.620258 
L 113.376 188.717468 
L 107.424 188.814268 
L 101.472 188.909405 
L 95.52 189.000996 
L 89.568 189.086176 
L 83.616 189.16051 
L 77.664 189.216948 
L 71.712 189.243895 
L 65.76 189.221413 
L 59.808 189.113112 
L 53.856 188.84697 
L 47.904 188.26302 
L 41.952 186.937492 
z
" clip-path="url(#p12c04013ca)" style="fill: #482878"/>
   </g>
   <g id="PathCollection_18">
    <path d="M 38.74688 181.152 
L 36.850997 175.608 
L 36 171.198229 
L 36 170.064 
L 36 164.52 
L 36 163.375043 
L 36.080905 164.52 
L 36.720292 170.064 
L 37.790172 175.608 
L 39.686055 181.152 
L 41.952 184.507209 
L 45.957818 186.696 
L 47.904 187.12942 
L 53.856 187.713371 
L 59.808 187.979513 
L 65.76 188.087814 
L 71.712 188.110296 
L 77.664 188.083349 
L 83.616 188.026911 
L 89.568 187.952577 
L 95.52 187.867396 
L 101.472 187.775806 
L 107.424 187.680669 
L 113.376 187.583869 
L 119.328 187.486659 
L 125.28 187.389881 
L 131.232 187.294098 
L 137.184 187.199685 
L 143.136 187.106884 
L 149.088 187.015849 
L 155.04 186.926669 
L 160.992 186.839387 
L 166.944 186.754015 
L 171.080767 186.696 
L 172.896 186.63354 
L 178.848 186.433336 
L 184.8 186.237637 
L 190.752 186.046334 
L 196.704 185.859309 
L 202.656 185.676434 
L 208.608 185.497579 
L 214.56 185.322613 
L 214.56 186.696 
L 214.56 186.703035 
L 208.608 186.774347 
L 202.656 186.847245 
L 196.704 186.921781 
L 190.752 186.998009 
L 184.8 187.07598 
L 178.848 187.155743 
L 172.896 187.237342 
L 166.944 187.320815 
L 160.992 187.406187 
L 155.04 187.493469 
L 149.088 187.582649 
L 143.136 187.673684 
L 137.184 187.766484 
L 131.232 187.860898 
L 125.28 187.956681 
L 119.328 188.053459 
L 113.376 188.150668 
L 107.424 188.247469 
L 101.472 188.342606 
L 95.52 188.434196 
L 89.568 188.519376 
L 83.616 188.593711 
L 77.664 188.650148 
L 71.712 188.677096 
L 65.76 188.654614 
L 59.808 188.546313 
L 53.856 188.28017 
L 47.904 187.69622 
L 43.412724 186.696 
L 41.952 185.897856 
z
" clip-path="url(#p12c04013ca)" style="fill: #433d84"/>
    <path d="M 36 64.728 
L 36 59.184 
L 36 53.64 
L 36 48.096 
L 36 42.552 
L 36 37.008 
L 36 31.464 
L 36 25.92 
L 36.641384 25.92 
L 36.5602 31.464 
L 36.478068 37.008 
L 36.395046 42.552 
L 36.311214 48.096 
L 36.226675 53.64 
L 36.141564 59.184 
L 36.056054 64.728 
L 36 68.354954 
z
" clip-path="url(#p12c04013ca)" style="fill: #433d84"/>
   </g>
   <g id="PathCollection_19">
    <path d="M 39.686055 181.152 
L 37.790172 175.608 
L 36.720292 170.064 
L 36.080905 164.52 
L 36 163.375043 
L 36 158.976 
L 36 153.432 
L 36 147.888 
L 36 142.344 
L 36 136.8 
L 36 131.256 
L 36 125.712 
L 36 120.168 
L 36 114.624 
L 36 109.08 
L 36 103.536 
L 36 97.992 
L 36 92.448 
L 36 86.904 
L 36 81.36 
L 36 75.816 
L 36 70.272 
L 36 68.354954 
L 36.056054 64.728 
L 36.141564 59.184 
L 36.226675 53.64 
L 36.311214 48.096 
L 36.395046 42.552 
L 36.478068 37.008 
L 36.5602 31.464 
L 36.641384 25.92 
L 37.580559 25.92 
L 37.499375 31.464 
L 37.417243 37.008 
L 37.334221 42.552 
L 37.250389 48.096 
L 37.16585 53.64 
L 37.080739 59.184 
L 36.995229 64.728 
L 36.909547 70.272 
L 36.82398 75.816 
L 36.738898 81.36 
L 36.654779 86.904 
L 36.572236 92.448 
L 36.492066 97.992 
L 36.415308 103.536 
L 36.343326 109.08 
L 36.277928 114.624 
L 36.221539 120.168 
L 36.177448 125.712 
L 36.150195 131.256 
L 36.146152 136.8 
L 36.174468 142.344 
L 36.248622 147.888 
L 36.389107 153.432 
L 36.628329 158.976 
L 37.02008 164.52 
L 37.659467 170.064 
L 38.729347 175.608 
L 40.62523 181.152 
L 41.952 183.116563 
L 47.904 186.368753 
L 49.263489 186.696 
L 53.856 187.146571 
L 59.808 187.412713 
L 65.76 187.521014 
L 71.712 187.543496 
L 77.664 187.516549 
L 83.616 187.460111 
L 89.568 187.385777 
L 95.52 187.300597 
L 101.472 187.209006 
L 107.424 187.113869 
L 113.376 187.017069 
L 119.328 186.91986 
L 125.28 186.823082 
L 131.232 186.727299 
L 133.205133 186.696 
L 137.184 186.541147 
L 143.136 186.313461 
L 149.088 186.090106 
L 155.04 185.871302 
L 160.992 185.657155 
L 166.944 185.447694 
L 172.896 185.242894 
L 178.848 185.042689 
L 184.8 184.84699 
L 190.752 184.655688 
L 196.704 184.468662 
L 202.656 184.285787 
L 208.608 184.106932 
L 214.56 183.931967 
L 214.56 185.322613 
L 208.608 185.497579 
L 202.656 185.676434 
L 196.704 185.859309 
L 190.752 186.046334 
L 184.8 186.237637 
L 178.848 186.433336 
L 172.896 186.63354 
L 171.080767 186.696 
L 166.944 186.754015 
L 160.992 186.839387 
L 155.04 186.926669 
L 149.088 187.015849 
L 143.136 187.106884 
L 137.184 187.199685 
L 131.232 187.294098 
L 125.28 187.389881 
L 119.328 187.486659 
L 113.376 187.583869 
L 107.424 187.680669 
L 101.472 187.775806 
L 95.52 187.867396 
L 89.568 187.952577 
L 83.616 188.026911 
L 77.664 188.083349 
L 71.712 188.110296 
L 65.76 188.087814 
L 59.808 187.979513 
L 53.856 187.713371 
L 47.904 187.12942 
L 45.957818 186.696 
L 41.952 184.507209 
z
" clip-path="url(#p12c04013ca)" style="fill: #3c508b"/>
   </g>
   <g id="PathCollection_20">
    <path d="M 40.62523 181.152 
L 38.729347 175.608 
L 37.659467 170.064 
L 37.02008 164.52 
L 36.628329 158.976 
L 36.389107 153.432 
L 36.248622 147.888 
L 36.174468 142.344 
L 36.146152 136.8 
L 36.150195 131.256 
L 36.177448 125.712 
L 36.221539 120.168 
L 36.277928 114.624 
L 36.343326 109.08 
L 36.415308 103.536 
L 36.492066 97.992 
L 36.572236 92.448 
L 36.654779 86.904 
L 36.738898 81.36 
L 36.82398 75.816 
L 36.909547 70.272 
L 36.995229 64.728 
L 37.080739 59.184 
L 37.16585 53.64 
L 37.250389 48.096 
L 37.334221 42.552 
L 37.417243 37.008 
L 37.499375 31.464 
L 37.580559 25.92 
L 38.519734 25.92 
L 38.43855 31.464 
L 38.356418 37.008 
L 38.273396 42.552 
L 38.189564 48.096 
L 38.105025 53.64 
L 38.019913 59.184 
L 37.934404 64.728 
L 37.848722 70.272 
L 37.763155 75.816 
L 37.678073 81.36 
L 37.593953 86.904 
L 37.51141 92.448 
L 37.431241 97.992 
L 37.354483 103.536 
L 37.282501 109.08 
L 37.217103 114.624 
L 37.160714 120.168 
L 37.116623 125.712 
L 37.08937 131.256 
L 37.085327 136.8 
L 37.113643 142.344 
L 37.187797 147.888 
L 37.328282 153.432 
L 37.567504 158.976 
L 37.959255 164.52 
L 38.598642 170.064 
L 39.668522 175.608 
L 41.564405 181.152 
L 41.952 181.725916 
L 47.904 184.978106 
L 53.856 186.410833 
L 56.455331 186.696 
L 59.808 186.845914 
L 65.76 186.954215 
L 71.712 186.976697 
L 77.664 186.949749 
L 83.616 186.893312 
L 89.568 186.818977 
L 95.52 186.733797 
L 97.976242 186.696 
L 101.472 186.564018 
L 107.424 186.330599 
L 113.376 186.093098 
L 119.328 185.854594 
L 125.28 185.617149 
L 131.232 185.382145 
L 137.184 185.150501 
L 143.136 184.922814 
L 149.088 184.69946 
L 155.04 184.480655 
L 160.992 184.266508 
L 166.944 184.057047 
L 172.896 183.852247 
L 178.848 183.652042 
L 184.8 183.456343 
L 190.752 183.265041 
L 196.704 183.078016 
L 202.656 182.895141 
L 208.608 182.716286 
L 214.56 182.54132 
L 214.56 183.931967 
L 208.608 184.106932 
L 202.656 184.285787 
L 196.704 184.468662 
L 190.752 184.655688 
L 184.8 184.84699 
L 178.848 185.042689 
L 172.896 185.242894 
L 166.944 185.447694 
L 160.992 185.657155 
L 155.04 185.871302 
L 149.088 186.090106 
L 143.136 186.313461 
L 137.184 186.541147 
L 133.205133 186.696 
L 131.232 186.727299 
L 125.28 186.823082 
L 119.328 186.91986 
L 113.376 187.017069 
L 107.424 187.113869 
L 101.472 187.209006 
L 95.52 187.300597 
L 89.568 187.385777 
L 83.616 187.460111 
L 77.664 187.516549 
L 71.712 187.543496 
L 65.76 187.521014 
L 59.808 187.412713 
L 53.856 187.146571 
L 49.263489 186.696 
L 47.904 186.368753 
L 41.952 183.116563 
z
" clip-path="url(#p12c04013ca)" style="fill: #33628d"/>
   </g>
   <g id="PathCollection_21">
    <path d="M 41.564405 181.152 
L 39.668522 175.608 
L 38.598642 170.064 
L 37.959255 164.52 
L 37.567504 158.976 
L 37.328282 153.432 
L 37.187797 147.888 
L 37.113643 142.344 
L 37.085327 136.8 
L 37.08937 131.256 
L 37.116623 125.712 
L 37.160714 120.168 
L 37.217103 114.624 
L 37.282501 109.08 
L 37.354483 103.536 
L 37.431241 97.992 
L 37.51141 92.448 
L 37.593953 86.904 
L 37.678073 81.36 
L 37.763155 75.816 
L 37.848722 70.272 
L 37.934404 64.728 
L 38.019913 59.184 
L 38.105025 53.64 
L 38.189564 48.096 
L 38.273396 42.552 
L 38.356418 37.008 
L 38.43855 31.464 
L 38.519734 25.92 
L 39.458909 25.92 
L 39.377725 31.464 
L 39.295592 37.008 
L 39.212571 42.552 
L 39.128739 48.096 
L 39.0442 53.64 
L 38.959088 59.184 
L 38.873579 64.728 
L 38.787897 70.272 
L 38.70233 75.816 
L 38.617248 81.36 
L 38.533128 86.904 
L 38.450585 92.448 
L 38.370416 97.992 
L 38.293658 103.536 
L 38.221676 109.08 
L 38.156278 114.624 
L 38.099889 120.168 
L 38.055798 125.712 
L 38.028545 131.256 
L 38.024502 136.8 
L 38.052818 142.344 
L 38.126972 147.888 
L 38.267457 153.432 
L 38.506679 158.976 
L 38.89843 164.52 
L 39.537816 170.064 
L 40.607697 175.608 
L 41.952 179.539053 
L 43.446741 181.152 
L 47.904 183.587459 
L 53.856 185.020186 
L 59.808 185.673168 
L 65.76 185.938885 
L 71.712 185.994045 
L 77.664 185.927929 
L 83.616 185.789459 
L 89.568 185.607079 
L 95.52 185.398089 
L 101.472 185.173371 
L 107.424 184.939952 
L 113.376 184.702452 
L 119.328 184.463948 
L 125.28 184.226502 
L 131.232 183.991499 
L 137.184 183.759854 
L 143.136 183.532167 
L 149.088 183.308813 
L 155.04 183.090008 
L 160.992 182.875861 
L 166.944 182.666401 
L 172.896 182.4616 
L 178.848 182.261396 
L 184.8 182.065697 
L 190.752 181.874394 
L 196.704 181.687369 
L 202.656 181.504494 
L 208.608 181.325639 
L 214.514866 181.152 
L 214.56 181.14938 
L 214.56 181.152 
L 214.56 182.54132 
L 208.608 182.716286 
L 202.656 182.895141 
L 196.704 183.078016 
L 190.752 183.265041 
L 184.8 183.456343 
L 178.848 183.652042 
L 172.896 183.852247 
L 166.944 184.057047 
L 160.992 184.266508 
L 155.04 184.480655 
L 149.088 184.69946 
L 143.136 184.922814 
L 137.184 185.150501 
L 131.232 185.382145 
L 125.28 185.617149 
L 119.328 185.854594 
L 113.376 186.093098 
L 107.424 186.330599 
L 101.472 186.564018 
L 97.976242 186.696 
L 95.52 186.733797 
L 89.568 186.818977 
L 83.616 186.893312 
L 77.664 186.949749 
L 71.712 186.976697 
L 65.76 186.954215 
L 59.808 186.845914 
L 56.455331 186.696 
L 53.856 186.410833 
L 47.904 184.978106 
L 41.952 181.725916 
z
" clip-path="url(#p12c04013ca)" style="fill: #2c728e"/>
   </g>
   <g id="PathCollection_22">
    <path d="M 40.607697 175.608 
L 39.537816 170.064 
L 38.89843 164.52 
L 38.506679 158.976 
L 38.267457 153.432 
L 38.126972 147.888 
L 38.052818 142.344 
L 38.024502 136.8 
L 38.028545 131.256 
L 38.055798 125.712 
L 38.099889 120.168 
L 38.156278 114.624 
L 38.221676 109.08 
L 38.293658 103.536 
L 38.370416 97.992 
L 38.450585 92.448 
L 38.533128 86.904 
L 38.617248 81.36 
L 38.70233 75.816 
L 38.787897 70.272 
L 38.873579 64.728 
L 38.959088 59.184 
L 39.0442 53.64 
L 39.128739 48.096 
L 39.212571 42.552 
L 39.295592 37.008 
L 39.377725 31.464 
L 39.458909 25.92 
L 40.398084 25.92 
L 40.3169 31.464 
L 40.234767 37.008 
L 40.151746 42.552 
L 40.067914 48.096 
L 39.983375 53.64 
L 39.898263 59.184 
L 39.812754 64.728 
L 39.727072 70.272 
L 39.641505 75.816 
L 39.556423 81.36 
L 39.472303 86.904 
L 39.38976 92.448 
L 39.309591 97.992 
L 39.232833 103.536 
L 39.160851 109.08 
L 39.095453 114.624 
L 39.039064 120.168 
L 38.994973 125.712 
L 38.96772 131.256 
L 38.963677 136.8 
L 38.991993 142.344 
L 39.066147 147.888 
L 39.206632 153.432 
L 39.445854 158.976 
L 39.837605 164.52 
L 40.476991 170.064 
L 41.546872 175.608 
L 41.952 176.792688 
L 45.991835 181.152 
L 47.904 182.196813 
L 53.856 183.629539 
L 59.808 184.282521 
L 65.76 184.548238 
L 71.712 184.603398 
L 77.664 184.537283 
L 83.616 184.398812 
L 89.568 184.216432 
L 95.52 184.007442 
L 101.472 183.782724 
L 107.424 183.549305 
L 113.376 183.311805 
L 119.328 183.073301 
L 125.28 182.835856 
L 131.232 182.600852 
L 137.184 182.369207 
L 143.136 182.141521 
L 149.088 181.918166 
L 155.04 181.699362 
L 160.992 181.485215 
L 166.944 181.275754 
L 170.540592 181.152 
L 172.896 180.991943 
L 178.848 180.596562 
L 184.8 180.210079 
L 190.752 179.83228 
L 196.704 179.462926 
L 202.656 179.101769 
L 208.608 178.748552 
L 214.56 178.403015 
L 214.56 181.14938 
L 214.514866 181.152 
L 208.608 181.325639 
L 202.656 181.504494 
L 196.704 181.687369 
L 190.752 181.874394 
L 184.8 182.065697 
L 178.848 182.261396 
L 172.896 182.4616 
L 166.944 182.666401 
L 160.992 182.875861 
L 155.04 183.090008 
L 149.088 183.308813 
L 143.136 183.532167 
L 137.184 183.759854 
L 131.232 183.991499 
L 125.28 184.226502 
L 119.328 184.463948 
L 113.376 184.702452 
L 107.424 184.939952 
L 101.472 185.173371 
L 95.52 185.398089 
L 89.568 185.607079 
L 83.616 185.789459 
L 77.664 185.927929 
L 71.712 185.994045 
L 65.76 185.938885 
L 59.808 185.673168 
L 53.856 185.020186 
L 47.904 183.587459 
L 43.446741 181.152 
L 41.952 179.539053 
z
" clip-path="url(#p12c04013ca)" style="fill: #26828e"/>
   </g>
   <g id="PathCollection_23">
    <path d="M 41.546872 175.608 
L 40.476991 170.064 
L 39.837605 164.52 
L 39.445854 158.976 
L 39.206632 153.432 
L 39.066147 147.888 
L 38.991993 142.344 
L 38.963677 136.8 
L 38.96772 131.256 
L 38.994973 125.712 
L 39.039064 120.168 
L 39.095453 114.624 
L 39.160851 109.08 
L 39.232833 103.536 
L 39.309591 97.992 
L 39.38976 92.448 
L 39.472303 86.904 
L 39.556423 81.36 
L 39.641505 75.816 
L 39.727072 70.272 
L 39.812754 64.728 
L 39.898263 59.184 
L 39.983375 53.64 
L 40.067914 48.096 
L 40.151746 42.552 
L 40.234767 37.008 
L 40.3169 31.464 
L 40.398084 25.92 
L 41.337259 25.92 
L 41.256075 31.464 
L 41.173942 37.008 
L 41.090921 42.552 
L 41.007089 48.096 
L 40.92255 53.64 
L 40.837438 59.184 
L 40.751929 64.728 
L 40.666247 70.272 
L 40.58068 75.816 
L 40.495598 81.36 
L 40.411478 86.904 
L 40.328935 92.448 
L 40.248766 97.992 
L 40.172008 103.536 
L 40.100026 109.08 
L 40.034628 114.624 
L 39.978239 120.168 
L 39.934148 125.712 
L 39.906895 131.256 
L 39.902852 136.8 
L 39.931168 142.344 
L 40.005322 147.888 
L 40.145807 153.432 
L 40.385029 158.976 
L 40.77678 164.52 
L 41.416166 170.064 
L 41.952 172.840629 
L 43.399228 175.608 
L 47.904 180.469018 
L 49.340704 181.152 
L 53.856 182.238893 
L 59.808 182.891874 
L 65.76 183.157592 
L 71.712 183.212751 
L 77.664 183.146636 
L 83.616 183.008165 
L 89.568 182.825786 
L 95.52 182.616795 
L 101.472 182.392078 
L 107.424 182.158659 
L 113.376 181.921158 
L 119.328 181.682654 
L 125.28 181.445209 
L 131.232 181.210205 
L 132.727556 181.152 
L 137.184 180.809478 
L 143.136 180.359823 
L 149.088 179.918724 
L 155.04 179.486611 
L 160.992 179.063695 
L 166.944 178.650035 
L 172.896 178.245578 
L 178.848 177.850198 
L 184.8 177.463715 
L 190.752 177.085915 
L 196.704 176.716562 
L 202.656 176.355405 
L 208.608 176.002187 
L 214.56 175.65665 
L 214.56 178.403015 
L 208.608 178.748552 
L 202.656 179.101769 
L 196.704 179.462926 
L 190.752 179.83228 
L 184.8 180.210079 
L 178.848 180.596562 
L 172.896 180.991943 
L 170.540592 181.152 
L 166.944 181.275754 
L 160.992 181.485215 
L 155.04 181.699362 
L 149.088 181.918166 
L 143.136 182.141521 
L 137.184 182.369207 
L 131.232 182.600852 
L 125.28 182.835856 
L 119.328 183.073301 
L 113.376 183.311805 
L 107.424 183.549305 
L 101.472 183.782724 
L 95.52 184.007442 
L 89.568 184.216432 
L 83.616 184.398812 
L 77.664 184.537283 
L 71.712 184.603398 
L 65.76 184.548238 
L 59.808 184.282521 
L 53.856 183.629539 
L 47.904 182.196813 
L 45.991835 181.152 
L 41.952 176.792688 
z
" clip-path="url(#p12c04013ca)" style="fill: #20928c"/>
   </g>
   <g id="PathCollection_24">
    <path d="M 41.416166 170.064 
L 40.77678 164.52 
L 40.385029 158.976 
L 40.145807 153.432 
L 40.005322 147.888 
L 39.931168 142.344 
L 39.902852 136.8 
L 39.906895 131.256 
L 39.934148 125.712 
L 39.978239 120.168 
L 40.034628 114.624 
L 40.100026 109.08 
L 40.172008 103.536 
L 40.248766 97.992 
L 40.328935 92.448 
L 40.411478 86.904 
L 40.495598 81.36 
L 40.58068 75.816 
L 40.666247 70.272 
L 40.751929 64.728 
L 40.837438 59.184 
L 40.92255 53.64 
L 41.007089 48.096 
L 41.090921 42.552 
L 41.173942 37.008 
L 41.256075 31.464 
L 41.337259 25.92 
L 41.952 25.92 
L 42.831192 25.92 
L 42.611188 31.464 
L 42.388616 37.008 
L 42.163634 42.552 
L 41.952 47.716652 
L 41.946264 48.096 
L 41.861725 53.64 
L 41.776613 59.184 
L 41.691104 64.728 
L 41.605422 70.272 
L 41.519855 75.816 
L 41.434773 81.36 
L 41.350653 86.904 
L 41.26811 92.448 
L 41.187941 97.992 
L 41.111183 103.536 
L 41.039201 109.08 
L 40.973803 114.624 
L 40.917413 120.168 
L 40.873323 125.712 
L 40.84607 131.256 
L 40.842027 136.8 
L 40.870343 142.344 
L 40.944497 147.888 
L 41.084982 153.432 
L 41.324204 158.976 
L 41.715955 164.52 
L 41.952 166.566702 
L 43.045025 170.064 
L 45.944322 175.608 
L 47.904 177.722654 
L 53.856 180.552121 
L 56.624751 181.152 
L 59.808 181.501228 
L 65.76 181.766945 
L 71.712 181.822105 
L 77.664 181.755989 
L 83.616 181.617519 
L 89.568 181.435139 
L 95.52 181.226149 
L 97.483943 181.152 
L 101.472 180.854644 
L 107.424 180.393668 
L 113.376 179.924633 
L 119.328 179.453615 
L 125.28 178.984689 
L 131.232 178.520584 
L 137.184 178.063113 
L 143.136 177.613458 
L 149.088 177.172359 
L 155.04 176.740246 
L 160.992 176.317331 
L 166.944 175.90367 
L 171.295089 175.608 
L 172.896 175.415224 
L 178.848 174.71459 
L 184.8 174.029723 
L 190.752 173.360242 
L 196.704 172.705729 
L 202.656 172.065741 
L 208.608 171.439822 
L 214.56 170.827513 
L 214.56 175.608 
L 214.56 175.65665 
L 208.608 176.002187 
L 202.656 176.355405 
L 196.704 176.716562 
L 190.752 177.085915 
L 184.8 177.463715 
L 178.848 177.850198 
L 172.896 178.245578 
L 166.944 178.650035 
L 160.992 179.063695 
L 155.04 179.486611 
L 149.088 179.918724 
L 143.136 180.359823 
L 137.184 180.809478 
L 132.727556 181.152 
L 131.232 181.210205 
L 125.28 181.445209 
L 119.328 181.682654 
L 113.376 181.921158 
L 107.424 182.158659 
L 101.472 182.392078 
L 95.52 182.616795 
L 89.568 182.825786 
L 83.616 183.008165 
L 77.664 183.146636 
L 71.712 183.212751 
L 65.76 183.157592 
L 59.808 182.891874 
L 53.856 182.238893 
L 49.340704 181.152 
L 47.904 180.469018 
L 43.399228 175.608 
L 41.952 172.840629 
z
" clip-path="url(#p12c04013ca)" style="fill: #1fa187"/>
   </g>
   <g id="PathCollection_25">
    <path d="M 41.715955 164.52 
L 41.324204 158.976 
L 41.084982 153.432 
L 40.944497 147.888 
L 40.870343 142.344 
L 40.842027 136.8 
L 40.84607 131.256 
L 40.873323 125.712 
L 40.917413 120.168 
L 40.973803 114.624 
L 41.039201 109.08 
L 41.111183 103.536 
L 41.187941 97.992 
L 41.26811 92.448 
L 41.350653 86.904 
L 41.434773 81.36 
L 41.519855 75.816 
L 41.605422 70.272 
L 41.691104 64.728 
L 41.776613 59.184 
L 41.861725 53.64 
L 41.946264 48.096 
L 41.952 47.716652 
L 42.163634 42.552 
L 42.388616 37.008 
L 42.611188 31.464 
L 42.831192 25.92 
L 45.376286 25.92 
L 45.156282 31.464 
L 44.93371 37.008 
L 44.708728 42.552 
L 44.481549 48.096 
L 44.252455 53.64 
L 44.021809 59.184 
L 43.790086 64.728 
L 43.557893 70.272 
L 43.326012 75.816 
L 43.095448 81.36 
L 42.867489 86.904 
L 42.643804 92.448 
L 42.42655 97.992 
L 42.218542 103.536 
L 42.023476 109.08 
L 41.952 111.315965 
L 41.912978 114.624 
L 41.856588 120.168 
L 41.812498 125.712 
L 41.785244 131.256 
L 41.781202 136.8 
L 41.809518 142.344 
L 41.883672 147.888 
L 41.952 150.584451 
L 42.147541 153.432 
L 42.795813 158.976 
L 43.85743 164.52 
L 45.590119 170.064 
L 47.904 174.488576 
L 49.232853 175.608 
L 53.856 177.805757 
L 59.808 179.095319 
L 65.76 179.62008 
L 71.712 179.729014 
L 77.664 179.598444 
L 83.616 179.32498 
L 89.568 178.964801 
L 95.52 178.55207 
L 101.472 178.108279 
L 107.424 177.647304 
L 113.376 177.178268 
L 119.328 176.70725 
L 125.28 176.238324 
L 131.232 175.774219 
L 133.394618 175.608 
L 137.184 175.091887 
L 143.136 174.295076 
L 149.088 173.513426 
L 155.04 172.7477 
L 160.992 171.998272 
L 166.944 171.265244 
L 172.896 170.548526 
L 177.012127 170.064 
L 178.848 169.702388 
L 184.8 168.556404 
L 190.752 167.436167 
L 196.704 166.340976 
L 202.656 165.270087 
L 206.918697 164.52 
L 208.608 164.034837 
L 214.56 162.362609 
L 214.56 164.52 
L 214.56 170.064 
L 214.56 170.827513 
L 208.608 171.439822 
L 202.656 172.065741 
L 196.704 172.705729 
L 190.752 173.360242 
L 184.8 174.029723 
L 178.848 174.71459 
L 172.896 175.415224 
L 171.295089 175.608 
L 166.944 175.90367 
L 160.992 176.317331 
L 155.04 176.740246 
L 149.088 177.172359 
L 143.136 177.613458 
L 137.184 178.063113 
L 131.232 178.520584 
L 125.28 178.984689 
L 119.328 179.453615 
L 113.376 179.924633 
L 107.424 180.393668 
L 101.472 180.854644 
L 97.483943 181.152 
L 95.52 181.226149 
L 89.568 181.435139 
L 83.616 181.617519 
L 77.664 181.755989 
L 71.712 181.822105 
L 65.76 181.766945 
L 59.808 181.501228 
L 56.624751 181.152 
L 53.856 180.552121 
L 47.904 177.722654 
L 45.944322 175.608 
L 43.045025 170.064 
L 41.952 166.566702 
z
" clip-path="url(#p12c04013ca)" style="fill: #2cb17e"/>
    <path d="M 184.179496 31.464 
L 180.523409 25.92 
L 184.8 25.92 
L 190.752 25.92 
L 196.704 25.92 
L 202.656 25.92 
L 208.608 25.92 
L 214.56 25.92 
L 214.56 31.464 
L 214.56 37.008 
L 214.56 42.552 
L 214.56 48.096 
L 214.56 53.64 
L 214.56 59.184 
L 214.56 64.728 
L 214.56 70.272 
L 214.56 72.987587 
L 212.448807 70.272 
L 208.608 65.338284 
L 208.143236 64.728 
L 203.929719 59.184 
L 202.656 57.500252 
L 199.799999 53.64 
L 196.704 49.427038 
L 195.74756 48.096 
L 191.797143 42.552 
L 190.752 41.07093 
L 187.949023 37.008 
L 184.8 32.394057 
z
" clip-path="url(#p12c04013ca)" style="fill: #2cb17e"/>
   </g>
   <g id="PathCollection_26">
    <path d="M 41.883672 147.888 
L 41.809518 142.344 
L 41.781202 136.8 
L 41.785244 131.256 
L 41.812498 125.712 
L 41.856588 120.168 
L 41.912978 114.624 
L 41.952 111.315965 
L 42.023476 109.08 
L 42.218542 103.536 
L 42.42655 97.992 
L 42.643804 92.448 
L 42.867489 86.904 
L 43.095448 81.36 
L 43.326012 75.816 
L 43.557893 70.272 
L 43.790086 64.728 
L 44.021809 59.184 
L 44.252455 53.64 
L 44.481549 48.096 
L 44.708728 42.552 
L 44.93371 37.008 
L 45.156282 31.464 
L 45.376286 25.92 
L 47.904 25.92 
L 47.943451 25.92 
L 47.904 26.357963 
L 47.701376 31.464 
L 47.478804 37.008 
L 47.253822 42.552 
L 47.026643 48.096 
L 46.797548 53.64 
L 46.566903 59.184 
L 46.33518 64.728 
L 46.102987 70.272 
L 45.871106 75.816 
L 45.640541 81.36 
L 45.412583 86.904 
L 45.188898 92.448 
L 44.971644 97.992 
L 44.763636 103.536 
L 44.56857 109.08 
L 44.391347 114.624 
L 44.238536 120.168 
L 44.119054 125.712 
L 44.045199 131.256 
L 44.034244 136.8 
L 44.110979 142.344 
L 44.311929 147.888 
L 44.692635 153.432 
L 45.340907 158.976 
L 46.402524 164.52 
L 47.904 169.324199 
L 48.428837 170.064 
L 53.856 174.635838 
L 56.388111 175.608 
L 59.808 176.348954 
L 65.76 176.873715 
L 71.712 176.982649 
L 77.664 176.852079 
L 83.616 176.578615 
L 89.568 176.218437 
L 95.52 175.805705 
L 98.171568 175.608 
L 101.472 175.171924 
L 107.424 174.355052 
L 113.376 173.523897 
L 119.328 172.68923 
L 125.28 171.858268 
L 131.232 171.03585 
L 137.184 170.225189 
L 138.388044 170.064 
L 143.136 169.000418 
L 149.088 167.692488 
L 155.04 166.411204 
L 160.992 165.157192 
L 164.08401 164.52 
L 166.944 163.558063 
L 172.896 161.600692 
L 178.848 159.687246 
L 181.11135 158.976 
L 184.8 157.07778 
L 190.752 154.083632 
L 192.076988 153.432 
L 196.704 149.557113 
L 198.742324 147.888 
L 202.315953 142.344 
L 202.656 140.962516 
L 203.703618 136.8 
L 203.504415 131.256 
L 202.656 127.753497 
L 202.172357 125.712 
L 200.047525 120.168 
L 197.329974 114.624 
L 196.704 113.52287 
L 194.234352 109.08 
L 190.842348 103.536 
L 190.752 103.397521 
L 187.304133 97.992 
L 184.8 94.233131 
L 183.637477 92.448 
L 179.920203 86.904 
L 178.848 85.334872 
L 176.193046 81.36 
L 172.896 76.479631 
L 172.45773 75.816 
L 168.775509 70.272 
L 166.944 67.51816 
L 165.129622 64.728 
L 161.531774 59.184 
L 160.992 58.348363 
L 158.017219 53.64 
L 155.04 48.895886 
L 154.548707 48.096 
L 151.172046 42.552 
L 149.088 39.096884 
L 147.853702 37.008 
L 144.6129 31.464 
L 143.136 28.907984 
L 141.442354 25.92 
L 143.136 25.92 
L 149.088 25.92 
L 155.04 25.92 
L 160.992 25.92 
L 166.944 25.92 
L 172.896 25.92 
L 178.848 25.92 
L 180.523409 25.92 
L 184.179496 31.464 
L 184.8 32.394057 
L 187.949023 37.008 
L 190.752 41.07093 
L 191.797143 42.552 
L 195.74756 48.096 
L 196.704 49.427038 
L 199.799999 53.64 
L 202.656 57.500252 
L 203.929719 59.184 
L 208.143236 64.728 
L 208.608 65.338284 
L 212.448807 70.272 
L 214.56 72.987587 
L 214.56 75.816 
L 214.56 81.36 
L 214.56 86.904 
L 214.56 92.448 
L 214.56 97.992 
L 214.56 103.536 
L 214.56 109.08 
L 214.56 114.624 
L 214.56 120.168 
L 214.56 125.712 
L 214.56 131.256 
L 214.56 136.8 
L 214.56 142.344 
L 214.56 147.888 
L 214.56 153.432 
L 214.56 158.976 
L 214.56 162.362609 
L 208.608 164.034837 
L 206.918697 164.52 
L 202.656 165.270087 
L 196.704 166.340976 
L 190.752 167.436167 
L 184.8 168.556404 
L 178.848 169.702388 
L 177.012127 170.064 
L 172.896 170.548526 
L 166.944 171.265244 
L 160.992 171.998272 
L 155.04 172.7477 
L 149.088 173.513426 
L 143.136 174.295076 
L 137.184 175.091887 
L 133.394618 175.608 
L 131.232 175.774219 
L 125.28 176.238324 
L 119.328 176.70725 
L 113.376 177.178268 
L 107.424 177.647304 
L 101.472 178.108279 
L 95.52 178.55207 
L 89.568 178.964801 
L 83.616 179.32498 
L 77.664 179.598444 
L 71.712 179.729014 
L 65.76 179.62008 
L 59.808 179.095319 
L 53.856 177.805757 
L 49.232853 175.608 
L 47.904 174.488576 
L 45.590119 170.064 
L 43.85743 164.52 
L 42.795813 158.976 
L 42.147541 153.432 
L 41.952 150.584451 
z
" clip-path="url(#p12c04013ca)" style="fill: #46c06f"/>
   </g>
   <g id="PathCollection_27">
    <path d="M 46.402524 164.52 
L 45.340907 158.976 
L 44.692635 153.432 
L 44.311929 147.888 
L 44.110979 142.344 
L 44.034244 136.8 
L 44.045199 131.256 
L 44.119054 125.712 
L 44.238536 120.168 
L 44.391347 114.624 
L 44.56857 109.08 
L 44.763636 103.536 
L 44.971644 97.992 
L 45.188898 92.448 
L 45.412583 86.904 
L 45.640541 81.36 
L 45.871106 75.816 
L 46.102987 70.272 
L 46.33518 64.728 
L 46.566903 59.184 
L 46.797548 53.64 
L 47.026643 48.096 
L 47.253822 42.552 
L 47.478804 37.008 
L 47.701376 31.464 
L 47.904 26.357963 
L 47.943451 25.92 
L 53.720637 25.92 
L 53.221245 31.464 
L 52.716021 37.008 
L 52.205327 42.552 
L 51.689648 48.096 
L 51.169618 53.64 
L 50.64607 59.184 
L 50.120074 64.728 
L 49.593013 70.272 
L 49.066659 75.816 
L 48.543293 81.36 
L 48.025844 86.904 
L 47.904 88.234384 
L 47.733992 92.448 
L 47.516738 97.992 
L 47.30873 103.536 
L 47.113664 109.08 
L 46.936441 114.624 
L 46.78363 120.168 
L 46.664148 125.712 
L 46.590293 131.256 
L 46.579338 136.8 
L 46.656073 142.344 
L 46.857023 147.888 
L 47.237729 153.432 
L 47.886001 158.976 
L 47.904 159.069997 
L 50.27294 164.52 
L 53.856 169.570613 
L 54.623998 170.064 
L 59.808 172.054311 
L 65.76 172.984214 
L 71.712 173.17725 
L 77.664 172.945873 
L 83.616 172.461282 
L 89.568 171.823027 
L 95.52 171.091646 
L 101.472 170.305226 
L 103.229651 170.064 
L 107.424 169.100775 
L 113.376 167.71001 
L 119.328 166.313367 
L 125.28 164.922925 
L 127.0227 164.52 
L 131.232 162.931583 
L 137.184 160.717652 
L 141.947696 158.976 
L 143.136 158.264532 
L 149.088 154.768723 
L 151.411247 153.432 
L 155.04 149.87674 
L 157.113996 147.888 
L 160.165767 142.344 
L 160.992 138.413324 
L 161.33871 136.8 
L 161.168615 131.256 
L 160.992 130.402116 
L 160.04314 125.712 
L 158.228598 120.168 
L 155.907892 114.624 
L 155.04 112.836253 
L 153.255277 109.08 
L 150.355924 103.536 
L 149.088 101.26239 
L 147.301356 97.992 
L 144.137993 92.448 
L 143.136 90.742432 
L 140.923892 86.904 
L 137.667828 81.36 
L 137.184 80.545515 
L 134.422527 75.816 
L 131.232 70.38266 
L 131.167948 70.272 
L 127.954661 64.728 
L 125.28 60.103959 
L 124.753343 59.184 
L 121.594288 53.64 
L 119.328 49.635849 
L 118.460339 48.096 
L 115.362579 42.552 
L 113.376 38.961944 
L 112.290203 37.008 
L 109.242429 31.464 
L 107.424 28.117597 
L 106.208951 25.92 
L 107.424 25.92 
L 113.376 25.92 
L 119.328 25.92 
L 125.28 25.92 
L 131.232 25.92 
L 137.184 25.92 
L 141.442354 25.92 
L 143.136 28.907984 
L 144.6129 31.464 
L 147.853702 37.008 
L 149.088 39.096884 
L 151.172046 42.552 
L 154.548707 48.096 
L 155.04 48.895886 
L 158.017219 53.64 
L 160.992 58.348363 
L 161.531774 59.184 
L 165.129622 64.728 
L 166.944 67.51816 
L 168.775509 70.272 
L 172.45773 75.816 
L 172.896 76.479631 
L 176.193046 81.36 
L 178.848 85.334872 
L 179.920203 86.904 
L 183.637477 92.448 
L 184.8 94.233131 
L 187.304133 97.992 
L 190.752 103.397521 
L 190.842348 103.536 
L 194.234352 109.08 
L 196.704 113.52287 
L 197.329974 114.624 
L 200.047525 120.168 
L 202.172357 125.712 
L 202.656 127.753497 
L 203.504415 131.256 
L 203.703618 136.8 
L 202.656 140.962516 
L 202.315953 142.344 
L 198.742324 147.888 
L 196.704 149.557113 
L 192.076988 153.432 
L 190.752 154.083632 
L 184.8 157.07778 
L 181.11135 158.976 
L 178.848 159.687246 
L 172.896 161.600692 
L 166.944 163.558063 
L 164.08401 164.52 
L 160.992 165.157192 
L 155.04 166.411204 
L 149.088 167.692488 
L 143.136 169.000418 
L 138.388044 170.064 
L 137.184 170.225189 
L 131.232 171.03585 
L 125.28 171.858268 
L 119.328 172.68923 
L 113.376 173.523897 
L 107.424 174.355052 
L 101.472 175.171924 
L 98.171568 175.608 
L 95.52 175.805705 
L 89.568 176.218437 
L 83.616 176.578615 
L 77.664 176.852079 
L 71.712 176.982649 
L 65.76 176.873715 
L 59.808 176.348954 
L 56.388111 175.608 
L 53.856 174.635838 
L 48.428837 170.064 
L 47.904 169.324199 
z
" clip-path="url(#p12c04013ca)" style="fill: #69cd5b"/>
   </g>
   <g id="PathCollection_28">
    <path d="M 47.886001 158.976 
L 47.237729 153.432 
L 46.857023 147.888 
L 46.656073 142.344 
L 46.579338 136.8 
L 46.590293 131.256 
L 46.664148 125.712 
L 46.78363 120.168 
L 46.936441 114.624 
L 47.113664 109.08 
L 47.30873 103.536 
L 47.516738 97.992 
L 47.733992 92.448 
L 47.904 88.234384 
L 48.025844 86.904 
L 48.543293 81.36 
L 49.066659 75.816 
L 49.593013 70.272 
L 50.120074 64.728 
L 50.64607 59.184 
L 51.169618 53.64 
L 51.689648 48.096 
L 52.205327 42.552 
L 52.716021 37.008 
L 53.221245 31.464 
L 53.720637 25.92 
L 53.856 25.92 
L 59.808 25.92 
L 65.76 25.92 
L 71.712 25.92 
L 77.664 25.92 
L 83.616 25.92 
L 89.568 25.92 
L 95.52 25.92 
L 101.472 25.92 
L 106.208951 25.92 
L 107.424 28.117597 
L 109.242429 31.464 
L 112.290203 37.008 
L 113.376 38.961944 
L 115.362579 42.552 
L 118.460339 48.096 
L 119.328 49.635849 
L 121.594288 53.64 
L 124.753343 59.184 
L 125.28 60.103959 
L 127.954661 64.728 
L 131.167948 70.272 
L 131.232 70.38266 
L 134.422527 75.816 
L 137.184 80.545515 
L 137.667828 81.36 
L 140.923892 86.904 
L 143.136 90.742432 
L 144.137993 92.448 
L 147.301356 97.992 
L 149.088 101.26239 
L 150.355924 103.536 
L 153.255277 109.08 
L 155.04 112.836253 
L 155.907892 114.624 
L 158.228598 120.168 
L 160.04314 125.712 
L 160.992 130.402116 
L 161.168615 131.256 
L 161.33871 136.8 
L 160.992 138.413324 
L 160.165767 142.344 
L 157.113996 147.888 
L 155.04 149.87674 
L 151.411247 153.432 
L 149.088 154.768723 
L 143.136 158.264532 
L 141.947696 158.976 
L 137.184 160.717652 
L 131.232 162.931583 
L 127.0227 164.52 
L 125.28 164.922925 
L 119.328 166.313367 
L 113.376 167.71001 
L 107.424 169.100775 
L 103.229651 170.064 
L 101.472 170.305226 
L 95.52 171.091646 
L 89.568 171.823027 
L 83.616 172.461282 
L 77.664 172.945873 
L 71.712 173.17725 
L 65.76 172.984214 
L 59.808 172.054311 
L 54.623998 170.064 
L 53.856 169.570613 
L 50.27294 164.52 
L 47.904 159.069997 
z
M 53.856 159.472174 
L 58.670197 164.52 
L 59.808 165.250962 
L 65.76 166.806961 
L 71.712 167.129967 
L 77.664 166.742806 
L 83.616 165.931943 
L 89.568 164.863955 
L 91.240821 164.52 
L 95.52 163.083962 
L 101.472 160.936234 
L 106.701883 158.976 
L 107.424 158.532765 
L 113.376 154.815553 
L 115.582023 153.432 
L 119.328 149.431458 
L 120.779689 147.888 
L 123.532021 142.344 
L 124.583033 136.8 
L 124.432984 131.256 
L 123.421427 125.712 
L 121.784927 120.168 
L 119.691928 114.624 
L 119.328 113.792798 
L 117.273742 109.08 
L 114.613867 103.536 
L 113.376 101.116439 
L 111.770756 97.992 
L 108.795808 92.448 
L 107.424 89.965055 
L 105.703222 86.904 
L 102.527122 81.36 
L 101.472 79.539069 
L 99.231163 75.816 
L 95.875302 70.272 
L 95.52 69.685817 
L 92.288786 64.728 
L 89.568 60.5449 
L 88.553688 59.184 
L 84.440828 53.64 
L 83.616 52.520633 
L 79.321752 48.096 
L 77.664 46.373508 
L 71.712 43.420636 
L 65.76 45.884197 
L 64.650706 48.096 
L 61.84675 53.64 
L 59.808 57.643931 
L 59.488893 59.184 
L 58.33479 64.728 
L 57.178349 70.272 
L 56.023462 75.816 
L 54.875128 81.36 
L 53.856 86.33648 
L 53.803031 86.904 
L 53.29528 92.448 
L 52.802129 97.992 
L 52.329965 103.536 
L 51.887179 109.08 
L 51.484896 114.624 
L 51.138024 120.168 
L 50.866808 125.712 
L 50.699163 131.256 
L 50.674295 136.8 
L 50.848479 142.344 
L 51.304622 147.888 
L 52.168797 153.432 
L 53.640329 158.976 
z
" clip-path="url(#p12c04013ca)" style="fill: #90d743"/>
   </g>
   <g id="PathCollection_29">
    <path d="M 53.640329 158.976 
L 52.168797 153.432 
L 51.304622 147.888 
L 50.848479 142.344 
L 50.674295 136.8 
L 50.699163 131.256 
L 50.866808 125.712 
L 51.138024 120.168 
L 51.484896 114.624 
L 51.887179 109.08 
L 52.329965 103.536 
L 52.802129 97.992 
L 53.29528 92.448 
L 53.803031 86.904 
L 53.856 86.33648 
L 54.875128 81.36 
L 56.023462 75.816 
L 57.178349 70.272 
L 58.33479 64.728 
L 59.488893 59.184 
L 59.808 57.643931 
L 61.84675 53.64 
L 64.650706 48.096 
L 65.76 45.884197 
L 71.712 43.420636 
L 77.664 46.373508 
L 79.321752 48.096 
L 83.616 52.520633 
L 84.440828 53.64 
L 88.553688 59.184 
L 89.568 60.5449 
L 92.288786 64.728 
L 95.52 69.685817 
L 95.875302 70.272 
L 99.231163 75.816 
L 101.472 79.539069 
L 102.527122 81.36 
L 105.703222 86.904 
L 107.424 89.965055 
L 108.795808 92.448 
L 111.770756 97.992 
L 113.376 101.116439 
L 114.613867 103.536 
L 117.273742 109.08 
L 119.328 113.792798 
L 119.691928 114.624 
L 121.784927 120.168 
L 123.421427 125.712 
L 124.432984 131.256 
L 124.583033 136.8 
L 123.532021 142.344 
L 120.779689 147.888 
L 119.328 149.431458 
L 115.582023 153.432 
L 113.376 154.815553 
L 107.424 158.532765 
L 106.701883 158.976 
L 101.472 160.936234 
L 95.52 163.083962 
L 91.240821 164.52 
L 89.568 164.863955 
L 83.616 165.931943 
L 77.664 166.742806 
L 71.712 167.129967 
L 65.76 166.806961 
L 59.808 165.250962 
L 58.670197 164.52 
L 53.856 159.472174 
z
M 59.808 140.530654 
L 60.115191 142.344 
L 62.574676 147.888 
L 65.76 151.677933 
L 71.712 153.148015 
L 77.664 151.385946 
L 83.305534 147.888 
L 83.616 147.523304 
L 86.963615 142.344 
L 88.331956 136.8 
L 88.136603 131.256 
L 86.81963 125.712 
L 84.689027 120.168 
L 83.616 117.984877 
L 81.440276 114.624 
L 77.664 109.594213 
L 76.855439 109.08 
L 71.712 106.108183 
L 65.76 108.977312 
L 65.715779 109.08 
L 63.5467 114.624 
L 61.676395 120.168 
L 60.214018 125.712 
L 59.808 128.202203 
L 59.605386 131.256 
L 59.550823 136.8 
z
" clip-path="url(#p12c04013ca)" style="fill: #bddf26"/>
   </g>
   <g id="PathCollection_30">
    <path d="M 59.550823 136.8 
L 59.605386 131.256 
L 59.808 128.202203 
L 60.214018 125.712 
L 61.676395 120.168 
L 63.5467 114.624 
L 65.715779 109.08 
L 65.76 108.977312 
L 71.712 106.108183 
L 76.855439 109.08 
L 77.664 109.594213 
L 81.440276 114.624 
L 83.616 117.984877 
L 84.689027 120.168 
L 86.81963 125.712 
L 88.136603 131.256 
L 88.331956 136.8 
L 86.963615 142.344 
L 83.616 147.523304 
L 83.305534 147.888 
L 77.664 151.385946 
L 71.712 153.148015 
L 65.76 151.677933 
L 62.574676 147.888 
L 60.115191 142.344 
L 59.808 140.530654 
z
" clip-path="url(#p12c04013ca)" style="fill: #eae51a"/>
   </g>
   <g id="PathCollection_31">
    <defs>
     <path id="m3075ee5426" d="M -4.330127 4.330127 
L 4.330127 -4.330127 
M -4.330127 -4.330127 
L 4.330127 4.330127 
" style="stroke: #000000; stroke-width: 2"/>
    </defs>
    <g clip-path="url(#p12c04013ca)">
     <use xlink:href="#m3075ee5426" x="65.76" y="146.04" style="stroke: #000000; stroke-width: 2"/>
    </g>
   </g>
   <g id="matplotlib.axis_1">
    <g id="xtick_1">
     <g id="line2d_1">
      <defs>
       <path id="m414f53a58a" d="M 0 0 
L 0 3.5 
" style="stroke: #000000; stroke-width: 0.8"/>
      </defs>
      <g>
       <use xlink:href="#m414f53a58a" x="75.68" y="192.24" style="stroke: #000000; stroke-width: 0.8"/>
      </g>
     </g>
     <g id="text_1">
      <!-- $\mathdefault{250}$ -->
      <g transform="translate(64.22 208.358125) scale(0.12 -0.12)">
       <defs>
        <path id="DejaVuSans-32" d="M 1228 531 
L 3431 531 
L 3431 0 
L 469 0 
L 469 531 
Q 828 903 1448 1529 
Q 2069 2156 2228 2338 
Q 2531 2678 2651 2914 
Q 2772 3150 2772 3378 
Q 2772 3750 2511 3984 
Q 2250 4219 1831 4219 
Q 1534 4219 1204 4116 
Q 875 4013 500 3803 
L 500 4441 
Q 881 4594 1212 4672 
Q 1544 4750 1819 4750 
Q 2544 4750 2975 4387 
Q 3406 4025 3406 3419 
Q 3406 3131 3298 2873 
Q 3191 2616 2906 2266 
Q 2828 2175 2409 1742 
Q 1991 1309 1228 531 
z
" transform="scale(0.015625)"/>
        <path id="DejaVuSans-35" d="M 691 4666 
L 3169 4666 
L 3169 4134 
L 1269 4134 
L 1269 2991 
Q 1406 3038 1543 3061 
Q 1681 3084 1819 3084 
Q 2600 3084 3056 2656 
Q 3513 2228 3513 1497 
Q 3513 744 3044 326 
Q 2575 -91 1722 -91 
Q 1428 -91 1123 -41 
Q 819 9 494 109 
L 494 744 
Q 775 591 1075 516 
Q 1375 441 1709 441 
Q 2250 441 2565 725 
Q 2881 1009 2881 1497 
Q 2881 1984 2565 2268 
Q 2250 2553 1709 2553 
Q 1456 2553 1204 2497 
Q 953 2441 691 2322 
L 691 4666 
z
" transform="scale(0.015625)"/>
        <path id="DejaVuSans-30" d="M 2034 4250 
Q 1547 4250 1301 3770 
Q 1056 3291 1056 2328 
Q 1056 1369 1301 889 
Q 1547 409 2034 409 
Q 2525 409 2770 889 
Q 3016 1369 3016 2328 
Q 3016 3291 2770 3770 
Q 2525 4250 2034 4250 
z
M 2034 4750 
Q 2819 4750 3233 4129 
Q 3647 3509 3647 2328 
Q 3647 1150 3233 529 
Q 2819 -91 2034 -91 
Q 1250 -91 836 529 
Q 422 1150 422 2328 
Q 422 3509 836 4129 
Q 1250 4750 2034 4750 
z
" transform="scale(0.015625)"/>
       </defs>
       <use xlink:href="#DejaVuSans-32" transform="translate(0 0.78125)"/>
       <use xlink:href="#DejaVuSans-35" transform="translate(63.623047 0.78125)"/>
       <use xlink:href="#DejaVuSans-30" transform="translate(127.246094 0.78125)"/>
      </g>
     </g>
    </g>
    <g id="xtick_2">
     <g id="line2d_2">
      <g>
       <use xlink:href="#m414f53a58a" x="125.28" y="192.24" style="stroke: #000000; stroke-width: 0.8"/>
      </g>
     </g>
     <g id="text_2">
      <!-- $\mathdefault{500}$ -->
      <g transform="translate(113.82 208.358125) scale(0.12 -0.12)">
       <use xlink:href="#DejaVuSans-35" transform="translate(0 0.78125)"/>
       <use xlink:href="#DejaVuSans-30" transform="translate(63.623047 0.78125)"/>
       <use xlink:href="#DejaVuSans-30" transform="translate(127.246094 0.78125)"/>
      </g>
     </g>
    </g>
    <g id="xtick_3">
     <g id="line2d_3">
      <g>
       <use xlink:href="#m414f53a58a" x="174.88" y="192.24" style="stroke: #000000; stroke-width: 0.8"/>
      </g>
     </g>
     <g id="text_3">
      <!-- $\mathdefault{750}$ -->
      <g transform="translate(163.42 208.358125) scale(0.12 -0.12)">
       <defs>
        <path id="DejaVuSans-37" d="M 525 4666 
L 3525 4666 
L 3525 4397 
L 1831 0 
L 1172 0 
L 2766 4134 
L 525 4134 
L 525 4666 
z
" transform="scale(0.015625)"/>
       </defs>
       <use xlink:href="#DejaVuSans-37" transform="translate(0 0.78125)"/>
       <use xlink:href="#DejaVuSans-35" transform="translate(63.623047 0.78125)"/>
       <use xlink:href="#DejaVuSans-30" transform="translate(127.246094 0.78125)"/>
      </g>
     </g>
    </g>
    <g id="text_4">
     <!-- Diploid N$_e$0 -->
     <g transform="translate(80 227.01375) scale(0.16 -0.16)">
      <defs>
       <path id="DejaVuSans-44" d="M 1259 4147 
L 1259 519 
L 2022 519 
Q 2988 519 3436 956 
Q 3884 1394 3884 2338 
Q 3884 3275 3436 3711 
Q 2988 4147 2022 4147 
L 1259 4147 
z
M 628 4666 
L 1925 4666 
Q 3281 4666 3915 4102 
Q 4550 3538 4550 2338 
Q 4550 1131 3912 565 
Q 3275 0 1925 0 
L 628 0 
L 628 4666 
z
" transform="scale(0.015625)"/>
       <path id="DejaVuSans-69" d="M 603 3500 
L 1178 3500 
L 1178 0 
L 603 0 
L 603 3500 
z
M 603 4863 
L 1178 4863 
L 1178 4134 
L 603 4134 
L 603 4863 
z
" transform="scale(0.015625)"/>
       <path id="DejaVuSans-70" d="M 1159 525 
L 1159 -1331 
L 581 -1331 
L 581 3500 
L 1159 3500 
L 1159 2969 
Q 1341 3281 1617 3432 
Q 1894 3584 2278 3584 
Q 2916 3584 3314 3078 
Q 3713 2572 3713 1747 
Q 3713 922 3314 415 
Q 2916 -91 2278 -91 
Q 1894 -91 1617 61 
Q 1341 213 1159 525 
z
M 3116 1747 
Q 3116 2381 2855 2742 
Q 2594 3103 2138 3103 
Q 1681 3103 1420 2742 
Q 1159 2381 1159 1747 
Q 1159 1113 1420 752 
Q 1681 391 2138 391 
Q 2594 391 2855 752 
Q 3116 1113 3116 1747 
z
" transform="scale(0.015625)"/>
       <path id="DejaVuSans-6c" d="M 603 4863 
L 1178 4863 
L 1178 0 
L 603 0 
L 603 4863 
z
" transform="scale(0.015625)"/>
       <path id="DejaVuSans-6f" d="M 1959 3097 
Q 1497 3097 1228 2736 
Q 959 2375 959 1747 
Q 959 1119 1226 758 
Q 1494 397 1959 397 
Q 2419 397 2687 759 
Q 2956 1122 2956 1747 
Q 2956 2369 2687 2733 
Q 2419 3097 1959 3097 
z
M 1959 3584 
Q 2709 3584 3137 3096 
Q 3566 2609 3566 1747 
Q 3566 888 3137 398 
Q 2709 -91 1959 -91 
Q 1206 -91 779 398 
Q 353 888 353 1747 
Q 353 2609 779 3096 
Q 1206 3584 1959 3584 
z
" transform="scale(0.015625)"/>
       <path id="DejaVuSans-64" d="M 2906 2969 
L 2906 4863 
L 3481 4863 
L 3481 0 
L 2906 0 
L 2906 525 
Q 2725 213 2448 61 
Q 2172 -91 1784 -91 
Q 1150 -91 751 415 
Q 353 922 353 1747 
Q 353 2572 751 3078 
Q 1150 3584 1784 3584 
Q 2172 3584 2448 3432 
Q 2725 3281 2906 2969 
z
M 947 1747 
Q 947 1113 1208 752 
Q 1469 391 1925 391 
Q 2381 391 2643 752 
Q 2906 1113 2906 1747 
Q 2906 2381 2643 2742 
Q 2381 3103 1925 3103 
Q 1469 3103 1208 2742 
Q 947 2381 947 1747 
z
" transform="scale(0.015625)"/>
       <path id="DejaVuSans-20" transform="scale(0.015625)"/>
       <path id="DejaVuSans-4e" d="M 628 4666 
L 1478 4666 
L 3547 763 
L 3547 4666 
L 4159 4666 
L 4159 0 
L 3309 0 
L 1241 3903 
L 1241 0 
L 628 0 
L 628 4666 
z
" transform="scale(0.015625)"/>
       <path id="DejaVuSans-Oblique-65" d="M 3078 2063 
Q 3088 2113 3092 2166 
Q 3097 2219 3097 2272 
Q 3097 2653 2873 2875 
Q 2650 3097 2266 3097 
Q 1838 3097 1509 2826 
Q 1181 2556 1013 2059 
L 3078 2063 
z
M 3578 1613 
L 903 1613 
Q 884 1494 878 1425 
Q 872 1356 872 1306 
Q 872 872 1139 634 
Q 1406 397 1894 397 
Q 2269 397 2603 481 
Q 2938 566 3225 728 
L 3116 159 
Q 2806 34 2476 -28 
Q 2147 -91 1806 -91 
Q 1078 -91 686 257 
Q 294 606 294 1247 
Q 294 1794 489 2264 
Q 684 2734 1063 3103 
Q 1306 3334 1642 3459 
Q 1978 3584 2356 3584 
Q 2950 3584 3301 3228 
Q 3653 2872 3653 2272 
Q 3653 2128 3634 1964 
Q 3616 1800 3578 1613 
z
" transform="scale(0.015625)"/>
      </defs>
      <use xlink:href="#DejaVuSans-44" transform="translate(0 0.015625)"/>
      <use xlink:href="#DejaVuSans-69" transform="translate(77.001953 0.015625)"/>
      <use xlink:href="#DejaVuSans-70" transform="translate(104.785156 0.015625)"/>
      <use xlink:href="#DejaVuSans-6c" transform="translate(168.261719 0.015625)"/>
      <use xlink:href="#DejaVuSans-6f" transform="translate(196.044922 0.015625)"/>
      <use xlink:href="#DejaVuSans-69" transform="translate(257.226562 0.015625)"/>
      <use xlink:href="#DejaVuSans-64" transform="translate(285.009766 0.015625)"/>
      <use xlink:href="#DejaVuSans-20" transform="translate(348.486328 0.015625)"/>
      <use xlink:href="#DejaVuSans-4e" transform="translate(380.273438 0.015625)"/>
      <use xlink:href="#DejaVuSans-Oblique-65" transform="translate(456.035156 -16.390625) scale(0.7)"/>
      <use xlink:href="#DejaVuSans-30" transform="translate(501.835938 0.015625)"/>
     </g>
    </g>
    <g id="text_5">
     <!-- $\times\mathdefault{10^{3}}\mathdefault{}$ -->
     <g transform="translate(188.56 221.452188) scale(0.1 -0.1)">
      <defs>
       <path id="DejaVuSans-d7" d="M 4488 3438 
L 3059 2003 
L 4488 575 
L 4116 197 
L 2681 1631 
L 1247 197 
L 878 575 
L 2303 2003 
L 878 3438 
L 1247 3816 
L 2681 2381 
L 4116 3816 
L 4488 3438 
z
" transform="scale(0.015625)"/>
       <path id="DejaVuSans-31" d="M 794 531 
L 1825 531 
L 1825 4091 
L 703 3866 
L 703 4441 
L 1819 4666 
L 2450 4666 
L 2450 531 
L 3481 531 
L 3481 0 
L 794 0 
L 794 531 
z
" transform="scale(0.015625)"/>
       <path id="DejaVuSans-33" d="M 2597 2516 
Q 3050 2419 3304 2112 
Q 3559 1806 3559 1356 
Q 3559 666 3084 287 
Q 2609 -91 1734 -91 
Q 1441 -91 1130 -33 
Q 819 25 488 141 
L 488 750 
Q 750 597 1062 519 
Q 1375 441 1716 441 
Q 2309 441 2620 675 
Q 2931 909 2931 1356 
Q 2931 1769 2642 2001 
Q 2353 2234 1838 2234 
L 1294 2234 
L 1294 2753 
L 1863 2753 
Q 2328 2753 2575 2939 
Q 2822 3125 2822 3475 
Q 2822 3834 2567 4026 
Q 2313 4219 1838 4219 
Q 1578 4219 1281 4162 
Q 984 4106 628 3988 
L 628 4550 
Q 988 4650 1302 4700 
Q 1616 4750 1894 4750 
Q 2613 4750 3031 4423 
Q 3450 4097 3450 3541 
Q 3450 3153 3228 2886 
Q 3006 2619 2597 2516 
z
" transform="scale(0.015625)"/>
      </defs>
      <use xlink:href="#DejaVuSans-d7" transform="translate(0 0.765625)"/>
      <use xlink:href="#DejaVuSans-31" transform="translate(83.789062 0.765625)"/>
      <use xlink:href="#DejaVuSans-30" transform="translate(147.412109 0.765625)"/>
      <use xlink:href="#DejaVuSans-33" transform="translate(211.992188 39.046875) scale(0.7)"/>
     </g>
    </g>
   </g>
   <g id="matplotlib.axis_2">
    <g id="ytick_1">
     <g id="line2d_4">
      <defs>
       <path id="m7a01c036cd" d="M 0 0 
L -3.5 0 
" style="stroke: #000000; stroke-width: 0.8"/>
      </defs>
      <g>
       <use xlink:href="#m7a01c036cd" x="36" y="155.28" style="stroke: #000000; stroke-width: 0.8"/>
      </g>
     </g>
     <g id="text_6">
      <!-- $\mathdefault{250}$ -->
      <g transform="translate(6.08 159.839063) scale(0.12 -0.12)">
       <use xlink:href="#DejaVuSans-32" transform="translate(0 0.78125)"/>
       <use xlink:href="#DejaVuSans-35" transform="translate(63.623047 0.78125)"/>
       <use xlink:href="#DejaVuSans-30" transform="translate(127.246094 0.78125)"/>
      </g>
     </g>
    </g>
    <g id="ytick_2">
     <g id="line2d_5">
      <g>
       <use xlink:href="#m7a01c036cd" x="36" y="109.08" style="stroke: #000000; stroke-width: 0.8"/>
      </g>
     </g>
     <g id="text_7">
      <!-- $\mathdefault{500}$ -->
      <g transform="translate(6.08 113.639062) scale(0.12 -0.12)">
       <use xlink:href="#DejaVuSans-35" transform="translate(0 0.78125)"/>
       <use xlink:href="#DejaVuSans-30" transform="translate(63.623047 0.78125)"/>
       <use xlink:href="#DejaVuSans-30" transform="translate(127.246094 0.78125)"/>
      </g>
     </g>
    </g>
    <g id="ytick_3">
     <g id="line2d_6">
      <g>
       <use xlink:href="#m7a01c036cd" x="36" y="62.88" style="stroke: #000000; stroke-width: 0.8"/>
      </g>
     </g>
     <g id="text_8">
      <!-- $\mathdefault{750}$ -->
      <g transform="translate(6.08 67.439062) scale(0.12 -0.12)">
       <use xlink:href="#DejaVuSans-37" transform="translate(0 0.78125)"/>
       <use xlink:href="#DejaVuSans-35" transform="translate(63.623047 0.78125)"/>
       <use xlink:href="#DejaVuSans-30" transform="translate(127.246094 0.78125)"/>
      </g>
     </g>
    </g>
    <g id="text_9">
     <!-- Diploid N$_e$1 -->
     <g transform="translate(-1.28 154.36) rotate(-90) scale(0.16 -0.16)">
      <use xlink:href="#DejaVuSans-44" transform="translate(0 0.015625)"/>
      <use xlink:href="#DejaVuSans-69" transform="translate(77.001953 0.015625)"/>
      <use xlink:href="#DejaVuSans-70" transform="translate(104.785156 0.015625)"/>
      <use xlink:href="#DejaVuSans-6c" transform="translate(168.261719 0.015625)"/>
      <use xlink:href="#DejaVuSans-6f" transform="translate(196.044922 0.015625)"/>
      <use xlink:href="#DejaVuSans-69" transform="translate(257.226562 0.015625)"/>
      <use xlink:href="#DejaVuSans-64" transform="translate(285.009766 0.015625)"/>
      <use xlink:href="#DejaVuSans-20" transform="translate(348.486328 0.015625)"/>
      <use xlink:href="#DejaVuSans-4e" transform="translate(380.273438 0.015625)"/>
      <use xlink:href="#DejaVuSans-Oblique-65" transform="translate(456.035156 -16.390625) scale(0.7)"/>
      <use xlink:href="#DejaVuSans-31" transform="translate(501.835938 0.015625)"/>
     </g>
    </g>
    <g id="text_10">
     <!-- $\times\mathdefault{10^{3}}\mathdefault{}$ -->
     <g transform="translate(36 22.92) scale(0.1 -0.1)">
      <use xlink:href="#DejaVuSans-d7" transform="translate(0 0.765625)"/>
      <use xlink:href="#DejaVuSans-31" transform="translate(83.789062 0.765625)"/>
      <use xlink:href="#DejaVuSans-30" transform="translate(147.412109 0.765625)"/>
      <use xlink:href="#DejaVuSans-33" transform="translate(211.992188 39.046875) scale(0.7)"/>
     </g>
    </g>
   </g>
   <g id="patch_3">
    <path d="M 36 192.24 
L 36 25.92 
" style="fill: none; stroke: #000000; stroke-width: 0.8; stroke-linejoin: miter; stroke-linecap: square"/>
   </g>
   <g id="patch_4">
    <path d="M 214.56 192.24 
L 214.56 25.92 
" style="fill: none; stroke: #000000; stroke-width: 0.8; stroke-linejoin: miter; stroke-linecap: square"/>
   </g>
   <g id="patch_5">
    <path d="M 36 192.24 
L 214.56 192.24 
" style="fill: none; stroke: #000000; stroke-width: 0.8; stroke-linejoin: miter; stroke-linecap: square"/>
   </g>
   <g id="patch_6">
    <path d="M 36 25.92 
L 214.56 25.92 
" style="fill: none; stroke: #000000; stroke-width: 0.8; stroke-linejoin: miter; stroke-linecap: square"/>
   </g>
   <g id="text_11">
    <!-- Ne0Ne1-MSC-T-P2-S4 -->
    <g transform="translate(40.66375 10.92) scale(0.16 -0.16)">
     <defs>
      <path id="DejaVuSans-65" d="M 3597 1894 
L 3597 1613 
L 953 1613 
Q 991 1019 1311 708 
Q 1631 397 2203 397 
Q 2534 397 2845 478 
Q 3156 559 3463 722 
L 3463 178 
Q 3153 47 2828 -22 
Q 2503 -91 2169 -91 
Q 1331 -91 842 396 
Q 353 884 353 1716 
Q 353 2575 817 3079 
Q 1281 3584 2069 3584 
Q 2775 3584 3186 3129 
Q 3597 2675 3597 1894 
z
M 3022 2063 
Q 3016 2534 2758 2815 
Q 2500 3097 2075 3097 
Q 1594 3097 1305 2825 
Q 1016 2553 972 2059 
L 3022 2063 
z
" transform="scale(0.015625)"/>
      <path id="DejaVuSans-2d" d="M 313 2009 
L 1997 2009 
L 1997 1497 
L 313 1497 
L 313 2009 
z
" transform="scale(0.015625)"/>
      <path id="DejaVuSans-4d" d="M 628 4666 
L 1569 4666 
L 2759 1491 
L 3956 4666 
L 4897 4666 
L 4897 0 
L 4281 0 
L 4281 4097 
L 3078 897 
L 2444 897 
L 1241 4097 
L 1241 0 
L 628 0 
L 628 4666 
z
" transform="scale(0.015625)"/>
      <path id="DejaVuSans-53" d="M 3425 4513 
L 3425 3897 
Q 3066 4069 2747 4153 
Q 2428 4238 2131 4238 
Q 1616 4238 1336 4038 
Q 1056 3838 1056 3469 
Q 1056 3159 1242 3001 
Q 1428 2844 1947 2747 
L 2328 2669 
Q 3034 2534 3370 2195 
Q 3706 1856 3706 1288 
Q 3706 609 3251 259 
Q 2797 -91 1919 -91 
Q 1588 -91 1214 -16 
Q 841 59 441 206 
L 441 856 
Q 825 641 1194 531 
Q 1563 422 1919 422 
Q 2459 422 2753 634 
Q 3047 847 3047 1241 
Q 3047 1584 2836 1778 
Q 2625 1972 2144 2069 
L 1759 2144 
Q 1053 2284 737 2584 
Q 422 2884 422 3419 
Q 422 4038 858 4394 
Q 1294 4750 2059 4750 
Q 2388 4750 2728 4690 
Q 3069 4631 3425 4513 
z
" transform="scale(0.015625)"/>
      <path id="DejaVuSans-43" d="M 4122 4306 
L 4122 3641 
Q 3803 3938 3442 4084 
Q 3081 4231 2675 4231 
Q 1875 4231 1450 3742 
Q 1025 3253 1025 2328 
Q 1025 1406 1450 917 
Q 1875 428 2675 428 
Q 3081 428 3442 575 
Q 3803 722 4122 1019 
L 4122 359 
Q 3791 134 3420 21 
Q 3050 -91 2638 -91 
Q 1578 -91 968 557 
Q 359 1206 359 2328 
Q 359 3453 968 4101 
Q 1578 4750 2638 4750 
Q 3056 4750 3426 4639 
Q 3797 4528 4122 4306 
z
" transform="scale(0.015625)"/>
      <path id="DejaVuSans-54" d="M -19 4666 
L 3928 4666 
L 3928 4134 
L 2272 4134 
L 2272 0 
L 1638 0 
L 1638 4134 
L -19 4134 
L -19 4666 
z
" transform="scale(0.015625)"/>
      <path id="DejaVuSans-50" d="M 1259 4147 
L 1259 2394 
L 2053 2394 
Q 2494 2394 2734 2622 
Q 2975 2850 2975 3272 
Q 2975 3691 2734 3919 
Q 2494 4147 2053 4147 
L 1259 4147 
z
M 628 4666 
L 2053 4666 
Q 2838 4666 3239 4311 
Q 3641 3956 3641 3272 
Q 3641 2581 3239 2228 
Q 2838 1875 2053 1875 
L 1259 1875 
L 1259 0 
L 628 0 
L 628 4666 
z
" transform="scale(0.015625)"/>
      <path id="DejaVuSans-34" d="M 2419 4116 
L 825 1625 
L 2419 1625 
L 2419 4116 
z
M 2253 4666 
L 3047 4666 
L 3047 1625 
L 3713 1625 
L 3713 1100 
L 3047 1100 
L 3047 0 
L 2419 0 
L 2419 1100 
L 313 1100 
L 313 1709 
L 2253 4666 
z
" transform="scale(0.015625)"/>
     </defs>
     <use xlink:href="#DejaVuSans-4e"/>
     <use xlink:href="#DejaVuSans-65" x="74.804688"/>
     <use xlink:href="#DejaVuSans-30" x="136.328125"/>
     <use xlink:href="#DejaVuSans-4e" x="199.951172"/>
     <use xlink:href="#DejaVuSans-65" x="274.755859"/>
     <use xlink:href="#DejaVuSans-31" x="336.279297"/>
     <use xlink:href="#DejaVuSans-2d" x="399.902344"/>
     <use xlink:href="#DejaVuSans-4d" x="435.986328"/>
     <use xlink:href="#DejaVuSans-53" x="522.265625"/>
     <use xlink:href="#DejaVuSans-43" x="585.742188"/>
     <use xlink:href="#DejaVuSans-2d" x="655.566406"/>
     <use xlink:href="#DejaVuSans-54" x="682.525391"/>
     <use xlink:href="#DejaVuSans-2d" x="734.484375"/>
     <use xlink:href="#DejaVuSans-50" x="770.568359"/>
     <use xlink:href="#DejaVuSans-32" x="830.871094"/>
     <use xlink:href="#DejaVuSans-2d" x="894.494141"/>
     <use xlink:href="#DejaVuSans-53" x="930.578125"/>
     <use xlink:href="#DejaVuSans-34" x="994.054688"/>
    </g>
   </g>
  </g>
  <g id="axes_2">
   <g id="patch_7">
    <path d="M 225.72 192.24 
L 234.036 192.24 
L 234.036 25.92 
L 225.72 25.92 
z
" style="fill: #ffffff"/>
   </g>
   <g id="QuadMesh_1">
    <path d="M 225.72 192.24 
L 234.036 192.24 
L 234.036 186.696 
L 225.72 186.696 
L 225.72 192.24 
" clip-path="url(#p95d4f7c2f5)" style="fill: #440154"/>
    <path d="M 225.72 186.696 
L 234.036 186.696 
L 234.036 181.152 
L 225.72 181.152 
L 225.72 186.696 
" clip-path="url(#p95d4f7c2f5)" style="fill: #440154"/>
    <path d="M 225.72 181.152 
L 234.036 181.152 
L 234.036 175.608 
L 225.72 175.608 
L 225.72 181.152 
" clip-path="url(#p95d4f7c2f5)" style="fill: #440154"/>
    <path d="M 225.72 175.608 
L 234.036 175.608 
L 234.036 170.064 
L 225.72 170.064 
L 225.72 175.608 
" clip-path="url(#p95d4f7c2f5)" style="fill: #440154"/>
    <path d="M 225.72 170.064 
L 234.036 170.064 
L 234.036 164.52 
L 225.72 164.52 
L 225.72 170.064 
" clip-path="url(#p95d4f7c2f5)" style="fill: #440154"/>
    <path d="M 225.72 164.52 
L 234.036 164.52 
L 234.036 158.976 
L 225.72 158.976 
L 225.72 164.52 
" clip-path="url(#p95d4f7c2f5)" style="fill: #440154"/>
    <path d="M 225.72 158.976 
L 234.036 158.976 
L 234.036 153.432 
L 225.72 153.432 
L 225.72 158.976 
" clip-path="url(#p95d4f7c2f5)" style="fill: #440154"/>
    <path d="M 225.72 153.432 
L 234.036 153.432 
L 234.036 147.888 
L 225.72 147.888 
L 225.72 153.432 
" clip-path="url(#p95d4f7c2f5)" style="fill: #440154"/>
    <path d="M 225.72 147.888 
L 234.036 147.888 
L 234.036 142.344 
L 225.72 142.344 
L 225.72 147.888 
" clip-path="url(#p95d4f7c2f5)" style="fill: #440154"/>
    <path d="M 225.72 142.344 
L 234.036 142.344 
L 234.036 136.8 
L 225.72 136.8 
L 225.72 142.344 
" clip-path="url(#p95d4f7c2f5)" style="fill: #440154"/>
    <path d="M 225.72 136.8 
L 234.036 136.8 
L 234.036 131.256 
L 225.72 131.256 
L 225.72 136.8 
" clip-path="url(#p95d4f7c2f5)" style="fill: #440154"/>
    <path d="M 225.72 131.256 
L 234.036 131.256 
L 234.036 125.712 
L 225.72 125.712 
L 225.72 131.256 
" clip-path="url(#p95d4f7c2f5)" style="fill: #440154"/>
    <path d="M 225.72 125.712 
L 234.036 125.712 
L 234.036 120.168 
L 225.72 120.168 
L 225.72 125.712 
" clip-path="url(#p95d4f7c2f5)" style="fill: #440154"/>
    <path d="M 225.72 120.168 
L 234.036 120.168 
L 234.036 114.624 
L 225.72 114.624 
L 225.72 120.168 
" clip-path="url(#p95d4f7c2f5)" style="fill: #440154"/>
    <path d="M 225.72 114.624 
L 234.036 114.624 
L 234.036 109.08 
L 225.72 109.08 
L 225.72 114.624 
" clip-path="url(#p95d4f7c2f5)" style="fill: #440154"/>
    <path d="M 225.72 109.08 
L 234.036 109.08 
L 234.036 103.536 
L 225.72 103.536 
L 225.72 109.08 
" clip-path="url(#p95d4f7c2f5)" style="fill: #471365"/>
    <path d="M 225.72 103.536 
L 234.036 103.536 
L 234.036 97.992 
L 225.72 97.992 
L 225.72 103.536 
" clip-path="url(#p95d4f7c2f5)" style="fill: #482878"/>
    <path d="M 225.72 97.992 
L 234.036 97.992 
L 234.036 92.448 
L 225.72 92.448 
L 225.72 97.992 
" clip-path="url(#p95d4f7c2f5)" style="fill: #433d84"/>
    <path d="M 225.72 92.448 
L 234.036 92.448 
L 234.036 86.904 
L 225.72 86.904 
L 225.72 92.448 
" clip-path="url(#p95d4f7c2f5)" style="fill: #3c508b"/>
    <path d="M 225.72 86.904 
L 234.036 86.904 
L 234.036 81.36 
L 225.72 81.36 
L 225.72 86.904 
" clip-path="url(#p95d4f7c2f5)" style="fill: #33628d"/>
    <path d="M 225.72 81.36 
L 234.036 81.36 
L 234.036 75.816 
L 225.72 75.816 
L 225.72 81.36 
" clip-path="url(#p95d4f7c2f5)" style="fill: #2c728e"/>
    <path d="M 225.72 75.816 
L 234.036 75.816 
L 234.036 70.272 
L 225.72 70.272 
L 225.72 75.816 
" clip-path="url(#p95d4f7c2f5)" style="fill: #26828e"/>
    <path d="M 225.72 70.272 
L 234.036 70.272 
L 234.036 64.728 
L 225.72 64.728 
L 225.72 70.272 
" clip-path="url(#p95d4f7c2f5)" style="fill: #20928c"/>
    <path d="M 225.72 64.728 
L 234.036 64.728 
L 234.036 59.184 
L 225.72 59.184 
L 225.72 64.728 
" clip-path="url(#p95d4f7c2f5)" style="fill: #1fa187"/>
    <path d="M 225.72 59.184 
L 234.036 59.184 
L 234.036 53.64 
L 225.72 53.64 
L 225.72 59.184 
" clip-path="url(#p95d4f7c2f5)" style="fill: #2cb17e"/>
    <path d="M 225.72 53.64 
L 234.036 53.64 
L 234.036 48.096 
L 225.72 48.096 
L 225.72 53.64 
" clip-path="url(#p95d4f7c2f5)" style="fill: #46c06f"/>
    <path d="M 225.72 48.096 
L 234.036 48.096 
L 234.036 42.552 
L 225.72 42.552 
L 225.72 48.096 
" clip-path="url(#p95d4f7c2f5)" style="fill: #69cd5b"/>
    <path d="M 225.72 42.552 
L 234.036 42.552 
L 234.036 37.008 
L 225.72 37.008 
L 225.72 42.552 
" clip-path="url(#p95d4f7c2f5)" style="fill: #90d743"/>
    <path d="M 225.72 37.008 
L 234.036 37.008 
L 234.036 31.464 
L 225.72 31.464 
L 225.72 37.008 
" clip-path="url(#p95d4f7c2f5)" style="fill: #bddf26"/>
    <path d="M 225.72 31.464 
L 234.036 31.464 
L 234.036 25.92 
L 225.72 25.92 
L 225.72 31.464 
" clip-path="url(#p95d4f7c2f5)" style="fill: #eae51a"/>
   </g>
   <g id="matplotlib.axis_3"/>
   <g id="matplotlib.axis_4">
    <g id="ytick_4">
     <g id="line2d_7">
      <defs>
       <path id="mfc0b15ec2f" d="M 0 0 
L 3.5 0 
" style="stroke: #000000; stroke-width: 0.8"/>
      </defs>
      <g>
       <use xlink:href="#mfc0b15ec2f" x="234.036" y="181.152" style="stroke: #000000; stroke-width: 0.8"/>
      </g>
     </g>
     <g id="text_12">
      <!-- 2000 -->
      <g transform="translate(241.036 184.951219) scale(0.1 -0.1)">
       <defs>
        <path id="DejaVuSans-2212" d="M 678 2272 
L 4684 2272 
L 4684 1741 
L 678 1741 
L 678 2272 
z
" transform="scale(0.015625)"/>
       </defs>
       <use xlink:href="#DejaVuSans-2212"/>
       <use xlink:href="#DejaVuSans-32" x="83.789062"/>
       <use xlink:href="#DejaVuSans-30" x="147.412109"/>
       <use xlink:href="#DejaVuSans-30" x="211.035156"/>
       <use xlink:href="#DejaVuSans-30" x="274.658203"/>
      </g>
     </g>
    </g>
    <g id="ytick_5">
     <g id="line2d_8">
      <g>
       <use xlink:href="#mfc0b15ec2f" x="234.036" y="158.976" style="stroke: #000000; stroke-width: 0.8"/>
      </g>
     </g>
     <g id="text_13">
      <!-- 1968 -->
      <g transform="translate(241.036 162.775219) scale(0.1 -0.1)">
       <defs>
        <path id="DejaVuSans-39" d="M 703 97 
L 703 672 
Q 941 559 1184 500 
Q 1428 441 1663 441 
Q 2288 441 2617 861 
Q 2947 1281 2994 2138 
Q 2813 1869 2534 1725 
Q 2256 1581 1919 1581 
Q 1219 1581 811 2004 
Q 403 2428 403 3163 
Q 403 3881 828 4315 
Q 1253 4750 1959 4750 
Q 2769 4750 3195 4129 
Q 3622 3509 3622 2328 
Q 3622 1225 3098 567 
Q 2575 -91 1691 -91 
Q 1453 -91 1209 -44 
Q 966 3 703 97 
z
M 1959 2075 
Q 2384 2075 2632 2365 
Q 2881 2656 2881 3163 
Q 2881 3666 2632 3958 
Q 2384 4250 1959 4250 
Q 1534 4250 1286 3958 
Q 1038 3666 1038 3163 
Q 1038 2656 1286 2365 
Q 1534 2075 1959 2075 
z
" transform="scale(0.015625)"/>
        <path id="DejaVuSans-36" d="M 2113 2584 
Q 1688 2584 1439 2293 
Q 1191 2003 1191 1497 
Q 1191 994 1439 701 
Q 1688 409 2113 409 
Q 2538 409 2786 701 
Q 3034 994 3034 1497 
Q 3034 2003 2786 2293 
Q 2538 2584 2113 2584 
z
M 3366 4563 
L 3366 3988 
Q 3128 4100 2886 4159 
Q 2644 4219 2406 4219 
Q 1781 4219 1451 3797 
Q 1122 3375 1075 2522 
Q 1259 2794 1537 2939 
Q 1816 3084 2150 3084 
Q 2853 3084 3261 2657 
Q 3669 2231 3669 1497 
Q 3669 778 3244 343 
Q 2819 -91 2113 -91 
Q 1303 -91 875 529 
Q 447 1150 447 2328 
Q 447 3434 972 4092 
Q 1497 4750 2381 4750 
Q 2619 4750 2861 4703 
Q 3103 4656 3366 4563 
z
" transform="scale(0.015625)"/>
        <path id="DejaVuSans-38" d="M 2034 2216 
Q 1584 2216 1326 1975 
Q 1069 1734 1069 1313 
Q 1069 891 1326 650 
Q 1584 409 2034 409 
Q 2484 409 2743 651 
Q 3003 894 3003 1313 
Q 3003 1734 2745 1975 
Q 2488 2216 2034 2216 
z
M 1403 2484 
Q 997 2584 770 2862 
Q 544 3141 544 3541 
Q 544 4100 942 4425 
Q 1341 4750 2034 4750 
Q 2731 4750 3128 4425 
Q 3525 4100 3525 3541 
Q 3525 3141 3298 2862 
Q 3072 2584 2669 2484 
Q 3125 2378 3379 2068 
Q 3634 1759 3634 1313 
Q 3634 634 3220 271 
Q 2806 -91 2034 -91 
Q 1263 -91 848 271 
Q 434 634 434 1313 
Q 434 1759 690 2068 
Q 947 2378 1403 2484 
z
M 1172 3481 
Q 1172 3119 1398 2916 
Q 1625 2713 2034 2713 
Q 2441 2713 2670 2916 
Q 2900 3119 2900 3481 
Q 2900 3844 2670 4047 
Q 2441 4250 2034 4250 
Q 1625 4250 1398 4047 
Q 1172 3844 1172 3481 
z
" transform="scale(0.015625)"/>
       </defs>
       <use xlink:href="#DejaVuSans-2212"/>
       <use xlink:href="#DejaVuSans-31" x="83.789062"/>
       <use xlink:href="#DejaVuSans-39" x="147.412109"/>
       <use xlink:href="#DejaVuSans-36" x="211.035156"/>
       <use xlink:href="#DejaVuSans-38" x="274.658203"/>
      </g>
     </g>
    </g>
    <g id="ytick_6">
     <g id="line2d_9">
      <g>
       <use xlink:href="#mfc0b15ec2f" x="234.036" y="136.8" style="stroke: #000000; stroke-width: 0.8"/>
      </g>
     </g>
     <g id="text_14">
      <!-- 1936 -->
      <g transform="translate(241.036 140.599219) scale(0.1 -0.1)">
       <use xlink:href="#DejaVuSans-2212"/>
       <use xlink:href="#DejaVuSans-31" x="83.789062"/>
       <use xlink:href="#DejaVuSans-39" x="147.412109"/>
       <use xlink:href="#DejaVuSans-33" x="211.035156"/>
       <use xlink:href="#DejaVuSans-36" x="274.658203"/>
      </g>
     </g>
    </g>
    <g id="ytick_7">
     <g id="line2d_10">
      <g>
       <use xlink:href="#mfc0b15ec2f" x="234.036" y="114.624" style="stroke: #000000; stroke-width: 0.8"/>
      </g>
     </g>
     <g id="text_15">
      <!-- 1904 -->
      <g transform="translate(241.036 118.423219) scale(0.1 -0.1)">
       <use xlink:href="#DejaVuSans-2212"/>
       <use xlink:href="#DejaVuSans-31" x="83.789062"/>
       <use xlink:href="#DejaVuSans-39" x="147.412109"/>
       <use xlink:href="#DejaVuSans-30" x="211.035156"/>
       <use xlink:href="#DejaVuSans-34" x="274.658203"/>
      </g>
     </g>
    </g>
    <g id="ytick_8">
     <g id="line2d_11">
      <g>
       <use xlink:href="#mfc0b15ec2f" x="234.036" y="92.448" style="stroke: #000000; stroke-width: 0.8"/>
      </g>
     </g>
     <g id="text_16">
      <!-- 1872 -->
      <g transform="translate(241.036 96.247219) scale(0.1 -0.1)">
       <use xlink:href="#DejaVuSans-2212"/>
       <use xlink:href="#DejaVuSans-31" x="83.789062"/>
       <use xlink:href="#DejaVuSans-38" x="147.412109"/>
       <use xlink:href="#DejaVuSans-37" x="211.035156"/>
       <use xlink:href="#DejaVuSans-32" x="274.658203"/>
      </g>
     </g>
    </g>
    <g id="ytick_9">
     <g id="line2d_12">
      <g>
       <use xlink:href="#mfc0b15ec2f" x="234.036" y="70.272" style="stroke: #000000; stroke-width: 0.8"/>
      </g>
     </g>
     <g id="text_17">
      <!-- 1840 -->
      <g transform="translate(241.036 74.071219) scale(0.1 -0.1)">
       <use xlink:href="#DejaVuSans-2212"/>
       <use xlink:href="#DejaVuSans-31" x="83.789062"/>
       <use xlink:href="#DejaVuSans-38" x="147.412109"/>
       <use xlink:href="#DejaVuSans-34" x="211.035156"/>
       <use xlink:href="#DejaVuSans-30" x="274.658203"/>
      </g>
     </g>
    </g>
    <g id="ytick_10">
     <g id="line2d_13">
      <g>
       <use xlink:href="#mfc0b15ec2f" x="234.036" y="48.096" style="stroke: #000000; stroke-width: 0.8"/>
      </g>
     </g>
     <g id="text_18">
      <!-- 1808 -->
      <g transform="translate(241.036 51.895219) scale(0.1 -0.1)">
       <use xlink:href="#DejaVuSans-2212"/>
       <use xlink:href="#DejaVuSans-31" x="83.789062"/>
       <use xlink:href="#DejaVuSans-38" x="147.412109"/>
       <use xlink:href="#DejaVuSans-30" x="211.035156"/>
       <use xlink:href="#DejaVuSans-38" x="274.658203"/>
      </g>
     </g>
    </g>
    <g id="ytick_11">
     <g id="line2d_14">
      <g>
       <use xlink:href="#mfc0b15ec2f" x="234.036" y="25.92" style="stroke: #000000; stroke-width: 0.8"/>
      </g>
     </g>
     <g id="text_19">
      <!-- 1776 -->
      <g transform="translate(241.036 29.719219) scale(0.1 -0.1)">
       <use xlink:href="#DejaVuSans-2212"/>
       <use xlink:href="#DejaVuSans-31" x="83.789062"/>
       <use xlink:href="#DejaVuSans-37" x="147.412109"/>
       <use xlink:href="#DejaVuSans-37" x="211.035156"/>
       <use xlink:href="#DejaVuSans-36" x="274.658203"/>
      </g>
     </g>
    </g>
    <g id="text_20">
     <!-- log likelihood -->
     <g transform="translate(287.983813 148.704375) rotate(-90) scale(0.12 -0.12)">
      <defs>
       <path id="DejaVuSans-67" d="M 2906 1791 
Q 2906 2416 2648 2759 
Q 2391 3103 1925 3103 
Q 1463 3103 1205 2759 
Q 947 2416 947 1791 
Q 947 1169 1205 825 
Q 1463 481 1925 481 
Q 2391 481 2648 825 
Q 2906 1169 2906 1791 
z
M 3481 434 
Q 3481 -459 3084 -895 
Q 2688 -1331 1869 -1331 
Q 1566 -1331 1297 -1286 
Q 1028 -1241 775 -1147 
L 775 -588 
Q 1028 -725 1275 -790 
Q 1522 -856 1778 -856 
Q 2344 -856 2625 -561 
Q 2906 -266 2906 331 
L 2906 616 
Q 2728 306 2450 153 
Q 2172 0 1784 0 
Q 1141 0 747 490 
Q 353 981 353 1791 
Q 353 2603 747 3093 
Q 1141 3584 1784 3584 
Q 2172 3584 2450 3431 
Q 2728 3278 2906 2969 
L 2906 3500 
L 3481 3500 
L 3481 434 
z
" transform="scale(0.015625)"/>
       <path id="DejaVuSans-6b" d="M 581 4863 
L 1159 4863 
L 1159 1991 
L 2875 3500 
L 3609 3500 
L 1753 1863 
L 3688 0 
L 2938 0 
L 1159 1709 
L 1159 0 
L 581 0 
L 581 4863 
z
" transform="scale(0.015625)"/>
       <path id="DejaVuSans-68" d="M 3513 2113 
L 3513 0 
L 2938 0 
L 2938 2094 
Q 2938 2591 2744 2837 
Q 2550 3084 2163 3084 
Q 1697 3084 1428 2787 
Q 1159 2491 1159 1978 
L 1159 0 
L 581 0 
L 581 4863 
L 1159 4863 
L 1159 2956 
Q 1366 3272 1645 3428 
Q 1925 3584 2291 3584 
Q 2894 3584 3203 3211 
Q 3513 2838 3513 2113 
z
" transform="scale(0.015625)"/>
      </defs>
      <use xlink:href="#DejaVuSans-6c"/>
      <use xlink:href="#DejaVuSans-6f" x="27.783203"/>
      <use xlink:href="#DejaVuSans-67" x="88.964844"/>
      <use xlink:href="#DejaVuSans-20" x="152.441406"/>
      <use xlink:href="#DejaVuSans-6c" x="184.228516"/>
      <use xlink:href="#DejaVuSans-69" x="212.011719"/>
      <use xlink:href="#DejaVuSans-6b" x="239.794922"/>
      <use xlink:href="#DejaVuSans-65" x="294.080078"/>
      <use xlink:href="#DejaVuSans-6c" x="355.603516"/>
      <use xlink:href="#DejaVuSans-69" x="383.386719"/>
      <use xlink:href="#DejaVuSans-68" x="411.169922"/>
      <use xlink:href="#DejaVuSans-6f" x="474.548828"/>
      <use xlink:href="#DejaVuSans-6f" x="535.730469"/>
      <use xlink:href="#DejaVuSans-64" x="596.912109"/>
     </g>
    </g>
    <g id="text_21">
     <!-- 1e3 -->
     <g transform="translate(215.157875 22.92) scale(0.1 -0.1)">
      <use xlink:href="#DejaVuSans-31"/>
      <use xlink:href="#DejaVuSans-65" x="63.623047"/>
      <use xlink:href="#DejaVuSans-33" x="125.146484"/>
     </g>
    </g>
   </g>
   <g id="LineCollection_1"/>
   <g id="patch_8">
    <path d="M 225.72 192.24 
L 229.878 192.24 
L 234.036 192.24 
L 234.036 25.92 
L 229.878 25.92 
L 225.72 25.92 
L 225.72 192.24 
z
" style="fill: none; stroke: #000000; stroke-width: 0.8; stroke-linejoin: miter; stroke-linecap: square"/>
   </g>
  </g>
 </g>
 <defs>
  <clipPath id="p12c04013ca">
   <rect x="36" y="25.92" width="178.56" height="166.32"/>
  </clipPath>
  <clipPath id="p95d4f7c2f5">
   <rect x="225.72" y="25.92" width="8.316" height="166.32"/>
  </clipPath>
 </defs>
</svg>
