<?xml version="1.0" encoding="utf-8" standalone="no"?>
<!DOCTYPE svg PUBLIC "-//W3C//DTD SVG 1.1//EN"
  "http://www.w3.org/Graphics/SVG/1.1/DTD/svg11.dtd">
<svg xmlns:xlink="http://www.w3.org/1999/xlink" width="288pt" height="216pt" viewBox="0 0 288 216" xmlns="http://www.w3.org/2000/svg" version="1.1">
 <metadata>
  <rdf:RDF xmlns:dc="http://purl.org/dc/elements/1.1/" xmlns:cc="http://creativecommons.org/ns#" xmlns:rdf="http://www.w3.org/1999/02/22-rdf-syntax-ns#">
   <cc:Work>
    <dc:type rdf:resource="http://purl.org/dc/dcmitype/StillImage"/>
    <dc:date>2024-12-14T18:10:14.461646</dc:date>
    <dc:format>image/svg+xml</dc:format>
    <dc:creator>
     <cc:Agent>
      <dc:title>Matplotlib v3.8.4, https://matplotlib.org/</dc:title>
     </cc:Agent>
    </dc:creator>
   </cc:Work>
  </rdf:RDF>
 </metadata>
 <defs>
  <style type="text/css">*{stroke-linejoin: round; stroke-linecap: butt}</style>
 </defs>
 <g id="figure_1">
  <g id="patch_1">
   <path d="M 0 216 
L 288 216 
L 288 0 
L 0 0 
z
" style="fill: #ffffff"/>
  </g>
  <g id="axes_1">
   <g id="patch_2">
    <path d="M 36 192.24 
L 214.56 192.24 
L 214.56 25.92 
L 36 25.92 
z
" style="fill: #ffffff"/>
   </g>
   <g id="QuadContourSet_1">
    <path d="M 58.859369 147.888 
L 58.180068 142.344 
L 57.779227 136.8 
L 57.630893 131.256 
L 57.726188 125.712 
L 58.07037 120.168 
L 58.682314 114.624 
L 59.596054 109.08 
L 59.808 108.07851 
L 60.786729 109.08 
L 65.76 112.747529 
L 66.242376 114.624 
L 67.703551 120.168 
L 69.29403 125.712 
L 71.017382 131.256 
L 71.712 133.560864 
L 72.229993 136.8 
L 72.946004 142.344 
L 73.38237 147.888 
L 73.292545 153.432 
L 72.218683 158.976 
L 71.712 160.042447 
L 65.76 161.831084 
L 63.459689 158.976 
L 59.968809 153.432 
L 59.808 153.091963 
z
" clip-path="url(#pf91a8d6a9b)" style="fill: #eae51a"/>
    <path d="M 53.818014 125.712 
L 53.834355 120.168 
L 53.856 119.049244 
L 54.058728 114.624 
L 54.549197 109.08 
L 55.317438 103.536 
L 56.420683 97.992 
L 57.945218 92.448 
L 59.808 87.415964 
L 62.47352 92.448 
L 65.76 97.144212 
L 65.967635 97.992 
L 67.374931 103.536 
L 68.929715 109.08 
L 70.660446 114.624 
L 71.712 117.765946 
L 72.202735 120.168 
L 73.329288 125.712 
L 74.467742 131.256 
L 75.581331 136.8 
L 76.603127 142.344 
L 77.411302 147.888 
L 77.664 151.80556 
L 77.738176 153.432 
L 77.664 154.863674 
L 77.285056 158.976 
L 75.081701 164.52 
L 71.712 168.022187 
L 65.76 168.10756 
L 61.699441 164.52 
L 59.808 162.263448 
L 58.536511 158.976 
L 56.97531 153.432 
L 55.808197 147.888 
L 54.94667 142.344 
L 54.33818 136.8 
L 53.952894 131.256 
L 53.856 128.106953 
z
M 59.808 153.091963 
L 59.968809 153.432 
L 63.459689 158.976 
L 65.76 161.831084 
L 71.712 160.042447 
L 72.218683 158.976 
L 73.292545 153.432 
L 73.38237 147.888 
L 72.946004 142.344 
L 72.229993 136.8 
L 71.712 133.560864 
L 71.017382 131.256 
L 69.29403 125.712 
L 67.703551 120.168 
L 66.242376 114.624 
L 65.76 112.747529 
L 60.786729 109.08 
L 59.808 108.07851 
L 59.596054 109.08 
L 58.682314 114.624 
L 58.07037 120.168 
L 57.726188 125.712 
L 57.630893 131.256 
L 57.779227 136.8 
L 58.180068 142.344 
L 58.859369 147.888 
z
" clip-path="url(#pf91a8d6a9b)" style="fill: #bddf26"/>
    <path d="M 53.243032 147.888 
L 52.699395 142.344 
L 52.314903 136.8 
L 52.062085 131.256 
L 51.922081 125.712 
L 51.881685 120.168 
L 51.931555 114.624 
L 52.065084 109.08 
L 52.277668 103.536 
L 52.566231 97.992 
L 52.928895 92.448 
L 53.364759 86.904 
L 53.856 81.547151 
L 53.920854 81.36 
L 56.334968 75.816 
L 59.808 70.356882 
L 61.92784 75.816 
L 64.555822 81.36 
L 65.76 83.54979 
L 66.533738 86.904 
L 67.902854 92.448 
L 69.411181 97.992 
L 71.085257 103.536 
L 71.712 105.493292 
L 72.454965 109.08 
L 73.64611 114.624 
L 74.899627 120.168 
L 76.210143 125.712 
L 77.564019 131.256 
L 77.664 131.691734 
L 78.546293 136.8 
L 79.423742 142.344 
L 80.147607 147.888 
L 80.586759 153.432 
L 80.514742 158.976 
L 79.527567 164.52 
L 77.664 168.514018 
L 76.20165 170.064 
L 71.712 172.421012 
L 65.76 172.134465 
L 62.398166 170.064 
L 59.808 167.763304 
L 58.011064 164.52 
L 55.784497 158.976 
L 54.08388 153.432 
L 53.856 152.436689 
z
M 53.856 128.106953 
L 53.952894 131.256 
L 54.33818 136.8 
L 54.94667 142.344 
L 55.808197 147.888 
L 56.97531 153.432 
L 58.536511 158.976 
L 59.808 162.263448 
L 61.699441 164.52 
L 65.76 168.10756 
L 71.712 168.022187 
L 75.081701 164.52 
L 77.285056 158.976 
L 77.664 154.863674 
L 77.738176 153.432 
L 77.664 151.80556 
L 77.411302 147.888 
L 76.603127 142.344 
L 75.581331 136.8 
L 74.467742 131.256 
L 73.329288 125.712 
L 72.202735 120.168 
L 71.712 117.765946 
L 70.660446 114.624 
L 68.929715 109.08 
L 67.374931 103.536 
L 65.967635 97.992 
L 65.76 97.144212 
L 62.47352 92.448 
L 59.808 87.415964 
L 57.945218 92.448 
L 56.420683 97.992 
L 55.317438 103.536 
L 54.549197 109.08 
L 54.058728 114.624 
L 53.856 119.049244 
L 53.834355 120.168 
L 53.818014 125.712 
z
" clip-path="url(#pf91a8d6a9b)" style="fill: #90d743"/>
    <path d="M 53.369489 158.976 
L 52.325071 153.432 
L 51.541201 147.888 
L 50.954066 142.344 
L 50.522667 136.8 
L 50.219632 131.256 
L 50.026148 125.712 
L 49.929015 120.168 
L 49.918861 114.624 
L 49.989014 109.08 
L 50.134783 103.536 
L 50.352971 97.992 
L 50.641556 92.448 
L 50.999469 86.904 
L 51.426446 81.36 
L 51.922927 75.816 
L 52.489992 70.272 
L 53.129324 64.728 
L 53.843195 59.184 
L 53.856 59.090956 
L 59.808 54.623078 
L 61.228767 59.184 
L 63.199961 64.728 
L 65.520022 70.272 
L 65.76 70.796875 
L 66.842785 75.816 
L 68.138798 81.36 
L 69.557485 86.904 
L 71.12038 92.448 
L 71.712 94.42465 
L 72.432867 97.992 
L 73.606186 103.536 
L 74.85518 109.08 
L 76.184352 114.624 
L 77.596519 120.168 
L 77.664 120.434586 
L 78.698329 125.712 
L 79.794418 131.256 
L 80.876973 136.8 
L 81.902544 142.344 
L 82.797412 147.888 
L 83.435342 153.432 
L 83.595946 158.976 
L 82.882634 164.52 
L 80.549859 170.064 
L 77.664 173.138612 
L 72.563435 175.608 
L 71.712 175.824302 
L 67.798137 175.608 
L 65.76 175.427641 
L 59.808 171.661099 
L 58.504011 170.064 
L 55.379587 164.52 
L 53.856 160.865029 
z
M 53.856 152.436689 
L 54.08388 153.432 
L 55.784497 158.976 
L 58.011064 164.52 
L 59.808 167.763304 
L 62.398166 170.064 
L 65.76 172.134465 
L 71.712 172.421012 
L 76.20165 170.064 
L 77.664 168.514018 
L 79.527567 164.52 
L 80.514742 158.976 
L 80.586759 153.432 
L 80.147607 147.888 
L 79.423742 142.344 
L 78.546293 136.8 
L 77.664 131.691734 
L 77.564019 131.256 
L 76.210143 125.712 
L 74.899627 120.168 
L 73.64611 114.624 
L 72.454965 109.08 
L 71.712 105.493292 
L 71.085257 103.536 
L 69.411181 97.992 
L 67.902854 92.448 
L 66.533738 86.904 
L 65.76 83.54979 
L 64.555822 81.36 
L 61.92784 75.816 
L 59.808 70.356882 
L 56.334968 75.816 
L 53.920854 81.36 
L 53.856 81.547151 
L 53.364759 86.904 
L 52.928895 92.448 
L 52.566231 97.992 
L 52.277668 103.536 
L 52.065084 109.08 
L 51.931555 114.624 
L 51.881685 120.168 
L 51.922081 125.712 
L 52.062085 131.256 
L 52.314903 136.8 
L 52.699395 142.344 
L 53.243032 147.888 
z
" clip-path="url(#pf91a8d6a9b)" style="fill: #67cc5c"/>
    <path d="M 53.184938 164.52 
L 51.743677 158.976 
L 50.663163 153.432 
L 49.839371 147.888 
L 49.208738 142.344 
L 48.730431 136.8 
L 48.377178 131.256 
L 48.130215 125.712 
L 47.976346 120.168 
L 47.906167 114.624 
L 47.912945 109.08 
L 47.991897 103.536 
L 48.13971 97.992 
L 48.354216 92.448 
L 48.634178 86.904 
L 48.979135 81.36 
L 49.389302 75.816 
L 49.865506 70.272 
L 50.409147 64.728 
L 51.022176 59.184 
L 51.707101 53.64 
L 52.466994 48.096 
L 53.305527 42.552 
L 53.856 39.188397 
L 59.808 39.480119 
L 60.610017 42.552 
L 62.191685 48.096 
L 63.983048 53.64 
L 65.76 58.483145 
L 65.896256 59.184 
L 67.01811 64.728 
L 68.232067 70.272 
L 69.551953 75.816 
L 70.994688 81.36 
L 71.712 83.945192 
L 72.284736 86.904 
L 73.407326 92.448 
L 74.605159 97.992 
L 75.885368 103.536 
L 77.255396 109.08 
L 77.664 110.687014 
L 78.456018 114.624 
L 79.602253 120.168 
L 80.786455 125.712 
L 81.995923 131.256 
L 83.207652 136.8 
L 83.616 138.807056 
L 84.228467 142.344 
L 85.062362 147.888 
L 85.69228 153.432 
L 85.958712 158.976 
L 85.584633 164.52 
L 84.066303 170.064 
L 83.616 170.795716 
L 79.166775 175.608 
L 77.664 176.408619 
L 71.712 177.880977 
L 65.76 177.471661 
L 61.146353 175.608 
L 59.808 174.758655 
L 55.974939 170.064 
L 53.856 166.374161 
z
M 53.856 160.865029 
L 55.379587 164.52 
L 58.504011 170.064 
L 59.808 171.661099 
L 65.76 175.427641 
L 67.798137 175.608 
L 71.712 175.824302 
L 72.563435 175.608 
L 77.664 173.138612 
L 80.549859 170.064 
L 82.882634 164.52 
L 83.595946 158.976 
L 83.435342 153.432 
L 82.797412 147.888 
L 81.902544 142.344 
L 80.876973 136.8 
L 79.794418 131.256 
L 78.698329 125.712 
L 77.664 120.434586 
L 77.596519 120.168 
L 76.184352 114.624 
L 74.85518 109.08 
L 73.606186 103.536 
L 72.432867 97.992 
L 71.712 94.42465 
L 71.12038 92.448 
L 69.557485 86.904 
L 68.138798 81.36 
L 66.842785 75.816 
L 65.76 70.796875 
L 65.520022 70.272 
L 63.199961 64.728 
L 61.228767 59.184 
L 59.808 54.623078 
L 53.856 59.090956 
L 53.843195 59.184 
L 53.129324 64.728 
L 52.489992 70.272 
L 51.922927 75.816 
L 51.426446 81.36 
L 50.999469 86.904 
L 50.641556 92.448 
L 50.352971 97.992 
L 50.134783 103.536 
L 49.989014 109.08 
L 49.918861 114.624 
L 49.929015 120.168 
L 50.026148 125.712 
L 50.219632 131.256 
L 50.522667 136.8 
L 50.954066 142.344 
L 51.541201 147.888 
L 52.325071 153.432 
L 53.369489 158.976 
z
" clip-path="url(#pf91a8d6a9b)" style="fill: #44bf70"/>
    <path d="M 47.637011 142.344 
L 47.327501 136.8 
L 47.099406 131.256 
L 46.938734 125.712 
L 46.835176 120.168 
L 46.780917 114.624 
L 46.769879 109.08 
L 46.797228 103.536 
L 46.859044 97.992 
L 46.952095 92.448 
L 47.073675 86.904 
L 47.221485 81.36 
L 47.393555 75.816 
L 47.588174 70.272 
L 47.803844 64.728 
L 47.904 62.351182 
L 48.201157 59.184 
L 48.779734 53.64 
L 49.427376 48.096 
L 50.147306 42.552 
L 50.943338 37.008 
L 51.819923 31.464 
L 52.782212 25.92 
L 53.856 25.92 
L 59.808 25.92 
L 60.106905 25.92 
L 61.428547 31.464 
L 62.89054 37.008 
L 64.520739 42.552 
L 65.76 46.372311 
L 66.072792 48.096 
L 67.125847 53.64 
L 68.259011 59.184 
L 69.483298 64.728 
L 70.811964 70.272 
L 71.712 73.778645 
L 72.086378 75.816 
L 73.146759 81.36 
L 74.277081 86.904 
L 75.48461 92.448 
L 76.777451 97.992 
L 77.664 101.596388 
L 78.04797 103.536 
L 79.173868 109.08 
L 80.355076 114.624 
L 81.590249 120.168 
L 82.87458 125.712 
L 83.616 128.891222 
L 84.091643 131.256 
L 85.172344 136.8 
L 86.212124 142.344 
L 87.155275 147.888 
L 87.909155 153.432 
L 88.316771 158.976 
L 88.103951 164.52 
L 86.76999 170.064 
L 83.616 175.189047 
L 83.228654 175.608 
L 77.664 178.572626 
L 71.712 179.937652 
L 65.76 179.443303 
L 59.808 176.992964 
L 58.033516 175.608 
L 53.856 170.544558 
L 53.601923 170.064 
L 51.591024 164.52 
L 50.117864 158.976 
L 49.001255 153.432 
L 48.13754 147.888 
L 47.904 145.935581 
z
M 53.856 166.374161 
L 55.974939 170.064 
L 59.808 174.758655 
L 61.146353 175.608 
L 65.76 177.471661 
L 71.712 177.880977 
L 77.664 176.408619 
L 79.166775 175.608 
L 83.616 170.795716 
L 84.066303 170.064 
L 85.584633 164.52 
L 85.958712 158.976 
L 85.69228 153.432 
L 85.062362 147.888 
L 84.228467 142.344 
L 83.616 138.807056 
L 83.207652 136.8 
L 81.995923 131.256 
L 80.786455 125.712 
L 79.602253 120.168 
L 78.456018 114.624 
L 77.664 110.687014 
L 77.255396 109.08 
L 75.885368 103.536 
L 74.605159 97.992 
L 73.407326 92.448 
L 72.284736 86.904 
L 71.712 83.945192 
L 70.994688 81.36 
L 69.551953 75.816 
L 68.232067 70.272 
L 67.01811 64.728 
L 65.896256 59.184 
L 65.76 58.483145 
L 63.983048 53.64 
L 62.191685 48.096 
L 60.610017 42.552 
L 59.808 39.480119 
L 53.856 39.188397 
L 53.305527 42.552 
L 52.466994 48.096 
L 51.707101 53.64 
L 51.022176 59.184 
L 50.409147 64.728 
L 49.865506 70.272 
L 49.389302 75.816 
L 48.979135 81.36 
L 48.634178 86.904 
L 48.354216 92.448 
L 48.13971 97.992 
L 47.991897 103.536 
L 47.912945 109.08 
L 47.906167 114.624 
L 47.976346 120.168 
L 48.130215 125.712 
L 48.377178 131.256 
L 48.730431 136.8 
L 49.208738 142.344 
L 49.839371 147.888 
L 50.663163 153.432 
L 51.743677 158.976 
L 53.184938 164.52 
z
" clip-path="url(#pf91a8d6a9b)" style="fill: #2ab07f"/>
    <path d="M 47.552094 153.432 
L 47.001338 147.888 
L 46.579377 142.344 
L 46.257697 136.8 
L 46.01677 131.256 
L 45.842692 125.712 
L 45.725229 120.168 
L 45.656625 114.624 
L 45.630851 109.08 
L 45.643116 103.536 
L 45.689536 97.992 
L 45.766911 92.448 
L 45.872558 86.904 
L 46.004203 81.36 
L 46.159895 75.816 
L 46.337939 70.272 
L 46.536852 64.728 
L 46.755327 59.184 
L 46.992201 53.64 
L 47.246433 48.096 
L 47.517088 42.552 
L 47.803319 37.008 
L 47.904 35.137838 
L 48.403397 31.464 
L 49.224801 25.92 
L 52.782212 25.92 
L 51.819923 31.464 
L 50.943338 37.008 
L 50.147306 42.552 
L 49.427376 48.096 
L 48.779734 53.64 
L 48.201157 59.184 
L 47.904 62.351182 
L 47.803844 64.728 
L 47.588174 70.272 
L 47.393555 75.816 
L 47.221485 81.36 
L 47.073675 86.904 
L 46.952095 92.448 
L 46.859044 97.992 
L 46.797228 103.536 
L 46.769879 109.08 
L 46.780917 114.624 
L 46.835176 120.168 
L 46.938734 125.712 
L 47.099406 131.256 
L 47.327501 136.8 
L 47.637011 142.344 
L 47.904 145.935581 
L 48.13754 147.888 
L 49.001255 153.432 
L 50.117864 158.976 
L 51.591024 164.52 
L 53.601923 170.064 
L 53.856 170.544558 
L 58.033516 175.608 
L 59.808 176.992964 
L 65.76 179.443303 
L 71.712 179.937652 
L 77.664 178.572626 
L 83.228654 175.608 
L 83.616 175.189047 
L 86.76999 170.064 
L 88.103951 164.52 
L 88.316771 158.976 
L 87.909155 153.432 
L 87.155275 147.888 
L 86.212124 142.344 
L 85.172344 136.8 
L 84.091643 131.256 
L 83.616 128.891222 
L 82.87458 125.712 
L 81.590249 120.168 
L 80.355076 114.624 
L 79.173868 109.08 
L 78.04797 103.536 
L 77.664 101.596388 
L 76.777451 97.992 
L 75.48461 92.448 
L 74.277081 86.904 
L 73.146759 81.36 
L 72.086378 75.816 
L 71.712 73.778645 
L 70.811964 70.272 
L 69.483298 64.728 
L 68.259011 59.184 
L 67.125847 53.64 
L 66.072792 48.096 
L 65.76 46.372311 
L 64.520739 42.552 
L 62.89054 37.008 
L 61.428547 31.464 
L 60.106905 25.92 
L 63.439013 25.92 
L 64.929149 31.464 
L 65.76 34.32389 
L 66.215264 37.008 
L 67.202995 42.552 
L 68.260504 48.096 
L 69.396608 53.64 
L 70.621766 59.184 
L 71.712 63.773784 
L 71.877719 64.728 
L 72.87394 70.272 
L 73.933422 75.816 
L 75.062758 81.36 
L 76.269425 86.904 
L 77.561895 92.448 
L 77.664 92.873102 
L 78.660779 97.992 
L 79.796325 103.536 
L 80.993505 109.08 
L 82.254135 114.624 
L 83.578245 120.168 
L 83.616 120.326583 
L 84.727971 125.712 
L 85.892602 131.256 
L 87.059292 136.8 
L 88.195781 142.344 
L 89.248188 147.888 
L 89.568 149.98221 
L 90.045933 153.432 
L 90.50749 158.976 
L 90.454892 164.52 
L 89.568 169.637753 
L 89.473677 170.064 
L 86.252084 175.608 
L 83.616 177.683995 
L 77.664 180.736634 
L 75.764675 181.152 
L 71.712 181.597479 
L 65.76 181.294263 
L 65.155418 181.152 
L 59.808 178.90115 
L 55.588654 175.608 
L 53.856 173.507902 
L 52.035167 170.064 
L 49.997109 164.52 
L 48.492052 158.976 
L 47.904 156.117315 
z
" clip-path="url(#pf91a8d6a9b)" style="fill: #1fa188"/>
    <path d="M 47.248886 158.976 
L 46.516348 153.432 
L 45.955103 147.888 
L 45.521743 142.344 
L 45.187892 136.8 
L 44.934133 131.256 
L 44.746651 125.712 
L 44.615282 120.168 
L 44.532332 114.624 
L 44.491822 109.08 
L 44.489004 103.536 
L 44.520029 97.992 
L 44.581726 92.448 
L 44.671441 86.904 
L 44.786921 81.36 
L 44.926234 75.816 
L 45.087703 70.272 
L 45.26986 64.728 
L 45.471411 59.184 
L 45.691202 53.64 
L 45.928206 48.096 
L 46.181494 42.552 
L 46.450229 37.008 
L 46.733648 31.464 
L 47.031059 25.92 
L 47.904 25.92 
L 49.224801 25.92 
L 48.403397 31.464 
L 47.904 35.137838 
L 47.803319 37.008 
L 47.517088 42.552 
L 47.246433 48.096 
L 46.992201 53.64 
L 46.755327 59.184 
L 46.536852 64.728 
L 46.337939 70.272 
L 46.159895 75.816 
L 46.004203 81.36 
L 45.872558 86.904 
L 45.766911 92.448 
L 45.689536 97.992 
L 45.643116 103.536 
L 45.630851 109.08 
L 45.656625 114.624 
L 45.725229 120.168 
L 45.842692 125.712 
L 46.01677 131.256 
L 46.257697 136.8 
L 46.579377 142.344 
L 47.001338 147.888 
L 47.552094 153.432 
L 47.904 156.117315 
L 48.492052 158.976 
L 49.997109 164.52 
L 52.035167 170.064 
L 53.856 173.507902 
L 55.588654 175.608 
L 59.808 178.90115 
L 65.155418 181.152 
L 65.76 181.294263 
L 71.712 181.597479 
L 75.764675 181.152 
L 77.664 180.736634 
L 83.616 177.683995 
L 86.252084 175.608 
L 89.473677 170.064 
L 89.568 169.637753 
L 90.454892 164.52 
L 90.50749 158.976 
L 90.045933 153.432 
L 89.568 149.98221 
L 89.248188 147.888 
L 88.195781 142.344 
L 87.059292 136.8 
L 85.892602 131.256 
L 84.727971 125.712 
L 83.616 120.326583 
L 83.578245 120.168 
L 82.254135 114.624 
L 80.993505 109.08 
L 79.796325 103.536 
L 78.660779 97.992 
L 77.664 92.873102 
L 77.561895 92.448 
L 76.269425 86.904 
L 75.062758 81.36 
L 73.933422 75.816 
L 72.87394 70.272 
L 71.877719 64.728 
L 71.712 63.773784 
L 70.621766 59.184 
L 69.396608 53.64 
L 68.260504 48.096 
L 67.202995 42.552 
L 66.215264 37.008 
L 65.76 34.32389 
L 64.929149 31.464 
L 63.439013 25.92 
L 65.76 25.92 
L 66.343658 25.92 
L 67.270832 31.464 
L 68.259032 37.008 
L 69.31538 42.552 
L 70.448215 48.096 
L 71.667368 53.64 
L 71.712 53.835202 
L 72.614318 59.184 
L 73.605214 64.728 
L 74.658425 70.272 
L 75.780466 75.816 
L 76.978757 81.36 
L 77.664 84.374815 
L 78.135936 86.904 
L 79.209956 92.448 
L 80.34486 97.992 
L 81.54468 103.536 
L 82.813141 109.08 
L 83.616 112.458184 
L 84.066673 114.624 
L 85.239827 120.168 
L 86.45213 125.712 
L 87.693561 131.256 
L 88.946239 136.8 
L 89.568 139.664444 
L 90.099833 142.344 
L 91.098975 147.888 
L 91.944609 153.432 
L 92.509038 158.976 
L 92.572233 164.52 
L 91.737286 170.064 
L 89.568 174.914706 
L 89.166048 175.608 
L 83.616 179.978828 
L 81.309591 181.152 
L 77.664 182.052178 
L 71.712 182.685187 
L 65.76 182.360995 
L 60.622077 181.152 
L 59.808 180.809336 
L 53.856 176.151461 
L 53.40589 175.608 
L 50.46841 170.064 
L 48.403194 164.52 
L 47.904 162.695167 
z
" clip-path="url(#pf91a8d6a9b)" style="fill: #21908d"/>
    <path d="M 47.191224 164.52 
L 46.222549 158.976 
L 45.480603 153.432 
L 44.908867 147.888 
L 44.464108 142.344 
L 44.118088 136.8 
L 43.851497 131.256 
L 43.650609 125.712 
L 43.505335 120.168 
L 43.408039 114.624 
L 43.352794 109.08 
L 43.334892 103.536 
L 43.350521 97.992 
L 43.396542 92.448 
L 43.470324 86.904 
L 43.569639 81.36 
L 43.692574 75.816 
L 43.837468 70.272 
L 44.002869 64.728 
L 44.187494 59.184 
L 44.390204 53.64 
L 44.609978 48.096 
L 44.8459 42.552 
L 45.097138 37.008 
L 45.362939 31.464 
L 45.642613 25.92 
L 47.031059 25.92 
L 46.733648 31.464 
L 46.450229 37.008 
L 46.181494 42.552 
L 45.928206 48.096 
L 45.691202 53.64 
L 45.471411 59.184 
L 45.26986 64.728 
L 45.087703 70.272 
L 44.926234 75.816 
L 44.786921 81.36 
L 44.671441 86.904 
L 44.581726 92.448 
L 44.520029 97.992 
L 44.489004 103.536 
L 44.491822 109.08 
L 44.532332 114.624 
L 44.615282 120.168 
L 44.746651 125.712 
L 44.934133 131.256 
L 45.187892 136.8 
L 45.521743 142.344 
L 45.955103 147.888 
L 46.516348 153.432 
L 47.248886 158.976 
L 47.904 162.695167 
L 48.403194 164.52 
L 50.46841 170.064 
L 53.40589 175.608 
L 53.856 176.151461 
L 59.808 180.809336 
L 60.622077 181.152 
L 65.76 182.360995 
L 71.712 182.685187 
L 77.664 182.052178 
L 81.309591 181.152 
L 83.616 179.978828 
L 89.166048 175.608 
L 89.568 174.914706 
L 91.737286 170.064 
L 92.572233 164.52 
L 92.509038 158.976 
L 91.944609 153.432 
L 91.098975 147.888 
L 90.099833 142.344 
L 89.568 139.664444 
L 88.946239 136.8 
L 87.693561 131.256 
L 86.45213 125.712 
L 85.239827 120.168 
L 84.066673 114.624 
L 83.616 112.458184 
L 82.813141 109.08 
L 81.54468 103.536 
L 80.34486 97.992 
L 79.209956 92.448 
L 78.135936 86.904 
L 77.664 84.374815 
L 76.978757 81.36 
L 75.780466 75.816 
L 74.658425 70.272 
L 73.605214 64.728 
L 72.614318 59.184 
L 71.712 53.835202 
L 71.667368 53.64 
L 70.448215 48.096 
L 69.31538 42.552 
L 68.259032 37.008 
L 67.270832 31.464 
L 66.343658 25.92 
L 68.267081 25.92 
L 69.25185 31.464 
L 70.302801 37.008 
L 71.427765 42.552 
L 71.712 43.891568 
L 72.380763 48.096 
L 73.307566 53.64 
L 74.289698 59.184 
L 75.332708 64.728 
L 76.44291 70.272 
L 77.62751 75.816 
L 77.664 75.98142 
L 78.643362 81.36 
L 79.708881 86.904 
L 80.835829 92.448 
L 82.028941 97.992 
L 83.293036 103.536 
L 83.616 104.913413 
L 84.474874 109.08 
L 85.659868 114.624 
L 86.895091 120.168 
L 88.176289 125.712 
L 89.49452 131.256 
L 89.568 131.574007 
L 90.675805 136.8 
L 91.825229 142.344 
L 92.906091 147.888 
L 93.843285 153.432 
L 94.510586 158.976 
L 94.689573 164.52 
L 93.984988 170.064 
L 91.631823 175.608 
L 89.568 177.720995 
L 85.156434 181.152 
L 83.616 181.711691 
L 77.664 183.166181 
L 71.712 183.772896 
L 65.76 183.427727 
L 59.808 182.014749 
L 57.855383 181.152 
L 53.856 178.01705 
L 51.860753 175.608 
L 48.901654 170.064 
L 47.904 167.396818 
z
" clip-path="url(#pf91a8d6a9b)" style="fill: #27808e"/>
    <path d="M 47.413935 170.064 
L 46.153421 164.52 
L 45.196212 158.976 
L 44.444858 153.432 
L 43.862632 147.888 
L 43.406474 142.344 
L 43.048284 136.8 
L 42.768861 131.256 
L 42.554568 125.712 
L 42.395388 120.168 
L 42.283746 114.624 
L 42.213765 109.08 
L 42.18078 103.536 
L 42.181014 97.992 
L 42.211357 92.448 
L 42.269207 86.904 
L 42.352357 81.36 
L 42.458913 75.816 
L 42.587233 70.272 
L 42.735877 64.728 
L 42.903577 59.184 
L 43.089205 53.64 
L 43.291751 48.096 
L 43.510306 42.552 
L 43.744048 37.008 
L 43.992229 31.464 
L 44.254168 25.92 
L 45.642613 25.92 
L 45.362939 31.464 
L 45.097138 37.008 
L 44.8459 42.552 
L 44.609978 48.096 
L 44.390204 53.64 
L 44.187494 59.184 
L 44.002869 64.728 
L 43.837468 70.272 
L 43.692574 75.816 
L 43.569639 81.36 
L 43.470324 86.904 
L 43.396542 92.448 
L 43.350521 97.992 
L 43.334892 103.536 
L 43.352794 109.08 
L 43.408039 114.624 
L 43.505335 120.168 
L 43.650609 125.712 
L 43.851497 131.256 
L 44.118088 136.8 
L 44.464108 142.344 
L 44.908867 147.888 
L 45.480603 153.432 
L 46.222549 158.976 
L 47.191224 164.52 
L 47.904 167.396818 
L 48.901654 170.064 
L 51.860753 175.608 
L 53.856 178.01705 
L 57.855383 181.152 
L 59.808 182.014749 
L 65.76 183.427727 
L 71.712 183.772896 
L 77.664 183.166181 
L 83.616 181.711691 
L 85.156434 181.152 
L 89.568 177.720995 
L 91.631823 175.608 
L 93.984988 170.064 
L 94.689573 164.52 
L 94.510586 158.976 
L 93.843285 153.432 
L 92.906091 147.888 
L 91.825229 142.344 
L 90.675805 136.8 
L 89.568 131.574007 
L 89.49452 131.256 
L 88.176289 125.712 
L 86.895091 120.168 
L 85.659868 114.624 
L 84.474874 109.08 
L 83.616 104.913413 
L 83.293036 103.536 
L 82.028941 97.992 
L 80.835829 92.448 
L 79.708881 86.904 
L 78.643362 81.36 
L 77.664 75.98142 
L 77.62751 75.816 
L 76.44291 70.272 
L 75.332708 64.728 
L 74.289698 59.184 
L 73.307566 53.64 
L 72.380763 48.096 
L 71.712 43.891568 
L 71.427765 42.552 
L 70.302801 37.008 
L 69.25185 31.464 
L 68.267081 25.92 
L 70.190503 25.92 
L 71.232868 31.464 
L 71.712 33.891588 
L 72.179351 37.008 
L 73.047261 42.552 
L 73.964287 48.096 
L 74.935121 53.64 
L 75.965078 59.184 
L 77.060203 64.728 
L 77.664 67.640854 
L 78.118549 70.272 
L 79.115143 75.816 
L 80.167999 81.36 
L 81.281826 86.904 
L 82.461702 92.448 
L 83.616 97.575885 
L 83.699512 97.992 
L 84.827555 103.536 
L 86.011925 109.08 
L 87.253063 114.624 
L 88.550354 120.168 
L 89.568 124.388368 
L 89.862465 125.712 
L 91.08974 131.256 
L 92.328027 136.8 
L 93.550626 142.344 
L 94.713206 147.888 
L 95.52 152.281559 
L 95.720898 153.432 
L 96.412968 158.976 
L 96.67124 164.52 
L 96.153365 170.064 
L 95.52 171.931745 
L 94.025883 175.608 
L 89.568 180.172095 
L 88.308044 181.152 
L 83.616 182.856777 
L 77.664 184.280185 
L 71.712 184.860604 
L 65.76 184.494459 
L 59.808 183.066337 
L 55.475375 181.152 
L 53.856 179.88264 
L 50.315617 175.608 
L 47.904 171.110655 
z
" clip-path="url(#pf91a8d6a9b)" style="fill: #2d708e"/>
    <path d="M 41.508402 131.256 
L 41.186043 125.712 
L 40.972429 120.168 
L 40.834124 114.624 
L 40.751512 109.08 
L 40.712533 103.536 
L 40.709586 97.992 
L 40.737886 92.448 
L 40.794552 86.904 
L 40.878083 81.36 
L 40.98806 75.816 
L 41.124993 70.272 
L 41.290264 64.728 
L 41.486153 59.184 
L 41.715932 53.64 
L 41.952 48.732467 
L 41.973524 48.096 
L 42.174712 42.552 
L 42.390957 37.008 
L 42.621519 31.464 
L 42.865722 25.92 
L 44.254168 25.92 
L 43.992229 31.464 
L 43.744048 37.008 
L 43.510306 42.552 
L 43.291751 48.096 
L 43.089205 53.64 
L 42.903577 59.184 
L 42.735877 64.728 
L 42.587233 70.272 
L 42.458913 75.816 
L 42.352357 81.36 
L 42.269207 86.904 
L 42.211357 92.448 
L 42.181014 97.992 
L 42.18078 103.536 
L 42.213765 109.08 
L 42.283746 114.624 
L 42.395388 120.168 
L 42.554568 125.712 
L 42.768861 131.256 
L 43.048284 136.8 
L 43.406474 142.344 
L 43.862632 147.888 
L 44.444858 153.432 
L 45.196212 158.976 
L 46.153421 164.52 
L 47.413935 170.064 
L 47.904 171.110655 
L 50.315617 175.608 
L 53.856 179.88264 
L 55.475375 181.152 
L 59.808 183.066337 
L 65.76 184.494459 
L 71.712 184.860604 
L 77.664 184.280185 
L 83.616 182.856777 
L 88.308044 181.152 
L 89.568 180.172095 
L 94.025883 175.608 
L 95.52 171.931745 
L 96.153365 170.064 
L 96.67124 164.52 
L 96.412968 158.976 
L 95.720898 153.432 
L 95.52 152.281559 
L 94.713206 147.888 
L 93.550626 142.344 
L 92.328027 136.8 
L 91.08974 131.256 
L 89.862465 125.712 
L 89.568 124.388368 
L 88.550354 120.168 
L 87.253063 114.624 
L 86.011925 109.08 
L 84.827555 103.536 
L 83.699512 97.992 
L 83.616 97.575885 
L 82.461702 92.448 
L 81.281826 86.904 
L 80.167999 81.36 
L 79.115143 75.816 
L 78.118549 70.272 
L 77.664 67.640854 
L 77.060203 64.728 
L 75.965078 59.184 
L 74.935121 53.64 
L 73.964287 48.096 
L 73.047261 42.552 
L 72.179351 37.008 
L 71.712 33.891588 
L 71.232868 31.464 
L 70.190503 25.92 
L 71.712 25.92 
L 72.09383 25.92 
L 72.89745 31.464 
L 73.684558 37.008 
L 74.590124 42.552 
L 75.547811 48.096 
L 76.562676 53.64 
L 77.640458 59.184 
L 77.664 59.301232 
L 78.710714 64.728 
L 79.558278 70.272 
L 80.595533 75.816 
L 81.692636 81.36 
L 82.854771 86.904 
L 83.616 90.370461 
L 84.133113 92.448 
L 85.149101 97.992 
L 86.313624 103.536 
L 87.548975 109.08 
L 88.846258 114.624 
L 89.568 117.620248 
L 90.23574 120.168 
L 91.389632 125.712 
L 92.676208 131.256 
L 93.98025 136.8 
L 95.276022 142.344 
L 95.52 143.472056 
L 96.434706 147.888 
L 97.439406 153.432 
L 98.214456 158.976 
L 98.565359 164.52 
L 98.150892 170.064 
L 96.31417 175.608 
L 95.52 176.598791 
L 91.102771 181.152 
L 89.568 182.064024 
L 83.616 184.001863 
L 77.664 185.394188 
L 71.712 185.948312 
L 65.76 185.561191 
L 59.808 184.117926 
L 53.856 181.67808 
L 53.291204 181.152 
L 48.770481 175.608 
L 47.904 173.992129 
L 46.064769 170.064 
L 45.115618 164.52 
L 44.169876 158.976 
L 43.409113 153.432 
L 42.816396 147.888 
L 42.34884 142.344 
L 41.978479 136.8 
L 41.952 136.292221 
z
" clip-path="url(#pf91a8d6a9b)" style="fill: #355f8d"/>
    <path d="M 41.486477 147.888 
L 40.56087 142.344 
L 40.032228 136.8 
L 39.70141 131.256 
L 39.484798 125.712 
L 39.341259 120.168 
L 39.248323 114.624 
L 39.192812 109.08 
L 39.16662 103.536 
L 39.164639 97.992 
L 39.183656 92.448 
L 39.221733 86.904 
L 39.277862 81.36 
L 39.351762 75.816 
L 39.443775 70.272 
L 39.55483 64.728 
L 39.686459 59.184 
L 39.840861 53.64 
L 40.021026 48.096 
L 40.230927 42.552 
L 40.475806 37.008 
L 40.762608 31.464 
L 41.100619 25.92 
L 41.952 25.92 
L 42.865722 25.92 
L 42.621519 31.464 
L 42.390957 37.008 
L 42.174712 42.552 
L 41.973524 48.096 
L 41.952 48.732467 
L 41.715932 53.64 
L 41.486153 59.184 
L 41.290264 64.728 
L 41.124993 70.272 
L 40.98806 75.816 
L 40.878083 81.36 
L 40.794552 86.904 
L 40.737886 92.448 
L 40.709586 97.992 
L 40.712533 103.536 
L 40.751512 109.08 
L 40.834124 114.624 
L 40.972429 120.168 
L 41.186043 125.712 
L 41.508402 131.256 
L 41.952 136.292221 
L 41.978479 136.8 
L 42.34884 142.344 
L 42.816396 147.888 
L 43.409113 153.432 
L 44.169876 158.976 
L 45.115618 164.52 
L 46.064769 170.064 
L 47.904 173.992129 
L 48.770481 175.608 
L 53.291204 181.152 
L 53.856 181.67808 
L 59.808 184.117926 
L 65.76 185.561191 
L 71.712 185.948312 
L 77.664 185.394188 
L 83.616 184.001863 
L 89.568 182.064024 
L 91.102771 181.152 
L 95.52 176.598791 
L 96.31417 175.608 
L 98.150892 170.064 
L 98.565359 164.52 
L 98.214456 158.976 
L 97.439406 153.432 
L 96.434706 147.888 
L 95.52 143.472056 
L 95.276022 142.344 
L 93.98025 136.8 
L 92.676208 131.256 
L 91.389632 125.712 
L 90.23574 120.168 
L 89.568 117.620248 
L 88.846258 114.624 
L 87.548975 109.08 
L 86.313624 103.536 
L 85.149101 97.992 
L 84.133113 92.448 
L 83.616 90.370461 
L 82.854771 86.904 
L 81.692636 81.36 
L 80.595533 75.816 
L 79.558278 70.272 
L 78.710714 64.728 
L 77.664 59.301232 
L 77.640458 59.184 
L 76.562676 53.64 
L 75.547811 48.096 
L 74.590124 42.552 
L 73.684558 37.008 
L 72.89745 31.464 
L 72.09383 25.92 
L 73.921085 25.92 
L 74.461083 31.464 
L 75.189764 37.008 
L 76.132987 42.552 
L 77.131336 48.096 
L 77.664 50.922846 
L 78.475415 53.64 
L 79.59799 59.184 
L 80.319859 64.728 
L 80.998007 70.272 
L 82.075923 75.816 
L 83.217272 81.36 
L 83.616 83.224629 
L 84.813741 86.904 
L 85.91599 92.448 
L 86.59869 97.992 
L 87.799693 103.536 
L 89.086026 109.08 
L 89.568 111.100134 
L 90.822409 114.624 
L 91.969205 120.168 
L 92.9168 125.712 
L 94.262676 131.256 
L 95.52 136.361473 
L 95.711439 136.8 
L 97.277965 142.344 
L 98.087155 147.888 
L 99.157914 153.432 
L 100.015945 158.976 
L 100.459479 164.52 
L 100.148418 170.064 
L 98.426847 175.608 
L 95.52 179.234528 
L 93.659793 181.152 
L 89.568 183.583511 
L 83.616 185.146948 
L 77.664 186.508192 
L 75.578676 186.696 
L 71.712 187.430046 
L 66.769094 186.696 
L 65.76 186.627923 
L 59.808 185.169514 
L 53.856 183.324173 
L 51.52397 181.152 
L 47.904 176.58687 
L 46.853092 175.608 
L 44.715604 170.064 
L 44.077815 164.52 
L 43.143539 158.976 
L 42.373368 153.432 
L 41.952 149.547519 
z
" clip-path="url(#pf91a8d6a9b)" style="fill: #3d4d8a"/>
    <path d="M 39.801251 153.432 
L 38.808032 147.888 
L 38.334297 142.344 
L 38.063733 136.8 
L 37.894417 131.256 
L 37.783553 125.712 
L 37.710088 120.168 
L 37.662523 114.624 
L 37.634111 109.08 
L 37.620706 103.536 
L 37.619693 97.992 
L 37.629426 92.448 
L 37.648914 86.904 
L 37.677641 81.36 
L 37.715464 75.816 
L 37.762557 70.272 
L 37.819396 64.728 
L 37.886765 59.184 
L 37.965789 53.64 
L 38.057999 48.096 
L 38.165429 42.552 
L 38.29076 37.008 
L 38.437548 31.464 
L 38.610546 25.92 
L 41.100619 25.92 
L 40.762608 31.464 
L 40.475806 37.008 
L 40.230927 42.552 
L 40.021026 48.096 
L 39.840861 53.64 
L 39.686459 59.184 
L 39.55483 64.728 
L 39.443775 70.272 
L 39.351762 75.816 
L 39.277862 81.36 
L 39.221733 86.904 
L 39.183656 92.448 
L 39.164639 97.992 
L 39.16662 103.536 
L 39.192812 109.08 
L 39.248323 114.624 
L 39.341259 120.168 
L 39.484798 125.712 
L 39.70141 131.256 
L 40.032228 136.8 
L 40.56087 142.344 
L 41.486477 147.888 
L 41.952 149.547519 
L 42.373368 153.432 
L 43.143539 158.976 
L 44.077815 164.52 
L 44.715604 170.064 
L 46.853092 175.608 
L 47.904 176.58687 
L 51.52397 181.152 
L 53.856 183.324173 
L 59.808 185.169514 
L 65.76 186.627923 
L 66.769094 186.696 
L 71.712 187.430046 
L 75.578676 186.696 
L 77.664 186.508192 
L 83.616 185.146948 
L 89.568 183.583511 
L 93.659793 181.152 
L 95.52 179.234528 
L 98.426847 175.608 
L 100.148418 170.064 
L 100.459479 164.52 
L 100.015945 158.976 
L 99.157914 153.432 
L 98.087155 147.888 
L 97.277965 142.344 
L 95.711439 136.8 
L 95.52 136.361473 
L 94.262676 131.256 
L 92.9168 125.712 
L 91.969205 120.168 
L 90.822409 114.624 
L 89.568 111.100134 
L 89.086026 109.08 
L 87.799693 103.536 
L 86.59869 97.992 
L 85.91599 92.448 
L 84.813741 86.904 
L 83.616 83.224629 
L 83.217272 81.36 
L 82.075923 75.816 
L 80.998007 70.272 
L 80.319859 64.728 
L 79.59799 59.184 
L 78.475415 53.64 
L 77.664 50.922846 
L 77.131336 48.096 
L 76.132987 42.552 
L 75.189764 37.008 
L 74.461083 31.464 
L 73.921085 25.92 
L 75.748341 25.92 
L 76.024717 31.464 
L 76.694971 37.008 
L 77.664 42.486641 
L 77.707286 42.552 
L 79.971166 48.096 
L 80.984999 53.64 
L 81.559544 59.184 
L 81.929003 64.728 
L 82.437736 70.272 
L 83.556312 75.816 
L 83.616 76.103017 
L 86.075857 81.36 
L 87.134725 86.904 
L 87.698866 92.448 
L 88.048279 97.992 
L 89.285761 103.536 
L 89.568 104.737495 
L 91.923086 109.08 
L 93.115728 114.624 
L 93.702669 120.168 
L 94.443968 125.712 
L 95.52 129.994889 
L 96.503286 131.256 
L 98.52369 136.8 
L 99.325453 142.344 
L 99.739604 147.888 
L 100.876422 153.432 
L 101.472 157.00122 
L 102.392298 158.976 
L 103.302003 164.52 
L 102.921116 170.064 
L 101.472 172.465877 
L 100.539525 175.608 
L 96.747945 181.152 
L 95.52 182.295771 
L 89.568 185.102999 
L 83.616 186.292034 
L 81.842843 186.696 
L 77.664 189.14805 
L 71.712 189.778219 
L 65.76 189.311283 
L 61.744848 186.696 
L 59.808 186.221103 
L 53.856 184.970267 
L 49.756735 181.152 
L 47.904 178.815523 
L 44.460426 175.608 
L 43.366439 170.064 
L 43.040013 164.52 
L 42.117202 158.976 
L 41.952 157.792692 
z
" clip-path="url(#pf91a8d6a9b)" style="fill: #443983"/>
    <path d="M 36.324496 158.976 
L 36.175421 153.432 
L 36.129586 147.888 
L 36.107724 142.344 
L 36.095238 136.8 
L 36.087424 131.256 
L 36.082308 125.712 
L 36.078918 120.168 
L 36.076723 114.624 
L 36.075411 109.08 
L 36.074793 103.536 
L 36.074746 97.992 
L 36.075195 92.448 
L 36.076095 86.904 
L 36.07742 81.36 
L 36.079166 75.816 
L 36.081339 70.272 
L 36.083962 64.728 
L 36.087071 59.184 
L 36.090718 53.64 
L 36.094973 48.096 
L 36.099931 42.552 
L 36.105715 37.008 
L 36.112489 31.464 
L 36.120472 25.92 
L 38.610546 25.92 
L 38.437548 31.464 
L 38.29076 37.008 
L 38.165429 42.552 
L 38.057999 48.096 
L 37.965789 53.64 
L 37.886765 59.184 
L 37.819396 64.728 
L 37.762557 70.272 
L 37.715464 75.816 
L 37.677641 81.36 
L 37.648914 86.904 
L 37.629426 92.448 
L 37.619693 97.992 
L 37.620706 103.536 
L 37.634111 109.08 
L 37.662523 114.624 
L 37.710088 120.168 
L 37.783553 125.712 
L 37.894417 131.256 
L 38.063733 136.8 
L 38.334297 142.344 
L 38.808032 147.888 
L 39.801251 153.432 
L 41.952 157.792692 
L 42.117202 158.976 
L 43.040013 164.52 
L 43.366439 170.064 
L 44.460426 175.608 
L 47.904 178.815523 
L 49.756735 181.152 
L 53.856 184.970267 
L 59.808 186.221103 
L 61.744848 186.696 
L 65.76 189.311283 
L 71.712 189.778219 
L 77.664 189.14805 
L 81.842843 186.696 
L 83.616 186.292034 
L 89.568 185.102999 
L 95.52 182.295771 
L 96.747945 181.152 
L 100.539525 175.608 
L 101.472 172.465877 
L 102.921116 170.064 
L 103.302003 164.52 
L 102.392298 158.976 
L 101.472 157.00122 
L 100.876422 153.432 
L 99.739604 147.888 
L 99.325453 142.344 
L 98.52369 136.8 
L 96.503286 131.256 
L 95.52 129.994889 
L 94.443968 125.712 
L 93.702669 120.168 
L 93.115728 114.624 
L 91.923086 109.08 
L 89.568 104.737495 
L 89.285761 103.536 
L 88.048279 97.992 
L 87.698866 92.448 
L 87.134725 86.904 
L 86.075857 81.36 
L 83.616 76.103017 
L 83.556312 75.816 
L 82.437736 70.272 
L 81.929003 64.728 
L 81.559544 59.184 
L 80.984999 53.64 
L 79.971166 48.096 
L 77.707286 42.552 
L 77.664 42.486641 
L 76.694971 37.008 
L 76.024717 31.464 
L 75.748341 25.92 
L 77.575596 25.92 
L 77.58835 31.464 
L 77.664 32.126942 
L 82.90427 37.008 
L 83.343323 42.552 
L 83.447797 48.096 
L 83.494584 53.64 
L 83.521098 59.184 
L 83.538148 64.728 
L 83.616 65.89425 
L 88.315922 70.272 
L 89.28234 75.816 
L 89.406844 81.36 
L 89.455709 86.904 
L 89.481743 92.448 
L 89.497868 97.992 
L 89.568 98.304449 
L 95.184557 103.536 
L 95.354009 109.08 
L 95.409047 114.624 
L 95.436133 120.168 
L 95.52 120.948203 
L 100.63438 125.712 
L 101.242702 131.256 
L 101.335941 136.8 
L 101.372941 142.344 
L 101.392053 147.888 
L 101.472 148.270187 
L 107.013687 153.432 
L 107.191796 158.976 
L 107.233777 164.52 
L 107.2162 170.064 
L 106.949603 175.608 
L 101.472 180.710122 
L 101.253993 181.152 
L 95.52 186.492937 
L 89.568 186.622486 
L 89.154021 186.696 
L 83.616 191.854398 
L 77.664 192.097312 
L 71.712 192.126393 
L 65.76 192.104845 
L 59.808 191.790549 
L 54.338528 186.696 
L 53.856 186.61636 
L 47.9895 181.152 
L 47.904 181.044176 
L 42.067759 175.608 
L 42.017274 170.064 
L 42.00221 164.52 
L 41.952 164.217748 
z
" clip-path="url(#pf91a8d6a9b)" style="fill: #482475"/>
    <path d="M 36 186.696 
L 36 181.152 
L 36 175.608 
L 36 170.064 
L 36 164.52 
L 36 158.976 
L 36 153.432 
L 36 147.888 
L 36 142.344 
L 36 136.8 
L 36 131.256 
L 36 125.712 
L 36 120.168 
L 36 114.624 
L 36 109.08 
L 36 103.536 
L 36 97.992 
L 36 92.448 
L 36 86.904 
L 36 81.36 
L 36 75.816 
L 36 70.272 
L 36 64.728 
L 36 59.184 
L 36 53.64 
L 36 48.096 
L 36 42.552 
L 36 37.008 
L 36 31.464 
L 36 25.92 
L 36.120472 25.92 
L 36.112489 31.464 
L 36.105715 37.008 
L 36.099931 42.552 
L 36.094973 48.096 
L 36.090718 53.64 
L 36.087071 59.184 
L 36.083962 64.728 
L 36.081339 70.272 
L 36.079166 75.816 
L 36.07742 81.36 
L 36.076095 86.904 
L 36.075195 92.448 
L 36.074746 97.992 
L 36.074793 103.536 
L 36.075411 109.08 
L 36.076723 114.624 
L 36.078918 120.168 
L 36.082308 125.712 
L 36.087424 131.256 
L 36.095238 136.8 
L 36.107724 142.344 
L 36.129586 147.888 
L 36.175421 153.432 
L 36.324496 158.976 
L 41.952 164.217748 
L 42.00221 164.52 
L 42.017274 170.064 
L 42.067759 175.608 
L 47.904 181.044176 
L 47.9895 181.152 
L 53.856 186.61636 
L 54.338528 186.696 
L 59.808 191.790549 
L 65.76 192.104845 
L 71.712 192.126393 
L 77.664 192.097312 
L 83.616 191.854398 
L 89.154021 186.696 
L 89.568 186.622486 
L 95.52 186.492937 
L 101.253993 181.152 
L 101.472 180.710122 
L 106.949603 175.608 
L 107.2162 170.064 
L 107.233777 164.52 
L 107.191796 158.976 
L 107.013687 153.432 
L 101.472 148.270187 
L 101.392053 147.888 
L 101.372941 142.344 
L 101.335941 136.8 
L 101.242702 131.256 
L 100.63438 125.712 
L 95.52 120.948203 
L 95.436133 120.168 
L 95.409047 114.624 
L 95.354009 109.08 
L 95.184557 103.536 
L 89.568 98.304449 
L 89.497868 97.992 
L 89.481743 92.448 
L 89.455709 86.904 
L 89.406844 81.36 
L 89.28234 75.816 
L 88.315922 70.272 
L 83.616 65.89425 
L 83.538148 64.728 
L 83.521098 59.184 
L 83.494584 53.64 
L 83.447797 48.096 
L 83.343323 42.552 
L 82.90427 37.008 
L 77.664 32.126942 
L 77.58835 31.464 
L 77.575596 25.92 
L 77.664 25.92 
L 83.616 25.92 
L 89.568 25.92 
L 95.52 25.92 
L 101.472 25.92 
L 107.424 25.92 
L 113.376 25.92 
L 119.328 25.92 
L 125.28 25.92 
L 131.232 25.92 
L 137.184 25.92 
L 143.136 25.92 
L 149.088 25.92 
L 155.04 25.92 
L 160.992 25.92 
L 166.944 25.92 
L 172.896 25.92 
L 178.848 25.92 
L 184.8 25.92 
L 190.752 25.92 
L 196.704 25.92 
L 202.656 25.92 
L 208.608 25.92 
L 214.56 25.92 
L 214.56 31.464 
L 214.56 37.008 
L 214.56 42.552 
L 214.56 48.096 
L 214.56 53.64 
L 214.56 59.184 
L 214.56 64.728 
L 214.56 70.272 
L 214.56 75.816 
L 214.56 81.36 
L 214.56 86.904 
L 214.56 92.448 
L 214.56 97.992 
L 214.56 103.536 
L 214.56 109.08 
L 214.56 114.624 
L 214.56 120.168 
L 214.56 125.712 
L 214.56 131.256 
L 214.56 136.8 
L 214.56 142.344 
L 214.56 147.888 
L 214.56 153.432 
L 214.56 158.976 
L 214.56 164.52 
L 214.56 170.064 
L 214.56 175.608 
L 214.56 181.152 
L 214.56 186.696 
L 214.56 192.24 
L 208.608 192.24 
L 202.656 192.24 
L 196.704 192.24 
L 190.752 192.24 
L 184.8 192.24 
L 178.848 192.24 
L 172.896 192.24 
L 166.944 192.24 
L 160.992 192.24 
L 155.04 192.24 
L 149.088 192.24 
L 143.136 192.24 
L 137.184 192.24 
L 131.232 192.24 
L 125.28 192.24 
L 119.328 192.24 
L 113.376 192.24 
L 107.424 192.24 
L 101.472 192.24 
L 95.52 192.24 
L 89.568 192.24 
L 83.616 192.24 
L 77.664 192.24 
L 71.712 192.24 
L 65.76 192.24 
L 59.808 192.24 
L 53.856 192.24 
L 47.904 192.24 
L 41.952 192.24 
L 36 192.24 
z
" clip-path="url(#pf91a8d6a9b)" style="fill: #470d60"/>
   </g>
   <g id="PathCollection_1">
    <defs>
     <path id="mbb0ea5a583" d="M -4.743416 4.743416 
L 4.743416 -4.743416 
M -4.743416 -4.743416 
L 4.743416 4.743416 
" style="stroke: #ffffff; stroke-width: 5"/>
    </defs>
    <g clip-path="url(#pf91a8d6a9b)">
     <use xlink:href="#mbb0ea5a583" x="65.76" y="127.56" style="fill: #ffffff; stroke: #ffffff; stroke-width: 5"/>
    </g>
   </g>
   <g id="PathCollection_2">
    <defs>
     <path id="m166fbc1f14" d="M -4.330127 4.330127 
L 4.330127 -4.330127 
M -4.330127 -4.330127 
L 4.330127 4.330127 
" style="stroke: #000000; stroke-width: 2"/>
    </defs>
    <g clip-path="url(#pf91a8d6a9b)">
     <use xlink:href="#m166fbc1f14" x="65.76" y="127.56" style="stroke: #000000; stroke-width: 2"/>
    </g>
   </g>
   <g id="matplotlib.axis_1">
    <g id="xtick_1">
     <g id="line2d_1">
      <defs>
       <path id="m7c5550eca9" d="M 0 0 
L 0 6 
" style="stroke: #000000; stroke-width: 2"/>
      </defs>
      <g>
       <use xlink:href="#m7c5550eca9" x="65.76" y="192.24" style="stroke: #000000; stroke-width: 2"/>
      </g>
     </g>
     <g id="text_1">
      <!-- $\mathdefault{200}$ -->
      <g transform="translate(52.39 212.377813) scale(0.14 -0.14)">
       <defs>
        <path id="DejaVuSans-32" d="M 1228 531 
L 3431 531 
L 3431 0 
L 469 0 
L 469 531 
Q 828 903 1448 1529 
Q 2069 2156 2228 2338 
Q 2531 2678 2651 2914 
Q 2772 3150 2772 3378 
Q 2772 3750 2511 3984 
Q 2250 4219 1831 4219 
Q 1534 4219 1204 4116 
Q 875 4013 500 3803 
L 500 4441 
Q 881 4594 1212 4672 
Q 1544 4750 1819 4750 
Q 2544 4750 2975 4387 
Q 3406 4025 3406 3419 
Q 3406 3131 3298 2873 
Q 3191 2616 2906 2266 
Q 2828 2175 2409 1742 
Q 1991 1309 1228 531 
z
" transform="scale(0.015625)"/>
        <path id="DejaVuSans-30" d="M 2034 4250 
Q 1547 4250 1301 3770 
Q 1056 3291 1056 2328 
Q 1056 1369 1301 889 
Q 1547 409 2034 409 
Q 2525 409 2770 889 
Q 3016 1369 3016 2328 
Q 3016 3291 2770 3770 
Q 2525 4250 2034 4250 
z
M 2034 4750 
Q 2819 4750 3233 4129 
Q 3647 3509 3647 2328 
Q 3647 1150 3233 529 
Q 2819 -91 2034 -91 
Q 1250 -91 836 529 
Q 422 1150 422 2328 
Q 422 3509 836 4129 
Q 1250 4750 2034 4750 
z
" transform="scale(0.015625)"/>
       </defs>
       <use xlink:href="#DejaVuSans-32" transform="translate(0 0.78125)"/>
       <use xlink:href="#DejaVuSans-30" transform="translate(63.623047 0.78125)"/>
       <use xlink:href="#DejaVuSans-30" transform="translate(127.246094 0.78125)"/>
      </g>
     </g>
    </g>
    <g id="xtick_2">
     <g id="line2d_2">
      <g>
       <use xlink:href="#m7c5550eca9" x="105.44" y="192.24" style="stroke: #000000; stroke-width: 2"/>
      </g>
     </g>
     <g id="text_2">
      <!-- $\mathdefault{400}$ -->
      <g transform="translate(92.07 212.377813) scale(0.14 -0.14)">
       <defs>
        <path id="DejaVuSans-34" d="M 2419 4116 
L 825 1625 
L 2419 1625 
L 2419 4116 
z
M 2253 4666 
L 3047 4666 
L 3047 1625 
L 3713 1625 
L 3713 1100 
L 3047 1100 
L 3047 0 
L 2419 0 
L 2419 1100 
L 313 1100 
L 313 1709 
L 2253 4666 
z
" transform="scale(0.015625)"/>
       </defs>
       <use xlink:href="#DejaVuSans-34" transform="translate(0 0.78125)"/>
       <use xlink:href="#DejaVuSans-30" transform="translate(63.623047 0.78125)"/>
       <use xlink:href="#DejaVuSans-30" transform="translate(127.246094 0.78125)"/>
      </g>
     </g>
    </g>
    <g id="xtick_3">
     <g id="line2d_3">
      <g>
       <use xlink:href="#m7c5550eca9" x="145.12" y="192.24" style="stroke: #000000; stroke-width: 2"/>
      </g>
     </g>
     <g id="text_3">
      <!-- $\mathdefault{600}$ -->
      <g transform="translate(131.75 212.377813) scale(0.14 -0.14)">
       <defs>
        <path id="DejaVuSans-36" d="M 2113 2584 
Q 1688 2584 1439 2293 
Q 1191 2003 1191 1497 
Q 1191 994 1439 701 
Q 1688 409 2113 409 
Q 2538 409 2786 701 
Q 3034 994 3034 1497 
Q 3034 2003 2786 2293 
Q 2538 2584 2113 2584 
z
M 3366 4563 
L 3366 3988 
Q 3128 4100 2886 4159 
Q 2644 4219 2406 4219 
Q 1781 4219 1451 3797 
Q 1122 3375 1075 2522 
Q 1259 2794 1537 2939 
Q 1816 3084 2150 3084 
Q 2853 3084 3261 2657 
Q 3669 2231 3669 1497 
Q 3669 778 3244 343 
Q 2819 -91 2113 -91 
Q 1303 -91 875 529 
Q 447 1150 447 2328 
Q 447 3434 972 4092 
Q 1497 4750 2381 4750 
Q 2619 4750 2861 4703 
Q 3103 4656 3366 4563 
z
" transform="scale(0.015625)"/>
       </defs>
       <use xlink:href="#DejaVuSans-36" transform="translate(0 0.78125)"/>
       <use xlink:href="#DejaVuSans-30" transform="translate(63.623047 0.78125)"/>
       <use xlink:href="#DejaVuSans-30" transform="translate(127.246094 0.78125)"/>
      </g>
     </g>
    </g>
    <g id="xtick_4">
     <g id="line2d_4">
      <g>
       <use xlink:href="#m7c5550eca9" x="184.8" y="192.24" style="stroke: #000000; stroke-width: 2"/>
      </g>
     </g>
     <g id="text_4">
      <!-- $\mathdefault{800}$ -->
      <g transform="translate(171.43 212.377813) scale(0.14 -0.14)">
       <defs>
        <path id="DejaVuSans-38" d="M 2034 2216 
Q 1584 2216 1326 1975 
Q 1069 1734 1069 1313 
Q 1069 891 1326 650 
Q 1584 409 2034 409 
Q 2484 409 2743 651 
Q 3003 894 3003 1313 
Q 3003 1734 2745 1975 
Q 2488 2216 2034 2216 
z
M 1403 2484 
Q 997 2584 770 2862 
Q 544 3141 544 3541 
Q 544 4100 942 4425 
Q 1341 4750 2034 4750 
Q 2731 4750 3128 4425 
Q 3525 4100 3525 3541 
Q 3525 3141 3298 2862 
Q 3072 2584 2669 2484 
Q 3125 2378 3379 2068 
Q 3634 1759 3634 1313 
Q 3634 634 3220 271 
Q 2806 -91 2034 -91 
Q 1263 -91 848 271 
Q 434 634 434 1313 
Q 434 1759 690 2068 
Q 947 2378 1403 2484 
z
M 1172 3481 
Q 1172 3119 1398 2916 
Q 1625 2713 2034 2713 
Q 2441 2713 2670 2916 
Q 2900 3119 2900 3481 
Q 2900 3844 2670 4047 
Q 2441 4250 2034 4250 
Q 1625 4250 1398 4047 
Q 1172 3844 1172 3481 
z
" transform="scale(0.015625)"/>
       </defs>
       <use xlink:href="#DejaVuSans-38" transform="translate(0 0.78125)"/>
       <use xlink:href="#DejaVuSans-30" transform="translate(63.623047 0.78125)"/>
       <use xlink:href="#DejaVuSans-30" transform="translate(127.246094 0.78125)"/>
      </g>
     </g>
    </g>
    <g id="text_5">
     <!-- Diploid N$_e$0 -->
     <g transform="translate(74.34 232.969375) scale(0.18 -0.18)">
      <defs>
       <path id="DejaVuSans-44" d="M 1259 4147 
L 1259 519 
L 2022 519 
Q 2988 519 3436 956 
Q 3884 1394 3884 2338 
Q 3884 3275 3436 3711 
Q 2988 4147 2022 4147 
L 1259 4147 
z
M 628 4666 
L 1925 4666 
Q 3281 4666 3915 4102 
Q 4550 3538 4550 2338 
Q 4550 1131 3912 565 
Q 3275 0 1925 0 
L 628 0 
L 628 4666 
z
" transform="scale(0.015625)"/>
       <path id="DejaVuSans-69" d="M 603 3500 
L 1178 3500 
L 1178 0 
L 603 0 
L 603 3500 
z
M 603 4863 
L 1178 4863 
L 1178 4134 
L 603 4134 
L 603 4863 
z
" transform="scale(0.015625)"/>
       <path id="DejaVuSans-70" d="M 1159 525 
L 1159 -1331 
L 581 -1331 
L 581 3500 
L 1159 3500 
L 1159 2969 
Q 1341 3281 1617 3432 
Q 1894 3584 2278 3584 
Q 2916 3584 3314 3078 
Q 3713 2572 3713 1747 
Q 3713 922 3314 415 
Q 2916 -91 2278 -91 
Q 1894 -91 1617 61 
Q 1341 213 1159 525 
z
M 3116 1747 
Q 3116 2381 2855 2742 
Q 2594 3103 2138 3103 
Q 1681 3103 1420 2742 
Q 1159 2381 1159 1747 
Q 1159 1113 1420 752 
Q 1681 391 2138 391 
Q 2594 391 2855 752 
Q 3116 1113 3116 1747 
z
" transform="scale(0.015625)"/>
       <path id="DejaVuSans-6c" d="M 603 4863 
L 1178 4863 
L 1178 0 
L 603 0 
L 603 4863 
z
" transform="scale(0.015625)"/>
       <path id="DejaVuSans-6f" d="M 1959 3097 
Q 1497 3097 1228 2736 
Q 959 2375 959 1747 
Q 959 1119 1226 758 
Q 1494 397 1959 397 
Q 2419 397 2687 759 
Q 2956 1122 2956 1747 
Q 2956 2369 2687 2733 
Q 2419 3097 1959 3097 
z
M 1959 3584 
Q 2709 3584 3137 3096 
Q 3566 2609 3566 1747 
Q 3566 888 3137 398 
Q 2709 -91 1959 -91 
Q 1206 -91 779 398 
Q 353 888 353 1747 
Q 353 2609 779 3096 
Q 1206 3584 1959 3584 
z
" transform="scale(0.015625)"/>
       <path id="DejaVuSans-64" d="M 2906 2969 
L 2906 4863 
L 3481 4863 
L 3481 0 
L 2906 0 
L 2906 525 
Q 2725 213 2448 61 
Q 2172 -91 1784 -91 
Q 1150 -91 751 415 
Q 353 922 353 1747 
Q 353 2572 751 3078 
Q 1150 3584 1784 3584 
Q 2172 3584 2448 3432 
Q 2725 3281 2906 2969 
z
M 947 1747 
Q 947 1113 1208 752 
Q 1469 391 1925 391 
Q 2381 391 2643 752 
Q 2906 1113 2906 1747 
Q 2906 2381 2643 2742 
Q 2381 3103 1925 3103 
Q 1469 3103 1208 2742 
Q 947 2381 947 1747 
z
" transform="scale(0.015625)"/>
       <path id="DejaVuSans-20" transform="scale(0.015625)"/>
       <path id="DejaVuSans-4e" d="M 628 4666 
L 1478 4666 
L 3547 763 
L 3547 4666 
L 4159 4666 
L 4159 0 
L 3309 0 
L 1241 3903 
L 1241 0 
L 628 0 
L 628 4666 
z
" transform="scale(0.015625)"/>
       <path id="DejaVuSans-Oblique-65" d="M 3078 2063 
Q 3088 2113 3092 2166 
Q 3097 2219 3097 2272 
Q 3097 2653 2873 2875 
Q 2650 3097 2266 3097 
Q 1838 3097 1509 2826 
Q 1181 2556 1013 2059 
L 3078 2063 
z
M 3578 1613 
L 903 1613 
Q 884 1494 878 1425 
Q 872 1356 872 1306 
Q 872 872 1139 634 
Q 1406 397 1894 397 
Q 2269 397 2603 481 
Q 2938 566 3225 728 
L 3116 159 
Q 2806 34 2476 -28 
Q 2147 -91 1806 -91 
Q 1078 -91 686 257 
Q 294 606 294 1247 
Q 294 1794 489 2264 
Q 684 2734 1063 3103 
Q 1306 3334 1642 3459 
Q 1978 3584 2356 3584 
Q 2950 3584 3301 3228 
Q 3653 2872 3653 2272 
Q 3653 2128 3634 1964 
Q 3616 1800 3578 1613 
z
" transform="scale(0.015625)"/>
      </defs>
      <use xlink:href="#DejaVuSans-44" transform="translate(0 0.015625)"/>
      <use xlink:href="#DejaVuSans-69" transform="translate(77.001953 0.015625)"/>
      <use xlink:href="#DejaVuSans-70" transform="translate(104.785156 0.015625)"/>
      <use xlink:href="#DejaVuSans-6c" transform="translate(168.261719 0.015625)"/>
      <use xlink:href="#DejaVuSans-6f" transform="translate(196.044922 0.015625)"/>
      <use xlink:href="#DejaVuSans-69" transform="translate(257.226562 0.015625)"/>
      <use xlink:href="#DejaVuSans-64" transform="translate(285.009766 0.015625)"/>
      <use xlink:href="#DejaVuSans-20" transform="translate(348.486328 0.015625)"/>
      <use xlink:href="#DejaVuSans-4e" transform="translate(380.273438 0.015625)"/>
      <use xlink:href="#DejaVuSans-Oblique-65" transform="translate(456.035156 -16.390625) scale(0.7)"/>
      <use xlink:href="#DejaVuSans-30" transform="translate(501.835938 0.015625)"/>
     </g>
    </g>
    <g id="text_6">
     <!-- $\times\mathdefault{10^{3}}\mathdefault{}$ -->
     <g transform="translate(188.56 225.887812) scale(0.1 -0.1)">
      <defs>
       <path id="DejaVuSans-d7" d="M 4488 3438 
L 3059 2003 
L 4488 575 
L 4116 197 
L 2681 1631 
L 1247 197 
L 878 575 
L 2303 2003 
L 878 3438 
L 1247 3816 
L 2681 2381 
L 4116 3816 
L 4488 3438 
z
" transform="scale(0.015625)"/>
       <path id="DejaVuSans-31" d="M 794 531 
L 1825 531 
L 1825 4091 
L 703 3866 
L 703 4441 
L 1819 4666 
L 2450 4666 
L 2450 531 
L 3481 531 
L 3481 0 
L 794 0 
L 794 531 
z
" transform="scale(0.015625)"/>
       <path id="DejaVuSans-33" d="M 2597 2516 
Q 3050 2419 3304 2112 
Q 3559 1806 3559 1356 
Q 3559 666 3084 287 
Q 2609 -91 1734 -91 
Q 1441 -91 1130 -33 
Q 819 25 488 141 
L 488 750 
Q 750 597 1062 519 
Q 1375 441 1716 441 
Q 2309 441 2620 675 
Q 2931 909 2931 1356 
Q 2931 1769 2642 2001 
Q 2353 2234 1838 2234 
L 1294 2234 
L 1294 2753 
L 1863 2753 
Q 2328 2753 2575 2939 
Q 2822 3125 2822 3475 
Q 2822 3834 2567 4026 
Q 2313 4219 1838 4219 
Q 1578 4219 1281 4162 
Q 984 4106 628 3988 
L 628 4550 
Q 988 4650 1302 4700 
Q 1616 4750 1894 4750 
Q 2613 4750 3031 4423 
Q 3450 4097 3450 3541 
Q 3450 3153 3228 2886 
Q 3006 2619 2597 2516 
z
" transform="scale(0.015625)"/>
      </defs>
      <use xlink:href="#DejaVuSans-d7" transform="translate(0 0.765625)"/>
      <use xlink:href="#DejaVuSans-31" transform="translate(83.789062 0.765625)"/>
      <use xlink:href="#DejaVuSans-30" transform="translate(147.412109 0.765625)"/>
      <use xlink:href="#DejaVuSans-33" transform="translate(211.992188 39.046875) scale(0.7)"/>
     </g>
    </g>
   </g>
   <g id="matplotlib.axis_2">
    <g id="ytick_1">
     <g id="line2d_5">
      <defs>
       <path id="me02b7431ee" d="M 0 0 
L -6 0 
" style="stroke: #000000; stroke-width: 2"/>
      </defs>
      <g>
       <use xlink:href="#me02b7431ee" x="36" y="164.52" style="stroke: #000000; stroke-width: 2"/>
      </g>
     </g>
     <g id="text_7">
      <!-- $\mathdefault{200}$ -->
      <g transform="translate(-0.24 169.838906) scale(0.14 -0.14)">
       <use xlink:href="#DejaVuSans-32" transform="translate(0 0.78125)"/>
       <use xlink:href="#DejaVuSans-30" transform="translate(63.623047 0.78125)"/>
       <use xlink:href="#DejaVuSans-30" transform="translate(127.246094 0.78125)"/>
      </g>
     </g>
    </g>
    <g id="ytick_2">
     <g id="line2d_6">
      <g>
       <use xlink:href="#me02b7431ee" x="36" y="127.56" style="stroke: #000000; stroke-width: 2"/>
      </g>
     </g>
     <g id="text_8">
      <!-- $\mathdefault{400}$ -->
      <g transform="translate(-0.24 132.878906) scale(0.14 -0.14)">
       <use xlink:href="#DejaVuSans-34" transform="translate(0 0.78125)"/>
       <use xlink:href="#DejaVuSans-30" transform="translate(63.623047 0.78125)"/>
       <use xlink:href="#DejaVuSans-30" transform="translate(127.246094 0.78125)"/>
      </g>
     </g>
    </g>
    <g id="ytick_3">
     <g id="line2d_7">
      <g>
       <use xlink:href="#me02b7431ee" x="36" y="90.6" style="stroke: #000000; stroke-width: 2"/>
      </g>
     </g>
     <g id="text_9">
      <!-- $\mathdefault{600}$ -->
      <g transform="translate(-0.24 95.918906) scale(0.14 -0.14)">
       <use xlink:href="#DejaVuSans-36" transform="translate(0 0.78125)"/>
       <use xlink:href="#DejaVuSans-30" transform="translate(63.623047 0.78125)"/>
       <use xlink:href="#DejaVuSans-30" transform="translate(127.246094 0.78125)"/>
      </g>
     </g>
    </g>
    <g id="ytick_4">
     <g id="line2d_8">
      <g>
       <use xlink:href="#me02b7431ee" x="36" y="53.64" style="stroke: #000000; stroke-width: 2"/>
      </g>
     </g>
     <g id="text_10">
      <!-- $\mathdefault{800}$ -->
      <g transform="translate(-0.24 58.958906) scale(0.14 -0.14)">
       <use xlink:href="#DejaVuSans-38" transform="translate(0 0.78125)"/>
       <use xlink:href="#DejaVuSans-30" transform="translate(63.623047 0.78125)"/>
       <use xlink:href="#DejaVuSans-30" transform="translate(127.246094 0.78125)"/>
      </g>
     </g>
    </g>
    <g id="text_11">
     <!-- Diploid N$_e$2 -->
     <g transform="translate(-8.02 160.02) rotate(-90) scale(0.18 -0.18)">
      <use xlink:href="#DejaVuSans-44" transform="translate(0 0.015625)"/>
      <use xlink:href="#DejaVuSans-69" transform="translate(77.001953 0.015625)"/>
      <use xlink:href="#DejaVuSans-70" transform="translate(104.785156 0.015625)"/>
      <use xlink:href="#DejaVuSans-6c" transform="translate(168.261719 0.015625)"/>
      <use xlink:href="#DejaVuSans-6f" transform="translate(196.044922 0.015625)"/>
      <use xlink:href="#DejaVuSans-69" transform="translate(257.226562 0.015625)"/>
      <use xlink:href="#DejaVuSans-64" transform="translate(285.009766 0.015625)"/>
      <use xlink:href="#DejaVuSans-20" transform="translate(348.486328 0.015625)"/>
      <use xlink:href="#DejaVuSans-4e" transform="translate(380.273438 0.015625)"/>
      <use xlink:href="#DejaVuSans-Oblique-65" transform="translate(456.035156 -16.390625) scale(0.7)"/>
      <use xlink:href="#DejaVuSans-32" transform="translate(501.835938 0.015625)"/>
     </g>
    </g>
    <g id="text_12">
     <!-- $\times\mathdefault{10^{3}}\mathdefault{}$ -->
     <g transform="translate(36 22.92) scale(0.1 -0.1)">
      <use xlink:href="#DejaVuSans-d7" transform="translate(0 0.765625)"/>
      <use xlink:href="#DejaVuSans-31" transform="translate(83.789062 0.765625)"/>
      <use xlink:href="#DejaVuSans-30" transform="translate(147.412109 0.765625)"/>
      <use xlink:href="#DejaVuSans-33" transform="translate(211.992188 39.046875) scale(0.7)"/>
     </g>
    </g>
   </g>
   <g id="patch_3">
    <path d="M 36 192.24 
L 36 25.92 
" style="fill: none; stroke: #000000; stroke-width: 0.8; stroke-linejoin: miter; stroke-linecap: square"/>
   </g>
   <g id="patch_4">
    <path d="M 214.56 192.24 
L 214.56 25.92 
" style="fill: none; stroke: #000000; stroke-width: 0.8; stroke-linejoin: miter; stroke-linecap: square"/>
   </g>
   <g id="patch_5">
    <path d="M 36 192.24 
L 214.56 192.24 
" style="fill: none; stroke: #000000; stroke-width: 0.8; stroke-linejoin: miter; stroke-linecap: square"/>
   </g>
   <g id="patch_6">
    <path d="M 36 25.92 
L 214.56 25.92 
" style="fill: none; stroke: #000000; stroke-width: 0.8; stroke-linejoin: miter; stroke-linecap: square"/>
   </g>
   <g id="text_13">
    <!-- Ne0Ne2-MSSMC-T-P2-S4 -->
    <g transform="translate(28.6825 10.92) scale(0.16 -0.16)">
     <defs>
      <path id="DejaVuSans-65" d="M 3597 1894 
L 3597 1613 
L 953 1613 
Q 991 1019 1311 708 
Q 1631 397 2203 397 
Q 2534 397 2845 478 
Q 3156 559 3463 722 
L 3463 178 
Q 3153 47 2828 -22 
Q 2503 -91 2169 -91 
Q 1331 -91 842 396 
Q 353 884 353 1716 
Q 353 2575 817 3079 
Q 1281 3584 2069 3584 
Q 2775 3584 3186 3129 
Q 3597 2675 3597 1894 
z
M 3022 2063 
Q 3016 2534 2758 2815 
Q 2500 3097 2075 3097 
Q 1594 3097 1305 2825 
Q 1016 2553 972 2059 
L 3022 2063 
z
" transform="scale(0.015625)"/>
      <path id="DejaVuSans-2d" d="M 313 2009 
L 1997 2009 
L 1997 1497 
L 313 1497 
L 313 2009 
z
" transform="scale(0.015625)"/>
      <path id="DejaVuSans-4d" d="M 628 4666 
L 1569 4666 
L 2759 1491 
L 3956 4666 
L 4897 4666 
L 4897 0 
L 4281 0 
L 4281 4097 
L 3078 897 
L 2444 897 
L 1241 4097 
L 1241 0 
L 628 0 
L 628 4666 
z
" transform="scale(0.015625)"/>
      <path id="DejaVuSans-53" d="M 3425 4513 
L 3425 3897 
Q 3066 4069 2747 4153 
Q 2428 4238 2131 4238 
Q 1616 4238 1336 4038 
Q 1056 3838 1056 3469 
Q 1056 3159 1242 3001 
Q 1428 2844 1947 2747 
L 2328 2669 
Q 3034 2534 3370 2195 
Q 3706 1856 3706 1288 
Q 3706 609 3251 259 
Q 2797 -91 1919 -91 
Q 1588 -91 1214 -16 
Q 841 59 441 206 
L 441 856 
Q 825 641 1194 531 
Q 1563 422 1919 422 
Q 2459 422 2753 634 
Q 3047 847 3047 1241 
Q 3047 1584 2836 1778 
Q 2625 1972 2144 2069 
L 1759 2144 
Q 1053 2284 737 2584 
Q 422 2884 422 3419 
Q 422 4038 858 4394 
Q 1294 4750 2059 4750 
Q 2388 4750 2728 4690 
Q 3069 4631 3425 4513 
z
" transform="scale(0.015625)"/>
      <path id="DejaVuSans-43" d="M 4122 4306 
L 4122 3641 
Q 3803 3938 3442 4084 
Q 3081 4231 2675 4231 
Q 1875 4231 1450 3742 
Q 1025 3253 1025 2328 
Q 1025 1406 1450 917 
Q 1875 428 2675 428 
Q 3081 428 3442 575 
Q 3803 722 4122 1019 
L 4122 359 
Q 3791 134 3420 21 
Q 3050 -91 2638 -91 
Q 1578 -91 968 557 
Q 359 1206 359 2328 
Q 359 3453 968 4101 
Q 1578 4750 2638 4750 
Q 3056 4750 3426 4639 
Q 3797 4528 4122 4306 
z
" transform="scale(0.015625)"/>
      <path id="DejaVuSans-54" d="M -19 4666 
L 3928 4666 
L 3928 4134 
L 2272 4134 
L 2272 0 
L 1638 0 
L 1638 4134 
L -19 4134 
L -19 4666 
z
" transform="scale(0.015625)"/>
      <path id="DejaVuSans-50" d="M 1259 4147 
L 1259 2394 
L 2053 2394 
Q 2494 2394 2734 2622 
Q 2975 2850 2975 3272 
Q 2975 3691 2734 3919 
Q 2494 4147 2053 4147 
L 1259 4147 
z
M 628 4666 
L 2053 4666 
Q 2838 4666 3239 4311 
Q 3641 3956 3641 3272 
Q 3641 2581 3239 2228 
Q 2838 1875 2053 1875 
L 1259 1875 
L 1259 0 
L 628 0 
L 628 4666 
z
" transform="scale(0.015625)"/>
     </defs>
     <use xlink:href="#DejaVuSans-4e"/>
     <use xlink:href="#DejaVuSans-65" x="74.804688"/>
     <use xlink:href="#DejaVuSans-30" x="136.328125"/>
     <use xlink:href="#DejaVuSans-4e" x="199.951172"/>
     <use xlink:href="#DejaVuSans-65" x="274.755859"/>
     <use xlink:href="#DejaVuSans-32" x="336.279297"/>
     <use xlink:href="#DejaVuSans-2d" x="399.902344"/>
     <use xlink:href="#DejaVuSans-4d" x="435.986328"/>
     <use xlink:href="#DejaVuSans-53" x="522.265625"/>
     <use xlink:href="#DejaVuSans-53" x="585.742188"/>
     <use xlink:href="#DejaVuSans-4d" x="649.21875"/>
     <use xlink:href="#DejaVuSans-43" x="735.498047"/>
     <use xlink:href="#DejaVuSans-2d" x="805.322266"/>
     <use xlink:href="#DejaVuSans-54" x="832.28125"/>
     <use xlink:href="#DejaVuSans-2d" x="884.240234"/>
     <use xlink:href="#DejaVuSans-50" x="920.324219"/>
     <use xlink:href="#DejaVuSans-32" x="980.626953"/>
     <use xlink:href="#DejaVuSans-2d" x="1044.25"/>
     <use xlink:href="#DejaVuSans-53" x="1080.333984"/>
     <use xlink:href="#DejaVuSans-34" x="1143.810547"/>
    </g>
   </g>
  </g>
  <g id="axes_2">
   <g id="patch_7">
    <path d="M 225.72 192.24 
L 234.036 192.24 
L 234.036 25.92 
L 225.72 25.92 
z
" style="fill: #ffffff"/>
   </g>
   <g id="QuadMesh_1">
    <path d="M 225.72 192.24 
L 234.036 192.24 
L 234.036 181.152 
L 225.72 181.152 
L 225.72 192.24 
" clip-path="url(#p69401c88b8)" style="fill: #eae51a"/>
    <path d="M 225.72 181.152 
L 234.036 181.152 
L 234.036 170.064 
L 225.72 170.064 
L 225.72 181.152 
" clip-path="url(#p69401c88b8)" style="fill: #bddf26"/>
    <path d="M 225.72 170.064 
L 234.036 170.064 
L 234.036 158.976 
L 225.72 158.976 
L 225.72 170.064 
" clip-path="url(#p69401c88b8)" style="fill: #90d743"/>
    <path d="M 225.72 158.976 
L 234.036 158.976 
L 234.036 147.888 
L 225.72 147.888 
L 225.72 158.976 
" clip-path="url(#p69401c88b8)" style="fill: #67cc5c"/>
    <path d="M 225.72 147.888 
L 234.036 147.888 
L 234.036 136.8 
L 225.72 136.8 
L 225.72 147.888 
" clip-path="url(#p69401c88b8)" style="fill: #44bf70"/>
    <path d="M 225.72 136.8 
L 234.036 136.8 
L 234.036 125.712 
L 225.72 125.712 
L 225.72 136.8 
" clip-path="url(#p69401c88b8)" style="fill: #2ab07f"/>
    <path d="M 225.72 125.712 
L 234.036 125.712 
L 234.036 114.624 
L 225.72 114.624 
L 225.72 125.712 
" clip-path="url(#p69401c88b8)" style="fill: #1fa188"/>
    <path d="M 225.72 114.624 
L 234.036 114.624 
L 234.036 103.536 
L 225.72 103.536 
L 225.72 114.624 
" clip-path="url(#p69401c88b8)" style="fill: #21908d"/>
    <path d="M 225.72 103.536 
L 234.036 103.536 
L 234.036 92.448 
L 225.72 92.448 
L 225.72 103.536 
" clip-path="url(#p69401c88b8)" style="fill: #27808e"/>
    <path d="M 225.72 92.448 
L 234.036 92.448 
L 234.036 81.36 
L 225.72 81.36 
L 225.72 92.448 
" clip-path="url(#p69401c88b8)" style="fill: #2d708e"/>
    <path d="M 225.72 81.36 
L 234.036 81.36 
L 234.036 70.272 
L 225.72 70.272 
L 225.72 81.36 
" clip-path="url(#p69401c88b8)" style="fill: #355f8d"/>
    <path d="M 225.72 70.272 
L 234.036 70.272 
L 234.036 59.184 
L 225.72 59.184 
L 225.72 70.272 
" clip-path="url(#p69401c88b8)" style="fill: #3d4d8a"/>
    <path d="M 225.72 59.184 
L 234.036 59.184 
L 234.036 48.096 
L 225.72 48.096 
L 225.72 59.184 
" clip-path="url(#p69401c88b8)" style="fill: #443983"/>
    <path d="M 225.72 48.096 
L 234.036 48.096 
L 234.036 37.008 
L 225.72 37.008 
L 225.72 48.096 
" clip-path="url(#p69401c88b8)" style="fill: #482475"/>
    <path d="M 225.72 37.008 
L 234.036 37.008 
L 234.036 25.92 
L 225.72 25.92 
L 225.72 37.008 
" clip-path="url(#p69401c88b8)" style="fill: #470d60"/>
   </g>
   <g id="matplotlib.axis_3"/>
   <g id="matplotlib.axis_4">
    <g id="ytick_5">
     <g id="line2d_9">
      <defs>
       <path id="maafab39d70" d="M 0 0 
L 3.5 0 
" style="stroke: #000000; stroke-width: 0.8"/>
      </defs>
      <g>
       <use xlink:href="#maafab39d70" x="234.036" y="192.24" style="stroke: #000000; stroke-width: 0.8"/>
      </g>
     </g>
     <g id="text_14">
      <!-- $\mathdefault{0.0}$ -->
      <g transform="translate(241.036 196.039219) scale(0.1 -0.1)">
       <defs>
        <path id="DejaVuSans-2e" d="M 684 794 
L 1344 794 
L 1344 0 
L 684 0 
L 684 794 
z
" transform="scale(0.015625)"/>
       </defs>
       <use xlink:href="#DejaVuSans-30" transform="translate(0 0.78125)"/>
       <use xlink:href="#DejaVuSans-2e" transform="translate(63.623047 0.78125)"/>
       <use xlink:href="#DejaVuSans-30" transform="translate(95.410156 0.78125)"/>
      </g>
     </g>
    </g>
    <g id="ytick_6">
     <g id="line2d_10">
      <g>
       <use xlink:href="#maafab39d70" x="234.036" y="170.064" style="stroke: #000000; stroke-width: 0.8"/>
      </g>
     </g>
     <g id="text_15">
      <!-- $\mathdefault{0.4}$ -->
      <g transform="translate(241.036 173.863219) scale(0.1 -0.1)">
       <use xlink:href="#DejaVuSans-30" transform="translate(0 0.78125)"/>
       <use xlink:href="#DejaVuSans-2e" transform="translate(63.623047 0.78125)"/>
       <use xlink:href="#DejaVuSans-34" transform="translate(95.410156 0.78125)"/>
      </g>
     </g>
    </g>
    <g id="ytick_7">
     <g id="line2d_11">
      <g>
       <use xlink:href="#maafab39d70" x="234.036" y="147.888" style="stroke: #000000; stroke-width: 0.8"/>
      </g>
     </g>
     <g id="text_16">
      <!-- $\mathdefault{0.8}$ -->
      <g transform="translate(241.036 151.687219) scale(0.1 -0.1)">
       <use xlink:href="#DejaVuSans-30" transform="translate(0 0.78125)"/>
       <use xlink:href="#DejaVuSans-2e" transform="translate(63.623047 0.78125)"/>
       <use xlink:href="#DejaVuSans-38" transform="translate(92.785156 0.78125)"/>
      </g>
     </g>
    </g>
    <g id="ytick_8">
     <g id="line2d_12">
      <g>
       <use xlink:href="#maafab39d70" x="234.036" y="125.712" style="stroke: #000000; stroke-width: 0.8"/>
      </g>
     </g>
     <g id="text_17">
      <!-- $\mathdefault{1.2}$ -->
      <g transform="translate(241.036 129.511219) scale(0.1 -0.1)">
       <use xlink:href="#DejaVuSans-31" transform="translate(0 0.78125)"/>
       <use xlink:href="#DejaVuSans-2e" transform="translate(63.623047 0.78125)"/>
       <use xlink:href="#DejaVuSans-32" transform="translate(89.910156 0.78125)"/>
      </g>
     </g>
    </g>
    <g id="ytick_9">
     <g id="line2d_13">
      <g>
       <use xlink:href="#maafab39d70" x="234.036" y="103.536" style="stroke: #000000; stroke-width: 0.8"/>
      </g>
     </g>
     <g id="text_18">
      <!-- $\mathdefault{1.6}$ -->
      <g transform="translate(241.036 107.335219) scale(0.1 -0.1)">
       <use xlink:href="#DejaVuSans-31" transform="translate(0 0.78125)"/>
       <use xlink:href="#DejaVuSans-2e" transform="translate(63.623047 0.78125)"/>
       <use xlink:href="#DejaVuSans-36" transform="translate(95.410156 0.78125)"/>
      </g>
     </g>
    </g>
    <g id="ytick_10">
     <g id="line2d_14">
      <g>
       <use xlink:href="#maafab39d70" x="234.036" y="81.36" style="stroke: #000000; stroke-width: 0.8"/>
      </g>
     </g>
     <g id="text_19">
      <!-- $\mathdefault{2.0}$ -->
      <g transform="translate(241.036 85.159219) scale(0.1 -0.1)">
       <use xlink:href="#DejaVuSans-32" transform="translate(0 0.78125)"/>
       <use xlink:href="#DejaVuSans-2e" transform="translate(63.623047 0.78125)"/>
       <use xlink:href="#DejaVuSans-30" transform="translate(95.410156 0.78125)"/>
      </g>
     </g>
    </g>
    <g id="ytick_11">
     <g id="line2d_15">
      <g>
       <use xlink:href="#maafab39d70" x="234.036" y="59.184" style="stroke: #000000; stroke-width: 0.8"/>
      </g>
     </g>
     <g id="text_20">
      <!-- $\mathdefault{2.4}$ -->
      <g transform="translate(241.036 62.983219) scale(0.1 -0.1)">
       <use xlink:href="#DejaVuSans-32" transform="translate(0 0.78125)"/>
       <use xlink:href="#DejaVuSans-2e" transform="translate(63.623047 0.78125)"/>
       <use xlink:href="#DejaVuSans-34" transform="translate(95.410156 0.78125)"/>
      </g>
     </g>
    </g>
    <g id="ytick_12">
     <g id="line2d_16">
      <g>
       <use xlink:href="#maafab39d70" x="234.036" y="37.008" style="stroke: #000000; stroke-width: 0.8"/>
      </g>
     </g>
     <g id="text_21">
      <!-- $\mathdefault{2.8}$ -->
      <g transform="translate(241.036 40.807219) scale(0.1 -0.1)">
       <use xlink:href="#DejaVuSans-32" transform="translate(0 0.78125)"/>
       <use xlink:href="#DejaVuSans-2e" transform="translate(63.623047 0.78125)"/>
       <use xlink:href="#DejaVuSans-38" transform="translate(92.785156 0.78125)"/>
      </g>
     </g>
    </g>
    <g id="text_22">
     <!-- $\Delta$ log likelihood -->
     <g transform="translate(270.156 154.98) rotate(-90) scale(0.12 -0.12)">
      <defs>
       <path id="DejaVuSans-394" d="M 2188 4044 
L 906 525 
L 3472 525 
L 2188 4044 
z
M 50 0 
L 1831 4666 
L 2547 4666 
L 4325 0 
L 50 0 
z
" transform="scale(0.015625)"/>
       <path id="DejaVuSans-67" d="M 2906 1791 
Q 2906 2416 2648 2759 
Q 2391 3103 1925 3103 
Q 1463 3103 1205 2759 
Q 947 2416 947 1791 
Q 947 1169 1205 825 
Q 1463 481 1925 481 
Q 2391 481 2648 825 
Q 2906 1169 2906 1791 
z
M 3481 434 
Q 3481 -459 3084 -895 
Q 2688 -1331 1869 -1331 
Q 1566 -1331 1297 -1286 
Q 1028 -1241 775 -1147 
L 775 -588 
Q 1028 -725 1275 -790 
Q 1522 -856 1778 -856 
Q 2344 -856 2625 -561 
Q 2906 -266 2906 331 
L 2906 616 
Q 2728 306 2450 153 
Q 2172 0 1784 0 
Q 1141 0 747 490 
Q 353 981 353 1791 
Q 353 2603 747 3093 
Q 1141 3584 1784 3584 
Q 2172 3584 2450 3431 
Q 2728 3278 2906 2969 
L 2906 3500 
L 3481 3500 
L 3481 434 
z
" transform="scale(0.015625)"/>
       <path id="DejaVuSans-6b" d="M 581 4863 
L 1159 4863 
L 1159 1991 
L 2875 3500 
L 3609 3500 
L 1753 1863 
L 3688 0 
L 2938 0 
L 1159 1709 
L 1159 0 
L 581 0 
L 581 4863 
z
" transform="scale(0.015625)"/>
       <path id="DejaVuSans-68" d="M 3513 2113 
L 3513 0 
L 2938 0 
L 2938 2094 
Q 2938 2591 2744 2837 
Q 2550 3084 2163 3084 
Q 1697 3084 1428 2787 
Q 1159 2491 1159 1978 
L 1159 0 
L 581 0 
L 581 4863 
L 1159 4863 
L 1159 2956 
Q 1366 3272 1645 3428 
Q 1925 3584 2291 3584 
Q 2894 3584 3203 3211 
Q 3513 2838 3513 2113 
z
" transform="scale(0.015625)"/>
      </defs>
      <use xlink:href="#DejaVuSans-394" transform="translate(0 0.015625)"/>
      <use xlink:href="#DejaVuSans-20" transform="translate(68.408203 0.015625)"/>
      <use xlink:href="#DejaVuSans-6c" transform="translate(100.195312 0.015625)"/>
      <use xlink:href="#DejaVuSans-6f" transform="translate(127.978516 0.015625)"/>
      <use xlink:href="#DejaVuSans-67" transform="translate(189.160156 0.015625)"/>
      <use xlink:href="#DejaVuSans-20" transform="translate(252.636719 0.015625)"/>
      <use xlink:href="#DejaVuSans-6c" transform="translate(284.423828 0.015625)"/>
      <use xlink:href="#DejaVuSans-69" transform="translate(312.207031 0.015625)"/>
      <use xlink:href="#DejaVuSans-6b" transform="translate(339.990234 0.015625)"/>
      <use xlink:href="#DejaVuSans-65" transform="translate(397.900391 0.015625)"/>
      <use xlink:href="#DejaVuSans-6c" transform="translate(459.423828 0.015625)"/>
      <use xlink:href="#DejaVuSans-69" transform="translate(487.207031 0.015625)"/>
      <use xlink:href="#DejaVuSans-68" transform="translate(514.990234 0.015625)"/>
      <use xlink:href="#DejaVuSans-6f" transform="translate(578.369141 0.015625)"/>
      <use xlink:href="#DejaVuSans-6f" transform="translate(639.550781 0.015625)"/>
      <use xlink:href="#DejaVuSans-64" transform="translate(700.732422 0.015625)"/>
     </g>
    </g>
    <g id="text_23">
     <!-- $\times\mathdefault{10^{2}}\mathdefault{}$ -->
     <g transform="translate(208.036 22.92) scale(0.1 -0.1)">
      <use xlink:href="#DejaVuSans-d7" transform="translate(0 0.765625)"/>
      <use xlink:href="#DejaVuSans-31" transform="translate(83.789062 0.765625)"/>
      <use xlink:href="#DejaVuSans-30" transform="translate(147.412109 0.765625)"/>
      <use xlink:href="#DejaVuSans-32" transform="translate(211.992188 39.046875) scale(0.7)"/>
     </g>
    </g>
   </g>
   <g id="LineCollection_1"/>
   <g id="patch_8">
    <path d="M 225.72 192.24 
L 229.878 192.24 
L 234.036 192.24 
L 234.036 25.92 
L 229.878 25.92 
L 225.72 25.92 
L 225.72 192.24 
z
" style="fill: none; stroke: #000000; stroke-width: 0.8; stroke-linejoin: miter; stroke-linecap: square"/>
   </g>
  </g>
 </g>
 <defs>
  <clipPath id="pf91a8d6a9b">
   <rect x="36" y="25.92" width="178.56" height="166.32"/>
  </clipPath>
  <clipPath id="p69401c88b8">
   <rect x="225.72" y="25.92" width="8.316" height="166.32"/>
  </clipPath>
 </defs>
</svg>
