<?xml version="1.0" encoding="utf-8" standalone="no"?>
<!DOCTYPE svg PUBLIC "-//W3C//DTD SVG 1.1//EN"
  "http://www.w3.org/Graphics/SVG/1.1/DTD/svg11.dtd">
<svg xmlns:xlink="http://www.w3.org/1999/xlink" width="288pt" height="216pt" viewBox="0 0 288 216" xmlns="http://www.w3.org/2000/svg" version="1.1">
 <metadata>
  <rdf:RDF xmlns:dc="http://purl.org/dc/elements/1.1/" xmlns:cc="http://creativecommons.org/ns#" xmlns:rdf="http://www.w3.org/1999/02/22-rdf-syntax-ns#">
   <cc:Work>
    <dc:type rdf:resource="http://purl.org/dc/dcmitype/StillImage"/>
    <dc:date>2024-12-11T22:03:54.394181</dc:date>
    <dc:format>image/svg+xml</dc:format>
    <dc:creator>
     <cc:Agent>
      <dc:title>Matplotlib v3.8.4, https://matplotlib.org/</dc:title>
     </cc:Agent>
    </dc:creator>
   </cc:Work>
  </rdf:RDF>
 </metadata>
 <defs>
  <style type="text/css">*{stroke-linejoin: round; stroke-linecap: butt}</style>
 </defs>
 <g id="figure_1">
  <g id="patch_1">
   <path d="M 0 216 
L 288 216 
L 288 0 
L 0 0 
z
" style="fill: #ffffff"/>
  </g>
  <g id="axes_1">
   <g id="patch_2">
    <path d="M 36 192.24 
L 214.56 192.24 
L 214.56 25.92 
L 36 25.92 
z
" style="fill: #ffffff"/>
   </g>
   <g id="QuadContourSet_1">
    <path d="M 47.635473 114.624 
L 46.981621 109.08 
L 46.382735 103.536 
L 45.838815 97.992 
L 45.355449 92.448 
L 44.952283 86.904 
L 44.698795 81.36 
L 44.993104 75.816 
L 47.904 72.503812 
L 48.370524 75.816 
L 49.25273 81.36 
L 50.381902 86.904 
L 52.04026 92.448 
L 53.856 96.170289 
L 54.257472 97.992 
L 55.604043 103.536 
L 57.377721 109.08 
L 59.808 114.134344 
L 59.967672 114.624 
L 61.901907 120.168 
L 64.585666 125.712 
L 65.76 127.614114 
L 67.514077 131.256 
L 71.010907 136.8 
L 71.712 137.740807 
L 74.795222 142.344 
L 77.664 145.748629 
L 79.509844 147.888 
L 83.616 152.078629 
L 85.098886 153.432 
L 89.568 157.374186 
L 91.779112 158.976 
L 95.52 161.941332 
L 99.97121 164.52 
L 101.472 165.747372 
L 107.424 169.118771 
L 109.681745 170.064 
L 113.376 173.222541 
L 119.328 175.468575 
L 119.768138 175.608 
L 119.328 175.878768 
L 113.376 176.982614 
L 107.424 176.751157 
L 101.472 176.080309 
L 98.821111 175.608 
L 95.52 174.299279 
L 89.568 172.130632 
L 83.616 170.175175 
L 83.369051 170.064 
L 77.664 166.395156 
L 74.71845 164.52 
L 71.712 162.106073 
L 68.365339 158.976 
L 65.76 156.354293 
L 63.630764 153.432 
L 59.808 148.534421 
L 59.475118 147.888 
L 57.056646 142.344 
L 53.916676 136.8 
L 53.856 136.691936 
L 52.486536 131.256 
L 51.024683 125.712 
L 49.302109 120.168 
L 47.904 116.505933 
z
" clip-path="url(#p4d18b8bcef)" style="fill: #e7e419"/>
    <path d="M 41.578603 92.448 
L 41.148642 86.904 
L 40.747547 81.36 
L 40.373385 75.816 
L 40.02465 70.272 
L 39.700283 64.728 
L 39.399748 59.184 
L 39.123183 53.64 
L 38.871675 48.096 
L 38.647807 42.552 
L 38.456742 37.008 
L 38.308612 31.464 
L 38.224373 25.92 
L 41.952 25.92 
L 43.580037 25.92 
L 44.205456 31.464 
L 44.957011 37.008 
L 45.901632 42.552 
L 47.170411 48.096 
L 47.904 50.582133 
L 48.275656 53.64 
L 49.010828 59.184 
L 49.855404 64.728 
L 50.852295 70.272 
L 52.075518 75.816 
L 53.666154 81.36 
L 53.856 81.931544 
L 54.853675 86.904 
L 56.14746 92.448 
L 57.728019 97.992 
L 59.781486 103.536 
L 59.808 103.599624 
L 61.496969 109.08 
L 63.603656 114.624 
L 65.76 119.085769 
L 66.217563 120.168 
L 68.812675 125.712 
L 71.712 130.510868 
L 72.142864 131.256 
L 75.70573 136.8 
L 77.664 139.3286 
L 80.057102 142.344 
L 83.616 146.223733 
L 85.278188 147.888 
L 89.568 151.82523 
L 91.576618 153.432 
L 95.52 156.507292 
L 99.369625 158.976 
L 101.472 160.408024 
L 107.424 163.692755 
L 109.200664 164.52 
L 113.376 166.805681 
L 119.328 169.245276 
L 121.69757 170.064 
L 125.28 171.806494 
L 131.232 173.936164 
L 137.184 175.518284 
L 137.553773 175.608 
L 143.136 178.216611 
L 149.088 179.882686 
L 155.04 181.06985 
L 155.493853 181.152 
L 155.04 181.613009 
L 149.088 183.853647 
L 143.136 184.188568 
L 137.184 184.047992 
L 131.232 183.694774 
L 125.28 183.210471 
L 119.328 182.625787 
L 113.376 181.951998 
L 107.424 181.191066 
L 107.18985 181.152 
L 101.472 179.322005 
L 95.52 177.62866 
L 89.568 175.992353 
L 88.413344 175.608 
L 83.616 173.159736 
L 77.664 170.371204 
L 77.124535 170.064 
L 71.712 166.086612 
L 69.769461 164.52 
L 65.76 160.775979 
L 64.196249 158.976 
L 59.808 153.749179 
L 59.612773 153.432 
L 56.694081 147.888 
L 53.856 143.186214 
L 53.536961 142.344 
L 51.710587 136.8 
L 49.719125 131.256 
L 47.904 126.770961 
L 47.68084 125.712 
L 46.666377 120.168 
L 45.653907 114.624 
L 44.61195 109.08 
L 43.493014 103.536 
L 42.216077 97.992 
L 41.952 96.849848 
z
M 47.904 116.505933 
L 49.302109 120.168 
L 51.024683 125.712 
L 52.486536 131.256 
L 53.856 136.691936 
L 53.916676 136.8 
L 57.056646 142.344 
L 59.475118 147.888 
L 59.808 148.534421 
L 63.630764 153.432 
L 65.76 156.354293 
L 68.365339 158.976 
L 71.712 162.106073 
L 74.71845 164.52 
L 77.664 166.395156 
L 83.369051 170.064 
L 83.616 170.175175 
L 89.568 172.130632 
L 95.52 174.299279 
L 98.821111 175.608 
L 101.472 176.080309 
L 107.424 176.751157 
L 113.376 176.982614 
L 119.328 175.878768 
L 119.768138 175.608 
L 119.328 175.468575 
L 113.376 173.222541 
L 109.681745 170.064 
L 107.424 169.118771 
L 101.472 165.747372 
L 99.97121 164.52 
L 95.52 161.941332 
L 91.779112 158.976 
L 89.568 157.374186 
L 85.098886 153.432 
L 83.616 152.078629 
L 79.509844 147.888 
L 77.664 145.748629 
L 74.795222 142.344 
L 71.712 137.740807 
L 71.010907 136.8 
L 67.514077 131.256 
L 65.76 127.614114 
L 64.585666 125.712 
L 61.901907 120.168 
L 59.967672 114.624 
L 59.808 114.134344 
L 57.377721 109.08 
L 55.604043 103.536 
L 54.257472 97.992 
L 53.856 96.170289 
L 52.04026 92.448 
L 50.381902 86.904 
L 49.25273 81.36 
L 48.370524 75.816 
L 47.904 72.503812 
L 44.993104 75.816 
L 44.698795 81.36 
L 44.952283 86.904 
L 45.355449 92.448 
L 45.838815 97.992 
L 46.382735 103.536 
L 46.981621 109.08 
L 47.635473 114.624 
z
" clip-path="url(#p4d18b8bcef)" style="fill: #b2dd2d"/>
    <path d="M 41.441748 103.536 
L 40.835486 97.992 
L 40.249478 92.448 
L 39.678182 86.904 
L 39.115738 81.36 
L 38.555647 75.816 
L 37.990328 70.272 
L 37.41047 64.728 
L 36.804028 59.184 
L 36.154593 53.64 
L 36 52.300947 
L 36 48.096 
L 36 42.552 
L 36 37.008 
L 36 31.464 
L 36 25.92 
L 38.224373 25.92 
L 38.308612 31.464 
L 38.456742 37.008 
L 38.647807 42.552 
L 38.871675 48.096 
L 39.123183 53.64 
L 39.399748 59.184 
L 39.700283 64.728 
L 40.02465 70.272 
L 40.373385 75.816 
L 40.747547 81.36 
L 41.148642 86.904 
L 41.578603 92.448 
L 41.952 96.849848 
L 42.216077 97.992 
L 43.493014 103.536 
L 44.61195 109.08 
L 45.653907 114.624 
L 46.666377 120.168 
L 47.68084 125.712 
L 47.904 126.770961 
L 49.719125 131.256 
L 51.710587 136.8 
L 53.536961 142.344 
L 53.856 143.186214 
L 56.694081 147.888 
L 59.612773 153.432 
L 59.808 153.749179 
L 64.196249 158.976 
L 65.76 160.775979 
L 69.769461 164.52 
L 71.712 166.086612 
L 77.124535 170.064 
L 77.664 170.371204 
L 83.616 173.159736 
L 88.413344 175.608 
L 89.568 175.992353 
L 95.52 177.62866 
L 101.472 179.322005 
L 107.18985 181.152 
L 107.424 181.191066 
L 113.376 181.951998 
L 119.328 182.625787 
L 125.28 183.210471 
L 131.232 183.694774 
L 137.184 184.047992 
L 143.136 184.188568 
L 149.088 183.853647 
L 155.04 181.613009 
L 155.493853 181.152 
L 155.04 181.06985 
L 149.088 179.882686 
L 143.136 178.216611 
L 137.553773 175.608 
L 137.184 175.518284 
L 131.232 173.936164 
L 125.28 171.806494 
L 121.69757 170.064 
L 119.328 169.245276 
L 113.376 166.805681 
L 109.200664 164.52 
L 107.424 163.692755 
L 101.472 160.408024 
L 99.369625 158.976 
L 95.52 156.507292 
L 91.576618 153.432 
L 89.568 151.82523 
L 85.278188 147.888 
L 83.616 146.223733 
L 80.057102 142.344 
L 77.664 139.3286 
L 75.70573 136.8 
L 72.142864 131.256 
L 71.712 130.510868 
L 68.812675 125.712 
L 66.217563 120.168 
L 65.76 119.085769 
L 63.603656 114.624 
L 61.496969 109.08 
L 59.808 103.599624 
L 59.781486 103.536 
L 57.728019 97.992 
L 56.14746 92.448 
L 54.853675 86.904 
L 53.856 81.931544 
L 53.666154 81.36 
L 52.075518 75.816 
L 50.852295 70.272 
L 49.855404 64.728 
L 49.010828 59.184 
L 48.275656 53.64 
L 47.904 50.582133 
L 47.170411 48.096 
L 45.901632 42.552 
L 44.957011 37.008 
L 44.205456 31.464 
L 43.580037 25.92 
L 46.871146 25.92 
L 47.861601 31.464 
L 47.904 31.678401 
L 48.472703 37.008 
L 49.124058 42.552 
L 49.850371 48.096 
L 50.671294 53.64 
L 51.615401 59.184 
L 52.726209 64.728 
L 53.856 69.458821 
L 53.99567 70.272 
L 55.009346 75.816 
L 56.167257 81.36 
L 57.519558 86.904 
L 59.148197 92.448 
L 59.808 94.412392 
L 60.78594 97.992 
L 62.504944 103.536 
L 64.586321 109.08 
L 65.76 111.756767 
L 66.89099 114.624 
L 69.3984 120.168 
L 71.712 124.367728 
L 72.431065 125.712 
L 75.759843 131.256 
L 77.664 133.939972 
L 79.746388 136.8 
L 83.616 141.372723 
L 84.499489 142.344 
L 89.568 147.344549 
L 90.18273 147.888 
L 95.52 152.294481 
L 97.115848 153.432 
L 101.472 156.468941 
L 105.827379 158.976 
L 107.424 159.936182 
L 113.376 162.991061 
L 116.985377 164.52 
L 119.328 165.646839 
L 125.28 168.043768 
L 131.232 169.947098 
L 131.63165 170.064 
L 137.184 172.102667 
L 143.136 173.805207 
L 149.088 175.191608 
L 151.079303 175.608 
L 155.04 176.898337 
L 160.992 178.421575 
L 166.944 179.621168 
L 172.896 180.61143 
L 176.584967 181.152 
L 178.848 182.077115 
L 184.8 183.816034 
L 190.752 184.992585 
L 196.704 185.875972 
L 202.656 186.584117 
L 203.687474 186.696 
L 202.656 186.903754 
L 196.704 187.767264 
L 190.752 188.270726 
L 184.8 188.550601 
L 178.848 188.678672 
L 172.896 188.695875 
L 166.944 188.626843 
L 160.992 188.486867 
L 155.04 188.2855 
L 149.088 188.028549 
L 143.136 187.719206 
L 137.184 187.358726 
L 131.232 186.946805 
L 128.175342 186.696 
L 125.28 186.160686 
L 119.328 185.034329 
L 113.376 183.955792 
L 107.424 182.880974 
L 101.472 181.778834 
L 98.467766 181.152 
L 95.52 180.0972 
L 89.568 177.939058 
L 83.616 175.89027 
L 82.929002 175.608 
L 77.664 172.574214 
L 73.255943 170.064 
L 71.712 168.929438 
L 66.244464 164.52 
L 65.76 164.067609 
L 61.33661 158.976 
L 59.808 157.155281 
L 57.516286 153.432 
L 53.913044 147.888 
L 53.856 147.793496 
L 51.791677 142.344 
L 49.54386 136.8 
L 47.904 132.988812 
L 47.475489 131.256 
L 46.239818 125.712 
L 44.985521 120.168 
L 43.672342 114.624 
L 42.242279 109.08 
L 41.952 107.927422 
z
" clip-path="url(#p4d18b8bcef)" style="fill: #7fd34e"/>
    <path d="M 41.832787 114.624 
L 41.079901 109.08 
L 40.348487 103.536 
L 39.631185 97.992 
L 38.920354 92.448 
L 38.207723 86.904 
L 37.48393 81.36 
L 36.737909 75.816 
L 36 70.552405 
L 36 70.272 
L 36 64.728 
L 36 59.184 
L 36 53.64 
L 36 52.300947 
L 36.154593 53.64 
L 36.804028 59.184 
L 37.41047 64.728 
L 37.990328 70.272 
L 38.555647 75.816 
L 39.115738 81.36 
L 39.678182 86.904 
L 40.249478 92.448 
L 40.835486 97.992 
L 41.441748 103.536 
L 41.952 107.927422 
L 42.242279 109.08 
L 43.672342 114.624 
L 44.985521 120.168 
L 46.239818 125.712 
L 47.475489 131.256 
L 47.904 132.988812 
L 49.54386 136.8 
L 51.791677 142.344 
L 53.856 147.793496 
L 53.913044 147.888 
L 57.516286 153.432 
L 59.808 157.155281 
L 61.33661 158.976 
L 65.76 164.067609 
L 66.244464 164.52 
L 71.712 168.929438 
L 73.255943 170.064 
L 77.664 172.574214 
L 82.929002 175.608 
L 83.616 175.89027 
L 89.568 177.939058 
L 95.52 180.0972 
L 98.467766 181.152 
L 101.472 181.778834 
L 107.424 182.880974 
L 113.376 183.955792 
L 119.328 185.034329 
L 125.28 186.160686 
L 128.175342 186.696 
L 131.232 186.946805 
L 137.184 187.358726 
L 143.136 187.719206 
L 149.088 188.028549 
L 155.04 188.2855 
L 160.992 188.486867 
L 166.944 188.626843 
L 172.896 188.695875 
L 178.848 188.678672 
L 184.8 188.550601 
L 190.752 188.270726 
L 196.704 187.767264 
L 202.656 186.903754 
L 203.687474 186.696 
L 202.656 186.584117 
L 196.704 185.875972 
L 190.752 184.992585 
L 184.8 183.816034 
L 178.848 182.077115 
L 176.584967 181.152 
L 172.896 180.61143 
L 166.944 179.621168 
L 160.992 178.421575 
L 155.04 176.898337 
L 151.079303 175.608 
L 149.088 175.191608 
L 143.136 173.805207 
L 137.184 172.102667 
L 131.63165 170.064 
L 131.232 169.947098 
L 125.28 168.043768 
L 119.328 165.646839 
L 116.985377 164.52 
L 113.376 162.991061 
L 107.424 159.936182 
L 105.827379 158.976 
L 101.472 156.468941 
L 97.115848 153.432 
L 95.52 152.294481 
L 90.18273 147.888 
L 89.568 147.344549 
L 84.499489 142.344 
L 83.616 141.372723 
L 79.746388 136.8 
L 77.664 133.939972 
L 75.759843 131.256 
L 72.431065 125.712 
L 71.712 124.367728 
L 69.3984 120.168 
L 66.89099 114.624 
L 65.76 111.756767 
L 64.586321 109.08 
L 62.504944 103.536 
L 60.78594 97.992 
L 59.808 94.412392 
L 59.148197 92.448 
L 57.519558 86.904 
L 56.167257 81.36 
L 55.009346 75.816 
L 53.99567 70.272 
L 53.856 69.458821 
L 52.726209 64.728 
L 51.615401 59.184 
L 50.671294 53.64 
L 49.850371 48.096 
L 49.124058 42.552 
L 48.472703 37.008 
L 47.904 31.678401 
L 47.861601 31.464 
L 46.871146 25.92 
L 47.904 25.92 
L 49.131945 25.92 
L 49.75656 31.464 
L 50.445518 37.008 
L 51.212847 42.552 
L 52.077676 48.096 
L 53.066933 53.64 
L 53.856 57.532523 
L 54.111943 59.184 
L 55.030989 64.728 
L 56.060389 70.272 
L 57.229721 75.816 
L 58.582404 81.36 
L 59.808 85.694637 
L 60.100913 86.904 
L 61.549684 92.448 
L 63.226665 97.992 
L 65.219115 103.536 
L 65.76 104.884374 
L 67.304668 109.08 
L 69.67022 114.624 
L 71.712 118.667416 
L 72.455366 120.168 
L 75.519623 125.712 
L 77.664 129.007963 
L 79.167519 131.256 
L 83.458428 136.8 
L 83.616 136.986202 
L 88.489539 142.344 
L 89.568 143.408001 
L 94.635597 147.888 
L 95.52 148.618168 
L 101.472 152.94537 
L 102.230734 153.432 
L 107.424 156.693355 
L 111.804688 158.976 
L 113.376 159.822133 
L 119.328 162.613501 
L 124.246898 164.52 
L 125.28 164.964245 
L 131.232 167.226011 
L 137.184 169.072827 
L 140.844632 170.064 
L 143.136 170.817836 
L 149.088 172.514126 
L 155.04 173.920776 
L 160.992 175.121445 
L 163.65846 175.608 
L 166.944 176.449675 
L 172.896 177.748663 
L 178.848 178.832063 
L 184.8 179.75966 
L 190.752 180.569775 
L 195.520996 181.152 
L 196.704 181.433609 
L 202.656 182.656008 
L 208.608 183.636047 
L 214.56 184.449828 
L 214.56 186.696 
L 214.56 192.24 
L 208.608 192.24 
L 202.656 192.24 
L 196.704 192.24 
L 190.752 192.24 
L 184.8 192.24 
L 180.795921 192.24 
L 178.848 192.106806 
L 172.896 191.664546 
L 166.944 191.223323 
L 160.992 190.775727 
L 155.04 190.315857 
L 149.088 189.838631 
L 143.136 189.339354 
L 137.184 188.813421 
L 131.232 188.256089 
L 125.28 187.66229 
L 119.328 187.026442 
L 116.604171 186.696 
L 113.376 185.959587 
L 107.424 184.570882 
L 101.472 183.218236 
L 95.52 181.859213 
L 92.733164 181.152 
L 89.568 179.885764 
L 83.616 177.46114 
L 79.105775 175.608 
L 77.664 174.777224 
L 71.712 171.081415 
L 70.24773 170.064 
L 65.76 166.288362 
L 63.956736 164.52 
L 59.808 160.029283 
L 59.045229 158.976 
L 55.419799 153.432 
L 53.856 151.035256 
L 52.452124 147.888 
L 50.046393 142.344 
L 47.904 137.716638 
L 47.640773 136.8 
L 46.230205 131.256 
L 44.798796 125.712 
L 43.304664 120.168 
L 41.952 115.404343 
z
" clip-path="url(#p4d18b8bcef)" style="fill: #54c568"/>
    <path d="M 41.791251 120.168 
L 40.928469 114.624 
L 40.086058 109.08 
L 39.255227 103.536 
L 38.426884 97.992 
L 37.59123 92.448 
L 36.737263 86.904 
L 36 82.208659 
L 36 81.36 
L 36 75.816 
L 36 70.552405 
L 36.737909 75.816 
L 37.48393 81.36 
L 38.207723 86.904 
L 38.920354 92.448 
L 39.631185 97.992 
L 40.348487 103.536 
L 41.079901 109.08 
L 41.832787 114.624 
L 41.952 115.404343 
L 43.304664 120.168 
L 44.798796 125.712 
L 46.230205 131.256 
L 47.640773 136.8 
L 47.904 137.716638 
L 50.046393 142.344 
L 52.452124 147.888 
L 53.856 151.035256 
L 55.419799 153.432 
L 59.045229 158.976 
L 59.808 160.029283 
L 63.956736 164.52 
L 65.76 166.288362 
L 70.24773 170.064 
L 71.712 171.081415 
L 77.664 174.777224 
L 79.105775 175.608 
L 83.616 177.46114 
L 89.568 179.885764 
L 92.733164 181.152 
L 95.52 181.859213 
L 101.472 183.218236 
L 107.424 184.570882 
L 113.376 185.959587 
L 116.604171 186.696 
L 119.328 187.026442 
L 125.28 187.66229 
L 131.232 188.256089 
L 137.184 188.813421 
L 143.136 189.339354 
L 149.088 189.838631 
L 155.04 190.315857 
L 160.992 190.775727 
L 166.944 191.223323 
L 172.896 191.664546 
L 178.848 192.106806 
L 180.795921 192.24 
L 178.848 192.24 
L 172.896 192.24 
L 166.944 192.24 
L 160.992 192.24 
L 155.04 192.24 
L 154.218398 192.24 
L 149.088 191.648714 
L 143.136 190.959502 
L 137.184 190.268116 
L 131.232 189.565373 
L 125.28 188.84278 
L 119.328 188.092065 
L 113.376 187.304804 
L 109.146251 186.696 
L 107.424 186.26079 
L 101.472 184.657638 
L 95.52 183.094082 
L 89.568 181.524182 
L 88.343528 181.152 
L 83.616 179.032009 
L 77.664 176.409891 
L 76.049522 175.608 
L 71.712 172.774557 
L 67.810948 170.064 
L 65.76 168.338487 
L 61.866147 164.52 
L 59.808 162.292199 
L 57.406461 158.976 
L 53.856 154.013937 
L 53.552882 153.432 
L 51.018849 147.888 
L 48.30111 142.344 
L 47.904 141.486281 
L 46.558261 136.8 
L 44.984921 131.256 
L 43.357774 125.712 
L 41.952 121.092573 
z
M 53.066933 53.64 
L 52.077676 48.096 
L 51.212847 42.552 
L 50.445518 37.008 
L 49.75656 31.464 
L 49.131945 25.92 
L 50.921513 25.92 
L 51.630856 31.464 
L 52.418333 37.008 
L 53.301636 42.552 
L 53.856 45.702831 
L 54.191663 48.096 
L 55.024167 53.64 
L 55.943455 59.184 
L 56.968461 64.728 
L 58.125107 70.272 
L 59.450096 75.816 
L 59.808 77.182991 
L 60.7619 81.36 
L 62.169771 86.904 
L 63.782268 92.448 
L 65.667391 97.992 
L 65.76 98.242826 
L 67.580981 103.536 
L 69.795711 109.08 
L 71.712 113.202155 
L 72.365526 114.624 
L 75.181869 120.168 
L 77.664 124.318322 
L 78.522253 125.712 
L 82.342509 131.256 
L 83.616 132.892698 
L 86.860787 136.8 
L 89.568 139.697484 
L 92.285131 142.344 
L 95.52 145.227817 
L 98.8879 147.888 
L 101.472 149.813643 
L 107.113598 153.432 
L 107.424 153.626931 
L 113.376 156.991575 
L 117.557009 158.976 
L 119.328 159.8378 
L 125.28 162.385668 
L 131.232 164.507354 
L 131.270466 164.52 
L 137.184 166.614156 
L 143.136 168.37559 
L 149.088 169.885663 
L 149.849482 170.064 
L 155.04 171.477926 
L 160.992 172.86241 
L 166.944 174.057126 
L 172.896 175.106145 
L 176.017423 175.608 
L 178.848 176.20818 
L 184.8 177.326108 
L 190.752 178.291435 
L 196.704 179.1389 
L 202.656 179.892799 
L 208.608 180.570713 
L 214.22029 181.152 
L 214.56 181.21053 
L 214.56 184.449828 
L 208.608 183.636047 
L 202.656 182.656008 
L 196.704 181.433609 
L 195.520996 181.152 
L 190.752 180.569775 
L 184.8 179.75966 
L 178.848 178.832063 
L 172.896 177.748663 
L 166.944 176.449675 
L 163.65846 175.608 
L 160.992 175.121445 
L 155.04 173.920776 
L 149.088 172.514126 
L 143.136 170.817836 
L 140.844632 170.064 
L 137.184 169.072827 
L 131.232 167.226011 
L 125.28 164.964245 
L 124.246898 164.52 
L 119.328 162.613501 
L 113.376 159.822133 
L 111.804688 158.976 
L 107.424 156.693355 
L 102.230734 153.432 
L 101.472 152.94537 
L 95.52 148.618168 
L 94.635597 147.888 
L 89.568 143.408001 
L 88.489539 142.344 
L 83.616 136.986202 
L 83.458428 136.8 
L 79.167519 131.256 
L 77.664 129.007963 
L 75.519623 125.712 
L 72.455366 120.168 
L 71.712 118.667416 
L 69.67022 114.624 
L 67.304668 109.08 
L 65.76 104.884374 
L 65.219115 103.536 
L 63.226665 97.992 
L 61.549684 92.448 
L 60.100913 86.904 
L 59.808 85.694637 
L 58.582404 81.36 
L 57.229721 75.816 
L 56.060389 70.272 
L 55.030989 64.728 
L 54.111943 59.184 
L 53.856 57.532523 
z
" clip-path="url(#p4d18b8bcef)" style="fill: #31b57b"/>
    <path d="M 41.930485 125.712 
L 40.967969 120.168 
L 40.024151 114.624 
L 39.092216 109.08 
L 38.161967 103.536 
L 37.222583 97.992 
L 36.262105 92.448 
L 36 90.876779 
L 36 86.904 
L 36 82.208659 
L 36.737263 86.904 
L 37.59123 92.448 
L 38.426884 97.992 
L 39.255227 103.536 
L 40.086058 109.08 
L 40.928469 114.624 
L 41.791251 120.168 
L 41.952 121.092573 
L 43.357774 125.712 
L 44.984921 131.256 
L 46.558261 136.8 
L 47.904 141.486281 
L 48.30111 142.344 
L 51.018849 147.888 
L 53.552882 153.432 
L 53.856 154.013937 
L 57.406461 158.976 
L 59.808 162.292199 
L 61.866147 164.52 
L 65.76 168.338487 
L 67.810948 170.064 
L 71.712 172.774557 
L 76.049522 175.608 
L 77.664 176.409891 
L 83.616 179.032009 
L 88.343528 181.152 
L 89.568 181.524182 
L 95.52 183.094082 
L 101.472 184.657638 
L 107.424 186.26079 
L 109.146251 186.696 
L 113.376 187.304804 
L 119.328 188.092065 
L 125.28 188.84278 
L 131.232 189.565373 
L 137.184 190.268116 
L 143.136 190.959502 
L 149.088 191.648714 
L 154.218398 192.24 
L 149.088 192.24 
L 143.136 192.24 
L 140.928205 192.24 
L 137.184 191.722811 
L 131.232 190.874658 
L 125.28 190.023269 
L 119.328 189.157688 
L 113.376 188.267355 
L 107.424 187.341613 
L 103.609725 186.696 
L 101.472 186.09704 
L 95.52 184.32895 
L 89.568 182.588929 
L 84.840527 181.152 
L 83.616 180.602879 
L 77.664 177.697262 
L 73.457608 175.608 
L 71.712 174.467699 
L 65.76 170.275304 
L 65.507432 170.064 
L 59.808 164.543973 
L 59.787654 164.52 
L 55.767692 158.976 
L 53.856 156.304252 
L 52.359907 153.432 
L 49.585573 147.888 
L 47.904 144.545031 
L 47.173997 142.344 
L 45.475749 136.8 
L 43.739637 131.256 
L 41.952 125.804883 
z
M 53.301636 42.552 
L 52.418333 37.008 
L 51.630856 31.464 
L 50.921513 25.92 
L 52.711081 25.92 
L 53.505151 31.464 
L 53.856 33.727665 
L 54.273882 37.008 
L 55.030381 42.552 
L 55.856817 48.096 
L 56.766077 53.64 
L 57.774967 59.184 
L 58.905933 64.728 
L 59.808 68.695958 
L 60.12913 70.272 
L 61.341176 75.816 
L 62.698605 81.36 
L 64.238629 86.904 
L 65.76 91.703042 
L 65.98483 92.448 
L 67.785224 97.992 
L 69.855166 103.536 
L 71.712 107.858513 
L 72.234027 109.08 
L 74.828475 114.624 
L 77.664 119.767566 
L 77.891671 120.168 
L 81.329727 125.712 
L 83.616 128.906597 
L 85.402963 131.256 
L 89.568 136.101916 
L 90.221021 136.8 
L 95.52 141.931284 
L 95.993559 142.344 
L 101.472 146.766296 
L 103.04846 147.888 
L 107.424 150.843132 
L 111.878498 153.432 
L 113.376 154.284276 
L 119.328 157.288295 
L 123.212188 158.976 
L 125.28 159.891538 
L 131.232 162.224767 
L 137.184 164.206014 
L 138.215372 164.52 
L 143.136 166.117329 
L 149.088 167.785453 
L 155.04 169.233238 
L 158.838663 170.064 
L 160.992 170.603375 
L 166.944 171.94598 
L 172.896 173.116552 
L 178.848 174.15192 
L 184.8 175.078341 
L 188.508903 175.608 
L 190.752 176.013094 
L 196.704 176.989549 
L 202.656 177.852341 
L 208.608 178.623406 
L 214.56 179.319016 
L 214.56 181.152 
L 214.56 181.21053 
L 214.22029 181.152 
L 208.608 180.570713 
L 202.656 179.892799 
L 196.704 179.1389 
L 190.752 178.291435 
L 184.8 177.326108 
L 178.848 176.20818 
L 176.017423 175.608 
L 172.896 175.106145 
L 166.944 174.057126 
L 160.992 172.86241 
L 155.04 171.477926 
L 149.849482 170.064 
L 149.088 169.885663 
L 143.136 168.37559 
L 137.184 166.614156 
L 131.270466 164.52 
L 131.232 164.507354 
L 125.28 162.385668 
L 119.328 159.8378 
L 117.557009 158.976 
L 113.376 156.991575 
L 107.424 153.626931 
L 107.113598 153.432 
L 101.472 149.813643 
L 98.8879 147.888 
L 95.52 145.227817 
L 92.285131 142.344 
L 89.568 139.697484 
L 86.860787 136.8 
L 83.616 132.892698 
L 82.342509 131.256 
L 78.522253 125.712 
L 77.664 124.318322 
L 75.181869 120.168 
L 72.365526 114.624 
L 71.712 113.202155 
L 69.795711 109.08 
L 67.580981 103.536 
L 65.76 98.242826 
L 65.667391 97.992 
L 63.782268 92.448 
L 62.169771 86.904 
L 60.7619 81.36 
L 59.808 77.182991 
L 59.450096 75.816 
L 58.125107 70.272 
L 56.968461 64.728 
L 55.943455 59.184 
L 55.024167 53.64 
L 54.191663 48.096 
L 53.856 45.702831 
z
" clip-path="url(#p4d18b8bcef)" style="fill: #1fa287"/>
    <path d="M 41.050877 125.712 
L 40.144686 120.168 
L 39.119834 114.624 
L 38.098374 109.08 
L 37.068707 103.536 
L 36.018282 97.992 
L 36 97.889113 
L 36 92.448 
L 36 90.876779 
L 36.262105 92.448 
L 37.222583 97.992 
L 38.161967 103.536 
L 39.092216 109.08 
L 40.024151 114.624 
L 40.967969 120.168 
L 41.930485 125.712 
L 41.952 125.804883 
L 43.739637 131.256 
L 45.475749 136.8 
L 47.173997 142.344 
L 47.904 144.545031 
L 49.585573 147.888 
L 52.359907 153.432 
L 53.856 156.304252 
L 55.767692 158.976 
L 59.787654 164.52 
L 59.808 164.543973 
L 65.507432 170.064 
L 65.76 170.275304 
L 71.712 174.467699 
L 73.457608 175.608 
L 77.664 177.697262 
L 83.616 180.602879 
L 84.840527 181.152 
L 89.568 182.588929 
L 95.52 184.32895 
L 101.472 186.09704 
L 103.609725 186.696 
L 107.424 187.341613 
L 113.376 188.267355 
L 119.328 189.157688 
L 125.28 190.023269 
L 131.232 190.874658 
L 137.184 191.722811 
L 140.928205 192.24 
L 137.184 192.24 
L 131.602791 192.24 
L 131.232 192.183942 
L 125.28 191.203758 
L 119.328 190.223312 
L 113.376 189.229906 
L 107.424 188.211166 
L 101.472 187.207699 
L 99.156275 186.696 
L 95.52 185.563819 
L 89.568 183.653677 
L 83.616 181.751091 
L 81.957305 181.152 
L 77.664 178.984632 
L 71.712 175.95607 
L 71.127067 175.608 
L 65.76 171.609823 
L 63.912305 170.064 
L 59.808 166.088889 
L 58.476503 164.52 
L 54.128923 158.976 
L 53.856 158.594567 
L 51.166932 153.432 
L 48.152298 147.888 
L 47.904 147.394383 
L 46.228969 142.344 
L 44.393237 136.8 
L 42.494352 131.256 
L 41.952 129.602181 
z
M 53.505151 31.464 
L 52.711081 25.92 
L 53.856 25.92 
L 54.376043 25.92 
L 55.066461 31.464 
L 55.814398 37.008 
L 56.629046 42.552 
L 57.521971 48.096 
L 58.507988 53.64 
L 59.606478 59.184 
L 59.808 60.130568 
L 60.694521 64.728 
L 61.865637 70.272 
L 63.168975 75.816 
L 64.63531 81.36 
L 65.76 85.168493 
L 66.251825 86.904 
L 67.954403 92.448 
L 69.890323 97.992 
L 71.712 102.565999 
L 72.098298 103.536 
L 74.496549 109.08 
L 77.291423 114.624 
L 77.664 115.299844 
L 80.431846 120.168 
L 83.616 124.996842 
L 84.115876 125.712 
L 88.386707 131.256 
L 89.568 132.630404 
L 93.468435 136.8 
L 95.52 138.786639 
L 99.601785 142.344 
L 101.472 143.853671 
L 107.141907 147.888 
L 107.424 148.078519 
L 113.376 151.718735 
L 116.610921 153.432 
L 119.328 154.840643 
L 125.28 157.551166 
L 128.846687 158.976 
L 131.232 159.94218 
L 137.184 162.088166 
L 143.136 163.93877 
L 145.191458 164.52 
L 149.088 165.685243 
L 155.04 167.260861 
L 160.992 168.642881 
L 166.944 169.870967 
L 167.949108 170.064 
L 172.896 171.12696 
L 178.848 172.264004 
L 184.8 173.276727 
L 190.752 174.1877 
L 196.704 175.013929 
L 201.355048 175.608 
L 202.656 175.811883 
L 208.608 176.6761 
L 214.56 177.452303 
L 214.56 179.319016 
L 208.608 178.623406 
L 202.656 177.852341 
L 196.704 176.989549 
L 190.752 176.013094 
L 188.508903 175.608 
L 184.8 175.078341 
L 178.848 174.15192 
L 172.896 173.116552 
L 166.944 171.94598 
L 160.992 170.603375 
L 158.838663 170.064 
L 155.04 169.233238 
L 149.088 167.785453 
L 143.136 166.117329 
L 138.215372 164.52 
L 137.184 164.206014 
L 131.232 162.224767 
L 125.28 159.891538 
L 123.212188 158.976 
L 119.328 157.288295 
L 113.376 154.284276 
L 111.878498 153.432 
L 107.424 150.843132 
L 103.04846 147.888 
L 101.472 146.766296 
L 95.993559 142.344 
L 95.52 141.931284 
L 90.221021 136.8 
L 89.568 136.101916 
L 85.402963 131.256 
L 83.616 128.906597 
L 81.329727 125.712 
L 77.891671 120.168 
L 77.664 119.767566 
L 74.828475 114.624 
L 72.234027 109.08 
L 71.712 107.858513 
L 69.855166 103.536 
L 67.785224 97.992 
L 65.98483 92.448 
L 65.76 91.703042 
L 64.238629 86.904 
L 62.698605 81.36 
L 61.341176 75.816 
L 60.12913 70.272 
L 59.808 68.695958 
L 58.905933 64.728 
L 57.774967 59.184 
L 56.766077 53.64 
L 55.856817 48.096 
L 55.030381 42.552 
L 54.273882 37.008 
L 53.856 33.727665 
z
" clip-path="url(#p4d18b8bcef)" style="fill: #21908d"/>
    <path d="M 41.31888 131.256 
L 40.171269 125.712 
L 39.321403 120.168 
L 38.215516 114.624 
L 37.104531 109.08 
L 36 103.645812 
L 36 103.536 
L 36 97.992 
L 36 97.889113 
L 36.018282 97.992 
L 37.068707 103.536 
L 38.098374 109.08 
L 39.119834 114.624 
L 40.144686 120.168 
L 41.050877 125.712 
L 41.952 129.602181 
L 42.494352 131.256 
L 44.393237 136.8 
L 46.228969 142.344 
L 47.904 147.394383 
L 48.152298 147.888 
L 51.166932 153.432 
L 53.856 158.594567 
L 54.128923 158.976 
L 58.476503 164.52 
L 59.808 166.088889 
L 63.912305 170.064 
L 65.76 171.609823 
L 71.127067 175.608 
L 71.712 175.95607 
L 77.664 178.984632 
L 81.957305 181.152 
L 83.616 181.751091 
L 89.568 183.653677 
L 95.52 185.563819 
L 99.156275 186.696 
L 101.472 187.207699 
L 107.424 188.211166 
L 113.376 189.229906 
L 119.328 190.223312 
L 125.28 191.203758 
L 131.232 192.183942 
L 131.602791 192.24 
L 131.232 192.24 
L 125.28 192.24 
L 124.563238 192.24 
L 119.328 191.288935 
L 113.376 190.192457 
L 107.424 189.080719 
L 101.472 188.084072 
L 95.52 186.791542 
L 95.264934 186.696 
L 89.568 184.718425 
L 83.616 182.672153 
L 79.407172 181.152 
L 77.664 180.272003 
L 71.712 177.022077 
L 69.335638 175.608 
L 65.76 172.944341 
L 62.317178 170.064 
L 59.808 167.633805 
L 57.165351 164.52 
L 53.856 160.352246 
L 52.966284 158.976 
L 49.973957 153.432 
L 47.904 149.67714 
L 47.020371 147.888 
L 45.28394 142.344 
L 43.310725 136.8 
L 41.952 132.975823 
z
M 59.606478 59.184 
L 58.507988 53.64 
L 57.521971 48.096 
L 56.629046 42.552 
L 55.814398 37.008 
L 55.066461 31.464 
L 54.376043 25.92 
L 55.819702 25.92 
L 56.55569 31.464 
L 57.354914 37.008 
L 58.227712 42.552 
L 59.187125 48.096 
L 59.808 51.395266 
L 60.197139 53.64 
L 61.224882 59.184 
L 62.353397 64.728 
L 63.602144 70.272 
L 64.996775 75.816 
L 65.76 78.582332 
L 66.500387 81.36 
L 68.110347 86.904 
L 69.923976 92.448 
L 71.712 97.275979 
L 71.978295 97.992 
L 74.203275 103.536 
L 76.759071 109.08 
L 77.664 110.855781 
L 79.647501 114.624 
L 82.97202 120.168 
L 83.616 121.14461 
L 86.808479 125.712 
L 89.568 129.200018 
L 91.327182 131.256 
L 95.52 135.670837 
L 96.699372 136.8 
L 101.472 140.989744 
L 103.195768 142.344 
L 107.424 145.444592 
L 111.211656 147.888 
L 113.376 149.218324 
L 119.328 152.455163 
L 121.342398 153.432 
L 125.28 155.299968 
L 131.232 157.766405 
L 134.512999 158.976 
L 137.184 159.970318 
L 143.136 161.952835 
L 149.088 163.683986 
L 152.262047 164.52 
L 155.04 165.288484 
L 160.992 166.776025 
L 166.944 168.092689 
L 172.896 169.270907 
L 177.288829 170.064 
L 178.848 170.376087 
L 184.8 171.475114 
L 190.752 172.460258 
L 196.704 173.350913 
L 202.656 174.161993 
L 208.608 174.905194 
L 214.56 175.589846 
L 214.56 175.608 
L 214.56 177.452303 
L 208.608 176.6761 
L 202.656 175.811883 
L 201.355048 175.608 
L 196.704 175.013929 
L 190.752 174.1877 
L 184.8 173.276727 
L 178.848 172.264004 
L 172.896 171.12696 
L 167.949108 170.064 
L 166.944 169.870967 
L 160.992 168.642881 
L 155.04 167.260861 
L 149.088 165.685243 
L 145.191458 164.52 
L 143.136 163.93877 
L 137.184 162.088166 
L 131.232 159.94218 
L 128.846687 158.976 
L 125.28 157.551166 
L 119.328 154.840643 
L 116.610921 153.432 
L 113.376 151.718735 
L 107.424 148.078519 
L 107.141907 147.888 
L 101.472 143.853671 
L 99.601785 142.344 
L 95.52 138.786639 
L 93.468435 136.8 
L 89.568 132.630404 
L 88.386707 131.256 
L 84.115876 125.712 
L 83.616 124.996842 
L 80.431846 120.168 
L 77.664 115.299844 
L 77.291423 114.624 
L 74.496549 109.08 
L 72.098298 103.536 
L 71.712 102.565999 
L 69.890323 97.992 
L 67.954403 92.448 
L 66.251825 86.904 
L 65.76 85.168493 
L 64.63531 81.36 
L 63.168975 75.816 
L 61.865637 70.272 
L 60.694521 64.728 
L 59.808 60.130568 
z
" clip-path="url(#p4d18b8bcef)" style="fill: #277e8e"/>
    <path d="M 40.197272 131.256 
L 39.291661 125.712 
L 38.49812 120.168 
L 37.311198 114.624 
L 36.110689 109.08 
L 36 108.535422 
L 36 103.645812 
L 37.104531 109.08 
L 38.215516 114.624 
L 39.321403 120.168 
L 40.171269 125.712 
L 41.31888 131.256 
L 41.952 132.975823 
L 43.310725 136.8 
L 45.28394 142.344 
L 47.020371 147.888 
L 47.904 149.67714 
L 49.973957 153.432 
L 52.966284 158.976 
L 53.856 160.352246 
L 57.165351 164.52 
L 59.808 167.633805 
L 62.317178 170.064 
L 65.76 172.944341 
L 69.335638 175.608 
L 71.712 177.022077 
L 77.664 180.272003 
L 79.407172 181.152 
L 83.616 182.672153 
L 89.568 184.718425 
L 95.264934 186.696 
L 95.52 186.791542 
L 101.472 188.084072 
L 107.424 189.080719 
L 113.376 190.192457 
L 119.328 191.288935 
L 124.563238 192.24 
L 119.328 192.24 
L 118.809773 192.24 
L 113.376 191.155007 
L 107.424 189.950271 
L 101.472 188.960445 
L 95.52 187.940474 
L 92.197644 186.696 
L 89.568 185.783172 
L 83.616 183.593216 
L 77.664 181.584248 
L 77.073697 181.152 
L 71.712 178.088085 
L 67.544209 175.608 
L 65.76 174.27886 
L 60.722051 170.064 
L 59.808 169.178721 
L 55.8542 164.52 
L 53.856 162.003493 
L 51.898785 158.976 
L 48.780982 153.432 
L 47.904 151.841172 
L 45.951589 147.888 
L 44.338912 142.344 
L 42.228213 136.8 
L 41.952 136.022589 
z
M 59.187125 48.096 
L 58.227712 42.552 
L 57.354914 37.008 
L 56.55569 31.464 
L 55.819702 25.92 
L 57.263362 25.92 
L 58.044919 31.464 
L 58.89543 37.008 
L 59.808 42.446459 
L 59.826228 42.552 
L 60.737997 48.096 
L 61.731077 53.64 
L 62.816939 59.184 
L 64.012274 64.728 
L 65.33865 70.272 
L 65.76 71.902402 
L 66.742798 75.816 
L 68.266257 81.36 
L 69.96887 86.904 
L 71.712 91.9519 
L 71.884666 92.448 
L 73.956185 97.992 
L 76.308253 103.536 
L 77.664 106.406108 
L 78.970534 109.08 
L 81.984532 114.624 
L 83.616 117.30315 
L 85.462192 120.168 
L 89.501082 125.712 
L 89.568 125.796585 
L 94.239299 131.256 
L 95.52 132.604517 
L 99.902041 136.8 
L 101.472 138.178219 
L 106.774424 142.344 
L 107.424 142.820339 
L 113.376 146.760587 
L 115.293379 147.888 
L 119.328 150.153971 
L 125.28 153.066744 
L 126.099227 153.432 
L 131.232 155.669023 
L 137.184 157.928947 
L 140.251195 158.976 
L 143.136 159.9669 
L 149.088 161.806055 
L 155.04 163.42872 
L 159.476724 164.52 
L 160.992 164.909169 
L 166.944 166.314411 
L 172.896 167.568041 
L 178.848 168.696864 
L 184.8 169.721248 
L 186.936201 170.064 
L 190.752 170.732815 
L 196.704 171.687897 
L 202.656 172.555461 
L 208.608 173.348586 
L 214.56 174.077683 
L 214.56 175.589846 
L 208.608 174.905194 
L 202.656 174.161993 
L 196.704 173.350913 
L 190.752 172.460258 
L 184.8 171.475114 
L 178.848 170.376087 
L 177.288829 170.064 
L 172.896 169.270907 
L 166.944 168.092689 
L 160.992 166.776025 
L 155.04 165.288484 
L 152.262047 164.52 
L 149.088 163.683986 
L 143.136 161.952835 
L 137.184 159.970318 
L 134.512999 158.976 
L 131.232 157.766405 
L 125.28 155.299968 
L 121.342398 153.432 
L 119.328 152.455163 
L 113.376 149.218324 
L 111.211656 147.888 
L 107.424 145.444592 
L 103.195768 142.344 
L 101.472 140.989744 
L 96.699372 136.8 
L 95.52 135.670837 
L 91.327182 131.256 
L 89.568 129.200018 
L 86.808479 125.712 
L 83.616 121.14461 
L 82.97202 120.168 
L 79.647501 114.624 
L 77.664 110.855781 
L 76.759071 109.08 
L 74.203275 103.536 
L 71.978295 97.992 
L 71.712 97.275979 
L 69.923976 92.448 
L 68.110347 86.904 
L 66.500387 81.36 
L 65.76 78.582332 
L 64.996775 75.816 
L 63.602144 70.272 
L 62.353397 64.728 
L 61.224882 59.184 
L 60.197139 53.64 
L 59.808 51.395266 
z
" clip-path="url(#p4d18b8bcef)" style="fill: #2f6b8e"/>
    <path d="M 40.680635 136.8 
L 39.075664 131.256 
L 38.412053 125.712 
L 37.674838 120.168 
L 36.406881 114.624 
L 36 112.760486 
L 36 109.08 
L 36 108.535422 
L 36.110689 109.08 
L 37.311198 114.624 
L 38.49812 120.168 
L 39.291661 125.712 
L 40.197272 131.256 
L 41.952 136.022589 
L 42.228213 136.8 
L 44.338912 142.344 
L 45.951589 147.888 
L 47.904 151.841172 
L 48.780982 153.432 
L 51.898785 158.976 
L 53.856 162.003493 
L 55.8542 164.52 
L 59.808 169.178721 
L 60.722051 170.064 
L 65.76 174.27886 
L 67.544209 175.608 
L 71.712 178.088085 
L 77.073697 181.152 
L 77.664 181.584248 
L 83.616 183.593216 
L 89.568 185.783172 
L 92.197644 186.696 
L 95.52 187.940474 
L 101.472 188.960445 
L 107.424 189.950271 
L 113.376 191.155007 
L 118.809773 192.24 
L 113.989204 192.24 
L 113.376 192.117558 
L 107.424 190.819824 
L 101.472 189.836818 
L 95.52 189.089407 
L 89.568 186.970198 
L 89.229844 186.696 
L 83.616 184.514278 
L 77.664 182.950226 
L 75.208238 181.152 
L 71.712 179.154092 
L 65.76 175.616136 
L 65.751265 175.608 
L 59.808 170.810928 
L 59.006104 170.064 
L 54.543049 164.52 
L 53.856 163.65474 
L 50.831286 158.976 
L 47.904 153.920344 
L 47.379717 153.432 
L 44.882806 147.888 
L 43.393884 142.344 
L 41.952 138.618639 
z
M 58.89543 37.008 
L 58.044919 31.464 
L 57.263362 25.92 
L 58.707021 25.92 
L 59.534149 31.464 
L 59.808 33.187517 
L 60.578255 37.008 
L 61.411869 42.552 
L 62.220922 48.096 
L 63.265014 53.64 
L 64.408995 59.184 
L 65.67115 64.728 
L 65.76 65.094176 
L 67.048107 70.272 
L 68.430195 75.816 
L 70.032127 81.36 
L 71.712 86.564332 
L 71.84378 86.904 
L 73.757876 92.448 
L 75.934075 97.992 
L 77.664 101.932434 
L 78.393212 103.536 
L 81.147963 109.08 
L 83.616 113.457915 
L 84.310961 114.624 
L 87.935383 120.168 
L 89.568 122.405997 
L 92.165051 125.712 
L 95.52 129.549439 
L 97.149278 131.256 
L 101.472 135.384109 
L 103.111726 136.8 
L 107.424 140.242428 
L 110.373483 142.344 
L 113.376 144.351368 
L 119.328 147.853675 
L 119.391751 147.888 
L 125.28 150.921123 
L 130.911597 153.432 
L 131.232 153.571641 
L 137.184 155.955257 
L 143.136 158.038017 
L 146.094387 158.976 
L 149.088 159.928124 
L 155.04 161.64084 
L 160.992 163.165163 
L 166.876551 164.52 
L 166.944 164.536134 
L 172.896 165.865174 
L 178.848 167.058973 
L 184.8 168.13992 
L 190.752 169.05133 
L 196.704 170.016847 
L 196.947767 170.064 
L 202.656 170.94893 
L 208.608 171.791979 
L 214.56 172.565519 
L 214.56 174.077683 
L 208.608 173.348586 
L 202.656 172.555461 
L 196.704 171.687897 
L 190.752 170.732815 
L 186.936201 170.064 
L 184.8 169.721248 
L 178.848 168.696864 
L 172.896 167.568041 
L 166.944 166.314411 
L 160.992 164.909169 
L 159.476724 164.52 
L 155.04 163.42872 
L 149.088 161.806055 
L 143.136 159.9669 
L 140.251195 158.976 
L 137.184 157.928947 
L 131.232 155.669023 
L 126.099227 153.432 
L 125.28 153.066744 
L 119.328 150.153971 
L 115.293379 147.888 
L 113.376 146.760587 
L 107.424 142.820339 
L 106.774424 142.344 
L 101.472 138.178219 
L 99.902041 136.8 
L 95.52 132.604517 
L 94.239299 131.256 
L 89.568 125.796585 
L 89.501082 125.712 
L 85.462192 120.168 
L 83.616 117.30315 
L 81.984532 114.624 
L 78.970534 109.08 
L 77.664 106.406108 
L 76.308253 103.536 
L 73.956185 97.992 
L 71.884666 92.448 
L 71.712 91.9519 
L 69.96887 86.904 
L 68.266257 81.36 
L 66.742798 75.816 
L 65.76 71.902402 
L 65.33865 70.272 
L 64.012274 64.728 
L 62.816939 59.184 
L 61.731077 53.64 
L 60.737997 48.096 
L 59.826228 42.552 
L 59.808 42.446459 
z
" clip-path="url(#p4d18b8bcef)" style="fill: #39568c"/>
    <path d="M 38.973739 136.8 
L 37.954056 131.256 
L 37.532445 125.712 
L 36.851555 120.168 
L 36 116.548743 
L 36 114.624 
L 36 112.760486 
L 36.406881 114.624 
L 37.674838 120.168 
L 38.412053 125.712 
L 39.075664 131.256 
L 40.680635 136.8 
L 41.952 138.618639 
L 43.393884 142.344 
L 44.882806 147.888 
L 47.379717 153.432 
L 47.904 153.920344 
L 50.831286 158.976 
L 53.856 163.65474 
L 54.543049 164.52 
L 59.006104 170.064 
L 59.808 170.810928 
L 65.751265 175.608 
L 65.76 175.616136 
L 71.712 179.154092 
L 75.208238 181.152 
L 77.664 182.950226 
L 83.616 184.514278 
L 89.229844 186.696 
L 89.568 186.970198 
L 95.52 189.089407 
L 101.472 189.836818 
L 107.424 190.819824 
L 113.376 192.117558 
L 113.989204 192.24 
L 113.376 192.24 
L 109.926594 192.24 
L 107.424 191.689377 
L 101.472 190.713191 
L 95.52 190.238339 
L 89.568 188.891946 
L 86.859834 186.696 
L 83.616 185.435341 
L 77.664 184.316205 
L 73.342779 181.152 
L 71.712 180.220099 
L 65.76 177.63491 
L 63.583924 175.608 
L 59.808 172.560285 
L 57.128006 170.064 
L 53.856 165.709675 
L 52.578773 164.52 
L 49.763787 158.976 
L 47.904 155.763999 
L 45.400382 153.432 
L 43.814024 147.888 
L 42.448855 142.344 
L 41.952 141.060287 
z
M 59.534149 31.464 
L 58.707021 25.92 
L 59.808 25.92 
L 60.521704 25.92 
L 61.706719 31.464 
L 62.467891 37.008 
L 62.99751 42.552 
L 63.703848 48.096 
L 64.798952 53.64 
L 65.76 58.104972 
L 66.235911 59.184 
L 67.855196 64.728 
L 68.748898 70.272 
L 70.117591 75.816 
L 71.712 81.088271 
L 71.873851 81.36 
L 73.96625 86.904 
L 75.631087 92.448 
L 77.664 97.417882 
L 78.063554 97.992 
L 80.441945 103.536 
L 83.325392 109.08 
L 83.616 109.595493 
L 86.61288 114.624 
L 89.568 119.007481 
L 90.539598 120.168 
L 94.828291 125.712 
L 95.52 126.503187 
L 100.057577 131.256 
L 101.472 132.606744 
L 106.328158 136.8 
L 107.424 137.674795 
L 113.376 141.859596 
L 113.987507 142.344 
L 119.328 145.610955 
L 123.557076 147.888 
L 125.28 148.775503 
L 131.232 151.497906 
L 135.816429 153.432 
L 137.184 153.981568 
L 143.136 156.165949 
L 149.088 157.753214 
L 152.071534 158.976 
L 155.04 159.852961 
L 160.992 161.453511 
L 166.944 162.509952 
L 172.896 163.92349 
L 174.540613 164.52 
L 178.848 165.421081 
L 184.8 166.558592 
L 190.752 167.398882 
L 196.704 168.012302 
L 202.656 168.927634 
L 207.436324 170.064 
L 208.608 170.235371 
L 214.56 171.053355 
L 214.56 172.565519 
L 208.608 171.791979 
L 202.656 170.94893 
L 196.947767 170.064 
L 196.704 170.016847 
L 190.752 169.05133 
L 184.8 168.13992 
L 178.848 167.058973 
L 172.896 165.865174 
L 166.944 164.536134 
L 166.876551 164.52 
L 160.992 163.165163 
L 155.04 161.64084 
L 149.088 159.928124 
L 146.094387 158.976 
L 143.136 158.038017 
L 137.184 155.955257 
L 131.232 153.571641 
L 130.911597 153.432 
L 125.28 150.921123 
L 119.391751 147.888 
L 119.328 147.853675 
L 113.376 144.351368 
L 110.373483 142.344 
L 107.424 140.242428 
L 103.111726 136.8 
L 101.472 135.384109 
L 97.149278 131.256 
L 95.52 129.549439 
L 92.165051 125.712 
L 89.568 122.405997 
L 87.935383 120.168 
L 84.310961 114.624 
L 83.616 113.457915 
L 81.147963 109.08 
L 78.393212 103.536 
L 77.664 101.932434 
L 75.934075 97.992 
L 73.757876 92.448 
L 71.84378 86.904 
L 71.712 86.564332 
L 70.032127 81.36 
L 68.430195 75.816 
L 67.048107 70.272 
L 65.76 65.094176 
L 65.67115 64.728 
L 64.408995 59.184 
L 63.265014 53.64 
L 62.220922 48.096 
L 61.411869 42.552 
L 60.578255 37.008 
L 59.808 33.187517 
z
" clip-path="url(#p4d18b8bcef)" style="fill: #424186"/>
    <path d="M 39.631534 142.344 
L 37.266843 136.8 
L 36.832448 131.256 
L 36.652837 125.712 
L 36.028272 120.168 
L 36 120.047839 
L 36 116.548743 
L 36.851555 120.168 
L 37.532445 125.712 
L 37.954056 131.256 
L 38.973739 136.8 
L 41.952 141.060287 
L 42.448855 142.344 
L 43.814024 147.888 
L 45.400382 153.432 
L 47.904 155.763999 
L 49.763787 158.976 
L 52.578773 164.52 
L 53.856 165.709675 
L 57.128006 170.064 
L 59.808 172.560285 
L 63.583924 175.608 
L 65.76 177.63491 
L 71.712 180.220099 
L 73.342779 181.152 
L 77.664 184.316205 
L 83.616 185.435341 
L 86.859834 186.696 
L 89.568 188.891946 
L 95.52 190.238339 
L 101.472 190.713191 
L 107.424 191.689377 
L 109.926594 192.24 
L 107.424 192.24 
L 105.45546 192.24 
L 101.472 191.589564 
L 95.52 191.387272 
L 89.568 190.813695 
L 84.489825 186.696 
L 83.616 186.356403 
L 77.664 185.682183 
L 71.712 181.95552 
L 70.849347 181.152 
L 65.76 179.653683 
L 61.416582 175.608 
L 59.808 174.309642 
L 55.249908 170.064 
L 53.856 168.209013 
L 49.895501 164.52 
L 48.696289 158.976 
L 47.904 157.607655 
L 43.421046 153.432 
L 42.745241 147.888 
L 41.952 144.505402 
z
M 64.798952 53.64 
L 63.703848 48.096 
L 62.99751 42.552 
L 62.467891 37.008 
L 61.706719 31.464 
L 60.521704 25.92 
L 63.528432 25.92 
L 64.033261 31.464 
L 64.357528 37.008 
L 64.583151 42.552 
L 65.186773 48.096 
L 65.76 50.915686 
L 67.752468 53.64 
L 69.37913 59.184 
L 70.068962 64.728 
L 70.449688 70.272 
L 71.712 75.432817 
L 72.123383 75.816 
L 75.197337 81.36 
L 76.088721 86.904 
L 77.504297 92.448 
L 77.664 92.838427 
L 81.250601 97.992 
L 82.490678 103.536 
L 83.616 105.686842 
L 86.822027 109.08 
L 88.914798 114.624 
L 89.568 115.592928 
L 93.398298 120.168 
L 95.52 122.943583 
L 98.492154 125.712 
L 101.472 128.988431 
L 103.906447 131.256 
L 107.424 134.191953 
L 110.223982 136.8 
L 113.376 138.95544 
L 117.653683 142.344 
L 119.328 143.368234 
L 125.28 145.441128 
L 127.906945 147.888 
L 131.232 149.425857 
L 137.184 150.699084 
L 140.817581 153.432 
L 143.136 154.293881 
L 149.088 155.272881 
L 155.04 156.719327 
L 158.208995 158.976 
L 160.992 159.74186 
L 166.944 160.4815 
L 172.896 161.083682 
L 178.848 162.427809 
L 182.471086 164.52 
L 184.8 164.977264 
L 190.752 165.746433 
L 196.704 166.007756 
L 202.656 166.397697 
L 208.608 167.041116 
L 214.56 168.302156 
L 214.56 170.064 
L 214.56 171.053355 
L 208.608 170.235371 
L 207.436324 170.064 
L 202.656 168.927634 
L 196.704 168.012302 
L 190.752 167.398882 
L 184.8 166.558592 
L 178.848 165.421081 
L 174.540613 164.52 
L 172.896 163.92349 
L 166.944 162.509952 
L 160.992 161.453511 
L 155.04 159.852961 
L 152.071534 158.976 
L 149.088 157.753214 
L 143.136 156.165949 
L 137.184 153.981568 
L 135.816429 153.432 
L 131.232 151.497906 
L 125.28 148.775503 
L 123.557076 147.888 
L 119.328 145.610955 
L 113.987507 142.344 
L 113.376 141.859596 
L 107.424 137.674795 
L 106.328158 136.8 
L 101.472 132.606744 
L 100.057577 131.256 
L 95.52 126.503187 
L 94.828291 125.712 
L 90.539598 120.168 
L 89.568 119.007481 
L 86.61288 114.624 
L 83.616 109.595493 
L 83.325392 109.08 
L 80.441945 103.536 
L 78.063554 97.992 
L 77.664 97.417882 
L 75.631087 92.448 
L 73.96625 86.904 
L 71.873851 81.36 
L 71.712 81.088271 
L 70.117591 75.816 
L 68.748898 70.272 
L 67.855196 64.728 
L 66.235911 59.184 
L 65.76 58.104972 
z
" clip-path="url(#p4d18b8bcef)" style="fill: #482979"/>
    <path d="M 36 186.696 
L 36 181.152 
L 36 175.608 
L 36 170.064 
L 36 164.52 
L 36 158.976 
L 36 153.432 
L 36 147.888 
L 36 142.344 
L 36 136.8 
L 36 131.256 
L 36 125.712 
L 36 120.168 
L 36 120.047839 
L 36.028272 120.168 
L 36.652837 125.712 
L 36.832448 131.256 
L 37.266843 136.8 
L 39.631534 142.344 
L 41.952 144.505402 
L 42.745241 147.888 
L 43.421046 153.432 
L 47.904 157.607655 
L 48.696289 158.976 
L 49.895501 164.52 
L 53.856 168.209013 
L 55.249908 170.064 
L 59.808 174.309642 
L 61.416582 175.608 
L 65.76 179.653683 
L 70.849347 181.152 
L 71.712 181.95552 
L 77.664 185.682183 
L 83.616 186.356403 
L 84.489825 186.696 
L 89.568 190.813695 
L 95.52 191.387272 
L 101.472 191.589564 
L 105.45546 192.24 
L 101.472 192.24 
L 95.52 192.24 
L 89.568 192.24 
L 83.616 192.24 
L 77.664 192.24 
L 71.712 192.24 
L 65.76 192.24 
L 59.808 192.24 
L 53.856 192.24 
L 47.904 192.24 
L 41.952 192.24 
L 36 192.24 
z
M 65.186773 48.096 
L 64.583151 42.552 
L 64.357528 37.008 
L 64.033261 31.464 
L 63.528432 25.92 
L 65.76 25.92 
L 71.712 25.92 
L 77.664 25.92 
L 83.616 25.92 
L 89.568 25.92 
L 95.52 25.92 
L 101.472 25.92 
L 107.424 25.92 
L 113.376 25.92 
L 119.328 25.92 
L 125.28 25.92 
L 131.232 25.92 
L 137.184 25.92 
L 143.136 25.92 
L 149.088 25.92 
L 155.04 25.92 
L 160.992 25.92 
L 166.944 25.92 
L 172.896 25.92 
L 178.848 25.92 
L 184.8 25.92 
L 190.752 25.92 
L 196.704 25.92 
L 202.656 25.92 
L 208.608 25.92 
L 214.56 25.92 
L 214.56 31.464 
L 214.56 37.008 
L 214.56 42.552 
L 214.56 48.096 
L 214.56 53.64 
L 214.56 59.184 
L 214.56 64.728 
L 214.56 70.272 
L 214.56 75.816 
L 214.56 81.36 
L 214.56 86.904 
L 214.56 92.448 
L 214.56 97.992 
L 214.56 103.536 
L 214.56 109.08 
L 214.56 114.624 
L 214.56 120.168 
L 214.56 125.712 
L 214.56 131.256 
L 214.56 136.8 
L 214.56 142.344 
L 214.56 147.888 
L 214.56 153.432 
L 214.56 158.976 
L 214.56 164.52 
L 214.56 168.302156 
L 208.608 167.041116 
L 202.656 166.397697 
L 196.704 166.007756 
L 190.752 165.746433 
L 184.8 164.977264 
L 182.471086 164.52 
L 178.848 162.427809 
L 172.896 161.083682 
L 166.944 160.4815 
L 160.992 159.74186 
L 158.208995 158.976 
L 155.04 156.719327 
L 149.088 155.272881 
L 143.136 154.293881 
L 140.817581 153.432 
L 137.184 150.699084 
L 131.232 149.425857 
L 127.906945 147.888 
L 125.28 145.441128 
L 119.328 143.368234 
L 117.653683 142.344 
L 113.376 138.95544 
L 110.223982 136.8 
L 107.424 134.191953 
L 103.906447 131.256 
L 101.472 128.988431 
L 98.492154 125.712 
L 95.52 122.943583 
L 93.398298 120.168 
L 89.568 115.592928 
L 88.914798 114.624 
L 86.822027 109.08 
L 83.616 105.686842 
L 82.490678 103.536 
L 81.250601 97.992 
L 77.664 92.838427 
L 77.504297 92.448 
L 76.088721 86.904 
L 75.197337 81.36 
L 72.123383 75.816 
L 71.712 75.432817 
L 70.449688 70.272 
L 70.068962 64.728 
L 69.37913 59.184 
L 67.752468 53.64 
L 65.76 50.915686 
z
" clip-path="url(#p4d18b8bcef)" style="fill: #470e61"/>
   </g>
   <g id="PathCollection_1">
    <defs>
     <path id="m42706c7820" d="M -4.743416 4.743416 
L 4.743416 -4.743416 
M -4.743416 -4.743416 
L 4.743416 4.743416 
" style="stroke: #ffffff; stroke-width: 5"/>
    </defs>
    <g clip-path="url(#p4d18b8bcef)">
     <use xlink:href="#m42706c7820" x="65.76" y="146.04" style="fill: #ffffff; stroke: #ffffff; stroke-width: 5"/>
    </g>
   </g>
   <g id="PathCollection_2">
    <defs>
     <path id="m8406606b31" d="M -4.330127 4.330127 
L 4.330127 -4.330127 
M -4.330127 -4.330127 
L 4.330127 4.330127 
" style="stroke: #000000; stroke-width: 2"/>
    </defs>
    <g clip-path="url(#p4d18b8bcef)">
     <use xlink:href="#m8406606b31" x="65.76" y="146.04" style="stroke: #000000; stroke-width: 2"/>
    </g>
   </g>
   <g id="matplotlib.axis_1">
    <g id="xtick_1">
     <g id="line2d_1">
      <defs>
       <path id="mf1e1234d75" d="M 0 0 
L 0 6 
" style="stroke: #000000; stroke-width: 2"/>
      </defs>
      <g>
       <use xlink:href="#mf1e1234d75" x="65.76" y="192.24" style="stroke: #000000; stroke-width: 2"/>
      </g>
     </g>
     <g id="text_1">
      <!-- $\mathdefault{200}$ -->
      <g transform="translate(52.39 212.377813) scale(0.14 -0.14)">
       <defs>
        <path id="DejaVuSans-32" d="M 1228 531 
L 3431 531 
L 3431 0 
L 469 0 
L 469 531 
Q 828 903 1448 1529 
Q 2069 2156 2228 2338 
Q 2531 2678 2651 2914 
Q 2772 3150 2772 3378 
Q 2772 3750 2511 3984 
Q 2250 4219 1831 4219 
Q 1534 4219 1204 4116 
Q 875 4013 500 3803 
L 500 4441 
Q 881 4594 1212 4672 
Q 1544 4750 1819 4750 
Q 2544 4750 2975 4387 
Q 3406 4025 3406 3419 
Q 3406 3131 3298 2873 
Q 3191 2616 2906 2266 
Q 2828 2175 2409 1742 
Q 1991 1309 1228 531 
z
" transform="scale(0.015625)"/>
        <path id="DejaVuSans-30" d="M 2034 4250 
Q 1547 4250 1301 3770 
Q 1056 3291 1056 2328 
Q 1056 1369 1301 889 
Q 1547 409 2034 409 
Q 2525 409 2770 889 
Q 3016 1369 3016 2328 
Q 3016 3291 2770 3770 
Q 2525 4250 2034 4250 
z
M 2034 4750 
Q 2819 4750 3233 4129 
Q 3647 3509 3647 2328 
Q 3647 1150 3233 529 
Q 2819 -91 2034 -91 
Q 1250 -91 836 529 
Q 422 1150 422 2328 
Q 422 3509 836 4129 
Q 1250 4750 2034 4750 
z
" transform="scale(0.015625)"/>
       </defs>
       <use xlink:href="#DejaVuSans-32" transform="translate(0 0.78125)"/>
       <use xlink:href="#DejaVuSans-30" transform="translate(63.623047 0.78125)"/>
       <use xlink:href="#DejaVuSans-30" transform="translate(127.246094 0.78125)"/>
      </g>
     </g>
    </g>
    <g id="xtick_2">
     <g id="line2d_2">
      <g>
       <use xlink:href="#mf1e1234d75" x="105.44" y="192.24" style="stroke: #000000; stroke-width: 2"/>
      </g>
     </g>
     <g id="text_2">
      <!-- $\mathdefault{400}$ -->
      <g transform="translate(92.07 212.377813) scale(0.14 -0.14)">
       <defs>
        <path id="DejaVuSans-34" d="M 2419 4116 
L 825 1625 
L 2419 1625 
L 2419 4116 
z
M 2253 4666 
L 3047 4666 
L 3047 1625 
L 3713 1625 
L 3713 1100 
L 3047 1100 
L 3047 0 
L 2419 0 
L 2419 1100 
L 313 1100 
L 313 1709 
L 2253 4666 
z
" transform="scale(0.015625)"/>
       </defs>
       <use xlink:href="#DejaVuSans-34" transform="translate(0 0.78125)"/>
       <use xlink:href="#DejaVuSans-30" transform="translate(63.623047 0.78125)"/>
       <use xlink:href="#DejaVuSans-30" transform="translate(127.246094 0.78125)"/>
      </g>
     </g>
    </g>
    <g id="xtick_3">
     <g id="line2d_3">
      <g>
       <use xlink:href="#mf1e1234d75" x="145.12" y="192.24" style="stroke: #000000; stroke-width: 2"/>
      </g>
     </g>
     <g id="text_3">
      <!-- $\mathdefault{600}$ -->
      <g transform="translate(131.75 212.377813) scale(0.14 -0.14)">
       <defs>
        <path id="DejaVuSans-36" d="M 2113 2584 
Q 1688 2584 1439 2293 
Q 1191 2003 1191 1497 
Q 1191 994 1439 701 
Q 1688 409 2113 409 
Q 2538 409 2786 701 
Q 3034 994 3034 1497 
Q 3034 2003 2786 2293 
Q 2538 2584 2113 2584 
z
M 3366 4563 
L 3366 3988 
Q 3128 4100 2886 4159 
Q 2644 4219 2406 4219 
Q 1781 4219 1451 3797 
Q 1122 3375 1075 2522 
Q 1259 2794 1537 2939 
Q 1816 3084 2150 3084 
Q 2853 3084 3261 2657 
Q 3669 2231 3669 1497 
Q 3669 778 3244 343 
Q 2819 -91 2113 -91 
Q 1303 -91 875 529 
Q 447 1150 447 2328 
Q 447 3434 972 4092 
Q 1497 4750 2381 4750 
Q 2619 4750 2861 4703 
Q 3103 4656 3366 4563 
z
" transform="scale(0.015625)"/>
       </defs>
       <use xlink:href="#DejaVuSans-36" transform="translate(0 0.78125)"/>
       <use xlink:href="#DejaVuSans-30" transform="translate(63.623047 0.78125)"/>
       <use xlink:href="#DejaVuSans-30" transform="translate(127.246094 0.78125)"/>
      </g>
     </g>
    </g>
    <g id="xtick_4">
     <g id="line2d_4">
      <g>
       <use xlink:href="#mf1e1234d75" x="184.8" y="192.24" style="stroke: #000000; stroke-width: 2"/>
      </g>
     </g>
     <g id="text_4">
      <!-- $\mathdefault{800}$ -->
      <g transform="translate(171.43 212.377813) scale(0.14 -0.14)">
       <defs>
        <path id="DejaVuSans-38" d="M 2034 2216 
Q 1584 2216 1326 1975 
Q 1069 1734 1069 1313 
Q 1069 891 1326 650 
Q 1584 409 2034 409 
Q 2484 409 2743 651 
Q 3003 894 3003 1313 
Q 3003 1734 2745 1975 
Q 2488 2216 2034 2216 
z
M 1403 2484 
Q 997 2584 770 2862 
Q 544 3141 544 3541 
Q 544 4100 942 4425 
Q 1341 4750 2034 4750 
Q 2731 4750 3128 4425 
Q 3525 4100 3525 3541 
Q 3525 3141 3298 2862 
Q 3072 2584 2669 2484 
Q 3125 2378 3379 2068 
Q 3634 1759 3634 1313 
Q 3634 634 3220 271 
Q 2806 -91 2034 -91 
Q 1263 -91 848 271 
Q 434 634 434 1313 
Q 434 1759 690 2068 
Q 947 2378 1403 2484 
z
M 1172 3481 
Q 1172 3119 1398 2916 
Q 1625 2713 2034 2713 
Q 2441 2713 2670 2916 
Q 2900 3119 2900 3481 
Q 2900 3844 2670 4047 
Q 2441 4250 2034 4250 
Q 1625 4250 1398 4047 
Q 1172 3844 1172 3481 
z
" transform="scale(0.015625)"/>
       </defs>
       <use xlink:href="#DejaVuSans-38" transform="translate(0 0.78125)"/>
       <use xlink:href="#DejaVuSans-30" transform="translate(63.623047 0.78125)"/>
       <use xlink:href="#DejaVuSans-30" transform="translate(127.246094 0.78125)"/>
      </g>
     </g>
    </g>
    <g id="text_5">
     <!-- Diploid N$_e$0 -->
     <g transform="translate(74.34 232.969375) scale(0.18 -0.18)">
      <defs>
       <path id="DejaVuSans-44" d="M 1259 4147 
L 1259 519 
L 2022 519 
Q 2988 519 3436 956 
Q 3884 1394 3884 2338 
Q 3884 3275 3436 3711 
Q 2988 4147 2022 4147 
L 1259 4147 
z
M 628 4666 
L 1925 4666 
Q 3281 4666 3915 4102 
Q 4550 3538 4550 2338 
Q 4550 1131 3912 565 
Q 3275 0 1925 0 
L 628 0 
L 628 4666 
z
" transform="scale(0.015625)"/>
       <path id="DejaVuSans-69" d="M 603 3500 
L 1178 3500 
L 1178 0 
L 603 0 
L 603 3500 
z
M 603 4863 
L 1178 4863 
L 1178 4134 
L 603 4134 
L 603 4863 
z
" transform="scale(0.015625)"/>
       <path id="DejaVuSans-70" d="M 1159 525 
L 1159 -1331 
L 581 -1331 
L 581 3500 
L 1159 3500 
L 1159 2969 
Q 1341 3281 1617 3432 
Q 1894 3584 2278 3584 
Q 2916 3584 3314 3078 
Q 3713 2572 3713 1747 
Q 3713 922 3314 415 
Q 2916 -91 2278 -91 
Q 1894 -91 1617 61 
Q 1341 213 1159 525 
z
M 3116 1747 
Q 3116 2381 2855 2742 
Q 2594 3103 2138 3103 
Q 1681 3103 1420 2742 
Q 1159 2381 1159 1747 
Q 1159 1113 1420 752 
Q 1681 391 2138 391 
Q 2594 391 2855 752 
Q 3116 1113 3116 1747 
z
" transform="scale(0.015625)"/>
       <path id="DejaVuSans-6c" d="M 603 4863 
L 1178 4863 
L 1178 0 
L 603 0 
L 603 4863 
z
" transform="scale(0.015625)"/>
       <path id="DejaVuSans-6f" d="M 1959 3097 
Q 1497 3097 1228 2736 
Q 959 2375 959 1747 
Q 959 1119 1226 758 
Q 1494 397 1959 397 
Q 2419 397 2687 759 
Q 2956 1122 2956 1747 
Q 2956 2369 2687 2733 
Q 2419 3097 1959 3097 
z
M 1959 3584 
Q 2709 3584 3137 3096 
Q 3566 2609 3566 1747 
Q 3566 888 3137 398 
Q 2709 -91 1959 -91 
Q 1206 -91 779 398 
Q 353 888 353 1747 
Q 353 2609 779 3096 
Q 1206 3584 1959 3584 
z
" transform="scale(0.015625)"/>
       <path id="DejaVuSans-64" d="M 2906 2969 
L 2906 4863 
L 3481 4863 
L 3481 0 
L 2906 0 
L 2906 525 
Q 2725 213 2448 61 
Q 2172 -91 1784 -91 
Q 1150 -91 751 415 
Q 353 922 353 1747 
Q 353 2572 751 3078 
Q 1150 3584 1784 3584 
Q 2172 3584 2448 3432 
Q 2725 3281 2906 2969 
z
M 947 1747 
Q 947 1113 1208 752 
Q 1469 391 1925 391 
Q 2381 391 2643 752 
Q 2906 1113 2906 1747 
Q 2906 2381 2643 2742 
Q 2381 3103 1925 3103 
Q 1469 3103 1208 2742 
Q 947 2381 947 1747 
z
" transform="scale(0.015625)"/>
       <path id="DejaVuSans-20" transform="scale(0.015625)"/>
       <path id="DejaVuSans-4e" d="M 628 4666 
L 1478 4666 
L 3547 763 
L 3547 4666 
L 4159 4666 
L 4159 0 
L 3309 0 
L 1241 3903 
L 1241 0 
L 628 0 
L 628 4666 
z
" transform="scale(0.015625)"/>
       <path id="DejaVuSans-Oblique-65" d="M 3078 2063 
Q 3088 2113 3092 2166 
Q 3097 2219 3097 2272 
Q 3097 2653 2873 2875 
Q 2650 3097 2266 3097 
Q 1838 3097 1509 2826 
Q 1181 2556 1013 2059 
L 3078 2063 
z
M 3578 1613 
L 903 1613 
Q 884 1494 878 1425 
Q 872 1356 872 1306 
Q 872 872 1139 634 
Q 1406 397 1894 397 
Q 2269 397 2603 481 
Q 2938 566 3225 728 
L 3116 159 
Q 2806 34 2476 -28 
Q 2147 -91 1806 -91 
Q 1078 -91 686 257 
Q 294 606 294 1247 
Q 294 1794 489 2264 
Q 684 2734 1063 3103 
Q 1306 3334 1642 3459 
Q 1978 3584 2356 3584 
Q 2950 3584 3301 3228 
Q 3653 2872 3653 2272 
Q 3653 2128 3634 1964 
Q 3616 1800 3578 1613 
z
" transform="scale(0.015625)"/>
      </defs>
      <use xlink:href="#DejaVuSans-44" transform="translate(0 0.015625)"/>
      <use xlink:href="#DejaVuSans-69" transform="translate(77.001953 0.015625)"/>
      <use xlink:href="#DejaVuSans-70" transform="translate(104.785156 0.015625)"/>
      <use xlink:href="#DejaVuSans-6c" transform="translate(168.261719 0.015625)"/>
      <use xlink:href="#DejaVuSans-6f" transform="translate(196.044922 0.015625)"/>
      <use xlink:href="#DejaVuSans-69" transform="translate(257.226562 0.015625)"/>
      <use xlink:href="#DejaVuSans-64" transform="translate(285.009766 0.015625)"/>
      <use xlink:href="#DejaVuSans-20" transform="translate(348.486328 0.015625)"/>
      <use xlink:href="#DejaVuSans-4e" transform="translate(380.273438 0.015625)"/>
      <use xlink:href="#DejaVuSans-Oblique-65" transform="translate(456.035156 -16.390625) scale(0.7)"/>
      <use xlink:href="#DejaVuSans-30" transform="translate(501.835938 0.015625)"/>
     </g>
    </g>
    <g id="text_6">
     <!-- $\times\mathdefault{10^{3}}\mathdefault{}$ -->
     <g transform="translate(188.56 225.887812) scale(0.1 -0.1)">
      <defs>
       <path id="DejaVuSans-d7" d="M 4488 3438 
L 3059 2003 
L 4488 575 
L 4116 197 
L 2681 1631 
L 1247 197 
L 878 575 
L 2303 2003 
L 878 3438 
L 1247 3816 
L 2681 2381 
L 4116 3816 
L 4488 3438 
z
" transform="scale(0.015625)"/>
       <path id="DejaVuSans-31" d="M 794 531 
L 1825 531 
L 1825 4091 
L 703 3866 
L 703 4441 
L 1819 4666 
L 2450 4666 
L 2450 531 
L 3481 531 
L 3481 0 
L 794 0 
L 794 531 
z
" transform="scale(0.015625)"/>
       <path id="DejaVuSans-33" d="M 2597 2516 
Q 3050 2419 3304 2112 
Q 3559 1806 3559 1356 
Q 3559 666 3084 287 
Q 2609 -91 1734 -91 
Q 1441 -91 1130 -33 
Q 819 25 488 141 
L 488 750 
Q 750 597 1062 519 
Q 1375 441 1716 441 
Q 2309 441 2620 675 
Q 2931 909 2931 1356 
Q 2931 1769 2642 2001 
Q 2353 2234 1838 2234 
L 1294 2234 
L 1294 2753 
L 1863 2753 
Q 2328 2753 2575 2939 
Q 2822 3125 2822 3475 
Q 2822 3834 2567 4026 
Q 2313 4219 1838 4219 
Q 1578 4219 1281 4162 
Q 984 4106 628 3988 
L 628 4550 
Q 988 4650 1302 4700 
Q 1616 4750 1894 4750 
Q 2613 4750 3031 4423 
Q 3450 4097 3450 3541 
Q 3450 3153 3228 2886 
Q 3006 2619 2597 2516 
z
" transform="scale(0.015625)"/>
      </defs>
      <use xlink:href="#DejaVuSans-d7" transform="translate(0 0.765625)"/>
      <use xlink:href="#DejaVuSans-31" transform="translate(83.789062 0.765625)"/>
      <use xlink:href="#DejaVuSans-30" transform="translate(147.412109 0.765625)"/>
      <use xlink:href="#DejaVuSans-33" transform="translate(211.992188 39.046875) scale(0.7)"/>
     </g>
    </g>
   </g>
   <g id="matplotlib.axis_2">
    <g id="ytick_1">
     <g id="line2d_5">
      <defs>
       <path id="ma9c229dd4a" d="M 0 0 
L -6 0 
" style="stroke: #000000; stroke-width: 2"/>
      </defs>
      <g>
       <use xlink:href="#ma9c229dd4a" x="36" y="164.52" style="stroke: #000000; stroke-width: 2"/>
      </g>
     </g>
     <g id="text_7">
      <!-- $\mathdefault{200}$ -->
      <g transform="translate(-0.24 169.838906) scale(0.14 -0.14)">
       <use xlink:href="#DejaVuSans-32" transform="translate(0 0.78125)"/>
       <use xlink:href="#DejaVuSans-30" transform="translate(63.623047 0.78125)"/>
       <use xlink:href="#DejaVuSans-30" transform="translate(127.246094 0.78125)"/>
      </g>
     </g>
    </g>
    <g id="ytick_2">
     <g id="line2d_6">
      <g>
       <use xlink:href="#ma9c229dd4a" x="36" y="127.56" style="stroke: #000000; stroke-width: 2"/>
      </g>
     </g>
     <g id="text_8">
      <!-- $\mathdefault{400}$ -->
      <g transform="translate(-0.24 132.878906) scale(0.14 -0.14)">
       <use xlink:href="#DejaVuSans-34" transform="translate(0 0.78125)"/>
       <use xlink:href="#DejaVuSans-30" transform="translate(63.623047 0.78125)"/>
       <use xlink:href="#DejaVuSans-30" transform="translate(127.246094 0.78125)"/>
      </g>
     </g>
    </g>
    <g id="ytick_3">
     <g id="line2d_7">
      <g>
       <use xlink:href="#ma9c229dd4a" x="36" y="90.6" style="stroke: #000000; stroke-width: 2"/>
      </g>
     </g>
     <g id="text_9">
      <!-- $\mathdefault{600}$ -->
      <g transform="translate(-0.24 95.918906) scale(0.14 -0.14)">
       <use xlink:href="#DejaVuSans-36" transform="translate(0 0.78125)"/>
       <use xlink:href="#DejaVuSans-30" transform="translate(63.623047 0.78125)"/>
       <use xlink:href="#DejaVuSans-30" transform="translate(127.246094 0.78125)"/>
      </g>
     </g>
    </g>
    <g id="ytick_4">
     <g id="line2d_8">
      <g>
       <use xlink:href="#ma9c229dd4a" x="36" y="53.64" style="stroke: #000000; stroke-width: 2"/>
      </g>
     </g>
     <g id="text_10">
      <!-- $\mathdefault{800}$ -->
      <g transform="translate(-0.24 58.958906) scale(0.14 -0.14)">
       <use xlink:href="#DejaVuSans-38" transform="translate(0 0.78125)"/>
       <use xlink:href="#DejaVuSans-30" transform="translate(63.623047 0.78125)"/>
       <use xlink:href="#DejaVuSans-30" transform="translate(127.246094 0.78125)"/>
      </g>
     </g>
    </g>
    <g id="text_11">
     <!-- Diploid N$_e$1 -->
     <g transform="translate(-8.02 160.02) rotate(-90) scale(0.18 -0.18)">
      <use xlink:href="#DejaVuSans-44" transform="translate(0 0.015625)"/>
      <use xlink:href="#DejaVuSans-69" transform="translate(77.001953 0.015625)"/>
      <use xlink:href="#DejaVuSans-70" transform="translate(104.785156 0.015625)"/>
      <use xlink:href="#DejaVuSans-6c" transform="translate(168.261719 0.015625)"/>
      <use xlink:href="#DejaVuSans-6f" transform="translate(196.044922 0.015625)"/>
      <use xlink:href="#DejaVuSans-69" transform="translate(257.226562 0.015625)"/>
      <use xlink:href="#DejaVuSans-64" transform="translate(285.009766 0.015625)"/>
      <use xlink:href="#DejaVuSans-20" transform="translate(348.486328 0.015625)"/>
      <use xlink:href="#DejaVuSans-4e" transform="translate(380.273438 0.015625)"/>
      <use xlink:href="#DejaVuSans-Oblique-65" transform="translate(456.035156 -16.390625) scale(0.7)"/>
      <use xlink:href="#DejaVuSans-31" transform="translate(501.835938 0.015625)"/>
     </g>
    </g>
    <g id="text_12">
     <!-- $\times\mathdefault{10^{3}}\mathdefault{}$ -->
     <g transform="translate(36 22.92) scale(0.1 -0.1)">
      <use xlink:href="#DejaVuSans-d7" transform="translate(0 0.765625)"/>
      <use xlink:href="#DejaVuSans-31" transform="translate(83.789062 0.765625)"/>
      <use xlink:href="#DejaVuSans-30" transform="translate(147.412109 0.765625)"/>
      <use xlink:href="#DejaVuSans-33" transform="translate(211.992188 39.046875) scale(0.7)"/>
     </g>
    </g>
   </g>
   <g id="patch_3">
    <path d="M 36 192.24 
L 36 25.92 
" style="fill: none; stroke: #000000; stroke-width: 0.8; stroke-linejoin: miter; stroke-linecap: square"/>
   </g>
   <g id="patch_4">
    <path d="M 214.56 192.24 
L 214.56 25.92 
" style="fill: none; stroke: #000000; stroke-width: 0.8; stroke-linejoin: miter; stroke-linecap: square"/>
   </g>
   <g id="patch_5">
    <path d="M 36 192.24 
L 214.56 192.24 
" style="fill: none; stroke: #000000; stroke-width: 0.8; stroke-linejoin: miter; stroke-linecap: square"/>
   </g>
   <g id="patch_6">
    <path d="M 36 25.92 
L 214.56 25.92 
" style="fill: none; stroke: #000000; stroke-width: 0.8; stroke-linejoin: miter; stroke-linecap: square"/>
   </g>
   <g id="text_13">
    <!-- Ne0Ne1-SMC-G-P2-S4 -->
    <g transform="translate(37.60125 10.92) scale(0.16 -0.16)">
     <defs>
      <path id="DejaVuSans-65" d="M 3597 1894 
L 3597 1613 
L 953 1613 
Q 991 1019 1311 708 
Q 1631 397 2203 397 
Q 2534 397 2845 478 
Q 3156 559 3463 722 
L 3463 178 
Q 3153 47 2828 -22 
Q 2503 -91 2169 -91 
Q 1331 -91 842 396 
Q 353 884 353 1716 
Q 353 2575 817 3079 
Q 1281 3584 2069 3584 
Q 2775 3584 3186 3129 
Q 3597 2675 3597 1894 
z
M 3022 2063 
Q 3016 2534 2758 2815 
Q 2500 3097 2075 3097 
Q 1594 3097 1305 2825 
Q 1016 2553 972 2059 
L 3022 2063 
z
" transform="scale(0.015625)"/>
      <path id="DejaVuSans-2d" d="M 313 2009 
L 1997 2009 
L 1997 1497 
L 313 1497 
L 313 2009 
z
" transform="scale(0.015625)"/>
      <path id="DejaVuSans-53" d="M 3425 4513 
L 3425 3897 
Q 3066 4069 2747 4153 
Q 2428 4238 2131 4238 
Q 1616 4238 1336 4038 
Q 1056 3838 1056 3469 
Q 1056 3159 1242 3001 
Q 1428 2844 1947 2747 
L 2328 2669 
Q 3034 2534 3370 2195 
Q 3706 1856 3706 1288 
Q 3706 609 3251 259 
Q 2797 -91 1919 -91 
Q 1588 -91 1214 -16 
Q 841 59 441 206 
L 441 856 
Q 825 641 1194 531 
Q 1563 422 1919 422 
Q 2459 422 2753 634 
Q 3047 847 3047 1241 
Q 3047 1584 2836 1778 
Q 2625 1972 2144 2069 
L 1759 2144 
Q 1053 2284 737 2584 
Q 422 2884 422 3419 
Q 422 4038 858 4394 
Q 1294 4750 2059 4750 
Q 2388 4750 2728 4690 
Q 3069 4631 3425 4513 
z
" transform="scale(0.015625)"/>
      <path id="DejaVuSans-4d" d="M 628 4666 
L 1569 4666 
L 2759 1491 
L 3956 4666 
L 4897 4666 
L 4897 0 
L 4281 0 
L 4281 4097 
L 3078 897 
L 2444 897 
L 1241 4097 
L 1241 0 
L 628 0 
L 628 4666 
z
" transform="scale(0.015625)"/>
      <path id="DejaVuSans-43" d="M 4122 4306 
L 4122 3641 
Q 3803 3938 3442 4084 
Q 3081 4231 2675 4231 
Q 1875 4231 1450 3742 
Q 1025 3253 1025 2328 
Q 1025 1406 1450 917 
Q 1875 428 2675 428 
Q 3081 428 3442 575 
Q 3803 722 4122 1019 
L 4122 359 
Q 3791 134 3420 21 
Q 3050 -91 2638 -91 
Q 1578 -91 968 557 
Q 359 1206 359 2328 
Q 359 3453 968 4101 
Q 1578 4750 2638 4750 
Q 3056 4750 3426 4639 
Q 3797 4528 4122 4306 
z
" transform="scale(0.015625)"/>
      <path id="DejaVuSans-47" d="M 3809 666 
L 3809 1919 
L 2778 1919 
L 2778 2438 
L 4434 2438 
L 4434 434 
Q 4069 175 3628 42 
Q 3188 -91 2688 -91 
Q 1594 -91 976 548 
Q 359 1188 359 2328 
Q 359 3472 976 4111 
Q 1594 4750 2688 4750 
Q 3144 4750 3555 4637 
Q 3966 4525 4313 4306 
L 4313 3634 
Q 3963 3931 3569 4081 
Q 3175 4231 2741 4231 
Q 1884 4231 1454 3753 
Q 1025 3275 1025 2328 
Q 1025 1384 1454 906 
Q 1884 428 2741 428 
Q 3075 428 3337 486 
Q 3600 544 3809 666 
z
" transform="scale(0.015625)"/>
      <path id="DejaVuSans-50" d="M 1259 4147 
L 1259 2394 
L 2053 2394 
Q 2494 2394 2734 2622 
Q 2975 2850 2975 3272 
Q 2975 3691 2734 3919 
Q 2494 4147 2053 4147 
L 1259 4147 
z
M 628 4666 
L 2053 4666 
Q 2838 4666 3239 4311 
Q 3641 3956 3641 3272 
Q 3641 2581 3239 2228 
Q 2838 1875 2053 1875 
L 1259 1875 
L 1259 0 
L 628 0 
L 628 4666 
z
" transform="scale(0.015625)"/>
     </defs>
     <use xlink:href="#DejaVuSans-4e"/>
     <use xlink:href="#DejaVuSans-65" x="74.804688"/>
     <use xlink:href="#DejaVuSans-30" x="136.328125"/>
     <use xlink:href="#DejaVuSans-4e" x="199.951172"/>
     <use xlink:href="#DejaVuSans-65" x="274.755859"/>
     <use xlink:href="#DejaVuSans-31" x="336.279297"/>
     <use xlink:href="#DejaVuSans-2d" x="399.902344"/>
     <use xlink:href="#DejaVuSans-53" x="435.986328"/>
     <use xlink:href="#DejaVuSans-4d" x="499.462891"/>
     <use xlink:href="#DejaVuSans-43" x="585.742188"/>
     <use xlink:href="#DejaVuSans-2d" x="655.566406"/>
     <use xlink:href="#DejaVuSans-47" x="695.275391"/>
     <use xlink:href="#DejaVuSans-2d" x="772.765625"/>
     <use xlink:href="#DejaVuSans-50" x="808.849609"/>
     <use xlink:href="#DejaVuSans-32" x="869.152344"/>
     <use xlink:href="#DejaVuSans-2d" x="932.775391"/>
     <use xlink:href="#DejaVuSans-53" x="968.859375"/>
     <use xlink:href="#DejaVuSans-34" x="1032.335938"/>
    </g>
   </g>
  </g>
  <g id="axes_2">
   <g id="patch_7">
    <path d="M 225.72 192.24 
L 234.036 192.24 
L 234.036 25.92 
L 225.72 25.92 
z
" style="fill: #ffffff"/>
   </g>
   <g id="QuadMesh_1">
    <path d="M 225.72 192.24 
L 234.036 192.24 
L 234.036 179.446154 
L 225.72 179.446154 
L 225.72 192.24 
" clip-path="url(#pd86b0c8650)" style="fill: #e7e419"/>
    <path d="M 225.72 179.446154 
L 234.036 179.446154 
L 234.036 166.652308 
L 225.72 166.652308 
L 225.72 179.446154 
" clip-path="url(#pd86b0c8650)" style="fill: #b2dd2d"/>
    <path d="M 225.72 166.652308 
L 234.036 166.652308 
L 234.036 153.858462 
L 225.72 153.858462 
L 225.72 166.652308 
" clip-path="url(#pd86b0c8650)" style="fill: #7fd34e"/>
    <path d="M 225.72 153.858462 
L 234.036 153.858462 
L 234.036 141.064615 
L 225.72 141.064615 
L 225.72 153.858462 
" clip-path="url(#pd86b0c8650)" style="fill: #54c568"/>
    <path d="M 225.72 141.064615 
L 234.036 141.064615 
L 234.036 128.270769 
L 225.72 128.270769 
L 225.72 141.064615 
" clip-path="url(#pd86b0c8650)" style="fill: #31b57b"/>
    <path d="M 225.72 128.270769 
L 234.036 128.270769 
L 234.036 115.476923 
L 225.72 115.476923 
L 225.72 128.270769 
" clip-path="url(#pd86b0c8650)" style="fill: #1fa287"/>
    <path d="M 225.72 115.476923 
L 234.036 115.476923 
L 234.036 102.683077 
L 225.72 102.683077 
L 225.72 115.476923 
" clip-path="url(#pd86b0c8650)" style="fill: #21908d"/>
    <path d="M 225.72 102.683077 
L 234.036 102.683077 
L 234.036 89.889231 
L 225.72 89.889231 
L 225.72 102.683077 
" clip-path="url(#pd86b0c8650)" style="fill: #277e8e"/>
    <path d="M 225.72 89.889231 
L 234.036 89.889231 
L 234.036 77.095385 
L 225.72 77.095385 
L 225.72 89.889231 
" clip-path="url(#pd86b0c8650)" style="fill: #2f6b8e"/>
    <path d="M 225.72 77.095385 
L 234.036 77.095385 
L 234.036 64.301538 
L 225.72 64.301538 
L 225.72 77.095385 
" clip-path="url(#pd86b0c8650)" style="fill: #39568c"/>
    <path d="M 225.72 64.301538 
L 234.036 64.301538 
L 234.036 51.507692 
L 225.72 51.507692 
L 225.72 64.301538 
" clip-path="url(#pd86b0c8650)" style="fill: #424186"/>
    <path d="M 225.72 51.507692 
L 234.036 51.507692 
L 234.036 38.713846 
L 225.72 38.713846 
L 225.72 51.507692 
" clip-path="url(#pd86b0c8650)" style="fill: #482979"/>
    <path d="M 225.72 38.713846 
L 234.036 38.713846 
L 234.036 25.92 
L 225.72 25.92 
L 225.72 38.713846 
" clip-path="url(#pd86b0c8650)" style="fill: #470e61"/>
   </g>
   <g id="matplotlib.axis_3"/>
   <g id="matplotlib.axis_4">
    <g id="ytick_5">
     <g id="line2d_9">
      <defs>
       <path id="m98821bd323" d="M 0 0 
L 3.5 0 
" style="stroke: #000000; stroke-width: 0.8"/>
      </defs>
      <g>
       <use xlink:href="#m98821bd323" x="234.036" y="192.24" style="stroke: #000000; stroke-width: 0.8"/>
      </g>
     </g>
     <g id="text_14">
      <!-- $\mathdefault{0.00}$ -->
      <g transform="translate(241.036 196.039219) scale(0.1 -0.1)">
       <defs>
        <path id="DejaVuSans-2e" d="M 684 794 
L 1344 794 
L 1344 0 
L 684 0 
L 684 794 
z
" transform="scale(0.015625)"/>
       </defs>
       <use xlink:href="#DejaVuSans-30" transform="translate(0 0.78125)"/>
       <use xlink:href="#DejaVuSans-2e" transform="translate(63.623047 0.78125)"/>
       <use xlink:href="#DejaVuSans-30" transform="translate(95.410156 0.78125)"/>
       <use xlink:href="#DejaVuSans-30" transform="translate(159.033203 0.78125)"/>
      </g>
     </g>
    </g>
    <g id="ytick_6">
     <g id="line2d_10">
      <g>
       <use xlink:href="#m98821bd323" x="234.036" y="166.652308" style="stroke: #000000; stroke-width: 0.8"/>
      </g>
     </g>
     <g id="text_15">
      <!-- $\mathdefault{0.03}$ -->
      <g transform="translate(241.036 170.451526) scale(0.1 -0.1)">
       <use xlink:href="#DejaVuSans-30" transform="translate(0 0.78125)"/>
       <use xlink:href="#DejaVuSans-2e" transform="translate(63.623047 0.78125)"/>
       <use xlink:href="#DejaVuSans-30" transform="translate(95.410156 0.78125)"/>
       <use xlink:href="#DejaVuSans-33" transform="translate(159.033203 0.78125)"/>
      </g>
     </g>
    </g>
    <g id="ytick_7">
     <g id="line2d_11">
      <g>
       <use xlink:href="#m98821bd323" x="234.036" y="141.064615" style="stroke: #000000; stroke-width: 0.8"/>
      </g>
     </g>
     <g id="text_16">
      <!-- $\mathdefault{0.06}$ -->
      <g transform="translate(241.036 144.863834) scale(0.1 -0.1)">
       <use xlink:href="#DejaVuSans-30" transform="translate(0 0.78125)"/>
       <use xlink:href="#DejaVuSans-2e" transform="translate(63.623047 0.78125)"/>
       <use xlink:href="#DejaVuSans-30" transform="translate(95.410156 0.78125)"/>
       <use xlink:href="#DejaVuSans-36" transform="translate(159.033203 0.78125)"/>
      </g>
     </g>
    </g>
    <g id="ytick_8">
     <g id="line2d_12">
      <g>
       <use xlink:href="#m98821bd323" x="234.036" y="115.476923" style="stroke: #000000; stroke-width: 0.8"/>
      </g>
     </g>
     <g id="text_17">
      <!-- $\mathdefault{0.09}$ -->
      <g transform="translate(241.036 119.276142) scale(0.1 -0.1)">
       <defs>
        <path id="DejaVuSans-39" d="M 703 97 
L 703 672 
Q 941 559 1184 500 
Q 1428 441 1663 441 
Q 2288 441 2617 861 
Q 2947 1281 2994 2138 
Q 2813 1869 2534 1725 
Q 2256 1581 1919 1581 
Q 1219 1581 811 2004 
Q 403 2428 403 3163 
Q 403 3881 828 4315 
Q 1253 4750 1959 4750 
Q 2769 4750 3195 4129 
Q 3622 3509 3622 2328 
Q 3622 1225 3098 567 
Q 2575 -91 1691 -91 
Q 1453 -91 1209 -44 
Q 966 3 703 97 
z
M 1959 2075 
Q 2384 2075 2632 2365 
Q 2881 2656 2881 3163 
Q 2881 3666 2632 3958 
Q 2384 4250 1959 4250 
Q 1534 4250 1286 3958 
Q 1038 3666 1038 3163 
Q 1038 2656 1286 2365 
Q 1534 2075 1959 2075 
z
" transform="scale(0.015625)"/>
       </defs>
       <use xlink:href="#DejaVuSans-30" transform="translate(0 0.78125)"/>
       <use xlink:href="#DejaVuSans-2e" transform="translate(63.623047 0.78125)"/>
       <use xlink:href="#DejaVuSans-30" transform="translate(95.410156 0.78125)"/>
       <use xlink:href="#DejaVuSans-39" transform="translate(159.033203 0.78125)"/>
      </g>
     </g>
    </g>
    <g id="ytick_9">
     <g id="line2d_13">
      <g>
       <use xlink:href="#m98821bd323" x="234.036" y="89.889231" style="stroke: #000000; stroke-width: 0.8"/>
      </g>
     </g>
     <g id="text_18">
      <!-- $\mathdefault{0.12}$ -->
      <g transform="translate(241.036 93.68845) scale(0.1 -0.1)">
       <use xlink:href="#DejaVuSans-30" transform="translate(0 0.78125)"/>
       <use xlink:href="#DejaVuSans-2e" transform="translate(63.623047 0.78125)"/>
       <use xlink:href="#DejaVuSans-31" transform="translate(95.410156 0.78125)"/>
       <use xlink:href="#DejaVuSans-32" transform="translate(159.033203 0.78125)"/>
      </g>
     </g>
    </g>
    <g id="ytick_10">
     <g id="line2d_14">
      <g>
       <use xlink:href="#m98821bd323" x="234.036" y="64.301538" style="stroke: #000000; stroke-width: 0.8"/>
      </g>
     </g>
     <g id="text_19">
      <!-- $\mathdefault{0.15}$ -->
      <g transform="translate(241.036 68.100757) scale(0.1 -0.1)">
       <defs>
        <path id="DejaVuSans-35" d="M 691 4666 
L 3169 4666 
L 3169 4134 
L 1269 4134 
L 1269 2991 
Q 1406 3038 1543 3061 
Q 1681 3084 1819 3084 
Q 2600 3084 3056 2656 
Q 3513 2228 3513 1497 
Q 3513 744 3044 326 
Q 2575 -91 1722 -91 
Q 1428 -91 1123 -41 
Q 819 9 494 109 
L 494 744 
Q 775 591 1075 516 
Q 1375 441 1709 441 
Q 2250 441 2565 725 
Q 2881 1009 2881 1497 
Q 2881 1984 2565 2268 
Q 2250 2553 1709 2553 
Q 1456 2553 1204 2497 
Q 953 2441 691 2322 
L 691 4666 
z
" transform="scale(0.015625)"/>
       </defs>
       <use xlink:href="#DejaVuSans-30" transform="translate(0 0.78125)"/>
       <use xlink:href="#DejaVuSans-2e" transform="translate(63.623047 0.78125)"/>
       <use xlink:href="#DejaVuSans-31" transform="translate(95.410156 0.78125)"/>
       <use xlink:href="#DejaVuSans-35" transform="translate(159.033203 0.78125)"/>
      </g>
     </g>
    </g>
    <g id="ytick_11">
     <g id="line2d_15">
      <g>
       <use xlink:href="#m98821bd323" x="234.036" y="38.713846" style="stroke: #000000; stroke-width: 0.8"/>
      </g>
     </g>
     <g id="text_20">
      <!-- $\mathdefault{0.18}$ -->
      <g transform="translate(241.036 42.513065) scale(0.1 -0.1)">
       <use xlink:href="#DejaVuSans-30" transform="translate(0 0.78125)"/>
       <use xlink:href="#DejaVuSans-2e" transform="translate(63.623047 0.78125)"/>
       <use xlink:href="#DejaVuSans-31" transform="translate(95.410156 0.78125)"/>
       <use xlink:href="#DejaVuSans-38" transform="translate(159.033203 0.78125)"/>
      </g>
     </g>
    </g>
    <g id="text_21">
     <!-- $\Delta$ log likelihood -->
     <g transform="translate(276.456 154.98) rotate(-90) scale(0.12 -0.12)">
      <defs>
       <path id="DejaVuSans-394" d="M 2188 4044 
L 906 525 
L 3472 525 
L 2188 4044 
z
M 50 0 
L 1831 4666 
L 2547 4666 
L 4325 0 
L 50 0 
z
" transform="scale(0.015625)"/>
       <path id="DejaVuSans-67" d="M 2906 1791 
Q 2906 2416 2648 2759 
Q 2391 3103 1925 3103 
Q 1463 3103 1205 2759 
Q 947 2416 947 1791 
Q 947 1169 1205 825 
Q 1463 481 1925 481 
Q 2391 481 2648 825 
Q 2906 1169 2906 1791 
z
M 3481 434 
Q 3481 -459 3084 -895 
Q 2688 -1331 1869 -1331 
Q 1566 -1331 1297 -1286 
Q 1028 -1241 775 -1147 
L 775 -588 
Q 1028 -725 1275 -790 
Q 1522 -856 1778 -856 
Q 2344 -856 2625 -561 
Q 2906 -266 2906 331 
L 2906 616 
Q 2728 306 2450 153 
Q 2172 0 1784 0 
Q 1141 0 747 490 
Q 353 981 353 1791 
Q 353 2603 747 3093 
Q 1141 3584 1784 3584 
Q 2172 3584 2450 3431 
Q 2728 3278 2906 2969 
L 2906 3500 
L 3481 3500 
L 3481 434 
z
" transform="scale(0.015625)"/>
       <path id="DejaVuSans-6b" d="M 581 4863 
L 1159 4863 
L 1159 1991 
L 2875 3500 
L 3609 3500 
L 1753 1863 
L 3688 0 
L 2938 0 
L 1159 1709 
L 1159 0 
L 581 0 
L 581 4863 
z
" transform="scale(0.015625)"/>
       <path id="DejaVuSans-68" d="M 3513 2113 
L 3513 0 
L 2938 0 
L 2938 2094 
Q 2938 2591 2744 2837 
Q 2550 3084 2163 3084 
Q 1697 3084 1428 2787 
Q 1159 2491 1159 1978 
L 1159 0 
L 581 0 
L 581 4863 
L 1159 4863 
L 1159 2956 
Q 1366 3272 1645 3428 
Q 1925 3584 2291 3584 
Q 2894 3584 3203 3211 
Q 3513 2838 3513 2113 
z
" transform="scale(0.015625)"/>
      </defs>
      <use xlink:href="#DejaVuSans-394" transform="translate(0 0.015625)"/>
      <use xlink:href="#DejaVuSans-20" transform="translate(68.408203 0.015625)"/>
      <use xlink:href="#DejaVuSans-6c" transform="translate(100.195312 0.015625)"/>
      <use xlink:href="#DejaVuSans-6f" transform="translate(127.978516 0.015625)"/>
      <use xlink:href="#DejaVuSans-67" transform="translate(189.160156 0.015625)"/>
      <use xlink:href="#DejaVuSans-20" transform="translate(252.636719 0.015625)"/>
      <use xlink:href="#DejaVuSans-6c" transform="translate(284.423828 0.015625)"/>
      <use xlink:href="#DejaVuSans-69" transform="translate(312.207031 0.015625)"/>
      <use xlink:href="#DejaVuSans-6b" transform="translate(339.990234 0.015625)"/>
      <use xlink:href="#DejaVuSans-65" transform="translate(397.900391 0.015625)"/>
      <use xlink:href="#DejaVuSans-6c" transform="translate(459.423828 0.015625)"/>
      <use xlink:href="#DejaVuSans-69" transform="translate(487.207031 0.015625)"/>
      <use xlink:href="#DejaVuSans-68" transform="translate(514.990234 0.015625)"/>
      <use xlink:href="#DejaVuSans-6f" transform="translate(578.369141 0.015625)"/>
      <use xlink:href="#DejaVuSans-6f" transform="translate(639.550781 0.015625)"/>
      <use xlink:href="#DejaVuSans-64" transform="translate(700.732422 0.015625)"/>
     </g>
    </g>
    <g id="text_22">
     <!-- $\times\mathdefault{10^{3}}\mathdefault{}$ -->
     <g transform="translate(208.036 22.92) scale(0.1 -0.1)">
      <use xlink:href="#DejaVuSans-d7" transform="translate(0 0.765625)"/>
      <use xlink:href="#DejaVuSans-31" transform="translate(83.789062 0.765625)"/>
      <use xlink:href="#DejaVuSans-30" transform="translate(147.412109 0.765625)"/>
      <use xlink:href="#DejaVuSans-33" transform="translate(211.992188 39.046875) scale(0.7)"/>
     </g>
    </g>
   </g>
   <g id="LineCollection_1"/>
   <g id="patch_8">
    <path d="M 225.72 192.24 
L 229.878 192.24 
L 234.036 192.24 
L 234.036 25.92 
L 229.878 25.92 
L 225.72 25.92 
L 225.72 192.24 
z
" style="fill: none; stroke: #000000; stroke-width: 0.8; stroke-linejoin: miter; stroke-linecap: square"/>
   </g>
  </g>
 </g>
 <defs>
  <clipPath id="p4d18b8bcef">
   <rect x="36" y="25.92" width="178.56" height="166.32"/>
  </clipPath>
  <clipPath id="pd86b0c8650">
   <rect x="225.72" y="25.92" width="8.316" height="166.32"/>
  </clipPath>
 </defs>
</svg>
