<?xml version="1.0" encoding="utf-8" standalone="no"?>
<!DOCTYPE svg PUBLIC "-//W3C//DTD SVG 1.1//EN"
  "http://www.w3.org/Graphics/SVG/1.1/DTD/svg11.dtd">
<svg xmlns:xlink="http://www.w3.org/1999/xlink" width="288pt" height="216pt" viewBox="0 0 288 216" xmlns="http://www.w3.org/2000/svg" version="1.1">
 <metadata>
  <rdf:RDF xmlns:dc="http://purl.org/dc/elements/1.1/" xmlns:cc="http://creativecommons.org/ns#" xmlns:rdf="http://www.w3.org/1999/02/22-rdf-syntax-ns#">
   <cc:Work>
    <dc:type rdf:resource="http://purl.org/dc/dcmitype/StillImage"/>
    <dc:date>2024-12-12T06:19:09.089098</dc:date>
    <dc:format>image/svg+xml</dc:format>
    <dc:creator>
     <cc:Agent>
      <dc:title>Matplotlib v3.8.4, https://matplotlib.org/</dc:title>
     </cc:Agent>
    </dc:creator>
   </cc:Work>
  </rdf:RDF>
 </metadata>
 <defs>
  <style type="text/css">*{stroke-linejoin: round; stroke-linecap: butt}</style>
 </defs>
 <g id="figure_1">
  <g id="patch_1">
   <path d="M 0 216 
L 288 216 
L 288 0 
L 0 0 
z
" style="fill: #ffffff"/>
  </g>
  <g id="axes_1">
   <g id="patch_2">
    <path d="M 36 192.24 
L 214.56 192.24 
L 214.56 25.92 
L 36 25.92 
z
" style="fill: #ffffff"/>
   </g>
   <g id="QuadContourSet_1">
    <path d="M 59.760829 131.256 
L 59.059474 125.712 
L 58.741741 120.168 
L 58.83661 114.624 
L 59.395345 109.08 
L 59.808 106.862131 
L 65.76 106.846367 
L 66.825404 109.08 
L 69.485924 114.624 
L 71.712 119.02065 
L 72.05176 120.168 
L 73.335304 125.712 
L 74.154892 131.256 
L 74.052526 136.8 
L 72.020872 142.344 
L 71.712 142.686392 
L 66.34118 142.344 
L 65.76 142.29876 
L 62.569961 136.8 
L 59.808 131.480318 
z
" clip-path="url(#pe90eaf848a)" style="fill: #eae51a"/>
    <path d="M 58.872649 136.8 
L 57.624227 131.256 
L 56.726138 125.712 
L 56.183237 120.168 
L 56.017868 114.624 
L 56.272421 109.08 
L 57.01505 103.536 
L 58.350086 97.992 
L 59.808 93.973196 
L 65.76 97.300287 
L 66.098757 97.992 
L 68.851846 103.536 
L 71.712 108.693228 
L 71.85357 109.08 
L 73.75127 114.624 
L 75.608133 120.168 
L 77.331523 125.712 
L 77.664 127.160281 
L 78.384378 131.256 
L 78.799291 136.8 
L 78.274762 142.344 
L 77.664 144.034929 
L 74.406294 147.888 
L 71.712 149.270307 
L 65.76 147.946473 
L 65.703611 147.888 
L 61.432968 142.344 
L 59.808 139.907082 
z
M 59.808 131.480318 
L 62.569961 136.8 
L 65.76 142.29876 
L 66.34118 142.344 
L 71.712 142.686392 
L 72.020872 142.344 
L 74.052526 136.8 
L 74.154892 131.256 
L 73.335304 125.712 
L 72.05176 120.168 
L 71.712 119.02065 
L 69.485924 114.624 
L 66.825404 109.08 
L 65.76 106.846367 
L 59.808 106.862131 
L 59.395345 109.08 
L 58.83661 114.624 
L 58.741741 120.168 
L 59.059474 125.712 
L 59.760829 131.256 
z
" clip-path="url(#pe90eaf848a)" style="fill: #bddf26"/>
    <path d="M 53.754541 120.168 
L 53.582581 114.624 
L 53.578546 109.08 
L 53.736694 103.536 
L 53.856 101.390642 
L 54.433422 97.992 
L 55.988255 92.448 
L 58.40527 86.904 
L 59.808 84.545338 
L 62.435181 86.904 
L 65.76 89.474903 
L 67.19952 92.448 
L 70.068275 97.992 
L 71.712 100.959637 
L 72.692543 103.536 
L 74.800756 109.08 
L 76.968251 114.624 
L 77.664 116.502772 
L 78.757441 120.168 
L 80.232992 125.712 
L 81.446136 131.256 
L 82.189143 136.8 
L 82.092238 142.344 
L 80.45852 147.888 
L 77.664 151.486398 
L 72.971629 153.432 
L 71.712 153.711791 
L 70.681389 153.432 
L 65.76 151.754782 
L 62.031008 147.888 
L 59.808 145.163342 
L 58.674757 142.344 
L 56.909405 136.8 
L 55.487625 131.256 
L 54.392802 125.712 
L 53.856 121.73184 
z
M 59.808 139.907082 
L 61.432968 142.344 
L 65.703611 147.888 
L 65.76 147.946473 
L 71.712 149.270307 
L 74.406294 147.888 
L 77.664 144.034929 
L 78.274762 142.344 
L 78.799291 136.8 
L 78.384378 131.256 
L 77.664 127.160281 
L 77.331523 125.712 
L 75.608133 120.168 
L 73.75127 114.624 
L 71.85357 109.08 
L 71.712 108.693228 
L 68.851846 103.536 
L 66.098757 97.992 
L 65.76 97.300287 
L 59.808 93.973196 
L 58.350086 97.992 
L 57.01505 103.536 
L 56.272421 109.08 
L 56.017868 114.624 
L 56.183237 120.168 
L 56.726138 125.712 
L 57.624227 131.256 
L 58.872649 136.8 
z
" clip-path="url(#pe90eaf848a)" style="fill: #90d743"/>
    <path d="M 53.613264 131.256 
L 53.029287 125.712 
L 52.632105 120.168 
L 52.409298 114.624 
L 52.352127 109.08 
L 52.454688 103.536 
L 52.713365 97.992 
L 53.126453 92.448 
L 53.69392 86.904 
L 53.856 85.617898 
L 56.04471 81.36 
L 59.808 76.340267 
L 64.618834 81.36 
L 65.76 82.39208 
L 67.903091 86.904 
L 70.786197 92.448 
L 71.712 94.143465 
L 73.203375 97.992 
L 75.420131 103.536 
L 77.664 108.89448 
L 77.728683 109.08 
L 79.558607 114.624 
L 81.349021 120.168 
L 83.035115 125.712 
L 83.616 128.017002 
L 84.338042 131.256 
L 85.165019 136.8 
L 85.368268 142.344 
L 84.524221 147.888 
L 83.616 149.935611 
L 81.097223 153.432 
L 77.664 155.726375 
L 71.712 156.745471 
L 65.76 154.91926 
L 63.993006 153.432 
L 59.808 149.160193 
L 59.148133 147.888 
L 56.865418 142.344 
L 54.946161 136.8 
L 53.856 132.911191 
z
M 53.856 121.73184 
L 54.392802 125.712 
L 55.487625 131.256 
L 56.909405 136.8 
L 58.674757 142.344 
L 59.808 145.163342 
L 62.031008 147.888 
L 65.76 151.754782 
L 70.681389 153.432 
L 71.712 153.711791 
L 72.971629 153.432 
L 77.664 151.486398 
L 80.45852 147.888 
L 82.092238 142.344 
L 82.189143 136.8 
L 81.446136 131.256 
L 80.232992 125.712 
L 78.757441 120.168 
L 77.664 116.502772 
L 76.968251 114.624 
L 74.800756 109.08 
L 72.692543 103.536 
L 71.712 100.959637 
L 70.068275 97.992 
L 67.19952 92.448 
L 65.76 89.474903 
L 62.435181 86.904 
L 59.808 84.545338 
L 58.40527 86.904 
L 55.988255 92.448 
L 54.433422 97.992 
L 53.856 101.390642 
L 53.736694 103.536 
L 53.578546 109.08 
L 53.582581 114.624 
L 53.754541 120.168 
z
" clip-path="url(#pe90eaf848a)" style="fill: #67cc5c"/>
    <path d="M 53.419187 136.8 
L 52.586224 131.256 
L 51.955554 125.712 
L 51.509669 120.168 
L 51.236016 114.624 
L 51.125708 109.08 
L 51.172682 103.536 
L 51.373145 97.992 
L 51.725201 92.448 
L 52.228604 86.904 
L 52.884611 81.36 
L 53.695889 75.816 
L 53.856 74.866169 
L 58.090255 70.272 
L 59.808 68.869361 
L 60.89061 70.272 
L 65.76 75.794823 
L 65.769558 75.816 
L 68.341096 81.36 
L 71.185299 86.904 
L 71.712 87.889931 
L 73.486411 92.448 
L 75.748762 97.992 
L 77.664 102.478552 
L 78.044615 103.536 
L 79.999698 109.08 
L 81.976041 114.624 
L 83.616 119.303934 
L 83.888912 120.168 
L 85.451857 125.712 
L 86.816722 131.256 
L 87.839985 136.8 
L 88.284604 142.344 
L 87.744453 147.888 
L 85.489746 153.432 
L 83.616 155.544408 
L 78.12238 158.976 
L 77.664 159.136419 
L 71.712 159.523366 
L 69.720179 158.976 
L 65.76 157.577028 
L 60.835347 153.432 
L 59.808 152.383345 
L 57.476334 147.888 
L 55.056078 142.344 
L 53.856 139.025213 
z
M 53.856 132.911191 
L 54.946161 136.8 
L 56.865418 142.344 
L 59.148133 147.888 
L 59.808 149.160193 
L 63.993006 153.432 
L 65.76 154.91926 
L 71.712 156.745471 
L 77.664 155.726375 
L 81.097223 153.432 
L 83.616 149.935611 
L 84.524221 147.888 
L 85.368268 142.344 
L 85.165019 136.8 
L 84.338042 131.256 
L 83.616 128.017002 
L 83.035115 125.712 
L 81.349021 120.168 
L 79.558607 114.624 
L 77.728683 109.08 
L 77.664 108.89448 
L 75.420131 103.536 
L 73.203375 97.992 
L 71.712 94.143465 
L 70.786197 92.448 
L 67.903091 86.904 
L 65.76 82.39208 
L 64.618834 81.36 
L 59.808 76.340267 
L 56.04471 81.36 
L 53.856 85.617898 
L 53.69392 86.904 
L 53.126453 92.448 
L 52.713365 97.992 
L 52.454688 103.536 
L 52.352127 109.08 
L 52.409298 114.624 
L 52.632105 120.168 
L 53.029287 125.712 
L 53.613264 131.256 
z
" clip-path="url(#pe90eaf848a)" style="fill: #44bf70"/>
    <path d="M 53.539743 142.344 
L 52.436955 136.8 
L 51.559184 131.256 
L 50.881821 125.712 
L 50.387233 120.168 
L 50.062734 114.624 
L 49.899289 109.08 
L 49.890676 103.536 
L 50.032926 97.992 
L 50.323948 92.448 
L 50.763288 86.904 
L 51.351966 81.36 
L 52.092393 75.816 
L 52.988329 70.272 
L 53.856 65.682366 
L 55.065605 64.728 
L 59.808 61.823768 
L 61.867409 64.728 
L 65.76 69.552847 
L 66.075288 70.272 
L 68.598067 75.816 
L 71.375385 81.36 
L 71.712 82.007089 
L 73.609796 86.904 
L 75.878198 92.448 
L 77.664 96.6115 
L 78.168673 97.992 
L 80.190817 103.536 
L 82.270713 109.08 
L 83.616 112.673184 
L 84.279128 114.624 
L 86.067812 120.168 
L 87.767817 125.712 
L 89.295402 131.256 
L 89.568 132.570089 
L 90.393235 136.8 
L 90.967844 142.344 
L 90.741215 147.888 
L 89.568 152.166135 
L 89.104147 153.432 
L 84.270393 158.976 
L 83.616 159.375219 
L 77.664 161.419371 
L 71.712 161.59089 
L 65.76 159.865283 
L 64.45635 158.976 
L 59.808 155.014547 
L 58.763537 153.432 
L 55.804535 147.888 
L 53.856 143.586684 
z
M 53.856 139.025213 
L 55.056078 142.344 
L 57.476334 147.888 
L 59.808 152.383345 
L 60.835347 153.432 
L 65.76 157.577028 
L 69.720179 158.976 
L 71.712 159.523366 
L 77.664 159.136419 
L 78.12238 158.976 
L 83.616 155.544408 
L 85.489746 153.432 
L 87.744453 147.888 
L 88.284604 142.344 
L 87.839985 136.8 
L 86.816722 131.256 
L 85.451857 125.712 
L 83.888912 120.168 
L 83.616 119.303934 
L 81.976041 114.624 
L 79.999698 109.08 
L 78.044615 103.536 
L 77.664 102.478552 
L 75.748762 97.992 
L 73.486411 92.448 
L 71.712 87.889931 
L 71.185299 86.904 
L 68.341096 81.36 
L 65.769558 75.816 
L 65.76 75.794823 
L 60.89061 70.272 
L 59.808 68.869361 
L 58.090255 70.272 
L 53.856 74.866169 
L 53.695889 75.816 
L 52.884611 81.36 
L 52.228604 86.904 
L 51.725201 92.448 
L 51.373145 97.992 
L 51.172682 103.536 
L 51.125708 109.08 
L 51.236016 114.624 
L 51.509669 120.168 
L 51.955554 125.712 
L 52.586224 131.256 
L 53.419187 136.8 
z
" clip-path="url(#pe90eaf848a)" style="fill: #2ab07f"/>
    <path d="M 52.600546 142.344 
L 51.454722 136.8 
L 50.532144 131.256 
L 49.808088 125.712 
L 49.264797 120.168 
L 48.889452 114.624 
L 48.67287 109.08 
L 48.60867 103.536 
L 48.692706 97.992 
L 48.922696 92.448 
L 49.297972 86.904 
L 49.819322 81.36 
L 50.488897 75.816 
L 51.310171 70.272 
L 52.287946 64.728 
L 53.428396 59.184 
L 53.856 57.317913 
L 59.808 55.062681 
L 62.518975 59.184 
L 65.76 63.530082 
L 66.269532 64.728 
L 68.730259 70.272 
L 71.426576 75.816 
L 71.712 76.381109 
L 73.620933 81.36 
L 75.870346 86.904 
L 77.664 91.106192 
L 78.156724 92.448 
L 80.207223 97.992 
L 82.337019 103.536 
L 83.616 106.82812 
L 84.415295 109.08 
L 86.34102 114.624 
L 88.246712 120.168 
L 89.568 124.222833 
L 90.028835 125.712 
L 91.51678 131.256 
L 92.724374 136.8 
L 93.467885 142.344 
L 93.446208 147.888 
L 92.147092 153.432 
L 89.568 157.636044 
L 88.416189 158.976 
L 83.616 161.904403 
L 77.664 163.702322 
L 71.712 163.658414 
L 65.76 161.742877 
L 61.703878 158.976 
L 59.808 157.36028 
L 57.215381 153.432 
L 54.132737 147.888 
L 53.856 147.277115 
z
M 53.856 143.586684 
L 55.804535 147.888 
L 58.763537 153.432 
L 59.808 155.014547 
L 64.45635 158.976 
L 65.76 159.865283 
L 71.712 161.59089 
L 77.664 161.419371 
L 83.616 159.375219 
L 84.270393 158.976 
L 89.104147 153.432 
L 89.568 152.166135 
L 90.741215 147.888 
L 90.967844 142.344 
L 90.393235 136.8 
L 89.568 132.570089 
L 89.295402 131.256 
L 87.767817 125.712 
L 86.067812 120.168 
L 84.279128 114.624 
L 83.616 112.673184 
L 82.270713 109.08 
L 80.190817 103.536 
L 78.168673 97.992 
L 77.664 96.6115 
L 75.878198 92.448 
L 73.609796 86.904 
L 71.712 82.007089 
L 71.375385 81.36 
L 68.598067 75.816 
L 66.075288 70.272 
L 65.76 69.552847 
L 61.867409 64.728 
L 59.808 61.823768 
L 55.065605 64.728 
L 53.856 65.682366 
L 52.988329 70.272 
L 52.092393 75.816 
L 51.351966 81.36 
L 50.763288 86.904 
L 50.323948 92.448 
L 50.032926 97.992 
L 49.890676 103.536 
L 49.899289 109.08 
L 50.062734 114.624 
L 50.387233 120.168 
L 50.881821 125.712 
L 51.559184 131.256 
L 52.436955 136.8 
L 53.539743 142.344 
z
" clip-path="url(#pe90eaf848a)" style="fill: #1fa188"/>
    <path d="M 47.768007 114.624 
L 47.596427 109.08 
L 47.536663 103.536 
L 47.566539 97.992 
L 47.675761 92.448 
L 47.861972 86.904 
L 47.904 85.999338 
L 48.286678 81.36 
L 48.8854 75.816 
L 49.632012 70.272 
L 50.530999 64.728 
L 51.588177 59.184 
L 52.810773 53.64 
L 53.856 49.442468 
L 59.808 48.510003 
L 62.961017 53.64 
L 65.76 57.669837 
L 66.384387 59.184 
L 68.77618 64.728 
L 71.385229 70.272 
L 71.712 70.939551 
L 73.553456 75.816 
L 75.768063 81.36 
L 77.664 85.85305 
L 78.048643 86.904 
L 80.101478 92.448 
L 82.245773 97.992 
L 83.616 101.454496 
L 84.372714 103.536 
L 86.376143 109.08 
L 88.402912 114.624 
L 89.568 117.891783 
L 90.341713 120.168 
L 92.098095 125.712 
L 93.706364 131.256 
L 95.055513 136.8 
L 95.52 139.719129 
L 95.927911 142.344 
L 96.087986 147.888 
L 95.52 151.353503 
L 95.105903 153.432 
L 91.93757 158.976 
L 89.568 161.007451 
L 83.616 164.433587 
L 83.315173 164.52 
L 77.664 165.492403 
L 71.712 165.343924 
L 68.444132 164.52 
L 65.76 163.62047 
L 59.808 159.507809 
L 59.360972 158.976 
L 55.667224 153.432 
L 53.856 150.196078 
L 53.10679 147.888 
L 51.661349 142.344 
L 50.47249 136.8 
L 49.505104 131.256 
L 48.734354 125.712 
L 48.142362 120.168 
L 47.904 117.006966 
z
M 53.856 147.277115 
L 54.132737 147.888 
L 57.215381 153.432 
L 59.808 157.36028 
L 61.703878 158.976 
L 65.76 161.742877 
L 71.712 163.658414 
L 77.664 163.702322 
L 83.616 161.904403 
L 88.416189 158.976 
L 89.568 157.636044 
L 92.147092 153.432 
L 93.446208 147.888 
L 93.467885 142.344 
L 92.724374 136.8 
L 91.51678 131.256 
L 90.028835 125.712 
L 89.568 124.222833 
L 88.246712 120.168 
L 86.34102 114.624 
L 84.415295 109.08 
L 83.616 106.82812 
L 82.337019 103.536 
L 80.207223 97.992 
L 78.156724 92.448 
L 77.664 91.106192 
L 75.870346 86.904 
L 73.620933 81.36 
L 71.712 76.381109 
L 71.426576 75.816 
L 68.730259 70.272 
L 66.269532 64.728 
L 65.76 63.530082 
L 62.518975 59.184 
L 59.808 55.062681 
L 53.856 57.317913 
L 53.428396 59.184 
L 52.287946 64.728 
L 51.310171 70.272 
L 50.488897 75.816 
L 49.819322 81.36 
L 49.297972 86.904 
L 48.922696 92.448 
L 48.692706 97.992 
L 48.60867 103.536 
L 48.67287 109.08 
L 48.889452 114.624 
L 49.264797 120.168 
L 49.808088 125.712 
L 50.532144 131.256 
L 51.454722 136.8 
L 52.600546 142.344 
z
" clip-path="url(#pe90eaf848a)" style="fill: #21908d"/>
    <path d="M 47.681857 125.712 
L 47.197351 120.168 
L 46.918524 114.624 
L 46.772005 109.08 
L 46.72097 103.536 
L 46.746482 97.992 
L 46.839751 92.448 
L 46.998765 86.904 
L 47.227028 81.36 
L 47.533616 75.816 
L 47.904 70.666331 
L 47.953854 70.272 
L 48.774051 64.728 
L 49.747957 59.184 
L 50.882402 53.64 
L 52.185691 48.096 
L 53.667742 42.552 
L 53.856 41.900537 
L 59.808 42.118017 
L 60.044569 42.552 
L 63.26436 48.096 
L 65.76 51.931042 
L 66.442925 53.64 
L 68.762808 59.184 
L 71.282829 64.728 
L 71.712 65.633615 
L 73.431617 70.272 
L 75.601587 75.816 
L 77.664 80.782941 
L 77.873326 81.36 
L 79.910948 86.904 
L 82.046232 92.448 
L 83.616 96.390659 
L 84.204538 97.992 
L 86.245434 103.536 
L 88.336992 109.08 
L 89.568 112.355027 
L 90.383845 114.624 
L 92.307455 120.168 
L 94.167354 125.712 
L 95.52 130.102724 
L 95.868707 131.256 
L 97.236892 136.8 
L 98.204608 142.344 
L 98.522072 147.888 
L 97.776657 153.432 
L 95.52 158.441224 
L 95.218734 158.976 
L 89.568 163.820418 
L 88.349212 164.52 
L 83.616 166.089592 
L 77.664 167.007444 
L 71.712 166.756503 
L 65.76 165.206047 
L 64.496559 164.52 
L 59.808 161.216658 
L 57.924548 158.976 
L 54.119067 153.432 
L 53.856 152.962006 
L 52.208961 147.888 
L 50.722152 142.344 
L 49.490258 136.8 
L 48.478065 131.256 
L 47.904 127.311554 
z
M 47.904 117.006966 
L 48.142362 120.168 
L 48.734354 125.712 
L 49.505104 131.256 
L 50.47249 136.8 
L 51.661349 142.344 
L 53.10679 147.888 
L 53.856 150.196078 
L 55.667224 153.432 
L 59.360972 158.976 
L 59.808 159.507809 
L 65.76 163.62047 
L 68.444132 164.52 
L 71.712 165.343924 
L 77.664 165.492403 
L 83.315173 164.52 
L 83.616 164.433587 
L 89.568 161.007451 
L 91.93757 158.976 
L 95.105903 153.432 
L 95.52 151.353503 
L 96.087986 147.888 
L 95.927911 142.344 
L 95.52 139.719129 
L 95.055513 136.8 
L 93.706364 131.256 
L 92.098095 125.712 
L 90.341713 120.168 
L 89.568 117.891783 
L 88.402912 114.624 
L 86.376143 109.08 
L 84.372714 103.536 
L 83.616 101.454496 
L 82.245773 97.992 
L 80.101478 92.448 
L 78.048643 86.904 
L 77.664 85.85305 
L 75.768063 81.36 
L 73.553456 75.816 
L 71.712 70.939551 
L 71.385229 70.272 
L 68.77618 64.728 
L 66.384387 59.184 
L 65.76 57.669837 
L 62.961017 53.64 
L 59.808 48.510003 
L 53.856 49.442468 
L 52.810773 53.64 
L 51.588177 59.184 
L 50.530999 64.728 
L 49.632012 70.272 
L 48.8854 75.816 
L 48.286678 81.36 
L 47.904 85.999338 
L 47.861972 86.904 
L 47.675761 92.448 
L 47.566539 97.992 
L 47.536663 103.536 
L 47.596427 109.08 
L 47.768007 114.624 
z
" clip-path="url(#pe90eaf848a)" style="fill: #27808e"/>
    <path d="M 47.407529 131.256 
L 46.701812 125.712 
L 46.300177 120.168 
L 46.069041 114.624 
L 45.947583 109.08 
L 45.905277 103.536 
L 45.926425 97.992 
L 46.003742 92.448 
L 46.135557 86.904 
L 46.324778 81.36 
L 46.578927 75.816 
L 46.911158 70.272 
L 47.342543 64.728 
L 47.904 59.206211 
L 47.907737 59.184 
L 48.954031 53.64 
L 50.163846 48.096 
L 51.5466 42.552 
L 53.113451 37.008 
L 53.856 34.607398 
L 59.808 35.840109 
L 60.411116 37.008 
L 63.474441 42.552 
L 65.76 46.282955 
L 66.461998 48.096 
L 68.709389 53.64 
L 71.141228 59.184 
L 71.712 60.428842 
L 73.273143 64.728 
L 75.392589 70.272 
L 77.649719 75.816 
L 77.664 75.850394 
L 79.662593 81.36 
L 81.773254 86.904 
L 83.616 91.543851 
L 83.948893 92.448 
L 85.999724 97.992 
L 88.118154 103.536 
L 89.568 107.280007 
L 90.236786 109.08 
L 92.259599 114.624 
L 94.273198 120.168 
L 95.52 123.754009 
L 96.189495 125.712 
L 97.899636 131.256 
L 99.381005 136.8 
L 100.481306 142.344 
L 100.956158 147.888 
L 100.400535 153.432 
L 98.114778 158.976 
L 95.52 161.830522 
L 92.350709 164.52 
L 89.568 165.829943 
L 83.616 167.714709 
L 77.664 168.522484 
L 71.712 168.169082 
L 65.76 166.523054 
L 62.071125 164.52 
L 59.808 162.925507 
L 56.488124 158.976 
L 53.856 155.160437 
L 52.985652 153.432 
L 51.311132 147.888 
L 49.782955 142.344 
L 48.508026 136.8 
L 47.904 133.571506 
z
M 47.904 127.311554 
L 48.478065 131.256 
L 49.490258 136.8 
L 50.722152 142.344 
L 52.208961 147.888 
L 53.856 152.962006 
L 54.119067 153.432 
L 57.924548 158.976 
L 59.808 161.216658 
L 64.496559 164.52 
L 65.76 165.206047 
L 71.712 166.756503 
L 77.664 167.007444 
L 83.616 166.089592 
L 88.349212 164.52 
L 89.568 163.820418 
L 95.218734 158.976 
L 95.52 158.441224 
L 97.776657 153.432 
L 98.522072 147.888 
L 98.204608 142.344 
L 97.236892 136.8 
L 95.868707 131.256 
L 95.52 130.102724 
L 94.167354 125.712 
L 92.307455 120.168 
L 90.383845 114.624 
L 89.568 112.355027 
L 88.336992 109.08 
L 86.245434 103.536 
L 84.204538 97.992 
L 83.616 96.390659 
L 82.046232 92.448 
L 79.910948 86.904 
L 77.873326 81.36 
L 77.664 80.782941 
L 75.601587 75.816 
L 73.431617 70.272 
L 71.712 65.633615 
L 71.282829 64.728 
L 68.762808 59.184 
L 66.442925 53.64 
L 65.76 51.931042 
L 63.26436 48.096 
L 60.044569 42.552 
L 59.808 42.118017 
L 53.856 41.900537 
L 53.667742 42.552 
L 52.185691 48.096 
L 50.882402 53.64 
L 49.747957 59.184 
L 48.774051 64.728 
L 47.953854 70.272 
L 47.904 70.666331 
L 47.533616 75.816 
L 47.227028 81.36 
L 46.998765 86.904 
L 46.839751 92.448 
L 46.746482 97.992 
L 46.72097 103.536 
L 46.772005 109.08 
L 46.918524 114.624 
L 47.197351 120.168 
L 47.681857 125.712 
z
" clip-path="url(#pe90eaf848a)" style="fill: #2d708e"/>
    <path d="M 47.362404 136.8 
L 46.281871 131.256 
L 45.721767 125.712 
L 45.403003 120.168 
L 45.219558 114.624 
L 45.123161 109.08 
L 45.089584 103.536 
L 45.106369 97.992 
L 45.167732 92.448 
L 45.27235 86.904 
L 45.422528 81.36 
L 45.624237 75.816 
L 45.887918 70.272 
L 46.230294 64.728 
L 46.677884 59.184 
L 47.273821 53.64 
L 47.904 49.234544 
L 48.142001 48.096 
L 49.425458 42.552 
L 50.886625 37.008 
L 52.537986 31.464 
L 53.856 27.470715 
L 59.808 29.640082 
L 60.70307 31.464 
L 63.6215 37.008 
L 65.76 40.701887 
L 66.454079 42.552 
L 68.629866 48.096 
L 70.975853 53.64 
L 71.712 55.299896 
L 73.091124 59.184 
L 75.156792 64.728 
L 77.353561 70.272 
L 77.664 71.034299 
L 79.376094 75.816 
L 81.45186 81.36 
L 83.616 86.856272 
L 83.633488 86.904 
L 85.675343 92.448 
L 87.79491 97.992 
L 89.568 102.504376 
L 89.957973 103.536 
L 92.033604 109.08 
L 94.135354 114.624 
L 95.52 118.331236 
L 96.19587 120.168 
L 98.122695 125.712 
L 99.930565 131.256 
L 101.472 136.62476 
L 101.522505 136.8 
L 102.686625 142.344 
L 103.269575 147.888 
L 102.913135 153.432 
L 101.472 157.710261 
L 100.971888 158.976 
L 95.97469 164.52 
L 95.52 164.790067 
L 89.568 167.573509 
L 83.616 169.339826 
L 77.664 170.037525 
L 71.712 169.58166 
L 65.76 167.840061 
L 59.808 164.614802 
L 59.706221 164.52 
L 55.0517 158.976 
L 53.856 157.242697 
L 51.937137 153.432 
L 50.413302 147.888 
L 48.843758 142.344 
L 47.904 138.340585 
z
M 47.904 133.571506 
L 48.508026 136.8 
L 49.782955 142.344 
L 51.311132 147.888 
L 52.985652 153.432 
L 53.856 155.160437 
L 56.488124 158.976 
L 59.808 162.925507 
L 62.071125 164.52 
L 65.76 166.523054 
L 71.712 168.169082 
L 77.664 168.522484 
L 83.616 167.714709 
L 89.568 165.829943 
L 92.350709 164.52 
L 95.52 161.830522 
L 98.114778 158.976 
L 100.400535 153.432 
L 100.956158 147.888 
L 100.481306 142.344 
L 99.381005 136.8 
L 97.899636 131.256 
L 96.189495 125.712 
L 95.52 123.754009 
L 94.273198 120.168 
L 92.259599 114.624 
L 90.236786 109.08 
L 89.568 107.280007 
L 88.118154 103.536 
L 85.999724 97.992 
L 83.948893 92.448 
L 83.616 91.543851 
L 81.773254 86.904 
L 79.662593 81.36 
L 77.664 75.850394 
L 77.649719 75.816 
L 75.392589 70.272 
L 73.273143 64.728 
L 71.712 60.428842 
L 71.141228 59.184 
L 68.709389 53.64 
L 66.461998 48.096 
L 65.76 46.282955 
L 63.474441 42.552 
L 60.411116 37.008 
L 59.808 35.840109 
L 53.856 34.607398 
L 53.113451 37.008 
L 51.5466 42.552 
L 50.163846 48.096 
L 48.954031 53.64 
L 47.907737 59.184 
L 47.904 59.206211 
L 47.342543 64.728 
L 46.911158 70.272 
L 46.578927 75.816 
L 46.324778 81.36 
L 46.135557 86.904 
L 46.003742 92.448 
L 45.926425 97.992 
L 45.905277 103.536 
L 45.947583 109.08 
L 46.069041 114.624 
L 46.300177 120.168 
L 46.701812 125.712 
L 47.407529 131.256 
z
" clip-path="url(#pe90eaf848a)" style="fill: #355f8d"/>
    <path d="M 45.955835 136.8 
L 45.156214 131.256 
L 44.741723 125.712 
L 44.505829 120.168 
L 44.370075 114.624 
L 44.298739 109.08 
L 44.273891 103.536 
L 44.286312 97.992 
L 44.331723 92.448 
L 44.409142 86.904 
L 44.520278 81.36 
L 44.669548 75.816 
L 44.864678 70.272 
L 45.118045 64.728 
L 45.449273 59.184 
L 45.890282 53.64 
L 46.495679 48.096 
L 47.366255 42.552 
L 47.904 40.03259 
L 48.659799 37.008 
L 50.198449 31.464 
L 51.934178 25.92 
L 53.856 25.92 
L 59.808 25.92 
L 60.941589 25.92 
L 63.726251 31.464 
L 65.76 35.169102 
L 66.428499 37.008 
L 68.534454 42.552 
L 70.797734 48.096 
L 71.712 50.227484 
L 72.895311 53.64 
L 74.905712 59.184 
L 77.040441 64.728 
L 77.664 66.292959 
L 79.065957 70.272 
L 81.10021 75.816 
L 83.241126 81.36 
L 83.616 82.312068 
L 85.298587 86.904 
L 87.401793 92.448 
L 89.568 97.938143 
L 89.593626 97.992 
L 91.684994 103.536 
L 93.830422 109.08 
L 95.52 113.416545 
L 96.021344 114.624 
L 98.043851 120.168 
L 100.055896 125.712 
L 101.472 129.883467 
L 101.940097 131.256 
L 103.561175 136.8 
L 104.836958 142.344 
L 105.550543 147.888 
L 105.34893 153.432 
L 103.635148 158.976 
L 101.472 161.889284 
L 99.125113 164.52 
L 95.52 166.661287 
L 89.568 169.317075 
L 86.973539 170.064 
L 83.616 170.967734 
L 77.664 171.486577 
L 71.712 171.105619 
L 68.802475 170.064 
L 65.76 169.157068 
L 59.808 166.031457 
L 58.18531 164.52 
L 53.856 159.284249 
L 53.525066 158.976 
L 50.888623 153.432 
L 49.515473 147.888 
L 47.904562 142.344 
L 47.904 142.341608 
z
M 47.904 138.340585 
L 48.843758 142.344 
L 50.413302 147.888 
L 51.937137 153.432 
L 53.856 157.242697 
L 55.0517 158.976 
L 59.706221 164.52 
L 59.808 164.614802 
L 65.76 167.840061 
L 71.712 169.58166 
L 77.664 170.037525 
L 83.616 169.339826 
L 89.568 167.573509 
L 95.52 164.790067 
L 95.97469 164.52 
L 100.971888 158.976 
L 101.472 157.710261 
L 102.913135 153.432 
L 103.269575 147.888 
L 102.686625 142.344 
L 101.522505 136.8 
L 101.472 136.62476 
L 99.930565 131.256 
L 98.122695 125.712 
L 96.19587 120.168 
L 95.52 118.331236 
L 94.135354 114.624 
L 92.033604 109.08 
L 89.957973 103.536 
L 89.568 102.504376 
L 87.79491 97.992 
L 85.675343 92.448 
L 83.633488 86.904 
L 83.616 86.856272 
L 81.45186 81.36 
L 79.376094 75.816 
L 77.664 71.034299 
L 77.353561 70.272 
L 75.156792 64.728 
L 73.091124 59.184 
L 71.712 55.299896 
L 70.975853 53.64 
L 68.629866 48.096 
L 66.454079 42.552 
L 65.76 40.701887 
L 63.6215 37.008 
L 60.70307 31.464 
L 59.808 29.640082 
L 53.856 27.470715 
L 52.537986 31.464 
L 50.886625 37.008 
L 49.425458 42.552 
L 48.142001 48.096 
L 47.904 49.234544 
L 47.273821 53.64 
L 46.677884 59.184 
L 46.230294 64.728 
L 45.887918 70.272 
L 45.624237 75.816 
L 45.422528 81.36 
L 45.27235 86.904 
L 45.167732 92.448 
L 45.106369 97.992 
L 45.089584 103.536 
L 45.123161 109.08 
L 45.219558 114.624 
L 45.403003 120.168 
L 45.721767 125.712 
L 46.281871 131.256 
L 47.362404 136.8 
z
" clip-path="url(#pe90eaf848a)" style="fill: #3d4d8a"/>
    <path d="M 45.813841 142.344 
L 44.549266 136.8 
L 44.030556 131.256 
L 43.761678 125.712 
L 43.608655 120.168 
L 43.520592 114.624 
L 43.474316 109.08 
L 43.458198 103.536 
L 43.466256 97.992 
L 43.495713 92.448 
L 43.545935 86.904 
L 43.618028 81.36 
L 43.714859 75.816 
L 43.841439 70.272 
L 44.005796 64.728 
L 44.220662 59.184 
L 44.506742 53.64 
L 44.89946 48.096 
L 45.464198 42.552 
L 46.335725 37.008 
L 47.842521 31.464 
L 47.904 31.301513 
L 49.474177 25.92 
L 51.934178 25.92 
L 50.198449 31.464 
L 48.659799 37.008 
L 47.904 40.03259 
L 47.366255 42.552 
L 46.495679 48.096 
L 45.890282 53.64 
L 45.449273 59.184 
L 45.118045 64.728 
L 44.864678 70.272 
L 44.669548 75.816 
L 44.520278 81.36 
L 44.409142 86.904 
L 44.331723 92.448 
L 44.286312 97.992 
L 44.273891 103.536 
L 44.298739 109.08 
L 44.370075 114.624 
L 44.505829 120.168 
L 44.741723 125.712 
L 45.156214 131.256 
L 45.955835 136.8 
L 47.904 142.341608 
L 47.904562 142.344 
L 49.515473 147.888 
L 50.888623 153.432 
L 53.525066 158.976 
L 53.856 159.284249 
L 58.18531 164.52 
L 59.808 166.031457 
L 65.76 169.157068 
L 68.802475 170.064 
L 71.712 171.105619 
L 77.664 171.486577 
L 83.616 170.967734 
L 86.973539 170.064 
L 89.568 169.317075 
L 95.52 166.661287 
L 99.125113 164.52 
L 101.472 161.889284 
L 103.635148 158.976 
L 105.34893 153.432 
L 105.550543 147.888 
L 104.836958 142.344 
L 103.561175 136.8 
L 101.940097 131.256 
L 101.472 129.883467 
L 100.055896 125.712 
L 98.043851 120.168 
L 96.021344 114.624 
L 95.52 113.416545 
L 93.830422 109.08 
L 91.684994 103.536 
L 89.593626 97.992 
L 89.568 97.938143 
L 87.401793 92.448 
L 85.298587 86.904 
L 83.616 82.312068 
L 83.241126 81.36 
L 81.10021 75.816 
L 79.065957 70.272 
L 77.664 66.292959 
L 77.040441 64.728 
L 74.905712 59.184 
L 72.895311 53.64 
L 71.712 50.227484 
L 70.797734 48.096 
L 68.534454 42.552 
L 66.428499 37.008 
L 65.76 35.169102 
L 63.726251 31.464 
L 60.941589 25.92 
L 63.803218 25.92 
L 65.76 29.669436 
L 66.656115 31.464 
L 68.430709 37.008 
L 70.614829 42.552 
L 71.712 45.196454 
L 73.131435 48.096 
L 74.647843 53.64 
L 76.7203 59.184 
L 77.664 61.608869 
L 79.246859 64.728 
L 80.7316 70.272 
L 82.824326 75.816 
L 83.616 77.853089 
L 85.400209 81.36 
L 86.963685 86.904 
L 89.128243 92.448 
L 89.568 93.562543 
L 91.675594 97.992 
L 93.412015 103.536 
L 95.52 108.821554 
L 95.706356 109.08 
L 97.936189 114.624 
L 99.891832 120.168 
L 101.472 124.390984 
L 102.225097 125.712 
L 103.882251 131.256 
L 105.599845 136.8 
L 106.98729 142.344 
L 107.424 145.293415 
L 107.949071 147.888 
L 107.865916 153.432 
L 107.424 154.816432 
L 106.257277 158.976 
L 102.199045 164.52 
L 101.472 165.192842 
L 95.52 168.532507 
L 92.015545 170.064 
L 89.568 171.374518 
L 83.616 172.597885 
L 77.664 172.934455 
L 71.712 172.68733 
L 65.76 170.863959 
L 64.901169 170.064 
L 59.808 167.448111 
L 56.6644 164.52 
L 53.856 161.123597 
L 51.550355 158.976 
L 49.840109 153.432 
L 48.617644 147.888 
L 47.904 145.432011 
z
" clip-path="url(#pe90eaf848a)" style="fill: #443983"/>
    <path d="M 46.742966 147.888 
L 43.722431 142.344 
L 43.142697 136.8 
L 42.904898 131.256 
L 42.781633 125.712 
L 42.711481 120.168 
L 42.671109 114.624 
L 42.649894 109.08 
L 42.642505 103.536 
L 42.646199 97.992 
L 42.659703 92.448 
L 42.682727 86.904 
L 42.715778 81.36 
L 42.760169 75.816 
L 42.818199 70.272 
L 42.893547 64.728 
L 42.992051 59.184 
L 43.123202 53.64 
L 43.30324 48.096 
L 43.56214 42.552 
L 43.961685 37.008 
L 44.652464 31.464 
L 46.122122 25.92 
L 47.904 25.92 
L 49.474177 25.92 
L 47.904 31.301513 
L 47.842521 31.464 
L 46.335725 37.008 
L 45.464198 42.552 
L 44.89946 48.096 
L 44.506742 53.64 
L 44.220662 59.184 
L 44.005796 64.728 
L 43.841439 70.272 
L 43.714859 75.816 
L 43.618028 81.36 
L 43.545935 86.904 
L 43.495713 92.448 
L 43.466256 97.992 
L 43.458198 103.536 
L 43.474316 109.08 
L 43.520592 114.624 
L 43.608655 120.168 
L 43.761678 125.712 
L 44.030556 131.256 
L 44.549266 136.8 
L 45.813841 142.344 
L 47.904 145.432011 
L 48.617644 147.888 
L 49.840109 153.432 
L 51.550355 158.976 
L 53.856 161.123597 
L 56.6644 164.52 
L 59.808 167.448111 
L 64.901169 170.064 
L 65.76 170.863959 
L 71.712 172.68733 
L 77.664 172.934455 
L 83.616 172.597885 
L 89.568 171.374518 
L 92.015545 170.064 
L 95.52 168.532507 
L 101.472 165.192842 
L 102.199045 164.52 
L 106.257277 158.976 
L 107.424 154.816432 
L 107.865916 153.432 
L 107.949071 147.888 
L 107.424 145.293415 
L 106.98729 142.344 
L 105.599845 136.8 
L 103.882251 131.256 
L 102.225097 125.712 
L 101.472 124.390984 
L 99.891832 120.168 
L 97.936189 114.624 
L 95.706356 109.08 
L 95.52 108.821554 
L 93.412015 103.536 
L 91.675594 97.992 
L 89.568 93.562543 
L 89.128243 92.448 
L 86.963685 86.904 
L 85.400209 81.36 
L 83.616 77.853089 
L 82.824326 75.816 
L 80.7316 70.272 
L 79.246859 64.728 
L 77.664 61.608869 
L 76.7203 59.184 
L 74.647843 53.64 
L 73.131435 48.096 
L 71.712 45.196454 
L 70.614829 42.552 
L 68.430709 37.008 
L 66.656115 31.464 
L 65.76 29.669436 
L 63.803218 25.92 
L 65.76 25.92 
L 67.37863 25.92 
L 69.394168 31.464 
L 70.43292 37.008 
L 71.712 40.194574 
L 73.844435 42.552 
L 75.58608 48.096 
L 76.400375 53.64 
L 77.664 56.968474 
L 79.817535 59.184 
L 81.613001 64.728 
L 82.397243 70.272 
L 83.616 73.459804 
L 85.936238 75.816 
L 87.657308 81.36 
L 88.628784 86.904 
L 89.568 89.292336 
L 92.354719 92.448 
L 93.757561 97.992 
L 95.139036 103.536 
L 95.52 104.491227 
L 98.828784 109.08 
L 99.851034 114.624 
L 101.472 119.357623 
L 102.342015 120.168 
L 105.040603 125.712 
L 105.824405 131.256 
L 107.424 136.171952 
L 108.082039 136.8 
L 110.310155 142.344 
L 110.888066 147.888 
L 110.849944 153.432 
L 109.781097 158.976 
L 107.424 161.192947 
L 105.049569 164.52 
L 101.472 167.830855 
L 96.571094 170.064 
L 95.52 171.043043 
L 89.568 173.667192 
L 83.616 174.228036 
L 77.664 174.382334 
L 71.712 174.269041 
L 65.76 173.433131 
L 62.142924 170.064 
L 59.808 168.864766 
L 55.14349 164.52 
L 53.856 162.962945 
L 49.575643 158.976 
L 48.791594 153.432 
L 47.904 148.969447 
z
" clip-path="url(#pe90eaf848a)" style="fill: #482475"/>
    <path d="M 36 186.696 
L 36 181.152 
L 36 175.608 
L 36 170.064 
L 36 164.52 
L 36 158.976 
L 36 153.432 
L 36 147.888 
L 36 142.344 
L 36 136.8 
L 36 131.256 
L 36 125.712 
L 36 120.168 
L 36 114.624 
L 36 109.08 
L 36 103.536 
L 36 97.992 
L 36 92.448 
L 36 86.904 
L 36 81.36 
L 36 75.816 
L 36 70.272 
L 36 64.728 
L 36 59.184 
L 36 53.64 
L 36 48.096 
L 36 42.552 
L 36 37.008 
L 36 31.464 
L 36 25.92 
L 41.952 25.92 
L 46.122122 25.92 
L 44.652464 31.464 
L 43.961685 37.008 
L 43.56214 42.552 
L 43.30324 48.096 
L 43.123202 53.64 
L 42.992051 59.184 
L 42.893547 64.728 
L 42.818199 70.272 
L 42.760169 75.816 
L 42.715778 81.36 
L 42.682727 86.904 
L 42.659703 92.448 
L 42.646199 97.992 
L 42.642505 103.536 
L 42.649894 109.08 
L 42.671109 114.624 
L 42.711481 120.168 
L 42.781633 125.712 
L 42.904898 131.256 
L 43.142697 136.8 
L 43.722431 142.344 
L 46.742966 147.888 
L 47.904 148.969447 
L 48.791594 153.432 
L 49.575643 158.976 
L 53.856 162.962945 
L 55.14349 164.52 
L 59.808 168.864766 
L 62.142924 170.064 
L 65.76 173.433131 
L 71.712 174.269041 
L 77.664 174.382334 
L 83.616 174.228036 
L 89.568 173.667192 
L 95.52 171.043043 
L 96.571094 170.064 
L 101.472 167.830855 
L 105.049569 164.52 
L 107.424 161.192947 
L 109.781097 158.976 
L 110.849944 153.432 
L 110.888066 147.888 
L 110.310155 142.344 
L 108.082039 136.8 
L 107.424 136.171952 
L 105.824405 131.256 
L 105.040603 125.712 
L 102.342015 120.168 
L 101.472 119.357623 
L 99.851034 114.624 
L 98.828784 109.08 
L 95.52 104.491227 
L 95.139036 103.536 
L 93.757561 97.992 
L 92.354719 92.448 
L 89.568 89.292336 
L 88.628784 86.904 
L 87.657308 81.36 
L 85.936238 75.816 
L 83.616 73.459804 
L 82.397243 70.272 
L 81.613001 64.728 
L 79.817535 59.184 
L 77.664 56.968474 
L 76.400375 53.64 
L 75.58608 48.096 
L 73.844435 42.552 
L 71.712 40.194574 
L 70.43292 37.008 
L 69.394168 31.464 
L 67.37863 25.92 
L 71.712 25.92 
L 77.664 25.92 
L 83.616 25.92 
L 89.568 25.92 
L 95.52 25.92 
L 101.472 25.92 
L 107.424 25.92 
L 113.376 25.92 
L 119.328 25.92 
L 125.28 25.92 
L 131.232 25.92 
L 137.184 25.92 
L 143.136 25.92 
L 149.088 25.92 
L 155.04 25.92 
L 160.992 25.92 
L 166.944 25.92 
L 172.896 25.92 
L 178.848 25.92 
L 184.8 25.92 
L 190.752 25.92 
L 196.704 25.92 
L 202.656 25.92 
L 208.608 25.92 
L 214.56 25.92 
L 214.56 31.464 
L 214.56 37.008 
L 214.56 42.552 
L 214.56 48.096 
L 214.56 53.64 
L 214.56 59.184 
L 214.56 64.728 
L 214.56 70.272 
L 214.56 75.816 
L 214.56 81.36 
L 214.56 86.904 
L 214.56 92.448 
L 214.56 97.992 
L 214.56 103.536 
L 214.56 109.08 
L 214.56 114.624 
L 214.56 120.168 
L 214.56 125.712 
L 214.56 131.256 
L 214.56 136.8 
L 214.56 142.344 
L 214.56 147.888 
L 214.56 153.432 
L 214.56 158.976 
L 214.56 164.52 
L 214.56 170.064 
L 214.56 175.608 
L 214.56 181.152 
L 214.56 186.696 
L 214.56 192.24 
L 208.608 192.24 
L 202.656 192.24 
L 196.704 192.24 
L 190.752 192.24 
L 184.8 192.24 
L 178.848 192.24 
L 172.896 192.24 
L 166.944 192.24 
L 160.992 192.24 
L 155.04 192.24 
L 149.088 192.24 
L 143.136 192.24 
L 137.184 192.24 
L 131.232 192.24 
L 125.28 192.24 
L 119.328 192.24 
L 113.376 192.24 
L 107.424 192.24 
L 101.472 192.24 
L 95.52 192.24 
L 89.568 192.24 
L 83.616 192.24 
L 77.664 192.24 
L 71.712 192.24 
L 65.76 192.24 
L 59.808 192.24 
L 53.856 192.24 
L 47.904 192.24 
L 41.952 192.24 
L 36 192.24 
z
" clip-path="url(#pe90eaf848a)" style="fill: #470d60"/>
   </g>
   <g id="PathCollection_1">
    <defs>
     <path id="m5f1df933ed" d="M -4.743416 4.743416 
L 4.743416 -4.743416 
M -4.743416 -4.743416 
L 4.743416 4.743416 
" style="stroke: #ffffff; stroke-width: 5"/>
    </defs>
    <g clip-path="url(#pe90eaf848a)">
     <use xlink:href="#m5f1df933ed" x="65.76" y="127.56" style="fill: #ffffff; stroke: #ffffff; stroke-width: 5"/>
    </g>
   </g>
   <g id="PathCollection_2">
    <defs>
     <path id="m169987f0ac" d="M -4.330127 4.330127 
L 4.330127 -4.330127 
M -4.330127 -4.330127 
L 4.330127 4.330127 
" style="stroke: #000000; stroke-width: 2"/>
    </defs>
    <g clip-path="url(#pe90eaf848a)">
     <use xlink:href="#m169987f0ac" x="65.76" y="127.56" style="stroke: #000000; stroke-width: 2"/>
    </g>
   </g>
   <g id="matplotlib.axis_1">
    <g id="xtick_1">
     <g id="line2d_1">
      <defs>
       <path id="m0113edf982" d="M 0 0 
L 0 6 
" style="stroke: #000000; stroke-width: 2"/>
      </defs>
      <g>
       <use xlink:href="#m0113edf982" x="65.76" y="192.24" style="stroke: #000000; stroke-width: 2"/>
      </g>
     </g>
     <g id="text_1">
      <!-- $\mathdefault{200}$ -->
      <g transform="translate(52.39 212.377813) scale(0.14 -0.14)">
       <defs>
        <path id="DejaVuSans-32" d="M 1228 531 
L 3431 531 
L 3431 0 
L 469 0 
L 469 531 
Q 828 903 1448 1529 
Q 2069 2156 2228 2338 
Q 2531 2678 2651 2914 
Q 2772 3150 2772 3378 
Q 2772 3750 2511 3984 
Q 2250 4219 1831 4219 
Q 1534 4219 1204 4116 
Q 875 4013 500 3803 
L 500 4441 
Q 881 4594 1212 4672 
Q 1544 4750 1819 4750 
Q 2544 4750 2975 4387 
Q 3406 4025 3406 3419 
Q 3406 3131 3298 2873 
Q 3191 2616 2906 2266 
Q 2828 2175 2409 1742 
Q 1991 1309 1228 531 
z
" transform="scale(0.015625)"/>
        <path id="DejaVuSans-30" d="M 2034 4250 
Q 1547 4250 1301 3770 
Q 1056 3291 1056 2328 
Q 1056 1369 1301 889 
Q 1547 409 2034 409 
Q 2525 409 2770 889 
Q 3016 1369 3016 2328 
Q 3016 3291 2770 3770 
Q 2525 4250 2034 4250 
z
M 2034 4750 
Q 2819 4750 3233 4129 
Q 3647 3509 3647 2328 
Q 3647 1150 3233 529 
Q 2819 -91 2034 -91 
Q 1250 -91 836 529 
Q 422 1150 422 2328 
Q 422 3509 836 4129 
Q 1250 4750 2034 4750 
z
" transform="scale(0.015625)"/>
       </defs>
       <use xlink:href="#DejaVuSans-32" transform="translate(0 0.78125)"/>
       <use xlink:href="#DejaVuSans-30" transform="translate(63.623047 0.78125)"/>
       <use xlink:href="#DejaVuSans-30" transform="translate(127.246094 0.78125)"/>
      </g>
     </g>
    </g>
    <g id="xtick_2">
     <g id="line2d_2">
      <g>
       <use xlink:href="#m0113edf982" x="105.44" y="192.24" style="stroke: #000000; stroke-width: 2"/>
      </g>
     </g>
     <g id="text_2">
      <!-- $\mathdefault{400}$ -->
      <g transform="translate(92.07 212.377813) scale(0.14 -0.14)">
       <defs>
        <path id="DejaVuSans-34" d="M 2419 4116 
L 825 1625 
L 2419 1625 
L 2419 4116 
z
M 2253 4666 
L 3047 4666 
L 3047 1625 
L 3713 1625 
L 3713 1100 
L 3047 1100 
L 3047 0 
L 2419 0 
L 2419 1100 
L 313 1100 
L 313 1709 
L 2253 4666 
z
" transform="scale(0.015625)"/>
       </defs>
       <use xlink:href="#DejaVuSans-34" transform="translate(0 0.78125)"/>
       <use xlink:href="#DejaVuSans-30" transform="translate(63.623047 0.78125)"/>
       <use xlink:href="#DejaVuSans-30" transform="translate(127.246094 0.78125)"/>
      </g>
     </g>
    </g>
    <g id="xtick_3">
     <g id="line2d_3">
      <g>
       <use xlink:href="#m0113edf982" x="145.12" y="192.24" style="stroke: #000000; stroke-width: 2"/>
      </g>
     </g>
     <g id="text_3">
      <!-- $\mathdefault{600}$ -->
      <g transform="translate(131.75 212.377813) scale(0.14 -0.14)">
       <defs>
        <path id="DejaVuSans-36" d="M 2113 2584 
Q 1688 2584 1439 2293 
Q 1191 2003 1191 1497 
Q 1191 994 1439 701 
Q 1688 409 2113 409 
Q 2538 409 2786 701 
Q 3034 994 3034 1497 
Q 3034 2003 2786 2293 
Q 2538 2584 2113 2584 
z
M 3366 4563 
L 3366 3988 
Q 3128 4100 2886 4159 
Q 2644 4219 2406 4219 
Q 1781 4219 1451 3797 
Q 1122 3375 1075 2522 
Q 1259 2794 1537 2939 
Q 1816 3084 2150 3084 
Q 2853 3084 3261 2657 
Q 3669 2231 3669 1497 
Q 3669 778 3244 343 
Q 2819 -91 2113 -91 
Q 1303 -91 875 529 
Q 447 1150 447 2328 
Q 447 3434 972 4092 
Q 1497 4750 2381 4750 
Q 2619 4750 2861 4703 
Q 3103 4656 3366 4563 
z
" transform="scale(0.015625)"/>
       </defs>
       <use xlink:href="#DejaVuSans-36" transform="translate(0 0.78125)"/>
       <use xlink:href="#DejaVuSans-30" transform="translate(63.623047 0.78125)"/>
       <use xlink:href="#DejaVuSans-30" transform="translate(127.246094 0.78125)"/>
      </g>
     </g>
    </g>
    <g id="xtick_4">
     <g id="line2d_4">
      <g>
       <use xlink:href="#m0113edf982" x="184.8" y="192.24" style="stroke: #000000; stroke-width: 2"/>
      </g>
     </g>
     <g id="text_4">
      <!-- $\mathdefault{800}$ -->
      <g transform="translate(171.43 212.377813) scale(0.14 -0.14)">
       <defs>
        <path id="DejaVuSans-38" d="M 2034 2216 
Q 1584 2216 1326 1975 
Q 1069 1734 1069 1313 
Q 1069 891 1326 650 
Q 1584 409 2034 409 
Q 2484 409 2743 651 
Q 3003 894 3003 1313 
Q 3003 1734 2745 1975 
Q 2488 2216 2034 2216 
z
M 1403 2484 
Q 997 2584 770 2862 
Q 544 3141 544 3541 
Q 544 4100 942 4425 
Q 1341 4750 2034 4750 
Q 2731 4750 3128 4425 
Q 3525 4100 3525 3541 
Q 3525 3141 3298 2862 
Q 3072 2584 2669 2484 
Q 3125 2378 3379 2068 
Q 3634 1759 3634 1313 
Q 3634 634 3220 271 
Q 2806 -91 2034 -91 
Q 1263 -91 848 271 
Q 434 634 434 1313 
Q 434 1759 690 2068 
Q 947 2378 1403 2484 
z
M 1172 3481 
Q 1172 3119 1398 2916 
Q 1625 2713 2034 2713 
Q 2441 2713 2670 2916 
Q 2900 3119 2900 3481 
Q 2900 3844 2670 4047 
Q 2441 4250 2034 4250 
Q 1625 4250 1398 4047 
Q 1172 3844 1172 3481 
z
" transform="scale(0.015625)"/>
       </defs>
       <use xlink:href="#DejaVuSans-38" transform="translate(0 0.78125)"/>
       <use xlink:href="#DejaVuSans-30" transform="translate(63.623047 0.78125)"/>
       <use xlink:href="#DejaVuSans-30" transform="translate(127.246094 0.78125)"/>
      </g>
     </g>
    </g>
    <g id="text_5">
     <!-- Diploid N$_e$0 -->
     <g transform="translate(74.34 232.969375) scale(0.18 -0.18)">
      <defs>
       <path id="DejaVuSans-44" d="M 1259 4147 
L 1259 519 
L 2022 519 
Q 2988 519 3436 956 
Q 3884 1394 3884 2338 
Q 3884 3275 3436 3711 
Q 2988 4147 2022 4147 
L 1259 4147 
z
M 628 4666 
L 1925 4666 
Q 3281 4666 3915 4102 
Q 4550 3538 4550 2338 
Q 4550 1131 3912 565 
Q 3275 0 1925 0 
L 628 0 
L 628 4666 
z
" transform="scale(0.015625)"/>
       <path id="DejaVuSans-69" d="M 603 3500 
L 1178 3500 
L 1178 0 
L 603 0 
L 603 3500 
z
M 603 4863 
L 1178 4863 
L 1178 4134 
L 603 4134 
L 603 4863 
z
" transform="scale(0.015625)"/>
       <path id="DejaVuSans-70" d="M 1159 525 
L 1159 -1331 
L 581 -1331 
L 581 3500 
L 1159 3500 
L 1159 2969 
Q 1341 3281 1617 3432 
Q 1894 3584 2278 3584 
Q 2916 3584 3314 3078 
Q 3713 2572 3713 1747 
Q 3713 922 3314 415 
Q 2916 -91 2278 -91 
Q 1894 -91 1617 61 
Q 1341 213 1159 525 
z
M 3116 1747 
Q 3116 2381 2855 2742 
Q 2594 3103 2138 3103 
Q 1681 3103 1420 2742 
Q 1159 2381 1159 1747 
Q 1159 1113 1420 752 
Q 1681 391 2138 391 
Q 2594 391 2855 752 
Q 3116 1113 3116 1747 
z
" transform="scale(0.015625)"/>
       <path id="DejaVuSans-6c" d="M 603 4863 
L 1178 4863 
L 1178 0 
L 603 0 
L 603 4863 
z
" transform="scale(0.015625)"/>
       <path id="DejaVuSans-6f" d="M 1959 3097 
Q 1497 3097 1228 2736 
Q 959 2375 959 1747 
Q 959 1119 1226 758 
Q 1494 397 1959 397 
Q 2419 397 2687 759 
Q 2956 1122 2956 1747 
Q 2956 2369 2687 2733 
Q 2419 3097 1959 3097 
z
M 1959 3584 
Q 2709 3584 3137 3096 
Q 3566 2609 3566 1747 
Q 3566 888 3137 398 
Q 2709 -91 1959 -91 
Q 1206 -91 779 398 
Q 353 888 353 1747 
Q 353 2609 779 3096 
Q 1206 3584 1959 3584 
z
" transform="scale(0.015625)"/>
       <path id="DejaVuSans-64" d="M 2906 2969 
L 2906 4863 
L 3481 4863 
L 3481 0 
L 2906 0 
L 2906 525 
Q 2725 213 2448 61 
Q 2172 -91 1784 -91 
Q 1150 -91 751 415 
Q 353 922 353 1747 
Q 353 2572 751 3078 
Q 1150 3584 1784 3584 
Q 2172 3584 2448 3432 
Q 2725 3281 2906 2969 
z
M 947 1747 
Q 947 1113 1208 752 
Q 1469 391 1925 391 
Q 2381 391 2643 752 
Q 2906 1113 2906 1747 
Q 2906 2381 2643 2742 
Q 2381 3103 1925 3103 
Q 1469 3103 1208 2742 
Q 947 2381 947 1747 
z
" transform="scale(0.015625)"/>
       <path id="DejaVuSans-20" transform="scale(0.015625)"/>
       <path id="DejaVuSans-4e" d="M 628 4666 
L 1478 4666 
L 3547 763 
L 3547 4666 
L 4159 4666 
L 4159 0 
L 3309 0 
L 1241 3903 
L 1241 0 
L 628 0 
L 628 4666 
z
" transform="scale(0.015625)"/>
       <path id="DejaVuSans-Oblique-65" d="M 3078 2063 
Q 3088 2113 3092 2166 
Q 3097 2219 3097 2272 
Q 3097 2653 2873 2875 
Q 2650 3097 2266 3097 
Q 1838 3097 1509 2826 
Q 1181 2556 1013 2059 
L 3078 2063 
z
M 3578 1613 
L 903 1613 
Q 884 1494 878 1425 
Q 872 1356 872 1306 
Q 872 872 1139 634 
Q 1406 397 1894 397 
Q 2269 397 2603 481 
Q 2938 566 3225 728 
L 3116 159 
Q 2806 34 2476 -28 
Q 2147 -91 1806 -91 
Q 1078 -91 686 257 
Q 294 606 294 1247 
Q 294 1794 489 2264 
Q 684 2734 1063 3103 
Q 1306 3334 1642 3459 
Q 1978 3584 2356 3584 
Q 2950 3584 3301 3228 
Q 3653 2872 3653 2272 
Q 3653 2128 3634 1964 
Q 3616 1800 3578 1613 
z
" transform="scale(0.015625)"/>
      </defs>
      <use xlink:href="#DejaVuSans-44" transform="translate(0 0.015625)"/>
      <use xlink:href="#DejaVuSans-69" transform="translate(77.001953 0.015625)"/>
      <use xlink:href="#DejaVuSans-70" transform="translate(104.785156 0.015625)"/>
      <use xlink:href="#DejaVuSans-6c" transform="translate(168.261719 0.015625)"/>
      <use xlink:href="#DejaVuSans-6f" transform="translate(196.044922 0.015625)"/>
      <use xlink:href="#DejaVuSans-69" transform="translate(257.226562 0.015625)"/>
      <use xlink:href="#DejaVuSans-64" transform="translate(285.009766 0.015625)"/>
      <use xlink:href="#DejaVuSans-20" transform="translate(348.486328 0.015625)"/>
      <use xlink:href="#DejaVuSans-4e" transform="translate(380.273438 0.015625)"/>
      <use xlink:href="#DejaVuSans-Oblique-65" transform="translate(456.035156 -16.390625) scale(0.7)"/>
      <use xlink:href="#DejaVuSans-30" transform="translate(501.835938 0.015625)"/>
     </g>
    </g>
    <g id="text_6">
     <!-- $\times\mathdefault{10^{3}}\mathdefault{}$ -->
     <g transform="translate(188.56 225.887812) scale(0.1 -0.1)">
      <defs>
       <path id="DejaVuSans-d7" d="M 4488 3438 
L 3059 2003 
L 4488 575 
L 4116 197 
L 2681 1631 
L 1247 197 
L 878 575 
L 2303 2003 
L 878 3438 
L 1247 3816 
L 2681 2381 
L 4116 3816 
L 4488 3438 
z
" transform="scale(0.015625)"/>
       <path id="DejaVuSans-31" d="M 794 531 
L 1825 531 
L 1825 4091 
L 703 3866 
L 703 4441 
L 1819 4666 
L 2450 4666 
L 2450 531 
L 3481 531 
L 3481 0 
L 794 0 
L 794 531 
z
" transform="scale(0.015625)"/>
       <path id="DejaVuSans-33" d="M 2597 2516 
Q 3050 2419 3304 2112 
Q 3559 1806 3559 1356 
Q 3559 666 3084 287 
Q 2609 -91 1734 -91 
Q 1441 -91 1130 -33 
Q 819 25 488 141 
L 488 750 
Q 750 597 1062 519 
Q 1375 441 1716 441 
Q 2309 441 2620 675 
Q 2931 909 2931 1356 
Q 2931 1769 2642 2001 
Q 2353 2234 1838 2234 
L 1294 2234 
L 1294 2753 
L 1863 2753 
Q 2328 2753 2575 2939 
Q 2822 3125 2822 3475 
Q 2822 3834 2567 4026 
Q 2313 4219 1838 4219 
Q 1578 4219 1281 4162 
Q 984 4106 628 3988 
L 628 4550 
Q 988 4650 1302 4700 
Q 1616 4750 1894 4750 
Q 2613 4750 3031 4423 
Q 3450 4097 3450 3541 
Q 3450 3153 3228 2886 
Q 3006 2619 2597 2516 
z
" transform="scale(0.015625)"/>
      </defs>
      <use xlink:href="#DejaVuSans-d7" transform="translate(0 0.765625)"/>
      <use xlink:href="#DejaVuSans-31" transform="translate(83.789062 0.765625)"/>
      <use xlink:href="#DejaVuSans-30" transform="translate(147.412109 0.765625)"/>
      <use xlink:href="#DejaVuSans-33" transform="translate(211.992188 39.046875) scale(0.7)"/>
     </g>
    </g>
   </g>
   <g id="matplotlib.axis_2">
    <g id="ytick_1">
     <g id="line2d_5">
      <defs>
       <path id="mec1ca6b86f" d="M 0 0 
L -6 0 
" style="stroke: #000000; stroke-width: 2"/>
      </defs>
      <g>
       <use xlink:href="#mec1ca6b86f" x="36" y="164.52" style="stroke: #000000; stroke-width: 2"/>
      </g>
     </g>
     <g id="text_7">
      <!-- $\mathdefault{200}$ -->
      <g transform="translate(-0.24 169.838906) scale(0.14 -0.14)">
       <use xlink:href="#DejaVuSans-32" transform="translate(0 0.78125)"/>
       <use xlink:href="#DejaVuSans-30" transform="translate(63.623047 0.78125)"/>
       <use xlink:href="#DejaVuSans-30" transform="translate(127.246094 0.78125)"/>
      </g>
     </g>
    </g>
    <g id="ytick_2">
     <g id="line2d_6">
      <g>
       <use xlink:href="#mec1ca6b86f" x="36" y="127.56" style="stroke: #000000; stroke-width: 2"/>
      </g>
     </g>
     <g id="text_8">
      <!-- $\mathdefault{400}$ -->
      <g transform="translate(-0.24 132.878906) scale(0.14 -0.14)">
       <use xlink:href="#DejaVuSans-34" transform="translate(0 0.78125)"/>
       <use xlink:href="#DejaVuSans-30" transform="translate(63.623047 0.78125)"/>
       <use xlink:href="#DejaVuSans-30" transform="translate(127.246094 0.78125)"/>
      </g>
     </g>
    </g>
    <g id="ytick_3">
     <g id="line2d_7">
      <g>
       <use xlink:href="#mec1ca6b86f" x="36" y="90.6" style="stroke: #000000; stroke-width: 2"/>
      </g>
     </g>
     <g id="text_9">
      <!-- $\mathdefault{600}$ -->
      <g transform="translate(-0.24 95.918906) scale(0.14 -0.14)">
       <use xlink:href="#DejaVuSans-36" transform="translate(0 0.78125)"/>
       <use xlink:href="#DejaVuSans-30" transform="translate(63.623047 0.78125)"/>
       <use xlink:href="#DejaVuSans-30" transform="translate(127.246094 0.78125)"/>
      </g>
     </g>
    </g>
    <g id="ytick_4">
     <g id="line2d_8">
      <g>
       <use xlink:href="#mec1ca6b86f" x="36" y="53.64" style="stroke: #000000; stroke-width: 2"/>
      </g>
     </g>
     <g id="text_10">
      <!-- $\mathdefault{800}$ -->
      <g transform="translate(-0.24 58.958906) scale(0.14 -0.14)">
       <use xlink:href="#DejaVuSans-38" transform="translate(0 0.78125)"/>
       <use xlink:href="#DejaVuSans-30" transform="translate(63.623047 0.78125)"/>
       <use xlink:href="#DejaVuSans-30" transform="translate(127.246094 0.78125)"/>
      </g>
     </g>
    </g>
    <g id="text_11">
     <!-- Diploid N$_e$2 -->
     <g transform="translate(-8.02 160.02) rotate(-90) scale(0.18 -0.18)">
      <use xlink:href="#DejaVuSans-44" transform="translate(0 0.015625)"/>
      <use xlink:href="#DejaVuSans-69" transform="translate(77.001953 0.015625)"/>
      <use xlink:href="#DejaVuSans-70" transform="translate(104.785156 0.015625)"/>
      <use xlink:href="#DejaVuSans-6c" transform="translate(168.261719 0.015625)"/>
      <use xlink:href="#DejaVuSans-6f" transform="translate(196.044922 0.015625)"/>
      <use xlink:href="#DejaVuSans-69" transform="translate(257.226562 0.015625)"/>
      <use xlink:href="#DejaVuSans-64" transform="translate(285.009766 0.015625)"/>
      <use xlink:href="#DejaVuSans-20" transform="translate(348.486328 0.015625)"/>
      <use xlink:href="#DejaVuSans-4e" transform="translate(380.273438 0.015625)"/>
      <use xlink:href="#DejaVuSans-Oblique-65" transform="translate(456.035156 -16.390625) scale(0.7)"/>
      <use xlink:href="#DejaVuSans-32" transform="translate(501.835938 0.015625)"/>
     </g>
    </g>
    <g id="text_12">
     <!-- $\times\mathdefault{10^{3}}\mathdefault{}$ -->
     <g transform="translate(36 22.92) scale(0.1 -0.1)">
      <use xlink:href="#DejaVuSans-d7" transform="translate(0 0.765625)"/>
      <use xlink:href="#DejaVuSans-31" transform="translate(83.789062 0.765625)"/>
      <use xlink:href="#DejaVuSans-30" transform="translate(147.412109 0.765625)"/>
      <use xlink:href="#DejaVuSans-33" transform="translate(211.992188 39.046875) scale(0.7)"/>
     </g>
    </g>
   </g>
   <g id="patch_3">
    <path d="M 36 192.24 
L 36 25.92 
" style="fill: none; stroke: #000000; stroke-width: 0.8; stroke-linejoin: miter; stroke-linecap: square"/>
   </g>
   <g id="patch_4">
    <path d="M 214.56 192.24 
L 214.56 25.92 
" style="fill: none; stroke: #000000; stroke-width: 0.8; stroke-linejoin: miter; stroke-linecap: square"/>
   </g>
   <g id="patch_5">
    <path d="M 36 192.24 
L 214.56 192.24 
" style="fill: none; stroke: #000000; stroke-width: 0.8; stroke-linejoin: miter; stroke-linecap: square"/>
   </g>
   <g id="patch_6">
    <path d="M 36 25.92 
L 214.56 25.92 
" style="fill: none; stroke: #000000; stroke-width: 0.8; stroke-linejoin: miter; stroke-linecap: square"/>
   </g>
   <g id="text_13">
    <!-- Ne0Ne2-MSSMC-RGT-P2-S4 -->
    <g transform="translate(16.485 10.92) scale(0.16 -0.16)">
     <defs>
      <path id="DejaVuSans-65" d="M 3597 1894 
L 3597 1613 
L 953 1613 
Q 991 1019 1311 708 
Q 1631 397 2203 397 
Q 2534 397 2845 478 
Q 3156 559 3463 722 
L 3463 178 
Q 3153 47 2828 -22 
Q 2503 -91 2169 -91 
Q 1331 -91 842 396 
Q 353 884 353 1716 
Q 353 2575 817 3079 
Q 1281 3584 2069 3584 
Q 2775 3584 3186 3129 
Q 3597 2675 3597 1894 
z
M 3022 2063 
Q 3016 2534 2758 2815 
Q 2500 3097 2075 3097 
Q 1594 3097 1305 2825 
Q 1016 2553 972 2059 
L 3022 2063 
z
" transform="scale(0.015625)"/>
      <path id="DejaVuSans-2d" d="M 313 2009 
L 1997 2009 
L 1997 1497 
L 313 1497 
L 313 2009 
z
" transform="scale(0.015625)"/>
      <path id="DejaVuSans-4d" d="M 628 4666 
L 1569 4666 
L 2759 1491 
L 3956 4666 
L 4897 4666 
L 4897 0 
L 4281 0 
L 4281 4097 
L 3078 897 
L 2444 897 
L 1241 4097 
L 1241 0 
L 628 0 
L 628 4666 
z
" transform="scale(0.015625)"/>
      <path id="DejaVuSans-53" d="M 3425 4513 
L 3425 3897 
Q 3066 4069 2747 4153 
Q 2428 4238 2131 4238 
Q 1616 4238 1336 4038 
Q 1056 3838 1056 3469 
Q 1056 3159 1242 3001 
Q 1428 2844 1947 2747 
L 2328 2669 
Q 3034 2534 3370 2195 
Q 3706 1856 3706 1288 
Q 3706 609 3251 259 
Q 2797 -91 1919 -91 
Q 1588 -91 1214 -16 
Q 841 59 441 206 
L 441 856 
Q 825 641 1194 531 
Q 1563 422 1919 422 
Q 2459 422 2753 634 
Q 3047 847 3047 1241 
Q 3047 1584 2836 1778 
Q 2625 1972 2144 2069 
L 1759 2144 
Q 1053 2284 737 2584 
Q 422 2884 422 3419 
Q 422 4038 858 4394 
Q 1294 4750 2059 4750 
Q 2388 4750 2728 4690 
Q 3069 4631 3425 4513 
z
" transform="scale(0.015625)"/>
      <path id="DejaVuSans-43" d="M 4122 4306 
L 4122 3641 
Q 3803 3938 3442 4084 
Q 3081 4231 2675 4231 
Q 1875 4231 1450 3742 
Q 1025 3253 1025 2328 
Q 1025 1406 1450 917 
Q 1875 428 2675 428 
Q 3081 428 3442 575 
Q 3803 722 4122 1019 
L 4122 359 
Q 3791 134 3420 21 
Q 3050 -91 2638 -91 
Q 1578 -91 968 557 
Q 359 1206 359 2328 
Q 359 3453 968 4101 
Q 1578 4750 2638 4750 
Q 3056 4750 3426 4639 
Q 3797 4528 4122 4306 
z
" transform="scale(0.015625)"/>
      <path id="DejaVuSans-52" d="M 2841 2188 
Q 3044 2119 3236 1894 
Q 3428 1669 3622 1275 
L 4263 0 
L 3584 0 
L 2988 1197 
Q 2756 1666 2539 1819 
Q 2322 1972 1947 1972 
L 1259 1972 
L 1259 0 
L 628 0 
L 628 4666 
L 2053 4666 
Q 2853 4666 3247 4331 
Q 3641 3997 3641 3322 
Q 3641 2881 3436 2590 
Q 3231 2300 2841 2188 
z
M 1259 4147 
L 1259 2491 
L 2053 2491 
Q 2509 2491 2742 2702 
Q 2975 2913 2975 3322 
Q 2975 3731 2742 3939 
Q 2509 4147 2053 4147 
L 1259 4147 
z
" transform="scale(0.015625)"/>
      <path id="DejaVuSans-47" d="M 3809 666 
L 3809 1919 
L 2778 1919 
L 2778 2438 
L 4434 2438 
L 4434 434 
Q 4069 175 3628 42 
Q 3188 -91 2688 -91 
Q 1594 -91 976 548 
Q 359 1188 359 2328 
Q 359 3472 976 4111 
Q 1594 4750 2688 4750 
Q 3144 4750 3555 4637 
Q 3966 4525 4313 4306 
L 4313 3634 
Q 3963 3931 3569 4081 
Q 3175 4231 2741 4231 
Q 1884 4231 1454 3753 
Q 1025 3275 1025 2328 
Q 1025 1384 1454 906 
Q 1884 428 2741 428 
Q 3075 428 3337 486 
Q 3600 544 3809 666 
z
" transform="scale(0.015625)"/>
      <path id="DejaVuSans-54" d="M -19 4666 
L 3928 4666 
L 3928 4134 
L 2272 4134 
L 2272 0 
L 1638 0 
L 1638 4134 
L -19 4134 
L -19 4666 
z
" transform="scale(0.015625)"/>
      <path id="DejaVuSans-50" d="M 1259 4147 
L 1259 2394 
L 2053 2394 
Q 2494 2394 2734 2622 
Q 2975 2850 2975 3272 
Q 2975 3691 2734 3919 
Q 2494 4147 2053 4147 
L 1259 4147 
z
M 628 4666 
L 2053 4666 
Q 2838 4666 3239 4311 
Q 3641 3956 3641 3272 
Q 3641 2581 3239 2228 
Q 2838 1875 2053 1875 
L 1259 1875 
L 1259 0 
L 628 0 
L 628 4666 
z
" transform="scale(0.015625)"/>
     </defs>
     <use xlink:href="#DejaVuSans-4e"/>
     <use xlink:href="#DejaVuSans-65" x="74.804688"/>
     <use xlink:href="#DejaVuSans-30" x="136.328125"/>
     <use xlink:href="#DejaVuSans-4e" x="199.951172"/>
     <use xlink:href="#DejaVuSans-65" x="274.755859"/>
     <use xlink:href="#DejaVuSans-32" x="336.279297"/>
     <use xlink:href="#DejaVuSans-2d" x="399.902344"/>
     <use xlink:href="#DejaVuSans-4d" x="435.986328"/>
     <use xlink:href="#DejaVuSans-53" x="522.265625"/>
     <use xlink:href="#DejaVuSans-53" x="585.742188"/>
     <use xlink:href="#DejaVuSans-4d" x="649.21875"/>
     <use xlink:href="#DejaVuSans-43" x="735.498047"/>
     <use xlink:href="#DejaVuSans-2d" x="805.322266"/>
     <use xlink:href="#DejaVuSans-52" x="841.40625"/>
     <use xlink:href="#DejaVuSans-47" x="910.888672"/>
     <use xlink:href="#DejaVuSans-54" x="984.753906"/>
     <use xlink:href="#DejaVuSans-2d" x="1036.712891"/>
     <use xlink:href="#DejaVuSans-50" x="1072.796875"/>
     <use xlink:href="#DejaVuSans-32" x="1133.099609"/>
     <use xlink:href="#DejaVuSans-2d" x="1196.722656"/>
     <use xlink:href="#DejaVuSans-53" x="1232.806641"/>
     <use xlink:href="#DejaVuSans-34" x="1296.283203"/>
    </g>
   </g>
  </g>
  <g id="axes_2">
   <g id="patch_7">
    <path d="M 225.72 192.24 
L 234.036 192.24 
L 234.036 25.92 
L 225.72 25.92 
z
" style="fill: #ffffff"/>
   </g>
   <g id="QuadMesh_1">
    <path d="M 225.72 192.24 
L 234.036 192.24 
L 234.036 181.152 
L 225.72 181.152 
L 225.72 192.24 
" clip-path="url(#p6d9a4eff4a)" style="fill: #eae51a"/>
    <path d="M 225.72 181.152 
L 234.036 181.152 
L 234.036 170.064 
L 225.72 170.064 
L 225.72 181.152 
" clip-path="url(#p6d9a4eff4a)" style="fill: #bddf26"/>
    <path d="M 225.72 170.064 
L 234.036 170.064 
L 234.036 158.976 
L 225.72 158.976 
L 225.72 170.064 
" clip-path="url(#p6d9a4eff4a)" style="fill: #90d743"/>
    <path d="M 225.72 158.976 
L 234.036 158.976 
L 234.036 147.888 
L 225.72 147.888 
L 225.72 158.976 
" clip-path="url(#p6d9a4eff4a)" style="fill: #67cc5c"/>
    <path d="M 225.72 147.888 
L 234.036 147.888 
L 234.036 136.8 
L 225.72 136.8 
L 225.72 147.888 
" clip-path="url(#p6d9a4eff4a)" style="fill: #44bf70"/>
    <path d="M 225.72 136.8 
L 234.036 136.8 
L 234.036 125.712 
L 225.72 125.712 
L 225.72 136.8 
" clip-path="url(#p6d9a4eff4a)" style="fill: #2ab07f"/>
    <path d="M 225.72 125.712 
L 234.036 125.712 
L 234.036 114.624 
L 225.72 114.624 
L 225.72 125.712 
" clip-path="url(#p6d9a4eff4a)" style="fill: #1fa188"/>
    <path d="M 225.72 114.624 
L 234.036 114.624 
L 234.036 103.536 
L 225.72 103.536 
L 225.72 114.624 
" clip-path="url(#p6d9a4eff4a)" style="fill: #21908d"/>
    <path d="M 225.72 103.536 
L 234.036 103.536 
L 234.036 92.448 
L 225.72 92.448 
L 225.72 103.536 
" clip-path="url(#p6d9a4eff4a)" style="fill: #27808e"/>
    <path d="M 225.72 92.448 
L 234.036 92.448 
L 234.036 81.36 
L 225.72 81.36 
L 225.72 92.448 
" clip-path="url(#p6d9a4eff4a)" style="fill: #2d708e"/>
    <path d="M 225.72 81.36 
L 234.036 81.36 
L 234.036 70.272 
L 225.72 70.272 
L 225.72 81.36 
" clip-path="url(#p6d9a4eff4a)" style="fill: #355f8d"/>
    <path d="M 225.72 70.272 
L 234.036 70.272 
L 234.036 59.184 
L 225.72 59.184 
L 225.72 70.272 
" clip-path="url(#p6d9a4eff4a)" style="fill: #3d4d8a"/>
    <path d="M 225.72 59.184 
L 234.036 59.184 
L 234.036 48.096 
L 225.72 48.096 
L 225.72 59.184 
" clip-path="url(#p6d9a4eff4a)" style="fill: #443983"/>
    <path d="M 225.72 48.096 
L 234.036 48.096 
L 234.036 37.008 
L 225.72 37.008 
L 225.72 48.096 
" clip-path="url(#p6d9a4eff4a)" style="fill: #482475"/>
    <path d="M 225.72 37.008 
L 234.036 37.008 
L 234.036 25.92 
L 225.72 25.92 
L 225.72 37.008 
" clip-path="url(#p6d9a4eff4a)" style="fill: #470d60"/>
   </g>
   <g id="matplotlib.axis_3"/>
   <g id="matplotlib.axis_4">
    <g id="ytick_5">
     <g id="line2d_9">
      <defs>
       <path id="m75b0f1edd6" d="M 0 0 
L 3.5 0 
" style="stroke: #000000; stroke-width: 0.8"/>
      </defs>
      <g>
       <use xlink:href="#m75b0f1edd6" x="234.036" y="192.24" style="stroke: #000000; stroke-width: 0.8"/>
      </g>
     </g>
     <g id="text_14">
      <!-- $\mathdefault{0.0}$ -->
      <g transform="translate(241.036 196.039219) scale(0.1 -0.1)">
       <defs>
        <path id="DejaVuSans-2e" d="M 684 794 
L 1344 794 
L 1344 0 
L 684 0 
L 684 794 
z
" transform="scale(0.015625)"/>
       </defs>
       <use xlink:href="#DejaVuSans-30" transform="translate(0 0.78125)"/>
       <use xlink:href="#DejaVuSans-2e" transform="translate(63.623047 0.78125)"/>
       <use xlink:href="#DejaVuSans-30" transform="translate(95.410156 0.78125)"/>
      </g>
     </g>
    </g>
    <g id="ytick_6">
     <g id="line2d_10">
      <g>
       <use xlink:href="#m75b0f1edd6" x="234.036" y="170.064" style="stroke: #000000; stroke-width: 0.8"/>
      </g>
     </g>
     <g id="text_15">
      <!-- $\mathdefault{0.2}$ -->
      <g transform="translate(241.036 173.863219) scale(0.1 -0.1)">
       <use xlink:href="#DejaVuSans-30" transform="translate(0 0.78125)"/>
       <use xlink:href="#DejaVuSans-2e" transform="translate(63.623047 0.78125)"/>
       <use xlink:href="#DejaVuSans-32" transform="translate(89.910156 0.78125)"/>
      </g>
     </g>
    </g>
    <g id="ytick_7">
     <g id="line2d_11">
      <g>
       <use xlink:href="#m75b0f1edd6" x="234.036" y="147.888" style="stroke: #000000; stroke-width: 0.8"/>
      </g>
     </g>
     <g id="text_16">
      <!-- $\mathdefault{0.4}$ -->
      <g transform="translate(241.036 151.687219) scale(0.1 -0.1)">
       <use xlink:href="#DejaVuSans-30" transform="translate(0 0.78125)"/>
       <use xlink:href="#DejaVuSans-2e" transform="translate(63.623047 0.78125)"/>
       <use xlink:href="#DejaVuSans-34" transform="translate(95.410156 0.78125)"/>
      </g>
     </g>
    </g>
    <g id="ytick_8">
     <g id="line2d_12">
      <g>
       <use xlink:href="#m75b0f1edd6" x="234.036" y="125.712" style="stroke: #000000; stroke-width: 0.8"/>
      </g>
     </g>
     <g id="text_17">
      <!-- $\mathdefault{0.6}$ -->
      <g transform="translate(241.036 129.511219) scale(0.1 -0.1)">
       <use xlink:href="#DejaVuSans-30" transform="translate(0 0.78125)"/>
       <use xlink:href="#DejaVuSans-2e" transform="translate(63.623047 0.78125)"/>
       <use xlink:href="#DejaVuSans-36" transform="translate(95.410156 0.78125)"/>
      </g>
     </g>
    </g>
    <g id="ytick_9">
     <g id="line2d_13">
      <g>
       <use xlink:href="#m75b0f1edd6" x="234.036" y="103.536" style="stroke: #000000; stroke-width: 0.8"/>
      </g>
     </g>
     <g id="text_18">
      <!-- $\mathdefault{0.8}$ -->
      <g transform="translate(241.036 107.335219) scale(0.1 -0.1)">
       <use xlink:href="#DejaVuSans-30" transform="translate(0 0.78125)"/>
       <use xlink:href="#DejaVuSans-2e" transform="translate(63.623047 0.78125)"/>
       <use xlink:href="#DejaVuSans-38" transform="translate(92.785156 0.78125)"/>
      </g>
     </g>
    </g>
    <g id="ytick_10">
     <g id="line2d_14">
      <g>
       <use xlink:href="#m75b0f1edd6" x="234.036" y="81.36" style="stroke: #000000; stroke-width: 0.8"/>
      </g>
     </g>
     <g id="text_19">
      <!-- $\mathdefault{1.0}$ -->
      <g transform="translate(241.036 85.159219) scale(0.1 -0.1)">
       <use xlink:href="#DejaVuSans-31" transform="translate(0 0.78125)"/>
       <use xlink:href="#DejaVuSans-2e" transform="translate(63.623047 0.78125)"/>
       <use xlink:href="#DejaVuSans-30" transform="translate(95.410156 0.78125)"/>
      </g>
     </g>
    </g>
    <g id="ytick_11">
     <g id="line2d_15">
      <g>
       <use xlink:href="#m75b0f1edd6" x="234.036" y="59.184" style="stroke: #000000; stroke-width: 0.8"/>
      </g>
     </g>
     <g id="text_20">
      <!-- $\mathdefault{1.2}$ -->
      <g transform="translate(241.036 62.983219) scale(0.1 -0.1)">
       <use xlink:href="#DejaVuSans-31" transform="translate(0 0.78125)"/>
       <use xlink:href="#DejaVuSans-2e" transform="translate(63.623047 0.78125)"/>
       <use xlink:href="#DejaVuSans-32" transform="translate(89.910156 0.78125)"/>
      </g>
     </g>
    </g>
    <g id="ytick_12">
     <g id="line2d_16">
      <g>
       <use xlink:href="#m75b0f1edd6" x="234.036" y="37.008" style="stroke: #000000; stroke-width: 0.8"/>
      </g>
     </g>
     <g id="text_21">
      <!-- $\mathdefault{1.4}$ -->
      <g transform="translate(241.036 40.807219) scale(0.1 -0.1)">
       <use xlink:href="#DejaVuSans-31" transform="translate(0 0.09375)"/>
       <use xlink:href="#DejaVuSans-2e" transform="translate(63.623047 0.09375)"/>
       <use xlink:href="#DejaVuSans-34" transform="translate(95.410156 0.09375)"/>
      </g>
     </g>
    </g>
    <g id="text_22">
     <!-- $\Delta$ log likelihood -->
     <g transform="translate(270.156 154.98) rotate(-90) scale(0.12 -0.12)">
      <defs>
       <path id="DejaVuSans-394" d="M 2188 4044 
L 906 525 
L 3472 525 
L 2188 4044 
z
M 50 0 
L 1831 4666 
L 2547 4666 
L 4325 0 
L 50 0 
z
" transform="scale(0.015625)"/>
       <path id="DejaVuSans-67" d="M 2906 1791 
Q 2906 2416 2648 2759 
Q 2391 3103 1925 3103 
Q 1463 3103 1205 2759 
Q 947 2416 947 1791 
Q 947 1169 1205 825 
Q 1463 481 1925 481 
Q 2391 481 2648 825 
Q 2906 1169 2906 1791 
z
M 3481 434 
Q 3481 -459 3084 -895 
Q 2688 -1331 1869 -1331 
Q 1566 -1331 1297 -1286 
Q 1028 -1241 775 -1147 
L 775 -588 
Q 1028 -725 1275 -790 
Q 1522 -856 1778 -856 
Q 2344 -856 2625 -561 
Q 2906 -266 2906 331 
L 2906 616 
Q 2728 306 2450 153 
Q 2172 0 1784 0 
Q 1141 0 747 490 
Q 353 981 353 1791 
Q 353 2603 747 3093 
Q 1141 3584 1784 3584 
Q 2172 3584 2450 3431 
Q 2728 3278 2906 2969 
L 2906 3500 
L 3481 3500 
L 3481 434 
z
" transform="scale(0.015625)"/>
       <path id="DejaVuSans-6b" d="M 581 4863 
L 1159 4863 
L 1159 1991 
L 2875 3500 
L 3609 3500 
L 1753 1863 
L 3688 0 
L 2938 0 
L 1159 1709 
L 1159 0 
L 581 0 
L 581 4863 
z
" transform="scale(0.015625)"/>
       <path id="DejaVuSans-68" d="M 3513 2113 
L 3513 0 
L 2938 0 
L 2938 2094 
Q 2938 2591 2744 2837 
Q 2550 3084 2163 3084 
Q 1697 3084 1428 2787 
Q 1159 2491 1159 1978 
L 1159 0 
L 581 0 
L 581 4863 
L 1159 4863 
L 1159 2956 
Q 1366 3272 1645 3428 
Q 1925 3584 2291 3584 
Q 2894 3584 3203 3211 
Q 3513 2838 3513 2113 
z
" transform="scale(0.015625)"/>
      </defs>
      <use xlink:href="#DejaVuSans-394" transform="translate(0 0.015625)"/>
      <use xlink:href="#DejaVuSans-20" transform="translate(68.408203 0.015625)"/>
      <use xlink:href="#DejaVuSans-6c" transform="translate(100.195312 0.015625)"/>
      <use xlink:href="#DejaVuSans-6f" transform="translate(127.978516 0.015625)"/>
      <use xlink:href="#DejaVuSans-67" transform="translate(189.160156 0.015625)"/>
      <use xlink:href="#DejaVuSans-20" transform="translate(252.636719 0.015625)"/>
      <use xlink:href="#DejaVuSans-6c" transform="translate(284.423828 0.015625)"/>
      <use xlink:href="#DejaVuSans-69" transform="translate(312.207031 0.015625)"/>
      <use xlink:href="#DejaVuSans-6b" transform="translate(339.990234 0.015625)"/>
      <use xlink:href="#DejaVuSans-65" transform="translate(397.900391 0.015625)"/>
      <use xlink:href="#DejaVuSans-6c" transform="translate(459.423828 0.015625)"/>
      <use xlink:href="#DejaVuSans-69" transform="translate(487.207031 0.015625)"/>
      <use xlink:href="#DejaVuSans-68" transform="translate(514.990234 0.015625)"/>
      <use xlink:href="#DejaVuSans-6f" transform="translate(578.369141 0.015625)"/>
      <use xlink:href="#DejaVuSans-6f" transform="translate(639.550781 0.015625)"/>
      <use xlink:href="#DejaVuSans-64" transform="translate(700.732422 0.015625)"/>
     </g>
    </g>
    <g id="text_23">
     <!-- $\times\mathdefault{10^{1}}\mathdefault{}$ -->
     <g transform="translate(202.236 22.92) scale(0.1 -0.1)">
      <defs>
       <path id="DejaVuSans-2212" d="M 678 2272 
L 4684 2272 
L 4684 1741 
L 678 1741 
L 678 2272 
z
" transform="scale(0.015625)"/>
      </defs>
      <use xlink:href="#DejaVuSans-d7" transform="translate(0 0.684375)"/>
      <use xlink:href="#DejaVuSans-31" transform="translate(83.789062 0.684375)"/>
      <use xlink:href="#DejaVuSans-30" transform="translate(147.412109 0.684375)"/>
      <use xlink:href="#DejaVuSans-2212" transform="translate(211.992188 38.965625) scale(0.7)"/>
      <use xlink:href="#DejaVuSans-31" transform="translate(270.644531 38.965625) scale(0.7)"/>
     </g>
    </g>
   </g>
   <g id="LineCollection_1"/>
   <g id="patch_8">
    <path d="M 225.72 192.24 
L 229.878 192.24 
L 234.036 192.24 
L 234.036 25.92 
L 229.878 25.92 
L 225.72 25.92 
L 225.72 192.24 
z
" style="fill: none; stroke: #000000; stroke-width: 0.8; stroke-linejoin: miter; stroke-linecap: square"/>
   </g>
  </g>
 </g>
 <defs>
  <clipPath id="pe90eaf848a">
   <rect x="36" y="25.92" width="178.56" height="166.32"/>
  </clipPath>
  <clipPath id="p6d9a4eff4a">
   <rect x="225.72" y="25.92" width="8.316" height="166.32"/>
  </clipPath>
 </defs>
</svg>
