<?xml version="1.0" encoding="utf-8" standalone="no"?>
<!DOCTYPE svg PUBLIC "-//W3C//DTD SVG 1.1//EN"
  "http://www.w3.org/Graphics/SVG/1.1/DTD/svg11.dtd">
<svg xmlns:xlink="http://www.w3.org/1999/xlink" width="288pt" height="216pt" viewBox="0 0 288 216" xmlns="http://www.w3.org/2000/svg" version="1.1">
 <metadata>
  <rdf:RDF xmlns:dc="http://purl.org/dc/elements/1.1/" xmlns:cc="http://creativecommons.org/ns#" xmlns:rdf="http://www.w3.org/1999/02/22-rdf-syntax-ns#">
   <cc:Work>
    <dc:type rdf:resource="http://purl.org/dc/dcmitype/StillImage"/>
    <dc:date>2024-12-12T06:19:08.805355</dc:date>
    <dc:format>image/svg+xml</dc:format>
    <dc:creator>
     <cc:Agent>
      <dc:title>Matplotlib v3.8.4, https://matplotlib.org/</dc:title>
     </cc:Agent>
    </dc:creator>
   </cc:Work>
  </rdf:RDF>
 </metadata>
 <defs>
  <style type="text/css">*{stroke-linejoin: round; stroke-linecap: butt}</style>
 </defs>
 <g id="figure_1">
  <g id="patch_1">
   <path d="M 0 216 
L 288 216 
L 288 0 
L 0 0 
z
" style="fill: #ffffff"/>
  </g>
  <g id="axes_1">
   <g id="patch_2">
    <path d="M 36 192.24 
L 214.56 192.24 
L 214.56 25.92 
L 36 25.92 
z
" style="fill: #ffffff"/>
   </g>
   <g id="QuadContourSet_1">
    <path d="M 64.629784 147.888 
L 62.407139 142.344 
L 60.991497 136.8 
L 60.29846 131.256 
L 60.32054 125.712 
L 61.12933 120.168 
L 62.900915 114.624 
L 65.76 109.420734 
L 68.05191 114.624 
L 70.727501 120.168 
L 71.712 122.25045 
L 72.397072 125.712 
L 73.264955 131.256 
L 73.762352 136.8 
L 73.60432 142.344 
L 72.295942 147.888 
L 71.712 148.947962 
L 65.76 149.741491 
z
" clip-path="url(#p1649ab080d)" style="fill: #eae51a"/>
    <path d="M 59.101413 142.344 
L 58.488286 136.8 
L 58.17639 131.256 
L 58.111886 125.712 
L 58.25771 120.168 
L 58.588091 114.624 
L 59.085123 109.08 
L 59.736563 103.536 
L 59.808 103.023242 
L 64.699227 97.992 
L 65.76 97.209199 
L 66.093873 97.992 
L 68.555745 103.536 
L 71.339119 109.08 
L 71.712 109.80454 
L 72.90737 114.624 
L 74.255016 120.168 
L 75.529528 125.712 
L 76.637226 131.256 
L 77.419596 136.8 
L 77.60469 142.344 
L 76.715714 147.888 
L 73.891527 153.432 
L 71.712 155.486833 
L 65.76 155.324689 
L 64.049343 153.432 
L 60.527787 147.888 
L 59.808 146.251568 
z
M 65.76 149.741491 
L 71.712 148.947962 
L 72.295942 147.888 
L 73.60432 142.344 
L 73.762352 136.8 
L 73.264955 131.256 
L 72.397072 125.712 
L 71.712 122.25045 
L 70.727501 120.168 
L 68.05191 114.624 
L 65.76 109.420734 
L 62.900915 114.624 
L 61.12933 120.168 
L 60.32054 125.712 
L 60.29846 131.256 
L 60.991497 136.8 
L 62.407139 142.344 
L 64.629784 147.888 
z
" clip-path="url(#p1649ab080d)" style="fill: #bddf26"/>
    <path d="M 58.457109 147.888 
L 57.415059 142.344 
L 56.750522 136.8 
L 56.383802 131.256 
L 56.261042 125.712 
L 56.345121 120.168 
L 56.610175 114.624 
L 57.038171 109.08 
L 57.61671 103.536 
L 58.337585 97.992 
L 59.195813 92.448 
L 59.808 88.982486 
L 64.853135 86.904 
L 65.76 86.615227 
L 65.874656 86.904 
L 68.169969 92.448 
L 70.749705 97.992 
L 71.712 99.93177 
L 72.659356 103.536 
L 74.142485 109.08 
L 75.660047 114.624 
L 77.183305 120.168 
L 77.664 122.053196 
L 78.335488 125.712 
L 79.205239 131.256 
L 79.846295 136.8 
L 80.105513 142.344 
L 79.736214 147.888 
L 78.33168 153.432 
L 77.664 154.683559 
L 73.118499 158.976 
L 71.712 159.696998 
L 65.76 159.323661 
L 65.304473 158.976 
L 60.259608 153.432 
L 59.808 152.731924 
z
M 59.808 146.251568 
L 60.527787 147.888 
L 64.049343 153.432 
L 65.76 155.324689 
L 71.712 155.486833 
L 73.891527 153.432 
L 76.715714 147.888 
L 77.60469 142.344 
L 77.419596 136.8 
L 76.637226 131.256 
L 75.529528 125.712 
L 74.255016 120.168 
L 72.90737 114.624 
L 71.712 109.80454 
L 71.339119 109.08 
L 68.555745 103.536 
L 66.093873 97.992 
L 65.76 97.209199 
L 64.699227 97.992 
L 59.808 103.023242 
L 59.736563 103.536 
L 59.085123 109.08 
L 58.588091 114.624 
L 58.25771 120.168 
L 58.111886 125.712 
L 58.17639 131.256 
L 58.488286 136.8 
L 59.101413 142.344 
z
" clip-path="url(#p1649ab080d)" style="fill: #90d743"/>
    <path d="M 58.404011 153.432 
L 56.818728 147.888 
L 55.728706 142.344 
L 55.012757 136.8 
L 54.591213 131.256 
L 54.410198 125.712 
L 54.432533 120.168 
L 54.632259 114.624 
L 54.991219 109.08 
L 55.496857 103.536 
L 56.140779 97.992 
L 56.917783 92.448 
L 57.825212 86.904 
L 58.862514 81.36 
L 59.808 76.841529 
L 65.76 76.785512 
L 67.504783 81.36 
L 69.832174 86.904 
L 71.712 90.978551 
L 72.096553 92.448 
L 73.575674 97.992 
L 75.126192 103.536 
L 76.742726 109.08 
L 77.664 112.216278 
L 78.1878 114.624 
L 79.345323 120.168 
L 80.443144 125.712 
L 81.421178 131.256 
L 82.18487 136.8 
L 82.58377 142.344 
L 82.374482 147.888 
L 81.154295 153.432 
L 78.236986 158.976 
L 77.664 159.560802 
L 71.712 162.569149 
L 65.76 162.014756 
L 61.778426 158.976 
L 59.808 156.824026 
z
M 59.808 152.731924 
L 60.259608 153.432 
L 65.304473 158.976 
L 65.76 159.323661 
L 71.712 159.696998 
L 73.118499 158.976 
L 77.664 154.683559 
L 78.33168 153.432 
L 79.736214 147.888 
L 80.105513 142.344 
L 79.846295 136.8 
L 79.205239 131.256 
L 78.335488 125.712 
L 77.664 122.053196 
L 77.183305 120.168 
L 75.660047 114.624 
L 74.142485 109.08 
L 72.659356 103.536 
L 71.712 99.93177 
L 70.749705 97.992 
L 68.169969 92.448 
L 65.874656 86.904 
L 65.76 86.615227 
L 64.853135 86.904 
L 59.808 88.982486 
L 59.195813 92.448 
L 58.337585 97.992 
L 57.61671 103.536 
L 57.038171 109.08 
L 56.610175 114.624 
L 56.345121 120.168 
L 56.261042 125.712 
L 56.383802 131.256 
L 56.750522 136.8 
L 57.415059 142.344 
L 58.457109 147.888 
z
" clip-path="url(#p1649ab080d)" style="fill: #67cc5c"/>
    <path d="M 53.562403 136.8 
L 53.331439 131.256 
L 53.224908 125.712 
L 53.218445 120.168 
L 53.294156 114.624 
L 53.438586 109.08 
L 53.641406 103.536 
L 53.856 98.82663 
L 53.943973 97.992 
L 54.639753 92.448 
L 55.461436 86.904 
L 56.408184 81.36 
L 57.48094 75.816 
L 58.682239 70.272 
L 59.808 65.564441 
L 65.76 67.350997 
L 66.785211 70.272 
L 68.875858 75.816 
L 71.19542 81.36 
L 71.712 82.526966 
L 72.841621 86.904 
L 74.341404 92.448 
L 75.9249 97.992 
L 77.593028 103.536 
L 77.664 103.772489 
L 78.857778 109.08 
L 80.113544 114.624 
L 81.356849 120.168 
L 82.550799 125.712 
L 83.616 131.153402 
L 83.632837 131.256 
L 84.331699 136.8 
L 84.742665 142.344 
L 84.689549 147.888 
L 83.889194 153.432 
L 83.616 154.220049 
L 81.273108 158.976 
L 77.664 162.659537 
L 73.784618 164.52 
L 71.712 165.095908 
L 65.76 164.63914 
L 65.53187 164.52 
L 59.808 160.101086 
L 59.122777 158.976 
L 56.810079 153.432 
L 55.180347 147.888 
L 54.042353 142.344 
L 53.856 140.966793 
z
M 59.808 156.824026 
L 61.778426 158.976 
L 65.76 162.014756 
L 71.712 162.569149 
L 77.664 159.560802 
L 78.236986 158.976 
L 81.154295 153.432 
L 82.374482 147.888 
L 82.58377 142.344 
L 82.18487 136.8 
L 81.421178 131.256 
L 80.443144 125.712 
L 79.345323 120.168 
L 78.1878 114.624 
L 77.664 112.216278 
L 76.742726 109.08 
L 75.126192 103.536 
L 73.575674 97.992 
L 72.096553 92.448 
L 71.712 90.978551 
L 69.832174 86.904 
L 67.504783 81.36 
L 65.76 76.785512 
L 59.808 76.841529 
L 58.862514 81.36 
L 57.825212 86.904 
L 56.917783 92.448 
L 56.140779 97.992 
L 55.496857 103.536 
L 54.991219 109.08 
L 54.632259 114.624 
L 54.432533 120.168 
L 54.410198 125.712 
L 54.591213 131.256 
L 55.012757 136.8 
L 55.728706 142.344 
L 56.818728 147.888 
L 58.404011 153.432 
z
" clip-path="url(#p1649ab080d)" style="fill: #44bf70"/>
    <path d="M 53.691705 147.888 
L 53.084456 142.344 
L 52.684269 136.8 
L 52.442142 131.256 
L 52.324081 125.712 
L 52.305774 120.168 
L 52.369367 114.624 
L 52.501441 109.08 
L 52.691695 103.536 
L 52.932082 97.992 
L 53.216202 92.448 
L 53.538894 86.904 
L 53.856 81.972826 
L 53.953854 81.36 
L 54.930923 75.816 
L 56.031038 70.272 
L 57.257812 64.728 
L 58.616252 59.184 
L 59.808 54.73259 
L 65.76 58.134097 
L 66.099022 59.184 
L 67.982486 64.728 
L 70.051387 70.272 
L 71.712 74.360657 
L 72.072595 75.816 
L 73.490548 81.36 
L 74.993284 86.904 
L 76.586255 92.448 
L 77.664 96.045756 
L 78.109885 97.992 
L 79.392329 103.536 
L 80.7066 109.08 
L 82.039289 114.624 
L 83.368376 120.168 
L 83.616 121.272863 
L 84.455436 125.712 
L 85.399746 131.256 
L 86.176123 136.8 
L 86.673588 142.344 
L 86.717334 147.888 
L 86.025793 153.432 
L 84.131825 158.976 
L 83.616 159.747437 
L 78.976486 164.52 
L 77.664 165.271133 
L 71.712 166.891301 
L 65.76 166.364262 
L 62.228599 164.52 
L 59.808 162.651261 
L 57.569619 158.976 
L 55.216148 153.432 
L 53.856 148.904876 
z
M 53.856 140.966793 
L 54.042353 142.344 
L 55.180347 147.888 
L 56.810079 153.432 
L 59.122777 158.976 
L 59.808 160.101086 
L 65.53187 164.52 
L 65.76 164.63914 
L 71.712 165.095908 
L 73.784618 164.52 
L 77.664 162.659537 
L 81.273108 158.976 
L 83.616 154.220049 
L 83.889194 153.432 
L 84.689549 147.888 
L 84.742665 142.344 
L 84.331699 136.8 
L 83.632837 131.256 
L 83.616 131.153402 
L 82.550799 125.712 
L 81.356849 120.168 
L 80.113544 114.624 
L 78.857778 109.08 
L 77.664 103.772489 
L 77.593028 103.536 
L 75.9249 97.992 
L 74.341404 92.448 
L 72.841621 86.904 
L 71.712 82.526966 
L 71.19542 81.36 
L 68.875858 75.816 
L 66.785211 70.272 
L 65.76 67.350997 
L 59.808 65.564441 
L 58.682239 70.272 
L 57.48094 75.816 
L 56.408184 81.36 
L 55.461436 86.904 
L 54.639753 92.448 
L 53.943973 97.992 
L 53.856 98.82663 
L 53.641406 103.536 
L 53.438586 109.08 
L 53.294156 114.624 
L 53.218445 120.168 
L 53.224908 125.712 
L 53.331439 131.256 
L 53.562403 136.8 
z
" clip-path="url(#p1649ab080d)" style="fill: #2ab07f"/>
    <path d="M 53.731693 153.432 
L 52.834543 147.888 
L 52.217059 142.344 
L 51.806135 136.8 
L 51.552844 131.256 
L 51.423254 125.712 
L 51.393103 120.168 
L 51.444579 114.624 
L 51.564295 109.08 
L 51.741985 103.536 
L 51.969622 97.992 
L 52.240829 92.448 
L 52.550463 86.904 
L 52.894316 81.36 
L 53.268905 75.816 
L 53.67131 70.272 
L 53.856 67.86051 
L 54.499518 64.728 
L 55.744495 59.184 
L 57.120658 53.64 
L 58.635286 48.096 
L 59.808 44.135086 
L 64.468209 48.096 
L 65.76 49.040944 
L 67.185352 53.64 
L 69.043192 59.184 
L 71.077284 64.728 
L 71.712 66.360101 
L 72.657851 70.272 
L 74.065131 75.816 
L 75.558557 81.36 
L 77.144948 86.904 
L 77.664 88.661105 
L 78.52698 92.448 
L 79.826719 97.992 
L 81.171855 103.536 
L 82.555422 109.08 
L 83.616 113.292921 
L 83.901864 114.624 
L 85.049065 120.168 
L 86.152623 125.712 
L 87.166654 131.256 
L 88.020547 136.8 
L 88.604511 142.344 
L 88.74512 147.888 
L 88.162391 153.432 
L 86.390969 158.976 
L 83.616 163.126082 
L 82.260942 164.52 
L 77.664 167.150819 
L 71.712 168.686695 
L 65.76 168.089384 
L 59.808 164.965953 
L 59.402824 164.52 
L 56.01646 158.976 
L 53.856 153.960812 
z
M 53.856 148.904876 
L 55.216148 153.432 
L 57.569619 158.976 
L 59.808 162.651261 
L 62.228599 164.52 
L 65.76 166.364262 
L 71.712 166.891301 
L 77.664 165.271133 
L 78.976486 164.52 
L 83.616 159.747437 
L 84.131825 158.976 
L 86.025793 153.432 
L 86.717334 147.888 
L 86.673588 142.344 
L 86.176123 136.8 
L 85.399746 131.256 
L 84.455436 125.712 
L 83.616 121.272863 
L 83.368376 120.168 
L 82.039289 114.624 
L 80.7066 109.08 
L 79.392329 103.536 
L 78.109885 97.992 
L 77.664 96.045756 
L 76.586255 92.448 
L 74.993284 86.904 
L 73.490548 81.36 
L 72.072595 75.816 
L 71.712 74.360657 
L 70.051387 70.272 
L 67.982486 64.728 
L 66.099022 59.184 
L 65.76 58.134097 
L 59.808 54.73259 
L 58.616252 59.184 
L 57.257812 64.728 
L 56.031038 70.272 
L 54.930923 75.816 
L 53.953854 81.36 
L 53.856 81.972826 
L 53.538894 86.904 
L 53.216202 92.448 
L 52.932082 97.992 
L 52.691695 103.536 
L 52.501441 109.08 
L 52.369367 114.624 
L 52.305774 120.168 
L 52.324081 125.712 
L 52.442142 131.256 
L 52.684269 136.8 
L 53.084456 142.344 
L 53.691705 147.888 
z
" clip-path="url(#p1649ab080d)" style="fill: #1fa188"/>
    <path d="M 52.884171 153.432 
L 51.977382 147.888 
L 51.349663 142.344 
L 50.928001 136.8 
L 50.663546 131.256 
L 50.522427 125.712 
L 50.480432 120.168 
L 50.51979 114.624 
L 50.62715 109.08 
L 50.792274 103.536 
L 51.007161 97.992 
L 51.265456 92.448 
L 51.562032 86.904 
L 51.892699 81.36 
L 52.253985 75.816 
L 52.642984 70.272 
L 53.057236 64.728 
L 53.494638 59.184 
L 53.856 54.804974 
L 54.128545 53.64 
L 55.515339 48.096 
L 57.041213 42.552 
L 58.71578 37.008 
L 59.808 33.64822 
L 62.740838 37.008 
L 65.76 39.996074 
L 66.49112 42.552 
L 68.17141 48.096 
L 69.996137 53.64 
L 71.712 58.447453 
L 71.880816 59.184 
L 73.192019 64.728 
L 74.581982 70.272 
L 76.057666 75.816 
L 77.626566 81.36 
L 77.664 81.489178 
L 78.884067 86.904 
L 80.186866 92.448 
L 81.543553 97.992 
L 82.951382 103.536 
L 83.616 106.12477 
L 84.266339 109.08 
L 85.479082 114.624 
L 86.683311 120.168 
L 87.84981 125.712 
L 88.933562 131.256 
L 89.568 135.083635 
L 89.825407 136.8 
L 90.40112 142.344 
L 90.598264 147.888 
L 90.188181 153.432 
L 89.568 155.966327 
L 88.650114 158.976 
L 85.024278 164.52 
L 83.616 165.682017 
L 77.664 169.030505 
L 73.482847 170.064 
L 71.712 170.320466 
L 68.040321 170.064 
L 65.76 169.814507 
L 59.808 166.634866 
L 57.886514 164.52 
L 54.463302 158.976 
L 53.856 157.566239 
z
M 53.856 153.960812 
L 56.01646 158.976 
L 59.402824 164.52 
L 59.808 164.965953 
L 65.76 168.089384 
L 71.712 168.686695 
L 77.664 167.150819 
L 82.260942 164.52 
L 83.616 163.126082 
L 86.390969 158.976 
L 88.162391 153.432 
L 88.74512 147.888 
L 88.604511 142.344 
L 88.020547 136.8 
L 87.166654 131.256 
L 86.152623 125.712 
L 85.049065 120.168 
L 83.901864 114.624 
L 83.616 113.292921 
L 82.555422 109.08 
L 81.171855 103.536 
L 79.826719 97.992 
L 78.52698 92.448 
L 77.664 88.661105 
L 77.144948 86.904 
L 75.558557 81.36 
L 74.065131 75.816 
L 72.657851 70.272 
L 71.712 66.360101 
L 71.077284 64.728 
L 69.043192 59.184 
L 67.185352 53.64 
L 65.76 49.040944 
L 64.468209 48.096 
L 59.808 44.135086 
L 58.635286 48.096 
L 57.120658 53.64 
L 55.744495 59.184 
L 54.499518 64.728 
L 53.856 67.86051 
L 53.67131 70.272 
L 53.268905 75.816 
L 52.894316 81.36 
L 52.550463 86.904 
L 52.240829 92.448 
L 51.969622 97.992 
L 51.741985 103.536 
L 51.564295 109.08 
L 51.444579 114.624 
L 51.393103 120.168 
L 51.423254 125.712 
L 51.552844 131.256 
L 51.806135 136.8 
L 52.217059 142.344 
L 52.834543 147.888 
L 53.731693 153.432 
z
" clip-path="url(#p1649ab080d)" style="fill: #21908d"/>
    <path d="M 53.241241 158.976 
L 52.036649 153.432 
L 51.12022 147.888 
L 50.482266 142.344 
L 50.049867 136.8 
L 49.774249 131.256 
L 49.6216 125.712 
L 49.567761 120.168 
L 49.595001 114.624 
L 49.690005 109.08 
L 49.842563 103.536 
L 50.044701 97.992 
L 50.290082 92.448 
L 50.573601 86.904 
L 50.891081 81.36 
L 51.239065 75.816 
L 51.614658 70.272 
L 52.015411 64.728 
L 52.439231 59.184 
L 52.884313 53.64 
L 53.349089 48.096 
L 53.831652 42.552 
L 53.856 42.284884 
L 55.314994 37.008 
L 56.994952 31.464 
L 58.837402 25.92 
L 59.808 25.92 
L 61.712166 25.92 
L 65.76 30.950348 
L 65.896012 31.464 
L 67.426159 37.008 
L 69.07637 42.552 
L 70.863291 48.096 
L 71.712 50.57595 
L 72.394802 53.64 
L 73.685805 59.184 
L 75.053893 64.728 
L 76.506114 70.272 
L 77.664 74.46536 
L 77.957999 75.816 
L 79.196202 81.36 
L 80.492028 86.904 
L 81.846752 92.448 
L 83.260387 97.992 
L 83.616 99.369487 
L 84.542036 103.536 
L 85.791706 109.08 
L 87.056301 114.624 
L 88.317556 120.168 
L 89.546997 125.712 
L 89.568 125.817018 
L 90.555433 131.256 
L 91.424105 136.8 
L 92.063962 142.344 
L 92.332139 147.888 
L 92.000898 153.432 
L 90.696256 158.976 
L 89.568 161.186505 
L 87.421619 164.52 
L 83.616 167.660143 
L 79.272898 170.064 
L 77.664 170.573318 
L 71.712 171.421809 
L 65.76 170.984261 
L 63.094571 170.064 
L 59.808 168.30378 
L 56.370203 164.52 
L 53.856 160.465235 
z
M 53.856 157.566239 
L 54.463302 158.976 
L 57.886514 164.52 
L 59.808 166.634866 
L 65.76 169.814507 
L 68.040321 170.064 
L 71.712 170.320466 
L 73.482847 170.064 
L 77.664 169.030505 
L 83.616 165.682017 
L 85.024278 164.52 
L 88.650114 158.976 
L 89.568 155.966327 
L 90.188181 153.432 
L 90.598264 147.888 
L 90.40112 142.344 
L 89.825407 136.8 
L 89.568 135.083635 
L 88.933562 131.256 
L 87.84981 125.712 
L 86.683311 120.168 
L 85.479082 114.624 
L 84.266339 109.08 
L 83.616 106.12477 
L 82.951382 103.536 
L 81.543553 97.992 
L 80.186866 92.448 
L 78.884067 86.904 
L 77.664 81.489178 
L 77.626566 81.36 
L 76.057666 75.816 
L 74.581982 70.272 
L 73.192019 64.728 
L 71.880816 59.184 
L 71.712 58.447453 
L 69.996137 53.64 
L 68.17141 48.096 
L 66.49112 42.552 
L 65.76 39.996074 
L 62.740838 37.008 
L 59.808 33.64822 
L 58.71578 37.008 
L 57.041213 42.552 
L 55.515339 48.096 
L 54.128545 53.64 
L 53.856 54.804974 
L 53.494638 59.184 
L 53.057236 64.728 
L 52.642984 70.272 
L 52.253985 75.816 
L 51.892699 81.36 
L 51.562032 86.904 
L 51.265456 92.448 
L 51.007161 97.992 
L 50.792274 103.536 
L 50.62715 109.08 
L 50.51979 114.624 
L 50.480432 120.168 
L 50.522427 125.712 
L 50.663546 131.256 
L 50.928001 136.8 
L 51.349663 142.344 
L 51.977382 147.888 
L 52.884171 153.432 
z
" clip-path="url(#p1649ab080d)" style="fill: #27808e"/>
    <path d="M 52.231767 158.976 
L 51.189127 153.432 
L 50.263059 147.888 
L 49.614869 142.344 
L 49.171733 136.8 
L 48.884951 131.256 
L 48.720773 125.712 
L 48.655089 120.168 
L 48.670212 114.624 
L 48.75286 109.08 
L 48.892853 103.536 
L 49.08224 97.992 
L 49.314709 92.448 
L 49.58517 86.904 
L 49.889463 81.36 
L 50.224144 75.816 
L 50.586332 70.272 
L 50.973586 64.728 
L 51.383823 59.184 
L 51.815246 53.64 
L 52.266295 48.096 
L 52.710509 42.552 
L 53.156453 37.008 
L 53.697711 31.464 
L 53.856 30.039849 
L 55.116701 25.92 
L 58.837402 25.92 
L 56.994952 31.464 
L 55.314994 37.008 
L 53.856 42.284884 
L 53.831652 42.552 
L 53.349089 48.096 
L 52.884313 53.64 
L 52.439231 59.184 
L 52.015411 64.728 
L 51.614658 70.272 
L 51.239065 75.816 
L 50.891081 81.36 
L 50.573601 86.904 
L 50.290082 92.448 
L 50.044701 97.992 
L 49.842563 103.536 
L 49.690005 109.08 
L 49.595001 114.624 
L 49.567761 120.168 
L 49.6216 125.712 
L 49.774249 131.256 
L 50.049867 136.8 
L 50.482266 142.344 
L 51.12022 147.888 
L 52.036649 153.432 
L 53.241241 158.976 
L 53.856 160.465235 
L 56.370203 164.52 
L 59.808 168.30378 
L 63.094571 170.064 
L 65.76 170.984261 
L 71.712 171.421809 
L 77.664 170.573318 
L 79.272898 170.064 
L 83.616 167.660143 
L 87.421619 164.52 
L 89.568 161.186505 
L 90.696256 158.976 
L 92.000898 153.432 
L 92.332139 147.888 
L 92.063962 142.344 
L 91.424105 136.8 
L 90.555433 131.256 
L 89.568 125.817018 
L 89.546997 125.712 
L 88.317556 120.168 
L 87.056301 114.624 
L 85.791706 109.08 
L 84.542036 103.536 
L 83.616 99.369487 
L 83.260387 97.992 
L 81.846752 92.448 
L 80.492028 86.904 
L 79.196202 81.36 
L 77.957999 75.816 
L 77.664 74.46536 
L 76.506114 70.272 
L 75.053893 64.728 
L 73.685805 59.184 
L 72.394802 53.64 
L 71.712 50.57595 
L 70.863291 48.096 
L 69.07637 42.552 
L 67.426159 37.008 
L 65.896012 31.464 
L 65.76 30.950348 
L 61.712166 25.92 
L 65.76 25.92 
L 66.794683 25.92 
L 68.298012 31.464 
L 69.915267 37.008 
L 71.66162 42.552 
L 71.712 42.70542 
L 72.879327 48.096 
L 74.147628 53.64 
L 75.490793 59.184 
L 76.915766 64.728 
L 77.664 67.512618 
L 78.25205 70.272 
L 79.474828 75.816 
L 80.75665 81.36 
L 82.099988 86.904 
L 83.506638 92.448 
L 83.616 92.873349 
L 84.75358 97.992 
L 86.0201 103.536 
L 87.317074 109.08 
L 88.633519 114.624 
L 89.568 118.594269 
L 89.906147 120.168 
L 91.037465 125.712 
L 92.096051 131.256 
L 93.022803 136.8 
L 93.726805 142.344 
L 94.066014 147.888 
L 93.813615 153.432 
L 92.596631 158.976 
L 89.777146 164.52 
L 89.568 164.738905 
L 83.616 169.63827 
L 82.846824 170.064 
L 77.664 171.704693 
L 71.712 172.523151 
L 65.76 172.060116 
L 59.978483 170.064 
L 59.808 169.972693 
L 54.853893 164.52 
L 53.856 162.910655 
z
" clip-path="url(#p1649ab080d)" style="fill: #2d708e"/>
    <path d="M 47.739713 125.712 
L 47.599814 120.168 
L 47.608908 114.624 
L 47.738174 109.08 
L 47.904 105.223286 
L 47.943142 103.536 
L 48.11978 97.992 
L 48.339336 92.448 
L 48.596739 86.904 
L 48.887845 81.36 
L 49.209224 75.816 
L 49.558006 70.272 
L 49.931761 64.728 
L 50.328415 59.184 
L 50.74618 53.64 
L 51.183501 48.096 
L 51.589366 42.552 
L 51.931291 37.008 
L 52.346298 31.464 
L 52.859307 25.92 
L 53.856 25.92 
L 55.116701 25.92 
L 53.856 30.039849 
L 53.697711 31.464 
L 53.156453 37.008 
L 52.710509 42.552 
L 52.266295 48.096 
L 51.815246 53.64 
L 51.383823 59.184 
L 50.973586 64.728 
L 50.586332 70.272 
L 50.224144 75.816 
L 49.889463 81.36 
L 49.58517 86.904 
L 49.314709 92.448 
L 49.08224 97.992 
L 48.892853 103.536 
L 48.75286 109.08 
L 48.670212 114.624 
L 48.655089 120.168 
L 48.720773 125.712 
L 48.884951 131.256 
L 49.171733 136.8 
L 49.614869 142.344 
L 50.263059 147.888 
L 51.189127 153.432 
L 52.231767 158.976 
L 53.856 162.910655 
L 54.853893 164.52 
L 59.808 169.972693 
L 59.978483 170.064 
L 65.76 172.060116 
L 71.712 172.523151 
L 77.664 171.704693 
L 82.846824 170.064 
L 83.616 169.63827 
L 89.568 164.738905 
L 89.777146 164.52 
L 92.596631 158.976 
L 93.813615 153.432 
L 94.066014 147.888 
L 93.726805 142.344 
L 93.022803 136.8 
L 92.096051 131.256 
L 91.037465 125.712 
L 89.906147 120.168 
L 89.568 118.594269 
L 88.633519 114.624 
L 87.317074 109.08 
L 86.0201 103.536 
L 84.75358 97.992 
L 83.616 92.873349 
L 83.506638 92.448 
L 82.099988 86.904 
L 80.75665 81.36 
L 79.474828 75.816 
L 78.25205 70.272 
L 77.664 67.512618 
L 76.915766 64.728 
L 75.490793 59.184 
L 74.147628 53.64 
L 72.879327 48.096 
L 71.712 42.70542 
L 71.66162 42.552 
L 69.915267 37.008 
L 68.298012 31.464 
L 66.794683 25.92 
L 69.117409 25.92 
L 70.700013 31.464 
L 71.712 34.803294 
L 72.176369 37.008 
L 73.340185 42.552 
L 74.584162 48.096 
L 75.900454 53.64 
L 77.295782 59.184 
L 77.664 60.59397 
L 78.580295 64.728 
L 79.728712 70.272 
L 80.991658 75.816 
L 82.317098 81.36 
L 83.616 86.54762 
L 83.717771 86.904 
L 84.933105 92.448 
L 86.188348 97.992 
L 87.498163 103.536 
L 88.842441 109.08 
L 89.568 112.065898 
L 90.224492 114.624 
L 91.345991 120.168 
L 92.525342 125.712 
L 93.636669 131.256 
L 94.621501 136.8 
L 95.389647 142.344 
L 95.52 144.156242 
L 95.798606 147.888 
L 95.624352 153.432 
L 95.52 153.976762 
L 94.497006 158.976 
L 91.775037 164.52 
L 89.568 166.830028 
L 85.619606 170.064 
L 83.616 171.132492 
L 77.664 172.836067 
L 71.712 173.624493 
L 65.76 173.135972 
L 59.808 171.302218 
L 58.40541 170.064 
L 53.856 165.076177 
L 53.295259 164.52 
L 51.222293 158.976 
L 50.341604 153.432 
L 49.405897 147.888 
L 48.747472 142.344 
L 48.293599 136.8 
L 47.995653 131.256 
L 47.904 128.346294 
z
" clip-path="url(#p1649ab080d)" style="fill: #355f8d"/>
    <path d="M 47.833077 142.344 
L 46.73948 136.8 
L 46.227359 131.256 
L 45.979005 125.712 
L 45.881665 120.168 
L 45.887993 114.624 
L 45.977934 109.08 
L 46.145897 103.536 
L 46.39644 97.992 
L 46.743963 92.448 
L 47.215542 86.904 
L 47.858178 81.36 
L 47.904 81.036164 
L 48.194304 75.816 
L 48.52968 70.272 
L 48.889937 64.728 
L 49.273008 59.184 
L 49.677113 53.64 
L 50.100707 48.096 
L 50.468223 42.552 
L 50.70613 37.008 
L 50.994885 31.464 
L 51.351829 25.92 
L 52.859307 25.92 
L 52.346298 31.464 
L 51.931291 37.008 
L 51.589366 42.552 
L 51.183501 48.096 
L 50.74618 53.64 
L 50.328415 59.184 
L 49.931761 64.728 
L 49.558006 70.272 
L 49.209224 75.816 
L 48.887845 81.36 
L 48.596739 86.904 
L 48.339336 92.448 
L 48.11978 97.992 
L 47.943142 103.536 
L 47.904 105.223286 
L 47.738174 109.08 
L 47.608908 114.624 
L 47.599814 120.168 
L 47.739713 125.712 
L 47.904 128.346294 
L 47.995653 131.256 
L 48.293599 136.8 
L 48.747472 142.344 
L 49.405897 147.888 
L 50.341604 153.432 
L 51.222293 158.976 
L 53.295259 164.52 
L 53.856 165.076177 
L 58.40541 170.064 
L 59.808 171.302218 
L 65.76 173.135972 
L 71.712 173.624493 
L 77.664 172.836067 
L 83.616 171.132492 
L 85.619606 170.064 
L 89.568 166.830028 
L 91.775037 164.52 
L 94.497006 158.976 
L 95.52 153.976762 
L 95.624352 153.432 
L 95.798606 147.888 
L 95.52 144.156242 
L 95.389647 142.344 
L 94.621501 136.8 
L 93.636669 131.256 
L 92.525342 125.712 
L 91.345991 120.168 
L 90.224492 114.624 
L 89.568 112.065898 
L 88.842441 109.08 
L 87.498163 103.536 
L 86.188348 97.992 
L 84.933105 92.448 
L 83.717771 86.904 
L 83.616 86.54762 
L 82.317098 81.36 
L 80.991658 75.816 
L 79.728712 70.272 
L 78.580295 64.728 
L 77.664 60.59397 
L 77.295782 59.184 
L 75.900454 53.64 
L 74.584162 48.096 
L 73.340185 42.552 
L 72.176369 37.008 
L 71.712 34.803294 
L 70.700013 31.464 
L 69.117409 25.92 
L 71.440135 25.92 
L 71.712 26.852685 
L 72.913868 31.464 
L 73.845788 37.008 
L 75.000731 42.552 
L 76.288997 48.096 
L 77.65328 53.64 
L 77.664 53.68227 
L 79.200672 59.184 
L 80.112231 64.728 
L 81.205374 70.272 
L 82.508488 75.816 
L 83.616 80.324947 
L 84.022399 81.36 
L 85.497498 86.904 
L 86.343109 92.448 
L 87.623116 97.992 
L 88.976226 103.536 
L 89.568 105.936384 
L 90.678039 109.08 
L 91.835464 114.624 
L 92.785836 120.168 
L 94.01322 125.712 
L 95.177287 131.256 
L 95.52 133.123369 
L 96.4766 136.8 
L 97.229512 142.344 
L 97.524537 147.888 
L 97.403293 153.432 
L 96.519684 158.976 
L 95.52 160.891658 
L 93.772928 164.52 
L 89.568 168.92115 
L 88.172682 170.064 
L 83.616 172.494008 
L 77.664 173.967442 
L 71.712 174.725835 
L 65.76 174.211827 
L 59.808 172.612101 
L 56.921642 170.064 
L 53.856 166.702931 
L 51.655158 164.52 
L 50.212819 158.976 
L 49.494082 153.432 
L 48.548735 147.888 
L 47.904 142.540104 
z
" clip-path="url(#p1649ab080d)" style="fill: #3d4d8a"/>
    <path d="M 46.943036 147.888 
L 45.261722 142.344 
L 44.646273 136.8 
L 44.358064 131.256 
L 44.218297 125.712 
L 44.163516 120.168 
L 44.167077 114.624 
L 44.217694 109.08 
L 44.312219 103.536 
L 44.453219 97.992 
L 44.648795 92.448 
L 44.914189 86.904 
L 45.275848 81.36 
L 45.780427 75.816 
L 46.515708 70.272 
L 47.665863 64.728 
L 47.904 63.880161 
L 48.2176 59.184 
L 48.608047 53.64 
L 49.017913 48.096 
L 49.34708 42.552 
L 49.480968 37.008 
L 49.643472 31.464 
L 49.844351 25.92 
L 51.351829 25.92 
L 50.994885 31.464 
L 50.70613 37.008 
L 50.468223 42.552 
L 50.100707 48.096 
L 49.677113 53.64 
L 49.273008 59.184 
L 48.889937 64.728 
L 48.52968 70.272 
L 48.194304 75.816 
L 47.904 81.036164 
L 47.858178 81.36 
L 47.215542 86.904 
L 46.743963 92.448 
L 46.39644 97.992 
L 46.145897 103.536 
L 45.977934 109.08 
L 45.887993 114.624 
L 45.881665 120.168 
L 45.979005 125.712 
L 46.227359 131.256 
L 46.73948 136.8 
L 47.833077 142.344 
L 47.904 142.540104 
L 48.548735 147.888 
L 49.494082 153.432 
L 50.212819 158.976 
L 51.655158 164.52 
L 53.856 166.702931 
L 56.921642 170.064 
L 59.808 172.612101 
L 65.76 174.211827 
L 71.712 174.725835 
L 77.664 173.967442 
L 83.616 172.494008 
L 88.172682 170.064 
L 89.568 168.92115 
L 93.772928 164.52 
L 95.52 160.891658 
L 96.519684 158.976 
L 97.403293 153.432 
L 97.524537 147.888 
L 97.229512 142.344 
L 96.4766 136.8 
L 95.52 133.123369 
L 95.177287 131.256 
L 94.01322 125.712 
L 92.785836 120.168 
L 91.835464 114.624 
L 90.678039 109.08 
L 89.568 105.936384 
L 88.976226 103.536 
L 87.623116 97.992 
L 86.343109 92.448 
L 85.497498 86.904 
L 84.022399 81.36 
L 83.616 80.324947 
L 82.508488 75.816 
L 81.205374 70.272 
L 80.112231 64.728 
L 79.200672 59.184 
L 77.664 53.68227 
L 77.65328 53.64 
L 76.288997 48.096 
L 75.000731 42.552 
L 73.845788 37.008 
L 72.913868 31.464 
L 71.712 26.852685 
L 71.440135 25.92 
L 71.712 25.92 
L 74.1337 25.92 
L 74.990746 31.464 
L 75.515207 37.008 
L 76.661276 42.552 
L 77.664 46.750756 
L 78.441733 48.096 
L 80.257384 53.64 
L 81.131165 59.184 
L 81.644167 64.728 
L 82.682036 70.272 
L 83.616 74.15802 
L 84.647567 75.816 
L 86.447076 81.36 
L 87.277224 86.904 
L 87.753113 92.448 
L 89.057884 97.992 
L 89.568 100.055626 
L 91.459579 103.536 
L 92.795066 109.08 
L 93.446436 114.624 
L 94.22568 120.168 
L 95.501098 125.712 
L 95.52 125.801127 
L 97.761474 131.256 
L 98.660715 136.8 
L 99.084435 142.344 
L 99.250468 147.888 
L 99.182235 153.432 
L 98.684962 158.976 
L 96.048937 164.52 
L 95.52 165.012679 
L 91.118641 170.064 
L 89.568 171.508347 
L 83.616 173.855524 
L 77.664 175.098816 
L 73.536931 175.608 
L 71.712 176.350388 
L 69.327458 175.608 
L 65.76 175.287682 
L 59.808 173.921984 
L 55.437875 170.064 
L 53.856 168.329685 
L 50.015057 164.52 
L 49.203345 158.976 
L 48.64656 153.432 
L 47.904 149.110392 
z
" clip-path="url(#p1649ab080d)" style="fill: #443983"/>
    <path d="M 46.11048 153.432 
L 43.065451 147.888 
L 42.690366 142.344 
L 42.553066 136.8 
L 42.488769 131.256 
L 42.457588 125.712 
L 42.445367 120.168 
L 42.446162 114.624 
L 42.457454 109.08 
L 42.478541 103.536 
L 42.509997 97.992 
L 42.553628 92.448 
L 42.612835 86.904 
L 42.693517 81.36 
L 42.806084 75.816 
L 42.970118 70.272 
L 43.226706 64.728 
L 43.678359 59.184 
L 44.670982 53.64 
L 47.904 48.526423 
L 47.935119 48.096 
L 48.225937 42.552 
L 48.255806 37.008 
L 48.292059 31.464 
L 48.336873 25.92 
L 49.844351 25.92 
L 49.643472 31.464 
L 49.480968 37.008 
L 49.34708 42.552 
L 49.017913 48.096 
L 48.608047 53.64 
L 48.2176 59.184 
L 47.904 63.880161 
L 47.665863 64.728 
L 46.515708 70.272 
L 45.780427 75.816 
L 45.275848 81.36 
L 44.914189 86.904 
L 44.648795 92.448 
L 44.453219 97.992 
L 44.312219 103.536 
L 44.217694 109.08 
L 44.167077 114.624 
L 44.163516 120.168 
L 44.218297 125.712 
L 44.358064 131.256 
L 44.646273 136.8 
L 45.261722 142.344 
L 46.943036 147.888 
L 47.904 149.110392 
L 48.64656 153.432 
L 49.203345 158.976 
L 50.015057 164.52 
L 53.856 168.329685 
L 55.437875 170.064 
L 59.808 173.921984 
L 65.76 175.287682 
L 69.327458 175.608 
L 71.712 176.350388 
L 73.536931 175.608 
L 77.664 175.098816 
L 83.616 173.855524 
L 89.568 171.508347 
L 91.118641 170.064 
L 95.52 165.012679 
L 96.048937 164.52 
L 98.684962 158.976 
L 99.182235 153.432 
L 99.250468 147.888 
L 99.084435 142.344 
L 98.660715 136.8 
L 97.761474 131.256 
L 95.52 125.801127 
L 95.501098 125.712 
L 94.22568 120.168 
L 93.446436 114.624 
L 92.795066 109.08 
L 91.459579 103.536 
L 89.568 100.055626 
L 89.057884 97.992 
L 87.753113 92.448 
L 87.277224 86.904 
L 86.447076 81.36 
L 84.647567 75.816 
L 83.616 74.15802 
L 82.682036 70.272 
L 81.644167 64.728 
L 81.131165 59.184 
L 80.257384 53.64 
L 78.441733 48.096 
L 77.664 46.750756 
L 76.661276 42.552 
L 75.515207 37.008 
L 74.990746 31.464 
L 74.1337 25.92 
L 76.876425 25.92 
L 77.067624 31.464 
L 77.184626 37.008 
L 77.664 39.33782 
L 81.114721 42.552 
L 82.461672 48.096 
L 82.866726 53.64 
L 83.061658 59.184 
L 83.176104 64.728 
L 83.616 67.159712 
L 86.957331 70.272 
L 88.4703 75.816 
L 88.871753 81.36 
L 89.056951 86.904 
L 89.163117 92.448 
L 89.568 94.156827 
L 93.685415 97.992 
L 94.61416 103.536 
L 94.912094 109.08 
L 95.057409 114.624 
L 95.52 118.724669 
L 97.06955 120.168 
L 100.130931 125.712 
L 100.644218 131.256 
L 100.84483 136.8 
L 100.939358 142.344 
L 100.976398 147.888 
L 100.961176 153.432 
L 100.850239 158.976 
L 100.262168 164.52 
L 95.52 168.9371 
L 94.538101 170.064 
L 89.568 174.693408 
L 83.616 175.21704 
L 81.574267 175.608 
L 77.664 179.250225 
L 71.712 180.080808 
L 65.76 179.54301 
L 61.5354 175.608 
L 59.808 175.231867 
L 53.954107 170.064 
L 53.856 169.956439 
L 48.374956 164.52 
L 48.193871 158.976 
L 47.904 155.102577 
z
" clip-path="url(#p1649ab080d)" style="fill: #482475"/>
    <path d="M 36 186.696 
L 36 181.152 
L 36 175.608 
L 36 170.064 
L 36 164.52 
L 36 158.976 
L 36 153.432 
L 36 147.888 
L 36 142.344 
L 36 136.8 
L 36 131.256 
L 36 125.712 
L 36 120.168 
L 36 114.624 
L 36 109.08 
L 36 103.536 
L 36 97.992 
L 36 92.448 
L 36 86.904 
L 36 81.36 
L 36 75.816 
L 36 70.272 
L 36 64.728 
L 36 59.184 
L 36 53.64 
L 36 48.096 
L 36 42.552 
L 36 37.008 
L 36 31.464 
L 36 25.92 
L 41.952 25.92 
L 47.904 25.92 
L 48.336873 25.92 
L 48.292059 31.464 
L 48.255806 37.008 
L 48.225937 42.552 
L 47.935119 48.096 
L 47.904 48.526423 
L 44.670982 53.64 
L 43.678359 59.184 
L 43.226706 64.728 
L 42.970118 70.272 
L 42.806084 75.816 
L 42.693517 81.36 
L 42.612835 86.904 
L 42.553628 92.448 
L 42.509997 97.992 
L 42.478541 103.536 
L 42.457454 109.08 
L 42.446162 114.624 
L 42.445367 120.168 
L 42.457588 125.712 
L 42.488769 131.256 
L 42.553066 136.8 
L 42.690366 142.344 
L 43.065451 147.888 
L 46.11048 153.432 
L 47.904 155.102577 
L 48.193871 158.976 
L 48.374956 164.52 
L 53.856 169.956439 
L 53.954107 170.064 
L 59.808 175.231867 
L 61.5354 175.608 
L 65.76 179.54301 
L 71.712 180.080808 
L 77.664 179.250225 
L 81.574267 175.608 
L 83.616 175.21704 
L 89.568 174.693408 
L 94.538101 170.064 
L 95.52 168.9371 
L 100.262168 164.52 
L 100.850239 158.976 
L 100.961176 153.432 
L 100.976398 147.888 
L 100.939358 142.344 
L 100.84483 136.8 
L 100.644218 131.256 
L 100.130931 125.712 
L 97.06955 120.168 
L 95.52 118.724669 
L 95.057409 114.624 
L 94.912094 109.08 
L 94.61416 103.536 
L 93.685415 97.992 
L 89.568 94.156827 
L 89.163117 92.448 
L 89.056951 86.904 
L 88.871753 81.36 
L 88.4703 75.816 
L 86.957331 70.272 
L 83.616 67.159712 
L 83.176104 64.728 
L 83.061658 59.184 
L 82.866726 53.64 
L 82.461672 48.096 
L 81.114721 42.552 
L 77.664 39.33782 
L 77.184626 37.008 
L 77.067624 31.464 
L 76.876425 25.92 
L 77.664 25.92 
L 83.616 25.92 
L 89.568 25.92 
L 95.52 25.92 
L 101.472 25.92 
L 107.424 25.92 
L 113.376 25.92 
L 119.328 25.92 
L 125.28 25.92 
L 131.232 25.92 
L 137.184 25.92 
L 143.136 25.92 
L 149.088 25.92 
L 155.04 25.92 
L 160.992 25.92 
L 166.944 25.92 
L 172.896 25.92 
L 178.848 25.92 
L 184.8 25.92 
L 190.752 25.92 
L 196.704 25.92 
L 202.656 25.92 
L 208.608 25.92 
L 214.56 25.92 
L 214.56 31.464 
L 214.56 37.008 
L 214.56 42.552 
L 214.56 48.096 
L 214.56 53.64 
L 214.56 59.184 
L 214.56 64.728 
L 214.56 70.272 
L 214.56 75.816 
L 214.56 81.36 
L 214.56 86.904 
L 214.56 92.448 
L 214.56 97.992 
L 214.56 103.536 
L 214.56 109.08 
L 214.56 114.624 
L 214.56 120.168 
L 214.56 125.712 
L 214.56 131.256 
L 214.56 136.8 
L 214.56 142.344 
L 214.56 147.888 
L 214.56 153.432 
L 214.56 158.976 
L 214.56 164.52 
L 214.56 170.064 
L 214.56 175.608 
L 214.56 181.152 
L 214.56 186.696 
L 214.56 192.24 
L 208.608 192.24 
L 202.656 192.24 
L 196.704 192.24 
L 190.752 192.24 
L 184.8 192.24 
L 178.848 192.24 
L 172.896 192.24 
L 166.944 192.24 
L 160.992 192.24 
L 155.04 192.24 
L 149.088 192.24 
L 143.136 192.24 
L 137.184 192.24 
L 131.232 192.24 
L 125.28 192.24 
L 119.328 192.24 
L 113.376 192.24 
L 107.424 192.24 
L 101.472 192.24 
L 95.52 192.24 
L 89.568 192.24 
L 83.616 192.24 
L 77.664 192.24 
L 71.712 192.24 
L 65.76 192.24 
L 59.808 192.24 
L 53.856 192.24 
L 47.904 192.24 
L 41.952 192.24 
L 36 192.24 
z
" clip-path="url(#p1649ab080d)" style="fill: #470d60"/>
   </g>
   <g id="PathCollection_1">
    <defs>
     <path id="m474a9c0036" d="M -4.743416 4.743416 
L 4.743416 -4.743416 
M -4.743416 -4.743416 
L 4.743416 4.743416 
" style="stroke: #ffffff; stroke-width: 5"/>
    </defs>
    <g clip-path="url(#p1649ab080d)">
     <use xlink:href="#m474a9c0036" x="65.76" y="127.56" style="fill: #ffffff; stroke: #ffffff; stroke-width: 5"/>
    </g>
   </g>
   <g id="PathCollection_2">
    <defs>
     <path id="m69bef74748" d="M -4.330127 4.330127 
L 4.330127 -4.330127 
M -4.330127 -4.330127 
L 4.330127 4.330127 
" style="stroke: #000000; stroke-width: 2"/>
    </defs>
    <g clip-path="url(#p1649ab080d)">
     <use xlink:href="#m69bef74748" x="65.76" y="127.56" style="stroke: #000000; stroke-width: 2"/>
    </g>
   </g>
   <g id="matplotlib.axis_1">
    <g id="xtick_1">
     <g id="line2d_1">
      <defs>
       <path id="m31fbe1b113" d="M 0 0 
L 0 6 
" style="stroke: #000000; stroke-width: 2"/>
      </defs>
      <g>
       <use xlink:href="#m31fbe1b113" x="65.76" y="192.24" style="stroke: #000000; stroke-width: 2"/>
      </g>
     </g>
     <g id="text_1">
      <!-- $\mathdefault{200}$ -->
      <g transform="translate(52.39 212.377813) scale(0.14 -0.14)">
       <defs>
        <path id="DejaVuSans-32" d="M 1228 531 
L 3431 531 
L 3431 0 
L 469 0 
L 469 531 
Q 828 903 1448 1529 
Q 2069 2156 2228 2338 
Q 2531 2678 2651 2914 
Q 2772 3150 2772 3378 
Q 2772 3750 2511 3984 
Q 2250 4219 1831 4219 
Q 1534 4219 1204 4116 
Q 875 4013 500 3803 
L 500 4441 
Q 881 4594 1212 4672 
Q 1544 4750 1819 4750 
Q 2544 4750 2975 4387 
Q 3406 4025 3406 3419 
Q 3406 3131 3298 2873 
Q 3191 2616 2906 2266 
Q 2828 2175 2409 1742 
Q 1991 1309 1228 531 
z
" transform="scale(0.015625)"/>
        <path id="DejaVuSans-30" d="M 2034 4250 
Q 1547 4250 1301 3770 
Q 1056 3291 1056 2328 
Q 1056 1369 1301 889 
Q 1547 409 2034 409 
Q 2525 409 2770 889 
Q 3016 1369 3016 2328 
Q 3016 3291 2770 3770 
Q 2525 4250 2034 4250 
z
M 2034 4750 
Q 2819 4750 3233 4129 
Q 3647 3509 3647 2328 
Q 3647 1150 3233 529 
Q 2819 -91 2034 -91 
Q 1250 -91 836 529 
Q 422 1150 422 2328 
Q 422 3509 836 4129 
Q 1250 4750 2034 4750 
z
" transform="scale(0.015625)"/>
       </defs>
       <use xlink:href="#DejaVuSans-32" transform="translate(0 0.78125)"/>
       <use xlink:href="#DejaVuSans-30" transform="translate(63.623047 0.78125)"/>
       <use xlink:href="#DejaVuSans-30" transform="translate(127.246094 0.78125)"/>
      </g>
     </g>
    </g>
    <g id="xtick_2">
     <g id="line2d_2">
      <g>
       <use xlink:href="#m31fbe1b113" x="105.44" y="192.24" style="stroke: #000000; stroke-width: 2"/>
      </g>
     </g>
     <g id="text_2">
      <!-- $\mathdefault{400}$ -->
      <g transform="translate(92.07 212.377813) scale(0.14 -0.14)">
       <defs>
        <path id="DejaVuSans-34" d="M 2419 4116 
L 825 1625 
L 2419 1625 
L 2419 4116 
z
M 2253 4666 
L 3047 4666 
L 3047 1625 
L 3713 1625 
L 3713 1100 
L 3047 1100 
L 3047 0 
L 2419 0 
L 2419 1100 
L 313 1100 
L 313 1709 
L 2253 4666 
z
" transform="scale(0.015625)"/>
       </defs>
       <use xlink:href="#DejaVuSans-34" transform="translate(0 0.78125)"/>
       <use xlink:href="#DejaVuSans-30" transform="translate(63.623047 0.78125)"/>
       <use xlink:href="#DejaVuSans-30" transform="translate(127.246094 0.78125)"/>
      </g>
     </g>
    </g>
    <g id="xtick_3">
     <g id="line2d_3">
      <g>
       <use xlink:href="#m31fbe1b113" x="145.12" y="192.24" style="stroke: #000000; stroke-width: 2"/>
      </g>
     </g>
     <g id="text_3">
      <!-- $\mathdefault{600}$ -->
      <g transform="translate(131.75 212.377813) scale(0.14 -0.14)">
       <defs>
        <path id="DejaVuSans-36" d="M 2113 2584 
Q 1688 2584 1439 2293 
Q 1191 2003 1191 1497 
Q 1191 994 1439 701 
Q 1688 409 2113 409 
Q 2538 409 2786 701 
Q 3034 994 3034 1497 
Q 3034 2003 2786 2293 
Q 2538 2584 2113 2584 
z
M 3366 4563 
L 3366 3988 
Q 3128 4100 2886 4159 
Q 2644 4219 2406 4219 
Q 1781 4219 1451 3797 
Q 1122 3375 1075 2522 
Q 1259 2794 1537 2939 
Q 1816 3084 2150 3084 
Q 2853 3084 3261 2657 
Q 3669 2231 3669 1497 
Q 3669 778 3244 343 
Q 2819 -91 2113 -91 
Q 1303 -91 875 529 
Q 447 1150 447 2328 
Q 447 3434 972 4092 
Q 1497 4750 2381 4750 
Q 2619 4750 2861 4703 
Q 3103 4656 3366 4563 
z
" transform="scale(0.015625)"/>
       </defs>
       <use xlink:href="#DejaVuSans-36" transform="translate(0 0.78125)"/>
       <use xlink:href="#DejaVuSans-30" transform="translate(63.623047 0.78125)"/>
       <use xlink:href="#DejaVuSans-30" transform="translate(127.246094 0.78125)"/>
      </g>
     </g>
    </g>
    <g id="xtick_4">
     <g id="line2d_4">
      <g>
       <use xlink:href="#m31fbe1b113" x="184.8" y="192.24" style="stroke: #000000; stroke-width: 2"/>
      </g>
     </g>
     <g id="text_4">
      <!-- $\mathdefault{800}$ -->
      <g transform="translate(171.43 212.377813) scale(0.14 -0.14)">
       <defs>
        <path id="DejaVuSans-38" d="M 2034 2216 
Q 1584 2216 1326 1975 
Q 1069 1734 1069 1313 
Q 1069 891 1326 650 
Q 1584 409 2034 409 
Q 2484 409 2743 651 
Q 3003 894 3003 1313 
Q 3003 1734 2745 1975 
Q 2488 2216 2034 2216 
z
M 1403 2484 
Q 997 2584 770 2862 
Q 544 3141 544 3541 
Q 544 4100 942 4425 
Q 1341 4750 2034 4750 
Q 2731 4750 3128 4425 
Q 3525 4100 3525 3541 
Q 3525 3141 3298 2862 
Q 3072 2584 2669 2484 
Q 3125 2378 3379 2068 
Q 3634 1759 3634 1313 
Q 3634 634 3220 271 
Q 2806 -91 2034 -91 
Q 1263 -91 848 271 
Q 434 634 434 1313 
Q 434 1759 690 2068 
Q 947 2378 1403 2484 
z
M 1172 3481 
Q 1172 3119 1398 2916 
Q 1625 2713 2034 2713 
Q 2441 2713 2670 2916 
Q 2900 3119 2900 3481 
Q 2900 3844 2670 4047 
Q 2441 4250 2034 4250 
Q 1625 4250 1398 4047 
Q 1172 3844 1172 3481 
z
" transform="scale(0.015625)"/>
       </defs>
       <use xlink:href="#DejaVuSans-38" transform="translate(0 0.78125)"/>
       <use xlink:href="#DejaVuSans-30" transform="translate(63.623047 0.78125)"/>
       <use xlink:href="#DejaVuSans-30" transform="translate(127.246094 0.78125)"/>
      </g>
     </g>
    </g>
    <g id="text_5">
     <!-- Diploid N$_e$0 -->
     <g transform="translate(74.34 232.969375) scale(0.18 -0.18)">
      <defs>
       <path id="DejaVuSans-44" d="M 1259 4147 
L 1259 519 
L 2022 519 
Q 2988 519 3436 956 
Q 3884 1394 3884 2338 
Q 3884 3275 3436 3711 
Q 2988 4147 2022 4147 
L 1259 4147 
z
M 628 4666 
L 1925 4666 
Q 3281 4666 3915 4102 
Q 4550 3538 4550 2338 
Q 4550 1131 3912 565 
Q 3275 0 1925 0 
L 628 0 
L 628 4666 
z
" transform="scale(0.015625)"/>
       <path id="DejaVuSans-69" d="M 603 3500 
L 1178 3500 
L 1178 0 
L 603 0 
L 603 3500 
z
M 603 4863 
L 1178 4863 
L 1178 4134 
L 603 4134 
L 603 4863 
z
" transform="scale(0.015625)"/>
       <path id="DejaVuSans-70" d="M 1159 525 
L 1159 -1331 
L 581 -1331 
L 581 3500 
L 1159 3500 
L 1159 2969 
Q 1341 3281 1617 3432 
Q 1894 3584 2278 3584 
Q 2916 3584 3314 3078 
Q 3713 2572 3713 1747 
Q 3713 922 3314 415 
Q 2916 -91 2278 -91 
Q 1894 -91 1617 61 
Q 1341 213 1159 525 
z
M 3116 1747 
Q 3116 2381 2855 2742 
Q 2594 3103 2138 3103 
Q 1681 3103 1420 2742 
Q 1159 2381 1159 1747 
Q 1159 1113 1420 752 
Q 1681 391 2138 391 
Q 2594 391 2855 752 
Q 3116 1113 3116 1747 
z
" transform="scale(0.015625)"/>
       <path id="DejaVuSans-6c" d="M 603 4863 
L 1178 4863 
L 1178 0 
L 603 0 
L 603 4863 
z
" transform="scale(0.015625)"/>
       <path id="DejaVuSans-6f" d="M 1959 3097 
Q 1497 3097 1228 2736 
Q 959 2375 959 1747 
Q 959 1119 1226 758 
Q 1494 397 1959 397 
Q 2419 397 2687 759 
Q 2956 1122 2956 1747 
Q 2956 2369 2687 2733 
Q 2419 3097 1959 3097 
z
M 1959 3584 
Q 2709 3584 3137 3096 
Q 3566 2609 3566 1747 
Q 3566 888 3137 398 
Q 2709 -91 1959 -91 
Q 1206 -91 779 398 
Q 353 888 353 1747 
Q 353 2609 779 3096 
Q 1206 3584 1959 3584 
z
" transform="scale(0.015625)"/>
       <path id="DejaVuSans-64" d="M 2906 2969 
L 2906 4863 
L 3481 4863 
L 3481 0 
L 2906 0 
L 2906 525 
Q 2725 213 2448 61 
Q 2172 -91 1784 -91 
Q 1150 -91 751 415 
Q 353 922 353 1747 
Q 353 2572 751 3078 
Q 1150 3584 1784 3584 
Q 2172 3584 2448 3432 
Q 2725 3281 2906 2969 
z
M 947 1747 
Q 947 1113 1208 752 
Q 1469 391 1925 391 
Q 2381 391 2643 752 
Q 2906 1113 2906 1747 
Q 2906 2381 2643 2742 
Q 2381 3103 1925 3103 
Q 1469 3103 1208 2742 
Q 947 2381 947 1747 
z
" transform="scale(0.015625)"/>
       <path id="DejaVuSans-20" transform="scale(0.015625)"/>
       <path id="DejaVuSans-4e" d="M 628 4666 
L 1478 4666 
L 3547 763 
L 3547 4666 
L 4159 4666 
L 4159 0 
L 3309 0 
L 1241 3903 
L 1241 0 
L 628 0 
L 628 4666 
z
" transform="scale(0.015625)"/>
       <path id="DejaVuSans-Oblique-65" d="M 3078 2063 
Q 3088 2113 3092 2166 
Q 3097 2219 3097 2272 
Q 3097 2653 2873 2875 
Q 2650 3097 2266 3097 
Q 1838 3097 1509 2826 
Q 1181 2556 1013 2059 
L 3078 2063 
z
M 3578 1613 
L 903 1613 
Q 884 1494 878 1425 
Q 872 1356 872 1306 
Q 872 872 1139 634 
Q 1406 397 1894 397 
Q 2269 397 2603 481 
Q 2938 566 3225 728 
L 3116 159 
Q 2806 34 2476 -28 
Q 2147 -91 1806 -91 
Q 1078 -91 686 257 
Q 294 606 294 1247 
Q 294 1794 489 2264 
Q 684 2734 1063 3103 
Q 1306 3334 1642 3459 
Q 1978 3584 2356 3584 
Q 2950 3584 3301 3228 
Q 3653 2872 3653 2272 
Q 3653 2128 3634 1964 
Q 3616 1800 3578 1613 
z
" transform="scale(0.015625)"/>
      </defs>
      <use xlink:href="#DejaVuSans-44" transform="translate(0 0.015625)"/>
      <use xlink:href="#DejaVuSans-69" transform="translate(77.001953 0.015625)"/>
      <use xlink:href="#DejaVuSans-70" transform="translate(104.785156 0.015625)"/>
      <use xlink:href="#DejaVuSans-6c" transform="translate(168.261719 0.015625)"/>
      <use xlink:href="#DejaVuSans-6f" transform="translate(196.044922 0.015625)"/>
      <use xlink:href="#DejaVuSans-69" transform="translate(257.226562 0.015625)"/>
      <use xlink:href="#DejaVuSans-64" transform="translate(285.009766 0.015625)"/>
      <use xlink:href="#DejaVuSans-20" transform="translate(348.486328 0.015625)"/>
      <use xlink:href="#DejaVuSans-4e" transform="translate(380.273438 0.015625)"/>
      <use xlink:href="#DejaVuSans-Oblique-65" transform="translate(456.035156 -16.390625) scale(0.7)"/>
      <use xlink:href="#DejaVuSans-30" transform="translate(501.835938 0.015625)"/>
     </g>
    </g>
    <g id="text_6">
     <!-- $\times\mathdefault{10^{3}}\mathdefault{}$ -->
     <g transform="translate(188.56 225.887812) scale(0.1 -0.1)">
      <defs>
       <path id="DejaVuSans-d7" d="M 4488 3438 
L 3059 2003 
L 4488 575 
L 4116 197 
L 2681 1631 
L 1247 197 
L 878 575 
L 2303 2003 
L 878 3438 
L 1247 3816 
L 2681 2381 
L 4116 3816 
L 4488 3438 
z
" transform="scale(0.015625)"/>
       <path id="DejaVuSans-31" d="M 794 531 
L 1825 531 
L 1825 4091 
L 703 3866 
L 703 4441 
L 1819 4666 
L 2450 4666 
L 2450 531 
L 3481 531 
L 3481 0 
L 794 0 
L 794 531 
z
" transform="scale(0.015625)"/>
       <path id="DejaVuSans-33" d="M 2597 2516 
Q 3050 2419 3304 2112 
Q 3559 1806 3559 1356 
Q 3559 666 3084 287 
Q 2609 -91 1734 -91 
Q 1441 -91 1130 -33 
Q 819 25 488 141 
L 488 750 
Q 750 597 1062 519 
Q 1375 441 1716 441 
Q 2309 441 2620 675 
Q 2931 909 2931 1356 
Q 2931 1769 2642 2001 
Q 2353 2234 1838 2234 
L 1294 2234 
L 1294 2753 
L 1863 2753 
Q 2328 2753 2575 2939 
Q 2822 3125 2822 3475 
Q 2822 3834 2567 4026 
Q 2313 4219 1838 4219 
Q 1578 4219 1281 4162 
Q 984 4106 628 3988 
L 628 4550 
Q 988 4650 1302 4700 
Q 1616 4750 1894 4750 
Q 2613 4750 3031 4423 
Q 3450 4097 3450 3541 
Q 3450 3153 3228 2886 
Q 3006 2619 2597 2516 
z
" transform="scale(0.015625)"/>
      </defs>
      <use xlink:href="#DejaVuSans-d7" transform="translate(0 0.765625)"/>
      <use xlink:href="#DejaVuSans-31" transform="translate(83.789062 0.765625)"/>
      <use xlink:href="#DejaVuSans-30" transform="translate(147.412109 0.765625)"/>
      <use xlink:href="#DejaVuSans-33" transform="translate(211.992188 39.046875) scale(0.7)"/>
     </g>
    </g>
   </g>
   <g id="matplotlib.axis_2">
    <g id="ytick_1">
     <g id="line2d_5">
      <defs>
       <path id="m1900528560" d="M 0 0 
L -6 0 
" style="stroke: #000000; stroke-width: 2"/>
      </defs>
      <g>
       <use xlink:href="#m1900528560" x="36" y="164.52" style="stroke: #000000; stroke-width: 2"/>
      </g>
     </g>
     <g id="text_7">
      <!-- $\mathdefault{200}$ -->
      <g transform="translate(-0.24 169.838906) scale(0.14 -0.14)">
       <use xlink:href="#DejaVuSans-32" transform="translate(0 0.78125)"/>
       <use xlink:href="#DejaVuSans-30" transform="translate(63.623047 0.78125)"/>
       <use xlink:href="#DejaVuSans-30" transform="translate(127.246094 0.78125)"/>
      </g>
     </g>
    </g>
    <g id="ytick_2">
     <g id="line2d_6">
      <g>
       <use xlink:href="#m1900528560" x="36" y="127.56" style="stroke: #000000; stroke-width: 2"/>
      </g>
     </g>
     <g id="text_8">
      <!-- $\mathdefault{400}$ -->
      <g transform="translate(-0.24 132.878906) scale(0.14 -0.14)">
       <use xlink:href="#DejaVuSans-34" transform="translate(0 0.78125)"/>
       <use xlink:href="#DejaVuSans-30" transform="translate(63.623047 0.78125)"/>
       <use xlink:href="#DejaVuSans-30" transform="translate(127.246094 0.78125)"/>
      </g>
     </g>
    </g>
    <g id="ytick_3">
     <g id="line2d_7">
      <g>
       <use xlink:href="#m1900528560" x="36" y="90.6" style="stroke: #000000; stroke-width: 2"/>
      </g>
     </g>
     <g id="text_9">
      <!-- $\mathdefault{600}$ -->
      <g transform="translate(-0.24 95.918906) scale(0.14 -0.14)">
       <use xlink:href="#DejaVuSans-36" transform="translate(0 0.78125)"/>
       <use xlink:href="#DejaVuSans-30" transform="translate(63.623047 0.78125)"/>
       <use xlink:href="#DejaVuSans-30" transform="translate(127.246094 0.78125)"/>
      </g>
     </g>
    </g>
    <g id="ytick_4">
     <g id="line2d_8">
      <g>
       <use xlink:href="#m1900528560" x="36" y="53.64" style="stroke: #000000; stroke-width: 2"/>
      </g>
     </g>
     <g id="text_10">
      <!-- $\mathdefault{800}$ -->
      <g transform="translate(-0.24 58.958906) scale(0.14 -0.14)">
       <use xlink:href="#DejaVuSans-38" transform="translate(0 0.78125)"/>
       <use xlink:href="#DejaVuSans-30" transform="translate(63.623047 0.78125)"/>
       <use xlink:href="#DejaVuSans-30" transform="translate(127.246094 0.78125)"/>
      </g>
     </g>
    </g>
    <g id="text_11">
     <!-- Diploid N$_e$2 -->
     <g transform="translate(-8.02 160.02) rotate(-90) scale(0.18 -0.18)">
      <use xlink:href="#DejaVuSans-44" transform="translate(0 0.015625)"/>
      <use xlink:href="#DejaVuSans-69" transform="translate(77.001953 0.015625)"/>
      <use xlink:href="#DejaVuSans-70" transform="translate(104.785156 0.015625)"/>
      <use xlink:href="#DejaVuSans-6c" transform="translate(168.261719 0.015625)"/>
      <use xlink:href="#DejaVuSans-6f" transform="translate(196.044922 0.015625)"/>
      <use xlink:href="#DejaVuSans-69" transform="translate(257.226562 0.015625)"/>
      <use xlink:href="#DejaVuSans-64" transform="translate(285.009766 0.015625)"/>
      <use xlink:href="#DejaVuSans-20" transform="translate(348.486328 0.015625)"/>
      <use xlink:href="#DejaVuSans-4e" transform="translate(380.273438 0.015625)"/>
      <use xlink:href="#DejaVuSans-Oblique-65" transform="translate(456.035156 -16.390625) scale(0.7)"/>
      <use xlink:href="#DejaVuSans-32" transform="translate(501.835938 0.015625)"/>
     </g>
    </g>
    <g id="text_12">
     <!-- $\times\mathdefault{10^{3}}\mathdefault{}$ -->
     <g transform="translate(36 22.92) scale(0.1 -0.1)">
      <use xlink:href="#DejaVuSans-d7" transform="translate(0 0.765625)"/>
      <use xlink:href="#DejaVuSans-31" transform="translate(83.789062 0.765625)"/>
      <use xlink:href="#DejaVuSans-30" transform="translate(147.412109 0.765625)"/>
      <use xlink:href="#DejaVuSans-33" transform="translate(211.992188 39.046875) scale(0.7)"/>
     </g>
    </g>
   </g>
   <g id="patch_3">
    <path d="M 36 192.24 
L 36 25.92 
" style="fill: none; stroke: #000000; stroke-width: 0.8; stroke-linejoin: miter; stroke-linecap: square"/>
   </g>
   <g id="patch_4">
    <path d="M 214.56 192.24 
L 214.56 25.92 
" style="fill: none; stroke: #000000; stroke-width: 0.8; stroke-linejoin: miter; stroke-linecap: square"/>
   </g>
   <g id="patch_5">
    <path d="M 36 192.24 
L 214.56 192.24 
" style="fill: none; stroke: #000000; stroke-width: 0.8; stroke-linejoin: miter; stroke-linecap: square"/>
   </g>
   <g id="patch_6">
    <path d="M 36 25.92 
L 214.56 25.92 
" style="fill: none; stroke: #000000; stroke-width: 0.8; stroke-linejoin: miter; stroke-linecap: square"/>
   </g>
   <g id="text_13">
    <!-- Ne0Ne2-MSSMC-T-P2-S4 -->
    <g transform="translate(28.6825 10.92) scale(0.16 -0.16)">
     <defs>
      <path id="DejaVuSans-65" d="M 3597 1894 
L 3597 1613 
L 953 1613 
Q 991 1019 1311 708 
Q 1631 397 2203 397 
Q 2534 397 2845 478 
Q 3156 559 3463 722 
L 3463 178 
Q 3153 47 2828 -22 
Q 2503 -91 2169 -91 
Q 1331 -91 842 396 
Q 353 884 353 1716 
Q 353 2575 817 3079 
Q 1281 3584 2069 3584 
Q 2775 3584 3186 3129 
Q 3597 2675 3597 1894 
z
M 3022 2063 
Q 3016 2534 2758 2815 
Q 2500 3097 2075 3097 
Q 1594 3097 1305 2825 
Q 1016 2553 972 2059 
L 3022 2063 
z
" transform="scale(0.015625)"/>
      <path id="DejaVuSans-2d" d="M 313 2009 
L 1997 2009 
L 1997 1497 
L 313 1497 
L 313 2009 
z
" transform="scale(0.015625)"/>
      <path id="DejaVuSans-4d" d="M 628 4666 
L 1569 4666 
L 2759 1491 
L 3956 4666 
L 4897 4666 
L 4897 0 
L 4281 0 
L 4281 4097 
L 3078 897 
L 2444 897 
L 1241 4097 
L 1241 0 
L 628 0 
L 628 4666 
z
" transform="scale(0.015625)"/>
      <path id="DejaVuSans-53" d="M 3425 4513 
L 3425 3897 
Q 3066 4069 2747 4153 
Q 2428 4238 2131 4238 
Q 1616 4238 1336 4038 
Q 1056 3838 1056 3469 
Q 1056 3159 1242 3001 
Q 1428 2844 1947 2747 
L 2328 2669 
Q 3034 2534 3370 2195 
Q 3706 1856 3706 1288 
Q 3706 609 3251 259 
Q 2797 -91 1919 -91 
Q 1588 -91 1214 -16 
Q 841 59 441 206 
L 441 856 
Q 825 641 1194 531 
Q 1563 422 1919 422 
Q 2459 422 2753 634 
Q 3047 847 3047 1241 
Q 3047 1584 2836 1778 
Q 2625 1972 2144 2069 
L 1759 2144 
Q 1053 2284 737 2584 
Q 422 2884 422 3419 
Q 422 4038 858 4394 
Q 1294 4750 2059 4750 
Q 2388 4750 2728 4690 
Q 3069 4631 3425 4513 
z
" transform="scale(0.015625)"/>
      <path id="DejaVuSans-43" d="M 4122 4306 
L 4122 3641 
Q 3803 3938 3442 4084 
Q 3081 4231 2675 4231 
Q 1875 4231 1450 3742 
Q 1025 3253 1025 2328 
Q 1025 1406 1450 917 
Q 1875 428 2675 428 
Q 3081 428 3442 575 
Q 3803 722 4122 1019 
L 4122 359 
Q 3791 134 3420 21 
Q 3050 -91 2638 -91 
Q 1578 -91 968 557 
Q 359 1206 359 2328 
Q 359 3453 968 4101 
Q 1578 4750 2638 4750 
Q 3056 4750 3426 4639 
Q 3797 4528 4122 4306 
z
" transform="scale(0.015625)"/>
      <path id="DejaVuSans-54" d="M -19 4666 
L 3928 4666 
L 3928 4134 
L 2272 4134 
L 2272 0 
L 1638 0 
L 1638 4134 
L -19 4134 
L -19 4666 
z
" transform="scale(0.015625)"/>
      <path id="DejaVuSans-50" d="M 1259 4147 
L 1259 2394 
L 2053 2394 
Q 2494 2394 2734 2622 
Q 2975 2850 2975 3272 
Q 2975 3691 2734 3919 
Q 2494 4147 2053 4147 
L 1259 4147 
z
M 628 4666 
L 2053 4666 
Q 2838 4666 3239 4311 
Q 3641 3956 3641 3272 
Q 3641 2581 3239 2228 
Q 2838 1875 2053 1875 
L 1259 1875 
L 1259 0 
L 628 0 
L 628 4666 
z
" transform="scale(0.015625)"/>
     </defs>
     <use xlink:href="#DejaVuSans-4e"/>
     <use xlink:href="#DejaVuSans-65" x="74.804688"/>
     <use xlink:href="#DejaVuSans-30" x="136.328125"/>
     <use xlink:href="#DejaVuSans-4e" x="199.951172"/>
     <use xlink:href="#DejaVuSans-65" x="274.755859"/>
     <use xlink:href="#DejaVuSans-32" x="336.279297"/>
     <use xlink:href="#DejaVuSans-2d" x="399.902344"/>
     <use xlink:href="#DejaVuSans-4d" x="435.986328"/>
     <use xlink:href="#DejaVuSans-53" x="522.265625"/>
     <use xlink:href="#DejaVuSans-53" x="585.742188"/>
     <use xlink:href="#DejaVuSans-4d" x="649.21875"/>
     <use xlink:href="#DejaVuSans-43" x="735.498047"/>
     <use xlink:href="#DejaVuSans-2d" x="805.322266"/>
     <use xlink:href="#DejaVuSans-54" x="832.28125"/>
     <use xlink:href="#DejaVuSans-2d" x="884.240234"/>
     <use xlink:href="#DejaVuSans-50" x="920.324219"/>
     <use xlink:href="#DejaVuSans-32" x="980.626953"/>
     <use xlink:href="#DejaVuSans-2d" x="1044.25"/>
     <use xlink:href="#DejaVuSans-53" x="1080.333984"/>
     <use xlink:href="#DejaVuSans-34" x="1143.810547"/>
    </g>
   </g>
  </g>
  <g id="axes_2">
   <g id="patch_7">
    <path d="M 225.72 192.24 
L 234.036 192.24 
L 234.036 25.92 
L 225.72 25.92 
z
" style="fill: #ffffff"/>
   </g>
   <g id="QuadMesh_1">
    <path d="M 225.72 192.24 
L 234.036 192.24 
L 234.036 181.152 
L 225.72 181.152 
L 225.72 192.24 
" clip-path="url(#p40f1b8e33f)" style="fill: #eae51a"/>
    <path d="M 225.72 181.152 
L 234.036 181.152 
L 234.036 170.064 
L 225.72 170.064 
L 225.72 181.152 
" clip-path="url(#p40f1b8e33f)" style="fill: #bddf26"/>
    <path d="M 225.72 170.064 
L 234.036 170.064 
L 234.036 158.976 
L 225.72 158.976 
L 225.72 170.064 
" clip-path="url(#p40f1b8e33f)" style="fill: #90d743"/>
    <path d="M 225.72 158.976 
L 234.036 158.976 
L 234.036 147.888 
L 225.72 147.888 
L 225.72 158.976 
" clip-path="url(#p40f1b8e33f)" style="fill: #67cc5c"/>
    <path d="M 225.72 147.888 
L 234.036 147.888 
L 234.036 136.8 
L 225.72 136.8 
L 225.72 147.888 
" clip-path="url(#p40f1b8e33f)" style="fill: #44bf70"/>
    <path d="M 225.72 136.8 
L 234.036 136.8 
L 234.036 125.712 
L 225.72 125.712 
L 225.72 136.8 
" clip-path="url(#p40f1b8e33f)" style="fill: #2ab07f"/>
    <path d="M 225.72 125.712 
L 234.036 125.712 
L 234.036 114.624 
L 225.72 114.624 
L 225.72 125.712 
" clip-path="url(#p40f1b8e33f)" style="fill: #1fa188"/>
    <path d="M 225.72 114.624 
L 234.036 114.624 
L 234.036 103.536 
L 225.72 103.536 
L 225.72 114.624 
" clip-path="url(#p40f1b8e33f)" style="fill: #21908d"/>
    <path d="M 225.72 103.536 
L 234.036 103.536 
L 234.036 92.448 
L 225.72 92.448 
L 225.72 103.536 
" clip-path="url(#p40f1b8e33f)" style="fill: #27808e"/>
    <path d="M 225.72 92.448 
L 234.036 92.448 
L 234.036 81.36 
L 225.72 81.36 
L 225.72 92.448 
" clip-path="url(#p40f1b8e33f)" style="fill: #2d708e"/>
    <path d="M 225.72 81.36 
L 234.036 81.36 
L 234.036 70.272 
L 225.72 70.272 
L 225.72 81.36 
" clip-path="url(#p40f1b8e33f)" style="fill: #355f8d"/>
    <path d="M 225.72 70.272 
L 234.036 70.272 
L 234.036 59.184 
L 225.72 59.184 
L 225.72 70.272 
" clip-path="url(#p40f1b8e33f)" style="fill: #3d4d8a"/>
    <path d="M 225.72 59.184 
L 234.036 59.184 
L 234.036 48.096 
L 225.72 48.096 
L 225.72 59.184 
" clip-path="url(#p40f1b8e33f)" style="fill: #443983"/>
    <path d="M 225.72 48.096 
L 234.036 48.096 
L 234.036 37.008 
L 225.72 37.008 
L 225.72 48.096 
" clip-path="url(#p40f1b8e33f)" style="fill: #482475"/>
    <path d="M 225.72 37.008 
L 234.036 37.008 
L 234.036 25.92 
L 225.72 25.92 
L 225.72 37.008 
" clip-path="url(#p40f1b8e33f)" style="fill: #470d60"/>
   </g>
   <g id="matplotlib.axis_3"/>
   <g id="matplotlib.axis_4">
    <g id="ytick_5">
     <g id="line2d_9">
      <defs>
       <path id="m4a68a8f3d0" d="M 0 0 
L 3.5 0 
" style="stroke: #000000; stroke-width: 0.8"/>
      </defs>
      <g>
       <use xlink:href="#m4a68a8f3d0" x="234.036" y="192.24" style="stroke: #000000; stroke-width: 0.8"/>
      </g>
     </g>
     <g id="text_14">
      <!-- $\mathdefault{0.00}$ -->
      <g transform="translate(241.036 196.039219) scale(0.1 -0.1)">
       <defs>
        <path id="DejaVuSans-2e" d="M 684 794 
L 1344 794 
L 1344 0 
L 684 0 
L 684 794 
z
" transform="scale(0.015625)"/>
       </defs>
       <use xlink:href="#DejaVuSans-30" transform="translate(0 0.78125)"/>
       <use xlink:href="#DejaVuSans-2e" transform="translate(63.623047 0.78125)"/>
       <use xlink:href="#DejaVuSans-30" transform="translate(95.410156 0.78125)"/>
       <use xlink:href="#DejaVuSans-30" transform="translate(159.033203 0.78125)"/>
      </g>
     </g>
    </g>
    <g id="ytick_6">
     <g id="line2d_10">
      <g>
       <use xlink:href="#m4a68a8f3d0" x="234.036" y="170.064" style="stroke: #000000; stroke-width: 0.8"/>
      </g>
     </g>
     <g id="text_15">
      <!-- $\mathdefault{0.16}$ -->
      <g transform="translate(241.036 173.863219) scale(0.1 -0.1)">
       <use xlink:href="#DejaVuSans-30" transform="translate(0 0.78125)"/>
       <use xlink:href="#DejaVuSans-2e" transform="translate(63.623047 0.78125)"/>
       <use xlink:href="#DejaVuSans-31" transform="translate(95.410156 0.78125)"/>
       <use xlink:href="#DejaVuSans-36" transform="translate(159.033203 0.78125)"/>
      </g>
     </g>
    </g>
    <g id="ytick_7">
     <g id="line2d_11">
      <g>
       <use xlink:href="#m4a68a8f3d0" x="234.036" y="147.888" style="stroke: #000000; stroke-width: 0.8"/>
      </g>
     </g>
     <g id="text_16">
      <!-- $\mathdefault{0.32}$ -->
      <g transform="translate(241.036 151.687219) scale(0.1 -0.1)">
       <use xlink:href="#DejaVuSans-30" transform="translate(0 0.78125)"/>
       <use xlink:href="#DejaVuSans-2e" transform="translate(63.623047 0.78125)"/>
       <use xlink:href="#DejaVuSans-33" transform="translate(95.410156 0.78125)"/>
       <use xlink:href="#DejaVuSans-32" transform="translate(159.033203 0.78125)"/>
      </g>
     </g>
    </g>
    <g id="ytick_8">
     <g id="line2d_12">
      <g>
       <use xlink:href="#m4a68a8f3d0" x="234.036" y="125.712" style="stroke: #000000; stroke-width: 0.8"/>
      </g>
     </g>
     <g id="text_17">
      <!-- $\mathdefault{0.48}$ -->
      <g transform="translate(241.036 129.511219) scale(0.1 -0.1)">
       <use xlink:href="#DejaVuSans-30" transform="translate(0 0.78125)"/>
       <use xlink:href="#DejaVuSans-2e" transform="translate(63.623047 0.78125)"/>
       <use xlink:href="#DejaVuSans-34" transform="translate(95.410156 0.78125)"/>
       <use xlink:href="#DejaVuSans-38" transform="translate(159.033203 0.78125)"/>
      </g>
     </g>
    </g>
    <g id="ytick_9">
     <g id="line2d_13">
      <g>
       <use xlink:href="#m4a68a8f3d0" x="234.036" y="103.536" style="stroke: #000000; stroke-width: 0.8"/>
      </g>
     </g>
     <g id="text_18">
      <!-- $\mathdefault{0.64}$ -->
      <g transform="translate(241.036 107.335219) scale(0.1 -0.1)">
       <use xlink:href="#DejaVuSans-30" transform="translate(0 0.78125)"/>
       <use xlink:href="#DejaVuSans-2e" transform="translate(63.623047 0.78125)"/>
       <use xlink:href="#DejaVuSans-36" transform="translate(95.410156 0.78125)"/>
       <use xlink:href="#DejaVuSans-34" transform="translate(159.033203 0.78125)"/>
      </g>
     </g>
    </g>
    <g id="ytick_10">
     <g id="line2d_14">
      <g>
       <use xlink:href="#m4a68a8f3d0" x="234.036" y="81.36" style="stroke: #000000; stroke-width: 0.8"/>
      </g>
     </g>
     <g id="text_19">
      <!-- $\mathdefault{0.80}$ -->
      <g transform="translate(241.036 85.159219) scale(0.1 -0.1)">
       <use xlink:href="#DejaVuSans-30" transform="translate(0 0.78125)"/>
       <use xlink:href="#DejaVuSans-2e" transform="translate(63.623047 0.78125)"/>
       <use xlink:href="#DejaVuSans-38" transform="translate(92.785156 0.78125)"/>
       <use xlink:href="#DejaVuSans-30" transform="translate(156.408203 0.78125)"/>
      </g>
     </g>
    </g>
    <g id="ytick_11">
     <g id="line2d_15">
      <g>
       <use xlink:href="#m4a68a8f3d0" x="234.036" y="59.184" style="stroke: #000000; stroke-width: 0.8"/>
      </g>
     </g>
     <g id="text_20">
      <!-- $\mathdefault{0.96}$ -->
      <g transform="translate(241.036 62.983219) scale(0.1 -0.1)">
       <defs>
        <path id="DejaVuSans-39" d="M 703 97 
L 703 672 
Q 941 559 1184 500 
Q 1428 441 1663 441 
Q 2288 441 2617 861 
Q 2947 1281 2994 2138 
Q 2813 1869 2534 1725 
Q 2256 1581 1919 1581 
Q 1219 1581 811 2004 
Q 403 2428 403 3163 
Q 403 3881 828 4315 
Q 1253 4750 1959 4750 
Q 2769 4750 3195 4129 
Q 3622 3509 3622 2328 
Q 3622 1225 3098 567 
Q 2575 -91 1691 -91 
Q 1453 -91 1209 -44 
Q 966 3 703 97 
z
M 1959 2075 
Q 2384 2075 2632 2365 
Q 2881 2656 2881 3163 
Q 2881 3666 2632 3958 
Q 2384 4250 1959 4250 
Q 1534 4250 1286 3958 
Q 1038 3666 1038 3163 
Q 1038 2656 1286 2365 
Q 1534 2075 1959 2075 
z
" transform="scale(0.015625)"/>
       </defs>
       <use xlink:href="#DejaVuSans-30" transform="translate(0 0.78125)"/>
       <use xlink:href="#DejaVuSans-2e" transform="translate(63.623047 0.78125)"/>
       <use xlink:href="#DejaVuSans-39" transform="translate(95.410156 0.78125)"/>
       <use xlink:href="#DejaVuSans-36" transform="translate(159.033203 0.78125)"/>
      </g>
     </g>
    </g>
    <g id="ytick_12">
     <g id="line2d_16">
      <g>
       <use xlink:href="#m4a68a8f3d0" x="234.036" y="37.008" style="stroke: #000000; stroke-width: 0.8"/>
      </g>
     </g>
     <g id="text_21">
      <!-- $\mathdefault{1.12}$ -->
      <g transform="translate(241.036 40.807219) scale(0.1 -0.1)">
       <use xlink:href="#DejaVuSans-31" transform="translate(0 0.78125)"/>
       <use xlink:href="#DejaVuSans-2e" transform="translate(63.623047 0.78125)"/>
       <use xlink:href="#DejaVuSans-31" transform="translate(95.410156 0.78125)"/>
       <use xlink:href="#DejaVuSans-32" transform="translate(159.033203 0.78125)"/>
      </g>
     </g>
    </g>
    <g id="text_22">
     <!-- $\Delta$ log likelihood -->
     <g transform="translate(276.456 154.98) rotate(-90) scale(0.12 -0.12)">
      <defs>
       <path id="DejaVuSans-394" d="M 2188 4044 
L 906 525 
L 3472 525 
L 2188 4044 
z
M 50 0 
L 1831 4666 
L 2547 4666 
L 4325 0 
L 50 0 
z
" transform="scale(0.015625)"/>
       <path id="DejaVuSans-67" d="M 2906 1791 
Q 2906 2416 2648 2759 
Q 2391 3103 1925 3103 
Q 1463 3103 1205 2759 
Q 947 2416 947 1791 
Q 947 1169 1205 825 
Q 1463 481 1925 481 
Q 2391 481 2648 825 
Q 2906 1169 2906 1791 
z
M 3481 434 
Q 3481 -459 3084 -895 
Q 2688 -1331 1869 -1331 
Q 1566 -1331 1297 -1286 
Q 1028 -1241 775 -1147 
L 775 -588 
Q 1028 -725 1275 -790 
Q 1522 -856 1778 -856 
Q 2344 -856 2625 -561 
Q 2906 -266 2906 331 
L 2906 616 
Q 2728 306 2450 153 
Q 2172 0 1784 0 
Q 1141 0 747 490 
Q 353 981 353 1791 
Q 353 2603 747 3093 
Q 1141 3584 1784 3584 
Q 2172 3584 2450 3431 
Q 2728 3278 2906 2969 
L 2906 3500 
L 3481 3500 
L 3481 434 
z
" transform="scale(0.015625)"/>
       <path id="DejaVuSans-6b" d="M 581 4863 
L 1159 4863 
L 1159 1991 
L 2875 3500 
L 3609 3500 
L 1753 1863 
L 3688 0 
L 2938 0 
L 1159 1709 
L 1159 0 
L 581 0 
L 581 4863 
z
" transform="scale(0.015625)"/>
       <path id="DejaVuSans-68" d="M 3513 2113 
L 3513 0 
L 2938 0 
L 2938 2094 
Q 2938 2591 2744 2837 
Q 2550 3084 2163 3084 
Q 1697 3084 1428 2787 
Q 1159 2491 1159 1978 
L 1159 0 
L 581 0 
L 581 4863 
L 1159 4863 
L 1159 2956 
Q 1366 3272 1645 3428 
Q 1925 3584 2291 3584 
Q 2894 3584 3203 3211 
Q 3513 2838 3513 2113 
z
" transform="scale(0.015625)"/>
      </defs>
      <use xlink:href="#DejaVuSans-394" transform="translate(0 0.015625)"/>
      <use xlink:href="#DejaVuSans-20" transform="translate(68.408203 0.015625)"/>
      <use xlink:href="#DejaVuSans-6c" transform="translate(100.195312 0.015625)"/>
      <use xlink:href="#DejaVuSans-6f" transform="translate(127.978516 0.015625)"/>
      <use xlink:href="#DejaVuSans-67" transform="translate(189.160156 0.015625)"/>
      <use xlink:href="#DejaVuSans-20" transform="translate(252.636719 0.015625)"/>
      <use xlink:href="#DejaVuSans-6c" transform="translate(284.423828 0.015625)"/>
      <use xlink:href="#DejaVuSans-69" transform="translate(312.207031 0.015625)"/>
      <use xlink:href="#DejaVuSans-6b" transform="translate(339.990234 0.015625)"/>
      <use xlink:href="#DejaVuSans-65" transform="translate(397.900391 0.015625)"/>
      <use xlink:href="#DejaVuSans-6c" transform="translate(459.423828 0.015625)"/>
      <use xlink:href="#DejaVuSans-69" transform="translate(487.207031 0.015625)"/>
      <use xlink:href="#DejaVuSans-68" transform="translate(514.990234 0.015625)"/>
      <use xlink:href="#DejaVuSans-6f" transform="translate(578.369141 0.015625)"/>
      <use xlink:href="#DejaVuSans-6f" transform="translate(639.550781 0.015625)"/>
      <use xlink:href="#DejaVuSans-64" transform="translate(700.732422 0.015625)"/>
     </g>
    </g>
    <g id="text_23">
     <!-- $\times\mathdefault{10^{1}}\mathdefault{}$ -->
     <g transform="translate(202.236 22.92) scale(0.1 -0.1)">
      <defs>
       <path id="DejaVuSans-2212" d="M 678 2272 
L 4684 2272 
L 4684 1741 
L 678 1741 
L 678 2272 
z
" transform="scale(0.015625)"/>
      </defs>
      <use xlink:href="#DejaVuSans-d7" transform="translate(0 0.684375)"/>
      <use xlink:href="#DejaVuSans-31" transform="translate(83.789062 0.684375)"/>
      <use xlink:href="#DejaVuSans-30" transform="translate(147.412109 0.684375)"/>
      <use xlink:href="#DejaVuSans-2212" transform="translate(211.992188 38.965625) scale(0.7)"/>
      <use xlink:href="#DejaVuSans-31" transform="translate(270.644531 38.965625) scale(0.7)"/>
     </g>
    </g>
   </g>
   <g id="LineCollection_1"/>
   <g id="patch_8">
    <path d="M 225.72 192.24 
L 229.878 192.24 
L 234.036 192.24 
L 234.036 25.92 
L 229.878 25.92 
L 225.72 25.92 
L 225.72 192.24 
z
" style="fill: none; stroke: #000000; stroke-width: 0.8; stroke-linejoin: miter; stroke-linecap: square"/>
   </g>
  </g>
 </g>
 <defs>
  <clipPath id="p1649ab080d">
   <rect x="36" y="25.92" width="178.56" height="166.32"/>
  </clipPath>
  <clipPath id="p40f1b8e33f">
   <rect x="225.72" y="25.92" width="8.316" height="166.32"/>
  </clipPath>
 </defs>
</svg>
