<?xml version="1.0" encoding="utf-8" standalone="no"?>
<!DOCTYPE svg PUBLIC "-//W3C//DTD SVG 1.1//EN"
  "http://www.w3.org/Graphics/SVG/1.1/DTD/svg11.dtd">
<svg xmlns:xlink="http://www.w3.org/1999/xlink" width="288pt" height="216pt" viewBox="0 0 288 216" xmlns="http://www.w3.org/2000/svg" version="1.1">
 <metadata>
  <rdf:RDF xmlns:dc="http://purl.org/dc/elements/1.1/" xmlns:cc="http://creativecommons.org/ns#" xmlns:rdf="http://www.w3.org/1999/02/22-rdf-syntax-ns#">
   <cc:Work>
    <dc:type rdf:resource="http://purl.org/dc/dcmitype/StillImage"/>
    <dc:date>2023-07-18T17:10:24.339841</dc:date>
    <dc:format>image/svg+xml</dc:format>
    <dc:creator>
     <cc:Agent>
      <dc:title>Matplotlib v3.7.1, https://matplotlib.org/</dc:title>
     </cc:Agent>
    </dc:creator>
   </cc:Work>
  </rdf:RDF>
 </metadata>
 <defs>
  <style type="text/css">*{stroke-linejoin: round; stroke-linecap: butt}</style>
 </defs>
 <g id="figure_1">
  <g id="patch_1">
   <path d="M 0 216 
L 288 216 
L 288 0 
L 0 0 
z
" style="fill: #ffffff"/>
  </g>
  <g id="axes_1">
   <g id="patch_2">
    <path d="M 36 192.24 
L 214.56 192.24 
L 214.56 25.92 
L 36 25.92 
z
" style="fill: #ffffff"/>
   </g>
   <g id="PathCollection_1">
    <path d="M 36.371581 192.24 
L 36 192.24 
L 36 191.92404 
z
" clip-path="url(#p9288545a55)" style="fill: #440154"/>
   </g>
   <g id="PathCollection_2">
    <path d="M 38.079377 192.24 
L 36.371581 192.24 
L 36 191.92404 
L 36 190.471881 
z
" clip-path="url(#p9288545a55)" style="fill: #440154"/>
   </g>
   <g id="PathCollection_3">
    <path d="M 39.787174 192.24 
L 38.079377 192.24 
L 36 190.471881 
L 36 189.019721 
z
" clip-path="url(#p9288545a55)" style="fill: #440154"/>
   </g>
   <g id="PathCollection_4">
    <path d="M 41.49497 192.24 
L 39.787174 192.24 
L 36 189.019721 
L 36 187.567561 
z
" clip-path="url(#p9288545a55)" style="fill: #440154"/>
   </g>
   <g id="PathCollection_5">
    <path d="M 36 186.696 
L 36 186.000392 
L 36.748971 186.696 
L 41.952 191.083164 
L 43.702957 192.24 
L 41.952 192.24 
L 41.49497 192.24 
L 36 187.567561 
z
" clip-path="url(#p9288545a55)" style="fill: #440154"/>
   </g>
   <g id="PathCollection_6">
    <path d="M 36.748971 186.696 
L 36 186.000392 
L 36 184.260577 
L 38.622256 186.696 
L 41.952 189.503621 
L 46.093713 192.24 
L 43.702957 192.24 
L 41.952 191.083164 
z
" clip-path="url(#p9288545a55)" style="fill: #440154"/>
   </g>
   <g id="PathCollection_7">
    <path d="M 38.622256 186.696 
L 36 184.260577 
L 36 182.520761 
L 40.495541 186.696 
L 41.952 187.924078 
L 47.904 191.828107 
L 48.683723 192.24 
L 47.904 192.24 
L 46.093713 192.24 
L 41.952 189.503621 
z
" clip-path="url(#p9288545a55)" style="fill: #440154"/>
   </g>
   <g id="PathCollection_8">
    <path d="M 40.495541 186.696 
L 36 182.520761 
L 36 181.152 
L 36 180.712538 
L 36.437789 181.152 
L 41.952 186.271908 
L 42.541211 186.696 
L 47.904 190.131663 
L 51.895136 192.24 
L 48.683723 192.24 
L 47.904 191.828107 
L 41.952 187.924078 
z
" clip-path="url(#p9288545a55)" style="fill: #440154"/>
   </g>
   <g id="PathCollection_9">
    <path d="M 36.437789 181.152 
L 36 180.712538 
L 36 178.651966 
L 38.490512 181.152 
L 41.952 184.365968 
L 45.189223 186.696 
L 47.904 188.435218 
L 53.856 191.537517 
L 55.482417 192.24 
L 53.856 192.24 
L 51.895136 192.24 
L 47.904 190.131663 
L 42.541211 186.696 
L 41.952 186.271908 
z
" clip-path="url(#p9288545a55)" style="fill: #440154"/>
   </g>
   <g id="PathCollection_10">
    <path d="M 38.490512 181.152 
L 36 178.651966 
L 36 176.591394 
L 40.543236 181.152 
L 41.952 182.460027 
L 47.837235 186.696 
L 47.904 186.738773 
L 53.856 189.733539 
L 59.659061 192.24 
L 55.482417 192.24 
L 53.856 191.537517 
L 47.904 188.435218 
L 45.189223 186.696 
L 41.952 184.365968 
z
" clip-path="url(#p9288545a55)" style="fill: #440154"/>
   </g>
   <g id="PathCollection_11">
    <path d="M 40.543236 181.152 
L 36 176.591394 
L 36 175.608 
L 36 174.333692 
L 37.17587 175.608 
L 41.952 180.438342 
L 42.872249 181.152 
L 47.904 184.687069 
L 51.402117 186.696 
L 53.856 187.929561 
L 59.808 190.404681 
L 64.913581 192.24 
L 59.808 192.24 
L 59.659061 192.24 
L 53.856 189.733539 
L 47.904 186.738773 
L 47.837235 186.696 
L 41.952 182.460027 
z
" clip-path="url(#p9288545a55)" style="fill: #440154"/>
    <path d="M 191.627615 25.92 
L 196.704 25.92 
L 202.656 25.92 
L 208.608 25.92 
L 214.56 25.92 
L 214.56 30.097113 
L 208.608 29.104201 
L 202.656 28.05158 
L 196.704 26.93369 
z
" clip-path="url(#p9288545a55)" style="fill: #440154"/>
   </g>
   <g id="PathCollection_12">
    <path d="M 37.17587 175.608 
L 36 174.333692 
L 36 171.896022 
L 39.425235 175.608 
L 41.952 178.163445 
L 45.805685 181.152 
L 47.904 182.626176 
L 53.856 185.998595 
L 55.343919 186.696 
L 59.808 188.501494 
L 65.76 190.56397 
L 71.281091 192.24 
L 65.76 192.24 
L 64.913581 192.24 
L 59.808 190.404681 
L 53.856 187.929561 
L 51.402117 186.696 
L 47.904 184.687069 
L 42.872249 181.152 
L 41.952 180.438342 
z
" clip-path="url(#p9288545a55)" style="fill: #440154"/>
    <path d="M 157.171959 25.92 
L 160.992 25.92 
L 166.944 25.92 
L 172.896 25.92 
L 178.848 25.92 
L 184.8 25.92 
L 190.752 25.92 
L 191.627615 25.92 
L 196.704 26.93369 
L 202.656 28.05158 
L 208.608 29.104201 
L 214.56 30.097113 
L 214.56 31.464 
L 214.56 37.008 
L 214.56 38.222013 
L 208.608 37.276447 
L 207.009069 37.008 
L 202.656 36.269759 
L 196.704 35.199008 
L 190.752 34.059631 
L 184.8 32.8448 
L 178.848 31.54675 
L 178.491552 31.464 
L 172.896 30.149164 
L 166.944 28.648855 
L 160.992 27.03465 
z
" clip-path="url(#p9288545a55)" style="fill: #440154"/>
   </g>
   <g id="PathCollection_13">
    <path d="M 39.425235 175.608 
L 36 171.896022 
L 36 170.064 
L 36 169.347188 
L 36.612795 170.064 
L 41.674601 175.608 
L 41.952 175.888548 
L 47.904 180.44647 
L 49.047286 181.152 
L 53.856 183.793012 
L 59.808 186.575837 
L 60.116549 186.696 
L 65.76 188.569003 
L 71.712 190.296297 
L 77.664 191.82585 
L 79.510852 192.24 
L 77.664 192.24 
L 71.712 192.24 
L 71.281091 192.24 
L 65.76 190.56397 
L 59.808 188.501494 
L 55.343919 186.696 
L 53.856 185.998595 
L 47.904 182.626176 
L 45.805685 181.152 
L 41.952 178.163445 
z
" clip-path="url(#p9288545a55)" style="fill: #46075a"/>
    <path d="M 131.786397 25.92 
L 137.184 25.92 
L 143.136 25.92 
L 149.088 25.92 
L 155.04 25.92 
L 157.171959 25.92 
L 160.992 27.03465 
L 166.944 28.648855 
L 172.896 30.149164 
L 178.491552 31.464 
L 178.848 31.54675 
L 184.8 32.8448 
L 190.752 34.059631 
L 196.704 35.199008 
L 202.656 36.269759 
L 207.009069 37.008 
L 208.608 37.276447 
L 214.56 38.222013 
L 214.56 42.552 
L 214.56 46.283727 
L 208.608 45.378932 
L 202.656 44.419269 
L 196.704 43.399577 
L 192.051065 42.552 
L 190.752 42.313204 
L 184.8 41.15146 
L 178.848 39.909998 
L 172.896 38.5803 
L 166.944 37.152587 
L 166.380173 37.008 
L 160.992 35.61021 
L 155.04 33.945266 
L 149.088 32.143256 
L 147.009055 31.464 
L 143.136 30.180846 
L 137.184 28.040149 
z
" clip-path="url(#p9288545a55)" style="fill: #46075a"/>
   </g>
   <g id="PathCollection_14">
    <path d="M 41.674601 175.608 
L 36.612795 170.064 
L 36 169.347188 
L 36 166.462097 
L 39.07923 170.064 
L 41.952 173.227162 
L 44.804819 175.608 
L 47.904 177.968233 
L 53.063177 181.152 
L 53.856 181.587429 
L 59.808 184.234897 
L 65.76 186.545128 
L 66.219467 186.696 
L 71.712 188.216202 
L 77.664 189.666608 
L 83.616 190.959011 
L 89.568 192.119362 
L 90.269639 192.24 
L 89.568 192.24 
L 83.616 192.24 
L 79.510852 192.24 
L 77.664 191.82585 
L 71.712 190.296297 
L 65.76 188.569003 
L 60.116549 186.696 
L 59.808 186.575837 
L 53.856 183.793012 
L 49.047286 181.152 
L 47.904 180.44647 
L 41.952 175.888548 
z
" clip-path="url(#p9288545a55)" style="fill: #482576"/>
    <path d="M 112.270086 25.92 
L 113.376 25.92 
L 119.328 25.92 
L 125.28 25.92 
L 131.232 25.92 
L 131.786397 25.92 
L 137.184 28.040149 
L 143.136 30.180846 
L 147.009055 31.464 
L 149.088 32.143256 
L 155.04 33.945266 
L 160.992 35.61021 
L 166.380173 37.008 
L 166.944 37.152587 
L 172.896 38.5803 
L 178.848 39.909998 
L 184.8 41.15146 
L 190.752 42.313204 
L 192.051065 42.552 
L 196.704 43.399577 
L 202.656 44.419269 
L 208.608 45.378932 
L 214.56 46.283727 
L 214.56 48.096 
L 214.56 53.64 
L 214.56 54.311298 
L 209.927558 53.64 
L 208.608 53.447728 
L 202.656 52.531233 
L 196.704 51.557294 
L 190.752 50.520318 
L 184.8 49.413963 
L 178.848 48.230997 
L 178.210188 48.096 
L 172.896 46.961999 
L 166.944 45.599092 
L 160.992 44.131629 
L 155.058437 42.552 
L 155.04 42.54704 
L 149.088 40.827924 
L 143.136 38.960888 
L 137.421651 37.008 
L 137.184 36.925695 
L 131.232 34.694182 
L 125.28 32.243977 
L 123.545401 31.464 
L 119.328 29.535729 
L 113.376 26.533043 
z
" clip-path="url(#p9288545a55)" style="fill: #482576"/>
   </g>
   <g id="PathCollection_15">
    <path d="M 39.07923 170.064 
L 36 166.462097 
L 36 164.52 
L 36 163.40219 
L 36.885007 164.52 
L 41.545665 170.064 
L 41.952 170.511409 
L 47.904 175.465879 
L 48.118618 175.608 
L 53.856 179.008172 
L 58.122934 181.152 
L 59.808 181.893957 
L 65.76 184.077338 
L 71.712 185.999701 
L 74.196112 186.696 
L 77.664 187.507366 
L 83.616 188.726012 
L 89.568 189.81748 
L 95.52 190.801663 
L 101.472 191.694382 
L 105.491831 192.24 
L 101.472 192.24 
L 95.52 192.24 
L 90.269639 192.24 
L 89.568 192.119362 
L 83.616 190.959011 
L 77.664 189.666608 
L 71.712 188.216202 
L 66.219467 186.696 
L 65.76 186.545128 
L 59.808 184.234897 
L 53.856 181.587429 
L 53.063177 181.152 
L 47.904 177.968233 
L 44.804819 175.608 
L 41.952 173.227162 
z
" clip-path="url(#p9288545a55)" style="fill: #424086"/>
    <path d="M 96.662776 25.92 
L 101.472 25.92 
L 107.424 25.92 
L 112.270086 25.92 
L 113.376 26.533043 
L 119.328 29.535729 
L 123.545401 31.464 
L 125.28 32.243977 
L 131.232 34.694182 
L 137.184 36.925695 
L 137.421651 37.008 
L 143.136 38.960888 
L 149.088 40.827924 
L 155.04 42.54704 
L 155.058437 42.552 
L 160.992 44.131629 
L 166.944 45.599092 
L 172.896 46.961999 
L 178.210188 48.096 
L 178.848 48.230997 
L 184.8 49.413963 
L 190.752 50.520318 
L 196.704 51.557294 
L 202.656 52.531233 
L 208.608 53.447728 
L 209.927558 53.64 
L 214.56 54.311298 
L 214.56 59.184 
L 214.56 62.334517 
L 208.608 61.510778 
L 202.656 60.6365 
L 196.704 59.706865 
L 193.552485 59.184 
L 190.752 58.717601 
L 184.8 57.663255 
L 178.848 56.535721 
L 172.896 55.327069 
L 166.944 54.028174 
L 165.283001 53.64 
L 160.992 52.63023 
L 155.04 51.121044 
L 149.088 49.486041 
L 144.422231 48.096 
L 143.136 47.708993 
L 137.184 45.772257 
L 131.232 43.652614 
L 128.400343 42.552 
L 125.28 41.322881 
L 119.328 38.752109 
L 115.664167 37.008 
L 113.376 35.900524 
L 107.424 32.721652 
L 105.296765 31.464 
L 101.472 29.155988 
z
" clip-path="url(#p9288545a55)" style="fill: #424086"/>
   </g>
   <g id="PathCollection_16">
    <path d="M 41.545665 170.064 
L 36.885007 164.52 
L 36 163.40219 
L 36 159.982248 
L 39.592687 164.52 
L 41.952 167.350616 
L 44.974 170.064 
L 47.904 172.481129 
L 52.625907 175.608 
L 53.856 176.336996 
L 59.808 179.202287 
L 64.489303 181.152 
L 65.76 181.609549 
L 71.712 183.412835 
L 77.664 185.011296 
L 83.616 186.441083 
L 84.826531 186.696 
L 89.568 187.515597 
L 95.52 188.435313 
L 101.472 189.267578 
L 107.424 190.024793 
L 113.376 190.717063 
L 119.328 191.352711 
L 125.28 191.93866 
L 128.613661 192.24 
L 125.28 192.24 
L 119.328 192.24 
L 113.376 192.24 
L 107.424 192.24 
L 105.491831 192.24 
L 101.472 191.694382 
L 95.52 190.801663 
L 89.568 189.81748 
L 83.616 188.726012 
L 77.664 187.507366 
L 74.196112 186.696 
L 71.712 185.999701 
L 65.76 184.077338 
L 59.808 181.893957 
L 58.122934 181.152 
L 53.856 179.008172 
L 48.118618 175.608 
L 47.904 175.465879 
L 41.952 170.511409 
z
" clip-path="url(#p9288545a55)" style="fill: #38598c"/>
    <path d="M 83.764115 25.92 
L 89.568 25.92 
L 95.52 25.92 
L 96.662776 25.92 
L 101.472 29.155988 
L 105.296765 31.464 
L 107.424 32.721652 
L 113.376 35.900524 
L 115.664167 37.008 
L 119.328 38.752109 
L 125.28 41.322881 
L 128.400343 42.552 
L 131.232 43.652614 
L 137.184 45.772257 
L 143.136 47.708993 
L 144.422231 48.096 
L 149.088 49.486041 
L 155.04 51.121044 
L 160.992 52.63023 
L 165.283001 53.64 
L 166.944 54.028174 
L 172.896 55.327069 
L 178.848 56.535721 
L 184.8 57.663255 
L 190.752 58.717601 
L 193.552485 59.184 
L 196.704 59.706865 
L 202.656 60.6365 
L 208.608 61.510778 
L 214.56 62.334517 
L 214.56 64.728 
L 214.56 70.272 
L 214.56 70.389553 
L 213.66912 70.272 
L 208.608 69.605288 
L 202.656 68.77366 
L 196.704 67.889219 
L 190.752 66.94674 
L 184.8 65.940284 
L 178.848 64.863066 
L 178.147398 64.728 
L 172.896 63.7137 
L 166.944 62.47913 
L 160.992 61.148463 
L 155.04 59.709944 
L 153.019322 59.184 
L 149.088 58.155099 
L 143.136 56.467215 
L 137.184 54.625164 
L 134.259264 53.64 
L 131.232 52.610845 
L 125.28 50.400081 
L 119.659911 48.096 
L 119.328 47.958188 
L 113.376 45.25556 
L 108.028572 42.552 
L 107.424 42.241233 
L 101.472 38.866165 
L 98.535285 37.008 
L 95.52 35.059097 
L 90.548811 31.464 
L 89.568 30.737024 
z
" clip-path="url(#p9288545a55)" style="fill: #38598c"/>
   </g>
   <g id="PathCollection_17">
    <path d="M 39.592687 164.52 
L 36 159.982248 
L 36 158.976 
L 36 156.106995 
L 38.101527 158.976 
L 41.952 164.01832 
L 42.47117 164.52 
L 47.904 169.377823 
L 48.870069 170.064 
L 53.856 173.248752 
L 58.243781 175.608 
L 59.808 176.347872 
L 65.76 178.684929 
L 71.712 180.749409 
L 73.061134 181.152 
L 77.664 182.31247 
L 83.616 183.636823 
L 89.568 184.826177 
L 95.52 185.901687 
L 100.378244 186.696 
L 101.472 186.840774 
L 107.424 187.541192 
L 113.376 188.180004 
L 119.328 188.765252 
L 125.28 189.303605 
L 131.232 189.800652 
L 137.184 190.261108 
L 143.136 190.688982 
L 149.088 191.087708 
L 155.04 191.460246 
L 160.992 191.809158 
L 166.944 192.136678 
L 168.954511 192.24 
L 166.944 192.24 
L 160.992 192.24 
L 155.04 192.24 
L 149.088 192.24 
L 143.136 192.24 
L 137.184 192.24 
L 131.232 192.24 
L 128.613661 192.24 
L 125.28 191.93866 
L 119.328 191.352711 
L 113.376 190.717063 
L 107.424 190.024793 
L 101.472 189.267578 
L 95.52 188.435313 
L 89.568 187.515597 
L 84.826531 186.696 
L 83.616 186.441083 
L 77.664 185.011296 
L 71.712 183.412835 
L 65.76 181.609549 
L 64.489303 181.152 
L 59.808 179.202287 
L 53.856 176.336996 
L 52.625907 175.608 
L 47.904 172.481129 
L 44.974 170.064 
L 41.952 167.350616 
z
" clip-path="url(#p9288545a55)" style="fill: #2e6f8e"/>
    <path d="M 72.875399 25.92 
L 77.664 25.92 
L 83.616 25.92 
L 83.764115 25.92 
L 89.568 30.737024 
L 90.548811 31.464 
L 95.52 35.059097 
L 98.535285 37.008 
L 101.472 38.866165 
L 107.424 42.241233 
L 108.028572 42.552 
L 113.376 45.25556 
L 119.328 47.958188 
L 119.659911 48.096 
L 125.28 50.400081 
L 131.232 52.610845 
L 134.259264 53.64 
L 137.184 54.625164 
L 143.136 56.467215 
L 149.088 58.155099 
L 153.019322 59.184 
L 155.04 59.709944 
L 160.992 61.148463 
L 166.944 62.47913 
L 172.896 63.7137 
L 178.147398 64.728 
L 178.848 64.863066 
L 184.8 65.940284 
L 190.752 66.94674 
L 196.704 67.889219 
L 202.656 68.77366 
L 208.608 69.605288 
L 213.66912 70.272 
L 214.56 70.389553 
L 214.56 75.816 
L 214.56 78.540834 
L 208.608 77.791332 
L 202.656 76.995056 
L 196.704 76.147455 
L 194.511678 75.816 
L 190.752 75.250306 
L 184.8 74.296202 
L 178.848 73.274774 
L 172.896 72.178577 
L 166.944 70.999016 
L 163.529932 70.272 
L 160.992 69.731878 
L 155.04 68.369607 
L 149.088 66.891756 
L 143.136 65.282811 
L 141.240896 64.728 
L 137.184 63.53564 
L 131.232 61.625908 
L 125.28 59.523135 
L 124.3998 59.184 
L 119.328 57.21281 
L 113.376 54.649072 
L 111.25211 53.64 
L 107.424 51.797021 
L 101.472 48.601205 
L 100.622205 48.096 
L 95.52 45.005874 
L 91.908807 42.552 
L 89.568 40.925297 
L 84.545072 37.008 
L 83.616 36.263931 
L 78.274968 31.464 
L 77.664 30.897559 
z
" clip-path="url(#p9288545a55)" style="fill: #2e6f8e"/>
   </g>
   <g id="PathCollection_18">
    <path d="M 38.101527 158.976 
L 36 156.106995 
L 36 153.432 
L 36 151.772924 
L 37.122276 153.432 
L 41.079163 158.976 
L 41.952 160.119009 
L 46.506417 164.52 
L 47.904 165.769664 
L 53.856 169.990662 
L 53.983552 170.064 
L 59.808 173.018017 
L 65.634488 175.608 
L 65.76 175.65633 
L 71.712 177.555092 
L 77.664 179.24126 
L 83.616 180.753023 
L 85.403721 181.152 
L 89.568 181.922476 
L 95.52 182.90406 
L 101.472 183.793655 
L 107.424 184.604365 
L 113.376 185.346839 
L 119.328 186.029828 
L 125.28 186.660599 
L 125.64723 186.696 
L 131.232 187.120582 
L 137.184 187.538399 
L 143.136 187.92583 
L 149.088 188.286146 
L 155.04 188.622155 
L 160.992 188.936287 
L 166.944 189.230654 
L 172.896 189.507101 
L 178.848 189.767245 
L 184.8 190.012515 
L 190.752 190.244173 
L 196.704 190.463341 
L 202.656 190.67102 
L 208.608 190.868104 
L 214.56 191.055397 
L 214.56 192.24 
L 208.608 192.24 
L 202.656 192.24 
L 196.704 192.24 
L 190.752 192.24 
L 184.8 192.24 
L 178.848 192.24 
L 172.896 192.24 
L 168.954511 192.24 
L 166.944 192.136678 
L 160.992 191.809158 
L 155.04 191.460246 
L 149.088 191.087708 
L 143.136 190.688982 
L 137.184 190.261108 
L 131.232 189.800652 
L 125.28 189.303605 
L 119.328 188.765252 
L 113.376 188.180004 
L 107.424 187.541192 
L 101.472 186.840774 
L 100.378244 186.696 
L 95.52 185.901687 
L 89.568 184.826177 
L 83.616 183.636823 
L 77.664 182.31247 
L 73.061134 181.152 
L 71.712 180.749409 
L 65.76 178.684929 
L 59.808 176.347872 
L 58.243781 175.608 
L 53.856 173.248752 
L 48.870069 170.064 
L 47.904 169.377823 
L 42.47117 164.52 
L 41.952 164.01832 
z
" clip-path="url(#p9288545a55)" style="fill: #26828e"/>
    <path d="M 63.332327 25.92 
L 65.76 25.92 
L 71.712 25.92 
L 72.875399 25.92 
L 77.664 30.897559 
L 78.274968 31.464 
L 83.616 36.263931 
L 84.545072 37.008 
L 89.568 40.925297 
L 91.908807 42.552 
L 95.52 45.005874 
L 100.622205 48.096 
L 101.472 48.601205 
L 107.424 51.797021 
L 111.25211 53.64 
L 113.376 54.649072 
L 119.328 57.21281 
L 124.3998 59.184 
L 125.28 59.523135 
L 131.232 61.625908 
L 137.184 63.53564 
L 141.240896 64.728 
L 143.136 65.282811 
L 149.088 66.891756 
L 155.04 68.369607 
L 160.992 69.731878 
L 163.529932 70.272 
L 166.944 70.999016 
L 172.896 72.178577 
L 178.848 73.274774 
L 184.8 74.296202 
L 190.752 75.250306 
L 194.511678 75.816 
L 196.704 76.147455 
L 202.656 76.995056 
L 208.608 77.791332 
L 214.56 78.540834 
L 214.56 81.36 
L 214.56 86.832629 
L 208.608 86.124618 
L 202.656 85.372233 
L 196.704 84.571133 
L 190.752 83.716382 
L 184.8 82.80235 
L 178.848 81.822582 
L 176.218933 81.36 
L 172.896 80.780378 
L 166.944 79.667363 
L 160.992 78.465881 
L 155.04 77.164817 
L 149.358069 75.816 
L 149.088 75.752118 
L 143.136 74.236104 
L 137.184 72.578622 
L 131.232 70.758593 
L 129.770863 70.272 
L 125.28 68.773218 
L 119.328 66.58298 
L 114.77835 64.728 
L 113.376 64.15212 
L 107.424 61.459347 
L 102.92897 59.184 
L 101.472 58.43708 
L 95.52 55.044314 
L 93.319107 53.64 
L 89.568 51.199898 
L 85.328411 48.096 
L 83.616 46.811712 
L 78.565402 42.552 
L 77.664 41.76912 
L 72.781271 37.008 
L 71.712 35.927943 
L 67.762679 31.464 
L 65.76 29.102616 
z
" clip-path="url(#p9288545a55)" style="fill: #26828e"/>
   </g>
   <g id="PathCollection_19">
    <path d="M 41.079163 158.976 
L 37.122276 153.432 
L 36 151.772924 
L 36 147.888 
L 36 146.727478 
L 36.722895 147.888 
L 40.404211 153.432 
L 41.952 155.650624 
L 45.146159 158.976 
L 47.904 161.652942 
L 51.666953 164.52 
L 53.856 166.027148 
L 59.808 169.394895 
L 61.220115 170.064 
L 65.76 171.928342 
L 71.712 174.056167 
L 76.611565 175.608 
L 77.664 175.889141 
L 83.616 177.250507 
L 89.568 178.473452 
L 95.52 179.580112 
L 101.472 180.58794 
L 105.153881 181.152 
L 107.424 181.433737 
L 113.376 182.09639 
L 119.328 182.703573 
L 125.28 183.262261 
L 131.232 183.778282 
L 137.184 184.256541 
L 143.136 184.701202 
L 149.088 185.115824 
L 155.04 185.503468 
L 160.992 185.866782 
L 166.944 186.208071 
L 172.896 186.52935 
L 176.18734 186.696 
L 178.848 186.799362 
L 184.8 187.015731 
L 190.752 187.219726 
L 196.704 187.412391 
L 202.656 187.594655 
L 208.608 187.767348 
L 214.56 187.931212 
L 214.56 191.055397 
L 208.608 190.868104 
L 202.656 190.67102 
L 196.704 190.463341 
L 190.752 190.244173 
L 184.8 190.012515 
L 178.848 189.767245 
L 172.896 189.507101 
L 166.944 189.230654 
L 160.992 188.936287 
L 155.04 188.622155 
L 149.088 188.286146 
L 143.136 187.92583 
L 137.184 187.538399 
L 131.232 187.120582 
L 125.64723 186.696 
L 125.28 186.660599 
L 119.328 186.029828 
L 113.376 185.346839 
L 107.424 184.604365 
L 101.472 183.793655 
L 95.52 182.90406 
L 89.568 181.922476 
L 85.403721 181.152 
L 83.616 180.753023 
L 77.664 179.24126 
L 71.712 177.555092 
L 65.76 175.65633 
L 65.634488 175.608 
L 59.808 173.018017 
L 53.983552 170.064 
L 53.856 169.990662 
L 47.904 165.769664 
L 46.506417 164.52 
L 41.952 160.119009 
z
" clip-path="url(#p9288545a55)" style="fill: #1f978b"/>
    <path d="M 58.340087 31.464 
L 54.614129 25.92 
L 59.808 25.92 
L 63.332327 25.92 
L 65.76 29.102616 
L 67.762679 31.464 
L 71.712 35.927943 
L 72.781271 37.008 
L 77.664 41.76912 
L 78.565402 42.552 
L 83.616 46.811712 
L 85.328411 48.096 
L 89.568 51.199898 
L 93.319107 53.64 
L 95.52 55.044314 
L 101.472 58.43708 
L 102.92897 59.184 
L 107.424 61.459347 
L 113.376 64.15212 
L 114.77835 64.728 
L 119.328 66.58298 
L 125.28 68.773218 
L 129.770863 70.272 
L 131.232 70.758593 
L 137.184 72.578622 
L 143.136 74.236104 
L 149.088 75.752118 
L 149.358069 75.816 
L 155.04 77.164817 
L 160.992 78.465881 
L 166.944 79.667363 
L 172.896 80.780378 
L 176.218933 81.36 
L 178.848 81.822582 
L 184.8 82.80235 
L 190.752 83.716382 
L 196.704 84.571133 
L 202.656 85.372233 
L 208.608 86.124618 
L 214.56 86.832629 
L 214.56 86.904 
L 214.56 92.448 
L 214.56 95.414148 
L 208.608 94.73372 
L 202.656 94.009692 
L 196.704 93.237681 
L 191.004548 92.448 
L 190.752 92.413698 
L 184.8 91.555853 
L 178.848 90.635978 
L 172.896 89.646997 
L 166.944 88.580699 
L 160.992 87.427495 
L 158.482946 86.904 
L 155.04 86.195257 
L 149.088 84.870247 
L 143.136 83.424434 
L 137.184 81.84017 
L 135.524162 81.36 
L 131.232 80.126683 
L 125.28 78.247564 
L 119.328 76.162094 
L 118.426014 75.816 
L 113.376 73.877809 
L 107.424 71.325597 
L 105.209954 70.272 
L 101.472 68.480785 
L 95.52 65.275138 
L 94.606816 64.728 
L 89.568 61.664183 
L 85.957639 59.184 
L 83.616 57.542064 
L 78.681709 53.64 
L 77.664 52.813487 
L 72.499769 48.096 
L 71.712 47.351949 
L 67.173619 42.552 
L 65.76 40.993909 
L 62.504569 37.008 
L 59.808 33.53387 
z
" clip-path="url(#p9288545a55)" style="fill: #1f978b"/>
   </g>
   <g id="PathCollection_20">
    <path d="M 40.404211 153.432 
L 36.722895 147.888 
L 36 146.727478 
L 36 142.344 
L 36 140.601535 
L 36.995276 142.344 
L 40.350605 147.888 
L 41.952 150.411455 
L 44.63942 153.432 
L 47.904 156.881662 
L 50.464201 158.976 
L 53.856 161.495501 
L 58.776837 164.52 
L 59.808 165.080323 
L 65.76 167.726732 
L 71.659586 170.064 
L 71.712 170.081706 
L 77.664 171.758502 
L 83.616 173.259709 
L 89.568 174.615744 
L 94.393076 175.608 
L 95.52 175.797147 
L 101.472 176.674071 
L 107.424 177.471829 
L 113.376 178.201405 
L 119.328 178.871776 
L 125.28 179.490363 
L 131.232 180.063352 
L 137.184 180.595951 
L 143.136 181.092574 
L 143.910869 181.152 
L 149.088 181.461459 
L 155.04 181.792119 
L 160.992 182.100901 
L 166.944 182.389954 
L 172.896 182.661152 
L 178.848 182.916137 
L 184.8 183.156351 
L 190.752 183.38307 
L 196.704 183.597422 
L 202.656 183.800413 
L 208.608 183.992941 
L 214.56 184.175811 
L 214.56 186.696 
L 214.56 187.931212 
L 208.608 187.767348 
L 202.656 187.594655 
L 196.704 187.412391 
L 190.752 187.219726 
L 184.8 187.015731 
L 178.848 186.799362 
L 176.18734 186.696 
L 172.896 186.52935 
L 166.944 186.208071 
L 160.992 185.866782 
L 155.04 185.503468 
L 149.088 185.115824 
L 143.136 184.701202 
L 137.184 184.256541 
L 131.232 183.778282 
L 125.28 183.262261 
L 119.328 182.703573 
L 113.376 182.09639 
L 107.424 181.433737 
L 105.153881 181.152 
L 101.472 180.58794 
L 95.52 179.580112 
L 89.568 178.473452 
L 83.616 177.250507 
L 77.664 175.889141 
L 76.611565 175.608 
L 71.712 174.056167 
L 65.76 171.928342 
L 61.220115 170.064 
L 59.808 169.394895 
L 53.856 166.027148 
L 51.666953 164.52 
L 47.904 161.652942 
L 45.146159 158.976 
L 41.952 155.650624 
z
" clip-path="url(#p9288545a55)" style="fill: #25ac82"/>
    <path d="M 46.06904 25.92 
L 47.904 25.92 
L 53.856 25.92 
L 54.614129 25.92 
L 58.340087 31.464 
L 59.808 33.53387 
L 62.504569 37.008 
L 65.76 40.993909 
L 67.173619 42.552 
L 71.712 47.351949 
L 72.499769 48.096 
L 77.664 52.813487 
L 78.681709 53.64 
L 83.616 57.542064 
L 85.957639 59.184 
L 89.568 61.664183 
L 94.606816 64.728 
L 95.52 65.275138 
L 101.472 68.480785 
L 105.209954 70.272 
L 107.424 71.325597 
L 113.376 73.877809 
L 118.426014 75.816 
L 119.328 76.162094 
L 125.28 78.247564 
L 131.232 80.126683 
L 135.524162 81.36 
L 137.184 81.84017 
L 143.136 83.424434 
L 149.088 84.870247 
L 155.04 86.195257 
L 158.482946 86.904 
L 160.992 87.427495 
L 166.944 88.580699 
L 172.896 89.646997 
L 178.848 90.635978 
L 184.8 91.555853 
L 190.752 92.413698 
L 191.004548 92.448 
L 196.704 93.237681 
L 202.656 94.009692 
L 208.608 94.73372 
L 214.56 95.414148 
L 214.56 97.992 
L 214.56 103.536 
L 214.56 104.402186 
L 208.608 103.740597 
L 206.870064 103.536 
L 202.656 103.05773 
L 196.704 102.338943 
L 190.752 101.57046 
L 184.8 100.746849 
L 178.848 99.861843 
L 172.896 98.908164 
L 167.598421 97.992 
L 166.944 97.881954 
L 160.992 96.810622 
L 155.04 95.647454 
L 149.088 94.379822 
L 143.136 92.992607 
L 140.984692 92.448 
L 137.184 91.504478 
L 131.232 89.887134 
L 125.28 88.09629 
L 121.688599 86.904 
L 119.328 86.128966 
L 113.376 83.974624 
L 107.424 81.550931 
L 106.998218 81.36 
L 101.472 78.885942 
L 95.52 75.856794 
L 95.447588 75.816 
L 89.568 72.477632 
L 86.147793 70.272 
L 83.616 68.614512 
L 78.372957 64.728 
L 77.664 64.190532 
L 71.808028 59.184 
L 71.712 59.099364 
L 66.186056 53.64 
L 65.76 53.202108 
L 61.283211 48.096 
L 59.808 46.326329 
L 56.921665 42.552 
L 53.856 38.276382 
L 52.992289 37.008 
L 49.425394 31.464 
L 47.904 28.933298 
z
" clip-path="url(#p9288545a55)" style="fill: #25ac82"/>
   </g>
   <g id="PathCollection_21">
    <path d="M 40.350605 147.888 
L 36.995276 142.344 
L 36 140.601535 
L 36 136.8 
L 36 132.834816 
L 38.064234 136.8 
L 41.019451 142.344 
L 41.952 143.969641 
L 45.170042 147.888 
L 47.904 151.047542 
L 50.613423 153.432 
L 53.856 156.036489 
L 58.328089 158.976 
L 59.808 159.837448 
L 65.76 162.68214 
L 70.135074 164.52 
L 71.712 165.082759 
L 77.664 166.876665 
L 83.616 168.490347 
L 89.568 169.956194 
L 90.069487 170.064 
L 95.52 171.008868 
L 101.472 171.940148 
L 107.424 172.789005 
L 113.376 173.567031 
L 119.328 174.283673 
L 125.28 174.94671 
L 131.232 175.562612 
L 131.714564 175.608 
L 137.184 176.004854 
L 143.136 176.403913 
L 149.088 176.774488 
L 155.04 177.119613 
L 160.992 177.441903 
L 166.944 177.743619 
L 172.896 178.026731 
L 178.848 178.292958 
L 184.8 178.543813 
L 190.752 178.78063 
L 196.704 179.004589 
L 202.656 179.216741 
L 208.608 179.418023 
L 214.56 179.609272 
L 214.56 181.152 
L 214.56 184.175811 
L 208.608 183.992941 
L 202.656 183.800413 
L 196.704 183.597422 
L 190.752 183.38307 
L 184.8 183.156351 
L 178.848 182.916137 
L 172.896 182.661152 
L 166.944 182.389954 
L 160.992 182.100901 
L 155.04 181.792119 
L 149.088 181.461459 
L 143.910869 181.152 
L 143.136 181.092574 
L 137.184 180.595951 
L 131.232 180.063352 
L 125.28 179.490363 
L 119.328 178.871776 
L 113.376 178.201405 
L 107.424 177.471829 
L 101.472 176.674071 
L 95.52 175.797147 
L 94.393076 175.608 
L 89.568 174.615744 
L 83.616 173.259709 
L 77.664 171.758502 
L 71.712 170.081706 
L 71.659586 170.064 
L 65.76 167.726732 
L 59.808 165.080323 
L 58.776837 164.52 
L 53.856 161.495501 
L 50.464201 158.976 
L 47.904 156.881662 
L 44.63942 153.432 
L 41.952 150.411455 
z
" clip-path="url(#p9288545a55)" style="fill: #44bf70"/>
    <path d="M 38.977508 31.464 
L 36 27.116856 
L 36 25.92 
L 41.952 25.92 
L 46.06904 25.92 
L 47.904 28.933298 
L 49.425394 31.464 
L 52.992289 37.008 
L 53.856 38.276382 
L 56.921665 42.552 
L 59.808 46.326329 
L 61.283211 48.096 
L 65.76 53.202108 
L 66.186056 53.64 
L 71.712 59.099364 
L 71.808028 59.184 
L 77.664 64.190532 
L 78.372957 64.728 
L 83.616 68.614512 
L 86.147793 70.272 
L 89.568 72.477632 
L 95.447588 75.816 
L 95.52 75.856794 
L 101.472 78.885942 
L 106.998218 81.36 
L 107.424 81.550931 
L 113.376 83.974624 
L 119.328 86.128966 
L 121.688599 86.904 
L 125.28 88.09629 
L 131.232 89.887134 
L 137.184 91.504478 
L 140.984692 92.448 
L 143.136 92.992607 
L 149.088 94.379822 
L 155.04 95.647454 
L 160.992 96.810622 
L 166.944 97.881954 
L 167.598421 97.992 
L 172.896 98.908164 
L 178.848 99.861843 
L 184.8 100.746849 
L 190.752 101.57046 
L 196.704 102.338943 
L 202.656 103.05773 
L 206.870064 103.536 
L 208.608 103.740597 
L 214.56 104.402186 
L 214.56 109.08 
L 214.56 114.134963 
L 208.608 113.528211 
L 202.656 112.880838 
L 196.704 112.188525 
L 190.752 111.446302 
L 184.8 110.648419 
L 178.848 109.788181 
L 174.301414 109.08 
L 172.896 108.87201 
L 166.944 107.929045 
L 160.992 106.905563 
L 155.04 105.790433 
L 149.088 104.570305 
L 144.476439 103.536 
L 143.136 103.246952 
L 137.184 101.855414 
L 131.232 100.316481 
L 125.28 98.604316 
L 123.342307 97.992 
L 119.328 96.757977 
L 113.376 94.722017 
L 107.496631 92.448 
L 107.424 92.42037 
L 101.472 89.927728 
L 95.52 87.072416 
L 95.203315 86.904 
L 89.568 83.916286 
L 85.35509 81.36 
L 83.616 80.297825 
L 77.664 76.177614 
L 77.19685 75.816 
L 71.712 71.474163 
L 70.360836 70.272 
L 65.76 66.035438 
L 64.478176 64.728 
L 59.808 59.728861 
L 59.336975 59.184 
L 54.777241 53.64 
L 53.856 52.453122 
L 50.602442 48.096 
L 47.904 44.153266 
L 46.745221 42.552 
L 43.077074 37.008 
L 41.952 35.151279 
z
" clip-path="url(#p9288545a55)" style="fill: #44bf70"/>
   </g>
   <g id="PathCollection_22">
    <path d="M 41.019451 142.344 
L 38.064234 136.8 
L 36 132.834816 
L 36 131.256 
L 36 125.712 
L 36 121.697081 
L 37.68408 125.712 
L 40.101203 131.256 
L 41.952 135.330982 
L 42.960221 136.8 
L 47.006113 142.344 
L 47.904 143.487113 
L 52.535022 147.888 
L 53.856 149.040058 
L 59.808 153.200748 
L 60.212357 153.432 
L 65.76 156.163215 
L 71.712 158.791626 
L 72.207852 158.976 
L 77.664 160.649164 
L 83.616 162.280581 
L 89.568 163.764758 
L 92.960405 164.52 
L 95.52 164.971156 
L 101.472 165.890383 
L 107.424 166.725689 
L 113.376 167.489344 
L 119.328 168.191306 
L 125.28 168.83974 
L 131.232 169.441404 
L 137.184 170.001943 
L 137.909882 170.064 
L 143.136 170.394903 
L 149.088 170.741965 
L 155.04 171.063571 
L 160.992 171.362434 
L 166.944 171.640897 
L 172.896 171.900989 
L 178.848 172.14448 
L 184.8 172.37292 
L 190.752 172.58767 
L 196.704 172.789933 
L 202.656 172.980774 
L 208.608 173.161141 
L 214.56 173.331878 
L 214.56 175.608 
L 214.56 179.609272 
L 208.608 179.418023 
L 202.656 179.216741 
L 196.704 179.004589 
L 190.752 178.78063 
L 184.8 178.543813 
L 178.848 178.292958 
L 172.896 178.026731 
L 166.944 177.743619 
L 160.992 177.441903 
L 155.04 177.119613 
L 149.088 176.774488 
L 143.136 176.403913 
L 137.184 176.004854 
L 131.714564 175.608 
L 131.232 175.562612 
L 125.28 174.94671 
L 119.328 174.283673 
L 113.376 173.567031 
L 107.424 172.789005 
L 101.472 171.940148 
L 95.52 171.008868 
L 90.069487 170.064 
L 89.568 169.956194 
L 83.616 168.490347 
L 77.664 166.876665 
L 71.712 165.082759 
L 70.135074 164.52 
L 65.76 162.68214 
L 59.808 159.837448 
L 58.328089 158.976 
L 53.856 156.036489 
L 50.613423 153.432 
L 47.904 151.047542 
L 45.170042 147.888 
L 41.952 143.969641 
z
" clip-path="url(#p9288545a55)" style="fill: #73d056"/>
    <path d="M 41.932921 53.64 
L 36 49.20164 
L 36 48.096 
L 36 42.552 
L 36 37.008 
L 36 31.464 
L 36 27.116856 
L 38.977508 31.464 
L 41.952 35.151279 
L 43.077074 37.008 
L 46.745221 42.552 
L 47.904 44.153266 
L 50.602442 48.096 
L 53.856 52.453122 
L 54.777241 53.64 
L 59.336975 59.184 
L 59.808 59.728861 
L 64.478176 64.728 
L 65.76 66.035438 
L 70.360836 70.272 
L 71.712 71.474163 
L 77.19685 75.816 
L 77.664 76.177614 
L 83.616 80.297825 
L 85.35509 81.36 
L 89.568 83.916286 
L 95.203315 86.904 
L 95.52 87.072416 
L 101.472 89.927728 
L 107.424 92.42037 
L 107.496631 92.448 
L 113.376 94.722017 
L 119.328 96.757977 
L 123.342307 97.992 
L 125.28 98.604316 
L 131.232 100.316481 
L 137.184 101.855414 
L 143.136 103.246952 
L 144.476439 103.536 
L 149.088 104.570305 
L 155.04 105.790433 
L 160.992 106.905563 
L 166.944 107.929045 
L 172.896 108.87201 
L 174.301414 109.08 
L 178.848 109.788181 
L 184.8 110.648419 
L 190.752 111.446302 
L 196.704 112.188525 
L 202.656 112.880838 
L 208.608 113.528211 
L 214.56 114.134963 
L 214.56 114.624 
L 214.56 120.168 
L 214.56 125.36061 
L 208.608 124.780909 
L 202.656 124.159946 
L 196.704 123.49297 
L 190.752 122.774446 
L 184.8 121.997872 
L 178.848 121.155557 
L 172.896 120.238322 
L 172.469993 120.168 
L 166.944 119.339017 
L 160.992 118.36622 
L 155.04 117.300096 
L 149.088 116.125699 
L 143.136 114.824514 
L 142.291531 114.624 
L 137.184 113.499525 
L 131.232 112.046379 
L 125.28 110.417191 
L 120.915335 109.08 
L 119.328 108.62037 
L 113.376 106.719059 
L 107.424 104.550209 
L 104.94165 103.536 
L 101.472 102.172322 
L 95.52 99.518569 
L 92.508756 97.992 
L 89.568 96.533025 
L 83.616 93.156356 
L 82.504776 92.448 
L 77.664 89.370775 
L 74.269243 86.904 
L 71.712 85.023031 
L 67.295667 81.36 
L 65.76 80.050638 
L 61.268995 75.816 
L 59.808 74.37518 
L 55.922934 70.272 
L 53.856 67.940046 
L 51.028909 64.728 
L 47.904 60.825984 
L 46.392699 59.184 
L 41.952 53.651576 
z
" clip-path="url(#p9288545a55)" style="fill: #73d056"/>
   </g>
   <g id="PathCollection_23">
    <path d="M 40.101203 131.256 
L 37.68408 125.712 
L 36 121.697081 
L 36 120.168 
L 36 114.624 
L 36 109.08 
L 36 103.536 
L 36 97.992 
L 36 92.448 
L 36 86.904 
L 36 81.36 
L 36 75.816 
L 36 70.272 
L 36 64.728 
L 36 59.184 
L 36 53.64 
L 36 49.20164 
L 41.932921 53.64 
L 41.952 53.651576 
L 46.392699 59.184 
L 47.904 60.825984 
L 51.028909 64.728 
L 53.856 67.940046 
L 55.922934 70.272 
L 59.808 74.37518 
L 61.268995 75.816 
L 65.76 80.050638 
L 67.295667 81.36 
L 71.712 85.023031 
L 74.269243 86.904 
L 77.664 89.370775 
L 82.504776 92.448 
L 83.616 93.156356 
L 89.568 96.533025 
L 92.508756 97.992 
L 95.52 99.518569 
L 101.472 102.172322 
L 104.94165 103.536 
L 107.424 104.550209 
L 113.376 106.719059 
L 119.328 108.62037 
L 120.915335 109.08 
L 125.28 110.417191 
L 131.232 112.046379 
L 137.184 113.499525 
L 142.291531 114.624 
L 143.136 114.824514 
L 149.088 116.125699 
L 155.04 117.300096 
L 160.992 118.36622 
L 166.944 119.339017 
L 172.469993 120.168 
L 172.896 120.238322 
L 178.848 121.155557 
L 184.8 121.997872 
L 190.752 122.774446 
L 196.704 123.49297 
L 202.656 124.159946 
L 208.608 124.780909 
L 214.56 125.36061 
L 214.56 125.712 
L 214.56 131.256 
L 214.56 136.8 
L 214.56 141.566782 
L 208.608 140.9368 
L 202.656 140.246506 
L 196.704 139.48578 
L 190.752 138.641917 
L 184.8 137.698715 
L 179.736092 136.8 
L 178.848 136.683006 
L 172.896 135.839413 
L 166.944 134.9017 
L 160.992 133.851033 
L 155.04 132.66269 
L 149.088 131.303427 
L 148.898262 131.256 
L 143.136 130.111823 
L 137.184 128.772183 
L 131.232 127.233152 
L 126.139688 125.712 
L 125.28 125.494796 
L 119.328 123.837673 
L 113.376 121.906426 
L 108.784174 120.168 
L 107.424 119.713523 
L 101.472 117.485905 
L 95.52 114.817537 
L 95.133837 114.624 
L 89.568 112.075077 
L 84.121167 109.08 
L 83.616 108.817446 
L 77.664 105.351946 
L 74.975151 103.536 
L 71.712 101.383282 
L 67.201855 97.992 
L 65.76 96.903373 
L 60.404035 92.448 
L 59.808 91.936058 
L 54.194236 86.904 
L 53.856 86.58074 
L 48.022787 81.36 
L 47.904 81.241754 
L 41.952 77.708674 
L 38.726639 81.36 
L 36.909673 86.904 
L 36.581951 92.448 
L 36.976864 97.992 
L 37.795754 103.536 
L 38.899625 109.08 
L 40.216351 114.624 
L 41.705992 120.168 
L 41.952 120.913214 
L 44.547386 125.712 
L 47.551799 131.256 
L 47.904 131.823136 
L 52.288713 136.8 
L 53.856 138.45594 
L 58.606333 142.344 
L 59.808 143.214594 
L 65.76 146.655703 
L 68.247112 147.888 
L 71.712 149.297452 
L 77.664 151.368708 
L 83.616 153.27408 
L 84.202819 153.432 
L 89.568 154.526313 
L 95.52 155.59778 
L 101.472 156.559734 
L 107.424 157.430265 
L 113.376 158.223943 
L 119.328 158.952666 
L 119.550023 158.976 
L 125.28 159.385261 
L 131.232 159.759525 
L 137.184 160.089766 
L 143.136 160.381045 
L 149.088 160.637637 
L 155.04 160.863182 
L 160.992 161.060793 
L 166.944 161.233149 
L 172.896 161.382566 
L 178.848 161.511057 
L 184.8 161.620376 
L 190.752 161.712059 
L 196.704 161.787457 
L 202.656 161.847759 
L 208.608 161.894017 
L 214.56 161.927163 
L 214.56 164.52 
L 214.56 170.064 
L 214.56 173.331878 
L 208.608 173.161141 
L 202.656 172.980774 
L 196.704 172.789933 
L 190.752 172.58767 
L 184.8 172.37292 
L 178.848 172.14448 
L 172.896 171.900989 
L 166.944 171.640897 
L 160.992 171.362434 
L 155.04 171.063571 
L 149.088 170.741965 
L 143.136 170.394903 
L 137.909882 170.064 
L 137.184 170.001943 
L 131.232 169.441404 
L 125.28 168.83974 
L 119.328 168.191306 
L 113.376 167.489344 
L 107.424 166.725689 
L 101.472 165.890383 
L 95.52 164.971156 
L 92.960405 164.52 
L 89.568 163.764758 
L 83.616 162.280581 
L 77.664 160.649164 
L 72.207852 158.976 
L 71.712 158.791626 
L 65.76 156.163215 
L 60.212357 153.432 
L 59.808 153.200748 
L 53.856 149.040058 
L 52.535022 147.888 
L 47.904 143.487113 
L 47.006113 142.344 
L 42.960221 136.8 
L 41.952 135.330982 
z
" clip-path="url(#p9288545a55)" style="fill: #aadc32"/>
   </g>
   <g id="PathCollection_24">
    <path d="M 41.705992 120.168 
L 40.216351 114.624 
L 38.899625 109.08 
L 37.795754 103.536 
L 36.976864 97.992 
L 36.581951 92.448 
L 36.909673 86.904 
L 38.726639 81.36 
L 41.952 77.708674 
L 47.904 81.241754 
L 48.022787 81.36 
L 53.856 86.58074 
L 54.194236 86.904 
L 59.808 91.936058 
L 60.404035 92.448 
L 65.76 96.903373 
L 67.201855 97.992 
L 71.712 101.383282 
L 74.975151 103.536 
L 77.664 105.351946 
L 83.616 108.817446 
L 84.121167 109.08 
L 89.568 112.075077 
L 95.133837 114.624 
L 95.52 114.817537 
L 101.472 117.485905 
L 107.424 119.713523 
L 108.784174 120.168 
L 113.376 121.906426 
L 119.328 123.837673 
L 125.28 125.494796 
L 126.139688 125.712 
L 131.232 127.233152 
L 137.184 128.772183 
L 143.136 130.111823 
L 148.898262 131.256 
L 149.088 131.303427 
L 155.04 132.66269 
L 160.992 133.851033 
L 166.944 134.9017 
L 172.896 135.839413 
L 178.848 136.683006 
L 179.736092 136.8 
L 184.8 137.698715 
L 190.752 138.641917 
L 196.704 139.48578 
L 202.656 140.246506 
L 208.608 140.9368 
L 214.56 141.566782 
L 214.56 142.344 
L 214.56 147.888 
L 214.56 153.432 
L 214.56 158.976 
L 214.56 161.927163 
L 208.608 161.894017 
L 202.656 161.847759 
L 196.704 161.787457 
L 190.752 161.712059 
L 184.8 161.620376 
L 178.848 161.511057 
L 172.896 161.382566 
L 166.944 161.233149 
L 160.992 161.060793 
L 155.04 160.863182 
L 149.088 160.637637 
L 143.136 160.381045 
L 137.184 160.089766 
L 131.232 159.759525 
L 125.28 159.385261 
L 119.550023 158.976 
L 119.328 158.952666 
L 113.376 158.223943 
L 107.424 157.430265 
L 101.472 156.559734 
L 95.52 155.59778 
L 89.568 154.526313 
L 84.202819 153.432 
L 83.616 153.27408 
L 77.664 151.368708 
L 71.712 149.297452 
L 68.247112 147.888 
L 65.76 146.655703 
L 59.808 143.214594 
L 58.606333 142.344 
L 53.856 138.45594 
L 52.288713 136.8 
L 47.904 131.823136 
L 47.551799 131.256 
L 44.547386 125.712 
L 41.952 120.913214 
z
" clip-path="url(#p9288545a55)" style="fill: #e5e419"/>
   </g>
   <g id="PathCollection_25">
    <defs>
     <path id="mc8282051e0" d="M -4.330127 4.330127 
L 4.330127 -4.330127 
M -4.330127 -4.330127 
L 4.330127 4.330127 
" style="stroke: #000000; stroke-width: 2"/>
    </defs>
    <g clip-path="url(#p9288545a55)">
     <use xlink:href="#mc8282051e0" x="65.76" y="127.56" style="stroke: #000000; stroke-width: 2"/>
    </g>
   </g>
   <g id="matplotlib.axis_1">
    <g id="xtick_1">
     <g id="line2d_1">
      <defs>
       <path id="mcb686ef818" d="M 0 0 
L 0 3.5 
" style="stroke: #000000; stroke-width: 0.8"/>
      </defs>
      <g>
       <use xlink:href="#mcb686ef818" x="75.68" y="192.24" style="stroke: #000000; stroke-width: 0.8"/>
      </g>
     </g>
     <g id="text_1">
      <!-- $\mathdefault{250}$ -->
      <g transform="translate(64.22 208.358125) scale(0.12 -0.12)">
       <defs>
        <path id="DejaVuSans-32" d="M 1228 531 
L 3431 531 
L 3431 0 
L 469 0 
L 469 531 
Q 828 903 1448 1529 
Q 2069 2156 2228 2338 
Q 2531 2678 2651 2914 
Q 2772 3150 2772 3378 
Q 2772 3750 2511 3984 
Q 2250 4219 1831 4219 
Q 1534 4219 1204 4116 
Q 875 4013 500 3803 
L 500 4441 
Q 881 4594 1212 4672 
Q 1544 4750 1819 4750 
Q 2544 4750 2975 4387 
Q 3406 4025 3406 3419 
Q 3406 3131 3298 2873 
Q 3191 2616 2906 2266 
Q 2828 2175 2409 1742 
Q 1991 1309 1228 531 
z
" transform="scale(0.015625)"/>
        <path id="DejaVuSans-35" d="M 691 4666 
L 3169 4666 
L 3169 4134 
L 1269 4134 
L 1269 2991 
Q 1406 3038 1543 3061 
Q 1681 3084 1819 3084 
Q 2600 3084 3056 2656 
Q 3513 2228 3513 1497 
Q 3513 744 3044 326 
Q 2575 -91 1722 -91 
Q 1428 -91 1123 -41 
Q 819 9 494 109 
L 494 744 
Q 775 591 1075 516 
Q 1375 441 1709 441 
Q 2250 441 2565 725 
Q 2881 1009 2881 1497 
Q 2881 1984 2565 2268 
Q 2250 2553 1709 2553 
Q 1456 2553 1204 2497 
Q 953 2441 691 2322 
L 691 4666 
z
" transform="scale(0.015625)"/>
        <path id="DejaVuSans-30" d="M 2034 4250 
Q 1547 4250 1301 3770 
Q 1056 3291 1056 2328 
Q 1056 1369 1301 889 
Q 1547 409 2034 409 
Q 2525 409 2770 889 
Q 3016 1369 3016 2328 
Q 3016 3291 2770 3770 
Q 2525 4250 2034 4250 
z
M 2034 4750 
Q 2819 4750 3233 4129 
Q 3647 3509 3647 2328 
Q 3647 1150 3233 529 
Q 2819 -91 2034 -91 
Q 1250 -91 836 529 
Q 422 1150 422 2328 
Q 422 3509 836 4129 
Q 1250 4750 2034 4750 
z
" transform="scale(0.015625)"/>
       </defs>
       <use xlink:href="#DejaVuSans-32" transform="translate(0 0.78125)"/>
       <use xlink:href="#DejaVuSans-35" transform="translate(63.623047 0.78125)"/>
       <use xlink:href="#DejaVuSans-30" transform="translate(127.246094 0.78125)"/>
      </g>
     </g>
    </g>
    <g id="xtick_2">
     <g id="line2d_2">
      <g>
       <use xlink:href="#mcb686ef818" x="125.28" y="192.24" style="stroke: #000000; stroke-width: 0.8"/>
      </g>
     </g>
     <g id="text_2">
      <!-- $\mathdefault{500}$ -->
      <g transform="translate(113.82 208.358125) scale(0.12 -0.12)">
       <use xlink:href="#DejaVuSans-35" transform="translate(0 0.78125)"/>
       <use xlink:href="#DejaVuSans-30" transform="translate(63.623047 0.78125)"/>
       <use xlink:href="#DejaVuSans-30" transform="translate(127.246094 0.78125)"/>
      </g>
     </g>
    </g>
    <g id="xtick_3">
     <g id="line2d_3">
      <g>
       <use xlink:href="#mcb686ef818" x="174.88" y="192.24" style="stroke: #000000; stroke-width: 0.8"/>
      </g>
     </g>
     <g id="text_3">
      <!-- $\mathdefault{750}$ -->
      <g transform="translate(163.42 208.358125) scale(0.12 -0.12)">
       <defs>
        <path id="DejaVuSans-37" d="M 525 4666 
L 3525 4666 
L 3525 4397 
L 1831 0 
L 1172 0 
L 2766 4134 
L 525 4134 
L 525 4666 
z
" transform="scale(0.015625)"/>
       </defs>
       <use xlink:href="#DejaVuSans-37" transform="translate(0 0.78125)"/>
       <use xlink:href="#DejaVuSans-35" transform="translate(63.623047 0.78125)"/>
       <use xlink:href="#DejaVuSans-30" transform="translate(127.246094 0.78125)"/>
      </g>
     </g>
    </g>
    <g id="text_4">
     <!-- Diploid N$_e$0 -->
     <g transform="translate(80 227.01375) scale(0.16 -0.16)">
      <defs>
       <path id="DejaVuSans-44" d="M 1259 4147 
L 1259 519 
L 2022 519 
Q 2988 519 3436 956 
Q 3884 1394 3884 2338 
Q 3884 3275 3436 3711 
Q 2988 4147 2022 4147 
L 1259 4147 
z
M 628 4666 
L 1925 4666 
Q 3281 4666 3915 4102 
Q 4550 3538 4550 2338 
Q 4550 1131 3912 565 
Q 3275 0 1925 0 
L 628 0 
L 628 4666 
z
" transform="scale(0.015625)"/>
       <path id="DejaVuSans-69" d="M 603 3500 
L 1178 3500 
L 1178 0 
L 603 0 
L 603 3500 
z
M 603 4863 
L 1178 4863 
L 1178 4134 
L 603 4134 
L 603 4863 
z
" transform="scale(0.015625)"/>
       <path id="DejaVuSans-70" d="M 1159 525 
L 1159 -1331 
L 581 -1331 
L 581 3500 
L 1159 3500 
L 1159 2969 
Q 1341 3281 1617 3432 
Q 1894 3584 2278 3584 
Q 2916 3584 3314 3078 
Q 3713 2572 3713 1747 
Q 3713 922 3314 415 
Q 2916 -91 2278 -91 
Q 1894 -91 1617 61 
Q 1341 213 1159 525 
z
M 3116 1747 
Q 3116 2381 2855 2742 
Q 2594 3103 2138 3103 
Q 1681 3103 1420 2742 
Q 1159 2381 1159 1747 
Q 1159 1113 1420 752 
Q 1681 391 2138 391 
Q 2594 391 2855 752 
Q 3116 1113 3116 1747 
z
" transform="scale(0.015625)"/>
       <path id="DejaVuSans-6c" d="M 603 4863 
L 1178 4863 
L 1178 0 
L 603 0 
L 603 4863 
z
" transform="scale(0.015625)"/>
       <path id="DejaVuSans-6f" d="M 1959 3097 
Q 1497 3097 1228 2736 
Q 959 2375 959 1747 
Q 959 1119 1226 758 
Q 1494 397 1959 397 
Q 2419 397 2687 759 
Q 2956 1122 2956 1747 
Q 2956 2369 2687 2733 
Q 2419 3097 1959 3097 
z
M 1959 3584 
Q 2709 3584 3137 3096 
Q 3566 2609 3566 1747 
Q 3566 888 3137 398 
Q 2709 -91 1959 -91 
Q 1206 -91 779 398 
Q 353 888 353 1747 
Q 353 2609 779 3096 
Q 1206 3584 1959 3584 
z
" transform="scale(0.015625)"/>
       <path id="DejaVuSans-64" d="M 2906 2969 
L 2906 4863 
L 3481 4863 
L 3481 0 
L 2906 0 
L 2906 525 
Q 2725 213 2448 61 
Q 2172 -91 1784 -91 
Q 1150 -91 751 415 
Q 353 922 353 1747 
Q 353 2572 751 3078 
Q 1150 3584 1784 3584 
Q 2172 3584 2448 3432 
Q 2725 3281 2906 2969 
z
M 947 1747 
Q 947 1113 1208 752 
Q 1469 391 1925 391 
Q 2381 391 2643 752 
Q 2906 1113 2906 1747 
Q 2906 2381 2643 2742 
Q 2381 3103 1925 3103 
Q 1469 3103 1208 2742 
Q 947 2381 947 1747 
z
" transform="scale(0.015625)"/>
       <path id="DejaVuSans-20" transform="scale(0.015625)"/>
       <path id="DejaVuSans-4e" d="M 628 4666 
L 1478 4666 
L 3547 763 
L 3547 4666 
L 4159 4666 
L 4159 0 
L 3309 0 
L 1241 3903 
L 1241 0 
L 628 0 
L 628 4666 
z
" transform="scale(0.015625)"/>
       <path id="DejaVuSans-Oblique-65" d="M 3078 2063 
Q 3088 2113 3092 2166 
Q 3097 2219 3097 2272 
Q 3097 2653 2873 2875 
Q 2650 3097 2266 3097 
Q 1838 3097 1509 2826 
Q 1181 2556 1013 2059 
L 3078 2063 
z
M 3578 1613 
L 903 1613 
Q 884 1494 878 1425 
Q 872 1356 872 1306 
Q 872 872 1139 634 
Q 1406 397 1894 397 
Q 2269 397 2603 481 
Q 2938 566 3225 728 
L 3116 159 
Q 2806 34 2476 -28 
Q 2147 -91 1806 -91 
Q 1078 -91 686 257 
Q 294 606 294 1247 
Q 294 1794 489 2264 
Q 684 2734 1063 3103 
Q 1306 3334 1642 3459 
Q 1978 3584 2356 3584 
Q 2950 3584 3301 3228 
Q 3653 2872 3653 2272 
Q 3653 2128 3634 1964 
Q 3616 1800 3578 1613 
z
" transform="scale(0.015625)"/>
      </defs>
      <use xlink:href="#DejaVuSans-44" transform="translate(0 0.015625)"/>
      <use xlink:href="#DejaVuSans-69" transform="translate(77.001953 0.015625)"/>
      <use xlink:href="#DejaVuSans-70" transform="translate(104.785156 0.015625)"/>
      <use xlink:href="#DejaVuSans-6c" transform="translate(168.261719 0.015625)"/>
      <use xlink:href="#DejaVuSans-6f" transform="translate(196.044922 0.015625)"/>
      <use xlink:href="#DejaVuSans-69" transform="translate(257.226562 0.015625)"/>
      <use xlink:href="#DejaVuSans-64" transform="translate(285.009766 0.015625)"/>
      <use xlink:href="#DejaVuSans-20" transform="translate(348.486328 0.015625)"/>
      <use xlink:href="#DejaVuSans-4e" transform="translate(380.273438 0.015625)"/>
      <use xlink:href="#DejaVuSans-Oblique-65" transform="translate(456.035156 -16.390625) scale(0.7)"/>
      <use xlink:href="#DejaVuSans-30" transform="translate(501.835938 0.015625)"/>
     </g>
    </g>
    <g id="text_5">
     <!-- $\times\mathdefault{10^{3}}\mathdefault{}$ -->
     <g transform="translate(188.56 221.452188) scale(0.1 -0.1)">
      <defs>
       <path id="DejaVuSans-d7" d="M 4488 3438 
L 3059 2003 
L 4488 575 
L 4116 197 
L 2681 1631 
L 1247 197 
L 878 575 
L 2303 2003 
L 878 3438 
L 1247 3816 
L 2681 2381 
L 4116 3816 
L 4488 3438 
z
" transform="scale(0.015625)"/>
       <path id="DejaVuSans-31" d="M 794 531 
L 1825 531 
L 1825 4091 
L 703 3866 
L 703 4441 
L 1819 4666 
L 2450 4666 
L 2450 531 
L 3481 531 
L 3481 0 
L 794 0 
L 794 531 
z
" transform="scale(0.015625)"/>
       <path id="DejaVuSans-33" d="M 2597 2516 
Q 3050 2419 3304 2112 
Q 3559 1806 3559 1356 
Q 3559 666 3084 287 
Q 2609 -91 1734 -91 
Q 1441 -91 1130 -33 
Q 819 25 488 141 
L 488 750 
Q 750 597 1062 519 
Q 1375 441 1716 441 
Q 2309 441 2620 675 
Q 2931 909 2931 1356 
Q 2931 1769 2642 2001 
Q 2353 2234 1838 2234 
L 1294 2234 
L 1294 2753 
L 1863 2753 
Q 2328 2753 2575 2939 
Q 2822 3125 2822 3475 
Q 2822 3834 2567 4026 
Q 2313 4219 1838 4219 
Q 1578 4219 1281 4162 
Q 984 4106 628 3988 
L 628 4550 
Q 988 4650 1302 4700 
Q 1616 4750 1894 4750 
Q 2613 4750 3031 4423 
Q 3450 4097 3450 3541 
Q 3450 3153 3228 2886 
Q 3006 2619 2597 2516 
z
" transform="scale(0.015625)"/>
      </defs>
      <use xlink:href="#DejaVuSans-d7" transform="translate(0 0.765625)"/>
      <use xlink:href="#DejaVuSans-31" transform="translate(83.789062 0.765625)"/>
      <use xlink:href="#DejaVuSans-30" transform="translate(147.412109 0.765625)"/>
      <use xlink:href="#DejaVuSans-33" transform="translate(211.992188 39.046875) scale(0.7)"/>
     </g>
    </g>
   </g>
   <g id="matplotlib.axis_2">
    <g id="ytick_1">
     <g id="line2d_4">
      <defs>
       <path id="m5dfa12e720" d="M 0 0 
L -3.5 0 
" style="stroke: #000000; stroke-width: 0.8"/>
      </defs>
      <g>
       <use xlink:href="#m5dfa12e720" x="36" y="155.28" style="stroke: #000000; stroke-width: 0.8"/>
      </g>
     </g>
     <g id="text_6">
      <!-- $\mathdefault{250}$ -->
      <g transform="translate(6.08 159.839063) scale(0.12 -0.12)">
       <use xlink:href="#DejaVuSans-32" transform="translate(0 0.78125)"/>
       <use xlink:href="#DejaVuSans-35" transform="translate(63.623047 0.78125)"/>
       <use xlink:href="#DejaVuSans-30" transform="translate(127.246094 0.78125)"/>
      </g>
     </g>
    </g>
    <g id="ytick_2">
     <g id="line2d_5">
      <g>
       <use xlink:href="#m5dfa12e720" x="36" y="109.08" style="stroke: #000000; stroke-width: 0.8"/>
      </g>
     </g>
     <g id="text_7">
      <!-- $\mathdefault{500}$ -->
      <g transform="translate(6.08 113.639062) scale(0.12 -0.12)">
       <use xlink:href="#DejaVuSans-35" transform="translate(0 0.78125)"/>
       <use xlink:href="#DejaVuSans-30" transform="translate(63.623047 0.78125)"/>
       <use xlink:href="#DejaVuSans-30" transform="translate(127.246094 0.78125)"/>
      </g>
     </g>
    </g>
    <g id="ytick_3">
     <g id="line2d_6">
      <g>
       <use xlink:href="#m5dfa12e720" x="36" y="62.88" style="stroke: #000000; stroke-width: 0.8"/>
      </g>
     </g>
     <g id="text_8">
      <!-- $\mathdefault{750}$ -->
      <g transform="translate(6.08 67.439062) scale(0.12 -0.12)">
       <use xlink:href="#DejaVuSans-37" transform="translate(0 0.78125)"/>
       <use xlink:href="#DejaVuSans-35" transform="translate(63.623047 0.78125)"/>
       <use xlink:href="#DejaVuSans-30" transform="translate(127.246094 0.78125)"/>
      </g>
     </g>
    </g>
    <g id="text_9">
     <!-- Diploid N$_e$2 -->
     <g transform="translate(-1.28 154.36) rotate(-90) scale(0.16 -0.16)">
      <use xlink:href="#DejaVuSans-44" transform="translate(0 0.015625)"/>
      <use xlink:href="#DejaVuSans-69" transform="translate(77.001953 0.015625)"/>
      <use xlink:href="#DejaVuSans-70" transform="translate(104.785156 0.015625)"/>
      <use xlink:href="#DejaVuSans-6c" transform="translate(168.261719 0.015625)"/>
      <use xlink:href="#DejaVuSans-6f" transform="translate(196.044922 0.015625)"/>
      <use xlink:href="#DejaVuSans-69" transform="translate(257.226562 0.015625)"/>
      <use xlink:href="#DejaVuSans-64" transform="translate(285.009766 0.015625)"/>
      <use xlink:href="#DejaVuSans-20" transform="translate(348.486328 0.015625)"/>
      <use xlink:href="#DejaVuSans-4e" transform="translate(380.273438 0.015625)"/>
      <use xlink:href="#DejaVuSans-Oblique-65" transform="translate(456.035156 -16.390625) scale(0.7)"/>
      <use xlink:href="#DejaVuSans-32" transform="translate(501.835938 0.015625)"/>
     </g>
    </g>
    <g id="text_10">
     <!-- $\times\mathdefault{10^{3}}\mathdefault{}$ -->
     <g transform="translate(36 22.92) scale(0.1 -0.1)">
      <use xlink:href="#DejaVuSans-d7" transform="translate(0 0.765625)"/>
      <use xlink:href="#DejaVuSans-31" transform="translate(83.789062 0.765625)"/>
      <use xlink:href="#DejaVuSans-30" transform="translate(147.412109 0.765625)"/>
      <use xlink:href="#DejaVuSans-33" transform="translate(211.992188 39.046875) scale(0.7)"/>
     </g>
    </g>
   </g>
   <g id="patch_3">
    <path d="M 36 192.24 
L 36 25.92 
" style="fill: none; stroke: #000000; stroke-width: 0.8; stroke-linejoin: miter; stroke-linecap: square"/>
   </g>
   <g id="patch_4">
    <path d="M 214.56 192.24 
L 214.56 25.92 
" style="fill: none; stroke: #000000; stroke-width: 0.8; stroke-linejoin: miter; stroke-linecap: square"/>
   </g>
   <g id="patch_5">
    <path d="M 36 192.24 
L 214.56 192.24 
" style="fill: none; stroke: #000000; stroke-width: 0.8; stroke-linejoin: miter; stroke-linecap: square"/>
   </g>
   <g id="patch_6">
    <path d="M 36 25.92 
L 214.56 25.92 
" style="fill: none; stroke: #000000; stroke-width: 0.8; stroke-linejoin: miter; stroke-linecap: square"/>
   </g>
   <g id="text_11">
    <!-- Ne0Ne2-SMC-G-P2-S4 -->
    <g transform="translate(37.60125 10.92) scale(0.16 -0.16)">
     <defs>
      <path id="DejaVuSans-65" d="M 3597 1894 
L 3597 1613 
L 953 1613 
Q 991 1019 1311 708 
Q 1631 397 2203 397 
Q 2534 397 2845 478 
Q 3156 559 3463 722 
L 3463 178 
Q 3153 47 2828 -22 
Q 2503 -91 2169 -91 
Q 1331 -91 842 396 
Q 353 884 353 1716 
Q 353 2575 817 3079 
Q 1281 3584 2069 3584 
Q 2775 3584 3186 3129 
Q 3597 2675 3597 1894 
z
M 3022 2063 
Q 3016 2534 2758 2815 
Q 2500 3097 2075 3097 
Q 1594 3097 1305 2825 
Q 1016 2553 972 2059 
L 3022 2063 
z
" transform="scale(0.015625)"/>
      <path id="DejaVuSans-2d" d="M 313 2009 
L 1997 2009 
L 1997 1497 
L 313 1497 
L 313 2009 
z
" transform="scale(0.015625)"/>
      <path id="DejaVuSans-53" d="M 3425 4513 
L 3425 3897 
Q 3066 4069 2747 4153 
Q 2428 4238 2131 4238 
Q 1616 4238 1336 4038 
Q 1056 3838 1056 3469 
Q 1056 3159 1242 3001 
Q 1428 2844 1947 2747 
L 2328 2669 
Q 3034 2534 3370 2195 
Q 3706 1856 3706 1288 
Q 3706 609 3251 259 
Q 2797 -91 1919 -91 
Q 1588 -91 1214 -16 
Q 841 59 441 206 
L 441 856 
Q 825 641 1194 531 
Q 1563 422 1919 422 
Q 2459 422 2753 634 
Q 3047 847 3047 1241 
Q 3047 1584 2836 1778 
Q 2625 1972 2144 2069 
L 1759 2144 
Q 1053 2284 737 2584 
Q 422 2884 422 3419 
Q 422 4038 858 4394 
Q 1294 4750 2059 4750 
Q 2388 4750 2728 4690 
Q 3069 4631 3425 4513 
z
" transform="scale(0.015625)"/>
      <path id="DejaVuSans-4d" d="M 628 4666 
L 1569 4666 
L 2759 1491 
L 3956 4666 
L 4897 4666 
L 4897 0 
L 4281 0 
L 4281 4097 
L 3078 897 
L 2444 897 
L 1241 4097 
L 1241 0 
L 628 0 
L 628 4666 
z
" transform="scale(0.015625)"/>
      <path id="DejaVuSans-43" d="M 4122 4306 
L 4122 3641 
Q 3803 3938 3442 4084 
Q 3081 4231 2675 4231 
Q 1875 4231 1450 3742 
Q 1025 3253 1025 2328 
Q 1025 1406 1450 917 
Q 1875 428 2675 428 
Q 3081 428 3442 575 
Q 3803 722 4122 1019 
L 4122 359 
Q 3791 134 3420 21 
Q 3050 -91 2638 -91 
Q 1578 -91 968 557 
Q 359 1206 359 2328 
Q 359 3453 968 4101 
Q 1578 4750 2638 4750 
Q 3056 4750 3426 4639 
Q 3797 4528 4122 4306 
z
" transform="scale(0.015625)"/>
      <path id="DejaVuSans-47" d="M 3809 666 
L 3809 1919 
L 2778 1919 
L 2778 2438 
L 4434 2438 
L 4434 434 
Q 4069 175 3628 42 
Q 3188 -91 2688 -91 
Q 1594 -91 976 548 
Q 359 1188 359 2328 
Q 359 3472 976 4111 
Q 1594 4750 2688 4750 
Q 3144 4750 3555 4637 
Q 3966 4525 4313 4306 
L 4313 3634 
Q 3963 3931 3569 4081 
Q 3175 4231 2741 4231 
Q 1884 4231 1454 3753 
Q 1025 3275 1025 2328 
Q 1025 1384 1454 906 
Q 1884 428 2741 428 
Q 3075 428 3337 486 
Q 3600 544 3809 666 
z
" transform="scale(0.015625)"/>
      <path id="DejaVuSans-50" d="M 1259 4147 
L 1259 2394 
L 2053 2394 
Q 2494 2394 2734 2622 
Q 2975 2850 2975 3272 
Q 2975 3691 2734 3919 
Q 2494 4147 2053 4147 
L 1259 4147 
z
M 628 4666 
L 2053 4666 
Q 2838 4666 3239 4311 
Q 3641 3956 3641 3272 
Q 3641 2581 3239 2228 
Q 2838 1875 2053 1875 
L 1259 1875 
L 1259 0 
L 628 0 
L 628 4666 
z
" transform="scale(0.015625)"/>
      <path id="DejaVuSans-34" d="M 2419 4116 
L 825 1625 
L 2419 1625 
L 2419 4116 
z
M 2253 4666 
L 3047 4666 
L 3047 1625 
L 3713 1625 
L 3713 1100 
L 3047 1100 
L 3047 0 
L 2419 0 
L 2419 1100 
L 313 1100 
L 313 1709 
L 2253 4666 
z
" transform="scale(0.015625)"/>
     </defs>
     <use xlink:href="#DejaVuSans-4e"/>
     <use xlink:href="#DejaVuSans-65" x="74.804688"/>
     <use xlink:href="#DejaVuSans-30" x="136.328125"/>
     <use xlink:href="#DejaVuSans-4e" x="199.951172"/>
     <use xlink:href="#DejaVuSans-65" x="274.755859"/>
     <use xlink:href="#DejaVuSans-32" x="336.279297"/>
     <use xlink:href="#DejaVuSans-2d" x="399.902344"/>
     <use xlink:href="#DejaVuSans-53" x="435.986328"/>
     <use xlink:href="#DejaVuSans-4d" x="499.462891"/>
     <use xlink:href="#DejaVuSans-43" x="585.742188"/>
     <use xlink:href="#DejaVuSans-2d" x="655.566406"/>
     <use xlink:href="#DejaVuSans-47" x="695.275391"/>
     <use xlink:href="#DejaVuSans-2d" x="772.765625"/>
     <use xlink:href="#DejaVuSans-50" x="808.849609"/>
     <use xlink:href="#DejaVuSans-32" x="869.152344"/>
     <use xlink:href="#DejaVuSans-2d" x="932.775391"/>
     <use xlink:href="#DejaVuSans-53" x="968.859375"/>
     <use xlink:href="#DejaVuSans-34" x="1032.335938"/>
    </g>
   </g>
  </g>
  <g id="axes_2">
   <g id="patch_7">
    <path d="M 225.72 192.24 
L 234.036 192.24 
L 234.036 25.92 
L 225.72 25.92 
z
" style="fill: #ffffff"/>
   </g>
   <g id="QuadMesh_1">
    <path d="M 225.72 192.24 
L 234.036 192.24 
L 234.036 185.31 
L 225.72 185.31 
L 225.72 192.24 
" clip-path="url(#p2a81fa86d8)" style="fill: #440154"/>
    <path d="M 225.72 185.31 
L 234.036 185.31 
L 234.036 178.38 
L 225.72 178.38 
L 225.72 185.31 
" clip-path="url(#p2a81fa86d8)" style="fill: #440154"/>
    <path d="M 225.72 178.38 
L 234.036 178.38 
L 234.036 171.45 
L 225.72 171.45 
L 225.72 178.38 
" clip-path="url(#p2a81fa86d8)" style="fill: #440154"/>
    <path d="M 225.72 171.45 
L 234.036 171.45 
L 234.036 164.52 
L 225.72 164.52 
L 225.72 171.45 
" clip-path="url(#p2a81fa86d8)" style="fill: #440154"/>
    <path d="M 225.72 164.52 
L 234.036 164.52 
L 234.036 157.59 
L 225.72 157.59 
L 225.72 164.52 
" clip-path="url(#p2a81fa86d8)" style="fill: #440154"/>
    <path d="M 225.72 157.59 
L 234.036 157.59 
L 234.036 150.66 
L 225.72 150.66 
L 225.72 157.59 
" clip-path="url(#p2a81fa86d8)" style="fill: #440154"/>
    <path d="M 225.72 150.66 
L 234.036 150.66 
L 234.036 143.73 
L 225.72 143.73 
L 225.72 150.66 
" clip-path="url(#p2a81fa86d8)" style="fill: #440154"/>
    <path d="M 225.72 143.73 
L 234.036 143.73 
L 234.036 136.8 
L 225.72 136.8 
L 225.72 143.73 
" clip-path="url(#p2a81fa86d8)" style="fill: #440154"/>
    <path d="M 225.72 136.8 
L 234.036 136.8 
L 234.036 129.87 
L 225.72 129.87 
L 225.72 136.8 
" clip-path="url(#p2a81fa86d8)" style="fill: #440154"/>
    <path d="M 225.72 129.87 
L 234.036 129.87 
L 234.036 122.94 
L 225.72 122.94 
L 225.72 129.87 
" clip-path="url(#p2a81fa86d8)" style="fill: #440154"/>
    <path d="M 225.72 122.94 
L 234.036 122.94 
L 234.036 116.01 
L 225.72 116.01 
L 225.72 122.94 
" clip-path="url(#p2a81fa86d8)" style="fill: #440154"/>
    <path d="M 225.72 116.01 
L 234.036 116.01 
L 234.036 109.08 
L 225.72 109.08 
L 225.72 116.01 
" clip-path="url(#p2a81fa86d8)" style="fill: #440154"/>
    <path d="M 225.72 109.08 
L 234.036 109.08 
L 234.036 102.15 
L 225.72 102.15 
L 225.72 109.08 
" clip-path="url(#p2a81fa86d8)" style="fill: #46075a"/>
    <path d="M 225.72 102.15 
L 234.036 102.15 
L 234.036 95.22 
L 225.72 95.22 
L 225.72 102.15 
" clip-path="url(#p2a81fa86d8)" style="fill: #482576"/>
    <path d="M 225.72 95.22 
L 234.036 95.22 
L 234.036 88.29 
L 225.72 88.29 
L 225.72 95.22 
" clip-path="url(#p2a81fa86d8)" style="fill: #424086"/>
    <path d="M 225.72 88.29 
L 234.036 88.29 
L 234.036 81.36 
L 225.72 81.36 
L 225.72 88.29 
" clip-path="url(#p2a81fa86d8)" style="fill: #38598c"/>
    <path d="M 225.72 81.36 
L 234.036 81.36 
L 234.036 74.43 
L 225.72 74.43 
L 225.72 81.36 
" clip-path="url(#p2a81fa86d8)" style="fill: #2e6f8e"/>
    <path d="M 225.72 74.43 
L 234.036 74.43 
L 234.036 67.5 
L 225.72 67.5 
L 225.72 74.43 
" clip-path="url(#p2a81fa86d8)" style="fill: #26828e"/>
    <path d="M 225.72 67.5 
L 234.036 67.5 
L 234.036 60.57 
L 225.72 60.57 
L 225.72 67.5 
" clip-path="url(#p2a81fa86d8)" style="fill: #1f978b"/>
    <path d="M 225.72 60.57 
L 234.036 60.57 
L 234.036 53.64 
L 225.72 53.64 
L 225.72 60.57 
" clip-path="url(#p2a81fa86d8)" style="fill: #25ac82"/>
    <path d="M 225.72 53.64 
L 234.036 53.64 
L 234.036 46.71 
L 225.72 46.71 
L 225.72 53.64 
" clip-path="url(#p2a81fa86d8)" style="fill: #44bf70"/>
    <path d="M 225.72 46.71 
L 234.036 46.71 
L 234.036 39.78 
L 225.72 39.78 
L 225.72 46.71 
" clip-path="url(#p2a81fa86d8)" style="fill: #73d056"/>
    <path d="M 225.72 39.78 
L 234.036 39.78 
L 234.036 32.85 
L 225.72 32.85 
L 225.72 39.78 
" clip-path="url(#p2a81fa86d8)" style="fill: #aadc32"/>
    <path d="M 225.72 32.85 
L 234.036 32.85 
L 234.036 25.92 
L 225.72 25.92 
L 225.72 32.85 
" clip-path="url(#p2a81fa86d8)" style="fill: #e5e419"/>
   </g>
   <g id="matplotlib.axis_3"/>
   <g id="matplotlib.axis_4">
    <g id="ytick_4">
     <g id="line2d_7">
      <defs>
       <path id="mb4516278c2" d="M 0 0 
L 3.5 0 
" style="stroke: #000000; stroke-width: 0.8"/>
      </defs>
      <g>
       <use xlink:href="#mb4516278c2" x="234.036" y="192.24" style="stroke: #000000; stroke-width: 0.8"/>
      </g>
     </g>
     <g id="text_12">
      <!-- 220.750 -->
      <g transform="translate(241.036 196.039219) scale(0.1 -0.1)">
       <defs>
        <path id="DejaVuSans-2212" d="M 678 2272 
L 4684 2272 
L 4684 1741 
L 678 1741 
L 678 2272 
z
" transform="scale(0.015625)"/>
        <path id="DejaVuSans-2e" d="M 684 794 
L 1344 794 
L 1344 0 
L 684 0 
L 684 794 
z
" transform="scale(0.015625)"/>
       </defs>
       <use xlink:href="#DejaVuSans-2212"/>
       <use xlink:href="#DejaVuSans-32" x="83.789062"/>
       <use xlink:href="#DejaVuSans-32" x="147.412109"/>
       <use xlink:href="#DejaVuSans-30" x="211.035156"/>
       <use xlink:href="#DejaVuSans-2e" x="274.658203"/>
       <use xlink:href="#DejaVuSans-37" x="306.445312"/>
       <use xlink:href="#DejaVuSans-35" x="370.068359"/>
       <use xlink:href="#DejaVuSans-30" x="433.691406"/>
      </g>
     </g>
    </g>
    <g id="ytick_5">
     <g id="line2d_8">
      <g>
       <use xlink:href="#mb4516278c2" x="234.036" y="171.45" style="stroke: #000000; stroke-width: 0.8"/>
      </g>
     </g>
     <g id="text_13">
      <!-- 220.705 -->
      <g transform="translate(241.036 175.249219) scale(0.1 -0.1)">
       <use xlink:href="#DejaVuSans-2212"/>
       <use xlink:href="#DejaVuSans-32" x="83.789062"/>
       <use xlink:href="#DejaVuSans-32" x="147.412109"/>
       <use xlink:href="#DejaVuSans-30" x="211.035156"/>
       <use xlink:href="#DejaVuSans-2e" x="274.658203"/>
       <use xlink:href="#DejaVuSans-37" x="306.445312"/>
       <use xlink:href="#DejaVuSans-30" x="370.068359"/>
       <use xlink:href="#DejaVuSans-35" x="433.691406"/>
      </g>
     </g>
    </g>
    <g id="ytick_6">
     <g id="line2d_9">
      <g>
       <use xlink:href="#mb4516278c2" x="234.036" y="150.66" style="stroke: #000000; stroke-width: 0.8"/>
      </g>
     </g>
     <g id="text_14">
      <!-- 220.660 -->
      <g transform="translate(241.036 154.459219) scale(0.1 -0.1)">
       <defs>
        <path id="DejaVuSans-36" d="M 2113 2584 
Q 1688 2584 1439 2293 
Q 1191 2003 1191 1497 
Q 1191 994 1439 701 
Q 1688 409 2113 409 
Q 2538 409 2786 701 
Q 3034 994 3034 1497 
Q 3034 2003 2786 2293 
Q 2538 2584 2113 2584 
z
M 3366 4563 
L 3366 3988 
Q 3128 4100 2886 4159 
Q 2644 4219 2406 4219 
Q 1781 4219 1451 3797 
Q 1122 3375 1075 2522 
Q 1259 2794 1537 2939 
Q 1816 3084 2150 3084 
Q 2853 3084 3261 2657 
Q 3669 2231 3669 1497 
Q 3669 778 3244 343 
Q 2819 -91 2113 -91 
Q 1303 -91 875 529 
Q 447 1150 447 2328 
Q 447 3434 972 4092 
Q 1497 4750 2381 4750 
Q 2619 4750 2861 4703 
Q 3103 4656 3366 4563 
z
" transform="scale(0.015625)"/>
       </defs>
       <use xlink:href="#DejaVuSans-2212"/>
       <use xlink:href="#DejaVuSans-32" x="83.789062"/>
       <use xlink:href="#DejaVuSans-32" x="147.412109"/>
       <use xlink:href="#DejaVuSans-30" x="211.035156"/>
       <use xlink:href="#DejaVuSans-2e" x="274.658203"/>
       <use xlink:href="#DejaVuSans-36" x="306.445312"/>
       <use xlink:href="#DejaVuSans-36" x="370.068359"/>
       <use xlink:href="#DejaVuSans-30" x="433.691406"/>
      </g>
     </g>
    </g>
    <g id="ytick_7">
     <g id="line2d_10">
      <g>
       <use xlink:href="#mb4516278c2" x="234.036" y="129.87" style="stroke: #000000; stroke-width: 0.8"/>
      </g>
     </g>
     <g id="text_15">
      <!-- 220.615 -->
      <g transform="translate(241.036 133.669219) scale(0.1 -0.1)">
       <use xlink:href="#DejaVuSans-2212"/>
       <use xlink:href="#DejaVuSans-32" x="83.789062"/>
       <use xlink:href="#DejaVuSans-32" x="147.412109"/>
       <use xlink:href="#DejaVuSans-30" x="211.035156"/>
       <use xlink:href="#DejaVuSans-2e" x="274.658203"/>
       <use xlink:href="#DejaVuSans-36" x="306.445312"/>
       <use xlink:href="#DejaVuSans-31" x="370.068359"/>
       <use xlink:href="#DejaVuSans-35" x="433.691406"/>
      </g>
     </g>
    </g>
    <g id="ytick_8">
     <g id="line2d_11">
      <g>
       <use xlink:href="#mb4516278c2" x="234.036" y="109.08" style="stroke: #000000; stroke-width: 0.8"/>
      </g>
     </g>
     <g id="text_16">
      <!-- 220.570 -->
      <g transform="translate(241.036 112.879219) scale(0.1 -0.1)">
       <use xlink:href="#DejaVuSans-2212"/>
       <use xlink:href="#DejaVuSans-32" x="83.789062"/>
       <use xlink:href="#DejaVuSans-32" x="147.412109"/>
       <use xlink:href="#DejaVuSans-30" x="211.035156"/>
       <use xlink:href="#DejaVuSans-2e" x="274.658203"/>
       <use xlink:href="#DejaVuSans-35" x="306.445312"/>
       <use xlink:href="#DejaVuSans-37" x="370.068359"/>
       <use xlink:href="#DejaVuSans-30" x="433.691406"/>
      </g>
     </g>
    </g>
    <g id="ytick_9">
     <g id="line2d_12">
      <g>
       <use xlink:href="#mb4516278c2" x="234.036" y="88.29" style="stroke: #000000; stroke-width: 0.8"/>
      </g>
     </g>
     <g id="text_17">
      <!-- 220.525 -->
      <g transform="translate(241.036 92.089219) scale(0.1 -0.1)">
       <use xlink:href="#DejaVuSans-2212"/>
       <use xlink:href="#DejaVuSans-32" x="83.789062"/>
       <use xlink:href="#DejaVuSans-32" x="147.412109"/>
       <use xlink:href="#DejaVuSans-30" x="211.035156"/>
       <use xlink:href="#DejaVuSans-2e" x="274.658203"/>
       <use xlink:href="#DejaVuSans-35" x="306.445312"/>
       <use xlink:href="#DejaVuSans-32" x="370.068359"/>
       <use xlink:href="#DejaVuSans-35" x="433.691406"/>
      </g>
     </g>
    </g>
    <g id="ytick_10">
     <g id="line2d_13">
      <g>
       <use xlink:href="#mb4516278c2" x="234.036" y="67.5" style="stroke: #000000; stroke-width: 0.8"/>
      </g>
     </g>
     <g id="text_18">
      <!-- 220.480 -->
      <g transform="translate(241.036 71.299219) scale(0.1 -0.1)">
       <defs>
        <path id="DejaVuSans-38" d="M 2034 2216 
Q 1584 2216 1326 1975 
Q 1069 1734 1069 1313 
Q 1069 891 1326 650 
Q 1584 409 2034 409 
Q 2484 409 2743 651 
Q 3003 894 3003 1313 
Q 3003 1734 2745 1975 
Q 2488 2216 2034 2216 
z
M 1403 2484 
Q 997 2584 770 2862 
Q 544 3141 544 3541 
Q 544 4100 942 4425 
Q 1341 4750 2034 4750 
Q 2731 4750 3128 4425 
Q 3525 4100 3525 3541 
Q 3525 3141 3298 2862 
Q 3072 2584 2669 2484 
Q 3125 2378 3379 2068 
Q 3634 1759 3634 1313 
Q 3634 634 3220 271 
Q 2806 -91 2034 -91 
Q 1263 -91 848 271 
Q 434 634 434 1313 
Q 434 1759 690 2068 
Q 947 2378 1403 2484 
z
M 1172 3481 
Q 1172 3119 1398 2916 
Q 1625 2713 2034 2713 
Q 2441 2713 2670 2916 
Q 2900 3119 2900 3481 
Q 2900 3844 2670 4047 
Q 2441 4250 2034 4250 
Q 1625 4250 1398 4047 
Q 1172 3844 1172 3481 
z
" transform="scale(0.015625)"/>
       </defs>
       <use xlink:href="#DejaVuSans-2212"/>
       <use xlink:href="#DejaVuSans-32" x="83.789062"/>
       <use xlink:href="#DejaVuSans-32" x="147.412109"/>
       <use xlink:href="#DejaVuSans-30" x="211.035156"/>
       <use xlink:href="#DejaVuSans-2e" x="274.658203"/>
       <use xlink:href="#DejaVuSans-34" x="306.445312"/>
       <use xlink:href="#DejaVuSans-38" x="370.068359"/>
       <use xlink:href="#DejaVuSans-30" x="433.691406"/>
      </g>
     </g>
    </g>
    <g id="ytick_11">
     <g id="line2d_14">
      <g>
       <use xlink:href="#mb4516278c2" x="234.036" y="46.71" style="stroke: #000000; stroke-width: 0.8"/>
      </g>
     </g>
     <g id="text_19">
      <!-- 220.435 -->
      <g transform="translate(241.036 50.509219) scale(0.1 -0.1)">
       <use xlink:href="#DejaVuSans-2212"/>
       <use xlink:href="#DejaVuSans-32" x="83.789062"/>
       <use xlink:href="#DejaVuSans-32" x="147.412109"/>
       <use xlink:href="#DejaVuSans-30" x="211.035156"/>
       <use xlink:href="#DejaVuSans-2e" x="274.658203"/>
       <use xlink:href="#DejaVuSans-34" x="306.445312"/>
       <use xlink:href="#DejaVuSans-33" x="370.068359"/>
       <use xlink:href="#DejaVuSans-35" x="433.691406"/>
      </g>
     </g>
    </g>
    <g id="ytick_12">
     <g id="line2d_15">
      <g>
       <use xlink:href="#mb4516278c2" x="234.036" y="25.92" style="stroke: #000000; stroke-width: 0.8"/>
      </g>
     </g>
     <g id="text_20">
      <!-- 220.390 -->
      <g transform="translate(241.036 29.719219) scale(0.1 -0.1)">
       <defs>
        <path id="DejaVuSans-39" d="M 703 97 
L 703 672 
Q 941 559 1184 500 
Q 1428 441 1663 441 
Q 2288 441 2617 861 
Q 2947 1281 2994 2138 
Q 2813 1869 2534 1725 
Q 2256 1581 1919 1581 
Q 1219 1581 811 2004 
Q 403 2428 403 3163 
Q 403 3881 828 4315 
Q 1253 4750 1959 4750 
Q 2769 4750 3195 4129 
Q 3622 3509 3622 2328 
Q 3622 1225 3098 567 
Q 2575 -91 1691 -91 
Q 1453 -91 1209 -44 
Q 966 3 703 97 
z
M 1959 2075 
Q 2384 2075 2632 2365 
Q 2881 2656 2881 3163 
Q 2881 3666 2632 3958 
Q 2384 4250 1959 4250 
Q 1534 4250 1286 3958 
Q 1038 3666 1038 3163 
Q 1038 2656 1286 2365 
Q 1534 2075 1959 2075 
z
" transform="scale(0.015625)"/>
       </defs>
       <use xlink:href="#DejaVuSans-2212"/>
       <use xlink:href="#DejaVuSans-32" x="83.789062"/>
       <use xlink:href="#DejaVuSans-32" x="147.412109"/>
       <use xlink:href="#DejaVuSans-30" x="211.035156"/>
       <use xlink:href="#DejaVuSans-2e" x="274.658203"/>
       <use xlink:href="#DejaVuSans-33" x="306.445312"/>
       <use xlink:href="#DejaVuSans-39" x="370.068359"/>
       <use xlink:href="#DejaVuSans-30" x="433.691406"/>
      </g>
     </g>
    </g>
    <g id="text_21">
     <!-- log likelihood -->
     <g transform="translate(303.886938 148.704375) rotate(-90) scale(0.12 -0.12)">
      <defs>
       <path id="DejaVuSans-67" d="M 2906 1791 
Q 2906 2416 2648 2759 
Q 2391 3103 1925 3103 
Q 1463 3103 1205 2759 
Q 947 2416 947 1791 
Q 947 1169 1205 825 
Q 1463 481 1925 481 
Q 2391 481 2648 825 
Q 2906 1169 2906 1791 
z
M 3481 434 
Q 3481 -459 3084 -895 
Q 2688 -1331 1869 -1331 
Q 1566 -1331 1297 -1286 
Q 1028 -1241 775 -1147 
L 775 -588 
Q 1028 -725 1275 -790 
Q 1522 -856 1778 -856 
Q 2344 -856 2625 -561 
Q 2906 -266 2906 331 
L 2906 616 
Q 2728 306 2450 153 
Q 2172 0 1784 0 
Q 1141 0 747 490 
Q 353 981 353 1791 
Q 353 2603 747 3093 
Q 1141 3584 1784 3584 
Q 2172 3584 2450 3431 
Q 2728 3278 2906 2969 
L 2906 3500 
L 3481 3500 
L 3481 434 
z
" transform="scale(0.015625)"/>
       <path id="DejaVuSans-6b" d="M 581 4863 
L 1159 4863 
L 1159 1991 
L 2875 3500 
L 3609 3500 
L 1753 1863 
L 3688 0 
L 2938 0 
L 1159 1709 
L 1159 0 
L 581 0 
L 581 4863 
z
" transform="scale(0.015625)"/>
       <path id="DejaVuSans-68" d="M 3513 2113 
L 3513 0 
L 2938 0 
L 2938 2094 
Q 2938 2591 2744 2837 
Q 2550 3084 2163 3084 
Q 1697 3084 1428 2787 
Q 1159 2491 1159 1978 
L 1159 0 
L 581 0 
L 581 4863 
L 1159 4863 
L 1159 2956 
Q 1366 3272 1645 3428 
Q 1925 3584 2291 3584 
Q 2894 3584 3203 3211 
Q 3513 2838 3513 2113 
z
" transform="scale(0.015625)"/>
      </defs>
      <use xlink:href="#DejaVuSans-6c"/>
      <use xlink:href="#DejaVuSans-6f" x="27.783203"/>
      <use xlink:href="#DejaVuSans-67" x="88.964844"/>
      <use xlink:href="#DejaVuSans-20" x="152.441406"/>
      <use xlink:href="#DejaVuSans-6c" x="184.228516"/>
      <use xlink:href="#DejaVuSans-69" x="212.011719"/>
      <use xlink:href="#DejaVuSans-6b" x="239.794922"/>
      <use xlink:href="#DejaVuSans-65" x="294.080078"/>
      <use xlink:href="#DejaVuSans-6c" x="355.603516"/>
      <use xlink:href="#DejaVuSans-69" x="383.386719"/>
      <use xlink:href="#DejaVuSans-68" x="411.169922"/>
      <use xlink:href="#DejaVuSans-6f" x="474.548828"/>
      <use xlink:href="#DejaVuSans-6f" x="535.730469"/>
      <use xlink:href="#DejaVuSans-64" x="596.912109"/>
     </g>
    </g>
    <g id="text_22">
     <!-- 1e3 -->
     <g transform="translate(215.157875 22.92) scale(0.1 -0.1)">
      <use xlink:href="#DejaVuSans-31"/>
      <use xlink:href="#DejaVuSans-65" x="63.623047"/>
      <use xlink:href="#DejaVuSans-33" x="125.146484"/>
     </g>
    </g>
   </g>
   <g id="LineCollection_1"/>
   <g id="patch_8">
    <path d="M 225.72 192.24 
L 229.878 192.24 
L 234.036 192.24 
L 234.036 25.92 
L 229.878 25.92 
L 225.72 25.92 
L 225.72 192.24 
z
" style="fill: none; stroke: #000000; stroke-width: 0.8; stroke-linejoin: miter; stroke-linecap: square"/>
   </g>
  </g>
 </g>
 <defs>
  <clipPath id="p9288545a55">
   <rect x="36" y="25.92" width="178.56" height="166.32"/>
  </clipPath>
  <clipPath id="p2a81fa86d8">
   <rect x="225.72" y="25.92" width="8.316" height="166.32"/>
  </clipPath>
 </defs>
</svg>
