<?xml version="1.0" encoding="utf-8" standalone="no"?>
<!DOCTYPE svg PUBLIC "-//W3C//DTD SVG 1.1//EN"
  "http://www.w3.org/Graphics/SVG/1.1/DTD/svg11.dtd">
<svg xmlns:xlink="http://www.w3.org/1999/xlink" width="288pt" height="216pt" viewBox="0 0 288 216" xmlns="http://www.w3.org/2000/svg" version="1.1">
 <metadata>
  <rdf:RDF xmlns:dc="http://purl.org/dc/elements/1.1/" xmlns:cc="http://creativecommons.org/ns#" xmlns:rdf="http://www.w3.org/1999/02/22-rdf-syntax-ns#">
   <cc:Work>
    <dc:type rdf:resource="http://purl.org/dc/dcmitype/StillImage"/>
    <dc:date>2024-12-11T16:42:39.689516</dc:date>
    <dc:format>image/svg+xml</dc:format>
    <dc:creator>
     <cc:Agent>
      <dc:title>Matplotlib v3.8.4, https://matplotlib.org/</dc:title>
     </cc:Agent>
    </dc:creator>
   </cc:Work>
  </rdf:RDF>
 </metadata>
 <defs>
  <style type="text/css">*{stroke-linejoin: round; stroke-linecap: butt}</style>
 </defs>
 <g id="figure_1">
  <g id="patch_1">
   <path d="M 0 216 
L 288 216 
L 288 0 
L 0 0 
z
" style="fill: #ffffff"/>
  </g>
  <g id="axes_1">
   <g id="patch_2">
    <path d="M 36 192.24 
L 214.56 192.24 
L 214.56 25.92 
L 36 25.92 
z
" style="fill: #ffffff"/>
   </g>
   <g id="QuadContourSet_1">
    <path d="M 59.418489 142.344 
L 59.345697 136.8 
L 59.732827 131.256 
L 59.808 130.67166 
L 61.503058 125.712 
L 64.017463 120.168 
L 65.76 116.903453 
L 71.712 115.736487 
L 77.522391 120.168 
L 77.664 120.295112 
L 81.127349 125.712 
L 83.616 130.877317 
L 83.76138 131.256 
L 84.916671 136.8 
L 84.699441 142.344 
L 83.616 145.098607 
L 82.239129 147.888 
L 77.664 151.893658 
L 74.602445 153.432 
L 71.712 154.216493 
L 65.76 153.801218 
L 65.206186 153.432 
L 60.714407 147.888 
L 59.808 145.299344 
z
" clip-path="url(#p0cb68e604c)" style="fill: #e7e419"/>
    <path d="M 58.902769 153.432 
L 57.212013 147.888 
L 56.48132 142.344 
L 56.408528 136.8 
L 56.795658 131.256 
L 57.50887 125.712 
L 58.45532 120.168 
L 59.569217 114.624 
L 59.808 113.551114 
L 62.451648 109.08 
L 65.76 103.846237 
L 67.633858 103.536 
L 71.712 102.889949 
L 72.760361 103.536 
L 77.664 106.694106 
L 79.790098 109.08 
L 83.616 113.669988 
L 84.249633 114.624 
L 87.573769 120.168 
L 89.568 124.082416 
L 90.308847 125.712 
L 92.208155 131.256 
L 93.239097 136.8 
L 93.045248 142.344 
L 91.099387 147.888 
L 89.568 149.773603 
L 86.238475 153.432 
L 83.616 154.988444 
L 77.664 157.803242 
L 73.343002 158.976 
L 71.712 159.234133 
L 65.76 158.991974 
L 65.718911 158.976 
L 59.808 155.035303 
z
M 59.808 145.299344 
L 60.714407 147.888 
L 65.206186 153.432 
L 65.76 153.801218 
L 71.712 154.216493 
L 74.602445 153.432 
L 77.664 151.893658 
L 82.239129 147.888 
L 83.616 145.098607 
L 84.699441 142.344 
L 84.916671 136.8 
L 83.76138 131.256 
L 83.616 130.877317 
L 81.127349 125.712 
L 77.664 120.295112 
L 77.522391 120.168 
L 71.712 115.736487 
L 65.76 116.903453 
L 64.017463 120.168 
L 61.503058 125.712 
L 59.808 130.67166 
L 59.732827 131.256 
L 59.345697 136.8 
L 59.418489 142.344 
z
" clip-path="url(#p0cb68e604c)" style="fill: #b8de29"/>
    <path d="M 53.718116 142.344 
L 53.685931 136.8 
L 53.856 131.291653 
L 53.85849 131.256 
L 54.571701 125.712 
L 55.518151 120.168 
L 56.632048 114.624 
L 57.86593 109.08 
L 59.185047 103.536 
L 59.808 101.030797 
L 61.815481 97.992 
L 65.58469 92.448 
L 65.76 92.194715 
L 71.712 91.294761 
L 73.672698 92.448 
L 77.664 94.837976 
L 80.686918 97.992 
L 83.616 101.137193 
L 85.396088 103.536 
L 89.332652 109.08 
L 89.568 109.434345 
L 92.643855 114.624 
L 95.52 119.999416 
L 95.604974 120.168 
L 97.979348 125.712 
L 99.768592 131.256 
L 100.739792 136.8 
L 100.557176 142.344 
L 98.724077 147.888 
L 95.52 152.075878 
L 94.41863 153.432 
L 89.568 156.658096 
L 85.66253 158.976 
L 83.616 159.684281 
L 77.664 161.325674 
L 71.712 162.267678 
L 65.76 162.025519 
L 59.808 159.711606 
L 59.095764 158.976 
L 55.9656 153.432 
L 54.274844 147.888 
L 53.856 144.710094 
z
M 59.808 155.035303 
L 65.718911 158.976 
L 65.76 158.991974 
L 71.712 159.234133 
L 73.343002 158.976 
L 77.664 157.803242 
L 83.616 154.988444 
L 86.238475 153.432 
L 89.568 149.773603 
L 91.099387 147.888 
L 93.045248 142.344 
L 93.239097 136.8 
L 92.208155 131.256 
L 90.308847 125.712 
L 89.568 124.082416 
L 87.573769 120.168 
L 84.249633 114.624 
L 83.616 113.669988 
L 79.790098 109.08 
L 77.664 106.694106 
L 72.760361 103.536 
L 71.712 102.889949 
L 67.633858 103.536 
L 65.76 103.846237 
L 62.451648 109.08 
L 59.808 113.551114 
L 59.569217 114.624 
L 58.45532 120.168 
L 57.50887 125.712 
L 56.795658 131.256 
L 56.408528 136.8 
L 56.48132 142.344 
L 57.212013 147.888 
L 58.902769 153.432 
z
" clip-path="url(#p0cb68e604c)" style="fill: #89d548"/>
    <path d="M 53.490091 153.432 
L 52.742524 147.888 
L 52.419448 142.344 
L 52.387263 136.8 
L 52.558432 131.256 
L 52.873779 125.712 
L 53.292251 120.168 
L 53.78476 114.624 
L 53.856 113.900062 
L 54.928761 109.08 
L 56.247878 103.536 
L 57.62647 97.992 
L 59.045242 92.448 
L 59.808 89.520296 
L 61.618857 86.904 
L 65.494741 81.36 
L 65.76 80.982155 
L 71.712 80.094874 
L 73.893645 81.36 
L 77.664 83.555536 
L 80.964104 86.904 
L 83.616 89.621846 
L 85.813301 92.448 
L 89.568 97.364452 
L 89.995675 97.992 
L 93.666912 103.536 
L 95.52 106.460548 
L 97.083586 109.08 
L 100.179044 114.624 
L 101.472 117.189139 
L 102.929658 120.168 
L 105.234713 125.712 
L 106.971722 131.256 
L 107.424 133.915423 
L 107.90898 136.8 
L 107.733716 142.344 
L 107.424 143.319987 
L 105.957701 147.888 
L 101.839908 153.432 
L 101.472 153.699554 
L 95.52 157.901668 
L 93.904676 158.976 
L 89.568 160.657905 
L 83.616 162.717826 
L 77.664 164.359219 
L 76.648115 164.52 
L 71.712 164.984858 
L 65.76 164.840764 
L 64.373384 164.52 
L 59.808 162.745151 
L 56.158595 158.976 
L 53.856 154.897751 
z
M 53.856 144.710094 
L 54.274844 147.888 
L 55.9656 153.432 
L 59.095764 158.976 
L 59.808 159.711606 
L 65.76 162.025519 
L 71.712 162.267678 
L 77.664 161.325674 
L 83.616 159.684281 
L 85.66253 158.976 
L 89.568 156.658096 
L 94.41863 153.432 
L 95.52 152.075878 
L 98.724077 147.888 
L 100.557176 142.344 
L 100.739792 136.8 
L 99.768592 131.256 
L 97.979348 125.712 
L 95.604974 120.168 
L 95.52 119.999416 
L 92.643855 114.624 
L 89.568 109.434345 
L 89.332652 109.08 
L 85.396088 103.536 
L 83.616 101.137193 
L 80.686918 97.992 
L 77.664 94.837976 
L 73.672698 92.448 
L 71.712 91.294761 
L 65.76 92.194715 
L 65.58469 92.448 
L 61.815481 97.992 
L 59.808 101.030797 
L 59.185047 103.536 
L 57.86593 109.08 
L 56.632048 114.624 
L 55.518151 120.168 
L 54.571701 125.712 
L 53.85849 131.256 
L 53.856 131.291653 
L 53.685931 136.8 
L 53.718116 142.344 
z
" clip-path="url(#p0cb68e604c)" style="fill: #5cc863"/>
    <path d="M 53.575423 158.976 
L 52.191422 153.432 
L 51.443855 147.888 
L 51.12078 142.344 
L 51.088594 136.8 
L 51.259764 131.256 
L 51.57511 125.712 
L 51.993583 120.168 
L 52.486092 114.624 
L 53.031653 109.08 
L 53.6149 103.536 
L 53.856 101.343116 
L 54.689301 97.992 
L 56.108073 92.448 
L 57.552458 86.904 
L 59.011384 81.36 
L 59.808 78.345396 
L 61.583714 75.816 
L 65.474754 70.272 
L 65.76 69.864089 
L 71.712 68.973326 
L 73.942742 70.272 
L 77.664 72.430506 
L 81.013646 75.816 
L 83.616 78.445516 
L 85.91434 81.36 
L 89.568 86.012476 
L 90.19277 86.904 
L 94.039219 92.448 
L 95.52 94.620823 
L 97.684324 97.992 
L 101.142815 103.536 
L 101.472 104.087478 
L 104.365103 109.08 
L 107.370192 114.624 
L 107.424 114.733963 
L 110.052766 120.168 
L 112.331561 125.712 
L 113.376 129.083944 
L 114.048873 131.256 
L 114.981105 136.8 
L 114.805817 142.344 
L 113.376 146.849075 
L 113.046312 147.888 
L 108.975431 153.432 
L 107.424 154.57325 
L 101.472 158.90173 
L 101.366801 158.976 
L 95.52 161.383069 
L 89.568 163.69145 
L 87.173962 164.52 
L 83.616 165.252713 
L 77.664 166.229406 
L 71.712 166.789935 
L 65.76 166.645841 
L 59.808 165.268973 
L 58.589293 164.52 
L 53.856 159.631396 
z
M 53.856 154.897751 
L 56.158595 158.976 
L 59.808 162.745151 
L 64.373384 164.52 
L 65.76 164.840764 
L 71.712 164.984858 
L 76.648115 164.52 
L 77.664 164.359219 
L 83.616 162.717826 
L 89.568 160.657905 
L 93.904676 158.976 
L 95.52 157.901668 
L 101.472 153.699554 
L 101.839908 153.432 
L 105.957701 147.888 
L 107.424 143.319987 
L 107.733716 142.344 
L 107.90898 136.8 
L 107.424 133.915423 
L 106.971722 131.256 
L 105.234713 125.712 
L 102.929658 120.168 
L 101.472 117.189139 
L 100.179044 114.624 
L 97.083586 109.08 
L 95.52 106.460548 
L 93.666912 103.536 
L 89.995675 97.992 
L 89.568 97.364452 
L 85.813301 92.448 
L 83.616 89.621846 
L 80.964104 86.904 
L 77.664 83.555536 
L 73.893645 81.36 
L 71.712 80.094874 
L 65.76 80.982155 
L 65.494741 81.36 
L 61.618857 86.904 
L 59.808 89.520296 
L 59.045242 92.448 
L 57.62647 97.992 
L 56.247878 103.536 
L 54.928761 109.08 
L 53.856 113.900062 
L 53.78476 114.624 
L 53.292251 120.168 
L 52.873779 125.712 
L 52.558432 131.256 
L 52.387263 136.8 
L 52.419448 142.344 
L 52.742524 147.888 
L 53.490091 153.432 
z
" clip-path="url(#p0cb68e604c)" style="fill: #3aba76"/>
    <path d="M 52.276755 158.976 
L 50.892754 153.432 
L 50.145187 147.888 
L 49.822111 142.344 
L 49.789926 136.8 
L 49.961096 131.256 
L 50.276442 125.712 
L 50.694915 120.168 
L 51.187424 114.624 
L 51.732984 109.08 
L 52.316232 103.536 
L 52.925775 97.992 
L 53.553085 92.448 
L 53.856 89.818389 
L 54.615289 86.904 
L 56.074215 81.36 
L 57.53923 75.816 
L 59.003861 70.272 
L 59.808 67.216982 
L 61.548511 64.728 
L 65.401071 59.184 
L 65.76 58.663164 
L 71.712 57.759284 
L 74.123733 59.184 
L 77.664 61.258032 
L 81.063273 64.728 
L 83.616 67.317494 
L 85.936792 70.272 
L 89.568 74.877876 
L 90.227997 75.816 
L 94.129383 81.36 
L 95.52 83.34436 
L 97.869998 86.904 
L 101.472 92.415033 
L 101.492918 92.448 
L 104.948302 97.992 
L 107.424 102.079913 
L 108.295781 103.536 
L 111.471857 109.08 
L 113.376 112.633378 
L 114.442856 114.624 
L 117.125183 120.168 
L 119.328 125.526425 
L 119.404886 125.712 
L 121.135798 131.256 
L 122.075336 136.8 
L 121.898673 142.344 
L 120.125336 147.888 
L 119.328 148.965277 
L 116.047701 153.432 
L 113.376 155.397066 
L 108.51075 158.976 
L 107.424 159.442169 
L 101.472 161.966236 
L 95.52 164.416614 
L 95.253427 164.52 
L 89.568 165.832058 
L 83.616 167.05779 
L 77.664 168.034483 
L 71.712 168.595012 
L 65.76 168.450918 
L 59.808 167.07405 
L 55.652124 164.52 
L 53.856 162.66494 
z
M 53.856 159.631396 
L 58.589293 164.52 
L 59.808 165.268973 
L 65.76 166.645841 
L 71.712 166.789935 
L 77.664 166.229406 
L 83.616 165.252713 
L 87.173962 164.52 
L 89.568 163.69145 
L 95.52 161.383069 
L 101.366801 158.976 
L 101.472 158.90173 
L 107.424 154.57325 
L 108.975431 153.432 
L 113.046312 147.888 
L 113.376 146.849075 
L 114.805817 142.344 
L 114.981105 136.8 
L 114.048873 131.256 
L 113.376 129.083944 
L 112.331561 125.712 
L 110.052766 120.168 
L 107.424 114.733963 
L 107.370192 114.624 
L 104.365103 109.08 
L 101.472 104.087478 
L 101.142815 103.536 
L 97.684324 97.992 
L 95.52 94.620823 
L 94.039219 92.448 
L 90.19277 86.904 
L 89.568 86.012476 
L 85.91434 81.36 
L 83.616 78.445516 
L 81.013646 75.816 
L 77.664 72.430506 
L 73.942742 70.272 
L 71.712 68.973326 
L 65.76 69.864089 
L 65.474754 70.272 
L 61.583714 75.816 
L 59.808 78.345396 
L 59.011384 81.36 
L 57.552458 86.904 
L 56.108073 92.448 
L 54.689301 97.992 
L 53.856 101.343116 
L 53.6149 103.536 
L 53.031653 109.08 
L 52.486092 114.624 
L 51.993583 120.168 
L 51.57511 125.712 
L 51.259764 131.256 
L 51.088594 136.8 
L 51.12078 142.344 
L 51.443855 147.888 
L 52.191422 153.432 
L 53.575423 158.976 
z
" clip-path="url(#p0cb68e604c)" style="fill: #24aa83"/>
    <path d="M 53.351487 164.52 
L 50.978087 158.976 
L 49.594086 153.432 
L 48.846519 147.888 
L 48.523443 142.344 
L 48.491258 136.8 
L 48.662427 131.256 
L 48.977774 125.712 
L 49.396246 120.168 
L 49.888755 114.624 
L 50.434316 109.08 
L 51.017563 103.536 
L 51.627107 97.992 
L 52.254417 92.448 
L 52.893051 86.904 
L 53.538115 81.36 
L 53.856 78.639291 
L 54.602061 75.816 
L 56.066692 70.272 
L 57.525979 64.728 
L 58.976126 59.184 
L 59.808 55.977079 
L 61.418572 53.64 
L 65.20136 48.096 
L 65.76 47.268036 
L 71.712 46.344835 
L 74.614299 48.096 
L 77.664 49.915593 
L 81.246451 53.64 
L 83.616 56.079072 
L 86.01956 59.184 
L 89.568 63.729847 
L 90.263285 64.728 
L 94.149419 70.272 
L 95.52 72.220153 
L 97.903183 75.816 
L 101.472 81.199372 
L 101.575377 81.36 
L 105.128556 86.904 
L 107.424 90.521623 
L 108.632394 92.448 
L 112.048413 97.992 
L 113.376 100.209395 
L 115.367958 103.536 
L 118.544468 109.08 
L 119.328 110.541974 
L 121.532869 114.624 
L 124.236214 120.168 
L 125.28 122.687304 
L 126.549575 125.712 
L 128.303135 131.256 
L 129.254965 136.8 
L 129.075992 142.344 
L 127.279451 147.888 
L 125.28 150.554558 
L 123.150289 153.432 
L 119.328 156.221479 
L 115.582957 158.976 
L 113.376 159.922561 
L 107.424 162.475714 
L 102.60337 164.52 
L 101.472 164.805488 
L 95.52 166.263558 
L 89.568 167.637134 
L 83.616 168.862867 
L 77.664 169.83956 
L 75.280771 170.064 
L 71.712 170.260834 
L 65.76 170.176443 
L 64.930036 170.064 
L 59.808 168.879127 
L 53.856 165.221244 
z
M 53.856 162.66494 
L 55.652124 164.52 
L 59.808 167.07405 
L 65.76 168.450918 
L 71.712 168.595012 
L 77.664 168.034483 
L 83.616 167.05779 
L 89.568 165.832058 
L 95.253427 164.52 
L 95.52 164.416614 
L 101.472 161.966236 
L 107.424 159.442169 
L 108.51075 158.976 
L 113.376 155.397066 
L 116.047701 153.432 
L 119.328 148.965277 
L 120.125336 147.888 
L 121.898673 142.344 
L 122.075336 136.8 
L 121.135798 131.256 
L 119.404886 125.712 
L 119.328 125.526425 
L 117.125183 120.168 
L 114.442856 114.624 
L 113.376 112.633378 
L 111.471857 109.08 
L 108.295781 103.536 
L 107.424 102.079913 
L 104.948302 97.992 
L 101.492918 92.448 
L 101.472 92.415033 
L 97.869998 86.904 
L 95.52 83.34436 
L 94.129383 81.36 
L 90.227997 75.816 
L 89.568 74.877876 
L 85.936792 70.272 
L 83.616 67.317494 
L 81.063273 64.728 
L 77.664 61.258032 
L 74.123733 59.184 
L 71.712 57.759284 
L 65.76 58.663164 
L 65.401071 59.184 
L 61.548511 64.728 
L 59.808 67.216982 
L 59.003861 70.272 
L 57.53923 75.816 
L 56.074215 81.36 
L 54.615289 86.904 
L 53.856 89.818389 
L 53.553085 92.448 
L 52.925775 97.992 
L 52.316232 103.536 
L 51.732984 109.08 
L 51.187424 114.624 
L 50.694915 120.168 
L 50.276442 125.712 
L 49.961096 131.256 
L 49.789926 136.8 
L 49.822111 142.344 
L 50.145187 147.888 
L 50.892754 153.432 
L 52.276755 158.976 
z
" clip-path="url(#p0cb68e604c)" style="fill: #1f998a"/>
    <path d="M 47.616041 147.888 
L 47.377912 142.344 
L 47.355281 136.8 
L 47.477854 131.256 
L 47.718864 125.712 
L 47.904 122.732556 
L 48.097578 120.168 
L 48.590087 114.624 
L 49.135648 109.08 
L 49.718895 103.536 
L 50.328439 97.992 
L 50.955748 92.448 
L 51.594383 86.904 
L 52.239447 81.36 
L 52.887202 75.816 
L 53.534788 70.272 
L 53.856 67.51203 
L 54.58881 64.728 
L 56.038957 59.184 
L 57.477069 53.64 
L 58.900952 48.096 
L 59.808 44.524532 
L 61.138899 42.552 
L 64.834146 37.008 
L 65.76 35.600777 
L 71.712 34.654022 
L 75.516313 37.008 
L 77.664 38.319767 
L 81.640713 42.552 
L 83.616 44.628705 
L 86.243896 48.096 
L 89.568 52.433 
L 90.393535 53.64 
L 94.223277 59.184 
L 95.52 61.045578 
L 97.936426 64.728 
L 101.472 70.082158 
L 101.593701 70.272 
L 105.160772 75.816 
L 107.424 79.332624 
L 108.713914 81.36 
L 112.226613 86.904 
L 113.376 88.73631 
L 115.704618 92.448 
L 119.121102 97.992 
L 119.328 98.337523 
L 122.46522 103.536 
L 125.28 108.410474 
L 125.671679 109.08 
L 128.705401 114.624 
L 131.232 119.73861 
L 131.44766 120.168 
L 133.813552 125.712 
L 135.596405 131.256 
L 136.564136 136.8 
L 136.382172 142.344 
L 134.555621 147.888 
L 131.232 152.247701 
L 130.343984 153.432 
L 125.28 157.079928 
L 122.681903 158.976 
L 119.328 160.403301 
L 113.376 162.956106 
L 109.730195 164.52 
L 107.424 165.108647 
L 101.472 166.610565 
L 95.52 168.068635 
L 89.568 169.442211 
L 86.548674 170.064 
L 83.616 170.417706 
L 77.664 170.989715 
L 71.712 171.317994 
L 65.76 171.233604 
L 59.808 170.427228 
L 58.798823 170.064 
L 53.856 167.026321 
L 52.052819 164.52 
L 49.679418 158.976 
L 48.295417 153.432 
L 47.904 150.529227 
z
M 53.856 165.221244 
L 59.808 168.879127 
L 64.930036 170.064 
L 65.76 170.176443 
L 71.712 170.260834 
L 75.280771 170.064 
L 77.664 169.83956 
L 83.616 168.862867 
L 89.568 167.637134 
L 95.52 166.263558 
L 101.472 164.805488 
L 102.60337 164.52 
L 107.424 162.475714 
L 113.376 159.922561 
L 115.582957 158.976 
L 119.328 156.221479 
L 123.150289 153.432 
L 125.28 150.554558 
L 127.279451 147.888 
L 129.075992 142.344 
L 129.254965 136.8 
L 128.303135 131.256 
L 126.549575 125.712 
L 125.28 122.687304 
L 124.236214 120.168 
L 121.532869 114.624 
L 119.328 110.541974 
L 118.544468 109.08 
L 115.367958 103.536 
L 113.376 100.209395 
L 112.048413 97.992 
L 108.632394 92.448 
L 107.424 90.521623 
L 105.128556 86.904 
L 101.575377 81.36 
L 101.472 81.199372 
L 97.903183 75.816 
L 95.52 72.220153 
L 94.149419 70.272 
L 90.263285 64.728 
L 89.568 63.729847 
L 86.01956 59.184 
L 83.616 56.079072 
L 81.246451 53.64 
L 77.664 49.915593 
L 74.614299 48.096 
L 71.712 46.344835 
L 65.76 47.268036 
L 65.20136 48.096 
L 61.418572 53.64 
L 59.808 55.977079 
L 58.976126 59.184 
L 57.525979 64.728 
L 56.066692 70.272 
L 54.602061 75.816 
L 53.856 78.639291 
L 53.538115 81.36 
L 52.893051 86.904 
L 52.254417 92.448 
L 51.627107 97.992 
L 51.017563 103.536 
L 50.434316 109.08 
L 49.888755 114.624 
L 49.396246 120.168 
L 48.977774 125.712 
L 48.662427 131.256 
L 48.491258 136.8 
L 48.523443 142.344 
L 48.846519 147.888 
L 49.594086 153.432 
L 50.978087 158.976 
L 53.351487 164.52 
z
" clip-path="url(#p0cb68e604c)" style="fill: #24878e"/>
    <path d="M 47.087545 153.432 
L 46.566024 147.888 
L 46.37204 142.344 
L 46.353605 136.8 
L 46.453454 131.256 
L 46.649785 125.712 
L 46.938389 120.168 
L 47.327018 114.624 
L 47.834909 109.08 
L 47.904 108.442941 
L 48.420227 103.536 
L 49.02977 97.992 
L 49.65708 92.448 
L 50.295714 86.904 
L 50.940778 81.36 
L 51.588534 75.816 
L 52.23612 70.272 
L 52.881343 64.728 
L 53.522525 59.184 
L 53.856 56.276472 
L 54.5399 53.64 
L 55.963783 48.096 
L 57.371796 42.552 
L 58.762729 37.008 
L 59.808 32.787277 
L 60.678623 31.464 
L 64.276913 25.92 
L 65.76 25.92 
L 71.712 25.92 
L 76.885085 25.92 
L 77.664 26.408566 
L 82.289575 31.464 
L 83.616 32.894108 
L 86.656388 37.008 
L 89.568 40.896811 
L 90.673879 42.552 
L 94.423467 48.096 
L 95.52 49.699221 
L 98.059128 53.64 
L 101.472 58.884443 
L 101.661248 59.184 
L 105.193045 64.728 
L 107.424 68.208083 
L 108.732029 70.272 
L 112.258462 75.816 
L 113.376 77.57245 
L 115.786149 81.36 
L 119.299326 86.904 
L 119.328 86.949705 
L 122.804517 92.448 
L 125.28 96.433785 
L 126.260435 97.992 
L 129.649951 103.536 
L 131.232 106.240317 
L 132.92099 109.08 
L 136.005391 114.624 
L 137.184 116.970665 
L 138.820711 120.168 
L 141.232059 125.712 
L 143.049166 131.256 
L 143.136 131.744083 
L 144.054328 136.8 
L 143.864985 142.344 
L 143.136 144.470391 
L 141.988385 147.888 
L 137.68071 153.432 
L 137.184 153.7773 
L 131.232 157.994478 
L 129.86947 158.976 
L 125.28 160.903888 
L 119.328 163.436846 
L 116.802569 164.52 
L 113.376 165.394499 
L 107.424 166.913724 
L 101.472 168.415642 
L 95.52 169.873712 
L 94.695441 170.064 
L 89.568 170.783691 
L 83.616 171.474866 
L 77.664 172.046876 
L 71.712 172.375155 
L 65.76 172.290765 
L 59.808 171.484389 
L 55.861654 170.064 
L 53.856 168.831398 
L 50.754151 164.52 
L 48.38075 158.976 
L 47.904 157.066245 
z
M 47.904 150.529227 
L 48.295417 153.432 
L 49.679418 158.976 
L 52.052819 164.52 
L 53.856 167.026321 
L 58.798823 170.064 
L 59.808 170.427228 
L 65.76 171.233604 
L 71.712 171.317994 
L 77.664 170.989715 
L 83.616 170.417706 
L 86.548674 170.064 
L 89.568 169.442211 
L 95.52 168.068635 
L 101.472 166.610565 
L 107.424 165.108647 
L 109.730195 164.52 
L 113.376 162.956106 
L 119.328 160.403301 
L 122.681903 158.976 
L 125.28 157.079928 
L 130.343984 153.432 
L 131.232 152.247701 
L 134.555621 147.888 
L 136.382172 142.344 
L 136.564136 136.8 
L 135.596405 131.256 
L 133.813552 125.712 
L 131.44766 120.168 
L 131.232 119.73861 
L 128.705401 114.624 
L 125.671679 109.08 
L 125.28 108.410474 
L 122.46522 103.536 
L 119.328 98.337523 
L 119.121102 97.992 
L 115.704618 92.448 
L 113.376 88.73631 
L 112.226613 86.904 
L 108.713914 81.36 
L 107.424 79.332624 
L 105.160772 75.816 
L 101.593701 70.272 
L 101.472 70.082158 
L 97.936426 64.728 
L 95.52 61.045578 
L 94.223277 59.184 
L 90.393535 53.64 
L 89.568 52.433 
L 86.243896 48.096 
L 83.616 44.628705 
L 81.640713 42.552 
L 77.664 38.319767 
L 75.516313 37.008 
L 71.712 34.654022 
L 65.76 35.600777 
L 64.834146 37.008 
L 61.138899 42.552 
L 59.808 44.524532 
L 58.900952 48.096 
L 57.477069 53.64 
L 56.038957 59.184 
L 54.58881 64.728 
L 53.856 67.51203 
L 53.534788 70.272 
L 52.887202 75.816 
L 52.239447 81.36 
L 51.594383 86.904 
L 50.955748 92.448 
L 50.328439 97.992 
L 49.718895 103.536 
L 49.135648 109.08 
L 48.590087 114.624 
L 48.097578 120.168 
L 47.904 122.732556 
L 47.718864 125.712 
L 47.477854 131.256 
L 47.355281 136.8 
L 47.377912 142.344 
L 47.616041 147.888 
z
" clip-path="url(#p0cb68e604c)" style="fill: #2a768e"/>
    <path d="M 46.968599 158.976 
L 45.918845 153.432 
L 45.516007 147.888 
L 45.366168 142.344 
L 45.351928 136.8 
L 45.429055 131.256 
L 45.580707 125.712 
L 45.803633 120.168 
L 46.103821 114.624 
L 46.496131 109.08 
L 47.006754 103.536 
L 47.679352 97.992 
L 47.904 96.463972 
L 48.358412 92.448 
L 48.997046 86.904 
L 49.64211 81.36 
L 50.289866 75.816 
L 50.937452 70.272 
L 51.582675 64.728 
L 52.223857 59.184 
L 52.758743 53.64 
L 53.398867 48.096 
L 53.856 44.830325 
L 54.434628 42.552 
L 55.82556 37.008 
L 57.198544 31.464 
L 58.55298 25.92 
L 59.808 25.92 
L 64.276913 25.92 
L 60.678623 31.464 
L 59.808 32.787277 
L 58.762729 37.008 
L 57.371796 42.552 
L 55.963783 48.096 
L 54.5399 53.64 
L 53.856 56.276472 
L 53.522525 59.184 
L 52.881343 64.728 
L 52.23612 70.272 
L 51.588534 75.816 
L 50.940778 81.36 
L 50.295714 86.904 
L 49.65708 92.448 
L 49.02977 97.992 
L 48.420227 103.536 
L 47.904 108.442941 
L 47.834909 109.08 
L 47.327018 114.624 
L 46.938389 120.168 
L 46.649785 125.712 
L 46.453454 131.256 
L 46.353605 136.8 
L 46.37204 142.344 
L 46.566024 147.888 
L 47.087545 153.432 
L 47.904 157.066245 
L 48.38075 158.976 
L 50.754151 164.52 
L 53.856 168.831398 
L 55.861654 170.064 
L 59.808 171.484389 
L 65.76 172.290765 
L 71.712 172.375155 
L 77.664 172.046876 
L 83.616 171.474866 
L 89.568 170.783691 
L 94.695441 170.064 
L 95.52 169.873712 
L 101.472 168.415642 
L 107.424 166.913724 
L 113.376 165.394499 
L 116.802569 164.52 
L 119.328 163.436846 
L 125.28 160.903888 
L 129.86947 158.976 
L 131.232 157.994478 
L 137.184 153.7773 
L 137.68071 153.432 
L 141.988385 147.888 
L 143.136 144.470391 
L 143.864985 142.344 
L 144.054328 136.8 
L 143.136 131.744083 
L 143.049166 131.256 
L 141.232059 125.712 
L 138.820711 120.168 
L 137.184 116.970665 
L 136.005391 114.624 
L 132.92099 109.08 
L 131.232 106.240317 
L 129.649951 103.536 
L 126.260435 97.992 
L 125.28 96.433785 
L 122.804517 92.448 
L 119.328 86.949705 
L 119.299326 86.904 
L 115.786149 81.36 
L 113.376 77.57245 
L 112.258462 75.816 
L 108.732029 70.272 
L 107.424 68.208083 
L 105.193045 64.728 
L 101.661248 59.184 
L 101.472 58.884443 
L 98.059128 53.64 
L 95.52 49.699221 
L 94.423467 48.096 
L 90.673879 42.552 
L 89.568 40.896811 
L 86.656388 37.008 
L 83.616 32.894108 
L 82.289575 31.464 
L 77.664 26.408566 
L 76.885085 25.92 
L 77.664 25.92 
L 83.616 25.92 
L 87.282329 25.92 
L 89.568 29.05505 
L 91.135257 31.464 
L 94.791561 37.008 
L 95.52 38.098268 
L 98.323226 42.552 
L 101.472 47.494046 
L 101.844332 48.096 
L 105.312165 53.64 
L 107.424 56.982774 
L 108.798807 59.184 
L 112.290367 64.728 
L 113.376 66.441002 
L 115.804266 70.272 
L 119.328 75.811001 
L 119.331205 75.816 
L 122.886687 81.36 
L 125.28 85.107424 
L 126.442406 86.904 
L 129.993688 92.448 
L 131.232 94.416061 
L 133.519582 97.992 
L 136.96572 103.536 
L 137.184 103.902992 
L 140.322348 109.08 
L 143.136 114.042012 
L 143.472921 114.624 
L 146.370322 120.168 
L 148.83217 125.712 
L 149.088 126.476526 
L 150.722707 131.256 
L 151.751961 136.8 
L 151.558429 142.344 
L 149.615757 147.888 
L 149.088 148.538896 
L 145.206445 153.432 
L 143.136 154.841796 
L 137.189 158.976 
L 137.184 158.978027 
L 131.232 161.43719 
L 125.28 163.937433 
L 123.911071 164.52 
L 119.328 165.680558 
L 113.376 167.199576 
L 107.424 168.718801 
L 102.093065 170.064 
L 101.472 170.202273 
L 95.52 171.220393 
L 89.568 171.881563 
L 83.616 172.532027 
L 77.664 173.104036 
L 71.712 173.432316 
L 65.76 173.347925 
L 59.808 172.54155 
L 53.856 170.537749 
L 53.347387 170.064 
L 49.455482 164.52 
L 47.904 160.89591 
z
" clip-path="url(#p0cb68e604c)" style="fill: #32658e"/>
    <path d="M 45.490624 158.976 
L 44.750145 153.432 
L 44.46599 147.888 
L 44.360296 142.344 
L 44.350252 136.8 
L 44.404655 131.256 
L 44.511628 125.712 
L 44.668876 120.168 
L 44.880624 114.624 
L 45.157353 109.08 
L 45.517537 103.536 
L 45.991976 97.992 
L 46.632995 92.448 
L 47.534804 86.904 
L 47.904 85.13678 
L 48.343442 81.36 
L 48.991197 75.816 
L 49.638783 70.272 
L 50.284007 64.728 
L 50.925189 59.184 
L 51.328453 53.64 
L 51.779986 48.096 
L 52.361132 42.552 
L 53.136089 37.008 
L 53.856 33.100871 
L 54.261375 31.464 
L 55.615811 25.92 
L 58.55298 25.92 
L 57.198544 31.464 
L 55.82556 37.008 
L 54.434628 42.552 
L 53.856 44.830325 
L 53.398867 48.096 
L 52.758743 53.64 
L 52.223857 59.184 
L 51.582675 64.728 
L 50.937452 70.272 
L 50.289866 75.816 
L 49.64211 81.36 
L 48.997046 86.904 
L 48.358412 92.448 
L 47.904 96.463972 
L 47.679352 97.992 
L 47.006754 103.536 
L 46.496131 109.08 
L 46.103821 114.624 
L 45.803633 120.168 
L 45.580707 125.712 
L 45.429055 131.256 
L 45.351928 136.8 
L 45.366168 142.344 
L 45.516007 147.888 
L 45.918845 153.432 
L 46.968599 158.976 
L 47.904 160.89591 
L 49.455482 164.52 
L 53.347387 170.064 
L 53.856 170.537749 
L 59.808 172.54155 
L 65.76 173.347925 
L 71.712 173.432316 
L 77.664 173.104036 
L 83.616 172.532027 
L 89.568 171.881563 
L 95.52 171.220393 
L 101.472 170.202273 
L 102.093065 170.064 
L 107.424 168.718801 
L 113.376 167.199576 
L 119.328 165.680558 
L 123.911071 164.52 
L 125.28 163.937433 
L 131.232 161.43719 
L 137.184 158.978027 
L 137.189 158.976 
L 143.136 154.841796 
L 145.206445 153.432 
L 149.088 148.538896 
L 149.615757 147.888 
L 151.558429 142.344 
L 151.751961 136.8 
L 150.722707 131.256 
L 149.088 126.476526 
L 148.83217 125.712 
L 146.370322 120.168 
L 143.472921 114.624 
L 143.136 114.042012 
L 140.322348 109.08 
L 137.184 103.902992 
L 136.96572 103.536 
L 133.519582 97.992 
L 131.232 94.416061 
L 129.993688 92.448 
L 126.442406 86.904 
L 125.28 85.107424 
L 122.886687 81.36 
L 119.331205 75.816 
L 119.328 75.811001 
L 115.804266 70.272 
L 113.376 66.441002 
L 112.290367 64.728 
L 108.798807 59.184 
L 107.424 56.982774 
L 105.312165 53.64 
L 101.844332 48.096 
L 101.472 47.494046 
L 98.323226 42.552 
L 95.52 38.098268 
L 94.791561 37.008 
L 91.135257 31.464 
L 89.568 29.05505 
L 87.282329 25.92 
L 89.568 25.92 
L 95.35013 25.92 
L 95.52 26.181099 
L 98.757868 31.464 
L 101.472 35.832553 
L 102.180971 37.008 
L 105.568553 42.552 
L 107.424 45.551726 
L 108.979804 48.096 
L 112.40813 53.64 
L 113.376 55.189673 
L 115.871053 59.184 
L 119.328 64.672292 
L 119.363364 64.728 
L 122.904946 70.272 
L 125.28 73.97635 
L 126.47493 75.816 
L 130.076933 81.36 
L 131.232 83.145234 
L 133.704593 86.904 
L 137.184 92.246548 
L 137.317719 92.448 
L 140.932441 97.992 
L 143.136 101.470166 
L 144.4722 103.536 
L 147.903408 109.08 
L 149.088 111.126232 
L 151.157694 114.624 
L 154.11918 120.168 
L 155.04 122.196784 
L 156.672004 125.712 
L 158.611607 131.256 
L 159.664422 136.8 
L 159.46646 142.344 
L 157.479316 147.888 
L 155.04 150.829142 
L 152.929561 153.432 
L 149.088 155.99117 
L 144.704437 158.976 
L 143.136 159.598766 
L 137.184 162.011572 
L 131.232 164.470735 
L 131.114721 164.52 
L 125.28 165.978427 
L 119.328 167.485635 
L 113.376 169.004653 
L 109.225704 170.064 
L 107.424 170.597196 
L 101.472 171.794892 
L 95.52 172.513057 
L 89.568 172.979435 
L 83.616 173.589188 
L 77.664 174.161197 
L 71.712 174.489476 
L 65.76 174.405086 
L 59.808 173.59871 
L 53.856 172.031531 
L 51.743672 170.064 
L 48.156814 164.52 
L 47.904 163.929455 
z
" clip-path="url(#p0cb68e604c)" style="fill: #3b518b"/>
    <path d="M 45.724791 164.52 
L 44.012648 158.976 
L 43.581445 153.432 
L 43.415973 147.888 
L 43.354424 142.344 
L 43.348575 136.8 
L 43.380256 131.256 
L 43.442549 125.712 
L 43.53412 120.168 
L 43.657427 114.624 
L 43.818575 109.08 
L 44.028321 103.536 
L 44.304601 97.992 
L 44.677886 92.448 
L 45.203037 86.904 
L 45.988513 81.36 
L 47.281547 75.816 
L 47.904 74.005591 
L 48.340115 70.272 
L 48.985338 64.728 
L 49.62652 59.184 
L 49.898163 53.64 
L 50.161105 48.096 
L 50.499524 42.552 
L 50.950805 37.008 
L 51.582052 31.464 
L 52.526901 25.92 
L 53.856 25.92 
L 55.615811 25.92 
L 54.261375 31.464 
L 53.856 33.100871 
L 53.136089 37.008 
L 52.361132 42.552 
L 51.779986 48.096 
L 51.328453 53.64 
L 50.925189 59.184 
L 50.284007 64.728 
L 49.638783 70.272 
L 48.991197 75.816 
L 48.343442 81.36 
L 47.904 85.13678 
L 47.534804 86.904 
L 46.632995 92.448 
L 45.991976 97.992 
L 45.517537 103.536 
L 45.157353 109.08 
L 44.880624 114.624 
L 44.668876 120.168 
L 44.511628 125.712 
L 44.404655 131.256 
L 44.350252 136.8 
L 44.360296 142.344 
L 44.46599 147.888 
L 44.750145 153.432 
L 45.490624 158.976 
L 47.904 163.929455 
L 48.156814 164.52 
L 51.743672 170.064 
L 53.856 172.031531 
L 59.808 173.59871 
L 65.76 174.405086 
L 71.712 174.489476 
L 77.664 174.161197 
L 83.616 173.589188 
L 89.568 172.979435 
L 95.52 172.513057 
L 101.472 171.794892 
L 107.424 170.597196 
L 109.225704 170.064 
L 113.376 169.004653 
L 119.328 167.485635 
L 125.28 165.978427 
L 131.114721 164.52 
L 131.232 164.470735 
L 137.184 162.011572 
L 143.136 159.598766 
L 144.704437 158.976 
L 149.088 155.99117 
L 152.929561 153.432 
L 155.04 150.829142 
L 157.479316 147.888 
L 159.46646 142.344 
L 159.664422 136.8 
L 158.611607 131.256 
L 156.672004 125.712 
L 155.04 122.196784 
L 154.11918 120.168 
L 151.157694 114.624 
L 149.088 111.126232 
L 147.903408 109.08 
L 144.4722 103.536 
L 143.136 101.470166 
L 140.932441 97.992 
L 137.317719 92.448 
L 137.184 92.246548 
L 133.704593 86.904 
L 131.232 83.145234 
L 130.076933 81.36 
L 126.47493 75.816 
L 125.28 73.97635 
L 122.904946 70.272 
L 119.363364 64.728 
L 119.328 64.672292 
L 115.871053 59.184 
L 113.376 55.189673 
L 112.40813 53.64 
L 108.979804 48.096 
L 107.424 45.551726 
L 105.568553 42.552 
L 102.180971 37.008 
L 101.472 35.832553 
L 98.757868 31.464 
L 95.52 26.181099 
L 95.35013 25.92 
L 95.52 25.92 
L 101.472 25.92 
L 102.691809 25.92 
L 105.990505 31.464 
L 107.424 33.840678 
L 109.312609 37.008 
L 112.661597 42.552 
L 113.376 43.720294 
L 116.052075 48.096 
L 119.328 53.392828 
L 119.482066 53.64 
L 122.972257 59.184 
L 125.28 62.819316 
L 126.50751 64.728 
L 130.095431 70.272 
L 131.232 72.021802 
L 133.73766 75.816 
L 137.184 81.033258 
L 137.403981 81.36 
L 141.121006 86.904 
L 143.136 89.939651 
L 144.835853 92.448 
L 148.526277 97.992 
L 149.088 98.860452 
L 152.179075 103.536 
L 155.04 108.058532 
L 155.700967 109.08 
L 159.056551 114.624 
L 160.992 118.166138 
L 162.111397 120.168 
L 164.745458 125.712 
L 166.730394 131.256 
L 166.944 132.355133 
L 167.828232 136.8 
L 167.620856 142.344 
L 166.944 144.146648 
L 165.571639 147.888 
L 160.992 153.283671 
L 160.86898 153.432 
L 155.04 157.228244 
L 152.416449 158.976 
L 149.088 160.274039 
L 143.136 162.632311 
L 138.479377 164.52 
L 137.184 165.132301 
L 131.232 166.813512 
L 125.28 167.783504 
L 119.328 169.290712 
L 116.298008 170.064 
L 113.376 171.331251 
L 107.424 172.690056 
L 101.472 173.387511 
L 95.52 173.80572 
L 89.568 174.077306 
L 83.616 174.646348 
L 77.664 175.218358 
L 71.712 175.546637 
L 65.76 175.462247 
L 59.808 174.655871 
L 53.856 173.525313 
L 50.139958 170.064 
L 47.904 166.549828 
z
" clip-path="url(#p0cb68e604c)" style="fill: #433d84"/>
    <path d="M 43.018802 164.52 
L 42.534673 158.976 
L 42.412745 153.432 
L 42.365956 147.888 
L 42.348552 142.344 
L 42.346898 136.8 
L 42.355856 131.256 
L 42.373471 125.712 
L 42.399363 120.168 
L 42.43423 114.624 
L 42.479796 109.08 
L 42.539105 103.536 
L 42.617226 97.992 
L 42.722777 92.448 
L 42.871269 86.904 
L 43.093372 81.36 
L 43.458993 75.816 
L 44.168984 70.272 
L 46.130348 64.728 
L 47.904 62.84885 
L 48.327852 59.184 
L 48.467874 53.64 
L 48.542223 48.096 
L 48.637915 42.552 
L 48.76552 37.008 
L 48.944013 31.464 
L 49.21118 25.92 
L 52.526901 25.92 
L 51.582052 31.464 
L 50.950805 37.008 
L 50.499524 42.552 
L 50.161105 48.096 
L 49.898163 53.64 
L 49.62652 59.184 
L 48.985338 64.728 
L 48.340115 70.272 
L 47.904 74.005591 
L 47.281547 75.816 
L 45.988513 81.36 
L 45.203037 86.904 
L 44.677886 92.448 
L 44.304601 97.992 
L 44.028321 103.536 
L 43.818575 109.08 
L 43.657427 114.624 
L 43.53412 120.168 
L 43.442549 125.712 
L 43.380256 131.256 
L 43.348575 136.8 
L 43.354424 142.344 
L 43.415973 147.888 
L 43.581445 153.432 
L 44.012648 158.976 
L 45.724791 164.52 
L 47.904 166.549828 
L 50.139958 170.064 
L 53.856 173.525313 
L 59.808 174.655871 
L 65.76 175.462247 
L 71.712 175.546637 
L 77.664 175.218358 
L 83.616 174.646348 
L 89.568 174.077306 
L 95.52 173.80572 
L 101.472 173.387511 
L 107.424 172.690056 
L 113.376 171.331251 
L 116.298008 170.064 
L 119.328 169.290712 
L 125.28 167.783504 
L 131.232 166.813512 
L 137.184 165.132301 
L 138.479377 164.52 
L 143.136 162.632311 
L 149.088 160.274039 
L 152.416449 158.976 
L 155.04 157.228244 
L 160.86898 153.432 
L 160.992 153.283671 
L 165.571639 147.888 
L 166.944 144.146648 
L 167.620856 142.344 
L 167.828232 136.8 
L 166.944 132.355133 
L 166.730394 131.256 
L 164.745458 125.712 
L 162.111397 120.168 
L 160.992 118.166138 
L 159.056551 114.624 
L 155.700967 109.08 
L 155.04 108.058532 
L 152.179075 103.536 
L 149.088 98.860452 
L 148.526277 97.992 
L 144.835853 92.448 
L 143.136 89.939651 
L 141.121006 86.904 
L 137.403981 81.36 
L 137.184 81.033258 
L 133.73766 75.816 
L 131.232 72.021802 
L 130.095431 70.272 
L 126.50751 64.728 
L 125.28 62.819316 
L 122.972257 59.184 
L 119.482066 53.64 
L 119.328 53.392828 
L 116.052075 48.096 
L 113.376 43.720294 
L 112.661597 42.552 
L 109.312609 37.008 
L 107.424 33.840678 
L 105.990505 31.464 
L 102.691809 25.92 
L 107.424 25.92 
L 110.173492 25.92 
L 113.078743 31.464 
L 113.376 31.96252 
L 116.46521 37.008 
L 119.328 41.846809 
L 120.085088 42.552 
L 123.154697 48.096 
L 125.28 51.505675 
L 127.192355 53.64 
L 130.163622 59.184 
L 131.232 60.845246 
L 134.013127 64.728 
L 137.184 69.856287 
L 137.630306 70.272 
L 141.154708 75.816 
L 143.136 78.758846 
L 145.353074 81.36 
L 148.718792 86.904 
L 149.088 87.448814 
L 152.550771 92.448 
L 155.04 96.106564 
L 156.790662 97.992 
L 160.101314 103.536 
L 160.992 104.912481 
L 163.751726 109.08 
L 166.944 114.233729 
L 167.359317 114.624 
L 170.364805 120.168 
L 172.896 125.372484 
L 173.179726 125.712 
L 175.27534 131.256 
L 176.274191 136.8 
L 176.061892 142.344 
L 174.292042 147.888 
L 172.896 149.188345 
L 169.289946 153.432 
L 166.944 155.617135 
L 160.992 158.554056 
L 160.344122 158.976 
L 155.04 162.454696 
L 149.088 163.319404 
L 146.048357 164.52 
L 143.136 167.232719 
L 137.184 168.669503 
L 131.232 169.144886 
L 125.28 169.588581 
L 123.402557 170.064 
L 119.328 173.345048 
L 113.376 174.398698 
L 107.424 174.782917 
L 101.472 174.98013 
L 95.52 175.098384 
L 89.568 175.175178 
L 84.725684 175.608 
L 83.616 176.641617 
L 77.664 179.021036 
L 71.712 179.516269 
L 65.76 179.412337 
L 59.808 176.723928 
L 58.609948 175.608 
L 53.856 175.019095 
L 48.536244 170.064 
L 47.904 169.070326 
z
" clip-path="url(#p0cb68e604c)" style="fill: #482677"/>
    <path d="M 36 186.696 
L 36 181.152 
L 36 175.608 
L 36 170.064 
L 36 164.52 
L 36 158.976 
L 36 153.432 
L 36 147.888 
L 36 142.344 
L 36 136.8 
L 36 131.256 
L 36 125.712 
L 36 120.168 
L 36 114.624 
L 36 109.08 
L 36 103.536 
L 36 97.992 
L 36 92.448 
L 36 86.904 
L 36 81.36 
L 36 75.816 
L 36 70.272 
L 36 64.728 
L 36 59.184 
L 36 53.64 
L 36 48.096 
L 36 42.552 
L 36 37.008 
L 36 31.464 
L 36 25.92 
L 41.952 25.92 
L 47.904 25.92 
L 49.21118 25.92 
L 48.944013 31.464 
L 48.76552 37.008 
L 48.637915 42.552 
L 48.542223 48.096 
L 48.467874 53.64 
L 48.327852 59.184 
L 47.904 62.84885 
L 46.130348 64.728 
L 44.168984 70.272 
L 43.458993 75.816 
L 43.093372 81.36 
L 42.871269 86.904 
L 42.722777 92.448 
L 42.617226 97.992 
L 42.539105 103.536 
L 42.479796 109.08 
L 42.43423 114.624 
L 42.399363 120.168 
L 42.373471 125.712 
L 42.355856 131.256 
L 42.346898 136.8 
L 42.348552 142.344 
L 42.365956 147.888 
L 42.412745 153.432 
L 42.534673 158.976 
L 43.018802 164.52 
L 47.904 169.070326 
L 48.536244 170.064 
L 53.856 175.019095 
L 58.609948 175.608 
L 59.808 176.723928 
L 65.76 179.412337 
L 71.712 179.516269 
L 77.664 179.021036 
L 83.616 176.641617 
L 84.725684 175.608 
L 89.568 175.175178 
L 95.52 175.098384 
L 101.472 174.98013 
L 107.424 174.782917 
L 113.376 174.398698 
L 119.328 173.345048 
L 123.402557 170.064 
L 125.28 169.588581 
L 131.232 169.144886 
L 137.184 168.669503 
L 143.136 167.232719 
L 146.048357 164.52 
L 149.088 163.319404 
L 155.04 162.454696 
L 160.344122 158.976 
L 160.992 158.554056 
L 166.944 155.617135 
L 169.289946 153.432 
L 172.896 149.188345 
L 174.292042 147.888 
L 176.061892 142.344 
L 176.274191 136.8 
L 175.27534 131.256 
L 173.179726 125.712 
L 172.896 125.372484 
L 170.364805 120.168 
L 167.359317 114.624 
L 166.944 114.233729 
L 163.751726 109.08 
L 160.992 104.912481 
L 160.101314 103.536 
L 156.790662 97.992 
L 155.04 96.106564 
L 152.550771 92.448 
L 149.088 87.448814 
L 148.718792 86.904 
L 145.353074 81.36 
L 143.136 78.758846 
L 141.154708 75.816 
L 137.630306 70.272 
L 137.184 69.856287 
L 134.013127 64.728 
L 131.232 60.845246 
L 130.163622 59.184 
L 127.192355 53.64 
L 125.28 51.505675 
L 123.154697 48.096 
L 120.085088 42.552 
L 119.328 41.846809 
L 116.46521 37.008 
L 113.376 31.96252 
L 113.078743 31.464 
L 110.173492 25.92 
L 113.376 25.92 
L 119.328 25.92 
L 125.28 25.92 
L 131.232 25.92 
L 137.184 25.92 
L 143.136 25.92 
L 149.088 25.92 
L 155.04 25.92 
L 160.992 25.92 
L 166.944 25.92 
L 172.896 25.92 
L 178.848 25.92 
L 184.8 25.92 
L 190.752 25.92 
L 196.704 25.92 
L 202.656 25.92 
L 208.608 25.92 
L 214.56 25.92 
L 214.56 31.464 
L 214.56 37.008 
L 214.56 42.552 
L 214.56 48.096 
L 214.56 53.64 
L 214.56 59.184 
L 214.56 64.728 
L 214.56 70.272 
L 214.56 75.816 
L 214.56 81.36 
L 214.56 86.904 
L 214.56 92.448 
L 214.56 97.992 
L 214.56 103.536 
L 214.56 109.08 
L 214.56 114.624 
L 214.56 120.168 
L 214.56 125.712 
L 214.56 131.256 
L 214.56 136.8 
L 214.56 142.344 
L 214.56 147.888 
L 214.56 153.432 
L 214.56 158.976 
L 214.56 164.52 
L 214.56 170.064 
L 214.56 175.608 
L 214.56 181.152 
L 214.56 186.696 
L 214.56 192.24 
L 208.608 192.24 
L 202.656 192.24 
L 196.704 192.24 
L 190.752 192.24 
L 184.8 192.24 
L 178.848 192.24 
L 172.896 192.24 
L 166.944 192.24 
L 160.992 192.24 
L 155.04 192.24 
L 149.088 192.24 
L 143.136 192.24 
L 137.184 192.24 
L 131.232 192.24 
L 125.28 192.24 
L 119.328 192.24 
L 113.376 192.24 
L 107.424 192.24 
L 101.472 192.24 
L 95.52 192.24 
L 89.568 192.24 
L 83.616 192.24 
L 77.664 192.24 
L 71.712 192.24 
L 65.76 192.24 
L 59.808 192.24 
L 53.856 192.24 
L 47.904 192.24 
L 41.952 192.24 
L 36 192.24 
z
" clip-path="url(#p0cb68e604c)" style="fill: #470e61"/>
   </g>
   <g id="PathCollection_1">
    <defs>
     <path id="m281db5005d" d="M -4.743416 4.743416 
L 4.743416 -4.743416 
M -4.743416 -4.743416 
L 4.743416 4.743416 
" style="stroke: #ffffff; stroke-width: 5"/>
    </defs>
    <g clip-path="url(#p0cb68e604c)">
     <use xlink:href="#m281db5005d" x="65.76" y="146.04" style="fill: #ffffff; stroke: #ffffff; stroke-width: 5"/>
    </g>
   </g>
   <g id="PathCollection_2">
    <defs>
     <path id="m6f4d752298" d="M -4.330127 4.330127 
L 4.330127 -4.330127 
M -4.330127 -4.330127 
L 4.330127 4.330127 
" style="stroke: #000000; stroke-width: 2"/>
    </defs>
    <g clip-path="url(#p0cb68e604c)">
     <use xlink:href="#m6f4d752298" x="65.76" y="146.04" style="stroke: #000000; stroke-width: 2"/>
    </g>
   </g>
   <g id="matplotlib.axis_1">
    <g id="xtick_1">
     <g id="line2d_1">
      <defs>
       <path id="mc4e6c20ab9" d="M 0 0 
L 0 6 
" style="stroke: #000000; stroke-width: 2"/>
      </defs>
      <g>
       <use xlink:href="#mc4e6c20ab9" x="65.76" y="192.24" style="stroke: #000000; stroke-width: 2"/>
      </g>
     </g>
     <g id="text_1">
      <!-- $\mathdefault{200}$ -->
      <g transform="translate(52.39 212.377813) scale(0.14 -0.14)">
       <defs>
        <path id="DejaVuSans-32" d="M 1228 531 
L 3431 531 
L 3431 0 
L 469 0 
L 469 531 
Q 828 903 1448 1529 
Q 2069 2156 2228 2338 
Q 2531 2678 2651 2914 
Q 2772 3150 2772 3378 
Q 2772 3750 2511 3984 
Q 2250 4219 1831 4219 
Q 1534 4219 1204 4116 
Q 875 4013 500 3803 
L 500 4441 
Q 881 4594 1212 4672 
Q 1544 4750 1819 4750 
Q 2544 4750 2975 4387 
Q 3406 4025 3406 3419 
Q 3406 3131 3298 2873 
Q 3191 2616 2906 2266 
Q 2828 2175 2409 1742 
Q 1991 1309 1228 531 
z
" transform="scale(0.015625)"/>
        <path id="DejaVuSans-30" d="M 2034 4250 
Q 1547 4250 1301 3770 
Q 1056 3291 1056 2328 
Q 1056 1369 1301 889 
Q 1547 409 2034 409 
Q 2525 409 2770 889 
Q 3016 1369 3016 2328 
Q 3016 3291 2770 3770 
Q 2525 4250 2034 4250 
z
M 2034 4750 
Q 2819 4750 3233 4129 
Q 3647 3509 3647 2328 
Q 3647 1150 3233 529 
Q 2819 -91 2034 -91 
Q 1250 -91 836 529 
Q 422 1150 422 2328 
Q 422 3509 836 4129 
Q 1250 4750 2034 4750 
z
" transform="scale(0.015625)"/>
       </defs>
       <use xlink:href="#DejaVuSans-32" transform="translate(0 0.78125)"/>
       <use xlink:href="#DejaVuSans-30" transform="translate(63.623047 0.78125)"/>
       <use xlink:href="#DejaVuSans-30" transform="translate(127.246094 0.78125)"/>
      </g>
     </g>
    </g>
    <g id="xtick_2">
     <g id="line2d_2">
      <g>
       <use xlink:href="#mc4e6c20ab9" x="105.44" y="192.24" style="stroke: #000000; stroke-width: 2"/>
      </g>
     </g>
     <g id="text_2">
      <!-- $\mathdefault{400}$ -->
      <g transform="translate(92.07 212.377813) scale(0.14 -0.14)">
       <defs>
        <path id="DejaVuSans-34" d="M 2419 4116 
L 825 1625 
L 2419 1625 
L 2419 4116 
z
M 2253 4666 
L 3047 4666 
L 3047 1625 
L 3713 1625 
L 3713 1100 
L 3047 1100 
L 3047 0 
L 2419 0 
L 2419 1100 
L 313 1100 
L 313 1709 
L 2253 4666 
z
" transform="scale(0.015625)"/>
       </defs>
       <use xlink:href="#DejaVuSans-34" transform="translate(0 0.78125)"/>
       <use xlink:href="#DejaVuSans-30" transform="translate(63.623047 0.78125)"/>
       <use xlink:href="#DejaVuSans-30" transform="translate(127.246094 0.78125)"/>
      </g>
     </g>
    </g>
    <g id="xtick_3">
     <g id="line2d_3">
      <g>
       <use xlink:href="#mc4e6c20ab9" x="145.12" y="192.24" style="stroke: #000000; stroke-width: 2"/>
      </g>
     </g>
     <g id="text_3">
      <!-- $\mathdefault{600}$ -->
      <g transform="translate(131.75 212.377813) scale(0.14 -0.14)">
       <defs>
        <path id="DejaVuSans-36" d="M 2113 2584 
Q 1688 2584 1439 2293 
Q 1191 2003 1191 1497 
Q 1191 994 1439 701 
Q 1688 409 2113 409 
Q 2538 409 2786 701 
Q 3034 994 3034 1497 
Q 3034 2003 2786 2293 
Q 2538 2584 2113 2584 
z
M 3366 4563 
L 3366 3988 
Q 3128 4100 2886 4159 
Q 2644 4219 2406 4219 
Q 1781 4219 1451 3797 
Q 1122 3375 1075 2522 
Q 1259 2794 1537 2939 
Q 1816 3084 2150 3084 
Q 2853 3084 3261 2657 
Q 3669 2231 3669 1497 
Q 3669 778 3244 343 
Q 2819 -91 2113 -91 
Q 1303 -91 875 529 
Q 447 1150 447 2328 
Q 447 3434 972 4092 
Q 1497 4750 2381 4750 
Q 2619 4750 2861 4703 
Q 3103 4656 3366 4563 
z
" transform="scale(0.015625)"/>
       </defs>
       <use xlink:href="#DejaVuSans-36" transform="translate(0 0.78125)"/>
       <use xlink:href="#DejaVuSans-30" transform="translate(63.623047 0.78125)"/>
       <use xlink:href="#DejaVuSans-30" transform="translate(127.246094 0.78125)"/>
      </g>
     </g>
    </g>
    <g id="xtick_4">
     <g id="line2d_4">
      <g>
       <use xlink:href="#mc4e6c20ab9" x="184.8" y="192.24" style="stroke: #000000; stroke-width: 2"/>
      </g>
     </g>
     <g id="text_4">
      <!-- $\mathdefault{800}$ -->
      <g transform="translate(171.43 212.377813) scale(0.14 -0.14)">
       <defs>
        <path id="DejaVuSans-38" d="M 2034 2216 
Q 1584 2216 1326 1975 
Q 1069 1734 1069 1313 
Q 1069 891 1326 650 
Q 1584 409 2034 409 
Q 2484 409 2743 651 
Q 3003 894 3003 1313 
Q 3003 1734 2745 1975 
Q 2488 2216 2034 2216 
z
M 1403 2484 
Q 997 2584 770 2862 
Q 544 3141 544 3541 
Q 544 4100 942 4425 
Q 1341 4750 2034 4750 
Q 2731 4750 3128 4425 
Q 3525 4100 3525 3541 
Q 3525 3141 3298 2862 
Q 3072 2584 2669 2484 
Q 3125 2378 3379 2068 
Q 3634 1759 3634 1313 
Q 3634 634 3220 271 
Q 2806 -91 2034 -91 
Q 1263 -91 848 271 
Q 434 634 434 1313 
Q 434 1759 690 2068 
Q 947 2378 1403 2484 
z
M 1172 3481 
Q 1172 3119 1398 2916 
Q 1625 2713 2034 2713 
Q 2441 2713 2670 2916 
Q 2900 3119 2900 3481 
Q 2900 3844 2670 4047 
Q 2441 4250 2034 4250 
Q 1625 4250 1398 4047 
Q 1172 3844 1172 3481 
z
" transform="scale(0.015625)"/>
       </defs>
       <use xlink:href="#DejaVuSans-38" transform="translate(0 0.78125)"/>
       <use xlink:href="#DejaVuSans-30" transform="translate(63.623047 0.78125)"/>
       <use xlink:href="#DejaVuSans-30" transform="translate(127.246094 0.78125)"/>
      </g>
     </g>
    </g>
    <g id="text_5">
     <!-- Diploid N$_e$0 -->
     <g transform="translate(74.34 232.969375) scale(0.18 -0.18)">
      <defs>
       <path id="DejaVuSans-44" d="M 1259 4147 
L 1259 519 
L 2022 519 
Q 2988 519 3436 956 
Q 3884 1394 3884 2338 
Q 3884 3275 3436 3711 
Q 2988 4147 2022 4147 
L 1259 4147 
z
M 628 4666 
L 1925 4666 
Q 3281 4666 3915 4102 
Q 4550 3538 4550 2338 
Q 4550 1131 3912 565 
Q 3275 0 1925 0 
L 628 0 
L 628 4666 
z
" transform="scale(0.015625)"/>
       <path id="DejaVuSans-69" d="M 603 3500 
L 1178 3500 
L 1178 0 
L 603 0 
L 603 3500 
z
M 603 4863 
L 1178 4863 
L 1178 4134 
L 603 4134 
L 603 4863 
z
" transform="scale(0.015625)"/>
       <path id="DejaVuSans-70" d="M 1159 525 
L 1159 -1331 
L 581 -1331 
L 581 3500 
L 1159 3500 
L 1159 2969 
Q 1341 3281 1617 3432 
Q 1894 3584 2278 3584 
Q 2916 3584 3314 3078 
Q 3713 2572 3713 1747 
Q 3713 922 3314 415 
Q 2916 -91 2278 -91 
Q 1894 -91 1617 61 
Q 1341 213 1159 525 
z
M 3116 1747 
Q 3116 2381 2855 2742 
Q 2594 3103 2138 3103 
Q 1681 3103 1420 2742 
Q 1159 2381 1159 1747 
Q 1159 1113 1420 752 
Q 1681 391 2138 391 
Q 2594 391 2855 752 
Q 3116 1113 3116 1747 
z
" transform="scale(0.015625)"/>
       <path id="DejaVuSans-6c" d="M 603 4863 
L 1178 4863 
L 1178 0 
L 603 0 
L 603 4863 
z
" transform="scale(0.015625)"/>
       <path id="DejaVuSans-6f" d="M 1959 3097 
Q 1497 3097 1228 2736 
Q 959 2375 959 1747 
Q 959 1119 1226 758 
Q 1494 397 1959 397 
Q 2419 397 2687 759 
Q 2956 1122 2956 1747 
Q 2956 2369 2687 2733 
Q 2419 3097 1959 3097 
z
M 1959 3584 
Q 2709 3584 3137 3096 
Q 3566 2609 3566 1747 
Q 3566 888 3137 398 
Q 2709 -91 1959 -91 
Q 1206 -91 779 398 
Q 353 888 353 1747 
Q 353 2609 779 3096 
Q 1206 3584 1959 3584 
z
" transform="scale(0.015625)"/>
       <path id="DejaVuSans-64" d="M 2906 2969 
L 2906 4863 
L 3481 4863 
L 3481 0 
L 2906 0 
L 2906 525 
Q 2725 213 2448 61 
Q 2172 -91 1784 -91 
Q 1150 -91 751 415 
Q 353 922 353 1747 
Q 353 2572 751 3078 
Q 1150 3584 1784 3584 
Q 2172 3584 2448 3432 
Q 2725 3281 2906 2969 
z
M 947 1747 
Q 947 1113 1208 752 
Q 1469 391 1925 391 
Q 2381 391 2643 752 
Q 2906 1113 2906 1747 
Q 2906 2381 2643 2742 
Q 2381 3103 1925 3103 
Q 1469 3103 1208 2742 
Q 947 2381 947 1747 
z
" transform="scale(0.015625)"/>
       <path id="DejaVuSans-20" transform="scale(0.015625)"/>
       <path id="DejaVuSans-4e" d="M 628 4666 
L 1478 4666 
L 3547 763 
L 3547 4666 
L 4159 4666 
L 4159 0 
L 3309 0 
L 1241 3903 
L 1241 0 
L 628 0 
L 628 4666 
z
" transform="scale(0.015625)"/>
       <path id="DejaVuSans-Oblique-65" d="M 3078 2063 
Q 3088 2113 3092 2166 
Q 3097 2219 3097 2272 
Q 3097 2653 2873 2875 
Q 2650 3097 2266 3097 
Q 1838 3097 1509 2826 
Q 1181 2556 1013 2059 
L 3078 2063 
z
M 3578 1613 
L 903 1613 
Q 884 1494 878 1425 
Q 872 1356 872 1306 
Q 872 872 1139 634 
Q 1406 397 1894 397 
Q 2269 397 2603 481 
Q 2938 566 3225 728 
L 3116 159 
Q 2806 34 2476 -28 
Q 2147 -91 1806 -91 
Q 1078 -91 686 257 
Q 294 606 294 1247 
Q 294 1794 489 2264 
Q 684 2734 1063 3103 
Q 1306 3334 1642 3459 
Q 1978 3584 2356 3584 
Q 2950 3584 3301 3228 
Q 3653 2872 3653 2272 
Q 3653 2128 3634 1964 
Q 3616 1800 3578 1613 
z
" transform="scale(0.015625)"/>
      </defs>
      <use xlink:href="#DejaVuSans-44" transform="translate(0 0.015625)"/>
      <use xlink:href="#DejaVuSans-69" transform="translate(77.001953 0.015625)"/>
      <use xlink:href="#DejaVuSans-70" transform="translate(104.785156 0.015625)"/>
      <use xlink:href="#DejaVuSans-6c" transform="translate(168.261719 0.015625)"/>
      <use xlink:href="#DejaVuSans-6f" transform="translate(196.044922 0.015625)"/>
      <use xlink:href="#DejaVuSans-69" transform="translate(257.226562 0.015625)"/>
      <use xlink:href="#DejaVuSans-64" transform="translate(285.009766 0.015625)"/>
      <use xlink:href="#DejaVuSans-20" transform="translate(348.486328 0.015625)"/>
      <use xlink:href="#DejaVuSans-4e" transform="translate(380.273438 0.015625)"/>
      <use xlink:href="#DejaVuSans-Oblique-65" transform="translate(456.035156 -16.390625) scale(0.7)"/>
      <use xlink:href="#DejaVuSans-30" transform="translate(501.835938 0.015625)"/>
     </g>
    </g>
    <g id="text_6">
     <!-- $\times\mathdefault{10^{3}}\mathdefault{}$ -->
     <g transform="translate(188.56 225.887812) scale(0.1 -0.1)">
      <defs>
       <path id="DejaVuSans-d7" d="M 4488 3438 
L 3059 2003 
L 4488 575 
L 4116 197 
L 2681 1631 
L 1247 197 
L 878 575 
L 2303 2003 
L 878 3438 
L 1247 3816 
L 2681 2381 
L 4116 3816 
L 4488 3438 
z
" transform="scale(0.015625)"/>
       <path id="DejaVuSans-31" d="M 794 531 
L 1825 531 
L 1825 4091 
L 703 3866 
L 703 4441 
L 1819 4666 
L 2450 4666 
L 2450 531 
L 3481 531 
L 3481 0 
L 794 0 
L 794 531 
z
" transform="scale(0.015625)"/>
       <path id="DejaVuSans-33" d="M 2597 2516 
Q 3050 2419 3304 2112 
Q 3559 1806 3559 1356 
Q 3559 666 3084 287 
Q 2609 -91 1734 -91 
Q 1441 -91 1130 -33 
Q 819 25 488 141 
L 488 750 
Q 750 597 1062 519 
Q 1375 441 1716 441 
Q 2309 441 2620 675 
Q 2931 909 2931 1356 
Q 2931 1769 2642 2001 
Q 2353 2234 1838 2234 
L 1294 2234 
L 1294 2753 
L 1863 2753 
Q 2328 2753 2575 2939 
Q 2822 3125 2822 3475 
Q 2822 3834 2567 4026 
Q 2313 4219 1838 4219 
Q 1578 4219 1281 4162 
Q 984 4106 628 3988 
L 628 4550 
Q 988 4650 1302 4700 
Q 1616 4750 1894 4750 
Q 2613 4750 3031 4423 
Q 3450 4097 3450 3541 
Q 3450 3153 3228 2886 
Q 3006 2619 2597 2516 
z
" transform="scale(0.015625)"/>
      </defs>
      <use xlink:href="#DejaVuSans-d7" transform="translate(0 0.765625)"/>
      <use xlink:href="#DejaVuSans-31" transform="translate(83.789062 0.765625)"/>
      <use xlink:href="#DejaVuSans-30" transform="translate(147.412109 0.765625)"/>
      <use xlink:href="#DejaVuSans-33" transform="translate(211.992188 39.046875) scale(0.7)"/>
     </g>
    </g>
   </g>
   <g id="matplotlib.axis_2">
    <g id="ytick_1">
     <g id="line2d_5">
      <defs>
       <path id="m4ba9bc1b50" d="M 0 0 
L -6 0 
" style="stroke: #000000; stroke-width: 2"/>
      </defs>
      <g>
       <use xlink:href="#m4ba9bc1b50" x="36" y="164.52" style="stroke: #000000; stroke-width: 2"/>
      </g>
     </g>
     <g id="text_7">
      <!-- $\mathdefault{200}$ -->
      <g transform="translate(-0.24 169.838906) scale(0.14 -0.14)">
       <use xlink:href="#DejaVuSans-32" transform="translate(0 0.78125)"/>
       <use xlink:href="#DejaVuSans-30" transform="translate(63.623047 0.78125)"/>
       <use xlink:href="#DejaVuSans-30" transform="translate(127.246094 0.78125)"/>
      </g>
     </g>
    </g>
    <g id="ytick_2">
     <g id="line2d_6">
      <g>
       <use xlink:href="#m4ba9bc1b50" x="36" y="127.56" style="stroke: #000000; stroke-width: 2"/>
      </g>
     </g>
     <g id="text_8">
      <!-- $\mathdefault{400}$ -->
      <g transform="translate(-0.24 132.878906) scale(0.14 -0.14)">
       <use xlink:href="#DejaVuSans-34" transform="translate(0 0.78125)"/>
       <use xlink:href="#DejaVuSans-30" transform="translate(63.623047 0.78125)"/>
       <use xlink:href="#DejaVuSans-30" transform="translate(127.246094 0.78125)"/>
      </g>
     </g>
    </g>
    <g id="ytick_3">
     <g id="line2d_7">
      <g>
       <use xlink:href="#m4ba9bc1b50" x="36" y="90.6" style="stroke: #000000; stroke-width: 2"/>
      </g>
     </g>
     <g id="text_9">
      <!-- $\mathdefault{600}$ -->
      <g transform="translate(-0.24 95.918906) scale(0.14 -0.14)">
       <use xlink:href="#DejaVuSans-36" transform="translate(0 0.78125)"/>
       <use xlink:href="#DejaVuSans-30" transform="translate(63.623047 0.78125)"/>
       <use xlink:href="#DejaVuSans-30" transform="translate(127.246094 0.78125)"/>
      </g>
     </g>
    </g>
    <g id="ytick_4">
     <g id="line2d_8">
      <g>
       <use xlink:href="#m4ba9bc1b50" x="36" y="53.64" style="stroke: #000000; stroke-width: 2"/>
      </g>
     </g>
     <g id="text_10">
      <!-- $\mathdefault{800}$ -->
      <g transform="translate(-0.24 58.958906) scale(0.14 -0.14)">
       <use xlink:href="#DejaVuSans-38" transform="translate(0 0.78125)"/>
       <use xlink:href="#DejaVuSans-30" transform="translate(63.623047 0.78125)"/>
       <use xlink:href="#DejaVuSans-30" transform="translate(127.246094 0.78125)"/>
      </g>
     </g>
    </g>
    <g id="text_11">
     <!-- Diploid N$_e$1 -->
     <g transform="translate(-8.02 160.02) rotate(-90) scale(0.18 -0.18)">
      <use xlink:href="#DejaVuSans-44" transform="translate(0 0.015625)"/>
      <use xlink:href="#DejaVuSans-69" transform="translate(77.001953 0.015625)"/>
      <use xlink:href="#DejaVuSans-70" transform="translate(104.785156 0.015625)"/>
      <use xlink:href="#DejaVuSans-6c" transform="translate(168.261719 0.015625)"/>
      <use xlink:href="#DejaVuSans-6f" transform="translate(196.044922 0.015625)"/>
      <use xlink:href="#DejaVuSans-69" transform="translate(257.226562 0.015625)"/>
      <use xlink:href="#DejaVuSans-64" transform="translate(285.009766 0.015625)"/>
      <use xlink:href="#DejaVuSans-20" transform="translate(348.486328 0.015625)"/>
      <use xlink:href="#DejaVuSans-4e" transform="translate(380.273438 0.015625)"/>
      <use xlink:href="#DejaVuSans-Oblique-65" transform="translate(456.035156 -16.390625) scale(0.7)"/>
      <use xlink:href="#DejaVuSans-31" transform="translate(501.835938 0.015625)"/>
     </g>
    </g>
    <g id="text_12">
     <!-- $\times\mathdefault{10^{3}}\mathdefault{}$ -->
     <g transform="translate(36 22.92) scale(0.1 -0.1)">
      <use xlink:href="#DejaVuSans-d7" transform="translate(0 0.765625)"/>
      <use xlink:href="#DejaVuSans-31" transform="translate(83.789062 0.765625)"/>
      <use xlink:href="#DejaVuSans-30" transform="translate(147.412109 0.765625)"/>
      <use xlink:href="#DejaVuSans-33" transform="translate(211.992188 39.046875) scale(0.7)"/>
     </g>
    </g>
   </g>
   <g id="patch_3">
    <path d="M 36 192.24 
L 36 25.92 
" style="fill: none; stroke: #000000; stroke-width: 0.8; stroke-linejoin: miter; stroke-linecap: square"/>
   </g>
   <g id="patch_4">
    <path d="M 214.56 192.24 
L 214.56 25.92 
" style="fill: none; stroke: #000000; stroke-width: 0.8; stroke-linejoin: miter; stroke-linecap: square"/>
   </g>
   <g id="patch_5">
    <path d="M 36 192.24 
L 214.56 192.24 
" style="fill: none; stroke: #000000; stroke-width: 0.8; stroke-linejoin: miter; stroke-linecap: square"/>
   </g>
   <g id="patch_6">
    <path d="M 36 25.92 
L 214.56 25.92 
" style="fill: none; stroke: #000000; stroke-width: 0.8; stroke-linejoin: miter; stroke-linecap: square"/>
   </g>
   <g id="text_13">
    <!-- Ne0Ne1-MSC-GT-P2-S4 -->
    <g transform="translate(33.735 10.92) scale(0.16 -0.16)">
     <defs>
      <path id="DejaVuSans-65" d="M 3597 1894 
L 3597 1613 
L 953 1613 
Q 991 1019 1311 708 
Q 1631 397 2203 397 
Q 2534 397 2845 478 
Q 3156 559 3463 722 
L 3463 178 
Q 3153 47 2828 -22 
Q 2503 -91 2169 -91 
Q 1331 -91 842 396 
Q 353 884 353 1716 
Q 353 2575 817 3079 
Q 1281 3584 2069 3584 
Q 2775 3584 3186 3129 
Q 3597 2675 3597 1894 
z
M 3022 2063 
Q 3016 2534 2758 2815 
Q 2500 3097 2075 3097 
Q 1594 3097 1305 2825 
Q 1016 2553 972 2059 
L 3022 2063 
z
" transform="scale(0.015625)"/>
      <path id="DejaVuSans-2d" d="M 313 2009 
L 1997 2009 
L 1997 1497 
L 313 1497 
L 313 2009 
z
" transform="scale(0.015625)"/>
      <path id="DejaVuSans-4d" d="M 628 4666 
L 1569 4666 
L 2759 1491 
L 3956 4666 
L 4897 4666 
L 4897 0 
L 4281 0 
L 4281 4097 
L 3078 897 
L 2444 897 
L 1241 4097 
L 1241 0 
L 628 0 
L 628 4666 
z
" transform="scale(0.015625)"/>
      <path id="DejaVuSans-53" d="M 3425 4513 
L 3425 3897 
Q 3066 4069 2747 4153 
Q 2428 4238 2131 4238 
Q 1616 4238 1336 4038 
Q 1056 3838 1056 3469 
Q 1056 3159 1242 3001 
Q 1428 2844 1947 2747 
L 2328 2669 
Q 3034 2534 3370 2195 
Q 3706 1856 3706 1288 
Q 3706 609 3251 259 
Q 2797 -91 1919 -91 
Q 1588 -91 1214 -16 
Q 841 59 441 206 
L 441 856 
Q 825 641 1194 531 
Q 1563 422 1919 422 
Q 2459 422 2753 634 
Q 3047 847 3047 1241 
Q 3047 1584 2836 1778 
Q 2625 1972 2144 2069 
L 1759 2144 
Q 1053 2284 737 2584 
Q 422 2884 422 3419 
Q 422 4038 858 4394 
Q 1294 4750 2059 4750 
Q 2388 4750 2728 4690 
Q 3069 4631 3425 4513 
z
" transform="scale(0.015625)"/>
      <path id="DejaVuSans-43" d="M 4122 4306 
L 4122 3641 
Q 3803 3938 3442 4084 
Q 3081 4231 2675 4231 
Q 1875 4231 1450 3742 
Q 1025 3253 1025 2328 
Q 1025 1406 1450 917 
Q 1875 428 2675 428 
Q 3081 428 3442 575 
Q 3803 722 4122 1019 
L 4122 359 
Q 3791 134 3420 21 
Q 3050 -91 2638 -91 
Q 1578 -91 968 557 
Q 359 1206 359 2328 
Q 359 3453 968 4101 
Q 1578 4750 2638 4750 
Q 3056 4750 3426 4639 
Q 3797 4528 4122 4306 
z
" transform="scale(0.015625)"/>
      <path id="DejaVuSans-47" d="M 3809 666 
L 3809 1919 
L 2778 1919 
L 2778 2438 
L 4434 2438 
L 4434 434 
Q 4069 175 3628 42 
Q 3188 -91 2688 -91 
Q 1594 -91 976 548 
Q 359 1188 359 2328 
Q 359 3472 976 4111 
Q 1594 4750 2688 4750 
Q 3144 4750 3555 4637 
Q 3966 4525 4313 4306 
L 4313 3634 
Q 3963 3931 3569 4081 
Q 3175 4231 2741 4231 
Q 1884 4231 1454 3753 
Q 1025 3275 1025 2328 
Q 1025 1384 1454 906 
Q 1884 428 2741 428 
Q 3075 428 3337 486 
Q 3600 544 3809 666 
z
" transform="scale(0.015625)"/>
      <path id="DejaVuSans-54" d="M -19 4666 
L 3928 4666 
L 3928 4134 
L 2272 4134 
L 2272 0 
L 1638 0 
L 1638 4134 
L -19 4134 
L -19 4666 
z
" transform="scale(0.015625)"/>
      <path id="DejaVuSans-50" d="M 1259 4147 
L 1259 2394 
L 2053 2394 
Q 2494 2394 2734 2622 
Q 2975 2850 2975 3272 
Q 2975 3691 2734 3919 
Q 2494 4147 2053 4147 
L 1259 4147 
z
M 628 4666 
L 2053 4666 
Q 2838 4666 3239 4311 
Q 3641 3956 3641 3272 
Q 3641 2581 3239 2228 
Q 2838 1875 2053 1875 
L 1259 1875 
L 1259 0 
L 628 0 
L 628 4666 
z
" transform="scale(0.015625)"/>
     </defs>
     <use xlink:href="#DejaVuSans-4e"/>
     <use xlink:href="#DejaVuSans-65" x="74.804688"/>
     <use xlink:href="#DejaVuSans-30" x="136.328125"/>
     <use xlink:href="#DejaVuSans-4e" x="199.951172"/>
     <use xlink:href="#DejaVuSans-65" x="274.755859"/>
     <use xlink:href="#DejaVuSans-31" x="336.279297"/>
     <use xlink:href="#DejaVuSans-2d" x="399.902344"/>
     <use xlink:href="#DejaVuSans-4d" x="435.986328"/>
     <use xlink:href="#DejaVuSans-53" x="522.265625"/>
     <use xlink:href="#DejaVuSans-43" x="585.742188"/>
     <use xlink:href="#DejaVuSans-2d" x="655.566406"/>
     <use xlink:href="#DejaVuSans-47" x="695.275391"/>
     <use xlink:href="#DejaVuSans-54" x="769.140625"/>
     <use xlink:href="#DejaVuSans-2d" x="821.099609"/>
     <use xlink:href="#DejaVuSans-50" x="857.183594"/>
     <use xlink:href="#DejaVuSans-32" x="917.486328"/>
     <use xlink:href="#DejaVuSans-2d" x="981.109375"/>
     <use xlink:href="#DejaVuSans-53" x="1017.193359"/>
     <use xlink:href="#DejaVuSans-34" x="1080.669922"/>
    </g>
   </g>
  </g>
  <g id="axes_2">
   <g id="patch_7">
    <path d="M 225.72 192.24 
L 234.036 192.24 
L 234.036 25.92 
L 225.72 25.92 
z
" style="fill: #ffffff"/>
   </g>
   <g id="QuadMesh_1">
    <path d="M 225.72 192.24 
L 234.036 192.24 
L 234.036 180.36 
L 225.72 180.36 
L 225.72 192.24 
" clip-path="url(#pc611af371d)" style="fill: #e7e419"/>
    <path d="M 225.72 180.36 
L 234.036 180.36 
L 234.036 168.48 
L 225.72 168.48 
L 225.72 180.36 
" clip-path="url(#pc611af371d)" style="fill: #b8de29"/>
    <path d="M 225.72 168.48 
L 234.036 168.48 
L 234.036 156.6 
L 225.72 156.6 
L 225.72 168.48 
" clip-path="url(#pc611af371d)" style="fill: #89d548"/>
    <path d="M 225.72 156.6 
L 234.036 156.6 
L 234.036 144.72 
L 225.72 144.72 
L 225.72 156.6 
" clip-path="url(#pc611af371d)" style="fill: #5cc863"/>
    <path d="M 225.72 144.72 
L 234.036 144.72 
L 234.036 132.84 
L 225.72 132.84 
L 225.72 144.72 
" clip-path="url(#pc611af371d)" style="fill: #3aba76"/>
    <path d="M 225.72 132.84 
L 234.036 132.84 
L 234.036 120.96 
L 225.72 120.96 
L 225.72 132.84 
" clip-path="url(#pc611af371d)" style="fill: #24aa83"/>
    <path d="M 225.72 120.96 
L 234.036 120.96 
L 234.036 109.08 
L 225.72 109.08 
L 225.72 120.96 
" clip-path="url(#pc611af371d)" style="fill: #1f998a"/>
    <path d="M 225.72 109.08 
L 234.036 109.08 
L 234.036 97.2 
L 225.72 97.2 
L 225.72 109.08 
" clip-path="url(#pc611af371d)" style="fill: #24878e"/>
    <path d="M 225.72 97.2 
L 234.036 97.2 
L 234.036 85.32 
L 225.72 85.32 
L 225.72 97.2 
" clip-path="url(#pc611af371d)" style="fill: #2a768e"/>
    <path d="M 225.72 85.32 
L 234.036 85.32 
L 234.036 73.44 
L 225.72 73.44 
L 225.72 85.32 
" clip-path="url(#pc611af371d)" style="fill: #32658e"/>
    <path d="M 225.72 73.44 
L 234.036 73.44 
L 234.036 61.56 
L 225.72 61.56 
L 225.72 73.44 
" clip-path="url(#pc611af371d)" style="fill: #3b518b"/>
    <path d="M 225.72 61.56 
L 234.036 61.56 
L 234.036 49.68 
L 225.72 49.68 
L 225.72 61.56 
" clip-path="url(#pc611af371d)" style="fill: #433d84"/>
    <path d="M 225.72 49.68 
L 234.036 49.68 
L 234.036 37.8 
L 225.72 37.8 
L 225.72 49.68 
" clip-path="url(#pc611af371d)" style="fill: #482677"/>
    <path d="M 225.72 37.8 
L 234.036 37.8 
L 234.036 25.92 
L 225.72 25.92 
L 225.72 37.8 
" clip-path="url(#pc611af371d)" style="fill: #470e61"/>
   </g>
   <g id="matplotlib.axis_3"/>
   <g id="matplotlib.axis_4">
    <g id="ytick_5">
     <g id="line2d_9">
      <defs>
       <path id="m5838aaf997" d="M 0 0 
L 3.5 0 
" style="stroke: #000000; stroke-width: 0.8"/>
      </defs>
      <g>
       <use xlink:href="#m5838aaf997" x="234.036" y="192.24" style="stroke: #000000; stroke-width: 0.8"/>
      </g>
     </g>
     <g id="text_14">
      <!-- $\mathdefault{0}$ -->
      <g transform="translate(241.036 196.039219) scale(0.1 -0.1)">
       <use xlink:href="#DejaVuSans-30" transform="translate(0 0.78125)"/>
      </g>
     </g>
    </g>
    <g id="ytick_6">
     <g id="line2d_10">
      <g>
       <use xlink:href="#m5838aaf997" x="234.036" y="168.48" style="stroke: #000000; stroke-width: 0.8"/>
      </g>
     </g>
     <g id="text_15">
      <!-- $\mathdefault{50}$ -->
      <g transform="translate(241.036 172.279219) scale(0.1 -0.1)">
       <defs>
        <path id="DejaVuSans-35" d="M 691 4666 
L 3169 4666 
L 3169 4134 
L 1269 4134 
L 1269 2991 
Q 1406 3038 1543 3061 
Q 1681 3084 1819 3084 
Q 2600 3084 3056 2656 
Q 3513 2228 3513 1497 
Q 3513 744 3044 326 
Q 2575 -91 1722 -91 
Q 1428 -91 1123 -41 
Q 819 9 494 109 
L 494 744 
Q 775 591 1075 516 
Q 1375 441 1709 441 
Q 2250 441 2565 725 
Q 2881 1009 2881 1497 
Q 2881 1984 2565 2268 
Q 2250 2553 1709 2553 
Q 1456 2553 1204 2497 
Q 953 2441 691 2322 
L 691 4666 
z
" transform="scale(0.015625)"/>
       </defs>
       <use xlink:href="#DejaVuSans-35" transform="translate(0 0.78125)"/>
       <use xlink:href="#DejaVuSans-30" transform="translate(63.623047 0.78125)"/>
      </g>
     </g>
    </g>
    <g id="ytick_7">
     <g id="line2d_11">
      <g>
       <use xlink:href="#m5838aaf997" x="234.036" y="144.72" style="stroke: #000000; stroke-width: 0.8"/>
      </g>
     </g>
     <g id="text_16">
      <!-- $\mathdefault{100}$ -->
      <g transform="translate(241.036 148.519219) scale(0.1 -0.1)">
       <use xlink:href="#DejaVuSans-31" transform="translate(0 0.78125)"/>
       <use xlink:href="#DejaVuSans-30" transform="translate(63.623047 0.78125)"/>
       <use xlink:href="#DejaVuSans-30" transform="translate(127.246094 0.78125)"/>
      </g>
     </g>
    </g>
    <g id="ytick_8">
     <g id="line2d_12">
      <g>
       <use xlink:href="#m5838aaf997" x="234.036" y="120.96" style="stroke: #000000; stroke-width: 0.8"/>
      </g>
     </g>
     <g id="text_17">
      <!-- $\mathdefault{150}$ -->
      <g transform="translate(241.036 124.759219) scale(0.1 -0.1)">
       <use xlink:href="#DejaVuSans-31" transform="translate(0 0.78125)"/>
       <use xlink:href="#DejaVuSans-35" transform="translate(63.623047 0.78125)"/>
       <use xlink:href="#DejaVuSans-30" transform="translate(127.246094 0.78125)"/>
      </g>
     </g>
    </g>
    <g id="ytick_9">
     <g id="line2d_13">
      <g>
       <use xlink:href="#m5838aaf997" x="234.036" y="97.2" style="stroke: #000000; stroke-width: 0.8"/>
      </g>
     </g>
     <g id="text_18">
      <!-- $\mathdefault{200}$ -->
      <g transform="translate(241.036 100.999219) scale(0.1 -0.1)">
       <use xlink:href="#DejaVuSans-32" transform="translate(0 0.78125)"/>
       <use xlink:href="#DejaVuSans-30" transform="translate(63.623047 0.78125)"/>
       <use xlink:href="#DejaVuSans-30" transform="translate(127.246094 0.78125)"/>
      </g>
     </g>
    </g>
    <g id="ytick_10">
     <g id="line2d_14">
      <g>
       <use xlink:href="#m5838aaf997" x="234.036" y="73.44" style="stroke: #000000; stroke-width: 0.8"/>
      </g>
     </g>
     <g id="text_19">
      <!-- $\mathdefault{250}$ -->
      <g transform="translate(241.036 77.239219) scale(0.1 -0.1)">
       <use xlink:href="#DejaVuSans-32" transform="translate(0 0.78125)"/>
       <use xlink:href="#DejaVuSans-35" transform="translate(63.623047 0.78125)"/>
       <use xlink:href="#DejaVuSans-30" transform="translate(127.246094 0.78125)"/>
      </g>
     </g>
    </g>
    <g id="ytick_11">
     <g id="line2d_15">
      <g>
       <use xlink:href="#m5838aaf997" x="234.036" y="49.68" style="stroke: #000000; stroke-width: 0.8"/>
      </g>
     </g>
     <g id="text_20">
      <!-- $\mathdefault{300}$ -->
      <g transform="translate(241.036 53.479219) scale(0.1 -0.1)">
       <use xlink:href="#DejaVuSans-33" transform="translate(0 0.78125)"/>
       <use xlink:href="#DejaVuSans-30" transform="translate(63.623047 0.78125)"/>
       <use xlink:href="#DejaVuSans-30" transform="translate(127.246094 0.78125)"/>
      </g>
     </g>
    </g>
    <g id="ytick_12">
     <g id="line2d_16">
      <g>
       <use xlink:href="#m5838aaf997" x="234.036" y="25.92" style="stroke: #000000; stroke-width: 0.8"/>
      </g>
     </g>
     <g id="text_21">
      <!-- $\mathdefault{350}$ -->
      <g transform="translate(241.036 29.719219) scale(0.1 -0.1)">
       <use xlink:href="#DejaVuSans-33" transform="translate(0 0.78125)"/>
       <use xlink:href="#DejaVuSans-35" transform="translate(63.623047 0.78125)"/>
       <use xlink:href="#DejaVuSans-30" transform="translate(127.246094 0.78125)"/>
      </g>
     </g>
    </g>
    <g id="text_22">
     <!-- $\Delta$ log likelihood -->
     <g transform="translate(273.256 154.98) rotate(-90) scale(0.12 -0.12)">
      <defs>
       <path id="DejaVuSans-394" d="M 2188 4044 
L 906 525 
L 3472 525 
L 2188 4044 
z
M 50 0 
L 1831 4666 
L 2547 4666 
L 4325 0 
L 50 0 
z
" transform="scale(0.015625)"/>
       <path id="DejaVuSans-67" d="M 2906 1791 
Q 2906 2416 2648 2759 
Q 2391 3103 1925 3103 
Q 1463 3103 1205 2759 
Q 947 2416 947 1791 
Q 947 1169 1205 825 
Q 1463 481 1925 481 
Q 2391 481 2648 825 
Q 2906 1169 2906 1791 
z
M 3481 434 
Q 3481 -459 3084 -895 
Q 2688 -1331 1869 -1331 
Q 1566 -1331 1297 -1286 
Q 1028 -1241 775 -1147 
L 775 -588 
Q 1028 -725 1275 -790 
Q 1522 -856 1778 -856 
Q 2344 -856 2625 -561 
Q 2906 -266 2906 331 
L 2906 616 
Q 2728 306 2450 153 
Q 2172 0 1784 0 
Q 1141 0 747 490 
Q 353 981 353 1791 
Q 353 2603 747 3093 
Q 1141 3584 1784 3584 
Q 2172 3584 2450 3431 
Q 2728 3278 2906 2969 
L 2906 3500 
L 3481 3500 
L 3481 434 
z
" transform="scale(0.015625)"/>
       <path id="DejaVuSans-6b" d="M 581 4863 
L 1159 4863 
L 1159 1991 
L 2875 3500 
L 3609 3500 
L 1753 1863 
L 3688 0 
L 2938 0 
L 1159 1709 
L 1159 0 
L 581 0 
L 581 4863 
z
" transform="scale(0.015625)"/>
       <path id="DejaVuSans-68" d="M 3513 2113 
L 3513 0 
L 2938 0 
L 2938 2094 
Q 2938 2591 2744 2837 
Q 2550 3084 2163 3084 
Q 1697 3084 1428 2787 
Q 1159 2491 1159 1978 
L 1159 0 
L 581 0 
L 581 4863 
L 1159 4863 
L 1159 2956 
Q 1366 3272 1645 3428 
Q 1925 3584 2291 3584 
Q 2894 3584 3203 3211 
Q 3513 2838 3513 2113 
z
" transform="scale(0.015625)"/>
      </defs>
      <use xlink:href="#DejaVuSans-394" transform="translate(0 0.015625)"/>
      <use xlink:href="#DejaVuSans-20" transform="translate(68.408203 0.015625)"/>
      <use xlink:href="#DejaVuSans-6c" transform="translate(100.195312 0.015625)"/>
      <use xlink:href="#DejaVuSans-6f" transform="translate(127.978516 0.015625)"/>
      <use xlink:href="#DejaVuSans-67" transform="translate(189.160156 0.015625)"/>
      <use xlink:href="#DejaVuSans-20" transform="translate(252.636719 0.015625)"/>
      <use xlink:href="#DejaVuSans-6c" transform="translate(284.423828 0.015625)"/>
      <use xlink:href="#DejaVuSans-69" transform="translate(312.207031 0.015625)"/>
      <use xlink:href="#DejaVuSans-6b" transform="translate(339.990234 0.015625)"/>
      <use xlink:href="#DejaVuSans-65" transform="translate(397.900391 0.015625)"/>
      <use xlink:href="#DejaVuSans-6c" transform="translate(459.423828 0.015625)"/>
      <use xlink:href="#DejaVuSans-69" transform="translate(487.207031 0.015625)"/>
      <use xlink:href="#DejaVuSans-68" transform="translate(514.990234 0.015625)"/>
      <use xlink:href="#DejaVuSans-6f" transform="translate(578.369141 0.015625)"/>
      <use xlink:href="#DejaVuSans-6f" transform="translate(639.550781 0.015625)"/>
      <use xlink:href="#DejaVuSans-64" transform="translate(700.732422 0.015625)"/>
     </g>
    </g>
    <g id="text_23">
     <!-- $\times\mathdefault{10^{3}}\mathdefault{}$ -->
     <g transform="translate(208.036 22.92) scale(0.1 -0.1)">
      <use xlink:href="#DejaVuSans-d7" transform="translate(0 0.765625)"/>
      <use xlink:href="#DejaVuSans-31" transform="translate(83.789062 0.765625)"/>
      <use xlink:href="#DejaVuSans-30" transform="translate(147.412109 0.765625)"/>
      <use xlink:href="#DejaVuSans-33" transform="translate(211.992188 39.046875) scale(0.7)"/>
     </g>
    </g>
   </g>
   <g id="LineCollection_1"/>
   <g id="patch_8">
    <path d="M 225.72 192.24 
L 229.878 192.24 
L 234.036 192.24 
L 234.036 25.92 
L 229.878 25.92 
L 225.72 25.92 
L 225.72 192.24 
z
" style="fill: none; stroke: #000000; stroke-width: 0.8; stroke-linejoin: miter; stroke-linecap: square"/>
   </g>
  </g>
 </g>
 <defs>
  <clipPath id="p0cb68e604c">
   <rect x="36" y="25.92" width="178.56" height="166.32"/>
  </clipPath>
  <clipPath id="pc611af371d">
   <rect x="225.72" y="25.92" width="8.316" height="166.32"/>
  </clipPath>
 </defs>
</svg>
