<?xml version="1.0" encoding="utf-8" standalone="no"?>
<!DOCTYPE svg PUBLIC "-//W3C//DTD SVG 1.1//EN"
  "http://www.w3.org/Graphics/SVG/1.1/DTD/svg11.dtd">
<svg xmlns:xlink="http://www.w3.org/1999/xlink" width="288pt" height="216pt" viewBox="0 0 288 216" xmlns="http://www.w3.org/2000/svg" version="1.1">
 <metadata>
  <rdf:RDF xmlns:dc="http://purl.org/dc/elements/1.1/" xmlns:cc="http://creativecommons.org/ns#" xmlns:rdf="http://www.w3.org/1999/02/22-rdf-syntax-ns#">
   <cc:Work>
    <dc:type rdf:resource="http://purl.org/dc/dcmitype/StillImage"/>
    <dc:date>2023-07-18T18:02:16.130969</dc:date>
    <dc:format>image/svg+xml</dc:format>
    <dc:creator>
     <cc:Agent>
      <dc:title>Matplotlib v3.7.1, https://matplotlib.org/</dc:title>
     </cc:Agent>
    </dc:creator>
   </cc:Work>
  </rdf:RDF>
 </metadata>
 <defs>
  <style type="text/css">*{stroke-linejoin: round; stroke-linecap: butt}</style>
 </defs>
 <g id="figure_1">
  <g id="patch_1">
   <path d="M 0 216 
L 288 216 
L 288 0 
L 0 0 
z
" style="fill: #ffffff"/>
  </g>
  <g id="axes_1">
   <g id="patch_2">
    <path d="M 36 192.24 
L 214.56 192.24 
L 214.56 25.92 
L 36 25.92 
z
" style="fill: #ffffff"/>
   </g>
   <g id="PathCollection_1">
    <path d="M 36.471568 192.24 
L 36 192.24 
L 36 191.95799 
z
" clip-path="url(#pba0e300405)" style="fill: #440154"/>
   </g>
   <g id="PathCollection_2">
    <path d="M 37.448776 192.24 
L 36.471568 192.24 
L 36 191.95799 
L 36 191.373595 
z
" clip-path="url(#pba0e300405)" style="fill: #440154"/>
   </g>
   <g id="PathCollection_3">
    <path d="M 38.425984 192.24 
L 37.448776 192.24 
L 36 191.373595 
L 36 190.7892 
z
" clip-path="url(#pba0e300405)" style="fill: #440154"/>
   </g>
   <g id="PathCollection_4">
    <path d="M 39.403192 192.24 
L 38.425984 192.24 
L 36 190.7892 
L 36 190.204805 
z
" clip-path="url(#pba0e300405)" style="fill: #440154"/>
   </g>
   <g id="PathCollection_5">
    <path d="M 40.3804 192.24 
L 39.403192 192.24 
L 36 190.204805 
L 36 189.62041 
z
" clip-path="url(#pba0e300405)" style="fill: #440154"/>
   </g>
   <g id="PathCollection_6">
    <path d="M 41.357608 192.24 
L 40.3804 192.24 
L 36 189.62041 
L 36 189.036015 
z
" clip-path="url(#pba0e300405)" style="fill: #440154"/>
   </g>
   <g id="PathCollection_7">
    <path d="M 41.952 192.011058 
L 43.004578 192.24 
L 41.952 192.24 
L 41.357608 192.24 
L 36 189.036015 
L 36 188.45162 
z
" clip-path="url(#pba0e300405)" style="fill: #440154"/>
    <path d="M 202.656 192.168454 
L 208.608 192.090377 
L 214.56 192.014045 
L 214.56 192.24 
L 208.608 192.24 
L 202.656 192.24 
L 197.325222 192.24 
z
" clip-path="url(#pba0e300405)" style="fill: #440154"/>
   </g>
   <g id="PathCollection_8">
    <path d="M 41.952 191.426642 
L 45.691477 192.24 
L 43.004578 192.24 
L 41.952 192.011058 
L 36 188.45162 
L 36 187.867225 
z
" clip-path="url(#pba0e300405)" style="fill: #440154"/>
    <path d="M 160.992 192.184557 
L 166.944 192.092537 
L 172.896 192.002675 
L 178.848 191.914925 
L 184.8 191.829233 
L 190.752 191.74554 
L 196.704 191.663783 
L 202.656 191.583898 
L 208.608 191.50582 
L 214.56 191.429487 
L 214.56 192.014045 
L 208.608 192.090377 
L 202.656 192.168454 
L 197.325222 192.24 
L 196.704 192.24 
L 190.752 192.24 
L 184.8 192.24 
L 178.848 192.24 
L 172.896 192.24 
L 166.944 192.24 
L 160.992 192.24 
L 157.489173 192.24 
z
" clip-path="url(#pba0e300405)" style="fill: #440154"/>
   </g>
   <g id="PathCollection_9">
    <path d="M 41.952 190.842226 
L 47.904 192.136817 
L 49.006426 192.24 
L 47.904 192.24 
L 45.691477 192.24 
L 41.952 191.426642 
L 36 187.867225 
L 36 187.28283 
z
" clip-path="url(#pba0e300405)" style="fill: #440154"/>
    <path d="M 125.28 192.197249 
L 131.232 192.092701 
L 137.184 191.989961 
L 143.136 191.889234 
L 149.088 191.790635 
L 155.04 191.694222 
L 160.992 191.600011 
L 166.944 191.507989 
L 172.896 191.418126 
L 178.848 191.330374 
L 184.8 191.244681 
L 190.752 191.160986 
L 196.704 191.079228 
L 202.656 190.999342 
L 208.608 190.921263 
L 214.56 190.844928 
L 214.56 191.429487 
L 208.608 191.50582 
L 202.656 191.583898 
L 196.704 191.663783 
L 190.752 191.74554 
L 184.8 191.829233 
L 178.848 191.914925 
L 172.896 192.002675 
L 166.944 192.092537 
L 160.992 192.184557 
L 157.489173 192.24 
L 155.04 192.24 
L 149.088 192.24 
L 143.136 192.24 
L 137.184 192.24 
L 131.232 192.24 
L 125.28 192.24 
L 122.880244 192.24 
z
" clip-path="url(#pba0e300405)" style="fill: #440154"/>
   </g>
   <g id="PathCollection_10">
    <path d="M 41.952 190.257809 
L 47.904 191.552382 
L 53.856 192.109463 
L 57.056562 192.24 
L 53.856 192.24 
L 49.006426 192.24 
L 47.904 192.136817 
L 41.952 190.842226 
L 36 187.28283 
L 36 186.698435 
z
" clip-path="url(#pba0e300405)" style="fill: #440154"/>
    <path d="M 95.52 192.14272 
L 101.472 192.03923 
L 107.424 191.932983 
L 113.376 191.825766 
L 119.328 191.718753 
L 125.28 191.612717 
L 131.232 191.508166 
L 137.184 191.405424 
L 143.136 191.304694 
L 149.088 191.206093 
L 155.04 191.109678 
L 160.992 191.015465 
L 166.944 190.923442 
L 172.896 190.833576 
L 178.848 190.745823 
L 184.8 190.660129 
L 190.752 190.576433 
L 196.704 190.494673 
L 202.656 190.414786 
L 208.608 190.336706 
L 214.56 190.26037 
L 214.56 190.844928 
L 208.608 190.921263 
L 202.656 190.999342 
L 196.704 191.079228 
L 190.752 191.160986 
L 184.8 191.244681 
L 178.848 191.330374 
L 172.896 191.418126 
L 166.944 191.507989 
L 160.992 191.600011 
L 155.04 191.694222 
L 149.088 191.790635 
L 143.136 191.889234 
L 137.184 191.989961 
L 131.232 192.092701 
L 125.28 192.197249 
L 122.880244 192.24 
L 119.328 192.24 
L 113.376 192.24 
L 107.424 192.24 
L 101.472 192.24 
L 95.52 192.24 
L 89.61118 192.24 
z
" clip-path="url(#pba0e300405)" style="fill: #440154"/>
   </g>
   <g id="PathCollection_11">
    <path d="M 36 186.696 
L 36 185.258853 
L 36.973191 186.696 
L 41.952 189.673393 
L 47.904 190.967947 
L 53.856 191.525012 
L 59.808 191.767758 
L 65.76 191.85544 
L 71.712 191.85952 
L 77.664 191.815969 
L 83.616 191.744412 
L 89.568 191.656204 
L 95.52 191.558208 
L 101.472 191.454713 
L 107.424 191.348461 
L 113.376 191.241241 
L 119.328 191.134224 
L 125.28 191.028186 
L 131.232 190.923631 
L 137.184 190.820887 
L 143.136 190.720155 
L 149.088 190.621551 
L 155.04 190.525134 
L 160.992 190.430919 
L 166.944 190.338894 
L 172.896 190.249027 
L 178.848 190.161273 
L 184.8 190.075576 
L 190.752 189.991879 
L 196.704 189.910118 
L 202.656 189.83023 
L 208.608 189.752149 
L 214.56 189.675812 
L 214.56 190.26037 
L 208.608 190.336706 
L 202.656 190.414786 
L 196.704 190.494673 
L 190.752 190.576433 
L 184.8 190.660129 
L 178.848 190.745823 
L 172.896 190.833576 
L 166.944 190.923442 
L 160.992 191.015465 
L 155.04 191.109678 
L 149.088 191.206093 
L 143.136 191.304694 
L 137.184 191.405424 
L 131.232 191.508166 
L 125.28 191.612717 
L 119.328 191.718753 
L 113.376 191.825766 
L 107.424 191.932983 
L 101.472 192.03923 
L 95.52 192.14272 
L 89.61118 192.24 
L 89.568 192.24 
L 83.616 192.24 
L 77.664 192.24 
L 71.712 192.24 
L 65.76 192.24 
L 59.808 192.24 
L 57.056562 192.24 
L 53.856 192.109463 
L 47.904 191.552382 
L 41.952 190.257809 
L 36 186.698435 
z
" clip-path="url(#pba0e300405)" style="fill: #440154"/>
   </g>
   <g id="PathCollection_12">
    <path d="M 36.973191 186.696 
L 36 185.258853 
L 36 183.815692 
L 37.950454 186.696 
L 41.952 189.088977 
L 47.904 190.383512 
L 53.856 190.940561 
L 59.808 191.183294 
L 65.76 191.270965 
L 71.712 191.275035 
L 77.664 191.231476 
L 83.616 191.159912 
L 89.568 191.071698 
L 95.52 190.973696 
L 101.472 190.870196 
L 107.424 190.76394 
L 113.376 190.656716 
L 119.328 190.549696 
L 125.28 190.443654 
L 131.232 190.339097 
L 137.184 190.23635 
L 143.136 190.135615 
L 149.088 190.037009 
L 155.04 189.94059 
L 160.992 189.846373 
L 166.944 189.754347 
L 172.896 189.664478 
L 178.848 189.576722 
L 184.8 189.491024 
L 190.752 189.407326 
L 196.704 189.325564 
L 202.656 189.245674 
L 208.608 189.167592 
L 214.56 189.091254 
L 214.56 189.675812 
L 208.608 189.752149 
L 202.656 189.83023 
L 196.704 189.910118 
L 190.752 189.991879 
L 184.8 190.075576 
L 178.848 190.161273 
L 172.896 190.249027 
L 166.944 190.338894 
L 160.992 190.430919 
L 155.04 190.525134 
L 149.088 190.621551 
L 143.136 190.720155 
L 137.184 190.820887 
L 131.232 190.923631 
L 125.28 191.028186 
L 119.328 191.134224 
L 113.376 191.241241 
L 107.424 191.348461 
L 101.472 191.454713 
L 95.52 191.558208 
L 89.568 191.656204 
L 83.616 191.744412 
L 77.664 191.815969 
L 71.712 191.85952 
L 65.76 191.85544 
L 59.808 191.767758 
L 53.856 191.525012 
L 47.904 190.967947 
L 41.952 189.673393 
z
" clip-path="url(#pba0e300405)" style="fill: #440154"/>
   </g>
   <g id="PathCollection_13">
    <path d="M 37.950454 186.696 
L 36 183.815692 
L 36 182.372531 
L 38.927717 186.696 
L 41.952 188.504561 
L 47.904 189.799078 
L 53.856 190.35611 
L 59.808 190.59883 
L 65.76 190.686489 
L 71.712 190.69055 
L 77.664 190.646983 
L 83.616 190.575412 
L 89.568 190.487191 
L 95.52 190.389184 
L 101.472 190.285679 
L 107.424 190.179419 
L 113.376 190.07219 
L 119.328 189.965167 
L 125.28 189.859122 
L 131.232 189.754562 
L 137.184 189.651812 
L 143.136 189.551075 
L 149.088 189.452467 
L 155.04 189.356046 
L 160.992 189.261827 
L 166.944 189.169799 
L 172.896 189.079929 
L 178.848 188.992171 
L 184.8 188.906472 
L 190.752 188.822772 
L 196.704 188.741009 
L 202.656 188.661118 
L 208.608 188.583035 
L 214.56 188.506696 
L 214.56 189.091254 
L 208.608 189.167592 
L 202.656 189.245674 
L 196.704 189.325564 
L 190.752 189.407326 
L 184.8 189.491024 
L 178.848 189.576722 
L 172.896 189.664478 
L 166.944 189.754347 
L 160.992 189.846373 
L 155.04 189.94059 
L 149.088 190.037009 
L 143.136 190.135615 
L 137.184 190.23635 
L 131.232 190.339097 
L 125.28 190.443654 
L 119.328 190.549696 
L 113.376 190.656716 
L 107.424 190.76394 
L 101.472 190.870196 
L 95.52 190.973696 
L 89.568 191.071698 
L 83.616 191.159912 
L 77.664 191.231476 
L 71.712 191.275035 
L 65.76 191.270965 
L 59.808 191.183294 
L 53.856 190.940561 
L 47.904 190.383512 
L 41.952 189.088977 
z
" clip-path="url(#pba0e300405)" style="fill: #440154"/>
   </g>
   <g id="PathCollection_14">
    <path d="M 38.927717 186.696 
L 36 182.372531 
L 36 181.152 
L 36 180.708722 
L 36.150766 181.152 
L 39.904981 186.696 
L 41.952 187.920144 
L 47.904 189.214643 
L 53.856 189.771659 
L 59.808 190.014366 
L 65.76 190.102014 
L 71.712 190.106065 
L 77.664 190.062489 
L 83.616 189.990911 
L 89.568 189.902684 
L 95.52 189.804672 
L 101.472 189.701162 
L 107.424 189.594898 
L 113.376 189.487665 
L 119.328 189.380638 
L 125.28 189.27459 
L 131.232 189.170027 
L 137.184 189.067275 
L 143.136 188.966535 
L 149.088 188.867925 
L 155.04 188.771502 
L 160.992 188.677282 
L 166.944 188.585251 
L 172.896 188.495379 
L 178.848 188.40762 
L 184.8 188.32192 
L 190.752 188.238219 
L 196.704 188.156454 
L 202.656 188.076562 
L 208.608 187.998478 
L 214.56 187.922138 
L 214.56 188.506696 
L 208.608 188.583035 
L 202.656 188.661118 
L 196.704 188.741009 
L 190.752 188.822772 
L 184.8 188.906472 
L 178.848 188.992171 
L 172.896 189.079929 
L 166.944 189.169799 
L 160.992 189.261827 
L 155.04 189.356046 
L 149.088 189.452467 
L 143.136 189.551075 
L 137.184 189.651812 
L 131.232 189.754562 
L 125.28 189.859122 
L 119.328 189.965167 
L 113.376 190.07219 
L 107.424 190.179419 
L 101.472 190.285679 
L 95.52 190.389184 
L 89.568 190.487191 
L 83.616 190.575412 
L 77.664 190.646983 
L 71.712 190.69055 
L 65.76 190.686489 
L 59.808 190.59883 
L 53.856 190.35611 
L 47.904 189.799078 
L 41.952 188.504561 
z
" clip-path="url(#pba0e300405)" style="fill: #440154"/>
   </g>
   <g id="PathCollection_15">
    <path d="M 39.904981 186.696 
L 36.150766 181.152 
L 36 180.708722 
L 36 177.835244 
L 37.128079 181.152 
L 40.882244 186.696 
L 41.952 187.335728 
L 47.904 188.630208 
L 53.856 189.187209 
L 59.808 189.429901 
L 65.76 189.517538 
L 71.712 189.52158 
L 77.664 189.477996 
L 83.616 189.406411 
L 89.568 189.318178 
L 95.52 189.22016 
L 101.472 189.116645 
L 107.424 189.010376 
L 113.376 188.90314 
L 119.328 188.79611 
L 125.28 188.690058 
L 131.232 188.585493 
L 137.184 188.482738 
L 143.136 188.381996 
L 149.088 188.283383 
L 155.04 188.186958 
L 160.992 188.092736 
L 166.944 188.000704 
L 172.896 187.91083 
L 178.848 187.823069 
L 184.8 187.737368 
L 190.752 187.653665 
L 196.704 187.571899 
L 202.656 187.492006 
L 208.608 187.413921 
L 214.56 187.33758 
L 214.56 187.922138 
L 208.608 187.998478 
L 202.656 188.076562 
L 196.704 188.156454 
L 190.752 188.238219 
L 184.8 188.32192 
L 178.848 188.40762 
L 172.896 188.495379 
L 166.944 188.585251 
L 160.992 188.677282 
L 155.04 188.771502 
L 149.088 188.867925 
L 143.136 188.966535 
L 137.184 189.067275 
L 131.232 189.170027 
L 125.28 189.27459 
L 119.328 189.380638 
L 113.376 189.487665 
L 107.424 189.594898 
L 101.472 189.701162 
L 95.52 189.804672 
L 89.568 189.902684 
L 83.616 189.990911 
L 77.664 190.062489 
L 71.712 190.106065 
L 65.76 190.102014 
L 59.808 190.014366 
L 53.856 189.771659 
L 47.904 189.214643 
L 41.952 187.920144 
z
" clip-path="url(#pba0e300405)" style="fill: #450559"/>
   </g>
   <g id="PathCollection_16">
    <path d="M 40.882244 186.696 
L 37.128079 181.152 
L 36 177.835244 
L 36 175.608 
L 36 174.450502 
L 36.219804 175.608 
L 38.105392 181.152 
L 41.859507 186.696 
L 41.952 186.751312 
L 47.904 188.045773 
L 53.856 188.602758 
L 59.808 188.845437 
L 65.76 188.933063 
L 71.712 188.937095 
L 77.664 188.893503 
L 83.616 188.82191 
L 89.568 188.733671 
L 95.52 188.635648 
L 101.472 188.532128 
L 107.424 188.425855 
L 113.376 188.318615 
L 119.328 188.211581 
L 125.28 188.105527 
L 131.232 188.000958 
L 137.184 187.8982 
L 143.136 187.797456 
L 149.088 187.698842 
L 155.04 187.602414 
L 160.992 187.50819 
L 166.944 187.416156 
L 172.896 187.326281 
L 178.848 187.238519 
L 184.8 187.152815 
L 190.752 187.069112 
L 196.704 186.987344 
L 202.656 186.90745 
L 208.608 186.829363 
L 214.56 186.753021 
L 214.56 187.33758 
L 208.608 187.413921 
L 202.656 187.492006 
L 196.704 187.571899 
L 190.752 187.653665 
L 184.8 187.737368 
L 178.848 187.823069 
L 172.896 187.91083 
L 166.944 188.000704 
L 160.992 188.092736 
L 155.04 188.186958 
L 149.088 188.283383 
L 143.136 188.381996 
L 137.184 188.482738 
L 131.232 188.585493 
L 125.28 188.690058 
L 119.328 188.79611 
L 113.376 188.90314 
L 107.424 189.010376 
L 101.472 189.116645 
L 95.52 189.22016 
L 89.568 189.318178 
L 83.616 189.406411 
L 77.664 189.477996 
L 71.712 189.52158 
L 65.76 189.517538 
L 59.808 189.429901 
L 53.856 189.187209 
L 47.904 188.630208 
L 41.952 187.335728 
z
" clip-path="url(#pba0e300405)" style="fill: #481d6f"/>
   </g>
   <g id="PathCollection_17">
    <path d="M 41.859507 186.696 
L 38.105392 181.152 
L 36.219804 175.608 
L 36 174.450502 
L 36 170.064 
L 36 168.773016 
L 36.144384 170.064 
L 37.19716 175.608 
L 39.082705 181.152 
L 41.952 185.389321 
L 44.384931 186.696 
L 47.904 187.461338 
L 53.856 188.018307 
L 59.808 188.260973 
L 65.76 188.348587 
L 71.712 188.35261 
L 77.664 188.30901 
L 83.616 188.23741 
L 89.568 188.149165 
L 95.52 188.051136 
L 101.472 187.947611 
L 107.424 187.841334 
L 113.376 187.73409 
L 119.328 187.627053 
L 125.28 187.520995 
L 131.232 187.416423 
L 137.184 187.313663 
L 143.136 187.212916 
L 149.088 187.1143 
L 155.04 187.01787 
L 160.992 186.923644 
L 166.944 186.831608 
L 172.896 186.741732 
L 175.99745 186.696 
L 178.848 186.592166 
L 184.8 186.380446 
L 190.752 186.173664 
L 196.704 185.971665 
L 202.656 185.774291 
L 208.608 185.581384 
L 214.56 185.392785 
L 214.56 186.696 
L 214.56 186.753021 
L 208.608 186.829363 
L 202.656 186.90745 
L 196.704 186.987344 
L 190.752 187.069112 
L 184.8 187.152815 
L 178.848 187.238519 
L 172.896 187.326281 
L 166.944 187.416156 
L 160.992 187.50819 
L 155.04 187.602414 
L 149.088 187.698842 
L 143.136 187.797456 
L 137.184 187.8982 
L 131.232 188.000958 
L 125.28 188.105527 
L 119.328 188.211581 
L 113.376 188.318615 
L 107.424 188.425855 
L 101.472 188.532128 
L 95.52 188.635648 
L 89.568 188.733671 
L 83.616 188.82191 
L 77.664 188.893503 
L 71.712 188.937095 
L 65.76 188.933063 
L 59.808 188.845437 
L 53.856 188.602758 
L 47.904 188.045773 
L 41.952 186.751312 
z
" clip-path="url(#pba0e300405)" style="fill: #463480"/>
    <path d="M 36 48.096 
L 36 42.552 
L 36 37.008 
L 36 31.464 
L 36 25.92 
L 36.407923 25.92 
L 36.318596 31.464 
L 36.228089 37.008 
L 36.136446 42.552 
L 36.043733 48.096 
L 36 50.683677 
z
" clip-path="url(#pba0e300405)" style="fill: #463480"/>
   </g>
   <g id="PathCollection_18">
    <path d="M 39.082705 181.152 
L 37.19716 175.608 
L 36.144384 170.064 
L 36 168.773016 
L 36 164.52 
L 36 158.976 
L 36 155.701443 
L 36.129792 158.976 
L 36.501751 164.52 
L 37.121778 170.064 
L 38.174516 175.608 
L 40.060018 181.152 
L 41.952 183.946044 
L 47.072198 186.696 
L 47.904 186.876903 
L 53.856 187.433856 
L 59.808 187.676509 
L 65.76 187.764112 
L 71.712 187.768125 
L 77.664 187.724516 
L 83.616 187.65291 
L 89.568 187.564658 
L 95.52 187.466624 
L 101.472 187.363094 
L 107.424 187.256813 
L 113.376 187.149565 
L 119.328 187.042524 
L 125.28 186.936463 
L 131.232 186.831889 
L 137.184 186.729126 
L 139.140989 186.696 
L 143.136 186.528952 
L 149.088 186.285334 
L 155.04 186.047117 
L 160.992 185.814341 
L 166.944 185.586977 
L 172.896 185.364943 
L 178.848 185.148129 
L 184.8 184.9364 
L 190.752 184.72961 
L 196.704 184.527604 
L 202.656 184.330224 
L 208.608 184.13731 
L 214.56 183.948705 
L 214.56 185.392785 
L 208.608 185.581384 
L 202.656 185.774291 
L 196.704 185.971665 
L 190.752 186.173664 
L 184.8 186.380446 
L 178.848 186.592166 
L 175.99745 186.696 
L 172.896 186.741732 
L 166.944 186.831608 
L 160.992 186.923644 
L 155.04 187.01787 
L 149.088 187.1143 
L 143.136 187.212916 
L 137.184 187.313663 
L 131.232 187.416423 
L 125.28 187.520995 
L 119.328 187.627053 
L 113.376 187.73409 
L 107.424 187.841334 
L 101.472 187.947611 
L 95.52 188.051136 
L 89.568 188.149165 
L 83.616 188.23741 
L 77.664 188.30901 
L 71.712 188.35261 
L 65.76 188.348587 
L 59.808 188.260973 
L 53.856 188.018307 
L 47.904 187.461338 
L 44.384931 186.696 
L 41.952 185.389321 
z
" clip-path="url(#pba0e300405)" style="fill: #3f4889"/>
    <path d="M 36 103.536 
L 36 97.992 
L 36 92.448 
L 36 86.904 
L 36 81.36 
L 36 75.816 
L 36 70.272 
L 36 64.728 
L 36 59.184 
L 36 53.64 
L 36 50.683677 
L 36.043733 48.096 
L 36.136446 42.552 
L 36.228089 37.008 
L 36.318596 31.464 
L 36.407923 25.92 
L 37.385608 25.92 
L 37.296278 31.464 
L 37.205767 37.008 
L 37.11412 42.552 
L 37.021403 48.096 
L 36.927702 53.64 
L 36.833136 59.184 
L 36.737861 64.728 
L 36.642082 70.272 
L 36.546063 75.816 
L 36.450153 81.36 
L 36.354801 86.904 
L 36.260593 92.448 
L 36.168295 97.992 
L 36.07891 103.536 
L 36 108.67402 
z
" clip-path="url(#pba0e300405)" style="fill: #3f4889"/>
   </g>
   <g id="PathCollection_19">
    <path d="M 40.060018 181.152 
L 38.174516 175.608 
L 37.121778 170.064 
L 36.501751 164.52 
L 36.129792 158.976 
L 36 155.701443 
L 36 153.432 
L 36 147.888 
L 36 142.344 
L 36 136.8 
L 36 131.256 
L 36 125.712 
L 36 120.168 
L 36 114.624 
L 36 109.08 
L 36 108.67402 
L 36.07891 103.536 
L 36.168295 97.992 
L 36.260593 92.448 
L 36.354801 86.904 
L 36.450153 81.36 
L 36.546063 75.816 
L 36.642082 70.272 
L 36.737861 64.728 
L 36.833136 59.184 
L 36.927702 53.64 
L 37.021403 48.096 
L 37.11412 42.552 
L 37.205767 37.008 
L 37.296278 31.464 
L 37.385608 25.92 
L 38.363293 25.92 
L 38.27396 31.464 
L 38.183445 37.008 
L 38.091794 42.552 
L 37.999073 48.096 
L 37.905368 53.64 
L 37.810797 59.184 
L 37.715517 64.728 
L 37.619732 70.272 
L 37.523708 75.816 
L 37.427791 81.36 
L 37.332432 86.904 
L 37.238217 92.448 
L 37.145911 97.992 
L 37.056517 103.536 
L 36.971363 109.08 
L 36.892217 114.624 
L 36.821458 120.168 
L 36.762334 125.712 
L 36.719336 131.256 
L 36.698795 136.8 
L 36.709825 142.344 
L 36.765892 147.888 
L 36.887523 153.432 
L 37.107246 158.976 
L 37.479176 164.52 
L 38.099171 170.064 
L 39.151872 175.608 
L 41.037331 181.152 
L 41.952 182.502766 
L 47.904 185.699395 
L 52.216585 186.696 
L 53.856 186.849406 
L 59.808 187.092045 
L 65.76 187.179637 
L 71.712 187.18364 
L 77.664 187.140023 
L 83.616 187.068409 
L 89.568 186.980151 
L 95.52 186.882112 
L 101.472 186.778577 
L 106.09632 186.696 
L 107.424 186.637435 
L 113.376 186.372502 
L 119.328 186.108077 
L 125.28 185.84607 
L 131.232 185.587732 
L 137.184 185.333868 
L 143.136 185.084977 
L 149.088 184.841346 
L 155.04 184.603118 
L 160.992 184.370332 
L 166.944 184.142957 
L 172.896 183.920914 
L 178.848 183.704091 
L 184.8 183.492354 
L 190.752 183.285557 
L 196.704 183.083544 
L 202.656 182.886156 
L 208.608 182.693236 
L 214.56 182.504625 
L 214.56 183.948705 
L 208.608 184.13731 
L 202.656 184.330224 
L 196.704 184.527604 
L 190.752 184.72961 
L 184.8 184.9364 
L 178.848 185.148129 
L 172.896 185.364943 
L 166.944 185.586977 
L 160.992 185.814341 
L 155.04 186.047117 
L 149.088 186.285334 
L 143.136 186.528952 
L 139.140989 186.696 
L 137.184 186.729126 
L 131.232 186.831889 
L 125.28 186.936463 
L 119.328 187.042524 
L 113.376 187.149565 
L 107.424 187.256813 
L 101.472 187.363094 
L 95.52 187.466624 
L 89.568 187.564658 
L 83.616 187.65291 
L 77.664 187.724516 
L 71.712 187.768125 
L 65.76 187.764112 
L 59.808 187.676509 
L 53.856 187.433856 
L 47.904 186.876903 
L 47.072198 186.696 
L 41.952 183.946044 
z
" clip-path="url(#pba0e300405)" style="fill: #375b8d"/>
   </g>
   <g id="PathCollection_20">
    <path d="M 41.037331 181.152 
L 39.151872 175.608 
L 38.099171 170.064 
L 37.479176 164.52 
L 37.107246 158.976 
L 36.887523 153.432 
L 36.765892 147.888 
L 36.709825 142.344 
L 36.698795 136.8 
L 36.719336 131.256 
L 36.762334 125.712 
L 36.821458 120.168 
L 36.892217 114.624 
L 36.971363 109.08 
L 37.056517 103.536 
L 37.145911 97.992 
L 37.238217 92.448 
L 37.332432 86.904 
L 37.427791 81.36 
L 37.523708 75.816 
L 37.619732 70.272 
L 37.715517 64.728 
L 37.810797 59.184 
L 37.905368 53.64 
L 37.999073 48.096 
L 38.091794 42.552 
L 38.183445 37.008 
L 38.27396 31.464 
L 38.363293 25.92 
L 39.340979 25.92 
L 39.251641 31.464 
L 39.161123 37.008 
L 39.069468 42.552 
L 38.976742 48.096 
L 38.883033 53.64 
L 38.788457 59.184 
L 38.693172 64.728 
L 38.597382 70.272 
L 38.501352 75.816 
L 38.405429 81.36 
L 38.310064 86.904 
L 38.215841 92.448 
L 38.123527 97.992 
L 38.034125 103.536 
L 37.948961 109.08 
L 37.869805 114.624 
L 37.799035 120.168 
L 37.739898 125.712 
L 37.696886 131.256 
L 37.67633 136.8 
L 37.687344 142.344 
L 37.743392 147.888 
L 37.865001 153.432 
L 38.0847 158.976 
L 38.456602 164.52 
L 39.076565 170.064 
L 40.129229 175.608 
L 41.952 180.967791 
L 42.124269 181.152 
L 47.904 184.256014 
L 53.856 185.631409 
L 59.808 186.230631 
L 65.76 186.446936 
L 71.712 186.456794 
L 77.664 186.349035 
L 83.616 186.172122 
L 89.568 185.954094 
L 95.52 185.711901 
L 101.472 185.456133 
L 107.424 185.193565 
L 113.376 184.92861 
L 119.328 184.664165 
L 125.28 184.40214 
L 131.232 184.143786 
L 137.184 183.889907 
L 143.136 183.641002 
L 149.088 183.397359 
L 155.04 183.159119 
L 160.992 182.926322 
L 166.944 182.698937 
L 172.896 182.476885 
L 178.848 182.260053 
L 184.8 182.048308 
L 190.752 181.841503 
L 196.704 181.639483 
L 202.656 181.442089 
L 208.608 181.249162 
L 211.674067 181.152 
L 214.56 180.969816 
L 214.56 181.152 
L 214.56 182.504625 
L 208.608 182.693236 
L 202.656 182.886156 
L 196.704 183.083544 
L 190.752 183.285557 
L 184.8 183.492354 
L 178.848 183.704091 
L 172.896 183.920914 
L 166.944 184.142957 
L 160.992 184.370332 
L 155.04 184.603118 
L 149.088 184.841346 
L 143.136 185.084977 
L 137.184 185.333868 
L 131.232 185.587732 
L 125.28 185.84607 
L 119.328 186.108077 
L 113.376 186.372502 
L 107.424 186.637435 
L 106.09632 186.696 
L 101.472 186.778577 
L 95.52 186.882112 
L 89.568 186.980151 
L 83.616 187.068409 
L 77.664 187.140023 
L 71.712 187.18364 
L 65.76 187.179637 
L 59.808 187.092045 
L 53.856 186.849406 
L 52.216585 186.696 
L 47.904 185.699395 
L 41.952 182.502766 
z
" clip-path="url(#pba0e300405)" style="fill: #2e6d8e"/>
   </g>
   <g id="PathCollection_21">
    <path d="M 40.129229 175.608 
L 39.076565 170.064 
L 38.456602 164.52 
L 38.0847 158.976 
L 37.865001 153.432 
L 37.743392 147.888 
L 37.687344 142.344 
L 37.67633 136.8 
L 37.696886 131.256 
L 37.739898 125.712 
L 37.799035 120.168 
L 37.869805 114.624 
L 37.948961 109.08 
L 38.034125 103.536 
L 38.123527 97.992 
L 38.215841 92.448 
L 38.310064 86.904 
L 38.405429 81.36 
L 38.501352 75.816 
L 38.597382 70.272 
L 38.693172 64.728 
L 38.788457 59.184 
L 38.883033 53.64 
L 38.976742 48.096 
L 39.069468 42.552 
L 39.161123 37.008 
L 39.251641 31.464 
L 39.340979 25.92 
L 40.318664 25.92 
L 40.229323 31.464 
L 40.138801 37.008 
L 40.047142 42.552 
L 39.954412 48.096 
L 39.860698 53.64 
L 39.766118 59.184 
L 39.670828 64.728 
L 39.575032 70.272 
L 39.478996 75.816 
L 39.383067 81.36 
L 39.287695 86.904 
L 39.193465 92.448 
L 39.101143 97.992 
L 39.011732 103.536 
L 38.926559 109.08 
L 38.847393 114.624 
L 38.776612 120.168 
L 38.717463 125.712 
L 38.674437 131.256 
L 38.653866 136.8 
L 38.664863 142.344 
L 38.720892 147.888 
L 38.84248 153.432 
L 39.062154 158.976 
L 39.434028 164.52 
L 40.053959 170.064 
L 41.106585 175.608 
L 41.952 178.093911 
L 44.811871 181.152 
L 47.904 182.812633 
L 53.856 184.187939 
L 59.808 184.787085 
L 65.76 185.003327 
L 71.712 185.01313 
L 77.664 184.905325 
L 83.616 184.728371 
L 89.568 184.510308 
L 95.52 184.268083 
L 101.472 184.012287 
L 107.424 183.749696 
L 113.376 183.484718 
L 119.328 183.220254 
L 125.28 182.958211 
L 131.232 182.69984 
L 137.184 182.445946 
L 143.136 182.197027 
L 149.088 181.953372 
L 155.04 181.71512 
L 160.992 181.482312 
L 166.944 181.254917 
L 169.702541 181.152 
L 172.896 180.914662 
L 178.848 180.482709 
L 184.8 180.060887 
L 190.752 179.648902 
L 196.704 179.246446 
L 202.656 178.853205 
L 208.608 178.468862 
L 214.56 178.093102 
L 214.56 180.969816 
L 211.674067 181.152 
L 208.608 181.249162 
L 202.656 181.442089 
L 196.704 181.639483 
L 190.752 181.841503 
L 184.8 182.048308 
L 178.848 182.260053 
L 172.896 182.476885 
L 166.944 182.698937 
L 160.992 182.926322 
L 155.04 183.159119 
L 149.088 183.397359 
L 143.136 183.641002 
L 137.184 183.889907 
L 131.232 184.143786 
L 125.28 184.40214 
L 119.328 184.664165 
L 113.376 184.92861 
L 107.424 185.193565 
L 101.472 185.456133 
L 95.52 185.711901 
L 89.568 185.954094 
L 83.616 186.172122 
L 77.664 186.349035 
L 71.712 186.456794 
L 65.76 186.446936 
L 59.808 186.230631 
L 53.856 185.631409 
L 47.904 184.256014 
L 42.124269 181.152 
L 41.952 180.967791 
z
" clip-path="url(#pba0e300405)" style="fill: #287d8e"/>
   </g>
   <g id="PathCollection_22">
    <path d="M 41.106585 175.608 
L 40.053959 170.064 
L 39.434028 164.52 
L 39.062154 158.976 
L 38.84248 153.432 
L 38.720892 147.888 
L 38.664863 142.344 
L 38.653866 136.8 
L 38.674437 131.256 
L 38.717463 125.712 
L 38.776612 120.168 
L 38.847393 114.624 
L 38.926559 109.08 
L 39.011732 103.536 
L 39.101143 97.992 
L 39.193465 92.448 
L 39.287695 86.904 
L 39.383067 81.36 
L 39.478996 75.816 
L 39.575032 70.272 
L 39.670828 64.728 
L 39.766118 59.184 
L 39.860698 53.64 
L 39.954412 48.096 
L 40.047142 42.552 
L 40.138801 37.008 
L 40.229323 31.464 
L 40.318664 25.92 
L 41.296349 25.92 
L 41.207005 31.464 
L 41.116479 37.008 
L 41.024816 42.552 
L 40.932082 48.096 
L 40.838363 53.64 
L 40.743779 59.184 
L 40.648483 64.728 
L 40.552682 70.272 
L 40.45664 75.816 
L 40.360705 81.36 
L 40.265326 86.904 
L 40.171089 92.448 
L 40.078759 97.992 
L 39.98934 103.536 
L 39.904158 109.08 
L 39.824981 114.624 
L 39.754189 120.168 
L 39.695027 125.712 
L 39.651988 131.256 
L 39.631402 136.8 
L 39.642382 142.344 
L 39.698392 147.888 
L 39.819958 153.432 
L 40.039608 158.976 
L 40.411454 164.52 
L 41.031352 170.064 
L 41.952 174.913041 
L 42.314861 175.608 
L 47.499473 181.152 
L 47.904 181.369252 
L 53.856 182.744469 
L 59.808 183.34354 
L 65.76 183.559717 
L 71.712 183.569467 
L 77.664 183.461614 
L 83.616 183.28462 
L 89.568 183.066521 
L 95.52 182.824266 
L 101.472 182.568442 
L 107.424 182.305826 
L 113.376 182.040827 
L 119.328 181.776342 
L 125.28 181.514281 
L 131.232 181.255894 
L 133.667447 181.152 
L 137.184 180.853179 
L 143.136 180.357313 
L 149.088 179.871926 
L 155.04 179.397301 
L 160.992 178.933517 
L 166.944 178.480512 
L 172.896 178.038129 
L 178.848 177.606145 
L 184.8 177.184294 
L 190.752 176.772281 
L 196.704 176.369801 
L 202.656 175.976535 
L 208.362857 175.608 
L 208.608 175.579627 
L 214.56 174.906118 
L 214.56 175.608 
L 214.56 178.093102 
L 208.608 178.468862 
L 202.656 178.853205 
L 196.704 179.246446 
L 190.752 179.648902 
L 184.8 180.060887 
L 178.848 180.482709 
L 172.896 180.914662 
L 169.702541 181.152 
L 166.944 181.254917 
L 160.992 181.482312 
L 155.04 181.71512 
L 149.088 181.953372 
L 143.136 182.197027 
L 137.184 182.445946 
L 131.232 182.69984 
L 125.28 182.958211 
L 119.328 183.220254 
L 113.376 183.484718 
L 107.424 183.749696 
L 101.472 184.012287 
L 95.52 184.268083 
L 89.568 184.510308 
L 83.616 184.728371 
L 77.664 184.905325 
L 71.712 185.01313 
L 65.76 185.003327 
L 59.808 184.787085 
L 53.856 184.187939 
L 47.904 182.812633 
L 44.811871 181.152 
L 41.952 178.093911 
z
" clip-path="url(#pba0e300405)" style="fill: #218e8d"/>
   </g>
   <g id="PathCollection_23">
    <path d="M 41.031352 170.064 
L 40.411454 164.52 
L 40.039608 158.976 
L 39.819958 153.432 
L 39.698392 147.888 
L 39.642382 142.344 
L 39.631402 136.8 
L 39.651988 131.256 
L 39.695027 125.712 
L 39.754189 120.168 
L 39.824981 114.624 
L 39.904158 109.08 
L 39.98934 103.536 
L 40.078759 97.992 
L 40.171089 92.448 
L 40.265326 86.904 
L 40.360705 81.36 
L 40.45664 75.816 
L 40.552682 70.272 
L 40.648483 64.728 
L 40.743779 59.184 
L 40.838363 53.64 
L 40.932082 48.096 
L 41.024816 42.552 
L 41.116479 37.008 
L 41.207005 31.464 
L 41.296349 25.92 
L 41.952 25.92 
L 42.838096 25.92 
L 42.592246 31.464 
L 42.343148 37.008 
L 42.090925 42.552 
L 41.952 45.570358 
L 41.909752 48.096 
L 41.816029 53.64 
L 41.721439 59.184 
L 41.626139 64.728 
L 41.530332 70.272 
L 41.434284 75.816 
L 41.338343 81.36 
L 41.242957 86.904 
L 41.148713 92.448 
L 41.056375 97.992 
L 40.966947 103.536 
L 40.881756 109.08 
L 40.802569 114.624 
L 40.731766 120.168 
L 40.672592 125.712 
L 40.629539 131.256 
L 40.608938 136.8 
L 40.6199 142.344 
L 40.675891 147.888 
L 40.797436 153.432 
L 41.017062 158.976 
L 41.38888 164.52 
L 41.952 169.556457 
L 42.10807 170.064 
L 45.002757 175.608 
L 47.904 178.710378 
L 53.211121 181.152 
L 53.856 181.300999 
L 59.808 181.899994 
L 65.76 182.116108 
L 71.712 182.125803 
L 77.664 182.017904 
L 83.616 181.840869 
L 89.568 181.622735 
L 95.52 181.380448 
L 100.83452 181.152 
L 101.472 181.097418 
L 107.424 180.574277 
L 113.376 180.046382 
L 119.328 179.519506 
L 125.28 178.997453 
L 131.232 178.482713 
L 137.184 177.976888 
L 143.136 177.480974 
L 149.088 176.995542 
L 155.04 176.520876 
L 160.992 176.057053 
L 166.891612 175.608 
L 166.944 175.600853 
L 172.896 174.807945 
L 178.848 174.033667 
L 184.8 173.277543 
L 190.752 172.539051 
L 196.704 171.817636 
L 202.656 171.112736 
L 208.608 170.423781 
L 211.787229 170.064 
L 214.56 169.53074 
L 214.56 170.064 
L 214.56 174.906118 
L 208.608 175.579627 
L 208.362857 175.608 
L 202.656 175.976535 
L 196.704 176.369801 
L 190.752 176.772281 
L 184.8 177.184294 
L 178.848 177.606145 
L 172.896 178.038129 
L 166.944 178.480512 
L 160.992 178.933517 
L 155.04 179.397301 
L 149.088 179.871926 
L 143.136 180.357313 
L 137.184 180.853179 
L 133.667447 181.152 
L 131.232 181.255894 
L 125.28 181.514281 
L 119.328 181.776342 
L 113.376 182.040827 
L 107.424 182.305826 
L 101.472 182.568442 
L 95.52 182.824266 
L 89.568 183.066521 
L 83.616 183.28462 
L 77.664 183.461614 
L 71.712 183.569467 
L 65.76 183.559717 
L 59.808 183.34354 
L 53.856 182.744469 
L 47.904 181.369252 
L 47.499473 181.152 
L 42.314861 175.608 
L 41.952 174.913041 
z
" clip-path="url(#pba0e300405)" style="fill: #1f9e89"/>
    <path d="M 199.122428 25.92 
L 202.656 25.92 
L 208.608 25.92 
L 214.56 25.92 
L 214.56 31.464 
L 214.56 37.008 
L 214.56 42.552 
L 214.56 46.486218 
L 211.489152 42.552 
L 208.608 38.817181 
L 207.243597 37.008 
L 203.114846 31.464 
L 202.656 30.83966 
z
" clip-path="url(#pba0e300405)" style="fill: #1f9e89"/>
   </g>
   <g id="PathCollection_24">
    <path d="M 41.38888 164.52 
L 41.017062 158.976 
L 40.797436 153.432 
L 40.675891 147.888 
L 40.6199 142.344 
L 40.608938 136.8 
L 40.629539 131.256 
L 40.672592 125.712 
L 40.731766 120.168 
L 40.802569 114.624 
L 40.881756 109.08 
L 40.966947 103.536 
L 41.056375 97.992 
L 41.148713 92.448 
L 41.242957 86.904 
L 41.338343 81.36 
L 41.434284 75.816 
L 41.530332 70.272 
L 41.626139 64.728 
L 41.721439 59.184 
L 41.816029 53.64 
L 41.909752 48.096 
L 41.952 45.570358 
L 42.090925 42.552 
L 42.343148 37.008 
L 42.592246 31.464 
L 42.838096 25.92 
L 45.528249 25.92 
L 45.282375 31.464 
L 45.033251 37.008 
L 44.781 42.552 
L 44.525801 48.096 
L 44.267895 53.64 
L 44.007606 59.184 
L 43.745364 64.728 
L 43.48173 70.272 
L 43.217438 75.816 
L 42.953439 81.36 
L 42.690973 86.904 
L 42.431652 92.448 
L 42.177578 97.992 
L 41.952 103.074462 
L 41.944554 103.536 
L 41.859354 109.08 
L 41.780157 114.624 
L 41.709342 120.168 
L 41.650156 125.712 
L 41.60709 131.256 
L 41.586473 136.8 
L 41.597419 142.344 
L 41.653391 147.888 
L 41.774915 153.432 
L 41.952 157.902639 
L 42.068942 158.976 
L 43.091532 164.52 
L 44.796221 170.064 
L 47.690653 175.608 
L 47.904 175.836137 
L 53.856 178.574166 
L 59.808 179.766811 
L 65.76 180.197042 
L 71.712 180.216214 
L 77.664 180.001198 
L 83.616 179.648488 
L 89.568 179.213919 
L 95.52 178.731241 
L 101.472 178.22154 
L 107.424 177.698312 
L 113.376 177.170338 
L 119.328 176.643392 
L 125.28 176.121274 
L 131.214376 175.608 
L 131.232 175.605268 
L 137.184 174.698667 
L 143.136 173.809816 
L 149.088 172.939743 
L 155.04 172.088956 
L 160.992 171.257597 
L 166.944 170.445557 
L 169.807854 170.064 
L 172.896 169.36481 
L 178.848 168.048878 
L 184.8 166.763787 
L 190.752 165.508648 
L 195.551231 164.52 
L 196.704 164.123658 
L 202.656 162.124092 
L 208.608 160.16971 
L 212.326385 158.976 
L 214.56 157.759908 
L 214.56 158.976 
L 214.56 164.52 
L 214.56 169.53074 
L 211.787229 170.064 
L 208.608 170.423781 
L 202.656 171.112736 
L 196.704 171.817636 
L 190.752 172.539051 
L 184.8 173.277543 
L 178.848 174.033667 
L 172.896 174.807945 
L 166.944 175.600853 
L 166.891612 175.608 
L 160.992 176.057053 
L 155.04 176.520876 
L 149.088 176.995542 
L 143.136 177.480974 
L 137.184 177.976888 
L 131.232 178.482713 
L 125.28 178.997453 
L 119.328 179.519506 
L 113.376 180.046382 
L 107.424 180.574277 
L 101.472 181.097418 
L 100.83452 181.152 
L 95.52 181.380448 
L 89.568 181.622735 
L 83.616 181.840869 
L 77.664 182.017904 
L 71.712 182.125803 
L 65.76 182.116108 
L 59.808 181.899994 
L 53.856 181.300999 
L 53.211121 181.152 
L 47.904 178.710378 
L 45.002757 175.608 
L 42.10807 170.064 
L 41.952 169.556457 
z
" clip-path="url(#pba0e300405)" style="fill: #28ae80"/>
    <path d="M 159.071757 25.92 
L 160.992 25.92 
L 166.944 25.92 
L 172.896 25.92 
L 178.848 25.92 
L 184.8 25.92 
L 190.752 25.92 
L 196.704 25.92 
L 199.122428 25.92 
L 202.656 30.83966 
L 203.114846 31.464 
L 207.243597 37.008 
L 208.608 38.817181 
L 211.489152 42.552 
L 214.56 46.486218 
L 214.56 48.096 
L 214.56 53.64 
L 214.56 59.184 
L 214.56 64.728 
L 214.56 70.272 
L 214.56 75.816 
L 214.56 81.36 
L 214.56 86.904 
L 214.56 92.448 
L 214.56 97.992 
L 214.56 103.536 
L 214.56 103.856096 
L 214.32973 103.536 
L 210.146002 97.992 
L 208.608 96.017137 
L 205.890654 92.448 
L 202.656 88.283601 
L 201.608728 86.904 
L 197.350672 81.36 
L 196.704 80.522675 
L 193.152482 75.816 
L 190.752 72.637476 
L 189.007003 70.272 
L 184.92832 64.728 
L 184.8 64.552622 
L 180.963847 59.184 
L 178.848 56.200169 
L 177.075306 53.64 
L 173.272297 48.096 
L 172.896 47.541543 
L 169.589611 42.552 
L 166.944 38.512413 
L 165.981926 37.008 
L 162.480861 31.464 
L 160.992 29.074936 
z
" clip-path="url(#pba0e300405)" style="fill: #28ae80"/>
   </g>
   <g id="PathCollection_25">
    <path d="M 41.774915 153.432 
L 41.653391 147.888 
L 41.597419 142.344 
L 41.586473 136.8 
L 41.60709 131.256 
L 41.650156 125.712 
L 41.709342 120.168 
L 41.780157 114.624 
L 41.859354 109.08 
L 41.944554 103.536 
L 41.952 103.074462 
L 42.177578 97.992 
L 42.431652 92.448 
L 42.690973 86.904 
L 42.953439 81.36 
L 43.217438 75.816 
L 43.48173 70.272 
L 43.745364 64.728 
L 44.007606 59.184 
L 44.267895 53.64 
L 44.525801 48.096 
L 44.781 42.552 
L 45.033251 37.008 
L 45.282375 31.464 
L 45.528249 25.92 
L 47.904 25.92 
L 48.635553 25.92 
L 48.063394 31.464 
L 47.904 32.988313 
L 47.723354 37.008 
L 47.471076 42.552 
L 47.215848 48.096 
L 46.957911 53.64 
L 46.69759 59.184 
L 46.435312 64.728 
L 46.171641 70.272 
L 45.907309 75.816 
L 45.643267 81.36 
L 45.380755 86.904 
L 45.121383 92.448 
L 44.867256 97.992 
L 44.621135 103.536 
L 44.386669 109.08 
L 44.168719 114.624 
L 43.973834 120.168 
L 43.810939 125.712 
L 43.692388 131.256 
L 43.635591 136.8 
L 43.665611 142.344 
L 43.819475 147.888 
L 44.153627 153.432 
L 44.757507 158.976 
L 45.779905 164.52 
L 47.484373 170.064 
L 47.904 170.86776 
L 53.656845 175.608 
L 53.856 175.699614 
L 59.808 176.891995 
L 65.76 177.322 
L 71.712 177.34098 
L 77.664 177.125798 
L 83.616 176.772945 
L 89.568 176.338249 
L 95.52 175.855461 
L 98.409204 175.608 
L 101.472 175.137894 
L 107.424 174.200096 
L 113.376 173.25378 
L 119.328 172.309293 
L 125.28 171.373452 
L 131.232 170.450719 
L 133.770496 170.064 
L 137.184 169.180343 
L 143.136 167.669711 
L 149.088 166.190971 
L 155.04 164.744989 
L 155.987763 164.52 
L 160.992 162.537416 
L 166.944 160.234068 
L 170.27291 158.976 
L 172.896 157.294924 
L 178.848 153.569936 
L 179.073692 153.432 
L 184.078632 147.888 
L 184.8 146.140355 
L 186.404393 142.344 
L 186.837889 136.8 
L 185.933712 131.256 
L 184.8 127.867639 
L 184.095633 125.712 
L 181.617868 120.168 
L 178.848 114.976358 
L 178.664435 114.624 
L 175.438554 109.08 
L 172.896 105.014593 
L 171.993096 103.536 
L 168.441608 97.992 
L 166.944 95.726719 
L 164.82744 92.448 
L 161.176135 86.904 
L 160.992 86.627674 
L 157.563756 81.36 
L 155.04 77.503494 
L 153.961034 75.816 
L 150.413176 70.272 
L 149.088 68.195618 
L 146.924276 64.728 
L 143.483863 59.184 
L 143.136 58.619142 
L 140.13489 53.64 
L 137.184 48.698152 
L 136.831543 48.096 
L 133.620966 42.552 
L 131.232 38.377968 
L 130.461639 37.008 
L 127.383112 31.464 
L 125.28 27.626081 
L 124.358398 25.92 
L 125.28 25.92 
L 131.232 25.92 
L 137.184 25.92 
L 143.136 25.92 
L 149.088 25.92 
L 155.04 25.92 
L 159.071757 25.92 
L 160.992 29.074936 
L 162.480861 31.464 
L 165.981926 37.008 
L 166.944 38.512413 
L 169.589611 42.552 
L 172.896 47.541543 
L 173.272297 48.096 
L 177.075306 53.64 
L 178.848 56.200169 
L 180.963847 59.184 
L 184.8 64.552622 
L 184.92832 64.728 
L 189.007003 70.272 
L 190.752 72.637476 
L 193.152482 75.816 
L 196.704 80.522675 
L 197.350672 81.36 
L 201.608728 86.904 
L 202.656 88.283601 
L 205.890654 92.448 
L 208.608 96.017137 
L 210.146002 97.992 
L 214.32973 103.536 
L 214.56 103.856096 
L 214.56 109.08 
L 214.56 114.624 
L 214.56 120.168 
L 214.56 125.712 
L 214.56 131.256 
L 214.56 136.8 
L 214.56 142.344 
L 214.56 147.888 
L 214.56 153.432 
L 214.56 157.759908 
L 212.326385 158.976 
L 208.608 160.16971 
L 202.656 162.124092 
L 196.704 164.123658 
L 195.551231 164.52 
L 190.752 165.508648 
L 184.8 166.763787 
L 178.848 168.048878 
L 172.896 169.36481 
L 169.807854 170.064 
L 166.944 170.445557 
L 160.992 171.257597 
L 155.04 172.088956 
L 149.088 172.939743 
L 143.136 173.809816 
L 137.184 174.698667 
L 131.232 175.605268 
L 131.214376 175.608 
L 125.28 176.121274 
L 119.328 176.643392 
L 113.376 177.170338 
L 107.424 177.698312 
L 101.472 178.22154 
L 95.52 178.731241 
L 89.568 179.213919 
L 83.616 179.648488 
L 77.664 180.001198 
L 71.712 180.216214 
L 65.76 180.197042 
L 59.808 179.766811 
L 53.856 178.574166 
L 47.904 175.836137 
L 47.690653 175.608 
L 44.796221 170.064 
L 43.091532 164.52 
L 42.068942 158.976 
L 41.952 157.902639 
z
" clip-path="url(#pba0e300405)" style="fill: #40bd72"/>
   </g>
   <g id="PathCollection_26">
    <path d="M 47.484373 170.064 
L 45.779905 164.52 
L 44.757507 158.976 
L 44.153627 153.432 
L 43.819475 147.888 
L 43.665611 142.344 
L 43.635591 136.8 
L 43.692388 131.256 
L 43.810939 125.712 
L 43.973834 120.168 
L 44.168719 114.624 
L 44.386669 109.08 
L 44.621135 103.536 
L 44.867256 97.992 
L 45.121383 92.448 
L 45.380755 86.904 
L 45.643267 81.36 
L 45.907309 75.816 
L 46.171641 70.272 
L 46.435312 64.728 
L 46.69759 59.184 
L 46.957911 53.64 
L 47.215848 48.096 
L 47.471076 42.552 
L 47.723354 37.008 
L 47.904 32.988313 
L 48.063394 31.464 
L 48.635553 25.92 
L 53.856 25.92 
L 56.246049 25.92 
L 54.929631 31.464 
L 53.856 35.926679 
L 53.742908 37.008 
L 53.1558 42.552 
L 52.561832 48.096 
L 51.961567 53.64 
L 51.355762 59.184 
L 50.745414 64.728 
L 50.131831 70.272 
L 49.51672 75.816 
L 48.902297 81.36 
L 48.291444 86.904 
L 47.904 90.46297 
L 47.811115 92.448 
L 47.556934 97.992 
L 47.310754 103.536 
L 47.076224 109.08 
L 46.858205 114.624 
L 46.663243 120.168 
L 46.500263 125.712 
L 46.381619 131.256 
L 46.324718 136.8 
L 46.354622 142.344 
L 46.508356 147.888 
L 46.84236 153.432 
L 47.446072 158.976 
L 47.904 161.459507 
L 49.21607 164.52 
L 53.178381 170.064 
L 53.856 170.622333 
L 59.808 172.757875 
L 65.76 173.527778 
L 71.712 173.561362 
L 77.664 173.175431 
L 83.616 172.542839 
L 89.568 171.763601 
L 95.52 170.898184 
L 100.95333 170.064 
L 101.472 169.928695 
L 107.424 168.334875 
L 113.376 166.72656 
L 119.328 165.12133 
L 121.578301 164.52 
L 125.28 162.869305 
L 131.232 160.252236 
L 134.185639 158.976 
L 137.184 156.779272 
L 141.843855 153.432 
L 143.136 151.750139 
L 146.167212 147.888 
L 148.157831 142.344 
L 148.527913 136.8 
L 147.762794 131.256 
L 146.19084 125.712 
L 144.040026 120.168 
L 143.136 118.216364 
L 141.507389 114.624 
L 138.699953 109.08 
L 137.184 106.294974 
L 135.711895 103.536 
L 132.608612 97.992 
L 131.232 95.60906 
L 129.43784 92.448 
L 126.227453 86.904 
L 125.28 85.286926 
L 123.011916 81.36 
L 119.792096 75.816 
L 119.328 75.017609 
L 116.595383 70.272 
L 113.411721 64.728 
L 113.376 64.665454 
L 110.252435 59.184 
L 107.424 54.182265 
L 107.114689 53.64 
L 103.981765 48.096 
L 101.472 43.60692 
L 100.866861 42.552 
L 97.723774 37.008 
L 95.52 33.071521 
L 94.570344 31.464 
L 91.338295 25.92 
L 95.52 25.92 
L 101.472 25.92 
L 107.424 25.92 
L 113.376 25.92 
L 119.328 25.92 
L 124.358398 25.92 
L 125.28 27.626081 
L 127.383112 31.464 
L 130.461639 37.008 
L 131.232 38.377968 
L 133.620966 42.552 
L 136.831543 48.096 
L 137.184 48.698152 
L 140.13489 53.64 
L 143.136 58.619142 
L 143.483863 59.184 
L 146.924276 64.728 
L 149.088 68.195618 
L 150.413176 70.272 
L 153.961034 75.816 
L 155.04 77.503494 
L 157.563756 81.36 
L 160.992 86.627674 
L 161.176135 86.904 
L 164.82744 92.448 
L 166.944 95.726719 
L 168.441608 97.992 
L 171.993096 103.536 
L 172.896 105.014593 
L 175.438554 109.08 
L 178.664435 114.624 
L 178.848 114.976358 
L 181.617868 120.168 
L 184.095633 125.712 
L 184.8 127.867639 
L 185.933712 131.256 
L 186.837889 136.8 
L 186.404393 142.344 
L 184.8 146.140355 
L 184.078632 147.888 
L 179.073692 153.432 
L 178.848 153.569936 
L 172.896 157.294924 
L 170.27291 158.976 
L 166.944 160.234068 
L 160.992 162.537416 
L 155.987763 164.52 
L 155.04 164.744989 
L 149.088 166.190971 
L 143.136 167.669711 
L 137.184 169.180343 
L 133.770496 170.064 
L 131.232 170.450719 
L 125.28 171.373452 
L 119.328 172.309293 
L 113.376 173.25378 
L 107.424 174.200096 
L 101.472 175.137894 
L 98.409204 175.608 
L 95.52 175.855461 
L 89.568 176.338249 
L 83.616 176.772945 
L 77.664 177.125798 
L 71.712 177.34098 
L 65.76 177.322 
L 59.808 176.891995 
L 53.856 175.699614 
L 53.656845 175.608 
L 47.904 170.86776 
z
" clip-path="url(#pba0e300405)" style="fill: #63cb5f"/>
   </g>
   <g id="PathCollection_27">
    <path d="M 47.446072 158.976 
L 46.84236 153.432 
L 46.508356 147.888 
L 46.354622 142.344 
L 46.324718 136.8 
L 46.381619 131.256 
L 46.500263 125.712 
L 46.663243 120.168 
L 46.858205 114.624 
L 47.076224 109.08 
L 47.310754 103.536 
L 47.556934 97.992 
L 47.811115 92.448 
L 47.904 90.46297 
L 48.291444 86.904 
L 48.902297 81.36 
L 49.51672 75.816 
L 50.131831 70.272 
L 50.745414 64.728 
L 51.355762 59.184 
L 51.961567 53.64 
L 52.561832 48.096 
L 53.1558 42.552 
L 53.742908 37.008 
L 53.856 35.926679 
L 54.929631 31.464 
L 56.246049 25.92 
L 59.808 25.92 
L 65.76 25.92 
L 71.712 25.92 
L 77.664 25.92 
L 83.616 25.92 
L 89.568 25.92 
L 91.338295 25.92 
L 94.570344 31.464 
L 95.52 33.071521 
L 97.723774 37.008 
L 100.866861 42.552 
L 101.472 43.60692 
L 103.981765 48.096 
L 107.114689 53.64 
L 107.424 54.182265 
L 110.252435 59.184 
L 113.376 64.665454 
L 113.411721 64.728 
L 116.595383 70.272 
L 119.328 75.017609 
L 119.792096 75.816 
L 123.011916 81.36 
L 125.28 85.286926 
L 126.227453 86.904 
L 129.43784 92.448 
L 131.232 95.60906 
L 132.608612 97.992 
L 135.711895 103.536 
L 137.184 106.294974 
L 138.699953 109.08 
L 141.507389 114.624 
L 143.136 118.216364 
L 144.040026 120.168 
L 146.19084 125.712 
L 147.762794 131.256 
L 148.527913 136.8 
L 148.157831 142.344 
L 146.167212 147.888 
L 143.136 151.750139 
L 141.843855 153.432 
L 137.184 156.779272 
L 134.185639 158.976 
L 131.232 160.252236 
L 125.28 162.869305 
L 121.578301 164.52 
L 119.328 165.12133 
L 113.376 166.72656 
L 107.424 168.334875 
L 101.472 169.928695 
L 100.95333 170.064 
L 95.52 170.898184 
L 89.568 171.763601 
L 83.616 172.542839 
L 77.664 173.175431 
L 71.712 173.561362 
L 65.76 173.527778 
L 59.808 172.757875 
L 53.856 170.622333 
L 53.178381 170.064 
L 49.21607 164.52 
L 47.904 161.459507 
z
M 53.856 160.760563 
L 57.5572 164.52 
L 59.808 165.891213 
L 65.76 167.197697 
L 71.712 167.25368 
L 77.664 166.597135 
L 83.616 165.521609 
L 88.116645 164.52 
L 89.568 163.981077 
L 95.52 161.52674 
L 101.377876 158.976 
L 101.472 158.90652 
L 107.424 154.396462 
L 108.685358 153.432 
L 112.687985 147.888 
L 113.376 145.80672 
L 114.522948 142.344 
L 114.866691 136.8 
L 114.164854 131.256 
L 113.376 128.229433 
L 112.721313 125.712 
L 110.747501 120.168 
L 108.390356 114.624 
L 107.424 112.58948 
L 105.742547 109.08 
L 102.887191 103.536 
L 101.472 100.916903 
L 99.850376 97.992 
L 96.678118 92.448 
L 95.52 90.464228 
L 93.326621 86.904 
L 89.870882 81.36 
L 89.568 80.876784 
L 86.048334 75.816 
L 83.616 72.321561 
L 81.861711 70.272 
L 77.664 65.354229 
L 76.792209 64.728 
L 71.712 61.058497 
L 65.76 61.377675 
L 63.395757 64.728 
L 59.808 69.785926 
L 59.684228 70.272 
L 58.268983 75.816 
L 56.855366 81.36 
L 55.45001 86.904 
L 54.061541 92.448 
L 53.856 93.285629 
L 53.353809 97.992 
L 52.780854 103.536 
L 52.235005 109.08 
L 51.727569 114.624 
L 51.273769 120.168 
L 50.894362 125.712 
L 50.618073 131.256 
L 50.485378 136.8 
L 50.554544 142.344 
L 50.911642 147.888 
L 51.687869 153.432 
L 53.091103 158.976 
z
" clip-path="url(#pba0e300405)" style="fill: #8ed645"/>
   </g>
   <g id="PathCollection_28">
    <path d="M 53.091103 158.976 
L 51.687869 153.432 
L 50.911642 147.888 
L 50.554544 142.344 
L 50.485378 136.8 
L 50.618073 131.256 
L 50.894362 125.712 
L 51.273769 120.168 
L 51.727569 114.624 
L 52.235005 109.08 
L 52.780854 103.536 
L 53.353809 97.992 
L 53.856 93.285629 
L 54.061541 92.448 
L 55.45001 86.904 
L 56.855366 81.36 
L 58.268983 75.816 
L 59.684228 70.272 
L 59.808 69.785926 
L 63.395757 64.728 
L 65.76 61.377675 
L 71.712 61.058497 
L 76.792209 64.728 
L 77.664 65.354229 
L 81.861711 70.272 
L 83.616 72.321561 
L 86.048334 75.816 
L 89.568 80.876784 
L 89.870882 81.36 
L 93.326621 86.904 
L 95.52 90.464228 
L 96.678118 92.448 
L 99.850376 97.992 
L 101.472 100.916903 
L 102.887191 103.536 
L 105.742547 109.08 
L 107.424 112.58948 
L 108.390356 114.624 
L 110.747501 120.168 
L 112.721313 125.712 
L 113.376 128.229433 
L 114.164854 131.256 
L 114.866691 136.8 
L 114.522948 142.344 
L 113.376 145.80672 
L 112.687985 147.888 
L 108.685358 153.432 
L 107.424 154.396462 
L 101.472 158.90652 
L 101.377876 158.976 
L 95.52 161.52674 
L 89.568 163.981077 
L 88.116645 164.52 
L 83.616 165.521609 
L 77.664 166.597135 
L 71.712 167.25368 
L 65.76 167.197697 
L 59.808 165.891213 
L 57.5572 164.52 
L 53.856 160.760563 
z
M 65.76 149.409784 
L 71.712 149.684533 
L 74.886421 147.888 
L 77.664 144.459822 
L 78.711853 142.344 
L 79.23249 136.8 
L 78.194942 131.256 
L 77.664 129.883605 
L 75.028238 125.712 
L 71.712 121.880771 
L 65.76 122.418015 
L 64.315417 125.712 
L 62.543804 131.256 
L 61.690458 136.8 
L 62.126864 142.344 
L 64.401359 147.888 
z
" clip-path="url(#pba0e300405)" style="fill: #bade28"/>
   </g>
   <g id="PathCollection_29">
    <path d="M 64.401359 147.888 
L 62.126864 142.344 
L 61.690458 136.8 
L 62.543804 131.256 
L 64.315417 125.712 
L 65.76 122.418015 
L 71.712 121.880771 
L 75.028238 125.712 
L 77.664 129.883605 
L 78.194942 131.256 
L 79.23249 136.8 
L 78.711853 142.344 
L 77.664 144.459822 
L 74.886421 147.888 
L 71.712 149.684533 
L 65.76 149.409784 
z
" clip-path="url(#pba0e300405)" style="fill: #eae51a"/>
   </g>
   <g id="PathCollection_30">
    <defs>
     <path id="m2af390e9e4" d="M -4.330127 4.330127 
L 4.330127 -4.330127 
M -4.330127 -4.330127 
L 4.330127 4.330127 
" style="stroke: #000000; stroke-width: 2"/>
    </defs>
    <g clip-path="url(#pba0e300405)">
     <use xlink:href="#m2af390e9e4" x="65.76" y="146.04" style="stroke: #000000; stroke-width: 2"/>
    </g>
   </g>
   <g id="matplotlib.axis_1">
    <g id="xtick_1">
     <g id="line2d_1">
      <defs>
       <path id="mb349b10d72" d="M 0 0 
L 0 3.5 
" style="stroke: #000000; stroke-width: 0.8"/>
      </defs>
      <g>
       <use xlink:href="#mb349b10d72" x="75.68" y="192.24" style="stroke: #000000; stroke-width: 0.8"/>
      </g>
     </g>
     <g id="text_1">
      <!-- $\mathdefault{250}$ -->
      <g transform="translate(64.22 208.358125) scale(0.12 -0.12)">
       <defs>
        <path id="DejaVuSans-32" d="M 1228 531 
L 3431 531 
L 3431 0 
L 469 0 
L 469 531 
Q 828 903 1448 1529 
Q 2069 2156 2228 2338 
Q 2531 2678 2651 2914 
Q 2772 3150 2772 3378 
Q 2772 3750 2511 3984 
Q 2250 4219 1831 4219 
Q 1534 4219 1204 4116 
Q 875 4013 500 3803 
L 500 4441 
Q 881 4594 1212 4672 
Q 1544 4750 1819 4750 
Q 2544 4750 2975 4387 
Q 3406 4025 3406 3419 
Q 3406 3131 3298 2873 
Q 3191 2616 2906 2266 
Q 2828 2175 2409 1742 
Q 1991 1309 1228 531 
z
" transform="scale(0.015625)"/>
        <path id="DejaVuSans-35" d="M 691 4666 
L 3169 4666 
L 3169 4134 
L 1269 4134 
L 1269 2991 
Q 1406 3038 1543 3061 
Q 1681 3084 1819 3084 
Q 2600 3084 3056 2656 
Q 3513 2228 3513 1497 
Q 3513 744 3044 326 
Q 2575 -91 1722 -91 
Q 1428 -91 1123 -41 
Q 819 9 494 109 
L 494 744 
Q 775 591 1075 516 
Q 1375 441 1709 441 
Q 2250 441 2565 725 
Q 2881 1009 2881 1497 
Q 2881 1984 2565 2268 
Q 2250 2553 1709 2553 
Q 1456 2553 1204 2497 
Q 953 2441 691 2322 
L 691 4666 
z
" transform="scale(0.015625)"/>
        <path id="DejaVuSans-30" d="M 2034 4250 
Q 1547 4250 1301 3770 
Q 1056 3291 1056 2328 
Q 1056 1369 1301 889 
Q 1547 409 2034 409 
Q 2525 409 2770 889 
Q 3016 1369 3016 2328 
Q 3016 3291 2770 3770 
Q 2525 4250 2034 4250 
z
M 2034 4750 
Q 2819 4750 3233 4129 
Q 3647 3509 3647 2328 
Q 3647 1150 3233 529 
Q 2819 -91 2034 -91 
Q 1250 -91 836 529 
Q 422 1150 422 2328 
Q 422 3509 836 4129 
Q 1250 4750 2034 4750 
z
" transform="scale(0.015625)"/>
       </defs>
       <use xlink:href="#DejaVuSans-32" transform="translate(0 0.78125)"/>
       <use xlink:href="#DejaVuSans-35" transform="translate(63.623047 0.78125)"/>
       <use xlink:href="#DejaVuSans-30" transform="translate(127.246094 0.78125)"/>
      </g>
     </g>
    </g>
    <g id="xtick_2">
     <g id="line2d_2">
      <g>
       <use xlink:href="#mb349b10d72" x="125.28" y="192.24" style="stroke: #000000; stroke-width: 0.8"/>
      </g>
     </g>
     <g id="text_2">
      <!-- $\mathdefault{500}$ -->
      <g transform="translate(113.82 208.358125) scale(0.12 -0.12)">
       <use xlink:href="#DejaVuSans-35" transform="translate(0 0.78125)"/>
       <use xlink:href="#DejaVuSans-30" transform="translate(63.623047 0.78125)"/>
       <use xlink:href="#DejaVuSans-30" transform="translate(127.246094 0.78125)"/>
      </g>
     </g>
    </g>
    <g id="xtick_3">
     <g id="line2d_3">
      <g>
       <use xlink:href="#mb349b10d72" x="174.88" y="192.24" style="stroke: #000000; stroke-width: 0.8"/>
      </g>
     </g>
     <g id="text_3">
      <!-- $\mathdefault{750}$ -->
      <g transform="translate(163.42 208.358125) scale(0.12 -0.12)">
       <defs>
        <path id="DejaVuSans-37" d="M 525 4666 
L 3525 4666 
L 3525 4397 
L 1831 0 
L 1172 0 
L 2766 4134 
L 525 4134 
L 525 4666 
z
" transform="scale(0.015625)"/>
       </defs>
       <use xlink:href="#DejaVuSans-37" transform="translate(0 0.78125)"/>
       <use xlink:href="#DejaVuSans-35" transform="translate(63.623047 0.78125)"/>
       <use xlink:href="#DejaVuSans-30" transform="translate(127.246094 0.78125)"/>
      </g>
     </g>
    </g>
    <g id="text_4">
     <!-- Diploid N$_e$0 -->
     <g transform="translate(80 227.01375) scale(0.16 -0.16)">
      <defs>
       <path id="DejaVuSans-44" d="M 1259 4147 
L 1259 519 
L 2022 519 
Q 2988 519 3436 956 
Q 3884 1394 3884 2338 
Q 3884 3275 3436 3711 
Q 2988 4147 2022 4147 
L 1259 4147 
z
M 628 4666 
L 1925 4666 
Q 3281 4666 3915 4102 
Q 4550 3538 4550 2338 
Q 4550 1131 3912 565 
Q 3275 0 1925 0 
L 628 0 
L 628 4666 
z
" transform="scale(0.015625)"/>
       <path id="DejaVuSans-69" d="M 603 3500 
L 1178 3500 
L 1178 0 
L 603 0 
L 603 3500 
z
M 603 4863 
L 1178 4863 
L 1178 4134 
L 603 4134 
L 603 4863 
z
" transform="scale(0.015625)"/>
       <path id="DejaVuSans-70" d="M 1159 525 
L 1159 -1331 
L 581 -1331 
L 581 3500 
L 1159 3500 
L 1159 2969 
Q 1341 3281 1617 3432 
Q 1894 3584 2278 3584 
Q 2916 3584 3314 3078 
Q 3713 2572 3713 1747 
Q 3713 922 3314 415 
Q 2916 -91 2278 -91 
Q 1894 -91 1617 61 
Q 1341 213 1159 525 
z
M 3116 1747 
Q 3116 2381 2855 2742 
Q 2594 3103 2138 3103 
Q 1681 3103 1420 2742 
Q 1159 2381 1159 1747 
Q 1159 1113 1420 752 
Q 1681 391 2138 391 
Q 2594 391 2855 752 
Q 3116 1113 3116 1747 
z
" transform="scale(0.015625)"/>
       <path id="DejaVuSans-6c" d="M 603 4863 
L 1178 4863 
L 1178 0 
L 603 0 
L 603 4863 
z
" transform="scale(0.015625)"/>
       <path id="DejaVuSans-6f" d="M 1959 3097 
Q 1497 3097 1228 2736 
Q 959 2375 959 1747 
Q 959 1119 1226 758 
Q 1494 397 1959 397 
Q 2419 397 2687 759 
Q 2956 1122 2956 1747 
Q 2956 2369 2687 2733 
Q 2419 3097 1959 3097 
z
M 1959 3584 
Q 2709 3584 3137 3096 
Q 3566 2609 3566 1747 
Q 3566 888 3137 398 
Q 2709 -91 1959 -91 
Q 1206 -91 779 398 
Q 353 888 353 1747 
Q 353 2609 779 3096 
Q 1206 3584 1959 3584 
z
" transform="scale(0.015625)"/>
       <path id="DejaVuSans-64" d="M 2906 2969 
L 2906 4863 
L 3481 4863 
L 3481 0 
L 2906 0 
L 2906 525 
Q 2725 213 2448 61 
Q 2172 -91 1784 -91 
Q 1150 -91 751 415 
Q 353 922 353 1747 
Q 353 2572 751 3078 
Q 1150 3584 1784 3584 
Q 2172 3584 2448 3432 
Q 2725 3281 2906 2969 
z
M 947 1747 
Q 947 1113 1208 752 
Q 1469 391 1925 391 
Q 2381 391 2643 752 
Q 2906 1113 2906 1747 
Q 2906 2381 2643 2742 
Q 2381 3103 1925 3103 
Q 1469 3103 1208 2742 
Q 947 2381 947 1747 
z
" transform="scale(0.015625)"/>
       <path id="DejaVuSans-20" transform="scale(0.015625)"/>
       <path id="DejaVuSans-4e" d="M 628 4666 
L 1478 4666 
L 3547 763 
L 3547 4666 
L 4159 4666 
L 4159 0 
L 3309 0 
L 1241 3903 
L 1241 0 
L 628 0 
L 628 4666 
z
" transform="scale(0.015625)"/>
       <path id="DejaVuSans-Oblique-65" d="M 3078 2063 
Q 3088 2113 3092 2166 
Q 3097 2219 3097 2272 
Q 3097 2653 2873 2875 
Q 2650 3097 2266 3097 
Q 1838 3097 1509 2826 
Q 1181 2556 1013 2059 
L 3078 2063 
z
M 3578 1613 
L 903 1613 
Q 884 1494 878 1425 
Q 872 1356 872 1306 
Q 872 872 1139 634 
Q 1406 397 1894 397 
Q 2269 397 2603 481 
Q 2938 566 3225 728 
L 3116 159 
Q 2806 34 2476 -28 
Q 2147 -91 1806 -91 
Q 1078 -91 686 257 
Q 294 606 294 1247 
Q 294 1794 489 2264 
Q 684 2734 1063 3103 
Q 1306 3334 1642 3459 
Q 1978 3584 2356 3584 
Q 2950 3584 3301 3228 
Q 3653 2872 3653 2272 
Q 3653 2128 3634 1964 
Q 3616 1800 3578 1613 
z
" transform="scale(0.015625)"/>
      </defs>
      <use xlink:href="#DejaVuSans-44" transform="translate(0 0.015625)"/>
      <use xlink:href="#DejaVuSans-69" transform="translate(77.001953 0.015625)"/>
      <use xlink:href="#DejaVuSans-70" transform="translate(104.785156 0.015625)"/>
      <use xlink:href="#DejaVuSans-6c" transform="translate(168.261719 0.015625)"/>
      <use xlink:href="#DejaVuSans-6f" transform="translate(196.044922 0.015625)"/>
      <use xlink:href="#DejaVuSans-69" transform="translate(257.226562 0.015625)"/>
      <use xlink:href="#DejaVuSans-64" transform="translate(285.009766 0.015625)"/>
      <use xlink:href="#DejaVuSans-20" transform="translate(348.486328 0.015625)"/>
      <use xlink:href="#DejaVuSans-4e" transform="translate(380.273438 0.015625)"/>
      <use xlink:href="#DejaVuSans-Oblique-65" transform="translate(456.035156 -16.390625) scale(0.7)"/>
      <use xlink:href="#DejaVuSans-30" transform="translate(501.835938 0.015625)"/>
     </g>
    </g>
    <g id="text_5">
     <!-- $\times\mathdefault{10^{3}}\mathdefault{}$ -->
     <g transform="translate(188.56 221.452188) scale(0.1 -0.1)">
      <defs>
       <path id="DejaVuSans-d7" d="M 4488 3438 
L 3059 2003 
L 4488 575 
L 4116 197 
L 2681 1631 
L 1247 197 
L 878 575 
L 2303 2003 
L 878 3438 
L 1247 3816 
L 2681 2381 
L 4116 3816 
L 4488 3438 
z
" transform="scale(0.015625)"/>
       <path id="DejaVuSans-31" d="M 794 531 
L 1825 531 
L 1825 4091 
L 703 3866 
L 703 4441 
L 1819 4666 
L 2450 4666 
L 2450 531 
L 3481 531 
L 3481 0 
L 794 0 
L 794 531 
z
" transform="scale(0.015625)"/>
       <path id="DejaVuSans-33" d="M 2597 2516 
Q 3050 2419 3304 2112 
Q 3559 1806 3559 1356 
Q 3559 666 3084 287 
Q 2609 -91 1734 -91 
Q 1441 -91 1130 -33 
Q 819 25 488 141 
L 488 750 
Q 750 597 1062 519 
Q 1375 441 1716 441 
Q 2309 441 2620 675 
Q 2931 909 2931 1356 
Q 2931 1769 2642 2001 
Q 2353 2234 1838 2234 
L 1294 2234 
L 1294 2753 
L 1863 2753 
Q 2328 2753 2575 2939 
Q 2822 3125 2822 3475 
Q 2822 3834 2567 4026 
Q 2313 4219 1838 4219 
Q 1578 4219 1281 4162 
Q 984 4106 628 3988 
L 628 4550 
Q 988 4650 1302 4700 
Q 1616 4750 1894 4750 
Q 2613 4750 3031 4423 
Q 3450 4097 3450 3541 
Q 3450 3153 3228 2886 
Q 3006 2619 2597 2516 
z
" transform="scale(0.015625)"/>
      </defs>
      <use xlink:href="#DejaVuSans-d7" transform="translate(0 0.765625)"/>
      <use xlink:href="#DejaVuSans-31" transform="translate(83.789062 0.765625)"/>
      <use xlink:href="#DejaVuSans-30" transform="translate(147.412109 0.765625)"/>
      <use xlink:href="#DejaVuSans-33" transform="translate(211.992188 39.046875) scale(0.7)"/>
     </g>
    </g>
   </g>
   <g id="matplotlib.axis_2">
    <g id="ytick_1">
     <g id="line2d_4">
      <defs>
       <path id="m78a3b91474" d="M 0 0 
L -3.5 0 
" style="stroke: #000000; stroke-width: 0.8"/>
      </defs>
      <g>
       <use xlink:href="#m78a3b91474" x="36" y="155.28" style="stroke: #000000; stroke-width: 0.8"/>
      </g>
     </g>
     <g id="text_6">
      <!-- $\mathdefault{250}$ -->
      <g transform="translate(6.08 159.839063) scale(0.12 -0.12)">
       <use xlink:href="#DejaVuSans-32" transform="translate(0 0.78125)"/>
       <use xlink:href="#DejaVuSans-35" transform="translate(63.623047 0.78125)"/>
       <use xlink:href="#DejaVuSans-30" transform="translate(127.246094 0.78125)"/>
      </g>
     </g>
    </g>
    <g id="ytick_2">
     <g id="line2d_5">
      <g>
       <use xlink:href="#m78a3b91474" x="36" y="109.08" style="stroke: #000000; stroke-width: 0.8"/>
      </g>
     </g>
     <g id="text_7">
      <!-- $\mathdefault{500}$ -->
      <g transform="translate(6.08 113.639062) scale(0.12 -0.12)">
       <use xlink:href="#DejaVuSans-35" transform="translate(0 0.78125)"/>
       <use xlink:href="#DejaVuSans-30" transform="translate(63.623047 0.78125)"/>
       <use xlink:href="#DejaVuSans-30" transform="translate(127.246094 0.78125)"/>
      </g>
     </g>
    </g>
    <g id="ytick_3">
     <g id="line2d_6">
      <g>
       <use xlink:href="#m78a3b91474" x="36" y="62.88" style="stroke: #000000; stroke-width: 0.8"/>
      </g>
     </g>
     <g id="text_8">
      <!-- $\mathdefault{750}$ -->
      <g transform="translate(6.08 67.439062) scale(0.12 -0.12)">
       <use xlink:href="#DejaVuSans-37" transform="translate(0 0.78125)"/>
       <use xlink:href="#DejaVuSans-35" transform="translate(63.623047 0.78125)"/>
       <use xlink:href="#DejaVuSans-30" transform="translate(127.246094 0.78125)"/>
      </g>
     </g>
    </g>
    <g id="text_9">
     <!-- Diploid N$_e$1 -->
     <g transform="translate(-1.28 154.36) rotate(-90) scale(0.16 -0.16)">
      <use xlink:href="#DejaVuSans-44" transform="translate(0 0.015625)"/>
      <use xlink:href="#DejaVuSans-69" transform="translate(77.001953 0.015625)"/>
      <use xlink:href="#DejaVuSans-70" transform="translate(104.785156 0.015625)"/>
      <use xlink:href="#DejaVuSans-6c" transform="translate(168.261719 0.015625)"/>
      <use xlink:href="#DejaVuSans-6f" transform="translate(196.044922 0.015625)"/>
      <use xlink:href="#DejaVuSans-69" transform="translate(257.226562 0.015625)"/>
      <use xlink:href="#DejaVuSans-64" transform="translate(285.009766 0.015625)"/>
      <use xlink:href="#DejaVuSans-20" transform="translate(348.486328 0.015625)"/>
      <use xlink:href="#DejaVuSans-4e" transform="translate(380.273438 0.015625)"/>
      <use xlink:href="#DejaVuSans-Oblique-65" transform="translate(456.035156 -16.390625) scale(0.7)"/>
      <use xlink:href="#DejaVuSans-31" transform="translate(501.835938 0.015625)"/>
     </g>
    </g>
    <g id="text_10">
     <!-- $\times\mathdefault{10^{3}}\mathdefault{}$ -->
     <g transform="translate(36 22.92) scale(0.1 -0.1)">
      <use xlink:href="#DejaVuSans-d7" transform="translate(0 0.765625)"/>
      <use xlink:href="#DejaVuSans-31" transform="translate(83.789062 0.765625)"/>
      <use xlink:href="#DejaVuSans-30" transform="translate(147.412109 0.765625)"/>
      <use xlink:href="#DejaVuSans-33" transform="translate(211.992188 39.046875) scale(0.7)"/>
     </g>
    </g>
   </g>
   <g id="patch_3">
    <path d="M 36 192.24 
L 36 25.92 
" style="fill: none; stroke: #000000; stroke-width: 0.8; stroke-linejoin: miter; stroke-linecap: square"/>
   </g>
   <g id="patch_4">
    <path d="M 214.56 192.24 
L 214.56 25.92 
" style="fill: none; stroke: #000000; stroke-width: 0.8; stroke-linejoin: miter; stroke-linecap: square"/>
   </g>
   <g id="patch_5">
    <path d="M 36 192.24 
L 214.56 192.24 
" style="fill: none; stroke: #000000; stroke-width: 0.8; stroke-linejoin: miter; stroke-linecap: square"/>
   </g>
   <g id="patch_6">
    <path d="M 36 25.92 
L 214.56 25.92 
" style="fill: none; stroke: #000000; stroke-width: 0.8; stroke-linejoin: miter; stroke-linecap: square"/>
   </g>
   <g id="text_11">
    <!-- Ne0Ne1-MSSMC-GT-P2-S4 -->
    <g transform="translate(21.75375 10.92) scale(0.16 -0.16)">
     <defs>
      <path id="DejaVuSans-65" d="M 3597 1894 
L 3597 1613 
L 953 1613 
Q 991 1019 1311 708 
Q 1631 397 2203 397 
Q 2534 397 2845 478 
Q 3156 559 3463 722 
L 3463 178 
Q 3153 47 2828 -22 
Q 2503 -91 2169 -91 
Q 1331 -91 842 396 
Q 353 884 353 1716 
Q 353 2575 817 3079 
Q 1281 3584 2069 3584 
Q 2775 3584 3186 3129 
Q 3597 2675 3597 1894 
z
M 3022 2063 
Q 3016 2534 2758 2815 
Q 2500 3097 2075 3097 
Q 1594 3097 1305 2825 
Q 1016 2553 972 2059 
L 3022 2063 
z
" transform="scale(0.015625)"/>
      <path id="DejaVuSans-2d" d="M 313 2009 
L 1997 2009 
L 1997 1497 
L 313 1497 
L 313 2009 
z
" transform="scale(0.015625)"/>
      <path id="DejaVuSans-4d" d="M 628 4666 
L 1569 4666 
L 2759 1491 
L 3956 4666 
L 4897 4666 
L 4897 0 
L 4281 0 
L 4281 4097 
L 3078 897 
L 2444 897 
L 1241 4097 
L 1241 0 
L 628 0 
L 628 4666 
z
" transform="scale(0.015625)"/>
      <path id="DejaVuSans-53" d="M 3425 4513 
L 3425 3897 
Q 3066 4069 2747 4153 
Q 2428 4238 2131 4238 
Q 1616 4238 1336 4038 
Q 1056 3838 1056 3469 
Q 1056 3159 1242 3001 
Q 1428 2844 1947 2747 
L 2328 2669 
Q 3034 2534 3370 2195 
Q 3706 1856 3706 1288 
Q 3706 609 3251 259 
Q 2797 -91 1919 -91 
Q 1588 -91 1214 -16 
Q 841 59 441 206 
L 441 856 
Q 825 641 1194 531 
Q 1563 422 1919 422 
Q 2459 422 2753 634 
Q 3047 847 3047 1241 
Q 3047 1584 2836 1778 
Q 2625 1972 2144 2069 
L 1759 2144 
Q 1053 2284 737 2584 
Q 422 2884 422 3419 
Q 422 4038 858 4394 
Q 1294 4750 2059 4750 
Q 2388 4750 2728 4690 
Q 3069 4631 3425 4513 
z
" transform="scale(0.015625)"/>
      <path id="DejaVuSans-43" d="M 4122 4306 
L 4122 3641 
Q 3803 3938 3442 4084 
Q 3081 4231 2675 4231 
Q 1875 4231 1450 3742 
Q 1025 3253 1025 2328 
Q 1025 1406 1450 917 
Q 1875 428 2675 428 
Q 3081 428 3442 575 
Q 3803 722 4122 1019 
L 4122 359 
Q 3791 134 3420 21 
Q 3050 -91 2638 -91 
Q 1578 -91 968 557 
Q 359 1206 359 2328 
Q 359 3453 968 4101 
Q 1578 4750 2638 4750 
Q 3056 4750 3426 4639 
Q 3797 4528 4122 4306 
z
" transform="scale(0.015625)"/>
      <path id="DejaVuSans-47" d="M 3809 666 
L 3809 1919 
L 2778 1919 
L 2778 2438 
L 4434 2438 
L 4434 434 
Q 4069 175 3628 42 
Q 3188 -91 2688 -91 
Q 1594 -91 976 548 
Q 359 1188 359 2328 
Q 359 3472 976 4111 
Q 1594 4750 2688 4750 
Q 3144 4750 3555 4637 
Q 3966 4525 4313 4306 
L 4313 3634 
Q 3963 3931 3569 4081 
Q 3175 4231 2741 4231 
Q 1884 4231 1454 3753 
Q 1025 3275 1025 2328 
Q 1025 1384 1454 906 
Q 1884 428 2741 428 
Q 3075 428 3337 486 
Q 3600 544 3809 666 
z
" transform="scale(0.015625)"/>
      <path id="DejaVuSans-54" d="M -19 4666 
L 3928 4666 
L 3928 4134 
L 2272 4134 
L 2272 0 
L 1638 0 
L 1638 4134 
L -19 4134 
L -19 4666 
z
" transform="scale(0.015625)"/>
      <path id="DejaVuSans-50" d="M 1259 4147 
L 1259 2394 
L 2053 2394 
Q 2494 2394 2734 2622 
Q 2975 2850 2975 3272 
Q 2975 3691 2734 3919 
Q 2494 4147 2053 4147 
L 1259 4147 
z
M 628 4666 
L 2053 4666 
Q 2838 4666 3239 4311 
Q 3641 3956 3641 3272 
Q 3641 2581 3239 2228 
Q 2838 1875 2053 1875 
L 1259 1875 
L 1259 0 
L 628 0 
L 628 4666 
z
" transform="scale(0.015625)"/>
      <path id="DejaVuSans-34" d="M 2419 4116 
L 825 1625 
L 2419 1625 
L 2419 4116 
z
M 2253 4666 
L 3047 4666 
L 3047 1625 
L 3713 1625 
L 3713 1100 
L 3047 1100 
L 3047 0 
L 2419 0 
L 2419 1100 
L 313 1100 
L 313 1709 
L 2253 4666 
z
" transform="scale(0.015625)"/>
     </defs>
     <use xlink:href="#DejaVuSans-4e"/>
     <use xlink:href="#DejaVuSans-65" x="74.804688"/>
     <use xlink:href="#DejaVuSans-30" x="136.328125"/>
     <use xlink:href="#DejaVuSans-4e" x="199.951172"/>
     <use xlink:href="#DejaVuSans-65" x="274.755859"/>
     <use xlink:href="#DejaVuSans-31" x="336.279297"/>
     <use xlink:href="#DejaVuSans-2d" x="399.902344"/>
     <use xlink:href="#DejaVuSans-4d" x="435.986328"/>
     <use xlink:href="#DejaVuSans-53" x="522.265625"/>
     <use xlink:href="#DejaVuSans-53" x="585.742188"/>
     <use xlink:href="#DejaVuSans-4d" x="649.21875"/>
     <use xlink:href="#DejaVuSans-43" x="735.498047"/>
     <use xlink:href="#DejaVuSans-2d" x="805.322266"/>
     <use xlink:href="#DejaVuSans-47" x="845.03125"/>
     <use xlink:href="#DejaVuSans-54" x="918.896484"/>
     <use xlink:href="#DejaVuSans-2d" x="970.855469"/>
     <use xlink:href="#DejaVuSans-50" x="1006.939453"/>
     <use xlink:href="#DejaVuSans-32" x="1067.242188"/>
     <use xlink:href="#DejaVuSans-2d" x="1130.865234"/>
     <use xlink:href="#DejaVuSans-53" x="1166.949219"/>
     <use xlink:href="#DejaVuSans-34" x="1230.425781"/>
    </g>
   </g>
  </g>
  <g id="axes_2">
   <g id="patch_7">
    <path d="M 225.72 192.24 
L 234.036 192.24 
L 234.036 25.92 
L 225.72 25.92 
z
" style="fill: #ffffff"/>
   </g>
   <g id="QuadMesh_1">
    <path d="M 225.72 192.24 
L 234.036 192.24 
L 234.036 186.504828 
L 225.72 186.504828 
L 225.72 192.24 
" clip-path="url(#p760f775ec7)" style="fill: #440154"/>
    <path d="M 225.72 186.504828 
L 234.036 186.504828 
L 234.036 180.769655 
L 225.72 180.769655 
L 225.72 186.504828 
" clip-path="url(#p760f775ec7)" style="fill: #440154"/>
    <path d="M 225.72 180.769655 
L 234.036 180.769655 
L 234.036 175.034483 
L 225.72 175.034483 
L 225.72 180.769655 
" clip-path="url(#p760f775ec7)" style="fill: #440154"/>
    <path d="M 225.72 175.034483 
L 234.036 175.034483 
L 234.036 169.29931 
L 225.72 169.29931 
L 225.72 175.034483 
" clip-path="url(#p760f775ec7)" style="fill: #440154"/>
    <path d="M 225.72 169.29931 
L 234.036 169.29931 
L 234.036 163.564138 
L 225.72 163.564138 
L 225.72 169.29931 
" clip-path="url(#p760f775ec7)" style="fill: #440154"/>
    <path d="M 225.72 163.564138 
L 234.036 163.564138 
L 234.036 157.828966 
L 225.72 157.828966 
L 225.72 163.564138 
" clip-path="url(#p760f775ec7)" style="fill: #440154"/>
    <path d="M 225.72 157.828966 
L 234.036 157.828966 
L 234.036 152.093793 
L 225.72 152.093793 
L 225.72 157.828966 
" clip-path="url(#p760f775ec7)" style="fill: #440154"/>
    <path d="M 225.72 152.093793 
L 234.036 152.093793 
L 234.036 146.358621 
L 225.72 146.358621 
L 225.72 152.093793 
" clip-path="url(#p760f775ec7)" style="fill: #440154"/>
    <path d="M 225.72 146.358621 
L 234.036 146.358621 
L 234.036 140.623448 
L 225.72 140.623448 
L 225.72 146.358621 
" clip-path="url(#p760f775ec7)" style="fill: #440154"/>
    <path d="M 225.72 140.623448 
L 234.036 140.623448 
L 234.036 134.888276 
L 225.72 134.888276 
L 225.72 140.623448 
" clip-path="url(#p760f775ec7)" style="fill: #440154"/>
    <path d="M 225.72 134.888276 
L 234.036 134.888276 
L 234.036 129.153103 
L 225.72 129.153103 
L 225.72 134.888276 
" clip-path="url(#p760f775ec7)" style="fill: #440154"/>
    <path d="M 225.72 129.153103 
L 234.036 129.153103 
L 234.036 123.417931 
L 225.72 123.417931 
L 225.72 129.153103 
" clip-path="url(#p760f775ec7)" style="fill: #440154"/>
    <path d="M 225.72 123.417931 
L 234.036 123.417931 
L 234.036 117.682759 
L 225.72 117.682759 
L 225.72 123.417931 
" clip-path="url(#p760f775ec7)" style="fill: #440154"/>
    <path d="M 225.72 117.682759 
L 234.036 117.682759 
L 234.036 111.947586 
L 225.72 111.947586 
L 225.72 117.682759 
" clip-path="url(#p760f775ec7)" style="fill: #440154"/>
    <path d="M 225.72 111.947586 
L 234.036 111.947586 
L 234.036 106.212414 
L 225.72 106.212414 
L 225.72 111.947586 
" clip-path="url(#p760f775ec7)" style="fill: #450559"/>
    <path d="M 225.72 106.212414 
L 234.036 106.212414 
L 234.036 100.477241 
L 225.72 100.477241 
L 225.72 106.212414 
" clip-path="url(#p760f775ec7)" style="fill: #481d6f"/>
    <path d="M 225.72 100.477241 
L 234.036 100.477241 
L 234.036 94.742069 
L 225.72 94.742069 
L 225.72 100.477241 
" clip-path="url(#p760f775ec7)" style="fill: #463480"/>
    <path d="M 225.72 94.742069 
L 234.036 94.742069 
L 234.036 89.006897 
L 225.72 89.006897 
L 225.72 94.742069 
" clip-path="url(#p760f775ec7)" style="fill: #3f4889"/>
    <path d="M 225.72 89.006897 
L 234.036 89.006897 
L 234.036 83.271724 
L 225.72 83.271724 
L 225.72 89.006897 
" clip-path="url(#p760f775ec7)" style="fill: #375b8d"/>
    <path d="M 225.72 83.271724 
L 234.036 83.271724 
L 234.036 77.536552 
L 225.72 77.536552 
L 225.72 83.271724 
" clip-path="url(#p760f775ec7)" style="fill: #2e6d8e"/>
    <path d="M 225.72 77.536552 
L 234.036 77.536552 
L 234.036 71.801379 
L 225.72 71.801379 
L 225.72 77.536552 
" clip-path="url(#p760f775ec7)" style="fill: #287d8e"/>
    <path d="M 225.72 71.801379 
L 234.036 71.801379 
L 234.036 66.066207 
L 225.72 66.066207 
L 225.72 71.801379 
" clip-path="url(#p760f775ec7)" style="fill: #218e8d"/>
    <path d="M 225.72 66.066207 
L 234.036 66.066207 
L 234.036 60.331034 
L 225.72 60.331034 
L 225.72 66.066207 
" clip-path="url(#p760f775ec7)" style="fill: #1f9e89"/>
    <path d="M 225.72 60.331034 
L 234.036 60.331034 
L 234.036 54.595862 
L 225.72 54.595862 
L 225.72 60.331034 
" clip-path="url(#p760f775ec7)" style="fill: #28ae80"/>
    <path d="M 225.72 54.595862 
L 234.036 54.595862 
L 234.036 48.86069 
L 225.72 48.86069 
L 225.72 54.595862 
" clip-path="url(#p760f775ec7)" style="fill: #40bd72"/>
    <path d="M 225.72 48.86069 
L 234.036 48.86069 
L 234.036 43.125517 
L 225.72 43.125517 
L 225.72 48.86069 
" clip-path="url(#p760f775ec7)" style="fill: #63cb5f"/>
    <path d="M 225.72 43.125517 
L 234.036 43.125517 
L 234.036 37.390345 
L 225.72 37.390345 
L 225.72 43.125517 
" clip-path="url(#p760f775ec7)" style="fill: #8ed645"/>
    <path d="M 225.72 37.390345 
L 234.036 37.390345 
L 234.036 31.655172 
L 225.72 31.655172 
L 225.72 37.390345 
" clip-path="url(#p760f775ec7)" style="fill: #bade28"/>
    <path d="M 225.72 31.655172 
L 234.036 31.655172 
L 234.036 25.92 
L 225.72 25.92 
L 225.72 31.655172 
" clip-path="url(#p760f775ec7)" style="fill: #eae51a"/>
   </g>
   <g id="matplotlib.axis_3"/>
   <g id="matplotlib.axis_4">
    <g id="ytick_4">
     <g id="line2d_7">
      <defs>
       <path id="mf7525c8616" d="M 0 0 
L 3.5 0 
" style="stroke: #000000; stroke-width: 0.8"/>
      </defs>
      <g>
       <use xlink:href="#mf7525c8616" x="234.036" y="180.769655" style="stroke: #000000; stroke-width: 0.8"/>
      </g>
     </g>
     <g id="text_12">
      <!-- $\mathdefault{6575}$ -->
      <g transform="translate(241.036 184.568874) scale(0.1 -0.1)">
       <defs>
        <path id="DejaVuSans-2212" d="M 678 2272 
L 4684 2272 
L 4684 1741 
L 678 1741 
L 678 2272 
z
" transform="scale(0.015625)"/>
        <path id="DejaVuSans-36" d="M 2113 2584 
Q 1688 2584 1439 2293 
Q 1191 2003 1191 1497 
Q 1191 994 1439 701 
Q 1688 409 2113 409 
Q 2538 409 2786 701 
Q 3034 994 3034 1497 
Q 3034 2003 2786 2293 
Q 2538 2584 2113 2584 
z
M 3366 4563 
L 3366 3988 
Q 3128 4100 2886 4159 
Q 2644 4219 2406 4219 
Q 1781 4219 1451 3797 
Q 1122 3375 1075 2522 
Q 1259 2794 1537 2939 
Q 1816 3084 2150 3084 
Q 2853 3084 3261 2657 
Q 3669 2231 3669 1497 
Q 3669 778 3244 343 
Q 2819 -91 2113 -91 
Q 1303 -91 875 529 
Q 447 1150 447 2328 
Q 447 3434 972 4092 
Q 1497 4750 2381 4750 
Q 2619 4750 2861 4703 
Q 3103 4656 3366 4563 
z
" transform="scale(0.015625)"/>
       </defs>
       <use xlink:href="#DejaVuSans-2212" transform="translate(0 0.78125)"/>
       <use xlink:href="#DejaVuSans-36" transform="translate(83.789062 0.78125)"/>
       <use xlink:href="#DejaVuSans-35" transform="translate(147.412109 0.78125)"/>
       <use xlink:href="#DejaVuSans-37" transform="translate(203.785156 0.78125)"/>
       <use xlink:href="#DejaVuSans-35" transform="translate(267.408203 0.78125)"/>
      </g>
     </g>
    </g>
    <g id="ytick_5">
     <g id="line2d_8">
      <g>
       <use xlink:href="#mf7525c8616" x="234.036" y="163.564138" style="stroke: #000000; stroke-width: 0.8"/>
      </g>
     </g>
     <g id="text_13">
      <!-- $\mathdefault{6500}$ -->
      <g transform="translate(241.036 167.363357) scale(0.1 -0.1)">
       <use xlink:href="#DejaVuSans-2212" transform="translate(0 0.78125)"/>
       <use xlink:href="#DejaVuSans-36" transform="translate(83.789062 0.78125)"/>
       <use xlink:href="#DejaVuSans-35" transform="translate(147.412109 0.78125)"/>
       <use xlink:href="#DejaVuSans-30" transform="translate(211.035156 0.78125)"/>
       <use xlink:href="#DejaVuSans-30" transform="translate(274.658203 0.78125)"/>
      </g>
     </g>
    </g>
    <g id="ytick_6">
     <g id="line2d_9">
      <g>
       <use xlink:href="#mf7525c8616" x="234.036" y="146.358621" style="stroke: #000000; stroke-width: 0.8"/>
      </g>
     </g>
     <g id="text_14">
      <!-- $\mathdefault{6425}$ -->
      <g transform="translate(241.036 150.157839) scale(0.1 -0.1)">
       <use xlink:href="#DejaVuSans-2212" transform="translate(0 0.78125)"/>
       <use xlink:href="#DejaVuSans-36" transform="translate(83.789062 0.78125)"/>
       <use xlink:href="#DejaVuSans-34" transform="translate(147.412109 0.78125)"/>
       <use xlink:href="#DejaVuSans-32" transform="translate(211.035156 0.78125)"/>
       <use xlink:href="#DejaVuSans-35" transform="translate(274.658203 0.78125)"/>
      </g>
     </g>
    </g>
    <g id="ytick_7">
     <g id="line2d_10">
      <g>
       <use xlink:href="#mf7525c8616" x="234.036" y="129.153103" style="stroke: #000000; stroke-width: 0.8"/>
      </g>
     </g>
     <g id="text_15">
      <!-- $\mathdefault{6350}$ -->
      <g transform="translate(241.036 132.952322) scale(0.1 -0.1)">
       <use xlink:href="#DejaVuSans-2212" transform="translate(0 0.78125)"/>
       <use xlink:href="#DejaVuSans-36" transform="translate(83.789062 0.78125)"/>
       <use xlink:href="#DejaVuSans-33" transform="translate(147.412109 0.78125)"/>
       <use xlink:href="#DejaVuSans-35" transform="translate(211.035156 0.78125)"/>
       <use xlink:href="#DejaVuSans-30" transform="translate(274.658203 0.78125)"/>
      </g>
     </g>
    </g>
    <g id="ytick_8">
     <g id="line2d_11">
      <g>
       <use xlink:href="#mf7525c8616" x="234.036" y="111.947586" style="stroke: #000000; stroke-width: 0.8"/>
      </g>
     </g>
     <g id="text_16">
      <!-- $\mathdefault{6275}$ -->
      <g transform="translate(241.036 115.746805) scale(0.1 -0.1)">
       <use xlink:href="#DejaVuSans-2212" transform="translate(0 0.78125)"/>
       <use xlink:href="#DejaVuSans-36" transform="translate(83.789062 0.78125)"/>
       <use xlink:href="#DejaVuSans-32" transform="translate(147.412109 0.78125)"/>
       <use xlink:href="#DejaVuSans-37" transform="translate(211.035156 0.78125)"/>
       <use xlink:href="#DejaVuSans-35" transform="translate(274.658203 0.78125)"/>
      </g>
     </g>
    </g>
    <g id="ytick_9">
     <g id="line2d_12">
      <g>
       <use xlink:href="#mf7525c8616" x="234.036" y="94.742069" style="stroke: #000000; stroke-width: 0.8"/>
      </g>
     </g>
     <g id="text_17">
      <!-- $\mathdefault{6200}$ -->
      <g transform="translate(241.036 98.541288) scale(0.1 -0.1)">
       <use xlink:href="#DejaVuSans-2212" transform="translate(0 0.78125)"/>
       <use xlink:href="#DejaVuSans-36" transform="translate(83.789062 0.78125)"/>
       <use xlink:href="#DejaVuSans-32" transform="translate(147.412109 0.78125)"/>
       <use xlink:href="#DejaVuSans-30" transform="translate(211.035156 0.78125)"/>
       <use xlink:href="#DejaVuSans-30" transform="translate(274.658203 0.78125)"/>
      </g>
     </g>
    </g>
    <g id="ytick_10">
     <g id="line2d_13">
      <g>
       <use xlink:href="#mf7525c8616" x="234.036" y="77.536552" style="stroke: #000000; stroke-width: 0.8"/>
      </g>
     </g>
     <g id="text_18">
      <!-- $\mathdefault{6125}$ -->
      <g transform="translate(241.036 81.33577) scale(0.1 -0.1)">
       <use xlink:href="#DejaVuSans-2212" transform="translate(0 0.78125)"/>
       <use xlink:href="#DejaVuSans-36" transform="translate(83.789062 0.78125)"/>
       <use xlink:href="#DejaVuSans-31" transform="translate(147.412109 0.78125)"/>
       <use xlink:href="#DejaVuSans-32" transform="translate(211.035156 0.78125)"/>
       <use xlink:href="#DejaVuSans-35" transform="translate(274.658203 0.78125)"/>
      </g>
     </g>
    </g>
    <g id="ytick_11">
     <g id="line2d_14">
      <g>
       <use xlink:href="#mf7525c8616" x="234.036" y="60.331034" style="stroke: #000000; stroke-width: 0.8"/>
      </g>
     </g>
     <g id="text_19">
      <!-- $\mathdefault{6050}$ -->
      <g transform="translate(241.036 64.130253) scale(0.1 -0.1)">
       <use xlink:href="#DejaVuSans-2212" transform="translate(0 0.78125)"/>
       <use xlink:href="#DejaVuSans-36" transform="translate(83.789062 0.78125)"/>
       <use xlink:href="#DejaVuSans-30" transform="translate(147.412109 0.78125)"/>
       <use xlink:href="#DejaVuSans-35" transform="translate(211.035156 0.78125)"/>
       <use xlink:href="#DejaVuSans-30" transform="translate(274.658203 0.78125)"/>
      </g>
     </g>
    </g>
    <g id="ytick_12">
     <g id="line2d_15">
      <g>
       <use xlink:href="#mf7525c8616" x="234.036" y="43.125517" style="stroke: #000000; stroke-width: 0.8"/>
      </g>
     </g>
     <g id="text_20">
      <!-- $\mathdefault{5975}$ -->
      <g transform="translate(241.036 46.924736) scale(0.1 -0.1)">
       <defs>
        <path id="DejaVuSans-39" d="M 703 97 
L 703 672 
Q 941 559 1184 500 
Q 1428 441 1663 441 
Q 2288 441 2617 861 
Q 2947 1281 2994 2138 
Q 2813 1869 2534 1725 
Q 2256 1581 1919 1581 
Q 1219 1581 811 2004 
Q 403 2428 403 3163 
Q 403 3881 828 4315 
Q 1253 4750 1959 4750 
Q 2769 4750 3195 4129 
Q 3622 3509 3622 2328 
Q 3622 1225 3098 567 
Q 2575 -91 1691 -91 
Q 1453 -91 1209 -44 
Q 966 3 703 97 
z
M 1959 2075 
Q 2384 2075 2632 2365 
Q 2881 2656 2881 3163 
Q 2881 3666 2632 3958 
Q 2384 4250 1959 4250 
Q 1534 4250 1286 3958 
Q 1038 3666 1038 3163 
Q 1038 2656 1286 2365 
Q 1534 2075 1959 2075 
z
" transform="scale(0.015625)"/>
       </defs>
       <use xlink:href="#DejaVuSans-2212" transform="translate(0 0.78125)"/>
       <use xlink:href="#DejaVuSans-35" transform="translate(83.789062 0.78125)"/>
       <use xlink:href="#DejaVuSans-39" transform="translate(141.912109 0.78125)"/>
       <use xlink:href="#DejaVuSans-37" transform="translate(205.535156 0.78125)"/>
       <use xlink:href="#DejaVuSans-35" transform="translate(269.158203 0.78125)"/>
      </g>
     </g>
    </g>
    <g id="ytick_13">
     <g id="line2d_16">
      <g>
       <use xlink:href="#mf7525c8616" x="234.036" y="25.92" style="stroke: #000000; stroke-width: 0.8"/>
      </g>
     </g>
     <g id="text_21">
      <!-- $\mathdefault{5900}$ -->
      <g transform="translate(241.036 29.719219) scale(0.1 -0.1)">
       <use xlink:href="#DejaVuSans-2212" transform="translate(0 0.78125)"/>
       <use xlink:href="#DejaVuSans-35" transform="translate(83.789062 0.78125)"/>
       <use xlink:href="#DejaVuSans-39" transform="translate(141.912109 0.78125)"/>
       <use xlink:href="#DejaVuSans-30" transform="translate(205.535156 0.78125)"/>
       <use xlink:href="#DejaVuSans-30" transform="translate(269.158203 0.78125)"/>
      </g>
     </g>
    </g>
    <g id="text_22">
     <!-- log likelihood -->
     <g transform="translate(288.054125 148.704375) rotate(-90) scale(0.12 -0.12)">
      <defs>
       <path id="DejaVuSans-67" d="M 2906 1791 
Q 2906 2416 2648 2759 
Q 2391 3103 1925 3103 
Q 1463 3103 1205 2759 
Q 947 2416 947 1791 
Q 947 1169 1205 825 
Q 1463 481 1925 481 
Q 2391 481 2648 825 
Q 2906 1169 2906 1791 
z
M 3481 434 
Q 3481 -459 3084 -895 
Q 2688 -1331 1869 -1331 
Q 1566 -1331 1297 -1286 
Q 1028 -1241 775 -1147 
L 775 -588 
Q 1028 -725 1275 -790 
Q 1522 -856 1778 -856 
Q 2344 -856 2625 -561 
Q 2906 -266 2906 331 
L 2906 616 
Q 2728 306 2450 153 
Q 2172 0 1784 0 
Q 1141 0 747 490 
Q 353 981 353 1791 
Q 353 2603 747 3093 
Q 1141 3584 1784 3584 
Q 2172 3584 2450 3431 
Q 2728 3278 2906 2969 
L 2906 3500 
L 3481 3500 
L 3481 434 
z
" transform="scale(0.015625)"/>
       <path id="DejaVuSans-6b" d="M 581 4863 
L 1159 4863 
L 1159 1991 
L 2875 3500 
L 3609 3500 
L 1753 1863 
L 3688 0 
L 2938 0 
L 1159 1709 
L 1159 0 
L 581 0 
L 581 4863 
z
" transform="scale(0.015625)"/>
       <path id="DejaVuSans-68" d="M 3513 2113 
L 3513 0 
L 2938 0 
L 2938 2094 
Q 2938 2591 2744 2837 
Q 2550 3084 2163 3084 
Q 1697 3084 1428 2787 
Q 1159 2491 1159 1978 
L 1159 0 
L 581 0 
L 581 4863 
L 1159 4863 
L 1159 2956 
Q 1366 3272 1645 3428 
Q 1925 3584 2291 3584 
Q 2894 3584 3203 3211 
Q 3513 2838 3513 2113 
z
" transform="scale(0.015625)"/>
      </defs>
      <use xlink:href="#DejaVuSans-6c"/>
      <use xlink:href="#DejaVuSans-6f" x="27.783203"/>
      <use xlink:href="#DejaVuSans-67" x="88.964844"/>
      <use xlink:href="#DejaVuSans-20" x="152.441406"/>
      <use xlink:href="#DejaVuSans-6c" x="184.228516"/>
      <use xlink:href="#DejaVuSans-69" x="212.011719"/>
      <use xlink:href="#DejaVuSans-6b" x="239.794922"/>
      <use xlink:href="#DejaVuSans-65" x="294.080078"/>
      <use xlink:href="#DejaVuSans-6c" x="355.603516"/>
      <use xlink:href="#DejaVuSans-69" x="383.386719"/>
      <use xlink:href="#DejaVuSans-68" x="411.169922"/>
      <use xlink:href="#DejaVuSans-6f" x="474.548828"/>
      <use xlink:href="#DejaVuSans-6f" x="535.730469"/>
      <use xlink:href="#DejaVuSans-64" x="596.912109"/>
     </g>
    </g>
    <g id="text_23">
     <!-- $\times\mathdefault{10^{3}}\mathdefault{}$ -->
     <g transform="translate(208.036 22.92) scale(0.1 -0.1)">
      <use xlink:href="#DejaVuSans-d7" transform="translate(0 0.765625)"/>
      <use xlink:href="#DejaVuSans-31" transform="translate(83.789062 0.765625)"/>
      <use xlink:href="#DejaVuSans-30" transform="translate(147.412109 0.765625)"/>
      <use xlink:href="#DejaVuSans-33" transform="translate(211.992188 39.046875) scale(0.7)"/>
     </g>
    </g>
   </g>
   <g id="LineCollection_1"/>
   <g id="patch_8">
    <path d="M 225.72 192.24 
L 229.878 192.24 
L 234.036 192.24 
L 234.036 25.92 
L 229.878 25.92 
L 225.72 25.92 
L 225.72 192.24 
z
" style="fill: none; stroke: #000000; stroke-width: 0.8; stroke-linejoin: miter; stroke-linecap: square"/>
   </g>
  </g>
 </g>
 <defs>
  <clipPath id="pba0e300405">
   <rect x="36" y="25.92" width="178.56" height="166.32"/>
  </clipPath>
  <clipPath id="p760f775ec7">
   <rect x="225.72" y="25.92" width="8.316" height="166.32"/>
  </clipPath>
 </defs>
</svg>
