<?xml version="1.0" encoding="utf-8" standalone="no"?>
<!DOCTYPE svg PUBLIC "-//W3C//DTD SVG 1.1//EN"
  "http://www.w3.org/Graphics/SVG/1.1/DTD/svg11.dtd">
<svg xmlns:xlink="http://www.w3.org/1999/xlink" width="288pt" height="216pt" viewBox="0 0 288 216" xmlns="http://www.w3.org/2000/svg" version="1.1">
 <metadata>
  <rdf:RDF xmlns:dc="http://purl.org/dc/elements/1.1/" xmlns:cc="http://creativecommons.org/ns#" xmlns:rdf="http://www.w3.org/1999/02/22-rdf-syntax-ns#">
   <cc:Work>
    <dc:type rdf:resource="http://purl.org/dc/dcmitype/StillImage"/>
    <dc:date>2024-12-14T18:10:13.456167</dc:date>
    <dc:format>image/svg+xml</dc:format>
    <dc:creator>
     <cc:Agent>
      <dc:title>Matplotlib v3.8.4, https://matplotlib.org/</dc:title>
     </cc:Agent>
    </dc:creator>
   </cc:Work>
  </rdf:RDF>
 </metadata>
 <defs>
  <style type="text/css">*{stroke-linejoin: round; stroke-linecap: butt}</style>
 </defs>
 <g id="figure_1">
  <g id="patch_1">
   <path d="M 0 216 
L 288 216 
L 288 0 
L 0 0 
z
" style="fill: #ffffff"/>
  </g>
  <g id="axes_1">
   <g id="patch_2">
    <path d="M 36 192.24 
L 214.56 192.24 
L 214.56 25.92 
L 36 25.92 
z
" style="fill: #ffffff"/>
   </g>
   <g id="QuadContourSet_1">
    <path d="M 58.317331 147.888 
L 57.100568 142.344 
L 57.86084 136.8 
L 59.808 134.157322 
L 65.76 136.498172 
L 66.051611 136.8 
L 71.306603 142.344 
L 71.712 142.82888 
L 74.794628 147.888 
L 77.098075 153.432 
L 71.938977 158.976 
L 71.712 159.015255 
L 71.570355 158.976 
L 65.76 156.667735 
L 61.864123 153.432 
L 59.808 151.091413 
z
" clip-path="url(#pa200a4d33e)" style="fill: #e7e419"/>
    <path d="M 53.476639 142.344 
L 53.239218 136.8 
L 53.856 131.428769 
L 53.949809 131.256 
L 59.808 127.696928 
L 65.76 131.195472 
L 65.817401 131.256 
L 71.189384 136.8 
L 71.712 137.338855 
L 75.56255 142.344 
L 77.664 145.261619 
L 79.382208 147.888 
L 82.061457 153.432 
L 82.511956 158.976 
L 77.664 162.469388 
L 71.712 162.471776 
L 65.76 160.367508 
L 63.667393 158.976 
L 59.808 155.646762 
L 58.176593 153.432 
L 55.157188 147.888 
L 53.856 144.285621 
z
M 59.808 151.091413 
L 61.864123 153.432 
L 65.76 156.667735 
L 71.570355 158.976 
L 71.712 159.015255 
L 71.938977 158.976 
L 77.098075 153.432 
L 74.794628 147.888 
L 71.712 142.82888 
L 71.306603 142.344 
L 66.051611 136.8 
L 65.76 136.498172 
L 59.808 134.157322 
L 57.86084 136.8 
L 57.100568 142.344 
L 58.317331 147.888 
z
" clip-path="url(#pa200a4d33e)" style="fill: #b2dd2d"/>
    <path d="M 52.972201 147.888 
L 51.767239 142.344 
L 51.287975 136.8 
L 51.641798 131.256 
L 52.985805 125.712 
L 53.856 123.642539 
L 59.808 122.752948 
L 63.925137 125.712 
L 65.76 126.93762 
L 69.855291 131.256 
L 71.712 133.13307 
L 74.722151 136.8 
L 77.664 140.3728 
L 79.163519 142.344 
L 83.083878 147.888 
L 83.616 148.866325 
L 86.036724 153.432 
L 87.437523 158.976 
L 84.439802 164.52 
L 83.616 164.891351 
L 77.664 165.877376 
L 71.712 165.301583 
L 69.290344 164.52 
L 65.76 162.972645 
L 59.808 159.006492 
L 59.77803 158.976 
L 55.6872 153.432 
L 53.856 150.351463 
z
M 53.856 144.285621 
L 55.157188 147.888 
L 58.176593 153.432 
L 59.808 155.646762 
L 63.667393 158.976 
L 65.76 160.367508 
L 71.712 162.471776 
L 77.664 162.469388 
L 82.511956 158.976 
L 82.061457 153.432 
L 79.382208 147.888 
L 77.664 145.261619 
L 75.56255 142.344 
L 71.712 137.338855 
L 71.189384 136.8 
L 65.817401 131.256 
L 65.76 131.195472 
L 59.808 127.696928 
L 53.949809 131.256 
L 53.856 131.428769 
L 53.239218 136.8 
L 53.476639 142.344 
z
" clip-path="url(#pa200a4d33e)" style="fill: #7fd34e"/>
    <path d="M 53.506006 153.432 
L 51.469782 147.888 
L 50.057839 142.344 
L 49.336731 136.8 
L 49.404852 131.256 
L 50.406724 125.712 
L 52.55733 120.168 
L 53.856 117.975406 
L 59.808 118.411798 
L 61.93632 120.168 
L 65.76 123.071165 
L 68.167511 125.712 
L 71.712 129.370911 
L 73.270937 131.256 
L 77.664 136.388317 
L 77.993221 136.8 
L 82.259413 142.344 
L 83.616 144.220738 
L 86.213057 147.888 
L 89.568 153.326965 
L 89.633949 153.432 
L 91.529755 158.976 
L 90.514229 164.52 
L 89.568 165.271221 
L 83.616 167.791684 
L 77.664 168.213056 
L 71.712 167.2199 
L 65.76 165.169506 
L 64.607888 164.52 
L 59.808 161.054893 
L 57.764647 158.976 
L 53.856 154.096553 
z
M 53.856 150.351463 
L 55.6872 153.432 
L 59.77803 158.976 
L 59.808 159.006492 
L 65.76 162.972645 
L 69.290344 164.52 
L 71.712 165.301583 
L 77.664 165.877376 
L 83.616 164.891351 
L 84.439802 164.52 
L 87.437523 158.976 
L 86.036724 153.432 
L 83.616 148.866325 
L 83.083878 147.888 
L 79.163519 142.344 
L 77.664 140.3728 
L 74.722151 136.8 
L 71.712 133.13307 
L 69.855291 131.256 
L 65.76 126.93762 
L 63.925137 125.712 
L 59.808 122.752948 
L 53.856 123.642539 
L 52.985805 125.712 
L 51.641798 131.256 
L 51.287975 136.8 
L 51.767239 142.344 
L 52.972201 147.888 
z
" clip-path="url(#pa200a4d33e)" style="fill: #54c568"/>
    <path d="M 47.672034 136.8 
L 47.59914 131.256 
L 47.874958 125.712 
L 47.904 125.430433 
L 49.561628 120.168 
L 52.670594 114.624 
L 53.856 113.117306 
L 59.808 114.401386 
L 60.049985 114.624 
L 65.76 119.432209 
L 66.399178 120.168 
L 71.548131 125.712 
L 71.712 125.881159 
L 76.156904 131.256 
L 77.664 133.016706 
L 80.689485 136.8 
L 83.616 140.453115 
L 85.104966 142.344 
L 89.246123 147.888 
L 89.568 148.40982 
L 92.721277 153.432 
L 95.209668 158.976 
L 95.176322 164.52 
L 89.568 168.972508 
L 86.136006 170.064 
L 83.616 170.394726 
L 77.664 170.342769 
L 75.874137 170.064 
L 71.712 169.138216 
L 65.76 166.769131 
L 61.770429 164.52 
L 59.808 163.103295 
L 55.751265 158.976 
L 53.856 156.610004 
L 52.182268 153.432 
L 49.967363 147.888 
L 48.348439 142.344 
L 47.904 139.602249 
z
M 53.856 154.096553 
L 57.764647 158.976 
L 59.808 161.054893 
L 64.607888 164.52 
L 65.76 165.169506 
L 71.712 167.2199 
L 77.664 168.213056 
L 83.616 167.791684 
L 89.568 165.271221 
L 90.514229 164.52 
L 91.529755 158.976 
L 89.633949 153.432 
L 89.568 153.326965 
L 86.213057 147.888 
L 83.616 144.220738 
L 82.259413 142.344 
L 77.993221 136.8 
L 77.664 136.388317 
L 73.270937 131.256 
L 71.712 129.370911 
L 68.167511 125.712 
L 65.76 123.071165 
L 61.93632 120.168 
L 59.808 118.411798 
L 53.856 117.975406 
L 52.55733 120.168 
L 50.406724 125.712 
L 49.404852 131.256 
L 49.336731 136.8 
L 50.057839 142.344 
L 51.469782 147.888 
L 53.506006 153.432 
z
" clip-path="url(#pa200a4d33e)" style="fill: #31b57b"/>
    <path d="M 47.296914 142.344 
L 46.799109 136.8 
L 46.672689 131.256 
L 46.894029 125.712 
L 47.441105 120.168 
L 47.904 117.085199 
L 49.156964 114.624 
L 53.455334 109.08 
L 53.856 108.685649 
L 54.927382 109.08 
L 59.808 110.698866 
L 64.07469 114.624 
L 65.76 116.043143 
L 69.343245 120.168 
L 71.712 122.708055 
L 74.15046 125.712 
L 77.664 129.823285 
L 78.817149 131.256 
L 83.385749 136.8 
L 83.616 137.087418 
L 87.755262 142.344 
L 89.568 144.74724 
L 91.975748 147.888 
L 95.52 153.064255 
L 95.782264 153.432 
L 98.479434 158.976 
L 99.112344 164.52 
L 95.52 169.077109 
L 94.20174 170.064 
L 89.568 171.291211 
L 83.616 171.922099 
L 77.664 171.686006 
L 71.712 170.676264 
L 69.759424 170.064 
L 65.76 168.368756 
L 59.808 164.936644 
L 59.296035 164.52 
L 53.856 159.07351 
L 53.787448 158.976 
L 50.858531 153.432 
L 48.464944 147.888 
L 47.904 146.02885 
z
M 47.904 139.602249 
L 48.348439 142.344 
L 49.967363 147.888 
L 52.182268 153.432 
L 53.856 156.610004 
L 55.751265 158.976 
L 59.808 163.103295 
L 61.770429 164.52 
L 65.76 166.769131 
L 71.712 169.138216 
L 75.874137 170.064 
L 77.664 170.342769 
L 83.616 170.394726 
L 86.136006 170.064 
L 89.568 168.972508 
L 95.176322 164.52 
L 95.209668 158.976 
L 92.721277 153.432 
L 89.568 148.40982 
L 89.246123 147.888 
L 85.104966 142.344 
L 83.616 140.453115 
L 80.689485 136.8 
L 77.664 133.016706 
L 76.156904 131.256 
L 71.712 125.881159 
L 71.548131 125.712 
L 66.399178 120.168 
L 65.76 119.432209 
L 60.049985 114.624 
L 59.808 114.401386 
L 53.856 113.117306 
L 52.670594 114.624 
L 49.561628 120.168 
L 47.904 125.430433 
L 47.874958 125.712 
L 47.59914 131.256 
L 47.672034 136.8 
z
" clip-path="url(#pa200a4d33e)" style="fill: #1fa287"/>
    <path d="M 47.325443 147.888 
L 46.476529 142.344 
L 45.926184 136.8 
L 45.746237 131.256 
L 45.913099 125.712 
L 46.404767 120.168 
L 47.200982 114.624 
L 47.904 110.958894 
L 49.280879 109.08 
L 53.856 104.57699 
L 59.808 107.110931 
L 61.758555 109.08 
L 65.76 112.767445 
L 67.290645 114.624 
L 71.712 119.590018 
L 72.166381 120.168 
L 76.713141 125.712 
L 77.664 126.824625 
L 81.230682 131.256 
L 83.616 134.135369 
L 85.791097 136.8 
L 89.568 141.423892 
L 90.331001 142.344 
L 94.669348 147.888 
L 95.52 149.130347 
L 98.587806 153.432 
L 101.472 158.603352 
L 101.692753 158.976 
L 102.826867 164.52 
L 101.472 167.256679 
L 99.481491 170.064 
L 95.52 171.653915 
L 89.568 173.031677 
L 83.616 173.449472 
L 77.664 173.029242 
L 71.712 171.859617 
L 65.985586 170.064 
L 65.76 169.96838 
L 59.808 166.287694 
L 57.635887 164.52 
L 53.856 160.735628 
L 52.618942 158.976 
L 49.534794 153.432 
L 47.904 149.757196 
z
M 47.904 146.02885 
L 48.464944 147.888 
L 50.858531 153.432 
L 53.787448 158.976 
L 53.856 159.07351 
L 59.296035 164.52 
L 59.808 164.936644 
L 65.76 168.368756 
L 69.759424 170.064 
L 71.712 170.676264 
L 77.664 171.686006 
L 83.616 171.922099 
L 89.568 171.291211 
L 94.20174 170.064 
L 95.52 169.077109 
L 99.112344 164.52 
L 98.479434 158.976 
L 95.782264 153.432 
L 95.52 153.064255 
L 91.975748 147.888 
L 89.568 144.74724 
L 87.755262 142.344 
L 83.616 137.087418 
L 83.385749 136.8 
L 78.817149 131.256 
L 77.664 129.823285 
L 74.15046 125.712 
L 71.712 122.708055 
L 69.343245 120.168 
L 65.76 116.043143 
L 64.07469 114.624 
L 59.808 110.698866 
L 54.927382 109.08 
L 53.856 108.685649 
L 53.455334 109.08 
L 49.156964 114.624 
L 47.904 117.085199 
L 47.441105 120.168 
L 46.894029 125.712 
L 46.672689 131.256 
L 46.799109 136.8 
L 47.296914 142.344 
z
" clip-path="url(#pa200a4d33e)" style="fill: #21908d"/>
    <path d="M 46.402175 147.888 
L 45.656145 142.344 
L 45.05326 136.8 
L 44.819786 131.256 
L 44.932169 125.712 
L 45.368429 120.168 
L 46.108319 114.624 
L 47.133378 109.08 
L 47.904 105.711593 
L 50.088271 103.536 
L 53.856 100.636621 
L 59.639693 103.536 
L 59.808 103.612022 
L 65.224565 109.08 
L 65.76 109.573418 
L 69.923975 114.624 
L 71.712 116.63229 
L 74.491602 120.168 
L 77.664 123.962666 
L 79.049807 125.712 
L 83.616 131.224902 
L 83.64143 131.256 
L 88.169283 136.8 
L 89.568 138.512386 
L 92.745374 142.344 
L 95.52 145.819077 
L 97.234026 147.888 
L 101.393348 153.432 
L 101.472 153.573022 
L 104.672678 158.976 
L 106.287003 164.52 
L 103.981472 170.064 
L 101.472 171.428954 
L 95.52 173.642792 
L 89.568 174.772143 
L 83.616 174.976845 
L 77.664 174.372478 
L 71.712 173.04297 
L 65.76 171.04584 
L 63.714087 170.064 
L 59.808 167.638744 
L 55.97574 164.52 
L 53.856 162.397745 
L 51.450435 158.976 
L 48.211057 153.432 
L 47.904 152.740083 
z
M 47.904 149.757196 
L 49.534794 153.432 
L 52.618942 158.976 
L 53.856 160.735628 
L 57.635887 164.52 
L 59.808 166.287694 
L 65.76 169.96838 
L 65.985586 170.064 
L 71.712 171.859617 
L 77.664 173.029242 
L 83.616 173.449472 
L 89.568 173.031677 
L 95.52 171.653915 
L 99.481491 170.064 
L 101.472 167.256679 
L 102.826867 164.52 
L 101.692753 158.976 
L 101.472 158.603352 
L 98.587806 153.432 
L 95.52 149.130347 
L 94.669348 147.888 
L 90.331001 142.344 
L 89.568 141.423892 
L 85.791097 136.8 
L 83.616 134.135369 
L 81.230682 131.256 
L 77.664 126.824625 
L 76.713141 125.712 
L 72.166381 120.168 
L 71.712 119.590018 
L 67.290645 114.624 
L 65.76 112.767445 
L 61.758555 109.08 
L 59.808 107.110931 
L 53.856 104.57699 
L 49.280879 109.08 
L 47.904 110.958894 
L 47.200982 114.624 
L 46.404767 120.168 
L 45.913099 125.712 
L 45.746237 131.256 
L 45.926184 136.8 
L 46.476529 142.344 
L 47.325443 147.888 
z
" clip-path="url(#pa200a4d33e)" style="fill: #277e8e"/>
    <path d="M 46.90764 153.432 
L 45.478907 147.888 
L 44.835761 142.344 
L 44.180335 136.8 
L 43.893334 131.256 
L 43.951239 125.712 
L 44.332092 120.168 
L 45.015657 114.624 
L 45.983479 109.08 
L 47.134555 103.536 
L 47.904 100.917254 
L 51.862826 97.992 
L 53.856 96.799128 
L 55.783337 97.992 
L 59.808 100.237697 
L 62.815098 103.536 
L 65.76 106.48094 
L 67.790124 109.08 
L 71.712 113.713425 
L 72.4001 114.624 
L 76.816823 120.168 
L 77.664 121.181351 
L 81.253141 125.712 
L 83.616 128.564751 
L 85.816747 131.256 
L 89.568 135.731185 
L 90.476871 136.8 
L 95.159746 142.344 
L 95.52 142.795199 
L 99.739196 147.888 
L 101.472 150.193004 
L 104.042607 153.432 
L 107.424 158.66218 
L 107.641362 158.976 
L 109.584765 164.52 
L 108.100426 170.064 
L 107.424 170.535258 
L 101.472 173.710236 
L 95.603947 175.608 
L 95.52 175.625218 
L 89.568 176.271974 
L 83.616 176.346191 
L 77.664 175.721987 
L 77.281488 175.608 
L 71.712 174.226323 
L 65.76 172.090103 
L 61.538102 170.064 
L 59.808 168.989795 
L 54.315592 164.52 
L 53.856 164.059863 
L 50.281928 158.976 
L 47.904 154.951059 
z
M 47.904 152.740083 
L 48.211057 153.432 
L 51.450435 158.976 
L 53.856 162.397745 
L 55.97574 164.52 
L 59.808 167.638744 
L 63.714087 170.064 
L 65.76 171.04584 
L 71.712 173.04297 
L 77.664 174.372478 
L 83.616 174.976845 
L 89.568 174.772143 
L 95.52 173.642792 
L 101.472 171.428954 
L 103.981472 170.064 
L 106.287003 164.52 
L 104.672678 158.976 
L 101.472 153.573022 
L 101.393348 153.432 
L 97.234026 147.888 
L 95.52 145.819077 
L 92.745374 142.344 
L 89.568 138.512386 
L 88.169283 136.8 
L 83.64143 131.256 
L 83.616 131.224902 
L 79.049807 125.712 
L 77.664 123.962666 
L 74.491602 120.168 
L 71.712 116.63229 
L 69.923975 114.624 
L 65.76 109.573418 
L 65.224565 109.08 
L 59.808 103.612022 
L 59.639693 103.536 
L 53.856 100.636621 
L 50.088271 103.536 
L 47.904 105.711593 
L 47.133378 109.08 
L 46.108319 114.624 
L 45.368429 120.168 
L 44.932169 125.712 
L 44.819786 131.256 
L 45.05326 136.8 
L 45.656145 142.344 
L 46.402175 147.888 
z
" clip-path="url(#pa200a4d33e)" style="fill: #2f6b8e"/>
    <path d="M 45.610361 153.432 
L 44.555639 147.888 
L 44.015377 142.344 
L 43.30741 136.8 
L 42.966883 131.256 
L 42.970309 125.712 
L 43.295754 120.168 
L 43.922994 114.624 
L 44.83358 109.08 
L 45.777874 103.536 
L 47.219484 97.992 
L 47.904 96.395622 
L 53.856 93.059355 
L 59.808 96.891786 
L 60.737534 97.992 
L 65.76 103.409997 
L 65.853193 103.536 
L 70.191164 109.08 
L 71.712 110.876762 
L 74.543699 114.624 
L 77.664 118.482878 
L 78.961474 120.168 
L 83.456475 125.712 
L 83.616 125.904599 
L 87.992065 131.256 
L 89.568 133.136066 
L 92.68364 136.8 
L 95.52 140.135866 
L 97.462581 142.344 
L 101.472 147.05999 
L 102.211723 147.888 
L 106.687357 153.432 
L 107.424 154.571404 
L 110.474764 158.976 
L 112.803056 164.52 
L 111.87501 170.064 
L 107.424 173.164967 
L 102.384037 175.608 
L 101.472 175.91991 
L 95.52 177.07201 
L 89.568 177.549459 
L 83.616 177.604248 
L 77.664 177.143447 
L 72.511438 175.608 
L 71.712 175.409676 
L 65.76 173.134366 
L 59.808 170.439554 
L 59.404808 170.064 
L 53.856 165.651527 
L 52.641201 164.52 
L 49.113422 158.976 
L 47.904 156.928903 
z
M 47.904 154.951059 
L 50.281928 158.976 
L 53.856 164.059863 
L 54.315592 164.52 
L 59.808 168.989795 
L 61.538102 170.064 
L 65.76 172.090103 
L 71.712 174.226323 
L 77.281488 175.608 
L 77.664 175.721987 
L 83.616 176.346191 
L 89.568 176.271974 
L 95.52 175.625218 
L 95.603947 175.608 
L 101.472 173.710236 
L 107.424 170.535258 
L 108.100426 170.064 
L 109.584765 164.52 
L 107.641362 158.976 
L 107.424 158.66218 
L 104.042607 153.432 
L 101.472 150.193004 
L 99.739196 147.888 
L 95.52 142.795199 
L 95.159746 142.344 
L 90.476871 136.8 
L 89.568 135.731185 
L 85.816747 131.256 
L 83.616 128.564751 
L 81.253141 125.712 
L 77.664 121.181351 
L 76.816823 120.168 
L 72.4001 114.624 
L 71.712 113.713425 
L 67.790124 109.08 
L 65.76 106.48094 
L 62.815098 103.536 
L 59.808 100.237697 
L 55.783337 97.992 
L 53.856 96.799128 
L 51.862826 97.992 
L 47.904 100.917254 
L 47.134555 103.536 
L 45.983479 109.08 
L 45.015657 114.624 
L 44.332092 120.168 
L 43.951239 125.712 
L 43.893334 131.256 
L 44.180335 136.8 
L 44.835761 142.344 
L 45.478907 147.888 
L 46.90764 153.432 
z
" clip-path="url(#pa200a4d33e)" style="fill: #39568c"/>
    <path d="M 44.313081 153.432 
L 43.632371 147.888 
L 43.194993 142.344 
L 42.434485 136.8 
L 42.040431 131.256 
L 41.98938 125.712 
L 42.259416 120.168 
L 42.830331 114.624 
L 43.683682 109.08 
L 44.421193 103.536 
L 45.351598 97.992 
L 47.612339 92.448 
L 47.904 92.055354 
L 53.856 89.393901 
L 58.056729 92.448 
L 59.808 93.59703 
L 63.521161 97.992 
L 65.76 100.407153 
L 68.07412 103.536 
L 71.712 108.066133 
L 72.70987 109.08 
L 76.687298 114.624 
L 77.664 115.831888 
L 81.002627 120.168 
L 83.616 123.382859 
L 85.625397 125.712 
L 89.568 130.52704 
L 90.350606 131.256 
L 94.890409 136.8 
L 95.52 137.540467 
L 99.745853 142.344 
L 101.472 144.374342 
L 104.611013 147.888 
L 107.424 151.32004 
L 109.266783 153.432 
L 113.308166 158.976 
L 113.376 159.132906 
L 115.903941 164.52 
L 115.500311 170.064 
L 113.376 171.90189 
L 107.752648 175.608 
L 107.424 175.816117 
L 101.472 177.775244 
L 95.52 178.518802 
L 89.568 178.826945 
L 83.616 178.862305 
L 77.664 178.564907 
L 71.712 177.347858 
L 69.461185 175.608 
L 65.76 174.178628 
L 59.808 172.27232 
L 57.437163 170.064 
L 53.856 167.21622 
L 50.961357 164.52 
L 47.944915 158.976 
L 47.904 158.906746 
z
M 47.904 156.928903 
L 49.113422 158.976 
L 52.641201 164.52 
L 53.856 165.651527 
L 59.404808 170.064 
L 59.808 170.439554 
L 65.76 173.134366 
L 71.712 175.409676 
L 72.511438 175.608 
L 77.664 177.143447 
L 83.616 177.604248 
L 89.568 177.549459 
L 95.52 177.07201 
L 101.472 175.91991 
L 102.384037 175.608 
L 107.424 173.164967 
L 111.87501 170.064 
L 112.803056 164.52 
L 110.474764 158.976 
L 107.424 154.571404 
L 106.687357 153.432 
L 102.211723 147.888 
L 101.472 147.05999 
L 97.462581 142.344 
L 95.52 140.135866 
L 92.68364 136.8 
L 89.568 133.136066 
L 87.992065 131.256 
L 83.616 125.904599 
L 83.456475 125.712 
L 78.961474 120.168 
L 77.664 118.482878 
L 74.543699 114.624 
L 71.712 110.876762 
L 70.191164 109.08 
L 65.853193 103.536 
L 65.76 103.409997 
L 60.737534 97.992 
L 59.808 96.891786 
L 53.856 93.059355 
L 47.904 96.395622 
L 47.219484 97.992 
L 45.777874 103.536 
L 44.83358 109.08 
L 43.922994 114.624 
L 43.295754 120.168 
L 42.970309 125.712 
L 42.966883 131.256 
L 43.30741 136.8 
L 44.015377 142.344 
L 44.555639 147.888 
L 45.610361 153.432 
z
" clip-path="url(#pa200a4d33e)" style="fill: #424186"/>
    <path d="M 39.851322 136.8 
L 38.830142 131.256 
L 38.739064 125.712 
L 39.203904 120.168 
L 40.803076 114.624 
L 41.952 113.075095 
L 42.533783 109.08 
L 43.064512 103.536 
L 43.483713 97.992 
L 44.502306 92.448 
L 47.904 87.868489 
L 50.404332 86.904 
L 53.856 85.3548 
L 55.519211 86.904 
L 59.808 89.993975 
L 62.442624 92.448 
L 65.76 96.923785 
L 66.906829 97.992 
L 70.295048 103.536 
L 71.712 105.300484 
L 75.431882 109.08 
L 77.664 112.412056 
L 80.038728 114.624 
L 83.043779 120.168 
L 83.616 120.871921 
L 87.791632 125.712 
L 89.568 127.88145 
L 93.190893 131.256 
L 95.52 134.218236 
L 98.291764 136.8 
L 101.472 141.072649 
L 102.836914 142.344 
L 107.010303 147.888 
L 107.424 148.392739 
L 111.82099 153.432 
L 113.376 155.561653 
L 116.610539 158.976 
L 118.979396 164.52 
L 119.02706 170.064 
L 113.376 174.953124 
L 112.382345 175.608 
L 107.424 178.747881 
L 101.472 179.630579 
L 95.52 179.965594 
L 89.568 180.10443 
L 83.616 180.120362 
L 77.664 179.986367 
L 71.712 179.438017 
L 66.757194 175.608 
L 65.76 175.222891 
L 59.808 174.105086 
L 55.469518 170.064 
L 53.856 168.780913 
L 49.281514 164.52 
L 47.904 161.973113 
L 44.68632 158.976 
L 43.015802 153.432 
L 42.709103 147.888 
L 42.374609 142.344 
L 41.952 139.376552 
z
M 47.904 158.906746 
L 47.944915 158.976 
L 50.961357 164.52 
L 53.856 167.21622 
L 57.437163 170.064 
L 59.808 172.27232 
L 65.76 174.178628 
L 69.461185 175.608 
L 71.712 177.347858 
L 77.664 178.564907 
L 83.616 178.862305 
L 89.568 178.826945 
L 95.52 178.518802 
L 101.472 177.775244 
L 107.424 175.816117 
L 107.752648 175.608 
L 113.376 171.90189 
L 115.500311 170.064 
L 115.903941 164.52 
L 113.376 159.132906 
L 113.308166 158.976 
L 109.266783 153.432 
L 107.424 151.32004 
L 104.611013 147.888 
L 101.472 144.374342 
L 99.745853 142.344 
L 95.52 137.540467 
L 94.890409 136.8 
L 90.350606 131.256 
L 89.568 130.52704 
L 85.625397 125.712 
L 83.616 123.382859 
L 81.002627 120.168 
L 77.664 115.831888 
L 76.687298 114.624 
L 72.70987 109.08 
L 71.712 108.066133 
L 68.07412 103.536 
L 65.76 100.407153 
L 63.521161 97.992 
L 59.808 93.59703 
L 58.056729 92.448 
L 53.856 89.393901 
L 47.904 92.055354 
L 47.612339 92.448 
L 45.351598 97.992 
L 44.421193 103.536 
L 43.683682 109.08 
L 42.830331 114.624 
L 42.259416 120.168 
L 41.98938 125.712 
L 42.040431 131.256 
L 42.434485 136.8 
L 43.194993 142.344 
L 43.632371 147.888 
L 44.313081 153.432 
z
" clip-path="url(#pa200a4d33e)" style="fill: #482979"/>
    <path d="M 36 186.696 
L 36 181.152 
L 36 175.608 
L 36 170.064 
L 36 164.52 
L 36 158.976 
L 36 153.432 
L 36 147.888 
L 36 142.344 
L 36 136.8 
L 36 131.256 
L 36 125.712 
L 36 120.168 
L 36 114.624 
L 36 109.08 
L 36 103.536 
L 36 97.992 
L 36 92.448 
L 36 86.904 
L 36 81.36 
L 36 75.816 
L 36 70.272 
L 36 64.728 
L 36 59.184 
L 36 53.64 
L 36 48.096 
L 36 42.552 
L 36 37.008 
L 36 31.464 
L 36 25.92 
L 41.952 25.92 
L 47.904 25.92 
L 53.856 25.92 
L 59.808 25.92 
L 65.76 25.92 
L 71.712 25.92 
L 77.664 25.92 
L 83.616 25.92 
L 89.568 25.92 
L 95.52 25.92 
L 101.472 25.92 
L 107.424 25.92 
L 113.376 25.92 
L 119.328 25.92 
L 125.28 25.92 
L 131.232 25.92 
L 137.184 25.92 
L 143.136 25.92 
L 149.088 25.92 
L 155.04 25.92 
L 160.992 25.92 
L 166.944 25.92 
L 172.896 25.92 
L 178.848 25.92 
L 184.8 25.92 
L 190.752 25.92 
L 196.704 25.92 
L 202.656 25.92 
L 208.608 25.92 
L 214.56 25.92 
L 214.56 31.464 
L 214.56 37.008 
L 214.56 42.552 
L 214.56 48.096 
L 214.56 53.64 
L 214.56 59.184 
L 214.56 64.728 
L 214.56 70.272 
L 214.56 75.816 
L 214.56 81.36 
L 214.56 86.904 
L 214.56 92.448 
L 214.56 97.992 
L 214.56 103.536 
L 214.56 109.08 
L 214.56 114.624 
L 214.56 120.168 
L 214.56 125.712 
L 214.56 131.256 
L 214.56 136.8 
L 214.56 142.344 
L 214.56 147.888 
L 214.56 153.432 
L 214.56 158.976 
L 214.56 164.52 
L 214.56 170.064 
L 214.56 175.608 
L 214.56 181.152 
L 214.56 186.696 
L 214.56 192.24 
L 208.608 192.24 
L 202.656 192.24 
L 196.704 192.24 
L 190.752 192.24 
L 184.8 192.24 
L 178.848 192.24 
L 172.896 192.24 
L 166.944 192.24 
L 160.992 192.24 
L 155.04 192.24 
L 149.088 192.24 
L 143.136 192.24 
L 137.184 192.24 
L 131.232 192.24 
L 125.28 192.24 
L 119.328 192.24 
L 113.376 192.24 
L 107.424 192.24 
L 101.472 192.24 
L 95.52 192.24 
L 89.568 192.24 
L 83.616 192.24 
L 77.664 192.24 
L 71.712 192.24 
L 65.76 192.24 
L 59.808 192.24 
L 53.856 192.24 
L 47.904 192.24 
L 41.952 192.24 
L 36 192.24 
z
M 41.952 139.376552 
L 42.374609 142.344 
L 42.709103 147.888 
L 43.015802 153.432 
L 44.68632 158.976 
L 47.904 161.973113 
L 49.281514 164.52 
L 53.856 168.780913 
L 55.469518 170.064 
L 59.808 174.105086 
L 65.76 175.222891 
L 66.757194 175.608 
L 71.712 179.438017 
L 77.664 179.986367 
L 83.616 180.120362 
L 89.568 180.10443 
L 95.52 179.965594 
L 101.472 179.630579 
L 107.424 178.747881 
L 112.382345 175.608 
L 113.376 174.953124 
L 119.02706 170.064 
L 118.979396 164.52 
L 116.610539 158.976 
L 113.376 155.561653 
L 111.82099 153.432 
L 107.424 148.392739 
L 107.010303 147.888 
L 102.836914 142.344 
L 101.472 141.072649 
L 98.291764 136.8 
L 95.52 134.218236 
L 93.190893 131.256 
L 89.568 127.88145 
L 87.791632 125.712 
L 83.616 120.871921 
L 83.043779 120.168 
L 80.038728 114.624 
L 77.664 112.412056 
L 75.431882 109.08 
L 71.712 105.300484 
L 70.295048 103.536 
L 66.906829 97.992 
L 65.76 96.923785 
L 62.442624 92.448 
L 59.808 89.993975 
L 55.519211 86.904 
L 53.856 85.3548 
L 50.404332 86.904 
L 47.904 87.868489 
L 44.502306 92.448 
L 43.483713 97.992 
L 43.064512 103.536 
L 42.533783 109.08 
L 41.952 113.075095 
L 40.803076 114.624 
L 39.203904 120.168 
L 38.739064 125.712 
L 38.830142 131.256 
L 39.851322 136.8 
z
" clip-path="url(#pa200a4d33e)" style="fill: #470e61"/>
   </g>
   <g id="PathCollection_1">
    <defs>
     <path id="me1d5816b8b" d="M -4.743416 4.743416 
L 4.743416 -4.743416 
M -4.743416 -4.743416 
L 4.743416 4.743416 
" style="stroke: #ffffff; stroke-width: 5"/>
    </defs>
    <g clip-path="url(#pa200a4d33e)">
     <use xlink:href="#me1d5816b8b" x="65.76" y="146.04" style="fill: #ffffff; stroke: #ffffff; stroke-width: 5"/>
    </g>
   </g>
   <g id="PathCollection_2">
    <defs>
     <path id="m6e1bd1e442" d="M -4.330127 4.330127 
L 4.330127 -4.330127 
M -4.330127 -4.330127 
L 4.330127 4.330127 
" style="stroke: #000000; stroke-width: 2"/>
    </defs>
    <g clip-path="url(#pa200a4d33e)">
     <use xlink:href="#m6e1bd1e442" x="65.76" y="146.04" style="stroke: #000000; stroke-width: 2"/>
    </g>
   </g>
   <g id="matplotlib.axis_1">
    <g id="xtick_1">
     <g id="line2d_1">
      <defs>
       <path id="mdaca3c359d" d="M 0 0 
L 0 6 
" style="stroke: #000000; stroke-width: 2"/>
      </defs>
      <g>
       <use xlink:href="#mdaca3c359d" x="65.76" y="192.24" style="stroke: #000000; stroke-width: 2"/>
      </g>
     </g>
     <g id="text_1">
      <!-- $\mathdefault{200}$ -->
      <g transform="translate(52.39 212.377813) scale(0.14 -0.14)">
       <defs>
        <path id="DejaVuSans-32" d="M 1228 531 
L 3431 531 
L 3431 0 
L 469 0 
L 469 531 
Q 828 903 1448 1529 
Q 2069 2156 2228 2338 
Q 2531 2678 2651 2914 
Q 2772 3150 2772 3378 
Q 2772 3750 2511 3984 
Q 2250 4219 1831 4219 
Q 1534 4219 1204 4116 
Q 875 4013 500 3803 
L 500 4441 
Q 881 4594 1212 4672 
Q 1544 4750 1819 4750 
Q 2544 4750 2975 4387 
Q 3406 4025 3406 3419 
Q 3406 3131 3298 2873 
Q 3191 2616 2906 2266 
Q 2828 2175 2409 1742 
Q 1991 1309 1228 531 
z
" transform="scale(0.015625)"/>
        <path id="DejaVuSans-30" d="M 2034 4250 
Q 1547 4250 1301 3770 
Q 1056 3291 1056 2328 
Q 1056 1369 1301 889 
Q 1547 409 2034 409 
Q 2525 409 2770 889 
Q 3016 1369 3016 2328 
Q 3016 3291 2770 3770 
Q 2525 4250 2034 4250 
z
M 2034 4750 
Q 2819 4750 3233 4129 
Q 3647 3509 3647 2328 
Q 3647 1150 3233 529 
Q 2819 -91 2034 -91 
Q 1250 -91 836 529 
Q 422 1150 422 2328 
Q 422 3509 836 4129 
Q 1250 4750 2034 4750 
z
" transform="scale(0.015625)"/>
       </defs>
       <use xlink:href="#DejaVuSans-32" transform="translate(0 0.78125)"/>
       <use xlink:href="#DejaVuSans-30" transform="translate(63.623047 0.78125)"/>
       <use xlink:href="#DejaVuSans-30" transform="translate(127.246094 0.78125)"/>
      </g>
     </g>
    </g>
    <g id="xtick_2">
     <g id="line2d_2">
      <g>
       <use xlink:href="#mdaca3c359d" x="105.44" y="192.24" style="stroke: #000000; stroke-width: 2"/>
      </g>
     </g>
     <g id="text_2">
      <!-- $\mathdefault{400}$ -->
      <g transform="translate(92.07 212.377813) scale(0.14 -0.14)">
       <defs>
        <path id="DejaVuSans-34" d="M 2419 4116 
L 825 1625 
L 2419 1625 
L 2419 4116 
z
M 2253 4666 
L 3047 4666 
L 3047 1625 
L 3713 1625 
L 3713 1100 
L 3047 1100 
L 3047 0 
L 2419 0 
L 2419 1100 
L 313 1100 
L 313 1709 
L 2253 4666 
z
" transform="scale(0.015625)"/>
       </defs>
       <use xlink:href="#DejaVuSans-34" transform="translate(0 0.78125)"/>
       <use xlink:href="#DejaVuSans-30" transform="translate(63.623047 0.78125)"/>
       <use xlink:href="#DejaVuSans-30" transform="translate(127.246094 0.78125)"/>
      </g>
     </g>
    </g>
    <g id="xtick_3">
     <g id="line2d_3">
      <g>
       <use xlink:href="#mdaca3c359d" x="145.12" y="192.24" style="stroke: #000000; stroke-width: 2"/>
      </g>
     </g>
     <g id="text_3">
      <!-- $\mathdefault{600}$ -->
      <g transform="translate(131.75 212.377813) scale(0.14 -0.14)">
       <defs>
        <path id="DejaVuSans-36" d="M 2113 2584 
Q 1688 2584 1439 2293 
Q 1191 2003 1191 1497 
Q 1191 994 1439 701 
Q 1688 409 2113 409 
Q 2538 409 2786 701 
Q 3034 994 3034 1497 
Q 3034 2003 2786 2293 
Q 2538 2584 2113 2584 
z
M 3366 4563 
L 3366 3988 
Q 3128 4100 2886 4159 
Q 2644 4219 2406 4219 
Q 1781 4219 1451 3797 
Q 1122 3375 1075 2522 
Q 1259 2794 1537 2939 
Q 1816 3084 2150 3084 
Q 2853 3084 3261 2657 
Q 3669 2231 3669 1497 
Q 3669 778 3244 343 
Q 2819 -91 2113 -91 
Q 1303 -91 875 529 
Q 447 1150 447 2328 
Q 447 3434 972 4092 
Q 1497 4750 2381 4750 
Q 2619 4750 2861 4703 
Q 3103 4656 3366 4563 
z
" transform="scale(0.015625)"/>
       </defs>
       <use xlink:href="#DejaVuSans-36" transform="translate(0 0.78125)"/>
       <use xlink:href="#DejaVuSans-30" transform="translate(63.623047 0.78125)"/>
       <use xlink:href="#DejaVuSans-30" transform="translate(127.246094 0.78125)"/>
      </g>
     </g>
    </g>
    <g id="xtick_4">
     <g id="line2d_4">
      <g>
       <use xlink:href="#mdaca3c359d" x="184.8" y="192.24" style="stroke: #000000; stroke-width: 2"/>
      </g>
     </g>
     <g id="text_4">
      <!-- $\mathdefault{800}$ -->
      <g transform="translate(171.43 212.377813) scale(0.14 -0.14)">
       <defs>
        <path id="DejaVuSans-38" d="M 2034 2216 
Q 1584 2216 1326 1975 
Q 1069 1734 1069 1313 
Q 1069 891 1326 650 
Q 1584 409 2034 409 
Q 2484 409 2743 651 
Q 3003 894 3003 1313 
Q 3003 1734 2745 1975 
Q 2488 2216 2034 2216 
z
M 1403 2484 
Q 997 2584 770 2862 
Q 544 3141 544 3541 
Q 544 4100 942 4425 
Q 1341 4750 2034 4750 
Q 2731 4750 3128 4425 
Q 3525 4100 3525 3541 
Q 3525 3141 3298 2862 
Q 3072 2584 2669 2484 
Q 3125 2378 3379 2068 
Q 3634 1759 3634 1313 
Q 3634 634 3220 271 
Q 2806 -91 2034 -91 
Q 1263 -91 848 271 
Q 434 634 434 1313 
Q 434 1759 690 2068 
Q 947 2378 1403 2484 
z
M 1172 3481 
Q 1172 3119 1398 2916 
Q 1625 2713 2034 2713 
Q 2441 2713 2670 2916 
Q 2900 3119 2900 3481 
Q 2900 3844 2670 4047 
Q 2441 4250 2034 4250 
Q 1625 4250 1398 4047 
Q 1172 3844 1172 3481 
z
" transform="scale(0.015625)"/>
       </defs>
       <use xlink:href="#DejaVuSans-38" transform="translate(0 0.78125)"/>
       <use xlink:href="#DejaVuSans-30" transform="translate(63.623047 0.78125)"/>
       <use xlink:href="#DejaVuSans-30" transform="translate(127.246094 0.78125)"/>
      </g>
     </g>
    </g>
    <g id="text_5">
     <!-- Diploid N$_e$0 -->
     <g transform="translate(74.34 232.969375) scale(0.18 -0.18)">
      <defs>
       <path id="DejaVuSans-44" d="M 1259 4147 
L 1259 519 
L 2022 519 
Q 2988 519 3436 956 
Q 3884 1394 3884 2338 
Q 3884 3275 3436 3711 
Q 2988 4147 2022 4147 
L 1259 4147 
z
M 628 4666 
L 1925 4666 
Q 3281 4666 3915 4102 
Q 4550 3538 4550 2338 
Q 4550 1131 3912 565 
Q 3275 0 1925 0 
L 628 0 
L 628 4666 
z
" transform="scale(0.015625)"/>
       <path id="DejaVuSans-69" d="M 603 3500 
L 1178 3500 
L 1178 0 
L 603 0 
L 603 3500 
z
M 603 4863 
L 1178 4863 
L 1178 4134 
L 603 4134 
L 603 4863 
z
" transform="scale(0.015625)"/>
       <path id="DejaVuSans-70" d="M 1159 525 
L 1159 -1331 
L 581 -1331 
L 581 3500 
L 1159 3500 
L 1159 2969 
Q 1341 3281 1617 3432 
Q 1894 3584 2278 3584 
Q 2916 3584 3314 3078 
Q 3713 2572 3713 1747 
Q 3713 922 3314 415 
Q 2916 -91 2278 -91 
Q 1894 -91 1617 61 
Q 1341 213 1159 525 
z
M 3116 1747 
Q 3116 2381 2855 2742 
Q 2594 3103 2138 3103 
Q 1681 3103 1420 2742 
Q 1159 2381 1159 1747 
Q 1159 1113 1420 752 
Q 1681 391 2138 391 
Q 2594 391 2855 752 
Q 3116 1113 3116 1747 
z
" transform="scale(0.015625)"/>
       <path id="DejaVuSans-6c" d="M 603 4863 
L 1178 4863 
L 1178 0 
L 603 0 
L 603 4863 
z
" transform="scale(0.015625)"/>
       <path id="DejaVuSans-6f" d="M 1959 3097 
Q 1497 3097 1228 2736 
Q 959 2375 959 1747 
Q 959 1119 1226 758 
Q 1494 397 1959 397 
Q 2419 397 2687 759 
Q 2956 1122 2956 1747 
Q 2956 2369 2687 2733 
Q 2419 3097 1959 3097 
z
M 1959 3584 
Q 2709 3584 3137 3096 
Q 3566 2609 3566 1747 
Q 3566 888 3137 398 
Q 2709 -91 1959 -91 
Q 1206 -91 779 398 
Q 353 888 353 1747 
Q 353 2609 779 3096 
Q 1206 3584 1959 3584 
z
" transform="scale(0.015625)"/>
       <path id="DejaVuSans-64" d="M 2906 2969 
L 2906 4863 
L 3481 4863 
L 3481 0 
L 2906 0 
L 2906 525 
Q 2725 213 2448 61 
Q 2172 -91 1784 -91 
Q 1150 -91 751 415 
Q 353 922 353 1747 
Q 353 2572 751 3078 
Q 1150 3584 1784 3584 
Q 2172 3584 2448 3432 
Q 2725 3281 2906 2969 
z
M 947 1747 
Q 947 1113 1208 752 
Q 1469 391 1925 391 
Q 2381 391 2643 752 
Q 2906 1113 2906 1747 
Q 2906 2381 2643 2742 
Q 2381 3103 1925 3103 
Q 1469 3103 1208 2742 
Q 947 2381 947 1747 
z
" transform="scale(0.015625)"/>
       <path id="DejaVuSans-20" transform="scale(0.015625)"/>
       <path id="DejaVuSans-4e" d="M 628 4666 
L 1478 4666 
L 3547 763 
L 3547 4666 
L 4159 4666 
L 4159 0 
L 3309 0 
L 1241 3903 
L 1241 0 
L 628 0 
L 628 4666 
z
" transform="scale(0.015625)"/>
       <path id="DejaVuSans-Oblique-65" d="M 3078 2063 
Q 3088 2113 3092 2166 
Q 3097 2219 3097 2272 
Q 3097 2653 2873 2875 
Q 2650 3097 2266 3097 
Q 1838 3097 1509 2826 
Q 1181 2556 1013 2059 
L 3078 2063 
z
M 3578 1613 
L 903 1613 
Q 884 1494 878 1425 
Q 872 1356 872 1306 
Q 872 872 1139 634 
Q 1406 397 1894 397 
Q 2269 397 2603 481 
Q 2938 566 3225 728 
L 3116 159 
Q 2806 34 2476 -28 
Q 2147 -91 1806 -91 
Q 1078 -91 686 257 
Q 294 606 294 1247 
Q 294 1794 489 2264 
Q 684 2734 1063 3103 
Q 1306 3334 1642 3459 
Q 1978 3584 2356 3584 
Q 2950 3584 3301 3228 
Q 3653 2872 3653 2272 
Q 3653 2128 3634 1964 
Q 3616 1800 3578 1613 
z
" transform="scale(0.015625)"/>
      </defs>
      <use xlink:href="#DejaVuSans-44" transform="translate(0 0.015625)"/>
      <use xlink:href="#DejaVuSans-69" transform="translate(77.001953 0.015625)"/>
      <use xlink:href="#DejaVuSans-70" transform="translate(104.785156 0.015625)"/>
      <use xlink:href="#DejaVuSans-6c" transform="translate(168.261719 0.015625)"/>
      <use xlink:href="#DejaVuSans-6f" transform="translate(196.044922 0.015625)"/>
      <use xlink:href="#DejaVuSans-69" transform="translate(257.226562 0.015625)"/>
      <use xlink:href="#DejaVuSans-64" transform="translate(285.009766 0.015625)"/>
      <use xlink:href="#DejaVuSans-20" transform="translate(348.486328 0.015625)"/>
      <use xlink:href="#DejaVuSans-4e" transform="translate(380.273438 0.015625)"/>
      <use xlink:href="#DejaVuSans-Oblique-65" transform="translate(456.035156 -16.390625) scale(0.7)"/>
      <use xlink:href="#DejaVuSans-30" transform="translate(501.835938 0.015625)"/>
     </g>
    </g>
    <g id="text_6">
     <!-- $\times\mathdefault{10^{3}}\mathdefault{}$ -->
     <g transform="translate(188.56 225.887812) scale(0.1 -0.1)">
      <defs>
       <path id="DejaVuSans-d7" d="M 4488 3438 
L 3059 2003 
L 4488 575 
L 4116 197 
L 2681 1631 
L 1247 197 
L 878 575 
L 2303 2003 
L 878 3438 
L 1247 3816 
L 2681 2381 
L 4116 3816 
L 4488 3438 
z
" transform="scale(0.015625)"/>
       <path id="DejaVuSans-31" d="M 794 531 
L 1825 531 
L 1825 4091 
L 703 3866 
L 703 4441 
L 1819 4666 
L 2450 4666 
L 2450 531 
L 3481 531 
L 3481 0 
L 794 0 
L 794 531 
z
" transform="scale(0.015625)"/>
       <path id="DejaVuSans-33" d="M 2597 2516 
Q 3050 2419 3304 2112 
Q 3559 1806 3559 1356 
Q 3559 666 3084 287 
Q 2609 -91 1734 -91 
Q 1441 -91 1130 -33 
Q 819 25 488 141 
L 488 750 
Q 750 597 1062 519 
Q 1375 441 1716 441 
Q 2309 441 2620 675 
Q 2931 909 2931 1356 
Q 2931 1769 2642 2001 
Q 2353 2234 1838 2234 
L 1294 2234 
L 1294 2753 
L 1863 2753 
Q 2328 2753 2575 2939 
Q 2822 3125 2822 3475 
Q 2822 3834 2567 4026 
Q 2313 4219 1838 4219 
Q 1578 4219 1281 4162 
Q 984 4106 628 3988 
L 628 4550 
Q 988 4650 1302 4700 
Q 1616 4750 1894 4750 
Q 2613 4750 3031 4423 
Q 3450 4097 3450 3541 
Q 3450 3153 3228 2886 
Q 3006 2619 2597 2516 
z
" transform="scale(0.015625)"/>
      </defs>
      <use xlink:href="#DejaVuSans-d7" transform="translate(0 0.765625)"/>
      <use xlink:href="#DejaVuSans-31" transform="translate(83.789062 0.765625)"/>
      <use xlink:href="#DejaVuSans-30" transform="translate(147.412109 0.765625)"/>
      <use xlink:href="#DejaVuSans-33" transform="translate(211.992188 39.046875) scale(0.7)"/>
     </g>
    </g>
   </g>
   <g id="matplotlib.axis_2">
    <g id="ytick_1">
     <g id="line2d_5">
      <defs>
       <path id="m8ce373767f" d="M 0 0 
L -6 0 
" style="stroke: #000000; stroke-width: 2"/>
      </defs>
      <g>
       <use xlink:href="#m8ce373767f" x="36" y="164.52" style="stroke: #000000; stroke-width: 2"/>
      </g>
     </g>
     <g id="text_7">
      <!-- $\mathdefault{200}$ -->
      <g transform="translate(-0.24 169.838906) scale(0.14 -0.14)">
       <use xlink:href="#DejaVuSans-32" transform="translate(0 0.78125)"/>
       <use xlink:href="#DejaVuSans-30" transform="translate(63.623047 0.78125)"/>
       <use xlink:href="#DejaVuSans-30" transform="translate(127.246094 0.78125)"/>
      </g>
     </g>
    </g>
    <g id="ytick_2">
     <g id="line2d_6">
      <g>
       <use xlink:href="#m8ce373767f" x="36" y="127.56" style="stroke: #000000; stroke-width: 2"/>
      </g>
     </g>
     <g id="text_8">
      <!-- $\mathdefault{400}$ -->
      <g transform="translate(-0.24 132.878906) scale(0.14 -0.14)">
       <use xlink:href="#DejaVuSans-34" transform="translate(0 0.78125)"/>
       <use xlink:href="#DejaVuSans-30" transform="translate(63.623047 0.78125)"/>
       <use xlink:href="#DejaVuSans-30" transform="translate(127.246094 0.78125)"/>
      </g>
     </g>
    </g>
    <g id="ytick_3">
     <g id="line2d_7">
      <g>
       <use xlink:href="#m8ce373767f" x="36" y="90.6" style="stroke: #000000; stroke-width: 2"/>
      </g>
     </g>
     <g id="text_9">
      <!-- $\mathdefault{600}$ -->
      <g transform="translate(-0.24 95.918906) scale(0.14 -0.14)">
       <use xlink:href="#DejaVuSans-36" transform="translate(0 0.78125)"/>
       <use xlink:href="#DejaVuSans-30" transform="translate(63.623047 0.78125)"/>
       <use xlink:href="#DejaVuSans-30" transform="translate(127.246094 0.78125)"/>
      </g>
     </g>
    </g>
    <g id="ytick_4">
     <g id="line2d_8">
      <g>
       <use xlink:href="#m8ce373767f" x="36" y="53.64" style="stroke: #000000; stroke-width: 2"/>
      </g>
     </g>
     <g id="text_10">
      <!-- $\mathdefault{800}$ -->
      <g transform="translate(-0.24 58.958906) scale(0.14 -0.14)">
       <use xlink:href="#DejaVuSans-38" transform="translate(0 0.78125)"/>
       <use xlink:href="#DejaVuSans-30" transform="translate(63.623047 0.78125)"/>
       <use xlink:href="#DejaVuSans-30" transform="translate(127.246094 0.78125)"/>
      </g>
     </g>
    </g>
    <g id="text_11">
     <!-- Diploid N$_e$1 -->
     <g transform="translate(-8.02 160.02) rotate(-90) scale(0.18 -0.18)">
      <use xlink:href="#DejaVuSans-44" transform="translate(0 0.015625)"/>
      <use xlink:href="#DejaVuSans-69" transform="translate(77.001953 0.015625)"/>
      <use xlink:href="#DejaVuSans-70" transform="translate(104.785156 0.015625)"/>
      <use xlink:href="#DejaVuSans-6c" transform="translate(168.261719 0.015625)"/>
      <use xlink:href="#DejaVuSans-6f" transform="translate(196.044922 0.015625)"/>
      <use xlink:href="#DejaVuSans-69" transform="translate(257.226562 0.015625)"/>
      <use xlink:href="#DejaVuSans-64" transform="translate(285.009766 0.015625)"/>
      <use xlink:href="#DejaVuSans-20" transform="translate(348.486328 0.015625)"/>
      <use xlink:href="#DejaVuSans-4e" transform="translate(380.273438 0.015625)"/>
      <use xlink:href="#DejaVuSans-Oblique-65" transform="translate(456.035156 -16.390625) scale(0.7)"/>
      <use xlink:href="#DejaVuSans-31" transform="translate(501.835938 0.015625)"/>
     </g>
    </g>
    <g id="text_12">
     <!-- $\times\mathdefault{10^{3}}\mathdefault{}$ -->
     <g transform="translate(36 22.92) scale(0.1 -0.1)">
      <use xlink:href="#DejaVuSans-d7" transform="translate(0 0.765625)"/>
      <use xlink:href="#DejaVuSans-31" transform="translate(83.789062 0.765625)"/>
      <use xlink:href="#DejaVuSans-30" transform="translate(147.412109 0.765625)"/>
      <use xlink:href="#DejaVuSans-33" transform="translate(211.992188 39.046875) scale(0.7)"/>
     </g>
    </g>
   </g>
   <g id="patch_3">
    <path d="M 36 192.24 
L 36 25.92 
" style="fill: none; stroke: #000000; stroke-width: 0.8; stroke-linejoin: miter; stroke-linecap: square"/>
   </g>
   <g id="patch_4">
    <path d="M 214.56 192.24 
L 214.56 25.92 
" style="fill: none; stroke: #000000; stroke-width: 0.8; stroke-linejoin: miter; stroke-linecap: square"/>
   </g>
   <g id="patch_5">
    <path d="M 36 192.24 
L 214.56 192.24 
" style="fill: none; stroke: #000000; stroke-width: 0.8; stroke-linejoin: miter; stroke-linecap: square"/>
   </g>
   <g id="patch_6">
    <path d="M 36 25.92 
L 214.56 25.92 
" style="fill: none; stroke: #000000; stroke-width: 0.8; stroke-linejoin: miter; stroke-linecap: square"/>
   </g>
   <g id="text_13">
    <!-- Ne0Ne1-MSSMC-GT-P2-S4 -->
    <g transform="translate(21.75375 10.92) scale(0.16 -0.16)">
     <defs>
      <path id="DejaVuSans-65" d="M 3597 1894 
L 3597 1613 
L 953 1613 
Q 991 1019 1311 708 
Q 1631 397 2203 397 
Q 2534 397 2845 478 
Q 3156 559 3463 722 
L 3463 178 
Q 3153 47 2828 -22 
Q 2503 -91 2169 -91 
Q 1331 -91 842 396 
Q 353 884 353 1716 
Q 353 2575 817 3079 
Q 1281 3584 2069 3584 
Q 2775 3584 3186 3129 
Q 3597 2675 3597 1894 
z
M 3022 2063 
Q 3016 2534 2758 2815 
Q 2500 3097 2075 3097 
Q 1594 3097 1305 2825 
Q 1016 2553 972 2059 
L 3022 2063 
z
" transform="scale(0.015625)"/>
      <path id="DejaVuSans-2d" d="M 313 2009 
L 1997 2009 
L 1997 1497 
L 313 1497 
L 313 2009 
z
" transform="scale(0.015625)"/>
      <path id="DejaVuSans-4d" d="M 628 4666 
L 1569 4666 
L 2759 1491 
L 3956 4666 
L 4897 4666 
L 4897 0 
L 4281 0 
L 4281 4097 
L 3078 897 
L 2444 897 
L 1241 4097 
L 1241 0 
L 628 0 
L 628 4666 
z
" transform="scale(0.015625)"/>
      <path id="DejaVuSans-53" d="M 3425 4513 
L 3425 3897 
Q 3066 4069 2747 4153 
Q 2428 4238 2131 4238 
Q 1616 4238 1336 4038 
Q 1056 3838 1056 3469 
Q 1056 3159 1242 3001 
Q 1428 2844 1947 2747 
L 2328 2669 
Q 3034 2534 3370 2195 
Q 3706 1856 3706 1288 
Q 3706 609 3251 259 
Q 2797 -91 1919 -91 
Q 1588 -91 1214 -16 
Q 841 59 441 206 
L 441 856 
Q 825 641 1194 531 
Q 1563 422 1919 422 
Q 2459 422 2753 634 
Q 3047 847 3047 1241 
Q 3047 1584 2836 1778 
Q 2625 1972 2144 2069 
L 1759 2144 
Q 1053 2284 737 2584 
Q 422 2884 422 3419 
Q 422 4038 858 4394 
Q 1294 4750 2059 4750 
Q 2388 4750 2728 4690 
Q 3069 4631 3425 4513 
z
" transform="scale(0.015625)"/>
      <path id="DejaVuSans-43" d="M 4122 4306 
L 4122 3641 
Q 3803 3938 3442 4084 
Q 3081 4231 2675 4231 
Q 1875 4231 1450 3742 
Q 1025 3253 1025 2328 
Q 1025 1406 1450 917 
Q 1875 428 2675 428 
Q 3081 428 3442 575 
Q 3803 722 4122 1019 
L 4122 359 
Q 3791 134 3420 21 
Q 3050 -91 2638 -91 
Q 1578 -91 968 557 
Q 359 1206 359 2328 
Q 359 3453 968 4101 
Q 1578 4750 2638 4750 
Q 3056 4750 3426 4639 
Q 3797 4528 4122 4306 
z
" transform="scale(0.015625)"/>
      <path id="DejaVuSans-47" d="M 3809 666 
L 3809 1919 
L 2778 1919 
L 2778 2438 
L 4434 2438 
L 4434 434 
Q 4069 175 3628 42 
Q 3188 -91 2688 -91 
Q 1594 -91 976 548 
Q 359 1188 359 2328 
Q 359 3472 976 4111 
Q 1594 4750 2688 4750 
Q 3144 4750 3555 4637 
Q 3966 4525 4313 4306 
L 4313 3634 
Q 3963 3931 3569 4081 
Q 3175 4231 2741 4231 
Q 1884 4231 1454 3753 
Q 1025 3275 1025 2328 
Q 1025 1384 1454 906 
Q 1884 428 2741 428 
Q 3075 428 3337 486 
Q 3600 544 3809 666 
z
" transform="scale(0.015625)"/>
      <path id="DejaVuSans-54" d="M -19 4666 
L 3928 4666 
L 3928 4134 
L 2272 4134 
L 2272 0 
L 1638 0 
L 1638 4134 
L -19 4134 
L -19 4666 
z
" transform="scale(0.015625)"/>
      <path id="DejaVuSans-50" d="M 1259 4147 
L 1259 2394 
L 2053 2394 
Q 2494 2394 2734 2622 
Q 2975 2850 2975 3272 
Q 2975 3691 2734 3919 
Q 2494 4147 2053 4147 
L 1259 4147 
z
M 628 4666 
L 2053 4666 
Q 2838 4666 3239 4311 
Q 3641 3956 3641 3272 
Q 3641 2581 3239 2228 
Q 2838 1875 2053 1875 
L 1259 1875 
L 1259 0 
L 628 0 
L 628 4666 
z
" transform="scale(0.015625)"/>
     </defs>
     <use xlink:href="#DejaVuSans-4e"/>
     <use xlink:href="#DejaVuSans-65" x="74.804688"/>
     <use xlink:href="#DejaVuSans-30" x="136.328125"/>
     <use xlink:href="#DejaVuSans-4e" x="199.951172"/>
     <use xlink:href="#DejaVuSans-65" x="274.755859"/>
     <use xlink:href="#DejaVuSans-31" x="336.279297"/>
     <use xlink:href="#DejaVuSans-2d" x="399.902344"/>
     <use xlink:href="#DejaVuSans-4d" x="435.986328"/>
     <use xlink:href="#DejaVuSans-53" x="522.265625"/>
     <use xlink:href="#DejaVuSans-53" x="585.742188"/>
     <use xlink:href="#DejaVuSans-4d" x="649.21875"/>
     <use xlink:href="#DejaVuSans-43" x="735.498047"/>
     <use xlink:href="#DejaVuSans-2d" x="805.322266"/>
     <use xlink:href="#DejaVuSans-47" x="845.03125"/>
     <use xlink:href="#DejaVuSans-54" x="918.896484"/>
     <use xlink:href="#DejaVuSans-2d" x="970.855469"/>
     <use xlink:href="#DejaVuSans-50" x="1006.939453"/>
     <use xlink:href="#DejaVuSans-32" x="1067.242188"/>
     <use xlink:href="#DejaVuSans-2d" x="1130.865234"/>
     <use xlink:href="#DejaVuSans-53" x="1166.949219"/>
     <use xlink:href="#DejaVuSans-34" x="1230.425781"/>
    </g>
   </g>
  </g>
  <g id="axes_2">
   <g id="patch_7">
    <path d="M 225.72 192.24 
L 234.036 192.24 
L 234.036 25.92 
L 225.72 25.92 
z
" style="fill: #ffffff"/>
   </g>
   <g id="QuadMesh_1">
    <path d="M 225.72 192.24 
L 234.036 192.24 
L 234.036 179.446154 
L 225.72 179.446154 
L 225.72 192.24 
" clip-path="url(#p719ba1525a)" style="fill: #e7e419"/>
    <path d="M 225.72 179.446154 
L 234.036 179.446154 
L 234.036 166.652308 
L 225.72 166.652308 
L 225.72 179.446154 
" clip-path="url(#p719ba1525a)" style="fill: #b2dd2d"/>
    <path d="M 225.72 166.652308 
L 234.036 166.652308 
L 234.036 153.858462 
L 225.72 153.858462 
L 225.72 166.652308 
" clip-path="url(#p719ba1525a)" style="fill: #7fd34e"/>
    <path d="M 225.72 153.858462 
L 234.036 153.858462 
L 234.036 141.064615 
L 225.72 141.064615 
L 225.72 153.858462 
" clip-path="url(#p719ba1525a)" style="fill: #54c568"/>
    <path d="M 225.72 141.064615 
L 234.036 141.064615 
L 234.036 128.270769 
L 225.72 128.270769 
L 225.72 141.064615 
" clip-path="url(#p719ba1525a)" style="fill: #31b57b"/>
    <path d="M 225.72 128.270769 
L 234.036 128.270769 
L 234.036 115.476923 
L 225.72 115.476923 
L 225.72 128.270769 
" clip-path="url(#p719ba1525a)" style="fill: #1fa287"/>
    <path d="M 225.72 115.476923 
L 234.036 115.476923 
L 234.036 102.683077 
L 225.72 102.683077 
L 225.72 115.476923 
" clip-path="url(#p719ba1525a)" style="fill: #21908d"/>
    <path d="M 225.72 102.683077 
L 234.036 102.683077 
L 234.036 89.889231 
L 225.72 89.889231 
L 225.72 102.683077 
" clip-path="url(#p719ba1525a)" style="fill: #277e8e"/>
    <path d="M 225.72 89.889231 
L 234.036 89.889231 
L 234.036 77.095385 
L 225.72 77.095385 
L 225.72 89.889231 
" clip-path="url(#p719ba1525a)" style="fill: #2f6b8e"/>
    <path d="M 225.72 77.095385 
L 234.036 77.095385 
L 234.036 64.301538 
L 225.72 64.301538 
L 225.72 77.095385 
" clip-path="url(#p719ba1525a)" style="fill: #39568c"/>
    <path d="M 225.72 64.301538 
L 234.036 64.301538 
L 234.036 51.507692 
L 225.72 51.507692 
L 225.72 64.301538 
" clip-path="url(#p719ba1525a)" style="fill: #424186"/>
    <path d="M 225.72 51.507692 
L 234.036 51.507692 
L 234.036 38.713846 
L 225.72 38.713846 
L 225.72 51.507692 
" clip-path="url(#p719ba1525a)" style="fill: #482979"/>
    <path d="M 225.72 38.713846 
L 234.036 38.713846 
L 234.036 25.92 
L 225.72 25.92 
L 225.72 38.713846 
" clip-path="url(#p719ba1525a)" style="fill: #470e61"/>
   </g>
   <g id="matplotlib.axis_3"/>
   <g id="matplotlib.axis_4">
    <g id="ytick_5">
     <g id="line2d_9">
      <defs>
       <path id="m39a7563a18" d="M 0 0 
L 3.5 0 
" style="stroke: #000000; stroke-width: 0.8"/>
      </defs>
      <g>
       <use xlink:href="#m39a7563a18" x="234.036" y="192.24" style="stroke: #000000; stroke-width: 0.8"/>
      </g>
     </g>
     <g id="text_14">
      <!-- $\mathdefault{0}$ -->
      <g transform="translate(241.036 196.039219) scale(0.1 -0.1)">
       <use xlink:href="#DejaVuSans-30" transform="translate(0 0.78125)"/>
      </g>
     </g>
    </g>
    <g id="ytick_6">
     <g id="line2d_10">
      <g>
       <use xlink:href="#m39a7563a18" x="234.036" y="166.652308" style="stroke: #000000; stroke-width: 0.8"/>
      </g>
     </g>
     <g id="text_15">
      <!-- $\mathdefault{1}$ -->
      <g transform="translate(241.036 170.451526) scale(0.1 -0.1)">
       <use xlink:href="#DejaVuSans-31" transform="translate(0 0.09375)"/>
      </g>
     </g>
    </g>
    <g id="ytick_7">
     <g id="line2d_11">
      <g>
       <use xlink:href="#m39a7563a18" x="234.036" y="141.064615" style="stroke: #000000; stroke-width: 0.8"/>
      </g>
     </g>
     <g id="text_16">
      <!-- $\mathdefault{2}$ -->
      <g transform="translate(241.036 144.863834) scale(0.1 -0.1)">
       <use xlink:href="#DejaVuSans-32" transform="translate(0 0.78125)"/>
      </g>
     </g>
    </g>
    <g id="ytick_8">
     <g id="line2d_12">
      <g>
       <use xlink:href="#m39a7563a18" x="234.036" y="115.476923" style="stroke: #000000; stroke-width: 0.8"/>
      </g>
     </g>
     <g id="text_17">
      <!-- $\mathdefault{3}$ -->
      <g transform="translate(241.036 119.276142) scale(0.1 -0.1)">
       <use xlink:href="#DejaVuSans-33" transform="translate(0 0.78125)"/>
      </g>
     </g>
    </g>
    <g id="ytick_9">
     <g id="line2d_13">
      <g>
       <use xlink:href="#m39a7563a18" x="234.036" y="89.889231" style="stroke: #000000; stroke-width: 0.8"/>
      </g>
     </g>
     <g id="text_18">
      <!-- $\mathdefault{4}$ -->
      <g transform="translate(241.036 93.68845) scale(0.1 -0.1)">
       <use xlink:href="#DejaVuSans-34" transform="translate(0 0.09375)"/>
      </g>
     </g>
    </g>
    <g id="ytick_10">
     <g id="line2d_14">
      <g>
       <use xlink:href="#m39a7563a18" x="234.036" y="64.301538" style="stroke: #000000; stroke-width: 0.8"/>
      </g>
     </g>
     <g id="text_19">
      <!-- $\mathdefault{5}$ -->
      <g transform="translate(241.036 68.100757) scale(0.1 -0.1)">
       <defs>
        <path id="DejaVuSans-35" d="M 691 4666 
L 3169 4666 
L 3169 4134 
L 1269 4134 
L 1269 2991 
Q 1406 3038 1543 3061 
Q 1681 3084 1819 3084 
Q 2600 3084 3056 2656 
Q 3513 2228 3513 1497 
Q 3513 744 3044 326 
Q 2575 -91 1722 -91 
Q 1428 -91 1123 -41 
Q 819 9 494 109 
L 494 744 
Q 775 591 1075 516 
Q 1375 441 1709 441 
Q 2250 441 2565 725 
Q 2881 1009 2881 1497 
Q 2881 1984 2565 2268 
Q 2250 2553 1709 2553 
Q 1456 2553 1204 2497 
Q 953 2441 691 2322 
L 691 4666 
z
" transform="scale(0.015625)"/>
       </defs>
       <use xlink:href="#DejaVuSans-35" transform="translate(0 0.09375)"/>
      </g>
     </g>
    </g>
    <g id="ytick_11">
     <g id="line2d_15">
      <g>
       <use xlink:href="#m39a7563a18" x="234.036" y="38.713846" style="stroke: #000000; stroke-width: 0.8"/>
      </g>
     </g>
     <g id="text_20">
      <!-- $\mathdefault{6}$ -->
      <g transform="translate(241.036 42.513065) scale(0.1 -0.1)">
       <use xlink:href="#DejaVuSans-36" transform="translate(0 0.78125)"/>
      </g>
     </g>
    </g>
    <g id="text_21">
     <!-- $\Delta$ log likelihood -->
     <g transform="translate(260.556 154.98) rotate(-90) scale(0.12 -0.12)">
      <defs>
       <path id="DejaVuSans-394" d="M 2188 4044 
L 906 525 
L 3472 525 
L 2188 4044 
z
M 50 0 
L 1831 4666 
L 2547 4666 
L 4325 0 
L 50 0 
z
" transform="scale(0.015625)"/>
       <path id="DejaVuSans-67" d="M 2906 1791 
Q 2906 2416 2648 2759 
Q 2391 3103 1925 3103 
Q 1463 3103 1205 2759 
Q 947 2416 947 1791 
Q 947 1169 1205 825 
Q 1463 481 1925 481 
Q 2391 481 2648 825 
Q 2906 1169 2906 1791 
z
M 3481 434 
Q 3481 -459 3084 -895 
Q 2688 -1331 1869 -1331 
Q 1566 -1331 1297 -1286 
Q 1028 -1241 775 -1147 
L 775 -588 
Q 1028 -725 1275 -790 
Q 1522 -856 1778 -856 
Q 2344 -856 2625 -561 
Q 2906 -266 2906 331 
L 2906 616 
Q 2728 306 2450 153 
Q 2172 0 1784 0 
Q 1141 0 747 490 
Q 353 981 353 1791 
Q 353 2603 747 3093 
Q 1141 3584 1784 3584 
Q 2172 3584 2450 3431 
Q 2728 3278 2906 2969 
L 2906 3500 
L 3481 3500 
L 3481 434 
z
" transform="scale(0.015625)"/>
       <path id="DejaVuSans-6b" d="M 581 4863 
L 1159 4863 
L 1159 1991 
L 2875 3500 
L 3609 3500 
L 1753 1863 
L 3688 0 
L 2938 0 
L 1159 1709 
L 1159 0 
L 581 0 
L 581 4863 
z
" transform="scale(0.015625)"/>
       <path id="DejaVuSans-68" d="M 3513 2113 
L 3513 0 
L 2938 0 
L 2938 2094 
Q 2938 2591 2744 2837 
Q 2550 3084 2163 3084 
Q 1697 3084 1428 2787 
Q 1159 2491 1159 1978 
L 1159 0 
L 581 0 
L 581 4863 
L 1159 4863 
L 1159 2956 
Q 1366 3272 1645 3428 
Q 1925 3584 2291 3584 
Q 2894 3584 3203 3211 
Q 3513 2838 3513 2113 
z
" transform="scale(0.015625)"/>
      </defs>
      <use xlink:href="#DejaVuSans-394" transform="translate(0 0.015625)"/>
      <use xlink:href="#DejaVuSans-20" transform="translate(68.408203 0.015625)"/>
      <use xlink:href="#DejaVuSans-6c" transform="translate(100.195312 0.015625)"/>
      <use xlink:href="#DejaVuSans-6f" transform="translate(127.978516 0.015625)"/>
      <use xlink:href="#DejaVuSans-67" transform="translate(189.160156 0.015625)"/>
      <use xlink:href="#DejaVuSans-20" transform="translate(252.636719 0.015625)"/>
      <use xlink:href="#DejaVuSans-6c" transform="translate(284.423828 0.015625)"/>
      <use xlink:href="#DejaVuSans-69" transform="translate(312.207031 0.015625)"/>
      <use xlink:href="#DejaVuSans-6b" transform="translate(339.990234 0.015625)"/>
      <use xlink:href="#DejaVuSans-65" transform="translate(397.900391 0.015625)"/>
      <use xlink:href="#DejaVuSans-6c" transform="translate(459.423828 0.015625)"/>
      <use xlink:href="#DejaVuSans-69" transform="translate(487.207031 0.015625)"/>
      <use xlink:href="#DejaVuSans-68" transform="translate(514.990234 0.015625)"/>
      <use xlink:href="#DejaVuSans-6f" transform="translate(578.369141 0.015625)"/>
      <use xlink:href="#DejaVuSans-6f" transform="translate(639.550781 0.015625)"/>
      <use xlink:href="#DejaVuSans-64" transform="translate(700.732422 0.015625)"/>
     </g>
    </g>
    <g id="text_22">
     <!-- $\times\mathdefault{10^{2}}\mathdefault{}$ -->
     <g transform="translate(208.036 22.92) scale(0.1 -0.1)">
      <use xlink:href="#DejaVuSans-d7" transform="translate(0 0.765625)"/>
      <use xlink:href="#DejaVuSans-31" transform="translate(83.789062 0.765625)"/>
      <use xlink:href="#DejaVuSans-30" transform="translate(147.412109 0.765625)"/>
      <use xlink:href="#DejaVuSans-32" transform="translate(211.992188 39.046875) scale(0.7)"/>
     </g>
    </g>
   </g>
   <g id="LineCollection_1"/>
   <g id="patch_8">
    <path d="M 225.72 192.24 
L 229.878 192.24 
L 234.036 192.24 
L 234.036 25.92 
L 229.878 25.92 
L 225.72 25.92 
L 225.72 192.24 
z
" style="fill: none; stroke: #000000; stroke-width: 0.8; stroke-linejoin: miter; stroke-linecap: square"/>
   </g>
  </g>
 </g>
 <defs>
  <clipPath id="pa200a4d33e">
   <rect x="36" y="25.92" width="178.56" height="166.32"/>
  </clipPath>
  <clipPath id="p719ba1525a">
   <rect x="225.72" y="25.92" width="8.316" height="166.32"/>
  </clipPath>
 </defs>
</svg>
