<?xml version="1.0" encoding="utf-8" standalone="no"?>
<!DOCTYPE svg PUBLIC "-//W3C//DTD SVG 1.1//EN"
  "http://www.w3.org/Graphics/SVG/1.1/DTD/svg11.dtd">
<svg xmlns:xlink="http://www.w3.org/1999/xlink" width="288pt" height="216pt" viewBox="0 0 288 216" xmlns="http://www.w3.org/2000/svg" version="1.1">
 <metadata>
  <rdf:RDF xmlns:dc="http://purl.org/dc/elements/1.1/" xmlns:cc="http://creativecommons.org/ns#" xmlns:rdf="http://www.w3.org/1999/02/22-rdf-syntax-ns#">
   <cc:Work>
    <dc:type rdf:resource="http://purl.org/dc/dcmitype/StillImage"/>
    <dc:date>2023-07-18T16:55:54.398586</dc:date>
    <dc:format>image/svg+xml</dc:format>
    <dc:creator>
     <cc:Agent>
      <dc:title>Matplotlib v3.7.1, https://matplotlib.org/</dc:title>
     </cc:Agent>
    </dc:creator>
   </cc:Work>
  </rdf:RDF>
 </metadata>
 <defs>
  <style type="text/css">*{stroke-linejoin: round; stroke-linecap: butt}</style>
 </defs>
 <g id="figure_1">
  <g id="patch_1">
   <path d="M 0 216 
L 288 216 
L 288 0 
L 0 0 
z
" style="fill: #ffffff"/>
  </g>
  <g id="axes_1">
   <g id="patch_2">
    <path d="M 36 192.24 
L 214.56 192.24 
L 214.56 25.92 
L 36 25.92 
z
" style="fill: #ffffff"/>
   </g>
   <g id="PathCollection_1">
    <path d="M 36.652103 192.24 
L 36 192.24 
L 36 191.851831 
z
" clip-path="url(#pc4ee72664a)" style="fill: #440154"/>
   </g>
   <g id="PathCollection_2">
    <path d="M 37.528614 192.24 
L 36.652103 192.24 
L 36 191.851831 
L 36 191.330083 
z
" clip-path="url(#pc4ee72664a)" style="fill: #440154"/>
   </g>
   <g id="PathCollection_3">
    <path d="M 38.405125 192.24 
L 37.528614 192.24 
L 36 191.330083 
L 36 190.808334 
z
" clip-path="url(#pc4ee72664a)" style="fill: #440154"/>
   </g>
   <g id="PathCollection_4">
    <path d="M 39.281636 192.24 
L 38.405125 192.24 
L 36 190.808334 
L 36 190.286586 
z
" clip-path="url(#pc4ee72664a)" style="fill: #440154"/>
   </g>
   <g id="PathCollection_5">
    <path d="M 40.158148 192.24 
L 39.281636 192.24 
L 36 190.286586 
L 36 189.764837 
z
" clip-path="url(#pc4ee72664a)" style="fill: #440154"/>
   </g>
   <g id="PathCollection_6">
    <path d="M 41.034659 192.24 
L 40.158148 192.24 
L 36 189.764837 
L 36 189.243089 
z
" clip-path="url(#pc4ee72664a)" style="fill: #440154"/>
   </g>
   <g id="PathCollection_7">
    <path d="M 41.91117 192.24 
L 41.034659 192.24 
L 36 189.243089 
L 36 188.72134 
z
" clip-path="url(#pc4ee72664a)" style="fill: #440154"/>
    <path d="M 202.656 192.218259 
L 208.608 192.13697 
L 214.56 192.057524 
L 214.56 192.24 
L 208.608 192.24 
L 202.656 192.24 
L 201.100719 192.24 
z
" clip-path="url(#pc4ee72664a)" style="fill: #440154"/>
   </g>
   <g id="PathCollection_8">
    <path d="M 41.952 191.742556 
L 44.273251 192.24 
L 41.952 192.24 
L 41.91117 192.24 
L 36 188.72134 
L 36 188.199592 
z
" clip-path="url(#pc4ee72664a)" style="fill: #440154"/>
    <path d="M 166.944 192.22692 
L 172.896 192.133086 
L 178.848 192.041516 
L 184.8 191.952143 
L 190.752 191.864899 
L 196.704 191.779712 
L 202.656 191.69651 
L 208.608 191.615222 
L 214.56 191.535776 
L 214.56 192.057524 
L 208.608 192.13697 
L 202.656 192.218259 
L 201.100719 192.24 
L 196.704 192.24 
L 190.752 192.24 
L 184.8 192.24 
L 178.848 192.24 
L 172.896 192.24 
L 166.944 192.24 
L 166.134357 192.24 
z
" clip-path="url(#pc4ee72664a)" style="fill: #440154"/>
   </g>
   <g id="PathCollection_9">
    <path d="M 41.952 191.220807 
L 46.707916 192.24 
L 44.273251 192.24 
L 41.952 191.742556 
L 36 188.199592 
L 36 187.677843 
z
" clip-path="url(#pc4ee72664a)" style="fill: #440154"/>
    <path d="M 137.184 192.209761 
L 143.136 192.104083 
L 149.088 192.000767 
L 155.04 191.899849 
L 160.992 191.801327 
L 166.944 191.705172 
L 172.896 191.611338 
L 178.848 191.519767 
L 184.8 191.430395 
L 190.752 191.343151 
L 196.704 191.257964 
L 202.656 191.174762 
L 208.608 191.093473 
L 214.56 191.014027 
L 214.56 191.535776 
L 208.608 191.615222 
L 202.656 191.69651 
L 196.704 191.779712 
L 190.752 191.864899 
L 184.8 191.952143 
L 178.848 192.041516 
L 172.896 192.133086 
L 166.944 192.22692 
L 166.134357 192.24 
L 160.992 192.24 
L 155.04 192.24 
L 149.088 192.24 
L 143.136 192.24 
L 137.184 192.24 
L 135.516657 192.24 
z
" clip-path="url(#pc4ee72664a)" style="fill: #440154"/>
   </g>
   <g id="PathCollection_10">
    <path d="M 41.952 190.699059 
L 47.904 191.974572 
L 50.831038 192.24 
L 47.904 192.24 
L 46.707916 192.24 
L 41.952 191.220807 
L 36 187.677843 
L 36 187.156094 
z
" clip-path="url(#pc4ee72664a)" style="fill: #440154"/>
    <path d="M 113.376 192.13103 
L 119.328 192.017848 
L 125.28 191.906002 
L 131.232 191.795959 
L 137.184 191.688012 
L 143.136 191.582334 
L 149.088 191.479018 
L 155.04 191.3781 
L 160.992 191.279578 
L 166.944 191.183423 
L 172.896 191.089589 
L 178.848 190.998019 
L 184.8 190.908646 
L 190.752 190.821402 
L 196.704 190.736215 
L 202.656 190.653013 
L 208.608 190.571725 
L 214.56 190.492279 
L 214.56 191.014027 
L 208.608 191.093473 
L 202.656 191.174762 
L 196.704 191.257964 
L 190.752 191.343151 
L 184.8 191.430395 
L 178.848 191.519767 
L 172.896 191.611338 
L 166.944 191.705172 
L 160.992 191.801327 
L 155.04 191.899849 
L 149.088 192.000767 
L 143.136 192.104083 
L 137.184 192.209761 
L 135.516657 192.24 
L 131.232 192.24 
L 125.28 192.24 
L 119.328 192.24 
L 113.376 192.24 
L 107.676168 192.24 
z
" clip-path="url(#pc4ee72664a)" style="fill: #440154"/>
   </g>
   <g id="PathCollection_11">
    <path d="M 36 186.696 
L 36 186.543032 
L 36.103576 186.696 
L 41.952 190.17731 
L 47.904 191.452824 
L 53.856 191.992559 
L 59.808 192.220024 
L 61.410412 192.24 
L 59.808 192.24 
L 53.856 192.24 
L 50.831038 192.24 
L 47.904 191.974572 
L 41.952 190.699059 
L 36 187.156094 
z
" clip-path="url(#pc4ee72664a)" style="fill: #440154"/>
    <path d="M 77.664 192.231994 
L 83.616 192.15069 
L 89.568 192.053586 
L 95.52 191.947414 
L 101.472 191.836356 
L 107.424 191.723072 
L 113.376 191.609281 
L 119.328 191.496099 
L 125.28 191.384253 
L 131.232 191.274211 
L 137.184 191.166263 
L 143.136 191.060586 
L 149.088 190.95727 
L 155.04 190.856352 
L 160.992 190.757829 
L 166.944 190.661675 
L 172.896 190.567841 
L 178.848 190.47627 
L 184.8 190.386898 
L 190.752 190.299654 
L 196.704 190.214467 
L 202.656 190.131265 
L 208.608 190.049976 
L 214.56 189.97053 
L 214.56 190.492279 
L 208.608 190.571725 
L 202.656 190.653013 
L 196.704 190.736215 
L 190.752 190.821402 
L 184.8 190.908646 
L 178.848 190.998019 
L 172.896 191.089589 
L 166.944 191.183423 
L 160.992 191.279578 
L 155.04 191.3781 
L 149.088 191.479018 
L 143.136 191.582334 
L 137.184 191.688012 
L 131.232 191.795959 
L 125.28 191.906002 
L 119.328 192.017848 
L 113.376 192.13103 
L 107.676168 192.24 
L 107.424 192.24 
L 101.472 192.24 
L 95.52 192.24 
L 89.568 192.24 
L 83.616 192.24 
L 77.664 192.24 
L 76.786681 192.24 
z
" clip-path="url(#pc4ee72664a)" style="fill: #440154"/>
   </g>
   <g id="PathCollection_12">
    <path d="M 36.103576 186.696 
L 36 186.543032 
L 36 185.248534 
L 36.980087 186.696 
L 41.952 189.655562 
L 47.904 190.931075 
L 53.856 191.470811 
L 59.808 191.698276 
L 65.76 191.772473 
L 71.712 191.764561 
L 77.664 191.710245 
L 83.616 191.628942 
L 89.568 191.531838 
L 95.52 191.425665 
L 101.472 191.314607 
L 107.424 191.201324 
L 113.376 191.087533 
L 119.328 190.974351 
L 125.28 190.862505 
L 131.232 190.752462 
L 137.184 190.644515 
L 143.136 190.538837 
L 149.088 190.435521 
L 155.04 190.334603 
L 160.992 190.236081 
L 166.944 190.139926 
L 172.896 190.046092 
L 178.848 189.954522 
L 184.8 189.865149 
L 190.752 189.777905 
L 196.704 189.692718 
L 202.656 189.609516 
L 208.608 189.528227 
L 214.56 189.448782 
L 214.56 189.97053 
L 208.608 190.049976 
L 202.656 190.131265 
L 196.704 190.214467 
L 190.752 190.299654 
L 184.8 190.386898 
L 178.848 190.47627 
L 172.896 190.567841 
L 166.944 190.661675 
L 160.992 190.757829 
L 155.04 190.856352 
L 149.088 190.95727 
L 143.136 191.060586 
L 137.184 191.166263 
L 131.232 191.274211 
L 125.28 191.384253 
L 119.328 191.496099 
L 113.376 191.609281 
L 107.424 191.723072 
L 101.472 191.836356 
L 95.52 191.947414 
L 89.568 192.053586 
L 83.616 192.15069 
L 77.664 192.231994 
L 76.786681 192.24 
L 71.712 192.24 
L 65.76 192.24 
L 61.410412 192.24 
L 59.808 192.220024 
L 53.856 191.992559 
L 47.904 191.452824 
L 41.952 190.17731 
z
" clip-path="url(#pc4ee72664a)" style="fill: #440154"/>
   </g>
   <g id="PathCollection_13">
    <path d="M 36.980087 186.696 
L 36 185.248534 
L 36 183.954037 
L 37.856598 186.696 
L 41.952 189.133813 
L 47.904 190.409327 
L 53.856 190.949062 
L 59.808 191.176527 
L 65.76 191.250725 
L 71.712 191.242812 
L 77.664 191.188497 
L 83.616 191.107193 
L 89.568 191.010089 
L 95.52 190.903916 
L 101.472 190.792859 
L 107.424 190.679575 
L 113.376 190.565784 
L 119.328 190.452602 
L 125.28 190.340756 
L 131.232 190.230714 
L 137.184 190.122766 
L 143.136 190.017089 
L 149.088 189.913773 
L 155.04 189.812855 
L 160.992 189.714332 
L 166.944 189.618177 
L 172.896 189.524344 
L 178.848 189.432773 
L 184.8 189.343401 
L 190.752 189.256157 
L 196.704 189.17097 
L 202.656 189.087768 
L 208.608 189.006479 
L 214.56 188.927033 
L 214.56 189.448782 
L 208.608 189.528227 
L 202.656 189.609516 
L 196.704 189.692718 
L 190.752 189.777905 
L 184.8 189.865149 
L 178.848 189.954522 
L 172.896 190.046092 
L 166.944 190.139926 
L 160.992 190.236081 
L 155.04 190.334603 
L 149.088 190.435521 
L 143.136 190.538837 
L 137.184 190.644515 
L 131.232 190.752462 
L 125.28 190.862505 
L 119.328 190.974351 
L 113.376 191.087533 
L 107.424 191.201324 
L 101.472 191.314607 
L 95.52 191.425665 
L 89.568 191.531838 
L 83.616 191.628942 
L 77.664 191.710245 
L 71.712 191.764561 
L 65.76 191.772473 
L 59.808 191.698276 
L 53.856 191.470811 
L 47.904 190.931075 
L 41.952 189.655562 
z
" clip-path="url(#pc4ee72664a)" style="fill: #440154"/>
   </g>
   <g id="PathCollection_14">
    <path d="M 37.856598 186.696 
L 36 183.954037 
L 36 182.65954 
L 38.733109 186.696 
L 41.952 188.612065 
L 47.904 189.887578 
L 53.856 190.427314 
L 59.808 190.654779 
L 65.76 190.728976 
L 71.712 190.721063 
L 77.664 190.666748 
L 83.616 190.585445 
L 89.568 190.488341 
L 95.52 190.382168 
L 101.472 190.27111 
L 107.424 190.157827 
L 113.376 190.044036 
L 119.328 189.930854 
L 125.28 189.819008 
L 131.232 189.708965 
L 137.184 189.601018 
L 143.136 189.49534 
L 149.088 189.392024 
L 155.04 189.291106 
L 160.992 189.192584 
L 166.944 189.096429 
L 172.896 189.002595 
L 178.848 188.911025 
L 184.8 188.821652 
L 190.752 188.734408 
L 196.704 188.649221 
L 202.656 188.566019 
L 208.608 188.48473 
L 214.56 188.405285 
L 214.56 188.927033 
L 208.608 189.006479 
L 202.656 189.087768 
L 196.704 189.17097 
L 190.752 189.256157 
L 184.8 189.343401 
L 178.848 189.432773 
L 172.896 189.524344 
L 166.944 189.618177 
L 160.992 189.714332 
L 155.04 189.812855 
L 149.088 189.913773 
L 143.136 190.017089 
L 137.184 190.122766 
L 131.232 190.230714 
L 125.28 190.340756 
L 119.328 190.452602 
L 113.376 190.565784 
L 107.424 190.679575 
L 101.472 190.792859 
L 95.52 190.903916 
L 89.568 191.010089 
L 83.616 191.107193 
L 77.664 191.188497 
L 71.712 191.242812 
L 65.76 191.250725 
L 59.808 191.176527 
L 53.856 190.949062 
L 47.904 190.409327 
L 41.952 189.133813 
z
" clip-path="url(#pc4ee72664a)" style="fill: #440154"/>
   </g>
   <g id="PathCollection_15">
    <path d="M 38.733109 186.696 
L 36 182.65954 
L 36 181.365042 
L 39.60962 186.696 
L 41.952 188.090316 
L 47.904 189.365829 
L 53.856 189.905565 
L 59.808 190.13303 
L 65.76 190.207228 
L 71.712 190.199315 
L 77.664 190.145 
L 83.616 190.063696 
L 89.568 189.966592 
L 95.52 189.860419 
L 101.472 189.749361 
L 107.424 189.636078 
L 113.376 189.522287 
L 119.328 189.409105 
L 125.28 189.297259 
L 131.232 189.187216 
L 137.184 189.079269 
L 143.136 188.973592 
L 149.088 188.870275 
L 155.04 188.769357 
L 160.992 188.670835 
L 166.944 188.57468 
L 172.896 188.480847 
L 178.848 188.389276 
L 184.8 188.299903 
L 190.752 188.21266 
L 196.704 188.127473 
L 202.656 188.044271 
L 208.608 187.962982 
L 214.56 187.883536 
L 214.56 188.405285 
L 208.608 188.48473 
L 202.656 188.566019 
L 196.704 188.649221 
L 190.752 188.734408 
L 184.8 188.821652 
L 178.848 188.911025 
L 172.896 189.002595 
L 166.944 189.096429 
L 160.992 189.192584 
L 155.04 189.291106 
L 149.088 189.392024 
L 143.136 189.49534 
L 137.184 189.601018 
L 131.232 189.708965 
L 125.28 189.819008 
L 119.328 189.930854 
L 113.376 190.044036 
L 107.424 190.157827 
L 101.472 190.27111 
L 95.52 190.382168 
L 89.568 190.488341 
L 83.616 190.585445 
L 77.664 190.666748 
L 71.712 190.721063 
L 65.76 190.728976 
L 59.808 190.654779 
L 53.856 190.427314 
L 47.904 189.887578 
L 41.952 188.612065 
z
" clip-path="url(#pc4ee72664a)" style="fill: #440154"/>
   </g>
   <g id="PathCollection_16">
    <path d="M 39.60962 186.696 
L 36 181.365042 
L 36 181.152 
L 36 178.985983 
L 36.732259 181.152 
L 40.486131 186.696 
L 41.952 187.568568 
L 47.904 188.844081 
L 53.856 189.383816 
L 59.808 189.611282 
L 65.76 189.685479 
L 71.712 189.677566 
L 77.664 189.623251 
L 83.616 189.541948 
L 89.568 189.444843 
L 95.52 189.338671 
L 101.472 189.227613 
L 107.424 189.11433 
L 113.376 189.000538 
L 119.328 188.887357 
L 125.28 188.775511 
L 131.232 188.665468 
L 137.184 188.557521 
L 143.136 188.451843 
L 149.088 188.348527 
L 155.04 188.247609 
L 160.992 188.149087 
L 166.944 188.052932 
L 172.896 187.959098 
L 178.848 187.867527 
L 184.8 187.778155 
L 190.752 187.690911 
L 196.704 187.605724 
L 202.656 187.522522 
L 208.608 187.441233 
L 214.56 187.361788 
L 214.56 187.883536 
L 208.608 187.962982 
L 202.656 188.044271 
L 196.704 188.127473 
L 190.752 188.21266 
L 184.8 188.299903 
L 178.848 188.389276 
L 172.896 188.480847 
L 166.944 188.57468 
L 160.992 188.670835 
L 155.04 188.769357 
L 149.088 188.870275 
L 143.136 188.973592 
L 137.184 189.079269 
L 131.232 189.187216 
L 125.28 189.297259 
L 119.328 189.409105 
L 113.376 189.522287 
L 107.424 189.636078 
L 101.472 189.749361 
L 95.52 189.860419 
L 89.568 189.966592 
L 83.616 190.063696 
L 77.664 190.145 
L 71.712 190.199315 
L 65.76 190.207228 
L 59.808 190.13303 
L 53.856 189.905565 
L 47.904 189.365829 
L 41.952 188.090316 
z
" clip-path="url(#pc4ee72664a)" style="fill: #440154"/>
   </g>
   <g id="PathCollection_17">
    <path d="M 40.486131 186.696 
L 36.732259 181.152 
L 36 178.985983 
L 36 176.393269 
L 37.60877 181.152 
L 41.362642 186.696 
L 41.952 187.046819 
L 47.904 188.322332 
L 53.856 188.862068 
L 59.808 189.089533 
L 65.76 189.163731 
L 71.712 189.155818 
L 77.664 189.101503 
L 83.616 189.020199 
L 89.568 188.923095 
L 95.52 188.816922 
L 101.472 188.705864 
L 107.424 188.592581 
L 113.376 188.47879 
L 119.328 188.365608 
L 125.28 188.253762 
L 131.232 188.143719 
L 137.184 188.035772 
L 143.136 187.930094 
L 149.088 187.826778 
L 155.04 187.72586 
L 160.992 187.627338 
L 166.944 187.531183 
L 172.896 187.437349 
L 178.848 187.345779 
L 184.8 187.256406 
L 190.752 187.169162 
L 196.704 187.083976 
L 202.656 187.000773 
L 208.608 186.919485 
L 214.56 186.840039 
L 214.56 187.361788 
L 208.608 187.441233 
L 202.656 187.522522 
L 196.704 187.605724 
L 190.752 187.690911 
L 184.8 187.778155 
L 178.848 187.867527 
L 172.896 187.959098 
L 166.944 188.052932 
L 160.992 188.149087 
L 155.04 188.247609 
L 149.088 188.348527 
L 143.136 188.451843 
L 137.184 188.557521 
L 131.232 188.665468 
L 125.28 188.775511 
L 119.328 188.887357 
L 113.376 189.000538 
L 107.424 189.11433 
L 101.472 189.227613 
L 95.52 189.338671 
L 89.568 189.444843 
L 83.616 189.541948 
L 77.664 189.623251 
L 71.712 189.677566 
L 65.76 189.685479 
L 59.808 189.611282 
L 53.856 189.383816 
L 47.904 188.844081 
L 41.952 187.568568 
z
" clip-path="url(#pc4ee72664a)" style="fill: #481769"/>
   </g>
   <g id="PathCollection_18">
    <path d="M 41.362642 186.696 
L 37.60877 181.152 
L 36 176.393269 
L 36 175.608 
L 36 172.345581 
L 36.611037 175.608 
L 38.485281 181.152 
L 41.952 186.271911 
L 42.749618 186.696 
L 47.904 187.800584 
L 53.856 188.340319 
L 59.808 188.567784 
L 65.76 188.641982 
L 71.712 188.634069 
L 77.664 188.579754 
L 83.616 188.498451 
L 89.568 188.401346 
L 95.52 188.295174 
L 101.472 188.184116 
L 107.424 188.070833 
L 113.376 187.957041 
L 119.328 187.84386 
L 125.28 187.732014 
L 131.232 187.621971 
L 137.184 187.514024 
L 143.136 187.408346 
L 149.088 187.30503 
L 155.04 187.204112 
L 160.992 187.10559 
L 166.944 187.009435 
L 172.896 186.915601 
L 178.848 186.82403 
L 184.8 186.734658 
L 187.437333 186.696 
L 190.752 186.575454 
L 196.704 186.364099 
L 202.656 186.157668 
L 208.608 185.955985 
L 214.56 185.758874 
L 214.56 186.696 
L 214.56 186.840039 
L 208.608 186.919485 
L 202.656 187.000773 
L 196.704 187.083976 
L 190.752 187.169162 
L 184.8 187.256406 
L 178.848 187.345779 
L 172.896 187.437349 
L 166.944 187.531183 
L 160.992 187.627338 
L 155.04 187.72586 
L 149.088 187.826778 
L 143.136 187.930094 
L 137.184 188.035772 
L 131.232 188.143719 
L 125.28 188.253762 
L 119.328 188.365608 
L 113.376 188.47879 
L 107.424 188.592581 
L 101.472 188.705864 
L 95.52 188.816922 
L 89.568 188.923095 
L 83.616 189.020199 
L 77.664 189.101503 
L 71.712 189.155818 
L 65.76 189.163731 
L 59.808 189.089533 
L 53.856 188.862068 
L 47.904 188.322332 
L 41.952 187.046819 
z
" clip-path="url(#pc4ee72664a)" style="fill: #472d7b"/>
    <path d="M 36 25.92 
L 36.063299 25.92 
L 36 29.639163 
z
" clip-path="url(#pc4ee72664a)" style="fill: #472d7b"/>
   </g>
   <g id="PathCollection_19">
    <path d="M 38.485281 181.152 
L 36.611037 175.608 
L 36 172.345581 
L 36 170.064 
L 36 165.948559 
L 36.449181 170.064 
L 37.487548 175.608 
L 39.361792 181.152 
L 41.952 184.977414 
L 45.184283 186.696 
L 47.904 187.278835 
L 53.856 187.818571 
L 59.808 188.046036 
L 65.76 188.120234 
L 71.712 188.112321 
L 77.664 188.058006 
L 83.616 187.976702 
L 89.568 187.879598 
L 95.52 187.773425 
L 101.472 187.662367 
L 107.424 187.549084 
L 113.376 187.435293 
L 119.328 187.322111 
L 125.28 187.210265 
L 131.232 187.100222 
L 137.184 186.992275 
L 143.136 186.886597 
L 149.088 186.783281 
L 154.235723 186.696 
L 155.04 186.662166 
L 160.992 186.417725 
L 166.944 186.179158 
L 172.896 185.946349 
L 178.848 185.719155 
L 184.8 185.497416 
L 190.752 185.280957 
L 196.704 185.069602 
L 202.656 184.863171 
L 208.608 184.661488 
L 214.56 184.464377 
L 214.56 185.758874 
L 208.608 185.955985 
L 202.656 186.157668 
L 196.704 186.364099 
L 190.752 186.575454 
L 187.437333 186.696 
L 184.8 186.734658 
L 178.848 186.82403 
L 172.896 186.915601 
L 166.944 187.009435 
L 160.992 187.10559 
L 155.04 187.204112 
L 149.088 187.30503 
L 143.136 187.408346 
L 137.184 187.514024 
L 131.232 187.621971 
L 125.28 187.732014 
L 119.328 187.84386 
L 113.376 187.957041 
L 107.424 188.070833 
L 101.472 188.184116 
L 95.52 188.295174 
L 89.568 188.401346 
L 83.616 188.498451 
L 77.664 188.579754 
L 71.712 188.634069 
L 65.76 188.641982 
L 59.808 188.567784 
L 53.856 188.340319 
L 47.904 187.800584 
L 42.749618 186.696 
L 41.952 186.271911 
z
" clip-path="url(#pc4ee72664a)" style="fill: #424086"/>
    <path d="M 36 75.816 
L 36 70.272 
L 36 64.728 
L 36 59.184 
L 36 53.64 
L 36 48.096 
L 36 42.552 
L 36 37.008 
L 36 31.464 
L 36 29.639163 
L 36.063299 25.92 
L 36.93981 25.92 
L 36.845453 31.464 
L 36.749765 37.008 
L 36.652782 42.552 
L 36.554559 48.096 
L 36.455173 53.64 
L 36.354729 59.184 
L 36.25337 64.728 
L 36.151286 70.272 
L 36.048726 75.816 
L 36 78.446168 
z
" clip-path="url(#pc4ee72664a)" style="fill: #424086"/>
   </g>
   <g id="PathCollection_20">
    <path d="M 39.361792 181.152 
L 37.487548 175.608 
L 36.449181 170.064 
L 36 165.948559 
L 36 164.52 
L 36 158.976 
L 36 153.432 
L 36 147.888 
L 36 142.344 
L 36 136.8 
L 36 131.256 
L 36 125.712 
L 36 120.168 
L 36 114.624 
L 36 109.08 
L 36 103.536 
L 36 97.992 
L 36 92.448 
L 36 86.904 
L 36 81.36 
L 36 78.446168 
L 36.048726 75.816 
L 36.151286 70.272 
L 36.25337 64.728 
L 36.354729 59.184 
L 36.455173 53.64 
L 36.554559 48.096 
L 36.652782 42.552 
L 36.749765 37.008 
L 36.845453 31.464 
L 36.93981 25.92 
L 37.816321 25.92 
L 37.721964 31.464 
L 37.626276 37.008 
L 37.529293 42.552 
L 37.43107 48.096 
L 37.331684 53.64 
L 37.23124 59.184 
L 37.129881 64.728 
L 37.027797 70.272 
L 36.925237 75.816 
L 36.82253 81.36 
L 36.720106 86.904 
L 36.618528 92.448 
L 36.518536 97.992 
L 36.421106 103.536 
L 36.327533 109.08 
L 36.239548 114.624 
L 36.159492 120.168 
L 36.090566 125.712 
L 36.037213 131.256 
L 36.005708 136.8 
L 36.00511 142.344 
L 36.04883 147.888 
L 36.157353 153.432 
L 36.363205 158.976 
L 36.720591 164.52 
L 37.325692 170.064 
L 38.36406 175.608 
L 40.238303 181.152 
L 41.952 183.682916 
L 47.618948 186.696 
L 47.904 186.757087 
L 53.856 187.296822 
L 59.808 187.524287 
L 65.76 187.598485 
L 71.712 187.590572 
L 77.664 187.536257 
L 83.616 187.454953 
L 89.568 187.357849 
L 95.52 187.251677 
L 101.472 187.140619 
L 107.424 187.027335 
L 113.376 186.913544 
L 119.328 186.800362 
L 124.881759 186.696 
L 125.28 186.677433 
L 131.232 186.404408 
L 137.184 186.136583 
L 143.136 185.874389 
L 149.088 185.618054 
L 155.04 185.367669 
L 160.992 185.123228 
L 166.944 184.88466 
L 172.896 184.651851 
L 178.848 184.424658 
L 184.8 184.202918 
L 190.752 183.986459 
L 196.704 183.775104 
L 202.656 183.568674 
L 208.608 183.36699 
L 214.56 183.169879 
L 214.56 184.464377 
L 208.608 184.661488 
L 202.656 184.863171 
L 196.704 185.069602 
L 190.752 185.280957 
L 184.8 185.497416 
L 178.848 185.719155 
L 172.896 185.946349 
L 166.944 186.179158 
L 160.992 186.417725 
L 155.04 186.662166 
L 154.235723 186.696 
L 149.088 186.783281 
L 143.136 186.886597 
L 137.184 186.992275 
L 131.232 187.100222 
L 125.28 187.210265 
L 119.328 187.322111 
L 113.376 187.435293 
L 107.424 187.549084 
L 101.472 187.662367 
L 95.52 187.773425 
L 89.568 187.879598 
L 83.616 187.976702 
L 77.664 188.058006 
L 71.712 188.112321 
L 65.76 188.120234 
L 59.808 188.046036 
L 53.856 187.818571 
L 47.904 187.278835 
L 45.184283 186.696 
L 41.952 184.977414 
z
" clip-path="url(#pc4ee72664a)" style="fill: #3a538b"/>
   </g>
   <g id="PathCollection_21">
    <path d="M 40.238303 181.152 
L 38.36406 175.608 
L 37.325692 170.064 
L 36.720591 164.52 
L 36.363205 158.976 
L 36.157353 153.432 
L 36.04883 147.888 
L 36.00511 142.344 
L 36.005708 136.8 
L 36.037213 131.256 
L 36.090566 125.712 
L 36.159492 120.168 
L 36.239548 114.624 
L 36.327533 109.08 
L 36.421106 103.536 
L 36.518536 97.992 
L 36.618528 92.448 
L 36.720106 86.904 
L 36.82253 81.36 
L 36.925237 75.816 
L 37.027797 70.272 
L 37.129881 64.728 
L 37.23124 59.184 
L 37.331684 53.64 
L 37.43107 48.096 
L 37.529293 42.552 
L 37.626276 37.008 
L 37.721964 31.464 
L 37.816321 25.92 
L 38.692832 25.92 
L 38.598475 31.464 
L 38.502787 37.008 
L 38.405804 42.552 
L 38.307581 48.096 
L 38.208195 53.64 
L 38.107751 59.184 
L 38.006392 64.728 
L 37.904308 70.272 
L 37.801748 75.816 
L 37.699041 81.36 
L 37.596617 86.904 
L 37.495039 92.448 
L 37.395047 97.992 
L 37.297617 103.536 
L 37.204044 109.08 
L 37.116059 114.624 
L 37.036003 120.168 
L 36.967077 125.712 
L 36.913724 131.256 
L 36.882219 136.8 
L 36.881622 142.344 
L 36.925341 147.888 
L 37.033864 153.432 
L 37.239716 158.976 
L 37.597102 164.52 
L 38.202203 170.064 
L 39.240571 175.608 
L 41.114814 181.152 
L 41.952 182.388419 
L 47.904 185.553063 
L 52.984006 186.696 
L 53.856 186.775074 
L 59.808 187.002539 
L 65.76 187.076736 
L 71.712 187.068824 
L 77.664 187.014508 
L 83.616 186.933205 
L 89.568 186.836101 
L 95.52 186.729928 
L 97.338329 186.696 
L 101.472 186.504635 
L 107.424 186.223571 
L 113.376 185.941246 
L 119.328 185.660434 
L 125.28 185.382936 
L 131.232 185.109911 
L 137.184 184.842086 
L 143.136 184.579891 
L 149.088 184.323557 
L 155.04 184.073171 
L 160.992 183.82873 
L 166.944 183.590163 
L 172.896 183.357354 
L 178.848 183.130161 
L 184.8 182.908421 
L 190.752 182.691962 
L 196.704 182.480607 
L 202.656 182.274176 
L 208.608 182.072493 
L 214.56 181.875382 
L 214.56 183.169879 
L 208.608 183.36699 
L 202.656 183.568674 
L 196.704 183.775104 
L 190.752 183.986459 
L 184.8 184.202918 
L 178.848 184.424658 
L 172.896 184.651851 
L 166.944 184.88466 
L 160.992 185.123228 
L 155.04 185.367669 
L 149.088 185.618054 
L 143.136 185.874389 
L 137.184 186.136583 
L 131.232 186.404408 
L 125.28 186.677433 
L 124.881759 186.696 
L 119.328 186.800362 
L 113.376 186.913544 
L 107.424 187.027335 
L 101.472 187.140619 
L 95.52 187.251677 
L 89.568 187.357849 
L 83.616 187.454953 
L 77.664 187.536257 
L 71.712 187.590572 
L 65.76 187.598485 
L 59.808 187.524287 
L 53.856 187.296822 
L 47.904 186.757087 
L 47.618948 186.696 
L 41.952 183.682916 
z
" clip-path="url(#pc4ee72664a)" style="fill: #32658e"/>
   </g>
   <g id="PathCollection_22">
    <path d="M 41.114814 181.152 
L 39.240571 175.608 
L 38.202203 170.064 
L 37.597102 164.52 
L 37.239716 158.976 
L 37.033864 153.432 
L 36.925341 147.888 
L 36.881622 142.344 
L 36.882219 136.8 
L 36.913724 131.256 
L 36.967077 125.712 
L 37.036003 120.168 
L 37.116059 114.624 
L 37.204044 109.08 
L 37.297617 103.536 
L 37.395047 97.992 
L 37.495039 92.448 
L 37.596617 86.904 
L 37.699041 81.36 
L 37.801748 75.816 
L 37.904308 70.272 
L 38.006392 64.728 
L 38.107751 59.184 
L 38.208195 53.64 
L 38.307581 48.096 
L 38.405804 42.552 
L 38.502787 37.008 
L 38.598475 31.464 
L 38.692832 25.92 
L 39.569343 25.92 
L 39.474986 31.464 
L 39.379298 37.008 
L 39.282315 42.552 
L 39.184093 48.096 
L 39.084706 53.64 
L 38.984262 59.184 
L 38.882903 64.728 
L 38.780819 70.272 
L 38.678259 75.816 
L 38.575552 81.36 
L 38.473128 86.904 
L 38.37155 92.448 
L 38.271558 97.992 
L 38.174128 103.536 
L 38.080555 109.08 
L 37.99257 114.624 
L 37.912514 120.168 
L 37.843588 125.712 
L 37.790235 131.256 
L 37.75873 136.8 
L 37.758133 142.344 
L 37.801852 147.888 
L 37.910375 153.432 
L 38.116227 158.976 
L 38.473613 164.52 
L 39.078714 170.064 
L 40.117082 175.608 
L 41.952 181.035676 
L 42.061233 181.152 
L 47.904 184.258566 
L 53.856 185.59769 
L 59.808 186.162048 
L 65.76 186.346138 
L 71.712 186.326506 
L 77.664 186.191746 
L 83.616 185.990026 
L 89.568 185.749103 
L 95.52 185.485681 
L 101.472 185.210138 
L 107.424 184.929073 
L 113.376 184.646749 
L 119.328 184.365936 
L 125.28 184.088438 
L 131.232 183.815414 
L 137.184 183.547589 
L 143.136 183.285394 
L 149.088 183.029059 
L 155.04 182.778674 
L 160.992 182.534233 
L 166.944 182.295665 
L 172.896 182.062857 
L 178.848 181.835663 
L 184.8 181.613923 
L 190.752 181.397465 
L 196.704 181.186109 
L 197.687476 181.152 
L 202.656 180.806863 
L 208.608 180.402916 
L 214.56 180.008129 
L 214.56 181.152 
L 214.56 181.875382 
L 208.608 182.072493 
L 202.656 182.274176 
L 196.704 182.480607 
L 190.752 182.691962 
L 184.8 182.908421 
L 178.848 183.130161 
L 172.896 183.357354 
L 166.944 183.590163 
L 160.992 183.82873 
L 155.04 184.073171 
L 149.088 184.323557 
L 143.136 184.579891 
L 137.184 184.842086 
L 131.232 185.109911 
L 125.28 185.382936 
L 119.328 185.660434 
L 113.376 185.941246 
L 107.424 186.223571 
L 101.472 186.504635 
L 97.338329 186.696 
L 95.52 186.729928 
L 89.568 186.836101 
L 83.616 186.933205 
L 77.664 187.014508 
L 71.712 187.068824 
L 65.76 187.076736 
L 59.808 187.002539 
L 53.856 186.775074 
L 52.984006 186.696 
L 47.904 185.553063 
L 41.952 182.388419 
z
" clip-path="url(#pc4ee72664a)" style="fill: #2b748e"/>
   </g>
   <g id="PathCollection_23">
    <path d="M 40.117082 175.608 
L 39.078714 170.064 
L 38.473613 164.52 
L 38.116227 158.976 
L 37.910375 153.432 
L 37.801852 147.888 
L 37.758133 142.344 
L 37.75873 136.8 
L 37.790235 131.256 
L 37.843588 125.712 
L 37.912514 120.168 
L 37.99257 114.624 
L 38.080555 109.08 
L 38.174128 103.536 
L 38.271558 97.992 
L 38.37155 92.448 
L 38.473128 86.904 
L 38.575552 81.36 
L 38.678259 75.816 
L 38.780819 70.272 
L 38.882903 64.728 
L 38.984262 59.184 
L 39.084706 53.64 
L 39.184093 48.096 
L 39.282315 42.552 
L 39.379298 37.008 
L 39.474986 31.464 
L 39.569343 25.92 
L 40.445854 25.92 
L 40.351497 31.464 
L 40.255809 37.008 
L 40.158826 42.552 
L 40.060604 48.096 
L 39.961217 53.64 
L 39.860773 59.184 
L 39.759414 64.728 
L 39.65733 70.272 
L 39.55477 75.816 
L 39.452063 81.36 
L 39.349639 86.904 
L 39.248061 92.448 
L 39.148069 97.992 
L 39.050639 103.536 
L 38.957066 109.08 
L 38.869081 114.624 
L 38.789025 120.168 
L 38.720099 125.712 
L 38.666746 131.256 
L 38.635241 136.8 
L 38.634644 142.344 
L 38.678363 147.888 
L 38.786886 153.432 
L 38.992738 158.976 
L 39.350124 164.52 
L 39.955225 170.064 
L 40.993593 175.608 
L 41.952 178.442962 
L 44.495898 181.152 
L 47.904 182.964068 
L 53.856 184.303193 
L 59.808 184.867551 
L 65.76 185.051641 
L 71.712 185.032008 
L 77.664 184.897249 
L 83.616 184.695529 
L 89.568 184.454606 
L 95.52 184.191183 
L 101.472 183.91564 
L 107.424 183.634576 
L 113.376 183.352252 
L 119.328 183.071439 
L 125.28 182.793941 
L 131.232 182.520916 
L 137.184 182.253091 
L 143.136 181.990897 
L 149.088 181.734562 
L 155.04 181.484177 
L 160.992 181.239736 
L 163.180907 181.152 
L 166.944 180.849903 
L 172.896 180.383617 
L 178.848 179.928577 
L 184.8 179.48446 
L 190.752 179.050921 
L 196.704 178.627603 
L 202.656 178.214149 
L 208.608 177.810203 
L 214.56 177.415415 
L 214.56 180.008129 
L 208.608 180.402916 
L 202.656 180.806863 
L 197.687476 181.152 
L 196.704 181.186109 
L 190.752 181.397465 
L 184.8 181.613923 
L 178.848 181.835663 
L 172.896 182.062857 
L 166.944 182.295665 
L 160.992 182.534233 
L 155.04 182.778674 
L 149.088 183.029059 
L 143.136 183.285394 
L 137.184 183.547589 
L 131.232 183.815414 
L 125.28 184.088438 
L 119.328 184.365936 
L 113.376 184.646749 
L 107.424 184.929073 
L 101.472 185.210138 
L 95.52 185.485681 
L 89.568 185.749103 
L 83.616 185.990026 
L 77.664 186.191746 
L 71.712 186.326506 
L 65.76 186.346138 
L 59.808 186.162048 
L 53.856 185.59769 
L 47.904 184.258566 
L 42.061233 181.152 
L 41.952 181.035676 
z
" clip-path="url(#pc4ee72664a)" style="fill: #25848e"/>
   </g>
   <g id="PathCollection_24">
    <path d="M 40.993593 175.608 
L 39.955225 170.064 
L 39.350124 164.52 
L 38.992738 158.976 
L 38.786886 153.432 
L 38.678363 147.888 
L 38.634644 142.344 
L 38.635241 136.8 
L 38.666746 131.256 
L 38.720099 125.712 
L 38.789025 120.168 
L 38.869081 114.624 
L 38.957066 109.08 
L 39.050639 103.536 
L 39.148069 97.992 
L 39.248061 92.448 
L 39.349639 86.904 
L 39.452063 81.36 
L 39.55477 75.816 
L 39.65733 70.272 
L 39.759414 64.728 
L 39.860773 59.184 
L 39.961217 53.64 
L 40.060604 48.096 
L 40.158826 42.552 
L 40.255809 37.008 
L 40.351497 31.464 
L 40.445854 25.92 
L 41.322365 25.92 
L 41.228008 31.464 
L 41.13232 37.008 
L 41.035337 42.552 
L 40.937115 48.096 
L 40.837728 53.64 
L 40.737284 59.184 
L 40.635925 64.728 
L 40.533841 70.272 
L 40.431281 75.816 
L 40.328574 81.36 
L 40.22615 86.904 
L 40.124572 92.448 
L 40.02458 97.992 
L 39.92715 103.536 
L 39.833577 109.08 
L 39.745592 114.624 
L 39.665536 120.168 
L 39.59661 125.712 
L 39.543257 131.256 
L 39.511752 136.8 
L 39.511155 142.344 
L 39.554874 147.888 
L 39.663397 153.432 
L 39.869249 158.976 
L 40.226635 164.52 
L 40.831736 170.064 
L 41.870104 175.608 
L 41.952 175.850249 
L 46.930563 181.152 
L 47.904 181.669571 
L 53.856 183.008696 
L 59.808 183.573054 
L 65.76 183.757144 
L 71.712 183.737511 
L 77.664 183.602751 
L 83.616 183.401031 
L 89.568 183.160108 
L 95.52 182.896686 
L 101.472 182.621143 
L 107.424 182.340079 
L 113.376 182.057754 
L 119.328 181.776942 
L 125.28 181.499443 
L 131.232 181.226419 
L 132.885844 181.152 
L 137.184 180.764632 
L 143.136 180.23949 
L 149.088 179.726084 
L 155.04 179.224594 
L 160.992 178.73501 
L 166.944 178.257189 
L 172.896 177.790903 
L 178.848 177.335863 
L 184.8 176.891747 
L 190.752 176.458207 
L 196.704 176.03489 
L 202.656 175.621436 
L 202.853968 175.608 
L 208.608 174.903132 
L 214.56 174.190544 
L 214.56 175.608 
L 214.56 177.415415 
L 208.608 177.810203 
L 202.656 178.214149 
L 196.704 178.627603 
L 190.752 179.050921 
L 184.8 179.48446 
L 178.848 179.928577 
L 172.896 180.383617 
L 166.944 180.849903 
L 163.180907 181.152 
L 160.992 181.239736 
L 155.04 181.484177 
L 149.088 181.734562 
L 143.136 181.990897 
L 137.184 182.253091 
L 131.232 182.520916 
L 125.28 182.793941 
L 119.328 183.071439 
L 113.376 183.352252 
L 107.424 183.634576 
L 101.472 183.91564 
L 95.52 184.191183 
L 89.568 184.454606 
L 83.616 184.695529 
L 77.664 184.897249 
L 71.712 185.032008 
L 65.76 185.051641 
L 59.808 184.867551 
L 53.856 184.303193 
L 47.904 182.964068 
L 44.495898 181.152 
L 41.952 178.442962 
z
" clip-path="url(#pc4ee72664a)" style="fill: #20938c"/>
   </g>
   <g id="PathCollection_25">
    <path d="M 41.870104 175.608 
L 40.831736 170.064 
L 40.226635 164.52 
L 39.869249 158.976 
L 39.663397 153.432 
L 39.554874 147.888 
L 39.511155 142.344 
L 39.511752 136.8 
L 39.543257 131.256 
L 39.59661 125.712 
L 39.665536 120.168 
L 39.745592 114.624 
L 39.833577 109.08 
L 39.92715 103.536 
L 40.02458 97.992 
L 40.124572 92.448 
L 40.22615 86.904 
L 40.328574 81.36 
L 40.431281 75.816 
L 40.533841 70.272 
L 40.635925 64.728 
L 40.737284 59.184 
L 40.837728 53.64 
L 40.937115 48.096 
L 41.035337 42.552 
L 41.13232 37.008 
L 41.228008 31.464 
L 41.322365 25.92 
L 41.952 25.92 
L 42.637742 25.92 
L 42.375649 31.464 
L 42.109858 37.008 
L 41.952 40.256745 
L 41.911849 42.552 
L 41.813626 48.096 
L 41.714239 53.64 
L 41.613795 59.184 
L 41.512436 64.728 
L 41.410352 70.272 
L 41.307792 75.816 
L 41.205085 81.36 
L 41.102661 86.904 
L 41.001083 92.448 
L 40.901092 97.992 
L 40.803661 103.536 
L 40.710088 109.08 
L 40.622103 114.624 
L 40.542047 120.168 
L 40.473121 125.712 
L 40.419768 131.256 
L 40.388263 136.8 
L 40.387666 142.344 
L 40.431385 147.888 
L 40.539908 153.432 
L 40.74576 158.976 
L 41.103146 164.52 
L 41.708247 170.064 
L 41.952 171.365435 
L 44.159183 175.608 
L 47.904 179.595915 
L 51.357201 181.152 
L 53.856 181.714198 
L 59.808 182.278556 
L 65.76 182.462646 
L 71.712 182.443014 
L 77.664 182.308254 
L 83.616 182.106534 
L 89.568 181.865611 
L 95.52 181.602189 
L 101.472 181.326646 
L 105.170408 181.152 
L 107.424 180.938857 
L 113.376 180.373397 
L 119.328 179.810965 
L 125.28 179.255171 
L 131.232 178.708338 
L 137.184 178.171918 
L 143.136 177.646776 
L 149.088 177.13337 
L 155.04 176.63188 
L 160.992 176.142296 
L 166.944 175.664476 
L 167.664892 175.608 
L 172.896 174.868296 
L 178.848 174.046954 
L 184.8 173.245328 
L 190.752 172.462794 
L 196.704 171.69871 
L 202.656 170.952429 
L 208.608 170.22331 
L 209.938661 170.064 
L 214.56 169.114561 
L 214.56 170.064 
L 214.56 174.190544 
L 208.608 174.903132 
L 202.853968 175.608 
L 202.656 175.621436 
L 196.704 176.03489 
L 190.752 176.458207 
L 184.8 176.891747 
L 178.848 177.335863 
L 172.896 177.790903 
L 166.944 178.257189 
L 160.992 178.73501 
L 155.04 179.224594 
L 149.088 179.726084 
L 143.136 180.23949 
L 137.184 180.764632 
L 132.885844 181.152 
L 131.232 181.226419 
L 125.28 181.499443 
L 119.328 181.776942 
L 113.376 182.057754 
L 107.424 182.340079 
L 101.472 182.621143 
L 95.52 182.896686 
L 89.568 183.160108 
L 83.616 183.401031 
L 77.664 183.602751 
L 71.712 183.737511 
L 65.76 183.757144 
L 59.808 183.573054 
L 53.856 183.008696 
L 47.904 181.669571 
L 46.930563 181.152 
L 41.952 175.850249 
z
" clip-path="url(#pc4ee72664a)" style="fill: #20a386"/>
    <path d="M 189.072964 25.92 
L 190.752 25.92 
L 196.704 25.92 
L 202.656 25.92 
L 208.608 25.92 
L 214.56 25.92 
L 214.56 31.464 
L 214.56 37.008 
L 214.56 42.552 
L 214.56 48.096 
L 214.56 53.64 
L 214.56 59.184 
L 214.56 59.685854 
L 214.150822 59.184 
L 209.671418 53.64 
L 208.608 52.309839 
L 205.31556 48.096 
L 202.656 44.651837 
L 201.071808 42.552 
L 196.942032 37.008 
L 196.704 36.684131 
L 192.956778 31.464 
L 190.752 28.349276 
z
" clip-path="url(#pc4ee72664a)" style="fill: #20a386"/>
   </g>
   <g id="PathCollection_26">
    <path d="M 41.708247 170.064 
L 41.103146 164.52 
L 40.74576 158.976 
L 40.539908 153.432 
L 40.431385 147.888 
L 40.387666 142.344 
L 40.388263 136.8 
L 40.419768 131.256 
L 40.473121 125.712 
L 40.542047 120.168 
L 40.622103 114.624 
L 40.710088 109.08 
L 40.803661 103.536 
L 40.901092 97.992 
L 41.001083 92.448 
L 41.102661 86.904 
L 41.205085 81.36 
L 41.307792 75.816 
L 41.410352 70.272 
L 41.512436 64.728 
L 41.613795 59.184 
L 41.714239 53.64 
L 41.813626 48.096 
L 41.911849 42.552 
L 41.952 40.256745 
L 42.109858 37.008 
L 42.375649 31.464 
L 42.637742 25.92 
L 45.072407 25.92 
L 44.810314 31.464 
L 44.544523 37.008 
L 44.275137 42.552 
L 44.002305 48.096 
L 43.726242 53.64 
L 43.447241 59.184 
L 43.165699 64.728 
L 42.882141 70.272 
L 42.597263 75.816 
L 42.311977 81.36 
L 42.027476 86.904 
L 41.952 88.38703 
L 41.877594 92.448 
L 41.777603 97.992 
L 41.680172 103.536 
L 41.586599 109.08 
L 41.498614 114.624 
L 41.418558 120.168 
L 41.349633 125.712 
L 41.296279 131.256 
L 41.264775 136.8 
L 41.264177 142.344 
L 41.307896 147.888 
L 41.416419 153.432 
L 41.622271 158.976 
L 41.952 164.090968 
L 42.028822 164.52 
L 43.709597 170.064 
L 46.593848 175.608 
L 47.904 177.003202 
L 53.856 179.685298 
L 59.808 180.815635 
L 65.237874 181.152 
L 65.76 181.168149 
L 70.655848 181.152 
L 71.712 181.145023 
L 77.664 180.875116 
L 83.616 180.471096 
L 89.568 179.988558 
L 95.52 179.460957 
L 101.472 178.909079 
L 107.424 178.346143 
L 113.376 177.780683 
L 119.328 177.218251 
L 125.28 176.662458 
L 131.232 176.115624 
L 136.864493 175.608 
L 137.184 175.556025 
L 143.136 174.608148 
L 149.088 173.681456 
L 155.04 172.776272 
L 160.992 171.892577 
L 166.944 171.030116 
L 172.896 170.188474 
L 173.798023 170.064 
L 178.848 168.868158 
L 184.8 167.492547 
L 190.752 166.149699 
L 196.704 164.838512 
L 198.184346 164.52 
L 202.656 162.891 
L 208.608 160.77258 
L 213.772842 158.976 
L 214.56 158.500627 
L 214.56 158.976 
L 214.56 164.52 
L 214.56 169.114561 
L 209.938661 170.064 
L 208.608 170.22331 
L 202.656 170.952429 
L 196.704 171.69871 
L 190.752 172.462794 
L 184.8 173.245328 
L 178.848 174.046954 
L 172.896 174.868296 
L 167.664892 175.608 
L 166.944 175.664476 
L 160.992 176.142296 
L 155.04 176.63188 
L 149.088 177.13337 
L 143.136 177.646776 
L 137.184 178.171918 
L 131.232 178.708338 
L 125.28 179.255171 
L 119.328 179.810965 
L 113.376 180.373397 
L 107.424 180.938857 
L 105.170408 181.152 
L 101.472 181.326646 
L 95.52 181.602189 
L 89.568 181.865611 
L 83.616 182.106534 
L 77.664 182.308254 
L 71.712 182.443014 
L 65.76 182.462646 
L 59.808 182.278556 
L 53.856 181.714198 
L 51.357201 181.152 
L 47.904 179.595915 
L 44.159183 175.608 
L 41.952 171.365435 
z
" clip-path="url(#pc4ee72664a)" style="fill: #2db27d"/>
    <path d="M 159.057741 31.464 
L 155.664558 25.92 
L 160.992 25.92 
L 166.944 25.92 
L 172.896 25.92 
L 178.848 25.92 
L 184.8 25.92 
L 189.072964 25.92 
L 190.752 28.349276 
L 192.956778 31.464 
L 196.704 36.684131 
L 196.942032 37.008 
L 201.071808 42.552 
L 202.656 44.651837 
L 205.31556 48.096 
L 208.608 52.309839 
L 209.671418 53.64 
L 214.150822 59.184 
L 214.56 59.685854 
L 214.56 64.728 
L 214.56 70.272 
L 214.56 75.816 
L 214.56 81.36 
L 214.56 86.904 
L 214.56 92.448 
L 214.56 97.992 
L 214.56 103.536 
L 214.56 108.012295 
L 211.190663 103.536 
L 208.608 100.24065 
L 206.885623 97.992 
L 202.656 92.611486 
L 202.530439 92.448 
L 198.204984 86.904 
L 196.704 84.99606 
L 193.910148 81.36 
L 190.752 77.261145 
L 189.664776 75.816 
L 185.499839 70.272 
L 184.8 69.336099 
L 181.436272 64.728 
L 178.848 61.156852 
L 177.452452 59.184 
L 173.566165 53.64 
L 172.896 52.6738 
L 169.797383 48.096 
L 166.944 43.830569 
L 166.109341 42.552 
L 162.53588 37.008 
L 160.992 34.580361 
z
" clip-path="url(#pc4ee72664a)" style="fill: #2db27d"/>
   </g>
   <g id="PathCollection_27">
    <path d="M 41.622271 158.976 
L 41.416419 153.432 
L 41.307896 147.888 
L 41.264177 142.344 
L 41.264775 136.8 
L 41.296279 131.256 
L 41.349633 125.712 
L 41.418558 120.168 
L 41.498614 114.624 
L 41.586599 109.08 
L 41.680172 103.536 
L 41.777603 97.992 
L 41.877594 92.448 
L 41.952 88.38703 
L 42.027476 86.904 
L 42.311977 81.36 
L 42.597263 75.816 
L 42.882141 70.272 
L 43.165699 64.728 
L 43.447241 59.184 
L 43.726242 53.64 
L 44.002305 48.096 
L 44.275137 42.552 
L 44.544523 37.008 
L 44.810314 31.464 
L 45.072407 25.92 
L 47.507072 25.92 
L 47.244979 31.464 
L 46.979188 37.008 
L 46.709802 42.552 
L 46.43697 48.096 
L 46.160907 53.64 
L 45.881906 59.184 
L 45.600363 64.728 
L 45.316806 70.272 
L 45.031928 75.816 
L 44.746641 81.36 
L 44.462141 86.904 
L 44.17999 92.448 
L 43.902245 97.992 
L 43.631616 103.536 
L 43.371699 109.08 
L 43.127305 114.624 
L 42.904936 120.168 
L 42.713482 125.712 
L 42.565284 131.256 
L 42.477774 136.8 
L 42.476114 142.344 
L 42.597553 147.888 
L 42.898995 153.432 
L 43.470784 158.976 
L 44.463487 164.52 
L 46.144262 170.064 
L 47.904 173.446503 
L 50.56147 175.608 
L 53.856 177.092584 
L 59.808 178.222922 
L 65.76 178.591631 
L 71.712 178.552309 
L 77.664 178.282402 
L 83.616 177.878382 
L 89.568 177.395844 
L 95.52 176.868243 
L 101.472 176.316366 
L 107.424 175.75343 
L 108.954783 175.608 
L 113.376 174.849849 
L 119.328 173.834665 
L 125.28 172.831464 
L 131.232 171.844435 
L 137.184 170.876203 
L 142.284066 170.064 
L 143.136 169.831181 
L 149.088 168.240953 
L 155.04 166.687635 
L 160.992 165.171193 
L 163.610844 164.52 
L 166.944 163.116715 
L 172.896 160.671365 
L 177.124521 158.976 
L 178.848 157.776323 
L 184.8 153.732712 
L 185.253433 153.432 
L 189.660543 147.888 
L 190.752 144.479824 
L 191.452507 142.344 
L 191.427643 136.8 
L 190.752 133.941266 
L 190.132319 131.256 
L 187.96564 125.712 
L 185.166566 120.168 
L 184.8 119.542897 
L 181.984213 114.624 
L 178.848 109.639075 
L 178.504707 109.08 
L 174.884247 103.536 
L 172.896 100.611919 
L 171.157537 97.992 
L 167.382057 92.448 
L 166.944 91.81479 
L 163.628702 86.904 
L 160.992 83.030646 
L 159.88207 81.36 
L 156.188623 75.816 
L 155.04 74.089403 
L 152.560754 70.272 
L 149.088 64.899955 
L 148.97942 64.728 
L 145.503567 59.184 
L 143.136 55.37332 
L 142.08316 53.64 
L 138.751121 48.096 
L 137.184 45.457666 
L 135.494373 42.552 
L 132.311281 37.008 
L 131.232 35.102781 
L 129.209935 31.464 
L 126.171991 25.92 
L 131.232 25.92 
L 137.184 25.92 
L 143.136 25.92 
L 149.088 25.92 
L 155.04 25.92 
L 155.664558 25.92 
L 159.057741 31.464 
L 160.992 34.580361 
L 162.53588 37.008 
L 166.109341 42.552 
L 166.944 43.830569 
L 169.797383 48.096 
L 172.896 52.6738 
L 173.566165 53.64 
L 177.452452 59.184 
L 178.848 61.156852 
L 181.436272 64.728 
L 184.8 69.336099 
L 185.499839 70.272 
L 189.664776 75.816 
L 190.752 77.261145 
L 193.910148 81.36 
L 196.704 84.99606 
L 198.204984 86.904 
L 202.530439 92.448 
L 202.656 92.611486 
L 206.885623 97.992 
L 208.608 100.24065 
L 211.190663 103.536 
L 214.56 108.012295 
L 214.56 109.08 
L 214.56 114.624 
L 214.56 120.168 
L 214.56 125.712 
L 214.56 131.256 
L 214.56 136.8 
L 214.56 142.344 
L 214.56 147.888 
L 214.56 153.432 
L 214.56 158.500627 
L 213.772842 158.976 
L 208.608 160.77258 
L 202.656 162.891 
L 198.184346 164.52 
L 196.704 164.838512 
L 190.752 166.149699 
L 184.8 167.492547 
L 178.848 168.868158 
L 173.798023 170.064 
L 172.896 170.188474 
L 166.944 171.030116 
L 160.992 171.892577 
L 155.04 172.776272 
L 149.088 173.681456 
L 143.136 174.608148 
L 137.184 175.556025 
L 136.864493 175.608 
L 131.232 176.115624 
L 125.28 176.662458 
L 119.328 177.218251 
L 113.376 177.780683 
L 107.424 178.346143 
L 101.472 178.909079 
L 95.52 179.460957 
L 89.568 179.988558 
L 83.616 180.471096 
L 77.664 180.875116 
L 71.712 181.145023 
L 70.655848 181.152 
L 65.76 181.168149 
L 65.237874 181.152 
L 59.808 180.815635 
L 53.856 179.685298 
L 47.904 177.003202 
L 46.593848 175.608 
L 43.709597 170.064 
L 42.028822 164.52 
L 41.952 164.090968 
z
" clip-path="url(#pc4ee72664a)" style="fill: #48c16e"/>
   </g>
   <g id="PathCollection_28">
    <path d="M 46.144262 170.064 
L 44.463487 164.52 
L 43.470784 158.976 
L 42.898995 153.432 
L 42.597553 147.888 
L 42.476114 142.344 
L 42.477774 136.8 
L 42.565284 131.256 
L 42.713482 125.712 
L 42.904936 120.168 
L 43.127305 114.624 
L 43.371699 109.08 
L 43.631616 103.536 
L 43.902245 97.992 
L 44.17999 92.448 
L 44.462141 86.904 
L 44.746641 81.36 
L 45.031928 75.816 
L 45.316806 70.272 
L 45.600363 64.728 
L 45.881906 59.184 
L 46.160907 53.64 
L 46.43697 48.096 
L 46.709802 42.552 
L 46.979188 37.008 
L 47.244979 31.464 
L 47.507072 25.92 
L 47.904 25.92 
L 52.719619 25.92 
L 52.100234 31.464 
L 51.472113 37.008 
L 50.835495 42.552 
L 50.190734 48.096 
L 49.538336 53.64 
L 48.878995 59.184 
L 48.213648 64.728 
L 47.904 67.28981 
L 47.751471 70.272 
L 47.466593 75.816 
L 47.181306 81.36 
L 46.896806 86.904 
L 46.614655 92.448 
L 46.33691 97.992 
L 46.06628 103.536 
L 45.806363 109.08 
L 45.56197 114.624 
L 45.339601 120.168 
L 45.148147 125.712 
L 44.999948 131.256 
L 44.912439 136.8 
L 44.910778 142.344 
L 45.032217 147.888 
L 45.33366 153.432 
L 45.905449 158.976 
L 46.898152 164.52 
L 47.904 167.837769 
L 49.498999 170.064 
L 53.856 173.607837 
L 59.69106 175.608 
L 59.808 175.630208 
L 65.76 175.998917 
L 71.712 175.959595 
L 77.664 175.689689 
L 78.867435 175.608 
L 83.616 175.026195 
L 89.568 174.155219 
L 95.52 173.202904 
L 101.472 172.206771 
L 107.424 171.190677 
L 113.376 170.170027 
L 113.997635 170.064 
L 119.328 168.503865 
L 125.28 166.782346 
L 131.232 165.08858 
L 133.268815 164.52 
L 137.184 162.669528 
L 143.136 159.915519 
L 145.212917 158.976 
L 149.088 155.932654 
L 152.347735 153.432 
L 155.04 149.514395 
L 156.184874 147.888 
L 157.757078 142.344 
L 157.73558 136.8 
L 156.602643 131.256 
L 155.04 126.740689 
L 154.692446 125.712 
L 152.272639 120.168 
L 149.462094 114.624 
L 149.088 113.952573 
L 146.436196 109.08 
L 143.227328 103.536 
L 143.136 103.384457 
L 139.958834 97.992 
L 137.184 93.40306 
L 136.618637 92.448 
L 133.284722 86.904 
L 131.232 83.518708 
L 129.947963 81.36 
L 126.641191 75.816 
L 125.28 73.53061 
L 123.370442 70.272 
L 120.136695 64.728 
L 119.328 63.331636 
L 116.954278 59.184 
L 113.810049 53.64 
L 113.376 52.866527 
L 110.713265 48.096 
L 107.655029 42.552 
L 107.424 42.127832 
L 104.622909 37.008 
L 101.630241 31.464 
L 101.472 31.16672 
L 98.623234 25.92 
L 101.472 25.92 
L 107.424 25.92 
L 113.376 25.92 
L 119.328 25.92 
L 125.28 25.92 
L 126.171991 25.92 
L 129.209935 31.464 
L 131.232 35.102781 
L 132.311281 37.008 
L 135.494373 42.552 
L 137.184 45.457666 
L 138.751121 48.096 
L 142.08316 53.64 
L 143.136 55.37332 
L 145.503567 59.184 
L 148.97942 64.728 
L 149.088 64.899955 
L 152.560754 70.272 
L 155.04 74.089403 
L 156.188623 75.816 
L 159.88207 81.36 
L 160.992 83.030646 
L 163.628702 86.904 
L 166.944 91.81479 
L 167.382057 92.448 
L 171.157537 97.992 
L 172.896 100.611919 
L 174.884247 103.536 
L 178.504707 109.08 
L 178.848 109.639075 
L 181.984213 114.624 
L 184.8 119.542897 
L 185.166566 120.168 
L 187.96564 125.712 
L 190.132319 131.256 
L 190.752 133.941266 
L 191.427643 136.8 
L 191.452507 142.344 
L 190.752 144.479824 
L 189.660543 147.888 
L 185.253433 153.432 
L 184.8 153.732712 
L 178.848 157.776323 
L 177.124521 158.976 
L 172.896 160.671365 
L 166.944 163.116715 
L 163.610844 164.52 
L 160.992 165.171193 
L 155.04 166.687635 
L 149.088 168.240953 
L 143.136 169.831181 
L 142.284066 170.064 
L 137.184 170.876203 
L 131.232 171.844435 
L 125.28 172.831464 
L 119.328 173.834665 
L 113.376 174.849849 
L 108.954783 175.608 
L 107.424 175.75343 
L 101.472 176.316366 
L 95.52 176.868243 
L 89.568 177.395844 
L 83.616 177.878382 
L 77.664 178.282402 
L 71.712 178.552309 
L 65.76 178.591631 
L 59.808 178.222922 
L 53.856 177.092584 
L 50.56147 175.608 
L 47.904 173.446503 
z
" clip-path="url(#pc4ee72664a)" style="fill: #6ccd5a"/>
   </g>
   <g id="PathCollection_29">
    <path d="M 46.898152 164.52 
L 45.905449 158.976 
L 45.33366 153.432 
L 45.032217 147.888 
L 44.910778 142.344 
L 44.912439 136.8 
L 44.999948 131.256 
L 45.148147 125.712 
L 45.339601 120.168 
L 45.56197 114.624 
L 45.806363 109.08 
L 46.06628 103.536 
L 46.33691 97.992 
L 46.614655 92.448 
L 46.896806 86.904 
L 47.181306 81.36 
L 47.466593 75.816 
L 47.751471 70.272 
L 47.904 67.28981 
L 48.213648 64.728 
L 48.878995 59.184 
L 49.538336 53.64 
L 50.190734 48.096 
L 50.835495 42.552 
L 51.472113 37.008 
L 52.100234 31.464 
L 52.719619 25.92 
L 53.856 25.92 
L 59.808 25.92 
L 65.76 25.92 
L 71.712 25.92 
L 77.664 25.92 
L 83.616 25.92 
L 89.568 25.92 
L 95.52 25.92 
L 98.623234 25.92 
L 101.472 31.16672 
L 101.630241 31.464 
L 104.622909 37.008 
L 107.424 42.127832 
L 107.655029 42.552 
L 110.713265 48.096 
L 113.376 52.866527 
L 113.810049 53.64 
L 116.954278 59.184 
L 119.328 63.331636 
L 120.136695 64.728 
L 123.370442 70.272 
L 125.28 73.53061 
L 126.641191 75.816 
L 129.947963 81.36 
L 131.232 83.518708 
L 133.284722 86.904 
L 136.618637 92.448 
L 137.184 93.40306 
L 139.958834 97.992 
L 143.136 103.384457 
L 143.227328 103.536 
L 146.436196 109.08 
L 149.088 113.952573 
L 149.462094 114.624 
L 152.272639 120.168 
L 154.692446 125.712 
L 155.04 126.740689 
L 156.602643 131.256 
L 157.73558 136.8 
L 157.757078 142.344 
L 156.184874 147.888 
L 155.04 149.514395 
L 152.347735 153.432 
L 149.088 155.932654 
L 145.212917 158.976 
L 143.136 159.915519 
L 137.184 162.669528 
L 133.268815 164.52 
L 131.232 165.08858 
L 125.28 166.782346 
L 119.328 168.503865 
L 113.997635 170.064 
L 113.376 170.170027 
L 107.424 171.190677 
L 101.472 172.206771 
L 95.52 173.202904 
L 89.568 174.155219 
L 83.616 175.026195 
L 78.867435 175.608 
L 77.664 175.689689 
L 71.712 175.959595 
L 65.76 175.998917 
L 59.808 175.630208 
L 59.69106 175.608 
L 53.856 173.607837 
L 49.498999 170.064 
L 47.904 167.837769 
z
M 47.904 154.747494 
L 48.934632 158.976 
L 51.280607 164.52 
L 53.856 168.114623 
L 57.169999 170.064 
L 59.808 170.968263 
L 65.76 171.633779 
L 71.712 171.562804 
L 77.664 171.075626 
L 83.616 170.346374 
L 85.54566 170.064 
L 89.568 169.053943 
L 95.52 167.419747 
L 101.472 165.710357 
L 105.535339 164.52 
L 107.424 163.583218 
L 113.376 160.617769 
L 116.688963 158.976 
L 119.328 156.705483 
L 123.178237 153.432 
L 125.28 150.042481 
L 126.637834 147.888 
L 128.045441 142.344 
L 128.026193 136.8 
L 127.011867 131.256 
L 125.294085 125.712 
L 125.28 125.676811 
L 123.110478 120.168 
L 120.574537 114.624 
L 119.328 112.144441 
L 117.805612 109.08 
L 114.876453 103.536 
L 113.376 100.808516 
L 111.834867 97.992 
L 108.721554 92.448 
L 107.424 90.173471 
L 105.550497 86.904 
L 102.347158 81.36 
L 101.472 79.84954 
L 99.088145 75.816 
L 95.816289 70.272 
L 95.52 69.767616 
L 92.42338 64.728 
L 89.568 60.047734 
L 88.991834 59.184 
L 85.327015 53.64 
L 83.616 51.024097 
L 81.328578 48.096 
L 77.664 43.349461 
L 76.742393 42.552 
L 71.712 38.143561 
L 65.76 37.383649 
L 61.442832 42.552 
L 59.808 44.484444 
L 58.811365 48.096 
L 57.263338 53.64 
L 55.698837 59.184 
L 54.120083 64.728 
L 53.856 65.648772 
L 53.297186 70.272 
L 52.623957 75.816 
L 51.949763 81.36 
L 51.277425 86.904 
L 50.610642 92.448 
L 49.954269 97.992 
L 49.314712 103.536 
L 48.700472 109.08 
L 48.122917 114.624 
L 47.904 116.933537 
L 47.774266 120.168 
L 47.582812 125.712 
L 47.434613 131.256 
L 47.347104 136.8 
L 47.345443 142.344 
L 47.466882 147.888 
L 47.768325 153.432 
z
" clip-path="url(#pc4ee72664a)" style="fill: #93d741"/>
   </g>
   <g id="PathCollection_30">
    <path d="M 47.768325 153.432 
L 47.466882 147.888 
L 47.345443 142.344 
L 47.347104 136.8 
L 47.434613 131.256 
L 47.582812 125.712 
L 47.774266 120.168 
L 47.904 116.933537 
L 48.122917 114.624 
L 48.700472 109.08 
L 49.314712 103.536 
L 49.954269 97.992 
L 50.610642 92.448 
L 51.277425 86.904 
L 51.949763 81.36 
L 52.623957 75.816 
L 53.297186 70.272 
L 53.856 65.648772 
L 54.120083 64.728 
L 55.698837 59.184 
L 57.263338 53.64 
L 58.811365 48.096 
L 59.808 44.484444 
L 61.442832 42.552 
L 65.76 37.383649 
L 71.712 38.143561 
L 76.742393 42.552 
L 77.664 43.349461 
L 81.328578 48.096 
L 83.616 51.024097 
L 85.327015 53.64 
L 88.991834 59.184 
L 89.568 60.047734 
L 92.42338 64.728 
L 95.52 69.767616 
L 95.816289 70.272 
L 99.088145 75.816 
L 101.472 79.84954 
L 102.347158 81.36 
L 105.550497 86.904 
L 107.424 90.173471 
L 108.721554 92.448 
L 111.834867 97.992 
L 113.376 100.808516 
L 114.876453 103.536 
L 117.805612 109.08 
L 119.328 112.144441 
L 120.574537 114.624 
L 123.110478 120.168 
L 125.28 125.676811 
L 125.294085 125.712 
L 127.011867 131.256 
L 128.026193 136.8 
L 128.045441 142.344 
L 126.637834 147.888 
L 125.28 150.042481 
L 123.178237 153.432 
L 119.328 156.705483 
L 116.688963 158.976 
L 113.376 160.617769 
L 107.424 163.583218 
L 105.535339 164.52 
L 101.472 165.710357 
L 95.52 167.419747 
L 89.568 169.053943 
L 85.54566 170.064 
L 83.616 170.346374 
L 77.664 171.075626 
L 71.712 171.562804 
L 65.76 171.633779 
L 59.808 170.968263 
L 57.169999 170.064 
L 53.856 168.114623 
L 51.280607 164.52 
L 48.934632 158.976 
L 47.904 154.747494 
z
M 53.856 155.561305 
L 55.830852 158.976 
L 59.808 162.937006 
L 64.680706 164.52 
L 65.76 164.72709 
L 71.712 164.605295 
L 72.319259 164.52 
L 77.664 163.248941 
L 83.616 161.130135 
L 88.682591 158.976 
L 89.568 158.322441 
L 95.52 153.518717 
L 95.622719 153.432 
L 99.084819 147.888 
L 100.479561 142.344 
L 100.460489 136.8 
L 99.455433 131.256 
L 97.753352 125.712 
L 95.554479 120.168 
L 95.52 120.093153 
L 92.884618 114.624 
L 89.948582 109.08 
L 89.568 108.404284 
L 86.569983 103.536 
L 83.616 98.929093 
L 82.898355 97.992 
L 78.54101 92.448 
L 77.664 91.349572 
L 72.350873 86.904 
L 71.712 86.373861 
L 65.76 85.65432 
L 64.657563 86.904 
L 59.808 92.44707 
L 59.807735 92.448 
L 58.250275 97.992 
L 56.732718 103.536 
L 55.275231 109.08 
L 53.904793 114.624 
L 53.856 114.84094 
L 53.351057 120.168 
L 52.898609 125.712 
L 52.548383 131.256 
L 52.341579 136.8 
L 52.337654 142.344 
L 52.624641 147.888 
L 53.337015 153.432 
z
" clip-path="url(#pc4ee72664a)" style="fill: #c0df25"/>
   </g>
   <g id="PathCollection_31">
    <path d="M 53.337015 153.432 
L 52.624641 147.888 
L 52.337654 142.344 
L 52.341579 136.8 
L 52.548383 131.256 
L 52.898609 125.712 
L 53.351057 120.168 
L 53.856 114.84094 
L 53.904793 114.624 
L 55.275231 109.08 
L 56.732718 103.536 
L 58.250275 97.992 
L 59.807735 92.448 
L 59.808 92.44707 
L 64.657563 86.904 
L 65.76 85.65432 
L 71.712 86.373861 
L 72.350873 86.904 
L 77.664 91.349572 
L 78.54101 92.448 
L 82.898355 97.992 
L 83.616 98.929093 
L 86.569983 103.536 
L 89.568 108.404284 
L 89.948582 109.08 
L 92.884618 114.624 
L 95.52 120.093153 
L 95.554479 120.168 
L 97.753352 125.712 
L 99.455433 131.256 
L 100.460489 136.8 
L 100.479561 142.344 
L 99.084819 147.888 
L 95.622719 153.432 
L 95.52 153.518717 
L 89.568 158.322441 
L 88.682591 158.976 
L 83.616 161.130135 
L 77.664 163.248941 
L 72.319259 164.52 
L 71.712 164.605295 
L 65.76 164.72709 
L 64.680706 164.52 
L 59.808 162.937006 
L 55.830852 158.976 
L 53.856 155.561305 
z
" clip-path="url(#pc4ee72664a)" style="fill: #eae51a"/>
   </g>
   <g id="PathCollection_32">
    <defs>
     <path id="mbe37d62704" d="M -4.330127 4.330127 
L 4.330127 -4.330127 
M -4.330127 -4.330127 
L 4.330127 4.330127 
" style="stroke: #000000; stroke-width: 2"/>
    </defs>
    <g clip-path="url(#pc4ee72664a)">
     <use xlink:href="#mbe37d62704" x="65.76" y="146.04" style="stroke: #000000; stroke-width: 2"/>
    </g>
   </g>
   <g id="matplotlib.axis_1">
    <g id="xtick_1">
     <g id="line2d_1">
      <defs>
       <path id="m74850438d5" d="M 0 0 
L 0 3.5 
" style="stroke: #000000; stroke-width: 0.8"/>
      </defs>
      <g>
       <use xlink:href="#m74850438d5" x="75.68" y="192.24" style="stroke: #000000; stroke-width: 0.8"/>
      </g>
     </g>
     <g id="text_1">
      <!-- $\mathdefault{250}$ -->
      <g transform="translate(64.22 208.358125) scale(0.12 -0.12)">
       <defs>
        <path id="DejaVuSans-32" d="M 1228 531 
L 3431 531 
L 3431 0 
L 469 0 
L 469 531 
Q 828 903 1448 1529 
Q 2069 2156 2228 2338 
Q 2531 2678 2651 2914 
Q 2772 3150 2772 3378 
Q 2772 3750 2511 3984 
Q 2250 4219 1831 4219 
Q 1534 4219 1204 4116 
Q 875 4013 500 3803 
L 500 4441 
Q 881 4594 1212 4672 
Q 1544 4750 1819 4750 
Q 2544 4750 2975 4387 
Q 3406 4025 3406 3419 
Q 3406 3131 3298 2873 
Q 3191 2616 2906 2266 
Q 2828 2175 2409 1742 
Q 1991 1309 1228 531 
z
" transform="scale(0.015625)"/>
        <path id="DejaVuSans-35" d="M 691 4666 
L 3169 4666 
L 3169 4134 
L 1269 4134 
L 1269 2991 
Q 1406 3038 1543 3061 
Q 1681 3084 1819 3084 
Q 2600 3084 3056 2656 
Q 3513 2228 3513 1497 
Q 3513 744 3044 326 
Q 2575 -91 1722 -91 
Q 1428 -91 1123 -41 
Q 819 9 494 109 
L 494 744 
Q 775 591 1075 516 
Q 1375 441 1709 441 
Q 2250 441 2565 725 
Q 2881 1009 2881 1497 
Q 2881 1984 2565 2268 
Q 2250 2553 1709 2553 
Q 1456 2553 1204 2497 
Q 953 2441 691 2322 
L 691 4666 
z
" transform="scale(0.015625)"/>
        <path id="DejaVuSans-30" d="M 2034 4250 
Q 1547 4250 1301 3770 
Q 1056 3291 1056 2328 
Q 1056 1369 1301 889 
Q 1547 409 2034 409 
Q 2525 409 2770 889 
Q 3016 1369 3016 2328 
Q 3016 3291 2770 3770 
Q 2525 4250 2034 4250 
z
M 2034 4750 
Q 2819 4750 3233 4129 
Q 3647 3509 3647 2328 
Q 3647 1150 3233 529 
Q 2819 -91 2034 -91 
Q 1250 -91 836 529 
Q 422 1150 422 2328 
Q 422 3509 836 4129 
Q 1250 4750 2034 4750 
z
" transform="scale(0.015625)"/>
       </defs>
       <use xlink:href="#DejaVuSans-32" transform="translate(0 0.78125)"/>
       <use xlink:href="#DejaVuSans-35" transform="translate(63.623047 0.78125)"/>
       <use xlink:href="#DejaVuSans-30" transform="translate(127.246094 0.78125)"/>
      </g>
     </g>
    </g>
    <g id="xtick_2">
     <g id="line2d_2">
      <g>
       <use xlink:href="#m74850438d5" x="125.28" y="192.24" style="stroke: #000000; stroke-width: 0.8"/>
      </g>
     </g>
     <g id="text_2">
      <!-- $\mathdefault{500}$ -->
      <g transform="translate(113.82 208.358125) scale(0.12 -0.12)">
       <use xlink:href="#DejaVuSans-35" transform="translate(0 0.78125)"/>
       <use xlink:href="#DejaVuSans-30" transform="translate(63.623047 0.78125)"/>
       <use xlink:href="#DejaVuSans-30" transform="translate(127.246094 0.78125)"/>
      </g>
     </g>
    </g>
    <g id="xtick_3">
     <g id="line2d_3">
      <g>
       <use xlink:href="#m74850438d5" x="174.88" y="192.24" style="stroke: #000000; stroke-width: 0.8"/>
      </g>
     </g>
     <g id="text_3">
      <!-- $\mathdefault{750}$ -->
      <g transform="translate(163.42 208.358125) scale(0.12 -0.12)">
       <defs>
        <path id="DejaVuSans-37" d="M 525 4666 
L 3525 4666 
L 3525 4397 
L 1831 0 
L 1172 0 
L 2766 4134 
L 525 4134 
L 525 4666 
z
" transform="scale(0.015625)"/>
       </defs>
       <use xlink:href="#DejaVuSans-37" transform="translate(0 0.78125)"/>
       <use xlink:href="#DejaVuSans-35" transform="translate(63.623047 0.78125)"/>
       <use xlink:href="#DejaVuSans-30" transform="translate(127.246094 0.78125)"/>
      </g>
     </g>
    </g>
    <g id="text_4">
     <!-- Diploid N$_e$0 -->
     <g transform="translate(80 227.01375) scale(0.16 -0.16)">
      <defs>
       <path id="DejaVuSans-44" d="M 1259 4147 
L 1259 519 
L 2022 519 
Q 2988 519 3436 956 
Q 3884 1394 3884 2338 
Q 3884 3275 3436 3711 
Q 2988 4147 2022 4147 
L 1259 4147 
z
M 628 4666 
L 1925 4666 
Q 3281 4666 3915 4102 
Q 4550 3538 4550 2338 
Q 4550 1131 3912 565 
Q 3275 0 1925 0 
L 628 0 
L 628 4666 
z
" transform="scale(0.015625)"/>
       <path id="DejaVuSans-69" d="M 603 3500 
L 1178 3500 
L 1178 0 
L 603 0 
L 603 3500 
z
M 603 4863 
L 1178 4863 
L 1178 4134 
L 603 4134 
L 603 4863 
z
" transform="scale(0.015625)"/>
       <path id="DejaVuSans-70" d="M 1159 525 
L 1159 -1331 
L 581 -1331 
L 581 3500 
L 1159 3500 
L 1159 2969 
Q 1341 3281 1617 3432 
Q 1894 3584 2278 3584 
Q 2916 3584 3314 3078 
Q 3713 2572 3713 1747 
Q 3713 922 3314 415 
Q 2916 -91 2278 -91 
Q 1894 -91 1617 61 
Q 1341 213 1159 525 
z
M 3116 1747 
Q 3116 2381 2855 2742 
Q 2594 3103 2138 3103 
Q 1681 3103 1420 2742 
Q 1159 2381 1159 1747 
Q 1159 1113 1420 752 
Q 1681 391 2138 391 
Q 2594 391 2855 752 
Q 3116 1113 3116 1747 
z
" transform="scale(0.015625)"/>
       <path id="DejaVuSans-6c" d="M 603 4863 
L 1178 4863 
L 1178 0 
L 603 0 
L 603 4863 
z
" transform="scale(0.015625)"/>
       <path id="DejaVuSans-6f" d="M 1959 3097 
Q 1497 3097 1228 2736 
Q 959 2375 959 1747 
Q 959 1119 1226 758 
Q 1494 397 1959 397 
Q 2419 397 2687 759 
Q 2956 1122 2956 1747 
Q 2956 2369 2687 2733 
Q 2419 3097 1959 3097 
z
M 1959 3584 
Q 2709 3584 3137 3096 
Q 3566 2609 3566 1747 
Q 3566 888 3137 398 
Q 2709 -91 1959 -91 
Q 1206 -91 779 398 
Q 353 888 353 1747 
Q 353 2609 779 3096 
Q 1206 3584 1959 3584 
z
" transform="scale(0.015625)"/>
       <path id="DejaVuSans-64" d="M 2906 2969 
L 2906 4863 
L 3481 4863 
L 3481 0 
L 2906 0 
L 2906 525 
Q 2725 213 2448 61 
Q 2172 -91 1784 -91 
Q 1150 -91 751 415 
Q 353 922 353 1747 
Q 353 2572 751 3078 
Q 1150 3584 1784 3584 
Q 2172 3584 2448 3432 
Q 2725 3281 2906 2969 
z
M 947 1747 
Q 947 1113 1208 752 
Q 1469 391 1925 391 
Q 2381 391 2643 752 
Q 2906 1113 2906 1747 
Q 2906 2381 2643 2742 
Q 2381 3103 1925 3103 
Q 1469 3103 1208 2742 
Q 947 2381 947 1747 
z
" transform="scale(0.015625)"/>
       <path id="DejaVuSans-20" transform="scale(0.015625)"/>
       <path id="DejaVuSans-4e" d="M 628 4666 
L 1478 4666 
L 3547 763 
L 3547 4666 
L 4159 4666 
L 4159 0 
L 3309 0 
L 1241 3903 
L 1241 0 
L 628 0 
L 628 4666 
z
" transform="scale(0.015625)"/>
       <path id="DejaVuSans-Oblique-65" d="M 3078 2063 
Q 3088 2113 3092 2166 
Q 3097 2219 3097 2272 
Q 3097 2653 2873 2875 
Q 2650 3097 2266 3097 
Q 1838 3097 1509 2826 
Q 1181 2556 1013 2059 
L 3078 2063 
z
M 3578 1613 
L 903 1613 
Q 884 1494 878 1425 
Q 872 1356 872 1306 
Q 872 872 1139 634 
Q 1406 397 1894 397 
Q 2269 397 2603 481 
Q 2938 566 3225 728 
L 3116 159 
Q 2806 34 2476 -28 
Q 2147 -91 1806 -91 
Q 1078 -91 686 257 
Q 294 606 294 1247 
Q 294 1794 489 2264 
Q 684 2734 1063 3103 
Q 1306 3334 1642 3459 
Q 1978 3584 2356 3584 
Q 2950 3584 3301 3228 
Q 3653 2872 3653 2272 
Q 3653 2128 3634 1964 
Q 3616 1800 3578 1613 
z
" transform="scale(0.015625)"/>
      </defs>
      <use xlink:href="#DejaVuSans-44" transform="translate(0 0.015625)"/>
      <use xlink:href="#DejaVuSans-69" transform="translate(77.001953 0.015625)"/>
      <use xlink:href="#DejaVuSans-70" transform="translate(104.785156 0.015625)"/>
      <use xlink:href="#DejaVuSans-6c" transform="translate(168.261719 0.015625)"/>
      <use xlink:href="#DejaVuSans-6f" transform="translate(196.044922 0.015625)"/>
      <use xlink:href="#DejaVuSans-69" transform="translate(257.226562 0.015625)"/>
      <use xlink:href="#DejaVuSans-64" transform="translate(285.009766 0.015625)"/>
      <use xlink:href="#DejaVuSans-20" transform="translate(348.486328 0.015625)"/>
      <use xlink:href="#DejaVuSans-4e" transform="translate(380.273438 0.015625)"/>
      <use xlink:href="#DejaVuSans-Oblique-65" transform="translate(456.035156 -16.390625) scale(0.7)"/>
      <use xlink:href="#DejaVuSans-30" transform="translate(501.835938 0.015625)"/>
     </g>
    </g>
    <g id="text_5">
     <!-- $\times\mathdefault{10^{3}}\mathdefault{}$ -->
     <g transform="translate(188.56 221.452188) scale(0.1 -0.1)">
      <defs>
       <path id="DejaVuSans-d7" d="M 4488 3438 
L 3059 2003 
L 4488 575 
L 4116 197 
L 2681 1631 
L 1247 197 
L 878 575 
L 2303 2003 
L 878 3438 
L 1247 3816 
L 2681 2381 
L 4116 3816 
L 4488 3438 
z
" transform="scale(0.015625)"/>
       <path id="DejaVuSans-31" d="M 794 531 
L 1825 531 
L 1825 4091 
L 703 3866 
L 703 4441 
L 1819 4666 
L 2450 4666 
L 2450 531 
L 3481 531 
L 3481 0 
L 794 0 
L 794 531 
z
" transform="scale(0.015625)"/>
       <path id="DejaVuSans-33" d="M 2597 2516 
Q 3050 2419 3304 2112 
Q 3559 1806 3559 1356 
Q 3559 666 3084 287 
Q 2609 -91 1734 -91 
Q 1441 -91 1130 -33 
Q 819 25 488 141 
L 488 750 
Q 750 597 1062 519 
Q 1375 441 1716 441 
Q 2309 441 2620 675 
Q 2931 909 2931 1356 
Q 2931 1769 2642 2001 
Q 2353 2234 1838 2234 
L 1294 2234 
L 1294 2753 
L 1863 2753 
Q 2328 2753 2575 2939 
Q 2822 3125 2822 3475 
Q 2822 3834 2567 4026 
Q 2313 4219 1838 4219 
Q 1578 4219 1281 4162 
Q 984 4106 628 3988 
L 628 4550 
Q 988 4650 1302 4700 
Q 1616 4750 1894 4750 
Q 2613 4750 3031 4423 
Q 3450 4097 3450 3541 
Q 3450 3153 3228 2886 
Q 3006 2619 2597 2516 
z
" transform="scale(0.015625)"/>
      </defs>
      <use xlink:href="#DejaVuSans-d7" transform="translate(0 0.765625)"/>
      <use xlink:href="#DejaVuSans-31" transform="translate(83.789062 0.765625)"/>
      <use xlink:href="#DejaVuSans-30" transform="translate(147.412109 0.765625)"/>
      <use xlink:href="#DejaVuSans-33" transform="translate(211.992188 39.046875) scale(0.7)"/>
     </g>
    </g>
   </g>
   <g id="matplotlib.axis_2">
    <g id="ytick_1">
     <g id="line2d_4">
      <defs>
       <path id="m60eeb63a54" d="M 0 0 
L -3.5 0 
" style="stroke: #000000; stroke-width: 0.8"/>
      </defs>
      <g>
       <use xlink:href="#m60eeb63a54" x="36" y="155.28" style="stroke: #000000; stroke-width: 0.8"/>
      </g>
     </g>
     <g id="text_6">
      <!-- $\mathdefault{250}$ -->
      <g transform="translate(6.08 159.839063) scale(0.12 -0.12)">
       <use xlink:href="#DejaVuSans-32" transform="translate(0 0.78125)"/>
       <use xlink:href="#DejaVuSans-35" transform="translate(63.623047 0.78125)"/>
       <use xlink:href="#DejaVuSans-30" transform="translate(127.246094 0.78125)"/>
      </g>
     </g>
    </g>
    <g id="ytick_2">
     <g id="line2d_5">
      <g>
       <use xlink:href="#m60eeb63a54" x="36" y="109.08" style="stroke: #000000; stroke-width: 0.8"/>
      </g>
     </g>
     <g id="text_7">
      <!-- $\mathdefault{500}$ -->
      <g transform="translate(6.08 113.639062) scale(0.12 -0.12)">
       <use xlink:href="#DejaVuSans-35" transform="translate(0 0.78125)"/>
       <use xlink:href="#DejaVuSans-30" transform="translate(63.623047 0.78125)"/>
       <use xlink:href="#DejaVuSans-30" transform="translate(127.246094 0.78125)"/>
      </g>
     </g>
    </g>
    <g id="ytick_3">
     <g id="line2d_6">
      <g>
       <use xlink:href="#m60eeb63a54" x="36" y="62.88" style="stroke: #000000; stroke-width: 0.8"/>
      </g>
     </g>
     <g id="text_8">
      <!-- $\mathdefault{750}$ -->
      <g transform="translate(6.08 67.439062) scale(0.12 -0.12)">
       <use xlink:href="#DejaVuSans-37" transform="translate(0 0.78125)"/>
       <use xlink:href="#DejaVuSans-35" transform="translate(63.623047 0.78125)"/>
       <use xlink:href="#DejaVuSans-30" transform="translate(127.246094 0.78125)"/>
      </g>
     </g>
    </g>
    <g id="text_9">
     <!-- Diploid N$_e$1 -->
     <g transform="translate(-1.28 154.36) rotate(-90) scale(0.16 -0.16)">
      <use xlink:href="#DejaVuSans-44" transform="translate(0 0.015625)"/>
      <use xlink:href="#DejaVuSans-69" transform="translate(77.001953 0.015625)"/>
      <use xlink:href="#DejaVuSans-70" transform="translate(104.785156 0.015625)"/>
      <use xlink:href="#DejaVuSans-6c" transform="translate(168.261719 0.015625)"/>
      <use xlink:href="#DejaVuSans-6f" transform="translate(196.044922 0.015625)"/>
      <use xlink:href="#DejaVuSans-69" transform="translate(257.226562 0.015625)"/>
      <use xlink:href="#DejaVuSans-64" transform="translate(285.009766 0.015625)"/>
      <use xlink:href="#DejaVuSans-20" transform="translate(348.486328 0.015625)"/>
      <use xlink:href="#DejaVuSans-4e" transform="translate(380.273438 0.015625)"/>
      <use xlink:href="#DejaVuSans-Oblique-65" transform="translate(456.035156 -16.390625) scale(0.7)"/>
      <use xlink:href="#DejaVuSans-31" transform="translate(501.835938 0.015625)"/>
     </g>
    </g>
    <g id="text_10">
     <!-- $\times\mathdefault{10^{3}}\mathdefault{}$ -->
     <g transform="translate(36 22.92) scale(0.1 -0.1)">
      <use xlink:href="#DejaVuSans-d7" transform="translate(0 0.765625)"/>
      <use xlink:href="#DejaVuSans-31" transform="translate(83.789062 0.765625)"/>
      <use xlink:href="#DejaVuSans-30" transform="translate(147.412109 0.765625)"/>
      <use xlink:href="#DejaVuSans-33" transform="translate(211.992188 39.046875) scale(0.7)"/>
     </g>
    </g>
   </g>
   <g id="patch_3">
    <path d="M 36 192.24 
L 36 25.92 
" style="fill: none; stroke: #000000; stroke-width: 0.8; stroke-linejoin: miter; stroke-linecap: square"/>
   </g>
   <g id="patch_4">
    <path d="M 214.56 192.24 
L 214.56 25.92 
" style="fill: none; stroke: #000000; stroke-width: 0.8; stroke-linejoin: miter; stroke-linecap: square"/>
   </g>
   <g id="patch_5">
    <path d="M 36 192.24 
L 214.56 192.24 
" style="fill: none; stroke: #000000; stroke-width: 0.8; stroke-linejoin: miter; stroke-linecap: square"/>
   </g>
   <g id="patch_6">
    <path d="M 36 25.92 
L 214.56 25.92 
" style="fill: none; stroke: #000000; stroke-width: 0.8; stroke-linejoin: miter; stroke-linecap: square"/>
   </g>
   <g id="text_11">
    <!-- Ne0Ne1-MSC-R-P2-S4 -->
    <g transform="translate(38.85125 10.92) scale(0.16 -0.16)">
     <defs>
      <path id="DejaVuSans-65" d="M 3597 1894 
L 3597 1613 
L 953 1613 
Q 991 1019 1311 708 
Q 1631 397 2203 397 
Q 2534 397 2845 478 
Q 3156 559 3463 722 
L 3463 178 
Q 3153 47 2828 -22 
Q 2503 -91 2169 -91 
Q 1331 -91 842 396 
Q 353 884 353 1716 
Q 353 2575 817 3079 
Q 1281 3584 2069 3584 
Q 2775 3584 3186 3129 
Q 3597 2675 3597 1894 
z
M 3022 2063 
Q 3016 2534 2758 2815 
Q 2500 3097 2075 3097 
Q 1594 3097 1305 2825 
Q 1016 2553 972 2059 
L 3022 2063 
z
" transform="scale(0.015625)"/>
      <path id="DejaVuSans-2d" d="M 313 2009 
L 1997 2009 
L 1997 1497 
L 313 1497 
L 313 2009 
z
" transform="scale(0.015625)"/>
      <path id="DejaVuSans-4d" d="M 628 4666 
L 1569 4666 
L 2759 1491 
L 3956 4666 
L 4897 4666 
L 4897 0 
L 4281 0 
L 4281 4097 
L 3078 897 
L 2444 897 
L 1241 4097 
L 1241 0 
L 628 0 
L 628 4666 
z
" transform="scale(0.015625)"/>
      <path id="DejaVuSans-53" d="M 3425 4513 
L 3425 3897 
Q 3066 4069 2747 4153 
Q 2428 4238 2131 4238 
Q 1616 4238 1336 4038 
Q 1056 3838 1056 3469 
Q 1056 3159 1242 3001 
Q 1428 2844 1947 2747 
L 2328 2669 
Q 3034 2534 3370 2195 
Q 3706 1856 3706 1288 
Q 3706 609 3251 259 
Q 2797 -91 1919 -91 
Q 1588 -91 1214 -16 
Q 841 59 441 206 
L 441 856 
Q 825 641 1194 531 
Q 1563 422 1919 422 
Q 2459 422 2753 634 
Q 3047 847 3047 1241 
Q 3047 1584 2836 1778 
Q 2625 1972 2144 2069 
L 1759 2144 
Q 1053 2284 737 2584 
Q 422 2884 422 3419 
Q 422 4038 858 4394 
Q 1294 4750 2059 4750 
Q 2388 4750 2728 4690 
Q 3069 4631 3425 4513 
z
" transform="scale(0.015625)"/>
      <path id="DejaVuSans-43" d="M 4122 4306 
L 4122 3641 
Q 3803 3938 3442 4084 
Q 3081 4231 2675 4231 
Q 1875 4231 1450 3742 
Q 1025 3253 1025 2328 
Q 1025 1406 1450 917 
Q 1875 428 2675 428 
Q 3081 428 3442 575 
Q 3803 722 4122 1019 
L 4122 359 
Q 3791 134 3420 21 
Q 3050 -91 2638 -91 
Q 1578 -91 968 557 
Q 359 1206 359 2328 
Q 359 3453 968 4101 
Q 1578 4750 2638 4750 
Q 3056 4750 3426 4639 
Q 3797 4528 4122 4306 
z
" transform="scale(0.015625)"/>
      <path id="DejaVuSans-52" d="M 2841 2188 
Q 3044 2119 3236 1894 
Q 3428 1669 3622 1275 
L 4263 0 
L 3584 0 
L 2988 1197 
Q 2756 1666 2539 1819 
Q 2322 1972 1947 1972 
L 1259 1972 
L 1259 0 
L 628 0 
L 628 4666 
L 2053 4666 
Q 2853 4666 3247 4331 
Q 3641 3997 3641 3322 
Q 3641 2881 3436 2590 
Q 3231 2300 2841 2188 
z
M 1259 4147 
L 1259 2491 
L 2053 2491 
Q 2509 2491 2742 2702 
Q 2975 2913 2975 3322 
Q 2975 3731 2742 3939 
Q 2509 4147 2053 4147 
L 1259 4147 
z
" transform="scale(0.015625)"/>
      <path id="DejaVuSans-50" d="M 1259 4147 
L 1259 2394 
L 2053 2394 
Q 2494 2394 2734 2622 
Q 2975 2850 2975 3272 
Q 2975 3691 2734 3919 
Q 2494 4147 2053 4147 
L 1259 4147 
z
M 628 4666 
L 2053 4666 
Q 2838 4666 3239 4311 
Q 3641 3956 3641 3272 
Q 3641 2581 3239 2228 
Q 2838 1875 2053 1875 
L 1259 1875 
L 1259 0 
L 628 0 
L 628 4666 
z
" transform="scale(0.015625)"/>
      <path id="DejaVuSans-34" d="M 2419 4116 
L 825 1625 
L 2419 1625 
L 2419 4116 
z
M 2253 4666 
L 3047 4666 
L 3047 1625 
L 3713 1625 
L 3713 1100 
L 3047 1100 
L 3047 0 
L 2419 0 
L 2419 1100 
L 313 1100 
L 313 1709 
L 2253 4666 
z
" transform="scale(0.015625)"/>
     </defs>
     <use xlink:href="#DejaVuSans-4e"/>
     <use xlink:href="#DejaVuSans-65" x="74.804688"/>
     <use xlink:href="#DejaVuSans-30" x="136.328125"/>
     <use xlink:href="#DejaVuSans-4e" x="199.951172"/>
     <use xlink:href="#DejaVuSans-65" x="274.755859"/>
     <use xlink:href="#DejaVuSans-31" x="336.279297"/>
     <use xlink:href="#DejaVuSans-2d" x="399.902344"/>
     <use xlink:href="#DejaVuSans-4d" x="435.986328"/>
     <use xlink:href="#DejaVuSans-53" x="522.265625"/>
     <use xlink:href="#DejaVuSans-43" x="585.742188"/>
     <use xlink:href="#DejaVuSans-2d" x="655.566406"/>
     <use xlink:href="#DejaVuSans-52" x="691.650391"/>
     <use xlink:href="#DejaVuSans-2d" x="757.132812"/>
     <use xlink:href="#DejaVuSans-50" x="793.216797"/>
     <use xlink:href="#DejaVuSans-32" x="853.519531"/>
     <use xlink:href="#DejaVuSans-2d" x="917.142578"/>
     <use xlink:href="#DejaVuSans-53" x="953.226562"/>
     <use xlink:href="#DejaVuSans-34" x="1016.703125"/>
    </g>
   </g>
  </g>
  <g id="axes_2">
   <g id="patch_7">
    <path d="M 225.72 192.24 
L 234.036 192.24 
L 234.036 25.92 
L 225.72 25.92 
z
" style="fill: #ffffff"/>
   </g>
   <g id="QuadMesh_1">
    <path d="M 225.72 192.24 
L 234.036 192.24 
L 234.036 186.874839 
L 225.72 186.874839 
L 225.72 192.24 
" clip-path="url(#p0da15c1413)" style="fill: #440154"/>
    <path d="M 225.72 186.874839 
L 234.036 186.874839 
L 234.036 181.509677 
L 225.72 181.509677 
L 225.72 186.874839 
" clip-path="url(#p0da15c1413)" style="fill: #440154"/>
    <path d="M 225.72 181.509677 
L 234.036 181.509677 
L 234.036 176.144516 
L 225.72 176.144516 
L 225.72 181.509677 
" clip-path="url(#p0da15c1413)" style="fill: #440154"/>
    <path d="M 225.72 176.144516 
L 234.036 176.144516 
L 234.036 170.779355 
L 225.72 170.779355 
L 225.72 176.144516 
" clip-path="url(#p0da15c1413)" style="fill: #440154"/>
    <path d="M 225.72 170.779355 
L 234.036 170.779355 
L 234.036 165.414194 
L 225.72 165.414194 
L 225.72 170.779355 
" clip-path="url(#p0da15c1413)" style="fill: #440154"/>
    <path d="M 225.72 165.414194 
L 234.036 165.414194 
L 234.036 160.049032 
L 225.72 160.049032 
L 225.72 165.414194 
" clip-path="url(#p0da15c1413)" style="fill: #440154"/>
    <path d="M 225.72 160.049032 
L 234.036 160.049032 
L 234.036 154.683871 
L 225.72 154.683871 
L 225.72 160.049032 
" clip-path="url(#p0da15c1413)" style="fill: #440154"/>
    <path d="M 225.72 154.683871 
L 234.036 154.683871 
L 234.036 149.31871 
L 225.72 149.31871 
L 225.72 154.683871 
" clip-path="url(#p0da15c1413)" style="fill: #440154"/>
    <path d="M 225.72 149.31871 
L 234.036 149.31871 
L 234.036 143.953548 
L 225.72 143.953548 
L 225.72 149.31871 
" clip-path="url(#p0da15c1413)" style="fill: #440154"/>
    <path d="M 225.72 143.953548 
L 234.036 143.953548 
L 234.036 138.588387 
L 225.72 138.588387 
L 225.72 143.953548 
" clip-path="url(#p0da15c1413)" style="fill: #440154"/>
    <path d="M 225.72 138.588387 
L 234.036 138.588387 
L 234.036 133.223226 
L 225.72 133.223226 
L 225.72 138.588387 
" clip-path="url(#p0da15c1413)" style="fill: #440154"/>
    <path d="M 225.72 133.223226 
L 234.036 133.223226 
L 234.036 127.858065 
L 225.72 127.858065 
L 225.72 133.223226 
" clip-path="url(#p0da15c1413)" style="fill: #440154"/>
    <path d="M 225.72 127.858065 
L 234.036 127.858065 
L 234.036 122.492903 
L 225.72 122.492903 
L 225.72 127.858065 
" clip-path="url(#p0da15c1413)" style="fill: #440154"/>
    <path d="M 225.72 122.492903 
L 234.036 122.492903 
L 234.036 117.127742 
L 225.72 117.127742 
L 225.72 122.492903 
" clip-path="url(#p0da15c1413)" style="fill: #440154"/>
    <path d="M 225.72 117.127742 
L 234.036 117.127742 
L 234.036 111.762581 
L 225.72 111.762581 
L 225.72 117.127742 
" clip-path="url(#p0da15c1413)" style="fill: #440154"/>
    <path d="M 225.72 111.762581 
L 234.036 111.762581 
L 234.036 106.397419 
L 225.72 106.397419 
L 225.72 111.762581 
" clip-path="url(#p0da15c1413)" style="fill: #440154"/>
    <path d="M 225.72 106.397419 
L 234.036 106.397419 
L 234.036 101.032258 
L 225.72 101.032258 
L 225.72 106.397419 
" clip-path="url(#p0da15c1413)" style="fill: #481769"/>
    <path d="M 225.72 101.032258 
L 234.036 101.032258 
L 234.036 95.667097 
L 225.72 95.667097 
L 225.72 101.032258 
" clip-path="url(#p0da15c1413)" style="fill: #472d7b"/>
    <path d="M 225.72 95.667097 
L 234.036 95.667097 
L 234.036 90.301935 
L 225.72 90.301935 
L 225.72 95.667097 
" clip-path="url(#p0da15c1413)" style="fill: #424086"/>
    <path d="M 225.72 90.301935 
L 234.036 90.301935 
L 234.036 84.936774 
L 225.72 84.936774 
L 225.72 90.301935 
" clip-path="url(#p0da15c1413)" style="fill: #3a538b"/>
    <path d="M 225.72 84.936774 
L 234.036 84.936774 
L 234.036 79.571613 
L 225.72 79.571613 
L 225.72 84.936774 
" clip-path="url(#p0da15c1413)" style="fill: #32658e"/>
    <path d="M 225.72 79.571613 
L 234.036 79.571613 
L 234.036 74.206452 
L 225.72 74.206452 
L 225.72 79.571613 
" clip-path="url(#p0da15c1413)" style="fill: #2b748e"/>
    <path d="M 225.72 74.206452 
L 234.036 74.206452 
L 234.036 68.84129 
L 225.72 68.84129 
L 225.72 74.206452 
" clip-path="url(#p0da15c1413)" style="fill: #25848e"/>
    <path d="M 225.72 68.84129 
L 234.036 68.84129 
L 234.036 63.476129 
L 225.72 63.476129 
L 225.72 68.84129 
" clip-path="url(#p0da15c1413)" style="fill: #20938c"/>
    <path d="M 225.72 63.476129 
L 234.036 63.476129 
L 234.036 58.110968 
L 225.72 58.110968 
L 225.72 63.476129 
" clip-path="url(#p0da15c1413)" style="fill: #20a386"/>
    <path d="M 225.72 58.110968 
L 234.036 58.110968 
L 234.036 52.745806 
L 225.72 52.745806 
L 225.72 58.110968 
" clip-path="url(#p0da15c1413)" style="fill: #2db27d"/>
    <path d="M 225.72 52.745806 
L 234.036 52.745806 
L 234.036 47.380645 
L 225.72 47.380645 
L 225.72 52.745806 
" clip-path="url(#p0da15c1413)" style="fill: #48c16e"/>
    <path d="M 225.72 47.380645 
L 234.036 47.380645 
L 234.036 42.015484 
L 225.72 42.015484 
L 225.72 47.380645 
" clip-path="url(#p0da15c1413)" style="fill: #6ccd5a"/>
    <path d="M 225.72 42.015484 
L 234.036 42.015484 
L 234.036 36.650323 
L 225.72 36.650323 
L 225.72 42.015484 
" clip-path="url(#p0da15c1413)" style="fill: #93d741"/>
    <path d="M 225.72 36.650323 
L 234.036 36.650323 
L 234.036 31.285161 
L 225.72 31.285161 
L 225.72 36.650323 
" clip-path="url(#p0da15c1413)" style="fill: #c0df25"/>
    <path d="M 225.72 31.285161 
L 234.036 31.285161 
L 234.036 25.92 
L 225.72 25.92 
L 225.72 31.285161 
" clip-path="url(#p0da15c1413)" style="fill: #eae51a"/>
   </g>
   <g id="matplotlib.axis_3"/>
   <g id="matplotlib.axis_4">
    <g id="ytick_4">
     <g id="line2d_7">
      <defs>
       <path id="m2a7e82afd3" d="M 0 0 
L 3.5 0 
" style="stroke: #000000; stroke-width: 0.8"/>
      </defs>
      <g>
       <use xlink:href="#m2a7e82afd3" x="234.036" y="176.144516" style="stroke: #000000; stroke-width: 0.8"/>
      </g>
     </g>
     <g id="text_12">
      <!-- 5680 -->
      <g transform="translate(241.036 179.943735) scale(0.1 -0.1)">
       <defs>
        <path id="DejaVuSans-2212" d="M 678 2272 
L 4684 2272 
L 4684 1741 
L 678 1741 
L 678 2272 
z
" transform="scale(0.015625)"/>
        <path id="DejaVuSans-36" d="M 2113 2584 
Q 1688 2584 1439 2293 
Q 1191 2003 1191 1497 
Q 1191 994 1439 701 
Q 1688 409 2113 409 
Q 2538 409 2786 701 
Q 3034 994 3034 1497 
Q 3034 2003 2786 2293 
Q 2538 2584 2113 2584 
z
M 3366 4563 
L 3366 3988 
Q 3128 4100 2886 4159 
Q 2644 4219 2406 4219 
Q 1781 4219 1451 3797 
Q 1122 3375 1075 2522 
Q 1259 2794 1537 2939 
Q 1816 3084 2150 3084 
Q 2853 3084 3261 2657 
Q 3669 2231 3669 1497 
Q 3669 778 3244 343 
Q 2819 -91 2113 -91 
Q 1303 -91 875 529 
Q 447 1150 447 2328 
Q 447 3434 972 4092 
Q 1497 4750 2381 4750 
Q 2619 4750 2861 4703 
Q 3103 4656 3366 4563 
z
" transform="scale(0.015625)"/>
        <path id="DejaVuSans-38" d="M 2034 2216 
Q 1584 2216 1326 1975 
Q 1069 1734 1069 1313 
Q 1069 891 1326 650 
Q 1584 409 2034 409 
Q 2484 409 2743 651 
Q 3003 894 3003 1313 
Q 3003 1734 2745 1975 
Q 2488 2216 2034 2216 
z
M 1403 2484 
Q 997 2584 770 2862 
Q 544 3141 544 3541 
Q 544 4100 942 4425 
Q 1341 4750 2034 4750 
Q 2731 4750 3128 4425 
Q 3525 4100 3525 3541 
Q 3525 3141 3298 2862 
Q 3072 2584 2669 2484 
Q 3125 2378 3379 2068 
Q 3634 1759 3634 1313 
Q 3634 634 3220 271 
Q 2806 -91 2034 -91 
Q 1263 -91 848 271 
Q 434 634 434 1313 
Q 434 1759 690 2068 
Q 947 2378 1403 2484 
z
M 1172 3481 
Q 1172 3119 1398 2916 
Q 1625 2713 2034 2713 
Q 2441 2713 2670 2916 
Q 2900 3119 2900 3481 
Q 2900 3844 2670 4047 
Q 2441 4250 2034 4250 
Q 1625 4250 1398 4047 
Q 1172 3844 1172 3481 
z
" transform="scale(0.015625)"/>
       </defs>
       <use xlink:href="#DejaVuSans-2212"/>
       <use xlink:href="#DejaVuSans-35" x="83.789062"/>
       <use xlink:href="#DejaVuSans-36" x="147.412109"/>
       <use xlink:href="#DejaVuSans-38" x="211.035156"/>
       <use xlink:href="#DejaVuSans-30" x="274.658203"/>
      </g>
     </g>
    </g>
    <g id="ytick_5">
     <g id="line2d_8">
      <g>
       <use xlink:href="#m2a7e82afd3" x="234.036" y="154.683871" style="stroke: #000000; stroke-width: 0.8"/>
      </g>
     </g>
     <g id="text_13">
      <!-- 5600 -->
      <g transform="translate(241.036 158.48309) scale(0.1 -0.1)">
       <use xlink:href="#DejaVuSans-2212"/>
       <use xlink:href="#DejaVuSans-35" x="83.789062"/>
       <use xlink:href="#DejaVuSans-36" x="147.412109"/>
       <use xlink:href="#DejaVuSans-30" x="211.035156"/>
       <use xlink:href="#DejaVuSans-30" x="274.658203"/>
      </g>
     </g>
    </g>
    <g id="ytick_6">
     <g id="line2d_9">
      <g>
       <use xlink:href="#m2a7e82afd3" x="234.036" y="133.223226" style="stroke: #000000; stroke-width: 0.8"/>
      </g>
     </g>
     <g id="text_14">
      <!-- 5520 -->
      <g transform="translate(241.036 137.022445) scale(0.1 -0.1)">
       <use xlink:href="#DejaVuSans-2212"/>
       <use xlink:href="#DejaVuSans-35" x="83.789062"/>
       <use xlink:href="#DejaVuSans-35" x="147.412109"/>
       <use xlink:href="#DejaVuSans-32" x="211.035156"/>
       <use xlink:href="#DejaVuSans-30" x="274.658203"/>
      </g>
     </g>
    </g>
    <g id="ytick_7">
     <g id="line2d_10">
      <g>
       <use xlink:href="#m2a7e82afd3" x="234.036" y="111.762581" style="stroke: #000000; stroke-width: 0.8"/>
      </g>
     </g>
     <g id="text_15">
      <!-- 5440 -->
      <g transform="translate(241.036 115.561799) scale(0.1 -0.1)">
       <use xlink:href="#DejaVuSans-2212"/>
       <use xlink:href="#DejaVuSans-35" x="83.789062"/>
       <use xlink:href="#DejaVuSans-34" x="147.412109"/>
       <use xlink:href="#DejaVuSans-34" x="211.035156"/>
       <use xlink:href="#DejaVuSans-30" x="274.658203"/>
      </g>
     </g>
    </g>
    <g id="ytick_8">
     <g id="line2d_11">
      <g>
       <use xlink:href="#m2a7e82afd3" x="234.036" y="90.301935" style="stroke: #000000; stroke-width: 0.8"/>
      </g>
     </g>
     <g id="text_16">
      <!-- 5360 -->
      <g transform="translate(241.036 94.101154) scale(0.1 -0.1)">
       <use xlink:href="#DejaVuSans-2212"/>
       <use xlink:href="#DejaVuSans-35" x="83.789062"/>
       <use xlink:href="#DejaVuSans-33" x="147.412109"/>
       <use xlink:href="#DejaVuSans-36" x="211.035156"/>
       <use xlink:href="#DejaVuSans-30" x="274.658203"/>
      </g>
     </g>
    </g>
    <g id="ytick_9">
     <g id="line2d_12">
      <g>
       <use xlink:href="#m2a7e82afd3" x="234.036" y="68.84129" style="stroke: #000000; stroke-width: 0.8"/>
      </g>
     </g>
     <g id="text_17">
      <!-- 5280 -->
      <g transform="translate(241.036 72.640509) scale(0.1 -0.1)">
       <use xlink:href="#DejaVuSans-2212"/>
       <use xlink:href="#DejaVuSans-35" x="83.789062"/>
       <use xlink:href="#DejaVuSans-32" x="147.412109"/>
       <use xlink:href="#DejaVuSans-38" x="211.035156"/>
       <use xlink:href="#DejaVuSans-30" x="274.658203"/>
      </g>
     </g>
    </g>
    <g id="ytick_10">
     <g id="line2d_13">
      <g>
       <use xlink:href="#m2a7e82afd3" x="234.036" y="47.380645" style="stroke: #000000; stroke-width: 0.8"/>
      </g>
     </g>
     <g id="text_18">
      <!-- 5200 -->
      <g transform="translate(241.036 51.179864) scale(0.1 -0.1)">
       <use xlink:href="#DejaVuSans-2212"/>
       <use xlink:href="#DejaVuSans-35" x="83.789062"/>
       <use xlink:href="#DejaVuSans-32" x="147.412109"/>
       <use xlink:href="#DejaVuSans-30" x="211.035156"/>
       <use xlink:href="#DejaVuSans-30" x="274.658203"/>
      </g>
     </g>
    </g>
    <g id="ytick_11">
     <g id="line2d_14">
      <g>
       <use xlink:href="#m2a7e82afd3" x="234.036" y="25.92" style="stroke: #000000; stroke-width: 0.8"/>
      </g>
     </g>
     <g id="text_19">
      <!-- 5120 -->
      <g transform="translate(241.036 29.719219) scale(0.1 -0.1)">
       <use xlink:href="#DejaVuSans-2212"/>
       <use xlink:href="#DejaVuSans-35" x="83.789062"/>
       <use xlink:href="#DejaVuSans-31" x="147.412109"/>
       <use xlink:href="#DejaVuSans-32" x="211.035156"/>
       <use xlink:href="#DejaVuSans-30" x="274.658203"/>
      </g>
     </g>
    </g>
    <g id="text_20">
     <!-- log likelihood -->
     <g transform="translate(287.983813 148.704375) rotate(-90) scale(0.12 -0.12)">
      <defs>
       <path id="DejaVuSans-67" d="M 2906 1791 
Q 2906 2416 2648 2759 
Q 2391 3103 1925 3103 
Q 1463 3103 1205 2759 
Q 947 2416 947 1791 
Q 947 1169 1205 825 
Q 1463 481 1925 481 
Q 2391 481 2648 825 
Q 2906 1169 2906 1791 
z
M 3481 434 
Q 3481 -459 3084 -895 
Q 2688 -1331 1869 -1331 
Q 1566 -1331 1297 -1286 
Q 1028 -1241 775 -1147 
L 775 -588 
Q 1028 -725 1275 -790 
Q 1522 -856 1778 -856 
Q 2344 -856 2625 -561 
Q 2906 -266 2906 331 
L 2906 616 
Q 2728 306 2450 153 
Q 2172 0 1784 0 
Q 1141 0 747 490 
Q 353 981 353 1791 
Q 353 2603 747 3093 
Q 1141 3584 1784 3584 
Q 2172 3584 2450 3431 
Q 2728 3278 2906 2969 
L 2906 3500 
L 3481 3500 
L 3481 434 
z
" transform="scale(0.015625)"/>
       <path id="DejaVuSans-6b" d="M 581 4863 
L 1159 4863 
L 1159 1991 
L 2875 3500 
L 3609 3500 
L 1753 1863 
L 3688 0 
L 2938 0 
L 1159 1709 
L 1159 0 
L 581 0 
L 581 4863 
z
" transform="scale(0.015625)"/>
       <path id="DejaVuSans-68" d="M 3513 2113 
L 3513 0 
L 2938 0 
L 2938 2094 
Q 2938 2591 2744 2837 
Q 2550 3084 2163 3084 
Q 1697 3084 1428 2787 
Q 1159 2491 1159 1978 
L 1159 0 
L 581 0 
L 581 4863 
L 1159 4863 
L 1159 2956 
Q 1366 3272 1645 3428 
Q 1925 3584 2291 3584 
Q 2894 3584 3203 3211 
Q 3513 2838 3513 2113 
z
" transform="scale(0.015625)"/>
      </defs>
      <use xlink:href="#DejaVuSans-6c"/>
      <use xlink:href="#DejaVuSans-6f" x="27.783203"/>
      <use xlink:href="#DejaVuSans-67" x="88.964844"/>
      <use xlink:href="#DejaVuSans-20" x="152.441406"/>
      <use xlink:href="#DejaVuSans-6c" x="184.228516"/>
      <use xlink:href="#DejaVuSans-69" x="212.011719"/>
      <use xlink:href="#DejaVuSans-6b" x="239.794922"/>
      <use xlink:href="#DejaVuSans-65" x="294.080078"/>
      <use xlink:href="#DejaVuSans-6c" x="355.603516"/>
      <use xlink:href="#DejaVuSans-69" x="383.386719"/>
      <use xlink:href="#DejaVuSans-68" x="411.169922"/>
      <use xlink:href="#DejaVuSans-6f" x="474.548828"/>
      <use xlink:href="#DejaVuSans-6f" x="535.730469"/>
      <use xlink:href="#DejaVuSans-64" x="596.912109"/>
     </g>
    </g>
    <g id="text_21">
     <!-- 1e3 -->
     <g transform="translate(215.157875 22.92) scale(0.1 -0.1)">
      <use xlink:href="#DejaVuSans-31"/>
      <use xlink:href="#DejaVuSans-65" x="63.623047"/>
      <use xlink:href="#DejaVuSans-33" x="125.146484"/>
     </g>
    </g>
   </g>
   <g id="LineCollection_1"/>
   <g id="patch_8">
    <path d="M 225.72 192.24 
L 229.878 192.24 
L 234.036 192.24 
L 234.036 25.92 
L 229.878 25.92 
L 225.72 25.92 
L 225.72 192.24 
z
" style="fill: none; stroke: #000000; stroke-width: 0.8; stroke-linejoin: miter; stroke-linecap: square"/>
   </g>
  </g>
 </g>
 <defs>
  <clipPath id="pc4ee72664a">
   <rect x="36" y="25.92" width="178.56" height="166.32"/>
  </clipPath>
  <clipPath id="p0da15c1413">
   <rect x="225.72" y="25.92" width="8.316" height="166.32"/>
  </clipPath>
 </defs>
</svg>
