<?xml version="1.0" encoding="utf-8" standalone="no"?>
<!DOCTYPE svg PUBLIC "-//W3C//DTD SVG 1.1//EN"
  "http://www.w3.org/Graphics/SVG/1.1/DTD/svg11.dtd">
<svg xmlns:xlink="http://www.w3.org/1999/xlink" width="288pt" height="216pt" viewBox="0 0 288 216" xmlns="http://www.w3.org/2000/svg" version="1.1">
 <metadata>
  <rdf:RDF xmlns:dc="http://purl.org/dc/elements/1.1/" xmlns:cc="http://creativecommons.org/ns#" xmlns:rdf="http://www.w3.org/1999/02/22-rdf-syntax-ns#">
   <cc:Work>
    <dc:type rdf:resource="http://purl.org/dc/dcmitype/StillImage"/>
    <dc:date>2023-07-18T17:18:30.189133</dc:date>
    <dc:format>image/svg+xml</dc:format>
    <dc:creator>
     <cc:Agent>
      <dc:title>Matplotlib v3.7.1, https://matplotlib.org/</dc:title>
     </cc:Agent>
    </dc:creator>
   </cc:Work>
  </rdf:RDF>
 </metadata>
 <defs>
  <style type="text/css">*{stroke-linejoin: round; stroke-linecap: butt}</style>
 </defs>
 <g id="figure_1">
  <g id="patch_1">
   <path d="M 0 216 
L 288 216 
L 288 0 
L 0 0 
z
" style="fill: #ffffff"/>
  </g>
  <g id="axes_1">
   <g id="patch_2">
    <path d="M 36 192.24 
L 214.56 192.24 
L 214.56 25.92 
L 36 25.92 
z
" style="fill: #ffffff"/>
   </g>
   <g id="PathCollection_1">
    <path d="M 37.088467 192.24 
L 36 192.24 
L 36 191.851081 
z
" clip-path="url(#pdcef18fc7b)" style="fill: #440154"/>
   </g>
   <g id="PathCollection_2">
    <path d="M 38.848519 192.24 
L 37.088467 192.24 
L 36 191.851081 
L 36 191.222198 
z
" clip-path="url(#pdcef18fc7b)" style="fill: #440154"/>
   </g>
   <g id="PathCollection_3">
    <path d="M 40.608571 192.24 
L 38.848519 192.24 
L 36 191.222198 
L 36 190.593314 
z
" clip-path="url(#pdcef18fc7b)" style="fill: #440154"/>
   </g>
   <g id="PathCollection_4">
    <path d="M 41.952 192.091137 
L 43.080309 192.24 
L 41.952 192.24 
L 40.608571 192.24 
L 36 190.593314 
L 36 189.964431 
z
" clip-path="url(#pdcef18fc7b)" style="fill: #440154"/>
   </g>
   <g id="PathCollection_5">
    <path d="M 41.952 191.462256 
L 47.846922 192.24 
L 43.080309 192.24 
L 41.952 192.091137 
L 36 189.964431 
L 36 189.335548 
z
" clip-path="url(#pdcef18fc7b)" style="fill: #440154"/>
    <path d="M 143.136 192.234735 
L 149.088 192.180745 
L 155.04 192.127855 
L 160.992 192.076091 
L 166.944 192.025461 
L 172.896 191.975958 
L 178.848 191.927566 
L 184.8 191.880265 
L 190.752 191.834028 
L 196.704 191.788826 
L 202.656 191.744627 
L 208.608 191.701402 
L 214.56 191.659117 
L 214.56 192.24 
L 208.608 192.24 
L 202.656 192.24 
L 196.704 192.24 
L 190.752 192.24 
L 184.8 192.24 
L 178.848 192.24 
L 172.896 192.24 
L 166.944 192.24 
L 160.992 192.24 
L 155.04 192.24 
L 149.088 192.24 
L 143.136 192.24 
L 142.566651 192.24 
z
" clip-path="url(#pdcef18fc7b)" style="fill: #440154"/>
   </g>
   <g id="PathCollection_6">
    <path d="M 41.952 190.833375 
L 47.904 191.618651 
L 53.856 191.964856 
L 59.808 192.122785 
L 65.76 192.187147 
L 71.712 192.200604 
L 77.664 192.184724 
L 83.616 192.151329 
L 89.568 192.1073 
L 95.52 192.056822 
L 101.472 192.00253 
L 107.424 191.946125 
L 113.376 191.888727 
L 119.328 191.831082 
L 125.28 191.773689 
L 131.232 191.716884 
L 137.184 191.660889 
L 143.136 191.605851 
L 149.088 191.551861 
L 155.04 191.49897 
L 160.992 191.447206 
L 166.944 191.396575 
L 172.896 191.347071 
L 178.848 191.29868 
L 184.8 191.251378 
L 190.752 191.205141 
L 196.704 191.159938 
L 202.656 191.115739 
L 208.608 191.072513 
L 214.56 191.030228 
L 214.56 191.659117 
L 208.608 191.701402 
L 202.656 191.744627 
L 196.704 191.788826 
L 190.752 191.834028 
L 184.8 191.880265 
L 178.848 191.927566 
L 172.896 191.975958 
L 166.944 192.025461 
L 160.992 192.076091 
L 155.04 192.127855 
L 149.088 192.180745 
L 143.136 192.234735 
L 142.566651 192.24 
L 137.184 192.24 
L 131.232 192.24 
L 125.28 192.24 
L 119.328 192.24 
L 113.376 192.24 
L 107.424 192.24 
L 101.472 192.24 
L 95.52 192.24 
L 89.568 192.24 
L 83.616 192.24 
L 77.664 192.24 
L 71.712 192.24 
L 65.76 192.24 
L 59.808 192.24 
L 53.856 192.24 
L 47.904 192.24 
L 47.846922 192.24 
L 41.952 191.462256 
L 36 189.335548 
L 36 188.706665 
z
" clip-path="url(#pdcef18fc7b)" style="fill: #440154"/>
   </g>
   <g id="PathCollection_7">
    <path d="M 41.952 190.204494 
L 47.904 190.989772 
L 53.856 191.335978 
L 59.808 191.493908 
L 65.76 191.55827 
L 71.712 191.571727 
L 77.664 191.555846 
L 83.616 191.522451 
L 89.568 191.478421 
L 95.52 191.427943 
L 101.472 191.37365 
L 107.424 191.317245 
L 113.376 191.259846 
L 119.328 191.2022 
L 125.28 191.144806 
L 131.232 191.088001 
L 137.184 191.032006 
L 143.136 190.976968 
L 149.088 190.922976 
L 155.04 190.870085 
L 160.992 190.81832 
L 166.944 190.767689 
L 172.896 190.718185 
L 178.848 190.669793 
L 184.8 190.622492 
L 190.752 190.576254 
L 196.704 190.53105 
L 202.656 190.486851 
L 208.608 190.443625 
L 214.56 190.40134 
L 214.56 191.030228 
L 208.608 191.072513 
L 202.656 191.115739 
L 196.704 191.159938 
L 190.752 191.205141 
L 184.8 191.251378 
L 178.848 191.29868 
L 172.896 191.347071 
L 166.944 191.396575 
L 160.992 191.447206 
L 155.04 191.49897 
L 149.088 191.551861 
L 143.136 191.605851 
L 137.184 191.660889 
L 131.232 191.716884 
L 125.28 191.773689 
L 119.328 191.831082 
L 113.376 191.888727 
L 107.424 191.946125 
L 101.472 192.00253 
L 95.52 192.056822 
L 89.568 192.1073 
L 83.616 192.151329 
L 77.664 192.184724 
L 71.712 192.200604 
L 65.76 192.187147 
L 59.808 192.122785 
L 53.856 191.964856 
L 47.904 191.618651 
L 41.952 190.833375 
L 36 188.706665 
L 36 188.077782 
z
" clip-path="url(#pdcef18fc7b)" style="fill: #440154"/>
   </g>
   <g id="PathCollection_8">
    <path d="M 41.952 189.575614 
L 47.904 190.360893 
L 53.856 190.7071 
L 59.808 190.86503 
L 65.76 190.929393 
L 71.712 190.942849 
L 77.664 190.926968 
L 83.616 190.893573 
L 89.568 190.849543 
L 95.52 190.799064 
L 101.472 190.74477 
L 107.424 190.688364 
L 113.376 190.630965 
L 119.328 190.573318 
L 125.28 190.515924 
L 131.232 190.459118 
L 137.184 190.403123 
L 143.136 190.348084 
L 149.088 190.294092 
L 155.04 190.2412 
L 160.992 190.189435 
L 166.944 190.138804 
L 172.896 190.089299 
L 178.848 190.040907 
L 184.8 189.993605 
L 190.752 189.947366 
L 196.704 189.902163 
L 202.656 189.857963 
L 208.608 189.814737 
L 214.56 189.772451 
L 214.56 190.40134 
L 208.608 190.443625 
L 202.656 190.486851 
L 196.704 190.53105 
L 190.752 190.576254 
L 184.8 190.622492 
L 178.848 190.669793 
L 172.896 190.718185 
L 166.944 190.767689 
L 160.992 190.81832 
L 155.04 190.870085 
L 149.088 190.922976 
L 143.136 190.976968 
L 137.184 191.032006 
L 131.232 191.088001 
L 125.28 191.144806 
L 119.328 191.2022 
L 113.376 191.259846 
L 107.424 191.317245 
L 101.472 191.37365 
L 95.52 191.427943 
L 89.568 191.478421 
L 83.616 191.522451 
L 77.664 191.555846 
L 71.712 191.571727 
L 65.76 191.55827 
L 59.808 191.493908 
L 53.856 191.335978 
L 47.904 190.989772 
L 41.952 190.204494 
L 36 188.077782 
L 36 187.448899 
z
" clip-path="url(#pdcef18fc7b)" style="fill: #440154"/>
   </g>
   <g id="PathCollection_9">
    <path d="M 41.952 188.946733 
L 47.904 189.732014 
L 53.856 190.078222 
L 59.808 190.236153 
L 65.76 190.300515 
L 71.712 190.313972 
L 77.664 190.29809 
L 83.616 190.264694 
L 89.568 190.220664 
L 95.52 190.170184 
L 101.472 190.11589 
L 107.424 190.059484 
L 113.376 190.002084 
L 119.328 189.944436 
L 125.28 189.887042 
L 131.232 189.830235 
L 137.184 189.774239 
L 143.136 189.7192 
L 149.088 189.665208 
L 155.04 189.612316 
L 160.992 189.56055 
L 166.944 189.509918 
L 172.896 189.460413 
L 178.848 189.412021 
L 184.8 189.364718 
L 190.752 189.318479 
L 196.704 189.273275 
L 202.656 189.229076 
L 208.608 189.185849 
L 214.56 189.143563 
L 214.56 189.772451 
L 208.608 189.814737 
L 202.656 189.857963 
L 196.704 189.902163 
L 190.752 189.947366 
L 184.8 189.993605 
L 178.848 190.040907 
L 172.896 190.089299 
L 166.944 190.138804 
L 160.992 190.189435 
L 155.04 190.2412 
L 149.088 190.294092 
L 143.136 190.348084 
L 137.184 190.403123 
L 131.232 190.459118 
L 125.28 190.515924 
L 119.328 190.573318 
L 113.376 190.630965 
L 107.424 190.688364 
L 101.472 190.74477 
L 95.52 190.799064 
L 89.568 190.849543 
L 83.616 190.893573 
L 77.664 190.926968 
L 71.712 190.942849 
L 65.76 190.929393 
L 59.808 190.86503 
L 53.856 190.7071 
L 47.904 190.360893 
L 41.952 189.575614 
L 36 187.448899 
L 36 186.820016 
z
" clip-path="url(#pdcef18fc7b)" style="fill: #440154"/>
   </g>
   <g id="PathCollection_10">
    <path d="M 36 186.696 
L 36 185.485563 
L 37.412956 186.696 
L 41.952 188.317852 
L 47.904 189.103135 
L 53.856 189.449344 
L 59.808 189.607275 
L 65.76 189.671638 
L 71.712 189.685094 
L 77.664 189.669212 
L 83.616 189.635816 
L 89.568 189.591785 
L 95.52 189.541305 
L 101.472 189.487011 
L 107.424 189.430603 
L 113.376 189.373203 
L 119.328 189.315555 
L 125.28 189.258159 
L 131.232 189.201352 
L 137.184 189.145356 
L 143.136 189.090316 
L 149.088 189.036323 
L 155.04 188.983431 
L 160.992 188.931665 
L 166.944 188.881032 
L 172.896 188.831527 
L 178.848 188.783134 
L 184.8 188.735831 
L 190.752 188.689592 
L 196.704 188.644388 
L 202.656 188.600188 
L 208.608 188.55696 
L 214.56 188.514674 
L 214.56 189.143563 
L 208.608 189.185849 
L 202.656 189.229076 
L 196.704 189.273275 
L 190.752 189.318479 
L 184.8 189.364718 
L 178.848 189.412021 
L 172.896 189.460413 
L 166.944 189.509918 
L 160.992 189.56055 
L 155.04 189.612316 
L 149.088 189.665208 
L 143.136 189.7192 
L 137.184 189.774239 
L 131.232 189.830235 
L 125.28 189.887042 
L 119.328 189.944436 
L 113.376 190.002084 
L 107.424 190.059484 
L 101.472 190.11589 
L 95.52 190.170184 
L 89.568 190.220664 
L 83.616 190.264694 
L 77.664 190.29809 
L 71.712 190.313972 
L 65.76 190.300515 
L 59.808 190.236153 
L 53.856 190.078222 
L 47.904 189.732014 
L 41.952 188.946733 
L 36 186.820016 
z
" clip-path="url(#pdcef18fc7b)" style="fill: #440154"/>
   </g>
   <g id="PathCollection_11">
    <path d="M 37.412956 186.696 
L 36 185.485563 
L 36 183.977793 
L 39.172992 186.696 
L 41.952 187.688971 
L 47.904 188.474256 
L 53.856 188.820466 
L 59.808 188.978398 
L 65.76 189.042761 
L 71.712 189.056217 
L 77.664 189.040334 
L 83.616 189.006938 
L 89.568 188.962906 
L 95.52 188.912426 
L 101.472 188.858131 
L 107.424 188.801723 
L 113.376 188.744321 
L 119.328 188.686673 
L 125.28 188.629277 
L 131.232 188.572469 
L 137.184 188.516473 
L 143.136 188.461432 
L 149.088 188.407439 
L 155.04 188.354546 
L 160.992 188.302779 
L 166.944 188.252146 
L 172.896 188.202641 
L 178.848 188.154248 
L 184.8 188.106944 
L 190.752 188.060705 
L 196.704 188.0155 
L 202.656 187.9713 
L 208.608 187.928072 
L 214.56 187.885786 
L 214.56 188.514674 
L 208.608 188.55696 
L 202.656 188.600188 
L 196.704 188.644388 
L 190.752 188.689592 
L 184.8 188.735831 
L 178.848 188.783134 
L 172.896 188.831527 
L 166.944 188.881032 
L 160.992 188.931665 
L 155.04 188.983431 
L 149.088 189.036323 
L 143.136 189.090316 
L 137.184 189.145356 
L 131.232 189.201352 
L 125.28 189.258159 
L 119.328 189.315555 
L 113.376 189.373203 
L 107.424 189.430603 
L 101.472 189.487011 
L 95.52 189.541305 
L 89.568 189.591785 
L 83.616 189.635816 
L 77.664 189.669212 
L 71.712 189.685094 
L 65.76 189.671638 
L 59.808 189.607275 
L 53.856 189.449344 
L 47.904 189.103135 
L 41.952 188.317852 
z
" clip-path="url(#pdcef18fc7b)" style="fill: #440154"/>
   </g>
   <g id="PathCollection_12">
    <path d="M 39.172992 186.696 
L 36 183.977793 
L 36 182.470023 
L 40.933028 186.696 
L 41.952 187.06009 
L 47.904 187.845377 
L 53.856 188.191587 
L 59.808 188.34952 
L 65.76 188.413883 
L 71.712 188.427339 
L 77.664 188.411457 
L 83.616 188.378059 
L 89.568 188.334027 
L 95.52 188.283546 
L 101.472 188.229251 
L 107.424 188.172842 
L 113.376 188.11544 
L 119.328 188.057791 
L 125.28 188.000395 
L 131.232 187.943587 
L 137.184 187.887589 
L 143.136 187.832548 
L 149.088 187.778555 
L 155.04 187.725661 
L 160.992 187.673894 
L 166.944 187.623261 
L 172.896 187.573755 
L 178.848 187.525361 
L 184.8 187.478057 
L 190.752 187.431817 
L 196.704 187.386612 
L 202.656 187.342412 
L 208.608 187.299184 
L 214.56 187.256897 
L 214.56 187.885786 
L 208.608 187.928072 
L 202.656 187.9713 
L 196.704 188.0155 
L 190.752 188.060705 
L 184.8 188.106944 
L 178.848 188.154248 
L 172.896 188.202641 
L 166.944 188.252146 
L 160.992 188.302779 
L 155.04 188.354546 
L 149.088 188.407439 
L 143.136 188.461432 
L 137.184 188.516473 
L 131.232 188.572469 
L 125.28 188.629277 
L 119.328 188.686673 
L 113.376 188.744321 
L 107.424 188.801723 
L 101.472 188.858131 
L 95.52 188.912426 
L 89.568 188.962906 
L 83.616 189.006938 
L 77.664 189.040334 
L 71.712 189.056217 
L 65.76 189.042761 
L 59.808 188.978398 
L 53.856 188.820466 
L 47.904 188.474256 
L 41.952 187.688971 
z
" clip-path="url(#pdcef18fc7b)" style="fill: #440154"/>
   </g>
   <g id="PathCollection_13">
    <path d="M 40.933028 186.696 
L 36 182.470023 
L 36 181.152 
L 36 180.787618 
L 36.221493 181.152 
L 41.952 186.061155 
L 43.958947 186.696 
L 47.904 187.216497 
L 53.856 187.562709 
L 59.808 187.720643 
L 65.76 187.785006 
L 71.712 187.798462 
L 77.664 187.782579 
L 83.616 187.749181 
L 89.568 187.705149 
L 95.52 187.654667 
L 101.472 187.600371 
L 107.424 187.543962 
L 113.376 187.486559 
L 119.328 187.428909 
L 125.28 187.371513 
L 131.232 187.314704 
L 137.184 187.258706 
L 143.136 187.203664 
L 149.088 187.14967 
L 155.04 187.096776 
L 160.992 187.045009 
L 166.944 186.994375 
L 172.896 186.944869 
L 178.848 186.896475 
L 184.8 186.84917 
L 190.752 186.80293 
L 196.704 186.757725 
L 202.656 186.713524 
L 205.068834 186.696 
L 208.608 186.63437 
L 214.56 186.53298 
L 214.56 186.696 
L 214.56 187.256897 
L 208.608 187.299184 
L 202.656 187.342412 
L 196.704 187.386612 
L 190.752 187.431817 
L 184.8 187.478057 
L 178.848 187.525361 
L 172.896 187.573755 
L 166.944 187.623261 
L 160.992 187.673894 
L 155.04 187.725661 
L 149.088 187.778555 
L 143.136 187.832548 
L 137.184 187.887589 
L 131.232 187.943587 
L 125.28 188.000395 
L 119.328 188.057791 
L 113.376 188.11544 
L 107.424 188.172842 
L 101.472 188.229251 
L 95.52 188.283546 
L 89.568 188.334027 
L 83.616 188.378059 
L 77.664 188.411457 
L 71.712 188.427339 
L 65.76 188.413883 
L 59.808 188.34952 
L 53.856 188.191587 
L 47.904 187.845377 
L 41.952 187.06009 
z
" clip-path="url(#pdcef18fc7b)" style="fill: #471365"/>
   </g>
   <g id="PathCollection_14">
    <path d="M 36.221493 181.152 
L 36 180.787618 
L 36 177.892161 
L 37.98152 181.152 
L 41.952 184.553392 
L 47.904 186.436151 
L 49.767267 186.696 
L 53.856 186.933831 
L 59.808 187.091765 
L 65.76 187.156128 
L 71.712 187.169584 
L 77.664 187.153701 
L 83.616 187.120303 
L 89.568 187.07627 
L 95.52 187.025787 
L 101.472 186.971491 
L 107.424 186.915081 
L 113.376 186.857678 
L 119.328 186.800028 
L 125.28 186.74263 
L 130.165526 186.696 
L 131.232 186.671595 
L 137.184 186.537332 
L 143.136 186.405361 
L 149.088 186.275901 
L 155.04 186.149079 
L 160.992 186.024957 
L 166.944 185.903553 
L 172.896 185.784853 
L 178.848 185.668818 
L 184.8 185.555397 
L 190.752 185.444527 
L 196.704 185.336137 
L 202.656 185.230156 
L 208.608 185.126507 
L 214.56 185.025115 
L 214.56 186.53298 
L 208.608 186.63437 
L 205.068834 186.696 
L 202.656 186.713524 
L 196.704 186.757725 
L 190.752 186.80293 
L 184.8 186.84917 
L 178.848 186.896475 
L 172.896 186.944869 
L 166.944 186.994375 
L 160.992 187.045009 
L 155.04 187.096776 
L 149.088 187.14967 
L 143.136 187.203664 
L 137.184 187.258706 
L 131.232 187.314704 
L 125.28 187.371513 
L 119.328 187.428909 
L 113.376 187.486559 
L 107.424 187.543962 
L 101.472 187.600371 
L 95.52 187.654667 
L 89.568 187.705149 
L 83.616 187.749181 
L 77.664 187.782579 
L 71.712 187.798462 
L 65.76 187.785006 
L 59.808 187.720643 
L 53.856 187.562709 
L 47.904 187.216497 
L 43.958947 186.696 
L 41.952 186.061155 
z
" clip-path="url(#pdcef18fc7b)" style="fill: #472e7c"/>
   </g>
   <g id="PathCollection_15">
    <path d="M 37.98152 181.152 
L 36 177.892161 
L 36 175.608 
L 36 174.561962 
L 36.371581 175.608 
L 39.741548 181.152 
L 41.952 183.045629 
L 47.904 184.928391 
L 53.856 185.758451 
L 59.808 186.137103 
L 65.76 186.291416 
L 71.712 186.323675 
L 77.664 186.285592 
L 83.616 186.205516 
L 89.568 186.09994 
L 95.52 185.978902 
L 101.472 185.848717 
L 107.424 185.713466 
L 113.376 185.575832 
L 119.328 185.437606 
L 125.28 185.299984 
L 131.232 185.163773 
L 137.184 185.029506 
L 143.136 184.897531 
L 149.088 184.768068 
L 155.04 184.641242 
L 160.992 184.517117 
L 166.944 184.39571 
L 172.896 184.277006 
L 178.848 184.160968 
L 184.8 184.047545 
L 190.752 183.936671 
L 196.704 183.82828 
L 202.656 183.722296 
L 208.608 183.618645 
L 214.56 183.51725 
L 214.56 185.025115 
L 208.608 185.126507 
L 202.656 185.230156 
L 196.704 185.336137 
L 190.752 185.444527 
L 184.8 185.555397 
L 178.848 185.668818 
L 172.896 185.784853 
L 166.944 185.903553 
L 160.992 186.024957 
L 155.04 186.149079 
L 149.088 186.275901 
L 143.136 186.405361 
L 137.184 186.537332 
L 131.232 186.671595 
L 130.165526 186.696 
L 125.28 186.74263 
L 119.328 186.800028 
L 113.376 186.857678 
L 107.424 186.915081 
L 101.472 186.971491 
L 95.52 187.025787 
L 89.568 187.07627 
L 83.616 187.120303 
L 77.664 187.153701 
L 71.712 187.169584 
L 65.76 187.156128 
L 59.808 187.091765 
L 53.856 186.933831 
L 49.767267 186.696 
L 47.904 186.436151 
L 41.952 184.553392 
z
" clip-path="url(#pdcef18fc7b)" style="fill: #3f4788"/>
   </g>
   <g id="PathCollection_16">
    <path d="M 39.741548 181.152 
L 36.371581 175.608 
L 36 174.561962 
L 36 170.064 
L 36 169.333465 
L 36.162227 170.064 
L 38.131606 175.608 
L 41.501575 181.152 
L 41.952 181.537866 
L 47.904 183.420632 
L 53.856 184.250691 
L 59.808 184.629341 
L 65.76 184.783651 
L 71.712 184.815906 
L 77.664 184.777817 
L 83.616 184.697735 
L 89.568 184.592154 
L 95.52 184.47111 
L 101.472 184.34092 
L 107.424 184.205663 
L 113.376 184.068025 
L 119.328 183.929793 
L 125.28 183.792168 
L 131.232 183.655952 
L 137.184 183.521681 
L 143.136 183.389702 
L 149.088 183.260234 
L 155.04 183.133405 
L 160.992 183.009277 
L 166.944 182.887866 
L 172.896 182.769159 
L 178.848 182.653119 
L 184.8 182.539692 
L 190.752 182.428816 
L 196.704 182.320422 
L 202.656 182.214436 
L 208.608 182.110782 
L 214.56 182.009385 
L 214.56 183.51725 
L 208.608 183.618645 
L 202.656 183.722296 
L 196.704 183.82828 
L 190.752 183.936671 
L 184.8 184.047545 
L 178.848 184.160968 
L 172.896 184.277006 
L 166.944 184.39571 
L 160.992 184.517117 
L 155.04 184.641242 
L 149.088 184.768068 
L 143.136 184.897531 
L 137.184 185.029506 
L 131.232 185.163773 
L 125.28 185.299984 
L 119.328 185.437606 
L 113.376 185.575832 
L 107.424 185.713466 
L 101.472 185.848717 
L 95.52 185.978902 
L 89.568 186.09994 
L 83.616 186.205516 
L 77.664 186.285592 
L 71.712 186.323675 
L 65.76 186.291416 
L 59.808 186.137103 
L 53.856 185.758451 
L 47.904 184.928391 
L 41.952 183.045629 
z
" clip-path="url(#pdcef18fc7b)" style="fill: #355f8d"/>
   </g>
   <g id="PathCollection_17">
    <path d="M 41.501575 181.152 
L 38.131606 175.608 
L 36.162227 170.064 
L 36 169.333465 
L 36 164.52 
L 36 159.737536 
L 36.691123 164.52 
L 37.922255 170.064 
L 39.891631 175.608 
L 41.952 178.997551 
L 45.498651 181.152 
L 47.904 181.912872 
L 53.856 182.742932 
L 59.808 183.12158 
L 65.76 183.275886 
L 71.712 183.308136 
L 77.664 183.270042 
L 83.616 183.189955 
L 89.568 183.084368 
L 95.52 182.963318 
L 101.472 182.833123 
L 107.424 182.697861 
L 113.376 182.560217 
L 119.328 182.421981 
L 125.28 182.284351 
L 131.232 182.148131 
L 137.184 182.013855 
L 143.136 181.881872 
L 149.088 181.752401 
L 155.04 181.625568 
L 160.992 181.501436 
L 166.944 181.380023 
L 172.896 181.261313 
L 178.502769 181.152 
L 178.848 181.139073 
L 184.8 180.921223 
L 190.752 180.708272 
L 196.704 180.500087 
L 202.656 180.296525 
L 208.608 180.097443 
L 214.56 179.902695 
L 214.56 181.152 
L 214.56 182.009385 
L 208.608 182.110782 
L 202.656 182.214436 
L 196.704 182.320422 
L 190.752 182.428816 
L 184.8 182.539692 
L 178.848 182.653119 
L 172.896 182.769159 
L 166.944 182.887866 
L 160.992 183.009277 
L 155.04 183.133405 
L 149.088 183.260234 
L 143.136 183.389702 
L 137.184 183.521681 
L 131.232 183.655952 
L 125.28 183.792168 
L 119.328 183.929793 
L 113.376 184.068025 
L 107.424 184.205663 
L 101.472 184.34092 
L 95.52 184.47111 
L 89.568 184.592154 
L 83.616 184.697735 
L 77.664 184.777817 
L 71.712 184.815906 
L 65.76 184.783651 
L 59.808 184.629341 
L 53.856 184.250691 
L 47.904 183.420632 
L 41.952 181.537866 
z
" clip-path="url(#pdcef18fc7b)" style="fill: #2c738e"/>
   </g>
   <g id="PathCollection_18">
    <path d="M 39.891631 175.608 
L 37.922255 170.064 
L 36.691123 164.52 
L 36 159.737536 
L 36 158.976 
L 36 153.432 
L 36 147.888 
L 36 142.344 
L 36 136.8 
L 36 131.256 
L 36 125.712 
L 36 120.168 
L 36 114.624 
L 36 109.08 
L 36 103.536 
L 36 97.992 
L 36 92.448 
L 36 86.904 
L 36 81.36 
L 36 75.816 
L 36 70.272 
L 36 64.728 
L 36 59.184 
L 36 53.64 
L 36 48.096 
L 36 42.552 
L 36 37.008 
L 36 31.464 
L 36 25.92 
L 37.550218 25.92 
L 37.455125 31.464 
L 37.359736 37.008 
L 37.264231 42.552 
L 37.168835 48.096 
L 37.073821 53.64 
L 36.979526 59.184 
L 36.886365 64.728 
L 36.794852 70.272 
L 36.705624 75.816 
L 36.619471 81.36 
L 36.537387 86.904 
L 36.46062 92.448 
L 36.390753 97.992 
L 36.329812 103.536 
L 36.28041 109.08 
L 36.245955 114.624 
L 36.230952 120.168 
L 36.241433 125.712 
L 36.285616 131.256 
L 36.374914 136.8 
L 36.525533 142.344 
L 36.761124 147.888 
L 37.117322 153.432 
L 37.649994 158.976 
L 38.451158 164.52 
L 39.682284 170.064 
L 41.651656 175.608 
L 41.952 176.102101 
L 47.904 179.7177 
L 53.259601 181.152 
L 53.856 181.235173 
L 59.808 181.613819 
L 65.76 181.768121 
L 71.712 181.800367 
L 77.664 181.762267 
L 83.616 181.682174 
L 89.568 181.576582 
L 95.52 181.455527 
L 101.472 181.325325 
L 107.424 181.190058 
L 109.069676 181.152 
L 113.376 180.960738 
L 119.328 180.695244 
L 125.28 180.430912 
L 131.232 180.169288 
L 137.184 179.911396 
L 143.136 179.657907 
L 149.088 179.40924 
L 155.04 179.165639 
L 160.992 178.927225 
L 166.944 178.694031 
L 172.896 178.466029 
L 178.848 178.243147 
L 184.8 178.025285 
L 190.752 177.812323 
L 196.704 177.604126 
L 202.656 177.400554 
L 208.608 177.201462 
L 214.56 177.006704 
L 214.56 179.902695 
L 208.608 180.097443 
L 202.656 180.296525 
L 196.704 180.500087 
L 190.752 180.708272 
L 184.8 180.921223 
L 178.848 181.139073 
L 178.502769 181.152 
L 172.896 181.261313 
L 166.944 181.380023 
L 160.992 181.501436 
L 155.04 181.625568 
L 149.088 181.752401 
L 143.136 181.881872 
L 137.184 182.013855 
L 131.232 182.148131 
L 125.28 182.284351 
L 119.328 182.421981 
L 113.376 182.560217 
L 107.424 182.697861 
L 101.472 182.833123 
L 95.52 182.963318 
L 89.568 183.084368 
L 83.616 183.189955 
L 77.664 183.270042 
L 71.712 183.308136 
L 65.76 183.275886 
L 59.808 183.12158 
L 53.856 182.742932 
L 47.904 181.912872 
L 45.498651 181.152 
L 41.952 178.997551 
z
" clip-path="url(#pdcef18fc7b)" style="fill: #24878e"/>
   </g>
   <g id="PathCollection_19">
    <path d="M 41.651656 175.608 
L 39.682284 170.064 
L 38.451158 164.52 
L 37.649994 158.976 
L 37.117322 153.432 
L 36.761124 147.888 
L 36.525533 142.344 
L 36.374914 136.8 
L 36.285616 131.256 
L 36.241433 125.712 
L 36.230952 120.168 
L 36.245955 114.624 
L 36.28041 109.08 
L 36.329812 103.536 
L 36.390753 97.992 
L 36.46062 92.448 
L 36.537387 86.904 
L 36.619471 81.36 
L 36.705624 75.816 
L 36.794852 70.272 
L 36.886365 64.728 
L 36.979526 59.184 
L 37.073821 53.64 
L 37.168835 48.096 
L 37.264231 42.552 
L 37.359736 37.008 
L 37.455125 31.464 
L 37.550218 25.92 
L 39.310714 25.92 
L 39.215604 31.464 
L 39.120196 37.008 
L 39.024674 42.552 
L 38.92926 48.096 
L 38.834227 53.64 
L 38.739913 59.184 
L 38.646733 64.728 
L 38.555201 70.272 
L 38.465953 75.816 
L 38.37978 81.36 
L 38.297676 86.904 
L 38.220889 92.448 
L 38.151002 97.992 
L 38.09004 103.536 
L 38.040617 109.08 
L 38.006142 114.624 
L 37.991119 120.168 
L 38.00158 125.712 
L 38.045744 131.256 
L 38.135023 136.8 
L 38.285624 142.344 
L 38.521198 147.888 
L 38.877381 153.432 
L 39.410041 158.976 
L 40.211194 164.52 
L 41.442312 170.064 
L 41.952 171.498828 
L 45.905111 175.608 
L 47.904 176.822244 
L 53.856 178.416252 
L 59.808 179.14338 
L 65.76 179.439681 
L 71.712 179.501586 
L 77.664 179.428398 
L 83.616 179.274562 
L 89.568 179.071754 
L 95.52 178.839249 
L 101.472 178.589178 
L 107.424 178.329376 
L 113.376 178.065 
L 119.328 177.799483 
L 125.28 177.535131 
L 131.232 177.273486 
L 137.184 177.015576 
L 143.136 176.76207 
L 149.088 176.513386 
L 155.04 176.269769 
L 160.992 176.03134 
L 166.944 175.798132 
L 171.907102 175.608 
L 172.896 175.543161 
L 178.848 175.161674 
L 184.8 174.788777 
L 190.752 174.424263 
L 196.704 174.067905 
L 202.656 173.719461 
L 208.608 173.378683 
L 214.56 173.045322 
L 214.56 175.608 
L 214.56 177.006704 
L 208.608 177.201462 
L 202.656 177.400554 
L 196.704 177.604126 
L 190.752 177.812323 
L 184.8 178.025285 
L 178.848 178.243147 
L 172.896 178.466029 
L 166.944 178.694031 
L 160.992 178.927225 
L 155.04 179.165639 
L 149.088 179.40924 
L 143.136 179.657907 
L 137.184 179.911396 
L 131.232 180.169288 
L 125.28 180.430912 
L 119.328 180.695244 
L 113.376 180.960738 
L 109.069676 181.152 
L 107.424 181.190058 
L 101.472 181.325325 
L 95.52 181.455527 
L 89.568 181.576582 
L 83.616 181.682174 
L 77.664 181.762267 
L 71.712 181.800367 
L 65.76 181.768121 
L 59.808 181.613819 
L 53.856 181.235173 
L 53.259601 181.152 
L 47.904 179.7177 
L 41.952 176.102101 
z
" clip-path="url(#pdcef18fc7b)" style="fill: #1e9b8a"/>
   </g>
   <g id="PathCollection_20">
    <path d="M 41.442312 170.064 
L 40.211194 164.52 
L 39.410041 158.976 
L 38.877381 153.432 
L 38.521198 147.888 
L 38.285624 142.344 
L 38.135023 136.8 
L 38.045744 131.256 
L 38.00158 125.712 
L 37.991119 120.168 
L 38.006142 114.624 
L 38.040617 109.08 
L 38.09004 103.536 
L 38.151002 97.992 
L 38.220889 92.448 
L 38.297676 86.904 
L 38.37978 81.36 
L 38.465953 75.816 
L 38.555201 70.272 
L 38.646733 64.728 
L 38.739913 59.184 
L 38.834227 53.64 
L 38.92926 48.096 
L 39.024674 42.552 
L 39.120196 37.008 
L 39.215604 31.464 
L 39.310714 25.92 
L 41.07121 25.92 
L 40.976082 31.464 
L 40.880657 37.008 
L 40.785117 42.552 
L 40.689684 48.096 
L 40.594633 53.64 
L 40.5003 59.184 
L 40.407101 64.728 
L 40.31555 70.272 
L 40.226282 75.816 
L 40.14009 81.36 
L 40.057965 86.904 
L 39.981157 92.448 
L 39.91125 97.992 
L 39.850268 103.536 
L 39.800825 109.08 
L 39.766329 114.624 
L 39.751286 120.168 
L 39.761727 125.712 
L 39.805872 131.256 
L 39.895132 136.8 
L 40.045716 142.344 
L 40.281273 147.888 
L 40.63744 153.432 
L 41.170087 158.976 
L 41.952 164.386931 
L 42.004078 164.52 
L 45.338203 170.064 
L 47.904 172.731093 
L 53.856 175.458747 
L 54.569976 175.608 
L 59.808 176.247885 
L 65.76 176.54416 
L 71.712 176.606035 
L 77.664 176.532818 
L 83.616 176.378953 
L 89.568 176.176117 
L 95.52 175.943585 
L 101.472 175.693487 
L 103.430325 175.608 
L 107.424 175.309637 
L 113.376 174.857138 
L 119.328 174.402684 
L 125.28 173.950218 
L 131.232 173.502382 
L 137.184 173.060936 
L 143.136 172.627023 
L 149.088 172.201363 
L 155.04 171.784372 
L 160.992 171.376259 
L 166.944 170.97708 
L 172.896 170.586787 
L 178.848 170.205258 
L 181.102465 170.064 
L 184.8 169.693278 
L 190.752 169.109935 
L 196.704 168.539639 
L 202.656 167.982004 
L 208.608 167.436636 
L 214.56 166.903133 
L 214.56 170.064 
L 214.56 173.045322 
L 208.608 173.378683 
L 202.656 173.719461 
L 196.704 174.067905 
L 190.752 174.424263 
L 184.8 174.788777 
L 178.848 175.161674 
L 172.896 175.543161 
L 171.907102 175.608 
L 166.944 175.798132 
L 160.992 176.03134 
L 155.04 176.269769 
L 149.088 176.513386 
L 143.136 176.76207 
L 137.184 177.015576 
L 131.232 177.273486 
L 125.28 177.535131 
L 119.328 177.799483 
L 113.376 178.065 
L 107.424 178.329376 
L 101.472 178.589178 
L 95.52 178.839249 
L 89.568 179.071754 
L 83.616 179.274562 
L 77.664 179.428398 
L 71.712 179.501586 
L 65.76 179.439681 
L 59.808 179.14338 
L 53.856 178.416252 
L 47.904 176.822244 
L 45.905111 175.608 
L 41.952 171.498828 
z
" clip-path="url(#pdcef18fc7b)" style="fill: #28ae80"/>
   </g>
   <g id="PathCollection_21">
    <path d="M 41.170087 158.976 
L 40.63744 153.432 
L 40.281273 147.888 
L 40.045716 142.344 
L 39.895132 136.8 
L 39.805872 131.256 
L 39.761727 125.712 
L 39.751286 120.168 
L 39.766329 114.624 
L 39.800825 109.08 
L 39.850268 103.536 
L 39.91125 97.992 
L 39.981157 92.448 
L 40.057965 86.904 
L 40.14009 81.36 
L 40.226282 75.816 
L 40.31555 70.272 
L 40.407101 64.728 
L 40.5003 59.184 
L 40.594633 53.64 
L 40.689684 48.096 
L 40.785117 42.552 
L 40.880657 37.008 
L 40.976082 31.464 
L 41.07121 25.92 
L 41.952 25.92 
L 44.335751 25.92 
L 44.077894 31.464 
L 43.819242 37.008 
L 43.560284 42.552 
L 43.301627 48.096 
L 43.044012 53.64 
L 42.788354 59.184 
L 42.535778 64.728 
L 42.287674 70.272 
L 42.045767 75.816 
L 41.952 78.041672 
L 41.900399 81.36 
L 41.818254 86.904 
L 41.741426 92.448 
L 41.671498 97.992 
L 41.610496 103.536 
L 41.561032 109.08 
L 41.526517 114.624 
L 41.511453 120.168 
L 41.521874 125.712 
L 41.566 131.256 
L 41.655241 136.8 
L 41.805807 142.344 
L 41.952 145.784994 
L 42.193988 147.888 
L 43.15857 153.432 
L 44.601081 158.976 
L 46.770713 164.52 
L 47.904 166.40446 
L 52.896022 170.064 
L 53.856 170.503927 
L 59.808 171.748083 
L 65.76 172.254996 
L 71.712 172.360793 
L 77.664 172.235408 
L 83.616 171.972006 
L 89.568 171.624797 
L 95.52 171.226763 
L 101.472 170.798667 
L 107.424 170.353918 
L 111.236829 170.064 
L 113.376 169.803744 
L 119.328 169.076488 
L 125.28 168.352404 
L 131.232 167.635724 
L 137.184 166.92926 
L 143.136 166.234846 
L 149.088 165.553631 
L 155.04 164.886287 
L 158.377948 164.52 
L 160.992 164.079002 
L 166.944 163.096852 
L 172.896 162.136541 
L 178.848 161.197771 
L 184.8 160.280122 
L 190.752 159.383088 
L 193.514914 158.976 
L 196.704 158.268747 
L 202.656 156.97804 
L 208.608 155.71569 
L 214.56 154.480774 
L 214.56 158.976 
L 214.56 164.52 
L 214.56 166.903133 
L 208.608 167.436636 
L 202.656 167.982004 
L 196.704 168.539639 
L 190.752 169.109935 
L 184.8 169.693278 
L 181.102465 170.064 
L 178.848 170.205258 
L 172.896 170.586787 
L 166.944 170.97708 
L 160.992 171.376259 
L 155.04 171.784372 
L 149.088 172.201363 
L 143.136 172.627023 
L 137.184 173.060936 
L 131.232 173.502382 
L 125.28 173.950218 
L 119.328 174.402684 
L 113.376 174.857138 
L 107.424 175.309637 
L 103.430325 175.608 
L 101.472 175.693487 
L 95.52 175.943585 
L 89.568 176.176117 
L 83.616 176.378953 
L 77.664 176.532818 
L 71.712 176.606035 
L 65.76 176.54416 
L 59.808 176.247885 
L 54.569976 175.608 
L 53.856 175.458747 
L 47.904 172.731093 
L 45.338203 170.064 
L 42.004078 164.52 
L 41.952 164.386931 
z
" clip-path="url(#pdcef18fc7b)" style="fill: #48c16e"/>
    <path d="M 201.672097 31.464 
L 197.072082 25.92 
L 202.656 25.92 
L 208.608 25.92 
L 214.56 25.92 
L 214.56 31.464 
L 214.56 37.008 
L 214.56 42.552 
L 214.56 46.462275 
L 211.153518 42.552 
L 208.608 39.632331 
L 206.370149 37.008 
L 202.656 32.645787 
z
" clip-path="url(#pdcef18fc7b)" style="fill: #48c16e"/>
   </g>
   <g id="PathCollection_22">
    <path d="M 41.805807 142.344 
L 41.655241 136.8 
L 41.566 131.256 
L 41.521874 125.712 
L 41.511453 120.168 
L 41.526517 114.624 
L 41.561032 109.08 
L 41.610496 103.536 
L 41.671498 97.992 
L 41.741426 92.448 
L 41.818254 86.904 
L 41.900399 81.36 
L 41.952 78.041672 
L 42.045767 75.816 
L 42.287674 70.272 
L 42.535778 64.728 
L 42.788354 59.184 
L 43.044012 53.64 
L 43.301627 48.096 
L 43.560284 42.552 
L 43.819242 37.008 
L 44.077894 31.464 
L 44.335751 25.92 
L 47.904 25.92 
L 50.63391 25.92 
L 50.047987 31.464 
L 49.46029 37.008 
L 48.871938 42.552 
L 48.284304 48.096 
L 47.904 51.698631 
L 47.81374 53.64 
L 47.557932 59.184 
L 47.305203 64.728 
L 47.056944 70.272 
L 46.814879 75.816 
L 46.581156 81.36 
L 46.35846 86.904 
L 46.150175 92.448 
L 45.96059 97.992 
L 45.795191 103.536 
L 45.661056 109.08 
L 45.567418 114.624 
L 45.526475 120.168 
L 45.554565 125.712 
L 45.673946 131.256 
L 45.915522 136.8 
L 46.323188 142.344 
L 46.960989 147.888 
L 47.904 153.308782 
L 47.952626 153.432 
L 51.224639 158.976 
L 53.856 161.940283 
L 58.876602 164.52 
L 59.808 164.831423 
L 65.76 165.642103 
L 71.712 165.811098 
L 77.664 165.610248 
L 83.616 165.188591 
L 89.568 164.632848 
L 90.622359 164.52 
L 95.52 163.714231 
L 101.472 162.661028 
L 107.424 161.566824 
L 113.376 160.453323 
L 119.328 159.334988 
L 121.247007 158.976 
L 125.28 157.840602 
L 131.232 156.182029 
L 137.184 154.547018 
L 141.31336 153.432 
L 143.136 152.695304 
L 149.088 150.335191 
L 155.04 148.022932 
L 155.394876 147.888 
L 160.992 144.665237 
L 165.113169 142.344 
L 166.944 140.726725 
L 171.48997 136.8 
L 172.896 134.740969 
L 175.330176 131.256 
L 177.221814 125.712 
L 177.634327 120.168 
L 176.929072 114.624 
L 175.37131 109.08 
L 173.158995 103.536 
L 172.896 102.99943 
L 170.49727 97.992 
L 167.460403 92.448 
L 166.944 91.588608 
L 164.192337 86.904 
L 160.992 81.802032 
L 160.72086 81.36 
L 157.154852 75.816 
L 155.04 72.638968 
L 153.498331 70.272 
L 149.797315 64.728 
L 149.088 63.68372 
L 146.094742 59.184 
L 143.136 54.787415 
L 142.378756 53.64 
L 138.693595 48.096 
L 137.184 45.833123 
L 135.03324 42.552 
L 131.39654 37.008 
L 131.232 36.756786 
L 127.816169 31.464 
L 125.28 27.520494 
L 124.261689 25.92 
L 125.28 25.92 
L 131.232 25.92 
L 137.184 25.92 
L 143.136 25.92 
L 149.088 25.92 
L 155.04 25.92 
L 160.992 25.92 
L 166.944 25.92 
L 172.896 25.92 
L 178.848 25.92 
L 184.8 25.92 
L 190.752 25.92 
L 196.704 25.92 
L 197.072082 25.92 
L 201.672097 31.464 
L 202.656 32.645787 
L 206.370149 37.008 
L 208.608 39.632331 
L 211.153518 42.552 
L 214.56 46.462275 
L 214.56 48.096 
L 214.56 53.64 
L 214.56 59.184 
L 214.56 64.728 
L 214.56 70.272 
L 214.56 75.816 
L 214.56 81.36 
L 214.56 86.904 
L 214.56 92.448 
L 214.56 97.992 
L 214.56 103.536 
L 214.56 109.08 
L 214.56 114.624 
L 214.56 120.168 
L 214.56 125.712 
L 214.56 131.256 
L 214.56 136.8 
L 214.56 142.344 
L 214.56 147.888 
L 214.56 153.432 
L 214.56 154.480774 
L 208.608 155.71569 
L 202.656 156.97804 
L 196.704 158.268747 
L 193.514914 158.976 
L 190.752 159.383088 
L 184.8 160.280122 
L 178.848 161.197771 
L 172.896 162.136541 
L 166.944 163.096852 
L 160.992 164.079002 
L 158.377948 164.52 
L 155.04 164.886287 
L 149.088 165.553631 
L 143.136 166.234846 
L 137.184 166.92926 
L 131.232 167.635724 
L 125.28 168.352404 
L 119.328 169.076488 
L 113.376 169.803744 
L 111.236829 170.064 
L 107.424 170.353918 
L 101.472 170.798667 
L 95.52 171.226763 
L 89.568 171.624797 
L 83.616 171.972006 
L 77.664 172.235408 
L 71.712 172.360793 
L 65.76 172.254996 
L 59.808 171.748083 
L 53.856 170.503927 
L 52.896022 170.064 
L 47.904 166.40446 
L 46.770713 164.52 
L 44.601081 158.976 
L 43.15857 153.432 
L 42.193988 147.888 
L 41.952 145.784994 
z
" clip-path="url(#pdcef18fc7b)" style="fill: #77d153"/>
   </g>
   <g id="PathCollection_23">
    <path d="M 46.960989 147.888 
L 46.323188 142.344 
L 45.915522 136.8 
L 45.673946 131.256 
L 45.554565 125.712 
L 45.526475 120.168 
L 45.567418 114.624 
L 45.661056 109.08 
L 45.795191 103.536 
L 45.96059 97.992 
L 46.150175 92.448 
L 46.35846 86.904 
L 46.581156 81.36 
L 46.814879 75.816 
L 47.056944 70.272 
L 47.305203 64.728 
L 47.557932 59.184 
L 47.81374 53.64 
L 47.904 51.698631 
L 48.284304 48.096 
L 48.871938 42.552 
L 49.46029 37.008 
L 50.047987 31.464 
L 50.63391 25.92 
L 53.856 25.92 
L 59.808 25.92 
L 65.76 25.92 
L 71.712 25.92 
L 77.664 25.92 
L 83.616 25.92 
L 89.568 25.92 
L 95.52 25.92 
L 101.472 25.92 
L 107.424 25.92 
L 113.376 25.92 
L 119.328 25.92 
L 124.261689 25.92 
L 125.28 27.520494 
L 127.816169 31.464 
L 131.232 36.756786 
L 131.39654 37.008 
L 135.03324 42.552 
L 137.184 45.833123 
L 138.693595 48.096 
L 142.378756 53.64 
L 143.136 54.787415 
L 146.094742 59.184 
L 149.088 63.68372 
L 149.797315 64.728 
L 153.498331 70.272 
L 155.04 72.638968 
L 157.154852 75.816 
L 160.72086 81.36 
L 160.992 81.802032 
L 164.192337 86.904 
L 166.944 91.588608 
L 167.460403 92.448 
L 170.49727 97.992 
L 172.896 102.99943 
L 173.158995 103.536 
L 175.37131 109.08 
L 176.929072 114.624 
L 177.634327 120.168 
L 177.221814 125.712 
L 175.330176 131.256 
L 172.896 134.740969 
L 171.48997 136.8 
L 166.944 140.726725 
L 165.113169 142.344 
L 160.992 144.665237 
L 155.394876 147.888 
L 155.04 148.022932 
L 149.088 150.335191 
L 143.136 152.695304 
L 141.31336 153.432 
L 137.184 154.547018 
L 131.232 156.182029 
L 125.28 157.840602 
L 121.247007 158.976 
L 119.328 159.334988 
L 113.376 160.453323 
L 107.424 161.566824 
L 101.472 162.661028 
L 95.52 163.714231 
L 90.622359 164.52 
L 89.568 164.632848 
L 83.616 165.188591 
L 77.664 165.610248 
L 71.712 165.811098 
L 65.76 165.642103 
L 59.808 164.831423 
L 58.876602 164.52 
L 53.856 161.940283 
L 51.224639 158.976 
L 47.952626 153.432 
L 47.904 153.308782 
z
M 53.856 133.227757 
L 54.62975 136.8 
L 56.656834 142.344 
L 59.808 147.852282 
L 59.858188 147.888 
L 65.76 150.665379 
L 71.712 151.247483 
L 77.664 150.550288 
L 83.616 149.089035 
L 87.328883 147.888 
L 89.568 146.791737 
L 95.52 143.451327 
L 97.35447 142.344 
L 101.472 138.448858 
L 103.149588 136.8 
L 106.481286 131.256 
L 107.424 128.056483 
L 108.102796 125.712 
L 108.462057 120.168 
L 107.879848 114.624 
L 107.424 112.680382 
L 106.565167 109.08 
L 104.682119 103.536 
L 102.367113 97.992 
L 101.472 96.118609 
L 99.651275 92.448 
L 96.634087 86.904 
L 95.52 84.987498 
L 93.254444 81.36 
L 89.623941 75.816 
L 89.568 75.733465 
L 85.332064 70.272 
L 83.616 68.112988 
L 80.082747 64.728 
L 77.664 62.45006 
L 71.712 59.740796 
L 65.76 61.893651 
L 64.168878 64.728 
L 61.112898 70.272 
L 59.808 72.700762 
L 59.128911 75.816 
L 57.962134 81.36 
L 56.850575 86.904 
L 55.811078 92.448 
L 54.864995 97.992 
L 54.039613 103.536 
L 53.856 105.056347 
L 53.634602 109.08 
L 53.421467 114.624 
L 53.327923 120.168 
L 53.391033 125.712 
L 53.661278 131.256 
z
" clip-path="url(#pdcef18fc7b)" style="fill: #addc30"/>
   </g>
   <g id="PathCollection_24">
    <path d="M 53.661278 131.256 
L 53.391033 125.712 
L 53.327923 120.168 
L 53.421467 114.624 
L 53.634602 109.08 
L 53.856 105.056347 
L 54.039613 103.536 
L 54.864995 97.992 
L 55.811078 92.448 
L 56.850575 86.904 
L 57.962134 81.36 
L 59.128911 75.816 
L 59.808 72.700762 
L 61.112898 70.272 
L 64.168878 64.728 
L 65.76 61.893651 
L 71.712 59.740796 
L 77.664 62.45006 
L 80.082747 64.728 
L 83.616 68.112988 
L 85.332064 70.272 
L 89.568 75.733465 
L 89.623941 75.816 
L 93.254444 81.36 
L 95.52 84.987498 
L 96.634087 86.904 
L 99.651275 92.448 
L 101.472 96.118609 
L 102.367113 97.992 
L 104.682119 103.536 
L 106.565167 109.08 
L 107.424 112.680382 
L 107.879848 114.624 
L 108.462057 120.168 
L 108.102796 125.712 
L 107.424 128.056483 
L 106.481286 131.256 
L 103.149588 136.8 
L 101.472 138.448858 
L 97.35447 142.344 
L 95.52 143.451327 
L 89.568 146.791737 
L 87.328883 147.888 
L 83.616 149.089035 
L 77.664 150.550288 
L 71.712 151.247483 
L 65.76 150.665379 
L 59.858188 147.888 
L 59.808 147.852282 
L 56.656834 142.344 
L 54.62975 136.8 
L 53.856 133.227757 
z
" clip-path="url(#pdcef18fc7b)" style="fill: #e5e419"/>
   </g>
   <g id="PathCollection_25">
    <defs>
     <path id="m34cff696ea" d="M -4.330127 4.330127 
L 4.330127 -4.330127 
M -4.330127 -4.330127 
L 4.330127 4.330127 
" style="stroke: #000000; stroke-width: 2"/>
    </defs>
    <g clip-path="url(#pdcef18fc7b)">
     <use xlink:href="#m34cff696ea" x="65.76" y="127.56" style="stroke: #000000; stroke-width: 2"/>
    </g>
   </g>
   <g id="matplotlib.axis_1">
    <g id="xtick_1">
     <g id="line2d_1">
      <defs>
       <path id="m0b58eb4e0b" d="M 0 0 
L 0 3.5 
" style="stroke: #000000; stroke-width: 0.8"/>
      </defs>
      <g>
       <use xlink:href="#m0b58eb4e0b" x="75.68" y="192.24" style="stroke: #000000; stroke-width: 0.8"/>
      </g>
     </g>
     <g id="text_1">
      <!-- $\mathdefault{250}$ -->
      <g transform="translate(64.22 208.358125) scale(0.12 -0.12)">
       <defs>
        <path id="DejaVuSans-32" d="M 1228 531 
L 3431 531 
L 3431 0 
L 469 0 
L 469 531 
Q 828 903 1448 1529 
Q 2069 2156 2228 2338 
Q 2531 2678 2651 2914 
Q 2772 3150 2772 3378 
Q 2772 3750 2511 3984 
Q 2250 4219 1831 4219 
Q 1534 4219 1204 4116 
Q 875 4013 500 3803 
L 500 4441 
Q 881 4594 1212 4672 
Q 1544 4750 1819 4750 
Q 2544 4750 2975 4387 
Q 3406 4025 3406 3419 
Q 3406 3131 3298 2873 
Q 3191 2616 2906 2266 
Q 2828 2175 2409 1742 
Q 1991 1309 1228 531 
z
" transform="scale(0.015625)"/>
        <path id="DejaVuSans-35" d="M 691 4666 
L 3169 4666 
L 3169 4134 
L 1269 4134 
L 1269 2991 
Q 1406 3038 1543 3061 
Q 1681 3084 1819 3084 
Q 2600 3084 3056 2656 
Q 3513 2228 3513 1497 
Q 3513 744 3044 326 
Q 2575 -91 1722 -91 
Q 1428 -91 1123 -41 
Q 819 9 494 109 
L 494 744 
Q 775 591 1075 516 
Q 1375 441 1709 441 
Q 2250 441 2565 725 
Q 2881 1009 2881 1497 
Q 2881 1984 2565 2268 
Q 2250 2553 1709 2553 
Q 1456 2553 1204 2497 
Q 953 2441 691 2322 
L 691 4666 
z
" transform="scale(0.015625)"/>
        <path id="DejaVuSans-30" d="M 2034 4250 
Q 1547 4250 1301 3770 
Q 1056 3291 1056 2328 
Q 1056 1369 1301 889 
Q 1547 409 2034 409 
Q 2525 409 2770 889 
Q 3016 1369 3016 2328 
Q 3016 3291 2770 3770 
Q 2525 4250 2034 4250 
z
M 2034 4750 
Q 2819 4750 3233 4129 
Q 3647 3509 3647 2328 
Q 3647 1150 3233 529 
Q 2819 -91 2034 -91 
Q 1250 -91 836 529 
Q 422 1150 422 2328 
Q 422 3509 836 4129 
Q 1250 4750 2034 4750 
z
" transform="scale(0.015625)"/>
       </defs>
       <use xlink:href="#DejaVuSans-32" transform="translate(0 0.78125)"/>
       <use xlink:href="#DejaVuSans-35" transform="translate(63.623047 0.78125)"/>
       <use xlink:href="#DejaVuSans-30" transform="translate(127.246094 0.78125)"/>
      </g>
     </g>
    </g>
    <g id="xtick_2">
     <g id="line2d_2">
      <g>
       <use xlink:href="#m0b58eb4e0b" x="125.28" y="192.24" style="stroke: #000000; stroke-width: 0.8"/>
      </g>
     </g>
     <g id="text_2">
      <!-- $\mathdefault{500}$ -->
      <g transform="translate(113.82 208.358125) scale(0.12 -0.12)">
       <use xlink:href="#DejaVuSans-35" transform="translate(0 0.78125)"/>
       <use xlink:href="#DejaVuSans-30" transform="translate(63.623047 0.78125)"/>
       <use xlink:href="#DejaVuSans-30" transform="translate(127.246094 0.78125)"/>
      </g>
     </g>
    </g>
    <g id="xtick_3">
     <g id="line2d_3">
      <g>
       <use xlink:href="#m0b58eb4e0b" x="174.88" y="192.24" style="stroke: #000000; stroke-width: 0.8"/>
      </g>
     </g>
     <g id="text_3">
      <!-- $\mathdefault{750}$ -->
      <g transform="translate(163.42 208.358125) scale(0.12 -0.12)">
       <defs>
        <path id="DejaVuSans-37" d="M 525 4666 
L 3525 4666 
L 3525 4397 
L 1831 0 
L 1172 0 
L 2766 4134 
L 525 4134 
L 525 4666 
z
" transform="scale(0.015625)"/>
       </defs>
       <use xlink:href="#DejaVuSans-37" transform="translate(0 0.78125)"/>
       <use xlink:href="#DejaVuSans-35" transform="translate(63.623047 0.78125)"/>
       <use xlink:href="#DejaVuSans-30" transform="translate(127.246094 0.78125)"/>
      </g>
     </g>
    </g>
    <g id="text_4">
     <!-- Diploid N$_e$0 -->
     <g transform="translate(80 227.01375) scale(0.16 -0.16)">
      <defs>
       <path id="DejaVuSans-44" d="M 1259 4147 
L 1259 519 
L 2022 519 
Q 2988 519 3436 956 
Q 3884 1394 3884 2338 
Q 3884 3275 3436 3711 
Q 2988 4147 2022 4147 
L 1259 4147 
z
M 628 4666 
L 1925 4666 
Q 3281 4666 3915 4102 
Q 4550 3538 4550 2338 
Q 4550 1131 3912 565 
Q 3275 0 1925 0 
L 628 0 
L 628 4666 
z
" transform="scale(0.015625)"/>
       <path id="DejaVuSans-69" d="M 603 3500 
L 1178 3500 
L 1178 0 
L 603 0 
L 603 3500 
z
M 603 4863 
L 1178 4863 
L 1178 4134 
L 603 4134 
L 603 4863 
z
" transform="scale(0.015625)"/>
       <path id="DejaVuSans-70" d="M 1159 525 
L 1159 -1331 
L 581 -1331 
L 581 3500 
L 1159 3500 
L 1159 2969 
Q 1341 3281 1617 3432 
Q 1894 3584 2278 3584 
Q 2916 3584 3314 3078 
Q 3713 2572 3713 1747 
Q 3713 922 3314 415 
Q 2916 -91 2278 -91 
Q 1894 -91 1617 61 
Q 1341 213 1159 525 
z
M 3116 1747 
Q 3116 2381 2855 2742 
Q 2594 3103 2138 3103 
Q 1681 3103 1420 2742 
Q 1159 2381 1159 1747 
Q 1159 1113 1420 752 
Q 1681 391 2138 391 
Q 2594 391 2855 752 
Q 3116 1113 3116 1747 
z
" transform="scale(0.015625)"/>
       <path id="DejaVuSans-6c" d="M 603 4863 
L 1178 4863 
L 1178 0 
L 603 0 
L 603 4863 
z
" transform="scale(0.015625)"/>
       <path id="DejaVuSans-6f" d="M 1959 3097 
Q 1497 3097 1228 2736 
Q 959 2375 959 1747 
Q 959 1119 1226 758 
Q 1494 397 1959 397 
Q 2419 397 2687 759 
Q 2956 1122 2956 1747 
Q 2956 2369 2687 2733 
Q 2419 3097 1959 3097 
z
M 1959 3584 
Q 2709 3584 3137 3096 
Q 3566 2609 3566 1747 
Q 3566 888 3137 398 
Q 2709 -91 1959 -91 
Q 1206 -91 779 398 
Q 353 888 353 1747 
Q 353 2609 779 3096 
Q 1206 3584 1959 3584 
z
" transform="scale(0.015625)"/>
       <path id="DejaVuSans-64" d="M 2906 2969 
L 2906 4863 
L 3481 4863 
L 3481 0 
L 2906 0 
L 2906 525 
Q 2725 213 2448 61 
Q 2172 -91 1784 -91 
Q 1150 -91 751 415 
Q 353 922 353 1747 
Q 353 2572 751 3078 
Q 1150 3584 1784 3584 
Q 2172 3584 2448 3432 
Q 2725 3281 2906 2969 
z
M 947 1747 
Q 947 1113 1208 752 
Q 1469 391 1925 391 
Q 2381 391 2643 752 
Q 2906 1113 2906 1747 
Q 2906 2381 2643 2742 
Q 2381 3103 1925 3103 
Q 1469 3103 1208 2742 
Q 947 2381 947 1747 
z
" transform="scale(0.015625)"/>
       <path id="DejaVuSans-20" transform="scale(0.015625)"/>
       <path id="DejaVuSans-4e" d="M 628 4666 
L 1478 4666 
L 3547 763 
L 3547 4666 
L 4159 4666 
L 4159 0 
L 3309 0 
L 1241 3903 
L 1241 0 
L 628 0 
L 628 4666 
z
" transform="scale(0.015625)"/>
       <path id="DejaVuSans-Oblique-65" d="M 3078 2063 
Q 3088 2113 3092 2166 
Q 3097 2219 3097 2272 
Q 3097 2653 2873 2875 
Q 2650 3097 2266 3097 
Q 1838 3097 1509 2826 
Q 1181 2556 1013 2059 
L 3078 2063 
z
M 3578 1613 
L 903 1613 
Q 884 1494 878 1425 
Q 872 1356 872 1306 
Q 872 872 1139 634 
Q 1406 397 1894 397 
Q 2269 397 2603 481 
Q 2938 566 3225 728 
L 3116 159 
Q 2806 34 2476 -28 
Q 2147 -91 1806 -91 
Q 1078 -91 686 257 
Q 294 606 294 1247 
Q 294 1794 489 2264 
Q 684 2734 1063 3103 
Q 1306 3334 1642 3459 
Q 1978 3584 2356 3584 
Q 2950 3584 3301 3228 
Q 3653 2872 3653 2272 
Q 3653 2128 3634 1964 
Q 3616 1800 3578 1613 
z
" transform="scale(0.015625)"/>
      </defs>
      <use xlink:href="#DejaVuSans-44" transform="translate(0 0.015625)"/>
      <use xlink:href="#DejaVuSans-69" transform="translate(77.001953 0.015625)"/>
      <use xlink:href="#DejaVuSans-70" transform="translate(104.785156 0.015625)"/>
      <use xlink:href="#DejaVuSans-6c" transform="translate(168.261719 0.015625)"/>
      <use xlink:href="#DejaVuSans-6f" transform="translate(196.044922 0.015625)"/>
      <use xlink:href="#DejaVuSans-69" transform="translate(257.226562 0.015625)"/>
      <use xlink:href="#DejaVuSans-64" transform="translate(285.009766 0.015625)"/>
      <use xlink:href="#DejaVuSans-20" transform="translate(348.486328 0.015625)"/>
      <use xlink:href="#DejaVuSans-4e" transform="translate(380.273438 0.015625)"/>
      <use xlink:href="#DejaVuSans-Oblique-65" transform="translate(456.035156 -16.390625) scale(0.7)"/>
      <use xlink:href="#DejaVuSans-30" transform="translate(501.835938 0.015625)"/>
     </g>
    </g>
    <g id="text_5">
     <!-- $\times\mathdefault{10^{3}}\mathdefault{}$ -->
     <g transform="translate(188.56 221.452188) scale(0.1 -0.1)">
      <defs>
       <path id="DejaVuSans-d7" d="M 4488 3438 
L 3059 2003 
L 4488 575 
L 4116 197 
L 2681 1631 
L 1247 197 
L 878 575 
L 2303 2003 
L 878 3438 
L 1247 3816 
L 2681 2381 
L 4116 3816 
L 4488 3438 
z
" transform="scale(0.015625)"/>
       <path id="DejaVuSans-31" d="M 794 531 
L 1825 531 
L 1825 4091 
L 703 3866 
L 703 4441 
L 1819 4666 
L 2450 4666 
L 2450 531 
L 3481 531 
L 3481 0 
L 794 0 
L 794 531 
z
" transform="scale(0.015625)"/>
       <path id="DejaVuSans-33" d="M 2597 2516 
Q 3050 2419 3304 2112 
Q 3559 1806 3559 1356 
Q 3559 666 3084 287 
Q 2609 -91 1734 -91 
Q 1441 -91 1130 -33 
Q 819 25 488 141 
L 488 750 
Q 750 597 1062 519 
Q 1375 441 1716 441 
Q 2309 441 2620 675 
Q 2931 909 2931 1356 
Q 2931 1769 2642 2001 
Q 2353 2234 1838 2234 
L 1294 2234 
L 1294 2753 
L 1863 2753 
Q 2328 2753 2575 2939 
Q 2822 3125 2822 3475 
Q 2822 3834 2567 4026 
Q 2313 4219 1838 4219 
Q 1578 4219 1281 4162 
Q 984 4106 628 3988 
L 628 4550 
Q 988 4650 1302 4700 
Q 1616 4750 1894 4750 
Q 2613 4750 3031 4423 
Q 3450 4097 3450 3541 
Q 3450 3153 3228 2886 
Q 3006 2619 2597 2516 
z
" transform="scale(0.015625)"/>
      </defs>
      <use xlink:href="#DejaVuSans-d7" transform="translate(0 0.765625)"/>
      <use xlink:href="#DejaVuSans-31" transform="translate(83.789062 0.765625)"/>
      <use xlink:href="#DejaVuSans-30" transform="translate(147.412109 0.765625)"/>
      <use xlink:href="#DejaVuSans-33" transform="translate(211.992188 39.046875) scale(0.7)"/>
     </g>
    </g>
   </g>
   <g id="matplotlib.axis_2">
    <g id="ytick_1">
     <g id="line2d_4">
      <defs>
       <path id="m78ed2ff1c6" d="M 0 0 
L -3.5 0 
" style="stroke: #000000; stroke-width: 0.8"/>
      </defs>
      <g>
       <use xlink:href="#m78ed2ff1c6" x="36" y="155.28" style="stroke: #000000; stroke-width: 0.8"/>
      </g>
     </g>
     <g id="text_6">
      <!-- $\mathdefault{250}$ -->
      <g transform="translate(6.08 159.839063) scale(0.12 -0.12)">
       <use xlink:href="#DejaVuSans-32" transform="translate(0 0.78125)"/>
       <use xlink:href="#DejaVuSans-35" transform="translate(63.623047 0.78125)"/>
       <use xlink:href="#DejaVuSans-30" transform="translate(127.246094 0.78125)"/>
      </g>
     </g>
    </g>
    <g id="ytick_2">
     <g id="line2d_5">
      <g>
       <use xlink:href="#m78ed2ff1c6" x="36" y="109.08" style="stroke: #000000; stroke-width: 0.8"/>
      </g>
     </g>
     <g id="text_7">
      <!-- $\mathdefault{500}$ -->
      <g transform="translate(6.08 113.639062) scale(0.12 -0.12)">
       <use xlink:href="#DejaVuSans-35" transform="translate(0 0.78125)"/>
       <use xlink:href="#DejaVuSans-30" transform="translate(63.623047 0.78125)"/>
       <use xlink:href="#DejaVuSans-30" transform="translate(127.246094 0.78125)"/>
      </g>
     </g>
    </g>
    <g id="ytick_3">
     <g id="line2d_6">
      <g>
       <use xlink:href="#m78ed2ff1c6" x="36" y="62.88" style="stroke: #000000; stroke-width: 0.8"/>
      </g>
     </g>
     <g id="text_8">
      <!-- $\mathdefault{750}$ -->
      <g transform="translate(6.08 67.439062) scale(0.12 -0.12)">
       <use xlink:href="#DejaVuSans-37" transform="translate(0 0.78125)"/>
       <use xlink:href="#DejaVuSans-35" transform="translate(63.623047 0.78125)"/>
       <use xlink:href="#DejaVuSans-30" transform="translate(127.246094 0.78125)"/>
      </g>
     </g>
    </g>
    <g id="text_9">
     <!-- Diploid N$_e$2 -->
     <g transform="translate(-1.28 154.36) rotate(-90) scale(0.16 -0.16)">
      <use xlink:href="#DejaVuSans-44" transform="translate(0 0.015625)"/>
      <use xlink:href="#DejaVuSans-69" transform="translate(77.001953 0.015625)"/>
      <use xlink:href="#DejaVuSans-70" transform="translate(104.785156 0.015625)"/>
      <use xlink:href="#DejaVuSans-6c" transform="translate(168.261719 0.015625)"/>
      <use xlink:href="#DejaVuSans-6f" transform="translate(196.044922 0.015625)"/>
      <use xlink:href="#DejaVuSans-69" transform="translate(257.226562 0.015625)"/>
      <use xlink:href="#DejaVuSans-64" transform="translate(285.009766 0.015625)"/>
      <use xlink:href="#DejaVuSans-20" transform="translate(348.486328 0.015625)"/>
      <use xlink:href="#DejaVuSans-4e" transform="translate(380.273438 0.015625)"/>
      <use xlink:href="#DejaVuSans-Oblique-65" transform="translate(456.035156 -16.390625) scale(0.7)"/>
      <use xlink:href="#DejaVuSans-32" transform="translate(501.835938 0.015625)"/>
     </g>
    </g>
    <g id="text_10">
     <!-- $\times\mathdefault{10^{3}}\mathdefault{}$ -->
     <g transform="translate(36 22.92) scale(0.1 -0.1)">
      <use xlink:href="#DejaVuSans-d7" transform="translate(0 0.765625)"/>
      <use xlink:href="#DejaVuSans-31" transform="translate(83.789062 0.765625)"/>
      <use xlink:href="#DejaVuSans-30" transform="translate(147.412109 0.765625)"/>
      <use xlink:href="#DejaVuSans-33" transform="translate(211.992188 39.046875) scale(0.7)"/>
     </g>
    </g>
   </g>
   <g id="patch_3">
    <path d="M 36 192.24 
L 36 25.92 
" style="fill: none; stroke: #000000; stroke-width: 0.8; stroke-linejoin: miter; stroke-linecap: square"/>
   </g>
   <g id="patch_4">
    <path d="M 214.56 192.24 
L 214.56 25.92 
" style="fill: none; stroke: #000000; stroke-width: 0.8; stroke-linejoin: miter; stroke-linecap: square"/>
   </g>
   <g id="patch_5">
    <path d="M 36 192.24 
L 214.56 192.24 
" style="fill: none; stroke: #000000; stroke-width: 0.8; stroke-linejoin: miter; stroke-linecap: square"/>
   </g>
   <g id="patch_6">
    <path d="M 36 25.92 
L 214.56 25.92 
" style="fill: none; stroke: #000000; stroke-width: 0.8; stroke-linejoin: miter; stroke-linecap: square"/>
   </g>
   <g id="text_11">
    <!-- Ne0Ne2-MSSMC-T-P2-S4 -->
    <g transform="translate(28.6825 10.92) scale(0.16 -0.16)">
     <defs>
      <path id="DejaVuSans-65" d="M 3597 1894 
L 3597 1613 
L 953 1613 
Q 991 1019 1311 708 
Q 1631 397 2203 397 
Q 2534 397 2845 478 
Q 3156 559 3463 722 
L 3463 178 
Q 3153 47 2828 -22 
Q 2503 -91 2169 -91 
Q 1331 -91 842 396 
Q 353 884 353 1716 
Q 353 2575 817 3079 
Q 1281 3584 2069 3584 
Q 2775 3584 3186 3129 
Q 3597 2675 3597 1894 
z
M 3022 2063 
Q 3016 2534 2758 2815 
Q 2500 3097 2075 3097 
Q 1594 3097 1305 2825 
Q 1016 2553 972 2059 
L 3022 2063 
z
" transform="scale(0.015625)"/>
      <path id="DejaVuSans-2d" d="M 313 2009 
L 1997 2009 
L 1997 1497 
L 313 1497 
L 313 2009 
z
" transform="scale(0.015625)"/>
      <path id="DejaVuSans-4d" d="M 628 4666 
L 1569 4666 
L 2759 1491 
L 3956 4666 
L 4897 4666 
L 4897 0 
L 4281 0 
L 4281 4097 
L 3078 897 
L 2444 897 
L 1241 4097 
L 1241 0 
L 628 0 
L 628 4666 
z
" transform="scale(0.015625)"/>
      <path id="DejaVuSans-53" d="M 3425 4513 
L 3425 3897 
Q 3066 4069 2747 4153 
Q 2428 4238 2131 4238 
Q 1616 4238 1336 4038 
Q 1056 3838 1056 3469 
Q 1056 3159 1242 3001 
Q 1428 2844 1947 2747 
L 2328 2669 
Q 3034 2534 3370 2195 
Q 3706 1856 3706 1288 
Q 3706 609 3251 259 
Q 2797 -91 1919 -91 
Q 1588 -91 1214 -16 
Q 841 59 441 206 
L 441 856 
Q 825 641 1194 531 
Q 1563 422 1919 422 
Q 2459 422 2753 634 
Q 3047 847 3047 1241 
Q 3047 1584 2836 1778 
Q 2625 1972 2144 2069 
L 1759 2144 
Q 1053 2284 737 2584 
Q 422 2884 422 3419 
Q 422 4038 858 4394 
Q 1294 4750 2059 4750 
Q 2388 4750 2728 4690 
Q 3069 4631 3425 4513 
z
" transform="scale(0.015625)"/>
      <path id="DejaVuSans-43" d="M 4122 4306 
L 4122 3641 
Q 3803 3938 3442 4084 
Q 3081 4231 2675 4231 
Q 1875 4231 1450 3742 
Q 1025 3253 1025 2328 
Q 1025 1406 1450 917 
Q 1875 428 2675 428 
Q 3081 428 3442 575 
Q 3803 722 4122 1019 
L 4122 359 
Q 3791 134 3420 21 
Q 3050 -91 2638 -91 
Q 1578 -91 968 557 
Q 359 1206 359 2328 
Q 359 3453 968 4101 
Q 1578 4750 2638 4750 
Q 3056 4750 3426 4639 
Q 3797 4528 4122 4306 
z
" transform="scale(0.015625)"/>
      <path id="DejaVuSans-54" d="M -19 4666 
L 3928 4666 
L 3928 4134 
L 2272 4134 
L 2272 0 
L 1638 0 
L 1638 4134 
L -19 4134 
L -19 4666 
z
" transform="scale(0.015625)"/>
      <path id="DejaVuSans-50" d="M 1259 4147 
L 1259 2394 
L 2053 2394 
Q 2494 2394 2734 2622 
Q 2975 2850 2975 3272 
Q 2975 3691 2734 3919 
Q 2494 4147 2053 4147 
L 1259 4147 
z
M 628 4666 
L 2053 4666 
Q 2838 4666 3239 4311 
Q 3641 3956 3641 3272 
Q 3641 2581 3239 2228 
Q 2838 1875 2053 1875 
L 1259 1875 
L 1259 0 
L 628 0 
L 628 4666 
z
" transform="scale(0.015625)"/>
      <path id="DejaVuSans-34" d="M 2419 4116 
L 825 1625 
L 2419 1625 
L 2419 4116 
z
M 2253 4666 
L 3047 4666 
L 3047 1625 
L 3713 1625 
L 3713 1100 
L 3047 1100 
L 3047 0 
L 2419 0 
L 2419 1100 
L 313 1100 
L 313 1709 
L 2253 4666 
z
" transform="scale(0.015625)"/>
     </defs>
     <use xlink:href="#DejaVuSans-4e"/>
     <use xlink:href="#DejaVuSans-65" x="74.804688"/>
     <use xlink:href="#DejaVuSans-30" x="136.328125"/>
     <use xlink:href="#DejaVuSans-4e" x="199.951172"/>
     <use xlink:href="#DejaVuSans-65" x="274.755859"/>
     <use xlink:href="#DejaVuSans-32" x="336.279297"/>
     <use xlink:href="#DejaVuSans-2d" x="399.902344"/>
     <use xlink:href="#DejaVuSans-4d" x="435.986328"/>
     <use xlink:href="#DejaVuSans-53" x="522.265625"/>
     <use xlink:href="#DejaVuSans-53" x="585.742188"/>
     <use xlink:href="#DejaVuSans-4d" x="649.21875"/>
     <use xlink:href="#DejaVuSans-43" x="735.498047"/>
     <use xlink:href="#DejaVuSans-2d" x="805.322266"/>
     <use xlink:href="#DejaVuSans-54" x="832.28125"/>
     <use xlink:href="#DejaVuSans-2d" x="884.240234"/>
     <use xlink:href="#DejaVuSans-50" x="920.324219"/>
     <use xlink:href="#DejaVuSans-32" x="980.626953"/>
     <use xlink:href="#DejaVuSans-2d" x="1044.25"/>
     <use xlink:href="#DejaVuSans-53" x="1080.333984"/>
     <use xlink:href="#DejaVuSans-34" x="1143.810547"/>
    </g>
   </g>
  </g>
  <g id="axes_2">
   <g id="patch_7">
    <path d="M 225.72 192.24 
L 234.036 192.24 
L 234.036 25.92 
L 225.72 25.92 
z
" style="fill: #ffffff"/>
   </g>
   <g id="QuadMesh_1">
    <path d="M 225.72 192.24 
L 234.036 192.24 
L 234.036 185.31 
L 225.72 185.31 
L 225.72 192.24 
" clip-path="url(#p320a3856ab)" style="fill: #440154"/>
    <path d="M 225.72 185.31 
L 234.036 185.31 
L 234.036 178.38 
L 225.72 178.38 
L 225.72 185.31 
" clip-path="url(#p320a3856ab)" style="fill: #440154"/>
    <path d="M 225.72 178.38 
L 234.036 178.38 
L 234.036 171.45 
L 225.72 171.45 
L 225.72 178.38 
" clip-path="url(#p320a3856ab)" style="fill: #440154"/>
    <path d="M 225.72 171.45 
L 234.036 171.45 
L 234.036 164.52 
L 225.72 164.52 
L 225.72 171.45 
" clip-path="url(#p320a3856ab)" style="fill: #440154"/>
    <path d="M 225.72 164.52 
L 234.036 164.52 
L 234.036 157.59 
L 225.72 157.59 
L 225.72 164.52 
" clip-path="url(#p320a3856ab)" style="fill: #440154"/>
    <path d="M 225.72 157.59 
L 234.036 157.59 
L 234.036 150.66 
L 225.72 150.66 
L 225.72 157.59 
" clip-path="url(#p320a3856ab)" style="fill: #440154"/>
    <path d="M 225.72 150.66 
L 234.036 150.66 
L 234.036 143.73 
L 225.72 143.73 
L 225.72 150.66 
" clip-path="url(#p320a3856ab)" style="fill: #440154"/>
    <path d="M 225.72 143.73 
L 234.036 143.73 
L 234.036 136.8 
L 225.72 136.8 
L 225.72 143.73 
" clip-path="url(#p320a3856ab)" style="fill: #440154"/>
    <path d="M 225.72 136.8 
L 234.036 136.8 
L 234.036 129.87 
L 225.72 129.87 
L 225.72 136.8 
" clip-path="url(#p320a3856ab)" style="fill: #440154"/>
    <path d="M 225.72 129.87 
L 234.036 129.87 
L 234.036 122.94 
L 225.72 122.94 
L 225.72 129.87 
" clip-path="url(#p320a3856ab)" style="fill: #440154"/>
    <path d="M 225.72 122.94 
L 234.036 122.94 
L 234.036 116.01 
L 225.72 116.01 
L 225.72 122.94 
" clip-path="url(#p320a3856ab)" style="fill: #440154"/>
    <path d="M 225.72 116.01 
L 234.036 116.01 
L 234.036 109.08 
L 225.72 109.08 
L 225.72 116.01 
" clip-path="url(#p320a3856ab)" style="fill: #440154"/>
    <path d="M 225.72 109.08 
L 234.036 109.08 
L 234.036 102.15 
L 225.72 102.15 
L 225.72 109.08 
" clip-path="url(#p320a3856ab)" style="fill: #471365"/>
    <path d="M 225.72 102.15 
L 234.036 102.15 
L 234.036 95.22 
L 225.72 95.22 
L 225.72 102.15 
" clip-path="url(#p320a3856ab)" style="fill: #472e7c"/>
    <path d="M 225.72 95.22 
L 234.036 95.22 
L 234.036 88.29 
L 225.72 88.29 
L 225.72 95.22 
" clip-path="url(#p320a3856ab)" style="fill: #3f4788"/>
    <path d="M 225.72 88.29 
L 234.036 88.29 
L 234.036 81.36 
L 225.72 81.36 
L 225.72 88.29 
" clip-path="url(#p320a3856ab)" style="fill: #355f8d"/>
    <path d="M 225.72 81.36 
L 234.036 81.36 
L 234.036 74.43 
L 225.72 74.43 
L 225.72 81.36 
" clip-path="url(#p320a3856ab)" style="fill: #2c738e"/>
    <path d="M 225.72 74.43 
L 234.036 74.43 
L 234.036 67.5 
L 225.72 67.5 
L 225.72 74.43 
" clip-path="url(#p320a3856ab)" style="fill: #24878e"/>
    <path d="M 225.72 67.5 
L 234.036 67.5 
L 234.036 60.57 
L 225.72 60.57 
L 225.72 67.5 
" clip-path="url(#p320a3856ab)" style="fill: #1e9b8a"/>
    <path d="M 225.72 60.57 
L 234.036 60.57 
L 234.036 53.64 
L 225.72 53.64 
L 225.72 60.57 
" clip-path="url(#p320a3856ab)" style="fill: #28ae80"/>
    <path d="M 225.72 53.64 
L 234.036 53.64 
L 234.036 46.71 
L 225.72 46.71 
L 225.72 53.64 
" clip-path="url(#p320a3856ab)" style="fill: #48c16e"/>
    <path d="M 225.72 46.71 
L 234.036 46.71 
L 234.036 39.78 
L 225.72 39.78 
L 225.72 46.71 
" clip-path="url(#p320a3856ab)" style="fill: #77d153"/>
    <path d="M 225.72 39.78 
L 234.036 39.78 
L 234.036 32.85 
L 225.72 32.85 
L 225.72 39.78 
" clip-path="url(#p320a3856ab)" style="fill: #addc30"/>
    <path d="M 225.72 32.85 
L 234.036 32.85 
L 234.036 25.92 
L 225.72 25.92 
L 225.72 32.85 
" clip-path="url(#p320a3856ab)" style="fill: #e5e419"/>
   </g>
   <g id="matplotlib.axis_3"/>
   <g id="matplotlib.axis_4">
    <g id="ytick_4">
     <g id="line2d_7">
      <defs>
       <path id="mc247f94e9a" d="M 0 0 
L 3.5 0 
" style="stroke: #000000; stroke-width: 0.8"/>
      </defs>
      <g>
       <use xlink:href="#mc247f94e9a" x="234.036" y="192.24" style="stroke: #000000; stroke-width: 0.8"/>
      </g>
     </g>
     <g id="text_12">
      <!-- 2250 -->
      <g transform="translate(241.036 196.039219) scale(0.1 -0.1)">
       <defs>
        <path id="DejaVuSans-2212" d="M 678 2272 
L 4684 2272 
L 4684 1741 
L 678 1741 
L 678 2272 
z
" transform="scale(0.015625)"/>
       </defs>
       <use xlink:href="#DejaVuSans-2212"/>
       <use xlink:href="#DejaVuSans-32" x="83.789062"/>
       <use xlink:href="#DejaVuSans-32" x="147.412109"/>
       <use xlink:href="#DejaVuSans-35" x="211.035156"/>
       <use xlink:href="#DejaVuSans-30" x="274.658203"/>
      </g>
     </g>
    </g>
    <g id="ytick_5">
     <g id="line2d_8">
      <g>
       <use xlink:href="#mc247f94e9a" x="234.036" y="171.45" style="stroke: #000000; stroke-width: 0.8"/>
      </g>
     </g>
     <g id="text_13">
      <!-- 2205 -->
      <g transform="translate(241.036 175.249219) scale(0.1 -0.1)">
       <use xlink:href="#DejaVuSans-2212"/>
       <use xlink:href="#DejaVuSans-32" x="83.789062"/>
       <use xlink:href="#DejaVuSans-32" x="147.412109"/>
       <use xlink:href="#DejaVuSans-30" x="211.035156"/>
       <use xlink:href="#DejaVuSans-35" x="274.658203"/>
      </g>
     </g>
    </g>
    <g id="ytick_6">
     <g id="line2d_9">
      <g>
       <use xlink:href="#mc247f94e9a" x="234.036" y="150.66" style="stroke: #000000; stroke-width: 0.8"/>
      </g>
     </g>
     <g id="text_14">
      <!-- 2160 -->
      <g transform="translate(241.036 154.459219) scale(0.1 -0.1)">
       <defs>
        <path id="DejaVuSans-36" d="M 2113 2584 
Q 1688 2584 1439 2293 
Q 1191 2003 1191 1497 
Q 1191 994 1439 701 
Q 1688 409 2113 409 
Q 2538 409 2786 701 
Q 3034 994 3034 1497 
Q 3034 2003 2786 2293 
Q 2538 2584 2113 2584 
z
M 3366 4563 
L 3366 3988 
Q 3128 4100 2886 4159 
Q 2644 4219 2406 4219 
Q 1781 4219 1451 3797 
Q 1122 3375 1075 2522 
Q 1259 2794 1537 2939 
Q 1816 3084 2150 3084 
Q 2853 3084 3261 2657 
Q 3669 2231 3669 1497 
Q 3669 778 3244 343 
Q 2819 -91 2113 -91 
Q 1303 -91 875 529 
Q 447 1150 447 2328 
Q 447 3434 972 4092 
Q 1497 4750 2381 4750 
Q 2619 4750 2861 4703 
Q 3103 4656 3366 4563 
z
" transform="scale(0.015625)"/>
       </defs>
       <use xlink:href="#DejaVuSans-2212"/>
       <use xlink:href="#DejaVuSans-32" x="83.789062"/>
       <use xlink:href="#DejaVuSans-31" x="147.412109"/>
       <use xlink:href="#DejaVuSans-36" x="211.035156"/>
       <use xlink:href="#DejaVuSans-30" x="274.658203"/>
      </g>
     </g>
    </g>
    <g id="ytick_7">
     <g id="line2d_10">
      <g>
       <use xlink:href="#mc247f94e9a" x="234.036" y="129.87" style="stroke: #000000; stroke-width: 0.8"/>
      </g>
     </g>
     <g id="text_15">
      <!-- 2115 -->
      <g transform="translate(241.036 133.669219) scale(0.1 -0.1)">
       <use xlink:href="#DejaVuSans-2212"/>
       <use xlink:href="#DejaVuSans-32" x="83.789062"/>
       <use xlink:href="#DejaVuSans-31" x="147.412109"/>
       <use xlink:href="#DejaVuSans-31" x="211.035156"/>
       <use xlink:href="#DejaVuSans-35" x="274.658203"/>
      </g>
     </g>
    </g>
    <g id="ytick_8">
     <g id="line2d_11">
      <g>
       <use xlink:href="#mc247f94e9a" x="234.036" y="109.08" style="stroke: #000000; stroke-width: 0.8"/>
      </g>
     </g>
     <g id="text_16">
      <!-- 2070 -->
      <g transform="translate(241.036 112.879219) scale(0.1 -0.1)">
       <use xlink:href="#DejaVuSans-2212"/>
       <use xlink:href="#DejaVuSans-32" x="83.789062"/>
       <use xlink:href="#DejaVuSans-30" x="147.412109"/>
       <use xlink:href="#DejaVuSans-37" x="211.035156"/>
       <use xlink:href="#DejaVuSans-30" x="274.658203"/>
      </g>
     </g>
    </g>
    <g id="ytick_9">
     <g id="line2d_12">
      <g>
       <use xlink:href="#mc247f94e9a" x="234.036" y="88.29" style="stroke: #000000; stroke-width: 0.8"/>
      </g>
     </g>
     <g id="text_17">
      <!-- 2025 -->
      <g transform="translate(241.036 92.089219) scale(0.1 -0.1)">
       <use xlink:href="#DejaVuSans-2212"/>
       <use xlink:href="#DejaVuSans-32" x="83.789062"/>
       <use xlink:href="#DejaVuSans-30" x="147.412109"/>
       <use xlink:href="#DejaVuSans-32" x="211.035156"/>
       <use xlink:href="#DejaVuSans-35" x="274.658203"/>
      </g>
     </g>
    </g>
    <g id="ytick_10">
     <g id="line2d_13">
      <g>
       <use xlink:href="#mc247f94e9a" x="234.036" y="67.5" style="stroke: #000000; stroke-width: 0.8"/>
      </g>
     </g>
     <g id="text_18">
      <!-- 1980 -->
      <g transform="translate(241.036 71.299219) scale(0.1 -0.1)">
       <defs>
        <path id="DejaVuSans-39" d="M 703 97 
L 703 672 
Q 941 559 1184 500 
Q 1428 441 1663 441 
Q 2288 441 2617 861 
Q 2947 1281 2994 2138 
Q 2813 1869 2534 1725 
Q 2256 1581 1919 1581 
Q 1219 1581 811 2004 
Q 403 2428 403 3163 
Q 403 3881 828 4315 
Q 1253 4750 1959 4750 
Q 2769 4750 3195 4129 
Q 3622 3509 3622 2328 
Q 3622 1225 3098 567 
Q 2575 -91 1691 -91 
Q 1453 -91 1209 -44 
Q 966 3 703 97 
z
M 1959 2075 
Q 2384 2075 2632 2365 
Q 2881 2656 2881 3163 
Q 2881 3666 2632 3958 
Q 2384 4250 1959 4250 
Q 1534 4250 1286 3958 
Q 1038 3666 1038 3163 
Q 1038 2656 1286 2365 
Q 1534 2075 1959 2075 
z
" transform="scale(0.015625)"/>
        <path id="DejaVuSans-38" d="M 2034 2216 
Q 1584 2216 1326 1975 
Q 1069 1734 1069 1313 
Q 1069 891 1326 650 
Q 1584 409 2034 409 
Q 2484 409 2743 651 
Q 3003 894 3003 1313 
Q 3003 1734 2745 1975 
Q 2488 2216 2034 2216 
z
M 1403 2484 
Q 997 2584 770 2862 
Q 544 3141 544 3541 
Q 544 4100 942 4425 
Q 1341 4750 2034 4750 
Q 2731 4750 3128 4425 
Q 3525 4100 3525 3541 
Q 3525 3141 3298 2862 
Q 3072 2584 2669 2484 
Q 3125 2378 3379 2068 
Q 3634 1759 3634 1313 
Q 3634 634 3220 271 
Q 2806 -91 2034 -91 
Q 1263 -91 848 271 
Q 434 634 434 1313 
Q 434 1759 690 2068 
Q 947 2378 1403 2484 
z
M 1172 3481 
Q 1172 3119 1398 2916 
Q 1625 2713 2034 2713 
Q 2441 2713 2670 2916 
Q 2900 3119 2900 3481 
Q 2900 3844 2670 4047 
Q 2441 4250 2034 4250 
Q 1625 4250 1398 4047 
Q 1172 3844 1172 3481 
z
" transform="scale(0.015625)"/>
       </defs>
       <use xlink:href="#DejaVuSans-2212"/>
       <use xlink:href="#DejaVuSans-31" x="83.789062"/>
       <use xlink:href="#DejaVuSans-39" x="147.412109"/>
       <use xlink:href="#DejaVuSans-38" x="211.035156"/>
       <use xlink:href="#DejaVuSans-30" x="274.658203"/>
      </g>
     </g>
    </g>
    <g id="ytick_11">
     <g id="line2d_14">
      <g>
       <use xlink:href="#mc247f94e9a" x="234.036" y="46.71" style="stroke: #000000; stroke-width: 0.8"/>
      </g>
     </g>
     <g id="text_19">
      <!-- 1935 -->
      <g transform="translate(241.036 50.509219) scale(0.1 -0.1)">
       <use xlink:href="#DejaVuSans-2212"/>
       <use xlink:href="#DejaVuSans-31" x="83.789062"/>
       <use xlink:href="#DejaVuSans-39" x="147.412109"/>
       <use xlink:href="#DejaVuSans-33" x="211.035156"/>
       <use xlink:href="#DejaVuSans-35" x="274.658203"/>
      </g>
     </g>
    </g>
    <g id="ytick_12">
     <g id="line2d_15">
      <g>
       <use xlink:href="#mc247f94e9a" x="234.036" y="25.92" style="stroke: #000000; stroke-width: 0.8"/>
      </g>
     </g>
     <g id="text_20">
      <!-- 1890 -->
      <g transform="translate(241.036 29.719219) scale(0.1 -0.1)">
       <use xlink:href="#DejaVuSans-2212"/>
       <use xlink:href="#DejaVuSans-31" x="83.789062"/>
       <use xlink:href="#DejaVuSans-38" x="147.412109"/>
       <use xlink:href="#DejaVuSans-39" x="211.035156"/>
       <use xlink:href="#DejaVuSans-30" x="274.658203"/>
      </g>
     </g>
    </g>
    <g id="text_21">
     <!-- log likelihood -->
     <g transform="translate(287.983813 148.704375) rotate(-90) scale(0.12 -0.12)">
      <defs>
       <path id="DejaVuSans-67" d="M 2906 1791 
Q 2906 2416 2648 2759 
Q 2391 3103 1925 3103 
Q 1463 3103 1205 2759 
Q 947 2416 947 1791 
Q 947 1169 1205 825 
Q 1463 481 1925 481 
Q 2391 481 2648 825 
Q 2906 1169 2906 1791 
z
M 3481 434 
Q 3481 -459 3084 -895 
Q 2688 -1331 1869 -1331 
Q 1566 -1331 1297 -1286 
Q 1028 -1241 775 -1147 
L 775 -588 
Q 1028 -725 1275 -790 
Q 1522 -856 1778 -856 
Q 2344 -856 2625 -561 
Q 2906 -266 2906 331 
L 2906 616 
Q 2728 306 2450 153 
Q 2172 0 1784 0 
Q 1141 0 747 490 
Q 353 981 353 1791 
Q 353 2603 747 3093 
Q 1141 3584 1784 3584 
Q 2172 3584 2450 3431 
Q 2728 3278 2906 2969 
L 2906 3500 
L 3481 3500 
L 3481 434 
z
" transform="scale(0.015625)"/>
       <path id="DejaVuSans-6b" d="M 581 4863 
L 1159 4863 
L 1159 1991 
L 2875 3500 
L 3609 3500 
L 1753 1863 
L 3688 0 
L 2938 0 
L 1159 1709 
L 1159 0 
L 581 0 
L 581 4863 
z
" transform="scale(0.015625)"/>
       <path id="DejaVuSans-68" d="M 3513 2113 
L 3513 0 
L 2938 0 
L 2938 2094 
Q 2938 2591 2744 2837 
Q 2550 3084 2163 3084 
Q 1697 3084 1428 2787 
Q 1159 2491 1159 1978 
L 1159 0 
L 581 0 
L 581 4863 
L 1159 4863 
L 1159 2956 
Q 1366 3272 1645 3428 
Q 1925 3584 2291 3584 
Q 2894 3584 3203 3211 
Q 3513 2838 3513 2113 
z
" transform="scale(0.015625)"/>
      </defs>
      <use xlink:href="#DejaVuSans-6c"/>
      <use xlink:href="#DejaVuSans-6f" x="27.783203"/>
      <use xlink:href="#DejaVuSans-67" x="88.964844"/>
      <use xlink:href="#DejaVuSans-20" x="152.441406"/>
      <use xlink:href="#DejaVuSans-6c" x="184.228516"/>
      <use xlink:href="#DejaVuSans-69" x="212.011719"/>
      <use xlink:href="#DejaVuSans-6b" x="239.794922"/>
      <use xlink:href="#DejaVuSans-65" x="294.080078"/>
      <use xlink:href="#DejaVuSans-6c" x="355.603516"/>
      <use xlink:href="#DejaVuSans-69" x="383.386719"/>
      <use xlink:href="#DejaVuSans-68" x="411.169922"/>
      <use xlink:href="#DejaVuSans-6f" x="474.548828"/>
      <use xlink:href="#DejaVuSans-6f" x="535.730469"/>
      <use xlink:href="#DejaVuSans-64" x="596.912109"/>
     </g>
    </g>
    <g id="text_22">
     <!-- 1e3 -->
     <g transform="translate(215.157875 22.92) scale(0.1 -0.1)">
      <use xlink:href="#DejaVuSans-31"/>
      <use xlink:href="#DejaVuSans-65" x="63.623047"/>
      <use xlink:href="#DejaVuSans-33" x="125.146484"/>
     </g>
    </g>
   </g>
   <g id="LineCollection_1"/>
   <g id="patch_8">
    <path d="M 225.72 192.24 
L 229.878 192.24 
L 234.036 192.24 
L 234.036 25.92 
L 229.878 25.92 
L 225.72 25.92 
L 225.72 192.24 
z
" style="fill: none; stroke: #000000; stroke-width: 0.8; stroke-linejoin: miter; stroke-linecap: square"/>
   </g>
  </g>
 </g>
 <defs>
  <clipPath id="pdcef18fc7b">
   <rect x="36" y="25.92" width="178.56" height="166.32"/>
  </clipPath>
  <clipPath id="p320a3856ab">
   <rect x="225.72" y="25.92" width="8.316" height="166.32"/>
  </clipPath>
 </defs>
</svg>
