<?xml version="1.0" encoding="utf-8" standalone="no"?>
<!DOCTYPE svg PUBLIC "-//W3C//DTD SVG 1.1//EN"
  "http://www.w3.org/Graphics/SVG/1.1/DTD/svg11.dtd">
<svg xmlns:xlink="http://www.w3.org/1999/xlink" width="288pt" height="216pt" viewBox="0 0 288 216" xmlns="http://www.w3.org/2000/svg" version="1.1">
 <metadata>
  <rdf:RDF xmlns:dc="http://purl.org/dc/elements/1.1/" xmlns:cc="http://creativecommons.org/ns#" xmlns:rdf="http://www.w3.org/1999/02/22-rdf-syntax-ns#">
   <cc:Work>
    <dc:type rdf:resource="http://purl.org/dc/dcmitype/StillImage"/>
    <dc:date>2024-12-14T16:49:57.122538</dc:date>
    <dc:format>image/svg+xml</dc:format>
    <dc:creator>
     <cc:Agent>
      <dc:title>Matplotlib v3.8.4, https://matplotlib.org/</dc:title>
     </cc:Agent>
    </dc:creator>
   </cc:Work>
  </rdf:RDF>
 </metadata>
 <defs>
  <style type="text/css">*{stroke-linejoin: round; stroke-linecap: butt}</style>
 </defs>
 <g id="figure_1">
  <g id="patch_1">
   <path d="M 0 216 
L 288 216 
L 288 0 
L 0 0 
z
" style="fill: #ffffff"/>
  </g>
  <g id="axes_1">
   <g id="patch_2">
    <path d="M 36 192.24 
L 214.56 192.24 
L 214.56 25.92 
L 36 25.92 
z
" style="fill: #ffffff"/>
   </g>
   <g id="QuadContourSet_1">
    <path d="M 59.401558 142.344 
L 58.421991 136.8 
L 57.961458 131.256 
L 57.879306 125.712 
L 58.076894 120.168 
L 58.483489 114.624 
L 59.047394 109.08 
L 59.730216 103.536 
L 59.808 102.978005 
L 62.690097 97.992 
L 65.76 93.110425 
L 70.375572 97.992 
L 71.712 99.529762 
L 73.167697 103.536 
L 74.947547 109.08 
L 76.417426 114.624 
L 77.477257 120.168 
L 77.664 122.178156 
L 77.910689 125.712 
L 77.749778 131.256 
L 77.664 131.783201 
L 76.577725 136.8 
L 74.02438 142.344 
L 71.712 145.229314 
L 66.615695 147.888 
L 65.76 148.16561 
L 65.190861 147.888 
L 59.808 143.665928 
z
" clip-path="url(#pf656c92c70)" style="fill: #e7e419"/>
    <path d="M 57.742053 147.888 
L 56.037487 142.344 
L 55.05792 136.8 
L 54.597387 131.256 
L 54.515234 125.712 
L 54.712823 120.168 
L 55.119417 114.624 
L 55.683323 109.08 
L 56.366145 103.536 
L 57.138972 97.992 
L 57.979768 92.448 
L 58.87157 86.904 
L 59.801201 81.36 
L 59.808 81.32062 
L 63.748763 75.816 
L 65.76 73.062426 
L 68.783876 75.816 
L 71.712 78.536418 
L 72.982667 81.36 
L 75.405849 86.904 
L 77.664 92.289576 
L 77.713915 92.448 
L 79.360764 97.992 
L 80.874483 103.536 
L 82.211911 109.08 
L 83.31642 114.624 
L 83.616 116.709508 
L 84.051552 120.168 
L 84.390847 125.712 
L 84.249776 131.256 
L 83.616 135.69907 
L 83.436873 136.8 
L 81.518218 142.344 
L 78.179523 147.888 
L 77.664 148.420352 
L 71.712 153.038856 
L 70.500186 153.432 
L 65.76 154.419812 
L 62.607213 153.432 
L 59.808 152.066622 
z
M 59.808 143.665928 
L 65.190861 147.888 
L 65.76 148.16561 
L 66.615695 147.888 
L 71.712 145.229314 
L 74.02438 142.344 
L 76.577725 136.8 
L 77.664 131.783201 
L 77.749778 131.256 
L 77.910689 125.712 
L 77.664 122.178156 
L 77.477257 120.168 
L 76.417426 114.624 
L 74.947547 109.08 
L 73.167697 103.536 
L 71.712 99.529762 
L 70.375572 97.992 
L 65.76 93.110425 
L 62.690097 97.992 
L 59.808 102.978005 
L 59.730216 103.536 
L 59.047394 109.08 
L 58.483489 114.624 
L 58.076894 120.168 
L 57.879306 125.712 
L 57.961458 131.256 
L 58.421991 136.8 
L 59.401558 142.344 
z
" clip-path="url(#pf656c92c70)" style="fill: #b2dd2d"/>
    <path d="M 53.394241 142.344 
L 53.011753 136.8 
L 52.831931 131.256 
L 52.799853 125.712 
L 52.877005 120.168 
L 53.035766 114.624 
L 53.255952 109.08 
L 53.522571 103.536 
L 53.824333 97.992 
L 53.856 97.45725 
L 54.615697 92.448 
L 55.507499 86.904 
L 56.43713 81.36 
L 57.394278 75.816 
L 58.370824 70.272 
L 59.36034 64.728 
L 59.808 62.239652 
L 62.08749 59.184 
L 65.76 54.279643 
L 71.281585 59.184 
L 71.712 59.567754 
L 74.131818 64.728 
L 76.711098 70.272 
L 77.664 72.347408 
L 78.860701 75.816 
L 80.735446 81.36 
L 82.556293 86.904 
L 83.616 90.267392 
L 84.218335 92.448 
L 85.662131 97.992 
L 86.989211 103.536 
L 88.161738 109.08 
L 89.130063 114.624 
L 89.568 118.101434 
L 89.811947 120.168 
L 90.129979 125.712 
L 89.997749 131.256 
L 89.568 134.470169 
L 89.235664 136.8 
L 87.553575 142.344 
L 84.626534 147.888 
L 83.616 149.078282 
L 79.399915 153.432 
L 77.664 154.583442 
L 71.712 157.550077 
L 65.76 158.79042 
L 59.808 156.925576 
L 57.118984 153.432 
L 54.377982 147.888 
L 53.856 146.190285 
z
M 59.808 152.066622 
L 62.607213 153.432 
L 65.76 154.419812 
L 70.500186 153.432 
L 71.712 153.038856 
L 77.664 148.420352 
L 78.179523 147.888 
L 81.518218 142.344 
L 83.436873 136.8 
L 83.616 135.69907 
L 84.249776 131.256 
L 84.390847 125.712 
L 84.051552 120.168 
L 83.616 116.709508 
L 83.31642 114.624 
L 82.211911 109.08 
L 80.874483 103.536 
L 79.360764 97.992 
L 77.713915 92.448 
L 77.664 92.289576 
L 75.405849 86.904 
L 72.982667 81.36 
L 71.712 78.536418 
L 68.783876 75.816 
L 65.76 73.062426 
L 63.748763 75.816 
L 59.808 81.32062 
L 59.801201 81.36 
L 58.87157 86.904 
L 57.979768 92.448 
L 57.138972 97.992 
L 56.366145 103.536 
L 55.683323 109.08 
L 55.119417 114.624 
L 54.712823 120.168 
L 54.515234 125.712 
L 54.597387 131.256 
L 55.05792 136.8 
L 56.037487 142.344 
L 57.742053 147.888 
z
" clip-path="url(#pf656c92c70)" style="fill: #7fd34e"/>
    <path d="M 53.816529 153.432 
L 52.74626 147.888 
L 52.080685 142.344 
L 51.698197 136.8 
L 51.518375 131.256 
L 51.486297 125.712 
L 51.563449 120.168 
L 51.72221 114.624 
L 51.942396 109.08 
L 52.209015 103.536 
L 52.510777 97.992 
L 52.83908 92.448 
L 53.187299 86.904 
L 53.550288 81.36 
L 53.856 76.825043 
L 54.030207 75.816 
L 55.006753 70.272 
L 55.996269 64.728 
L 56.993648 59.184 
L 57.994816 53.64 
L 58.996521 48.096 
L 59.808 43.595545 
L 60.588241 42.552 
L 64.716223 37.008 
L 65.76 35.59796 
L 67.32931 37.008 
L 71.712 40.922944 
L 72.474481 42.552 
L 75.080152 48.096 
L 77.664 53.582241 
L 77.684441 53.64 
L 79.645407 59.184 
L 81.59895 64.728 
L 83.537093 70.272 
L 83.616 70.500708 
L 85.223724 75.816 
L 86.867317 81.36 
L 88.463658 86.904 
L 89.568 90.902005 
L 89.968278 92.448 
L 91.321594 97.992 
L 92.565509 103.536 
L 93.664555 109.08 
L 94.572197 114.624 
L 95.226637 120.168 
L 95.52 125.281973 
L 95.543947 125.712 
L 95.52 126.746277 
L 95.412439 131.256 
L 94.671181 136.8 
L 93.094505 142.344 
L 90.350896 147.888 
L 89.568 148.871806 
L 85.696454 153.432 
L 83.616 155.006055 
L 77.664 158.95405 
L 77.619962 158.976 
L 71.712 160.879137 
L 65.76 161.680765 
L 59.808 160.475524 
L 58.022147 158.976 
L 53.856 153.563333 
z
M 53.856 146.190285 
L 54.377982 147.888 
L 57.118984 153.432 
L 59.808 156.925576 
L 65.76 158.79042 
L 71.712 157.550077 
L 77.664 154.583442 
L 79.399915 153.432 
L 83.616 149.078282 
L 84.626534 147.888 
L 87.553575 142.344 
L 89.235664 136.8 
L 89.568 134.470169 
L 89.997749 131.256 
L 90.129979 125.712 
L 89.811947 120.168 
L 89.568 118.101434 
L 89.130063 114.624 
L 88.161738 109.08 
L 86.989211 103.536 
L 85.662131 97.992 
L 84.218335 92.448 
L 83.616 90.267392 
L 82.556293 86.904 
L 80.735446 81.36 
L 78.860701 75.816 
L 77.664 72.347408 
L 76.711098 70.272 
L 74.131818 64.728 
L 71.712 59.567754 
L 71.281585 59.184 
L 65.76 54.279643 
L 62.08749 59.184 
L 59.808 62.239652 
L 59.36034 64.728 
L 58.370824 70.272 
L 57.394278 75.816 
L 56.43713 81.36 
L 55.507499 86.904 
L 54.615697 92.448 
L 53.856 97.45725 
L 53.824333 97.992 
L 53.522571 103.536 
L 53.255952 109.08 
L 53.035766 114.624 
L 52.877005 120.168 
L 52.799853 125.712 
L 52.831931 131.256 
L 53.011753 136.8 
L 53.394241 142.344 
z
" clip-path="url(#pf656c92c70)" style="fill: #54c568"/>
    <path d="M 52.502973 153.432 
L 51.432704 147.888 
L 50.767129 142.344 
L 50.384641 136.8 
L 50.204819 131.256 
L 50.172741 125.712 
L 50.249893 120.168 
L 50.408654 114.624 
L 50.62884 109.08 
L 50.895459 103.536 
L 51.197222 97.992 
L 51.525524 92.448 
L 51.873743 86.904 
L 52.236732 81.36 
L 52.610466 75.816 
L 52.991774 70.272 
L 53.378147 64.728 
L 53.767589 59.184 
L 53.856 57.930174 
L 54.630745 53.64 
L 55.63245 48.096 
L 56.632091 42.552 
L 57.62759 37.008 
L 58.617288 31.464 
L 59.599868 25.92 
L 59.808 25.92 
L 65.76 25.92 
L 71.712 25.92 
L 73.507465 25.92 
L 76.068664 31.464 
L 77.664 34.892445 
L 78.403719 37.008 
L 80.35358 42.552 
L 82.311555 48.096 
L 83.616 51.781923 
L 84.192495 53.64 
L 85.911678 59.184 
L 87.624353 64.728 
L 89.323528 70.272 
L 89.568 71.08025 
L 90.910662 75.816 
L 92.451254 81.36 
L 93.947554 86.904 
L 95.382967 92.448 
L 95.52 93.009368 
L 96.70069 97.992 
L 97.908201 103.536 
L 98.975084 109.08 
L 99.856164 114.624 
L 100.491452 120.168 
L 100.800176 125.712 
L 100.671816 131.256 
L 99.952251 136.8 
L 98.421716 142.344 
L 95.758399 147.888 
L 95.52 148.196609 
L 91.353766 153.432 
L 89.568 154.873428 
L 84.145563 158.976 
L 83.616 159.234947 
L 77.664 161.786518 
L 71.712 163.703841 
L 65.76 164.505469 
L 59.808 163.300228 
L 54.658076 158.976 
L 53.856 157.933941 
z
M 53.856 153.563333 
L 58.022147 158.976 
L 59.808 160.475524 
L 65.76 161.680765 
L 71.712 160.879137 
L 77.619962 158.976 
L 77.664 158.95405 
L 83.616 155.006055 
L 85.696454 153.432 
L 89.568 148.871806 
L 90.350896 147.888 
L 93.094505 142.344 
L 94.671181 136.8 
L 95.412439 131.256 
L 95.52 126.746277 
L 95.543947 125.712 
L 95.52 125.281973 
L 95.226637 120.168 
L 94.572197 114.624 
L 93.664555 109.08 
L 92.565509 103.536 
L 91.321594 97.992 
L 89.968278 92.448 
L 89.568 90.902005 
L 88.463658 86.904 
L 86.867317 81.36 
L 85.223724 75.816 
L 83.616 70.500708 
L 83.537093 70.272 
L 81.59895 64.728 
L 79.645407 59.184 
L 77.684441 53.64 
L 77.664 53.582241 
L 75.080152 48.096 
L 72.474481 42.552 
L 71.712 40.922944 
L 67.32931 37.008 
L 65.76 35.59796 
L 64.716223 37.008 
L 60.588241 42.552 
L 59.808 43.595545 
L 58.996521 48.096 
L 57.994816 53.64 
L 56.993648 59.184 
L 55.996269 64.728 
L 55.006753 70.272 
L 54.030207 75.816 
L 53.856 76.825043 
L 53.550288 81.36 
L 53.187299 86.904 
L 52.83908 92.448 
L 52.510777 97.992 
L 52.209015 103.536 
L 51.942396 109.08 
L 51.72221 114.624 
L 51.563449 120.168 
L 51.486297 125.712 
L 51.518375 131.256 
L 51.698197 136.8 
L 52.080685 142.344 
L 52.74626 147.888 
L 53.816529 153.432 
z
" clip-path="url(#pf656c92c70)" style="fill: #31b57b"/>
    <path d="M 52.855628 158.976 
L 51.189417 153.432 
L 50.119148 147.888 
L 49.453573 142.344 
L 49.071086 136.8 
L 48.891263 131.256 
L 48.859185 125.712 
L 48.936337 120.168 
L 49.095098 114.624 
L 49.315284 109.08 
L 49.581903 103.536 
L 49.883666 97.992 
L 50.211968 92.448 
L 50.560187 86.904 
L 50.923176 81.36 
L 51.29691 75.816 
L 51.678218 70.272 
L 52.064591 64.728 
L 52.454033 59.184 
L 52.844956 53.64 
L 53.236088 48.096 
L 53.626414 42.552 
L 53.856 39.277498 
L 54.263518 37.008 
L 55.253217 31.464 
L 56.235796 25.92 
L 59.599868 25.92 
L 58.617288 31.464 
L 57.62759 37.008 
L 56.632091 42.552 
L 55.63245 48.096 
L 54.630745 53.64 
L 53.856 57.930174 
L 53.767589 59.184 
L 53.378147 64.728 
L 52.991774 70.272 
L 52.610466 75.816 
L 52.236732 81.36 
L 51.873743 86.904 
L 51.525524 92.448 
L 51.197222 97.992 
L 50.895459 103.536 
L 50.62884 109.08 
L 50.408654 114.624 
L 50.249893 120.168 
L 50.172741 125.712 
L 50.204819 131.256 
L 50.384641 136.8 
L 50.767129 142.344 
L 51.432704 147.888 
L 52.502973 153.432 
L 53.856 157.933941 
L 54.658076 158.976 
L 59.808 163.300228 
L 65.76 164.505469 
L 71.712 163.703841 
L 77.664 161.786518 
L 83.616 159.234947 
L 84.145563 158.976 
L 89.568 154.873428 
L 91.353766 153.432 
L 95.52 148.196609 
L 95.758399 147.888 
L 98.421716 142.344 
L 99.952251 136.8 
L 100.671816 131.256 
L 100.800176 125.712 
L 100.491452 120.168 
L 99.856164 114.624 
L 98.975084 109.08 
L 97.908201 103.536 
L 96.70069 97.992 
L 95.52 93.009368 
L 95.382967 92.448 
L 93.947554 86.904 
L 92.451254 81.36 
L 90.910662 75.816 
L 89.568 71.08025 
L 89.323528 70.272 
L 87.624353 64.728 
L 85.911678 59.184 
L 84.192495 53.64 
L 83.616 51.781923 
L 82.311555 48.096 
L 80.35358 42.552 
L 78.403719 37.008 
L 77.664 34.892445 
L 76.068664 31.464 
L 73.507465 25.92 
L 77.664 25.92 
L 81.129793 25.92 
L 83.05435 31.464 
L 83.616 33.070286 
L 84.823088 37.008 
L 86.532535 42.552 
L 88.249095 48.096 
L 89.568 52.346909 
L 89.944057 53.64 
L 91.555502 59.184 
L 93.160847 64.728 
L 94.753538 70.272 
L 95.52 72.975416 
L 96.301783 75.816 
L 97.79729 81.36 
L 99.249801 86.904 
L 100.643207 92.448 
L 101.472 95.945591 
L 101.952377 97.992 
L 103.148578 103.536 
L 104.205468 109.08 
L 105.078295 114.624 
L 105.707632 120.168 
L 106.013465 125.712 
L 105.886307 131.256 
L 105.173482 136.8 
L 103.657283 142.344 
L 101.472 146.935928 
L 101.014628 147.888 
L 96.73192 153.432 
L 95.52 154.439724 
L 89.900067 158.976 
L 89.568 159.149231 
L 83.616 162.059651 
L 77.876792 164.52 
L 77.664 164.578127 
L 71.712 165.799847 
L 65.76 166.310645 
L 59.808 165.542665 
L 57.896612 164.52 
L 53.856 161.127226 
z
" clip-path="url(#pf656c92c70)" style="fill: #1fa287"/>
    <path d="M 47.7929 136.8 
L 47.662046 131.256 
L 47.639317 125.712 
L 47.694292 120.168 
L 47.810829 114.624 
L 47.904 111.540669 
L 48.001728 109.08 
L 48.268347 103.536 
L 48.57011 97.992 
L 48.898412 92.448 
L 49.246631 86.904 
L 49.60962 81.36 
L 49.983354 75.816 
L 50.364662 70.272 
L 50.751035 64.728 
L 51.140478 59.184 
L 51.5314 53.64 
L 51.922532 48.096 
L 52.312858 42.552 
L 52.701566 37.008 
L 53.08801 31.464 
L 53.471674 25.92 
L 53.856 25.92 
L 56.235796 25.92 
L 55.253217 31.464 
L 54.263518 37.008 
L 53.856 39.277498 
L 53.626414 42.552 
L 53.236088 48.096 
L 52.844956 53.64 
L 52.454033 59.184 
L 52.064591 64.728 
L 51.678218 70.272 
L 51.29691 75.816 
L 50.923176 81.36 
L 50.560187 86.904 
L 50.211968 92.448 
L 49.883666 97.992 
L 49.581903 103.536 
L 49.315284 109.08 
L 49.095098 114.624 
L 48.936337 120.168 
L 48.859185 125.712 
L 48.891263 131.256 
L 49.071086 136.8 
L 49.453573 142.344 
L 50.119148 147.888 
L 51.189417 153.432 
L 52.855628 158.976 
L 53.856 161.127226 
L 57.896612 164.52 
L 59.808 165.542665 
L 65.76 166.310645 
L 71.712 165.799847 
L 77.664 164.578127 
L 77.876792 164.52 
L 83.616 162.059651 
L 89.568 159.149231 
L 89.900067 158.976 
L 95.52 154.439724 
L 96.73192 153.432 
L 101.014628 147.888 
L 101.472 146.935928 
L 103.657283 142.344 
L 105.173482 136.8 
L 105.886307 131.256 
L 106.013465 125.712 
L 105.707632 120.168 
L 105.078295 114.624 
L 104.205468 109.08 
L 103.148578 103.536 
L 101.952377 97.992 
L 101.472 95.945591 
L 100.643207 92.448 
L 99.249801 86.904 
L 97.79729 81.36 
L 96.301783 75.816 
L 95.52 72.975416 
L 94.753538 70.272 
L 93.160847 64.728 
L 91.555502 59.184 
L 89.944057 53.64 
L 89.568 52.346909 
L 88.249095 48.096 
L 86.532535 42.552 
L 84.823088 37.008 
L 83.616 33.070286 
L 83.05435 31.464 
L 81.129793 25.92 
L 83.616 25.92 
L 87.213043 25.92 
L 88.900306 31.464 
L 89.568 33.642126 
L 90.535132 37.008 
L 92.137452 42.552 
L 93.746438 48.096 
L 95.358747 53.64 
L 95.52 54.194773 
L 96.927752 59.184 
L 98.486117 64.728 
L 100.032198 70.272 
L 101.472 75.503476 
L 101.557207 75.816 
L 103.038706 81.36 
L 104.477612 86.904 
L 105.857966 92.448 
L 107.159373 97.992 
L 107.424 99.21846 
L 108.358463 103.536 
L 109.418631 109.08 
L 110.294165 114.624 
L 110.925454 120.168 
L 111.232235 125.712 
L 111.104683 131.256 
L 110.389647 136.8 
L 108.868746 142.344 
L 107.424 145.370454 
L 106.225908 147.888 
L 101.983315 153.432 
L 101.472 153.861184 
L 95.52 158.810332 
L 95.314756 158.976 
L 89.568 161.973935 
L 84.361129 164.52 
L 83.616 164.752167 
L 77.664 166.378031 
L 71.712 167.599752 
L 65.76 168.11055 
L 59.808 167.342569 
L 54.532541 164.52 
L 53.856 163.95193 
L 51.542072 158.976 
L 49.875861 153.432 
L 48.805593 147.888 
L 48.140017 142.344 
L 47.904 138.923028 
z
" clip-path="url(#pf656c92c70)" style="fill: #21908d"/>
    <path d="M 47.543349 147.888 
L 47.044787 142.344 
L 46.796545 136.8 
L 46.688013 131.256 
L 46.669161 125.712 
L 46.714758 120.168 
L 46.811416 114.624 
L 46.952152 109.08 
L 47.133875 103.536 
L 47.356171 97.992 
L 47.62074 92.448 
L 47.904 87.366904 
L 47.933075 86.904 
L 48.296064 81.36 
L 48.669798 75.816 
L 49.051106 70.272 
L 49.437479 64.728 
L 49.826922 59.184 
L 50.217844 53.64 
L 50.608976 48.096 
L 50.999302 42.552 
L 51.38801 37.008 
L 51.774454 31.464 
L 52.158118 25.92 
L 53.471674 25.92 
L 53.08801 31.464 
L 52.701566 37.008 
L 52.312858 42.552 
L 51.922532 48.096 
L 51.5314 53.64 
L 51.140478 59.184 
L 50.751035 64.728 
L 50.364662 70.272 
L 49.983354 75.816 
L 49.60962 81.36 
L 49.246631 86.904 
L 48.898412 92.448 
L 48.57011 97.992 
L 48.268347 103.536 
L 48.001728 109.08 
L 47.904 111.540669 
L 47.810829 114.624 
L 47.694292 120.168 
L 47.639317 125.712 
L 47.662046 131.256 
L 47.7929 136.8 
L 47.904 138.923028 
L 48.140017 142.344 
L 48.805593 147.888 
L 49.875861 153.432 
L 51.542072 158.976 
L 53.856 163.95193 
L 54.532541 164.52 
L 59.808 167.342569 
L 65.76 168.11055 
L 71.712 167.599752 
L 77.664 166.378031 
L 83.616 164.752167 
L 84.361129 164.52 
L 89.568 161.973935 
L 95.314756 158.976 
L 95.52 158.810332 
L 101.472 153.861184 
L 101.983315 153.432 
L 106.225908 147.888 
L 107.424 145.370454 
L 108.868746 142.344 
L 110.389647 136.8 
L 111.104683 131.256 
L 111.232235 125.712 
L 110.925454 120.168 
L 110.294165 114.624 
L 109.418631 109.08 
L 108.358463 103.536 
L 107.424 99.21846 
L 107.159373 97.992 
L 105.857966 92.448 
L 104.477612 86.904 
L 103.038706 81.36 
L 101.557207 75.816 
L 101.472 75.503476 
L 100.032198 70.272 
L 98.486117 64.728 
L 96.927752 59.184 
L 95.52 54.194773 
L 95.358747 53.64 
L 93.746438 48.096 
L 92.137452 42.552 
L 90.535132 37.008 
L 89.568 33.642126 
L 88.900306 31.464 
L 87.213043 25.92 
L 89.568 25.92 
L 92.775313 25.92 
L 94.356838 31.464 
L 95.52 35.512107 
L 95.937243 37.008 
L 97.492671 42.552 
L 99.054571 48.096 
L 100.619696 53.64 
L 101.472 56.660659 
L 102.177313 59.184 
L 103.721081 64.728 
L 105.25268 70.272 
L 106.764203 75.816 
L 107.424 78.285065 
L 108.24825 81.36 
L 109.691619 86.904 
L 111.076254 92.448 
L 112.381697 97.992 
L 113.376 102.586022 
L 113.583906 103.536 
L 114.655924 109.08 
L 115.541245 114.624 
L 116.17959 120.168 
L 116.489801 125.712 
L 116.360823 131.256 
L 115.637794 136.8 
L 114.099893 142.344 
L 113.376 143.843648 
L 111.445337 147.888 
L 107.424 153.126627 
L 107.190311 153.432 
L 101.472 158.231792 
L 100.576992 158.976 
L 95.52 161.693634 
L 90.102124 164.52 
L 89.568 164.697549 
L 83.616 166.552072 
L 77.664 168.177936 
L 71.712 169.399656 
L 65.76 169.910454 
L 59.808 169.142474 
L 53.856 165.95793 
L 52.80661 164.52 
L 50.228516 158.976 
L 48.562305 153.432 
L 47.904 150.021974 
z
" clip-path="url(#pf656c92c70)" style="fill: #277e8e"/>
    <path d="M 47.223191 153.432 
L 46.393403 147.888 
L 45.997378 142.344 
L 45.800191 136.8 
L 45.71398 131.256 
L 45.699006 125.712 
L 45.735225 120.168 
L 45.812003 114.624 
L 45.923795 109.08 
L 46.068144 103.536 
L 46.244721 97.992 
L 46.454878 92.448 
L 46.701502 86.904 
L 46.989088 81.36 
L 47.323994 75.816 
L 47.714925 70.272 
L 47.904 67.883643 
L 48.123923 64.728 
L 48.513366 59.184 
L 48.904288 53.64 
L 49.29542 48.096 
L 49.685746 42.552 
L 50.074454 37.008 
L 50.460898 31.464 
L 50.844562 25.92 
L 52.158118 25.92 
L 51.774454 31.464 
L 51.38801 37.008 
L 50.999302 42.552 
L 50.608976 48.096 
L 50.217844 53.64 
L 49.826922 59.184 
L 49.437479 64.728 
L 49.051106 70.272 
L 48.669798 75.816 
L 48.296064 81.36 
L 47.933075 86.904 
L 47.904 87.366904 
L 47.62074 92.448 
L 47.356171 97.992 
L 47.133875 103.536 
L 46.952152 109.08 
L 46.811416 114.624 
L 46.714758 120.168 
L 46.669161 125.712 
L 46.688013 131.256 
L 46.796545 136.8 
L 47.044787 142.344 
L 47.543349 147.888 
L 47.904 150.021974 
L 48.562305 153.432 
L 50.228516 158.976 
L 52.80661 164.52 
L 53.856 165.95793 
L 59.808 169.142474 
L 65.76 169.910454 
L 71.712 169.399656 
L 77.664 168.177936 
L 83.616 166.552072 
L 89.568 164.697549 
L 90.102124 164.52 
L 95.52 161.693634 
L 100.576992 158.976 
L 101.472 158.231792 
L 107.190311 153.432 
L 107.424 153.126627 
L 111.445337 147.888 
L 113.376 143.843648 
L 114.099893 142.344 
L 115.637794 136.8 
L 116.360823 131.256 
L 116.489801 125.712 
L 116.17959 120.168 
L 115.541245 114.624 
L 114.655924 109.08 
L 113.583906 103.536 
L 113.376 102.586022 
L 112.381697 97.992 
L 111.076254 92.448 
L 109.691619 86.904 
L 108.24825 81.36 
L 107.424 78.285065 
L 106.764203 75.816 
L 105.25268 70.272 
L 103.721081 64.728 
L 102.177313 59.184 
L 101.472 56.660659 
L 100.619696 53.64 
L 99.054571 48.096 
L 97.492671 42.552 
L 95.937243 37.008 
L 95.52 35.512107 
L 94.356838 31.464 
L 92.775313 25.92 
L 95.52 25.92 
L 98.111865 25.92 
L 99.647108 31.464 
L 101.193473 37.008 
L 101.472 38.000753 
L 102.73694 42.552 
L 104.28421 48.096 
L 105.834675 53.64 
L 107.384309 59.184 
L 107.424 59.32654 
L 108.932742 64.728 
L 110.469091 70.272 
L 111.985301 75.816 
L 113.376 81.004122 
L 113.472461 81.36 
L 114.931964 86.904 
L 116.332076 92.448 
L 117.652111 97.992 
L 118.865435 103.536 
L 119.328 105.928182 
L 119.94752 109.08 
L 120.847465 114.624 
L 121.496355 120.168 
L 121.81169 125.712 
L 121.680582 131.256 
L 120.94561 136.8 
L 119.382304 142.344 
L 119.328 142.454671 
L 116.705285 147.888 
L 113.376 152.177142 
L 112.412731 153.432 
L 107.424 157.606456 
L 105.792371 158.976 
L 101.472 161.319726 
L 95.52 164.518338 
L 95.516813 164.52 
L 89.568 166.497453 
L 83.616 168.351976 
L 77.664 169.977841 
L 77.244247 170.064 
L 71.712 170.842451 
L 65.76 171.125564 
L 59.808 170.685924 
L 58.166286 170.064 
L 53.856 167.757835 
L 51.493054 164.52 
L 48.91496 158.976 
L 47.904 155.612223 
z
" clip-path="url(#pf656c92c70)" style="fill: #2f6b8e"/>
    <path d="M 47.460648 158.976 
L 45.858401 153.432 
L 45.243457 147.888 
L 44.949969 142.344 
L 44.803837 136.8 
L 44.739947 131.256 
L 44.72885 125.712 
L 44.755691 120.168 
L 44.812591 114.624 
L 44.895438 109.08 
L 45.002413 103.536 
L 45.133271 97.992 
L 45.289015 92.448 
L 45.471785 86.904 
L 45.68491 81.36 
L 45.933104 75.816 
L 46.222817 70.272 
L 46.562812 64.728 
L 46.965068 59.184 
L 47.446214 53.64 
L 47.904 49.199663 
L 47.981864 48.096 
L 48.37219 42.552 
L 48.760899 37.008 
L 49.147342 31.464 
L 49.531006 25.92 
L 50.844562 25.92 
L 50.460898 31.464 
L 50.074454 37.008 
L 49.685746 42.552 
L 49.29542 48.096 
L 48.904288 53.64 
L 48.513366 59.184 
L 48.123923 64.728 
L 47.904 67.883643 
L 47.714925 70.272 
L 47.323994 75.816 
L 46.989088 81.36 
L 46.701502 86.904 
L 46.454878 92.448 
L 46.244721 97.992 
L 46.068144 103.536 
L 45.923795 109.08 
L 45.812003 114.624 
L 45.735225 120.168 
L 45.699006 125.712 
L 45.71398 131.256 
L 45.800191 136.8 
L 45.997378 142.344 
L 46.393403 147.888 
L 47.223191 153.432 
L 47.904 155.612223 
L 48.91496 158.976 
L 51.493054 164.52 
L 53.856 167.757835 
L 58.166286 170.064 
L 59.808 170.685924 
L 65.76 171.125564 
L 71.712 170.842451 
L 77.244247 170.064 
L 77.664 169.977841 
L 83.616 168.351976 
L 89.568 166.497453 
L 95.516813 164.52 
L 95.52 164.518338 
L 101.472 161.319726 
L 105.792371 158.976 
L 107.424 157.606456 
L 112.412731 153.432 
L 113.376 152.177142 
L 116.705285 147.888 
L 119.328 142.454671 
L 119.382304 142.344 
L 120.94561 136.8 
L 121.680582 131.256 
L 121.81169 125.712 
L 121.496355 120.168 
L 120.847465 114.624 
L 119.94752 109.08 
L 119.328 105.928182 
L 118.865435 103.536 
L 117.652111 97.992 
L 116.332076 92.448 
L 114.931964 86.904 
L 113.472461 81.36 
L 113.376 81.004122 
L 111.985301 75.816 
L 110.469091 70.272 
L 108.932742 64.728 
L 107.424 59.32654 
L 107.384309 59.184 
L 105.834675 53.64 
L 104.28421 48.096 
L 102.73694 42.552 
L 101.472 38.000753 
L 101.193473 37.008 
L 99.647108 31.464 
L 98.111865 25.92 
L 101.472 25.92 
L 103.350335 25.92 
L 104.871197 31.464 
L 106.403077 37.008 
L 107.424 40.681274 
L 107.945548 42.552 
L 109.497617 48.096 
L 111.05289 53.64 
L 112.60733 59.184 
L 113.376 61.935921 
L 114.164604 64.728 
L 115.718126 70.272 
L 117.251285 75.816 
L 118.75399 81.36 
L 119.328 83.540409 
L 120.22812 86.904 
L 121.65136 92.448 
L 122.993201 97.992 
L 124.226567 103.536 
L 125.28 108.895357 
L 125.317022 109.08 
L 126.235044 114.624 
L 126.896968 120.168 
L 127.218637 125.712 
L 127.084895 131.256 
L 126.33516 136.8 
L 125.28 140.468265 
L 124.751077 142.344 
L 122.030734 147.888 
L 119.328 151.313369 
L 117.683492 153.432 
L 113.376 156.996567 
L 111.010456 158.976 
L 107.424 160.915574 
L 101.472 164.14443 
L 100.773136 164.52 
L 95.52 166.318845 
L 89.568 168.297358 
L 83.89805 170.064 
L 83.616 170.156985 
L 77.664 171.447864 
L 71.712 172.076323 
L 65.76 172.286134 
L 59.808 171.960324 
L 54.802215 170.064 
L 53.856 169.557739 
L 50.179498 164.52 
L 47.904 159.62671 
z
" clip-path="url(#pf656c92c70)" style="fill: #39568c"/>
    <path d="M 45.536076 158.976 
L 44.493611 153.432 
L 44.093511 147.888 
L 43.90256 142.344 
L 43.807482 136.8 
L 43.765914 131.256 
L 43.758694 125.712 
L 43.776158 120.168 
L 43.813178 114.624 
L 43.867081 109.08 
L 43.936681 103.536 
L 44.021822 97.992 
L 44.123153 92.448 
L 44.242068 86.904 
L 44.380733 81.36 
L 44.542214 75.816 
L 44.73071 70.272 
L 44.95192 64.728 
L 45.213638 59.184 
L 45.526685 53.64 
L 45.906428 48.096 
L 46.375359 42.552 
L 46.967672 37.008 
L 47.737925 31.464 
L 47.904 30.449402 
L 48.21745 25.92 
L 49.531006 25.92 
L 49.147342 31.464 
L 48.760899 37.008 
L 48.37219 42.552 
L 47.981864 48.096 
L 47.904 49.199663 
L 47.446214 53.64 
L 46.965068 59.184 
L 46.562812 64.728 
L 46.222817 70.272 
L 45.933104 75.816 
L 45.68491 81.36 
L 45.471785 86.904 
L 45.289015 92.448 
L 45.133271 97.992 
L 45.002413 103.536 
L 44.895438 109.08 
L 44.812591 114.624 
L 44.755691 120.168 
L 44.72885 125.712 
L 44.739947 131.256 
L 44.803837 136.8 
L 44.949969 142.344 
L 45.243457 147.888 
L 45.858401 153.432 
L 47.460648 158.976 
L 47.904 159.62671 
L 50.179498 164.52 
L 53.856 169.557739 
L 54.802215 170.064 
L 59.808 171.960324 
L 65.76 172.286134 
L 71.712 172.076323 
L 77.664 171.447864 
L 83.616 170.156985 
L 83.89805 170.064 
L 89.568 168.297358 
L 95.52 166.318845 
L 100.773136 164.52 
L 101.472 164.14443 
L 107.424 160.915574 
L 111.010456 158.976 
L 113.376 156.996567 
L 117.683492 153.432 
L 119.328 151.313369 
L 122.030734 147.888 
L 124.751077 142.344 
L 125.28 140.468265 
L 126.33516 136.8 
L 127.084895 131.256 
L 127.218637 125.712 
L 126.896968 120.168 
L 126.235044 114.624 
L 125.317022 109.08 
L 125.28 108.895357 
L 124.226567 103.536 
L 122.993201 97.992 
L 121.65136 92.448 
L 120.22812 86.904 
L 119.328 83.540409 
L 118.75399 81.36 
L 117.251285 75.816 
L 115.718126 70.272 
L 114.164604 64.728 
L 113.376 61.935921 
L 112.60733 59.184 
L 111.05289 53.64 
L 109.497617 48.096 
L 107.945548 42.552 
L 107.424 40.681274 
L 106.403077 37.008 
L 104.871197 31.464 
L 103.350335 25.92 
L 107.424 25.92 
L 108.560846 25.92 
L 110.086424 31.464 
L 111.623056 37.008 
L 113.168693 42.552 
L 113.376 43.292501 
L 114.735794 48.096 
L 116.308452 53.64 
L 117.880267 59.184 
L 119.328 64.309748 
L 119.448084 64.728 
L 121.027268 70.272 
L 122.585753 75.816 
L 124.113281 81.36 
L 125.28 85.719826 
L 125.603258 86.904 
L 127.055086 92.448 
L 128.423879 97.992 
L 129.682019 103.536 
L 130.793634 109.08 
L 131.232 111.727323 
L 131.722433 114.624 
L 132.399229 120.168 
L 132.728125 125.712 
L 132.591378 131.256 
L 131.824798 136.8 
L 131.232 138.815577 
L 130.217065 142.344 
L 127.44208 147.888 
L 125.28 150.574204 
L 123.0251 153.432 
L 119.328 156.441733 
L 116.265543 158.976 
L 113.376 160.521405 
L 107.424 163.740278 
L 105.986678 164.52 
L 101.472 166.281203 
L 95.52 168.11875 
L 89.668065 170.064 
L 89.568 170.118475 
L 83.616 172.061422 
L 77.664 172.901303 
L 71.712 173.310195 
L 65.76 173.446704 
L 59.808 173.234723 
L 53.856 171.607833 
L 52.198552 170.064 
L 48.865943 164.52 
L 47.904 162.451414 
z
" clip-path="url(#pf656c92c70)" style="fill: #424186"/>
    <path d="M 46.493998 164.52 
L 43.611504 158.976 
L 43.12882 153.432 
L 42.943566 147.888 
L 42.855151 142.344 
L 42.811128 136.8 
L 42.791881 131.256 
L 42.788538 125.712 
L 42.796624 120.168 
L 42.813765 114.624 
L 42.838723 109.08 
L 42.87095 103.536 
L 42.910372 97.992 
L 42.95729 92.448 
L 43.01235 86.904 
L 43.076555 81.36 
L 43.151325 75.816 
L 43.238602 70.272 
L 43.341027 64.728 
L 43.462208 59.184 
L 43.607156 53.64 
L 43.782985 48.096 
L 44.00011 42.552 
L 44.274364 37.008 
L 44.631007 31.464 
L 45.112939 25.92 
L 47.904 25.92 
L 48.21745 25.92 
L 47.904 30.449402 
L 47.737925 31.464 
L 46.967672 37.008 
L 46.375359 42.552 
L 45.906428 48.096 
L 45.526685 53.64 
L 45.213638 59.184 
L 44.95192 64.728 
L 44.73071 70.272 
L 44.542214 75.816 
L 44.380733 81.36 
L 44.242068 86.904 
L 44.123153 92.448 
L 44.021822 97.992 
L 43.936681 103.536 
L 43.867081 109.08 
L 43.813178 114.624 
L 43.776158 120.168 
L 43.758694 125.712 
L 43.765914 131.256 
L 43.807482 136.8 
L 43.90256 142.344 
L 44.093511 147.888 
L 44.493611 153.432 
L 45.536076 158.976 
L 47.904 162.451414 
L 48.865943 164.52 
L 52.198552 170.064 
L 53.856 171.607833 
L 59.808 173.234723 
L 65.76 173.446704 
L 71.712 173.310195 
L 77.664 172.901303 
L 83.616 172.061422 
L 89.568 170.118475 
L 89.668065 170.064 
L 95.52 168.11875 
L 101.472 166.281203 
L 105.986678 164.52 
L 107.424 163.740278 
L 113.376 160.521405 
L 116.265543 158.976 
L 119.328 156.441733 
L 123.0251 153.432 
L 125.28 150.574204 
L 127.44208 147.888 
L 130.217065 142.344 
L 131.232 138.815577 
L 131.824798 136.8 
L 132.591378 131.256 
L 132.728125 125.712 
L 132.399229 120.168 
L 131.722433 114.624 
L 131.232 111.727323 
L 130.793634 109.08 
L 129.682019 103.536 
L 128.423879 97.992 
L 127.055086 92.448 
L 125.603258 86.904 
L 125.28 85.719826 
L 124.113281 81.36 
L 122.585753 75.816 
L 121.027268 70.272 
L 119.448084 64.728 
L 119.328 64.309748 
L 117.880267 59.184 
L 116.308452 53.64 
L 114.735794 48.096 
L 113.376 43.292501 
L 113.168693 42.552 
L 111.623056 37.008 
L 110.086424 31.464 
L 108.560846 25.92 
L 113.376 25.92 
L 113.870397 25.92 
L 115.331183 31.464 
L 116.88499 37.008 
L 118.447905 42.552 
L 119.328 45.660955 
L 120.110473 48.096 
L 121.627345 53.64 
L 123.225125 59.184 
L 124.816857 64.728 
L 125.28 66.353943 
L 126.436177 70.272 
L 128.008247 75.816 
L 129.566458 81.36 
L 131.07987 86.904 
L 131.232 87.484929 
L 132.5609 92.448 
L 133.960447 97.992 
L 135.246854 103.536 
L 136.383445 109.08 
L 137.184 113.808374 
L 137.349494 114.624 
L 138.043462 120.168 
L 138.355278 125.712 
L 138.215244 131.256 
L 137.466351 136.8 
L 137.184 137.617583 
L 135.793922 142.344 
L 132.956589 147.888 
L 131.232 149.983574 
L 128.456419 153.432 
L 125.28 155.96694 
L 121.583728 158.976 
L 119.328 160.792359 
L 113.376 163.346109 
L 111.205365 164.52 
L 107.424 167.050301 
L 101.472 168.312484 
L 95.52 169.918655 
L 95.082754 170.064 
L 89.568 173.066233 
L 83.616 173.965858 
L 77.664 174.354741 
L 71.712 174.544067 
L 65.76 174.607274 
L 59.808 174.509122 
L 53.856 173.755837 
L 49.892469 170.064 
L 47.904 165.833348 
z
" clip-path="url(#pf656c92c70)" style="fill: #482979"/>
    <path d="M 36 186.696 
L 36 181.152 
L 36 175.608 
L 36 170.064 
L 36 164.52 
L 36 158.976 
L 36 153.432 
L 36 147.888 
L 36 142.344 
L 36 136.8 
L 36 131.256 
L 36 125.712 
L 36 120.168 
L 36 114.624 
L 36 109.08 
L 36 103.536 
L 36 97.992 
L 36 92.448 
L 36 86.904 
L 36 81.36 
L 36 75.816 
L 36 70.272 
L 36 64.728 
L 36 59.184 
L 36 53.64 
L 36 48.096 
L 36 42.552 
L 36 37.008 
L 36 31.464 
L 36 25.92 
L 41.952 25.92 
L 45.112939 25.92 
L 44.631007 31.464 
L 44.274364 37.008 
L 44.00011 42.552 
L 43.782985 48.096 
L 43.607156 53.64 
L 43.462208 59.184 
L 43.341027 64.728 
L 43.238602 70.272 
L 43.151325 75.816 
L 43.076555 81.36 
L 43.01235 86.904 
L 42.95729 92.448 
L 42.910372 97.992 
L 42.87095 103.536 
L 42.838723 109.08 
L 42.813765 114.624 
L 42.796624 120.168 
L 42.788538 125.712 
L 42.791881 131.256 
L 42.811128 136.8 
L 42.855151 142.344 
L 42.943566 147.888 
L 43.12882 153.432 
L 43.611504 158.976 
L 46.493998 164.52 
L 47.904 165.833348 
L 49.892469 170.064 
L 53.856 173.755837 
L 59.808 174.509122 
L 65.76 174.607274 
L 71.712 174.544067 
L 77.664 174.354741 
L 83.616 173.965858 
L 89.568 173.066233 
L 95.082754 170.064 
L 95.52 169.918655 
L 101.472 168.312484 
L 107.424 167.050301 
L 111.205365 164.52 
L 113.376 163.346109 
L 119.328 160.792359 
L 121.583728 158.976 
L 125.28 155.96694 
L 128.456419 153.432 
L 131.232 149.983574 
L 132.956589 147.888 
L 135.793922 142.344 
L 137.184 137.617583 
L 137.466351 136.8 
L 138.215244 131.256 
L 138.355278 125.712 
L 138.043462 120.168 
L 137.349494 114.624 
L 137.184 113.808374 
L 136.383445 109.08 
L 135.246854 103.536 
L 133.960447 97.992 
L 132.5609 92.448 
L 131.232 87.484929 
L 131.07987 86.904 
L 129.566458 81.36 
L 128.008247 75.816 
L 126.436177 70.272 
L 125.28 66.353943 
L 124.816857 64.728 
L 123.225125 59.184 
L 121.627345 53.64 
L 120.110473 48.096 
L 119.328 45.660955 
L 118.447905 42.552 
L 116.88499 37.008 
L 115.331183 31.464 
L 113.870397 25.92 
L 119.328 25.92 
L 125.28 25.92 
L 131.232 25.92 
L 137.184 25.92 
L 143.136 25.92 
L 149.088 25.92 
L 155.04 25.92 
L 160.992 25.92 
L 166.944 25.92 
L 172.896 25.92 
L 178.848 25.92 
L 184.8 25.92 
L 190.752 25.92 
L 196.704 25.92 
L 202.656 25.92 
L 208.608 25.92 
L 214.56 25.92 
L 214.56 31.464 
L 214.56 37.008 
L 214.56 42.552 
L 214.56 48.096 
L 214.56 53.64 
L 214.56 59.184 
L 214.56 64.728 
L 214.56 70.272 
L 214.56 75.816 
L 214.56 81.36 
L 214.56 86.904 
L 214.56 92.448 
L 214.56 97.992 
L 214.56 103.536 
L 214.56 109.08 
L 214.56 114.624 
L 214.56 120.168 
L 214.56 125.712 
L 214.56 131.256 
L 214.56 136.8 
L 214.56 142.344 
L 214.56 147.888 
L 214.56 153.432 
L 214.56 158.976 
L 214.56 164.52 
L 214.56 170.064 
L 214.56 175.608 
L 214.56 181.152 
L 214.56 186.696 
L 214.56 192.24 
L 208.608 192.24 
L 202.656 192.24 
L 196.704 192.24 
L 190.752 192.24 
L 184.8 192.24 
L 178.848 192.24 
L 172.896 192.24 
L 166.944 192.24 
L 160.992 192.24 
L 155.04 192.24 
L 149.088 192.24 
L 143.136 192.24 
L 137.184 192.24 
L 131.232 192.24 
L 125.28 192.24 
L 119.328 192.24 
L 113.376 192.24 
L 107.424 192.24 
L 101.472 192.24 
L 95.52 192.24 
L 89.568 192.24 
L 83.616 192.24 
L 77.664 192.24 
L 71.712 192.24 
L 65.76 192.24 
L 59.808 192.24 
L 53.856 192.24 
L 47.904 192.24 
L 41.952 192.24 
L 36 192.24 
z
" clip-path="url(#pf656c92c70)" style="fill: #470e61"/>
   </g>
   <g id="PathCollection_1">
    <defs>
     <path id="m810f81139c" d="M -4.743416 4.743416 
L 4.743416 -4.743416 
M -4.743416 -4.743416 
L 4.743416 4.743416 
" style="stroke: #ffffff; stroke-width: 5"/>
    </defs>
    <g clip-path="url(#pf656c92c70)">
     <use xlink:href="#m810f81139c" x="65.76" y="127.56" style="fill: #ffffff; stroke: #ffffff; stroke-width: 5"/>
    </g>
   </g>
   <g id="PathCollection_2">
    <defs>
     <path id="m092c418397" d="M -4.330127 4.330127 
L 4.330127 -4.330127 
M -4.330127 -4.330127 
L 4.330127 4.330127 
" style="stroke: #000000; stroke-width: 2"/>
    </defs>
    <g clip-path="url(#pf656c92c70)">
     <use xlink:href="#m092c418397" x="65.76" y="127.56" style="stroke: #000000; stroke-width: 2"/>
    </g>
   </g>
   <g id="matplotlib.axis_1">
    <g id="xtick_1">
     <g id="line2d_1">
      <defs>
       <path id="m115d2d2eb7" d="M 0 0 
L 0 6 
" style="stroke: #000000; stroke-width: 2"/>
      </defs>
      <g>
       <use xlink:href="#m115d2d2eb7" x="65.76" y="192.24" style="stroke: #000000; stroke-width: 2"/>
      </g>
     </g>
     <g id="text_1">
      <!-- $\mathdefault{200}$ -->
      <g transform="translate(52.39 212.377813) scale(0.14 -0.14)">
       <defs>
        <path id="DejaVuSans-32" d="M 1228 531 
L 3431 531 
L 3431 0 
L 469 0 
L 469 531 
Q 828 903 1448 1529 
Q 2069 2156 2228 2338 
Q 2531 2678 2651 2914 
Q 2772 3150 2772 3378 
Q 2772 3750 2511 3984 
Q 2250 4219 1831 4219 
Q 1534 4219 1204 4116 
Q 875 4013 500 3803 
L 500 4441 
Q 881 4594 1212 4672 
Q 1544 4750 1819 4750 
Q 2544 4750 2975 4387 
Q 3406 4025 3406 3419 
Q 3406 3131 3298 2873 
Q 3191 2616 2906 2266 
Q 2828 2175 2409 1742 
Q 1991 1309 1228 531 
z
" transform="scale(0.015625)"/>
        <path id="DejaVuSans-30" d="M 2034 4250 
Q 1547 4250 1301 3770 
Q 1056 3291 1056 2328 
Q 1056 1369 1301 889 
Q 1547 409 2034 409 
Q 2525 409 2770 889 
Q 3016 1369 3016 2328 
Q 3016 3291 2770 3770 
Q 2525 4250 2034 4250 
z
M 2034 4750 
Q 2819 4750 3233 4129 
Q 3647 3509 3647 2328 
Q 3647 1150 3233 529 
Q 2819 -91 2034 -91 
Q 1250 -91 836 529 
Q 422 1150 422 2328 
Q 422 3509 836 4129 
Q 1250 4750 2034 4750 
z
" transform="scale(0.015625)"/>
       </defs>
       <use xlink:href="#DejaVuSans-32" transform="translate(0 0.78125)"/>
       <use xlink:href="#DejaVuSans-30" transform="translate(63.623047 0.78125)"/>
       <use xlink:href="#DejaVuSans-30" transform="translate(127.246094 0.78125)"/>
      </g>
     </g>
    </g>
    <g id="xtick_2">
     <g id="line2d_2">
      <g>
       <use xlink:href="#m115d2d2eb7" x="105.44" y="192.24" style="stroke: #000000; stroke-width: 2"/>
      </g>
     </g>
     <g id="text_2">
      <!-- $\mathdefault{400}$ -->
      <g transform="translate(92.07 212.377813) scale(0.14 -0.14)">
       <defs>
        <path id="DejaVuSans-34" d="M 2419 4116 
L 825 1625 
L 2419 1625 
L 2419 4116 
z
M 2253 4666 
L 3047 4666 
L 3047 1625 
L 3713 1625 
L 3713 1100 
L 3047 1100 
L 3047 0 
L 2419 0 
L 2419 1100 
L 313 1100 
L 313 1709 
L 2253 4666 
z
" transform="scale(0.015625)"/>
       </defs>
       <use xlink:href="#DejaVuSans-34" transform="translate(0 0.78125)"/>
       <use xlink:href="#DejaVuSans-30" transform="translate(63.623047 0.78125)"/>
       <use xlink:href="#DejaVuSans-30" transform="translate(127.246094 0.78125)"/>
      </g>
     </g>
    </g>
    <g id="xtick_3">
     <g id="line2d_3">
      <g>
       <use xlink:href="#m115d2d2eb7" x="145.12" y="192.24" style="stroke: #000000; stroke-width: 2"/>
      </g>
     </g>
     <g id="text_3">
      <!-- $\mathdefault{600}$ -->
      <g transform="translate(131.75 212.377813) scale(0.14 -0.14)">
       <defs>
        <path id="DejaVuSans-36" d="M 2113 2584 
Q 1688 2584 1439 2293 
Q 1191 2003 1191 1497 
Q 1191 994 1439 701 
Q 1688 409 2113 409 
Q 2538 409 2786 701 
Q 3034 994 3034 1497 
Q 3034 2003 2786 2293 
Q 2538 2584 2113 2584 
z
M 3366 4563 
L 3366 3988 
Q 3128 4100 2886 4159 
Q 2644 4219 2406 4219 
Q 1781 4219 1451 3797 
Q 1122 3375 1075 2522 
Q 1259 2794 1537 2939 
Q 1816 3084 2150 3084 
Q 2853 3084 3261 2657 
Q 3669 2231 3669 1497 
Q 3669 778 3244 343 
Q 2819 -91 2113 -91 
Q 1303 -91 875 529 
Q 447 1150 447 2328 
Q 447 3434 972 4092 
Q 1497 4750 2381 4750 
Q 2619 4750 2861 4703 
Q 3103 4656 3366 4563 
z
" transform="scale(0.015625)"/>
       </defs>
       <use xlink:href="#DejaVuSans-36" transform="translate(0 0.78125)"/>
       <use xlink:href="#DejaVuSans-30" transform="translate(63.623047 0.78125)"/>
       <use xlink:href="#DejaVuSans-30" transform="translate(127.246094 0.78125)"/>
      </g>
     </g>
    </g>
    <g id="xtick_4">
     <g id="line2d_4">
      <g>
       <use xlink:href="#m115d2d2eb7" x="184.8" y="192.24" style="stroke: #000000; stroke-width: 2"/>
      </g>
     </g>
     <g id="text_4">
      <!-- $\mathdefault{800}$ -->
      <g transform="translate(171.43 212.377813) scale(0.14 -0.14)">
       <defs>
        <path id="DejaVuSans-38" d="M 2034 2216 
Q 1584 2216 1326 1975 
Q 1069 1734 1069 1313 
Q 1069 891 1326 650 
Q 1584 409 2034 409 
Q 2484 409 2743 651 
Q 3003 894 3003 1313 
Q 3003 1734 2745 1975 
Q 2488 2216 2034 2216 
z
M 1403 2484 
Q 997 2584 770 2862 
Q 544 3141 544 3541 
Q 544 4100 942 4425 
Q 1341 4750 2034 4750 
Q 2731 4750 3128 4425 
Q 3525 4100 3525 3541 
Q 3525 3141 3298 2862 
Q 3072 2584 2669 2484 
Q 3125 2378 3379 2068 
Q 3634 1759 3634 1313 
Q 3634 634 3220 271 
Q 2806 -91 2034 -91 
Q 1263 -91 848 271 
Q 434 634 434 1313 
Q 434 1759 690 2068 
Q 947 2378 1403 2484 
z
M 1172 3481 
Q 1172 3119 1398 2916 
Q 1625 2713 2034 2713 
Q 2441 2713 2670 2916 
Q 2900 3119 2900 3481 
Q 2900 3844 2670 4047 
Q 2441 4250 2034 4250 
Q 1625 4250 1398 4047 
Q 1172 3844 1172 3481 
z
" transform="scale(0.015625)"/>
       </defs>
       <use xlink:href="#DejaVuSans-38" transform="translate(0 0.78125)"/>
       <use xlink:href="#DejaVuSans-30" transform="translate(63.623047 0.78125)"/>
       <use xlink:href="#DejaVuSans-30" transform="translate(127.246094 0.78125)"/>
      </g>
     </g>
    </g>
    <g id="text_5">
     <!-- Diploid N$_e$0 -->
     <g transform="translate(74.34 232.969375) scale(0.18 -0.18)">
      <defs>
       <path id="DejaVuSans-44" d="M 1259 4147 
L 1259 519 
L 2022 519 
Q 2988 519 3436 956 
Q 3884 1394 3884 2338 
Q 3884 3275 3436 3711 
Q 2988 4147 2022 4147 
L 1259 4147 
z
M 628 4666 
L 1925 4666 
Q 3281 4666 3915 4102 
Q 4550 3538 4550 2338 
Q 4550 1131 3912 565 
Q 3275 0 1925 0 
L 628 0 
L 628 4666 
z
" transform="scale(0.015625)"/>
       <path id="DejaVuSans-69" d="M 603 3500 
L 1178 3500 
L 1178 0 
L 603 0 
L 603 3500 
z
M 603 4863 
L 1178 4863 
L 1178 4134 
L 603 4134 
L 603 4863 
z
" transform="scale(0.015625)"/>
       <path id="DejaVuSans-70" d="M 1159 525 
L 1159 -1331 
L 581 -1331 
L 581 3500 
L 1159 3500 
L 1159 2969 
Q 1341 3281 1617 3432 
Q 1894 3584 2278 3584 
Q 2916 3584 3314 3078 
Q 3713 2572 3713 1747 
Q 3713 922 3314 415 
Q 2916 -91 2278 -91 
Q 1894 -91 1617 61 
Q 1341 213 1159 525 
z
M 3116 1747 
Q 3116 2381 2855 2742 
Q 2594 3103 2138 3103 
Q 1681 3103 1420 2742 
Q 1159 2381 1159 1747 
Q 1159 1113 1420 752 
Q 1681 391 2138 391 
Q 2594 391 2855 752 
Q 3116 1113 3116 1747 
z
" transform="scale(0.015625)"/>
       <path id="DejaVuSans-6c" d="M 603 4863 
L 1178 4863 
L 1178 0 
L 603 0 
L 603 4863 
z
" transform="scale(0.015625)"/>
       <path id="DejaVuSans-6f" d="M 1959 3097 
Q 1497 3097 1228 2736 
Q 959 2375 959 1747 
Q 959 1119 1226 758 
Q 1494 397 1959 397 
Q 2419 397 2687 759 
Q 2956 1122 2956 1747 
Q 2956 2369 2687 2733 
Q 2419 3097 1959 3097 
z
M 1959 3584 
Q 2709 3584 3137 3096 
Q 3566 2609 3566 1747 
Q 3566 888 3137 398 
Q 2709 -91 1959 -91 
Q 1206 -91 779 398 
Q 353 888 353 1747 
Q 353 2609 779 3096 
Q 1206 3584 1959 3584 
z
" transform="scale(0.015625)"/>
       <path id="DejaVuSans-64" d="M 2906 2969 
L 2906 4863 
L 3481 4863 
L 3481 0 
L 2906 0 
L 2906 525 
Q 2725 213 2448 61 
Q 2172 -91 1784 -91 
Q 1150 -91 751 415 
Q 353 922 353 1747 
Q 353 2572 751 3078 
Q 1150 3584 1784 3584 
Q 2172 3584 2448 3432 
Q 2725 3281 2906 2969 
z
M 947 1747 
Q 947 1113 1208 752 
Q 1469 391 1925 391 
Q 2381 391 2643 752 
Q 2906 1113 2906 1747 
Q 2906 2381 2643 2742 
Q 2381 3103 1925 3103 
Q 1469 3103 1208 2742 
Q 947 2381 947 1747 
z
" transform="scale(0.015625)"/>
       <path id="DejaVuSans-20" transform="scale(0.015625)"/>
       <path id="DejaVuSans-4e" d="M 628 4666 
L 1478 4666 
L 3547 763 
L 3547 4666 
L 4159 4666 
L 4159 0 
L 3309 0 
L 1241 3903 
L 1241 0 
L 628 0 
L 628 4666 
z
" transform="scale(0.015625)"/>
       <path id="DejaVuSans-Oblique-65" d="M 3078 2063 
Q 3088 2113 3092 2166 
Q 3097 2219 3097 2272 
Q 3097 2653 2873 2875 
Q 2650 3097 2266 3097 
Q 1838 3097 1509 2826 
Q 1181 2556 1013 2059 
L 3078 2063 
z
M 3578 1613 
L 903 1613 
Q 884 1494 878 1425 
Q 872 1356 872 1306 
Q 872 872 1139 634 
Q 1406 397 1894 397 
Q 2269 397 2603 481 
Q 2938 566 3225 728 
L 3116 159 
Q 2806 34 2476 -28 
Q 2147 -91 1806 -91 
Q 1078 -91 686 257 
Q 294 606 294 1247 
Q 294 1794 489 2264 
Q 684 2734 1063 3103 
Q 1306 3334 1642 3459 
Q 1978 3584 2356 3584 
Q 2950 3584 3301 3228 
Q 3653 2872 3653 2272 
Q 3653 2128 3634 1964 
Q 3616 1800 3578 1613 
z
" transform="scale(0.015625)"/>
      </defs>
      <use xlink:href="#DejaVuSans-44" transform="translate(0 0.015625)"/>
      <use xlink:href="#DejaVuSans-69" transform="translate(77.001953 0.015625)"/>
      <use xlink:href="#DejaVuSans-70" transform="translate(104.785156 0.015625)"/>
      <use xlink:href="#DejaVuSans-6c" transform="translate(168.261719 0.015625)"/>
      <use xlink:href="#DejaVuSans-6f" transform="translate(196.044922 0.015625)"/>
      <use xlink:href="#DejaVuSans-69" transform="translate(257.226562 0.015625)"/>
      <use xlink:href="#DejaVuSans-64" transform="translate(285.009766 0.015625)"/>
      <use xlink:href="#DejaVuSans-20" transform="translate(348.486328 0.015625)"/>
      <use xlink:href="#DejaVuSans-4e" transform="translate(380.273438 0.015625)"/>
      <use xlink:href="#DejaVuSans-Oblique-65" transform="translate(456.035156 -16.390625) scale(0.7)"/>
      <use xlink:href="#DejaVuSans-30" transform="translate(501.835938 0.015625)"/>
     </g>
    </g>
    <g id="text_6">
     <!-- $\times\mathdefault{10^{3}}\mathdefault{}$ -->
     <g transform="translate(188.56 225.887812) scale(0.1 -0.1)">
      <defs>
       <path id="DejaVuSans-d7" d="M 4488 3438 
L 3059 2003 
L 4488 575 
L 4116 197 
L 2681 1631 
L 1247 197 
L 878 575 
L 2303 2003 
L 878 3438 
L 1247 3816 
L 2681 2381 
L 4116 3816 
L 4488 3438 
z
" transform="scale(0.015625)"/>
       <path id="DejaVuSans-31" d="M 794 531 
L 1825 531 
L 1825 4091 
L 703 3866 
L 703 4441 
L 1819 4666 
L 2450 4666 
L 2450 531 
L 3481 531 
L 3481 0 
L 794 0 
L 794 531 
z
" transform="scale(0.015625)"/>
       <path id="DejaVuSans-33" d="M 2597 2516 
Q 3050 2419 3304 2112 
Q 3559 1806 3559 1356 
Q 3559 666 3084 287 
Q 2609 -91 1734 -91 
Q 1441 -91 1130 -33 
Q 819 25 488 141 
L 488 750 
Q 750 597 1062 519 
Q 1375 441 1716 441 
Q 2309 441 2620 675 
Q 2931 909 2931 1356 
Q 2931 1769 2642 2001 
Q 2353 2234 1838 2234 
L 1294 2234 
L 1294 2753 
L 1863 2753 
Q 2328 2753 2575 2939 
Q 2822 3125 2822 3475 
Q 2822 3834 2567 4026 
Q 2313 4219 1838 4219 
Q 1578 4219 1281 4162 
Q 984 4106 628 3988 
L 628 4550 
Q 988 4650 1302 4700 
Q 1616 4750 1894 4750 
Q 2613 4750 3031 4423 
Q 3450 4097 3450 3541 
Q 3450 3153 3228 2886 
Q 3006 2619 2597 2516 
z
" transform="scale(0.015625)"/>
      </defs>
      <use xlink:href="#DejaVuSans-d7" transform="translate(0 0.765625)"/>
      <use xlink:href="#DejaVuSans-31" transform="translate(83.789062 0.765625)"/>
      <use xlink:href="#DejaVuSans-30" transform="translate(147.412109 0.765625)"/>
      <use xlink:href="#DejaVuSans-33" transform="translate(211.992188 39.046875) scale(0.7)"/>
     </g>
    </g>
   </g>
   <g id="matplotlib.axis_2">
    <g id="ytick_1">
     <g id="line2d_5">
      <defs>
       <path id="mcfac263c33" d="M 0 0 
L -6 0 
" style="stroke: #000000; stroke-width: 2"/>
      </defs>
      <g>
       <use xlink:href="#mcfac263c33" x="36" y="164.52" style="stroke: #000000; stroke-width: 2"/>
      </g>
     </g>
     <g id="text_7">
      <!-- $\mathdefault{200}$ -->
      <g transform="translate(-0.24 169.838906) scale(0.14 -0.14)">
       <use xlink:href="#DejaVuSans-32" transform="translate(0 0.78125)"/>
       <use xlink:href="#DejaVuSans-30" transform="translate(63.623047 0.78125)"/>
       <use xlink:href="#DejaVuSans-30" transform="translate(127.246094 0.78125)"/>
      </g>
     </g>
    </g>
    <g id="ytick_2">
     <g id="line2d_6">
      <g>
       <use xlink:href="#mcfac263c33" x="36" y="127.56" style="stroke: #000000; stroke-width: 2"/>
      </g>
     </g>
     <g id="text_8">
      <!-- $\mathdefault{400}$ -->
      <g transform="translate(-0.24 132.878906) scale(0.14 -0.14)">
       <use xlink:href="#DejaVuSans-34" transform="translate(0 0.78125)"/>
       <use xlink:href="#DejaVuSans-30" transform="translate(63.623047 0.78125)"/>
       <use xlink:href="#DejaVuSans-30" transform="translate(127.246094 0.78125)"/>
      </g>
     </g>
    </g>
    <g id="ytick_3">
     <g id="line2d_7">
      <g>
       <use xlink:href="#mcfac263c33" x="36" y="90.6" style="stroke: #000000; stroke-width: 2"/>
      </g>
     </g>
     <g id="text_9">
      <!-- $\mathdefault{600}$ -->
      <g transform="translate(-0.24 95.918906) scale(0.14 -0.14)">
       <use xlink:href="#DejaVuSans-36" transform="translate(0 0.78125)"/>
       <use xlink:href="#DejaVuSans-30" transform="translate(63.623047 0.78125)"/>
       <use xlink:href="#DejaVuSans-30" transform="translate(127.246094 0.78125)"/>
      </g>
     </g>
    </g>
    <g id="ytick_4">
     <g id="line2d_8">
      <g>
       <use xlink:href="#mcfac263c33" x="36" y="53.64" style="stroke: #000000; stroke-width: 2"/>
      </g>
     </g>
     <g id="text_10">
      <!-- $\mathdefault{800}$ -->
      <g transform="translate(-0.24 58.958906) scale(0.14 -0.14)">
       <use xlink:href="#DejaVuSans-38" transform="translate(0 0.78125)"/>
       <use xlink:href="#DejaVuSans-30" transform="translate(63.623047 0.78125)"/>
       <use xlink:href="#DejaVuSans-30" transform="translate(127.246094 0.78125)"/>
      </g>
     </g>
    </g>
    <g id="text_11">
     <!-- Diploid N$_e$2 -->
     <g transform="translate(-8.02 160.02) rotate(-90) scale(0.18 -0.18)">
      <use xlink:href="#DejaVuSans-44" transform="translate(0 0.015625)"/>
      <use xlink:href="#DejaVuSans-69" transform="translate(77.001953 0.015625)"/>
      <use xlink:href="#DejaVuSans-70" transform="translate(104.785156 0.015625)"/>
      <use xlink:href="#DejaVuSans-6c" transform="translate(168.261719 0.015625)"/>
      <use xlink:href="#DejaVuSans-6f" transform="translate(196.044922 0.015625)"/>
      <use xlink:href="#DejaVuSans-69" transform="translate(257.226562 0.015625)"/>
      <use xlink:href="#DejaVuSans-64" transform="translate(285.009766 0.015625)"/>
      <use xlink:href="#DejaVuSans-20" transform="translate(348.486328 0.015625)"/>
      <use xlink:href="#DejaVuSans-4e" transform="translate(380.273438 0.015625)"/>
      <use xlink:href="#DejaVuSans-Oblique-65" transform="translate(456.035156 -16.390625) scale(0.7)"/>
      <use xlink:href="#DejaVuSans-32" transform="translate(501.835938 0.015625)"/>
     </g>
    </g>
    <g id="text_12">
     <!-- $\times\mathdefault{10^{3}}\mathdefault{}$ -->
     <g transform="translate(36 22.92) scale(0.1 -0.1)">
      <use xlink:href="#DejaVuSans-d7" transform="translate(0 0.765625)"/>
      <use xlink:href="#DejaVuSans-31" transform="translate(83.789062 0.765625)"/>
      <use xlink:href="#DejaVuSans-30" transform="translate(147.412109 0.765625)"/>
      <use xlink:href="#DejaVuSans-33" transform="translate(211.992188 39.046875) scale(0.7)"/>
     </g>
    </g>
   </g>
   <g id="patch_3">
    <path d="M 36 192.24 
L 36 25.92 
" style="fill: none; stroke: #000000; stroke-width: 0.8; stroke-linejoin: miter; stroke-linecap: square"/>
   </g>
   <g id="patch_4">
    <path d="M 214.56 192.24 
L 214.56 25.92 
" style="fill: none; stroke: #000000; stroke-width: 0.8; stroke-linejoin: miter; stroke-linecap: square"/>
   </g>
   <g id="patch_5">
    <path d="M 36 192.24 
L 214.56 192.24 
" style="fill: none; stroke: #000000; stroke-width: 0.8; stroke-linejoin: miter; stroke-linecap: square"/>
   </g>
   <g id="patch_6">
    <path d="M 36 25.92 
L 214.56 25.92 
" style="fill: none; stroke: #000000; stroke-width: 0.8; stroke-linejoin: miter; stroke-linecap: square"/>
   </g>
   <g id="text_13">
    <!-- Ne0Ne2-MSC-G-P2-S4 -->
    <g transform="translate(37.60125 10.92) scale(0.16 -0.16)">
     <defs>
      <path id="DejaVuSans-65" d="M 3597 1894 
L 3597 1613 
L 953 1613 
Q 991 1019 1311 708 
Q 1631 397 2203 397 
Q 2534 397 2845 478 
Q 3156 559 3463 722 
L 3463 178 
Q 3153 47 2828 -22 
Q 2503 -91 2169 -91 
Q 1331 -91 842 396 
Q 353 884 353 1716 
Q 353 2575 817 3079 
Q 1281 3584 2069 3584 
Q 2775 3584 3186 3129 
Q 3597 2675 3597 1894 
z
M 3022 2063 
Q 3016 2534 2758 2815 
Q 2500 3097 2075 3097 
Q 1594 3097 1305 2825 
Q 1016 2553 972 2059 
L 3022 2063 
z
" transform="scale(0.015625)"/>
      <path id="DejaVuSans-2d" d="M 313 2009 
L 1997 2009 
L 1997 1497 
L 313 1497 
L 313 2009 
z
" transform="scale(0.015625)"/>
      <path id="DejaVuSans-4d" d="M 628 4666 
L 1569 4666 
L 2759 1491 
L 3956 4666 
L 4897 4666 
L 4897 0 
L 4281 0 
L 4281 4097 
L 3078 897 
L 2444 897 
L 1241 4097 
L 1241 0 
L 628 0 
L 628 4666 
z
" transform="scale(0.015625)"/>
      <path id="DejaVuSans-53" d="M 3425 4513 
L 3425 3897 
Q 3066 4069 2747 4153 
Q 2428 4238 2131 4238 
Q 1616 4238 1336 4038 
Q 1056 3838 1056 3469 
Q 1056 3159 1242 3001 
Q 1428 2844 1947 2747 
L 2328 2669 
Q 3034 2534 3370 2195 
Q 3706 1856 3706 1288 
Q 3706 609 3251 259 
Q 2797 -91 1919 -91 
Q 1588 -91 1214 -16 
Q 841 59 441 206 
L 441 856 
Q 825 641 1194 531 
Q 1563 422 1919 422 
Q 2459 422 2753 634 
Q 3047 847 3047 1241 
Q 3047 1584 2836 1778 
Q 2625 1972 2144 2069 
L 1759 2144 
Q 1053 2284 737 2584 
Q 422 2884 422 3419 
Q 422 4038 858 4394 
Q 1294 4750 2059 4750 
Q 2388 4750 2728 4690 
Q 3069 4631 3425 4513 
z
" transform="scale(0.015625)"/>
      <path id="DejaVuSans-43" d="M 4122 4306 
L 4122 3641 
Q 3803 3938 3442 4084 
Q 3081 4231 2675 4231 
Q 1875 4231 1450 3742 
Q 1025 3253 1025 2328 
Q 1025 1406 1450 917 
Q 1875 428 2675 428 
Q 3081 428 3442 575 
Q 3803 722 4122 1019 
L 4122 359 
Q 3791 134 3420 21 
Q 3050 -91 2638 -91 
Q 1578 -91 968 557 
Q 359 1206 359 2328 
Q 359 3453 968 4101 
Q 1578 4750 2638 4750 
Q 3056 4750 3426 4639 
Q 3797 4528 4122 4306 
z
" transform="scale(0.015625)"/>
      <path id="DejaVuSans-47" d="M 3809 666 
L 3809 1919 
L 2778 1919 
L 2778 2438 
L 4434 2438 
L 4434 434 
Q 4069 175 3628 42 
Q 3188 -91 2688 -91 
Q 1594 -91 976 548 
Q 359 1188 359 2328 
Q 359 3472 976 4111 
Q 1594 4750 2688 4750 
Q 3144 4750 3555 4637 
Q 3966 4525 4313 4306 
L 4313 3634 
Q 3963 3931 3569 4081 
Q 3175 4231 2741 4231 
Q 1884 4231 1454 3753 
Q 1025 3275 1025 2328 
Q 1025 1384 1454 906 
Q 1884 428 2741 428 
Q 3075 428 3337 486 
Q 3600 544 3809 666 
z
" transform="scale(0.015625)"/>
      <path id="DejaVuSans-50" d="M 1259 4147 
L 1259 2394 
L 2053 2394 
Q 2494 2394 2734 2622 
Q 2975 2850 2975 3272 
Q 2975 3691 2734 3919 
Q 2494 4147 2053 4147 
L 1259 4147 
z
M 628 4666 
L 2053 4666 
Q 2838 4666 3239 4311 
Q 3641 3956 3641 3272 
Q 3641 2581 3239 2228 
Q 2838 1875 2053 1875 
L 1259 1875 
L 1259 0 
L 628 0 
L 628 4666 
z
" transform="scale(0.015625)"/>
     </defs>
     <use xlink:href="#DejaVuSans-4e"/>
     <use xlink:href="#DejaVuSans-65" x="74.804688"/>
     <use xlink:href="#DejaVuSans-30" x="136.328125"/>
     <use xlink:href="#DejaVuSans-4e" x="199.951172"/>
     <use xlink:href="#DejaVuSans-65" x="274.755859"/>
     <use xlink:href="#DejaVuSans-32" x="336.279297"/>
     <use xlink:href="#DejaVuSans-2d" x="399.902344"/>
     <use xlink:href="#DejaVuSans-4d" x="435.986328"/>
     <use xlink:href="#DejaVuSans-53" x="522.265625"/>
     <use xlink:href="#DejaVuSans-43" x="585.742188"/>
     <use xlink:href="#DejaVuSans-2d" x="655.566406"/>
     <use xlink:href="#DejaVuSans-47" x="695.275391"/>
     <use xlink:href="#DejaVuSans-2d" x="772.765625"/>
     <use xlink:href="#DejaVuSans-50" x="808.849609"/>
     <use xlink:href="#DejaVuSans-32" x="869.152344"/>
     <use xlink:href="#DejaVuSans-2d" x="932.775391"/>
     <use xlink:href="#DejaVuSans-53" x="968.859375"/>
     <use xlink:href="#DejaVuSans-34" x="1032.335938"/>
    </g>
   </g>
  </g>
  <g id="axes_2">
   <g id="patch_7">
    <path d="M 225.72 192.24 
L 234.036 192.24 
L 234.036 25.92 
L 225.72 25.92 
z
" style="fill: #ffffff"/>
   </g>
   <g id="QuadMesh_1">
    <path d="M 225.72 192.24 
L 234.036 192.24 
L 234.036 179.446154 
L 225.72 179.446154 
L 225.72 192.24 
" clip-path="url(#pb20545f4e2)" style="fill: #e7e419"/>
    <path d="M 225.72 179.446154 
L 234.036 179.446154 
L 234.036 166.652308 
L 225.72 166.652308 
L 225.72 179.446154 
" clip-path="url(#pb20545f4e2)" style="fill: #b2dd2d"/>
    <path d="M 225.72 166.652308 
L 234.036 166.652308 
L 234.036 153.858462 
L 225.72 153.858462 
L 225.72 166.652308 
" clip-path="url(#pb20545f4e2)" style="fill: #7fd34e"/>
    <path d="M 225.72 153.858462 
L 234.036 153.858462 
L 234.036 141.064615 
L 225.72 141.064615 
L 225.72 153.858462 
" clip-path="url(#pb20545f4e2)" style="fill: #54c568"/>
    <path d="M 225.72 141.064615 
L 234.036 141.064615 
L 234.036 128.270769 
L 225.72 128.270769 
L 225.72 141.064615 
" clip-path="url(#pb20545f4e2)" style="fill: #31b57b"/>
    <path d="M 225.72 128.270769 
L 234.036 128.270769 
L 234.036 115.476923 
L 225.72 115.476923 
L 225.72 128.270769 
" clip-path="url(#pb20545f4e2)" style="fill: #1fa287"/>
    <path d="M 225.72 115.476923 
L 234.036 115.476923 
L 234.036 102.683077 
L 225.72 102.683077 
L 225.72 115.476923 
" clip-path="url(#pb20545f4e2)" style="fill: #21908d"/>
    <path d="M 225.72 102.683077 
L 234.036 102.683077 
L 234.036 89.889231 
L 225.72 89.889231 
L 225.72 102.683077 
" clip-path="url(#pb20545f4e2)" style="fill: #277e8e"/>
    <path d="M 225.72 89.889231 
L 234.036 89.889231 
L 234.036 77.095385 
L 225.72 77.095385 
L 225.72 89.889231 
" clip-path="url(#pb20545f4e2)" style="fill: #2f6b8e"/>
    <path d="M 225.72 77.095385 
L 234.036 77.095385 
L 234.036 64.301538 
L 225.72 64.301538 
L 225.72 77.095385 
" clip-path="url(#pb20545f4e2)" style="fill: #39568c"/>
    <path d="M 225.72 64.301538 
L 234.036 64.301538 
L 234.036 51.507692 
L 225.72 51.507692 
L 225.72 64.301538 
" clip-path="url(#pb20545f4e2)" style="fill: #424186"/>
    <path d="M 225.72 51.507692 
L 234.036 51.507692 
L 234.036 38.713846 
L 225.72 38.713846 
L 225.72 51.507692 
" clip-path="url(#pb20545f4e2)" style="fill: #482979"/>
    <path d="M 225.72 38.713846 
L 234.036 38.713846 
L 234.036 25.92 
L 225.72 25.92 
L 225.72 38.713846 
" clip-path="url(#pb20545f4e2)" style="fill: #470e61"/>
   </g>
   <g id="matplotlib.axis_3"/>
   <g id="matplotlib.axis_4">
    <g id="ytick_5">
     <g id="line2d_9">
      <defs>
       <path id="mf4f8320771" d="M 0 0 
L 3.5 0 
" style="stroke: #000000; stroke-width: 0.8"/>
      </defs>
      <g>
       <use xlink:href="#mf4f8320771" x="234.036" y="192.24" style="stroke: #000000; stroke-width: 0.8"/>
      </g>
     </g>
     <g id="text_14">
      <!-- $\mathdefault{0}$ -->
      <g transform="translate(241.036 196.039219) scale(0.1 -0.1)">
       <use xlink:href="#DejaVuSans-30" transform="translate(0 0.78125)"/>
      </g>
     </g>
    </g>
    <g id="ytick_6">
     <g id="line2d_10">
      <g>
       <use xlink:href="#mf4f8320771" x="234.036" y="166.652308" style="stroke: #000000; stroke-width: 0.8"/>
      </g>
     </g>
     <g id="text_15">
      <!-- $\mathdefault{30}$ -->
      <g transform="translate(241.036 170.451526) scale(0.1 -0.1)">
       <use xlink:href="#DejaVuSans-33" transform="translate(0 0.78125)"/>
       <use xlink:href="#DejaVuSans-30" transform="translate(63.623047 0.78125)"/>
      </g>
     </g>
    </g>
    <g id="ytick_7">
     <g id="line2d_11">
      <g>
       <use xlink:href="#mf4f8320771" x="234.036" y="141.064615" style="stroke: #000000; stroke-width: 0.8"/>
      </g>
     </g>
     <g id="text_16">
      <!-- $\mathdefault{60}$ -->
      <g transform="translate(241.036 144.863834) scale(0.1 -0.1)">
       <use xlink:href="#DejaVuSans-36" transform="translate(0 0.78125)"/>
       <use xlink:href="#DejaVuSans-30" transform="translate(63.623047 0.78125)"/>
      </g>
     </g>
    </g>
    <g id="ytick_8">
     <g id="line2d_12">
      <g>
       <use xlink:href="#mf4f8320771" x="234.036" y="115.476923" style="stroke: #000000; stroke-width: 0.8"/>
      </g>
     </g>
     <g id="text_17">
      <!-- $\mathdefault{90}$ -->
      <g transform="translate(241.036 119.276142) scale(0.1 -0.1)">
       <defs>
        <path id="DejaVuSans-39" d="M 703 97 
L 703 672 
Q 941 559 1184 500 
Q 1428 441 1663 441 
Q 2288 441 2617 861 
Q 2947 1281 2994 2138 
Q 2813 1869 2534 1725 
Q 2256 1581 1919 1581 
Q 1219 1581 811 2004 
Q 403 2428 403 3163 
Q 403 3881 828 4315 
Q 1253 4750 1959 4750 
Q 2769 4750 3195 4129 
Q 3622 3509 3622 2328 
Q 3622 1225 3098 567 
Q 2575 -91 1691 -91 
Q 1453 -91 1209 -44 
Q 966 3 703 97 
z
M 1959 2075 
Q 2384 2075 2632 2365 
Q 2881 2656 2881 3163 
Q 2881 3666 2632 3958 
Q 2384 4250 1959 4250 
Q 1534 4250 1286 3958 
Q 1038 3666 1038 3163 
Q 1038 2656 1286 2365 
Q 1534 2075 1959 2075 
z
" transform="scale(0.015625)"/>
       </defs>
       <use xlink:href="#DejaVuSans-39" transform="translate(0 0.78125)"/>
       <use xlink:href="#DejaVuSans-30" transform="translate(63.623047 0.78125)"/>
      </g>
     </g>
    </g>
    <g id="ytick_9">
     <g id="line2d_13">
      <g>
       <use xlink:href="#mf4f8320771" x="234.036" y="89.889231" style="stroke: #000000; stroke-width: 0.8"/>
      </g>
     </g>
     <g id="text_18">
      <!-- $\mathdefault{120}$ -->
      <g transform="translate(241.036 93.68845) scale(0.1 -0.1)">
       <use xlink:href="#DejaVuSans-31" transform="translate(0 0.78125)"/>
       <use xlink:href="#DejaVuSans-32" transform="translate(63.623047 0.78125)"/>
       <use xlink:href="#DejaVuSans-30" transform="translate(127.246094 0.78125)"/>
      </g>
     </g>
    </g>
    <g id="ytick_10">
     <g id="line2d_14">
      <g>
       <use xlink:href="#mf4f8320771" x="234.036" y="64.301538" style="stroke: #000000; stroke-width: 0.8"/>
      </g>
     </g>
     <g id="text_19">
      <!-- $\mathdefault{150}$ -->
      <g transform="translate(241.036 68.100757) scale(0.1 -0.1)">
       <defs>
        <path id="DejaVuSans-35" d="M 691 4666 
L 3169 4666 
L 3169 4134 
L 1269 4134 
L 1269 2991 
Q 1406 3038 1543 3061 
Q 1681 3084 1819 3084 
Q 2600 3084 3056 2656 
Q 3513 2228 3513 1497 
Q 3513 744 3044 326 
Q 2575 -91 1722 -91 
Q 1428 -91 1123 -41 
Q 819 9 494 109 
L 494 744 
Q 775 591 1075 516 
Q 1375 441 1709 441 
Q 2250 441 2565 725 
Q 2881 1009 2881 1497 
Q 2881 1984 2565 2268 
Q 2250 2553 1709 2553 
Q 1456 2553 1204 2497 
Q 953 2441 691 2322 
L 691 4666 
z
" transform="scale(0.015625)"/>
       </defs>
       <use xlink:href="#DejaVuSans-31" transform="translate(0 0.78125)"/>
       <use xlink:href="#DejaVuSans-35" transform="translate(63.623047 0.78125)"/>
       <use xlink:href="#DejaVuSans-30" transform="translate(127.246094 0.78125)"/>
      </g>
     </g>
    </g>
    <g id="ytick_11">
     <g id="line2d_15">
      <g>
       <use xlink:href="#mf4f8320771" x="234.036" y="38.713846" style="stroke: #000000; stroke-width: 0.8"/>
      </g>
     </g>
     <g id="text_20">
      <!-- $\mathdefault{180}$ -->
      <g transform="translate(241.036 42.513065) scale(0.1 -0.1)">
       <use xlink:href="#DejaVuSans-31" transform="translate(0 0.78125)"/>
       <use xlink:href="#DejaVuSans-38" transform="translate(63.623047 0.78125)"/>
       <use xlink:href="#DejaVuSans-30" transform="translate(127.246094 0.78125)"/>
      </g>
     </g>
    </g>
    <g id="text_21">
     <!-- $\Delta$ log likelihood -->
     <g transform="translate(273.256 154.98) rotate(-90) scale(0.12 -0.12)">
      <defs>
       <path id="DejaVuSans-394" d="M 2188 4044 
L 906 525 
L 3472 525 
L 2188 4044 
z
M 50 0 
L 1831 4666 
L 2547 4666 
L 4325 0 
L 50 0 
z
" transform="scale(0.015625)"/>
       <path id="DejaVuSans-67" d="M 2906 1791 
Q 2906 2416 2648 2759 
Q 2391 3103 1925 3103 
Q 1463 3103 1205 2759 
Q 947 2416 947 1791 
Q 947 1169 1205 825 
Q 1463 481 1925 481 
Q 2391 481 2648 825 
Q 2906 1169 2906 1791 
z
M 3481 434 
Q 3481 -459 3084 -895 
Q 2688 -1331 1869 -1331 
Q 1566 -1331 1297 -1286 
Q 1028 -1241 775 -1147 
L 775 -588 
Q 1028 -725 1275 -790 
Q 1522 -856 1778 -856 
Q 2344 -856 2625 -561 
Q 2906 -266 2906 331 
L 2906 616 
Q 2728 306 2450 153 
Q 2172 0 1784 0 
Q 1141 0 747 490 
Q 353 981 353 1791 
Q 353 2603 747 3093 
Q 1141 3584 1784 3584 
Q 2172 3584 2450 3431 
Q 2728 3278 2906 2969 
L 2906 3500 
L 3481 3500 
L 3481 434 
z
" transform="scale(0.015625)"/>
       <path id="DejaVuSans-6b" d="M 581 4863 
L 1159 4863 
L 1159 1991 
L 2875 3500 
L 3609 3500 
L 1753 1863 
L 3688 0 
L 2938 0 
L 1159 1709 
L 1159 0 
L 581 0 
L 581 4863 
z
" transform="scale(0.015625)"/>
       <path id="DejaVuSans-68" d="M 3513 2113 
L 3513 0 
L 2938 0 
L 2938 2094 
Q 2938 2591 2744 2837 
Q 2550 3084 2163 3084 
Q 1697 3084 1428 2787 
Q 1159 2491 1159 1978 
L 1159 0 
L 581 0 
L 581 4863 
L 1159 4863 
L 1159 2956 
Q 1366 3272 1645 3428 
Q 1925 3584 2291 3584 
Q 2894 3584 3203 3211 
Q 3513 2838 3513 2113 
z
" transform="scale(0.015625)"/>
      </defs>
      <use xlink:href="#DejaVuSans-394" transform="translate(0 0.015625)"/>
      <use xlink:href="#DejaVuSans-20" transform="translate(68.408203 0.015625)"/>
      <use xlink:href="#DejaVuSans-6c" transform="translate(100.195312 0.015625)"/>
      <use xlink:href="#DejaVuSans-6f" transform="translate(127.978516 0.015625)"/>
      <use xlink:href="#DejaVuSans-67" transform="translate(189.160156 0.015625)"/>
      <use xlink:href="#DejaVuSans-20" transform="translate(252.636719 0.015625)"/>
      <use xlink:href="#DejaVuSans-6c" transform="translate(284.423828 0.015625)"/>
      <use xlink:href="#DejaVuSans-69" transform="translate(312.207031 0.015625)"/>
      <use xlink:href="#DejaVuSans-6b" transform="translate(339.990234 0.015625)"/>
      <use xlink:href="#DejaVuSans-65" transform="translate(397.900391 0.015625)"/>
      <use xlink:href="#DejaVuSans-6c" transform="translate(459.423828 0.015625)"/>
      <use xlink:href="#DejaVuSans-69" transform="translate(487.207031 0.015625)"/>
      <use xlink:href="#DejaVuSans-68" transform="translate(514.990234 0.015625)"/>
      <use xlink:href="#DejaVuSans-6f" transform="translate(578.369141 0.015625)"/>
      <use xlink:href="#DejaVuSans-6f" transform="translate(639.550781 0.015625)"/>
      <use xlink:href="#DejaVuSans-64" transform="translate(700.732422 0.015625)"/>
     </g>
    </g>
    <g id="text_22">
     <!-- $\times\mathdefault{10^{3}}\mathdefault{}$ -->
     <g transform="translate(208.036 22.92) scale(0.1 -0.1)">
      <use xlink:href="#DejaVuSans-d7" transform="translate(0 0.765625)"/>
      <use xlink:href="#DejaVuSans-31" transform="translate(83.789062 0.765625)"/>
      <use xlink:href="#DejaVuSans-30" transform="translate(147.412109 0.765625)"/>
      <use xlink:href="#DejaVuSans-33" transform="translate(211.992188 39.046875) scale(0.7)"/>
     </g>
    </g>
   </g>
   <g id="LineCollection_1"/>
   <g id="patch_8">
    <path d="M 225.72 192.24 
L 229.878 192.24 
L 234.036 192.24 
L 234.036 25.92 
L 229.878 25.92 
L 225.72 25.92 
L 225.72 192.24 
z
" style="fill: none; stroke: #000000; stroke-width: 0.8; stroke-linejoin: miter; stroke-linecap: square"/>
   </g>
  </g>
 </g>
 <defs>
  <clipPath id="pf656c92c70">
   <rect x="36" y="25.92" width="178.56" height="166.32"/>
  </clipPath>
  <clipPath id="pb20545f4e2">
   <rect x="225.72" y="25.92" width="8.316" height="166.32"/>
  </clipPath>
 </defs>
</svg>
