<?xml version="1.0" encoding="utf-8" standalone="no"?>
<!DOCTYPE svg PUBLIC "-//W3C//DTD SVG 1.1//EN"
  "http://www.w3.org/Graphics/SVG/1.1/DTD/svg11.dtd">
<svg xmlns:xlink="http://www.w3.org/1999/xlink" width="288pt" height="216pt" viewBox="0 0 288 216" xmlns="http://www.w3.org/2000/svg" version="1.1">
 <metadata>
  <rdf:RDF xmlns:dc="http://purl.org/dc/elements/1.1/" xmlns:cc="http://creativecommons.org/ns#" xmlns:rdf="http://www.w3.org/1999/02/22-rdf-syntax-ns#">
   <cc:Work>
    <dc:type rdf:resource="http://purl.org/dc/dcmitype/StillImage"/>
    <dc:date>2024-12-14T16:50:18.622151</dc:date>
    <dc:format>image/svg+xml</dc:format>
    <dc:creator>
     <cc:Agent>
      <dc:title>Matplotlib v3.8.4, https://matplotlib.org/</dc:title>
     </cc:Agent>
    </dc:creator>
   </cc:Work>
  </rdf:RDF>
 </metadata>
 <defs>
  <style type="text/css">*{stroke-linejoin: round; stroke-linecap: butt}</style>
 </defs>
 <g id="figure_1">
  <g id="patch_1">
   <path d="M 0 216 
L 288 216 
L 288 0 
L 0 0 
z
" style="fill: #ffffff"/>
  </g>
  <g id="axes_1">
   <g id="patch_2">
    <path d="M 36 192.24 
L 214.56 192.24 
L 214.56 25.92 
L 36 25.92 
z
" style="fill: #ffffff"/>
   </g>
   <g id="QuadContourSet_1">
    <path d="M 61.205228 186.696 
L 61.205228 181.152 
L 61.205228 175.608 
L 61.205228 170.064 
L 61.205228 164.52 
L 61.205228 158.976 
L 61.205228 153.432 
L 61.205228 147.888 
L 61.205228 142.344 
L 61.205228 136.8 
L 61.205228 131.256 
L 61.205228 125.712 
L 61.205228 120.168 
L 61.205228 114.624 
L 61.205228 109.08 
L 61.205228 103.536 
L 61.205228 97.992 
L 61.205228 92.448 
L 61.205228 86.904 
L 61.205228 81.36 
L 61.205228 75.816 
L 61.205228 70.272 
L 61.205228 64.728 
L 61.205228 59.184 
L 61.205228 53.64 
L 61.205228 48.096 
L 61.205228 42.552 
L 61.205228 37.008 
L 61.205228 31.464 
L 61.205228 25.92 
L 65.76 25.92 
L 71.712 25.92 
L 72.73154 25.92 
L 72.73154 31.464 
L 72.73154 37.008 
L 72.73154 42.552 
L 72.73154 48.096 
L 72.73154 53.64 
L 72.73154 59.184 
L 72.73154 64.728 
L 72.73154 70.272 
L 72.73154 75.816 
L 72.73154 81.36 
L 72.73154 86.904 
L 72.73154 92.448 
L 72.73154 97.992 
L 72.73154 103.536 
L 72.73154 109.08 
L 72.73154 114.624 
L 72.73154 120.168 
L 72.73154 125.712 
L 72.73154 131.256 
L 72.73154 136.8 
L 72.73154 142.344 
L 72.73154 147.888 
L 72.73154 153.432 
L 72.73154 158.976 
L 72.73154 164.52 
L 72.73154 170.064 
L 72.73154 175.608 
L 72.73154 181.152 
L 72.73154 186.696 
L 72.73154 192.24 
L 71.712 192.24 
L 65.76 192.24 
L 61.205228 192.24 
z
" clip-path="url(#p001f2485d7)" style="fill: #e7e419"/>
    <path d="M 58.994739 186.696 
L 58.994739 181.152 
L 58.994739 175.608 
L 58.994739 170.064 
L 58.994739 164.52 
L 58.994739 158.976 
L 58.994739 153.432 
L 58.994739 147.888 
L 58.994739 142.344 
L 58.994739 136.8 
L 58.994739 131.256 
L 58.994739 125.712 
L 58.994739 120.168 
L 58.994739 114.624 
L 58.994739 109.08 
L 58.994739 103.536 
L 58.994739 97.992 
L 58.994739 92.448 
L 58.994739 86.904 
L 58.994739 81.36 
L 58.994739 75.816 
L 58.994739 70.272 
L 58.994739 64.728 
L 58.994739 59.184 
L 58.994739 53.64 
L 58.994739 48.096 
L 58.994739 42.552 
L 58.994739 37.008 
L 58.994739 31.464 
L 58.994739 25.92 
L 59.808 25.92 
L 61.205228 25.92 
L 61.205228 31.464 
L 61.205228 37.008 
L 61.205228 42.552 
L 61.205228 48.096 
L 61.205228 53.64 
L 61.205228 59.184 
L 61.205228 64.728 
L 61.205228 70.272 
L 61.205228 75.816 
L 61.205228 81.36 
L 61.205228 86.904 
L 61.205228 92.448 
L 61.205228 97.992 
L 61.205228 103.536 
L 61.205228 109.08 
L 61.205228 114.624 
L 61.205228 120.168 
L 61.205228 125.712 
L 61.205228 131.256 
L 61.205228 136.8 
L 61.205228 142.344 
L 61.205228 147.888 
L 61.205228 153.432 
L 61.205228 158.976 
L 61.205228 164.52 
L 61.205228 170.064 
L 61.205228 175.608 
L 61.205228 181.152 
L 61.205228 186.696 
L 61.205228 192.24 
L 59.808 192.24 
L 58.994739 192.24 
z
M 72.73154 186.696 
L 72.73154 181.152 
L 72.73154 175.608 
L 72.73154 170.064 
L 72.73154 164.52 
L 72.73154 158.976 
L 72.73154 153.432 
L 72.73154 147.888 
L 72.73154 142.344 
L 72.73154 136.8 
L 72.73154 131.256 
L 72.73154 125.712 
L 72.73154 120.168 
L 72.73154 114.624 
L 72.73154 109.08 
L 72.73154 103.536 
L 72.73154 97.992 
L 72.73154 92.448 
L 72.73154 86.904 
L 72.73154 81.36 
L 72.73154 75.816 
L 72.73154 70.272 
L 72.73154 64.728 
L 72.73154 59.184 
L 72.73154 53.64 
L 72.73154 48.096 
L 72.73154 42.552 
L 72.73154 37.008 
L 72.73154 31.464 
L 72.73154 25.92 
L 76.029643 25.92 
L 76.029643 31.464 
L 76.029643 37.008 
L 76.029643 42.552 
L 76.029643 48.096 
L 76.029643 53.64 
L 76.029643 59.184 
L 76.029643 64.728 
L 76.029643 70.272 
L 76.029643 75.816 
L 76.029643 81.36 
L 76.029643 86.904 
L 76.029643 92.448 
L 76.029643 97.992 
L 76.029643 103.536 
L 76.029643 109.08 
L 76.029643 114.624 
L 76.029643 120.168 
L 76.029643 125.712 
L 76.029643 131.256 
L 76.029643 136.8 
L 76.029643 142.344 
L 76.029643 147.888 
L 76.029643 153.432 
L 76.029643 158.976 
L 76.029643 164.52 
L 76.029643 170.064 
L 76.029643 175.608 
L 76.029643 181.152 
L 76.029643 186.696 
L 76.029643 192.24 
L 72.73154 192.24 
z
" clip-path="url(#p001f2485d7)" style="fill: #b8de29"/>
    <path d="M 57.821607 186.696 
L 57.821607 181.152 
L 57.821607 175.608 
L 57.821607 170.064 
L 57.821607 164.52 
L 57.821607 158.976 
L 57.821607 153.432 
L 57.821607 147.888 
L 57.821607 142.344 
L 57.821607 136.8 
L 57.821607 131.256 
L 57.821607 125.712 
L 57.821607 120.168 
L 57.821607 114.624 
L 57.821607 109.08 
L 57.821607 103.536 
L 57.821607 97.992 
L 57.821607 92.448 
L 57.821607 86.904 
L 57.821607 81.36 
L 57.821607 75.816 
L 57.821607 70.272 
L 57.821607 64.728 
L 57.821607 59.184 
L 57.821607 53.64 
L 57.821607 48.096 
L 57.821607 42.552 
L 57.821607 37.008 
L 57.821607 31.464 
L 57.821607 25.92 
L 58.994739 25.92 
L 58.994739 31.464 
L 58.994739 37.008 
L 58.994739 42.552 
L 58.994739 48.096 
L 58.994739 53.64 
L 58.994739 59.184 
L 58.994739 64.728 
L 58.994739 70.272 
L 58.994739 75.816 
L 58.994739 81.36 
L 58.994739 86.904 
L 58.994739 92.448 
L 58.994739 97.992 
L 58.994739 103.536 
L 58.994739 109.08 
L 58.994739 114.624 
L 58.994739 120.168 
L 58.994739 125.712 
L 58.994739 131.256 
L 58.994739 136.8 
L 58.994739 142.344 
L 58.994739 147.888 
L 58.994739 153.432 
L 58.994739 158.976 
L 58.994739 164.52 
L 58.994739 170.064 
L 58.994739 175.608 
L 58.994739 181.152 
L 58.994739 186.696 
L 58.994739 192.24 
L 57.821607 192.24 
z
M 76.029643 186.696 
L 76.029643 181.152 
L 76.029643 175.608 
L 76.029643 170.064 
L 76.029643 164.52 
L 76.029643 158.976 
L 76.029643 153.432 
L 76.029643 147.888 
L 76.029643 142.344 
L 76.029643 136.8 
L 76.029643 131.256 
L 76.029643 125.712 
L 76.029643 120.168 
L 76.029643 114.624 
L 76.029643 109.08 
L 76.029643 103.536 
L 76.029643 97.992 
L 76.029643 92.448 
L 76.029643 86.904 
L 76.029643 81.36 
L 76.029643 75.816 
L 76.029643 70.272 
L 76.029643 64.728 
L 76.029643 59.184 
L 76.029643 53.64 
L 76.029643 48.096 
L 76.029643 42.552 
L 76.029643 37.008 
L 76.029643 31.464 
L 76.029643 25.92 
L 77.664 25.92 
L 78.894304 25.92 
L 78.894304 31.464 
L 78.894304 37.008 
L 78.894304 42.552 
L 78.894304 48.096 
L 78.894304 53.64 
L 78.894304 59.184 
L 78.894304 64.728 
L 78.894304 70.272 
L 78.894304 75.816 
L 78.894304 81.36 
L 78.894304 86.904 
L 78.894304 92.448 
L 78.894304 97.992 
L 78.894304 103.536 
L 78.894304 109.08 
L 78.894304 114.624 
L 78.894304 120.168 
L 78.894304 125.712 
L 78.894304 131.256 
L 78.894304 136.8 
L 78.894304 142.344 
L 78.894304 147.888 
L 78.894304 153.432 
L 78.894304 158.976 
L 78.894304 164.52 
L 78.894304 170.064 
L 78.894304 175.608 
L 78.894304 181.152 
L 78.894304 186.696 
L 78.894304 192.24 
L 77.664 192.24 
L 76.029643 192.24 
z
" clip-path="url(#p001f2485d7)" style="fill: #89d548"/>
    <path d="M 56.648475 186.696 
L 56.648475 181.152 
L 56.648475 175.608 
L 56.648475 170.064 
L 56.648475 164.52 
L 56.648475 158.976 
L 56.648475 153.432 
L 56.648475 147.888 
L 56.648475 142.344 
L 56.648475 136.8 
L 56.648475 131.256 
L 56.648475 125.712 
L 56.648475 120.168 
L 56.648475 114.624 
L 56.648475 109.08 
L 56.648475 103.536 
L 56.648475 97.992 
L 56.648475 92.448 
L 56.648475 86.904 
L 56.648475 81.36 
L 56.648475 75.816 
L 56.648475 70.272 
L 56.648475 64.728 
L 56.648475 59.184 
L 56.648475 53.64 
L 56.648475 48.096 
L 56.648475 42.552 
L 56.648475 37.008 
L 56.648475 31.464 
L 56.648475 25.92 
L 57.821607 25.92 
L 57.821607 31.464 
L 57.821607 37.008 
L 57.821607 42.552 
L 57.821607 48.096 
L 57.821607 53.64 
L 57.821607 59.184 
L 57.821607 64.728 
L 57.821607 70.272 
L 57.821607 75.816 
L 57.821607 81.36 
L 57.821607 86.904 
L 57.821607 92.448 
L 57.821607 97.992 
L 57.821607 103.536 
L 57.821607 109.08 
L 57.821607 114.624 
L 57.821607 120.168 
L 57.821607 125.712 
L 57.821607 131.256 
L 57.821607 136.8 
L 57.821607 142.344 
L 57.821607 147.888 
L 57.821607 153.432 
L 57.821607 158.976 
L 57.821607 164.52 
L 57.821607 170.064 
L 57.821607 175.608 
L 57.821607 181.152 
L 57.821607 186.696 
L 57.821607 192.24 
L 56.648475 192.24 
z
M 78.894304 186.696 
L 78.894304 181.152 
L 78.894304 175.608 
L 78.894304 170.064 
L 78.894304 164.52 
L 78.894304 158.976 
L 78.894304 153.432 
L 78.894304 147.888 
L 78.894304 142.344 
L 78.894304 136.8 
L 78.894304 131.256 
L 78.894304 125.712 
L 78.894304 120.168 
L 78.894304 114.624 
L 78.894304 109.08 
L 78.894304 103.536 
L 78.894304 97.992 
L 78.894304 92.448 
L 78.894304 86.904 
L 78.894304 81.36 
L 78.894304 75.816 
L 78.894304 70.272 
L 78.894304 64.728 
L 78.894304 59.184 
L 78.894304 53.64 
L 78.894304 48.096 
L 78.894304 42.552 
L 78.894304 37.008 
L 78.894304 31.464 
L 78.894304 25.92 
L 81.333178 25.92 
L 81.333178 31.464 
L 81.333178 37.008 
L 81.333178 42.552 
L 81.333178 48.096 
L 81.333178 53.64 
L 81.333178 59.184 
L 81.333178 64.728 
L 81.333178 70.272 
L 81.333178 75.816 
L 81.333178 81.36 
L 81.333178 86.904 
L 81.333178 92.448 
L 81.333178 97.992 
L 81.333178 103.536 
L 81.333178 109.08 
L 81.333178 114.624 
L 81.333178 120.168 
L 81.333178 125.712 
L 81.333178 131.256 
L 81.333178 136.8 
L 81.333178 142.344 
L 81.333178 147.888 
L 81.333178 153.432 
L 81.333178 158.976 
L 81.333178 164.52 
L 81.333178 170.064 
L 81.333178 175.608 
L 81.333178 181.152 
L 81.333178 186.696 
L 81.333178 192.24 
L 78.894304 192.24 
z
" clip-path="url(#p001f2485d7)" style="fill: #5cc863"/>
    <path d="M 55.475342 186.696 
L 55.475342 181.152 
L 55.475342 175.608 
L 55.475342 170.064 
L 55.475342 164.52 
L 55.475342 158.976 
L 55.475342 153.432 
L 55.475342 147.888 
L 55.475342 142.344 
L 55.475342 136.8 
L 55.475342 131.256 
L 55.475342 125.712 
L 55.475342 120.168 
L 55.475342 114.624 
L 55.475342 109.08 
L 55.475342 103.536 
L 55.475342 97.992 
L 55.475342 92.448 
L 55.475342 86.904 
L 55.475342 81.36 
L 55.475342 75.816 
L 55.475342 70.272 
L 55.475342 64.728 
L 55.475342 59.184 
L 55.475342 53.64 
L 55.475342 48.096 
L 55.475342 42.552 
L 55.475342 37.008 
L 55.475342 31.464 
L 55.475342 25.92 
L 56.648475 25.92 
L 56.648475 31.464 
L 56.648475 37.008 
L 56.648475 42.552 
L 56.648475 48.096 
L 56.648475 53.64 
L 56.648475 59.184 
L 56.648475 64.728 
L 56.648475 70.272 
L 56.648475 75.816 
L 56.648475 81.36 
L 56.648475 86.904 
L 56.648475 92.448 
L 56.648475 97.992 
L 56.648475 103.536 
L 56.648475 109.08 
L 56.648475 114.624 
L 56.648475 120.168 
L 56.648475 125.712 
L 56.648475 131.256 
L 56.648475 136.8 
L 56.648475 142.344 
L 56.648475 147.888 
L 56.648475 153.432 
L 56.648475 158.976 
L 56.648475 164.52 
L 56.648475 170.064 
L 56.648475 175.608 
L 56.648475 181.152 
L 56.648475 186.696 
L 56.648475 192.24 
L 55.475342 192.24 
z
M 81.333178 186.696 
L 81.333178 181.152 
L 81.333178 175.608 
L 81.333178 170.064 
L 81.333178 164.52 
L 81.333178 158.976 
L 81.333178 153.432 
L 81.333178 147.888 
L 81.333178 142.344 
L 81.333178 136.8 
L 81.333178 131.256 
L 81.333178 125.712 
L 81.333178 120.168 
L 81.333178 114.624 
L 81.333178 109.08 
L 81.333178 103.536 
L 81.333178 97.992 
L 81.333178 92.448 
L 81.333178 86.904 
L 81.333178 81.36 
L 81.333178 75.816 
L 81.333178 70.272 
L 81.333178 64.728 
L 81.333178 59.184 
L 81.333178 53.64 
L 81.333178 48.096 
L 81.333178 42.552 
L 81.333178 37.008 
L 81.333178 31.464 
L 81.333178 25.92 
L 83.616 25.92 
L 83.751894 25.92 
L 83.751894 31.464 
L 83.751894 37.008 
L 83.751894 42.552 
L 83.751894 48.096 
L 83.751894 53.64 
L 83.751894 59.184 
L 83.751894 64.728 
L 83.751894 70.272 
L 83.751894 75.816 
L 83.751894 81.36 
L 83.751894 86.904 
L 83.751894 92.448 
L 83.751894 97.992 
L 83.751894 103.536 
L 83.751894 109.08 
L 83.751894 114.624 
L 83.751894 120.168 
L 83.751894 125.712 
L 83.751894 131.256 
L 83.751894 136.8 
L 83.751894 142.344 
L 83.751894 147.888 
L 83.751894 153.432 
L 83.751894 158.976 
L 83.751894 164.52 
L 83.751894 170.064 
L 83.751894 175.608 
L 83.751894 181.152 
L 83.751894 186.696 
L 83.751894 192.24 
L 83.616 192.24 
L 81.333178 192.24 
z
" clip-path="url(#p001f2485d7)" style="fill: #3aba76"/>
    <path d="M 54.30221 186.696 
L 54.30221 181.152 
L 54.30221 175.608 
L 54.30221 170.064 
L 54.30221 164.52 
L 54.30221 158.976 
L 54.30221 153.432 
L 54.30221 147.888 
L 54.30221 142.344 
L 54.30221 136.8 
L 54.30221 131.256 
L 54.30221 125.712 
L 54.30221 120.168 
L 54.30221 114.624 
L 54.30221 109.08 
L 54.30221 103.536 
L 54.30221 97.992 
L 54.30221 92.448 
L 54.30221 86.904 
L 54.30221 81.36 
L 54.30221 75.816 
L 54.30221 70.272 
L 54.30221 64.728 
L 54.30221 59.184 
L 54.30221 53.64 
L 54.30221 48.096 
L 54.30221 42.552 
L 54.30221 37.008 
L 54.30221 31.464 
L 54.30221 25.92 
L 55.475342 25.92 
L 55.475342 31.464 
L 55.475342 37.008 
L 55.475342 42.552 
L 55.475342 48.096 
L 55.475342 53.64 
L 55.475342 59.184 
L 55.475342 64.728 
L 55.475342 70.272 
L 55.475342 75.816 
L 55.475342 81.36 
L 55.475342 86.904 
L 55.475342 92.448 
L 55.475342 97.992 
L 55.475342 103.536 
L 55.475342 109.08 
L 55.475342 114.624 
L 55.475342 120.168 
L 55.475342 125.712 
L 55.475342 131.256 
L 55.475342 136.8 
L 55.475342 142.344 
L 55.475342 147.888 
L 55.475342 153.432 
L 55.475342 158.976 
L 55.475342 164.52 
L 55.475342 170.064 
L 55.475342 175.608 
L 55.475342 181.152 
L 55.475342 186.696 
L 55.475342 192.24 
L 54.30221 192.24 
z
M 83.751894 186.696 
L 83.751894 181.152 
L 83.751894 175.608 
L 83.751894 170.064 
L 83.751894 164.52 
L 83.751894 158.976 
L 83.751894 153.432 
L 83.751894 147.888 
L 83.751894 142.344 
L 83.751894 136.8 
L 83.751894 131.256 
L 83.751894 125.712 
L 83.751894 120.168 
L 83.751894 114.624 
L 83.751894 109.08 
L 83.751894 103.536 
L 83.751894 97.992 
L 83.751894 92.448 
L 83.751894 86.904 
L 83.751894 81.36 
L 83.751894 75.816 
L 83.751894 70.272 
L 83.751894 64.728 
L 83.751894 59.184 
L 83.751894 53.64 
L 83.751894 48.096 
L 83.751894 42.552 
L 83.751894 37.008 
L 83.751894 31.464 
L 83.751894 25.92 
L 85.875727 25.92 
L 85.875727 31.464 
L 85.875727 37.008 
L 85.875727 42.552 
L 85.875727 48.096 
L 85.875727 53.64 
L 85.875727 59.184 
L 85.875727 64.728 
L 85.875727 70.272 
L 85.875727 75.816 
L 85.875727 81.36 
L 85.875727 86.904 
L 85.875727 92.448 
L 85.875727 97.992 
L 85.875727 103.536 
L 85.875727 109.08 
L 85.875727 114.624 
L 85.875727 120.168 
L 85.875727 125.712 
L 85.875727 131.256 
L 85.875727 136.8 
L 85.875727 142.344 
L 85.875727 147.888 
L 85.875727 153.432 
L 85.875727 158.976 
L 85.875727 164.52 
L 85.875727 170.064 
L 85.875727 175.608 
L 85.875727 181.152 
L 85.875727 186.696 
L 85.875727 192.24 
L 83.751894 192.24 
z
" clip-path="url(#p001f2485d7)" style="fill: #24aa83"/>
    <path d="M 53.361172 186.696 
L 53.361172 181.152 
L 53.361172 175.608 
L 53.361172 170.064 
L 53.361172 164.52 
L 53.361172 158.976 
L 53.361172 153.432 
L 53.361172 147.888 
L 53.361172 142.344 
L 53.361172 136.8 
L 53.361172 131.256 
L 53.361172 125.712 
L 53.361172 120.168 
L 53.361172 114.624 
L 53.361172 109.08 
L 53.361172 103.536 
L 53.361172 97.992 
L 53.361172 92.448 
L 53.361172 86.904 
L 53.361172 81.36 
L 53.361172 75.816 
L 53.361172 70.272 
L 53.361172 64.728 
L 53.361172 59.184 
L 53.361172 53.64 
L 53.361172 48.096 
L 53.361172 42.552 
L 53.361172 37.008 
L 53.361172 31.464 
L 53.361172 25.92 
L 53.856 25.92 
L 54.30221 25.92 
L 54.30221 31.464 
L 54.30221 37.008 
L 54.30221 42.552 
L 54.30221 48.096 
L 54.30221 53.64 
L 54.30221 59.184 
L 54.30221 64.728 
L 54.30221 70.272 
L 54.30221 75.816 
L 54.30221 81.36 
L 54.30221 86.904 
L 54.30221 92.448 
L 54.30221 97.992 
L 54.30221 103.536 
L 54.30221 109.08 
L 54.30221 114.624 
L 54.30221 120.168 
L 54.30221 125.712 
L 54.30221 131.256 
L 54.30221 136.8 
L 54.30221 142.344 
L 54.30221 147.888 
L 54.30221 153.432 
L 54.30221 158.976 
L 54.30221 164.52 
L 54.30221 170.064 
L 54.30221 175.608 
L 54.30221 181.152 
L 54.30221 186.696 
L 54.30221 192.24 
L 53.856 192.24 
L 53.361172 192.24 
z
M 85.875727 186.696 
L 85.875727 181.152 
L 85.875727 175.608 
L 85.875727 170.064 
L 85.875727 164.52 
L 85.875727 158.976 
L 85.875727 153.432 
L 85.875727 147.888 
L 85.875727 142.344 
L 85.875727 136.8 
L 85.875727 131.256 
L 85.875727 125.712 
L 85.875727 120.168 
L 85.875727 114.624 
L 85.875727 109.08 
L 85.875727 103.536 
L 85.875727 97.992 
L 85.875727 92.448 
L 85.875727 86.904 
L 85.875727 81.36 
L 85.875727 75.816 
L 85.875727 70.272 
L 85.875727 64.728 
L 85.875727 59.184 
L 85.875727 53.64 
L 85.875727 48.096 
L 85.875727 42.552 
L 85.875727 37.008 
L 85.875727 31.464 
L 85.875727 25.92 
L 87.99956 25.92 
L 87.99956 31.464 
L 87.99956 37.008 
L 87.99956 42.552 
L 87.99956 48.096 
L 87.99956 53.64 
L 87.99956 59.184 
L 87.99956 64.728 
L 87.99956 70.272 
L 87.99956 75.816 
L 87.99956 81.36 
L 87.99956 86.904 
L 87.99956 92.448 
L 87.99956 97.992 
L 87.99956 103.536 
L 87.99956 109.08 
L 87.99956 114.624 
L 87.99956 120.168 
L 87.99956 125.712 
L 87.99956 131.256 
L 87.99956 136.8 
L 87.99956 142.344 
L 87.99956 147.888 
L 87.99956 153.432 
L 87.99956 158.976 
L 87.99956 164.52 
L 87.99956 170.064 
L 87.99956 175.608 
L 87.99956 181.152 
L 87.99956 186.696 
L 87.99956 192.24 
L 85.875727 192.24 
z
" clip-path="url(#p001f2485d7)" style="fill: #1f998a"/>
    <path d="M 52.562601 186.696 
L 52.562601 181.152 
L 52.562601 175.608 
L 52.562601 170.064 
L 52.562601 164.52 
L 52.562601 158.976 
L 52.562601 153.432 
L 52.562601 147.888 
L 52.562601 142.344 
L 52.562601 136.8 
L 52.562601 131.256 
L 52.562601 125.712 
L 52.562601 120.168 
L 52.562601 114.624 
L 52.562601 109.08 
L 52.562601 103.536 
L 52.562601 97.992 
L 52.562601 92.448 
L 52.562601 86.904 
L 52.562601 81.36 
L 52.562601 75.816 
L 52.562601 70.272 
L 52.562601 64.728 
L 52.562601 59.184 
L 52.562601 53.64 
L 52.562601 48.096 
L 52.562601 42.552 
L 52.562601 37.008 
L 52.562601 31.464 
L 52.562601 25.92 
L 53.361172 25.92 
L 53.361172 31.464 
L 53.361172 37.008 
L 53.361172 42.552 
L 53.361172 48.096 
L 53.361172 53.64 
L 53.361172 59.184 
L 53.361172 64.728 
L 53.361172 70.272 
L 53.361172 75.816 
L 53.361172 81.36 
L 53.361172 86.904 
L 53.361172 92.448 
L 53.361172 97.992 
L 53.361172 103.536 
L 53.361172 109.08 
L 53.361172 114.624 
L 53.361172 120.168 
L 53.361172 125.712 
L 53.361172 131.256 
L 53.361172 136.8 
L 53.361172 142.344 
L 53.361172 147.888 
L 53.361172 153.432 
L 53.361172 158.976 
L 53.361172 164.52 
L 53.361172 170.064 
L 53.361172 175.608 
L 53.361172 181.152 
L 53.361172 186.696 
L 53.361172 192.24 
L 52.562601 192.24 
z
M 87.99956 186.696 
L 87.99956 181.152 
L 87.99956 175.608 
L 87.99956 170.064 
L 87.99956 164.52 
L 87.99956 158.976 
L 87.99956 153.432 
L 87.99956 147.888 
L 87.99956 142.344 
L 87.99956 136.8 
L 87.99956 131.256 
L 87.99956 125.712 
L 87.99956 120.168 
L 87.99956 114.624 
L 87.99956 109.08 
L 87.99956 103.536 
L 87.99956 97.992 
L 87.99956 92.448 
L 87.99956 86.904 
L 87.99956 81.36 
L 87.99956 75.816 
L 87.99956 70.272 
L 87.99956 64.728 
L 87.99956 59.184 
L 87.99956 53.64 
L 87.99956 48.096 
L 87.99956 42.552 
L 87.99956 37.008 
L 87.99956 31.464 
L 87.99956 25.92 
L 89.568 25.92 
L 90.086665 25.92 
L 90.086665 31.464 
L 90.086665 37.008 
L 90.086665 42.552 
L 90.086665 48.096 
L 90.086665 53.64 
L 90.086665 59.184 
L 90.086665 64.728 
L 90.086665 70.272 
L 90.086665 75.816 
L 90.086665 81.36 
L 90.086665 86.904 
L 90.086665 92.448 
L 90.086665 97.992 
L 90.086665 103.536 
L 90.086665 109.08 
L 90.086665 114.624 
L 90.086665 120.168 
L 90.086665 125.712 
L 90.086665 131.256 
L 90.086665 136.8 
L 90.086665 142.344 
L 90.086665 147.888 
L 90.086665 153.432 
L 90.086665 158.976 
L 90.086665 164.52 
L 90.086665 170.064 
L 90.086665 175.608 
L 90.086665 181.152 
L 90.086665 186.696 
L 90.086665 192.24 
L 89.568 192.24 
L 87.99956 192.24 
z
" clip-path="url(#p001f2485d7)" style="fill: #24878e"/>
    <path d="M 51.76403 186.696 
L 51.76403 181.152 
L 51.76403 175.608 
L 51.76403 170.064 
L 51.76403 164.52 
L 51.76403 158.976 
L 51.76403 153.432 
L 51.76403 147.888 
L 51.76403 142.344 
L 51.76403 136.8 
L 51.76403 131.256 
L 51.76403 125.712 
L 51.76403 120.168 
L 51.76403 114.624 
L 51.76403 109.08 
L 51.76403 103.536 
L 51.76403 97.992 
L 51.76403 92.448 
L 51.76403 86.904 
L 51.76403 81.36 
L 51.76403 75.816 
L 51.76403 70.272 
L 51.76403 64.728 
L 51.76403 59.184 
L 51.76403 53.64 
L 51.76403 48.096 
L 51.76403 42.552 
L 51.76403 37.008 
L 51.76403 31.464 
L 51.76403 25.92 
L 52.562601 25.92 
L 52.562601 31.464 
L 52.562601 37.008 
L 52.562601 42.552 
L 52.562601 48.096 
L 52.562601 53.64 
L 52.562601 59.184 
L 52.562601 64.728 
L 52.562601 70.272 
L 52.562601 75.816 
L 52.562601 81.36 
L 52.562601 86.904 
L 52.562601 92.448 
L 52.562601 97.992 
L 52.562601 103.536 
L 52.562601 109.08 
L 52.562601 114.624 
L 52.562601 120.168 
L 52.562601 125.712 
L 52.562601 131.256 
L 52.562601 136.8 
L 52.562601 142.344 
L 52.562601 147.888 
L 52.562601 153.432 
L 52.562601 158.976 
L 52.562601 164.52 
L 52.562601 170.064 
L 52.562601 175.608 
L 52.562601 181.152 
L 52.562601 186.696 
L 52.562601 192.24 
L 51.76403 192.24 
z
M 90.086665 186.696 
L 90.086665 181.152 
L 90.086665 175.608 
L 90.086665 170.064 
L 90.086665 164.52 
L 90.086665 158.976 
L 90.086665 153.432 
L 90.086665 147.888 
L 90.086665 142.344 
L 90.086665 136.8 
L 90.086665 131.256 
L 90.086665 125.712 
L 90.086665 120.168 
L 90.086665 114.624 
L 90.086665 109.08 
L 90.086665 103.536 
L 90.086665 97.992 
L 90.086665 92.448 
L 90.086665 86.904 
L 90.086665 81.36 
L 90.086665 75.816 
L 90.086665 70.272 
L 90.086665 64.728 
L 90.086665 59.184 
L 90.086665 53.64 
L 90.086665 48.096 
L 90.086665 42.552 
L 90.086665 37.008 
L 90.086665 31.464 
L 90.086665 25.92 
L 92.070049 25.92 
L 92.070049 31.464 
L 92.070049 37.008 
L 92.070049 42.552 
L 92.070049 48.096 
L 92.070049 53.64 
L 92.070049 59.184 
L 92.070049 64.728 
L 92.070049 70.272 
L 92.070049 75.816 
L 92.070049 81.36 
L 92.070049 86.904 
L 92.070049 92.448 
L 92.070049 97.992 
L 92.070049 103.536 
L 92.070049 109.08 
L 92.070049 114.624 
L 92.070049 120.168 
L 92.070049 125.712 
L 92.070049 131.256 
L 92.070049 136.8 
L 92.070049 142.344 
L 92.070049 147.888 
L 92.070049 153.432 
L 92.070049 158.976 
L 92.070049 164.52 
L 92.070049 170.064 
L 92.070049 175.608 
L 92.070049 181.152 
L 92.070049 186.696 
L 92.070049 192.24 
L 90.086665 192.24 
z
" clip-path="url(#p001f2485d7)" style="fill: #2a768e"/>
    <path d="M 50.965459 186.696 
L 50.965459 181.152 
L 50.965459 175.608 
L 50.965459 170.064 
L 50.965459 164.52 
L 50.965459 158.976 
L 50.965459 153.432 
L 50.965459 147.888 
L 50.965459 142.344 
L 50.965459 136.8 
L 50.965459 131.256 
L 50.965459 125.712 
L 50.965459 120.168 
L 50.965459 114.624 
L 50.965459 109.08 
L 50.965459 103.536 
L 50.965459 97.992 
L 50.965459 92.448 
L 50.965459 86.904 
L 50.965459 81.36 
L 50.965459 75.816 
L 50.965459 70.272 
L 50.965459 64.728 
L 50.965459 59.184 
L 50.965459 53.64 
L 50.965459 48.096 
L 50.965459 42.552 
L 50.965459 37.008 
L 50.965459 31.464 
L 50.965459 25.92 
L 51.76403 25.92 
L 51.76403 31.464 
L 51.76403 37.008 
L 51.76403 42.552 
L 51.76403 48.096 
L 51.76403 53.64 
L 51.76403 59.184 
L 51.76403 64.728 
L 51.76403 70.272 
L 51.76403 75.816 
L 51.76403 81.36 
L 51.76403 86.904 
L 51.76403 92.448 
L 51.76403 97.992 
L 51.76403 103.536 
L 51.76403 109.08 
L 51.76403 114.624 
L 51.76403 120.168 
L 51.76403 125.712 
L 51.76403 131.256 
L 51.76403 136.8 
L 51.76403 142.344 
L 51.76403 147.888 
L 51.76403 153.432 
L 51.76403 158.976 
L 51.76403 164.52 
L 51.76403 170.064 
L 51.76403 175.608 
L 51.76403 181.152 
L 51.76403 186.696 
L 51.76403 192.24 
L 50.965459 192.24 
z
M 92.070049 186.696 
L 92.070049 181.152 
L 92.070049 175.608 
L 92.070049 170.064 
L 92.070049 164.52 
L 92.070049 158.976 
L 92.070049 153.432 
L 92.070049 147.888 
L 92.070049 142.344 
L 92.070049 136.8 
L 92.070049 131.256 
L 92.070049 125.712 
L 92.070049 120.168 
L 92.070049 114.624 
L 92.070049 109.08 
L 92.070049 103.536 
L 92.070049 97.992 
L 92.070049 92.448 
L 92.070049 86.904 
L 92.070049 81.36 
L 92.070049 75.816 
L 92.070049 70.272 
L 92.070049 64.728 
L 92.070049 59.184 
L 92.070049 53.64 
L 92.070049 48.096 
L 92.070049 42.552 
L 92.070049 37.008 
L 92.070049 31.464 
L 92.070049 25.92 
L 94.053433 25.92 
L 94.053433 31.464 
L 94.053433 37.008 
L 94.053433 42.552 
L 94.053433 48.096 
L 94.053433 53.64 
L 94.053433 59.184 
L 94.053433 64.728 
L 94.053433 70.272 
L 94.053433 75.816 
L 94.053433 81.36 
L 94.053433 86.904 
L 94.053433 92.448 
L 94.053433 97.992 
L 94.053433 103.536 
L 94.053433 109.08 
L 94.053433 114.624 
L 94.053433 120.168 
L 94.053433 125.712 
L 94.053433 131.256 
L 94.053433 136.8 
L 94.053433 142.344 
L 94.053433 147.888 
L 94.053433 153.432 
L 94.053433 158.976 
L 94.053433 164.52 
L 94.053433 170.064 
L 94.053433 175.608 
L 94.053433 181.152 
L 94.053433 186.696 
L 94.053433 192.24 
L 92.070049 192.24 
z
" clip-path="url(#p001f2485d7)" style="fill: #32658e"/>
    <path d="M 50.166888 186.696 
L 50.166888 181.152 
L 50.166888 175.608 
L 50.166888 170.064 
L 50.166888 164.52 
L 50.166888 158.976 
L 50.166888 153.432 
L 50.166888 147.888 
L 50.166888 142.344 
L 50.166888 136.8 
L 50.166888 131.256 
L 50.166888 125.712 
L 50.166888 120.168 
L 50.166888 114.624 
L 50.166888 109.08 
L 50.166888 103.536 
L 50.166888 97.992 
L 50.166888 92.448 
L 50.166888 86.904 
L 50.166888 81.36 
L 50.166888 75.816 
L 50.166888 70.272 
L 50.166888 64.728 
L 50.166888 59.184 
L 50.166888 53.64 
L 50.166888 48.096 
L 50.166888 42.552 
L 50.166888 37.008 
L 50.166888 31.464 
L 50.166888 25.92 
L 50.965459 25.92 
L 50.965459 31.464 
L 50.965459 37.008 
L 50.965459 42.552 
L 50.965459 48.096 
L 50.965459 53.64 
L 50.965459 59.184 
L 50.965459 64.728 
L 50.965459 70.272 
L 50.965459 75.816 
L 50.965459 81.36 
L 50.965459 86.904 
L 50.965459 92.448 
L 50.965459 97.992 
L 50.965459 103.536 
L 50.965459 109.08 
L 50.965459 114.624 
L 50.965459 120.168 
L 50.965459 125.712 
L 50.965459 131.256 
L 50.965459 136.8 
L 50.965459 142.344 
L 50.965459 147.888 
L 50.965459 153.432 
L 50.965459 158.976 
L 50.965459 164.52 
L 50.965459 170.064 
L 50.965459 175.608 
L 50.965459 181.152 
L 50.965459 186.696 
L 50.965459 192.24 
L 50.166888 192.24 
z
M 94.053433 186.696 
L 94.053433 181.152 
L 94.053433 175.608 
L 94.053433 170.064 
L 94.053433 164.52 
L 94.053433 158.976 
L 94.053433 153.432 
L 94.053433 147.888 
L 94.053433 142.344 
L 94.053433 136.8 
L 94.053433 131.256 
L 94.053433 125.712 
L 94.053433 120.168 
L 94.053433 114.624 
L 94.053433 109.08 
L 94.053433 103.536 
L 94.053433 97.992 
L 94.053433 92.448 
L 94.053433 86.904 
L 94.053433 81.36 
L 94.053433 75.816 
L 94.053433 70.272 
L 94.053433 64.728 
L 94.053433 59.184 
L 94.053433 53.64 
L 94.053433 48.096 
L 94.053433 42.552 
L 94.053433 37.008 
L 94.053433 31.464 
L 94.053433 25.92 
L 95.52 25.92 
L 96.021231 25.92 
L 96.021231 31.464 
L 96.021231 37.008 
L 96.021231 42.552 
L 96.021231 48.096 
L 96.021231 53.64 
L 96.021231 59.184 
L 96.021231 64.728 
L 96.021231 70.272 
L 96.021231 75.816 
L 96.021231 81.36 
L 96.021231 86.904 
L 96.021231 92.448 
L 96.021231 97.992 
L 96.021231 103.536 
L 96.021231 109.08 
L 96.021231 114.624 
L 96.021231 120.168 
L 96.021231 125.712 
L 96.021231 131.256 
L 96.021231 136.8 
L 96.021231 142.344 
L 96.021231 147.888 
L 96.021231 153.432 
L 96.021231 158.976 
L 96.021231 164.52 
L 96.021231 170.064 
L 96.021231 175.608 
L 96.021231 181.152 
L 96.021231 186.696 
L 96.021231 192.24 
L 95.52 192.24 
L 94.053433 192.24 
z
" clip-path="url(#p001f2485d7)" style="fill: #3b518b"/>
    <path d="M 49.368318 186.696 
L 49.368318 181.152 
L 49.368318 175.608 
L 49.368318 170.064 
L 49.368318 164.52 
L 49.368318 158.976 
L 49.368318 153.432 
L 49.368318 147.888 
L 49.368318 142.344 
L 49.368318 136.8 
L 49.368318 131.256 
L 49.368318 125.712 
L 49.368318 120.168 
L 49.368318 114.624 
L 49.368318 109.08 
L 49.368318 103.536 
L 49.368318 97.992 
L 49.368318 92.448 
L 49.368318 86.904 
L 49.368318 81.36 
L 49.368318 75.816 
L 49.368318 70.272 
L 49.368318 64.728 
L 49.368318 59.184 
L 49.368318 53.64 
L 49.368318 48.096 
L 49.368318 42.552 
L 49.368318 37.008 
L 49.368318 31.464 
L 49.368318 25.92 
L 50.166888 25.92 
L 50.166888 31.464 
L 50.166888 37.008 
L 50.166888 42.552 
L 50.166888 48.096 
L 50.166888 53.64 
L 50.166888 59.184 
L 50.166888 64.728 
L 50.166888 70.272 
L 50.166888 75.816 
L 50.166888 81.36 
L 50.166888 86.904 
L 50.166888 92.448 
L 50.166888 97.992 
L 50.166888 103.536 
L 50.166888 109.08 
L 50.166888 114.624 
L 50.166888 120.168 
L 50.166888 125.712 
L 50.166888 131.256 
L 50.166888 136.8 
L 50.166888 142.344 
L 50.166888 147.888 
L 50.166888 153.432 
L 50.166888 158.976 
L 50.166888 164.52 
L 50.166888 170.064 
L 50.166888 175.608 
L 50.166888 181.152 
L 50.166888 186.696 
L 50.166888 192.24 
L 49.368318 192.24 
z
M 96.021231 186.696 
L 96.021231 181.152 
L 96.021231 175.608 
L 96.021231 170.064 
L 96.021231 164.52 
L 96.021231 158.976 
L 96.021231 153.432 
L 96.021231 147.888 
L 96.021231 142.344 
L 96.021231 136.8 
L 96.021231 131.256 
L 96.021231 125.712 
L 96.021231 120.168 
L 96.021231 114.624 
L 96.021231 109.08 
L 96.021231 103.536 
L 96.021231 97.992 
L 96.021231 92.448 
L 96.021231 86.904 
L 96.021231 81.36 
L 96.021231 75.816 
L 96.021231 70.272 
L 96.021231 64.728 
L 96.021231 59.184 
L 96.021231 53.64 
L 96.021231 48.096 
L 96.021231 42.552 
L 96.021231 37.008 
L 96.021231 31.464 
L 96.021231 25.92 
L 97.944801 25.92 
L 97.944801 31.464 
L 97.944801 37.008 
L 97.944801 42.552 
L 97.944801 48.096 
L 97.944801 53.64 
L 97.944801 59.184 
L 97.944801 64.728 
L 97.944801 70.272 
L 97.944801 75.816 
L 97.944801 81.36 
L 97.944801 86.904 
L 97.944801 92.448 
L 97.944801 97.992 
L 97.944801 103.536 
L 97.944801 109.08 
L 97.944801 114.624 
L 97.944801 120.168 
L 97.944801 125.712 
L 97.944801 131.256 
L 97.944801 136.8 
L 97.944801 142.344 
L 97.944801 147.888 
L 97.944801 153.432 
L 97.944801 158.976 
L 97.944801 164.52 
L 97.944801 170.064 
L 97.944801 175.608 
L 97.944801 181.152 
L 97.944801 186.696 
L 97.944801 192.24 
L 96.021231 192.24 
z
" clip-path="url(#p001f2485d7)" style="fill: #433d84"/>
    <path d="M 48.569747 186.696 
L 48.569747 181.152 
L 48.569747 175.608 
L 48.569747 170.064 
L 48.569747 164.52 
L 48.569747 158.976 
L 48.569747 153.432 
L 48.569747 147.888 
L 48.569747 142.344 
L 48.569747 136.8 
L 48.569747 131.256 
L 48.569747 125.712 
L 48.569747 120.168 
L 48.569747 114.624 
L 48.569747 109.08 
L 48.569747 103.536 
L 48.569747 97.992 
L 48.569747 92.448 
L 48.569747 86.904 
L 48.569747 81.36 
L 48.569747 75.816 
L 48.569747 70.272 
L 48.569747 64.728 
L 48.569747 59.184 
L 48.569747 53.64 
L 48.569747 48.096 
L 48.569747 42.552 
L 48.569747 37.008 
L 48.569747 31.464 
L 48.569747 25.92 
L 49.368318 25.92 
L 49.368318 31.464 
L 49.368318 37.008 
L 49.368318 42.552 
L 49.368318 48.096 
L 49.368318 53.64 
L 49.368318 59.184 
L 49.368318 64.728 
L 49.368318 70.272 
L 49.368318 75.816 
L 49.368318 81.36 
L 49.368318 86.904 
L 49.368318 92.448 
L 49.368318 97.992 
L 49.368318 103.536 
L 49.368318 109.08 
L 49.368318 114.624 
L 49.368318 120.168 
L 49.368318 125.712 
L 49.368318 131.256 
L 49.368318 136.8 
L 49.368318 142.344 
L 49.368318 147.888 
L 49.368318 153.432 
L 49.368318 158.976 
L 49.368318 164.52 
L 49.368318 170.064 
L 49.368318 175.608 
L 49.368318 181.152 
L 49.368318 186.696 
L 49.368318 192.24 
L 48.569747 192.24 
z
M 97.944801 186.696 
L 97.944801 181.152 
L 97.944801 175.608 
L 97.944801 170.064 
L 97.944801 164.52 
L 97.944801 158.976 
L 97.944801 153.432 
L 97.944801 147.888 
L 97.944801 142.344 
L 97.944801 136.8 
L 97.944801 131.256 
L 97.944801 125.712 
L 97.944801 120.168 
L 97.944801 114.624 
L 97.944801 109.08 
L 97.944801 103.536 
L 97.944801 97.992 
L 97.944801 92.448 
L 97.944801 86.904 
L 97.944801 81.36 
L 97.944801 75.816 
L 97.944801 70.272 
L 97.944801 64.728 
L 97.944801 59.184 
L 97.944801 53.64 
L 97.944801 48.096 
L 97.944801 42.552 
L 97.944801 37.008 
L 97.944801 31.464 
L 97.944801 25.92 
L 99.868372 25.92 
L 99.868372 31.464 
L 99.868372 37.008 
L 99.868372 42.552 
L 99.868372 48.096 
L 99.868372 53.64 
L 99.868372 59.184 
L 99.868372 64.728 
L 99.868372 70.272 
L 99.868372 75.816 
L 99.868372 81.36 
L 99.868372 86.904 
L 99.868372 92.448 
L 99.868372 97.992 
L 99.868372 103.536 
L 99.868372 109.08 
L 99.868372 114.624 
L 99.868372 120.168 
L 99.868372 125.712 
L 99.868372 131.256 
L 99.868372 136.8 
L 99.868372 142.344 
L 99.868372 147.888 
L 99.868372 153.432 
L 99.868372 158.976 
L 99.868372 164.52 
L 99.868372 170.064 
L 99.868372 175.608 
L 99.868372 181.152 
L 99.868372 186.696 
L 99.868372 192.24 
L 97.944801 192.24 
z
" clip-path="url(#p001f2485d7)" style="fill: #482677"/>
    <path d="M 36 186.696 
L 36 181.152 
L 36 175.608 
L 36 170.064 
L 36 164.52 
L 36 158.976 
L 36 153.432 
L 36 147.888 
L 36 142.344 
L 36 136.8 
L 36 131.256 
L 36 125.712 
L 36 120.168 
L 36 114.624 
L 36 109.08 
L 36 103.536 
L 36 97.992 
L 36 92.448 
L 36 86.904 
L 36 81.36 
L 36 75.816 
L 36 70.272 
L 36 64.728 
L 36 59.184 
L 36 53.64 
L 36 48.096 
L 36 42.552 
L 36 37.008 
L 36 31.464 
L 36 25.92 
L 41.952 25.92 
L 47.904 25.92 
L 48.569747 25.92 
L 48.569747 31.464 
L 48.569747 37.008 
L 48.569747 42.552 
L 48.569747 48.096 
L 48.569747 53.64 
L 48.569747 59.184 
L 48.569747 64.728 
L 48.569747 70.272 
L 48.569747 75.816 
L 48.569747 81.36 
L 48.569747 86.904 
L 48.569747 92.448 
L 48.569747 97.992 
L 48.569747 103.536 
L 48.569747 109.08 
L 48.569747 114.624 
L 48.569747 120.168 
L 48.569747 125.712 
L 48.569747 131.256 
L 48.569747 136.8 
L 48.569747 142.344 
L 48.569747 147.888 
L 48.569747 153.432 
L 48.569747 158.976 
L 48.569747 164.52 
L 48.569747 170.064 
L 48.569747 175.608 
L 48.569747 181.152 
L 48.569747 186.696 
L 48.569747 192.24 
L 47.904 192.24 
L 41.952 192.24 
L 36 192.24 
z
M 99.868372 186.696 
L 99.868372 181.152 
L 99.868372 175.608 
L 99.868372 170.064 
L 99.868372 164.52 
L 99.868372 158.976 
L 99.868372 153.432 
L 99.868372 147.888 
L 99.868372 142.344 
L 99.868372 136.8 
L 99.868372 131.256 
L 99.868372 125.712 
L 99.868372 120.168 
L 99.868372 114.624 
L 99.868372 109.08 
L 99.868372 103.536 
L 99.868372 97.992 
L 99.868372 92.448 
L 99.868372 86.904 
L 99.868372 81.36 
L 99.868372 75.816 
L 99.868372 70.272 
L 99.868372 64.728 
L 99.868372 59.184 
L 99.868372 53.64 
L 99.868372 48.096 
L 99.868372 42.552 
L 99.868372 37.008 
L 99.868372 31.464 
L 99.868372 25.92 
L 101.472 25.92 
L 107.424 25.92 
L 113.376 25.92 
L 119.328 25.92 
L 125.28 25.92 
L 131.232 25.92 
L 137.184 25.92 
L 143.136 25.92 
L 149.088 25.92 
L 155.04 25.92 
L 160.992 25.92 
L 166.944 25.92 
L 172.896 25.92 
L 178.848 25.92 
L 184.8 25.92 
L 190.752 25.92 
L 196.704 25.92 
L 202.656 25.92 
L 208.608 25.92 
L 214.56 25.92 
L 214.56 31.464 
L 214.56 37.008 
L 214.56 42.552 
L 214.56 48.096 
L 214.56 53.64 
L 214.56 59.184 
L 214.56 64.728 
L 214.56 70.272 
L 214.56 75.816 
L 214.56 81.36 
L 214.56 86.904 
L 214.56 92.448 
L 214.56 97.992 
L 214.56 103.536 
L 214.56 109.08 
L 214.56 114.624 
L 214.56 120.168 
L 214.56 125.712 
L 214.56 131.256 
L 214.56 136.8 
L 214.56 142.344 
L 214.56 147.888 
L 214.56 153.432 
L 214.56 158.976 
L 214.56 164.52 
L 214.56 170.064 
L 214.56 175.608 
L 214.56 181.152 
L 214.56 186.696 
L 214.56 192.24 
L 208.608 192.24 
L 202.656 192.24 
L 196.704 192.24 
L 190.752 192.24 
L 184.8 192.24 
L 178.848 192.24 
L 172.896 192.24 
L 166.944 192.24 
L 160.992 192.24 
L 155.04 192.24 
L 149.088 192.24 
L 143.136 192.24 
L 137.184 192.24 
L 131.232 192.24 
L 125.28 192.24 
L 119.328 192.24 
L 113.376 192.24 
L 107.424 192.24 
L 101.472 192.24 
L 99.868372 192.24 
z
" clip-path="url(#p001f2485d7)" style="fill: #470e61"/>
   </g>
   <g id="PathCollection_1">
    <defs>
     <path id="mf5b9a73e99" d="M -4.743416 4.743416 
L 4.743416 -4.743416 
M -4.743416 -4.743416 
L 4.743416 4.743416 
" style="stroke: #ffffff; stroke-width: 5"/>
    </defs>
    <g clip-path="url(#p001f2485d7)">
     <use xlink:href="#mf5b9a73e99" x="65.76" y="109.08" style="fill: #ffffff; stroke: #ffffff; stroke-width: 5"/>
    </g>
   </g>
   <g id="PathCollection_2">
    <defs>
     <path id="ma333a839a6" d="M -4.330127 4.330127 
L 4.330127 -4.330127 
M -4.330127 -4.330127 
L 4.330127 4.330127 
" style="stroke: #000000; stroke-width: 2"/>
    </defs>
    <g clip-path="url(#p001f2485d7)">
     <use xlink:href="#ma333a839a6" x="65.76" y="109.08" style="stroke: #000000; stroke-width: 2"/>
    </g>
   </g>
   <g id="matplotlib.axis_1">
    <g id="xtick_1">
     <g id="line2d_1">
      <defs>
       <path id="m4be36e4934" d="M 0 0 
L 0 3.5 
" style="stroke: #000000; stroke-width: 0.8"/>
      </defs>
      <g>
       <use xlink:href="#m4be36e4934" x="65.76" y="192.24" style="stroke: #000000; stroke-width: 0.8"/>
      </g>
     </g>
     <g id="text_1">
      <!-- 200 -->
      <g transform="translate(54.3075 208.358125) scale(0.12 -0.12)">
       <defs>
        <path id="DejaVuSans-32" d="M 1228 531 
L 3431 531 
L 3431 0 
L 469 0 
L 469 531 
Q 828 903 1448 1529 
Q 2069 2156 2228 2338 
Q 2531 2678 2651 2914 
Q 2772 3150 2772 3378 
Q 2772 3750 2511 3984 
Q 2250 4219 1831 4219 
Q 1534 4219 1204 4116 
Q 875 4013 500 3803 
L 500 4441 
Q 881 4594 1212 4672 
Q 1544 4750 1819 4750 
Q 2544 4750 2975 4387 
Q 3406 4025 3406 3419 
Q 3406 3131 3298 2873 
Q 3191 2616 2906 2266 
Q 2828 2175 2409 1742 
Q 1991 1309 1228 531 
z
" transform="scale(0.015625)"/>
        <path id="DejaVuSans-30" d="M 2034 4250 
Q 1547 4250 1301 3770 
Q 1056 3291 1056 2328 
Q 1056 1369 1301 889 
Q 1547 409 2034 409 
Q 2525 409 2770 889 
Q 3016 1369 3016 2328 
Q 3016 3291 2770 3770 
Q 2525 4250 2034 4250 
z
M 2034 4750 
Q 2819 4750 3233 4129 
Q 3647 3509 3647 2328 
Q 3647 1150 3233 529 
Q 2819 -91 2034 -91 
Q 1250 -91 836 529 
Q 422 1150 422 2328 
Q 422 3509 836 4129 
Q 1250 4750 2034 4750 
z
" transform="scale(0.015625)"/>
       </defs>
       <use xlink:href="#DejaVuSans-32"/>
       <use xlink:href="#DejaVuSans-30" x="63.623047"/>
       <use xlink:href="#DejaVuSans-30" x="127.246094"/>
      </g>
     </g>
    </g>
    <g id="xtick_2">
     <g id="line2d_2">
      <g>
       <use xlink:href="#m4be36e4934" x="105.44" y="192.24" style="stroke: #000000; stroke-width: 0.8"/>
      </g>
     </g>
     <g id="text_2">
      <!-- 400 -->
      <g transform="translate(93.9875 208.358125) scale(0.12 -0.12)">
       <defs>
        <path id="DejaVuSans-34" d="M 2419 4116 
L 825 1625 
L 2419 1625 
L 2419 4116 
z
M 2253 4666 
L 3047 4666 
L 3047 1625 
L 3713 1625 
L 3713 1100 
L 3047 1100 
L 3047 0 
L 2419 0 
L 2419 1100 
L 313 1100 
L 313 1709 
L 2253 4666 
z
" transform="scale(0.015625)"/>
       </defs>
       <use xlink:href="#DejaVuSans-34"/>
       <use xlink:href="#DejaVuSans-30" x="63.623047"/>
       <use xlink:href="#DejaVuSans-30" x="127.246094"/>
      </g>
     </g>
    </g>
    <g id="xtick_3">
     <g id="line2d_3">
      <g>
       <use xlink:href="#m4be36e4934" x="145.12" y="192.24" style="stroke: #000000; stroke-width: 0.8"/>
      </g>
     </g>
     <g id="text_3">
      <!-- 600 -->
      <g transform="translate(133.6675 208.358125) scale(0.12 -0.12)">
       <defs>
        <path id="DejaVuSans-36" d="M 2113 2584 
Q 1688 2584 1439 2293 
Q 1191 2003 1191 1497 
Q 1191 994 1439 701 
Q 1688 409 2113 409 
Q 2538 409 2786 701 
Q 3034 994 3034 1497 
Q 3034 2003 2786 2293 
Q 2538 2584 2113 2584 
z
M 3366 4563 
L 3366 3988 
Q 3128 4100 2886 4159 
Q 2644 4219 2406 4219 
Q 1781 4219 1451 3797 
Q 1122 3375 1075 2522 
Q 1259 2794 1537 2939 
Q 1816 3084 2150 3084 
Q 2853 3084 3261 2657 
Q 3669 2231 3669 1497 
Q 3669 778 3244 343 
Q 2819 -91 2113 -91 
Q 1303 -91 875 529 
Q 447 1150 447 2328 
Q 447 3434 972 4092 
Q 1497 4750 2381 4750 
Q 2619 4750 2861 4703 
Q 3103 4656 3366 4563 
z
" transform="scale(0.015625)"/>
       </defs>
       <use xlink:href="#DejaVuSans-36"/>
       <use xlink:href="#DejaVuSans-30" x="63.623047"/>
       <use xlink:href="#DejaVuSans-30" x="127.246094"/>
      </g>
     </g>
    </g>
    <g id="xtick_4">
     <g id="line2d_4">
      <g>
       <use xlink:href="#m4be36e4934" x="184.8" y="192.24" style="stroke: #000000; stroke-width: 0.8"/>
      </g>
     </g>
     <g id="text_4">
      <!-- 800 -->
      <g transform="translate(173.3475 208.358125) scale(0.12 -0.12)">
       <defs>
        <path id="DejaVuSans-38" d="M 2034 2216 
Q 1584 2216 1326 1975 
Q 1069 1734 1069 1313 
Q 1069 891 1326 650 
Q 1584 409 2034 409 
Q 2484 409 2743 651 
Q 3003 894 3003 1313 
Q 3003 1734 2745 1975 
Q 2488 2216 2034 2216 
z
M 1403 2484 
Q 997 2584 770 2862 
Q 544 3141 544 3541 
Q 544 4100 942 4425 
Q 1341 4750 2034 4750 
Q 2731 4750 3128 4425 
Q 3525 4100 3525 3541 
Q 3525 3141 3298 2862 
Q 3072 2584 2669 2484 
Q 3125 2378 3379 2068 
Q 3634 1759 3634 1313 
Q 3634 634 3220 271 
Q 2806 -91 2034 -91 
Q 1263 -91 848 271 
Q 434 634 434 1313 
Q 434 1759 690 2068 
Q 947 2378 1403 2484 
z
M 1172 3481 
Q 1172 3119 1398 2916 
Q 1625 2713 2034 2713 
Q 2441 2713 2670 2916 
Q 2900 3119 2900 3481 
Q 2900 3844 2670 4047 
Q 2441 4250 2034 4250 
Q 1625 4250 1398 4047 
Q 1172 3844 1172 3481 
z
" transform="scale(0.015625)"/>
       </defs>
       <use xlink:href="#DejaVuSans-38"/>
       <use xlink:href="#DejaVuSans-30" x="63.623047"/>
       <use xlink:href="#DejaVuSans-30" x="127.246094"/>
      </g>
     </g>
    </g>
    <g id="text_5">
     <!-- Diploid N$_e$0 -->
     <g transform="translate(80 227.01375) scale(0.16 -0.16)">
      <defs>
       <path id="DejaVuSans-44" d="M 1259 4147 
L 1259 519 
L 2022 519 
Q 2988 519 3436 956 
Q 3884 1394 3884 2338 
Q 3884 3275 3436 3711 
Q 2988 4147 2022 4147 
L 1259 4147 
z
M 628 4666 
L 1925 4666 
Q 3281 4666 3915 4102 
Q 4550 3538 4550 2338 
Q 4550 1131 3912 565 
Q 3275 0 1925 0 
L 628 0 
L 628 4666 
z
" transform="scale(0.015625)"/>
       <path id="DejaVuSans-69" d="M 603 3500 
L 1178 3500 
L 1178 0 
L 603 0 
L 603 3500 
z
M 603 4863 
L 1178 4863 
L 1178 4134 
L 603 4134 
L 603 4863 
z
" transform="scale(0.015625)"/>
       <path id="DejaVuSans-70" d="M 1159 525 
L 1159 -1331 
L 581 -1331 
L 581 3500 
L 1159 3500 
L 1159 2969 
Q 1341 3281 1617 3432 
Q 1894 3584 2278 3584 
Q 2916 3584 3314 3078 
Q 3713 2572 3713 1747 
Q 3713 922 3314 415 
Q 2916 -91 2278 -91 
Q 1894 -91 1617 61 
Q 1341 213 1159 525 
z
M 3116 1747 
Q 3116 2381 2855 2742 
Q 2594 3103 2138 3103 
Q 1681 3103 1420 2742 
Q 1159 2381 1159 1747 
Q 1159 1113 1420 752 
Q 1681 391 2138 391 
Q 2594 391 2855 752 
Q 3116 1113 3116 1747 
z
" transform="scale(0.015625)"/>
       <path id="DejaVuSans-6c" d="M 603 4863 
L 1178 4863 
L 1178 0 
L 603 0 
L 603 4863 
z
" transform="scale(0.015625)"/>
       <path id="DejaVuSans-6f" d="M 1959 3097 
Q 1497 3097 1228 2736 
Q 959 2375 959 1747 
Q 959 1119 1226 758 
Q 1494 397 1959 397 
Q 2419 397 2687 759 
Q 2956 1122 2956 1747 
Q 2956 2369 2687 2733 
Q 2419 3097 1959 3097 
z
M 1959 3584 
Q 2709 3584 3137 3096 
Q 3566 2609 3566 1747 
Q 3566 888 3137 398 
Q 2709 -91 1959 -91 
Q 1206 -91 779 398 
Q 353 888 353 1747 
Q 353 2609 779 3096 
Q 1206 3584 1959 3584 
z
" transform="scale(0.015625)"/>
       <path id="DejaVuSans-64" d="M 2906 2969 
L 2906 4863 
L 3481 4863 
L 3481 0 
L 2906 0 
L 2906 525 
Q 2725 213 2448 61 
Q 2172 -91 1784 -91 
Q 1150 -91 751 415 
Q 353 922 353 1747 
Q 353 2572 751 3078 
Q 1150 3584 1784 3584 
Q 2172 3584 2448 3432 
Q 2725 3281 2906 2969 
z
M 947 1747 
Q 947 1113 1208 752 
Q 1469 391 1925 391 
Q 2381 391 2643 752 
Q 2906 1113 2906 1747 
Q 2906 2381 2643 2742 
Q 2381 3103 1925 3103 
Q 1469 3103 1208 2742 
Q 947 2381 947 1747 
z
" transform="scale(0.015625)"/>
       <path id="DejaVuSans-20" transform="scale(0.015625)"/>
       <path id="DejaVuSans-4e" d="M 628 4666 
L 1478 4666 
L 3547 763 
L 3547 4666 
L 4159 4666 
L 4159 0 
L 3309 0 
L 1241 3903 
L 1241 0 
L 628 0 
L 628 4666 
z
" transform="scale(0.015625)"/>
       <path id="DejaVuSans-Oblique-65" d="M 3078 2063 
Q 3088 2113 3092 2166 
Q 3097 2219 3097 2272 
Q 3097 2653 2873 2875 
Q 2650 3097 2266 3097 
Q 1838 3097 1509 2826 
Q 1181 2556 1013 2059 
L 3078 2063 
z
M 3578 1613 
L 903 1613 
Q 884 1494 878 1425 
Q 872 1356 872 1306 
Q 872 872 1139 634 
Q 1406 397 1894 397 
Q 2269 397 2603 481 
Q 2938 566 3225 728 
L 3116 159 
Q 2806 34 2476 -28 
Q 2147 -91 1806 -91 
Q 1078 -91 686 257 
Q 294 606 294 1247 
Q 294 1794 489 2264 
Q 684 2734 1063 3103 
Q 1306 3334 1642 3459 
Q 1978 3584 2356 3584 
Q 2950 3584 3301 3228 
Q 3653 2872 3653 2272 
Q 3653 2128 3634 1964 
Q 3616 1800 3578 1613 
z
" transform="scale(0.015625)"/>
      </defs>
      <use xlink:href="#DejaVuSans-44" transform="translate(0 0.015625)"/>
      <use xlink:href="#DejaVuSans-69" transform="translate(77.001953 0.015625)"/>
      <use xlink:href="#DejaVuSans-70" transform="translate(104.785156 0.015625)"/>
      <use xlink:href="#DejaVuSans-6c" transform="translate(168.261719 0.015625)"/>
      <use xlink:href="#DejaVuSans-6f" transform="translate(196.044922 0.015625)"/>
      <use xlink:href="#DejaVuSans-69" transform="translate(257.226562 0.015625)"/>
      <use xlink:href="#DejaVuSans-64" transform="translate(285.009766 0.015625)"/>
      <use xlink:href="#DejaVuSans-20" transform="translate(348.486328 0.015625)"/>
      <use xlink:href="#DejaVuSans-4e" transform="translate(380.273438 0.015625)"/>
      <use xlink:href="#DejaVuSans-Oblique-65" transform="translate(456.035156 -16.390625) scale(0.7)"/>
      <use xlink:href="#DejaVuSans-30" transform="translate(501.835938 0.015625)"/>
     </g>
    </g>
    <g id="text_6">
     <!-- 1e3 -->
     <g transform="translate(195.681875 221.452188) scale(0.1 -0.1)">
      <defs>
       <path id="DejaVuSans-31" d="M 794 531 
L 1825 531 
L 1825 4091 
L 703 3866 
L 703 4441 
L 1819 4666 
L 2450 4666 
L 2450 531 
L 3481 531 
L 3481 0 
L 794 0 
L 794 531 
z
" transform="scale(0.015625)"/>
       <path id="DejaVuSans-65" d="M 3597 1894 
L 3597 1613 
L 953 1613 
Q 991 1019 1311 708 
Q 1631 397 2203 397 
Q 2534 397 2845 478 
Q 3156 559 3463 722 
L 3463 178 
Q 3153 47 2828 -22 
Q 2503 -91 2169 -91 
Q 1331 -91 842 396 
Q 353 884 353 1716 
Q 353 2575 817 3079 
Q 1281 3584 2069 3584 
Q 2775 3584 3186 3129 
Q 3597 2675 3597 1894 
z
M 3022 2063 
Q 3016 2534 2758 2815 
Q 2500 3097 2075 3097 
Q 1594 3097 1305 2825 
Q 1016 2553 972 2059 
L 3022 2063 
z
" transform="scale(0.015625)"/>
       <path id="DejaVuSans-33" d="M 2597 2516 
Q 3050 2419 3304 2112 
Q 3559 1806 3559 1356 
Q 3559 666 3084 287 
Q 2609 -91 1734 -91 
Q 1441 -91 1130 -33 
Q 819 25 488 141 
L 488 750 
Q 750 597 1062 519 
Q 1375 441 1716 441 
Q 2309 441 2620 675 
Q 2931 909 2931 1356 
Q 2931 1769 2642 2001 
Q 2353 2234 1838 2234 
L 1294 2234 
L 1294 2753 
L 1863 2753 
Q 2328 2753 2575 2939 
Q 2822 3125 2822 3475 
Q 2822 3834 2567 4026 
Q 2313 4219 1838 4219 
Q 1578 4219 1281 4162 
Q 984 4106 628 3988 
L 628 4550 
Q 988 4650 1302 4700 
Q 1616 4750 1894 4750 
Q 2613 4750 3031 4423 
Q 3450 4097 3450 3541 
Q 3450 3153 3228 2886 
Q 3006 2619 2597 2516 
z
" transform="scale(0.015625)"/>
      </defs>
      <use xlink:href="#DejaVuSans-31"/>
      <use xlink:href="#DejaVuSans-65" x="63.623047"/>
      <use xlink:href="#DejaVuSans-33" x="125.146484"/>
     </g>
    </g>
   </g>
   <g id="matplotlib.axis_2">
    <g id="ytick_1">
     <g id="line2d_5">
      <defs>
       <path id="md5e3976ef1" d="M 0 0 
L -3.5 0 
" style="stroke: #000000; stroke-width: 0.8"/>
      </defs>
      <g>
       <use xlink:href="#md5e3976ef1" x="36" y="192.24" style="stroke: #000000; stroke-width: 0.8"/>
      </g>
     </g>
     <g id="text_7">
      <!-- 1.0 -->
      <g transform="translate(9.91625 196.799062) scale(0.12 -0.12)">
       <defs>
        <path id="DejaVuSans-2e" d="M 684 794 
L 1344 794 
L 1344 0 
L 684 0 
L 684 794 
z
" transform="scale(0.015625)"/>
       </defs>
       <use xlink:href="#DejaVuSans-31"/>
       <use xlink:href="#DejaVuSans-2e" x="63.623047"/>
       <use xlink:href="#DejaVuSans-30" x="95.410156"/>
      </g>
     </g>
    </g>
    <g id="ytick_2">
     <g id="line2d_6">
      <g>
       <use xlink:href="#md5e3976ef1" x="36" y="150.66" style="stroke: #000000; stroke-width: 0.8"/>
      </g>
     </g>
     <g id="text_8">
      <!-- 1.5 -->
      <g transform="translate(9.91625 155.219063) scale(0.12 -0.12)">
       <defs>
        <path id="DejaVuSans-35" d="M 691 4666 
L 3169 4666 
L 3169 4134 
L 1269 4134 
L 1269 2991 
Q 1406 3038 1543 3061 
Q 1681 3084 1819 3084 
Q 2600 3084 3056 2656 
Q 3513 2228 3513 1497 
Q 3513 744 3044 326 
Q 2575 -91 1722 -91 
Q 1428 -91 1123 -41 
Q 819 9 494 109 
L 494 744 
Q 775 591 1075 516 
Q 1375 441 1709 441 
Q 2250 441 2565 725 
Q 2881 1009 2881 1497 
Q 2881 1984 2565 2268 
Q 2250 2553 1709 2553 
Q 1456 2553 1204 2497 
Q 953 2441 691 2322 
L 691 4666 
z
" transform="scale(0.015625)"/>
       </defs>
       <use xlink:href="#DejaVuSans-31"/>
       <use xlink:href="#DejaVuSans-2e" x="63.623047"/>
       <use xlink:href="#DejaVuSans-35" x="95.410156"/>
      </g>
     </g>
    </g>
    <g id="ytick_3">
     <g id="line2d_7">
      <g>
       <use xlink:href="#md5e3976ef1" x="36" y="109.08" style="stroke: #000000; stroke-width: 0.8"/>
      </g>
     </g>
     <g id="text_9">
      <!-- 2.0 -->
      <g transform="translate(9.91625 113.639062) scale(0.12 -0.12)">
       <use xlink:href="#DejaVuSans-32"/>
       <use xlink:href="#DejaVuSans-2e" x="63.623047"/>
       <use xlink:href="#DejaVuSans-30" x="95.410156"/>
      </g>
     </g>
    </g>
    <g id="ytick_4">
     <g id="line2d_8">
      <g>
       <use xlink:href="#md5e3976ef1" x="36" y="67.5" style="stroke: #000000; stroke-width: 0.8"/>
      </g>
     </g>
     <g id="text_10">
      <!-- 2.5 -->
      <g transform="translate(9.91625 72.059063) scale(0.12 -0.12)">
       <use xlink:href="#DejaVuSans-32"/>
       <use xlink:href="#DejaVuSans-2e" x="63.623047"/>
       <use xlink:href="#DejaVuSans-35" x="95.410156"/>
      </g>
     </g>
    </g>
    <g id="ytick_5">
     <g id="line2d_9">
      <g>
       <use xlink:href="#md5e3976ef1" x="36" y="25.92" style="stroke: #000000; stroke-width: 0.8"/>
      </g>
     </g>
     <g id="text_11">
      <!-- 3.0 -->
      <g transform="translate(9.91625 30.479062) scale(0.12 -0.12)">
       <use xlink:href="#DejaVuSans-33"/>
       <use xlink:href="#DejaVuSans-2e" x="63.623047"/>
       <use xlink:href="#DejaVuSans-30" x="95.410156"/>
      </g>
     </g>
    </g>
    <g id="text_12">
     <!-- Recombination rate -->
     <g transform="translate(2.58875 187.6775) rotate(-90) scale(0.16 -0.16)">
      <defs>
       <path id="DejaVuSans-52" d="M 2841 2188 
Q 3044 2119 3236 1894 
Q 3428 1669 3622 1275 
L 4263 0 
L 3584 0 
L 2988 1197 
Q 2756 1666 2539 1819 
Q 2322 1972 1947 1972 
L 1259 1972 
L 1259 0 
L 628 0 
L 628 4666 
L 2053 4666 
Q 2853 4666 3247 4331 
Q 3641 3997 3641 3322 
Q 3641 2881 3436 2590 
Q 3231 2300 2841 2188 
z
M 1259 4147 
L 1259 2491 
L 2053 2491 
Q 2509 2491 2742 2702 
Q 2975 2913 2975 3322 
Q 2975 3731 2742 3939 
Q 2509 4147 2053 4147 
L 1259 4147 
z
" transform="scale(0.015625)"/>
       <path id="DejaVuSans-63" d="M 3122 3366 
L 3122 2828 
Q 2878 2963 2633 3030 
Q 2388 3097 2138 3097 
Q 1578 3097 1268 2742 
Q 959 2388 959 1747 
Q 959 1106 1268 751 
Q 1578 397 2138 397 
Q 2388 397 2633 464 
Q 2878 531 3122 666 
L 3122 134 
Q 2881 22 2623 -34 
Q 2366 -91 2075 -91 
Q 1284 -91 818 406 
Q 353 903 353 1747 
Q 353 2603 823 3093 
Q 1294 3584 2113 3584 
Q 2378 3584 2631 3529 
Q 2884 3475 3122 3366 
z
" transform="scale(0.015625)"/>
       <path id="DejaVuSans-6d" d="M 3328 2828 
Q 3544 3216 3844 3400 
Q 4144 3584 4550 3584 
Q 5097 3584 5394 3201 
Q 5691 2819 5691 2113 
L 5691 0 
L 5113 0 
L 5113 2094 
Q 5113 2597 4934 2840 
Q 4756 3084 4391 3084 
Q 3944 3084 3684 2787 
Q 3425 2491 3425 1978 
L 3425 0 
L 2847 0 
L 2847 2094 
Q 2847 2600 2669 2842 
Q 2491 3084 2119 3084 
Q 1678 3084 1418 2786 
Q 1159 2488 1159 1978 
L 1159 0 
L 581 0 
L 581 3500 
L 1159 3500 
L 1159 2956 
Q 1356 3278 1631 3431 
Q 1906 3584 2284 3584 
Q 2666 3584 2933 3390 
Q 3200 3197 3328 2828 
z
" transform="scale(0.015625)"/>
       <path id="DejaVuSans-62" d="M 3116 1747 
Q 3116 2381 2855 2742 
Q 2594 3103 2138 3103 
Q 1681 3103 1420 2742 
Q 1159 2381 1159 1747 
Q 1159 1113 1420 752 
Q 1681 391 2138 391 
Q 2594 391 2855 752 
Q 3116 1113 3116 1747 
z
M 1159 2969 
Q 1341 3281 1617 3432 
Q 1894 3584 2278 3584 
Q 2916 3584 3314 3078 
Q 3713 2572 3713 1747 
Q 3713 922 3314 415 
Q 2916 -91 2278 -91 
Q 1894 -91 1617 61 
Q 1341 213 1159 525 
L 1159 0 
L 581 0 
L 581 4863 
L 1159 4863 
L 1159 2969 
z
" transform="scale(0.015625)"/>
       <path id="DejaVuSans-6e" d="M 3513 2113 
L 3513 0 
L 2938 0 
L 2938 2094 
Q 2938 2591 2744 2837 
Q 2550 3084 2163 3084 
Q 1697 3084 1428 2787 
Q 1159 2491 1159 1978 
L 1159 0 
L 581 0 
L 581 3500 
L 1159 3500 
L 1159 2956 
Q 1366 3272 1645 3428 
Q 1925 3584 2291 3584 
Q 2894 3584 3203 3211 
Q 3513 2838 3513 2113 
z
" transform="scale(0.015625)"/>
       <path id="DejaVuSans-61" d="M 2194 1759 
Q 1497 1759 1228 1600 
Q 959 1441 959 1056 
Q 959 750 1161 570 
Q 1363 391 1709 391 
Q 2188 391 2477 730 
Q 2766 1069 2766 1631 
L 2766 1759 
L 2194 1759 
z
M 3341 1997 
L 3341 0 
L 2766 0 
L 2766 531 
Q 2569 213 2275 61 
Q 1981 -91 1556 -91 
Q 1019 -91 701 211 
Q 384 513 384 1019 
Q 384 1609 779 1909 
Q 1175 2209 1959 2209 
L 2766 2209 
L 2766 2266 
Q 2766 2663 2505 2880 
Q 2244 3097 1772 3097 
Q 1472 3097 1187 3025 
Q 903 2953 641 2809 
L 641 3341 
Q 956 3463 1253 3523 
Q 1550 3584 1831 3584 
Q 2591 3584 2966 3190 
Q 3341 2797 3341 1997 
z
" transform="scale(0.015625)"/>
       <path id="DejaVuSans-74" d="M 1172 4494 
L 1172 3500 
L 2356 3500 
L 2356 3053 
L 1172 3053 
L 1172 1153 
Q 1172 725 1289 603 
Q 1406 481 1766 481 
L 2356 481 
L 2356 0 
L 1766 0 
Q 1100 0 847 248 
Q 594 497 594 1153 
L 594 3053 
L 172 3053 
L 172 3500 
L 594 3500 
L 594 4494 
L 1172 4494 
z
" transform="scale(0.015625)"/>
       <path id="DejaVuSans-72" d="M 2631 2963 
Q 2534 3019 2420 3045 
Q 2306 3072 2169 3072 
Q 1681 3072 1420 2755 
Q 1159 2438 1159 1844 
L 1159 0 
L 581 0 
L 581 3500 
L 1159 3500 
L 1159 2956 
Q 1341 3275 1631 3429 
Q 1922 3584 2338 3584 
Q 2397 3584 2469 3576 
Q 2541 3569 2628 3553 
L 2631 2963 
z
" transform="scale(0.015625)"/>
      </defs>
      <use xlink:href="#DejaVuSans-52"/>
      <use xlink:href="#DejaVuSans-65" x="64.982422"/>
      <use xlink:href="#DejaVuSans-63" x="126.505859"/>
      <use xlink:href="#DejaVuSans-6f" x="181.486328"/>
      <use xlink:href="#DejaVuSans-6d" x="242.667969"/>
      <use xlink:href="#DejaVuSans-62" x="340.080078"/>
      <use xlink:href="#DejaVuSans-69" x="403.556641"/>
      <use xlink:href="#DejaVuSans-6e" x="431.339844"/>
      <use xlink:href="#DejaVuSans-61" x="494.71875"/>
      <use xlink:href="#DejaVuSans-74" x="555.998047"/>
      <use xlink:href="#DejaVuSans-69" x="595.207031"/>
      <use xlink:href="#DejaVuSans-6f" x="622.990234"/>
      <use xlink:href="#DejaVuSans-6e" x="684.171875"/>
      <use xlink:href="#DejaVuSans-20" x="747.550781"/>
      <use xlink:href="#DejaVuSans-72" x="779.337891"/>
      <use xlink:href="#DejaVuSans-61" x="820.451172"/>
      <use xlink:href="#DejaVuSans-74" x="881.730469"/>
      <use xlink:href="#DejaVuSans-65" x="920.939453"/>
     </g>
    </g>
    <g id="text_13">
     <!-- 1e9 -->
     <g transform="translate(36 22.92) scale(0.1 -0.1)">
      <defs>
       <path id="DejaVuSans-2212" d="M 678 2272 
L 4684 2272 
L 4684 1741 
L 678 1741 
L 678 2272 
z
" transform="scale(0.015625)"/>
       <path id="DejaVuSans-39" d="M 703 97 
L 703 672 
Q 941 559 1184 500 
Q 1428 441 1663 441 
Q 2288 441 2617 861 
Q 2947 1281 2994 2138 
Q 2813 1869 2534 1725 
Q 2256 1581 1919 1581 
Q 1219 1581 811 2004 
Q 403 2428 403 3163 
Q 403 3881 828 4315 
Q 1253 4750 1959 4750 
Q 2769 4750 3195 4129 
Q 3622 3509 3622 2328 
Q 3622 1225 3098 567 
Q 2575 -91 1691 -91 
Q 1453 -91 1209 -44 
Q 966 3 703 97 
z
M 1959 2075 
Q 2384 2075 2632 2365 
Q 2881 2656 2881 3163 
Q 2881 3666 2632 3958 
Q 2384 4250 1959 4250 
Q 1534 4250 1286 3958 
Q 1038 3666 1038 3163 
Q 1038 2656 1286 2365 
Q 1534 2075 1959 2075 
z
" transform="scale(0.015625)"/>
      </defs>
      <use xlink:href="#DejaVuSans-31"/>
      <use xlink:href="#DejaVuSans-65" x="63.623047"/>
      <use xlink:href="#DejaVuSans-2212" x="125.146484"/>
      <use xlink:href="#DejaVuSans-39" x="208.935547"/>
     </g>
    </g>
   </g>
   <g id="patch_3">
    <path d="M 36 192.24 
L 36 25.92 
" style="fill: none; stroke: #000000; stroke-width: 0.8; stroke-linejoin: miter; stroke-linecap: square"/>
   </g>
   <g id="patch_4">
    <path d="M 214.56 192.24 
L 214.56 25.92 
" style="fill: none; stroke: #000000; stroke-width: 0.8; stroke-linejoin: miter; stroke-linecap: square"/>
   </g>
   <g id="patch_5">
    <path d="M 36 192.24 
L 214.56 192.24 
" style="fill: none; stroke: #000000; stroke-width: 0.8; stroke-linejoin: miter; stroke-linecap: square"/>
   </g>
   <g id="patch_6">
    <path d="M 36 25.92 
L 214.56 25.92 
" style="fill: none; stroke: #000000; stroke-width: 0.8; stroke-linejoin: miter; stroke-linecap: square"/>
   </g>
   <g id="text_14">
    <!-- Ne0r-MSC-T-P2-S4 -->
    <g transform="translate(53.8825 10.92) scale(0.16 -0.16)">
     <defs>
      <path id="DejaVuSans-2d" d="M 313 2009 
L 1997 2009 
L 1997 1497 
L 313 1497 
L 313 2009 
z
" transform="scale(0.015625)"/>
      <path id="DejaVuSans-4d" d="M 628 4666 
L 1569 4666 
L 2759 1491 
L 3956 4666 
L 4897 4666 
L 4897 0 
L 4281 0 
L 4281 4097 
L 3078 897 
L 2444 897 
L 1241 4097 
L 1241 0 
L 628 0 
L 628 4666 
z
" transform="scale(0.015625)"/>
      <path id="DejaVuSans-53" d="M 3425 4513 
L 3425 3897 
Q 3066 4069 2747 4153 
Q 2428 4238 2131 4238 
Q 1616 4238 1336 4038 
Q 1056 3838 1056 3469 
Q 1056 3159 1242 3001 
Q 1428 2844 1947 2747 
L 2328 2669 
Q 3034 2534 3370 2195 
Q 3706 1856 3706 1288 
Q 3706 609 3251 259 
Q 2797 -91 1919 -91 
Q 1588 -91 1214 -16 
Q 841 59 441 206 
L 441 856 
Q 825 641 1194 531 
Q 1563 422 1919 422 
Q 2459 422 2753 634 
Q 3047 847 3047 1241 
Q 3047 1584 2836 1778 
Q 2625 1972 2144 2069 
L 1759 2144 
Q 1053 2284 737 2584 
Q 422 2884 422 3419 
Q 422 4038 858 4394 
Q 1294 4750 2059 4750 
Q 2388 4750 2728 4690 
Q 3069 4631 3425 4513 
z
" transform="scale(0.015625)"/>
      <path id="DejaVuSans-43" d="M 4122 4306 
L 4122 3641 
Q 3803 3938 3442 4084 
Q 3081 4231 2675 4231 
Q 1875 4231 1450 3742 
Q 1025 3253 1025 2328 
Q 1025 1406 1450 917 
Q 1875 428 2675 428 
Q 3081 428 3442 575 
Q 3803 722 4122 1019 
L 4122 359 
Q 3791 134 3420 21 
Q 3050 -91 2638 -91 
Q 1578 -91 968 557 
Q 359 1206 359 2328 
Q 359 3453 968 4101 
Q 1578 4750 2638 4750 
Q 3056 4750 3426 4639 
Q 3797 4528 4122 4306 
z
" transform="scale(0.015625)"/>
      <path id="DejaVuSans-54" d="M -19 4666 
L 3928 4666 
L 3928 4134 
L 2272 4134 
L 2272 0 
L 1638 0 
L 1638 4134 
L -19 4134 
L -19 4666 
z
" transform="scale(0.015625)"/>
      <path id="DejaVuSans-50" d="M 1259 4147 
L 1259 2394 
L 2053 2394 
Q 2494 2394 2734 2622 
Q 2975 2850 2975 3272 
Q 2975 3691 2734 3919 
Q 2494 4147 2053 4147 
L 1259 4147 
z
M 628 4666 
L 2053 4666 
Q 2838 4666 3239 4311 
Q 3641 3956 3641 3272 
Q 3641 2581 3239 2228 
Q 2838 1875 2053 1875 
L 1259 1875 
L 1259 0 
L 628 0 
L 628 4666 
z
" transform="scale(0.015625)"/>
     </defs>
     <use xlink:href="#DejaVuSans-4e"/>
     <use xlink:href="#DejaVuSans-65" x="74.804688"/>
     <use xlink:href="#DejaVuSans-30" x="136.328125"/>
     <use xlink:href="#DejaVuSans-72" x="199.951172"/>
     <use xlink:href="#DejaVuSans-2d" x="234.689453"/>
     <use xlink:href="#DejaVuSans-4d" x="270.773438"/>
     <use xlink:href="#DejaVuSans-53" x="357.052734"/>
     <use xlink:href="#DejaVuSans-43" x="420.529297"/>
     <use xlink:href="#DejaVuSans-2d" x="490.353516"/>
     <use xlink:href="#DejaVuSans-54" x="517.3125"/>
     <use xlink:href="#DejaVuSans-2d" x="569.271484"/>
     <use xlink:href="#DejaVuSans-50" x="605.355469"/>
     <use xlink:href="#DejaVuSans-32" x="665.658203"/>
     <use xlink:href="#DejaVuSans-2d" x="729.28125"/>
     <use xlink:href="#DejaVuSans-53" x="765.365234"/>
     <use xlink:href="#DejaVuSans-34" x="828.841797"/>
    </g>
   </g>
  </g>
  <g id="axes_2">
   <g id="patch_7">
    <path d="M 225.72 192.24 
L 234.036 192.24 
L 234.036 25.92 
L 225.72 25.92 
z
" style="fill: #ffffff"/>
   </g>
   <g id="QuadMesh_1">
    <path d="M 225.72 192.24 
L 234.036 192.24 
L 234.036 180.36 
L 225.72 180.36 
L 225.72 192.24 
" clip-path="url(#p75b29d0802)" style="fill: #e7e419"/>
    <path d="M 225.72 180.36 
L 234.036 180.36 
L 234.036 168.48 
L 225.72 168.48 
L 225.72 180.36 
" clip-path="url(#p75b29d0802)" style="fill: #b8de29"/>
    <path d="M 225.72 168.48 
L 234.036 168.48 
L 234.036 156.6 
L 225.72 156.6 
L 225.72 168.48 
" clip-path="url(#p75b29d0802)" style="fill: #89d548"/>
    <path d="M 225.72 156.6 
L 234.036 156.6 
L 234.036 144.72 
L 225.72 144.72 
L 225.72 156.6 
" clip-path="url(#p75b29d0802)" style="fill: #5cc863"/>
    <path d="M 225.72 144.72 
L 234.036 144.72 
L 234.036 132.84 
L 225.72 132.84 
L 225.72 144.72 
" clip-path="url(#p75b29d0802)" style="fill: #3aba76"/>
    <path d="M 225.72 132.84 
L 234.036 132.84 
L 234.036 120.96 
L 225.72 120.96 
L 225.72 132.84 
" clip-path="url(#p75b29d0802)" style="fill: #24aa83"/>
    <path d="M 225.72 120.96 
L 234.036 120.96 
L 234.036 109.08 
L 225.72 109.08 
L 225.72 120.96 
" clip-path="url(#p75b29d0802)" style="fill: #1f998a"/>
    <path d="M 225.72 109.08 
L 234.036 109.08 
L 234.036 97.2 
L 225.72 97.2 
L 225.72 109.08 
" clip-path="url(#p75b29d0802)" style="fill: #24878e"/>
    <path d="M 225.72 97.2 
L 234.036 97.2 
L 234.036 85.32 
L 225.72 85.32 
L 225.72 97.2 
" clip-path="url(#p75b29d0802)" style="fill: #2a768e"/>
    <path d="M 225.72 85.32 
L 234.036 85.32 
L 234.036 73.44 
L 225.72 73.44 
L 225.72 85.32 
" clip-path="url(#p75b29d0802)" style="fill: #32658e"/>
    <path d="M 225.72 73.44 
L 234.036 73.44 
L 234.036 61.56 
L 225.72 61.56 
L 225.72 73.44 
" clip-path="url(#p75b29d0802)" style="fill: #3b518b"/>
    <path d="M 225.72 61.56 
L 234.036 61.56 
L 234.036 49.68 
L 225.72 49.68 
L 225.72 61.56 
" clip-path="url(#p75b29d0802)" style="fill: #433d84"/>
    <path d="M 225.72 49.68 
L 234.036 49.68 
L 234.036 37.8 
L 225.72 37.8 
L 225.72 49.68 
" clip-path="url(#p75b29d0802)" style="fill: #482677"/>
    <path d="M 225.72 37.8 
L 234.036 37.8 
L 234.036 25.92 
L 225.72 25.92 
L 225.72 37.8 
" clip-path="url(#p75b29d0802)" style="fill: #470e61"/>
   </g>
   <g id="matplotlib.axis_3"/>
   <g id="matplotlib.axis_4">
    <g id="ytick_6">
     <g id="line2d_10">
      <defs>
       <path id="md29dc62b6a" d="M 0 0 
L 3.5 0 
" style="stroke: #000000; stroke-width: 0.8"/>
      </defs>
      <g>
       <use xlink:href="#md29dc62b6a" x="234.036" y="192.24" style="stroke: #000000; stroke-width: 0.8"/>
      </g>
     </g>
     <g id="text_15">
      <!-- $\mathdefault{0}$ -->
      <g transform="translate(241.036 196.039219) scale(0.1 -0.1)">
       <use xlink:href="#DejaVuSans-30" transform="translate(0 0.78125)"/>
      </g>
     </g>
    </g>
    <g id="ytick_7">
     <g id="line2d_11">
      <g>
       <use xlink:href="#md29dc62b6a" x="234.036" y="168.48" style="stroke: #000000; stroke-width: 0.8"/>
      </g>
     </g>
     <g id="text_16">
      <!-- $\mathdefault{4}$ -->
      <g transform="translate(241.036 172.279219) scale(0.1 -0.1)">
       <use xlink:href="#DejaVuSans-34" transform="translate(0 0.09375)"/>
      </g>
     </g>
    </g>
    <g id="ytick_8">
     <g id="line2d_12">
      <g>
       <use xlink:href="#md29dc62b6a" x="234.036" y="144.72" style="stroke: #000000; stroke-width: 0.8"/>
      </g>
     </g>
     <g id="text_17">
      <!-- $\mathdefault{8}$ -->
      <g transform="translate(241.036 148.519219) scale(0.1 -0.1)">
       <use xlink:href="#DejaVuSans-38" transform="translate(0 0.78125)"/>
      </g>
     </g>
    </g>
    <g id="ytick_9">
     <g id="line2d_13">
      <g>
       <use xlink:href="#md29dc62b6a" x="234.036" y="120.96" style="stroke: #000000; stroke-width: 0.8"/>
      </g>
     </g>
     <g id="text_18">
      <!-- $\mathdefault{12}$ -->
      <g transform="translate(241.036 124.759219) scale(0.1 -0.1)">
       <use xlink:href="#DejaVuSans-31" transform="translate(0 0.78125)"/>
       <use xlink:href="#DejaVuSans-32" transform="translate(63.623047 0.78125)"/>
      </g>
     </g>
    </g>
    <g id="ytick_10">
     <g id="line2d_14">
      <g>
       <use xlink:href="#md29dc62b6a" x="234.036" y="97.2" style="stroke: #000000; stroke-width: 0.8"/>
      </g>
     </g>
     <g id="text_19">
      <!-- $\mathdefault{16}$ -->
      <g transform="translate(241.036 100.999219) scale(0.1 -0.1)">
       <use xlink:href="#DejaVuSans-31" transform="translate(0 0.78125)"/>
       <use xlink:href="#DejaVuSans-36" transform="translate(63.623047 0.78125)"/>
      </g>
     </g>
    </g>
    <g id="ytick_11">
     <g id="line2d_15">
      <g>
       <use xlink:href="#md29dc62b6a" x="234.036" y="73.44" style="stroke: #000000; stroke-width: 0.8"/>
      </g>
     </g>
     <g id="text_20">
      <!-- $\mathdefault{20}$ -->
      <g transform="translate(241.036 77.239219) scale(0.1 -0.1)">
       <use xlink:href="#DejaVuSans-32" transform="translate(0 0.78125)"/>
       <use xlink:href="#DejaVuSans-30" transform="translate(63.623047 0.78125)"/>
      </g>
     </g>
    </g>
    <g id="ytick_12">
     <g id="line2d_16">
      <g>
       <use xlink:href="#md29dc62b6a" x="234.036" y="49.68" style="stroke: #000000; stroke-width: 0.8"/>
      </g>
     </g>
     <g id="text_21">
      <!-- $\mathdefault{24}$ -->
      <g transform="translate(241.036 53.479219) scale(0.1 -0.1)">
       <use xlink:href="#DejaVuSans-32" transform="translate(0 0.78125)"/>
       <use xlink:href="#DejaVuSans-34" transform="translate(63.623047 0.78125)"/>
      </g>
     </g>
    </g>
    <g id="ytick_13">
     <g id="line2d_17">
      <g>
       <use xlink:href="#md29dc62b6a" x="234.036" y="25.92" style="stroke: #000000; stroke-width: 0.8"/>
      </g>
     </g>
     <g id="text_22">
      <!-- $\mathdefault{28}$ -->
      <g transform="translate(241.036 29.719219) scale(0.1 -0.1)">
       <use xlink:href="#DejaVuSans-32" transform="translate(0 0.78125)"/>
       <use xlink:href="#DejaVuSans-38" transform="translate(63.623047 0.78125)"/>
      </g>
     </g>
    </g>
    <g id="text_23">
     <!-- $\Delta$ log likelihood -->
     <g transform="translate(266.956 154.98) rotate(-90) scale(0.12 -0.12)">
      <defs>
       <path id="DejaVuSans-394" d="M 2188 4044 
L 906 525 
L 3472 525 
L 2188 4044 
z
M 50 0 
L 1831 4666 
L 2547 4666 
L 4325 0 
L 50 0 
z
" transform="scale(0.015625)"/>
       <path id="DejaVuSans-67" d="M 2906 1791 
Q 2906 2416 2648 2759 
Q 2391 3103 1925 3103 
Q 1463 3103 1205 2759 
Q 947 2416 947 1791 
Q 947 1169 1205 825 
Q 1463 481 1925 481 
Q 2391 481 2648 825 
Q 2906 1169 2906 1791 
z
M 3481 434 
Q 3481 -459 3084 -895 
Q 2688 -1331 1869 -1331 
Q 1566 -1331 1297 -1286 
Q 1028 -1241 775 -1147 
L 775 -588 
Q 1028 -725 1275 -790 
Q 1522 -856 1778 -856 
Q 2344 -856 2625 -561 
Q 2906 -266 2906 331 
L 2906 616 
Q 2728 306 2450 153 
Q 2172 0 1784 0 
Q 1141 0 747 490 
Q 353 981 353 1791 
Q 353 2603 747 3093 
Q 1141 3584 1784 3584 
Q 2172 3584 2450 3431 
Q 2728 3278 2906 2969 
L 2906 3500 
L 3481 3500 
L 3481 434 
z
" transform="scale(0.015625)"/>
       <path id="DejaVuSans-6b" d="M 581 4863 
L 1159 4863 
L 1159 1991 
L 2875 3500 
L 3609 3500 
L 1753 1863 
L 3688 0 
L 2938 0 
L 1159 1709 
L 1159 0 
L 581 0 
L 581 4863 
z
" transform="scale(0.015625)"/>
       <path id="DejaVuSans-68" d="M 3513 2113 
L 3513 0 
L 2938 0 
L 2938 2094 
Q 2938 2591 2744 2837 
Q 2550 3084 2163 3084 
Q 1697 3084 1428 2787 
Q 1159 2491 1159 1978 
L 1159 0 
L 581 0 
L 581 4863 
L 1159 4863 
L 1159 2956 
Q 1366 3272 1645 3428 
Q 1925 3584 2291 3584 
Q 2894 3584 3203 3211 
Q 3513 2838 3513 2113 
z
" transform="scale(0.015625)"/>
      </defs>
      <use xlink:href="#DejaVuSans-394" transform="translate(0 0.015625)"/>
      <use xlink:href="#DejaVuSans-20" transform="translate(68.408203 0.015625)"/>
      <use xlink:href="#DejaVuSans-6c" transform="translate(100.195312 0.015625)"/>
      <use xlink:href="#DejaVuSans-6f" transform="translate(127.978516 0.015625)"/>
      <use xlink:href="#DejaVuSans-67" transform="translate(189.160156 0.015625)"/>
      <use xlink:href="#DejaVuSans-20" transform="translate(252.636719 0.015625)"/>
      <use xlink:href="#DejaVuSans-6c" transform="translate(284.423828 0.015625)"/>
      <use xlink:href="#DejaVuSans-69" transform="translate(312.207031 0.015625)"/>
      <use xlink:href="#DejaVuSans-6b" transform="translate(339.990234 0.015625)"/>
      <use xlink:href="#DejaVuSans-65" transform="translate(397.900391 0.015625)"/>
      <use xlink:href="#DejaVuSans-6c" transform="translate(459.423828 0.015625)"/>
      <use xlink:href="#DejaVuSans-69" transform="translate(487.207031 0.015625)"/>
      <use xlink:href="#DejaVuSans-68" transform="translate(514.990234 0.015625)"/>
      <use xlink:href="#DejaVuSans-6f" transform="translate(578.369141 0.015625)"/>
      <use xlink:href="#DejaVuSans-6f" transform="translate(639.550781 0.015625)"/>
      <use xlink:href="#DejaVuSans-64" transform="translate(700.732422 0.015625)"/>
     </g>
    </g>
    <g id="text_24">
     <!-- $\times\mathdefault{10^{3}}\mathdefault{}$ -->
     <g transform="translate(208.036 22.92) scale(0.1 -0.1)">
      <defs>
       <path id="DejaVuSans-d7" d="M 4488 3438 
L 3059 2003 
L 4488 575 
L 4116 197 
L 2681 1631 
L 1247 197 
L 878 575 
L 2303 2003 
L 878 3438 
L 1247 3816 
L 2681 2381 
L 4116 3816 
L 4488 3438 
z
" transform="scale(0.015625)"/>
      </defs>
      <use xlink:href="#DejaVuSans-d7" transform="translate(0 0.765625)"/>
      <use xlink:href="#DejaVuSans-31" transform="translate(83.789062 0.765625)"/>
      <use xlink:href="#DejaVuSans-30" transform="translate(147.412109 0.765625)"/>
      <use xlink:href="#DejaVuSans-33" transform="translate(211.992188 39.046875) scale(0.7)"/>
     </g>
    </g>
   </g>
   <g id="LineCollection_1"/>
   <g id="patch_8">
    <path d="M 225.72 192.24 
L 229.878 192.24 
L 234.036 192.24 
L 234.036 25.92 
L 229.878 25.92 
L 225.72 25.92 
L 225.72 192.24 
z
" style="fill: none; stroke: #000000; stroke-width: 0.8; stroke-linejoin: miter; stroke-linecap: square"/>
   </g>
  </g>
 </g>
 <defs>
  <clipPath id="p001f2485d7">
   <rect x="36" y="25.92" width="178.56" height="166.32"/>
  </clipPath>
  <clipPath id="p75b29d0802">
   <rect x="225.72" y="25.92" width="8.316" height="166.32"/>
  </clipPath>
 </defs>
</svg>
