<?xml version="1.0" encoding="utf-8" standalone="no"?>
<!DOCTYPE svg PUBLIC "-//W3C//DTD SVG 1.1//EN"
  "http://www.w3.org/Graphics/SVG/1.1/DTD/svg11.dtd">
<svg xmlns:xlink="http://www.w3.org/1999/xlink" width="288pt" height="216pt" viewBox="0 0 288 216" xmlns="http://www.w3.org/2000/svg" version="1.1">
 <metadata>
  <rdf:RDF xmlns:dc="http://purl.org/dc/elements/1.1/" xmlns:cc="http://creativecommons.org/ns#" xmlns:rdf="http://www.w3.org/1999/02/22-rdf-syntax-ns#">
   <cc:Work>
    <dc:type rdf:resource="http://purl.org/dc/dcmitype/StillImage"/>
    <dc:date>2024-12-14T18:10:20.206620</dc:date>
    <dc:format>image/svg+xml</dc:format>
    <dc:creator>
     <cc:Agent>
      <dc:title>Matplotlib v3.8.4, https://matplotlib.org/</dc:title>
     </cc:Agent>
    </dc:creator>
   </cc:Work>
  </rdf:RDF>
 </metadata>
 <defs>
  <style type="text/css">*{stroke-linejoin: round; stroke-linecap: butt}</style>
 </defs>
 <g id="figure_1">
  <g id="patch_1">
   <path d="M 0 216 
L 288 216 
L 288 0 
L 0 0 
z
" style="fill: #ffffff"/>
  </g>
  <g id="axes_1">
   <g id="patch_2">
    <path d="M 36 192.24 
L 214.56 192.24 
L 214.56 25.92 
L 36 25.92 
z
" style="fill: #ffffff"/>
   </g>
   <g id="QuadContourSet_1">
    <path d="M 47.596983 114.624 
L 44.208787 109.08 
L 47.20603 103.536 
L 47.904 103.104956 
L 53.856 101.603136 
L 59.808 101.016805 
L 65.76 100.875496 
L 71.712 100.969677 
L 77.664 101.194772 
L 83.616 101.494285 
L 89.568 101.835901 
L 95.52 102.200345 
L 101.472 102.575769 
L 107.424 102.954736 
L 113.376 103.332527 
L 116.617512 103.536 
L 119.328 104.045592 
L 125.28 105.14642 
L 131.232 106.225567 
L 137.184 107.280996 
L 143.136 108.311647 
L 147.68435 109.08 
L 143.136 109.759695 
L 137.184 110.671423 
L 131.232 111.605069 
L 125.28 112.559697 
L 119.328 113.533504 
L 113.376 114.523404 
L 112.777832 114.624 
L 107.424 114.922444 
L 101.472 115.255264 
L 95.52 115.584972 
L 89.568 115.905038 
L 83.616 116.205055 
L 77.664 116.468097 
L 71.712 116.665782 
L 65.76 116.748494 
L 59.808 116.624393 
L 53.856 116.109459 
L 47.904 114.790516 
z
" clip-path="url(#pd80c7efe06)" style="fill: #eae51a"/>
    <path d="M 41.366249 114.624 
L 40.170896 109.08 
L 41.228321 103.536 
L 41.952 102.269215 
L 47.904 98.593451 
L 50.287667 97.992 
L 53.856 97.437969 
L 59.808 97.077177 
L 65.76 96.990224 
L 71.712 97.048177 
L 77.664 97.186687 
L 83.616 97.370989 
L 89.568 97.581198 
L 95.52 97.805455 
L 100.326321 97.992 
L 101.472 98.064264 
L 107.424 98.443231 
L 113.376 98.821023 
L 119.328 99.194635 
L 125.28 99.562174 
L 131.232 99.922473 
L 137.184 100.274854 
L 143.136 100.618962 
L 149.088 100.954664 
L 155.04 101.281973 
L 160.992 101.601003 
L 166.944 101.911932 
L 172.896 102.21498 
L 178.848 102.510393 
L 184.8 102.79843 
L 190.752 103.079357 
L 196.704 103.35344 
L 200.76606 103.536 
L 202.656 103.790404 
L 208.608 104.572652 
L 214.56 105.336693 
L 214.56 109.08 
L 214.56 112.391378 
L 208.608 113.067259 
L 202.656 113.759246 
L 196.704 114.467996 
L 195.42536 114.624 
L 190.752 114.812997 
L 184.8 115.059716 
L 178.848 115.312679 
L 172.896 115.572119 
L 166.944 115.838265 
L 160.992 116.111332 
L 155.04 116.391514 
L 149.088 116.678967 
L 143.136 116.97379 
L 137.184 117.275996 
L 131.232 117.585467 
L 125.28 117.901893 
L 119.328 118.224677 
L 113.376 118.552794 
L 107.424 118.884582 
L 101.472 119.217402 
L 95.52 119.54711 
L 89.568 119.867176 
L 83.616 120.167194 
L 83.597751 120.168 
L 77.664 120.320714 
L 71.712 120.435836 
L 65.76 120.484004 
L 59.808 120.411733 
L 54.970297 120.168 
L 53.856 120.071597 
L 47.904 118.752654 
L 41.952 115.524489 
z
M 47.904 114.790516 
L 53.856 116.109459 
L 59.808 116.624393 
L 65.76 116.748494 
L 71.712 116.665782 
L 77.664 116.468097 
L 83.616 116.205055 
L 89.568 115.905038 
L 95.52 115.584972 
L 101.472 115.255264 
L 107.424 114.922444 
L 112.777832 114.624 
L 113.376 114.523404 
L 119.328 113.533504 
L 125.28 112.559697 
L 131.232 111.605069 
L 137.184 110.671423 
L 143.136 109.759695 
L 147.68435 109.08 
L 143.136 108.311647 
L 137.184 107.280996 
L 131.232 106.225567 
L 125.28 105.14642 
L 119.328 104.045592 
L 116.617512 103.536 
L 113.376 103.332527 
L 107.424 102.954736 
L 101.472 102.575769 
L 95.52 102.200345 
L 89.568 101.835901 
L 83.616 101.494285 
L 77.664 101.194772 
L 71.712 100.969677 
L 65.76 100.875496 
L 59.808 101.016805 
L 53.856 101.603136 
L 47.904 103.104956 
L 47.20603 103.536 
L 44.208787 109.08 
L 47.596983 114.624 
z
" clip-path="url(#pd80c7efe06)" style="fill: #c0df25"/>
    <path d="M 38.788952 114.624 
L 37.593599 109.08 
L 38.651024 103.536 
L 41.818157 97.992 
L 41.952 97.847833 
L 47.904 95.585995 
L 53.856 94.661869 
L 59.808 94.301077 
L 65.76 94.214124 
L 71.712 94.272077 
L 77.664 94.410586 
L 83.616 94.594889 
L 89.568 94.805098 
L 95.52 95.029354 
L 101.472 95.260366 
L 107.424 95.493559 
L 113.376 95.726029 
L 119.328 95.955927 
L 125.28 96.182087 
L 131.232 96.403793 
L 137.184 96.620627 
L 143.136 96.83237 
L 149.088 97.038939 
L 155.04 97.240345 
L 160.992 97.436656 
L 166.944 97.627983 
L 172.896 97.81446 
L 178.709213 97.992 
L 178.848 97.998888 
L 184.8 98.286926 
L 190.752 98.567853 
L 196.704 98.841935 
L 202.656 99.109434 
L 208.608 99.370607 
L 214.56 99.625701 
L 214.56 103.536 
L 214.56 105.336693 
L 208.608 104.572652 
L 202.656 103.790404 
L 200.76606 103.536 
L 196.704 103.35344 
L 190.752 103.079357 
L 184.8 102.79843 
L 178.848 102.510393 
L 172.896 102.21498 
L 166.944 101.911932 
L 160.992 101.601003 
L 155.04 101.281973 
L 149.088 100.954664 
L 143.136 100.618962 
L 137.184 100.274854 
L 131.232 99.922473 
L 125.28 99.562174 
L 119.328 99.194635 
L 113.376 98.821023 
L 107.424 98.443231 
L 101.472 98.064264 
L 100.326321 97.992 
L 95.52 97.805455 
L 89.568 97.581198 
L 83.616 97.370989 
L 77.664 97.186687 
L 71.712 97.048177 
L 65.76 96.990224 
L 59.808 97.077177 
L 53.856 97.437969 
L 50.287667 97.992 
L 47.904 98.593451 
L 41.952 102.269215 
L 41.228321 103.536 
L 40.170896 109.08 
L 41.366249 114.624 
L 41.952 115.524489 
L 47.904 118.752654 
L 53.856 120.071597 
L 54.970297 120.168 
L 59.808 120.411733 
L 65.76 120.484004 
L 71.712 120.435836 
L 77.664 120.320714 
L 83.597751 120.168 
L 83.616 120.167194 
L 89.568 119.867176 
L 95.52 119.54711 
L 101.472 119.217402 
L 107.424 118.884582 
L 113.376 118.552794 
L 119.328 118.224677 
L 125.28 117.901893 
L 131.232 117.585467 
L 137.184 117.275996 
L 143.136 116.97379 
L 149.088 116.678967 
L 155.04 116.391514 
L 160.992 116.111332 
L 166.944 115.838265 
L 172.896 115.572119 
L 178.848 115.312679 
L 184.8 115.059716 
L 190.752 114.812997 
L 195.42536 114.624 
L 196.704 114.467996 
L 202.656 113.759246 
L 208.608 113.067259 
L 214.56 112.391378 
L 214.56 114.624 
L 214.56 117.846102 
L 208.608 118.070133 
L 202.656 118.299502 
L 196.704 118.534428 
L 190.752 118.775136 
L 184.8 119.021854 
L 178.848 119.274817 
L 172.896 119.534258 
L 166.944 119.800404 
L 160.992 120.073471 
L 158.983882 120.168 
L 155.04 120.276115 
L 149.088 120.443514 
L 143.136 120.615205 
L 137.184 120.791196 
L 131.232 120.971418 
L 125.28 121.155689 
L 119.328 121.343663 
L 113.376 121.534744 
L 107.424 121.727962 
L 101.472 121.921781 
L 95.52 122.113787 
L 89.568 122.300178 
L 83.616 122.474894 
L 77.664 122.628078 
L 71.712 122.7432 
L 65.76 122.791368 
L 59.808 122.719097 
L 53.856 122.419224 
L 47.904 121.651133 
L 43.208296 120.168 
L 41.952 119.486627 
z
" clip-path="url(#pd80c7efe06)" style="fill: #95d840"/>
    <path d="M 39.817923 120.168 
L 36.211655 114.624 
L 36 113.642353 
L 36 109.08 
L 36 103.922544 
L 36.073727 103.536 
L 39.24086 97.992 
L 41.952 95.071732 
L 47.904 92.809895 
L 50.234849 92.448 
L 53.856 92.035108 
L 59.808 91.770149 
L 65.76 91.706293 
L 71.712 91.748853 
L 77.664 91.850571 
L 83.616 91.985919 
L 89.568 92.140293 
L 95.52 92.304982 
L 100.537611 92.448 
L 101.472 92.484266 
L 107.424 92.717459 
L 113.376 92.949929 
L 119.328 93.179826 
L 125.28 93.405987 
L 131.232 93.627693 
L 137.184 93.844526 
L 143.136 94.056269 
L 149.088 94.262839 
L 155.04 94.464245 
L 160.992 94.660556 
L 166.944 94.851882 
L 172.896 95.038359 
L 178.848 95.220138 
L 184.8 95.397379 
L 190.752 95.570244 
L 196.704 95.738897 
L 202.656 95.9035 
L 208.608 96.064209 
L 214.56 96.221178 
L 214.56 97.992 
L 214.56 99.625701 
L 208.608 99.370607 
L 202.656 99.109434 
L 196.704 98.841935 
L 190.752 98.567853 
L 184.8 98.286926 
L 178.848 97.998888 
L 178.709213 97.992 
L 172.896 97.81446 
L 166.944 97.627983 
L 160.992 97.436656 
L 155.04 97.240345 
L 149.088 97.038939 
L 143.136 96.83237 
L 137.184 96.620627 
L 131.232 96.403793 
L 125.28 96.182087 
L 119.328 95.955927 
L 113.376 95.726029 
L 107.424 95.493559 
L 101.472 95.260366 
L 95.52 95.029354 
L 89.568 94.805098 
L 83.616 94.594889 
L 77.664 94.410586 
L 71.712 94.272077 
L 65.76 94.214124 
L 59.808 94.301077 
L 53.856 94.661869 
L 47.904 95.585995 
L 41.952 97.847833 
L 41.818157 97.992 
L 38.651024 103.536 
L 37.593599 109.08 
L 38.788952 114.624 
L 41.952 119.486627 
L 43.208296 120.168 
L 47.904 121.651133 
L 53.856 122.419224 
L 59.808 122.719097 
L 65.76 122.791368 
L 71.712 122.7432 
L 77.664 122.628078 
L 83.616 122.474894 
L 89.568 122.300178 
L 95.52 122.113787 
L 101.472 121.921781 
L 107.424 121.727962 
L 113.376 121.534744 
L 119.328 121.343663 
L 125.28 121.155689 
L 131.232 120.971418 
L 137.184 120.791196 
L 143.136 120.615205 
L 149.088 120.443514 
L 155.04 120.276115 
L 158.983882 120.168 
L 160.992 120.073471 
L 166.944 119.800404 
L 172.896 119.534258 
L 178.848 119.274817 
L 184.8 119.021854 
L 190.752 118.775136 
L 196.704 118.534428 
L 202.656 118.299502 
L 208.608 118.070133 
L 214.56 117.846102 
L 214.56 120.168 
L 214.56 121.123199 
L 208.608 121.253664 
L 202.656 121.387238 
L 196.704 121.524048 
L 190.752 121.664225 
L 184.8 121.807902 
L 178.848 121.955216 
L 172.896 122.106302 
L 166.944 122.261293 
L 160.992 122.420315 
L 155.04 122.583479 
L 149.088 122.750878 
L 143.136 122.92257 
L 137.184 123.09856 
L 131.232 123.278782 
L 125.28 123.463054 
L 119.328 123.651028 
L 113.376 123.842108 
L 107.424 124.035326 
L 101.472 124.229145 
L 95.52 124.421151 
L 89.568 124.607542 
L 83.616 124.782259 
L 77.664 124.935442 
L 71.712 125.050564 
L 65.76 125.098732 
L 59.808 125.026461 
L 53.856 124.726588 
L 47.904 123.958497 
L 41.952 122.078564 
z
" clip-path="url(#pd80c7efe06)" style="fill: #6ece58"/>
    <path d="M 37.240626 120.168 
L 36 118.260757 
L 36 114.624 
L 36 113.642353 
L 36.211655 114.624 
L 39.817923 120.168 
L 41.952 122.078564 
L 47.904 123.958497 
L 53.856 124.726588 
L 59.808 125.026461 
L 65.76 125.098732 
L 71.712 125.050564 
L 77.664 124.935442 
L 83.616 124.782259 
L 89.568 124.607542 
L 95.52 124.421151 
L 101.472 124.229145 
L 107.424 124.035326 
L 113.376 123.842108 
L 119.328 123.651028 
L 125.28 123.463054 
L 131.232 123.278782 
L 137.184 123.09856 
L 143.136 122.92257 
L 149.088 122.750878 
L 155.04 122.583479 
L 160.992 122.420315 
L 166.944 122.261293 
L 172.896 122.106302 
L 178.848 121.955216 
L 184.8 121.807902 
L 190.752 121.664225 
L 196.704 121.524048 
L 202.656 121.387238 
L 208.608 121.253664 
L 214.56 121.123199 
L 214.56 123.430563 
L 208.608 123.561028 
L 202.656 123.694603 
L 196.704 123.831413 
L 190.752 123.971589 
L 184.8 124.115267 
L 178.848 124.26258 
L 172.896 124.413666 
L 166.944 124.568657 
L 160.992 124.727679 
L 155.04 124.890844 
L 149.088 125.058242 
L 143.136 125.229934 
L 137.184 125.405924 
L 131.232 125.586146 
L 127.166902 125.712 
L 125.28 125.752311 
L 119.328 125.882022 
L 113.376 126.013876 
L 107.424 126.147205 
L 101.472 126.280949 
L 95.52 126.413443 
L 89.568 126.542061 
L 83.616 126.662624 
L 77.664 126.768327 
L 71.712 126.847767 
L 65.76 126.881005 
L 59.808 126.831135 
L 53.856 126.624208 
L 47.904 126.09419 
L 46.150436 125.712 
L 41.952 124.385929 
z
M 36 103.536 
L 36 99.153553 
L 36.663563 97.992 
L 41.810543 92.448 
L 41.952 92.336104 
L 47.904 90.675055 
L 53.856 89.996394 
L 59.808 89.731435 
L 65.76 89.667579 
L 71.712 89.710138 
L 77.664 89.811857 
L 83.616 89.947205 
L 89.568 90.101579 
L 95.52 90.266268 
L 101.472 90.435919 
L 107.424 90.607171 
L 113.376 90.777892 
L 119.328 90.946725 
L 125.28 91.112813 
L 131.232 91.275629 
L 137.184 91.434868 
L 143.136 91.590367 
L 149.088 91.742068 
L 155.04 91.889977 
L 160.992 92.034144 
L 166.944 92.17465 
L 172.896 92.311595 
L 178.848 92.44509 
L 178.981051 92.448 
L 184.8 92.621278 
L 190.752 92.794143 
L 196.704 92.962797 
L 202.656 93.127399 
L 208.608 93.288109 
L 214.56 93.445078 
L 214.56 96.221178 
L 208.608 96.064209 
L 202.656 95.9035 
L 196.704 95.738897 
L 190.752 95.570244 
L 184.8 95.397379 
L 178.848 95.220138 
L 172.896 95.038359 
L 166.944 94.851882 
L 160.992 94.660556 
L 155.04 94.464245 
L 149.088 94.262839 
L 143.136 94.056269 
L 137.184 93.844526 
L 131.232 93.627693 
L 125.28 93.405987 
L 119.328 93.179826 
L 113.376 92.949929 
L 107.424 92.717459 
L 101.472 92.484266 
L 100.537611 92.448 
L 95.52 92.304982 
L 89.568 92.140293 
L 83.616 91.985919 
L 77.664 91.850571 
L 71.712 91.748853 
L 65.76 91.706293 
L 59.808 91.770149 
L 53.856 92.035108 
L 50.234849 92.448 
L 47.904 92.809895 
L 41.952 95.071732 
L 39.24086 97.992 
L 36.073727 103.536 
L 36 103.922544 
z
" clip-path="url(#pd80c7efe06)" style="fill: #4cc26c"/>
    <path d="M 40.855908 125.712 
L 36 121.364675 
L 36 120.168 
L 36 118.260757 
L 37.240626 120.168 
L 41.952 124.385929 
L 46.150436 125.712 
L 47.904 126.09419 
L 53.856 126.624208 
L 59.808 126.831135 
L 65.76 126.881005 
L 71.712 126.847767 
L 77.664 126.768327 
L 83.616 126.662624 
L 89.568 126.542061 
L 95.52 126.413443 
L 101.472 126.280949 
L 107.424 126.147205 
L 113.376 126.013876 
L 119.328 125.882022 
L 125.28 125.752311 
L 127.166902 125.712 
L 131.232 125.586146 
L 137.184 125.405924 
L 143.136 125.229934 
L 149.088 125.058242 
L 155.04 124.890844 
L 160.992 124.727679 
L 166.944 124.568657 
L 172.896 124.413666 
L 178.848 124.26258 
L 184.8 124.115267 
L 190.752 123.971589 
L 196.704 123.831413 
L 202.656 123.694603 
L 208.608 123.561028 
L 214.56 123.430563 
L 214.56 125.712 
L 214.56 125.729891 
L 208.608 125.819918 
L 202.656 125.91209 
L 196.704 126.006496 
L 190.752 126.103224 
L 184.8 126.202368 
L 178.848 126.304021 
L 172.896 126.408278 
L 166.944 126.515229 
L 160.992 126.624961 
L 155.04 126.737552 
L 149.088 126.853065 
L 143.136 126.97154 
L 137.184 127.092982 
L 131.232 127.217343 
L 125.28 127.344499 
L 119.328 127.47421 
L 113.376 127.606064 
L 107.424 127.739393 
L 101.472 127.873137 
L 95.52 128.005631 
L 89.568 128.134249 
L 83.616 128.254812 
L 77.664 128.360515 
L 71.712 128.439955 
L 65.76 128.473193 
L 59.808 128.423323 
L 53.856 128.216396 
L 47.904 127.686378 
L 41.952 126.389137 
z
M 36 97.992 
L 36 95.930647 
L 39.233246 92.448 
L 41.952 90.29739 
L 47.904 88.63634 
L 53.856 87.95768 
L 59.808 87.692721 
L 65.76 87.628865 
L 71.712 87.671424 
L 77.664 87.773143 
L 83.616 87.908491 
L 89.568 88.062865 
L 95.52 88.227554 
L 101.472 88.397205 
L 107.424 88.568457 
L 113.376 88.739178 
L 119.328 88.908011 
L 125.28 89.074099 
L 131.232 89.236915 
L 137.184 89.396153 
L 143.136 89.551653 
L 149.088 89.703354 
L 155.04 89.851263 
L 160.992 89.99543 
L 166.944 90.135936 
L 172.896 90.272881 
L 178.848 90.406376 
L 184.8 90.536538 
L 190.752 90.663487 
L 196.704 90.787342 
L 202.656 90.908223 
L 208.608 91.026245 
L 214.56 91.14152 
L 214.56 92.448 
L 214.56 93.445078 
L 208.608 93.288109 
L 202.656 93.127399 
L 196.704 92.962797 
L 190.752 92.794143 
L 184.8 92.621278 
L 178.981051 92.448 
L 178.848 92.44509 
L 172.896 92.311595 
L 166.944 92.17465 
L 160.992 92.034144 
L 155.04 91.889977 
L 149.088 91.742068 
L 143.136 91.590367 
L 137.184 91.434868 
L 131.232 91.275629 
L 125.28 91.112813 
L 119.328 90.946725 
L 113.376 90.777892 
L 107.424 90.607171 
L 101.472 90.435919 
L 95.52 90.266268 
L 89.568 90.101579 
L 83.616 89.947205 
L 77.664 89.811857 
L 71.712 89.710138 
L 65.76 89.667579 
L 59.808 89.731435 
L 53.856 89.996394 
L 47.904 90.675055 
L 41.952 92.336104 
L 41.810543 92.448 
L 36.663563 97.992 
L 36 99.153553 
z
" clip-path="url(#pd80c7efe06)" style="fill: #31b57b"/>
    <path d="M 38.278611 125.712 
L 36 123.672039 
L 36 121.364675 
L 40.855908 125.712 
L 41.952 126.389137 
L 47.904 127.686378 
L 53.856 128.216396 
L 59.808 128.423323 
L 65.76 128.473193 
L 71.712 128.439955 
L 77.664 128.360515 
L 83.616 128.254812 
L 89.568 128.134249 
L 95.52 128.005631 
L 101.472 127.873137 
L 107.424 127.739393 
L 113.376 127.606064 
L 119.328 127.47421 
L 125.28 127.344499 
L 131.232 127.217343 
L 137.184 127.092982 
L 143.136 126.97154 
L 149.088 126.853065 
L 155.04 126.737552 
L 160.992 126.624961 
L 166.944 126.515229 
L 172.896 126.408278 
L 178.848 126.304021 
L 184.8 126.202368 
L 190.752 126.103224 
L 196.704 126.006496 
L 202.656 125.91209 
L 208.608 125.819918 
L 214.56 125.729891 
L 214.56 127.322079 
L 208.608 127.412106 
L 202.656 127.504279 
L 196.704 127.598684 
L 190.752 127.695412 
L 184.8 127.794556 
L 178.848 127.89621 
L 172.896 128.000466 
L 166.944 128.107417 
L 160.992 128.217149 
L 155.04 128.32974 
L 149.088 128.445253 
L 143.136 128.563728 
L 137.184 128.68517 
L 131.232 128.809531 
L 125.28 128.936687 
L 119.328 129.066398 
L 113.376 129.198252 
L 107.424 129.331581 
L 101.472 129.465326 
L 95.52 129.597819 
L 89.568 129.726437 
L 83.616 129.847 
L 77.664 129.952703 
L 71.712 130.032143 
L 65.76 130.065381 
L 59.808 130.015511 
L 53.856 129.808584 
L 47.904 129.278566 
L 41.952 127.981326 
z
M 36.655949 92.448 
L 41.952 88.258676 
L 46.806178 86.904 
L 47.904 86.658944 
L 53.856 86.11611 
L 59.808 85.90418 
L 65.76 85.853104 
L 71.712 85.887145 
L 77.664 85.968506 
L 83.616 86.076765 
L 89.568 86.200243 
L 95.52 86.331972 
L 101.472 86.467669 
L 107.424 86.604647 
L 113.376 86.7412 
L 119.328 86.876242 
L 120.571645 86.904 
L 125.28 87.035385 
L 131.232 87.198201 
L 137.184 87.357439 
L 143.136 87.512939 
L 149.088 87.66464 
L 155.04 87.812549 
L 160.992 87.956716 
L 166.944 88.097222 
L 172.896 88.234167 
L 178.848 88.367662 
L 184.8 88.497824 
L 190.752 88.624773 
L 196.704 88.748628 
L 202.656 88.869509 
L 208.608 88.987531 
L 214.56 89.102806 
L 214.56 91.14152 
L 208.608 91.026245 
L 202.656 90.908223 
L 196.704 90.787342 
L 190.752 90.663487 
L 184.8 90.536538 
L 178.848 90.406376 
L 172.896 90.272881 
L 166.944 90.135936 
L 160.992 89.99543 
L 155.04 89.851263 
L 149.088 89.703354 
L 143.136 89.551653 
L 137.184 89.396153 
L 131.232 89.236915 
L 125.28 89.074099 
L 119.328 88.908011 
L 113.376 88.739178 
L 107.424 88.568457 
L 101.472 88.397205 
L 95.52 88.227554 
L 89.568 88.062865 
L 83.616 87.908491 
L 77.664 87.773143 
L 71.712 87.671424 
L 65.76 87.628865 
L 59.808 87.692721 
L 53.856 87.95768 
L 47.904 88.63634 
L 41.952 90.29739 
L 39.233246 92.448 
L 36 95.930647 
L 36 93.154547 
z
" clip-path="url(#pd80c7efe06)" style="fill: #21a685"/>
    <path d="M 36 125.712 
L 36 123.672039 
L 38.278611 125.712 
L 41.952 127.981326 
L 47.904 129.278566 
L 53.856 129.808584 
L 59.808 130.015511 
L 65.76 130.065381 
L 71.712 130.032143 
L 77.664 129.952703 
L 83.616 129.847 
L 89.568 129.726437 
L 95.52 129.597819 
L 101.472 129.465326 
L 107.424 129.331581 
L 113.376 129.198252 
L 119.328 129.066398 
L 125.28 128.936687 
L 131.232 128.809531 
L 137.184 128.68517 
L 143.136 128.563728 
L 149.088 128.445253 
L 155.04 128.32974 
L 160.992 128.217149 
L 166.944 128.107417 
L 172.896 128.000466 
L 178.848 127.89621 
L 184.8 127.794556 
L 190.752 127.695412 
L 196.704 127.598684 
L 202.656 127.504279 
L 208.608 127.412106 
L 214.56 127.322079 
L 214.56 128.914267 
L 208.608 129.004294 
L 202.656 129.096467 
L 196.704 129.190872 
L 190.752 129.2876 
L 184.8 129.386744 
L 178.848 129.488398 
L 172.896 129.592654 
L 166.944 129.699605 
L 160.992 129.809337 
L 155.04 129.921928 
L 149.088 130.037441 
L 143.136 130.155916 
L 137.184 130.277358 
L 131.232 130.401719 
L 125.28 130.528875 
L 119.328 130.658586 
L 113.376 130.79044 
L 107.424 130.92377 
L 101.472 131.057514 
L 95.52 131.190007 
L 92.466084 131.256 
L 89.568 131.302936 
L 83.616 131.393294 
L 77.664 131.472516 
L 71.712 131.532054 
L 65.76 131.556965 
L 59.808 131.519589 
L 53.856 131.364503 
L 52.230234 131.256 
L 47.904 130.870754 
L 41.952 129.573514 
L 36 125.89652 
z
M 36 92.448 
L 36 90.92816 
L 41.087254 86.904 
L 41.952 86.356864 
L 47.904 85.028257 
L 53.856 84.485423 
L 59.808 84.273493 
L 65.76 84.222417 
L 71.712 84.256458 
L 77.664 84.337819 
L 83.616 84.446078 
L 89.568 84.569556 
L 95.52 84.701284 
L 101.472 84.836981 
L 107.424 84.973959 
L 113.376 85.110513 
L 119.328 85.245555 
L 125.28 85.378402 
L 131.232 85.508633 
L 137.184 85.636001 
L 143.136 85.760379 
L 149.088 85.881719 
L 155.04 86.000025 
L 160.992 86.115339 
L 166.944 86.227724 
L 172.896 86.337261 
L 178.848 86.444039 
L 184.8 86.54815 
L 190.752 86.649691 
L 196.704 86.748758 
L 202.656 86.845446 
L 206.347817 86.904 
L 208.608 86.948817 
L 214.56 87.064092 
L 214.56 89.102806 
L 208.608 88.987531 
L 202.656 88.869509 
L 196.704 88.748628 
L 190.752 88.624773 
L 184.8 88.497824 
L 178.848 88.367662 
L 172.896 88.234167 
L 166.944 88.097222 
L 160.992 87.956716 
L 155.04 87.812549 
L 149.088 87.66464 
L 143.136 87.512939 
L 137.184 87.357439 
L 131.232 87.198201 
L 125.28 87.035385 
L 120.571645 86.904 
L 119.328 86.876242 
L 113.376 86.7412 
L 107.424 86.604647 
L 101.472 86.467669 
L 95.52 86.331972 
L 89.568 86.200243 
L 83.616 86.076765 
L 77.664 85.968506 
L 71.712 85.887145 
L 65.76 85.853104 
L 59.808 85.90418 
L 53.856 86.11611 
L 47.904 86.658944 
L 46.806178 86.904 
L 41.952 88.258676 
L 36.655949 92.448 
L 36 93.154547 
z
" clip-path="url(#pd80c7efe06)" style="fill: #1f978b"/>
    <path d="M 41.952 129.573514 
L 47.904 130.870754 
L 52.230234 131.256 
L 53.856 131.364503 
L 59.808 131.519589 
L 65.76 131.556965 
L 71.712 131.532054 
L 77.664 131.472516 
L 83.616 131.393294 
L 89.568 131.302936 
L 92.466084 131.256 
L 95.52 131.190007 
L 101.472 131.057514 
L 107.424 130.92377 
L 113.376 130.79044 
L 119.328 130.658586 
L 125.28 130.528875 
L 131.232 130.401719 
L 137.184 130.277358 
L 143.136 130.155916 
L 149.088 130.037441 
L 155.04 129.921928 
L 160.992 129.809337 
L 166.944 129.699605 
L 172.896 129.592654 
L 178.848 129.488398 
L 184.8 129.386744 
L 190.752 129.2876 
L 196.704 129.190872 
L 202.656 129.096467 
L 208.608 129.004294 
L 214.56 128.914267 
L 214.56 130.506455 
L 208.608 130.596483 
L 202.656 130.688655 
L 196.704 130.78306 
L 190.752 130.879788 
L 184.8 130.978932 
L 178.848 131.080586 
L 172.896 131.184842 
L 168.93595 131.256 
L 166.944 131.282826 
L 160.992 131.365067 
L 155.04 131.449451 
L 149.088 131.536025 
L 143.136 131.624818 
L 137.184 131.715836 
L 131.232 131.809041 
L 125.28 131.904341 
L 119.328 132.001555 
L 113.376 132.100376 
L 107.424 132.200303 
L 101.472 132.30054 
L 95.52 132.39984 
L 89.568 132.496236 
L 83.616 132.586594 
L 77.664 132.665816 
L 71.712 132.725354 
L 65.76 132.750265 
L 59.808 132.712889 
L 53.856 132.557803 
L 47.904 132.160569 
L 42.366306 131.256 
L 41.952 131.165702 
L 36 127.488709 
L 36 125.89652 
z
M 38.509957 86.904 
L 41.952 84.726177 
L 47.904 83.39757 
L 53.856 82.854736 
L 59.808 82.642806 
L 65.76 82.591729 
L 71.712 82.625771 
L 77.664 82.707132 
L 83.616 82.815391 
L 89.568 82.938869 
L 95.52 83.070597 
L 101.472 83.206294 
L 107.424 83.343272 
L 113.376 83.479825 
L 119.328 83.614868 
L 125.28 83.747715 
L 131.232 83.877946 
L 137.184 84.005314 
L 143.136 84.129692 
L 149.088 84.251032 
L 155.04 84.369338 
L 160.992 84.484652 
L 166.944 84.597037 
L 172.896 84.706574 
L 178.848 84.813351 
L 184.8 84.917463 
L 190.752 85.019004 
L 196.704 85.118071 
L 202.656 85.214759 
L 208.608 85.30916 
L 214.56 85.401364 
L 214.56 86.904 
L 214.56 87.064092 
L 208.608 86.948817 
L 206.347817 86.904 
L 202.656 86.845446 
L 196.704 86.748758 
L 190.752 86.649691 
L 184.8 86.54815 
L 178.848 86.444039 
L 172.896 86.337261 
L 166.944 86.227724 
L 160.992 86.115339 
L 155.04 86.000025 
L 149.088 85.881719 
L 143.136 85.760379 
L 137.184 85.636001 
L 131.232 85.508633 
L 125.28 85.378402 
L 119.328 85.245555 
L 113.376 85.110513 
L 107.424 84.973959 
L 101.472 84.836981 
L 95.52 84.701284 
L 89.568 84.569556 
L 83.616 84.446078 
L 77.664 84.337819 
L 71.712 84.256458 
L 65.76 84.222417 
L 59.808 84.273493 
L 53.856 84.485423 
L 47.904 85.028257 
L 41.952 86.356864 
L 41.087254 86.904 
L 36 90.92816 
L 36 88.889446 
z
" clip-path="url(#pd80c7efe06)" style="fill: #23888e"/>
    <path d="M 39.52087 131.256 
L 36 129.080897 
L 36 127.488709 
L 41.952 131.165702 
L 42.366306 131.256 
L 47.904 132.160569 
L 53.856 132.557803 
L 59.808 132.712889 
L 65.76 132.750265 
L 71.712 132.725354 
L 77.664 132.665816 
L 83.616 132.586594 
L 89.568 132.496236 
L 95.52 132.39984 
L 101.472 132.30054 
L 107.424 132.200303 
L 113.376 132.100376 
L 119.328 132.001555 
L 125.28 131.904341 
L 131.232 131.809041 
L 137.184 131.715836 
L 143.136 131.624818 
L 149.088 131.536025 
L 155.04 131.449451 
L 160.992 131.365067 
L 166.944 131.282826 
L 168.93595 131.256 
L 172.896 131.184842 
L 178.848 131.080586 
L 184.8 130.978932 
L 190.752 130.879788 
L 196.704 130.78306 
L 202.656 130.688655 
L 208.608 130.596483 
L 214.56 130.506455 
L 214.56 131.256 
L 214.56 131.887538 
L 208.608 131.95501 
L 202.656 132.024091 
L 196.704 132.094845 
L 190.752 132.16734 
L 184.8 132.241646 
L 178.848 132.317832 
L 172.896 132.39597 
L 166.944 132.476126 
L 160.992 132.558367 
L 155.04 132.642751 
L 149.088 132.729325 
L 143.136 132.818119 
L 137.184 132.909136 
L 131.232 133.002341 
L 125.28 133.097641 
L 119.328 133.194856 
L 113.376 133.293677 
L 107.424 133.393603 
L 101.472 133.493841 
L 95.52 133.593141 
L 89.568 133.689537 
L 83.616 133.779895 
L 77.664 133.859117 
L 71.712 133.918655 
L 65.76 133.943565 
L 59.808 133.906189 
L 53.856 133.751104 
L 47.904 133.35387 
L 41.952 132.381624 
z
M 36 86.904 
L 36 86.861393 
L 41.952 83.09549 
L 47.904 81.766882 
L 52.365336 81.36 
L 53.856 81.245646 
L 59.808 81.067383 
L 65.76 81.02442 
L 71.712 81.053054 
L 77.664 81.12149 
L 83.616 81.212552 
L 89.568 81.316414 
L 91.909349 81.36 
L 95.52 81.43991 
L 101.472 81.575607 
L 107.424 81.712585 
L 113.376 81.849138 
L 119.328 81.984181 
L 125.28 82.117028 
L 131.232 82.247259 
L 137.184 82.374627 
L 143.136 82.499005 
L 149.088 82.620345 
L 155.04 82.738651 
L 160.992 82.853964 
L 166.944 82.96635 
L 172.896 83.075887 
L 178.848 83.182664 
L 184.8 83.286776 
L 190.752 83.388317 
L 196.704 83.487384 
L 202.656 83.584072 
L 208.608 83.678473 
L 214.56 83.770677 
L 214.56 85.401364 
L 208.608 85.30916 
L 202.656 85.214759 
L 196.704 85.118071 
L 190.752 85.019004 
L 184.8 84.917463 
L 178.848 84.813351 
L 172.896 84.706574 
L 166.944 84.597037 
L 160.992 84.484652 
L 155.04 84.369338 
L 149.088 84.251032 
L 143.136 84.129692 
L 137.184 84.005314 
L 131.232 83.877946 
L 125.28 83.747715 
L 119.328 83.614868 
L 113.376 83.479825 
L 107.424 83.343272 
L 101.472 83.206294 
L 95.52 83.070597 
L 89.568 82.938869 
L 83.616 82.815391 
L 77.664 82.707132 
L 71.712 82.625771 
L 65.76 82.591729 
L 59.808 82.642806 
L 53.856 82.854736 
L 47.904 83.39757 
L 41.952 84.726177 
L 38.509957 86.904 
L 36 88.889446 
z
" clip-path="url(#pd80c7efe06)" style="fill: #29798e"/>
    <path d="M 36.943573 131.256 
L 36 130.673085 
L 36 129.080897 
L 39.52087 131.256 
L 41.952 132.381624 
L 47.904 133.35387 
L 53.856 133.751104 
L 59.808 133.906189 
L 65.76 133.943565 
L 71.712 133.918655 
L 77.664 133.859117 
L 83.616 133.779895 
L 89.568 133.689537 
L 95.52 133.593141 
L 101.472 133.493841 
L 107.424 133.393603 
L 113.376 133.293677 
L 119.328 133.194856 
L 125.28 133.097641 
L 131.232 133.002341 
L 137.184 132.909136 
L 143.136 132.818119 
L 149.088 132.729325 
L 155.04 132.642751 
L 160.992 132.558367 
L 166.944 132.476126 
L 172.896 132.39597 
L 178.848 132.317832 
L 184.8 132.241646 
L 190.752 132.16734 
L 196.704 132.094845 
L 202.656 132.024091 
L 208.608 131.95501 
L 214.56 131.887538 
L 214.56 133.080838 
L 208.608 133.148311 
L 202.656 133.217391 
L 196.704 133.288145 
L 190.752 133.360641 
L 184.8 133.434946 
L 178.848 133.511133 
L 172.896 133.58927 
L 166.944 133.669427 
L 160.992 133.751668 
L 155.04 133.836052 
L 149.088 133.922625 
L 143.136 134.011419 
L 137.184 134.102436 
L 131.232 134.195642 
L 125.28 134.290941 
L 119.328 134.388156 
L 113.376 134.486977 
L 107.424 134.586904 
L 101.472 134.687141 
L 95.52 134.786441 
L 89.568 134.882837 
L 83.616 134.973195 
L 77.664 135.052417 
L 71.712 135.111955 
L 65.76 135.136866 
L 59.808 135.099489 
L 53.856 134.944404 
L 47.904 134.54717 
L 41.952 133.574925 
z
M 41.952 81.464803 
L 42.421505 81.36 
L 47.904 80.330608 
L 53.856 79.874008 
L 59.808 79.695745 
L 65.76 79.652783 
L 71.712 79.681417 
L 77.664 79.749853 
L 83.616 79.840914 
L 89.568 79.944776 
L 95.52 80.055578 
L 101.472 80.169719 
L 107.424 80.284936 
L 113.376 80.399797 
L 119.328 80.513387 
L 125.28 80.62513 
L 131.232 80.734672 
L 137.184 80.841807 
L 143.136 80.946426 
L 149.088 81.04849 
L 155.04 81.148002 
L 160.992 81.244997 
L 166.944 81.339529 
L 168.266424 81.36 
L 172.896 81.4452 
L 178.848 81.551977 
L 184.8 81.656089 
L 190.752 81.75763 
L 196.704 81.856697 
L 202.656 81.953385 
L 208.608 82.047786 
L 214.56 82.13999 
L 214.56 83.770677 
L 208.608 83.678473 
L 202.656 83.584072 
L 196.704 83.487384 
L 190.752 83.388317 
L 184.8 83.286776 
L 178.848 83.182664 
L 172.896 83.075887 
L 166.944 82.96635 
L 160.992 82.853964 
L 155.04 82.738651 
L 149.088 82.620345 
L 143.136 82.499005 
L 137.184 82.374627 
L 131.232 82.247259 
L 125.28 82.117028 
L 119.328 81.984181 
L 113.376 81.849138 
L 107.424 81.712585 
L 101.472 81.575607 
L 95.52 81.43991 
L 91.909349 81.36 
L 89.568 81.316414 
L 83.616 81.212552 
L 77.664 81.12149 
L 71.712 81.053054 
L 65.76 81.02442 
L 59.808 81.067383 
L 53.856 81.245646 
L 52.365336 81.36 
L 47.904 81.766882 
L 41.952 83.09549 
L 36 86.861393 
L 36 85.230706 
z
" clip-path="url(#pd80c7efe06)" style="fill: #306a8e"/>
    <path d="M 36 131.256 
L 36 130.673085 
L 36.943573 131.256 
L 41.952 133.574925 
L 47.904 134.54717 
L 53.856 134.944404 
L 59.808 135.099489 
L 65.76 135.136866 
L 71.712 135.111955 
L 77.664 135.052417 
L 83.616 134.973195 
L 89.568 134.882837 
L 95.52 134.786441 
L 101.472 134.687141 
L 107.424 134.586904 
L 113.376 134.486977 
L 119.328 134.388156 
L 125.28 134.290941 
L 131.232 134.195642 
L 137.184 134.102436 
L 143.136 134.011419 
L 149.088 133.922625 
L 155.04 133.836052 
L 160.992 133.751668 
L 166.944 133.669427 
L 172.896 133.58927 
L 178.848 133.511133 
L 184.8 133.434946 
L 190.752 133.360641 
L 196.704 133.288145 
L 202.656 133.217391 
L 208.608 133.148311 
L 214.56 133.080838 
L 214.56 134.274138 
L 208.608 134.341611 
L 202.656 134.410692 
L 196.704 134.481446 
L 190.752 134.553941 
L 184.8 134.628247 
L 178.848 134.704433 
L 172.896 134.78257 
L 166.944 134.862727 
L 160.992 134.944968 
L 155.04 135.029352 
L 149.088 135.115926 
L 143.136 135.204719 
L 137.184 135.295737 
L 131.232 135.388942 
L 125.28 135.484242 
L 119.328 135.581456 
L 113.376 135.680277 
L 107.424 135.780204 
L 101.472 135.880441 
L 95.52 135.979741 
L 89.568 136.076137 
L 83.616 136.166495 
L 77.664 136.245717 
L 71.712 136.305255 
L 65.76 136.330166 
L 59.808 136.29279 
L 53.856 136.137704 
L 47.904 135.74047 
L 41.952 134.768225 
L 36 132.091285 
z
M 39.540344 81.36 
L 41.952 80.076517 
L 47.904 78.958971 
L 53.856 78.502371 
L 59.808 78.324108 
L 65.76 78.281146 
L 71.712 78.30978 
L 77.664 78.378215 
L 83.616 78.469277 
L 89.568 78.573139 
L 95.52 78.683941 
L 101.472 78.798081 
L 107.424 78.913299 
L 113.376 79.028159 
L 119.328 79.141749 
L 125.28 79.253492 
L 131.232 79.363035 
L 137.184 79.470169 
L 143.136 79.574789 
L 149.088 79.676853 
L 155.04 79.776365 
L 160.992 79.87336 
L 166.944 79.967892 
L 172.896 80.060028 
L 178.848 80.149842 
L 184.8 80.237415 
L 190.752 80.322825 
L 196.704 80.406155 
L 202.656 80.487483 
L 208.608 80.566888 
L 214.56 80.644444 
L 214.56 81.36 
L 214.56 82.13999 
L 208.608 82.047786 
L 202.656 81.953385 
L 196.704 81.856697 
L 190.752 81.75763 
L 184.8 81.656089 
L 178.848 81.551977 
L 172.896 81.4452 
L 168.266424 81.36 
L 166.944 81.339529 
L 160.992 81.244997 
L 155.04 81.148002 
L 149.088 81.04849 
L 143.136 80.946426 
L 137.184 80.841807 
L 131.232 80.734672 
L 125.28 80.62513 
L 119.328 80.513387 
L 113.376 80.399797 
L 107.424 80.284936 
L 101.472 80.169719 
L 95.52 80.055578 
L 89.568 79.944776 
L 83.616 79.840914 
L 77.664 79.749853 
L 71.712 79.681417 
L 65.76 79.652783 
L 59.808 79.695745 
L 53.856 79.874008 
L 47.904 80.330608 
L 42.421505 81.36 
L 41.952 81.464803 
L 36 85.230706 
L 36 83.600019 
z
" clip-path="url(#pd80c7efe06)" style="fill: #375a8c"/>
    <path d="M 41.952 134.768225 
L 47.904 135.74047 
L 53.856 136.137704 
L 59.808 136.29279 
L 65.76 136.330166 
L 71.712 136.305255 
L 77.664 136.245717 
L 83.616 136.166495 
L 89.568 136.076137 
L 95.52 135.979741 
L 101.472 135.880441 
L 107.424 135.780204 
L 113.376 135.680277 
L 119.328 135.581456 
L 125.28 135.484242 
L 131.232 135.388942 
L 137.184 135.295737 
L 143.136 135.204719 
L 149.088 135.115926 
L 155.04 135.029352 
L 160.992 134.944968 
L 166.944 134.862727 
L 172.896 134.78257 
L 178.848 134.704433 
L 184.8 134.628247 
L 190.752 134.553941 
L 196.704 134.481446 
L 202.656 134.410692 
L 208.608 134.341611 
L 214.56 134.274138 
L 214.56 135.467439 
L 208.608 135.534911 
L 202.656 135.603992 
L 196.704 135.674746 
L 190.752 135.747241 
L 184.8 135.821547 
L 178.848 135.897733 
L 172.896 135.97587 
L 166.944 136.056027 
L 160.992 136.138268 
L 155.04 136.222652 
L 149.088 136.309226 
L 143.136 136.39802 
L 137.184 136.489037 
L 131.232 136.582242 
L 125.28 136.677542 
L 119.328 136.774757 
L 117.807587 136.8 
L 113.376 136.929726 
L 107.424 137.096487 
L 101.472 137.253755 
L 95.52 137.400526 
L 89.568 137.535129 
L 83.616 137.65481 
L 77.664 137.754945 
L 71.712 137.827429 
L 65.76 137.857082 
L 59.808 137.812444 
L 53.856 137.617327 
L 47.904 137.031424 
L 47.085068 136.8 
L 41.952 135.961525 
L 36 133.408996 
L 36 132.091285 
z
M 36.963047 81.36 
L 41.952 78.704879 
L 47.904 77.587333 
L 53.856 77.130733 
L 59.808 76.95247 
L 65.76 76.909508 
L 71.712 76.938142 
L 77.664 77.006578 
L 83.616 77.097639 
L 89.568 77.201501 
L 95.52 77.312304 
L 101.472 77.426444 
L 107.424 77.541662 
L 113.376 77.656522 
L 119.328 77.770112 
L 125.28 77.881855 
L 131.232 77.991397 
L 137.184 78.098532 
L 143.136 78.203152 
L 149.088 78.305215 
L 155.04 78.404727 
L 160.992 78.501722 
L 166.944 78.596254 
L 172.896 78.68839 
L 178.848 78.778205 
L 184.8 78.865777 
L 190.752 78.951188 
L 196.704 79.034517 
L 202.656 79.115846 
L 208.608 79.19525 
L 214.56 79.272807 
L 214.56 80.644444 
L 208.608 80.566888 
L 202.656 80.487483 
L 196.704 80.406155 
L 190.752 80.322825 
L 184.8 80.237415 
L 178.848 80.149842 
L 172.896 80.060028 
L 166.944 79.967892 
L 160.992 79.87336 
L 155.04 79.776365 
L 149.088 79.676853 
L 143.136 79.574789 
L 137.184 79.470169 
L 131.232 79.363035 
L 125.28 79.253492 
L 119.328 79.141749 
L 113.376 79.028159 
L 107.424 78.913299 
L 101.472 78.798081 
L 95.52 78.683941 
L 89.568 78.573139 
L 83.616 78.469277 
L 77.664 78.378215 
L 71.712 78.30978 
L 65.76 78.281146 
L 59.808 78.324108 
L 53.856 78.502371 
L 47.904 78.958971 
L 41.952 80.076517 
L 39.540344 81.36 
L 36 83.600019 
L 36 81.969332 
z
" clip-path="url(#pd80c7efe06)" style="fill: #3f4889"/>
    <path d="M 41.005955 136.8 
L 36 134.726708 
L 36 133.408996 
L 41.952 135.961525 
L 47.085068 136.8 
L 47.904 137.031424 
L 53.856 137.617327 
L 59.808 137.812444 
L 65.76 137.857082 
L 71.712 137.827429 
L 77.664 137.754945 
L 83.616 137.65481 
L 89.568 137.535129 
L 95.52 137.400526 
L 101.472 137.253755 
L 107.424 137.096487 
L 113.376 136.929726 
L 117.807587 136.8 
L 119.328 136.774757 
L 125.28 136.677542 
L 131.232 136.582242 
L 137.184 136.489037 
L 143.136 136.39802 
L 149.088 136.309226 
L 155.04 136.222652 
L 160.992 136.138268 
L 166.944 136.056027 
L 172.896 135.97587 
L 178.848 135.897733 
L 184.8 135.821547 
L 190.752 135.747241 
L 196.704 135.674746 
L 202.656 135.603992 
L 208.608 135.534911 
L 214.56 135.467439 
L 214.56 136.660739 
L 208.608 136.728212 
L 202.656 136.797292 
L 202.42822 136.8 
L 196.704 136.993899 
L 190.752 137.18609 
L 184.8 137.369259 
L 178.848 137.544032 
L 172.896 137.710967 
L 166.944 137.870567 
L 160.992 138.023279 
L 155.04 138.169499 
L 149.088 138.309574 
L 143.136 138.4438 
L 137.184 138.572424 
L 131.232 138.695634 
L 125.28 138.81356 
L 119.328 138.92625 
L 113.376 139.033661 
L 107.424 139.13562 
L 101.472 139.231776 
L 95.52 139.321513 
L 89.568 139.40381 
L 83.616 139.476984 
L 77.664 139.538208 
L 71.712 139.582525 
L 65.76 139.600655 
L 59.808 139.573363 
L 53.856 139.454067 
L 47.904 139.09584 
L 41.952 137.681195 
z
M 36 81.36 
L 36 79.781449 
L 41.952 77.333242 
L 47.904 76.215696 
L 53.11423 75.816 
L 53.856 75.673576 
L 59.808 75.271245 
L 65.76 75.183086 
L 71.712 75.241494 
L 77.664 75.386882 
L 83.616 75.594061 
L 88.773501 75.816 
L 89.568 75.829864 
L 95.52 75.940666 
L 101.472 76.054806 
L 107.424 76.170024 
L 113.376 76.284885 
L 119.328 76.398474 
L 125.28 76.510218 
L 131.232 76.61976 
L 137.184 76.726895 
L 143.136 76.831514 
L 149.088 76.933578 
L 155.04 77.03309 
L 160.992 77.130085 
L 166.944 77.224617 
L 172.896 77.316753 
L 178.848 77.406568 
L 184.8 77.49414 
L 190.752 77.579551 
L 196.704 77.66288 
L 202.656 77.744208 
L 208.608 77.823613 
L 214.56 77.901169 
L 214.56 79.272807 
L 208.608 79.19525 
L 202.656 79.115846 
L 196.704 79.034517 
L 190.752 78.951188 
L 184.8 78.865777 
L 178.848 78.778205 
L 172.896 78.68839 
L 166.944 78.596254 
L 160.992 78.501722 
L 155.04 78.404727 
L 149.088 78.305215 
L 143.136 78.203152 
L 137.184 78.098532 
L 131.232 77.991397 
L 125.28 77.881855 
L 119.328 77.770112 
L 113.376 77.656522 
L 107.424 77.541662 
L 101.472 77.426444 
L 95.52 77.312304 
L 89.568 77.201501 
L 83.616 77.097639 
L 77.664 77.006578 
L 71.712 76.938142 
L 65.76 76.909508 
L 59.808 76.95247 
L 53.856 77.130733 
L 47.904 77.587333 
L 41.952 78.704879 
L 36.963047 81.36 
L 36 81.969332 
z
" clip-path="url(#pd80c7efe06)" style="fill: #453581"/>
    <path d="M 37.824346 136.8 
L 36 136.044419 
L 36 134.726708 
L 41.005955 136.8 
L 41.952 137.681195 
L 47.904 139.09584 
L 53.856 139.454067 
L 59.808 139.573363 
L 65.76 139.600655 
L 71.712 139.582525 
L 77.664 139.538208 
L 83.616 139.476984 
L 89.568 139.40381 
L 95.52 139.321513 
L 101.472 139.231776 
L 107.424 139.13562 
L 113.376 139.033661 
L 119.328 138.92625 
L 125.28 138.81356 
L 131.232 138.695634 
L 137.184 138.572424 
L 143.136 138.4438 
L 149.088 138.309574 
L 155.04 138.169499 
L 160.992 138.023279 
L 166.944 137.870567 
L 172.896 137.710967 
L 178.848 137.544032 
L 184.8 137.369259 
L 190.752 137.18609 
L 196.704 136.993899 
L 202.42822 136.8 
L 202.656 136.797292 
L 208.608 136.728212 
L 214.56 136.660739 
L 214.56 136.8 
L 214.56 140.161706 
L 208.608 140.243248 
L 202.656 140.320653 
L 196.704 140.394235 
L 190.752 140.464276 
L 184.8 140.531029 
L 178.848 140.594722 
L 172.896 140.65556 
L 166.944 140.713723 
L 160.992 140.769377 
L 155.04 140.822665 
L 149.088 140.873713 
L 143.136 140.92263 
L 137.184 140.969505 
L 131.232 141.014407 
L 125.28 141.057383 
L 119.328 141.098451 
L 113.376 141.137596 
L 107.424 141.174753 
L 101.472 141.209796 
L 95.52 141.242499 
L 89.568 141.272491 
L 83.616 141.299158 
L 77.664 141.32147 
L 71.712 141.337621 
L 65.76 141.344229 
L 59.808 141.334282 
L 53.856 141.290807 
L 47.904 141.160256 
L 41.952 140.64471 
z
M 41.952 75.961605 
L 42.727484 75.816 
L 47.904 72.751674 
L 53.856 72.240525 
L 59.808 72.093901 
L 65.76 72.061773 
L 71.712 72.083059 
L 77.664 72.136043 
L 83.616 72.211547 
L 89.568 72.305492 
L 95.52 72.416295 
L 101.472 72.543814 
L 107.424 72.688901 
L 113.376 72.853237 
L 119.328 73.039319 
L 125.28 73.250552 
L 131.232 73.491457 
L 137.184 73.767999 
L 143.136 74.088096 
L 149.088 74.462398 
L 155.04 74.905515 
L 160.992 75.437978 
L 164.615667 75.816 
L 166.944 75.85298 
L 172.896 75.945116 
L 178.848 76.03493 
L 184.8 76.122503 
L 190.752 76.207913 
L 196.704 76.291243 
L 202.656 76.372571 
L 208.608 76.451975 
L 214.56 76.529532 
L 214.56 77.901169 
L 208.608 77.823613 
L 202.656 77.744208 
L 196.704 77.66288 
L 190.752 77.579551 
L 184.8 77.49414 
L 178.848 77.406568 
L 172.896 77.316753 
L 166.944 77.224617 
L 160.992 77.130085 
L 155.04 77.03309 
L 149.088 76.933578 
L 143.136 76.831514 
L 137.184 76.726895 
L 131.232 76.61976 
L 125.28 76.510218 
L 119.328 76.398474 
L 113.376 76.284885 
L 107.424 76.170024 
L 101.472 76.054806 
L 95.52 75.940666 
L 89.568 75.829864 
L 88.773501 75.816 
L 83.616 75.594061 
L 77.664 75.386882 
L 71.712 75.241494 
L 65.76 75.183086 
L 59.808 75.271245 
L 53.856 75.673576 
L 53.11423 75.816 
L 47.904 76.215696 
L 41.952 77.333242 
L 36 79.781449 
L 36 77.261149 
z
" clip-path="url(#pd80c7efe06)" style="fill: #482173"/>
    <path d="M 36 186.696 
L 36 181.152 
L 36 175.608 
L 36 170.064 
L 36 164.52 
L 36 158.976 
L 36 153.432 
L 36 147.888 
L 36 142.344 
L 36 136.8 
L 36 136.044419 
L 37.824346 136.8 
L 41.952 140.64471 
L 47.904 141.160256 
L 53.856 141.290807 
L 59.808 141.334282 
L 65.76 141.344229 
L 71.712 141.337621 
L 77.664 141.32147 
L 83.616 141.299158 
L 89.568 141.272491 
L 95.52 141.242499 
L 101.472 141.209796 
L 107.424 141.174753 
L 113.376 141.137596 
L 119.328 141.098451 
L 125.28 141.057383 
L 131.232 141.014407 
L 137.184 140.969505 
L 143.136 140.92263 
L 149.088 140.873713 
L 155.04 140.822665 
L 160.992 140.769377 
L 166.944 140.713723 
L 172.896 140.65556 
L 178.848 140.594722 
L 184.8 140.531029 
L 190.752 140.464276 
L 196.704 140.394235 
L 202.656 140.320653 
L 208.608 140.243248 
L 214.56 140.161706 
L 214.56 142.344 
L 214.56 147.888 
L 214.56 153.432 
L 214.56 158.976 
L 214.56 164.52 
L 214.56 170.064 
L 214.56 175.608 
L 214.56 181.152 
L 214.56 186.696 
L 214.56 192.24 
L 208.608 192.24 
L 202.656 192.24 
L 196.704 192.24 
L 190.752 192.24 
L 184.8 192.24 
L 178.848 192.24 
L 172.896 192.24 
L 166.944 192.24 
L 160.992 192.24 
L 155.04 192.24 
L 149.088 192.24 
L 143.136 192.24 
L 137.184 192.24 
L 131.232 192.24 
L 125.28 192.24 
L 119.328 192.24 
L 113.376 192.24 
L 107.424 192.24 
L 101.472 192.24 
L 95.52 192.24 
L 89.568 192.24 
L 83.616 192.24 
L 77.664 192.24 
L 71.712 192.24 
L 65.76 192.24 
L 59.808 192.24 
L 53.856 192.24 
L 47.904 192.24 
L 41.952 192.24 
L 36 192.24 
z
M 36 75.816 
L 36 70.272 
L 36 64.728 
L 36 59.184 
L 36 53.64 
L 36 48.096 
L 36 42.552 
L 36 37.008 
L 36 31.464 
L 36 25.92 
L 41.952 25.92 
L 47.904 25.92 
L 53.856 25.92 
L 59.808 25.92 
L 65.76 25.92 
L 71.712 25.92 
L 77.664 25.92 
L 83.616 25.92 
L 89.568 25.92 
L 95.52 25.92 
L 101.472 25.92 
L 107.424 25.92 
L 113.376 25.92 
L 119.328 25.92 
L 125.28 25.92 
L 131.232 25.92 
L 137.184 25.92 
L 143.136 25.92 
L 149.088 25.92 
L 155.04 25.92 
L 160.992 25.92 
L 166.944 25.92 
L 172.896 25.92 
L 178.848 25.92 
L 184.8 25.92 
L 190.752 25.92 
L 196.704 25.92 
L 202.656 25.92 
L 208.608 25.92 
L 214.56 25.92 
L 214.56 31.464 
L 214.56 37.008 
L 214.56 42.552 
L 214.56 48.096 
L 214.56 53.64 
L 214.56 59.184 
L 214.56 64.728 
L 214.56 70.272 
L 214.56 75.816 
L 214.56 76.529532 
L 208.608 76.451975 
L 202.656 76.372571 
L 196.704 76.291243 
L 190.752 76.207913 
L 184.8 76.122503 
L 178.848 76.03493 
L 172.896 75.945116 
L 166.944 75.85298 
L 164.615667 75.816 
L 160.992 75.437978 
L 155.04 74.905515 
L 149.088 74.462398 
L 143.136 74.088096 
L 137.184 73.767999 
L 131.232 73.491457 
L 125.28 73.250552 
L 119.328 73.039319 
L 113.376 72.853237 
L 107.424 72.688901 
L 101.472 72.543814 
L 95.52 72.416295 
L 89.568 72.305492 
L 83.616 72.211547 
L 77.664 72.136043 
L 71.712 72.083059 
L 65.76 72.061773 
L 59.808 72.093901 
L 53.856 72.240525 
L 47.904 72.751674 
L 42.727484 75.816 
L 41.952 75.961605 
L 36 77.261149 
z
" clip-path="url(#pd80c7efe06)" style="fill: #460b5e"/>
   </g>
   <g id="PathCollection_1">
    <defs>
     <path id="m258865d2d3" d="M -4.743416 4.743416 
L 4.743416 -4.743416 
M -4.743416 -4.743416 
L 4.743416 4.743416 
" style="stroke: #ffffff; stroke-width: 5"/>
    </defs>
    <g clip-path="url(#pd80c7efe06)">
     <use xlink:href="#m258865d2d3" x="65.76" y="109.08" style="fill: #ffffff; stroke: #ffffff; stroke-width: 5"/>
    </g>
   </g>
   <g id="PathCollection_2">
    <defs>
     <path id="ma40a0a3221" d="M -4.330127 4.330127 
L 4.330127 -4.330127 
M -4.330127 -4.330127 
L 4.330127 4.330127 
" style="stroke: #000000; stroke-width: 2"/>
    </defs>
    <g clip-path="url(#pd80c7efe06)">
     <use xlink:href="#ma40a0a3221" x="65.76" y="109.08" style="stroke: #000000; stroke-width: 2"/>
    </g>
   </g>
   <g id="matplotlib.axis_1">
    <g id="xtick_1">
     <g id="line2d_1">
      <defs>
       <path id="m9546ae474e" d="M 0 0 
L 0 3.5 
" style="stroke: #000000; stroke-width: 0.8"/>
      </defs>
      <g>
       <use xlink:href="#m9546ae474e" x="65.76" y="192.24" style="stroke: #000000; stroke-width: 0.8"/>
      </g>
     </g>
     <g id="text_1">
      <!-- 200 -->
      <g transform="translate(54.3075 208.358125) scale(0.12 -0.12)">
       <defs>
        <path id="DejaVuSans-32" d="M 1228 531 
L 3431 531 
L 3431 0 
L 469 0 
L 469 531 
Q 828 903 1448 1529 
Q 2069 2156 2228 2338 
Q 2531 2678 2651 2914 
Q 2772 3150 2772 3378 
Q 2772 3750 2511 3984 
Q 2250 4219 1831 4219 
Q 1534 4219 1204 4116 
Q 875 4013 500 3803 
L 500 4441 
Q 881 4594 1212 4672 
Q 1544 4750 1819 4750 
Q 2544 4750 2975 4387 
Q 3406 4025 3406 3419 
Q 3406 3131 3298 2873 
Q 3191 2616 2906 2266 
Q 2828 2175 2409 1742 
Q 1991 1309 1228 531 
z
" transform="scale(0.015625)"/>
        <path id="DejaVuSans-30" d="M 2034 4250 
Q 1547 4250 1301 3770 
Q 1056 3291 1056 2328 
Q 1056 1369 1301 889 
Q 1547 409 2034 409 
Q 2525 409 2770 889 
Q 3016 1369 3016 2328 
Q 3016 3291 2770 3770 
Q 2525 4250 2034 4250 
z
M 2034 4750 
Q 2819 4750 3233 4129 
Q 3647 3509 3647 2328 
Q 3647 1150 3233 529 
Q 2819 -91 2034 -91 
Q 1250 -91 836 529 
Q 422 1150 422 2328 
Q 422 3509 836 4129 
Q 1250 4750 2034 4750 
z
" transform="scale(0.015625)"/>
       </defs>
       <use xlink:href="#DejaVuSans-32"/>
       <use xlink:href="#DejaVuSans-30" x="63.623047"/>
       <use xlink:href="#DejaVuSans-30" x="127.246094"/>
      </g>
     </g>
    </g>
    <g id="xtick_2">
     <g id="line2d_2">
      <g>
       <use xlink:href="#m9546ae474e" x="105.44" y="192.24" style="stroke: #000000; stroke-width: 0.8"/>
      </g>
     </g>
     <g id="text_2">
      <!-- 400 -->
      <g transform="translate(93.9875 208.358125) scale(0.12 -0.12)">
       <defs>
        <path id="DejaVuSans-34" d="M 2419 4116 
L 825 1625 
L 2419 1625 
L 2419 4116 
z
M 2253 4666 
L 3047 4666 
L 3047 1625 
L 3713 1625 
L 3713 1100 
L 3047 1100 
L 3047 0 
L 2419 0 
L 2419 1100 
L 313 1100 
L 313 1709 
L 2253 4666 
z
" transform="scale(0.015625)"/>
       </defs>
       <use xlink:href="#DejaVuSans-34"/>
       <use xlink:href="#DejaVuSans-30" x="63.623047"/>
       <use xlink:href="#DejaVuSans-30" x="127.246094"/>
      </g>
     </g>
    </g>
    <g id="xtick_3">
     <g id="line2d_3">
      <g>
       <use xlink:href="#m9546ae474e" x="145.12" y="192.24" style="stroke: #000000; stroke-width: 0.8"/>
      </g>
     </g>
     <g id="text_3">
      <!-- 600 -->
      <g transform="translate(133.6675 208.358125) scale(0.12 -0.12)">
       <defs>
        <path id="DejaVuSans-36" d="M 2113 2584 
Q 1688 2584 1439 2293 
Q 1191 2003 1191 1497 
Q 1191 994 1439 701 
Q 1688 409 2113 409 
Q 2538 409 2786 701 
Q 3034 994 3034 1497 
Q 3034 2003 2786 2293 
Q 2538 2584 2113 2584 
z
M 3366 4563 
L 3366 3988 
Q 3128 4100 2886 4159 
Q 2644 4219 2406 4219 
Q 1781 4219 1451 3797 
Q 1122 3375 1075 2522 
Q 1259 2794 1537 2939 
Q 1816 3084 2150 3084 
Q 2853 3084 3261 2657 
Q 3669 2231 3669 1497 
Q 3669 778 3244 343 
Q 2819 -91 2113 -91 
Q 1303 -91 875 529 
Q 447 1150 447 2328 
Q 447 3434 972 4092 
Q 1497 4750 2381 4750 
Q 2619 4750 2861 4703 
Q 3103 4656 3366 4563 
z
" transform="scale(0.015625)"/>
       </defs>
       <use xlink:href="#DejaVuSans-36"/>
       <use xlink:href="#DejaVuSans-30" x="63.623047"/>
       <use xlink:href="#DejaVuSans-30" x="127.246094"/>
      </g>
     </g>
    </g>
    <g id="xtick_4">
     <g id="line2d_4">
      <g>
       <use xlink:href="#m9546ae474e" x="184.8" y="192.24" style="stroke: #000000; stroke-width: 0.8"/>
      </g>
     </g>
     <g id="text_4">
      <!-- 800 -->
      <g transform="translate(173.3475 208.358125) scale(0.12 -0.12)">
       <defs>
        <path id="DejaVuSans-38" d="M 2034 2216 
Q 1584 2216 1326 1975 
Q 1069 1734 1069 1313 
Q 1069 891 1326 650 
Q 1584 409 2034 409 
Q 2484 409 2743 651 
Q 3003 894 3003 1313 
Q 3003 1734 2745 1975 
Q 2488 2216 2034 2216 
z
M 1403 2484 
Q 997 2584 770 2862 
Q 544 3141 544 3541 
Q 544 4100 942 4425 
Q 1341 4750 2034 4750 
Q 2731 4750 3128 4425 
Q 3525 4100 3525 3541 
Q 3525 3141 3298 2862 
Q 3072 2584 2669 2484 
Q 3125 2378 3379 2068 
Q 3634 1759 3634 1313 
Q 3634 634 3220 271 
Q 2806 -91 2034 -91 
Q 1263 -91 848 271 
Q 434 634 434 1313 
Q 434 1759 690 2068 
Q 947 2378 1403 2484 
z
M 1172 3481 
Q 1172 3119 1398 2916 
Q 1625 2713 2034 2713 
Q 2441 2713 2670 2916 
Q 2900 3119 2900 3481 
Q 2900 3844 2670 4047 
Q 2441 4250 2034 4250 
Q 1625 4250 1398 4047 
Q 1172 3844 1172 3481 
z
" transform="scale(0.015625)"/>
       </defs>
       <use xlink:href="#DejaVuSans-38"/>
       <use xlink:href="#DejaVuSans-30" x="63.623047"/>
       <use xlink:href="#DejaVuSans-30" x="127.246094"/>
      </g>
     </g>
    </g>
    <g id="text_5">
     <!-- Diploid N$_e$0 -->
     <g transform="translate(80 227.01375) scale(0.16 -0.16)">
      <defs>
       <path id="DejaVuSans-44" d="M 1259 4147 
L 1259 519 
L 2022 519 
Q 2988 519 3436 956 
Q 3884 1394 3884 2338 
Q 3884 3275 3436 3711 
Q 2988 4147 2022 4147 
L 1259 4147 
z
M 628 4666 
L 1925 4666 
Q 3281 4666 3915 4102 
Q 4550 3538 4550 2338 
Q 4550 1131 3912 565 
Q 3275 0 1925 0 
L 628 0 
L 628 4666 
z
" transform="scale(0.015625)"/>
       <path id="DejaVuSans-69" d="M 603 3500 
L 1178 3500 
L 1178 0 
L 603 0 
L 603 3500 
z
M 603 4863 
L 1178 4863 
L 1178 4134 
L 603 4134 
L 603 4863 
z
" transform="scale(0.015625)"/>
       <path id="DejaVuSans-70" d="M 1159 525 
L 1159 -1331 
L 581 -1331 
L 581 3500 
L 1159 3500 
L 1159 2969 
Q 1341 3281 1617 3432 
Q 1894 3584 2278 3584 
Q 2916 3584 3314 3078 
Q 3713 2572 3713 1747 
Q 3713 922 3314 415 
Q 2916 -91 2278 -91 
Q 1894 -91 1617 61 
Q 1341 213 1159 525 
z
M 3116 1747 
Q 3116 2381 2855 2742 
Q 2594 3103 2138 3103 
Q 1681 3103 1420 2742 
Q 1159 2381 1159 1747 
Q 1159 1113 1420 752 
Q 1681 391 2138 391 
Q 2594 391 2855 752 
Q 3116 1113 3116 1747 
z
" transform="scale(0.015625)"/>
       <path id="DejaVuSans-6c" d="M 603 4863 
L 1178 4863 
L 1178 0 
L 603 0 
L 603 4863 
z
" transform="scale(0.015625)"/>
       <path id="DejaVuSans-6f" d="M 1959 3097 
Q 1497 3097 1228 2736 
Q 959 2375 959 1747 
Q 959 1119 1226 758 
Q 1494 397 1959 397 
Q 2419 397 2687 759 
Q 2956 1122 2956 1747 
Q 2956 2369 2687 2733 
Q 2419 3097 1959 3097 
z
M 1959 3584 
Q 2709 3584 3137 3096 
Q 3566 2609 3566 1747 
Q 3566 888 3137 398 
Q 2709 -91 1959 -91 
Q 1206 -91 779 398 
Q 353 888 353 1747 
Q 353 2609 779 3096 
Q 1206 3584 1959 3584 
z
" transform="scale(0.015625)"/>
       <path id="DejaVuSans-64" d="M 2906 2969 
L 2906 4863 
L 3481 4863 
L 3481 0 
L 2906 0 
L 2906 525 
Q 2725 213 2448 61 
Q 2172 -91 1784 -91 
Q 1150 -91 751 415 
Q 353 922 353 1747 
Q 353 2572 751 3078 
Q 1150 3584 1784 3584 
Q 2172 3584 2448 3432 
Q 2725 3281 2906 2969 
z
M 947 1747 
Q 947 1113 1208 752 
Q 1469 391 1925 391 
Q 2381 391 2643 752 
Q 2906 1113 2906 1747 
Q 2906 2381 2643 2742 
Q 2381 3103 1925 3103 
Q 1469 3103 1208 2742 
Q 947 2381 947 1747 
z
" transform="scale(0.015625)"/>
       <path id="DejaVuSans-20" transform="scale(0.015625)"/>
       <path id="DejaVuSans-4e" d="M 628 4666 
L 1478 4666 
L 3547 763 
L 3547 4666 
L 4159 4666 
L 4159 0 
L 3309 0 
L 1241 3903 
L 1241 0 
L 628 0 
L 628 4666 
z
" transform="scale(0.015625)"/>
       <path id="DejaVuSans-Oblique-65" d="M 3078 2063 
Q 3088 2113 3092 2166 
Q 3097 2219 3097 2272 
Q 3097 2653 2873 2875 
Q 2650 3097 2266 3097 
Q 1838 3097 1509 2826 
Q 1181 2556 1013 2059 
L 3078 2063 
z
M 3578 1613 
L 903 1613 
Q 884 1494 878 1425 
Q 872 1356 872 1306 
Q 872 872 1139 634 
Q 1406 397 1894 397 
Q 2269 397 2603 481 
Q 2938 566 3225 728 
L 3116 159 
Q 2806 34 2476 -28 
Q 2147 -91 1806 -91 
Q 1078 -91 686 257 
Q 294 606 294 1247 
Q 294 1794 489 2264 
Q 684 2734 1063 3103 
Q 1306 3334 1642 3459 
Q 1978 3584 2356 3584 
Q 2950 3584 3301 3228 
Q 3653 2872 3653 2272 
Q 3653 2128 3634 1964 
Q 3616 1800 3578 1613 
z
" transform="scale(0.015625)"/>
      </defs>
      <use xlink:href="#DejaVuSans-44" transform="translate(0 0.015625)"/>
      <use xlink:href="#DejaVuSans-69" transform="translate(77.001953 0.015625)"/>
      <use xlink:href="#DejaVuSans-70" transform="translate(104.785156 0.015625)"/>
      <use xlink:href="#DejaVuSans-6c" transform="translate(168.261719 0.015625)"/>
      <use xlink:href="#DejaVuSans-6f" transform="translate(196.044922 0.015625)"/>
      <use xlink:href="#DejaVuSans-69" transform="translate(257.226562 0.015625)"/>
      <use xlink:href="#DejaVuSans-64" transform="translate(285.009766 0.015625)"/>
      <use xlink:href="#DejaVuSans-20" transform="translate(348.486328 0.015625)"/>
      <use xlink:href="#DejaVuSans-4e" transform="translate(380.273438 0.015625)"/>
      <use xlink:href="#DejaVuSans-Oblique-65" transform="translate(456.035156 -16.390625) scale(0.7)"/>
      <use xlink:href="#DejaVuSans-30" transform="translate(501.835938 0.015625)"/>
     </g>
    </g>
    <g id="text_6">
     <!-- 1e3 -->
     <g transform="translate(195.681875 221.452188) scale(0.1 -0.1)">
      <defs>
       <path id="DejaVuSans-31" d="M 794 531 
L 1825 531 
L 1825 4091 
L 703 3866 
L 703 4441 
L 1819 4666 
L 2450 4666 
L 2450 531 
L 3481 531 
L 3481 0 
L 794 0 
L 794 531 
z
" transform="scale(0.015625)"/>
       <path id="DejaVuSans-65" d="M 3597 1894 
L 3597 1613 
L 953 1613 
Q 991 1019 1311 708 
Q 1631 397 2203 397 
Q 2534 397 2845 478 
Q 3156 559 3463 722 
L 3463 178 
Q 3153 47 2828 -22 
Q 2503 -91 2169 -91 
Q 1331 -91 842 396 
Q 353 884 353 1716 
Q 353 2575 817 3079 
Q 1281 3584 2069 3584 
Q 2775 3584 3186 3129 
Q 3597 2675 3597 1894 
z
M 3022 2063 
Q 3016 2534 2758 2815 
Q 2500 3097 2075 3097 
Q 1594 3097 1305 2825 
Q 1016 2553 972 2059 
L 3022 2063 
z
" transform="scale(0.015625)"/>
       <path id="DejaVuSans-33" d="M 2597 2516 
Q 3050 2419 3304 2112 
Q 3559 1806 3559 1356 
Q 3559 666 3084 287 
Q 2609 -91 1734 -91 
Q 1441 -91 1130 -33 
Q 819 25 488 141 
L 488 750 
Q 750 597 1062 519 
Q 1375 441 1716 441 
Q 2309 441 2620 675 
Q 2931 909 2931 1356 
Q 2931 1769 2642 2001 
Q 2353 2234 1838 2234 
L 1294 2234 
L 1294 2753 
L 1863 2753 
Q 2328 2753 2575 2939 
Q 2822 3125 2822 3475 
Q 2822 3834 2567 4026 
Q 2313 4219 1838 4219 
Q 1578 4219 1281 4162 
Q 984 4106 628 3988 
L 628 4550 
Q 988 4650 1302 4700 
Q 1616 4750 1894 4750 
Q 2613 4750 3031 4423 
Q 3450 4097 3450 3541 
Q 3450 3153 3228 2886 
Q 3006 2619 2597 2516 
z
" transform="scale(0.015625)"/>
      </defs>
      <use xlink:href="#DejaVuSans-31"/>
      <use xlink:href="#DejaVuSans-65" x="63.623047"/>
      <use xlink:href="#DejaVuSans-33" x="125.146484"/>
     </g>
    </g>
   </g>
   <g id="matplotlib.axis_2">
    <g id="ytick_1">
     <g id="line2d_5">
      <defs>
       <path id="mcbfff32cac" d="M 0 0 
L -3.5 0 
" style="stroke: #000000; stroke-width: 0.8"/>
      </defs>
      <g>
       <use xlink:href="#mcbfff32cac" x="36" y="192.24" style="stroke: #000000; stroke-width: 0.8"/>
      </g>
     </g>
     <g id="text_7">
      <!-- 1.0 -->
      <g transform="translate(9.91625 196.799062) scale(0.12 -0.12)">
       <defs>
        <path id="DejaVuSans-2e" d="M 684 794 
L 1344 794 
L 1344 0 
L 684 0 
L 684 794 
z
" transform="scale(0.015625)"/>
       </defs>
       <use xlink:href="#DejaVuSans-31"/>
       <use xlink:href="#DejaVuSans-2e" x="63.623047"/>
       <use xlink:href="#DejaVuSans-30" x="95.410156"/>
      </g>
     </g>
    </g>
    <g id="ytick_2">
     <g id="line2d_6">
      <g>
       <use xlink:href="#mcbfff32cac" x="36" y="150.66" style="stroke: #000000; stroke-width: 0.8"/>
      </g>
     </g>
     <g id="text_8">
      <!-- 1.5 -->
      <g transform="translate(9.91625 155.219063) scale(0.12 -0.12)">
       <defs>
        <path id="DejaVuSans-35" d="M 691 4666 
L 3169 4666 
L 3169 4134 
L 1269 4134 
L 1269 2991 
Q 1406 3038 1543 3061 
Q 1681 3084 1819 3084 
Q 2600 3084 3056 2656 
Q 3513 2228 3513 1497 
Q 3513 744 3044 326 
Q 2575 -91 1722 -91 
Q 1428 -91 1123 -41 
Q 819 9 494 109 
L 494 744 
Q 775 591 1075 516 
Q 1375 441 1709 441 
Q 2250 441 2565 725 
Q 2881 1009 2881 1497 
Q 2881 1984 2565 2268 
Q 2250 2553 1709 2553 
Q 1456 2553 1204 2497 
Q 953 2441 691 2322 
L 691 4666 
z
" transform="scale(0.015625)"/>
       </defs>
       <use xlink:href="#DejaVuSans-31"/>
       <use xlink:href="#DejaVuSans-2e" x="63.623047"/>
       <use xlink:href="#DejaVuSans-35" x="95.410156"/>
      </g>
     </g>
    </g>
    <g id="ytick_3">
     <g id="line2d_7">
      <g>
       <use xlink:href="#mcbfff32cac" x="36" y="109.08" style="stroke: #000000; stroke-width: 0.8"/>
      </g>
     </g>
     <g id="text_9">
      <!-- 2.0 -->
      <g transform="translate(9.91625 113.639062) scale(0.12 -0.12)">
       <use xlink:href="#DejaVuSans-32"/>
       <use xlink:href="#DejaVuSans-2e" x="63.623047"/>
       <use xlink:href="#DejaVuSans-30" x="95.410156"/>
      </g>
     </g>
    </g>
    <g id="ytick_4">
     <g id="line2d_8">
      <g>
       <use xlink:href="#mcbfff32cac" x="36" y="67.5" style="stroke: #000000; stroke-width: 0.8"/>
      </g>
     </g>
     <g id="text_10">
      <!-- 2.5 -->
      <g transform="translate(9.91625 72.059063) scale(0.12 -0.12)">
       <use xlink:href="#DejaVuSans-32"/>
       <use xlink:href="#DejaVuSans-2e" x="63.623047"/>
       <use xlink:href="#DejaVuSans-35" x="95.410156"/>
      </g>
     </g>
    </g>
    <g id="ytick_5">
     <g id="line2d_9">
      <g>
       <use xlink:href="#mcbfff32cac" x="36" y="25.92" style="stroke: #000000; stroke-width: 0.8"/>
      </g>
     </g>
     <g id="text_11">
      <!-- 3.0 -->
      <g transform="translate(9.91625 30.479062) scale(0.12 -0.12)">
       <use xlink:href="#DejaVuSans-33"/>
       <use xlink:href="#DejaVuSans-2e" x="63.623047"/>
       <use xlink:href="#DejaVuSans-30" x="95.410156"/>
      </g>
     </g>
    </g>
    <g id="text_12">
     <!-- Recombination rate -->
     <g transform="translate(2.58875 187.6775) rotate(-90) scale(0.16 -0.16)">
      <defs>
       <path id="DejaVuSans-52" d="M 2841 2188 
Q 3044 2119 3236 1894 
Q 3428 1669 3622 1275 
L 4263 0 
L 3584 0 
L 2988 1197 
Q 2756 1666 2539 1819 
Q 2322 1972 1947 1972 
L 1259 1972 
L 1259 0 
L 628 0 
L 628 4666 
L 2053 4666 
Q 2853 4666 3247 4331 
Q 3641 3997 3641 3322 
Q 3641 2881 3436 2590 
Q 3231 2300 2841 2188 
z
M 1259 4147 
L 1259 2491 
L 2053 2491 
Q 2509 2491 2742 2702 
Q 2975 2913 2975 3322 
Q 2975 3731 2742 3939 
Q 2509 4147 2053 4147 
L 1259 4147 
z
" transform="scale(0.015625)"/>
       <path id="DejaVuSans-63" d="M 3122 3366 
L 3122 2828 
Q 2878 2963 2633 3030 
Q 2388 3097 2138 3097 
Q 1578 3097 1268 2742 
Q 959 2388 959 1747 
Q 959 1106 1268 751 
Q 1578 397 2138 397 
Q 2388 397 2633 464 
Q 2878 531 3122 666 
L 3122 134 
Q 2881 22 2623 -34 
Q 2366 -91 2075 -91 
Q 1284 -91 818 406 
Q 353 903 353 1747 
Q 353 2603 823 3093 
Q 1294 3584 2113 3584 
Q 2378 3584 2631 3529 
Q 2884 3475 3122 3366 
z
" transform="scale(0.015625)"/>
       <path id="DejaVuSans-6d" d="M 3328 2828 
Q 3544 3216 3844 3400 
Q 4144 3584 4550 3584 
Q 5097 3584 5394 3201 
Q 5691 2819 5691 2113 
L 5691 0 
L 5113 0 
L 5113 2094 
Q 5113 2597 4934 2840 
Q 4756 3084 4391 3084 
Q 3944 3084 3684 2787 
Q 3425 2491 3425 1978 
L 3425 0 
L 2847 0 
L 2847 2094 
Q 2847 2600 2669 2842 
Q 2491 3084 2119 3084 
Q 1678 3084 1418 2786 
Q 1159 2488 1159 1978 
L 1159 0 
L 581 0 
L 581 3500 
L 1159 3500 
L 1159 2956 
Q 1356 3278 1631 3431 
Q 1906 3584 2284 3584 
Q 2666 3584 2933 3390 
Q 3200 3197 3328 2828 
z
" transform="scale(0.015625)"/>
       <path id="DejaVuSans-62" d="M 3116 1747 
Q 3116 2381 2855 2742 
Q 2594 3103 2138 3103 
Q 1681 3103 1420 2742 
Q 1159 2381 1159 1747 
Q 1159 1113 1420 752 
Q 1681 391 2138 391 
Q 2594 391 2855 752 
Q 3116 1113 3116 1747 
z
M 1159 2969 
Q 1341 3281 1617 3432 
Q 1894 3584 2278 3584 
Q 2916 3584 3314 3078 
Q 3713 2572 3713 1747 
Q 3713 922 3314 415 
Q 2916 -91 2278 -91 
Q 1894 -91 1617 61 
Q 1341 213 1159 525 
L 1159 0 
L 581 0 
L 581 4863 
L 1159 4863 
L 1159 2969 
z
" transform="scale(0.015625)"/>
       <path id="DejaVuSans-6e" d="M 3513 2113 
L 3513 0 
L 2938 0 
L 2938 2094 
Q 2938 2591 2744 2837 
Q 2550 3084 2163 3084 
Q 1697 3084 1428 2787 
Q 1159 2491 1159 1978 
L 1159 0 
L 581 0 
L 581 3500 
L 1159 3500 
L 1159 2956 
Q 1366 3272 1645 3428 
Q 1925 3584 2291 3584 
Q 2894 3584 3203 3211 
Q 3513 2838 3513 2113 
z
" transform="scale(0.015625)"/>
       <path id="DejaVuSans-61" d="M 2194 1759 
Q 1497 1759 1228 1600 
Q 959 1441 959 1056 
Q 959 750 1161 570 
Q 1363 391 1709 391 
Q 2188 391 2477 730 
Q 2766 1069 2766 1631 
L 2766 1759 
L 2194 1759 
z
M 3341 1997 
L 3341 0 
L 2766 0 
L 2766 531 
Q 2569 213 2275 61 
Q 1981 -91 1556 -91 
Q 1019 -91 701 211 
Q 384 513 384 1019 
Q 384 1609 779 1909 
Q 1175 2209 1959 2209 
L 2766 2209 
L 2766 2266 
Q 2766 2663 2505 2880 
Q 2244 3097 1772 3097 
Q 1472 3097 1187 3025 
Q 903 2953 641 2809 
L 641 3341 
Q 956 3463 1253 3523 
Q 1550 3584 1831 3584 
Q 2591 3584 2966 3190 
Q 3341 2797 3341 1997 
z
" transform="scale(0.015625)"/>
       <path id="DejaVuSans-74" d="M 1172 4494 
L 1172 3500 
L 2356 3500 
L 2356 3053 
L 1172 3053 
L 1172 1153 
Q 1172 725 1289 603 
Q 1406 481 1766 481 
L 2356 481 
L 2356 0 
L 1766 0 
Q 1100 0 847 248 
Q 594 497 594 1153 
L 594 3053 
L 172 3053 
L 172 3500 
L 594 3500 
L 594 4494 
L 1172 4494 
z
" transform="scale(0.015625)"/>
       <path id="DejaVuSans-72" d="M 2631 2963 
Q 2534 3019 2420 3045 
Q 2306 3072 2169 3072 
Q 1681 3072 1420 2755 
Q 1159 2438 1159 1844 
L 1159 0 
L 581 0 
L 581 3500 
L 1159 3500 
L 1159 2956 
Q 1341 3275 1631 3429 
Q 1922 3584 2338 3584 
Q 2397 3584 2469 3576 
Q 2541 3569 2628 3553 
L 2631 2963 
z
" transform="scale(0.015625)"/>
      </defs>
      <use xlink:href="#DejaVuSans-52"/>
      <use xlink:href="#DejaVuSans-65" x="64.982422"/>
      <use xlink:href="#DejaVuSans-63" x="126.505859"/>
      <use xlink:href="#DejaVuSans-6f" x="181.486328"/>
      <use xlink:href="#DejaVuSans-6d" x="242.667969"/>
      <use xlink:href="#DejaVuSans-62" x="340.080078"/>
      <use xlink:href="#DejaVuSans-69" x="403.556641"/>
      <use xlink:href="#DejaVuSans-6e" x="431.339844"/>
      <use xlink:href="#DejaVuSans-61" x="494.71875"/>
      <use xlink:href="#DejaVuSans-74" x="555.998047"/>
      <use xlink:href="#DejaVuSans-69" x="595.207031"/>
      <use xlink:href="#DejaVuSans-6f" x="622.990234"/>
      <use xlink:href="#DejaVuSans-6e" x="684.171875"/>
      <use xlink:href="#DejaVuSans-20" x="747.550781"/>
      <use xlink:href="#DejaVuSans-72" x="779.337891"/>
      <use xlink:href="#DejaVuSans-61" x="820.451172"/>
      <use xlink:href="#DejaVuSans-74" x="881.730469"/>
      <use xlink:href="#DejaVuSans-65" x="920.939453"/>
     </g>
    </g>
    <g id="text_13">
     <!-- 1e9 -->
     <g transform="translate(36 22.92) scale(0.1 -0.1)">
      <defs>
       <path id="DejaVuSans-2212" d="M 678 2272 
L 4684 2272 
L 4684 1741 
L 678 1741 
L 678 2272 
z
" transform="scale(0.015625)"/>
       <path id="DejaVuSans-39" d="M 703 97 
L 703 672 
Q 941 559 1184 500 
Q 1428 441 1663 441 
Q 2288 441 2617 861 
Q 2947 1281 2994 2138 
Q 2813 1869 2534 1725 
Q 2256 1581 1919 1581 
Q 1219 1581 811 2004 
Q 403 2428 403 3163 
Q 403 3881 828 4315 
Q 1253 4750 1959 4750 
Q 2769 4750 3195 4129 
Q 3622 3509 3622 2328 
Q 3622 1225 3098 567 
Q 2575 -91 1691 -91 
Q 1453 -91 1209 -44 
Q 966 3 703 97 
z
M 1959 2075 
Q 2384 2075 2632 2365 
Q 2881 2656 2881 3163 
Q 2881 3666 2632 3958 
Q 2384 4250 1959 4250 
Q 1534 4250 1286 3958 
Q 1038 3666 1038 3163 
Q 1038 2656 1286 2365 
Q 1534 2075 1959 2075 
z
" transform="scale(0.015625)"/>
      </defs>
      <use xlink:href="#DejaVuSans-31"/>
      <use xlink:href="#DejaVuSans-65" x="63.623047"/>
      <use xlink:href="#DejaVuSans-2212" x="125.146484"/>
      <use xlink:href="#DejaVuSans-39" x="208.935547"/>
     </g>
    </g>
   </g>
   <g id="patch_3">
    <path d="M 36 192.24 
L 36 25.92 
" style="fill: none; stroke: #000000; stroke-width: 0.8; stroke-linejoin: miter; stroke-linecap: square"/>
   </g>
   <g id="patch_4">
    <path d="M 214.56 192.24 
L 214.56 25.92 
" style="fill: none; stroke: #000000; stroke-width: 0.8; stroke-linejoin: miter; stroke-linecap: square"/>
   </g>
   <g id="patch_5">
    <path d="M 36 192.24 
L 214.56 192.24 
" style="fill: none; stroke: #000000; stroke-width: 0.8; stroke-linejoin: miter; stroke-linecap: square"/>
   </g>
   <g id="patch_6">
    <path d="M 36 25.92 
L 214.56 25.92 
" style="fill: none; stroke: #000000; stroke-width: 0.8; stroke-linejoin: miter; stroke-linecap: square"/>
   </g>
   <g id="text_14">
    <!-- Ne0r-MSSMC-R-P2-S4 -->
    <g transform="translate(40.08875 10.92) scale(0.16 -0.16)">
     <defs>
      <path id="DejaVuSans-2d" d="M 313 2009 
L 1997 2009 
L 1997 1497 
L 313 1497 
L 313 2009 
z
" transform="scale(0.015625)"/>
      <path id="DejaVuSans-4d" d="M 628 4666 
L 1569 4666 
L 2759 1491 
L 3956 4666 
L 4897 4666 
L 4897 0 
L 4281 0 
L 4281 4097 
L 3078 897 
L 2444 897 
L 1241 4097 
L 1241 0 
L 628 0 
L 628 4666 
z
" transform="scale(0.015625)"/>
      <path id="DejaVuSans-53" d="M 3425 4513 
L 3425 3897 
Q 3066 4069 2747 4153 
Q 2428 4238 2131 4238 
Q 1616 4238 1336 4038 
Q 1056 3838 1056 3469 
Q 1056 3159 1242 3001 
Q 1428 2844 1947 2747 
L 2328 2669 
Q 3034 2534 3370 2195 
Q 3706 1856 3706 1288 
Q 3706 609 3251 259 
Q 2797 -91 1919 -91 
Q 1588 -91 1214 -16 
Q 841 59 441 206 
L 441 856 
Q 825 641 1194 531 
Q 1563 422 1919 422 
Q 2459 422 2753 634 
Q 3047 847 3047 1241 
Q 3047 1584 2836 1778 
Q 2625 1972 2144 2069 
L 1759 2144 
Q 1053 2284 737 2584 
Q 422 2884 422 3419 
Q 422 4038 858 4394 
Q 1294 4750 2059 4750 
Q 2388 4750 2728 4690 
Q 3069 4631 3425 4513 
z
" transform="scale(0.015625)"/>
      <path id="DejaVuSans-43" d="M 4122 4306 
L 4122 3641 
Q 3803 3938 3442 4084 
Q 3081 4231 2675 4231 
Q 1875 4231 1450 3742 
Q 1025 3253 1025 2328 
Q 1025 1406 1450 917 
Q 1875 428 2675 428 
Q 3081 428 3442 575 
Q 3803 722 4122 1019 
L 4122 359 
Q 3791 134 3420 21 
Q 3050 -91 2638 -91 
Q 1578 -91 968 557 
Q 359 1206 359 2328 
Q 359 3453 968 4101 
Q 1578 4750 2638 4750 
Q 3056 4750 3426 4639 
Q 3797 4528 4122 4306 
z
" transform="scale(0.015625)"/>
      <path id="DejaVuSans-50" d="M 1259 4147 
L 1259 2394 
L 2053 2394 
Q 2494 2394 2734 2622 
Q 2975 2850 2975 3272 
Q 2975 3691 2734 3919 
Q 2494 4147 2053 4147 
L 1259 4147 
z
M 628 4666 
L 2053 4666 
Q 2838 4666 3239 4311 
Q 3641 3956 3641 3272 
Q 3641 2581 3239 2228 
Q 2838 1875 2053 1875 
L 1259 1875 
L 1259 0 
L 628 0 
L 628 4666 
z
" transform="scale(0.015625)"/>
     </defs>
     <use xlink:href="#DejaVuSans-4e"/>
     <use xlink:href="#DejaVuSans-65" x="74.804688"/>
     <use xlink:href="#DejaVuSans-30" x="136.328125"/>
     <use xlink:href="#DejaVuSans-72" x="199.951172"/>
     <use xlink:href="#DejaVuSans-2d" x="234.689453"/>
     <use xlink:href="#DejaVuSans-4d" x="270.773438"/>
     <use xlink:href="#DejaVuSans-53" x="357.052734"/>
     <use xlink:href="#DejaVuSans-53" x="420.529297"/>
     <use xlink:href="#DejaVuSans-4d" x="484.005859"/>
     <use xlink:href="#DejaVuSans-43" x="570.285156"/>
     <use xlink:href="#DejaVuSans-2d" x="640.109375"/>
     <use xlink:href="#DejaVuSans-52" x="676.193359"/>
     <use xlink:href="#DejaVuSans-2d" x="741.675781"/>
     <use xlink:href="#DejaVuSans-50" x="777.759766"/>
     <use xlink:href="#DejaVuSans-32" x="838.0625"/>
     <use xlink:href="#DejaVuSans-2d" x="901.685547"/>
     <use xlink:href="#DejaVuSans-53" x="937.769531"/>
     <use xlink:href="#DejaVuSans-34" x="1001.246094"/>
    </g>
   </g>
  </g>
  <g id="axes_2">
   <g id="patch_7">
    <path d="M 225.72 192.24 
L 234.036 192.24 
L 234.036 25.92 
L 225.72 25.92 
z
" style="fill: #ffffff"/>
   </g>
   <g id="QuadMesh_1">
    <path d="M 225.72 192.24 
L 234.036 192.24 
L 234.036 181.845 
L 225.72 181.845 
L 225.72 192.24 
" clip-path="url(#p42ceb4cc77)" style="fill: #eae51a"/>
    <path d="M 225.72 181.845 
L 234.036 181.845 
L 234.036 171.45 
L 225.72 171.45 
L 225.72 181.845 
" clip-path="url(#p42ceb4cc77)" style="fill: #c0df25"/>
    <path d="M 225.72 171.45 
L 234.036 171.45 
L 234.036 161.055 
L 225.72 161.055 
L 225.72 171.45 
" clip-path="url(#p42ceb4cc77)" style="fill: #95d840"/>
    <path d="M 225.72 161.055 
L 234.036 161.055 
L 234.036 150.66 
L 225.72 150.66 
L 225.72 161.055 
" clip-path="url(#p42ceb4cc77)" style="fill: #6ece58"/>
    <path d="M 225.72 150.66 
L 234.036 150.66 
L 234.036 140.265 
L 225.72 140.265 
L 225.72 150.66 
" clip-path="url(#p42ceb4cc77)" style="fill: #4cc26c"/>
    <path d="M 225.72 140.265 
L 234.036 140.265 
L 234.036 129.87 
L 225.72 129.87 
L 225.72 140.265 
" clip-path="url(#p42ceb4cc77)" style="fill: #31b57b"/>
    <path d="M 225.72 129.87 
L 234.036 129.87 
L 234.036 119.475 
L 225.72 119.475 
L 225.72 129.87 
" clip-path="url(#p42ceb4cc77)" style="fill: #21a685"/>
    <path d="M 225.72 119.475 
L 234.036 119.475 
L 234.036 109.08 
L 225.72 109.08 
L 225.72 119.475 
" clip-path="url(#p42ceb4cc77)" style="fill: #1f978b"/>
    <path d="M 225.72 109.08 
L 234.036 109.08 
L 234.036 98.685 
L 225.72 98.685 
L 225.72 109.08 
" clip-path="url(#p42ceb4cc77)" style="fill: #23888e"/>
    <path d="M 225.72 98.685 
L 234.036 98.685 
L 234.036 88.29 
L 225.72 88.29 
L 225.72 98.685 
" clip-path="url(#p42ceb4cc77)" style="fill: #29798e"/>
    <path d="M 225.72 88.29 
L 234.036 88.29 
L 234.036 77.895 
L 225.72 77.895 
L 225.72 88.29 
" clip-path="url(#p42ceb4cc77)" style="fill: #306a8e"/>
    <path d="M 225.72 77.895 
L 234.036 77.895 
L 234.036 67.5 
L 225.72 67.5 
L 225.72 77.895 
" clip-path="url(#p42ceb4cc77)" style="fill: #375a8c"/>
    <path d="M 225.72 67.5 
L 234.036 67.5 
L 234.036 57.105 
L 225.72 57.105 
L 225.72 67.5 
" clip-path="url(#p42ceb4cc77)" style="fill: #3f4889"/>
    <path d="M 225.72 57.105 
L 234.036 57.105 
L 234.036 46.71 
L 225.72 46.71 
L 225.72 57.105 
" clip-path="url(#p42ceb4cc77)" style="fill: #453581"/>
    <path d="M 225.72 46.71 
L 234.036 46.71 
L 234.036 36.315 
L 225.72 36.315 
L 225.72 46.71 
" clip-path="url(#p42ceb4cc77)" style="fill: #482173"/>
    <path d="M 225.72 36.315 
L 234.036 36.315 
L 234.036 25.92 
L 225.72 25.92 
L 225.72 36.315 
" clip-path="url(#p42ceb4cc77)" style="fill: #460b5e"/>
   </g>
   <g id="matplotlib.axis_3"/>
   <g id="matplotlib.axis_4">
    <g id="ytick_6">
     <g id="line2d_10">
      <defs>
       <path id="m6f3eec0442" d="M 0 0 
L 3.5 0 
" style="stroke: #000000; stroke-width: 0.8"/>
      </defs>
      <g>
       <use xlink:href="#m6f3eec0442" x="234.036" y="192.24" style="stroke: #000000; stroke-width: 0.8"/>
      </g>
     </g>
     <g id="text_15">
      <!-- $\mathdefault{0.0}$ -->
      <g transform="translate(241.036 196.039219) scale(0.1 -0.1)">
       <use xlink:href="#DejaVuSans-30" transform="translate(0 0.78125)"/>
       <use xlink:href="#DejaVuSans-2e" transform="translate(63.623047 0.78125)"/>
       <use xlink:href="#DejaVuSans-30" transform="translate(95.410156 0.78125)"/>
      </g>
     </g>
    </g>
    <g id="ytick_7">
     <g id="line2d_11">
      <g>
       <use xlink:href="#m6f3eec0442" x="234.036" y="171.45" style="stroke: #000000; stroke-width: 0.8"/>
      </g>
     </g>
     <g id="text_16">
      <!-- $\mathdefault{0.6}$ -->
      <g transform="translate(241.036 175.249219) scale(0.1 -0.1)">
       <use xlink:href="#DejaVuSans-30" transform="translate(0 0.78125)"/>
       <use xlink:href="#DejaVuSans-2e" transform="translate(63.623047 0.78125)"/>
       <use xlink:href="#DejaVuSans-36" transform="translate(95.410156 0.78125)"/>
      </g>
     </g>
    </g>
    <g id="ytick_8">
     <g id="line2d_12">
      <g>
       <use xlink:href="#m6f3eec0442" x="234.036" y="150.66" style="stroke: #000000; stroke-width: 0.8"/>
      </g>
     </g>
     <g id="text_17">
      <!-- $\mathdefault{1.2}$ -->
      <g transform="translate(241.036 154.459219) scale(0.1 -0.1)">
       <use xlink:href="#DejaVuSans-31" transform="translate(0 0.78125)"/>
       <use xlink:href="#DejaVuSans-2e" transform="translate(63.623047 0.78125)"/>
       <use xlink:href="#DejaVuSans-32" transform="translate(89.910156 0.78125)"/>
      </g>
     </g>
    </g>
    <g id="ytick_9">
     <g id="line2d_13">
      <g>
       <use xlink:href="#m6f3eec0442" x="234.036" y="129.87" style="stroke: #000000; stroke-width: 0.8"/>
      </g>
     </g>
     <g id="text_18">
      <!-- $\mathdefault{1.8}$ -->
      <g transform="translate(241.036 133.669219) scale(0.1 -0.1)">
       <use xlink:href="#DejaVuSans-31" transform="translate(0 0.78125)"/>
       <use xlink:href="#DejaVuSans-2e" transform="translate(63.623047 0.78125)"/>
       <use xlink:href="#DejaVuSans-38" transform="translate(92.785156 0.78125)"/>
      </g>
     </g>
    </g>
    <g id="ytick_10">
     <g id="line2d_14">
      <g>
       <use xlink:href="#m6f3eec0442" x="234.036" y="109.08" style="stroke: #000000; stroke-width: 0.8"/>
      </g>
     </g>
     <g id="text_19">
      <!-- $\mathdefault{2.4}$ -->
      <g transform="translate(241.036 112.879219) scale(0.1 -0.1)">
       <use xlink:href="#DejaVuSans-32" transform="translate(0 0.78125)"/>
       <use xlink:href="#DejaVuSans-2e" transform="translate(63.623047 0.78125)"/>
       <use xlink:href="#DejaVuSans-34" transform="translate(95.410156 0.78125)"/>
      </g>
     </g>
    </g>
    <g id="ytick_11">
     <g id="line2d_15">
      <g>
       <use xlink:href="#m6f3eec0442" x="234.036" y="88.29" style="stroke: #000000; stroke-width: 0.8"/>
      </g>
     </g>
     <g id="text_20">
      <!-- $\mathdefault{3.0}$ -->
      <g transform="translate(241.036 92.089219) scale(0.1 -0.1)">
       <use xlink:href="#DejaVuSans-33" transform="translate(0 0.78125)"/>
       <use xlink:href="#DejaVuSans-2e" transform="translate(63.623047 0.78125)"/>
       <use xlink:href="#DejaVuSans-30" transform="translate(95.410156 0.78125)"/>
      </g>
     </g>
    </g>
    <g id="ytick_12">
     <g id="line2d_16">
      <g>
       <use xlink:href="#m6f3eec0442" x="234.036" y="67.5" style="stroke: #000000; stroke-width: 0.8"/>
      </g>
     </g>
     <g id="text_21">
      <!-- $\mathdefault{3.6}$ -->
      <g transform="translate(241.036 71.299219) scale(0.1 -0.1)">
       <use xlink:href="#DejaVuSans-33" transform="translate(0 0.78125)"/>
       <use xlink:href="#DejaVuSans-2e" transform="translate(63.623047 0.78125)"/>
       <use xlink:href="#DejaVuSans-36" transform="translate(95.410156 0.78125)"/>
      </g>
     </g>
    </g>
    <g id="ytick_13">
     <g id="line2d_17">
      <g>
       <use xlink:href="#m6f3eec0442" x="234.036" y="46.71" style="stroke: #000000; stroke-width: 0.8"/>
      </g>
     </g>
     <g id="text_22">
      <!-- $\mathdefault{4.2}$ -->
      <g transform="translate(241.036 50.509219) scale(0.1 -0.1)">
       <use xlink:href="#DejaVuSans-34" transform="translate(0 0.78125)"/>
       <use xlink:href="#DejaVuSans-2e" transform="translate(63.623047 0.78125)"/>
       <use xlink:href="#DejaVuSans-32" transform="translate(89.910156 0.78125)"/>
      </g>
     </g>
    </g>
    <g id="ytick_14">
     <g id="line2d_18">
      <g>
       <use xlink:href="#m6f3eec0442" x="234.036" y="25.92" style="stroke: #000000; stroke-width: 0.8"/>
      </g>
     </g>
     <g id="text_23">
      <!-- $\mathdefault{4.8}$ -->
      <g transform="translate(241.036 29.719219) scale(0.1 -0.1)">
       <use xlink:href="#DejaVuSans-34" transform="translate(0 0.78125)"/>
       <use xlink:href="#DejaVuSans-2e" transform="translate(63.623047 0.78125)"/>
       <use xlink:href="#DejaVuSans-38" transform="translate(92.785156 0.78125)"/>
      </g>
     </g>
    </g>
    <g id="text_24">
     <!-- $\Delta$ log likelihood -->
     <g transform="translate(270.156 154.98) rotate(-90) scale(0.12 -0.12)">
      <defs>
       <path id="DejaVuSans-394" d="M 2188 4044 
L 906 525 
L 3472 525 
L 2188 4044 
z
M 50 0 
L 1831 4666 
L 2547 4666 
L 4325 0 
L 50 0 
z
" transform="scale(0.015625)"/>
       <path id="DejaVuSans-67" d="M 2906 1791 
Q 2906 2416 2648 2759 
Q 2391 3103 1925 3103 
Q 1463 3103 1205 2759 
Q 947 2416 947 1791 
Q 947 1169 1205 825 
Q 1463 481 1925 481 
Q 2391 481 2648 825 
Q 2906 1169 2906 1791 
z
M 3481 434 
Q 3481 -459 3084 -895 
Q 2688 -1331 1869 -1331 
Q 1566 -1331 1297 -1286 
Q 1028 -1241 775 -1147 
L 775 -588 
Q 1028 -725 1275 -790 
Q 1522 -856 1778 -856 
Q 2344 -856 2625 -561 
Q 2906 -266 2906 331 
L 2906 616 
Q 2728 306 2450 153 
Q 2172 0 1784 0 
Q 1141 0 747 490 
Q 353 981 353 1791 
Q 353 2603 747 3093 
Q 1141 3584 1784 3584 
Q 2172 3584 2450 3431 
Q 2728 3278 2906 2969 
L 2906 3500 
L 3481 3500 
L 3481 434 
z
" transform="scale(0.015625)"/>
       <path id="DejaVuSans-6b" d="M 581 4863 
L 1159 4863 
L 1159 1991 
L 2875 3500 
L 3609 3500 
L 1753 1863 
L 3688 0 
L 2938 0 
L 1159 1709 
L 1159 0 
L 581 0 
L 581 4863 
z
" transform="scale(0.015625)"/>
       <path id="DejaVuSans-68" d="M 3513 2113 
L 3513 0 
L 2938 0 
L 2938 2094 
Q 2938 2591 2744 2837 
Q 2550 3084 2163 3084 
Q 1697 3084 1428 2787 
Q 1159 2491 1159 1978 
L 1159 0 
L 581 0 
L 581 4863 
L 1159 4863 
L 1159 2956 
Q 1366 3272 1645 3428 
Q 1925 3584 2291 3584 
Q 2894 3584 3203 3211 
Q 3513 2838 3513 2113 
z
" transform="scale(0.015625)"/>
      </defs>
      <use xlink:href="#DejaVuSans-394" transform="translate(0 0.015625)"/>
      <use xlink:href="#DejaVuSans-20" transform="translate(68.408203 0.015625)"/>
      <use xlink:href="#DejaVuSans-6c" transform="translate(100.195312 0.015625)"/>
      <use xlink:href="#DejaVuSans-6f" transform="translate(127.978516 0.015625)"/>
      <use xlink:href="#DejaVuSans-67" transform="translate(189.160156 0.015625)"/>
      <use xlink:href="#DejaVuSans-20" transform="translate(252.636719 0.015625)"/>
      <use xlink:href="#DejaVuSans-6c" transform="translate(284.423828 0.015625)"/>
      <use xlink:href="#DejaVuSans-69" transform="translate(312.207031 0.015625)"/>
      <use xlink:href="#DejaVuSans-6b" transform="translate(339.990234 0.015625)"/>
      <use xlink:href="#DejaVuSans-65" transform="translate(397.900391 0.015625)"/>
      <use xlink:href="#DejaVuSans-6c" transform="translate(459.423828 0.015625)"/>
      <use xlink:href="#DejaVuSans-69" transform="translate(487.207031 0.015625)"/>
      <use xlink:href="#DejaVuSans-68" transform="translate(514.990234 0.015625)"/>
      <use xlink:href="#DejaVuSans-6f" transform="translate(578.369141 0.015625)"/>
      <use xlink:href="#DejaVuSans-6f" transform="translate(639.550781 0.015625)"/>
      <use xlink:href="#DejaVuSans-64" transform="translate(700.732422 0.015625)"/>
     </g>
    </g>
    <g id="text_25">
     <!-- $\times\mathdefault{10^{3}}\mathdefault{}$ -->
     <g transform="translate(208.036 22.92) scale(0.1 -0.1)">
      <defs>
       <path id="DejaVuSans-d7" d="M 4488 3438 
L 3059 2003 
L 4488 575 
L 4116 197 
L 2681 1631 
L 1247 197 
L 878 575 
L 2303 2003 
L 878 3438 
L 1247 3816 
L 2681 2381 
L 4116 3816 
L 4488 3438 
z
" transform="scale(0.015625)"/>
      </defs>
      <use xlink:href="#DejaVuSans-d7" transform="translate(0 0.765625)"/>
      <use xlink:href="#DejaVuSans-31" transform="translate(83.789062 0.765625)"/>
      <use xlink:href="#DejaVuSans-30" transform="translate(147.412109 0.765625)"/>
      <use xlink:href="#DejaVuSans-33" transform="translate(211.992188 39.046875) scale(0.7)"/>
     </g>
    </g>
   </g>
   <g id="LineCollection_1"/>
   <g id="patch_8">
    <path d="M 225.72 192.24 
L 229.878 192.24 
L 234.036 192.24 
L 234.036 25.92 
L 229.878 25.92 
L 225.72 25.92 
L 225.72 192.24 
z
" style="fill: none; stroke: #000000; stroke-width: 0.8; stroke-linejoin: miter; stroke-linecap: square"/>
   </g>
  </g>
 </g>
 <defs>
  <clipPath id="pd80c7efe06">
   <rect x="36" y="25.92" width="178.56" height="166.32"/>
  </clipPath>
  <clipPath id="p42ceb4cc77">
   <rect x="225.72" y="25.92" width="8.316" height="166.32"/>
  </clipPath>
 </defs>
</svg>
