<?xml version="1.0" encoding="utf-8" standalone="no"?>
<!DOCTYPE svg PUBLIC "-//W3C//DTD SVG 1.1//EN"
  "http://www.w3.org/Graphics/SVG/1.1/DTD/svg11.dtd">
<svg xmlns:xlink="http://www.w3.org/1999/xlink" width="288pt" height="216pt" viewBox="0 0 288 216" xmlns="http://www.w3.org/2000/svg" version="1.1">
 <metadata>
  <rdf:RDF xmlns:dc="http://purl.org/dc/elements/1.1/" xmlns:cc="http://creativecommons.org/ns#" xmlns:rdf="http://www.w3.org/1999/02/22-rdf-syntax-ns#">
   <cc:Work>
    <dc:type rdf:resource="http://purl.org/dc/dcmitype/StillImage"/>
    <dc:date>2023-07-18T18:00:14.969409</dc:date>
    <dc:format>image/svg+xml</dc:format>
    <dc:creator>
     <cc:Agent>
      <dc:title>Matplotlib v3.7.1, https://matplotlib.org/</dc:title>
     </cc:Agent>
    </dc:creator>
   </cc:Work>
  </rdf:RDF>
 </metadata>
 <defs>
  <style type="text/css">*{stroke-linejoin: round; stroke-linecap: butt}</style>
 </defs>
 <g id="figure_1">
  <g id="patch_1">
   <path d="M 0 216 
L 288 216 
L 288 0 
L 0 0 
z
" style="fill: #ffffff"/>
  </g>
  <g id="axes_1">
   <g id="patch_2">
    <path d="M 36 192.24 
L 214.56 192.24 
L 214.56 25.92 
L 36 25.92 
z
" style="fill: #ffffff"/>
   </g>
   <g id="PathCollection_1">
    <path d="M 39.077053 192.24 
L 36 192.24 
L 36 191.775837 
z
" clip-path="url(#pcec44e1eb2)" style="fill: #440154"/>
   </g>
   <g id="PathCollection_2">
    <path d="M 41.952 191.305601 
L 47.904 192.010563 
L 50.294161 192.24 
L 47.904 192.24 
L 41.952 192.24 
L 39.077053 192.24 
L 36 191.775837 
L 36 190.417015 
z
" clip-path="url(#pcec44e1eb2)" style="fill: #440154"/>
   </g>
   <g id="PathCollection_3">
    <path d="M 41.952 189.933189 
L 47.904 190.627077 
L 53.856 191.191501 
L 59.808 191.659727 
L 65.76 192.054283 
L 69.047754 192.24 
L 65.76 192.24 
L 59.808 192.24 
L 53.856 192.24 
L 50.294161 192.24 
L 47.904 192.010563 
L 41.952 191.305601 
L 36 190.417015 
L 36 189.058193 
z
" clip-path="url(#pcec44e1eb2)" style="fill: #440154"/>
   </g>
   <g id="PathCollection_4">
    <path d="M 41.952 188.560778 
L 47.904 189.243591 
L 53.856 189.79882 
L 59.808 190.259296 
L 65.76 190.647234 
L 71.712 190.978349 
L 77.664 191.26412 
L 83.616 191.513149 
L 89.568 191.732007 
L 95.52 191.925801 
L 101.472 192.098558 
L 106.906547 192.24 
L 101.472 192.24 
L 95.52 192.24 
L 89.568 192.24 
L 83.616 192.24 
L 77.664 192.24 
L 71.712 192.24 
L 69.047754 192.24 
L 65.76 192.054283 
L 59.808 191.659727 
L 53.856 191.191501 
L 47.904 190.627077 
L 41.952 189.933189 
L 36 189.058193 
L 36 187.69937 
z
" clip-path="url(#pcec44e1eb2)" style="fill: #440154"/>
   </g>
   <g id="PathCollection_5">
    <path d="M 36 186.696 
L 36 186.29172 
L 38.509839 186.696 
L 41.952 187.188366 
L 47.904 187.860105 
L 53.856 188.406139 
L 59.808 188.858864 
L 65.76 189.240186 
L 71.712 189.565591 
L 77.664 189.846388 
L 83.616 190.091048 
L 89.568 190.30604 
L 95.52 190.49639 
L 101.472 190.666061 
L 107.424 190.818215 
L 113.376 190.955409 
L 119.328 191.079726 
L 125.28 191.192885 
L 131.232 191.296313 
L 137.184 191.391206 
L 143.136 191.478572 
L 149.088 191.559267 
L 155.04 191.634024 
L 160.992 191.703472 
L 166.944 191.768154 
L 172.896 191.828544 
L 178.848 191.885052 
L 184.8 191.93804 
L 190.752 191.987826 
L 196.704 192.03469 
L 202.656 192.078883 
L 208.608 192.120624 
L 214.56 192.160113 
L 214.56 192.24 
L 208.608 192.24 
L 202.656 192.24 
L 196.704 192.24 
L 190.752 192.24 
L 184.8 192.24 
L 178.848 192.24 
L 172.896 192.24 
L 166.944 192.24 
L 160.992 192.24 
L 155.04 192.24 
L 149.088 192.24 
L 143.136 192.24 
L 137.184 192.24 
L 131.232 192.24 
L 125.28 192.24 
L 119.328 192.24 
L 113.376 192.24 
L 107.424 192.24 
L 106.906547 192.24 
L 101.472 192.098558 
L 95.52 191.925801 
L 89.568 191.732007 
L 83.616 191.513149 
L 77.664 191.26412 
L 71.712 190.978349 
L 65.76 190.647234 
L 59.808 190.259296 
L 53.856 189.79882 
L 47.904 189.243591 
L 41.952 188.560778 
L 36 187.69937 
z
" clip-path="url(#pcec44e1eb2)" style="fill: #440154"/>
   </g>
   <g id="PathCollection_6">
    <path d="M 38.509839 186.696 
L 36 186.29172 
L 36 184.746238 
L 41.952 185.693686 
L 47.904 186.445859 
L 50.345837 186.696 
L 53.856 187.013458 
L 59.808 187.458432 
L 65.76 187.833137 
L 71.712 188.152832 
L 77.664 188.428656 
L 83.616 188.668948 
L 89.568 188.880074 
L 95.52 189.06698 
L 101.472 189.233564 
L 107.424 189.382937 
L 113.376 189.517612 
L 119.328 189.639637 
L 125.28 189.750703 
L 131.232 189.852212 
L 137.184 189.945339 
L 143.136 190.031074 
L 149.088 190.11026 
L 155.04 190.183615 
L 160.992 190.251758 
L 166.944 190.315222 
L 172.896 190.374472 
L 178.848 190.429912 
L 184.8 190.481897 
L 190.752 190.530739 
L 196.704 190.576714 
L 202.656 190.620066 
L 208.608 190.661013 
L 214.56 190.699749 
L 214.56 192.160113 
L 208.608 192.120624 
L 202.656 192.078883 
L 196.704 192.03469 
L 190.752 191.987826 
L 184.8 191.93804 
L 178.848 191.885052 
L 172.896 191.828544 
L 166.944 191.768154 
L 160.992 191.703472 
L 155.04 191.634024 
L 149.088 191.559267 
L 143.136 191.478572 
L 137.184 191.391206 
L 131.232 191.296313 
L 125.28 191.192885 
L 119.328 191.079726 
L 113.376 190.955409 
L 107.424 190.818215 
L 101.472 190.666061 
L 95.52 190.49639 
L 89.568 190.30604 
L 83.616 190.091048 
L 77.664 189.846388 
L 71.712 189.565591 
L 65.76 189.240186 
L 59.808 188.858864 
L 53.856 188.406139 
L 47.904 187.860105 
L 41.952 187.188366 
z
" clip-path="url(#pcec44e1eb2)" style="fill: #440154"/>
   </g>
   <g id="PathCollection_7">
    <path d="M 41.952 184.130601 
L 47.904 184.868392 
L 53.856 185.468876 
L 59.808 185.967294 
L 65.76 186.387507 
L 70.879425 186.696 
L 71.712 186.740074 
L 77.664 187.010924 
L 83.616 187.246847 
L 89.568 187.454107 
L 95.52 187.63757 
L 101.472 187.801067 
L 107.424 187.947659 
L 113.376 188.079815 
L 119.328 188.199549 
L 125.28 188.308522 
L 131.232 188.408112 
L 137.184 188.499472 
L 143.136 188.583577 
L 149.088 188.661253 
L 155.04 188.733206 
L 160.992 188.800043 
L 166.944 188.86229 
L 172.896 188.9204 
L 178.848 188.974772 
L 184.8 189.025754 
L 190.752 189.073652 
L 196.704 189.118737 
L 202.656 189.161249 
L 208.608 189.201401 
L 214.56 189.239385 
L 214.56 190.699749 
L 208.608 190.661013 
L 202.656 190.620066 
L 196.704 190.576714 
L 190.752 190.530739 
L 184.8 190.481897 
L 178.848 190.429912 
L 172.896 190.374472 
L 166.944 190.315222 
L 160.992 190.251758 
L 155.04 190.183615 
L 149.088 190.11026 
L 143.136 190.031074 
L 137.184 189.945339 
L 131.232 189.852212 
L 125.28 189.750703 
L 119.328 189.639637 
L 113.376 189.517612 
L 107.424 189.382937 
L 101.472 189.233564 
L 95.52 189.06698 
L 89.568 188.880074 
L 83.616 188.668948 
L 77.664 188.428656 
L 71.712 188.152832 
L 65.76 187.833137 
L 59.808 187.458432 
L 53.856 187.013458 
L 50.345837 186.696 
L 47.904 186.445859 
L 41.952 185.693686 
L 36 184.746238 
L 36 183.200756 
z
" clip-path="url(#pcec44e1eb2)" style="fill: #440154"/>
   </g>
   <g id="PathCollection_8">
    <path d="M 41.952 182.567515 
L 47.904 183.290925 
L 53.856 183.879444 
L 59.808 184.367758 
L 65.76 184.779334 
L 71.712 185.130767 
L 77.664 185.434187 
L 83.616 185.698684 
L 89.568 185.931206 
L 95.52 186.137157 
L 101.472 186.320797 
L 107.424 186.48553 
L 113.376 186.634108 
L 116.114173 186.696 
L 119.328 186.759461 
L 125.28 186.866341 
L 131.232 186.964011 
L 137.184 187.053605 
L 143.136 187.136079 
L 149.088 187.212245 
L 155.04 187.282797 
L 160.992 187.348329 
L 166.944 187.409357 
L 172.896 187.466328 
L 178.848 187.519632 
L 184.8 187.569611 
L 190.752 187.616565 
L 196.704 187.66076 
L 202.656 187.702432 
L 208.608 187.741789 
L 214.56 187.77902 
L 214.56 189.239385 
L 208.608 189.201401 
L 202.656 189.161249 
L 196.704 189.118737 
L 190.752 189.073652 
L 184.8 189.025754 
L 178.848 188.974772 
L 172.896 188.9204 
L 166.944 188.86229 
L 160.992 188.800043 
L 155.04 188.733206 
L 149.088 188.661253 
L 143.136 188.583577 
L 137.184 188.499472 
L 131.232 188.408112 
L 125.28 188.308522 
L 119.328 188.199549 
L 113.376 188.079815 
L 107.424 187.947659 
L 101.472 187.801067 
L 95.52 187.63757 
L 89.568 187.454107 
L 83.616 187.246847 
L 77.664 187.010924 
L 71.712 186.740074 
L 70.879425 186.696 
L 65.76 186.387507 
L 59.808 185.967294 
L 53.856 185.468876 
L 47.904 184.868392 
L 41.952 184.130601 
L 36 183.200756 
L 36 181.655275 
z
" clip-path="url(#pcec44e1eb2)" style="fill: #440154"/>
   </g>
   <g id="PathCollection_9">
    <path d="M 36 181.152 
L 36 179.965441 
L 41.952 180.983725 
L 43.199797 181.152 
L 47.904 181.713458 
L 53.856 182.290012 
L 59.808 182.768223 
L 65.76 183.171161 
L 71.712 183.51513 
L 77.664 183.812042 
L 83.616 184.070817 
L 89.568 184.298273 
L 95.52 184.499706 
L 101.472 184.679294 
L 107.424 184.840374 
L 113.376 184.985642 
L 119.328 185.117297 
L 125.28 185.237154 
L 131.232 185.34672 
L 137.184 185.447257 
L 143.136 185.53983 
L 149.088 185.625345 
L 155.04 185.704575 
L 160.992 185.778185 
L 166.944 185.84675 
L 172.896 185.91077 
L 178.848 185.97068 
L 184.8 186.026863 
L 190.752 186.079654 
L 196.704 186.129351 
L 202.656 186.176217 
L 208.608 186.220487 
L 214.56 186.262369 
L 214.56 186.696 
L 214.56 187.77902 
L 208.608 187.741789 
L 202.656 187.702432 
L 196.704 187.66076 
L 190.752 187.616565 
L 184.8 187.569611 
L 178.848 187.519632 
L 172.896 187.466328 
L 166.944 187.409357 
L 160.992 187.348329 
L 155.04 187.282797 
L 149.088 187.212245 
L 143.136 187.136079 
L 137.184 187.053605 
L 131.232 186.964011 
L 125.28 186.866341 
L 119.328 186.759461 
L 116.114173 186.696 
L 113.376 186.634108 
L 107.424 186.48553 
L 101.472 186.320797 
L 95.52 186.137157 
L 89.568 185.931206 
L 83.616 185.698684 
L 77.664 185.434187 
L 71.712 185.130767 
L 65.76 184.779334 
L 59.808 184.367758 
L 53.856 183.879444 
L 47.904 183.290925 
L 41.952 182.567515 
L 36 181.655275 
z
" clip-path="url(#pcec44e1eb2)" style="fill: #440154"/>
   </g>
   <g id="PathCollection_10">
    <path d="M 41.952 179.201332 
L 47.904 179.991943 
L 53.856 180.636024 
L 59.597114 181.152 
L 59.808 181.168687 
L 65.76 181.562987 
L 71.712 181.899494 
L 77.664 182.189898 
L 83.616 182.442951 
L 89.568 182.665339 
L 95.52 182.862254 
L 101.472 183.037791 
L 107.424 183.195218 
L 113.376 183.337175 
L 119.328 183.465818 
L 125.28 183.582922 
L 131.232 183.689962 
L 137.184 183.788174 
L 143.136 183.8786 
L 149.088 183.962126 
L 155.04 184.039508 
L 160.992 184.111398 
L 166.944 184.178358 
L 172.896 184.240875 
L 178.848 184.299376 
L 184.8 184.354235 
L 190.752 184.405781 
L 196.704 184.454303 
L 202.656 184.50006 
L 208.608 184.543281 
L 214.56 184.584169 
L 214.56 186.262369 
L 208.608 186.220487 
L 202.656 186.176217 
L 196.704 186.129351 
L 190.752 186.079654 
L 184.8 186.026863 
L 178.848 185.97068 
L 172.896 185.91077 
L 166.944 185.84675 
L 160.992 185.778185 
L 155.04 185.704575 
L 149.088 185.625345 
L 143.136 185.53983 
L 137.184 185.447257 
L 131.232 185.34672 
L 125.28 185.237154 
L 119.328 185.117297 
L 113.376 184.985642 
L 107.424 184.840374 
L 101.472 184.679294 
L 95.52 184.499706 
L 89.568 184.298273 
L 83.616 184.070817 
L 77.664 183.812042 
L 71.712 183.51513 
L 65.76 183.171161 
L 59.808 182.768223 
L 53.856 182.290012 
L 47.904 181.713458 
L 43.199797 181.152 
L 41.952 180.983725 
L 36 179.965441 
L 36 178.205901 
z
" clip-path="url(#pcec44e1eb2)" style="fill: #440154"/>
   </g>
   <g id="PathCollection_11">
    <path d="M 41.952 177.418938 
L 47.904 178.190825 
L 53.856 178.819291 
L 59.808 179.341146 
L 65.76 179.781295 
L 71.712 180.157361 
L 77.664 180.48223 
L 83.616 180.765567 
L 89.568 181.014765 
L 93.271654 181.152 
L 95.52 181.224802 
L 101.472 181.396288 
L 107.424 181.550061 
L 113.376 181.688709 
L 119.328 181.814339 
L 125.28 181.92869 
L 131.232 182.033204 
L 137.184 182.129091 
L 143.136 182.217369 
L 149.088 182.298906 
L 155.04 182.374442 
L 160.992 182.444611 
L 166.944 182.509965 
L 172.896 182.57098 
L 178.848 182.628072 
L 184.8 182.681608 
L 190.752 182.731908 
L 196.704 182.779256 
L 202.656 182.823903 
L 208.608 182.866075 
L 214.56 182.90597 
L 214.56 184.584169 
L 208.608 184.543281 
L 202.656 184.50006 
L 196.704 184.454303 
L 190.752 184.405781 
L 184.8 184.354235 
L 178.848 184.299376 
L 172.896 184.240875 
L 166.944 184.178358 
L 160.992 184.111398 
L 155.04 184.039508 
L 149.088 183.962126 
L 143.136 183.8786 
L 137.184 183.788174 
L 131.232 183.689962 
L 125.28 183.582922 
L 119.328 183.465818 
L 113.376 183.337175 
L 107.424 183.195218 
L 101.472 183.037791 
L 95.52 182.862254 
L 89.568 182.665339 
L 83.616 182.442951 
L 77.664 182.189898 
L 71.712 181.899494 
L 65.76 181.562987 
L 59.808 181.168687 
L 59.597114 181.152 
L 53.856 180.636024 
L 47.904 179.991943 
L 41.952 179.201332 
L 36 178.205901 
L 36 176.446361 
z
" clip-path="url(#pcec44e1eb2)" style="fill: #440154"/>
   </g>
   <g id="PathCollection_12">
    <path d="M 36 175.608 
L 36 174.557001 
L 41.775337 175.608 
L 41.952 175.636544 
L 47.904 176.389707 
L 53.856 177.002558 
L 59.808 177.511201 
L 65.76 177.940036 
L 71.712 178.306312 
L 77.664 178.622633 
L 83.616 178.898447 
L 89.568 179.140975 
L 95.52 179.355833 
L 101.472 179.547454 
L 107.424 179.719378 
L 113.376 179.874467 
L 119.328 180.015058 
L 125.28 180.14308 
L 131.232 180.260133 
L 137.184 180.367561 
L 143.136 180.466498 
L 149.088 180.557906 
L 155.04 180.64261 
L 160.992 180.721317 
L 166.944 180.79464 
L 172.896 180.86311 
L 178.848 180.927193 
L 184.8 180.987295 
L 190.752 181.043775 
L 196.704 181.09695 
L 202.656 181.1471 
L 203.271971 181.152 
L 208.608 181.188869 
L 214.56 181.22777 
L 214.56 182.90597 
L 208.608 182.866075 
L 202.656 182.823903 
L 196.704 182.779256 
L 190.752 182.731908 
L 184.8 182.681608 
L 178.848 182.628072 
L 172.896 182.57098 
L 166.944 182.509965 
L 160.992 182.444611 
L 155.04 182.374442 
L 149.088 182.298906 
L 143.136 182.217369 
L 137.184 182.129091 
L 131.232 182.033204 
L 125.28 181.92869 
L 119.328 181.814339 
L 113.376 181.688709 
L 107.424 181.550061 
L 101.472 181.396288 
L 95.52 181.224802 
L 93.271654 181.152 
L 89.568 181.014765 
L 83.616 180.765567 
L 77.664 180.48223 
L 71.712 180.157361 
L 65.76 179.781295 
L 59.808 179.341146 
L 53.856 178.819291 
L 47.904 178.190825 
L 41.952 177.418938 
L 36 176.446361 
z
" clip-path="url(#pcec44e1eb2)" style="fill: #440154"/>
   </g>
   <g id="PathCollection_13">
    <path d="M 41.775337 175.608 
L 36 174.557001 
L 36 172.549493 
L 41.952 173.603314 
L 47.904 174.44104 
L 53.856 175.124112 
L 58.933344 175.608 
L 59.808 175.681256 
L 65.76 176.098776 
L 71.712 176.455262 
L 77.664 176.763036 
L 83.616 177.031326 
L 89.568 177.267184 
L 95.52 177.476092 
L 101.472 177.662372 
L 107.424 177.829476 
L 113.376 177.980195 
L 119.328 178.116808 
L 125.28 178.241191 
L 131.232 178.354905 
L 137.184 178.459257 
L 143.136 178.555353 
L 149.088 178.644128 
L 155.04 178.726386 
L 160.992 178.802814 
L 166.944 178.874008 
L 172.896 178.940487 
L 178.848 179.002703 
L 184.8 179.06105 
L 190.752 179.115877 
L 196.704 179.167494 
L 202.656 179.216173 
L 208.608 179.262157 
L 214.56 179.305664 
L 214.56 181.152 
L 214.56 181.22777 
L 208.608 181.188869 
L 203.271971 181.152 
L 202.656 181.1471 
L 196.704 181.09695 
L 190.752 181.043775 
L 184.8 180.987295 
L 178.848 180.927193 
L 172.896 180.86311 
L 166.944 180.79464 
L 160.992 180.721317 
L 155.04 180.64261 
L 149.088 180.557906 
L 143.136 180.466498 
L 137.184 180.367561 
L 131.232 180.260133 
L 125.28 180.14308 
L 119.328 180.015058 
L 113.376 179.874467 
L 107.424 179.719378 
L 101.472 179.547454 
L 95.52 179.355833 
L 89.568 179.140975 
L 83.616 178.898447 
L 77.664 178.622633 
L 71.712 178.306312 
L 65.76 177.940036 
L 59.808 177.511201 
L 53.856 177.002558 
L 47.904 176.389707 
L 41.952 175.636544 
z
" clip-path="url(#pcec44e1eb2)" style="fill: #440154"/>
   </g>
   <g id="PathCollection_14">
    <path d="M 41.952 171.566002 
L 47.904 172.379228 
L 53.856 173.041811 
L 59.808 173.592377 
L 65.76 174.057044 
L 71.712 174.454295 
L 77.664 174.797652 
L 83.616 175.097262 
L 89.568 175.360889 
L 95.52 175.59458 
L 95.904223 175.608 
L 101.472 175.777289 
L 107.424 175.939574 
L 113.376 176.085924 
L 119.328 176.218557 
L 125.28 176.339301 
L 131.232 176.449676 
L 137.184 176.550954 
L 143.136 176.644208 
L 149.088 176.73035 
L 155.04 176.810161 
L 160.992 176.884311 
L 166.944 176.953377 
L 172.896 177.017865 
L 178.848 177.078212 
L 184.8 177.134805 
L 190.752 177.18798 
L 196.704 177.238039 
L 202.656 177.285246 
L 208.608 177.329837 
L 214.56 177.372024 
L 214.56 179.305664 
L 208.608 179.262157 
L 202.656 179.216173 
L 196.704 179.167494 
L 190.752 179.115877 
L 184.8 179.06105 
L 178.848 179.002703 
L 172.896 178.940487 
L 166.944 178.874008 
L 160.992 178.802814 
L 155.04 178.726386 
L 149.088 178.644128 
L 143.136 178.555353 
L 137.184 178.459257 
L 131.232 178.354905 
L 125.28 178.241191 
L 119.328 178.116808 
L 113.376 177.980195 
L 107.424 177.829476 
L 101.472 177.662372 
L 95.52 177.476092 
L 89.568 177.267184 
L 83.616 177.031326 
L 77.664 176.763036 
L 71.712 176.455262 
L 65.76 176.098776 
L 59.808 175.681256 
L 58.933344 175.608 
L 53.856 175.124112 
L 47.904 174.44104 
L 41.952 173.603314 
L 36 172.549493 
L 36 170.541984 
z
" clip-path="url(#pcec44e1eb2)" style="fill: #440154"/>
    <path d="M 136.766232 25.92 
L 137.184 25.92 
L 143.136 25.92 
L 149.088 25.92 
L 155.04 25.92 
L 160.992 25.92 
L 166.944 25.92 
L 172.896 25.92 
L 178.848 25.92 
L 184.8 25.92 
L 190.752 25.92 
L 196.704 25.92 
L 202.656 25.92 
L 208.608 25.92 
L 214.56 25.92 
L 214.56 28.192527 
L 208.608 28.078361 
L 202.656 27.957505 
L 196.704 27.829356 
L 190.752 27.693233 
L 184.8 27.548371 
L 178.848 27.393904 
L 172.896 27.228846 
L 166.944 27.052076 
L 160.992 26.862304 
L 155.04 26.658049 
L 149.088 26.437595 
L 143.136 26.198947 
L 137.184 25.939767 
z
" clip-path="url(#pcec44e1eb2)" style="fill: #440154"/>
   </g>
   <g id="PathCollection_15">
    <path d="M 36 170.064 
L 36 168.313043 
L 41.952 169.449872 
L 46.007119 170.064 
L 47.904 170.317416 
L 53.856 170.959511 
L 59.808 171.492702 
L 65.76 171.942459 
L 71.712 172.326788 
L 77.664 172.658846 
L 83.616 172.948497 
L 89.568 173.203286 
L 95.52 173.429082 
L 101.472 173.630519 
L 107.424 173.8113 
L 113.376 173.974421 
L 119.328 174.122329 
L 125.28 174.257041 
L 131.232 174.380237 
L 137.184 174.493323 
L 143.136 174.597489 
L 149.088 174.693744 
L 155.04 174.782952 
L 160.992 174.865856 
L 166.944 174.943098 
L 172.896 175.015238 
L 178.848 175.082763 
L 184.8 175.1461 
L 190.752 175.205626 
L 196.704 175.261674 
L 202.656 175.314539 
L 208.608 175.364485 
L 214.56 175.411745 
L 214.56 175.608 
L 214.56 177.372024 
L 208.608 177.329837 
L 202.656 177.285246 
L 196.704 177.238039 
L 190.752 177.18798 
L 184.8 177.134805 
L 178.848 177.078212 
L 172.896 177.017865 
L 166.944 176.953377 
L 160.992 176.884311 
L 155.04 176.810161 
L 149.088 176.73035 
L 143.136 176.644208 
L 137.184 176.550954 
L 131.232 176.449676 
L 125.28 176.339301 
L 119.328 176.218557 
L 113.376 176.085924 
L 107.424 175.939574 
L 101.472 175.777289 
L 95.904223 175.608 
L 95.52 175.59458 
L 89.568 175.360889 
L 83.616 175.097262 
L 77.664 174.797652 
L 71.712 174.454295 
L 65.76 174.057044 
L 59.808 173.592377 
L 53.856 173.041811 
L 47.904 172.379228 
L 41.952 171.566002 
L 36 170.541984 
z
" clip-path="url(#pcec44e1eb2)" style="fill: #470e61"/>
    <path d="M 83.392948 25.92 
L 83.616 25.92 
L 89.568 25.92 
L 95.52 25.92 
L 101.472 25.92 
L 107.424 25.92 
L 113.376 25.92 
L 119.328 25.92 
L 125.28 25.92 
L 131.232 25.92 
L 136.766232 25.92 
L 137.184 25.939767 
L 143.136 26.198947 
L 149.088 26.437595 
L 155.04 26.658049 
L 160.992 26.862304 
L 166.944 27.052076 
L 172.896 27.228846 
L 178.848 27.393904 
L 184.8 27.548371 
L 190.752 27.693233 
L 196.704 27.829356 
L 202.656 27.957505 
L 208.608 28.078361 
L 214.56 28.192527 
L 214.56 31.464 
L 214.56 31.908044 
L 208.608 31.793772 
L 202.656 31.672795 
L 196.704 31.544506 
L 193.185651 31.464 
L 190.752 31.410656 
L 184.8 31.271953 
L 178.848 31.124061 
L 172.896 30.96604 
L 166.944 30.796817 
L 160.992 30.615161 
L 155.04 30.419657 
L 149.088 30.208666 
L 143.136 29.980282 
L 137.184 29.732274 
L 131.232 29.462018 
L 125.28 29.166399 
L 119.328 28.841701 
L 113.376 28.483449 
L 107.424 28.086211 
L 101.472 27.643329 
L 95.52 27.146554 
L 89.568 26.585557 
L 83.616 25.947225 
z
" clip-path="url(#pcec44e1eb2)" style="fill: #470e61"/>
   </g>
   <g id="PathCollection_16">
    <path d="M 41.952 167.11259 
L 47.904 167.985659 
L 53.856 168.698029 
L 59.808 169.290748 
L 65.76 169.791586 
L 69.552441 170.064 
L 71.712 170.199281 
L 77.664 170.520039 
L 83.616 170.799732 
L 89.568 171.045682 
L 95.52 171.263584 
L 101.472 171.45793 
L 107.424 171.632307 
L 113.376 171.789617 
L 119.328 171.93223 
L 125.28 172.062097 
L 131.232 172.180844 
L 137.184 172.289831 
L 143.136 172.390208 
L 149.088 172.48295 
L 155.04 172.568893 
L 160.992 172.648754 
L 166.944 172.723154 
L 172.896 172.792633 
L 178.848 172.857661 
L 184.8 172.918652 
L 190.752 172.975968 
L 196.704 173.029932 
L 202.656 173.080828 
L 208.608 173.12891 
L 214.56 173.174404 
L 214.56 175.411745 
L 208.608 175.364485 
L 202.656 175.314539 
L 196.704 175.261674 
L 190.752 175.205626 
L 184.8 175.1461 
L 178.848 175.082763 
L 172.896 175.015238 
L 166.944 174.943098 
L 160.992 174.865856 
L 155.04 174.782952 
L 149.088 174.693744 
L 143.136 174.597489 
L 137.184 174.493323 
L 131.232 174.380237 
L 125.28 174.257041 
L 119.328 174.122329 
L 113.376 173.974421 
L 107.424 173.8113 
L 101.472 173.630519 
L 95.52 173.429082 
L 89.568 173.203286 
L 83.616 172.948497 
L 77.664 172.658846 
L 71.712 172.326788 
L 65.76 171.942459 
L 59.808 171.492702 
L 53.856 170.959511 
L 47.904 170.317416 
L 46.007119 170.064 
L 41.952 169.449872 
L 36 168.313043 
L 36 166.014903 
z
" clip-path="url(#pcec44e1eb2)" style="fill: #482677"/>
    <path d="M 57.953421 25.92 
L 59.808 25.92 
L 65.76 25.92 
L 71.712 25.92 
L 77.664 25.92 
L 83.392948 25.92 
L 83.616 25.947225 
L 89.568 26.585557 
L 95.52 27.146554 
L 101.472 27.643329 
L 107.424 28.086211 
L 113.376 28.483449 
L 119.328 28.841701 
L 125.28 29.166399 
L 131.232 29.462018 
L 137.184 29.732274 
L 143.136 29.980282 
L 149.088 30.208666 
L 155.04 30.419657 
L 160.992 30.615161 
L 166.944 30.796817 
L 172.896 30.96604 
L 178.848 31.124061 
L 184.8 31.271953 
L 190.752 31.410656 
L 193.185651 31.464 
L 196.704 31.544506 
L 202.656 31.672795 
L 208.608 31.793772 
L 214.56 31.908044 
L 214.56 35.771876 
L 208.608 35.662883 
L 202.656 35.5475 
L 196.704 35.425152 
L 190.752 35.295187 
L 184.8 35.156876 
L 178.848 35.00939 
L 172.896 34.851788 
L 166.944 34.682995 
L 160.992 34.501783 
L 155.04 34.306732 
L 149.088 34.096204 
L 143.136 33.868289 
L 137.184 33.620755 
L 131.232 33.350969 
L 125.28 33.055811 
L 119.328 32.731554 
L 113.376 32.37371 
L 107.424 31.976826 
L 101.472 31.534214 
L 100.62603 31.464 
L 95.52 31.057154 
L 89.568 30.522167 
L 83.616 29.913601 
L 77.664 29.215446 
L 71.712 28.406774 
L 65.76 27.459741 
L 59.808 26.33651 
z
" clip-path="url(#pcec44e1eb2)" style="fill: #482677"/>
   </g>
   <g id="PathCollection_17">
    <path d="M 36 164.52 
L 36 163.59606 
L 40.534769 164.52 
L 41.952 164.775308 
L 47.904 165.616074 
L 53.856 166.301343 
L 59.808 166.871014 
L 65.76 167.35203 
L 71.712 167.763445 
L 77.664 168.119199 
L 83.616 168.429751 
L 89.568 168.703107 
L 95.52 168.945506 
L 101.472 169.161872 
L 107.424 169.356149 
L 113.376 169.531528 
L 119.328 169.690616 
L 125.28 169.835568 
L 131.232 169.968175 
L 135.918185 170.064 
L 137.184 170.086339 
L 143.136 170.182927 
L 149.088 170.272156 
L 155.04 170.354833 
L 160.992 170.431652 
L 166.944 170.503209 
L 172.896 170.570027 
L 178.848 170.632559 
L 184.8 170.691204 
L 190.752 170.746311 
L 196.704 170.79819 
L 202.656 170.847117 
L 208.608 170.893335 
L 214.56 170.937063 
L 214.56 173.174404 
L 208.608 173.12891 
L 202.656 173.080828 
L 196.704 173.029932 
L 190.752 172.975968 
L 184.8 172.918652 
L 178.848 172.857661 
L 172.896 172.792633 
L 166.944 172.723154 
L 160.992 172.648754 
L 155.04 172.568893 
L 149.088 172.48295 
L 143.136 172.390208 
L 137.184 172.289831 
L 131.232 172.180844 
L 125.28 172.062097 
L 119.328 171.93223 
L 113.376 171.789617 
L 107.424 171.632307 
L 101.472 171.45793 
L 95.52 171.263584 
L 89.568 171.045682 
L 83.616 170.799732 
L 77.664 170.520039 
L 71.712 170.199281 
L 69.552441 170.064 
L 65.76 169.791586 
L 59.808 169.290748 
L 53.856 168.698029 
L 47.904 167.985659 
L 41.952 167.11259 
L 36 166.014903 
z
" clip-path="url(#pcec44e1eb2)" style="fill: #433d84"/>
    <path d="M 42.707693 25.92 
L 47.904 25.92 
L 53.856 25.92 
L 57.953421 25.92 
L 59.808 26.33651 
L 65.76 27.459741 
L 71.712 28.406774 
L 77.664 29.215446 
L 83.616 29.913601 
L 89.568 30.522167 
L 95.52 31.057154 
L 100.62603 31.464 
L 101.472 31.534214 
L 107.424 31.976826 
L 113.376 32.37371 
L 119.328 32.731554 
L 125.28 33.055811 
L 131.232 33.350969 
L 137.184 33.620755 
L 143.136 33.868289 
L 149.088 34.096204 
L 155.04 34.306732 
L 160.992 34.501783 
L 166.944 34.682995 
L 172.896 34.851788 
L 178.848 35.00939 
L 184.8 35.156876 
L 190.752 35.295187 
L 196.704 35.425152 
L 202.656 35.5475 
L 208.608 35.662883 
L 214.56 35.771876 
L 214.56 37.008 
L 214.56 39.766659 
L 208.608 39.657957 
L 202.656 39.542873 
L 196.704 39.420831 
L 190.752 39.291181 
L 184.8 39.153192 
L 178.848 39.006033 
L 172.896 38.848764 
L 166.944 38.680308 
L 160.992 38.499434 
L 155.04 38.304722 
L 149.088 38.094527 
L 143.136 37.866938 
L 137.184 37.619712 
L 131.232 37.350212 
L 125.28 37.055304 
L 124.408013 37.008 
L 119.328 36.744891 
L 113.376 36.404951 
L 107.424 36.027999 
L 101.472 35.607712 
L 95.52 35.136252 
L 89.568 34.603803 
L 83.616 33.997903 
L 77.664 33.30251 
L 71.712 32.496641 
L 65.76 31.552339 
L 65.284552 31.464 
L 59.808 30.481779 
L 53.856 29.199071 
L 47.904 27.628817 
z
" clip-path="url(#pcec44e1eb2)" style="fill: #433d84"/>
   </g>
   <g id="PathCollection_18">
    <path d="M 40.534769 164.52 
L 36 163.59606 
L 36 160.952577 
L 41.952 162.119021 
L 47.904 163.048242 
L 53.856 163.807598 
L 59.808 164.440319 
L 60.701056 164.52 
L 65.76 164.912473 
L 71.712 165.306674 
L 77.664 165.647348 
L 83.616 165.944588 
L 89.568 166.206115 
L 95.52 166.437934 
L 101.472 166.644786 
L 107.424 166.830464 
L 113.376 166.998032 
L 119.328 167.149998 
L 125.28 167.288427 
L 131.232 167.415041 
L 137.184 167.531281 
L 143.136 167.638364 
L 149.088 167.737326 
L 155.04 167.829054 
L 160.992 167.914308 
L 166.944 167.993748 
L 172.896 168.067947 
L 178.848 168.137405 
L 184.8 168.20256 
L 190.752 168.2638 
L 196.704 168.321466 
L 202.656 168.375862 
L 208.608 168.427256 
L 214.56 168.47589 
L 214.56 170.064 
L 214.56 170.937063 
L 208.608 170.893335 
L 202.656 170.847117 
L 196.704 170.79819 
L 190.752 170.746311 
L 184.8 170.691204 
L 178.848 170.632559 
L 172.896 170.570027 
L 166.944 170.503209 
L 160.992 170.431652 
L 155.04 170.354833 
L 149.088 170.272156 
L 143.136 170.182927 
L 137.184 170.086339 
L 135.918185 170.064 
L 131.232 169.968175 
L 125.28 169.835568 
L 119.328 169.690616 
L 113.376 169.531528 
L 107.424 169.356149 
L 101.472 169.161872 
L 95.52 168.945506 
L 89.568 168.703107 
L 83.616 168.429751 
L 77.664 168.119199 
L 71.712 167.763445 
L 65.76 167.35203 
L 59.808 166.871014 
L 53.856 166.301343 
L 47.904 165.616074 
L 41.952 164.775308 
z
" clip-path="url(#pcec44e1eb2)" style="fill: #3b518b"/>
    <path d="M 36 25.92 
L 41.952 25.92 
L 42.707693 25.92 
L 47.904 27.628817 
L 53.856 29.199071 
L 59.808 30.481779 
L 65.284552 31.464 
L 65.76 31.552339 
L 71.712 32.496641 
L 77.664 33.30251 
L 83.616 33.997903 
L 89.568 34.603803 
L 95.52 35.136252 
L 101.472 35.607712 
L 107.424 36.027999 
L 113.376 36.404951 
L 119.328 36.744891 
L 124.408013 37.008 
L 125.28 37.055304 
L 131.232 37.350212 
L 137.184 37.619712 
L 143.136 37.866938 
L 149.088 38.094527 
L 155.04 38.304722 
L 160.992 38.499434 
L 166.944 38.680308 
L 172.896 38.848764 
L 178.848 39.006033 
L 184.8 39.153192 
L 190.752 39.291181 
L 196.704 39.420831 
L 202.656 39.542873 
L 208.608 39.657957 
L 214.56 39.766659 
L 214.56 42.552 
L 214.56 43.893099 
L 208.608 43.784643 
L 202.656 43.669809 
L 196.704 43.548019 
L 190.752 43.418624 
L 184.8 43.28089 
L 178.848 43.133987 
L 172.896 42.976971 
L 166.944 42.808763 
L 160.992 42.628128 
L 158.658348 42.552 
L 155.04 42.439945 
L 149.088 42.24119 
L 143.136 42.026014 
L 137.184 41.792309 
L 131.232 41.537588 
L 125.28 41.258901 
L 119.328 40.952727 
L 113.376 40.614823 
L 107.424 40.240034 
L 101.472 39.822038 
L 95.52 39.352997 
L 89.568 38.823083 
L 83.616 38.219812 
L 77.664 37.527097 
L 73.802428 37.008 
L 71.712 36.738676 
L 65.76 35.846699 
L 59.808 34.788756 
L 53.856 33.51521 
L 47.904 31.954799 
L 46.378461 31.464 
L 41.952 30.076987 
L 36 27.70226 
z
" clip-path="url(#pcec44e1eb2)" style="fill: #3b518b"/>
   </g>
   <g id="PathCollection_19">
    <path d="M 36 158.976 
L 36 158.203864 
L 39.589319 158.976 
L 41.952 159.423616 
L 47.904 160.309785 
L 53.856 161.03288 
L 59.808 161.634663 
L 65.76 162.143324 
L 71.712 162.5788 
L 77.664 162.955688 
L 83.616 163.284949 
L 89.568 163.574984 
L 95.52 163.83234 
L 101.472 164.062195 
L 107.424 164.268697 
L 113.376 164.455205 
L 115.65911 164.52 
L 119.328 164.609379 
L 125.28 164.741287 
L 131.232 164.861907 
L 137.184 164.972621 
L 143.136 165.074594 
L 149.088 165.168816 
L 155.04 165.256135 
L 160.992 165.337279 
L 166.944 165.412878 
L 172.896 165.48348 
L 178.848 165.549562 
L 184.8 165.611543 
L 190.752 165.669793 
L 196.704 165.724638 
L 202.656 165.776366 
L 208.608 165.825236 
L 214.56 165.871477 
L 214.56 168.47589 
L 208.608 168.427256 
L 202.656 168.375862 
L 196.704 168.321466 
L 190.752 168.2638 
L 184.8 168.20256 
L 178.848 168.137405 
L 172.896 168.067947 
L 166.944 167.993748 
L 160.992 167.914308 
L 155.04 167.829054 
L 149.088 167.737326 
L 143.136 167.638364 
L 137.184 167.531281 
L 131.232 167.415041 
L 125.28 167.288427 
L 119.328 167.149998 
L 113.376 166.998032 
L 107.424 166.830464 
L 101.472 166.644786 
L 95.52 166.437934 
L 89.568 166.206115 
L 83.616 165.944588 
L 77.664 165.647348 
L 71.712 165.306674 
L 65.76 164.912473 
L 60.701056 164.52 
L 59.808 164.440319 
L 53.856 163.807598 
L 47.904 163.048242 
L 41.952 162.119021 
L 36 160.952577 
z
" clip-path="url(#pcec44e1eb2)" style="fill: #32658e"/>
    <path d="M 36 31.464 
L 36 27.70226 
L 41.952 30.076987 
L 46.378461 31.464 
L 47.904 31.954799 
L 53.856 33.51521 
L 59.808 34.788756 
L 65.76 35.846699 
L 71.712 36.738676 
L 73.802428 37.008 
L 77.664 37.527097 
L 83.616 38.219812 
L 89.568 38.823083 
L 95.52 39.352997 
L 101.472 39.822038 
L 107.424 40.240034 
L 113.376 40.614823 
L 119.328 40.952727 
L 125.28 41.258901 
L 131.232 41.537588 
L 137.184 41.792309 
L 143.136 42.026014 
L 149.088 42.24119 
L 155.04 42.439945 
L 158.658348 42.552 
L 160.992 42.628128 
L 166.944 42.808763 
L 172.896 42.976971 
L 178.848 43.133987 
L 184.8 43.28089 
L 190.752 43.418624 
L 196.704 43.548019 
L 202.656 43.669809 
L 208.608 43.784643 
L 214.56 43.893099 
L 214.56 48.096 
L 214.56 48.177787 
L 210.060911 48.096 
L 208.608 48.071078 
L 202.656 47.963113 
L 196.704 47.848617 
L 190.752 47.726983 
L 184.8 47.597524 
L 178.848 47.45946 
L 172.896 47.311908 
L 166.944 47.153858 
L 160.992 46.984154 
L 155.04 46.801462 
L 149.088 46.604239 
L 143.136 46.390689 
L 137.184 46.158707 
L 131.232 45.905814 
L 125.28 45.629069 
L 119.328 45.324955 
L 113.376 44.989236 
L 107.424 44.61676 
L 101.472 44.201204 
L 95.52 43.734725 
L 89.568 43.20748 
L 83.616 42.606949 
L 83.137553 42.552 
L 77.664 41.953177 
L 71.712 41.199135 
L 65.76 40.315562 
L 59.808 39.266867 
L 53.856 38.003405 
L 50.001883 37.008 
L 47.904 36.484619 
L 41.952 34.654014 
L 36 32.305727 
z
" clip-path="url(#pcec44e1eb2)" style="fill: #32658e"/>
   </g>
   <g id="PathCollection_20">
    <path d="M 39.589319 158.976 
L 36 158.203864 
L 36 155.143271 
L 41.952 156.365445 
L 47.904 157.340415 
L 53.856 158.138335 
L 59.808 158.80415 
L 61.6352 158.976 
L 65.76 159.310983 
L 71.712 159.723228 
L 77.664 160.079722 
L 83.616 160.390949 
L 89.568 160.664929 
L 95.52 160.907906 
L 101.472 161.124813 
L 107.424 161.319596 
L 113.376 161.49545 
L 119.328 161.654986 
L 125.28 161.800359 
L 131.232 161.933363 
L 137.184 162.055504 
L 143.136 162.168053 
L 149.088 162.272092 
L 155.04 162.368547 
L 160.992 162.458213 
L 166.944 162.541782 
L 172.896 162.619851 
L 178.848 162.692945 
L 184.8 162.761524 
L 190.752 162.82599 
L 196.704 162.886704 
L 202.656 162.943982 
L 208.608 162.998107 
L 214.56 163.049332 
L 214.56 164.52 
L 214.56 165.871477 
L 208.608 165.825236 
L 202.656 165.776366 
L 196.704 165.724638 
L 190.752 165.669793 
L 184.8 165.611543 
L 178.848 165.549562 
L 172.896 165.48348 
L 166.944 165.412878 
L 160.992 165.337279 
L 155.04 165.256135 
L 149.088 165.168816 
L 143.136 165.074594 
L 137.184 164.972621 
L 131.232 164.861907 
L 125.28 164.741287 
L 119.328 164.609379 
L 115.65911 164.52 
L 113.376 164.455205 
L 107.424 164.268697 
L 101.472 164.062195 
L 95.52 163.83234 
L 89.568 163.574984 
L 83.616 163.284949 
L 77.664 162.955688 
L 71.712 162.5788 
L 65.76 162.143324 
L 59.808 161.634663 
L 53.856 161.03288 
L 47.904 160.309785 
L 41.952 159.423616 
z
" clip-path="url(#pcec44e1eb2)" style="fill: #2a768e"/>
    <path d="M 36 37.008 
L 36 32.305727 
L 41.952 34.654014 
L 47.904 36.484619 
L 50.001883 37.008 
L 53.856 38.003405 
L 59.808 39.266867 
L 65.76 40.315562 
L 71.712 41.199135 
L 77.664 41.953177 
L 83.137553 42.552 
L 83.616 42.606949 
L 89.568 43.20748 
L 95.52 43.734725 
L 101.472 44.201204 
L 107.424 44.61676 
L 113.376 44.989236 
L 119.328 45.324955 
L 125.28 45.629069 
L 131.232 45.905814 
L 137.184 46.158707 
L 143.136 46.390689 
L 149.088 46.604239 
L 155.04 46.801462 
L 160.992 46.984154 
L 166.944 47.153858 
L 172.896 47.311908 
L 178.848 47.45946 
L 184.8 47.597524 
L 190.752 47.726983 
L 196.704 47.848617 
L 202.656 47.963113 
L 208.608 48.071078 
L 210.060911 48.096 
L 214.56 48.177787 
L 214.56 52.720485 
L 208.608 52.619543 
L 202.656 52.512665 
L 196.704 52.399311 
L 190.752 52.278878 
L 184.8 52.150682 
L 178.848 52.013949 
L 172.896 51.867801 
L 166.944 51.711234 
L 160.992 51.543097 
L 155.04 51.362063 
L 149.088 51.166595 
L 143.136 50.954906 
L 137.184 50.724897 
L 131.232 50.474099 
L 125.28 50.199577 
L 119.328 49.897822 
L 113.376 49.564603 
L 107.424 49.194773 
L 101.472 48.782008 
L 95.52 48.318457 
L 92.982112 48.096 
L 89.568 47.813035 
L 83.616 47.253298 
L 77.664 46.610586 
L 71.712 45.865354 
L 65.76 44.991529 
L 59.808 43.953586 
L 53.856 42.701879 
L 53.262855 42.552 
L 47.904 41.250542 
L 41.952 39.44613 
L 36 37.128917 
z
" clip-path="url(#pcec44e1eb2)" style="fill: #2a768e"/>
   </g>
   <g id="PathCollection_21">
    <path d="M 36 153.432 
L 36 151.856141 
L 41.952 153.201083 
L 43.249389 153.432 
L 47.904 154.151787 
L 53.856 154.900437 
L 59.808 155.524044 
L 65.76 156.051624 
L 71.712 156.503686 
L 77.664 156.895244 
L 83.616 157.237577 
L 89.568 157.539335 
L 95.52 157.807263 
L 101.472 158.046701 
L 107.424 158.261928 
L 113.376 158.456412 
L 119.328 158.632994 
L 125.28 158.794022 
L 131.232 158.941452 
L 132.753211 158.976 
L 137.184 159.061348 
L 143.136 159.166897 
L 149.088 159.264438 
L 155.04 159.354846 
L 160.992 159.438873 
L 166.944 159.517167 
L 172.896 159.590295 
L 178.848 159.658749 
L 184.8 159.722963 
L 190.752 159.783316 
L 196.704 159.840147 
L 202.656 159.893754 
L 208.608 159.944403 
L 214.56 159.992331 
L 214.56 163.049332 
L 208.608 162.998107 
L 202.656 162.943982 
L 196.704 162.886704 
L 190.752 162.82599 
L 184.8 162.761524 
L 178.848 162.692945 
L 172.896 162.619851 
L 166.944 162.541782 
L 160.992 162.458213 
L 155.04 162.368547 
L 149.088 162.272092 
L 143.136 162.168053 
L 137.184 162.055504 
L 131.232 161.933363 
L 125.28 161.800359 
L 119.328 161.654986 
L 113.376 161.49545 
L 107.424 161.319596 
L 101.472 161.124813 
L 95.52 160.907906 
L 89.568 160.664929 
L 83.616 160.390949 
L 77.664 160.079722 
L 71.712 159.723228 
L 65.76 159.310983 
L 61.6352 158.976 
L 59.808 158.80415 
L 53.856 158.138335 
L 47.904 157.340415 
L 41.952 156.365445 
L 36 155.143271 
z
" clip-path="url(#pcec44e1eb2)" style="fill: #24878e"/>
    <path d="M 36.822421 42.552 
L 36 42.247826 
L 36 37.128917 
L 41.952 39.44613 
L 47.904 41.250542 
L 53.262855 42.552 
L 53.856 42.701879 
L 59.808 43.953586 
L 65.76 44.991529 
L 71.712 45.865354 
L 77.664 46.610586 
L 83.616 47.253298 
L 89.568 47.813035 
L 92.982112 48.096 
L 95.52 48.318457 
L 101.472 48.782008 
L 107.424 49.194773 
L 113.376 49.564603 
L 119.328 49.897822 
L 125.28 50.199577 
L 131.232 50.474099 
L 137.184 50.724897 
L 143.136 50.954906 
L 149.088 51.166595 
L 155.04 51.362063 
L 160.992 51.543097 
L 166.944 51.711234 
L 172.896 51.867801 
L 178.848 52.013949 
L 184.8 52.150682 
L 190.752 52.278878 
L 196.704 52.399311 
L 202.656 52.512665 
L 208.608 52.619543 
L 214.56 52.720485 
L 214.56 53.64 
L 214.56 57.512982 
L 208.608 57.413301 
L 202.656 57.307746 
L 196.704 57.195784 
L 190.752 57.076814 
L 184.8 56.95016 
L 178.848 56.815053 
L 172.896 56.670621 
L 166.944 56.515868 
L 160.992 56.34965 
L 155.04 56.170649 
L 149.088 55.977338 
L 143.136 55.767937 
L 137.184 55.54036 
L 131.232 55.292146 
L 125.28 55.020374 
L 119.328 54.721544 
L 113.376 54.391434 
L 107.424 54.024906 
L 101.823973 53.64 
L 101.472 53.61731 
L 95.52 53.18926 
L 89.568 52.705475 
L 83.616 52.154478 
L 77.664 51.521462 
L 71.712 50.787007 
L 65.76 49.925172 
L 59.808 48.900542 
L 55.908496 48.096 
L 53.856 47.692692 
L 47.904 46.277434 
L 41.952 44.505077 
z
" clip-path="url(#pcec44e1eb2)" style="fill: #24878e"/>
   </g>
   <g id="PathCollection_22">
    <path d="M 41.952 149.531052 
L 47.904 150.52827 
L 53.856 151.345167 
L 59.808 152.027563 
L 65.76 152.606368 
L 71.712 153.103479 
L 76.254444 153.432 
L 77.664 153.51863 
L 83.616 153.836075 
L 89.568 154.115632 
L 95.52 154.36364 
L 101.472 154.585109 
L 107.424 154.784051 
L 113.376 154.963709 
L 119.328 155.126739 
L 125.28 155.275333 
L 131.232 155.411316 
L 137.184 155.536219 
L 143.136 155.651336 
L 149.088 155.75777 
L 155.04 155.856462 
L 160.992 155.948225 
L 166.944 156.03376 
L 172.896 156.113679 
L 178.848 156.188515 
L 184.8 156.258737 
L 190.752 156.324757 
L 196.704 156.386941 
L 202.656 156.445613 
L 208.608 156.501062 
L 214.56 156.553545 
L 214.56 158.976 
L 214.56 159.992331 
L 208.608 159.944403 
L 202.656 159.893754 
L 196.704 159.840147 
L 190.752 159.783316 
L 184.8 159.722963 
L 178.848 159.658749 
L 172.896 159.590295 
L 166.944 159.517167 
L 160.992 159.438873 
L 155.04 159.354846 
L 149.088 159.264438 
L 143.136 159.166897 
L 137.184 159.061348 
L 132.753211 158.976 
L 131.232 158.941452 
L 125.28 158.794022 
L 119.328 158.632994 
L 113.376 158.456412 
L 107.424 158.261928 
L 101.472 158.046701 
L 95.52 157.807263 
L 89.568 157.539335 
L 83.616 157.237577 
L 77.664 156.895244 
L 71.712 156.503686 
L 65.76 156.051624 
L 59.808 155.524044 
L 53.856 154.900437 
L 47.904 154.151787 
L 43.249389 153.432 
L 41.952 153.201083 
L 36 151.856141 
L 36 148.281705 
z
" clip-path="url(#pcec44e1eb2)" style="fill: #1f998a"/>
    <path d="M 37.085638 48.096 
L 36 47.706521 
L 36 42.552 
L 36 42.247826 
L 36.822421 42.552 
L 41.952 44.505077 
L 47.904 46.277434 
L 53.856 47.692692 
L 55.908496 48.096 
L 59.808 48.900542 
L 65.76 49.925172 
L 71.712 50.787007 
L 77.664 51.521462 
L 83.616 52.154478 
L 89.568 52.705475 
L 95.52 53.18926 
L 101.472 53.61731 
L 101.823973 53.64 
L 107.424 54.024906 
L 113.376 54.391434 
L 119.328 54.721544 
L 125.28 55.020374 
L 131.232 55.292146 
L 137.184 55.54036 
L 143.136 55.767937 
L 149.088 55.977338 
L 155.04 56.170649 
L 160.992 56.34965 
L 166.944 56.515868 
L 172.896 56.670621 
L 178.848 56.815053 
L 184.8 56.95016 
L 190.752 57.076814 
L 196.704 57.195784 
L 202.656 57.307746 
L 208.608 57.413301 
L 214.56 57.512982 
L 214.56 59.184 
L 214.56 62.617925 
L 208.608 62.51989 
L 202.656 62.416066 
L 196.704 62.305925 
L 190.752 62.188874 
L 184.8 62.064244 
L 178.848 61.931276 
L 172.896 61.789106 
L 166.944 61.636748 
L 160.992 61.473069 
L 155.04 61.296765 
L 149.088 61.106321 
L 143.136 60.899972 
L 137.184 60.675649 
L 131.232 60.430909 
L 125.28 60.162846 
L 119.328 59.867983 
L 113.376 59.542116 
L 107.487294 59.184 
L 107.424 59.180423 
L 101.472 58.807363 
L 95.52 58.388447 
L 89.568 57.914776 
L 83.616 57.37502 
L 77.664 56.754545 
L 71.712 56.034128 
L 65.76 55.188045 
L 59.808 54.181107 
L 57.128537 53.64 
L 53.856 53.015284 
L 47.904 51.634486 
L 41.952 49.903513 
z
" clip-path="url(#pcec44e1eb2)" style="fill: #1f998a"/>
   </g>
   <g id="PathCollection_23">
    <path d="M 36 147.888 
L 36 144.13007 
L 41.952 145.481512 
L 47.904 146.56471 
L 53.856 147.455558 
L 57.328624 147.888 
L 59.808 148.150068 
L 65.76 148.677721 
L 71.712 149.129992 
L 77.664 149.521875 
L 83.616 149.864623 
L 89.568 150.166861 
L 95.52 150.435315 
L 101.472 150.675307 
L 107.424 150.891106 
L 113.376 151.086169 
L 119.328 151.26333 
L 125.28 151.424932 
L 131.232 151.572927 
L 137.184 151.708957 
L 143.136 151.834409 
L 149.088 151.950467 
L 155.04 152.058142 
L 160.992 152.15831 
L 166.944 152.251725 
L 172.896 152.339046 
L 178.848 152.420849 
L 184.8 152.49764 
L 190.752 152.569864 
L 196.704 152.637916 
L 202.656 152.702147 
L 208.608 152.762868 
L 214.56 152.82036 
L 214.56 153.432 
L 214.56 156.553545 
L 208.608 156.501062 
L 202.656 156.445613 
L 196.704 156.386941 
L 190.752 156.324757 
L 184.8 156.258737 
L 178.848 156.188515 
L 172.896 156.113679 
L 166.944 156.03376 
L 160.992 155.948225 
L 155.04 155.856462 
L 149.088 155.75777 
L 143.136 155.651336 
L 137.184 155.536219 
L 131.232 155.411316 
L 125.28 155.275333 
L 119.328 155.126739 
L 113.376 154.963709 
L 107.424 154.784051 
L 101.472 154.585109 
L 95.52 154.36364 
L 89.568 154.115632 
L 83.616 153.836075 
L 77.664 153.51863 
L 76.254444 153.432 
L 71.712 153.103479 
L 65.76 152.606368 
L 59.808 152.027563 
L 53.856 151.345167 
L 47.904 150.52827 
L 41.952 149.531052 
L 36 148.281705 
z
" clip-path="url(#pcec44e1eb2)" style="fill: #24aa83"/>
    <path d="M 36.132927 53.64 
L 36 53.593838 
L 36 48.096 
L 36 47.706521 
L 37.085638 48.096 
L 41.952 49.903513 
L 47.904 51.634486 
L 53.856 53.015284 
L 57.128537 53.64 
L 59.808 54.181107 
L 65.76 55.188045 
L 71.712 56.034128 
L 77.664 56.754545 
L 83.616 57.37502 
L 89.568 57.914776 
L 95.52 58.388447 
L 101.472 58.807363 
L 107.424 59.180423 
L 107.487294 59.184 
L 113.376 59.542116 
L 119.328 59.867983 
L 125.28 60.162846 
L 131.232 60.430909 
L 137.184 60.675649 
L 143.136 60.899972 
L 149.088 61.106321 
L 155.04 61.296765 
L 160.992 61.473069 
L 166.944 61.636748 
L 172.896 61.789106 
L 178.848 61.931276 
L 184.8 62.064244 
L 190.752 62.188874 
L 196.704 62.305925 
L 202.656 62.416066 
L 208.608 62.51989 
L 214.56 62.617925 
L 214.56 64.728 
L 214.56 68.134096 
L 208.608 68.038379 
L 202.656 67.936996 
L 196.704 67.82943 
L 190.752 67.715097 
L 184.8 67.59334 
L 178.848 67.463413 
L 172.896 67.324468 
L 166.944 67.175535 
L 160.992 67.015499 
L 155.04 66.843075 
L 149.088 66.656773 
L 143.136 66.454851 
L 137.184 66.23527 
L 131.232 65.995617 
L 125.28 65.733021 
L 119.328 65.444043 
L 113.376 65.124522 
L 107.424 64.769379 
L 106.799021 64.728 
L 101.472 64.403847 
L 95.52 63.9973 
L 89.568 63.537396 
L 83.616 63.013038 
L 77.664 62.409869 
L 71.712 61.709005 
L 65.76 60.885119 
L 59.808 59.903483 
L 56.168854 59.184 
L 53.856 58.755765 
L 47.904 57.421364 
L 41.952 55.747014 
z
" clip-path="url(#pcec44e1eb2)" style="fill: #24aa83"/>
   </g>
   <g id="PathCollection_24">
    <path d="M 36 142.344 
L 36 139.419656 
L 41.952 140.871097 
L 47.904 142.040356 
L 49.807885 142.344 
L 53.856 142.887309 
L 59.808 143.549745 
L 65.76 144.11155 
L 71.712 144.594097 
L 77.664 145.013018 
L 83.616 145.380065 
L 89.568 145.704258 
L 95.52 145.992644 
L 101.472 146.250813 
L 107.424 146.48325 
L 113.376 146.6936 
L 119.328 146.884854 
L 125.28 147.059487 
L 131.232 147.219567 
L 137.184 147.366833 
L 143.136 147.502759 
L 149.088 147.628602 
L 155.04 147.74544 
L 160.992 147.854205 
L 162.977875 147.888 
L 166.944 147.943167 
L 172.896 148.020454 
L 178.848 148.092822 
L 184.8 148.160727 
L 190.752 148.224567 
L 196.704 148.284696 
L 202.656 148.341427 
L 208.608 148.39504 
L 214.56 148.445785 
L 214.56 152.82036 
L 208.608 152.762868 
L 202.656 152.702147 
L 196.704 152.637916 
L 190.752 152.569864 
L 184.8 152.49764 
L 178.848 152.420849 
L 172.896 152.339046 
L 166.944 152.251725 
L 160.992 152.15831 
L 155.04 152.058142 
L 149.088 151.950467 
L 143.136 151.834409 
L 137.184 151.708957 
L 131.232 151.572927 
L 125.28 151.424932 
L 119.328 151.26333 
L 113.376 151.086169 
L 107.424 150.891106 
L 101.472 150.675307 
L 95.52 150.435315 
L 89.568 150.166861 
L 83.616 149.864623 
L 77.664 149.521875 
L 71.712 149.129992 
L 65.76 148.677721 
L 59.808 148.150068 
L 57.328624 147.888 
L 53.856 147.455558 
L 47.904 146.56471 
L 41.952 145.481512 
L 36 144.13007 
z
" clip-path="url(#pcec44e1eb2)" style="fill: #3aba76"/>
    <path d="M 36 59.184 
L 36 53.64 
L 36 53.593838 
L 36.132927 53.64 
L 41.952 55.747014 
L 47.904 57.421364 
L 53.856 58.755765 
L 56.168854 59.184 
L 59.808 59.903483 
L 65.76 60.885119 
L 71.712 61.709005 
L 77.664 62.409869 
L 83.616 63.013038 
L 89.568 63.537396 
L 95.52 63.9973 
L 101.472 64.403847 
L 106.799021 64.728 
L 107.424 64.769379 
L 113.376 65.124522 
L 119.328 65.444043 
L 125.28 65.733021 
L 131.232 65.995617 
L 137.184 66.23527 
L 143.136 66.454851 
L 149.088 66.656773 
L 155.04 66.843075 
L 160.992 67.015499 
L 166.944 67.175535 
L 172.896 67.324468 
L 178.848 67.463413 
L 184.8 67.59334 
L 190.752 67.715097 
L 196.704 67.82943 
L 202.656 67.936996 
L 208.608 68.038379 
L 214.56 68.134096 
L 214.56 70.272 
L 214.56 74.212796 
L 208.608 74.120605 
L 202.656 74.022942 
L 196.704 73.919306 
L 190.752 73.809132 
L 184.8 73.691783 
L 178.848 73.566536 
L 172.896 73.432567 
L 166.944 73.288935 
L 160.992 73.134558 
L 155.04 72.968186 
L 149.088 72.788368 
L 143.136 72.593413 
L 137.184 72.381331 
L 131.232 72.149771 
L 125.28 71.895933 
L 119.328 71.616453 
L 113.376 71.307262 
L 107.424 70.963386 
L 101.472 70.578681 
L 97.245586 70.272 
L 95.52 70.158561 
L 89.568 69.718656 
L 83.616 69.216832 
L 77.664 68.639222 
L 71.712 67.967547 
L 65.76 67.177247 
L 59.808 66.234562 
L 53.856 65.091831 
L 52.283419 64.728 
L 47.904 63.787389 
L 41.952 62.195439 
L 36 60.143641 
z
" clip-path="url(#pcec44e1eb2)" style="fill: #3aba76"/>
   </g>
   <g id="PathCollection_25">
    <path d="M 36 136.8 
L 36 133.799062 
L 41.952 135.327437 
L 47.904 136.565594 
L 49.293903 136.8 
L 53.856 137.433933 
L 59.808 138.121831 
L 65.76 138.706544 
L 71.712 139.20987 
L 77.664 139.647747 
L 83.616 140.032161 
L 89.568 140.372322 
L 95.52 140.675438 
L 101.472 140.94723 
L 107.424 141.192301 
L 113.376 141.414396 
L 119.328 141.616593 
L 125.28 141.801445 
L 131.232 141.971086 
L 137.184 142.127316 
L 143.136 142.271661 
L 146.361813 142.344 
L 149.088 142.392734 
L 155.04 142.491221 
L 160.992 142.582817 
L 166.944 142.668217 
L 172.896 142.748029 
L 178.848 142.822782 
L 184.8 142.892941 
L 190.752 142.958916 
L 196.704 143.02107 
L 202.656 143.079724 
L 208.608 143.135166 
L 214.56 143.187651 
L 214.56 147.888 
L 214.56 148.445785 
L 208.608 148.39504 
L 202.656 148.341427 
L 196.704 148.284696 
L 190.752 148.224567 
L 184.8 148.160727 
L 178.848 148.092822 
L 172.896 148.020454 
L 166.944 147.943167 
L 162.977875 147.888 
L 160.992 147.854205 
L 155.04 147.74544 
L 149.088 147.628602 
L 143.136 147.502759 
L 137.184 147.366833 
L 131.232 147.219567 
L 125.28 147.059487 
L 119.328 146.884854 
L 113.376 146.6936 
L 107.424 146.48325 
L 101.472 146.250813 
L 95.52 145.992644 
L 89.568 145.704258 
L 83.616 145.380065 
L 77.664 145.013018 
L 71.712 144.594097 
L 65.76 144.11155 
L 59.808 143.549745 
L 53.856 142.887309 
L 49.807885 142.344 
L 47.904 142.040356 
L 41.952 140.871097 
L 36 139.419656 
z
" clip-path="url(#pcec44e1eb2)" style="fill: #5cc863"/>
    <path d="M 36 64.728 
L 36 60.143641 
L 41.952 62.195439 
L 47.904 63.787389 
L 52.283419 64.728 
L 53.856 65.091831 
L 59.808 66.234562 
L 65.76 67.177247 
L 71.712 67.967547 
L 77.664 68.639222 
L 83.616 69.216832 
L 89.568 69.718656 
L 95.52 70.158561 
L 97.245586 70.272 
L 101.472 70.578681 
L 107.424 70.963386 
L 113.376 71.307262 
L 119.328 71.616453 
L 125.28 71.895933 
L 131.232 72.149771 
L 137.184 72.381331 
L 143.136 72.593413 
L 149.088 72.788368 
L 155.04 72.968186 
L 160.992 73.134558 
L 166.944 73.288935 
L 172.896 73.432567 
L 178.848 73.566536 
L 184.8 73.691783 
L 190.752 73.809132 
L 196.704 73.919306 
L 202.656 74.022942 
L 208.608 74.120605 
L 214.56 74.212796 
L 214.56 75.816 
L 214.56 81.09871 
L 208.608 81.012311 
L 202.656 80.920773 
L 196.704 80.823624 
L 190.752 80.720332 
L 184.8 80.610297 
L 178.848 80.492835 
L 172.896 80.367172 
L 166.944 80.232418 
L 160.992 80.087552 
L 155.04 79.931393 
L 149.088 79.762571 
L 143.136 79.579483 
L 137.184 79.380247 
L 131.232 79.162634 
L 125.28 78.923988 
L 119.328 78.661115 
L 113.376 78.370143 
L 107.424 78.046336 
L 101.472 77.683831 
L 95.52 77.275293 
L 89.568 76.811418 
L 83.616 76.280236 
L 79.097446 75.816 
L 77.664 75.685114 
L 71.712 75.06027 
L 65.76 74.324655 
L 59.808 73.446571 
L 53.856 72.381184 
L 47.904 71.062985 
L 45.012258 70.272 
L 41.952 69.503488 
L 36 67.620709 
z
" clip-path="url(#pcec44e1eb2)" style="fill: #5cc863"/>
   </g>
   <g id="PathCollection_26">
    <path d="M 36 131.256 
L 36 126.617966 
L 41.952 128.138459 
L 47.904 129.373953 
L 53.856 130.40607 
L 59.614833 131.256 
L 59.808 131.278433 
L 65.76 131.850497 
L 71.712 132.343363 
L 77.664 132.772593 
L 83.616 133.149846 
L 89.568 133.484066 
L 95.52 133.782241 
L 101.472 134.049917 
L 107.424 134.291552 
L 113.376 134.510776 
L 119.328 134.710571 
L 125.28 134.893414 
L 131.232 135.061377 
L 137.184 135.216205 
L 143.136 135.359384 
L 149.088 135.492182 
L 155.04 135.615689 
L 160.992 135.730847 
L 166.944 135.838477 
L 172.896 135.939294 
L 178.848 136.033925 
L 184.8 136.122924 
L 190.752 136.206778 
L 196.704 136.285923 
L 202.656 136.360743 
L 208.608 136.431584 
L 214.56 136.498757 
L 214.56 136.8 
L 214.56 142.344 
L 214.56 143.187651 
L 208.608 143.135166 
L 202.656 143.079724 
L 196.704 143.02107 
L 190.752 142.958916 
L 184.8 142.892941 
L 178.848 142.822782 
L 172.896 142.748029 
L 166.944 142.668217 
L 160.992 142.582817 
L 155.04 142.491221 
L 149.088 142.392734 
L 146.361813 142.344 
L 143.136 142.271661 
L 137.184 142.127316 
L 131.232 141.971086 
L 125.28 141.801445 
L 119.328 141.616593 
L 113.376 141.414396 
L 107.424 141.192301 
L 101.472 140.94723 
L 95.52 140.675438 
L 89.568 140.372322 
L 83.616 140.032161 
L 77.664 139.647747 
L 71.712 139.20987 
L 65.76 138.706544 
L 59.808 138.121831 
L 53.856 137.433933 
L 49.293903 136.8 
L 47.904 136.565594 
L 41.952 135.327437 
L 36 133.799062 
z
" clip-path="url(#pcec44e1eb2)" style="fill: #89d548"/>
    <path d="M 36 75.816 
L 36 70.272 
L 36 67.620709 
L 41.952 69.503488 
L 45.012258 70.272 
L 47.904 71.062985 
L 53.856 72.381184 
L 59.808 73.446571 
L 65.76 74.324655 
L 71.712 75.06027 
L 77.664 75.685114 
L 79.097446 75.816 
L 83.616 76.280236 
L 89.568 76.811418 
L 95.52 77.275293 
L 101.472 77.683831 
L 107.424 78.046336 
L 113.376 78.370143 
L 119.328 78.661115 
L 125.28 78.923988 
L 131.232 79.162634 
L 137.184 79.380247 
L 143.136 79.579483 
L 149.088 79.762571 
L 155.04 79.931393 
L 160.992 80.087552 
L 166.944 80.232418 
L 172.896 80.367172 
L 178.848 80.492835 
L 184.8 80.610297 
L 190.752 80.720332 
L 196.704 80.823624 
L 202.656 80.920773 
L 208.608 81.012311 
L 214.56 81.09871 
L 214.56 81.36 
L 214.56 86.904 
L 214.56 89.657436 
L 208.608 89.568326 
L 202.656 89.473819 
L 196.704 89.373407 
L 190.752 89.266521 
L 184.8 89.152511 
L 178.848 89.030642 
L 172.896 88.90007 
L 166.944 88.759827 
L 160.992 88.608798 
L 155.04 88.445685 
L 149.088 88.268978 
L 143.136 88.076901 
L 137.184 87.867353 
L 131.232 87.637835 
L 125.28 87.385343 
L 119.328 87.106239 
L 115.430978 86.904 
L 113.376 86.815039 
L 107.424 86.530118 
L 101.472 86.211112 
L 95.52 85.851538 
L 89.568 85.443163 
L 83.616 84.975376 
L 77.664 84.434263 
L 71.712 83.80122 
L 65.76 83.050803 
L 59.808 82.147256 
L 55.528318 81.36 
L 53.856 81.093933 
L 47.904 79.954899 
L 41.952 78.516436 
L 36 76.649544 
z
" clip-path="url(#pcec44e1eb2)" style="fill: #89d548"/>
   </g>
   <g id="PathCollection_27">
    <path d="M 36 125.712 
L 36 120.168 
L 36 114.937632 
L 41.952 116.564211 
L 47.904 117.925802 
L 53.856 119.10922 
L 59.808 120.165564 
L 59.824291 120.168 
L 65.76 120.735081 
L 71.712 121.228043 
L 77.664 121.660463 
L 83.616 122.043474 
L 89.568 122.385528 
L 95.52 122.693188 
L 101.472 122.971636 
L 107.424 123.225033 
L 113.376 123.456759 
L 119.328 123.669597 
L 125.28 123.865856 
L 131.232 124.047477 
L 137.184 124.216099 
L 143.136 124.373117 
L 149.088 124.519732 
L 155.04 124.656978 
L 160.992 124.785754 
L 166.944 124.906843 
L 172.896 125.020935 
L 178.848 125.128635 
L 184.8 125.230481 
L 190.752 125.32695 
L 196.704 125.418468 
L 202.656 125.505414 
L 208.608 125.588133 
L 214.56 125.66693 
L 214.56 125.712 
L 214.56 131.256 
L 214.56 136.498757 
L 208.608 136.431584 
L 202.656 136.360743 
L 196.704 136.285923 
L 190.752 136.206778 
L 184.8 136.122924 
L 178.848 136.033925 
L 172.896 135.939294 
L 166.944 135.838477 
L 160.992 135.730847 
L 155.04 135.615689 
L 149.088 135.492182 
L 143.136 135.359384 
L 137.184 135.216205 
L 131.232 135.061377 
L 125.28 134.893414 
L 119.328 134.710571 
L 113.376 134.510776 
L 107.424 134.291552 
L 101.472 134.049917 
L 95.52 133.782241 
L 89.568 133.484066 
L 83.616 133.149846 
L 77.664 132.772593 
L 71.712 132.343363 
L 65.76 131.850497 
L 59.808 131.278433 
L 59.614833 131.256 
L 53.856 130.40607 
L 47.904 129.373953 
L 41.952 128.138459 
L 36 126.617966 
z
" clip-path="url(#pcec44e1eb2)" style="fill: #b8de29"/>
    <path d="M 36 86.904 
L 36 81.36 
L 36 76.649544 
L 41.952 78.516436 
L 47.904 79.954899 
L 53.856 81.093933 
L 55.528318 81.36 
L 59.808 82.147256 
L 65.76 83.050803 
L 71.712 83.80122 
L 77.664 84.434263 
L 83.616 84.975376 
L 89.568 85.443163 
L 95.52 85.851538 
L 101.472 86.211112 
L 107.424 86.530118 
L 113.376 86.815039 
L 115.430978 86.904 
L 119.328 87.106239 
L 125.28 87.385343 
L 131.232 87.637835 
L 137.184 87.867353 
L 143.136 88.076901 
L 149.088 88.268978 
L 155.04 88.445685 
L 160.992 88.608798 
L 166.944 88.759827 
L 172.896 88.90007 
L 178.848 89.030642 
L 184.8 89.152511 
L 190.752 89.266521 
L 196.704 89.373407 
L 202.656 89.473819 
L 208.608 89.568326 
L 214.56 89.657436 
L 214.56 92.448 
L 214.56 97.992 
L 214.56 102.294556 
L 208.608 102.215962 
L 202.656 102.132467 
L 196.704 102.043592 
L 190.752 101.948796 
L 184.8 101.847462 
L 178.848 101.738883 
L 172.896 101.622244 
L 166.944 101.496604 
L 160.992 101.360864 
L 155.04 101.213741 
L 149.088 101.053718 
L 143.136 100.878993 
L 137.184 100.687405 
L 131.232 100.476341 
L 125.28 100.242605 
L 119.328 99.982244 
L 113.376 99.690306 
L 107.424 99.36049 
L 101.472 98.984641 
L 95.52 98.551989 
L 89.568 98.047963 
L 88.985624 97.992 
L 83.616 97.640416 
L 77.664 97.189054 
L 71.712 96.658101 
L 65.76 96.023927 
L 59.808 95.252156 
L 53.856 94.290407 
L 47.904 93.053703 
L 45.536226 92.448 
L 41.952 91.764467 
L 36 90.384801 
z
" clip-path="url(#pcec44e1eb2)" style="fill: #b8de29"/>
   </g>
   <g id="PathCollection_28">
    <path d="M 36 114.624 
L 36 109.08 
L 36 103.536 
L 36 97.992 
L 36 92.448 
L 36 90.384801 
L 41.952 91.764467 
L 45.536226 92.448 
L 47.904 93.053703 
L 53.856 94.290407 
L 59.808 95.252156 
L 65.76 96.023927 
L 71.712 96.658101 
L 77.664 97.189054 
L 83.616 97.640416 
L 88.985624 97.992 
L 89.568 98.047963 
L 95.52 98.551989 
L 101.472 98.984641 
L 107.424 99.36049 
L 113.376 99.690306 
L 119.328 99.982244 
L 125.28 100.242605 
L 131.232 100.476341 
L 137.184 100.687405 
L 143.136 100.878993 
L 149.088 101.053718 
L 155.04 101.213741 
L 160.992 101.360864 
L 166.944 101.496604 
L 172.896 101.622244 
L 178.848 101.738883 
L 184.8 101.847462 
L 190.752 101.948796 
L 196.704 102.043592 
L 202.656 102.132467 
L 208.608 102.215962 
L 214.56 102.294556 
L 214.56 103.536 
L 214.56 109.08 
L 214.56 114.624 
L 214.56 120.168 
L 214.56 125.66693 
L 208.608 125.588133 
L 202.656 125.505414 
L 196.704 125.418468 
L 190.752 125.32695 
L 184.8 125.230481 
L 178.848 125.128635 
L 172.896 125.020935 
L 166.944 124.906843 
L 160.992 124.785754 
L 155.04 124.656978 
L 149.088 124.519732 
L 143.136 124.373117 
L 137.184 124.216099 
L 131.232 124.047477 
L 125.28 123.865856 
L 119.328 123.669597 
L 113.376 123.456759 
L 107.424 123.225033 
L 101.472 122.971636 
L 95.52 122.693188 
L 89.568 122.385528 
L 83.616 122.043474 
L 77.664 121.660463 
L 71.712 121.228043 
L 65.76 120.735081 
L 59.824291 120.168 
L 59.808 120.165564 
L 53.856 119.10922 
L 47.904 117.925802 
L 41.952 116.564211 
L 36 114.937632 
z
" clip-path="url(#pcec44e1eb2)" style="fill: #e7e419"/>
   </g>
   <g id="PathCollection_29">
    <defs>
     <path id="mc991150a03" d="M -4.330127 4.330127 
L 4.330127 -4.330127 
M -4.330127 -4.330127 
L 4.330127 4.330127 
" style="stroke: #000000; stroke-width: 2"/>
    </defs>
    <g clip-path="url(#pcec44e1eb2)">
     <use xlink:href="#mc991150a03" x="65.76" y="109.08" style="stroke: #000000; stroke-width: 2"/>
    </g>
   </g>
   <g id="matplotlib.axis_1">
    <g id="xtick_1">
     <g id="line2d_1">
      <defs>
       <path id="m506ea79126" d="M 0 0 
L 0 3.5 
" style="stroke: #000000; stroke-width: 0.8"/>
      </defs>
      <g>
       <use xlink:href="#m506ea79126" x="75.68" y="192.24" style="stroke: #000000; stroke-width: 0.8"/>
      </g>
     </g>
     <g id="text_1">
      <!-- 250 -->
      <g transform="translate(64.2275 208.358125) scale(0.12 -0.12)">
       <defs>
        <path id="DejaVuSans-32" d="M 1228 531 
L 3431 531 
L 3431 0 
L 469 0 
L 469 531 
Q 828 903 1448 1529 
Q 2069 2156 2228 2338 
Q 2531 2678 2651 2914 
Q 2772 3150 2772 3378 
Q 2772 3750 2511 3984 
Q 2250 4219 1831 4219 
Q 1534 4219 1204 4116 
Q 875 4013 500 3803 
L 500 4441 
Q 881 4594 1212 4672 
Q 1544 4750 1819 4750 
Q 2544 4750 2975 4387 
Q 3406 4025 3406 3419 
Q 3406 3131 3298 2873 
Q 3191 2616 2906 2266 
Q 2828 2175 2409 1742 
Q 1991 1309 1228 531 
z
" transform="scale(0.015625)"/>
        <path id="DejaVuSans-35" d="M 691 4666 
L 3169 4666 
L 3169 4134 
L 1269 4134 
L 1269 2991 
Q 1406 3038 1543 3061 
Q 1681 3084 1819 3084 
Q 2600 3084 3056 2656 
Q 3513 2228 3513 1497 
Q 3513 744 3044 326 
Q 2575 -91 1722 -91 
Q 1428 -91 1123 -41 
Q 819 9 494 109 
L 494 744 
Q 775 591 1075 516 
Q 1375 441 1709 441 
Q 2250 441 2565 725 
Q 2881 1009 2881 1497 
Q 2881 1984 2565 2268 
Q 2250 2553 1709 2553 
Q 1456 2553 1204 2497 
Q 953 2441 691 2322 
L 691 4666 
z
" transform="scale(0.015625)"/>
        <path id="DejaVuSans-30" d="M 2034 4250 
Q 1547 4250 1301 3770 
Q 1056 3291 1056 2328 
Q 1056 1369 1301 889 
Q 1547 409 2034 409 
Q 2525 409 2770 889 
Q 3016 1369 3016 2328 
Q 3016 3291 2770 3770 
Q 2525 4250 2034 4250 
z
M 2034 4750 
Q 2819 4750 3233 4129 
Q 3647 3509 3647 2328 
Q 3647 1150 3233 529 
Q 2819 -91 2034 -91 
Q 1250 -91 836 529 
Q 422 1150 422 2328 
Q 422 3509 836 4129 
Q 1250 4750 2034 4750 
z
" transform="scale(0.015625)"/>
       </defs>
       <use xlink:href="#DejaVuSans-32"/>
       <use xlink:href="#DejaVuSans-35" x="63.623047"/>
       <use xlink:href="#DejaVuSans-30" x="127.246094"/>
      </g>
     </g>
    </g>
    <g id="xtick_2">
     <g id="line2d_2">
      <g>
       <use xlink:href="#m506ea79126" x="125.28" y="192.24" style="stroke: #000000; stroke-width: 0.8"/>
      </g>
     </g>
     <g id="text_2">
      <!-- 500 -->
      <g transform="translate(113.8275 208.358125) scale(0.12 -0.12)">
       <use xlink:href="#DejaVuSans-35"/>
       <use xlink:href="#DejaVuSans-30" x="63.623047"/>
       <use xlink:href="#DejaVuSans-30" x="127.246094"/>
      </g>
     </g>
    </g>
    <g id="xtick_3">
     <g id="line2d_3">
      <g>
       <use xlink:href="#m506ea79126" x="174.88" y="192.24" style="stroke: #000000; stroke-width: 0.8"/>
      </g>
     </g>
     <g id="text_3">
      <!-- 750 -->
      <g transform="translate(163.4275 208.358125) scale(0.12 -0.12)">
       <defs>
        <path id="DejaVuSans-37" d="M 525 4666 
L 3525 4666 
L 3525 4397 
L 1831 0 
L 1172 0 
L 2766 4134 
L 525 4134 
L 525 4666 
z
" transform="scale(0.015625)"/>
       </defs>
       <use xlink:href="#DejaVuSans-37"/>
       <use xlink:href="#DejaVuSans-35" x="63.623047"/>
       <use xlink:href="#DejaVuSans-30" x="127.246094"/>
      </g>
     </g>
    </g>
    <g id="text_4">
     <!-- Diploid N$_e$0 -->
     <g transform="translate(80 227.01375) scale(0.16 -0.16)">
      <defs>
       <path id="DejaVuSans-44" d="M 1259 4147 
L 1259 519 
L 2022 519 
Q 2988 519 3436 956 
Q 3884 1394 3884 2338 
Q 3884 3275 3436 3711 
Q 2988 4147 2022 4147 
L 1259 4147 
z
M 628 4666 
L 1925 4666 
Q 3281 4666 3915 4102 
Q 4550 3538 4550 2338 
Q 4550 1131 3912 565 
Q 3275 0 1925 0 
L 628 0 
L 628 4666 
z
" transform="scale(0.015625)"/>
       <path id="DejaVuSans-69" d="M 603 3500 
L 1178 3500 
L 1178 0 
L 603 0 
L 603 3500 
z
M 603 4863 
L 1178 4863 
L 1178 4134 
L 603 4134 
L 603 4863 
z
" transform="scale(0.015625)"/>
       <path id="DejaVuSans-70" d="M 1159 525 
L 1159 -1331 
L 581 -1331 
L 581 3500 
L 1159 3500 
L 1159 2969 
Q 1341 3281 1617 3432 
Q 1894 3584 2278 3584 
Q 2916 3584 3314 3078 
Q 3713 2572 3713 1747 
Q 3713 922 3314 415 
Q 2916 -91 2278 -91 
Q 1894 -91 1617 61 
Q 1341 213 1159 525 
z
M 3116 1747 
Q 3116 2381 2855 2742 
Q 2594 3103 2138 3103 
Q 1681 3103 1420 2742 
Q 1159 2381 1159 1747 
Q 1159 1113 1420 752 
Q 1681 391 2138 391 
Q 2594 391 2855 752 
Q 3116 1113 3116 1747 
z
" transform="scale(0.015625)"/>
       <path id="DejaVuSans-6c" d="M 603 4863 
L 1178 4863 
L 1178 0 
L 603 0 
L 603 4863 
z
" transform="scale(0.015625)"/>
       <path id="DejaVuSans-6f" d="M 1959 3097 
Q 1497 3097 1228 2736 
Q 959 2375 959 1747 
Q 959 1119 1226 758 
Q 1494 397 1959 397 
Q 2419 397 2687 759 
Q 2956 1122 2956 1747 
Q 2956 2369 2687 2733 
Q 2419 3097 1959 3097 
z
M 1959 3584 
Q 2709 3584 3137 3096 
Q 3566 2609 3566 1747 
Q 3566 888 3137 398 
Q 2709 -91 1959 -91 
Q 1206 -91 779 398 
Q 353 888 353 1747 
Q 353 2609 779 3096 
Q 1206 3584 1959 3584 
z
" transform="scale(0.015625)"/>
       <path id="DejaVuSans-64" d="M 2906 2969 
L 2906 4863 
L 3481 4863 
L 3481 0 
L 2906 0 
L 2906 525 
Q 2725 213 2448 61 
Q 2172 -91 1784 -91 
Q 1150 -91 751 415 
Q 353 922 353 1747 
Q 353 2572 751 3078 
Q 1150 3584 1784 3584 
Q 2172 3584 2448 3432 
Q 2725 3281 2906 2969 
z
M 947 1747 
Q 947 1113 1208 752 
Q 1469 391 1925 391 
Q 2381 391 2643 752 
Q 2906 1113 2906 1747 
Q 2906 2381 2643 2742 
Q 2381 3103 1925 3103 
Q 1469 3103 1208 2742 
Q 947 2381 947 1747 
z
" transform="scale(0.015625)"/>
       <path id="DejaVuSans-20" transform="scale(0.015625)"/>
       <path id="DejaVuSans-4e" d="M 628 4666 
L 1478 4666 
L 3547 763 
L 3547 4666 
L 4159 4666 
L 4159 0 
L 3309 0 
L 1241 3903 
L 1241 0 
L 628 0 
L 628 4666 
z
" transform="scale(0.015625)"/>
       <path id="DejaVuSans-Oblique-65" d="M 3078 2063 
Q 3088 2113 3092 2166 
Q 3097 2219 3097 2272 
Q 3097 2653 2873 2875 
Q 2650 3097 2266 3097 
Q 1838 3097 1509 2826 
Q 1181 2556 1013 2059 
L 3078 2063 
z
M 3578 1613 
L 903 1613 
Q 884 1494 878 1425 
Q 872 1356 872 1306 
Q 872 872 1139 634 
Q 1406 397 1894 397 
Q 2269 397 2603 481 
Q 2938 566 3225 728 
L 3116 159 
Q 2806 34 2476 -28 
Q 2147 -91 1806 -91 
Q 1078 -91 686 257 
Q 294 606 294 1247 
Q 294 1794 489 2264 
Q 684 2734 1063 3103 
Q 1306 3334 1642 3459 
Q 1978 3584 2356 3584 
Q 2950 3584 3301 3228 
Q 3653 2872 3653 2272 
Q 3653 2128 3634 1964 
Q 3616 1800 3578 1613 
z
" transform="scale(0.015625)"/>
      </defs>
      <use xlink:href="#DejaVuSans-44" transform="translate(0 0.015625)"/>
      <use xlink:href="#DejaVuSans-69" transform="translate(77.001953 0.015625)"/>
      <use xlink:href="#DejaVuSans-70" transform="translate(104.785156 0.015625)"/>
      <use xlink:href="#DejaVuSans-6c" transform="translate(168.261719 0.015625)"/>
      <use xlink:href="#DejaVuSans-6f" transform="translate(196.044922 0.015625)"/>
      <use xlink:href="#DejaVuSans-69" transform="translate(257.226562 0.015625)"/>
      <use xlink:href="#DejaVuSans-64" transform="translate(285.009766 0.015625)"/>
      <use xlink:href="#DejaVuSans-20" transform="translate(348.486328 0.015625)"/>
      <use xlink:href="#DejaVuSans-4e" transform="translate(380.273438 0.015625)"/>
      <use xlink:href="#DejaVuSans-Oblique-65" transform="translate(456.035156 -16.390625) scale(0.7)"/>
      <use xlink:href="#DejaVuSans-30" transform="translate(501.835938 0.015625)"/>
     </g>
    </g>
    <g id="text_5">
     <!-- 1e3 -->
     <g transform="translate(195.681875 221.452188) scale(0.1 -0.1)">
      <defs>
       <path id="DejaVuSans-31" d="M 794 531 
L 1825 531 
L 1825 4091 
L 703 3866 
L 703 4441 
L 1819 4666 
L 2450 4666 
L 2450 531 
L 3481 531 
L 3481 0 
L 794 0 
L 794 531 
z
" transform="scale(0.015625)"/>
       <path id="DejaVuSans-65" d="M 3597 1894 
L 3597 1613 
L 953 1613 
Q 991 1019 1311 708 
Q 1631 397 2203 397 
Q 2534 397 2845 478 
Q 3156 559 3463 722 
L 3463 178 
Q 3153 47 2828 -22 
Q 2503 -91 2169 -91 
Q 1331 -91 842 396 
Q 353 884 353 1716 
Q 353 2575 817 3079 
Q 1281 3584 2069 3584 
Q 2775 3584 3186 3129 
Q 3597 2675 3597 1894 
z
M 3022 2063 
Q 3016 2534 2758 2815 
Q 2500 3097 2075 3097 
Q 1594 3097 1305 2825 
Q 1016 2553 972 2059 
L 3022 2063 
z
" transform="scale(0.015625)"/>
       <path id="DejaVuSans-33" d="M 2597 2516 
Q 3050 2419 3304 2112 
Q 3559 1806 3559 1356 
Q 3559 666 3084 287 
Q 2609 -91 1734 -91 
Q 1441 -91 1130 -33 
Q 819 25 488 141 
L 488 750 
Q 750 597 1062 519 
Q 1375 441 1716 441 
Q 2309 441 2620 675 
Q 2931 909 2931 1356 
Q 2931 1769 2642 2001 
Q 2353 2234 1838 2234 
L 1294 2234 
L 1294 2753 
L 1863 2753 
Q 2328 2753 2575 2939 
Q 2822 3125 2822 3475 
Q 2822 3834 2567 4026 
Q 2313 4219 1838 4219 
Q 1578 4219 1281 4162 
Q 984 4106 628 3988 
L 628 4550 
Q 988 4650 1302 4700 
Q 1616 4750 1894 4750 
Q 2613 4750 3031 4423 
Q 3450 4097 3450 3541 
Q 3450 3153 3228 2886 
Q 3006 2619 2597 2516 
z
" transform="scale(0.015625)"/>
      </defs>
      <use xlink:href="#DejaVuSans-31"/>
      <use xlink:href="#DejaVuSans-65" x="63.623047"/>
      <use xlink:href="#DejaVuSans-33" x="125.146484"/>
     </g>
    </g>
   </g>
   <g id="matplotlib.axis_2">
    <g id="ytick_1">
     <g id="line2d_4">
      <defs>
       <path id="mc09cbabe79" d="M 0 0 
L -3.5 0 
" style="stroke: #000000; stroke-width: 0.8"/>
      </defs>
      <g>
       <use xlink:href="#mc09cbabe79" x="36" y="192.24" style="stroke: #000000; stroke-width: 0.8"/>
      </g>
     </g>
     <g id="text_6">
      <!-- 1.0 -->
      <g transform="translate(9.91625 196.799062) scale(0.12 -0.12)">
       <defs>
        <path id="DejaVuSans-2e" d="M 684 794 
L 1344 794 
L 1344 0 
L 684 0 
L 684 794 
z
" transform="scale(0.015625)"/>
       </defs>
       <use xlink:href="#DejaVuSans-31"/>
       <use xlink:href="#DejaVuSans-2e" x="63.623047"/>
       <use xlink:href="#DejaVuSans-30" x="95.410156"/>
      </g>
     </g>
    </g>
    <g id="ytick_2">
     <g id="line2d_5">
      <g>
       <use xlink:href="#mc09cbabe79" x="36" y="150.66" style="stroke: #000000; stroke-width: 0.8"/>
      </g>
     </g>
     <g id="text_7">
      <!-- 1.5 -->
      <g transform="translate(9.91625 155.219063) scale(0.12 -0.12)">
       <use xlink:href="#DejaVuSans-31"/>
       <use xlink:href="#DejaVuSans-2e" x="63.623047"/>
       <use xlink:href="#DejaVuSans-35" x="95.410156"/>
      </g>
     </g>
    </g>
    <g id="ytick_3">
     <g id="line2d_6">
      <g>
       <use xlink:href="#mc09cbabe79" x="36" y="109.08" style="stroke: #000000; stroke-width: 0.8"/>
      </g>
     </g>
     <g id="text_8">
      <!-- 2.0 -->
      <g transform="translate(9.91625 113.639062) scale(0.12 -0.12)">
       <use xlink:href="#DejaVuSans-32"/>
       <use xlink:href="#DejaVuSans-2e" x="63.623047"/>
       <use xlink:href="#DejaVuSans-30" x="95.410156"/>
      </g>
     </g>
    </g>
    <g id="ytick_4">
     <g id="line2d_7">
      <g>
       <use xlink:href="#mc09cbabe79" x="36" y="67.5" style="stroke: #000000; stroke-width: 0.8"/>
      </g>
     </g>
     <g id="text_9">
      <!-- 2.5 -->
      <g transform="translate(9.91625 72.059063) scale(0.12 -0.12)">
       <use xlink:href="#DejaVuSans-32"/>
       <use xlink:href="#DejaVuSans-2e" x="63.623047"/>
       <use xlink:href="#DejaVuSans-35" x="95.410156"/>
      </g>
     </g>
    </g>
    <g id="ytick_5">
     <g id="line2d_8">
      <g>
       <use xlink:href="#mc09cbabe79" x="36" y="25.92" style="stroke: #000000; stroke-width: 0.8"/>
      </g>
     </g>
     <g id="text_10">
      <!-- 3.0 -->
      <g transform="translate(9.91625 30.479062) scale(0.12 -0.12)">
       <use xlink:href="#DejaVuSans-33"/>
       <use xlink:href="#DejaVuSans-2e" x="63.623047"/>
       <use xlink:href="#DejaVuSans-30" x="95.410156"/>
      </g>
     </g>
    </g>
    <g id="text_11">
     <!-- Recombination rate -->
     <g transform="translate(2.58875 187.6775) rotate(-90) scale(0.16 -0.16)">
      <defs>
       <path id="DejaVuSans-52" d="M 2841 2188 
Q 3044 2119 3236 1894 
Q 3428 1669 3622 1275 
L 4263 0 
L 3584 0 
L 2988 1197 
Q 2756 1666 2539 1819 
Q 2322 1972 1947 1972 
L 1259 1972 
L 1259 0 
L 628 0 
L 628 4666 
L 2053 4666 
Q 2853 4666 3247 4331 
Q 3641 3997 3641 3322 
Q 3641 2881 3436 2590 
Q 3231 2300 2841 2188 
z
M 1259 4147 
L 1259 2491 
L 2053 2491 
Q 2509 2491 2742 2702 
Q 2975 2913 2975 3322 
Q 2975 3731 2742 3939 
Q 2509 4147 2053 4147 
L 1259 4147 
z
" transform="scale(0.015625)"/>
       <path id="DejaVuSans-63" d="M 3122 3366 
L 3122 2828 
Q 2878 2963 2633 3030 
Q 2388 3097 2138 3097 
Q 1578 3097 1268 2742 
Q 959 2388 959 1747 
Q 959 1106 1268 751 
Q 1578 397 2138 397 
Q 2388 397 2633 464 
Q 2878 531 3122 666 
L 3122 134 
Q 2881 22 2623 -34 
Q 2366 -91 2075 -91 
Q 1284 -91 818 406 
Q 353 903 353 1747 
Q 353 2603 823 3093 
Q 1294 3584 2113 3584 
Q 2378 3584 2631 3529 
Q 2884 3475 3122 3366 
z
" transform="scale(0.015625)"/>
       <path id="DejaVuSans-6d" d="M 3328 2828 
Q 3544 3216 3844 3400 
Q 4144 3584 4550 3584 
Q 5097 3584 5394 3201 
Q 5691 2819 5691 2113 
L 5691 0 
L 5113 0 
L 5113 2094 
Q 5113 2597 4934 2840 
Q 4756 3084 4391 3084 
Q 3944 3084 3684 2787 
Q 3425 2491 3425 1978 
L 3425 0 
L 2847 0 
L 2847 2094 
Q 2847 2600 2669 2842 
Q 2491 3084 2119 3084 
Q 1678 3084 1418 2786 
Q 1159 2488 1159 1978 
L 1159 0 
L 581 0 
L 581 3500 
L 1159 3500 
L 1159 2956 
Q 1356 3278 1631 3431 
Q 1906 3584 2284 3584 
Q 2666 3584 2933 3390 
Q 3200 3197 3328 2828 
z
" transform="scale(0.015625)"/>
       <path id="DejaVuSans-62" d="M 3116 1747 
Q 3116 2381 2855 2742 
Q 2594 3103 2138 3103 
Q 1681 3103 1420 2742 
Q 1159 2381 1159 1747 
Q 1159 1113 1420 752 
Q 1681 391 2138 391 
Q 2594 391 2855 752 
Q 3116 1113 3116 1747 
z
M 1159 2969 
Q 1341 3281 1617 3432 
Q 1894 3584 2278 3584 
Q 2916 3584 3314 3078 
Q 3713 2572 3713 1747 
Q 3713 922 3314 415 
Q 2916 -91 2278 -91 
Q 1894 -91 1617 61 
Q 1341 213 1159 525 
L 1159 0 
L 581 0 
L 581 4863 
L 1159 4863 
L 1159 2969 
z
" transform="scale(0.015625)"/>
       <path id="DejaVuSans-6e" d="M 3513 2113 
L 3513 0 
L 2938 0 
L 2938 2094 
Q 2938 2591 2744 2837 
Q 2550 3084 2163 3084 
Q 1697 3084 1428 2787 
Q 1159 2491 1159 1978 
L 1159 0 
L 581 0 
L 581 3500 
L 1159 3500 
L 1159 2956 
Q 1366 3272 1645 3428 
Q 1925 3584 2291 3584 
Q 2894 3584 3203 3211 
Q 3513 2838 3513 2113 
z
" transform="scale(0.015625)"/>
       <path id="DejaVuSans-61" d="M 2194 1759 
Q 1497 1759 1228 1600 
Q 959 1441 959 1056 
Q 959 750 1161 570 
Q 1363 391 1709 391 
Q 2188 391 2477 730 
Q 2766 1069 2766 1631 
L 2766 1759 
L 2194 1759 
z
M 3341 1997 
L 3341 0 
L 2766 0 
L 2766 531 
Q 2569 213 2275 61 
Q 1981 -91 1556 -91 
Q 1019 -91 701 211 
Q 384 513 384 1019 
Q 384 1609 779 1909 
Q 1175 2209 1959 2209 
L 2766 2209 
L 2766 2266 
Q 2766 2663 2505 2880 
Q 2244 3097 1772 3097 
Q 1472 3097 1187 3025 
Q 903 2953 641 2809 
L 641 3341 
Q 956 3463 1253 3523 
Q 1550 3584 1831 3584 
Q 2591 3584 2966 3190 
Q 3341 2797 3341 1997 
z
" transform="scale(0.015625)"/>
       <path id="DejaVuSans-74" d="M 1172 4494 
L 1172 3500 
L 2356 3500 
L 2356 3053 
L 1172 3053 
L 1172 1153 
Q 1172 725 1289 603 
Q 1406 481 1766 481 
L 2356 481 
L 2356 0 
L 1766 0 
Q 1100 0 847 248 
Q 594 497 594 1153 
L 594 3053 
L 172 3053 
L 172 3500 
L 594 3500 
L 594 4494 
L 1172 4494 
z
" transform="scale(0.015625)"/>
       <path id="DejaVuSans-72" d="M 2631 2963 
Q 2534 3019 2420 3045 
Q 2306 3072 2169 3072 
Q 1681 3072 1420 2755 
Q 1159 2438 1159 1844 
L 1159 0 
L 581 0 
L 581 3500 
L 1159 3500 
L 1159 2956 
Q 1341 3275 1631 3429 
Q 1922 3584 2338 3584 
Q 2397 3584 2469 3576 
Q 2541 3569 2628 3553 
L 2631 2963 
z
" transform="scale(0.015625)"/>
      </defs>
      <use xlink:href="#DejaVuSans-52"/>
      <use xlink:href="#DejaVuSans-65" x="64.982422"/>
      <use xlink:href="#DejaVuSans-63" x="126.505859"/>
      <use xlink:href="#DejaVuSans-6f" x="181.486328"/>
      <use xlink:href="#DejaVuSans-6d" x="242.667969"/>
      <use xlink:href="#DejaVuSans-62" x="340.080078"/>
      <use xlink:href="#DejaVuSans-69" x="403.556641"/>
      <use xlink:href="#DejaVuSans-6e" x="431.339844"/>
      <use xlink:href="#DejaVuSans-61" x="494.71875"/>
      <use xlink:href="#DejaVuSans-74" x="555.998047"/>
      <use xlink:href="#DejaVuSans-69" x="595.207031"/>
      <use xlink:href="#DejaVuSans-6f" x="622.990234"/>
      <use xlink:href="#DejaVuSans-6e" x="684.171875"/>
      <use xlink:href="#DejaVuSans-20" x="747.550781"/>
      <use xlink:href="#DejaVuSans-72" x="779.337891"/>
      <use xlink:href="#DejaVuSans-61" x="820.451172"/>
      <use xlink:href="#DejaVuSans-74" x="881.730469"/>
      <use xlink:href="#DejaVuSans-65" x="920.939453"/>
     </g>
    </g>
    <g id="text_12">
     <!-- 1e9 -->
     <g transform="translate(36 22.92) scale(0.1 -0.1)">
      <defs>
       <path id="DejaVuSans-2212" d="M 678 2272 
L 4684 2272 
L 4684 1741 
L 678 1741 
L 678 2272 
z
" transform="scale(0.015625)"/>
       <path id="DejaVuSans-39" d="M 703 97 
L 703 672 
Q 941 559 1184 500 
Q 1428 441 1663 441 
Q 2288 441 2617 861 
Q 2947 1281 2994 2138 
Q 2813 1869 2534 1725 
Q 2256 1581 1919 1581 
Q 1219 1581 811 2004 
Q 403 2428 403 3163 
Q 403 3881 828 4315 
Q 1253 4750 1959 4750 
Q 2769 4750 3195 4129 
Q 3622 3509 3622 2328 
Q 3622 1225 3098 567 
Q 2575 -91 1691 -91 
Q 1453 -91 1209 -44 
Q 966 3 703 97 
z
M 1959 2075 
Q 2384 2075 2632 2365 
Q 2881 2656 2881 3163 
Q 2881 3666 2632 3958 
Q 2384 4250 1959 4250 
Q 1534 4250 1286 3958 
Q 1038 3666 1038 3163 
Q 1038 2656 1286 2365 
Q 1534 2075 1959 2075 
z
" transform="scale(0.015625)"/>
      </defs>
      <use xlink:href="#DejaVuSans-31"/>
      <use xlink:href="#DejaVuSans-65" x="63.623047"/>
      <use xlink:href="#DejaVuSans-2212" x="125.146484"/>
      <use xlink:href="#DejaVuSans-39" x="208.935547"/>
     </g>
    </g>
   </g>
   <g id="patch_3">
    <path d="M 36 192.24 
L 36 25.92 
" style="fill: none; stroke: #000000; stroke-width: 0.8; stroke-linejoin: miter; stroke-linecap: square"/>
   </g>
   <g id="patch_4">
    <path d="M 214.56 192.24 
L 214.56 25.92 
" style="fill: none; stroke: #000000; stroke-width: 0.8; stroke-linejoin: miter; stroke-linecap: square"/>
   </g>
   <g id="patch_5">
    <path d="M 36 192.24 
L 214.56 192.24 
" style="fill: none; stroke: #000000; stroke-width: 0.8; stroke-linejoin: miter; stroke-linecap: square"/>
   </g>
   <g id="patch_6">
    <path d="M 36 25.92 
L 214.56 25.92 
" style="fill: none; stroke: #000000; stroke-width: 0.8; stroke-linejoin: miter; stroke-linecap: square"/>
   </g>
   <g id="text_13">
    <!-- Ne0r-SMC-G-P2-S4 -->
    <g transform="translate(50.82 10.92) scale(0.16 -0.16)">
     <defs>
      <path id="DejaVuSans-2d" d="M 313 2009 
L 1997 2009 
L 1997 1497 
L 313 1497 
L 313 2009 
z
" transform="scale(0.015625)"/>
      <path id="DejaVuSans-53" d="M 3425 4513 
L 3425 3897 
Q 3066 4069 2747 4153 
Q 2428 4238 2131 4238 
Q 1616 4238 1336 4038 
Q 1056 3838 1056 3469 
Q 1056 3159 1242 3001 
Q 1428 2844 1947 2747 
L 2328 2669 
Q 3034 2534 3370 2195 
Q 3706 1856 3706 1288 
Q 3706 609 3251 259 
Q 2797 -91 1919 -91 
Q 1588 -91 1214 -16 
Q 841 59 441 206 
L 441 856 
Q 825 641 1194 531 
Q 1563 422 1919 422 
Q 2459 422 2753 634 
Q 3047 847 3047 1241 
Q 3047 1584 2836 1778 
Q 2625 1972 2144 2069 
L 1759 2144 
Q 1053 2284 737 2584 
Q 422 2884 422 3419 
Q 422 4038 858 4394 
Q 1294 4750 2059 4750 
Q 2388 4750 2728 4690 
Q 3069 4631 3425 4513 
z
" transform="scale(0.015625)"/>
      <path id="DejaVuSans-4d" d="M 628 4666 
L 1569 4666 
L 2759 1491 
L 3956 4666 
L 4897 4666 
L 4897 0 
L 4281 0 
L 4281 4097 
L 3078 897 
L 2444 897 
L 1241 4097 
L 1241 0 
L 628 0 
L 628 4666 
z
" transform="scale(0.015625)"/>
      <path id="DejaVuSans-43" d="M 4122 4306 
L 4122 3641 
Q 3803 3938 3442 4084 
Q 3081 4231 2675 4231 
Q 1875 4231 1450 3742 
Q 1025 3253 1025 2328 
Q 1025 1406 1450 917 
Q 1875 428 2675 428 
Q 3081 428 3442 575 
Q 3803 722 4122 1019 
L 4122 359 
Q 3791 134 3420 21 
Q 3050 -91 2638 -91 
Q 1578 -91 968 557 
Q 359 1206 359 2328 
Q 359 3453 968 4101 
Q 1578 4750 2638 4750 
Q 3056 4750 3426 4639 
Q 3797 4528 4122 4306 
z
" transform="scale(0.015625)"/>
      <path id="DejaVuSans-47" d="M 3809 666 
L 3809 1919 
L 2778 1919 
L 2778 2438 
L 4434 2438 
L 4434 434 
Q 4069 175 3628 42 
Q 3188 -91 2688 -91 
Q 1594 -91 976 548 
Q 359 1188 359 2328 
Q 359 3472 976 4111 
Q 1594 4750 2688 4750 
Q 3144 4750 3555 4637 
Q 3966 4525 4313 4306 
L 4313 3634 
Q 3963 3931 3569 4081 
Q 3175 4231 2741 4231 
Q 1884 4231 1454 3753 
Q 1025 3275 1025 2328 
Q 1025 1384 1454 906 
Q 1884 428 2741 428 
Q 3075 428 3337 486 
Q 3600 544 3809 666 
z
" transform="scale(0.015625)"/>
      <path id="DejaVuSans-50" d="M 1259 4147 
L 1259 2394 
L 2053 2394 
Q 2494 2394 2734 2622 
Q 2975 2850 2975 3272 
Q 2975 3691 2734 3919 
Q 2494 4147 2053 4147 
L 1259 4147 
z
M 628 4666 
L 2053 4666 
Q 2838 4666 3239 4311 
Q 3641 3956 3641 3272 
Q 3641 2581 3239 2228 
Q 2838 1875 2053 1875 
L 1259 1875 
L 1259 0 
L 628 0 
L 628 4666 
z
" transform="scale(0.015625)"/>
      <path id="DejaVuSans-34" d="M 2419 4116 
L 825 1625 
L 2419 1625 
L 2419 4116 
z
M 2253 4666 
L 3047 4666 
L 3047 1625 
L 3713 1625 
L 3713 1100 
L 3047 1100 
L 3047 0 
L 2419 0 
L 2419 1100 
L 313 1100 
L 313 1709 
L 2253 4666 
z
" transform="scale(0.015625)"/>
     </defs>
     <use xlink:href="#DejaVuSans-4e"/>
     <use xlink:href="#DejaVuSans-65" x="74.804688"/>
     <use xlink:href="#DejaVuSans-30" x="136.328125"/>
     <use xlink:href="#DejaVuSans-72" x="199.951172"/>
     <use xlink:href="#DejaVuSans-2d" x="234.689453"/>
     <use xlink:href="#DejaVuSans-53" x="270.773438"/>
     <use xlink:href="#DejaVuSans-4d" x="334.25"/>
     <use xlink:href="#DejaVuSans-43" x="420.529297"/>
     <use xlink:href="#DejaVuSans-2d" x="490.353516"/>
     <use xlink:href="#DejaVuSans-47" x="530.0625"/>
     <use xlink:href="#DejaVuSans-2d" x="607.552734"/>
     <use xlink:href="#DejaVuSans-50" x="643.636719"/>
     <use xlink:href="#DejaVuSans-32" x="703.939453"/>
     <use xlink:href="#DejaVuSans-2d" x="767.5625"/>
     <use xlink:href="#DejaVuSans-53" x="803.646484"/>
     <use xlink:href="#DejaVuSans-34" x="867.123047"/>
    </g>
   </g>
  </g>
  <g id="axes_2">
   <g id="patch_7">
    <path d="M 225.72 192.24 
L 234.036 192.24 
L 234.036 25.92 
L 225.72 25.92 
z
" style="fill: #ffffff"/>
   </g>
   <g id="QuadMesh_1">
    <path d="M 225.72 192.24 
L 234.036 192.24 
L 234.036 186.3 
L 225.72 186.3 
L 225.72 192.24 
" clip-path="url(#pfbc177cff0)" style="fill: #440154"/>
    <path d="M 225.72 186.3 
L 234.036 186.3 
L 234.036 180.36 
L 225.72 180.36 
L 225.72 186.3 
" clip-path="url(#pfbc177cff0)" style="fill: #440154"/>
    <path d="M 225.72 180.36 
L 234.036 180.36 
L 234.036 174.42 
L 225.72 174.42 
L 225.72 180.36 
" clip-path="url(#pfbc177cff0)" style="fill: #440154"/>
    <path d="M 225.72 174.42 
L 234.036 174.42 
L 234.036 168.48 
L 225.72 168.48 
L 225.72 174.42 
" clip-path="url(#pfbc177cff0)" style="fill: #440154"/>
    <path d="M 225.72 168.48 
L 234.036 168.48 
L 234.036 162.54 
L 225.72 162.54 
L 225.72 168.48 
" clip-path="url(#pfbc177cff0)" style="fill: #440154"/>
    <path d="M 225.72 162.54 
L 234.036 162.54 
L 234.036 156.6 
L 225.72 156.6 
L 225.72 162.54 
" clip-path="url(#pfbc177cff0)" style="fill: #440154"/>
    <path d="M 225.72 156.6 
L 234.036 156.6 
L 234.036 150.66 
L 225.72 150.66 
L 225.72 156.6 
" clip-path="url(#pfbc177cff0)" style="fill: #440154"/>
    <path d="M 225.72 150.66 
L 234.036 150.66 
L 234.036 144.72 
L 225.72 144.72 
L 225.72 150.66 
" clip-path="url(#pfbc177cff0)" style="fill: #440154"/>
    <path d="M 225.72 144.72 
L 234.036 144.72 
L 234.036 138.78 
L 225.72 138.78 
L 225.72 144.72 
" clip-path="url(#pfbc177cff0)" style="fill: #440154"/>
    <path d="M 225.72 138.78 
L 234.036 138.78 
L 234.036 132.84 
L 225.72 132.84 
L 225.72 138.78 
" clip-path="url(#pfbc177cff0)" style="fill: #440154"/>
    <path d="M 225.72 132.84 
L 234.036 132.84 
L 234.036 126.9 
L 225.72 126.9 
L 225.72 132.84 
" clip-path="url(#pfbc177cff0)" style="fill: #440154"/>
    <path d="M 225.72 126.9 
L 234.036 126.9 
L 234.036 120.96 
L 225.72 120.96 
L 225.72 126.9 
" clip-path="url(#pfbc177cff0)" style="fill: #440154"/>
    <path d="M 225.72 120.96 
L 234.036 120.96 
L 234.036 115.02 
L 225.72 115.02 
L 225.72 120.96 
" clip-path="url(#pfbc177cff0)" style="fill: #440154"/>
    <path d="M 225.72 115.02 
L 234.036 115.02 
L 234.036 109.08 
L 225.72 109.08 
L 225.72 115.02 
" clip-path="url(#pfbc177cff0)" style="fill: #440154"/>
    <path d="M 225.72 109.08 
L 234.036 109.08 
L 234.036 103.14 
L 225.72 103.14 
L 225.72 109.08 
" clip-path="url(#pfbc177cff0)" style="fill: #470e61"/>
    <path d="M 225.72 103.14 
L 234.036 103.14 
L 234.036 97.2 
L 225.72 97.2 
L 225.72 103.14 
" clip-path="url(#pfbc177cff0)" style="fill: #482677"/>
    <path d="M 225.72 97.2 
L 234.036 97.2 
L 234.036 91.26 
L 225.72 91.26 
L 225.72 97.2 
" clip-path="url(#pfbc177cff0)" style="fill: #433d84"/>
    <path d="M 225.72 91.26 
L 234.036 91.26 
L 234.036 85.32 
L 225.72 85.32 
L 225.72 91.26 
" clip-path="url(#pfbc177cff0)" style="fill: #3b518b"/>
    <path d="M 225.72 85.32 
L 234.036 85.32 
L 234.036 79.38 
L 225.72 79.38 
L 225.72 85.32 
" clip-path="url(#pfbc177cff0)" style="fill: #32658e"/>
    <path d="M 225.72 79.38 
L 234.036 79.38 
L 234.036 73.44 
L 225.72 73.44 
L 225.72 79.38 
" clip-path="url(#pfbc177cff0)" style="fill: #2a768e"/>
    <path d="M 225.72 73.44 
L 234.036 73.44 
L 234.036 67.5 
L 225.72 67.5 
L 225.72 73.44 
" clip-path="url(#pfbc177cff0)" style="fill: #24878e"/>
    <path d="M 225.72 67.5 
L 234.036 67.5 
L 234.036 61.56 
L 225.72 61.56 
L 225.72 67.5 
" clip-path="url(#pfbc177cff0)" style="fill: #1f998a"/>
    <path d="M 225.72 61.56 
L 234.036 61.56 
L 234.036 55.62 
L 225.72 55.62 
L 225.72 61.56 
" clip-path="url(#pfbc177cff0)" style="fill: #24aa83"/>
    <path d="M 225.72 55.62 
L 234.036 55.62 
L 234.036 49.68 
L 225.72 49.68 
L 225.72 55.62 
" clip-path="url(#pfbc177cff0)" style="fill: #3aba76"/>
    <path d="M 225.72 49.68 
L 234.036 49.68 
L 234.036 43.74 
L 225.72 43.74 
L 225.72 49.68 
" clip-path="url(#pfbc177cff0)" style="fill: #5cc863"/>
    <path d="M 225.72 43.74 
L 234.036 43.74 
L 234.036 37.8 
L 225.72 37.8 
L 225.72 43.74 
" clip-path="url(#pfbc177cff0)" style="fill: #89d548"/>
    <path d="M 225.72 37.8 
L 234.036 37.8 
L 234.036 31.86 
L 225.72 31.86 
L 225.72 37.8 
" clip-path="url(#pfbc177cff0)" style="fill: #b8de29"/>
    <path d="M 225.72 31.86 
L 234.036 31.86 
L 234.036 25.92 
L 225.72 25.92 
L 225.72 31.86 
" clip-path="url(#pfbc177cff0)" style="fill: #e7e419"/>
   </g>
   <g id="matplotlib.axis_3"/>
   <g id="matplotlib.axis_4">
    <g id="ytick_6">
     <g id="line2d_9">
      <defs>
       <path id="m053f55c8ad" d="M 0 0 
L 3.5 0 
" style="stroke: #000000; stroke-width: 0.8"/>
      </defs>
      <g>
       <use xlink:href="#m053f55c8ad" x="234.036" y="186.3" style="stroke: #000000; stroke-width: 0.8"/>
      </g>
     </g>
     <g id="text_14">
      <!-- $\mathdefault{228.3}$ -->
      <g transform="translate(241.036 190.099219) scale(0.1 -0.1)">
       <defs>
        <path id="DejaVuSans-38" d="M 2034 2216 
Q 1584 2216 1326 1975 
Q 1069 1734 1069 1313 
Q 1069 891 1326 650 
Q 1584 409 2034 409 
Q 2484 409 2743 651 
Q 3003 894 3003 1313 
Q 3003 1734 2745 1975 
Q 2488 2216 2034 2216 
z
M 1403 2484 
Q 997 2584 770 2862 
Q 544 3141 544 3541 
Q 544 4100 942 4425 
Q 1341 4750 2034 4750 
Q 2731 4750 3128 4425 
Q 3525 4100 3525 3541 
Q 3525 3141 3298 2862 
Q 3072 2584 2669 2484 
Q 3125 2378 3379 2068 
Q 3634 1759 3634 1313 
Q 3634 634 3220 271 
Q 2806 -91 2034 -91 
Q 1263 -91 848 271 
Q 434 634 434 1313 
Q 434 1759 690 2068 
Q 947 2378 1403 2484 
z
M 1172 3481 
Q 1172 3119 1398 2916 
Q 1625 2713 2034 2713 
Q 2441 2713 2670 2916 
Q 2900 3119 2900 3481 
Q 2900 3844 2670 4047 
Q 2441 4250 2034 4250 
Q 1625 4250 1398 4047 
Q 1172 3844 1172 3481 
z
" transform="scale(0.015625)"/>
       </defs>
       <use xlink:href="#DejaVuSans-2212" transform="translate(0 0.78125)"/>
       <use xlink:href="#DejaVuSans-32" transform="translate(83.789062 0.78125)"/>
       <use xlink:href="#DejaVuSans-32" transform="translate(147.412109 0.78125)"/>
       <use xlink:href="#DejaVuSans-38" transform="translate(211.035156 0.78125)"/>
       <use xlink:href="#DejaVuSans-2e" transform="translate(274.658203 0.78125)"/>
       <use xlink:href="#DejaVuSans-33" transform="translate(306.445312 0.78125)"/>
      </g>
     </g>
    </g>
    <g id="ytick_7">
     <g id="line2d_10">
      <g>
       <use xlink:href="#m053f55c8ad" x="234.036" y="168.48" style="stroke: #000000; stroke-width: 0.8"/>
      </g>
     </g>
     <g id="text_15">
      <!-- $\mathdefault{227.4}$ -->
      <g transform="translate(241.036 172.279219) scale(0.1 -0.1)">
       <use xlink:href="#DejaVuSans-2212" transform="translate(0 0.78125)"/>
       <use xlink:href="#DejaVuSans-32" transform="translate(83.789062 0.78125)"/>
       <use xlink:href="#DejaVuSans-32" transform="translate(147.412109 0.78125)"/>
       <use xlink:href="#DejaVuSans-37" transform="translate(211.035156 0.78125)"/>
       <use xlink:href="#DejaVuSans-2e" transform="translate(274.658203 0.78125)"/>
       <use xlink:href="#DejaVuSans-34" transform="translate(306.445312 0.78125)"/>
      </g>
     </g>
    </g>
    <g id="ytick_8">
     <g id="line2d_11">
      <g>
       <use xlink:href="#m053f55c8ad" x="234.036" y="150.66" style="stroke: #000000; stroke-width: 0.8"/>
      </g>
     </g>
     <g id="text_16">
      <!-- $\mathdefault{226.5}$ -->
      <g transform="translate(241.036 154.459219) scale(0.1 -0.1)">
       <defs>
        <path id="DejaVuSans-36" d="M 2113 2584 
Q 1688 2584 1439 2293 
Q 1191 2003 1191 1497 
Q 1191 994 1439 701 
Q 1688 409 2113 409 
Q 2538 409 2786 701 
Q 3034 994 3034 1497 
Q 3034 2003 2786 2293 
Q 2538 2584 2113 2584 
z
M 3366 4563 
L 3366 3988 
Q 3128 4100 2886 4159 
Q 2644 4219 2406 4219 
Q 1781 4219 1451 3797 
Q 1122 3375 1075 2522 
Q 1259 2794 1537 2939 
Q 1816 3084 2150 3084 
Q 2853 3084 3261 2657 
Q 3669 2231 3669 1497 
Q 3669 778 3244 343 
Q 2819 -91 2113 -91 
Q 1303 -91 875 529 
Q 447 1150 447 2328 
Q 447 3434 972 4092 
Q 1497 4750 2381 4750 
Q 2619 4750 2861 4703 
Q 3103 4656 3366 4563 
z
" transform="scale(0.015625)"/>
       </defs>
       <use xlink:href="#DejaVuSans-2212" transform="translate(0 0.78125)"/>
       <use xlink:href="#DejaVuSans-32" transform="translate(83.789062 0.78125)"/>
       <use xlink:href="#DejaVuSans-32" transform="translate(147.412109 0.78125)"/>
       <use xlink:href="#DejaVuSans-36" transform="translate(211.035156 0.78125)"/>
       <use xlink:href="#DejaVuSans-2e" transform="translate(274.658203 0.78125)"/>
       <use xlink:href="#DejaVuSans-35" transform="translate(306.445312 0.78125)"/>
      </g>
     </g>
    </g>
    <g id="ytick_9">
     <g id="line2d_12">
      <g>
       <use xlink:href="#m053f55c8ad" x="234.036" y="132.84" style="stroke: #000000; stroke-width: 0.8"/>
      </g>
     </g>
     <g id="text_17">
      <!-- $\mathdefault{225.6}$ -->
      <g transform="translate(241.036 136.639219) scale(0.1 -0.1)">
       <use xlink:href="#DejaVuSans-2212" transform="translate(0 0.78125)"/>
       <use xlink:href="#DejaVuSans-32" transform="translate(83.789062 0.78125)"/>
       <use xlink:href="#DejaVuSans-32" transform="translate(147.412109 0.78125)"/>
       <use xlink:href="#DejaVuSans-35" transform="translate(211.035156 0.78125)"/>
       <use xlink:href="#DejaVuSans-2e" transform="translate(274.658203 0.78125)"/>
       <use xlink:href="#DejaVuSans-36" transform="translate(306.445312 0.78125)"/>
      </g>
     </g>
    </g>
    <g id="ytick_10">
     <g id="line2d_13">
      <g>
       <use xlink:href="#m053f55c8ad" x="234.036" y="115.02" style="stroke: #000000; stroke-width: 0.8"/>
      </g>
     </g>
     <g id="text_18">
      <!-- $\mathdefault{224.7}$ -->
      <g transform="translate(241.036 118.819219) scale(0.1 -0.1)">
       <use xlink:href="#DejaVuSans-2212" transform="translate(0 0.78125)"/>
       <use xlink:href="#DejaVuSans-32" transform="translate(83.789062 0.78125)"/>
       <use xlink:href="#DejaVuSans-32" transform="translate(147.412109 0.78125)"/>
       <use xlink:href="#DejaVuSans-34" transform="translate(211.035156 0.78125)"/>
       <use xlink:href="#DejaVuSans-2e" transform="translate(274.658203 0.78125)"/>
       <use xlink:href="#DejaVuSans-37" transform="translate(298.695312 0.78125)"/>
      </g>
     </g>
    </g>
    <g id="ytick_11">
     <g id="line2d_14">
      <g>
       <use xlink:href="#m053f55c8ad" x="234.036" y="97.2" style="stroke: #000000; stroke-width: 0.8"/>
      </g>
     </g>
     <g id="text_19">
      <!-- $\mathdefault{223.8}$ -->
      <g transform="translate(241.036 100.999219) scale(0.1 -0.1)">
       <use xlink:href="#DejaVuSans-2212" transform="translate(0 0.78125)"/>
       <use xlink:href="#DejaVuSans-32" transform="translate(83.789062 0.78125)"/>
       <use xlink:href="#DejaVuSans-32" transform="translate(147.412109 0.78125)"/>
       <use xlink:href="#DejaVuSans-33" transform="translate(211.035156 0.78125)"/>
       <use xlink:href="#DejaVuSans-2e" transform="translate(274.658203 0.78125)"/>
       <use xlink:href="#DejaVuSans-38" transform="translate(303.820312 0.78125)"/>
      </g>
     </g>
    </g>
    <g id="ytick_12">
     <g id="line2d_15">
      <g>
       <use xlink:href="#m053f55c8ad" x="234.036" y="79.38" style="stroke: #000000; stroke-width: 0.8"/>
      </g>
     </g>
     <g id="text_20">
      <!-- $\mathdefault{222.9}$ -->
      <g transform="translate(241.036 83.179219) scale(0.1 -0.1)">
       <use xlink:href="#DejaVuSans-2212" transform="translate(0 0.78125)"/>
       <use xlink:href="#DejaVuSans-32" transform="translate(83.789062 0.78125)"/>
       <use xlink:href="#DejaVuSans-32" transform="translate(147.412109 0.78125)"/>
       <use xlink:href="#DejaVuSans-32" transform="translate(211.035156 0.78125)"/>
       <use xlink:href="#DejaVuSans-2e" transform="translate(274.658203 0.78125)"/>
       <use xlink:href="#DejaVuSans-39" transform="translate(306.445312 0.78125)"/>
      </g>
     </g>
    </g>
    <g id="ytick_13">
     <g id="line2d_16">
      <g>
       <use xlink:href="#m053f55c8ad" x="234.036" y="61.56" style="stroke: #000000; stroke-width: 0.8"/>
      </g>
     </g>
     <g id="text_21">
      <!-- $\mathdefault{222.0}$ -->
      <g transform="translate(241.036 65.359219) scale(0.1 -0.1)">
       <use xlink:href="#DejaVuSans-2212" transform="translate(0 0.78125)"/>
       <use xlink:href="#DejaVuSans-32" transform="translate(83.789062 0.78125)"/>
       <use xlink:href="#DejaVuSans-32" transform="translate(147.412109 0.78125)"/>
       <use xlink:href="#DejaVuSans-32" transform="translate(211.035156 0.78125)"/>
       <use xlink:href="#DejaVuSans-2e" transform="translate(274.658203 0.78125)"/>
       <use xlink:href="#DejaVuSans-30" transform="translate(306.445312 0.78125)"/>
      </g>
     </g>
    </g>
    <g id="ytick_14">
     <g id="line2d_17">
      <g>
       <use xlink:href="#m053f55c8ad" x="234.036" y="43.74" style="stroke: #000000; stroke-width: 0.8"/>
      </g>
     </g>
     <g id="text_22">
      <!-- $\mathdefault{221.1}$ -->
      <g transform="translate(241.036 47.539219) scale(0.1 -0.1)">
       <use xlink:href="#DejaVuSans-2212" transform="translate(0 0.78125)"/>
       <use xlink:href="#DejaVuSans-32" transform="translate(83.789062 0.78125)"/>
       <use xlink:href="#DejaVuSans-32" transform="translate(147.412109 0.78125)"/>
       <use xlink:href="#DejaVuSans-31" transform="translate(211.035156 0.78125)"/>
       <use xlink:href="#DejaVuSans-2e" transform="translate(274.658203 0.78125)"/>
       <use xlink:href="#DejaVuSans-31" transform="translate(306.445312 0.78125)"/>
      </g>
     </g>
    </g>
    <g id="ytick_15">
     <g id="line2d_18">
      <g>
       <use xlink:href="#m053f55c8ad" x="234.036" y="25.92" style="stroke: #000000; stroke-width: 0.8"/>
      </g>
     </g>
     <g id="text_23">
      <!-- $\mathdefault{220.2}$ -->
      <g transform="translate(241.036 29.719219) scale(0.1 -0.1)">
       <use xlink:href="#DejaVuSans-2212" transform="translate(0 0.78125)"/>
       <use xlink:href="#DejaVuSans-32" transform="translate(83.789062 0.78125)"/>
       <use xlink:href="#DejaVuSans-32" transform="translate(147.412109 0.78125)"/>
       <use xlink:href="#DejaVuSans-30" transform="translate(211.035156 0.78125)"/>
       <use xlink:href="#DejaVuSans-2e" transform="translate(274.658203 0.78125)"/>
       <use xlink:href="#DejaVuSans-32" transform="translate(300.945312 0.78125)"/>
      </g>
     </g>
    </g>
    <g id="text_24">
     <!-- log likelihood -->
     <g transform="translate(291.254125 148.704375) rotate(-90) scale(0.12 -0.12)">
      <defs>
       <path id="DejaVuSans-67" d="M 2906 1791 
Q 2906 2416 2648 2759 
Q 2391 3103 1925 3103 
Q 1463 3103 1205 2759 
Q 947 2416 947 1791 
Q 947 1169 1205 825 
Q 1463 481 1925 481 
Q 2391 481 2648 825 
Q 2906 1169 2906 1791 
z
M 3481 434 
Q 3481 -459 3084 -895 
Q 2688 -1331 1869 -1331 
Q 1566 -1331 1297 -1286 
Q 1028 -1241 775 -1147 
L 775 -588 
Q 1028 -725 1275 -790 
Q 1522 -856 1778 -856 
Q 2344 -856 2625 -561 
Q 2906 -266 2906 331 
L 2906 616 
Q 2728 306 2450 153 
Q 2172 0 1784 0 
Q 1141 0 747 490 
Q 353 981 353 1791 
Q 353 2603 747 3093 
Q 1141 3584 1784 3584 
Q 2172 3584 2450 3431 
Q 2728 3278 2906 2969 
L 2906 3500 
L 3481 3500 
L 3481 434 
z
" transform="scale(0.015625)"/>
       <path id="DejaVuSans-6b" d="M 581 4863 
L 1159 4863 
L 1159 1991 
L 2875 3500 
L 3609 3500 
L 1753 1863 
L 3688 0 
L 2938 0 
L 1159 1709 
L 1159 0 
L 581 0 
L 581 4863 
z
" transform="scale(0.015625)"/>
       <path id="DejaVuSans-68" d="M 3513 2113 
L 3513 0 
L 2938 0 
L 2938 2094 
Q 2938 2591 2744 2837 
Q 2550 3084 2163 3084 
Q 1697 3084 1428 2787 
Q 1159 2491 1159 1978 
L 1159 0 
L 581 0 
L 581 4863 
L 1159 4863 
L 1159 2956 
Q 1366 3272 1645 3428 
Q 1925 3584 2291 3584 
Q 2894 3584 3203 3211 
Q 3513 2838 3513 2113 
z
" transform="scale(0.015625)"/>
      </defs>
      <use xlink:href="#DejaVuSans-6c"/>
      <use xlink:href="#DejaVuSans-6f" x="27.783203"/>
      <use xlink:href="#DejaVuSans-67" x="88.964844"/>
      <use xlink:href="#DejaVuSans-20" x="152.441406"/>
      <use xlink:href="#DejaVuSans-6c" x="184.228516"/>
      <use xlink:href="#DejaVuSans-69" x="212.011719"/>
      <use xlink:href="#DejaVuSans-6b" x="239.794922"/>
      <use xlink:href="#DejaVuSans-65" x="294.080078"/>
      <use xlink:href="#DejaVuSans-6c" x="355.603516"/>
      <use xlink:href="#DejaVuSans-69" x="383.386719"/>
      <use xlink:href="#DejaVuSans-68" x="411.169922"/>
      <use xlink:href="#DejaVuSans-6f" x="474.548828"/>
      <use xlink:href="#DejaVuSans-6f" x="535.730469"/>
      <use xlink:href="#DejaVuSans-64" x="596.912109"/>
     </g>
    </g>
    <g id="text_25">
     <!-- $\times\mathdefault{10^{3}}\mathdefault{}$ -->
     <g transform="translate(208.036 22.92) scale(0.1 -0.1)">
      <defs>
       <path id="DejaVuSans-d7" d="M 4488 3438 
L 3059 2003 
L 4488 575 
L 4116 197 
L 2681 1631 
L 1247 197 
L 878 575 
L 2303 2003 
L 878 3438 
L 1247 3816 
L 2681 2381 
L 4116 3816 
L 4488 3438 
z
" transform="scale(0.015625)"/>
      </defs>
      <use xlink:href="#DejaVuSans-d7" transform="translate(0 0.765625)"/>
      <use xlink:href="#DejaVuSans-31" transform="translate(83.789062 0.765625)"/>
      <use xlink:href="#DejaVuSans-30" transform="translate(147.412109 0.765625)"/>
      <use xlink:href="#DejaVuSans-33" transform="translate(211.992188 39.046875) scale(0.7)"/>
     </g>
    </g>
   </g>
   <g id="LineCollection_1"/>
   <g id="patch_8">
    <path d="M 225.72 192.24 
L 229.878 192.24 
L 234.036 192.24 
L 234.036 25.92 
L 229.878 25.92 
L 225.72 25.92 
L 225.72 192.24 
z
" style="fill: none; stroke: #000000; stroke-width: 0.8; stroke-linejoin: miter; stroke-linecap: square"/>
   </g>
  </g>
 </g>
 <defs>
  <clipPath id="pcec44e1eb2">
   <rect x="36" y="25.92" width="178.56" height="166.32"/>
  </clipPath>
  <clipPath id="pfbc177cff0">
   <rect x="225.72" y="25.92" width="8.316" height="166.32"/>
  </clipPath>
 </defs>
</svg>
