<?xml version="1.0" encoding="utf-8" standalone="no"?>
<!DOCTYPE svg PUBLIC "-//W3C//DTD SVG 1.1//EN"
  "http://www.w3.org/Graphics/SVG/1.1/DTD/svg11.dtd">
<svg xmlns:xlink="http://www.w3.org/1999/xlink" width="288pt" height="216pt" viewBox="0 0 288 216" xmlns="http://www.w3.org/2000/svg" version="1.1">
 <metadata>
  <rdf:RDF xmlns:dc="http://purl.org/dc/elements/1.1/" xmlns:cc="http://creativecommons.org/ns#" xmlns:rdf="http://www.w3.org/1999/02/22-rdf-syntax-ns#">
   <cc:Work>
    <dc:type rdf:resource="http://purl.org/dc/dcmitype/StillImage"/>
    <dc:date>2024-12-12T06:19:01.520684</dc:date>
    <dc:format>image/svg+xml</dc:format>
    <dc:creator>
     <cc:Agent>
      <dc:title>Matplotlib v3.8.4, https://matplotlib.org/</dc:title>
     </cc:Agent>
    </dc:creator>
   </cc:Work>
  </rdf:RDF>
 </metadata>
 <defs>
  <style type="text/css">*{stroke-linejoin: round; stroke-linecap: butt}</style>
 </defs>
 <g id="figure_1">
  <g id="patch_1">
   <path d="M 0 216 
L 288 216 
L 288 0 
L 0 0 
z
" style="fill: #ffffff"/>
  </g>
  <g id="axes_1">
   <g id="patch_2">
    <path d="M 36 192.24 
L 214.56 192.24 
L 214.56 25.92 
L 36 25.92 
z
" style="fill: #ffffff"/>
   </g>
   <g id="QuadContourSet_1">
    <path d="M 36 103.536 
L 36 97.992 
L 36 95.202382 
L 41.952 95.682335 
L 47.904 96.574963 
L 53.856 97.828759 
L 54.384978 97.992 
L 59.808 100.1494 
L 65.76 102.323164 
L 69.054177 103.536 
L 71.712 104.841688 
L 77.664 107.500163 
L 81.750731 109.08 
L 83.616 110.122619 
L 89.568 112.976291 
L 93.861001 114.624 
L 95.52 115.699729 
L 101.472 118.735513 
L 105.183185 120.168 
L 107.424 122.318811 
L 113.376 125.673922 
L 113.462586 125.712 
L 113.376 125.799986 
L 107.424 128.408537 
L 101.472 128.761339 
L 95.52 128.377498 
L 89.568 127.617009 
L 83.616 126.606009 
L 79.417366 125.712 
L 77.664 125.113952 
L 71.712 122.871028 
L 65.76 120.776886 
L 64.200818 120.168 
L 59.808 117.710166 
L 53.856 114.886272 
L 53.290187 114.624 
L 47.904 111.006439 
L 43.808541 109.08 
L 41.952 107.531371 
L 36 104.564648 
z
" clip-path="url(#p75ac0b5cd6)" style="fill: #eae51a"/>
    <path d="M 36 109.08 
L 36 104.564648 
L 41.952 107.531371 
L 43.808541 109.08 
L 47.904 111.006439 
L 53.290187 114.624 
L 53.856 114.886272 
L 59.808 117.710166 
L 64.200818 120.168 
L 65.76 120.776886 
L 71.712 122.871028 
L 77.664 125.113952 
L 79.417366 125.712 
L 83.616 126.606009 
L 89.568 127.617009 
L 95.52 128.377498 
L 101.472 128.761339 
L 107.424 128.408537 
L 113.376 125.799986 
L 113.462586 125.712 
L 113.376 125.673922 
L 107.424 122.318811 
L 105.183185 120.168 
L 101.472 118.735513 
L 95.52 115.699729 
L 93.861001 114.624 
L 89.568 112.976291 
L 83.616 110.122619 
L 81.750731 109.08 
L 77.664 107.500163 
L 71.712 104.841688 
L 69.054177 103.536 
L 65.76 102.323164 
L 59.808 100.1494 
L 54.384978 97.992 
L 53.856 97.828759 
L 47.904 96.574963 
L 41.952 95.682335 
L 36 95.202382 
L 36 92.448 
L 36 88.290581 
L 41.952 89.689981 
L 47.904 91.290825 
L 51.630945 92.448 
L 53.856 93.283244 
L 59.808 95.695616 
L 65.76 97.932043 
L 65.907776 97.992 
L 71.712 100.764798 
L 77.664 103.180383 
L 78.557373 103.536 
L 83.616 106.000276 
L 89.568 108.408706 
L 91.371201 109.08 
L 95.52 111.087372 
L 101.472 113.462839 
L 104.842648 114.624 
L 107.424 115.898889 
L 113.376 118.34381 
L 118.975494 120.168 
L 119.328 120.36734 
L 125.28 123.204794 
L 131.232 125.261925 
L 132.738747 125.712 
L 137.184 128.887655 
L 142.567994 131.256 
L 137.184 133.961396 
L 131.232 135.095377 
L 125.28 135.430779 
L 119.328 135.346999 
L 113.376 134.996772 
L 107.424 134.450781 
L 101.472 133.743911 
L 95.52 132.893388 
L 89.568 131.907186 
L 86.280831 131.256 
L 83.616 130.500678 
L 77.664 128.65628 
L 71.712 126.809372 
L 68.428441 125.712 
L 65.76 124.513132 
L 59.808 121.840935 
L 55.876303 120.168 
L 53.856 119.019338 
L 47.904 115.969705 
L 44.644184 114.624 
L 41.952 113.089229 
L 36 110.733475 
z
" clip-path="url(#p75ac0b5cd6)" style="fill: #bddf26"/>
    <path d="M 36 114.624 
L 36 110.733475 
L 41.952 113.089229 
L 44.644184 114.624 
L 47.904 115.969705 
L 53.856 119.019338 
L 55.876303 120.168 
L 59.808 121.840935 
L 65.76 124.513132 
L 68.428441 125.712 
L 71.712 126.809372 
L 77.664 128.65628 
L 83.616 130.500678 
L 86.280831 131.256 
L 89.568 131.907186 
L 95.52 132.893388 
L 101.472 133.743911 
L 107.424 134.450781 
L 113.376 134.996772 
L 119.328 135.346999 
L 125.28 135.430779 
L 131.232 135.095377 
L 137.184 133.961396 
L 142.567994 131.256 
L 137.184 128.887655 
L 132.738747 125.712 
L 131.232 125.261925 
L 125.28 123.204794 
L 119.328 120.36734 
L 118.975494 120.168 
L 113.376 118.34381 
L 107.424 115.898889 
L 104.842648 114.624 
L 101.472 113.462839 
L 95.52 111.087372 
L 91.371201 109.08 
L 89.568 108.408706 
L 83.616 106.000276 
L 78.557373 103.536 
L 77.664 103.180383 
L 71.712 100.764798 
L 65.907776 97.992 
L 65.76 97.932043 
L 59.808 95.695616 
L 53.856 93.283244 
L 51.630945 92.448 
L 47.904 91.290825 
L 41.952 89.689981 
L 36 88.290581 
L 36 86.904 
L 36 84.208074 
L 41.952 85.664329 
L 46.112467 86.904 
L 47.904 87.531098 
L 53.856 89.883142 
L 59.808 92.162909 
L 60.49629 92.448 
L 65.76 94.908986 
L 71.712 97.418608 
L 73.093449 97.992 
L 77.664 100.183376 
L 83.616 102.681508 
L 85.812568 103.536 
L 89.568 105.287123 
L 95.52 107.69726 
L 99.418695 109.08 
L 101.472 110.001098 
L 107.424 112.363406 
L 113.376 114.320431 
L 114.380799 114.624 
L 119.328 116.620418 
L 125.28 118.600952 
L 130.900376 120.168 
L 131.232 120.308712 
L 137.184 122.546382 
L 143.136 124.330211 
L 148.673713 125.712 
L 149.088 125.905711 
L 155.04 128.275555 
L 160.992 130.068404 
L 165.841015 131.256 
L 166.944 132.264844 
L 172.896 135.865348 
L 175.234973 136.8 
L 172.896 137.457856 
L 166.944 138.66108 
L 160.992 139.412905 
L 155.04 139.857113 
L 149.088 140.076576 
L 143.136 140.121582 
L 137.184 140.023584 
L 131.232 139.802404 
L 125.28 139.470261 
L 119.328 139.034127 
L 113.376 138.497182 
L 107.424 137.859761 
L 101.472 137.120045 
L 99.342986 136.8 
L 95.52 135.995586 
L 89.568 134.629204 
L 83.616 133.197969 
L 77.664 131.689326 
L 76.166574 131.256 
L 71.712 129.58864 
L 65.76 127.35064 
L 61.416568 125.712 
L 59.808 124.934049 
L 53.856 122.076032 
L 49.366439 120.168 
L 47.904 119.368551 
L 41.952 116.60178 
L 36 114.705734 
z
" clip-path="url(#p75ac0b5cd6)" style="fill: #90d743"/>
    <path d="M 41.952 116.60178 
L 47.904 119.368551 
L 49.366439 120.168 
L 53.856 122.076032 
L 59.808 124.934049 
L 61.416568 125.712 
L 65.76 127.35064 
L 71.712 129.58864 
L 76.166574 131.256 
L 77.664 131.689326 
L 83.616 133.197969 
L 89.568 134.629204 
L 95.52 135.995586 
L 99.342986 136.8 
L 101.472 137.120045 
L 107.424 137.859761 
L 113.376 138.497182 
L 119.328 139.034127 
L 125.28 139.470261 
L 131.232 139.802404 
L 137.184 140.023584 
L 143.136 140.121582 
L 149.088 140.076576 
L 155.04 139.857113 
L 160.992 139.412905 
L 166.944 138.66108 
L 172.896 137.457856 
L 175.234973 136.8 
L 172.896 135.865348 
L 166.944 132.264844 
L 165.841015 131.256 
L 160.992 130.068404 
L 155.04 128.275555 
L 149.088 125.905711 
L 148.673713 125.712 
L 143.136 124.330211 
L 137.184 122.546382 
L 131.232 120.308712 
L 130.900376 120.168 
L 125.28 118.600952 
L 119.328 116.620418 
L 114.380799 114.624 
L 113.376 114.320431 
L 107.424 112.363406 
L 101.472 110.001098 
L 99.418695 109.08 
L 95.52 107.69726 
L 89.568 105.287123 
L 85.812568 103.536 
L 83.616 102.681508 
L 77.664 100.183376 
L 73.093449 97.992 
L 71.712 97.418608 
L 65.76 94.908986 
L 60.49629 92.448 
L 59.808 92.162909 
L 53.856 89.883142 
L 47.904 87.531098 
L 46.112467 86.904 
L 41.952 85.664329 
L 36 84.208074 
L 36 81.36 
L 36 80.7748 
L 38.271332 81.36 
L 41.952 82.463882 
L 47.904 84.580023 
L 53.856 86.777638 
L 54.16024 86.904 
L 59.808 89.48472 
L 65.76 92.014639 
L 66.764448 92.448 
L 71.712 94.824092 
L 77.664 97.378487 
L 79.159955 97.992 
L 83.616 100.077264 
L 89.568 102.519001 
L 92.291562 103.536 
L 95.52 104.960329 
L 101.472 107.280121 
L 106.8433 109.08 
L 107.424 109.321371 
L 113.376 111.589548 
L 119.328 113.496177 
L 123.322208 114.624 
L 125.28 115.346193 
L 131.232 117.296699 
L 137.184 118.943935 
L 142.262737 120.168 
L 143.136 120.466979 
L 149.088 122.296302 
L 155.04 123.829653 
L 160.992 125.143082 
L 163.855992 125.712 
L 166.944 126.693025 
L 172.896 128.313718 
L 178.848 129.666358 
L 184.8 130.82063 
L 187.290848 131.256 
L 190.752 132.527723 
L 196.704 134.294689 
L 202.656 135.694822 
L 208.362793 136.8 
L 208.608 138.328185 
L 209.763961 142.344 
L 208.608 142.454907 
L 202.656 142.951358 
L 196.704 143.347258 
L 190.752 143.654262 
L 184.8 143.881342 
L 178.848 144.035352 
L 172.896 144.121442 
L 166.944 144.143351 
L 160.992 144.10362 
L 155.04 144.003745 
L 149.088 143.844281 
L 143.136 143.624909 
L 137.184 143.344483 
L 131.232 143.001041 
L 125.28 142.591817 
L 122.294899 142.344 
L 119.328 141.986628 
L 113.376 141.171723 
L 107.424 140.290777 
L 101.472 139.336327 
L 95.52 138.300616 
L 89.568 137.175972 
L 87.84025 136.8 
L 83.616 135.607172 
L 77.664 133.838027 
L 71.712 132.028161 
L 69.374312 131.256 
L 65.76 129.763509 
L 59.808 127.30421 
L 55.846208 125.712 
L 53.856 124.718443 
L 47.904 121.943651 
L 43.251141 120.168 
L 41.952 119.540474 
L 36 117.362746 
L 36 114.705734 
z
" clip-path="url(#p75ac0b5cd6)" style="fill: #67cc5c"/>
    <path d="M 36.394275 120.168 
L 36 120.019758 
L 36 117.362746 
L 41.952 119.540474 
L 43.251141 120.168 
L 47.904 121.943651 
L 53.856 124.718443 
L 55.846208 125.712 
L 59.808 127.30421 
L 65.76 129.763509 
L 69.374312 131.256 
L 71.712 132.028161 
L 77.664 133.838027 
L 83.616 135.607172 
L 87.84025 136.8 
L 89.568 137.175972 
L 95.52 138.300616 
L 101.472 139.336327 
L 107.424 140.290777 
L 113.376 141.171723 
L 119.328 141.986628 
L 122.294899 142.344 
L 125.28 142.591817 
L 131.232 143.001041 
L 137.184 143.344483 
L 143.136 143.624909 
L 149.088 143.844281 
L 155.04 144.003745 
L 160.992 144.10362 
L 166.944 144.143351 
L 172.896 144.121442 
L 178.848 144.035352 
L 184.8 143.881342 
L 190.752 143.654262 
L 196.704 143.347258 
L 202.656 142.951358 
L 208.608 142.454907 
L 209.763961 142.344 
L 208.608 138.328185 
L 208.362793 136.8 
L 202.656 135.694822 
L 196.704 134.294689 
L 190.752 132.527723 
L 187.290848 131.256 
L 184.8 130.82063 
L 178.848 129.666358 
L 172.896 128.313718 
L 166.944 126.693025 
L 163.855992 125.712 
L 160.992 125.143082 
L 155.04 123.829653 
L 149.088 122.296302 
L 143.136 120.466979 
L 142.262737 120.168 
L 137.184 118.943935 
L 131.232 117.296699 
L 125.28 115.346193 
L 123.322208 114.624 
L 119.328 113.496177 
L 113.376 111.589548 
L 107.424 109.321371 
L 106.8433 109.08 
L 101.472 107.280121 
L 95.52 104.960329 
L 92.291562 103.536 
L 89.568 102.519001 
L 83.616 100.077264 
L 79.159955 97.992 
L 77.664 97.378487 
L 71.712 94.824092 
L 66.764448 92.448 
L 65.76 92.014639 
L 59.808 89.48472 
L 54.16024 86.904 
L 53.856 86.777638 
L 47.904 84.580023 
L 41.952 82.463882 
L 38.271332 81.36 
L 36 80.7748 
L 36 78.025396 
L 41.952 79.721431 
L 46.768352 81.36 
L 47.904 81.790826 
L 53.856 84.343319 
L 59.808 86.825892 
L 59.984246 86.904 
L 65.76 89.683839 
L 71.712 92.273944 
L 72.114638 92.448 
L 77.664 95.096172 
L 83.616 97.584031 
L 84.644252 97.992 
L 89.568 100.202519 
L 95.52 102.529964 
L 98.356653 103.536 
L 101.472 104.827705 
L 107.424 107.023207 
L 113.376 108.912914 
L 113.941122 109.08 
L 119.328 111.004785 
L 125.28 112.833085 
L 131.232 114.418657 
L 132.063909 114.624 
L 137.184 116.224345 
L 143.136 117.8343 
L 149.088 119.234072 
L 153.532132 120.168 
L 155.04 120.599369 
L 160.992 122.138926 
L 166.944 123.469871 
L 172.896 124.636916 
L 178.848 125.672166 
L 179.092555 125.712 
L 184.8 127.085863 
L 190.752 128.322651 
L 196.704 129.402781 
L 202.656 130.357601 
L 208.608 131.210227 
L 208.948598 131.256 
L 214.56 132.576492 
L 214.56 136.8 
L 214.56 142.344 
L 214.56 147.866607 
L 213.55792 147.888 
L 208.608 147.933781 
L 202.656 147.964977 
L 196.704 147.971251 
L 190.752 147.951751 
L 184.8 147.905455 
L 183.445105 147.888 
L 178.848 147.787993 
L 172.896 147.613969 
L 166.944 147.398142 
L 160.992 147.140343 
L 155.04 146.839787 
L 149.088 146.495095 
L 143.136 146.104306 
L 137.184 145.664866 
L 131.232 145.173607 
L 125.28 144.626723 
L 119.328 144.019745 
L 113.376 143.347523 
L 107.424 142.604236 
L 105.619121 142.344 
L 101.472 141.55261 
L 95.52 140.326571 
L 89.568 139.032579 
L 83.616 137.661116 
L 80.214197 136.8 
L 77.664 135.986729 
L 71.712 133.958214 
L 65.76 131.921981 
L 63.927821 131.256 
L 59.808 129.431441 
L 53.856 126.900025 
L 50.877768 125.712 
L 47.904 124.265405 
L 41.952 121.817531 
z
" clip-path="url(#p75ac0b5cd6)" style="fill: #44bf70"/>
    <path d="M 36 120.168 
L 36 120.019758 
L 36.394275 120.168 
L 41.952 121.817531 
L 47.904 124.265405 
L 50.877768 125.712 
L 53.856 126.900025 
L 59.808 129.431441 
L 63.927821 131.256 
L 65.76 131.921981 
L 71.712 133.958214 
L 77.664 135.986729 
L 80.214197 136.8 
L 83.616 137.661116 
L 89.568 139.032579 
L 95.52 140.326571 
L 101.472 141.55261 
L 105.619121 142.344 
L 107.424 142.604236 
L 113.376 143.347523 
L 119.328 144.019745 
L 125.28 144.626723 
L 131.232 145.173607 
L 137.184 145.664866 
L 143.136 146.104306 
L 149.088 146.495095 
L 155.04 146.839787 
L 160.992 147.140343 
L 166.944 147.398142 
L 172.896 147.613969 
L 178.848 147.787993 
L 183.445105 147.888 
L 184.8 147.905455 
L 190.752 147.951751 
L 196.704 147.971251 
L 202.656 147.964977 
L 208.608 147.933781 
L 213.55792 147.888 
L 214.56 147.866607 
L 214.56 147.888 
L 214.56 150.593132 
L 208.608 150.543545 
L 202.656 150.473142 
L 196.704 150.381075 
L 190.752 150.26635 
L 184.8 150.127815 
L 178.848 149.96414 
L 172.896 149.773794 
L 166.944 149.555028 
L 160.992 149.30584 
L 155.04 149.023946 
L 149.088 148.706745 
L 143.136 148.351277 
L 137.184 147.954178 
L 136.327671 147.888 
L 131.232 147.346172 
L 125.28 146.661629 
L 119.328 145.926256 
L 113.376 145.134136 
L 107.424 144.278792 
L 101.472 143.353248 
L 95.52 142.350194 
L 95.488204 142.344 
L 89.568 140.889186 
L 83.616 139.366677 
L 77.664 137.776229 
L 74.282315 136.8 
L 71.712 135.888267 
L 65.76 133.667919 
L 59.808 131.48242 
L 59.215866 131.256 
L 53.856 128.803923 
L 47.904 126.364703 
L 46.085509 125.712 
L 41.952 123.914942 
L 36 122.009084 
z
M 36 75.816 
L 36 75.375881 
L 37.542731 75.816 
L 41.952 77.220122 
L 47.904 79.463582 
L 52.602733 81.36 
L 53.856 81.909001 
L 59.808 84.679674 
L 64.82702 86.904 
L 65.76 87.353038 
L 71.712 90.206438 
L 76.897329 92.448 
L 77.664 92.813858 
L 83.616 95.536839 
L 89.568 97.906686 
L 89.79319 97.992 
L 95.52 100.432259 
L 101.472 102.624243 
L 104.195817 103.536 
L 107.424 104.789153 
L 113.376 106.851361 
L 119.328 108.64287 
L 120.905565 109.08 
L 125.28 110.531469 
L 131.232 112.27096 
L 137.184 113.792482 
L 140.782481 114.624 
L 143.136 115.304844 
L 149.088 116.86116 
L 155.04 118.22553 
L 160.992 119.435234 
L 164.960131 120.168 
L 166.944 120.652454 
L 172.896 121.976272 
L 178.848 123.14497 
L 184.8 124.187113 
L 190.752 125.124293 
L 194.823278 125.712 
L 196.704 126.099817 
L 202.656 127.223086 
L 208.608 128.221138 
L 214.56 129.115844 
L 214.56 131.256 
L 214.56 132.576492 
L 208.948598 131.256 
L 208.608 131.210227 
L 202.656 130.357601 
L 196.704 129.402781 
L 190.752 128.322651 
L 184.8 127.085863 
L 179.092555 125.712 
L 178.848 125.672166 
L 172.896 124.636916 
L 166.944 123.469871 
L 160.992 122.138926 
L 155.04 120.599369 
L 153.532132 120.168 
L 149.088 119.234072 
L 143.136 117.8343 
L 137.184 116.224345 
L 132.063909 114.624 
L 131.232 114.418657 
L 125.28 112.833085 
L 119.328 111.004785 
L 113.941122 109.08 
L 113.376 108.912914 
L 107.424 107.023207 
L 101.472 104.827705 
L 98.356653 103.536 
L 95.52 102.529964 
L 89.568 100.202519 
L 84.644252 97.992 
L 83.616 97.584031 
L 77.664 95.096172 
L 72.114638 92.448 
L 71.712 92.273944 
L 65.76 89.683839 
L 59.984246 86.904 
L 59.808 86.825892 
L 53.856 84.343319 
L 47.904 81.790826 
L 46.768352 81.36 
L 41.952 79.721431 
L 36 78.025396 
z
" clip-path="url(#p75ac0b5cd6)" style="fill: #2ab07f"/>
    <path d="M 41.134222 125.712 
L 36 123.958957 
L 36 122.009084 
L 41.952 123.914942 
L 46.085509 125.712 
L 47.904 126.364703 
L 53.856 128.803923 
L 59.215866 131.256 
L 59.808 131.48242 
L 65.76 133.667919 
L 71.712 135.888267 
L 74.282315 136.8 
L 77.664 137.776229 
L 83.616 139.366677 
L 89.568 140.889186 
L 95.488204 142.344 
L 95.52 142.350194 
L 101.472 143.353248 
L 107.424 144.278792 
L 113.376 145.134136 
L 119.328 145.926256 
L 125.28 146.661629 
L 131.232 147.346172 
L 136.327671 147.888 
L 137.184 147.954178 
L 143.136 148.351277 
L 149.088 148.706745 
L 155.04 149.023946 
L 160.992 149.30584 
L 166.944 149.555028 
L 172.896 149.773794 
L 178.848 149.96414 
L 184.8 150.127815 
L 190.752 150.26635 
L 196.704 150.381075 
L 202.656 150.473142 
L 208.608 150.543545 
L 214.56 150.593132 
L 214.56 153.307905 
L 208.608 153.15331 
L 202.656 152.981307 
L 196.704 152.790899 
L 190.752 152.58095 
L 184.8 152.350175 
L 178.848 152.097123 
L 172.896 151.82015 
L 166.944 151.517401 
L 160.992 151.186776 
L 155.04 150.825903 
L 149.088 150.432101 
L 143.136 150.002336 
L 137.184 149.53318 
L 131.232 149.02076 
L 125.28 148.460714 
L 119.732491 147.888 
L 119.328 147.832766 
L 113.376 146.920748 
L 107.424 145.953348 
L 101.472 144.923037 
L 95.52 143.822045 
L 89.568 142.642731 
L 88.229126 142.344 
L 83.616 141.072238 
L 77.664 139.346976 
L 71.712 137.565362 
L 69.335714 136.8 
L 65.76 135.413857 
L 59.808 133.073742 
L 55.054236 131.256 
L 53.856 130.707821 
L 47.904 128.096291 
L 41.952 125.941646 
z
M 37.542731 75.816 
L 36 75.375881 
L 36 73.135051 
L 41.952 74.906587 
L 44.403567 75.816 
L 47.904 77.220728 
L 53.856 79.805226 
L 57.344924 81.36 
L 59.808 82.533457 
L 65.76 85.356134 
L 69.181009 86.904 
L 71.712 88.138932 
L 77.664 90.882559 
L 81.370212 92.448 
L 83.616 93.489647 
L 89.568 96.041621 
L 94.716092 97.992 
L 95.52 98.334555 
L 101.472 100.697832 
L 107.424 102.750484 
L 109.919414 103.536 
L 113.376 104.789808 
L 119.328 106.720796 
L 125.28 108.412504 
L 127.850944 109.08 
L 131.232 110.123264 
L 137.184 111.772023 
L 143.136 113.22548 
L 149.088 114.519729 
L 149.601036 114.624 
L 155.04 115.983687 
L 160.992 117.304688 
L 166.944 118.483006 
L 172.896 119.542706 
L 176.722331 120.168 
L 178.848 120.617774 
L 184.8 121.774861 
L 190.752 122.812059 
L 196.704 123.748755 
L 202.656 124.600164 
L 208.608 125.378419 
L 211.340335 125.712 
L 214.56 126.253561 
L 214.56 129.115844 
L 208.608 128.221138 
L 202.656 127.223086 
L 196.704 126.099817 
L 194.823278 125.712 
L 190.752 125.124293 
L 184.8 124.187113 
L 178.848 123.14497 
L 172.896 121.976272 
L 166.944 120.652454 
L 164.960131 120.168 
L 160.992 119.435234 
L 155.04 118.22553 
L 149.088 116.86116 
L 143.136 115.304844 
L 140.782481 114.624 
L 137.184 113.792482 
L 131.232 112.27096 
L 125.28 110.531469 
L 120.905565 109.08 
L 119.328 108.64287 
L 113.376 106.851361 
L 107.424 104.789153 
L 104.195817 103.536 
L 101.472 102.624243 
L 95.52 100.432259 
L 89.79319 97.992 
L 89.568 97.906686 
L 83.616 95.536839 
L 77.664 92.813858 
L 76.897329 92.448 
L 71.712 90.206438 
L 65.76 87.353038 
L 64.82702 86.904 
L 59.808 84.679674 
L 53.856 81.909001 
L 52.602733 81.36 
L 47.904 79.463582 
L 41.952 77.220122 
z
" clip-path="url(#p75ac0b5cd6)" style="fill: #1fa188"/>
    <path d="M 36 125.712 
L 36 123.958957 
L 41.134222 125.712 
L 41.952 125.941646 
L 47.904 128.096291 
L 53.856 130.707821 
L 55.054236 131.256 
L 59.808 133.073742 
L 65.76 135.413857 
L 69.335714 136.8 
L 71.712 137.565362 
L 77.664 139.346976 
L 83.616 141.072238 
L 88.229126 142.344 
L 89.568 142.642731 
L 95.52 143.822045 
L 101.472 144.923037 
L 107.424 145.953348 
L 113.376 146.920748 
L 119.328 147.832766 
L 119.732491 147.888 
L 125.28 148.460714 
L 131.232 149.02076 
L 137.184 149.53318 
L 143.136 150.002336 
L 149.088 150.432101 
L 155.04 150.825903 
L 160.992 151.186776 
L 166.944 151.517401 
L 172.896 151.82015 
L 178.848 152.097123 
L 184.8 152.350175 
L 190.752 152.58095 
L 196.704 152.790899 
L 202.656 152.981307 
L 208.608 153.15331 
L 214.56 153.307905 
L 214.56 153.432 
L 214.56 155.050713 
L 208.608 154.909955 
L 202.656 154.75534 
L 196.704 154.585761 
L 190.752 154.399991 
L 184.8 154.196668 
L 178.848 153.974275 
L 172.896 153.73112 
L 166.944 153.465314 
L 166.279384 153.432 
L 160.992 153.067712 
L 155.04 152.627861 
L 149.088 152.157458 
L 143.136 151.653396 
L 137.184 151.112183 
L 131.232 150.529891 
L 125.28 149.902112 
L 119.328 149.223911 
L 113.376 148.4898 
L 108.929824 147.888 
L 107.424 147.627905 
L 101.472 146.492825 
L 95.52 145.293895 
L 89.568 144.023109 
L 83.616 142.673402 
L 82.313611 142.344 
L 77.664 140.917723 
L 71.712 139.015977 
L 65.76 137.076984 
L 64.967486 136.8 
L 59.808 134.665064 
L 53.856 132.297728 
L 51.098184 131.256 
L 47.904 129.827879 
L 41.952 127.545304 
L 36 125.865029 
z
M 41.952 72.833355 
L 47.904 75.108806 
L 49.538436 75.816 
L 53.856 77.797706 
L 59.808 80.540791 
L 61.562523 81.36 
L 65.76 83.438906 
L 71.712 86.205148 
L 73.271646 86.904 
L 77.664 89.018271 
L 83.616 91.610834 
L 85.677733 92.448 
L 89.568 94.176556 
L 95.52 96.552384 
L 99.531964 97.992 
L 101.472 98.77142 
L 107.424 100.961433 
L 113.376 102.879046 
L 115.599626 103.536 
L 119.328 104.798721 
L 125.28 106.605383 
L 131.232 108.200211 
L 134.847257 109.08 
L 137.184 109.751565 
L 143.136 111.311885 
L 149.088 112.6971 
L 155.04 113.937626 
L 158.633743 114.624 
L 160.992 115.174142 
L 166.944 116.448113 
L 172.896 117.590877 
L 178.848 118.62338 
L 184.8 119.562101 
L 188.962744 120.168 
L 190.752 120.499825 
L 196.704 121.52433 
L 202.656 122.453433 
L 208.608 123.300911 
L 214.56 124.077887 
L 214.56 125.712 
L 214.56 126.253561 
L 211.340335 125.712 
L 208.608 125.378419 
L 202.656 124.600164 
L 196.704 123.748755 
L 190.752 122.812059 
L 184.8 121.774861 
L 178.848 120.617774 
L 176.722331 120.168 
L 172.896 119.542706 
L 166.944 118.483006 
L 160.992 117.304688 
L 155.04 115.983687 
L 149.601036 114.624 
L 149.088 114.519729 
L 143.136 113.22548 
L 137.184 111.772023 
L 131.232 110.123264 
L 127.850944 109.08 
L 125.28 108.412504 
L 119.328 106.720796 
L 113.376 104.789808 
L 109.919414 103.536 
L 107.424 102.750484 
L 101.472 100.697832 
L 95.52 98.334555 
L 94.716092 97.992 
L 89.568 96.041621 
L 83.616 93.489647 
L 81.370212 92.448 
L 77.664 90.882559 
L 71.712 88.138932 
L 69.181009 86.904 
L 65.76 85.356134 
L 59.808 82.533457 
L 57.344924 81.36 
L 53.856 79.805226 
L 47.904 77.220728 
L 44.403567 75.816 
L 41.952 74.906587 
L 36 73.135051 
L 36 70.894221 
z
" clip-path="url(#p75ac0b5cd6)" style="fill: #21908d"/>
    <path d="M 41.952 127.545304 
L 47.904 129.827879 
L 51.098184 131.256 
L 53.856 132.297728 
L 59.808 134.665064 
L 64.967486 136.8 
L 65.76 137.076984 
L 71.712 139.015977 
L 77.664 140.917723 
L 82.313611 142.344 
L 83.616 142.673402 
L 89.568 144.023109 
L 95.52 145.293895 
L 101.472 146.492825 
L 107.424 147.627905 
L 108.929824 147.888 
L 113.376 148.4898 
L 119.328 149.223911 
L 125.28 149.902112 
L 131.232 150.529891 
L 137.184 151.112183 
L 143.136 151.653396 
L 149.088 152.157458 
L 155.04 152.627861 
L 160.992 153.067712 
L 166.279384 153.432 
L 166.944 153.465314 
L 172.896 153.73112 
L 178.848 153.974275 
L 184.8 154.196668 
L 190.752 154.399991 
L 196.704 154.585761 
L 202.656 154.75534 
L 208.608 154.909955 
L 214.56 155.050713 
L 214.56 156.746963 
L 208.608 156.564606 
L 202.656 156.368559 
L 196.704 156.15772 
L 190.752 155.930867 
L 184.8 155.686642 
L 178.848 155.423534 
L 172.896 155.13986 
L 166.944 154.833737 
L 160.992 154.503059 
L 155.04 154.145462 
L 149.088 153.758295 
L 144.494176 153.432 
L 143.136 153.304455 
L 137.184 152.691185 
L 131.232 152.039021 
L 125.28 151.343509 
L 119.328 150.59968 
L 113.376 149.802021 
L 107.424 148.94448 
L 101.472 148.02052 
L 100.714241 147.888 
L 95.52 146.765745 
L 89.568 145.403487 
L 83.616 143.968504 
L 77.664 142.45583 
L 77.269076 142.344 
L 71.712 140.466592 
L 65.76 138.421069 
L 61.121749 136.8 
L 59.808 136.256386 
L 53.856 133.760675 
L 47.904 131.494175 
L 47.203527 131.256 
L 41.952 129.148962 
L 36 127.380984 
L 36 125.865029 
z
M 36 70.272 
L 36 68.894588 
L 40.488865 70.272 
L 41.952 70.760122 
L 47.904 73.21633 
L 53.856 75.793855 
L 53.903044 75.816 
L 59.808 78.733356 
L 65.433557 81.36 
L 65.76 81.521679 
L 71.712 84.469712 
L 77.144666 86.904 
L 77.664 87.153983 
L 83.616 89.906443 
L 89.568 92.332631 
L 89.866661 92.448 
L 95.52 94.831797 
L 101.472 97.037194 
L 104.295364 97.992 
L 107.424 99.172381 
L 113.376 101.202347 
L 119.328 102.992876 
L 121.288363 103.536 
L 125.28 104.798262 
L 131.232 106.48936 
L 137.184 107.992367 
L 141.948874 109.08 
L 143.136 109.39829 
L 149.088 110.87447 
L 155.04 112.193327 
L 160.992 113.380645 
L 166.944 114.45657 
L 167.932602 114.624 
L 172.896 115.639048 
L 178.848 116.74434 
L 184.8 117.747356 
L 190.752 118.662672 
L 196.704 119.502086 
L 201.810556 120.168 
L 202.656 120.306702 
L 208.608 121.223404 
L 214.56 122.062438 
L 214.56 124.077887 
L 208.608 123.300911 
L 202.656 122.453433 
L 196.704 121.52433 
L 190.752 120.499825 
L 188.962744 120.168 
L 184.8 119.562101 
L 178.848 118.62338 
L 172.896 117.590877 
L 166.944 116.448113 
L 160.992 115.174142 
L 158.633743 114.624 
L 155.04 113.937626 
L 149.088 112.6971 
L 143.136 111.311885 
L 137.184 109.751565 
L 134.847257 109.08 
L 131.232 108.200211 
L 125.28 106.605383 
L 119.328 104.798721 
L 115.599626 103.536 
L 113.376 102.879046 
L 107.424 100.961433 
L 101.472 98.77142 
L 99.531964 97.992 
L 95.52 96.552384 
L 89.568 94.176556 
L 85.677733 92.448 
L 83.616 91.610834 
L 77.664 89.018271 
L 73.271646 86.904 
L 71.712 86.205148 
L 65.76 83.438906 
L 61.562523 81.36 
L 59.808 80.540791 
L 53.856 77.797706 
L 49.538436 75.816 
L 47.904 75.108806 
L 41.952 72.833355 
L 36 70.894221 
z
" clip-path="url(#p75ac0b5cd6)" style="fill: #27808e"/>
    <path d="M 41.952 129.148962 
L 47.203527 131.256 
L 47.904 131.494175 
L 53.856 133.760675 
L 59.808 136.256386 
L 61.121749 136.8 
L 65.76 138.421069 
L 71.712 140.466592 
L 77.269076 142.344 
L 77.664 142.45583 
L 83.616 143.968504 
L 89.568 145.403487 
L 95.52 146.765745 
L 100.714241 147.888 
L 101.472 148.02052 
L 107.424 148.94448 
L 113.376 149.802021 
L 119.328 150.59968 
L 125.28 151.343509 
L 131.232 152.039021 
L 137.184 152.691185 
L 143.136 153.304455 
L 144.494176 153.432 
L 149.088 153.758295 
L 155.04 154.145462 
L 160.992 154.503059 
L 166.944 154.833737 
L 172.896 155.13986 
L 178.848 155.423534 
L 184.8 155.686642 
L 190.752 155.930867 
L 196.704 156.15772 
L 202.656 156.368559 
L 208.608 156.564606 
L 214.56 156.746963 
L 214.56 158.443214 
L 208.608 158.219257 
L 202.656 157.981778 
L 196.704 157.729679 
L 190.752 157.461742 
L 184.8 157.176615 
L 178.848 156.872794 
L 172.896 156.5486 
L 166.944 156.20216 
L 160.992 155.831378 
L 155.04 155.433902 
L 149.088 155.007091 
L 143.136 154.547979 
L 137.184 154.054681 
L 131.232 153.531874 
L 130.360918 153.432 
L 125.28 152.784907 
L 119.328 151.975448 
L 113.376 151.114243 
L 107.424 150.195229 
L 101.472 149.21188 
L 95.52 148.185053 
L 94.157242 147.888 
L 89.568 146.783864 
L 83.616 145.263606 
L 77.664 143.671691 
L 72.975297 142.344 
L 71.712 141.917206 
L 65.76 139.765155 
L 59.808 137.623345 
L 57.550571 136.8 
L 53.856 135.223622 
L 47.904 132.853206 
L 43.206612 131.256 
L 41.952 130.75262 
L 36 128.89694 
L 36 127.380984 
z
M 40.488865 70.272 
L 36 68.894588 
L 36 66.987675 
L 41.952 68.907892 
L 45.398507 70.272 
L 47.904 71.323855 
L 53.856 74.07172 
L 57.561432 75.816 
L 59.808 76.925922 
L 65.76 79.856241 
L 68.951728 81.36 
L 71.712 82.734275 
L 77.664 85.527239 
L 80.830749 86.904 
L 83.616 88.202053 
L 89.568 90.75639 
L 93.947152 92.448 
L 95.52 93.11121 
L 101.472 95.433564 
L 107.424 97.479189 
L 109.037661 97.992 
L 113.376 99.525648 
L 119.328 101.409621 
L 125.28 103.082406 
L 127.026098 103.536 
L 131.232 104.778509 
L 137.184 106.363242 
L 143.136 107.780369 
L 149.088 109.056856 
L 149.202901 109.08 
L 155.04 110.449028 
L 160.992 111.704475 
L 166.944 112.840176 
L 172.896 113.87358 
L 177.591628 114.624 
L 178.848 114.8653 
L 184.8 115.93261 
L 190.752 116.90512 
L 196.704 117.795734 
L 202.656 118.615012 
L 208.608 119.371697 
L 214.56 120.073097 
L 214.56 120.168 
L 214.56 122.062438 
L 208.608 121.223404 
L 202.656 120.306702 
L 201.810556 120.168 
L 196.704 119.502086 
L 190.752 118.662672 
L 184.8 117.747356 
L 178.848 116.74434 
L 172.896 115.639048 
L 167.932602 114.624 
L 166.944 114.45657 
L 160.992 113.380645 
L 155.04 112.193327 
L 149.088 110.87447 
L 143.136 109.39829 
L 141.948874 109.08 
L 137.184 107.992367 
L 131.232 106.48936 
L 125.28 104.798262 
L 121.288363 103.536 
L 119.328 102.992876 
L 113.376 101.202347 
L 107.424 99.172381 
L 104.295364 97.992 
L 101.472 97.037194 
L 95.52 94.831797 
L 89.866661 92.448 
L 89.568 92.332631 
L 83.616 89.906443 
L 77.664 87.153983 
L 77.144666 86.904 
L 71.712 84.469712 
L 65.76 81.521679 
L 65.433557 81.36 
L 59.808 78.733356 
L 53.903044 75.816 
L 53.856 75.793855 
L 47.904 73.21633 
L 41.952 70.760122 
z
" clip-path="url(#p75ac0b5cd6)" style="fill: #2d708e"/>
    <path d="M 38.664683 131.256 
L 36 130.412896 
L 36 128.89694 
L 41.952 130.75262 
L 43.206612 131.256 
L 47.904 132.853206 
L 53.856 135.223622 
L 57.550571 136.8 
L 59.808 137.623345 
L 65.76 139.765155 
L 71.712 141.917206 
L 72.975297 142.344 
L 77.664 143.671691 
L 83.616 145.263606 
L 89.568 146.783864 
L 94.157242 147.888 
L 95.52 148.185053 
L 101.472 149.21188 
L 107.424 150.195229 
L 113.376 151.114243 
L 119.328 151.975448 
L 125.28 152.784907 
L 130.360918 153.432 
L 131.232 153.531874 
L 137.184 154.054681 
L 143.136 154.547979 
L 149.088 155.007091 
L 155.04 155.433902 
L 160.992 155.831378 
L 166.944 156.20216 
L 172.896 156.5486 
L 178.848 156.872794 
L 184.8 157.176615 
L 190.752 157.461742 
L 196.704 157.729679 
L 202.656 157.981778 
L 208.608 158.219257 
L 214.56 158.443214 
L 214.56 158.976 
L 214.56 159.955732 
L 208.608 159.780824 
L 202.656 159.570351 
L 196.704 159.313529 
L 190.752 158.99477 
L 190.456322 158.976 
L 184.8 158.666589 
L 178.848 158.322053 
L 172.896 157.95734 
L 166.944 157.570584 
L 160.992 157.159697 
L 155.04 156.722341 
L 149.088 156.255887 
L 143.136 155.757384 
L 137.184 155.227704 
L 131.232 154.829512 
L 125.28 154.247461 
L 119.901141 153.432 
L 119.328 153.351217 
L 113.376 152.426465 
L 107.424 151.445978 
L 101.472 150.403241 
L 95.52 149.435692 
L 89.568 148.214744 
L 88.596863 147.888 
L 83.616 146.558708 
L 77.664 144.887553 
L 71.712 143.346992 
L 69.125993 142.344 
L 65.76 141.10924 
L 59.808 138.873891 
L 54.12185 136.8 
L 53.856 136.686569 
L 47.904 134.212237 
L 41.952 132.235968 
z
M 41.952 67.123717 
L 47.904 69.53968 
L 49.505743 70.272 
L 53.856 72.349586 
L 59.808 75.209045 
L 61.052221 75.816 
L 65.76 78.213991 
L 71.712 81.02101 
L 72.389208 81.36 
L 77.664 83.93728 
L 83.616 86.519087 
L 84.459413 86.904 
L 89.568 89.180148 
L 95.52 91.543517 
L 97.997662 92.448 
L 101.472 93.829934 
L 107.424 95.971895 
L 113.376 97.847826 
L 113.78423 97.992 
L 119.328 99.826365 
L 125.28 101.577979 
L 131.232 103.098528 
L 132.846521 103.536 
L 137.184 104.734117 
L 143.136 106.221439 
L 149.088 107.558835 
L 155.04 108.730279 
L 156.679804 109.08 
L 160.992 110.028305 
L 166.944 111.223782 
L 172.896 112.310041 
L 178.848 113.30226 
L 184.8 114.178954 
L 187.677993 114.624 
L 190.752 115.147569 
L 196.704 116.089382 
L 202.656 116.954753 
L 208.608 117.753148 
L 214.56 118.492465 
L 214.56 120.073097 
L 208.608 119.371697 
L 202.656 118.615012 
L 196.704 117.795734 
L 190.752 116.90512 
L 184.8 115.93261 
L 178.848 114.8653 
L 177.591628 114.624 
L 172.896 113.87358 
L 166.944 112.840176 
L 160.992 111.704475 
L 155.04 110.449028 
L 149.202901 109.08 
L 149.088 109.056856 
L 143.136 107.780369 
L 137.184 106.363242 
L 131.232 104.778509 
L 127.026098 103.536 
L 125.28 103.082406 
L 119.328 101.409621 
L 113.376 99.525648 
L 109.037661 97.992 
L 107.424 97.479189 
L 101.472 95.433564 
L 95.52 93.11121 
L 93.947152 92.448 
L 89.568 90.75639 
L 83.616 88.202053 
L 80.830749 86.904 
L 77.664 85.527239 
L 71.712 82.734275 
L 68.951728 81.36 
L 65.76 79.856241 
L 59.808 76.925922 
L 57.561432 75.816 
L 53.856 74.07172 
L 47.904 71.323855 
L 45.398507 70.272 
L 41.952 68.907892 
L 36 66.987675 
L 36 65.080762 
z
" clip-path="url(#p75ac0b5cd6)" style="fill: #355f8d"/>
    <path d="M 36 131.256 
L 36 130.412896 
L 38.664683 131.256 
L 41.952 132.235968 
L 47.904 134.212237 
L 53.856 136.686569 
L 54.12185 136.8 
L 59.808 138.873891 
L 65.76 141.10924 
L 69.125993 142.344 
L 71.712 143.346992 
L 77.664 144.887553 
L 83.616 146.558708 
L 88.596863 147.888 
L 89.568 148.214744 
L 95.52 149.435692 
L 101.472 150.403241 
L 107.424 151.445978 
L 113.376 152.426465 
L 119.328 153.351217 
L 119.901141 153.432 
L 125.28 154.247461 
L 131.232 154.829512 
L 137.184 155.227704 
L 143.136 155.757384 
L 149.088 156.255887 
L 155.04 156.722341 
L 160.992 157.159697 
L 166.944 157.570584 
L 172.896 157.95734 
L 178.848 158.322053 
L 184.8 158.666589 
L 190.456322 158.976 
L 190.752 158.99477 
L 196.704 159.313529 
L 202.656 159.570351 
L 208.608 159.780824 
L 214.56 159.955732 
L 214.56 161.384113 
L 208.608 161.263942 
L 202.656 161.119336 
L 196.704 160.942887 
L 190.752 160.723883 
L 184.8 160.446243 
L 178.848 160.084668 
L 172.896 159.596929 
L 167.473399 158.976 
L 166.944 158.939007 
L 160.992 158.488017 
L 155.04 158.01078 
L 149.088 157.504683 
L 143.136 156.96679 
L 137.184 156.400728 
L 131.232 156.127149 
L 125.28 155.72725 
L 119.328 155.095683 
L 113.376 153.965408 
L 111.682834 153.432 
L 107.424 152.696727 
L 101.472 151.594601 
L 95.52 150.686331 
L 89.568 149.847476 
L 83.744108 147.888 
L 83.616 147.853811 
L 77.664 146.103414 
L 71.712 144.768094 
L 65.76 142.542063 
L 65.499187 142.344 
L 59.808 140.124437 
L 53.856 138.440263 
L 50.850118 136.8 
L 47.904 135.571268 
L 41.952 133.664276 
L 36 132.188339 
z
M 36 64.728 
L 36 63.227078 
L 40.1899 64.728 
L 41.952 65.339542 
L 47.904 67.891019 
L 53.11172 70.272 
L 53.856 70.627452 
L 59.808 73.636268 
L 64.276315 75.816 
L 65.76 76.571741 
L 71.712 79.39211 
L 75.643297 81.36 
L 77.664 82.347322 
L 83.616 84.904558 
L 87.99713 86.904 
L 89.568 87.603906 
L 95.52 90.071724 
L 101.472 92.119573 
L 102.029427 92.448 
L 107.424 94.464602 
L 113.376 96.157958 
L 118.569104 97.992 
L 119.328 98.243109 
L 125.28 100.073553 
L 131.232 101.500448 
L 137.184 102.939758 
L 138.779132 103.536 
L 143.136 104.66251 
L 149.088 106.060813 
L 155.04 107.104737 
L 160.992 108.164502 
L 164.390495 109.08 
L 166.944 109.607388 
L 172.896 110.746502 
L 178.848 111.78578 
L 184.8 112.583244 
L 190.752 113.280622 
L 196.704 114.288936 
L 198.246079 114.624 
L 202.656 115.294495 
L 208.608 116.134598 
L 214.56 116.911834 
L 214.56 118.492465 
L 208.608 117.753148 
L 202.656 116.954753 
L 196.704 116.089382 
L 190.752 115.147569 
L 187.677993 114.624 
L 184.8 114.178954 
L 178.848 113.30226 
L 172.896 112.310041 
L 166.944 111.223782 
L 160.992 110.028305 
L 156.679804 109.08 
L 155.04 108.730279 
L 149.088 107.558835 
L 143.136 106.221439 
L 137.184 104.734117 
L 132.846521 103.536 
L 131.232 103.098528 
L 125.28 101.577979 
L 119.328 99.826365 
L 113.78423 97.992 
L 113.376 97.847826 
L 107.424 95.971895 
L 101.472 93.829934 
L 97.997662 92.448 
L 95.52 91.543517 
L 89.568 89.180148 
L 84.459413 86.904 
L 83.616 86.519087 
L 77.664 83.93728 
L 72.389208 81.36 
L 71.712 81.02101 
L 65.76 78.213991 
L 61.052221 75.816 
L 59.808 75.209045 
L 53.856 72.349586 
L 49.505743 70.272 
L 47.904 69.53968 
L 41.952 67.123717 
L 36 65.080762 
z
" clip-path="url(#p75ac0b5cd6)" style="fill: #3d4d8a"/>
    <path d="M 41.952 133.664276 
L 47.904 135.571268 
L 50.850118 136.8 
L 53.856 138.440263 
L 59.808 140.124437 
L 65.499187 142.344 
L 65.76 142.542063 
L 71.712 144.768094 
L 77.664 146.103414 
L 83.616 147.853811 
L 83.744108 147.888 
L 89.568 149.847476 
L 95.52 150.686331 
L 101.472 151.594601 
L 107.424 152.696727 
L 111.682834 153.432 
L 113.376 153.965408 
L 119.328 155.095683 
L 125.28 155.72725 
L 131.232 156.127149 
L 137.184 156.400728 
L 143.136 156.96679 
L 149.088 157.504683 
L 155.04 158.01078 
L 160.992 158.488017 
L 166.944 158.939007 
L 167.473399 158.976 
L 172.896 159.596929 
L 178.848 160.084668 
L 184.8 160.446243 
L 190.752 160.723883 
L 196.704 160.942887 
L 202.656 161.119336 
L 208.608 161.263942 
L 214.56 161.384113 
L 214.56 162.812494 
L 208.608 162.747061 
L 202.656 162.668322 
L 196.704 162.572244 
L 190.752 162.452996 
L 184.8 162.301819 
L 178.848 162.10494 
L 172.896 161.839364 
L 166.944 161.46363 
L 160.992 160.894612 
L 155.04 159.937626 
L 151.559919 158.976 
L 149.088 158.753479 
L 143.136 158.176195 
L 137.184 157.573752 
L 131.232 157.424787 
L 125.28 157.20704 
L 119.328 156.863148 
L 113.376 156.247708 
L 107.424 154.853339 
L 104.853785 153.432 
L 101.472 152.785962 
L 95.52 151.93697 
L 89.568 151.480209 
L 83.616 150.376524 
L 79.595567 147.888 
L 77.664 147.319275 
L 71.712 146.189196 
L 65.76 144.977111 
L 62.29266 142.344 
L 59.808 141.374982 
L 53.856 140.218396 
L 47.904 137.211636 
L 47.462071 136.8 
L 41.952 135.092583 
L 36 134.288928 
L 36 132.188339 
z
M 40.1899 64.728 
L 36 63.227078 
L 36 61.385476 
L 41.952 62.761231 
L 44.434516 64.728 
L 47.904 66.242358 
L 53.856 68.059993 
L 56.300037 70.272 
L 59.808 72.063492 
L 65.76 74.091312 
L 67.611614 75.816 
L 71.712 77.763209 
L 77.664 80.025351 
L 79.09687 81.36 
L 83.616 83.290029 
L 89.568 85.144089 
L 91.505128 86.904 
L 95.52 88.59993 
L 101.472 89.743905 
L 106.061559 92.448 
L 107.424 92.957308 
L 113.376 94.46809 
L 119.328 95.701799 
L 123.416106 97.992 
L 125.28 98.569126 
L 131.232 99.902367 
L 137.184 100.686078 
L 143.136 102.491858 
L 144.850745 103.536 
L 149.088 104.562791 
L 155.04 105.479195 
L 160.992 106.056242 
L 166.944 107.081682 
L 172.366028 109.08 
L 172.896 109.182963 
L 178.848 110.269299 
L 184.8 110.987533 
L 190.752 111.367259 
L 196.704 111.916291 
L 202.656 112.77921 
L 208.608 114.331028 
L 209.380153 114.624 
L 214.56 115.331203 
L 214.56 116.911834 
L 208.608 116.134598 
L 202.656 115.294495 
L 198.246079 114.624 
L 196.704 114.288936 
L 190.752 113.280622 
L 184.8 112.583244 
L 178.848 111.78578 
L 172.896 110.746502 
L 166.944 109.607388 
L 164.390495 109.08 
L 160.992 108.164502 
L 155.04 107.104737 
L 149.088 106.060813 
L 143.136 104.66251 
L 138.779132 103.536 
L 137.184 102.939758 
L 131.232 101.500448 
L 125.28 100.073553 
L 119.328 98.243109 
L 118.569104 97.992 
L 113.376 96.157958 
L 107.424 94.464602 
L 102.029427 92.448 
L 101.472 92.119573 
L 95.52 90.071724 
L 89.568 87.603906 
L 87.99713 86.904 
L 83.616 84.904558 
L 77.664 82.347322 
L 75.643297 81.36 
L 71.712 79.39211 
L 65.76 76.571741 
L 64.276315 75.816 
L 59.808 73.636268 
L 53.856 70.627452 
L 53.11172 70.272 
L 47.904 67.891019 
L 41.952 65.339542 
z
" clip-path="url(#p75ac0b5cd6)" style="fill: #443983"/>
    <path d="M 41.952 135.092583 
L 47.462071 136.8 
L 47.904 137.211636 
L 53.856 140.218396 
L 59.808 141.374982 
L 62.29266 142.344 
L 65.76 144.977111 
L 71.712 146.189196 
L 77.664 147.319275 
L 79.595567 147.888 
L 83.616 150.376524 
L 89.568 151.480209 
L 95.52 151.93697 
L 101.472 152.785962 
L 104.853785 153.432 
L 107.424 154.853339 
L 113.376 156.247708 
L 119.328 156.863148 
L 125.28 157.20704 
L 131.232 157.424787 
L 137.184 157.573752 
L 143.136 158.176195 
L 149.088 158.753479 
L 151.559919 158.976 
L 155.04 159.937626 
L 160.992 160.894612 
L 166.944 161.46363 
L 172.896 161.839364 
L 178.848 162.10494 
L 184.8 162.301819 
L 190.752 162.452996 
L 196.704 162.572244 
L 202.656 162.668322 
L 208.608 162.747061 
L 214.56 162.812494 
L 214.56 164.240875 
L 208.608 164.230179 
L 202.656 164.217307 
L 196.704 164.201602 
L 190.752 164.182108 
L 184.8 164.157396 
L 178.848 164.125212 
L 172.896 164.081798 
L 166.944 164.020377 
L 160.992 163.92736 
L 155.04 163.770923 
L 149.088 163.454974 
L 143.136 162.491567 
L 139.361711 158.976 
L 137.184 158.746775 
L 131.232 158.722424 
L 125.28 158.686829 
L 119.328 158.630614 
L 113.376 158.530008 
L 107.424 158.302072 
L 101.472 157.317298 
L 97.300771 153.432 
L 95.52 153.187608 
L 89.568 153.112942 
L 83.616 152.932523 
L 77.664 151.943154 
L 73.310414 147.888 
L 71.712 147.610298 
L 65.76 147.412159 
L 59.808 145.311842 
L 56.621745 142.344 
L 53.856 141.996529 
L 47.904 141.505016 
L 42.852727 136.8 
L 41.952 136.52089 
L 36 136.389517 
L 36 134.288928 
z
M 41.952 59.768767 
L 47.904 63.096856 
L 49.655185 64.728 
L 53.856 65.272678 
L 59.379728 70.272 
L 59.808 70.490716 
L 65.76 70.89634 
L 71.041713 75.816 
L 71.712 76.134309 
L 77.664 76.5041 
L 82.877261 81.36 
L 83.616 81.6755 
L 89.568 81.978582 
L 94.98939 86.904 
L 95.52 87.128136 
L 101.472 87.368237 
L 107.424 88.167382 
L 112.019642 92.448 
L 113.376 92.778223 
L 119.328 92.979896 
L 125.28 93.78254 
L 129.799248 97.992 
L 131.232 98.304286 
L 137.184 98.432399 
L 143.136 98.727589 
L 149.088 100.116334 
L 152.759329 103.536 
L 155.04 103.853653 
L 160.992 103.947982 
L 166.944 104.11561 
L 172.896 104.495109 
L 178.848 106.170888 
L 181.971203 109.08 
L 184.8 109.391823 
L 190.752 109.453897 
L 196.704 109.543646 
L 202.656 109.684707 
L 208.608 109.938382 
L 214.56 110.528367 
L 214.56 114.624 
L 214.56 115.331203 
L 209.380153 114.624 
L 208.608 114.331028 
L 202.656 112.77921 
L 196.704 111.916291 
L 190.752 111.367259 
L 184.8 110.987533 
L 178.848 110.269299 
L 172.896 109.182963 
L 172.366028 109.08 
L 166.944 107.081682 
L 160.992 106.056242 
L 155.04 105.479195 
L 149.088 104.562791 
L 144.850745 103.536 
L 143.136 102.491858 
L 137.184 100.686078 
L 131.232 99.902367 
L 125.28 98.569126 
L 123.416106 97.992 
L 119.328 95.701799 
L 113.376 94.46809 
L 107.424 92.957308 
L 106.061559 92.448 
L 101.472 89.743905 
L 95.52 88.59993 
L 91.505128 86.904 
L 89.568 85.144089 
L 83.616 83.290029 
L 79.09687 81.36 
L 77.664 80.025351 
L 71.712 77.763209 
L 67.611614 75.816 
L 65.76 74.091312 
L 59.808 72.063492 
L 56.300037 70.272 
L 53.856 68.059993 
L 47.904 66.242358 
L 44.434516 64.728 
L 41.952 62.761231 
L 36 61.385476 
L 36 59.543874 
z
" clip-path="url(#p75ac0b5cd6)" style="fill: #482475"/>
    <path d="M 36 186.696 
L 36 181.152 
L 36 175.608 
L 36 170.064 
L 36 164.52 
L 36 158.976 
L 36 153.432 
L 36 147.888 
L 36 142.344 
L 36 136.8 
L 36 136.389517 
L 41.952 136.52089 
L 42.852727 136.8 
L 47.904 141.505016 
L 53.856 141.996529 
L 56.621745 142.344 
L 59.808 145.311842 
L 65.76 147.412159 
L 71.712 147.610298 
L 73.310414 147.888 
L 77.664 151.943154 
L 83.616 152.932523 
L 89.568 153.112942 
L 95.52 153.187608 
L 97.300771 153.432 
L 101.472 157.317298 
L 107.424 158.302072 
L 113.376 158.530008 
L 119.328 158.630614 
L 125.28 158.686829 
L 131.232 158.722424 
L 137.184 158.746775 
L 139.361711 158.976 
L 143.136 162.491567 
L 149.088 163.454974 
L 155.04 163.770923 
L 160.992 163.92736 
L 166.944 164.020377 
L 172.896 164.081798 
L 178.848 164.125212 
L 184.8 164.157396 
L 190.752 164.182108 
L 196.704 164.201602 
L 202.656 164.217307 
L 208.608 164.230179 
L 214.56 164.240875 
L 214.56 164.52 
L 214.56 170.064 
L 214.56 175.608 
L 214.56 181.152 
L 214.56 186.696 
L 214.56 192.24 
L 208.608 192.24 
L 202.656 192.24 
L 196.704 192.24 
L 190.752 192.24 
L 184.8 192.24 
L 178.848 192.24 
L 172.896 192.24 
L 166.944 192.24 
L 160.992 192.24 
L 155.04 192.24 
L 149.088 192.24 
L 143.136 192.24 
L 137.184 192.24 
L 131.232 192.24 
L 125.28 192.24 
L 119.328 192.24 
L 113.376 192.24 
L 107.424 192.24 
L 101.472 192.24 
L 95.52 192.24 
L 89.568 192.24 
L 83.616 192.24 
L 77.664 192.24 
L 71.712 192.24 
L 65.76 192.24 
L 59.808 192.24 
L 53.856 192.24 
L 47.904 192.24 
L 41.952 192.24 
L 36 192.24 
z
M 36 59.184 
L 36 53.64 
L 36 48.096 
L 36 42.552 
L 36 37.008 
L 36 31.464 
L 36 25.92 
L 41.952 25.92 
L 47.904 25.92 
L 53.856 25.92 
L 59.808 25.92 
L 65.76 25.92 
L 71.712 25.92 
L 77.664 25.92 
L 83.616 25.92 
L 89.568 25.92 
L 95.52 25.92 
L 101.472 25.92 
L 107.424 25.92 
L 113.376 25.92 
L 119.328 25.92 
L 125.28 25.92 
L 131.232 25.92 
L 137.184 25.92 
L 143.136 25.92 
L 149.088 25.92 
L 155.04 25.92 
L 160.992 25.92 
L 166.944 25.92 
L 172.896 25.92 
L 178.848 25.92 
L 184.8 25.92 
L 190.752 25.92 
L 196.704 25.92 
L 202.656 25.92 
L 208.608 25.92 
L 214.56 25.92 
L 214.56 31.464 
L 214.56 37.008 
L 214.56 42.552 
L 214.56 48.096 
L 214.56 53.64 
L 214.56 59.184 
L 214.56 64.728 
L 214.56 70.272 
L 214.56 75.816 
L 214.56 81.36 
L 214.56 86.904 
L 214.56 92.448 
L 214.56 97.992 
L 214.56 103.536 
L 214.56 109.08 
L 214.56 110.528367 
L 208.608 109.938382 
L 202.656 109.684707 
L 196.704 109.543646 
L 190.752 109.453897 
L 184.8 109.391823 
L 181.971203 109.08 
L 178.848 106.170888 
L 172.896 104.495109 
L 166.944 104.11561 
L 160.992 103.947982 
L 155.04 103.853653 
L 152.759329 103.536 
L 149.088 100.116334 
L 143.136 98.727589 
L 137.184 98.432399 
L 131.232 98.304286 
L 129.799248 97.992 
L 125.28 93.78254 
L 119.328 92.979896 
L 113.376 92.778223 
L 112.019642 92.448 
L 107.424 88.167382 
L 101.472 87.368237 
L 95.52 87.128136 
L 94.98939 86.904 
L 89.568 81.978582 
L 83.616 81.6755 
L 82.877261 81.36 
L 77.664 76.5041 
L 71.712 76.134309 
L 71.041713 75.816 
L 65.76 70.89634 
L 59.808 70.490716 
L 59.379728 70.272 
L 53.856 65.272678 
L 49.655185 64.728 
L 47.904 63.096856 
L 41.952 59.768767 
L 36 59.543874 
z
" clip-path="url(#p75ac0b5cd6)" style="fill: #470d60"/>
   </g>
   <g id="PathCollection_1">
    <defs>
     <path id="m068edd6ec1" d="M -4.743416 4.743416 
L 4.743416 -4.743416 
M -4.743416 -4.743416 
L 4.743416 4.743416 
" style="stroke: #ffffff; stroke-width: 5"/>
    </defs>
    <g clip-path="url(#p75ac0b5cd6)">
     <use xlink:href="#m068edd6ec1" x="65.76" y="109.08" style="fill: #ffffff; stroke: #ffffff; stroke-width: 5"/>
    </g>
   </g>
   <g id="PathCollection_2">
    <defs>
     <path id="mc2eb8e639e" d="M -4.330127 4.330127 
L 4.330127 -4.330127 
M -4.330127 -4.330127 
L 4.330127 4.330127 
" style="stroke: #000000; stroke-width: 2"/>
    </defs>
    <g clip-path="url(#p75ac0b5cd6)">
     <use xlink:href="#mc2eb8e639e" x="65.76" y="109.08" style="stroke: #000000; stroke-width: 2"/>
    </g>
   </g>
   <g id="matplotlib.axis_1">
    <g id="xtick_1">
     <g id="line2d_1">
      <defs>
       <path id="m6da8afac05" d="M 0 0 
L 0 3.5 
" style="stroke: #000000; stroke-width: 0.8"/>
      </defs>
      <g>
       <use xlink:href="#m6da8afac05" x="65.76" y="192.24" style="stroke: #000000; stroke-width: 0.8"/>
      </g>
     </g>
     <g id="text_1">
      <!-- 200 -->
      <g transform="translate(54.3075 208.358125) scale(0.12 -0.12)">
       <defs>
        <path id="DejaVuSans-32" d="M 1228 531 
L 3431 531 
L 3431 0 
L 469 0 
L 469 531 
Q 828 903 1448 1529 
Q 2069 2156 2228 2338 
Q 2531 2678 2651 2914 
Q 2772 3150 2772 3378 
Q 2772 3750 2511 3984 
Q 2250 4219 1831 4219 
Q 1534 4219 1204 4116 
Q 875 4013 500 3803 
L 500 4441 
Q 881 4594 1212 4672 
Q 1544 4750 1819 4750 
Q 2544 4750 2975 4387 
Q 3406 4025 3406 3419 
Q 3406 3131 3298 2873 
Q 3191 2616 2906 2266 
Q 2828 2175 2409 1742 
Q 1991 1309 1228 531 
z
" transform="scale(0.015625)"/>
        <path id="DejaVuSans-30" d="M 2034 4250 
Q 1547 4250 1301 3770 
Q 1056 3291 1056 2328 
Q 1056 1369 1301 889 
Q 1547 409 2034 409 
Q 2525 409 2770 889 
Q 3016 1369 3016 2328 
Q 3016 3291 2770 3770 
Q 2525 4250 2034 4250 
z
M 2034 4750 
Q 2819 4750 3233 4129 
Q 3647 3509 3647 2328 
Q 3647 1150 3233 529 
Q 2819 -91 2034 -91 
Q 1250 -91 836 529 
Q 422 1150 422 2328 
Q 422 3509 836 4129 
Q 1250 4750 2034 4750 
z
" transform="scale(0.015625)"/>
       </defs>
       <use xlink:href="#DejaVuSans-32"/>
       <use xlink:href="#DejaVuSans-30" x="63.623047"/>
       <use xlink:href="#DejaVuSans-30" x="127.246094"/>
      </g>
     </g>
    </g>
    <g id="xtick_2">
     <g id="line2d_2">
      <g>
       <use xlink:href="#m6da8afac05" x="105.44" y="192.24" style="stroke: #000000; stroke-width: 0.8"/>
      </g>
     </g>
     <g id="text_2">
      <!-- 400 -->
      <g transform="translate(93.9875 208.358125) scale(0.12 -0.12)">
       <defs>
        <path id="DejaVuSans-34" d="M 2419 4116 
L 825 1625 
L 2419 1625 
L 2419 4116 
z
M 2253 4666 
L 3047 4666 
L 3047 1625 
L 3713 1625 
L 3713 1100 
L 3047 1100 
L 3047 0 
L 2419 0 
L 2419 1100 
L 313 1100 
L 313 1709 
L 2253 4666 
z
" transform="scale(0.015625)"/>
       </defs>
       <use xlink:href="#DejaVuSans-34"/>
       <use xlink:href="#DejaVuSans-30" x="63.623047"/>
       <use xlink:href="#DejaVuSans-30" x="127.246094"/>
      </g>
     </g>
    </g>
    <g id="xtick_3">
     <g id="line2d_3">
      <g>
       <use xlink:href="#m6da8afac05" x="145.12" y="192.24" style="stroke: #000000; stroke-width: 0.8"/>
      </g>
     </g>
     <g id="text_3">
      <!-- 600 -->
      <g transform="translate(133.6675 208.358125) scale(0.12 -0.12)">
       <defs>
        <path id="DejaVuSans-36" d="M 2113 2584 
Q 1688 2584 1439 2293 
Q 1191 2003 1191 1497 
Q 1191 994 1439 701 
Q 1688 409 2113 409 
Q 2538 409 2786 701 
Q 3034 994 3034 1497 
Q 3034 2003 2786 2293 
Q 2538 2584 2113 2584 
z
M 3366 4563 
L 3366 3988 
Q 3128 4100 2886 4159 
Q 2644 4219 2406 4219 
Q 1781 4219 1451 3797 
Q 1122 3375 1075 2522 
Q 1259 2794 1537 2939 
Q 1816 3084 2150 3084 
Q 2853 3084 3261 2657 
Q 3669 2231 3669 1497 
Q 3669 778 3244 343 
Q 2819 -91 2113 -91 
Q 1303 -91 875 529 
Q 447 1150 447 2328 
Q 447 3434 972 4092 
Q 1497 4750 2381 4750 
Q 2619 4750 2861 4703 
Q 3103 4656 3366 4563 
z
" transform="scale(0.015625)"/>
       </defs>
       <use xlink:href="#DejaVuSans-36"/>
       <use xlink:href="#DejaVuSans-30" x="63.623047"/>
       <use xlink:href="#DejaVuSans-30" x="127.246094"/>
      </g>
     </g>
    </g>
    <g id="xtick_4">
     <g id="line2d_4">
      <g>
       <use xlink:href="#m6da8afac05" x="184.8" y="192.24" style="stroke: #000000; stroke-width: 0.8"/>
      </g>
     </g>
     <g id="text_4">
      <!-- 800 -->
      <g transform="translate(173.3475 208.358125) scale(0.12 -0.12)">
       <defs>
        <path id="DejaVuSans-38" d="M 2034 2216 
Q 1584 2216 1326 1975 
Q 1069 1734 1069 1313 
Q 1069 891 1326 650 
Q 1584 409 2034 409 
Q 2484 409 2743 651 
Q 3003 894 3003 1313 
Q 3003 1734 2745 1975 
Q 2488 2216 2034 2216 
z
M 1403 2484 
Q 997 2584 770 2862 
Q 544 3141 544 3541 
Q 544 4100 942 4425 
Q 1341 4750 2034 4750 
Q 2731 4750 3128 4425 
Q 3525 4100 3525 3541 
Q 3525 3141 3298 2862 
Q 3072 2584 2669 2484 
Q 3125 2378 3379 2068 
Q 3634 1759 3634 1313 
Q 3634 634 3220 271 
Q 2806 -91 2034 -91 
Q 1263 -91 848 271 
Q 434 634 434 1313 
Q 434 1759 690 2068 
Q 947 2378 1403 2484 
z
M 1172 3481 
Q 1172 3119 1398 2916 
Q 1625 2713 2034 2713 
Q 2441 2713 2670 2916 
Q 2900 3119 2900 3481 
Q 2900 3844 2670 4047 
Q 2441 4250 2034 4250 
Q 1625 4250 1398 4047 
Q 1172 3844 1172 3481 
z
" transform="scale(0.015625)"/>
       </defs>
       <use xlink:href="#DejaVuSans-38"/>
       <use xlink:href="#DejaVuSans-30" x="63.623047"/>
       <use xlink:href="#DejaVuSans-30" x="127.246094"/>
      </g>
     </g>
    </g>
    <g id="text_5">
     <!-- Diploid N$_e$0 -->
     <g transform="translate(80 227.01375) scale(0.16 -0.16)">
      <defs>
       <path id="DejaVuSans-44" d="M 1259 4147 
L 1259 519 
L 2022 519 
Q 2988 519 3436 956 
Q 3884 1394 3884 2338 
Q 3884 3275 3436 3711 
Q 2988 4147 2022 4147 
L 1259 4147 
z
M 628 4666 
L 1925 4666 
Q 3281 4666 3915 4102 
Q 4550 3538 4550 2338 
Q 4550 1131 3912 565 
Q 3275 0 1925 0 
L 628 0 
L 628 4666 
z
" transform="scale(0.015625)"/>
       <path id="DejaVuSans-69" d="M 603 3500 
L 1178 3500 
L 1178 0 
L 603 0 
L 603 3500 
z
M 603 4863 
L 1178 4863 
L 1178 4134 
L 603 4134 
L 603 4863 
z
" transform="scale(0.015625)"/>
       <path id="DejaVuSans-70" d="M 1159 525 
L 1159 -1331 
L 581 -1331 
L 581 3500 
L 1159 3500 
L 1159 2969 
Q 1341 3281 1617 3432 
Q 1894 3584 2278 3584 
Q 2916 3584 3314 3078 
Q 3713 2572 3713 1747 
Q 3713 922 3314 415 
Q 2916 -91 2278 -91 
Q 1894 -91 1617 61 
Q 1341 213 1159 525 
z
M 3116 1747 
Q 3116 2381 2855 2742 
Q 2594 3103 2138 3103 
Q 1681 3103 1420 2742 
Q 1159 2381 1159 1747 
Q 1159 1113 1420 752 
Q 1681 391 2138 391 
Q 2594 391 2855 752 
Q 3116 1113 3116 1747 
z
" transform="scale(0.015625)"/>
       <path id="DejaVuSans-6c" d="M 603 4863 
L 1178 4863 
L 1178 0 
L 603 0 
L 603 4863 
z
" transform="scale(0.015625)"/>
       <path id="DejaVuSans-6f" d="M 1959 3097 
Q 1497 3097 1228 2736 
Q 959 2375 959 1747 
Q 959 1119 1226 758 
Q 1494 397 1959 397 
Q 2419 397 2687 759 
Q 2956 1122 2956 1747 
Q 2956 2369 2687 2733 
Q 2419 3097 1959 3097 
z
M 1959 3584 
Q 2709 3584 3137 3096 
Q 3566 2609 3566 1747 
Q 3566 888 3137 398 
Q 2709 -91 1959 -91 
Q 1206 -91 779 398 
Q 353 888 353 1747 
Q 353 2609 779 3096 
Q 1206 3584 1959 3584 
z
" transform="scale(0.015625)"/>
       <path id="DejaVuSans-64" d="M 2906 2969 
L 2906 4863 
L 3481 4863 
L 3481 0 
L 2906 0 
L 2906 525 
Q 2725 213 2448 61 
Q 2172 -91 1784 -91 
Q 1150 -91 751 415 
Q 353 922 353 1747 
Q 353 2572 751 3078 
Q 1150 3584 1784 3584 
Q 2172 3584 2448 3432 
Q 2725 3281 2906 2969 
z
M 947 1747 
Q 947 1113 1208 752 
Q 1469 391 1925 391 
Q 2381 391 2643 752 
Q 2906 1113 2906 1747 
Q 2906 2381 2643 2742 
Q 2381 3103 1925 3103 
Q 1469 3103 1208 2742 
Q 947 2381 947 1747 
z
" transform="scale(0.015625)"/>
       <path id="DejaVuSans-20" transform="scale(0.015625)"/>
       <path id="DejaVuSans-4e" d="M 628 4666 
L 1478 4666 
L 3547 763 
L 3547 4666 
L 4159 4666 
L 4159 0 
L 3309 0 
L 1241 3903 
L 1241 0 
L 628 0 
L 628 4666 
z
" transform="scale(0.015625)"/>
       <path id="DejaVuSans-Oblique-65" d="M 3078 2063 
Q 3088 2113 3092 2166 
Q 3097 2219 3097 2272 
Q 3097 2653 2873 2875 
Q 2650 3097 2266 3097 
Q 1838 3097 1509 2826 
Q 1181 2556 1013 2059 
L 3078 2063 
z
M 3578 1613 
L 903 1613 
Q 884 1494 878 1425 
Q 872 1356 872 1306 
Q 872 872 1139 634 
Q 1406 397 1894 397 
Q 2269 397 2603 481 
Q 2938 566 3225 728 
L 3116 159 
Q 2806 34 2476 -28 
Q 2147 -91 1806 -91 
Q 1078 -91 686 257 
Q 294 606 294 1247 
Q 294 1794 489 2264 
Q 684 2734 1063 3103 
Q 1306 3334 1642 3459 
Q 1978 3584 2356 3584 
Q 2950 3584 3301 3228 
Q 3653 2872 3653 2272 
Q 3653 2128 3634 1964 
Q 3616 1800 3578 1613 
z
" transform="scale(0.015625)"/>
      </defs>
      <use xlink:href="#DejaVuSans-44" transform="translate(0 0.015625)"/>
      <use xlink:href="#DejaVuSans-69" transform="translate(77.001953 0.015625)"/>
      <use xlink:href="#DejaVuSans-70" transform="translate(104.785156 0.015625)"/>
      <use xlink:href="#DejaVuSans-6c" transform="translate(168.261719 0.015625)"/>
      <use xlink:href="#DejaVuSans-6f" transform="translate(196.044922 0.015625)"/>
      <use xlink:href="#DejaVuSans-69" transform="translate(257.226562 0.015625)"/>
      <use xlink:href="#DejaVuSans-64" transform="translate(285.009766 0.015625)"/>
      <use xlink:href="#DejaVuSans-20" transform="translate(348.486328 0.015625)"/>
      <use xlink:href="#DejaVuSans-4e" transform="translate(380.273438 0.015625)"/>
      <use xlink:href="#DejaVuSans-Oblique-65" transform="translate(456.035156 -16.390625) scale(0.7)"/>
      <use xlink:href="#DejaVuSans-30" transform="translate(501.835938 0.015625)"/>
     </g>
    </g>
    <g id="text_6">
     <!-- 1e3 -->
     <g transform="translate(195.681875 221.452188) scale(0.1 -0.1)">
      <defs>
       <path id="DejaVuSans-31" d="M 794 531 
L 1825 531 
L 1825 4091 
L 703 3866 
L 703 4441 
L 1819 4666 
L 2450 4666 
L 2450 531 
L 3481 531 
L 3481 0 
L 794 0 
L 794 531 
z
" transform="scale(0.015625)"/>
       <path id="DejaVuSans-65" d="M 3597 1894 
L 3597 1613 
L 953 1613 
Q 991 1019 1311 708 
Q 1631 397 2203 397 
Q 2534 397 2845 478 
Q 3156 559 3463 722 
L 3463 178 
Q 3153 47 2828 -22 
Q 2503 -91 2169 -91 
Q 1331 -91 842 396 
Q 353 884 353 1716 
Q 353 2575 817 3079 
Q 1281 3584 2069 3584 
Q 2775 3584 3186 3129 
Q 3597 2675 3597 1894 
z
M 3022 2063 
Q 3016 2534 2758 2815 
Q 2500 3097 2075 3097 
Q 1594 3097 1305 2825 
Q 1016 2553 972 2059 
L 3022 2063 
z
" transform="scale(0.015625)"/>
       <path id="DejaVuSans-33" d="M 2597 2516 
Q 3050 2419 3304 2112 
Q 3559 1806 3559 1356 
Q 3559 666 3084 287 
Q 2609 -91 1734 -91 
Q 1441 -91 1130 -33 
Q 819 25 488 141 
L 488 750 
Q 750 597 1062 519 
Q 1375 441 1716 441 
Q 2309 441 2620 675 
Q 2931 909 2931 1356 
Q 2931 1769 2642 2001 
Q 2353 2234 1838 2234 
L 1294 2234 
L 1294 2753 
L 1863 2753 
Q 2328 2753 2575 2939 
Q 2822 3125 2822 3475 
Q 2822 3834 2567 4026 
Q 2313 4219 1838 4219 
Q 1578 4219 1281 4162 
Q 984 4106 628 3988 
L 628 4550 
Q 988 4650 1302 4700 
Q 1616 4750 1894 4750 
Q 2613 4750 3031 4423 
Q 3450 4097 3450 3541 
Q 3450 3153 3228 2886 
Q 3006 2619 2597 2516 
z
" transform="scale(0.015625)"/>
      </defs>
      <use xlink:href="#DejaVuSans-31"/>
      <use xlink:href="#DejaVuSans-65" x="63.623047"/>
      <use xlink:href="#DejaVuSans-33" x="125.146484"/>
     </g>
    </g>
   </g>
   <g id="matplotlib.axis_2">
    <g id="ytick_1">
     <g id="line2d_5">
      <defs>
       <path id="m65edaeb22c" d="M 0 0 
L -3.5 0 
" style="stroke: #000000; stroke-width: 0.8"/>
      </defs>
      <g>
       <use xlink:href="#m65edaeb22c" x="36" y="192.24" style="stroke: #000000; stroke-width: 0.8"/>
      </g>
     </g>
     <g id="text_7">
      <!-- 1.0 -->
      <g transform="translate(9.91625 196.799062) scale(0.12 -0.12)">
       <defs>
        <path id="DejaVuSans-2e" d="M 684 794 
L 1344 794 
L 1344 0 
L 684 0 
L 684 794 
z
" transform="scale(0.015625)"/>
       </defs>
       <use xlink:href="#DejaVuSans-31"/>
       <use xlink:href="#DejaVuSans-2e" x="63.623047"/>
       <use xlink:href="#DejaVuSans-30" x="95.410156"/>
      </g>
     </g>
    </g>
    <g id="ytick_2">
     <g id="line2d_6">
      <g>
       <use xlink:href="#m65edaeb22c" x="36" y="150.66" style="stroke: #000000; stroke-width: 0.8"/>
      </g>
     </g>
     <g id="text_8">
      <!-- 1.5 -->
      <g transform="translate(9.91625 155.219063) scale(0.12 -0.12)">
       <defs>
        <path id="DejaVuSans-35" d="M 691 4666 
L 3169 4666 
L 3169 4134 
L 1269 4134 
L 1269 2991 
Q 1406 3038 1543 3061 
Q 1681 3084 1819 3084 
Q 2600 3084 3056 2656 
Q 3513 2228 3513 1497 
Q 3513 744 3044 326 
Q 2575 -91 1722 -91 
Q 1428 -91 1123 -41 
Q 819 9 494 109 
L 494 744 
Q 775 591 1075 516 
Q 1375 441 1709 441 
Q 2250 441 2565 725 
Q 2881 1009 2881 1497 
Q 2881 1984 2565 2268 
Q 2250 2553 1709 2553 
Q 1456 2553 1204 2497 
Q 953 2441 691 2322 
L 691 4666 
z
" transform="scale(0.015625)"/>
       </defs>
       <use xlink:href="#DejaVuSans-31"/>
       <use xlink:href="#DejaVuSans-2e" x="63.623047"/>
       <use xlink:href="#DejaVuSans-35" x="95.410156"/>
      </g>
     </g>
    </g>
    <g id="ytick_3">
     <g id="line2d_7">
      <g>
       <use xlink:href="#m65edaeb22c" x="36" y="109.08" style="stroke: #000000; stroke-width: 0.8"/>
      </g>
     </g>
     <g id="text_9">
      <!-- 2.0 -->
      <g transform="translate(9.91625 113.639062) scale(0.12 -0.12)">
       <use xlink:href="#DejaVuSans-32"/>
       <use xlink:href="#DejaVuSans-2e" x="63.623047"/>
       <use xlink:href="#DejaVuSans-30" x="95.410156"/>
      </g>
     </g>
    </g>
    <g id="ytick_4">
     <g id="line2d_8">
      <g>
       <use xlink:href="#m65edaeb22c" x="36" y="67.5" style="stroke: #000000; stroke-width: 0.8"/>
      </g>
     </g>
     <g id="text_10">
      <!-- 2.5 -->
      <g transform="translate(9.91625 72.059063) scale(0.12 -0.12)">
       <use xlink:href="#DejaVuSans-32"/>
       <use xlink:href="#DejaVuSans-2e" x="63.623047"/>
       <use xlink:href="#DejaVuSans-35" x="95.410156"/>
      </g>
     </g>
    </g>
    <g id="ytick_5">
     <g id="line2d_9">
      <g>
       <use xlink:href="#m65edaeb22c" x="36" y="25.92" style="stroke: #000000; stroke-width: 0.8"/>
      </g>
     </g>
     <g id="text_11">
      <!-- 3.0 -->
      <g transform="translate(9.91625 30.479062) scale(0.12 -0.12)">
       <use xlink:href="#DejaVuSans-33"/>
       <use xlink:href="#DejaVuSans-2e" x="63.623047"/>
       <use xlink:href="#DejaVuSans-30" x="95.410156"/>
      </g>
     </g>
    </g>
    <g id="text_12">
     <!-- Recombination rate -->
     <g transform="translate(2.58875 187.6775) rotate(-90) scale(0.16 -0.16)">
      <defs>
       <path id="DejaVuSans-52" d="M 2841 2188 
Q 3044 2119 3236 1894 
Q 3428 1669 3622 1275 
L 4263 0 
L 3584 0 
L 2988 1197 
Q 2756 1666 2539 1819 
Q 2322 1972 1947 1972 
L 1259 1972 
L 1259 0 
L 628 0 
L 628 4666 
L 2053 4666 
Q 2853 4666 3247 4331 
Q 3641 3997 3641 3322 
Q 3641 2881 3436 2590 
Q 3231 2300 2841 2188 
z
M 1259 4147 
L 1259 2491 
L 2053 2491 
Q 2509 2491 2742 2702 
Q 2975 2913 2975 3322 
Q 2975 3731 2742 3939 
Q 2509 4147 2053 4147 
L 1259 4147 
z
" transform="scale(0.015625)"/>
       <path id="DejaVuSans-63" d="M 3122 3366 
L 3122 2828 
Q 2878 2963 2633 3030 
Q 2388 3097 2138 3097 
Q 1578 3097 1268 2742 
Q 959 2388 959 1747 
Q 959 1106 1268 751 
Q 1578 397 2138 397 
Q 2388 397 2633 464 
Q 2878 531 3122 666 
L 3122 134 
Q 2881 22 2623 -34 
Q 2366 -91 2075 -91 
Q 1284 -91 818 406 
Q 353 903 353 1747 
Q 353 2603 823 3093 
Q 1294 3584 2113 3584 
Q 2378 3584 2631 3529 
Q 2884 3475 3122 3366 
z
" transform="scale(0.015625)"/>
       <path id="DejaVuSans-6d" d="M 3328 2828 
Q 3544 3216 3844 3400 
Q 4144 3584 4550 3584 
Q 5097 3584 5394 3201 
Q 5691 2819 5691 2113 
L 5691 0 
L 5113 0 
L 5113 2094 
Q 5113 2597 4934 2840 
Q 4756 3084 4391 3084 
Q 3944 3084 3684 2787 
Q 3425 2491 3425 1978 
L 3425 0 
L 2847 0 
L 2847 2094 
Q 2847 2600 2669 2842 
Q 2491 3084 2119 3084 
Q 1678 3084 1418 2786 
Q 1159 2488 1159 1978 
L 1159 0 
L 581 0 
L 581 3500 
L 1159 3500 
L 1159 2956 
Q 1356 3278 1631 3431 
Q 1906 3584 2284 3584 
Q 2666 3584 2933 3390 
Q 3200 3197 3328 2828 
z
" transform="scale(0.015625)"/>
       <path id="DejaVuSans-62" d="M 3116 1747 
Q 3116 2381 2855 2742 
Q 2594 3103 2138 3103 
Q 1681 3103 1420 2742 
Q 1159 2381 1159 1747 
Q 1159 1113 1420 752 
Q 1681 391 2138 391 
Q 2594 391 2855 752 
Q 3116 1113 3116 1747 
z
M 1159 2969 
Q 1341 3281 1617 3432 
Q 1894 3584 2278 3584 
Q 2916 3584 3314 3078 
Q 3713 2572 3713 1747 
Q 3713 922 3314 415 
Q 2916 -91 2278 -91 
Q 1894 -91 1617 61 
Q 1341 213 1159 525 
L 1159 0 
L 581 0 
L 581 4863 
L 1159 4863 
L 1159 2969 
z
" transform="scale(0.015625)"/>
       <path id="DejaVuSans-6e" d="M 3513 2113 
L 3513 0 
L 2938 0 
L 2938 2094 
Q 2938 2591 2744 2837 
Q 2550 3084 2163 3084 
Q 1697 3084 1428 2787 
Q 1159 2491 1159 1978 
L 1159 0 
L 581 0 
L 581 3500 
L 1159 3500 
L 1159 2956 
Q 1366 3272 1645 3428 
Q 1925 3584 2291 3584 
Q 2894 3584 3203 3211 
Q 3513 2838 3513 2113 
z
" transform="scale(0.015625)"/>
       <path id="DejaVuSans-61" d="M 2194 1759 
Q 1497 1759 1228 1600 
Q 959 1441 959 1056 
Q 959 750 1161 570 
Q 1363 391 1709 391 
Q 2188 391 2477 730 
Q 2766 1069 2766 1631 
L 2766 1759 
L 2194 1759 
z
M 3341 1997 
L 3341 0 
L 2766 0 
L 2766 531 
Q 2569 213 2275 61 
Q 1981 -91 1556 -91 
Q 1019 -91 701 211 
Q 384 513 384 1019 
Q 384 1609 779 1909 
Q 1175 2209 1959 2209 
L 2766 2209 
L 2766 2266 
Q 2766 2663 2505 2880 
Q 2244 3097 1772 3097 
Q 1472 3097 1187 3025 
Q 903 2953 641 2809 
L 641 3341 
Q 956 3463 1253 3523 
Q 1550 3584 1831 3584 
Q 2591 3584 2966 3190 
Q 3341 2797 3341 1997 
z
" transform="scale(0.015625)"/>
       <path id="DejaVuSans-74" d="M 1172 4494 
L 1172 3500 
L 2356 3500 
L 2356 3053 
L 1172 3053 
L 1172 1153 
Q 1172 725 1289 603 
Q 1406 481 1766 481 
L 2356 481 
L 2356 0 
L 1766 0 
Q 1100 0 847 248 
Q 594 497 594 1153 
L 594 3053 
L 172 3053 
L 172 3500 
L 594 3500 
L 594 4494 
L 1172 4494 
z
" transform="scale(0.015625)"/>
       <path id="DejaVuSans-72" d="M 2631 2963 
Q 2534 3019 2420 3045 
Q 2306 3072 2169 3072 
Q 1681 3072 1420 2755 
Q 1159 2438 1159 1844 
L 1159 0 
L 581 0 
L 581 3500 
L 1159 3500 
L 1159 2956 
Q 1341 3275 1631 3429 
Q 1922 3584 2338 3584 
Q 2397 3584 2469 3576 
Q 2541 3569 2628 3553 
L 2631 2963 
z
" transform="scale(0.015625)"/>
      </defs>
      <use xlink:href="#DejaVuSans-52"/>
      <use xlink:href="#DejaVuSans-65" x="64.982422"/>
      <use xlink:href="#DejaVuSans-63" x="126.505859"/>
      <use xlink:href="#DejaVuSans-6f" x="181.486328"/>
      <use xlink:href="#DejaVuSans-6d" x="242.667969"/>
      <use xlink:href="#DejaVuSans-62" x="340.080078"/>
      <use xlink:href="#DejaVuSans-69" x="403.556641"/>
      <use xlink:href="#DejaVuSans-6e" x="431.339844"/>
      <use xlink:href="#DejaVuSans-61" x="494.71875"/>
      <use xlink:href="#DejaVuSans-74" x="555.998047"/>
      <use xlink:href="#DejaVuSans-69" x="595.207031"/>
      <use xlink:href="#DejaVuSans-6f" x="622.990234"/>
      <use xlink:href="#DejaVuSans-6e" x="684.171875"/>
      <use xlink:href="#DejaVuSans-20" x="747.550781"/>
      <use xlink:href="#DejaVuSans-72" x="779.337891"/>
      <use xlink:href="#DejaVuSans-61" x="820.451172"/>
      <use xlink:href="#DejaVuSans-74" x="881.730469"/>
      <use xlink:href="#DejaVuSans-65" x="920.939453"/>
     </g>
    </g>
    <g id="text_13">
     <!-- 1e9 -->
     <g transform="translate(36 22.92) scale(0.1 -0.1)">
      <defs>
       <path id="DejaVuSans-2212" d="M 678 2272 
L 4684 2272 
L 4684 1741 
L 678 1741 
L 678 2272 
z
" transform="scale(0.015625)"/>
       <path id="DejaVuSans-39" d="M 703 97 
L 703 672 
Q 941 559 1184 500 
Q 1428 441 1663 441 
Q 2288 441 2617 861 
Q 2947 1281 2994 2138 
Q 2813 1869 2534 1725 
Q 2256 1581 1919 1581 
Q 1219 1581 811 2004 
Q 403 2428 403 3163 
Q 403 3881 828 4315 
Q 1253 4750 1959 4750 
Q 2769 4750 3195 4129 
Q 3622 3509 3622 2328 
Q 3622 1225 3098 567 
Q 2575 -91 1691 -91 
Q 1453 -91 1209 -44 
Q 966 3 703 97 
z
M 1959 2075 
Q 2384 2075 2632 2365 
Q 2881 2656 2881 3163 
Q 2881 3666 2632 3958 
Q 2384 4250 1959 4250 
Q 1534 4250 1286 3958 
Q 1038 3666 1038 3163 
Q 1038 2656 1286 2365 
Q 1534 2075 1959 2075 
z
" transform="scale(0.015625)"/>
      </defs>
      <use xlink:href="#DejaVuSans-31"/>
      <use xlink:href="#DejaVuSans-65" x="63.623047"/>
      <use xlink:href="#DejaVuSans-2212" x="125.146484"/>
      <use xlink:href="#DejaVuSans-39" x="208.935547"/>
     </g>
    </g>
   </g>
   <g id="patch_3">
    <path d="M 36 192.24 
L 36 25.92 
" style="fill: none; stroke: #000000; stroke-width: 0.8; stroke-linejoin: miter; stroke-linecap: square"/>
   </g>
   <g id="patch_4">
    <path d="M 214.56 192.24 
L 214.56 25.92 
" style="fill: none; stroke: #000000; stroke-width: 0.8; stroke-linejoin: miter; stroke-linecap: square"/>
   </g>
   <g id="patch_5">
    <path d="M 36 192.24 
L 214.56 192.24 
" style="fill: none; stroke: #000000; stroke-width: 0.8; stroke-linejoin: miter; stroke-linecap: square"/>
   </g>
   <g id="patch_6">
    <path d="M 36 25.92 
L 214.56 25.92 
" style="fill: none; stroke: #000000; stroke-width: 0.8; stroke-linejoin: miter; stroke-linecap: square"/>
   </g>
   <g id="text_14">
    <!-- Ne0r-SMC-T-P2-S4 -->
    <g transform="translate(53.8825 10.92) scale(0.16 -0.16)">
     <defs>
      <path id="DejaVuSans-2d" d="M 313 2009 
L 1997 2009 
L 1997 1497 
L 313 1497 
L 313 2009 
z
" transform="scale(0.015625)"/>
      <path id="DejaVuSans-53" d="M 3425 4513 
L 3425 3897 
Q 3066 4069 2747 4153 
Q 2428 4238 2131 4238 
Q 1616 4238 1336 4038 
Q 1056 3838 1056 3469 
Q 1056 3159 1242 3001 
Q 1428 2844 1947 2747 
L 2328 2669 
Q 3034 2534 3370 2195 
Q 3706 1856 3706 1288 
Q 3706 609 3251 259 
Q 2797 -91 1919 -91 
Q 1588 -91 1214 -16 
Q 841 59 441 206 
L 441 856 
Q 825 641 1194 531 
Q 1563 422 1919 422 
Q 2459 422 2753 634 
Q 3047 847 3047 1241 
Q 3047 1584 2836 1778 
Q 2625 1972 2144 2069 
L 1759 2144 
Q 1053 2284 737 2584 
Q 422 2884 422 3419 
Q 422 4038 858 4394 
Q 1294 4750 2059 4750 
Q 2388 4750 2728 4690 
Q 3069 4631 3425 4513 
z
" transform="scale(0.015625)"/>
      <path id="DejaVuSans-4d" d="M 628 4666 
L 1569 4666 
L 2759 1491 
L 3956 4666 
L 4897 4666 
L 4897 0 
L 4281 0 
L 4281 4097 
L 3078 897 
L 2444 897 
L 1241 4097 
L 1241 0 
L 628 0 
L 628 4666 
z
" transform="scale(0.015625)"/>
      <path id="DejaVuSans-43" d="M 4122 4306 
L 4122 3641 
Q 3803 3938 3442 4084 
Q 3081 4231 2675 4231 
Q 1875 4231 1450 3742 
Q 1025 3253 1025 2328 
Q 1025 1406 1450 917 
Q 1875 428 2675 428 
Q 3081 428 3442 575 
Q 3803 722 4122 1019 
L 4122 359 
Q 3791 134 3420 21 
Q 3050 -91 2638 -91 
Q 1578 -91 968 557 
Q 359 1206 359 2328 
Q 359 3453 968 4101 
Q 1578 4750 2638 4750 
Q 3056 4750 3426 4639 
Q 3797 4528 4122 4306 
z
" transform="scale(0.015625)"/>
      <path id="DejaVuSans-54" d="M -19 4666 
L 3928 4666 
L 3928 4134 
L 2272 4134 
L 2272 0 
L 1638 0 
L 1638 4134 
L -19 4134 
L -19 4666 
z
" transform="scale(0.015625)"/>
      <path id="DejaVuSans-50" d="M 1259 4147 
L 1259 2394 
L 2053 2394 
Q 2494 2394 2734 2622 
Q 2975 2850 2975 3272 
Q 2975 3691 2734 3919 
Q 2494 4147 2053 4147 
L 1259 4147 
z
M 628 4666 
L 2053 4666 
Q 2838 4666 3239 4311 
Q 3641 3956 3641 3272 
Q 3641 2581 3239 2228 
Q 2838 1875 2053 1875 
L 1259 1875 
L 1259 0 
L 628 0 
L 628 4666 
z
" transform="scale(0.015625)"/>
     </defs>
     <use xlink:href="#DejaVuSans-4e"/>
     <use xlink:href="#DejaVuSans-65" x="74.804688"/>
     <use xlink:href="#DejaVuSans-30" x="136.328125"/>
     <use xlink:href="#DejaVuSans-72" x="199.951172"/>
     <use xlink:href="#DejaVuSans-2d" x="234.689453"/>
     <use xlink:href="#DejaVuSans-53" x="270.773438"/>
     <use xlink:href="#DejaVuSans-4d" x="334.25"/>
     <use xlink:href="#DejaVuSans-43" x="420.529297"/>
     <use xlink:href="#DejaVuSans-2d" x="490.353516"/>
     <use xlink:href="#DejaVuSans-54" x="517.3125"/>
     <use xlink:href="#DejaVuSans-2d" x="569.271484"/>
     <use xlink:href="#DejaVuSans-50" x="605.355469"/>
     <use xlink:href="#DejaVuSans-32" x="665.658203"/>
     <use xlink:href="#DejaVuSans-2d" x="729.28125"/>
     <use xlink:href="#DejaVuSans-53" x="765.365234"/>
     <use xlink:href="#DejaVuSans-34" x="828.841797"/>
    </g>
   </g>
  </g>
  <g id="axes_2">
   <g id="patch_7">
    <path d="M 225.72 192.24 
L 234.036 192.24 
L 234.036 25.92 
L 225.72 25.92 
z
" style="fill: #ffffff"/>
   </g>
   <g id="QuadMesh_1">
    <path d="M 225.72 192.24 
L 234.036 192.24 
L 234.036 181.152 
L 225.72 181.152 
L 225.72 192.24 
" clip-path="url(#p216e9e8246)" style="fill: #eae51a"/>
    <path d="M 225.72 181.152 
L 234.036 181.152 
L 234.036 170.064 
L 225.72 170.064 
L 225.72 181.152 
" clip-path="url(#p216e9e8246)" style="fill: #bddf26"/>
    <path d="M 225.72 170.064 
L 234.036 170.064 
L 234.036 158.976 
L 225.72 158.976 
L 225.72 170.064 
" clip-path="url(#p216e9e8246)" style="fill: #90d743"/>
    <path d="M 225.72 158.976 
L 234.036 158.976 
L 234.036 147.888 
L 225.72 147.888 
L 225.72 158.976 
" clip-path="url(#p216e9e8246)" style="fill: #67cc5c"/>
    <path d="M 225.72 147.888 
L 234.036 147.888 
L 234.036 136.8 
L 225.72 136.8 
L 225.72 147.888 
" clip-path="url(#p216e9e8246)" style="fill: #44bf70"/>
    <path d="M 225.72 136.8 
L 234.036 136.8 
L 234.036 125.712 
L 225.72 125.712 
L 225.72 136.8 
" clip-path="url(#p216e9e8246)" style="fill: #2ab07f"/>
    <path d="M 225.72 125.712 
L 234.036 125.712 
L 234.036 114.624 
L 225.72 114.624 
L 225.72 125.712 
" clip-path="url(#p216e9e8246)" style="fill: #1fa188"/>
    <path d="M 225.72 114.624 
L 234.036 114.624 
L 234.036 103.536 
L 225.72 103.536 
L 225.72 114.624 
" clip-path="url(#p216e9e8246)" style="fill: #21908d"/>
    <path d="M 225.72 103.536 
L 234.036 103.536 
L 234.036 92.448 
L 225.72 92.448 
L 225.72 103.536 
" clip-path="url(#p216e9e8246)" style="fill: #27808e"/>
    <path d="M 225.72 92.448 
L 234.036 92.448 
L 234.036 81.36 
L 225.72 81.36 
L 225.72 92.448 
" clip-path="url(#p216e9e8246)" style="fill: #2d708e"/>
    <path d="M 225.72 81.36 
L 234.036 81.36 
L 234.036 70.272 
L 225.72 70.272 
L 225.72 81.36 
" clip-path="url(#p216e9e8246)" style="fill: #355f8d"/>
    <path d="M 225.72 70.272 
L 234.036 70.272 
L 234.036 59.184 
L 225.72 59.184 
L 225.72 70.272 
" clip-path="url(#p216e9e8246)" style="fill: #3d4d8a"/>
    <path d="M 225.72 59.184 
L 234.036 59.184 
L 234.036 48.096 
L 225.72 48.096 
L 225.72 59.184 
" clip-path="url(#p216e9e8246)" style="fill: #443983"/>
    <path d="M 225.72 48.096 
L 234.036 48.096 
L 234.036 37.008 
L 225.72 37.008 
L 225.72 48.096 
" clip-path="url(#p216e9e8246)" style="fill: #482475"/>
    <path d="M 225.72 37.008 
L 234.036 37.008 
L 234.036 25.92 
L 225.72 25.92 
L 225.72 37.008 
" clip-path="url(#p216e9e8246)" style="fill: #470d60"/>
   </g>
   <g id="matplotlib.axis_3"/>
   <g id="matplotlib.axis_4">
    <g id="ytick_6">
     <g id="line2d_10">
      <defs>
       <path id="mdac58f05e9" d="M 0 0 
L 3.5 0 
" style="stroke: #000000; stroke-width: 0.8"/>
      </defs>
      <g>
       <use xlink:href="#mdac58f05e9" x="234.036" y="192.24" style="stroke: #000000; stroke-width: 0.8"/>
      </g>
     </g>
     <g id="text_15">
      <!-- $\mathdefault{0.0}$ -->
      <g transform="translate(241.036 196.039219) scale(0.1 -0.1)">
       <use xlink:href="#DejaVuSans-30" transform="translate(0 0.78125)"/>
       <use xlink:href="#DejaVuSans-2e" transform="translate(63.623047 0.78125)"/>
       <use xlink:href="#DejaVuSans-30" transform="translate(95.410156 0.78125)"/>
      </g>
     </g>
    </g>
    <g id="ytick_7">
     <g id="line2d_11">
      <g>
       <use xlink:href="#mdac58f05e9" x="234.036" y="170.064" style="stroke: #000000; stroke-width: 0.8"/>
      </g>
     </g>
     <g id="text_16">
      <!-- $\mathdefault{0.2}$ -->
      <g transform="translate(241.036 173.863219) scale(0.1 -0.1)">
       <use xlink:href="#DejaVuSans-30" transform="translate(0 0.78125)"/>
       <use xlink:href="#DejaVuSans-2e" transform="translate(63.623047 0.78125)"/>
       <use xlink:href="#DejaVuSans-32" transform="translate(89.910156 0.78125)"/>
      </g>
     </g>
    </g>
    <g id="ytick_8">
     <g id="line2d_12">
      <g>
       <use xlink:href="#mdac58f05e9" x="234.036" y="147.888" style="stroke: #000000; stroke-width: 0.8"/>
      </g>
     </g>
     <g id="text_17">
      <!-- $\mathdefault{0.4}$ -->
      <g transform="translate(241.036 151.687219) scale(0.1 -0.1)">
       <use xlink:href="#DejaVuSans-30" transform="translate(0 0.78125)"/>
       <use xlink:href="#DejaVuSans-2e" transform="translate(63.623047 0.78125)"/>
       <use xlink:href="#DejaVuSans-34" transform="translate(95.410156 0.78125)"/>
      </g>
     </g>
    </g>
    <g id="ytick_9">
     <g id="line2d_13">
      <g>
       <use xlink:href="#mdac58f05e9" x="234.036" y="125.712" style="stroke: #000000; stroke-width: 0.8"/>
      </g>
     </g>
     <g id="text_18">
      <!-- $\mathdefault{0.6}$ -->
      <g transform="translate(241.036 129.511219) scale(0.1 -0.1)">
       <use xlink:href="#DejaVuSans-30" transform="translate(0 0.78125)"/>
       <use xlink:href="#DejaVuSans-2e" transform="translate(63.623047 0.78125)"/>
       <use xlink:href="#DejaVuSans-36" transform="translate(95.410156 0.78125)"/>
      </g>
     </g>
    </g>
    <g id="ytick_10">
     <g id="line2d_14">
      <g>
       <use xlink:href="#mdac58f05e9" x="234.036" y="103.536" style="stroke: #000000; stroke-width: 0.8"/>
      </g>
     </g>
     <g id="text_19">
      <!-- $\mathdefault{0.8}$ -->
      <g transform="translate(241.036 107.335219) scale(0.1 -0.1)">
       <use xlink:href="#DejaVuSans-30" transform="translate(0 0.78125)"/>
       <use xlink:href="#DejaVuSans-2e" transform="translate(63.623047 0.78125)"/>
       <use xlink:href="#DejaVuSans-38" transform="translate(92.785156 0.78125)"/>
      </g>
     </g>
    </g>
    <g id="ytick_11">
     <g id="line2d_15">
      <g>
       <use xlink:href="#mdac58f05e9" x="234.036" y="81.36" style="stroke: #000000; stroke-width: 0.8"/>
      </g>
     </g>
     <g id="text_20">
      <!-- $\mathdefault{1.0}$ -->
      <g transform="translate(241.036 85.159219) scale(0.1 -0.1)">
       <use xlink:href="#DejaVuSans-31" transform="translate(0 0.78125)"/>
       <use xlink:href="#DejaVuSans-2e" transform="translate(63.623047 0.78125)"/>
       <use xlink:href="#DejaVuSans-30" transform="translate(95.410156 0.78125)"/>
      </g>
     </g>
    </g>
    <g id="ytick_12">
     <g id="line2d_16">
      <g>
       <use xlink:href="#mdac58f05e9" x="234.036" y="59.184" style="stroke: #000000; stroke-width: 0.8"/>
      </g>
     </g>
     <g id="text_21">
      <!-- $\mathdefault{1.2}$ -->
      <g transform="translate(241.036 62.983219) scale(0.1 -0.1)">
       <use xlink:href="#DejaVuSans-31" transform="translate(0 0.78125)"/>
       <use xlink:href="#DejaVuSans-2e" transform="translate(63.623047 0.78125)"/>
       <use xlink:href="#DejaVuSans-32" transform="translate(89.910156 0.78125)"/>
      </g>
     </g>
    </g>
    <g id="ytick_13">
     <g id="line2d_17">
      <g>
       <use xlink:href="#mdac58f05e9" x="234.036" y="37.008" style="stroke: #000000; stroke-width: 0.8"/>
      </g>
     </g>
     <g id="text_22">
      <!-- $\mathdefault{1.4}$ -->
      <g transform="translate(241.036 40.807219) scale(0.1 -0.1)">
       <use xlink:href="#DejaVuSans-31" transform="translate(0 0.09375)"/>
       <use xlink:href="#DejaVuSans-2e" transform="translate(63.623047 0.09375)"/>
       <use xlink:href="#DejaVuSans-34" transform="translate(95.410156 0.09375)"/>
      </g>
     </g>
    </g>
    <g id="text_23">
     <!-- $\Delta$ log likelihood -->
     <g transform="translate(270.156 154.98) rotate(-90) scale(0.12 -0.12)">
      <defs>
       <path id="DejaVuSans-394" d="M 2188 4044 
L 906 525 
L 3472 525 
L 2188 4044 
z
M 50 0 
L 1831 4666 
L 2547 4666 
L 4325 0 
L 50 0 
z
" transform="scale(0.015625)"/>
       <path id="DejaVuSans-67" d="M 2906 1791 
Q 2906 2416 2648 2759 
Q 2391 3103 1925 3103 
Q 1463 3103 1205 2759 
Q 947 2416 947 1791 
Q 947 1169 1205 825 
Q 1463 481 1925 481 
Q 2391 481 2648 825 
Q 2906 1169 2906 1791 
z
M 3481 434 
Q 3481 -459 3084 -895 
Q 2688 -1331 1869 -1331 
Q 1566 -1331 1297 -1286 
Q 1028 -1241 775 -1147 
L 775 -588 
Q 1028 -725 1275 -790 
Q 1522 -856 1778 -856 
Q 2344 -856 2625 -561 
Q 2906 -266 2906 331 
L 2906 616 
Q 2728 306 2450 153 
Q 2172 0 1784 0 
Q 1141 0 747 490 
Q 353 981 353 1791 
Q 353 2603 747 3093 
Q 1141 3584 1784 3584 
Q 2172 3584 2450 3431 
Q 2728 3278 2906 2969 
L 2906 3500 
L 3481 3500 
L 3481 434 
z
" transform="scale(0.015625)"/>
       <path id="DejaVuSans-6b" d="M 581 4863 
L 1159 4863 
L 1159 1991 
L 2875 3500 
L 3609 3500 
L 1753 1863 
L 3688 0 
L 2938 0 
L 1159 1709 
L 1159 0 
L 581 0 
L 581 4863 
z
" transform="scale(0.015625)"/>
       <path id="DejaVuSans-68" d="M 3513 2113 
L 3513 0 
L 2938 0 
L 2938 2094 
Q 2938 2591 2744 2837 
Q 2550 3084 2163 3084 
Q 1697 3084 1428 2787 
Q 1159 2491 1159 1978 
L 1159 0 
L 581 0 
L 581 4863 
L 1159 4863 
L 1159 2956 
Q 1366 3272 1645 3428 
Q 1925 3584 2291 3584 
Q 2894 3584 3203 3211 
Q 3513 2838 3513 2113 
z
" transform="scale(0.015625)"/>
      </defs>
      <use xlink:href="#DejaVuSans-394" transform="translate(0 0.015625)"/>
      <use xlink:href="#DejaVuSans-20" transform="translate(68.408203 0.015625)"/>
      <use xlink:href="#DejaVuSans-6c" transform="translate(100.195312 0.015625)"/>
      <use xlink:href="#DejaVuSans-6f" transform="translate(127.978516 0.015625)"/>
      <use xlink:href="#DejaVuSans-67" transform="translate(189.160156 0.015625)"/>
      <use xlink:href="#DejaVuSans-20" transform="translate(252.636719 0.015625)"/>
      <use xlink:href="#DejaVuSans-6c" transform="translate(284.423828 0.015625)"/>
      <use xlink:href="#DejaVuSans-69" transform="translate(312.207031 0.015625)"/>
      <use xlink:href="#DejaVuSans-6b" transform="translate(339.990234 0.015625)"/>
      <use xlink:href="#DejaVuSans-65" transform="translate(397.900391 0.015625)"/>
      <use xlink:href="#DejaVuSans-6c" transform="translate(459.423828 0.015625)"/>
      <use xlink:href="#DejaVuSans-69" transform="translate(487.207031 0.015625)"/>
      <use xlink:href="#DejaVuSans-68" transform="translate(514.990234 0.015625)"/>
      <use xlink:href="#DejaVuSans-6f" transform="translate(578.369141 0.015625)"/>
      <use xlink:href="#DejaVuSans-6f" transform="translate(639.550781 0.015625)"/>
      <use xlink:href="#DejaVuSans-64" transform="translate(700.732422 0.015625)"/>
     </g>
    </g>
    <g id="text_24">
     <!-- $\times\mathdefault{10^{3}}\mathdefault{}$ -->
     <g transform="translate(208.036 22.92) scale(0.1 -0.1)">
      <defs>
       <path id="DejaVuSans-d7" d="M 4488 3438 
L 3059 2003 
L 4488 575 
L 4116 197 
L 2681 1631 
L 1247 197 
L 878 575 
L 2303 2003 
L 878 3438 
L 1247 3816 
L 2681 2381 
L 4116 3816 
L 4488 3438 
z
" transform="scale(0.015625)"/>
      </defs>
      <use xlink:href="#DejaVuSans-d7" transform="translate(0 0.765625)"/>
      <use xlink:href="#DejaVuSans-31" transform="translate(83.789062 0.765625)"/>
      <use xlink:href="#DejaVuSans-30" transform="translate(147.412109 0.765625)"/>
      <use xlink:href="#DejaVuSans-33" transform="translate(211.992188 39.046875) scale(0.7)"/>
     </g>
    </g>
   </g>
   <g id="LineCollection_1"/>
   <g id="patch_8">
    <path d="M 225.72 192.24 
L 229.878 192.24 
L 234.036 192.24 
L 234.036 25.92 
L 229.878 25.92 
L 225.72 25.92 
L 225.72 192.24 
z
" style="fill: none; stroke: #000000; stroke-width: 0.8; stroke-linejoin: miter; stroke-linecap: square"/>
   </g>
  </g>
 </g>
 <defs>
  <clipPath id="p75ac0b5cd6">
   <rect x="36" y="25.92" width="178.56" height="166.32"/>
  </clipPath>
  <clipPath id="p216e9e8246">
   <rect x="225.72" y="25.92" width="8.316" height="166.32"/>
  </clipPath>
 </defs>
</svg>
