<?xml version="1.0" encoding="utf-8" standalone="no"?>
<!DOCTYPE svg PUBLIC "-//W3C//DTD SVG 1.1//EN"
  "http://www.w3.org/Graphics/SVG/1.1/DTD/svg11.dtd">
<svg xmlns:xlink="http://www.w3.org/1999/xlink" width="288pt" height="216pt" viewBox="0 0 288 216" xmlns="http://www.w3.org/2000/svg" version="1.1">
 <metadata>
  <rdf:RDF xmlns:dc="http://purl.org/dc/elements/1.1/" xmlns:cc="http://creativecommons.org/ns#" xmlns:rdf="http://www.w3.org/1999/02/22-rdf-syntax-ns#">
   <cc:Work>
    <dc:type rdf:resource="http://purl.org/dc/dcmitype/StillImage"/>
    <dc:date>2024-12-12T06:19:14.381121</dc:date>
    <dc:format>image/svg+xml</dc:format>
    <dc:creator>
     <cc:Agent>
      <dc:title>Matplotlib v3.8.4, https://matplotlib.org/</dc:title>
     </cc:Agent>
    </dc:creator>
   </cc:Work>
  </rdf:RDF>
 </metadata>
 <defs>
  <style type="text/css">*{stroke-linejoin: round; stroke-linecap: butt}</style>
 </defs>
 <g id="figure_1">
  <g id="patch_1">
   <path d="M 0 216 
L 288 216 
L 288 0 
L 0 0 
z
" style="fill: #ffffff"/>
  </g>
  <g id="axes_1">
   <g id="patch_2">
    <path d="M 36 192.24 
L 214.56 192.24 
L 214.56 25.92 
L 36 25.92 
z
" style="fill: #ffffff"/>
   </g>
   <g id="QuadContourSet_1">
    <path d="M 64.397796 120.168 
L 61.868174 114.624 
L 60.782952 109.08 
L 61.454033 103.536 
L 64.353069 97.992 
L 65.76 96.532359 
L 71.712 97.348596 
L 72.620338 97.992 
L 77.664 102.618563 
L 78.387748 103.536 
L 81.089867 109.08 
L 81.820262 114.624 
L 79.705722 120.168 
L 77.664 122.112833 
L 71.712 124.275753 
L 65.76 122.077455 
z
" clip-path="url(#pa74b6d045b)" style="fill: #e7e419"/>
    <path d="M 58.669047 114.624 
L 58.149044 109.08 
L 58.283036 103.536 
L 59.10606 97.992 
L 59.808 95.435517 
L 62.644549 92.448 
L 65.76 90.319588 
L 71.712 91.449938 
L 73.342985 92.448 
L 77.664 95.594297 
L 80.141407 97.992 
L 83.616 102.275261 
L 84.523683 103.536 
L 87.134559 109.08 
L 88.162462 114.624 
L 87.082867 120.168 
L 83.616 125.128773 
L 83.005505 125.712 
L 77.664 128.534017 
L 71.712 129.474026 
L 65.76 127.593019 
L 63.930402 125.712 
L 59.83019 120.168 
L 59.808 120.12232 
z
M 65.76 122.077455 
L 71.712 124.275753 
L 77.664 122.112833 
L 79.705722 120.168 
L 81.820262 114.624 
L 81.089867 109.08 
L 78.387748 103.536 
L 77.664 102.618563 
L 72.620338 97.992 
L 71.712 97.348596 
L 65.76 96.532359 
L 64.353069 97.992 
L 61.454033 103.536 
L 60.782952 109.08 
L 61.868174 114.624 
L 64.397796 120.168 
z
" clip-path="url(#pa74b6d045b)" style="fill: #b8de29"/>
    <path d="M 59.761041 125.712 
L 57.938351 120.168 
L 56.721242 114.624 
L 56.126946 109.08 
L 56.180751 103.536 
L 56.916966 97.992 
L 58.38024 92.448 
L 59.808 88.869245 
L 62.800667 86.904 
L 65.76 85.488052 
L 71.712 86.736021 
L 72.012893 86.904 
L 77.664 90.487484 
L 80.065859 92.448 
L 83.616 95.874197 
L 85.590092 97.992 
L 89.568 103.358783 
L 89.694076 103.536 
L 92.33672 109.08 
L 93.562878 114.624 
L 92.975217 120.168 
L 90.054295 125.712 
L 89.568 126.195615 
L 83.616 130.840241 
L 82.778628 131.256 
L 77.664 132.933415 
L 71.712 133.381381 
L 65.76 131.767211 
L 65.136727 131.256 
L 59.808 125.816153 
z
M 59.808 120.12232 
L 59.83019 120.168 
L 63.930402 125.712 
L 65.76 127.593019 
L 71.712 129.474026 
L 77.664 128.534017 
L 83.005505 125.712 
L 83.616 125.128773 
L 87.082867 120.168 
L 88.162462 114.624 
L 87.134559 109.08 
L 84.523683 103.536 
L 83.616 102.275261 
L 80.141407 97.992 
L 77.664 95.594297 
L 73.342985 92.448 
L 71.712 91.449938 
L 65.76 90.319588 
L 62.644549 92.448 
L 59.808 95.435517 
L 59.10606 97.992 
L 58.283036 103.536 
L 58.149044 109.08 
L 58.669047 114.624 
z
" clip-path="url(#pa74b6d045b)" style="fill: #89d548"/>
    <path d="M 57.946568 125.712 
L 56.059575 120.168 
L 54.773438 114.624 
L 54.104847 109.08 
L 54.078465 103.536 
L 54.727872 97.992 
L 56.096859 92.448 
L 58.241178 86.904 
L 59.808 83.934921 
L 65.656355 81.36 
L 65.76 81.324417 
L 65.913511 81.36 
L 71.712 82.843734 
L 77.664 86.209028 
L 78.620662 86.904 
L 83.616 91.015911 
L 85.199719 92.448 
L 89.568 97.094321 
L 90.383441 97.992 
L 94.37083 103.536 
L 95.52 105.801991 
L 97.171197 109.08 
L 98.576129 114.624 
L 98.311288 120.168 
L 95.951686 125.712 
L 95.52 126.217027 
L 90.477876 131.256 
L 89.568 131.83048 
L 83.616 134.782496 
L 77.664 136.550712 
L 71.817244 136.8 
L 71.712 136.803281 
L 71.698762 136.8 
L 65.76 135.000621 
L 61.194521 131.256 
L 59.808 129.840566 
z
M 59.808 125.816153 
L 65.136727 131.256 
L 65.76 131.767211 
L 71.712 133.381381 
L 77.664 132.933415 
L 82.778628 131.256 
L 83.616 130.840241 
L 89.568 126.195615 
L 90.054295 125.712 
L 92.975217 120.168 
L 93.562878 114.624 
L 92.33672 109.08 
L 89.694076 103.536 
L 89.568 103.358783 
L 85.590092 97.992 
L 83.616 95.874197 
L 80.065859 92.448 
L 77.664 90.487484 
L 72.012893 86.904 
L 71.712 86.736021 
L 65.76 85.488052 
L 62.800667 86.904 
L 59.808 88.869245 
L 58.38024 92.448 
L 56.916966 97.992 
L 56.180751 103.536 
L 56.126946 109.08 
L 56.721242 114.624 
L 57.938351 120.168 
L 59.761041 125.712 
z
" clip-path="url(#pa74b6d045b)" style="fill: #5cc863"/>
    <path d="M 53.390021 114.624 
L 53.069398 109.08 
L 53.038998 103.536 
L 53.295784 97.992 
L 53.838327 92.448 
L 53.856 92.327445 
L 55.855023 86.904 
L 58.732245 81.36 
L 59.808 79.735167 
L 65.76 77.79856 
L 71.712 79.302384 
L 75.627065 81.36 
L 77.664 82.540943 
L 83.616 86.866769 
L 83.662485 86.904 
L 89.568 92.25248 
L 89.777836 92.448 
L 94.824518 97.992 
L 95.52 98.945144 
L 98.861431 103.536 
L 101.472 108.460406 
L 101.805808 109.08 
L 103.38714 114.624 
L 103.373973 120.168 
L 101.472 125.502642 
L 101.389684 125.712 
L 96.719 131.256 
L 95.52 132.134813 
L 89.568 135.849773 
L 87.579802 136.8 
L 83.616 138.154578 
L 77.664 139.369446 
L 71.712 139.448285 
L 65.76 137.922258 
L 64.12364 136.8 
L 59.808 133.233 
L 58.670627 131.256 
L 56.132095 125.712 
L 54.180799 120.168 
L 53.856 118.802449 
z
M 59.808 129.840566 
L 61.194521 131.256 
L 65.76 135.000621 
L 71.698762 136.8 
L 71.712 136.803281 
L 71.817244 136.8 
L 77.664 136.550712 
L 83.616 134.782496 
L 89.568 131.83048 
L 90.477876 131.256 
L 95.52 126.217027 
L 95.951686 125.712 
L 98.311288 120.168 
L 98.576129 114.624 
L 97.171197 109.08 
L 95.52 105.801991 
L 94.37083 103.536 
L 90.383441 97.992 
L 89.568 97.094321 
L 85.199719 92.448 
L 83.616 91.015911 
L 78.620662 86.904 
L 77.664 86.209028 
L 71.712 82.843734 
L 65.913511 81.36 
L 65.76 81.324417 
L 65.656355 81.36 
L 59.808 83.934921 
L 58.241178 86.904 
L 56.096859 92.448 
L 54.727872 97.992 
L 54.078465 103.536 
L 54.104847 109.08 
L 54.773438 114.624 
L 56.059575 120.168 
L 57.946568 125.712 
z
" clip-path="url(#pa74b6d045b)" style="fill: #3aba76"/>
    <path d="M 53.140247 120.168 
L 52.509134 114.624 
L 52.17241 109.08 
L 52.125308 103.536 
L 52.364759 97.992 
L 52.889297 92.448 
L 53.698992 86.904 
L 53.856 86.096451 
L 56.233629 81.36 
L 59.808 75.961226 
L 60.288984 75.816 
L 65.76 74.469355 
L 71.118444 75.816 
L 71.712 75.977221 
L 77.664 79.217261 
L 80.87036 81.36 
L 83.616 83.382841 
L 88.012334 86.904 
L 89.568 88.312928 
L 94.00585 92.448 
L 95.52 94.100435 
L 99.090741 97.992 
L 101.472 101.196244 
L 103.243896 103.536 
L 106.307837 109.08 
L 107.424 112.601976 
L 108.082765 114.624 
L 108.286689 120.168 
L 107.424 123.053334 
L 106.571497 125.712 
L 102.429604 131.256 
L 101.472 132.035491 
L 95.52 136.361037 
L 94.807322 136.8 
L 89.568 139.081272 
L 83.616 141.028494 
L 77.664 142.129073 
L 71.712 142.09329 
L 65.76 140.452691 
L 60.434026 136.8 
L 59.808 136.282571 
L 56.916201 131.256 
L 54.317622 125.712 
L 53.856 124.407874 
z
M 53.856 118.802449 
L 54.180799 120.168 
L 56.132095 125.712 
L 58.670627 131.256 
L 59.808 133.233 
L 64.12364 136.8 
L 65.76 137.922258 
L 71.712 139.448285 
L 77.664 139.369446 
L 83.616 138.154578 
L 87.579802 136.8 
L 89.568 135.849773 
L 95.52 132.134813 
L 96.719 131.256 
L 101.389684 125.712 
L 101.472 125.502642 
L 103.373973 120.168 
L 103.38714 114.624 
L 101.805808 109.08 
L 101.472 108.460406 
L 98.861431 103.536 
L 95.52 98.945144 
L 94.824518 97.992 
L 89.777836 92.448 
L 89.568 92.25248 
L 83.662485 86.904 
L 83.616 86.866769 
L 77.664 82.540943 
L 75.627065 81.36 
L 71.712 79.302384 
L 65.76 77.79856 
L 59.808 79.735167 
L 58.732245 81.36 
L 55.855023 86.904 
L 53.856 92.327445 
L 53.838327 92.448 
L 53.295784 97.992 
L 53.038998 103.536 
L 53.069398 109.08 
L 53.390021 114.624 
z
" clip-path="url(#pa74b6d045b)" style="fill: #24aa83"/>
    <path d="M 53.221983 125.712 
L 52.274894 120.168 
L 51.628247 114.624 
L 51.275421 109.08 
L 51.211618 103.536 
L 51.433734 97.992 
L 51.940267 92.448 
L 52.731247 86.904 
L 53.808197 81.36 
L 53.856 81.162136 
L 57.286701 75.816 
L 59.808 72.677804 
L 65.76 71.392775 
L 71.712 73.035047 
L 77.22217 75.816 
L 77.664 76.057109 
L 83.616 80.092422 
L 85.347367 81.36 
L 89.568 84.764723 
L 92.159587 86.904 
L 95.52 90.035095 
L 98.122293 92.448 
L 101.472 96.07253 
L 103.284189 97.992 
L 107.424 103.368663 
L 107.556967 103.536 
L 110.766346 109.08 
L 112.710953 114.624 
L 113.114803 120.168 
L 111.639286 125.712 
L 107.866339 131.256 
L 107.424 131.645291 
L 101.472 136.472308 
L 101.018801 136.8 
L 95.52 139.578397 
L 89.568 142.068859 
L 88.703896 142.344 
L 83.616 143.573083 
L 77.664 144.367955 
L 71.712 144.264654 
L 65.76 142.861123 
L 64.884212 142.344 
L 59.808 138.806429 
L 58.397917 136.8 
L 55.161775 131.256 
L 53.856 128.486444 
z
M 53.856 124.407874 
L 54.317622 125.712 
L 56.916201 131.256 
L 59.808 136.282571 
L 60.434026 136.8 
L 65.76 140.452691 
L 71.712 142.09329 
L 77.664 142.129073 
L 83.616 141.028494 
L 89.568 139.081272 
L 94.807322 136.8 
L 95.52 136.361037 
L 101.472 132.035491 
L 102.429604 131.256 
L 106.571497 125.712 
L 107.424 123.053334 
L 108.286689 120.168 
L 108.082765 114.624 
L 107.424 112.601976 
L 106.307837 109.08 
L 103.243896 103.536 
L 101.472 101.196244 
L 99.090741 97.992 
L 95.52 94.100435 
L 94.00585 92.448 
L 89.568 88.312928 
L 88.012334 86.904 
L 83.616 83.382841 
L 80.87036 81.36 
L 77.664 79.217261 
L 71.712 75.977221 
L 71.118444 75.816 
L 65.76 74.469355 
L 60.288984 75.816 
L 59.808 75.961226 
L 56.233629 81.36 
L 53.856 86.096451 
L 53.698992 86.904 
L 52.889297 92.448 
L 52.364759 97.992 
L 52.125308 103.536 
L 52.17241 109.08 
L 52.509134 114.624 
L 53.140247 120.168 
z
" clip-path="url(#pa74b6d045b)" style="fill: #1f998a"/>
    <path d="M 53.583522 131.256 
L 52.371625 125.712 
L 51.409541 120.168 
L 50.74736 114.624 
L 50.378432 109.08 
L 50.297928 103.536 
L 50.50271 97.992 
L 50.991237 92.448 
L 51.763501 86.904 
L 52.820983 81.36 
L 53.856 77.075899 
L 54.664497 75.816 
L 59.082804 70.272 
L 59.808 69.51135 
L 65.76 68.526721 
L 71.712 70.128799 
L 72.003556 70.272 
L 77.664 73.234797 
L 81.771305 75.816 
L 83.616 77.069914 
L 89.475769 81.36 
L 89.568 81.434402 
L 95.52 86.36929 
L 96.169784 86.904 
L 101.472 91.821243 
L 102.163986 92.448 
L 107.424 97.990152 
L 107.425813 97.992 
L 111.831177 103.536 
L 113.376 106.124105 
L 115.208596 109.08 
L 117.323051 114.624 
L 117.909495 120.168 
L 116.649482 125.712 
L 113.376 130.91806 
L 113.151022 131.256 
L 107.424 136.296208 
L 106.800753 136.8 
L 101.472 139.775031 
L 96.228116 142.344 
L 95.52 142.603743 
L 89.568 144.465511 
L 83.616 145.839675 
L 77.664 146.562856 
L 71.712 146.386422 
L 65.76 144.908529 
L 61.41677 142.344 
L 59.808 141.222861 
L 56.699691 136.8 
L 53.856 131.990491 
z
M 53.856 128.486444 
L 55.161775 131.256 
L 58.397917 136.8 
L 59.808 138.806429 
L 64.884212 142.344 
L 65.76 142.861123 
L 71.712 144.264654 
L 77.664 144.367955 
L 83.616 143.573083 
L 88.703896 142.344 
L 89.568 142.068859 
L 95.52 139.578397 
L 101.018801 136.8 
L 101.472 136.472308 
L 107.424 131.645291 
L 107.866339 131.256 
L 111.639286 125.712 
L 113.114803 120.168 
L 112.710953 114.624 
L 110.766346 109.08 
L 107.556967 103.536 
L 107.424 103.368663 
L 103.284189 97.992 
L 101.472 96.07253 
L 98.122293 92.448 
L 95.52 90.035095 
L 92.159587 86.904 
L 89.568 84.764723 
L 85.347367 81.36 
L 83.616 80.092422 
L 77.664 76.057109 
L 77.22217 75.816 
L 71.712 73.035047 
L 65.76 71.392775 
L 59.808 72.677804 
L 57.286701 75.816 
L 53.856 81.162136 
L 53.808197 81.36 
L 52.731247 86.904 
L 51.940267 92.448 
L 51.433734 97.992 
L 51.211618 103.536 
L 51.275421 109.08 
L 51.628247 114.624 
L 52.274894 120.168 
L 53.221983 125.712 
z
" clip-path="url(#pa74b6d045b)" style="fill: #24878e"/>
    <path d="M 52.518011 131.256 
L 51.521267 125.712 
L 50.544187 120.168 
L 49.866473 114.624 
L 49.481444 109.08 
L 49.384239 103.536 
L 49.571685 97.992 
L 50.042207 92.448 
L 50.795755 86.904 
L 51.833769 81.36 
L 53.03624 75.816 
L 53.856 73.398757 
L 56.32415 70.272 
L 59.808 66.617832 
L 65.76 65.78131 
L 71.712 67.50662 
L 77.342289 70.272 
L 77.664 70.44039 
L 83.616 74.244173 
L 85.914675 75.816 
L 89.568 78.51871 
L 93.33966 81.36 
L 95.52 83.168814 
L 100.059031 86.904 
L 101.472 88.214379 
L 106.146229 92.448 
L 107.424 93.794308 
L 111.542592 97.992 
L 113.376 100.269861 
L 116.110195 103.536 
L 119.328 108.594624 
L 119.650358 109.08 
L 121.944211 114.624 
L 122.708632 120.168 
L 121.638641 125.712 
L 119.328 129.670303 
L 118.361428 131.256 
L 113.376 135.917153 
L 112.370104 136.8 
L 107.424 139.763081 
L 102.692122 142.344 
L 101.472 142.83905 
L 95.52 145.008919 
L 89.568 146.802222 
L 84.637754 147.888 
L 83.616 148.065436 
L 77.664 148.599261 
L 71.712 148.398272 
L 69.384686 147.888 
L 65.76 146.955934 
L 59.808 143.401129 
L 58.925946 142.344 
L 55.001466 136.8 
L 53.856 134.862684 
z
M 53.856 131.990491 
L 56.699691 136.8 
L 59.808 141.222861 
L 61.41677 142.344 
L 65.76 144.908529 
L 71.712 146.386422 
L 77.664 146.562856 
L 83.616 145.839675 
L 89.568 144.465511 
L 95.52 142.603743 
L 96.228116 142.344 
L 101.472 139.775031 
L 106.800753 136.8 
L 107.424 136.296208 
L 113.151022 131.256 
L 113.376 130.91806 
L 116.649482 125.712 
L 117.909495 120.168 
L 117.323051 114.624 
L 115.208596 109.08 
L 113.376 106.124105 
L 111.831177 103.536 
L 107.425813 97.992 
L 107.424 97.990152 
L 102.163986 92.448 
L 101.472 91.821243 
L 96.169784 86.904 
L 95.52 86.36929 
L 89.568 81.434402 
L 89.475769 81.36 
L 83.616 77.069914 
L 81.771305 75.816 
L 77.664 73.234797 
L 72.003556 70.272 
L 71.712 70.128799 
L 65.76 68.526721 
L 59.808 69.51135 
L 59.082804 70.272 
L 54.664497 75.816 
L 53.856 77.075899 
L 52.820983 81.36 
L 51.763501 86.904 
L 50.991237 92.448 
L 50.50271 97.992 
L 50.297928 103.536 
L 50.378432 109.08 
L 50.74736 114.624 
L 51.409541 120.168 
L 52.371625 125.712 
L 53.583522 131.256 
z
" clip-path="url(#pa74b6d045b)" style="fill: #2a768e"/>
    <path d="M 53.326069 136.8 
L 51.452499 131.256 
L 50.670909 125.712 
L 49.678834 120.168 
L 48.985586 114.624 
L 48.584455 109.08 
L 48.470549 103.536 
L 48.64066 97.992 
L 49.093177 92.448 
L 49.82801 86.904 
L 50.846554 81.36 
L 51.851054 75.816 
L 53.673564 70.272 
L 53.856 69.948329 
L 58.798569 64.728 
L 59.808 63.821782 
L 65.76 63.192586 
L 71.186705 64.728 
L 71.712 64.88444 
L 77.664 67.905287 
L 81.60726 70.272 
L 83.616 71.557938 
L 89.568 75.634358 
L 89.826814 75.816 
L 95.52 80.139501 
L 97.145044 81.36 
L 101.472 84.936966 
L 103.913526 86.904 
L 107.424 90.086822 
L 110.120519 92.448 
L 113.376 95.754937 
L 115.669354 97.992 
L 119.328 102.32048 
L 120.401781 103.536 
L 124.120819 109.08 
L 125.28 111.747763 
L 126.587979 114.624 
L 127.528915 120.168 
L 126.63324 125.712 
L 125.28 128.192063 
L 123.551515 131.256 
L 119.328 135.400524 
L 117.831417 136.8 
L 113.376 139.610127 
L 108.727462 142.344 
L 107.424 142.910579 
L 101.472 145.311 
L 95.52 147.414096 
L 93.918698 147.888 
L 89.568 148.899071 
L 83.616 149.90802 
L 77.664 150.394185 
L 71.712 150.14399 
L 65.76 148.811399 
L 63.978367 147.888 
L 59.808 145.373255 
L 57.280432 142.344 
L 53.856 137.549837 
z
M 53.856 134.862684 
L 55.001466 136.8 
L 58.925946 142.344 
L 59.808 143.401129 
L 65.76 146.955934 
L 69.384686 147.888 
L 71.712 148.398272 
L 77.664 148.599261 
L 83.616 148.065436 
L 84.637754 147.888 
L 89.568 146.802222 
L 95.52 145.008919 
L 101.472 142.83905 
L 102.692122 142.344 
L 107.424 139.763081 
L 112.370104 136.8 
L 113.376 135.917153 
L 118.361428 131.256 
L 119.328 129.670303 
L 121.638641 125.712 
L 122.708632 120.168 
L 121.944211 114.624 
L 119.650358 109.08 
L 119.328 108.594624 
L 116.110195 103.536 
L 113.376 100.269861 
L 111.542592 97.992 
L 107.424 93.794308 
L 106.146229 92.448 
L 101.472 88.214379 
L 100.059031 86.904 
L 95.52 83.168814 
L 93.33966 81.36 
L 89.568 78.51871 
L 85.914675 75.816 
L 83.616 74.244173 
L 77.664 70.44039 
L 77.342289 70.272 
L 71.712 67.50662 
L 65.76 65.78131 
L 59.808 66.617832 
L 56.32415 70.272 
L 53.856 73.398757 
L 53.03624 75.816 
L 51.833769 81.36 
L 50.795755 86.904 
L 50.042207 92.448 
L 49.571685 97.992 
L 49.384239 103.536 
L 49.481444 109.08 
L 49.866473 114.624 
L 50.544187 120.168 
L 51.521267 125.712 
L 52.518011 131.256 
z
" clip-path="url(#pa74b6d045b)" style="fill: #32658e"/>
    <path d="M 47.345304 109.08 
L 47.069629 103.536 
L 47.414627 97.992 
L 47.904 95.485793 
L 48.144147 92.448 
L 48.860264 86.904 
L 49.85934 81.36 
L 50.665868 75.816 
L 51.941132 70.272 
L 53.856 66.874707 
L 55.888486 64.728 
L 59.808 61.209253 
L 65.76 60.701397 
L 71.712 62.481248 
L 76.368591 64.728 
L 77.664 65.386811 
L 83.616 69.005132 
L 85.569206 70.272 
L 89.568 73.040373 
L 93.522865 75.816 
L 95.52 77.332658 
L 100.88224 81.36 
L 101.472 81.847537 
L 107.424 86.650925 
L 107.748162 86.904 
L 113.376 91.842108 
L 114.095921 92.448 
L 119.328 97.543668 
L 119.809559 97.992 
L 124.723145 103.536 
L 125.28 104.357568 
L 128.632722 109.08 
L 131.232 114.553366 
L 131.267181 114.624 
L 132.385075 120.168 
L 131.653974 125.712 
L 131.232 126.535511 
L 128.749534 131.256 
L 125.28 134.798434 
L 123.244837 136.8 
L 119.328 139.367208 
L 114.536241 142.344 
L 113.376 142.873326 
L 107.424 145.447598 
L 101.472 147.782951 
L 101.172827 147.888 
L 95.52 149.440238 
L 89.568 150.787727 
L 83.616 151.750604 
L 77.664 152.189109 
L 71.712 151.889709 
L 65.76 150.506463 
L 60.707862 147.888 
L 59.808 147.34538 
L 55.634918 142.344 
L 53.856 139.853537 
L 51.697979 136.8 
L 50.386988 131.256 
L 49.820551 125.712 
L 48.813481 120.168 
L 48.104699 114.624 
L 47.904 111.932121 
z
M 53.856 137.549837 
L 57.280432 142.344 
L 59.808 145.373255 
L 63.978367 147.888 
L 65.76 148.811399 
L 71.712 150.14399 
L 77.664 150.394185 
L 83.616 149.90802 
L 89.568 148.899071 
L 93.918698 147.888 
L 95.52 147.414096 
L 101.472 145.311 
L 107.424 142.910579 
L 108.727462 142.344 
L 113.376 139.610127 
L 117.831417 136.8 
L 119.328 135.400524 
L 123.551515 131.256 
L 125.28 128.192063 
L 126.63324 125.712 
L 127.528915 120.168 
L 126.587979 114.624 
L 125.28 111.747763 
L 124.120819 109.08 
L 120.401781 103.536 
L 119.328 102.32048 
L 115.669354 97.992 
L 113.376 95.754937 
L 110.120519 92.448 
L 107.424 90.086822 
L 103.913526 86.904 
L 101.472 84.936966 
L 97.145044 81.36 
L 95.52 80.139501 
L 89.826814 75.816 
L 89.568 75.634358 
L 83.616 71.557938 
L 81.60726 70.272 
L 77.664 67.905287 
L 71.712 64.88444 
L 71.186705 64.728 
L 65.76 63.192586 
L 59.808 63.821782 
L 58.798569 64.728 
L 53.856 69.948329 
L 53.673564 70.272 
L 51.851054 75.816 
L 50.846554 81.36 
L 49.82801 86.904 
L 49.093177 92.448 
L 48.64066 97.992 
L 48.470549 103.536 
L 48.584455 109.08 
L 48.985586 114.624 
L 49.678834 120.168 
L 50.670909 125.712 
L 51.452499 131.256 
L 53.326069 136.8 
z
" clip-path="url(#pa74b6d045b)" style="fill: #3b528b"/>
    <path d="M 45.71806 114.624 
L 45.030904 109.08 
L 44.873528 103.536 
L 45.070479 97.992 
L 45.763759 92.448 
L 47.851387 86.904 
L 47.904 86.837729 
L 48.872126 81.36 
L 49.480682 75.816 
L 50.208699 70.272 
L 52.756083 64.728 
L 53.856 63.703481 
L 58.947638 59.184 
L 59.808 58.382614 
L 65.76 57.924941 
L 68.778028 59.184 
L 71.712 60.09195 
L 77.664 62.749138 
L 80.59724 64.728 
L 83.616 66.574857 
L 89.316105 70.272 
L 89.568 70.446387 
L 95.52 74.392333 
L 97.173196 75.816 
L 101.472 79.068341 
L 104.586118 81.36 
L 107.424 83.65745 
L 111.582481 86.904 
L 113.376 88.477711 
L 118.093493 92.448 
L 119.328 93.65032 
L 123.99145 97.992 
L 125.28 99.440573 
L 129.098837 103.536 
L 131.232 106.492898 
L 133.190756 109.08 
L 136.01449 114.624 
L 137.184 119.725978 
L 137.290337 120.168 
L 137.184 121.224766 
L 136.724471 125.712 
L 133.977123 131.256 
L 131.232 134.153488 
L 128.649639 136.8 
L 125.28 139.073726 
L 120.22615 142.344 
L 119.328 142.93693 
L 113.376 145.473715 
L 107.658521 147.888 
L 107.424 148.042289 
L 101.472 150.208279 
L 95.52 151.373371 
L 89.568 152.676382 
L 84.68392 153.432 
L 83.616 153.774068 
L 77.664 154.473024 
L 71.712 153.878512 
L 70.888702 153.432 
L 65.76 152.201528 
L 59.808 149.843351 
L 57.708749 147.888 
L 53.989404 142.344 
L 53.856 142.157236 
L 50.069889 136.8 
L 49.321476 131.256 
L 48.970193 125.712 
L 47.948128 120.168 
L 47.904 119.824553 
z
M 47.904 111.932121 
L 48.104699 114.624 
L 48.813481 120.168 
L 49.820551 125.712 
L 50.386988 131.256 
L 51.697979 136.8 
L 53.856 139.853537 
L 55.634918 142.344 
L 59.808 147.34538 
L 60.707862 147.888 
L 65.76 150.506463 
L 71.712 151.889709 
L 77.664 152.189109 
L 83.616 151.750604 
L 89.568 150.787727 
L 95.52 149.440238 
L 101.172827 147.888 
L 101.472 147.782951 
L 107.424 145.447598 
L 113.376 142.873326 
L 114.536241 142.344 
L 119.328 139.367208 
L 123.244837 136.8 
L 125.28 134.798434 
L 128.749534 131.256 
L 131.232 126.535511 
L 131.653974 125.712 
L 132.385075 120.168 
L 131.267181 114.624 
L 131.232 114.553366 
L 128.632722 109.08 
L 125.28 104.357568 
L 124.723145 103.536 
L 119.809559 97.992 
L 119.328 97.543668 
L 114.095921 92.448 
L 113.376 91.842108 
L 107.748162 86.904 
L 107.424 86.650925 
L 101.472 81.847537 
L 100.88224 81.36 
L 95.52 77.332658 
L 93.522865 75.816 
L 89.568 73.040373 
L 85.569206 70.272 
L 83.616 69.005132 
L 77.664 65.386811 
L 76.368591 64.728 
L 71.712 62.481248 
L 65.76 60.701397 
L 59.808 61.209253 
L 55.888486 64.728 
L 53.856 66.874707 
L 51.941132 70.272 
L 50.665868 75.816 
L 49.85934 81.36 
L 48.860264 86.904 
L 48.144147 92.448 
L 47.904 95.485793 
L 47.414627 97.992 
L 47.069629 103.536 
L 47.345304 109.08 
z
" clip-path="url(#pa74b6d045b)" style="fill: #433d84"/>
    <path d="M 43.488814 120.168 
L 42.887128 114.624 
L 42.716504 109.08 
L 42.677427 103.536 
L 42.726331 97.992 
L 42.898475 92.448 
L 43.416841 86.904 
L 47.574864 81.36 
L 47.904 81.053426 
L 48.295496 75.816 
L 48.476266 70.272 
L 49.108791 64.728 
L 53.856 60.306205 
L 55.120274 59.184 
L 59.808 54.81761 
L 65.76 54.703968 
L 71.712 55.567062 
L 75.595119 59.184 
L 77.664 60.069238 
L 83.616 62.394663 
L 86.121055 64.728 
L 89.568 66.177866 
L 93.963434 70.272 
L 95.52 71.295095 
L 100.769782 75.816 
L 101.472 76.347277 
L 107.424 79.069721 
L 109.882827 81.36 
L 113.376 83.483097 
L 117.048658 86.904 
L 119.328 88.696758 
L 123.355308 92.448 
L 125.28 94.239551 
L 129.308603 97.992 
L 131.232 100.162544 
L 134.853719 103.536 
L 137.184 107.496827 
L 138.883683 109.08 
L 141.322214 114.624 
L 142.272572 120.168 
L 141.861032 125.712 
L 140.403018 131.256 
L 137.184 134.254359 
L 134.878165 136.8 
L 131.232 140.196227 
L 126.700327 142.344 
L 125.28 143.666966 
L 119.328 146.65863 
L 114.435909 147.888 
L 113.376 148.875254 
L 107.424 152.093713 
L 101.472 152.631537 
L 95.52 153.306504 
L 94.938814 153.432 
L 89.568 157.007351 
L 83.616 157.68434 
L 77.664 157.857893 
L 71.712 157.710274 
L 65.76 155.946068 
L 63.060914 153.432 
L 59.808 152.540924 
L 54.812653 147.888 
L 53.856 146.422068 
L 49.477815 142.344 
L 48.441799 136.8 
L 48.255965 131.256 
L 48.119835 125.712 
L 47.904 124.542117 
z
M 47.904 119.824553 
L 47.948128 120.168 
L 48.970193 125.712 
L 49.321476 131.256 
L 50.069889 136.8 
L 53.856 142.157236 
L 53.989404 142.344 
L 57.708749 147.888 
L 59.808 149.843351 
L 65.76 152.201528 
L 70.888702 153.432 
L 71.712 153.878512 
L 77.664 154.473024 
L 83.616 153.774068 
L 84.68392 153.432 
L 89.568 152.676382 
L 95.52 151.373371 
L 101.472 150.208279 
L 107.424 148.042289 
L 107.658521 147.888 
L 113.376 145.473715 
L 119.328 142.93693 
L 120.22615 142.344 
L 125.28 139.073726 
L 128.649639 136.8 
L 131.232 134.153488 
L 133.977123 131.256 
L 136.724471 125.712 
L 137.184 121.224766 
L 137.290337 120.168 
L 137.184 119.725978 
L 136.01449 114.624 
L 133.190756 109.08 
L 131.232 106.492898 
L 129.098837 103.536 
L 125.28 99.440573 
L 123.99145 97.992 
L 119.328 93.65032 
L 118.093493 92.448 
L 113.376 88.477711 
L 111.582481 86.904 
L 107.424 83.65745 
L 104.586118 81.36 
L 101.472 79.068341 
L 97.173196 75.816 
L 95.52 74.392333 
L 89.568 70.446387 
L 89.316105 70.272 
L 83.616 66.574857 
L 80.59724 64.728 
L 77.664 62.749138 
L 71.712 60.09195 
L 68.778028 59.184 
L 65.76 57.924941 
L 59.808 58.382614 
L 58.947638 59.184 
L 53.856 63.703481 
L 52.756083 64.728 
L 50.208699 70.272 
L 49.480682 75.816 
L 48.872126 81.36 
L 47.904 86.837729 
L 47.851387 86.904 
L 45.763759 92.448 
L 45.070479 97.992 
L 44.873528 103.536 
L 45.030904 109.08 
L 45.71806 114.624 
z
" clip-path="url(#pa74b6d045b)" style="fill: #482677"/>
    <path d="M 36 186.696 
L 36 181.152 
L 36 175.608 
L 36 170.064 
L 36 164.52 
L 36 158.976 
L 36 153.432 
L 36 147.888 
L 36 142.344 
L 36 136.8 
L 36 131.256 
L 36 125.712 
L 36 120.168 
L 36 114.624 
L 36 109.08 
L 36 103.536 
L 36 97.992 
L 36 92.448 
L 36 86.904 
L 36 81.36 
L 36 75.816 
L 36 70.272 
L 36 64.728 
L 36 59.184 
L 36 53.64 
L 36 48.096 
L 36 42.552 
L 36 37.008 
L 36 31.464 
L 36 25.92 
L 41.952 25.92 
L 47.904 25.92 
L 53.856 25.92 
L 59.808 25.92 
L 65.76 25.92 
L 71.712 25.92 
L 77.664 25.92 
L 83.616 25.92 
L 89.568 25.92 
L 95.52 25.92 
L 101.472 25.92 
L 107.424 25.92 
L 113.376 25.92 
L 119.328 25.92 
L 125.28 25.92 
L 131.232 25.92 
L 137.184 25.92 
L 143.136 25.92 
L 149.088 25.92 
L 155.04 25.92 
L 160.992 25.92 
L 166.944 25.92 
L 172.896 25.92 
L 178.848 25.92 
L 184.8 25.92 
L 190.752 25.92 
L 196.704 25.92 
L 202.656 25.92 
L 208.608 25.92 
L 214.56 25.92 
L 214.56 31.464 
L 214.56 37.008 
L 214.56 42.552 
L 214.56 48.096 
L 214.56 53.64 
L 214.56 59.184 
L 214.56 64.728 
L 214.56 70.272 
L 214.56 75.816 
L 214.56 81.36 
L 214.56 86.904 
L 214.56 92.448 
L 214.56 97.992 
L 214.56 103.536 
L 214.56 109.08 
L 214.56 114.624 
L 214.56 120.168 
L 214.56 125.712 
L 214.56 131.256 
L 214.56 136.8 
L 214.56 142.344 
L 214.56 147.888 
L 214.56 153.432 
L 214.56 158.976 
L 214.56 164.52 
L 214.56 170.064 
L 214.56 175.608 
L 214.56 181.152 
L 214.56 186.696 
L 214.56 192.24 
L 208.608 192.24 
L 202.656 192.24 
L 196.704 192.24 
L 190.752 192.24 
L 184.8 192.24 
L 178.848 192.24 
L 172.896 192.24 
L 166.944 192.24 
L 160.992 192.24 
L 155.04 192.24 
L 149.088 192.24 
L 143.136 192.24 
L 137.184 192.24 
L 131.232 192.24 
L 125.28 192.24 
L 119.328 192.24 
L 113.376 192.24 
L 107.424 192.24 
L 101.472 192.24 
L 95.52 192.24 
L 89.568 192.24 
L 83.616 192.24 
L 77.664 192.24 
L 71.712 192.24 
L 65.76 192.24 
L 59.808 192.24 
L 53.856 192.24 
L 47.904 192.24 
L 41.952 192.24 
L 36 192.24 
z
M 47.904 124.542117 
L 48.119835 125.712 
L 48.255965 131.256 
L 48.441799 136.8 
L 49.477815 142.344 
L 53.856 146.422068 
L 54.812653 147.888 
L 59.808 152.540924 
L 63.060914 153.432 
L 65.76 155.946068 
L 71.712 157.710274 
L 77.664 157.857893 
L 83.616 157.68434 
L 89.568 157.007351 
L 94.938814 153.432 
L 95.52 153.306504 
L 101.472 152.631537 
L 107.424 152.093713 
L 113.376 148.875254 
L 114.435909 147.888 
L 119.328 146.65863 
L 125.28 143.666966 
L 126.700327 142.344 
L 131.232 140.196227 
L 134.878165 136.8 
L 137.184 134.254359 
L 140.403018 131.256 
L 141.861032 125.712 
L 142.272572 120.168 
L 141.322214 114.624 
L 138.883683 109.08 
L 137.184 107.496827 
L 134.853719 103.536 
L 131.232 100.162544 
L 129.308603 97.992 
L 125.28 94.239551 
L 123.355308 92.448 
L 119.328 88.696758 
L 117.048658 86.904 
L 113.376 83.483097 
L 109.882827 81.36 
L 107.424 79.069721 
L 101.472 76.347277 
L 100.769782 75.816 
L 95.52 71.295095 
L 93.963434 70.272 
L 89.568 66.177866 
L 86.121055 64.728 
L 83.616 62.394663 
L 77.664 60.069238 
L 75.595119 59.184 
L 71.712 55.567062 
L 65.76 54.703968 
L 59.808 54.81761 
L 55.120274 59.184 
L 53.856 60.306205 
L 49.108791 64.728 
L 48.476266 70.272 
L 48.295496 75.816 
L 47.904 81.053426 
L 47.574864 81.36 
L 43.416841 86.904 
L 42.898475 92.448 
L 42.726331 97.992 
L 42.677427 103.536 
L 42.716504 109.08 
L 42.887128 114.624 
L 43.488814 120.168 
z
" clip-path="url(#pa74b6d045b)" style="fill: #470e61"/>
   </g>
   <g id="PathCollection_1">
    <defs>
     <path id="m4e53a02d6d" d="M -4.743416 4.743416 
L 4.743416 -4.743416 
M -4.743416 -4.743416 
L 4.743416 4.743416 
" style="stroke: #ffffff; stroke-width: 5"/>
    </defs>
    <g clip-path="url(#pa74b6d045b)">
     <use xlink:href="#m4e53a02d6d" x="65.76" y="109.08" style="fill: #ffffff; stroke: #ffffff; stroke-width: 5"/>
    </g>
   </g>
   <g id="PathCollection_2">
    <defs>
     <path id="mdf210fa993" d="M -4.330127 4.330127 
L 4.330127 -4.330127 
M -4.330127 -4.330127 
L 4.330127 4.330127 
" style="stroke: #000000; stroke-width: 2"/>
    </defs>
    <g clip-path="url(#pa74b6d045b)">
     <use xlink:href="#mdf210fa993" x="65.76" y="109.08" style="stroke: #000000; stroke-width: 2"/>
    </g>
   </g>
   <g id="matplotlib.axis_1">
    <g id="xtick_1">
     <g id="line2d_1">
      <defs>
       <path id="ma799efb54a" d="M 0 0 
L 0 3.5 
" style="stroke: #000000; stroke-width: 0.8"/>
      </defs>
      <g>
       <use xlink:href="#ma799efb54a" x="65.76" y="192.24" style="stroke: #000000; stroke-width: 0.8"/>
      </g>
     </g>
     <g id="text_1">
      <!-- 200 -->
      <g transform="translate(54.3075 208.358125) scale(0.12 -0.12)">
       <defs>
        <path id="DejaVuSans-32" d="M 1228 531 
L 3431 531 
L 3431 0 
L 469 0 
L 469 531 
Q 828 903 1448 1529 
Q 2069 2156 2228 2338 
Q 2531 2678 2651 2914 
Q 2772 3150 2772 3378 
Q 2772 3750 2511 3984 
Q 2250 4219 1831 4219 
Q 1534 4219 1204 4116 
Q 875 4013 500 3803 
L 500 4441 
Q 881 4594 1212 4672 
Q 1544 4750 1819 4750 
Q 2544 4750 2975 4387 
Q 3406 4025 3406 3419 
Q 3406 3131 3298 2873 
Q 3191 2616 2906 2266 
Q 2828 2175 2409 1742 
Q 1991 1309 1228 531 
z
" transform="scale(0.015625)"/>
        <path id="DejaVuSans-30" d="M 2034 4250 
Q 1547 4250 1301 3770 
Q 1056 3291 1056 2328 
Q 1056 1369 1301 889 
Q 1547 409 2034 409 
Q 2525 409 2770 889 
Q 3016 1369 3016 2328 
Q 3016 3291 2770 3770 
Q 2525 4250 2034 4250 
z
M 2034 4750 
Q 2819 4750 3233 4129 
Q 3647 3509 3647 2328 
Q 3647 1150 3233 529 
Q 2819 -91 2034 -91 
Q 1250 -91 836 529 
Q 422 1150 422 2328 
Q 422 3509 836 4129 
Q 1250 4750 2034 4750 
z
" transform="scale(0.015625)"/>
       </defs>
       <use xlink:href="#DejaVuSans-32"/>
       <use xlink:href="#DejaVuSans-30" x="63.623047"/>
       <use xlink:href="#DejaVuSans-30" x="127.246094"/>
      </g>
     </g>
    </g>
    <g id="xtick_2">
     <g id="line2d_2">
      <g>
       <use xlink:href="#ma799efb54a" x="105.44" y="192.24" style="stroke: #000000; stroke-width: 0.8"/>
      </g>
     </g>
     <g id="text_2">
      <!-- 400 -->
      <g transform="translate(93.9875 208.358125) scale(0.12 -0.12)">
       <defs>
        <path id="DejaVuSans-34" d="M 2419 4116 
L 825 1625 
L 2419 1625 
L 2419 4116 
z
M 2253 4666 
L 3047 4666 
L 3047 1625 
L 3713 1625 
L 3713 1100 
L 3047 1100 
L 3047 0 
L 2419 0 
L 2419 1100 
L 313 1100 
L 313 1709 
L 2253 4666 
z
" transform="scale(0.015625)"/>
       </defs>
       <use xlink:href="#DejaVuSans-34"/>
       <use xlink:href="#DejaVuSans-30" x="63.623047"/>
       <use xlink:href="#DejaVuSans-30" x="127.246094"/>
      </g>
     </g>
    </g>
    <g id="xtick_3">
     <g id="line2d_3">
      <g>
       <use xlink:href="#ma799efb54a" x="145.12" y="192.24" style="stroke: #000000; stroke-width: 0.8"/>
      </g>
     </g>
     <g id="text_3">
      <!-- 600 -->
      <g transform="translate(133.6675 208.358125) scale(0.12 -0.12)">
       <defs>
        <path id="DejaVuSans-36" d="M 2113 2584 
Q 1688 2584 1439 2293 
Q 1191 2003 1191 1497 
Q 1191 994 1439 701 
Q 1688 409 2113 409 
Q 2538 409 2786 701 
Q 3034 994 3034 1497 
Q 3034 2003 2786 2293 
Q 2538 2584 2113 2584 
z
M 3366 4563 
L 3366 3988 
Q 3128 4100 2886 4159 
Q 2644 4219 2406 4219 
Q 1781 4219 1451 3797 
Q 1122 3375 1075 2522 
Q 1259 2794 1537 2939 
Q 1816 3084 2150 3084 
Q 2853 3084 3261 2657 
Q 3669 2231 3669 1497 
Q 3669 778 3244 343 
Q 2819 -91 2113 -91 
Q 1303 -91 875 529 
Q 447 1150 447 2328 
Q 447 3434 972 4092 
Q 1497 4750 2381 4750 
Q 2619 4750 2861 4703 
Q 3103 4656 3366 4563 
z
" transform="scale(0.015625)"/>
       </defs>
       <use xlink:href="#DejaVuSans-36"/>
       <use xlink:href="#DejaVuSans-30" x="63.623047"/>
       <use xlink:href="#DejaVuSans-30" x="127.246094"/>
      </g>
     </g>
    </g>
    <g id="xtick_4">
     <g id="line2d_4">
      <g>
       <use xlink:href="#ma799efb54a" x="184.8" y="192.24" style="stroke: #000000; stroke-width: 0.8"/>
      </g>
     </g>
     <g id="text_4">
      <!-- 800 -->
      <g transform="translate(173.3475 208.358125) scale(0.12 -0.12)">
       <defs>
        <path id="DejaVuSans-38" d="M 2034 2216 
Q 1584 2216 1326 1975 
Q 1069 1734 1069 1313 
Q 1069 891 1326 650 
Q 1584 409 2034 409 
Q 2484 409 2743 651 
Q 3003 894 3003 1313 
Q 3003 1734 2745 1975 
Q 2488 2216 2034 2216 
z
M 1403 2484 
Q 997 2584 770 2862 
Q 544 3141 544 3541 
Q 544 4100 942 4425 
Q 1341 4750 2034 4750 
Q 2731 4750 3128 4425 
Q 3525 4100 3525 3541 
Q 3525 3141 3298 2862 
Q 3072 2584 2669 2484 
Q 3125 2378 3379 2068 
Q 3634 1759 3634 1313 
Q 3634 634 3220 271 
Q 2806 -91 2034 -91 
Q 1263 -91 848 271 
Q 434 634 434 1313 
Q 434 1759 690 2068 
Q 947 2378 1403 2484 
z
M 1172 3481 
Q 1172 3119 1398 2916 
Q 1625 2713 2034 2713 
Q 2441 2713 2670 2916 
Q 2900 3119 2900 3481 
Q 2900 3844 2670 4047 
Q 2441 4250 2034 4250 
Q 1625 4250 1398 4047 
Q 1172 3844 1172 3481 
z
" transform="scale(0.015625)"/>
       </defs>
       <use xlink:href="#DejaVuSans-38"/>
       <use xlink:href="#DejaVuSans-30" x="63.623047"/>
       <use xlink:href="#DejaVuSans-30" x="127.246094"/>
      </g>
     </g>
    </g>
    <g id="text_5">
     <!-- Diploid N$_e$0 -->
     <g transform="translate(80 227.01375) scale(0.16 -0.16)">
      <defs>
       <path id="DejaVuSans-44" d="M 1259 4147 
L 1259 519 
L 2022 519 
Q 2988 519 3436 956 
Q 3884 1394 3884 2338 
Q 3884 3275 3436 3711 
Q 2988 4147 2022 4147 
L 1259 4147 
z
M 628 4666 
L 1925 4666 
Q 3281 4666 3915 4102 
Q 4550 3538 4550 2338 
Q 4550 1131 3912 565 
Q 3275 0 1925 0 
L 628 0 
L 628 4666 
z
" transform="scale(0.015625)"/>
       <path id="DejaVuSans-69" d="M 603 3500 
L 1178 3500 
L 1178 0 
L 603 0 
L 603 3500 
z
M 603 4863 
L 1178 4863 
L 1178 4134 
L 603 4134 
L 603 4863 
z
" transform="scale(0.015625)"/>
       <path id="DejaVuSans-70" d="M 1159 525 
L 1159 -1331 
L 581 -1331 
L 581 3500 
L 1159 3500 
L 1159 2969 
Q 1341 3281 1617 3432 
Q 1894 3584 2278 3584 
Q 2916 3584 3314 3078 
Q 3713 2572 3713 1747 
Q 3713 922 3314 415 
Q 2916 -91 2278 -91 
Q 1894 -91 1617 61 
Q 1341 213 1159 525 
z
M 3116 1747 
Q 3116 2381 2855 2742 
Q 2594 3103 2138 3103 
Q 1681 3103 1420 2742 
Q 1159 2381 1159 1747 
Q 1159 1113 1420 752 
Q 1681 391 2138 391 
Q 2594 391 2855 752 
Q 3116 1113 3116 1747 
z
" transform="scale(0.015625)"/>
       <path id="DejaVuSans-6c" d="M 603 4863 
L 1178 4863 
L 1178 0 
L 603 0 
L 603 4863 
z
" transform="scale(0.015625)"/>
       <path id="DejaVuSans-6f" d="M 1959 3097 
Q 1497 3097 1228 2736 
Q 959 2375 959 1747 
Q 959 1119 1226 758 
Q 1494 397 1959 397 
Q 2419 397 2687 759 
Q 2956 1122 2956 1747 
Q 2956 2369 2687 2733 
Q 2419 3097 1959 3097 
z
M 1959 3584 
Q 2709 3584 3137 3096 
Q 3566 2609 3566 1747 
Q 3566 888 3137 398 
Q 2709 -91 1959 -91 
Q 1206 -91 779 398 
Q 353 888 353 1747 
Q 353 2609 779 3096 
Q 1206 3584 1959 3584 
z
" transform="scale(0.015625)"/>
       <path id="DejaVuSans-64" d="M 2906 2969 
L 2906 4863 
L 3481 4863 
L 3481 0 
L 2906 0 
L 2906 525 
Q 2725 213 2448 61 
Q 2172 -91 1784 -91 
Q 1150 -91 751 415 
Q 353 922 353 1747 
Q 353 2572 751 3078 
Q 1150 3584 1784 3584 
Q 2172 3584 2448 3432 
Q 2725 3281 2906 2969 
z
M 947 1747 
Q 947 1113 1208 752 
Q 1469 391 1925 391 
Q 2381 391 2643 752 
Q 2906 1113 2906 1747 
Q 2906 2381 2643 2742 
Q 2381 3103 1925 3103 
Q 1469 3103 1208 2742 
Q 947 2381 947 1747 
z
" transform="scale(0.015625)"/>
       <path id="DejaVuSans-20" transform="scale(0.015625)"/>
       <path id="DejaVuSans-4e" d="M 628 4666 
L 1478 4666 
L 3547 763 
L 3547 4666 
L 4159 4666 
L 4159 0 
L 3309 0 
L 1241 3903 
L 1241 0 
L 628 0 
L 628 4666 
z
" transform="scale(0.015625)"/>
       <path id="DejaVuSans-Oblique-65" d="M 3078 2063 
Q 3088 2113 3092 2166 
Q 3097 2219 3097 2272 
Q 3097 2653 2873 2875 
Q 2650 3097 2266 3097 
Q 1838 3097 1509 2826 
Q 1181 2556 1013 2059 
L 3078 2063 
z
M 3578 1613 
L 903 1613 
Q 884 1494 878 1425 
Q 872 1356 872 1306 
Q 872 872 1139 634 
Q 1406 397 1894 397 
Q 2269 397 2603 481 
Q 2938 566 3225 728 
L 3116 159 
Q 2806 34 2476 -28 
Q 2147 -91 1806 -91 
Q 1078 -91 686 257 
Q 294 606 294 1247 
Q 294 1794 489 2264 
Q 684 2734 1063 3103 
Q 1306 3334 1642 3459 
Q 1978 3584 2356 3584 
Q 2950 3584 3301 3228 
Q 3653 2872 3653 2272 
Q 3653 2128 3634 1964 
Q 3616 1800 3578 1613 
z
" transform="scale(0.015625)"/>
      </defs>
      <use xlink:href="#DejaVuSans-44" transform="translate(0 0.015625)"/>
      <use xlink:href="#DejaVuSans-69" transform="translate(77.001953 0.015625)"/>
      <use xlink:href="#DejaVuSans-70" transform="translate(104.785156 0.015625)"/>
      <use xlink:href="#DejaVuSans-6c" transform="translate(168.261719 0.015625)"/>
      <use xlink:href="#DejaVuSans-6f" transform="translate(196.044922 0.015625)"/>
      <use xlink:href="#DejaVuSans-69" transform="translate(257.226562 0.015625)"/>
      <use xlink:href="#DejaVuSans-64" transform="translate(285.009766 0.015625)"/>
      <use xlink:href="#DejaVuSans-20" transform="translate(348.486328 0.015625)"/>
      <use xlink:href="#DejaVuSans-4e" transform="translate(380.273438 0.015625)"/>
      <use xlink:href="#DejaVuSans-Oblique-65" transform="translate(456.035156 -16.390625) scale(0.7)"/>
      <use xlink:href="#DejaVuSans-30" transform="translate(501.835938 0.015625)"/>
     </g>
    </g>
    <g id="text_6">
     <!-- 1e3 -->
     <g transform="translate(195.681875 221.452188) scale(0.1 -0.1)">
      <defs>
       <path id="DejaVuSans-31" d="M 794 531 
L 1825 531 
L 1825 4091 
L 703 3866 
L 703 4441 
L 1819 4666 
L 2450 4666 
L 2450 531 
L 3481 531 
L 3481 0 
L 794 0 
L 794 531 
z
" transform="scale(0.015625)"/>
       <path id="DejaVuSans-65" d="M 3597 1894 
L 3597 1613 
L 953 1613 
Q 991 1019 1311 708 
Q 1631 397 2203 397 
Q 2534 397 2845 478 
Q 3156 559 3463 722 
L 3463 178 
Q 3153 47 2828 -22 
Q 2503 -91 2169 -91 
Q 1331 -91 842 396 
Q 353 884 353 1716 
Q 353 2575 817 3079 
Q 1281 3584 2069 3584 
Q 2775 3584 3186 3129 
Q 3597 2675 3597 1894 
z
M 3022 2063 
Q 3016 2534 2758 2815 
Q 2500 3097 2075 3097 
Q 1594 3097 1305 2825 
Q 1016 2553 972 2059 
L 3022 2063 
z
" transform="scale(0.015625)"/>
       <path id="DejaVuSans-33" d="M 2597 2516 
Q 3050 2419 3304 2112 
Q 3559 1806 3559 1356 
Q 3559 666 3084 287 
Q 2609 -91 1734 -91 
Q 1441 -91 1130 -33 
Q 819 25 488 141 
L 488 750 
Q 750 597 1062 519 
Q 1375 441 1716 441 
Q 2309 441 2620 675 
Q 2931 909 2931 1356 
Q 2931 1769 2642 2001 
Q 2353 2234 1838 2234 
L 1294 2234 
L 1294 2753 
L 1863 2753 
Q 2328 2753 2575 2939 
Q 2822 3125 2822 3475 
Q 2822 3834 2567 4026 
Q 2313 4219 1838 4219 
Q 1578 4219 1281 4162 
Q 984 4106 628 3988 
L 628 4550 
Q 988 4650 1302 4700 
Q 1616 4750 1894 4750 
Q 2613 4750 3031 4423 
Q 3450 4097 3450 3541 
Q 3450 3153 3228 2886 
Q 3006 2619 2597 2516 
z
" transform="scale(0.015625)"/>
      </defs>
      <use xlink:href="#DejaVuSans-31"/>
      <use xlink:href="#DejaVuSans-65" x="63.623047"/>
      <use xlink:href="#DejaVuSans-33" x="125.146484"/>
     </g>
    </g>
   </g>
   <g id="matplotlib.axis_2">
    <g id="ytick_1">
     <g id="line2d_5">
      <defs>
       <path id="mc7077e12c8" d="M 0 0 
L -3.5 0 
" style="stroke: #000000; stroke-width: 0.8"/>
      </defs>
      <g>
       <use xlink:href="#mc7077e12c8" x="36" y="192.24" style="stroke: #000000; stroke-width: 0.8"/>
      </g>
     </g>
     <g id="text_7">
      <!-- 1.0 -->
      <g transform="translate(9.91625 196.799062) scale(0.12 -0.12)">
       <defs>
        <path id="DejaVuSans-2e" d="M 684 794 
L 1344 794 
L 1344 0 
L 684 0 
L 684 794 
z
" transform="scale(0.015625)"/>
       </defs>
       <use xlink:href="#DejaVuSans-31"/>
       <use xlink:href="#DejaVuSans-2e" x="63.623047"/>
       <use xlink:href="#DejaVuSans-30" x="95.410156"/>
      </g>
     </g>
    </g>
    <g id="ytick_2">
     <g id="line2d_6">
      <g>
       <use xlink:href="#mc7077e12c8" x="36" y="150.66" style="stroke: #000000; stroke-width: 0.8"/>
      </g>
     </g>
     <g id="text_8">
      <!-- 1.5 -->
      <g transform="translate(9.91625 155.219063) scale(0.12 -0.12)">
       <defs>
        <path id="DejaVuSans-35" d="M 691 4666 
L 3169 4666 
L 3169 4134 
L 1269 4134 
L 1269 2991 
Q 1406 3038 1543 3061 
Q 1681 3084 1819 3084 
Q 2600 3084 3056 2656 
Q 3513 2228 3513 1497 
Q 3513 744 3044 326 
Q 2575 -91 1722 -91 
Q 1428 -91 1123 -41 
Q 819 9 494 109 
L 494 744 
Q 775 591 1075 516 
Q 1375 441 1709 441 
Q 2250 441 2565 725 
Q 2881 1009 2881 1497 
Q 2881 1984 2565 2268 
Q 2250 2553 1709 2553 
Q 1456 2553 1204 2497 
Q 953 2441 691 2322 
L 691 4666 
z
" transform="scale(0.015625)"/>
       </defs>
       <use xlink:href="#DejaVuSans-31"/>
       <use xlink:href="#DejaVuSans-2e" x="63.623047"/>
       <use xlink:href="#DejaVuSans-35" x="95.410156"/>
      </g>
     </g>
    </g>
    <g id="ytick_3">
     <g id="line2d_7">
      <g>
       <use xlink:href="#mc7077e12c8" x="36" y="109.08" style="stroke: #000000; stroke-width: 0.8"/>
      </g>
     </g>
     <g id="text_9">
      <!-- 2.0 -->
      <g transform="translate(9.91625 113.639062) scale(0.12 -0.12)">
       <use xlink:href="#DejaVuSans-32"/>
       <use xlink:href="#DejaVuSans-2e" x="63.623047"/>
       <use xlink:href="#DejaVuSans-30" x="95.410156"/>
      </g>
     </g>
    </g>
    <g id="ytick_4">
     <g id="line2d_8">
      <g>
       <use xlink:href="#mc7077e12c8" x="36" y="67.5" style="stroke: #000000; stroke-width: 0.8"/>
      </g>
     </g>
     <g id="text_10">
      <!-- 2.5 -->
      <g transform="translate(9.91625 72.059063) scale(0.12 -0.12)">
       <use xlink:href="#DejaVuSans-32"/>
       <use xlink:href="#DejaVuSans-2e" x="63.623047"/>
       <use xlink:href="#DejaVuSans-35" x="95.410156"/>
      </g>
     </g>
    </g>
    <g id="ytick_5">
     <g id="line2d_9">
      <g>
       <use xlink:href="#mc7077e12c8" x="36" y="25.92" style="stroke: #000000; stroke-width: 0.8"/>
      </g>
     </g>
     <g id="text_11">
      <!-- 3.0 -->
      <g transform="translate(9.91625 30.479062) scale(0.12 -0.12)">
       <use xlink:href="#DejaVuSans-33"/>
       <use xlink:href="#DejaVuSans-2e" x="63.623047"/>
       <use xlink:href="#DejaVuSans-30" x="95.410156"/>
      </g>
     </g>
    </g>
    <g id="text_12">
     <!-- Recombination rate -->
     <g transform="translate(2.58875 187.6775) rotate(-90) scale(0.16 -0.16)">
      <defs>
       <path id="DejaVuSans-52" d="M 2841 2188 
Q 3044 2119 3236 1894 
Q 3428 1669 3622 1275 
L 4263 0 
L 3584 0 
L 2988 1197 
Q 2756 1666 2539 1819 
Q 2322 1972 1947 1972 
L 1259 1972 
L 1259 0 
L 628 0 
L 628 4666 
L 2053 4666 
Q 2853 4666 3247 4331 
Q 3641 3997 3641 3322 
Q 3641 2881 3436 2590 
Q 3231 2300 2841 2188 
z
M 1259 4147 
L 1259 2491 
L 2053 2491 
Q 2509 2491 2742 2702 
Q 2975 2913 2975 3322 
Q 2975 3731 2742 3939 
Q 2509 4147 2053 4147 
L 1259 4147 
z
" transform="scale(0.015625)"/>
       <path id="DejaVuSans-63" d="M 3122 3366 
L 3122 2828 
Q 2878 2963 2633 3030 
Q 2388 3097 2138 3097 
Q 1578 3097 1268 2742 
Q 959 2388 959 1747 
Q 959 1106 1268 751 
Q 1578 397 2138 397 
Q 2388 397 2633 464 
Q 2878 531 3122 666 
L 3122 134 
Q 2881 22 2623 -34 
Q 2366 -91 2075 -91 
Q 1284 -91 818 406 
Q 353 903 353 1747 
Q 353 2603 823 3093 
Q 1294 3584 2113 3584 
Q 2378 3584 2631 3529 
Q 2884 3475 3122 3366 
z
" transform="scale(0.015625)"/>
       <path id="DejaVuSans-6d" d="M 3328 2828 
Q 3544 3216 3844 3400 
Q 4144 3584 4550 3584 
Q 5097 3584 5394 3201 
Q 5691 2819 5691 2113 
L 5691 0 
L 5113 0 
L 5113 2094 
Q 5113 2597 4934 2840 
Q 4756 3084 4391 3084 
Q 3944 3084 3684 2787 
Q 3425 2491 3425 1978 
L 3425 0 
L 2847 0 
L 2847 2094 
Q 2847 2600 2669 2842 
Q 2491 3084 2119 3084 
Q 1678 3084 1418 2786 
Q 1159 2488 1159 1978 
L 1159 0 
L 581 0 
L 581 3500 
L 1159 3500 
L 1159 2956 
Q 1356 3278 1631 3431 
Q 1906 3584 2284 3584 
Q 2666 3584 2933 3390 
Q 3200 3197 3328 2828 
z
" transform="scale(0.015625)"/>
       <path id="DejaVuSans-62" d="M 3116 1747 
Q 3116 2381 2855 2742 
Q 2594 3103 2138 3103 
Q 1681 3103 1420 2742 
Q 1159 2381 1159 1747 
Q 1159 1113 1420 752 
Q 1681 391 2138 391 
Q 2594 391 2855 752 
Q 3116 1113 3116 1747 
z
M 1159 2969 
Q 1341 3281 1617 3432 
Q 1894 3584 2278 3584 
Q 2916 3584 3314 3078 
Q 3713 2572 3713 1747 
Q 3713 922 3314 415 
Q 2916 -91 2278 -91 
Q 1894 -91 1617 61 
Q 1341 213 1159 525 
L 1159 0 
L 581 0 
L 581 4863 
L 1159 4863 
L 1159 2969 
z
" transform="scale(0.015625)"/>
       <path id="DejaVuSans-6e" d="M 3513 2113 
L 3513 0 
L 2938 0 
L 2938 2094 
Q 2938 2591 2744 2837 
Q 2550 3084 2163 3084 
Q 1697 3084 1428 2787 
Q 1159 2491 1159 1978 
L 1159 0 
L 581 0 
L 581 3500 
L 1159 3500 
L 1159 2956 
Q 1366 3272 1645 3428 
Q 1925 3584 2291 3584 
Q 2894 3584 3203 3211 
Q 3513 2838 3513 2113 
z
" transform="scale(0.015625)"/>
       <path id="DejaVuSans-61" d="M 2194 1759 
Q 1497 1759 1228 1600 
Q 959 1441 959 1056 
Q 959 750 1161 570 
Q 1363 391 1709 391 
Q 2188 391 2477 730 
Q 2766 1069 2766 1631 
L 2766 1759 
L 2194 1759 
z
M 3341 1997 
L 3341 0 
L 2766 0 
L 2766 531 
Q 2569 213 2275 61 
Q 1981 -91 1556 -91 
Q 1019 -91 701 211 
Q 384 513 384 1019 
Q 384 1609 779 1909 
Q 1175 2209 1959 2209 
L 2766 2209 
L 2766 2266 
Q 2766 2663 2505 2880 
Q 2244 3097 1772 3097 
Q 1472 3097 1187 3025 
Q 903 2953 641 2809 
L 641 3341 
Q 956 3463 1253 3523 
Q 1550 3584 1831 3584 
Q 2591 3584 2966 3190 
Q 3341 2797 3341 1997 
z
" transform="scale(0.015625)"/>
       <path id="DejaVuSans-74" d="M 1172 4494 
L 1172 3500 
L 2356 3500 
L 2356 3053 
L 1172 3053 
L 1172 1153 
Q 1172 725 1289 603 
Q 1406 481 1766 481 
L 2356 481 
L 2356 0 
L 1766 0 
Q 1100 0 847 248 
Q 594 497 594 1153 
L 594 3053 
L 172 3053 
L 172 3500 
L 594 3500 
L 594 4494 
L 1172 4494 
z
" transform="scale(0.015625)"/>
       <path id="DejaVuSans-72" d="M 2631 2963 
Q 2534 3019 2420 3045 
Q 2306 3072 2169 3072 
Q 1681 3072 1420 2755 
Q 1159 2438 1159 1844 
L 1159 0 
L 581 0 
L 581 3500 
L 1159 3500 
L 1159 2956 
Q 1341 3275 1631 3429 
Q 1922 3584 2338 3584 
Q 2397 3584 2469 3576 
Q 2541 3569 2628 3553 
L 2631 2963 
z
" transform="scale(0.015625)"/>
      </defs>
      <use xlink:href="#DejaVuSans-52"/>
      <use xlink:href="#DejaVuSans-65" x="64.982422"/>
      <use xlink:href="#DejaVuSans-63" x="126.505859"/>
      <use xlink:href="#DejaVuSans-6f" x="181.486328"/>
      <use xlink:href="#DejaVuSans-6d" x="242.667969"/>
      <use xlink:href="#DejaVuSans-62" x="340.080078"/>
      <use xlink:href="#DejaVuSans-69" x="403.556641"/>
      <use xlink:href="#DejaVuSans-6e" x="431.339844"/>
      <use xlink:href="#DejaVuSans-61" x="494.71875"/>
      <use xlink:href="#DejaVuSans-74" x="555.998047"/>
      <use xlink:href="#DejaVuSans-69" x="595.207031"/>
      <use xlink:href="#DejaVuSans-6f" x="622.990234"/>
      <use xlink:href="#DejaVuSans-6e" x="684.171875"/>
      <use xlink:href="#DejaVuSans-20" x="747.550781"/>
      <use xlink:href="#DejaVuSans-72" x="779.337891"/>
      <use xlink:href="#DejaVuSans-61" x="820.451172"/>
      <use xlink:href="#DejaVuSans-74" x="881.730469"/>
      <use xlink:href="#DejaVuSans-65" x="920.939453"/>
     </g>
    </g>
    <g id="text_13">
     <!-- 1e−9 -->
     <g transform="translate(36 22.92) scale(0.1 -0.1)">
      <defs>
       <path id="DejaVuSans-2212" d="M 678 2272 
L 4684 2272 
L 4684 1741 
L 678 1741 
L 678 2272 
z
" transform="scale(0.015625)"/>
       <path id="DejaVuSans-39" d="M 703 97 
L 703 672 
Q 941 559 1184 500 
Q 1428 441 1663 441 
Q 2288 441 2617 861 
Q 2947 1281 2994 2138 
Q 2813 1869 2534 1725 
Q 2256 1581 1919 1581 
Q 1219 1581 811 2004 
Q 403 2428 403 3163 
Q 403 3881 828 4315 
Q 1253 4750 1959 4750 
Q 2769 4750 3195 4129 
Q 3622 3509 3622 2328 
Q 3622 1225 3098 567 
Q 2575 -91 1691 -91 
Q 1453 -91 1209 -44 
Q 966 3 703 97 
z
M 1959 2075 
Q 2384 2075 2632 2365 
Q 2881 2656 2881 3163 
Q 2881 3666 2632 3958 
Q 2384 4250 1959 4250 
Q 1534 4250 1286 3958 
Q 1038 3666 1038 3163 
Q 1038 2656 1286 2365 
Q 1534 2075 1959 2075 
z
" transform="scale(0.015625)"/>
      </defs>
      <use xlink:href="#DejaVuSans-31"/>
      <use xlink:href="#DejaVuSans-65" x="63.623047"/>
      <use xlink:href="#DejaVuSans-2212" x="125.146484"/>
      <use xlink:href="#DejaVuSans-39" x="208.935547"/>
     </g>
    </g>
   </g>
   <g id="patch_3">
    <path d="M 36 192.24 
L 36 25.92 
" style="fill: none; stroke: #000000; stroke-width: 0.8; stroke-linejoin: miter; stroke-linecap: square"/>
   </g>
   <g id="patch_4">
    <path d="M 214.56 192.24 
L 214.56 25.92 
" style="fill: none; stroke: #000000; stroke-width: 0.8; stroke-linejoin: miter; stroke-linecap: square"/>
   </g>
   <g id="patch_5">
    <path d="M 36 192.24 
L 214.56 192.24 
" style="fill: none; stroke: #000000; stroke-width: 0.8; stroke-linejoin: miter; stroke-linecap: square"/>
   </g>
   <g id="patch_6">
    <path d="M 36 25.92 
L 214.56 25.92 
" style="fill: none; stroke: #000000; stroke-width: 0.8; stroke-linejoin: miter; stroke-linecap: square"/>
   </g>
   <g id="text_14">
    <!-- Ne0r-MSSMC-GT-P2-S4 -->
    <g transform="translate(34.9725 10.92) scale(0.16 -0.16)">
     <defs>
      <path id="DejaVuSans-2d" d="M 313 2009 
L 1997 2009 
L 1997 1497 
L 313 1497 
L 313 2009 
z
" transform="scale(0.015625)"/>
      <path id="DejaVuSans-4d" d="M 628 4666 
L 1569 4666 
L 2759 1491 
L 3956 4666 
L 4897 4666 
L 4897 0 
L 4281 0 
L 4281 4097 
L 3078 897 
L 2444 897 
L 1241 4097 
L 1241 0 
L 628 0 
L 628 4666 
z
" transform="scale(0.015625)"/>
      <path id="DejaVuSans-53" d="M 3425 4513 
L 3425 3897 
Q 3066 4069 2747 4153 
Q 2428 4238 2131 4238 
Q 1616 4238 1336 4038 
Q 1056 3838 1056 3469 
Q 1056 3159 1242 3001 
Q 1428 2844 1947 2747 
L 2328 2669 
Q 3034 2534 3370 2195 
Q 3706 1856 3706 1288 
Q 3706 609 3251 259 
Q 2797 -91 1919 -91 
Q 1588 -91 1214 -16 
Q 841 59 441 206 
L 441 856 
Q 825 641 1194 531 
Q 1563 422 1919 422 
Q 2459 422 2753 634 
Q 3047 847 3047 1241 
Q 3047 1584 2836 1778 
Q 2625 1972 2144 2069 
L 1759 2144 
Q 1053 2284 737 2584 
Q 422 2884 422 3419 
Q 422 4038 858 4394 
Q 1294 4750 2059 4750 
Q 2388 4750 2728 4690 
Q 3069 4631 3425 4513 
z
" transform="scale(0.015625)"/>
      <path id="DejaVuSans-43" d="M 4122 4306 
L 4122 3641 
Q 3803 3938 3442 4084 
Q 3081 4231 2675 4231 
Q 1875 4231 1450 3742 
Q 1025 3253 1025 2328 
Q 1025 1406 1450 917 
Q 1875 428 2675 428 
Q 3081 428 3442 575 
Q 3803 722 4122 1019 
L 4122 359 
Q 3791 134 3420 21 
Q 3050 -91 2638 -91 
Q 1578 -91 968 557 
Q 359 1206 359 2328 
Q 359 3453 968 4101 
Q 1578 4750 2638 4750 
Q 3056 4750 3426 4639 
Q 3797 4528 4122 4306 
z
" transform="scale(0.015625)"/>
      <path id="DejaVuSans-47" d="M 3809 666 
L 3809 1919 
L 2778 1919 
L 2778 2438 
L 4434 2438 
L 4434 434 
Q 4069 175 3628 42 
Q 3188 -91 2688 -91 
Q 1594 -91 976 548 
Q 359 1188 359 2328 
Q 359 3472 976 4111 
Q 1594 4750 2688 4750 
Q 3144 4750 3555 4637 
Q 3966 4525 4313 4306 
L 4313 3634 
Q 3963 3931 3569 4081 
Q 3175 4231 2741 4231 
Q 1884 4231 1454 3753 
Q 1025 3275 1025 2328 
Q 1025 1384 1454 906 
Q 1884 428 2741 428 
Q 3075 428 3337 486 
Q 3600 544 3809 666 
z
" transform="scale(0.015625)"/>
      <path id="DejaVuSans-54" d="M -19 4666 
L 3928 4666 
L 3928 4134 
L 2272 4134 
L 2272 0 
L 1638 0 
L 1638 4134 
L -19 4134 
L -19 4666 
z
" transform="scale(0.015625)"/>
      <path id="DejaVuSans-50" d="M 1259 4147 
L 1259 2394 
L 2053 2394 
Q 2494 2394 2734 2622 
Q 2975 2850 2975 3272 
Q 2975 3691 2734 3919 
Q 2494 4147 2053 4147 
L 1259 4147 
z
M 628 4666 
L 2053 4666 
Q 2838 4666 3239 4311 
Q 3641 3956 3641 3272 
Q 3641 2581 3239 2228 
Q 2838 1875 2053 1875 
L 1259 1875 
L 1259 0 
L 628 0 
L 628 4666 
z
" transform="scale(0.015625)"/>
     </defs>
     <use xlink:href="#DejaVuSans-4e"/>
     <use xlink:href="#DejaVuSans-65" x="74.804688"/>
     <use xlink:href="#DejaVuSans-30" x="136.328125"/>
     <use xlink:href="#DejaVuSans-72" x="199.951172"/>
     <use xlink:href="#DejaVuSans-2d" x="234.689453"/>
     <use xlink:href="#DejaVuSans-4d" x="270.773438"/>
     <use xlink:href="#DejaVuSans-53" x="357.052734"/>
     <use xlink:href="#DejaVuSans-53" x="420.529297"/>
     <use xlink:href="#DejaVuSans-4d" x="484.005859"/>
     <use xlink:href="#DejaVuSans-43" x="570.285156"/>
     <use xlink:href="#DejaVuSans-2d" x="640.109375"/>
     <use xlink:href="#DejaVuSans-47" x="679.818359"/>
     <use xlink:href="#DejaVuSans-54" x="753.683594"/>
     <use xlink:href="#DejaVuSans-2d" x="805.642578"/>
     <use xlink:href="#DejaVuSans-50" x="841.726562"/>
     <use xlink:href="#DejaVuSans-32" x="902.029297"/>
     <use xlink:href="#DejaVuSans-2d" x="965.652344"/>
     <use xlink:href="#DejaVuSans-53" x="1001.736328"/>
     <use xlink:href="#DejaVuSans-34" x="1065.212891"/>
    </g>
   </g>
  </g>
  <g id="axes_2">
   <g id="patch_7">
    <path d="M 225.72 192.24 
L 234.036 192.24 
L 234.036 25.92 
L 225.72 25.92 
z
" style="fill: #ffffff"/>
   </g>
   <g id="QuadMesh_1">
    <path d="M 225.72 192.24 
L 234.036 192.24 
L 234.036 180.36 
L 225.72 180.36 
L 225.72 192.24 
" clip-path="url(#p5787db7c7d)" style="fill: #e7e419"/>
    <path d="M 225.72 180.36 
L 234.036 180.36 
L 234.036 168.48 
L 225.72 168.48 
L 225.72 180.36 
" clip-path="url(#p5787db7c7d)" style="fill: #b8de29"/>
    <path d="M 225.72 168.48 
L 234.036 168.48 
L 234.036 156.6 
L 225.72 156.6 
L 225.72 168.48 
" clip-path="url(#p5787db7c7d)" style="fill: #89d548"/>
    <path d="M 225.72 156.6 
L 234.036 156.6 
L 234.036 144.72 
L 225.72 144.72 
L 225.72 156.6 
" clip-path="url(#p5787db7c7d)" style="fill: #5cc863"/>
    <path d="M 225.72 144.72 
L 234.036 144.72 
L 234.036 132.84 
L 225.72 132.84 
L 225.72 144.72 
" clip-path="url(#p5787db7c7d)" style="fill: #3aba76"/>
    <path d="M 225.72 132.84 
L 234.036 132.84 
L 234.036 120.96 
L 225.72 120.96 
L 225.72 132.84 
" clip-path="url(#p5787db7c7d)" style="fill: #24aa83"/>
    <path d="M 225.72 120.96 
L 234.036 120.96 
L 234.036 109.08 
L 225.72 109.08 
L 225.72 120.96 
" clip-path="url(#p5787db7c7d)" style="fill: #1f998a"/>
    <path d="M 225.72 109.08 
L 234.036 109.08 
L 234.036 97.2 
L 225.72 97.2 
L 225.72 109.08 
" clip-path="url(#p5787db7c7d)" style="fill: #24878e"/>
    <path d="M 225.72 97.2 
L 234.036 97.2 
L 234.036 85.32 
L 225.72 85.32 
L 225.72 97.2 
" clip-path="url(#p5787db7c7d)" style="fill: #2a768e"/>
    <path d="M 225.72 85.32 
L 234.036 85.32 
L 234.036 73.44 
L 225.72 73.44 
L 225.72 85.32 
" clip-path="url(#p5787db7c7d)" style="fill: #32658e"/>
    <path d="M 225.72 73.44 
L 234.036 73.44 
L 234.036 61.56 
L 225.72 61.56 
L 225.72 73.44 
" clip-path="url(#p5787db7c7d)" style="fill: #3b528b"/>
    <path d="M 225.72 61.56 
L 234.036 61.56 
L 234.036 49.68 
L 225.72 49.68 
L 225.72 61.56 
" clip-path="url(#p5787db7c7d)" style="fill: #433d84"/>
    <path d="M 225.72 49.68 
L 234.036 49.68 
L 234.036 37.8 
L 225.72 37.8 
L 225.72 49.68 
" clip-path="url(#p5787db7c7d)" style="fill: #482677"/>
    <path d="M 225.72 37.8 
L 234.036 37.8 
L 234.036 25.92 
L 225.72 25.92 
L 225.72 37.8 
" clip-path="url(#p5787db7c7d)" style="fill: #470e61"/>
   </g>
   <g id="matplotlib.axis_3"/>
   <g id="matplotlib.axis_4">
    <g id="ytick_6">
     <g id="line2d_10">
      <defs>
       <path id="m444a28f941" d="M 0 0 
L 3.5 0 
" style="stroke: #000000; stroke-width: 0.8"/>
      </defs>
      <g>
       <use xlink:href="#m444a28f941" x="234.036" y="192.24" style="stroke: #000000; stroke-width: 0.8"/>
      </g>
     </g>
     <g id="text_15">
      <!-- $\mathdefault{0.0}$ -->
      <g transform="translate(241.036 196.039219) scale(0.1 -0.1)">
       <use xlink:href="#DejaVuSans-30" transform="translate(0 0.78125)"/>
       <use xlink:href="#DejaVuSans-2e" transform="translate(63.623047 0.78125)"/>
       <use xlink:href="#DejaVuSans-30" transform="translate(95.410156 0.78125)"/>
      </g>
     </g>
    </g>
    <g id="ytick_7">
     <g id="line2d_11">
      <g>
       <use xlink:href="#m444a28f941" x="234.036" y="168.48" style="stroke: #000000; stroke-width: 0.8"/>
      </g>
     </g>
     <g id="text_16">
      <!-- $\mathdefault{0.3}$ -->
      <g transform="translate(241.036 172.279219) scale(0.1 -0.1)">
       <use xlink:href="#DejaVuSans-30" transform="translate(0 0.78125)"/>
       <use xlink:href="#DejaVuSans-2e" transform="translate(63.623047 0.78125)"/>
       <use xlink:href="#DejaVuSans-33" transform="translate(95.410156 0.78125)"/>
      </g>
     </g>
    </g>
    <g id="ytick_8">
     <g id="line2d_12">
      <g>
       <use xlink:href="#m444a28f941" x="234.036" y="144.72" style="stroke: #000000; stroke-width: 0.8"/>
      </g>
     </g>
     <g id="text_17">
      <!-- $\mathdefault{0.6}$ -->
      <g transform="translate(241.036 148.519219) scale(0.1 -0.1)">
       <use xlink:href="#DejaVuSans-30" transform="translate(0 0.78125)"/>
       <use xlink:href="#DejaVuSans-2e" transform="translate(63.623047 0.78125)"/>
       <use xlink:href="#DejaVuSans-36" transform="translate(95.410156 0.78125)"/>
      </g>
     </g>
    </g>
    <g id="ytick_9">
     <g id="line2d_13">
      <g>
       <use xlink:href="#m444a28f941" x="234.036" y="120.96" style="stroke: #000000; stroke-width: 0.8"/>
      </g>
     </g>
     <g id="text_18">
      <!-- $\mathdefault{0.9}$ -->
      <g transform="translate(241.036 124.759219) scale(0.1 -0.1)">
       <use xlink:href="#DejaVuSans-30" transform="translate(0 0.78125)"/>
       <use xlink:href="#DejaVuSans-2e" transform="translate(63.623047 0.78125)"/>
       <use xlink:href="#DejaVuSans-39" transform="translate(95.410156 0.78125)"/>
      </g>
     </g>
    </g>
    <g id="ytick_10">
     <g id="line2d_14">
      <g>
       <use xlink:href="#m444a28f941" x="234.036" y="97.2" style="stroke: #000000; stroke-width: 0.8"/>
      </g>
     </g>
     <g id="text_19">
      <!-- $\mathdefault{1.2}$ -->
      <g transform="translate(241.036 100.999219) scale(0.1 -0.1)">
       <use xlink:href="#DejaVuSans-31" transform="translate(0 0.78125)"/>
       <use xlink:href="#DejaVuSans-2e" transform="translate(63.623047 0.78125)"/>
       <use xlink:href="#DejaVuSans-32" transform="translate(89.910156 0.78125)"/>
      </g>
     </g>
    </g>
    <g id="ytick_11">
     <g id="line2d_15">
      <g>
       <use xlink:href="#m444a28f941" x="234.036" y="73.44" style="stroke: #000000; stroke-width: 0.8"/>
      </g>
     </g>
     <g id="text_20">
      <!-- $\mathdefault{1.5}$ -->
      <g transform="translate(241.036 77.239219) scale(0.1 -0.1)">
       <use xlink:href="#DejaVuSans-31" transform="translate(0 0.09375)"/>
       <use xlink:href="#DejaVuSans-2e" transform="translate(63.623047 0.09375)"/>
       <use xlink:href="#DejaVuSans-35" transform="translate(95.410156 0.09375)"/>
      </g>
     </g>
    </g>
    <g id="ytick_12">
     <g id="line2d_16">
      <g>
       <use xlink:href="#m444a28f941" x="234.036" y="49.68" style="stroke: #000000; stroke-width: 0.8"/>
      </g>
     </g>
     <g id="text_21">
      <!-- $\mathdefault{1.8}$ -->
      <g transform="translate(241.036 53.479219) scale(0.1 -0.1)">
       <use xlink:href="#DejaVuSans-31" transform="translate(0 0.78125)"/>
       <use xlink:href="#DejaVuSans-2e" transform="translate(63.623047 0.78125)"/>
       <use xlink:href="#DejaVuSans-38" transform="translate(92.785156 0.78125)"/>
      </g>
     </g>
    </g>
    <g id="ytick_13">
     <g id="line2d_17">
      <g>
       <use xlink:href="#m444a28f941" x="234.036" y="25.92" style="stroke: #000000; stroke-width: 0.8"/>
      </g>
     </g>
     <g id="text_22">
      <!-- $\mathdefault{2.1}$ -->
      <g transform="translate(241.036 29.719219) scale(0.1 -0.1)">
       <use xlink:href="#DejaVuSans-32" transform="translate(0 0.78125)"/>
       <use xlink:href="#DejaVuSans-2e" transform="translate(63.623047 0.78125)"/>
       <use xlink:href="#DejaVuSans-31" transform="translate(95.410156 0.78125)"/>
      </g>
     </g>
    </g>
    <g id="text_23">
     <!-- $\Delta$ log likelihood -->
     <g transform="translate(270.156 154.98) rotate(-90) scale(0.12 -0.12)">
      <defs>
       <path id="DejaVuSans-394" d="M 2188 4044 
L 906 525 
L 3472 525 
L 2188 4044 
z
M 50 0 
L 1831 4666 
L 2547 4666 
L 4325 0 
L 50 0 
z
" transform="scale(0.015625)"/>
       <path id="DejaVuSans-67" d="M 2906 1791 
Q 2906 2416 2648 2759 
Q 2391 3103 1925 3103 
Q 1463 3103 1205 2759 
Q 947 2416 947 1791 
Q 947 1169 1205 825 
Q 1463 481 1925 481 
Q 2391 481 2648 825 
Q 2906 1169 2906 1791 
z
M 3481 434 
Q 3481 -459 3084 -895 
Q 2688 -1331 1869 -1331 
Q 1566 -1331 1297 -1286 
Q 1028 -1241 775 -1147 
L 775 -588 
Q 1028 -725 1275 -790 
Q 1522 -856 1778 -856 
Q 2344 -856 2625 -561 
Q 2906 -266 2906 331 
L 2906 616 
Q 2728 306 2450 153 
Q 2172 0 1784 0 
Q 1141 0 747 490 
Q 353 981 353 1791 
Q 353 2603 747 3093 
Q 1141 3584 1784 3584 
Q 2172 3584 2450 3431 
Q 2728 3278 2906 2969 
L 2906 3500 
L 3481 3500 
L 3481 434 
z
" transform="scale(0.015625)"/>
       <path id="DejaVuSans-6b" d="M 581 4863 
L 1159 4863 
L 1159 1991 
L 2875 3500 
L 3609 3500 
L 1753 1863 
L 3688 0 
L 2938 0 
L 1159 1709 
L 1159 0 
L 581 0 
L 581 4863 
z
" transform="scale(0.015625)"/>
       <path id="DejaVuSans-68" d="M 3513 2113 
L 3513 0 
L 2938 0 
L 2938 2094 
Q 2938 2591 2744 2837 
Q 2550 3084 2163 3084 
Q 1697 3084 1428 2787 
Q 1159 2491 1159 1978 
L 1159 0 
L 581 0 
L 581 4863 
L 1159 4863 
L 1159 2956 
Q 1366 3272 1645 3428 
Q 1925 3584 2291 3584 
Q 2894 3584 3203 3211 
Q 3513 2838 3513 2113 
z
" transform="scale(0.015625)"/>
      </defs>
      <use xlink:href="#DejaVuSans-394" transform="translate(0 0.015625)"/>
      <use xlink:href="#DejaVuSans-20" transform="translate(68.408203 0.015625)"/>
      <use xlink:href="#DejaVuSans-6c" transform="translate(100.195312 0.015625)"/>
      <use xlink:href="#DejaVuSans-6f" transform="translate(127.978516 0.015625)"/>
      <use xlink:href="#DejaVuSans-67" transform="translate(189.160156 0.015625)"/>
      <use xlink:href="#DejaVuSans-20" transform="translate(252.636719 0.015625)"/>
      <use xlink:href="#DejaVuSans-6c" transform="translate(284.423828 0.015625)"/>
      <use xlink:href="#DejaVuSans-69" transform="translate(312.207031 0.015625)"/>
      <use xlink:href="#DejaVuSans-6b" transform="translate(339.990234 0.015625)"/>
      <use xlink:href="#DejaVuSans-65" transform="translate(397.900391 0.015625)"/>
      <use xlink:href="#DejaVuSans-6c" transform="translate(459.423828 0.015625)"/>
      <use xlink:href="#DejaVuSans-69" transform="translate(487.207031 0.015625)"/>
      <use xlink:href="#DejaVuSans-68" transform="translate(514.990234 0.015625)"/>
      <use xlink:href="#DejaVuSans-6f" transform="translate(578.369141 0.015625)"/>
      <use xlink:href="#DejaVuSans-6f" transform="translate(639.550781 0.015625)"/>
      <use xlink:href="#DejaVuSans-64" transform="translate(700.732422 0.015625)"/>
     </g>
    </g>
    <g id="text_24">
     <!-- $\times\mathdefault{10^{−1}}\mathdefault{}$ -->
     <g transform="translate(202.236 22.92) scale(0.1 -0.1)">
      <defs>
       <path id="DejaVuSans-d7" d="M 4488 3438 
L 3059 2003 
L 4488 575 
L 4116 197 
L 2681 1631 
L 1247 197 
L 878 575 
L 2303 2003 
L 878 3438 
L 1247 3816 
L 2681 2381 
L 4116 3816 
L 4488 3438 
z
" transform="scale(0.015625)"/>
      </defs>
      <use xlink:href="#DejaVuSans-d7" transform="translate(0 0.684375)"/>
      <use xlink:href="#DejaVuSans-31" transform="translate(83.789062 0.684375)"/>
      <use xlink:href="#DejaVuSans-30" transform="translate(147.412109 0.684375)"/>
      <use xlink:href="#DejaVuSans-2212" transform="translate(211.992188 38.965625) scale(0.7)"/>
      <use xlink:href="#DejaVuSans-31" transform="translate(270.644531 38.965625) scale(0.7)"/>
     </g>
    </g>
   </g>
   <g id="LineCollection_1"/>
   <g id="patch_8">
    <path d="M 225.72 192.24 
L 229.878 192.24 
L 234.036 192.24 
L 234.036 25.92 
L 229.878 25.92 
L 225.72 25.92 
L 225.72 192.24 
z
" style="fill: none; stroke: #000000; stroke-width: 0.8; stroke-linejoin: miter; stroke-linecap: square"/>
   </g>
  </g>
 </g>
 <defs>
  <clipPath id="pa74b6d045b">
   <rect x="36" y="25.92" width="178.56" height="166.32"/>
  </clipPath>
  <clipPath id="p5787db7c7d">
   <rect x="225.72" y="25.92" width="8.316" height="166.32"/>
  </clipPath>
 </defs>
</svg>
