<?xml version="1.0" encoding="utf-8" standalone="no"?>
<!DOCTYPE svg PUBLIC "-//W3C//DTD SVG 1.1//EN"
  "http://www.w3.org/Graphics/SVG/1.1/DTD/svg11.dtd">
<svg xmlns:xlink="http://www.w3.org/1999/xlink" width="288pt" height="216pt" viewBox="0 0 288 216" xmlns="http://www.w3.org/2000/svg" version="1.1">
 <metadata>
  <rdf:RDF xmlns:dc="http://purl.org/dc/elements/1.1/" xmlns:cc="http://creativecommons.org/ns#" xmlns:rdf="http://www.w3.org/1999/02/22-rdf-syntax-ns#">
   <cc:Work>
    <dc:type rdf:resource="http://purl.org/dc/dcmitype/StillImage"/>
    <dc:date>2023-07-18T17:02:34.888544</dc:date>
    <dc:format>image/svg+xml</dc:format>
    <dc:creator>
     <cc:Agent>
      <dc:title>Matplotlib v3.7.1, https://matplotlib.org/</dc:title>
     </cc:Agent>
    </dc:creator>
   </cc:Work>
  </rdf:RDF>
 </metadata>
 <defs>
  <style type="text/css">*{stroke-linejoin: round; stroke-linecap: butt}</style>
 </defs>
 <g id="figure_1">
  <g id="patch_1">
   <path d="M 0 216 
L 288 216 
L 288 0 
L 0 0 
z
" style="fill: #ffffff"/>
  </g>
  <g id="axes_1">
   <g id="patch_2">
    <path d="M 36 192.24 
L 214.56 192.24 
L 214.56 25.92 
L 36 25.92 
z
" style="fill: #ffffff"/>
   </g>
   <g id="PathCollection_1">
    <path d="M 36 186.696 
L 36 181.152 
L 36 175.608 
L 36 170.064 
L 36 164.52 
L 36 158.976 
L 36 153.432 
L 36 147.888 
L 36 142.344 
L 36 136.8 
L 36 131.256 
L 36 125.712 
L 36 120.168 
L 36 114.624 
L 36 109.08 
L 36 103.536 
L 36 97.992 
L 36 92.448 
L 36 86.904 
L 36 81.36 
L 36 75.816 
L 36 70.272 
L 36 64.728 
L 36 59.184 
L 36 53.64 
L 36 48.096 
L 36 42.552 
L 36 37.008 
L 36 31.464 
L 36 25.92 
L 36.022315 25.92 
L 36.022315 31.464 
L 36.022315 37.008 
L 36.022315 42.552 
L 36.022315 48.096 
L 36.022315 53.64 
L 36.022315 59.184 
L 36.022315 64.728 
L 36.022315 70.272 
L 36.022315 75.816 
L 36.022315 81.36 
L 36.022315 86.904 
L 36.022315 92.448 
L 36.022315 97.992 
L 36.022315 103.536 
L 36.022315 109.08 
L 36.022315 114.624 
L 36.022315 120.168 
L 36.022315 125.712 
L 36.022315 131.256 
L 36.022315 136.8 
L 36.022315 142.344 
L 36.022315 147.888 
L 36.022315 153.432 
L 36.022315 158.976 
L 36.022315 164.52 
L 36.022315 170.064 
L 36.022315 175.608 
L 36.022315 181.152 
L 36.022315 186.696 
L 36.022315 192.24 
L 36 192.24 
z
" clip-path="url(#p2ba507a90c)" style="fill: #440154"/>
   </g>
   <g id="PathCollection_2">
    <path d="M 36.022315 186.696 
L 36.022315 181.152 
L 36.022315 175.608 
L 36.022315 170.064 
L 36.022315 164.52 
L 36.022315 158.976 
L 36.022315 153.432 
L 36.022315 147.888 
L 36.022315 142.344 
L 36.022315 136.8 
L 36.022315 131.256 
L 36.022315 125.712 
L 36.022315 120.168 
L 36.022315 114.624 
L 36.022315 109.08 
L 36.022315 103.536 
L 36.022315 97.992 
L 36.022315 92.448 
L 36.022315 86.904 
L 36.022315 81.36 
L 36.022315 75.816 
L 36.022315 70.272 
L 36.022315 64.728 
L 36.022315 59.184 
L 36.022315 53.64 
L 36.022315 48.096 
L 36.022315 42.552 
L 36.022315 37.008 
L 36.022315 31.464 
L 36.022315 25.92 
L 36.374211 25.92 
L 36.374211 31.464 
L 36.374211 37.008 
L 36.374211 42.552 
L 36.374211 48.096 
L 36.374211 53.64 
L 36.374211 59.184 
L 36.374211 64.728 
L 36.374211 70.272 
L 36.374211 75.816 
L 36.374211 81.36 
L 36.374211 86.904 
L 36.374211 92.448 
L 36.374211 97.992 
L 36.374211 103.536 
L 36.374211 109.08 
L 36.374211 114.624 
L 36.374211 120.168 
L 36.374211 125.712 
L 36.374211 131.256 
L 36.374211 136.8 
L 36.374211 142.344 
L 36.374211 147.888 
L 36.374211 153.432 
L 36.374211 158.976 
L 36.374211 164.52 
L 36.374211 170.064 
L 36.374211 175.608 
L 36.374211 181.152 
L 36.374211 186.696 
L 36.374211 192.24 
L 36.022315 192.24 
z
" clip-path="url(#p2ba507a90c)" style="fill: #440154"/>
   </g>
   <g id="PathCollection_3">
    <path d="M 36.374211 186.696 
L 36.374211 181.152 
L 36.374211 175.608 
L 36.374211 170.064 
L 36.374211 164.52 
L 36.374211 158.976 
L 36.374211 153.432 
L 36.374211 147.888 
L 36.374211 142.344 
L 36.374211 136.8 
L 36.374211 131.256 
L 36.374211 125.712 
L 36.374211 120.168 
L 36.374211 114.624 
L 36.374211 109.08 
L 36.374211 103.536 
L 36.374211 97.992 
L 36.374211 92.448 
L 36.374211 86.904 
L 36.374211 81.36 
L 36.374211 75.816 
L 36.374211 70.272 
L 36.374211 64.728 
L 36.374211 59.184 
L 36.374211 53.64 
L 36.374211 48.096 
L 36.374211 42.552 
L 36.374211 37.008 
L 36.374211 31.464 
L 36.374211 25.92 
L 36.726108 25.92 
L 36.726108 31.464 
L 36.726108 37.008 
L 36.726108 42.552 
L 36.726108 48.096 
L 36.726108 53.64 
L 36.726108 59.184 
L 36.726108 64.728 
L 36.726108 70.272 
L 36.726108 75.816 
L 36.726108 81.36 
L 36.726108 86.904 
L 36.726108 92.448 
L 36.726108 97.992 
L 36.726108 103.536 
L 36.726108 109.08 
L 36.726108 114.624 
L 36.726108 120.168 
L 36.726108 125.712 
L 36.726108 131.256 
L 36.726108 136.8 
L 36.726108 142.344 
L 36.726108 147.888 
L 36.726108 153.432 
L 36.726108 158.976 
L 36.726108 164.52 
L 36.726108 170.064 
L 36.726108 175.608 
L 36.726108 181.152 
L 36.726108 186.696 
L 36.726108 192.24 
L 36.374211 192.24 
z
" clip-path="url(#p2ba507a90c)" style="fill: #440154"/>
   </g>
   <g id="PathCollection_4">
    <path d="M 36.726108 186.696 
L 36.726108 181.152 
L 36.726108 175.608 
L 36.726108 170.064 
L 36.726108 164.52 
L 36.726108 158.976 
L 36.726108 153.432 
L 36.726108 147.888 
L 36.726108 142.344 
L 36.726108 136.8 
L 36.726108 131.256 
L 36.726108 125.712 
L 36.726108 120.168 
L 36.726108 114.624 
L 36.726108 109.08 
L 36.726108 103.536 
L 36.726108 97.992 
L 36.726108 92.448 
L 36.726108 86.904 
L 36.726108 81.36 
L 36.726108 75.816 
L 36.726108 70.272 
L 36.726108 64.728 
L 36.726108 59.184 
L 36.726108 53.64 
L 36.726108 48.096 
L 36.726108 42.552 
L 36.726108 37.008 
L 36.726108 31.464 
L 36.726108 25.92 
L 37.078004 25.92 
L 37.078004 31.464 
L 37.078004 37.008 
L 37.078004 42.552 
L 37.078004 48.096 
L 37.078004 53.64 
L 37.078004 59.184 
L 37.078004 64.728 
L 37.078004 70.272 
L 37.078004 75.816 
L 37.078004 81.36 
L 37.078004 86.904 
L 37.078004 92.448 
L 37.078004 97.992 
L 37.078004 103.536 
L 37.078004 109.08 
L 37.078004 114.624 
L 37.078004 120.168 
L 37.078004 125.712 
L 37.078004 131.256 
L 37.078004 136.8 
L 37.078004 142.344 
L 37.078004 147.888 
L 37.078004 153.432 
L 37.078004 158.976 
L 37.078004 164.52 
L 37.078004 170.064 
L 37.078004 175.608 
L 37.078004 181.152 
L 37.078004 186.696 
L 37.078004 192.24 
L 36.726108 192.24 
z
" clip-path="url(#p2ba507a90c)" style="fill: #440154"/>
   </g>
   <g id="PathCollection_5">
    <path d="M 37.078004 186.696 
L 37.078004 181.152 
L 37.078004 175.608 
L 37.078004 170.064 
L 37.078004 164.52 
L 37.078004 158.976 
L 37.078004 153.432 
L 37.078004 147.888 
L 37.078004 142.344 
L 37.078004 136.8 
L 37.078004 131.256 
L 37.078004 125.712 
L 37.078004 120.168 
L 37.078004 114.624 
L 37.078004 109.08 
L 37.078004 103.536 
L 37.078004 97.992 
L 37.078004 92.448 
L 37.078004 86.904 
L 37.078004 81.36 
L 37.078004 75.816 
L 37.078004 70.272 
L 37.078004 64.728 
L 37.078004 59.184 
L 37.078004 53.64 
L 37.078004 48.096 
L 37.078004 42.552 
L 37.078004 37.008 
L 37.078004 31.464 
L 37.078004 25.92 
L 37.4299 25.92 
L 37.4299 31.464 
L 37.4299 37.008 
L 37.4299 42.552 
L 37.4299 48.096 
L 37.4299 53.64 
L 37.4299 59.184 
L 37.4299 64.728 
L 37.4299 70.272 
L 37.4299 75.816 
L 37.4299 81.36 
L 37.4299 86.904 
L 37.4299 92.448 
L 37.4299 97.992 
L 37.4299 103.536 
L 37.4299 109.08 
L 37.4299 114.624 
L 37.4299 120.168 
L 37.4299 125.712 
L 37.4299 131.256 
L 37.4299 136.8 
L 37.4299 142.344 
L 37.4299 147.888 
L 37.4299 153.432 
L 37.4299 158.976 
L 37.4299 164.52 
L 37.4299 170.064 
L 37.4299 175.608 
L 37.4299 181.152 
L 37.4299 186.696 
L 37.4299 192.24 
L 37.078004 192.24 
z
" clip-path="url(#p2ba507a90c)" style="fill: #440154"/>
   </g>
   <g id="PathCollection_6">
    <path d="M 37.4299 186.696 
L 37.4299 181.152 
L 37.4299 175.608 
L 37.4299 170.064 
L 37.4299 164.52 
L 37.4299 158.976 
L 37.4299 153.432 
L 37.4299 147.888 
L 37.4299 142.344 
L 37.4299 136.8 
L 37.4299 131.256 
L 37.4299 125.712 
L 37.4299 120.168 
L 37.4299 114.624 
L 37.4299 109.08 
L 37.4299 103.536 
L 37.4299 97.992 
L 37.4299 92.448 
L 37.4299 86.904 
L 37.4299 81.36 
L 37.4299 75.816 
L 37.4299 70.272 
L 37.4299 64.728 
L 37.4299 59.184 
L 37.4299 53.64 
L 37.4299 48.096 
L 37.4299 42.552 
L 37.4299 37.008 
L 37.4299 31.464 
L 37.4299 25.92 
L 37.781797 25.92 
L 37.781797 31.464 
L 37.781797 37.008 
L 37.781797 42.552 
L 37.781797 48.096 
L 37.781797 53.64 
L 37.781797 59.184 
L 37.781797 64.728 
L 37.781797 70.272 
L 37.781797 75.816 
L 37.781797 81.36 
L 37.781797 86.904 
L 37.781797 92.448 
L 37.781797 97.992 
L 37.781797 103.536 
L 37.781797 109.08 
L 37.781797 114.624 
L 37.781797 120.168 
L 37.781797 125.712 
L 37.781797 131.256 
L 37.781797 136.8 
L 37.781797 142.344 
L 37.781797 147.888 
L 37.781797 153.432 
L 37.781797 158.976 
L 37.781797 164.52 
L 37.781797 170.064 
L 37.781797 175.608 
L 37.781797 181.152 
L 37.781797 186.696 
L 37.781797 192.24 
L 37.4299 192.24 
z
" clip-path="url(#p2ba507a90c)" style="fill: #440154"/>
   </g>
   <g id="PathCollection_7">
    <path d="M 37.781797 186.696 
L 37.781797 181.152 
L 37.781797 175.608 
L 37.781797 170.064 
L 37.781797 164.52 
L 37.781797 158.976 
L 37.781797 153.432 
L 37.781797 147.888 
L 37.781797 142.344 
L 37.781797 136.8 
L 37.781797 131.256 
L 37.781797 125.712 
L 37.781797 120.168 
L 37.781797 114.624 
L 37.781797 109.08 
L 37.781797 103.536 
L 37.781797 97.992 
L 37.781797 92.448 
L 37.781797 86.904 
L 37.781797 81.36 
L 37.781797 75.816 
L 37.781797 70.272 
L 37.781797 64.728 
L 37.781797 59.184 
L 37.781797 53.64 
L 37.781797 48.096 
L 37.781797 42.552 
L 37.781797 37.008 
L 37.781797 31.464 
L 37.781797 25.92 
L 38.133693 25.92 
L 38.133693 31.464 
L 38.133693 37.008 
L 38.133693 42.552 
L 38.133693 48.096 
L 38.133693 53.64 
L 38.133693 59.184 
L 38.133693 64.728 
L 38.133693 70.272 
L 38.133693 75.816 
L 38.133693 81.36 
L 38.133693 86.904 
L 38.133693 92.448 
L 38.133693 97.992 
L 38.133693 103.536 
L 38.133693 109.08 
L 38.133693 114.624 
L 38.133693 120.168 
L 38.133693 125.712 
L 38.133693 131.256 
L 38.133693 136.8 
L 38.133693 142.344 
L 38.133693 147.888 
L 38.133693 153.432 
L 38.133693 158.976 
L 38.133693 164.52 
L 38.133693 170.064 
L 38.133693 175.608 
L 38.133693 181.152 
L 38.133693 186.696 
L 38.133693 192.24 
L 37.781797 192.24 
z
" clip-path="url(#p2ba507a90c)" style="fill: #440154"/>
   </g>
   <g id="PathCollection_8">
    <path d="M 38.133693 186.696 
L 38.133693 181.152 
L 38.133693 175.608 
L 38.133693 170.064 
L 38.133693 164.52 
L 38.133693 158.976 
L 38.133693 153.432 
L 38.133693 147.888 
L 38.133693 142.344 
L 38.133693 136.8 
L 38.133693 131.256 
L 38.133693 125.712 
L 38.133693 120.168 
L 38.133693 114.624 
L 38.133693 109.08 
L 38.133693 103.536 
L 38.133693 97.992 
L 38.133693 92.448 
L 38.133693 86.904 
L 38.133693 81.36 
L 38.133693 75.816 
L 38.133693 70.272 
L 38.133693 64.728 
L 38.133693 59.184 
L 38.133693 53.64 
L 38.133693 48.096 
L 38.133693 42.552 
L 38.133693 37.008 
L 38.133693 31.464 
L 38.133693 25.92 
L 38.48559 25.92 
L 38.48559 31.464 
L 38.48559 37.008 
L 38.48559 42.552 
L 38.48559 48.096 
L 38.48559 53.64 
L 38.48559 59.184 
L 38.48559 64.728 
L 38.48559 70.272 
L 38.48559 75.816 
L 38.48559 81.36 
L 38.48559 86.904 
L 38.48559 92.448 
L 38.48559 97.992 
L 38.48559 103.536 
L 38.48559 109.08 
L 38.48559 114.624 
L 38.48559 120.168 
L 38.48559 125.712 
L 38.48559 131.256 
L 38.48559 136.8 
L 38.48559 142.344 
L 38.48559 147.888 
L 38.48559 153.432 
L 38.48559 158.976 
L 38.48559 164.52 
L 38.48559 170.064 
L 38.48559 175.608 
L 38.48559 181.152 
L 38.48559 186.696 
L 38.48559 192.24 
L 38.133693 192.24 
z
" clip-path="url(#p2ba507a90c)" style="fill: #440154"/>
   </g>
   <g id="PathCollection_9">
    <path d="M 38.48559 186.696 
L 38.48559 181.152 
L 38.48559 175.608 
L 38.48559 170.064 
L 38.48559 164.52 
L 38.48559 158.976 
L 38.48559 153.432 
L 38.48559 147.888 
L 38.48559 142.344 
L 38.48559 136.8 
L 38.48559 131.256 
L 38.48559 125.712 
L 38.48559 120.168 
L 38.48559 114.624 
L 38.48559 109.08 
L 38.48559 103.536 
L 38.48559 97.992 
L 38.48559 92.448 
L 38.48559 86.904 
L 38.48559 81.36 
L 38.48559 75.816 
L 38.48559 70.272 
L 38.48559 64.728 
L 38.48559 59.184 
L 38.48559 53.64 
L 38.48559 48.096 
L 38.48559 42.552 
L 38.48559 37.008 
L 38.48559 31.464 
L 38.48559 25.92 
L 38.837486 25.92 
L 38.837486 31.464 
L 38.837486 37.008 
L 38.837486 42.552 
L 38.837486 48.096 
L 38.837486 53.64 
L 38.837486 59.184 
L 38.837486 64.728 
L 38.837486 70.272 
L 38.837486 75.816 
L 38.837486 81.36 
L 38.837486 86.904 
L 38.837486 92.448 
L 38.837486 97.992 
L 38.837486 103.536 
L 38.837486 109.08 
L 38.837486 114.624 
L 38.837486 120.168 
L 38.837486 125.712 
L 38.837486 131.256 
L 38.837486 136.8 
L 38.837486 142.344 
L 38.837486 147.888 
L 38.837486 153.432 
L 38.837486 158.976 
L 38.837486 164.52 
L 38.837486 170.064 
L 38.837486 175.608 
L 38.837486 181.152 
L 38.837486 186.696 
L 38.837486 192.24 
L 38.48559 192.24 
z
" clip-path="url(#p2ba507a90c)" style="fill: #440154"/>
   </g>
   <g id="PathCollection_10">
    <path d="M 38.837486 186.696 
L 38.837486 181.152 
L 38.837486 175.608 
L 38.837486 170.064 
L 38.837486 164.52 
L 38.837486 158.976 
L 38.837486 153.432 
L 38.837486 147.888 
L 38.837486 142.344 
L 38.837486 136.8 
L 38.837486 131.256 
L 38.837486 125.712 
L 38.837486 120.168 
L 38.837486 114.624 
L 38.837486 109.08 
L 38.837486 103.536 
L 38.837486 97.992 
L 38.837486 92.448 
L 38.837486 86.904 
L 38.837486 81.36 
L 38.837486 75.816 
L 38.837486 70.272 
L 38.837486 64.728 
L 38.837486 59.184 
L 38.837486 53.64 
L 38.837486 48.096 
L 38.837486 42.552 
L 38.837486 37.008 
L 38.837486 31.464 
L 38.837486 25.92 
L 39.189382 25.92 
L 39.189382 31.464 
L 39.189382 37.008 
L 39.189382 42.552 
L 39.189382 48.096 
L 39.189382 53.64 
L 39.189382 59.184 
L 39.189382 64.728 
L 39.189382 70.272 
L 39.189382 75.816 
L 39.189382 81.36 
L 39.189382 86.904 
L 39.189382 92.448 
L 39.189382 97.992 
L 39.189382 103.536 
L 39.189382 109.08 
L 39.189382 114.624 
L 39.189382 120.168 
L 39.189382 125.712 
L 39.189382 131.256 
L 39.189382 136.8 
L 39.189382 142.344 
L 39.189382 147.888 
L 39.189382 153.432 
L 39.189382 158.976 
L 39.189382 164.52 
L 39.189382 170.064 
L 39.189382 175.608 
L 39.189382 181.152 
L 39.189382 186.696 
L 39.189382 192.24 
L 38.837486 192.24 
z
" clip-path="url(#p2ba507a90c)" style="fill: #440154"/>
   </g>
   <g id="PathCollection_11">
    <path d="M 39.189382 186.696 
L 39.189382 181.152 
L 39.189382 175.608 
L 39.189382 170.064 
L 39.189382 164.52 
L 39.189382 158.976 
L 39.189382 153.432 
L 39.189382 147.888 
L 39.189382 142.344 
L 39.189382 136.8 
L 39.189382 131.256 
L 39.189382 125.712 
L 39.189382 120.168 
L 39.189382 114.624 
L 39.189382 109.08 
L 39.189382 103.536 
L 39.189382 97.992 
L 39.189382 92.448 
L 39.189382 86.904 
L 39.189382 81.36 
L 39.189382 75.816 
L 39.189382 70.272 
L 39.189382 64.728 
L 39.189382 59.184 
L 39.189382 53.64 
L 39.189382 48.096 
L 39.189382 42.552 
L 39.189382 37.008 
L 39.189382 31.464 
L 39.189382 25.92 
L 39.541279 25.92 
L 39.541279 31.464 
L 39.541279 37.008 
L 39.541279 42.552 
L 39.541279 48.096 
L 39.541279 53.64 
L 39.541279 59.184 
L 39.541279 64.728 
L 39.541279 70.272 
L 39.541279 75.816 
L 39.541279 81.36 
L 39.541279 86.904 
L 39.541279 92.448 
L 39.541279 97.992 
L 39.541279 103.536 
L 39.541279 109.08 
L 39.541279 114.624 
L 39.541279 120.168 
L 39.541279 125.712 
L 39.541279 131.256 
L 39.541279 136.8 
L 39.541279 142.344 
L 39.541279 147.888 
L 39.541279 153.432 
L 39.541279 158.976 
L 39.541279 164.52 
L 39.541279 170.064 
L 39.541279 175.608 
L 39.541279 181.152 
L 39.541279 186.696 
L 39.541279 192.24 
L 39.189382 192.24 
z
" clip-path="url(#p2ba507a90c)" style="fill: #440154"/>
   </g>
   <g id="PathCollection_12">
    <path d="M 39.541279 186.696 
L 39.541279 181.152 
L 39.541279 175.608 
L 39.541279 170.064 
L 39.541279 164.52 
L 39.541279 158.976 
L 39.541279 153.432 
L 39.541279 147.888 
L 39.541279 142.344 
L 39.541279 136.8 
L 39.541279 131.256 
L 39.541279 125.712 
L 39.541279 120.168 
L 39.541279 114.624 
L 39.541279 109.08 
L 39.541279 103.536 
L 39.541279 97.992 
L 39.541279 92.448 
L 39.541279 86.904 
L 39.541279 81.36 
L 39.541279 75.816 
L 39.541279 70.272 
L 39.541279 64.728 
L 39.541279 59.184 
L 39.541279 53.64 
L 39.541279 48.096 
L 39.541279 42.552 
L 39.541279 37.008 
L 39.541279 31.464 
L 39.541279 25.92 
L 39.893175 25.92 
L 39.893175 31.464 
L 39.893175 37.008 
L 39.893175 42.552 
L 39.893175 48.096 
L 39.893175 53.64 
L 39.893175 59.184 
L 39.893175 64.728 
L 39.893175 70.272 
L 39.893175 75.816 
L 39.893175 81.36 
L 39.893175 86.904 
L 39.893175 92.448 
L 39.893175 97.992 
L 39.893175 103.536 
L 39.893175 109.08 
L 39.893175 114.624 
L 39.893175 120.168 
L 39.893175 125.712 
L 39.893175 131.256 
L 39.893175 136.8 
L 39.893175 142.344 
L 39.893175 147.888 
L 39.893175 153.432 
L 39.893175 158.976 
L 39.893175 164.52 
L 39.893175 170.064 
L 39.893175 175.608 
L 39.893175 181.152 
L 39.893175 186.696 
L 39.893175 192.24 
L 39.541279 192.24 
z
" clip-path="url(#p2ba507a90c)" style="fill: #440154"/>
   </g>
   <g id="PathCollection_13">
    <path d="M 39.893175 186.696 
L 39.893175 181.152 
L 39.893175 175.608 
L 39.893175 170.064 
L 39.893175 164.52 
L 39.893175 158.976 
L 39.893175 153.432 
L 39.893175 147.888 
L 39.893175 142.344 
L 39.893175 136.8 
L 39.893175 131.256 
L 39.893175 125.712 
L 39.893175 120.168 
L 39.893175 114.624 
L 39.893175 109.08 
L 39.893175 103.536 
L 39.893175 97.992 
L 39.893175 92.448 
L 39.893175 86.904 
L 39.893175 81.36 
L 39.893175 75.816 
L 39.893175 70.272 
L 39.893175 64.728 
L 39.893175 59.184 
L 39.893175 53.64 
L 39.893175 48.096 
L 39.893175 42.552 
L 39.893175 37.008 
L 39.893175 31.464 
L 39.893175 25.92 
L 40.245072 25.92 
L 40.245072 31.464 
L 40.245072 37.008 
L 40.245072 42.552 
L 40.245072 48.096 
L 40.245072 53.64 
L 40.245072 59.184 
L 40.245072 64.728 
L 40.245072 70.272 
L 40.245072 75.816 
L 40.245072 81.36 
L 40.245072 86.904 
L 40.245072 92.448 
L 40.245072 97.992 
L 40.245072 103.536 
L 40.245072 109.08 
L 40.245072 114.624 
L 40.245072 120.168 
L 40.245072 125.712 
L 40.245072 131.256 
L 40.245072 136.8 
L 40.245072 142.344 
L 40.245072 147.888 
L 40.245072 153.432 
L 40.245072 158.976 
L 40.245072 164.52 
L 40.245072 170.064 
L 40.245072 175.608 
L 40.245072 181.152 
L 40.245072 186.696 
L 40.245072 192.24 
L 39.893175 192.24 
z
" clip-path="url(#p2ba507a90c)" style="fill: #440154"/>
   </g>
   <g id="PathCollection_14">
    <path d="M 40.245072 186.696 
L 40.245072 181.152 
L 40.245072 175.608 
L 40.245072 170.064 
L 40.245072 164.52 
L 40.245072 158.976 
L 40.245072 153.432 
L 40.245072 147.888 
L 40.245072 142.344 
L 40.245072 136.8 
L 40.245072 131.256 
L 40.245072 125.712 
L 40.245072 120.168 
L 40.245072 114.624 
L 40.245072 109.08 
L 40.245072 103.536 
L 40.245072 97.992 
L 40.245072 92.448 
L 40.245072 86.904 
L 40.245072 81.36 
L 40.245072 75.816 
L 40.245072 70.272 
L 40.245072 64.728 
L 40.245072 59.184 
L 40.245072 53.64 
L 40.245072 48.096 
L 40.245072 42.552 
L 40.245072 37.008 
L 40.245072 31.464 
L 40.245072 25.92 
L 40.596968 25.92 
L 40.596968 31.464 
L 40.596968 37.008 
L 40.596968 42.552 
L 40.596968 48.096 
L 40.596968 53.64 
L 40.596968 59.184 
L 40.596968 64.728 
L 40.596968 70.272 
L 40.596968 75.816 
L 40.596968 81.36 
L 40.596968 86.904 
L 40.596968 92.448 
L 40.596968 97.992 
L 40.596968 103.536 
L 40.596968 109.08 
L 40.596968 114.624 
L 40.596968 120.168 
L 40.596968 125.712 
L 40.596968 131.256 
L 40.596968 136.8 
L 40.596968 142.344 
L 40.596968 147.888 
L 40.596968 153.432 
L 40.596968 158.976 
L 40.596968 164.52 
L 40.596968 170.064 
L 40.596968 175.608 
L 40.596968 181.152 
L 40.596968 186.696 
L 40.596968 192.24 
L 40.245072 192.24 
z
" clip-path="url(#p2ba507a90c)" style="fill: #440154"/>
   </g>
   <g id="PathCollection_15">
    <path d="M 40.596968 186.696 
L 40.596968 181.152 
L 40.596968 175.608 
L 40.596968 170.064 
L 40.596968 164.52 
L 40.596968 158.976 
L 40.596968 153.432 
L 40.596968 147.888 
L 40.596968 142.344 
L 40.596968 136.8 
L 40.596968 131.256 
L 40.596968 125.712 
L 40.596968 120.168 
L 40.596968 114.624 
L 40.596968 109.08 
L 40.596968 103.536 
L 40.596968 97.992 
L 40.596968 92.448 
L 40.596968 86.904 
L 40.596968 81.36 
L 40.596968 75.816 
L 40.596968 70.272 
L 40.596968 64.728 
L 40.596968 59.184 
L 40.596968 53.64 
L 40.596968 48.096 
L 40.596968 42.552 
L 40.596968 37.008 
L 40.596968 31.464 
L 40.596968 25.92 
L 40.948864 25.92 
L 40.948864 31.464 
L 40.948864 37.008 
L 40.948864 42.552 
L 40.948864 48.096 
L 40.948864 53.64 
L 40.948864 59.184 
L 40.948864 64.728 
L 40.948864 70.272 
L 40.948864 75.816 
L 40.948864 81.36 
L 40.948864 86.904 
L 40.948864 92.448 
L 40.948864 97.992 
L 40.948864 103.536 
L 40.948864 109.08 
L 40.948864 114.624 
L 40.948864 120.168 
L 40.948864 125.712 
L 40.948864 131.256 
L 40.948864 136.8 
L 40.948864 142.344 
L 40.948864 147.888 
L 40.948864 153.432 
L 40.948864 158.976 
L 40.948864 164.52 
L 40.948864 170.064 
L 40.948864 175.608 
L 40.948864 181.152 
L 40.948864 186.696 
L 40.948864 192.24 
L 40.596968 192.24 
z
" clip-path="url(#p2ba507a90c)" style="fill: #440154"/>
   </g>
   <g id="PathCollection_16">
    <path d="M 40.948864 186.696 
L 40.948864 181.152 
L 40.948864 175.608 
L 40.948864 170.064 
L 40.948864 164.52 
L 40.948864 158.976 
L 40.948864 153.432 
L 40.948864 147.888 
L 40.948864 142.344 
L 40.948864 136.8 
L 40.948864 131.256 
L 40.948864 125.712 
L 40.948864 120.168 
L 40.948864 114.624 
L 40.948864 109.08 
L 40.948864 103.536 
L 40.948864 97.992 
L 40.948864 92.448 
L 40.948864 86.904 
L 40.948864 81.36 
L 40.948864 75.816 
L 40.948864 70.272 
L 40.948864 64.728 
L 40.948864 59.184 
L 40.948864 53.64 
L 40.948864 48.096 
L 40.948864 42.552 
L 40.948864 37.008 
L 40.948864 31.464 
L 40.948864 25.92 
L 41.300761 25.92 
L 41.300761 31.464 
L 41.300761 37.008 
L 41.300761 42.552 
L 41.300761 48.096 
L 41.300761 53.64 
L 41.300761 59.184 
L 41.300761 64.728 
L 41.300761 70.272 
L 41.300761 75.816 
L 41.300761 81.36 
L 41.300761 86.904 
L 41.300761 92.448 
L 41.300761 97.992 
L 41.300761 103.536 
L 41.300761 109.08 
L 41.300761 114.624 
L 41.300761 120.168 
L 41.300761 125.712 
L 41.300761 131.256 
L 41.300761 136.8 
L 41.300761 142.344 
L 41.300761 147.888 
L 41.300761 153.432 
L 41.300761 158.976 
L 41.300761 164.52 
L 41.300761 170.064 
L 41.300761 175.608 
L 41.300761 181.152 
L 41.300761 186.696 
L 41.300761 192.24 
L 40.948864 192.24 
z
" clip-path="url(#p2ba507a90c)" style="fill: #481b6d"/>
   </g>
   <g id="PathCollection_17">
    <path d="M 41.300761 186.696 
L 41.300761 181.152 
L 41.300761 175.608 
L 41.300761 170.064 
L 41.300761 164.52 
L 41.300761 158.976 
L 41.300761 153.432 
L 41.300761 147.888 
L 41.300761 142.344 
L 41.300761 136.8 
L 41.300761 131.256 
L 41.300761 125.712 
L 41.300761 120.168 
L 41.300761 114.624 
L 41.300761 109.08 
L 41.300761 103.536 
L 41.300761 97.992 
L 41.300761 92.448 
L 41.300761 86.904 
L 41.300761 81.36 
L 41.300761 75.816 
L 41.300761 70.272 
L 41.300761 64.728 
L 41.300761 59.184 
L 41.300761 53.64 
L 41.300761 48.096 
L 41.300761 42.552 
L 41.300761 37.008 
L 41.300761 31.464 
L 41.300761 25.92 
L 41.652657 25.92 
L 41.652657 31.464 
L 41.652657 37.008 
L 41.652657 42.552 
L 41.652657 48.096 
L 41.652657 53.64 
L 41.652657 59.184 
L 41.652657 64.728 
L 41.652657 70.272 
L 41.652657 75.816 
L 41.652657 81.36 
L 41.652657 86.904 
L 41.652657 92.448 
L 41.652657 97.992 
L 41.652657 103.536 
L 41.652657 109.08 
L 41.652657 114.624 
L 41.652657 120.168 
L 41.652657 125.712 
L 41.652657 131.256 
L 41.652657 136.8 
L 41.652657 142.344 
L 41.652657 147.888 
L 41.652657 153.432 
L 41.652657 158.976 
L 41.652657 164.52 
L 41.652657 170.064 
L 41.652657 175.608 
L 41.652657 181.152 
L 41.652657 186.696 
L 41.652657 192.24 
L 41.300761 192.24 
z
" clip-path="url(#p2ba507a90c)" style="fill: #46307e"/>
   </g>
   <g id="PathCollection_18">
    <path d="M 41.652657 186.696 
L 41.652657 181.152 
L 41.652657 175.608 
L 41.652657 170.064 
L 41.652657 164.52 
L 41.652657 158.976 
L 41.652657 153.432 
L 41.652657 147.888 
L 41.652657 142.344 
L 41.652657 136.8 
L 41.652657 131.256 
L 41.652657 125.712 
L 41.652657 120.168 
L 41.652657 114.624 
L 41.652657 109.08 
L 41.652657 103.536 
L 41.652657 97.992 
L 41.652657 92.448 
L 41.652657 86.904 
L 41.652657 81.36 
L 41.652657 75.816 
L 41.652657 70.272 
L 41.652657 64.728 
L 41.652657 59.184 
L 41.652657 53.64 
L 41.652657 48.096 
L 41.652657 42.552 
L 41.652657 37.008 
L 41.652657 31.464 
L 41.652657 25.92 
L 41.952 25.92 
L 42.09771 25.92 
L 42.09771 31.464 
L 42.09771 37.008 
L 42.09771 42.552 
L 42.09771 48.096 
L 42.09771 53.64 
L 42.09771 59.184 
L 42.09771 64.728 
L 42.09771 70.272 
L 42.09771 75.816 
L 42.09771 81.36 
L 42.09771 86.904 
L 42.09771 92.448 
L 42.09771 97.992 
L 42.09771 103.536 
L 42.09771 109.08 
L 42.09771 114.624 
L 42.09771 120.168 
L 42.09771 125.712 
L 42.09771 131.256 
L 42.09771 136.8 
L 42.09771 142.344 
L 42.09771 147.888 
L 42.09771 153.432 
L 42.09771 158.976 
L 42.09771 164.52 
L 42.09771 170.064 
L 42.09771 175.608 
L 42.09771 181.152 
L 42.09771 186.696 
L 42.09771 192.24 
L 41.952 192.24 
L 41.652657 192.24 
z
" clip-path="url(#p2ba507a90c)" style="fill: #404688"/>
    <path d="M 199.802521 186.696 
L 199.802521 181.152 
L 199.802521 175.608 
L 199.802521 170.064 
L 199.802521 164.52 
L 199.802521 158.976 
L 199.802521 153.432 
L 199.802521 147.888 
L 199.802521 142.344 
L 199.802521 136.8 
L 199.802521 131.256 
L 199.802521 125.712 
L 199.802521 120.168 
L 199.802521 114.624 
L 199.802521 109.08 
L 199.802521 103.536 
L 199.802521 97.992 
L 199.802521 92.448 
L 199.802521 86.904 
L 199.802521 81.36 
L 199.802521 75.816 
L 199.802521 70.272 
L 199.802521 64.728 
L 199.802521 59.184 
L 199.802521 53.64 
L 199.802521 48.096 
L 199.802521 42.552 
L 199.802521 37.008 
L 199.802521 31.464 
L 199.802521 25.92 
L 202.656 25.92 
L 208.608 25.92 
L 214.56 25.92 
L 214.56 31.464 
L 214.56 37.008 
L 214.56 42.552 
L 214.56 48.096 
L 214.56 53.64 
L 214.56 59.184 
L 214.56 64.728 
L 214.56 70.272 
L 214.56 75.816 
L 214.56 81.36 
L 214.56 86.904 
L 214.56 92.448 
L 214.56 97.992 
L 214.56 103.536 
L 214.56 109.08 
L 214.56 114.624 
L 214.56 120.168 
L 214.56 125.712 
L 214.56 131.256 
L 214.56 136.8 
L 214.56 142.344 
L 214.56 147.888 
L 214.56 153.432 
L 214.56 158.976 
L 214.56 164.52 
L 214.56 170.064 
L 214.56 175.608 
L 214.56 181.152 
L 214.56 186.696 
L 214.56 192.24 
L 208.608 192.24 
L 202.656 192.24 
L 199.802521 192.24 
z
" clip-path="url(#p2ba507a90c)" style="fill: #404688"/>
   </g>
   <g id="PathCollection_19">
    <path d="M 42.09771 186.696 
L 42.09771 181.152 
L 42.09771 175.608 
L 42.09771 170.064 
L 42.09771 164.52 
L 42.09771 158.976 
L 42.09771 153.432 
L 42.09771 147.888 
L 42.09771 142.344 
L 42.09771 136.8 
L 42.09771 131.256 
L 42.09771 125.712 
L 42.09771 120.168 
L 42.09771 114.624 
L 42.09771 109.08 
L 42.09771 103.536 
L 42.09771 97.992 
L 42.09771 92.448 
L 42.09771 86.904 
L 42.09771 81.36 
L 42.09771 75.816 
L 42.09771 70.272 
L 42.09771 64.728 
L 42.09771 59.184 
L 42.09771 53.64 
L 42.09771 48.096 
L 42.09771 42.552 
L 42.09771 37.008 
L 42.09771 31.464 
L 42.09771 25.92 
L 43.073379 25.92 
L 43.073379 31.464 
L 43.073379 37.008 
L 43.073379 42.552 
L 43.073379 48.096 
L 43.073379 53.64 
L 43.073379 59.184 
L 43.073379 64.728 
L 43.073379 70.272 
L 43.073379 75.816 
L 43.073379 81.36 
L 43.073379 86.904 
L 43.073379 92.448 
L 43.073379 97.992 
L 43.073379 103.536 
L 43.073379 109.08 
L 43.073379 114.624 
L 43.073379 120.168 
L 43.073379 125.712 
L 43.073379 131.256 
L 43.073379 136.8 
L 43.073379 142.344 
L 43.073379 147.888 
L 43.073379 153.432 
L 43.073379 158.976 
L 43.073379 164.52 
L 43.073379 170.064 
L 43.073379 175.608 
L 43.073379 181.152 
L 43.073379 186.696 
L 43.073379 192.24 
L 42.09771 192.24 
z
" clip-path="url(#p2ba507a90c)" style="fill: #38598c"/>
    <path d="M 185.104044 186.696 
L 185.104044 181.152 
L 185.104044 175.608 
L 185.104044 170.064 
L 185.104044 164.52 
L 185.104044 158.976 
L 185.104044 153.432 
L 185.104044 147.888 
L 185.104044 142.344 
L 185.104044 136.8 
L 185.104044 131.256 
L 185.104044 125.712 
L 185.104044 120.168 
L 185.104044 114.624 
L 185.104044 109.08 
L 185.104044 103.536 
L 185.104044 97.992 
L 185.104044 92.448 
L 185.104044 86.904 
L 185.104044 81.36 
L 185.104044 75.816 
L 185.104044 70.272 
L 185.104044 64.728 
L 185.104044 59.184 
L 185.104044 53.64 
L 185.104044 48.096 
L 185.104044 42.552 
L 185.104044 37.008 
L 185.104044 31.464 
L 185.104044 25.92 
L 190.752 25.92 
L 196.704 25.92 
L 199.802521 25.92 
L 199.802521 31.464 
L 199.802521 37.008 
L 199.802521 42.552 
L 199.802521 48.096 
L 199.802521 53.64 
L 199.802521 59.184 
L 199.802521 64.728 
L 199.802521 70.272 
L 199.802521 75.816 
L 199.802521 81.36 
L 199.802521 86.904 
L 199.802521 92.448 
L 199.802521 97.992 
L 199.802521 103.536 
L 199.802521 109.08 
L 199.802521 114.624 
L 199.802521 120.168 
L 199.802521 125.712 
L 199.802521 131.256 
L 199.802521 136.8 
L 199.802521 142.344 
L 199.802521 147.888 
L 199.802521 153.432 
L 199.802521 158.976 
L 199.802521 164.52 
L 199.802521 170.064 
L 199.802521 175.608 
L 199.802521 181.152 
L 199.802521 186.696 
L 199.802521 192.24 
L 196.704 192.24 
L 190.752 192.24 
L 185.104044 192.24 
z
" clip-path="url(#p2ba507a90c)" style="fill: #38598c"/>
   </g>
   <g id="PathCollection_20">
    <path d="M 43.073379 186.696 
L 43.073379 181.152 
L 43.073379 175.608 
L 43.073379 170.064 
L 43.073379 164.52 
L 43.073379 158.976 
L 43.073379 153.432 
L 43.073379 147.888 
L 43.073379 142.344 
L 43.073379 136.8 
L 43.073379 131.256 
L 43.073379 125.712 
L 43.073379 120.168 
L 43.073379 114.624 
L 43.073379 109.08 
L 43.073379 103.536 
L 43.073379 97.992 
L 43.073379 92.448 
L 43.073379 86.904 
L 43.073379 81.36 
L 43.073379 75.816 
L 43.073379 70.272 
L 43.073379 64.728 
L 43.073379 59.184 
L 43.073379 53.64 
L 43.073379 48.096 
L 43.073379 42.552 
L 43.073379 37.008 
L 43.073379 31.464 
L 43.073379 25.92 
L 44.049048 25.92 
L 44.049048 31.464 
L 44.049048 37.008 
L 44.049048 42.552 
L 44.049048 48.096 
L 44.049048 53.64 
L 44.049048 59.184 
L 44.049048 64.728 
L 44.049048 70.272 
L 44.049048 75.816 
L 44.049048 81.36 
L 44.049048 86.904 
L 44.049048 92.448 
L 44.049048 97.992 
L 44.049048 103.536 
L 44.049048 109.08 
L 44.049048 114.624 
L 44.049048 120.168 
L 44.049048 125.712 
L 44.049048 131.256 
L 44.049048 136.8 
L 44.049048 142.344 
L 44.049048 147.888 
L 44.049048 153.432 
L 44.049048 158.976 
L 44.049048 164.52 
L 44.049048 170.064 
L 44.049048 175.608 
L 44.049048 181.152 
L 44.049048 186.696 
L 44.049048 192.24 
L 43.073379 192.24 
z
" clip-path="url(#p2ba507a90c)" style="fill: #2f6b8e"/>
    <path d="M 171.250902 186.696 
L 171.250902 181.152 
L 171.250902 175.608 
L 171.250902 170.064 
L 171.250902 164.52 
L 171.250902 158.976 
L 171.250902 153.432 
L 171.250902 147.888 
L 171.250902 142.344 
L 171.250902 136.8 
L 171.250902 131.256 
L 171.250902 125.712 
L 171.250902 120.168 
L 171.250902 114.624 
L 171.250902 109.08 
L 171.250902 103.536 
L 171.250902 97.992 
L 171.250902 92.448 
L 171.250902 86.904 
L 171.250902 81.36 
L 171.250902 75.816 
L 171.250902 70.272 
L 171.250902 64.728 
L 171.250902 59.184 
L 171.250902 53.64 
L 171.250902 48.096 
L 171.250902 42.552 
L 171.250902 37.008 
L 171.250902 31.464 
L 171.250902 25.92 
L 172.896 25.92 
L 178.848 25.92 
L 184.8 25.92 
L 185.104044 25.92 
L 185.104044 31.464 
L 185.104044 37.008 
L 185.104044 42.552 
L 185.104044 48.096 
L 185.104044 53.64 
L 185.104044 59.184 
L 185.104044 64.728 
L 185.104044 70.272 
L 185.104044 75.816 
L 185.104044 81.36 
L 185.104044 86.904 
L 185.104044 92.448 
L 185.104044 97.992 
L 185.104044 103.536 
L 185.104044 109.08 
L 185.104044 114.624 
L 185.104044 120.168 
L 185.104044 125.712 
L 185.104044 131.256 
L 185.104044 136.8 
L 185.104044 142.344 
L 185.104044 147.888 
L 185.104044 153.432 
L 185.104044 158.976 
L 185.104044 164.52 
L 185.104044 170.064 
L 185.104044 175.608 
L 185.104044 181.152 
L 185.104044 186.696 
L 185.104044 192.24 
L 184.8 192.24 
L 178.848 192.24 
L 172.896 192.24 
L 171.250902 192.24 
z
" clip-path="url(#p2ba507a90c)" style="fill: #2f6b8e"/>
   </g>
   <g id="PathCollection_21">
    <path d="M 44.049048 186.696 
L 44.049048 181.152 
L 44.049048 175.608 
L 44.049048 170.064 
L 44.049048 164.52 
L 44.049048 158.976 
L 44.049048 153.432 
L 44.049048 147.888 
L 44.049048 142.344 
L 44.049048 136.8 
L 44.049048 131.256 
L 44.049048 125.712 
L 44.049048 120.168 
L 44.049048 114.624 
L 44.049048 109.08 
L 44.049048 103.536 
L 44.049048 97.992 
L 44.049048 92.448 
L 44.049048 86.904 
L 44.049048 81.36 
L 44.049048 75.816 
L 44.049048 70.272 
L 44.049048 64.728 
L 44.049048 59.184 
L 44.049048 53.64 
L 44.049048 48.096 
L 44.049048 42.552 
L 44.049048 37.008 
L 44.049048 31.464 
L 44.049048 25.92 
L 45.024717 25.92 
L 45.024717 31.464 
L 45.024717 37.008 
L 45.024717 42.552 
L 45.024717 48.096 
L 45.024717 53.64 
L 45.024717 59.184 
L 45.024717 64.728 
L 45.024717 70.272 
L 45.024717 75.816 
L 45.024717 81.36 
L 45.024717 86.904 
L 45.024717 92.448 
L 45.024717 97.992 
L 45.024717 103.536 
L 45.024717 109.08 
L 45.024717 114.624 
L 45.024717 120.168 
L 45.024717 125.712 
L 45.024717 131.256 
L 45.024717 136.8 
L 45.024717 142.344 
L 45.024717 147.888 
L 45.024717 153.432 
L 45.024717 158.976 
L 45.024717 164.52 
L 45.024717 170.064 
L 45.024717 175.608 
L 45.024717 181.152 
L 45.024717 186.696 
L 45.024717 192.24 
L 44.049048 192.24 
z
" clip-path="url(#p2ba507a90c)" style="fill: #287c8e"/>
    <path d="M 158.13228 186.696 
L 158.13228 181.152 
L 158.13228 175.608 
L 158.13228 170.064 
L 158.13228 164.52 
L 158.13228 158.976 
L 158.13228 153.432 
L 158.13228 147.888 
L 158.13228 142.344 
L 158.13228 136.8 
L 158.13228 131.256 
L 158.13228 125.712 
L 158.13228 120.168 
L 158.13228 114.624 
L 158.13228 109.08 
L 158.13228 103.536 
L 158.13228 97.992 
L 158.13228 92.448 
L 158.13228 86.904 
L 158.13228 81.36 
L 158.13228 75.816 
L 158.13228 70.272 
L 158.13228 64.728 
L 158.13228 59.184 
L 158.13228 53.64 
L 158.13228 48.096 
L 158.13228 42.552 
L 158.13228 37.008 
L 158.13228 31.464 
L 158.13228 25.92 
L 160.992 25.92 
L 166.944 25.92 
L 171.250902 25.92 
L 171.250902 31.464 
L 171.250902 37.008 
L 171.250902 42.552 
L 171.250902 48.096 
L 171.250902 53.64 
L 171.250902 59.184 
L 171.250902 64.728 
L 171.250902 70.272 
L 171.250902 75.816 
L 171.250902 81.36 
L 171.250902 86.904 
L 171.250902 92.448 
L 171.250902 97.992 
L 171.250902 103.536 
L 171.250902 109.08 
L 171.250902 114.624 
L 171.250902 120.168 
L 171.250902 125.712 
L 171.250902 131.256 
L 171.250902 136.8 
L 171.250902 142.344 
L 171.250902 147.888 
L 171.250902 153.432 
L 171.250902 158.976 
L 171.250902 164.52 
L 171.250902 170.064 
L 171.250902 175.608 
L 171.250902 181.152 
L 171.250902 186.696 
L 171.250902 192.24 
L 166.944 192.24 
L 160.992 192.24 
L 158.13228 192.24 
z
" clip-path="url(#p2ba507a90c)" style="fill: #287c8e"/>
   </g>
   <g id="PathCollection_22">
    <path d="M 45.024717 186.696 
L 45.024717 181.152 
L 45.024717 175.608 
L 45.024717 170.064 
L 45.024717 164.52 
L 45.024717 158.976 
L 45.024717 153.432 
L 45.024717 147.888 
L 45.024717 142.344 
L 45.024717 136.8 
L 45.024717 131.256 
L 45.024717 125.712 
L 45.024717 120.168 
L 45.024717 114.624 
L 45.024717 109.08 
L 45.024717 103.536 
L 45.024717 97.992 
L 45.024717 92.448 
L 45.024717 86.904 
L 45.024717 81.36 
L 45.024717 75.816 
L 45.024717 70.272 
L 45.024717 64.728 
L 45.024717 59.184 
L 45.024717 53.64 
L 45.024717 48.096 
L 45.024717 42.552 
L 45.024717 37.008 
L 45.024717 31.464 
L 45.024717 25.92 
L 46.000386 25.92 
L 46.000386 31.464 
L 46.000386 37.008 
L 46.000386 42.552 
L 46.000386 48.096 
L 46.000386 53.64 
L 46.000386 59.184 
L 46.000386 64.728 
L 46.000386 70.272 
L 46.000386 75.816 
L 46.000386 81.36 
L 46.000386 86.904 
L 46.000386 92.448 
L 46.000386 97.992 
L 46.000386 103.536 
L 46.000386 109.08 
L 46.000386 114.624 
L 46.000386 120.168 
L 46.000386 125.712 
L 46.000386 131.256 
L 46.000386 136.8 
L 46.000386 142.344 
L 46.000386 147.888 
L 46.000386 153.432 
L 46.000386 158.976 
L 46.000386 164.52 
L 46.000386 170.064 
L 46.000386 175.608 
L 46.000386 181.152 
L 46.000386 186.696 
L 46.000386 192.24 
L 45.024717 192.24 
z
" clip-path="url(#p2ba507a90c)" style="fill: #228c8d"/>
    <path d="M 145.668589 186.696 
L 145.668589 181.152 
L 145.668589 175.608 
L 145.668589 170.064 
L 145.668589 164.52 
L 145.668589 158.976 
L 145.668589 153.432 
L 145.668589 147.888 
L 145.668589 142.344 
L 145.668589 136.8 
L 145.668589 131.256 
L 145.668589 125.712 
L 145.668589 120.168 
L 145.668589 114.624 
L 145.668589 109.08 
L 145.668589 103.536 
L 145.668589 97.992 
L 145.668589 92.448 
L 145.668589 86.904 
L 145.668589 81.36 
L 145.668589 75.816 
L 145.668589 70.272 
L 145.668589 64.728 
L 145.668589 59.184 
L 145.668589 53.64 
L 145.668589 48.096 
L 145.668589 42.552 
L 145.668589 37.008 
L 145.668589 31.464 
L 145.668589 25.92 
L 149.088 25.92 
L 155.04 25.92 
L 158.13228 25.92 
L 158.13228 31.464 
L 158.13228 37.008 
L 158.13228 42.552 
L 158.13228 48.096 
L 158.13228 53.64 
L 158.13228 59.184 
L 158.13228 64.728 
L 158.13228 70.272 
L 158.13228 75.816 
L 158.13228 81.36 
L 158.13228 86.904 
L 158.13228 92.448 
L 158.13228 97.992 
L 158.13228 103.536 
L 158.13228 109.08 
L 158.13228 114.624 
L 158.13228 120.168 
L 158.13228 125.712 
L 158.13228 131.256 
L 158.13228 136.8 
L 158.13228 142.344 
L 158.13228 147.888 
L 158.13228 153.432 
L 158.13228 158.976 
L 158.13228 164.52 
L 158.13228 170.064 
L 158.13228 175.608 
L 158.13228 181.152 
L 158.13228 186.696 
L 158.13228 192.24 
L 155.04 192.24 
L 149.088 192.24 
L 145.668589 192.24 
z
" clip-path="url(#p2ba507a90c)" style="fill: #228c8d"/>
   </g>
   <g id="PathCollection_23">
    <path d="M 46.000386 186.696 
L 46.000386 181.152 
L 46.000386 175.608 
L 46.000386 170.064 
L 46.000386 164.52 
L 46.000386 158.976 
L 46.000386 153.432 
L 46.000386 147.888 
L 46.000386 142.344 
L 46.000386 136.8 
L 46.000386 131.256 
L 46.000386 125.712 
L 46.000386 120.168 
L 46.000386 114.624 
L 46.000386 109.08 
L 46.000386 103.536 
L 46.000386 97.992 
L 46.000386 92.448 
L 46.000386 86.904 
L 46.000386 81.36 
L 46.000386 75.816 
L 46.000386 70.272 
L 46.000386 64.728 
L 46.000386 59.184 
L 46.000386 53.64 
L 46.000386 48.096 
L 46.000386 42.552 
L 46.000386 37.008 
L 46.000386 31.464 
L 46.000386 25.92 
L 46.976055 25.92 
L 46.976055 31.464 
L 46.976055 37.008 
L 46.976055 42.552 
L 46.976055 48.096 
L 46.976055 53.64 
L 46.976055 59.184 
L 46.976055 64.728 
L 46.976055 70.272 
L 46.976055 75.816 
L 46.976055 81.36 
L 46.976055 86.904 
L 46.976055 92.448 
L 46.976055 97.992 
L 46.976055 103.536 
L 46.976055 109.08 
L 46.976055 114.624 
L 46.976055 120.168 
L 46.976055 125.712 
L 46.976055 131.256 
L 46.976055 136.8 
L 46.976055 142.344 
L 46.976055 147.888 
L 46.976055 153.432 
L 46.976055 158.976 
L 46.976055 164.52 
L 46.976055 170.064 
L 46.976055 175.608 
L 46.976055 181.152 
L 46.976055 186.696 
L 46.976055 192.24 
L 46.000386 192.24 
z
" clip-path="url(#p2ba507a90c)" style="fill: #1e9d89"/>
    <path d="M 133.770468 186.696 
L 133.770468 181.152 
L 133.770468 175.608 
L 133.770468 170.064 
L 133.770468 164.52 
L 133.770468 158.976 
L 133.770468 153.432 
L 133.770468 147.888 
L 133.770468 142.344 
L 133.770468 136.8 
L 133.770468 131.256 
L 133.770468 125.712 
L 133.770468 120.168 
L 133.770468 114.624 
L 133.770468 109.08 
L 133.770468 103.536 
L 133.770468 97.992 
L 133.770468 92.448 
L 133.770468 86.904 
L 133.770468 81.36 
L 133.770468 75.816 
L 133.770468 70.272 
L 133.770468 64.728 
L 133.770468 59.184 
L 133.770468 53.64 
L 133.770468 48.096 
L 133.770468 42.552 
L 133.770468 37.008 
L 133.770468 31.464 
L 133.770468 25.92 
L 137.184 25.92 
L 143.136 25.92 
L 145.668589 25.92 
L 145.668589 31.464 
L 145.668589 37.008 
L 145.668589 42.552 
L 145.668589 48.096 
L 145.668589 53.64 
L 145.668589 59.184 
L 145.668589 64.728 
L 145.668589 70.272 
L 145.668589 75.816 
L 145.668589 81.36 
L 145.668589 86.904 
L 145.668589 92.448 
L 145.668589 97.992 
L 145.668589 103.536 
L 145.668589 109.08 
L 145.668589 114.624 
L 145.668589 120.168 
L 145.668589 125.712 
L 145.668589 131.256 
L 145.668589 136.8 
L 145.668589 142.344 
L 145.668589 147.888 
L 145.668589 153.432 
L 145.668589 158.976 
L 145.668589 164.52 
L 145.668589 170.064 
L 145.668589 175.608 
L 145.668589 181.152 
L 145.668589 186.696 
L 145.668589 192.24 
L 143.136 192.24 
L 137.184 192.24 
L 133.770468 192.24 
z
" clip-path="url(#p2ba507a90c)" style="fill: #1e9d89"/>
   </g>
   <g id="PathCollection_24">
    <path d="M 46.976055 186.696 
L 46.976055 181.152 
L 46.976055 175.608 
L 46.976055 170.064 
L 46.976055 164.52 
L 46.976055 158.976 
L 46.976055 153.432 
L 46.976055 147.888 
L 46.976055 142.344 
L 46.976055 136.8 
L 46.976055 131.256 
L 46.976055 125.712 
L 46.976055 120.168 
L 46.976055 114.624 
L 46.976055 109.08 
L 46.976055 103.536 
L 46.976055 97.992 
L 46.976055 92.448 
L 46.976055 86.904 
L 46.976055 81.36 
L 46.976055 75.816 
L 46.976055 70.272 
L 46.976055 64.728 
L 46.976055 59.184 
L 46.976055 53.64 
L 46.976055 48.096 
L 46.976055 42.552 
L 46.976055 37.008 
L 46.976055 31.464 
L 46.976055 25.92 
L 47.904 25.92 
L 48.016435 25.92 
L 48.016435 31.464 
L 48.016435 37.008 
L 48.016435 42.552 
L 48.016435 48.096 
L 48.016435 53.64 
L 48.016435 59.184 
L 48.016435 64.728 
L 48.016435 70.272 
L 48.016435 75.816 
L 48.016435 81.36 
L 48.016435 86.904 
L 48.016435 92.448 
L 48.016435 97.992 
L 48.016435 103.536 
L 48.016435 109.08 
L 48.016435 114.624 
L 48.016435 120.168 
L 48.016435 125.712 
L 48.016435 131.256 
L 48.016435 136.8 
L 48.016435 142.344 
L 48.016435 147.888 
L 48.016435 153.432 
L 48.016435 158.976 
L 48.016435 164.52 
L 48.016435 170.064 
L 48.016435 175.608 
L 48.016435 181.152 
L 48.016435 186.696 
L 48.016435 192.24 
L 47.904 192.24 
L 46.976055 192.24 
z
" clip-path="url(#p2ba507a90c)" style="fill: #27ad81"/>
    <path d="M 122.321919 186.696 
L 122.321919 181.152 
L 122.321919 175.608 
L 122.321919 170.064 
L 122.321919 164.52 
L 122.321919 158.976 
L 122.321919 153.432 
L 122.321919 147.888 
L 122.321919 142.344 
L 122.321919 136.8 
L 122.321919 131.256 
L 122.321919 125.712 
L 122.321919 120.168 
L 122.321919 114.624 
L 122.321919 109.08 
L 122.321919 103.536 
L 122.321919 97.992 
L 122.321919 92.448 
L 122.321919 86.904 
L 122.321919 81.36 
L 122.321919 75.816 
L 122.321919 70.272 
L 122.321919 64.728 
L 122.321919 59.184 
L 122.321919 53.64 
L 122.321919 48.096 
L 122.321919 42.552 
L 122.321919 37.008 
L 122.321919 31.464 
L 122.321919 25.92 
L 125.28 25.92 
L 131.232 25.92 
L 133.770468 25.92 
L 133.770468 31.464 
L 133.770468 37.008 
L 133.770468 42.552 
L 133.770468 48.096 
L 133.770468 53.64 
L 133.770468 59.184 
L 133.770468 64.728 
L 133.770468 70.272 
L 133.770468 75.816 
L 133.770468 81.36 
L 133.770468 86.904 
L 133.770468 92.448 
L 133.770468 97.992 
L 133.770468 103.536 
L 133.770468 109.08 
L 133.770468 114.624 
L 133.770468 120.168 
L 133.770468 125.712 
L 133.770468 131.256 
L 133.770468 136.8 
L 133.770468 142.344 
L 133.770468 147.888 
L 133.770468 153.432 
L 133.770468 158.976 
L 133.770468 164.52 
L 133.770468 170.064 
L 133.770468 175.608 
L 133.770468 181.152 
L 133.770468 186.696 
L 133.770468 192.24 
L 131.232 192.24 
L 125.28 192.24 
L 122.321919 192.24 
z
" clip-path="url(#p2ba507a90c)" style="fill: #27ad81"/>
   </g>
   <g id="PathCollection_25">
    <path d="M 48.016435 186.696 
L 48.016435 181.152 
L 48.016435 175.608 
L 48.016435 170.064 
L 48.016435 164.52 
L 48.016435 158.976 
L 48.016435 153.432 
L 48.016435 147.888 
L 48.016435 142.344 
L 48.016435 136.8 
L 48.016435 131.256 
L 48.016435 125.712 
L 48.016435 120.168 
L 48.016435 114.624 
L 48.016435 109.08 
L 48.016435 103.536 
L 48.016435 97.992 
L 48.016435 92.448 
L 48.016435 86.904 
L 48.016435 81.36 
L 48.016435 75.816 
L 48.016435 70.272 
L 48.016435 64.728 
L 48.016435 59.184 
L 48.016435 53.64 
L 48.016435 48.096 
L 48.016435 42.552 
L 48.016435 37.008 
L 48.016435 31.464 
L 48.016435 25.92 
L 50.315079 25.92 
L 50.315079 31.464 
L 50.315079 37.008 
L 50.315079 42.552 
L 50.315079 48.096 
L 50.315079 53.64 
L 50.315079 59.184 
L 50.315079 64.728 
L 50.315079 70.272 
L 50.315079 75.816 
L 50.315079 81.36 
L 50.315079 86.904 
L 50.315079 92.448 
L 50.315079 97.992 
L 50.315079 103.536 
L 50.315079 109.08 
L 50.315079 114.624 
L 50.315079 120.168 
L 50.315079 125.712 
L 50.315079 131.256 
L 50.315079 136.8 
L 50.315079 142.344 
L 50.315079 147.888 
L 50.315079 153.432 
L 50.315079 158.976 
L 50.315079 164.52 
L 50.315079 170.064 
L 50.315079 175.608 
L 50.315079 181.152 
L 50.315079 186.696 
L 50.315079 192.24 
L 48.016435 192.24 
z
" clip-path="url(#p2ba507a90c)" style="fill: #3fbc73"/>
    <path d="M 111.158387 186.696 
L 111.158387 181.152 
L 111.158387 175.608 
L 111.158387 170.064 
L 111.158387 164.52 
L 111.158387 158.976 
L 111.158387 153.432 
L 111.158387 147.888 
L 111.158387 142.344 
L 111.158387 136.8 
L 111.158387 131.256 
L 111.158387 125.712 
L 111.158387 120.168 
L 111.158387 114.624 
L 111.158387 109.08 
L 111.158387 103.536 
L 111.158387 97.992 
L 111.158387 92.448 
L 111.158387 86.904 
L 111.158387 81.36 
L 111.158387 75.816 
L 111.158387 70.272 
L 111.158387 64.728 
L 111.158387 59.184 
L 111.158387 53.64 
L 111.158387 48.096 
L 111.158387 42.552 
L 111.158387 37.008 
L 111.158387 31.464 
L 111.158387 25.92 
L 113.376 25.92 
L 119.328 25.92 
L 122.321919 25.92 
L 122.321919 31.464 
L 122.321919 37.008 
L 122.321919 42.552 
L 122.321919 48.096 
L 122.321919 53.64 
L 122.321919 59.184 
L 122.321919 64.728 
L 122.321919 70.272 
L 122.321919 75.816 
L 122.321919 81.36 
L 122.321919 86.904 
L 122.321919 92.448 
L 122.321919 97.992 
L 122.321919 103.536 
L 122.321919 109.08 
L 122.321919 114.624 
L 122.321919 120.168 
L 122.321919 125.712 
L 122.321919 131.256 
L 122.321919 136.8 
L 122.321919 142.344 
L 122.321919 147.888 
L 122.321919 153.432 
L 122.321919 158.976 
L 122.321919 164.52 
L 122.321919 170.064 
L 122.321919 175.608 
L 122.321919 181.152 
L 122.321919 186.696 
L 122.321919 192.24 
L 119.328 192.24 
L 113.376 192.24 
L 111.158387 192.24 
z
" clip-path="url(#p2ba507a90c)" style="fill: #3fbc73"/>
   </g>
   <g id="PathCollection_26">
    <path d="M 50.315079 186.696 
L 50.315079 181.152 
L 50.315079 175.608 
L 50.315079 170.064 
L 50.315079 164.52 
L 50.315079 158.976 
L 50.315079 153.432 
L 50.315079 147.888 
L 50.315079 142.344 
L 50.315079 136.8 
L 50.315079 131.256 
L 50.315079 125.712 
L 50.315079 120.168 
L 50.315079 114.624 
L 50.315079 109.08 
L 50.315079 103.536 
L 50.315079 97.992 
L 50.315079 92.448 
L 50.315079 86.904 
L 50.315079 81.36 
L 50.315079 75.816 
L 50.315079 70.272 
L 50.315079 64.728 
L 50.315079 59.184 
L 50.315079 53.64 
L 50.315079 48.096 
L 50.315079 42.552 
L 50.315079 37.008 
L 50.315079 31.464 
L 50.315079 25.92 
L 52.613723 25.92 
L 52.613723 31.464 
L 52.613723 37.008 
L 52.613723 42.552 
L 52.613723 48.096 
L 52.613723 53.64 
L 52.613723 59.184 
L 52.613723 64.728 
L 52.613723 70.272 
L 52.613723 75.816 
L 52.613723 81.36 
L 52.613723 86.904 
L 52.613723 92.448 
L 52.613723 97.992 
L 52.613723 103.536 
L 52.613723 109.08 
L 52.613723 114.624 
L 52.613723 120.168 
L 52.613723 125.712 
L 52.613723 131.256 
L 52.613723 136.8 
L 52.613723 142.344 
L 52.613723 147.888 
L 52.613723 153.432 
L 52.613723 158.976 
L 52.613723 164.52 
L 52.613723 170.064 
L 52.613723 175.608 
L 52.613723 181.152 
L 52.613723 186.696 
L 52.613723 192.24 
L 50.315079 192.24 
z
" clip-path="url(#p2ba507a90c)" style="fill: #63cb5f"/>
    <path d="M 100.001918 186.696 
L 100.001918 181.152 
L 100.001918 175.608 
L 100.001918 170.064 
L 100.001918 164.52 
L 100.001918 158.976 
L 100.001918 153.432 
L 100.001918 147.888 
L 100.001918 142.344 
L 100.001918 136.8 
L 100.001918 131.256 
L 100.001918 125.712 
L 100.001918 120.168 
L 100.001918 114.624 
L 100.001918 109.08 
L 100.001918 103.536 
L 100.001918 97.992 
L 100.001918 92.448 
L 100.001918 86.904 
L 100.001918 81.36 
L 100.001918 75.816 
L 100.001918 70.272 
L 100.001918 64.728 
L 100.001918 59.184 
L 100.001918 53.64 
L 100.001918 48.096 
L 100.001918 42.552 
L 100.001918 37.008 
L 100.001918 31.464 
L 100.001918 25.92 
L 101.472 25.92 
L 107.424 25.92 
L 111.158387 25.92 
L 111.158387 31.464 
L 111.158387 37.008 
L 111.158387 42.552 
L 111.158387 48.096 
L 111.158387 53.64 
L 111.158387 59.184 
L 111.158387 64.728 
L 111.158387 70.272 
L 111.158387 75.816 
L 111.158387 81.36 
L 111.158387 86.904 
L 111.158387 92.448 
L 111.158387 97.992 
L 111.158387 103.536 
L 111.158387 109.08 
L 111.158387 114.624 
L 111.158387 120.168 
L 111.158387 125.712 
L 111.158387 131.256 
L 111.158387 136.8 
L 111.158387 142.344 
L 111.158387 147.888 
L 111.158387 153.432 
L 111.158387 158.976 
L 111.158387 164.52 
L 111.158387 170.064 
L 111.158387 175.608 
L 111.158387 181.152 
L 111.158387 186.696 
L 111.158387 192.24 
L 107.424 192.24 
L 101.472 192.24 
L 100.001918 192.24 
z
" clip-path="url(#p2ba507a90c)" style="fill: #63cb5f"/>
   </g>
   <g id="PathCollection_27">
    <path d="M 52.613723 186.696 
L 52.613723 181.152 
L 52.613723 175.608 
L 52.613723 170.064 
L 52.613723 164.52 
L 52.613723 158.976 
L 52.613723 153.432 
L 52.613723 147.888 
L 52.613723 142.344 
L 52.613723 136.8 
L 52.613723 131.256 
L 52.613723 125.712 
L 52.613723 120.168 
L 52.613723 114.624 
L 52.613723 109.08 
L 52.613723 103.536 
L 52.613723 97.992 
L 52.613723 92.448 
L 52.613723 86.904 
L 52.613723 81.36 
L 52.613723 75.816 
L 52.613723 70.272 
L 52.613723 64.728 
L 52.613723 59.184 
L 52.613723 53.64 
L 52.613723 48.096 
L 52.613723 42.552 
L 52.613723 37.008 
L 52.613723 31.464 
L 52.613723 25.92 
L 53.856 25.92 
L 56.346806 25.92 
L 56.346806 31.464 
L 56.346806 37.008 
L 56.346806 42.552 
L 56.346806 48.096 
L 56.346806 53.64 
L 56.346806 59.184 
L 56.346806 64.728 
L 56.346806 70.272 
L 56.346806 75.816 
L 56.346806 81.36 
L 56.346806 86.904 
L 56.346806 92.448 
L 56.346806 97.992 
L 56.346806 103.536 
L 56.346806 109.08 
L 56.346806 114.624 
L 56.346806 120.168 
L 56.346806 125.712 
L 56.346806 131.256 
L 56.346806 136.8 
L 56.346806 142.344 
L 56.346806 147.888 
L 56.346806 153.432 
L 56.346806 158.976 
L 56.346806 164.52 
L 56.346806 170.064 
L 56.346806 175.608 
L 56.346806 181.152 
L 56.346806 186.696 
L 56.346806 192.24 
L 53.856 192.24 
L 52.613723 192.24 
z
" clip-path="url(#p2ba507a90c)" style="fill: #8bd646"/>
    <path d="M 88.167908 186.696 
L 88.167908 181.152 
L 88.167908 175.608 
L 88.167908 170.064 
L 88.167908 164.52 
L 88.167908 158.976 
L 88.167908 153.432 
L 88.167908 147.888 
L 88.167908 142.344 
L 88.167908 136.8 
L 88.167908 131.256 
L 88.167908 125.712 
L 88.167908 120.168 
L 88.167908 114.624 
L 88.167908 109.08 
L 88.167908 103.536 
L 88.167908 97.992 
L 88.167908 92.448 
L 88.167908 86.904 
L 88.167908 81.36 
L 88.167908 75.816 
L 88.167908 70.272 
L 88.167908 64.728 
L 88.167908 59.184 
L 88.167908 53.64 
L 88.167908 48.096 
L 88.167908 42.552 
L 88.167908 37.008 
L 88.167908 31.464 
L 88.167908 25.92 
L 89.568 25.92 
L 95.52 25.92 
L 100.001918 25.92 
L 100.001918 31.464 
L 100.001918 37.008 
L 100.001918 42.552 
L 100.001918 48.096 
L 100.001918 53.64 
L 100.001918 59.184 
L 100.001918 64.728 
L 100.001918 70.272 
L 100.001918 75.816 
L 100.001918 81.36 
L 100.001918 86.904 
L 100.001918 92.448 
L 100.001918 97.992 
L 100.001918 103.536 
L 100.001918 109.08 
L 100.001918 114.624 
L 100.001918 120.168 
L 100.001918 125.712 
L 100.001918 131.256 
L 100.001918 136.8 
L 100.001918 142.344 
L 100.001918 147.888 
L 100.001918 153.432 
L 100.001918 158.976 
L 100.001918 164.52 
L 100.001918 170.064 
L 100.001918 175.608 
L 100.001918 181.152 
L 100.001918 186.696 
L 100.001918 192.24 
L 95.52 192.24 
L 89.568 192.24 
L 88.167908 192.24 
z
" clip-path="url(#p2ba507a90c)" style="fill: #8bd646"/>
   </g>
   <g id="PathCollection_28">
    <path d="M 56.346806 186.696 
L 56.346806 181.152 
L 56.346806 175.608 
L 56.346806 170.064 
L 56.346806 164.52 
L 56.346806 158.976 
L 56.346806 153.432 
L 56.346806 147.888 
L 56.346806 142.344 
L 56.346806 136.8 
L 56.346806 131.256 
L 56.346806 125.712 
L 56.346806 120.168 
L 56.346806 114.624 
L 56.346806 109.08 
L 56.346806 103.536 
L 56.346806 97.992 
L 56.346806 92.448 
L 56.346806 86.904 
L 56.346806 81.36 
L 56.346806 75.816 
L 56.346806 70.272 
L 56.346806 64.728 
L 56.346806 59.184 
L 56.346806 53.64 
L 56.346806 48.096 
L 56.346806 42.552 
L 56.346806 37.008 
L 56.346806 31.464 
L 56.346806 25.92 
L 59.808 25.92 
L 65.691303 25.92 
L 65.691303 31.464 
L 65.691303 37.008 
L 65.691303 42.552 
L 65.691303 48.096 
L 65.691303 53.64 
L 65.691303 59.184 
L 65.691303 64.728 
L 65.691303 70.272 
L 65.691303 75.816 
L 65.691303 81.36 
L 65.691303 86.904 
L 65.691303 92.448 
L 65.691303 97.992 
L 65.691303 103.536 
L 65.691303 109.08 
L 65.691303 114.624 
L 65.691303 120.168 
L 65.691303 125.712 
L 65.691303 131.256 
L 65.691303 136.8 
L 65.691303 142.344 
L 65.691303 147.888 
L 65.691303 153.432 
L 65.691303 158.976 
L 65.691303 164.52 
L 65.691303 170.064 
L 65.691303 175.608 
L 65.691303 181.152 
L 65.691303 186.696 
L 65.691303 192.24 
L 59.808 192.24 
L 56.346806 192.24 
z
" clip-path="url(#p2ba507a90c)" style="fill: #bade28"/>
    <path d="M 66.681347 186.696 
L 66.681347 181.152 
L 66.681347 175.608 
L 66.681347 170.064 
L 66.681347 164.52 
L 66.681347 158.976 
L 66.681347 153.432 
L 66.681347 147.888 
L 66.681347 142.344 
L 66.681347 136.8 
L 66.681347 131.256 
L 66.681347 125.712 
L 66.681347 120.168 
L 66.681347 114.624 
L 66.681347 109.08 
L 66.681347 103.536 
L 66.681347 97.992 
L 66.681347 92.448 
L 66.681347 86.904 
L 66.681347 81.36 
L 66.681347 75.816 
L 66.681347 70.272 
L 66.681347 64.728 
L 66.681347 59.184 
L 66.681347 53.64 
L 66.681347 48.096 
L 66.681347 42.552 
L 66.681347 37.008 
L 66.681347 31.464 
L 66.681347 25.92 
L 71.712 25.92 
L 77.664 25.92 
L 83.616 25.92 
L 88.167908 25.92 
L 88.167908 31.464 
L 88.167908 37.008 
L 88.167908 42.552 
L 88.167908 48.096 
L 88.167908 53.64 
L 88.167908 59.184 
L 88.167908 64.728 
L 88.167908 70.272 
L 88.167908 75.816 
L 88.167908 81.36 
L 88.167908 86.904 
L 88.167908 92.448 
L 88.167908 97.992 
L 88.167908 103.536 
L 88.167908 109.08 
L 88.167908 114.624 
L 88.167908 120.168 
L 88.167908 125.712 
L 88.167908 131.256 
L 88.167908 136.8 
L 88.167908 142.344 
L 88.167908 147.888 
L 88.167908 153.432 
L 88.167908 158.976 
L 88.167908 164.52 
L 88.167908 170.064 
L 88.167908 175.608 
L 88.167908 181.152 
L 88.167908 186.696 
L 88.167908 192.24 
L 83.616 192.24 
L 77.664 192.24 
L 71.712 192.24 
L 66.681347 192.24 
z
" clip-path="url(#p2ba507a90c)" style="fill: #bade28"/>
   </g>
   <g id="PathCollection_29">
    <path d="M 65.691303 186.696 
L 65.691303 181.152 
L 65.691303 175.608 
L 65.691303 170.064 
L 65.691303 164.52 
L 65.691303 158.976 
L 65.691303 153.432 
L 65.691303 147.888 
L 65.691303 142.344 
L 65.691303 136.8 
L 65.691303 131.256 
L 65.691303 125.712 
L 65.691303 120.168 
L 65.691303 114.624 
L 65.691303 109.08 
L 65.691303 103.536 
L 65.691303 97.992 
L 65.691303 92.448 
L 65.691303 86.904 
L 65.691303 81.36 
L 65.691303 75.816 
L 65.691303 70.272 
L 65.691303 64.728 
L 65.691303 59.184 
L 65.691303 53.64 
L 65.691303 48.096 
L 65.691303 42.552 
L 65.691303 37.008 
L 65.691303 31.464 
L 65.691303 25.92 
L 65.76 25.92 
L 66.681347 25.92 
L 66.681347 31.464 
L 66.681347 37.008 
L 66.681347 42.552 
L 66.681347 48.096 
L 66.681347 53.64 
L 66.681347 59.184 
L 66.681347 64.728 
L 66.681347 70.272 
L 66.681347 75.816 
L 66.681347 81.36 
L 66.681347 86.904 
L 66.681347 92.448 
L 66.681347 97.992 
L 66.681347 103.536 
L 66.681347 109.08 
L 66.681347 114.624 
L 66.681347 120.168 
L 66.681347 125.712 
L 66.681347 131.256 
L 66.681347 136.8 
L 66.681347 142.344 
L 66.681347 147.888 
L 66.681347 153.432 
L 66.681347 158.976 
L 66.681347 164.52 
L 66.681347 170.064 
L 66.681347 175.608 
L 66.681347 181.152 
L 66.681347 186.696 
L 66.681347 192.24 
L 65.76 192.24 
L 65.691303 192.24 
z
" clip-path="url(#p2ba507a90c)" style="fill: #eae51a"/>
   </g>
   <g id="PathCollection_30">
    <defs>
     <path id="m7d3bc8a6a4" d="M -4.330127 4.330127 
L 4.330127 -4.330127 
M -4.330127 -4.330127 
L 4.330127 4.330127 
" style="stroke: #000000; stroke-width: 2"/>
    </defs>
    <g clip-path="url(#p2ba507a90c)">
     <use xlink:href="#m7d3bc8a6a4" x="65.76" y="109.08" style="stroke: #000000; stroke-width: 2"/>
    </g>
   </g>
   <g id="matplotlib.axis_1">
    <g id="xtick_1">
     <g id="line2d_1">
      <defs>
       <path id="m9dfc642302" d="M 0 0 
L 0 3.5 
" style="stroke: #000000; stroke-width: 0.8"/>
      </defs>
      <g>
       <use xlink:href="#m9dfc642302" x="75.68" y="192.24" style="stroke: #000000; stroke-width: 0.8"/>
      </g>
     </g>
     <g id="text_1">
      <!-- 250 -->
      <g transform="translate(64.2275 208.358125) scale(0.12 -0.12)">
       <defs>
        <path id="DejaVuSans-32" d="M 1228 531 
L 3431 531 
L 3431 0 
L 469 0 
L 469 531 
Q 828 903 1448 1529 
Q 2069 2156 2228 2338 
Q 2531 2678 2651 2914 
Q 2772 3150 2772 3378 
Q 2772 3750 2511 3984 
Q 2250 4219 1831 4219 
Q 1534 4219 1204 4116 
Q 875 4013 500 3803 
L 500 4441 
Q 881 4594 1212 4672 
Q 1544 4750 1819 4750 
Q 2544 4750 2975 4387 
Q 3406 4025 3406 3419 
Q 3406 3131 3298 2873 
Q 3191 2616 2906 2266 
Q 2828 2175 2409 1742 
Q 1991 1309 1228 531 
z
" transform="scale(0.015625)"/>
        <path id="DejaVuSans-35" d="M 691 4666 
L 3169 4666 
L 3169 4134 
L 1269 4134 
L 1269 2991 
Q 1406 3038 1543 3061 
Q 1681 3084 1819 3084 
Q 2600 3084 3056 2656 
Q 3513 2228 3513 1497 
Q 3513 744 3044 326 
Q 2575 -91 1722 -91 
Q 1428 -91 1123 -41 
Q 819 9 494 109 
L 494 744 
Q 775 591 1075 516 
Q 1375 441 1709 441 
Q 2250 441 2565 725 
Q 2881 1009 2881 1497 
Q 2881 1984 2565 2268 
Q 2250 2553 1709 2553 
Q 1456 2553 1204 2497 
Q 953 2441 691 2322 
L 691 4666 
z
" transform="scale(0.015625)"/>
        <path id="DejaVuSans-30" d="M 2034 4250 
Q 1547 4250 1301 3770 
Q 1056 3291 1056 2328 
Q 1056 1369 1301 889 
Q 1547 409 2034 409 
Q 2525 409 2770 889 
Q 3016 1369 3016 2328 
Q 3016 3291 2770 3770 
Q 2525 4250 2034 4250 
z
M 2034 4750 
Q 2819 4750 3233 4129 
Q 3647 3509 3647 2328 
Q 3647 1150 3233 529 
Q 2819 -91 2034 -91 
Q 1250 -91 836 529 
Q 422 1150 422 2328 
Q 422 3509 836 4129 
Q 1250 4750 2034 4750 
z
" transform="scale(0.015625)"/>
       </defs>
       <use xlink:href="#DejaVuSans-32"/>
       <use xlink:href="#DejaVuSans-35" x="63.623047"/>
       <use xlink:href="#DejaVuSans-30" x="127.246094"/>
      </g>
     </g>
    </g>
    <g id="xtick_2">
     <g id="line2d_2">
      <g>
       <use xlink:href="#m9dfc642302" x="125.28" y="192.24" style="stroke: #000000; stroke-width: 0.8"/>
      </g>
     </g>
     <g id="text_2">
      <!-- 500 -->
      <g transform="translate(113.8275 208.358125) scale(0.12 -0.12)">
       <use xlink:href="#DejaVuSans-35"/>
       <use xlink:href="#DejaVuSans-30" x="63.623047"/>
       <use xlink:href="#DejaVuSans-30" x="127.246094"/>
      </g>
     </g>
    </g>
    <g id="xtick_3">
     <g id="line2d_3">
      <g>
       <use xlink:href="#m9dfc642302" x="174.88" y="192.24" style="stroke: #000000; stroke-width: 0.8"/>
      </g>
     </g>
     <g id="text_3">
      <!-- 750 -->
      <g transform="translate(163.4275 208.358125) scale(0.12 -0.12)">
       <defs>
        <path id="DejaVuSans-37" d="M 525 4666 
L 3525 4666 
L 3525 4397 
L 1831 0 
L 1172 0 
L 2766 4134 
L 525 4134 
L 525 4666 
z
" transform="scale(0.015625)"/>
       </defs>
       <use xlink:href="#DejaVuSans-37"/>
       <use xlink:href="#DejaVuSans-35" x="63.623047"/>
       <use xlink:href="#DejaVuSans-30" x="127.246094"/>
      </g>
     </g>
    </g>
    <g id="text_4">
     <!-- Diploid N$_e$0 -->
     <g transform="translate(80 227.01375) scale(0.16 -0.16)">
      <defs>
       <path id="DejaVuSans-44" d="M 1259 4147 
L 1259 519 
L 2022 519 
Q 2988 519 3436 956 
Q 3884 1394 3884 2338 
Q 3884 3275 3436 3711 
Q 2988 4147 2022 4147 
L 1259 4147 
z
M 628 4666 
L 1925 4666 
Q 3281 4666 3915 4102 
Q 4550 3538 4550 2338 
Q 4550 1131 3912 565 
Q 3275 0 1925 0 
L 628 0 
L 628 4666 
z
" transform="scale(0.015625)"/>
       <path id="DejaVuSans-69" d="M 603 3500 
L 1178 3500 
L 1178 0 
L 603 0 
L 603 3500 
z
M 603 4863 
L 1178 4863 
L 1178 4134 
L 603 4134 
L 603 4863 
z
" transform="scale(0.015625)"/>
       <path id="DejaVuSans-70" d="M 1159 525 
L 1159 -1331 
L 581 -1331 
L 581 3500 
L 1159 3500 
L 1159 2969 
Q 1341 3281 1617 3432 
Q 1894 3584 2278 3584 
Q 2916 3584 3314 3078 
Q 3713 2572 3713 1747 
Q 3713 922 3314 415 
Q 2916 -91 2278 -91 
Q 1894 -91 1617 61 
Q 1341 213 1159 525 
z
M 3116 1747 
Q 3116 2381 2855 2742 
Q 2594 3103 2138 3103 
Q 1681 3103 1420 2742 
Q 1159 2381 1159 1747 
Q 1159 1113 1420 752 
Q 1681 391 2138 391 
Q 2594 391 2855 752 
Q 3116 1113 3116 1747 
z
" transform="scale(0.015625)"/>
       <path id="DejaVuSans-6c" d="M 603 4863 
L 1178 4863 
L 1178 0 
L 603 0 
L 603 4863 
z
" transform="scale(0.015625)"/>
       <path id="DejaVuSans-6f" d="M 1959 3097 
Q 1497 3097 1228 2736 
Q 959 2375 959 1747 
Q 959 1119 1226 758 
Q 1494 397 1959 397 
Q 2419 397 2687 759 
Q 2956 1122 2956 1747 
Q 2956 2369 2687 2733 
Q 2419 3097 1959 3097 
z
M 1959 3584 
Q 2709 3584 3137 3096 
Q 3566 2609 3566 1747 
Q 3566 888 3137 398 
Q 2709 -91 1959 -91 
Q 1206 -91 779 398 
Q 353 888 353 1747 
Q 353 2609 779 3096 
Q 1206 3584 1959 3584 
z
" transform="scale(0.015625)"/>
       <path id="DejaVuSans-64" d="M 2906 2969 
L 2906 4863 
L 3481 4863 
L 3481 0 
L 2906 0 
L 2906 525 
Q 2725 213 2448 61 
Q 2172 -91 1784 -91 
Q 1150 -91 751 415 
Q 353 922 353 1747 
Q 353 2572 751 3078 
Q 1150 3584 1784 3584 
Q 2172 3584 2448 3432 
Q 2725 3281 2906 2969 
z
M 947 1747 
Q 947 1113 1208 752 
Q 1469 391 1925 391 
Q 2381 391 2643 752 
Q 2906 1113 2906 1747 
Q 2906 2381 2643 2742 
Q 2381 3103 1925 3103 
Q 1469 3103 1208 2742 
Q 947 2381 947 1747 
z
" transform="scale(0.015625)"/>
       <path id="DejaVuSans-20" transform="scale(0.015625)"/>
       <path id="DejaVuSans-4e" d="M 628 4666 
L 1478 4666 
L 3547 763 
L 3547 4666 
L 4159 4666 
L 4159 0 
L 3309 0 
L 1241 3903 
L 1241 0 
L 628 0 
L 628 4666 
z
" transform="scale(0.015625)"/>
       <path id="DejaVuSans-Oblique-65" d="M 3078 2063 
Q 3088 2113 3092 2166 
Q 3097 2219 3097 2272 
Q 3097 2653 2873 2875 
Q 2650 3097 2266 3097 
Q 1838 3097 1509 2826 
Q 1181 2556 1013 2059 
L 3078 2063 
z
M 3578 1613 
L 903 1613 
Q 884 1494 878 1425 
Q 872 1356 872 1306 
Q 872 872 1139 634 
Q 1406 397 1894 397 
Q 2269 397 2603 481 
Q 2938 566 3225 728 
L 3116 159 
Q 2806 34 2476 -28 
Q 2147 -91 1806 -91 
Q 1078 -91 686 257 
Q 294 606 294 1247 
Q 294 1794 489 2264 
Q 684 2734 1063 3103 
Q 1306 3334 1642 3459 
Q 1978 3584 2356 3584 
Q 2950 3584 3301 3228 
Q 3653 2872 3653 2272 
Q 3653 2128 3634 1964 
Q 3616 1800 3578 1613 
z
" transform="scale(0.015625)"/>
      </defs>
      <use xlink:href="#DejaVuSans-44" transform="translate(0 0.015625)"/>
      <use xlink:href="#DejaVuSans-69" transform="translate(77.001953 0.015625)"/>
      <use xlink:href="#DejaVuSans-70" transform="translate(104.785156 0.015625)"/>
      <use xlink:href="#DejaVuSans-6c" transform="translate(168.261719 0.015625)"/>
      <use xlink:href="#DejaVuSans-6f" transform="translate(196.044922 0.015625)"/>
      <use xlink:href="#DejaVuSans-69" transform="translate(257.226562 0.015625)"/>
      <use xlink:href="#DejaVuSans-64" transform="translate(285.009766 0.015625)"/>
      <use xlink:href="#DejaVuSans-20" transform="translate(348.486328 0.015625)"/>
      <use xlink:href="#DejaVuSans-4e" transform="translate(380.273438 0.015625)"/>
      <use xlink:href="#DejaVuSans-Oblique-65" transform="translate(456.035156 -16.390625) scale(0.7)"/>
      <use xlink:href="#DejaVuSans-30" transform="translate(501.835938 0.015625)"/>
     </g>
    </g>
    <g id="text_5">
     <!-- 1e3 -->
     <g transform="translate(195.681875 221.452188) scale(0.1 -0.1)">
      <defs>
       <path id="DejaVuSans-31" d="M 794 531 
L 1825 531 
L 1825 4091 
L 703 3866 
L 703 4441 
L 1819 4666 
L 2450 4666 
L 2450 531 
L 3481 531 
L 3481 0 
L 794 0 
L 794 531 
z
" transform="scale(0.015625)"/>
       <path id="DejaVuSans-65" d="M 3597 1894 
L 3597 1613 
L 953 1613 
Q 991 1019 1311 708 
Q 1631 397 2203 397 
Q 2534 397 2845 478 
Q 3156 559 3463 722 
L 3463 178 
Q 3153 47 2828 -22 
Q 2503 -91 2169 -91 
Q 1331 -91 842 396 
Q 353 884 353 1716 
Q 353 2575 817 3079 
Q 1281 3584 2069 3584 
Q 2775 3584 3186 3129 
Q 3597 2675 3597 1894 
z
M 3022 2063 
Q 3016 2534 2758 2815 
Q 2500 3097 2075 3097 
Q 1594 3097 1305 2825 
Q 1016 2553 972 2059 
L 3022 2063 
z
" transform="scale(0.015625)"/>
       <path id="DejaVuSans-33" d="M 2597 2516 
Q 3050 2419 3304 2112 
Q 3559 1806 3559 1356 
Q 3559 666 3084 287 
Q 2609 -91 1734 -91 
Q 1441 -91 1130 -33 
Q 819 25 488 141 
L 488 750 
Q 750 597 1062 519 
Q 1375 441 1716 441 
Q 2309 441 2620 675 
Q 2931 909 2931 1356 
Q 2931 1769 2642 2001 
Q 2353 2234 1838 2234 
L 1294 2234 
L 1294 2753 
L 1863 2753 
Q 2328 2753 2575 2939 
Q 2822 3125 2822 3475 
Q 2822 3834 2567 4026 
Q 2313 4219 1838 4219 
Q 1578 4219 1281 4162 
Q 984 4106 628 3988 
L 628 4550 
Q 988 4650 1302 4700 
Q 1616 4750 1894 4750 
Q 2613 4750 3031 4423 
Q 3450 4097 3450 3541 
Q 3450 3153 3228 2886 
Q 3006 2619 2597 2516 
z
" transform="scale(0.015625)"/>
      </defs>
      <use xlink:href="#DejaVuSans-31"/>
      <use xlink:href="#DejaVuSans-65" x="63.623047"/>
      <use xlink:href="#DejaVuSans-33" x="125.146484"/>
     </g>
    </g>
   </g>
   <g id="matplotlib.axis_2">
    <g id="ytick_1">
     <g id="line2d_4">
      <defs>
       <path id="mac75441d48" d="M 0 0 
L -3.5 0 
" style="stroke: #000000; stroke-width: 0.8"/>
      </defs>
      <g>
       <use xlink:href="#mac75441d48" x="36" y="192.24" style="stroke: #000000; stroke-width: 0.8"/>
      </g>
     </g>
     <g id="text_6">
      <!-- 1.0 -->
      <g transform="translate(9.91625 196.799062) scale(0.12 -0.12)">
       <defs>
        <path id="DejaVuSans-2e" d="M 684 794 
L 1344 794 
L 1344 0 
L 684 0 
L 684 794 
z
" transform="scale(0.015625)"/>
       </defs>
       <use xlink:href="#DejaVuSans-31"/>
       <use xlink:href="#DejaVuSans-2e" x="63.623047"/>
       <use xlink:href="#DejaVuSans-30" x="95.410156"/>
      </g>
     </g>
    </g>
    <g id="ytick_2">
     <g id="line2d_5">
      <g>
       <use xlink:href="#mac75441d48" x="36" y="150.66" style="stroke: #000000; stroke-width: 0.8"/>
      </g>
     </g>
     <g id="text_7">
      <!-- 1.5 -->
      <g transform="translate(9.91625 155.219063) scale(0.12 -0.12)">
       <use xlink:href="#DejaVuSans-31"/>
       <use xlink:href="#DejaVuSans-2e" x="63.623047"/>
       <use xlink:href="#DejaVuSans-35" x="95.410156"/>
      </g>
     </g>
    </g>
    <g id="ytick_3">
     <g id="line2d_6">
      <g>
       <use xlink:href="#mac75441d48" x="36" y="109.08" style="stroke: #000000; stroke-width: 0.8"/>
      </g>
     </g>
     <g id="text_8">
      <!-- 2.0 -->
      <g transform="translate(9.91625 113.639062) scale(0.12 -0.12)">
       <use xlink:href="#DejaVuSans-32"/>
       <use xlink:href="#DejaVuSans-2e" x="63.623047"/>
       <use xlink:href="#DejaVuSans-30" x="95.410156"/>
      </g>
     </g>
    </g>
    <g id="ytick_4">
     <g id="line2d_7">
      <g>
       <use xlink:href="#mac75441d48" x="36" y="67.5" style="stroke: #000000; stroke-width: 0.8"/>
      </g>
     </g>
     <g id="text_9">
      <!-- 2.5 -->
      <g transform="translate(9.91625 72.059063) scale(0.12 -0.12)">
       <use xlink:href="#DejaVuSans-32"/>
       <use xlink:href="#DejaVuSans-2e" x="63.623047"/>
       <use xlink:href="#DejaVuSans-35" x="95.410156"/>
      </g>
     </g>
    </g>
    <g id="ytick_5">
     <g id="line2d_8">
      <g>
       <use xlink:href="#mac75441d48" x="36" y="25.92" style="stroke: #000000; stroke-width: 0.8"/>
      </g>
     </g>
     <g id="text_10">
      <!-- 3.0 -->
      <g transform="translate(9.91625 30.479062) scale(0.12 -0.12)">
       <use xlink:href="#DejaVuSans-33"/>
       <use xlink:href="#DejaVuSans-2e" x="63.623047"/>
       <use xlink:href="#DejaVuSans-30" x="95.410156"/>
      </g>
     </g>
    </g>
    <g id="text_11">
     <!-- Recombination rate -->
     <g transform="translate(2.58875 187.6775) rotate(-90) scale(0.16 -0.16)">
      <defs>
       <path id="DejaVuSans-52" d="M 2841 2188 
Q 3044 2119 3236 1894 
Q 3428 1669 3622 1275 
L 4263 0 
L 3584 0 
L 2988 1197 
Q 2756 1666 2539 1819 
Q 2322 1972 1947 1972 
L 1259 1972 
L 1259 0 
L 628 0 
L 628 4666 
L 2053 4666 
Q 2853 4666 3247 4331 
Q 3641 3997 3641 3322 
Q 3641 2881 3436 2590 
Q 3231 2300 2841 2188 
z
M 1259 4147 
L 1259 2491 
L 2053 2491 
Q 2509 2491 2742 2702 
Q 2975 2913 2975 3322 
Q 2975 3731 2742 3939 
Q 2509 4147 2053 4147 
L 1259 4147 
z
" transform="scale(0.015625)"/>
       <path id="DejaVuSans-63" d="M 3122 3366 
L 3122 2828 
Q 2878 2963 2633 3030 
Q 2388 3097 2138 3097 
Q 1578 3097 1268 2742 
Q 959 2388 959 1747 
Q 959 1106 1268 751 
Q 1578 397 2138 397 
Q 2388 397 2633 464 
Q 2878 531 3122 666 
L 3122 134 
Q 2881 22 2623 -34 
Q 2366 -91 2075 -91 
Q 1284 -91 818 406 
Q 353 903 353 1747 
Q 353 2603 823 3093 
Q 1294 3584 2113 3584 
Q 2378 3584 2631 3529 
Q 2884 3475 3122 3366 
z
" transform="scale(0.015625)"/>
       <path id="DejaVuSans-6d" d="M 3328 2828 
Q 3544 3216 3844 3400 
Q 4144 3584 4550 3584 
Q 5097 3584 5394 3201 
Q 5691 2819 5691 2113 
L 5691 0 
L 5113 0 
L 5113 2094 
Q 5113 2597 4934 2840 
Q 4756 3084 4391 3084 
Q 3944 3084 3684 2787 
Q 3425 2491 3425 1978 
L 3425 0 
L 2847 0 
L 2847 2094 
Q 2847 2600 2669 2842 
Q 2491 3084 2119 3084 
Q 1678 3084 1418 2786 
Q 1159 2488 1159 1978 
L 1159 0 
L 581 0 
L 581 3500 
L 1159 3500 
L 1159 2956 
Q 1356 3278 1631 3431 
Q 1906 3584 2284 3584 
Q 2666 3584 2933 3390 
Q 3200 3197 3328 2828 
z
" transform="scale(0.015625)"/>
       <path id="DejaVuSans-62" d="M 3116 1747 
Q 3116 2381 2855 2742 
Q 2594 3103 2138 3103 
Q 1681 3103 1420 2742 
Q 1159 2381 1159 1747 
Q 1159 1113 1420 752 
Q 1681 391 2138 391 
Q 2594 391 2855 752 
Q 3116 1113 3116 1747 
z
M 1159 2969 
Q 1341 3281 1617 3432 
Q 1894 3584 2278 3584 
Q 2916 3584 3314 3078 
Q 3713 2572 3713 1747 
Q 3713 922 3314 415 
Q 2916 -91 2278 -91 
Q 1894 -91 1617 61 
Q 1341 213 1159 525 
L 1159 0 
L 581 0 
L 581 4863 
L 1159 4863 
L 1159 2969 
z
" transform="scale(0.015625)"/>
       <path id="DejaVuSans-6e" d="M 3513 2113 
L 3513 0 
L 2938 0 
L 2938 2094 
Q 2938 2591 2744 2837 
Q 2550 3084 2163 3084 
Q 1697 3084 1428 2787 
Q 1159 2491 1159 1978 
L 1159 0 
L 581 0 
L 581 3500 
L 1159 3500 
L 1159 2956 
Q 1366 3272 1645 3428 
Q 1925 3584 2291 3584 
Q 2894 3584 3203 3211 
Q 3513 2838 3513 2113 
z
" transform="scale(0.015625)"/>
       <path id="DejaVuSans-61" d="M 2194 1759 
Q 1497 1759 1228 1600 
Q 959 1441 959 1056 
Q 959 750 1161 570 
Q 1363 391 1709 391 
Q 2188 391 2477 730 
Q 2766 1069 2766 1631 
L 2766 1759 
L 2194 1759 
z
M 3341 1997 
L 3341 0 
L 2766 0 
L 2766 531 
Q 2569 213 2275 61 
Q 1981 -91 1556 -91 
Q 1019 -91 701 211 
Q 384 513 384 1019 
Q 384 1609 779 1909 
Q 1175 2209 1959 2209 
L 2766 2209 
L 2766 2266 
Q 2766 2663 2505 2880 
Q 2244 3097 1772 3097 
Q 1472 3097 1187 3025 
Q 903 2953 641 2809 
L 641 3341 
Q 956 3463 1253 3523 
Q 1550 3584 1831 3584 
Q 2591 3584 2966 3190 
Q 3341 2797 3341 1997 
z
" transform="scale(0.015625)"/>
       <path id="DejaVuSans-74" d="M 1172 4494 
L 1172 3500 
L 2356 3500 
L 2356 3053 
L 1172 3053 
L 1172 1153 
Q 1172 725 1289 603 
Q 1406 481 1766 481 
L 2356 481 
L 2356 0 
L 1766 0 
Q 1100 0 847 248 
Q 594 497 594 1153 
L 594 3053 
L 172 3053 
L 172 3500 
L 594 3500 
L 594 4494 
L 1172 4494 
z
" transform="scale(0.015625)"/>
       <path id="DejaVuSans-72" d="M 2631 2963 
Q 2534 3019 2420 3045 
Q 2306 3072 2169 3072 
Q 1681 3072 1420 2755 
Q 1159 2438 1159 1844 
L 1159 0 
L 581 0 
L 581 3500 
L 1159 3500 
L 1159 2956 
Q 1341 3275 1631 3429 
Q 1922 3584 2338 3584 
Q 2397 3584 2469 3576 
Q 2541 3569 2628 3553 
L 2631 2963 
z
" transform="scale(0.015625)"/>
      </defs>
      <use xlink:href="#DejaVuSans-52"/>
      <use xlink:href="#DejaVuSans-65" x="64.982422"/>
      <use xlink:href="#DejaVuSans-63" x="126.505859"/>
      <use xlink:href="#DejaVuSans-6f" x="181.486328"/>
      <use xlink:href="#DejaVuSans-6d" x="242.667969"/>
      <use xlink:href="#DejaVuSans-62" x="340.080078"/>
      <use xlink:href="#DejaVuSans-69" x="403.556641"/>
      <use xlink:href="#DejaVuSans-6e" x="431.339844"/>
      <use xlink:href="#DejaVuSans-61" x="494.71875"/>
      <use xlink:href="#DejaVuSans-74" x="555.998047"/>
      <use xlink:href="#DejaVuSans-69" x="595.207031"/>
      <use xlink:href="#DejaVuSans-6f" x="622.990234"/>
      <use xlink:href="#DejaVuSans-6e" x="684.171875"/>
      <use xlink:href="#DejaVuSans-20" x="747.550781"/>
      <use xlink:href="#DejaVuSans-72" x="779.337891"/>
      <use xlink:href="#DejaVuSans-61" x="820.451172"/>
      <use xlink:href="#DejaVuSans-74" x="881.730469"/>
      <use xlink:href="#DejaVuSans-65" x="920.939453"/>
     </g>
    </g>
    <g id="text_12">
     <!-- 1e9 -->
     <g transform="translate(36 22.92) scale(0.1 -0.1)">
      <defs>
       <path id="DejaVuSans-2212" d="M 678 2272 
L 4684 2272 
L 4684 1741 
L 678 1741 
L 678 2272 
z
" transform="scale(0.015625)"/>
       <path id="DejaVuSans-39" d="M 703 97 
L 703 672 
Q 941 559 1184 500 
Q 1428 441 1663 441 
Q 2288 441 2617 861 
Q 2947 1281 2994 2138 
Q 2813 1869 2534 1725 
Q 2256 1581 1919 1581 
Q 1219 1581 811 2004 
Q 403 2428 403 3163 
Q 403 3881 828 4315 
Q 1253 4750 1959 4750 
Q 2769 4750 3195 4129 
Q 3622 3509 3622 2328 
Q 3622 1225 3098 567 
Q 2575 -91 1691 -91 
Q 1453 -91 1209 -44 
Q 966 3 703 97 
z
M 1959 2075 
Q 2384 2075 2632 2365 
Q 2881 2656 2881 3163 
Q 2881 3666 2632 3958 
Q 2384 4250 1959 4250 
Q 1534 4250 1286 3958 
Q 1038 3666 1038 3163 
Q 1038 2656 1286 2365 
Q 1534 2075 1959 2075 
z
" transform="scale(0.015625)"/>
      </defs>
      <use xlink:href="#DejaVuSans-31"/>
      <use xlink:href="#DejaVuSans-65" x="63.623047"/>
      <use xlink:href="#DejaVuSans-2212" x="125.146484"/>
      <use xlink:href="#DejaVuSans-39" x="208.935547"/>
     </g>
    </g>
   </g>
   <g id="patch_3">
    <path d="M 36 192.24 
L 36 25.92 
" style="fill: none; stroke: #000000; stroke-width: 0.8; stroke-linejoin: miter; stroke-linecap: square"/>
   </g>
   <g id="patch_4">
    <path d="M 214.56 192.24 
L 214.56 25.92 
" style="fill: none; stroke: #000000; stroke-width: 0.8; stroke-linejoin: miter; stroke-linecap: square"/>
   </g>
   <g id="patch_5">
    <path d="M 36 192.24 
L 214.56 192.24 
" style="fill: none; stroke: #000000; stroke-width: 0.8; stroke-linejoin: miter; stroke-linecap: square"/>
   </g>
   <g id="patch_6">
    <path d="M 36 25.92 
L 214.56 25.92 
" style="fill: none; stroke: #000000; stroke-width: 0.8; stroke-linejoin: miter; stroke-linecap: square"/>
   </g>
   <g id="text_13">
    <!-- Ne0r-MSC-G-P2-S4 -->
    <g transform="translate(50.82 10.92) scale(0.16 -0.16)">
     <defs>
      <path id="DejaVuSans-2d" d="M 313 2009 
L 1997 2009 
L 1997 1497 
L 313 1497 
L 313 2009 
z
" transform="scale(0.015625)"/>
      <path id="DejaVuSans-4d" d="M 628 4666 
L 1569 4666 
L 2759 1491 
L 3956 4666 
L 4897 4666 
L 4897 0 
L 4281 0 
L 4281 4097 
L 3078 897 
L 2444 897 
L 1241 4097 
L 1241 0 
L 628 0 
L 628 4666 
z
" transform="scale(0.015625)"/>
      <path id="DejaVuSans-53" d="M 3425 4513 
L 3425 3897 
Q 3066 4069 2747 4153 
Q 2428 4238 2131 4238 
Q 1616 4238 1336 4038 
Q 1056 3838 1056 3469 
Q 1056 3159 1242 3001 
Q 1428 2844 1947 2747 
L 2328 2669 
Q 3034 2534 3370 2195 
Q 3706 1856 3706 1288 
Q 3706 609 3251 259 
Q 2797 -91 1919 -91 
Q 1588 -91 1214 -16 
Q 841 59 441 206 
L 441 856 
Q 825 641 1194 531 
Q 1563 422 1919 422 
Q 2459 422 2753 634 
Q 3047 847 3047 1241 
Q 3047 1584 2836 1778 
Q 2625 1972 2144 2069 
L 1759 2144 
Q 1053 2284 737 2584 
Q 422 2884 422 3419 
Q 422 4038 858 4394 
Q 1294 4750 2059 4750 
Q 2388 4750 2728 4690 
Q 3069 4631 3425 4513 
z
" transform="scale(0.015625)"/>
      <path id="DejaVuSans-43" d="M 4122 4306 
L 4122 3641 
Q 3803 3938 3442 4084 
Q 3081 4231 2675 4231 
Q 1875 4231 1450 3742 
Q 1025 3253 1025 2328 
Q 1025 1406 1450 917 
Q 1875 428 2675 428 
Q 3081 428 3442 575 
Q 3803 722 4122 1019 
L 4122 359 
Q 3791 134 3420 21 
Q 3050 -91 2638 -91 
Q 1578 -91 968 557 
Q 359 1206 359 2328 
Q 359 3453 968 4101 
Q 1578 4750 2638 4750 
Q 3056 4750 3426 4639 
Q 3797 4528 4122 4306 
z
" transform="scale(0.015625)"/>
      <path id="DejaVuSans-47" d="M 3809 666 
L 3809 1919 
L 2778 1919 
L 2778 2438 
L 4434 2438 
L 4434 434 
Q 4069 175 3628 42 
Q 3188 -91 2688 -91 
Q 1594 -91 976 548 
Q 359 1188 359 2328 
Q 359 3472 976 4111 
Q 1594 4750 2688 4750 
Q 3144 4750 3555 4637 
Q 3966 4525 4313 4306 
L 4313 3634 
Q 3963 3931 3569 4081 
Q 3175 4231 2741 4231 
Q 1884 4231 1454 3753 
Q 1025 3275 1025 2328 
Q 1025 1384 1454 906 
Q 1884 428 2741 428 
Q 3075 428 3337 486 
Q 3600 544 3809 666 
z
" transform="scale(0.015625)"/>
      <path id="DejaVuSans-50" d="M 1259 4147 
L 1259 2394 
L 2053 2394 
Q 2494 2394 2734 2622 
Q 2975 2850 2975 3272 
Q 2975 3691 2734 3919 
Q 2494 4147 2053 4147 
L 1259 4147 
z
M 628 4666 
L 2053 4666 
Q 2838 4666 3239 4311 
Q 3641 3956 3641 3272 
Q 3641 2581 3239 2228 
Q 2838 1875 2053 1875 
L 1259 1875 
L 1259 0 
L 628 0 
L 628 4666 
z
" transform="scale(0.015625)"/>
      <path id="DejaVuSans-34" d="M 2419 4116 
L 825 1625 
L 2419 1625 
L 2419 4116 
z
M 2253 4666 
L 3047 4666 
L 3047 1625 
L 3713 1625 
L 3713 1100 
L 3047 1100 
L 3047 0 
L 2419 0 
L 2419 1100 
L 313 1100 
L 313 1709 
L 2253 4666 
z
" transform="scale(0.015625)"/>
     </defs>
     <use xlink:href="#DejaVuSans-4e"/>
     <use xlink:href="#DejaVuSans-65" x="74.804688"/>
     <use xlink:href="#DejaVuSans-30" x="136.328125"/>
     <use xlink:href="#DejaVuSans-72" x="199.951172"/>
     <use xlink:href="#DejaVuSans-2d" x="234.689453"/>
     <use xlink:href="#DejaVuSans-4d" x="270.773438"/>
     <use xlink:href="#DejaVuSans-53" x="357.052734"/>
     <use xlink:href="#DejaVuSans-43" x="420.529297"/>
     <use xlink:href="#DejaVuSans-2d" x="490.353516"/>
     <use xlink:href="#DejaVuSans-47" x="530.0625"/>
     <use xlink:href="#DejaVuSans-2d" x="607.552734"/>
     <use xlink:href="#DejaVuSans-50" x="643.636719"/>
     <use xlink:href="#DejaVuSans-32" x="703.939453"/>
     <use xlink:href="#DejaVuSans-2d" x="767.5625"/>
     <use xlink:href="#DejaVuSans-53" x="803.646484"/>
     <use xlink:href="#DejaVuSans-34" x="867.123047"/>
    </g>
   </g>
  </g>
  <g id="axes_2">
   <g id="patch_7">
    <path d="M 225.72 192.24 
L 234.036 192.24 
L 234.036 25.92 
L 225.72 25.92 
z
" style="fill: #ffffff"/>
   </g>
   <g id="QuadMesh_1">
    <path d="M 225.72 192.24 
L 234.036 192.24 
L 234.036 186.504828 
L 225.72 186.504828 
L 225.72 192.24 
" clip-path="url(#p8a17c07208)" style="fill: #440154"/>
    <path d="M 225.72 186.504828 
L 234.036 186.504828 
L 234.036 180.769655 
L 225.72 180.769655 
L 225.72 186.504828 
" clip-path="url(#p8a17c07208)" style="fill: #440154"/>
    <path d="M 225.72 180.769655 
L 234.036 180.769655 
L 234.036 175.034483 
L 225.72 175.034483 
L 225.72 180.769655 
" clip-path="url(#p8a17c07208)" style="fill: #440154"/>
    <path d="M 225.72 175.034483 
L 234.036 175.034483 
L 234.036 169.29931 
L 225.72 169.29931 
L 225.72 175.034483 
" clip-path="url(#p8a17c07208)" style="fill: #440154"/>
    <path d="M 225.72 169.29931 
L 234.036 169.29931 
L 234.036 163.564138 
L 225.72 163.564138 
L 225.72 169.29931 
" clip-path="url(#p8a17c07208)" style="fill: #440154"/>
    <path d="M 225.72 163.564138 
L 234.036 163.564138 
L 234.036 157.828966 
L 225.72 157.828966 
L 225.72 163.564138 
" clip-path="url(#p8a17c07208)" style="fill: #440154"/>
    <path d="M 225.72 157.828966 
L 234.036 157.828966 
L 234.036 152.093793 
L 225.72 152.093793 
L 225.72 157.828966 
" clip-path="url(#p8a17c07208)" style="fill: #440154"/>
    <path d="M 225.72 152.093793 
L 234.036 152.093793 
L 234.036 146.358621 
L 225.72 146.358621 
L 225.72 152.093793 
" clip-path="url(#p8a17c07208)" style="fill: #440154"/>
    <path d="M 225.72 146.358621 
L 234.036 146.358621 
L 234.036 140.623448 
L 225.72 140.623448 
L 225.72 146.358621 
" clip-path="url(#p8a17c07208)" style="fill: #440154"/>
    <path d="M 225.72 140.623448 
L 234.036 140.623448 
L 234.036 134.888276 
L 225.72 134.888276 
L 225.72 140.623448 
" clip-path="url(#p8a17c07208)" style="fill: #440154"/>
    <path d="M 225.72 134.888276 
L 234.036 134.888276 
L 234.036 129.153103 
L 225.72 129.153103 
L 225.72 134.888276 
" clip-path="url(#p8a17c07208)" style="fill: #440154"/>
    <path d="M 225.72 129.153103 
L 234.036 129.153103 
L 234.036 123.417931 
L 225.72 123.417931 
L 225.72 129.153103 
" clip-path="url(#p8a17c07208)" style="fill: #440154"/>
    <path d="M 225.72 123.417931 
L 234.036 123.417931 
L 234.036 117.682759 
L 225.72 117.682759 
L 225.72 123.417931 
" clip-path="url(#p8a17c07208)" style="fill: #440154"/>
    <path d="M 225.72 117.682759 
L 234.036 117.682759 
L 234.036 111.947586 
L 225.72 111.947586 
L 225.72 117.682759 
" clip-path="url(#p8a17c07208)" style="fill: #440154"/>
    <path d="M 225.72 111.947586 
L 234.036 111.947586 
L 234.036 106.212414 
L 225.72 106.212414 
L 225.72 111.947586 
" clip-path="url(#p8a17c07208)" style="fill: #440154"/>
    <path d="M 225.72 106.212414 
L 234.036 106.212414 
L 234.036 100.477241 
L 225.72 100.477241 
L 225.72 106.212414 
" clip-path="url(#p8a17c07208)" style="fill: #481b6d"/>
    <path d="M 225.72 100.477241 
L 234.036 100.477241 
L 234.036 94.742069 
L 225.72 94.742069 
L 225.72 100.477241 
" clip-path="url(#p8a17c07208)" style="fill: #46307e"/>
    <path d="M 225.72 94.742069 
L 234.036 94.742069 
L 234.036 89.006897 
L 225.72 89.006897 
L 225.72 94.742069 
" clip-path="url(#p8a17c07208)" style="fill: #404688"/>
    <path d="M 225.72 89.006897 
L 234.036 89.006897 
L 234.036 83.271724 
L 225.72 83.271724 
L 225.72 89.006897 
" clip-path="url(#p8a17c07208)" style="fill: #38598c"/>
    <path d="M 225.72 83.271724 
L 234.036 83.271724 
L 234.036 77.536552 
L 225.72 77.536552 
L 225.72 83.271724 
" clip-path="url(#p8a17c07208)" style="fill: #2f6b8e"/>
    <path d="M 225.72 77.536552 
L 234.036 77.536552 
L 234.036 71.801379 
L 225.72 71.801379 
L 225.72 77.536552 
" clip-path="url(#p8a17c07208)" style="fill: #287c8e"/>
    <path d="M 225.72 71.801379 
L 234.036 71.801379 
L 234.036 66.066207 
L 225.72 66.066207 
L 225.72 71.801379 
" clip-path="url(#p8a17c07208)" style="fill: #228c8d"/>
    <path d="M 225.72 66.066207 
L 234.036 66.066207 
L 234.036 60.331034 
L 225.72 60.331034 
L 225.72 66.066207 
" clip-path="url(#p8a17c07208)" style="fill: #1e9d89"/>
    <path d="M 225.72 60.331034 
L 234.036 60.331034 
L 234.036 54.595862 
L 225.72 54.595862 
L 225.72 60.331034 
" clip-path="url(#p8a17c07208)" style="fill: #27ad81"/>
    <path d="M 225.72 54.595862 
L 234.036 54.595862 
L 234.036 48.86069 
L 225.72 48.86069 
L 225.72 54.595862 
" clip-path="url(#p8a17c07208)" style="fill: #3fbc73"/>
    <path d="M 225.72 48.86069 
L 234.036 48.86069 
L 234.036 43.125517 
L 225.72 43.125517 
L 225.72 48.86069 
" clip-path="url(#p8a17c07208)" style="fill: #63cb5f"/>
    <path d="M 225.72 43.125517 
L 234.036 43.125517 
L 234.036 37.390345 
L 225.72 37.390345 
L 225.72 43.125517 
" clip-path="url(#p8a17c07208)" style="fill: #8bd646"/>
    <path d="M 225.72 37.390345 
L 234.036 37.390345 
L 234.036 31.655172 
L 225.72 31.655172 
L 225.72 37.390345 
" clip-path="url(#p8a17c07208)" style="fill: #bade28"/>
    <path d="M 225.72 31.655172 
L 234.036 31.655172 
L 234.036 25.92 
L 225.72 25.92 
L 225.72 31.655172 
" clip-path="url(#p8a17c07208)" style="fill: #eae51a"/>
   </g>
   <g id="matplotlib.axis_3"/>
   <g id="matplotlib.axis_4">
    <g id="ytick_6">
     <g id="line2d_9">
      <defs>
       <path id="mc80672d51b" d="M 0 0 
L 3.5 0 
" style="stroke: #000000; stroke-width: 0.8"/>
      </defs>
      <g>
       <use xlink:href="#mc80672d51b" x="234.036" y="180.769655" style="stroke: #000000; stroke-width: 0.8"/>
      </g>
     </g>
     <g id="text_14">
      <!-- 3.960 -->
      <g transform="translate(241.036 184.568874) scale(0.1 -0.1)">
       <defs>
        <path id="DejaVuSans-36" d="M 2113 2584 
Q 1688 2584 1439 2293 
Q 1191 2003 1191 1497 
Q 1191 994 1439 701 
Q 1688 409 2113 409 
Q 2538 409 2786 701 
Q 3034 994 3034 1497 
Q 3034 2003 2786 2293 
Q 2538 2584 2113 2584 
z
M 3366 4563 
L 3366 3988 
Q 3128 4100 2886 4159 
Q 2644 4219 2406 4219 
Q 1781 4219 1451 3797 
Q 1122 3375 1075 2522 
Q 1259 2794 1537 2939 
Q 1816 3084 2150 3084 
Q 2853 3084 3261 2657 
Q 3669 2231 3669 1497 
Q 3669 778 3244 343 
Q 2819 -91 2113 -91 
Q 1303 -91 875 529 
Q 447 1150 447 2328 
Q 447 3434 972 4092 
Q 1497 4750 2381 4750 
Q 2619 4750 2861 4703 
Q 3103 4656 3366 4563 
z
" transform="scale(0.015625)"/>
       </defs>
       <use xlink:href="#DejaVuSans-2212"/>
       <use xlink:href="#DejaVuSans-33" x="83.789062"/>
       <use xlink:href="#DejaVuSans-2e" x="147.412109"/>
       <use xlink:href="#DejaVuSans-39" x="179.199219"/>
       <use xlink:href="#DejaVuSans-36" x="242.822266"/>
       <use xlink:href="#DejaVuSans-30" x="306.445312"/>
      </g>
     </g>
    </g>
    <g id="ytick_7">
     <g id="line2d_10">
      <g>
       <use xlink:href="#mc80672d51b" x="234.036" y="163.564138" style="stroke: #000000; stroke-width: 0.8"/>
      </g>
     </g>
     <g id="text_15">
      <!-- 3.942 -->
      <g transform="translate(241.036 167.363357) scale(0.1 -0.1)">
       <use xlink:href="#DejaVuSans-2212"/>
       <use xlink:href="#DejaVuSans-33" x="83.789062"/>
       <use xlink:href="#DejaVuSans-2e" x="147.412109"/>
       <use xlink:href="#DejaVuSans-39" x="179.199219"/>
       <use xlink:href="#DejaVuSans-34" x="242.822266"/>
       <use xlink:href="#DejaVuSans-32" x="306.445312"/>
      </g>
     </g>
    </g>
    <g id="ytick_8">
     <g id="line2d_11">
      <g>
       <use xlink:href="#mc80672d51b" x="234.036" y="146.358621" style="stroke: #000000; stroke-width: 0.8"/>
      </g>
     </g>
     <g id="text_16">
      <!-- 3.924 -->
      <g transform="translate(241.036 150.157839) scale(0.1 -0.1)">
       <use xlink:href="#DejaVuSans-2212"/>
       <use xlink:href="#DejaVuSans-33" x="83.789062"/>
       <use xlink:href="#DejaVuSans-2e" x="147.412109"/>
       <use xlink:href="#DejaVuSans-39" x="179.199219"/>
       <use xlink:href="#DejaVuSans-32" x="242.822266"/>
       <use xlink:href="#DejaVuSans-34" x="306.445312"/>
      </g>
     </g>
    </g>
    <g id="ytick_9">
     <g id="line2d_12">
      <g>
       <use xlink:href="#mc80672d51b" x="234.036" y="129.153103" style="stroke: #000000; stroke-width: 0.8"/>
      </g>
     </g>
     <g id="text_17">
      <!-- 3.906 -->
      <g transform="translate(241.036 132.952322) scale(0.1 -0.1)">
       <use xlink:href="#DejaVuSans-2212"/>
       <use xlink:href="#DejaVuSans-33" x="83.789062"/>
       <use xlink:href="#DejaVuSans-2e" x="147.412109"/>
       <use xlink:href="#DejaVuSans-39" x="179.199219"/>
       <use xlink:href="#DejaVuSans-30" x="242.822266"/>
       <use xlink:href="#DejaVuSans-36" x="306.445312"/>
      </g>
     </g>
    </g>
    <g id="ytick_10">
     <g id="line2d_13">
      <g>
       <use xlink:href="#mc80672d51b" x="234.036" y="111.947586" style="stroke: #000000; stroke-width: 0.8"/>
      </g>
     </g>
     <g id="text_18">
      <!-- 3.888 -->
      <g transform="translate(241.036 115.746805) scale(0.1 -0.1)">
       <defs>
        <path id="DejaVuSans-38" d="M 2034 2216 
Q 1584 2216 1326 1975 
Q 1069 1734 1069 1313 
Q 1069 891 1326 650 
Q 1584 409 2034 409 
Q 2484 409 2743 651 
Q 3003 894 3003 1313 
Q 3003 1734 2745 1975 
Q 2488 2216 2034 2216 
z
M 1403 2484 
Q 997 2584 770 2862 
Q 544 3141 544 3541 
Q 544 4100 942 4425 
Q 1341 4750 2034 4750 
Q 2731 4750 3128 4425 
Q 3525 4100 3525 3541 
Q 3525 3141 3298 2862 
Q 3072 2584 2669 2484 
Q 3125 2378 3379 2068 
Q 3634 1759 3634 1313 
Q 3634 634 3220 271 
Q 2806 -91 2034 -91 
Q 1263 -91 848 271 
Q 434 634 434 1313 
Q 434 1759 690 2068 
Q 947 2378 1403 2484 
z
M 1172 3481 
Q 1172 3119 1398 2916 
Q 1625 2713 2034 2713 
Q 2441 2713 2670 2916 
Q 2900 3119 2900 3481 
Q 2900 3844 2670 4047 
Q 2441 4250 2034 4250 
Q 1625 4250 1398 4047 
Q 1172 3844 1172 3481 
z
" transform="scale(0.015625)"/>
       </defs>
       <use xlink:href="#DejaVuSans-2212"/>
       <use xlink:href="#DejaVuSans-33" x="83.789062"/>
       <use xlink:href="#DejaVuSans-2e" x="147.412109"/>
       <use xlink:href="#DejaVuSans-38" x="179.199219"/>
       <use xlink:href="#DejaVuSans-38" x="242.822266"/>
       <use xlink:href="#DejaVuSans-38" x="306.445312"/>
      </g>
     </g>
    </g>
    <g id="ytick_11">
     <g id="line2d_14">
      <g>
       <use xlink:href="#mc80672d51b" x="234.036" y="94.742069" style="stroke: #000000; stroke-width: 0.8"/>
      </g>
     </g>
     <g id="text_19">
      <!-- 3.870 -->
      <g transform="translate(241.036 98.541288) scale(0.1 -0.1)">
       <use xlink:href="#DejaVuSans-2212"/>
       <use xlink:href="#DejaVuSans-33" x="83.789062"/>
       <use xlink:href="#DejaVuSans-2e" x="147.412109"/>
       <use xlink:href="#DejaVuSans-38" x="179.199219"/>
       <use xlink:href="#DejaVuSans-37" x="242.822266"/>
       <use xlink:href="#DejaVuSans-30" x="306.445312"/>
      </g>
     </g>
    </g>
    <g id="ytick_12">
     <g id="line2d_15">
      <g>
       <use xlink:href="#mc80672d51b" x="234.036" y="77.536552" style="stroke: #000000; stroke-width: 0.8"/>
      </g>
     </g>
     <g id="text_20">
      <!-- 3.852 -->
      <g transform="translate(241.036 81.33577) scale(0.1 -0.1)">
       <use xlink:href="#DejaVuSans-2212"/>
       <use xlink:href="#DejaVuSans-33" x="83.789062"/>
       <use xlink:href="#DejaVuSans-2e" x="147.412109"/>
       <use xlink:href="#DejaVuSans-38" x="179.199219"/>
       <use xlink:href="#DejaVuSans-35" x="242.822266"/>
       <use xlink:href="#DejaVuSans-32" x="306.445312"/>
      </g>
     </g>
    </g>
    <g id="ytick_13">
     <g id="line2d_16">
      <g>
       <use xlink:href="#mc80672d51b" x="234.036" y="60.331034" style="stroke: #000000; stroke-width: 0.8"/>
      </g>
     </g>
     <g id="text_21">
      <!-- 3.834 -->
      <g transform="translate(241.036 64.130253) scale(0.1 -0.1)">
       <use xlink:href="#DejaVuSans-2212"/>
       <use xlink:href="#DejaVuSans-33" x="83.789062"/>
       <use xlink:href="#DejaVuSans-2e" x="147.412109"/>
       <use xlink:href="#DejaVuSans-38" x="179.199219"/>
       <use xlink:href="#DejaVuSans-33" x="242.822266"/>
       <use xlink:href="#DejaVuSans-34" x="306.445312"/>
      </g>
     </g>
    </g>
    <g id="ytick_14">
     <g id="line2d_17">
      <g>
       <use xlink:href="#mc80672d51b" x="234.036" y="43.125517" style="stroke: #000000; stroke-width: 0.8"/>
      </g>
     </g>
     <g id="text_22">
      <!-- 3.816 -->
      <g transform="translate(241.036 46.924736) scale(0.1 -0.1)">
       <use xlink:href="#DejaVuSans-2212"/>
       <use xlink:href="#DejaVuSans-33" x="83.789062"/>
       <use xlink:href="#DejaVuSans-2e" x="147.412109"/>
       <use xlink:href="#DejaVuSans-38" x="179.199219"/>
       <use xlink:href="#DejaVuSans-31" x="242.822266"/>
       <use xlink:href="#DejaVuSans-36" x="306.445312"/>
      </g>
     </g>
    </g>
    <g id="ytick_15">
     <g id="line2d_18">
      <g>
       <use xlink:href="#mc80672d51b" x="234.036" y="25.92" style="stroke: #000000; stroke-width: 0.8"/>
      </g>
     </g>
     <g id="text_23">
      <!-- 3.798 -->
      <g transform="translate(241.036 29.719219) scale(0.1 -0.1)">
       <use xlink:href="#DejaVuSans-2212"/>
       <use xlink:href="#DejaVuSans-33" x="83.789062"/>
       <use xlink:href="#DejaVuSans-2e" x="147.412109"/>
       <use xlink:href="#DejaVuSans-37" x="179.199219"/>
       <use xlink:href="#DejaVuSans-39" x="242.822266"/>
       <use xlink:href="#DejaVuSans-38" x="306.445312"/>
      </g>
     </g>
    </g>
    <g id="text_24">
     <!-- log likelihood -->
     <g transform="translate(291.161938 148.704375) rotate(-90) scale(0.12 -0.12)">
      <defs>
       <path id="DejaVuSans-67" d="M 2906 1791 
Q 2906 2416 2648 2759 
Q 2391 3103 1925 3103 
Q 1463 3103 1205 2759 
Q 947 2416 947 1791 
Q 947 1169 1205 825 
Q 1463 481 1925 481 
Q 2391 481 2648 825 
Q 2906 1169 2906 1791 
z
M 3481 434 
Q 3481 -459 3084 -895 
Q 2688 -1331 1869 -1331 
Q 1566 -1331 1297 -1286 
Q 1028 -1241 775 -1147 
L 775 -588 
Q 1028 -725 1275 -790 
Q 1522 -856 1778 -856 
Q 2344 -856 2625 -561 
Q 2906 -266 2906 331 
L 2906 616 
Q 2728 306 2450 153 
Q 2172 0 1784 0 
Q 1141 0 747 490 
Q 353 981 353 1791 
Q 353 2603 747 3093 
Q 1141 3584 1784 3584 
Q 2172 3584 2450 3431 
Q 2728 3278 2906 2969 
L 2906 3500 
L 3481 3500 
L 3481 434 
z
" transform="scale(0.015625)"/>
       <path id="DejaVuSans-6b" d="M 581 4863 
L 1159 4863 
L 1159 1991 
L 2875 3500 
L 3609 3500 
L 1753 1863 
L 3688 0 
L 2938 0 
L 1159 1709 
L 1159 0 
L 581 0 
L 581 4863 
z
" transform="scale(0.015625)"/>
       <path id="DejaVuSans-68" d="M 3513 2113 
L 3513 0 
L 2938 0 
L 2938 2094 
Q 2938 2591 2744 2837 
Q 2550 3084 2163 3084 
Q 1697 3084 1428 2787 
Q 1159 2491 1159 1978 
L 1159 0 
L 581 0 
L 581 4863 
L 1159 4863 
L 1159 2956 
Q 1366 3272 1645 3428 
Q 1925 3584 2291 3584 
Q 2894 3584 3203 3211 
Q 3513 2838 3513 2113 
z
" transform="scale(0.015625)"/>
      </defs>
      <use xlink:href="#DejaVuSans-6c"/>
      <use xlink:href="#DejaVuSans-6f" x="27.783203"/>
      <use xlink:href="#DejaVuSans-67" x="88.964844"/>
      <use xlink:href="#DejaVuSans-20" x="152.441406"/>
      <use xlink:href="#DejaVuSans-6c" x="184.228516"/>
      <use xlink:href="#DejaVuSans-69" x="212.011719"/>
      <use xlink:href="#DejaVuSans-6b" x="239.794922"/>
      <use xlink:href="#DejaVuSans-65" x="294.080078"/>
      <use xlink:href="#DejaVuSans-6c" x="355.603516"/>
      <use xlink:href="#DejaVuSans-69" x="383.386719"/>
      <use xlink:href="#DejaVuSans-68" x="411.169922"/>
      <use xlink:href="#DejaVuSans-6f" x="474.548828"/>
      <use xlink:href="#DejaVuSans-6f" x="535.730469"/>
      <use xlink:href="#DejaVuSans-64" x="596.912109"/>
     </g>
    </g>
    <g id="text_25">
     <!-- 1e6 -->
     <g transform="translate(215.157875 22.92) scale(0.1 -0.1)">
      <use xlink:href="#DejaVuSans-31"/>
      <use xlink:href="#DejaVuSans-65" x="63.623047"/>
      <use xlink:href="#DejaVuSans-36" x="125.146484"/>
     </g>
    </g>
   </g>
   <g id="LineCollection_1"/>
   <g id="patch_8">
    <path d="M 225.72 192.24 
L 229.878 192.24 
L 234.036 192.24 
L 234.036 25.92 
L 229.878 25.92 
L 225.72 25.92 
L 225.72 192.24 
z
" style="fill: none; stroke: #000000; stroke-width: 0.8; stroke-linejoin: miter; stroke-linecap: square"/>
   </g>
  </g>
 </g>
 <defs>
  <clipPath id="p2ba507a90c">
   <rect x="36" y="25.92" width="178.56" height="166.32"/>
  </clipPath>
  <clipPath id="p8a17c07208">
   <rect x="225.72" y="25.92" width="8.316" height="166.32"/>
  </clipPath>
 </defs>
</svg>
