<?xml version="1.0" encoding="utf-8" standalone="no"?>
<!DOCTYPE svg PUBLIC "-//W3C//DTD SVG 1.1//EN"
  "http://www.w3.org/Graphics/SVG/1.1/DTD/svg11.dtd">
<svg xmlns:xlink="http://www.w3.org/1999/xlink" width="288pt" height="216pt" viewBox="0 0 288 216" xmlns="http://www.w3.org/2000/svg" version="1.1">
 <metadata>
  <rdf:RDF xmlns:dc="http://purl.org/dc/elements/1.1/" xmlns:cc="http://creativecommons.org/ns#" xmlns:rdf="http://www.w3.org/1999/02/22-rdf-syntax-ns#">
   <cc:Work>
    <dc:type rdf:resource="http://purl.org/dc/dcmitype/StillImage"/>
    <dc:date>2024-12-14T18:10:15.756383</dc:date>
    <dc:format>image/svg+xml</dc:format>
    <dc:creator>
     <cc:Agent>
      <dc:title>Matplotlib v3.8.4, https://matplotlib.org/</dc:title>
     </cc:Agent>
    </dc:creator>
   </cc:Work>
  </rdf:RDF>
 </metadata>
 <defs>
  <style type="text/css">*{stroke-linejoin: round; stroke-linecap: butt}</style>
 </defs>
 <g id="figure_1">
  <g id="patch_1">
   <path d="M 0 216 
L 288 216 
L 288 0 
L 0 0 
z
" style="fill: #ffffff"/>
  </g>
  <g id="axes_1">
   <g id="patch_2">
    <path d="M 36 192.24 
L 214.56 192.24 
L 214.56 25.92 
L 36 25.92 
z
" style="fill: #ffffff"/>
   </g>
   <g id="QuadContourSet_1">
    <path d="M 77.397041 142.344 
L 75.211885 136.8 
L 73.669621 131.256 
L 72.755053 125.712 
L 72.48833 120.168 
L 72.926444 114.624 
L 74.17083 109.08 
L 76.383062 103.536 
L 77.664 101.298886 
L 83.616 102.1219 
L 84.812431 103.536 
L 89.568 108.901881 
L 89.669202 109.08 
L 92.644762 114.624 
L 95.52 119.985772 
L 95.596932 120.168 
L 97.540101 125.712 
L 99.043554 131.256 
L 99.749641 136.8 
L 99.001236 142.344 
L 95.52 147.872037 
L 95.493315 147.888 
L 89.568 149.588774 
L 83.616 148.366975 
L 82.962324 147.888 
L 77.664 142.820787 
z
" clip-path="url(#p21faa1e844)" style="fill: #e7e419"/>
    <path d="M 70.540199 136.8 
L 69.488066 131.256 
L 68.811681 125.712 
L 68.481866 120.168 
L 68.479833 114.624 
L 68.794691 109.08 
L 69.421894 103.536 
L 70.362304 97.992 
L 71.621665 92.448 
L 71.712 92.116618 
L 76.484239 86.904 
L 77.664 85.904967 
L 79.691487 86.904 
L 83.616 88.702059 
L 86.618692 92.448 
L 89.568 95.911581 
L 90.796131 97.992 
L 94.13079 103.536 
L 95.52 105.820336 
L 97.137023 109.08 
L 99.843082 114.624 
L 101.472 118.098881 
L 102.330682 120.168 
L 104.370205 125.712 
L 106.085639 131.256 
L 107.2395 136.8 
L 107.424 142.168024 
L 107.429559 142.344 
L 107.424 142.371765 
L 105.953091 147.888 
L 101.495738 153.432 
L 101.472 153.447265 
L 95.52 155.722863 
L 89.568 156.159875 
L 83.616 154.786649 
L 81.262089 153.432 
L 77.664 150.716018 
L 75.519811 147.888 
L 72.234498 142.344 
L 71.712 141.170078 
z
M 77.664 142.820787 
L 82.962324 147.888 
L 83.616 148.366975 
L 89.568 149.588774 
L 95.493315 147.888 
L 95.52 147.872037 
L 99.001236 142.344 
L 99.749641 136.8 
L 99.043554 131.256 
L 97.540101 125.712 
L 95.596932 120.168 
L 95.52 119.985772 
L 92.644762 114.624 
L 89.669202 109.08 
L 89.568 108.901881 
L 84.812431 103.536 
L 83.616 102.1219 
L 77.664 101.298886 
L 76.383062 103.536 
L 74.17083 109.08 
L 72.926444 114.624 
L 72.48833 120.168 
L 72.755053 125.712 
L 73.669621 131.256 
L 75.211885 136.8 
L 77.397041 142.344 
z
" clip-path="url(#p21faa1e844)" style="fill: #b2dd2d"/>
    <path d="M 65.534136 125.712 
L 65.24534 120.168 
L 65.148979 114.624 
L 65.227416 109.08 
L 65.466579 103.536 
L 65.76 99.319602 
L 65.938692 97.992 
L 66.960433 92.448 
L 68.295164 86.904 
L 69.956233 81.36 
L 71.712 76.473749 
L 72.757494 75.816 
L 77.664 73.262365 
L 81.431023 75.816 
L 83.616 77.18965 
L 86.733866 81.36 
L 89.568 84.908783 
L 90.730994 86.904 
L 94.067304 92.448 
L 95.52 94.786991 
L 97.184482 97.992 
L 100.115398 103.536 
L 101.472 106.097416 
L 102.890627 109.08 
L 105.475765 114.624 
L 107.424 118.929144 
L 107.950171 120.168 
L 110.066088 125.712 
L 111.913978 131.256 
L 113.307252 136.8 
L 113.376 137.44058 
L 113.882537 142.344 
L 113.376 147.4017 
L 113.316563 147.888 
L 110.543885 153.432 
L 107.424 156.234768 
L 102.941531 158.976 
L 101.472 159.487855 
L 95.52 160.60215 
L 89.568 160.598565 
L 83.616 159.387464 
L 82.708462 158.976 
L 77.664 155.92641 
L 75.166733 153.432 
L 71.712 149.014172 
L 71.14783 147.888 
L 69.050644 142.344 
L 67.430038 136.8 
L 66.220695 131.256 
L 65.76 128.155982 
z
M 71.712 141.170078 
L 72.234498 142.344 
L 75.519811 147.888 
L 77.664 150.716018 
L 81.262089 153.432 
L 83.616 154.786649 
L 89.568 156.159875 
L 95.52 155.722863 
L 101.472 153.447265 
L 101.495738 153.432 
L 105.953091 147.888 
L 107.424 142.371765 
L 107.429559 142.344 
L 107.424 142.168024 
L 107.2395 136.8 
L 106.085639 131.256 
L 104.370205 125.712 
L 102.330682 120.168 
L 101.472 118.098881 
L 99.843082 114.624 
L 97.137023 109.08 
L 95.52 105.820336 
L 94.13079 103.536 
L 90.796131 97.992 
L 89.568 95.911581 
L 86.618692 92.448 
L 83.616 88.702059 
L 79.691487 86.904 
L 77.664 85.904967 
L 76.484239 86.904 
L 71.712 92.116618 
L 71.621665 92.448 
L 70.362304 97.992 
L 69.421894 103.536 
L 68.794691 109.08 
L 68.479833 114.624 
L 68.481866 120.168 
L 68.811681 125.712 
L 69.488066 131.256 
L 70.540199 136.8 
z
" clip-path="url(#p21faa1e844)" style="fill: #7fd34e"/>
    <path d="M 64.875404 136.8 
L 64.067203 131.256 
L 63.502251 125.712 
L 63.151221 120.168 
L 62.991592 114.624 
L 63.005703 109.08 
L 63.179453 103.536 
L 63.501422 97.992 
L 63.962249 92.448 
L 64.554198 86.904 
L 65.270825 81.36 
L 65.76 78.078808 
L 66.482021 75.816 
L 68.540143 70.272 
L 70.969343 64.728 
L 71.712 63.211003 
L 77.664 61.729608 
L 81.239404 64.728 
L 83.616 66.575483 
L 86.182474 70.272 
L 89.568 74.826897 
L 90.124536 75.816 
L 93.333799 81.36 
L 95.52 84.951396 
L 96.532318 86.904 
L 99.467589 92.448 
L 101.472 96.117905 
L 102.401181 97.992 
L 105.155643 103.536 
L 107.424 108.036603 
L 107.920836 109.08 
L 110.473948 114.624 
L 112.984166 120.168 
L 113.376 121.115815 
L 115.217959 125.712 
L 117.18805 131.256 
L 118.764993 136.8 
L 119.328 140.234594 
L 119.670211 142.344 
L 119.55384 147.888 
L 119.328 148.669238 
L 117.703817 153.432 
L 113.376 158.440971 
L 112.777874 158.976 
L 107.424 161.590108 
L 101.472 163.492755 
L 95.52 164.350738 
L 89.568 164.111775 
L 83.616 162.684357 
L 77.664 159.924891 
L 76.414843 158.976 
L 71.712 154.303334 
L 71.13469 153.432 
L 68.328402 147.888 
L 66.089602 142.344 
L 65.76 141.269537 
z
M 65.76 128.155982 
L 66.220695 131.256 
L 67.430038 136.8 
L 69.050644 142.344 
L 71.14783 147.888 
L 71.712 149.014172 
L 75.166733 153.432 
L 77.664 155.92641 
L 82.708462 158.976 
L 83.616 159.387464 
L 89.568 160.598565 
L 95.52 160.60215 
L 101.472 159.487855 
L 102.941531 158.976 
L 107.424 156.234768 
L 110.543885 153.432 
L 113.316563 147.888 
L 113.376 147.4017 
L 113.882537 142.344 
L 113.376 137.44058 
L 113.307252 136.8 
L 111.913978 131.256 
L 110.066088 125.712 
L 107.950171 120.168 
L 107.424 118.929144 
L 105.475765 114.624 
L 102.890627 109.08 
L 101.472 106.097416 
L 100.115398 103.536 
L 97.184482 97.992 
L 95.52 94.786991 
L 94.067304 92.448 
L 90.730994 86.904 
L 89.568 84.908783 
L 86.733866 81.36 
L 83.616 77.18965 
L 81.431023 75.816 
L 77.664 73.262365 
L 72.757494 75.816 
L 71.712 76.473749 
L 69.956233 81.36 
L 68.295164 86.904 
L 66.960433 92.448 
L 65.938692 97.992 
L 65.76 99.319602 
L 65.466579 103.536 
L 65.227416 109.08 
L 65.148979 114.624 
L 65.24534 120.168 
L 65.534136 125.712 
z
" clip-path="url(#p21faa1e844)" style="fill: #54c568"/>
    <path d="M 65.600377 147.888 
L 64.114911 142.344 
L 62.964986 136.8 
L 62.096545 131.256 
L 61.470367 125.712 
L 61.057101 120.168 
L 60.834205 114.624 
L 60.783989 109.08 
L 60.892327 103.536 
L 61.147768 97.992 
L 61.54092 92.448 
L 62.064015 86.904 
L 62.710575 81.36 
L 63.47518 75.816 
L 64.353282 70.272 
L 65.341063 64.728 
L 65.76 62.570355 
L 67.299055 59.184 
L 70.173766 53.64 
L 71.712 50.993427 
L 77.664 50.794541 
L 80.546382 53.64 
L 83.616 56.450309 
L 85.378159 59.184 
L 89.185951 64.728 
L 89.568 65.261271 
L 92.325428 70.272 
L 95.52 75.728922 
L 95.564035 75.816 
L 98.410284 81.36 
L 101.408536 86.904 
L 101.472 87.02033 
L 104.171966 92.448 
L 107.033997 97.992 
L 107.424 98.74975 
L 109.75774 103.536 
L 112.497395 109.08 
L 113.376 110.896 
L 115.130429 114.624 
L 117.665454 120.168 
L 119.328 124.014213 
L 120.055995 125.712 
L 122.15285 131.256 
L 123.896605 136.8 
L 125.064994 142.344 
L 125.28 147.390223 
L 125.301377 147.888 
L 125.28 147.992946 
L 124.022309 153.432 
L 120.213458 158.976 
L 119.328 159.627735 
L 113.376 163.252666 
L 110.601001 164.52 
L 107.424 165.375021 
L 101.472 166.442097 
L 95.52 166.87928 
L 89.568 166.60709 
L 83.616 165.520383 
L 80.768575 164.52 
L 77.664 163.022897 
L 72.336507 158.976 
L 71.712 158.355501 
L 68.449892 153.432 
L 65.76 148.340463 
z
M 65.76 141.269537 
L 66.089602 142.344 
L 68.328402 147.888 
L 71.13469 153.432 
L 71.712 154.303334 
L 76.414843 158.976 
L 77.664 159.924891 
L 83.616 162.684357 
L 89.568 164.111775 
L 95.52 164.350738 
L 101.472 163.492755 
L 107.424 161.590108 
L 112.777874 158.976 
L 113.376 158.440971 
L 117.703817 153.432 
L 119.328 148.669238 
L 119.55384 147.888 
L 119.670211 142.344 
L 119.328 140.234594 
L 118.764993 136.8 
L 117.18805 131.256 
L 115.217959 125.712 
L 113.376 121.115815 
L 112.984166 120.168 
L 110.473948 114.624 
L 107.920836 109.08 
L 107.424 108.036603 
L 105.155643 103.536 
L 102.401181 97.992 
L 101.472 96.117905 
L 99.467589 92.448 
L 96.532318 86.904 
L 95.52 84.951396 
L 93.333799 81.36 
L 90.124536 75.816 
L 89.568 74.826897 
L 86.182474 70.272 
L 83.616 66.575483 
L 81.239404 64.728 
L 77.664 61.729608 
L 71.712 63.211003 
L 70.969343 64.728 
L 68.540143 70.272 
L 66.482021 75.816 
L 65.76 78.078808 
L 65.270825 81.36 
L 64.554198 86.904 
L 63.962249 92.448 
L 63.501422 97.992 
L 63.179453 103.536 
L 63.005703 109.08 
L 62.991592 114.624 
L 63.151221 120.168 
L 63.502251 125.712 
L 64.067203 131.256 
L 64.875404 136.8 
z
" clip-path="url(#p21faa1e844)" style="fill: #31b57b"/>
    <path d="M 59.578558 125.712 
L 59.288989 120.168 
L 59.120801 114.624 
L 59.059525 109.08 
L 59.093303 103.536 
L 59.212258 97.992 
L 59.408035 92.448 
L 59.673483 86.904 
L 59.808 84.614855 
L 60.150324 81.36 
L 60.843614 75.816 
L 61.649114 70.272 
L 62.562971 64.728 
L 63.581948 59.184 
L 64.703347 53.64 
L 65.76 48.827651 
L 66.162446 48.096 
L 69.519939 42.552 
L 71.712 39.332833 
L 77.664 40.198573 
L 79.747544 42.552 
L 83.616 46.608105 
L 84.507696 48.096 
L 87.995005 53.64 
L 89.568 56.003143 
L 91.233819 59.184 
L 94.278328 64.728 
L 95.52 66.899263 
L 97.196063 70.272 
L 100.061342 75.816 
L 101.472 78.455429 
L 102.898179 81.36 
L 105.696583 86.904 
L 107.424 90.23269 
L 108.518216 92.448 
L 111.291087 97.992 
L 113.376 102.081595 
L 114.099221 103.536 
L 116.830555 109.08 
L 119.328 114.13053 
L 119.570363 114.624 
L 122.167447 120.168 
L 124.670226 125.712 
L 125.28 127.220414 
L 126.923646 131.256 
L 128.830736 136.8 
L 130.209648 142.344 
L 130.739032 147.888 
L 129.895119 153.432 
L 126.790231 158.976 
L 125.28 160.259224 
L 119.37452 164.52 
L 119.328 164.538773 
L 113.376 166.567845 
L 107.424 168.079588 
L 101.472 169.027287 
L 95.52 169.350128 
L 89.568 168.968579 
L 83.616 167.777461 
L 77.664 165.634935 
L 75.707099 164.52 
L 71.712 161.444686 
L 69.546811 158.976 
L 65.765094 153.432 
L 65.76 153.422358 
L 63.807553 147.888 
L 62.263766 142.344 
L 61.054569 136.8 
L 60.125888 131.256 
L 59.808 128.649986 
z
M 65.76 148.340463 
L 68.449892 153.432 
L 71.712 158.355501 
L 72.336507 158.976 
L 77.664 163.022897 
L 80.768575 164.52 
L 83.616 165.520383 
L 89.568 166.60709 
L 95.52 166.87928 
L 101.472 166.442097 
L 107.424 165.375021 
L 110.601001 164.52 
L 113.376 163.252666 
L 119.328 159.627735 
L 120.213458 158.976 
L 124.022309 153.432 
L 125.28 147.992946 
L 125.301377 147.888 
L 125.28 147.390223 
L 125.064994 142.344 
L 123.896605 136.8 
L 122.15285 131.256 
L 120.055995 125.712 
L 119.328 124.014213 
L 117.665454 120.168 
L 115.130429 114.624 
L 113.376 110.896 
L 112.497395 109.08 
L 109.75774 103.536 
L 107.424 98.74975 
L 107.033997 97.992 
L 104.171966 92.448 
L 101.472 87.02033 
L 101.408536 86.904 
L 98.410284 81.36 
L 95.564035 75.816 
L 95.52 75.728922 
L 92.325428 70.272 
L 89.568 65.261271 
L 89.185951 64.728 
L 85.378159 59.184 
L 83.616 56.450309 
L 80.546382 53.64 
L 77.664 50.794541 
L 71.712 50.993427 
L 70.173766 53.64 
L 67.299055 59.184 
L 65.76 62.570355 
L 65.341063 64.728 
L 64.353282 70.272 
L 63.47518 75.816 
L 62.710575 81.36 
L 62.064015 86.904 
L 61.54092 92.448 
L 61.147768 97.992 
L 60.892327 103.536 
L 60.783989 109.08 
L 60.834205 114.624 
L 61.057101 120.168 
L 61.470367 125.712 
L 62.096545 131.256 
L 62.964986 136.8 
L 64.114911 142.344 
L 65.600377 147.888 
z
" clip-path="url(#p21faa1e844)" style="fill: #1fa287"/>
    <path d="M 59.386828 136.8 
L 58.770606 131.256 
L 58.316914 125.712 
L 58.002779 120.168 
L 57.810179 114.624 
L 57.72464 109.08 
L 57.734305 103.536 
L 57.829292 97.992 
L 58.001243 92.448 
L 58.243007 86.904 
L 58.54839 81.36 
L 58.911987 75.816 
L 59.329037 70.272 
L 59.795317 64.728 
L 59.808 64.588578 
L 60.728568 59.184 
L 61.773274 53.64 
L 62.916721 48.096 
L 64.157038 42.552 
L 65.492723 37.008 
L 65.76 35.949801 
L 68.951995 31.464 
L 71.712 27.98472 
L 77.664 29.791392 
L 78.982202 31.464 
L 83.616 36.928131 
L 83.660592 37.008 
L 86.868406 42.552 
L 89.568 46.911846 
L 90.155903 48.096 
L 93.003998 53.64 
L 95.52 58.270847 
L 95.955541 59.184 
L 98.670811 64.728 
L 101.472 70.156232 
L 101.527223 70.272 
L 104.215949 75.816 
L 107.029921 81.36 
L 107.424 82.124347 
L 109.77421 86.904 
L 112.592188 92.448 
L 113.376 93.974738 
L 115.390068 97.992 
L 118.217853 103.536 
L 119.328 105.716284 
L 121.030066 109.08 
L 123.816712 114.624 
L 125.28 117.608091 
L 126.544661 120.168 
L 129.143547 125.712 
L 131.232 130.507172 
L 131.564329 131.256 
L 133.636837 136.8 
L 135.214897 142.344 
L 135.999648 147.888 
L 135.508452 153.432 
L 132.932009 158.976 
L 131.232 160.607532 
L 126.593354 164.52 
L 125.28 165.121932 
L 119.328 167.497511 
L 113.376 169.396895 
L 110.580595 170.064 
L 107.424 170.51587 
L 101.472 171.050509 
L 95.52 171.200018 
L 89.568 170.894439 
L 83.757464 170.064 
L 83.616 170.034539 
L 77.664 167.792514 
L 71.920179 164.52 
L 71.712 164.359749 
L 66.990122 158.976 
L 65.76 157.172757 
L 64.027849 153.432 
L 62.014728 147.888 
L 60.412621 142.344 
L 59.808 139.657815 
z
M 59.808 128.649986 
L 60.125888 131.256 
L 61.054569 136.8 
L 62.263766 142.344 
L 63.807553 147.888 
L 65.76 153.422358 
L 65.765094 153.432 
L 69.546811 158.976 
L 71.712 161.444686 
L 75.707099 164.52 
L 77.664 165.634935 
L 83.616 167.777461 
L 89.568 168.968579 
L 95.52 169.350128 
L 101.472 169.027287 
L 107.424 168.079588 
L 113.376 166.567845 
L 119.328 164.538773 
L 119.37452 164.52 
L 125.28 160.259224 
L 126.790231 158.976 
L 129.895119 153.432 
L 130.739032 147.888 
L 130.209648 142.344 
L 128.830736 136.8 
L 126.923646 131.256 
L 125.28 127.220414 
L 124.670226 125.712 
L 122.167447 120.168 
L 119.570363 114.624 
L 119.328 114.13053 
L 116.830555 109.08 
L 114.099221 103.536 
L 113.376 102.081595 
L 111.291087 97.992 
L 108.518216 92.448 
L 107.424 90.23269 
L 105.696583 86.904 
L 102.898179 81.36 
L 101.472 78.455429 
L 100.061342 75.816 
L 97.196063 70.272 
L 95.52 66.899263 
L 94.278328 64.728 
L 91.233819 59.184 
L 89.568 56.003143 
L 87.995005 53.64 
L 84.507696 48.096 
L 83.616 46.608105 
L 79.747544 42.552 
L 77.664 40.198573 
L 71.712 39.332833 
L 69.519939 42.552 
L 66.162446 48.096 
L 65.76 48.827651 
L 64.703347 53.64 
L 63.581948 59.184 
L 62.562971 64.728 
L 61.649114 70.272 
L 60.843614 75.816 
L 60.150324 81.36 
L 59.808 84.614855 
L 59.673483 86.904 
L 59.408035 92.448 
L 59.212258 97.992 
L 59.093303 103.536 
L 59.059525 109.08 
L 59.120801 114.624 
L 59.288989 120.168 
L 59.578558 125.712 
z
" clip-path="url(#p21faa1e844)" style="fill: #21908d"/>
    <path d="M 59.008692 142.344 
L 58.174784 136.8 
L 57.533683 131.256 
L 57.05527 125.712 
L 56.716569 120.168 
L 56.499556 114.624 
L 56.389756 109.08 
L 56.375307 103.536 
L 56.446325 97.992 
L 56.594452 92.448 
L 56.81253 86.904 
L 57.094367 81.36 
L 57.434551 75.816 
L 57.828321 70.272 
L 58.271452 64.728 
L 58.760175 59.184 
L 59.29111 53.64 
L 59.808 48.606721 
L 59.908508 48.096 
L 61.069193 42.552 
L 62.323707 37.008 
L 63.670825 31.464 
L 65.109615 25.92 
L 65.76 25.92 
L 71.712 25.92 
L 77.664 25.92 
L 82.481243 25.92 
L 83.616 27.331893 
L 85.844587 31.464 
L 89.024084 37.008 
L 89.568 37.918152 
L 91.806352 42.552 
L 94.631007 48.096 
L 95.52 49.776976 
L 97.321388 53.64 
L 100.01963 59.184 
L 101.472 62.057551 
L 102.722991 64.728 
L 105.404143 70.272 
L 107.424 74.291599 
L 108.157129 75.816 
L 110.879586 81.36 
L 113.376 86.259585 
L 113.697319 86.904 
L 116.487163 92.448 
L 119.328 97.91646 
L 119.367038 97.992 
L 122.217532 103.536 
L 125.123072 109.08 
L 125.28 109.386397 
L 127.982652 114.624 
L 130.822728 120.168 
L 131.232 121.014511 
L 133.545128 125.712 
L 136.10069 131.256 
L 137.184 133.955439 
L 138.357745 136.8 
L 140.131034 142.344 
L 141.151429 147.888 
L 140.964066 153.432 
L 138.811961 158.976 
L 137.184 160.715092 
L 133.228521 164.52 
L 131.232 165.531743 
L 125.28 168.21569 
L 120.408918 170.064 
L 119.328 170.302454 
L 113.376 171.399508 
L 107.424 172.212886 
L 101.472 172.69749 
L 95.52 172.797609 
L 89.568 172.443388 
L 83.616 171.54557 
L 77.966219 170.064 
L 77.664 169.950093 
L 71.712 166.469514 
L 69.411152 164.52 
L 65.76 160.401104 
L 64.888835 158.976 
L 62.292406 153.432 
L 60.221903 147.888 
L 59.808 146.472541 
z
M 59.808 139.657815 
L 60.412621 142.344 
L 62.014728 147.888 
L 64.027849 153.432 
L 65.76 157.172757 
L 66.990122 158.976 
L 71.712 164.359749 
L 71.920179 164.52 
L 77.664 167.792514 
L 83.616 170.034539 
L 83.757464 170.064 
L 89.568 170.894439 
L 95.52 171.200018 
L 101.472 171.050509 
L 107.424 170.51587 
L 110.580595 170.064 
L 113.376 169.396895 
L 119.328 167.497511 
L 125.28 165.121932 
L 126.593354 164.52 
L 131.232 160.607532 
L 132.932009 158.976 
L 135.508452 153.432 
L 135.999648 147.888 
L 135.214897 142.344 
L 133.636837 136.8 
L 131.564329 131.256 
L 131.232 130.507172 
L 129.143547 125.712 
L 126.544661 120.168 
L 125.28 117.608091 
L 123.816712 114.624 
L 121.030066 109.08 
L 119.328 105.716284 
L 118.217853 103.536 
L 115.390068 97.992 
L 113.376 93.974738 
L 112.592188 92.448 
L 109.77421 86.904 
L 107.424 82.124347 
L 107.029921 81.36 
L 104.215949 75.816 
L 101.527223 70.272 
L 101.472 70.156232 
L 98.670811 64.728 
L 95.955541 59.184 
L 95.52 58.270847 
L 93.003998 53.64 
L 90.155903 48.096 
L 89.568 46.911846 
L 86.868406 42.552 
L 83.660592 37.008 
L 83.616 36.928131 
L 78.982202 31.464 
L 77.664 29.791392 
L 71.712 27.98472 
L 68.951995 31.464 
L 65.76 35.949801 
L 65.492723 37.008 
L 64.157038 42.552 
L 62.916721 48.096 
L 61.773274 53.64 
L 60.728568 59.184 
L 59.808 64.588578 
L 59.795317 64.728 
L 59.329037 70.272 
L 58.911987 75.816 
L 58.54839 81.36 
L 58.243007 86.904 
L 58.001243 92.448 
L 57.829292 97.992 
L 57.734305 103.536 
L 57.72464 109.08 
L 57.810179 114.624 
L 58.002779 120.168 
L 58.316914 125.712 
L 58.770606 131.256 
L 59.386828 136.8 
z
" clip-path="url(#p21faa1e844)" style="fill: #277e8e"/>
    <path d="M 58.746177 147.888 
L 57.821684 142.344 
L 56.962739 136.8 
L 56.29676 131.256 
L 55.793627 125.712 
L 55.430359 120.168 
L 55.188934 114.624 
L 55.054871 109.08 
L 55.016309 103.536 
L 55.063359 97.992 
L 55.187661 92.448 
L 55.382054 86.904 
L 55.640343 81.36 
L 55.957116 75.816 
L 56.327606 70.272 
L 56.747587 64.728 
L 57.213288 59.184 
L 57.721326 53.64 
L 58.268652 48.096 
L 58.852503 42.552 
L 59.470371 37.008 
L 59.808 34.10768 
L 60.419051 31.464 
L 61.773448 25.92 
L 65.109615 25.92 
L 63.670825 31.464 
L 62.323707 37.008 
L 61.069193 42.552 
L 59.908508 48.096 
L 59.808 48.606721 
L 59.29111 53.64 
L 58.760175 59.184 
L 58.271452 64.728 
L 57.828321 70.272 
L 57.434551 75.816 
L 57.094367 81.36 
L 56.81253 86.904 
L 56.594452 92.448 
L 56.446325 97.992 
L 56.375307 103.536 
L 56.389756 109.08 
L 56.499556 114.624 
L 56.716569 120.168 
L 57.05527 125.712 
L 57.533683 131.256 
L 58.174784 136.8 
L 59.008692 142.344 
L 59.808 146.472541 
L 60.221903 147.888 
L 62.292406 153.432 
L 64.888835 158.976 
L 65.76 160.401104 
L 69.411152 164.52 
L 71.712 166.469514 
L 77.664 169.950093 
L 77.966219 170.064 
L 83.616 171.54557 
L 89.568 172.443388 
L 95.52 172.797609 
L 101.472 172.69749 
L 107.424 172.212886 
L 113.376 171.399508 
L 119.328 170.302454 
L 120.408918 170.064 
L 125.28 168.21569 
L 131.232 165.531743 
L 133.228521 164.52 
L 137.184 160.715092 
L 138.811961 158.976 
L 140.964066 153.432 
L 141.151429 147.888 
L 140.131034 142.344 
L 138.357745 136.8 
L 137.184 133.955439 
L 136.10069 131.256 
L 133.545128 125.712 
L 131.232 121.014511 
L 130.822728 120.168 
L 127.982652 114.624 
L 125.28 109.386397 
L 125.123072 109.08 
L 122.217532 103.536 
L 119.367038 97.992 
L 119.328 97.91646 
L 116.487163 92.448 
L 113.697319 86.904 
L 113.376 86.259585 
L 110.879586 81.36 
L 108.157129 75.816 
L 107.424 74.291599 
L 105.404143 70.272 
L 102.722991 64.728 
L 101.472 62.057551 
L 100.01963 59.184 
L 97.321388 53.64 
L 95.52 49.776976 
L 94.631007 48.096 
L 91.806352 42.552 
L 89.568 37.918152 
L 89.024084 37.008 
L 85.844587 31.464 
L 83.616 27.331893 
L 82.481243 25.92 
L 83.616 25.92 
L 87.872488 25.92 
L 89.568 28.961032 
L 90.711815 31.464 
L 93.349251 37.008 
L 95.52 41.346177 
L 96.05613 42.552 
L 98.595549 48.096 
L 101.267288 53.64 
L 101.472 54.054132 
L 103.828058 59.184 
L 106.489809 64.728 
L 107.424 66.619227 
L 109.153537 70.272 
L 111.867609 75.816 
L 113.376 78.809048 
L 114.635281 81.36 
L 117.435561 86.904 
L 119.328 90.554579 
L 120.304887 92.448 
L 123.199317 97.992 
L 125.28 101.907436 
L 126.152001 103.536 
L 129.112778 109.08 
L 131.232 113.043538 
L 132.092025 114.624 
L 135.028563 120.168 
L 137.184 124.364561 
L 137.894412 125.712 
L 140.591129 131.256 
L 143.02205 136.8 
L 143.136 137.131558 
L 144.991649 142.344 
L 146.237368 147.888 
L 146.324282 153.432 
L 144.531236 158.976 
L 143.136 160.618673 
L 139.521284 164.52 
L 137.184 165.805394 
L 131.232 168.766007 
L 128.260601 170.064 
L 125.28 170.808799 
L 119.328 172.101114 
L 113.376 173.147111 
L 107.424 173.909902 
L 101.472 174.344472 
L 95.52 174.3952 
L 89.568 173.992336 
L 83.616 173.046734 
L 77.664 171.441568 
L 74.327316 170.064 
L 71.712 168.532433 
L 66.97646 164.52 
L 65.76 163.147701 
L 63.209841 158.976 
L 60.556962 153.432 
L 59.808 151.43932 
z
" clip-path="url(#p21faa1e844)" style="fill: #2f6b8e"/>
    <path d="M 53.626637 109.08 
L 53.532314 103.536 
L 53.572851 97.992 
L 53.733535 92.448 
L 53.856 89.985189 
L 53.951578 86.904 
L 54.18632 81.36 
L 54.47968 75.816 
L 54.82689 70.272 
L 55.223722 64.728 
L 55.666401 59.184 
L 56.151542 53.64 
L 56.676094 48.096 
L 57.237293 42.552 
L 57.832628 37.008 
L 58.366999 31.464 
L 58.979887 25.92 
L 59.808 25.92 
L 61.773448 25.92 
L 60.419051 31.464 
L 59.808 34.10768 
L 59.470371 37.008 
L 58.852503 42.552 
L 58.268652 48.096 
L 57.721326 53.64 
L 57.213288 59.184 
L 56.747587 64.728 
L 56.327606 70.272 
L 55.957116 75.816 
L 55.640343 81.36 
L 55.382054 86.904 
L 55.187661 92.448 
L 55.063359 97.992 
L 55.016309 103.536 
L 55.054871 109.08 
L 55.188934 114.624 
L 55.430359 120.168 
L 55.793627 125.712 
L 56.29676 131.256 
L 56.962739 136.8 
L 57.821684 142.344 
L 58.746177 147.888 
L 59.808 151.43932 
L 60.556962 153.432 
L 63.209841 158.976 
L 65.76 163.147701 
L 66.97646 164.52 
L 71.712 168.532433 
L 74.327316 170.064 
L 77.664 171.441568 
L 83.616 173.046734 
L 89.568 173.992336 
L 95.52 174.3952 
L 101.472 174.344472 
L 107.424 173.909902 
L 113.376 173.147111 
L 119.328 172.101114 
L 125.28 170.808799 
L 128.260601 170.064 
L 131.232 168.766007 
L 137.184 165.805394 
L 139.521284 164.52 
L 143.136 160.618673 
L 144.531236 158.976 
L 146.324282 153.432 
L 146.237368 147.888 
L 144.991649 142.344 
L 143.136 137.131558 
L 143.02205 136.8 
L 140.591129 131.256 
L 137.894412 125.712 
L 137.184 124.364561 
L 135.028563 120.168 
L 132.092025 114.624 
L 131.232 113.043538 
L 129.112778 109.08 
L 126.152001 103.536 
L 125.28 101.907436 
L 123.199317 97.992 
L 120.304887 92.448 
L 119.328 90.554579 
L 117.435561 86.904 
L 114.635281 81.36 
L 113.376 78.809048 
L 111.867609 75.816 
L 109.153537 70.272 
L 107.424 66.619227 
L 106.489809 64.728 
L 103.828058 59.184 
L 101.472 54.054132 
L 101.267288 53.64 
L 98.595549 48.096 
L 96.05613 42.552 
L 95.52 41.346177 
L 93.349251 37.008 
L 90.711815 31.464 
L 89.568 28.961032 
L 87.872488 25.92 
L 89.568 25.92 
L 92.199418 25.92 
L 94.803446 31.464 
L 95.52 32.93671 
L 97.286117 37.008 
L 99.795155 42.552 
L 101.472 46.108974 
L 102.346139 48.096 
L 104.860622 53.64 
L 107.424 59.039615 
L 107.489885 59.184 
L 110.070515 64.728 
L 112.764226 70.272 
L 113.376 71.503259 
L 115.476845 75.816 
L 118.269827 81.36 
L 119.328 83.416422 
L 121.114894 86.904 
L 124.025416 92.448 
L 125.28 94.801697 
L 126.993568 97.992 
L 130.01339 103.536 
L 131.232 105.768039 
L 133.071758 109.08 
L 136.148286 114.624 
L 137.184 116.532015 
L 139.20867 120.168 
L 142.203858 125.712 
L 143.136 127.563307 
L 145.057412 131.256 
L 147.653509 136.8 
L 149.088 140.517832 
L 149.821299 142.344 
L 151.287725 147.888 
L 151.63097 153.432 
L 150.154614 158.976 
L 149.088 160.350854 
L 145.60732 164.52 
L 143.136 165.975151 
L 137.184 169.185831 
L 135.382846 170.064 
L 131.232 171.202628 
L 125.28 172.658916 
L 119.328 173.899774 
L 113.376 174.894713 
L 107.424 175.606918 
L 107.407749 175.608 
L 101.472 176.073135 
L 95.52 176.087799 
L 90.470912 175.608 
L 89.568 175.541284 
L 83.616 174.547898 
L 77.664 172.895916 
L 71.712 170.574035 
L 71.114831 170.064 
L 65.76 165.507184 
L 64.781168 164.52 
L 61.530848 158.976 
L 59.808 155.408346 
L 58.720344 153.432 
L 57.365632 147.888 
L 56.634675 142.344 
L 55.750695 136.8 
L 55.059838 131.256 
L 54.531983 125.712 
L 54.14415 120.168 
L 53.878311 114.624 
L 53.856 113.830353 
z
" clip-path="url(#p21faa1e844)" style="fill: #39568c"/>
    <path d="M 53.754529 131.256 
L 52.478941 125.712 
L 51.863671 120.168 
L 51.539069 114.624 
L 51.375587 109.08 
L 51.318367 103.536 
L 51.342958 97.992 
L 51.440436 92.448 
L 51.612188 86.904 
L 51.869052 81.36 
L 52.233676 75.816 
L 52.747261 70.272 
L 53.485182 64.728 
L 53.856 62.645761 
L 54.119514 59.184 
L 54.581759 53.64 
L 55.083537 48.096 
L 55.622084 42.552 
L 56.194885 37.008 
L 56.592558 31.464 
L 56.964361 25.92 
L 58.979887 25.92 
L 58.366999 31.464 
L 57.832628 37.008 
L 57.237293 42.552 
L 56.676094 48.096 
L 56.151542 53.64 
L 55.666401 59.184 
L 55.223722 64.728 
L 54.82689 70.272 
L 54.47968 75.816 
L 54.18632 81.36 
L 53.951578 86.904 
L 53.856 89.985189 
L 53.733535 92.448 
L 53.572851 97.992 
L 53.532314 103.536 
L 53.626637 109.08 
L 53.856 113.830353 
L 53.878311 114.624 
L 54.14415 120.168 
L 54.531983 125.712 
L 55.059838 131.256 
L 55.750695 136.8 
L 56.634675 142.344 
L 57.365632 147.888 
L 58.720344 153.432 
L 59.808 155.408346 
L 61.530848 158.976 
L 64.781168 164.52 
L 65.76 165.507184 
L 71.114831 170.064 
L 71.712 170.574035 
L 77.664 172.895916 
L 83.616 174.547898 
L 89.568 175.541284 
L 90.470912 175.608 
L 95.52 176.087799 
L 101.472 176.073135 
L 107.407749 175.608 
L 107.424 175.606918 
L 113.376 174.894713 
L 119.328 173.899774 
L 125.28 172.658916 
L 131.232 171.202628 
L 135.382846 170.064 
L 137.184 169.185831 
L 143.136 165.975151 
L 145.60732 164.52 
L 149.088 160.350854 
L 150.154614 158.976 
L 151.63097 153.432 
L 151.287725 147.888 
L 149.821299 142.344 
L 149.088 140.517832 
L 147.653509 136.8 
L 145.057412 131.256 
L 143.136 127.563307 
L 142.203858 125.712 
L 139.20867 120.168 
L 137.184 116.532015 
L 136.148286 114.624 
L 133.071758 109.08 
L 131.232 105.768039 
L 130.01339 103.536 
L 126.993568 97.992 
L 125.28 94.801697 
L 124.025416 92.448 
L 121.114894 86.904 
L 119.328 83.416422 
L 118.269827 81.36 
L 115.476845 75.816 
L 113.376 71.503259 
L 112.764226 70.272 
L 110.070515 64.728 
L 107.489885 59.184 
L 107.424 59.039615 
L 104.860622 53.64 
L 102.346139 48.096 
L 101.472 46.108974 
L 99.795155 42.552 
L 97.286117 37.008 
L 95.52 32.93671 
L 94.803446 31.464 
L 92.199418 25.92 
L 95.52 25.92 
L 96.101126 25.92 
L 98.459784 31.464 
L 100.934095 37.008 
L 101.472 38.177528 
L 103.353165 42.552 
L 105.835317 48.096 
L 107.424 51.515986 
L 108.373557 53.64 
L 110.925253 59.184 
L 113.376 64.292857 
L 113.601616 64.728 
L 116.244051 70.272 
L 119.016731 75.816 
L 119.328 76.427825 
L 121.827554 81.36 
L 124.73383 86.904 
L 125.28 87.932249 
L 127.697231 92.448 
L 130.742646 97.992 
L 131.232 98.879967 
L 133.842086 103.536 
L 137.000525 109.08 
L 137.184 109.407165 
L 140.183476 114.624 
L 143.136 119.773449 
L 143.369369 120.168 
L 146.502765 125.712 
L 149.088 130.500472 
L 149.511395 131.256 
L 152.2825 136.8 
L 154.640475 142.344 
L 155.04 143.704298 
L 156.325472 147.888 
L 156.914501 153.432 
L 155.72687 158.976 
L 155.04 159.941279 
L 151.570689 164.52 
L 149.088 166.06941 
L 143.136 169.507638 
L 142.091762 170.064 
L 137.184 171.861989 
L 131.232 173.104544 
L 125.28 174.509034 
L 119.792485 175.608 
L 119.328 175.783036 
L 113.376 177.145545 
L 107.424 177.787938 
L 101.472 178.070952 
L 95.52 178.079848 
L 89.568 177.730818 
L 83.616 176.49519 
L 82.106643 175.608 
L 77.664 174.350265 
L 71.712 172.55419 
L 68.796387 170.064 
L 65.76 167.480117 
L 62.824929 164.52 
L 59.851854 158.976 
L 59.808 158.885187 
L 56.806911 153.432 
L 55.985087 147.888 
L 55.447667 142.344 
L 54.53865 136.8 
L 53.856 131.507353 
z
" clip-path="url(#p21faa1e844)" style="fill: #424186"/>
    <path d="M 51.200494 136.8 
L 49.960923 131.256 
L 49.512453 125.712 
L 49.296137 120.168 
L 49.182014 114.624 
L 49.124537 109.08 
L 49.10442 103.536 
L 49.113066 97.992 
L 49.147337 92.448 
L 49.207721 86.904 
L 49.298029 81.36 
L 49.426223 75.816 
L 49.606789 70.272 
L 49.866226 64.728 
L 50.256447 59.184 
L 50.892507 53.64 
L 52.087527 48.096 
L 53.856 44.157197 
L 54.006874 42.552 
L 54.557142 37.008 
L 54.818116 31.464 
L 54.948834 25.92 
L 56.964361 25.92 
L 56.592558 31.464 
L 56.194885 37.008 
L 55.622084 42.552 
L 55.083537 48.096 
L 54.581759 53.64 
L 54.119514 59.184 
L 53.856 62.645761 
L 53.485182 64.728 
L 52.747261 70.272 
L 52.233676 75.816 
L 51.869052 81.36 
L 51.612188 86.904 
L 51.440436 92.448 
L 51.342958 97.992 
L 51.318367 103.536 
L 51.375587 109.08 
L 51.539069 114.624 
L 51.863671 120.168 
L 52.478941 125.712 
L 53.754529 131.256 
L 53.856 131.507353 
L 54.53865 136.8 
L 55.447667 142.344 
L 55.985087 147.888 
L 56.806911 153.432 
L 59.808 158.885187 
L 59.851854 158.976 
L 62.824929 164.52 
L 65.76 167.480117 
L 68.796387 170.064 
L 71.712 172.55419 
L 77.664 174.350265 
L 82.106643 175.608 
L 83.616 176.49519 
L 89.568 177.730818 
L 95.52 178.079848 
L 101.472 178.070952 
L 107.424 177.787938 
L 113.376 177.145545 
L 119.328 175.783036 
L 119.792485 175.608 
L 125.28 174.509034 
L 131.232 173.104544 
L 137.184 171.861989 
L 142.091762 170.064 
L 143.136 169.507638 
L 149.088 166.06941 
L 151.570689 164.52 
L 155.04 159.941279 
L 155.72687 158.976 
L 156.914501 153.432 
L 156.325472 147.888 
L 155.04 143.704298 
L 154.640475 142.344 
L 152.2825 136.8 
L 149.511395 131.256 
L 149.088 130.500472 
L 146.502765 125.712 
L 143.369369 120.168 
L 143.136 119.773449 
L 140.183476 114.624 
L 137.184 109.407165 
L 137.000525 109.08 
L 133.842086 103.536 
L 131.232 98.879967 
L 130.742646 97.992 
L 127.697231 92.448 
L 125.28 87.932249 
L 124.73383 86.904 
L 121.827554 81.36 
L 119.328 76.427825 
L 119.016731 75.816 
L 116.244051 70.272 
L 113.601616 64.728 
L 113.376 64.292857 
L 110.925253 59.184 
L 108.373557 53.64 
L 107.424 51.515986 
L 105.835317 48.096 
L 103.353165 42.552 
L 101.472 38.177528 
L 100.934095 37.008 
L 98.459784 31.464 
L 96.101126 25.92 
L 99.587205 25.92 
L 101.472 30.229968 
L 102.793912 31.464 
L 105.110173 37.008 
L 106.763983 42.552 
L 107.424 44.005287 
L 110.406777 48.096 
L 111.731505 53.64 
L 113.376 57.137253 
L 115.43425 59.184 
L 117.314724 64.728 
L 119.328 69.358889 
L 120.308309 70.272 
L 123.060874 75.816 
L 125.28 81.154143 
L 125.501007 81.36 
L 128.912407 86.904 
L 131.232 92.150168 
L 131.55175 92.448 
L 134.897917 97.992 
L 137.184 102.506207 
L 138.289579 103.536 
L 140.978056 109.08 
L 143.136 112.794774 
L 145.099845 114.624 
L 147.524579 120.168 
L 149.088 122.861376 
L 151.608357 125.712 
L 153.97059 131.256 
L 155.04 133.32047 
L 157.582042 136.8 
L 159.472788 142.344 
L 160.992 146.827 
L 161.710068 147.888 
L 162.752055 153.432 
L 161.512488 158.976 
L 160.992 159.46081 
L 157.614659 164.52 
L 155.04 166.918171 
L 149.088 169.76006 
L 148.558001 170.064 
L 143.136 173.437147 
L 137.184 174.290981 
L 131.232 175.006459 
L 128.625674 175.608 
L 125.28 177.981816 
L 119.328 179.264385 
L 113.376 179.743415 
L 107.424 179.969266 
L 101.472 180.068768 
L 95.52 180.071896 
L 89.568 179.949184 
L 83.616 179.514764 
L 77.664 176.71443 
L 76.476145 175.608 
L 71.712 174.534344 
L 66.477942 170.064 
L 65.76 169.453051 
L 60.868689 164.52 
L 59.808 162.537266 
L 55.98465 158.976 
L 54.893478 153.432 
L 54.604542 147.888 
L 54.260659 142.344 
L 53.856 139.913728 
z
" clip-path="url(#p21faa1e844)" style="fill: #482979"/>
    <path d="M 36 186.696 
L 36 181.152 
L 36 175.608 
L 36 170.064 
L 36 164.52 
L 36 158.976 
L 36 153.432 
L 36 147.888 
L 36 142.344 
L 36 136.8 
L 36 131.256 
L 36 125.712 
L 36 120.168 
L 36 114.624 
L 36 109.08 
L 36 103.536 
L 36 97.992 
L 36 92.448 
L 36 86.904 
L 36 81.36 
L 36 75.816 
L 36 70.272 
L 36 64.728 
L 36 59.184 
L 36 53.64 
L 36 48.096 
L 36 42.552 
L 36 37.008 
L 36 31.464 
L 36 25.92 
L 41.952 25.92 
L 47.904 25.92 
L 53.856 25.92 
L 54.948834 25.92 
L 54.818116 31.464 
L 54.557142 37.008 
L 54.006874 42.552 
L 53.856 44.157197 
L 52.087527 48.096 
L 50.892507 53.64 
L 50.256447 59.184 
L 49.866226 64.728 
L 49.606789 70.272 
L 49.426223 75.816 
L 49.298029 81.36 
L 49.207721 86.904 
L 49.147337 92.448 
L 49.113066 97.992 
L 49.10442 103.536 
L 49.124537 109.08 
L 49.182014 114.624 
L 49.296137 120.168 
L 49.512453 125.712 
L 49.960923 131.256 
L 51.200494 136.8 
L 53.856 139.913728 
L 54.260659 142.344 
L 54.604542 147.888 
L 54.893478 153.432 
L 55.98465 158.976 
L 59.808 162.537266 
L 60.868689 164.52 
L 65.76 169.453051 
L 66.477942 170.064 
L 71.712 174.534344 
L 76.476145 175.608 
L 77.664 176.71443 
L 83.616 179.514764 
L 89.568 179.949184 
L 95.52 180.071896 
L 101.472 180.068768 
L 107.424 179.969266 
L 113.376 179.743415 
L 119.328 179.264385 
L 125.28 177.981816 
L 128.625674 175.608 
L 131.232 175.006459 
L 137.184 174.290981 
L 143.136 173.437147 
L 148.558001 170.064 
L 149.088 169.76006 
L 155.04 166.918171 
L 157.614659 164.52 
L 160.992 159.46081 
L 161.512488 158.976 
L 162.752055 153.432 
L 161.710068 147.888 
L 160.992 146.827 
L 159.472788 142.344 
L 157.582042 136.8 
L 155.04 133.32047 
L 153.97059 131.256 
L 151.608357 125.712 
L 149.088 122.861376 
L 147.524579 120.168 
L 145.099845 114.624 
L 143.136 112.794774 
L 140.978056 109.08 
L 138.289579 103.536 
L 137.184 102.506207 
L 134.897917 97.992 
L 131.55175 92.448 
L 131.232 92.150168 
L 128.912407 86.904 
L 125.501007 81.36 
L 125.28 81.154143 
L 123.060874 75.816 
L 120.308309 70.272 
L 119.328 69.358889 
L 117.314724 64.728 
L 115.43425 59.184 
L 113.376 57.137253 
L 111.731505 53.64 
L 110.406777 48.096 
L 107.424 44.005287 
L 106.763983 42.552 
L 105.110173 37.008 
L 102.793912 31.464 
L 101.472 30.229968 
L 99.587205 25.92 
L 101.472 25.92 
L 107.424 25.92 
L 113.376 25.92 
L 119.328 25.92 
L 125.28 25.92 
L 131.232 25.92 
L 137.184 25.92 
L 143.136 25.92 
L 149.088 25.92 
L 155.04 25.92 
L 160.992 25.92 
L 166.944 25.92 
L 172.896 25.92 
L 178.848 25.92 
L 184.8 25.92 
L 190.752 25.92 
L 196.704 25.92 
L 202.656 25.92 
L 208.608 25.92 
L 214.56 25.92 
L 214.56 31.464 
L 214.56 37.008 
L 214.56 42.552 
L 214.56 48.096 
L 214.56 53.64 
L 214.56 59.184 
L 214.56 64.728 
L 214.56 70.272 
L 214.56 75.816 
L 214.56 81.36 
L 214.56 86.904 
L 214.56 92.448 
L 214.56 97.992 
L 214.56 103.536 
L 214.56 109.08 
L 214.56 114.624 
L 214.56 120.168 
L 214.56 125.712 
L 214.56 131.256 
L 214.56 136.8 
L 214.56 142.344 
L 214.56 147.888 
L 214.56 153.432 
L 214.56 158.976 
L 214.56 164.52 
L 214.56 170.064 
L 214.56 175.608 
L 214.56 181.152 
L 214.56 186.696 
L 214.56 192.24 
L 208.608 192.24 
L 202.656 192.24 
L 196.704 192.24 
L 190.752 192.24 
L 184.8 192.24 
L 178.848 192.24 
L 172.896 192.24 
L 166.944 192.24 
L 160.992 192.24 
L 155.04 192.24 
L 149.088 192.24 
L 143.136 192.24 
L 137.184 192.24 
L 131.232 192.24 
L 125.28 192.24 
L 119.328 192.24 
L 113.376 192.24 
L 107.424 192.24 
L 101.472 192.24 
L 95.52 192.24 
L 89.568 192.24 
L 83.616 192.24 
L 77.664 192.24 
L 71.712 192.24 
L 65.76 192.24 
L 59.808 192.24 
L 53.856 192.24 
L 47.904 192.24 
L 41.952 192.24 
L 36 192.24 
z
" clip-path="url(#p21faa1e844)" style="fill: #470e61"/>
   </g>
   <g id="PathCollection_1">
    <defs>
     <path id="m527969937c" d="M -4.743416 4.743416 
L 4.743416 -4.743416 
M -4.743416 -4.743416 
L 4.743416 4.743416 
" style="stroke: #ffffff; stroke-width: 5"/>
    </defs>
    <g clip-path="url(#p21faa1e844)">
     <use xlink:href="#m527969937c" x="85.6" y="127.56" style="fill: #ffffff; stroke: #ffffff; stroke-width: 5"/>
    </g>
   </g>
   <g id="PathCollection_2">
    <defs>
     <path id="m67c4903411" d="M -4.330127 4.330127 
L 4.330127 -4.330127 
M -4.330127 -4.330127 
L 4.330127 4.330127 
" style="stroke: #000000; stroke-width: 2"/>
    </defs>
    <g clip-path="url(#p21faa1e844)">
     <use xlink:href="#m67c4903411" x="85.6" y="127.56" style="stroke: #000000; stroke-width: 2"/>
    </g>
   </g>
   <g id="matplotlib.axis_1">
    <g id="xtick_1">
     <g id="line2d_1">
      <defs>
       <path id="m2fd9a243ce" d="M 0 0 
L 0 6 
" style="stroke: #000000; stroke-width: 2"/>
      </defs>
      <g>
       <use xlink:href="#m2fd9a243ce" x="65.76" y="192.24" style="stroke: #000000; stroke-width: 2"/>
      </g>
     </g>
     <g id="text_1">
      <!-- $\mathdefault{200}$ -->
      <g transform="translate(52.39 212.377813) scale(0.14 -0.14)">
       <defs>
        <path id="DejaVuSans-32" d="M 1228 531 
L 3431 531 
L 3431 0 
L 469 0 
L 469 531 
Q 828 903 1448 1529 
Q 2069 2156 2228 2338 
Q 2531 2678 2651 2914 
Q 2772 3150 2772 3378 
Q 2772 3750 2511 3984 
Q 2250 4219 1831 4219 
Q 1534 4219 1204 4116 
Q 875 4013 500 3803 
L 500 4441 
Q 881 4594 1212 4672 
Q 1544 4750 1819 4750 
Q 2544 4750 2975 4387 
Q 3406 4025 3406 3419 
Q 3406 3131 3298 2873 
Q 3191 2616 2906 2266 
Q 2828 2175 2409 1742 
Q 1991 1309 1228 531 
z
" transform="scale(0.015625)"/>
        <path id="DejaVuSans-30" d="M 2034 4250 
Q 1547 4250 1301 3770 
Q 1056 3291 1056 2328 
Q 1056 1369 1301 889 
Q 1547 409 2034 409 
Q 2525 409 2770 889 
Q 3016 1369 3016 2328 
Q 3016 3291 2770 3770 
Q 2525 4250 2034 4250 
z
M 2034 4750 
Q 2819 4750 3233 4129 
Q 3647 3509 3647 2328 
Q 3647 1150 3233 529 
Q 2819 -91 2034 -91 
Q 1250 -91 836 529 
Q 422 1150 422 2328 
Q 422 3509 836 4129 
Q 1250 4750 2034 4750 
z
" transform="scale(0.015625)"/>
       </defs>
       <use xlink:href="#DejaVuSans-32" transform="translate(0 0.78125)"/>
       <use xlink:href="#DejaVuSans-30" transform="translate(63.623047 0.78125)"/>
       <use xlink:href="#DejaVuSans-30" transform="translate(127.246094 0.78125)"/>
      </g>
     </g>
    </g>
    <g id="xtick_2">
     <g id="line2d_2">
      <g>
       <use xlink:href="#m2fd9a243ce" x="105.44" y="192.24" style="stroke: #000000; stroke-width: 2"/>
      </g>
     </g>
     <g id="text_2">
      <!-- $\mathdefault{400}$ -->
      <g transform="translate(92.07 212.377813) scale(0.14 -0.14)">
       <defs>
        <path id="DejaVuSans-34" d="M 2419 4116 
L 825 1625 
L 2419 1625 
L 2419 4116 
z
M 2253 4666 
L 3047 4666 
L 3047 1625 
L 3713 1625 
L 3713 1100 
L 3047 1100 
L 3047 0 
L 2419 0 
L 2419 1100 
L 313 1100 
L 313 1709 
L 2253 4666 
z
" transform="scale(0.015625)"/>
       </defs>
       <use xlink:href="#DejaVuSans-34" transform="translate(0 0.78125)"/>
       <use xlink:href="#DejaVuSans-30" transform="translate(63.623047 0.78125)"/>
       <use xlink:href="#DejaVuSans-30" transform="translate(127.246094 0.78125)"/>
      </g>
     </g>
    </g>
    <g id="xtick_3">
     <g id="line2d_3">
      <g>
       <use xlink:href="#m2fd9a243ce" x="145.12" y="192.24" style="stroke: #000000; stroke-width: 2"/>
      </g>
     </g>
     <g id="text_3">
      <!-- $\mathdefault{600}$ -->
      <g transform="translate(131.75 212.377813) scale(0.14 -0.14)">
       <defs>
        <path id="DejaVuSans-36" d="M 2113 2584 
Q 1688 2584 1439 2293 
Q 1191 2003 1191 1497 
Q 1191 994 1439 701 
Q 1688 409 2113 409 
Q 2538 409 2786 701 
Q 3034 994 3034 1497 
Q 3034 2003 2786 2293 
Q 2538 2584 2113 2584 
z
M 3366 4563 
L 3366 3988 
Q 3128 4100 2886 4159 
Q 2644 4219 2406 4219 
Q 1781 4219 1451 3797 
Q 1122 3375 1075 2522 
Q 1259 2794 1537 2939 
Q 1816 3084 2150 3084 
Q 2853 3084 3261 2657 
Q 3669 2231 3669 1497 
Q 3669 778 3244 343 
Q 2819 -91 2113 -91 
Q 1303 -91 875 529 
Q 447 1150 447 2328 
Q 447 3434 972 4092 
Q 1497 4750 2381 4750 
Q 2619 4750 2861 4703 
Q 3103 4656 3366 4563 
z
" transform="scale(0.015625)"/>
       </defs>
       <use xlink:href="#DejaVuSans-36" transform="translate(0 0.78125)"/>
       <use xlink:href="#DejaVuSans-30" transform="translate(63.623047 0.78125)"/>
       <use xlink:href="#DejaVuSans-30" transform="translate(127.246094 0.78125)"/>
      </g>
     </g>
    </g>
    <g id="xtick_4">
     <g id="line2d_4">
      <g>
       <use xlink:href="#m2fd9a243ce" x="184.8" y="192.24" style="stroke: #000000; stroke-width: 2"/>
      </g>
     </g>
     <g id="text_4">
      <!-- $\mathdefault{800}$ -->
      <g transform="translate(171.43 212.377813) scale(0.14 -0.14)">
       <defs>
        <path id="DejaVuSans-38" d="M 2034 2216 
Q 1584 2216 1326 1975 
Q 1069 1734 1069 1313 
Q 1069 891 1326 650 
Q 1584 409 2034 409 
Q 2484 409 2743 651 
Q 3003 894 3003 1313 
Q 3003 1734 2745 1975 
Q 2488 2216 2034 2216 
z
M 1403 2484 
Q 997 2584 770 2862 
Q 544 3141 544 3541 
Q 544 4100 942 4425 
Q 1341 4750 2034 4750 
Q 2731 4750 3128 4425 
Q 3525 4100 3525 3541 
Q 3525 3141 3298 2862 
Q 3072 2584 2669 2484 
Q 3125 2378 3379 2068 
Q 3634 1759 3634 1313 
Q 3634 634 3220 271 
Q 2806 -91 2034 -91 
Q 1263 -91 848 271 
Q 434 634 434 1313 
Q 434 1759 690 2068 
Q 947 2378 1403 2484 
z
M 1172 3481 
Q 1172 3119 1398 2916 
Q 1625 2713 2034 2713 
Q 2441 2713 2670 2916 
Q 2900 3119 2900 3481 
Q 2900 3844 2670 4047 
Q 2441 4250 2034 4250 
Q 1625 4250 1398 4047 
Q 1172 3844 1172 3481 
z
" transform="scale(0.015625)"/>
       </defs>
       <use xlink:href="#DejaVuSans-38" transform="translate(0 0.78125)"/>
       <use xlink:href="#DejaVuSans-30" transform="translate(63.623047 0.78125)"/>
       <use xlink:href="#DejaVuSans-30" transform="translate(127.246094 0.78125)"/>
      </g>
     </g>
    </g>
    <g id="text_5">
     <!-- Diploid N$_e$1 -->
     <g transform="translate(74.34 232.969375) scale(0.18 -0.18)">
      <defs>
       <path id="DejaVuSans-44" d="M 1259 4147 
L 1259 519 
L 2022 519 
Q 2988 519 3436 956 
Q 3884 1394 3884 2338 
Q 3884 3275 3436 3711 
Q 2988 4147 2022 4147 
L 1259 4147 
z
M 628 4666 
L 1925 4666 
Q 3281 4666 3915 4102 
Q 4550 3538 4550 2338 
Q 4550 1131 3912 565 
Q 3275 0 1925 0 
L 628 0 
L 628 4666 
z
" transform="scale(0.015625)"/>
       <path id="DejaVuSans-69" d="M 603 3500 
L 1178 3500 
L 1178 0 
L 603 0 
L 603 3500 
z
M 603 4863 
L 1178 4863 
L 1178 4134 
L 603 4134 
L 603 4863 
z
" transform="scale(0.015625)"/>
       <path id="DejaVuSans-70" d="M 1159 525 
L 1159 -1331 
L 581 -1331 
L 581 3500 
L 1159 3500 
L 1159 2969 
Q 1341 3281 1617 3432 
Q 1894 3584 2278 3584 
Q 2916 3584 3314 3078 
Q 3713 2572 3713 1747 
Q 3713 922 3314 415 
Q 2916 -91 2278 -91 
Q 1894 -91 1617 61 
Q 1341 213 1159 525 
z
M 3116 1747 
Q 3116 2381 2855 2742 
Q 2594 3103 2138 3103 
Q 1681 3103 1420 2742 
Q 1159 2381 1159 1747 
Q 1159 1113 1420 752 
Q 1681 391 2138 391 
Q 2594 391 2855 752 
Q 3116 1113 3116 1747 
z
" transform="scale(0.015625)"/>
       <path id="DejaVuSans-6c" d="M 603 4863 
L 1178 4863 
L 1178 0 
L 603 0 
L 603 4863 
z
" transform="scale(0.015625)"/>
       <path id="DejaVuSans-6f" d="M 1959 3097 
Q 1497 3097 1228 2736 
Q 959 2375 959 1747 
Q 959 1119 1226 758 
Q 1494 397 1959 397 
Q 2419 397 2687 759 
Q 2956 1122 2956 1747 
Q 2956 2369 2687 2733 
Q 2419 3097 1959 3097 
z
M 1959 3584 
Q 2709 3584 3137 3096 
Q 3566 2609 3566 1747 
Q 3566 888 3137 398 
Q 2709 -91 1959 -91 
Q 1206 -91 779 398 
Q 353 888 353 1747 
Q 353 2609 779 3096 
Q 1206 3584 1959 3584 
z
" transform="scale(0.015625)"/>
       <path id="DejaVuSans-64" d="M 2906 2969 
L 2906 4863 
L 3481 4863 
L 3481 0 
L 2906 0 
L 2906 525 
Q 2725 213 2448 61 
Q 2172 -91 1784 -91 
Q 1150 -91 751 415 
Q 353 922 353 1747 
Q 353 2572 751 3078 
Q 1150 3584 1784 3584 
Q 2172 3584 2448 3432 
Q 2725 3281 2906 2969 
z
M 947 1747 
Q 947 1113 1208 752 
Q 1469 391 1925 391 
Q 2381 391 2643 752 
Q 2906 1113 2906 1747 
Q 2906 2381 2643 2742 
Q 2381 3103 1925 3103 
Q 1469 3103 1208 2742 
Q 947 2381 947 1747 
z
" transform="scale(0.015625)"/>
       <path id="DejaVuSans-20" transform="scale(0.015625)"/>
       <path id="DejaVuSans-4e" d="M 628 4666 
L 1478 4666 
L 3547 763 
L 3547 4666 
L 4159 4666 
L 4159 0 
L 3309 0 
L 1241 3903 
L 1241 0 
L 628 0 
L 628 4666 
z
" transform="scale(0.015625)"/>
       <path id="DejaVuSans-Oblique-65" d="M 3078 2063 
Q 3088 2113 3092 2166 
Q 3097 2219 3097 2272 
Q 3097 2653 2873 2875 
Q 2650 3097 2266 3097 
Q 1838 3097 1509 2826 
Q 1181 2556 1013 2059 
L 3078 2063 
z
M 3578 1613 
L 903 1613 
Q 884 1494 878 1425 
Q 872 1356 872 1306 
Q 872 872 1139 634 
Q 1406 397 1894 397 
Q 2269 397 2603 481 
Q 2938 566 3225 728 
L 3116 159 
Q 2806 34 2476 -28 
Q 2147 -91 1806 -91 
Q 1078 -91 686 257 
Q 294 606 294 1247 
Q 294 1794 489 2264 
Q 684 2734 1063 3103 
Q 1306 3334 1642 3459 
Q 1978 3584 2356 3584 
Q 2950 3584 3301 3228 
Q 3653 2872 3653 2272 
Q 3653 2128 3634 1964 
Q 3616 1800 3578 1613 
z
" transform="scale(0.015625)"/>
       <path id="DejaVuSans-31" d="M 794 531 
L 1825 531 
L 1825 4091 
L 703 3866 
L 703 4441 
L 1819 4666 
L 2450 4666 
L 2450 531 
L 3481 531 
L 3481 0 
L 794 0 
L 794 531 
z
" transform="scale(0.015625)"/>
      </defs>
      <use xlink:href="#DejaVuSans-44" transform="translate(0 0.015625)"/>
      <use xlink:href="#DejaVuSans-69" transform="translate(77.001953 0.015625)"/>
      <use xlink:href="#DejaVuSans-70" transform="translate(104.785156 0.015625)"/>
      <use xlink:href="#DejaVuSans-6c" transform="translate(168.261719 0.015625)"/>
      <use xlink:href="#DejaVuSans-6f" transform="translate(196.044922 0.015625)"/>
      <use xlink:href="#DejaVuSans-69" transform="translate(257.226562 0.015625)"/>
      <use xlink:href="#DejaVuSans-64" transform="translate(285.009766 0.015625)"/>
      <use xlink:href="#DejaVuSans-20" transform="translate(348.486328 0.015625)"/>
      <use xlink:href="#DejaVuSans-4e" transform="translate(380.273438 0.015625)"/>
      <use xlink:href="#DejaVuSans-Oblique-65" transform="translate(456.035156 -16.390625) scale(0.7)"/>
      <use xlink:href="#DejaVuSans-31" transform="translate(501.835938 0.015625)"/>
     </g>
    </g>
    <g id="text_6">
     <!-- $\times\mathdefault{10^{3}}\mathdefault{}$ -->
     <g transform="translate(188.56 225.887812) scale(0.1 -0.1)">
      <defs>
       <path id="DejaVuSans-d7" d="M 4488 3438 
L 3059 2003 
L 4488 575 
L 4116 197 
L 2681 1631 
L 1247 197 
L 878 575 
L 2303 2003 
L 878 3438 
L 1247 3816 
L 2681 2381 
L 4116 3816 
L 4488 3438 
z
" transform="scale(0.015625)"/>
       <path id="DejaVuSans-33" d="M 2597 2516 
Q 3050 2419 3304 2112 
Q 3559 1806 3559 1356 
Q 3559 666 3084 287 
Q 2609 -91 1734 -91 
Q 1441 -91 1130 -33 
Q 819 25 488 141 
L 488 750 
Q 750 597 1062 519 
Q 1375 441 1716 441 
Q 2309 441 2620 675 
Q 2931 909 2931 1356 
Q 2931 1769 2642 2001 
Q 2353 2234 1838 2234 
L 1294 2234 
L 1294 2753 
L 1863 2753 
Q 2328 2753 2575 2939 
Q 2822 3125 2822 3475 
Q 2822 3834 2567 4026 
Q 2313 4219 1838 4219 
Q 1578 4219 1281 4162 
Q 984 4106 628 3988 
L 628 4550 
Q 988 4650 1302 4700 
Q 1616 4750 1894 4750 
Q 2613 4750 3031 4423 
Q 3450 4097 3450 3541 
Q 3450 3153 3228 2886 
Q 3006 2619 2597 2516 
z
" transform="scale(0.015625)"/>
      </defs>
      <use xlink:href="#DejaVuSans-d7" transform="translate(0 0.765625)"/>
      <use xlink:href="#DejaVuSans-31" transform="translate(83.789062 0.765625)"/>
      <use xlink:href="#DejaVuSans-30" transform="translate(147.412109 0.765625)"/>
      <use xlink:href="#DejaVuSans-33" transform="translate(211.992188 39.046875) scale(0.7)"/>
     </g>
    </g>
   </g>
   <g id="matplotlib.axis_2">
    <g id="ytick_1">
     <g id="line2d_5">
      <defs>
       <path id="md920b8dd93" d="M 0 0 
L -6 0 
" style="stroke: #000000; stroke-width: 2"/>
      </defs>
      <g>
       <use xlink:href="#md920b8dd93" x="36" y="164.52" style="stroke: #000000; stroke-width: 2"/>
      </g>
     </g>
     <g id="text_7">
      <!-- $\mathdefault{200}$ -->
      <g transform="translate(-0.24 169.838906) scale(0.14 -0.14)">
       <use xlink:href="#DejaVuSans-32" transform="translate(0 0.78125)"/>
       <use xlink:href="#DejaVuSans-30" transform="translate(63.623047 0.78125)"/>
       <use xlink:href="#DejaVuSans-30" transform="translate(127.246094 0.78125)"/>
      </g>
     </g>
    </g>
    <g id="ytick_2">
     <g id="line2d_6">
      <g>
       <use xlink:href="#md920b8dd93" x="36" y="127.56" style="stroke: #000000; stroke-width: 2"/>
      </g>
     </g>
     <g id="text_8">
      <!-- $\mathdefault{400}$ -->
      <g transform="translate(-0.24 132.878906) scale(0.14 -0.14)">
       <use xlink:href="#DejaVuSans-34" transform="translate(0 0.78125)"/>
       <use xlink:href="#DejaVuSans-30" transform="translate(63.623047 0.78125)"/>
       <use xlink:href="#DejaVuSans-30" transform="translate(127.246094 0.78125)"/>
      </g>
     </g>
    </g>
    <g id="ytick_3">
     <g id="line2d_7">
      <g>
       <use xlink:href="#md920b8dd93" x="36" y="90.6" style="stroke: #000000; stroke-width: 2"/>
      </g>
     </g>
     <g id="text_9">
      <!-- $\mathdefault{600}$ -->
      <g transform="translate(-0.24 95.918906) scale(0.14 -0.14)">
       <use xlink:href="#DejaVuSans-36" transform="translate(0 0.78125)"/>
       <use xlink:href="#DejaVuSans-30" transform="translate(63.623047 0.78125)"/>
       <use xlink:href="#DejaVuSans-30" transform="translate(127.246094 0.78125)"/>
      </g>
     </g>
    </g>
    <g id="ytick_4">
     <g id="line2d_8">
      <g>
       <use xlink:href="#md920b8dd93" x="36" y="53.64" style="stroke: #000000; stroke-width: 2"/>
      </g>
     </g>
     <g id="text_10">
      <!-- $\mathdefault{800}$ -->
      <g transform="translate(-0.24 58.958906) scale(0.14 -0.14)">
       <use xlink:href="#DejaVuSans-38" transform="translate(0 0.78125)"/>
       <use xlink:href="#DejaVuSans-30" transform="translate(63.623047 0.78125)"/>
       <use xlink:href="#DejaVuSans-30" transform="translate(127.246094 0.78125)"/>
      </g>
     </g>
    </g>
    <g id="text_11">
     <!-- Diploid N$_e$2 -->
     <g transform="translate(-8.02 160.02) rotate(-90) scale(0.18 -0.18)">
      <use xlink:href="#DejaVuSans-44" transform="translate(0 0.015625)"/>
      <use xlink:href="#DejaVuSans-69" transform="translate(77.001953 0.015625)"/>
      <use xlink:href="#DejaVuSans-70" transform="translate(104.785156 0.015625)"/>
      <use xlink:href="#DejaVuSans-6c" transform="translate(168.261719 0.015625)"/>
      <use xlink:href="#DejaVuSans-6f" transform="translate(196.044922 0.015625)"/>
      <use xlink:href="#DejaVuSans-69" transform="translate(257.226562 0.015625)"/>
      <use xlink:href="#DejaVuSans-64" transform="translate(285.009766 0.015625)"/>
      <use xlink:href="#DejaVuSans-20" transform="translate(348.486328 0.015625)"/>
      <use xlink:href="#DejaVuSans-4e" transform="translate(380.273438 0.015625)"/>
      <use xlink:href="#DejaVuSans-Oblique-65" transform="translate(456.035156 -16.390625) scale(0.7)"/>
      <use xlink:href="#DejaVuSans-32" transform="translate(501.835938 0.015625)"/>
     </g>
    </g>
    <g id="text_12">
     <!-- $\times\mathdefault{10^{3}}\mathdefault{}$ -->
     <g transform="translate(36 22.92) scale(0.1 -0.1)">
      <use xlink:href="#DejaVuSans-d7" transform="translate(0 0.765625)"/>
      <use xlink:href="#DejaVuSans-31" transform="translate(83.789062 0.765625)"/>
      <use xlink:href="#DejaVuSans-30" transform="translate(147.412109 0.765625)"/>
      <use xlink:href="#DejaVuSans-33" transform="translate(211.992188 39.046875) scale(0.7)"/>
     </g>
    </g>
   </g>
   <g id="patch_3">
    <path d="M 36 192.24 
L 36 25.92 
" style="fill: none; stroke: #000000; stroke-width: 0.8; stroke-linejoin: miter; stroke-linecap: square"/>
   </g>
   <g id="patch_4">
    <path d="M 214.56 192.24 
L 214.56 25.92 
" style="fill: none; stroke: #000000; stroke-width: 0.8; stroke-linejoin: miter; stroke-linecap: square"/>
   </g>
   <g id="patch_5">
    <path d="M 36 192.24 
L 214.56 192.24 
" style="fill: none; stroke: #000000; stroke-width: 0.8; stroke-linejoin: miter; stroke-linecap: square"/>
   </g>
   <g id="patch_6">
    <path d="M 36 25.92 
L 214.56 25.92 
" style="fill: none; stroke: #000000; stroke-width: 0.8; stroke-linejoin: miter; stroke-linecap: square"/>
   </g>
   <g id="text_13">
    <!-- Ne1Ne2-MSSMC-RGT-P2-S4 -->
    <g transform="translate(16.485 10.92) scale(0.16 -0.16)">
     <defs>
      <path id="DejaVuSans-65" d="M 3597 1894 
L 3597 1613 
L 953 1613 
Q 991 1019 1311 708 
Q 1631 397 2203 397 
Q 2534 397 2845 478 
Q 3156 559 3463 722 
L 3463 178 
Q 3153 47 2828 -22 
Q 2503 -91 2169 -91 
Q 1331 -91 842 396 
Q 353 884 353 1716 
Q 353 2575 817 3079 
Q 1281 3584 2069 3584 
Q 2775 3584 3186 3129 
Q 3597 2675 3597 1894 
z
M 3022 2063 
Q 3016 2534 2758 2815 
Q 2500 3097 2075 3097 
Q 1594 3097 1305 2825 
Q 1016 2553 972 2059 
L 3022 2063 
z
" transform="scale(0.015625)"/>
      <path id="DejaVuSans-2d" d="M 313 2009 
L 1997 2009 
L 1997 1497 
L 313 1497 
L 313 2009 
z
" transform="scale(0.015625)"/>
      <path id="DejaVuSans-4d" d="M 628 4666 
L 1569 4666 
L 2759 1491 
L 3956 4666 
L 4897 4666 
L 4897 0 
L 4281 0 
L 4281 4097 
L 3078 897 
L 2444 897 
L 1241 4097 
L 1241 0 
L 628 0 
L 628 4666 
z
" transform="scale(0.015625)"/>
      <path id="DejaVuSans-53" d="M 3425 4513 
L 3425 3897 
Q 3066 4069 2747 4153 
Q 2428 4238 2131 4238 
Q 1616 4238 1336 4038 
Q 1056 3838 1056 3469 
Q 1056 3159 1242 3001 
Q 1428 2844 1947 2747 
L 2328 2669 
Q 3034 2534 3370 2195 
Q 3706 1856 3706 1288 
Q 3706 609 3251 259 
Q 2797 -91 1919 -91 
Q 1588 -91 1214 -16 
Q 841 59 441 206 
L 441 856 
Q 825 641 1194 531 
Q 1563 422 1919 422 
Q 2459 422 2753 634 
Q 3047 847 3047 1241 
Q 3047 1584 2836 1778 
Q 2625 1972 2144 2069 
L 1759 2144 
Q 1053 2284 737 2584 
Q 422 2884 422 3419 
Q 422 4038 858 4394 
Q 1294 4750 2059 4750 
Q 2388 4750 2728 4690 
Q 3069 4631 3425 4513 
z
" transform="scale(0.015625)"/>
      <path id="DejaVuSans-43" d="M 4122 4306 
L 4122 3641 
Q 3803 3938 3442 4084 
Q 3081 4231 2675 4231 
Q 1875 4231 1450 3742 
Q 1025 3253 1025 2328 
Q 1025 1406 1450 917 
Q 1875 428 2675 428 
Q 3081 428 3442 575 
Q 3803 722 4122 1019 
L 4122 359 
Q 3791 134 3420 21 
Q 3050 -91 2638 -91 
Q 1578 -91 968 557 
Q 359 1206 359 2328 
Q 359 3453 968 4101 
Q 1578 4750 2638 4750 
Q 3056 4750 3426 4639 
Q 3797 4528 4122 4306 
z
" transform="scale(0.015625)"/>
      <path id="DejaVuSans-52" d="M 2841 2188 
Q 3044 2119 3236 1894 
Q 3428 1669 3622 1275 
L 4263 0 
L 3584 0 
L 2988 1197 
Q 2756 1666 2539 1819 
Q 2322 1972 1947 1972 
L 1259 1972 
L 1259 0 
L 628 0 
L 628 4666 
L 2053 4666 
Q 2853 4666 3247 4331 
Q 3641 3997 3641 3322 
Q 3641 2881 3436 2590 
Q 3231 2300 2841 2188 
z
M 1259 4147 
L 1259 2491 
L 2053 2491 
Q 2509 2491 2742 2702 
Q 2975 2913 2975 3322 
Q 2975 3731 2742 3939 
Q 2509 4147 2053 4147 
L 1259 4147 
z
" transform="scale(0.015625)"/>
      <path id="DejaVuSans-47" d="M 3809 666 
L 3809 1919 
L 2778 1919 
L 2778 2438 
L 4434 2438 
L 4434 434 
Q 4069 175 3628 42 
Q 3188 -91 2688 -91 
Q 1594 -91 976 548 
Q 359 1188 359 2328 
Q 359 3472 976 4111 
Q 1594 4750 2688 4750 
Q 3144 4750 3555 4637 
Q 3966 4525 4313 4306 
L 4313 3634 
Q 3963 3931 3569 4081 
Q 3175 4231 2741 4231 
Q 1884 4231 1454 3753 
Q 1025 3275 1025 2328 
Q 1025 1384 1454 906 
Q 1884 428 2741 428 
Q 3075 428 3337 486 
Q 3600 544 3809 666 
z
" transform="scale(0.015625)"/>
      <path id="DejaVuSans-54" d="M -19 4666 
L 3928 4666 
L 3928 4134 
L 2272 4134 
L 2272 0 
L 1638 0 
L 1638 4134 
L -19 4134 
L -19 4666 
z
" transform="scale(0.015625)"/>
      <path id="DejaVuSans-50" d="M 1259 4147 
L 1259 2394 
L 2053 2394 
Q 2494 2394 2734 2622 
Q 2975 2850 2975 3272 
Q 2975 3691 2734 3919 
Q 2494 4147 2053 4147 
L 1259 4147 
z
M 628 4666 
L 2053 4666 
Q 2838 4666 3239 4311 
Q 3641 3956 3641 3272 
Q 3641 2581 3239 2228 
Q 2838 1875 2053 1875 
L 1259 1875 
L 1259 0 
L 628 0 
L 628 4666 
z
" transform="scale(0.015625)"/>
     </defs>
     <use xlink:href="#DejaVuSans-4e"/>
     <use xlink:href="#DejaVuSans-65" x="74.804688"/>
     <use xlink:href="#DejaVuSans-31" x="136.328125"/>
     <use xlink:href="#DejaVuSans-4e" x="199.951172"/>
     <use xlink:href="#DejaVuSans-65" x="274.755859"/>
     <use xlink:href="#DejaVuSans-32" x="336.279297"/>
     <use xlink:href="#DejaVuSans-2d" x="399.902344"/>
     <use xlink:href="#DejaVuSans-4d" x="435.986328"/>
     <use xlink:href="#DejaVuSans-53" x="522.265625"/>
     <use xlink:href="#DejaVuSans-53" x="585.742188"/>
     <use xlink:href="#DejaVuSans-4d" x="649.21875"/>
     <use xlink:href="#DejaVuSans-43" x="735.498047"/>
     <use xlink:href="#DejaVuSans-2d" x="805.322266"/>
     <use xlink:href="#DejaVuSans-52" x="841.40625"/>
     <use xlink:href="#DejaVuSans-47" x="910.888672"/>
     <use xlink:href="#DejaVuSans-54" x="984.753906"/>
     <use xlink:href="#DejaVuSans-2d" x="1036.712891"/>
     <use xlink:href="#DejaVuSans-50" x="1072.796875"/>
     <use xlink:href="#DejaVuSans-32" x="1133.099609"/>
     <use xlink:href="#DejaVuSans-2d" x="1196.722656"/>
     <use xlink:href="#DejaVuSans-53" x="1232.806641"/>
     <use xlink:href="#DejaVuSans-34" x="1296.283203"/>
    </g>
   </g>
  </g>
  <g id="axes_2">
   <g id="patch_7">
    <path d="M 225.72 192.24 
L 234.036 192.24 
L 234.036 25.92 
L 225.72 25.92 
z
" style="fill: #ffffff"/>
   </g>
   <g id="QuadMesh_1">
    <path d="M 225.72 192.24 
L 234.036 192.24 
L 234.036 179.446154 
L 225.72 179.446154 
L 225.72 192.24 
" clip-path="url(#p0cd9300c24)" style="fill: #e7e419"/>
    <path d="M 225.72 179.446154 
L 234.036 179.446154 
L 234.036 166.652308 
L 225.72 166.652308 
L 225.72 179.446154 
" clip-path="url(#p0cd9300c24)" style="fill: #b2dd2d"/>
    <path d="M 225.72 166.652308 
L 234.036 166.652308 
L 234.036 153.858462 
L 225.72 153.858462 
L 225.72 166.652308 
" clip-path="url(#p0cd9300c24)" style="fill: #7fd34e"/>
    <path d="M 225.72 153.858462 
L 234.036 153.858462 
L 234.036 141.064615 
L 225.72 141.064615 
L 225.72 153.858462 
" clip-path="url(#p0cd9300c24)" style="fill: #54c568"/>
    <path d="M 225.72 141.064615 
L 234.036 141.064615 
L 234.036 128.270769 
L 225.72 128.270769 
L 225.72 141.064615 
" clip-path="url(#p0cd9300c24)" style="fill: #31b57b"/>
    <path d="M 225.72 128.270769 
L 234.036 128.270769 
L 234.036 115.476923 
L 225.72 115.476923 
L 225.72 128.270769 
" clip-path="url(#p0cd9300c24)" style="fill: #1fa287"/>
    <path d="M 225.72 115.476923 
L 234.036 115.476923 
L 234.036 102.683077 
L 225.72 102.683077 
L 225.72 115.476923 
" clip-path="url(#p0cd9300c24)" style="fill: #21908d"/>
    <path d="M 225.72 102.683077 
L 234.036 102.683077 
L 234.036 89.889231 
L 225.72 89.889231 
L 225.72 102.683077 
" clip-path="url(#p0cd9300c24)" style="fill: #277e8e"/>
    <path d="M 225.72 89.889231 
L 234.036 89.889231 
L 234.036 77.095385 
L 225.72 77.095385 
L 225.72 89.889231 
" clip-path="url(#p0cd9300c24)" style="fill: #2f6b8e"/>
    <path d="M 225.72 77.095385 
L 234.036 77.095385 
L 234.036 64.301538 
L 225.72 64.301538 
L 225.72 77.095385 
" clip-path="url(#p0cd9300c24)" style="fill: #39568c"/>
    <path d="M 225.72 64.301538 
L 234.036 64.301538 
L 234.036 51.507692 
L 225.72 51.507692 
L 225.72 64.301538 
" clip-path="url(#p0cd9300c24)" style="fill: #424186"/>
    <path d="M 225.72 51.507692 
L 234.036 51.507692 
L 234.036 38.713846 
L 225.72 38.713846 
L 225.72 51.507692 
" clip-path="url(#p0cd9300c24)" style="fill: #482979"/>
    <path d="M 225.72 38.713846 
L 234.036 38.713846 
L 234.036 25.92 
L 225.72 25.92 
L 225.72 38.713846 
" clip-path="url(#p0cd9300c24)" style="fill: #470e61"/>
   </g>
   <g id="matplotlib.axis_3"/>
   <g id="matplotlib.axis_4">
    <g id="ytick_5">
     <g id="line2d_9">
      <defs>
       <path id="m2716380906" d="M 0 0 
L 3.5 0 
" style="stroke: #000000; stroke-width: 0.8"/>
      </defs>
      <g>
       <use xlink:href="#m2716380906" x="234.036" y="192.24" style="stroke: #000000; stroke-width: 0.8"/>
      </g>
     </g>
     <g id="text_14">
      <!-- $\mathdefault{0.0}$ -->
      <g transform="translate(241.036 196.039219) scale(0.1 -0.1)">
       <defs>
        <path id="DejaVuSans-2e" d="M 684 794 
L 1344 794 
L 1344 0 
L 684 0 
L 684 794 
z
" transform="scale(0.015625)"/>
       </defs>
       <use xlink:href="#DejaVuSans-30" transform="translate(0 0.78125)"/>
       <use xlink:href="#DejaVuSans-2e" transform="translate(63.623047 0.78125)"/>
       <use xlink:href="#DejaVuSans-30" transform="translate(95.410156 0.78125)"/>
      </g>
     </g>
    </g>
    <g id="ytick_6">
     <g id="line2d_10">
      <g>
       <use xlink:href="#m2716380906" x="234.036" y="166.652308" style="stroke: #000000; stroke-width: 0.8"/>
      </g>
     </g>
     <g id="text_15">
      <!-- $\mathdefault{1.6}$ -->
      <g transform="translate(241.036 170.451526) scale(0.1 -0.1)">
       <use xlink:href="#DejaVuSans-31" transform="translate(0 0.78125)"/>
       <use xlink:href="#DejaVuSans-2e" transform="translate(63.623047 0.78125)"/>
       <use xlink:href="#DejaVuSans-36" transform="translate(95.410156 0.78125)"/>
      </g>
     </g>
    </g>
    <g id="ytick_7">
     <g id="line2d_11">
      <g>
       <use xlink:href="#m2716380906" x="234.036" y="141.064615" style="stroke: #000000; stroke-width: 0.8"/>
      </g>
     </g>
     <g id="text_16">
      <!-- $\mathdefault{3.2}$ -->
      <g transform="translate(241.036 144.863834) scale(0.1 -0.1)">
       <use xlink:href="#DejaVuSans-33" transform="translate(0 0.78125)"/>
       <use xlink:href="#DejaVuSans-2e" transform="translate(63.623047 0.78125)"/>
       <use xlink:href="#DejaVuSans-32" transform="translate(89.910156 0.78125)"/>
      </g>
     </g>
    </g>
    <g id="ytick_8">
     <g id="line2d_12">
      <g>
       <use xlink:href="#m2716380906" x="234.036" y="115.476923" style="stroke: #000000; stroke-width: 0.8"/>
      </g>
     </g>
     <g id="text_17">
      <!-- $\mathdefault{4.8}$ -->
      <g transform="translate(241.036 119.276142) scale(0.1 -0.1)">
       <use xlink:href="#DejaVuSans-34" transform="translate(0 0.78125)"/>
       <use xlink:href="#DejaVuSans-2e" transform="translate(63.623047 0.78125)"/>
       <use xlink:href="#DejaVuSans-38" transform="translate(92.785156 0.78125)"/>
      </g>
     </g>
    </g>
    <g id="ytick_9">
     <g id="line2d_13">
      <g>
       <use xlink:href="#m2716380906" x="234.036" y="89.889231" style="stroke: #000000; stroke-width: 0.8"/>
      </g>
     </g>
     <g id="text_18">
      <!-- $\mathdefault{6.4}$ -->
      <g transform="translate(241.036 93.68845) scale(0.1 -0.1)">
       <use xlink:href="#DejaVuSans-36" transform="translate(0 0.78125)"/>
       <use xlink:href="#DejaVuSans-2e" transform="translate(63.623047 0.78125)"/>
       <use xlink:href="#DejaVuSans-34" transform="translate(95.410156 0.78125)"/>
      </g>
     </g>
    </g>
    <g id="ytick_10">
     <g id="line2d_14">
      <g>
       <use xlink:href="#m2716380906" x="234.036" y="64.301538" style="stroke: #000000; stroke-width: 0.8"/>
      </g>
     </g>
     <g id="text_19">
      <!-- $\mathdefault{8.0}$ -->
      <g transform="translate(241.036 68.100757) scale(0.1 -0.1)">
       <use xlink:href="#DejaVuSans-38" transform="translate(0 0.78125)"/>
       <use xlink:href="#DejaVuSans-2e" transform="translate(63.623047 0.78125)"/>
       <use xlink:href="#DejaVuSans-30" transform="translate(95.410156 0.78125)"/>
      </g>
     </g>
    </g>
    <g id="ytick_11">
     <g id="line2d_15">
      <g>
       <use xlink:href="#m2716380906" x="234.036" y="38.713846" style="stroke: #000000; stroke-width: 0.8"/>
      </g>
     </g>
     <g id="text_20">
      <!-- $\mathdefault{9.6}$ -->
      <g transform="translate(241.036 42.513065) scale(0.1 -0.1)">
       <defs>
        <path id="DejaVuSans-39" d="M 703 97 
L 703 672 
Q 941 559 1184 500 
Q 1428 441 1663 441 
Q 2288 441 2617 861 
Q 2947 1281 2994 2138 
Q 2813 1869 2534 1725 
Q 2256 1581 1919 1581 
Q 1219 1581 811 2004 
Q 403 2428 403 3163 
Q 403 3881 828 4315 
Q 1253 4750 1959 4750 
Q 2769 4750 3195 4129 
Q 3622 3509 3622 2328 
Q 3622 1225 3098 567 
Q 2575 -91 1691 -91 
Q 1453 -91 1209 -44 
Q 966 3 703 97 
z
M 1959 2075 
Q 2384 2075 2632 2365 
Q 2881 2656 2881 3163 
Q 2881 3666 2632 3958 
Q 2384 4250 1959 4250 
Q 1534 4250 1286 3958 
Q 1038 3666 1038 3163 
Q 1038 2656 1286 2365 
Q 1534 2075 1959 2075 
z
" transform="scale(0.015625)"/>
       </defs>
       <use xlink:href="#DejaVuSans-39" transform="translate(0 0.78125)"/>
       <use xlink:href="#DejaVuSans-2e" transform="translate(63.623047 0.78125)"/>
       <use xlink:href="#DejaVuSans-36" transform="translate(95.410156 0.78125)"/>
      </g>
     </g>
    </g>
    <g id="text_21">
     <!-- $\Delta$ log likelihood -->
     <g transform="translate(270.156 154.98) rotate(-90) scale(0.12 -0.12)">
      <defs>
       <path id="DejaVuSans-394" d="M 2188 4044 
L 906 525 
L 3472 525 
L 2188 4044 
z
M 50 0 
L 1831 4666 
L 2547 4666 
L 4325 0 
L 50 0 
z
" transform="scale(0.015625)"/>
       <path id="DejaVuSans-67" d="M 2906 1791 
Q 2906 2416 2648 2759 
Q 2391 3103 1925 3103 
Q 1463 3103 1205 2759 
Q 947 2416 947 1791 
Q 947 1169 1205 825 
Q 1463 481 1925 481 
Q 2391 481 2648 825 
Q 2906 1169 2906 1791 
z
M 3481 434 
Q 3481 -459 3084 -895 
Q 2688 -1331 1869 -1331 
Q 1566 -1331 1297 -1286 
Q 1028 -1241 775 -1147 
L 775 -588 
Q 1028 -725 1275 -790 
Q 1522 -856 1778 -856 
Q 2344 -856 2625 -561 
Q 2906 -266 2906 331 
L 2906 616 
Q 2728 306 2450 153 
Q 2172 0 1784 0 
Q 1141 0 747 490 
Q 353 981 353 1791 
Q 353 2603 747 3093 
Q 1141 3584 1784 3584 
Q 2172 3584 2450 3431 
Q 2728 3278 2906 2969 
L 2906 3500 
L 3481 3500 
L 3481 434 
z
" transform="scale(0.015625)"/>
       <path id="DejaVuSans-6b" d="M 581 4863 
L 1159 4863 
L 1159 1991 
L 2875 3500 
L 3609 3500 
L 1753 1863 
L 3688 0 
L 2938 0 
L 1159 1709 
L 1159 0 
L 581 0 
L 581 4863 
z
" transform="scale(0.015625)"/>
       <path id="DejaVuSans-68" d="M 3513 2113 
L 3513 0 
L 2938 0 
L 2938 2094 
Q 2938 2591 2744 2837 
Q 2550 3084 2163 3084 
Q 1697 3084 1428 2787 
Q 1159 2491 1159 1978 
L 1159 0 
L 581 0 
L 581 4863 
L 1159 4863 
L 1159 2956 
Q 1366 3272 1645 3428 
Q 1925 3584 2291 3584 
Q 2894 3584 3203 3211 
Q 3513 2838 3513 2113 
z
" transform="scale(0.015625)"/>
      </defs>
      <use xlink:href="#DejaVuSans-394" transform="translate(0 0.015625)"/>
      <use xlink:href="#DejaVuSans-20" transform="translate(68.408203 0.015625)"/>
      <use xlink:href="#DejaVuSans-6c" transform="translate(100.195312 0.015625)"/>
      <use xlink:href="#DejaVuSans-6f" transform="translate(127.978516 0.015625)"/>
      <use xlink:href="#DejaVuSans-67" transform="translate(189.160156 0.015625)"/>
      <use xlink:href="#DejaVuSans-20" transform="translate(252.636719 0.015625)"/>
      <use xlink:href="#DejaVuSans-6c" transform="translate(284.423828 0.015625)"/>
      <use xlink:href="#DejaVuSans-69" transform="translate(312.207031 0.015625)"/>
      <use xlink:href="#DejaVuSans-6b" transform="translate(339.990234 0.015625)"/>
      <use xlink:href="#DejaVuSans-65" transform="translate(397.900391 0.015625)"/>
      <use xlink:href="#DejaVuSans-6c" transform="translate(459.423828 0.015625)"/>
      <use xlink:href="#DejaVuSans-69" transform="translate(487.207031 0.015625)"/>
      <use xlink:href="#DejaVuSans-68" transform="translate(514.990234 0.015625)"/>
      <use xlink:href="#DejaVuSans-6f" transform="translate(578.369141 0.015625)"/>
      <use xlink:href="#DejaVuSans-6f" transform="translate(639.550781 0.015625)"/>
      <use xlink:href="#DejaVuSans-64" transform="translate(700.732422 0.015625)"/>
     </g>
    </g>
    <g id="text_22">
     <!-- $\times\mathdefault{10^{2}}\mathdefault{}$ -->
     <g transform="translate(208.036 22.92) scale(0.1 -0.1)">
      <use xlink:href="#DejaVuSans-d7" transform="translate(0 0.765625)"/>
      <use xlink:href="#DejaVuSans-31" transform="translate(83.789062 0.765625)"/>
      <use xlink:href="#DejaVuSans-30" transform="translate(147.412109 0.765625)"/>
      <use xlink:href="#DejaVuSans-32" transform="translate(211.992188 39.046875) scale(0.7)"/>
     </g>
    </g>
   </g>
   <g id="LineCollection_1"/>
   <g id="patch_8">
    <path d="M 225.72 192.24 
L 229.878 192.24 
L 234.036 192.24 
L 234.036 25.92 
L 229.878 25.92 
L 225.72 25.92 
L 225.72 192.24 
z
" style="fill: none; stroke: #000000; stroke-width: 0.8; stroke-linejoin: miter; stroke-linecap: square"/>
   </g>
  </g>
 </g>
 <defs>
  <clipPath id="p21faa1e844">
   <rect x="36" y="25.92" width="178.56" height="166.32"/>
  </clipPath>
  <clipPath id="p0cd9300c24">
   <rect x="225.72" y="25.92" width="8.316" height="166.32"/>
  </clipPath>
 </defs>
</svg>
