<?xml version="1.0" encoding="utf-8" standalone="no"?>
<!DOCTYPE svg PUBLIC "-//W3C//DTD SVG 1.1//EN"
  "http://www.w3.org/Graphics/SVG/1.1/DTD/svg11.dtd">
<svg xmlns:xlink="http://www.w3.org/1999/xlink" width="288pt" height="216pt" viewBox="0 0 288 216" xmlns="http://www.w3.org/2000/svg" version="1.1">
 <metadata>
  <rdf:RDF xmlns:dc="http://purl.org/dc/elements/1.1/" xmlns:cc="http://creativecommons.org/ns#" xmlns:rdf="http://www.w3.org/1999/02/22-rdf-syntax-ns#">
   <cc:Work>
    <dc:type rdf:resource="http://purl.org/dc/dcmitype/StillImage"/>
    <dc:date>2024-12-11T16:42:41.828091</dc:date>
    <dc:format>image/svg+xml</dc:format>
    <dc:creator>
     <cc:Agent>
      <dc:title>Matplotlib v3.8.4, https://matplotlib.org/</dc:title>
     </cc:Agent>
    </dc:creator>
   </cc:Work>
  </rdf:RDF>
 </metadata>
 <defs>
  <style type="text/css">*{stroke-linejoin: round; stroke-linecap: butt}</style>
 </defs>
 <g id="figure_1">
  <g id="patch_1">
   <path d="M 0 216 
L 288 216 
L 288 0 
L 0 0 
z
" style="fill: #ffffff"/>
  </g>
  <g id="axes_1">
   <g id="patch_2">
    <path d="M 36 192.24 
L 214.56 192.24 
L 214.56 25.92 
L 36 25.92 
z
" style="fill: #ffffff"/>
   </g>
   <g id="QuadContourSet_1">
    <path d="M 77.028146 131.256 
L 75.727513 125.712 
L 75.034708 120.168 
L 74.805818 114.624 
L 74.934778 109.08 
L 75.342096 103.536 
L 75.967326 97.992 
L 76.763913 92.448 
L 77.664 87.092069 
L 77.725396 86.904 
L 79.742316 81.36 
L 81.922381 75.816 
L 83.616 71.747982 
L 85.261543 70.272 
L 89.568 66.569393 
L 95.52 67.313212 
L 99.171871 70.272 
L 101.472 72.216172 
L 104.139997 75.816 
L 107.424 80.507228 
L 107.895775 81.36 
L 110.73333 86.904 
L 113.279564 92.448 
L 113.376 92.693585 
L 115.186358 97.992 
L 116.673141 103.536 
L 117.641736 109.08 
L 117.948399 114.624 
L 117.404103 120.168 
L 115.756628 125.712 
L 113.376 129.979287 
L 112.55744 131.256 
L 107.424 136.197108 
L 106.631427 136.8 
L 101.472 139.387807 
L 95.52 141.25797 
L 89.568 141.54643 
L 83.616 139.56185 
L 80.522865 136.8 
L 77.664 132.928628 
z
" clip-path="url(#p33be66ea85)" style="fill: #eae51a"/>
    <path d="M 70.715544 131.256 
L 69.975066 125.712 
L 69.580638 120.168 
L 69.450326 114.624 
L 69.523745 109.08 
L 69.75564 103.536 
L 70.111597 97.992 
L 70.565111 92.448 
L 71.095544 86.904 
L 71.686665 81.36 
L 71.712 81.140166 
L 72.789774 75.816 
L 73.977963 70.272 
L 75.21753 64.728 
L 76.49671 59.184 
L 77.664 54.24104 
L 77.939718 53.64 
L 80.526133 48.096 
L 83.143292 42.552 
L 83.616 41.558439 
L 89.41358 37.008 
L 89.568 36.887351 
L 90.630395 37.008 
L 95.52 37.565824 
L 101.472 41.968131 
L 101.966521 42.552 
L 106.62561 48.096 
L 107.424 49.057323 
L 110.431805 53.64 
L 113.376 58.201936 
L 113.927493 59.184 
L 116.969357 64.728 
L 119.328 69.164161 
L 119.867388 70.272 
L 122.45479 75.816 
L 124.898656 81.36 
L 125.28 82.295068 
L 127.054996 86.904 
L 128.970903 92.448 
L 130.608984 97.992 
L 131.232 100.678465 
L 131.870426 103.536 
L 132.677357 109.08 
L 132.932837 114.624 
L 132.479387 120.168 
L 131.232 125.206612 
L 131.102128 125.712 
L 128.427543 131.256 
L 125.28 135.282349 
L 124.023656 136.8 
L 119.328 140.540155 
L 116.854932 142.344 
L 113.376 144.071551 
L 107.424 146.643311 
L 103.778907 147.888 
L 101.472 148.431142 
L 95.52 149.309017 
L 89.568 149.444423 
L 83.616 148.51284 
L 82.125217 147.888 
L 77.664 145.176083 
L 75.265649 142.344 
L 72.069317 136.8 
L 71.712 135.86007 
z
M 77.664 132.928628 
L 80.522865 136.8 
L 83.616 139.56185 
L 89.568 141.54643 
L 95.52 141.25797 
L 101.472 139.387807 
L 106.631427 136.8 
L 107.424 136.197108 
L 112.55744 131.256 
L 113.376 129.979287 
L 115.756628 125.712 
L 117.404103 120.168 
L 117.948399 114.624 
L 117.641736 109.08 
L 116.673141 103.536 
L 115.186358 97.992 
L 113.376 92.693585 
L 113.279564 92.448 
L 110.73333 86.904 
L 107.895775 81.36 
L 107.424 80.507228 
L 104.139997 75.816 
L 101.472 72.216172 
L 99.171871 70.272 
L 95.52 67.313212 
L 89.568 66.569393 
L 85.261543 70.272 
L 83.616 71.747982 
L 81.922381 75.816 
L 79.742316 81.36 
L 77.725396 86.904 
L 77.664 87.092069 
L 76.763913 92.448 
L 75.967326 97.992 
L 75.342096 103.536 
L 74.934778 109.08 
L 74.805818 114.624 
L 75.034708 120.168 
L 75.727513 125.712 
L 77.028146 131.256 
z
" clip-path="url(#p33be66ea85)" style="fill: #bddf26"/>
    <path d="M 65.641273 120.168 
L 65.564838 114.624 
L 65.607903 109.08 
L 65.743922 103.536 
L 65.76 103.109072 
L 66.088545 97.992 
L 66.54206 92.448 
L 67.072492 86.904 
L 67.663613 81.36 
L 68.302548 75.816 
L 68.97901 70.272 
L 69.684722 64.728 
L 70.412987 59.184 
L 71.158358 53.64 
L 71.712 49.590821 
L 72.070999 48.096 
L 73.418286 42.552 
L 74.776133 37.008 
L 76.1402 31.464 
L 77.506904 25.92 
L 77.664 25.92 
L 83.616 25.92 
L 89.568 25.92 
L 95.52 25.92 
L 101.472 25.92 
L 107.424 25.92 
L 111.249035 25.92 
L 113.376 29.077064 
L 114.775265 31.464 
L 118.01899 37.008 
L 119.328 39.255539 
L 121.086141 42.552 
L 124.019993 48.096 
L 125.28 50.505295 
L 126.828115 53.64 
L 129.520373 59.184 
L 131.232 62.791438 
L 132.117202 64.728 
L 134.572886 70.272 
L 136.926789 75.816 
L 137.184 76.457374 
L 139.104195 81.36 
L 141.113099 86.904 
L 142.915757 92.448 
L 143.136 93.24023 
L 144.438744 97.992 
L 145.631723 103.536 
L 146.408914 109.08 
L 146.654977 114.624 
L 146.21824 120.168 
L 144.896323 125.712 
L 143.136 129.644488 
L 142.404515 131.256 
L 138.326749 136.8 
L 137.184 137.824429 
L 132.021875 142.344 
L 131.232 142.814814 
L 125.28 146.232674 
L 122.22741 147.888 
L 119.328 148.972067 
L 113.376 151.009951 
L 107.424 152.783167 
L 104.668191 153.432 
L 101.472 153.950321 
L 95.52 154.554986 
L 89.568 154.648251 
L 83.616 154.006593 
L 81.625677 153.432 
L 77.664 151.77152 
L 72.894191 147.888 
L 71.712 146.492014 
L 69.712117 142.344 
L 67.892377 136.8 
L 66.692493 131.256 
L 65.952015 125.712 
L 65.76 123.013083 
z
M 71.712 135.86007 
L 72.069317 136.8 
L 75.265649 142.344 
L 77.664 145.176083 
L 82.125217 147.888 
L 83.616 148.51284 
L 89.568 149.444423 
L 95.52 149.309017 
L 101.472 148.431142 
L 103.778907 147.888 
L 107.424 146.643311 
L 113.376 144.071551 
L 116.854932 142.344 
L 119.328 140.540155 
L 124.023656 136.8 
L 125.28 135.282349 
L 128.427543 131.256 
L 131.102128 125.712 
L 131.232 125.206612 
L 132.479387 120.168 
L 132.932837 114.624 
L 132.677357 109.08 
L 131.870426 103.536 
L 131.232 100.678465 
L 130.608984 97.992 
L 128.970903 92.448 
L 127.054996 86.904 
L 125.28 82.295068 
L 124.898656 81.36 
L 122.45479 75.816 
L 119.867388 70.272 
L 119.328 69.164161 
L 116.969357 64.728 
L 113.927493 59.184 
L 113.376 58.201936 
L 110.431805 53.64 
L 107.424 49.057323 
L 106.62561 48.096 
L 101.966521 42.552 
L 101.472 41.968131 
L 95.52 37.565824 
L 90.630395 37.008 
L 89.568 36.887351 
L 89.41358 37.008 
L 83.616 41.558439 
L 83.143292 42.552 
L 80.526133 48.096 
L 77.939718 53.64 
L 77.664 54.24104 
L 76.49671 59.184 
L 75.21753 64.728 
L 73.977963 70.272 
L 72.789774 75.816 
L 71.712 81.140166 
L 71.686665 81.36 
L 71.095544 86.904 
L 70.565111 92.448 
L 70.111597 97.992 
L 69.75564 103.536 
L 69.523745 109.08 
L 69.450326 114.624 
L 69.580638 120.168 
L 69.975066 125.712 
L 70.715544 131.256 
z
" clip-path="url(#p33be66ea85)" style="fill: #90d743"/>
    <path d="M 65.718393 142.344 
L 64.651017 136.8 
L 63.94722 131.256 
L 63.512889 125.712 
L 63.281535 120.168 
L 63.2051 114.624 
L 63.248165 109.08 
L 63.384184 103.536 
L 63.592972 97.992 
L 63.858982 92.448 
L 64.17011 86.904 
L 64.516834 81.36 
L 64.891604 75.816 
L 65.288386 70.272 
L 65.702324 64.728 
L 65.76 63.979455 
L 66.389935 59.184 
L 67.135306 53.64 
L 67.893335 48.096 
L 68.660374 42.552 
L 69.433425 37.008 
L 70.210018 31.464 
L 70.988112 25.92 
L 71.712 25.92 
L 77.506904 25.92 
L 76.1402 31.464 
L 74.776133 37.008 
L 73.418286 42.552 
L 72.070999 48.096 
L 71.712 49.590821 
L 71.158358 53.64 
L 70.412987 59.184 
L 69.684722 64.728 
L 68.97901 70.272 
L 68.302548 75.816 
L 67.663613 81.36 
L 67.072492 86.904 
L 66.54206 92.448 
L 66.088545 97.992 
L 65.76 103.109072 
L 65.743922 103.536 
L 65.607903 109.08 
L 65.564838 114.624 
L 65.641273 120.168 
L 65.76 123.013083 
L 65.952015 125.712 
L 66.692493 131.256 
L 67.892377 136.8 
L 69.712117 142.344 
L 71.712 146.492014 
L 72.894191 147.888 
L 77.664 151.77152 
L 81.625677 153.432 
L 83.616 154.006593 
L 89.568 154.648251 
L 95.52 154.554986 
L 101.472 153.950321 
L 104.668191 153.432 
L 107.424 152.783167 
L 113.376 151.009951 
L 119.328 148.972067 
L 122.22741 147.888 
L 125.28 146.232674 
L 131.232 142.814814 
L 132.021875 142.344 
L 137.184 137.824429 
L 138.326749 136.8 
L 142.404515 131.256 
L 143.136 129.644488 
L 144.896323 125.712 
L 146.21824 120.168 
L 146.654977 114.624 
L 146.408914 109.08 
L 145.631723 103.536 
L 144.438744 97.992 
L 143.136 93.24023 
L 142.915757 92.448 
L 141.113099 86.904 
L 139.104195 81.36 
L 137.184 76.457374 
L 136.926789 75.816 
L 134.572886 70.272 
L 132.117202 64.728 
L 131.232 62.791438 
L 129.520373 59.184 
L 126.828115 53.64 
L 125.28 50.505295 
L 124.019993 48.096 
L 121.086141 42.552 
L 119.328 39.255539 
L 118.01899 37.008 
L 114.775265 31.464 
L 113.376 29.077064 
L 111.249035 25.92 
L 113.376 25.92 
L 119.328 25.92 
L 125.28 25.92 
L 127.443037 25.92 
L 130.253489 31.464 
L 131.232 33.397977 
L 132.991646 37.008 
L 135.681653 42.552 
L 137.184 45.672546 
L 138.323494 48.096 
L 140.899629 53.64 
L 143.136 58.534537 
L 143.428644 59.184 
L 145.869404 64.728 
L 148.234579 70.272 
L 149.088 72.358926 
L 150.492084 75.816 
L 152.618856 81.36 
L 154.586472 86.904 
L 155.04 88.328074 
L 156.350027 92.448 
L 157.857241 97.992 
L 159.04023 103.536 
L 159.810912 109.08 
L 160.054915 114.624 
L 159.621835 120.168 
L 158.310987 125.712 
L 155.850076 131.256 
L 155.04 132.382227 
L 151.857388 136.8 
L 149.088 139.33474 
L 145.777591 142.344 
L 143.136 143.978802 
L 137.184 147.611385 
L 136.719929 147.888 
L 131.232 150.143436 
L 125.28 152.500035 
L 122.787397 153.432 
L 119.328 154.3229 
L 113.376 155.72656 
L 107.424 156.947921 
L 101.472 157.913146 
L 95.52 158.517811 
L 89.568 158.611077 
L 83.616 157.969418 
L 77.664 156.251116 
L 72.637034 153.432 
L 71.712 152.678849 
L 68.361995 147.888 
L 65.76 142.491127 
z
" clip-path="url(#p33be66ea85)" style="fill: #67cc5c"/>
    <path d="M 64.926473 147.888 
L 63.358655 142.344 
L 62.291279 136.8 
L 61.587482 131.256 
L 61.153151 125.712 
L 60.921797 120.168 
L 60.845362 114.624 
L 60.888427 109.08 
L 61.024446 103.536 
L 61.233234 97.992 
L 61.499244 92.448 
L 61.810372 86.904 
L 62.157096 81.36 
L 62.531866 75.816 
L 62.928648 70.272 
L 63.342586 64.728 
L 63.769753 59.184 
L 64.206954 53.64 
L 64.651578 48.096 
L 65.101489 42.552 
L 65.554925 37.008 
L 65.76 34.512062 
L 66.186967 31.464 
L 66.96506 25.92 
L 70.988112 25.92 
L 70.210018 31.464 
L 69.433425 37.008 
L 68.660374 42.552 
L 67.893335 48.096 
L 67.135306 53.64 
L 66.389935 59.184 
L 65.76 63.979455 
L 65.702324 64.728 
L 65.288386 70.272 
L 64.891604 75.816 
L 64.516834 81.36 
L 64.17011 86.904 
L 63.858982 92.448 
L 63.592972 97.992 
L 63.384184 103.536 
L 63.248165 109.08 
L 63.2051 114.624 
L 63.281535 120.168 
L 63.512889 125.712 
L 63.94722 131.256 
L 64.651017 136.8 
L 65.718393 142.344 
L 65.76 142.491127 
L 68.361995 147.888 
L 71.712 152.678849 
L 72.637034 153.432 
L 77.664 156.251116 
L 83.616 157.969418 
L 89.568 158.611077 
L 95.52 158.517811 
L 101.472 157.913146 
L 107.424 156.947921 
L 113.376 155.72656 
L 119.328 154.3229 
L 122.787397 153.432 
L 125.28 152.500035 
L 131.232 150.143436 
L 136.719929 147.888 
L 137.184 147.611385 
L 143.136 143.978802 
L 145.777591 142.344 
L 149.088 139.33474 
L 151.857388 136.8 
L 155.04 132.382227 
L 155.850076 131.256 
L 158.310987 125.712 
L 159.621835 120.168 
L 160.054915 114.624 
L 159.810912 109.08 
L 159.04023 103.536 
L 157.857241 97.992 
L 156.350027 92.448 
L 155.04 88.328074 
L 154.586472 86.904 
L 152.618856 81.36 
L 150.492084 75.816 
L 149.088 72.358926 
L 148.234579 70.272 
L 145.869404 64.728 
L 143.428644 59.184 
L 143.136 58.534537 
L 140.899629 53.64 
L 138.323494 48.096 
L 137.184 45.672546 
L 135.681653 42.552 
L 132.991646 37.008 
L 131.232 33.397977 
L 130.253489 31.464 
L 127.443037 25.92 
L 131.232 25.92 
L 137.184 25.92 
L 141.478203 25.92 
L 143.136 29.395678 
L 144.108888 31.464 
L 146.711618 37.008 
L 149.088 42.093048 
L 149.301018 42.552 
L 151.8542 48.096 
L 154.377389 53.64 
L 155.04 55.120625 
L 156.855599 59.184 
L 159.27592 64.728 
L 160.992 68.784481 
L 161.622819 70.272 
L 163.876441 75.816 
L 166.005044 81.36 
L 166.944 84.00335 
L 167.980022 86.904 
L 169.756874 92.448 
L 171.276063 97.992 
L 172.468452 103.536 
L 172.896 106.587378 
L 173.248011 109.08 
L 173.495892 114.624 
L 173.055929 120.168 
L 172.896 120.83381 
L 171.733415 125.712 
L 169.25295 131.256 
L 166.944 134.440767 
L 165.242921 136.8 
L 160.992 140.687398 
L 159.184876 142.344 
L 155.04 144.930803 
L 150.294206 147.888 
L 149.088 148.406232 
L 143.136 150.946001 
L 137.22832 153.432 
L 137.184 153.444846 
L 131.232 155.129719 
L 125.28 156.752904 
L 119.328 158.285726 
L 116.400999 158.976 
L 113.376 159.460932 
L 107.424 160.291168 
L 101.472 160.947293 
L 95.52 161.358321 
L 89.568 161.42172 
L 83.616 160.985544 
L 77.664 159.817506 
L 75.456539 158.976 
L 71.712 156.876068 
L 68.21559 153.432 
L 65.76 149.920255 
z
" clip-path="url(#p33be66ea85)" style="fill: #44bf70"/>
    <path d="M 59.471405 131.256 
L 59.219458 125.712 
L 59.085254 120.168 
L 59.040916 114.624 
L 59.065896 109.08 
L 59.144798 103.536 
L 59.265912 97.992 
L 59.42022 92.448 
L 59.600699 86.904 
L 59.801827 81.36 
L 59.808 81.202573 
L 60.172128 75.816 
L 60.56891 70.272 
L 60.982848 64.728 
L 61.410015 59.184 
L 61.847215 53.64 
L 62.29184 48.096 
L 62.741751 42.552 
L 63.195187 37.008 
L 63.650701 31.464 
L 64.107095 25.92 
L 65.76 25.92 
L 66.96506 25.92 
L 66.186967 31.464 
L 65.76 34.512062 
L 65.554925 37.008 
L 65.101489 42.552 
L 64.651578 48.096 
L 64.206954 53.64 
L 63.769753 59.184 
L 63.342586 64.728 
L 62.928648 70.272 
L 62.531866 75.816 
L 62.157096 81.36 
L 61.810372 86.904 
L 61.499244 92.448 
L 61.233234 97.992 
L 61.024446 103.536 
L 60.888427 109.08 
L 60.845362 114.624 
L 60.921797 120.168 
L 61.153151 125.712 
L 61.587482 131.256 
L 62.291279 136.8 
L 63.358655 142.344 
L 64.926473 147.888 
L 65.76 149.920255 
L 68.21559 153.432 
L 71.712 156.876068 
L 75.456539 158.976 
L 77.664 159.817506 
L 83.616 160.985544 
L 89.568 161.42172 
L 95.52 161.358321 
L 101.472 160.947293 
L 107.424 160.291168 
L 113.376 159.460932 
L 116.400999 158.976 
L 119.328 158.285726 
L 125.28 156.752904 
L 131.232 155.129719 
L 137.184 153.444846 
L 137.22832 153.432 
L 143.136 150.946001 
L 149.088 148.406232 
L 150.294206 147.888 
L 155.04 144.930803 
L 159.184876 142.344 
L 160.992 140.687398 
L 165.242921 136.8 
L 166.944 134.440767 
L 169.25295 131.256 
L 171.733415 125.712 
L 172.896 120.83381 
L 173.055929 120.168 
L 173.495892 114.624 
L 173.248011 109.08 
L 172.896 106.587378 
L 172.468452 103.536 
L 171.276063 97.992 
L 169.756874 92.448 
L 167.980022 86.904 
L 166.944 84.00335 
L 166.005044 81.36 
L 163.876441 75.816 
L 161.622819 70.272 
L 160.992 68.784481 
L 159.27592 64.728 
L 156.855599 59.184 
L 155.04 55.120625 
L 154.377389 53.64 
L 151.8542 48.096 
L 149.301018 42.552 
L 149.088 42.093048 
L 146.711618 37.008 
L 144.108888 31.464 
L 143.136 29.395678 
L 141.478203 25.92 
L 143.136 25.92 
L 149.088 25.92 
L 154.944072 25.92 
L 155.04 26.125339 
L 157.530147 31.464 
L 160.111082 37.008 
L 160.992 38.908932 
L 162.684351 42.552 
L 165.23973 48.096 
L 166.944 51.837436 
L 167.769608 53.64 
L 170.266463 59.184 
L 172.706015 64.728 
L 172.896 65.173548 
L 175.08716 70.272 
L 177.371049 75.816 
L 178.848 79.611778 
L 179.534867 81.36 
L 181.550067 86.904 
L 183.358375 92.448 
L 184.8 97.617424 
L 184.905629 97.992 
L 186.132714 103.536 
L 186.932123 109.08 
L 187.185222 114.624 
L 186.735998 120.168 
L 185.37629 125.712 
L 184.8 126.963625 
L 182.845531 131.256 
L 178.848 136.673933 
L 178.755881 136.8 
L 172.896 142.087751 
L 172.614247 142.344 
L 166.944 145.854886 
L 163.678393 147.888 
L 160.992 149.041185 
L 155.04 151.602401 
L 150.781535 153.432 
L 149.088 153.933163 
L 143.136 155.682512 
L 137.184 157.407671 
L 131.643706 158.976 
L 131.232 159.055223 
L 125.28 160.158603 
L 119.328 161.200558 
L 113.376 162.154713 
L 107.424 162.984949 
L 101.472 163.641073 
L 95.52 164.052102 
L 89.568 164.1155 
L 83.616 163.679325 
L 77.664 162.511287 
L 71.712 160.242325 
L 69.820795 158.976 
L 65.76 154.975996 
L 64.840599 153.432 
L 62.566735 147.888 
L 60.998917 142.344 
L 59.93154 136.8 
L 59.808 135.826838 
z
" clip-path="url(#p33be66ea85)" style="fill: #2ab07f"/>
    <path d="M 59.12999 142.344 
L 58.510826 136.8 
L 58.102567 131.256 
L 57.85062 125.712 
L 57.716416 120.168 
L 57.672078 114.624 
L 57.697059 109.08 
L 57.775961 103.536 
L 57.897074 97.992 
L 58.051382 92.448 
L 58.231861 86.904 
L 58.432989 81.36 
L 58.650386 75.816 
L 58.880551 70.272 
L 59.120669 64.728 
L 59.36846 59.184 
L 59.622071 53.64 
L 59.808 49.643423 
L 59.932102 48.096 
L 60.382012 42.552 
L 60.835449 37.008 
L 61.290963 31.464 
L 61.747357 25.92 
L 64.107095 25.92 
L 63.650701 31.464 
L 63.195187 37.008 
L 62.741751 42.552 
L 62.29184 48.096 
L 61.847215 53.64 
L 61.410015 59.184 
L 60.982848 64.728 
L 60.56891 70.272 
L 60.172128 75.816 
L 59.808 81.202573 
L 59.801827 81.36 
L 59.600699 86.904 
L 59.42022 92.448 
L 59.265912 97.992 
L 59.144798 103.536 
L 59.065896 109.08 
L 59.040916 114.624 
L 59.085254 120.168 
L 59.219458 125.712 
L 59.471405 131.256 
L 59.808 135.826838 
L 59.93154 136.8 
L 60.998917 142.344 
L 62.566735 147.888 
L 64.840599 153.432 
L 65.76 154.975996 
L 69.820795 158.976 
L 71.712 160.242325 
L 77.664 162.511287 
L 83.616 163.679325 
L 89.568 164.1155 
L 95.52 164.052102 
L 101.472 163.641073 
L 107.424 162.984949 
L 113.376 162.154713 
L 119.328 161.200558 
L 125.28 160.158603 
L 131.232 159.055223 
L 131.643706 158.976 
L 137.184 157.407671 
L 143.136 155.682512 
L 149.088 153.933163 
L 150.781535 153.432 
L 155.04 151.602401 
L 160.992 149.041185 
L 163.678393 147.888 
L 166.944 145.854886 
L 172.614247 142.344 
L 172.896 142.087751 
L 178.755881 136.8 
L 178.848 136.673933 
L 182.845531 131.256 
L 184.8 126.963625 
L 185.37629 125.712 
L 186.735998 120.168 
L 187.185222 114.624 
L 186.932123 109.08 
L 186.132714 103.536 
L 184.905629 97.992 
L 184.8 97.617424 
L 183.358375 92.448 
L 181.550067 86.904 
L 179.534867 81.36 
L 178.848 79.611778 
L 177.371049 75.816 
L 175.08716 70.272 
L 172.896 65.173548 
L 172.706015 64.728 
L 170.266463 59.184 
L 167.769608 53.64 
L 166.944 51.837436 
L 165.23973 48.096 
L 162.684351 42.552 
L 160.992 38.908932 
L 160.111082 37.008 
L 157.530147 31.464 
L 155.04 26.125339 
L 154.944072 25.92 
L 155.04 25.92 
L 160.992 25.92 
L 166.944 25.92 
L 168.339899 25.92 
L 170.94637 31.464 
L 172.896 35.618906 
L 173.552951 37.008 
L 176.162949 42.552 
L 178.752647 48.096 
L 178.848 48.302556 
L 181.335928 53.64 
L 183.876986 59.184 
L 184.8 61.245105 
L 186.37719 64.728 
L 188.809982 70.272 
L 190.752 74.888953 
L 191.146751 75.816 
L 193.376514 81.36 
L 195.439413 86.904 
L 196.704 90.691387 
L 197.298281 92.448 
L 198.901892 97.992 
L 200.160543 103.536 
L 200.980517 109.08 
L 201.240126 114.624 
L 200.779347 120.168 
L 199.38466 125.712 
L 196.766354 131.256 
L 196.704 131.337478 
L 192.578172 136.8 
L 190.752 138.39424 
L 186.282752 142.344 
L 184.8 143.236127 
L 178.848 146.857359 
L 177.170342 147.888 
L 172.896 149.698526 
L 166.944 152.239552 
L 164.166141 153.432 
L 160.992 154.370508 
L 155.04 156.134629 
L 149.088 157.895989 
L 145.413359 158.976 
L 143.136 159.430991 
L 137.184 160.60369 
L 131.232 161.749003 
L 125.28 162.852384 
L 119.328 163.894339 
L 115.425139 164.52 
L 113.376 164.737482 
L 107.424 165.287144 
L 101.472 165.721536 
L 95.52 165.99366 
L 89.568 166.035633 
L 83.616 165.74686 
L 77.664 164.973553 
L 75.866912 164.52 
L 71.712 162.936106 
L 65.797743 158.976 
L 65.76 158.938822 
L 62.480861 153.432 
L 60.206997 147.888 
L 59.808 146.477096 
z
" clip-path="url(#p33be66ea85)" style="fill: #1fa188"/>
    <path d="M 58.670613 147.888 
L 57.761152 142.344 
L 57.141988 136.8 
L 56.733729 131.256 
L 56.481782 125.712 
L 56.347578 120.168 
L 56.30324 114.624 
L 56.328221 109.08 
L 56.407123 103.536 
L 56.528237 97.992 
L 56.682544 92.448 
L 56.863023 86.904 
L 57.064151 81.36 
L 57.281548 75.816 
L 57.511713 70.272 
L 57.751831 64.728 
L 57.999622 59.184 
L 58.253233 53.64 
L 58.511151 48.096 
L 58.772136 42.552 
L 59.035165 37.008 
L 59.2994 31.464 
L 59.564145 25.92 
L 59.808 25.92 
L 61.747357 25.92 
L 61.290963 31.464 
L 60.835449 37.008 
L 60.382012 42.552 
L 59.932102 48.096 
L 59.808 49.643423 
L 59.622071 53.64 
L 59.36846 59.184 
L 59.120669 64.728 
L 58.880551 70.272 
L 58.650386 75.816 
L 58.432989 81.36 
L 58.231861 86.904 
L 58.051382 92.448 
L 57.897074 97.992 
L 57.775961 103.536 
L 57.697059 109.08 
L 57.672078 114.624 
L 57.716416 120.168 
L 57.85062 125.712 
L 58.102567 131.256 
L 58.510826 136.8 
L 59.12999 142.344 
L 59.808 146.477096 
L 60.206997 147.888 
L 62.480861 153.432 
L 65.76 158.938822 
L 65.797743 158.976 
L 71.712 162.936106 
L 75.866912 164.52 
L 77.664 164.973553 
L 83.616 165.74686 
L 89.568 166.035633 
L 95.52 165.99366 
L 101.472 165.721536 
L 107.424 165.287144 
L 113.376 164.737482 
L 115.425139 164.52 
L 119.328 163.894339 
L 125.28 162.852384 
L 131.232 161.749003 
L 137.184 160.60369 
L 143.136 159.430991 
L 145.413359 158.976 
L 149.088 157.895989 
L 155.04 156.134629 
L 160.992 154.370508 
L 164.166141 153.432 
L 166.944 152.239552 
L 172.896 149.698526 
L 177.170342 147.888 
L 178.848 146.857359 
L 184.8 143.236127 
L 186.282752 142.344 
L 190.752 138.39424 
L 192.578172 136.8 
L 196.704 131.337478 
L 196.766354 131.256 
L 199.38466 125.712 
L 200.779347 120.168 
L 201.240126 114.624 
L 200.980517 109.08 
L 200.160543 103.536 
L 198.901892 97.992 
L 197.298281 92.448 
L 196.704 90.691387 
L 195.439413 86.904 
L 193.376514 81.36 
L 191.146751 75.816 
L 190.752 74.888953 
L 188.809982 70.272 
L 186.37719 64.728 
L 184.8 61.245105 
L 183.876986 59.184 
L 181.335928 53.64 
L 178.848 48.302556 
L 178.752647 48.096 
L 176.162949 42.552 
L 173.552951 37.008 
L 172.896 35.618906 
L 170.94637 31.464 
L 168.339899 25.92 
L 172.896 25.92 
L 178.848 25.92 
L 181.916316 25.92 
L 184.56893 31.464 
L 184.8 31.947873 
L 187.243482 37.008 
L 189.908413 42.552 
L 190.752 44.320714 
L 192.57483 48.096 
L 195.220205 53.64 
L 196.704 56.802443 
L 197.836188 59.184 
L 200.411308 64.728 
L 202.656 69.715056 
L 202.910172 70.272 
L 205.335415 75.816 
L 207.626119 81.36 
L 208.608 83.928585 
L 209.761841 86.904 
L 211.691034 92.448 
L 213.340474 97.992 
L 214.56 103.214419 
L 214.56 103.536 
L 214.56 109.08 
L 214.56 114.624 
L 214.56 120.168 
L 214.56 122.918012 
L 213.837038 125.712 
L 211.143906 131.256 
L 208.608 134.4776 
L 206.805957 136.8 
L 202.656 140.326513 
L 200.31444 142.344 
L 196.704 144.461813 
L 190.939292 147.888 
L 190.752 147.964751 
L 184.8 150.433929 
L 178.848 152.930752 
L 177.66464 153.432 
L 172.896 154.823273 
L 166.944 156.573488 
L 160.992 158.333333 
L 158.823695 158.976 
L 155.04 159.738323 
L 149.088 160.935629 
L 143.136 162.124771 
L 137.184 163.29747 
L 131.232 164.442784 
L 130.815472 164.52 
L 125.28 165.199379 
L 119.328 165.889212 
L 113.376 166.520916 
L 107.424 167.070579 
L 101.472 167.50497 
L 95.52 167.777094 
L 89.568 167.819068 
L 83.616 167.530295 
L 77.664 166.756988 
L 71.712 165.254808 
L 70.054429 164.52 
L 65.76 161.644508 
L 63.4224 158.976 
L 60.121123 153.432 
L 59.808 152.668563 
z
" clip-path="url(#p33be66ea85)" style="fill: #21908d"/>
    <path d="M 58.620798 153.432 
L 57.301775 147.888 
L 56.392314 142.344 
L 55.77315 136.8 
L 55.364891 131.256 
L 55.112944 125.712 
L 54.978741 120.168 
L 54.934402 114.624 
L 54.959383 109.08 
L 55.038285 103.536 
L 55.159399 97.992 
L 55.313706 92.448 
L 55.494185 86.904 
L 55.695313 81.36 
L 55.91271 75.816 
L 56.142875 70.272 
L 56.382993 64.728 
L 56.630784 59.184 
L 56.884395 53.64 
L 57.142314 48.096 
L 57.403298 42.552 
L 57.666327 37.008 
L 57.930562 31.464 
L 58.195307 25.92 
L 59.564145 25.92 
L 59.2994 31.464 
L 59.035165 37.008 
L 58.772136 42.552 
L 58.511151 48.096 
L 58.253233 53.64 
L 57.999622 59.184 
L 57.751831 64.728 
L 57.511713 70.272 
L 57.281548 75.816 
L 57.064151 81.36 
L 56.863023 86.904 
L 56.682544 92.448 
L 56.528237 97.992 
L 56.407123 103.536 
L 56.328221 109.08 
L 56.30324 114.624 
L 56.347578 120.168 
L 56.481782 125.712 
L 56.733729 131.256 
L 57.141988 136.8 
L 57.761152 142.344 
L 58.670613 147.888 
L 59.808 152.668563 
L 60.121123 153.432 
L 63.4224 158.976 
L 65.76 161.644508 
L 70.054429 164.52 
L 71.712 165.254808 
L 77.664 166.756988 
L 83.616 167.530295 
L 89.568 167.819068 
L 95.52 167.777094 
L 101.472 167.50497 
L 107.424 167.070579 
L 113.376 166.520916 
L 119.328 165.889212 
L 125.28 165.199379 
L 130.815472 164.52 
L 131.232 164.442784 
L 137.184 163.29747 
L 143.136 162.124771 
L 149.088 160.935629 
L 155.04 159.738323 
L 158.823695 158.976 
L 160.992 158.333333 
L 166.944 156.573488 
L 172.896 154.823273 
L 177.66464 153.432 
L 178.848 152.930752 
L 184.8 150.433929 
L 190.752 147.964751 
L 190.939292 147.888 
L 196.704 144.461813 
L 200.31444 142.344 
L 202.656 140.326513 
L 206.805957 136.8 
L 208.608 134.4776 
L 211.143906 131.256 
L 213.837038 125.712 
L 214.56 122.918012 
L 214.56 125.712 
L 214.56 131.256 
L 214.56 136.8 
L 214.56 142.344 
L 214.56 142.477098 
L 208.608 145.87142 
L 205.122286 147.888 
L 202.656 148.871781 
L 196.704 151.279034 
L 191.450219 153.432 
L 190.752 153.629078 
L 184.8 155.329806 
L 178.848 157.049575 
L 172.896 158.786098 
L 172.250196 158.976 
L 166.944 160.036643 
L 160.992 161.23292 
L 155.04 162.432104 
L 149.088 163.62941 
L 144.63034 164.52 
L 143.136 164.717658 
L 137.184 165.494051 
L 131.232 166.252313 
L 125.28 166.982813 
L 119.328 167.672646 
L 113.376 168.304351 
L 107.424 168.854013 
L 101.472 169.288405 
L 95.52 169.560529 
L 89.568 169.602502 
L 83.616 169.313729 
L 77.664 168.540422 
L 71.712 167.038242 
L 66.031378 164.52 
L 65.76 164.338289 
L 61.062662 158.976 
L 59.808 156.868983 
z
M 184.56893 31.464 
L 181.916316 25.92 
L 184.8 25.92 
L 190.752 25.92 
L 195.814331 25.92 
L 196.704 27.736427 
L 198.553878 31.464 
L 201.299885 37.008 
L 202.656 39.758446 
L 204.052543 42.552 
L 206.802524 48.096 
L 208.608 51.779134 
L 209.533386 53.64 
L 212.244314 59.184 
L 214.56 64.030946 
L 214.56 64.728 
L 214.56 70.272 
L 214.56 75.816 
L 214.56 81.36 
L 214.56 86.904 
L 214.56 92.448 
L 214.56 97.992 
L 214.56 103.214419 
L 213.340474 97.992 
L 211.691034 92.448 
L 209.761841 86.904 
L 208.608 83.928585 
L 207.626119 81.36 
L 205.335415 75.816 
L 202.910172 70.272 
L 202.656 69.715056 
L 200.411308 64.728 
L 197.836188 59.184 
L 196.704 56.802443 
L 195.220205 53.64 
L 192.57483 48.096 
L 190.752 44.320714 
L 189.908413 42.552 
L 187.243482 37.008 
L 184.8 31.947873 
z
" clip-path="url(#p33be66ea85)" style="fill: #27808e"/>
    <path d="M 53.757467 125.712 
L 53.643506 120.168 
L 53.606824 114.624 
L 53.627433 109.08 
L 53.693516 103.536 
L 53.797976 97.992 
L 53.856 95.640889 
L 53.944869 92.448 
L 54.125348 86.904 
L 54.326476 81.36 
L 54.543872 75.816 
L 54.774038 70.272 
L 55.014155 64.728 
L 55.261946 59.184 
L 55.515558 53.64 
L 55.773476 48.096 
L 56.03446 42.552 
L 56.29749 37.008 
L 56.561724 31.464 
L 56.82647 25.92 
L 58.195307 25.92 
L 57.930562 31.464 
L 57.666327 37.008 
L 57.403298 42.552 
L 57.142314 48.096 
L 56.884395 53.64 
L 56.630784 59.184 
L 56.382993 64.728 
L 56.142875 70.272 
L 55.91271 75.816 
L 55.695313 81.36 
L 55.494185 86.904 
L 55.313706 92.448 
L 55.159399 97.992 
L 55.038285 103.536 
L 54.959383 109.08 
L 54.934402 114.624 
L 54.978741 120.168 
L 55.112944 125.712 
L 55.364891 131.256 
L 55.77315 136.8 
L 56.392314 142.344 
L 57.301775 147.888 
L 58.620798 153.432 
L 59.808 156.868983 
L 61.062662 158.976 
L 65.76 164.338289 
L 66.031378 164.52 
L 71.712 167.038242 
L 77.664 168.540422 
L 83.616 169.313729 
L 89.568 169.602502 
L 95.52 169.560529 
L 101.472 169.288405 
L 107.424 168.854013 
L 113.376 168.304351 
L 119.328 167.672646 
L 125.28 166.982813 
L 131.232 166.252313 
L 137.184 165.494051 
L 143.136 164.717658 
L 144.63034 164.52 
L 149.088 163.62941 
L 155.04 162.432104 
L 160.992 161.23292 
L 166.944 160.036643 
L 172.250196 158.976 
L 172.896 158.786098 
L 178.848 157.049575 
L 184.8 155.329806 
L 190.752 153.629078 
L 191.450219 153.432 
L 196.704 151.279034 
L 202.656 148.871781 
L 205.122286 147.888 
L 208.608 145.87142 
L 214.56 142.477098 
L 214.56 147.888 
L 214.56 149.910582 
L 208.608 152.250952 
L 205.647177 153.432 
L 202.656 154.253825 
L 196.704 155.9119 
L 190.752 157.591904 
L 185.908108 158.976 
L 184.8 159.191234 
L 178.848 160.360269 
L 172.896 161.540693 
L 166.944 162.730423 
L 160.992 163.926701 
L 158.047232 164.52 
L 155.04 164.92113 
L 149.088 165.713814 
L 143.136 166.501093 
L 137.184 167.277486 
L 131.232 168.035748 
L 125.28 168.766248 
L 119.328 169.456081 
L 113.600106 170.064 
L 113.376 170.079184 
L 107.424 170.427458 
L 101.472 170.70278 
L 95.52 170.875255 
L 89.568 170.901858 
L 83.616 170.718831 
L 77.664 170.2287 
L 76.634384 170.064 
L 71.712 168.821677 
L 65.76 166.183132 
L 63.55944 164.52 
L 59.808 160.237509 
L 59.166967 158.976 
L 57.251961 153.432 
L 55.932937 147.888 
L 55.023476 142.344 
L 54.404312 136.8 
L 53.996053 131.256 
L 53.856 128.174177 
z
M 195.814331 25.92 
L 196.704 25.92 
L 202.656 25.92 
L 208.608 25.92 
L 210.152573 25.92 
L 212.982514 31.464 
L 214.56 34.560348 
L 214.56 37.008 
L 214.56 42.552 
L 214.56 48.096 
L 214.56 53.64 
L 214.56 59.184 
L 214.56 64.030946 
L 212.244314 59.184 
L 209.533386 53.64 
L 208.608 51.779134 
L 206.802524 48.096 
L 204.052543 42.552 
L 202.656 39.758446 
L 201.299885 37.008 
L 198.553878 31.464 
L 196.704 27.736427 
z
" clip-path="url(#p33be66ea85)" style="fill: #2d708e"/>
    <path d="M 53.637281 142.344 
L 53.055227 136.8 
L 52.732035 131.256 
L 52.552067 125.712 
L 52.461575 120.168 
L 52.432447 114.624 
L 52.448812 109.08 
L 52.501286 103.536 
L 52.584234 97.992 
L 52.694354 92.448 
L 52.829912 86.904 
L 52.990313 81.36 
L 53.175864 75.816 
L 53.38766 70.272 
L 53.627545 64.728 
L 53.856 60.014251 
L 53.893108 59.184 
L 54.14672 53.64 
L 54.404638 48.096 
L 54.665622 42.552 
L 54.928652 37.008 
L 55.192886 31.464 
L 55.457632 25.92 
L 56.82647 25.92 
L 56.561724 31.464 
L 56.29749 37.008 
L 56.03446 42.552 
L 55.773476 48.096 
L 55.515558 53.64 
L 55.261946 59.184 
L 55.014155 64.728 
L 54.774038 70.272 
L 54.543872 75.816 
L 54.326476 81.36 
L 54.125348 86.904 
L 53.944869 92.448 
L 53.856 95.640889 
L 53.797976 97.992 
L 53.693516 103.536 
L 53.627433 109.08 
L 53.606824 114.624 
L 53.643506 120.168 
L 53.757467 125.712 
L 53.856 128.174177 
L 53.996053 131.256 
L 54.404312 136.8 
L 55.023476 142.344 
L 55.932937 147.888 
L 57.251961 153.432 
L 59.166967 158.976 
L 59.808 160.237509 
L 63.55944 164.52 
L 65.76 166.183132 
L 71.712 168.821677 
L 76.634384 170.064 
L 77.664 170.2287 
L 83.616 170.718831 
L 89.568 170.901858 
L 95.52 170.875255 
L 101.472 170.70278 
L 107.424 170.427458 
L 113.376 170.079184 
L 113.600106 170.064 
L 119.328 169.456081 
L 125.28 168.766248 
L 131.232 168.035748 
L 137.184 167.277486 
L 143.136 166.501093 
L 149.088 165.713814 
L 155.04 164.92113 
L 158.047232 164.52 
L 160.992 163.926701 
L 166.944 162.730423 
L 172.896 161.540693 
L 178.848 160.360269 
L 184.8 159.191234 
L 185.908108 158.976 
L 190.752 157.591904 
L 196.704 155.9119 
L 202.656 154.253825 
L 205.647177 153.432 
L 208.608 152.250952 
L 214.56 149.910582 
L 214.56 153.432 
L 214.56 154.969334 
L 208.608 156.58134 
L 202.656 158.216651 
L 199.930159 158.976 
L 196.704 159.58692 
L 190.752 160.728924 
L 184.8 161.885015 
L 178.848 163.05405 
L 172.896 164.234473 
L 171.467564 164.52 
L 166.944 165.118634 
L 160.992 165.910637 
L 155.04 166.704564 
L 149.088 167.497248 
L 143.136 168.284527 
L 137.184 169.06092 
L 131.232 169.819182 
L 129.237263 170.064 
L 125.28 170.429712 
L 119.328 170.87332 
L 113.376 171.217728 
L 107.424 171.557819 
L 101.472 171.833141 
L 95.52 172.005616 
L 89.568 172.032219 
L 83.616 171.849192 
L 77.664 171.359061 
L 71.712 170.468405 
L 70.491368 170.064 
L 65.76 167.966566 
L 61.199702 164.52 
L 59.808 162.93129 
L 57.798129 158.976 
L 55.883123 153.432 
L 54.564099 147.888 
L 53.856 143.571484 
z
M 212.982514 31.464 
L 210.152573 25.92 
L 214.56 25.92 
L 214.56 31.464 
L 214.56 34.560348 
z
" clip-path="url(#p33be66ea85)" style="fill: #355f8d"/>
    <path d="M 52.995486 147.888 
L 52.15045 142.344 
L 51.719342 136.8 
L 51.479965 131.256 
L 51.346668 125.712 
L 51.279643 120.168 
L 51.258069 114.624 
L 51.27019 109.08 
L 51.309056 103.536 
L 51.370493 97.992 
L 51.452056 92.448 
L 51.552459 86.904 
L 51.671262 81.36 
L 51.808694 75.816 
L 51.965564 70.272 
L 52.143239 64.728 
L 52.34366 59.184 
L 52.569411 53.64 
L 52.823826 48.096 
L 53.111158 42.552 
L 53.436825 37.008 
L 53.80775 31.464 
L 53.856 30.79491 
L 54.088794 25.92 
L 55.457632 25.92 
L 55.192886 31.464 
L 54.928652 37.008 
L 54.665622 42.552 
L 54.404638 48.096 
L 54.14672 53.64 
L 53.893108 59.184 
L 53.856 60.014251 
L 53.627545 64.728 
L 53.38766 70.272 
L 53.175864 75.816 
L 52.990313 81.36 
L 52.829912 86.904 
L 52.694354 92.448 
L 52.584234 97.992 
L 52.501286 103.536 
L 52.448812 109.08 
L 52.432447 114.624 
L 52.461575 120.168 
L 52.552067 125.712 
L 52.732035 131.256 
L 53.055227 136.8 
L 53.637281 142.344 
L 53.856 143.571484 
L 54.564099 147.888 
L 55.883123 153.432 
L 57.798129 158.976 
L 59.808 162.93129 
L 61.199702 164.52 
L 65.76 167.966566 
L 70.491368 170.064 
L 71.712 170.468405 
L 77.664 171.359061 
L 83.616 171.849192 
L 89.568 172.032219 
L 95.52 172.005616 
L 101.472 171.833141 
L 107.424 171.557819 
L 113.376 171.217728 
L 119.328 170.87332 
L 125.28 170.429712 
L 129.237263 170.064 
L 131.232 169.819182 
L 137.184 169.06092 
L 143.136 168.284527 
L 149.088 167.497248 
L 155.04 166.704564 
L 160.992 165.910637 
L 166.944 165.118634 
L 171.467564 164.52 
L 172.896 164.234473 
L 178.848 163.05405 
L 184.8 161.885015 
L 190.752 160.728924 
L 196.704 159.58692 
L 199.930159 158.976 
L 202.656 158.216651 
L 208.608 156.58134 
L 214.56 154.969334 
L 214.56 158.932159 
L 214.398127 158.976 
L 208.608 160.04198 
L 202.656 161.153603 
L 196.704 162.280701 
L 190.752 163.422705 
L 185.102703 164.52 
L 184.8 164.562047 
L 178.848 165.332893 
L 172.896 166.1144 
L 166.944 166.902069 
L 160.992 167.694071 
L 155.04 168.487999 
L 149.088 169.280683 
L 143.165952 170.064 
L 143.136 170.068309 
L 137.184 170.800525 
L 131.232 171.350168 
L 125.28 171.772615 
L 119.328 172.101181 
L 113.376 172.356272 
L 107.424 172.68818 
L 101.472 172.963502 
L 95.52 173.135977 
L 89.568 173.16258 
L 83.616 172.979553 
L 77.664 172.489422 
L 71.712 171.801274 
L 66.468316 170.064 
L 65.76 169.750001 
L 59.808 165.251619 
L 59.060453 164.52 
L 56.429292 158.976 
L 54.514285 153.432 
L 53.856 150.665156 
z
" clip-path="url(#p33be66ea85)" style="fill: #3d4d8a"/>
    <path d="M 52.555173 153.432 
L 51.212778 147.888 
L 50.663619 142.344 
L 50.383457 136.8 
L 50.227894 131.256 
L 50.141269 125.712 
L 50.097712 120.168 
L 50.083692 114.624 
L 50.091569 109.08 
L 50.116827 103.536 
L 50.156752 97.992 
L 50.209757 92.448 
L 50.275005 86.904 
L 50.352211 81.36 
L 50.441523 75.816 
L 50.543468 70.272 
L 50.658932 64.728 
L 50.789179 59.184 
L 50.935887 53.64 
L 51.101222 48.096 
L 51.287949 42.552 
L 51.499589 37.008 
L 51.740639 31.464 
L 52.016904 25.92 
L 53.856 25.92 
L 54.088794 25.92 
L 53.856 30.79491 
L 53.80775 31.464 
L 53.436825 37.008 
L 53.111158 42.552 
L 52.823826 48.096 
L 52.569411 53.64 
L 52.34366 59.184 
L 52.143239 64.728 
L 51.965564 70.272 
L 51.808694 75.816 
L 51.671262 81.36 
L 51.552459 86.904 
L 51.452056 92.448 
L 51.370493 97.992 
L 51.309056 103.536 
L 51.27019 109.08 
L 51.258069 114.624 
L 51.279643 120.168 
L 51.346668 125.712 
L 51.479965 131.256 
L 51.719342 136.8 
L 52.15045 142.344 
L 52.995486 147.888 
L 53.856 150.665156 
L 54.514285 153.432 
L 56.429292 158.976 
L 59.060453 164.52 
L 59.808 165.251619 
L 65.76 169.750001 
L 66.468316 170.064 
L 71.712 171.801274 
L 77.664 172.489422 
L 83.616 172.979553 
L 89.568 173.16258 
L 95.52 173.135977 
L 101.472 172.963502 
L 107.424 172.68818 
L 113.376 172.356272 
L 119.328 172.101181 
L 125.28 171.772615 
L 131.232 171.350168 
L 137.184 170.800525 
L 143.136 170.068309 
L 143.165952 170.064 
L 149.088 169.280683 
L 155.04 168.487999 
L 160.992 167.694071 
L 166.944 166.902069 
L 172.896 166.1144 
L 178.848 165.332893 
L 184.8 164.562047 
L 185.102703 164.52 
L 190.752 163.422705 
L 196.704 162.280701 
L 202.656 161.153603 
L 208.608 160.04198 
L 214.398127 158.976 
L 214.56 158.932159 
L 214.56 158.976 
L 214.56 161.639979 
L 208.608 162.735761 
L 202.656 163.847384 
L 199.104035 164.52 
L 196.704 164.98196 
L 190.752 165.86181 
L 184.8 166.488474 
L 178.848 167.116327 
L 172.896 167.897834 
L 166.944 168.685503 
L 160.992 169.477506 
L 156.595107 170.064 
L 155.04 170.390934 
L 149.088 171.350389 
L 143.136 172.007949 
L 137.184 172.483791 
L 131.232 172.840984 
L 125.28 173.115518 
L 119.328 173.329041 
L 113.376 173.494817 
L 107.424 173.81854 
L 101.472 174.093863 
L 95.52 174.266338 
L 89.568 174.292941 
L 83.616 174.109914 
L 77.664 173.619783 
L 71.712 173.134142 
L 65.76 171.768455 
L 63.815728 170.064 
L 59.808 167.035054 
L 57.238191 164.52 
L 55.060454 158.976 
L 53.856 155.489071 
z
" clip-path="url(#p33be66ea85)" style="fill: #443983"/>
    <path d="M 53.123744 158.976 
L 50.049207 153.432 
L 49.43007 147.888 
L 49.176787 142.344 
L 49.047571 136.8 
L 48.975823 131.256 
L 48.93587 125.712 
L 48.915781 120.168 
L 48.909314 114.624 
L 48.912947 109.08 
L 48.924597 103.536 
L 48.943011 97.992 
L 48.967458 92.448 
L 48.997552 86.904 
L 49.03316 81.36 
L 49.074353 75.816 
L 49.121372 70.272 
L 49.174626 64.728 
L 49.234698 59.184 
L 49.302362 53.64 
L 49.378618 48.096 
L 49.46474 42.552 
L 49.562352 37.008 
L 49.673529 31.464 
L 49.800948 25.92 
L 52.016904 25.92 
L 51.740639 31.464 
L 51.499589 37.008 
L 51.287949 42.552 
L 51.101222 48.096 
L 50.935887 53.64 
L 50.789179 59.184 
L 50.658932 64.728 
L 50.543468 70.272 
L 50.441523 75.816 
L 50.352211 81.36 
L 50.275005 86.904 
L 50.209757 92.448 
L 50.156752 97.992 
L 50.116827 103.536 
L 50.091569 109.08 
L 50.083692 114.624 
L 50.097712 120.168 
L 50.141269 125.712 
L 50.227894 131.256 
L 50.383457 136.8 
L 50.663619 142.344 
L 51.212778 147.888 
L 52.555173 153.432 
L 53.856 155.489071 
L 55.060454 158.976 
L 57.238191 164.52 
L 59.808 167.035054 
L 63.815728 170.064 
L 65.76 171.768455 
L 71.712 173.134142 
L 77.664 173.619783 
L 83.616 174.109914 
L 89.568 174.292941 
L 95.52 174.266338 
L 101.472 174.093863 
L 107.424 173.81854 
L 113.376 173.494817 
L 119.328 173.329041 
L 125.28 173.115518 
L 131.232 172.840984 
L 137.184 172.483791 
L 143.136 172.007949 
L 149.088 171.350389 
L 155.04 170.390934 
L 156.595107 170.064 
L 160.992 169.477506 
L 166.944 168.685503 
L 172.896 167.897834 
L 178.848 167.116327 
L 184.8 166.488474 
L 190.752 165.86181 
L 196.704 164.98196 
L 199.104035 164.52 
L 202.656 163.847384 
L 208.608 162.735761 
L 214.56 161.639979 
L 214.56 164.33376 
L 213.548394 164.52 
L 208.608 166.088173 
L 202.656 167.109543 
L 196.704 167.720069 
L 190.752 168.125872 
L 184.8 168.414901 
L 178.848 168.899762 
L 172.896 169.681269 
L 170.003901 170.064 
L 166.944 171.226218 
L 160.992 172.500393 
L 155.04 173.201792 
L 149.088 173.644311 
L 143.136 173.94759 
L 137.184 174.167057 
L 131.232 174.331801 
L 125.28 174.458421 
L 119.328 174.556902 
L 113.376 174.633361 
L 107.424 174.948901 
L 101.472 175.224223 
L 95.52 175.396699 
L 89.568 175.423302 
L 83.616 175.240275 
L 77.664 174.750144 
L 71.712 174.467011 
L 65.76 173.837131 
L 61.45599 170.064 
L 59.808 168.818488 
L 55.415929 164.52 
L 53.856 159.658061 
z
" clip-path="url(#p33be66ea85)" style="fill: #482475"/>
    <path d="M 36 186.696 
L 36 181.152 
L 36 175.608 
L 36 170.064 
L 36 164.52 
L 36 158.976 
L 36 153.432 
L 36 147.888 
L 36 142.344 
L 36 136.8 
L 36 131.256 
L 36 125.712 
L 36 120.168 
L 36 114.624 
L 36 109.08 
L 36 103.536 
L 36 97.992 
L 36 92.448 
L 36 86.904 
L 36 81.36 
L 36 75.816 
L 36 70.272 
L 36 64.728 
L 36 59.184 
L 36 53.64 
L 36 48.096 
L 36 42.552 
L 36 37.008 
L 36 31.464 
L 36 25.92 
L 41.952 25.92 
L 47.904 25.92 
L 49.800948 25.92 
L 49.673529 31.464 
L 49.562352 37.008 
L 49.46474 42.552 
L 49.378618 48.096 
L 49.302362 53.64 
L 49.234698 59.184 
L 49.174626 64.728 
L 49.121372 70.272 
L 49.074353 75.816 
L 49.03316 81.36 
L 48.997552 86.904 
L 48.967458 92.448 
L 48.943011 97.992 
L 48.924597 103.536 
L 48.912947 109.08 
L 48.909314 114.624 
L 48.915781 120.168 
L 48.93587 125.712 
L 48.975823 131.256 
L 49.047571 136.8 
L 49.176787 142.344 
L 49.43007 147.888 
L 50.049207 153.432 
L 53.123744 158.976 
L 53.856 159.658061 
L 55.415929 164.52 
L 59.808 168.818488 
L 61.45599 170.064 
L 65.76 173.837131 
L 71.712 174.467011 
L 77.664 174.750144 
L 83.616 175.240275 
L 89.568 175.423302 
L 95.52 175.396699 
L 101.472 175.224223 
L 107.424 174.948901 
L 113.376 174.633361 
L 119.328 174.556902 
L 125.28 174.458421 
L 131.232 174.331801 
L 137.184 174.167057 
L 143.136 173.94759 
L 149.088 173.644311 
L 155.04 173.201792 
L 160.992 172.500393 
L 166.944 171.226218 
L 170.003901 170.064 
L 172.896 169.681269 
L 178.848 168.899762 
L 184.8 168.414901 
L 190.752 168.125872 
L 196.704 167.720069 
L 202.656 167.109543 
L 208.608 166.088173 
L 213.548394 164.52 
L 214.56 164.33376 
L 214.56 164.52 
L 214.56 170.064 
L 214.56 175.608 
L 214.56 181.152 
L 214.56 186.696 
L 214.56 192.24 
L 208.608 192.24 
L 202.656 192.24 
L 196.704 192.24 
L 190.752 192.24 
L 184.8 192.24 
L 178.848 192.24 
L 172.896 192.24 
L 166.944 192.24 
L 160.992 192.24 
L 155.04 192.24 
L 149.088 192.24 
L 143.136 192.24 
L 137.184 192.24 
L 131.232 192.24 
L 125.28 192.24 
L 119.328 192.24 
L 113.376 192.24 
L 107.424 192.24 
L 101.472 192.24 
L 95.52 192.24 
L 89.568 192.24 
L 83.616 192.24 
L 77.664 192.24 
L 71.712 192.24 
L 65.76 192.24 
L 59.808 192.24 
L 53.856 192.24 
L 47.904 192.24 
L 41.952 192.24 
L 36 192.24 
z
" clip-path="url(#p33be66ea85)" style="fill: #470d60"/>
   </g>
   <g id="PathCollection_1">
    <defs>
     <path id="m57e92ce5fa" d="M -4.743416 4.743416 
L 4.743416 -4.743416 
M -4.743416 -4.743416 
L 4.743416 4.743416 
" style="stroke: #ffffff; stroke-width: 5"/>
    </defs>
    <g clip-path="url(#p33be66ea85)">
     <use xlink:href="#m57e92ce5fa" x="85.6" y="127.56" style="fill: #ffffff; stroke: #ffffff; stroke-width: 5"/>
    </g>
   </g>
   <g id="PathCollection_2">
    <defs>
     <path id="ma52360cf92" d="M -4.330127 4.330127 
L 4.330127 -4.330127 
M -4.330127 -4.330127 
L 4.330127 4.330127 
" style="stroke: #000000; stroke-width: 2"/>
    </defs>
    <g clip-path="url(#p33be66ea85)">
     <use xlink:href="#ma52360cf92" x="85.6" y="127.56" style="stroke: #000000; stroke-width: 2"/>
    </g>
   </g>
   <g id="matplotlib.axis_1">
    <g id="xtick_1">
     <g id="line2d_1">
      <defs>
       <path id="mdcaac49ad0" d="M 0 0 
L 0 6 
" style="stroke: #000000; stroke-width: 2"/>
      </defs>
      <g>
       <use xlink:href="#mdcaac49ad0" x="65.76" y="192.24" style="stroke: #000000; stroke-width: 2"/>
      </g>
     </g>
     <g id="text_1">
      <!-- $\mathdefault{200}$ -->
      <g transform="translate(52.39 212.377813) scale(0.14 -0.14)">
       <defs>
        <path id="DejaVuSans-32" d="M 1228 531 
L 3431 531 
L 3431 0 
L 469 0 
L 469 531 
Q 828 903 1448 1529 
Q 2069 2156 2228 2338 
Q 2531 2678 2651 2914 
Q 2772 3150 2772 3378 
Q 2772 3750 2511 3984 
Q 2250 4219 1831 4219 
Q 1534 4219 1204 4116 
Q 875 4013 500 3803 
L 500 4441 
Q 881 4594 1212 4672 
Q 1544 4750 1819 4750 
Q 2544 4750 2975 4387 
Q 3406 4025 3406 3419 
Q 3406 3131 3298 2873 
Q 3191 2616 2906 2266 
Q 2828 2175 2409 1742 
Q 1991 1309 1228 531 
z
" transform="scale(0.015625)"/>
        <path id="DejaVuSans-30" d="M 2034 4250 
Q 1547 4250 1301 3770 
Q 1056 3291 1056 2328 
Q 1056 1369 1301 889 
Q 1547 409 2034 409 
Q 2525 409 2770 889 
Q 3016 1369 3016 2328 
Q 3016 3291 2770 3770 
Q 2525 4250 2034 4250 
z
M 2034 4750 
Q 2819 4750 3233 4129 
Q 3647 3509 3647 2328 
Q 3647 1150 3233 529 
Q 2819 -91 2034 -91 
Q 1250 -91 836 529 
Q 422 1150 422 2328 
Q 422 3509 836 4129 
Q 1250 4750 2034 4750 
z
" transform="scale(0.015625)"/>
       </defs>
       <use xlink:href="#DejaVuSans-32" transform="translate(0 0.78125)"/>
       <use xlink:href="#DejaVuSans-30" transform="translate(63.623047 0.78125)"/>
       <use xlink:href="#DejaVuSans-30" transform="translate(127.246094 0.78125)"/>
      </g>
     </g>
    </g>
    <g id="xtick_2">
     <g id="line2d_2">
      <g>
       <use xlink:href="#mdcaac49ad0" x="105.44" y="192.24" style="stroke: #000000; stroke-width: 2"/>
      </g>
     </g>
     <g id="text_2">
      <!-- $\mathdefault{400}$ -->
      <g transform="translate(92.07 212.377813) scale(0.14 -0.14)">
       <defs>
        <path id="DejaVuSans-34" d="M 2419 4116 
L 825 1625 
L 2419 1625 
L 2419 4116 
z
M 2253 4666 
L 3047 4666 
L 3047 1625 
L 3713 1625 
L 3713 1100 
L 3047 1100 
L 3047 0 
L 2419 0 
L 2419 1100 
L 313 1100 
L 313 1709 
L 2253 4666 
z
" transform="scale(0.015625)"/>
       </defs>
       <use xlink:href="#DejaVuSans-34" transform="translate(0 0.78125)"/>
       <use xlink:href="#DejaVuSans-30" transform="translate(63.623047 0.78125)"/>
       <use xlink:href="#DejaVuSans-30" transform="translate(127.246094 0.78125)"/>
      </g>
     </g>
    </g>
    <g id="xtick_3">
     <g id="line2d_3">
      <g>
       <use xlink:href="#mdcaac49ad0" x="145.12" y="192.24" style="stroke: #000000; stroke-width: 2"/>
      </g>
     </g>
     <g id="text_3">
      <!-- $\mathdefault{600}$ -->
      <g transform="translate(131.75 212.377813) scale(0.14 -0.14)">
       <defs>
        <path id="DejaVuSans-36" d="M 2113 2584 
Q 1688 2584 1439 2293 
Q 1191 2003 1191 1497 
Q 1191 994 1439 701 
Q 1688 409 2113 409 
Q 2538 409 2786 701 
Q 3034 994 3034 1497 
Q 3034 2003 2786 2293 
Q 2538 2584 2113 2584 
z
M 3366 4563 
L 3366 3988 
Q 3128 4100 2886 4159 
Q 2644 4219 2406 4219 
Q 1781 4219 1451 3797 
Q 1122 3375 1075 2522 
Q 1259 2794 1537 2939 
Q 1816 3084 2150 3084 
Q 2853 3084 3261 2657 
Q 3669 2231 3669 1497 
Q 3669 778 3244 343 
Q 2819 -91 2113 -91 
Q 1303 -91 875 529 
Q 447 1150 447 2328 
Q 447 3434 972 4092 
Q 1497 4750 2381 4750 
Q 2619 4750 2861 4703 
Q 3103 4656 3366 4563 
z
" transform="scale(0.015625)"/>
       </defs>
       <use xlink:href="#DejaVuSans-36" transform="translate(0 0.78125)"/>
       <use xlink:href="#DejaVuSans-30" transform="translate(63.623047 0.78125)"/>
       <use xlink:href="#DejaVuSans-30" transform="translate(127.246094 0.78125)"/>
      </g>
     </g>
    </g>
    <g id="xtick_4">
     <g id="line2d_4">
      <g>
       <use xlink:href="#mdcaac49ad0" x="184.8" y="192.24" style="stroke: #000000; stroke-width: 2"/>
      </g>
     </g>
     <g id="text_4">
      <!-- $\mathdefault{800}$ -->
      <g transform="translate(171.43 212.377813) scale(0.14 -0.14)">
       <defs>
        <path id="DejaVuSans-38" d="M 2034 2216 
Q 1584 2216 1326 1975 
Q 1069 1734 1069 1313 
Q 1069 891 1326 650 
Q 1584 409 2034 409 
Q 2484 409 2743 651 
Q 3003 894 3003 1313 
Q 3003 1734 2745 1975 
Q 2488 2216 2034 2216 
z
M 1403 2484 
Q 997 2584 770 2862 
Q 544 3141 544 3541 
Q 544 4100 942 4425 
Q 1341 4750 2034 4750 
Q 2731 4750 3128 4425 
Q 3525 4100 3525 3541 
Q 3525 3141 3298 2862 
Q 3072 2584 2669 2484 
Q 3125 2378 3379 2068 
Q 3634 1759 3634 1313 
Q 3634 634 3220 271 
Q 2806 -91 2034 -91 
Q 1263 -91 848 271 
Q 434 634 434 1313 
Q 434 1759 690 2068 
Q 947 2378 1403 2484 
z
M 1172 3481 
Q 1172 3119 1398 2916 
Q 1625 2713 2034 2713 
Q 2441 2713 2670 2916 
Q 2900 3119 2900 3481 
Q 2900 3844 2670 4047 
Q 2441 4250 2034 4250 
Q 1625 4250 1398 4047 
Q 1172 3844 1172 3481 
z
" transform="scale(0.015625)"/>
       </defs>
       <use xlink:href="#DejaVuSans-38" transform="translate(0 0.78125)"/>
       <use xlink:href="#DejaVuSans-30" transform="translate(63.623047 0.78125)"/>
       <use xlink:href="#DejaVuSans-30" transform="translate(127.246094 0.78125)"/>
      </g>
     </g>
    </g>
    <g id="text_5">
     <!-- Diploid N$_e$1 -->
     <g transform="translate(74.34 232.969375) scale(0.18 -0.18)">
      <defs>
       <path id="DejaVuSans-44" d="M 1259 4147 
L 1259 519 
L 2022 519 
Q 2988 519 3436 956 
Q 3884 1394 3884 2338 
Q 3884 3275 3436 3711 
Q 2988 4147 2022 4147 
L 1259 4147 
z
M 628 4666 
L 1925 4666 
Q 3281 4666 3915 4102 
Q 4550 3538 4550 2338 
Q 4550 1131 3912 565 
Q 3275 0 1925 0 
L 628 0 
L 628 4666 
z
" transform="scale(0.015625)"/>
       <path id="DejaVuSans-69" d="M 603 3500 
L 1178 3500 
L 1178 0 
L 603 0 
L 603 3500 
z
M 603 4863 
L 1178 4863 
L 1178 4134 
L 603 4134 
L 603 4863 
z
" transform="scale(0.015625)"/>
       <path id="DejaVuSans-70" d="M 1159 525 
L 1159 -1331 
L 581 -1331 
L 581 3500 
L 1159 3500 
L 1159 2969 
Q 1341 3281 1617 3432 
Q 1894 3584 2278 3584 
Q 2916 3584 3314 3078 
Q 3713 2572 3713 1747 
Q 3713 922 3314 415 
Q 2916 -91 2278 -91 
Q 1894 -91 1617 61 
Q 1341 213 1159 525 
z
M 3116 1747 
Q 3116 2381 2855 2742 
Q 2594 3103 2138 3103 
Q 1681 3103 1420 2742 
Q 1159 2381 1159 1747 
Q 1159 1113 1420 752 
Q 1681 391 2138 391 
Q 2594 391 2855 752 
Q 3116 1113 3116 1747 
z
" transform="scale(0.015625)"/>
       <path id="DejaVuSans-6c" d="M 603 4863 
L 1178 4863 
L 1178 0 
L 603 0 
L 603 4863 
z
" transform="scale(0.015625)"/>
       <path id="DejaVuSans-6f" d="M 1959 3097 
Q 1497 3097 1228 2736 
Q 959 2375 959 1747 
Q 959 1119 1226 758 
Q 1494 397 1959 397 
Q 2419 397 2687 759 
Q 2956 1122 2956 1747 
Q 2956 2369 2687 2733 
Q 2419 3097 1959 3097 
z
M 1959 3584 
Q 2709 3584 3137 3096 
Q 3566 2609 3566 1747 
Q 3566 888 3137 398 
Q 2709 -91 1959 -91 
Q 1206 -91 779 398 
Q 353 888 353 1747 
Q 353 2609 779 3096 
Q 1206 3584 1959 3584 
z
" transform="scale(0.015625)"/>
       <path id="DejaVuSans-64" d="M 2906 2969 
L 2906 4863 
L 3481 4863 
L 3481 0 
L 2906 0 
L 2906 525 
Q 2725 213 2448 61 
Q 2172 -91 1784 -91 
Q 1150 -91 751 415 
Q 353 922 353 1747 
Q 353 2572 751 3078 
Q 1150 3584 1784 3584 
Q 2172 3584 2448 3432 
Q 2725 3281 2906 2969 
z
M 947 1747 
Q 947 1113 1208 752 
Q 1469 391 1925 391 
Q 2381 391 2643 752 
Q 2906 1113 2906 1747 
Q 2906 2381 2643 2742 
Q 2381 3103 1925 3103 
Q 1469 3103 1208 2742 
Q 947 2381 947 1747 
z
" transform="scale(0.015625)"/>
       <path id="DejaVuSans-20" transform="scale(0.015625)"/>
       <path id="DejaVuSans-4e" d="M 628 4666 
L 1478 4666 
L 3547 763 
L 3547 4666 
L 4159 4666 
L 4159 0 
L 3309 0 
L 1241 3903 
L 1241 0 
L 628 0 
L 628 4666 
z
" transform="scale(0.015625)"/>
       <path id="DejaVuSans-Oblique-65" d="M 3078 2063 
Q 3088 2113 3092 2166 
Q 3097 2219 3097 2272 
Q 3097 2653 2873 2875 
Q 2650 3097 2266 3097 
Q 1838 3097 1509 2826 
Q 1181 2556 1013 2059 
L 3078 2063 
z
M 3578 1613 
L 903 1613 
Q 884 1494 878 1425 
Q 872 1356 872 1306 
Q 872 872 1139 634 
Q 1406 397 1894 397 
Q 2269 397 2603 481 
Q 2938 566 3225 728 
L 3116 159 
Q 2806 34 2476 -28 
Q 2147 -91 1806 -91 
Q 1078 -91 686 257 
Q 294 606 294 1247 
Q 294 1794 489 2264 
Q 684 2734 1063 3103 
Q 1306 3334 1642 3459 
Q 1978 3584 2356 3584 
Q 2950 3584 3301 3228 
Q 3653 2872 3653 2272 
Q 3653 2128 3634 1964 
Q 3616 1800 3578 1613 
z
" transform="scale(0.015625)"/>
       <path id="DejaVuSans-31" d="M 794 531 
L 1825 531 
L 1825 4091 
L 703 3866 
L 703 4441 
L 1819 4666 
L 2450 4666 
L 2450 531 
L 3481 531 
L 3481 0 
L 794 0 
L 794 531 
z
" transform="scale(0.015625)"/>
      </defs>
      <use xlink:href="#DejaVuSans-44" transform="translate(0 0.015625)"/>
      <use xlink:href="#DejaVuSans-69" transform="translate(77.001953 0.015625)"/>
      <use xlink:href="#DejaVuSans-70" transform="translate(104.785156 0.015625)"/>
      <use xlink:href="#DejaVuSans-6c" transform="translate(168.261719 0.015625)"/>
      <use xlink:href="#DejaVuSans-6f" transform="translate(196.044922 0.015625)"/>
      <use xlink:href="#DejaVuSans-69" transform="translate(257.226562 0.015625)"/>
      <use xlink:href="#DejaVuSans-64" transform="translate(285.009766 0.015625)"/>
      <use xlink:href="#DejaVuSans-20" transform="translate(348.486328 0.015625)"/>
      <use xlink:href="#DejaVuSans-4e" transform="translate(380.273438 0.015625)"/>
      <use xlink:href="#DejaVuSans-Oblique-65" transform="translate(456.035156 -16.390625) scale(0.7)"/>
      <use xlink:href="#DejaVuSans-31" transform="translate(501.835938 0.015625)"/>
     </g>
    </g>
    <g id="text_6">
     <!-- $\times\mathdefault{10^{3}}\mathdefault{}$ -->
     <g transform="translate(188.56 225.887812) scale(0.1 -0.1)">
      <defs>
       <path id="DejaVuSans-d7" d="M 4488 3438 
L 3059 2003 
L 4488 575 
L 4116 197 
L 2681 1631 
L 1247 197 
L 878 575 
L 2303 2003 
L 878 3438 
L 1247 3816 
L 2681 2381 
L 4116 3816 
L 4488 3438 
z
" transform="scale(0.015625)"/>
       <path id="DejaVuSans-33" d="M 2597 2516 
Q 3050 2419 3304 2112 
Q 3559 1806 3559 1356 
Q 3559 666 3084 287 
Q 2609 -91 1734 -91 
Q 1441 -91 1130 -33 
Q 819 25 488 141 
L 488 750 
Q 750 597 1062 519 
Q 1375 441 1716 441 
Q 2309 441 2620 675 
Q 2931 909 2931 1356 
Q 2931 1769 2642 2001 
Q 2353 2234 1838 2234 
L 1294 2234 
L 1294 2753 
L 1863 2753 
Q 2328 2753 2575 2939 
Q 2822 3125 2822 3475 
Q 2822 3834 2567 4026 
Q 2313 4219 1838 4219 
Q 1578 4219 1281 4162 
Q 984 4106 628 3988 
L 628 4550 
Q 988 4650 1302 4700 
Q 1616 4750 1894 4750 
Q 2613 4750 3031 4423 
Q 3450 4097 3450 3541 
Q 3450 3153 3228 2886 
Q 3006 2619 2597 2516 
z
" transform="scale(0.015625)"/>
      </defs>
      <use xlink:href="#DejaVuSans-d7" transform="translate(0 0.765625)"/>
      <use xlink:href="#DejaVuSans-31" transform="translate(83.789062 0.765625)"/>
      <use xlink:href="#DejaVuSans-30" transform="translate(147.412109 0.765625)"/>
      <use xlink:href="#DejaVuSans-33" transform="translate(211.992188 39.046875) scale(0.7)"/>
     </g>
    </g>
   </g>
   <g id="matplotlib.axis_2">
    <g id="ytick_1">
     <g id="line2d_5">
      <defs>
       <path id="m5617d3c194" d="M 0 0 
L -6 0 
" style="stroke: #000000; stroke-width: 2"/>
      </defs>
      <g>
       <use xlink:href="#m5617d3c194" x="36" y="164.52" style="stroke: #000000; stroke-width: 2"/>
      </g>
     </g>
     <g id="text_7">
      <!-- $\mathdefault{200}$ -->
      <g transform="translate(-0.24 169.838906) scale(0.14 -0.14)">
       <use xlink:href="#DejaVuSans-32" transform="translate(0 0.78125)"/>
       <use xlink:href="#DejaVuSans-30" transform="translate(63.623047 0.78125)"/>
       <use xlink:href="#DejaVuSans-30" transform="translate(127.246094 0.78125)"/>
      </g>
     </g>
    </g>
    <g id="ytick_2">
     <g id="line2d_6">
      <g>
       <use xlink:href="#m5617d3c194" x="36" y="127.56" style="stroke: #000000; stroke-width: 2"/>
      </g>
     </g>
     <g id="text_8">
      <!-- $\mathdefault{400}$ -->
      <g transform="translate(-0.24 132.878906) scale(0.14 -0.14)">
       <use xlink:href="#DejaVuSans-34" transform="translate(0 0.78125)"/>
       <use xlink:href="#DejaVuSans-30" transform="translate(63.623047 0.78125)"/>
       <use xlink:href="#DejaVuSans-30" transform="translate(127.246094 0.78125)"/>
      </g>
     </g>
    </g>
    <g id="ytick_3">
     <g id="line2d_7">
      <g>
       <use xlink:href="#m5617d3c194" x="36" y="90.6" style="stroke: #000000; stroke-width: 2"/>
      </g>
     </g>
     <g id="text_9">
      <!-- $\mathdefault{600}$ -->
      <g transform="translate(-0.24 95.918906) scale(0.14 -0.14)">
       <use xlink:href="#DejaVuSans-36" transform="translate(0 0.78125)"/>
       <use xlink:href="#DejaVuSans-30" transform="translate(63.623047 0.78125)"/>
       <use xlink:href="#DejaVuSans-30" transform="translate(127.246094 0.78125)"/>
      </g>
     </g>
    </g>
    <g id="ytick_4">
     <g id="line2d_8">
      <g>
       <use xlink:href="#m5617d3c194" x="36" y="53.64" style="stroke: #000000; stroke-width: 2"/>
      </g>
     </g>
     <g id="text_10">
      <!-- $\mathdefault{800}$ -->
      <g transform="translate(-0.24 58.958906) scale(0.14 -0.14)">
       <use xlink:href="#DejaVuSans-38" transform="translate(0 0.78125)"/>
       <use xlink:href="#DejaVuSans-30" transform="translate(63.623047 0.78125)"/>
       <use xlink:href="#DejaVuSans-30" transform="translate(127.246094 0.78125)"/>
      </g>
     </g>
    </g>
    <g id="text_11">
     <!-- Diploid N$_e$2 -->
     <g transform="translate(-8.02 160.02) rotate(-90) scale(0.18 -0.18)">
      <use xlink:href="#DejaVuSans-44" transform="translate(0 0.015625)"/>
      <use xlink:href="#DejaVuSans-69" transform="translate(77.001953 0.015625)"/>
      <use xlink:href="#DejaVuSans-70" transform="translate(104.785156 0.015625)"/>
      <use xlink:href="#DejaVuSans-6c" transform="translate(168.261719 0.015625)"/>
      <use xlink:href="#DejaVuSans-6f" transform="translate(196.044922 0.015625)"/>
      <use xlink:href="#DejaVuSans-69" transform="translate(257.226562 0.015625)"/>
      <use xlink:href="#DejaVuSans-64" transform="translate(285.009766 0.015625)"/>
      <use xlink:href="#DejaVuSans-20" transform="translate(348.486328 0.015625)"/>
      <use xlink:href="#DejaVuSans-4e" transform="translate(380.273438 0.015625)"/>
      <use xlink:href="#DejaVuSans-Oblique-65" transform="translate(456.035156 -16.390625) scale(0.7)"/>
      <use xlink:href="#DejaVuSans-32" transform="translate(501.835938 0.015625)"/>
     </g>
    </g>
    <g id="text_12">
     <!-- $\times\mathdefault{10^{3}}\mathdefault{}$ -->
     <g transform="translate(36 22.92) scale(0.1 -0.1)">
      <use xlink:href="#DejaVuSans-d7" transform="translate(0 0.765625)"/>
      <use xlink:href="#DejaVuSans-31" transform="translate(83.789062 0.765625)"/>
      <use xlink:href="#DejaVuSans-30" transform="translate(147.412109 0.765625)"/>
      <use xlink:href="#DejaVuSans-33" transform="translate(211.992188 39.046875) scale(0.7)"/>
     </g>
    </g>
   </g>
   <g id="patch_3">
    <path d="M 36 192.24 
L 36 25.92 
" style="fill: none; stroke: #000000; stroke-width: 0.8; stroke-linejoin: miter; stroke-linecap: square"/>
   </g>
   <g id="patch_4">
    <path d="M 214.56 192.24 
L 214.56 25.92 
" style="fill: none; stroke: #000000; stroke-width: 0.8; stroke-linejoin: miter; stroke-linecap: square"/>
   </g>
   <g id="patch_5">
    <path d="M 36 192.24 
L 214.56 192.24 
" style="fill: none; stroke: #000000; stroke-width: 0.8; stroke-linejoin: miter; stroke-linecap: square"/>
   </g>
   <g id="patch_6">
    <path d="M 36 25.92 
L 214.56 25.92 
" style="fill: none; stroke: #000000; stroke-width: 0.8; stroke-linejoin: miter; stroke-linecap: square"/>
   </g>
   <g id="text_13">
    <!-- Ne1Ne2-MSC-RGT-P2-S4 -->
    <g transform="translate(28.46625 10.92) scale(0.16 -0.16)">
     <defs>
      <path id="DejaVuSans-65" d="M 3597 1894 
L 3597 1613 
L 953 1613 
Q 991 1019 1311 708 
Q 1631 397 2203 397 
Q 2534 397 2845 478 
Q 3156 559 3463 722 
L 3463 178 
Q 3153 47 2828 -22 
Q 2503 -91 2169 -91 
Q 1331 -91 842 396 
Q 353 884 353 1716 
Q 353 2575 817 3079 
Q 1281 3584 2069 3584 
Q 2775 3584 3186 3129 
Q 3597 2675 3597 1894 
z
M 3022 2063 
Q 3016 2534 2758 2815 
Q 2500 3097 2075 3097 
Q 1594 3097 1305 2825 
Q 1016 2553 972 2059 
L 3022 2063 
z
" transform="scale(0.015625)"/>
      <path id="DejaVuSans-2d" d="M 313 2009 
L 1997 2009 
L 1997 1497 
L 313 1497 
L 313 2009 
z
" transform="scale(0.015625)"/>
      <path id="DejaVuSans-4d" d="M 628 4666 
L 1569 4666 
L 2759 1491 
L 3956 4666 
L 4897 4666 
L 4897 0 
L 4281 0 
L 4281 4097 
L 3078 897 
L 2444 897 
L 1241 4097 
L 1241 0 
L 628 0 
L 628 4666 
z
" transform="scale(0.015625)"/>
      <path id="DejaVuSans-53" d="M 3425 4513 
L 3425 3897 
Q 3066 4069 2747 4153 
Q 2428 4238 2131 4238 
Q 1616 4238 1336 4038 
Q 1056 3838 1056 3469 
Q 1056 3159 1242 3001 
Q 1428 2844 1947 2747 
L 2328 2669 
Q 3034 2534 3370 2195 
Q 3706 1856 3706 1288 
Q 3706 609 3251 259 
Q 2797 -91 1919 -91 
Q 1588 -91 1214 -16 
Q 841 59 441 206 
L 441 856 
Q 825 641 1194 531 
Q 1563 422 1919 422 
Q 2459 422 2753 634 
Q 3047 847 3047 1241 
Q 3047 1584 2836 1778 
Q 2625 1972 2144 2069 
L 1759 2144 
Q 1053 2284 737 2584 
Q 422 2884 422 3419 
Q 422 4038 858 4394 
Q 1294 4750 2059 4750 
Q 2388 4750 2728 4690 
Q 3069 4631 3425 4513 
z
" transform="scale(0.015625)"/>
      <path id="DejaVuSans-43" d="M 4122 4306 
L 4122 3641 
Q 3803 3938 3442 4084 
Q 3081 4231 2675 4231 
Q 1875 4231 1450 3742 
Q 1025 3253 1025 2328 
Q 1025 1406 1450 917 
Q 1875 428 2675 428 
Q 3081 428 3442 575 
Q 3803 722 4122 1019 
L 4122 359 
Q 3791 134 3420 21 
Q 3050 -91 2638 -91 
Q 1578 -91 968 557 
Q 359 1206 359 2328 
Q 359 3453 968 4101 
Q 1578 4750 2638 4750 
Q 3056 4750 3426 4639 
Q 3797 4528 4122 4306 
z
" transform="scale(0.015625)"/>
      <path id="DejaVuSans-52" d="M 2841 2188 
Q 3044 2119 3236 1894 
Q 3428 1669 3622 1275 
L 4263 0 
L 3584 0 
L 2988 1197 
Q 2756 1666 2539 1819 
Q 2322 1972 1947 1972 
L 1259 1972 
L 1259 0 
L 628 0 
L 628 4666 
L 2053 4666 
Q 2853 4666 3247 4331 
Q 3641 3997 3641 3322 
Q 3641 2881 3436 2590 
Q 3231 2300 2841 2188 
z
M 1259 4147 
L 1259 2491 
L 2053 2491 
Q 2509 2491 2742 2702 
Q 2975 2913 2975 3322 
Q 2975 3731 2742 3939 
Q 2509 4147 2053 4147 
L 1259 4147 
z
" transform="scale(0.015625)"/>
      <path id="DejaVuSans-47" d="M 3809 666 
L 3809 1919 
L 2778 1919 
L 2778 2438 
L 4434 2438 
L 4434 434 
Q 4069 175 3628 42 
Q 3188 -91 2688 -91 
Q 1594 -91 976 548 
Q 359 1188 359 2328 
Q 359 3472 976 4111 
Q 1594 4750 2688 4750 
Q 3144 4750 3555 4637 
Q 3966 4525 4313 4306 
L 4313 3634 
Q 3963 3931 3569 4081 
Q 3175 4231 2741 4231 
Q 1884 4231 1454 3753 
Q 1025 3275 1025 2328 
Q 1025 1384 1454 906 
Q 1884 428 2741 428 
Q 3075 428 3337 486 
Q 3600 544 3809 666 
z
" transform="scale(0.015625)"/>
      <path id="DejaVuSans-54" d="M -19 4666 
L 3928 4666 
L 3928 4134 
L 2272 4134 
L 2272 0 
L 1638 0 
L 1638 4134 
L -19 4134 
L -19 4666 
z
" transform="scale(0.015625)"/>
      <path id="DejaVuSans-50" d="M 1259 4147 
L 1259 2394 
L 2053 2394 
Q 2494 2394 2734 2622 
Q 2975 2850 2975 3272 
Q 2975 3691 2734 3919 
Q 2494 4147 2053 4147 
L 1259 4147 
z
M 628 4666 
L 2053 4666 
Q 2838 4666 3239 4311 
Q 3641 3956 3641 3272 
Q 3641 2581 3239 2228 
Q 2838 1875 2053 1875 
L 1259 1875 
L 1259 0 
L 628 0 
L 628 4666 
z
" transform="scale(0.015625)"/>
     </defs>
     <use xlink:href="#DejaVuSans-4e"/>
     <use xlink:href="#DejaVuSans-65" x="74.804688"/>
     <use xlink:href="#DejaVuSans-31" x="136.328125"/>
     <use xlink:href="#DejaVuSans-4e" x="199.951172"/>
     <use xlink:href="#DejaVuSans-65" x="274.755859"/>
     <use xlink:href="#DejaVuSans-32" x="336.279297"/>
     <use xlink:href="#DejaVuSans-2d" x="399.902344"/>
     <use xlink:href="#DejaVuSans-4d" x="435.986328"/>
     <use xlink:href="#DejaVuSans-53" x="522.265625"/>
     <use xlink:href="#DejaVuSans-43" x="585.742188"/>
     <use xlink:href="#DejaVuSans-2d" x="655.566406"/>
     <use xlink:href="#DejaVuSans-52" x="691.650391"/>
     <use xlink:href="#DejaVuSans-47" x="761.132812"/>
     <use xlink:href="#DejaVuSans-54" x="834.998047"/>
     <use xlink:href="#DejaVuSans-2d" x="886.957031"/>
     <use xlink:href="#DejaVuSans-50" x="923.041016"/>
     <use xlink:href="#DejaVuSans-32" x="983.34375"/>
     <use xlink:href="#DejaVuSans-2d" x="1046.966797"/>
     <use xlink:href="#DejaVuSans-53" x="1083.050781"/>
     <use xlink:href="#DejaVuSans-34" x="1146.527344"/>
    </g>
   </g>
  </g>
  <g id="axes_2">
   <g id="patch_7">
    <path d="M 225.72 192.24 
L 234.036 192.24 
L 234.036 25.92 
L 225.72 25.92 
z
" style="fill: #ffffff"/>
   </g>
   <g id="QuadMesh_1">
    <path d="M 225.72 192.24 
L 234.036 192.24 
L 234.036 181.152 
L 225.72 181.152 
L 225.72 192.24 
" clip-path="url(#pa135d80f71)" style="fill: #eae51a"/>
    <path d="M 225.72 181.152 
L 234.036 181.152 
L 234.036 170.064 
L 225.72 170.064 
L 225.72 181.152 
" clip-path="url(#pa135d80f71)" style="fill: #bddf26"/>
    <path d="M 225.72 170.064 
L 234.036 170.064 
L 234.036 158.976 
L 225.72 158.976 
L 225.72 170.064 
" clip-path="url(#pa135d80f71)" style="fill: #90d743"/>
    <path d="M 225.72 158.976 
L 234.036 158.976 
L 234.036 147.888 
L 225.72 147.888 
L 225.72 158.976 
" clip-path="url(#pa135d80f71)" style="fill: #67cc5c"/>
    <path d="M 225.72 147.888 
L 234.036 147.888 
L 234.036 136.8 
L 225.72 136.8 
L 225.72 147.888 
" clip-path="url(#pa135d80f71)" style="fill: #44bf70"/>
    <path d="M 225.72 136.8 
L 234.036 136.8 
L 234.036 125.712 
L 225.72 125.712 
L 225.72 136.8 
" clip-path="url(#pa135d80f71)" style="fill: #2ab07f"/>
    <path d="M 225.72 125.712 
L 234.036 125.712 
L 234.036 114.624 
L 225.72 114.624 
L 225.72 125.712 
" clip-path="url(#pa135d80f71)" style="fill: #1fa188"/>
    <path d="M 225.72 114.624 
L 234.036 114.624 
L 234.036 103.536 
L 225.72 103.536 
L 225.72 114.624 
" clip-path="url(#pa135d80f71)" style="fill: #21908d"/>
    <path d="M 225.72 103.536 
L 234.036 103.536 
L 234.036 92.448 
L 225.72 92.448 
L 225.72 103.536 
" clip-path="url(#pa135d80f71)" style="fill: #27808e"/>
    <path d="M 225.72 92.448 
L 234.036 92.448 
L 234.036 81.36 
L 225.72 81.36 
L 225.72 92.448 
" clip-path="url(#pa135d80f71)" style="fill: #2d708e"/>
    <path d="M 225.72 81.36 
L 234.036 81.36 
L 234.036 70.272 
L 225.72 70.272 
L 225.72 81.36 
" clip-path="url(#pa135d80f71)" style="fill: #355f8d"/>
    <path d="M 225.72 70.272 
L 234.036 70.272 
L 234.036 59.184 
L 225.72 59.184 
L 225.72 70.272 
" clip-path="url(#pa135d80f71)" style="fill: #3d4d8a"/>
    <path d="M 225.72 59.184 
L 234.036 59.184 
L 234.036 48.096 
L 225.72 48.096 
L 225.72 59.184 
" clip-path="url(#pa135d80f71)" style="fill: #443983"/>
    <path d="M 225.72 48.096 
L 234.036 48.096 
L 234.036 37.008 
L 225.72 37.008 
L 225.72 48.096 
" clip-path="url(#pa135d80f71)" style="fill: #482475"/>
    <path d="M 225.72 37.008 
L 234.036 37.008 
L 234.036 25.92 
L 225.72 25.92 
L 225.72 37.008 
" clip-path="url(#pa135d80f71)" style="fill: #470d60"/>
   </g>
   <g id="matplotlib.axis_3"/>
   <g id="matplotlib.axis_4">
    <g id="ytick_5">
     <g id="line2d_9">
      <defs>
       <path id="m94c385c778" d="M 0 0 
L 3.5 0 
" style="stroke: #000000; stroke-width: 0.8"/>
      </defs>
      <g>
       <use xlink:href="#m94c385c778" x="234.036" y="192.24" style="stroke: #000000; stroke-width: 0.8"/>
      </g>
     </g>
     <g id="text_14">
      <!-- $\mathdefault{0}$ -->
      <g transform="translate(241.036 196.039219) scale(0.1 -0.1)">
       <use xlink:href="#DejaVuSans-30" transform="translate(0 0.78125)"/>
      </g>
     </g>
    </g>
    <g id="ytick_6">
     <g id="line2d_10">
      <g>
       <use xlink:href="#m94c385c778" x="234.036" y="170.064" style="stroke: #000000; stroke-width: 0.8"/>
      </g>
     </g>
     <g id="text_15">
      <!-- $\mathdefault{120}$ -->
      <g transform="translate(241.036 173.863219) scale(0.1 -0.1)">
       <use xlink:href="#DejaVuSans-31" transform="translate(0 0.78125)"/>
       <use xlink:href="#DejaVuSans-32" transform="translate(63.623047 0.78125)"/>
       <use xlink:href="#DejaVuSans-30" transform="translate(127.246094 0.78125)"/>
      </g>
     </g>
    </g>
    <g id="ytick_7">
     <g id="line2d_11">
      <g>
       <use xlink:href="#m94c385c778" x="234.036" y="147.888" style="stroke: #000000; stroke-width: 0.8"/>
      </g>
     </g>
     <g id="text_16">
      <!-- $\mathdefault{240}$ -->
      <g transform="translate(241.036 151.687219) scale(0.1 -0.1)">
       <use xlink:href="#DejaVuSans-32" transform="translate(0 0.78125)"/>
       <use xlink:href="#DejaVuSans-34" transform="translate(63.623047 0.78125)"/>
       <use xlink:href="#DejaVuSans-30" transform="translate(127.246094 0.78125)"/>
      </g>
     </g>
    </g>
    <g id="ytick_8">
     <g id="line2d_12">
      <g>
       <use xlink:href="#m94c385c778" x="234.036" y="125.712" style="stroke: #000000; stroke-width: 0.8"/>
      </g>
     </g>
     <g id="text_17">
      <!-- $\mathdefault{360}$ -->
      <g transform="translate(241.036 129.511219) scale(0.1 -0.1)">
       <use xlink:href="#DejaVuSans-33" transform="translate(0 0.78125)"/>
       <use xlink:href="#DejaVuSans-36" transform="translate(63.623047 0.78125)"/>
       <use xlink:href="#DejaVuSans-30" transform="translate(127.246094 0.78125)"/>
      </g>
     </g>
    </g>
    <g id="ytick_9">
     <g id="line2d_13">
      <g>
       <use xlink:href="#m94c385c778" x="234.036" y="103.536" style="stroke: #000000; stroke-width: 0.8"/>
      </g>
     </g>
     <g id="text_18">
      <!-- $\mathdefault{480}$ -->
      <g transform="translate(241.036 107.335219) scale(0.1 -0.1)">
       <use xlink:href="#DejaVuSans-34" transform="translate(0 0.78125)"/>
       <use xlink:href="#DejaVuSans-38" transform="translate(63.623047 0.78125)"/>
       <use xlink:href="#DejaVuSans-30" transform="translate(127.246094 0.78125)"/>
      </g>
     </g>
    </g>
    <g id="ytick_10">
     <g id="line2d_14">
      <g>
       <use xlink:href="#m94c385c778" x="234.036" y="81.36" style="stroke: #000000; stroke-width: 0.8"/>
      </g>
     </g>
     <g id="text_19">
      <!-- $\mathdefault{600}$ -->
      <g transform="translate(241.036 85.159219) scale(0.1 -0.1)">
       <use xlink:href="#DejaVuSans-36" transform="translate(0 0.78125)"/>
       <use xlink:href="#DejaVuSans-30" transform="translate(63.623047 0.78125)"/>
       <use xlink:href="#DejaVuSans-30" transform="translate(127.246094 0.78125)"/>
      </g>
     </g>
    </g>
    <g id="ytick_11">
     <g id="line2d_15">
      <g>
       <use xlink:href="#m94c385c778" x="234.036" y="59.184" style="stroke: #000000; stroke-width: 0.8"/>
      </g>
     </g>
     <g id="text_20">
      <!-- $\mathdefault{720}$ -->
      <g transform="translate(241.036 62.983219) scale(0.1 -0.1)">
       <defs>
        <path id="DejaVuSans-37" d="M 525 4666 
L 3525 4666 
L 3525 4397 
L 1831 0 
L 1172 0 
L 2766 4134 
L 525 4134 
L 525 4666 
z
" transform="scale(0.015625)"/>
       </defs>
       <use xlink:href="#DejaVuSans-37" transform="translate(0 0.78125)"/>
       <use xlink:href="#DejaVuSans-32" transform="translate(63.623047 0.78125)"/>
       <use xlink:href="#DejaVuSans-30" transform="translate(127.246094 0.78125)"/>
      </g>
     </g>
    </g>
    <g id="ytick_12">
     <g id="line2d_16">
      <g>
       <use xlink:href="#m94c385c778" x="234.036" y="37.008" style="stroke: #000000; stroke-width: 0.8"/>
      </g>
     </g>
     <g id="text_21">
      <!-- $\mathdefault{840}$ -->
      <g transform="translate(241.036 40.807219) scale(0.1 -0.1)">
       <use xlink:href="#DejaVuSans-38" transform="translate(0 0.78125)"/>
       <use xlink:href="#DejaVuSans-34" transform="translate(63.623047 0.78125)"/>
       <use xlink:href="#DejaVuSans-30" transform="translate(127.246094 0.78125)"/>
      </g>
     </g>
    </g>
    <g id="text_22">
     <!-- $\Delta$ log likelihood -->
     <g transform="translate(273.256 154.98) rotate(-90) scale(0.12 -0.12)">
      <defs>
       <path id="DejaVuSans-394" d="M 2188 4044 
L 906 525 
L 3472 525 
L 2188 4044 
z
M 50 0 
L 1831 4666 
L 2547 4666 
L 4325 0 
L 50 0 
z
" transform="scale(0.015625)"/>
       <path id="DejaVuSans-67" d="M 2906 1791 
Q 2906 2416 2648 2759 
Q 2391 3103 1925 3103 
Q 1463 3103 1205 2759 
Q 947 2416 947 1791 
Q 947 1169 1205 825 
Q 1463 481 1925 481 
Q 2391 481 2648 825 
Q 2906 1169 2906 1791 
z
M 3481 434 
Q 3481 -459 3084 -895 
Q 2688 -1331 1869 -1331 
Q 1566 -1331 1297 -1286 
Q 1028 -1241 775 -1147 
L 775 -588 
Q 1028 -725 1275 -790 
Q 1522 -856 1778 -856 
Q 2344 -856 2625 -561 
Q 2906 -266 2906 331 
L 2906 616 
Q 2728 306 2450 153 
Q 2172 0 1784 0 
Q 1141 0 747 490 
Q 353 981 353 1791 
Q 353 2603 747 3093 
Q 1141 3584 1784 3584 
Q 2172 3584 2450 3431 
Q 2728 3278 2906 2969 
L 2906 3500 
L 3481 3500 
L 3481 434 
z
" transform="scale(0.015625)"/>
       <path id="DejaVuSans-6b" d="M 581 4863 
L 1159 4863 
L 1159 1991 
L 2875 3500 
L 3609 3500 
L 1753 1863 
L 3688 0 
L 2938 0 
L 1159 1709 
L 1159 0 
L 581 0 
L 581 4863 
z
" transform="scale(0.015625)"/>
       <path id="DejaVuSans-68" d="M 3513 2113 
L 3513 0 
L 2938 0 
L 2938 2094 
Q 2938 2591 2744 2837 
Q 2550 3084 2163 3084 
Q 1697 3084 1428 2787 
Q 1159 2491 1159 1978 
L 1159 0 
L 581 0 
L 581 4863 
L 1159 4863 
L 1159 2956 
Q 1366 3272 1645 3428 
Q 1925 3584 2291 3584 
Q 2894 3584 3203 3211 
Q 3513 2838 3513 2113 
z
" transform="scale(0.015625)"/>
      </defs>
      <use xlink:href="#DejaVuSans-394" transform="translate(0 0.015625)"/>
      <use xlink:href="#DejaVuSans-20" transform="translate(68.408203 0.015625)"/>
      <use xlink:href="#DejaVuSans-6c" transform="translate(100.195312 0.015625)"/>
      <use xlink:href="#DejaVuSans-6f" transform="translate(127.978516 0.015625)"/>
      <use xlink:href="#DejaVuSans-67" transform="translate(189.160156 0.015625)"/>
      <use xlink:href="#DejaVuSans-20" transform="translate(252.636719 0.015625)"/>
      <use xlink:href="#DejaVuSans-6c" transform="translate(284.423828 0.015625)"/>
      <use xlink:href="#DejaVuSans-69" transform="translate(312.207031 0.015625)"/>
      <use xlink:href="#DejaVuSans-6b" transform="translate(339.990234 0.015625)"/>
      <use xlink:href="#DejaVuSans-65" transform="translate(397.900391 0.015625)"/>
      <use xlink:href="#DejaVuSans-6c" transform="translate(459.423828 0.015625)"/>
      <use xlink:href="#DejaVuSans-69" transform="translate(487.207031 0.015625)"/>
      <use xlink:href="#DejaVuSans-68" transform="translate(514.990234 0.015625)"/>
      <use xlink:href="#DejaVuSans-6f" transform="translate(578.369141 0.015625)"/>
      <use xlink:href="#DejaVuSans-6f" transform="translate(639.550781 0.015625)"/>
      <use xlink:href="#DejaVuSans-64" transform="translate(700.732422 0.015625)"/>
     </g>
    </g>
    <g id="text_23">
     <!-- $\times\mathdefault{10^{3}}\mathdefault{}$ -->
     <g transform="translate(208.036 22.92) scale(0.1 -0.1)">
      <use xlink:href="#DejaVuSans-d7" transform="translate(0 0.765625)"/>
      <use xlink:href="#DejaVuSans-31" transform="translate(83.789062 0.765625)"/>
      <use xlink:href="#DejaVuSans-30" transform="translate(147.412109 0.765625)"/>
      <use xlink:href="#DejaVuSans-33" transform="translate(211.992188 39.046875) scale(0.7)"/>
     </g>
    </g>
   </g>
   <g id="LineCollection_1"/>
   <g id="patch_8">
    <path d="M 225.72 192.24 
L 229.878 192.24 
L 234.036 192.24 
L 234.036 25.92 
L 229.878 25.92 
L 225.72 25.92 
L 225.72 192.24 
z
" style="fill: none; stroke: #000000; stroke-width: 0.8; stroke-linejoin: miter; stroke-linecap: square"/>
   </g>
  </g>
 </g>
 <defs>
  <clipPath id="p33be66ea85">
   <rect x="36" y="25.92" width="178.56" height="166.32"/>
  </clipPath>
  <clipPath id="pa135d80f71">
   <rect x="225.72" y="25.92" width="8.316" height="166.32"/>
  </clipPath>
 </defs>
</svg>
