<?xml version="1.0" encoding="utf-8" standalone="no"?>
<!DOCTYPE svg PUBLIC "-//W3C//DTD SVG 1.1//EN"
  "http://www.w3.org/Graphics/SVG/1.1/DTD/svg11.dtd">
<svg xmlns:xlink="http://www.w3.org/1999/xlink" width="288pt" height="216pt" viewBox="0 0 288 216" xmlns="http://www.w3.org/2000/svg" version="1.1">
 <metadata>
  <rdf:RDF xmlns:dc="http://purl.org/dc/elements/1.1/" xmlns:cc="http://creativecommons.org/ns#" xmlns:rdf="http://www.w3.org/1999/02/22-rdf-syntax-ns#">
   <cc:Work>
    <dc:type rdf:resource="http://purl.org/dc/dcmitype/StillImage"/>
    <dc:date>2024-12-14T16:49:58.212739</dc:date>
    <dc:format>image/svg+xml</dc:format>
    <dc:creator>
     <cc:Agent>
      <dc:title>Matplotlib v3.8.4, https://matplotlib.org/</dc:title>
     </cc:Agent>
    </dc:creator>
   </cc:Work>
  </rdf:RDF>
 </metadata>
 <defs>
  <style type="text/css">*{stroke-linejoin: round; stroke-linecap: butt}</style>
 </defs>
 <g id="figure_1">
  <g id="patch_1">
   <path d="M 0 216 
L 288 216 
L 288 0 
L 0 0 
z
" style="fill: #ffffff"/>
  </g>
  <g id="axes_1">
   <g id="patch_2">
    <path d="M 36 192.24 
L 214.56 192.24 
L 214.56 25.92 
L 36 25.92 
z
" style="fill: #ffffff"/>
   </g>
   <g id="QuadContourSet_1">
    <path d="M 71.287078 131.256 
L 71.207247 125.712 
L 71.438456 120.168 
L 71.712 116.896085 
L 72.092305 114.624 
L 73.370125 109.08 
L 74.912254 103.536 
L 76.654282 97.992 
L 77.664 95.034617 
L 80.083248 92.448 
L 83.616 88.883708 
L 89.568 89.723481 
L 92.552868 92.448 
L 95.52 95.318076 
L 97.273826 97.992 
L 100.620396 103.536 
L 101.472 105.129658 
L 103.159193 109.08 
L 105.121207 114.624 
L 106.546036 120.168 
L 107.256789 125.712 
L 107.011382 131.256 
L 105.472185 136.8 
L 102.157694 142.344 
L 101.472 142.999998 
L 95.52 147.551161 
L 94.825666 147.888 
L 89.568 149.47021 
L 83.616 149.747075 
L 78.027046 147.888 
L 77.664 147.693325 
L 74.022381 142.344 
L 71.86372 136.8 
L 71.712 135.960921 
z
" clip-path="url(#p9ff53b1eba)" style="fill: #e7e419"/>
    <path d="M 70.188204 147.888 
L 68.303094 142.344 
L 67.224886 136.8 
L 66.724184 131.256 
L 66.644353 125.712 
L 66.875561 120.168 
L 67.33906 114.624 
L 67.977305 109.08 
L 68.747568 103.536 
L 69.617675 97.992 
L 70.563114 92.448 
L 71.565017 86.904 
L 71.712 86.123253 
L 73.507328 81.36 
L 75.657688 75.816 
L 77.664 70.744076 
L 78.175556 70.272 
L 83.616 65.315609 
L 89.568 66.073895 
L 94.661512 70.272 
L 95.52 70.988733 
L 99.188361 75.816 
L 101.472 78.880747 
L 102.948526 81.36 
L 106.156979 86.904 
L 107.424 89.184695 
L 109.01709 92.448 
L 111.571051 97.992 
L 113.376 102.249306 
L 113.879883 103.536 
L 115.801842 109.08 
L 117.394391 114.624 
L 118.550911 120.168 
L 119.127824 125.712 
L 118.928629 131.256 
L 117.679277 136.8 
L 114.988934 142.344 
L 113.376 144.245069 
L 110.029855 147.888 
L 107.424 149.647843 
L 101.472 153.180102 
L 100.940934 153.432 
L 95.52 155.081078 
L 89.568 156.229825 
L 83.616 156.40739 
L 77.664 155.137636 
L 74.745401 153.432 
L 71.712 150.667912 
z
M 71.712 135.960921 
L 71.86372 136.8 
L 74.022381 142.344 
L 77.664 147.693325 
L 78.027046 147.888 
L 83.616 149.747075 
L 89.568 149.47021 
L 94.825666 147.888 
L 95.52 147.551161 
L 101.472 142.999998 
L 102.157694 142.344 
L 105.472185 136.8 
L 107.011382 131.256 
L 107.256789 125.712 
L 106.546036 120.168 
L 105.121207 114.624 
L 103.159193 109.08 
L 101.472 105.129658 
L 100.620396 103.536 
L 97.273826 97.992 
L 95.52 95.318076 
L 92.552868 92.448 
L 89.568 89.723481 
L 83.616 88.883708 
L 80.083248 92.448 
L 77.664 95.034617 
L 76.654282 97.992 
L 74.912254 103.536 
L 73.370125 109.08 
L 72.092305 114.624 
L 71.712 116.896085 
L 71.438456 120.168 
L 71.207247 125.712 
L 71.287078 131.256 
z
" clip-path="url(#p9ff53b1eba)" style="fill: #b8de29"/>
    <path d="M 65.686311 147.888 
L 64.654971 142.344 
L 64.065085 136.8 
L 63.791152 131.256 
L 63.747476 125.712 
L 63.87397 120.168 
L 64.127549 114.624 
L 64.476732 109.08 
L 64.898141 103.536 
L 65.374176 97.992 
L 65.76 93.856634 
L 66.00022 92.448 
L 67.002122 86.904 
L 68.045835 81.36 
L 69.119896 75.816 
L 70.215282 70.272 
L 71.324851 64.728 
L 71.712 62.808318 
L 73.175383 59.184 
L 75.421859 53.64 
L 77.664 48.108577 
L 77.677965 48.096 
L 83.616 42.736419 
L 89.568 43.487678 
L 95.211519 48.096 
L 95.52 48.347334 
L 99.641406 53.64 
L 101.472 55.991628 
L 103.458207 59.184 
L 106.895268 64.728 
L 107.424 65.58739 
L 109.956707 70.272 
L 112.915724 75.816 
L 113.376 76.695493 
L 115.630845 81.36 
L 118.235118 86.904 
L 119.328 89.327628 
L 120.666904 92.448 
L 122.91169 97.992 
L 124.977612 103.536 
L 125.28 104.45266 
L 126.760574 109.08 
L 128.230417 114.624 
L 129.297827 120.168 
L 129.830288 125.712 
L 129.646441 131.256 
L 128.493352 136.8 
L 126.010301 142.344 
L 125.28 143.276621 
L 121.557066 147.888 
L 119.328 149.600719 
L 114.087833 153.432 
L 113.376 153.765785 
L 107.424 156.343748 
L 101.472 158.609136 
L 100.266027 158.976 
L 95.52 159.908118 
L 89.568 160.649766 
L 83.616 160.764405 
L 77.664 159.944633 
L 75.096718 158.976 
L 71.712 156.997962 
L 68.664228 153.432 
L 65.76 148.133721 
z
M 71.712 150.667912 
L 74.745401 153.432 
L 77.664 155.137636 
L 83.616 156.40739 
L 89.568 156.229825 
L 95.52 155.081078 
L 100.940934 153.432 
L 101.472 153.180102 
L 107.424 149.647843 
L 110.029855 147.888 
L 113.376 144.245069 
L 114.988934 142.344 
L 117.679277 136.8 
L 118.928629 131.256 
L 119.127824 125.712 
L 118.550911 120.168 
L 117.394391 114.624 
L 115.801842 109.08 
L 113.879883 103.536 
L 113.376 102.249306 
L 111.571051 97.992 
L 109.01709 92.448 
L 107.424 89.184695 
L 106.156979 86.904 
L 102.948526 81.36 
L 101.472 78.880747 
L 99.188361 75.816 
L 95.52 70.988733 
L 94.661512 70.272 
L 89.568 66.073895 
L 83.616 65.315609 
L 78.175556 70.272 
L 77.664 70.744076 
L 75.657688 75.816 
L 73.507328 81.36 
L 71.712 86.123253 
L 71.565017 86.904 
L 70.563114 92.448 
L 69.617675 97.992 
L 68.747568 103.536 
L 67.977305 109.08 
L 67.33906 114.624 
L 66.875561 120.168 
L 66.644353 125.712 
L 66.724184 131.256 
L 67.224886 136.8 
L 68.303094 142.344 
L 70.188204 147.888 
z
" clip-path="url(#p9ff53b1eba)" style="fill: #89d548"/>
    <path d="M 64.852546 153.432 
L 63.189959 147.888 
L 62.158619 142.344 
L 61.568733 136.8 
L 61.2948 131.256 
L 61.251124 125.712 
L 61.377618 120.168 
L 61.631198 114.624 
L 61.98038 109.08 
L 62.40179 103.536 
L 62.877824 97.992 
L 63.395072 92.448 
L 63.943211 86.904 
L 64.514225 81.36 
L 65.101842 75.816 
L 65.701125 70.272 
L 65.76 69.734308 
L 66.761956 64.728 
L 67.880035 59.184 
L 69.002105 53.64 
L 70.124555 48.096 
L 71.244502 42.552 
L 71.712 40.227799 
L 73.008634 37.008 
L 75.227939 31.464 
L 77.431025 25.92 
L 77.664 25.92 
L 83.616 25.92 
L 89.568 25.92 
L 95.52 25.92 
L 95.781642 25.92 
L 100.013942 31.464 
L 101.472 33.35999 
L 103.71424 37.008 
L 107.142266 42.552 
L 107.424 43.005681 
L 110.201792 48.096 
L 113.23392 53.64 
L 113.376 53.899871 
L 116.044549 59.184 
L 118.83438 64.728 
L 119.328 65.716454 
L 121.492774 70.272 
L 124.09358 75.816 
L 125.28 78.395239 
L 126.602753 81.36 
L 129.006365 86.904 
L 131.232 92.251718 
L 131.312266 92.448 
L 133.451623 97.992 
L 135.420517 103.536 
L 137.16348 109.08 
L 137.184 109.158772 
L 138.595683 114.624 
L 139.635634 120.168 
L 140.154397 125.712 
L 139.97528 131.256 
L 138.851855 136.8 
L 137.184 140.622209 
L 136.426279 142.344 
L 132.160621 147.888 
L 131.232 148.636674 
L 125.28 153.351697 
L 125.175488 153.432 
L 119.328 156.313525 
L 113.649986 158.976 
L 113.376 159.058945 
L 107.424 160.723316 
L 101.472 162.185885 
L 95.52 163.354856 
L 89.568 164.096504 
L 83.616 164.211143 
L 77.664 163.391371 
L 71.712 161.145687 
L 68.839704 158.976 
L 65.76 155.372678 
z
M 65.76 148.133721 
L 68.664228 153.432 
L 71.712 156.997962 
L 75.096718 158.976 
L 77.664 159.944633 
L 83.616 160.764405 
L 89.568 160.649766 
L 95.52 159.908118 
L 100.266027 158.976 
L 101.472 158.609136 
L 107.424 156.343748 
L 113.376 153.765785 
L 114.087833 153.432 
L 119.328 149.600719 
L 121.557066 147.888 
L 125.28 143.276621 
L 126.010301 142.344 
L 128.493352 136.8 
L 129.646441 131.256 
L 129.830288 125.712 
L 129.297827 120.168 
L 128.230417 114.624 
L 126.760574 109.08 
L 125.28 104.45266 
L 124.977612 103.536 
L 122.91169 97.992 
L 120.666904 92.448 
L 119.328 89.327628 
L 118.235118 86.904 
L 115.630845 81.36 
L 113.376 76.695493 
L 112.915724 75.816 
L 109.956707 70.272 
L 107.424 65.58739 
L 106.895268 64.728 
L 103.458207 59.184 
L 101.472 55.991628 
L 99.641406 53.64 
L 95.52 48.347334 
L 95.211519 48.096 
L 89.568 43.487678 
L 83.616 42.736419 
L 77.677965 48.096 
L 77.664 48.108577 
L 75.421859 53.64 
L 73.175383 59.184 
L 71.712 62.808318 
L 71.324851 64.728 
L 70.215282 70.272 
L 69.119896 75.816 
L 68.045835 81.36 
L 67.002122 86.904 
L 66.00022 92.448 
L 65.76 93.856634 
L 65.374176 97.992 
L 64.898141 103.536 
L 64.476732 109.08 
L 64.127549 114.624 
L 63.87397 120.168 
L 63.747476 125.712 
L 63.791152 131.256 
L 64.065085 136.8 
L 64.654971 142.344 
L 65.686311 147.888 
z
" clip-path="url(#p9ff53b1eba)" style="fill: #5cc863"/>
    <path d="M 59.72705 142.344 
L 59.399385 136.8 
L 59.247222 131.256 
L 59.222962 125.712 
L 59.293225 120.168 
L 59.434082 114.624 
L 59.628043 109.08 
L 59.808 104.817881 
L 59.905438 103.536 
L 60.381472 97.992 
L 60.89872 92.448 
L 61.446859 86.904 
L 62.017873 81.36 
L 62.60549 75.816 
L 63.204773 70.272 
L 63.811817 64.728 
L 64.423516 59.184 
L 65.037398 53.64 
L 65.651489 48.096 
L 65.76 47.114172 
L 66.681607 42.552 
L 67.796748 37.008 
L 68.905245 31.464 
L 70.005642 25.92 
L 71.712 25.92 
L 77.431025 25.92 
L 75.227939 31.464 
L 73.008634 37.008 
L 71.712 40.227799 
L 71.244502 42.552 
L 70.124555 48.096 
L 69.002105 53.64 
L 67.880035 59.184 
L 66.761956 64.728 
L 65.76 69.734308 
L 65.701125 70.272 
L 65.101842 75.816 
L 64.514225 81.36 
L 63.943211 86.904 
L 63.395072 92.448 
L 62.877824 97.992 
L 62.40179 103.536 
L 61.98038 109.08 
L 61.631198 114.624 
L 61.377618 120.168 
L 61.251124 125.712 
L 61.2948 131.256 
L 61.568733 136.8 
L 62.158619 142.344 
L 63.189959 147.888 
L 64.852546 153.432 
L 65.76 155.372678 
L 68.839704 158.976 
L 71.712 161.145687 
L 77.664 163.391371 
L 83.616 164.211143 
L 89.568 164.096504 
L 95.52 163.354856 
L 101.472 162.185885 
L 107.424 160.723316 
L 113.376 159.058945 
L 113.649986 158.976 
L 119.328 156.313525 
L 125.175488 153.432 
L 125.28 153.351697 
L 131.232 148.636674 
L 132.160621 147.888 
L 136.426279 142.344 
L 137.184 140.622209 
L 138.851855 136.8 
L 139.97528 131.256 
L 140.154397 125.712 
L 139.635634 120.168 
L 138.595683 114.624 
L 137.184 109.158772 
L 137.16348 109.08 
L 135.420517 103.536 
L 133.451623 97.992 
L 131.312266 92.448 
L 131.232 92.251718 
L 129.006365 86.904 
L 126.602753 81.36 
L 125.28 78.395239 
L 124.09358 75.816 
L 121.492774 70.272 
L 119.328 65.716454 
L 118.83438 64.728 
L 116.044549 59.184 
L 113.376 53.899871 
L 113.23392 53.64 
L 110.201792 48.096 
L 107.424 43.005681 
L 107.142266 42.552 
L 103.71424 37.008 
L 101.472 33.35999 
L 100.013942 31.464 
L 95.781642 25.92 
L 101.472 25.92 
L 107.424 25.92 
L 110.523016 25.92 
L 113.376 31.240993 
L 113.486446 31.464 
L 116.252369 37.008 
L 119.034866 42.552 
L 119.328 43.13355 
L 121.708189 48.096 
L 124.373256 53.64 
L 125.28 55.526892 
L 126.984581 59.184 
L 129.559454 64.728 
L 131.232 68.356806 
L 132.099348 70.272 
L 134.578004 75.816 
L 137.008408 81.36 
L 137.184 81.772189 
L 139.35167 86.904 
L 141.599638 92.448 
L 143.136 96.463305 
L 143.719793 97.992 
L 145.668292 103.536 
L 147.3932 109.08 
L 148.822473 114.624 
L 149.088 116.042264 
L 149.86266 120.168 
L 150.381925 125.712 
L 150.202635 131.256 
L 149.088 136.751299 
L 149.07815 136.8 
L 146.663636 142.344 
L 143.136 146.976795 
L 142.440825 147.888 
L 137.184 152.16228 
L 135.609099 153.432 
L 131.232 155.695243 
L 125.28 158.719188 
L 124.75885 158.976 
L 119.328 160.703804 
L 113.376 162.505683 
L 107.424 164.170054 
L 105.999877 164.52 
L 101.472 165.228424 
L 95.52 165.972725 
L 89.568 166.444944 
L 83.616 166.517936 
L 77.664 165.995975 
L 71.712 164.566114 
L 71.616122 164.52 
L 65.76 160.096379 
L 64.948549 158.976 
L 62.356195 153.432 
L 60.693607 147.888 
L 59.808 143.127391 
z
" clip-path="url(#p9ff53b1eba)" style="fill: #3aba76"/>
    <path d="M 58.913276 147.888 
L 58.340396 142.344 
L 58.012731 136.8 
L 57.860568 131.256 
L 57.836308 125.712 
L 57.906572 120.168 
L 58.047428 114.624 
L 58.241389 109.08 
L 58.47547 103.536 
L 58.739894 97.992 
L 59.027211 92.448 
L 59.331687 86.904 
L 59.648869 81.36 
L 59.808 78.657156 
L 60.109138 75.816 
L 60.708422 70.272 
L 61.315465 64.728 
L 61.927164 59.184 
L 62.541047 53.64 
L 63.155137 48.096 
L 63.767858 42.552 
L 64.377949 37.008 
L 64.984407 31.464 
L 65.586432 25.92 
L 65.76 25.92 
L 70.005642 25.92 
L 68.905245 31.464 
L 67.796748 37.008 
L 66.681607 42.552 
L 65.76 47.114172 
L 65.651489 48.096 
L 65.037398 53.64 
L 64.423516 59.184 
L 63.811817 64.728 
L 63.204773 70.272 
L 62.60549 75.816 
L 62.017873 81.36 
L 61.446859 86.904 
L 60.89872 92.448 
L 60.381472 97.992 
L 59.905438 103.536 
L 59.808 104.817881 
L 59.628043 109.08 
L 59.434082 114.624 
L 59.293225 120.168 
L 59.222962 125.712 
L 59.247222 131.256 
L 59.399385 136.8 
L 59.72705 142.344 
L 59.808 143.127391 
L 60.693607 147.888 
L 62.356195 153.432 
L 64.948549 158.976 
L 65.76 160.096379 
L 71.616122 164.52 
L 71.712 164.566114 
L 77.664 165.995975 
L 83.616 166.517936 
L 89.568 166.444944 
L 95.52 165.972725 
L 101.472 165.228424 
L 105.999877 164.52 
L 107.424 164.170054 
L 113.376 162.505683 
L 119.328 160.703804 
L 124.75885 158.976 
L 125.28 158.719188 
L 131.232 155.695243 
L 135.609099 153.432 
L 137.184 152.16228 
L 142.440825 147.888 
L 143.136 146.976795 
L 146.663636 142.344 
L 149.07815 136.8 
L 149.088 136.751299 
L 150.202635 131.256 
L 150.381925 125.712 
L 149.86266 120.168 
L 149.088 116.042264 
L 148.822473 114.624 
L 147.3932 109.08 
L 145.668292 103.536 
L 143.719793 97.992 
L 143.136 96.463305 
L 141.599638 92.448 
L 139.35167 86.904 
L 137.184 81.772189 
L 137.008408 81.36 
L 134.578004 75.816 
L 132.099348 70.272 
L 131.232 68.356806 
L 129.559454 64.728 
L 126.984581 59.184 
L 125.28 55.526892 
L 124.373256 53.64 
L 121.708189 48.096 
L 119.328 43.13355 
L 119.034866 42.552 
L 116.252369 37.008 
L 113.486446 31.464 
L 113.376 31.240993 
L 110.523016 25.92 
L 113.376 25.92 
L 119.328 25.92 
L 121.990527 25.92 
L 124.603232 31.464 
L 125.28 32.889564 
L 127.176388 37.008 
L 129.744493 42.552 
L 131.232 45.749435 
L 132.304646 48.096 
L 134.844545 53.64 
L 137.184 58.748209 
L 137.381897 59.184 
L 139.890531 64.728 
L 142.38007 70.272 
L 143.136 71.977193 
L 144.834507 75.816 
L 147.239735 81.36 
L 149.088 85.744084 
L 149.578421 86.904 
L 151.828565 92.448 
L 153.951899 97.992 
L 155.04 101.078987 
L 155.911692 103.536 
L 157.652876 109.08 
L 159.095634 114.624 
L 160.143376 120.168 
L 160.666025 125.712 
L 160.485566 131.256 
L 159.353724 136.8 
L 156.916428 142.344 
L 155.04 144.785252 
L 152.670566 147.888 
L 149.088 150.798138 
L 145.854921 153.432 
L 143.136 154.852573 
L 137.184 157.956364 
L 135.21203 158.976 
L 131.232 160.304632 
L 125.28 162.256936 
L 119.328 164.150542 
L 118.1076 164.52 
L 113.376 165.432044 
L 107.424 166.491775 
L 101.472 167.423014 
L 95.52 168.167316 
L 89.568 168.639534 
L 83.616 168.712526 
L 77.664 168.190565 
L 71.712 166.760704 
L 67.053227 164.52 
L 65.76 163.543117 
L 62.452197 158.976 
L 59.859843 153.432 
L 59.808 153.259127 
z
" clip-path="url(#p9ff53b1eba)" style="fill: #24aa83"/>
    <path d="M 58.450143 153.432 
L 57.526623 147.888 
L 56.953742 142.344 
L 56.626077 136.8 
L 56.473915 131.256 
L 56.449654 125.712 
L 56.519918 120.168 
L 56.660774 114.624 
L 56.854735 109.08 
L 57.088817 103.536 
L 57.35324 97.992 
L 57.640557 92.448 
L 57.945033 86.904 
L 58.262215 81.36 
L 58.58862 75.816 
L 58.921505 70.272 
L 59.258701 64.728 
L 59.598483 59.184 
L 59.808 55.777603 
L 60.044695 53.64 
L 60.658785 48.096 
L 61.271506 42.552 
L 61.881598 37.008 
L 62.488055 31.464 
L 63.09008 25.92 
L 65.586432 25.92 
L 64.984407 31.464 
L 64.377949 37.008 
L 63.767858 42.552 
L 63.155137 48.096 
L 62.541047 53.64 
L 61.927164 59.184 
L 61.315465 64.728 
L 60.708422 70.272 
L 60.109138 75.816 
L 59.808 78.657156 
L 59.648869 81.36 
L 59.331687 86.904 
L 59.027211 92.448 
L 58.739894 97.992 
L 58.47547 103.536 
L 58.241389 109.08 
L 58.047428 114.624 
L 57.906572 120.168 
L 57.836308 125.712 
L 57.860568 131.256 
L 58.012731 136.8 
L 58.340396 142.344 
L 58.913276 147.888 
L 59.808 153.259127 
L 59.859843 153.432 
L 62.452197 158.976 
L 65.76 163.543117 
L 67.053227 164.52 
L 71.712 166.760704 
L 77.664 168.190565 
L 83.616 168.712526 
L 89.568 168.639534 
L 95.52 168.167316 
L 101.472 167.423014 
L 107.424 166.491775 
L 113.376 165.432044 
L 118.1076 164.52 
L 119.328 164.150542 
L 125.28 162.256936 
L 131.232 160.304632 
L 135.21203 158.976 
L 137.184 157.956364 
L 143.136 154.852573 
L 145.854921 153.432 
L 149.088 150.798138 
L 152.670566 147.888 
L 155.04 144.785252 
L 156.916428 142.344 
L 159.353724 136.8 
L 160.485566 131.256 
L 160.666025 125.712 
L 160.143376 120.168 
L 159.095634 114.624 
L 157.652876 109.08 
L 155.911692 103.536 
L 155.04 101.078987 
L 153.951899 97.992 
L 151.828565 92.448 
L 149.578421 86.904 
L 149.088 85.744084 
L 147.239735 81.36 
L 144.834507 75.816 
L 143.136 71.977193 
L 142.38007 70.272 
L 139.890531 64.728 
L 137.381897 59.184 
L 137.184 58.748209 
L 134.844545 53.64 
L 132.304646 48.096 
L 131.232 45.749435 
L 129.744493 42.552 
L 127.176388 37.008 
L 125.28 32.889564 
L 124.603232 31.464 
L 121.990527 25.92 
L 125.28 25.92 
L 131.232 25.92 
L 132.573723 25.92 
L 135.06372 31.464 
L 137.184 36.150321 
L 137.56877 37.008 
L 140.070809 42.552 
L 142.583633 48.096 
L 143.136 49.31196 
L 145.098287 53.64 
L 147.611024 59.184 
L 149.088 62.454368 
L 150.117804 64.728 
L 152.609752 70.272 
L 155.04 75.748741 
L 155.07004 75.816 
L 157.497963 81.36 
L 159.857284 86.904 
L 160.992 89.681659 
L 162.132551 92.448 
L 164.289504 97.992 
L 166.274593 103.536 
L 166.944 105.647874 
L 168.04423 109.08 
L 169.516855 114.624 
L 170.586287 120.168 
L 171.119756 125.712 
L 170.935561 131.256 
L 169.780288 136.8 
L 167.292536 142.344 
L 166.944 142.788253 
L 162.987884 147.888 
L 160.992 149.483998 
L 156.100082 153.432 
L 155.04 153.980691 
L 149.088 157.081481 
L 145.461964 158.976 
L 143.136 159.760591 
L 137.184 161.764446 
L 131.232 163.75137 
L 128.888673 164.52 
L 125.28 165.273663 
L 119.328 166.479351 
L 113.376 167.626634 
L 107.424 168.686365 
L 101.472 169.617604 
L 97.902281 170.064 
L 95.52 170.247123 
L 89.568 170.537396 
L 83.616 170.582265 
L 77.664 170.261415 
L 76.327145 170.064 
L 71.712 168.955294 
L 65.76 166.092594 
L 63.971171 164.52 
L 59.955845 158.976 
L 59.808 158.659818 
z
" clip-path="url(#p9ff53b1eba)" style="fill: #1f998a"/>
    <path d="M 58.50347 158.976 
L 57.06349 153.432 
L 56.139969 147.888 
L 55.567088 142.344 
L 55.239423 136.8 
L 55.087261 131.256 
L 55.063 125.712 
L 55.133264 120.168 
L 55.27412 114.624 
L 55.468082 109.08 
L 55.702163 103.536 
L 55.966586 97.992 
L 56.253903 92.448 
L 56.558379 86.904 
L 56.875562 81.36 
L 57.201966 75.816 
L 57.534852 70.272 
L 57.872047 64.728 
L 58.211829 59.184 
L 58.552824 53.64 
L 58.893934 48.096 
L 59.234283 42.552 
L 59.573172 37.008 
L 59.808 33.143345 
L 59.991703 31.464 
L 60.593729 25.92 
L 63.09008 25.92 
L 62.488055 31.464 
L 61.881598 37.008 
L 61.271506 42.552 
L 60.658785 48.096 
L 60.044695 53.64 
L 59.808 55.777603 
L 59.598483 59.184 
L 59.258701 64.728 
L 58.921505 70.272 
L 58.58862 75.816 
L 58.262215 81.36 
L 57.945033 86.904 
L 57.640557 92.448 
L 57.35324 97.992 
L 57.088817 103.536 
L 56.854735 109.08 
L 56.660774 114.624 
L 56.519918 120.168 
L 56.449654 125.712 
L 56.473915 131.256 
L 56.626077 136.8 
L 56.953742 142.344 
L 57.526623 147.888 
L 58.450143 153.432 
L 59.808 158.659818 
L 59.955845 158.976 
L 63.971171 164.52 
L 65.76 166.092594 
L 71.712 168.955294 
L 76.327145 170.064 
L 77.664 170.261415 
L 83.616 170.582265 
L 89.568 170.537396 
L 95.52 170.247123 
L 97.902281 170.064 
L 101.472 169.617604 
L 107.424 168.686365 
L 113.376 167.626634 
L 119.328 166.479351 
L 125.28 165.273663 
L 128.888673 164.52 
L 131.232 163.75137 
L 137.184 161.764446 
L 143.136 159.760591 
L 145.461964 158.976 
L 149.088 157.081481 
L 155.04 153.980691 
L 156.100082 153.432 
L 160.992 149.483998 
L 162.987884 147.888 
L 166.944 142.788253 
L 167.292536 142.344 
L 169.780288 136.8 
L 170.935561 131.256 
L 171.119756 125.712 
L 170.586287 120.168 
L 169.516855 114.624 
L 168.04423 109.08 
L 166.944 105.647874 
L 166.274593 103.536 
L 164.289504 97.992 
L 162.132551 92.448 
L 160.992 89.681659 
L 159.857284 86.904 
L 157.497963 81.36 
L 155.07004 75.816 
L 155.04 75.748741 
L 152.609752 70.272 
L 150.117804 64.728 
L 149.088 62.454368 
L 147.611024 59.184 
L 145.098287 53.64 
L 143.136 49.31196 
L 142.583633 48.096 
L 140.070809 42.552 
L 137.56877 37.008 
L 137.184 36.150321 
L 135.06372 31.464 
L 132.573723 25.92 
L 137.184 25.92 
L 142.850437 25.92 
L 143.136 26.561226 
L 145.315192 31.464 
L 147.797537 37.008 
L 149.088 39.872916 
L 150.298256 42.552 
L 152.813512 48.096 
L 155.04 52.992567 
L 155.336309 53.64 
L 157.872755 59.184 
L 160.400182 64.728 
L 160.992 66.036131 
L 162.926107 70.272 
L 165.425151 75.816 
L 166.944 79.252386 
L 167.88611 81.36 
L 170.294273 86.904 
L 172.605966 92.448 
L 172.896 93.185113 
L 174.811847 97.992 
L 176.845417 103.536 
L 178.645635 109.08 
L 178.848 109.832115 
L 180.155558 114.624 
L 181.254155 120.168 
L 181.802173 125.712 
L 181.612955 131.256 
L 180.426175 136.8 
L 178.848 140.223623 
L 177.884218 142.344 
L 173.478436 147.888 
L 172.896 148.342638 
L 166.944 153.048752 
L 166.464727 153.432 
L 160.992 156.238668 
L 155.703418 158.976 
L 155.04 159.197692 
L 149.088 161.199608 
L 143.136 163.207329 
L 139.237005 164.52 
L 137.184 164.960087 
L 131.232 166.225192 
L 125.28 167.468253 
L 119.328 168.673941 
L 113.376 169.821225 
L 112.012446 170.064 
L 107.424 170.566183 
L 101.472 171.138617 
L 95.52 171.59614 
L 89.568 171.886413 
L 83.616 171.931281 
L 77.664 171.610431 
L 71.712 170.731494 
L 69.454277 170.064 
L 65.76 168.287184 
L 61.474819 164.52 
L 59.808 162.218606 
z
" clip-path="url(#p9ff53b1eba)" style="fill: #24878e"/>
    <path d="M 53.853227 136.8 
L 53.725492 131.256 
L 53.705631 125.712 
L 53.763528 120.168 
L 53.856 115.862497 
L 53.887466 114.624 
L 54.081428 109.08 
L 54.315509 103.536 
L 54.579933 97.992 
L 54.86725 92.448 
L 55.171726 86.904 
L 55.488908 81.36 
L 55.815313 75.816 
L 56.148198 70.272 
L 56.485393 64.728 
L 56.825175 59.184 
L 57.16617 53.64 
L 57.50728 48.096 
L 57.847629 42.552 
L 58.186518 37.008 
L 58.523388 31.464 
L 58.857797 25.92 
L 59.808 25.92 
L 60.593729 25.92 
L 59.991703 31.464 
L 59.808 33.143345 
L 59.573172 37.008 
L 59.234283 42.552 
L 58.893934 48.096 
L 58.552824 53.64 
L 58.211829 59.184 
L 57.872047 64.728 
L 57.534852 70.272 
L 57.201966 75.816 
L 56.875562 81.36 
L 56.558379 86.904 
L 56.253903 92.448 
L 55.966586 97.992 
L 55.702163 103.536 
L 55.468082 109.08 
L 55.27412 114.624 
L 55.133264 120.168 
L 55.063 125.712 
L 55.087261 131.256 
L 55.239423 136.8 
L 55.567088 142.344 
L 56.139969 147.888 
L 57.06349 153.432 
L 58.50347 158.976 
L 59.808 162.218606 
L 61.474819 164.52 
L 65.76 168.287184 
L 69.454277 170.064 
L 71.712 170.731494 
L 77.664 171.610431 
L 83.616 171.931281 
L 89.568 171.886413 
L 95.52 171.59614 
L 101.472 171.138617 
L 107.424 170.566183 
L 112.012446 170.064 
L 113.376 169.821225 
L 119.328 168.673941 
L 125.28 167.468253 
L 131.232 166.225192 
L 137.184 164.960087 
L 139.237005 164.52 
L 143.136 163.207329 
L 149.088 161.199608 
L 155.04 159.197692 
L 155.703418 158.976 
L 160.992 156.238668 
L 166.464727 153.432 
L 166.944 153.048752 
L 172.896 148.342638 
L 173.478436 147.888 
L 177.884218 142.344 
L 178.848 140.223623 
L 180.426175 136.8 
L 181.612955 131.256 
L 181.802173 125.712 
L 181.254155 120.168 
L 180.155558 114.624 
L 178.848 109.832115 
L 178.645635 109.08 
L 176.845417 103.536 
L 174.811847 97.992 
L 172.896 93.185113 
L 172.605966 92.448 
L 170.294273 86.904 
L 167.88611 81.36 
L 166.944 79.252386 
L 165.425151 75.816 
L 162.926107 70.272 
L 160.992 66.036131 
L 160.400182 64.728 
L 157.872755 59.184 
L 155.336309 53.64 
L 155.04 52.992567 
L 152.813512 48.096 
L 150.298256 42.552 
L 149.088 39.872916 
L 147.797537 37.008 
L 145.315192 31.464 
L 143.136 26.561226 
L 142.850437 25.92 
L 143.136 25.92 
L 149.088 25.92 
L 153.080574 25.92 
L 155.04 30.315597 
L 155.55526 31.464 
L 158.061028 37.008 
L 160.581811 42.552 
L 160.992 43.450265 
L 163.133094 48.096 
L 165.693884 53.64 
L 166.944 56.347365 
L 168.268661 59.184 
L 170.848409 64.728 
L 172.896 69.16212 
L 173.415151 70.272 
L 175.975229 75.816 
L 178.48547 81.36 
L 178.848 82.183947 
L 180.954177 86.904 
L 183.328915 92.448 
L 184.8 96.087462 
L 185.581432 97.992 
L 187.674889 103.536 
L 189.528122 109.08 
L 190.752 113.498579 
L 191.068644 114.624 
L 192.201411 120.168 
L 192.766473 125.712 
L 192.57137 131.256 
L 191.347679 136.8 
L 190.752 138.053258 
L 188.744282 142.344 
L 184.8 147.165291 
L 184.217539 147.888 
L 178.848 152.020862 
L 177.040195 153.432 
L 172.896 155.506665 
L 166.944 158.524896 
L 166.064391 158.976 
L 160.992 160.655475 
L 155.04 162.644429 
L 149.463645 164.52 
L 149.088 164.600446 
L 143.136 165.878793 
L 137.184 167.154677 
L 131.232 168.419782 
L 125.28 169.662844 
L 123.299651 170.064 
L 119.328 170.558546 
L 113.376 171.263783 
L 107.424 171.9152 
L 101.472 172.487634 
L 95.52 172.945157 
L 89.568 173.23543 
L 83.616 173.280298 
L 77.664 172.959448 
L 71.712 172.080511 
L 65.76 170.320806 
L 65.284781 170.064 
L 59.808 165.249258 
L 59.347218 164.52 
L 57.116816 158.976 
L 55.676836 153.432 
L 54.753315 147.888 
L 54.180434 142.344 
L 53.856 136.854662 
z
" clip-path="url(#p9ff53b1eba)" style="fill: #2a768e"/>
    <path d="M 53.373328 147.888 
L 52.899098 142.344 
L 52.663081 136.8 
L 52.5609 131.256 
L 52.545012 125.712 
L 52.591326 120.168 
L 52.687013 114.624 
L 52.825352 109.08 
L 53.003349 103.536 
L 53.220565 97.992 
L 53.478584 92.448 
L 53.780825 86.904 
L 53.856 85.664252 
L 54.102254 81.36 
L 54.428659 75.816 
L 54.761544 70.272 
L 55.09874 64.728 
L 55.438522 59.184 
L 55.779516 53.64 
L 56.120626 48.096 
L 56.460976 42.552 
L 56.799864 37.008 
L 57.136734 31.464 
L 57.471143 25.92 
L 58.857797 25.92 
L 58.523388 31.464 
L 58.186518 37.008 
L 57.847629 42.552 
L 57.50728 48.096 
L 57.16617 53.64 
L 56.825175 59.184 
L 56.485393 64.728 
L 56.148198 70.272 
L 55.815313 75.816 
L 55.488908 81.36 
L 55.171726 86.904 
L 54.86725 92.448 
L 54.579933 97.992 
L 54.315509 103.536 
L 54.081428 109.08 
L 53.887466 114.624 
L 53.856 115.862497 
L 53.763528 120.168 
L 53.705631 125.712 
L 53.725492 131.256 
L 53.853227 136.8 
L 53.856 136.854662 
L 54.180434 142.344 
L 54.753315 147.888 
L 55.676836 153.432 
L 57.116816 158.976 
L 59.347218 164.52 
L 59.808 165.249258 
L 65.284781 170.064 
L 65.76 170.320806 
L 71.712 172.080511 
L 77.664 172.959448 
L 83.616 173.280298 
L 89.568 173.23543 
L 95.52 172.945157 
L 101.472 172.487634 
L 107.424 171.9152 
L 113.376 171.263783 
L 119.328 170.558546 
L 123.299651 170.064 
L 125.28 169.662844 
L 131.232 168.419782 
L 137.184 167.154677 
L 143.136 165.878793 
L 149.088 164.600446 
L 149.463645 164.52 
L 155.04 162.644429 
L 160.992 160.655475 
L 166.064391 158.976 
L 166.944 158.524896 
L 172.896 155.506665 
L 177.040195 153.432 
L 178.848 152.020862 
L 184.217539 147.888 
L 184.8 147.165291 
L 188.744282 142.344 
L 190.752 138.053258 
L 191.347679 136.8 
L 192.57137 131.256 
L 192.766473 125.712 
L 192.201411 120.168 
L 191.068644 114.624 
L 190.752 113.498579 
L 189.528122 109.08 
L 187.674889 103.536 
L 185.581432 97.992 
L 184.8 96.087462 
L 183.328915 92.448 
L 180.954177 86.904 
L 178.848 82.183947 
L 178.48547 81.36 
L 175.975229 75.816 
L 173.415151 70.272 
L 172.896 69.16212 
L 170.848409 64.728 
L 168.268661 59.184 
L 166.944 56.347365 
L 165.693884 53.64 
L 163.133094 48.096 
L 160.992 43.450265 
L 160.581811 42.552 
L 158.061028 37.008 
L 155.55526 31.464 
L 155.04 30.315597 
L 153.080574 25.92 
L 155.04 25.92 
L 160.992 25.92 
L 163.404384 25.92 
L 165.914862 31.464 
L 166.944 33.720083 
L 168.460831 37.008 
L 171.033798 42.552 
L 172.896 46.547286 
L 173.627192 48.096 
L 176.250526 53.64 
L 178.848 59.131214 
L 178.873322 59.184 
L 181.523426 64.728 
L 184.153358 70.272 
L 184.8 71.652799 
L 186.779075 75.816 
L 189.36324 81.36 
L 190.752 84.426042 
L 191.892103 86.904 
L 194.340702 92.448 
L 196.651308 97.992 
L 196.704 98.129374 
L 198.811622 103.536 
L 200.724801 109.08 
L 202.310076 114.624 
L 202.656 116.289862 
L 203.474753 120.168 
L 204.058613 125.712 
L 203.85702 131.256 
L 202.656 136.522099 
L 202.59366 136.8 
L 199.915607 142.344 
L 196.704 146.1467 
L 195.256965 147.888 
L 190.752 151.250818 
L 187.875403 153.432 
L 184.8 154.927564 
L 178.848 157.865667 
L 176.630082 158.976 
L 172.896 160.182883 
L 166.944 162.131498 
L 160.992 164.102213 
L 159.74176 164.52 
L 155.04 165.520386 
L 149.088 166.795037 
L 143.136 168.073383 
L 137.184 169.349267 
L 133.821363 170.064 
L 131.232 170.402314 
L 125.28 171.166426 
L 119.328 171.907563 
L 113.376 172.612799 
L 107.424 173.264217 
L 101.472 173.836651 
L 95.52 174.294174 
L 89.568 174.584447 
L 83.616 174.629315 
L 77.664 174.308465 
L 71.712 173.429528 
L 65.76 171.669823 
L 62.788429 170.064 
L 59.808 167.443848 
L 57.960564 164.52 
L 55.730163 158.976 
L 54.290182 153.432 
L 53.856 150.825556 
z
" clip-path="url(#p9ff53b1eba)" style="fill: #32658e"/>
    <path d="M 52.746733 153.432 
L 52.005564 147.888 
L 51.64993 142.344 
L 51.472935 136.8 
L 51.396307 131.256 
L 51.384393 125.712 
L 51.419125 120.168 
L 51.490882 114.624 
L 51.594626 109.08 
L 51.728109 103.536 
L 51.891004 97.992 
L 52.084498 92.448 
L 52.311155 86.904 
L 52.574974 81.36 
L 52.881604 75.816 
L 53.238762 70.272 
L 53.656894 64.728 
L 53.856 62.379846 
L 54.051868 59.184 
L 54.392862 53.64 
L 54.733972 48.096 
L 55.074322 42.552 
L 55.413211 37.008 
L 55.750081 31.464 
L 56.084489 25.92 
L 57.471143 25.92 
L 57.136734 31.464 
L 56.799864 37.008 
L 56.460976 42.552 
L 56.120626 48.096 
L 55.779516 53.64 
L 55.438522 59.184 
L 55.09874 64.728 
L 54.761544 70.272 
L 54.428659 75.816 
L 54.102254 81.36 
L 53.856 85.664252 
L 53.780825 86.904 
L 53.478584 92.448 
L 53.220565 97.992 
L 53.003349 103.536 
L 52.825352 109.08 
L 52.687013 114.624 
L 52.591326 120.168 
L 52.545012 125.712 
L 52.5609 131.256 
L 52.663081 136.8 
L 52.899098 142.344 
L 53.373328 147.888 
L 53.856 150.825556 
L 54.290182 153.432 
L 55.730163 158.976 
L 57.960564 164.52 
L 59.808 167.443848 
L 62.788429 170.064 
L 65.76 171.669823 
L 71.712 173.429528 
L 77.664 174.308465 
L 83.616 174.629315 
L 89.568 174.584447 
L 95.52 174.294174 
L 101.472 173.836651 
L 107.424 173.264217 
L 113.376 172.612799 
L 119.328 171.907563 
L 125.28 171.166426 
L 131.232 170.402314 
L 133.821363 170.064 
L 137.184 169.349267 
L 143.136 168.073383 
L 149.088 166.795037 
L 155.04 165.520386 
L 159.74176 164.52 
L 160.992 164.102213 
L 166.944 162.131498 
L 172.896 160.182883 
L 176.630082 158.976 
L 178.848 157.865667 
L 184.8 154.927564 
L 187.875403 153.432 
L 190.752 151.250818 
L 195.256965 147.888 
L 196.704 146.1467 
L 199.915607 142.344 
L 202.59366 136.8 
L 202.656 136.522099 
L 203.85702 131.256 
L 204.058613 125.712 
L 203.474753 120.168 
L 202.656 116.289862 
L 202.310076 114.624 
L 200.724801 109.08 
L 198.811622 103.536 
L 196.704 98.129374 
L 196.651308 97.992 
L 194.340702 92.448 
L 191.892103 86.904 
L 190.752 84.426042 
L 189.36324 81.36 
L 186.779075 75.816 
L 184.8 71.652799 
L 184.153358 70.272 
L 181.523426 64.728 
L 178.873322 59.184 
L 178.848 59.131214 
L 176.250526 53.64 
L 173.627192 48.096 
L 172.896 46.547286 
L 171.033798 42.552 
L 168.460831 37.008 
L 166.944 33.720083 
L 165.914862 31.464 
L 163.404384 25.92 
L 166.944 25.92 
L 172.896 25.92 
L 173.905109 25.92 
L 176.476901 31.464 
L 178.848 36.538015 
L 179.070734 37.008 
L 181.713871 42.552 
L 184.368401 48.096 
L 184.8 48.995388 
L 187.062479 53.64 
L 189.76215 59.184 
L 190.752 61.223993 
L 192.479057 64.728 
L 195.190787 70.272 
L 196.704 73.405748 
L 197.886832 75.816 
L 200.554586 81.36 
L 202.656 85.854038 
L 203.155156 86.904 
L 205.685211 92.448 
L 208.072683 97.992 
L 208.608 99.342692 
L 210.298105 103.536 
L 212.276196 109.08 
L 213.915256 114.624 
L 214.56 117.626995 
L 214.56 120.168 
L 214.56 125.712 
L 214.56 131.256 
L 214.56 135.28432 
L 214.208463 136.8 
L 211.439546 142.344 
L 208.608 145.586671 
L 206.631955 147.888 
L 202.656 150.760374 
L 199.018622 153.432 
L 196.704 154.522329 
L 190.752 157.371804 
L 187.453212 158.976 
L 184.8 159.809007 
L 178.848 161.70589 
L 172.896 163.629621 
L 170.176357 164.52 
L 166.944 165.193795 
L 160.992 166.448579 
L 155.04 167.714976 
L 149.088 168.989627 
L 144.085703 170.064 
L 143.136 170.230667 
L 137.184 171.081799 
L 131.232 171.751331 
L 125.28 172.515442 
L 119.328 173.25658 
L 113.376 173.961816 
L 107.424 174.613234 
L 101.472 175.185668 
L 95.977799 175.608 
L 95.52 175.655811 
L 89.568 176.020823 
L 83.616 176.072961 
L 77.664 175.674994 
L 77.328918 175.608 
L 71.712 174.778545 
L 65.76 173.01884 
L 60.292077 170.064 
L 59.808 169.638438 
L 56.57391 164.52 
L 54.343509 158.976 
L 53.856 157.099066 
z
" clip-path="url(#p9ff53b1eba)" style="fill: #3b518b"/>
    <path d="M 52.398047 158.976 
L 51.131809 153.432 
L 50.637801 147.888 
L 50.400761 142.344 
L 50.28279 136.8 
L 50.231715 131.256 
L 50.223774 125.712 
L 50.246924 120.168 
L 50.294751 114.624 
L 50.3639 109.08 
L 50.45287 103.536 
L 50.561444 97.992 
L 50.690412 92.448 
L 50.841485 86.904 
L 51.017327 81.36 
L 51.221704 75.816 
L 51.45976 70.272 
L 51.738456 64.728 
L 52.067271 59.184 
L 52.459294 53.64 
L 52.932997 48.096 
L 53.515201 42.552 
L 53.856 39.798198 
L 54.026557 37.008 
L 54.363427 31.464 
L 54.697835 25.92 
L 56.084489 25.92 
L 55.750081 31.464 
L 55.413211 37.008 
L 55.074322 42.552 
L 54.733972 48.096 
L 54.392862 53.64 
L 54.051868 59.184 
L 53.856 62.379846 
L 53.656894 64.728 
L 53.238762 70.272 
L 52.881604 75.816 
L 52.574974 81.36 
L 52.311155 86.904 
L 52.084498 92.448 
L 51.891004 97.992 
L 51.728109 103.536 
L 51.594626 109.08 
L 51.490882 114.624 
L 51.419125 120.168 
L 51.384393 125.712 
L 51.396307 131.256 
L 51.472935 136.8 
L 51.64993 142.344 
L 52.005564 147.888 
L 52.746733 153.432 
L 53.856 157.099066 
L 54.343509 158.976 
L 56.57391 164.52 
L 59.808 169.638438 
L 60.292077 170.064 
L 65.76 173.01884 
L 71.712 174.778545 
L 77.328918 175.608 
L 77.664 175.674994 
L 83.616 176.072961 
L 89.568 176.020823 
L 95.52 175.655811 
L 95.977799 175.608 
L 101.472 175.185668 
L 107.424 174.613234 
L 113.376 173.961816 
L 119.328 173.25658 
L 125.28 172.515442 
L 131.232 171.751331 
L 137.184 171.081799 
L 143.136 170.230667 
L 144.085703 170.064 
L 149.088 168.989627 
L 155.04 167.714976 
L 160.992 166.448579 
L 166.944 165.193795 
L 170.176357 164.52 
L 172.896 163.629621 
L 178.848 161.70589 
L 184.8 159.809007 
L 187.453212 158.976 
L 190.752 157.371804 
L 196.704 154.522329 
L 199.018622 153.432 
L 202.656 150.760374 
L 206.631955 147.888 
L 208.608 145.586671 
L 211.439546 142.344 
L 214.208463 136.8 
L 214.56 135.28432 
L 214.56 136.8 
L 214.56 142.344 
L 214.56 147.888 
L 214.56 150.556433 
L 210.512128 153.432 
L 208.608 154.299527 
L 202.656 157.057262 
L 198.582775 158.976 
L 196.704 159.547381 
L 190.752 161.387045 
L 184.8 163.255745 
L 180.833046 164.52 
L 178.848 164.986286 
L 172.896 166.147672 
L 166.944 167.388385 
L 160.992 168.643169 
L 155.04 169.909566 
L 154.31887 170.064 
L 149.088 171.19182 
L 143.136 172.023865 
L 137.184 172.591167 
L 131.232 173.100348 
L 125.28 173.864459 
L 119.328 174.605597 
L 113.376 175.310833 
L 110.660786 175.608 
L 107.424 176.2518 
L 101.472 177.026028 
L 95.52 177.488645 
L 89.568 177.731935 
L 83.616 177.766687 
L 77.664 177.501431 
L 71.712 176.503692 
L 69.954642 175.608 
L 65.76 174.367857 
L 59.808 171.657305 
L 58.097438 170.064 
L 55.187256 164.52 
L 53.856 161.210961 
z
M 176.476901 31.464 
L 173.905109 25.92 
L 178.848 25.92 
L 184.65025 25.92 
L 184.8 26.23831 
L 187.29552 31.464 
L 189.962539 37.008 
L 190.752 38.639298 
L 192.675425 42.552 
L 195.412519 48.096 
L 196.704 50.70607 
L 198.179402 53.64 
L 200.9664 59.184 
L 202.656 62.557009 
L 203.761636 64.728 
L 206.563576 70.272 
L 208.608 74.369535 
L 209.341938 75.816 
L 212.100205 81.36 
L 214.56 86.447841 
L 214.56 86.904 
L 214.56 92.448 
L 214.56 97.992 
L 214.56 103.536 
L 214.56 109.08 
L 214.56 114.624 
L 214.56 117.626995 
L 213.915256 114.624 
L 212.276196 109.08 
L 210.298105 103.536 
L 208.608 99.342692 
L 208.072683 97.992 
L 205.685211 92.448 
L 203.155156 86.904 
L 202.656 85.854038 
L 200.554586 81.36 
L 197.886832 75.816 
L 196.704 73.405748 
L 195.190787 70.272 
L 192.479057 64.728 
L 190.752 61.223993 
L 189.76215 59.184 
L 187.062479 53.64 
L 184.8 48.995388 
L 184.368401 48.096 
L 181.713871 42.552 
L 179.070734 37.008 
L 178.848 36.538015 
z
" clip-path="url(#p9ff53b1eba)" style="fill: #433d84"/>
    <path d="M 53.627072 164.52 
L 50.149605 158.976 
L 49.516886 153.432 
L 49.270037 147.888 
L 49.151592 142.344 
L 49.092644 136.8 
L 49.067123 131.256 
L 49.063154 125.712 
L 49.074722 120.168 
L 49.098621 114.624 
L 49.133173 109.08 
L 49.17763 103.536 
L 49.231883 97.992 
L 49.296326 92.448 
L 49.371815 86.904 
L 49.459681 81.36 
L 49.561805 75.816 
L 49.680757 70.272 
L 49.820017 64.728 
L 49.984321 59.184 
L 50.180209 53.64 
L 50.416911 48.096 
L 50.707829 42.552 
L 51.073144 37.008 
L 51.544668 31.464 
L 52.175571 25.92 
L 53.856 25.92 
L 54.697835 25.92 
L 54.363427 31.464 
L 54.026557 37.008 
L 53.856 39.798198 
L 53.515201 42.552 
L 52.932997 48.096 
L 52.459294 53.64 
L 52.067271 59.184 
L 51.738456 64.728 
L 51.45976 70.272 
L 51.221704 75.816 
L 51.017327 81.36 
L 50.841485 86.904 
L 50.690412 92.448 
L 50.561444 97.992 
L 50.45287 103.536 
L 50.3639 109.08 
L 50.294751 114.624 
L 50.246924 120.168 
L 50.223774 125.712 
L 50.231715 131.256 
L 50.28279 136.8 
L 50.400761 142.344 
L 50.637801 147.888 
L 51.131809 153.432 
L 52.398047 158.976 
L 53.856 161.210961 
L 55.187256 164.52 
L 58.097438 170.064 
L 59.808 171.657305 
L 65.76 174.367857 
L 69.954642 175.608 
L 71.712 176.503692 
L 77.664 177.501431 
L 83.616 177.766687 
L 89.568 177.731935 
L 95.52 177.488645 
L 101.472 177.026028 
L 107.424 176.2518 
L 110.660786 175.608 
L 113.376 175.310833 
L 119.328 174.605597 
L 125.28 173.864459 
L 131.232 173.100348 
L 137.184 172.591167 
L 143.136 172.023865 
L 149.088 171.19182 
L 154.31887 170.064 
L 155.04 169.909566 
L 160.992 168.643169 
L 166.944 167.388385 
L 172.896 166.147672 
L 178.848 164.986286 
L 180.833046 164.52 
L 184.8 163.255745 
L 190.752 161.387045 
L 196.704 159.547381 
L 198.582775 158.976 
L 202.656 157.057262 
L 208.608 154.299527 
L 210.512128 153.432 
L 214.56 150.556433 
L 214.56 153.432 
L 214.56 156.926466 
L 210.061493 158.976 
L 208.608 159.588483 
L 202.656 161.183972 
L 196.704 162.994119 
L 191.767204 164.52 
L 190.752 164.983134 
L 184.8 166.671104 
L 178.848 167.526746 
L 172.896 168.342263 
L 166.944 169.582975 
L 164.662286 170.064 
L 160.992 171.510504 
L 155.04 172.736658 
L 149.088 173.401304 
L 143.136 173.817064 
L 137.184 174.100536 
L 131.232 174.449365 
L 125.28 175.213476 
L 122.111619 175.608 
L 119.328 176.74242 
L 113.376 178.03862 
L 107.424 178.703447 
L 101.472 179.090317 
L 95.52 179.321479 
L 89.568 179.443047 
L 83.616 179.460412 
L 77.664 179.327868 
L 71.712 178.829314 
L 65.76 176.022504 
L 65.314991 175.608 
L 59.808 173.6339 
L 55.97538 170.064 
L 53.856 164.733235 
z
M 184.65025 25.92 
L 184.8 25.92 
L 190.752 25.92 
L 195.703135 25.92 
L 196.704 27.983275 
L 198.419982 31.464 
L 201.173271 37.008 
L 202.656 39.975828 
L 203.964536 42.552 
L 206.792684 48.096 
L 208.608 51.646617 
L 209.644435 53.64 
L 212.525992 59.184 
L 214.56 63.111316 
L 214.56 64.728 
L 214.56 70.272 
L 214.56 75.816 
L 214.56 81.36 
L 214.56 86.447841 
L 212.100205 81.36 
L 209.341938 75.816 
L 208.608 74.369535 
L 206.563576 70.272 
L 203.761636 64.728 
L 202.656 62.557009 
L 200.9664 59.184 
L 198.179402 53.64 
L 196.704 50.70607 
L 195.412519 48.096 
L 192.675425 42.552 
L 190.752 38.639298 
L 189.962539 37.008 
L 187.29552 31.464 
L 184.8 26.23831 
z
" clip-path="url(#p9ff53b1eba)" style="fill: #482677"/>
    <path d="M 36 186.696 
L 36 181.152 
L 36 175.608 
L 36 170.064 
L 36 164.52 
L 36 158.976 
L 36 153.432 
L 36 147.888 
L 36 142.344 
L 36 136.8 
L 36 131.256 
L 36 125.712 
L 36 120.168 
L 36 114.624 
L 36 109.08 
L 36 103.536 
L 36 97.992 
L 36 92.448 
L 36 86.904 
L 36 81.36 
L 36 75.816 
L 36 70.272 
L 36 64.728 
L 36 59.184 
L 36 53.64 
L 36 48.096 
L 36 42.552 
L 36 37.008 
L 36 31.464 
L 36 25.92 
L 41.952 25.92 
L 47.904 25.92 
L 52.175571 25.92 
L 51.544668 31.464 
L 51.073144 37.008 
L 50.707829 42.552 
L 50.416911 48.096 
L 50.180209 53.64 
L 49.984321 59.184 
L 49.820017 64.728 
L 49.680757 70.272 
L 49.561805 75.816 
L 49.459681 81.36 
L 49.371815 86.904 
L 49.296326 92.448 
L 49.231883 97.992 
L 49.17763 103.536 
L 49.133173 109.08 
L 49.098621 114.624 
L 49.074722 120.168 
L 49.063154 125.712 
L 49.067123 131.256 
L 49.092644 136.8 
L 49.151592 142.344 
L 49.270037 147.888 
L 49.516886 153.432 
L 50.149605 158.976 
L 53.627072 164.52 
L 53.856 164.733235 
L 55.97538 170.064 
L 59.808 173.6339 
L 65.314991 175.608 
L 65.76 176.022504 
L 71.712 178.829314 
L 77.664 179.327868 
L 83.616 179.460412 
L 89.568 179.443047 
L 95.52 179.321479 
L 101.472 179.090317 
L 107.424 178.703447 
L 113.376 178.03862 
L 119.328 176.74242 
L 122.111619 175.608 
L 125.28 175.213476 
L 131.232 174.449365 
L 137.184 174.100536 
L 143.136 173.817064 
L 149.088 173.401304 
L 155.04 172.736658 
L 160.992 171.510504 
L 164.662286 170.064 
L 166.944 169.582975 
L 172.896 168.342263 
L 178.848 167.526746 
L 184.8 166.671104 
L 190.752 164.983134 
L 191.767204 164.52 
L 196.704 162.994119 
L 202.656 161.183972 
L 208.608 159.588483 
L 210.061493 158.976 
L 214.56 156.926466 
L 214.56 158.976 
L 214.56 164.52 
L 214.56 170.064 
L 214.56 175.608 
L 214.56 181.152 
L 214.56 186.696 
L 214.56 192.24 
L 208.608 192.24 
L 202.656 192.24 
L 196.704 192.24 
L 190.752 192.24 
L 184.8 192.24 
L 178.848 192.24 
L 172.896 192.24 
L 166.944 192.24 
L 160.992 192.24 
L 155.04 192.24 
L 149.088 192.24 
L 143.136 192.24 
L 137.184 192.24 
L 131.232 192.24 
L 125.28 192.24 
L 119.328 192.24 
L 113.376 192.24 
L 107.424 192.24 
L 101.472 192.24 
L 95.52 192.24 
L 89.568 192.24 
L 83.616 192.24 
L 77.664 192.24 
L 71.712 192.24 
L 65.76 192.24 
L 59.808 192.24 
L 53.856 192.24 
L 47.904 192.24 
L 41.952 192.24 
L 36 192.24 
z
M 195.703135 25.92 
L 196.704 25.92 
L 202.656 25.92 
L 208.608 25.92 
L 214.56 25.92 
L 214.56 31.464 
L 214.56 37.008 
L 214.56 42.552 
L 214.56 48.096 
L 214.56 53.64 
L 214.56 59.184 
L 214.56 63.111316 
L 212.525992 59.184 
L 209.644435 53.64 
L 208.608 51.646617 
L 206.792684 48.096 
L 203.964536 42.552 
L 202.656 39.975828 
L 201.173271 37.008 
L 198.419982 31.464 
L 196.704 27.983275 
z
" clip-path="url(#p9ff53b1eba)" style="fill: #470e61"/>
   </g>
   <g id="PathCollection_1">
    <defs>
     <path id="m16c11b3e11" d="M -4.743416 4.743416 
L 4.743416 -4.743416 
M -4.743416 -4.743416 
L 4.743416 4.743416 
" style="stroke: #ffffff; stroke-width: 5"/>
    </defs>
    <g clip-path="url(#p9ff53b1eba)">
     <use xlink:href="#m16c11b3e11" x="85.6" y="127.56" style="fill: #ffffff; stroke: #ffffff; stroke-width: 5"/>
    </g>
   </g>
   <g id="PathCollection_2">
    <defs>
     <path id="me0974e6521" d="M -4.330127 4.330127 
L 4.330127 -4.330127 
M -4.330127 -4.330127 
L 4.330127 4.330127 
" style="stroke: #000000; stroke-width: 2"/>
    </defs>
    <g clip-path="url(#p9ff53b1eba)">
     <use xlink:href="#me0974e6521" x="85.6" y="127.56" style="stroke: #000000; stroke-width: 2"/>
    </g>
   </g>
   <g id="matplotlib.axis_1">
    <g id="xtick_1">
     <g id="line2d_1">
      <defs>
       <path id="m87cd50e4c3" d="M 0 0 
L 0 6 
" style="stroke: #000000; stroke-width: 2"/>
      </defs>
      <g>
       <use xlink:href="#m87cd50e4c3" x="65.76" y="192.24" style="stroke: #000000; stroke-width: 2"/>
      </g>
     </g>
     <g id="text_1">
      <!-- $\mathdefault{200}$ -->
      <g transform="translate(52.39 212.377813) scale(0.14 -0.14)">
       <defs>
        <path id="DejaVuSans-32" d="M 1228 531 
L 3431 531 
L 3431 0 
L 469 0 
L 469 531 
Q 828 903 1448 1529 
Q 2069 2156 2228 2338 
Q 2531 2678 2651 2914 
Q 2772 3150 2772 3378 
Q 2772 3750 2511 3984 
Q 2250 4219 1831 4219 
Q 1534 4219 1204 4116 
Q 875 4013 500 3803 
L 500 4441 
Q 881 4594 1212 4672 
Q 1544 4750 1819 4750 
Q 2544 4750 2975 4387 
Q 3406 4025 3406 3419 
Q 3406 3131 3298 2873 
Q 3191 2616 2906 2266 
Q 2828 2175 2409 1742 
Q 1991 1309 1228 531 
z
" transform="scale(0.015625)"/>
        <path id="DejaVuSans-30" d="M 2034 4250 
Q 1547 4250 1301 3770 
Q 1056 3291 1056 2328 
Q 1056 1369 1301 889 
Q 1547 409 2034 409 
Q 2525 409 2770 889 
Q 3016 1369 3016 2328 
Q 3016 3291 2770 3770 
Q 2525 4250 2034 4250 
z
M 2034 4750 
Q 2819 4750 3233 4129 
Q 3647 3509 3647 2328 
Q 3647 1150 3233 529 
Q 2819 -91 2034 -91 
Q 1250 -91 836 529 
Q 422 1150 422 2328 
Q 422 3509 836 4129 
Q 1250 4750 2034 4750 
z
" transform="scale(0.015625)"/>
       </defs>
       <use xlink:href="#DejaVuSans-32" transform="translate(0 0.78125)"/>
       <use xlink:href="#DejaVuSans-30" transform="translate(63.623047 0.78125)"/>
       <use xlink:href="#DejaVuSans-30" transform="translate(127.246094 0.78125)"/>
      </g>
     </g>
    </g>
    <g id="xtick_2">
     <g id="line2d_2">
      <g>
       <use xlink:href="#m87cd50e4c3" x="105.44" y="192.24" style="stroke: #000000; stroke-width: 2"/>
      </g>
     </g>
     <g id="text_2">
      <!-- $\mathdefault{400}$ -->
      <g transform="translate(92.07 212.377813) scale(0.14 -0.14)">
       <defs>
        <path id="DejaVuSans-34" d="M 2419 4116 
L 825 1625 
L 2419 1625 
L 2419 4116 
z
M 2253 4666 
L 3047 4666 
L 3047 1625 
L 3713 1625 
L 3713 1100 
L 3047 1100 
L 3047 0 
L 2419 0 
L 2419 1100 
L 313 1100 
L 313 1709 
L 2253 4666 
z
" transform="scale(0.015625)"/>
       </defs>
       <use xlink:href="#DejaVuSans-34" transform="translate(0 0.78125)"/>
       <use xlink:href="#DejaVuSans-30" transform="translate(63.623047 0.78125)"/>
       <use xlink:href="#DejaVuSans-30" transform="translate(127.246094 0.78125)"/>
      </g>
     </g>
    </g>
    <g id="xtick_3">
     <g id="line2d_3">
      <g>
       <use xlink:href="#m87cd50e4c3" x="145.12" y="192.24" style="stroke: #000000; stroke-width: 2"/>
      </g>
     </g>
     <g id="text_3">
      <!-- $\mathdefault{600}$ -->
      <g transform="translate(131.75 212.377813) scale(0.14 -0.14)">
       <defs>
        <path id="DejaVuSans-36" d="M 2113 2584 
Q 1688 2584 1439 2293 
Q 1191 2003 1191 1497 
Q 1191 994 1439 701 
Q 1688 409 2113 409 
Q 2538 409 2786 701 
Q 3034 994 3034 1497 
Q 3034 2003 2786 2293 
Q 2538 2584 2113 2584 
z
M 3366 4563 
L 3366 3988 
Q 3128 4100 2886 4159 
Q 2644 4219 2406 4219 
Q 1781 4219 1451 3797 
Q 1122 3375 1075 2522 
Q 1259 2794 1537 2939 
Q 1816 3084 2150 3084 
Q 2853 3084 3261 2657 
Q 3669 2231 3669 1497 
Q 3669 778 3244 343 
Q 2819 -91 2113 -91 
Q 1303 -91 875 529 
Q 447 1150 447 2328 
Q 447 3434 972 4092 
Q 1497 4750 2381 4750 
Q 2619 4750 2861 4703 
Q 3103 4656 3366 4563 
z
" transform="scale(0.015625)"/>
       </defs>
       <use xlink:href="#DejaVuSans-36" transform="translate(0 0.78125)"/>
       <use xlink:href="#DejaVuSans-30" transform="translate(63.623047 0.78125)"/>
       <use xlink:href="#DejaVuSans-30" transform="translate(127.246094 0.78125)"/>
      </g>
     </g>
    </g>
    <g id="xtick_4">
     <g id="line2d_4">
      <g>
       <use xlink:href="#m87cd50e4c3" x="184.8" y="192.24" style="stroke: #000000; stroke-width: 2"/>
      </g>
     </g>
     <g id="text_4">
      <!-- $\mathdefault{800}$ -->
      <g transform="translate(171.43 212.377813) scale(0.14 -0.14)">
       <defs>
        <path id="DejaVuSans-38" d="M 2034 2216 
Q 1584 2216 1326 1975 
Q 1069 1734 1069 1313 
Q 1069 891 1326 650 
Q 1584 409 2034 409 
Q 2484 409 2743 651 
Q 3003 894 3003 1313 
Q 3003 1734 2745 1975 
Q 2488 2216 2034 2216 
z
M 1403 2484 
Q 997 2584 770 2862 
Q 544 3141 544 3541 
Q 544 4100 942 4425 
Q 1341 4750 2034 4750 
Q 2731 4750 3128 4425 
Q 3525 4100 3525 3541 
Q 3525 3141 3298 2862 
Q 3072 2584 2669 2484 
Q 3125 2378 3379 2068 
Q 3634 1759 3634 1313 
Q 3634 634 3220 271 
Q 2806 -91 2034 -91 
Q 1263 -91 848 271 
Q 434 634 434 1313 
Q 434 1759 690 2068 
Q 947 2378 1403 2484 
z
M 1172 3481 
Q 1172 3119 1398 2916 
Q 1625 2713 2034 2713 
Q 2441 2713 2670 2916 
Q 2900 3119 2900 3481 
Q 2900 3844 2670 4047 
Q 2441 4250 2034 4250 
Q 1625 4250 1398 4047 
Q 1172 3844 1172 3481 
z
" transform="scale(0.015625)"/>
       </defs>
       <use xlink:href="#DejaVuSans-38" transform="translate(0 0.78125)"/>
       <use xlink:href="#DejaVuSans-30" transform="translate(63.623047 0.78125)"/>
       <use xlink:href="#DejaVuSans-30" transform="translate(127.246094 0.78125)"/>
      </g>
     </g>
    </g>
    <g id="text_5">
     <!-- Diploid N$_e$1 -->
     <g transform="translate(74.34 232.969375) scale(0.18 -0.18)">
      <defs>
       <path id="DejaVuSans-44" d="M 1259 4147 
L 1259 519 
L 2022 519 
Q 2988 519 3436 956 
Q 3884 1394 3884 2338 
Q 3884 3275 3436 3711 
Q 2988 4147 2022 4147 
L 1259 4147 
z
M 628 4666 
L 1925 4666 
Q 3281 4666 3915 4102 
Q 4550 3538 4550 2338 
Q 4550 1131 3912 565 
Q 3275 0 1925 0 
L 628 0 
L 628 4666 
z
" transform="scale(0.015625)"/>
       <path id="DejaVuSans-69" d="M 603 3500 
L 1178 3500 
L 1178 0 
L 603 0 
L 603 3500 
z
M 603 4863 
L 1178 4863 
L 1178 4134 
L 603 4134 
L 603 4863 
z
" transform="scale(0.015625)"/>
       <path id="DejaVuSans-70" d="M 1159 525 
L 1159 -1331 
L 581 -1331 
L 581 3500 
L 1159 3500 
L 1159 2969 
Q 1341 3281 1617 3432 
Q 1894 3584 2278 3584 
Q 2916 3584 3314 3078 
Q 3713 2572 3713 1747 
Q 3713 922 3314 415 
Q 2916 -91 2278 -91 
Q 1894 -91 1617 61 
Q 1341 213 1159 525 
z
M 3116 1747 
Q 3116 2381 2855 2742 
Q 2594 3103 2138 3103 
Q 1681 3103 1420 2742 
Q 1159 2381 1159 1747 
Q 1159 1113 1420 752 
Q 1681 391 2138 391 
Q 2594 391 2855 752 
Q 3116 1113 3116 1747 
z
" transform="scale(0.015625)"/>
       <path id="DejaVuSans-6c" d="M 603 4863 
L 1178 4863 
L 1178 0 
L 603 0 
L 603 4863 
z
" transform="scale(0.015625)"/>
       <path id="DejaVuSans-6f" d="M 1959 3097 
Q 1497 3097 1228 2736 
Q 959 2375 959 1747 
Q 959 1119 1226 758 
Q 1494 397 1959 397 
Q 2419 397 2687 759 
Q 2956 1122 2956 1747 
Q 2956 2369 2687 2733 
Q 2419 3097 1959 3097 
z
M 1959 3584 
Q 2709 3584 3137 3096 
Q 3566 2609 3566 1747 
Q 3566 888 3137 398 
Q 2709 -91 1959 -91 
Q 1206 -91 779 398 
Q 353 888 353 1747 
Q 353 2609 779 3096 
Q 1206 3584 1959 3584 
z
" transform="scale(0.015625)"/>
       <path id="DejaVuSans-64" d="M 2906 2969 
L 2906 4863 
L 3481 4863 
L 3481 0 
L 2906 0 
L 2906 525 
Q 2725 213 2448 61 
Q 2172 -91 1784 -91 
Q 1150 -91 751 415 
Q 353 922 353 1747 
Q 353 2572 751 3078 
Q 1150 3584 1784 3584 
Q 2172 3584 2448 3432 
Q 2725 3281 2906 2969 
z
M 947 1747 
Q 947 1113 1208 752 
Q 1469 391 1925 391 
Q 2381 391 2643 752 
Q 2906 1113 2906 1747 
Q 2906 2381 2643 2742 
Q 2381 3103 1925 3103 
Q 1469 3103 1208 2742 
Q 947 2381 947 1747 
z
" transform="scale(0.015625)"/>
       <path id="DejaVuSans-20" transform="scale(0.015625)"/>
       <path id="DejaVuSans-4e" d="M 628 4666 
L 1478 4666 
L 3547 763 
L 3547 4666 
L 4159 4666 
L 4159 0 
L 3309 0 
L 1241 3903 
L 1241 0 
L 628 0 
L 628 4666 
z
" transform="scale(0.015625)"/>
       <path id="DejaVuSans-Oblique-65" d="M 3078 2063 
Q 3088 2113 3092 2166 
Q 3097 2219 3097 2272 
Q 3097 2653 2873 2875 
Q 2650 3097 2266 3097 
Q 1838 3097 1509 2826 
Q 1181 2556 1013 2059 
L 3078 2063 
z
M 3578 1613 
L 903 1613 
Q 884 1494 878 1425 
Q 872 1356 872 1306 
Q 872 872 1139 634 
Q 1406 397 1894 397 
Q 2269 397 2603 481 
Q 2938 566 3225 728 
L 3116 159 
Q 2806 34 2476 -28 
Q 2147 -91 1806 -91 
Q 1078 -91 686 257 
Q 294 606 294 1247 
Q 294 1794 489 2264 
Q 684 2734 1063 3103 
Q 1306 3334 1642 3459 
Q 1978 3584 2356 3584 
Q 2950 3584 3301 3228 
Q 3653 2872 3653 2272 
Q 3653 2128 3634 1964 
Q 3616 1800 3578 1613 
z
" transform="scale(0.015625)"/>
       <path id="DejaVuSans-31" d="M 794 531 
L 1825 531 
L 1825 4091 
L 703 3866 
L 703 4441 
L 1819 4666 
L 2450 4666 
L 2450 531 
L 3481 531 
L 3481 0 
L 794 0 
L 794 531 
z
" transform="scale(0.015625)"/>
      </defs>
      <use xlink:href="#DejaVuSans-44" transform="translate(0 0.015625)"/>
      <use xlink:href="#DejaVuSans-69" transform="translate(77.001953 0.015625)"/>
      <use xlink:href="#DejaVuSans-70" transform="translate(104.785156 0.015625)"/>
      <use xlink:href="#DejaVuSans-6c" transform="translate(168.261719 0.015625)"/>
      <use xlink:href="#DejaVuSans-6f" transform="translate(196.044922 0.015625)"/>
      <use xlink:href="#DejaVuSans-69" transform="translate(257.226562 0.015625)"/>
      <use xlink:href="#DejaVuSans-64" transform="translate(285.009766 0.015625)"/>
      <use xlink:href="#DejaVuSans-20" transform="translate(348.486328 0.015625)"/>
      <use xlink:href="#DejaVuSans-4e" transform="translate(380.273438 0.015625)"/>
      <use xlink:href="#DejaVuSans-Oblique-65" transform="translate(456.035156 -16.390625) scale(0.7)"/>
      <use xlink:href="#DejaVuSans-31" transform="translate(501.835938 0.015625)"/>
     </g>
    </g>
    <g id="text_6">
     <!-- $\times\mathdefault{10^{3}}\mathdefault{}$ -->
     <g transform="translate(188.56 225.887812) scale(0.1 -0.1)">
      <defs>
       <path id="DejaVuSans-d7" d="M 4488 3438 
L 3059 2003 
L 4488 575 
L 4116 197 
L 2681 1631 
L 1247 197 
L 878 575 
L 2303 2003 
L 878 3438 
L 1247 3816 
L 2681 2381 
L 4116 3816 
L 4488 3438 
z
" transform="scale(0.015625)"/>
       <path id="DejaVuSans-33" d="M 2597 2516 
Q 3050 2419 3304 2112 
Q 3559 1806 3559 1356 
Q 3559 666 3084 287 
Q 2609 -91 1734 -91 
Q 1441 -91 1130 -33 
Q 819 25 488 141 
L 488 750 
Q 750 597 1062 519 
Q 1375 441 1716 441 
Q 2309 441 2620 675 
Q 2931 909 2931 1356 
Q 2931 1769 2642 2001 
Q 2353 2234 1838 2234 
L 1294 2234 
L 1294 2753 
L 1863 2753 
Q 2328 2753 2575 2939 
Q 2822 3125 2822 3475 
Q 2822 3834 2567 4026 
Q 2313 4219 1838 4219 
Q 1578 4219 1281 4162 
Q 984 4106 628 3988 
L 628 4550 
Q 988 4650 1302 4700 
Q 1616 4750 1894 4750 
Q 2613 4750 3031 4423 
Q 3450 4097 3450 3541 
Q 3450 3153 3228 2886 
Q 3006 2619 2597 2516 
z
" transform="scale(0.015625)"/>
      </defs>
      <use xlink:href="#DejaVuSans-d7" transform="translate(0 0.765625)"/>
      <use xlink:href="#DejaVuSans-31" transform="translate(83.789062 0.765625)"/>
      <use xlink:href="#DejaVuSans-30" transform="translate(147.412109 0.765625)"/>
      <use xlink:href="#DejaVuSans-33" transform="translate(211.992188 39.046875) scale(0.7)"/>
     </g>
    </g>
   </g>
   <g id="matplotlib.axis_2">
    <g id="ytick_1">
     <g id="line2d_5">
      <defs>
       <path id="mdc76638a91" d="M 0 0 
L -6 0 
" style="stroke: #000000; stroke-width: 2"/>
      </defs>
      <g>
       <use xlink:href="#mdc76638a91" x="36" y="164.52" style="stroke: #000000; stroke-width: 2"/>
      </g>
     </g>
     <g id="text_7">
      <!-- $\mathdefault{200}$ -->
      <g transform="translate(-0.24 169.838906) scale(0.14 -0.14)">
       <use xlink:href="#DejaVuSans-32" transform="translate(0 0.78125)"/>
       <use xlink:href="#DejaVuSans-30" transform="translate(63.623047 0.78125)"/>
       <use xlink:href="#DejaVuSans-30" transform="translate(127.246094 0.78125)"/>
      </g>
     </g>
    </g>
    <g id="ytick_2">
     <g id="line2d_6">
      <g>
       <use xlink:href="#mdc76638a91" x="36" y="127.56" style="stroke: #000000; stroke-width: 2"/>
      </g>
     </g>
     <g id="text_8">
      <!-- $\mathdefault{400}$ -->
      <g transform="translate(-0.24 132.878906) scale(0.14 -0.14)">
       <use xlink:href="#DejaVuSans-34" transform="translate(0 0.78125)"/>
       <use xlink:href="#DejaVuSans-30" transform="translate(63.623047 0.78125)"/>
       <use xlink:href="#DejaVuSans-30" transform="translate(127.246094 0.78125)"/>
      </g>
     </g>
    </g>
    <g id="ytick_3">
     <g id="line2d_7">
      <g>
       <use xlink:href="#mdc76638a91" x="36" y="90.6" style="stroke: #000000; stroke-width: 2"/>
      </g>
     </g>
     <g id="text_9">
      <!-- $\mathdefault{600}$ -->
      <g transform="translate(-0.24 95.918906) scale(0.14 -0.14)">
       <use xlink:href="#DejaVuSans-36" transform="translate(0 0.78125)"/>
       <use xlink:href="#DejaVuSans-30" transform="translate(63.623047 0.78125)"/>
       <use xlink:href="#DejaVuSans-30" transform="translate(127.246094 0.78125)"/>
      </g>
     </g>
    </g>
    <g id="ytick_4">
     <g id="line2d_8">
      <g>
       <use xlink:href="#mdc76638a91" x="36" y="53.64" style="stroke: #000000; stroke-width: 2"/>
      </g>
     </g>
     <g id="text_10">
      <!-- $\mathdefault{800}$ -->
      <g transform="translate(-0.24 58.958906) scale(0.14 -0.14)">
       <use xlink:href="#DejaVuSans-38" transform="translate(0 0.78125)"/>
       <use xlink:href="#DejaVuSans-30" transform="translate(63.623047 0.78125)"/>
       <use xlink:href="#DejaVuSans-30" transform="translate(127.246094 0.78125)"/>
      </g>
     </g>
    </g>
    <g id="text_11">
     <!-- Diploid N$_e$2 -->
     <g transform="translate(-8.02 160.02) rotate(-90) scale(0.18 -0.18)">
      <use xlink:href="#DejaVuSans-44" transform="translate(0 0.015625)"/>
      <use xlink:href="#DejaVuSans-69" transform="translate(77.001953 0.015625)"/>
      <use xlink:href="#DejaVuSans-70" transform="translate(104.785156 0.015625)"/>
      <use xlink:href="#DejaVuSans-6c" transform="translate(168.261719 0.015625)"/>
      <use xlink:href="#DejaVuSans-6f" transform="translate(196.044922 0.015625)"/>
      <use xlink:href="#DejaVuSans-69" transform="translate(257.226562 0.015625)"/>
      <use xlink:href="#DejaVuSans-64" transform="translate(285.009766 0.015625)"/>
      <use xlink:href="#DejaVuSans-20" transform="translate(348.486328 0.015625)"/>
      <use xlink:href="#DejaVuSans-4e" transform="translate(380.273438 0.015625)"/>
      <use xlink:href="#DejaVuSans-Oblique-65" transform="translate(456.035156 -16.390625) scale(0.7)"/>
      <use xlink:href="#DejaVuSans-32" transform="translate(501.835938 0.015625)"/>
     </g>
    </g>
    <g id="text_12">
     <!-- $\times\mathdefault{10^{3}}\mathdefault{}$ -->
     <g transform="translate(36 22.92) scale(0.1 -0.1)">
      <use xlink:href="#DejaVuSans-d7" transform="translate(0 0.765625)"/>
      <use xlink:href="#DejaVuSans-31" transform="translate(83.789062 0.765625)"/>
      <use xlink:href="#DejaVuSans-30" transform="translate(147.412109 0.765625)"/>
      <use xlink:href="#DejaVuSans-33" transform="translate(211.992188 39.046875) scale(0.7)"/>
     </g>
    </g>
   </g>
   <g id="patch_3">
    <path d="M 36 192.24 
L 36 25.92 
" style="fill: none; stroke: #000000; stroke-width: 0.8; stroke-linejoin: miter; stroke-linecap: square"/>
   </g>
   <g id="patch_4">
    <path d="M 214.56 192.24 
L 214.56 25.92 
" style="fill: none; stroke: #000000; stroke-width: 0.8; stroke-linejoin: miter; stroke-linecap: square"/>
   </g>
   <g id="patch_5">
    <path d="M 36 192.24 
L 214.56 192.24 
" style="fill: none; stroke: #000000; stroke-width: 0.8; stroke-linejoin: miter; stroke-linecap: square"/>
   </g>
   <g id="patch_6">
    <path d="M 36 25.92 
L 214.56 25.92 
" style="fill: none; stroke: #000000; stroke-width: 0.8; stroke-linejoin: miter; stroke-linecap: square"/>
   </g>
   <g id="text_13">
    <!-- Ne1Ne2-MSC-GT-P2-S4 -->
    <g transform="translate(33.735 10.92) scale(0.16 -0.16)">
     <defs>
      <path id="DejaVuSans-65" d="M 3597 1894 
L 3597 1613 
L 953 1613 
Q 991 1019 1311 708 
Q 1631 397 2203 397 
Q 2534 397 2845 478 
Q 3156 559 3463 722 
L 3463 178 
Q 3153 47 2828 -22 
Q 2503 -91 2169 -91 
Q 1331 -91 842 396 
Q 353 884 353 1716 
Q 353 2575 817 3079 
Q 1281 3584 2069 3584 
Q 2775 3584 3186 3129 
Q 3597 2675 3597 1894 
z
M 3022 2063 
Q 3016 2534 2758 2815 
Q 2500 3097 2075 3097 
Q 1594 3097 1305 2825 
Q 1016 2553 972 2059 
L 3022 2063 
z
" transform="scale(0.015625)"/>
      <path id="DejaVuSans-2d" d="M 313 2009 
L 1997 2009 
L 1997 1497 
L 313 1497 
L 313 2009 
z
" transform="scale(0.015625)"/>
      <path id="DejaVuSans-4d" d="M 628 4666 
L 1569 4666 
L 2759 1491 
L 3956 4666 
L 4897 4666 
L 4897 0 
L 4281 0 
L 4281 4097 
L 3078 897 
L 2444 897 
L 1241 4097 
L 1241 0 
L 628 0 
L 628 4666 
z
" transform="scale(0.015625)"/>
      <path id="DejaVuSans-53" d="M 3425 4513 
L 3425 3897 
Q 3066 4069 2747 4153 
Q 2428 4238 2131 4238 
Q 1616 4238 1336 4038 
Q 1056 3838 1056 3469 
Q 1056 3159 1242 3001 
Q 1428 2844 1947 2747 
L 2328 2669 
Q 3034 2534 3370 2195 
Q 3706 1856 3706 1288 
Q 3706 609 3251 259 
Q 2797 -91 1919 -91 
Q 1588 -91 1214 -16 
Q 841 59 441 206 
L 441 856 
Q 825 641 1194 531 
Q 1563 422 1919 422 
Q 2459 422 2753 634 
Q 3047 847 3047 1241 
Q 3047 1584 2836 1778 
Q 2625 1972 2144 2069 
L 1759 2144 
Q 1053 2284 737 2584 
Q 422 2884 422 3419 
Q 422 4038 858 4394 
Q 1294 4750 2059 4750 
Q 2388 4750 2728 4690 
Q 3069 4631 3425 4513 
z
" transform="scale(0.015625)"/>
      <path id="DejaVuSans-43" d="M 4122 4306 
L 4122 3641 
Q 3803 3938 3442 4084 
Q 3081 4231 2675 4231 
Q 1875 4231 1450 3742 
Q 1025 3253 1025 2328 
Q 1025 1406 1450 917 
Q 1875 428 2675 428 
Q 3081 428 3442 575 
Q 3803 722 4122 1019 
L 4122 359 
Q 3791 134 3420 21 
Q 3050 -91 2638 -91 
Q 1578 -91 968 557 
Q 359 1206 359 2328 
Q 359 3453 968 4101 
Q 1578 4750 2638 4750 
Q 3056 4750 3426 4639 
Q 3797 4528 4122 4306 
z
" transform="scale(0.015625)"/>
      <path id="DejaVuSans-47" d="M 3809 666 
L 3809 1919 
L 2778 1919 
L 2778 2438 
L 4434 2438 
L 4434 434 
Q 4069 175 3628 42 
Q 3188 -91 2688 -91 
Q 1594 -91 976 548 
Q 359 1188 359 2328 
Q 359 3472 976 4111 
Q 1594 4750 2688 4750 
Q 3144 4750 3555 4637 
Q 3966 4525 4313 4306 
L 4313 3634 
Q 3963 3931 3569 4081 
Q 3175 4231 2741 4231 
Q 1884 4231 1454 3753 
Q 1025 3275 1025 2328 
Q 1025 1384 1454 906 
Q 1884 428 2741 428 
Q 3075 428 3337 486 
Q 3600 544 3809 666 
z
" transform="scale(0.015625)"/>
      <path id="DejaVuSans-54" d="M -19 4666 
L 3928 4666 
L 3928 4134 
L 2272 4134 
L 2272 0 
L 1638 0 
L 1638 4134 
L -19 4134 
L -19 4666 
z
" transform="scale(0.015625)"/>
      <path id="DejaVuSans-50" d="M 1259 4147 
L 1259 2394 
L 2053 2394 
Q 2494 2394 2734 2622 
Q 2975 2850 2975 3272 
Q 2975 3691 2734 3919 
Q 2494 4147 2053 4147 
L 1259 4147 
z
M 628 4666 
L 2053 4666 
Q 2838 4666 3239 4311 
Q 3641 3956 3641 3272 
Q 3641 2581 3239 2228 
Q 2838 1875 2053 1875 
L 1259 1875 
L 1259 0 
L 628 0 
L 628 4666 
z
" transform="scale(0.015625)"/>
     </defs>
     <use xlink:href="#DejaVuSans-4e"/>
     <use xlink:href="#DejaVuSans-65" x="74.804688"/>
     <use xlink:href="#DejaVuSans-31" x="136.328125"/>
     <use xlink:href="#DejaVuSans-4e" x="199.951172"/>
     <use xlink:href="#DejaVuSans-65" x="274.755859"/>
     <use xlink:href="#DejaVuSans-32" x="336.279297"/>
     <use xlink:href="#DejaVuSans-2d" x="399.902344"/>
     <use xlink:href="#DejaVuSans-4d" x="435.986328"/>
     <use xlink:href="#DejaVuSans-53" x="522.265625"/>
     <use xlink:href="#DejaVuSans-43" x="585.742188"/>
     <use xlink:href="#DejaVuSans-2d" x="655.566406"/>
     <use xlink:href="#DejaVuSans-47" x="695.275391"/>
     <use xlink:href="#DejaVuSans-54" x="769.140625"/>
     <use xlink:href="#DejaVuSans-2d" x="821.099609"/>
     <use xlink:href="#DejaVuSans-50" x="857.183594"/>
     <use xlink:href="#DejaVuSans-32" x="917.486328"/>
     <use xlink:href="#DejaVuSans-2d" x="981.109375"/>
     <use xlink:href="#DejaVuSans-53" x="1017.193359"/>
     <use xlink:href="#DejaVuSans-34" x="1080.669922"/>
    </g>
   </g>
  </g>
  <g id="axes_2">
   <g id="patch_7">
    <path d="M 225.72 192.24 
L 234.036 192.24 
L 234.036 25.92 
L 225.72 25.92 
z
" style="fill: #ffffff"/>
   </g>
   <g id="QuadMesh_1">
    <path d="M 225.72 192.24 
L 234.036 192.24 
L 234.036 180.36 
L 225.72 180.36 
L 225.72 192.24 
" clip-path="url(#p1b21f902d1)" style="fill: #e7e419"/>
    <path d="M 225.72 180.36 
L 234.036 180.36 
L 234.036 168.48 
L 225.72 168.48 
L 225.72 180.36 
" clip-path="url(#p1b21f902d1)" style="fill: #b8de29"/>
    <path d="M 225.72 168.48 
L 234.036 168.48 
L 234.036 156.6 
L 225.72 156.6 
L 225.72 168.48 
" clip-path="url(#p1b21f902d1)" style="fill: #89d548"/>
    <path d="M 225.72 156.6 
L 234.036 156.6 
L 234.036 144.72 
L 225.72 144.72 
L 225.72 156.6 
" clip-path="url(#p1b21f902d1)" style="fill: #5cc863"/>
    <path d="M 225.72 144.72 
L 234.036 144.72 
L 234.036 132.84 
L 225.72 132.84 
L 225.72 144.72 
" clip-path="url(#p1b21f902d1)" style="fill: #3aba76"/>
    <path d="M 225.72 132.84 
L 234.036 132.84 
L 234.036 120.96 
L 225.72 120.96 
L 225.72 132.84 
" clip-path="url(#p1b21f902d1)" style="fill: #24aa83"/>
    <path d="M 225.72 120.96 
L 234.036 120.96 
L 234.036 109.08 
L 225.72 109.08 
L 225.72 120.96 
" clip-path="url(#p1b21f902d1)" style="fill: #1f998a"/>
    <path d="M 225.72 109.08 
L 234.036 109.08 
L 234.036 97.2 
L 225.72 97.2 
L 225.72 109.08 
" clip-path="url(#p1b21f902d1)" style="fill: #24878e"/>
    <path d="M 225.72 97.2 
L 234.036 97.2 
L 234.036 85.32 
L 225.72 85.32 
L 225.72 97.2 
" clip-path="url(#p1b21f902d1)" style="fill: #2a768e"/>
    <path d="M 225.72 85.32 
L 234.036 85.32 
L 234.036 73.44 
L 225.72 73.44 
L 225.72 85.32 
" clip-path="url(#p1b21f902d1)" style="fill: #32658e"/>
    <path d="M 225.72 73.44 
L 234.036 73.44 
L 234.036 61.56 
L 225.72 61.56 
L 225.72 73.44 
" clip-path="url(#p1b21f902d1)" style="fill: #3b518b"/>
    <path d="M 225.72 61.56 
L 234.036 61.56 
L 234.036 49.68 
L 225.72 49.68 
L 225.72 61.56 
" clip-path="url(#p1b21f902d1)" style="fill: #433d84"/>
    <path d="M 225.72 49.68 
L 234.036 49.68 
L 234.036 37.8 
L 225.72 37.8 
L 225.72 49.68 
" clip-path="url(#p1b21f902d1)" style="fill: #482677"/>
    <path d="M 225.72 37.8 
L 234.036 37.8 
L 234.036 25.92 
L 225.72 25.92 
L 225.72 37.8 
" clip-path="url(#p1b21f902d1)" style="fill: #470e61"/>
   </g>
   <g id="matplotlib.axis_3"/>
   <g id="matplotlib.axis_4">
    <g id="ytick_5">
     <g id="line2d_9">
      <defs>
       <path id="m9b0769fe20" d="M 0 0 
L 3.5 0 
" style="stroke: #000000; stroke-width: 0.8"/>
      </defs>
      <g>
       <use xlink:href="#m9b0769fe20" x="234.036" y="192.24" style="stroke: #000000; stroke-width: 0.8"/>
      </g>
     </g>
     <g id="text_14">
      <!-- $\mathdefault{0}$ -->
      <g transform="translate(241.036 196.039219) scale(0.1 -0.1)">
       <use xlink:href="#DejaVuSans-30" transform="translate(0 0.78125)"/>
      </g>
     </g>
    </g>
    <g id="ytick_6">
     <g id="line2d_10">
      <g>
       <use xlink:href="#m9b0769fe20" x="234.036" y="168.48" style="stroke: #000000; stroke-width: 0.8"/>
      </g>
     </g>
     <g id="text_15">
      <!-- $\mathdefault{50}$ -->
      <g transform="translate(241.036 172.279219) scale(0.1 -0.1)">
       <defs>
        <path id="DejaVuSans-35" d="M 691 4666 
L 3169 4666 
L 3169 4134 
L 1269 4134 
L 1269 2991 
Q 1406 3038 1543 3061 
Q 1681 3084 1819 3084 
Q 2600 3084 3056 2656 
Q 3513 2228 3513 1497 
Q 3513 744 3044 326 
Q 2575 -91 1722 -91 
Q 1428 -91 1123 -41 
Q 819 9 494 109 
L 494 744 
Q 775 591 1075 516 
Q 1375 441 1709 441 
Q 2250 441 2565 725 
Q 2881 1009 2881 1497 
Q 2881 1984 2565 2268 
Q 2250 2553 1709 2553 
Q 1456 2553 1204 2497 
Q 953 2441 691 2322 
L 691 4666 
z
" transform="scale(0.015625)"/>
       </defs>
       <use xlink:href="#DejaVuSans-35" transform="translate(0 0.78125)"/>
       <use xlink:href="#DejaVuSans-30" transform="translate(63.623047 0.78125)"/>
      </g>
     </g>
    </g>
    <g id="ytick_7">
     <g id="line2d_11">
      <g>
       <use xlink:href="#m9b0769fe20" x="234.036" y="144.72" style="stroke: #000000; stroke-width: 0.8"/>
      </g>
     </g>
     <g id="text_16">
      <!-- $\mathdefault{100}$ -->
      <g transform="translate(241.036 148.519219) scale(0.1 -0.1)">
       <use xlink:href="#DejaVuSans-31" transform="translate(0 0.78125)"/>
       <use xlink:href="#DejaVuSans-30" transform="translate(63.623047 0.78125)"/>
       <use xlink:href="#DejaVuSans-30" transform="translate(127.246094 0.78125)"/>
      </g>
     </g>
    </g>
    <g id="ytick_8">
     <g id="line2d_12">
      <g>
       <use xlink:href="#m9b0769fe20" x="234.036" y="120.96" style="stroke: #000000; stroke-width: 0.8"/>
      </g>
     </g>
     <g id="text_17">
      <!-- $\mathdefault{150}$ -->
      <g transform="translate(241.036 124.759219) scale(0.1 -0.1)">
       <use xlink:href="#DejaVuSans-31" transform="translate(0 0.78125)"/>
       <use xlink:href="#DejaVuSans-35" transform="translate(63.623047 0.78125)"/>
       <use xlink:href="#DejaVuSans-30" transform="translate(127.246094 0.78125)"/>
      </g>
     </g>
    </g>
    <g id="ytick_9">
     <g id="line2d_13">
      <g>
       <use xlink:href="#m9b0769fe20" x="234.036" y="97.2" style="stroke: #000000; stroke-width: 0.8"/>
      </g>
     </g>
     <g id="text_18">
      <!-- $\mathdefault{200}$ -->
      <g transform="translate(241.036 100.999219) scale(0.1 -0.1)">
       <use xlink:href="#DejaVuSans-32" transform="translate(0 0.78125)"/>
       <use xlink:href="#DejaVuSans-30" transform="translate(63.623047 0.78125)"/>
       <use xlink:href="#DejaVuSans-30" transform="translate(127.246094 0.78125)"/>
      </g>
     </g>
    </g>
    <g id="ytick_10">
     <g id="line2d_14">
      <g>
       <use xlink:href="#m9b0769fe20" x="234.036" y="73.44" style="stroke: #000000; stroke-width: 0.8"/>
      </g>
     </g>
     <g id="text_19">
      <!-- $\mathdefault{250}$ -->
      <g transform="translate(241.036 77.239219) scale(0.1 -0.1)">
       <use xlink:href="#DejaVuSans-32" transform="translate(0 0.78125)"/>
       <use xlink:href="#DejaVuSans-35" transform="translate(63.623047 0.78125)"/>
       <use xlink:href="#DejaVuSans-30" transform="translate(127.246094 0.78125)"/>
      </g>
     </g>
    </g>
    <g id="ytick_11">
     <g id="line2d_15">
      <g>
       <use xlink:href="#m9b0769fe20" x="234.036" y="49.68" style="stroke: #000000; stroke-width: 0.8"/>
      </g>
     </g>
     <g id="text_20">
      <!-- $\mathdefault{300}$ -->
      <g transform="translate(241.036 53.479219) scale(0.1 -0.1)">
       <use xlink:href="#DejaVuSans-33" transform="translate(0 0.78125)"/>
       <use xlink:href="#DejaVuSans-30" transform="translate(63.623047 0.78125)"/>
       <use xlink:href="#DejaVuSans-30" transform="translate(127.246094 0.78125)"/>
      </g>
     </g>
    </g>
    <g id="ytick_12">
     <g id="line2d_16">
      <g>
       <use xlink:href="#m9b0769fe20" x="234.036" y="25.92" style="stroke: #000000; stroke-width: 0.8"/>
      </g>
     </g>
     <g id="text_21">
      <!-- $\mathdefault{350}$ -->
      <g transform="translate(241.036 29.719219) scale(0.1 -0.1)">
       <use xlink:href="#DejaVuSans-33" transform="translate(0 0.78125)"/>
       <use xlink:href="#DejaVuSans-35" transform="translate(63.623047 0.78125)"/>
       <use xlink:href="#DejaVuSans-30" transform="translate(127.246094 0.78125)"/>
      </g>
     </g>
    </g>
    <g id="text_22">
     <!-- $\Delta$ log likelihood -->
     <g transform="translate(273.256 154.98) rotate(-90) scale(0.12 -0.12)">
      <defs>
       <path id="DejaVuSans-394" d="M 2188 4044 
L 906 525 
L 3472 525 
L 2188 4044 
z
M 50 0 
L 1831 4666 
L 2547 4666 
L 4325 0 
L 50 0 
z
" transform="scale(0.015625)"/>
       <path id="DejaVuSans-67" d="M 2906 1791 
Q 2906 2416 2648 2759 
Q 2391 3103 1925 3103 
Q 1463 3103 1205 2759 
Q 947 2416 947 1791 
Q 947 1169 1205 825 
Q 1463 481 1925 481 
Q 2391 481 2648 825 
Q 2906 1169 2906 1791 
z
M 3481 434 
Q 3481 -459 3084 -895 
Q 2688 -1331 1869 -1331 
Q 1566 -1331 1297 -1286 
Q 1028 -1241 775 -1147 
L 775 -588 
Q 1028 -725 1275 -790 
Q 1522 -856 1778 -856 
Q 2344 -856 2625 -561 
Q 2906 -266 2906 331 
L 2906 616 
Q 2728 306 2450 153 
Q 2172 0 1784 0 
Q 1141 0 747 490 
Q 353 981 353 1791 
Q 353 2603 747 3093 
Q 1141 3584 1784 3584 
Q 2172 3584 2450 3431 
Q 2728 3278 2906 2969 
L 2906 3500 
L 3481 3500 
L 3481 434 
z
" transform="scale(0.015625)"/>
       <path id="DejaVuSans-6b" d="M 581 4863 
L 1159 4863 
L 1159 1991 
L 2875 3500 
L 3609 3500 
L 1753 1863 
L 3688 0 
L 2938 0 
L 1159 1709 
L 1159 0 
L 581 0 
L 581 4863 
z
" transform="scale(0.015625)"/>
       <path id="DejaVuSans-68" d="M 3513 2113 
L 3513 0 
L 2938 0 
L 2938 2094 
Q 2938 2591 2744 2837 
Q 2550 3084 2163 3084 
Q 1697 3084 1428 2787 
Q 1159 2491 1159 1978 
L 1159 0 
L 581 0 
L 581 4863 
L 1159 4863 
L 1159 2956 
Q 1366 3272 1645 3428 
Q 1925 3584 2291 3584 
Q 2894 3584 3203 3211 
Q 3513 2838 3513 2113 
z
" transform="scale(0.015625)"/>
      </defs>
      <use xlink:href="#DejaVuSans-394" transform="translate(0 0.015625)"/>
      <use xlink:href="#DejaVuSans-20" transform="translate(68.408203 0.015625)"/>
      <use xlink:href="#DejaVuSans-6c" transform="translate(100.195312 0.015625)"/>
      <use xlink:href="#DejaVuSans-6f" transform="translate(127.978516 0.015625)"/>
      <use xlink:href="#DejaVuSans-67" transform="translate(189.160156 0.015625)"/>
      <use xlink:href="#DejaVuSans-20" transform="translate(252.636719 0.015625)"/>
      <use xlink:href="#DejaVuSans-6c" transform="translate(284.423828 0.015625)"/>
      <use xlink:href="#DejaVuSans-69" transform="translate(312.207031 0.015625)"/>
      <use xlink:href="#DejaVuSans-6b" transform="translate(339.990234 0.015625)"/>
      <use xlink:href="#DejaVuSans-65" transform="translate(397.900391 0.015625)"/>
      <use xlink:href="#DejaVuSans-6c" transform="translate(459.423828 0.015625)"/>
      <use xlink:href="#DejaVuSans-69" transform="translate(487.207031 0.015625)"/>
      <use xlink:href="#DejaVuSans-68" transform="translate(514.990234 0.015625)"/>
      <use xlink:href="#DejaVuSans-6f" transform="translate(578.369141 0.015625)"/>
      <use xlink:href="#DejaVuSans-6f" transform="translate(639.550781 0.015625)"/>
      <use xlink:href="#DejaVuSans-64" transform="translate(700.732422 0.015625)"/>
     </g>
    </g>
    <g id="text_23">
     <!-- $\times\mathdefault{10^{3}}\mathdefault{}$ -->
     <g transform="translate(208.036 22.92) scale(0.1 -0.1)">
      <use xlink:href="#DejaVuSans-d7" transform="translate(0 0.765625)"/>
      <use xlink:href="#DejaVuSans-31" transform="translate(83.789062 0.765625)"/>
      <use xlink:href="#DejaVuSans-30" transform="translate(147.412109 0.765625)"/>
      <use xlink:href="#DejaVuSans-33" transform="translate(211.992188 39.046875) scale(0.7)"/>
     </g>
    </g>
   </g>
   <g id="LineCollection_1"/>
   <g id="patch_8">
    <path d="M 225.72 192.24 
L 229.878 192.24 
L 234.036 192.24 
L 234.036 25.92 
L 229.878 25.92 
L 225.72 25.92 
L 225.72 192.24 
z
" style="fill: none; stroke: #000000; stroke-width: 0.8; stroke-linejoin: miter; stroke-linecap: square"/>
   </g>
  </g>
 </g>
 <defs>
  <clipPath id="p9ff53b1eba">
   <rect x="36" y="25.92" width="178.56" height="166.32"/>
  </clipPath>
  <clipPath id="p1b21f902d1">
   <rect x="225.72" y="25.92" width="8.316" height="166.32"/>
  </clipPath>
 </defs>
</svg>
