<?xml version="1.0" encoding="utf-8" standalone="no"?>
<!DOCTYPE svg PUBLIC "-//W3C//DTD SVG 1.1//EN"
  "http://www.w3.org/Graphics/SVG/1.1/DTD/svg11.dtd">
<svg xmlns:xlink="http://www.w3.org/1999/xlink" width="288pt" height="216pt" viewBox="0 0 288 216" xmlns="http://www.w3.org/2000/svg" version="1.1">
 <metadata>
  <rdf:RDF xmlns:dc="http://purl.org/dc/elements/1.1/" xmlns:cc="http://creativecommons.org/ns#" xmlns:rdf="http://www.w3.org/1999/02/22-rdf-syntax-ns#">
   <cc:Work>
    <dc:type rdf:resource="http://purl.org/dc/dcmitype/StillImage"/>
    <dc:date>2024-12-14T16:49:57.914390</dc:date>
    <dc:format>image/svg+xml</dc:format>
    <dc:creator>
     <cc:Agent>
      <dc:title>Matplotlib v3.8.4, https://matplotlib.org/</dc:title>
     </cc:Agent>
    </dc:creator>
   </cc:Work>
  </rdf:RDF>
 </metadata>
 <defs>
  <style type="text/css">*{stroke-linejoin: round; stroke-linecap: butt}</style>
 </defs>
 <g id="figure_1">
  <g id="patch_1">
   <path d="M 0 216 
L 288 216 
L 288 0 
L 0 0 
z
" style="fill: #ffffff"/>
  </g>
  <g id="axes_1">
   <g id="patch_2">
    <path d="M 36 192.24 
L 214.56 192.24 
L 214.56 25.92 
L 36 25.92 
z
" style="fill: #ffffff"/>
   </g>
   <g id="QuadContourSet_1">
    <path d="M 71.273617 136.8 
L 70.754499 131.256 
L 70.661896 125.712 
L 70.88462 120.168 
L 71.342937 114.624 
L 71.712 111.405059 
L 72.249359 109.08 
L 73.800872 103.536 
L 75.556893 97.992 
L 77.467356 92.448 
L 77.664 91.909992 
L 82.793656 86.904 
L 83.616 86.134137 
L 88.155597 86.904 
L 89.568 87.153687 
L 95.142839 92.448 
L 95.52 92.827911 
L 98.818715 97.992 
L 101.472 102.510992 
L 101.95551 103.536 
L 104.266126 109.08 
L 106.174335 114.624 
L 107.424 119.659418 
L 107.535213 120.168 
L 108.124351 125.712 
L 107.879401 131.256 
L 107.424 133.094661 
L 106.382437 136.8 
L 103.067663 142.344 
L 101.472 143.877665 
L 96.278566 147.888 
L 95.52 148.252271 
L 89.568 150.091345 
L 83.616 150.433687 
L 77.664 148.543852 
L 76.927217 147.888 
L 73.054093 142.344 
L 71.712 139.001094 
z
" clip-path="url(#pcaa1b6f0b8)" style="fill: #e7e419"/>
    <path d="M 65.726452 131.256 
L 65.675954 125.712 
L 65.76 121.875607 
L 65.828601 120.168 
L 66.286918 114.624 
L 66.922558 109.08 
L 67.692242 103.536 
L 68.563379 97.992 
L 69.511134 92.448 
L 70.516382 86.904 
L 71.564271 81.36 
L 71.712 80.600888 
L 73.589048 75.816 
L 75.807961 70.272 
L 77.664 65.695435 
L 78.763953 64.728 
L 83.616 60.494151 
L 89.568 61.434977 
L 93.44601 64.728 
L 95.52 66.503127 
L 98.353314 70.272 
L 101.472 74.475575 
L 102.270972 75.816 
L 105.509884 81.36 
L 107.424 84.733346 
L 108.509257 86.904 
L 111.168289 92.448 
L 113.376 97.330245 
L 113.65286 97.992 
L 115.784816 103.536 
L 117.668481 109.08 
L 119.224096 114.624 
L 119.328 115.137568 
L 120.297525 120.168 
L 120.816777 125.712 
L 120.600885 131.256 
L 119.39063 136.8 
L 119.328 136.934883 
L 116.691467 142.344 
L 113.376 146.252932 
L 111.87707 147.888 
L 107.424 150.908776 
L 103.202547 153.432 
L 101.472 154.096416 
L 95.52 155.932347 
L 89.568 157.113652 
L 83.616 157.333551 
L 77.664 156.11964 
L 72.963522 153.432 
L 71.712 152.31795 
L 69.243179 147.888 
L 67.321775 142.344 
L 66.217598 136.8 
L 65.76 131.913007 
z
M 71.712 139.001094 
L 73.054093 142.344 
L 76.927217 147.888 
L 77.664 148.543852 
L 83.616 150.433687 
L 89.568 150.091345 
L 95.52 148.252271 
L 96.278566 147.888 
L 101.472 143.877665 
L 103.067663 142.344 
L 106.382437 136.8 
L 107.424 133.094661 
L 107.879401 131.256 
L 108.124351 125.712 
L 107.535213 120.168 
L 107.424 119.659418 
L 106.174335 114.624 
L 104.266126 109.08 
L 101.95551 103.536 
L 101.472 102.510992 
L 98.818715 97.992 
L 95.52 92.827911 
L 95.142839 92.448 
L 89.568 87.153687 
L 88.155597 86.904 
L 83.616 86.134137 
L 82.793656 86.904 
L 77.664 91.909992 
L 77.467356 92.448 
L 75.556893 97.992 
L 73.800872 103.536 
L 72.249359 109.08 
L 71.712 111.405059 
L 71.342937 114.624 
L 70.88462 120.168 
L 70.661896 125.712 
L 70.754499 131.256 
L 71.273617 136.8 
z
" clip-path="url(#pcaa1b6f0b8)" style="fill: #b2dd2d"/>
    <path d="M 64.902305 147.888 
L 63.854533 142.344 
L 63.252408 136.8 
L 62.969325 131.256 
L 62.918827 125.712 
L 63.040282 120.168 
L 63.29021 114.624 
L 63.636834 109.08 
L 64.056555 103.536 
L 64.5316 97.992 
L 65.048425 92.448 
L 65.596603 86.904 
L 65.76 85.31873 
L 66.508252 81.36 
L 67.587159 75.816 
L 68.687931 70.272 
L 69.803324 64.728 
L 70.927578 59.184 
L 71.712 55.33045 
L 72.40564 53.64 
L 74.681719 48.096 
L 76.953109 42.552 
L 77.664 40.809641 
L 82.012519 37.008 
L 83.616 35.59796 
L 89.568 36.546087 
L 90.10778 37.008 
L 95.52 41.612479 
L 96.230571 42.552 
L 100.441011 48.096 
L 101.472 49.450735 
L 104.033382 53.64 
L 107.421254 59.184 
L 107.424 59.18851 
L 110.395403 64.728 
L 113.345783 70.272 
L 113.376 70.329535 
L 116.041987 75.816 
L 118.682421 81.36 
L 119.328 82.755617 
L 121.156024 86.904 
L 123.499629 92.448 
L 125.28 96.915112 
L 125.696625 97.992 
L 127.668089 103.536 
L 129.409954 109.08 
L 130.848465 114.624 
L 131.232 116.67403 
L 131.874678 120.168 
L 132.370241 125.712 
L 132.164198 131.256 
L 131.232 135.730392 
L 131.005343 136.8 
L 128.506489 142.344 
L 125.28 146.457701 
L 124.124331 147.888 
L 119.328 151.579537 
L 116.801428 153.432 
L 113.376 155.045227 
L 107.424 157.638718 
L 103.940897 158.976 
L 101.472 159.588619 
L 95.52 160.775173 
L 89.568 161.538645 
L 83.616 161.680765 
L 77.664 160.89622 
L 72.467741 158.976 
L 71.712 158.543882 
L 67.276844 153.432 
L 65.76 150.710238 
z
M 65.76 131.913007 
L 66.217598 136.8 
L 67.321775 142.344 
L 69.243179 147.888 
L 71.712 152.31795 
L 72.963522 153.432 
L 77.664 156.11964 
L 83.616 157.333551 
L 89.568 157.113652 
L 95.52 155.932347 
L 101.472 154.096416 
L 103.202547 153.432 
L 107.424 150.908776 
L 111.87707 147.888 
L 113.376 146.252932 
L 116.691467 142.344 
L 119.328 136.934883 
L 119.39063 136.8 
L 120.600885 131.256 
L 120.816777 125.712 
L 120.297525 120.168 
L 119.328 115.137568 
L 119.224096 114.624 
L 117.668481 109.08 
L 115.784816 103.536 
L 113.65286 97.992 
L 113.376 97.330245 
L 111.168289 92.448 
L 108.509257 86.904 
L 107.424 84.733346 
L 105.509884 81.36 
L 102.270972 75.816 
L 101.472 74.475575 
L 98.353314 70.272 
L 95.52 66.503127 
L 93.44601 64.728 
L 89.568 61.434977 
L 83.616 60.494151 
L 78.763953 64.728 
L 77.664 65.695435 
L 75.807961 70.272 
L 73.589048 75.816 
L 71.712 80.600888 
L 71.564271 81.36 
L 70.516382 86.904 
L 69.511134 92.448 
L 68.563379 97.992 
L 67.692242 103.536 
L 66.922558 109.08 
L 66.286918 114.624 
L 65.828601 120.168 
L 65.76 121.875607 
L 65.675954 125.712 
L 65.726452 131.256 
z
" clip-path="url(#pcaa1b6f0b8)" style="fill: #7fd34e"/>
    <path d="M 63.830032 153.432 
L 62.145178 147.888 
L 61.097406 142.344 
L 60.495281 136.8 
L 60.212198 131.256 
L 60.1617 125.712 
L 60.283155 120.168 
L 60.533082 114.624 
L 60.879706 109.08 
L 61.299427 103.536 
L 61.774473 97.992 
L 62.291298 92.448 
L 62.839476 86.904 
L 63.410906 81.36 
L 63.999251 75.816 
L 64.59952 70.272 
L 65.207761 64.728 
L 65.76 59.734131 
L 65.87156 59.184 
L 67.000086 53.64 
L 68.129218 48.096 
L 69.256023 42.552 
L 70.378159 37.008 
L 71.493757 31.464 
L 71.712 30.371575 
L 73.504693 25.92 
L 77.664 25.92 
L 83.616 25.92 
L 89.568 25.92 
L 95.52 25.92 
L 101.472 25.92 
L 102.3966 25.92 
L 105.72157 31.464 
L 107.424 34.282187 
L 108.874877 37.008 
L 111.843094 42.552 
L 113.376 45.403279 
L 114.715394 48.096 
L 117.478743 53.64 
L 119.328 57.35208 
L 120.197373 59.184 
L 122.818426 64.728 
L 125.28 69.976041 
L 125.414753 70.272 
L 127.905901 75.816 
L 130.347566 81.36 
L 131.232 83.427622 
L 132.694012 86.904 
L 134.930698 92.448 
L 137.03946 97.992 
L 137.184 98.405422 
L 138.963437 103.536 
L 140.662328 109.08 
L 142.065348 114.624 
L 143.076971 120.168 
L 143.136 120.833685 
L 143.567911 125.712 
L 143.363828 131.256 
L 143.136 132.360037 
L 142.218355 136.8 
L 139.781153 142.344 
L 137.184 145.739074 
L 135.5269 147.888 
L 131.232 151.351621 
L 128.608172 153.432 
L 125.28 155.127023 
L 119.328 158.069572 
L 117.403347 158.976 
L 113.376 160.201832 
L 107.424 161.877993 
L 101.472 163.354891 
L 95.627572 164.52 
L 95.52 164.533665 
L 89.568 165.02015 
L 83.616 165.110709 
L 77.664 164.610796 
L 77.278407 164.52 
L 71.712 162.462996 
L 67.030894 158.976 
L 65.76 157.51119 
z
M 65.76 150.710238 
L 67.276844 153.432 
L 71.712 158.543882 
L 72.467741 158.976 
L 77.664 160.89622 
L 83.616 161.680765 
L 89.568 161.538645 
L 95.52 160.775173 
L 101.472 159.588619 
L 103.940897 158.976 
L 107.424 157.638718 
L 113.376 155.045227 
L 116.801428 153.432 
L 119.328 151.579537 
L 124.124331 147.888 
L 125.28 146.457701 
L 128.506489 142.344 
L 131.005343 136.8 
L 131.232 135.730392 
L 132.164198 131.256 
L 132.370241 125.712 
L 131.874678 120.168 
L 131.232 116.67403 
L 130.848465 114.624 
L 129.409954 109.08 
L 127.668089 103.536 
L 125.696625 97.992 
L 125.28 96.915112 
L 123.499629 92.448 
L 121.156024 86.904 
L 119.328 82.755617 
L 118.682421 81.36 
L 116.041987 75.816 
L 113.376 70.329535 
L 113.345783 70.272 
L 110.395403 64.728 
L 107.424 59.18851 
L 107.421254 59.184 
L 104.033382 53.64 
L 101.472 49.450735 
L 100.441011 48.096 
L 96.230571 42.552 
L 95.52 41.612479 
L 90.10778 37.008 
L 89.568 36.546087 
L 83.616 35.59796 
L 82.012519 37.008 
L 77.664 40.809641 
L 76.953109 42.552 
L 74.681719 48.096 
L 72.40564 53.64 
L 71.712 55.33045 
L 70.927578 59.184 
L 69.803324 64.728 
L 68.687931 70.272 
L 67.587159 75.816 
L 66.508252 81.36 
L 65.76 85.31873 
L 65.596603 86.904 
L 65.048425 92.448 
L 64.5316 97.992 
L 64.056555 103.536 
L 63.636834 109.08 
L 63.29021 114.624 
L 63.040282 120.168 
L 62.918827 125.712 
L 62.969325 131.256 
L 63.252408 136.8 
L 63.854533 142.344 
L 64.902305 147.888 
z
" clip-path="url(#pcaa1b6f0b8)" style="fill: #54c568"/>
    <path d="M 59.575176 147.888 
L 58.994281 142.344 
L 58.660457 136.8 
L 58.503513 131.256 
L 58.475516 125.712 
L 58.542852 120.168 
L 58.681414 114.624 
L 58.873586 109.08 
L 59.106284 103.536 
L 59.369653 97.992 
L 59.656186 92.448 
L 59.808 89.678626 
L 60.082348 86.904 
L 60.653779 81.36 
L 61.242124 75.816 
L 61.842393 70.272 
L 62.450634 64.728 
L 63.063708 59.184 
L 63.679111 53.64 
L 64.294845 48.096 
L 64.90931 42.552 
L 65.521228 37.008 
L 65.76 34.832042 
L 66.437738 31.464 
L 67.545312 25.92 
L 71.712 25.92 
L 73.504693 25.92 
L 71.712 30.371575 
L 71.493757 31.464 
L 70.378159 37.008 
L 69.256023 42.552 
L 68.129218 48.096 
L 67.000086 53.64 
L 65.87156 59.184 
L 65.76 59.734131 
L 65.207761 64.728 
L 64.59952 70.272 
L 63.999251 75.816 
L 63.410906 81.36 
L 62.839476 86.904 
L 62.291298 92.448 
L 61.774473 97.992 
L 61.299427 103.536 
L 60.879706 109.08 
L 60.533082 114.624 
L 60.283155 120.168 
L 60.1617 125.712 
L 60.212198 131.256 
L 60.495281 136.8 
L 61.097406 142.344 
L 62.145178 147.888 
L 63.830032 153.432 
L 65.76 157.51119 
L 67.030894 158.976 
L 71.712 162.462996 
L 77.278407 164.52 
L 77.664 164.610796 
L 83.616 165.110709 
L 89.568 165.02015 
L 95.52 164.533665 
L 95.627572 164.52 
L 101.472 163.354891 
L 107.424 161.877993 
L 113.376 160.201832 
L 117.403347 158.976 
L 119.328 158.069572 
L 125.28 155.127023 
L 128.608172 153.432 
L 131.232 151.351621 
L 135.5269 147.888 
L 137.184 145.739074 
L 139.781153 142.344 
L 142.218355 136.8 
L 143.136 132.360037 
L 143.363828 131.256 
L 143.567911 125.712 
L 143.136 120.833685 
L 143.076971 120.168 
L 142.065348 114.624 
L 140.662328 109.08 
L 138.963437 103.536 
L 137.184 98.405422 
L 137.03946 97.992 
L 134.930698 92.448 
L 132.694012 86.904 
L 131.232 83.427622 
L 130.347566 81.36 
L 127.905901 75.816 
L 125.414753 70.272 
L 125.28 69.976041 
L 122.818426 64.728 
L 120.197373 59.184 
L 119.328 57.35208 
L 117.478743 53.64 
L 114.715394 48.096 
L 113.376 45.403279 
L 111.843094 42.552 
L 108.874877 37.008 
L 107.424 34.282187 
L 105.72157 31.464 
L 102.3966 25.92 
L 107.424 25.92 
L 113.376 25.92 
L 116.144401 25.92 
L 118.854991 31.464 
L 119.328 32.424492 
L 121.478272 37.008 
L 124.094386 42.552 
L 125.28 45.054112 
L 126.679172 48.096 
L 129.2345 53.64 
L 131.232 57.976068 
L 131.779095 59.184 
L 134.280573 64.728 
L 136.762331 70.272 
L 137.184 71.226477 
L 139.195382 75.816 
L 141.576807 81.36 
L 143.136 85.097274 
L 143.888602 86.904 
L 146.104013 92.448 
L 148.192716 97.992 
L 149.088 100.57733 
L 150.115861 103.536 
L 151.817576 109.08 
L 153.222928 114.624 
L 154.236233 120.168 
L 154.728659 125.712 
L 154.52392 131.256 
L 153.37619 136.8 
L 150.934936 142.344 
L 149.088 144.754361 
L 146.694545 147.888 
L 143.136 150.785347 
L 139.880327 153.432 
L 137.184 154.839964 
L 131.232 157.923174 
L 129.16478 158.976 
L 125.28 160.254696 
L 119.328 162.156452 
L 113.376 163.968103 
L 111.416231 164.52 
L 107.424 165.236383 
L 101.472 166.177464 
L 95.52 166.933538 
L 89.568 167.420023 
L 83.616 167.510582 
L 77.664 167.010669 
L 71.712 165.609148 
L 69.417399 164.52 
L 65.76 161.795572 
L 63.695911 158.976 
L 61.072904 153.432 
L 59.808 149.269841 
z
" clip-path="url(#pcaa1b6f0b8)" style="fill: #31b57b"/>
    <path d="M 58.980697 153.432 
L 58.046598 147.888 
L 57.465703 142.344 
L 57.131879 136.8 
L 56.974935 131.256 
L 56.946938 125.712 
L 57.014274 120.168 
L 57.152836 114.624 
L 57.345008 109.08 
L 57.577706 103.536 
L 57.841075 97.992 
L 58.127608 92.448 
L 58.431523 86.904 
L 58.74833 81.36 
L 59.074514 75.816 
L 59.407309 70.272 
L 59.744524 64.728 
L 59.808 63.692641 
L 60.306581 59.184 
L 60.921984 53.64 
L 61.537718 48.096 
L 62.152182 42.552 
L 62.764101 37.008 
L 63.372454 31.464 
L 63.976431 25.92 
L 65.76 25.92 
L 67.545312 25.92 
L 66.437738 31.464 
L 65.76 34.832042 
L 65.521228 37.008 
L 64.90931 42.552 
L 64.294845 48.096 
L 63.679111 53.64 
L 63.063708 59.184 
L 62.450634 64.728 
L 61.842393 70.272 
L 61.242124 75.816 
L 60.653779 81.36 
L 60.082348 86.904 
L 59.808 89.678626 
L 59.656186 92.448 
L 59.369653 97.992 
L 59.106284 103.536 
L 58.873586 109.08 
L 58.681414 114.624 
L 58.542852 120.168 
L 58.475516 125.712 
L 58.503513 131.256 
L 58.660457 136.8 
L 58.994281 142.344 
L 59.575176 147.888 
L 59.808 149.269841 
L 61.072904 153.432 
L 63.695911 158.976 
L 65.76 161.795572 
L 69.417399 164.52 
L 71.712 165.609148 
L 77.664 167.010669 
L 83.616 167.510582 
L 89.568 167.420023 
L 95.52 166.933538 
L 101.472 166.177464 
L 107.424 165.236383 
L 111.416231 164.52 
L 113.376 163.968103 
L 119.328 162.156452 
L 125.28 160.254696 
L 129.16478 158.976 
L 131.232 157.923174 
L 137.184 154.839964 
L 139.880327 153.432 
L 143.136 150.785347 
L 146.694545 147.888 
L 149.088 144.754361 
L 150.934936 142.344 
L 153.37619 136.8 
L 154.52392 131.256 
L 154.728659 125.712 
L 154.236233 120.168 
L 153.222928 114.624 
L 151.817576 109.08 
L 150.115861 103.536 
L 149.088 100.57733 
L 148.192716 97.992 
L 146.104013 92.448 
L 143.888602 86.904 
L 143.136 85.097274 
L 141.576807 81.36 
L 139.195382 75.816 
L 137.184 71.226477 
L 136.762331 70.272 
L 134.280573 64.728 
L 131.779095 59.184 
L 131.232 57.976068 
L 129.2345 53.64 
L 126.679172 48.096 
L 125.28 45.054112 
L 124.094386 42.552 
L 121.478272 37.008 
L 119.328 32.424492 
L 118.854991 31.464 
L 116.144401 25.92 
L 119.328 25.92 
L 125.28 25.92 
L 128.000606 25.92 
L 130.507146 31.464 
L 131.232 33.055711 
L 133.001558 37.008 
L 135.498321 42.552 
L 137.184 46.279499 
L 137.998919 48.096 
L 140.491202 53.64 
L 142.98215 59.184 
L 143.136 59.527718 
L 145.460072 64.728 
L 147.918224 70.272 
L 149.088 72.945298 
L 150.348191 75.816 
L 152.733575 81.36 
L 155.04 86.87916 
L 155.050451 86.904 
L 157.288049 92.448 
L 159.397671 97.992 
L 160.992 102.550326 
L 161.340019 103.536 
L 163.069512 109.08 
L 164.497804 114.624 
L 165.52765 120.168 
L 166.028114 125.712 
L 165.820033 131.256 
L 164.653568 136.8 
L 162.172464 142.344 
L 160.992 143.859832 
L 157.884495 147.888 
L 155.04 150.181007 
L 151.034275 153.432 
L 149.088 154.446616 
L 143.136 157.559435 
L 140.423202 158.976 
L 137.184 160.069171 
L 131.232 162.061835 
L 125.28 164.020968 
L 123.71816 164.52 
L 119.328 165.413817 
L 113.376 166.568204 
L 107.424 167.636255 
L 101.472 168.577337 
L 95.52 169.33341 
L 89.568 169.819896 
L 83.616 169.910454 
L 77.664 169.410541 
L 71.712 168.009021 
L 65.76 165.183864 
L 64.99731 164.52 
L 60.938784 158.976 
L 59.808 156.58597 
z
" clip-path="url(#pcaa1b6f0b8)" style="fill: #1fa287"/>
    <path d="M 58.906339 158.976 
L 57.452119 153.432 
L 56.51802 147.888 
L 55.937125 142.344 
L 55.603301 136.8 
L 55.446357 131.256 
L 55.41836 125.712 
L 55.485696 120.168 
L 55.624258 114.624 
L 55.81643 109.08 
L 56.049127 103.536 
L 56.312497 97.992 
L 56.59903 92.448 
L 56.902945 86.904 
L 57.219752 81.36 
L 57.545936 75.816 
L 57.878731 70.272 
L 58.215946 64.728 
L 58.55584 59.184 
L 58.897025 53.64 
L 59.238394 48.096 
L 59.579059 42.552 
L 59.808 38.810706 
L 60.006973 37.008 
L 60.615327 31.464 
L 61.219304 25.92 
L 63.976431 25.92 
L 63.372454 31.464 
L 62.764101 37.008 
L 62.152182 42.552 
L 61.537718 48.096 
L 60.921984 53.64 
L 60.306581 59.184 
L 59.808 63.692641 
L 59.744524 64.728 
L 59.407309 70.272 
L 59.074514 75.816 
L 58.74833 81.36 
L 58.431523 86.904 
L 58.127608 92.448 
L 57.841075 97.992 
L 57.577706 103.536 
L 57.345008 109.08 
L 57.152836 114.624 
L 57.014274 120.168 
L 56.946938 125.712 
L 56.974935 131.256 
L 57.131879 136.8 
L 57.465703 142.344 
L 58.046598 147.888 
L 58.980697 153.432 
L 59.808 156.58597 
L 60.938784 158.976 
L 64.99731 164.52 
L 65.76 165.183864 
L 71.712 168.009021 
L 77.664 169.410541 
L 83.616 169.910454 
L 89.568 169.819896 
L 95.52 169.33341 
L 101.472 168.577337 
L 107.424 167.636255 
L 113.376 166.568204 
L 119.328 165.413817 
L 123.71816 164.52 
L 125.28 164.020968 
L 131.232 162.061835 
L 137.184 160.069171 
L 140.423202 158.976 
L 143.136 157.559435 
L 149.088 154.446616 
L 151.034275 153.432 
L 155.04 150.181007 
L 157.884495 147.888 
L 160.992 143.859832 
L 162.172464 142.344 
L 164.653568 136.8 
L 165.820033 131.256 
L 166.028114 125.712 
L 165.52765 120.168 
L 164.497804 114.624 
L 163.069512 109.08 
L 161.340019 103.536 
L 160.992 102.550326 
L 159.397671 97.992 
L 157.288049 92.448 
L 155.050451 86.904 
L 155.04 86.87916 
L 152.733575 81.36 
L 150.348191 75.816 
L 149.088 72.945298 
L 147.918224 70.272 
L 145.460072 64.728 
L 143.136 59.527718 
L 142.98215 59.184 
L 140.491202 53.64 
L 137.998919 48.096 
L 137.184 46.279499 
L 135.498321 42.552 
L 133.001558 37.008 
L 131.232 33.055711 
L 130.507146 31.464 
L 128.000606 25.92 
L 131.232 25.92 
L 137.184 25.92 
L 139.28775 25.92 
L 141.732449 31.464 
L 143.136 34.624027 
L 144.193223 37.008 
L 146.666237 42.552 
L 149.088 47.958609 
L 149.149739 48.096 
L 151.646166 53.64 
L 154.141255 59.184 
L 155.04 61.188568 
L 156.637659 64.728 
L 159.12043 70.272 
L 160.992 74.506703 
L 161.576142 75.816 
L 164.000463 81.36 
L 166.355087 86.904 
L 166.944 88.349423 
L 168.633156 92.448 
L 170.787338 97.992 
L 172.767375 103.536 
L 172.896 103.943615 
L 174.538052 109.08 
L 176.001748 114.624 
L 177.057121 120.168 
L 177.569991 125.712 
L 177.356752 131.256 
L 176.161373 136.8 
L 173.618769 142.344 
L 172.896 143.249657 
L 169.2422 147.888 
L 166.944 149.702305 
L 162.273425 153.432 
L 160.992 154.089293 
L 155.04 157.171245 
L 151.578052 158.976 
L 149.088 159.814952 
L 143.136 161.826752 
L 137.184 163.835443 
L 135.139259 164.52 
L 131.232 165.353527 
L 125.28 166.601889 
L 119.328 167.81369 
L 113.376 168.968077 
L 107.424 170.036128 
L 107.247722 170.064 
L 101.472 170.625676 
L 95.52 171.090704 
L 89.568 171.38992 
L 83.616 171.445619 
L 77.664 171.138144 
L 71.712 170.276129 
L 70.985383 170.064 
L 65.76 167.583737 
L 62.240183 164.52 
L 59.808 161.197606 
z
" clip-path="url(#pcaa1b6f0b8)" style="fill: #21908d"/>
    <path d="M 59.627848 164.52 
L 57.377761 158.976 
L 55.923541 153.432 
L 54.989441 147.888 
L 54.408547 142.344 
L 54.074722 136.8 
L 53.917778 131.256 
L 53.889782 125.712 
L 53.957118 120.168 
L 54.09568 114.624 
L 54.287852 109.08 
L 54.520549 103.536 
L 54.783919 97.992 
L 55.070452 92.448 
L 55.374367 86.904 
L 55.691174 81.36 
L 56.017358 75.816 
L 56.350153 70.272 
L 56.687367 64.728 
L 57.027262 59.184 
L 57.368447 53.64 
L 57.709816 48.096 
L 58.050481 42.552 
L 58.389735 37.008 
L 58.727012 31.464 
L 59.061862 25.92 
L 59.808 25.92 
L 61.219304 25.92 
L 60.615327 31.464 
L 60.006973 37.008 
L 59.808 38.810706 
L 59.579059 42.552 
L 59.238394 48.096 
L 58.897025 53.64 
L 58.55584 59.184 
L 58.215946 64.728 
L 57.878731 70.272 
L 57.545936 75.816 
L 57.219752 81.36 
L 56.902945 86.904 
L 56.59903 92.448 
L 56.312497 97.992 
L 56.049127 103.536 
L 55.81643 109.08 
L 55.624258 114.624 
L 55.485696 120.168 
L 55.41836 125.712 
L 55.446357 131.256 
L 55.603301 136.8 
L 55.937125 142.344 
L 56.51802 147.888 
L 57.452119 153.432 
L 58.906339 158.976 
L 59.808 161.197606 
L 62.240183 164.52 
L 65.76 167.583737 
L 70.985383 170.064 
L 71.712 170.276129 
L 77.664 171.138144 
L 83.616 171.445619 
L 89.568 171.38992 
L 95.52 171.090704 
L 101.472 170.625676 
L 107.247722 170.064 
L 107.424 170.036128 
L 113.376 168.968077 
L 119.328 167.81369 
L 125.28 166.601889 
L 131.232 165.353527 
L 135.139259 164.52 
L 137.184 163.835443 
L 143.136 161.826752 
L 149.088 159.814952 
L 151.578052 158.976 
L 155.04 157.171245 
L 160.992 154.089293 
L 162.273425 153.432 
L 166.944 149.702305 
L 169.2422 147.888 
L 172.896 143.249657 
L 173.618769 142.344 
L 176.161373 136.8 
L 177.356752 131.256 
L 177.569991 125.712 
L 177.057121 120.168 
L 176.001748 114.624 
L 174.538052 109.08 
L 172.896 103.943615 
L 172.767375 103.536 
L 170.787338 97.992 
L 168.633156 92.448 
L 166.944 88.349423 
L 166.355087 86.904 
L 164.000463 81.36 
L 161.576142 75.816 
L 160.992 74.506703 
L 159.12043 70.272 
L 156.637659 64.728 
L 155.04 61.188568 
L 154.141255 59.184 
L 151.646166 53.64 
L 149.149739 48.096 
L 149.088 47.958609 
L 146.666237 42.552 
L 144.193223 37.008 
L 143.136 34.624027 
L 141.732449 31.464 
L 139.28775 25.92 
L 143.136 25.92 
L 149.088 25.92 
L 150.440713 25.92 
L 152.889476 31.464 
L 155.04 36.297765 
L 155.358123 37.008 
L 157.855904 42.552 
L 160.364078 48.096 
L 160.992 49.481081 
L 162.895304 53.64 
L 165.431121 59.184 
L 166.944 62.504139 
L 167.969028 64.728 
L 170.50424 70.272 
L 172.896 75.571767 
L 173.007665 75.816 
L 175.49208 81.36 
L 177.905069 86.904 
L 178.848 89.162344 
L 180.239486 92.448 
L 182.453103 97.992 
L 184.487771 103.536 
L 184.8 104.498893 
L 186.308075 109.08 
L 187.815287 114.624 
L 188.902036 120.168 
L 189.430153 125.712 
L 189.210574 131.256 
L 187.979657 136.8 
L 185.361462 142.344 
L 184.8 143.027222 
L 180.865334 147.888 
L 178.848 149.437816 
L 173.722232 153.432 
L 172.896 153.845556 
L 166.944 156.863757 
L 162.826078 158.976 
L 160.992 159.584016 
L 155.04 161.575867 
L 149.088 163.581224 
L 146.31059 164.52 
L 143.136 165.203732 
L 137.184 166.483672 
L 131.232 167.7534 
L 125.28 169.001762 
L 120.062608 170.064 
L 119.328 170.15599 
L 113.376 170.866003 
L 107.424 171.522915 
L 101.472 172.101734 
L 95.52 172.566761 
L 89.568 172.865978 
L 83.616 172.921676 
L 77.664 172.614202 
L 71.712 171.752187 
L 65.929365 170.064 
L 65.76 169.98361 
L 59.808 164.80284 
z
" clip-path="url(#pcaa1b6f0b8)" style="fill: #277e8e"/>
    <path d="M 53.472404 147.888 
L 52.990481 142.344 
L 52.749487 136.8 
L 52.643906 131.256 
L 52.625554 125.712 
L 52.669937 120.168 
L 52.763943 114.624 
L 52.900631 109.08 
L 53.076799 103.536 
L 53.291797 97.992 
L 53.546965 92.448 
L 53.845423 86.904 
L 53.856 86.725308 
L 54.162595 81.36 
L 54.48878 75.816 
L 54.821574 70.272 
L 55.158789 64.728 
L 55.498683 59.184 
L 55.839869 53.64 
L 56.181238 48.096 
L 56.521903 42.552 
L 56.861157 37.008 
L 57.198433 31.464 
L 57.533284 25.92 
L 59.061862 25.92 
L 58.727012 31.464 
L 58.389735 37.008 
L 58.050481 42.552 
L 57.709816 48.096 
L 57.368447 53.64 
L 57.027262 59.184 
L 56.687367 64.728 
L 56.350153 70.272 
L 56.017358 75.816 
L 55.691174 81.36 
L 55.374367 86.904 
L 55.070452 92.448 
L 54.783919 97.992 
L 54.520549 103.536 
L 54.287852 109.08 
L 54.09568 114.624 
L 53.957118 120.168 
L 53.889782 125.712 
L 53.917778 131.256 
L 54.074722 136.8 
L 54.408547 142.344 
L 54.989441 147.888 
L 55.923541 153.432 
L 57.377761 158.976 
L 59.627848 164.52 
L 59.808 164.80284 
L 65.76 169.98361 
L 65.929365 170.064 
L 71.712 171.752187 
L 77.664 172.614202 
L 83.616 172.921676 
L 89.568 172.865978 
L 95.52 172.566761 
L 101.472 172.101734 
L 107.424 171.522915 
L 113.376 170.866003 
L 119.328 170.15599 
L 120.062608 170.064 
L 125.28 169.001762 
L 131.232 167.7534 
L 137.184 166.483672 
L 143.136 165.203732 
L 146.31059 164.52 
L 149.088 163.581224 
L 155.04 161.575867 
L 160.992 159.584016 
L 162.826078 158.976 
L 166.944 156.863757 
L 172.896 153.845556 
L 173.722232 153.432 
L 178.848 149.437816 
L 180.865334 147.888 
L 184.8 143.027222 
L 185.361462 142.344 
L 187.979657 136.8 
L 189.210574 131.256 
L 189.430153 125.712 
L 188.902036 120.168 
L 187.815287 114.624 
L 186.308075 109.08 
L 184.8 104.498893 
L 184.487771 103.536 
L 182.453103 97.992 
L 180.239486 92.448 
L 178.848 89.162344 
L 177.905069 86.904 
L 175.49208 81.36 
L 173.007665 75.816 
L 172.896 75.571767 
L 170.50424 70.272 
L 167.969028 64.728 
L 166.944 62.504139 
L 165.431121 59.184 
L 162.895304 53.64 
L 160.992 49.481081 
L 160.364078 48.096 
L 157.855904 42.552 
L 155.358123 37.008 
L 155.04 36.297765 
L 152.889476 31.464 
L 150.440713 25.92 
L 155.04 25.92 
L 160.992 25.92 
L 161.670174 25.92 
L 164.158909 31.464 
L 166.665676 37.008 
L 166.944 37.61996 
L 169.213005 42.552 
L 171.774157 48.096 
L 172.896 50.519394 
L 174.359526 53.64 
L 176.9582 59.184 
L 178.848 63.23101 
L 179.557034 64.728 
L 182.162195 70.272 
L 184.733207 75.816 
L 184.8 75.962948 
L 187.290466 81.36 
L 189.775192 86.904 
L 190.752 89.175934 
L 192.181176 92.448 
L 194.464195 97.992 
L 196.562654 103.536 
L 196.704 103.958649 
L 198.444831 109.08 
L 200.001131 114.624 
L 201.123276 120.168 
L 201.668593 125.712 
L 201.441863 131.256 
L 200.170855 136.8 
L 197.467386 142.344 
L 196.704 143.243635 
L 192.826646 147.888 
L 190.752 149.433394 
L 185.468001 153.432 
L 184.8 153.756703 
L 178.848 156.693866 
L 174.288584 158.976 
L 172.896 159.426489 
L 166.944 161.377139 
L 160.992 163.350287 
L 157.496695 164.52 
L 155.04 165.043868 
L 149.088 166.321684 
L 143.136 167.603605 
L 137.184 168.883545 
L 131.650478 170.064 
L 131.232 170.118908 
L 125.28 170.886721 
L 119.328 171.632047 
L 113.376 172.342061 
L 107.424 172.998973 
L 101.472 173.577791 
L 95.52 174.042819 
L 89.568 174.342035 
L 83.616 174.397734 
L 77.664 174.090259 
L 71.712 173.228244 
L 65.76 171.490613 
L 63.09523 170.064 
L 59.808 167.202713 
L 58.09927 164.52 
L 55.849183 158.976 
L 54.394963 153.432 
L 53.856 150.233187 
z
" clip-path="url(#pcaa1b6f0b8)" style="fill: #2f6b8e"/>
    <path d="M 52.722612 153.432 
L 51.988472 147.888 
L 51.634977 142.344 
L 51.458206 136.8 
L 51.380762 131.256 
L 51.3673 125.712 
L 51.399855 120.168 
L 51.46881 114.624 
L 51.569072 109.08 
L 51.698292 103.536 
L 51.855996 97.992 
L 52.043163 92.448 
L 52.262085 86.904 
L 52.516383 81.36 
L 52.811197 75.816 
L 53.153538 70.272 
L 53.552853 64.728 
L 53.856 61.045166 
L 53.970105 59.184 
L 54.311291 53.64 
L 54.65266 48.096 
L 54.993325 42.552 
L 55.332578 37.008 
L 55.669855 31.464 
L 56.004706 25.92 
L 57.533284 25.92 
L 57.198433 31.464 
L 56.861157 37.008 
L 56.521903 42.552 
L 56.181238 48.096 
L 55.839869 53.64 
L 55.498683 59.184 
L 55.158789 64.728 
L 54.821574 70.272 
L 54.48878 75.816 
L 54.162595 81.36 
L 53.856 86.725308 
L 53.845423 86.904 
L 53.546965 92.448 
L 53.291797 97.992 
L 53.076799 103.536 
L 52.900631 109.08 
L 52.763943 114.624 
L 52.669937 120.168 
L 52.625554 125.712 
L 52.643906 131.256 
L 52.749487 136.8 
L 52.990481 142.344 
L 53.472404 147.888 
L 53.856 150.233187 
L 54.394963 153.432 
L 55.849183 158.976 
L 58.09927 164.52 
L 59.808 167.202713 
L 63.09523 170.064 
L 65.76 171.490613 
L 71.712 173.228244 
L 77.664 174.090259 
L 83.616 174.397734 
L 89.568 174.342035 
L 95.52 174.042819 
L 101.472 173.577791 
L 107.424 172.998973 
L 113.376 172.342061 
L 119.328 171.632047 
L 125.28 170.886721 
L 131.232 170.118908 
L 131.650478 170.064 
L 137.184 168.883545 
L 143.136 167.603605 
L 149.088 166.321684 
L 155.04 165.043868 
L 157.496695 164.52 
L 160.992 163.350287 
L 166.944 161.377139 
L 172.896 159.426489 
L 174.288584 158.976 
L 178.848 156.693866 
L 184.8 153.756703 
L 185.468001 153.432 
L 190.752 149.433394 
L 192.826646 147.888 
L 196.704 143.243635 
L 197.467386 142.344 
L 200.170855 136.8 
L 201.441863 131.256 
L 201.668593 125.712 
L 201.123276 120.168 
L 200.001131 114.624 
L 198.444831 109.08 
L 196.704 103.958649 
L 196.562654 103.536 
L 194.464195 97.992 
L 192.181176 92.448 
L 190.752 89.175934 
L 189.775192 86.904 
L 187.290466 81.36 
L 184.8 75.962948 
L 184.733207 75.816 
L 182.162195 70.272 
L 179.557034 64.728 
L 178.848 63.23101 
L 176.9582 59.184 
L 174.359526 53.64 
L 172.896 50.519394 
L 171.774157 48.096 
L 169.213005 42.552 
L 166.944 37.61996 
L 166.665676 37.008 
L 164.158909 31.464 
L 161.670174 25.92 
L 166.944 25.92 
L 172.896 25.92 
L 173.104028 25.92 
L 175.654453 31.464 
L 178.223356 37.008 
L 178.848 38.348203 
L 180.835333 42.552 
L 183.467149 48.096 
L 184.8 50.897905 
L 186.124241 53.64 
L 188.800174 59.184 
L 190.752 63.243162 
L 191.477328 64.728 
L 194.164166 70.272 
L 196.704 75.582279 
L 196.81762 75.816 
L 199.459217 81.36 
L 202.024871 86.904 
L 202.656 88.325627 
L 204.516834 92.448 
L 206.876259 97.992 
L 208.608 102.418996 
L 209.052393 103.536 
L 211.001169 109.08 
L 212.610554 114.624 
L 213.770974 120.168 
L 214.334893 125.712 
L 214.100429 131.256 
L 212.786067 136.8 
L 209.990384 142.344 
L 208.608 143.919375 
L 205.183906 147.888 
L 202.656 149.710047 
L 197.577395 153.432 
L 196.704 153.84315 
L 190.752 156.691026 
L 186.051191 158.976 
L 184.8 159.369064 
L 178.848 161.267339 
L 172.896 163.192761 
L 168.846209 164.52 
L 166.944 164.917238 
L 160.992 166.174531 
L 155.04 167.443741 
L 149.088 168.721557 
L 143.136 170.003478 
L 142.85456 170.064 
L 137.184 170.927957 
L 131.232 171.594966 
L 125.28 172.362779 
L 119.328 173.108105 
L 113.376 173.818118 
L 107.424 174.475031 
L 101.472 175.053849 
L 95.52 175.518877 
L 93.747167 175.608 
L 89.568 175.880592 
L 83.616 175.948423 
L 78.470886 175.608 
L 77.664 175.566317 
L 71.712 174.704302 
L 65.76 172.966671 
L 60.338103 170.064 
L 59.808 169.602585 
L 56.570691 164.52 
L 54.320605 158.976 
L 53.856 157.204762 
z
" clip-path="url(#pcaa1b6f0b8)" style="fill: #39568c"/>
    <path d="M 52.163993 158.976 
L 50.971959 153.432 
L 50.50454 147.888 
L 50.279474 142.344 
L 50.166926 136.8 
L 50.117618 131.256 
L 50.109047 125.712 
L 50.129774 120.168 
L 50.173677 114.624 
L 50.237512 109.08 
L 50.319786 103.536 
L 50.420194 97.992 
L 50.539362 92.448 
L 50.678747 86.904 
L 50.840655 81.36 
L 51.028361 75.816 
L 51.246325 70.272 
L 51.500565 64.728 
L 51.799215 59.184 
L 52.153418 53.64 
L 52.578731 48.096 
L 53.097461 42.552 
L 53.742661 37.008 
L 53.856 36.153251 
L 54.141277 31.464 
L 54.476128 25.92 
L 56.004706 25.92 
L 55.669855 31.464 
L 55.332578 37.008 
L 54.993325 42.552 
L 54.65266 48.096 
L 54.311291 53.64 
L 53.970105 59.184 
L 53.856 61.045166 
L 53.552853 64.728 
L 53.153538 70.272 
L 52.811197 75.816 
L 52.516383 81.36 
L 52.262085 86.904 
L 52.043163 92.448 
L 51.855996 97.992 
L 51.698292 103.536 
L 51.569072 109.08 
L 51.46881 114.624 
L 51.399855 120.168 
L 51.3673 125.712 
L 51.380762 131.256 
L 51.458206 136.8 
L 51.634977 142.344 
L 51.988472 147.888 
L 52.722612 153.432 
L 53.856 157.204762 
L 54.320605 158.976 
L 56.570691 164.52 
L 59.808 169.602585 
L 60.338103 170.064 
L 65.76 172.966671 
L 71.712 174.704302 
L 77.664 175.566317 
L 78.470886 175.608 
L 83.616 175.948423 
L 89.568 175.880592 
L 93.747167 175.608 
L 95.52 175.518877 
L 101.472 175.053849 
L 107.424 174.475031 
L 113.376 173.818118 
L 119.328 173.108105 
L 125.28 172.362779 
L 131.232 171.594966 
L 137.184 170.927957 
L 142.85456 170.064 
L 143.136 170.003478 
L 149.088 168.721557 
L 155.04 167.443741 
L 160.992 166.174531 
L 166.944 164.917238 
L 168.846209 164.52 
L 172.896 163.192761 
L 178.848 161.267339 
L 184.8 159.369064 
L 186.051191 158.976 
L 190.752 156.691026 
L 196.704 153.84315 
L 197.577395 153.432 
L 202.656 149.710047 
L 205.183906 147.888 
L 208.608 143.919375 
L 209.990384 142.344 
L 212.786067 136.8 
L 214.100429 131.256 
L 214.334893 125.712 
L 213.770974 120.168 
L 212.610554 114.624 
L 211.001169 109.08 
L 209.052393 103.536 
L 208.608 102.418996 
L 206.876259 97.992 
L 204.516834 92.448 
L 202.656 88.325627 
L 202.024871 86.904 
L 199.459217 81.36 
L 196.81762 75.816 
L 196.704 75.582279 
L 194.164166 70.272 
L 191.477328 64.728 
L 190.752 63.243162 
L 188.800174 59.184 
L 186.124241 53.64 
L 184.8 50.897905 
L 183.467149 48.096 
L 180.835333 42.552 
L 178.848 38.348203 
L 178.223356 37.008 
L 175.654453 31.464 
L 173.104028 25.92 
L 178.848 25.92 
L 184.8 25.92 
L 184.831418 25.92 
L 187.457667 31.464 
L 190.102942 37.008 
L 190.752 38.360378 
L 192.795705 42.552 
L 195.510034 48.096 
L 196.704 50.529642 
L 198.255009 53.64 
L 201.018096 59.184 
L 202.656 62.482863 
L 203.78943 64.728 
L 206.566189 70.272 
L 208.608 74.402771 
L 209.318454 75.816 
L 212.050156 81.36 
L 214.56 86.604517 
L 214.56 86.904 
L 214.56 92.448 
L 214.56 97.992 
L 214.56 103.536 
L 214.56 109.08 
L 214.56 114.624 
L 214.56 120.168 
L 214.56 125.712 
L 214.56 131.256 
L 214.56 136.8 
L 214.56 142.344 
L 214.56 147.888 
L 214.56 150.274154 
L 210.104145 153.432 
L 208.608 154.113077 
L 202.656 156.86873 
L 198.17958 158.976 
L 196.704 159.424935 
L 190.752 161.265504 
L 184.8 163.135336 
L 180.458417 164.52 
L 178.848 164.920269 
L 172.896 166.074155 
L 166.944 167.317111 
L 160.992 168.574404 
L 155.04 169.843614 
L 154.013452 170.064 
L 149.088 171.177861 
L 143.136 172.045554 
L 137.184 172.628266 
L 131.232 173.071024 
L 125.28 173.838837 
L 119.328 174.584163 
L 113.376 175.294176 
L 110.532576 175.608 
L 107.424 176.257213 
L 101.472 177.064701 
L 95.52 177.543026 
L 89.568 177.79575 
L 83.616 177.838937 
L 77.664 177.585604 
L 71.712 176.612451 
L 69.751465 175.608 
L 65.76 174.442729 
L 59.808 171.813112 
L 57.930166 170.064 
L 55.042113 164.52 
L 53.856 161.597529 
z
" clip-path="url(#pcaa1b6f0b8)" style="fill: #424186"/>
    <path d="M 52.490424 164.52 
L 49.733137 158.976 
L 49.221307 153.432 
L 49.020608 147.888 
L 48.92397 142.344 
L 48.875645 136.8 
L 48.854473 131.256 
L 48.850793 125.712 
L 48.859693 120.168 
L 48.878544 114.624 
L 48.905953 109.08 
L 48.941279 103.536 
L 48.984392 97.992 
L 49.03556 92.448 
L 49.095408 86.904 
L 49.164928 81.36 
L 49.245524 75.816 
L 49.339113 70.272 
L 49.448277 64.728 
L 49.57651 59.184 
L 49.728596 53.64 
L 49.911215 48.096 
L 50.133945 42.552 
L 50.410978 37.008 
L 50.764245 31.464 
L 51.229479 25.92 
L 53.856 25.92 
L 54.476128 25.92 
L 54.141277 31.464 
L 53.856 36.153251 
L 53.742661 37.008 
L 53.097461 42.552 
L 52.578731 48.096 
L 52.153418 53.64 
L 51.799215 59.184 
L 51.500565 64.728 
L 51.246325 70.272 
L 51.028361 75.816 
L 50.840655 81.36 
L 50.678747 86.904 
L 50.539362 92.448 
L 50.420194 97.992 
L 50.319786 103.536 
L 50.237512 109.08 
L 50.173677 114.624 
L 50.129774 120.168 
L 50.109047 125.712 
L 50.117618 131.256 
L 50.166926 136.8 
L 50.279474 142.344 
L 50.50454 147.888 
L 50.971959 153.432 
L 52.163993 158.976 
L 53.856 161.597529 
L 55.042113 164.52 
L 57.930166 170.064 
L 59.808 171.813112 
L 65.76 174.442729 
L 69.751465 175.608 
L 71.712 176.612451 
L 77.664 177.585604 
L 83.616 177.838937 
L 89.568 177.79575 
L 95.52 177.543026 
L 101.472 177.064701 
L 107.424 176.257213 
L 110.532576 175.608 
L 113.376 175.294176 
L 119.328 174.584163 
L 125.28 173.838837 
L 131.232 173.071024 
L 137.184 172.628266 
L 143.136 172.045554 
L 149.088 171.177861 
L 154.013452 170.064 
L 155.04 169.843614 
L 160.992 168.574404 
L 166.944 167.317111 
L 172.896 166.074155 
L 178.848 164.920269 
L 180.458417 164.52 
L 184.8 163.135336 
L 190.752 161.265504 
L 196.704 159.424935 
L 198.17958 158.976 
L 202.656 156.86873 
L 208.608 154.113077 
L 210.104145 153.432 
L 214.56 150.274154 
L 214.56 153.432 
L 214.56 157.231077 
L 210.72687 158.976 
L 208.608 159.975619 
L 202.656 161.520646 
L 196.704 163.191206 
L 192.406971 164.52 
L 190.752 165.368022 
L 184.8 167.051566 
L 178.848 167.855408 
L 172.896 168.474028 
L 166.944 169.716984 
L 165.301232 170.064 
L 160.992 171.922022 
L 155.04 173.095904 
L 149.088 173.705807 
L 143.136 174.078373 
L 137.184 174.328575 
L 131.232 174.547081 
L 125.28 175.314894 
L 122.939328 175.608 
L 119.328 177.212137 
L 113.376 178.44287 
L 107.424 179.050298 
L 101.472 179.397014 
L 95.52 179.602395 
L 89.568 179.710908 
L 83.616 179.729452 
L 77.664 179.620677 
L 71.712 179.202829 
L 65.76 176.820126 
L 64.45867 175.608 
L 59.808 173.978568 
L 55.605347 170.064 
L 53.856 165.791968 
z
M 190.102942 37.008 
L 187.457667 31.464 
L 184.831418 25.92 
L 190.752 25.92 
L 196.704 25.92 
L 196.920079 25.92 
L 199.631864 31.464 
L 202.363295 37.008 
L 202.656 37.598643 
L 205.151929 42.552 
L 207.957099 48.096 
L 208.608 49.379758 
L 210.804873 53.64 
L 213.662207 59.184 
L 214.56 60.93258 
L 214.56 64.728 
L 214.56 70.272 
L 214.56 75.816 
L 214.56 81.36 
L 214.56 86.604517 
L 212.050156 81.36 
L 209.318454 75.816 
L 208.608 74.402771 
L 206.566189 70.272 
L 203.78943 64.728 
L 202.656 62.482863 
L 201.018096 59.184 
L 198.255009 53.64 
L 196.704 50.529642 
L 195.510034 48.096 
L 192.795705 42.552 
L 190.752 38.360378 
z
" clip-path="url(#pcaa1b6f0b8)" style="fill: #482979"/>
    <path d="M 36 186.696 
L 36 181.152 
L 36 175.608 
L 36 170.064 
L 36 164.52 
L 36 158.976 
L 36 153.432 
L 36 147.888 
L 36 142.344 
L 36 136.8 
L 36 131.256 
L 36 125.712 
L 36 120.168 
L 36 114.624 
L 36 109.08 
L 36 103.536 
L 36 97.992 
L 36 92.448 
L 36 86.904 
L 36 81.36 
L 36 75.816 
L 36 70.272 
L 36 64.728 
L 36 59.184 
L 36 53.64 
L 36 48.096 
L 36 42.552 
L 36 37.008 
L 36 31.464 
L 36 25.92 
L 41.952 25.92 
L 47.904 25.92 
L 51.229479 25.92 
L 50.764245 31.464 
L 50.410978 37.008 
L 50.133945 42.552 
L 49.911215 48.096 
L 49.728596 53.64 
L 49.57651 59.184 
L 49.448277 64.728 
L 49.339113 70.272 
L 49.245524 75.816 
L 49.164928 81.36 
L 49.095408 86.904 
L 49.03556 92.448 
L 48.984392 97.992 
L 48.941279 103.536 
L 48.905953 109.08 
L 48.878544 114.624 
L 48.859693 120.168 
L 48.850793 125.712 
L 48.854473 131.256 
L 48.875645 136.8 
L 48.92397 142.344 
L 49.020608 147.888 
L 49.221307 153.432 
L 49.733137 158.976 
L 52.490424 164.52 
L 53.856 165.791968 
L 55.605347 170.064 
L 59.808 173.978568 
L 64.45867 175.608 
L 65.76 176.820126 
L 71.712 179.202829 
L 77.664 179.620677 
L 83.616 179.729452 
L 89.568 179.710908 
L 95.52 179.602395 
L 101.472 179.397014 
L 107.424 179.050298 
L 113.376 178.44287 
L 119.328 177.212137 
L 122.939328 175.608 
L 125.28 175.314894 
L 131.232 174.547081 
L 137.184 174.328575 
L 143.136 174.078373 
L 149.088 173.705807 
L 155.04 173.095904 
L 160.992 171.922022 
L 165.301232 170.064 
L 166.944 169.716984 
L 172.896 168.474028 
L 178.848 167.855408 
L 184.8 167.051566 
L 190.752 165.368022 
L 192.406971 164.52 
L 196.704 163.191206 
L 202.656 161.520646 
L 208.608 159.975619 
L 210.72687 158.976 
L 214.56 157.231077 
L 214.56 158.976 
L 214.56 164.52 
L 214.56 170.064 
L 214.56 175.608 
L 214.56 181.152 
L 214.56 186.696 
L 214.56 192.24 
L 208.608 192.24 
L 202.656 192.24 
L 196.704 192.24 
L 190.752 192.24 
L 184.8 192.24 
L 178.848 192.24 
L 172.896 192.24 
L 166.944 192.24 
L 160.992 192.24 
L 155.04 192.24 
L 149.088 192.24 
L 143.136 192.24 
L 137.184 192.24 
L 131.232 192.24 
L 125.28 192.24 
L 119.328 192.24 
L 113.376 192.24 
L 107.424 192.24 
L 101.472 192.24 
L 95.52 192.24 
L 89.568 192.24 
L 83.616 192.24 
L 77.664 192.24 
L 71.712 192.24 
L 65.76 192.24 
L 59.808 192.24 
L 53.856 192.24 
L 47.904 192.24 
L 41.952 192.24 
L 36 192.24 
z
M 202.363295 37.008 
L 199.631864 31.464 
L 196.920079 25.92 
L 202.656 25.92 
L 208.608 25.92 
L 214.56 25.92 
L 214.56 31.464 
L 214.56 37.008 
L 214.56 42.552 
L 214.56 48.096 
L 214.56 53.64 
L 214.56 59.184 
L 214.56 60.93258 
L 213.662207 59.184 
L 210.804873 53.64 
L 208.608 49.379758 
L 207.957099 48.096 
L 205.151929 42.552 
L 202.656 37.598643 
z
" clip-path="url(#pcaa1b6f0b8)" style="fill: #470e61"/>
   </g>
   <g id="PathCollection_1">
    <defs>
     <path id="m9cc1ec5e9b" d="M -4.743416 4.743416 
L 4.743416 -4.743416 
M -4.743416 -4.743416 
L 4.743416 4.743416 
" style="stroke: #ffffff; stroke-width: 5"/>
    </defs>
    <g clip-path="url(#pcaa1b6f0b8)">
     <use xlink:href="#m9cc1ec5e9b" x="85.6" y="127.56" style="fill: #ffffff; stroke: #ffffff; stroke-width: 5"/>
    </g>
   </g>
   <g id="PathCollection_2">
    <defs>
     <path id="m6a7d27d9cb" d="M -4.330127 4.330127 
L 4.330127 -4.330127 
M -4.330127 -4.330127 
L 4.330127 4.330127 
" style="stroke: #000000; stroke-width: 2"/>
    </defs>
    <g clip-path="url(#pcaa1b6f0b8)">
     <use xlink:href="#m6a7d27d9cb" x="85.6" y="127.56" style="stroke: #000000; stroke-width: 2"/>
    </g>
   </g>
   <g id="matplotlib.axis_1">
    <g id="xtick_1">
     <g id="line2d_1">
      <defs>
       <path id="m553fe68ef8" d="M 0 0 
L 0 6 
" style="stroke: #000000; stroke-width: 2"/>
      </defs>
      <g>
       <use xlink:href="#m553fe68ef8" x="65.76" y="192.24" style="stroke: #000000; stroke-width: 2"/>
      </g>
     </g>
     <g id="text_1">
      <!-- $\mathdefault{200}$ -->
      <g transform="translate(52.39 212.377813) scale(0.14 -0.14)">
       <defs>
        <path id="DejaVuSans-32" d="M 1228 531 
L 3431 531 
L 3431 0 
L 469 0 
L 469 531 
Q 828 903 1448 1529 
Q 2069 2156 2228 2338 
Q 2531 2678 2651 2914 
Q 2772 3150 2772 3378 
Q 2772 3750 2511 3984 
Q 2250 4219 1831 4219 
Q 1534 4219 1204 4116 
Q 875 4013 500 3803 
L 500 4441 
Q 881 4594 1212 4672 
Q 1544 4750 1819 4750 
Q 2544 4750 2975 4387 
Q 3406 4025 3406 3419 
Q 3406 3131 3298 2873 
Q 3191 2616 2906 2266 
Q 2828 2175 2409 1742 
Q 1991 1309 1228 531 
z
" transform="scale(0.015625)"/>
        <path id="DejaVuSans-30" d="M 2034 4250 
Q 1547 4250 1301 3770 
Q 1056 3291 1056 2328 
Q 1056 1369 1301 889 
Q 1547 409 2034 409 
Q 2525 409 2770 889 
Q 3016 1369 3016 2328 
Q 3016 3291 2770 3770 
Q 2525 4250 2034 4250 
z
M 2034 4750 
Q 2819 4750 3233 4129 
Q 3647 3509 3647 2328 
Q 3647 1150 3233 529 
Q 2819 -91 2034 -91 
Q 1250 -91 836 529 
Q 422 1150 422 2328 
Q 422 3509 836 4129 
Q 1250 4750 2034 4750 
z
" transform="scale(0.015625)"/>
       </defs>
       <use xlink:href="#DejaVuSans-32" transform="translate(0 0.78125)"/>
       <use xlink:href="#DejaVuSans-30" transform="translate(63.623047 0.78125)"/>
       <use xlink:href="#DejaVuSans-30" transform="translate(127.246094 0.78125)"/>
      </g>
     </g>
    </g>
    <g id="xtick_2">
     <g id="line2d_2">
      <g>
       <use xlink:href="#m553fe68ef8" x="105.44" y="192.24" style="stroke: #000000; stroke-width: 2"/>
      </g>
     </g>
     <g id="text_2">
      <!-- $\mathdefault{400}$ -->
      <g transform="translate(92.07 212.377813) scale(0.14 -0.14)">
       <defs>
        <path id="DejaVuSans-34" d="M 2419 4116 
L 825 1625 
L 2419 1625 
L 2419 4116 
z
M 2253 4666 
L 3047 4666 
L 3047 1625 
L 3713 1625 
L 3713 1100 
L 3047 1100 
L 3047 0 
L 2419 0 
L 2419 1100 
L 313 1100 
L 313 1709 
L 2253 4666 
z
" transform="scale(0.015625)"/>
       </defs>
       <use xlink:href="#DejaVuSans-34" transform="translate(0 0.78125)"/>
       <use xlink:href="#DejaVuSans-30" transform="translate(63.623047 0.78125)"/>
       <use xlink:href="#DejaVuSans-30" transform="translate(127.246094 0.78125)"/>
      </g>
     </g>
    </g>
    <g id="xtick_3">
     <g id="line2d_3">
      <g>
       <use xlink:href="#m553fe68ef8" x="145.12" y="192.24" style="stroke: #000000; stroke-width: 2"/>
      </g>
     </g>
     <g id="text_3">
      <!-- $\mathdefault{600}$ -->
      <g transform="translate(131.75 212.377813) scale(0.14 -0.14)">
       <defs>
        <path id="DejaVuSans-36" d="M 2113 2584 
Q 1688 2584 1439 2293 
Q 1191 2003 1191 1497 
Q 1191 994 1439 701 
Q 1688 409 2113 409 
Q 2538 409 2786 701 
Q 3034 994 3034 1497 
Q 3034 2003 2786 2293 
Q 2538 2584 2113 2584 
z
M 3366 4563 
L 3366 3988 
Q 3128 4100 2886 4159 
Q 2644 4219 2406 4219 
Q 1781 4219 1451 3797 
Q 1122 3375 1075 2522 
Q 1259 2794 1537 2939 
Q 1816 3084 2150 3084 
Q 2853 3084 3261 2657 
Q 3669 2231 3669 1497 
Q 3669 778 3244 343 
Q 2819 -91 2113 -91 
Q 1303 -91 875 529 
Q 447 1150 447 2328 
Q 447 3434 972 4092 
Q 1497 4750 2381 4750 
Q 2619 4750 2861 4703 
Q 3103 4656 3366 4563 
z
" transform="scale(0.015625)"/>
       </defs>
       <use xlink:href="#DejaVuSans-36" transform="translate(0 0.78125)"/>
       <use xlink:href="#DejaVuSans-30" transform="translate(63.623047 0.78125)"/>
       <use xlink:href="#DejaVuSans-30" transform="translate(127.246094 0.78125)"/>
      </g>
     </g>
    </g>
    <g id="xtick_4">
     <g id="line2d_4">
      <g>
       <use xlink:href="#m553fe68ef8" x="184.8" y="192.24" style="stroke: #000000; stroke-width: 2"/>
      </g>
     </g>
     <g id="text_4">
      <!-- $\mathdefault{800}$ -->
      <g transform="translate(171.43 212.377813) scale(0.14 -0.14)">
       <defs>
        <path id="DejaVuSans-38" d="M 2034 2216 
Q 1584 2216 1326 1975 
Q 1069 1734 1069 1313 
Q 1069 891 1326 650 
Q 1584 409 2034 409 
Q 2484 409 2743 651 
Q 3003 894 3003 1313 
Q 3003 1734 2745 1975 
Q 2488 2216 2034 2216 
z
M 1403 2484 
Q 997 2584 770 2862 
Q 544 3141 544 3541 
Q 544 4100 942 4425 
Q 1341 4750 2034 4750 
Q 2731 4750 3128 4425 
Q 3525 4100 3525 3541 
Q 3525 3141 3298 2862 
Q 3072 2584 2669 2484 
Q 3125 2378 3379 2068 
Q 3634 1759 3634 1313 
Q 3634 634 3220 271 
Q 2806 -91 2034 -91 
Q 1263 -91 848 271 
Q 434 634 434 1313 
Q 434 1759 690 2068 
Q 947 2378 1403 2484 
z
M 1172 3481 
Q 1172 3119 1398 2916 
Q 1625 2713 2034 2713 
Q 2441 2713 2670 2916 
Q 2900 3119 2900 3481 
Q 2900 3844 2670 4047 
Q 2441 4250 2034 4250 
Q 1625 4250 1398 4047 
Q 1172 3844 1172 3481 
z
" transform="scale(0.015625)"/>
       </defs>
       <use xlink:href="#DejaVuSans-38" transform="translate(0 0.78125)"/>
       <use xlink:href="#DejaVuSans-30" transform="translate(63.623047 0.78125)"/>
       <use xlink:href="#DejaVuSans-30" transform="translate(127.246094 0.78125)"/>
      </g>
     </g>
    </g>
    <g id="text_5">
     <!-- Diploid N$_e$1 -->
     <g transform="translate(74.34 232.969375) scale(0.18 -0.18)">
      <defs>
       <path id="DejaVuSans-44" d="M 1259 4147 
L 1259 519 
L 2022 519 
Q 2988 519 3436 956 
Q 3884 1394 3884 2338 
Q 3884 3275 3436 3711 
Q 2988 4147 2022 4147 
L 1259 4147 
z
M 628 4666 
L 1925 4666 
Q 3281 4666 3915 4102 
Q 4550 3538 4550 2338 
Q 4550 1131 3912 565 
Q 3275 0 1925 0 
L 628 0 
L 628 4666 
z
" transform="scale(0.015625)"/>
       <path id="DejaVuSans-69" d="M 603 3500 
L 1178 3500 
L 1178 0 
L 603 0 
L 603 3500 
z
M 603 4863 
L 1178 4863 
L 1178 4134 
L 603 4134 
L 603 4863 
z
" transform="scale(0.015625)"/>
       <path id="DejaVuSans-70" d="M 1159 525 
L 1159 -1331 
L 581 -1331 
L 581 3500 
L 1159 3500 
L 1159 2969 
Q 1341 3281 1617 3432 
Q 1894 3584 2278 3584 
Q 2916 3584 3314 3078 
Q 3713 2572 3713 1747 
Q 3713 922 3314 415 
Q 2916 -91 2278 -91 
Q 1894 -91 1617 61 
Q 1341 213 1159 525 
z
M 3116 1747 
Q 3116 2381 2855 2742 
Q 2594 3103 2138 3103 
Q 1681 3103 1420 2742 
Q 1159 2381 1159 1747 
Q 1159 1113 1420 752 
Q 1681 391 2138 391 
Q 2594 391 2855 752 
Q 3116 1113 3116 1747 
z
" transform="scale(0.015625)"/>
       <path id="DejaVuSans-6c" d="M 603 4863 
L 1178 4863 
L 1178 0 
L 603 0 
L 603 4863 
z
" transform="scale(0.015625)"/>
       <path id="DejaVuSans-6f" d="M 1959 3097 
Q 1497 3097 1228 2736 
Q 959 2375 959 1747 
Q 959 1119 1226 758 
Q 1494 397 1959 397 
Q 2419 397 2687 759 
Q 2956 1122 2956 1747 
Q 2956 2369 2687 2733 
Q 2419 3097 1959 3097 
z
M 1959 3584 
Q 2709 3584 3137 3096 
Q 3566 2609 3566 1747 
Q 3566 888 3137 398 
Q 2709 -91 1959 -91 
Q 1206 -91 779 398 
Q 353 888 353 1747 
Q 353 2609 779 3096 
Q 1206 3584 1959 3584 
z
" transform="scale(0.015625)"/>
       <path id="DejaVuSans-64" d="M 2906 2969 
L 2906 4863 
L 3481 4863 
L 3481 0 
L 2906 0 
L 2906 525 
Q 2725 213 2448 61 
Q 2172 -91 1784 -91 
Q 1150 -91 751 415 
Q 353 922 353 1747 
Q 353 2572 751 3078 
Q 1150 3584 1784 3584 
Q 2172 3584 2448 3432 
Q 2725 3281 2906 2969 
z
M 947 1747 
Q 947 1113 1208 752 
Q 1469 391 1925 391 
Q 2381 391 2643 752 
Q 2906 1113 2906 1747 
Q 2906 2381 2643 2742 
Q 2381 3103 1925 3103 
Q 1469 3103 1208 2742 
Q 947 2381 947 1747 
z
" transform="scale(0.015625)"/>
       <path id="DejaVuSans-20" transform="scale(0.015625)"/>
       <path id="DejaVuSans-4e" d="M 628 4666 
L 1478 4666 
L 3547 763 
L 3547 4666 
L 4159 4666 
L 4159 0 
L 3309 0 
L 1241 3903 
L 1241 0 
L 628 0 
L 628 4666 
z
" transform="scale(0.015625)"/>
       <path id="DejaVuSans-Oblique-65" d="M 3078 2063 
Q 3088 2113 3092 2166 
Q 3097 2219 3097 2272 
Q 3097 2653 2873 2875 
Q 2650 3097 2266 3097 
Q 1838 3097 1509 2826 
Q 1181 2556 1013 2059 
L 3078 2063 
z
M 3578 1613 
L 903 1613 
Q 884 1494 878 1425 
Q 872 1356 872 1306 
Q 872 872 1139 634 
Q 1406 397 1894 397 
Q 2269 397 2603 481 
Q 2938 566 3225 728 
L 3116 159 
Q 2806 34 2476 -28 
Q 2147 -91 1806 -91 
Q 1078 -91 686 257 
Q 294 606 294 1247 
Q 294 1794 489 2264 
Q 684 2734 1063 3103 
Q 1306 3334 1642 3459 
Q 1978 3584 2356 3584 
Q 2950 3584 3301 3228 
Q 3653 2872 3653 2272 
Q 3653 2128 3634 1964 
Q 3616 1800 3578 1613 
z
" transform="scale(0.015625)"/>
       <path id="DejaVuSans-31" d="M 794 531 
L 1825 531 
L 1825 4091 
L 703 3866 
L 703 4441 
L 1819 4666 
L 2450 4666 
L 2450 531 
L 3481 531 
L 3481 0 
L 794 0 
L 794 531 
z
" transform="scale(0.015625)"/>
      </defs>
      <use xlink:href="#DejaVuSans-44" transform="translate(0 0.015625)"/>
      <use xlink:href="#DejaVuSans-69" transform="translate(77.001953 0.015625)"/>
      <use xlink:href="#DejaVuSans-70" transform="translate(104.785156 0.015625)"/>
      <use xlink:href="#DejaVuSans-6c" transform="translate(168.261719 0.015625)"/>
      <use xlink:href="#DejaVuSans-6f" transform="translate(196.044922 0.015625)"/>
      <use xlink:href="#DejaVuSans-69" transform="translate(257.226562 0.015625)"/>
      <use xlink:href="#DejaVuSans-64" transform="translate(285.009766 0.015625)"/>
      <use xlink:href="#DejaVuSans-20" transform="translate(348.486328 0.015625)"/>
      <use xlink:href="#DejaVuSans-4e" transform="translate(380.273438 0.015625)"/>
      <use xlink:href="#DejaVuSans-Oblique-65" transform="translate(456.035156 -16.390625) scale(0.7)"/>
      <use xlink:href="#DejaVuSans-31" transform="translate(501.835938 0.015625)"/>
     </g>
    </g>
    <g id="text_6">
     <!-- $\times\mathdefault{10^{3}}\mathdefault{}$ -->
     <g transform="translate(188.56 225.887812) scale(0.1 -0.1)">
      <defs>
       <path id="DejaVuSans-d7" d="M 4488 3438 
L 3059 2003 
L 4488 575 
L 4116 197 
L 2681 1631 
L 1247 197 
L 878 575 
L 2303 2003 
L 878 3438 
L 1247 3816 
L 2681 2381 
L 4116 3816 
L 4488 3438 
z
" transform="scale(0.015625)"/>
       <path id="DejaVuSans-33" d="M 2597 2516 
Q 3050 2419 3304 2112 
Q 3559 1806 3559 1356 
Q 3559 666 3084 287 
Q 2609 -91 1734 -91 
Q 1441 -91 1130 -33 
Q 819 25 488 141 
L 488 750 
Q 750 597 1062 519 
Q 1375 441 1716 441 
Q 2309 441 2620 675 
Q 2931 909 2931 1356 
Q 2931 1769 2642 2001 
Q 2353 2234 1838 2234 
L 1294 2234 
L 1294 2753 
L 1863 2753 
Q 2328 2753 2575 2939 
Q 2822 3125 2822 3475 
Q 2822 3834 2567 4026 
Q 2313 4219 1838 4219 
Q 1578 4219 1281 4162 
Q 984 4106 628 3988 
L 628 4550 
Q 988 4650 1302 4700 
Q 1616 4750 1894 4750 
Q 2613 4750 3031 4423 
Q 3450 4097 3450 3541 
Q 3450 3153 3228 2886 
Q 3006 2619 2597 2516 
z
" transform="scale(0.015625)"/>
      </defs>
      <use xlink:href="#DejaVuSans-d7" transform="translate(0 0.765625)"/>
      <use xlink:href="#DejaVuSans-31" transform="translate(83.789062 0.765625)"/>
      <use xlink:href="#DejaVuSans-30" transform="translate(147.412109 0.765625)"/>
      <use xlink:href="#DejaVuSans-33" transform="translate(211.992188 39.046875) scale(0.7)"/>
     </g>
    </g>
   </g>
   <g id="matplotlib.axis_2">
    <g id="ytick_1">
     <g id="line2d_5">
      <defs>
       <path id="m1081513f99" d="M 0 0 
L -6 0 
" style="stroke: #000000; stroke-width: 2"/>
      </defs>
      <g>
       <use xlink:href="#m1081513f99" x="36" y="164.52" style="stroke: #000000; stroke-width: 2"/>
      </g>
     </g>
     <g id="text_7">
      <!-- $\mathdefault{200}$ -->
      <g transform="translate(-0.24 169.838906) scale(0.14 -0.14)">
       <use xlink:href="#DejaVuSans-32" transform="translate(0 0.78125)"/>
       <use xlink:href="#DejaVuSans-30" transform="translate(63.623047 0.78125)"/>
       <use xlink:href="#DejaVuSans-30" transform="translate(127.246094 0.78125)"/>
      </g>
     </g>
    </g>
    <g id="ytick_2">
     <g id="line2d_6">
      <g>
       <use xlink:href="#m1081513f99" x="36" y="127.56" style="stroke: #000000; stroke-width: 2"/>
      </g>
     </g>
     <g id="text_8">
      <!-- $\mathdefault{400}$ -->
      <g transform="translate(-0.24 132.878906) scale(0.14 -0.14)">
       <use xlink:href="#DejaVuSans-34" transform="translate(0 0.78125)"/>
       <use xlink:href="#DejaVuSans-30" transform="translate(63.623047 0.78125)"/>
       <use xlink:href="#DejaVuSans-30" transform="translate(127.246094 0.78125)"/>
      </g>
     </g>
    </g>
    <g id="ytick_3">
     <g id="line2d_7">
      <g>
       <use xlink:href="#m1081513f99" x="36" y="90.6" style="stroke: #000000; stroke-width: 2"/>
      </g>
     </g>
     <g id="text_9">
      <!-- $\mathdefault{600}$ -->
      <g transform="translate(-0.24 95.918906) scale(0.14 -0.14)">
       <use xlink:href="#DejaVuSans-36" transform="translate(0 0.78125)"/>
       <use xlink:href="#DejaVuSans-30" transform="translate(63.623047 0.78125)"/>
       <use xlink:href="#DejaVuSans-30" transform="translate(127.246094 0.78125)"/>
      </g>
     </g>
    </g>
    <g id="ytick_4">
     <g id="line2d_8">
      <g>
       <use xlink:href="#m1081513f99" x="36" y="53.64" style="stroke: #000000; stroke-width: 2"/>
      </g>
     </g>
     <g id="text_10">
      <!-- $\mathdefault{800}$ -->
      <g transform="translate(-0.24 58.958906) scale(0.14 -0.14)">
       <use xlink:href="#DejaVuSans-38" transform="translate(0 0.78125)"/>
       <use xlink:href="#DejaVuSans-30" transform="translate(63.623047 0.78125)"/>
       <use xlink:href="#DejaVuSans-30" transform="translate(127.246094 0.78125)"/>
      </g>
     </g>
    </g>
    <g id="text_11">
     <!-- Diploid N$_e$2 -->
     <g transform="translate(-8.02 160.02) rotate(-90) scale(0.18 -0.18)">
      <use xlink:href="#DejaVuSans-44" transform="translate(0 0.015625)"/>
      <use xlink:href="#DejaVuSans-69" transform="translate(77.001953 0.015625)"/>
      <use xlink:href="#DejaVuSans-70" transform="translate(104.785156 0.015625)"/>
      <use xlink:href="#DejaVuSans-6c" transform="translate(168.261719 0.015625)"/>
      <use xlink:href="#DejaVuSans-6f" transform="translate(196.044922 0.015625)"/>
      <use xlink:href="#DejaVuSans-69" transform="translate(257.226562 0.015625)"/>
      <use xlink:href="#DejaVuSans-64" transform="translate(285.009766 0.015625)"/>
      <use xlink:href="#DejaVuSans-20" transform="translate(348.486328 0.015625)"/>
      <use xlink:href="#DejaVuSans-4e" transform="translate(380.273438 0.015625)"/>
      <use xlink:href="#DejaVuSans-Oblique-65" transform="translate(456.035156 -16.390625) scale(0.7)"/>
      <use xlink:href="#DejaVuSans-32" transform="translate(501.835938 0.015625)"/>
     </g>
    </g>
    <g id="text_12">
     <!-- $\times\mathdefault{10^{3}}\mathdefault{}$ -->
     <g transform="translate(36 22.92) scale(0.1 -0.1)">
      <use xlink:href="#DejaVuSans-d7" transform="translate(0 0.765625)"/>
      <use xlink:href="#DejaVuSans-31" transform="translate(83.789062 0.765625)"/>
      <use xlink:href="#DejaVuSans-30" transform="translate(147.412109 0.765625)"/>
      <use xlink:href="#DejaVuSans-33" transform="translate(211.992188 39.046875) scale(0.7)"/>
     </g>
    </g>
   </g>
   <g id="patch_3">
    <path d="M 36 192.24 
L 36 25.92 
" style="fill: none; stroke: #000000; stroke-width: 0.8; stroke-linejoin: miter; stroke-linecap: square"/>
   </g>
   <g id="patch_4">
    <path d="M 214.56 192.24 
L 214.56 25.92 
" style="fill: none; stroke: #000000; stroke-width: 0.8; stroke-linejoin: miter; stroke-linecap: square"/>
   </g>
   <g id="patch_5">
    <path d="M 36 192.24 
L 214.56 192.24 
" style="fill: none; stroke: #000000; stroke-width: 0.8; stroke-linejoin: miter; stroke-linecap: square"/>
   </g>
   <g id="patch_6">
    <path d="M 36 25.92 
L 214.56 25.92 
" style="fill: none; stroke: #000000; stroke-width: 0.8; stroke-linejoin: miter; stroke-linecap: square"/>
   </g>
   <g id="text_13">
    <!-- Ne1Ne2-MSC-G-P2-S4 -->
    <g transform="translate(37.60125 10.92) scale(0.16 -0.16)">
     <defs>
      <path id="DejaVuSans-65" d="M 3597 1894 
L 3597 1613 
L 953 1613 
Q 991 1019 1311 708 
Q 1631 397 2203 397 
Q 2534 397 2845 478 
Q 3156 559 3463 722 
L 3463 178 
Q 3153 47 2828 -22 
Q 2503 -91 2169 -91 
Q 1331 -91 842 396 
Q 353 884 353 1716 
Q 353 2575 817 3079 
Q 1281 3584 2069 3584 
Q 2775 3584 3186 3129 
Q 3597 2675 3597 1894 
z
M 3022 2063 
Q 3016 2534 2758 2815 
Q 2500 3097 2075 3097 
Q 1594 3097 1305 2825 
Q 1016 2553 972 2059 
L 3022 2063 
z
" transform="scale(0.015625)"/>
      <path id="DejaVuSans-2d" d="M 313 2009 
L 1997 2009 
L 1997 1497 
L 313 1497 
L 313 2009 
z
" transform="scale(0.015625)"/>
      <path id="DejaVuSans-4d" d="M 628 4666 
L 1569 4666 
L 2759 1491 
L 3956 4666 
L 4897 4666 
L 4897 0 
L 4281 0 
L 4281 4097 
L 3078 897 
L 2444 897 
L 1241 4097 
L 1241 0 
L 628 0 
L 628 4666 
z
" transform="scale(0.015625)"/>
      <path id="DejaVuSans-53" d="M 3425 4513 
L 3425 3897 
Q 3066 4069 2747 4153 
Q 2428 4238 2131 4238 
Q 1616 4238 1336 4038 
Q 1056 3838 1056 3469 
Q 1056 3159 1242 3001 
Q 1428 2844 1947 2747 
L 2328 2669 
Q 3034 2534 3370 2195 
Q 3706 1856 3706 1288 
Q 3706 609 3251 259 
Q 2797 -91 1919 -91 
Q 1588 -91 1214 -16 
Q 841 59 441 206 
L 441 856 
Q 825 641 1194 531 
Q 1563 422 1919 422 
Q 2459 422 2753 634 
Q 3047 847 3047 1241 
Q 3047 1584 2836 1778 
Q 2625 1972 2144 2069 
L 1759 2144 
Q 1053 2284 737 2584 
Q 422 2884 422 3419 
Q 422 4038 858 4394 
Q 1294 4750 2059 4750 
Q 2388 4750 2728 4690 
Q 3069 4631 3425 4513 
z
" transform="scale(0.015625)"/>
      <path id="DejaVuSans-43" d="M 4122 4306 
L 4122 3641 
Q 3803 3938 3442 4084 
Q 3081 4231 2675 4231 
Q 1875 4231 1450 3742 
Q 1025 3253 1025 2328 
Q 1025 1406 1450 917 
Q 1875 428 2675 428 
Q 3081 428 3442 575 
Q 3803 722 4122 1019 
L 4122 359 
Q 3791 134 3420 21 
Q 3050 -91 2638 -91 
Q 1578 -91 968 557 
Q 359 1206 359 2328 
Q 359 3453 968 4101 
Q 1578 4750 2638 4750 
Q 3056 4750 3426 4639 
Q 3797 4528 4122 4306 
z
" transform="scale(0.015625)"/>
      <path id="DejaVuSans-47" d="M 3809 666 
L 3809 1919 
L 2778 1919 
L 2778 2438 
L 4434 2438 
L 4434 434 
Q 4069 175 3628 42 
Q 3188 -91 2688 -91 
Q 1594 -91 976 548 
Q 359 1188 359 2328 
Q 359 3472 976 4111 
Q 1594 4750 2688 4750 
Q 3144 4750 3555 4637 
Q 3966 4525 4313 4306 
L 4313 3634 
Q 3963 3931 3569 4081 
Q 3175 4231 2741 4231 
Q 1884 4231 1454 3753 
Q 1025 3275 1025 2328 
Q 1025 1384 1454 906 
Q 1884 428 2741 428 
Q 3075 428 3337 486 
Q 3600 544 3809 666 
z
" transform="scale(0.015625)"/>
      <path id="DejaVuSans-50" d="M 1259 4147 
L 1259 2394 
L 2053 2394 
Q 2494 2394 2734 2622 
Q 2975 2850 2975 3272 
Q 2975 3691 2734 3919 
Q 2494 4147 2053 4147 
L 1259 4147 
z
M 628 4666 
L 2053 4666 
Q 2838 4666 3239 4311 
Q 3641 3956 3641 3272 
Q 3641 2581 3239 2228 
Q 2838 1875 2053 1875 
L 1259 1875 
L 1259 0 
L 628 0 
L 628 4666 
z
" transform="scale(0.015625)"/>
     </defs>
     <use xlink:href="#DejaVuSans-4e"/>
     <use xlink:href="#DejaVuSans-65" x="74.804688"/>
     <use xlink:href="#DejaVuSans-31" x="136.328125"/>
     <use xlink:href="#DejaVuSans-4e" x="199.951172"/>
     <use xlink:href="#DejaVuSans-65" x="274.755859"/>
     <use xlink:href="#DejaVuSans-32" x="336.279297"/>
     <use xlink:href="#DejaVuSans-2d" x="399.902344"/>
     <use xlink:href="#DejaVuSans-4d" x="435.986328"/>
     <use xlink:href="#DejaVuSans-53" x="522.265625"/>
     <use xlink:href="#DejaVuSans-43" x="585.742188"/>
     <use xlink:href="#DejaVuSans-2d" x="655.566406"/>
     <use xlink:href="#DejaVuSans-47" x="695.275391"/>
     <use xlink:href="#DejaVuSans-2d" x="772.765625"/>
     <use xlink:href="#DejaVuSans-50" x="808.849609"/>
     <use xlink:href="#DejaVuSans-32" x="869.152344"/>
     <use xlink:href="#DejaVuSans-2d" x="932.775391"/>
     <use xlink:href="#DejaVuSans-53" x="968.859375"/>
     <use xlink:href="#DejaVuSans-34" x="1032.335938"/>
    </g>
   </g>
  </g>
  <g id="axes_2">
   <g id="patch_7">
    <path d="M 225.72 192.24 
L 234.036 192.24 
L 234.036 25.92 
L 225.72 25.92 
z
" style="fill: #ffffff"/>
   </g>
   <g id="QuadMesh_1">
    <path d="M 225.72 192.24 
L 234.036 192.24 
L 234.036 179.446154 
L 225.72 179.446154 
L 225.72 192.24 
" clip-path="url(#p74907a4df3)" style="fill: #e7e419"/>
    <path d="M 225.72 179.446154 
L 234.036 179.446154 
L 234.036 166.652308 
L 225.72 166.652308 
L 225.72 179.446154 
" clip-path="url(#p74907a4df3)" style="fill: #b2dd2d"/>
    <path d="M 225.72 166.652308 
L 234.036 166.652308 
L 234.036 153.858462 
L 225.72 153.858462 
L 225.72 166.652308 
" clip-path="url(#p74907a4df3)" style="fill: #7fd34e"/>
    <path d="M 225.72 153.858462 
L 234.036 153.858462 
L 234.036 141.064615 
L 225.72 141.064615 
L 225.72 153.858462 
" clip-path="url(#p74907a4df3)" style="fill: #54c568"/>
    <path d="M 225.72 141.064615 
L 234.036 141.064615 
L 234.036 128.270769 
L 225.72 128.270769 
L 225.72 141.064615 
" clip-path="url(#p74907a4df3)" style="fill: #31b57b"/>
    <path d="M 225.72 128.270769 
L 234.036 128.270769 
L 234.036 115.476923 
L 225.72 115.476923 
L 225.72 128.270769 
" clip-path="url(#p74907a4df3)" style="fill: #1fa287"/>
    <path d="M 225.72 115.476923 
L 234.036 115.476923 
L 234.036 102.683077 
L 225.72 102.683077 
L 225.72 115.476923 
" clip-path="url(#p74907a4df3)" style="fill: #21908d"/>
    <path d="M 225.72 102.683077 
L 234.036 102.683077 
L 234.036 89.889231 
L 225.72 89.889231 
L 225.72 102.683077 
" clip-path="url(#p74907a4df3)" style="fill: #277e8e"/>
    <path d="M 225.72 89.889231 
L 234.036 89.889231 
L 234.036 77.095385 
L 225.72 77.095385 
L 225.72 89.889231 
" clip-path="url(#p74907a4df3)" style="fill: #2f6b8e"/>
    <path d="M 225.72 77.095385 
L 234.036 77.095385 
L 234.036 64.301538 
L 225.72 64.301538 
L 225.72 77.095385 
" clip-path="url(#p74907a4df3)" style="fill: #39568c"/>
    <path d="M 225.72 64.301538 
L 234.036 64.301538 
L 234.036 51.507692 
L 225.72 51.507692 
L 225.72 64.301538 
" clip-path="url(#p74907a4df3)" style="fill: #424186"/>
    <path d="M 225.72 51.507692 
L 234.036 51.507692 
L 234.036 38.713846 
L 225.72 38.713846 
L 225.72 51.507692 
" clip-path="url(#p74907a4df3)" style="fill: #482979"/>
    <path d="M 225.72 38.713846 
L 234.036 38.713846 
L 234.036 25.92 
L 225.72 25.92 
L 225.72 38.713846 
" clip-path="url(#p74907a4df3)" style="fill: #470e61"/>
   </g>
   <g id="matplotlib.axis_3"/>
   <g id="matplotlib.axis_4">
    <g id="ytick_5">
     <g id="line2d_9">
      <defs>
       <path id="m90f7bc3971" d="M 0 0 
L 3.5 0 
" style="stroke: #000000; stroke-width: 0.8"/>
      </defs>
      <g>
       <use xlink:href="#m90f7bc3971" x="234.036" y="192.24" style="stroke: #000000; stroke-width: 0.8"/>
      </g>
     </g>
     <g id="text_14">
      <!-- $\mathdefault{0}$ -->
      <g transform="translate(241.036 196.039219) scale(0.1 -0.1)">
       <use xlink:href="#DejaVuSans-30" transform="translate(0 0.78125)"/>
      </g>
     </g>
    </g>
    <g id="ytick_6">
     <g id="line2d_10">
      <g>
       <use xlink:href="#m90f7bc3971" x="234.036" y="166.652308" style="stroke: #000000; stroke-width: 0.8"/>
      </g>
     </g>
     <g id="text_15">
      <!-- $\mathdefault{40}$ -->
      <g transform="translate(241.036 170.451526) scale(0.1 -0.1)">
       <use xlink:href="#DejaVuSans-34" transform="translate(0 0.78125)"/>
       <use xlink:href="#DejaVuSans-30" transform="translate(63.623047 0.78125)"/>
      </g>
     </g>
    </g>
    <g id="ytick_7">
     <g id="line2d_11">
      <g>
       <use xlink:href="#m90f7bc3971" x="234.036" y="141.064615" style="stroke: #000000; stroke-width: 0.8"/>
      </g>
     </g>
     <g id="text_16">
      <!-- $\mathdefault{80}$ -->
      <g transform="translate(241.036 144.863834) scale(0.1 -0.1)">
       <use xlink:href="#DejaVuSans-38" transform="translate(0 0.78125)"/>
       <use xlink:href="#DejaVuSans-30" transform="translate(63.623047 0.78125)"/>
      </g>
     </g>
    </g>
    <g id="ytick_8">
     <g id="line2d_12">
      <g>
       <use xlink:href="#m90f7bc3971" x="234.036" y="115.476923" style="stroke: #000000; stroke-width: 0.8"/>
      </g>
     </g>
     <g id="text_17">
      <!-- $\mathdefault{120}$ -->
      <g transform="translate(241.036 119.276142) scale(0.1 -0.1)">
       <use xlink:href="#DejaVuSans-31" transform="translate(0 0.78125)"/>
       <use xlink:href="#DejaVuSans-32" transform="translate(63.623047 0.78125)"/>
       <use xlink:href="#DejaVuSans-30" transform="translate(127.246094 0.78125)"/>
      </g>
     </g>
    </g>
    <g id="ytick_9">
     <g id="line2d_13">
      <g>
       <use xlink:href="#m90f7bc3971" x="234.036" y="89.889231" style="stroke: #000000; stroke-width: 0.8"/>
      </g>
     </g>
     <g id="text_18">
      <!-- $\mathdefault{160}$ -->
      <g transform="translate(241.036 93.68845) scale(0.1 -0.1)">
       <use xlink:href="#DejaVuSans-31" transform="translate(0 0.78125)"/>
       <use xlink:href="#DejaVuSans-36" transform="translate(63.623047 0.78125)"/>
       <use xlink:href="#DejaVuSans-30" transform="translate(127.246094 0.78125)"/>
      </g>
     </g>
    </g>
    <g id="ytick_10">
     <g id="line2d_14">
      <g>
       <use xlink:href="#m90f7bc3971" x="234.036" y="64.301538" style="stroke: #000000; stroke-width: 0.8"/>
      </g>
     </g>
     <g id="text_19">
      <!-- $\mathdefault{200}$ -->
      <g transform="translate(241.036 68.100757) scale(0.1 -0.1)">
       <use xlink:href="#DejaVuSans-32" transform="translate(0 0.78125)"/>
       <use xlink:href="#DejaVuSans-30" transform="translate(63.623047 0.78125)"/>
       <use xlink:href="#DejaVuSans-30" transform="translate(127.246094 0.78125)"/>
      </g>
     </g>
    </g>
    <g id="ytick_11">
     <g id="line2d_15">
      <g>
       <use xlink:href="#m90f7bc3971" x="234.036" y="38.713846" style="stroke: #000000; stroke-width: 0.8"/>
      </g>
     </g>
     <g id="text_20">
      <!-- $\mathdefault{240}$ -->
      <g transform="translate(241.036 42.513065) scale(0.1 -0.1)">
       <use xlink:href="#DejaVuSans-32" transform="translate(0 0.78125)"/>
       <use xlink:href="#DejaVuSans-34" transform="translate(63.623047 0.78125)"/>
       <use xlink:href="#DejaVuSans-30" transform="translate(127.246094 0.78125)"/>
      </g>
     </g>
    </g>
    <g id="text_21">
     <!-- $\Delta$ log likelihood -->
     <g transform="translate(273.256 154.98) rotate(-90) scale(0.12 -0.12)">
      <defs>
       <path id="DejaVuSans-394" d="M 2188 4044 
L 906 525 
L 3472 525 
L 2188 4044 
z
M 50 0 
L 1831 4666 
L 2547 4666 
L 4325 0 
L 50 0 
z
" transform="scale(0.015625)"/>
       <path id="DejaVuSans-67" d="M 2906 1791 
Q 2906 2416 2648 2759 
Q 2391 3103 1925 3103 
Q 1463 3103 1205 2759 
Q 947 2416 947 1791 
Q 947 1169 1205 825 
Q 1463 481 1925 481 
Q 2391 481 2648 825 
Q 2906 1169 2906 1791 
z
M 3481 434 
Q 3481 -459 3084 -895 
Q 2688 -1331 1869 -1331 
Q 1566 -1331 1297 -1286 
Q 1028 -1241 775 -1147 
L 775 -588 
Q 1028 -725 1275 -790 
Q 1522 -856 1778 -856 
Q 2344 -856 2625 -561 
Q 2906 -266 2906 331 
L 2906 616 
Q 2728 306 2450 153 
Q 2172 0 1784 0 
Q 1141 0 747 490 
Q 353 981 353 1791 
Q 353 2603 747 3093 
Q 1141 3584 1784 3584 
Q 2172 3584 2450 3431 
Q 2728 3278 2906 2969 
L 2906 3500 
L 3481 3500 
L 3481 434 
z
" transform="scale(0.015625)"/>
       <path id="DejaVuSans-6b" d="M 581 4863 
L 1159 4863 
L 1159 1991 
L 2875 3500 
L 3609 3500 
L 1753 1863 
L 3688 0 
L 2938 0 
L 1159 1709 
L 1159 0 
L 581 0 
L 581 4863 
z
" transform="scale(0.015625)"/>
       <path id="DejaVuSans-68" d="M 3513 2113 
L 3513 0 
L 2938 0 
L 2938 2094 
Q 2938 2591 2744 2837 
Q 2550 3084 2163 3084 
Q 1697 3084 1428 2787 
Q 1159 2491 1159 1978 
L 1159 0 
L 581 0 
L 581 4863 
L 1159 4863 
L 1159 2956 
Q 1366 3272 1645 3428 
Q 1925 3584 2291 3584 
Q 2894 3584 3203 3211 
Q 3513 2838 3513 2113 
z
" transform="scale(0.015625)"/>
      </defs>
      <use xlink:href="#DejaVuSans-394" transform="translate(0 0.015625)"/>
      <use xlink:href="#DejaVuSans-20" transform="translate(68.408203 0.015625)"/>
      <use xlink:href="#DejaVuSans-6c" transform="translate(100.195312 0.015625)"/>
      <use xlink:href="#DejaVuSans-6f" transform="translate(127.978516 0.015625)"/>
      <use xlink:href="#DejaVuSans-67" transform="translate(189.160156 0.015625)"/>
      <use xlink:href="#DejaVuSans-20" transform="translate(252.636719 0.015625)"/>
      <use xlink:href="#DejaVuSans-6c" transform="translate(284.423828 0.015625)"/>
      <use xlink:href="#DejaVuSans-69" transform="translate(312.207031 0.015625)"/>
      <use xlink:href="#DejaVuSans-6b" transform="translate(339.990234 0.015625)"/>
      <use xlink:href="#DejaVuSans-65" transform="translate(397.900391 0.015625)"/>
      <use xlink:href="#DejaVuSans-6c" transform="translate(459.423828 0.015625)"/>
      <use xlink:href="#DejaVuSans-69" transform="translate(487.207031 0.015625)"/>
      <use xlink:href="#DejaVuSans-68" transform="translate(514.990234 0.015625)"/>
      <use xlink:href="#DejaVuSans-6f" transform="translate(578.369141 0.015625)"/>
      <use xlink:href="#DejaVuSans-6f" transform="translate(639.550781 0.015625)"/>
      <use xlink:href="#DejaVuSans-64" transform="translate(700.732422 0.015625)"/>
     </g>
    </g>
    <g id="text_22">
     <!-- $\times\mathdefault{10^{3}}\mathdefault{}$ -->
     <g transform="translate(208.036 22.92) scale(0.1 -0.1)">
      <use xlink:href="#DejaVuSans-d7" transform="translate(0 0.765625)"/>
      <use xlink:href="#DejaVuSans-31" transform="translate(83.789062 0.765625)"/>
      <use xlink:href="#DejaVuSans-30" transform="translate(147.412109 0.765625)"/>
      <use xlink:href="#DejaVuSans-33" transform="translate(211.992188 39.046875) scale(0.7)"/>
     </g>
    </g>
   </g>
   <g id="LineCollection_1"/>
   <g id="patch_8">
    <path d="M 225.72 192.24 
L 229.878 192.24 
L 234.036 192.24 
L 234.036 25.92 
L 229.878 25.92 
L 225.72 25.92 
L 225.72 192.24 
z
" style="fill: none; stroke: #000000; stroke-width: 0.8; stroke-linejoin: miter; stroke-linecap: square"/>
   </g>
  </g>
 </g>
 <defs>
  <clipPath id="pcaa1b6f0b8">
   <rect x="36" y="25.92" width="178.56" height="166.32"/>
  </clipPath>
  <clipPath id="p74907a4df3">
   <rect x="225.72" y="25.92" width="8.316" height="166.32"/>
  </clipPath>
 </defs>
</svg>
