<?xml version="1.0" encoding="utf-8" standalone="no"?>
<!DOCTYPE svg PUBLIC "-//W3C//DTD SVG 1.1//EN"
  "http://www.w3.org/Graphics/SVG/1.1/DTD/svg11.dtd">
<svg xmlns:xlink="http://www.w3.org/1999/xlink" width="288pt" height="216pt" viewBox="0 0 288 216" xmlns="http://www.w3.org/2000/svg" version="1.1">
 <metadata>
  <rdf:RDF xmlns:dc="http://purl.org/dc/elements/1.1/" xmlns:cc="http://creativecommons.org/ns#" xmlns:rdf="http://www.w3.org/1999/02/22-rdf-syntax-ns#">
   <cc:Work>
    <dc:type rdf:resource="http://purl.org/dc/dcmitype/StillImage"/>
    <dc:date>2023-07-18T18:02:20.164845</dc:date>
    <dc:format>image/svg+xml</dc:format>
    <dc:creator>
     <cc:Agent>
      <dc:title>Matplotlib v3.7.1, https://matplotlib.org/</dc:title>
     </cc:Agent>
    </dc:creator>
   </cc:Work>
  </rdf:RDF>
 </metadata>
 <defs>
  <style type="text/css">*{stroke-linejoin: round; stroke-linecap: butt}</style>
 </defs>
 <g id="figure_1">
  <g id="patch_1">
   <path d="M 0 216 
L 288 216 
L 288 0 
L 0 0 
z
" style="fill: #ffffff"/>
  </g>
  <g id="axes_1">
   <g id="patch_2">
    <path d="M 36 192.24 
L 214.56 192.24 
L 214.56 25.92 
L 36 25.92 
z
" style="fill: #ffffff"/>
   </g>
   <g id="PathCollection_1">
    <path d="M 37.069575 192.24 
L 36 192.24 
L 36 191.650261 
z
" clip-path="url(#pdb20df23e2)" style="fill: #440154"/>
   </g>
   <g id="PathCollection_2">
    <path d="M 38.21015 192.24 
L 37.069575 192.24 
L 36 191.650261 
L 36 191.021375 
z
" clip-path="url(#pdb20df23e2)" style="fill: #440154"/>
   </g>
   <g id="PathCollection_3">
    <path d="M 39.350725 192.24 
L 38.21015 192.24 
L 36 191.021375 
L 36 190.392489 
z
" clip-path="url(#pdb20df23e2)" style="fill: #440154"/>
   </g>
   <g id="PathCollection_4">
    <path d="M 40.491299 192.24 
L 39.350725 192.24 
L 36 190.392489 
L 36 189.763603 
z
" clip-path="url(#pdb20df23e2)" style="fill: #440154"/>
   </g>
   <g id="PathCollection_5">
    <path d="M 41.631874 192.24 
L 40.491299 192.24 
L 36 189.763603 
L 36 189.134717 
z
" clip-path="url(#pdb20df23e2)" style="fill: #440154"/>
   </g>
   <g id="PathCollection_6">
    <path d="M 41.952 191.787626 
L 43.964139 192.24 
L 41.952 192.24 
L 41.631874 192.24 
L 36 189.134717 
L 36 188.505831 
z
" clip-path="url(#pdb20df23e2)" style="fill: #440154"/>
   </g>
   <g id="PathCollection_7">
    <path d="M 41.952 191.158743 
L 46.761381 192.24 
L 43.964139 192.24 
L 41.952 191.787626 
L 36 188.505831 
L 36 187.876944 
z
" clip-path="url(#pdb20df23e2)" style="fill: #440154"/>
   </g>
   <g id="PathCollection_8">
    <path d="M 41.952 190.52986 
L 47.904 191.868005 
L 51.170158 192.24 
L 47.904 192.24 
L 46.761381 192.24 
L 41.952 191.158743 
L 36 187.876944 
L 36 187.248058 
z
" clip-path="url(#pdb20df23e2)" style="fill: #440154"/>
   </g>
   <g id="PathCollection_9">
    <path d="M 36 186.696 
L 36 186.511803 
L 36.139337 186.696 
L 41.952 189.900977 
L 47.904 191.239125 
L 53.856 191.917021 
L 58.878801 192.24 
L 53.856 192.24 
L 51.170158 192.24 
L 47.904 191.868005 
L 41.952 190.52986 
L 36 187.248058 
z
" clip-path="url(#pdb20df23e2)" style="fill: #440154"/>
   </g>
   <g id="PathCollection_10">
    <path d="M 36.139337 186.696 
L 36 186.511803 
L 36 185.004026 
L 37.279902 186.696 
L 41.952 189.272094 
L 47.904 190.610244 
L 53.856 191.288143 
L 59.808 191.670872 
L 65.76 191.899707 
L 71.712 192.039983 
L 77.664 192.12569 
L 83.616 192.176062 
L 89.568 192.202688 
L 95.52 192.2129 
L 101.472 192.211522 
L 107.424 192.201829 
L 113.376 192.186102 
L 119.328 192.165967 
L 125.28 192.142603 
L 131.232 192.116879 
L 137.184 192.089441 
L 143.136 192.06078 
L 149.088 192.031267 
L 155.04 192.001187 
L 160.992 191.970762 
L 166.944 191.940162 
L 172.896 191.90952 
L 178.848 191.878939 
L 184.8 191.8485 
L 190.752 191.818265 
L 196.704 191.788282 
L 202.656 191.75859 
L 208.608 191.729215 
L 214.56 191.70018 
L 214.56 192.24 
L 208.608 192.24 
L 202.656 192.24 
L 196.704 192.24 
L 190.752 192.24 
L 184.8 192.24 
L 178.848 192.24 
L 172.896 192.24 
L 166.944 192.24 
L 160.992 192.24 
L 155.04 192.24 
L 149.088 192.24 
L 143.136 192.24 
L 137.184 192.24 
L 131.232 192.24 
L 125.28 192.24 
L 119.328 192.24 
L 113.376 192.24 
L 107.424 192.24 
L 101.472 192.24 
L 95.52 192.24 
L 89.568 192.24 
L 83.616 192.24 
L 77.664 192.24 
L 71.712 192.24 
L 65.76 192.24 
L 59.808 192.24 
L 58.878801 192.24 
L 53.856 191.917021 
L 47.904 191.239125 
L 41.952 189.900977 
z
" clip-path="url(#pdb20df23e2)" style="fill: #440154"/>
   </g>
   <g id="PathCollection_11">
    <path d="M 37.279902 186.696 
L 36 185.004026 
L 36 183.496249 
L 38.420467 186.696 
L 41.952 188.643212 
L 47.904 189.981364 
L 53.856 190.659264 
L 59.808 191.041994 
L 65.76 191.27083 
L 71.712 191.411106 
L 77.664 191.496813 
L 83.616 191.547185 
L 89.568 191.57381 
L 95.52 191.584022 
L 101.472 191.582643 
L 107.424 191.572949 
L 113.376 191.557222 
L 119.328 191.537086 
L 125.28 191.513722 
L 131.232 191.487997 
L 137.184 191.460559 
L 143.136 191.431897 
L 149.088 191.402383 
L 155.04 191.372303 
L 160.992 191.341877 
L 166.944 191.311277 
L 172.896 191.280634 
L 178.848 191.250052 
L 184.8 191.219613 
L 190.752 191.189377 
L 196.704 191.159395 
L 202.656 191.129702 
L 208.608 191.100327 
L 214.56 191.071291 
L 214.56 191.70018 
L 208.608 191.729215 
L 202.656 191.75859 
L 196.704 191.788282 
L 190.752 191.818265 
L 184.8 191.8485 
L 178.848 191.878939 
L 172.896 191.90952 
L 166.944 191.940162 
L 160.992 191.970762 
L 155.04 192.001187 
L 149.088 192.031267 
L 143.136 192.06078 
L 137.184 192.089441 
L 131.232 192.116879 
L 125.28 192.142603 
L 119.328 192.165967 
L 113.376 192.186102 
L 107.424 192.201829 
L 101.472 192.211522 
L 95.52 192.2129 
L 89.568 192.202688 
L 83.616 192.176062 
L 77.664 192.12569 
L 71.712 192.039983 
L 65.76 191.899707 
L 59.808 191.670872 
L 53.856 191.288143 
L 47.904 190.610244 
L 41.952 189.272094 
z
" clip-path="url(#pdb20df23e2)" style="fill: #440154"/>
   </g>
   <g id="PathCollection_12">
    <path d="M 38.420467 186.696 
L 36 183.496249 
L 36 181.988472 
L 39.561031 186.696 
L 41.952 188.014329 
L 47.904 189.352483 
L 53.856 190.030385 
L 59.808 190.413117 
L 65.76 190.641953 
L 71.712 190.782229 
L 77.664 190.867936 
L 83.616 190.918308 
L 89.568 190.944932 
L 95.52 190.955144 
L 101.472 190.953764 
L 107.424 190.94407 
L 113.376 190.928342 
L 119.328 190.908206 
L 125.28 190.884841 
L 131.232 190.859115 
L 137.184 190.831676 
L 143.136 190.803013 
L 149.088 190.773499 
L 155.04 190.743419 
L 160.992 190.712993 
L 166.944 190.682391 
L 172.896 190.651748 
L 178.848 190.621166 
L 184.8 190.590726 
L 190.752 190.56049 
L 196.704 190.530507 
L 202.656 190.500813 
L 208.608 190.471438 
L 214.56 190.442402 
L 214.56 191.071291 
L 208.608 191.100327 
L 202.656 191.129702 
L 196.704 191.159395 
L 190.752 191.189377 
L 184.8 191.219613 
L 178.848 191.250052 
L 172.896 191.280634 
L 166.944 191.311277 
L 160.992 191.341877 
L 155.04 191.372303 
L 149.088 191.402383 
L 143.136 191.431897 
L 137.184 191.460559 
L 131.232 191.487997 
L 125.28 191.513722 
L 119.328 191.537086 
L 113.376 191.557222 
L 107.424 191.572949 
L 101.472 191.582643 
L 95.52 191.584022 
L 89.568 191.57381 
L 83.616 191.547185 
L 77.664 191.496813 
L 71.712 191.411106 
L 65.76 191.27083 
L 59.808 191.041994 
L 53.856 190.659264 
L 47.904 189.981364 
L 41.952 188.643212 
z
" clip-path="url(#pdb20df23e2)" style="fill: #440154"/>
   </g>
   <g id="PathCollection_13">
    <path d="M 39.561031 186.696 
L 36 181.988472 
L 36 181.152 
L 36 179.862859 
L 36.507808 181.152 
L 40.701596 186.696 
L 41.952 187.385446 
L 47.904 188.723603 
L 53.856 189.401506 
L 59.808 189.784239 
L 65.76 190.013076 
L 71.712 190.153352 
L 77.664 190.239059 
L 83.616 190.28943 
L 89.568 190.316055 
L 95.52 190.326265 
L 101.472 190.324886 
L 107.424 190.31519 
L 113.376 190.299462 
L 119.328 190.279325 
L 125.28 190.255959 
L 131.232 190.230233 
L 137.184 190.202794 
L 143.136 190.17413 
L 149.088 190.144615 
L 155.04 190.114534 
L 160.992 190.084108 
L 166.944 190.053506 
L 172.896 190.022862 
L 178.848 189.99228 
L 184.8 189.961839 
L 190.752 189.931602 
L 196.704 189.901619 
L 202.656 189.871925 
L 208.608 189.842549 
L 214.56 189.813513 
L 214.56 190.442402 
L 208.608 190.471438 
L 202.656 190.500813 
L 196.704 190.530507 
L 190.752 190.56049 
L 184.8 190.590726 
L 178.848 190.621166 
L 172.896 190.651748 
L 166.944 190.682391 
L 160.992 190.712993 
L 155.04 190.743419 
L 149.088 190.773499 
L 143.136 190.803013 
L 137.184 190.831676 
L 131.232 190.859115 
L 125.28 190.884841 
L 119.328 190.908206 
L 113.376 190.928342 
L 107.424 190.94407 
L 101.472 190.953764 
L 95.52 190.955144 
L 89.568 190.944932 
L 83.616 190.918308 
L 77.664 190.867936 
L 71.712 190.782229 
L 65.76 190.641953 
L 59.808 190.413117 
L 53.856 190.030385 
L 47.904 189.352483 
L 41.952 188.014329 
z
" clip-path="url(#pdb20df23e2)" style="fill: #440154"/>
   </g>
   <g id="PathCollection_14">
    <path d="M 40.701596 186.696 
L 36.507808 181.152 
L 36 179.862859 
L 36 176.967395 
L 37.648367 181.152 
L 41.842161 186.696 
L 41.952 186.756563 
L 47.904 188.094723 
L 53.856 188.772628 
L 59.808 189.155362 
L 65.76 189.384199 
L 71.712 189.524475 
L 77.664 189.610182 
L 83.616 189.660553 
L 89.568 189.687177 
L 95.52 189.697387 
L 101.472 189.696007 
L 107.424 189.686311 
L 113.376 189.670582 
L 119.328 189.650445 
L 125.28 189.627078 
L 131.232 189.601351 
L 137.184 189.573911 
L 143.136 189.545247 
L 149.088 189.515732 
L 155.04 189.48565 
L 160.992 189.455223 
L 166.944 189.424621 
L 172.896 189.393976 
L 178.848 189.363393 
L 184.8 189.332952 
L 190.752 189.302715 
L 196.704 189.272731 
L 202.656 189.243037 
L 208.608 189.213661 
L 214.56 189.184624 
L 214.56 189.813513 
L 208.608 189.842549 
L 202.656 189.871925 
L 196.704 189.901619 
L 190.752 189.931602 
L 184.8 189.961839 
L 178.848 189.99228 
L 172.896 190.022862 
L 166.944 190.053506 
L 160.992 190.084108 
L 155.04 190.114534 
L 149.088 190.144615 
L 143.136 190.17413 
L 137.184 190.202794 
L 131.232 190.230233 
L 125.28 190.255959 
L 119.328 190.279325 
L 113.376 190.299462 
L 107.424 190.31519 
L 101.472 190.324886 
L 95.52 190.326265 
L 89.568 190.316055 
L 83.616 190.28943 
L 77.664 190.239059 
L 71.712 190.153352 
L 65.76 190.013076 
L 59.808 189.784239 
L 53.856 189.401506 
L 47.904 188.723603 
L 41.952 187.385446 
z
" clip-path="url(#pdb20df23e2)" style="fill: #440154"/>
   </g>
   <g id="PathCollection_15">
    <path d="M 41.842161 186.696 
L 37.648367 181.152 
L 36 176.967395 
L 36 175.608 
L 36 172.97952 
L 36.605074 175.608 
L 38.788925 181.152 
L 41.952 185.333437 
L 44.47982 186.696 
L 47.904 187.465842 
L 53.856 188.143749 
L 59.808 188.526484 
L 65.76 188.755322 
L 71.712 188.895599 
L 77.664 188.981305 
L 83.616 189.031676 
L 89.568 189.058299 
L 95.52 189.068509 
L 101.472 189.067128 
L 107.424 189.057432 
L 113.376 189.041702 
L 119.328 189.021564 
L 125.28 188.998197 
L 131.232 188.972469 
L 137.184 188.945029 
L 143.136 188.916364 
L 149.088 188.886848 
L 155.04 188.856766 
L 160.992 188.826338 
L 166.944 188.795735 
L 172.896 188.76509 
L 178.848 188.734507 
L 184.8 188.704065 
L 190.752 188.673828 
L 196.704 188.643843 
L 202.656 188.614148 
L 208.608 188.584772 
L 214.56 188.555734 
L 214.56 189.184624 
L 208.608 189.213661 
L 202.656 189.243037 
L 196.704 189.272731 
L 190.752 189.302715 
L 184.8 189.332952 
L 178.848 189.363393 
L 172.896 189.393976 
L 166.944 189.424621 
L 160.992 189.455223 
L 155.04 189.48565 
L 149.088 189.515732 
L 143.136 189.545247 
L 137.184 189.573911 
L 131.232 189.601351 
L 125.28 189.627078 
L 119.328 189.650445 
L 113.376 189.670582 
L 107.424 189.686311 
L 101.472 189.696007 
L 95.52 189.697387 
L 89.568 189.687177 
L 83.616 189.660553 
L 77.664 189.610182 
L 71.712 189.524475 
L 65.76 189.384199 
L 59.808 189.155362 
L 53.856 188.772628 
L 47.904 188.094723 
L 41.952 186.756563 
z
" clip-path="url(#pdb20df23e2)" style="fill: #481467"/>
   </g>
   <g id="PathCollection_16">
    <path d="M 38.788925 181.152 
L 36.605074 175.608 
L 36 172.97952 
L 36 170.064 
L 36 166.802137 
L 36.469403 170.064 
L 37.745628 175.608 
L 39.929483 181.152 
L 41.952 183.825673 
L 47.277016 186.696 
L 47.904 186.836962 
L 53.856 187.51487 
L 59.808 187.897606 
L 65.76 188.126445 
L 71.712 188.266722 
L 77.664 188.352428 
L 83.616 188.402798 
L 89.568 188.429422 
L 95.52 188.439631 
L 101.472 188.438249 
L 107.424 188.428552 
L 113.376 188.412822 
L 119.328 188.392683 
L 125.28 188.369316 
L 131.232 188.343587 
L 137.184 188.316146 
L 143.136 188.287481 
L 149.088 188.257964 
L 155.04 188.227881 
L 160.992 188.197453 
L 166.944 188.16685 
L 172.896 188.136204 
L 178.848 188.10562 
L 184.8 188.075178 
L 190.752 188.04494 
L 196.704 188.014955 
L 202.656 187.98526 
L 208.608 187.955883 
L 214.56 187.926845 
L 214.56 188.555734 
L 208.608 188.584772 
L 202.656 188.614148 
L 196.704 188.643843 
L 190.752 188.673828 
L 184.8 188.704065 
L 178.848 188.734507 
L 172.896 188.76509 
L 166.944 188.795735 
L 160.992 188.826338 
L 155.04 188.856766 
L 149.088 188.886848 
L 143.136 188.916364 
L 137.184 188.945029 
L 131.232 188.972469 
L 125.28 188.998197 
L 119.328 189.021564 
L 113.376 189.041702 
L 107.424 189.057432 
L 101.472 189.067128 
L 95.52 189.068509 
L 89.568 189.058299 
L 83.616 189.031676 
L 77.664 188.981305 
L 71.712 188.895599 
L 65.76 188.755322 
L 59.808 188.526484 
L 53.856 188.143749 
L 47.904 187.465842 
L 44.47982 186.696 
L 41.952 185.333437 
z
" clip-path="url(#pdb20df23e2)" style="fill: #472c7a"/>
   </g>
   <g id="PathCollection_17">
    <path d="M 39.929483 181.152 
L 37.745628 175.608 
L 36.469403 170.064 
L 36 166.802137 
L 36 164.52 
L 36 158.976 
L 36 154.271131 
L 36.292949 158.976 
L 36.812137 164.52 
L 37.609955 170.064 
L 38.886181 175.608 
L 41.070041 181.152 
L 41.952 182.317908 
L 47.904 185.526203 
L 52.187884 186.696 
L 53.856 186.885992 
L 59.808 187.268729 
L 65.76 187.497568 
L 71.712 187.637845 
L 77.664 187.723551 
L 83.616 187.773921 
L 89.568 187.800544 
L 95.52 187.810753 
L 101.472 187.809371 
L 107.424 187.799673 
L 113.376 187.783942 
L 119.328 187.763803 
L 125.28 187.740434 
L 131.232 187.714705 
L 137.184 187.687263 
L 143.136 187.658598 
L 149.088 187.62908 
L 155.04 187.598997 
L 160.992 187.568568 
L 166.944 187.537964 
L 172.896 187.507318 
L 178.848 187.476734 
L 184.8 187.446291 
L 190.752 187.416053 
L 196.704 187.386067 
L 202.656 187.356372 
L 208.608 187.326994 
L 214.56 187.297956 
L 214.56 187.926845 
L 208.608 187.955883 
L 202.656 187.98526 
L 196.704 188.014955 
L 190.752 188.04494 
L 184.8 188.075178 
L 178.848 188.10562 
L 172.896 188.136204 
L 166.944 188.16685 
L 160.992 188.197453 
L 155.04 188.227881 
L 149.088 188.257964 
L 143.136 188.287481 
L 137.184 188.316146 
L 131.232 188.343587 
L 125.28 188.369316 
L 119.328 188.392683 
L 113.376 188.412822 
L 107.424 188.428552 
L 101.472 188.438249 
L 95.52 188.439631 
L 89.568 188.429422 
L 83.616 188.402798 
L 77.664 188.352428 
L 71.712 188.266722 
L 65.76 188.126445 
L 59.808 187.897606 
L 53.856 187.51487 
L 47.904 186.836962 
L 47.277016 186.696 
L 41.952 183.825673 
z
" clip-path="url(#pdb20df23e2)" style="fill: #424186"/>
    <path d="M 36 42.552 
L 36 37.008 
L 36 31.464 
L 36 25.92 
L 36.227596 25.92 
L 36.166019 31.464 
L 36.104249 37.008 
L 36.042404 42.552 
L 36 46.357471 
z
" clip-path="url(#pdb20df23e2)" style="fill: #424186"/>
   </g>
   <g id="PathCollection_18">
    <path d="M 41.070041 181.152 
L 38.886181 175.608 
L 37.609955 170.064 
L 36.812137 164.52 
L 36.292949 158.976 
L 36 154.271131 
L 36 153.432 
L 36 147.888 
L 36 142.344 
L 36 136.8 
L 36 131.256 
L 36 125.712 
L 36 120.168 
L 36 114.624 
L 36 109.08 
L 36 103.536 
L 36 97.992 
L 36 92.448 
L 36 86.904 
L 36 81.36 
L 36 75.816 
L 36 70.272 
L 36 64.728 
L 36 59.184 
L 36 53.64 
L 36 48.096 
L 36 46.357471 
L 36.042404 42.552 
L 36.104249 37.008 
L 36.166019 31.464 
L 36.227596 25.92 
L 37.368238 25.92 
L 37.306657 31.464 
L 37.244882 37.008 
L 37.183033 42.552 
L 37.121253 48.096 
L 37.059719 53.64 
L 36.99865 59.184 
L 36.938314 64.728 
L 36.879046 70.272 
L 36.821256 75.816 
L 36.765457 81.36 
L 36.712294 86.904 
L 36.662574 92.448 
L 36.617323 97.992 
L 36.577855 103.536 
L 36.545862 109.08 
L 36.523553 114.624 
L 36.513847 120.168 
L 36.520654 125.712 
L 36.549298 131.256 
L 36.607176 136.8 
L 36.704791 142.344 
L 36.857469 147.888 
L 37.088303 153.432 
L 37.433499 158.976 
L 37.952687 164.52 
L 38.750506 170.064 
L 40.026735 175.608 
L 41.952 180.495517 
L 42.586203 181.152 
L 47.904 184.018447 
L 53.856 185.643758 
L 59.808 186.561382 
L 61.268401 186.696 
L 65.76 186.868691 
L 71.712 187.008968 
L 77.664 187.094674 
L 83.616 187.145044 
L 89.568 187.171666 
L 95.52 187.181874 
L 101.472 187.180492 
L 107.424 187.170794 
L 113.376 187.155062 
L 119.328 187.134922 
L 125.28 187.111553 
L 131.232 187.085823 
L 137.184 187.058381 
L 143.136 187.029715 
L 149.088 187.000197 
L 155.04 186.970113 
L 160.992 186.939683 
L 166.944 186.909079 
L 172.896 186.878432 
L 178.848 186.847847 
L 184.8 186.817404 
L 190.752 186.787165 
L 196.704 186.757179 
L 202.656 186.727483 
L 208.608 186.698106 
L 209.039575 186.696 
L 214.56 186.631424 
L 214.56 186.696 
L 214.56 187.297956 
L 208.608 187.326994 
L 202.656 187.356372 
L 196.704 187.386067 
L 190.752 187.416053 
L 184.8 187.446291 
L 178.848 187.476734 
L 172.896 187.507318 
L 166.944 187.537964 
L 160.992 187.568568 
L 155.04 187.598997 
L 149.088 187.62908 
L 143.136 187.658598 
L 137.184 187.687263 
L 131.232 187.714705 
L 125.28 187.740434 
L 119.328 187.763803 
L 113.376 187.783942 
L 107.424 187.799673 
L 101.472 187.809371 
L 95.52 187.810753 
L 89.568 187.800544 
L 83.616 187.773921 
L 77.664 187.723551 
L 71.712 187.637845 
L 65.76 187.497568 
L 59.808 187.268729 
L 53.856 186.885992 
L 52.187884 186.696 
L 47.904 185.526203 
L 41.952 182.317908 
z
" clip-path="url(#pdb20df23e2)" style="fill: #39558c"/>
   </g>
   <g id="PathCollection_19">
    <path d="M 40.026735 175.608 
L 38.750506 170.064 
L 37.952687 164.52 
L 37.433499 158.976 
L 37.088303 153.432 
L 36.857469 147.888 
L 36.704791 142.344 
L 36.607176 136.8 
L 36.549298 131.256 
L 36.520654 125.712 
L 36.513847 120.168 
L 36.523553 114.624 
L 36.545862 109.08 
L 36.577855 103.536 
L 36.617323 97.992 
L 36.662574 92.448 
L 36.712294 86.904 
L 36.765457 81.36 
L 36.821256 75.816 
L 36.879046 70.272 
L 36.938314 64.728 
L 36.99865 59.184 
L 37.059719 53.64 
L 37.121253 48.096 
L 37.183033 42.552 
L 37.244882 37.008 
L 37.306657 31.464 
L 37.368238 25.92 
L 38.50888 25.92 
L 38.447294 31.464 
L 38.385516 37.008 
L 38.323662 42.552 
L 38.261877 48.096 
L 38.200339 53.64 
L 38.139265 59.184 
L 38.078926 64.728 
L 38.019653 70.272 
L 37.961858 75.816 
L 37.906055 81.36 
L 37.852887 86.904 
L 37.803163 92.448 
L 37.757908 97.992 
L 37.718435 103.536 
L 37.686438 109.08 
L 37.664125 114.624 
L 37.654416 120.168 
L 37.661219 125.712 
L 37.68986 131.256 
L 37.747734 136.8 
L 37.845347 142.344 
L 37.998022 147.888 
L 38.228855 153.432 
L 38.57405 158.976 
L 39.093238 164.52 
L 39.891058 170.064 
L 41.167289 175.608 
L 41.952 177.600083 
L 45.383373 181.152 
L 47.904 182.510691 
L 53.856 184.136007 
L 59.808 185.053631 
L 65.76 185.60228 
L 71.712 185.938597 
L 77.664 186.14408 
L 83.616 186.264841 
L 89.568 186.328668 
L 95.52 186.35314 
L 101.472 186.349823 
L 107.424 186.326568 
L 113.376 186.288847 
L 119.328 186.240558 
L 125.28 186.184526 
L 131.232 186.122834 
L 137.184 186.057035 
L 143.136 185.988302 
L 149.088 185.917527 
L 155.04 185.845394 
L 160.992 185.772433 
L 166.944 185.699052 
L 172.896 185.625571 
L 178.848 185.552236 
L 184.8 185.479241 
L 190.752 185.406737 
L 196.704 185.334839 
L 202.656 185.263635 
L 208.608 185.193195 
L 214.56 185.123567 
L 214.56 186.631424 
L 209.039575 186.696 
L 208.608 186.698106 
L 202.656 186.727483 
L 196.704 186.757179 
L 190.752 186.787165 
L 184.8 186.817404 
L 178.848 186.847847 
L 172.896 186.878432 
L 166.944 186.909079 
L 160.992 186.939683 
L 155.04 186.970113 
L 149.088 187.000197 
L 143.136 187.029715 
L 137.184 187.058381 
L 131.232 187.085823 
L 125.28 187.111553 
L 119.328 187.134922 
L 113.376 187.155062 
L 107.424 187.170794 
L 101.472 187.180492 
L 95.52 187.181874 
L 89.568 187.171666 
L 83.616 187.145044 
L 77.664 187.094674 
L 71.712 187.008968 
L 65.76 186.868691 
L 61.268401 186.696 
L 59.808 186.561382 
L 53.856 185.643758 
L 47.904 184.018447 
L 42.586203 181.152 
L 41.952 180.495517 
z
" clip-path="url(#pdb20df23e2)" style="fill: #31688e"/>
   </g>
   <g id="PathCollection_20">
    <path d="M 41.167289 175.608 
L 39.891058 170.064 
L 39.093238 164.52 
L 38.57405 158.976 
L 38.228855 153.432 
L 37.998022 147.888 
L 37.845347 142.344 
L 37.747734 136.8 
L 37.68986 131.256 
L 37.661219 125.712 
L 37.654416 120.168 
L 37.664125 114.624 
L 37.686438 109.08 
L 37.718435 103.536 
L 37.757908 97.992 
L 37.803163 92.448 
L 37.852887 86.904 
L 37.906055 81.36 
L 37.961858 75.816 
L 38.019653 70.272 
L 38.078926 64.728 
L 38.139265 59.184 
L 38.200339 53.64 
L 38.261877 48.096 
L 38.323662 42.552 
L 38.385516 37.008 
L 38.447294 31.464 
L 38.50888 25.92 
L 39.649522 25.92 
L 39.587932 31.464 
L 39.52615 37.008 
L 39.464291 42.552 
L 39.402502 48.096 
L 39.340959 53.64 
L 39.279881 59.184 
L 39.219537 64.728 
L 39.16026 70.272 
L 39.10246 75.816 
L 39.046653 81.36 
L 38.993481 86.904 
L 38.943752 92.448 
L 38.898493 97.992 
L 38.859016 103.536 
L 38.827014 109.08 
L 38.804698 114.624 
L 38.794984 120.168 
L 38.801783 125.712 
L 38.830421 131.256 
L 38.888293 136.8 
L 38.985902 142.344 
L 39.138575 147.888 
L 39.369406 153.432 
L 39.7146 158.976 
L 40.233788 164.52 
L 41.031609 170.064 
L 41.952 174.062209 
L 42.824689 175.608 
L 47.904 180.865744 
L 48.44988 181.152 
L 53.856 182.628255 
L 59.808 183.545881 
L 65.76 184.094528 
L 71.712 184.430842 
L 77.664 184.636321 
L 83.616 184.757078 
L 89.568 184.820899 
L 95.52 184.845366 
L 101.472 184.842044 
L 107.424 184.818784 
L 113.376 184.781058 
L 119.328 184.732763 
L 125.28 184.676726 
L 131.232 184.615029 
L 137.184 184.549226 
L 143.136 184.480488 
L 149.088 184.409709 
L 155.04 184.337572 
L 160.992 184.264606 
L 166.944 184.191222 
L 172.896 184.117736 
L 178.848 184.044398 
L 184.8 183.9714 
L 190.752 183.898892 
L 196.704 183.826991 
L 202.656 183.755785 
L 208.608 183.685341 
L 214.56 183.615711 
L 214.56 185.123567 
L 208.608 185.193195 
L 202.656 185.263635 
L 196.704 185.334839 
L 190.752 185.406737 
L 184.8 185.479241 
L 178.848 185.552236 
L 172.896 185.625571 
L 166.944 185.699052 
L 160.992 185.772433 
L 155.04 185.845394 
L 149.088 185.917527 
L 143.136 185.988302 
L 137.184 186.057035 
L 131.232 186.122834 
L 125.28 186.184526 
L 119.328 186.240558 
L 113.376 186.288847 
L 107.424 186.326568 
L 101.472 186.349823 
L 95.52 186.35314 
L 89.568 186.328668 
L 83.616 186.264841 
L 77.664 186.14408 
L 71.712 185.938597 
L 65.76 185.60228 
L 59.808 185.053631 
L 53.856 184.136007 
L 47.904 182.510691 
L 45.383373 181.152 
L 41.952 177.600083 
z
" clip-path="url(#pdb20df23e2)" style="fill: #29798e"/>
   </g>
   <g id="PathCollection_21">
    <path d="M 41.031609 170.064 
L 40.233788 164.52 
L 39.7146 158.976 
L 39.369406 153.432 
L 39.138575 147.888 
L 38.985902 142.344 
L 38.888293 136.8 
L 38.830421 131.256 
L 38.801783 125.712 
L 38.794984 120.168 
L 38.804698 114.624 
L 38.827014 109.08 
L 38.859016 103.536 
L 38.898493 97.992 
L 38.943752 92.448 
L 38.993481 86.904 
L 39.046653 81.36 
L 39.10246 75.816 
L 39.16026 70.272 
L 39.219537 64.728 
L 39.279881 59.184 
L 39.340959 53.64 
L 39.402502 48.096 
L 39.464291 42.552 
L 39.52615 37.008 
L 39.587932 31.464 
L 39.649522 25.92 
L 40.790164 25.92 
L 40.72857 31.464 
L 40.666783 37.008 
L 40.60492 42.552 
L 40.543127 48.096 
L 40.48158 53.64 
L 40.420497 59.184 
L 40.360149 64.728 
L 40.300866 70.272 
L 40.243063 75.816 
L 40.187251 81.36 
L 40.134074 86.904 
L 40.084341 92.448 
L 40.039078 97.992 
L 39.999596 103.536 
L 39.967591 109.08 
L 39.94527 114.624 
L 39.935553 120.168 
L 39.942348 125.712 
L 39.970983 131.256 
L 40.028851 136.8 
L 40.126458 142.344 
L 40.279129 147.888 
L 40.509958 153.432 
L 40.855151 158.976 
L 41.374339 164.52 
L 41.952 168.534123 
L 42.491935 170.064 
L 45.621846 175.608 
L 47.904 177.970324 
L 53.856 181.091515 
L 54.060297 181.152 
L 59.808 182.03813 
L 65.76 182.586776 
L 71.712 182.923088 
L 77.664 183.128562 
L 83.616 183.249314 
L 89.568 183.313131 
L 95.52 183.337593 
L 101.472 183.334265 
L 107.424 183.310999 
L 113.376 183.273268 
L 119.328 183.224968 
L 125.28 183.168926 
L 131.232 183.107225 
L 137.184 183.041416 
L 143.136 182.972674 
L 149.088 182.90189 
L 155.04 182.829749 
L 160.992 182.75678 
L 166.944 182.683391 
L 172.896 182.609902 
L 178.848 182.53656 
L 184.8 182.463559 
L 190.752 182.391048 
L 196.704 182.319143 
L 202.656 182.247934 
L 208.608 182.177487 
L 214.56 182.107855 
L 214.56 183.615711 
L 208.608 183.685341 
L 202.656 183.755785 
L 196.704 183.826991 
L 190.752 183.898892 
L 184.8 183.9714 
L 178.848 184.044398 
L 172.896 184.117736 
L 166.944 184.191222 
L 160.992 184.264606 
L 155.04 184.337572 
L 149.088 184.409709 
L 143.136 184.480488 
L 137.184 184.549226 
L 131.232 184.615029 
L 125.28 184.676726 
L 119.328 184.732763 
L 113.376 184.781058 
L 107.424 184.818784 
L 101.472 184.842044 
L 95.52 184.845366 
L 89.568 184.820899 
L 83.616 184.757078 
L 77.664 184.636321 
L 71.712 184.430842 
L 65.76 184.094528 
L 59.808 183.545881 
L 53.856 182.628255 
L 48.44988 181.152 
L 47.904 180.865744 
L 42.824689 175.608 
L 41.952 174.062209 
z
" clip-path="url(#pdb20df23e2)" style="fill: #238a8d"/>
   </g>
   <g id="PathCollection_22">
    <path d="M 41.374339 164.52 
L 40.855151 158.976 
L 40.509958 153.432 
L 40.279129 147.888 
L 40.126458 142.344 
L 40.028851 136.8 
L 39.970983 131.256 
L 39.942348 125.712 
L 39.935553 120.168 
L 39.94527 114.624 
L 39.967591 109.08 
L 39.999596 103.536 
L 40.039078 97.992 
L 40.084341 92.448 
L 40.134074 86.904 
L 40.187251 81.36 
L 40.243063 75.816 
L 40.300866 70.272 
L 40.360149 64.728 
L 40.420497 59.184 
L 40.48158 53.64 
L 40.543127 48.096 
L 40.60492 42.552 
L 40.666783 37.008 
L 40.72857 31.464 
L 40.790164 25.92 
L 41.930806 25.92 
L 41.869208 31.464 
L 41.807417 37.008 
L 41.74555 42.552 
L 41.683752 48.096 
L 41.6222 53.64 
L 41.561113 59.184 
L 41.50076 64.728 
L 41.441473 70.272 
L 41.383665 75.816 
L 41.327849 81.36 
L 41.274668 86.904 
L 41.22493 92.448 
L 41.179663 97.992 
L 41.140177 103.536 
L 41.108167 109.08 
L 41.085843 114.624 
L 41.076121 120.168 
L 41.082913 125.712 
L 41.111544 131.256 
L 41.169409 136.8 
L 41.267013 142.344 
L 41.419682 147.888 
L 41.650509 153.432 
L 41.952 158.274126 
L 42.059177 158.976 
L 43.332466 164.52 
L 45.28909 170.064 
L 47.904 174.695778 
L 48.920593 175.608 
L 53.856 178.196096 
L 59.808 179.958263 
L 65.76 181.01186 
L 67.051525 181.152 
L 71.712 181.415333 
L 77.664 181.620804 
L 83.616 181.741551 
L 89.568 181.805363 
L 95.52 181.829819 
L 101.472 181.826486 
L 107.424 181.803215 
L 113.376 181.765478 
L 119.328 181.717173 
L 125.28 181.661127 
L 131.232 181.59942 
L 137.184 181.533607 
L 143.136 181.46486 
L 149.088 181.394072 
L 155.04 181.321927 
L 160.992 181.248953 
L 166.944 181.175561 
L 168.85212 181.152 
L 172.896 181.056104 
L 178.848 180.915242 
L 184.8 180.775034 
L 190.752 180.635766 
L 196.704 180.497663 
L 202.656 180.360895 
L 208.608 180.225592 
L 214.56 180.091852 
L 214.56 181.152 
L 214.56 182.107855 
L 208.608 182.177487 
L 202.656 182.247934 
L 196.704 182.319143 
L 190.752 182.391048 
L 184.8 182.463559 
L 178.848 182.53656 
L 172.896 182.609902 
L 166.944 182.683391 
L 160.992 182.75678 
L 155.04 182.829749 
L 149.088 182.90189 
L 143.136 182.972674 
L 137.184 183.041416 
L 131.232 183.107225 
L 125.28 183.168926 
L 119.328 183.224968 
L 113.376 183.273268 
L 107.424 183.310999 
L 101.472 183.334265 
L 95.52 183.337593 
L 89.568 183.313131 
L 83.616 183.249314 
L 77.664 183.128562 
L 71.712 182.923088 
L 65.76 182.586776 
L 59.808 182.03813 
L 54.060297 181.152 
L 53.856 181.091515 
L 47.904 177.970324 
L 45.621846 175.608 
L 42.491935 170.064 
L 41.952 168.534123 
z
" clip-path="url(#pdb20df23e2)" style="fill: #1e9b8a"/>
   </g>
   <g id="PathCollection_23">
    <path d="M 41.650509 153.432 
L 41.419682 147.888 
L 41.267013 142.344 
L 41.169409 136.8 
L 41.111544 131.256 
L 41.082913 125.712 
L 41.076121 120.168 
L 41.085843 114.624 
L 41.108167 109.08 
L 41.140177 103.536 
L 41.179663 97.992 
L 41.22493 92.448 
L 41.274668 86.904 
L 41.327849 81.36 
L 41.383665 75.816 
L 41.441473 70.272 
L 41.50076 64.728 
L 41.561113 59.184 
L 41.6222 53.64 
L 41.683752 48.096 
L 41.74555 42.552 
L 41.807417 37.008 
L 41.869208 31.464 
L 41.930806 25.92 
L 41.952 25.92 
L 44.697923 25.92 
L 44.546797 31.464 
L 44.3952 37.008 
L 44.24342 42.552 
L 44.09181 48.096 
L 43.940807 53.64 
L 43.790946 59.184 
L 43.642887 64.728 
L 43.497446 70.272 
L 43.355634 75.816 
L 43.218709 81.36 
L 43.088249 86.904 
L 42.966237 92.448 
L 42.855192 97.992 
L 42.75833 103.536 
L 42.679804 109.08 
L 42.625035 114.624 
L 42.601177 120.168 
L 42.61782 125.712 
L 42.688026 131.256 
L 42.82993 136.8 
L 43.069293 142.344 
L 43.4437 147.888 
L 44.009789 153.432 
L 44.856351 158.976 
L 46.129628 164.52 
L 47.904 169.547615 
L 48.263745 170.064 
L 53.856 175.082113 
L 54.894038 175.608 
L 59.808 177.062835 
L 65.76 178.116416 
L 71.712 178.762235 
L 77.664 179.156799 
L 83.616 179.388663 
L 89.568 179.511188 
L 95.52 179.558136 
L 101.472 179.551716 
L 107.424 179.507008 
L 113.376 179.434519 
L 119.328 179.341733 
L 125.28 179.23408 
L 131.232 179.115556 
L 137.184 178.989147 
L 143.136 178.857102 
L 149.088 178.721137 
L 155.04 178.582566 
L 160.992 178.442404 
L 166.944 178.301438 
L 172.896 178.160278 
L 178.848 178.019401 
L 184.8 177.879179 
L 190.752 177.739898 
L 196.704 177.601782 
L 202.656 177.465001 
L 208.608 177.329687 
L 214.56 177.195934 
L 214.56 180.091852 
L 208.608 180.225592 
L 202.656 180.360895 
L 196.704 180.497663 
L 190.752 180.635766 
L 184.8 180.775034 
L 178.848 180.915242 
L 172.896 181.056104 
L 168.85212 181.152 
L 166.944 181.175561 
L 160.992 181.248953 
L 155.04 181.321927 
L 149.088 181.394072 
L 143.136 181.46486 
L 137.184 181.533607 
L 131.232 181.59942 
L 125.28 181.661127 
L 119.328 181.717173 
L 113.376 181.765478 
L 107.424 181.803215 
L 101.472 181.826486 
L 95.52 181.829819 
L 89.568 181.805363 
L 83.616 181.741551 
L 77.664 181.620804 
L 71.712 181.415333 
L 67.051525 181.152 
L 65.76 181.01186 
L 59.808 179.958263 
L 53.856 178.196096 
L 48.920593 175.608 
L 47.904 174.695778 
L 45.28909 170.064 
L 43.332466 164.52 
L 42.059177 158.976 
L 41.952 158.274126 
z
" clip-path="url(#pdb20df23e2)" style="fill: #25ac82"/>
   </g>
   <g id="PathCollection_24">
    <path d="M 46.129628 164.52 
L 44.856351 158.976 
L 44.009789 153.432 
L 43.4437 147.888 
L 43.069293 142.344 
L 42.82993 136.8 
L 42.688026 131.256 
L 42.61782 125.712 
L 42.601177 120.168 
L 42.625035 114.624 
L 42.679804 109.08 
L 42.75833 103.536 
L 42.855192 97.992 
L 42.966237 92.448 
L 43.088249 86.904 
L 43.218709 81.36 
L 43.355634 75.816 
L 43.497446 70.272 
L 43.642887 64.728 
L 43.790946 59.184 
L 43.940807 53.64 
L 44.09181 48.096 
L 44.24342 42.552 
L 44.3952 37.008 
L 44.546797 31.464 
L 44.697923 25.92 
L 47.495832 25.92 
L 47.344676 31.464 
L 47.193048 37.008 
L 47.041236 42.552 
L 46.889595 48.096 
L 46.738559 53.64 
L 46.588666 59.184 
L 46.440574 64.728 
L 46.295099 70.272 
L 46.153254 75.816 
L 46.016296 81.36 
L 45.885802 86.904 
L 45.763757 92.448 
L 45.652677 97.992 
L 45.555782 103.536 
L 45.477223 109.08 
L 45.422421 114.624 
L 45.398531 120.168 
L 45.415143 125.712 
L 45.485318 131.256 
L 45.627194 136.8 
L 45.86653 142.344 
L 46.240913 147.888 
L 46.80698 153.432 
L 47.653525 158.976 
L 47.904 160.066605 
L 49.922971 164.52 
L 53.78524 170.064 
L 53.856 170.127496 
L 59.808 173.14285 
L 65.76 174.945709 
L 69.327057 175.608 
L 71.712 175.86677 
L 77.664 176.261311 
L 83.616 176.49315 
L 89.568 176.615649 
L 95.52 176.662572 
L 101.472 176.656127 
L 107.424 176.611394 
L 113.376 176.538882 
L 119.328 176.446074 
L 125.28 176.338398 
L 131.232 176.219853 
L 137.184 176.093424 
L 143.136 175.96136 
L 149.088 175.825377 
L 155.04 175.686788 
L 158.385358 175.608 
L 160.992 175.502935 
L 166.944 175.261652 
L 172.896 175.020039 
L 178.848 174.778909 
L 184.8 174.538898 
L 190.752 174.300498 
L 196.704 174.064091 
L 202.656 173.829969 
L 208.608 173.598355 
L 214.56 173.369415 
L 214.56 175.608 
L 214.56 177.195934 
L 208.608 177.329687 
L 202.656 177.465001 
L 196.704 177.601782 
L 190.752 177.739898 
L 184.8 177.879179 
L 178.848 178.019401 
L 172.896 178.160278 
L 166.944 178.301438 
L 160.992 178.442404 
L 155.04 178.582566 
L 149.088 178.721137 
L 143.136 178.857102 
L 137.184 178.989147 
L 131.232 179.115556 
L 125.28 179.23408 
L 119.328 179.341733 
L 113.376 179.434519 
L 107.424 179.507008 
L 101.472 179.551716 
L 95.52 179.558136 
L 89.568 179.511188 
L 83.616 179.388663 
L 77.664 179.156799 
L 71.712 178.762235 
L 65.76 178.116416 
L 59.808 177.062835 
L 54.894038 175.608 
L 53.856 175.082113 
L 48.263745 170.064 
L 47.904 169.547615 
z
" clip-path="url(#pdb20df23e2)" style="fill: #3dbc74"/>
   </g>
   <g id="PathCollection_25">
    <path d="M 47.653525 158.976 
L 46.80698 153.432 
L 46.240913 147.888 
L 45.86653 142.344 
L 45.627194 136.8 
L 45.485318 131.256 
L 45.415143 125.712 
L 45.398531 120.168 
L 45.422421 114.624 
L 45.477223 109.08 
L 45.555782 103.536 
L 45.652677 97.992 
L 45.763757 92.448 
L 45.885802 86.904 
L 46.016296 81.36 
L 46.153254 75.816 
L 46.295099 70.272 
L 46.440574 64.728 
L 46.588666 59.184 
L 46.738559 53.64 
L 46.889595 48.096 
L 47.041236 42.552 
L 47.193048 37.008 
L 47.344676 31.464 
L 47.495832 25.92 
L 47.904 25.92 
L 52.622931 25.92 
L 52.324334 31.464 
L 52.02481 37.008 
L 51.72493 42.552 
L 51.425392 48.096 
L 51.127058 53.64 
L 50.830984 59.184 
L 50.538475 64.728 
L 50.25114 70.272 
L 49.970977 75.816 
L 49.700472 81.36 
L 49.442737 86.904 
L 49.201689 92.448 
L 48.982297 97.992 
L 48.790916 103.536 
L 48.635743 109.08 
L 48.527475 114.624 
L 48.480239 120.168 
L 48.512964 125.712 
L 48.651431 131.256 
L 48.931441 136.8 
L 49.403843 142.344 
L 50.142827 147.888 
L 51.260191 153.432 
L 52.931201 158.976 
L 53.856 161.01594 
L 56.669748 164.52 
L 59.808 167.06325 
L 65.76 169.947164 
L 66.153396 170.064 
L 71.712 171.095991 
L 77.664 171.771068 
L 83.616 172.167729 
L 89.568 172.377286 
L 95.52 172.457513 
L 101.472 172.446416 
L 107.424 172.369797 
L 113.376 172.245638 
L 119.328 172.086748 
L 125.28 171.902415 
L 131.232 171.699481 
L 137.184 171.483054 
L 143.136 171.256984 
L 149.088 171.024207 
L 155.04 170.786971 
L 160.992 170.547014 
L 166.944 170.305681 
L 172.896 170.064019 
L 172.896478 170.064 
L 178.848 169.678142 
L 184.8 169.29404 
L 190.752 168.912517 
L 196.704 168.53418 
L 202.656 168.1595 
L 208.608 167.788832 
L 214.56 167.422442 
L 214.56 170.064 
L 214.56 173.369415 
L 208.608 173.598355 
L 202.656 173.829969 
L 196.704 174.064091 
L 190.752 174.300498 
L 184.8 174.538898 
L 178.848 174.778909 
L 172.896 175.020039 
L 166.944 175.261652 
L 160.992 175.502935 
L 158.385358 175.608 
L 155.04 175.686788 
L 149.088 175.825377 
L 143.136 175.96136 
L 137.184 176.093424 
L 131.232 176.219853 
L 125.28 176.338398 
L 119.328 176.446074 
L 113.376 176.538882 
L 107.424 176.611394 
L 101.472 176.656127 
L 95.52 176.662572 
L 89.568 176.615649 
L 83.616 176.49315 
L 77.664 176.261311 
L 71.712 175.86677 
L 69.327057 175.608 
L 65.76 174.945709 
L 59.808 173.14285 
L 53.856 170.127496 
L 53.78524 170.064 
L 49.922971 164.52 
L 47.904 160.066605 
z
" clip-path="url(#pdb20df23e2)" style="fill: #60ca60"/>
   </g>
   <g id="PathCollection_26">
    <path d="M 52.931201 158.976 
L 51.260191 153.432 
L 50.142827 147.888 
L 49.403843 142.344 
L 48.931441 136.8 
L 48.651431 131.256 
L 48.512964 125.712 
L 48.480239 120.168 
L 48.527475 114.624 
L 48.635743 109.08 
L 48.790916 103.536 
L 48.982297 97.992 
L 49.201689 92.448 
L 49.442737 86.904 
L 49.700472 81.36 
L 49.970977 75.816 
L 50.25114 70.272 
L 50.538475 64.728 
L 50.830984 59.184 
L 51.127058 53.64 
L 51.425392 48.096 
L 51.72493 42.552 
L 52.02481 37.008 
L 52.324334 31.464 
L 52.622931 25.92 
L 53.856 25.92 
L 59.808 25.92 
L 62.577091 25.92 
L 61.690598 31.464 
L 60.801427 37.008 
L 59.911269 42.552 
L 59.808 43.19592 
L 59.338528 48.096 
L 58.809507 53.64 
L 58.284509 59.184 
L 57.765844 64.728 
L 57.256365 70.272 
L 56.759612 75.816 
L 56.279989 81.36 
L 55.82301 86.904 
L 55.395616 92.448 
L 55.00661 97.992 
L 54.667246 103.536 
L 54.392049 109.08 
L 54.199963 114.624 
L 54.116015 120.168 
L 54.173728 125.712 
L 54.41877 131.256 
L 54.914548 136.8 
L 55.751124 142.344 
L 57.059901 147.888 
L 59.038888 153.432 
L 59.808 154.87267 
L 63.472065 158.976 
L 65.76 160.679487 
L 71.712 163.395758 
L 75.744601 164.52 
L 77.664 164.8682 
L 83.616 165.502561 
L 89.568 165.83761 
L 95.52 165.965767 
L 101.472 165.947827 
L 107.424 165.825068 
L 113.376 165.626257 
L 119.328 165.371882 
L 125.28 165.076802 
L 131.232 164.751966 
L 135.217491 164.52 
L 137.184 164.344064 
L 143.136 163.78785 
L 149.088 163.215126 
L 155.04 162.631429 
L 160.992 162.041027 
L 166.944 161.447234 
L 172.896 160.852624 
L 178.848 160.259202 
L 184.8 159.66853 
L 190.752 159.08182 
L 191.834571 158.976 
L 196.704 158.259677 
L 202.656 157.392548 
L 208.608 156.534685 
L 214.56 155.686704 
L 214.56 158.976 
L 214.56 164.52 
L 214.56 167.422442 
L 208.608 167.788832 
L 202.656 168.1595 
L 196.704 168.53418 
L 190.752 168.912517 
L 184.8 169.29404 
L 178.848 169.678142 
L 172.896478 170.064 
L 172.896 170.064019 
L 166.944 170.305681 
L 160.992 170.547014 
L 155.04 170.786971 
L 149.088 171.024207 
L 143.136 171.256984 
L 137.184 171.483054 
L 131.232 171.699481 
L 125.28 171.902415 
L 119.328 172.086748 
L 113.376 172.245638 
L 107.424 172.369797 
L 101.472 172.446416 
L 95.52 172.457513 
L 89.568 172.377286 
L 83.616 172.167729 
L 77.664 171.771068 
L 71.712 171.095991 
L 66.153396 170.064 
L 65.76 169.947164 
L 59.808 167.06325 
L 56.669748 164.52 
L 53.856 161.01594 
z
" clip-path="url(#pdb20df23e2)" style="fill: #8bd646"/>
    <path d="M 197.544663 25.92 
L 202.656 25.92 
L 208.608 25.92 
L 214.56 25.92 
L 214.56 31.464 
L 214.56 37.008 
L 214.56 39.551168 
L 211.34173 37.008 
L 208.608 34.844534 
L 204.386919 31.464 
L 202.656 30.07308 
z
" clip-path="url(#pdb20df23e2)" style="fill: #8bd646"/>
   </g>
   <g id="PathCollection_27">
    <path d="M 59.038888 153.432 
L 57.059901 147.888 
L 55.751124 142.344 
L 54.914548 136.8 
L 54.41877 131.256 
L 54.173728 125.712 
L 54.116015 120.168 
L 54.199963 114.624 
L 54.392049 109.08 
L 54.667246 103.536 
L 55.00661 97.992 
L 55.395616 92.448 
L 55.82301 86.904 
L 56.279989 81.36 
L 56.759612 75.816 
L 57.256365 70.272 
L 57.765844 64.728 
L 58.284509 59.184 
L 58.809507 53.64 
L 59.338528 48.096 
L 59.808 43.19592 
L 59.911269 42.552 
L 60.801427 37.008 
L 61.690598 31.464 
L 62.577091 25.92 
L 65.76 25.92 
L 71.712 25.92 
L 77.664 25.92 
L 83.616 25.92 
L 89.568 25.92 
L 95.52 25.92 
L 101.472 25.92 
L 107.424 25.92 
L 113.376 25.92 
L 119.328 25.92 
L 125.28 25.92 
L 131.232 25.92 
L 137.184 25.92 
L 143.136 25.92 
L 149.088 25.92 
L 155.04 25.92 
L 160.992 25.92 
L 166.944 25.92 
L 172.896 25.92 
L 178.848 25.92 
L 184.8 25.92 
L 190.752 25.92 
L 196.704 25.92 
L 197.544663 25.92 
L 202.656 30.07308 
L 204.386919 31.464 
L 208.608 34.844534 
L 211.34173 37.008 
L 214.56 39.551168 
L 214.56 42.552 
L 214.56 48.096 
L 214.56 53.64 
L 214.56 59.184 
L 214.56 64.728 
L 214.56 70.272 
L 214.56 75.816 
L 214.56 81.36 
L 214.56 86.904 
L 214.56 92.448 
L 214.56 97.992 
L 214.56 103.536 
L 214.56 109.08 
L 214.56 114.624 
L 214.56 120.168 
L 214.56 125.712 
L 214.56 131.256 
L 214.56 136.8 
L 214.56 142.344 
L 214.56 147.888 
L 214.56 153.432 
L 214.56 155.686704 
L 208.608 156.534685 
L 202.656 157.392548 
L 196.704 158.259677 
L 191.834571 158.976 
L 190.752 159.08182 
L 184.8 159.66853 
L 178.848 160.259202 
L 172.896 160.852624 
L 166.944 161.447234 
L 160.992 162.041027 
L 155.04 162.631429 
L 149.088 163.215126 
L 143.136 163.78785 
L 137.184 164.344064 
L 135.217491 164.52 
L 131.232 164.751966 
L 125.28 165.076802 
L 119.328 165.371882 
L 113.376 165.626257 
L 107.424 165.825068 
L 101.472 165.947827 
L 95.52 165.965767 
L 89.568 165.83761 
L 83.616 165.502561 
L 77.664 164.8682 
L 75.744601 164.52 
L 71.712 163.395758 
L 65.76 160.679487 
L 63.472065 158.976 
L 59.808 154.87267 
z
M 71.712 142.400323 
L 77.499111 147.888 
L 77.664 147.99139 
L 83.616 150.183348 
L 89.568 151.34046 
L 95.52 151.78214 
L 101.472 151.718529 
L 107.424 151.292318 
L 113.376 150.602964 
L 119.328 149.721311 
L 125.28 148.698753 
L 129.567255 147.888 
L 131.232 147.411514 
L 137.184 145.594761 
L 143.136 143.696966 
L 147.256826 142.344 
L 149.088 141.4018 
L 155.04 138.280395 
L 157.830543 136.8 
L 160.992 133.960309 
L 163.98515 131.256 
L 166.944 125.800785 
L 166.992084 125.712 
L 167.661692 120.168 
L 166.944 116.52976 
L 166.567695 114.624 
L 164.126822 109.08 
L 160.992 104.077388 
L 160.650952 103.536 
L 156.357102 97.992 
L 155.04 96.505693 
L 151.404873 92.448 
L 149.088 90.091069 
L 145.897027 86.904 
L 143.136 84.322386 
L 139.876097 81.36 
L 137.184 79.027272 
L 133.31643 75.816 
L 131.232 74.14385 
L 126.0907 70.272 
L 125.28 69.676368 
L 119.328 65.697813 
L 117.648981 64.728 
L 113.376 62.302276 
L 107.424 59.649775 
L 105.749953 59.184 
L 101.472 58.007462 
L 95.52 57.72984 
L 90.177073 59.184 
L 89.568 59.351829 
L 83.616 63.715113 
L 82.890162 64.728 
L 78.988446 70.272 
L 77.664 72.202596 
L 76.21117 75.816 
L 74.059272 81.36 
L 72.009356 86.904 
L 71.712 87.763865 
L 70.723703 92.448 
L 69.658996 97.992 
L 68.730045 103.536 
L 67.976494 109.08 
L 67.450048 114.624 
L 67.218994 120.168 
L 67.37481 125.712 
L 68.042089 131.256 
L 69.393826 136.8 
L 71.675721 142.344 
z
" clip-path="url(#pdb20df23e2)" style="fill: #bade28"/>
   </g>
   <g id="PathCollection_28">
    <path d="M 71.675721 142.344 
L 69.393826 136.8 
L 68.042089 131.256 
L 67.37481 125.712 
L 67.218994 120.168 
L 67.450048 114.624 
L 67.976494 109.08 
L 68.730045 103.536 
L 69.658996 97.992 
L 70.723703 92.448 
L 71.712 87.763865 
L 72.009356 86.904 
L 74.059272 81.36 
L 76.21117 75.816 
L 77.664 72.202596 
L 78.988446 70.272 
L 82.890162 64.728 
L 83.616 63.715113 
L 89.568 59.351829 
L 90.177073 59.184 
L 95.52 57.72984 
L 101.472 58.007462 
L 105.749953 59.184 
L 107.424 59.649775 
L 113.376 62.302276 
L 117.648981 64.728 
L 119.328 65.697813 
L 125.28 69.676368 
L 126.0907 70.272 
L 131.232 74.14385 
L 133.31643 75.816 
L 137.184 79.027272 
L 139.876097 81.36 
L 143.136 84.322386 
L 145.897027 86.904 
L 149.088 90.091069 
L 151.404873 92.448 
L 155.04 96.505693 
L 156.357102 97.992 
L 160.650952 103.536 
L 160.992 104.077388 
L 164.126822 109.08 
L 166.567695 114.624 
L 166.944 116.52976 
L 167.661692 120.168 
L 166.992084 125.712 
L 166.944 125.800785 
L 163.98515 131.256 
L 160.992 133.960309 
L 157.830543 136.8 
L 155.04 138.280395 
L 149.088 141.4018 
L 147.256826 142.344 
L 143.136 143.696966 
L 137.184 145.594761 
L 131.232 147.411514 
L 129.567255 147.888 
L 125.28 148.698753 
L 119.328 149.721311 
L 113.376 150.602964 
L 107.424 151.292318 
L 101.472 151.718529 
L 95.52 151.78214 
L 89.568 151.34046 
L 83.616 150.183348 
L 77.664 147.99139 
L 77.499111 147.888 
L 71.712 142.400323 
z
" clip-path="url(#pdb20df23e2)" style="fill: #eae51a"/>
   </g>
   <g id="PathCollection_29">
    <defs>
     <path id="m243503e894" d="M -4.330127 4.330127 
L 4.330127 -4.330127 
M -4.330127 -4.330127 
L 4.330127 4.330127 
" style="stroke: #000000; stroke-width: 2"/>
    </defs>
    <g clip-path="url(#pdb20df23e2)">
     <use xlink:href="#m243503e894" x="85.6" y="127.56" style="stroke: #000000; stroke-width: 2"/>
    </g>
   </g>
   <g id="matplotlib.axis_1">
    <g id="xtick_1">
     <g id="line2d_1">
      <defs>
       <path id="mc2c91e95d7" d="M 0 0 
L 0 3.5 
" style="stroke: #000000; stroke-width: 0.8"/>
      </defs>
      <g>
       <use xlink:href="#mc2c91e95d7" x="75.68" y="192.24" style="stroke: #000000; stroke-width: 0.8"/>
      </g>
     </g>
     <g id="text_1">
      <!-- $\mathdefault{250}$ -->
      <g transform="translate(64.22 208.358125) scale(0.12 -0.12)">
       <defs>
        <path id="DejaVuSans-32" d="M 1228 531 
L 3431 531 
L 3431 0 
L 469 0 
L 469 531 
Q 828 903 1448 1529 
Q 2069 2156 2228 2338 
Q 2531 2678 2651 2914 
Q 2772 3150 2772 3378 
Q 2772 3750 2511 3984 
Q 2250 4219 1831 4219 
Q 1534 4219 1204 4116 
Q 875 4013 500 3803 
L 500 4441 
Q 881 4594 1212 4672 
Q 1544 4750 1819 4750 
Q 2544 4750 2975 4387 
Q 3406 4025 3406 3419 
Q 3406 3131 3298 2873 
Q 3191 2616 2906 2266 
Q 2828 2175 2409 1742 
Q 1991 1309 1228 531 
z
" transform="scale(0.015625)"/>
        <path id="DejaVuSans-35" d="M 691 4666 
L 3169 4666 
L 3169 4134 
L 1269 4134 
L 1269 2991 
Q 1406 3038 1543 3061 
Q 1681 3084 1819 3084 
Q 2600 3084 3056 2656 
Q 3513 2228 3513 1497 
Q 3513 744 3044 326 
Q 2575 -91 1722 -91 
Q 1428 -91 1123 -41 
Q 819 9 494 109 
L 494 744 
Q 775 591 1075 516 
Q 1375 441 1709 441 
Q 2250 441 2565 725 
Q 2881 1009 2881 1497 
Q 2881 1984 2565 2268 
Q 2250 2553 1709 2553 
Q 1456 2553 1204 2497 
Q 953 2441 691 2322 
L 691 4666 
z
" transform="scale(0.015625)"/>
        <path id="DejaVuSans-30" d="M 2034 4250 
Q 1547 4250 1301 3770 
Q 1056 3291 1056 2328 
Q 1056 1369 1301 889 
Q 1547 409 2034 409 
Q 2525 409 2770 889 
Q 3016 1369 3016 2328 
Q 3016 3291 2770 3770 
Q 2525 4250 2034 4250 
z
M 2034 4750 
Q 2819 4750 3233 4129 
Q 3647 3509 3647 2328 
Q 3647 1150 3233 529 
Q 2819 -91 2034 -91 
Q 1250 -91 836 529 
Q 422 1150 422 2328 
Q 422 3509 836 4129 
Q 1250 4750 2034 4750 
z
" transform="scale(0.015625)"/>
       </defs>
       <use xlink:href="#DejaVuSans-32" transform="translate(0 0.78125)"/>
       <use xlink:href="#DejaVuSans-35" transform="translate(63.623047 0.78125)"/>
       <use xlink:href="#DejaVuSans-30" transform="translate(127.246094 0.78125)"/>
      </g>
     </g>
    </g>
    <g id="xtick_2">
     <g id="line2d_2">
      <g>
       <use xlink:href="#mc2c91e95d7" x="125.28" y="192.24" style="stroke: #000000; stroke-width: 0.8"/>
      </g>
     </g>
     <g id="text_2">
      <!-- $\mathdefault{500}$ -->
      <g transform="translate(113.82 208.358125) scale(0.12 -0.12)">
       <use xlink:href="#DejaVuSans-35" transform="translate(0 0.78125)"/>
       <use xlink:href="#DejaVuSans-30" transform="translate(63.623047 0.78125)"/>
       <use xlink:href="#DejaVuSans-30" transform="translate(127.246094 0.78125)"/>
      </g>
     </g>
    </g>
    <g id="xtick_3">
     <g id="line2d_3">
      <g>
       <use xlink:href="#mc2c91e95d7" x="174.88" y="192.24" style="stroke: #000000; stroke-width: 0.8"/>
      </g>
     </g>
     <g id="text_3">
      <!-- $\mathdefault{750}$ -->
      <g transform="translate(163.42 208.358125) scale(0.12 -0.12)">
       <defs>
        <path id="DejaVuSans-37" d="M 525 4666 
L 3525 4666 
L 3525 4397 
L 1831 0 
L 1172 0 
L 2766 4134 
L 525 4134 
L 525 4666 
z
" transform="scale(0.015625)"/>
       </defs>
       <use xlink:href="#DejaVuSans-37" transform="translate(0 0.78125)"/>
       <use xlink:href="#DejaVuSans-35" transform="translate(63.623047 0.78125)"/>
       <use xlink:href="#DejaVuSans-30" transform="translate(127.246094 0.78125)"/>
      </g>
     </g>
    </g>
    <g id="text_4">
     <!-- Diploid N$_e$1 -->
     <g transform="translate(80 227.01375) scale(0.16 -0.16)">
      <defs>
       <path id="DejaVuSans-44" d="M 1259 4147 
L 1259 519 
L 2022 519 
Q 2988 519 3436 956 
Q 3884 1394 3884 2338 
Q 3884 3275 3436 3711 
Q 2988 4147 2022 4147 
L 1259 4147 
z
M 628 4666 
L 1925 4666 
Q 3281 4666 3915 4102 
Q 4550 3538 4550 2338 
Q 4550 1131 3912 565 
Q 3275 0 1925 0 
L 628 0 
L 628 4666 
z
" transform="scale(0.015625)"/>
       <path id="DejaVuSans-69" d="M 603 3500 
L 1178 3500 
L 1178 0 
L 603 0 
L 603 3500 
z
M 603 4863 
L 1178 4863 
L 1178 4134 
L 603 4134 
L 603 4863 
z
" transform="scale(0.015625)"/>
       <path id="DejaVuSans-70" d="M 1159 525 
L 1159 -1331 
L 581 -1331 
L 581 3500 
L 1159 3500 
L 1159 2969 
Q 1341 3281 1617 3432 
Q 1894 3584 2278 3584 
Q 2916 3584 3314 3078 
Q 3713 2572 3713 1747 
Q 3713 922 3314 415 
Q 2916 -91 2278 -91 
Q 1894 -91 1617 61 
Q 1341 213 1159 525 
z
M 3116 1747 
Q 3116 2381 2855 2742 
Q 2594 3103 2138 3103 
Q 1681 3103 1420 2742 
Q 1159 2381 1159 1747 
Q 1159 1113 1420 752 
Q 1681 391 2138 391 
Q 2594 391 2855 752 
Q 3116 1113 3116 1747 
z
" transform="scale(0.015625)"/>
       <path id="DejaVuSans-6c" d="M 603 4863 
L 1178 4863 
L 1178 0 
L 603 0 
L 603 4863 
z
" transform="scale(0.015625)"/>
       <path id="DejaVuSans-6f" d="M 1959 3097 
Q 1497 3097 1228 2736 
Q 959 2375 959 1747 
Q 959 1119 1226 758 
Q 1494 397 1959 397 
Q 2419 397 2687 759 
Q 2956 1122 2956 1747 
Q 2956 2369 2687 2733 
Q 2419 3097 1959 3097 
z
M 1959 3584 
Q 2709 3584 3137 3096 
Q 3566 2609 3566 1747 
Q 3566 888 3137 398 
Q 2709 -91 1959 -91 
Q 1206 -91 779 398 
Q 353 888 353 1747 
Q 353 2609 779 3096 
Q 1206 3584 1959 3584 
z
" transform="scale(0.015625)"/>
       <path id="DejaVuSans-64" d="M 2906 2969 
L 2906 4863 
L 3481 4863 
L 3481 0 
L 2906 0 
L 2906 525 
Q 2725 213 2448 61 
Q 2172 -91 1784 -91 
Q 1150 -91 751 415 
Q 353 922 353 1747 
Q 353 2572 751 3078 
Q 1150 3584 1784 3584 
Q 2172 3584 2448 3432 
Q 2725 3281 2906 2969 
z
M 947 1747 
Q 947 1113 1208 752 
Q 1469 391 1925 391 
Q 2381 391 2643 752 
Q 2906 1113 2906 1747 
Q 2906 2381 2643 2742 
Q 2381 3103 1925 3103 
Q 1469 3103 1208 2742 
Q 947 2381 947 1747 
z
" transform="scale(0.015625)"/>
       <path id="DejaVuSans-20" transform="scale(0.015625)"/>
       <path id="DejaVuSans-4e" d="M 628 4666 
L 1478 4666 
L 3547 763 
L 3547 4666 
L 4159 4666 
L 4159 0 
L 3309 0 
L 1241 3903 
L 1241 0 
L 628 0 
L 628 4666 
z
" transform="scale(0.015625)"/>
       <path id="DejaVuSans-Oblique-65" d="M 3078 2063 
Q 3088 2113 3092 2166 
Q 3097 2219 3097 2272 
Q 3097 2653 2873 2875 
Q 2650 3097 2266 3097 
Q 1838 3097 1509 2826 
Q 1181 2556 1013 2059 
L 3078 2063 
z
M 3578 1613 
L 903 1613 
Q 884 1494 878 1425 
Q 872 1356 872 1306 
Q 872 872 1139 634 
Q 1406 397 1894 397 
Q 2269 397 2603 481 
Q 2938 566 3225 728 
L 3116 159 
Q 2806 34 2476 -28 
Q 2147 -91 1806 -91 
Q 1078 -91 686 257 
Q 294 606 294 1247 
Q 294 1794 489 2264 
Q 684 2734 1063 3103 
Q 1306 3334 1642 3459 
Q 1978 3584 2356 3584 
Q 2950 3584 3301 3228 
Q 3653 2872 3653 2272 
Q 3653 2128 3634 1964 
Q 3616 1800 3578 1613 
z
" transform="scale(0.015625)"/>
       <path id="DejaVuSans-31" d="M 794 531 
L 1825 531 
L 1825 4091 
L 703 3866 
L 703 4441 
L 1819 4666 
L 2450 4666 
L 2450 531 
L 3481 531 
L 3481 0 
L 794 0 
L 794 531 
z
" transform="scale(0.015625)"/>
      </defs>
      <use xlink:href="#DejaVuSans-44" transform="translate(0 0.015625)"/>
      <use xlink:href="#DejaVuSans-69" transform="translate(77.001953 0.015625)"/>
      <use xlink:href="#DejaVuSans-70" transform="translate(104.785156 0.015625)"/>
      <use xlink:href="#DejaVuSans-6c" transform="translate(168.261719 0.015625)"/>
      <use xlink:href="#DejaVuSans-6f" transform="translate(196.044922 0.015625)"/>
      <use xlink:href="#DejaVuSans-69" transform="translate(257.226562 0.015625)"/>
      <use xlink:href="#DejaVuSans-64" transform="translate(285.009766 0.015625)"/>
      <use xlink:href="#DejaVuSans-20" transform="translate(348.486328 0.015625)"/>
      <use xlink:href="#DejaVuSans-4e" transform="translate(380.273438 0.015625)"/>
      <use xlink:href="#DejaVuSans-Oblique-65" transform="translate(456.035156 -16.390625) scale(0.7)"/>
      <use xlink:href="#DejaVuSans-31" transform="translate(501.835938 0.015625)"/>
     </g>
    </g>
    <g id="text_5">
     <!-- $\times\mathdefault{10^{3}}\mathdefault{}$ -->
     <g transform="translate(188.56 221.452188) scale(0.1 -0.1)">
      <defs>
       <path id="DejaVuSans-d7" d="M 4488 3438 
L 3059 2003 
L 4488 575 
L 4116 197 
L 2681 1631 
L 1247 197 
L 878 575 
L 2303 2003 
L 878 3438 
L 1247 3816 
L 2681 2381 
L 4116 3816 
L 4488 3438 
z
" transform="scale(0.015625)"/>
       <path id="DejaVuSans-33" d="M 2597 2516 
Q 3050 2419 3304 2112 
Q 3559 1806 3559 1356 
Q 3559 666 3084 287 
Q 2609 -91 1734 -91 
Q 1441 -91 1130 -33 
Q 819 25 488 141 
L 488 750 
Q 750 597 1062 519 
Q 1375 441 1716 441 
Q 2309 441 2620 675 
Q 2931 909 2931 1356 
Q 2931 1769 2642 2001 
Q 2353 2234 1838 2234 
L 1294 2234 
L 1294 2753 
L 1863 2753 
Q 2328 2753 2575 2939 
Q 2822 3125 2822 3475 
Q 2822 3834 2567 4026 
Q 2313 4219 1838 4219 
Q 1578 4219 1281 4162 
Q 984 4106 628 3988 
L 628 4550 
Q 988 4650 1302 4700 
Q 1616 4750 1894 4750 
Q 2613 4750 3031 4423 
Q 3450 4097 3450 3541 
Q 3450 3153 3228 2886 
Q 3006 2619 2597 2516 
z
" transform="scale(0.015625)"/>
      </defs>
      <use xlink:href="#DejaVuSans-d7" transform="translate(0 0.765625)"/>
      <use xlink:href="#DejaVuSans-31" transform="translate(83.789062 0.765625)"/>
      <use xlink:href="#DejaVuSans-30" transform="translate(147.412109 0.765625)"/>
      <use xlink:href="#DejaVuSans-33" transform="translate(211.992188 39.046875) scale(0.7)"/>
     </g>
    </g>
   </g>
   <g id="matplotlib.axis_2">
    <g id="ytick_1">
     <g id="line2d_4">
      <defs>
       <path id="mb4378715c2" d="M 0 0 
L -3.5 0 
" style="stroke: #000000; stroke-width: 0.8"/>
      </defs>
      <g>
       <use xlink:href="#mb4378715c2" x="36" y="155.28" style="stroke: #000000; stroke-width: 0.8"/>
      </g>
     </g>
     <g id="text_6">
      <!-- $\mathdefault{250}$ -->
      <g transform="translate(6.08 159.839063) scale(0.12 -0.12)">
       <use xlink:href="#DejaVuSans-32" transform="translate(0 0.78125)"/>
       <use xlink:href="#DejaVuSans-35" transform="translate(63.623047 0.78125)"/>
       <use xlink:href="#DejaVuSans-30" transform="translate(127.246094 0.78125)"/>
      </g>
     </g>
    </g>
    <g id="ytick_2">
     <g id="line2d_5">
      <g>
       <use xlink:href="#mb4378715c2" x="36" y="109.08" style="stroke: #000000; stroke-width: 0.8"/>
      </g>
     </g>
     <g id="text_7">
      <!-- $\mathdefault{500}$ -->
      <g transform="translate(6.08 113.639062) scale(0.12 -0.12)">
       <use xlink:href="#DejaVuSans-35" transform="translate(0 0.78125)"/>
       <use xlink:href="#DejaVuSans-30" transform="translate(63.623047 0.78125)"/>
       <use xlink:href="#DejaVuSans-30" transform="translate(127.246094 0.78125)"/>
      </g>
     </g>
    </g>
    <g id="ytick_3">
     <g id="line2d_6">
      <g>
       <use xlink:href="#mb4378715c2" x="36" y="62.88" style="stroke: #000000; stroke-width: 0.8"/>
      </g>
     </g>
     <g id="text_8">
      <!-- $\mathdefault{750}$ -->
      <g transform="translate(6.08 67.439062) scale(0.12 -0.12)">
       <use xlink:href="#DejaVuSans-37" transform="translate(0 0.78125)"/>
       <use xlink:href="#DejaVuSans-35" transform="translate(63.623047 0.78125)"/>
       <use xlink:href="#DejaVuSans-30" transform="translate(127.246094 0.78125)"/>
      </g>
     </g>
    </g>
    <g id="text_9">
     <!-- Diploid N$_e$2 -->
     <g transform="translate(-1.28 154.36) rotate(-90) scale(0.16 -0.16)">
      <use xlink:href="#DejaVuSans-44" transform="translate(0 0.015625)"/>
      <use xlink:href="#DejaVuSans-69" transform="translate(77.001953 0.015625)"/>
      <use xlink:href="#DejaVuSans-70" transform="translate(104.785156 0.015625)"/>
      <use xlink:href="#DejaVuSans-6c" transform="translate(168.261719 0.015625)"/>
      <use xlink:href="#DejaVuSans-6f" transform="translate(196.044922 0.015625)"/>
      <use xlink:href="#DejaVuSans-69" transform="translate(257.226562 0.015625)"/>
      <use xlink:href="#DejaVuSans-64" transform="translate(285.009766 0.015625)"/>
      <use xlink:href="#DejaVuSans-20" transform="translate(348.486328 0.015625)"/>
      <use xlink:href="#DejaVuSans-4e" transform="translate(380.273438 0.015625)"/>
      <use xlink:href="#DejaVuSans-Oblique-65" transform="translate(456.035156 -16.390625) scale(0.7)"/>
      <use xlink:href="#DejaVuSans-32" transform="translate(501.835938 0.015625)"/>
     </g>
    </g>
    <g id="text_10">
     <!-- $\times\mathdefault{10^{3}}\mathdefault{}$ -->
     <g transform="translate(36 22.92) scale(0.1 -0.1)">
      <use xlink:href="#DejaVuSans-d7" transform="translate(0 0.765625)"/>
      <use xlink:href="#DejaVuSans-31" transform="translate(83.789062 0.765625)"/>
      <use xlink:href="#DejaVuSans-30" transform="translate(147.412109 0.765625)"/>
      <use xlink:href="#DejaVuSans-33" transform="translate(211.992188 39.046875) scale(0.7)"/>
     </g>
    </g>
   </g>
   <g id="patch_3">
    <path d="M 36 192.24 
L 36 25.92 
" style="fill: none; stroke: #000000; stroke-width: 0.8; stroke-linejoin: miter; stroke-linecap: square"/>
   </g>
   <g id="patch_4">
    <path d="M 214.56 192.24 
L 214.56 25.92 
" style="fill: none; stroke: #000000; stroke-width: 0.8; stroke-linejoin: miter; stroke-linecap: square"/>
   </g>
   <g id="patch_5">
    <path d="M 36 192.24 
L 214.56 192.24 
" style="fill: none; stroke: #000000; stroke-width: 0.8; stroke-linejoin: miter; stroke-linecap: square"/>
   </g>
   <g id="patch_6">
    <path d="M 36 25.92 
L 214.56 25.92 
" style="fill: none; stroke: #000000; stroke-width: 0.8; stroke-linejoin: miter; stroke-linecap: square"/>
   </g>
   <g id="text_11">
    <!-- Ne1Ne2-MSSMC-T-P2-S4 -->
    <g transform="translate(28.6825 10.92) scale(0.16 -0.16)">
     <defs>
      <path id="DejaVuSans-65" d="M 3597 1894 
L 3597 1613 
L 953 1613 
Q 991 1019 1311 708 
Q 1631 397 2203 397 
Q 2534 397 2845 478 
Q 3156 559 3463 722 
L 3463 178 
Q 3153 47 2828 -22 
Q 2503 -91 2169 -91 
Q 1331 -91 842 396 
Q 353 884 353 1716 
Q 353 2575 817 3079 
Q 1281 3584 2069 3584 
Q 2775 3584 3186 3129 
Q 3597 2675 3597 1894 
z
M 3022 2063 
Q 3016 2534 2758 2815 
Q 2500 3097 2075 3097 
Q 1594 3097 1305 2825 
Q 1016 2553 972 2059 
L 3022 2063 
z
" transform="scale(0.015625)"/>
      <path id="DejaVuSans-2d" d="M 313 2009 
L 1997 2009 
L 1997 1497 
L 313 1497 
L 313 2009 
z
" transform="scale(0.015625)"/>
      <path id="DejaVuSans-4d" d="M 628 4666 
L 1569 4666 
L 2759 1491 
L 3956 4666 
L 4897 4666 
L 4897 0 
L 4281 0 
L 4281 4097 
L 3078 897 
L 2444 897 
L 1241 4097 
L 1241 0 
L 628 0 
L 628 4666 
z
" transform="scale(0.015625)"/>
      <path id="DejaVuSans-53" d="M 3425 4513 
L 3425 3897 
Q 3066 4069 2747 4153 
Q 2428 4238 2131 4238 
Q 1616 4238 1336 4038 
Q 1056 3838 1056 3469 
Q 1056 3159 1242 3001 
Q 1428 2844 1947 2747 
L 2328 2669 
Q 3034 2534 3370 2195 
Q 3706 1856 3706 1288 
Q 3706 609 3251 259 
Q 2797 -91 1919 -91 
Q 1588 -91 1214 -16 
Q 841 59 441 206 
L 441 856 
Q 825 641 1194 531 
Q 1563 422 1919 422 
Q 2459 422 2753 634 
Q 3047 847 3047 1241 
Q 3047 1584 2836 1778 
Q 2625 1972 2144 2069 
L 1759 2144 
Q 1053 2284 737 2584 
Q 422 2884 422 3419 
Q 422 4038 858 4394 
Q 1294 4750 2059 4750 
Q 2388 4750 2728 4690 
Q 3069 4631 3425 4513 
z
" transform="scale(0.015625)"/>
      <path id="DejaVuSans-43" d="M 4122 4306 
L 4122 3641 
Q 3803 3938 3442 4084 
Q 3081 4231 2675 4231 
Q 1875 4231 1450 3742 
Q 1025 3253 1025 2328 
Q 1025 1406 1450 917 
Q 1875 428 2675 428 
Q 3081 428 3442 575 
Q 3803 722 4122 1019 
L 4122 359 
Q 3791 134 3420 21 
Q 3050 -91 2638 -91 
Q 1578 -91 968 557 
Q 359 1206 359 2328 
Q 359 3453 968 4101 
Q 1578 4750 2638 4750 
Q 3056 4750 3426 4639 
Q 3797 4528 4122 4306 
z
" transform="scale(0.015625)"/>
      <path id="DejaVuSans-54" d="M -19 4666 
L 3928 4666 
L 3928 4134 
L 2272 4134 
L 2272 0 
L 1638 0 
L 1638 4134 
L -19 4134 
L -19 4666 
z
" transform="scale(0.015625)"/>
      <path id="DejaVuSans-50" d="M 1259 4147 
L 1259 2394 
L 2053 2394 
Q 2494 2394 2734 2622 
Q 2975 2850 2975 3272 
Q 2975 3691 2734 3919 
Q 2494 4147 2053 4147 
L 1259 4147 
z
M 628 4666 
L 2053 4666 
Q 2838 4666 3239 4311 
Q 3641 3956 3641 3272 
Q 3641 2581 3239 2228 
Q 2838 1875 2053 1875 
L 1259 1875 
L 1259 0 
L 628 0 
L 628 4666 
z
" transform="scale(0.015625)"/>
      <path id="DejaVuSans-34" d="M 2419 4116 
L 825 1625 
L 2419 1625 
L 2419 4116 
z
M 2253 4666 
L 3047 4666 
L 3047 1625 
L 3713 1625 
L 3713 1100 
L 3047 1100 
L 3047 0 
L 2419 0 
L 2419 1100 
L 313 1100 
L 313 1709 
L 2253 4666 
z
" transform="scale(0.015625)"/>
     </defs>
     <use xlink:href="#DejaVuSans-4e"/>
     <use xlink:href="#DejaVuSans-65" x="74.804688"/>
     <use xlink:href="#DejaVuSans-31" x="136.328125"/>
     <use xlink:href="#DejaVuSans-4e" x="199.951172"/>
     <use xlink:href="#DejaVuSans-65" x="274.755859"/>
     <use xlink:href="#DejaVuSans-32" x="336.279297"/>
     <use xlink:href="#DejaVuSans-2d" x="399.902344"/>
     <use xlink:href="#DejaVuSans-4d" x="435.986328"/>
     <use xlink:href="#DejaVuSans-53" x="522.265625"/>
     <use xlink:href="#DejaVuSans-53" x="585.742188"/>
     <use xlink:href="#DejaVuSans-4d" x="649.21875"/>
     <use xlink:href="#DejaVuSans-43" x="735.498047"/>
     <use xlink:href="#DejaVuSans-2d" x="805.322266"/>
     <use xlink:href="#DejaVuSans-54" x="832.28125"/>
     <use xlink:href="#DejaVuSans-2d" x="884.240234"/>
     <use xlink:href="#DejaVuSans-50" x="920.324219"/>
     <use xlink:href="#DejaVuSans-32" x="980.626953"/>
     <use xlink:href="#DejaVuSans-2d" x="1044.25"/>
     <use xlink:href="#DejaVuSans-53" x="1080.333984"/>
     <use xlink:href="#DejaVuSans-34" x="1143.810547"/>
    </g>
   </g>
  </g>
  <g id="axes_2">
   <g id="patch_7">
    <path d="M 225.72 192.24 
L 234.036 192.24 
L 234.036 25.92 
L 225.72 25.92 
z
" style="fill: #ffffff"/>
   </g>
   <g id="QuadMesh_1">
    <path d="M 225.72 192.24 
L 234.036 192.24 
L 234.036 186.3 
L 225.72 186.3 
L 225.72 192.24 
" clip-path="url(#p832134c331)" style="fill: #440154"/>
    <path d="M 225.72 186.3 
L 234.036 186.3 
L 234.036 180.36 
L 225.72 180.36 
L 225.72 186.3 
" clip-path="url(#p832134c331)" style="fill: #440154"/>
    <path d="M 225.72 180.36 
L 234.036 180.36 
L 234.036 174.42 
L 225.72 174.42 
L 225.72 180.36 
" clip-path="url(#p832134c331)" style="fill: #440154"/>
    <path d="M 225.72 174.42 
L 234.036 174.42 
L 234.036 168.48 
L 225.72 168.48 
L 225.72 174.42 
" clip-path="url(#p832134c331)" style="fill: #440154"/>
    <path d="M 225.72 168.48 
L 234.036 168.48 
L 234.036 162.54 
L 225.72 162.54 
L 225.72 168.48 
" clip-path="url(#p832134c331)" style="fill: #440154"/>
    <path d="M 225.72 162.54 
L 234.036 162.54 
L 234.036 156.6 
L 225.72 156.6 
L 225.72 162.54 
" clip-path="url(#p832134c331)" style="fill: #440154"/>
    <path d="M 225.72 156.6 
L 234.036 156.6 
L 234.036 150.66 
L 225.72 150.66 
L 225.72 156.6 
" clip-path="url(#p832134c331)" style="fill: #440154"/>
    <path d="M 225.72 150.66 
L 234.036 150.66 
L 234.036 144.72 
L 225.72 144.72 
L 225.72 150.66 
" clip-path="url(#p832134c331)" style="fill: #440154"/>
    <path d="M 225.72 144.72 
L 234.036 144.72 
L 234.036 138.78 
L 225.72 138.78 
L 225.72 144.72 
" clip-path="url(#p832134c331)" style="fill: #440154"/>
    <path d="M 225.72 138.78 
L 234.036 138.78 
L 234.036 132.84 
L 225.72 132.84 
L 225.72 138.78 
" clip-path="url(#p832134c331)" style="fill: #440154"/>
    <path d="M 225.72 132.84 
L 234.036 132.84 
L 234.036 126.9 
L 225.72 126.9 
L 225.72 132.84 
" clip-path="url(#p832134c331)" style="fill: #440154"/>
    <path d="M 225.72 126.9 
L 234.036 126.9 
L 234.036 120.96 
L 225.72 120.96 
L 225.72 126.9 
" clip-path="url(#p832134c331)" style="fill: #440154"/>
    <path d="M 225.72 120.96 
L 234.036 120.96 
L 234.036 115.02 
L 225.72 115.02 
L 225.72 120.96 
" clip-path="url(#p832134c331)" style="fill: #440154"/>
    <path d="M 225.72 115.02 
L 234.036 115.02 
L 234.036 109.08 
L 225.72 109.08 
L 225.72 115.02 
" clip-path="url(#p832134c331)" style="fill: #440154"/>
    <path d="M 225.72 109.08 
L 234.036 109.08 
L 234.036 103.14 
L 225.72 103.14 
L 225.72 109.08 
" clip-path="url(#p832134c331)" style="fill: #481467"/>
    <path d="M 225.72 103.14 
L 234.036 103.14 
L 234.036 97.2 
L 225.72 97.2 
L 225.72 103.14 
" clip-path="url(#p832134c331)" style="fill: #472c7a"/>
    <path d="M 225.72 97.2 
L 234.036 97.2 
L 234.036 91.26 
L 225.72 91.26 
L 225.72 97.2 
" clip-path="url(#p832134c331)" style="fill: #424186"/>
    <path d="M 225.72 91.26 
L 234.036 91.26 
L 234.036 85.32 
L 225.72 85.32 
L 225.72 91.26 
" clip-path="url(#p832134c331)" style="fill: #39558c"/>
    <path d="M 225.72 85.32 
L 234.036 85.32 
L 234.036 79.38 
L 225.72 79.38 
L 225.72 85.32 
" clip-path="url(#p832134c331)" style="fill: #31688e"/>
    <path d="M 225.72 79.38 
L 234.036 79.38 
L 234.036 73.44 
L 225.72 73.44 
L 225.72 79.38 
" clip-path="url(#p832134c331)" style="fill: #29798e"/>
    <path d="M 225.72 73.44 
L 234.036 73.44 
L 234.036 67.5 
L 225.72 67.5 
L 225.72 73.44 
" clip-path="url(#p832134c331)" style="fill: #238a8d"/>
    <path d="M 225.72 67.5 
L 234.036 67.5 
L 234.036 61.56 
L 225.72 61.56 
L 225.72 67.5 
" clip-path="url(#p832134c331)" style="fill: #1e9b8a"/>
    <path d="M 225.72 61.56 
L 234.036 61.56 
L 234.036 55.62 
L 225.72 55.62 
L 225.72 61.56 
" clip-path="url(#p832134c331)" style="fill: #25ac82"/>
    <path d="M 225.72 55.62 
L 234.036 55.62 
L 234.036 49.68 
L 225.72 49.68 
L 225.72 55.62 
" clip-path="url(#p832134c331)" style="fill: #3dbc74"/>
    <path d="M 225.72 49.68 
L 234.036 49.68 
L 234.036 43.74 
L 225.72 43.74 
L 225.72 49.68 
" clip-path="url(#p832134c331)" style="fill: #60ca60"/>
    <path d="M 225.72 43.74 
L 234.036 43.74 
L 234.036 37.8 
L 225.72 37.8 
L 225.72 43.74 
" clip-path="url(#p832134c331)" style="fill: #8bd646"/>
    <path d="M 225.72 37.8 
L 234.036 37.8 
L 234.036 31.86 
L 225.72 31.86 
L 225.72 37.8 
" clip-path="url(#p832134c331)" style="fill: #bade28"/>
    <path d="M 225.72 31.86 
L 234.036 31.86 
L 234.036 25.92 
L 225.72 25.92 
L 225.72 31.86 
" clip-path="url(#p832134c331)" style="fill: #eae51a"/>
   </g>
   <g id="matplotlib.axis_3"/>
   <g id="matplotlib.axis_4">
    <g id="ytick_4">
     <g id="line2d_7">
      <defs>
       <path id="m74d0c7f595" d="M 0 0 
L 3.5 0 
" style="stroke: #000000; stroke-width: 0.8"/>
      </defs>
      <g>
       <use xlink:href="#m74d0c7f595" x="234.036" y="186.3" style="stroke: #000000; stroke-width: 0.8"/>
      </g>
     </g>
     <g id="text_12">
      <!-- $\mathdefault{2295}$ -->
      <g transform="translate(241.036 190.099219) scale(0.1 -0.1)">
       <defs>
        <path id="DejaVuSans-2212" d="M 678 2272 
L 4684 2272 
L 4684 1741 
L 678 1741 
L 678 2272 
z
" transform="scale(0.015625)"/>
        <path id="DejaVuSans-39" d="M 703 97 
L 703 672 
Q 941 559 1184 500 
Q 1428 441 1663 441 
Q 2288 441 2617 861 
Q 2947 1281 2994 2138 
Q 2813 1869 2534 1725 
Q 2256 1581 1919 1581 
Q 1219 1581 811 2004 
Q 403 2428 403 3163 
Q 403 3881 828 4315 
Q 1253 4750 1959 4750 
Q 2769 4750 3195 4129 
Q 3622 3509 3622 2328 
Q 3622 1225 3098 567 
Q 2575 -91 1691 -91 
Q 1453 -91 1209 -44 
Q 966 3 703 97 
z
M 1959 2075 
Q 2384 2075 2632 2365 
Q 2881 2656 2881 3163 
Q 2881 3666 2632 3958 
Q 2384 4250 1959 4250 
Q 1534 4250 1286 3958 
Q 1038 3666 1038 3163 
Q 1038 2656 1286 2365 
Q 1534 2075 1959 2075 
z
" transform="scale(0.015625)"/>
       </defs>
       <use xlink:href="#DejaVuSans-2212" transform="translate(0 0.78125)"/>
       <use xlink:href="#DejaVuSans-32" transform="translate(83.789062 0.78125)"/>
       <use xlink:href="#DejaVuSans-32" transform="translate(147.412109 0.78125)"/>
       <use xlink:href="#DejaVuSans-39" transform="translate(209.285156 0.78125)"/>
       <use xlink:href="#DejaVuSans-35" transform="translate(272.908203 0.78125)"/>
      </g>
     </g>
    </g>
    <g id="ytick_5">
     <g id="line2d_8">
      <g>
       <use xlink:href="#m74d0c7f595" x="234.036" y="168.48" style="stroke: #000000; stroke-width: 0.8"/>
      </g>
     </g>
     <g id="text_13">
      <!-- $\mathdefault{2250}$ -->
      <g transform="translate(241.036 172.279219) scale(0.1 -0.1)">
       <use xlink:href="#DejaVuSans-2212" transform="translate(0 0.78125)"/>
       <use xlink:href="#DejaVuSans-32" transform="translate(83.789062 0.78125)"/>
       <use xlink:href="#DejaVuSans-32" transform="translate(147.412109 0.78125)"/>
       <use xlink:href="#DejaVuSans-35" transform="translate(211.035156 0.78125)"/>
       <use xlink:href="#DejaVuSans-30" transform="translate(274.658203 0.78125)"/>
      </g>
     </g>
    </g>
    <g id="ytick_6">
     <g id="line2d_9">
      <g>
       <use xlink:href="#m74d0c7f595" x="234.036" y="150.66" style="stroke: #000000; stroke-width: 0.8"/>
      </g>
     </g>
     <g id="text_14">
      <!-- $\mathdefault{2205}$ -->
      <g transform="translate(241.036 154.459219) scale(0.1 -0.1)">
       <use xlink:href="#DejaVuSans-2212" transform="translate(0 0.78125)"/>
       <use xlink:href="#DejaVuSans-32" transform="translate(83.789062 0.78125)"/>
       <use xlink:href="#DejaVuSans-32" transform="translate(147.412109 0.78125)"/>
       <use xlink:href="#DejaVuSans-30" transform="translate(211.035156 0.78125)"/>
       <use xlink:href="#DejaVuSans-35" transform="translate(274.658203 0.78125)"/>
      </g>
     </g>
    </g>
    <g id="ytick_7">
     <g id="line2d_10">
      <g>
       <use xlink:href="#m74d0c7f595" x="234.036" y="132.84" style="stroke: #000000; stroke-width: 0.8"/>
      </g>
     </g>
     <g id="text_15">
      <!-- $\mathdefault{2160}$ -->
      <g transform="translate(241.036 136.639219) scale(0.1 -0.1)">
       <defs>
        <path id="DejaVuSans-36" d="M 2113 2584 
Q 1688 2584 1439 2293 
Q 1191 2003 1191 1497 
Q 1191 994 1439 701 
Q 1688 409 2113 409 
Q 2538 409 2786 701 
Q 3034 994 3034 1497 
Q 3034 2003 2786 2293 
Q 2538 2584 2113 2584 
z
M 3366 4563 
L 3366 3988 
Q 3128 4100 2886 4159 
Q 2644 4219 2406 4219 
Q 1781 4219 1451 3797 
Q 1122 3375 1075 2522 
Q 1259 2794 1537 2939 
Q 1816 3084 2150 3084 
Q 2853 3084 3261 2657 
Q 3669 2231 3669 1497 
Q 3669 778 3244 343 
Q 2819 -91 2113 -91 
Q 1303 -91 875 529 
Q 447 1150 447 2328 
Q 447 3434 972 4092 
Q 1497 4750 2381 4750 
Q 2619 4750 2861 4703 
Q 3103 4656 3366 4563 
z
" transform="scale(0.015625)"/>
       </defs>
       <use xlink:href="#DejaVuSans-2212" transform="translate(0 0.78125)"/>
       <use xlink:href="#DejaVuSans-32" transform="translate(83.789062 0.78125)"/>
       <use xlink:href="#DejaVuSans-31" transform="translate(147.412109 0.78125)"/>
       <use xlink:href="#DejaVuSans-36" transform="translate(211.035156 0.78125)"/>
       <use xlink:href="#DejaVuSans-30" transform="translate(274.658203 0.78125)"/>
      </g>
     </g>
    </g>
    <g id="ytick_8">
     <g id="line2d_11">
      <g>
       <use xlink:href="#m74d0c7f595" x="234.036" y="115.02" style="stroke: #000000; stroke-width: 0.8"/>
      </g>
     </g>
     <g id="text_16">
      <!-- $\mathdefault{2115}$ -->
      <g transform="translate(241.036 118.819219) scale(0.1 -0.1)">
       <use xlink:href="#DejaVuSans-2212" transform="translate(0 0.78125)"/>
       <use xlink:href="#DejaVuSans-32" transform="translate(83.789062 0.78125)"/>
       <use xlink:href="#DejaVuSans-31" transform="translate(147.412109 0.78125)"/>
       <use xlink:href="#DejaVuSans-31" transform="translate(211.035156 0.78125)"/>
       <use xlink:href="#DejaVuSans-35" transform="translate(274.658203 0.78125)"/>
      </g>
     </g>
    </g>
    <g id="ytick_9">
     <g id="line2d_12">
      <g>
       <use xlink:href="#m74d0c7f595" x="234.036" y="97.2" style="stroke: #000000; stroke-width: 0.8"/>
      </g>
     </g>
     <g id="text_17">
      <!-- $\mathdefault{2070}$ -->
      <g transform="translate(241.036 100.999219) scale(0.1 -0.1)">
       <use xlink:href="#DejaVuSans-2212" transform="translate(0 0.78125)"/>
       <use xlink:href="#DejaVuSans-32" transform="translate(83.789062 0.78125)"/>
       <use xlink:href="#DejaVuSans-30" transform="translate(147.412109 0.78125)"/>
       <use xlink:href="#DejaVuSans-37" transform="translate(211.035156 0.78125)"/>
       <use xlink:href="#DejaVuSans-30" transform="translate(274.658203 0.78125)"/>
      </g>
     </g>
    </g>
    <g id="ytick_10">
     <g id="line2d_13">
      <g>
       <use xlink:href="#m74d0c7f595" x="234.036" y="79.38" style="stroke: #000000; stroke-width: 0.8"/>
      </g>
     </g>
     <g id="text_18">
      <!-- $\mathdefault{2025}$ -->
      <g transform="translate(241.036 83.179219) scale(0.1 -0.1)">
       <use xlink:href="#DejaVuSans-2212" transform="translate(0 0.78125)"/>
       <use xlink:href="#DejaVuSans-32" transform="translate(83.789062 0.78125)"/>
       <use xlink:href="#DejaVuSans-30" transform="translate(147.412109 0.78125)"/>
       <use xlink:href="#DejaVuSans-32" transform="translate(211.035156 0.78125)"/>
       <use xlink:href="#DejaVuSans-35" transform="translate(274.658203 0.78125)"/>
      </g>
     </g>
    </g>
    <g id="ytick_11">
     <g id="line2d_14">
      <g>
       <use xlink:href="#m74d0c7f595" x="234.036" y="61.56" style="stroke: #000000; stroke-width: 0.8"/>
      </g>
     </g>
     <g id="text_19">
      <!-- $\mathdefault{1980}$ -->
      <g transform="translate(241.036 65.359219) scale(0.1 -0.1)">
       <defs>
        <path id="DejaVuSans-38" d="M 2034 2216 
Q 1584 2216 1326 1975 
Q 1069 1734 1069 1313 
Q 1069 891 1326 650 
Q 1584 409 2034 409 
Q 2484 409 2743 651 
Q 3003 894 3003 1313 
Q 3003 1734 2745 1975 
Q 2488 2216 2034 2216 
z
M 1403 2484 
Q 997 2584 770 2862 
Q 544 3141 544 3541 
Q 544 4100 942 4425 
Q 1341 4750 2034 4750 
Q 2731 4750 3128 4425 
Q 3525 4100 3525 3541 
Q 3525 3141 3298 2862 
Q 3072 2584 2669 2484 
Q 3125 2378 3379 2068 
Q 3634 1759 3634 1313 
Q 3634 634 3220 271 
Q 2806 -91 2034 -91 
Q 1263 -91 848 271 
Q 434 634 434 1313 
Q 434 1759 690 2068 
Q 947 2378 1403 2484 
z
M 1172 3481 
Q 1172 3119 1398 2916 
Q 1625 2713 2034 2713 
Q 2441 2713 2670 2916 
Q 2900 3119 2900 3481 
Q 2900 3844 2670 4047 
Q 2441 4250 2034 4250 
Q 1625 4250 1398 4047 
Q 1172 3844 1172 3481 
z
" transform="scale(0.015625)"/>
       </defs>
       <use xlink:href="#DejaVuSans-2212" transform="translate(0 0.78125)"/>
       <use xlink:href="#DejaVuSans-31" transform="translate(83.789062 0.78125)"/>
       <use xlink:href="#DejaVuSans-39" transform="translate(147.412109 0.78125)"/>
       <use xlink:href="#DejaVuSans-38" transform="translate(211.035156 0.78125)"/>
       <use xlink:href="#DejaVuSans-30" transform="translate(274.658203 0.78125)"/>
      </g>
     </g>
    </g>
    <g id="ytick_12">
     <g id="line2d_15">
      <g>
       <use xlink:href="#m74d0c7f595" x="234.036" y="43.74" style="stroke: #000000; stroke-width: 0.8"/>
      </g>
     </g>
     <g id="text_20">
      <!-- $\mathdefault{1935}$ -->
      <g transform="translate(241.036 47.539219) scale(0.1 -0.1)">
       <use xlink:href="#DejaVuSans-2212" transform="translate(0 0.78125)"/>
       <use xlink:href="#DejaVuSans-31" transform="translate(83.789062 0.78125)"/>
       <use xlink:href="#DejaVuSans-39" transform="translate(147.412109 0.78125)"/>
       <use xlink:href="#DejaVuSans-33" transform="translate(211.035156 0.78125)"/>
       <use xlink:href="#DejaVuSans-35" transform="translate(274.658203 0.78125)"/>
      </g>
     </g>
    </g>
    <g id="ytick_13">
     <g id="line2d_16">
      <g>
       <use xlink:href="#m74d0c7f595" x="234.036" y="25.92" style="stroke: #000000; stroke-width: 0.8"/>
      </g>
     </g>
     <g id="text_21">
      <!-- $\mathdefault{1890}$ -->
      <g transform="translate(241.036 29.719219) scale(0.1 -0.1)">
       <use xlink:href="#DejaVuSans-2212" transform="translate(0 0.78125)"/>
       <use xlink:href="#DejaVuSans-31" transform="translate(83.789062 0.78125)"/>
       <use xlink:href="#DejaVuSans-38" transform="translate(147.412109 0.78125)"/>
       <use xlink:href="#DejaVuSans-39" transform="translate(211.035156 0.78125)"/>
       <use xlink:href="#DejaVuSans-30" transform="translate(274.658203 0.78125)"/>
      </g>
     </g>
    </g>
    <g id="text_22">
     <!-- log likelihood -->
     <g transform="translate(288.054125 148.704375) rotate(-90) scale(0.12 -0.12)">
      <defs>
       <path id="DejaVuSans-67" d="M 2906 1791 
Q 2906 2416 2648 2759 
Q 2391 3103 1925 3103 
Q 1463 3103 1205 2759 
Q 947 2416 947 1791 
Q 947 1169 1205 825 
Q 1463 481 1925 481 
Q 2391 481 2648 825 
Q 2906 1169 2906 1791 
z
M 3481 434 
Q 3481 -459 3084 -895 
Q 2688 -1331 1869 -1331 
Q 1566 -1331 1297 -1286 
Q 1028 -1241 775 -1147 
L 775 -588 
Q 1028 -725 1275 -790 
Q 1522 -856 1778 -856 
Q 2344 -856 2625 -561 
Q 2906 -266 2906 331 
L 2906 616 
Q 2728 306 2450 153 
Q 2172 0 1784 0 
Q 1141 0 747 490 
Q 353 981 353 1791 
Q 353 2603 747 3093 
Q 1141 3584 1784 3584 
Q 2172 3584 2450 3431 
Q 2728 3278 2906 2969 
L 2906 3500 
L 3481 3500 
L 3481 434 
z
" transform="scale(0.015625)"/>
       <path id="DejaVuSans-6b" d="M 581 4863 
L 1159 4863 
L 1159 1991 
L 2875 3500 
L 3609 3500 
L 1753 1863 
L 3688 0 
L 2938 0 
L 1159 1709 
L 1159 0 
L 581 0 
L 581 4863 
z
" transform="scale(0.015625)"/>
       <path id="DejaVuSans-68" d="M 3513 2113 
L 3513 0 
L 2938 0 
L 2938 2094 
Q 2938 2591 2744 2837 
Q 2550 3084 2163 3084 
Q 1697 3084 1428 2787 
Q 1159 2491 1159 1978 
L 1159 0 
L 581 0 
L 581 4863 
L 1159 4863 
L 1159 2956 
Q 1366 3272 1645 3428 
Q 1925 3584 2291 3584 
Q 2894 3584 3203 3211 
Q 3513 2838 3513 2113 
z
" transform="scale(0.015625)"/>
      </defs>
      <use xlink:href="#DejaVuSans-6c"/>
      <use xlink:href="#DejaVuSans-6f" x="27.783203"/>
      <use xlink:href="#DejaVuSans-67" x="88.964844"/>
      <use xlink:href="#DejaVuSans-20" x="152.441406"/>
      <use xlink:href="#DejaVuSans-6c" x="184.228516"/>
      <use xlink:href="#DejaVuSans-69" x="212.011719"/>
      <use xlink:href="#DejaVuSans-6b" x="239.794922"/>
      <use xlink:href="#DejaVuSans-65" x="294.080078"/>
      <use xlink:href="#DejaVuSans-6c" x="355.603516"/>
      <use xlink:href="#DejaVuSans-69" x="383.386719"/>
      <use xlink:href="#DejaVuSans-68" x="411.169922"/>
      <use xlink:href="#DejaVuSans-6f" x="474.548828"/>
      <use xlink:href="#DejaVuSans-6f" x="535.730469"/>
      <use xlink:href="#DejaVuSans-64" x="596.912109"/>
     </g>
    </g>
    <g id="text_23">
     <!-- $\times\mathdefault{10^{3}}\mathdefault{}$ -->
     <g transform="translate(208.036 22.92) scale(0.1 -0.1)">
      <use xlink:href="#DejaVuSans-d7" transform="translate(0 0.765625)"/>
      <use xlink:href="#DejaVuSans-31" transform="translate(83.789062 0.765625)"/>
      <use xlink:href="#DejaVuSans-30" transform="translate(147.412109 0.765625)"/>
      <use xlink:href="#DejaVuSans-33" transform="translate(211.992188 39.046875) scale(0.7)"/>
     </g>
    </g>
   </g>
   <g id="LineCollection_1"/>
   <g id="patch_8">
    <path d="M 225.72 192.24 
L 229.878 192.24 
L 234.036 192.24 
L 234.036 25.92 
L 229.878 25.92 
L 225.72 25.92 
L 225.72 192.24 
z
" style="fill: none; stroke: #000000; stroke-width: 0.8; stroke-linejoin: miter; stroke-linecap: square"/>
   </g>
  </g>
 </g>
 <defs>
  <clipPath id="pdb20df23e2">
   <rect x="36" y="25.92" width="178.56" height="166.32"/>
  </clipPath>
  <clipPath id="p832134c331">
   <rect x="225.72" y="25.92" width="8.316" height="166.32"/>
  </clipPath>
 </defs>
</svg>
