<?xml version="1.0" encoding="utf-8" standalone="no"?>
<!DOCTYPE svg PUBLIC "-//W3C//DTD SVG 1.1//EN"
  "http://www.w3.org/Graphics/SVG/1.1/DTD/svg11.dtd">
<svg xmlns:xlink="http://www.w3.org/1999/xlink" width="288pt" height="216pt" viewBox="0 0 288 216" xmlns="http://www.w3.org/2000/svg" version="1.1">
 <metadata>
  <rdf:RDF xmlns:dc="http://purl.org/dc/elements/1.1/" xmlns:cc="http://creativecommons.org/ns#" xmlns:rdf="http://www.w3.org/1999/02/22-rdf-syntax-ns#">
   <cc:Work>
    <dc:type rdf:resource="http://purl.org/dc/dcmitype/StillImage"/>
    <dc:date>2024-12-11T16:42:41.408060</dc:date>
    <dc:format>image/svg+xml</dc:format>
    <dc:creator>
     <cc:Agent>
      <dc:title>Matplotlib v3.8.4, https://matplotlib.org/</dc:title>
     </cc:Agent>
    </dc:creator>
   </cc:Work>
  </rdf:RDF>
 </metadata>
 <defs>
  <style type="text/css">*{stroke-linejoin: round; stroke-linecap: butt}</style>
 </defs>
 <g id="figure_1">
  <g id="patch_1">
   <path d="M 0 216 
L 288 216 
L 288 0 
L 0 0 
z
" style="fill: #ffffff"/>
  </g>
  <g id="axes_1">
   <g id="patch_2">
    <path d="M 36 192.24 
L 214.56 192.24 
L 214.56 25.92 
L 36 25.92 
z
" style="fill: #ffffff"/>
   </g>
   <g id="QuadContourSet_1">
    <path d="M 82.305271 136.8 
L 80.953599 131.256 
L 80.427424 125.712 
L 80.515017 120.168 
L 81.064196 114.624 
L 81.963468 109.08 
L 83.129809 103.536 
L 83.616 101.569535 
L 85.189287 97.992 
L 87.9056 92.448 
L 89.568 89.301071 
L 92.3219 86.904 
L 95.52 84.26535 
L 101.472 83.44563 
L 107.424 85.575814 
L 109.269586 86.904 
L 113.376 90.02167 
L 115.708794 92.448 
L 119.328 96.506623 
L 120.432153 97.992 
L 124.131144 103.536 
L 125.28 105.559598 
L 127.059662 109.08 
L 129.220561 114.624 
L 130.540204 120.168 
L 130.750685 125.712 
L 129.486318 131.256 
L 126.238331 136.8 
L 125.28 137.69211 
L 119.667927 142.344 
L 119.328 142.516623 
L 113.376 145.036239 
L 107.424 146.875436 
L 101.472 147.790092 
L 95.52 147.438122 
L 89.568 145.329525 
L 85.693003 142.344 
L 83.616 139.731963 
z
" clip-path="url(#p9cff6ab3b3)" style="fill: #eae51a"/>
    <path d="M 76.93005 142.344 
L 75.42747 136.8 
L 74.608004 131.256 
L 74.289004 125.712 
L 74.342109 120.168 
L 74.675054 114.624 
L 75.220249 109.08 
L 75.927356 103.536 
L 76.758361 97.992 
L 77.664 92.56897 
L 77.697322 92.448 
L 79.343848 86.904 
L 81.080894 81.36 
L 82.885774 75.816 
L 83.616 73.633313 
L 85.616222 70.272 
L 88.978636 64.728 
L 89.568 63.768529 
L 95.52 59.313065 
L 96.552921 59.184 
L 101.472 58.574143 
L 103.364918 59.184 
L 107.424 60.502021 
L 113.376 64.388242 
L 113.755839 64.728 
L 119.328 69.775982 
L 119.784417 70.272 
L 124.789699 75.816 
L 125.28 76.374082 
L 129.180436 81.36 
L 131.232 84.084921 
L 133.196014 86.904 
L 136.857164 92.448 
L 137.184 92.981614 
L 140.094457 97.992 
L 142.985008 103.536 
L 143.136 103.876342 
L 145.36234 109.08 
L 147.191163 114.624 
L 148.308011 120.168 
L 148.486146 125.712 
L 147.41608 131.256 
L 144.667227 136.8 
L 143.136 138.484242 
L 139.497258 142.344 
L 137.184 143.84728 
L 131.232 147.515594 
L 130.57901 147.888 
L 125.28 149.835693 
L 119.328 151.783707 
L 113.376 153.407574 
L 113.253347 153.432 
L 107.424 154.194903 
L 101.472 154.582288 
L 95.52 154.433218 
L 89.568 153.540164 
L 89.236528 153.432 
L 83.616 150.641112 
L 80.498868 147.888 
L 77.664 144.003049 
z
M 83.616 139.731963 
L 85.693003 142.344 
L 89.568 145.329525 
L 95.52 147.438122 
L 101.472 147.790092 
L 107.424 146.875436 
L 113.376 145.036239 
L 119.328 142.516623 
L 119.667927 142.344 
L 125.28 137.69211 
L 126.238331 136.8 
L 129.486318 131.256 
L 130.750685 125.712 
L 130.540204 120.168 
L 129.220561 114.624 
L 127.059662 109.08 
L 125.28 105.559598 
L 124.131144 103.536 
L 120.432153 97.992 
L 119.328 96.506623 
L 115.708794 92.448 
L 113.376 90.02167 
L 109.269586 86.904 
L 107.424 85.575814 
L 101.472 83.44563 
L 95.52 84.26535 
L 92.3219 86.904 
L 89.568 89.301071 
L 87.9056 92.448 
L 85.189287 97.992 
L 83.616 101.569535 
L 83.129809 103.536 
L 81.963468 109.08 
L 81.064196 114.624 
L 80.515017 120.168 
L 80.427424 125.712 
L 80.953599 131.256 
L 82.305271 136.8 
z
" clip-path="url(#p9cff6ab3b3)" style="fill: #c0df25"/>
    <path d="M 70.881048 136.8 
L 70.370938 131.256 
L 70.172363 125.712 
L 70.20542 120.168 
L 70.412676 114.624 
L 70.752054 109.08 
L 71.192222 103.536 
L 71.709515 97.992 
L 71.712 97.968097 
L 72.633849 92.448 
L 73.632074 86.904 
L 74.685178 81.36 
L 75.779407 75.816 
L 76.90388 70.272 
L 77.664 66.594964 
L 78.300591 64.728 
L 80.215161 59.184 
L 82.14477 53.64 
L 83.616 49.429719 
L 84.444967 48.096 
L 87.893897 42.552 
L 89.568 39.856704 
L 93.416058 37.008 
L 95.52 35.444869 
L 101.472 34.706732 
L 107.424 36.62491 
L 108.015159 37.008 
L 113.376 40.469571 
L 115.730094 42.552 
L 119.328 45.729684 
L 121.561418 48.096 
L 125.28 52.03938 
L 126.624004 53.64 
L 131.232 59.149636 
L 131.258595 59.184 
L 135.515759 64.728 
L 137.184 66.928317 
L 139.588288 70.272 
L 143.136 75.300583 
L 143.486675 75.816 
L 147.157205 81.36 
L 149.088 84.390175 
L 150.651111 86.904 
L 153.918758 92.448 
L 155.04 94.499065 
L 156.919565 97.992 
L 159.597238 103.536 
L 160.992 106.929783 
L 161.867512 109.08 
L 163.607992 114.624 
L 164.670889 120.168 
L 164.840419 125.712 
L 163.822044 131.256 
L 161.205977 136.8 
L 160.992 137.047306 
L 156.366347 142.344 
L 155.04 143.274457 
L 149.088 147.384525 
L 148.340854 147.888 
L 143.136 150.14846 
L 137.184 152.641302 
L 135.193368 153.432 
L 131.232 154.46603 
L 125.28 155.903693 
L 119.328 157.183842 
L 113.376 158.250975 
L 107.836083 158.976 
L 107.424 159.011411 
L 101.472 159.265772 
L 95.52 159.167891 
L 93.572255 158.976 
L 89.568 158.375191 
L 83.616 156.432979 
L 78.44558 153.432 
L 77.664 152.741694 
L 74.332318 147.888 
L 71.879697 142.344 
L 71.712 141.725255 
z
M 77.664 144.003049 
L 80.498868 147.888 
L 83.616 150.641112 
L 89.236528 153.432 
L 89.568 153.540164 
L 95.52 154.433218 
L 101.472 154.582288 
L 107.424 154.194903 
L 113.253347 153.432 
L 113.376 153.407574 
L 119.328 151.783707 
L 125.28 149.835693 
L 130.57901 147.888 
L 131.232 147.515594 
L 137.184 143.84728 
L 139.497258 142.344 
L 143.136 138.484242 
L 144.667227 136.8 
L 147.41608 131.256 
L 148.486146 125.712 
L 148.308011 120.168 
L 147.191163 114.624 
L 145.36234 109.08 
L 143.136 103.876342 
L 142.985008 103.536 
L 140.094457 97.992 
L 137.184 92.981614 
L 136.857164 92.448 
L 133.196014 86.904 
L 131.232 84.084921 
L 129.180436 81.36 
L 125.28 76.374082 
L 124.789699 75.816 
L 119.784417 70.272 
L 119.328 69.775982 
L 113.755839 64.728 
L 113.376 64.388242 
L 107.424 60.502021 
L 103.364918 59.184 
L 101.472 58.574143 
L 96.552921 59.184 
L 95.52 59.313065 
L 89.568 63.768529 
L 88.978636 64.728 
L 85.616222 70.272 
L 83.616 73.633313 
L 82.885774 75.816 
L 81.080894 81.36 
L 79.343848 86.904 
L 77.697322 92.448 
L 77.664 92.56897 
L 76.758361 97.992 
L 75.927356 103.536 
L 75.220249 109.08 
L 74.675054 114.624 
L 74.342109 120.168 
L 74.289004 125.712 
L 74.608004 131.256 
L 75.42747 136.8 
L 76.93005 142.344 
z
" clip-path="url(#p9cff6ab3b3)" style="fill: #95d840"/>
    <path d="M 70.199326 147.888 
L 68.672592 142.344 
L 67.73725 136.8 
L 67.227139 131.256 
L 67.028565 125.712 
L 67.061622 120.168 
L 67.268878 114.624 
L 67.608256 109.08 
L 68.048424 103.536 
L 68.565717 97.992 
L 69.142044 92.448 
L 69.76343 86.904 
L 70.418978 81.36 
L 71.100125 75.816 
L 71.712 70.969772 
L 71.853527 70.272 
L 72.999588 64.728 
L 74.160318 59.184 
L 75.330165 53.64 
L 76.504664 48.096 
L 77.664 42.628462 
L 77.690743 42.552 
L 79.626699 37.008 
L 81.555731 31.464 
L 83.474726 25.92 
L 83.616 25.92 
L 89.568 25.92 
L 95.52 25.92 
L 101.472 25.92 
L 107.424 25.92 
L 113.376 25.92 
L 119.328 25.92 
L 123.200349 25.92 
L 125.28 28.146386 
L 128.03943 31.464 
L 131.232 35.282397 
L 132.567077 37.008 
L 136.871794 42.552 
L 137.184 42.953453 
L 140.976913 48.096 
L 143.136 51.025975 
L 144.993632 53.64 
L 148.917819 59.184 
L 149.088 59.426316 
L 152.721528 64.728 
L 155.04 68.154184 
L 156.450674 70.272 
L 160.073962 75.816 
L 160.992 77.259517 
L 163.575674 81.36 
L 166.937606 86.904 
L 166.944 86.915124 
L 170.110555 92.448 
L 172.896 97.695476 
L 173.053319 97.992 
L 175.693369 103.536 
L 177.939805 109.08 
L 178.848 111.986984 
L 179.673906 114.624 
L 180.734291 120.168 
L 180.903421 125.712 
L 179.887452 131.256 
L 178.848 133.464039 
L 177.281475 136.8 
L 172.896 141.893235 
L 172.507675 142.344 
L 166.944 146.300613 
L 164.702145 147.888 
L 160.992 149.581097 
L 155.04 152.272123 
L 152.433788 153.432 
L 149.088 154.410518 
L 143.136 156.109229 
L 137.184 157.747415 
L 132.477293 158.976 
L 131.232 159.189436 
L 125.28 160.133419 
L 119.328 160.973977 
L 113.376 161.674667 
L 107.424 162.186137 
L 101.472 162.440498 
L 95.52 162.342617 
L 89.568 161.756229 
L 83.616 160.480953 
L 79.667077 158.976 
L 77.664 157.813388 
L 73.087489 153.432 
L 71.712 151.428147 
z
M 71.712 141.725255 
L 71.879697 142.344 
L 74.332318 147.888 
L 77.664 152.741694 
L 78.44558 153.432 
L 83.616 156.432979 
L 89.568 158.375191 
L 93.572255 158.976 
L 95.52 159.167891 
L 101.472 159.265772 
L 107.424 159.011411 
L 107.836083 158.976 
L 113.376 158.250975 
L 119.328 157.183842 
L 125.28 155.903693 
L 131.232 154.46603 
L 135.193368 153.432 
L 137.184 152.641302 
L 143.136 150.14846 
L 148.340854 147.888 
L 149.088 147.384525 
L 155.04 143.274457 
L 156.366347 142.344 
L 160.992 137.047306 
L 161.205977 136.8 
L 163.822044 131.256 
L 164.840419 125.712 
L 164.670889 120.168 
L 163.607992 114.624 
L 161.867512 109.08 
L 160.992 106.929783 
L 159.597238 103.536 
L 156.919565 97.992 
L 155.04 94.499065 
L 153.918758 92.448 
L 150.651111 86.904 
L 149.088 84.390175 
L 147.157205 81.36 
L 143.486675 75.816 
L 143.136 75.300583 
L 139.588288 70.272 
L 137.184 66.928317 
L 135.515759 64.728 
L 131.258595 59.184 
L 131.232 59.149636 
L 126.624004 53.64 
L 125.28 52.03938 
L 121.561418 48.096 
L 119.328 45.729684 
L 115.730094 42.552 
L 113.376 40.469571 
L 108.015159 37.008 
L 107.424 36.62491 
L 101.472 34.706732 
L 95.52 35.444869 
L 93.416058 37.008 
L 89.568 39.856704 
L 87.893897 42.552 
L 84.444967 48.096 
L 83.616 49.429719 
L 82.14477 53.64 
L 80.215161 59.184 
L 78.300591 64.728 
L 77.664 66.594964 
L 76.90388 70.272 
L 75.779407 75.816 
L 74.685178 81.36 
L 73.632074 86.904 
L 72.633849 92.448 
L 71.712 97.968097 
L 71.709515 97.992 
L 71.192222 103.536 
L 70.752054 109.08 
L 70.412676 114.624 
L 70.20542 120.168 
L 70.172363 125.712 
L 70.370938 131.256 
L 70.881048 136.8 
z
" clip-path="url(#p9cff6ab3b3)" style="fill: #6ece58"/>
    <path d="M 65.616507 142.344 
L 65.036007 136.8 
L 64.719418 131.256 
L 64.596177 125.712 
L 64.616693 120.168 
L 64.745322 114.624 
L 64.95595 109.08 
L 65.22913 103.536 
L 65.550177 97.992 
L 65.76 94.739816 
L 65.998246 92.448 
L 66.619632 86.904 
L 67.275179 81.36 
L 67.956327 75.816 
L 68.656301 70.272 
L 69.369713 64.728 
L 70.092257 59.184 
L 70.820476 53.64 
L 71.551591 48.096 
L 71.712 46.880714 
L 72.62986 42.552 
L 73.803556 37.008 
L 74.973053 31.464 
L 76.136466 25.92 
L 77.664 25.92 
L 83.474726 25.92 
L 81.555731 31.464 
L 79.626699 37.008 
L 77.690743 42.552 
L 77.664 42.628462 
L 76.504664 48.096 
L 75.330165 53.64 
L 74.160318 59.184 
L 72.999588 64.728 
L 71.853527 70.272 
L 71.712 70.969772 
L 71.100125 75.816 
L 70.418978 81.36 
L 69.76343 86.904 
L 69.142044 92.448 
L 68.565717 97.992 
L 68.048424 103.536 
L 67.608256 109.08 
L 67.268878 114.624 
L 67.061622 120.168 
L 67.028565 125.712 
L 67.227139 131.256 
L 67.73725 136.8 
L 68.672592 142.344 
L 70.199326 147.888 
L 71.712 151.428147 
L 73.087489 153.432 
L 77.664 157.813388 
L 79.667077 158.976 
L 83.616 160.480953 
L 89.568 161.756229 
L 95.52 162.342617 
L 101.472 162.440498 
L 107.424 162.186137 
L 113.376 161.674667 
L 119.328 160.973977 
L 125.28 160.133419 
L 131.232 159.189436 
L 132.477293 158.976 
L 137.184 157.747415 
L 143.136 156.109229 
L 149.088 154.410518 
L 152.433788 153.432 
L 155.04 152.272123 
L 160.992 149.581097 
L 164.702145 147.888 
L 166.944 146.300613 
L 172.507675 142.344 
L 172.896 141.893235 
L 177.281475 136.8 
L 178.848 133.464039 
L 179.887452 131.256 
L 180.903421 125.712 
L 180.734291 120.168 
L 179.673906 114.624 
L 178.848 111.986984 
L 177.939805 109.08 
L 175.693369 103.536 
L 173.053319 97.992 
L 172.896 97.695476 
L 170.110555 92.448 
L 166.944 86.915124 
L 166.937606 86.904 
L 163.575674 81.36 
L 160.992 77.259517 
L 160.073962 75.816 
L 156.450674 70.272 
L 155.04 68.154184 
L 152.721528 64.728 
L 149.088 59.426316 
L 148.917819 59.184 
L 144.993632 53.64 
L 143.136 51.025975 
L 140.976913 48.096 
L 137.184 42.953453 
L 136.871794 42.552 
L 132.567077 37.008 
L 131.232 35.282397 
L 128.03943 31.464 
L 125.28 28.146386 
L 123.200349 25.92 
L 125.28 25.92 
L 131.232 25.92 
L 137.184 25.92 
L 142.257645 25.92 
L 143.136 27.123325 
L 146.191542 31.464 
L 149.088 35.557271 
L 150.089773 37.008 
L 153.931815 42.552 
L 155.04 44.148569 
L 157.737032 48.096 
L 160.992 52.864301 
L 161.516615 53.64 
L 165.251239 59.184 
L 166.944 61.71662 
L 168.948031 64.728 
L 172.590859 70.272 
L 172.896 70.745308 
L 176.163395 75.816 
L 178.848 80.097411 
L 179.641665 81.36 
L 182.995651 86.904 
L 184.8 90.050484 
L 186.181557 92.448 
L 189.144603 97.992 
L 190.752 101.342738 
L 191.811268 103.536 
L 194.089616 109.08 
L 195.846269 114.624 
L 196.704 119.056676 
L 196.920828 120.168 
L 197.093354 125.712 
L 196.704 127.794827 
L 196.06231 131.256 
L 193.421934 136.8 
L 190.752 139.857394 
L 188.595132 142.344 
L 184.8 145.024511 
L 180.765473 147.888 
L 178.848 148.765098 
L 172.896 151.494473 
L 168.668632 153.432 
L 166.944 153.951449 
L 160.992 155.736384 
L 155.04 157.504807 
L 150.009639 158.976 
L 149.088 159.152986 
L 143.136 160.268376 
L 137.184 161.344025 
L 131.232 162.364161 
L 125.28 163.308145 
L 119.328 164.148703 
L 116.174026 164.52 
L 113.376 164.732347 
L 107.424 165.062071 
L 101.472 165.226047 
L 95.52 165.162947 
L 89.568 164.784926 
L 87.649982 164.52 
L 83.616 163.655679 
L 77.664 161.387344 
L 73.828036 158.976 
L 71.712 156.950183 
L 69.424431 153.432 
L 67.055527 147.888 
L 65.76 143.183576 
z
" clip-path="url(#p9cff6ab3b3)" style="fill: #4cc26c"/>
    <path d="M 64.61291 147.888 
L 63.665376 142.344 
L 63.084876 136.8 
L 62.768287 131.256 
L 62.645046 125.712 
L 62.665562 120.168 
L 62.794191 114.624 
L 63.004819 109.08 
L 63.278 103.536 
L 63.599046 97.992 
L 63.956732 92.448 
L 64.342381 86.904 
L 64.749233 81.36 
L 65.171972 75.816 
L 65.606396 70.272 
L 65.76 68.348674 
L 66.225915 64.728 
L 66.948459 59.184 
L 67.676678 53.64 
L 68.407793 48.096 
L 69.139561 42.552 
L 69.870176 37.008 
L 70.598178 31.464 
L 71.322391 25.92 
L 71.712 25.92 
L 76.136466 25.92 
L 74.973053 31.464 
L 73.803556 37.008 
L 72.62986 42.552 
L 71.712 46.880714 
L 71.551591 48.096 
L 70.820476 53.64 
L 70.092257 59.184 
L 69.369713 64.728 
L 68.656301 70.272 
L 67.956327 75.816 
L 67.275179 81.36 
L 66.619632 86.904 
L 65.998246 92.448 
L 65.76 94.739816 
L 65.550177 97.992 
L 65.22913 103.536 
L 64.95595 109.08 
L 64.745322 114.624 
L 64.616693 120.168 
L 64.596177 125.712 
L 64.719418 131.256 
L 65.036007 136.8 
L 65.616507 142.344 
L 65.76 143.183576 
L 67.055527 147.888 
L 69.424431 153.432 
L 71.712 156.950183 
L 73.828036 158.976 
L 77.664 161.387344 
L 83.616 163.655679 
L 87.649982 164.52 
L 89.568 164.784926 
L 95.52 165.162947 
L 101.472 165.226047 
L 107.424 165.062071 
L 113.376 164.732347 
L 116.174026 164.52 
L 119.328 164.148703 
L 125.28 163.308145 
L 131.232 162.364161 
L 137.184 161.344025 
L 143.136 160.268376 
L 149.088 159.152986 
L 150.009639 158.976 
L 155.04 157.504807 
L 160.992 155.736384 
L 166.944 153.951449 
L 168.668632 153.432 
L 172.896 151.494473 
L 178.848 148.765098 
L 180.765473 147.888 
L 184.8 145.024511 
L 188.595132 142.344 
L 190.752 139.857394 
L 193.421934 136.8 
L 196.06231 131.256 
L 196.704 127.794827 
L 197.093354 125.712 
L 196.920828 120.168 
L 196.704 119.056676 
L 195.846269 114.624 
L 194.089616 109.08 
L 191.811268 103.536 
L 190.752 101.342738 
L 189.144603 97.992 
L 186.181557 92.448 
L 184.8 90.050484 
L 182.995651 86.904 
L 179.641665 81.36 
L 178.848 80.097411 
L 176.163395 75.816 
L 172.896 70.745308 
L 172.590859 70.272 
L 168.948031 64.728 
L 166.944 61.71662 
L 165.251239 59.184 
L 161.516615 53.64 
L 160.992 52.864301 
L 157.737032 48.096 
L 155.04 44.148569 
L 153.931815 42.552 
L 150.089773 37.008 
L 149.088 35.557271 
L 146.191542 31.464 
L 143.136 27.123325 
L 142.257645 25.92 
L 143.136 25.92 
L 149.088 25.92 
L 155.04 25.92 
L 158.923442 25.92 
L 160.992 28.979168 
L 162.656659 31.464 
L 166.390167 37.008 
L 166.944 37.827462 
L 170.123234 42.552 
L 172.896 46.666003 
L 173.859299 48.096 
L 177.590607 53.64 
L 178.848 55.51567 
L 181.31327 59.184 
L 184.8 64.413022 
L 185.011052 64.728 
L 188.678888 70.272 
L 190.752 73.465706 
L 192.28797 75.816 
L 195.813651 81.36 
L 196.704 82.814714 
L 199.227595 86.904 
L 202.470635 92.448 
L 202.656 92.789656 
L 205.505396 97.992 
L 208.230883 103.536 
L 208.608 104.437516 
L 210.570427 109.08 
L 212.37732 114.624 
L 213.480774 120.168 
L 213.656773 125.712 
L 212.599539 131.256 
L 209.88365 136.8 
L 208.608 138.220156 
L 204.942299 142.344 
L 202.656 143.919743 
L 196.952636 147.888 
L 196.704 147.999493 
L 190.752 150.690637 
L 184.8 153.400015 
L 184.730077 153.432 
L 178.848 155.200145 
L 172.896 156.993769 
L 166.944 158.786476 
L 166.312017 158.976 
L 160.992 160.023562 
L 155.04 161.184726 
L 149.088 162.327712 
L 143.136 163.443102 
L 137.184 164.518751 
L 137.176713 164.52 
L 131.232 165.176836 
L 125.28 165.785384 
L 119.328 166.327259 
L 113.376 166.778966 
L 107.424 167.10869 
L 101.472 167.272666 
L 95.52 167.209566 
L 89.568 166.831545 
L 83.616 166.009426 
L 77.664 164.547121 
L 77.597076 164.52 
L 71.712 160.820555 
L 69.885414 158.976 
L 66.280633 153.432 
L 65.76 152.213551 
z
" clip-path="url(#p9cff6ab3b3)" style="fill: #31b57b"/>
    <path d="M 64.131989 153.432 
L 62.66178 147.888 
L 61.714245 142.344 
L 61.133745 136.8 
L 60.817156 131.256 
L 60.693916 125.712 
L 60.714432 120.168 
L 60.84306 114.624 
L 61.053688 109.08 
L 61.326869 103.536 
L 61.647916 97.992 
L 62.005601 92.448 
L 62.391251 86.904 
L 62.798102 81.36 
L 63.220842 75.816 
L 63.655265 70.272 
L 64.09803 64.728 
L 64.546461 59.184 
L 64.998414 53.64 
L 65.452165 48.096 
L 65.76 44.33818 
L 65.995763 42.552 
L 66.726378 37.008 
L 67.454379 31.464 
L 68.178593 25.92 
L 71.322391 25.92 
L 70.598178 31.464 
L 69.870176 37.008 
L 69.139561 42.552 
L 68.407793 48.096 
L 67.676678 53.64 
L 66.948459 59.184 
L 66.225915 64.728 
L 65.76 68.348674 
L 65.606396 70.272 
L 65.171972 75.816 
L 64.749233 81.36 
L 64.342381 86.904 
L 63.956732 92.448 
L 63.599046 97.992 
L 63.278 103.536 
L 63.004819 109.08 
L 62.794191 114.624 
L 62.665562 120.168 
L 62.645046 125.712 
L 62.768287 131.256 
L 63.084876 136.8 
L 63.665376 142.344 
L 64.61291 147.888 
L 65.76 152.213551 
L 66.280633 153.432 
L 69.885414 158.976 
L 71.712 160.820555 
L 77.597076 164.52 
L 77.664 164.547121 
L 83.616 166.009426 
L 89.568 166.831545 
L 95.52 167.209566 
L 101.472 167.272666 
L 107.424 167.10869 
L 113.376 166.778966 
L 119.328 166.327259 
L 125.28 165.785384 
L 131.232 165.176836 
L 137.176713 164.52 
L 137.184 164.518751 
L 143.136 163.443102 
L 149.088 162.327712 
L 155.04 161.184726 
L 160.992 160.023562 
L 166.312017 158.976 
L 166.944 158.786476 
L 172.896 156.993769 
L 178.848 155.200145 
L 184.730077 153.432 
L 184.8 153.400015 
L 190.752 150.690637 
L 196.704 147.999493 
L 196.952636 147.888 
L 202.656 143.919743 
L 204.942299 142.344 
L 208.608 138.220156 
L 209.88365 136.8 
L 212.599539 131.256 
L 213.656773 125.712 
L 213.480774 120.168 
L 212.37732 114.624 
L 210.570427 109.08 
L 208.608 104.437516 
L 208.230883 103.536 
L 205.505396 97.992 
L 202.656 92.789656 
L 202.470635 92.448 
L 199.227595 86.904 
L 196.704 82.814714 
L 195.813651 81.36 
L 192.28797 75.816 
L 190.752 73.465706 
L 188.678888 70.272 
L 185.011052 64.728 
L 184.8 64.413022 
L 181.31327 59.184 
L 178.848 55.51567 
L 177.590607 53.64 
L 173.859299 48.096 
L 172.896 46.666003 
L 170.123234 42.552 
L 166.944 37.827462 
L 166.390167 37.008 
L 162.656659 31.464 
L 160.992 28.979168 
L 158.923442 25.92 
L 160.992 25.92 
L 166.944 25.92 
L 172.896 25.92 
L 175.029041 25.92 
L 178.725128 31.464 
L 178.848 31.647344 
L 182.449506 37.008 
L 184.8 40.494078 
L 186.194323 42.552 
L 189.956532 48.096 
L 190.752 49.269251 
L 193.735458 53.64 
L 196.704 58.006188 
L 197.511432 59.184 
L 201.282421 64.728 
L 202.656 66.773244 
L 205.028131 70.272 
L 208.608 75.653468 
L 208.717256 75.816 
L 212.343768 81.36 
L 214.56 84.880352 
L 214.56 86.904 
L 214.56 92.448 
L 214.56 97.992 
L 214.56 103.536 
L 214.56 109.08 
L 214.56 114.624 
L 214.56 120.168 
L 214.56 125.712 
L 214.56 131.256 
L 214.56 136.8 
L 214.56 142.344 
L 214.56 147.174053 
L 213.513223 147.888 
L 208.608 150.044188 
L 202.656 152.688003 
L 200.996847 153.432 
L 196.704 154.697023 
L 190.752 156.465524 
L 184.8 158.246008 
L 182.371541 158.976 
L 178.848 159.671463 
L 172.896 160.849174 
L 166.944 162.026282 
L 160.992 163.198288 
L 155.04 164.359452 
L 154.203961 164.52 
L 149.088 165.153338 
L 143.136 165.872386 
L 137.184 166.565814 
L 131.232 167.223455 
L 125.28 167.832003 
L 119.328 168.373878 
L 113.376 168.825585 
L 107.424 169.155309 
L 101.472 169.319285 
L 95.52 169.256185 
L 89.568 168.878164 
L 83.616 168.056045 
L 77.664 166.593739 
L 72.546723 164.52 
L 71.712 163.995281 
L 66.741616 158.976 
L 65.76 157.466316 
z
" clip-path="url(#p9cff6ab3b3)" style="fill: #21a685"/>
    <path d="M 59.780927 142.344 
L 59.430795 136.8 
L 59.239842 131.256 
L 59.165509 125.712 
L 59.177883 120.168 
L 59.255466 114.624 
L 59.382508 109.08 
L 59.547279 103.536 
L 59.74092 97.992 
L 59.808 96.268206 
L 60.05447 92.448 
L 60.44012 86.904 
L 60.846971 81.36 
L 61.269711 75.816 
L 61.704135 70.272 
L 62.146899 64.728 
L 62.59533 59.184 
L 63.047284 53.64 
L 63.501034 48.096 
L 63.955191 42.552 
L 64.408631 37.008 
L 64.860449 31.464 
L 65.309917 25.92 
L 65.76 25.92 
L 68.178593 25.92 
L 67.454379 31.464 
L 66.726378 37.008 
L 65.995763 42.552 
L 65.76 44.33818 
L 65.452165 48.096 
L 64.998414 53.64 
L 64.546461 59.184 
L 64.09803 64.728 
L 63.655265 70.272 
L 63.220842 75.816 
L 62.798102 81.36 
L 62.391251 86.904 
L 62.005601 92.448 
L 61.647916 97.992 
L 61.326869 103.536 
L 61.053688 109.08 
L 60.84306 114.624 
L 60.714432 120.168 
L 60.693916 125.712 
L 60.817156 131.256 
L 61.133745 136.8 
L 61.714245 142.344 
L 62.66178 147.888 
L 64.131989 153.432 
L 65.76 157.466316 
L 66.741616 158.976 
L 71.712 163.995281 
L 72.546723 164.52 
L 77.664 166.593739 
L 83.616 168.056045 
L 89.568 168.878164 
L 95.52 169.256185 
L 101.472 169.319285 
L 107.424 169.155309 
L 113.376 168.825585 
L 119.328 168.373878 
L 125.28 167.832003 
L 131.232 167.223455 
L 137.184 166.565814 
L 143.136 165.872386 
L 149.088 165.153338 
L 154.203961 164.52 
L 155.04 164.359452 
L 160.992 163.198288 
L 166.944 162.026282 
L 172.896 160.849174 
L 178.848 159.671463 
L 182.371541 158.976 
L 184.8 158.246008 
L 190.752 156.465524 
L 196.704 154.697023 
L 200.996847 153.432 
L 202.656 152.688003 
L 208.608 150.044188 
L 213.513223 147.888 
L 214.56 147.174053 
L 214.56 147.888 
L 214.56 153.432 
L 214.56 154.321377 
L 208.608 156.040706 
L 202.656 157.778105 
L 198.590953 158.976 
L 196.704 159.341108 
L 190.752 160.502323 
L 184.8 161.671406 
L 178.848 162.846189 
L 172.896 164.0239 
L 170.387491 164.52 
L 166.944 164.959019 
L 160.992 165.714564 
L 155.04 166.46312 
L 149.088 167.199957 
L 143.136 167.919005 
L 137.184 168.612433 
L 131.232 169.270074 
L 125.28 169.878622 
L 123.243793 170.064 
L 119.328 170.28523 
L 113.376 170.565545 
L 107.424 170.770161 
L 101.472 170.871919 
L 95.52 170.832761 
L 89.568 170.598174 
L 83.616 170.087993 
L 83.458627 170.064 
L 77.664 168.640358 
L 71.712 166.228353 
L 69.087809 164.52 
L 65.76 161.159453 
L 64.418088 158.976 
L 62.180858 153.432 
L 60.710649 147.888 
L 59.808 142.606623 
z
M 178.725128 31.464 
L 175.029041 25.92 
L 178.848 25.92 
L 184.8 25.92 
L 190.752 25.92 
L 191.137501 25.92 
L 194.886096 31.464 
L 196.704 34.138607 
L 198.670484 37.008 
L 202.483595 42.552 
L 202.656 42.80227 
L 206.337459 48.096 
L 208.608 51.36383 
L 210.206141 53.64 
L 214.083269 59.184 
L 214.56 59.871043 
L 214.56 64.728 
L 214.56 70.272 
L 214.56 75.816 
L 214.56 81.36 
L 214.56 84.880352 
L 212.343768 81.36 
L 208.717256 75.816 
L 208.608 75.653468 
L 205.028131 70.272 
L 202.656 66.773244 
L 201.282421 64.728 
L 197.511432 59.184 
L 196.704 58.006188 
L 193.735458 53.64 
L 190.752 49.269251 
L 189.956532 48.096 
L 186.194323 42.552 
L 184.8 40.494078 
L 182.449506 37.008 
L 178.848 31.647344 
z
" clip-path="url(#p9cff6ab3b3)" style="fill: #1f978b"/>
    <path d="M 59.175602 147.888 
L 58.60409 142.344 
L 58.253958 136.8 
L 58.063005 131.256 
L 57.988672 125.712 
L 58.001046 120.168 
L 58.078629 114.624 
L 58.205671 109.08 
L 58.370442 103.536 
L 58.564083 97.992 
L 58.779823 92.448 
L 59.01243 86.904 
L 59.257825 81.36 
L 59.512803 75.816 
L 59.774829 70.272 
L 59.808 69.583377 
L 60.195768 64.728 
L 60.644199 59.184 
L 61.096153 53.64 
L 61.549903 48.096 
L 62.00406 42.552 
L 62.4575 37.008 
L 62.909319 31.464 
L 63.358786 25.92 
L 65.309917 25.92 
L 64.860449 31.464 
L 64.408631 37.008 
L 63.955191 42.552 
L 63.501034 48.096 
L 63.047284 53.64 
L 62.59533 59.184 
L 62.146899 64.728 
L 61.704135 70.272 
L 61.269711 75.816 
L 60.846971 81.36 
L 60.44012 86.904 
L 60.05447 92.448 
L 59.808 96.268206 
L 59.74092 97.992 
L 59.547279 103.536 
L 59.382508 109.08 
L 59.255466 114.624 
L 59.177883 120.168 
L 59.165509 125.712 
L 59.239842 131.256 
L 59.430795 136.8 
L 59.780927 142.344 
L 59.808 142.606623 
L 60.710649 147.888 
L 62.180858 153.432 
L 64.418088 158.976 
L 65.76 161.159453 
L 69.087809 164.52 
L 71.712 166.228353 
L 77.664 168.640358 
L 83.458627 170.064 
L 83.616 170.087993 
L 89.568 170.598174 
L 95.52 170.832761 
L 101.472 170.871919 
L 107.424 170.770161 
L 113.376 170.565545 
L 119.328 170.28523 
L 123.243793 170.064 
L 125.28 169.878622 
L 131.232 169.270074 
L 137.184 168.612433 
L 143.136 167.919005 
L 149.088 167.199957 
L 155.04 166.46312 
L 160.992 165.714564 
L 166.944 164.959019 
L 170.387491 164.52 
L 172.896 164.0239 
L 178.848 162.846189 
L 184.8 161.671406 
L 190.752 160.502323 
L 196.704 159.341108 
L 198.590953 158.976 
L 202.656 157.778105 
L 208.608 156.040706 
L 214.56 154.321377 
L 214.56 158.976 
L 214.56 159.094455 
L 208.608 160.223383 
L 202.656 161.364176 
L 196.704 162.515834 
L 190.752 163.677049 
L 186.460393 164.52 
L 184.8 164.730244 
L 178.848 165.48758 
L 172.896 166.246803 
L 166.944 167.005638 
L 160.992 167.761183 
L 155.04 168.509739 
L 149.088 169.246576 
L 143.136 169.965624 
L 142.291594 170.064 
L 137.184 170.43327 
L 131.232 170.84138 
L 125.28 171.219025 
L 119.328 171.555295 
L 113.376 171.835609 
L 107.424 172.040225 
L 101.472 172.141983 
L 95.52 172.102826 
L 89.568 171.868238 
L 83.616 171.358058 
L 77.664 170.450599 
L 76.126706 170.064 
L 71.712 168.274972 
L 65.944011 164.52 
L 65.76 164.334179 
L 62.466958 158.976 
L 60.229727 153.432 
L 59.808 151.841711 
z
M 194.886096 31.464 
L 191.137501 25.92 
L 196.704 25.92 
L 202.656 25.92 
L 207.545055 25.92 
L 208.608 27.464399 
L 211.389686 31.464 
L 214.56 35.998663 
L 214.56 37.008 
L 214.56 42.552 
L 214.56 48.096 
L 214.56 53.64 
L 214.56 59.184 
L 214.56 59.871043 
L 214.083269 59.184 
L 210.206141 53.64 
L 208.608 51.36383 
L 206.337459 48.096 
L 202.656 42.80227 
L 202.483595 42.552 
L 198.670484 37.008 
L 196.704 34.138607 
z
" clip-path="url(#p9cff6ab3b3)" style="fill: #23888e"/>
    <path d="M 58.885531 153.432 
L 57.998765 147.888 
L 57.427253 142.344 
L 57.077121 136.8 
L 56.886168 131.256 
L 56.811835 125.712 
L 56.824209 120.168 
L 56.901792 114.624 
L 57.028834 109.08 
L 57.193605 103.536 
L 57.387246 97.992 
L 57.602986 92.448 
L 57.835593 86.904 
L 58.080988 81.36 
L 58.335966 75.816 
L 58.597992 70.272 
L 58.865048 64.728 
L 59.135522 59.184 
L 59.408121 53.64 
L 59.681803 48.096 
L 59.808 45.541911 
L 60.052929 42.552 
L 60.506369 37.008 
L 60.958188 31.464 
L 61.407656 25.92 
L 63.358786 25.92 
L 62.909319 31.464 
L 62.4575 37.008 
L 62.00406 42.552 
L 61.549903 48.096 
L 61.096153 53.64 
L 60.644199 59.184 
L 60.195768 64.728 
L 59.808 69.583377 
L 59.774829 70.272 
L 59.512803 75.816 
L 59.257825 81.36 
L 59.01243 86.904 
L 58.779823 92.448 
L 58.564083 97.992 
L 58.370442 103.536 
L 58.205671 109.08 
L 58.078629 114.624 
L 58.001046 120.168 
L 57.988672 125.712 
L 58.063005 131.256 
L 58.253958 136.8 
L 58.60409 142.344 
L 59.175602 147.888 
L 59.808 151.841711 
L 60.229727 153.432 
L 62.466958 158.976 
L 65.76 164.334179 
L 65.944011 164.52 
L 71.712 168.274972 
L 76.126706 170.064 
L 77.664 170.450599 
L 83.616 171.358058 
L 89.568 171.868238 
L 95.52 172.102826 
L 101.472 172.141983 
L 107.424 172.040225 
L 113.376 171.835609 
L 119.328 171.555295 
L 125.28 171.219025 
L 131.232 170.84138 
L 137.184 170.43327 
L 142.291594 170.064 
L 143.136 169.965624 
L 149.088 169.246576 
L 155.04 168.509739 
L 160.992 167.761183 
L 166.944 167.005638 
L 172.896 166.246803 
L 178.848 165.48758 
L 184.8 164.730244 
L 186.460393 164.52 
L 190.752 163.677049 
L 196.704 162.515834 
L 202.656 161.364176 
L 208.608 160.223383 
L 214.56 159.094455 
L 214.56 162.269181 
L 208.608 163.398109 
L 202.754622 164.52 
L 202.656 164.532186 
L 196.704 165.274613 
L 190.752 166.023202 
L 184.8 166.776863 
L 178.848 167.534199 
L 172.896 168.293422 
L 166.944 169.052257 
L 160.992 169.807802 
L 158.954891 170.064 
L 155.04 170.369541 
L 149.088 170.826798 
L 143.136 171.273016 
L 137.184 171.703334 
L 131.232 172.111445 
L 125.28 172.48909 
L 119.328 172.825359 
L 113.376 173.105674 
L 107.424 173.31029 
L 101.472 173.412048 
L 95.52 173.37289 
L 89.568 173.138303 
L 83.616 172.628123 
L 77.664 171.720664 
L 71.712 170.223853 
L 71.316316 170.064 
L 65.76 166.446827 
L 63.923072 164.52 
L 60.515827 158.976 
L 59.808 157.221959 
z
M 207.545055 25.92 
L 208.608 25.92 
L 214.56 25.92 
L 214.56 31.464 
L 214.56 35.998663 
L 211.389686 31.464 
L 208.608 27.464399 
z
" clip-path="url(#p9cff6ab3b3)" style="fill: #29798e"/>
    <path d="M 58.99436 158.976 
L 57.708694 153.432 
L 56.821928 147.888 
L 56.250416 142.344 
L 55.900284 136.8 
L 55.709331 131.256 
L 55.634998 125.712 
L 55.647372 120.168 
L 55.724955 114.624 
L 55.851997 109.08 
L 56.016768 103.536 
L 56.210409 97.992 
L 56.426149 92.448 
L 56.658756 86.904 
L 56.904151 81.36 
L 57.159129 75.816 
L 57.421155 70.272 
L 57.688211 64.728 
L 57.958685 59.184 
L 58.231284 53.64 
L 58.504966 48.096 
L 58.745508 42.552 
L 58.989023 37.008 
L 59.257052 31.464 
L 59.552983 25.92 
L 59.808 25.92 
L 61.407656 25.92 
L 60.958188 31.464 
L 60.506369 37.008 
L 60.052929 42.552 
L 59.808 45.541911 
L 59.681803 48.096 
L 59.408121 53.64 
L 59.135522 59.184 
L 58.865048 64.728 
L 58.597992 70.272 
L 58.335966 75.816 
L 58.080988 81.36 
L 57.835593 86.904 
L 57.602986 92.448 
L 57.387246 97.992 
L 57.193605 103.536 
L 57.028834 109.08 
L 56.901792 114.624 
L 56.824209 120.168 
L 56.811835 125.712 
L 56.886168 131.256 
L 57.077121 136.8 
L 57.427253 142.344 
L 57.998765 147.888 
L 58.885531 153.432 
L 59.808 157.221959 
L 60.515827 158.976 
L 63.923072 164.52 
L 65.76 166.446827 
L 71.316316 170.064 
L 71.712 170.223853 
L 77.664 171.720664 
L 83.616 172.628123 
L 89.568 173.138303 
L 95.52 173.37289 
L 101.472 173.412048 
L 107.424 173.31029 
L 113.376 173.105674 
L 119.328 172.825359 
L 125.28 172.48909 
L 131.232 172.111445 
L 137.184 171.703334 
L 143.136 171.273016 
L 149.088 170.826798 
L 155.04 170.369541 
L 158.954891 170.064 
L 160.992 169.807802 
L 166.944 169.052257 
L 172.896 168.293422 
L 178.848 167.534199 
L 184.8 166.776863 
L 190.752 166.023202 
L 196.704 165.274613 
L 202.656 164.532186 
L 202.754622 164.52 
L 208.608 163.398109 
L 214.56 162.269181 
L 214.56 164.52 
L 214.56 165.115606 
L 208.608 165.843381 
L 202.656 166.578805 
L 196.704 167.321232 
L 190.752 168.069821 
L 184.8 168.823482 
L 178.848 169.580817 
L 175.060048 170.064 
L 172.896 170.243787 
L 166.944 170.70621 
L 160.992 171.175077 
L 155.04 171.639606 
L 149.088 172.096863 
L 143.136 172.54308 
L 137.184 172.973399 
L 131.232 173.381509 
L 125.28 173.759154 
L 119.328 174.095424 
L 113.376 174.375738 
L 107.424 174.580354 
L 101.472 174.682113 
L 95.52 174.642955 
L 89.568 174.408367 
L 83.616 173.898187 
L 77.664 172.990729 
L 71.712 171.493917 
L 68.172517 170.064 
L 65.76 168.493446 
L 61.971941 164.52 
L 59.808 160.999006 
z
" clip-path="url(#p9cff6ab3b3)" style="fill: #306a8e"/>
    <path d="M 57.717506 158.976 
L 56.531857 153.432 
L 55.645091 147.888 
L 55.073579 142.344 
L 54.723447 136.8 
L 54.532494 131.256 
L 54.458161 125.712 
L 54.470535 120.168 
L 54.548118 114.624 
L 54.67516 109.08 
L 54.839931 103.536 
L 55.033572 97.992 
L 55.249312 92.448 
L 55.481919 86.904 
L 55.727314 81.36 
L 55.982292 75.816 
L 56.244318 70.272 
L 56.511374 64.728 
L 56.781848 59.184 
L 57.054447 53.64 
L 57.328129 48.096 
L 57.530492 42.552 
L 57.713495 37.008 
L 57.914921 31.464 
L 58.137314 25.92 
L 59.552983 25.92 
L 59.257052 31.464 
L 58.989023 37.008 
L 58.745508 42.552 
L 58.504966 48.096 
L 58.231284 53.64 
L 57.958685 59.184 
L 57.688211 64.728 
L 57.421155 70.272 
L 57.159129 75.816 
L 56.904151 81.36 
L 56.658756 86.904 
L 56.426149 92.448 
L 56.210409 97.992 
L 56.016768 103.536 
L 55.851997 109.08 
L 55.724955 114.624 
L 55.647372 120.168 
L 55.634998 125.712 
L 55.709331 131.256 
L 55.900284 136.8 
L 56.250416 142.344 
L 56.821928 147.888 
L 57.708694 153.432 
L 58.99436 158.976 
L 59.808 160.999006 
L 61.971941 164.52 
L 65.76 168.493446 
L 68.172517 170.064 
L 71.712 171.493917 
L 77.664 172.990729 
L 83.616 173.898187 
L 89.568 174.408367 
L 95.52 174.642955 
L 101.472 174.682113 
L 107.424 174.580354 
L 113.376 174.375738 
L 119.328 174.095424 
L 125.28 173.759154 
L 131.232 173.381509 
L 137.184 172.973399 
L 143.136 172.54308 
L 149.088 172.096863 
L 155.04 171.639606 
L 160.992 171.175077 
L 166.944 170.70621 
L 172.896 170.243787 
L 175.060048 170.064 
L 178.848 169.580817 
L 184.8 168.823482 
L 190.752 168.069821 
L 196.704 167.321232 
L 202.656 166.578805 
L 208.608 165.843381 
L 214.56 165.115606 
L 214.56 167.162225 
L 208.608 167.89 
L 202.656 168.625424 
L 196.704 169.367851 
L 191.168949 170.064 
L 190.752 170.110577 
L 184.8 170.702838 
L 178.848 171.181995 
L 172.896 171.576765 
L 166.944 171.976275 
L 160.992 172.445141 
L 155.04 172.909671 
L 149.088 173.366927 
L 143.136 173.813145 
L 137.184 174.243463 
L 131.232 174.651574 
L 125.28 175.029219 
L 119.328 175.365489 
L 114.178685 175.608 
L 113.376 175.662033 
L 107.424 175.937131 
L 101.472 176.063926 
L 95.52 176.015871 
L 89.568 175.70783 
L 88.746307 175.608 
L 83.616 175.168252 
L 77.664 174.260793 
L 71.712 172.763982 
L 65.76 170.459964 
L 65.306146 170.064 
L 60.02081 164.52 
L 59.808 164.173732 
z
" clip-path="url(#p9cff6ab3b3)" style="fill: #375a8c"/>
    <path d="M 53.171834 136.8 
L 52.822868 131.256 
L 52.699211 125.712 
L 52.719363 120.168 
L 52.849675 114.624 
L 53.078995 109.08 
L 53.410122 103.536 
L 53.856 98.013041 
L 53.856735 97.992 
L 54.072475 92.448 
L 54.305082 86.904 
L 54.550477 81.36 
L 54.805455 75.816 
L 55.067481 70.272 
L 55.334537 64.728 
L 55.605011 59.184 
L 55.87761 53.64 
L 56.151292 48.096 
L 56.315476 42.552 
L 56.437967 37.008 
L 56.572789 31.464 
L 56.721645 25.92 
L 58.137314 25.92 
L 57.914921 31.464 
L 57.713495 37.008 
L 57.530492 42.552 
L 57.328129 48.096 
L 57.054447 53.64 
L 56.781848 59.184 
L 56.511374 64.728 
L 56.244318 70.272 
L 55.982292 75.816 
L 55.727314 81.36 
L 55.481919 86.904 
L 55.249312 92.448 
L 55.033572 97.992 
L 54.839931 103.536 
L 54.67516 109.08 
L 54.548118 114.624 
L 54.470535 120.168 
L 54.458161 125.712 
L 54.532494 131.256 
L 54.723447 136.8 
L 55.073579 142.344 
L 55.645091 147.888 
L 56.531857 153.432 
L 57.717506 158.976 
L 59.808 164.173732 
L 60.02081 164.52 
L 65.306146 170.064 
L 65.76 170.459964 
L 71.712 172.763982 
L 77.664 174.260793 
L 83.616 175.168252 
L 88.746307 175.608 
L 89.568 175.70783 
L 95.52 176.015871 
L 101.472 176.063926 
L 107.424 175.937131 
L 113.376 175.662033 
L 114.178685 175.608 
L 119.328 175.365489 
L 125.28 175.029219 
L 131.232 174.651574 
L 137.184 174.243463 
L 143.136 173.813145 
L 149.088 173.366927 
L 155.04 172.909671 
L 160.992 172.445141 
L 166.944 171.976275 
L 172.896 171.576765 
L 178.848 171.181995 
L 184.8 170.702838 
L 190.752 170.110577 
L 191.168949 170.064 
L 196.704 169.367851 
L 202.656 168.625424 
L 208.608 167.89 
L 214.56 167.162225 
L 214.56 169.208844 
L 208.608 169.936619 
L 207.577066 170.064 
L 202.656 170.77355 
L 196.704 171.426933 
L 190.752 171.928367 
L 184.8 172.32479 
L 178.848 172.645507 
L 172.896 172.909742 
L 166.944 173.246339 
L 160.992 173.715206 
L 155.04 174.179735 
L 149.088 174.636992 
L 143.136 175.083209 
L 137.184 175.513528 
L 135.806194 175.608 
L 131.232 176.210803 
L 125.28 176.782816 
L 119.328 177.191109 
L 113.376 177.477357 
L 107.424 177.661491 
L 101.472 177.74636 
L 95.52 177.714195 
L 89.568 177.508011 
L 83.616 176.961417 
L 78.169974 175.608 
L 77.664 175.530858 
L 71.712 174.034047 
L 65.76 172.162225 
L 63.355016 170.064 
L 59.808 166.343394 
L 57.988955 164.52 
L 56.440652 158.976 
L 55.35502 153.432 
L 54.468254 147.888 
L 53.896742 142.344 
L 53.856 141.69889 
z
" clip-path="url(#p9cff6ab3b3)" style="fill: #3f4889"/>
    <path d="M 51.957404 147.888 
L 50.968032 142.344 
L 50.56945 136.8 
L 50.392878 131.256 
L 50.33031 125.712 
L 50.340507 120.168 
L 50.406442 114.624 
L 50.522475 109.08 
L 50.690021 103.536 
L 50.916558 97.992 
L 51.216657 92.448 
L 51.615262 86.904 
L 52.154882 81.36 
L 52.911392 75.816 
L 53.856 71.005002 
L 53.890644 70.272 
L 54.1577 64.728 
L 54.428174 59.184 
L 54.700773 53.64 
L 54.974455 48.096 
L 55.100461 42.552 
L 55.162439 37.008 
L 55.230657 31.464 
L 55.305976 25.92 
L 56.721645 25.92 
L 56.572789 31.464 
L 56.437967 37.008 
L 56.315476 42.552 
L 56.151292 48.096 
L 55.87761 53.64 
L 55.605011 59.184 
L 55.334537 64.728 
L 55.067481 70.272 
L 54.805455 75.816 
L 54.550477 81.36 
L 54.305082 86.904 
L 54.072475 92.448 
L 53.856735 97.992 
L 53.856 98.013041 
L 53.410122 103.536 
L 53.078995 109.08 
L 52.849675 114.624 
L 52.719363 120.168 
L 52.699211 125.712 
L 52.822868 131.256 
L 53.171834 136.8 
L 53.856 141.69889 
L 53.896742 142.344 
L 54.468254 147.888 
L 55.35502 153.432 
L 56.440652 158.976 
L 57.988955 164.52 
L 59.808 166.343394 
L 63.355016 170.064 
L 65.76 172.162225 
L 71.712 174.034047 
L 77.664 175.530858 
L 78.169974 175.608 
L 83.616 176.961417 
L 89.568 177.508011 
L 95.52 177.714195 
L 101.472 177.74636 
L 107.424 177.661491 
L 113.376 177.477357 
L 119.328 177.191109 
L 125.28 176.782816 
L 131.232 176.210803 
L 135.806194 175.608 
L 137.184 175.513528 
L 143.136 175.083209 
L 149.088 174.636992 
L 155.04 174.179735 
L 160.992 173.715206 
L 166.944 173.246339 
L 172.896 172.909742 
L 178.848 172.645507 
L 184.8 172.32479 
L 190.752 171.928367 
L 196.704 171.426933 
L 202.656 170.77355 
L 207.577066 170.064 
L 208.608 169.936619 
L 214.56 169.208844 
L 214.56 170.064 
L 214.56 172.073158 
L 208.608 172.713825 
L 202.656 173.161836 
L 196.704 173.492438 
L 190.752 173.746157 
L 184.8 173.946741 
L 178.848 174.10902 
L 172.896 174.242719 
L 166.944 174.516404 
L 160.992 174.98527 
L 155.04 175.4498 
L 152.980747 175.608 
L 149.088 176.644296 
L 143.136 177.627336 
L 137.184 178.2398 
L 131.232 178.651823 
L 125.28 178.941254 
L 119.328 179.147844 
L 113.376 179.292682 
L 107.424 179.385851 
L 101.472 179.428794 
L 95.52 179.412518 
L 89.568 179.308193 
L 83.616 179.031623 
L 77.664 178.260038 
L 72.9204 175.608 
L 71.712 175.304111 
L 65.76 173.864486 
L 61.403885 170.064 
L 59.808 168.390013 
L 55.947218 164.52 
L 55.163798 158.976 
L 54.178183 153.432 
L 53.856 151.417737 
z
" clip-path="url(#p9cff6ab3b3)" style="fill: #453581"/>
    <path d="M 48.096204 153.432 
L 47.999907 147.888 
L 47.976498 142.344 
L 47.967067 136.8 
L 47.962889 131.256 
L 47.961409 125.712 
L 47.96165 120.168 
L 47.96321 114.624 
L 47.965955 109.08 
L 47.96992 103.536 
L 47.97528 97.992 
L 47.98238 92.448 
L 47.991812 86.904 
L 48.004579 81.36 
L 48.022479 75.816 
L 48.048997 70.272 
L 48.091847 64.728 
L 48.172089 59.184 
L 48.374763 53.64 
L 49.857355 48.096 
L 53.856 44.371455 
L 53.885445 42.552 
L 53.886911 37.008 
L 53.888526 31.464 
L 53.890308 25.92 
L 55.305976 25.92 
L 55.230657 31.464 
L 55.162439 37.008 
L 55.100461 42.552 
L 54.974455 48.096 
L 54.700773 53.64 
L 54.428174 59.184 
L 54.1577 64.728 
L 53.890644 70.272 
L 53.856 71.005002 
L 52.911392 75.816 
L 52.154882 81.36 
L 51.615262 86.904 
L 51.216657 92.448 
L 50.916558 97.992 
L 50.690021 103.536 
L 50.522475 109.08 
L 50.406442 114.624 
L 50.340507 120.168 
L 50.33031 125.712 
L 50.392878 131.256 
L 50.56945 136.8 
L 50.968032 142.344 
L 51.957404 147.888 
L 53.856 151.417737 
L 54.178183 153.432 
L 55.163798 158.976 
L 55.947218 164.52 
L 59.808 168.390013 
L 61.403885 170.064 
L 65.76 173.864486 
L 71.712 175.304111 
L 72.9204 175.608 
L 77.664 178.260038 
L 83.616 179.031623 
L 89.568 179.308193 
L 95.52 179.412518 
L 101.472 179.428794 
L 107.424 179.385851 
L 113.376 179.292682 
L 119.328 179.147844 
L 125.28 178.941254 
L 131.232 178.651823 
L 137.184 178.2398 
L 143.136 177.627336 
L 149.088 176.644296 
L 152.980747 175.608 
L 155.04 175.4498 
L 160.992 174.98527 
L 166.944 174.516404 
L 172.896 174.242719 
L 178.848 174.10902 
L 184.8 173.946741 
L 190.752 173.746157 
L 196.704 173.492438 
L 202.656 173.161836 
L 208.608 172.713825 
L 214.56 172.073158 
L 214.56 175.524363 
L 208.608 175.539521 
L 202.656 175.550122 
L 196.704 175.557944 
L 190.752 175.563947 
L 184.8 175.568693 
L 178.848 175.572533 
L 172.896 175.575696 
L 172.020496 175.608 
L 166.944 180.336511 
L 160.992 180.900362 
L 155.04 181.002663 
L 149.088 181.045344 
L 143.136 181.068603 
L 137.184 181.083095 
L 131.232 181.092844 
L 125.28 181.099692 
L 119.328 181.10458 
L 113.376 181.108007 
L 107.424 181.110211 
L 101.472 181.111227 
L 95.52 181.110842 
L 89.568 181.108374 
L 83.616 181.10183 
L 77.664 181.083574 
L 71.712 180.98084 
L 65.943757 175.608 
L 65.76 175.566747 
L 59.808 174.95676 
L 54.555166 170.064 
L 53.90548 164.52 
L 53.886944 158.976 
L 53.856 158.796971 
z
" clip-path="url(#p9cff6ab3b3)" style="fill: #482173"/>
    <path d="M 36 186.696 
L 36 181.152 
L 36 175.608 
L 36 170.064 
L 36 164.52 
L 36 158.976 
L 36 153.432 
L 36 147.888 
L 36 142.344 
L 36 136.8 
L 36 131.256 
L 36 125.712 
L 36 120.168 
L 36 114.624 
L 36 109.08 
L 36 103.536 
L 36 97.992 
L 36 92.448 
L 36 86.904 
L 36 81.36 
L 36 75.816 
L 36 70.272 
L 36 64.728 
L 36 59.184 
L 36 53.64 
L 36 48.096 
L 36 42.552 
L 36 37.008 
L 36 31.464 
L 36 25.92 
L 41.952 25.92 
L 47.904 25.92 
L 53.856 25.92 
L 53.890308 25.92 
L 53.888526 31.464 
L 53.886911 37.008 
L 53.885445 42.552 
L 53.856 44.371455 
L 49.857355 48.096 
L 48.374763 53.64 
L 48.172089 59.184 
L 48.091847 64.728 
L 48.048997 70.272 
L 48.022479 75.816 
L 48.004579 81.36 
L 47.991812 86.904 
L 47.98238 92.448 
L 47.97528 97.992 
L 47.96992 103.536 
L 47.965955 109.08 
L 47.96321 114.624 
L 47.96165 120.168 
L 47.961409 125.712 
L 47.962889 131.256 
L 47.967067 136.8 
L 47.976498 142.344 
L 47.999907 147.888 
L 48.096204 153.432 
L 53.856 158.796971 
L 53.886944 158.976 
L 53.90548 164.52 
L 54.555166 170.064 
L 59.808 174.95676 
L 65.76 175.566747 
L 65.943757 175.608 
L 71.712 180.98084 
L 77.664 181.083574 
L 83.616 181.10183 
L 89.568 181.108374 
L 95.52 181.110842 
L 101.472 181.111227 
L 107.424 181.110211 
L 113.376 181.108007 
L 119.328 181.10458 
L 125.28 181.099692 
L 131.232 181.092844 
L 137.184 181.083095 
L 143.136 181.068603 
L 149.088 181.045344 
L 155.04 181.002663 
L 160.992 180.900362 
L 166.944 180.336511 
L 172.020496 175.608 
L 172.896 175.575696 
L 178.848 175.572533 
L 184.8 175.568693 
L 190.752 175.563947 
L 196.704 175.557944 
L 202.656 175.550122 
L 208.608 175.539521 
L 214.56 175.524363 
L 214.56 175.608 
L 214.56 181.152 
L 214.56 186.696 
L 214.56 192.24 
L 208.608 192.24 
L 202.656 192.24 
L 196.704 192.24 
L 190.752 192.24 
L 184.8 192.24 
L 178.848 192.24 
L 172.896 192.24 
L 166.944 192.24 
L 160.992 192.24 
L 155.04 192.24 
L 149.088 192.24 
L 143.136 192.24 
L 137.184 192.24 
L 131.232 192.24 
L 125.28 192.24 
L 119.328 192.24 
L 113.376 192.24 
L 107.424 192.24 
L 101.472 192.24 
L 95.52 192.24 
L 89.568 192.24 
L 83.616 192.24 
L 77.664 192.24 
L 71.712 192.24 
L 65.76 192.24 
L 59.808 192.24 
L 53.856 192.24 
L 47.904 192.24 
L 41.952 192.24 
L 36 192.24 
z
" clip-path="url(#p9cff6ab3b3)" style="fill: #460b5e"/>
   </g>
   <g id="PathCollection_1">
    <defs>
     <path id="md51643035d" d="M -4.743416 4.743416 
L 4.743416 -4.743416 
M -4.743416 -4.743416 
L 4.743416 4.743416 
" style="stroke: #ffffff; stroke-width: 5"/>
    </defs>
    <g clip-path="url(#p9cff6ab3b3)">
     <use xlink:href="#md51643035d" x="85.6" y="127.56" style="fill: #ffffff; stroke: #ffffff; stroke-width: 5"/>
    </g>
   </g>
   <g id="PathCollection_2">
    <defs>
     <path id="m692eab9fdb" d="M -4.330127 4.330127 
L 4.330127 -4.330127 
M -4.330127 -4.330127 
L 4.330127 4.330127 
" style="stroke: #000000; stroke-width: 2"/>
    </defs>
    <g clip-path="url(#p9cff6ab3b3)">
     <use xlink:href="#m692eab9fdb" x="85.6" y="127.56" style="stroke: #000000; stroke-width: 2"/>
    </g>
   </g>
   <g id="matplotlib.axis_1">
    <g id="xtick_1">
     <g id="line2d_1">
      <defs>
       <path id="m59a24b4d21" d="M 0 0 
L 0 6 
" style="stroke: #000000; stroke-width: 2"/>
      </defs>
      <g>
       <use xlink:href="#m59a24b4d21" x="65.76" y="192.24" style="stroke: #000000; stroke-width: 2"/>
      </g>
     </g>
     <g id="text_1">
      <!-- $\mathdefault{200}$ -->
      <g transform="translate(52.39 212.377813) scale(0.14 -0.14)">
       <defs>
        <path id="DejaVuSans-32" d="M 1228 531 
L 3431 531 
L 3431 0 
L 469 0 
L 469 531 
Q 828 903 1448 1529 
Q 2069 2156 2228 2338 
Q 2531 2678 2651 2914 
Q 2772 3150 2772 3378 
Q 2772 3750 2511 3984 
Q 2250 4219 1831 4219 
Q 1534 4219 1204 4116 
Q 875 4013 500 3803 
L 500 4441 
Q 881 4594 1212 4672 
Q 1544 4750 1819 4750 
Q 2544 4750 2975 4387 
Q 3406 4025 3406 3419 
Q 3406 3131 3298 2873 
Q 3191 2616 2906 2266 
Q 2828 2175 2409 1742 
Q 1991 1309 1228 531 
z
" transform="scale(0.015625)"/>
        <path id="DejaVuSans-30" d="M 2034 4250 
Q 1547 4250 1301 3770 
Q 1056 3291 1056 2328 
Q 1056 1369 1301 889 
Q 1547 409 2034 409 
Q 2525 409 2770 889 
Q 3016 1369 3016 2328 
Q 3016 3291 2770 3770 
Q 2525 4250 2034 4250 
z
M 2034 4750 
Q 2819 4750 3233 4129 
Q 3647 3509 3647 2328 
Q 3647 1150 3233 529 
Q 2819 -91 2034 -91 
Q 1250 -91 836 529 
Q 422 1150 422 2328 
Q 422 3509 836 4129 
Q 1250 4750 2034 4750 
z
" transform="scale(0.015625)"/>
       </defs>
       <use xlink:href="#DejaVuSans-32" transform="translate(0 0.78125)"/>
       <use xlink:href="#DejaVuSans-30" transform="translate(63.623047 0.78125)"/>
       <use xlink:href="#DejaVuSans-30" transform="translate(127.246094 0.78125)"/>
      </g>
     </g>
    </g>
    <g id="xtick_2">
     <g id="line2d_2">
      <g>
       <use xlink:href="#m59a24b4d21" x="105.44" y="192.24" style="stroke: #000000; stroke-width: 2"/>
      </g>
     </g>
     <g id="text_2">
      <!-- $\mathdefault{400}$ -->
      <g transform="translate(92.07 212.377813) scale(0.14 -0.14)">
       <defs>
        <path id="DejaVuSans-34" d="M 2419 4116 
L 825 1625 
L 2419 1625 
L 2419 4116 
z
M 2253 4666 
L 3047 4666 
L 3047 1625 
L 3713 1625 
L 3713 1100 
L 3047 1100 
L 3047 0 
L 2419 0 
L 2419 1100 
L 313 1100 
L 313 1709 
L 2253 4666 
z
" transform="scale(0.015625)"/>
       </defs>
       <use xlink:href="#DejaVuSans-34" transform="translate(0 0.78125)"/>
       <use xlink:href="#DejaVuSans-30" transform="translate(63.623047 0.78125)"/>
       <use xlink:href="#DejaVuSans-30" transform="translate(127.246094 0.78125)"/>
      </g>
     </g>
    </g>
    <g id="xtick_3">
     <g id="line2d_3">
      <g>
       <use xlink:href="#m59a24b4d21" x="145.12" y="192.24" style="stroke: #000000; stroke-width: 2"/>
      </g>
     </g>
     <g id="text_3">
      <!-- $\mathdefault{600}$ -->
      <g transform="translate(131.75 212.377813) scale(0.14 -0.14)">
       <defs>
        <path id="DejaVuSans-36" d="M 2113 2584 
Q 1688 2584 1439 2293 
Q 1191 2003 1191 1497 
Q 1191 994 1439 701 
Q 1688 409 2113 409 
Q 2538 409 2786 701 
Q 3034 994 3034 1497 
Q 3034 2003 2786 2293 
Q 2538 2584 2113 2584 
z
M 3366 4563 
L 3366 3988 
Q 3128 4100 2886 4159 
Q 2644 4219 2406 4219 
Q 1781 4219 1451 3797 
Q 1122 3375 1075 2522 
Q 1259 2794 1537 2939 
Q 1816 3084 2150 3084 
Q 2853 3084 3261 2657 
Q 3669 2231 3669 1497 
Q 3669 778 3244 343 
Q 2819 -91 2113 -91 
Q 1303 -91 875 529 
Q 447 1150 447 2328 
Q 447 3434 972 4092 
Q 1497 4750 2381 4750 
Q 2619 4750 2861 4703 
Q 3103 4656 3366 4563 
z
" transform="scale(0.015625)"/>
       </defs>
       <use xlink:href="#DejaVuSans-36" transform="translate(0 0.78125)"/>
       <use xlink:href="#DejaVuSans-30" transform="translate(63.623047 0.78125)"/>
       <use xlink:href="#DejaVuSans-30" transform="translate(127.246094 0.78125)"/>
      </g>
     </g>
    </g>
    <g id="xtick_4">
     <g id="line2d_4">
      <g>
       <use xlink:href="#m59a24b4d21" x="184.8" y="192.24" style="stroke: #000000; stroke-width: 2"/>
      </g>
     </g>
     <g id="text_4">
      <!-- $\mathdefault{800}$ -->
      <g transform="translate(171.43 212.377813) scale(0.14 -0.14)">
       <defs>
        <path id="DejaVuSans-38" d="M 2034 2216 
Q 1584 2216 1326 1975 
Q 1069 1734 1069 1313 
Q 1069 891 1326 650 
Q 1584 409 2034 409 
Q 2484 409 2743 651 
Q 3003 894 3003 1313 
Q 3003 1734 2745 1975 
Q 2488 2216 2034 2216 
z
M 1403 2484 
Q 997 2584 770 2862 
Q 544 3141 544 3541 
Q 544 4100 942 4425 
Q 1341 4750 2034 4750 
Q 2731 4750 3128 4425 
Q 3525 4100 3525 3541 
Q 3525 3141 3298 2862 
Q 3072 2584 2669 2484 
Q 3125 2378 3379 2068 
Q 3634 1759 3634 1313 
Q 3634 634 3220 271 
Q 2806 -91 2034 -91 
Q 1263 -91 848 271 
Q 434 634 434 1313 
Q 434 1759 690 2068 
Q 947 2378 1403 2484 
z
M 1172 3481 
Q 1172 3119 1398 2916 
Q 1625 2713 2034 2713 
Q 2441 2713 2670 2916 
Q 2900 3119 2900 3481 
Q 2900 3844 2670 4047 
Q 2441 4250 2034 4250 
Q 1625 4250 1398 4047 
Q 1172 3844 1172 3481 
z
" transform="scale(0.015625)"/>
       </defs>
       <use xlink:href="#DejaVuSans-38" transform="translate(0 0.78125)"/>
       <use xlink:href="#DejaVuSans-30" transform="translate(63.623047 0.78125)"/>
       <use xlink:href="#DejaVuSans-30" transform="translate(127.246094 0.78125)"/>
      </g>
     </g>
    </g>
    <g id="text_5">
     <!-- Diploid N$_e$1 -->
     <g transform="translate(74.34 232.969375) scale(0.18 -0.18)">
      <defs>
       <path id="DejaVuSans-44" d="M 1259 4147 
L 1259 519 
L 2022 519 
Q 2988 519 3436 956 
Q 3884 1394 3884 2338 
Q 3884 3275 3436 3711 
Q 2988 4147 2022 4147 
L 1259 4147 
z
M 628 4666 
L 1925 4666 
Q 3281 4666 3915 4102 
Q 4550 3538 4550 2338 
Q 4550 1131 3912 565 
Q 3275 0 1925 0 
L 628 0 
L 628 4666 
z
" transform="scale(0.015625)"/>
       <path id="DejaVuSans-69" d="M 603 3500 
L 1178 3500 
L 1178 0 
L 603 0 
L 603 3500 
z
M 603 4863 
L 1178 4863 
L 1178 4134 
L 603 4134 
L 603 4863 
z
" transform="scale(0.015625)"/>
       <path id="DejaVuSans-70" d="M 1159 525 
L 1159 -1331 
L 581 -1331 
L 581 3500 
L 1159 3500 
L 1159 2969 
Q 1341 3281 1617 3432 
Q 1894 3584 2278 3584 
Q 2916 3584 3314 3078 
Q 3713 2572 3713 1747 
Q 3713 922 3314 415 
Q 2916 -91 2278 -91 
Q 1894 -91 1617 61 
Q 1341 213 1159 525 
z
M 3116 1747 
Q 3116 2381 2855 2742 
Q 2594 3103 2138 3103 
Q 1681 3103 1420 2742 
Q 1159 2381 1159 1747 
Q 1159 1113 1420 752 
Q 1681 391 2138 391 
Q 2594 391 2855 752 
Q 3116 1113 3116 1747 
z
" transform="scale(0.015625)"/>
       <path id="DejaVuSans-6c" d="M 603 4863 
L 1178 4863 
L 1178 0 
L 603 0 
L 603 4863 
z
" transform="scale(0.015625)"/>
       <path id="DejaVuSans-6f" d="M 1959 3097 
Q 1497 3097 1228 2736 
Q 959 2375 959 1747 
Q 959 1119 1226 758 
Q 1494 397 1959 397 
Q 2419 397 2687 759 
Q 2956 1122 2956 1747 
Q 2956 2369 2687 2733 
Q 2419 3097 1959 3097 
z
M 1959 3584 
Q 2709 3584 3137 3096 
Q 3566 2609 3566 1747 
Q 3566 888 3137 398 
Q 2709 -91 1959 -91 
Q 1206 -91 779 398 
Q 353 888 353 1747 
Q 353 2609 779 3096 
Q 1206 3584 1959 3584 
z
" transform="scale(0.015625)"/>
       <path id="DejaVuSans-64" d="M 2906 2969 
L 2906 4863 
L 3481 4863 
L 3481 0 
L 2906 0 
L 2906 525 
Q 2725 213 2448 61 
Q 2172 -91 1784 -91 
Q 1150 -91 751 415 
Q 353 922 353 1747 
Q 353 2572 751 3078 
Q 1150 3584 1784 3584 
Q 2172 3584 2448 3432 
Q 2725 3281 2906 2969 
z
M 947 1747 
Q 947 1113 1208 752 
Q 1469 391 1925 391 
Q 2381 391 2643 752 
Q 2906 1113 2906 1747 
Q 2906 2381 2643 2742 
Q 2381 3103 1925 3103 
Q 1469 3103 1208 2742 
Q 947 2381 947 1747 
z
" transform="scale(0.015625)"/>
       <path id="DejaVuSans-20" transform="scale(0.015625)"/>
       <path id="DejaVuSans-4e" d="M 628 4666 
L 1478 4666 
L 3547 763 
L 3547 4666 
L 4159 4666 
L 4159 0 
L 3309 0 
L 1241 3903 
L 1241 0 
L 628 0 
L 628 4666 
z
" transform="scale(0.015625)"/>
       <path id="DejaVuSans-Oblique-65" d="M 3078 2063 
Q 3088 2113 3092 2166 
Q 3097 2219 3097 2272 
Q 3097 2653 2873 2875 
Q 2650 3097 2266 3097 
Q 1838 3097 1509 2826 
Q 1181 2556 1013 2059 
L 3078 2063 
z
M 3578 1613 
L 903 1613 
Q 884 1494 878 1425 
Q 872 1356 872 1306 
Q 872 872 1139 634 
Q 1406 397 1894 397 
Q 2269 397 2603 481 
Q 2938 566 3225 728 
L 3116 159 
Q 2806 34 2476 -28 
Q 2147 -91 1806 -91 
Q 1078 -91 686 257 
Q 294 606 294 1247 
Q 294 1794 489 2264 
Q 684 2734 1063 3103 
Q 1306 3334 1642 3459 
Q 1978 3584 2356 3584 
Q 2950 3584 3301 3228 
Q 3653 2872 3653 2272 
Q 3653 2128 3634 1964 
Q 3616 1800 3578 1613 
z
" transform="scale(0.015625)"/>
       <path id="DejaVuSans-31" d="M 794 531 
L 1825 531 
L 1825 4091 
L 703 3866 
L 703 4441 
L 1819 4666 
L 2450 4666 
L 2450 531 
L 3481 531 
L 3481 0 
L 794 0 
L 794 531 
z
" transform="scale(0.015625)"/>
      </defs>
      <use xlink:href="#DejaVuSans-44" transform="translate(0 0.015625)"/>
      <use xlink:href="#DejaVuSans-69" transform="translate(77.001953 0.015625)"/>
      <use xlink:href="#DejaVuSans-70" transform="translate(104.785156 0.015625)"/>
      <use xlink:href="#DejaVuSans-6c" transform="translate(168.261719 0.015625)"/>
      <use xlink:href="#DejaVuSans-6f" transform="translate(196.044922 0.015625)"/>
      <use xlink:href="#DejaVuSans-69" transform="translate(257.226562 0.015625)"/>
      <use xlink:href="#DejaVuSans-64" transform="translate(285.009766 0.015625)"/>
      <use xlink:href="#DejaVuSans-20" transform="translate(348.486328 0.015625)"/>
      <use xlink:href="#DejaVuSans-4e" transform="translate(380.273438 0.015625)"/>
      <use xlink:href="#DejaVuSans-Oblique-65" transform="translate(456.035156 -16.390625) scale(0.7)"/>
      <use xlink:href="#DejaVuSans-31" transform="translate(501.835938 0.015625)"/>
     </g>
    </g>
    <g id="text_6">
     <!-- $\times\mathdefault{10^{3}}\mathdefault{}$ -->
     <g transform="translate(188.56 225.887812) scale(0.1 -0.1)">
      <defs>
       <path id="DejaVuSans-d7" d="M 4488 3438 
L 3059 2003 
L 4488 575 
L 4116 197 
L 2681 1631 
L 1247 197 
L 878 575 
L 2303 2003 
L 878 3438 
L 1247 3816 
L 2681 2381 
L 4116 3816 
L 4488 3438 
z
" transform="scale(0.015625)"/>
       <path id="DejaVuSans-33" d="M 2597 2516 
Q 3050 2419 3304 2112 
Q 3559 1806 3559 1356 
Q 3559 666 3084 287 
Q 2609 -91 1734 -91 
Q 1441 -91 1130 -33 
Q 819 25 488 141 
L 488 750 
Q 750 597 1062 519 
Q 1375 441 1716 441 
Q 2309 441 2620 675 
Q 2931 909 2931 1356 
Q 2931 1769 2642 2001 
Q 2353 2234 1838 2234 
L 1294 2234 
L 1294 2753 
L 1863 2753 
Q 2328 2753 2575 2939 
Q 2822 3125 2822 3475 
Q 2822 3834 2567 4026 
Q 2313 4219 1838 4219 
Q 1578 4219 1281 4162 
Q 984 4106 628 3988 
L 628 4550 
Q 988 4650 1302 4700 
Q 1616 4750 1894 4750 
Q 2613 4750 3031 4423 
Q 3450 4097 3450 3541 
Q 3450 3153 3228 2886 
Q 3006 2619 2597 2516 
z
" transform="scale(0.015625)"/>
      </defs>
      <use xlink:href="#DejaVuSans-d7" transform="translate(0 0.765625)"/>
      <use xlink:href="#DejaVuSans-31" transform="translate(83.789062 0.765625)"/>
      <use xlink:href="#DejaVuSans-30" transform="translate(147.412109 0.765625)"/>
      <use xlink:href="#DejaVuSans-33" transform="translate(211.992188 39.046875) scale(0.7)"/>
     </g>
    </g>
   </g>
   <g id="matplotlib.axis_2">
    <g id="ytick_1">
     <g id="line2d_5">
      <defs>
       <path id="m41619860d0" d="M 0 0 
L -6 0 
" style="stroke: #000000; stroke-width: 2"/>
      </defs>
      <g>
       <use xlink:href="#m41619860d0" x="36" y="164.52" style="stroke: #000000; stroke-width: 2"/>
      </g>
     </g>
     <g id="text_7">
      <!-- $\mathdefault{200}$ -->
      <g transform="translate(-0.24 169.838906) scale(0.14 -0.14)">
       <use xlink:href="#DejaVuSans-32" transform="translate(0 0.78125)"/>
       <use xlink:href="#DejaVuSans-30" transform="translate(63.623047 0.78125)"/>
       <use xlink:href="#DejaVuSans-30" transform="translate(127.246094 0.78125)"/>
      </g>
     </g>
    </g>
    <g id="ytick_2">
     <g id="line2d_6">
      <g>
       <use xlink:href="#m41619860d0" x="36" y="127.56" style="stroke: #000000; stroke-width: 2"/>
      </g>
     </g>
     <g id="text_8">
      <!-- $\mathdefault{400}$ -->
      <g transform="translate(-0.24 132.878906) scale(0.14 -0.14)">
       <use xlink:href="#DejaVuSans-34" transform="translate(0 0.78125)"/>
       <use xlink:href="#DejaVuSans-30" transform="translate(63.623047 0.78125)"/>
       <use xlink:href="#DejaVuSans-30" transform="translate(127.246094 0.78125)"/>
      </g>
     </g>
    </g>
    <g id="ytick_3">
     <g id="line2d_7">
      <g>
       <use xlink:href="#m41619860d0" x="36" y="90.6" style="stroke: #000000; stroke-width: 2"/>
      </g>
     </g>
     <g id="text_9">
      <!-- $\mathdefault{600}$ -->
      <g transform="translate(-0.24 95.918906) scale(0.14 -0.14)">
       <use xlink:href="#DejaVuSans-36" transform="translate(0 0.78125)"/>
       <use xlink:href="#DejaVuSans-30" transform="translate(63.623047 0.78125)"/>
       <use xlink:href="#DejaVuSans-30" transform="translate(127.246094 0.78125)"/>
      </g>
     </g>
    </g>
    <g id="ytick_4">
     <g id="line2d_8">
      <g>
       <use xlink:href="#m41619860d0" x="36" y="53.64" style="stroke: #000000; stroke-width: 2"/>
      </g>
     </g>
     <g id="text_10">
      <!-- $\mathdefault{800}$ -->
      <g transform="translate(-0.24 58.958906) scale(0.14 -0.14)">
       <use xlink:href="#DejaVuSans-38" transform="translate(0 0.78125)"/>
       <use xlink:href="#DejaVuSans-30" transform="translate(63.623047 0.78125)"/>
       <use xlink:href="#DejaVuSans-30" transform="translate(127.246094 0.78125)"/>
      </g>
     </g>
    </g>
    <g id="text_11">
     <!-- Diploid N$_e$2 -->
     <g transform="translate(-8.02 160.02) rotate(-90) scale(0.18 -0.18)">
      <use xlink:href="#DejaVuSans-44" transform="translate(0 0.015625)"/>
      <use xlink:href="#DejaVuSans-69" transform="translate(77.001953 0.015625)"/>
      <use xlink:href="#DejaVuSans-70" transform="translate(104.785156 0.015625)"/>
      <use xlink:href="#DejaVuSans-6c" transform="translate(168.261719 0.015625)"/>
      <use xlink:href="#DejaVuSans-6f" transform="translate(196.044922 0.015625)"/>
      <use xlink:href="#DejaVuSans-69" transform="translate(257.226562 0.015625)"/>
      <use xlink:href="#DejaVuSans-64" transform="translate(285.009766 0.015625)"/>
      <use xlink:href="#DejaVuSans-20" transform="translate(348.486328 0.015625)"/>
      <use xlink:href="#DejaVuSans-4e" transform="translate(380.273438 0.015625)"/>
      <use xlink:href="#DejaVuSans-Oblique-65" transform="translate(456.035156 -16.390625) scale(0.7)"/>
      <use xlink:href="#DejaVuSans-32" transform="translate(501.835938 0.015625)"/>
     </g>
    </g>
    <g id="text_12">
     <!-- $\times\mathdefault{10^{3}}\mathdefault{}$ -->
     <g transform="translate(36 22.92) scale(0.1 -0.1)">
      <use xlink:href="#DejaVuSans-d7" transform="translate(0 0.765625)"/>
      <use xlink:href="#DejaVuSans-31" transform="translate(83.789062 0.765625)"/>
      <use xlink:href="#DejaVuSans-30" transform="translate(147.412109 0.765625)"/>
      <use xlink:href="#DejaVuSans-33" transform="translate(211.992188 39.046875) scale(0.7)"/>
     </g>
    </g>
   </g>
   <g id="patch_3">
    <path d="M 36 192.24 
L 36 25.92 
" style="fill: none; stroke: #000000; stroke-width: 0.8; stroke-linejoin: miter; stroke-linecap: square"/>
   </g>
   <g id="patch_4">
    <path d="M 214.56 192.24 
L 214.56 25.92 
" style="fill: none; stroke: #000000; stroke-width: 0.8; stroke-linejoin: miter; stroke-linecap: square"/>
   </g>
   <g id="patch_5">
    <path d="M 36 192.24 
L 214.56 192.24 
" style="fill: none; stroke: #000000; stroke-width: 0.8; stroke-linejoin: miter; stroke-linecap: square"/>
   </g>
   <g id="patch_6">
    <path d="M 36 25.92 
L 214.56 25.92 
" style="fill: none; stroke: #000000; stroke-width: 0.8; stroke-linejoin: miter; stroke-linecap: square"/>
   </g>
   <g id="text_13">
    <!-- Ne1Ne2-MSC-T-P2-S4 -->
    <g transform="translate(40.66375 10.92) scale(0.16 -0.16)">
     <defs>
      <path id="DejaVuSans-65" d="M 3597 1894 
L 3597 1613 
L 953 1613 
Q 991 1019 1311 708 
Q 1631 397 2203 397 
Q 2534 397 2845 478 
Q 3156 559 3463 722 
L 3463 178 
Q 3153 47 2828 -22 
Q 2503 -91 2169 -91 
Q 1331 -91 842 396 
Q 353 884 353 1716 
Q 353 2575 817 3079 
Q 1281 3584 2069 3584 
Q 2775 3584 3186 3129 
Q 3597 2675 3597 1894 
z
M 3022 2063 
Q 3016 2534 2758 2815 
Q 2500 3097 2075 3097 
Q 1594 3097 1305 2825 
Q 1016 2553 972 2059 
L 3022 2063 
z
" transform="scale(0.015625)"/>
      <path id="DejaVuSans-2d" d="M 313 2009 
L 1997 2009 
L 1997 1497 
L 313 1497 
L 313 2009 
z
" transform="scale(0.015625)"/>
      <path id="DejaVuSans-4d" d="M 628 4666 
L 1569 4666 
L 2759 1491 
L 3956 4666 
L 4897 4666 
L 4897 0 
L 4281 0 
L 4281 4097 
L 3078 897 
L 2444 897 
L 1241 4097 
L 1241 0 
L 628 0 
L 628 4666 
z
" transform="scale(0.015625)"/>
      <path id="DejaVuSans-53" d="M 3425 4513 
L 3425 3897 
Q 3066 4069 2747 4153 
Q 2428 4238 2131 4238 
Q 1616 4238 1336 4038 
Q 1056 3838 1056 3469 
Q 1056 3159 1242 3001 
Q 1428 2844 1947 2747 
L 2328 2669 
Q 3034 2534 3370 2195 
Q 3706 1856 3706 1288 
Q 3706 609 3251 259 
Q 2797 -91 1919 -91 
Q 1588 -91 1214 -16 
Q 841 59 441 206 
L 441 856 
Q 825 641 1194 531 
Q 1563 422 1919 422 
Q 2459 422 2753 634 
Q 3047 847 3047 1241 
Q 3047 1584 2836 1778 
Q 2625 1972 2144 2069 
L 1759 2144 
Q 1053 2284 737 2584 
Q 422 2884 422 3419 
Q 422 4038 858 4394 
Q 1294 4750 2059 4750 
Q 2388 4750 2728 4690 
Q 3069 4631 3425 4513 
z
" transform="scale(0.015625)"/>
      <path id="DejaVuSans-43" d="M 4122 4306 
L 4122 3641 
Q 3803 3938 3442 4084 
Q 3081 4231 2675 4231 
Q 1875 4231 1450 3742 
Q 1025 3253 1025 2328 
Q 1025 1406 1450 917 
Q 1875 428 2675 428 
Q 3081 428 3442 575 
Q 3803 722 4122 1019 
L 4122 359 
Q 3791 134 3420 21 
Q 3050 -91 2638 -91 
Q 1578 -91 968 557 
Q 359 1206 359 2328 
Q 359 3453 968 4101 
Q 1578 4750 2638 4750 
Q 3056 4750 3426 4639 
Q 3797 4528 4122 4306 
z
" transform="scale(0.015625)"/>
      <path id="DejaVuSans-54" d="M -19 4666 
L 3928 4666 
L 3928 4134 
L 2272 4134 
L 2272 0 
L 1638 0 
L 1638 4134 
L -19 4134 
L -19 4666 
z
" transform="scale(0.015625)"/>
      <path id="DejaVuSans-50" d="M 1259 4147 
L 1259 2394 
L 2053 2394 
Q 2494 2394 2734 2622 
Q 2975 2850 2975 3272 
Q 2975 3691 2734 3919 
Q 2494 4147 2053 4147 
L 1259 4147 
z
M 628 4666 
L 2053 4666 
Q 2838 4666 3239 4311 
Q 3641 3956 3641 3272 
Q 3641 2581 3239 2228 
Q 2838 1875 2053 1875 
L 1259 1875 
L 1259 0 
L 628 0 
L 628 4666 
z
" transform="scale(0.015625)"/>
     </defs>
     <use xlink:href="#DejaVuSans-4e"/>
     <use xlink:href="#DejaVuSans-65" x="74.804688"/>
     <use xlink:href="#DejaVuSans-31" x="136.328125"/>
     <use xlink:href="#DejaVuSans-4e" x="199.951172"/>
     <use xlink:href="#DejaVuSans-65" x="274.755859"/>
     <use xlink:href="#DejaVuSans-32" x="336.279297"/>
     <use xlink:href="#DejaVuSans-2d" x="399.902344"/>
     <use xlink:href="#DejaVuSans-4d" x="435.986328"/>
     <use xlink:href="#DejaVuSans-53" x="522.265625"/>
     <use xlink:href="#DejaVuSans-43" x="585.742188"/>
     <use xlink:href="#DejaVuSans-2d" x="655.566406"/>
     <use xlink:href="#DejaVuSans-54" x="682.525391"/>
     <use xlink:href="#DejaVuSans-2d" x="734.484375"/>
     <use xlink:href="#DejaVuSans-50" x="770.568359"/>
     <use xlink:href="#DejaVuSans-32" x="830.871094"/>
     <use xlink:href="#DejaVuSans-2d" x="894.494141"/>
     <use xlink:href="#DejaVuSans-53" x="930.578125"/>
     <use xlink:href="#DejaVuSans-34" x="994.054688"/>
    </g>
   </g>
  </g>
  <g id="axes_2">
   <g id="patch_7">
    <path d="M 225.72 192.24 
L 234.036 192.24 
L 234.036 25.92 
L 225.72 25.92 
z
" style="fill: #ffffff"/>
   </g>
   <g id="QuadMesh_1">
    <path d="M 225.72 192.24 
L 234.036 192.24 
L 234.036 181.845 
L 225.72 181.845 
L 225.72 192.24 
" clip-path="url(#p996b0bedef)" style="fill: #eae51a"/>
    <path d="M 225.72 181.845 
L 234.036 181.845 
L 234.036 171.45 
L 225.72 171.45 
L 225.72 181.845 
" clip-path="url(#p996b0bedef)" style="fill: #c0df25"/>
    <path d="M 225.72 171.45 
L 234.036 171.45 
L 234.036 161.055 
L 225.72 161.055 
L 225.72 171.45 
" clip-path="url(#p996b0bedef)" style="fill: #95d840"/>
    <path d="M 225.72 161.055 
L 234.036 161.055 
L 234.036 150.66 
L 225.72 150.66 
L 225.72 161.055 
" clip-path="url(#p996b0bedef)" style="fill: #6ece58"/>
    <path d="M 225.72 150.66 
L 234.036 150.66 
L 234.036 140.265 
L 225.72 140.265 
L 225.72 150.66 
" clip-path="url(#p996b0bedef)" style="fill: #4cc26c"/>
    <path d="M 225.72 140.265 
L 234.036 140.265 
L 234.036 129.87 
L 225.72 129.87 
L 225.72 140.265 
" clip-path="url(#p996b0bedef)" style="fill: #31b57b"/>
    <path d="M 225.72 129.87 
L 234.036 129.87 
L 234.036 119.475 
L 225.72 119.475 
L 225.72 129.87 
" clip-path="url(#p996b0bedef)" style="fill: #21a685"/>
    <path d="M 225.72 119.475 
L 234.036 119.475 
L 234.036 109.08 
L 225.72 109.08 
L 225.72 119.475 
" clip-path="url(#p996b0bedef)" style="fill: #1f978b"/>
    <path d="M 225.72 109.08 
L 234.036 109.08 
L 234.036 98.685 
L 225.72 98.685 
L 225.72 109.08 
" clip-path="url(#p996b0bedef)" style="fill: #23888e"/>
    <path d="M 225.72 98.685 
L 234.036 98.685 
L 234.036 88.29 
L 225.72 88.29 
L 225.72 98.685 
" clip-path="url(#p996b0bedef)" style="fill: #29798e"/>
    <path d="M 225.72 88.29 
L 234.036 88.29 
L 234.036 77.895 
L 225.72 77.895 
L 225.72 88.29 
" clip-path="url(#p996b0bedef)" style="fill: #306a8e"/>
    <path d="M 225.72 77.895 
L 234.036 77.895 
L 234.036 67.5 
L 225.72 67.5 
L 225.72 77.895 
" clip-path="url(#p996b0bedef)" style="fill: #375a8c"/>
    <path d="M 225.72 67.5 
L 234.036 67.5 
L 234.036 57.105 
L 225.72 57.105 
L 225.72 67.5 
" clip-path="url(#p996b0bedef)" style="fill: #3f4889"/>
    <path d="M 225.72 57.105 
L 234.036 57.105 
L 234.036 46.71 
L 225.72 46.71 
L 225.72 57.105 
" clip-path="url(#p996b0bedef)" style="fill: #453581"/>
    <path d="M 225.72 46.71 
L 234.036 46.71 
L 234.036 36.315 
L 225.72 36.315 
L 225.72 46.71 
" clip-path="url(#p996b0bedef)" style="fill: #482173"/>
    <path d="M 225.72 36.315 
L 234.036 36.315 
L 234.036 25.92 
L 225.72 25.92 
L 225.72 36.315 
" clip-path="url(#p996b0bedef)" style="fill: #460b5e"/>
   </g>
   <g id="matplotlib.axis_3"/>
   <g id="matplotlib.axis_4">
    <g id="ytick_5">
     <g id="line2d_9">
      <defs>
       <path id="m70250e7e7d" d="M 0 0 
L 3.5 0 
" style="stroke: #000000; stroke-width: 0.8"/>
      </defs>
      <g>
       <use xlink:href="#m70250e7e7d" x="234.036" y="192.24" style="stroke: #000000; stroke-width: 0.8"/>
      </g>
     </g>
     <g id="text_14">
      <!-- $\mathdefault{0}$ -->
      <g transform="translate(241.036 196.039219) scale(0.1 -0.1)">
       <use xlink:href="#DejaVuSans-30" transform="translate(0 0.78125)"/>
      </g>
     </g>
    </g>
    <g id="ytick_6">
     <g id="line2d_10">
      <g>
       <use xlink:href="#m70250e7e7d" x="234.036" y="171.45" style="stroke: #000000; stroke-width: 0.8"/>
      </g>
     </g>
     <g id="text_15">
      <!-- $\mathdefault{16}$ -->
      <g transform="translate(241.036 175.249219) scale(0.1 -0.1)">
       <use xlink:href="#DejaVuSans-31" transform="translate(0 0.78125)"/>
       <use xlink:href="#DejaVuSans-36" transform="translate(63.623047 0.78125)"/>
      </g>
     </g>
    </g>
    <g id="ytick_7">
     <g id="line2d_11">
      <g>
       <use xlink:href="#m70250e7e7d" x="234.036" y="150.66" style="stroke: #000000; stroke-width: 0.8"/>
      </g>
     </g>
     <g id="text_16">
      <!-- $\mathdefault{32}$ -->
      <g transform="translate(241.036 154.459219) scale(0.1 -0.1)">
       <use xlink:href="#DejaVuSans-33" transform="translate(0 0.78125)"/>
       <use xlink:href="#DejaVuSans-32" transform="translate(63.623047 0.78125)"/>
      </g>
     </g>
    </g>
    <g id="ytick_8">
     <g id="line2d_12">
      <g>
       <use xlink:href="#m70250e7e7d" x="234.036" y="129.87" style="stroke: #000000; stroke-width: 0.8"/>
      </g>
     </g>
     <g id="text_17">
      <!-- $\mathdefault{48}$ -->
      <g transform="translate(241.036 133.669219) scale(0.1 -0.1)">
       <use xlink:href="#DejaVuSans-34" transform="translate(0 0.78125)"/>
       <use xlink:href="#DejaVuSans-38" transform="translate(63.623047 0.78125)"/>
      </g>
     </g>
    </g>
    <g id="ytick_9">
     <g id="line2d_13">
      <g>
       <use xlink:href="#m70250e7e7d" x="234.036" y="109.08" style="stroke: #000000; stroke-width: 0.8"/>
      </g>
     </g>
     <g id="text_18">
      <!-- $\mathdefault{64}$ -->
      <g transform="translate(241.036 112.879219) scale(0.1 -0.1)">
       <use xlink:href="#DejaVuSans-36" transform="translate(0 0.78125)"/>
       <use xlink:href="#DejaVuSans-34" transform="translate(63.623047 0.78125)"/>
      </g>
     </g>
    </g>
    <g id="ytick_10">
     <g id="line2d_14">
      <g>
       <use xlink:href="#m70250e7e7d" x="234.036" y="88.29" style="stroke: #000000; stroke-width: 0.8"/>
      </g>
     </g>
     <g id="text_19">
      <!-- $\mathdefault{80}$ -->
      <g transform="translate(241.036 92.089219) scale(0.1 -0.1)">
       <use xlink:href="#DejaVuSans-38" transform="translate(0 0.78125)"/>
       <use xlink:href="#DejaVuSans-30" transform="translate(63.623047 0.78125)"/>
      </g>
     </g>
    </g>
    <g id="ytick_11">
     <g id="line2d_15">
      <g>
       <use xlink:href="#m70250e7e7d" x="234.036" y="67.5" style="stroke: #000000; stroke-width: 0.8"/>
      </g>
     </g>
     <g id="text_20">
      <!-- $\mathdefault{96}$ -->
      <g transform="translate(241.036 71.299219) scale(0.1 -0.1)">
       <defs>
        <path id="DejaVuSans-39" d="M 703 97 
L 703 672 
Q 941 559 1184 500 
Q 1428 441 1663 441 
Q 2288 441 2617 861 
Q 2947 1281 2994 2138 
Q 2813 1869 2534 1725 
Q 2256 1581 1919 1581 
Q 1219 1581 811 2004 
Q 403 2428 403 3163 
Q 403 3881 828 4315 
Q 1253 4750 1959 4750 
Q 2769 4750 3195 4129 
Q 3622 3509 3622 2328 
Q 3622 1225 3098 567 
Q 2575 -91 1691 -91 
Q 1453 -91 1209 -44 
Q 966 3 703 97 
z
M 1959 2075 
Q 2384 2075 2632 2365 
Q 2881 2656 2881 3163 
Q 2881 3666 2632 3958 
Q 2384 4250 1959 4250 
Q 1534 4250 1286 3958 
Q 1038 3666 1038 3163 
Q 1038 2656 1286 2365 
Q 1534 2075 1959 2075 
z
" transform="scale(0.015625)"/>
       </defs>
       <use xlink:href="#DejaVuSans-39" transform="translate(0 0.78125)"/>
       <use xlink:href="#DejaVuSans-36" transform="translate(63.623047 0.78125)"/>
      </g>
     </g>
    </g>
    <g id="ytick_12">
     <g id="line2d_16">
      <g>
       <use xlink:href="#m70250e7e7d" x="234.036" y="46.71" style="stroke: #000000; stroke-width: 0.8"/>
      </g>
     </g>
     <g id="text_21">
      <!-- $\mathdefault{112}$ -->
      <g transform="translate(241.036 50.509219) scale(0.1 -0.1)">
       <use xlink:href="#DejaVuSans-31" transform="translate(0 0.78125)"/>
       <use xlink:href="#DejaVuSans-31" transform="translate(63.623047 0.78125)"/>
       <use xlink:href="#DejaVuSans-32" transform="translate(127.246094 0.78125)"/>
      </g>
     </g>
    </g>
    <g id="ytick_13">
     <g id="line2d_17">
      <g>
       <use xlink:href="#m70250e7e7d" x="234.036" y="25.92" style="stroke: #000000; stroke-width: 0.8"/>
      </g>
     </g>
     <g id="text_22">
      <!-- $\mathdefault{128}$ -->
      <g transform="translate(241.036 29.719219) scale(0.1 -0.1)">
       <use xlink:href="#DejaVuSans-31" transform="translate(0 0.78125)"/>
       <use xlink:href="#DejaVuSans-32" transform="translate(63.623047 0.78125)"/>
       <use xlink:href="#DejaVuSans-38" transform="translate(127.246094 0.78125)"/>
      </g>
     </g>
    </g>
    <g id="text_23">
     <!-- $\Delta$ log likelihood -->
     <g transform="translate(273.256 154.98) rotate(-90) scale(0.12 -0.12)">
      <defs>
       <path id="DejaVuSans-394" d="M 2188 4044 
L 906 525 
L 3472 525 
L 2188 4044 
z
M 50 0 
L 1831 4666 
L 2547 4666 
L 4325 0 
L 50 0 
z
" transform="scale(0.015625)"/>
       <path id="DejaVuSans-67" d="M 2906 1791 
Q 2906 2416 2648 2759 
Q 2391 3103 1925 3103 
Q 1463 3103 1205 2759 
Q 947 2416 947 1791 
Q 947 1169 1205 825 
Q 1463 481 1925 481 
Q 2391 481 2648 825 
Q 2906 1169 2906 1791 
z
M 3481 434 
Q 3481 -459 3084 -895 
Q 2688 -1331 1869 -1331 
Q 1566 -1331 1297 -1286 
Q 1028 -1241 775 -1147 
L 775 -588 
Q 1028 -725 1275 -790 
Q 1522 -856 1778 -856 
Q 2344 -856 2625 -561 
Q 2906 -266 2906 331 
L 2906 616 
Q 2728 306 2450 153 
Q 2172 0 1784 0 
Q 1141 0 747 490 
Q 353 981 353 1791 
Q 353 2603 747 3093 
Q 1141 3584 1784 3584 
Q 2172 3584 2450 3431 
Q 2728 3278 2906 2969 
L 2906 3500 
L 3481 3500 
L 3481 434 
z
" transform="scale(0.015625)"/>
       <path id="DejaVuSans-6b" d="M 581 4863 
L 1159 4863 
L 1159 1991 
L 2875 3500 
L 3609 3500 
L 1753 1863 
L 3688 0 
L 2938 0 
L 1159 1709 
L 1159 0 
L 581 0 
L 581 4863 
z
" transform="scale(0.015625)"/>
       <path id="DejaVuSans-68" d="M 3513 2113 
L 3513 0 
L 2938 0 
L 2938 2094 
Q 2938 2591 2744 2837 
Q 2550 3084 2163 3084 
Q 1697 3084 1428 2787 
Q 1159 2491 1159 1978 
L 1159 0 
L 581 0 
L 581 4863 
L 1159 4863 
L 1159 2956 
Q 1366 3272 1645 3428 
Q 1925 3584 2291 3584 
Q 2894 3584 3203 3211 
Q 3513 2838 3513 2113 
z
" transform="scale(0.015625)"/>
      </defs>
      <use xlink:href="#DejaVuSans-394" transform="translate(0 0.015625)"/>
      <use xlink:href="#DejaVuSans-20" transform="translate(68.408203 0.015625)"/>
      <use xlink:href="#DejaVuSans-6c" transform="translate(100.195312 0.015625)"/>
      <use xlink:href="#DejaVuSans-6f" transform="translate(127.978516 0.015625)"/>
      <use xlink:href="#DejaVuSans-67" transform="translate(189.160156 0.015625)"/>
      <use xlink:href="#DejaVuSans-20" transform="translate(252.636719 0.015625)"/>
      <use xlink:href="#DejaVuSans-6c" transform="translate(284.423828 0.015625)"/>
      <use xlink:href="#DejaVuSans-69" transform="translate(312.207031 0.015625)"/>
      <use xlink:href="#DejaVuSans-6b" transform="translate(339.990234 0.015625)"/>
      <use xlink:href="#DejaVuSans-65" transform="translate(397.900391 0.015625)"/>
      <use xlink:href="#DejaVuSans-6c" transform="translate(459.423828 0.015625)"/>
      <use xlink:href="#DejaVuSans-69" transform="translate(487.207031 0.015625)"/>
      <use xlink:href="#DejaVuSans-68" transform="translate(514.990234 0.015625)"/>
      <use xlink:href="#DejaVuSans-6f" transform="translate(578.369141 0.015625)"/>
      <use xlink:href="#DejaVuSans-6f" transform="translate(639.550781 0.015625)"/>
      <use xlink:href="#DejaVuSans-64" transform="translate(700.732422 0.015625)"/>
     </g>
    </g>
    <g id="text_24">
     <!-- $\times\mathdefault{10^{3}}\mathdefault{}$ -->
     <g transform="translate(208.036 22.92) scale(0.1 -0.1)">
      <use xlink:href="#DejaVuSans-d7" transform="translate(0 0.765625)"/>
      <use xlink:href="#DejaVuSans-31" transform="translate(83.789062 0.765625)"/>
      <use xlink:href="#DejaVuSans-30" transform="translate(147.412109 0.765625)"/>
      <use xlink:href="#DejaVuSans-33" transform="translate(211.992188 39.046875) scale(0.7)"/>
     </g>
    </g>
   </g>
   <g id="LineCollection_1"/>
   <g id="patch_8">
    <path d="M 225.72 192.24 
L 229.878 192.24 
L 234.036 192.24 
L 234.036 25.92 
L 229.878 25.92 
L 225.72 25.92 
L 225.72 192.24 
z
" style="fill: none; stroke: #000000; stroke-width: 0.8; stroke-linejoin: miter; stroke-linecap: square"/>
   </g>
  </g>
 </g>
 <defs>
  <clipPath id="p9cff6ab3b3">
   <rect x="36" y="25.92" width="178.56" height="166.32"/>
  </clipPath>
  <clipPath id="p996b0bedef">
   <rect x="225.72" y="25.92" width="8.316" height="166.32"/>
  </clipPath>
 </defs>
</svg>
