<?xml version="1.0" encoding="utf-8" standalone="no"?>
<!DOCTYPE svg PUBLIC "-//W3C//DTD SVG 1.1//EN"
  "http://www.w3.org/Graphics/SVG/1.1/DTD/svg11.dtd">
<svg xmlns:xlink="http://www.w3.org/1999/xlink" width="288pt" height="216pt" viewBox="0 0 288 216" xmlns="http://www.w3.org/2000/svg" version="1.1">
 <metadata>
  <rdf:RDF xmlns:dc="http://purl.org/dc/elements/1.1/" xmlns:cc="http://creativecommons.org/ns#" xmlns:rdf="http://www.w3.org/1999/02/22-rdf-syntax-ns#">
   <cc:Work>
    <dc:type rdf:resource="http://purl.org/dc/dcmitype/StillImage"/>
    <dc:date>2024-12-11T22:04:06.531356</dc:date>
    <dc:format>image/svg+xml</dc:format>
    <dc:creator>
     <cc:Agent>
      <dc:title>Matplotlib v3.8.4, https://matplotlib.org/</dc:title>
     </cc:Agent>
    </dc:creator>
   </cc:Work>
  </rdf:RDF>
 </metadata>
 <defs>
  <style type="text/css">*{stroke-linejoin: round; stroke-linecap: butt}</style>
 </defs>
 <g id="figure_1">
  <g id="patch_1">
   <path d="M 0 216 
L 288 216 
L 288 0 
L 0 0 
z
" style="fill: #ffffff"/>
  </g>
  <g id="axes_1">
   <g id="patch_2">
    <path d="M 36 192.24 
L 214.56 192.24 
L 214.56 25.92 
L 36 25.92 
z
" style="fill: #ffffff"/>
   </g>
   <g id="QuadContourSet_1">
    <path d="M 77.099484 131.256 
L 76.146166 125.712 
L 75.812266 120.168 
L 76.430242 114.624 
L 77.664 111.279016 
L 83.616 113.823742 
L 84.099538 114.624 
L 87.450231 120.168 
L 89.568 123.314379 
L 90.56827 125.712 
L 92.559783 131.256 
L 94.163441 136.8 
L 94.477524 142.344 
L 89.568 147.175216 
L 83.616 143.536474 
L 82.795803 142.344 
L 79.566584 136.8 
L 77.664 133.289295 
z
" clip-path="url(#p3db8824a41)" style="fill: #eae51a"/>
    <path d="M 71.66571 114.624 
L 71.712 113.611015 
L 72.358414 109.08 
L 75.485732 103.536 
L 77.664 101.776744 
L 79.620901 103.536 
L 83.616 106.600386 
L 85.12174 109.08 
L 88.801784 114.624 
L 89.568 115.731753 
L 91.651112 120.168 
L 94.346298 125.712 
L 95.52 128.255293 
L 96.616999 131.256 
L 98.276682 136.8 
L 99.378813 142.344 
L 99.167461 147.888 
L 95.52 153.169949 
L 89.568 152.849626 
L 83.616 148.872325 
L 82.81824 147.888 
L 78.804387 142.344 
L 77.664 140.628957 
L 76.185043 136.8 
L 74.407929 131.256 
L 72.965064 125.712 
L 71.96031 120.168 
L 71.712 116.066052 
z
M 77.664 133.289295 
L 79.566584 136.8 
L 82.795803 142.344 
L 83.616 143.536474 
L 89.568 147.175216 
L 94.477524 142.344 
L 94.163441 136.8 
L 92.559783 131.256 
L 90.56827 125.712 
L 89.568 123.314379 
L 87.450231 120.168 
L 84.099538 114.624 
L 83.616 113.823742 
L 77.664 111.279016 
L 76.430242 114.624 
L 75.812266 120.168 
L 76.146166 125.712 
L 77.099484 131.256 
z
" clip-path="url(#p3db8824a41)" style="fill: #c0df25"/>
    <path d="M 70.70265 125.712 
L 69.991747 120.168 
L 69.623125 114.624 
L 69.658209 109.08 
L 70.188506 103.536 
L 71.352893 97.992 
L 71.712 96.88052 
L 77.664 94.874193 
L 80.633104 97.992 
L 83.616 100.699133 
L 85.317757 103.536 
L 88.978259 109.08 
L 89.568 109.936378 
L 91.894208 114.624 
L 94.843338 120.168 
L 95.52 121.471854 
L 97.321746 125.712 
L 99.609856 131.256 
L 101.472 136.071714 
L 101.720652 136.8 
L 103.049505 142.344 
L 103.638814 147.888 
L 102.700486 153.432 
L 101.472 155.297862 
L 95.52 158.045061 
L 89.568 156.638029 
L 84.515295 153.432 
L 83.616 152.807519 
L 79.62891 147.888 
L 77.664 145.320615 
L 76.217529 142.344 
L 73.866446 136.8 
L 71.716374 131.256 
L 71.712 131.241173 
z
M 71.712 116.066052 
L 71.96031 120.168 
L 72.965064 125.712 
L 74.407929 131.256 
L 76.185043 136.8 
L 77.664 140.628957 
L 78.804387 142.344 
L 82.81824 147.888 
L 83.616 148.872325 
L 89.568 152.849626 
L 95.52 153.169949 
L 99.167461 147.888 
L 99.378813 142.344 
L 98.276682 136.8 
L 96.616999 131.256 
L 95.52 128.255293 
L 94.346298 125.712 
L 91.651112 120.168 
L 89.568 115.731753 
L 88.801784 114.624 
L 85.12174 109.08 
L 83.616 106.600386 
L 79.620901 103.536 
L 77.664 101.776744 
L 75.485732 103.536 
L 72.358414 109.08 
L 71.712 113.611015 
L 71.66571 114.624 
z
" clip-path="url(#p3db8824a41)" style="fill: #95d840"/>
    <path d="M 71.61388 136.8 
L 70.198514 131.256 
L 69.037305 125.712 
L 68.152959 120.168 
L 67.580541 114.624 
L 67.372748 109.08 
L 67.608658 103.536 
L 68.408817 97.992 
L 69.96261 92.448 
L 71.712 88.548853 
L 77.664 88.975265 
L 80.624162 92.448 
L 83.616 95.509209 
L 85.074209 97.992 
L 88.606295 103.536 
L 89.568 104.958788 
L 91.661981 109.08 
L 94.673254 114.624 
L 95.52 116.16987 
L 97.356767 120.168 
L 99.935492 125.712 
L 101.472 129.086971 
L 102.357347 131.256 
L 104.3632 136.8 
L 106.098921 142.344 
L 107.273611 147.888 
L 107.249301 153.432 
L 104.359693 158.976 
L 101.472 160.877154 
L 95.52 161.536289 
L 89.568 159.882807 
L 88.127472 158.976 
L 83.616 155.840177 
L 81.399356 153.432 
L 77.664 149.069374 
L 76.977556 147.888 
L 74.192483 142.344 
L 71.712 137.102925 
z
M 71.712 131.241173 
L 71.716374 131.256 
L 73.866446 136.8 
L 76.217529 142.344 
L 77.664 145.320615 
L 79.62891 147.888 
L 83.616 152.807519 
L 84.515295 153.432 
L 89.568 156.638029 
L 95.52 158.045061 
L 101.472 155.297862 
L 102.700486 153.432 
L 103.638814 147.888 
L 103.049505 142.344 
L 101.720652 136.8 
L 101.472 136.071714 
L 99.609856 131.256 
L 97.321746 125.712 
L 95.52 121.471854 
L 94.843338 120.168 
L 91.894208 114.624 
L 89.568 109.936378 
L 88.978259 109.08 
L 85.317757 103.536 
L 83.616 100.699133 
L 80.633104 97.992 
L 77.664 94.874193 
L 71.712 96.88052 
L 71.352893 97.992 
L 70.188506 103.536 
L 69.658209 109.08 
L 69.623125 114.624 
L 69.991747 120.168 
L 70.70265 125.712 
z
" clip-path="url(#p3db8824a41)" style="fill: #6ece58"/>
    <path d="M 65.627494 114.624 
L 65.376097 109.08 
L 65.363727 103.536 
L 65.609368 97.992 
L 65.76 96.327544 
L 66.556256 92.448 
L 68.56884 86.904 
L 71.712 81.710339 
L 77.664 83.668209 
L 80.190391 86.904 
L 83.616 90.757086 
L 84.583484 92.448 
L 87.954997 97.992 
L 89.568 100.441105 
L 91.149295 103.536 
L 94.133982 109.08 
L 95.52 111.554885 
L 96.98826 114.624 
L 99.687607 120.168 
L 101.472 123.771844 
L 102.343369 125.712 
L 104.700749 131.256 
L 107.005747 136.8 
L 107.424 138.012428 
L 108.827968 142.344 
L 110.144102 147.888 
L 110.632156 153.432 
L 109.483999 158.976 
L 107.424 161.76203 
L 102.49888 164.52 
L 101.472 164.804564 
L 95.52 164.662655 
L 95.084055 164.52 
L 89.568 162.475152 
L 84.009345 158.976 
L 83.616 158.702595 
L 78.7646 153.432 
L 77.664 152.146579 
L 75.189529 147.888 
L 72.167436 142.344 
L 71.712 141.381697 
L 70.227943 136.8 
L 68.682564 131.256 
L 67.371961 125.712 
L 66.314171 120.168 
L 65.76 116.093629 
z
M 71.712 137.102925 
L 74.192483 142.344 
L 76.977556 147.888 
L 77.664 149.069374 
L 81.399356 153.432 
L 83.616 155.840177 
L 88.127472 158.976 
L 89.568 159.882807 
L 95.52 161.536289 
L 101.472 160.877154 
L 104.359693 158.976 
L 107.249301 153.432 
L 107.273611 147.888 
L 106.098921 142.344 
L 104.3632 136.8 
L 102.357347 131.256 
L 101.472 129.086971 
L 99.935492 125.712 
L 97.356767 120.168 
L 95.52 116.16987 
L 94.673254 114.624 
L 91.661981 109.08 
L 89.568 104.958788 
L 88.606295 103.536 
L 85.074209 97.992 
L 83.616 95.509209 
L 80.624162 92.448 
L 77.664 88.975265 
L 71.712 88.548853 
L 69.96261 92.448 
L 68.408817 97.992 
L 67.608658 103.536 
L 67.372748 109.08 
L 67.580541 114.624 
L 68.152959 120.168 
L 69.037305 125.712 
L 70.198514 131.256 
L 71.61388 136.8 
z
" clip-path="url(#p3db8824a41)" style="fill: #4cc26c"/>
    <path d="M 65.725713 125.712 
L 64.962864 120.168 
L 64.408575 114.624 
L 64.071833 109.08 
L 63.965564 103.536 
L 64.107391 97.992 
L 64.520703 92.448 
L 65.23614 86.904 
L 65.76 84.047015 
L 67.125996 81.36 
L 71.59778 75.816 
L 71.712 75.712104 
L 71.889095 75.816 
L 77.664 78.746566 
L 79.558783 81.36 
L 83.616 86.301392 
L 83.950901 86.904 
L 87.157336 92.448 
L 89.568 96.219752 
L 90.468497 97.992 
L 93.384156 103.536 
L 95.52 107.334094 
L 96.370891 109.08 
L 99.099921 114.624 
L 101.472 119.21073 
L 101.925198 120.168 
L 104.457606 125.712 
L 107.044152 131.256 
L 107.424 132.151225 
L 109.290804 136.8 
L 111.310827 142.344 
L 112.981606 147.888 
L 113.376 150.32216 
L 113.867541 153.432 
L 113.532138 158.976 
L 113.376 159.381924 
L 110.108624 164.52 
L 107.424 166.207274 
L 101.472 167.541301 
L 95.52 166.950978 
L 89.568 164.93252 
L 88.891975 164.52 
L 83.616 160.94033 
L 81.600286 158.976 
L 77.664 154.806523 
L 76.736613 153.432 
L 73.401501 147.888 
L 71.712 144.842347 
L 70.726249 142.344 
L 68.842007 136.8 
L 67.166614 131.256 
L 65.76 125.897134 
z
M 65.76 116.093629 
L 66.314171 120.168 
L 67.371961 125.712 
L 68.682564 131.256 
L 70.227943 136.8 
L 71.712 141.381697 
L 72.167436 142.344 
L 75.189529 147.888 
L 77.664 152.146579 
L 78.7646 153.432 
L 83.616 158.702595 
L 84.009345 158.976 
L 89.568 162.475152 
L 95.084055 164.52 
L 95.52 164.662655 
L 101.472 164.804564 
L 102.49888 164.52 
L 107.424 161.76203 
L 109.483999 158.976 
L 110.632156 153.432 
L 110.144102 147.888 
L 108.827968 142.344 
L 107.424 138.012428 
L 107.005747 136.8 
L 104.700749 131.256 
L 102.343369 125.712 
L 101.472 123.771844 
L 99.687607 120.168 
L 96.98826 114.624 
L 95.52 111.554885 
L 94.133982 109.08 
L 91.149295 103.536 
L 89.568 100.441105 
L 87.954997 97.992 
L 84.583484 92.448 
L 83.616 90.757086 
L 80.190391 86.904 
L 77.664 83.668209 
L 71.712 81.710339 
L 68.56884 86.904 
L 66.556256 92.448 
L 65.76 96.327544 
L 65.609368 97.992 
L 65.363727 103.536 
L 65.376097 109.08 
L 65.627494 114.624 
z
" clip-path="url(#p3db8824a41)" style="fill: #31b57b"/>
    <path d="M 65.687593 131.256 
L 64.656103 125.712 
L 63.821852 120.168 
L 63.189655 114.624 
L 62.76757 109.08 
L 62.5674 103.536 
L 62.605413 97.992 
L 62.903337 92.448 
L 63.489755 86.904 
L 64.402058 81.36 
L 65.689214 75.816 
L 65.76 75.56881 
L 71.626178 70.272 
L 71.712 70.216455 
L 71.786373 70.272 
L 77.664 74.094951 
L 78.833121 75.816 
L 83.007695 81.36 
L 83.616 82.100871 
L 86.285355 86.904 
L 89.568 92.208815 
L 89.68799 92.448 
L 92.514696 97.992 
L 95.52 103.373655 
L 95.599495 103.536 
L 98.307759 109.08 
L 101.211582 114.624 
L 101.472 115.127552 
L 103.858288 120.168 
L 106.571843 125.712 
L 107.424 127.512653 
L 109.110133 131.256 
L 111.508638 136.8 
L 113.376 141.420765 
L 113.742195 142.344 
L 115.468637 147.888 
L 116.635612 153.432 
L 116.771459 158.976 
L 114.913193 164.52 
L 113.376 166.200365 
L 107.424 169.573103 
L 103.549611 170.064 
L 101.472 170.218392 
L 100.410673 170.064 
L 95.52 169.2393 
L 89.568 166.885757 
L 85.691069 164.52 
L 83.616 163.112097 
L 79.371708 158.976 
L 77.664 157.167125 
L 75.143922 153.432 
L 71.712 148.026238 
L 71.647488 147.888 
L 69.454475 142.344 
L 67.45607 136.8 
L 65.76 131.564555 
z
M 65.76 125.897134 
L 67.166614 131.256 
L 68.842007 136.8 
L 70.726249 142.344 
L 71.712 144.842347 
L 73.401501 147.888 
L 76.736613 153.432 
L 77.664 154.806523 
L 81.600286 158.976 
L 83.616 160.94033 
L 88.891975 164.52 
L 89.568 164.93252 
L 95.52 166.950978 
L 101.472 167.541301 
L 107.424 166.207274 
L 110.108624 164.52 
L 113.376 159.381924 
L 113.532138 158.976 
L 113.867541 153.432 
L 113.376 150.32216 
L 112.981606 147.888 
L 111.310827 142.344 
L 109.290804 136.8 
L 107.424 132.151225 
L 107.044152 131.256 
L 104.457606 125.712 
L 101.925198 120.168 
L 101.472 119.21073 
L 99.099921 114.624 
L 96.370891 109.08 
L 95.52 107.334094 
L 93.384156 103.536 
L 90.468497 97.992 
L 89.568 96.219752 
L 87.157336 92.448 
L 83.950901 86.904 
L 83.616 86.301392 
L 79.558783 81.36 
L 77.664 78.746566 
L 71.889095 75.816 
L 71.712 75.712104 
L 71.59778 75.816 
L 67.125996 81.36 
L 65.76 84.047015 
L 65.23614 86.904 
L 64.520703 92.448 
L 64.107391 97.992 
L 63.965564 103.536 
L 64.071833 109.08 
L 64.408575 114.624 
L 64.962864 120.168 
L 65.725713 125.712 
z
" clip-path="url(#p3db8824a41)" style="fill: #21a685"/>
    <path d="M 64.683661 131.256 
L 63.586493 125.712 
L 62.68084 120.168 
L 61.970735 114.624 
L 61.463306 109.08 
L 61.169237 103.536 
L 61.103436 97.992 
L 61.285972 92.448 
L 61.743371 86.904 
L 62.510452 81.36 
L 63.632918 75.816 
L 65.171102 70.272 
L 65.76 68.559659 
L 71.712 65.069508 
L 77.664 69.643458 
L 78.066572 70.272 
L 81.878121 75.816 
L 83.616 78.085247 
L 85.380625 81.36 
L 88.619809 86.904 
L 89.568 88.436294 
L 91.58052 92.448 
L 94.560895 97.992 
L 95.52 99.709487 
L 97.393719 103.536 
L 100.244627 109.08 
L 101.472 111.406042 
L 103.038018 114.624 
L 105.791377 120.168 
L 107.424 123.416175 
L 108.527337 125.712 
L 111.122448 131.256 
L 113.376 136.114434 
L 113.688772 136.8 
L 115.918974 142.344 
L 117.89909 147.888 
L 119.328 153.185634 
L 119.395019 153.432 
L 119.916899 158.976 
L 119.328 162.511351 
L 118.855842 164.52 
L 113.904487 170.064 
L 113.376 170.346324 
L 107.424 172.027767 
L 101.472 172.192479 
L 95.52 171.163644 
L 92.514778 170.064 
L 89.568 168.838995 
L 83.616 165.115814 
L 82.941251 164.52 
L 77.664 159.410152 
L 77.330013 158.976 
L 73.55123 153.432 
L 71.712 150.534953 
L 70.47674 147.888 
L 68.1827 142.344 
L 66.070134 136.8 
L 65.76 135.842676 
z
M 65.76 131.564555 
L 67.45607 136.8 
L 69.454475 142.344 
L 71.647488 147.888 
L 71.712 148.026238 
L 75.143922 153.432 
L 77.664 157.167125 
L 79.371708 158.976 
L 83.616 163.112097 
L 85.691069 164.52 
L 89.568 166.885757 
L 95.52 169.2393 
L 100.410673 170.064 
L 101.472 170.218392 
L 103.549611 170.064 
L 107.424 169.573103 
L 113.376 166.200365 
L 114.913193 164.52 
L 116.771459 158.976 
L 116.635612 153.432 
L 115.468637 147.888 
L 113.742195 142.344 
L 113.376 141.420765 
L 111.508638 136.8 
L 109.110133 131.256 
L 107.424 127.512653 
L 106.571843 125.712 
L 103.858288 120.168 
L 101.472 115.127552 
L 101.211582 114.624 
L 98.307759 109.08 
L 95.599495 103.536 
L 95.52 103.373655 
L 92.514696 97.992 
L 89.68799 92.448 
L 89.568 92.208815 
L 86.285355 86.904 
L 83.616 82.100871 
L 83.007695 81.36 
L 78.833121 75.816 
L 77.664 74.094951 
L 71.786373 70.272 
L 71.712 70.216455 
L 71.626178 70.272 
L 65.76 75.56881 
L 65.689214 75.816 
L 64.402058 81.36 
L 63.489755 86.904 
L 62.903337 92.448 
L 62.605413 97.992 
L 62.5674 103.536 
L 62.76757 109.08 
L 63.189655 114.624 
L 63.821852 120.168 
L 64.656103 125.712 
L 65.687593 131.256 
z
" clip-path="url(#p3db8824a41)" style="fill: #1f978b"/>
    <path d="M 59.783477 103.536 
L 59.674433 97.992 
L 59.720105 92.448 
L 59.808 89.990125 
L 59.996986 86.904 
L 60.618845 81.36 
L 61.576622 75.816 
L 62.926445 70.272 
L 64.743275 64.728 
L 65.76 62.230967 
L 71.712 60.174179 
L 76.83682 64.728 
L 77.664 65.371736 
L 80.80255 70.272 
L 83.616 74.183256 
L 84.468177 75.816 
L 87.523137 81.36 
L 89.568 84.777612 
L 90.616073 86.904 
L 93.47305 92.448 
L 95.52 96.165821 
L 96.410209 97.992 
L 99.187942 103.536 
L 101.472 107.841176 
L 102.0819 109.08 
L 104.824331 114.624 
L 107.424 119.633021 
L 107.690477 120.168 
L 110.375646 125.712 
L 113.134763 131.256 
L 113.376 131.776084 
L 115.668031 136.8 
L 118.095754 142.344 
L 119.328 145.552433 
L 120.232201 147.888 
L 121.846245 153.432 
L 122.710814 158.976 
L 122.209411 164.52 
L 119.328 169.696338 
L 119.008867 170.064 
L 113.376 173.073143 
L 107.424 174.326849 
L 101.472 174.166566 
L 95.52 172.882899 
L 89.568 170.628664 
L 88.600597 170.064 
L 83.616 166.809792 
L 81.022848 164.52 
L 77.664 161.2677 
L 75.901025 158.976 
L 71.958538 153.432 
L 71.712 153.043667 
L 69.305991 147.888 
L 66.910925 142.344 
L 65.76 139.359718 
L 65.02777 136.8 
L 63.679729 131.256 
L 62.516883 125.712 
L 61.539827 120.168 
L 60.751816 114.624 
L 60.159043 109.08 
L 59.808 104.031402 
z
M 65.76 135.842676 
L 66.070134 136.8 
L 68.1827 142.344 
L 70.47674 147.888 
L 71.712 150.534953 
L 73.55123 153.432 
L 77.330013 158.976 
L 77.664 159.410152 
L 82.941251 164.52 
L 83.616 165.115814 
L 89.568 168.838995 
L 92.514778 170.064 
L 95.52 171.163644 
L 101.472 172.192479 
L 107.424 172.027767 
L 113.376 170.346324 
L 113.904487 170.064 
L 118.855842 164.52 
L 119.328 162.511351 
L 119.916899 158.976 
L 119.395019 153.432 
L 119.328 153.185634 
L 117.89909 147.888 
L 115.918974 142.344 
L 113.688772 136.8 
L 113.376 136.114434 
L 111.122448 131.256 
L 108.527337 125.712 
L 107.424 123.416175 
L 105.791377 120.168 
L 103.038018 114.624 
L 101.472 111.406042 
L 100.244627 109.08 
L 97.393719 103.536 
L 95.52 99.709487 
L 94.560895 97.992 
L 91.58052 92.448 
L 89.568 88.436294 
L 88.619809 86.904 
L 85.380625 81.36 
L 83.616 78.085247 
L 81.878121 75.816 
L 78.066572 70.272 
L 77.664 69.643458 
L 71.712 65.069508 
L 65.76 68.559659 
L 65.171102 70.272 
L 63.632918 75.816 
L 62.510452 81.36 
L 61.743371 86.904 
L 61.285972 92.448 
L 61.103436 97.992 
L 61.169237 103.536 
L 61.463306 109.08 
L 61.970735 114.624 
L 62.68084 120.168 
L 63.586493 125.712 
L 64.683661 131.256 
z
" clip-path="url(#p3db8824a41)" style="fill: #23888e"/>
    <path d="M 59.568528 114.624 
L 59.096599 109.08 
L 58.854969 103.536 
L 58.703129 97.992 
L 58.700279 92.448 
L 58.852668 86.904 
L 59.164735 81.36 
L 59.642361 75.816 
L 59.808 74.35032 
L 60.681788 70.272 
L 62.281077 64.728 
L 64.412389 59.184 
L 65.76 56.364035 
L 71.712 55.463956 
L 75.368165 59.184 
L 77.664 61.239576 
L 79.780394 64.728 
L 83.538529 70.272 
L 83.616 70.379701 
L 86.453365 75.816 
L 89.568 81.203495 
L 89.643536 81.36 
L 92.381018 86.904 
L 95.36558 92.448 
L 95.52 92.72847 
L 98.085819 97.992 
L 100.982166 103.536 
L 101.472 104.459279 
L 103.74688 109.08 
L 106.610644 114.624 
L 107.424 116.191168 
L 109.404888 120.168 
L 112.223956 125.712 
L 113.376 128.010469 
L 114.978822 131.256 
L 117.647291 136.8 
L 119.328 140.469116 
L 120.193411 142.344 
L 122.426433 147.888 
L 124.297472 153.432 
L 125.28 158.049417 
L 125.48359 158.976 
L 125.459519 164.52 
L 125.28 165.077992 
L 123.069937 170.064 
L 119.328 173.170748 
L 113.895957 175.608 
L 113.376 175.741525 
L 107.424 176.347486 
L 101.472 176.008455 
L 99.593374 175.608 
L 95.52 174.602153 
L 89.568 172.143184 
L 86.005865 170.064 
L 83.616 168.50377 
L 79.104445 164.52 
L 77.664 163.125248 
L 74.472037 158.976 
L 71.712 155.11957 
L 70.798556 153.432 
L 68.135243 147.888 
L 65.76 142.592047 
L 65.65677 142.344 
L 64.084451 136.8 
L 62.675797 131.256 
L 61.447273 125.712 
L 60.398815 120.168 
L 59.808 116.306935 
z
M 59.808 104.031402 
L 60.159043 109.08 
L 60.751816 114.624 
L 61.539827 120.168 
L 62.516883 125.712 
L 63.679729 131.256 
L 65.02777 136.8 
L 65.76 139.359718 
L 66.910925 142.344 
L 69.305991 147.888 
L 71.712 153.043667 
L 71.958538 153.432 
L 75.901025 158.976 
L 77.664 161.2677 
L 81.022848 164.52 
L 83.616 166.809792 
L 88.600597 170.064 
L 89.568 170.628664 
L 95.52 172.882899 
L 101.472 174.166566 
L 107.424 174.326849 
L 113.376 173.073143 
L 119.008867 170.064 
L 119.328 169.696338 
L 122.209411 164.52 
L 122.710814 158.976 
L 121.846245 153.432 
L 120.232201 147.888 
L 119.328 145.552433 
L 118.095754 142.344 
L 115.668031 136.8 
L 113.376 131.776084 
L 113.134763 131.256 
L 110.375646 125.712 
L 107.690477 120.168 
L 107.424 119.633021 
L 104.824331 114.624 
L 102.0819 109.08 
L 101.472 107.841176 
L 99.187942 103.536 
L 96.410209 97.992 
L 95.52 96.165821 
L 93.47305 92.448 
L 90.616073 86.904 
L 89.568 84.777612 
L 87.523137 81.36 
L 84.468177 75.816 
L 83.616 74.183256 
L 80.80255 70.272 
L 77.664 65.371736 
L 76.83682 64.728 
L 71.712 60.174179 
L 65.76 62.230967 
L 64.743275 64.728 
L 62.926445 70.272 
L 61.576622 75.816 
L 60.618845 81.36 
L 59.996986 86.904 
L 59.808 89.990125 
L 59.720105 92.448 
L 59.674433 97.992 
L 59.783477 103.536 
z
" clip-path="url(#p3db8824a41)" style="fill: #29798e"/>
    <path d="M 59.21819 120.168 
L 58.507484 114.624 
L 58.123211 109.08 
L 57.926462 103.536 
L 57.731825 97.992 
L 57.680453 92.448 
L 57.781409 86.904 
L 58.038859 81.36 
L 58.458373 75.816 
L 59.047071 70.272 
L 59.808 64.767821 
L 59.818879 64.728 
L 61.696106 59.184 
L 64.188899 53.64 
L 65.76 50.826365 
L 71.712 50.897114 
L 74.124061 53.64 
L 77.664 57.1968 
L 78.810092 59.184 
L 82.272313 64.728 
L 83.616 66.706569 
L 85.417393 70.272 
L 88.438552 75.816 
L 89.568 77.769646 
L 91.300859 81.36 
L 94.145963 86.904 
L 95.52 89.447483 
L 96.96688 92.448 
L 99.761429 97.992 
L 101.472 101.230063 
L 102.608298 103.536 
L 105.411861 109.08 
L 107.424 112.901604 
L 108.297131 114.624 
L 111.119299 120.168 
L 113.376 124.478435 
L 114.01328 125.712 
L 116.799964 131.256 
L 119.328 136.256625 
L 119.604745 136.8 
L 122.187845 142.344 
L 124.620664 147.888 
L 125.28 149.739705 
L 126.633374 153.432 
L 128.014697 158.976 
L 128.356638 164.52 
L 126.803997 170.064 
L 125.28 171.924367 
L 120.699274 175.608 
L 119.328 176.18418 
L 113.376 177.63824 
L 107.424 178.017677 
L 101.472 177.492602 
L 95.52 176.159433 
L 94.06947 175.608 
L 89.568 173.657704 
L 83.616 170.17034 
L 83.483834 170.064 
L 77.664 164.89072 
L 77.342637 164.52 
L 73.043049 158.976 
L 71.712 157.116207 
L 69.717822 153.432 
L 66.964494 147.888 
L 65.76 145.202403 
L 64.570421 142.344 
L 63.141133 136.8 
L 61.671865 131.256 
L 60.377663 125.712 
L 59.808 122.80236 
z
M 59.808 116.306935 
L 60.398815 120.168 
L 61.447273 125.712 
L 62.675797 131.256 
L 64.084451 136.8 
L 65.65677 142.344 
L 65.76 142.592047 
L 68.135243 147.888 
L 70.798556 153.432 
L 71.712 155.11957 
L 74.472037 158.976 
L 77.664 163.125248 
L 79.104445 164.52 
L 83.616 168.50377 
L 86.005865 170.064 
L 89.568 172.143184 
L 95.52 174.602153 
L 99.593374 175.608 
L 101.472 176.008455 
L 107.424 176.347486 
L 113.376 175.741525 
L 113.895957 175.608 
L 119.328 173.170748 
L 123.069937 170.064 
L 125.28 165.077992 
L 125.459519 164.52 
L 125.48359 158.976 
L 125.28 158.049417 
L 124.297472 153.432 
L 122.426433 147.888 
L 120.193411 142.344 
L 119.328 140.469116 
L 117.647291 136.8 
L 114.978822 131.256 
L 113.376 128.010469 
L 112.223956 125.712 
L 109.404888 120.168 
L 107.424 116.191168 
L 106.610644 114.624 
L 103.74688 109.08 
L 101.472 104.459279 
L 100.982166 103.536 
L 98.085819 97.992 
L 95.52 92.72847 
L 95.36558 92.448 
L 92.381018 86.904 
L 89.643536 81.36 
L 89.568 81.203495 
L 86.453365 75.816 
L 83.616 70.379701 
L 83.538529 70.272 
L 79.780394 64.728 
L 77.664 61.239576 
L 75.368165 59.184 
L 71.712 55.463956 
L 65.76 56.364035 
L 64.412389 59.184 
L 62.281077 64.728 
L 60.681788 70.272 
L 59.808 74.35032 
L 59.642361 75.816 
L 59.164735 81.36 
L 58.852668 86.904 
L 58.700279 92.448 
L 58.703129 97.992 
L 58.854969 103.536 
L 59.096599 109.08 
L 59.568528 114.624 
z
" clip-path="url(#p3db8824a41)" style="fill: #306a8e"/>
    <path d="M 59.085636 125.712 
L 57.995028 120.168 
L 57.44644 114.624 
L 57.149823 109.08 
L 56.997954 103.536 
L 56.76052 97.992 
L 56.660627 92.448 
L 56.71015 86.904 
L 56.912982 81.36 
L 57.274385 75.816 
L 57.801128 70.272 
L 58.454932 64.728 
L 59.316041 59.184 
L 59.808 56.951002 
L 61.171924 53.64 
L 64.088842 48.096 
L 65.76 45.532699 
L 71.712 46.444589 
L 73.032999 48.096 
L 77.664 53.229601 
L 77.88965 53.64 
L 81.104375 59.184 
L 83.616 63.085729 
L 84.41898 64.728 
L 87.27128 70.272 
L 89.568 74.384916 
L 90.242749 75.816 
L 92.958182 81.36 
L 95.52 86.209182 
L 95.885644 86.904 
L 98.542307 92.448 
L 101.437038 97.992 
L 101.472 98.058182 
L 104.171307 103.536 
L 107.076841 109.08 
L 107.424 109.739349 
L 109.900168 114.624 
L 112.83371 120.168 
L 113.376 121.203806 
L 115.705006 125.712 
L 118.621105 131.256 
L 119.328 132.654285 
L 121.439441 136.8 
L 124.182278 142.344 
L 125.28 144.785284 
L 126.712807 147.888 
L 128.892127 153.432 
L 130.545803 158.976 
L 131.232 164.370567 
L 131.252025 164.52 
L 131.232 164.656838 
L 130.218688 170.064 
L 125.768592 175.608 
L 125.28 175.90291 
L 119.328 178.362176 
L 113.376 179.534955 
L 107.424 179.687868 
L 101.472 178.976748 
L 95.52 177.488342 
L 90.573812 175.608 
L 89.568 175.172225 
L 83.616 171.517184 
L 81.809891 170.064 
L 77.664 166.378697 
L 76.052766 164.52 
L 71.712 159.086655 
L 71.593841 158.976 
L 68.637087 153.432 
L 65.793745 147.888 
L 65.76 147.812759 
L 63.484071 142.344 
L 62.197814 136.8 
L 60.667933 131.256 
L 59.808 127.66923 
z
M 59.808 122.80236 
L 60.377663 125.712 
L 61.671865 131.256 
L 63.141133 136.8 
L 64.570421 142.344 
L 65.76 145.202403 
L 66.964494 147.888 
L 69.717822 153.432 
L 71.712 157.116207 
L 73.043049 158.976 
L 77.342637 164.52 
L 77.664 164.89072 
L 83.483834 170.064 
L 83.616 170.17034 
L 89.568 173.657704 
L 94.06947 175.608 
L 95.52 176.159433 
L 101.472 177.492602 
L 107.424 178.017677 
L 113.376 177.63824 
L 119.328 176.18418 
L 120.699274 175.608 
L 125.28 171.924367 
L 126.803997 170.064 
L 128.356638 164.52 
L 128.014697 158.976 
L 126.633374 153.432 
L 125.28 149.739705 
L 124.620664 147.888 
L 122.187845 142.344 
L 119.604745 136.8 
L 119.328 136.256625 
L 116.799964 131.256 
L 114.01328 125.712 
L 113.376 124.478435 
L 111.119299 120.168 
L 108.297131 114.624 
L 107.424 112.901604 
L 105.411861 109.08 
L 102.608298 103.536 
L 101.472 101.230063 
L 99.761429 97.992 
L 96.96688 92.448 
L 95.52 89.447483 
L 94.145963 86.904 
L 91.300859 81.36 
L 89.568 77.769646 
L 88.438552 75.816 
L 85.417393 70.272 
L 83.616 66.706569 
L 82.272313 64.728 
L 78.810092 59.184 
L 77.664 57.1968 
L 74.124061 53.64 
L 71.712 50.897114 
L 65.76 50.826365 
L 64.188899 53.64 
L 61.696106 59.184 
L 59.818879 64.728 
L 59.808 64.767821 
L 59.047071 70.272 
L 58.458373 75.816 
L 58.038859 81.36 
L 57.781409 86.904 
L 57.680453 92.448 
L 57.731825 97.992 
L 57.926462 103.536 
L 58.123211 109.08 
L 58.507484 114.624 
L 59.21819 120.168 
z
" clip-path="url(#p3db8824a41)" style="fill: #375a8c"/>
    <path d="M 59.4702 131.256 
L 57.540178 125.712 
L 56.771865 120.168 
L 56.385396 114.624 
L 56.176435 109.08 
L 56.069446 103.536 
L 55.789216 97.992 
L 55.640801 92.448 
L 55.638891 86.904 
L 55.787105 81.36 
L 56.090397 75.816 
L 56.555185 70.272 
L 57.095859 64.728 
L 57.702493 59.184 
L 58.695643 53.64 
L 59.808 49.912976 
L 60.71043 48.096 
L 64.136826 42.552 
L 65.76 40.425434 
L 71.712 42.085334 
L 72.055609 42.552 
L 76.529241 48.096 
L 77.664 49.353914 
L 80.02062 53.64 
L 83.398657 59.184 
L 83.616 59.521636 
L 86.161627 64.728 
L 89.125167 70.272 
L 89.568 71.065015 
L 91.808067 75.816 
L 94.615505 81.36 
L 95.52 83.072088 
L 97.53652 86.904 
L 100.117734 92.448 
L 101.472 95.039823 
L 103.204915 97.992 
L 105.734316 103.536 
L 107.424 106.736636 
L 108.907599 109.08 
L 111.503205 114.624 
L 113.376 118.121332 
L 114.702561 120.168 
L 117.396732 125.712 
L 119.328 129.32149 
L 120.543627 131.256 
L 123.274138 136.8 
L 125.28 140.728457 
L 126.224443 142.344 
L 128.761095 147.888 
L 131.150881 153.432 
L 131.232 153.692331 
L 132.956994 158.976 
L 133.918514 164.52 
L 133.394431 170.064 
L 131.232 173.948914 
L 129.970152 175.608 
L 125.28 178.438929 
L 119.328 180.540172 
L 115.424781 181.152 
L 113.376 181.474939 
L 107.424 181.424804 
L 106.17734 181.152 
L 101.472 180.460894 
L 95.52 178.817251 
L 89.568 176.883399 
L 88.02617 175.608 
L 83.616 172.864027 
L 80.135948 170.064 
L 77.664 167.866673 
L 74.762895 164.52 
L 71.712 160.701189 
L 69.869829 158.976 
L 67.556353 153.432 
L 65.76 149.932631 
L 64.037093 147.888 
L 62.397721 142.344 
L 61.254495 136.8 
L 59.808 131.730226 
z
M 59.808 127.66923 
L 60.667933 131.256 
L 62.197814 136.8 
L 63.484071 142.344 
L 65.76 147.812759 
L 65.793745 147.888 
L 68.637087 153.432 
L 71.593841 158.976 
L 71.712 159.086655 
L 76.052766 164.52 
L 77.664 166.378697 
L 81.809891 170.064 
L 83.616 171.517184 
L 89.568 175.172225 
L 90.573812 175.608 
L 95.52 177.488342 
L 101.472 178.976748 
L 107.424 179.687868 
L 113.376 179.534955 
L 119.328 178.362176 
L 125.28 175.90291 
L 125.768592 175.608 
L 130.218688 170.064 
L 131.232 164.656838 
L 131.252025 164.52 
L 131.232 164.370567 
L 130.545803 158.976 
L 128.892127 153.432 
L 126.712807 147.888 
L 125.28 144.785284 
L 124.182278 142.344 
L 121.439441 136.8 
L 119.328 132.654285 
L 118.621105 131.256 
L 115.705006 125.712 
L 113.376 121.203806 
L 112.83371 120.168 
L 109.900168 114.624 
L 107.424 109.739349 
L 107.076841 109.08 
L 104.171307 103.536 
L 101.472 98.058182 
L 101.437038 97.992 
L 98.542307 92.448 
L 95.885644 86.904 
L 95.52 86.209182 
L 92.958182 81.36 
L 90.242749 75.816 
L 89.568 74.384916 
L 87.27128 70.272 
L 84.41898 64.728 
L 83.616 63.085729 
L 81.104375 59.184 
L 77.88965 53.64 
L 77.664 53.229601 
L 73.032999 48.096 
L 71.712 46.444589 
L 65.76 45.532699 
L 64.088842 48.096 
L 61.171924 53.64 
L 59.808 56.951002 
L 59.316041 59.184 
L 58.454932 64.728 
L 57.801128 70.272 
L 57.274385 75.816 
L 56.912982 81.36 
L 56.71015 86.904 
L 56.660627 92.448 
L 56.76052 97.992 
L 56.997954 103.536 
L 57.149823 109.08 
L 57.44644 114.624 
L 57.995028 120.168 
L 59.085636 125.712 
z
" clip-path="url(#p3db8824a41)" style="fill: #3f4889"/>
    <path d="M 57.115126 131.256 
L 55.99472 125.712 
L 55.548703 120.168 
L 55.324352 114.624 
L 55.203047 109.08 
L 55.140938 103.536 
L 54.817911 97.992 
L 54.620975 92.448 
L 54.567632 86.904 
L 54.661229 81.36 
L 54.906409 75.816 
L 55.309242 70.272 
L 55.736786 64.728 
L 56.088946 59.184 
L 56.665484 53.64 
L 57.747244 48.096 
L 59.808 43.402901 
L 60.315739 42.552 
L 64.371324 37.008 
L 65.76 35.464041 
L 69.481328 37.008 
L 71.712 37.819482 
L 75.196575 42.552 
L 77.664 45.53295 
L 79.616202 48.096 
L 82.15159 53.64 
L 83.616 56.032418 
L 85.969787 59.184 
L 87.904273 64.728 
L 89.568 67.812734 
L 91.680004 70.272 
L 93.373385 75.816 
L 95.52 79.980551 
L 96.990884 81.36 
L 99.187395 86.904 
L 101.472 91.937405 
L 102.020171 92.448 
L 104.974759 97.992 
L 107.297325 103.536 
L 107.424 103.775951 
L 110.782027 109.08 
L 113.106241 114.624 
L 113.376 115.127758 
L 116.642864 120.168 
L 119.088458 125.712 
L 119.328 126.159697 
L 122.530465 131.256 
L 125.108834 136.8 
L 125.28 137.135226 
L 128.325039 142.344 
L 130.809384 147.888 
L 131.232 148.865324 
L 133.675927 153.432 
L 135.323584 158.976 
L 136.585004 164.52 
L 136.469345 170.064 
L 133.794953 175.608 
L 131.232 177.711544 
L 125.28 180.974949 
L 124.753272 181.152 
L 119.328 183.047716 
L 113.376 183.665097 
L 107.424 183.635993 
L 101.472 182.696345 
L 99.008929 181.152 
L 95.52 180.14616 
L 89.568 178.674014 
L 85.861495 175.608 
L 83.616 174.210871 
L 78.462004 170.064 
L 77.664 169.35465 
L 73.473024 164.52 
L 71.712 162.315723 
L 68.145816 158.976 
L 66.475619 153.432 
L 65.76 152.037946 
L 62.263051 147.888 
L 61.311371 142.344 
L 60.311177 136.8 
L 59.808 135.036432 
z
M 59.808 131.730226 
L 61.254495 136.8 
L 62.397721 142.344 
L 64.037093 147.888 
L 65.76 149.932631 
L 67.556353 153.432 
L 69.869829 158.976 
L 71.712 160.701189 
L 74.762895 164.52 
L 77.664 167.866673 
L 80.135948 170.064 
L 83.616 172.864027 
L 88.02617 175.608 
L 89.568 176.883399 
L 95.52 178.817251 
L 101.472 180.460894 
L 106.17734 181.152 
L 107.424 181.424804 
L 113.376 181.474939 
L 115.424781 181.152 
L 119.328 180.540172 
L 125.28 178.438929 
L 129.970152 175.608 
L 131.232 173.948914 
L 133.394431 170.064 
L 133.918514 164.52 
L 132.956994 158.976 
L 131.232 153.692331 
L 131.150881 153.432 
L 128.761095 147.888 
L 126.224443 142.344 
L 125.28 140.728457 
L 123.274138 136.8 
L 120.543627 131.256 
L 119.328 129.32149 
L 117.396732 125.712 
L 114.702561 120.168 
L 113.376 118.121332 
L 111.503205 114.624 
L 108.907599 109.08 
L 107.424 106.736636 
L 105.734316 103.536 
L 103.204915 97.992 
L 101.472 95.039823 
L 100.117734 92.448 
L 97.53652 86.904 
L 95.52 83.072088 
L 94.615505 81.36 
L 91.808067 75.816 
L 89.568 71.065015 
L 89.125167 70.272 
L 86.161627 64.728 
L 83.616 59.521636 
L 83.398657 59.184 
L 80.02062 53.64 
L 77.664 49.353914 
L 76.529241 48.096 
L 72.055609 42.552 
L 71.712 42.085334 
L 65.76 40.425434 
L 64.136826 42.552 
L 60.71043 48.096 
L 59.808 49.912976 
L 58.695643 53.64 
L 57.702493 59.184 
L 57.095859 64.728 
L 56.555185 70.272 
L 56.090397 75.816 
L 55.787105 81.36 
L 55.638891 86.904 
L 55.640801 92.448 
L 55.789216 97.992 
L 56.069446 103.536 
L 56.176435 109.08 
L 56.385396 114.624 
L 56.771865 120.168 
L 57.540178 125.712 
L 59.4702 131.256 
z
" clip-path="url(#p3db8824a41)" style="fill: #453581"/>
    <path d="M 53.70974 97.992 
L 51.50912 92.448 
L 51.079217 86.904 
L 51.320947 81.36 
L 52.504043 75.816 
L 53.856 73.575745 
L 54.063299 70.272 
L 54.377713 64.728 
L 54.475399 59.184 
L 54.635326 53.64 
L 54.935396 48.096 
L 55.6824 42.552 
L 59.808 37.268979 
L 59.995443 37.008 
L 63.87569 31.464 
L 65.76 29.708857 
L 67.64431 31.464 
L 71.712 33.246938 
L 75.74985 37.008 
L 77.664 40.565007 
L 79.797221 42.552 
L 82.506492 48.096 
L 83.616 51.150814 
L 86.288373 53.64 
L 88.569888 59.184 
L 89.568 64.142973 
L 90.196081 64.728 
L 94.45482 70.272 
L 94.938703 75.816 
L 95.52 76.943747 
L 100.228979 81.36 
L 100.838271 86.904 
L 101.472 88.300221 
L 105.925027 92.448 
L 106.744603 97.992 
L 107.424 99.625522 
L 111.622262 103.536 
L 112.656455 109.08 
L 113.376 110.830747 
L 117.44841 114.624 
L 118.583167 120.168 
L 119.328 121.881142 
L 123.440783 125.712 
L 124.517304 131.256 
L 125.28 132.905025 
L 129.461618 136.8 
L 130.425635 142.344 
L 131.232 144.151314 
L 135.24368 147.888 
L 136.210892 153.432 
L 137.184 156.992306 
L 139.31368 158.976 
L 141.165029 164.52 
L 141.151719 170.064 
L 138.154747 175.608 
L 137.184 176.512204 
L 131.232 180.718017 
L 130.432428 181.152 
L 125.28 185.07644 
L 119.328 185.683999 
L 113.376 185.855255 
L 107.424 185.847182 
L 101.472 185.586532 
L 95.52 183.30165 
L 93.21215 181.152 
L 89.568 180.464629 
L 83.69682 175.608 
L 83.616 175.557715 
L 77.664 173.26198 
L 74.230671 170.064 
L 72.183153 164.52 
L 71.712 163.930257 
L 66.421804 158.976 
L 65.76 156.027191 
L 62.973821 153.432 
L 60.489009 147.888 
L 60.225022 142.344 
L 59.808 139.841599 
L 56.54256 136.8 
L 54.760052 131.256 
L 54.449262 125.712 
L 54.325541 120.168 
L 54.263308 114.624 
L 54.229659 109.08 
L 54.21243 103.536 
L 53.856 98.128234 
z
M 59.808 135.036432 
L 60.311177 136.8 
L 61.311371 142.344 
L 62.263051 147.888 
L 65.76 152.037946 
L 66.475619 153.432 
L 68.145816 158.976 
L 71.712 162.315723 
L 73.473024 164.52 
L 77.664 169.35465 
L 78.462004 170.064 
L 83.616 174.210871 
L 85.861495 175.608 
L 89.568 178.674014 
L 95.52 180.14616 
L 99.008929 181.152 
L 101.472 182.696345 
L 107.424 183.635993 
L 113.376 183.665097 
L 119.328 183.047716 
L 124.753272 181.152 
L 125.28 180.974949 
L 131.232 177.711544 
L 133.794953 175.608 
L 136.469345 170.064 
L 136.585004 164.52 
L 135.323584 158.976 
L 133.675927 153.432 
L 131.232 148.865324 
L 130.809384 147.888 
L 128.325039 142.344 
L 125.28 137.135226 
L 125.108834 136.8 
L 122.530465 131.256 
L 119.328 126.159697 
L 119.088458 125.712 
L 116.642864 120.168 
L 113.376 115.127758 
L 113.106241 114.624 
L 110.782027 109.08 
L 107.424 103.775951 
L 107.297325 103.536 
L 104.974759 97.992 
L 102.020171 92.448 
L 101.472 91.937405 
L 99.187395 86.904 
L 96.990884 81.36 
L 95.52 79.980551 
L 93.373385 75.816 
L 91.680004 70.272 
L 89.568 67.812734 
L 87.904273 64.728 
L 85.969787 59.184 
L 83.616 56.032418 
L 82.15159 53.64 
L 79.616202 48.096 
L 77.664 45.53295 
L 75.196575 42.552 
L 71.712 37.819482 
L 69.481328 37.008 
L 65.76 35.464041 
L 64.371324 37.008 
L 60.315739 42.552 
L 59.808 43.402901 
L 57.747244 48.096 
L 56.665484 53.64 
L 56.088946 59.184 
L 55.736786 64.728 
L 55.309242 70.272 
L 54.906409 75.816 
L 54.661229 81.36 
L 54.567632 86.904 
L 54.620975 92.448 
L 54.817911 97.992 
L 55.140938 103.536 
L 55.203047 109.08 
L 55.324352 114.624 
L 55.548703 120.168 
L 55.99472 125.712 
L 57.115126 131.256 
z
" clip-path="url(#p3db8824a41)" style="fill: #482173"/>
    <path d="M 36 186.696 
L 36 181.152 
L 36 175.608 
L 36 170.064 
L 36 164.52 
L 36 158.976 
L 36 153.432 
L 36 147.888 
L 36 142.344 
L 36 136.8 
L 36 131.256 
L 36 125.712 
L 36 120.168 
L 36 114.624 
L 36 109.08 
L 36 103.536 
L 36 97.992 
L 36 92.448 
L 36 86.904 
L 36 81.36 
L 36 75.816 
L 36 70.272 
L 36 64.728 
L 36 59.184 
L 36 53.64 
L 36 48.096 
L 36 42.552 
L 36 37.008 
L 36 31.464 
L 36 25.92 
L 41.952 25.92 
L 47.904 25.92 
L 53.856 25.92 
L 59.808 25.92 
L 65.76 25.92 
L 71.712 25.92 
L 77.664 25.92 
L 83.616 25.92 
L 89.568 25.92 
L 95.52 25.92 
L 101.472 25.92 
L 107.424 25.92 
L 113.376 25.92 
L 119.328 25.92 
L 125.28 25.92 
L 131.232 25.92 
L 137.184 25.92 
L 143.136 25.92 
L 149.088 25.92 
L 155.04 25.92 
L 160.992 25.92 
L 166.944 25.92 
L 172.896 25.92 
L 178.848 25.92 
L 184.8 25.92 
L 190.752 25.92 
L 196.704 25.92 
L 202.656 25.92 
L 208.608 25.92 
L 214.56 25.92 
L 214.56 31.464 
L 214.56 37.008 
L 214.56 42.552 
L 214.56 48.096 
L 214.56 53.64 
L 214.56 59.184 
L 214.56 64.728 
L 214.56 70.272 
L 214.56 75.816 
L 214.56 81.36 
L 214.56 86.904 
L 214.56 92.448 
L 214.56 97.992 
L 214.56 103.536 
L 214.56 109.08 
L 214.56 114.624 
L 214.56 120.168 
L 214.56 125.712 
L 214.56 131.256 
L 214.56 136.8 
L 214.56 142.344 
L 214.56 147.888 
L 214.56 153.432 
L 214.56 158.976 
L 214.56 164.52 
L 214.56 170.064 
L 214.56 175.608 
L 214.56 181.152 
L 214.56 186.696 
L 214.56 192.24 
L 208.608 192.24 
L 202.656 192.24 
L 196.704 192.24 
L 190.752 192.24 
L 184.8 192.24 
L 178.848 192.24 
L 172.896 192.24 
L 166.944 192.24 
L 160.992 192.24 
L 155.04 192.24 
L 149.088 192.24 
L 143.136 192.24 
L 137.184 192.24 
L 131.232 192.24 
L 125.28 192.24 
L 119.328 192.24 
L 113.376 192.24 
L 107.424 192.24 
L 101.472 192.24 
L 95.52 192.24 
L 89.568 192.24 
L 83.616 192.24 
L 77.664 192.24 
L 71.712 192.24 
L 65.76 192.24 
L 59.808 192.24 
L 53.856 192.24 
L 47.904 192.24 
L 41.952 192.24 
L 36 192.24 
z
M 53.856 98.128234 
L 54.21243 103.536 
L 54.229659 109.08 
L 54.263308 114.624 
L 54.325541 120.168 
L 54.449262 125.712 
L 54.760052 131.256 
L 56.54256 136.8 
L 59.808 139.841599 
L 60.225022 142.344 
L 60.489009 147.888 
L 62.973821 153.432 
L 65.76 156.027191 
L 66.421804 158.976 
L 71.712 163.930257 
L 72.183153 164.52 
L 74.230671 170.064 
L 77.664 173.26198 
L 83.616 175.557715 
L 83.69682 175.608 
L 89.568 180.464629 
L 93.21215 181.152 
L 95.52 183.30165 
L 101.472 185.586532 
L 107.424 185.847182 
L 113.376 185.855255 
L 119.328 185.683999 
L 125.28 185.07644 
L 130.432428 181.152 
L 131.232 180.718017 
L 137.184 176.512204 
L 138.154747 175.608 
L 141.151719 170.064 
L 141.165029 164.52 
L 139.31368 158.976 
L 137.184 156.992306 
L 136.210892 153.432 
L 135.24368 147.888 
L 131.232 144.151314 
L 130.425635 142.344 
L 129.461618 136.8 
L 125.28 132.905025 
L 124.517304 131.256 
L 123.440783 125.712 
L 119.328 121.881142 
L 118.583167 120.168 
L 117.44841 114.624 
L 113.376 110.830747 
L 112.656455 109.08 
L 111.622262 103.536 
L 107.424 99.625522 
L 106.744603 97.992 
L 105.925027 92.448 
L 101.472 88.300221 
L 100.838271 86.904 
L 100.228979 81.36 
L 95.52 76.943747 
L 94.938703 75.816 
L 94.45482 70.272 
L 90.196081 64.728 
L 89.568 64.142973 
L 88.569888 59.184 
L 86.288373 53.64 
L 83.616 51.150814 
L 82.506492 48.096 
L 79.797221 42.552 
L 77.664 40.565007 
L 75.74985 37.008 
L 71.712 33.246938 
L 67.64431 31.464 
L 65.76 29.708857 
L 63.87569 31.464 
L 59.995443 37.008 
L 59.808 37.268979 
L 55.6824 42.552 
L 54.935396 48.096 
L 54.635326 53.64 
L 54.475399 59.184 
L 54.377713 64.728 
L 54.063299 70.272 
L 53.856 73.575745 
L 52.504043 75.816 
L 51.320947 81.36 
L 51.079217 86.904 
L 51.50912 92.448 
L 53.70974 97.992 
z
" clip-path="url(#p3db8824a41)" style="fill: #460b5e"/>
   </g>
   <g id="PathCollection_1">
    <defs>
     <path id="m6aced4abd2" d="M -4.743416 4.743416 
L 4.743416 -4.743416 
M -4.743416 -4.743416 
L 4.743416 4.743416 
" style="stroke: #ffffff; stroke-width: 5"/>
    </defs>
    <g clip-path="url(#p3db8824a41)">
     <use xlink:href="#m6aced4abd2" x="85.6" y="127.56" style="fill: #ffffff; stroke: #ffffff; stroke-width: 5"/>
    </g>
   </g>
   <g id="PathCollection_2">
    <defs>
     <path id="m4c21ae97a1" d="M -4.330127 4.330127 
L 4.330127 -4.330127 
M -4.330127 -4.330127 
L 4.330127 4.330127 
" style="stroke: #000000; stroke-width: 2"/>
    </defs>
    <g clip-path="url(#p3db8824a41)">
     <use xlink:href="#m4c21ae97a1" x="85.6" y="127.56" style="stroke: #000000; stroke-width: 2"/>
    </g>
   </g>
   <g id="matplotlib.axis_1">
    <g id="xtick_1">
     <g id="line2d_1">
      <defs>
       <path id="m05caa7e20d" d="M 0 0 
L 0 6 
" style="stroke: #000000; stroke-width: 2"/>
      </defs>
      <g>
       <use xlink:href="#m05caa7e20d" x="65.76" y="192.24" style="stroke: #000000; stroke-width: 2"/>
      </g>
     </g>
     <g id="text_1">
      <!-- $\mathdefault{200}$ -->
      <g transform="translate(52.39 212.377813) scale(0.14 -0.14)">
       <defs>
        <path id="DejaVuSans-32" d="M 1228 531 
L 3431 531 
L 3431 0 
L 469 0 
L 469 531 
Q 828 903 1448 1529 
Q 2069 2156 2228 2338 
Q 2531 2678 2651 2914 
Q 2772 3150 2772 3378 
Q 2772 3750 2511 3984 
Q 2250 4219 1831 4219 
Q 1534 4219 1204 4116 
Q 875 4013 500 3803 
L 500 4441 
Q 881 4594 1212 4672 
Q 1544 4750 1819 4750 
Q 2544 4750 2975 4387 
Q 3406 4025 3406 3419 
Q 3406 3131 3298 2873 
Q 3191 2616 2906 2266 
Q 2828 2175 2409 1742 
Q 1991 1309 1228 531 
z
" transform="scale(0.015625)"/>
        <path id="DejaVuSans-30" d="M 2034 4250 
Q 1547 4250 1301 3770 
Q 1056 3291 1056 2328 
Q 1056 1369 1301 889 
Q 1547 409 2034 409 
Q 2525 409 2770 889 
Q 3016 1369 3016 2328 
Q 3016 3291 2770 3770 
Q 2525 4250 2034 4250 
z
M 2034 4750 
Q 2819 4750 3233 4129 
Q 3647 3509 3647 2328 
Q 3647 1150 3233 529 
Q 2819 -91 2034 -91 
Q 1250 -91 836 529 
Q 422 1150 422 2328 
Q 422 3509 836 4129 
Q 1250 4750 2034 4750 
z
" transform="scale(0.015625)"/>
       </defs>
       <use xlink:href="#DejaVuSans-32" transform="translate(0 0.78125)"/>
       <use xlink:href="#DejaVuSans-30" transform="translate(63.623047 0.78125)"/>
       <use xlink:href="#DejaVuSans-30" transform="translate(127.246094 0.78125)"/>
      </g>
     </g>
    </g>
    <g id="xtick_2">
     <g id="line2d_2">
      <g>
       <use xlink:href="#m05caa7e20d" x="105.44" y="192.24" style="stroke: #000000; stroke-width: 2"/>
      </g>
     </g>
     <g id="text_2">
      <!-- $\mathdefault{400}$ -->
      <g transform="translate(92.07 212.377813) scale(0.14 -0.14)">
       <defs>
        <path id="DejaVuSans-34" d="M 2419 4116 
L 825 1625 
L 2419 1625 
L 2419 4116 
z
M 2253 4666 
L 3047 4666 
L 3047 1625 
L 3713 1625 
L 3713 1100 
L 3047 1100 
L 3047 0 
L 2419 0 
L 2419 1100 
L 313 1100 
L 313 1709 
L 2253 4666 
z
" transform="scale(0.015625)"/>
       </defs>
       <use xlink:href="#DejaVuSans-34" transform="translate(0 0.78125)"/>
       <use xlink:href="#DejaVuSans-30" transform="translate(63.623047 0.78125)"/>
       <use xlink:href="#DejaVuSans-30" transform="translate(127.246094 0.78125)"/>
      </g>
     </g>
    </g>
    <g id="xtick_3">
     <g id="line2d_3">
      <g>
       <use xlink:href="#m05caa7e20d" x="145.12" y="192.24" style="stroke: #000000; stroke-width: 2"/>
      </g>
     </g>
     <g id="text_3">
      <!-- $\mathdefault{600}$ -->
      <g transform="translate(131.75 212.377813) scale(0.14 -0.14)">
       <defs>
        <path id="DejaVuSans-36" d="M 2113 2584 
Q 1688 2584 1439 2293 
Q 1191 2003 1191 1497 
Q 1191 994 1439 701 
Q 1688 409 2113 409 
Q 2538 409 2786 701 
Q 3034 994 3034 1497 
Q 3034 2003 2786 2293 
Q 2538 2584 2113 2584 
z
M 3366 4563 
L 3366 3988 
Q 3128 4100 2886 4159 
Q 2644 4219 2406 4219 
Q 1781 4219 1451 3797 
Q 1122 3375 1075 2522 
Q 1259 2794 1537 2939 
Q 1816 3084 2150 3084 
Q 2853 3084 3261 2657 
Q 3669 2231 3669 1497 
Q 3669 778 3244 343 
Q 2819 -91 2113 -91 
Q 1303 -91 875 529 
Q 447 1150 447 2328 
Q 447 3434 972 4092 
Q 1497 4750 2381 4750 
Q 2619 4750 2861 4703 
Q 3103 4656 3366 4563 
z
" transform="scale(0.015625)"/>
       </defs>
       <use xlink:href="#DejaVuSans-36" transform="translate(0 0.78125)"/>
       <use xlink:href="#DejaVuSans-30" transform="translate(63.623047 0.78125)"/>
       <use xlink:href="#DejaVuSans-30" transform="translate(127.246094 0.78125)"/>
      </g>
     </g>
    </g>
    <g id="xtick_4">
     <g id="line2d_4">
      <g>
       <use xlink:href="#m05caa7e20d" x="184.8" y="192.24" style="stroke: #000000; stroke-width: 2"/>
      </g>
     </g>
     <g id="text_4">
      <!-- $\mathdefault{800}$ -->
      <g transform="translate(171.43 212.377813) scale(0.14 -0.14)">
       <defs>
        <path id="DejaVuSans-38" d="M 2034 2216 
Q 1584 2216 1326 1975 
Q 1069 1734 1069 1313 
Q 1069 891 1326 650 
Q 1584 409 2034 409 
Q 2484 409 2743 651 
Q 3003 894 3003 1313 
Q 3003 1734 2745 1975 
Q 2488 2216 2034 2216 
z
M 1403 2484 
Q 997 2584 770 2862 
Q 544 3141 544 3541 
Q 544 4100 942 4425 
Q 1341 4750 2034 4750 
Q 2731 4750 3128 4425 
Q 3525 4100 3525 3541 
Q 3525 3141 3298 2862 
Q 3072 2584 2669 2484 
Q 3125 2378 3379 2068 
Q 3634 1759 3634 1313 
Q 3634 634 3220 271 
Q 2806 -91 2034 -91 
Q 1263 -91 848 271 
Q 434 634 434 1313 
Q 434 1759 690 2068 
Q 947 2378 1403 2484 
z
M 1172 3481 
Q 1172 3119 1398 2916 
Q 1625 2713 2034 2713 
Q 2441 2713 2670 2916 
Q 2900 3119 2900 3481 
Q 2900 3844 2670 4047 
Q 2441 4250 2034 4250 
Q 1625 4250 1398 4047 
Q 1172 3844 1172 3481 
z
" transform="scale(0.015625)"/>
       </defs>
       <use xlink:href="#DejaVuSans-38" transform="translate(0 0.78125)"/>
       <use xlink:href="#DejaVuSans-30" transform="translate(63.623047 0.78125)"/>
       <use xlink:href="#DejaVuSans-30" transform="translate(127.246094 0.78125)"/>
      </g>
     </g>
    </g>
    <g id="text_5">
     <!-- Diploid N$_e$1 -->
     <g transform="translate(74.34 232.969375) scale(0.18 -0.18)">
      <defs>
       <path id="DejaVuSans-44" d="M 1259 4147 
L 1259 519 
L 2022 519 
Q 2988 519 3436 956 
Q 3884 1394 3884 2338 
Q 3884 3275 3436 3711 
Q 2988 4147 2022 4147 
L 1259 4147 
z
M 628 4666 
L 1925 4666 
Q 3281 4666 3915 4102 
Q 4550 3538 4550 2338 
Q 4550 1131 3912 565 
Q 3275 0 1925 0 
L 628 0 
L 628 4666 
z
" transform="scale(0.015625)"/>
       <path id="DejaVuSans-69" d="M 603 3500 
L 1178 3500 
L 1178 0 
L 603 0 
L 603 3500 
z
M 603 4863 
L 1178 4863 
L 1178 4134 
L 603 4134 
L 603 4863 
z
" transform="scale(0.015625)"/>
       <path id="DejaVuSans-70" d="M 1159 525 
L 1159 -1331 
L 581 -1331 
L 581 3500 
L 1159 3500 
L 1159 2969 
Q 1341 3281 1617 3432 
Q 1894 3584 2278 3584 
Q 2916 3584 3314 3078 
Q 3713 2572 3713 1747 
Q 3713 922 3314 415 
Q 2916 -91 2278 -91 
Q 1894 -91 1617 61 
Q 1341 213 1159 525 
z
M 3116 1747 
Q 3116 2381 2855 2742 
Q 2594 3103 2138 3103 
Q 1681 3103 1420 2742 
Q 1159 2381 1159 1747 
Q 1159 1113 1420 752 
Q 1681 391 2138 391 
Q 2594 391 2855 752 
Q 3116 1113 3116 1747 
z
" transform="scale(0.015625)"/>
       <path id="DejaVuSans-6c" d="M 603 4863 
L 1178 4863 
L 1178 0 
L 603 0 
L 603 4863 
z
" transform="scale(0.015625)"/>
       <path id="DejaVuSans-6f" d="M 1959 3097 
Q 1497 3097 1228 2736 
Q 959 2375 959 1747 
Q 959 1119 1226 758 
Q 1494 397 1959 397 
Q 2419 397 2687 759 
Q 2956 1122 2956 1747 
Q 2956 2369 2687 2733 
Q 2419 3097 1959 3097 
z
M 1959 3584 
Q 2709 3584 3137 3096 
Q 3566 2609 3566 1747 
Q 3566 888 3137 398 
Q 2709 -91 1959 -91 
Q 1206 -91 779 398 
Q 353 888 353 1747 
Q 353 2609 779 3096 
Q 1206 3584 1959 3584 
z
" transform="scale(0.015625)"/>
       <path id="DejaVuSans-64" d="M 2906 2969 
L 2906 4863 
L 3481 4863 
L 3481 0 
L 2906 0 
L 2906 525 
Q 2725 213 2448 61 
Q 2172 -91 1784 -91 
Q 1150 -91 751 415 
Q 353 922 353 1747 
Q 353 2572 751 3078 
Q 1150 3584 1784 3584 
Q 2172 3584 2448 3432 
Q 2725 3281 2906 2969 
z
M 947 1747 
Q 947 1113 1208 752 
Q 1469 391 1925 391 
Q 2381 391 2643 752 
Q 2906 1113 2906 1747 
Q 2906 2381 2643 2742 
Q 2381 3103 1925 3103 
Q 1469 3103 1208 2742 
Q 947 2381 947 1747 
z
" transform="scale(0.015625)"/>
       <path id="DejaVuSans-20" transform="scale(0.015625)"/>
       <path id="DejaVuSans-4e" d="M 628 4666 
L 1478 4666 
L 3547 763 
L 3547 4666 
L 4159 4666 
L 4159 0 
L 3309 0 
L 1241 3903 
L 1241 0 
L 628 0 
L 628 4666 
z
" transform="scale(0.015625)"/>
       <path id="DejaVuSans-Oblique-65" d="M 3078 2063 
Q 3088 2113 3092 2166 
Q 3097 2219 3097 2272 
Q 3097 2653 2873 2875 
Q 2650 3097 2266 3097 
Q 1838 3097 1509 2826 
Q 1181 2556 1013 2059 
L 3078 2063 
z
M 3578 1613 
L 903 1613 
Q 884 1494 878 1425 
Q 872 1356 872 1306 
Q 872 872 1139 634 
Q 1406 397 1894 397 
Q 2269 397 2603 481 
Q 2938 566 3225 728 
L 3116 159 
Q 2806 34 2476 -28 
Q 2147 -91 1806 -91 
Q 1078 -91 686 257 
Q 294 606 294 1247 
Q 294 1794 489 2264 
Q 684 2734 1063 3103 
Q 1306 3334 1642 3459 
Q 1978 3584 2356 3584 
Q 2950 3584 3301 3228 
Q 3653 2872 3653 2272 
Q 3653 2128 3634 1964 
Q 3616 1800 3578 1613 
z
" transform="scale(0.015625)"/>
       <path id="DejaVuSans-31" d="M 794 531 
L 1825 531 
L 1825 4091 
L 703 3866 
L 703 4441 
L 1819 4666 
L 2450 4666 
L 2450 531 
L 3481 531 
L 3481 0 
L 794 0 
L 794 531 
z
" transform="scale(0.015625)"/>
      </defs>
      <use xlink:href="#DejaVuSans-44" transform="translate(0 0.015625)"/>
      <use xlink:href="#DejaVuSans-69" transform="translate(77.001953 0.015625)"/>
      <use xlink:href="#DejaVuSans-70" transform="translate(104.785156 0.015625)"/>
      <use xlink:href="#DejaVuSans-6c" transform="translate(168.261719 0.015625)"/>
      <use xlink:href="#DejaVuSans-6f" transform="translate(196.044922 0.015625)"/>
      <use xlink:href="#DejaVuSans-69" transform="translate(257.226562 0.015625)"/>
      <use xlink:href="#DejaVuSans-64" transform="translate(285.009766 0.015625)"/>
      <use xlink:href="#DejaVuSans-20" transform="translate(348.486328 0.015625)"/>
      <use xlink:href="#DejaVuSans-4e" transform="translate(380.273438 0.015625)"/>
      <use xlink:href="#DejaVuSans-Oblique-65" transform="translate(456.035156 -16.390625) scale(0.7)"/>
      <use xlink:href="#DejaVuSans-31" transform="translate(501.835938 0.015625)"/>
     </g>
    </g>
    <g id="text_6">
     <!-- $\times\mathdefault{10^{3}}\mathdefault{}$ -->
     <g transform="translate(188.56 225.887812) scale(0.1 -0.1)">
      <defs>
       <path id="DejaVuSans-d7" d="M 4488 3438 
L 3059 2003 
L 4488 575 
L 4116 197 
L 2681 1631 
L 1247 197 
L 878 575 
L 2303 2003 
L 878 3438 
L 1247 3816 
L 2681 2381 
L 4116 3816 
L 4488 3438 
z
" transform="scale(0.015625)"/>
       <path id="DejaVuSans-33" d="M 2597 2516 
Q 3050 2419 3304 2112 
Q 3559 1806 3559 1356 
Q 3559 666 3084 287 
Q 2609 -91 1734 -91 
Q 1441 -91 1130 -33 
Q 819 25 488 141 
L 488 750 
Q 750 597 1062 519 
Q 1375 441 1716 441 
Q 2309 441 2620 675 
Q 2931 909 2931 1356 
Q 2931 1769 2642 2001 
Q 2353 2234 1838 2234 
L 1294 2234 
L 1294 2753 
L 1863 2753 
Q 2328 2753 2575 2939 
Q 2822 3125 2822 3475 
Q 2822 3834 2567 4026 
Q 2313 4219 1838 4219 
Q 1578 4219 1281 4162 
Q 984 4106 628 3988 
L 628 4550 
Q 988 4650 1302 4700 
Q 1616 4750 1894 4750 
Q 2613 4750 3031 4423 
Q 3450 4097 3450 3541 
Q 3450 3153 3228 2886 
Q 3006 2619 2597 2516 
z
" transform="scale(0.015625)"/>
      </defs>
      <use xlink:href="#DejaVuSans-d7" transform="translate(0 0.765625)"/>
      <use xlink:href="#DejaVuSans-31" transform="translate(83.789062 0.765625)"/>
      <use xlink:href="#DejaVuSans-30" transform="translate(147.412109 0.765625)"/>
      <use xlink:href="#DejaVuSans-33" transform="translate(211.992188 39.046875) scale(0.7)"/>
     </g>
    </g>
   </g>
   <g id="matplotlib.axis_2">
    <g id="ytick_1">
     <g id="line2d_5">
      <defs>
       <path id="m1f4fed16cb" d="M 0 0 
L -6 0 
" style="stroke: #000000; stroke-width: 2"/>
      </defs>
      <g>
       <use xlink:href="#m1f4fed16cb" x="36" y="164.52" style="stroke: #000000; stroke-width: 2"/>
      </g>
     </g>
     <g id="text_7">
      <!-- $\mathdefault{200}$ -->
      <g transform="translate(-0.24 169.838906) scale(0.14 -0.14)">
       <use xlink:href="#DejaVuSans-32" transform="translate(0 0.78125)"/>
       <use xlink:href="#DejaVuSans-30" transform="translate(63.623047 0.78125)"/>
       <use xlink:href="#DejaVuSans-30" transform="translate(127.246094 0.78125)"/>
      </g>
     </g>
    </g>
    <g id="ytick_2">
     <g id="line2d_6">
      <g>
       <use xlink:href="#m1f4fed16cb" x="36" y="127.56" style="stroke: #000000; stroke-width: 2"/>
      </g>
     </g>
     <g id="text_8">
      <!-- $\mathdefault{400}$ -->
      <g transform="translate(-0.24 132.878906) scale(0.14 -0.14)">
       <use xlink:href="#DejaVuSans-34" transform="translate(0 0.78125)"/>
       <use xlink:href="#DejaVuSans-30" transform="translate(63.623047 0.78125)"/>
       <use xlink:href="#DejaVuSans-30" transform="translate(127.246094 0.78125)"/>
      </g>
     </g>
    </g>
    <g id="ytick_3">
     <g id="line2d_7">
      <g>
       <use xlink:href="#m1f4fed16cb" x="36" y="90.6" style="stroke: #000000; stroke-width: 2"/>
      </g>
     </g>
     <g id="text_9">
      <!-- $\mathdefault{600}$ -->
      <g transform="translate(-0.24 95.918906) scale(0.14 -0.14)">
       <use xlink:href="#DejaVuSans-36" transform="translate(0 0.78125)"/>
       <use xlink:href="#DejaVuSans-30" transform="translate(63.623047 0.78125)"/>
       <use xlink:href="#DejaVuSans-30" transform="translate(127.246094 0.78125)"/>
      </g>
     </g>
    </g>
    <g id="ytick_4">
     <g id="line2d_8">
      <g>
       <use xlink:href="#m1f4fed16cb" x="36" y="53.64" style="stroke: #000000; stroke-width: 2"/>
      </g>
     </g>
     <g id="text_10">
      <!-- $\mathdefault{800}$ -->
      <g transform="translate(-0.24 58.958906) scale(0.14 -0.14)">
       <use xlink:href="#DejaVuSans-38" transform="translate(0 0.78125)"/>
       <use xlink:href="#DejaVuSans-30" transform="translate(63.623047 0.78125)"/>
       <use xlink:href="#DejaVuSans-30" transform="translate(127.246094 0.78125)"/>
      </g>
     </g>
    </g>
    <g id="text_11">
     <!-- Diploid N$_e$2 -->
     <g transform="translate(-8.02 160.02) rotate(-90) scale(0.18 -0.18)">
      <use xlink:href="#DejaVuSans-44" transform="translate(0 0.015625)"/>
      <use xlink:href="#DejaVuSans-69" transform="translate(77.001953 0.015625)"/>
      <use xlink:href="#DejaVuSans-70" transform="translate(104.785156 0.015625)"/>
      <use xlink:href="#DejaVuSans-6c" transform="translate(168.261719 0.015625)"/>
      <use xlink:href="#DejaVuSans-6f" transform="translate(196.044922 0.015625)"/>
      <use xlink:href="#DejaVuSans-69" transform="translate(257.226562 0.015625)"/>
      <use xlink:href="#DejaVuSans-64" transform="translate(285.009766 0.015625)"/>
      <use xlink:href="#DejaVuSans-20" transform="translate(348.486328 0.015625)"/>
      <use xlink:href="#DejaVuSans-4e" transform="translate(380.273438 0.015625)"/>
      <use xlink:href="#DejaVuSans-Oblique-65" transform="translate(456.035156 -16.390625) scale(0.7)"/>
      <use xlink:href="#DejaVuSans-32" transform="translate(501.835938 0.015625)"/>
     </g>
    </g>
    <g id="text_12">
     <!-- $\times\mathdefault{10^{3}}\mathdefault{}$ -->
     <g transform="translate(36 22.92) scale(0.1 -0.1)">
      <use xlink:href="#DejaVuSans-d7" transform="translate(0 0.765625)"/>
      <use xlink:href="#DejaVuSans-31" transform="translate(83.789062 0.765625)"/>
      <use xlink:href="#DejaVuSans-30" transform="translate(147.412109 0.765625)"/>
      <use xlink:href="#DejaVuSans-33" transform="translate(211.992188 39.046875) scale(0.7)"/>
     </g>
    </g>
   </g>
   <g id="patch_3">
    <path d="M 36 192.24 
L 36 25.92 
" style="fill: none; stroke: #000000; stroke-width: 0.8; stroke-linejoin: miter; stroke-linecap: square"/>
   </g>
   <g id="patch_4">
    <path d="M 214.56 192.24 
L 214.56 25.92 
" style="fill: none; stroke: #000000; stroke-width: 0.8; stroke-linejoin: miter; stroke-linecap: square"/>
   </g>
   <g id="patch_5">
    <path d="M 36 192.24 
L 214.56 192.24 
" style="fill: none; stroke: #000000; stroke-width: 0.8; stroke-linejoin: miter; stroke-linecap: square"/>
   </g>
   <g id="patch_6">
    <path d="M 36 25.92 
L 214.56 25.92 
" style="fill: none; stroke: #000000; stroke-width: 0.8; stroke-linejoin: miter; stroke-linecap: square"/>
   </g>
   <g id="text_13">
    <!-- Ne1Ne2-SMC-GT-P2-S4 -->
    <g transform="translate(33.735 10.92) scale(0.16 -0.16)">
     <defs>
      <path id="DejaVuSans-65" d="M 3597 1894 
L 3597 1613 
L 953 1613 
Q 991 1019 1311 708 
Q 1631 397 2203 397 
Q 2534 397 2845 478 
Q 3156 559 3463 722 
L 3463 178 
Q 3153 47 2828 -22 
Q 2503 -91 2169 -91 
Q 1331 -91 842 396 
Q 353 884 353 1716 
Q 353 2575 817 3079 
Q 1281 3584 2069 3584 
Q 2775 3584 3186 3129 
Q 3597 2675 3597 1894 
z
M 3022 2063 
Q 3016 2534 2758 2815 
Q 2500 3097 2075 3097 
Q 1594 3097 1305 2825 
Q 1016 2553 972 2059 
L 3022 2063 
z
" transform="scale(0.015625)"/>
      <path id="DejaVuSans-2d" d="M 313 2009 
L 1997 2009 
L 1997 1497 
L 313 1497 
L 313 2009 
z
" transform="scale(0.015625)"/>
      <path id="DejaVuSans-53" d="M 3425 4513 
L 3425 3897 
Q 3066 4069 2747 4153 
Q 2428 4238 2131 4238 
Q 1616 4238 1336 4038 
Q 1056 3838 1056 3469 
Q 1056 3159 1242 3001 
Q 1428 2844 1947 2747 
L 2328 2669 
Q 3034 2534 3370 2195 
Q 3706 1856 3706 1288 
Q 3706 609 3251 259 
Q 2797 -91 1919 -91 
Q 1588 -91 1214 -16 
Q 841 59 441 206 
L 441 856 
Q 825 641 1194 531 
Q 1563 422 1919 422 
Q 2459 422 2753 634 
Q 3047 847 3047 1241 
Q 3047 1584 2836 1778 
Q 2625 1972 2144 2069 
L 1759 2144 
Q 1053 2284 737 2584 
Q 422 2884 422 3419 
Q 422 4038 858 4394 
Q 1294 4750 2059 4750 
Q 2388 4750 2728 4690 
Q 3069 4631 3425 4513 
z
" transform="scale(0.015625)"/>
      <path id="DejaVuSans-4d" d="M 628 4666 
L 1569 4666 
L 2759 1491 
L 3956 4666 
L 4897 4666 
L 4897 0 
L 4281 0 
L 4281 4097 
L 3078 897 
L 2444 897 
L 1241 4097 
L 1241 0 
L 628 0 
L 628 4666 
z
" transform="scale(0.015625)"/>
      <path id="DejaVuSans-43" d="M 4122 4306 
L 4122 3641 
Q 3803 3938 3442 4084 
Q 3081 4231 2675 4231 
Q 1875 4231 1450 3742 
Q 1025 3253 1025 2328 
Q 1025 1406 1450 917 
Q 1875 428 2675 428 
Q 3081 428 3442 575 
Q 3803 722 4122 1019 
L 4122 359 
Q 3791 134 3420 21 
Q 3050 -91 2638 -91 
Q 1578 -91 968 557 
Q 359 1206 359 2328 
Q 359 3453 968 4101 
Q 1578 4750 2638 4750 
Q 3056 4750 3426 4639 
Q 3797 4528 4122 4306 
z
" transform="scale(0.015625)"/>
      <path id="DejaVuSans-47" d="M 3809 666 
L 3809 1919 
L 2778 1919 
L 2778 2438 
L 4434 2438 
L 4434 434 
Q 4069 175 3628 42 
Q 3188 -91 2688 -91 
Q 1594 -91 976 548 
Q 359 1188 359 2328 
Q 359 3472 976 4111 
Q 1594 4750 2688 4750 
Q 3144 4750 3555 4637 
Q 3966 4525 4313 4306 
L 4313 3634 
Q 3963 3931 3569 4081 
Q 3175 4231 2741 4231 
Q 1884 4231 1454 3753 
Q 1025 3275 1025 2328 
Q 1025 1384 1454 906 
Q 1884 428 2741 428 
Q 3075 428 3337 486 
Q 3600 544 3809 666 
z
" transform="scale(0.015625)"/>
      <path id="DejaVuSans-54" d="M -19 4666 
L 3928 4666 
L 3928 4134 
L 2272 4134 
L 2272 0 
L 1638 0 
L 1638 4134 
L -19 4134 
L -19 4666 
z
" transform="scale(0.015625)"/>
      <path id="DejaVuSans-50" d="M 1259 4147 
L 1259 2394 
L 2053 2394 
Q 2494 2394 2734 2622 
Q 2975 2850 2975 3272 
Q 2975 3691 2734 3919 
Q 2494 4147 2053 4147 
L 1259 4147 
z
M 628 4666 
L 2053 4666 
Q 2838 4666 3239 4311 
Q 3641 3956 3641 3272 
Q 3641 2581 3239 2228 
Q 2838 1875 2053 1875 
L 1259 1875 
L 1259 0 
L 628 0 
L 628 4666 
z
" transform="scale(0.015625)"/>
     </defs>
     <use xlink:href="#DejaVuSans-4e"/>
     <use xlink:href="#DejaVuSans-65" x="74.804688"/>
     <use xlink:href="#DejaVuSans-31" x="136.328125"/>
     <use xlink:href="#DejaVuSans-4e" x="199.951172"/>
     <use xlink:href="#DejaVuSans-65" x="274.755859"/>
     <use xlink:href="#DejaVuSans-32" x="336.279297"/>
     <use xlink:href="#DejaVuSans-2d" x="399.902344"/>
     <use xlink:href="#DejaVuSans-53" x="435.986328"/>
     <use xlink:href="#DejaVuSans-4d" x="499.462891"/>
     <use xlink:href="#DejaVuSans-43" x="585.742188"/>
     <use xlink:href="#DejaVuSans-2d" x="655.566406"/>
     <use xlink:href="#DejaVuSans-47" x="695.275391"/>
     <use xlink:href="#DejaVuSans-54" x="769.140625"/>
     <use xlink:href="#DejaVuSans-2d" x="821.099609"/>
     <use xlink:href="#DejaVuSans-50" x="857.183594"/>
     <use xlink:href="#DejaVuSans-32" x="917.486328"/>
     <use xlink:href="#DejaVuSans-2d" x="981.109375"/>
     <use xlink:href="#DejaVuSans-53" x="1017.193359"/>
     <use xlink:href="#DejaVuSans-34" x="1080.669922"/>
    </g>
   </g>
  </g>
  <g id="axes_2">
   <g id="patch_7">
    <path d="M 225.72 192.24 
L 234.036 192.24 
L 234.036 25.92 
L 225.72 25.92 
z
" style="fill: #ffffff"/>
   </g>
   <g id="QuadMesh_1">
    <path d="M 225.72 192.24 
L 234.036 192.24 
L 234.036 181.845 
L 225.72 181.845 
L 225.72 192.24 
" clip-path="url(#pe6b80d5e06)" style="fill: #eae51a"/>
    <path d="M 225.72 181.845 
L 234.036 181.845 
L 234.036 171.45 
L 225.72 171.45 
L 225.72 181.845 
" clip-path="url(#pe6b80d5e06)" style="fill: #c0df25"/>
    <path d="M 225.72 171.45 
L 234.036 171.45 
L 234.036 161.055 
L 225.72 161.055 
L 225.72 171.45 
" clip-path="url(#pe6b80d5e06)" style="fill: #95d840"/>
    <path d="M 225.72 161.055 
L 234.036 161.055 
L 234.036 150.66 
L 225.72 150.66 
L 225.72 161.055 
" clip-path="url(#pe6b80d5e06)" style="fill: #6ece58"/>
    <path d="M 225.72 150.66 
L 234.036 150.66 
L 234.036 140.265 
L 225.72 140.265 
L 225.72 150.66 
" clip-path="url(#pe6b80d5e06)" style="fill: #4cc26c"/>
    <path d="M 225.72 140.265 
L 234.036 140.265 
L 234.036 129.87 
L 225.72 129.87 
L 225.72 140.265 
" clip-path="url(#pe6b80d5e06)" style="fill: #31b57b"/>
    <path d="M 225.72 129.87 
L 234.036 129.87 
L 234.036 119.475 
L 225.72 119.475 
L 225.72 129.87 
" clip-path="url(#pe6b80d5e06)" style="fill: #21a685"/>
    <path d="M 225.72 119.475 
L 234.036 119.475 
L 234.036 109.08 
L 225.72 109.08 
L 225.72 119.475 
" clip-path="url(#pe6b80d5e06)" style="fill: #1f978b"/>
    <path d="M 225.72 109.08 
L 234.036 109.08 
L 234.036 98.685 
L 225.72 98.685 
L 225.72 109.08 
" clip-path="url(#pe6b80d5e06)" style="fill: #23888e"/>
    <path d="M 225.72 98.685 
L 234.036 98.685 
L 234.036 88.29 
L 225.72 88.29 
L 225.72 98.685 
" clip-path="url(#pe6b80d5e06)" style="fill: #29798e"/>
    <path d="M 225.72 88.29 
L 234.036 88.29 
L 234.036 77.895 
L 225.72 77.895 
L 225.72 88.29 
" clip-path="url(#pe6b80d5e06)" style="fill: #306a8e"/>
    <path d="M 225.72 77.895 
L 234.036 77.895 
L 234.036 67.5 
L 225.72 67.5 
L 225.72 77.895 
" clip-path="url(#pe6b80d5e06)" style="fill: #375a8c"/>
    <path d="M 225.72 67.5 
L 234.036 67.5 
L 234.036 57.105 
L 225.72 57.105 
L 225.72 67.5 
" clip-path="url(#pe6b80d5e06)" style="fill: #3f4889"/>
    <path d="M 225.72 57.105 
L 234.036 57.105 
L 234.036 46.71 
L 225.72 46.71 
L 225.72 57.105 
" clip-path="url(#pe6b80d5e06)" style="fill: #453581"/>
    <path d="M 225.72 46.71 
L 234.036 46.71 
L 234.036 36.315 
L 225.72 36.315 
L 225.72 46.71 
" clip-path="url(#pe6b80d5e06)" style="fill: #482173"/>
    <path d="M 225.72 36.315 
L 234.036 36.315 
L 234.036 25.92 
L 225.72 25.92 
L 225.72 36.315 
" clip-path="url(#pe6b80d5e06)" style="fill: #460b5e"/>
   </g>
   <g id="matplotlib.axis_3"/>
   <g id="matplotlib.axis_4">
    <g id="ytick_5">
     <g id="line2d_9">
      <defs>
       <path id="m875a09d1ab" d="M 0 0 
L 3.5 0 
" style="stroke: #000000; stroke-width: 0.8"/>
      </defs>
      <g>
       <use xlink:href="#m875a09d1ab" x="234.036" y="192.24" style="stroke: #000000; stroke-width: 0.8"/>
      </g>
     </g>
     <g id="text_14">
      <!-- $\mathdefault{0.00}$ -->
      <g transform="translate(241.036 196.039219) scale(0.1 -0.1)">
       <defs>
        <path id="DejaVuSans-2e" d="M 684 794 
L 1344 794 
L 1344 0 
L 684 0 
L 684 794 
z
" transform="scale(0.015625)"/>
       </defs>
       <use xlink:href="#DejaVuSans-30" transform="translate(0 0.78125)"/>
       <use xlink:href="#DejaVuSans-2e" transform="translate(63.623047 0.78125)"/>
       <use xlink:href="#DejaVuSans-30" transform="translate(95.410156 0.78125)"/>
       <use xlink:href="#DejaVuSans-30" transform="translate(159.033203 0.78125)"/>
      </g>
     </g>
    </g>
    <g id="ytick_6">
     <g id="line2d_10">
      <g>
       <use xlink:href="#m875a09d1ab" x="234.036" y="171.45" style="stroke: #000000; stroke-width: 0.8"/>
      </g>
     </g>
     <g id="text_15">
      <!-- $\mathdefault{0.04}$ -->
      <g transform="translate(241.036 175.249219) scale(0.1 -0.1)">
       <use xlink:href="#DejaVuSans-30" transform="translate(0 0.78125)"/>
       <use xlink:href="#DejaVuSans-2e" transform="translate(63.623047 0.78125)"/>
       <use xlink:href="#DejaVuSans-30" transform="translate(95.410156 0.78125)"/>
       <use xlink:href="#DejaVuSans-34" transform="translate(159.033203 0.78125)"/>
      </g>
     </g>
    </g>
    <g id="ytick_7">
     <g id="line2d_11">
      <g>
       <use xlink:href="#m875a09d1ab" x="234.036" y="150.66" style="stroke: #000000; stroke-width: 0.8"/>
      </g>
     </g>
     <g id="text_16">
      <!-- $\mathdefault{0.08}$ -->
      <g transform="translate(241.036 154.459219) scale(0.1 -0.1)">
       <use xlink:href="#DejaVuSans-30" transform="translate(0 0.78125)"/>
       <use xlink:href="#DejaVuSans-2e" transform="translate(63.623047 0.78125)"/>
       <use xlink:href="#DejaVuSans-30" transform="translate(95.410156 0.78125)"/>
       <use xlink:href="#DejaVuSans-38" transform="translate(159.033203 0.78125)"/>
      </g>
     </g>
    </g>
    <g id="ytick_8">
     <g id="line2d_12">
      <g>
       <use xlink:href="#m875a09d1ab" x="234.036" y="129.87" style="stroke: #000000; stroke-width: 0.8"/>
      </g>
     </g>
     <g id="text_17">
      <!-- $\mathdefault{0.12}$ -->
      <g transform="translate(241.036 133.669219) scale(0.1 -0.1)">
       <use xlink:href="#DejaVuSans-30" transform="translate(0 0.78125)"/>
       <use xlink:href="#DejaVuSans-2e" transform="translate(63.623047 0.78125)"/>
       <use xlink:href="#DejaVuSans-31" transform="translate(95.410156 0.78125)"/>
       <use xlink:href="#DejaVuSans-32" transform="translate(159.033203 0.78125)"/>
      </g>
     </g>
    </g>
    <g id="ytick_9">
     <g id="line2d_13">
      <g>
       <use xlink:href="#m875a09d1ab" x="234.036" y="109.08" style="stroke: #000000; stroke-width: 0.8"/>
      </g>
     </g>
     <g id="text_18">
      <!-- $\mathdefault{0.16}$ -->
      <g transform="translate(241.036 112.879219) scale(0.1 -0.1)">
       <use xlink:href="#DejaVuSans-30" transform="translate(0 0.78125)"/>
       <use xlink:href="#DejaVuSans-2e" transform="translate(63.623047 0.78125)"/>
       <use xlink:href="#DejaVuSans-31" transform="translate(95.410156 0.78125)"/>
       <use xlink:href="#DejaVuSans-36" transform="translate(159.033203 0.78125)"/>
      </g>
     </g>
    </g>
    <g id="ytick_10">
     <g id="line2d_14">
      <g>
       <use xlink:href="#m875a09d1ab" x="234.036" y="88.29" style="stroke: #000000; stroke-width: 0.8"/>
      </g>
     </g>
     <g id="text_19">
      <!-- $\mathdefault{0.20}$ -->
      <g transform="translate(241.036 92.089219) scale(0.1 -0.1)">
       <use xlink:href="#DejaVuSans-30" transform="translate(0 0.78125)"/>
       <use xlink:href="#DejaVuSans-2e" transform="translate(63.623047 0.78125)"/>
       <use xlink:href="#DejaVuSans-32" transform="translate(89.910156 0.78125)"/>
       <use xlink:href="#DejaVuSans-30" transform="translate(153.533203 0.78125)"/>
      </g>
     </g>
    </g>
    <g id="ytick_11">
     <g id="line2d_15">
      <g>
       <use xlink:href="#m875a09d1ab" x="234.036" y="67.5" style="stroke: #000000; stroke-width: 0.8"/>
      </g>
     </g>
     <g id="text_20">
      <!-- $\mathdefault{0.24}$ -->
      <g transform="translate(241.036 71.299219) scale(0.1 -0.1)">
       <use xlink:href="#DejaVuSans-30" transform="translate(0 0.78125)"/>
       <use xlink:href="#DejaVuSans-2e" transform="translate(63.623047 0.78125)"/>
       <use xlink:href="#DejaVuSans-32" transform="translate(89.910156 0.78125)"/>
       <use xlink:href="#DejaVuSans-34" transform="translate(153.533203 0.78125)"/>
      </g>
     </g>
    </g>
    <g id="ytick_12">
     <g id="line2d_16">
      <g>
       <use xlink:href="#m875a09d1ab" x="234.036" y="46.71" style="stroke: #000000; stroke-width: 0.8"/>
      </g>
     </g>
     <g id="text_21">
      <!-- $\mathdefault{0.28}$ -->
      <g transform="translate(241.036 50.509219) scale(0.1 -0.1)">
       <use xlink:href="#DejaVuSans-30" transform="translate(0 0.78125)"/>
       <use xlink:href="#DejaVuSans-2e" transform="translate(63.623047 0.78125)"/>
       <use xlink:href="#DejaVuSans-32" transform="translate(89.910156 0.78125)"/>
       <use xlink:href="#DejaVuSans-38" transform="translate(153.533203 0.78125)"/>
      </g>
     </g>
    </g>
    <g id="ytick_13">
     <g id="line2d_17">
      <g>
       <use xlink:href="#m875a09d1ab" x="234.036" y="25.92" style="stroke: #000000; stroke-width: 0.8"/>
      </g>
     </g>
     <g id="text_22">
      <!-- $\mathdefault{0.32}$ -->
      <g transform="translate(241.036 29.719219) scale(0.1 -0.1)">
       <use xlink:href="#DejaVuSans-30" transform="translate(0 0.78125)"/>
       <use xlink:href="#DejaVuSans-2e" transform="translate(63.623047 0.78125)"/>
       <use xlink:href="#DejaVuSans-33" transform="translate(95.410156 0.78125)"/>
       <use xlink:href="#DejaVuSans-32" transform="translate(159.033203 0.78125)"/>
      </g>
     </g>
    </g>
    <g id="text_23">
     <!-- $\Delta$ log likelihood -->
     <g transform="translate(276.456 154.98) rotate(-90) scale(0.12 -0.12)">
      <defs>
       <path id="DejaVuSans-394" d="M 2188 4044 
L 906 525 
L 3472 525 
L 2188 4044 
z
M 50 0 
L 1831 4666 
L 2547 4666 
L 4325 0 
L 50 0 
z
" transform="scale(0.015625)"/>
       <path id="DejaVuSans-67" d="M 2906 1791 
Q 2906 2416 2648 2759 
Q 2391 3103 1925 3103 
Q 1463 3103 1205 2759 
Q 947 2416 947 1791 
Q 947 1169 1205 825 
Q 1463 481 1925 481 
Q 2391 481 2648 825 
Q 2906 1169 2906 1791 
z
M 3481 434 
Q 3481 -459 3084 -895 
Q 2688 -1331 1869 -1331 
Q 1566 -1331 1297 -1286 
Q 1028 -1241 775 -1147 
L 775 -588 
Q 1028 -725 1275 -790 
Q 1522 -856 1778 -856 
Q 2344 -856 2625 -561 
Q 2906 -266 2906 331 
L 2906 616 
Q 2728 306 2450 153 
Q 2172 0 1784 0 
Q 1141 0 747 490 
Q 353 981 353 1791 
Q 353 2603 747 3093 
Q 1141 3584 1784 3584 
Q 2172 3584 2450 3431 
Q 2728 3278 2906 2969 
L 2906 3500 
L 3481 3500 
L 3481 434 
z
" transform="scale(0.015625)"/>
       <path id="DejaVuSans-6b" d="M 581 4863 
L 1159 4863 
L 1159 1991 
L 2875 3500 
L 3609 3500 
L 1753 1863 
L 3688 0 
L 2938 0 
L 1159 1709 
L 1159 0 
L 581 0 
L 581 4863 
z
" transform="scale(0.015625)"/>
       <path id="DejaVuSans-68" d="M 3513 2113 
L 3513 0 
L 2938 0 
L 2938 2094 
Q 2938 2591 2744 2837 
Q 2550 3084 2163 3084 
Q 1697 3084 1428 2787 
Q 1159 2491 1159 1978 
L 1159 0 
L 581 0 
L 581 4863 
L 1159 4863 
L 1159 2956 
Q 1366 3272 1645 3428 
Q 1925 3584 2291 3584 
Q 2894 3584 3203 3211 
Q 3513 2838 3513 2113 
z
" transform="scale(0.015625)"/>
      </defs>
      <use xlink:href="#DejaVuSans-394" transform="translate(0 0.015625)"/>
      <use xlink:href="#DejaVuSans-20" transform="translate(68.408203 0.015625)"/>
      <use xlink:href="#DejaVuSans-6c" transform="translate(100.195312 0.015625)"/>
      <use xlink:href="#DejaVuSans-6f" transform="translate(127.978516 0.015625)"/>
      <use xlink:href="#DejaVuSans-67" transform="translate(189.160156 0.015625)"/>
      <use xlink:href="#DejaVuSans-20" transform="translate(252.636719 0.015625)"/>
      <use xlink:href="#DejaVuSans-6c" transform="translate(284.423828 0.015625)"/>
      <use xlink:href="#DejaVuSans-69" transform="translate(312.207031 0.015625)"/>
      <use xlink:href="#DejaVuSans-6b" transform="translate(339.990234 0.015625)"/>
      <use xlink:href="#DejaVuSans-65" transform="translate(397.900391 0.015625)"/>
      <use xlink:href="#DejaVuSans-6c" transform="translate(459.423828 0.015625)"/>
      <use xlink:href="#DejaVuSans-69" transform="translate(487.207031 0.015625)"/>
      <use xlink:href="#DejaVuSans-68" transform="translate(514.990234 0.015625)"/>
      <use xlink:href="#DejaVuSans-6f" transform="translate(578.369141 0.015625)"/>
      <use xlink:href="#DejaVuSans-6f" transform="translate(639.550781 0.015625)"/>
      <use xlink:href="#DejaVuSans-64" transform="translate(700.732422 0.015625)"/>
     </g>
    </g>
    <g id="text_24">
     <!-- $\times\mathdefault{10^{3}}\mathdefault{}$ -->
     <g transform="translate(208.036 22.92) scale(0.1 -0.1)">
      <use xlink:href="#DejaVuSans-d7" transform="translate(0 0.765625)"/>
      <use xlink:href="#DejaVuSans-31" transform="translate(83.789062 0.765625)"/>
      <use xlink:href="#DejaVuSans-30" transform="translate(147.412109 0.765625)"/>
      <use xlink:href="#DejaVuSans-33" transform="translate(211.992188 39.046875) scale(0.7)"/>
     </g>
    </g>
   </g>
   <g id="LineCollection_1"/>
   <g id="patch_8">
    <path d="M 225.72 192.24 
L 229.878 192.24 
L 234.036 192.24 
L 234.036 25.92 
L 229.878 25.92 
L 225.72 25.92 
L 225.72 192.24 
z
" style="fill: none; stroke: #000000; stroke-width: 0.8; stroke-linejoin: miter; stroke-linecap: square"/>
   </g>
  </g>
 </g>
 <defs>
  <clipPath id="p3db8824a41">
   <rect x="36" y="25.92" width="178.56" height="166.32"/>
  </clipPath>
  <clipPath id="pe6b80d5e06">
   <rect x="225.72" y="25.92" width="8.316" height="166.32"/>
  </clipPath>
 </defs>
</svg>
