<?xml version="1.0" encoding="utf-8" standalone="no"?>
<!DOCTYPE svg PUBLIC "-//W3C//DTD SVG 1.1//EN"
  "http://www.w3.org/Graphics/SVG/1.1/DTD/svg11.dtd">
<svg xmlns:xlink="http://www.w3.org/1999/xlink" width="288pt" height="216pt" viewBox="0 0 288 216" xmlns="http://www.w3.org/2000/svg" version="1.1">
 <metadata>
  <rdf:RDF xmlns:dc="http://purl.org/dc/elements/1.1/" xmlns:cc="http://creativecommons.org/ns#" xmlns:rdf="http://www.w3.org/1999/02/22-rdf-syntax-ns#">
   <cc:Work>
    <dc:type rdf:resource="http://purl.org/dc/dcmitype/StillImage"/>
    <dc:date>2023-07-18T17:02:24.313655</dc:date>
    <dc:format>image/svg+xml</dc:format>
    <dc:creator>
     <cc:Agent>
      <dc:title>Matplotlib v3.7.1, https://matplotlib.org/</dc:title>
     </cc:Agent>
    </dc:creator>
   </cc:Work>
  </rdf:RDF>
 </metadata>
 <defs>
  <style type="text/css">*{stroke-linejoin: round; stroke-linecap: butt}</style>
 </defs>
 <g id="figure_1">
  <g id="patch_1">
   <path d="M 0 216 
L 288 216 
L 288 0 
L 0 0 
z
" style="fill: #ffffff"/>
  </g>
  <g id="axes_1">
   <g id="patch_2">
    <path d="M 36 192.24 
L 214.56 192.24 
L 214.56 25.92 
L 36 25.92 
z
" style="fill: #ffffff"/>
   </g>
   <g id="PathCollection_1">
    <path d="M 36.205454 192.24 
L 36 192.24 
L 36 192.126756 
z
" clip-path="url(#p9abe1c8e5a)" style="fill: #440154"/>
   </g>
   <g id="PathCollection_2">
    <path d="M 37.346414 192.24 
L 36.205454 192.24 
L 36 192.126756 
L 36 191.497867 
z
" clip-path="url(#p9abe1c8e5a)" style="fill: #440154"/>
   </g>
   <g id="PathCollection_3">
    <path d="M 38.487374 192.24 
L 37.346414 192.24 
L 36 191.497867 
L 36 190.868978 
z
" clip-path="url(#p9abe1c8e5a)" style="fill: #440154"/>
   </g>
   <g id="PathCollection_4">
    <path d="M 39.628334 192.24 
L 38.487374 192.24 
L 36 190.868978 
L 36 190.240089 
z
" clip-path="url(#p9abe1c8e5a)" style="fill: #440154"/>
   </g>
   <g id="PathCollection_5">
    <path d="M 40.769295 192.24 
L 39.628334 192.24 
L 36 190.240089 
L 36 189.6112 
z
" clip-path="url(#p9abe1c8e5a)" style="fill: #440154"/>
   </g>
   <g id="PathCollection_6">
    <path d="M 41.910255 192.24 
L 40.769295 192.24 
L 36 189.6112 
L 36 188.982311 
z
" clip-path="url(#p9abe1c8e5a)" style="fill: #440154"/>
   </g>
   <g id="PathCollection_7">
    <path d="M 41.952 191.634121 
L 44.648932 192.24 
L 41.952 192.24 
L 41.910255 192.24 
L 36 188.982311 
L 36 188.353423 
z
" clip-path="url(#p9abe1c8e5a)" style="fill: #440154"/>
   </g>
   <g id="PathCollection_8">
    <path d="M 41.952 191.005232 
L 47.448286 192.24 
L 44.648932 192.24 
L 41.952 191.634121 
L 36 188.353423 
L 36 187.724534 
z
" clip-path="url(#p9abe1c8e5a)" style="fill: #440154"/>
   </g>
   <g id="PathCollection_9">
    <path d="M 41.952 190.376343 
L 47.904 191.71349 
L 52.532414 192.24 
L 47.904 192.24 
L 47.448286 192.24 
L 41.952 191.005232 
L 36 187.724534 
L 36 187.095645 
z
" clip-path="url(#p9abe1c8e5a)" style="fill: #440154"/>
   </g>
   <g id="PathCollection_10">
    <path d="M 36 186.696 
L 36 186.146363 
L 36.415905 186.696 
L 41.952 189.747454 
L 47.904 191.084601 
L 53.856 191.761677 
L 59.808 192.143763 
L 62.316499 192.24 
L 59.808 192.24 
L 53.856 192.24 
L 52.532414 192.24 
L 47.904 191.71349 
L 41.952 190.376343 
L 36 187.095645 
z
" clip-path="url(#p9abe1c8e5a)" style="fill: #440154"/>
    <path d="M 202.656 192.230269 
L 208.608 192.200937 
L 214.56 192.171944 
L 214.56 192.24 
L 208.608 192.24 
L 202.656 192.24 
L 200.702498 192.24 
z
" clip-path="url(#p9abe1c8e5a)" style="fill: #440154"/>
   </g>
   <g id="PathCollection_11">
    <path d="M 36.415905 186.696 
L 36 186.146363 
L 36 184.638533 
L 37.556865 186.696 
L 41.952 189.118565 
L 47.904 190.455712 
L 53.856 191.132788 
L 59.808 191.514875 
L 65.76 191.743218 
L 71.712 191.883125 
L 77.664 191.968558 
L 83.616 192.018729 
L 89.568 192.045212 
L 95.52 192.055324 
L 101.472 192.053881 
L 107.424 192.044148 
L 113.376 192.028401 
L 119.328 192.008263 
L 125.28 191.984908 
L 131.232 191.959201 
L 137.184 191.931788 
L 143.136 191.903157 
L 149.088 191.873679 
L 155.04 191.843637 
L 160.992 191.813252 
L 166.944 191.782693 
L 172.896 191.752093 
L 178.848 191.721556 
L 184.8 191.69116 
L 190.752 191.660968 
L 196.704 191.631029 
L 202.656 191.60138 
L 208.608 191.572048 
L 214.56 191.543055 
L 214.56 192.171944 
L 208.608 192.200937 
L 202.656 192.230269 
L 200.702498 192.24 
L 196.704 192.24 
L 190.752 192.24 
L 184.8 192.24 
L 178.848 192.24 
L 172.896 192.24 
L 166.944 192.24 
L 160.992 192.24 
L 155.04 192.24 
L 149.088 192.24 
L 143.136 192.24 
L 137.184 192.24 
L 131.232 192.24 
L 125.28 192.24 
L 119.328 192.24 
L 113.376 192.24 
L 107.424 192.24 
L 101.472 192.24 
L 95.52 192.24 
L 89.568 192.24 
L 83.616 192.24 
L 77.664 192.24 
L 71.712 192.24 
L 65.76 192.24 
L 62.316499 192.24 
L 59.808 192.143763 
L 53.856 191.761677 
L 47.904 191.084601 
L 41.952 189.747454 
z
" clip-path="url(#p9abe1c8e5a)" style="fill: #440154"/>
   </g>
   <g id="PathCollection_12">
    <path d="M 37.556865 186.696 
L 36 184.638533 
L 36 183.130703 
L 38.697826 186.696 
L 41.952 188.489677 
L 47.904 189.826823 
L 53.856 190.503899 
L 59.808 190.885986 
L 65.76 191.11433 
L 71.712 191.254236 
L 77.664 191.339669 
L 83.616 191.38984 
L 89.568 191.416323 
L 95.52 191.426435 
L 101.472 191.424992 
L 107.424 191.415259 
L 113.376 191.399513 
L 119.328 191.379374 
L 125.28 191.356019 
L 131.232 191.330312 
L 137.184 191.302899 
L 143.136 191.274268 
L 149.088 191.24479 
L 155.04 191.214748 
L 160.992 191.184363 
L 166.944 191.153804 
L 172.896 191.123205 
L 178.848 191.092667 
L 184.8 191.062271 
L 190.752 191.03208 
L 196.704 191.002141 
L 202.656 190.972491 
L 208.608 190.943159 
L 214.56 190.914166 
L 214.56 191.543055 
L 208.608 191.572048 
L 202.656 191.60138 
L 196.704 191.631029 
L 190.752 191.660968 
L 184.8 191.69116 
L 178.848 191.721556 
L 172.896 191.752093 
L 166.944 191.782693 
L 160.992 191.813252 
L 155.04 191.843637 
L 149.088 191.873679 
L 143.136 191.903157 
L 137.184 191.931788 
L 131.232 191.959201 
L 125.28 191.984908 
L 119.328 192.008263 
L 113.376 192.028401 
L 107.424 192.044148 
L 101.472 192.053881 
L 95.52 192.055324 
L 89.568 192.045212 
L 83.616 192.018729 
L 77.664 191.968558 
L 71.712 191.883125 
L 65.76 191.743218 
L 59.808 191.514875 
L 53.856 191.132788 
L 47.904 190.455712 
L 41.952 189.118565 
z
" clip-path="url(#p9abe1c8e5a)" style="fill: #440154"/>
   </g>
   <g id="PathCollection_13">
    <path d="M 38.697826 186.696 
L 36 183.130703 
L 36 181.622873 
L 39.838786 186.696 
L 41.952 187.860788 
L 47.904 189.197934 
L 53.856 189.875011 
L 59.808 190.257097 
L 65.76 190.485441 
L 71.712 190.625347 
L 77.664 190.71078 
L 83.616 190.760952 
L 89.568 190.787434 
L 95.52 190.797547 
L 101.472 190.796103 
L 107.424 190.78637 
L 113.376 190.770624 
L 119.328 190.750485 
L 125.28 190.72713 
L 131.232 190.701423 
L 137.184 190.674011 
L 143.136 190.64538 
L 149.088 190.615901 
L 155.04 190.585859 
L 160.992 190.555474 
L 166.944 190.524916 
L 172.896 190.494316 
L 178.848 190.463778 
L 184.8 190.433382 
L 190.752 190.403191 
L 196.704 190.373252 
L 202.656 190.343602 
L 208.608 190.31427 
L 214.56 190.285277 
L 214.56 190.914166 
L 208.608 190.943159 
L 202.656 190.972491 
L 196.704 191.002141 
L 190.752 191.03208 
L 184.8 191.062271 
L 178.848 191.092667 
L 172.896 191.123205 
L 166.944 191.153804 
L 160.992 191.184363 
L 155.04 191.214748 
L 149.088 191.24479 
L 143.136 191.274268 
L 137.184 191.302899 
L 131.232 191.330312 
L 125.28 191.356019 
L 119.328 191.379374 
L 113.376 191.399513 
L 107.424 191.415259 
L 101.472 191.424992 
L 95.52 191.426435 
L 89.568 191.416323 
L 83.616 191.38984 
L 77.664 191.339669 
L 71.712 191.254236 
L 65.76 191.11433 
L 59.808 190.885986 
L 53.856 190.503899 
L 47.904 189.826823 
L 41.952 188.489677 
z
" clip-path="url(#p9abe1c8e5a)" style="fill: #440154"/>
   </g>
   <g id="PathCollection_14">
    <path d="M 39.838786 186.696 
L 36 181.622873 
L 36 181.152 
L 36 179.160558 
L 36.784655 181.152 
L 40.979746 186.696 
L 41.952 187.231899 
L 47.904 188.569046 
L 53.856 189.246122 
L 59.808 189.628208 
L 65.76 189.856552 
L 71.712 189.996458 
L 77.664 190.081891 
L 83.616 190.132063 
L 89.568 190.158545 
L 95.52 190.168658 
L 101.472 190.167214 
L 107.424 190.157481 
L 113.376 190.141735 
L 119.328 190.121597 
L 125.28 190.098241 
L 131.232 190.072534 
L 137.184 190.045122 
L 143.136 190.016491 
L 149.088 189.987012 
L 155.04 189.95697 
L 160.992 189.926585 
L 166.944 189.896027 
L 172.896 189.865427 
L 178.848 189.834889 
L 184.8 189.804493 
L 190.752 189.774302 
L 196.704 189.744363 
L 202.656 189.714714 
L 208.608 189.685382 
L 214.56 189.656388 
L 214.56 190.285277 
L 208.608 190.31427 
L 202.656 190.343602 
L 196.704 190.373252 
L 190.752 190.403191 
L 184.8 190.433382 
L 178.848 190.463778 
L 172.896 190.494316 
L 166.944 190.524916 
L 160.992 190.555474 
L 155.04 190.585859 
L 149.088 190.615901 
L 143.136 190.64538 
L 137.184 190.674011 
L 131.232 190.701423 
L 125.28 190.72713 
L 119.328 190.750485 
L 113.376 190.770624 
L 107.424 190.78637 
L 101.472 190.796103 
L 95.52 190.797547 
L 89.568 190.787434 
L 83.616 190.760952 
L 77.664 190.71078 
L 71.712 190.625347 
L 65.76 190.485441 
L 59.808 190.257097 
L 53.856 189.875011 
L 47.904 189.197934 
L 41.952 187.860788 
z
" clip-path="url(#p9abe1c8e5a)" style="fill: #440154"/>
   </g>
   <g id="PathCollection_15">
    <path d="M 40.979746 186.696 
L 36.784655 181.152 
L 36 179.160558 
L 36 176.26482 
L 37.925615 181.152 
L 41.952 186.473047 
L 42.365923 186.696 
L 47.904 187.940157 
L 53.856 188.617233 
L 59.808 188.999319 
L 65.76 189.227663 
L 71.712 189.367569 
L 77.664 189.453002 
L 83.616 189.503174 
L 89.568 189.529656 
L 95.52 189.539769 
L 101.472 189.538325 
L 107.424 189.528592 
L 113.376 189.512846 
L 119.328 189.492708 
L 125.28 189.469352 
L 131.232 189.443645 
L 137.184 189.416233 
L 143.136 189.387602 
L 149.088 189.358123 
L 155.04 189.328082 
L 160.992 189.297696 
L 166.944 189.267138 
L 172.896 189.236538 
L 178.848 189.206 
L 184.8 189.175605 
L 190.752 189.145413 
L 196.704 189.115474 
L 202.656 189.085825 
L 208.608 189.056493 
L 214.56 189.027499 
L 214.56 189.656388 
L 208.608 189.685382 
L 202.656 189.714714 
L 196.704 189.744363 
L 190.752 189.774302 
L 184.8 189.804493 
L 178.848 189.834889 
L 172.896 189.865427 
L 166.944 189.896027 
L 160.992 189.926585 
L 155.04 189.95697 
L 149.088 189.987012 
L 143.136 190.016491 
L 137.184 190.045122 
L 131.232 190.072534 
L 125.28 190.098241 
L 119.328 190.121597 
L 113.376 190.141735 
L 107.424 190.157481 
L 101.472 190.167214 
L 95.52 190.168658 
L 89.568 190.158545 
L 83.616 190.132063 
L 77.664 190.081891 
L 71.712 189.996458 
L 65.76 189.856552 
L 59.808 189.628208 
L 53.856 189.246122 
L 47.904 188.569046 
L 41.952 187.231899 
z
" clip-path="url(#p9abe1c8e5a)" style="fill: #440154"/>
   </g>
   <g id="PathCollection_16">
    <path d="M 37.925615 181.152 
L 36 176.26482 
L 36 175.608 
L 36 171.77646 
L 36.882164 175.608 
L 39.066576 181.152 
L 41.952 184.965217 
L 45.165276 186.696 
L 47.904 187.311268 
L 53.856 187.988344 
L 59.808 188.37043 
L 65.76 188.598774 
L 71.712 188.73868 
L 77.664 188.824114 
L 83.616 188.874285 
L 89.568 188.900768 
L 95.52 188.91088 
L 101.472 188.909436 
L 107.424 188.899703 
L 113.376 188.883957 
L 119.328 188.863819 
L 125.28 188.840464 
L 131.232 188.814757 
L 137.184 188.787344 
L 143.136 188.758713 
L 149.088 188.729235 
L 155.04 188.699193 
L 160.992 188.668808 
L 166.944 188.638249 
L 172.896 188.607649 
L 178.848 188.577111 
L 184.8 188.546716 
L 190.752 188.516524 
L 196.704 188.486585 
L 202.656 188.456936 
L 208.608 188.427604 
L 214.56 188.398611 
L 214.56 189.027499 
L 208.608 189.056493 
L 202.656 189.085825 
L 196.704 189.115474 
L 190.752 189.145413 
L 184.8 189.175605 
L 178.848 189.206 
L 172.896 189.236538 
L 166.944 189.267138 
L 160.992 189.297696 
L 155.04 189.328082 
L 149.088 189.358123 
L 143.136 189.387602 
L 137.184 189.416233 
L 131.232 189.443645 
L 125.28 189.469352 
L 119.328 189.492708 
L 113.376 189.512846 
L 107.424 189.528592 
L 101.472 189.538325 
L 95.52 189.539769 
L 89.568 189.529656 
L 83.616 189.503174 
L 77.664 189.453002 
L 71.712 189.367569 
L 65.76 189.227663 
L 59.808 188.999319 
L 53.856 188.617233 
L 47.904 187.940157 
L 42.365923 186.696 
L 41.952 186.473047 
z
" clip-path="url(#p9abe1c8e5a)" style="fill: #481a6c"/>
   </g>
   <g id="PathCollection_17">
    <path d="M 39.066576 181.152 
L 36.882164 175.608 
L 36 171.77646 
L 36 170.064 
L 36 164.875467 
L 36.746688 170.064 
L 38.023125 175.608 
L 40.207536 181.152 
L 41.952 183.457387 
L 47.904 186.663342 
L 48.023738 186.696 
L 53.856 187.359455 
L 59.808 187.741542 
L 65.76 187.969886 
L 71.712 188.109792 
L 77.664 188.195225 
L 83.616 188.245396 
L 89.568 188.271879 
L 95.52 188.281991 
L 101.472 188.280548 
L 107.424 188.270815 
L 113.376 188.255069 
L 119.328 188.23493 
L 125.28 188.211575 
L 131.232 188.185868 
L 137.184 188.158455 
L 143.136 188.129824 
L 149.088 188.100346 
L 155.04 188.070304 
L 160.992 188.039919 
L 166.944 188.00936 
L 172.896 187.978761 
L 178.848 187.948223 
L 184.8 187.917827 
L 190.752 187.887635 
L 196.704 187.857697 
L 202.656 187.828047 
L 208.608 187.798715 
L 214.56 187.769722 
L 214.56 188.398611 
L 208.608 188.427604 
L 202.656 188.456936 
L 196.704 188.486585 
L 190.752 188.516524 
L 184.8 188.546716 
L 178.848 188.577111 
L 172.896 188.607649 
L 166.944 188.638249 
L 160.992 188.668808 
L 155.04 188.699193 
L 149.088 188.729235 
L 143.136 188.758713 
L 137.184 188.787344 
L 131.232 188.814757 
L 125.28 188.840464 
L 119.328 188.863819 
L 113.376 188.883957 
L 107.424 188.899703 
L 101.472 188.909436 
L 95.52 188.91088 
L 89.568 188.900768 
L 83.616 188.874285 
L 77.664 188.824114 
L 71.712 188.73868 
L 65.76 188.598774 
L 59.808 188.37043 
L 53.856 187.988344 
L 47.904 187.311268 
L 45.165276 186.696 
L 41.952 184.965217 
z
" clip-path="url(#p9abe1c8e5a)" style="fill: #46307e"/>
   </g>
   <g id="PathCollection_18">
    <path d="M 40.207536 181.152 
L 38.023125 175.608 
L 36.746688 170.064 
L 36 164.875467 
L 36 164.52 
L 36 158.976 
L 36 153.432 
L 36 148.008447 
L 36.225645 153.432 
L 36.570698 158.976 
L 37.089805 164.52 
L 37.887648 170.064 
L 39.164085 175.608 
L 41.348496 181.152 
L 41.952 181.949557 
L 47.904 185.155513 
L 53.552134 186.696 
L 53.856 186.730567 
L 59.808 187.112653 
L 65.76 187.340997 
L 71.712 187.480903 
L 77.664 187.566336 
L 83.616 187.616508 
L 89.568 187.64299 
L 95.52 187.653103 
L 101.472 187.651659 
L 107.424 187.641926 
L 113.376 187.62618 
L 119.328 187.606041 
L 125.28 187.582686 
L 131.232 187.556979 
L 137.184 187.529566 
L 143.136 187.500935 
L 149.088 187.471457 
L 155.04 187.441415 
L 160.992 187.41103 
L 166.944 187.380471 
L 172.896 187.349872 
L 178.848 187.319334 
L 184.8 187.288938 
L 190.752 187.258747 
L 196.704 187.228808 
L 202.656 187.199158 
L 208.608 187.169826 
L 214.56 187.140833 
L 214.56 187.769722 
L 208.608 187.798715 
L 202.656 187.828047 
L 196.704 187.857697 
L 190.752 187.887635 
L 184.8 187.917827 
L 178.848 187.948223 
L 172.896 187.978761 
L 166.944 188.00936 
L 160.992 188.039919 
L 155.04 188.070304 
L 149.088 188.100346 
L 143.136 188.129824 
L 137.184 188.158455 
L 131.232 188.185868 
L 125.28 188.211575 
L 119.328 188.23493 
L 113.376 188.255069 
L 107.424 188.270815 
L 101.472 188.280548 
L 95.52 188.281991 
L 89.568 188.271879 
L 83.616 188.245396 
L 77.664 188.195225 
L 71.712 188.109792 
L 65.76 187.969886 
L 59.808 187.741542 
L 53.856 187.359455 
L 48.023738 186.696 
L 47.904 186.663342 
L 41.952 183.457387 
z
" clip-path="url(#p9abe1c8e5a)" style="fill: #404588"/>
    <path d="M 36 70.272 
L 36 64.728 
L 36 59.184 
L 36 53.64 
L 36 48.096 
L 36 42.552 
L 36 37.008 
L 36 31.464 
L 36 25.92 
L 36.508271 25.92 
L 36.446679 31.464 
L 36.384887 37.008 
L 36.323012 42.552 
L 36.261198 48.096 
L 36.199622 53.64 
L 36.138501 59.184 
L 36.078104 64.728 
L 36.018763 70.272 
L 36 72.069369 
z
" clip-path="url(#p9abe1c8e5a)" style="fill: #404588"/>
   </g>
   <g id="PathCollection_19">
    <path d="M 41.348496 181.152 
L 39.164085 175.608 
L 37.887648 170.064 
L 37.089805 164.52 
L 36.570698 158.976 
L 36.225645 153.432 
L 36 148.008447 
L 36 147.888 
L 36 142.344 
L 36 136.8 
L 36 131.256 
L 36 125.712 
L 36 120.168 
L 36 114.624 
L 36 109.08 
L 36 103.536 
L 36 97.992 
L 36 92.448 
L 36 86.904 
L 36 81.36 
L 36 75.816 
L 36 72.069369 
L 36.018763 70.272 
L 36.078104 64.728 
L 36.138501 59.184 
L 36.199622 53.64 
L 36.261198 48.096 
L 36.323012 42.552 
L 36.384887 37.008 
L 36.446679 31.464 
L 36.508271 25.92 
L 37.649232 25.92 
L 37.58764 31.464 
L 37.525848 37.008 
L 37.463973 42.552 
L 37.402158 48.096 
L 37.340582 53.64 
L 37.279461 59.184 
L 37.219064 64.728 
L 37.159723 70.272 
L 37.101849 75.816 
L 37.045956 81.36 
L 36.992686 86.904 
L 36.942846 92.448 
L 36.897463 97.992 
L 36.85785 103.536 
L 36.825698 109.08 
L 36.803219 114.624 
L 36.793331 120.168 
L 36.799944 125.712 
L 36.828388 131.256 
L 36.88606 136.8 
L 36.983469 142.344 
L 37.135949 147.888 
L 37.366605 153.432 
L 37.711658 158.976 
L 38.230765 164.52 
L 39.028608 170.064 
L 40.305045 175.608 
L 41.952 179.787944 
L 43.270654 181.152 
L 47.904 183.647683 
L 53.856 185.271047 
L 59.808 186.187141 
L 65.340131 186.696 
L 65.76 186.712108 
L 71.712 186.852014 
L 77.664 186.937447 
L 83.616 186.987619 
L 89.568 187.014101 
L 95.52 187.024214 
L 101.472 187.02277 
L 107.424 187.013037 
L 113.376 186.997291 
L 119.328 186.977153 
L 125.28 186.953797 
L 131.232 186.92809 
L 137.184 186.900678 
L 143.136 186.872047 
L 149.088 186.842568 
L 155.04 186.812526 
L 160.992 186.782141 
L 166.944 186.751583 
L 172.896 186.720983 
L 177.765309 186.696 
L 178.848 186.682681 
L 184.8 186.609804 
L 190.752 186.537417 
L 196.704 186.465635 
L 202.656 186.394547 
L 208.608 186.324221 
L 214.56 186.254706 
L 214.56 186.696 
L 214.56 187.140833 
L 208.608 187.169826 
L 202.656 187.199158 
L 196.704 187.228808 
L 190.752 187.258747 
L 184.8 187.288938 
L 178.848 187.319334 
L 172.896 187.349872 
L 166.944 187.380471 
L 160.992 187.41103 
L 155.04 187.441415 
L 149.088 187.471457 
L 143.136 187.500935 
L 137.184 187.529566 
L 131.232 187.556979 
L 125.28 187.582686 
L 119.328 187.606041 
L 113.376 187.62618 
L 107.424 187.641926 
L 101.472 187.651659 
L 95.52 187.653103 
L 89.568 187.64299 
L 83.616 187.616508 
L 77.664 187.566336 
L 71.712 187.480903 
L 65.76 187.340997 
L 59.808 187.112653 
L 53.856 186.730567 
L 53.552134 186.696 
L 47.904 185.155513 
L 41.952 181.949557 
z
" clip-path="url(#p9abe1c8e5a)" style="fill: #38598c"/>
   </g>
   <g id="PathCollection_20">
    <path d="M 40.305045 175.608 
L 39.028608 170.064 
L 38.230765 164.52 
L 37.711658 158.976 
L 37.366605 153.432 
L 37.135949 147.888 
L 36.983469 142.344 
L 36.88606 136.8 
L 36.828388 131.256 
L 36.799944 125.712 
L 36.793331 120.168 
L 36.803219 114.624 
L 36.825698 109.08 
L 36.85785 103.536 
L 36.897463 97.992 
L 36.942846 92.448 
L 36.992686 86.904 
L 37.045956 81.36 
L 37.101849 75.816 
L 37.159723 70.272 
L 37.219064 64.728 
L 37.279461 59.184 
L 37.340582 53.64 
L 37.402158 48.096 
L 37.463973 42.552 
L 37.525848 37.008 
L 37.58764 31.464 
L 37.649232 25.92 
L 38.790192 25.92 
L 38.7286 31.464 
L 38.666808 37.008 
L 38.604933 42.552 
L 38.543119 48.096 
L 38.481542 53.64 
L 38.420421 59.184 
L 38.360024 64.728 
L 38.300683 70.272 
L 38.24281 75.816 
L 38.186917 81.36 
L 38.133646 86.904 
L 38.083806 92.448 
L 38.038424 97.992 
L 37.99881 103.536 
L 37.966659 109.08 
L 37.944179 114.624 
L 37.934291 120.168 
L 37.940905 125.712 
L 37.969348 131.256 
L 38.02702 136.8 
L 38.12443 142.344 
L 38.276909 147.888 
L 38.507565 153.432 
L 38.852618 158.976 
L 39.371725 164.52 
L 40.169569 170.064 
L 41.446006 175.608 
L 41.952 176.892206 
L 46.070007 181.152 
L 47.904 182.139853 
L 53.856 183.763217 
L 59.808 184.679311 
L 65.76 185.226791 
L 71.712 185.562231 
L 77.664 185.767066 
L 83.616 185.887358 
L 89.568 185.950852 
L 95.52 185.975099 
L 101.472 185.971637 
L 107.424 185.948301 
L 113.376 185.910548 
L 119.328 185.862264 
L 125.28 185.806267 
L 131.232 185.744632 
L 137.184 185.678907 
L 143.136 185.610261 
L 149.088 185.539583 
L 155.04 185.467555 
L 160.992 185.394703 
L 166.944 185.321435 
L 172.896 185.248069 
L 178.848 185.174851 
L 184.8 185.101974 
L 190.752 185.029587 
L 196.704 184.957805 
L 202.656 184.886717 
L 208.608 184.816391 
L 214.56 184.746876 
L 214.56 186.254706 
L 208.608 186.324221 
L 202.656 186.394547 
L 196.704 186.465635 
L 190.752 186.537417 
L 184.8 186.609804 
L 178.848 186.682681 
L 177.765309 186.696 
L 172.896 186.720983 
L 166.944 186.751583 
L 160.992 186.782141 
L 155.04 186.812526 
L 149.088 186.842568 
L 143.136 186.872047 
L 137.184 186.900678 
L 131.232 186.92809 
L 125.28 186.953797 
L 119.328 186.977153 
L 113.376 186.997291 
L 107.424 187.013037 
L 101.472 187.02277 
L 95.52 187.024214 
L 89.568 187.014101 
L 83.616 186.987619 
L 77.664 186.937447 
L 71.712 186.852014 
L 65.76 186.712108 
L 65.340131 186.696 
L 59.808 186.187141 
L 53.856 185.271047 
L 47.904 183.647683 
L 43.270654 181.152 
L 41.952 179.787944 
z
" clip-path="url(#p9abe1c8e5a)" style="fill: #2f6b8e"/>
   </g>
   <g id="PathCollection_21">
    <path d="M 41.446006 175.608 
L 40.169569 170.064 
L 39.371725 164.52 
L 38.852618 158.976 
L 38.507565 153.432 
L 38.276909 147.888 
L 38.12443 142.344 
L 38.02702 136.8 
L 37.969348 131.256 
L 37.940905 125.712 
L 37.934291 120.168 
L 37.944179 114.624 
L 37.966659 109.08 
L 37.99881 103.536 
L 38.038424 97.992 
L 38.083806 92.448 
L 38.133646 86.904 
L 38.186917 81.36 
L 38.24281 75.816 
L 38.300683 70.272 
L 38.360024 64.728 
L 38.420421 59.184 
L 38.481542 53.64 
L 38.543119 48.096 
L 38.604933 42.552 
L 38.666808 37.008 
L 38.7286 31.464 
L 38.790192 25.92 
L 39.931152 25.92 
L 39.86956 31.464 
L 39.807768 37.008 
L 39.745893 42.552 
L 39.684079 48.096 
L 39.622503 53.64 
L 39.561382 59.184 
L 39.500985 64.728 
L 39.441644 70.272 
L 39.38377 75.816 
L 39.327877 81.36 
L 39.274606 86.904 
L 39.224767 92.448 
L 39.179384 97.992 
L 39.13977 103.536 
L 39.107619 109.08 
L 39.08514 114.624 
L 39.075251 120.168 
L 39.081865 125.712 
L 39.110308 131.256 
L 39.16798 136.8 
L 39.26539 142.344 
L 39.41787 147.888 
L 39.648526 153.432 
L 39.993579 158.976 
L 40.512686 164.52 
L 41.310529 170.064 
L 41.952 172.850127 
L 43.509893 175.608 
L 47.904 180.153401 
L 49.810475 181.152 
L 53.856 182.255387 
L 59.808 183.171481 
L 65.76 183.718961 
L 71.712 184.054401 
L 77.664 184.259236 
L 83.616 184.379528 
L 89.568 184.443022 
L 95.52 184.467269 
L 101.472 184.463807 
L 107.424 184.440471 
L 113.376 184.402718 
L 119.328 184.354434 
L 125.28 184.298437 
L 131.232 184.236802 
L 137.184 184.171077 
L 143.136 184.102431 
L 149.088 184.031753 
L 155.04 183.959725 
L 160.992 183.886873 
L 166.944 183.813606 
L 172.896 183.740239 
L 178.848 183.667022 
L 184.8 183.594144 
L 190.752 183.521757 
L 196.704 183.449975 
L 202.656 183.378887 
L 208.608 183.308561 
L 214.56 183.239046 
L 214.56 184.746876 
L 208.608 184.816391 
L 202.656 184.886717 
L 196.704 184.957805 
L 190.752 185.029587 
L 184.8 185.101974 
L 178.848 185.174851 
L 172.896 185.248069 
L 166.944 185.321435 
L 160.992 185.394703 
L 155.04 185.467555 
L 149.088 185.539583 
L 143.136 185.610261 
L 137.184 185.678907 
L 131.232 185.744632 
L 125.28 185.806267 
L 119.328 185.862264 
L 113.376 185.910548 
L 107.424 185.948301 
L 101.472 185.971637 
L 95.52 185.975099 
L 89.568 185.950852 
L 83.616 185.887358 
L 77.664 185.767066 
L 71.712 185.562231 
L 65.76 185.226791 
L 59.808 184.679311 
L 53.856 183.763217 
L 47.904 182.139853 
L 46.070007 181.152 
L 41.952 176.892206 
z
" clip-path="url(#p9abe1c8e5a)" style="fill: #297b8e"/>
   </g>
   <g id="PathCollection_22">
    <path d="M 41.310529 170.064 
L 40.512686 164.52 
L 39.993579 158.976 
L 39.648526 153.432 
L 39.41787 147.888 
L 39.26539 142.344 
L 39.16798 136.8 
L 39.110308 131.256 
L 39.081865 125.712 
L 39.075251 120.168 
L 39.08514 114.624 
L 39.107619 109.08 
L 39.13977 103.536 
L 39.179384 97.992 
L 39.224767 92.448 
L 39.274606 86.904 
L 39.327877 81.36 
L 39.38377 75.816 
L 39.441644 70.272 
L 39.500985 64.728 
L 39.561382 59.184 
L 39.622503 53.64 
L 39.684079 48.096 
L 39.745893 42.552 
L 39.807768 37.008 
L 39.86956 31.464 
L 39.931152 25.92 
L 41.072113 25.92 
L 41.010521 31.464 
L 40.948729 37.008 
L 40.886854 42.552 
L 40.825039 48.096 
L 40.763463 53.64 
L 40.702342 59.184 
L 40.641945 64.728 
L 40.582604 70.272 
L 40.52473 75.816 
L 40.468837 81.36 
L 40.415567 86.904 
L 40.365727 92.448 
L 40.320344 97.992 
L 40.280731 103.536 
L 40.248579 109.08 
L 40.2261 114.624 
L 40.216212 120.168 
L 40.222825 125.712 
L 40.251269 131.256 
L 40.308941 136.8 
L 40.40635 142.344 
L 40.55883 147.888 
L 40.789486 153.432 
L 41.134539 158.976 
L 41.653646 164.52 
L 41.952 166.593183 
L 43.1775 170.064 
L 46.309247 175.608 
L 47.904 177.257662 
L 53.856 180.375281 
L 56.483724 181.152 
L 59.808 181.663651 
L 65.76 182.211131 
L 71.712 182.546571 
L 77.664 182.751406 
L 83.616 182.871698 
L 89.568 182.935193 
L 95.52 182.959439 
L 101.472 182.955977 
L 107.424 182.932641 
L 113.376 182.894888 
L 119.328 182.846604 
L 125.28 182.790607 
L 131.232 182.728972 
L 137.184 182.663247 
L 143.136 182.594601 
L 149.088 182.523923 
L 155.04 182.451895 
L 160.992 182.379043 
L 166.944 182.305776 
L 172.896 182.232409 
L 178.848 182.159192 
L 184.8 182.086314 
L 190.752 182.013927 
L 196.704 181.942145 
L 202.656 181.871057 
L 208.608 181.800731 
L 214.56 181.731216 
L 214.56 183.239046 
L 208.608 183.308561 
L 202.656 183.378887 
L 196.704 183.449975 
L 190.752 183.521757 
L 184.8 183.594144 
L 178.848 183.667022 
L 172.896 183.740239 
L 166.944 183.813606 
L 160.992 183.886873 
L 155.04 183.959725 
L 149.088 184.031753 
L 143.136 184.102431 
L 137.184 184.171077 
L 131.232 184.236802 
L 125.28 184.298437 
L 119.328 184.354434 
L 113.376 184.402718 
L 107.424 184.440471 
L 101.472 184.463807 
L 95.52 184.467269 
L 89.568 184.443022 
L 83.616 184.379528 
L 77.664 184.259236 
L 71.712 184.054401 
L 65.76 183.718961 
L 59.808 183.171481 
L 53.856 182.255387 
L 49.810475 181.152 
L 47.904 180.153401 
L 43.509893 175.608 
L 41.952 172.850127 
z
" clip-path="url(#p9abe1c8e5a)" style="fill: #228c8d"/>
   </g>
   <g id="PathCollection_23">
    <path d="M 41.653646 164.52 
L 41.134539 158.976 
L 40.789486 153.432 
L 40.55883 147.888 
L 40.40635 142.344 
L 40.308941 136.8 
L 40.251269 131.256 
L 40.222825 125.712 
L 40.216212 120.168 
L 40.2261 114.624 
L 40.248579 109.08 
L 40.280731 103.536 
L 40.320344 97.992 
L 40.365727 92.448 
L 40.415567 86.904 
L 40.468837 81.36 
L 40.52473 75.816 
L 40.582604 70.272 
L 40.641945 64.728 
L 40.702342 59.184 
L 40.763463 53.64 
L 40.825039 48.096 
L 40.886854 42.552 
L 40.948729 37.008 
L 41.010521 31.464 
L 41.072113 25.92 
L 41.952 25.92 
L 42.592544 25.92 
L 42.441428 31.464 
L 42.289821 37.008 
L 42.13801 42.552 
L 41.986348 48.096 
L 41.952 49.356449 
L 41.904423 53.64 
L 41.843302 59.184 
L 41.782905 64.728 
L 41.723564 70.272 
L 41.665691 75.816 
L 41.609798 81.36 
L 41.556527 86.904 
L 41.506687 92.448 
L 41.461305 97.992 
L 41.421691 103.536 
L 41.38954 109.08 
L 41.36706 114.624 
L 41.357172 120.168 
L 41.363785 125.712 
L 41.392229 131.256 
L 41.449901 136.8 
L 41.547311 142.344 
L 41.69979 147.888 
L 41.930446 153.432 
L 41.952 153.778308 
L 42.745707 158.976 
L 44.01934 164.52 
L 45.976854 170.064 
L 47.904 173.475546 
L 50.282945 175.608 
L 53.856 177.479543 
L 59.808 179.238871 
L 65.76 180.290288 
L 71.712 180.93449 
L 75.003022 181.152 
L 77.664 181.243576 
L 83.616 181.363868 
L 89.568 181.427363 
L 95.52 181.451609 
L 101.472 181.448147 
L 107.424 181.424811 
L 113.376 181.387058 
L 119.328 181.338774 
L 125.28 181.282777 
L 131.232 181.221142 
L 137.184 181.155417 
L 137.480306 181.152 
L 143.136 181.026731 
L 149.088 180.890996 
L 155.04 180.752668 
L 160.992 180.612758 
L 166.944 180.47205 
L 172.896 180.331153 
L 178.848 180.19054 
L 184.8 180.050582 
L 190.752 179.911565 
L 196.704 179.77371 
L 202.656 179.637188 
L 208.608 179.502129 
L 214.56 179.368628 
L 214.56 181.152 
L 214.56 181.731216 
L 208.608 181.800731 
L 202.656 181.871057 
L 196.704 181.942145 
L 190.752 182.013927 
L 184.8 182.086314 
L 178.848 182.159192 
L 172.896 182.232409 
L 166.944 182.305776 
L 160.992 182.379043 
L 155.04 182.451895 
L 149.088 182.523923 
L 143.136 182.594601 
L 137.184 182.663247 
L 131.232 182.728972 
L 125.28 182.790607 
L 119.328 182.846604 
L 113.376 182.894888 
L 107.424 182.932641 
L 101.472 182.955977 
L 95.52 182.959439 
L 89.568 182.935193 
L 83.616 182.871698 
L 77.664 182.751406 
L 71.712 182.546571 
L 65.76 182.211131 
L 59.808 181.663651 
L 56.483724 181.152 
L 53.856 180.375281 
L 47.904 177.257662 
L 46.309247 175.608 
L 43.1775 170.064 
L 41.952 166.593183 
z
" clip-path="url(#p9abe1c8e5a)" style="fill: #1e9d89"/>
   </g>
   <g id="PathCollection_24">
    <path d="M 41.930446 153.432 
L 41.69979 147.888 
L 41.547311 142.344 
L 41.449901 136.8 
L 41.392229 131.256 
L 41.363785 125.712 
L 41.357172 120.168 
L 41.36706 114.624 
L 41.38954 109.08 
L 41.421691 103.536 
L 41.461305 97.992 
L 41.506687 92.448 
L 41.556527 86.904 
L 41.609798 81.36 
L 41.665691 75.816 
L 41.723564 70.272 
L 41.782905 64.728 
L 41.843302 59.184 
L 41.904423 53.64 
L 41.952 49.356449 
L 41.986348 48.096 
L 42.13801 42.552 
L 42.289821 37.008 
L 42.441428 31.464 
L 42.592544 25.92 
L 45.391898 25.92 
L 45.240782 31.464 
L 45.089175 37.008 
L 44.937364 42.552 
L 44.785702 48.096 
L 44.634624 53.64 
L 44.484663 59.184 
L 44.336479 64.728 
L 44.190885 70.272 
L 44.048892 75.816 
L 43.911758 81.36 
L 43.781058 86.904 
L 43.658776 92.448 
L 43.54743 97.992 
L 43.450237 103.536 
L 43.371354 109.08 
L 43.3162 114.624 
L 43.291939 120.168 
L 43.308165 125.712 
L 43.377952 131.256 
L 43.51945 136.8 
L 43.758445 142.344 
L 44.132556 147.888 
L 44.698471 153.432 
L 45.545061 158.976 
L 46.818694 164.52 
L 47.904 167.593765 
L 49.626509 170.064 
L 53.856 173.855258 
L 57.320965 175.608 
L 59.808 176.343133 
L 65.76 177.39455 
L 71.712 178.038752 
L 77.664 178.432131 
L 83.616 178.663148 
L 89.568 178.785087 
L 95.52 178.831651 
L 101.472 178.825003 
L 107.424 178.780187 
L 113.376 178.707684 
L 119.328 178.614956 
L 125.28 178.507415 
L 131.232 178.389047 
L 137.184 178.262825 
L 143.136 178.130992 
L 149.088 177.995257 
L 155.04 177.85693 
L 160.992 177.71702 
L 166.944 177.576312 
L 172.896 177.435415 
L 178.848 177.294802 
L 184.8 177.154844 
L 190.752 177.015826 
L 196.704 176.877972 
L 202.656 176.74145 
L 208.608 176.60639 
L 214.56 176.472889 
L 214.56 179.368628 
L 208.608 179.502129 
L 202.656 179.637188 
L 196.704 179.77371 
L 190.752 179.911565 
L 184.8 180.050582 
L 178.848 180.19054 
L 172.896 180.331153 
L 166.944 180.47205 
L 160.992 180.612758 
L 155.04 180.752668 
L 149.088 180.890996 
L 143.136 181.026731 
L 137.480306 181.152 
L 137.184 181.155417 
L 131.232 181.221142 
L 125.28 181.282777 
L 119.328 181.338774 
L 113.376 181.387058 
L 107.424 181.424811 
L 101.472 181.448147 
L 95.52 181.451609 
L 89.568 181.427363 
L 83.616 181.363868 
L 77.664 181.243576 
L 75.003022 181.152 
L 71.712 180.93449 
L 65.76 180.290288 
L 59.808 179.238871 
L 53.856 177.479543 
L 50.282945 175.608 
L 47.904 173.475546 
L 45.976854 170.064 
L 44.01934 164.52 
L 42.745707 158.976 
L 41.952 153.778308 
z
" clip-path="url(#p9abe1c8e5a)" style="fill: #26ad81"/>
   </g>
   <g id="PathCollection_25">
    <path d="M 46.818694 164.52 
L 45.545061 158.976 
L 44.698471 153.432 
L 44.132556 147.888 
L 43.758445 142.344 
L 43.51945 136.8 
L 43.377952 131.256 
L 43.308165 125.712 
L 43.291939 120.168 
L 43.3162 114.624 
L 43.371354 109.08 
L 43.450237 103.536 
L 43.54743 97.992 
L 43.658776 92.448 
L 43.781058 86.904 
L 43.911758 81.36 
L 44.048892 75.816 
L 44.190885 70.272 
L 44.336479 64.728 
L 44.484663 59.184 
L 44.634624 53.64 
L 44.785702 48.096 
L 44.937364 42.552 
L 45.089175 37.008 
L 45.240782 31.464 
L 45.391898 25.92 
L 47.904 25.92 
L 48.471289 25.92 
L 48.172851 31.464 
L 47.904 36.442225 
L 47.888528 37.008 
L 47.736717 42.552 
L 47.585056 48.096 
L 47.433977 53.64 
L 47.284017 59.184 
L 47.135832 64.728 
L 46.990239 70.272 
L 46.848246 75.816 
L 46.711111 81.36 
L 46.580411 86.904 
L 46.45813 92.448 
L 46.346783 97.992 
L 46.249591 103.536 
L 46.170707 109.08 
L 46.115554 114.624 
L 46.091293 120.168 
L 46.107519 125.712 
L 46.177305 131.256 
L 46.318804 136.8 
L 46.557799 142.344 
L 46.931909 147.888 
L 47.497825 153.432 
L 47.904 156.091889 
L 48.773768 158.976 
L 51.289043 164.52 
L 53.856 168.201251 
L 56.157726 170.064 
L 59.808 171.91048 
L 65.76 173.709806 
L 71.712 174.812252 
L 77.664 175.485456 
L 79.508918 175.608 
L 83.616 175.767409 
L 89.568 175.889348 
L 95.52 175.935912 
L 101.472 175.929265 
L 107.424 175.884449 
L 113.376 175.811945 
L 119.328 175.719217 
L 125.28 175.611677 
L 125.464871 175.608 
L 131.232 175.411724 
L 137.184 175.195716 
L 143.136 174.970107 
L 149.088 174.737819 
L 155.04 174.501094 
L 160.992 174.261661 
L 166.944 174.020863 
L 172.896 173.77974 
L 178.848 173.539105 
L 184.8 173.299589 
L 190.752 173.061684 
L 196.704 172.825768 
L 202.656 172.592133 
L 208.608 172.361001 
L 214.56 172.132537 
L 214.56 175.608 
L 214.56 176.472889 
L 208.608 176.60639 
L 202.656 176.74145 
L 196.704 176.877972 
L 190.752 177.015826 
L 184.8 177.154844 
L 178.848 177.294802 
L 172.896 177.435415 
L 166.944 177.576312 
L 160.992 177.71702 
L 155.04 177.85693 
L 149.088 177.995257 
L 143.136 178.130992 
L 137.184 178.262825 
L 131.232 178.389047 
L 125.28 178.507415 
L 119.328 178.614956 
L 113.376 178.707684 
L 107.424 178.780187 
L 101.472 178.825003 
L 95.52 178.831651 
L 89.568 178.785087 
L 83.616 178.663148 
L 77.664 178.432131 
L 71.712 178.038752 
L 65.76 177.39455 
L 59.808 176.343133 
L 57.320965 175.608 
L 53.856 173.855258 
L 49.626509 170.064 
L 47.904 167.593765 
z
" clip-path="url(#p9abe1c8e5a)" style="fill: #3fbc73"/>
   </g>
   <g id="PathCollection_26">
    <path d="M 47.497825 153.432 
L 46.931909 147.888 
L 46.557799 142.344 
L 46.318804 136.8 
L 46.177305 131.256 
L 46.107519 125.712 
L 46.091293 120.168 
L 46.115554 114.624 
L 46.170707 109.08 
L 46.249591 103.536 
L 46.346783 97.992 
L 46.45813 92.448 
L 46.580411 86.904 
L 46.711111 81.36 
L 46.848246 75.816 
L 46.990239 70.272 
L 47.135832 64.728 
L 47.284017 59.184 
L 47.433977 53.64 
L 47.585056 48.096 
L 47.736717 42.552 
L 47.888528 37.008 
L 47.904 36.442225 
L 48.172851 31.464 
L 48.471289 25.92 
L 53.856 25.92 
L 54.110617 25.92 
L 53.856 28.589208 
L 53.701248 31.464 
L 53.401842 37.008 
L 53.102033 42.552 
L 52.802519 48.096 
L 52.504157 53.64 
L 52.208002 59.184 
L 51.915355 64.728 
L 51.627825 70.272 
L 51.347405 75.816 
L 51.076581 81.36 
L 50.818464 86.904 
L 50.576972 92.448 
L 50.357075 97.992 
L 50.165132 103.536 
L 50.009346 109.08 
L 49.900425 114.624 
L 49.852511 120.168 
L 49.884557 125.712 
L 50.022377 131.256 
L 50.30182 136.8 
L 50.773807 142.344 
L 51.512631 147.888 
L 52.630248 153.432 
L 53.856 157.496539 
L 54.646626 158.976 
L 59.103822 164.52 
L 59.808 165.08988 
L 65.76 167.968548 
L 71.712 169.732306 
L 73.545044 170.064 
L 77.664 170.529876 
L 83.616 170.925224 
L 89.568 171.133902 
L 95.52 171.213588 
L 101.472 171.202212 
L 107.424 171.125517 
L 113.376 171.00144 
L 119.328 170.842751 
L 125.28 170.658712 
L 131.232 170.456145 
L 137.184 170.240137 
L 141.830818 170.064 
L 143.136 169.984851 
L 149.088 169.613223 
L 155.04 169.234496 
L 160.992 168.851438 
L 166.944 168.466194 
L 172.896 168.080432 
L 178.848 167.69545 
L 184.8 167.312259 
L 190.752 166.931644 
L 196.704 166.554212 
L 202.656 166.180429 
L 208.608 165.810651 
L 214.56 165.445139 
L 214.56 170.064 
L 214.56 172.132537 
L 208.608 172.361001 
L 202.656 172.592133 
L 196.704 172.825768 
L 190.752 173.061684 
L 184.8 173.299589 
L 178.848 173.539105 
L 172.896 173.77974 
L 166.944 174.020863 
L 160.992 174.261661 
L 155.04 174.501094 
L 149.088 174.737819 
L 143.136 174.970107 
L 137.184 175.195716 
L 131.232 175.411724 
L 125.464871 175.608 
L 125.28 175.611677 
L 119.328 175.719217 
L 113.376 175.811945 
L 107.424 175.884449 
L 101.472 175.929265 
L 95.52 175.935912 
L 89.568 175.889348 
L 83.616 175.767409 
L 79.508918 175.608 
L 77.664 175.485456 
L 71.712 174.812252 
L 65.76 173.709806 
L 59.808 171.91048 
L 56.157726 170.064 
L 53.856 168.201251 
L 51.289043 164.52 
L 48.773768 158.976 
L 47.904 156.091889 
z
" clip-path="url(#p9abe1c8e5a)" style="fill: #63cb5f"/>
   </g>
   <g id="PathCollection_27">
    <path d="M 52.630248 153.432 
L 51.512631 147.888 
L 50.773807 142.344 
L 50.30182 136.8 
L 50.022377 131.256 
L 49.884557 125.712 
L 49.852511 120.168 
L 49.900425 114.624 
L 50.009346 109.08 
L 50.165132 103.536 
L 50.357075 97.992 
L 50.576972 92.448 
L 50.818464 86.904 
L 51.076581 81.36 
L 51.347405 75.816 
L 51.627825 70.272 
L 51.915355 64.728 
L 52.208002 59.184 
L 52.504157 53.64 
L 52.802519 48.096 
L 53.102033 42.552 
L 53.401842 37.008 
L 53.701248 31.464 
L 53.856 28.589208 
L 54.110617 25.92 
L 59.808 25.92 
L 65.76 25.92 
L 67.240648 25.92 
L 65.79636 31.464 
L 65.76 31.603118 
L 64.89449 37.008 
L 64.005509 42.552 
L 63.117402 48.096 
L 62.23271 53.64 
L 61.354563 59.184 
L 60.486819 64.728 
L 59.808 69.142129 
L 59.70416 70.272 
L 59.207242 75.816 
L 58.727328 81.36 
L 58.269932 86.904 
L 57.841995 92.448 
L 57.452328 97.992 
L 57.112194 103.536 
L 56.836134 109.08 
L 56.64312 114.624 
L 56.558215 120.168 
L 56.615001 125.712 
L 56.859225 131.256 
L 57.354412 136.8 
L 58.190797 142.344 
L 59.500032 147.888 
L 59.808 148.750105 
L 62.606591 153.432 
L 65.76 156.958475 
L 68.704497 158.976 
L 71.712 160.345755 
L 77.664 162.001101 
L 83.616 162.973224 
L 89.568 163.486345 
L 95.52 163.682287 
L 101.472 163.654313 
L 107.424 163.465727 
L 113.376 163.160632 
L 119.328 162.770431 
L 125.28 162.317897 
L 131.232 161.819802 
L 137.184 161.288658 
L 143.136 160.733905 
L 149.088 160.16273 
L 155.04 159.580644 
L 160.992 158.991902 
L 161.151853 158.976 
L 166.944 158.10915 
L 172.896 157.217177 
L 178.848 156.327008 
L 184.8 155.44098 
L 190.752 154.560909 
L 196.704 153.688198 
L 198.468364 153.432 
L 202.656 152.522342 
L 208.608 151.243268 
L 214.56 149.978957 
L 214.56 153.432 
L 214.56 158.976 
L 214.56 164.52 
L 214.56 165.445139 
L 208.608 165.810651 
L 202.656 166.180429 
L 196.704 166.554212 
L 190.752 166.931644 
L 184.8 167.312259 
L 178.848 167.69545 
L 172.896 168.080432 
L 166.944 168.466194 
L 160.992 168.851438 
L 155.04 169.234496 
L 149.088 169.613223 
L 143.136 169.984851 
L 141.830818 170.064 
L 137.184 170.240137 
L 131.232 170.456145 
L 125.28 170.658712 
L 119.328 170.842751 
L 113.376 171.00144 
L 107.424 171.125517 
L 101.472 171.202212 
L 95.52 171.213588 
L 89.568 171.133902 
L 83.616 170.925224 
L 77.664 170.529876 
L 73.545044 170.064 
L 71.712 169.732306 
L 65.76 167.968548 
L 59.808 165.08988 
L 59.103822 164.52 
L 54.646626 158.976 
L 53.856 157.496539 
z
" clip-path="url(#p9abe1c8e5a)" style="fill: #8bd646"/>
    <path d="M 167.852557 25.92 
L 172.896 25.92 
L 178.848 25.92 
L 184.8 25.92 
L 190.752 25.92 
L 196.704 25.92 
L 202.656 25.92 
L 208.608 25.92 
L 214.56 25.92 
L 214.56 31.464 
L 214.56 37.008 
L 214.56 42.552 
L 214.56 48.096 
L 214.56 53.64 
L 214.56 59.184 
L 214.56 64.371979 
L 208.608 59.54358 
L 208.169859 59.184 
L 202.656 54.712407 
L 201.347793 53.64 
L 196.704 49.861395 
L 194.55536 48.096 
L 190.752 44.983049 
L 187.806619 42.552 
L 184.8 40.072846 
L 181.108065 37.008 
L 178.848 35.129294 
L 174.459199 31.464 
L 172.896 30.154259 
z
" clip-path="url(#p9abe1c8e5a)" style="fill: #8bd646"/>
   </g>
   <g id="PathCollection_28">
    <path d="M 59.500032 147.888 
L 58.190797 142.344 
L 57.354412 136.8 
L 56.859225 131.256 
L 56.615001 125.712 
L 56.558215 120.168 
L 56.64312 114.624 
L 56.836134 109.08 
L 57.112194 103.536 
L 57.452328 97.992 
L 57.841995 92.448 
L 58.269932 86.904 
L 58.727328 81.36 
L 59.207242 75.816 
L 59.70416 70.272 
L 59.808 69.142129 
L 60.486819 64.728 
L 61.354563 59.184 
L 62.23271 53.64 
L 63.117402 48.096 
L 64.005509 42.552 
L 64.89449 37.008 
L 65.76 31.603118 
L 65.79636 31.464 
L 67.240648 25.92 
L 71.712 25.92 
L 77.664 25.92 
L 83.616 25.92 
L 89.568 25.92 
L 95.52 25.92 
L 101.472 25.92 
L 107.424 25.92 
L 113.376 25.92 
L 119.328 25.92 
L 125.28 25.92 
L 131.232 25.92 
L 137.184 25.92 
L 143.136 25.92 
L 149.088 25.92 
L 155.04 25.92 
L 160.992 25.92 
L 166.944 25.92 
L 167.852557 25.92 
L 172.896 30.154259 
L 174.459199 31.464 
L 178.848 35.129294 
L 181.108065 37.008 
L 184.8 40.072846 
L 187.806619 42.552 
L 190.752 44.983049 
L 194.55536 48.096 
L 196.704 49.861395 
L 201.347793 53.64 
L 202.656 54.712407 
L 208.169859 59.184 
L 208.608 59.54358 
L 214.56 64.371979 
L 214.56 64.728 
L 214.56 70.272 
L 214.56 75.816 
L 214.56 81.36 
L 214.56 86.904 
L 214.56 92.448 
L 214.56 97.992 
L 214.56 103.536 
L 214.56 109.08 
L 214.56 114.624 
L 214.56 120.168 
L 214.56 125.712 
L 214.56 131.256 
L 214.56 136.8 
L 214.56 142.344 
L 214.56 147.888 
L 214.56 149.978957 
L 208.608 151.243268 
L 202.656 152.522342 
L 198.468364 153.432 
L 196.704 153.688198 
L 190.752 154.560909 
L 184.8 155.44098 
L 178.848 156.327008 
L 172.896 157.217177 
L 166.944 158.10915 
L 161.151853 158.976 
L 160.992 158.991902 
L 155.04 159.580644 
L 149.088 160.16273 
L 143.136 160.733905 
L 137.184 161.288658 
L 131.232 161.819802 
L 125.28 162.317897 
L 119.328 162.770431 
L 113.376 163.160632 
L 107.424 163.465727 
L 101.472 163.654313 
L 95.52 163.682287 
L 89.568 163.486345 
L 83.616 162.973224 
L 77.664 162.001101 
L 71.712 160.345755 
L 68.704497 158.976 
L 65.76 156.958475 
L 62.606591 153.432 
L 59.808 148.750105 
z
M 77.664 133.713296 
L 79.763641 136.8 
L 83.616 140.153054 
L 88.384911 142.344 
L 89.568 142.691231 
L 95.52 143.358301 
L 101.472 143.263066 
L 107.424 142.621038 
L 109.011532 142.344 
L 113.376 141.151773 
L 119.328 139.072346 
L 124.936294 136.8 
L 125.28 136.564784 
L 131.232 132.081415 
L 132.259616 131.256 
L 135.663698 125.712 
L 136.455203 120.168 
L 135.271766 114.624 
L 132.581467 109.08 
L 131.232 107.135672 
L 128.567872 103.536 
L 125.28 99.93041 
L 123.334434 97.992 
L 119.328 94.507714 
L 116.581282 92.448 
L 113.376 90.259361 
L 107.424 87.081626 
L 106.885757 86.904 
L 101.472 85.232471 
L 95.52 84.959874 
L 89.568 86.869267 
L 89.526655 86.904 
L 83.616 92.21132 
L 83.47687 92.448 
L 80.509324 97.992 
L 77.919004 103.536 
L 77.664 104.208455 
L 76.579118 109.08 
L 75.715893 114.624 
L 75.336168 120.168 
L 75.590135 125.712 
L 76.682388 131.256 
z
" clip-path="url(#p9abe1c8e5a)" style="fill: #bade28"/>
   </g>
   <g id="PathCollection_29">
    <path d="M 76.682388 131.256 
L 75.590135 125.712 
L 75.336168 120.168 
L 75.715893 114.624 
L 76.579118 109.08 
L 77.664 104.208455 
L 77.919004 103.536 
L 80.509324 97.992 
L 83.47687 92.448 
L 83.616 92.21132 
L 89.526655 86.904 
L 89.568 86.869267 
L 95.52 84.959874 
L 101.472 85.232471 
L 106.885757 86.904 
L 107.424 87.081626 
L 113.376 90.259361 
L 116.581282 92.448 
L 119.328 94.507714 
L 123.334434 97.992 
L 125.28 99.93041 
L 128.567872 103.536 
L 131.232 107.135672 
L 132.581467 109.08 
L 135.271766 114.624 
L 136.455203 120.168 
L 135.663698 125.712 
L 132.259616 131.256 
L 131.232 132.081415 
L 125.28 136.564784 
L 124.936294 136.8 
L 119.328 139.072346 
L 113.376 141.151773 
L 109.011532 142.344 
L 107.424 142.621038 
L 101.472 143.263066 
L 95.52 143.358301 
L 89.568 142.691231 
L 88.384911 142.344 
L 83.616 140.153054 
L 79.763641 136.8 
L 77.664 133.713296 
z
" clip-path="url(#p9abe1c8e5a)" style="fill: #eae51a"/>
   </g>
   <g id="PathCollection_30">
    <defs>
     <path id="m2b6ceb2cc2" d="M -4.330127 4.330127 
L 4.330127 -4.330127 
M -4.330127 -4.330127 
L 4.330127 4.330127 
" style="stroke: #000000; stroke-width: 2"/>
    </defs>
    <g clip-path="url(#p9abe1c8e5a)">
     <use xlink:href="#m2b6ceb2cc2" x="85.6" y="127.56" style="stroke: #000000; stroke-width: 2"/>
    </g>
   </g>
   <g id="matplotlib.axis_1">
    <g id="xtick_1">
     <g id="line2d_1">
      <defs>
       <path id="mbd72056c92" d="M 0 0 
L 0 3.5 
" style="stroke: #000000; stroke-width: 0.8"/>
      </defs>
      <g>
       <use xlink:href="#mbd72056c92" x="75.68" y="192.24" style="stroke: #000000; stroke-width: 0.8"/>
      </g>
     </g>
     <g id="text_1">
      <!-- $\mathdefault{250}$ -->
      <g transform="translate(64.22 208.358125) scale(0.12 -0.12)">
       <defs>
        <path id="DejaVuSans-32" d="M 1228 531 
L 3431 531 
L 3431 0 
L 469 0 
L 469 531 
Q 828 903 1448 1529 
Q 2069 2156 2228 2338 
Q 2531 2678 2651 2914 
Q 2772 3150 2772 3378 
Q 2772 3750 2511 3984 
Q 2250 4219 1831 4219 
Q 1534 4219 1204 4116 
Q 875 4013 500 3803 
L 500 4441 
Q 881 4594 1212 4672 
Q 1544 4750 1819 4750 
Q 2544 4750 2975 4387 
Q 3406 4025 3406 3419 
Q 3406 3131 3298 2873 
Q 3191 2616 2906 2266 
Q 2828 2175 2409 1742 
Q 1991 1309 1228 531 
z
" transform="scale(0.015625)"/>
        <path id="DejaVuSans-35" d="M 691 4666 
L 3169 4666 
L 3169 4134 
L 1269 4134 
L 1269 2991 
Q 1406 3038 1543 3061 
Q 1681 3084 1819 3084 
Q 2600 3084 3056 2656 
Q 3513 2228 3513 1497 
Q 3513 744 3044 326 
Q 2575 -91 1722 -91 
Q 1428 -91 1123 -41 
Q 819 9 494 109 
L 494 744 
Q 775 591 1075 516 
Q 1375 441 1709 441 
Q 2250 441 2565 725 
Q 2881 1009 2881 1497 
Q 2881 1984 2565 2268 
Q 2250 2553 1709 2553 
Q 1456 2553 1204 2497 
Q 953 2441 691 2322 
L 691 4666 
z
" transform="scale(0.015625)"/>
        <path id="DejaVuSans-30" d="M 2034 4250 
Q 1547 4250 1301 3770 
Q 1056 3291 1056 2328 
Q 1056 1369 1301 889 
Q 1547 409 2034 409 
Q 2525 409 2770 889 
Q 3016 1369 3016 2328 
Q 3016 3291 2770 3770 
Q 2525 4250 2034 4250 
z
M 2034 4750 
Q 2819 4750 3233 4129 
Q 3647 3509 3647 2328 
Q 3647 1150 3233 529 
Q 2819 -91 2034 -91 
Q 1250 -91 836 529 
Q 422 1150 422 2328 
Q 422 3509 836 4129 
Q 1250 4750 2034 4750 
z
" transform="scale(0.015625)"/>
       </defs>
       <use xlink:href="#DejaVuSans-32" transform="translate(0 0.78125)"/>
       <use xlink:href="#DejaVuSans-35" transform="translate(63.623047 0.78125)"/>
       <use xlink:href="#DejaVuSans-30" transform="translate(127.246094 0.78125)"/>
      </g>
     </g>
    </g>
    <g id="xtick_2">
     <g id="line2d_2">
      <g>
       <use xlink:href="#mbd72056c92" x="125.28" y="192.24" style="stroke: #000000; stroke-width: 0.8"/>
      </g>
     </g>
     <g id="text_2">
      <!-- $\mathdefault{500}$ -->
      <g transform="translate(113.82 208.358125) scale(0.12 -0.12)">
       <use xlink:href="#DejaVuSans-35" transform="translate(0 0.78125)"/>
       <use xlink:href="#DejaVuSans-30" transform="translate(63.623047 0.78125)"/>
       <use xlink:href="#DejaVuSans-30" transform="translate(127.246094 0.78125)"/>
      </g>
     </g>
    </g>
    <g id="xtick_3">
     <g id="line2d_3">
      <g>
       <use xlink:href="#mbd72056c92" x="174.88" y="192.24" style="stroke: #000000; stroke-width: 0.8"/>
      </g>
     </g>
     <g id="text_3">
      <!-- $\mathdefault{750}$ -->
      <g transform="translate(163.42 208.358125) scale(0.12 -0.12)">
       <defs>
        <path id="DejaVuSans-37" d="M 525 4666 
L 3525 4666 
L 3525 4397 
L 1831 0 
L 1172 0 
L 2766 4134 
L 525 4134 
L 525 4666 
z
" transform="scale(0.015625)"/>
       </defs>
       <use xlink:href="#DejaVuSans-37" transform="translate(0 0.78125)"/>
       <use xlink:href="#DejaVuSans-35" transform="translate(63.623047 0.78125)"/>
       <use xlink:href="#DejaVuSans-30" transform="translate(127.246094 0.78125)"/>
      </g>
     </g>
    </g>
    <g id="text_4">
     <!-- Diploid N$_e$1 -->
     <g transform="translate(80 227.01375) scale(0.16 -0.16)">
      <defs>
       <path id="DejaVuSans-44" d="M 1259 4147 
L 1259 519 
L 2022 519 
Q 2988 519 3436 956 
Q 3884 1394 3884 2338 
Q 3884 3275 3436 3711 
Q 2988 4147 2022 4147 
L 1259 4147 
z
M 628 4666 
L 1925 4666 
Q 3281 4666 3915 4102 
Q 4550 3538 4550 2338 
Q 4550 1131 3912 565 
Q 3275 0 1925 0 
L 628 0 
L 628 4666 
z
" transform="scale(0.015625)"/>
       <path id="DejaVuSans-69" d="M 603 3500 
L 1178 3500 
L 1178 0 
L 603 0 
L 603 3500 
z
M 603 4863 
L 1178 4863 
L 1178 4134 
L 603 4134 
L 603 4863 
z
" transform="scale(0.015625)"/>
       <path id="DejaVuSans-70" d="M 1159 525 
L 1159 -1331 
L 581 -1331 
L 581 3500 
L 1159 3500 
L 1159 2969 
Q 1341 3281 1617 3432 
Q 1894 3584 2278 3584 
Q 2916 3584 3314 3078 
Q 3713 2572 3713 1747 
Q 3713 922 3314 415 
Q 2916 -91 2278 -91 
Q 1894 -91 1617 61 
Q 1341 213 1159 525 
z
M 3116 1747 
Q 3116 2381 2855 2742 
Q 2594 3103 2138 3103 
Q 1681 3103 1420 2742 
Q 1159 2381 1159 1747 
Q 1159 1113 1420 752 
Q 1681 391 2138 391 
Q 2594 391 2855 752 
Q 3116 1113 3116 1747 
z
" transform="scale(0.015625)"/>
       <path id="DejaVuSans-6c" d="M 603 4863 
L 1178 4863 
L 1178 0 
L 603 0 
L 603 4863 
z
" transform="scale(0.015625)"/>
       <path id="DejaVuSans-6f" d="M 1959 3097 
Q 1497 3097 1228 2736 
Q 959 2375 959 1747 
Q 959 1119 1226 758 
Q 1494 397 1959 397 
Q 2419 397 2687 759 
Q 2956 1122 2956 1747 
Q 2956 2369 2687 2733 
Q 2419 3097 1959 3097 
z
M 1959 3584 
Q 2709 3584 3137 3096 
Q 3566 2609 3566 1747 
Q 3566 888 3137 398 
Q 2709 -91 1959 -91 
Q 1206 -91 779 398 
Q 353 888 353 1747 
Q 353 2609 779 3096 
Q 1206 3584 1959 3584 
z
" transform="scale(0.015625)"/>
       <path id="DejaVuSans-64" d="M 2906 2969 
L 2906 4863 
L 3481 4863 
L 3481 0 
L 2906 0 
L 2906 525 
Q 2725 213 2448 61 
Q 2172 -91 1784 -91 
Q 1150 -91 751 415 
Q 353 922 353 1747 
Q 353 2572 751 3078 
Q 1150 3584 1784 3584 
Q 2172 3584 2448 3432 
Q 2725 3281 2906 2969 
z
M 947 1747 
Q 947 1113 1208 752 
Q 1469 391 1925 391 
Q 2381 391 2643 752 
Q 2906 1113 2906 1747 
Q 2906 2381 2643 2742 
Q 2381 3103 1925 3103 
Q 1469 3103 1208 2742 
Q 947 2381 947 1747 
z
" transform="scale(0.015625)"/>
       <path id="DejaVuSans-20" transform="scale(0.015625)"/>
       <path id="DejaVuSans-4e" d="M 628 4666 
L 1478 4666 
L 3547 763 
L 3547 4666 
L 4159 4666 
L 4159 0 
L 3309 0 
L 1241 3903 
L 1241 0 
L 628 0 
L 628 4666 
z
" transform="scale(0.015625)"/>
       <path id="DejaVuSans-Oblique-65" d="M 3078 2063 
Q 3088 2113 3092 2166 
Q 3097 2219 3097 2272 
Q 3097 2653 2873 2875 
Q 2650 3097 2266 3097 
Q 1838 3097 1509 2826 
Q 1181 2556 1013 2059 
L 3078 2063 
z
M 3578 1613 
L 903 1613 
Q 884 1494 878 1425 
Q 872 1356 872 1306 
Q 872 872 1139 634 
Q 1406 397 1894 397 
Q 2269 397 2603 481 
Q 2938 566 3225 728 
L 3116 159 
Q 2806 34 2476 -28 
Q 2147 -91 1806 -91 
Q 1078 -91 686 257 
Q 294 606 294 1247 
Q 294 1794 489 2264 
Q 684 2734 1063 3103 
Q 1306 3334 1642 3459 
Q 1978 3584 2356 3584 
Q 2950 3584 3301 3228 
Q 3653 2872 3653 2272 
Q 3653 2128 3634 1964 
Q 3616 1800 3578 1613 
z
" transform="scale(0.015625)"/>
       <path id="DejaVuSans-31" d="M 794 531 
L 1825 531 
L 1825 4091 
L 703 3866 
L 703 4441 
L 1819 4666 
L 2450 4666 
L 2450 531 
L 3481 531 
L 3481 0 
L 794 0 
L 794 531 
z
" transform="scale(0.015625)"/>
      </defs>
      <use xlink:href="#DejaVuSans-44" transform="translate(0 0.015625)"/>
      <use xlink:href="#DejaVuSans-69" transform="translate(77.001953 0.015625)"/>
      <use xlink:href="#DejaVuSans-70" transform="translate(104.785156 0.015625)"/>
      <use xlink:href="#DejaVuSans-6c" transform="translate(168.261719 0.015625)"/>
      <use xlink:href="#DejaVuSans-6f" transform="translate(196.044922 0.015625)"/>
      <use xlink:href="#DejaVuSans-69" transform="translate(257.226562 0.015625)"/>
      <use xlink:href="#DejaVuSans-64" transform="translate(285.009766 0.015625)"/>
      <use xlink:href="#DejaVuSans-20" transform="translate(348.486328 0.015625)"/>
      <use xlink:href="#DejaVuSans-4e" transform="translate(380.273438 0.015625)"/>
      <use xlink:href="#DejaVuSans-Oblique-65" transform="translate(456.035156 -16.390625) scale(0.7)"/>
      <use xlink:href="#DejaVuSans-31" transform="translate(501.835938 0.015625)"/>
     </g>
    </g>
    <g id="text_5">
     <!-- $\times\mathdefault{10^{3}}\mathdefault{}$ -->
     <g transform="translate(188.56 221.452188) scale(0.1 -0.1)">
      <defs>
       <path id="DejaVuSans-d7" d="M 4488 3438 
L 3059 2003 
L 4488 575 
L 4116 197 
L 2681 1631 
L 1247 197 
L 878 575 
L 2303 2003 
L 878 3438 
L 1247 3816 
L 2681 2381 
L 4116 3816 
L 4488 3438 
z
" transform="scale(0.015625)"/>
       <path id="DejaVuSans-33" d="M 2597 2516 
Q 3050 2419 3304 2112 
Q 3559 1806 3559 1356 
Q 3559 666 3084 287 
Q 2609 -91 1734 -91 
Q 1441 -91 1130 -33 
Q 819 25 488 141 
L 488 750 
Q 750 597 1062 519 
Q 1375 441 1716 441 
Q 2309 441 2620 675 
Q 2931 909 2931 1356 
Q 2931 1769 2642 2001 
Q 2353 2234 1838 2234 
L 1294 2234 
L 1294 2753 
L 1863 2753 
Q 2328 2753 2575 2939 
Q 2822 3125 2822 3475 
Q 2822 3834 2567 4026 
Q 2313 4219 1838 4219 
Q 1578 4219 1281 4162 
Q 984 4106 628 3988 
L 628 4550 
Q 988 4650 1302 4700 
Q 1616 4750 1894 4750 
Q 2613 4750 3031 4423 
Q 3450 4097 3450 3541 
Q 3450 3153 3228 2886 
Q 3006 2619 2597 2516 
z
" transform="scale(0.015625)"/>
      </defs>
      <use xlink:href="#DejaVuSans-d7" transform="translate(0 0.765625)"/>
      <use xlink:href="#DejaVuSans-31" transform="translate(83.789062 0.765625)"/>
      <use xlink:href="#DejaVuSans-30" transform="translate(147.412109 0.765625)"/>
      <use xlink:href="#DejaVuSans-33" transform="translate(211.992188 39.046875) scale(0.7)"/>
     </g>
    </g>
   </g>
   <g id="matplotlib.axis_2">
    <g id="ytick_1">
     <g id="line2d_4">
      <defs>
       <path id="m7867df8540" d="M 0 0 
L -3.5 0 
" style="stroke: #000000; stroke-width: 0.8"/>
      </defs>
      <g>
       <use xlink:href="#m7867df8540" x="36" y="155.28" style="stroke: #000000; stroke-width: 0.8"/>
      </g>
     </g>
     <g id="text_6">
      <!-- $\mathdefault{250}$ -->
      <g transform="translate(6.08 159.839063) scale(0.12 -0.12)">
       <use xlink:href="#DejaVuSans-32" transform="translate(0 0.78125)"/>
       <use xlink:href="#DejaVuSans-35" transform="translate(63.623047 0.78125)"/>
       <use xlink:href="#DejaVuSans-30" transform="translate(127.246094 0.78125)"/>
      </g>
     </g>
    </g>
    <g id="ytick_2">
     <g id="line2d_5">
      <g>
       <use xlink:href="#m7867df8540" x="36" y="109.08" style="stroke: #000000; stroke-width: 0.8"/>
      </g>
     </g>
     <g id="text_7">
      <!-- $\mathdefault{500}$ -->
      <g transform="translate(6.08 113.639062) scale(0.12 -0.12)">
       <use xlink:href="#DejaVuSans-35" transform="translate(0 0.78125)"/>
       <use xlink:href="#DejaVuSans-30" transform="translate(63.623047 0.78125)"/>
       <use xlink:href="#DejaVuSans-30" transform="translate(127.246094 0.78125)"/>
      </g>
     </g>
    </g>
    <g id="ytick_3">
     <g id="line2d_6">
      <g>
       <use xlink:href="#m7867df8540" x="36" y="62.88" style="stroke: #000000; stroke-width: 0.8"/>
      </g>
     </g>
     <g id="text_8">
      <!-- $\mathdefault{750}$ -->
      <g transform="translate(6.08 67.439062) scale(0.12 -0.12)">
       <use xlink:href="#DejaVuSans-37" transform="translate(0 0.78125)"/>
       <use xlink:href="#DejaVuSans-35" transform="translate(63.623047 0.78125)"/>
       <use xlink:href="#DejaVuSans-30" transform="translate(127.246094 0.78125)"/>
      </g>
     </g>
    </g>
    <g id="text_9">
     <!-- Diploid N$_e$2 -->
     <g transform="translate(-1.28 154.36) rotate(-90) scale(0.16 -0.16)">
      <use xlink:href="#DejaVuSans-44" transform="translate(0 0.015625)"/>
      <use xlink:href="#DejaVuSans-69" transform="translate(77.001953 0.015625)"/>
      <use xlink:href="#DejaVuSans-70" transform="translate(104.785156 0.015625)"/>
      <use xlink:href="#DejaVuSans-6c" transform="translate(168.261719 0.015625)"/>
      <use xlink:href="#DejaVuSans-6f" transform="translate(196.044922 0.015625)"/>
      <use xlink:href="#DejaVuSans-69" transform="translate(257.226562 0.015625)"/>
      <use xlink:href="#DejaVuSans-64" transform="translate(285.009766 0.015625)"/>
      <use xlink:href="#DejaVuSans-20" transform="translate(348.486328 0.015625)"/>
      <use xlink:href="#DejaVuSans-4e" transform="translate(380.273438 0.015625)"/>
      <use xlink:href="#DejaVuSans-Oblique-65" transform="translate(456.035156 -16.390625) scale(0.7)"/>
      <use xlink:href="#DejaVuSans-32" transform="translate(501.835938 0.015625)"/>
     </g>
    </g>
    <g id="text_10">
     <!-- $\times\mathdefault{10^{3}}\mathdefault{}$ -->
     <g transform="translate(36 22.92) scale(0.1 -0.1)">
      <use xlink:href="#DejaVuSans-d7" transform="translate(0 0.765625)"/>
      <use xlink:href="#DejaVuSans-31" transform="translate(83.789062 0.765625)"/>
      <use xlink:href="#DejaVuSans-30" transform="translate(147.412109 0.765625)"/>
      <use xlink:href="#DejaVuSans-33" transform="translate(211.992188 39.046875) scale(0.7)"/>
     </g>
    </g>
   </g>
   <g id="patch_3">
    <path d="M 36 192.24 
L 36 25.92 
" style="fill: none; stroke: #000000; stroke-width: 0.8; stroke-linejoin: miter; stroke-linecap: square"/>
   </g>
   <g id="patch_4">
    <path d="M 214.56 192.24 
L 214.56 25.92 
" style="fill: none; stroke: #000000; stroke-width: 0.8; stroke-linejoin: miter; stroke-linecap: square"/>
   </g>
   <g id="patch_5">
    <path d="M 36 192.24 
L 214.56 192.24 
" style="fill: none; stroke: #000000; stroke-width: 0.8; stroke-linejoin: miter; stroke-linecap: square"/>
   </g>
   <g id="patch_6">
    <path d="M 36 25.92 
L 214.56 25.92 
" style="fill: none; stroke: #000000; stroke-width: 0.8; stroke-linejoin: miter; stroke-linecap: square"/>
   </g>
   <g id="text_11">
    <!-- Ne1Ne2-MSC-T-P2-S4 -->
    <g transform="translate(40.66375 10.92) scale(0.16 -0.16)">
     <defs>
      <path id="DejaVuSans-65" d="M 3597 1894 
L 3597 1613 
L 953 1613 
Q 991 1019 1311 708 
Q 1631 397 2203 397 
Q 2534 397 2845 478 
Q 3156 559 3463 722 
L 3463 178 
Q 3153 47 2828 -22 
Q 2503 -91 2169 -91 
Q 1331 -91 842 396 
Q 353 884 353 1716 
Q 353 2575 817 3079 
Q 1281 3584 2069 3584 
Q 2775 3584 3186 3129 
Q 3597 2675 3597 1894 
z
M 3022 2063 
Q 3016 2534 2758 2815 
Q 2500 3097 2075 3097 
Q 1594 3097 1305 2825 
Q 1016 2553 972 2059 
L 3022 2063 
z
" transform="scale(0.015625)"/>
      <path id="DejaVuSans-2d" d="M 313 2009 
L 1997 2009 
L 1997 1497 
L 313 1497 
L 313 2009 
z
" transform="scale(0.015625)"/>
      <path id="DejaVuSans-4d" d="M 628 4666 
L 1569 4666 
L 2759 1491 
L 3956 4666 
L 4897 4666 
L 4897 0 
L 4281 0 
L 4281 4097 
L 3078 897 
L 2444 897 
L 1241 4097 
L 1241 0 
L 628 0 
L 628 4666 
z
" transform="scale(0.015625)"/>
      <path id="DejaVuSans-53" d="M 3425 4513 
L 3425 3897 
Q 3066 4069 2747 4153 
Q 2428 4238 2131 4238 
Q 1616 4238 1336 4038 
Q 1056 3838 1056 3469 
Q 1056 3159 1242 3001 
Q 1428 2844 1947 2747 
L 2328 2669 
Q 3034 2534 3370 2195 
Q 3706 1856 3706 1288 
Q 3706 609 3251 259 
Q 2797 -91 1919 -91 
Q 1588 -91 1214 -16 
Q 841 59 441 206 
L 441 856 
Q 825 641 1194 531 
Q 1563 422 1919 422 
Q 2459 422 2753 634 
Q 3047 847 3047 1241 
Q 3047 1584 2836 1778 
Q 2625 1972 2144 2069 
L 1759 2144 
Q 1053 2284 737 2584 
Q 422 2884 422 3419 
Q 422 4038 858 4394 
Q 1294 4750 2059 4750 
Q 2388 4750 2728 4690 
Q 3069 4631 3425 4513 
z
" transform="scale(0.015625)"/>
      <path id="DejaVuSans-43" d="M 4122 4306 
L 4122 3641 
Q 3803 3938 3442 4084 
Q 3081 4231 2675 4231 
Q 1875 4231 1450 3742 
Q 1025 3253 1025 2328 
Q 1025 1406 1450 917 
Q 1875 428 2675 428 
Q 3081 428 3442 575 
Q 3803 722 4122 1019 
L 4122 359 
Q 3791 134 3420 21 
Q 3050 -91 2638 -91 
Q 1578 -91 968 557 
Q 359 1206 359 2328 
Q 359 3453 968 4101 
Q 1578 4750 2638 4750 
Q 3056 4750 3426 4639 
Q 3797 4528 4122 4306 
z
" transform="scale(0.015625)"/>
      <path id="DejaVuSans-54" d="M -19 4666 
L 3928 4666 
L 3928 4134 
L 2272 4134 
L 2272 0 
L 1638 0 
L 1638 4134 
L -19 4134 
L -19 4666 
z
" transform="scale(0.015625)"/>
      <path id="DejaVuSans-50" d="M 1259 4147 
L 1259 2394 
L 2053 2394 
Q 2494 2394 2734 2622 
Q 2975 2850 2975 3272 
Q 2975 3691 2734 3919 
Q 2494 4147 2053 4147 
L 1259 4147 
z
M 628 4666 
L 2053 4666 
Q 2838 4666 3239 4311 
Q 3641 3956 3641 3272 
Q 3641 2581 3239 2228 
Q 2838 1875 2053 1875 
L 1259 1875 
L 1259 0 
L 628 0 
L 628 4666 
z
" transform="scale(0.015625)"/>
      <path id="DejaVuSans-34" d="M 2419 4116 
L 825 1625 
L 2419 1625 
L 2419 4116 
z
M 2253 4666 
L 3047 4666 
L 3047 1625 
L 3713 1625 
L 3713 1100 
L 3047 1100 
L 3047 0 
L 2419 0 
L 2419 1100 
L 313 1100 
L 313 1709 
L 2253 4666 
z
" transform="scale(0.015625)"/>
     </defs>
     <use xlink:href="#DejaVuSans-4e"/>
     <use xlink:href="#DejaVuSans-65" x="74.804688"/>
     <use xlink:href="#DejaVuSans-31" x="136.328125"/>
     <use xlink:href="#DejaVuSans-4e" x="199.951172"/>
     <use xlink:href="#DejaVuSans-65" x="274.755859"/>
     <use xlink:href="#DejaVuSans-32" x="336.279297"/>
     <use xlink:href="#DejaVuSans-2d" x="399.902344"/>
     <use xlink:href="#DejaVuSans-4d" x="435.986328"/>
     <use xlink:href="#DejaVuSans-53" x="522.265625"/>
     <use xlink:href="#DejaVuSans-43" x="585.742188"/>
     <use xlink:href="#DejaVuSans-2d" x="655.566406"/>
     <use xlink:href="#DejaVuSans-54" x="682.525391"/>
     <use xlink:href="#DejaVuSans-2d" x="734.484375"/>
     <use xlink:href="#DejaVuSans-50" x="770.568359"/>
     <use xlink:href="#DejaVuSans-32" x="830.871094"/>
     <use xlink:href="#DejaVuSans-2d" x="894.494141"/>
     <use xlink:href="#DejaVuSans-53" x="930.578125"/>
     <use xlink:href="#DejaVuSans-34" x="994.054688"/>
    </g>
   </g>
  </g>
  <g id="axes_2">
   <g id="patch_7">
    <path d="M 225.72 192.24 
L 234.036 192.24 
L 234.036 25.92 
L 225.72 25.92 
z
" style="fill: #ffffff"/>
   </g>
   <g id="QuadMesh_1">
    <path d="M 225.72 192.24 
L 234.036 192.24 
L 234.036 186.504828 
L 225.72 186.504828 
L 225.72 192.24 
" clip-path="url(#paa8a9e8358)" style="fill: #440154"/>
    <path d="M 225.72 186.504828 
L 234.036 186.504828 
L 234.036 180.769655 
L 225.72 180.769655 
L 225.72 186.504828 
" clip-path="url(#paa8a9e8358)" style="fill: #440154"/>
    <path d="M 225.72 180.769655 
L 234.036 180.769655 
L 234.036 175.034483 
L 225.72 175.034483 
L 225.72 180.769655 
" clip-path="url(#paa8a9e8358)" style="fill: #440154"/>
    <path d="M 225.72 175.034483 
L 234.036 175.034483 
L 234.036 169.29931 
L 225.72 169.29931 
L 225.72 175.034483 
" clip-path="url(#paa8a9e8358)" style="fill: #440154"/>
    <path d="M 225.72 169.29931 
L 234.036 169.29931 
L 234.036 163.564138 
L 225.72 163.564138 
L 225.72 169.29931 
" clip-path="url(#paa8a9e8358)" style="fill: #440154"/>
    <path d="M 225.72 163.564138 
L 234.036 163.564138 
L 234.036 157.828966 
L 225.72 157.828966 
L 225.72 163.564138 
" clip-path="url(#paa8a9e8358)" style="fill: #440154"/>
    <path d="M 225.72 157.828966 
L 234.036 157.828966 
L 234.036 152.093793 
L 225.72 152.093793 
L 225.72 157.828966 
" clip-path="url(#paa8a9e8358)" style="fill: #440154"/>
    <path d="M 225.72 152.093793 
L 234.036 152.093793 
L 234.036 146.358621 
L 225.72 146.358621 
L 225.72 152.093793 
" clip-path="url(#paa8a9e8358)" style="fill: #440154"/>
    <path d="M 225.72 146.358621 
L 234.036 146.358621 
L 234.036 140.623448 
L 225.72 140.623448 
L 225.72 146.358621 
" clip-path="url(#paa8a9e8358)" style="fill: #440154"/>
    <path d="M 225.72 140.623448 
L 234.036 140.623448 
L 234.036 134.888276 
L 225.72 134.888276 
L 225.72 140.623448 
" clip-path="url(#paa8a9e8358)" style="fill: #440154"/>
    <path d="M 225.72 134.888276 
L 234.036 134.888276 
L 234.036 129.153103 
L 225.72 129.153103 
L 225.72 134.888276 
" clip-path="url(#paa8a9e8358)" style="fill: #440154"/>
    <path d="M 225.72 129.153103 
L 234.036 129.153103 
L 234.036 123.417931 
L 225.72 123.417931 
L 225.72 129.153103 
" clip-path="url(#paa8a9e8358)" style="fill: #440154"/>
    <path d="M 225.72 123.417931 
L 234.036 123.417931 
L 234.036 117.682759 
L 225.72 117.682759 
L 225.72 123.417931 
" clip-path="url(#paa8a9e8358)" style="fill: #440154"/>
    <path d="M 225.72 117.682759 
L 234.036 117.682759 
L 234.036 111.947586 
L 225.72 111.947586 
L 225.72 117.682759 
" clip-path="url(#paa8a9e8358)" style="fill: #440154"/>
    <path d="M 225.72 111.947586 
L 234.036 111.947586 
L 234.036 106.212414 
L 225.72 106.212414 
L 225.72 111.947586 
" clip-path="url(#paa8a9e8358)" style="fill: #440154"/>
    <path d="M 225.72 106.212414 
L 234.036 106.212414 
L 234.036 100.477241 
L 225.72 100.477241 
L 225.72 106.212414 
" clip-path="url(#paa8a9e8358)" style="fill: #481a6c"/>
    <path d="M 225.72 100.477241 
L 234.036 100.477241 
L 234.036 94.742069 
L 225.72 94.742069 
L 225.72 100.477241 
" clip-path="url(#paa8a9e8358)" style="fill: #46307e"/>
    <path d="M 225.72 94.742069 
L 234.036 94.742069 
L 234.036 89.006897 
L 225.72 89.006897 
L 225.72 94.742069 
" clip-path="url(#paa8a9e8358)" style="fill: #404588"/>
    <path d="M 225.72 89.006897 
L 234.036 89.006897 
L 234.036 83.271724 
L 225.72 83.271724 
L 225.72 89.006897 
" clip-path="url(#paa8a9e8358)" style="fill: #38598c"/>
    <path d="M 225.72 83.271724 
L 234.036 83.271724 
L 234.036 77.536552 
L 225.72 77.536552 
L 225.72 83.271724 
" clip-path="url(#paa8a9e8358)" style="fill: #2f6b8e"/>
    <path d="M 225.72 77.536552 
L 234.036 77.536552 
L 234.036 71.801379 
L 225.72 71.801379 
L 225.72 77.536552 
" clip-path="url(#paa8a9e8358)" style="fill: #297b8e"/>
    <path d="M 225.72 71.801379 
L 234.036 71.801379 
L 234.036 66.066207 
L 225.72 66.066207 
L 225.72 71.801379 
" clip-path="url(#paa8a9e8358)" style="fill: #228c8d"/>
    <path d="M 225.72 66.066207 
L 234.036 66.066207 
L 234.036 60.331034 
L 225.72 60.331034 
L 225.72 66.066207 
" clip-path="url(#paa8a9e8358)" style="fill: #1e9d89"/>
    <path d="M 225.72 60.331034 
L 234.036 60.331034 
L 234.036 54.595862 
L 225.72 54.595862 
L 225.72 60.331034 
" clip-path="url(#paa8a9e8358)" style="fill: #26ad81"/>
    <path d="M 225.72 54.595862 
L 234.036 54.595862 
L 234.036 48.86069 
L 225.72 48.86069 
L 225.72 54.595862 
" clip-path="url(#paa8a9e8358)" style="fill: #3fbc73"/>
    <path d="M 225.72 48.86069 
L 234.036 48.86069 
L 234.036 43.125517 
L 225.72 43.125517 
L 225.72 48.86069 
" clip-path="url(#paa8a9e8358)" style="fill: #63cb5f"/>
    <path d="M 225.72 43.125517 
L 234.036 43.125517 
L 234.036 37.390345 
L 225.72 37.390345 
L 225.72 43.125517 
" clip-path="url(#paa8a9e8358)" style="fill: #8bd646"/>
    <path d="M 225.72 37.390345 
L 234.036 37.390345 
L 234.036 31.655172 
L 225.72 31.655172 
L 225.72 37.390345 
" clip-path="url(#paa8a9e8358)" style="fill: #bade28"/>
    <path d="M 225.72 31.655172 
L 234.036 31.655172 
L 234.036 25.92 
L 225.72 25.92 
L 225.72 31.655172 
" clip-path="url(#paa8a9e8358)" style="fill: #eae51a"/>
   </g>
   <g id="matplotlib.axis_3"/>
   <g id="matplotlib.axis_4">
    <g id="ytick_4">
     <g id="line2d_7">
      <defs>
       <path id="m86a67abaab" d="M 0 0 
L 3.5 0 
" style="stroke: #000000; stroke-width: 0.8"/>
      </defs>
      <g>
       <use xlink:href="#m86a67abaab" x="234.036" y="180.769655" style="stroke: #000000; stroke-width: 0.8"/>
      </g>
     </g>
     <g id="text_12">
      <!-- 2175 -->
      <g transform="translate(241.036 184.568874) scale(0.1 -0.1)">
       <defs>
        <path id="DejaVuSans-2212" d="M 678 2272 
L 4684 2272 
L 4684 1741 
L 678 1741 
L 678 2272 
z
" transform="scale(0.015625)"/>
       </defs>
       <use xlink:href="#DejaVuSans-2212"/>
       <use xlink:href="#DejaVuSans-32" x="83.789062"/>
       <use xlink:href="#DejaVuSans-31" x="147.412109"/>
       <use xlink:href="#DejaVuSans-37" x="211.035156"/>
       <use xlink:href="#DejaVuSans-35" x="274.658203"/>
      </g>
     </g>
    </g>
    <g id="ytick_5">
     <g id="line2d_8">
      <g>
       <use xlink:href="#m86a67abaab" x="234.036" y="163.564138" style="stroke: #000000; stroke-width: 0.8"/>
      </g>
     </g>
     <g id="text_13">
      <!-- 2130 -->
      <g transform="translate(241.036 167.363357) scale(0.1 -0.1)">
       <use xlink:href="#DejaVuSans-2212"/>
       <use xlink:href="#DejaVuSans-32" x="83.789062"/>
       <use xlink:href="#DejaVuSans-31" x="147.412109"/>
       <use xlink:href="#DejaVuSans-33" x="211.035156"/>
       <use xlink:href="#DejaVuSans-30" x="274.658203"/>
      </g>
     </g>
    </g>
    <g id="ytick_6">
     <g id="line2d_9">
      <g>
       <use xlink:href="#m86a67abaab" x="234.036" y="146.358621" style="stroke: #000000; stroke-width: 0.8"/>
      </g>
     </g>
     <g id="text_14">
      <!-- 2085 -->
      <g transform="translate(241.036 150.157839) scale(0.1 -0.1)">
       <defs>
        <path id="DejaVuSans-38" d="M 2034 2216 
Q 1584 2216 1326 1975 
Q 1069 1734 1069 1313 
Q 1069 891 1326 650 
Q 1584 409 2034 409 
Q 2484 409 2743 651 
Q 3003 894 3003 1313 
Q 3003 1734 2745 1975 
Q 2488 2216 2034 2216 
z
M 1403 2484 
Q 997 2584 770 2862 
Q 544 3141 544 3541 
Q 544 4100 942 4425 
Q 1341 4750 2034 4750 
Q 2731 4750 3128 4425 
Q 3525 4100 3525 3541 
Q 3525 3141 3298 2862 
Q 3072 2584 2669 2484 
Q 3125 2378 3379 2068 
Q 3634 1759 3634 1313 
Q 3634 634 3220 271 
Q 2806 -91 2034 -91 
Q 1263 -91 848 271 
Q 434 634 434 1313 
Q 434 1759 690 2068 
Q 947 2378 1403 2484 
z
M 1172 3481 
Q 1172 3119 1398 2916 
Q 1625 2713 2034 2713 
Q 2441 2713 2670 2916 
Q 2900 3119 2900 3481 
Q 2900 3844 2670 4047 
Q 2441 4250 2034 4250 
Q 1625 4250 1398 4047 
Q 1172 3844 1172 3481 
z
" transform="scale(0.015625)"/>
       </defs>
       <use xlink:href="#DejaVuSans-2212"/>
       <use xlink:href="#DejaVuSans-32" x="83.789062"/>
       <use xlink:href="#DejaVuSans-30" x="147.412109"/>
       <use xlink:href="#DejaVuSans-38" x="211.035156"/>
       <use xlink:href="#DejaVuSans-35" x="274.658203"/>
      </g>
     </g>
    </g>
    <g id="ytick_7">
     <g id="line2d_10">
      <g>
       <use xlink:href="#m86a67abaab" x="234.036" y="129.153103" style="stroke: #000000; stroke-width: 0.8"/>
      </g>
     </g>
     <g id="text_15">
      <!-- 2040 -->
      <g transform="translate(241.036 132.952322) scale(0.1 -0.1)">
       <use xlink:href="#DejaVuSans-2212"/>
       <use xlink:href="#DejaVuSans-32" x="83.789062"/>
       <use xlink:href="#DejaVuSans-30" x="147.412109"/>
       <use xlink:href="#DejaVuSans-34" x="211.035156"/>
       <use xlink:href="#DejaVuSans-30" x="274.658203"/>
      </g>
     </g>
    </g>
    <g id="ytick_8">
     <g id="line2d_11">
      <g>
       <use xlink:href="#m86a67abaab" x="234.036" y="111.947586" style="stroke: #000000; stroke-width: 0.8"/>
      </g>
     </g>
     <g id="text_16">
      <!-- 1995 -->
      <g transform="translate(241.036 115.746805) scale(0.1 -0.1)">
       <defs>
        <path id="DejaVuSans-39" d="M 703 97 
L 703 672 
Q 941 559 1184 500 
Q 1428 441 1663 441 
Q 2288 441 2617 861 
Q 2947 1281 2994 2138 
Q 2813 1869 2534 1725 
Q 2256 1581 1919 1581 
Q 1219 1581 811 2004 
Q 403 2428 403 3163 
Q 403 3881 828 4315 
Q 1253 4750 1959 4750 
Q 2769 4750 3195 4129 
Q 3622 3509 3622 2328 
Q 3622 1225 3098 567 
Q 2575 -91 1691 -91 
Q 1453 -91 1209 -44 
Q 966 3 703 97 
z
M 1959 2075 
Q 2384 2075 2632 2365 
Q 2881 2656 2881 3163 
Q 2881 3666 2632 3958 
Q 2384 4250 1959 4250 
Q 1534 4250 1286 3958 
Q 1038 3666 1038 3163 
Q 1038 2656 1286 2365 
Q 1534 2075 1959 2075 
z
" transform="scale(0.015625)"/>
       </defs>
       <use xlink:href="#DejaVuSans-2212"/>
       <use xlink:href="#DejaVuSans-31" x="83.789062"/>
       <use xlink:href="#DejaVuSans-39" x="147.412109"/>
       <use xlink:href="#DejaVuSans-39" x="211.035156"/>
       <use xlink:href="#DejaVuSans-35" x="274.658203"/>
      </g>
     </g>
    </g>
    <g id="ytick_9">
     <g id="line2d_12">
      <g>
       <use xlink:href="#m86a67abaab" x="234.036" y="94.742069" style="stroke: #000000; stroke-width: 0.8"/>
      </g>
     </g>
     <g id="text_17">
      <!-- 1950 -->
      <g transform="translate(241.036 98.541288) scale(0.1 -0.1)">
       <use xlink:href="#DejaVuSans-2212"/>
       <use xlink:href="#DejaVuSans-31" x="83.789062"/>
       <use xlink:href="#DejaVuSans-39" x="147.412109"/>
       <use xlink:href="#DejaVuSans-35" x="211.035156"/>
       <use xlink:href="#DejaVuSans-30" x="274.658203"/>
      </g>
     </g>
    </g>
    <g id="ytick_10">
     <g id="line2d_13">
      <g>
       <use xlink:href="#m86a67abaab" x="234.036" y="77.536552" style="stroke: #000000; stroke-width: 0.8"/>
      </g>
     </g>
     <g id="text_18">
      <!-- 1905 -->
      <g transform="translate(241.036 81.33577) scale(0.1 -0.1)">
       <use xlink:href="#DejaVuSans-2212"/>
       <use xlink:href="#DejaVuSans-31" x="83.789062"/>
       <use xlink:href="#DejaVuSans-39" x="147.412109"/>
       <use xlink:href="#DejaVuSans-30" x="211.035156"/>
       <use xlink:href="#DejaVuSans-35" x="274.658203"/>
      </g>
     </g>
    </g>
    <g id="ytick_11">
     <g id="line2d_14">
      <g>
       <use xlink:href="#m86a67abaab" x="234.036" y="60.331034" style="stroke: #000000; stroke-width: 0.8"/>
      </g>
     </g>
     <g id="text_19">
      <!-- 1860 -->
      <g transform="translate(241.036 64.130253) scale(0.1 -0.1)">
       <defs>
        <path id="DejaVuSans-36" d="M 2113 2584 
Q 1688 2584 1439 2293 
Q 1191 2003 1191 1497 
Q 1191 994 1439 701 
Q 1688 409 2113 409 
Q 2538 409 2786 701 
Q 3034 994 3034 1497 
Q 3034 2003 2786 2293 
Q 2538 2584 2113 2584 
z
M 3366 4563 
L 3366 3988 
Q 3128 4100 2886 4159 
Q 2644 4219 2406 4219 
Q 1781 4219 1451 3797 
Q 1122 3375 1075 2522 
Q 1259 2794 1537 2939 
Q 1816 3084 2150 3084 
Q 2853 3084 3261 2657 
Q 3669 2231 3669 1497 
Q 3669 778 3244 343 
Q 2819 -91 2113 -91 
Q 1303 -91 875 529 
Q 447 1150 447 2328 
Q 447 3434 972 4092 
Q 1497 4750 2381 4750 
Q 2619 4750 2861 4703 
Q 3103 4656 3366 4563 
z
" transform="scale(0.015625)"/>
       </defs>
       <use xlink:href="#DejaVuSans-2212"/>
       <use xlink:href="#DejaVuSans-31" x="83.789062"/>
       <use xlink:href="#DejaVuSans-38" x="147.412109"/>
       <use xlink:href="#DejaVuSans-36" x="211.035156"/>
       <use xlink:href="#DejaVuSans-30" x="274.658203"/>
      </g>
     </g>
    </g>
    <g id="ytick_12">
     <g id="line2d_15">
      <g>
       <use xlink:href="#m86a67abaab" x="234.036" y="43.125517" style="stroke: #000000; stroke-width: 0.8"/>
      </g>
     </g>
     <g id="text_20">
      <!-- 1815 -->
      <g transform="translate(241.036 46.924736) scale(0.1 -0.1)">
       <use xlink:href="#DejaVuSans-2212"/>
       <use xlink:href="#DejaVuSans-31" x="83.789062"/>
       <use xlink:href="#DejaVuSans-38" x="147.412109"/>
       <use xlink:href="#DejaVuSans-31" x="211.035156"/>
       <use xlink:href="#DejaVuSans-35" x="274.658203"/>
      </g>
     </g>
    </g>
    <g id="ytick_13">
     <g id="line2d_16">
      <g>
       <use xlink:href="#m86a67abaab" x="234.036" y="25.92" style="stroke: #000000; stroke-width: 0.8"/>
      </g>
     </g>
     <g id="text_21">
      <!-- 1770 -->
      <g transform="translate(241.036 29.719219) scale(0.1 -0.1)">
       <use xlink:href="#DejaVuSans-2212"/>
       <use xlink:href="#DejaVuSans-31" x="83.789062"/>
       <use xlink:href="#DejaVuSans-37" x="147.412109"/>
       <use xlink:href="#DejaVuSans-37" x="211.035156"/>
       <use xlink:href="#DejaVuSans-30" x="274.658203"/>
      </g>
     </g>
    </g>
    <g id="text_22">
     <!-- log likelihood -->
     <g transform="translate(287.983813 148.704375) rotate(-90) scale(0.12 -0.12)">
      <defs>
       <path id="DejaVuSans-67" d="M 2906 1791 
Q 2906 2416 2648 2759 
Q 2391 3103 1925 3103 
Q 1463 3103 1205 2759 
Q 947 2416 947 1791 
Q 947 1169 1205 825 
Q 1463 481 1925 481 
Q 2391 481 2648 825 
Q 2906 1169 2906 1791 
z
M 3481 434 
Q 3481 -459 3084 -895 
Q 2688 -1331 1869 -1331 
Q 1566 -1331 1297 -1286 
Q 1028 -1241 775 -1147 
L 775 -588 
Q 1028 -725 1275 -790 
Q 1522 -856 1778 -856 
Q 2344 -856 2625 -561 
Q 2906 -266 2906 331 
L 2906 616 
Q 2728 306 2450 153 
Q 2172 0 1784 0 
Q 1141 0 747 490 
Q 353 981 353 1791 
Q 353 2603 747 3093 
Q 1141 3584 1784 3584 
Q 2172 3584 2450 3431 
Q 2728 3278 2906 2969 
L 2906 3500 
L 3481 3500 
L 3481 434 
z
" transform="scale(0.015625)"/>
       <path id="DejaVuSans-6b" d="M 581 4863 
L 1159 4863 
L 1159 1991 
L 2875 3500 
L 3609 3500 
L 1753 1863 
L 3688 0 
L 2938 0 
L 1159 1709 
L 1159 0 
L 581 0 
L 581 4863 
z
" transform="scale(0.015625)"/>
       <path id="DejaVuSans-68" d="M 3513 2113 
L 3513 0 
L 2938 0 
L 2938 2094 
Q 2938 2591 2744 2837 
Q 2550 3084 2163 3084 
Q 1697 3084 1428 2787 
Q 1159 2491 1159 1978 
L 1159 0 
L 581 0 
L 581 4863 
L 1159 4863 
L 1159 2956 
Q 1366 3272 1645 3428 
Q 1925 3584 2291 3584 
Q 2894 3584 3203 3211 
Q 3513 2838 3513 2113 
z
" transform="scale(0.015625)"/>
      </defs>
      <use xlink:href="#DejaVuSans-6c"/>
      <use xlink:href="#DejaVuSans-6f" x="27.783203"/>
      <use xlink:href="#DejaVuSans-67" x="88.964844"/>
      <use xlink:href="#DejaVuSans-20" x="152.441406"/>
      <use xlink:href="#DejaVuSans-6c" x="184.228516"/>
      <use xlink:href="#DejaVuSans-69" x="212.011719"/>
      <use xlink:href="#DejaVuSans-6b" x="239.794922"/>
      <use xlink:href="#DejaVuSans-65" x="294.080078"/>
      <use xlink:href="#DejaVuSans-6c" x="355.603516"/>
      <use xlink:href="#DejaVuSans-69" x="383.386719"/>
      <use xlink:href="#DejaVuSans-68" x="411.169922"/>
      <use xlink:href="#DejaVuSans-6f" x="474.548828"/>
      <use xlink:href="#DejaVuSans-6f" x="535.730469"/>
      <use xlink:href="#DejaVuSans-64" x="596.912109"/>
     </g>
    </g>
    <g id="text_23">
     <!-- 1e3 -->
     <g transform="translate(215.157875 22.92) scale(0.1 -0.1)">
      <use xlink:href="#DejaVuSans-31"/>
      <use xlink:href="#DejaVuSans-65" x="63.623047"/>
      <use xlink:href="#DejaVuSans-33" x="125.146484"/>
     </g>
    </g>
   </g>
   <g id="LineCollection_1"/>
   <g id="patch_8">
    <path d="M 225.72 192.24 
L 229.878 192.24 
L 234.036 192.24 
L 234.036 25.92 
L 229.878 25.92 
L 225.72 25.92 
L 225.72 192.24 
z
" style="fill: none; stroke: #000000; stroke-width: 0.8; stroke-linejoin: miter; stroke-linecap: square"/>
   </g>
  </g>
 </g>
 <defs>
  <clipPath id="p9abe1c8e5a">
   <rect x="36" y="25.92" width="178.56" height="166.32"/>
  </clipPath>
  <clipPath id="paa8a9e8358">
   <rect x="225.72" y="25.92" width="8.316" height="166.32"/>
  </clipPath>
 </defs>
</svg>
