<?xml version="1.0" encoding="utf-8" standalone="no"?>
<!DOCTYPE svg PUBLIC "-//W3C//DTD SVG 1.1//EN"
  "http://www.w3.org/Graphics/SVG/1.1/DTD/svg11.dtd">
<svg xmlns:xlink="http://www.w3.org/1999/xlink" width="288pt" height="216pt" viewBox="0 0 288 216" xmlns="http://www.w3.org/2000/svg" version="1.1">
 <metadata>
  <rdf:RDF xmlns:dc="http://purl.org/dc/elements/1.1/" xmlns:cc="http://creativecommons.org/ns#" xmlns:rdf="http://www.w3.org/1999/02/22-rdf-syntax-ns#">
   <cc:Work>
    <dc:type rdf:resource="http://purl.org/dc/dcmitype/StillImage"/>
    <dc:date>2023-07-18T17:18:31.464657</dc:date>
    <dc:format>image/svg+xml</dc:format>
    <dc:creator>
     <cc:Agent>
      <dc:title>Matplotlib v3.7.1, https://matplotlib.org/</dc:title>
     </cc:Agent>
    </dc:creator>
   </cc:Work>
  </rdf:RDF>
 </metadata>
 <defs>
  <style type="text/css">*{stroke-linejoin: round; stroke-linecap: butt}</style>
 </defs>
 <g id="figure_1">
  <g id="patch_1">
   <path d="M 0 216 
L 288 216 
L 288 0 
L 0 0 
z
" style="fill: #ffffff"/>
  </g>
  <g id="axes_1">
   <g id="patch_2">
    <path d="M 36 192.24 
L 214.56 192.24 
L 214.56 25.92 
L 36 25.92 
z
" style="fill: #ffffff"/>
   </g>
   <g id="PathCollection_1">
    <path d="M 36.429918 192.24 
L 36 192.24 
L 36 192.016456 
z
" clip-path="url(#p2aae203681)" style="fill: #440154"/>
   </g>
   <g id="PathCollection_2">
    <path d="M 37.684754 192.24 
L 36.429918 192.24 
L 36 192.016456 
L 36 191.363982 
z
" clip-path="url(#p2aae203681)" style="fill: #440154"/>
   </g>
   <g id="PathCollection_3">
    <path d="M 38.93959 192.24 
L 37.684754 192.24 
L 36 191.363982 
L 36 190.711507 
z
" clip-path="url(#p2aae203681)" style="fill: #440154"/>
   </g>
   <g id="PathCollection_4">
    <path d="M 40.194426 192.24 
L 38.93959 192.24 
L 36 190.711507 
L 36 190.059032 
z
" clip-path="url(#p2aae203681)" style="fill: #440154"/>
   </g>
   <g id="PathCollection_5">
    <path d="M 41.449262 192.24 
L 40.194426 192.24 
L 36 190.059032 
L 36 189.406558 
z
" clip-path="url(#p2aae203681)" style="fill: #440154"/>
   </g>
   <g id="PathCollection_6">
    <path d="M 41.952 191.848931 
L 43.809379 192.24 
L 41.952 192.24 
L 41.449262 192.24 
L 36 189.406558 
L 36 188.754083 
z
" clip-path="url(#p2aae203681)" style="fill: #440154"/>
   </g>
   <g id="PathCollection_7">
    <path d="M 41.952 191.196452 
L 46.908317 192.24 
L 43.809379 192.24 
L 41.952 191.848931 
L 36 188.754083 
L 36 188.101608 
z
" clip-path="url(#p2aae203681)" style="fill: #440154"/>
   </g>
   <g id="PathCollection_8">
    <path d="M 41.952 190.543973 
L 47.904 191.797159 
L 52.091957 192.24 
L 47.904 192.24 
L 46.908317 192.24 
L 41.952 191.196452 
L 36 188.101608 
L 36 187.449134 
z
" clip-path="url(#p2aae203681)" style="fill: #440154"/>
   </g>
   <g id="PathCollection_9">
    <path d="M 41.952 189.891494 
L 47.904 191.144677 
L 53.856 191.774048 
L 59.808 192.12542 
L 63.103626 192.24 
L 59.808 192.24 
L 53.856 192.24 
L 52.091957 192.24 
L 47.904 191.797159 
L 41.952 190.543973 
L 36 187.449134 
L 36 186.796659 
z
" clip-path="url(#p2aae203681)" style="fill: #440154"/>
    <path d="M 178.848 192.222025 
L 184.8 192.190483 
L 190.752 192.15923 
L 196.704 192.128304 
L 202.656 192.097735 
L 208.608 192.067545 
L 214.56 192.037749 
L 214.56 192.24 
L 208.608 192.24 
L 202.656 192.24 
L 196.704 192.24 
L 190.752 192.24 
L 184.8 192.24 
L 178.848 192.24 
L 175.481326 192.24 
z
" clip-path="url(#p2aae203681)" style="fill: #440154"/>
   </g>
   <g id="PathCollection_10">
    <path d="M 36 186.696 
L 36 185.379787 
L 37.061261 186.696 
L 41.952 189.239015 
L 47.904 190.492195 
L 53.856 191.121563 
L 59.808 191.472933 
L 65.76 191.679865 
L 71.712 191.804 
L 77.664 191.877337 
L 83.616 191.917938 
L 89.568 191.93666 
L 95.52 191.940355 
L 101.472 191.933515 
L 107.424 191.919182 
L 113.376 191.899468 
L 119.328 191.875873 
L 125.28 191.849479 
L 131.232 191.82108 
L 137.184 191.791267 
L 143.136 191.760482 
L 149.088 191.729059 
L 155.04 191.697255 
L 160.992 191.665265 
L 166.944 191.633239 
L 172.896 191.601291 
L 178.848 191.569512 
L 184.8 191.53797 
L 190.752 191.506716 
L 196.704 191.47579 
L 202.656 191.445221 
L 208.608 191.41503 
L 214.56 191.385234 
L 214.56 192.037749 
L 208.608 192.067545 
L 202.656 192.097735 
L 196.704 192.128304 
L 190.752 192.15923 
L 184.8 192.190483 
L 178.848 192.222025 
L 175.481326 192.24 
L 172.896 192.24 
L 166.944 192.24 
L 160.992 192.24 
L 155.04 192.24 
L 149.088 192.24 
L 143.136 192.24 
L 137.184 192.24 
L 131.232 192.24 
L 125.28 192.24 
L 119.328 192.24 
L 113.376 192.24 
L 107.424 192.24 
L 101.472 192.24 
L 95.52 192.24 
L 89.568 192.24 
L 83.616 192.24 
L 77.664 192.24 
L 71.712 192.24 
L 65.76 192.24 
L 63.103626 192.24 
L 59.808 192.12542 
L 53.856 191.774048 
L 47.904 191.144677 
L 41.952 189.891494 
L 36 186.796659 
z
" clip-path="url(#p2aae203681)" style="fill: #440154"/>
   </g>
   <g id="PathCollection_11">
    <path d="M 37.061261 186.696 
L 36 185.379787 
L 36 183.823477 
L 38.316111 186.696 
L 41.952 188.586537 
L 47.904 189.839713 
L 53.856 190.469078 
L 59.808 190.820445 
L 65.76 191.027374 
L 71.712 191.151507 
L 77.664 191.224842 
L 83.616 191.265442 
L 89.568 191.284162 
L 95.52 191.287855 
L 101.472 191.281014 
L 107.424 191.26668 
L 113.376 191.246965 
L 119.328 191.223368 
L 125.28 191.196973 
L 131.232 191.168574 
L 137.184 191.13876 
L 143.136 191.107973 
L 149.088 191.07655 
L 155.04 191.044746 
L 160.992 191.012754 
L 166.944 190.980727 
L 172.896 190.948779 
L 178.848 190.917 
L 184.8 190.885457 
L 190.752 190.854202 
L 196.704 190.823276 
L 202.656 190.792706 
L 208.608 190.762515 
L 214.56 190.732718 
L 214.56 191.385234 
L 208.608 191.41503 
L 202.656 191.445221 
L 196.704 191.47579 
L 190.752 191.506716 
L 184.8 191.53797 
L 178.848 191.569512 
L 172.896 191.601291 
L 166.944 191.633239 
L 160.992 191.665265 
L 155.04 191.697255 
L 149.088 191.729059 
L 143.136 191.760482 
L 137.184 191.791267 
L 131.232 191.82108 
L 125.28 191.849479 
L 119.328 191.875873 
L 113.376 191.899468 
L 107.424 191.919182 
L 101.472 191.933515 
L 95.52 191.940355 
L 89.568 191.93666 
L 83.616 191.917938 
L 77.664 191.877337 
L 71.712 191.804 
L 65.76 191.679865 
L 59.808 191.472933 
L 53.856 191.121563 
L 47.904 190.492195 
L 41.952 189.239015 
z
" clip-path="url(#p2aae203681)" style="fill: #440154"/>
   </g>
   <g id="PathCollection_12">
    <path d="M 38.316111 186.696 
L 36 183.823477 
L 36 182.267167 
L 39.570961 186.696 
L 41.952 187.934058 
L 47.904 189.18723 
L 53.856 189.816593 
L 59.808 190.167957 
L 65.76 190.374884 
L 71.712 190.499015 
L 77.664 190.572348 
L 83.616 190.612945 
L 89.568 190.631665 
L 95.52 190.635356 
L 101.472 190.628513 
L 107.424 190.614178 
L 113.376 190.594461 
L 119.328 190.570864 
L 125.28 190.544468 
L 131.232 190.516067 
L 137.184 190.486252 
L 143.136 190.455465 
L 149.088 190.424041 
L 155.04 190.392236 
L 160.992 190.360244 
L 166.944 190.328216 
L 172.896 190.296268 
L 178.848 190.264487 
L 184.8 190.232944 
L 190.752 190.201689 
L 196.704 190.170762 
L 202.656 190.140191 
L 208.608 190.11 
L 214.56 190.080203 
L 214.56 190.732718 
L 208.608 190.762515 
L 202.656 190.792706 
L 196.704 190.823276 
L 190.752 190.854202 
L 184.8 190.885457 
L 178.848 190.917 
L 172.896 190.948779 
L 166.944 190.980727 
L 160.992 191.012754 
L 155.04 191.044746 
L 149.088 191.07655 
L 143.136 191.107973 
L 137.184 191.13876 
L 131.232 191.168574 
L 125.28 191.196973 
L 119.328 191.223368 
L 113.376 191.246965 
L 107.424 191.26668 
L 101.472 191.281014 
L 95.52 191.287855 
L 89.568 191.284162 
L 83.616 191.265442 
L 77.664 191.224842 
L 71.712 191.151507 
L 65.76 191.027374 
L 59.808 190.820445 
L 53.856 190.469078 
L 47.904 189.839713 
L 41.952 188.586537 
z
" clip-path="url(#p2aae203681)" style="fill: #440154"/>
   </g>
   <g id="PathCollection_13">
    <path d="M 39.570961 186.696 
L 36 182.267167 
L 36 181.152 
L 36 180.309949 
L 36.355696 181.152 
L 40.825812 186.696 
L 41.952 187.281579 
L 47.904 188.534748 
L 53.856 189.164108 
L 59.808 189.515469 
L 65.76 189.722394 
L 71.712 189.846523 
L 77.664 189.919853 
L 83.616 189.960449 
L 89.568 189.979167 
L 95.52 189.982857 
L 101.472 189.976012 
L 107.424 189.961675 
L 113.376 189.941958 
L 119.328 189.918359 
L 125.28 189.891962 
L 131.232 189.863561 
L 137.184 189.833745 
L 143.136 189.802957 
L 149.088 189.771532 
L 155.04 189.739726 
L 160.992 189.707733 
L 166.944 189.675705 
L 172.896 189.643756 
L 178.848 189.611975 
L 184.8 189.580431 
L 190.752 189.549175 
L 196.704 189.518247 
L 202.656 189.487677 
L 208.608 189.457485 
L 214.56 189.427687 
L 214.56 190.080203 
L 208.608 190.11 
L 202.656 190.140191 
L 196.704 190.170762 
L 190.752 190.201689 
L 184.8 190.232944 
L 178.848 190.264487 
L 172.896 190.296268 
L 166.944 190.328216 
L 160.992 190.360244 
L 155.04 190.392236 
L 149.088 190.424041 
L 143.136 190.455465 
L 137.184 190.486252 
L 131.232 190.516067 
L 125.28 190.544468 
L 119.328 190.570864 
L 113.376 190.594461 
L 107.424 190.614178 
L 101.472 190.628513 
L 95.52 190.635356 
L 89.568 190.631665 
L 83.616 190.612945 
L 77.664 190.572348 
L 71.712 190.499015 
L 65.76 190.374884 
L 59.808 190.167957 
L 53.856 189.816593 
L 47.904 189.18723 
L 41.952 187.934058 
z
" clip-path="url(#p2aae203681)" style="fill: #440154"/>
   </g>
   <g id="PathCollection_14">
    <path d="M 40.825812 186.696 
L 36.355696 181.152 
L 36 180.309949 
L 36 177.339269 
L 37.610561 181.152 
L 41.952 186.536427 
L 42.269746 186.696 
L 47.904 187.882266 
L 53.856 188.511622 
L 59.808 188.862981 
L 65.76 189.069904 
L 71.712 189.19403 
L 77.664 189.267359 
L 83.616 189.307953 
L 89.568 189.326669 
L 95.52 189.330357 
L 101.472 189.323512 
L 107.424 189.309173 
L 113.376 189.289455 
L 119.328 189.265855 
L 125.28 189.239457 
L 131.232 189.211054 
L 137.184 189.181237 
L 143.136 189.150448 
L 149.088 189.119023 
L 155.04 189.087216 
L 160.992 189.055223 
L 166.944 189.023193 
L 172.896 188.991244 
L 178.848 188.959462 
L 184.8 188.927918 
L 190.752 188.896661 
L 196.704 188.865733 
L 202.656 188.835162 
L 208.608 188.80497 
L 214.56 188.775171 
L 214.56 189.427687 
L 208.608 189.457485 
L 202.656 189.487677 
L 196.704 189.518247 
L 190.752 189.549175 
L 184.8 189.580431 
L 178.848 189.611975 
L 172.896 189.643756 
L 166.944 189.675705 
L 160.992 189.707733 
L 155.04 189.739726 
L 149.088 189.771532 
L 143.136 189.802957 
L 137.184 189.833745 
L 131.232 189.863561 
L 125.28 189.891962 
L 119.328 189.918359 
L 113.376 189.941958 
L 107.424 189.961675 
L 101.472 189.976012 
L 95.52 189.982857 
L 89.568 189.979167 
L 83.616 189.960449 
L 77.664 189.919853 
L 71.712 189.846523 
L 65.76 189.722394 
L 59.808 189.515469 
L 53.856 189.164108 
L 47.904 188.534748 
L 41.952 187.281579 
z
" clip-path="url(#p2aae203681)" style="fill: #440154"/>
   </g>
   <g id="PathCollection_15">
    <path d="M 37.610561 181.152 
L 36 177.339269 
L 36 175.608 
L 36 173.502429 
L 36.523553 175.608 
L 38.865425 181.152 
L 41.952 184.980094 
L 45.368756 186.696 
L 47.904 187.229784 
L 53.856 187.859137 
L 59.808 188.210494 
L 65.76 188.417414 
L 71.712 188.541538 
L 77.664 188.614865 
L 83.616 188.655457 
L 89.568 188.674171 
L 95.52 188.677858 
L 101.472 188.671011 
L 107.424 188.656671 
L 113.376 188.636951 
L 119.328 188.61335 
L 125.28 188.586951 
L 131.232 188.558547 
L 137.184 188.52873 
L 143.136 188.49794 
L 149.088 188.466514 
L 155.04 188.434706 
L 160.992 188.402712 
L 166.944 188.370682 
L 172.896 188.338732 
L 178.848 188.30695 
L 184.8 188.275404 
L 190.752 188.244148 
L 196.704 188.213219 
L 202.656 188.182648 
L 208.608 188.152455 
L 214.56 188.122656 
L 214.56 188.775171 
L 208.608 188.80497 
L 202.656 188.835162 
L 196.704 188.865733 
L 190.752 188.896661 
L 184.8 188.927918 
L 178.848 188.959462 
L 172.896 188.991244 
L 166.944 189.023193 
L 160.992 189.055223 
L 155.04 189.087216 
L 149.088 189.119023 
L 143.136 189.150448 
L 137.184 189.181237 
L 131.232 189.211054 
L 125.28 189.239457 
L 119.328 189.265855 
L 113.376 189.289455 
L 107.424 189.309173 
L 101.472 189.323512 
L 95.52 189.330357 
L 89.568 189.326669 
L 83.616 189.307953 
L 77.664 189.267359 
L 71.712 189.19403 
L 65.76 189.069904 
L 59.808 188.862981 
L 53.856 188.511622 
L 47.904 187.882266 
L 42.269746 186.696 
L 41.952 186.536427 
z
" clip-path="url(#p2aae203681)" style="fill: #48186a"/>
   </g>
   <g id="PathCollection_16">
    <path d="M 38.865425 181.152 
L 36.523553 175.608 
L 36 173.502429 
L 36 170.064 
L 36 167.513921 
L 36.399912 170.064 
L 37.778431 175.608 
L 40.120289 181.152 
L 41.952 183.423761 
L 47.904 186.412871 
L 49.026579 186.696 
L 53.856 187.206652 
L 59.808 187.558006 
L 65.76 187.764923 
L 71.712 187.889045 
L 77.664 187.96237 
L 83.616 188.002961 
L 89.568 188.021673 
L 95.52 188.025358 
L 101.472 188.01851 
L 107.424 188.004169 
L 113.376 187.984448 
L 119.328 187.960846 
L 125.28 187.934445 
L 131.232 187.906041 
L 137.184 187.876222 
L 143.136 187.845432 
L 149.088 187.814005 
L 155.04 187.782196 
L 160.992 187.750201 
L 166.944 187.718171 
L 172.896 187.68622 
L 178.848 187.654437 
L 184.8 187.622891 
L 190.752 187.591634 
L 196.704 187.560705 
L 202.656 187.530133 
L 208.608 187.49994 
L 214.56 187.47014 
L 214.56 188.122656 
L 208.608 188.152455 
L 202.656 188.182648 
L 196.704 188.213219 
L 190.752 188.244148 
L 184.8 188.275404 
L 178.848 188.30695 
L 172.896 188.338732 
L 166.944 188.370682 
L 160.992 188.402712 
L 155.04 188.434706 
L 149.088 188.466514 
L 143.136 188.49794 
L 137.184 188.52873 
L 131.232 188.558547 
L 125.28 188.586951 
L 119.328 188.61335 
L 113.376 188.636951 
L 107.424 188.656671 
L 101.472 188.671011 
L 95.52 188.677858 
L 89.568 188.674171 
L 83.616 188.655457 
L 77.664 188.614865 
L 71.712 188.541538 
L 65.76 188.417414 
L 59.808 188.210494 
L 53.856 187.859137 
L 47.904 187.229784 
L 45.368756 186.696 
L 41.952 184.980094 
z
" clip-path="url(#p2aae203681)" style="fill: #46327e"/>
   </g>
   <g id="PathCollection_17">
    <path d="M 40.120289 181.152 
L 37.778431 175.608 
L 36.399912 170.064 
L 36 167.513921 
L 36 164.52 
L 36 158.976 
L 36 155.911519 
L 36.213287 158.976 
L 36.785382 164.52 
L 37.654803 170.064 
L 39.033309 175.608 
L 41.375153 181.152 
L 41.952 181.867428 
L 47.904 184.856519 
L 53.856 186.357686 
L 56.258704 186.696 
L 59.808 186.905518 
L 65.76 187.112433 
L 71.712 187.236553 
L 77.664 187.309876 
L 83.616 187.350464 
L 89.568 187.369175 
L 95.52 187.372859 
L 101.472 187.366009 
L 107.424 187.351667 
L 113.376 187.331945 
L 119.328 187.308341 
L 125.28 187.28194 
L 131.232 187.253534 
L 137.184 187.223715 
L 143.136 187.192923 
L 149.088 187.161496 
L 155.04 187.129686 
L 160.992 187.097691 
L 166.944 187.065659 
L 172.896 187.033708 
L 178.848 187.001925 
L 184.8 186.970378 
L 190.752 186.93912 
L 196.704 186.908191 
L 202.656 186.877618 
L 208.608 186.847424 
L 214.56 186.817625 
L 214.56 187.47014 
L 208.608 187.49994 
L 202.656 187.530133 
L 196.704 187.560705 
L 190.752 187.591634 
L 184.8 187.622891 
L 178.848 187.654437 
L 172.896 187.68622 
L 166.944 187.718171 
L 160.992 187.750201 
L 155.04 187.782196 
L 149.088 187.814005 
L 143.136 187.845432 
L 137.184 187.876222 
L 131.232 187.906041 
L 125.28 187.934445 
L 119.328 187.960846 
L 113.376 187.984448 
L 107.424 188.004169 
L 101.472 188.01851 
L 95.52 188.025358 
L 89.568 188.021673 
L 83.616 188.002961 
L 77.664 187.96237 
L 71.712 187.889045 
L 65.76 187.764923 
L 59.808 187.558006 
L 53.856 187.206652 
L 49.026579 186.696 
L 47.904 186.412871 
L 41.952 183.423761 
z
" clip-path="url(#p2aae203681)" style="fill: #3f4889"/>
   </g>
   <g id="PathCollection_18">
    <path d="M 41.375153 181.152 
L 39.033309 175.608 
L 37.654803 170.064 
L 36.785382 164.52 
L 36.213287 158.976 
L 36 155.911519 
L 36 153.432 
L 36 147.888 
L 36 142.344 
L 36 136.8 
L 36 131.256 
L 36 125.712 
L 36 120.168 
L 36 114.624 
L 36 109.08 
L 36 103.536 
L 36 97.992 
L 36 92.448 
L 36 86.904 
L 36 81.36 
L 36 75.816 
L 36 70.272 
L 36 64.728 
L 36 59.184 
L 36 53.64 
L 36 48.096 
L 36 42.552 
L 36 37.008 
L 36 31.464 
L 36 25.92 
L 37.139948 25.92 
L 37.080959 31.464 
L 37.021962 37.008 
L 36.963093 42.552 
L 36.90452 48.096 
L 36.846447 53.64 
L 36.789121 59.184 
L 36.732848 64.728 
L 36.677999 70.272 
L 36.625037 75.816 
L 36.57453 81.36 
L 36.527191 86.904 
L 36.483911 92.448 
L 36.445814 97.992 
L 36.414337 103.536 
L 36.391323 109.08 
L 36.379172 114.624 
L 36.381045 120.168 
L 36.401164 125.712 
L 36.445265 131.256 
L 36.521294 136.8 
L 36.640512 142.344 
L 36.819314 147.888 
L 37.082352 153.432 
L 37.468204 158.976 
L 38.040286 164.52 
L 38.909694 170.064 
L 40.288187 175.608 
L 41.952 179.546863 
L 43.62647 181.152 
L 47.904 183.300166 
L 53.856 184.801317 
L 59.808 185.63938 
L 65.76 186.132928 
L 71.712 186.428987 
L 77.664 186.603881 
L 83.32737 186.696 
L 83.616 186.697968 
L 89.568 186.716677 
L 95.52 186.72036 
L 101.472 186.713508 
L 107.424 186.699165 
L 108.37902 186.696 
L 113.376 186.656501 
L 119.328 186.600195 
L 125.28 186.537214 
L 131.232 186.469453 
L 137.184 186.398318 
L 143.136 186.324865 
L 149.088 186.249894 
L 155.04 186.174012 
L 160.992 186.097687 
L 166.944 186.021276 
L 172.896 185.945055 
L 178.848 185.869236 
L 184.8 185.793981 
L 190.752 185.719415 
L 196.704 185.645631 
L 202.656 185.5727 
L 208.608 185.500672 
L 214.56 185.429583 
L 214.56 186.696 
L 214.56 186.817625 
L 208.608 186.847424 
L 202.656 186.877618 
L 196.704 186.908191 
L 190.752 186.93912 
L 184.8 186.970378 
L 178.848 187.001925 
L 172.896 187.033708 
L 166.944 187.065659 
L 160.992 187.097691 
L 155.04 187.129686 
L 149.088 187.161496 
L 143.136 187.192923 
L 137.184 187.223715 
L 131.232 187.253534 
L 125.28 187.28194 
L 119.328 187.308341 
L 113.376 187.331945 
L 107.424 187.351667 
L 101.472 187.366009 
L 95.52 187.372859 
L 89.568 187.369175 
L 83.616 187.350464 
L 77.664 187.309876 
L 71.712 187.236553 
L 65.76 187.112433 
L 59.808 186.905518 
L 56.258704 186.696 
L 53.856 186.357686 
L 47.904 184.856519 
L 41.952 181.867428 
z
" clip-path="url(#p2aae203681)" style="fill: #365d8d"/>
   </g>
   <g id="PathCollection_19">
    <path d="M 40.288187 175.608 
L 38.909694 170.064 
L 38.040286 164.52 
L 37.468204 158.976 
L 37.082352 153.432 
L 36.819314 147.888 
L 36.640512 142.344 
L 36.521294 136.8 
L 36.445265 131.256 
L 36.401164 125.712 
L 36.381045 120.168 
L 36.379172 114.624 
L 36.391323 109.08 
L 36.414337 103.536 
L 36.445814 97.992 
L 36.483911 92.448 
L 36.527191 86.904 
L 36.57453 81.36 
L 36.625037 75.816 
L 36.677999 70.272 
L 36.732848 64.728 
L 36.789121 59.184 
L 36.846447 53.64 
L 36.90452 48.096 
L 36.963093 42.552 
L 37.021962 37.008 
L 37.080959 31.464 
L 37.139948 25.92 
L 38.395055 25.92 
L 38.336061 31.464 
L 38.277059 37.008 
L 38.218184 42.552 
L 38.159606 48.096 
L 38.101527 53.64 
L 38.044195 59.184 
L 37.987915 64.728 
L 37.93306 70.272 
L 37.88009 75.816 
L 37.829577 81.36 
L 37.782231 86.904 
L 37.738942 92.448 
L 37.700838 97.992 
L 37.669353 103.536 
L 37.646331 109.08 
L 37.634171 114.624 
L 37.636035 120.168 
L 37.656145 125.712 
L 37.700236 131.256 
L 37.776255 136.8 
L 37.895463 142.344 
L 38.074253 147.888 
L 38.337281 153.432 
L 38.72312 158.976 
L 39.29519 164.52 
L 40.164586 170.064 
L 41.543065 175.608 
L 41.952 176.576102 
L 46.725553 181.152 
L 47.904 181.743814 
L 53.856 183.244947 
L 59.808 184.082994 
L 65.76 184.576529 
L 71.712 184.872575 
L 77.664 185.047458 
L 83.616 185.14426 
L 89.568 185.188879 
L 95.52 185.197653 
L 101.472 185.181302 
L 107.424 185.14708 
L 113.376 185.100025 
L 119.328 185.043712 
L 125.28 184.980725 
L 131.232 184.912958 
L 137.184 184.841818 
L 143.136 184.76836 
L 149.088 184.693384 
L 155.04 184.617498 
L 160.992 184.541168 
L 166.944 184.464753 
L 172.896 184.388529 
L 178.848 184.312706 
L 184.8 184.237448 
L 190.752 184.162879 
L 196.704 184.089092 
L 202.656 184.016158 
L 208.608 183.944127 
L 214.56 183.873036 
L 214.56 185.429583 
L 208.608 185.500672 
L 202.656 185.5727 
L 196.704 185.645631 
L 190.752 185.719415 
L 184.8 185.793981 
L 178.848 185.869236 
L 172.896 185.945055 
L 166.944 186.021276 
L 160.992 186.097687 
L 155.04 186.174012 
L 149.088 186.249894 
L 143.136 186.324865 
L 137.184 186.398318 
L 131.232 186.469453 
L 125.28 186.537214 
L 119.328 186.600195 
L 113.376 186.656501 
L 108.37902 186.696 
L 107.424 186.699165 
L 101.472 186.713508 
L 95.52 186.72036 
L 89.568 186.716677 
L 83.616 186.697968 
L 83.32737 186.696 
L 77.664 186.603881 
L 71.712 186.428987 
L 65.76 186.132928 
L 59.808 185.63938 
L 53.856 184.801317 
L 47.904 183.300166 
L 43.62647 181.152 
L 41.952 179.546863 
z
" clip-path="url(#p2aae203681)" style="fill: #2d708e"/>
   </g>
   <g id="PathCollection_20">
    <path d="M 41.543065 175.608 
L 40.164586 170.064 
L 39.29519 164.52 
L 38.72312 158.976 
L 38.337281 153.432 
L 38.074253 147.888 
L 37.895463 142.344 
L 37.776255 136.8 
L 37.700236 131.256 
L 37.656145 125.712 
L 37.636035 120.168 
L 37.634171 114.624 
L 37.646331 109.08 
L 37.669353 103.536 
L 37.700838 97.992 
L 37.738942 92.448 
L 37.782231 86.904 
L 37.829577 81.36 
L 37.88009 75.816 
L 37.93306 70.272 
L 37.987915 64.728 
L 38.044195 59.184 
L 38.101527 53.64 
L 38.159606 48.096 
L 38.218184 42.552 
L 38.277059 37.008 
L 38.336061 31.464 
L 38.395055 25.92 
L 39.650163 25.92 
L 39.591164 31.464 
L 39.532155 37.008 
L 39.473276 42.552 
L 39.414691 48.096 
L 39.356606 53.64 
L 39.299268 59.184 
L 39.242982 64.728 
L 39.18812 70.272 
L 39.135144 75.816 
L 39.084624 81.36 
L 39.03727 86.904 
L 38.993974 92.448 
L 38.955862 97.992 
L 38.924369 103.536 
L 38.901338 109.08 
L 38.88917 114.624 
L 38.891025 120.168 
L 38.911125 125.712 
L 38.955207 131.256 
L 39.031216 136.8 
L 39.150413 142.344 
L 39.329193 147.888 
L 39.592209 153.432 
L 39.978036 158.976 
L 40.550094 164.52 
L 41.419477 170.064 
L 41.952 172.205721 
L 44.041213 175.608 
L 47.904 179.310847 
L 51.72846 181.152 
L 53.856 181.688577 
L 59.808 182.526609 
L 65.76 183.020129 
L 71.712 183.316163 
L 77.664 183.491034 
L 83.616 183.587826 
L 89.568 183.632434 
L 95.52 183.6412 
L 101.472 183.624841 
L 107.424 183.59061 
L 113.376 183.543548 
L 119.328 183.487229 
L 125.28 183.424236 
L 131.232 183.356463 
L 137.184 183.285317 
L 143.136 183.211855 
L 149.088 183.136874 
L 155.04 183.060983 
L 160.992 182.98465 
L 166.944 182.908231 
L 172.896 182.832003 
L 178.848 182.756177 
L 184.8 182.680915 
L 190.752 182.606343 
L 196.704 182.532553 
L 202.656 182.459616 
L 208.608 182.387583 
L 214.56 182.316489 
L 214.56 183.873036 
L 208.608 183.944127 
L 202.656 184.016158 
L 196.704 184.089092 
L 190.752 184.162879 
L 184.8 184.237448 
L 178.848 184.312706 
L 172.896 184.388529 
L 166.944 184.464753 
L 160.992 184.541168 
L 155.04 184.617498 
L 149.088 184.693384 
L 143.136 184.76836 
L 137.184 184.841818 
L 131.232 184.912958 
L 125.28 184.980725 
L 119.328 185.043712 
L 113.376 185.100025 
L 107.424 185.14708 
L 101.472 185.181302 
L 95.52 185.197653 
L 89.568 185.188879 
L 83.616 185.14426 
L 77.664 185.047458 
L 71.712 184.872575 
L 65.76 184.576529 
L 59.808 184.082994 
L 53.856 183.244947 
L 47.904 181.743814 
L 46.725553 181.152 
L 41.952 176.576102 
z
" clip-path="url(#p2aae203681)" style="fill: #26828e"/>
   </g>
   <g id="PathCollection_21">
    <path d="M 41.419477 170.064 
L 40.550094 164.52 
L 39.978036 158.976 
L 39.592209 153.432 
L 39.329193 147.888 
L 39.150413 142.344 
L 39.031216 136.8 
L 38.955207 131.256 
L 38.911125 125.712 
L 38.891025 120.168 
L 38.88917 114.624 
L 38.901338 109.08 
L 38.924369 103.536 
L 38.955862 97.992 
L 38.993974 92.448 
L 39.03727 86.904 
L 39.084624 81.36 
L 39.135144 75.816 
L 39.18812 70.272 
L 39.242982 64.728 
L 39.299268 59.184 
L 39.356606 53.64 
L 39.414691 48.096 
L 39.473276 42.552 
L 39.532155 37.008 
L 39.591164 31.464 
L 39.650163 25.92 
L 40.905271 25.92 
L 40.846266 31.464 
L 40.787252 37.008 
L 40.728367 42.552 
L 40.669777 48.096 
L 40.611686 53.64 
L 40.554342 59.184 
L 40.498049 64.728 
L 40.443181 70.272 
L 40.390198 75.816 
L 40.33967 81.36 
L 40.292309 86.904 
L 40.249006 92.448 
L 40.210886 97.992 
L 40.179385 103.536 
L 40.156346 109.08 
L 40.144169 114.624 
L 40.146015 120.168 
L 40.166106 125.712 
L 40.210178 131.256 
L 40.286177 136.8 
L 40.405363 142.344 
L 40.584132 147.888 
L 40.847137 153.432 
L 41.232952 158.976 
L 41.804998 164.52 
L 41.952 165.457429 
L 43.736044 170.064 
L 47.140367 175.608 
L 47.904 176.340014 
L 53.856 179.205356 
L 59.808 180.805011 
L 62.00035 181.152 
L 65.76 181.46373 
L 71.712 181.759751 
L 77.664 181.93461 
L 83.616 182.031391 
L 89.568 182.07599 
L 95.52 182.084747 
L 101.472 182.068379 
L 107.424 182.034141 
L 113.376 181.987072 
L 119.328 181.930746 
L 125.28 181.867747 
L 131.232 181.799968 
L 137.184 181.728817 
L 143.136 181.655349 
L 149.088 181.580364 
L 155.04 181.504469 
L 160.992 181.428131 
L 166.944 181.351709 
L 172.896 181.275477 
L 178.848 181.199647 
L 182.615973 181.152 
L 184.8 181.099277 
L 190.752 180.956908 
L 196.704 180.816034 
L 202.656 180.676787 
L 208.608 180.539265 
L 214.56 180.403538 
L 214.56 181.152 
L 214.56 182.316489 
L 208.608 182.387583 
L 202.656 182.459616 
L 196.704 182.532553 
L 190.752 182.606343 
L 184.8 182.680915 
L 178.848 182.756177 
L 172.896 182.832003 
L 166.944 182.908231 
L 160.992 182.98465 
L 155.04 183.060983 
L 149.088 183.136874 
L 143.136 183.211855 
L 137.184 183.285317 
L 131.232 183.356463 
L 125.28 183.424236 
L 119.328 183.487229 
L 113.376 183.543548 
L 107.424 183.59061 
L 101.472 183.624841 
L 95.52 183.6412 
L 89.568 183.632434 
L 83.616 183.587826 
L 77.664 183.491034 
L 71.712 183.316163 
L 65.76 183.020129 
L 59.808 182.526609 
L 53.856 181.688577 
L 51.72846 181.152 
L 47.904 179.310847 
L 44.041213 175.608 
L 41.952 172.205721 
z
" clip-path="url(#p2aae203681)" style="fill: #20938c"/>
   </g>
   <g id="PathCollection_22">
    <path d="M 41.804998 164.52 
L 41.232952 158.976 
L 40.847137 153.432 
L 40.584132 147.888 
L 40.405363 142.344 
L 40.286177 136.8 
L 40.210178 131.256 
L 40.166106 125.712 
L 40.146015 120.168 
L 40.144169 114.624 
L 40.156346 109.08 
L 40.179385 103.536 
L 40.210886 97.992 
L 40.249006 92.448 
L 40.292309 86.904 
L 40.33967 81.36 
L 40.390198 75.816 
L 40.443181 70.272 
L 40.498049 64.728 
L 40.554342 59.184 
L 40.611686 53.64 
L 40.669777 48.096 
L 40.728367 42.552 
L 40.787252 37.008 
L 40.846266 31.464 
L 40.905271 25.92 
L 41.952 25.92 
L 42.466748 25.92 
L 42.320976 31.464 
L 42.175183 37.008 
L 42.029709 42.552 
L 41.952 45.528392 
L 41.924862 48.096 
L 41.866765 53.64 
L 41.809415 59.184 
L 41.753116 64.728 
L 41.698241 70.272 
L 41.645251 75.816 
L 41.594717 81.36 
L 41.547349 86.904 
L 41.504038 92.448 
L 41.465911 97.992 
L 41.434401 103.536 
L 41.411354 109.08 
L 41.399169 114.624 
L 41.401006 120.168 
L 41.421087 125.712 
L 41.465149 131.256 
L 41.541138 136.8 
L 41.660314 142.344 
L 41.839072 147.888 
L 41.952 150.268562 
L 42.322631 153.432 
L 43.275475 158.976 
L 44.688236 164.52 
L 46.835269 170.064 
L 47.904 171.804457 
L 52.554685 175.608 
L 53.856 176.23446 
L 59.808 177.834059 
L 65.76 178.776056 
L 71.712 179.341091 
L 77.664 179.674849 
L 83.616 179.859568 
L 89.568 179.944679 
L 95.52 179.961371 
L 101.472 179.930104 
L 107.424 179.864725 
L 113.376 179.774851 
L 119.328 179.667308 
L 125.28 179.547025 
L 131.232 179.41762 
L 137.184 179.281776 
L 143.136 179.141511 
L 149.088 178.998347 
L 155.04 178.853448 
L 160.992 178.707704 
L 166.944 178.561797 
L 172.896 178.416255 
L 178.848 178.271481 
L 184.8 178.127785 
L 190.752 177.985405 
L 196.704 177.84452 
L 202.656 177.705263 
L 208.608 177.567732 
L 214.56 177.431995 
L 214.56 180.403538 
L 208.608 180.539265 
L 202.656 180.676787 
L 196.704 180.816034 
L 190.752 180.956908 
L 184.8 181.099277 
L 182.615973 181.152 
L 178.848 181.199647 
L 172.896 181.275477 
L 166.944 181.351709 
L 160.992 181.428131 
L 155.04 181.504469 
L 149.088 181.580364 
L 143.136 181.655349 
L 137.184 181.728817 
L 131.232 181.799968 
L 125.28 181.867747 
L 119.328 181.930746 
L 113.376 181.987072 
L 107.424 182.034141 
L 101.472 182.068379 
L 95.52 182.084747 
L 89.568 182.07599 
L 83.616 182.031391 
L 77.664 181.93461 
L 71.712 181.759751 
L 65.76 181.46373 
L 62.00035 181.152 
L 59.808 180.805011 
L 53.856 179.205356 
L 47.904 176.340014 
L 47.140367 175.608 
L 43.736044 170.064 
L 41.952 165.457429 
z
" clip-path="url(#p2aae203681)" style="fill: #21a585"/>
   </g>
   <g id="PathCollection_23">
    <path d="M 41.839072 147.888 
L 41.660314 142.344 
L 41.541138 136.8 
L 41.465149 131.256 
L 41.421087 125.712 
L 41.401006 120.168 
L 41.399169 114.624 
L 41.411354 109.08 
L 41.434401 103.536 
L 41.465911 97.992 
L 41.504038 92.448 
L 41.547349 86.904 
L 41.594717 81.36 
L 41.645251 75.816 
L 41.698241 70.272 
L 41.753116 64.728 
L 41.809415 59.184 
L 41.866765 53.64 
L 41.924862 48.096 
L 41.952 45.528392 
L 42.029709 42.552 
L 42.175183 37.008 
L 42.320976 31.464 
L 42.466748 25.92 
L 45.567185 25.92 
L 45.421383 31.464 
L 45.275559 37.008 
L 45.130052 42.552 
L 44.985275 48.096 
L 44.84173 53.64 
L 44.700031 59.184 
L 44.56093 64.728 
L 44.425348 70.272 
L 44.294423 75.816 
L 44.169564 81.36 
L 44.052526 86.904 
L 43.945511 92.448 
L 43.851299 97.992 
L 43.773434 103.536 
L 43.716471 109.08 
L 43.686338 114.624 
L 43.690837 120.168 
L 43.740397 125.712 
L 43.849184 131.256 
L 44.036824 136.8 
L 44.331125 142.344 
L 44.772573 147.888 
L 45.422055 153.432 
L 46.374835 158.976 
L 47.787529 164.52 
L 47.904 164.82075 
L 51.94736 170.064 
L 53.856 171.624966 
L 59.808 174.34246 
L 64.514879 175.608 
L 65.76 175.805052 
L 71.712 176.37004 
L 77.664 176.703755 
L 83.616 176.888436 
L 89.568 176.97351 
L 95.52 176.99017 
L 101.472 176.958872 
L 107.424 176.893465 
L 113.376 176.803565 
L 119.328 176.695998 
L 125.28 176.575693 
L 131.232 176.446267 
L 137.184 176.310404 
L 143.136 176.17012 
L 149.088 176.026939 
L 155.04 175.882024 
L 160.992 175.736265 
L 166.223827 175.608 
L 166.944 175.578 
L 172.896 175.330678 
L 178.848 175.084661 
L 184.8 174.840477 
L 190.752 174.598529 
L 196.704 174.35912 
L 202.656 174.122477 
L 208.608 173.888767 
L 214.56 173.658105 
L 214.56 175.608 
L 214.56 177.431995 
L 208.608 177.567732 
L 202.656 177.705263 
L 196.704 177.84452 
L 190.752 177.985405 
L 184.8 178.127785 
L 178.848 178.271481 
L 172.896 178.416255 
L 166.944 178.561797 
L 160.992 178.707704 
L 155.04 178.853448 
L 149.088 178.998347 
L 143.136 179.141511 
L 137.184 179.281776 
L 131.232 179.41762 
L 125.28 179.547025 
L 119.328 179.667308 
L 113.376 179.774851 
L 107.424 179.864725 
L 101.472 179.930104 
L 95.52 179.961371 
L 89.568 179.944679 
L 83.616 179.859568 
L 77.664 179.674849 
L 71.712 179.341091 
L 65.76 178.776056 
L 59.808 177.834059 
L 53.856 176.23446 
L 52.554685 175.608 
L 47.904 171.804457 
L 46.835269 170.064 
L 44.688236 164.52 
L 43.275475 158.976 
L 42.322631 153.432 
L 41.952 150.268562 
z
" clip-path="url(#p2aae203681)" style="fill: #34b679"/>
   </g>
   <g id="PathCollection_24">
    <path d="M 47.787529 164.52 
L 46.374835 158.976 
L 45.422055 153.432 
L 44.772573 147.888 
L 44.331125 142.344 
L 44.036824 136.8 
L 43.849184 131.256 
L 43.740397 125.712 
L 43.690837 120.168 
L 43.686338 114.624 
L 43.716471 109.08 
L 43.773434 103.536 
L 43.851299 97.992 
L 43.945511 92.448 
L 44.052526 86.904 
L 44.169564 81.36 
L 44.294423 75.816 
L 44.425348 70.272 
L 44.56093 64.728 
L 44.700031 59.184 
L 44.84173 53.64 
L 44.985275 48.096 
L 45.130052 42.552 
L 45.275559 37.008 
L 45.421383 31.464 
L 45.567185 25.92 
L 47.904 25.92 
L 49.425111 25.92 
L 49.134607 31.464 
L 48.844061 37.008 
L 48.554151 42.552 
L 48.265697 48.096 
L 47.979702 53.64 
L 47.904 55.126588 
L 47.800271 59.184 
L 47.661134 64.728 
L 47.525514 70.272 
L 47.39455 75.816 
L 47.269651 81.36 
L 47.152572 86.904 
L 47.045515 92.448 
L 46.951259 97.992 
L 46.873348 103.536 
L 46.816339 109.08 
L 46.786156 114.624 
L 46.790605 120.168 
L 46.840113 125.712 
L 46.948846 131.256 
L 47.136429 136.8 
L 47.430672 142.344 
L 47.872061 147.888 
L 47.904 148.160657 
L 49.133663 153.432 
L 51.030868 158.976 
L 53.843856 164.52 
L 53.856 164.535749 
L 59.808 168.844519 
L 62.66859 170.064 
L 65.76 170.895128 
L 71.712 171.854908 
L 77.664 172.421783 
L 83.616 172.735465 
L 89.568 172.879925 
L 95.52 172.908154 
L 101.472 172.854907 
L 107.424 172.74371 
L 113.376 172.590902 
L 119.328 172.408077 
L 125.28 172.203613 
L 131.232 171.983651 
L 137.184 171.752755 
L 143.136 171.514348 
L 149.088 171.271021 
L 155.04 171.024747 
L 160.992 170.77704 
L 166.944 170.529059 
L 172.896 170.281698 
L 178.162118 170.064 
L 178.848 170.019031 
L 184.8 169.63171 
L 190.752 169.247933 
L 196.704 168.868184 
L 202.656 168.492822 
L 208.608 168.122111 
L 214.56 167.756236 
L 214.56 170.064 
L 214.56 173.658105 
L 208.608 173.888767 
L 202.656 174.122477 
L 196.704 174.35912 
L 190.752 174.598529 
L 184.8 174.840477 
L 178.848 175.084661 
L 172.896 175.330678 
L 166.944 175.578 
L 166.223827 175.608 
L 160.992 175.736265 
L 155.04 175.882024 
L 149.088 176.026939 
L 143.136 176.17012 
L 137.184 176.310404 
L 131.232 176.446267 
L 125.28 176.575693 
L 119.328 176.695998 
L 113.376 176.803565 
L 107.424 176.893465 
L 101.472 176.958872 
L 95.52 176.99017 
L 89.568 176.97351 
L 83.616 176.888436 
L 77.664 176.703755 
L 71.712 176.37004 
L 65.76 175.805052 
L 64.514879 175.608 
L 59.808 174.34246 
L 53.856 171.624966 
L 51.94736 170.064 
L 47.904 164.82075 
z
" clip-path="url(#p2aae203681)" style="fill: #58c765"/>
   </g>
   <g id="PathCollection_25">
    <path d="M 47.872061 147.888 
L 47.430672 142.344 
L 47.136429 136.8 
L 46.948846 131.256 
L 46.840113 125.712 
L 46.790605 120.168 
L 46.786156 114.624 
L 46.816339 109.08 
L 46.873348 103.536 
L 46.951259 97.992 
L 47.045515 92.448 
L 47.152572 86.904 
L 47.269651 81.36 
L 47.39455 75.816 
L 47.525514 70.272 
L 47.661134 64.728 
L 47.800271 59.184 
L 47.904 55.126588 
L 47.979702 53.64 
L 48.265697 48.096 
L 48.554151 42.552 
L 48.844061 37.008 
L 49.134607 31.464 
L 49.425111 25.92 
L 53.856 25.92 
L 56.983543 25.92 
L 56.462665 31.464 
L 55.941721 37.008 
L 55.421921 42.552 
L 54.904739 48.096 
L 54.391969 53.64 
L 53.885802 59.184 
L 53.856 59.516507 
L 53.595357 64.728 
L 53.325094 70.272 
L 53.064106 75.816 
L 52.815199 81.36 
L 52.581869 86.904 
L 52.3685 92.448 
L 52.180629 97.992 
L 52.025312 103.536 
L 51.911622 109.08 
L 51.851359 114.624 
L 51.860065 120.168 
L 51.958504 125.712 
L 52.174885 131.256 
L 52.548285 136.8 
L 53.134078 142.344 
L 53.856 146.898284 
L 54.137056 147.888 
L 56.453541 153.432 
L 59.808 158.904493 
L 59.882437 158.976 
L 65.76 162.78384 
L 70.228 164.52 
L 71.712 164.899403 
L 77.664 165.798072 
L 83.616 166.295274 
L 89.568 166.524155 
L 95.52 166.568734 
L 101.472 166.484122 
L 107.424 166.307622 
L 113.376 166.06514 
L 119.328 165.775064 
L 125.28 165.450674 
L 131.232 165.101713 
L 137.184 164.735414 
L 140.574082 164.52 
L 143.136 164.272523 
L 149.088 163.68571 
L 155.04 163.091791 
L 160.992 162.494411 
L 166.944 161.896368 
L 172.896 161.299819 
L 178.848 160.70642 
L 184.8 160.117443 
L 190.752 159.533856 
L 196.501935 158.976 
L 196.704 158.946919 
L 202.656 158.100221 
L 208.608 157.264003 
L 214.56 156.438686 
L 214.56 158.976 
L 214.56 164.52 
L 214.56 167.756236 
L 208.608 168.122111 
L 202.656 168.492822 
L 196.704 168.868184 
L 190.752 169.247933 
L 184.8 169.63171 
L 178.848 170.019031 
L 178.162118 170.064 
L 172.896 170.281698 
L 166.944 170.529059 
L 160.992 170.77704 
L 155.04 171.024747 
L 149.088 171.271021 
L 143.136 171.514348 
L 137.184 171.752755 
L 131.232 171.983651 
L 125.28 172.203613 
L 119.328 172.408077 
L 113.376 172.590902 
L 107.424 172.74371 
L 101.472 172.854907 
L 95.52 172.908154 
L 89.568 172.879925 
L 83.616 172.735465 
L 77.664 172.421783 
L 71.712 171.854908 
L 65.76 170.895128 
L 62.66859 170.064 
L 59.808 168.844519 
L 53.856 164.535749 
L 53.843856 164.52 
L 51.030868 158.976 
L 49.133663 153.432 
L 47.904 148.160657 
z
" clip-path="url(#p2aae203681)" style="fill: #84d44b"/>
   </g>
   <g id="PathCollection_26">
    <path d="M 53.134078 142.344 
L 52.548285 136.8 
L 52.174885 131.256 
L 51.958504 125.712 
L 51.860065 120.168 
L 51.851359 114.624 
L 51.911622 109.08 
L 52.025312 103.536 
L 52.180629 97.992 
L 52.3685 92.448 
L 52.581869 86.904 
L 52.815199 81.36 
L 53.064106 75.816 
L 53.325094 70.272 
L 53.595357 64.728 
L 53.856 59.516507 
L 53.885802 59.184 
L 54.391969 53.64 
L 54.904739 48.096 
L 55.421921 42.552 
L 55.941721 37.008 
L 56.462665 31.464 
L 56.983543 25.92 
L 59.808 25.92 
L 65.76 25.92 
L 71.712 25.92 
L 77.664 25.92 
L 83.616 25.92 
L 89.568 25.92 
L 95.52 25.92 
L 101.472 25.92 
L 107.424 25.92 
L 113.376 25.92 
L 119.328 25.92 
L 125.28 25.92 
L 131.232 25.92 
L 137.184 25.92 
L 143.136 25.92 
L 149.088 25.92 
L 155.04 25.92 
L 160.992 25.92 
L 166.944 25.92 
L 172.896 25.92 
L 178.848 25.92 
L 184.8 25.92 
L 190.752 25.92 
L 196.704 25.92 
L 202.656 25.92 
L 208.608 25.92 
L 214.56 25.92 
L 214.56 31.464 
L 214.56 37.008 
L 214.56 42.552 
L 214.56 48.096 
L 214.56 53.64 
L 214.56 59.184 
L 214.56 64.728 
L 214.56 70.272 
L 214.56 75.816 
L 214.56 81.36 
L 214.56 86.904 
L 214.56 92.448 
L 214.56 97.992 
L 214.56 103.536 
L 214.56 109.08 
L 214.56 114.624 
L 214.56 120.168 
L 214.56 125.712 
L 214.56 131.256 
L 214.56 136.8 
L 214.56 142.344 
L 214.56 147.888 
L 214.56 153.432 
L 214.56 156.438686 
L 208.608 157.264003 
L 202.656 158.100221 
L 196.704 158.946919 
L 196.501935 158.976 
L 190.752 159.533856 
L 184.8 160.117443 
L 178.848 160.70642 
L 172.896 161.299819 
L 166.944 161.896368 
L 160.992 162.494411 
L 155.04 163.091791 
L 149.088 163.68571 
L 143.136 164.272523 
L 140.574082 164.52 
L 137.184 164.735414 
L 131.232 165.101713 
L 125.28 165.450674 
L 119.328 165.775064 
L 113.376 166.06514 
L 107.424 166.307622 
L 101.472 166.484122 
L 95.52 166.568734 
L 89.568 166.524155 
L 83.616 166.295274 
L 77.664 165.798072 
L 71.712 164.899403 
L 70.228 164.52 
L 65.76 162.78384 
L 59.882437 158.976 
L 59.808 158.904493 
L 56.453541 153.432 
L 54.137056 147.888 
L 53.856 146.898284 
z
M 65.76 140.708957 
L 66.636179 142.344 
L 71.093578 147.888 
L 71.712 148.410713 
L 77.664 151.381315 
L 83.616 153.024463 
L 86.825387 153.432 
L 89.568 153.669346 
L 95.52 153.769027 
L 101.472 153.577518 
L 103.644824 153.432 
L 107.424 153.060537 
L 113.376 152.257215 
L 119.328 151.296399 
L 125.28 150.222022 
L 131.232 149.066311 
L 137.01327 147.888 
L 137.184 147.836766 
L 143.136 145.992612 
L 149.088 144.110343 
L 154.606439 142.344 
L 155.04 142.135587 
L 160.992 139.257768 
L 166.069251 136.8 
L 166.944 136.13448 
L 172.896 131.617172 
L 173.374383 131.256 
L 177.614271 125.712 
L 178.848 122.129793 
L 179.528692 120.168 
L 179.666828 114.624 
L 178.848 110.943866 
L 178.436464 109.08 
L 176.15846 103.536 
L 173.060058 97.992 
L 172.896 97.748793 
L 169.339987 92.448 
L 166.944 89.298911 
L 165.126835 86.904 
L 160.992 81.916017 
L 160.530703 81.36 
L 155.627489 75.816 
L 155.04 75.182133 
L 150.464087 70.272 
L 149.088 68.845413 
L 145.069755 64.728 
L 143.136 62.795841 
L 139.448223 59.184 
L 137.184 57.00624 
L 133.572251 53.64 
L 131.232 51.486161 
L 127.368053 48.096 
L 125.28 46.279016 
L 120.676801 42.552 
L 119.328 41.465097 
L 113.376 37.170312 
L 113.107493 37.008 
L 107.424 33.578847 
L 102.631083 31.464 
L 101.472 30.952344 
L 95.52 29.67109 
L 89.568 30.284178 
L 87.451532 31.464 
L 83.616 33.602116 
L 80.823088 37.008 
L 77.664 40.86951 
L 76.90458 42.552 
L 74.414941 48.096 
L 71.94689 53.64 
L 71.712 54.174532 
L 70.413771 59.184 
L 69.003424 64.728 
L 67.628832 70.272 
L 66.301498 75.816 
L 65.76 78.187507 
L 65.325877 81.36 
L 64.614674 86.904 
L 63.964269 92.448 
L 63.391515 97.992 
L 62.917877 103.536 
L 62.570964 109.08 
L 62.386679 114.624 
L 62.4123 120.168 
L 62.710992 125.712 
L 63.368566 131.256 
L 64.503881 136.8 
z
" clip-path="url(#p2aae203681)" style="fill: #b5de2b"/>
   </g>
   <g id="PathCollection_27">
    <path d="M 64.503881 136.8 
L 63.368566 131.256 
L 62.710992 125.712 
L 62.4123 120.168 
L 62.386679 114.624 
L 62.570964 109.08 
L 62.917877 103.536 
L 63.391515 97.992 
L 63.964269 92.448 
L 64.614674 86.904 
L 65.325877 81.36 
L 65.76 78.187507 
L 66.301498 75.816 
L 67.628832 70.272 
L 69.003424 64.728 
L 70.413771 59.184 
L 71.712 54.174532 
L 71.94689 53.64 
L 74.414941 48.096 
L 76.90458 42.552 
L 77.664 40.86951 
L 80.823088 37.008 
L 83.616 33.602116 
L 87.451532 31.464 
L 89.568 30.284178 
L 95.52 29.67109 
L 101.472 30.952344 
L 102.631083 31.464 
L 107.424 33.578847 
L 113.107493 37.008 
L 113.376 37.170312 
L 119.328 41.465097 
L 120.676801 42.552 
L 125.28 46.279016 
L 127.368053 48.096 
L 131.232 51.486161 
L 133.572251 53.64 
L 137.184 57.00624 
L 139.448223 59.184 
L 143.136 62.795841 
L 145.069755 64.728 
L 149.088 68.845413 
L 150.464087 70.272 
L 155.04 75.182133 
L 155.627489 75.816 
L 160.530703 81.36 
L 160.992 81.916017 
L 165.126835 86.904 
L 166.944 89.298911 
L 169.339987 92.448 
L 172.896 97.748793 
L 173.060058 97.992 
L 176.15846 103.536 
L 178.436464 109.08 
L 178.848 110.943866 
L 179.666828 114.624 
L 179.528692 120.168 
L 178.848 122.129793 
L 177.614271 125.712 
L 173.374383 131.256 
L 172.896 131.617172 
L 166.944 136.13448 
L 166.069251 136.8 
L 160.992 139.257768 
L 155.04 142.135587 
L 154.606439 142.344 
L 149.088 144.110343 
L 143.136 145.992612 
L 137.184 147.836766 
L 137.01327 147.888 
L 131.232 149.066311 
L 125.28 150.222022 
L 119.328 151.296399 
L 113.376 152.257215 
L 107.424 153.060537 
L 103.644824 153.432 
L 101.472 153.577518 
L 95.52 153.769027 
L 89.568 153.669346 
L 86.825387 153.432 
L 83.616 153.024463 
L 77.664 151.381315 
L 71.712 148.410713 
L 71.093578 147.888 
L 66.636179 142.344 
L 65.76 140.708957 
z
" clip-path="url(#p2aae203681)" style="fill: #e7e419"/>
   </g>
   <g id="PathCollection_28">
    <defs>
     <path id="m569b046062" d="M -4.330127 4.330127 
L 4.330127 -4.330127 
M -4.330127 -4.330127 
L 4.330127 4.330127 
" style="stroke: #000000; stroke-width: 2"/>
    </defs>
    <g clip-path="url(#p2aae203681)">
     <use xlink:href="#m569b046062" x="85.6" y="127.56" style="stroke: #000000; stroke-width: 2"/>
    </g>
   </g>
   <g id="matplotlib.axis_1">
    <g id="xtick_1">
     <g id="line2d_1">
      <defs>
       <path id="mff5585fbc3" d="M 0 0 
L 0 3.5 
" style="stroke: #000000; stroke-width: 0.8"/>
      </defs>
      <g>
       <use xlink:href="#mff5585fbc3" x="75.68" y="192.24" style="stroke: #000000; stroke-width: 0.8"/>
      </g>
     </g>
     <g id="text_1">
      <!-- $\mathdefault{250}$ -->
      <g transform="translate(64.22 208.358125) scale(0.12 -0.12)">
       <defs>
        <path id="DejaVuSans-32" d="M 1228 531 
L 3431 531 
L 3431 0 
L 469 0 
L 469 531 
Q 828 903 1448 1529 
Q 2069 2156 2228 2338 
Q 2531 2678 2651 2914 
Q 2772 3150 2772 3378 
Q 2772 3750 2511 3984 
Q 2250 4219 1831 4219 
Q 1534 4219 1204 4116 
Q 875 4013 500 3803 
L 500 4441 
Q 881 4594 1212 4672 
Q 1544 4750 1819 4750 
Q 2544 4750 2975 4387 
Q 3406 4025 3406 3419 
Q 3406 3131 3298 2873 
Q 3191 2616 2906 2266 
Q 2828 2175 2409 1742 
Q 1991 1309 1228 531 
z
" transform="scale(0.015625)"/>
        <path id="DejaVuSans-35" d="M 691 4666 
L 3169 4666 
L 3169 4134 
L 1269 4134 
L 1269 2991 
Q 1406 3038 1543 3061 
Q 1681 3084 1819 3084 
Q 2600 3084 3056 2656 
Q 3513 2228 3513 1497 
Q 3513 744 3044 326 
Q 2575 -91 1722 -91 
Q 1428 -91 1123 -41 
Q 819 9 494 109 
L 494 744 
Q 775 591 1075 516 
Q 1375 441 1709 441 
Q 2250 441 2565 725 
Q 2881 1009 2881 1497 
Q 2881 1984 2565 2268 
Q 2250 2553 1709 2553 
Q 1456 2553 1204 2497 
Q 953 2441 691 2322 
L 691 4666 
z
" transform="scale(0.015625)"/>
        <path id="DejaVuSans-30" d="M 2034 4250 
Q 1547 4250 1301 3770 
Q 1056 3291 1056 2328 
Q 1056 1369 1301 889 
Q 1547 409 2034 409 
Q 2525 409 2770 889 
Q 3016 1369 3016 2328 
Q 3016 3291 2770 3770 
Q 2525 4250 2034 4250 
z
M 2034 4750 
Q 2819 4750 3233 4129 
Q 3647 3509 3647 2328 
Q 3647 1150 3233 529 
Q 2819 -91 2034 -91 
Q 1250 -91 836 529 
Q 422 1150 422 2328 
Q 422 3509 836 4129 
Q 1250 4750 2034 4750 
z
" transform="scale(0.015625)"/>
       </defs>
       <use xlink:href="#DejaVuSans-32" transform="translate(0 0.78125)"/>
       <use xlink:href="#DejaVuSans-35" transform="translate(63.623047 0.78125)"/>
       <use xlink:href="#DejaVuSans-30" transform="translate(127.246094 0.78125)"/>
      </g>
     </g>
    </g>
    <g id="xtick_2">
     <g id="line2d_2">
      <g>
       <use xlink:href="#mff5585fbc3" x="125.28" y="192.24" style="stroke: #000000; stroke-width: 0.8"/>
      </g>
     </g>
     <g id="text_2">
      <!-- $\mathdefault{500}$ -->
      <g transform="translate(113.82 208.358125) scale(0.12 -0.12)">
       <use xlink:href="#DejaVuSans-35" transform="translate(0 0.78125)"/>
       <use xlink:href="#DejaVuSans-30" transform="translate(63.623047 0.78125)"/>
       <use xlink:href="#DejaVuSans-30" transform="translate(127.246094 0.78125)"/>
      </g>
     </g>
    </g>
    <g id="xtick_3">
     <g id="line2d_3">
      <g>
       <use xlink:href="#mff5585fbc3" x="174.88" y="192.24" style="stroke: #000000; stroke-width: 0.8"/>
      </g>
     </g>
     <g id="text_3">
      <!-- $\mathdefault{750}$ -->
      <g transform="translate(163.42 208.358125) scale(0.12 -0.12)">
       <defs>
        <path id="DejaVuSans-37" d="M 525 4666 
L 3525 4666 
L 3525 4397 
L 1831 0 
L 1172 0 
L 2766 4134 
L 525 4134 
L 525 4666 
z
" transform="scale(0.015625)"/>
       </defs>
       <use xlink:href="#DejaVuSans-37" transform="translate(0 0.78125)"/>
       <use xlink:href="#DejaVuSans-35" transform="translate(63.623047 0.78125)"/>
       <use xlink:href="#DejaVuSans-30" transform="translate(127.246094 0.78125)"/>
      </g>
     </g>
    </g>
    <g id="text_4">
     <!-- Diploid N$_e$1 -->
     <g transform="translate(80 227.01375) scale(0.16 -0.16)">
      <defs>
       <path id="DejaVuSans-44" d="M 1259 4147 
L 1259 519 
L 2022 519 
Q 2988 519 3436 956 
Q 3884 1394 3884 2338 
Q 3884 3275 3436 3711 
Q 2988 4147 2022 4147 
L 1259 4147 
z
M 628 4666 
L 1925 4666 
Q 3281 4666 3915 4102 
Q 4550 3538 4550 2338 
Q 4550 1131 3912 565 
Q 3275 0 1925 0 
L 628 0 
L 628 4666 
z
" transform="scale(0.015625)"/>
       <path id="DejaVuSans-69" d="M 603 3500 
L 1178 3500 
L 1178 0 
L 603 0 
L 603 3500 
z
M 603 4863 
L 1178 4863 
L 1178 4134 
L 603 4134 
L 603 4863 
z
" transform="scale(0.015625)"/>
       <path id="DejaVuSans-70" d="M 1159 525 
L 1159 -1331 
L 581 -1331 
L 581 3500 
L 1159 3500 
L 1159 2969 
Q 1341 3281 1617 3432 
Q 1894 3584 2278 3584 
Q 2916 3584 3314 3078 
Q 3713 2572 3713 1747 
Q 3713 922 3314 415 
Q 2916 -91 2278 -91 
Q 1894 -91 1617 61 
Q 1341 213 1159 525 
z
M 3116 1747 
Q 3116 2381 2855 2742 
Q 2594 3103 2138 3103 
Q 1681 3103 1420 2742 
Q 1159 2381 1159 1747 
Q 1159 1113 1420 752 
Q 1681 391 2138 391 
Q 2594 391 2855 752 
Q 3116 1113 3116 1747 
z
" transform="scale(0.015625)"/>
       <path id="DejaVuSans-6c" d="M 603 4863 
L 1178 4863 
L 1178 0 
L 603 0 
L 603 4863 
z
" transform="scale(0.015625)"/>
       <path id="DejaVuSans-6f" d="M 1959 3097 
Q 1497 3097 1228 2736 
Q 959 2375 959 1747 
Q 959 1119 1226 758 
Q 1494 397 1959 397 
Q 2419 397 2687 759 
Q 2956 1122 2956 1747 
Q 2956 2369 2687 2733 
Q 2419 3097 1959 3097 
z
M 1959 3584 
Q 2709 3584 3137 3096 
Q 3566 2609 3566 1747 
Q 3566 888 3137 398 
Q 2709 -91 1959 -91 
Q 1206 -91 779 398 
Q 353 888 353 1747 
Q 353 2609 779 3096 
Q 1206 3584 1959 3584 
z
" transform="scale(0.015625)"/>
       <path id="DejaVuSans-64" d="M 2906 2969 
L 2906 4863 
L 3481 4863 
L 3481 0 
L 2906 0 
L 2906 525 
Q 2725 213 2448 61 
Q 2172 -91 1784 -91 
Q 1150 -91 751 415 
Q 353 922 353 1747 
Q 353 2572 751 3078 
Q 1150 3584 1784 3584 
Q 2172 3584 2448 3432 
Q 2725 3281 2906 2969 
z
M 947 1747 
Q 947 1113 1208 752 
Q 1469 391 1925 391 
Q 2381 391 2643 752 
Q 2906 1113 2906 1747 
Q 2906 2381 2643 2742 
Q 2381 3103 1925 3103 
Q 1469 3103 1208 2742 
Q 947 2381 947 1747 
z
" transform="scale(0.015625)"/>
       <path id="DejaVuSans-20" transform="scale(0.015625)"/>
       <path id="DejaVuSans-4e" d="M 628 4666 
L 1478 4666 
L 3547 763 
L 3547 4666 
L 4159 4666 
L 4159 0 
L 3309 0 
L 1241 3903 
L 1241 0 
L 628 0 
L 628 4666 
z
" transform="scale(0.015625)"/>
       <path id="DejaVuSans-Oblique-65" d="M 3078 2063 
Q 3088 2113 3092 2166 
Q 3097 2219 3097 2272 
Q 3097 2653 2873 2875 
Q 2650 3097 2266 3097 
Q 1838 3097 1509 2826 
Q 1181 2556 1013 2059 
L 3078 2063 
z
M 3578 1613 
L 903 1613 
Q 884 1494 878 1425 
Q 872 1356 872 1306 
Q 872 872 1139 634 
Q 1406 397 1894 397 
Q 2269 397 2603 481 
Q 2938 566 3225 728 
L 3116 159 
Q 2806 34 2476 -28 
Q 2147 -91 1806 -91 
Q 1078 -91 686 257 
Q 294 606 294 1247 
Q 294 1794 489 2264 
Q 684 2734 1063 3103 
Q 1306 3334 1642 3459 
Q 1978 3584 2356 3584 
Q 2950 3584 3301 3228 
Q 3653 2872 3653 2272 
Q 3653 2128 3634 1964 
Q 3616 1800 3578 1613 
z
" transform="scale(0.015625)"/>
       <path id="DejaVuSans-31" d="M 794 531 
L 1825 531 
L 1825 4091 
L 703 3866 
L 703 4441 
L 1819 4666 
L 2450 4666 
L 2450 531 
L 3481 531 
L 3481 0 
L 794 0 
L 794 531 
z
" transform="scale(0.015625)"/>
      </defs>
      <use xlink:href="#DejaVuSans-44" transform="translate(0 0.015625)"/>
      <use xlink:href="#DejaVuSans-69" transform="translate(77.001953 0.015625)"/>
      <use xlink:href="#DejaVuSans-70" transform="translate(104.785156 0.015625)"/>
      <use xlink:href="#DejaVuSans-6c" transform="translate(168.261719 0.015625)"/>
      <use xlink:href="#DejaVuSans-6f" transform="translate(196.044922 0.015625)"/>
      <use xlink:href="#DejaVuSans-69" transform="translate(257.226562 0.015625)"/>
      <use xlink:href="#DejaVuSans-64" transform="translate(285.009766 0.015625)"/>
      <use xlink:href="#DejaVuSans-20" transform="translate(348.486328 0.015625)"/>
      <use xlink:href="#DejaVuSans-4e" transform="translate(380.273438 0.015625)"/>
      <use xlink:href="#DejaVuSans-Oblique-65" transform="translate(456.035156 -16.390625) scale(0.7)"/>
      <use xlink:href="#DejaVuSans-31" transform="translate(501.835938 0.015625)"/>
     </g>
    </g>
    <g id="text_5">
     <!-- $\times\mathdefault{10^{3}}\mathdefault{}$ -->
     <g transform="translate(188.56 221.452188) scale(0.1 -0.1)">
      <defs>
       <path id="DejaVuSans-d7" d="M 4488 3438 
L 3059 2003 
L 4488 575 
L 4116 197 
L 2681 1631 
L 1247 197 
L 878 575 
L 2303 2003 
L 878 3438 
L 1247 3816 
L 2681 2381 
L 4116 3816 
L 4488 3438 
z
" transform="scale(0.015625)"/>
       <path id="DejaVuSans-33" d="M 2597 2516 
Q 3050 2419 3304 2112 
Q 3559 1806 3559 1356 
Q 3559 666 3084 287 
Q 2609 -91 1734 -91 
Q 1441 -91 1130 -33 
Q 819 25 488 141 
L 488 750 
Q 750 597 1062 519 
Q 1375 441 1716 441 
Q 2309 441 2620 675 
Q 2931 909 2931 1356 
Q 2931 1769 2642 2001 
Q 2353 2234 1838 2234 
L 1294 2234 
L 1294 2753 
L 1863 2753 
Q 2328 2753 2575 2939 
Q 2822 3125 2822 3475 
Q 2822 3834 2567 4026 
Q 2313 4219 1838 4219 
Q 1578 4219 1281 4162 
Q 984 4106 628 3988 
L 628 4550 
Q 988 4650 1302 4700 
Q 1616 4750 1894 4750 
Q 2613 4750 3031 4423 
Q 3450 4097 3450 3541 
Q 3450 3153 3228 2886 
Q 3006 2619 2597 2516 
z
" transform="scale(0.015625)"/>
      </defs>
      <use xlink:href="#DejaVuSans-d7" transform="translate(0 0.765625)"/>
      <use xlink:href="#DejaVuSans-31" transform="translate(83.789062 0.765625)"/>
      <use xlink:href="#DejaVuSans-30" transform="translate(147.412109 0.765625)"/>
      <use xlink:href="#DejaVuSans-33" transform="translate(211.992188 39.046875) scale(0.7)"/>
     </g>
    </g>
   </g>
   <g id="matplotlib.axis_2">
    <g id="ytick_1">
     <g id="line2d_4">
      <defs>
       <path id="ma40d8d5c15" d="M 0 0 
L -3.5 0 
" style="stroke: #000000; stroke-width: 0.8"/>
      </defs>
      <g>
       <use xlink:href="#ma40d8d5c15" x="36" y="155.28" style="stroke: #000000; stroke-width: 0.8"/>
      </g>
     </g>
     <g id="text_6">
      <!-- $\mathdefault{250}$ -->
      <g transform="translate(6.08 159.839063) scale(0.12 -0.12)">
       <use xlink:href="#DejaVuSans-32" transform="translate(0 0.78125)"/>
       <use xlink:href="#DejaVuSans-35" transform="translate(63.623047 0.78125)"/>
       <use xlink:href="#DejaVuSans-30" transform="translate(127.246094 0.78125)"/>
      </g>
     </g>
    </g>
    <g id="ytick_2">
     <g id="line2d_5">
      <g>
       <use xlink:href="#ma40d8d5c15" x="36" y="109.08" style="stroke: #000000; stroke-width: 0.8"/>
      </g>
     </g>
     <g id="text_7">
      <!-- $\mathdefault{500}$ -->
      <g transform="translate(6.08 113.639062) scale(0.12 -0.12)">
       <use xlink:href="#DejaVuSans-35" transform="translate(0 0.78125)"/>
       <use xlink:href="#DejaVuSans-30" transform="translate(63.623047 0.78125)"/>
       <use xlink:href="#DejaVuSans-30" transform="translate(127.246094 0.78125)"/>
      </g>
     </g>
    </g>
    <g id="ytick_3">
     <g id="line2d_6">
      <g>
       <use xlink:href="#ma40d8d5c15" x="36" y="62.88" style="stroke: #000000; stroke-width: 0.8"/>
      </g>
     </g>
     <g id="text_8">
      <!-- $\mathdefault{750}$ -->
      <g transform="translate(6.08 67.439062) scale(0.12 -0.12)">
       <use xlink:href="#DejaVuSans-37" transform="translate(0 0.78125)"/>
       <use xlink:href="#DejaVuSans-35" transform="translate(63.623047 0.78125)"/>
       <use xlink:href="#DejaVuSans-30" transform="translate(127.246094 0.78125)"/>
      </g>
     </g>
    </g>
    <g id="text_9">
     <!-- Diploid N$_e$2 -->
     <g transform="translate(-1.28 154.36) rotate(-90) scale(0.16 -0.16)">
      <use xlink:href="#DejaVuSans-44" transform="translate(0 0.015625)"/>
      <use xlink:href="#DejaVuSans-69" transform="translate(77.001953 0.015625)"/>
      <use xlink:href="#DejaVuSans-70" transform="translate(104.785156 0.015625)"/>
      <use xlink:href="#DejaVuSans-6c" transform="translate(168.261719 0.015625)"/>
      <use xlink:href="#DejaVuSans-6f" transform="translate(196.044922 0.015625)"/>
      <use xlink:href="#DejaVuSans-69" transform="translate(257.226562 0.015625)"/>
      <use xlink:href="#DejaVuSans-64" transform="translate(285.009766 0.015625)"/>
      <use xlink:href="#DejaVuSans-20" transform="translate(348.486328 0.015625)"/>
      <use xlink:href="#DejaVuSans-4e" transform="translate(380.273438 0.015625)"/>
      <use xlink:href="#DejaVuSans-Oblique-65" transform="translate(456.035156 -16.390625) scale(0.7)"/>
      <use xlink:href="#DejaVuSans-32" transform="translate(501.835938 0.015625)"/>
     </g>
    </g>
    <g id="text_10">
     <!-- $\times\mathdefault{10^{3}}\mathdefault{}$ -->
     <g transform="translate(36 22.92) scale(0.1 -0.1)">
      <use xlink:href="#DejaVuSans-d7" transform="translate(0 0.765625)"/>
      <use xlink:href="#DejaVuSans-31" transform="translate(83.789062 0.765625)"/>
      <use xlink:href="#DejaVuSans-30" transform="translate(147.412109 0.765625)"/>
      <use xlink:href="#DejaVuSans-33" transform="translate(211.992188 39.046875) scale(0.7)"/>
     </g>
    </g>
   </g>
   <g id="patch_3">
    <path d="M 36 192.24 
L 36 25.92 
" style="fill: none; stroke: #000000; stroke-width: 0.8; stroke-linejoin: miter; stroke-linecap: square"/>
   </g>
   <g id="patch_4">
    <path d="M 214.56 192.24 
L 214.56 25.92 
" style="fill: none; stroke: #000000; stroke-width: 0.8; stroke-linejoin: miter; stroke-linecap: square"/>
   </g>
   <g id="patch_5">
    <path d="M 36 192.24 
L 214.56 192.24 
" style="fill: none; stroke: #000000; stroke-width: 0.8; stroke-linejoin: miter; stroke-linecap: square"/>
   </g>
   <g id="patch_6">
    <path d="M 36 25.92 
L 214.56 25.92 
" style="fill: none; stroke: #000000; stroke-width: 0.8; stroke-linejoin: miter; stroke-linecap: square"/>
   </g>
   <g id="text_11">
    <!-- Ne1Ne2-MSSMC-GT-P2-S4 -->
    <g transform="translate(21.75375 10.92) scale(0.16 -0.16)">
     <defs>
      <path id="DejaVuSans-65" d="M 3597 1894 
L 3597 1613 
L 953 1613 
Q 991 1019 1311 708 
Q 1631 397 2203 397 
Q 2534 397 2845 478 
Q 3156 559 3463 722 
L 3463 178 
Q 3153 47 2828 -22 
Q 2503 -91 2169 -91 
Q 1331 -91 842 396 
Q 353 884 353 1716 
Q 353 2575 817 3079 
Q 1281 3584 2069 3584 
Q 2775 3584 3186 3129 
Q 3597 2675 3597 1894 
z
M 3022 2063 
Q 3016 2534 2758 2815 
Q 2500 3097 2075 3097 
Q 1594 3097 1305 2825 
Q 1016 2553 972 2059 
L 3022 2063 
z
" transform="scale(0.015625)"/>
      <path id="DejaVuSans-2d" d="M 313 2009 
L 1997 2009 
L 1997 1497 
L 313 1497 
L 313 2009 
z
" transform="scale(0.015625)"/>
      <path id="DejaVuSans-4d" d="M 628 4666 
L 1569 4666 
L 2759 1491 
L 3956 4666 
L 4897 4666 
L 4897 0 
L 4281 0 
L 4281 4097 
L 3078 897 
L 2444 897 
L 1241 4097 
L 1241 0 
L 628 0 
L 628 4666 
z
" transform="scale(0.015625)"/>
      <path id="DejaVuSans-53" d="M 3425 4513 
L 3425 3897 
Q 3066 4069 2747 4153 
Q 2428 4238 2131 4238 
Q 1616 4238 1336 4038 
Q 1056 3838 1056 3469 
Q 1056 3159 1242 3001 
Q 1428 2844 1947 2747 
L 2328 2669 
Q 3034 2534 3370 2195 
Q 3706 1856 3706 1288 
Q 3706 609 3251 259 
Q 2797 -91 1919 -91 
Q 1588 -91 1214 -16 
Q 841 59 441 206 
L 441 856 
Q 825 641 1194 531 
Q 1563 422 1919 422 
Q 2459 422 2753 634 
Q 3047 847 3047 1241 
Q 3047 1584 2836 1778 
Q 2625 1972 2144 2069 
L 1759 2144 
Q 1053 2284 737 2584 
Q 422 2884 422 3419 
Q 422 4038 858 4394 
Q 1294 4750 2059 4750 
Q 2388 4750 2728 4690 
Q 3069 4631 3425 4513 
z
" transform="scale(0.015625)"/>
      <path id="DejaVuSans-43" d="M 4122 4306 
L 4122 3641 
Q 3803 3938 3442 4084 
Q 3081 4231 2675 4231 
Q 1875 4231 1450 3742 
Q 1025 3253 1025 2328 
Q 1025 1406 1450 917 
Q 1875 428 2675 428 
Q 3081 428 3442 575 
Q 3803 722 4122 1019 
L 4122 359 
Q 3791 134 3420 21 
Q 3050 -91 2638 -91 
Q 1578 -91 968 557 
Q 359 1206 359 2328 
Q 359 3453 968 4101 
Q 1578 4750 2638 4750 
Q 3056 4750 3426 4639 
Q 3797 4528 4122 4306 
z
" transform="scale(0.015625)"/>
      <path id="DejaVuSans-47" d="M 3809 666 
L 3809 1919 
L 2778 1919 
L 2778 2438 
L 4434 2438 
L 4434 434 
Q 4069 175 3628 42 
Q 3188 -91 2688 -91 
Q 1594 -91 976 548 
Q 359 1188 359 2328 
Q 359 3472 976 4111 
Q 1594 4750 2688 4750 
Q 3144 4750 3555 4637 
Q 3966 4525 4313 4306 
L 4313 3634 
Q 3963 3931 3569 4081 
Q 3175 4231 2741 4231 
Q 1884 4231 1454 3753 
Q 1025 3275 1025 2328 
Q 1025 1384 1454 906 
Q 1884 428 2741 428 
Q 3075 428 3337 486 
Q 3600 544 3809 666 
z
" transform="scale(0.015625)"/>
      <path id="DejaVuSans-54" d="M -19 4666 
L 3928 4666 
L 3928 4134 
L 2272 4134 
L 2272 0 
L 1638 0 
L 1638 4134 
L -19 4134 
L -19 4666 
z
" transform="scale(0.015625)"/>
      <path id="DejaVuSans-50" d="M 1259 4147 
L 1259 2394 
L 2053 2394 
Q 2494 2394 2734 2622 
Q 2975 2850 2975 3272 
Q 2975 3691 2734 3919 
Q 2494 4147 2053 4147 
L 1259 4147 
z
M 628 4666 
L 2053 4666 
Q 2838 4666 3239 4311 
Q 3641 3956 3641 3272 
Q 3641 2581 3239 2228 
Q 2838 1875 2053 1875 
L 1259 1875 
L 1259 0 
L 628 0 
L 628 4666 
z
" transform="scale(0.015625)"/>
      <path id="DejaVuSans-34" d="M 2419 4116 
L 825 1625 
L 2419 1625 
L 2419 4116 
z
M 2253 4666 
L 3047 4666 
L 3047 1625 
L 3713 1625 
L 3713 1100 
L 3047 1100 
L 3047 0 
L 2419 0 
L 2419 1100 
L 313 1100 
L 313 1709 
L 2253 4666 
z
" transform="scale(0.015625)"/>
     </defs>
     <use xlink:href="#DejaVuSans-4e"/>
     <use xlink:href="#DejaVuSans-65" x="74.804688"/>
     <use xlink:href="#DejaVuSans-31" x="136.328125"/>
     <use xlink:href="#DejaVuSans-4e" x="199.951172"/>
     <use xlink:href="#DejaVuSans-65" x="274.755859"/>
     <use xlink:href="#DejaVuSans-32" x="336.279297"/>
     <use xlink:href="#DejaVuSans-2d" x="399.902344"/>
     <use xlink:href="#DejaVuSans-4d" x="435.986328"/>
     <use xlink:href="#DejaVuSans-53" x="522.265625"/>
     <use xlink:href="#DejaVuSans-53" x="585.742188"/>
     <use xlink:href="#DejaVuSans-4d" x="649.21875"/>
     <use xlink:href="#DejaVuSans-43" x="735.498047"/>
     <use xlink:href="#DejaVuSans-2d" x="805.322266"/>
     <use xlink:href="#DejaVuSans-47" x="845.03125"/>
     <use xlink:href="#DejaVuSans-54" x="918.896484"/>
     <use xlink:href="#DejaVuSans-2d" x="970.855469"/>
     <use xlink:href="#DejaVuSans-50" x="1006.939453"/>
     <use xlink:href="#DejaVuSans-32" x="1067.242188"/>
     <use xlink:href="#DejaVuSans-2d" x="1130.865234"/>
     <use xlink:href="#DejaVuSans-53" x="1166.949219"/>
     <use xlink:href="#DejaVuSans-34" x="1230.425781"/>
    </g>
   </g>
  </g>
  <g id="axes_2">
   <g id="patch_7">
    <path d="M 225.72 192.24 
L 234.036 192.24 
L 234.036 25.92 
L 225.72 25.92 
z
" style="fill: #ffffff"/>
   </g>
   <g id="QuadMesh_1">
    <path d="M 225.72 192.24 
L 234.036 192.24 
L 234.036 186.08 
L 225.72 186.08 
L 225.72 192.24 
" clip-path="url(#pe72ff18933)" style="fill: #440154"/>
    <path d="M 225.72 186.08 
L 234.036 186.08 
L 234.036 179.92 
L 225.72 179.92 
L 225.72 186.08 
" clip-path="url(#pe72ff18933)" style="fill: #440154"/>
    <path d="M 225.72 179.92 
L 234.036 179.92 
L 234.036 173.76 
L 225.72 173.76 
L 225.72 179.92 
" clip-path="url(#pe72ff18933)" style="fill: #440154"/>
    <path d="M 225.72 173.76 
L 234.036 173.76 
L 234.036 167.6 
L 225.72 167.6 
L 225.72 173.76 
" clip-path="url(#pe72ff18933)" style="fill: #440154"/>
    <path d="M 225.72 167.6 
L 234.036 167.6 
L 234.036 161.44 
L 225.72 161.44 
L 225.72 167.6 
" clip-path="url(#pe72ff18933)" style="fill: #440154"/>
    <path d="M 225.72 161.44 
L 234.036 161.44 
L 234.036 155.28 
L 225.72 155.28 
L 225.72 161.44 
" clip-path="url(#pe72ff18933)" style="fill: #440154"/>
    <path d="M 225.72 155.28 
L 234.036 155.28 
L 234.036 149.12 
L 225.72 149.12 
L 225.72 155.28 
" clip-path="url(#pe72ff18933)" style="fill: #440154"/>
    <path d="M 225.72 149.12 
L 234.036 149.12 
L 234.036 142.96 
L 225.72 142.96 
L 225.72 149.12 
" clip-path="url(#pe72ff18933)" style="fill: #440154"/>
    <path d="M 225.72 142.96 
L 234.036 142.96 
L 234.036 136.8 
L 225.72 136.8 
L 225.72 142.96 
" clip-path="url(#pe72ff18933)" style="fill: #440154"/>
    <path d="M 225.72 136.8 
L 234.036 136.8 
L 234.036 130.64 
L 225.72 130.64 
L 225.72 136.8 
" clip-path="url(#pe72ff18933)" style="fill: #440154"/>
    <path d="M 225.72 130.64 
L 234.036 130.64 
L 234.036 124.48 
L 225.72 124.48 
L 225.72 130.64 
" clip-path="url(#pe72ff18933)" style="fill: #440154"/>
    <path d="M 225.72 124.48 
L 234.036 124.48 
L 234.036 118.32 
L 225.72 118.32 
L 225.72 124.48 
" clip-path="url(#pe72ff18933)" style="fill: #440154"/>
    <path d="M 225.72 118.32 
L 234.036 118.32 
L 234.036 112.16 
L 225.72 112.16 
L 225.72 118.32 
" clip-path="url(#pe72ff18933)" style="fill: #440154"/>
    <path d="M 225.72 112.16 
L 234.036 112.16 
L 234.036 106 
L 225.72 106 
L 225.72 112.16 
" clip-path="url(#pe72ff18933)" style="fill: #440154"/>
    <path d="M 225.72 106 
L 234.036 106 
L 234.036 99.84 
L 225.72 99.84 
L 225.72 106 
" clip-path="url(#pe72ff18933)" style="fill: #48186a"/>
    <path d="M 225.72 99.84 
L 234.036 99.84 
L 234.036 93.68 
L 225.72 93.68 
L 225.72 99.84 
" clip-path="url(#pe72ff18933)" style="fill: #46327e"/>
    <path d="M 225.72 93.68 
L 234.036 93.68 
L 234.036 87.52 
L 225.72 87.52 
L 225.72 93.68 
" clip-path="url(#pe72ff18933)" style="fill: #3f4889"/>
    <path d="M 225.72 87.52 
L 234.036 87.52 
L 234.036 81.36 
L 225.72 81.36 
L 225.72 87.52 
" clip-path="url(#pe72ff18933)" style="fill: #365d8d"/>
    <path d="M 225.72 81.36 
L 234.036 81.36 
L 234.036 75.2 
L 225.72 75.2 
L 225.72 81.36 
" clip-path="url(#pe72ff18933)" style="fill: #2d708e"/>
    <path d="M 225.72 75.2 
L 234.036 75.2 
L 234.036 69.04 
L 225.72 69.04 
L 225.72 75.2 
" clip-path="url(#pe72ff18933)" style="fill: #26828e"/>
    <path d="M 225.72 69.04 
L 234.036 69.04 
L 234.036 62.88 
L 225.72 62.88 
L 225.72 69.04 
" clip-path="url(#pe72ff18933)" style="fill: #20938c"/>
    <path d="M 225.72 62.88 
L 234.036 62.88 
L 234.036 56.72 
L 225.72 56.72 
L 225.72 62.88 
" clip-path="url(#pe72ff18933)" style="fill: #21a585"/>
    <path d="M 225.72 56.72 
L 234.036 56.72 
L 234.036 50.56 
L 225.72 50.56 
L 225.72 56.72 
" clip-path="url(#pe72ff18933)" style="fill: #34b679"/>
    <path d="M 225.72 50.56 
L 234.036 50.56 
L 234.036 44.4 
L 225.72 44.4 
L 225.72 50.56 
" clip-path="url(#pe72ff18933)" style="fill: #58c765"/>
    <path d="M 225.72 44.4 
L 234.036 44.4 
L 234.036 38.24 
L 225.72 38.24 
L 225.72 44.4 
" clip-path="url(#pe72ff18933)" style="fill: #84d44b"/>
    <path d="M 225.72 38.24 
L 234.036 38.24 
L 234.036 32.08 
L 225.72 32.08 
L 225.72 38.24 
" clip-path="url(#pe72ff18933)" style="fill: #b5de2b"/>
    <path d="M 225.72 32.08 
L 234.036 32.08 
L 234.036 25.92 
L 225.72 25.92 
L 225.72 32.08 
" clip-path="url(#pe72ff18933)" style="fill: #e7e419"/>
   </g>
   <g id="matplotlib.axis_3"/>
   <g id="matplotlib.axis_4">
    <g id="ytick_4">
     <g id="line2d_7">
      <defs>
       <path id="m35eccaa586" d="M 0 0 
L 3.5 0 
" style="stroke: #000000; stroke-width: 0.8"/>
      </defs>
      <g>
       <use xlink:href="#m35eccaa586" x="234.036" y="192.24" style="stroke: #000000; stroke-width: 0.8"/>
      </g>
     </g>
     <g id="text_12">
      <!-- 7250 -->
      <g transform="translate(241.036 196.039219) scale(0.1 -0.1)">
       <defs>
        <path id="DejaVuSans-2212" d="M 678 2272 
L 4684 2272 
L 4684 1741 
L 678 1741 
L 678 2272 
z
" transform="scale(0.015625)"/>
       </defs>
       <use xlink:href="#DejaVuSans-2212"/>
       <use xlink:href="#DejaVuSans-37" x="83.789062"/>
       <use xlink:href="#DejaVuSans-32" x="147.412109"/>
       <use xlink:href="#DejaVuSans-35" x="211.035156"/>
       <use xlink:href="#DejaVuSans-30" x="274.658203"/>
      </g>
     </g>
    </g>
    <g id="ytick_5">
     <g id="line2d_8">
      <g>
       <use xlink:href="#m35eccaa586" x="234.036" y="173.76" style="stroke: #000000; stroke-width: 0.8"/>
      </g>
     </g>
     <g id="text_13">
      <!-- 7100 -->
      <g transform="translate(241.036 177.559219) scale(0.1 -0.1)">
       <use xlink:href="#DejaVuSans-2212"/>
       <use xlink:href="#DejaVuSans-37" x="83.789062"/>
       <use xlink:href="#DejaVuSans-31" x="147.412109"/>
       <use xlink:href="#DejaVuSans-30" x="211.035156"/>
       <use xlink:href="#DejaVuSans-30" x="274.658203"/>
      </g>
     </g>
    </g>
    <g id="ytick_6">
     <g id="line2d_9">
      <g>
       <use xlink:href="#m35eccaa586" x="234.036" y="155.28" style="stroke: #000000; stroke-width: 0.8"/>
      </g>
     </g>
     <g id="text_14">
      <!-- 6950 -->
      <g transform="translate(241.036 159.079219) scale(0.1 -0.1)">
       <defs>
        <path id="DejaVuSans-36" d="M 2113 2584 
Q 1688 2584 1439 2293 
Q 1191 2003 1191 1497 
Q 1191 994 1439 701 
Q 1688 409 2113 409 
Q 2538 409 2786 701 
Q 3034 994 3034 1497 
Q 3034 2003 2786 2293 
Q 2538 2584 2113 2584 
z
M 3366 4563 
L 3366 3988 
Q 3128 4100 2886 4159 
Q 2644 4219 2406 4219 
Q 1781 4219 1451 3797 
Q 1122 3375 1075 2522 
Q 1259 2794 1537 2939 
Q 1816 3084 2150 3084 
Q 2853 3084 3261 2657 
Q 3669 2231 3669 1497 
Q 3669 778 3244 343 
Q 2819 -91 2113 -91 
Q 1303 -91 875 529 
Q 447 1150 447 2328 
Q 447 3434 972 4092 
Q 1497 4750 2381 4750 
Q 2619 4750 2861 4703 
Q 3103 4656 3366 4563 
z
" transform="scale(0.015625)"/>
        <path id="DejaVuSans-39" d="M 703 97 
L 703 672 
Q 941 559 1184 500 
Q 1428 441 1663 441 
Q 2288 441 2617 861 
Q 2947 1281 2994 2138 
Q 2813 1869 2534 1725 
Q 2256 1581 1919 1581 
Q 1219 1581 811 2004 
Q 403 2428 403 3163 
Q 403 3881 828 4315 
Q 1253 4750 1959 4750 
Q 2769 4750 3195 4129 
Q 3622 3509 3622 2328 
Q 3622 1225 3098 567 
Q 2575 -91 1691 -91 
Q 1453 -91 1209 -44 
Q 966 3 703 97 
z
M 1959 2075 
Q 2384 2075 2632 2365 
Q 2881 2656 2881 3163 
Q 2881 3666 2632 3958 
Q 2384 4250 1959 4250 
Q 1534 4250 1286 3958 
Q 1038 3666 1038 3163 
Q 1038 2656 1286 2365 
Q 1534 2075 1959 2075 
z
" transform="scale(0.015625)"/>
       </defs>
       <use xlink:href="#DejaVuSans-2212"/>
       <use xlink:href="#DejaVuSans-36" x="83.789062"/>
       <use xlink:href="#DejaVuSans-39" x="147.412109"/>
       <use xlink:href="#DejaVuSans-35" x="211.035156"/>
       <use xlink:href="#DejaVuSans-30" x="274.658203"/>
      </g>
     </g>
    </g>
    <g id="ytick_7">
     <g id="line2d_10">
      <g>
       <use xlink:href="#m35eccaa586" x="234.036" y="136.8" style="stroke: #000000; stroke-width: 0.8"/>
      </g>
     </g>
     <g id="text_15">
      <!-- 6800 -->
      <g transform="translate(241.036 140.599219) scale(0.1 -0.1)">
       <defs>
        <path id="DejaVuSans-38" d="M 2034 2216 
Q 1584 2216 1326 1975 
Q 1069 1734 1069 1313 
Q 1069 891 1326 650 
Q 1584 409 2034 409 
Q 2484 409 2743 651 
Q 3003 894 3003 1313 
Q 3003 1734 2745 1975 
Q 2488 2216 2034 2216 
z
M 1403 2484 
Q 997 2584 770 2862 
Q 544 3141 544 3541 
Q 544 4100 942 4425 
Q 1341 4750 2034 4750 
Q 2731 4750 3128 4425 
Q 3525 4100 3525 3541 
Q 3525 3141 3298 2862 
Q 3072 2584 2669 2484 
Q 3125 2378 3379 2068 
Q 3634 1759 3634 1313 
Q 3634 634 3220 271 
Q 2806 -91 2034 -91 
Q 1263 -91 848 271 
Q 434 634 434 1313 
Q 434 1759 690 2068 
Q 947 2378 1403 2484 
z
M 1172 3481 
Q 1172 3119 1398 2916 
Q 1625 2713 2034 2713 
Q 2441 2713 2670 2916 
Q 2900 3119 2900 3481 
Q 2900 3844 2670 4047 
Q 2441 4250 2034 4250 
Q 1625 4250 1398 4047 
Q 1172 3844 1172 3481 
z
" transform="scale(0.015625)"/>
       </defs>
       <use xlink:href="#DejaVuSans-2212"/>
       <use xlink:href="#DejaVuSans-36" x="83.789062"/>
       <use xlink:href="#DejaVuSans-38" x="147.412109"/>
       <use xlink:href="#DejaVuSans-30" x="211.035156"/>
       <use xlink:href="#DejaVuSans-30" x="274.658203"/>
      </g>
     </g>
    </g>
    <g id="ytick_8">
     <g id="line2d_11">
      <g>
       <use xlink:href="#m35eccaa586" x="234.036" y="118.32" style="stroke: #000000; stroke-width: 0.8"/>
      </g>
     </g>
     <g id="text_16">
      <!-- 6650 -->
      <g transform="translate(241.036 122.119219) scale(0.1 -0.1)">
       <use xlink:href="#DejaVuSans-2212"/>
       <use xlink:href="#DejaVuSans-36" x="83.789062"/>
       <use xlink:href="#DejaVuSans-36" x="147.412109"/>
       <use xlink:href="#DejaVuSans-35" x="211.035156"/>
       <use xlink:href="#DejaVuSans-30" x="274.658203"/>
      </g>
     </g>
    </g>
    <g id="ytick_9">
     <g id="line2d_12">
      <g>
       <use xlink:href="#m35eccaa586" x="234.036" y="99.84" style="stroke: #000000; stroke-width: 0.8"/>
      </g>
     </g>
     <g id="text_17">
      <!-- 6500 -->
      <g transform="translate(241.036 103.639219) scale(0.1 -0.1)">
       <use xlink:href="#DejaVuSans-2212"/>
       <use xlink:href="#DejaVuSans-36" x="83.789062"/>
       <use xlink:href="#DejaVuSans-35" x="147.412109"/>
       <use xlink:href="#DejaVuSans-30" x="211.035156"/>
       <use xlink:href="#DejaVuSans-30" x="274.658203"/>
      </g>
     </g>
    </g>
    <g id="ytick_10">
     <g id="line2d_13">
      <g>
       <use xlink:href="#m35eccaa586" x="234.036" y="81.36" style="stroke: #000000; stroke-width: 0.8"/>
      </g>
     </g>
     <g id="text_18">
      <!-- 6350 -->
      <g transform="translate(241.036 85.159219) scale(0.1 -0.1)">
       <use xlink:href="#DejaVuSans-2212"/>
       <use xlink:href="#DejaVuSans-36" x="83.789062"/>
       <use xlink:href="#DejaVuSans-33" x="147.412109"/>
       <use xlink:href="#DejaVuSans-35" x="211.035156"/>
       <use xlink:href="#DejaVuSans-30" x="274.658203"/>
      </g>
     </g>
    </g>
    <g id="ytick_11">
     <g id="line2d_14">
      <g>
       <use xlink:href="#m35eccaa586" x="234.036" y="62.88" style="stroke: #000000; stroke-width: 0.8"/>
      </g>
     </g>
     <g id="text_19">
      <!-- 6200 -->
      <g transform="translate(241.036 66.679219) scale(0.1 -0.1)">
       <use xlink:href="#DejaVuSans-2212"/>
       <use xlink:href="#DejaVuSans-36" x="83.789062"/>
       <use xlink:href="#DejaVuSans-32" x="147.412109"/>
       <use xlink:href="#DejaVuSans-30" x="211.035156"/>
       <use xlink:href="#DejaVuSans-30" x="274.658203"/>
      </g>
     </g>
    </g>
    <g id="ytick_12">
     <g id="line2d_15">
      <g>
       <use xlink:href="#m35eccaa586" x="234.036" y="44.4" style="stroke: #000000; stroke-width: 0.8"/>
      </g>
     </g>
     <g id="text_20">
      <!-- 6050 -->
      <g transform="translate(241.036 48.199219) scale(0.1 -0.1)">
       <use xlink:href="#DejaVuSans-2212"/>
       <use xlink:href="#DejaVuSans-36" x="83.789062"/>
       <use xlink:href="#DejaVuSans-30" x="147.412109"/>
       <use xlink:href="#DejaVuSans-35" x="211.035156"/>
       <use xlink:href="#DejaVuSans-30" x="274.658203"/>
      </g>
     </g>
    </g>
    <g id="ytick_13">
     <g id="line2d_16">
      <g>
       <use xlink:href="#m35eccaa586" x="234.036" y="25.92" style="stroke: #000000; stroke-width: 0.8"/>
      </g>
     </g>
     <g id="text_21">
      <!-- 5900 -->
      <g transform="translate(241.036 29.719219) scale(0.1 -0.1)">
       <use xlink:href="#DejaVuSans-2212"/>
       <use xlink:href="#DejaVuSans-35" x="83.789062"/>
       <use xlink:href="#DejaVuSans-39" x="147.412109"/>
       <use xlink:href="#DejaVuSans-30" x="211.035156"/>
       <use xlink:href="#DejaVuSans-30" x="274.658203"/>
      </g>
     </g>
    </g>
    <g id="text_22">
     <!-- log likelihood -->
     <g transform="translate(287.983813 148.704375) rotate(-90) scale(0.12 -0.12)">
      <defs>
       <path id="DejaVuSans-67" d="M 2906 1791 
Q 2906 2416 2648 2759 
Q 2391 3103 1925 3103 
Q 1463 3103 1205 2759 
Q 947 2416 947 1791 
Q 947 1169 1205 825 
Q 1463 481 1925 481 
Q 2391 481 2648 825 
Q 2906 1169 2906 1791 
z
M 3481 434 
Q 3481 -459 3084 -895 
Q 2688 -1331 1869 -1331 
Q 1566 -1331 1297 -1286 
Q 1028 -1241 775 -1147 
L 775 -588 
Q 1028 -725 1275 -790 
Q 1522 -856 1778 -856 
Q 2344 -856 2625 -561 
Q 2906 -266 2906 331 
L 2906 616 
Q 2728 306 2450 153 
Q 2172 0 1784 0 
Q 1141 0 747 490 
Q 353 981 353 1791 
Q 353 2603 747 3093 
Q 1141 3584 1784 3584 
Q 2172 3584 2450 3431 
Q 2728 3278 2906 2969 
L 2906 3500 
L 3481 3500 
L 3481 434 
z
" transform="scale(0.015625)"/>
       <path id="DejaVuSans-6b" d="M 581 4863 
L 1159 4863 
L 1159 1991 
L 2875 3500 
L 3609 3500 
L 1753 1863 
L 3688 0 
L 2938 0 
L 1159 1709 
L 1159 0 
L 581 0 
L 581 4863 
z
" transform="scale(0.015625)"/>
       <path id="DejaVuSans-68" d="M 3513 2113 
L 3513 0 
L 2938 0 
L 2938 2094 
Q 2938 2591 2744 2837 
Q 2550 3084 2163 3084 
Q 1697 3084 1428 2787 
Q 1159 2491 1159 1978 
L 1159 0 
L 581 0 
L 581 4863 
L 1159 4863 
L 1159 2956 
Q 1366 3272 1645 3428 
Q 1925 3584 2291 3584 
Q 2894 3584 3203 3211 
Q 3513 2838 3513 2113 
z
" transform="scale(0.015625)"/>
      </defs>
      <use xlink:href="#DejaVuSans-6c"/>
      <use xlink:href="#DejaVuSans-6f" x="27.783203"/>
      <use xlink:href="#DejaVuSans-67" x="88.964844"/>
      <use xlink:href="#DejaVuSans-20" x="152.441406"/>
      <use xlink:href="#DejaVuSans-6c" x="184.228516"/>
      <use xlink:href="#DejaVuSans-69" x="212.011719"/>
      <use xlink:href="#DejaVuSans-6b" x="239.794922"/>
      <use xlink:href="#DejaVuSans-65" x="294.080078"/>
      <use xlink:href="#DejaVuSans-6c" x="355.603516"/>
      <use xlink:href="#DejaVuSans-69" x="383.386719"/>
      <use xlink:href="#DejaVuSans-68" x="411.169922"/>
      <use xlink:href="#DejaVuSans-6f" x="474.548828"/>
      <use xlink:href="#DejaVuSans-6f" x="535.730469"/>
      <use xlink:href="#DejaVuSans-64" x="596.912109"/>
     </g>
    </g>
    <g id="text_23">
     <!-- 1e3 -->
     <g transform="translate(215.157875 22.92) scale(0.1 -0.1)">
      <use xlink:href="#DejaVuSans-31"/>
      <use xlink:href="#DejaVuSans-65" x="63.623047"/>
      <use xlink:href="#DejaVuSans-33" x="125.146484"/>
     </g>
    </g>
   </g>
   <g id="LineCollection_1"/>
   <g id="patch_8">
    <path d="M 225.72 192.24 
L 229.878 192.24 
L 234.036 192.24 
L 234.036 25.92 
L 229.878 25.92 
L 225.72 25.92 
L 225.72 192.24 
z
" style="fill: none; stroke: #000000; stroke-width: 0.8; stroke-linejoin: miter; stroke-linecap: square"/>
   </g>
  </g>
 </g>
 <defs>
  <clipPath id="p2aae203681">
   <rect x="36" y="25.92" width="178.56" height="166.32"/>
  </clipPath>
  <clipPath id="pe72ff18933">
   <rect x="225.72" y="25.92" width="8.316" height="166.32"/>
  </clipPath>
 </defs>
</svg>
