<?xml version="1.0" encoding="utf-8" standalone="no"?>
<!DOCTYPE svg PUBLIC "-//W3C//DTD SVG 1.1//EN"
  "http://www.w3.org/Graphics/SVG/1.1/DTD/svg11.dtd">
<svg xmlns:xlink="http://www.w3.org/1999/xlink" width="288pt" height="216pt" viewBox="0 0 288 216" xmlns="http://www.w3.org/2000/svg" version="1.1">
 <metadata>
  <rdf:RDF xmlns:dc="http://purl.org/dc/elements/1.1/" xmlns:cc="http://creativecommons.org/ns#" xmlns:rdf="http://www.w3.org/1999/02/22-rdf-syntax-ns#">
   <cc:Work>
    <dc:type rdf:resource="http://purl.org/dc/dcmitype/StillImage"/>
    <dc:date>2024-12-12T23:17:01.844826</dc:date>
    <dc:format>image/svg+xml</dc:format>
    <dc:creator>
     <cc:Agent>
      <dc:title>Matplotlib v3.8.4, https://matplotlib.org/</dc:title>
     </cc:Agent>
    </dc:creator>
   </cc:Work>
  </rdf:RDF>
 </metadata>
 <defs>
  <style type="text/css">*{stroke-linejoin: round; stroke-linecap: butt}</style>
 </defs>
 <g id="figure_1">
  <g id="patch_1">
   <path d="M 0 216 
L 288 216 
L 288 0 
L 0 0 
z
" style="fill: #ffffff"/>
  </g>
  <g id="axes_1">
   <g id="patch_2">
    <path d="M 36 192.24 
L 214.56 192.24 
L 214.56 25.92 
L 36 25.92 
z
" style="fill: #ffffff"/>
   </g>
   <g id="QuadContourSet_1">
    <path d="M 77.273686 136.8 
L 76.416754 131.256 
L 75.920641 125.712 
L 75.742628 120.168 
L 75.856222 114.624 
L 76.247103 109.08 
L 76.910734 103.536 
L 77.664 99.04405 
L 80.865453 97.992 
L 83.616 97.40749 
L 83.85265 97.992 
L 86.129818 103.536 
L 88.658005 109.08 
L 89.568 111.040825 
L 90.436255 114.624 
L 91.670417 120.168 
L 92.733753 125.712 
L 93.465484 131.256 
L 93.581856 136.8 
L 92.564079 142.344 
L 89.568 147.655501 
L 83.616 147.655004 
L 79.82986 142.344 
L 77.664 138.432275 
z
" clip-path="url(#p7d02f04e4a)" style="fill: #eae51a"/>
    <path d="M 77.417389 147.888 
L 75.473066 142.344 
L 74.043735 136.8 
L 73.028411 131.256 
L 72.360271 125.712 
L 71.995234 120.168 
L 71.905176 114.624 
L 72.073823 109.08 
L 72.494301 103.536 
L 73.167777 97.992 
L 74.102866 92.448 
L 75.315673 86.904 
L 76.830414 81.36 
L 77.664 78.767504 
L 83.055514 81.36 
L 83.616 81.58766 
L 85.680408 86.904 
L 88.067124 92.448 
L 89.568 95.678722 
L 90.20846 97.992 
L 91.75471 103.536 
L 93.346354 109.08 
L 94.960112 114.624 
L 95.52 116.66964 
L 96.230521 120.168 
L 97.214054 125.712 
L 97.981815 131.256 
L 98.380875 136.8 
L 98.160165 142.344 
L 96.89646 147.888 
L 95.52 150.528097 
L 92.298499 153.432 
L 89.568 154.748037 
L 83.616 154.13151 
L 82.682086 153.432 
L 77.664 148.391084 
z
M 77.664 138.432275 
L 79.82986 142.344 
L 83.616 147.655004 
L 89.568 147.655501 
L 92.564079 142.344 
L 93.581856 136.8 
L 93.465484 131.256 
L 92.733753 125.712 
L 91.670417 120.168 
L 90.436255 114.624 
L 89.568 111.040825 
L 88.658005 109.08 
L 86.129818 103.536 
L 83.85265 97.992 
L 83.616 97.40749 
L 80.865453 97.992 
L 77.664 99.04405 
L 76.910734 103.536 
L 76.247103 109.08 
L 75.856222 114.624 
L 75.742628 120.168 
L 75.920641 125.712 
L 76.416754 131.256 
L 77.273686 136.8 
z
" clip-path="url(#p7d02f04e4a)" style="fill: #c0df25"/>
    <path d="M 71.208154 136.8 
L 70.578756 131.256 
L 70.160949 125.712 
L 69.917716 120.168 
L 69.821985 114.624 
L 69.853558 109.08 
L 69.997106 103.536 
L 70.240842 97.992 
L 70.575597 92.448 
L 70.994187 86.904 
L 71.490953 81.36 
L 71.712 79.179611 
L 72.61323 75.816 
L 74.390198 70.272 
L 76.547178 64.728 
L 77.664 62.239917 
L 80.140386 64.728 
L 83.616 67.708843 
L 84.518134 70.272 
L 86.596577 75.816 
L 88.894899 81.36 
L 89.568 82.897576 
L 90.673811 86.904 
L 92.269164 92.448 
L 93.951001 97.992 
L 95.52 102.942981 
L 95.665215 103.536 
L 96.988804 109.08 
L 98.307685 114.624 
L 99.587505 120.168 
L 100.773157 125.712 
L 101.472 129.649761 
L 101.711391 131.256 
L 102.231672 136.8 
L 102.300684 142.344 
L 101.636691 147.888 
L 101.472 148.410552 
L 99.136189 153.432 
L 95.52 157.176579 
L 91.349155 158.976 
L 89.568 159.424907 
L 85.77132 158.976 
L 83.616 158.618302 
L 77.664 154.10568 
L 77.20528 153.432 
L 74.467594 147.888 
L 72.388995 142.344 
L 71.712 139.898309 
z
M 77.664 148.391084 
L 82.682086 153.432 
L 83.616 154.13151 
L 89.568 154.748037 
L 92.298499 153.432 
L 95.52 150.528097 
L 96.89646 147.888 
L 98.160165 142.344 
L 98.380875 136.8 
L 97.981815 131.256 
L 97.214054 125.712 
L 96.230521 120.168 
L 95.52 116.66964 
L 94.960112 114.624 
L 93.346354 109.08 
L 91.75471 103.536 
L 90.20846 97.992 
L 89.568 95.678722 
L 88.067124 92.448 
L 85.680408 86.904 
L 83.616 81.58766 
L 83.055514 81.36 
L 77.664 78.767504 
L 76.830414 81.36 
L 75.315673 86.904 
L 74.102866 92.448 
L 73.167777 97.992 
L 72.494301 103.536 
L 72.073823 109.08 
L 71.905176 114.624 
L 71.995234 120.168 
L 72.360271 125.712 
L 73.028411 131.256 
L 74.043735 136.8 
L 75.473066 142.344 
L 77.417389 147.888 
z
" clip-path="url(#p7d02f04e4a)" style="fill: #95d840"/>
    <path d="M 71.59783 147.888 
L 70.328914 142.344 
L 69.396343 136.8 
L 68.7255 131.256 
L 68.264615 125.712 
L 67.976729 120.168 
L 67.834813 114.624 
L 67.818693 109.08 
L 67.913056 103.536 
L 68.106118 97.992 
L 68.388706 92.448 
L 68.753623 86.904 
L 69.195193 81.36 
L 69.708927 75.816 
L 70.291286 70.272 
L 70.939494 64.728 
L 71.651404 59.184 
L 71.712 58.739982 
L 73.991612 53.64 
L 76.994548 48.096 
L 77.664 47.003849 
L 78.415122 48.096 
L 82.746617 53.64 
L 83.616 54.61687 
L 85.110832 59.184 
L 87.073312 64.728 
L 89.226586 70.272 
L 89.568 71.110705 
L 90.827695 75.816 
L 92.392548 81.36 
L 94.053833 86.904 
L 95.52 91.547321 
L 95.744089 92.448 
L 97.129415 97.992 
L 98.55708 103.536 
L 100.016436 109.08 
L 101.472 114.562654 
L 101.485962 114.624 
L 102.661083 120.168 
L 103.755203 125.712 
L 104.700265 131.256 
L 105.389662 136.8 
L 105.653774 142.344 
L 105.216956 147.888 
L 103.618808 153.432 
L 101.472 156.8836 
L 99.477498 158.976 
L 95.52 161.274255 
L 89.568 162.621466 
L 83.616 161.74339 
L 78.607302 158.976 
L 77.664 158.256574 
L 74.378867 153.432 
L 71.712 148.249596 
z
M 71.712 139.898309 
L 72.388995 142.344 
L 74.467594 147.888 
L 77.20528 153.432 
L 77.664 154.10568 
L 83.616 158.618302 
L 85.77132 158.976 
L 89.568 159.424907 
L 91.349155 158.976 
L 95.52 157.176579 
L 99.136189 153.432 
L 101.472 148.410552 
L 101.636691 147.888 
L 102.300684 142.344 
L 102.231672 136.8 
L 101.711391 131.256 
L 101.472 129.649761 
L 100.773157 125.712 
L 99.587505 120.168 
L 98.307685 114.624 
L 96.988804 109.08 
L 95.665215 103.536 
L 95.52 102.942981 
L 93.951001 97.992 
L 92.269164 92.448 
L 90.673811 86.904 
L 89.568 82.897576 
L 88.894899 81.36 
L 86.596577 75.816 
L 84.518134 70.272 
L 83.616 67.708843 
L 80.140386 64.728 
L 77.664 62.239917 
L 76.547178 64.728 
L 74.390198 70.272 
L 72.61323 75.816 
L 71.712 79.179611 
L 71.490953 81.36 
L 70.994187 86.904 
L 70.575597 92.448 
L 70.240842 97.992 
L 69.997106 103.536 
L 69.853558 109.08 
L 69.821985 114.624 
L 69.917716 120.168 
L 70.160949 125.712 
L 70.578756 131.256 
L 71.208154 136.8 
z
" clip-path="url(#p7d02f04e4a)" style="fill: #6ece58"/>
    <path d="M 71.616137 153.432 
L 69.863649 147.888 
L 68.556832 142.344 
L 67.584532 136.8 
L 66.872244 131.256 
L 66.368281 125.712 
L 66.035743 120.168 
L 65.847641 114.624 
L 65.783828 109.08 
L 65.829006 103.536 
L 65.971394 97.992 
L 66.201814 92.448 
L 66.513059 86.904 
L 66.899433 81.36 
L 67.356424 75.816 
L 67.880462 70.272 
L 68.468739 64.728 
L 69.119066 59.184 
L 69.829779 53.64 
L 70.599648 48.096 
L 71.427823 42.552 
L 71.712 40.743566 
L 74.101147 37.008 
L 77.664 32.343406 
L 80.350003 37.008 
L 83.616 41.913469 
L 83.803284 42.552 
L 85.497578 48.096 
L 87.333392 53.64 
L 89.33252 59.184 
L 89.568 59.808732 
L 90.828167 64.728 
L 92.329092 70.272 
L 93.92429 75.816 
L 95.52 81.037935 
L 95.598772 81.36 
L 96.973061 86.904 
L 98.407363 92.448 
L 99.900607 97.992 
L 101.448945 103.536 
L 101.472 103.619836 
L 102.766182 109.08 
L 104.081403 114.624 
L 105.371956 120.168 
L 106.596257 125.712 
L 107.424 129.961987 
L 107.652494 131.256 
L 108.384455 136.8 
L 108.764453 142.344 
L 108.574614 147.888 
L 107.459051 153.432 
L 107.424 153.510424 
L 104.228628 158.976 
L 101.472 161.421694 
L 95.868612 164.52 
L 95.52 164.632888 
L 89.568 165.360778 
L 83.616 164.672499 
L 83.233702 164.52 
L 77.664 161.334189 
L 75.420873 158.976 
L 71.712 153.651872 
z
M 71.712 148.249596 
L 74.378867 153.432 
L 77.664 158.256574 
L 78.607302 158.976 
L 83.616 161.74339 
L 89.568 162.621466 
L 95.52 161.274255 
L 99.477498 158.976 
L 101.472 156.8836 
L 103.618808 153.432 
L 105.216956 147.888 
L 105.653774 142.344 
L 105.389662 136.8 
L 104.700265 131.256 
L 103.755203 125.712 
L 102.661083 120.168 
L 101.485962 114.624 
L 101.472 114.562654 
L 100.016436 109.08 
L 98.55708 103.536 
L 97.129415 97.992 
L 95.744089 92.448 
L 95.52 91.547321 
L 94.053833 86.904 
L 92.392548 81.36 
L 90.827695 75.816 
L 89.568 71.110705 
L 89.226586 70.272 
L 87.073312 64.728 
L 85.110832 59.184 
L 83.616 54.61687 
L 82.746617 53.64 
L 78.415122 48.096 
L 77.664 47.003849 
L 76.994548 48.096 
L 73.991612 53.64 
L 71.712 58.739982 
L 71.651404 59.184 
L 70.939494 64.728 
L 70.291286 70.272 
L 69.708927 75.816 
L 69.195193 81.36 
L 68.753623 86.904 
L 68.388706 92.448 
L 68.106118 97.992 
L 67.913056 103.536 
L 67.818693 109.08 
L 67.834813 114.624 
L 67.976729 120.168 
L 68.264615 125.712 
L 68.7255 131.256 
L 69.396343 136.8 
L 70.328914 142.344 
L 71.59783 147.888 
z
" clip-path="url(#p7d02f04e4a)" style="fill: #4cc26c"/>
    <path d="M 65.289503 131.256 
L 64.951574 125.712 
L 64.727012 120.168 
L 64.595569 114.624 
L 64.541917 109.08 
L 64.55421 103.536 
L 64.623124 97.992 
L 64.741204 92.448 
L 64.902398 86.904 
L 65.10173 81.36 
L 65.335061 75.816 
L 65.598908 70.272 
L 65.76 67.191534 
L 65.997983 64.728 
L 66.586728 59.184 
L 67.234165 53.64 
L 67.939018 48.096 
L 68.700383 42.552 
L 69.517682 37.008 
L 70.390624 31.464 
L 71.319172 25.92 
L 71.712 25.92 
L 77.664 25.92 
L 81.641811 25.92 
L 83.616 29.371911 
L 84.187307 31.464 
L 85.777401 37.008 
L 87.49007 42.552 
L 89.342479 48.096 
L 89.568 48.742409 
L 90.76022 53.64 
L 92.184945 59.184 
L 93.69732 64.728 
L 95.306046 70.272 
L 95.52 70.987913 
L 96.682695 75.816 
L 98.077274 81.36 
L 99.539283 86.904 
L 101.070636 92.448 
L 101.472 93.879488 
L 102.475032 97.992 
L 103.852916 103.536 
L 105.258635 109.08 
L 106.676843 114.624 
L 107.424 117.630127 
L 107.999622 120.168 
L 109.171688 125.712 
L 110.228271 131.256 
L 111.083785 136.8 
L 111.604027 142.344 
L 111.574498 147.888 
L 110.643581 153.432 
L 108.215696 158.976 
L 107.424 159.911995 
L 102.207439 164.52 
L 101.472 164.887146 
L 95.52 166.797285 
L 89.568 167.431305 
L 83.616 166.661883 
L 78.246552 164.52 
L 77.664 164.186786 
L 72.707462 158.976 
L 71.712 157.547004 
L 69.917879 153.432 
L 68.129468 147.888 
L 66.78475 142.344 
L 65.772721 136.8 
L 65.76 136.704329 
z
M 71.712 153.651872 
L 75.420873 158.976 
L 77.664 161.334189 
L 83.233702 164.52 
L 83.616 164.672499 
L 89.568 165.360778 
L 95.52 164.632888 
L 95.868612 164.52 
L 101.472 161.421694 
L 104.228628 158.976 
L 107.424 153.510424 
L 107.459051 153.432 
L 108.574614 147.888 
L 108.764453 142.344 
L 108.384455 136.8 
L 107.652494 131.256 
L 107.424 129.961987 
L 106.596257 125.712 
L 105.371956 120.168 
L 104.081403 114.624 
L 102.766182 109.08 
L 101.472 103.619836 
L 101.448945 103.536 
L 99.900607 97.992 
L 98.407363 92.448 
L 96.973061 86.904 
L 95.598772 81.36 
L 95.52 81.037935 
L 93.92429 75.816 
L 92.329092 70.272 
L 90.828167 64.728 
L 89.568 59.808732 
L 89.33252 59.184 
L 87.333392 53.64 
L 85.497578 48.096 
L 83.803284 42.552 
L 83.616 41.913469 
L 80.350003 37.008 
L 77.664 32.343406 
L 74.101147 37.008 
L 71.712 40.743566 
L 71.427823 42.552 
L 70.599648 48.096 
L 69.829779 53.64 
L 69.119066 59.184 
L 68.468739 64.728 
L 67.880462 70.272 
L 67.356424 75.816 
L 66.899433 81.36 
L 66.513059 86.904 
L 66.201814 92.448 
L 65.971394 97.992 
L 65.829006 103.536 
L 65.783828 109.08 
L 65.847641 114.624 
L 66.035743 120.168 
L 66.368281 125.712 
L 66.872244 131.256 
L 67.584532 136.8 
L 68.556832 142.344 
L 69.863649 147.888 
L 71.616137 153.432 
z
" clip-path="url(#p7d02f04e4a)" style="fill: #31b57b"/>
    <path d="M 65.274611 142.344 
L 64.604574 136.8 
L 64.112801 131.256 
L 63.761371 125.712 
L 63.522975 120.168 
L 63.377414 114.624 
L 63.309402 109.08 
L 63.307127 103.536 
L 63.361294 97.992 
L 63.464471 92.448 
L 63.610629 86.904 
L 63.794808 81.36 
L 64.012884 75.816 
L 64.261387 70.272 
L 64.537374 64.728 
L 64.83832 59.184 
L 65.162047 53.64 
L 65.506657 48.096 
L 65.76 44.222638 
L 65.972943 42.552 
L 66.721583 37.008 
L 67.523954 31.464 
L 68.379957 25.92 
L 71.319172 25.92 
L 70.390624 31.464 
L 69.517682 37.008 
L 68.700383 42.552 
L 67.939018 48.096 
L 67.234165 53.64 
L 66.586728 59.184 
L 65.997983 64.728 
L 65.76 67.191534 
L 65.598908 70.272 
L 65.335061 75.816 
L 65.10173 81.36 
L 64.902398 86.904 
L 64.741204 92.448 
L 64.623124 97.992 
L 64.55421 103.536 
L 64.541917 109.08 
L 64.595569 114.624 
L 64.727012 120.168 
L 64.951574 125.712 
L 65.289503 131.256 
L 65.76 136.704329 
L 65.772721 136.8 
L 66.78475 142.344 
L 68.129468 147.888 
L 69.917879 153.432 
L 71.712 157.547004 
L 72.707462 158.976 
L 77.664 164.186786 
L 78.246552 164.52 
L 83.616 166.661883 
L 89.568 167.431305 
L 95.52 166.797285 
L 101.472 164.887146 
L 102.207439 164.52 
L 107.424 159.911995 
L 108.215696 158.976 
L 110.643581 153.432 
L 111.574498 147.888 
L 111.604027 142.344 
L 111.083785 136.8 
L 110.228271 131.256 
L 109.171688 125.712 
L 107.999622 120.168 
L 107.424 117.630127 
L 106.676843 114.624 
L 105.258635 109.08 
L 103.852916 103.536 
L 102.475032 97.992 
L 101.472 93.879488 
L 101.070636 92.448 
L 99.539283 86.904 
L 98.077274 81.36 
L 96.682695 75.816 
L 95.52 70.987913 
L 95.306046 70.272 
L 93.69732 64.728 
L 92.184945 59.184 
L 90.76022 53.64 
L 89.568 48.742409 
L 89.342479 48.096 
L 87.49007 42.552 
L 85.777401 37.008 
L 84.187307 31.464 
L 83.616 29.371911 
L 81.641811 25.92 
L 83.616 25.92 
L 86.005645 25.92 
L 87.603851 31.464 
L 89.322177 37.008 
L 89.568 37.768214 
L 90.670859 42.552 
L 92.017035 48.096 
L 93.442961 53.64 
L 94.956482 59.184 
L 95.52 61.168354 
L 96.344194 64.728 
L 97.679029 70.272 
L 99.081544 75.816 
L 100.555776 81.36 
L 101.472 84.684147 
L 102.008309 86.904 
L 103.375451 92.448 
L 104.791749 97.992 
L 106.252966 103.536 
L 107.424 107.904928 
L 107.712955 109.08 
L 109.048267 114.624 
L 110.368127 120.168 
L 111.637912 125.712 
L 112.804049 131.256 
L 113.376 134.557532 
L 113.743359 136.8 
L 114.33383 142.344 
L 114.444235 147.888 
L 113.776071 153.432 
L 113.376 154.624249 
L 111.614659 158.976 
L 107.424 163.930469 
L 106.756613 164.52 
L 101.472 167.158188 
L 95.52 168.961683 
L 89.568 169.501833 
L 83.616 168.651266 
L 77.664 166.216833 
L 75.358455 164.52 
L 71.712 160.705119 
L 70.658143 158.976 
L 68.219621 153.432 
L 66.395286 147.888 
L 65.76 145.310847 
z
" clip-path="url(#p7d02f04e4a)" style="fill: #21a685"/>
    <path d="M 65.038324 147.888 
L 64.123651 142.344 
L 63.440978 136.8 
L 62.936099 131.256 
L 62.571168 125.712 
L 62.318937 120.168 
L 62.159259 114.624 
L 62.076887 109.08 
L 62.060044 103.536 
L 62.099464 97.992 
L 62.187739 92.448 
L 62.31886 86.904 
L 62.487885 81.36 
L 62.690706 75.816 
L 62.923867 70.272 
L 63.184433 64.728 
L 63.469892 59.184 
L 63.778072 53.64 
L 64.107086 48.096 
L 64.45528 42.552 
L 64.821195 37.008 
L 65.203539 31.464 
L 65.601161 25.92 
L 65.76 25.92 
L 68.379957 25.92 
L 67.523954 31.464 
L 66.721583 37.008 
L 65.972943 42.552 
L 65.76 44.222638 
L 65.506657 48.096 
L 65.162047 53.64 
L 64.83832 59.184 
L 64.537374 64.728 
L 64.261387 70.272 
L 64.012884 75.816 
L 63.794808 81.36 
L 63.610629 86.904 
L 63.464471 92.448 
L 63.361294 97.992 
L 63.307127 103.536 
L 63.309402 109.08 
L 63.377414 114.624 
L 63.522975 120.168 
L 63.761371 125.712 
L 64.112801 131.256 
L 64.604574 136.8 
L 65.274611 142.344 
L 65.76 145.310847 
L 66.395286 147.888 
L 68.219621 153.432 
L 70.658143 158.976 
L 71.712 160.705119 
L 75.358455 164.52 
L 77.664 166.216833 
L 83.616 168.651266 
L 89.568 169.501833 
L 95.52 168.961683 
L 101.472 167.158188 
L 106.756613 164.52 
L 107.424 163.930469 
L 111.614659 158.976 
L 113.376 154.624249 
L 113.776071 153.432 
L 114.444235 147.888 
L 114.33383 142.344 
L 113.743359 136.8 
L 113.376 134.557532 
L 112.804049 131.256 
L 111.637912 125.712 
L 110.368127 120.168 
L 109.048267 114.624 
L 107.712955 109.08 
L 107.424 107.904928 
L 106.252966 103.536 
L 104.791749 97.992 
L 103.375451 92.448 
L 102.008309 86.904 
L 101.472 84.684147 
L 100.555776 81.36 
L 99.081544 75.816 
L 97.679029 70.272 
L 96.344194 64.728 
L 95.52 61.168354 
L 94.956482 59.184 
L 93.442961 53.64 
L 92.017035 48.096 
L 90.670859 42.552 
L 89.568 37.768214 
L 89.322177 37.008 
L 87.603851 31.464 
L 86.005645 25.92 
L 89.305834 25.92 
L 89.568 26.792891 
L 90.586416 31.464 
L 91.856323 37.008 
L 93.198124 42.552 
L 94.618669 48.096 
L 95.52 51.452558 
L 96.003689 53.64 
L 97.271601 59.184 
L 98.603916 64.728 
L 100.005243 70.272 
L 101.472 75.785408 
L 101.47918 75.816 
L 102.801819 81.36 
L 104.180803 86.904 
L 105.61666 92.448 
L 107.108466 97.992 
L 107.424 99.156755 
L 108.514899 103.536 
L 109.914824 109.08 
L 111.329132 114.624 
L 112.736633 120.168 
L 113.376 122.815925 
L 114.039455 125.712 
L 115.193438 131.256 
L 116.179088 136.8 
L 116.881438 142.344 
L 117.118327 147.888 
L 116.594047 153.432 
L 114.813083 158.976 
L 113.376 161.097425 
L 110.538686 164.52 
L 107.424 166.560081 
L 101.472 169.42923 
L 99.312047 170.064 
L 95.52 170.721571 
L 89.568 171.013604 
L 83.616 170.43248 
L 82.280949 170.064 
L 77.664 168.138089 
L 72.747978 164.52 
L 71.712 163.436171 
L 68.99363 158.976 
L 66.521363 153.432 
L 65.76 151.134852 
z
" clip-path="url(#p7d02f04e4a)" style="fill: #1f978b"/>
    <path d="M 65.137983 153.432 
L 63.899438 147.888 
L 62.972692 142.344 
L 62.277382 136.8 
L 61.759397 131.256 
L 61.380965 125.712 
L 61.1149 120.168 
L 60.941104 114.624 
L 60.844372 109.08 
L 60.812961 103.536 
L 60.837633 97.992 
L 60.911007 92.448 
L 61.027091 86.904 
L 61.180963 81.36 
L 61.368529 75.816 
L 61.586346 70.272 
L 61.831492 64.728 
L 62.101463 59.184 
L 62.394097 53.64 
L 62.707515 48.096 
L 63.040068 42.552 
L 63.390304 37.008 
L 63.756938 31.464 
L 64.138821 25.92 
L 65.601161 25.92 
L 65.203539 31.464 
L 64.821195 37.008 
L 64.45528 42.552 
L 64.107086 48.096 
L 63.778072 53.64 
L 63.469892 59.184 
L 63.184433 64.728 
L 62.923867 70.272 
L 62.690706 75.816 
L 62.487885 81.36 
L 62.31886 86.904 
L 62.187739 92.448 
L 62.099464 97.992 
L 62.060044 103.536 
L 62.076887 109.08 
L 62.159259 114.624 
L 62.318937 120.168 
L 62.571168 125.712 
L 62.936099 131.256 
L 63.440978 136.8 
L 64.123651 142.344 
L 65.038324 147.888 
L 65.76 151.134852 
L 66.521363 153.432 
L 68.99363 158.976 
L 71.712 163.436171 
L 72.747978 164.52 
L 77.664 168.138089 
L 82.280949 170.064 
L 83.616 170.43248 
L 89.568 171.013604 
L 95.52 170.721571 
L 99.312047 170.064 
L 101.472 169.42923 
L 107.424 166.560081 
L 110.538686 164.52 
L 113.376 161.097425 
L 114.813083 158.976 
L 116.594047 153.432 
L 117.118327 147.888 
L 116.881438 142.344 
L 116.179088 136.8 
L 115.193438 131.256 
L 114.039455 125.712 
L 113.376 122.815925 
L 112.736633 120.168 
L 111.329132 114.624 
L 109.914824 109.08 
L 108.514899 103.536 
L 107.424 99.156755 
L 107.108466 97.992 
L 105.61666 92.448 
L 104.180803 86.904 
L 102.801819 81.36 
L 101.47918 75.816 
L 101.472 75.785408 
L 100.005243 70.272 
L 98.603916 64.728 
L 97.271601 59.184 
L 96.003689 53.64 
L 95.52 51.452558 
L 94.618669 48.096 
L 93.198124 42.552 
L 91.856323 37.008 
L 90.586416 31.464 
L 89.568 26.792891 
L 89.305834 25.92 
L 89.568 25.92 
L 91.719526 25.92 
L 92.98209 31.464 
L 94.315161 37.008 
L 95.52 41.763309 
L 95.685952 42.552 
L 96.886097 48.096 
L 98.146017 53.64 
L 99.470236 59.184 
L 100.863638 64.728 
L 101.472 67.064916 
L 102.210624 70.272 
L 103.531321 75.816 
L 104.911531 81.36 
L 106.353297 86.904 
L 107.424 90.884487 
L 107.81231 92.448 
L 109.207985 97.992 
L 110.645231 103.536 
L 112.116692 109.08 
L 113.376 113.78078 
L 113.590905 114.624 
L 114.958092 120.168 
L 116.2866 125.712 
L 117.529628 131.256 
L 118.614817 136.8 
L 119.328 141.682597 
L 119.421975 142.344 
L 119.75804 147.888 
L 119.405425 153.432 
L 119.328 153.736149 
L 117.795817 158.976 
L 114.082538 164.52 
L 113.376 165.082174 
L 107.424 168.950908 
L 105.087647 170.064 
L 101.472 171.058552 
L 95.52 172.061625 
L 89.568 172.317127 
L 83.616 171.703697 
L 77.675159 170.064 
L 77.664 170.059345 
L 71.712 165.645947 
L 70.726936 164.52 
L 67.329118 158.976 
L 65.76 155.478692 
z
" clip-path="url(#p7d02f04e4a)" style="fill: #23888e"/>
    <path d="M 59.726247 114.624 
L 59.624877 109.08 
L 59.586092 103.536 
L 59.597266 97.992 
L 59.650722 92.448 
L 59.741945 86.904 
L 59.808 83.983243 
L 59.874041 81.36 
L 60.046352 75.816 
L 60.248826 70.272 
L 60.478551 64.728 
L 60.733034 59.184 
L 61.010123 53.64 
L 61.307943 48.096 
L 61.624856 42.552 
L 61.959414 37.008 
L 62.310336 31.464 
L 62.67648 25.92 
L 64.138821 25.92 
L 63.756938 31.464 
L 63.390304 37.008 
L 63.040068 42.552 
L 62.707515 48.096 
L 62.394097 53.64 
L 62.101463 59.184 
L 61.831492 64.728 
L 61.586346 70.272 
L 61.368529 75.816 
L 61.180963 81.36 
L 61.027091 86.904 
L 60.911007 92.448 
L 60.837633 97.992 
L 60.812961 103.536 
L 60.844372 109.08 
L 60.941104 114.624 
L 61.1149 120.168 
L 61.380965 125.712 
L 61.759397 131.256 
L 62.277382 136.8 
L 62.972692 142.344 
L 63.899438 147.888 
L 65.137983 153.432 
L 65.76 155.478692 
L 67.329118 158.976 
L 70.726936 164.52 
L 71.712 165.645947 
L 77.664 170.059345 
L 77.675159 170.064 
L 83.616 171.703697 
L 89.568 172.317127 
L 95.52 172.061625 
L 101.472 171.058552 
L 105.087647 170.064 
L 107.424 168.950908 
L 113.376 165.082174 
L 114.082538 164.52 
L 117.795817 158.976 
L 119.328 153.736149 
L 119.405425 153.432 
L 119.75804 147.888 
L 119.421975 142.344 
L 119.328 141.682597 
L 118.614817 136.8 
L 117.529628 131.256 
L 116.2866 125.712 
L 114.958092 120.168 
L 113.590905 114.624 
L 113.376 113.78078 
L 112.116692 109.08 
L 110.645231 103.536 
L 109.207985 97.992 
L 107.81231 92.448 
L 107.424 90.884487 
L 106.353297 86.904 
L 104.911531 81.36 
L 103.531321 75.816 
L 102.210624 70.272 
L 101.472 67.064916 
L 100.863638 64.728 
L 99.470236 59.184 
L 98.146017 53.64 
L 96.886097 48.096 
L 95.685952 42.552 
L 95.52 41.763309 
L 94.315161 37.008 
L 92.98209 31.464 
L 91.719526 25.92 
L 94.056717 25.92 
L 95.377763 31.464 
L 95.52 32.042115 
L 96.538522 37.008 
L 97.727946 42.552 
L 98.976363 48.096 
L 100.288344 53.64 
L 101.472 58.410818 
L 101.642578 59.184 
L 102.897218 64.728 
L 104.209791 70.272 
L 105.583462 75.816 
L 107.021244 81.36 
L 107.424 82.876173 
L 108.413677 86.904 
L 109.818178 92.448 
L 111.273257 97.992 
L 112.775563 103.536 
L 113.376 105.737057 
L 114.244626 109.08 
L 115.685673 114.624 
L 117.125179 120.168 
L 118.533746 125.712 
L 119.328 129.069302 
L 119.831911 131.256 
L 120.936276 136.8 
L 121.7913 142.344 
L 122.234182 147.888 
L 122.002095 153.432 
L 120.657315 158.976 
L 119.328 161.341798 
L 117.255232 164.52 
L 113.376 167.606601 
L 109.533545 170.064 
L 107.424 170.825112 
L 101.472 172.438927 
L 95.52 173.401679 
L 89.568 173.620649 
L 83.616 172.974914 
L 77.664 171.304683 
L 75.152584 170.064 
L 71.712 167.512737 
L 69.093726 164.52 
L 65.76 159.127407 
L 65.692728 158.976 
L 64.010487 153.432 
L 62.760551 147.888 
L 61.821733 142.344 
L 61.113786 136.8 
L 60.582694 131.256 
L 60.190762 125.712 
L 59.910862 120.168 
L 59.808 117.117256 
z
" clip-path="url(#p7d02f04e4a)" style="fill: #29798e"/>
    <path d="M 59.341079 131.256 
L 58.94737 125.712 
L 58.703375 120.168 
L 58.555326 114.624 
L 58.474176 109.08 
L 58.443128 103.536 
L 58.452073 97.992 
L 58.494866 92.448 
L 58.567893 86.904 
L 58.669287 81.36 
L 58.798496 75.816 
L 58.956056 70.272 
L 59.143498 64.728 
L 59.363365 59.184 
L 59.619308 53.64 
L 59.808 50.053494 
L 59.908372 48.096 
L 60.209644 42.552 
L 60.528524 37.008 
L 60.863735 31.464 
L 61.21414 25.92 
L 62.67648 25.92 
L 62.310336 31.464 
L 61.959414 37.008 
L 61.624856 42.552 
L 61.307943 48.096 
L 61.010123 53.64 
L 60.733034 59.184 
L 60.478551 64.728 
L 60.248826 70.272 
L 60.046352 75.816 
L 59.874041 81.36 
L 59.808 83.983243 
L 59.741945 86.904 
L 59.650722 92.448 
L 59.597266 97.992 
L 59.586092 103.536 
L 59.624877 109.08 
L 59.726247 114.624 
L 59.808 117.117256 
L 59.910862 120.168 
L 60.190762 125.712 
L 60.582694 131.256 
L 61.113786 136.8 
L 61.821733 142.344 
L 62.760551 147.888 
L 64.010487 153.432 
L 65.692728 158.976 
L 65.76 159.127407 
L 69.093726 164.52 
L 71.712 167.512737 
L 75.152584 170.064 
L 77.664 171.304683 
L 83.616 172.974914 
L 89.568 173.620649 
L 95.52 173.401679 
L 101.472 172.438927 
L 107.424 170.825112 
L 109.533545 170.064 
L 113.376 167.606601 
L 117.255232 164.52 
L 119.328 161.341798 
L 120.657315 158.976 
L 122.002095 153.432 
L 122.234182 147.888 
L 121.7913 142.344 
L 120.936276 136.8 
L 119.831911 131.256 
L 119.328 129.069302 
L 118.533746 125.712 
L 117.125179 120.168 
L 115.685673 114.624 
L 114.244626 109.08 
L 113.376 105.737057 
L 112.775563 103.536 
L 111.273257 97.992 
L 109.818178 92.448 
L 108.413677 86.904 
L 107.424 82.876173 
L 107.021244 81.36 
L 105.583462 75.816 
L 104.209791 70.272 
L 102.897218 64.728 
L 101.642578 59.184 
L 101.472 58.410818 
L 100.288344 53.64 
L 98.976363 48.096 
L 97.727946 42.552 
L 96.538522 37.008 
L 95.52 32.042115 
L 95.377763 31.464 
L 94.056717 25.92 
L 95.52 25.92 
L 96.2365 25.92 
L 97.359198 31.464 
L 98.535637 37.008 
L 99.76994 42.552 
L 101.06663 48.096 
L 101.472 49.772212 
L 102.305665 53.64 
L 103.547579 59.184 
L 104.847487 64.728 
L 106.208958 70.272 
L 107.424 75.011849 
L 107.615295 75.816 
L 108.962388 81.36 
L 110.365107 86.904 
L 111.824046 92.448 
L 113.338529 97.992 
L 113.376 98.128613 
L 114.790307 103.536 
L 116.27378 109.08 
L 117.780441 114.624 
L 119.292266 120.168 
L 119.328 120.305876 
L 120.693644 125.712 
L 122.020821 131.256 
L 123.210424 136.8 
L 124.160625 142.344 
L 124.710324 147.888 
L 124.598765 153.432 
L 123.390752 158.976 
L 120.329757 164.52 
L 119.328 165.446631 
L 113.466098 170.064 
L 113.376 170.103062 
L 107.424 172.249262 
L 101.472 173.819302 
L 95.52 174.741733 
L 89.568 174.924172 
L 83.616 174.246131 
L 77.664 172.54838 
L 72.635068 170.064 
L 71.712 169.379526 
L 67.460516 164.52 
L 65.76 161.769266 
L 64.518919 158.976 
L 62.882992 153.432 
L 61.621664 147.888 
L 60.670773 142.344 
L 59.95019 136.8 
L 59.808 135.339425 
z
" clip-path="url(#p7d02f04e4a)" style="fill: #306a8e"/>
    <path d="M 59.351375 142.344 
L 58.465297 136.8 
L 57.974374 131.256 
L 57.678764 125.712 
L 57.495565 120.168 
L 57.384405 114.624 
L 57.323475 109.08 
L 57.300163 103.536 
L 57.306879 97.992 
L 57.33901 92.448 
L 57.393841 86.904 
L 57.469971 81.36 
L 57.566985 75.816 
L 57.685286 70.272 
L 57.826024 64.728 
L 57.991107 59.184 
L 58.183277 53.64 
L 58.406264 48.096 
L 58.665023 42.552 
L 58.96611 37.008 
L 59.318223 31.464 
L 59.733046 25.92 
L 59.808 25.92 
L 61.21414 25.92 
L 60.863735 31.464 
L 60.528524 37.008 
L 60.209644 42.552 
L 59.908372 48.096 
L 59.808 50.053494 
L 59.619308 53.64 
L 59.363365 59.184 
L 59.143498 64.728 
L 58.956056 70.272 
L 58.798496 75.816 
L 58.669287 81.36 
L 58.567893 86.904 
L 58.494866 92.448 
L 58.452073 97.992 
L 58.443128 103.536 
L 58.474176 109.08 
L 58.555326 114.624 
L 58.703375 120.168 
L 58.94737 125.712 
L 59.341079 131.256 
L 59.808 135.339425 
L 59.95019 136.8 
L 60.670773 142.344 
L 61.621664 147.888 
L 62.882992 153.432 
L 64.518919 158.976 
L 65.76 161.769266 
L 67.460516 164.52 
L 71.712 169.379526 
L 72.635068 170.064 
L 77.664 172.54838 
L 83.616 174.246131 
L 89.568 174.924172 
L 95.52 174.741733 
L 101.472 173.819302 
L 107.424 172.249262 
L 113.376 170.103062 
L 113.466098 170.064 
L 119.328 165.446631 
L 120.329757 164.52 
L 123.390752 158.976 
L 124.598765 153.432 
L 124.710324 147.888 
L 124.160625 142.344 
L 123.210424 136.8 
L 122.020821 131.256 
L 120.693644 125.712 
L 119.328 120.305876 
L 119.292266 120.168 
L 117.780441 114.624 
L 116.27378 109.08 
L 114.790307 103.536 
L 113.376 98.128613 
L 113.338529 97.992 
L 111.824046 92.448 
L 110.365107 86.904 
L 108.962388 81.36 
L 107.615295 75.816 
L 107.424 75.011849 
L 106.208958 70.272 
L 104.847487 64.728 
L 103.547579 59.184 
L 102.305665 53.64 
L 101.472 49.772212 
L 101.06663 48.096 
L 99.76994 42.552 
L 98.535637 37.008 
L 97.359198 31.464 
L 96.2365 25.92 
L 98.152715 25.92 
L 99.314487 31.464 
L 100.532753 37.008 
L 101.472 41.102635 
L 101.783601 42.552 
L 102.942161 48.096 
L 104.168644 53.64 
L 105.45258 59.184 
L 106.797756 64.728 
L 107.424 67.223629 
L 108.134898 70.272 
L 109.470488 75.816 
L 110.863759 81.36 
L 112.316536 86.904 
L 113.376 90.817015 
L 113.797939 92.448 
L 115.255982 97.992 
L 116.759688 103.536 
L 118.302933 109.08 
L 119.328 112.734324 
L 119.845205 114.624 
L 121.337175 120.168 
L 122.805846 125.712 
L 124.20973 131.256 
L 125.28 135.938525 
L 125.475464 136.8 
L 126.470906 142.344 
L 127.090705 147.888 
L 127.092875 153.432 
L 126.075877 158.976 
L 125.28 160.651333 
L 123.219286 164.52 
L 119.328 168.119461 
L 116.859344 170.064 
L 113.376 171.574191 
L 107.424 173.673413 
L 101.472 175.199677 
L 98.760676 175.608 
L 95.52 176.190173 
L 89.568 176.363459 
L 84.392358 175.608 
L 83.616 175.517348 
L 77.664 173.792076 
L 71.712 171.026856 
L 70.678285 170.064 
L 65.827307 164.52 
L 65.76 164.411126 
L 63.345109 158.976 
L 61.755496 153.432 
L 60.482777 147.888 
L 59.808 143.99092 
z
" clip-path="url(#p7d02f04e4a)" style="fill: #375a8c"/>
    <path d="M 58.806085 147.888 
L 57.527704 142.344 
L 56.935677 136.8 
L 56.607669 131.256 
L 56.410159 125.712 
L 56.287755 120.168 
L 56.213484 114.624 
L 56.172774 109.08 
L 56.157199 103.536 
L 56.161686 97.992 
L 56.183154 92.448 
L 56.219789 86.904 
L 56.270655 81.36 
L 56.335474 75.816 
L 56.414516 70.272 
L 56.50855 64.728 
L 56.618849 59.184 
L 56.747246 53.64 
L 56.896234 48.096 
L 57.069122 42.552 
L 57.270291 37.008 
L 57.505554 31.464 
L 57.782716 25.92 
L 59.733046 25.92 
L 59.318223 31.464 
L 58.96611 37.008 
L 58.665023 42.552 
L 58.406264 48.096 
L 58.183277 53.64 
L 57.991107 59.184 
L 57.826024 64.728 
L 57.685286 70.272 
L 57.566985 75.816 
L 57.469971 81.36 
L 57.393841 86.904 
L 57.33901 92.448 
L 57.306879 97.992 
L 57.300163 103.536 
L 57.323475 109.08 
L 57.384405 114.624 
L 57.495565 120.168 
L 57.678764 125.712 
L 57.974374 131.256 
L 58.465297 136.8 
L 59.351375 142.344 
L 59.808 143.99092 
L 60.482777 147.888 
L 61.755496 153.432 
L 63.345109 158.976 
L 65.76 164.411126 
L 65.827307 164.52 
L 70.678285 170.064 
L 71.712 171.026856 
L 77.664 173.792076 
L 83.616 175.517348 
L 84.392358 175.608 
L 89.568 176.363459 
L 95.52 176.190173 
L 98.760676 175.608 
L 101.472 175.199677 
L 107.424 173.673413 
L 113.376 171.574191 
L 116.859344 170.064 
L 119.328 168.119461 
L 123.219286 164.52 
L 125.28 160.651333 
L 126.075877 158.976 
L 127.092875 153.432 
L 127.090705 147.888 
L 126.470906 142.344 
L 125.475464 136.8 
L 125.28 135.938525 
L 124.20973 131.256 
L 122.805846 125.712 
L 121.337175 120.168 
L 119.845205 114.624 
L 119.328 112.734324 
L 118.302933 109.08 
L 116.759688 103.536 
L 115.255982 97.992 
L 113.797939 92.448 
L 113.376 90.817015 
L 112.316536 86.904 
L 110.863759 81.36 
L 109.470488 75.816 
L 108.134898 70.272 
L 107.424 67.223629 
L 106.797756 64.728 
L 105.45258 59.184 
L 104.168644 53.64 
L 102.942161 48.096 
L 101.783601 42.552 
L 101.472 41.102635 
L 100.532753 37.008 
L 99.314487 31.464 
L 98.152715 25.92 
L 100.06893 25.92 
L 101.269775 31.464 
L 101.472 32.369647 
L 102.711753 37.008 
L 103.655398 42.552 
L 104.766029 48.096 
L 106.031622 53.64 
L 107.357581 59.184 
L 107.424 59.454812 
L 108.92489 64.728 
L 109.947367 70.272 
L 111.325681 75.816 
L 112.765129 81.36 
L 113.376 83.648358 
L 114.477244 86.904 
L 115.662504 92.448 
L 117.170704 97.992 
L 118.729068 103.536 
L 119.328 105.646329 
L 120.502246 109.08 
L 121.825117 114.624 
L 123.380035 120.168 
L 124.918047 125.712 
L 125.28 127.104173 
L 126.48494 131.256 
L 127.648353 136.8 
L 128.728312 142.344 
L 129.442472 147.888 
L 129.550509 153.432 
L 128.652884 158.976 
L 126.057979 164.52 
L 125.28 165.333849 
L 120.164159 170.064 
L 119.328 170.724863 
L 113.376 173.04532 
L 107.424 175.097564 
L 105.416408 175.608 
L 101.472 177.044605 
L 95.52 177.836782 
L 89.568 177.952563 
L 83.616 177.358023 
L 79.635878 175.608 
L 77.664 175.035773 
L 71.712 172.547134 
L 69.046125 170.064 
L 65.76 166.308445 
L 63.839937 164.52 
L 62.1713 158.976 
L 60.628 153.432 
L 59.808 149.878896 
z
" clip-path="url(#p7d02f04e4a)" style="fill: #3f4889"/>
    <path d="M 58.545831 153.432 
L 56.347465 147.888 
L 55.704034 142.344 
L 55.406056 136.8 
L 55.240964 131.256 
L 55.141553 125.712 
L 55.079946 120.168 
L 55.042564 114.624 
L 55.022074 109.08 
L 55.014234 103.536 
L 55.016493 97.992 
L 55.027298 92.448 
L 55.045737 86.904 
L 55.071339 81.36 
L 55.103963 75.816 
L 55.143747 70.272 
L 55.191075 64.728 
L 55.246591 59.184 
L 55.311216 53.64 
L 55.386203 48.096 
L 55.473221 42.552 
L 55.574473 37.008 
L 55.692885 31.464 
L 55.832386 25.92 
L 57.782716 25.92 
L 57.505554 31.464 
L 57.270291 37.008 
L 57.069122 42.552 
L 56.896234 48.096 
L 56.747246 53.64 
L 56.618849 59.184 
L 56.50855 64.728 
L 56.414516 70.272 
L 56.335474 75.816 
L 56.270655 81.36 
L 56.219789 86.904 
L 56.183154 92.448 
L 56.161686 97.992 
L 56.157199 103.536 
L 56.172774 109.08 
L 56.213484 114.624 
L 56.287755 120.168 
L 56.410159 125.712 
L 56.607669 131.256 
L 56.935677 136.8 
L 57.527704 142.344 
L 58.806085 147.888 
L 59.808 149.878896 
L 60.628 153.432 
L 62.1713 158.976 
L 63.839937 164.52 
L 65.76 166.308445 
L 69.046125 170.064 
L 71.712 172.547134 
L 77.664 175.035773 
L 79.635878 175.608 
L 83.616 177.358023 
L 89.568 177.952563 
L 95.52 177.836782 
L 101.472 177.044605 
L 105.416408 175.608 
L 107.424 175.097564 
L 113.376 173.04532 
L 119.328 170.724863 
L 120.164159 170.064 
L 125.28 165.333849 
L 126.057979 164.52 
L 128.652884 158.976 
L 129.550509 153.432 
L 129.442472 147.888 
L 128.728312 142.344 
L 127.648353 136.8 
L 126.48494 131.256 
L 125.28 127.104173 
L 124.918047 125.712 
L 123.380035 120.168 
L 121.825117 114.624 
L 120.502246 109.08 
L 119.328 105.646329 
L 118.729068 103.536 
L 117.170704 97.992 
L 115.662504 92.448 
L 114.477244 86.904 
L 113.376 83.648358 
L 112.765129 81.36 
L 111.325681 75.816 
L 109.947367 70.272 
L 108.92489 64.728 
L 107.424 59.454812 
L 107.357581 59.184 
L 106.031622 53.64 
L 104.766029 48.096 
L 103.655398 42.552 
L 102.711753 37.008 
L 101.472 32.369647 
L 101.269775 31.464 
L 100.06893 25.92 
L 101.472 25.92 
L 102.71611 25.92 
L 104.266031 31.464 
L 105.052242 37.008 
L 105.527196 42.552 
L 106.589897 48.096 
L 107.424 51.667349 
L 108.611641 53.64 
L 110.327461 59.184 
L 111.135677 64.728 
L 111.759836 70.272 
L 113.180873 75.816 
L 113.376 76.559859 
L 115.763443 81.36 
L 116.886528 86.904 
L 117.527069 92.448 
L 119.085427 97.992 
L 119.328 98.845866 
L 121.751224 103.536 
L 122.875271 109.08 
L 123.805028 114.624 
L 125.28 119.692131 
L 125.664316 120.168 
L 127.957556 125.712 
L 128.842721 131.256 
L 129.821243 136.8 
L 130.985717 142.344 
L 131.232 144.081221 
L 132.368151 147.888 
L 132.646188 153.432 
L 131.232 158.96167 
L 131.229891 158.976 
L 128.770277 164.52 
L 125.28 168.171201 
L 123.232865 170.064 
L 119.328 173.150231 
L 113.376 174.51645 
L 110.184052 175.608 
L 107.424 177.757285 
L 101.472 179.084675 
L 95.52 179.483392 
L 89.568 179.541667 
L 83.616 179.242424 
L 77.664 177.535044 
L 75.595139 175.608 
L 71.712 174.067412 
L 67.413965 170.064 
L 65.76 168.173763 
L 61.837346 164.52 
L 60.997491 158.976 
L 59.808 154.607649 
z
" clip-path="url(#p7d02f04e4a)" style="fill: #453581"/>
    <path d="M 53.917828 153.432 
L 53.888846 147.888 
L 53.880363 142.344 
L 53.876435 136.8 
L 53.874259 131.256 
L 53.872948 125.712 
L 53.872136 120.168 
L 53.871643 114.624 
L 53.871373 109.08 
L 53.871269 103.536 
L 53.871299 97.992 
L 53.871442 92.448 
L 53.871685 86.904 
L 53.872022 81.36 
L 53.872452 75.816 
L 53.872977 70.272 
L 53.873601 64.728 
L 53.874333 59.184 
L 53.875185 53.64 
L 53.876173 48.096 
L 53.87732 42.552 
L 53.878655 37.008 
L 53.880216 31.464 
L 53.882056 25.92 
L 55.832386 25.92 
L 55.692885 31.464 
L 55.574473 37.008 
L 55.473221 42.552 
L 55.386203 48.096 
L 55.311216 53.64 
L 55.246591 59.184 
L 55.191075 64.728 
L 55.143747 70.272 
L 55.103963 75.816 
L 55.071339 81.36 
L 55.045737 86.904 
L 55.027298 92.448 
L 55.016493 97.992 
L 55.014234 103.536 
L 55.022074 109.08 
L 55.042564 114.624 
L 55.079946 120.168 
L 55.141553 125.712 
L 55.240964 131.256 
L 55.406056 136.8 
L 55.704034 142.344 
L 56.347465 147.888 
L 58.545831 153.432 
L 59.808 154.607649 
L 60.997491 158.976 
L 61.837346 164.52 
L 65.76 168.173763 
L 67.413965 170.064 
L 71.712 174.067412 
L 75.595139 175.608 
L 77.664 177.535044 
L 83.616 179.242424 
L 89.568 179.541667 
L 95.52 179.483392 
L 101.472 179.084675 
L 107.424 177.757285 
L 110.184052 175.608 
L 113.376 174.51645 
L 119.328 173.150231 
L 123.232865 170.064 
L 125.28 168.171201 
L 128.770277 164.52 
L 131.229891 158.976 
L 131.232 158.96167 
L 132.646188 153.432 
L 132.368151 147.888 
L 131.232 144.081221 
L 130.985717 142.344 
L 129.821243 136.8 
L 128.842721 131.256 
L 127.957556 125.712 
L 125.664316 120.168 
L 125.28 119.692131 
L 123.805028 114.624 
L 122.875271 109.08 
L 121.751224 103.536 
L 119.328 98.845866 
L 119.085427 97.992 
L 117.527069 92.448 
L 116.886528 86.904 
L 115.763443 81.36 
L 113.376 76.559859 
L 113.180873 75.816 
L 111.759836 70.272 
L 111.135677 64.728 
L 110.327461 59.184 
L 108.611641 53.64 
L 107.424 51.667349 
L 106.589897 48.096 
L 105.527196 42.552 
L 105.052242 37.008 
L 104.266031 31.464 
L 102.71611 25.92 
L 107.361934 25.92 
L 107.382367 31.464 
L 107.392732 37.008 
L 107.398994 42.552 
L 107.424 42.685203 
L 113.232994 48.096 
L 113.313189 53.64 
L 113.33581 59.184 
L 113.346465 64.728 
L 113.376 65.336751 
L 118.674449 70.272 
L 119.240445 75.816 
L 119.281007 81.36 
L 119.295813 86.904 
L 119.328 88.463668 
L 123.605551 92.448 
L 125.190321 97.992 
L 125.233479 103.536 
L 125.248297 109.08 
L 125.28 109.355961 
L 130.935731 114.624 
L 131.158599 120.168 
L 131.188832 125.712 
L 131.200501 131.256 
L 131.232 131.459417 
L 136.965613 136.8 
L 137.096065 142.344 
L 137.120511 147.888 
L 137.124176 153.432 
L 137.105469 158.976 
L 136.432036 164.52 
L 131.232 169.363582 
L 131.002357 170.064 
L 125.28 175.394099 
L 119.328 175.575598 
L 119.034992 175.608 
L 113.376 180.879077 
L 107.424 181.107246 
L 101.472 181.124746 
L 95.52 181.130002 
L 89.568 181.13077 
L 83.616 181.126825 
L 77.664 181.104316 
L 71.763193 175.608 
L 71.712 175.58769 
L 65.781805 170.064 
L 65.76 170.03908 
L 59.834754 164.52 
L 59.823682 158.976 
L 59.808 158.91841 
z
" clip-path="url(#p7d02f04e4a)" style="fill: #482173"/>
    <path d="M 36 186.696 
L 36 181.152 
L 36 175.608 
L 36 170.064 
L 36 164.52 
L 36 158.976 
L 36 153.432 
L 36 147.888 
L 36 142.344 
L 36 136.8 
L 36 131.256 
L 36 125.712 
L 36 120.168 
L 36 114.624 
L 36 109.08 
L 36 103.536 
L 36 97.992 
L 36 92.448 
L 36 86.904 
L 36 81.36 
L 36 75.816 
L 36 70.272 
L 36 64.728 
L 36 59.184 
L 36 53.64 
L 36 48.096 
L 36 42.552 
L 36 37.008 
L 36 31.464 
L 36 25.92 
L 41.952 25.92 
L 47.904 25.92 
L 53.856 25.92 
L 53.882056 25.92 
L 53.880216 31.464 
L 53.878655 37.008 
L 53.87732 42.552 
L 53.876173 48.096 
L 53.875185 53.64 
L 53.874333 59.184 
L 53.873601 64.728 
L 53.872977 70.272 
L 53.872452 75.816 
L 53.872022 81.36 
L 53.871685 86.904 
L 53.871442 92.448 
L 53.871299 97.992 
L 53.871269 103.536 
L 53.871373 109.08 
L 53.871643 114.624 
L 53.872136 120.168 
L 53.872948 125.712 
L 53.874259 131.256 
L 53.876435 136.8 
L 53.880363 142.344 
L 53.888846 147.888 
L 53.917828 153.432 
L 59.808 158.91841 
L 59.823682 158.976 
L 59.834754 164.52 
L 65.76 170.03908 
L 65.781805 170.064 
L 71.712 175.58769 
L 71.763193 175.608 
L 77.664 181.104316 
L 83.616 181.126825 
L 89.568 181.13077 
L 95.52 181.130002 
L 101.472 181.124746 
L 107.424 181.107246 
L 113.376 180.879077 
L 119.034992 175.608 
L 119.328 175.575598 
L 125.28 175.394099 
L 131.002357 170.064 
L 131.232 169.363582 
L 136.432036 164.52 
L 137.105469 158.976 
L 137.124176 153.432 
L 137.120511 147.888 
L 137.096065 142.344 
L 136.965613 136.8 
L 131.232 131.459417 
L 131.200501 131.256 
L 131.188832 125.712 
L 131.158599 120.168 
L 130.935731 114.624 
L 125.28 109.355961 
L 125.248297 109.08 
L 125.233479 103.536 
L 125.190321 97.992 
L 123.605551 92.448 
L 119.328 88.463668 
L 119.295813 86.904 
L 119.281007 81.36 
L 119.240445 75.816 
L 118.674449 70.272 
L 113.376 65.336751 
L 113.346465 64.728 
L 113.33581 59.184 
L 113.313189 53.64 
L 113.232994 48.096 
L 107.424 42.685203 
L 107.398994 42.552 
L 107.392732 37.008 
L 107.382367 31.464 
L 107.361934 25.92 
L 107.424 25.92 
L 113.376 25.92 
L 119.328 25.92 
L 125.28 25.92 
L 131.232 25.92 
L 137.184 25.92 
L 143.136 25.92 
L 149.088 25.92 
L 155.04 25.92 
L 160.992 25.92 
L 166.944 25.92 
L 172.896 25.92 
L 178.848 25.92 
L 184.8 25.92 
L 190.752 25.92 
L 196.704 25.92 
L 202.656 25.92 
L 208.608 25.92 
L 214.56 25.92 
L 214.56 31.464 
L 214.56 37.008 
L 214.56 42.552 
L 214.56 48.096 
L 214.56 53.64 
L 214.56 59.184 
L 214.56 64.728 
L 214.56 70.272 
L 214.56 75.816 
L 214.56 81.36 
L 214.56 86.904 
L 214.56 92.448 
L 214.56 97.992 
L 214.56 103.536 
L 214.56 109.08 
L 214.56 114.624 
L 214.56 120.168 
L 214.56 125.712 
L 214.56 131.256 
L 214.56 136.8 
L 214.56 142.344 
L 214.56 147.888 
L 214.56 153.432 
L 214.56 158.976 
L 214.56 164.52 
L 214.56 170.064 
L 214.56 175.608 
L 214.56 181.152 
L 214.56 186.696 
L 214.56 192.24 
L 208.608 192.24 
L 202.656 192.24 
L 196.704 192.24 
L 190.752 192.24 
L 184.8 192.24 
L 178.848 192.24 
L 172.896 192.24 
L 166.944 192.24 
L 160.992 192.24 
L 155.04 192.24 
L 149.088 192.24 
L 143.136 192.24 
L 137.184 192.24 
L 131.232 192.24 
L 125.28 192.24 
L 119.328 192.24 
L 113.376 192.24 
L 107.424 192.24 
L 101.472 192.24 
L 95.52 192.24 
L 89.568 192.24 
L 83.616 192.24 
L 77.664 192.24 
L 71.712 192.24 
L 65.76 192.24 
L 59.808 192.24 
L 53.856 192.24 
L 47.904 192.24 
L 41.952 192.24 
L 36 192.24 
z
" clip-path="url(#p7d02f04e4a)" style="fill: #460b5e"/>
   </g>
   <g id="PathCollection_1">
    <defs>
     <path id="m8b752a2aed" d="M -4.743416 4.743416 
L 4.743416 -4.743416 
M -4.743416 -4.743416 
L 4.743416 4.743416 
" style="stroke: #ffffff; stroke-width: 5"/>
    </defs>
    <g clip-path="url(#p7d02f04e4a)">
     <use xlink:href="#m8b752a2aed" x="85.6" y="127.56" style="fill: #ffffff; stroke: #ffffff; stroke-width: 5"/>
    </g>
   </g>
   <g id="PathCollection_2">
    <defs>
     <path id="mbcecd25a4e" d="M -4.330127 4.330127 
L 4.330127 -4.330127 
M -4.330127 -4.330127 
L 4.330127 4.330127 
" style="stroke: #000000; stroke-width: 2"/>
    </defs>
    <g clip-path="url(#p7d02f04e4a)">
     <use xlink:href="#mbcecd25a4e" x="85.6" y="127.56" style="stroke: #000000; stroke-width: 2"/>
    </g>
   </g>
   <g id="matplotlib.axis_1">
    <g id="xtick_1">
     <g id="line2d_1">
      <defs>
       <path id="m352ed2820a" d="M 0 0 
L 0 6 
" style="stroke: #000000; stroke-width: 2"/>
      </defs>
      <g>
       <use xlink:href="#m352ed2820a" x="65.76" y="192.24" style="stroke: #000000; stroke-width: 2"/>
      </g>
     </g>
     <g id="text_1">
      <!-- $\mathdefault{200}$ -->
      <g transform="translate(52.39 212.377813) scale(0.14 -0.14)">
       <defs>
        <path id="DejaVuSans-32" d="M 1228 531 
L 3431 531 
L 3431 0 
L 469 0 
L 469 531 
Q 828 903 1448 1529 
Q 2069 2156 2228 2338 
Q 2531 2678 2651 2914 
Q 2772 3150 2772 3378 
Q 2772 3750 2511 3984 
Q 2250 4219 1831 4219 
Q 1534 4219 1204 4116 
Q 875 4013 500 3803 
L 500 4441 
Q 881 4594 1212 4672 
Q 1544 4750 1819 4750 
Q 2544 4750 2975 4387 
Q 3406 4025 3406 3419 
Q 3406 3131 3298 2873 
Q 3191 2616 2906 2266 
Q 2828 2175 2409 1742 
Q 1991 1309 1228 531 
z
" transform="scale(0.015625)"/>
        <path id="DejaVuSans-30" d="M 2034 4250 
Q 1547 4250 1301 3770 
Q 1056 3291 1056 2328 
Q 1056 1369 1301 889 
Q 1547 409 2034 409 
Q 2525 409 2770 889 
Q 3016 1369 3016 2328 
Q 3016 3291 2770 3770 
Q 2525 4250 2034 4250 
z
M 2034 4750 
Q 2819 4750 3233 4129 
Q 3647 3509 3647 2328 
Q 3647 1150 3233 529 
Q 2819 -91 2034 -91 
Q 1250 -91 836 529 
Q 422 1150 422 2328 
Q 422 3509 836 4129 
Q 1250 4750 2034 4750 
z
" transform="scale(0.015625)"/>
       </defs>
       <use xlink:href="#DejaVuSans-32" transform="translate(0 0.78125)"/>
       <use xlink:href="#DejaVuSans-30" transform="translate(63.623047 0.78125)"/>
       <use xlink:href="#DejaVuSans-30" transform="translate(127.246094 0.78125)"/>
      </g>
     </g>
    </g>
    <g id="xtick_2">
     <g id="line2d_2">
      <g>
       <use xlink:href="#m352ed2820a" x="105.44" y="192.24" style="stroke: #000000; stroke-width: 2"/>
      </g>
     </g>
     <g id="text_2">
      <!-- $\mathdefault{400}$ -->
      <g transform="translate(92.07 212.377813) scale(0.14 -0.14)">
       <defs>
        <path id="DejaVuSans-34" d="M 2419 4116 
L 825 1625 
L 2419 1625 
L 2419 4116 
z
M 2253 4666 
L 3047 4666 
L 3047 1625 
L 3713 1625 
L 3713 1100 
L 3047 1100 
L 3047 0 
L 2419 0 
L 2419 1100 
L 313 1100 
L 313 1709 
L 2253 4666 
z
" transform="scale(0.015625)"/>
       </defs>
       <use xlink:href="#DejaVuSans-34" transform="translate(0 0.78125)"/>
       <use xlink:href="#DejaVuSans-30" transform="translate(63.623047 0.78125)"/>
       <use xlink:href="#DejaVuSans-30" transform="translate(127.246094 0.78125)"/>
      </g>
     </g>
    </g>
    <g id="xtick_3">
     <g id="line2d_3">
      <g>
       <use xlink:href="#m352ed2820a" x="145.12" y="192.24" style="stroke: #000000; stroke-width: 2"/>
      </g>
     </g>
     <g id="text_3">
      <!-- $\mathdefault{600}$ -->
      <g transform="translate(131.75 212.377813) scale(0.14 -0.14)">
       <defs>
        <path id="DejaVuSans-36" d="M 2113 2584 
Q 1688 2584 1439 2293 
Q 1191 2003 1191 1497 
Q 1191 994 1439 701 
Q 1688 409 2113 409 
Q 2538 409 2786 701 
Q 3034 994 3034 1497 
Q 3034 2003 2786 2293 
Q 2538 2584 2113 2584 
z
M 3366 4563 
L 3366 3988 
Q 3128 4100 2886 4159 
Q 2644 4219 2406 4219 
Q 1781 4219 1451 3797 
Q 1122 3375 1075 2522 
Q 1259 2794 1537 2939 
Q 1816 3084 2150 3084 
Q 2853 3084 3261 2657 
Q 3669 2231 3669 1497 
Q 3669 778 3244 343 
Q 2819 -91 2113 -91 
Q 1303 -91 875 529 
Q 447 1150 447 2328 
Q 447 3434 972 4092 
Q 1497 4750 2381 4750 
Q 2619 4750 2861 4703 
Q 3103 4656 3366 4563 
z
" transform="scale(0.015625)"/>
       </defs>
       <use xlink:href="#DejaVuSans-36" transform="translate(0 0.78125)"/>
       <use xlink:href="#DejaVuSans-30" transform="translate(63.623047 0.78125)"/>
       <use xlink:href="#DejaVuSans-30" transform="translate(127.246094 0.78125)"/>
      </g>
     </g>
    </g>
    <g id="xtick_4">
     <g id="line2d_4">
      <g>
       <use xlink:href="#m352ed2820a" x="184.8" y="192.24" style="stroke: #000000; stroke-width: 2"/>
      </g>
     </g>
     <g id="text_4">
      <!-- $\mathdefault{800}$ -->
      <g transform="translate(171.43 212.377813) scale(0.14 -0.14)">
       <defs>
        <path id="DejaVuSans-38" d="M 2034 2216 
Q 1584 2216 1326 1975 
Q 1069 1734 1069 1313 
Q 1069 891 1326 650 
Q 1584 409 2034 409 
Q 2484 409 2743 651 
Q 3003 894 3003 1313 
Q 3003 1734 2745 1975 
Q 2488 2216 2034 2216 
z
M 1403 2484 
Q 997 2584 770 2862 
Q 544 3141 544 3541 
Q 544 4100 942 4425 
Q 1341 4750 2034 4750 
Q 2731 4750 3128 4425 
Q 3525 4100 3525 3541 
Q 3525 3141 3298 2862 
Q 3072 2584 2669 2484 
Q 3125 2378 3379 2068 
Q 3634 1759 3634 1313 
Q 3634 634 3220 271 
Q 2806 -91 2034 -91 
Q 1263 -91 848 271 
Q 434 634 434 1313 
Q 434 1759 690 2068 
Q 947 2378 1403 2484 
z
M 1172 3481 
Q 1172 3119 1398 2916 
Q 1625 2713 2034 2713 
Q 2441 2713 2670 2916 
Q 2900 3119 2900 3481 
Q 2900 3844 2670 4047 
Q 2441 4250 2034 4250 
Q 1625 4250 1398 4047 
Q 1172 3844 1172 3481 
z
" transform="scale(0.015625)"/>
       </defs>
       <use xlink:href="#DejaVuSans-38" transform="translate(0 0.78125)"/>
       <use xlink:href="#DejaVuSans-30" transform="translate(63.623047 0.78125)"/>
       <use xlink:href="#DejaVuSans-30" transform="translate(127.246094 0.78125)"/>
      </g>
     </g>
    </g>
    <g id="text_5">
     <!-- Diploid N$_e$1 -->
     <g transform="translate(74.34 232.969375) scale(0.18 -0.18)">
      <defs>
       <path id="DejaVuSans-44" d="M 1259 4147 
L 1259 519 
L 2022 519 
Q 2988 519 3436 956 
Q 3884 1394 3884 2338 
Q 3884 3275 3436 3711 
Q 2988 4147 2022 4147 
L 1259 4147 
z
M 628 4666 
L 1925 4666 
Q 3281 4666 3915 4102 
Q 4550 3538 4550 2338 
Q 4550 1131 3912 565 
Q 3275 0 1925 0 
L 628 0 
L 628 4666 
z
" transform="scale(0.015625)"/>
       <path id="DejaVuSans-69" d="M 603 3500 
L 1178 3500 
L 1178 0 
L 603 0 
L 603 3500 
z
M 603 4863 
L 1178 4863 
L 1178 4134 
L 603 4134 
L 603 4863 
z
" transform="scale(0.015625)"/>
       <path id="DejaVuSans-70" d="M 1159 525 
L 1159 -1331 
L 581 -1331 
L 581 3500 
L 1159 3500 
L 1159 2969 
Q 1341 3281 1617 3432 
Q 1894 3584 2278 3584 
Q 2916 3584 3314 3078 
Q 3713 2572 3713 1747 
Q 3713 922 3314 415 
Q 2916 -91 2278 -91 
Q 1894 -91 1617 61 
Q 1341 213 1159 525 
z
M 3116 1747 
Q 3116 2381 2855 2742 
Q 2594 3103 2138 3103 
Q 1681 3103 1420 2742 
Q 1159 2381 1159 1747 
Q 1159 1113 1420 752 
Q 1681 391 2138 391 
Q 2594 391 2855 752 
Q 3116 1113 3116 1747 
z
" transform="scale(0.015625)"/>
       <path id="DejaVuSans-6c" d="M 603 4863 
L 1178 4863 
L 1178 0 
L 603 0 
L 603 4863 
z
" transform="scale(0.015625)"/>
       <path id="DejaVuSans-6f" d="M 1959 3097 
Q 1497 3097 1228 2736 
Q 959 2375 959 1747 
Q 959 1119 1226 758 
Q 1494 397 1959 397 
Q 2419 397 2687 759 
Q 2956 1122 2956 1747 
Q 2956 2369 2687 2733 
Q 2419 3097 1959 3097 
z
M 1959 3584 
Q 2709 3584 3137 3096 
Q 3566 2609 3566 1747 
Q 3566 888 3137 398 
Q 2709 -91 1959 -91 
Q 1206 -91 779 398 
Q 353 888 353 1747 
Q 353 2609 779 3096 
Q 1206 3584 1959 3584 
z
" transform="scale(0.015625)"/>
       <path id="DejaVuSans-64" d="M 2906 2969 
L 2906 4863 
L 3481 4863 
L 3481 0 
L 2906 0 
L 2906 525 
Q 2725 213 2448 61 
Q 2172 -91 1784 -91 
Q 1150 -91 751 415 
Q 353 922 353 1747 
Q 353 2572 751 3078 
Q 1150 3584 1784 3584 
Q 2172 3584 2448 3432 
Q 2725 3281 2906 2969 
z
M 947 1747 
Q 947 1113 1208 752 
Q 1469 391 1925 391 
Q 2381 391 2643 752 
Q 2906 1113 2906 1747 
Q 2906 2381 2643 2742 
Q 2381 3103 1925 3103 
Q 1469 3103 1208 2742 
Q 947 2381 947 1747 
z
" transform="scale(0.015625)"/>
       <path id="DejaVuSans-20" transform="scale(0.015625)"/>
       <path id="DejaVuSans-4e" d="M 628 4666 
L 1478 4666 
L 3547 763 
L 3547 4666 
L 4159 4666 
L 4159 0 
L 3309 0 
L 1241 3903 
L 1241 0 
L 628 0 
L 628 4666 
z
" transform="scale(0.015625)"/>
       <path id="DejaVuSans-Oblique-65" d="M 3078 2063 
Q 3088 2113 3092 2166 
Q 3097 2219 3097 2272 
Q 3097 2653 2873 2875 
Q 2650 3097 2266 3097 
Q 1838 3097 1509 2826 
Q 1181 2556 1013 2059 
L 3078 2063 
z
M 3578 1613 
L 903 1613 
Q 884 1494 878 1425 
Q 872 1356 872 1306 
Q 872 872 1139 634 
Q 1406 397 1894 397 
Q 2269 397 2603 481 
Q 2938 566 3225 728 
L 3116 159 
Q 2806 34 2476 -28 
Q 2147 -91 1806 -91 
Q 1078 -91 686 257 
Q 294 606 294 1247 
Q 294 1794 489 2264 
Q 684 2734 1063 3103 
Q 1306 3334 1642 3459 
Q 1978 3584 2356 3584 
Q 2950 3584 3301 3228 
Q 3653 2872 3653 2272 
Q 3653 2128 3634 1964 
Q 3616 1800 3578 1613 
z
" transform="scale(0.015625)"/>
       <path id="DejaVuSans-31" d="M 794 531 
L 1825 531 
L 1825 4091 
L 703 3866 
L 703 4441 
L 1819 4666 
L 2450 4666 
L 2450 531 
L 3481 531 
L 3481 0 
L 794 0 
L 794 531 
z
" transform="scale(0.015625)"/>
      </defs>
      <use xlink:href="#DejaVuSans-44" transform="translate(0 0.015625)"/>
      <use xlink:href="#DejaVuSans-69" transform="translate(77.001953 0.015625)"/>
      <use xlink:href="#DejaVuSans-70" transform="translate(104.785156 0.015625)"/>
      <use xlink:href="#DejaVuSans-6c" transform="translate(168.261719 0.015625)"/>
      <use xlink:href="#DejaVuSans-6f" transform="translate(196.044922 0.015625)"/>
      <use xlink:href="#DejaVuSans-69" transform="translate(257.226562 0.015625)"/>
      <use xlink:href="#DejaVuSans-64" transform="translate(285.009766 0.015625)"/>
      <use xlink:href="#DejaVuSans-20" transform="translate(348.486328 0.015625)"/>
      <use xlink:href="#DejaVuSans-4e" transform="translate(380.273438 0.015625)"/>
      <use xlink:href="#DejaVuSans-Oblique-65" transform="translate(456.035156 -16.390625) scale(0.7)"/>
      <use xlink:href="#DejaVuSans-31" transform="translate(501.835938 0.015625)"/>
     </g>
    </g>
    <g id="text_6">
     <!-- $\times\mathdefault{10^{3}}\mathdefault{}$ -->
     <g transform="translate(188.56 225.887812) scale(0.1 -0.1)">
      <defs>
       <path id="DejaVuSans-d7" d="M 4488 3438 
L 3059 2003 
L 4488 575 
L 4116 197 
L 2681 1631 
L 1247 197 
L 878 575 
L 2303 2003 
L 878 3438 
L 1247 3816 
L 2681 2381 
L 4116 3816 
L 4488 3438 
z
" transform="scale(0.015625)"/>
       <path id="DejaVuSans-33" d="M 2597 2516 
Q 3050 2419 3304 2112 
Q 3559 1806 3559 1356 
Q 3559 666 3084 287 
Q 2609 -91 1734 -91 
Q 1441 -91 1130 -33 
Q 819 25 488 141 
L 488 750 
Q 750 597 1062 519 
Q 1375 441 1716 441 
Q 2309 441 2620 675 
Q 2931 909 2931 1356 
Q 2931 1769 2642 2001 
Q 2353 2234 1838 2234 
L 1294 2234 
L 1294 2753 
L 1863 2753 
Q 2328 2753 2575 2939 
Q 2822 3125 2822 3475 
Q 2822 3834 2567 4026 
Q 2313 4219 1838 4219 
Q 1578 4219 1281 4162 
Q 984 4106 628 3988 
L 628 4550 
Q 988 4650 1302 4700 
Q 1616 4750 1894 4750 
Q 2613 4750 3031 4423 
Q 3450 4097 3450 3541 
Q 3450 3153 3228 2886 
Q 3006 2619 2597 2516 
z
" transform="scale(0.015625)"/>
      </defs>
      <use xlink:href="#DejaVuSans-d7" transform="translate(0 0.765625)"/>
      <use xlink:href="#DejaVuSans-31" transform="translate(83.789062 0.765625)"/>
      <use xlink:href="#DejaVuSans-30" transform="translate(147.412109 0.765625)"/>
      <use xlink:href="#DejaVuSans-33" transform="translate(211.992188 39.046875) scale(0.7)"/>
     </g>
    </g>
   </g>
   <g id="matplotlib.axis_2">
    <g id="ytick_1">
     <g id="line2d_5">
      <defs>
       <path id="m38760bdacf" d="M 0 0 
L -6 0 
" style="stroke: #000000; stroke-width: 2"/>
      </defs>
      <g>
       <use xlink:href="#m38760bdacf" x="36" y="164.52" style="stroke: #000000; stroke-width: 2"/>
      </g>
     </g>
     <g id="text_7">
      <!-- $\mathdefault{200}$ -->
      <g transform="translate(-0.24 169.838906) scale(0.14 -0.14)">
       <use xlink:href="#DejaVuSans-32" transform="translate(0 0.78125)"/>
       <use xlink:href="#DejaVuSans-30" transform="translate(63.623047 0.78125)"/>
       <use xlink:href="#DejaVuSans-30" transform="translate(127.246094 0.78125)"/>
      </g>
     </g>
    </g>
    <g id="ytick_2">
     <g id="line2d_6">
      <g>
       <use xlink:href="#m38760bdacf" x="36" y="127.56" style="stroke: #000000; stroke-width: 2"/>
      </g>
     </g>
     <g id="text_8">
      <!-- $\mathdefault{400}$ -->
      <g transform="translate(-0.24 132.878906) scale(0.14 -0.14)">
       <use xlink:href="#DejaVuSans-34" transform="translate(0 0.78125)"/>
       <use xlink:href="#DejaVuSans-30" transform="translate(63.623047 0.78125)"/>
       <use xlink:href="#DejaVuSans-30" transform="translate(127.246094 0.78125)"/>
      </g>
     </g>
    </g>
    <g id="ytick_3">
     <g id="line2d_7">
      <g>
       <use xlink:href="#m38760bdacf" x="36" y="90.6" style="stroke: #000000; stroke-width: 2"/>
      </g>
     </g>
     <g id="text_9">
      <!-- $\mathdefault{600}$ -->
      <g transform="translate(-0.24 95.918906) scale(0.14 -0.14)">
       <use xlink:href="#DejaVuSans-36" transform="translate(0 0.78125)"/>
       <use xlink:href="#DejaVuSans-30" transform="translate(63.623047 0.78125)"/>
       <use xlink:href="#DejaVuSans-30" transform="translate(127.246094 0.78125)"/>
      </g>
     </g>
    </g>
    <g id="ytick_4">
     <g id="line2d_8">
      <g>
       <use xlink:href="#m38760bdacf" x="36" y="53.64" style="stroke: #000000; stroke-width: 2"/>
      </g>
     </g>
     <g id="text_10">
      <!-- $\mathdefault{800}$ -->
      <g transform="translate(-0.24 58.958906) scale(0.14 -0.14)">
       <use xlink:href="#DejaVuSans-38" transform="translate(0 0.78125)"/>
       <use xlink:href="#DejaVuSans-30" transform="translate(63.623047 0.78125)"/>
       <use xlink:href="#DejaVuSans-30" transform="translate(127.246094 0.78125)"/>
      </g>
     </g>
    </g>
    <g id="text_11">
     <!-- Diploid N$_e$2 -->
     <g transform="translate(-8.02 160.02) rotate(-90) scale(0.18 -0.18)">
      <use xlink:href="#DejaVuSans-44" transform="translate(0 0.015625)"/>
      <use xlink:href="#DejaVuSans-69" transform="translate(77.001953 0.015625)"/>
      <use xlink:href="#DejaVuSans-70" transform="translate(104.785156 0.015625)"/>
      <use xlink:href="#DejaVuSans-6c" transform="translate(168.261719 0.015625)"/>
      <use xlink:href="#DejaVuSans-6f" transform="translate(196.044922 0.015625)"/>
      <use xlink:href="#DejaVuSans-69" transform="translate(257.226562 0.015625)"/>
      <use xlink:href="#DejaVuSans-64" transform="translate(285.009766 0.015625)"/>
      <use xlink:href="#DejaVuSans-20" transform="translate(348.486328 0.015625)"/>
      <use xlink:href="#DejaVuSans-4e" transform="translate(380.273438 0.015625)"/>
      <use xlink:href="#DejaVuSans-Oblique-65" transform="translate(456.035156 -16.390625) scale(0.7)"/>
      <use xlink:href="#DejaVuSans-32" transform="translate(501.835938 0.015625)"/>
     </g>
    </g>
    <g id="text_12">
     <!-- $\times\mathdefault{10^{3}}\mathdefault{}$ -->
     <g transform="translate(36 22.92) scale(0.1 -0.1)">
      <use xlink:href="#DejaVuSans-d7" transform="translate(0 0.765625)"/>
      <use xlink:href="#DejaVuSans-31" transform="translate(83.789062 0.765625)"/>
      <use xlink:href="#DejaVuSans-30" transform="translate(147.412109 0.765625)"/>
      <use xlink:href="#DejaVuSans-33" transform="translate(211.992188 39.046875) scale(0.7)"/>
     </g>
    </g>
   </g>
   <g id="patch_3">
    <path d="M 36 192.24 
L 36 25.92 
" style="fill: none; stroke: #000000; stroke-width: 0.8; stroke-linejoin: miter; stroke-linecap: square"/>
   </g>
   <g id="patch_4">
    <path d="M 214.56 192.24 
L 214.56 25.92 
" style="fill: none; stroke: #000000; stroke-width: 0.8; stroke-linejoin: miter; stroke-linecap: square"/>
   </g>
   <g id="patch_5">
    <path d="M 36 192.24 
L 214.56 192.24 
" style="fill: none; stroke: #000000; stroke-width: 0.8; stroke-linejoin: miter; stroke-linecap: square"/>
   </g>
   <g id="patch_6">
    <path d="M 36 25.92 
L 214.56 25.92 
" style="fill: none; stroke: #000000; stroke-width: 0.8; stroke-linejoin: miter; stroke-linecap: square"/>
   </g>
   <g id="text_13">
    <!-- Ne1Ne2-MSC-G-SMC-T-P2-S4 -->
    <g transform="translate(10.835 10.92) scale(0.16 -0.16)">
     <defs>
      <path id="DejaVuSans-65" d="M 3597 1894 
L 3597 1613 
L 953 1613 
Q 991 1019 1311 708 
Q 1631 397 2203 397 
Q 2534 397 2845 478 
Q 3156 559 3463 722 
L 3463 178 
Q 3153 47 2828 -22 
Q 2503 -91 2169 -91 
Q 1331 -91 842 396 
Q 353 884 353 1716 
Q 353 2575 817 3079 
Q 1281 3584 2069 3584 
Q 2775 3584 3186 3129 
Q 3597 2675 3597 1894 
z
M 3022 2063 
Q 3016 2534 2758 2815 
Q 2500 3097 2075 3097 
Q 1594 3097 1305 2825 
Q 1016 2553 972 2059 
L 3022 2063 
z
" transform="scale(0.015625)"/>
      <path id="DejaVuSans-2d" d="M 313 2009 
L 1997 2009 
L 1997 1497 
L 313 1497 
L 313 2009 
z
" transform="scale(0.015625)"/>
      <path id="DejaVuSans-4d" d="M 628 4666 
L 1569 4666 
L 2759 1491 
L 3956 4666 
L 4897 4666 
L 4897 0 
L 4281 0 
L 4281 4097 
L 3078 897 
L 2444 897 
L 1241 4097 
L 1241 0 
L 628 0 
L 628 4666 
z
" transform="scale(0.015625)"/>
      <path id="DejaVuSans-53" d="M 3425 4513 
L 3425 3897 
Q 3066 4069 2747 4153 
Q 2428 4238 2131 4238 
Q 1616 4238 1336 4038 
Q 1056 3838 1056 3469 
Q 1056 3159 1242 3001 
Q 1428 2844 1947 2747 
L 2328 2669 
Q 3034 2534 3370 2195 
Q 3706 1856 3706 1288 
Q 3706 609 3251 259 
Q 2797 -91 1919 -91 
Q 1588 -91 1214 -16 
Q 841 59 441 206 
L 441 856 
Q 825 641 1194 531 
Q 1563 422 1919 422 
Q 2459 422 2753 634 
Q 3047 847 3047 1241 
Q 3047 1584 2836 1778 
Q 2625 1972 2144 2069 
L 1759 2144 
Q 1053 2284 737 2584 
Q 422 2884 422 3419 
Q 422 4038 858 4394 
Q 1294 4750 2059 4750 
Q 2388 4750 2728 4690 
Q 3069 4631 3425 4513 
z
" transform="scale(0.015625)"/>
      <path id="DejaVuSans-43" d="M 4122 4306 
L 4122 3641 
Q 3803 3938 3442 4084 
Q 3081 4231 2675 4231 
Q 1875 4231 1450 3742 
Q 1025 3253 1025 2328 
Q 1025 1406 1450 917 
Q 1875 428 2675 428 
Q 3081 428 3442 575 
Q 3803 722 4122 1019 
L 4122 359 
Q 3791 134 3420 21 
Q 3050 -91 2638 -91 
Q 1578 -91 968 557 
Q 359 1206 359 2328 
Q 359 3453 968 4101 
Q 1578 4750 2638 4750 
Q 3056 4750 3426 4639 
Q 3797 4528 4122 4306 
z
" transform="scale(0.015625)"/>
      <path id="DejaVuSans-47" d="M 3809 666 
L 3809 1919 
L 2778 1919 
L 2778 2438 
L 4434 2438 
L 4434 434 
Q 4069 175 3628 42 
Q 3188 -91 2688 -91 
Q 1594 -91 976 548 
Q 359 1188 359 2328 
Q 359 3472 976 4111 
Q 1594 4750 2688 4750 
Q 3144 4750 3555 4637 
Q 3966 4525 4313 4306 
L 4313 3634 
Q 3963 3931 3569 4081 
Q 3175 4231 2741 4231 
Q 1884 4231 1454 3753 
Q 1025 3275 1025 2328 
Q 1025 1384 1454 906 
Q 1884 428 2741 428 
Q 3075 428 3337 486 
Q 3600 544 3809 666 
z
" transform="scale(0.015625)"/>
      <path id="DejaVuSans-54" d="M -19 4666 
L 3928 4666 
L 3928 4134 
L 2272 4134 
L 2272 0 
L 1638 0 
L 1638 4134 
L -19 4134 
L -19 4666 
z
" transform="scale(0.015625)"/>
      <path id="DejaVuSans-50" d="M 1259 4147 
L 1259 2394 
L 2053 2394 
Q 2494 2394 2734 2622 
Q 2975 2850 2975 3272 
Q 2975 3691 2734 3919 
Q 2494 4147 2053 4147 
L 1259 4147 
z
M 628 4666 
L 2053 4666 
Q 2838 4666 3239 4311 
Q 3641 3956 3641 3272 
Q 3641 2581 3239 2228 
Q 2838 1875 2053 1875 
L 1259 1875 
L 1259 0 
L 628 0 
L 628 4666 
z
" transform="scale(0.015625)"/>
     </defs>
     <use xlink:href="#DejaVuSans-4e"/>
     <use xlink:href="#DejaVuSans-65" x="74.804688"/>
     <use xlink:href="#DejaVuSans-31" x="136.328125"/>
     <use xlink:href="#DejaVuSans-4e" x="199.951172"/>
     <use xlink:href="#DejaVuSans-65" x="274.755859"/>
     <use xlink:href="#DejaVuSans-32" x="336.279297"/>
     <use xlink:href="#DejaVuSans-2d" x="399.902344"/>
     <use xlink:href="#DejaVuSans-4d" x="435.986328"/>
     <use xlink:href="#DejaVuSans-53" x="522.265625"/>
     <use xlink:href="#DejaVuSans-43" x="585.742188"/>
     <use xlink:href="#DejaVuSans-2d" x="655.566406"/>
     <use xlink:href="#DejaVuSans-47" x="695.275391"/>
     <use xlink:href="#DejaVuSans-2d" x="772.765625"/>
     <use xlink:href="#DejaVuSans-53" x="808.849609"/>
     <use xlink:href="#DejaVuSans-4d" x="872.326172"/>
     <use xlink:href="#DejaVuSans-43" x="958.605469"/>
     <use xlink:href="#DejaVuSans-2d" x="1028.429688"/>
     <use xlink:href="#DejaVuSans-54" x="1055.388672"/>
     <use xlink:href="#DejaVuSans-2d" x="1107.347656"/>
     <use xlink:href="#DejaVuSans-50" x="1143.431641"/>
     <use xlink:href="#DejaVuSans-32" x="1203.734375"/>
     <use xlink:href="#DejaVuSans-2d" x="1267.357422"/>
     <use xlink:href="#DejaVuSans-53" x="1303.441406"/>
     <use xlink:href="#DejaVuSans-34" x="1366.917969"/>
    </g>
   </g>
  </g>
  <g id="axes_2">
   <g id="patch_7">
    <path d="M 225.72 192.24 
L 234.036 192.24 
L 234.036 25.92 
L 225.72 25.92 
z
" style="fill: #ffffff"/>
   </g>
   <g id="QuadMesh_1">
    <path d="M 225.72 192.24 
L 234.036 192.24 
L 234.036 181.845 
L 225.72 181.845 
L 225.72 192.24 
" clip-path="url(#p7de757c50f)" style="fill: #eae51a"/>
    <path d="M 225.72 181.845 
L 234.036 181.845 
L 234.036 171.45 
L 225.72 171.45 
L 225.72 181.845 
" clip-path="url(#p7de757c50f)" style="fill: #c0df25"/>
    <path d="M 225.72 171.45 
L 234.036 171.45 
L 234.036 161.055 
L 225.72 161.055 
L 225.72 171.45 
" clip-path="url(#p7de757c50f)" style="fill: #95d840"/>
    <path d="M 225.72 161.055 
L 234.036 161.055 
L 234.036 150.66 
L 225.72 150.66 
L 225.72 161.055 
" clip-path="url(#p7de757c50f)" style="fill: #6ece58"/>
    <path d="M 225.72 150.66 
L 234.036 150.66 
L 234.036 140.265 
L 225.72 140.265 
L 225.72 150.66 
" clip-path="url(#p7de757c50f)" style="fill: #4cc26c"/>
    <path d="M 225.72 140.265 
L 234.036 140.265 
L 234.036 129.87 
L 225.72 129.87 
L 225.72 140.265 
" clip-path="url(#p7de757c50f)" style="fill: #31b57b"/>
    <path d="M 225.72 129.87 
L 234.036 129.87 
L 234.036 119.475 
L 225.72 119.475 
L 225.72 129.87 
" clip-path="url(#p7de757c50f)" style="fill: #21a685"/>
    <path d="M 225.72 119.475 
L 234.036 119.475 
L 234.036 109.08 
L 225.72 109.08 
L 225.72 119.475 
" clip-path="url(#p7de757c50f)" style="fill: #1f978b"/>
    <path d="M 225.72 109.08 
L 234.036 109.08 
L 234.036 98.685 
L 225.72 98.685 
L 225.72 109.08 
" clip-path="url(#p7de757c50f)" style="fill: #23888e"/>
    <path d="M 225.72 98.685 
L 234.036 98.685 
L 234.036 88.29 
L 225.72 88.29 
L 225.72 98.685 
" clip-path="url(#p7de757c50f)" style="fill: #29798e"/>
    <path d="M 225.72 88.29 
L 234.036 88.29 
L 234.036 77.895 
L 225.72 77.895 
L 225.72 88.29 
" clip-path="url(#p7de757c50f)" style="fill: #306a8e"/>
    <path d="M 225.72 77.895 
L 234.036 77.895 
L 234.036 67.5 
L 225.72 67.5 
L 225.72 77.895 
" clip-path="url(#p7de757c50f)" style="fill: #375a8c"/>
    <path d="M 225.72 67.5 
L 234.036 67.5 
L 234.036 57.105 
L 225.72 57.105 
L 225.72 67.5 
" clip-path="url(#p7de757c50f)" style="fill: #3f4889"/>
    <path d="M 225.72 57.105 
L 234.036 57.105 
L 234.036 46.71 
L 225.72 46.71 
L 225.72 57.105 
" clip-path="url(#p7de757c50f)" style="fill: #453581"/>
    <path d="M 225.72 46.71 
L 234.036 46.71 
L 234.036 36.315 
L 225.72 36.315 
L 225.72 46.71 
" clip-path="url(#p7de757c50f)" style="fill: #482173"/>
    <path d="M 225.72 36.315 
L 234.036 36.315 
L 234.036 25.92 
L 225.72 25.92 
L 225.72 36.315 
" clip-path="url(#p7de757c50f)" style="fill: #460b5e"/>
   </g>
   <g id="matplotlib.axis_3"/>
   <g id="matplotlib.axis_4">
    <g id="ytick_5">
     <g id="line2d_9">
      <defs>
       <path id="mce7fa2cad1" d="M 0 0 
L 3.5 0 
" style="stroke: #000000; stroke-width: 0.8"/>
      </defs>
      <g>
       <use xlink:href="#mce7fa2cad1" x="234.036" y="192.24" style="stroke: #000000; stroke-width: 0.8"/>
      </g>
     </g>
     <g id="text_14">
      <!-- $\mathdefault{0.0}$ -->
      <g transform="translate(241.036 196.039219) scale(0.1 -0.1)">
       <defs>
        <path id="DejaVuSans-2e" d="M 684 794 
L 1344 794 
L 1344 0 
L 684 0 
L 684 794 
z
" transform="scale(0.015625)"/>
       </defs>
       <use xlink:href="#DejaVuSans-30" transform="translate(0 0.78125)"/>
       <use xlink:href="#DejaVuSans-2e" transform="translate(63.623047 0.78125)"/>
       <use xlink:href="#DejaVuSans-30" transform="translate(95.410156 0.78125)"/>
      </g>
     </g>
    </g>
    <g id="ytick_6">
     <g id="line2d_10">
      <g>
       <use xlink:href="#mce7fa2cad1" x="234.036" y="171.45" style="stroke: #000000; stroke-width: 0.8"/>
      </g>
     </g>
     <g id="text_15">
      <!-- $\mathdefault{0.5}$ -->
      <g transform="translate(241.036 175.249219) scale(0.1 -0.1)">
       <defs>
        <path id="DejaVuSans-35" d="M 691 4666 
L 3169 4666 
L 3169 4134 
L 1269 4134 
L 1269 2991 
Q 1406 3038 1543 3061 
Q 1681 3084 1819 3084 
Q 2600 3084 3056 2656 
Q 3513 2228 3513 1497 
Q 3513 744 3044 326 
Q 2575 -91 1722 -91 
Q 1428 -91 1123 -41 
Q 819 9 494 109 
L 494 744 
Q 775 591 1075 516 
Q 1375 441 1709 441 
Q 2250 441 2565 725 
Q 2881 1009 2881 1497 
Q 2881 1984 2565 2268 
Q 2250 2553 1709 2553 
Q 1456 2553 1204 2497 
Q 953 2441 691 2322 
L 691 4666 
z
" transform="scale(0.015625)"/>
       </defs>
       <use xlink:href="#DejaVuSans-30" transform="translate(0 0.78125)"/>
       <use xlink:href="#DejaVuSans-2e" transform="translate(63.623047 0.78125)"/>
       <use xlink:href="#DejaVuSans-35" transform="translate(95.410156 0.78125)"/>
      </g>
     </g>
    </g>
    <g id="ytick_7">
     <g id="line2d_11">
      <g>
       <use xlink:href="#mce7fa2cad1" x="234.036" y="150.66" style="stroke: #000000; stroke-width: 0.8"/>
      </g>
     </g>
     <g id="text_16">
      <!-- $\mathdefault{1.0}$ -->
      <g transform="translate(241.036 154.459219) scale(0.1 -0.1)">
       <use xlink:href="#DejaVuSans-31" transform="translate(0 0.78125)"/>
       <use xlink:href="#DejaVuSans-2e" transform="translate(63.623047 0.78125)"/>
       <use xlink:href="#DejaVuSans-30" transform="translate(95.410156 0.78125)"/>
      </g>
     </g>
    </g>
    <g id="ytick_8">
     <g id="line2d_12">
      <g>
       <use xlink:href="#mce7fa2cad1" x="234.036" y="129.87" style="stroke: #000000; stroke-width: 0.8"/>
      </g>
     </g>
     <g id="text_17">
      <!-- $\mathdefault{1.5}$ -->
      <g transform="translate(241.036 133.669219) scale(0.1 -0.1)">
       <use xlink:href="#DejaVuSans-31" transform="translate(0 0.09375)"/>
       <use xlink:href="#DejaVuSans-2e" transform="translate(63.623047 0.09375)"/>
       <use xlink:href="#DejaVuSans-35" transform="translate(95.410156 0.09375)"/>
      </g>
     </g>
    </g>
    <g id="ytick_9">
     <g id="line2d_13">
      <g>
       <use xlink:href="#mce7fa2cad1" x="234.036" y="109.08" style="stroke: #000000; stroke-width: 0.8"/>
      </g>
     </g>
     <g id="text_18">
      <!-- $\mathdefault{2.0}$ -->
      <g transform="translate(241.036 112.879219) scale(0.1 -0.1)">
       <use xlink:href="#DejaVuSans-32" transform="translate(0 0.78125)"/>
       <use xlink:href="#DejaVuSans-2e" transform="translate(63.623047 0.78125)"/>
       <use xlink:href="#DejaVuSans-30" transform="translate(95.410156 0.78125)"/>
      </g>
     </g>
    </g>
    <g id="ytick_10">
     <g id="line2d_14">
      <g>
       <use xlink:href="#mce7fa2cad1" x="234.036" y="88.29" style="stroke: #000000; stroke-width: 0.8"/>
      </g>
     </g>
     <g id="text_19">
      <!-- $\mathdefault{2.5}$ -->
      <g transform="translate(241.036 92.089219) scale(0.1 -0.1)">
       <use xlink:href="#DejaVuSans-32" transform="translate(0 0.78125)"/>
       <use xlink:href="#DejaVuSans-2e" transform="translate(63.623047 0.78125)"/>
       <use xlink:href="#DejaVuSans-35" transform="translate(95.410156 0.78125)"/>
      </g>
     </g>
    </g>
    <g id="ytick_11">
     <g id="line2d_15">
      <g>
       <use xlink:href="#mce7fa2cad1" x="234.036" y="67.5" style="stroke: #000000; stroke-width: 0.8"/>
      </g>
     </g>
     <g id="text_20">
      <!-- $\mathdefault{3.0}$ -->
      <g transform="translate(241.036 71.299219) scale(0.1 -0.1)">
       <use xlink:href="#DejaVuSans-33" transform="translate(0 0.78125)"/>
       <use xlink:href="#DejaVuSans-2e" transform="translate(63.623047 0.78125)"/>
       <use xlink:href="#DejaVuSans-30" transform="translate(95.410156 0.78125)"/>
      </g>
     </g>
    </g>
    <g id="ytick_12">
     <g id="line2d_16">
      <g>
       <use xlink:href="#mce7fa2cad1" x="234.036" y="46.71" style="stroke: #000000; stroke-width: 0.8"/>
      </g>
     </g>
     <g id="text_21">
      <!-- $\mathdefault{3.5}$ -->
      <g transform="translate(241.036 50.509219) scale(0.1 -0.1)">
       <use xlink:href="#DejaVuSans-33" transform="translate(0 0.78125)"/>
       <use xlink:href="#DejaVuSans-2e" transform="translate(63.623047 0.78125)"/>
       <use xlink:href="#DejaVuSans-35" transform="translate(95.410156 0.78125)"/>
      </g>
     </g>
    </g>
    <g id="ytick_13">
     <g id="line2d_17">
      <g>
       <use xlink:href="#mce7fa2cad1" x="234.036" y="25.92" style="stroke: #000000; stroke-width: 0.8"/>
      </g>
     </g>
     <g id="text_22">
      <!-- $\mathdefault{4.0}$ -->
      <g transform="translate(241.036 29.719219) scale(0.1 -0.1)">
       <use xlink:href="#DejaVuSans-34" transform="translate(0 0.78125)"/>
       <use xlink:href="#DejaVuSans-2e" transform="translate(63.623047 0.78125)"/>
       <use xlink:href="#DejaVuSans-30" transform="translate(95.410156 0.78125)"/>
      </g>
     </g>
    </g>
    <g id="text_23">
     <!-- $\Delta$ log likelihood -->
     <g transform="translate(270.156 154.98) rotate(-90) scale(0.12 -0.12)">
      <defs>
       <path id="DejaVuSans-394" d="M 2188 4044 
L 906 525 
L 3472 525 
L 2188 4044 
z
M 50 0 
L 1831 4666 
L 2547 4666 
L 4325 0 
L 50 0 
z
" transform="scale(0.015625)"/>
       <path id="DejaVuSans-67" d="M 2906 1791 
Q 2906 2416 2648 2759 
Q 2391 3103 1925 3103 
Q 1463 3103 1205 2759 
Q 947 2416 947 1791 
Q 947 1169 1205 825 
Q 1463 481 1925 481 
Q 2391 481 2648 825 
Q 2906 1169 2906 1791 
z
M 3481 434 
Q 3481 -459 3084 -895 
Q 2688 -1331 1869 -1331 
Q 1566 -1331 1297 -1286 
Q 1028 -1241 775 -1147 
L 775 -588 
Q 1028 -725 1275 -790 
Q 1522 -856 1778 -856 
Q 2344 -856 2625 -561 
Q 2906 -266 2906 331 
L 2906 616 
Q 2728 306 2450 153 
Q 2172 0 1784 0 
Q 1141 0 747 490 
Q 353 981 353 1791 
Q 353 2603 747 3093 
Q 1141 3584 1784 3584 
Q 2172 3584 2450 3431 
Q 2728 3278 2906 2969 
L 2906 3500 
L 3481 3500 
L 3481 434 
z
" transform="scale(0.015625)"/>
       <path id="DejaVuSans-6b" d="M 581 4863 
L 1159 4863 
L 1159 1991 
L 2875 3500 
L 3609 3500 
L 1753 1863 
L 3688 0 
L 2938 0 
L 1159 1709 
L 1159 0 
L 581 0 
L 581 4863 
z
" transform="scale(0.015625)"/>
       <path id="DejaVuSans-68" d="M 3513 2113 
L 3513 0 
L 2938 0 
L 2938 2094 
Q 2938 2591 2744 2837 
Q 2550 3084 2163 3084 
Q 1697 3084 1428 2787 
Q 1159 2491 1159 1978 
L 1159 0 
L 581 0 
L 581 4863 
L 1159 4863 
L 1159 2956 
Q 1366 3272 1645 3428 
Q 1925 3584 2291 3584 
Q 2894 3584 3203 3211 
Q 3513 2838 3513 2113 
z
" transform="scale(0.015625)"/>
      </defs>
      <use xlink:href="#DejaVuSans-394" transform="translate(0 0.015625)"/>
      <use xlink:href="#DejaVuSans-20" transform="translate(68.408203 0.015625)"/>
      <use xlink:href="#DejaVuSans-6c" transform="translate(100.195312 0.015625)"/>
      <use xlink:href="#DejaVuSans-6f" transform="translate(127.978516 0.015625)"/>
      <use xlink:href="#DejaVuSans-67" transform="translate(189.160156 0.015625)"/>
      <use xlink:href="#DejaVuSans-20" transform="translate(252.636719 0.015625)"/>
      <use xlink:href="#DejaVuSans-6c" transform="translate(284.423828 0.015625)"/>
      <use xlink:href="#DejaVuSans-69" transform="translate(312.207031 0.015625)"/>
      <use xlink:href="#DejaVuSans-6b" transform="translate(339.990234 0.015625)"/>
      <use xlink:href="#DejaVuSans-65" transform="translate(397.900391 0.015625)"/>
      <use xlink:href="#DejaVuSans-6c" transform="translate(459.423828 0.015625)"/>
      <use xlink:href="#DejaVuSans-69" transform="translate(487.207031 0.015625)"/>
      <use xlink:href="#DejaVuSans-68" transform="translate(514.990234 0.015625)"/>
      <use xlink:href="#DejaVuSans-6f" transform="translate(578.369141 0.015625)"/>
      <use xlink:href="#DejaVuSans-6f" transform="translate(639.550781 0.015625)"/>
      <use xlink:href="#DejaVuSans-64" transform="translate(700.732422 0.015625)"/>
     </g>
    </g>
    <g id="text_24">
     <!-- $\times\mathdefault{10^{2}}\mathdefault{}$ -->
     <g transform="translate(208.036 22.92) scale(0.1 -0.1)">
      <use xlink:href="#DejaVuSans-d7" transform="translate(0 0.765625)"/>
      <use xlink:href="#DejaVuSans-31" transform="translate(83.789062 0.765625)"/>
      <use xlink:href="#DejaVuSans-30" transform="translate(147.412109 0.765625)"/>
      <use xlink:href="#DejaVuSans-32" transform="translate(211.992188 39.046875) scale(0.7)"/>
     </g>
    </g>
   </g>
   <g id="LineCollection_1"/>
   <g id="patch_8">
    <path d="M 225.72 192.24 
L 229.878 192.24 
L 234.036 192.24 
L 234.036 25.92 
L 229.878 25.92 
L 225.72 25.92 
L 225.72 192.24 
z
" style="fill: none; stroke: #000000; stroke-width: 0.8; stroke-linejoin: miter; stroke-linecap: square"/>
   </g>
  </g>
 </g>
 <defs>
  <clipPath id="p7d02f04e4a">
   <rect x="36" y="25.92" width="178.56" height="166.32"/>
  </clipPath>
  <clipPath id="p7de757c50f">
   <rect x="225.72" y="25.92" width="8.316" height="166.32"/>
  </clipPath>
 </defs>
</svg>
