<?xml version="1.0" encoding="utf-8" standalone="no"?>
<!DOCTYPE svg PUBLIC "-//W3C//DTD SVG 1.1//EN"
  "http://www.w3.org/Graphics/SVG/1.1/DTD/svg11.dtd">
<svg xmlns:xlink="http://www.w3.org/1999/xlink" width="288pt" height="216pt" viewBox="0 0 288 216" xmlns="http://www.w3.org/2000/svg" version="1.1">
 <metadata>
  <rdf:RDF xmlns:dc="http://purl.org/dc/elements/1.1/" xmlns:cc="http://creativecommons.org/ns#" xmlns:rdf="http://www.w3.org/1999/02/22-rdf-syntax-ns#">
   <cc:Work>
    <dc:type rdf:resource="http://purl.org/dc/dcmitype/StillImage"/>
    <dc:date>2023-07-18T17:53:39.374191</dc:date>
    <dc:format>image/svg+xml</dc:format>
    <dc:creator>
     <cc:Agent>
      <dc:title>Matplotlib v3.7.1, https://matplotlib.org/</dc:title>
     </cc:Agent>
    </dc:creator>
   </cc:Work>
  </rdf:RDF>
 </metadata>
 <defs>
  <style type="text/css">*{stroke-linejoin: round; stroke-linecap: butt}</style>
 </defs>
 <g id="figure_1">
  <g id="patch_1">
   <path d="M 0 216 
L 288 216 
L 288 0 
L 0 0 
z
" style="fill: #ffffff"/>
  </g>
  <g id="axes_1">
   <g id="patch_2">
    <path d="M 36 192.24 
L 214.56 192.24 
L 214.56 25.92 
L 36 25.92 
z
" style="fill: #ffffff"/>
   </g>
   <g id="PathCollection_1">
    <path d="M 36.7531 192.24 
L 36 192.24 
L 36 191.848476 
z
" clip-path="url(#pe489d1ff23)" style="fill: #440154"/>
   </g>
   <g id="PathCollection_2">
    <path d="M 38.008316 192.24 
L 36.7531 192.24 
L 36 191.848476 
L 36 191.195912 
z
" clip-path="url(#pe489d1ff23)" style="fill: #440154"/>
   </g>
   <g id="PathCollection_3">
    <path d="M 39.263531 192.24 
L 38.008316 192.24 
L 36 191.195912 
L 36 190.543347 
z
" clip-path="url(#pe489d1ff23)" style="fill: #440154"/>
   </g>
   <g id="PathCollection_4">
    <path d="M 40.518747 192.24 
L 39.263531 192.24 
L 36 190.543347 
L 36 189.890783 
z
" clip-path="url(#pe489d1ff23)" style="fill: #440154"/>
   </g>
   <g id="PathCollection_5">
    <path d="M 41.773962 192.24 
L 40.518747 192.24 
L 36 189.890783 
L 36 189.238218 
z
" clip-path="url(#pe489d1ff23)" style="fill: #440154"/>
   </g>
   <g id="PathCollection_6">
    <path d="M 41.952 191.679994 
L 44.613 192.24 
L 41.952 192.24 
L 41.773962 192.24 
L 36 189.238218 
L 36 188.585654 
z
" clip-path="url(#pe489d1ff23)" style="fill: #440154"/>
   </g>
   <g id="PathCollection_7">
    <path d="M 41.952 191.02743 
L 47.713814 192.24 
L 44.613 192.24 
L 41.952 191.679994 
L 36 188.585654 
L 36 187.933089 
z
" clip-path="url(#pe489d1ff23)" style="fill: #440154"/>
   </g>
   <g id="PathCollection_8">
    <path d="M 41.952 190.374865 
L 47.904 191.62746 
L 53.701637 192.24 
L 47.904 192.24 
L 47.713814 192.24 
L 41.952 191.02743 
L 36 187.933089 
L 36 187.280525 
z
" clip-path="url(#pe489d1ff23)" style="fill: #440154"/>
   </g>
   <g id="PathCollection_9">
    <path d="M 36 186.696 
L 36 186.533685 
L 36.130875 186.696 
L 41.952 189.722301 
L 47.904 190.974895 
L 53.856 191.603744 
L 59.808 191.954682 
L 65.76 192.161261 
L 69.54412 192.24 
L 65.76 192.24 
L 59.808 192.24 
L 53.856 192.24 
L 53.701637 192.24 
L 47.904 191.62746 
L 41.952 190.374865 
L 36 187.280525 
z
" clip-path="url(#pe489d1ff23)" style="fill: #440154"/>
    <path d="M 149.088 192.208927 
L 155.04 192.177099 
L 160.992 192.145089 
L 166.944 192.113045 
L 172.896 192.081082 
L 178.848 192.04929 
L 184.8 192.017737 
L 190.752 191.986473 
L 196.704 191.955539 
L 202.656 191.924963 
L 208.608 191.894767 
L 214.56 191.864965 
L 214.56 192.24 
L 208.608 192.24 
L 202.656 192.24 
L 196.704 192.24 
L 190.752 192.24 
L 184.8 192.24 
L 178.848 192.24 
L 172.896 192.24 
L 166.944 192.24 
L 160.992 192.24 
L 155.04 192.24 
L 149.088 192.24 
L 143.20747 192.24 
z
" clip-path="url(#pe489d1ff23)" style="fill: #440154"/>
   </g>
   <g id="PathCollection_10">
    <path d="M 36.130875 186.696 
L 36 186.533685 
L 36 184.976932 
L 37.38609 186.696 
L 41.952 189.069736 
L 47.904 190.322331 
L 53.856 190.95118 
L 59.808 191.302117 
L 65.76 191.508696 
L 71.712 191.632544 
L 77.664 191.705648 
L 83.616 191.746059 
L 89.568 191.764625 
L 95.52 191.76819 
L 101.472 191.761243 
L 107.424 191.746821 
L 113.376 191.727032 
L 119.328 191.703374 
L 125.28 191.676926 
L 131.232 191.648483 
L 137.184 191.618631 
L 143.136 191.587813 
L 149.088 191.556363 
L 155.04 191.524535 
L 160.992 191.492524 
L 166.944 191.46048 
L 172.896 191.428518 
L 178.848 191.396726 
L 184.8 191.365172 
L 190.752 191.333909 
L 196.704 191.302975 
L 202.656 191.272399 
L 208.608 191.242202 
L 214.56 191.212401 
L 214.56 191.864965 
L 208.608 191.894767 
L 202.656 191.924963 
L 196.704 191.955539 
L 190.752 191.986473 
L 184.8 192.017737 
L 178.848 192.04929 
L 172.896 192.081082 
L 166.944 192.113045 
L 160.992 192.145089 
L 155.04 192.177099 
L 149.088 192.208927 
L 143.20747 192.24 
L 143.136 192.24 
L 137.184 192.24 
L 131.232 192.24 
L 125.28 192.24 
L 119.328 192.24 
L 113.376 192.24 
L 107.424 192.24 
L 101.472 192.24 
L 95.52 192.24 
L 89.568 192.24 
L 83.616 192.24 
L 77.664 192.24 
L 71.712 192.24 
L 69.54412 192.24 
L 65.76 192.161261 
L 59.808 191.954682 
L 53.856 191.603744 
L 47.904 190.974895 
L 41.952 189.722301 
z
" clip-path="url(#pe489d1ff23)" style="fill: #440154"/>
   </g>
   <g id="PathCollection_11">
    <path d="M 37.38609 186.696 
L 36 184.976932 
L 36 183.420179 
L 38.641306 186.696 
L 41.952 188.417172 
L 47.904 189.669766 
L 53.856 190.298615 
L 59.808 190.649553 
L 65.76 190.856132 
L 71.712 190.97998 
L 77.664 191.053083 
L 83.616 191.093494 
L 89.568 191.11206 
L 95.52 191.115626 
L 101.472 191.108678 
L 107.424 191.094256 
L 113.376 191.074467 
L 119.328 191.050809 
L 125.28 191.024362 
L 131.232 190.995918 
L 137.184 190.966067 
L 143.136 190.935249 
L 149.088 190.903798 
L 155.04 190.871971 
L 160.992 190.83996 
L 166.944 190.807916 
L 172.896 190.775953 
L 178.848 190.744161 
L 184.8 190.712608 
L 190.752 190.681344 
L 196.704 190.65041 
L 202.656 190.619834 
L 208.608 190.589638 
L 214.56 190.559836 
L 214.56 191.212401 
L 208.608 191.242202 
L 202.656 191.272399 
L 196.704 191.302975 
L 190.752 191.333909 
L 184.8 191.365172 
L 178.848 191.396726 
L 172.896 191.428518 
L 166.944 191.46048 
L 160.992 191.492524 
L 155.04 191.524535 
L 149.088 191.556363 
L 143.136 191.587813 
L 137.184 191.618631 
L 131.232 191.648483 
L 125.28 191.676926 
L 119.328 191.703374 
L 113.376 191.727032 
L 107.424 191.746821 
L 101.472 191.761243 
L 95.52 191.76819 
L 89.568 191.764625 
L 83.616 191.746059 
L 77.664 191.705648 
L 71.712 191.632544 
L 65.76 191.508696 
L 59.808 191.302117 
L 53.856 190.95118 
L 47.904 190.322331 
L 41.952 189.069736 
z
" clip-path="url(#pe489d1ff23)" style="fill: #440154"/>
   </g>
   <g id="PathCollection_12">
    <path d="M 38.641306 186.696 
L 36 183.420179 
L 36 181.863426 
L 39.896521 186.696 
L 41.952 187.764607 
L 47.904 189.017202 
L 53.856 189.646051 
L 59.808 189.996988 
L 65.76 190.203567 
L 71.712 190.327415 
L 77.664 190.400519 
L 83.616 190.44093 
L 89.568 190.459496 
L 95.52 190.463061 
L 101.472 190.456114 
L 107.424 190.441692 
L 113.376 190.421903 
L 119.328 190.398245 
L 125.28 190.371797 
L 131.232 190.343354 
L 137.184 190.313502 
L 143.136 190.282684 
L 149.088 190.251234 
L 155.04 190.219406 
L 160.992 190.187395 
L 166.944 190.155351 
L 172.896 190.123389 
L 178.848 190.091597 
L 184.8 190.060043 
L 190.752 190.02878 
L 196.704 189.997846 
L 202.656 189.96727 
L 208.608 189.937073 
L 214.56 189.907272 
L 214.56 190.559836 
L 208.608 190.589638 
L 202.656 190.619834 
L 196.704 190.65041 
L 190.752 190.681344 
L 184.8 190.712608 
L 178.848 190.744161 
L 172.896 190.775953 
L 166.944 190.807916 
L 160.992 190.83996 
L 155.04 190.871971 
L 149.088 190.903798 
L 143.136 190.935249 
L 137.184 190.966067 
L 131.232 190.995918 
L 125.28 191.024362 
L 119.328 191.050809 
L 113.376 191.074467 
L 107.424 191.094256 
L 101.472 191.108678 
L 95.52 191.115626 
L 89.568 191.11206 
L 83.616 191.093494 
L 77.664 191.053083 
L 71.712 190.97998 
L 65.76 190.856132 
L 59.808 190.649553 
L 53.856 190.298615 
L 47.904 189.669766 
L 41.952 188.417172 
z
" clip-path="url(#pe489d1ff23)" style="fill: #440154"/>
   </g>
   <g id="PathCollection_13">
    <path d="M 39.896521 186.696 
L 36 181.863426 
L 36 181.152 
L 36 179.538136 
L 36.681591 181.152 
L 41.151737 186.696 
L 41.952 187.112043 
L 47.904 188.364637 
L 53.856 188.993486 
L 59.808 189.344424 
L 65.76 189.551003 
L 71.712 189.674851 
L 77.664 189.747954 
L 83.616 189.788365 
L 89.568 189.806931 
L 95.52 189.810497 
L 101.472 189.803549 
L 107.424 189.789127 
L 113.376 189.769338 
L 119.328 189.74568 
L 125.28 189.719233 
L 131.232 189.690789 
L 137.184 189.660938 
L 143.136 189.63012 
L 149.088 189.598669 
L 155.04 189.566842 
L 160.992 189.534831 
L 166.944 189.502787 
L 172.896 189.470824 
L 178.848 189.439032 
L 184.8 189.407479 
L 190.752 189.376215 
L 196.704 189.345281 
L 202.656 189.314705 
L 208.608 189.284509 
L 214.56 189.254707 
L 214.56 189.907272 
L 208.608 189.937073 
L 202.656 189.96727 
L 196.704 189.997846 
L 190.752 190.02878 
L 184.8 190.060043 
L 178.848 190.091597 
L 172.896 190.123389 
L 166.944 190.155351 
L 160.992 190.187395 
L 155.04 190.219406 
L 149.088 190.251234 
L 143.136 190.282684 
L 137.184 190.313502 
L 131.232 190.343354 
L 125.28 190.371797 
L 119.328 190.398245 
L 113.376 190.421903 
L 107.424 190.441692 
L 101.472 190.456114 
L 95.52 190.463061 
L 89.568 190.459496 
L 83.616 190.44093 
L 77.664 190.400519 
L 71.712 190.327415 
L 65.76 190.203567 
L 59.808 189.996988 
L 53.856 189.646051 
L 47.904 189.017202 
L 41.952 187.764607 
z
" clip-path="url(#pe489d1ff23)" style="fill: #440154"/>
   </g>
   <g id="PathCollection_14">
    <path d="M 41.151737 186.696 
L 36.681591 181.152 
L 36 179.538136 
L 36 176.566047 
L 37.936806 181.152 
L 41.952 186.131756 
L 43.075889 186.696 
L 47.904 187.712073 
L 53.856 188.340922 
L 59.808 188.691859 
L 65.76 188.898438 
L 71.712 189.022286 
L 77.664 189.09539 
L 83.616 189.135801 
L 89.568 189.154367 
L 95.52 189.157932 
L 101.472 189.150985 
L 107.424 189.136563 
L 113.376 189.116774 
L 119.328 189.093116 
L 125.28 189.066668 
L 131.232 189.038225 
L 137.184 189.008373 
L 143.136 188.977555 
L 149.088 188.946105 
L 155.04 188.914277 
L 160.992 188.882266 
L 166.944 188.850222 
L 172.896 188.81826 
L 178.848 188.786468 
L 184.8 188.754914 
L 190.752 188.723651 
L 196.704 188.692717 
L 202.656 188.662141 
L 208.608 188.631944 
L 214.56 188.602143 
L 214.56 189.254707 
L 208.608 189.284509 
L 202.656 189.314705 
L 196.704 189.345281 
L 190.752 189.376215 
L 184.8 189.407479 
L 178.848 189.439032 
L 172.896 189.470824 
L 166.944 189.502787 
L 160.992 189.534831 
L 155.04 189.566842 
L 149.088 189.598669 
L 143.136 189.63012 
L 137.184 189.660938 
L 131.232 189.690789 
L 125.28 189.719233 
L 119.328 189.74568 
L 113.376 189.769338 
L 107.424 189.789127 
L 101.472 189.803549 
L 95.52 189.810497 
L 89.568 189.806931 
L 83.616 189.788365 
L 77.664 189.747954 
L 71.712 189.674851 
L 65.76 189.551003 
L 59.808 189.344424 
L 53.856 188.993486 
L 47.904 188.364637 
L 41.952 187.112043 
z
" clip-path="url(#pe489d1ff23)" style="fill: #450457"/>
   </g>
   <g id="PathCollection_15">
    <path d="M 37.936806 181.152 
L 36 176.566047 
L 36 175.608 
L 36 172.18567 
L 36.850599 175.608 
L 39.192021 181.152 
L 41.952 184.575002 
L 46.176703 186.696 
L 47.904 187.059508 
L 53.856 187.688357 
L 59.808 188.039295 
L 65.76 188.245874 
L 71.712 188.369722 
L 77.664 188.442825 
L 83.616 188.483236 
L 89.568 188.501802 
L 95.52 188.505368 
L 101.472 188.49842 
L 107.424 188.483998 
L 113.376 188.464209 
L 119.328 188.440551 
L 125.28 188.414104 
L 131.232 188.38566 
L 137.184 188.355809 
L 143.136 188.324991 
L 149.088 188.29354 
L 155.04 188.261713 
L 160.992 188.229702 
L 166.944 188.197658 
L 172.896 188.165695 
L 178.848 188.133903 
L 184.8 188.10235 
L 190.752 188.071086 
L 196.704 188.040152 
L 202.656 188.009576 
L 208.608 187.97938 
L 214.56 187.949578 
L 214.56 188.602143 
L 208.608 188.631944 
L 202.656 188.662141 
L 196.704 188.692717 
L 190.752 188.723651 
L 184.8 188.754914 
L 178.848 188.786468 
L 172.896 188.81826 
L 166.944 188.850222 
L 160.992 188.882266 
L 155.04 188.914277 
L 149.088 188.946105 
L 143.136 188.977555 
L 137.184 189.008373 
L 131.232 189.038225 
L 125.28 189.066668 
L 119.328 189.093116 
L 113.376 189.116774 
L 107.424 189.136563 
L 101.472 189.150985 
L 95.52 189.157932 
L 89.568 189.154367 
L 83.616 189.135801 
L 77.664 189.09539 
L 71.712 189.022286 
L 65.76 188.898438 
L 59.808 188.691859 
L 53.856 188.340922 
L 47.904 187.712073 
L 43.075889 186.696 
L 41.952 186.131756 
z
" clip-path="url(#pe489d1ff23)" style="fill: #481f70"/>
   </g>
   <g id="PathCollection_16">
    <path d="M 39.192021 181.152 
L 36.850599 175.608 
L 36 172.18567 
L 36 170.064 
L 36 165.419264 
L 36.727887 170.064 
L 38.105814 175.608 
L 40.447237 181.152 
L 41.952 183.018249 
L 47.904 186.00643 
L 50.63989 186.696 
L 53.856 187.035793 
L 59.808 187.38673 
L 65.76 187.593309 
L 71.712 187.717157 
L 77.664 187.790261 
L 83.616 187.830672 
L 89.568 187.849238 
L 95.52 187.852803 
L 101.472 187.845856 
L 107.424 187.831434 
L 113.376 187.811645 
L 119.328 187.787987 
L 125.28 187.761539 
L 131.232 187.733096 
L 137.184 187.703244 
L 143.136 187.672426 
L 149.088 187.640976 
L 155.04 187.609148 
L 160.992 187.577137 
L 166.944 187.545093 
L 172.896 187.513131 
L 178.848 187.481339 
L 184.8 187.449785 
L 190.752 187.418522 
L 196.704 187.387588 
L 202.656 187.357012 
L 208.608 187.326815 
L 214.56 187.297014 
L 214.56 187.949578 
L 208.608 187.97938 
L 202.656 188.009576 
L 196.704 188.040152 
L 190.752 188.071086 
L 184.8 188.10235 
L 178.848 188.133903 
L 172.896 188.165695 
L 166.944 188.197658 
L 160.992 188.229702 
L 155.04 188.261713 
L 149.088 188.29354 
L 143.136 188.324991 
L 137.184 188.355809 
L 131.232 188.38566 
L 125.28 188.414104 
L 119.328 188.440551 
L 113.376 188.464209 
L 107.424 188.483998 
L 101.472 188.49842 
L 95.52 188.505368 
L 89.568 188.501802 
L 83.616 188.483236 
L 77.664 188.442825 
L 71.712 188.369722 
L 65.76 188.245874 
L 59.808 188.039295 
L 53.856 187.688357 
L 47.904 187.059508 
L 46.176703 186.696 
L 41.952 184.575002 
z
" clip-path="url(#pe489d1ff23)" style="fill: #453781"/>
   </g>
   <g id="PathCollection_17">
    <path d="M 40.447237 181.152 
L 38.105814 175.608 
L 36.727887 170.064 
L 36 165.419264 
L 36 164.52 
L 36 158.976 
L 36 153.432 
L 36 150.107173 
L 36.157461 153.432 
L 36.542781 158.976 
L 37.11429 164.52 
L 37.983103 170.064 
L 39.36103 175.608 
L 41.702452 181.152 
L 41.952 181.461496 
L 47.904 184.449677 
L 53.856 185.949854 
L 59.160701 186.696 
L 59.808 186.734166 
L 65.76 186.940745 
L 71.712 187.064593 
L 77.664 187.137696 
L 83.616 187.178107 
L 89.568 187.196673 
L 95.52 187.200239 
L 101.472 187.193291 
L 107.424 187.178869 
L 113.376 187.159081 
L 119.328 187.135422 
L 125.28 187.108975 
L 131.232 187.080531 
L 137.184 187.05068 
L 143.136 187.019862 
L 149.088 186.988411 
L 155.04 186.956584 
L 160.992 186.924573 
L 166.944 186.892529 
L 172.896 186.860566 
L 178.848 186.828775 
L 184.8 186.797221 
L 190.752 186.765957 
L 196.704 186.735023 
L 202.656 186.704447 
L 204.321022 186.696 
L 208.608 186.644115 
L 214.56 186.573021 
L 214.56 186.696 
L 214.56 187.297014 
L 208.608 187.326815 
L 202.656 187.357012 
L 196.704 187.387588 
L 190.752 187.418522 
L 184.8 187.449785 
L 178.848 187.481339 
L 172.896 187.513131 
L 166.944 187.545093 
L 160.992 187.577137 
L 155.04 187.609148 
L 149.088 187.640976 
L 143.136 187.672426 
L 137.184 187.703244 
L 131.232 187.733096 
L 125.28 187.761539 
L 119.328 187.787987 
L 113.376 187.811645 
L 107.424 187.831434 
L 101.472 187.845856 
L 95.52 187.852803 
L 89.568 187.849238 
L 83.616 187.830672 
L 77.664 187.790261 
L 71.712 187.717157 
L 65.76 187.593309 
L 59.808 187.38673 
L 53.856 187.035793 
L 50.63989 186.696 
L 47.904 186.00643 
L 41.952 183.018249 
z
" clip-path="url(#pe489d1ff23)" style="fill: #3d4d8a"/>
    <path d="M 36 42.552 
L 36 37.008 
L 36 31.464 
L 36 25.92 
L 36.217555 25.92 
L 36.158652 31.464 
L 36.099734 37.008 
L 36.040937 42.552 
L 36 46.430885 
z
" clip-path="url(#pe489d1ff23)" style="fill: #3d4d8a"/>
   </g>
   <g id="PathCollection_18">
    <path d="M 41.702452 181.152 
L 39.36103 175.608 
L 37.983103 170.064 
L 37.11429 164.52 
L 36.542781 158.976 
L 36.157461 153.432 
L 36 150.107173 
L 36 147.888 
L 36 142.344 
L 36 136.8 
L 36 131.256 
L 36 125.712 
L 36 120.168 
L 36 114.624 
L 36 109.08 
L 36 103.536 
L 36 97.992 
L 36 92.448 
L 36 86.904 
L 36 81.36 
L 36 75.816 
L 36 70.272 
L 36 64.728 
L 36 59.184 
L 36 53.64 
L 36 48.096 
L 36 46.430885 
L 36.040937 42.552 
L 36.099734 37.008 
L 36.158652 31.464 
L 36.217555 25.92 
L 37.47277 25.92 
L 37.413868 31.464 
L 37.35495 37.008 
L 37.296153 42.552 
L 37.237642 48.096 
L 37.179621 53.64 
L 37.122336 59.184 
L 37.066091 64.728 
L 37.011258 70.272 
L 36.958294 75.816 
L 36.907771 81.36 
L 36.860395 86.904 
L 36.817056 92.448 
L 36.778879 97.992 
L 36.747295 103.536 
L 36.724146 109.08 
L 36.711828 114.624 
L 36.7135 120.168 
L 36.733379 125.712 
L 36.777198 131.256 
L 36.8529 136.8 
L 36.971743 142.344 
L 37.150117 147.888 
L 37.412676 153.432 
L 37.797997 158.976 
L 38.369505 164.52 
L 39.238318 170.064 
L 40.616245 175.608 
L 41.952 178.770789 
L 44.436346 181.152 
L 47.904 182.892924 
L 53.856 184.393101 
L 59.808 185.230294 
L 65.76 185.723108 
L 71.712 186.01856 
L 77.664 186.192954 
L 83.616 186.289358 
L 89.568 186.333649 
L 95.52 186.342155 
L 101.472 186.325582 
L 107.424 186.291176 
L 113.376 186.243968 
L 119.328 186.187529 
L 125.28 186.124437 
L 131.232 186.056582 
L 137.184 185.985368 
L 143.136 185.911849 
L 149.088 185.836822 
L 155.04 185.760893 
L 160.992 185.684528 
L 166.944 185.608084 
L 172.896 185.531835 
L 178.848 185.455993 
L 184.8 185.380719 
L 190.752 185.306137 
L 196.704 185.23234 
L 202.656 185.159398 
L 208.608 185.087362 
L 214.56 185.016267 
L 214.56 186.573021 
L 208.608 186.644115 
L 204.321022 186.696 
L 202.656 186.704447 
L 196.704 186.735023 
L 190.752 186.765957 
L 184.8 186.797221 
L 178.848 186.828775 
L 172.896 186.860566 
L 166.944 186.892529 
L 160.992 186.924573 
L 155.04 186.956584 
L 149.088 186.988411 
L 143.136 187.019862 
L 137.184 187.05068 
L 131.232 187.080531 
L 125.28 187.108975 
L 119.328 187.135422 
L 113.376 187.159081 
L 107.424 187.178869 
L 101.472 187.193291 
L 95.52 187.200239 
L 89.568 187.196673 
L 83.616 187.178107 
L 77.664 187.137696 
L 71.712 187.064593 
L 65.76 186.940745 
L 59.808 186.734166 
L 59.160701 186.696 
L 53.856 185.949854 
L 47.904 184.449677 
L 41.952 181.461496 
z
" clip-path="url(#pe489d1ff23)" style="fill: #34608d"/>
   </g>
   <g id="PathCollection_19">
    <path d="M 40.616245 175.608 
L 39.238318 170.064 
L 38.369505 164.52 
L 37.797997 158.976 
L 37.412676 153.432 
L 37.150117 147.888 
L 36.971743 142.344 
L 36.8529 136.8 
L 36.777198 131.256 
L 36.733379 125.712 
L 36.7135 120.168 
L 36.711828 114.624 
L 36.724146 109.08 
L 36.747295 103.536 
L 36.778879 97.992 
L 36.817056 92.448 
L 36.860395 86.904 
L 36.907771 81.36 
L 36.958294 75.816 
L 37.011258 70.272 
L 37.066091 64.728 
L 37.122336 59.184 
L 37.179621 53.64 
L 37.237642 48.096 
L 37.296153 42.552 
L 37.35495 37.008 
L 37.413868 31.464 
L 37.47277 25.92 
L 38.727985 25.92 
L 38.669083 31.464 
L 38.610165 37.008 
L 38.551368 42.552 
L 38.492857 48.096 
L 38.434836 53.64 
L 38.377552 59.184 
L 38.321307 64.728 
L 38.266473 70.272 
L 38.21351 75.816 
L 38.162986 81.36 
L 38.11561 86.904 
L 38.072272 92.448 
L 38.034095 97.992 
L 38.00251 103.536 
L 37.979361 109.08 
L 37.967044 114.624 
L 37.968715 120.168 
L 37.988594 125.712 
L 38.032413 131.256 
L 38.108116 136.8 
L 38.226958 142.344 
L 38.405333 147.888 
L 38.667892 153.432 
L 39.053212 158.976 
L 39.624721 164.52 
L 40.493534 170.064 
L 41.871461 175.608 
L 41.952 175.7987 
L 47.537161 181.152 
L 47.904 181.33617 
L 53.856 182.836348 
L 59.808 183.673541 
L 65.76 184.166355 
L 71.712 184.461806 
L 77.664 184.636201 
L 83.616 184.732605 
L 89.568 184.776896 
L 95.52 184.785401 
L 101.472 184.768829 
L 107.424 184.734423 
L 113.376 184.687215 
L 119.328 184.630776 
L 125.28 184.567683 
L 131.232 184.499828 
L 137.184 184.428615 
L 143.136 184.355096 
L 149.088 184.280068 
L 155.04 184.20414 
L 160.992 184.127775 
L 166.944 184.051331 
L 172.896 183.975082 
L 178.848 183.89924 
L 184.8 183.823966 
L 190.752 183.749384 
L 196.704 183.675587 
L 202.656 183.602645 
L 208.608 183.530609 
L 214.56 183.459514 
L 214.56 185.016267 
L 208.608 185.087362 
L 202.656 185.159398 
L 196.704 185.23234 
L 190.752 185.306137 
L 184.8 185.380719 
L 178.848 185.455993 
L 172.896 185.531835 
L 166.944 185.608084 
L 160.992 185.684528 
L 155.04 185.760893 
L 149.088 185.836822 
L 143.136 185.911849 
L 137.184 185.985368 
L 131.232 186.056582 
L 125.28 186.124437 
L 119.328 186.187529 
L 113.376 186.243968 
L 107.424 186.291176 
L 101.472 186.325582 
L 95.52 186.342155 
L 89.568 186.333649 
L 83.616 186.289358 
L 77.664 186.192954 
L 71.712 186.01856 
L 65.76 185.723108 
L 59.808 185.230294 
L 53.856 184.393101 
L 47.904 182.892924 
L 44.436346 181.152 
L 41.952 178.770789 
z
" clip-path="url(#pe489d1ff23)" style="fill: #2c728e"/>
   </g>
   <g id="PathCollection_20">
    <path d="M 41.871461 175.608 
L 40.493534 170.064 
L 39.624721 164.52 
L 39.053212 158.976 
L 38.667892 153.432 
L 38.405333 147.888 
L 38.226958 142.344 
L 38.108116 136.8 
L 38.032413 131.256 
L 37.988594 125.712 
L 37.968715 120.168 
L 37.967044 114.624 
L 37.979361 109.08 
L 38.00251 103.536 
L 38.034095 97.992 
L 38.072272 92.448 
L 38.11561 86.904 
L 38.162986 81.36 
L 38.21351 75.816 
L 38.266473 70.272 
L 38.321307 64.728 
L 38.377552 59.184 
L 38.434836 53.64 
L 38.492857 48.096 
L 38.551368 42.552 
L 38.610165 37.008 
L 38.669083 31.464 
L 38.727985 25.92 
L 39.983201 25.92 
L 39.924299 31.464 
L 39.865381 37.008 
L 39.806583 42.552 
L 39.748073 48.096 
L 39.690052 53.64 
L 39.632767 59.184 
L 39.576522 64.728 
L 39.521688 70.272 
L 39.468725 75.816 
L 39.418201 81.36 
L 39.370826 86.904 
L 39.327487 92.448 
L 39.28931 97.992 
L 39.257726 103.536 
L 39.234577 109.08 
L 39.222259 114.624 
L 39.223931 120.168 
L 39.24381 125.712 
L 39.287629 131.256 
L 39.363331 136.8 
L 39.482174 142.344 
L 39.660548 147.888 
L 39.923107 153.432 
L 40.308427 158.976 
L 40.879936 164.52 
L 41.748749 170.064 
L 41.952 170.881767 
L 44.853855 175.608 
L 47.904 178.531522 
L 53.349763 181.152 
L 53.856 181.279595 
L 59.808 182.116788 
L 65.76 182.609602 
L 71.712 182.905053 
L 77.664 183.079448 
L 83.616 183.175852 
L 89.568 183.220143 
L 95.52 183.228648 
L 101.472 183.212075 
L 107.424 183.177669 
L 113.376 183.130462 
L 119.328 183.074023 
L 125.28 183.01093 
L 131.232 182.943075 
L 137.184 182.871862 
L 143.136 182.798343 
L 149.088 182.723315 
L 155.04 182.647387 
L 160.992 182.571022 
L 166.944 182.494578 
L 172.896 182.418329 
L 178.848 182.342486 
L 184.8 182.267212 
L 190.752 182.19263 
L 196.704 182.118834 
L 202.656 182.045892 
L 208.608 181.973856 
L 214.56 181.902761 
L 214.56 183.459514 
L 208.608 183.530609 
L 202.656 183.602645 
L 196.704 183.675587 
L 190.752 183.749384 
L 184.8 183.823966 
L 178.848 183.89924 
L 172.896 183.975082 
L 166.944 184.051331 
L 160.992 184.127775 
L 155.04 184.20414 
L 149.088 184.280068 
L 143.136 184.355096 
L 137.184 184.428615 
L 131.232 184.499828 
L 125.28 184.567683 
L 119.328 184.630776 
L 113.376 184.687215 
L 107.424 184.734423 
L 101.472 184.768829 
L 95.52 184.785401 
L 89.568 184.776896 
L 83.616 184.732605 
L 77.664 184.636201 
L 71.712 184.461806 
L 65.76 184.166355 
L 59.808 183.673541 
L 53.856 182.836348 
L 47.904 181.33617 
L 47.537161 181.152 
L 41.952 175.7987 
z
" clip-path="url(#pe489d1ff23)" style="fill: #25848e"/>
   </g>
   <g id="PathCollection_21">
    <path d="M 41.748749 170.064 
L 40.879936 164.52 
L 40.308427 158.976 
L 39.923107 153.432 
L 39.660548 147.888 
L 39.482174 142.344 
L 39.363331 136.8 
L 39.287629 131.256 
L 39.24381 125.712 
L 39.223931 120.168 
L 39.222259 114.624 
L 39.234577 109.08 
L 39.257726 103.536 
L 39.28931 97.992 
L 39.327487 92.448 
L 39.370826 86.904 
L 39.418201 81.36 
L 39.468725 75.816 
L 39.521688 70.272 
L 39.576522 64.728 
L 39.632767 59.184 
L 39.690052 53.64 
L 39.748073 48.096 
L 39.806583 42.552 
L 39.865381 37.008 
L 39.924299 31.464 
L 39.983201 25.92 
L 41.238416 25.92 
L 41.179514 31.464 
L 41.120596 37.008 
L 41.061799 42.552 
L 41.003288 48.096 
L 40.945267 53.64 
L 40.887983 59.184 
L 40.831738 64.728 
L 40.776904 70.272 
L 40.723941 75.816 
L 40.673417 81.36 
L 40.626041 86.904 
L 40.582703 92.448 
L 40.544525 97.992 
L 40.512941 103.536 
L 40.489792 109.08 
L 40.477475 114.624 
L 40.479146 120.168 
L 40.499025 125.712 
L 40.542844 131.256 
L 40.618547 136.8 
L 40.737389 142.344 
L 40.915764 147.888 
L 41.178322 153.432 
L 41.563643 158.976 
L 41.952 162.743314 
L 42.404447 164.52 
L 44.550715 170.064 
L 47.904 175.525475 
L 48.004928 175.608 
L 53.856 178.42351 
L 59.808 180.021845 
L 65.76 180.962704 
L 67.757453 181.152 
L 71.712 181.3483 
L 77.664 181.522695 
L 83.616 181.619098 
L 89.568 181.66339 
L 95.52 181.671895 
L 101.472 181.655322 
L 107.424 181.620916 
L 113.376 181.573709 
L 119.328 181.51727 
L 125.28 181.454177 
L 131.232 181.386322 
L 137.184 181.315108 
L 143.136 181.241589 
L 149.088 181.166562 
L 150.229507 181.152 
L 155.04 181.034842 
L 160.992 180.889049 
L 166.944 180.743105 
L 172.896 180.597534 
L 178.848 180.452739 
L 184.8 180.309029 
L 190.752 180.16664 
L 196.704 180.02575 
L 202.656 179.886493 
L 208.608 179.748964 
L 214.56 179.613233 
L 214.56 181.152 
L 214.56 181.902761 
L 208.608 181.973856 
L 202.656 182.045892 
L 196.704 182.118834 
L 190.752 182.19263 
L 184.8 182.267212 
L 178.848 182.342486 
L 172.896 182.418329 
L 166.944 182.494578 
L 160.992 182.571022 
L 155.04 182.647387 
L 149.088 182.723315 
L 143.136 182.798343 
L 137.184 182.871862 
L 131.232 182.943075 
L 125.28 183.01093 
L 119.328 183.074023 
L 113.376 183.130462 
L 107.424 183.177669 
L 101.472 183.212075 
L 95.52 183.228648 
L 89.568 183.220143 
L 83.616 183.175852 
L 77.664 183.079448 
L 71.712 182.905053 
L 65.76 182.609602 
L 59.808 182.116788 
L 53.856 181.279595 
L 53.349763 181.152 
L 47.904 178.531522 
L 44.853855 175.608 
L 41.952 170.881767 
z
" clip-path="url(#pe489d1ff23)" style="fill: #1f968b"/>
   </g>
   <g id="PathCollection_22">
    <path d="M 41.563643 158.976 
L 41.178322 153.432 
L 40.915764 147.888 
L 40.737389 142.344 
L 40.618547 136.8 
L 40.542844 131.256 
L 40.499025 125.712 
L 40.479146 120.168 
L 40.477475 114.624 
L 40.489792 109.08 
L 40.512941 103.536 
L 40.544525 97.992 
L 40.582703 92.448 
L 40.626041 86.904 
L 40.673417 81.36 
L 40.723941 75.816 
L 40.776904 70.272 
L 40.831738 64.728 
L 40.887983 59.184 
L 40.945267 53.64 
L 41.003288 48.096 
L 41.061799 42.552 
L 41.120596 37.008 
L 41.179514 31.464 
L 41.238416 25.92 
L 41.952 25.92 
L 43.290017 25.92 
L 43.144508 31.464 
L 42.99896 37.008 
L 42.853711 42.552 
L 42.70917 48.096 
L 42.565838 53.64 
L 42.424325 59.184 
L 42.28538 64.728 
L 42.149922 70.272 
L 42.019085 75.816 
L 41.952 78.795849 
L 41.928632 81.36 
L 41.881256 86.904 
L 41.837918 92.448 
L 41.799741 97.992 
L 41.768156 103.536 
L 41.745007 109.08 
L 41.73269 114.624 
L 41.734362 120.168 
L 41.75424 125.712 
L 41.79806 131.256 
L 41.873762 136.8 
L 41.952 140.449794 
L 42.052308 142.344 
L 42.492954 147.888 
L 43.141565 153.432 
L 44.093439 158.976 
L 45.505262 164.52 
L 47.65153 170.064 
L 47.904 170.475197 
L 53.856 175.341937 
L 54.439077 175.608 
L 59.808 177.049756 
L 65.76 177.990615 
L 71.712 178.554679 
L 77.664 178.887627 
L 83.616 179.071676 
L 89.568 179.156235 
L 95.52 179.172474 
L 101.472 179.140833 
L 107.424 179.075147 
L 113.376 178.98502 
L 119.328 178.877269 
L 125.28 178.756816 
L 131.232 178.62727 
L 137.184 178.491311 
L 143.136 178.350952 
L 149.088 178.207713 
L 155.04 178.062753 
L 160.992 177.916961 
L 166.944 177.771016 
L 172.896 177.625445 
L 178.848 177.48065 
L 184.8 177.33694 
L 190.752 177.194552 
L 196.704 177.053662 
L 202.656 176.914405 
L 208.608 176.776876 
L 214.56 176.641145 
L 214.56 179.613233 
L 208.608 179.748964 
L 202.656 179.886493 
L 196.704 180.02575 
L 190.752 180.16664 
L 184.8 180.309029 
L 178.848 180.452739 
L 172.896 180.597534 
L 166.944 180.743105 
L 160.992 180.889049 
L 155.04 181.034842 
L 150.229507 181.152 
L 149.088 181.166562 
L 143.136 181.241589 
L 137.184 181.315108 
L 131.232 181.386322 
L 125.28 181.454177 
L 119.328 181.51727 
L 113.376 181.573709 
L 107.424 181.620916 
L 101.472 181.655322 
L 95.52 181.671895 
L 89.568 181.66339 
L 83.616 181.619098 
L 77.664 181.522695 
L 71.712 181.3483 
L 67.757453 181.152 
L 65.76 180.962704 
L 59.808 180.021845 
L 53.856 178.42351 
L 48.004928 175.608 
L 47.904 175.525475 
L 44.550715 170.064 
L 42.404447 164.52 
L 41.952 162.743314 
z
" clip-path="url(#pe489d1ff23)" style="fill: #22a785"/>
   </g>
   <g id="PathCollection_23">
    <path d="M 41.873762 136.8 
L 41.79806 131.256 
L 41.75424 125.712 
L 41.734362 120.168 
L 41.73269 114.624 
L 41.745007 109.08 
L 41.768156 103.536 
L 41.799741 97.992 
L 41.837918 92.448 
L 41.881256 86.904 
L 41.928632 81.36 
L 41.952 78.795849 
L 42.019085 75.816 
L 42.149922 70.272 
L 42.28538 64.728 
L 42.424325 59.184 
L 42.565838 53.64 
L 42.70917 48.096 
L 42.853711 42.552 
L 42.99896 37.008 
L 43.144508 31.464 
L 43.290017 25.92 
L 46.390832 25.92 
L 46.245323 31.464 
L 46.099775 37.008 
L 45.954526 42.552 
L 45.809985 48.096 
L 45.666652 53.64 
L 45.52514 59.184 
L 45.386195 64.728 
L 45.250737 70.272 
L 45.1199 75.816 
L 44.995088 81.36 
L 44.878054 86.904 
L 44.770993 92.448 
L 44.676682 97.992 
L 44.598658 103.536 
L 44.541472 109.08 
L 44.511044 114.624 
L 44.515173 120.168 
L 44.56428 125.712 
L 44.672529 131.256 
L 44.85954 136.8 
L 45.153122 142.344 
L 45.593769 147.888 
L 46.242379 153.432 
L 47.194253 158.976 
L 47.904 161.763059 
L 49.302456 164.52 
L 53.577574 170.064 
L 53.856 170.291659 
L 59.808 173.007605 
L 65.76 174.606347 
L 71.712 175.564824 
L 72.166229 175.608 
L 77.664 175.915539 
L 83.616 176.099588 
L 89.568 176.184147 
L 95.52 176.200385 
L 101.472 176.168745 
L 107.424 176.103059 
L 113.376 176.012932 
L 119.328 175.905181 
L 125.28 175.784727 
L 131.232 175.655181 
L 133.297509 175.608 
L 137.184 175.457147 
L 143.136 175.218643 
L 149.088 174.975246 
L 155.04 174.728926 
L 160.992 174.48119 
L 166.944 174.233196 
L 172.896 173.985837 
L 178.848 173.739796 
L 184.8 173.495599 
L 190.752 173.253647 
L 196.704 173.014242 
L 202.656 172.777611 
L 208.608 172.543918 
L 214.56 172.313279 
L 214.56 175.608 
L 214.56 176.641145 
L 208.608 176.776876 
L 202.656 176.914405 
L 196.704 177.053662 
L 190.752 177.194552 
L 184.8 177.33694 
L 178.848 177.48065 
L 172.896 177.625445 
L 166.944 177.771016 
L 160.992 177.916961 
L 155.04 178.062753 
L 149.088 178.207713 
L 143.136 178.350952 
L 137.184 178.491311 
L 131.232 178.62727 
L 125.28 178.756816 
L 119.328 178.877269 
L 113.376 178.98502 
L 107.424 179.075147 
L 101.472 179.140833 
L 95.52 179.172474 
L 89.568 179.156235 
L 83.616 179.071676 
L 77.664 178.887627 
L 71.712 178.554679 
L 65.76 177.990615 
L 59.808 177.049756 
L 54.439077 175.608 
L 53.856 175.341937 
L 47.904 170.475197 
L 47.65153 170.064 
L 45.505262 164.52 
L 44.093439 158.976 
L 43.141565 153.432 
L 42.492954 147.888 
L 42.052308 142.344 
L 41.952 140.449794 
z
" clip-path="url(#pe489d1ff23)" style="fill: #37b878"/>
   </g>
   <g id="PathCollection_24">
    <path d="M 47.194253 158.976 
L 46.242379 153.432 
L 45.593769 147.888 
L 45.153122 142.344 
L 44.85954 136.8 
L 44.672529 131.256 
L 44.56428 125.712 
L 44.515173 120.168 
L 44.511044 114.624 
L 44.541472 109.08 
L 44.598658 103.536 
L 44.676682 97.992 
L 44.770993 92.448 
L 44.878054 86.904 
L 44.995088 81.36 
L 45.1199 75.816 
L 45.250737 70.272 
L 45.386195 64.728 
L 45.52514 59.184 
L 45.666652 53.64 
L 45.809985 48.096 
L 45.954526 42.552 
L 46.099775 37.008 
L 46.245323 31.464 
L 46.390832 25.92 
L 47.904 25.92 
L 51.066408 25.92 
L 50.776571 31.464 
L 50.486657 37.008 
L 50.197337 42.552 
L 49.909428 48.096 
L 49.623927 53.64 
L 49.34205 59.184 
L 49.065288 64.728 
L 48.795472 70.272 
L 48.534859 75.816 
L 48.286249 81.36 
L 48.05313 86.904 
L 47.904 90.780974 
L 47.871808 92.448 
L 47.777497 97.992 
L 47.699473 103.536 
L 47.642287 109.08 
L 47.611859 114.624 
L 47.615988 120.168 
L 47.665095 125.712 
L 47.773344 131.256 
L 47.904 135.129345 
L 48.016252 136.8 
L 48.601034 142.344 
L 49.478751 147.888 
L 50.770709 153.432 
L 52.666732 158.976 
L 53.856 161.320544 
L 56.764135 164.52 
L 59.808 166.722843 
L 65.76 169.258427 
L 68.914177 170.064 
L 71.712 170.514546 
L 77.664 171.080302 
L 83.616 171.393046 
L 89.568 171.536731 
L 95.52 171.564324 
L 101.472 171.51056 
L 107.424 171.398943 
L 113.376 171.245797 
L 119.328 171.062702 
L 125.28 170.858023 
L 131.232 170.637894 
L 137.184 170.406869 
L 143.136 170.168365 
L 145.688133 170.064 
L 149.088 169.843497 
L 155.04 169.452836 
L 160.992 169.05993 
L 166.944 168.666615 
L 172.896 168.274306 
L 178.848 167.884088 
L 184.8 167.496795 
L 190.752 167.113062 
L 196.704 166.733369 
L 202.656 166.358075 
L 208.608 165.98744 
L 214.56 165.621649 
L 214.56 170.064 
L 214.56 172.313279 
L 208.608 172.543918 
L 202.656 172.777611 
L 196.704 173.014242 
L 190.752 173.253647 
L 184.8 173.495599 
L 178.848 173.739796 
L 172.896 173.985837 
L 166.944 174.233196 
L 160.992 174.48119 
L 155.04 174.728926 
L 149.088 174.975246 
L 143.136 175.218643 
L 137.184 175.457147 
L 133.297509 175.608 
L 131.232 175.655181 
L 125.28 175.784727 
L 119.328 175.905181 
L 113.376 176.012932 
L 107.424 176.103059 
L 101.472 176.168745 
L 95.52 176.200385 
L 89.568 176.184147 
L 83.616 176.099588 
L 77.664 175.915539 
L 72.166229 175.608 
L 71.712 175.564824 
L 65.76 174.606347 
L 59.808 173.007605 
L 53.856 170.291659 
L 53.577574 170.064 
L 49.302456 164.52 
L 47.904 161.763059 
z
" clip-path="url(#pe489d1ff23)" style="fill: #5ac864"/>
   </g>
   <g id="PathCollection_25">
    <path d="M 47.773344 131.256 
L 47.665095 125.712 
L 47.615988 120.168 
L 47.611859 114.624 
L 47.642287 109.08 
L 47.699473 103.536 
L 47.777497 97.992 
L 47.871808 92.448 
L 47.904 90.780974 
L 48.05313 86.904 
L 48.286249 81.36 
L 48.534859 75.816 
L 48.795472 70.272 
L 49.065288 64.728 
L 49.34205 59.184 
L 49.623927 53.64 
L 49.909428 48.096 
L 50.197337 42.552 
L 50.486657 37.008 
L 50.776571 31.464 
L 51.066408 25.92 
L 53.856 25.92 
L 59.808 25.92 
L 60.006735 25.92 
L 59.808 27.168772 
L 59.405622 31.464 
L 58.886121 37.008 
L 58.367685 42.552 
L 57.851777 48.096 
L 57.340183 53.64 
L 56.835085 59.184 
L 56.339151 64.728 
L 55.855663 70.272 
L 55.388667 75.816 
L 54.943179 81.36 
L 54.52545 86.904 
L 54.14332 92.448 
L 53.856 97.180001 
L 53.828486 97.992 
L 53.67307 103.536 
L 53.559162 109.08 
L 53.498553 114.624 
L 53.506778 120.168 
L 53.604594 125.712 
L 53.820213 131.256 
L 53.856 131.788614 
L 54.459369 136.8 
L 55.507248 142.344 
L 57.08004 147.888 
L 59.395117 153.432 
L 59.808 154.105736 
L 64.878292 158.976 
L 65.76 159.54701 
L 71.712 161.857932 
L 77.664 163.22199 
L 83.616 163.976025 
L 89.568 164.322456 
L 95.52 164.388983 
L 101.472 164.259355 
L 107.424 163.990244 
L 113.376 163.621003 
L 119.328 163.179555 
L 125.28 162.686067 
L 131.232 162.155328 
L 137.184 161.598319 
L 143.136 161.023278 
L 149.088 160.436439 
L 155.04 159.842552 
L 160.992 159.245252 
L 163.67227 158.976 
L 166.944 158.488518 
L 172.896 157.603946 
L 178.848 156.72409 
L 184.8 155.850828 
L 190.752 154.985594 
L 196.704 154.12947 
L 201.609825 153.432 
L 202.656 153.21372 
L 208.608 151.987282 
L 214.56 150.776873 
L 214.56 153.432 
L 214.56 158.976 
L 214.56 164.52 
L 214.56 165.621649 
L 208.608 165.98744 
L 202.656 166.358075 
L 196.704 166.733369 
L 190.752 167.113062 
L 184.8 167.496795 
L 178.848 167.884088 
L 172.896 168.274306 
L 166.944 168.666615 
L 160.992 169.05993 
L 155.04 169.452836 
L 149.088 169.843497 
L 145.688133 170.064 
L 143.136 170.168365 
L 137.184 170.406869 
L 131.232 170.637894 
L 125.28 170.858023 
L 119.328 171.062702 
L 113.376 171.245797 
L 107.424 171.398943 
L 101.472 171.51056 
L 95.52 171.564324 
L 89.568 171.536731 
L 83.616 171.393046 
L 77.664 171.080302 
L 71.712 170.514546 
L 68.914177 170.064 
L 65.76 169.258427 
L 59.808 166.722843 
L 56.764135 164.52 
L 53.856 161.320544 
L 52.666732 158.976 
L 50.770709 153.432 
L 49.478751 147.888 
L 48.601034 142.344 
L 48.016252 136.8 
L 47.904 135.129345 
z
" clip-path="url(#pe489d1ff23)" style="fill: #86d549"/>
    <path d="M 195.54186 25.92 
L 196.704 25.92 
L 202.656 25.92 
L 208.608 25.92 
L 214.56 25.92 
L 214.56 31.464 
L 214.56 37.008 
L 214.56 42.552 
L 214.56 43.425683 
L 213.602604 42.552 
L 208.608 38.016344 
L 207.512138 37.008 
L 202.656 32.548841 
L 201.489249 31.464 
L 196.704 27.013508 
z
" clip-path="url(#pe489d1ff23)" style="fill: #86d549"/>
   </g>
   <g id="PathCollection_26">
    <path d="M 53.820213 131.256 
L 53.604594 125.712 
L 53.506778 120.168 
L 53.498553 114.624 
L 53.559162 109.08 
L 53.67307 103.536 
L 53.828486 97.992 
L 53.856 97.180001 
L 54.14332 92.448 
L 54.52545 86.904 
L 54.943179 81.36 
L 55.388667 75.816 
L 55.855663 70.272 
L 56.339151 64.728 
L 56.835085 59.184 
L 57.340183 53.64 
L 57.851777 48.096 
L 58.367685 42.552 
L 58.886121 37.008 
L 59.405622 31.464 
L 59.808 27.168772 
L 60.006735 25.92 
L 65.76 25.92 
L 71.712 25.92 
L 77.664 25.92 
L 83.616 25.92 
L 89.568 25.92 
L 95.52 25.92 
L 101.472 25.92 
L 107.424 25.92 
L 113.376 25.92 
L 119.328 25.92 
L 125.28 25.92 
L 131.232 25.92 
L 137.184 25.92 
L 143.136 25.92 
L 149.088 25.92 
L 155.04 25.92 
L 160.992 25.92 
L 166.944 25.92 
L 172.896 25.92 
L 178.848 25.92 
L 184.8 25.92 
L 190.752 25.92 
L 195.54186 25.92 
L 196.704 27.013508 
L 201.489249 31.464 
L 202.656 32.548841 
L 207.512138 37.008 
L 208.608 38.016344 
L 213.602604 42.552 
L 214.56 43.425683 
L 214.56 48.096 
L 214.56 53.64 
L 214.56 59.184 
L 214.56 64.728 
L 214.56 70.272 
L 214.56 75.816 
L 214.56 81.36 
L 214.56 86.904 
L 214.56 92.448 
L 214.56 97.992 
L 214.56 103.536 
L 214.56 109.08 
L 214.56 114.624 
L 214.56 120.168 
L 214.56 125.712 
L 214.56 131.256 
L 214.56 136.8 
L 214.56 142.344 
L 214.56 147.888 
L 214.56 150.776873 
L 208.608 151.987282 
L 202.656 153.21372 
L 201.609825 153.432 
L 196.704 154.12947 
L 190.752 154.985594 
L 184.8 155.850828 
L 178.848 156.72409 
L 172.896 157.603946 
L 166.944 158.488518 
L 163.67227 158.976 
L 160.992 159.245252 
L 155.04 159.842552 
L 149.088 160.436439 
L 143.136 161.023278 
L 137.184 161.598319 
L 131.232 162.155328 
L 125.28 162.686067 
L 119.328 163.179555 
L 113.376 163.621003 
L 107.424 163.990244 
L 101.472 164.259355 
L 95.52 164.388983 
L 89.568 164.322456 
L 83.616 163.976025 
L 77.664 163.22199 
L 71.712 161.857932 
L 65.76 159.54701 
L 64.878292 158.976 
L 59.808 154.105736 
L 59.395117 153.432 
L 57.08004 147.888 
L 55.507248 142.344 
L 54.459369 136.8 
L 53.856 131.788614 
z
M 71.712 135.84558 
L 72.263641 136.8 
L 77.294048 142.344 
L 77.664 142.615647 
L 83.616 145.031565 
L 89.568 146.141522 
L 95.52 146.354677 
L 101.472 145.93935 
L 107.424 145.077121 
L 113.376 143.89408 
L 119.328 142.479687 
L 119.83878 142.344 
L 125.28 140.174498 
L 131.232 137.622201 
L 133.058957 136.8 
L 137.184 133.885651 
L 140.789361 131.256 
L 143.136 128.299078 
L 145.147853 125.712 
L 147.103708 120.168 
L 147.268152 114.624 
L 146.056273 109.08 
L 143.778669 103.536 
L 143.136 102.389446 
L 140.620563 97.992 
L 137.184 93.021754 
L 136.774448 92.448 
L 132.282102 86.904 
L 131.232 85.718511 
L 127.180149 81.36 
L 125.28 79.443401 
L 121.412268 75.816 
L 119.328 73.951271 
L 114.730771 70.272 
L 113.376 69.22473 
L 107.424 65.376286 
L 106.048308 64.728 
L 101.472 62.625565 
L 95.52 61.30841 
L 89.568 61.984401 
L 84.928944 64.728 
L 83.616 65.52448 
L 80.020477 70.272 
L 77.664 73.493371 
L 76.724793 75.816 
L 74.586202 81.36 
L 72.580868 86.904 
L 71.712 89.529874 
L 71.142057 92.448 
L 70.188201 97.992 
L 69.399069 103.536 
L 68.820691 109.08 
L 68.512945 114.624 
L 68.554704 120.168 
L 69.051376 125.712 
L 70.146197 131.256 
z
" clip-path="url(#pe489d1ff23)" style="fill: #b5de2b"/>
   </g>
   <g id="PathCollection_27">
    <path d="M 70.146197 131.256 
L 69.051376 125.712 
L 68.554704 120.168 
L 68.512945 114.624 
L 68.820691 109.08 
L 69.399069 103.536 
L 70.188201 97.992 
L 71.142057 92.448 
L 71.712 89.529874 
L 72.580868 86.904 
L 74.586202 81.36 
L 76.724793 75.816 
L 77.664 73.493371 
L 80.020477 70.272 
L 83.616 65.52448 
L 84.928944 64.728 
L 89.568 61.984401 
L 95.52 61.30841 
L 101.472 62.625565 
L 106.048308 64.728 
L 107.424 65.376286 
L 113.376 69.22473 
L 114.730771 70.272 
L 119.328 73.951271 
L 121.412268 75.816 
L 125.28 79.443401 
L 127.180149 81.36 
L 131.232 85.718511 
L 132.282102 86.904 
L 136.774448 92.448 
L 137.184 93.021754 
L 140.620563 97.992 
L 143.136 102.389446 
L 143.778669 103.536 
L 146.056273 109.08 
L 147.268152 114.624 
L 147.103708 120.168 
L 145.147853 125.712 
L 143.136 128.299078 
L 140.789361 131.256 
L 137.184 133.885651 
L 133.058957 136.8 
L 131.232 137.622201 
L 125.28 140.174498 
L 119.83878 142.344 
L 119.328 142.479687 
L 113.376 143.89408 
L 107.424 145.077121 
L 101.472 145.93935 
L 95.52 146.354677 
L 89.568 146.141522 
L 83.616 145.031565 
L 77.664 142.615647 
L 77.294048 142.344 
L 72.263641 136.8 
L 71.712 135.84558 
z
" clip-path="url(#pe489d1ff23)" style="fill: #e7e419"/>
   </g>
   <g id="PathCollection_28">
    <defs>
     <path id="m65957e1e8d" d="M -4.330127 4.330127 
L 4.330127 -4.330127 
M -4.330127 -4.330127 
L 4.330127 4.330127 
" style="stroke: #000000; stroke-width: 2"/>
    </defs>
    <g clip-path="url(#pe489d1ff23)">
     <use xlink:href="#m65957e1e8d" x="85.6" y="127.56" style="stroke: #000000; stroke-width: 2"/>
    </g>
   </g>
   <g id="matplotlib.axis_1">
    <g id="xtick_1">
     <g id="line2d_1">
      <defs>
       <path id="md3b565ca15" d="M 0 0 
L 0 3.5 
" style="stroke: #000000; stroke-width: 0.8"/>
      </defs>
      <g>
       <use xlink:href="#md3b565ca15" x="75.68" y="192.24" style="stroke: #000000; stroke-width: 0.8"/>
      </g>
     </g>
     <g id="text_1">
      <!-- $\mathdefault{250}$ -->
      <g transform="translate(64.22 208.358125) scale(0.12 -0.12)">
       <defs>
        <path id="DejaVuSans-32" d="M 1228 531 
L 3431 531 
L 3431 0 
L 469 0 
L 469 531 
Q 828 903 1448 1529 
Q 2069 2156 2228 2338 
Q 2531 2678 2651 2914 
Q 2772 3150 2772 3378 
Q 2772 3750 2511 3984 
Q 2250 4219 1831 4219 
Q 1534 4219 1204 4116 
Q 875 4013 500 3803 
L 500 4441 
Q 881 4594 1212 4672 
Q 1544 4750 1819 4750 
Q 2544 4750 2975 4387 
Q 3406 4025 3406 3419 
Q 3406 3131 3298 2873 
Q 3191 2616 2906 2266 
Q 2828 2175 2409 1742 
Q 1991 1309 1228 531 
z
" transform="scale(0.015625)"/>
        <path id="DejaVuSans-35" d="M 691 4666 
L 3169 4666 
L 3169 4134 
L 1269 4134 
L 1269 2991 
Q 1406 3038 1543 3061 
Q 1681 3084 1819 3084 
Q 2600 3084 3056 2656 
Q 3513 2228 3513 1497 
Q 3513 744 3044 326 
Q 2575 -91 1722 -91 
Q 1428 -91 1123 -41 
Q 819 9 494 109 
L 494 744 
Q 775 591 1075 516 
Q 1375 441 1709 441 
Q 2250 441 2565 725 
Q 2881 1009 2881 1497 
Q 2881 1984 2565 2268 
Q 2250 2553 1709 2553 
Q 1456 2553 1204 2497 
Q 953 2441 691 2322 
L 691 4666 
z
" transform="scale(0.015625)"/>
        <path id="DejaVuSans-30" d="M 2034 4250 
Q 1547 4250 1301 3770 
Q 1056 3291 1056 2328 
Q 1056 1369 1301 889 
Q 1547 409 2034 409 
Q 2525 409 2770 889 
Q 3016 1369 3016 2328 
Q 3016 3291 2770 3770 
Q 2525 4250 2034 4250 
z
M 2034 4750 
Q 2819 4750 3233 4129 
Q 3647 3509 3647 2328 
Q 3647 1150 3233 529 
Q 2819 -91 2034 -91 
Q 1250 -91 836 529 
Q 422 1150 422 2328 
Q 422 3509 836 4129 
Q 1250 4750 2034 4750 
z
" transform="scale(0.015625)"/>
       </defs>
       <use xlink:href="#DejaVuSans-32" transform="translate(0 0.78125)"/>
       <use xlink:href="#DejaVuSans-35" transform="translate(63.623047 0.78125)"/>
       <use xlink:href="#DejaVuSans-30" transform="translate(127.246094 0.78125)"/>
      </g>
     </g>
    </g>
    <g id="xtick_2">
     <g id="line2d_2">
      <g>
       <use xlink:href="#md3b565ca15" x="125.28" y="192.24" style="stroke: #000000; stroke-width: 0.8"/>
      </g>
     </g>
     <g id="text_2">
      <!-- $\mathdefault{500}$ -->
      <g transform="translate(113.82 208.358125) scale(0.12 -0.12)">
       <use xlink:href="#DejaVuSans-35" transform="translate(0 0.78125)"/>
       <use xlink:href="#DejaVuSans-30" transform="translate(63.623047 0.78125)"/>
       <use xlink:href="#DejaVuSans-30" transform="translate(127.246094 0.78125)"/>
      </g>
     </g>
    </g>
    <g id="xtick_3">
     <g id="line2d_3">
      <g>
       <use xlink:href="#md3b565ca15" x="174.88" y="192.24" style="stroke: #000000; stroke-width: 0.8"/>
      </g>
     </g>
     <g id="text_3">
      <!-- $\mathdefault{750}$ -->
      <g transform="translate(163.42 208.358125) scale(0.12 -0.12)">
       <defs>
        <path id="DejaVuSans-37" d="M 525 4666 
L 3525 4666 
L 3525 4397 
L 1831 0 
L 1172 0 
L 2766 4134 
L 525 4134 
L 525 4666 
z
" transform="scale(0.015625)"/>
       </defs>
       <use xlink:href="#DejaVuSans-37" transform="translate(0 0.78125)"/>
       <use xlink:href="#DejaVuSans-35" transform="translate(63.623047 0.78125)"/>
       <use xlink:href="#DejaVuSans-30" transform="translate(127.246094 0.78125)"/>
      </g>
     </g>
    </g>
    <g id="text_4">
     <!-- Diploid N$_e$1 -->
     <g transform="translate(80 227.01375) scale(0.16 -0.16)">
      <defs>
       <path id="DejaVuSans-44" d="M 1259 4147 
L 1259 519 
L 2022 519 
Q 2988 519 3436 956 
Q 3884 1394 3884 2338 
Q 3884 3275 3436 3711 
Q 2988 4147 2022 4147 
L 1259 4147 
z
M 628 4666 
L 1925 4666 
Q 3281 4666 3915 4102 
Q 4550 3538 4550 2338 
Q 4550 1131 3912 565 
Q 3275 0 1925 0 
L 628 0 
L 628 4666 
z
" transform="scale(0.015625)"/>
       <path id="DejaVuSans-69" d="M 603 3500 
L 1178 3500 
L 1178 0 
L 603 0 
L 603 3500 
z
M 603 4863 
L 1178 4863 
L 1178 4134 
L 603 4134 
L 603 4863 
z
" transform="scale(0.015625)"/>
       <path id="DejaVuSans-70" d="M 1159 525 
L 1159 -1331 
L 581 -1331 
L 581 3500 
L 1159 3500 
L 1159 2969 
Q 1341 3281 1617 3432 
Q 1894 3584 2278 3584 
Q 2916 3584 3314 3078 
Q 3713 2572 3713 1747 
Q 3713 922 3314 415 
Q 2916 -91 2278 -91 
Q 1894 -91 1617 61 
Q 1341 213 1159 525 
z
M 3116 1747 
Q 3116 2381 2855 2742 
Q 2594 3103 2138 3103 
Q 1681 3103 1420 2742 
Q 1159 2381 1159 1747 
Q 1159 1113 1420 752 
Q 1681 391 2138 391 
Q 2594 391 2855 752 
Q 3116 1113 3116 1747 
z
" transform="scale(0.015625)"/>
       <path id="DejaVuSans-6c" d="M 603 4863 
L 1178 4863 
L 1178 0 
L 603 0 
L 603 4863 
z
" transform="scale(0.015625)"/>
       <path id="DejaVuSans-6f" d="M 1959 3097 
Q 1497 3097 1228 2736 
Q 959 2375 959 1747 
Q 959 1119 1226 758 
Q 1494 397 1959 397 
Q 2419 397 2687 759 
Q 2956 1122 2956 1747 
Q 2956 2369 2687 2733 
Q 2419 3097 1959 3097 
z
M 1959 3584 
Q 2709 3584 3137 3096 
Q 3566 2609 3566 1747 
Q 3566 888 3137 398 
Q 2709 -91 1959 -91 
Q 1206 -91 779 398 
Q 353 888 353 1747 
Q 353 2609 779 3096 
Q 1206 3584 1959 3584 
z
" transform="scale(0.015625)"/>
       <path id="DejaVuSans-64" d="M 2906 2969 
L 2906 4863 
L 3481 4863 
L 3481 0 
L 2906 0 
L 2906 525 
Q 2725 213 2448 61 
Q 2172 -91 1784 -91 
Q 1150 -91 751 415 
Q 353 922 353 1747 
Q 353 2572 751 3078 
Q 1150 3584 1784 3584 
Q 2172 3584 2448 3432 
Q 2725 3281 2906 2969 
z
M 947 1747 
Q 947 1113 1208 752 
Q 1469 391 1925 391 
Q 2381 391 2643 752 
Q 2906 1113 2906 1747 
Q 2906 2381 2643 2742 
Q 2381 3103 1925 3103 
Q 1469 3103 1208 2742 
Q 947 2381 947 1747 
z
" transform="scale(0.015625)"/>
       <path id="DejaVuSans-20" transform="scale(0.015625)"/>
       <path id="DejaVuSans-4e" d="M 628 4666 
L 1478 4666 
L 3547 763 
L 3547 4666 
L 4159 4666 
L 4159 0 
L 3309 0 
L 1241 3903 
L 1241 0 
L 628 0 
L 628 4666 
z
" transform="scale(0.015625)"/>
       <path id="DejaVuSans-Oblique-65" d="M 3078 2063 
Q 3088 2113 3092 2166 
Q 3097 2219 3097 2272 
Q 3097 2653 2873 2875 
Q 2650 3097 2266 3097 
Q 1838 3097 1509 2826 
Q 1181 2556 1013 2059 
L 3078 2063 
z
M 3578 1613 
L 903 1613 
Q 884 1494 878 1425 
Q 872 1356 872 1306 
Q 872 872 1139 634 
Q 1406 397 1894 397 
Q 2269 397 2603 481 
Q 2938 566 3225 728 
L 3116 159 
Q 2806 34 2476 -28 
Q 2147 -91 1806 -91 
Q 1078 -91 686 257 
Q 294 606 294 1247 
Q 294 1794 489 2264 
Q 684 2734 1063 3103 
Q 1306 3334 1642 3459 
Q 1978 3584 2356 3584 
Q 2950 3584 3301 3228 
Q 3653 2872 3653 2272 
Q 3653 2128 3634 1964 
Q 3616 1800 3578 1613 
z
" transform="scale(0.015625)"/>
       <path id="DejaVuSans-31" d="M 794 531 
L 1825 531 
L 1825 4091 
L 703 3866 
L 703 4441 
L 1819 4666 
L 2450 4666 
L 2450 531 
L 3481 531 
L 3481 0 
L 794 0 
L 794 531 
z
" transform="scale(0.015625)"/>
      </defs>
      <use xlink:href="#DejaVuSans-44" transform="translate(0 0.015625)"/>
      <use xlink:href="#DejaVuSans-69" transform="translate(77.001953 0.015625)"/>
      <use xlink:href="#DejaVuSans-70" transform="translate(104.785156 0.015625)"/>
      <use xlink:href="#DejaVuSans-6c" transform="translate(168.261719 0.015625)"/>
      <use xlink:href="#DejaVuSans-6f" transform="translate(196.044922 0.015625)"/>
      <use xlink:href="#DejaVuSans-69" transform="translate(257.226562 0.015625)"/>
      <use xlink:href="#DejaVuSans-64" transform="translate(285.009766 0.015625)"/>
      <use xlink:href="#DejaVuSans-20" transform="translate(348.486328 0.015625)"/>
      <use xlink:href="#DejaVuSans-4e" transform="translate(380.273438 0.015625)"/>
      <use xlink:href="#DejaVuSans-Oblique-65" transform="translate(456.035156 -16.390625) scale(0.7)"/>
      <use xlink:href="#DejaVuSans-31" transform="translate(501.835938 0.015625)"/>
     </g>
    </g>
    <g id="text_5">
     <!-- $\times\mathdefault{10^{3}}\mathdefault{}$ -->
     <g transform="translate(188.56 221.452188) scale(0.1 -0.1)">
      <defs>
       <path id="DejaVuSans-d7" d="M 4488 3438 
L 3059 2003 
L 4488 575 
L 4116 197 
L 2681 1631 
L 1247 197 
L 878 575 
L 2303 2003 
L 878 3438 
L 1247 3816 
L 2681 2381 
L 4116 3816 
L 4488 3438 
z
" transform="scale(0.015625)"/>
       <path id="DejaVuSans-33" d="M 2597 2516 
Q 3050 2419 3304 2112 
Q 3559 1806 3559 1356 
Q 3559 666 3084 287 
Q 2609 -91 1734 -91 
Q 1441 -91 1130 -33 
Q 819 25 488 141 
L 488 750 
Q 750 597 1062 519 
Q 1375 441 1716 441 
Q 2309 441 2620 675 
Q 2931 909 2931 1356 
Q 2931 1769 2642 2001 
Q 2353 2234 1838 2234 
L 1294 2234 
L 1294 2753 
L 1863 2753 
Q 2328 2753 2575 2939 
Q 2822 3125 2822 3475 
Q 2822 3834 2567 4026 
Q 2313 4219 1838 4219 
Q 1578 4219 1281 4162 
Q 984 4106 628 3988 
L 628 4550 
Q 988 4650 1302 4700 
Q 1616 4750 1894 4750 
Q 2613 4750 3031 4423 
Q 3450 4097 3450 3541 
Q 3450 3153 3228 2886 
Q 3006 2619 2597 2516 
z
" transform="scale(0.015625)"/>
      </defs>
      <use xlink:href="#DejaVuSans-d7" transform="translate(0 0.765625)"/>
      <use xlink:href="#DejaVuSans-31" transform="translate(83.789062 0.765625)"/>
      <use xlink:href="#DejaVuSans-30" transform="translate(147.412109 0.765625)"/>
      <use xlink:href="#DejaVuSans-33" transform="translate(211.992188 39.046875) scale(0.7)"/>
     </g>
    </g>
   </g>
   <g id="matplotlib.axis_2">
    <g id="ytick_1">
     <g id="line2d_4">
      <defs>
       <path id="me11ed7108f" d="M 0 0 
L -3.5 0 
" style="stroke: #000000; stroke-width: 0.8"/>
      </defs>
      <g>
       <use xlink:href="#me11ed7108f" x="36" y="155.28" style="stroke: #000000; stroke-width: 0.8"/>
      </g>
     </g>
     <g id="text_6">
      <!-- $\mathdefault{250}$ -->
      <g transform="translate(6.08 159.839063) scale(0.12 -0.12)">
       <use xlink:href="#DejaVuSans-32" transform="translate(0 0.78125)"/>
       <use xlink:href="#DejaVuSans-35" transform="translate(63.623047 0.78125)"/>
       <use xlink:href="#DejaVuSans-30" transform="translate(127.246094 0.78125)"/>
      </g>
     </g>
    </g>
    <g id="ytick_2">
     <g id="line2d_5">
      <g>
       <use xlink:href="#me11ed7108f" x="36" y="109.08" style="stroke: #000000; stroke-width: 0.8"/>
      </g>
     </g>
     <g id="text_7">
      <!-- $\mathdefault{500}$ -->
      <g transform="translate(6.08 113.639062) scale(0.12 -0.12)">
       <use xlink:href="#DejaVuSans-35" transform="translate(0 0.78125)"/>
       <use xlink:href="#DejaVuSans-30" transform="translate(63.623047 0.78125)"/>
       <use xlink:href="#DejaVuSans-30" transform="translate(127.246094 0.78125)"/>
      </g>
     </g>
    </g>
    <g id="ytick_3">
     <g id="line2d_6">
      <g>
       <use xlink:href="#me11ed7108f" x="36" y="62.88" style="stroke: #000000; stroke-width: 0.8"/>
      </g>
     </g>
     <g id="text_8">
      <!-- $\mathdefault{750}$ -->
      <g transform="translate(6.08 67.439062) scale(0.12 -0.12)">
       <use xlink:href="#DejaVuSans-37" transform="translate(0 0.78125)"/>
       <use xlink:href="#DejaVuSans-35" transform="translate(63.623047 0.78125)"/>
       <use xlink:href="#DejaVuSans-30" transform="translate(127.246094 0.78125)"/>
      </g>
     </g>
    </g>
    <g id="text_9">
     <!-- Diploid N$_e$2 -->
     <g transform="translate(-1.28 154.36) rotate(-90) scale(0.16 -0.16)">
      <use xlink:href="#DejaVuSans-44" transform="translate(0 0.015625)"/>
      <use xlink:href="#DejaVuSans-69" transform="translate(77.001953 0.015625)"/>
      <use xlink:href="#DejaVuSans-70" transform="translate(104.785156 0.015625)"/>
      <use xlink:href="#DejaVuSans-6c" transform="translate(168.261719 0.015625)"/>
      <use xlink:href="#DejaVuSans-6f" transform="translate(196.044922 0.015625)"/>
      <use xlink:href="#DejaVuSans-69" transform="translate(257.226562 0.015625)"/>
      <use xlink:href="#DejaVuSans-64" transform="translate(285.009766 0.015625)"/>
      <use xlink:href="#DejaVuSans-20" transform="translate(348.486328 0.015625)"/>
      <use xlink:href="#DejaVuSans-4e" transform="translate(380.273438 0.015625)"/>
      <use xlink:href="#DejaVuSans-Oblique-65" transform="translate(456.035156 -16.390625) scale(0.7)"/>
      <use xlink:href="#DejaVuSans-32" transform="translate(501.835938 0.015625)"/>
     </g>
    </g>
    <g id="text_10">
     <!-- $\times\mathdefault{10^{3}}\mathdefault{}$ -->
     <g transform="translate(36 22.92) scale(0.1 -0.1)">
      <use xlink:href="#DejaVuSans-d7" transform="translate(0 0.765625)"/>
      <use xlink:href="#DejaVuSans-31" transform="translate(83.789062 0.765625)"/>
      <use xlink:href="#DejaVuSans-30" transform="translate(147.412109 0.765625)"/>
      <use xlink:href="#DejaVuSans-33" transform="translate(211.992188 39.046875) scale(0.7)"/>
     </g>
    </g>
   </g>
   <g id="patch_3">
    <path d="M 36 192.24 
L 36 25.92 
" style="fill: none; stroke: #000000; stroke-width: 0.8; stroke-linejoin: miter; stroke-linecap: square"/>
   </g>
   <g id="patch_4">
    <path d="M 214.56 192.24 
L 214.56 25.92 
" style="fill: none; stroke: #000000; stroke-width: 0.8; stroke-linejoin: miter; stroke-linecap: square"/>
   </g>
   <g id="patch_5">
    <path d="M 36 192.24 
L 214.56 192.24 
" style="fill: none; stroke: #000000; stroke-width: 0.8; stroke-linejoin: miter; stroke-linecap: square"/>
   </g>
   <g id="patch_6">
    <path d="M 36 25.92 
L 214.56 25.92 
" style="fill: none; stroke: #000000; stroke-width: 0.8; stroke-linejoin: miter; stroke-linecap: square"/>
   </g>
   <g id="text_11">
    <!-- Ne1Ne2-MSC-GT-P2-S4 -->
    <g transform="translate(33.735 10.92) scale(0.16 -0.16)">
     <defs>
      <path id="DejaVuSans-65" d="M 3597 1894 
L 3597 1613 
L 953 1613 
Q 991 1019 1311 708 
Q 1631 397 2203 397 
Q 2534 397 2845 478 
Q 3156 559 3463 722 
L 3463 178 
Q 3153 47 2828 -22 
Q 2503 -91 2169 -91 
Q 1331 -91 842 396 
Q 353 884 353 1716 
Q 353 2575 817 3079 
Q 1281 3584 2069 3584 
Q 2775 3584 3186 3129 
Q 3597 2675 3597 1894 
z
M 3022 2063 
Q 3016 2534 2758 2815 
Q 2500 3097 2075 3097 
Q 1594 3097 1305 2825 
Q 1016 2553 972 2059 
L 3022 2063 
z
" transform="scale(0.015625)"/>
      <path id="DejaVuSans-2d" d="M 313 2009 
L 1997 2009 
L 1997 1497 
L 313 1497 
L 313 2009 
z
" transform="scale(0.015625)"/>
      <path id="DejaVuSans-4d" d="M 628 4666 
L 1569 4666 
L 2759 1491 
L 3956 4666 
L 4897 4666 
L 4897 0 
L 4281 0 
L 4281 4097 
L 3078 897 
L 2444 897 
L 1241 4097 
L 1241 0 
L 628 0 
L 628 4666 
z
" transform="scale(0.015625)"/>
      <path id="DejaVuSans-53" d="M 3425 4513 
L 3425 3897 
Q 3066 4069 2747 4153 
Q 2428 4238 2131 4238 
Q 1616 4238 1336 4038 
Q 1056 3838 1056 3469 
Q 1056 3159 1242 3001 
Q 1428 2844 1947 2747 
L 2328 2669 
Q 3034 2534 3370 2195 
Q 3706 1856 3706 1288 
Q 3706 609 3251 259 
Q 2797 -91 1919 -91 
Q 1588 -91 1214 -16 
Q 841 59 441 206 
L 441 856 
Q 825 641 1194 531 
Q 1563 422 1919 422 
Q 2459 422 2753 634 
Q 3047 847 3047 1241 
Q 3047 1584 2836 1778 
Q 2625 1972 2144 2069 
L 1759 2144 
Q 1053 2284 737 2584 
Q 422 2884 422 3419 
Q 422 4038 858 4394 
Q 1294 4750 2059 4750 
Q 2388 4750 2728 4690 
Q 3069 4631 3425 4513 
z
" transform="scale(0.015625)"/>
      <path id="DejaVuSans-43" d="M 4122 4306 
L 4122 3641 
Q 3803 3938 3442 4084 
Q 3081 4231 2675 4231 
Q 1875 4231 1450 3742 
Q 1025 3253 1025 2328 
Q 1025 1406 1450 917 
Q 1875 428 2675 428 
Q 3081 428 3442 575 
Q 3803 722 4122 1019 
L 4122 359 
Q 3791 134 3420 21 
Q 3050 -91 2638 -91 
Q 1578 -91 968 557 
Q 359 1206 359 2328 
Q 359 3453 968 4101 
Q 1578 4750 2638 4750 
Q 3056 4750 3426 4639 
Q 3797 4528 4122 4306 
z
" transform="scale(0.015625)"/>
      <path id="DejaVuSans-47" d="M 3809 666 
L 3809 1919 
L 2778 1919 
L 2778 2438 
L 4434 2438 
L 4434 434 
Q 4069 175 3628 42 
Q 3188 -91 2688 -91 
Q 1594 -91 976 548 
Q 359 1188 359 2328 
Q 359 3472 976 4111 
Q 1594 4750 2688 4750 
Q 3144 4750 3555 4637 
Q 3966 4525 4313 4306 
L 4313 3634 
Q 3963 3931 3569 4081 
Q 3175 4231 2741 4231 
Q 1884 4231 1454 3753 
Q 1025 3275 1025 2328 
Q 1025 1384 1454 906 
Q 1884 428 2741 428 
Q 3075 428 3337 486 
Q 3600 544 3809 666 
z
" transform="scale(0.015625)"/>
      <path id="DejaVuSans-54" d="M -19 4666 
L 3928 4666 
L 3928 4134 
L 2272 4134 
L 2272 0 
L 1638 0 
L 1638 4134 
L -19 4134 
L -19 4666 
z
" transform="scale(0.015625)"/>
      <path id="DejaVuSans-50" d="M 1259 4147 
L 1259 2394 
L 2053 2394 
Q 2494 2394 2734 2622 
Q 2975 2850 2975 3272 
Q 2975 3691 2734 3919 
Q 2494 4147 2053 4147 
L 1259 4147 
z
M 628 4666 
L 2053 4666 
Q 2838 4666 3239 4311 
Q 3641 3956 3641 3272 
Q 3641 2581 3239 2228 
Q 2838 1875 2053 1875 
L 1259 1875 
L 1259 0 
L 628 0 
L 628 4666 
z
" transform="scale(0.015625)"/>
      <path id="DejaVuSans-34" d="M 2419 4116 
L 825 1625 
L 2419 1625 
L 2419 4116 
z
M 2253 4666 
L 3047 4666 
L 3047 1625 
L 3713 1625 
L 3713 1100 
L 3047 1100 
L 3047 0 
L 2419 0 
L 2419 1100 
L 313 1100 
L 313 1709 
L 2253 4666 
z
" transform="scale(0.015625)"/>
     </defs>
     <use xlink:href="#DejaVuSans-4e"/>
     <use xlink:href="#DejaVuSans-65" x="74.804688"/>
     <use xlink:href="#DejaVuSans-31" x="136.328125"/>
     <use xlink:href="#DejaVuSans-4e" x="199.951172"/>
     <use xlink:href="#DejaVuSans-65" x="274.755859"/>
     <use xlink:href="#DejaVuSans-32" x="336.279297"/>
     <use xlink:href="#DejaVuSans-2d" x="399.902344"/>
     <use xlink:href="#DejaVuSans-4d" x="435.986328"/>
     <use xlink:href="#DejaVuSans-53" x="522.265625"/>
     <use xlink:href="#DejaVuSans-43" x="585.742188"/>
     <use xlink:href="#DejaVuSans-2d" x="655.566406"/>
     <use xlink:href="#DejaVuSans-47" x="695.275391"/>
     <use xlink:href="#DejaVuSans-54" x="769.140625"/>
     <use xlink:href="#DejaVuSans-2d" x="821.099609"/>
     <use xlink:href="#DejaVuSans-50" x="857.183594"/>
     <use xlink:href="#DejaVuSans-32" x="917.486328"/>
     <use xlink:href="#DejaVuSans-2d" x="981.109375"/>
     <use xlink:href="#DejaVuSans-53" x="1017.193359"/>
     <use xlink:href="#DejaVuSans-34" x="1080.669922"/>
    </g>
   </g>
  </g>
  <g id="axes_2">
   <g id="patch_7">
    <path d="M 225.72 192.24 
L 234.036 192.24 
L 234.036 25.92 
L 225.72 25.92 
z
" style="fill: #ffffff"/>
   </g>
   <g id="QuadMesh_1">
    <path d="M 225.72 192.24 
L 234.036 192.24 
L 234.036 186.08 
L 225.72 186.08 
L 225.72 192.24 
" clip-path="url(#pd44c46262a)" style="fill: #440154"/>
    <path d="M 225.72 186.08 
L 234.036 186.08 
L 234.036 179.92 
L 225.72 179.92 
L 225.72 186.08 
" clip-path="url(#pd44c46262a)" style="fill: #440154"/>
    <path d="M 225.72 179.92 
L 234.036 179.92 
L 234.036 173.76 
L 225.72 173.76 
L 225.72 179.92 
" clip-path="url(#pd44c46262a)" style="fill: #440154"/>
    <path d="M 225.72 173.76 
L 234.036 173.76 
L 234.036 167.6 
L 225.72 167.6 
L 225.72 173.76 
" clip-path="url(#pd44c46262a)" style="fill: #440154"/>
    <path d="M 225.72 167.6 
L 234.036 167.6 
L 234.036 161.44 
L 225.72 161.44 
L 225.72 167.6 
" clip-path="url(#pd44c46262a)" style="fill: #440154"/>
    <path d="M 225.72 161.44 
L 234.036 161.44 
L 234.036 155.28 
L 225.72 155.28 
L 225.72 161.44 
" clip-path="url(#pd44c46262a)" style="fill: #440154"/>
    <path d="M 225.72 155.28 
L 234.036 155.28 
L 234.036 149.12 
L 225.72 149.12 
L 225.72 155.28 
" clip-path="url(#pd44c46262a)" style="fill: #440154"/>
    <path d="M 225.72 149.12 
L 234.036 149.12 
L 234.036 142.96 
L 225.72 142.96 
L 225.72 149.12 
" clip-path="url(#pd44c46262a)" style="fill: #440154"/>
    <path d="M 225.72 142.96 
L 234.036 142.96 
L 234.036 136.8 
L 225.72 136.8 
L 225.72 142.96 
" clip-path="url(#pd44c46262a)" style="fill: #440154"/>
    <path d="M 225.72 136.8 
L 234.036 136.8 
L 234.036 130.64 
L 225.72 130.64 
L 225.72 136.8 
" clip-path="url(#pd44c46262a)" style="fill: #440154"/>
    <path d="M 225.72 130.64 
L 234.036 130.64 
L 234.036 124.48 
L 225.72 124.48 
L 225.72 130.64 
" clip-path="url(#pd44c46262a)" style="fill: #440154"/>
    <path d="M 225.72 124.48 
L 234.036 124.48 
L 234.036 118.32 
L 225.72 118.32 
L 225.72 124.48 
" clip-path="url(#pd44c46262a)" style="fill: #440154"/>
    <path d="M 225.72 118.32 
L 234.036 118.32 
L 234.036 112.16 
L 225.72 112.16 
L 225.72 118.32 
" clip-path="url(#pd44c46262a)" style="fill: #440154"/>
    <path d="M 225.72 112.16 
L 234.036 112.16 
L 234.036 106 
L 225.72 106 
L 225.72 112.16 
" clip-path="url(#pd44c46262a)" style="fill: #450457"/>
    <path d="M 225.72 106 
L 234.036 106 
L 234.036 99.84 
L 225.72 99.84 
L 225.72 106 
" clip-path="url(#pd44c46262a)" style="fill: #481f70"/>
    <path d="M 225.72 99.84 
L 234.036 99.84 
L 234.036 93.68 
L 225.72 93.68 
L 225.72 99.84 
" clip-path="url(#pd44c46262a)" style="fill: #453781"/>
    <path d="M 225.72 93.68 
L 234.036 93.68 
L 234.036 87.52 
L 225.72 87.52 
L 225.72 93.68 
" clip-path="url(#pd44c46262a)" style="fill: #3d4d8a"/>
    <path d="M 225.72 87.52 
L 234.036 87.52 
L 234.036 81.36 
L 225.72 81.36 
L 225.72 87.52 
" clip-path="url(#pd44c46262a)" style="fill: #34608d"/>
    <path d="M 225.72 81.36 
L 234.036 81.36 
L 234.036 75.2 
L 225.72 75.2 
L 225.72 81.36 
" clip-path="url(#pd44c46262a)" style="fill: #2c728e"/>
    <path d="M 225.72 75.2 
L 234.036 75.2 
L 234.036 69.04 
L 225.72 69.04 
L 225.72 75.2 
" clip-path="url(#pd44c46262a)" style="fill: #25848e"/>
    <path d="M 225.72 69.04 
L 234.036 69.04 
L 234.036 62.88 
L 225.72 62.88 
L 225.72 69.04 
" clip-path="url(#pd44c46262a)" style="fill: #1f968b"/>
    <path d="M 225.72 62.88 
L 234.036 62.88 
L 234.036 56.72 
L 225.72 56.72 
L 225.72 62.88 
" clip-path="url(#pd44c46262a)" style="fill: #22a785"/>
    <path d="M 225.72 56.72 
L 234.036 56.72 
L 234.036 50.56 
L 225.72 50.56 
L 225.72 56.72 
" clip-path="url(#pd44c46262a)" style="fill: #37b878"/>
    <path d="M 225.72 50.56 
L 234.036 50.56 
L 234.036 44.4 
L 225.72 44.4 
L 225.72 50.56 
" clip-path="url(#pd44c46262a)" style="fill: #5ac864"/>
    <path d="M 225.72 44.4 
L 234.036 44.4 
L 234.036 38.24 
L 225.72 38.24 
L 225.72 44.4 
" clip-path="url(#pd44c46262a)" style="fill: #86d549"/>
    <path d="M 225.72 38.24 
L 234.036 38.24 
L 234.036 32.08 
L 225.72 32.08 
L 225.72 38.24 
" clip-path="url(#pd44c46262a)" style="fill: #b5de2b"/>
    <path d="M 225.72 32.08 
L 234.036 32.08 
L 234.036 25.92 
L 225.72 25.92 
L 225.72 32.08 
" clip-path="url(#pd44c46262a)" style="fill: #e7e419"/>
   </g>
   <g id="matplotlib.axis_3"/>
   <g id="matplotlib.axis_4">
    <g id="ytick_4">
     <g id="line2d_7">
      <defs>
       <path id="mf87b271e4b" d="M 0 0 
L 3.5 0 
" style="stroke: #000000; stroke-width: 0.8"/>
      </defs>
      <g>
       <use xlink:href="#mf87b271e4b" x="234.036" y="192.24" style="stroke: #000000; stroke-width: 0.8"/>
      </g>
     </g>
     <g id="text_12">
      <!-- $\mathdefault{6900}$ -->
      <g transform="translate(241.036 196.039219) scale(0.1 -0.1)">
       <defs>
        <path id="DejaVuSans-2212" d="M 678 2272 
L 4684 2272 
L 4684 1741 
L 678 1741 
L 678 2272 
z
" transform="scale(0.015625)"/>
        <path id="DejaVuSans-36" d="M 2113 2584 
Q 1688 2584 1439 2293 
Q 1191 2003 1191 1497 
Q 1191 994 1439 701 
Q 1688 409 2113 409 
Q 2538 409 2786 701 
Q 3034 994 3034 1497 
Q 3034 2003 2786 2293 
Q 2538 2584 2113 2584 
z
M 3366 4563 
L 3366 3988 
Q 3128 4100 2886 4159 
Q 2644 4219 2406 4219 
Q 1781 4219 1451 3797 
Q 1122 3375 1075 2522 
Q 1259 2794 1537 2939 
Q 1816 3084 2150 3084 
Q 2853 3084 3261 2657 
Q 3669 2231 3669 1497 
Q 3669 778 3244 343 
Q 2819 -91 2113 -91 
Q 1303 -91 875 529 
Q 447 1150 447 2328 
Q 447 3434 972 4092 
Q 1497 4750 2381 4750 
Q 2619 4750 2861 4703 
Q 3103 4656 3366 4563 
z
" transform="scale(0.015625)"/>
        <path id="DejaVuSans-39" d="M 703 97 
L 703 672 
Q 941 559 1184 500 
Q 1428 441 1663 441 
Q 2288 441 2617 861 
Q 2947 1281 2994 2138 
Q 2813 1869 2534 1725 
Q 2256 1581 1919 1581 
Q 1219 1581 811 2004 
Q 403 2428 403 3163 
Q 403 3881 828 4315 
Q 1253 4750 1959 4750 
Q 2769 4750 3195 4129 
Q 3622 3509 3622 2328 
Q 3622 1225 3098 567 
Q 2575 -91 1691 -91 
Q 1453 -91 1209 -44 
Q 966 3 703 97 
z
M 1959 2075 
Q 2384 2075 2632 2365 
Q 2881 2656 2881 3163 
Q 2881 3666 2632 3958 
Q 2384 4250 1959 4250 
Q 1534 4250 1286 3958 
Q 1038 3666 1038 3163 
Q 1038 2656 1286 2365 
Q 1534 2075 1959 2075 
z
" transform="scale(0.015625)"/>
       </defs>
       <use xlink:href="#DejaVuSans-2212" transform="translate(0 0.78125)"/>
       <use xlink:href="#DejaVuSans-36" transform="translate(83.789062 0.78125)"/>
       <use xlink:href="#DejaVuSans-39" transform="translate(147.412109 0.78125)"/>
       <use xlink:href="#DejaVuSans-30" transform="translate(211.035156 0.78125)"/>
       <use xlink:href="#DejaVuSans-30" transform="translate(274.658203 0.78125)"/>
      </g>
     </g>
    </g>
    <g id="ytick_5">
     <g id="line2d_8">
      <g>
       <use xlink:href="#mf87b271e4b" x="234.036" y="173.76" style="stroke: #000000; stroke-width: 0.8"/>
      </g>
     </g>
     <g id="text_13">
      <!-- $\mathdefault{6750}$ -->
      <g transform="translate(241.036 177.559219) scale(0.1 -0.1)">
       <use xlink:href="#DejaVuSans-2212" transform="translate(0 0.78125)"/>
       <use xlink:href="#DejaVuSans-36" transform="translate(83.789062 0.78125)"/>
       <use xlink:href="#DejaVuSans-37" transform="translate(147.412109 0.78125)"/>
       <use xlink:href="#DejaVuSans-35" transform="translate(211.035156 0.78125)"/>
       <use xlink:href="#DejaVuSans-30" transform="translate(274.658203 0.78125)"/>
      </g>
     </g>
    </g>
    <g id="ytick_6">
     <g id="line2d_9">
      <g>
       <use xlink:href="#mf87b271e4b" x="234.036" y="155.28" style="stroke: #000000; stroke-width: 0.8"/>
      </g>
     </g>
     <g id="text_14">
      <!-- $\mathdefault{6600}$ -->
      <g transform="translate(241.036 159.079219) scale(0.1 -0.1)">
       <use xlink:href="#DejaVuSans-2212" transform="translate(0 0.78125)"/>
       <use xlink:href="#DejaVuSans-36" transform="translate(83.789062 0.78125)"/>
       <use xlink:href="#DejaVuSans-36" transform="translate(147.412109 0.78125)"/>
       <use xlink:href="#DejaVuSans-30" transform="translate(211.035156 0.78125)"/>
       <use xlink:href="#DejaVuSans-30" transform="translate(274.658203 0.78125)"/>
      </g>
     </g>
    </g>
    <g id="ytick_7">
     <g id="line2d_10">
      <g>
       <use xlink:href="#mf87b271e4b" x="234.036" y="136.8" style="stroke: #000000; stroke-width: 0.8"/>
      </g>
     </g>
     <g id="text_15">
      <!-- $\mathdefault{6450}$ -->
      <g transform="translate(241.036 140.599219) scale(0.1 -0.1)">
       <use xlink:href="#DejaVuSans-2212" transform="translate(0 0.78125)"/>
       <use xlink:href="#DejaVuSans-36" transform="translate(83.789062 0.78125)"/>
       <use xlink:href="#DejaVuSans-34" transform="translate(147.412109 0.78125)"/>
       <use xlink:href="#DejaVuSans-35" transform="translate(211.035156 0.78125)"/>
       <use xlink:href="#DejaVuSans-30" transform="translate(274.658203 0.78125)"/>
      </g>
     </g>
    </g>
    <g id="ytick_8">
     <g id="line2d_11">
      <g>
       <use xlink:href="#mf87b271e4b" x="234.036" y="118.32" style="stroke: #000000; stroke-width: 0.8"/>
      </g>
     </g>
     <g id="text_16">
      <!-- $\mathdefault{6300}$ -->
      <g transform="translate(241.036 122.119219) scale(0.1 -0.1)">
       <use xlink:href="#DejaVuSans-2212" transform="translate(0 0.78125)"/>
       <use xlink:href="#DejaVuSans-36" transform="translate(83.789062 0.78125)"/>
       <use xlink:href="#DejaVuSans-33" transform="translate(147.412109 0.78125)"/>
       <use xlink:href="#DejaVuSans-30" transform="translate(211.035156 0.78125)"/>
       <use xlink:href="#DejaVuSans-30" transform="translate(274.658203 0.78125)"/>
      </g>
     </g>
    </g>
    <g id="ytick_9">
     <g id="line2d_12">
      <g>
       <use xlink:href="#mf87b271e4b" x="234.036" y="99.84" style="stroke: #000000; stroke-width: 0.8"/>
      </g>
     </g>
     <g id="text_17">
      <!-- $\mathdefault{6150}$ -->
      <g transform="translate(241.036 103.639219) scale(0.1 -0.1)">
       <use xlink:href="#DejaVuSans-2212" transform="translate(0 0.78125)"/>
       <use xlink:href="#DejaVuSans-36" transform="translate(83.789062 0.78125)"/>
       <use xlink:href="#DejaVuSans-31" transform="translate(147.412109 0.78125)"/>
       <use xlink:href="#DejaVuSans-35" transform="translate(211.035156 0.78125)"/>
       <use xlink:href="#DejaVuSans-30" transform="translate(274.658203 0.78125)"/>
      </g>
     </g>
    </g>
    <g id="ytick_10">
     <g id="line2d_13">
      <g>
       <use xlink:href="#mf87b271e4b" x="234.036" y="81.36" style="stroke: #000000; stroke-width: 0.8"/>
      </g>
     </g>
     <g id="text_18">
      <!-- $\mathdefault{6000}$ -->
      <g transform="translate(241.036 85.159219) scale(0.1 -0.1)">
       <use xlink:href="#DejaVuSans-2212" transform="translate(0 0.78125)"/>
       <use xlink:href="#DejaVuSans-36" transform="translate(83.789062 0.78125)"/>
       <use xlink:href="#DejaVuSans-30" transform="translate(147.412109 0.78125)"/>
       <use xlink:href="#DejaVuSans-30" transform="translate(211.035156 0.78125)"/>
       <use xlink:href="#DejaVuSans-30" transform="translate(274.658203 0.78125)"/>
      </g>
     </g>
    </g>
    <g id="ytick_11">
     <g id="line2d_14">
      <g>
       <use xlink:href="#mf87b271e4b" x="234.036" y="62.88" style="stroke: #000000; stroke-width: 0.8"/>
      </g>
     </g>
     <g id="text_19">
      <!-- $\mathdefault{5850}$ -->
      <g transform="translate(241.036 66.679219) scale(0.1 -0.1)">
       <defs>
        <path id="DejaVuSans-38" d="M 2034 2216 
Q 1584 2216 1326 1975 
Q 1069 1734 1069 1313 
Q 1069 891 1326 650 
Q 1584 409 2034 409 
Q 2484 409 2743 651 
Q 3003 894 3003 1313 
Q 3003 1734 2745 1975 
Q 2488 2216 2034 2216 
z
M 1403 2484 
Q 997 2584 770 2862 
Q 544 3141 544 3541 
Q 544 4100 942 4425 
Q 1341 4750 2034 4750 
Q 2731 4750 3128 4425 
Q 3525 4100 3525 3541 
Q 3525 3141 3298 2862 
Q 3072 2584 2669 2484 
Q 3125 2378 3379 2068 
Q 3634 1759 3634 1313 
Q 3634 634 3220 271 
Q 2806 -91 2034 -91 
Q 1263 -91 848 271 
Q 434 634 434 1313 
Q 434 1759 690 2068 
Q 947 2378 1403 2484 
z
M 1172 3481 
Q 1172 3119 1398 2916 
Q 1625 2713 2034 2713 
Q 2441 2713 2670 2916 
Q 2900 3119 2900 3481 
Q 2900 3844 2670 4047 
Q 2441 4250 2034 4250 
Q 1625 4250 1398 4047 
Q 1172 3844 1172 3481 
z
" transform="scale(0.015625)"/>
       </defs>
       <use xlink:href="#DejaVuSans-2212" transform="translate(0 0.78125)"/>
       <use xlink:href="#DejaVuSans-35" transform="translate(83.789062 0.78125)"/>
       <use xlink:href="#DejaVuSans-38" transform="translate(147.412109 0.78125)"/>
       <use xlink:href="#DejaVuSans-35" transform="translate(211.035156 0.78125)"/>
       <use xlink:href="#DejaVuSans-30" transform="translate(274.658203 0.78125)"/>
      </g>
     </g>
    </g>
    <g id="ytick_12">
     <g id="line2d_15">
      <g>
       <use xlink:href="#mf87b271e4b" x="234.036" y="44.4" style="stroke: #000000; stroke-width: 0.8"/>
      </g>
     </g>
     <g id="text_20">
      <!-- $\mathdefault{5700}$ -->
      <g transform="translate(241.036 48.199219) scale(0.1 -0.1)">
       <use xlink:href="#DejaVuSans-2212" transform="translate(0 0.78125)"/>
       <use xlink:href="#DejaVuSans-35" transform="translate(83.789062 0.78125)"/>
       <use xlink:href="#DejaVuSans-37" transform="translate(140.162109 0.78125)"/>
       <use xlink:href="#DejaVuSans-30" transform="translate(203.785156 0.78125)"/>
       <use xlink:href="#DejaVuSans-30" transform="translate(267.408203 0.78125)"/>
      </g>
     </g>
    </g>
    <g id="ytick_13">
     <g id="line2d_16">
      <g>
       <use xlink:href="#mf87b271e4b" x="234.036" y="25.92" style="stroke: #000000; stroke-width: 0.8"/>
      </g>
     </g>
     <g id="text_21">
      <!-- $\mathdefault{5550}$ -->
      <g transform="translate(241.036 29.719219) scale(0.1 -0.1)">
       <use xlink:href="#DejaVuSans-2212" transform="translate(0 0.78125)"/>
       <use xlink:href="#DejaVuSans-35" transform="translate(83.789062 0.78125)"/>
       <use xlink:href="#DejaVuSans-35" transform="translate(147.412109 0.78125)"/>
       <use xlink:href="#DejaVuSans-35" transform="translate(211.035156 0.78125)"/>
       <use xlink:href="#DejaVuSans-30" transform="translate(274.658203 0.78125)"/>
      </g>
     </g>
    </g>
    <g id="text_22">
     <!-- log likelihood -->
     <g transform="translate(288.054125 148.704375) rotate(-90) scale(0.12 -0.12)">
      <defs>
       <path id="DejaVuSans-67" d="M 2906 1791 
Q 2906 2416 2648 2759 
Q 2391 3103 1925 3103 
Q 1463 3103 1205 2759 
Q 947 2416 947 1791 
Q 947 1169 1205 825 
Q 1463 481 1925 481 
Q 2391 481 2648 825 
Q 2906 1169 2906 1791 
z
M 3481 434 
Q 3481 -459 3084 -895 
Q 2688 -1331 1869 -1331 
Q 1566 -1331 1297 -1286 
Q 1028 -1241 775 -1147 
L 775 -588 
Q 1028 -725 1275 -790 
Q 1522 -856 1778 -856 
Q 2344 -856 2625 -561 
Q 2906 -266 2906 331 
L 2906 616 
Q 2728 306 2450 153 
Q 2172 0 1784 0 
Q 1141 0 747 490 
Q 353 981 353 1791 
Q 353 2603 747 3093 
Q 1141 3584 1784 3584 
Q 2172 3584 2450 3431 
Q 2728 3278 2906 2969 
L 2906 3500 
L 3481 3500 
L 3481 434 
z
" transform="scale(0.015625)"/>
       <path id="DejaVuSans-6b" d="M 581 4863 
L 1159 4863 
L 1159 1991 
L 2875 3500 
L 3609 3500 
L 1753 1863 
L 3688 0 
L 2938 0 
L 1159 1709 
L 1159 0 
L 581 0 
L 581 4863 
z
" transform="scale(0.015625)"/>
       <path id="DejaVuSans-68" d="M 3513 2113 
L 3513 0 
L 2938 0 
L 2938 2094 
Q 2938 2591 2744 2837 
Q 2550 3084 2163 3084 
Q 1697 3084 1428 2787 
Q 1159 2491 1159 1978 
L 1159 0 
L 581 0 
L 581 4863 
L 1159 4863 
L 1159 2956 
Q 1366 3272 1645 3428 
Q 1925 3584 2291 3584 
Q 2894 3584 3203 3211 
Q 3513 2838 3513 2113 
z
" transform="scale(0.015625)"/>
      </defs>
      <use xlink:href="#DejaVuSans-6c"/>
      <use xlink:href="#DejaVuSans-6f" x="27.783203"/>
      <use xlink:href="#DejaVuSans-67" x="88.964844"/>
      <use xlink:href="#DejaVuSans-20" x="152.441406"/>
      <use xlink:href="#DejaVuSans-6c" x="184.228516"/>
      <use xlink:href="#DejaVuSans-69" x="212.011719"/>
      <use xlink:href="#DejaVuSans-6b" x="239.794922"/>
      <use xlink:href="#DejaVuSans-65" x="294.080078"/>
      <use xlink:href="#DejaVuSans-6c" x="355.603516"/>
      <use xlink:href="#DejaVuSans-69" x="383.386719"/>
      <use xlink:href="#DejaVuSans-68" x="411.169922"/>
      <use xlink:href="#DejaVuSans-6f" x="474.548828"/>
      <use xlink:href="#DejaVuSans-6f" x="535.730469"/>
      <use xlink:href="#DejaVuSans-64" x="596.912109"/>
     </g>
    </g>
    <g id="text_23">
     <!-- $\times\mathdefault{10^{3}}\mathdefault{}$ -->
     <g transform="translate(208.036 22.92) scale(0.1 -0.1)">
      <use xlink:href="#DejaVuSans-d7" transform="translate(0 0.765625)"/>
      <use xlink:href="#DejaVuSans-31" transform="translate(83.789062 0.765625)"/>
      <use xlink:href="#DejaVuSans-30" transform="translate(147.412109 0.765625)"/>
      <use xlink:href="#DejaVuSans-33" transform="translate(211.992188 39.046875) scale(0.7)"/>
     </g>
    </g>
   </g>
   <g id="LineCollection_1"/>
   <g id="patch_8">
    <path d="M 225.72 192.24 
L 229.878 192.24 
L 234.036 192.24 
L 234.036 25.92 
L 229.878 25.92 
L 225.72 25.92 
L 225.72 192.24 
z
" style="fill: none; stroke: #000000; stroke-width: 0.8; stroke-linejoin: miter; stroke-linecap: square"/>
   </g>
  </g>
 </g>
 <defs>
  <clipPath id="pe489d1ff23">
   <rect x="36" y="25.92" width="178.56" height="166.32"/>
  </clipPath>
  <clipPath id="pd44c46262a">
   <rect x="225.72" y="25.92" width="8.316" height="166.32"/>
  </clipPath>
 </defs>
</svg>
