<?xml version="1.0" encoding="utf-8" standalone="no"?>
<!DOCTYPE svg PUBLIC "-//W3C//DTD SVG 1.1//EN"
  "http://www.w3.org/Graphics/SVG/1.1/DTD/svg11.dtd">
<svg xmlns:xlink="http://www.w3.org/1999/xlink" width="288pt" height="216pt" viewBox="0 0 288 216" xmlns="http://www.w3.org/2000/svg" version="1.1">
 <metadata>
  <rdf:RDF xmlns:dc="http://purl.org/dc/elements/1.1/" xmlns:cc="http://creativecommons.org/ns#" xmlns:rdf="http://www.w3.org/1999/02/22-rdf-syntax-ns#">
   <cc:Work>
    <dc:type rdf:resource="http://purl.org/dc/dcmitype/StillImage"/>
    <dc:date>2023-07-18T18:01:14.468431</dc:date>
    <dc:format>image/svg+xml</dc:format>
    <dc:creator>
     <cc:Agent>
      <dc:title>Matplotlib v3.7.1, https://matplotlib.org/</dc:title>
     </cc:Agent>
    </dc:creator>
   </cc:Work>
  </rdf:RDF>
 </metadata>
 <defs>
  <style type="text/css">*{stroke-linejoin: round; stroke-linecap: butt}</style>
 </defs>
 <g id="figure_1">
  <g id="patch_1">
   <path d="M 0 216 
L 288 216 
L 288 0 
L 0 0 
z
" style="fill: #ffffff"/>
  </g>
  <g id="axes_1">
   <g id="patch_2">
    <path d="M 36 192.24 
L 214.56 192.24 
L 214.56 25.92 
L 36 25.92 
z
" style="fill: #ffffff"/>
   </g>
   <g id="PathCollection_1">
    <path d="M 41.952 191.951196 
L 44.757761 192.24 
L 41.952 192.24 
L 36 192.24 
L 36 191.205949 
z
" clip-path="url(#p47e37a6d28)" style="fill: #440154"/>
   </g>
   <g id="PathCollection_2">
    <path d="M 41.952 190.589702 
L 47.904 191.195305 
L 53.856 191.704834 
L 59.808 192.139708 
L 61.403521 192.24 
L 59.808 192.24 
L 53.856 192.24 
L 47.904 192.24 
L 44.757761 192.24 
L 41.952 191.951196 
L 36 191.205949 
L 36 189.855387 
z
" clip-path="url(#p47e37a6d28)" style="fill: #440154"/>
   </g>
   <g id="PathCollection_3">
    <path d="M 41.952 189.228208 
L 47.904 189.824558 
L 53.856 190.326147 
L 59.808 190.75414 
L 65.76 191.123446 
L 71.712 191.445103 
L 77.664 191.727542 
L 83.616 191.977338 
L 89.568 192.199704 
L 90.774859 192.24 
L 89.568 192.24 
L 83.616 192.24 
L 77.664 192.24 
L 71.712 192.24 
L 65.76 192.24 
L 61.403521 192.24 
L 59.808 192.139708 
L 53.856 191.704834 
L 47.904 191.195305 
L 41.952 190.589702 
L 36 189.855387 
L 36 188.504825 
z
" clip-path="url(#p47e37a6d28)" style="fill: #440154"/>
   </g>
   <g id="PathCollection_4">
    <path d="M 41.952 187.866714 
L 47.904 188.453811 
L 53.856 188.947461 
L 59.808 189.368571 
L 65.76 189.731862 
L 71.712 190.048224 
L 77.664 190.32597 
L 83.616 190.571584 
L 89.568 190.790201 
L 95.52 190.985938 
L 101.472 191.162133 
L 107.424 191.321518 
L 113.376 191.466348 
L 119.328 191.598497 
L 125.28 191.719538 
L 131.232 191.830795 
L 137.184 191.933395 
L 143.136 192.028298 
L 149.088 192.116332 
L 155.04 192.198209 
L 158.299841 192.24 
L 155.04 192.24 
L 149.088 192.24 
L 143.136 192.24 
L 137.184 192.24 
L 131.232 192.24 
L 125.28 192.24 
L 119.328 192.24 
L 113.376 192.24 
L 107.424 192.24 
L 101.472 192.24 
L 95.52 192.24 
L 90.774859 192.24 
L 89.568 192.199704 
L 83.616 191.977338 
L 77.664 191.727542 
L 71.712 191.445103 
L 65.76 191.123446 
L 59.808 190.75414 
L 53.856 190.326147 
L 47.904 189.824558 
L 41.952 189.228208 
L 36 188.504825 
L 36 187.154263 
z
" clip-path="url(#p47e37a6d28)" style="fill: #440154"/>
   </g>
   <g id="PathCollection_5">
    <path d="M 36 186.696 
L 36 185.681974 
L 41.952 186.478954 
L 43.926025 186.696 
L 47.904 187.083065 
L 53.856 187.568775 
L 59.808 187.983003 
L 65.76 188.340278 
L 71.712 188.651345 
L 77.664 188.924399 
L 83.616 189.16583 
L 89.568 189.380698 
L 95.52 189.573058 
L 101.472 189.746197 
L 107.424 189.902803 
L 113.376 190.045097 
L 119.328 190.174923 
L 125.28 190.293828 
L 131.232 190.403116 
L 137.184 190.503894 
L 143.136 190.597108 
L 149.088 190.68357 
L 155.04 190.763982 
L 160.992 190.83895 
L 166.944 190.909007 
L 172.896 190.974614 
L 178.848 191.03618 
L 184.8 191.094066 
L 190.752 191.148588 
L 196.704 191.200031 
L 202.656 191.248647 
L 208.608 191.294661 
L 214.56 191.338276 
L 214.56 192.24 
L 208.608 192.24 
L 202.656 192.24 
L 196.704 192.24 
L 190.752 192.24 
L 184.8 192.24 
L 178.848 192.24 
L 172.896 192.24 
L 166.944 192.24 
L 160.992 192.24 
L 158.299841 192.24 
L 155.04 192.198209 
L 149.088 192.116332 
L 143.136 192.028298 
L 137.184 191.933395 
L 131.232 191.830795 
L 125.28 191.719538 
L 119.328 191.598497 
L 113.376 191.466348 
L 107.424 191.321518 
L 101.472 191.162133 
L 95.52 190.985938 
L 89.568 190.790201 
L 83.616 190.571584 
L 77.664 190.32597 
L 71.712 190.048224 
L 65.76 189.731862 
L 59.808 189.368571 
L 53.856 188.947461 
L 47.904 188.453811 
L 41.952 187.866714 
L 36 187.154263 
z
" clip-path="url(#p47e37a6d28)" style="fill: #440154"/>
   </g>
   <g id="PathCollection_6">
    <path d="M 41.952 184.930015 
L 47.904 185.575841 
L 53.856 186.119435 
L 59.808 186.58359 
L 61.483377 186.696 
L 65.76 186.948695 
L 71.712 187.254465 
L 77.664 187.522827 
L 83.616 187.760076 
L 89.568 187.971195 
L 95.52 188.160178 
L 101.472 188.33026 
L 107.424 188.484088 
L 113.376 188.623846 
L 119.328 188.75135 
L 125.28 188.868119 
L 131.232 188.975437 
L 137.184 189.074394 
L 143.136 189.165918 
L 149.088 189.250809 
L 155.04 189.329755 
L 160.992 189.403354 
L 166.944 189.472128 
L 172.896 189.536533 
L 178.848 189.596968 
L 184.8 189.653788 
L 190.752 189.707305 
L 196.704 189.757799 
L 202.656 189.805515 
L 208.608 189.850678 
L 214.56 189.893484 
L 214.56 191.338276 
L 208.608 191.294661 
L 202.656 191.248647 
L 196.704 191.200031 
L 190.752 191.148588 
L 184.8 191.094066 
L 178.848 191.03618 
L 172.896 190.974614 
L 166.944 190.909007 
L 160.992 190.83895 
L 155.04 190.763982 
L 149.088 190.68357 
L 143.136 190.597108 
L 137.184 190.503894 
L 131.232 190.403116 
L 125.28 190.293828 
L 119.328 190.174923 
L 113.376 190.045097 
L 107.424 189.902803 
L 101.472 189.746197 
L 95.52 189.573058 
L 89.568 189.380698 
L 83.616 189.16583 
L 77.664 188.924399 
L 71.712 188.651345 
L 65.76 188.340278 
L 59.808 187.983003 
L 53.856 187.568775 
L 47.904 187.083065 
L 43.926025 186.696 
L 41.952 186.478954 
L 36 185.681974 
L 36 184.147169 
z
" clip-path="url(#p47e37a6d28)" style="fill: #440154"/>
   </g>
   <g id="PathCollection_7">
    <path d="M 41.952 183.381076 
L 47.904 184.014915 
L 53.856 184.548205 
L 59.808 185.003416 
L 65.76 185.396359 
L 71.712 185.738731 
L 77.664 186.039466 
L 83.616 186.305533 
L 89.568 186.542456 
L 93.877835 186.696 
L 95.52 186.747298 
L 101.472 186.914323 
L 107.424 187.065374 
L 113.376 187.202596 
L 119.328 187.327776 
L 125.28 187.44241 
L 131.232 187.547759 
L 137.184 187.644893 
L 143.136 187.734728 
L 149.088 187.818047 
L 155.04 187.895528 
L 160.992 187.967758 
L 166.944 188.03525 
L 172.896 188.098451 
L 178.848 188.157756 
L 184.8 188.21351 
L 190.752 188.266023 
L 196.704 188.315566 
L 202.656 188.362384 
L 208.608 188.406694 
L 214.56 188.448692 
L 214.56 189.893484 
L 208.608 189.850678 
L 202.656 189.805515 
L 196.704 189.757799 
L 190.752 189.707305 
L 184.8 189.653788 
L 178.848 189.596968 
L 172.896 189.536533 
L 166.944 189.472128 
L 160.992 189.403354 
L 155.04 189.329755 
L 149.088 189.250809 
L 143.136 189.165918 
L 137.184 189.074394 
L 131.232 188.975437 
L 125.28 188.868119 
L 119.328 188.75135 
L 113.376 188.623846 
L 107.424 188.484088 
L 101.472 188.33026 
L 95.52 188.160178 
L 89.568 187.971195 
L 83.616 187.760076 
L 77.664 187.522827 
L 71.712 187.254465 
L 65.76 186.948695 
L 61.483377 186.696 
L 59.808 186.58359 
L 53.856 186.119435 
L 47.904 185.575841 
L 41.952 184.930015 
L 36 184.147169 
L 36 182.612364 
z
" clip-path="url(#p47e37a6d28)" style="fill: #440154"/>
   </g>
   <g id="PathCollection_8">
    <path d="M 36 181.152 
L 36 181.06733 
L 36.592047 181.152 
L 41.952 181.832137 
L 47.904 182.453989 
L 53.856 182.976975 
L 59.808 183.423241 
L 65.76 183.808356 
L 71.712 184.143829 
L 77.664 184.438444 
L 83.616 184.699051 
L 89.568 184.931075 
L 95.52 185.138869 
L 101.472 185.325962 
L 107.424 185.495242 
L 113.376 185.649093 
L 119.328 185.7895 
L 125.28 185.918126 
L 131.232 186.036375 
L 137.184 186.145439 
L 143.136 186.246336 
L 149.088 186.339941 
L 155.04 186.42701 
L 160.992 186.508198 
L 166.944 186.584078 
L 172.896 186.655148 
L 176.542605 186.696 
L 178.848 186.718543 
L 184.8 186.773232 
L 190.752 186.82474 
L 196.704 186.873333 
L 202.656 186.919252 
L 208.608 186.962711 
L 214.56 187.0039 
L 214.56 188.448692 
L 208.608 188.406694 
L 202.656 188.362384 
L 196.704 188.315566 
L 190.752 188.266023 
L 184.8 188.21351 
L 178.848 188.157756 
L 172.896 188.098451 
L 166.944 188.03525 
L 160.992 187.967758 
L 155.04 187.895528 
L 149.088 187.818047 
L 143.136 187.734728 
L 137.184 187.644893 
L 131.232 187.547759 
L 125.28 187.44241 
L 119.328 187.327776 
L 113.376 187.202596 
L 107.424 187.065374 
L 101.472 186.914323 
L 95.52 186.747298 
L 93.877835 186.696 
L 89.568 186.542456 
L 83.616 186.305533 
L 77.664 186.039466 
L 71.712 185.738731 
L 65.76 185.396359 
L 59.808 185.003416 
L 53.856 184.548205 
L 47.904 184.014915 
L 41.952 183.381076 
L 36 182.612364 
z
" clip-path="url(#p47e37a6d28)" style="fill: #440154"/>
   </g>
   <g id="PathCollection_9">
    <path d="M 36.592047 181.152 
L 36 181.06733 
L 36 179.321616 
L 41.952 180.162558 
L 47.904 180.85679 
L 50.919921 181.152 
L 53.856 181.405746 
L 59.808 181.843066 
L 65.76 182.220352 
L 71.712 182.548926 
L 77.664 182.837421 
L 83.616 183.092568 
L 89.568 183.319695 
L 95.52 183.523074 
L 101.472 183.706168 
L 107.424 183.87181 
L 113.376 184.02234 
L 119.328 184.159703 
L 125.28 184.285529 
L 131.232 184.401195 
L 137.184 184.507869 
L 143.136 184.606548 
L 149.088 184.69809 
L 155.04 184.783235 
L 160.992 184.862625 
L 166.944 184.936819 
L 172.896 185.006308 
L 178.848 185.071523 
L 184.8 185.132843 
L 190.752 185.190605 
L 196.704 185.245109 
L 202.656 185.296621 
L 208.608 185.345379 
L 214.56 185.391598 
L 214.56 186.696 
L 214.56 187.0039 
L 208.608 186.962711 
L 202.656 186.919252 
L 196.704 186.873333 
L 190.752 186.82474 
L 184.8 186.773232 
L 178.848 186.718543 
L 176.542605 186.696 
L 172.896 186.655148 
L 166.944 186.584078 
L 160.992 186.508198 
L 155.04 186.42701 
L 149.088 186.339941 
L 143.136 186.246336 
L 137.184 186.145439 
L 131.232 186.036375 
L 125.28 185.918126 
L 119.328 185.7895 
L 113.376 185.649093 
L 107.424 185.495242 
L 101.472 185.325962 
L 95.52 185.138869 
L 89.568 184.931075 
L 83.616 184.699051 
L 77.664 184.438444 
L 71.712 184.143829 
L 65.76 183.808356 
L 59.808 183.423241 
L 53.856 182.976975 
L 47.904 182.453989 
L 41.952 181.832137 
z
" clip-path="url(#p47e37a6d28)" style="fill: #440154"/>
   </g>
   <g id="PathCollection_10">
    <path d="M 41.952 178.398536 
L 47.904 179.077204 
L 53.856 179.648568 
L 59.808 180.136588 
L 65.76 180.558111 
L 71.712 180.925599 
L 75.889792 181.152 
L 77.664 181.236399 
L 83.616 181.486086 
L 89.568 181.708315 
L 95.52 181.907278 
L 101.472 182.086373 
L 107.424 182.248379 
L 113.376 182.395587 
L 119.328 182.529906 
L 125.28 182.652933 
L 131.232 182.766016 
L 137.184 182.870299 
L 143.136 182.966761 
L 149.088 183.056239 
L 155.04 183.13946 
L 160.992 183.217051 
L 166.944 183.28956 
L 172.896 183.357468 
L 178.848 183.421196 
L 184.8 183.481115 
L 190.752 183.537555 
L 196.704 183.590809 
L 202.656 183.641138 
L 208.608 183.688775 
L 214.56 183.73393 
L 214.56 185.391598 
L 208.608 185.345379 
L 202.656 185.296621 
L 196.704 185.245109 
L 190.752 185.190605 
L 184.8 185.132843 
L 178.848 185.071523 
L 172.896 185.006308 
L 166.944 184.936819 
L 160.992 184.862625 
L 155.04 184.783235 
L 149.088 184.69809 
L 143.136 184.606548 
L 137.184 184.507869 
L 131.232 184.401195 
L 125.28 184.285529 
L 119.328 184.159703 
L 113.376 184.02234 
L 107.424 183.87181 
L 101.472 183.706168 
L 95.52 183.523074 
L 89.568 183.319695 
L 83.616 183.092568 
L 77.664 182.837421 
L 71.712 182.548926 
L 65.76 182.220352 
L 59.808 181.843066 
L 53.856 181.405746 
L 50.919921 181.152 
L 47.904 180.85679 
L 41.952 180.162558 
L 36 179.321616 
L 36 177.575902 
z
" clip-path="url(#p47e37a6d28)" style="fill: #440154"/>
   </g>
   <g id="PathCollection_11">
    <path d="M 41.952 176.634513 
L 47.904 177.297618 
L 53.856 177.855577 
L 59.808 178.331939 
L 65.76 178.743245 
L 71.712 179.101715 
L 77.664 179.416677 
L 83.616 179.695406 
L 89.568 179.943666 
L 95.52 180.166083 
L 101.472 180.366412 
L 107.424 180.547726 
L 113.376 180.712563 
L 119.328 180.863037 
L 125.28 181.000921 
L 131.232 181.12771 
L 132.469675 181.152 
L 137.184 181.23273 
L 143.136 181.326973 
L 149.088 181.414388 
L 155.04 181.495685 
L 160.992 181.571477 
L 166.944 181.642302 
L 172.896 181.708628 
L 178.848 181.770868 
L 184.8 181.829387 
L 190.752 181.884505 
L 196.704 181.93651 
L 202.656 181.985656 
L 208.608 182.032171 
L 214.56 182.076261 
L 214.56 183.73393 
L 208.608 183.688775 
L 202.656 183.641138 
L 196.704 183.590809 
L 190.752 183.537555 
L 184.8 183.481115 
L 178.848 183.421196 
L 172.896 183.357468 
L 166.944 183.28956 
L 160.992 183.217051 
L 155.04 183.13946 
L 149.088 183.056239 
L 143.136 182.966761 
L 137.184 182.870299 
L 131.232 182.766016 
L 125.28 182.652933 
L 119.328 182.529906 
L 113.376 182.395587 
L 107.424 182.248379 
L 101.472 182.086373 
L 95.52 181.907278 
L 89.568 181.708315 
L 83.616 181.486086 
L 77.664 181.236399 
L 75.889792 181.152 
L 71.712 180.925599 
L 65.76 180.558111 
L 59.808 180.136588 
L 53.856 179.648568 
L 47.904 179.077204 
L 41.952 178.398536 
L 36 177.575902 
L 36 175.830188 
z
" clip-path="url(#p47e37a6d28)" style="fill: #440154"/>
   </g>
   <g id="PathCollection_12">
    <path d="M 36 175.608 
L 36 173.871689 
L 41.952 174.766253 
L 47.904 175.505188 
L 48.89353 175.608 
L 53.856 176.062585 
L 59.808 176.52729 
L 65.76 176.928378 
L 71.712 177.277831 
L 77.664 177.584786 
L 83.616 177.856362 
L 89.568 178.098201 
L 95.52 178.314825 
L 101.472 178.509903 
L 107.424 178.686438 
L 113.376 178.846908 
L 119.328 178.993377 
L 125.28 179.127575 
L 131.232 179.250962 
L 137.184 179.364779 
L 143.136 179.470086 
L 149.088 179.567792 
L 155.04 179.658685 
L 160.992 179.743447 
L 166.944 179.822673 
L 172.896 179.896884 
L 178.848 179.96654 
L 184.8 180.032043 
L 190.752 180.093752 
L 196.704 180.151987 
L 202.656 180.20703 
L 208.608 180.259135 
L 214.56 180.308532 
L 214.56 181.152 
L 214.56 182.076261 
L 208.608 182.032171 
L 202.656 181.985656 
L 196.704 181.93651 
L 190.752 181.884505 
L 184.8 181.829387 
L 178.848 181.770868 
L 172.896 181.708628 
L 166.944 181.642302 
L 160.992 181.571477 
L 155.04 181.495685 
L 149.088 181.414388 
L 143.136 181.326973 
L 137.184 181.23273 
L 132.469675 181.152 
L 131.232 181.12771 
L 125.28 181.000921 
L 119.328 180.863037 
L 113.376 180.712563 
L 107.424 180.547726 
L 101.472 180.366412 
L 95.52 180.166083 
L 89.568 179.943666 
L 83.616 179.695406 
L 77.664 179.416677 
L 71.712 179.101715 
L 65.76 178.743245 
L 59.808 178.331939 
L 53.856 177.855577 
L 47.904 177.297618 
L 41.952 176.634513 
L 36 175.830188 
z
" clip-path="url(#p47e37a6d28)" style="fill: #440154"/>
   </g>
   <g id="PathCollection_13">
    <path d="M 41.952 172.752908 
L 47.904 173.471543 
L 53.856 174.076873 
L 59.808 174.594206 
L 65.76 175.041313 
L 71.712 175.431326 
L 74.785692 175.608 
L 77.664 175.752894 
L 83.616 176.017319 
L 89.568 176.252736 
L 95.52 176.463567 
L 101.472 176.653394 
L 107.424 176.825149 
L 113.376 176.981252 
L 119.328 177.123716 
L 125.28 177.254229 
L 131.232 177.374215 
L 137.184 177.484882 
L 143.136 177.587265 
L 149.088 177.682251 
L 155.04 177.770605 
L 160.992 177.852994 
L 166.944 177.929996 
L 172.896 178.002119 
L 178.848 178.069811 
L 184.8 178.133463 
L 190.752 178.193426 
L 196.704 178.250008 
L 202.656 178.303488 
L 208.608 178.354111 
L 214.56 178.4021 
L 214.56 180.308532 
L 208.608 180.259135 
L 202.656 180.20703 
L 196.704 180.151987 
L 190.752 180.093752 
L 184.8 180.032043 
L 178.848 179.96654 
L 172.896 179.896884 
L 166.944 179.822673 
L 160.992 179.743447 
L 155.04 179.658685 
L 149.088 179.567792 
L 143.136 179.470086 
L 137.184 179.364779 
L 131.232 179.250962 
L 125.28 179.127575 
L 119.328 178.993377 
L 113.376 178.846908 
L 107.424 178.686438 
L 101.472 178.509903 
L 95.52 178.314825 
L 89.568 178.098201 
L 83.616 177.856362 
L 77.664 177.584786 
L 71.712 177.277831 
L 65.76 176.928378 
L 59.808 176.52729 
L 53.856 176.062585 
L 48.89353 175.608 
L 47.904 175.505188 
L 41.952 174.766253 
L 36 173.871689 
L 36 171.882158 
z
" clip-path="url(#p47e37a6d28)" style="fill: #440154"/>
   </g>
   <g id="PathCollection_14">
    <path d="M 36 170.064 
L 36 169.868071 
L 37.215827 170.064 
L 41.952 170.739562 
L 47.904 171.437898 
L 53.856 172.025703 
L 59.808 172.527766 
L 65.76 172.961464 
L 71.712 173.339626 
L 77.664 173.672038 
L 83.616 173.966333 
L 89.568 174.228562 
L 95.52 174.463581 
L 101.472 174.675332 
L 107.424 174.867045 
L 113.376 175.041387 
L 119.328 175.200581 
L 125.28 175.346492 
L 131.232 175.480695 
L 137.184 175.604527 
L 137.364682 175.608 
L 143.136 175.704445 
L 149.088 175.796709 
L 155.04 175.882525 
L 160.992 175.962541 
L 166.944 176.037319 
L 172.896 176.107354 
L 178.848 176.173082 
L 184.8 176.234883 
L 190.752 176.293099 
L 196.704 176.34803 
L 202.656 176.399946 
L 208.608 176.449087 
L 214.56 176.495668 
L 214.56 178.4021 
L 208.608 178.354111 
L 202.656 178.303488 
L 196.704 178.250008 
L 190.752 178.193426 
L 184.8 178.133463 
L 178.848 178.069811 
L 172.896 178.002119 
L 166.944 177.929996 
L 160.992 177.852994 
L 155.04 177.770605 
L 149.088 177.682251 
L 143.136 177.587265 
L 137.184 177.484882 
L 131.232 177.374215 
L 125.28 177.254229 
L 119.328 177.123716 
L 113.376 176.981252 
L 107.424 176.825149 
L 101.472 176.653394 
L 95.52 176.463567 
L 89.568 176.252736 
L 83.616 176.017319 
L 77.664 175.752894 
L 74.785692 175.608 
L 71.712 175.431326 
L 65.76 175.041313 
L 59.808 174.594206 
L 53.856 174.076873 
L 47.904 173.471543 
L 41.952 172.752908 
L 36 171.882158 
z
" clip-path="url(#p47e37a6d28)" style="fill: #440154"/>
   </g>
   <g id="PathCollection_15">
    <path d="M 37.215827 170.064 
L 36 169.868071 
L 36 167.59346 
L 41.952 168.531898 
L 47.904 169.307314 
L 53.856 169.961258 
L 54.956546 170.064 
L 59.808 170.461325 
L 65.76 170.881615 
L 71.712 171.247925 
L 77.664 171.569799 
L 83.616 171.85467 
L 89.568 172.108429 
L 95.52 172.335798 
L 101.472 172.540609 
L 107.424 172.726 
L 113.376 172.894561 
L 119.328 173.048451 
L 125.28 173.189478 
L 131.232 173.319169 
L 137.184 173.438823 
L 143.136 173.549549 
L 149.088 173.6523 
L 155.04 173.747901 
L 160.992 173.837066 
L 166.944 173.920418 
L 172.896 173.998505 
L 178.848 174.071806 
L 184.8 174.140746 
L 190.752 174.2057 
L 196.704 174.267002 
L 202.656 174.324951 
L 208.608 174.379812 
L 214.56 174.431825 
L 214.56 175.608 
L 214.56 176.495668 
L 208.608 176.449087 
L 202.656 176.399946 
L 196.704 176.34803 
L 190.752 176.293099 
L 184.8 176.234883 
L 178.848 176.173082 
L 172.896 176.107354 
L 166.944 176.037319 
L 160.992 175.962541 
L 155.04 175.882525 
L 149.088 175.796709 
L 143.136 175.704445 
L 137.364682 175.608 
L 137.184 175.604527 
L 131.232 175.480695 
L 125.28 175.346492 
L 119.328 175.200581 
L 113.376 175.041387 
L 107.424 174.867045 
L 101.472 174.675332 
L 95.52 174.463581 
L 89.568 174.228562 
L 83.616 173.966333 
L 77.664 173.672038 
L 71.712 173.339626 
L 65.76 172.961464 
L 59.808 172.527766 
L 53.856 172.025703 
L 47.904 171.437898 
L 41.952 170.739562 
z
" clip-path="url(#p47e37a6d28)" style="fill: #471365"/>
    <path d="M 115.202177 25.92 
L 119.328 25.92 
L 125.28 25.92 
L 131.232 25.92 
L 137.184 25.92 
L 143.136 25.92 
L 149.088 25.92 
L 155.04 25.92 
L 160.992 25.92 
L 166.944 25.92 
L 172.896 25.92 
L 178.848 25.92 
L 184.8 25.92 
L 190.752 25.92 
L 196.704 25.92 
L 202.656 25.92 
L 208.608 25.92 
L 214.56 25.92 
L 214.56 29.555443 
L 208.608 29.431756 
L 202.656 29.301049 
L 196.704 29.162712 
L 190.752 29.016058 
L 184.8 28.860319 
L 178.848 28.694631 
L 172.896 28.518014 
L 166.944 28.329359 
L 160.992 28.127402 
L 155.04 27.910696 
L 149.088 27.677582 
L 143.136 27.426142 
L 137.184 27.154153 
L 131.232 26.859019 
L 125.28 26.537699 
L 119.328 26.186601 
z
" clip-path="url(#p47e37a6d28)" style="fill: #471365"/>
   </g>
   <g id="PathCollection_16">
    <path d="M 41.952 166.226105 
L 47.904 166.974857 
L 53.856 167.605719 
L 59.808 168.145087 
L 65.76 168.611452 
L 71.712 169.018456 
L 77.664 169.376515 
L 83.616 169.693756 
L 89.568 169.976626 
L 91.62361 170.064 
L 95.52 170.208015 
L 101.472 170.405886 
L 107.424 170.584955 
L 113.376 170.747736 
L 119.328 170.896321 
L 125.28 171.032463 
L 131.232 171.157643 
L 137.184 171.273119 
L 143.136 171.379964 
L 149.088 171.479101 
L 155.04 171.571329 
L 160.992 171.657339 
L 166.944 171.737735 
L 172.896 171.813045 
L 178.848 171.883733 
L 184.8 171.950209 
L 190.752 172.012837 
L 196.704 172.07194 
L 202.656 172.127806 
L 208.608 172.180691 
L 214.56 172.230828 
L 214.56 174.431825 
L 208.608 174.379812 
L 202.656 174.324951 
L 196.704 174.267002 
L 190.752 174.2057 
L 184.8 174.140746 
L 178.848 174.071806 
L 172.896 173.998505 
L 166.944 173.920418 
L 160.992 173.837066 
L 155.04 173.747901 
L 149.088 173.6523 
L 143.136 173.549549 
L 137.184 173.438823 
L 131.232 173.319169 
L 125.28 173.189478 
L 119.328 173.048451 
L 113.376 172.894561 
L 107.424 172.726 
L 101.472 172.540609 
L 95.52 172.335798 
L 89.568 172.108429 
L 83.616 171.85467 
L 77.664 171.569799 
L 71.712 171.247925 
L 65.76 170.881615 
L 59.808 170.461325 
L 54.956546 170.064 
L 53.856 169.961258 
L 47.904 169.307314 
L 41.952 168.531898 
L 36 167.59346 
L 36 165.318849 
z
" clip-path="url(#p47e37a6d28)" style="fill: #472a7a"/>
    <path d="M 73.140776 25.92 
L 77.664 25.92 
L 83.616 25.92 
L 89.568 25.92 
L 95.52 25.92 
L 101.472 25.92 
L 107.424 25.92 
L 113.376 25.92 
L 115.202177 25.92 
L 119.328 26.186601 
L 125.28 26.537699 
L 131.232 26.859019 
L 137.184 27.154153 
L 143.136 27.426142 
L 149.088 27.677582 
L 155.04 27.910696 
L 160.992 28.127402 
L 166.944 28.329359 
L 172.896 28.518014 
L 178.848 28.694631 
L 184.8 28.860319 
L 190.752 29.016058 
L 196.704 29.162712 
L 202.656 29.301049 
L 208.608 29.431756 
L 214.56 29.555443 
L 214.56 31.464 
L 214.56 33.443628 
L 208.608 33.320163 
L 202.656 33.189681 
L 196.704 33.051568 
L 190.752 32.905139 
L 184.8 32.749624 
L 178.848 32.584156 
L 172.896 32.407754 
L 166.944 32.219306 
L 160.992 32.017543 
L 155.04 31.801017 
L 149.088 31.56806 
L 146.618946 31.464 
L 143.136 31.323483 
L 137.184 31.064079 
L 131.232 30.782639 
L 125.28 30.476271 
L 119.328 30.141563 
L 113.376 29.774461 
L 107.424 29.370119 
L 101.472 28.922696 
L 95.52 28.425097 
L 89.568 27.86863 
L 83.616 27.242546 
L 77.664 26.533418 
z
" clip-path="url(#p47e37a6d28)" style="fill: #472a7a"/>
   </g>
   <g id="PathCollection_17">
    <path d="M 36 164.52 
L 36 162.825082 
L 41.952 163.829852 
L 46.904677 164.52 
L 47.904 164.642401 
L 53.856 165.25018 
L 59.808 165.769387 
L 65.76 166.218012 
L 71.712 166.609309 
L 77.664 166.953376 
L 83.616 167.258088 
L 89.568 167.529682 
L 95.52 167.773167 
L 101.472 167.992607 
L 107.424 168.191333 
L 113.376 168.372098 
L 119.328 168.537195 
L 125.28 168.688549 
L 131.232 168.827787 
L 137.184 168.95629 
L 143.136 169.075241 
L 149.088 169.185656 
L 155.04 169.288414 
L 160.992 169.384279 
L 166.944 169.473916 
L 172.896 169.557908 
L 178.848 169.63677 
L 184.8 169.710954 
L 190.752 169.780861 
L 196.704 169.84685 
L 202.656 169.90924 
L 208.608 169.968315 
L 214.56 170.024331 
L 214.56 170.064 
L 214.56 172.230828 
L 208.608 172.180691 
L 202.656 172.127806 
L 196.704 172.07194 
L 190.752 172.012837 
L 184.8 171.950209 
L 178.848 171.883733 
L 172.896 171.813045 
L 166.944 171.737735 
L 160.992 171.657339 
L 155.04 171.571329 
L 149.088 171.479101 
L 143.136 171.379964 
L 137.184 171.273119 
L 131.232 171.157643 
L 125.28 171.032463 
L 119.328 170.896321 
L 113.376 170.747736 
L 107.424 170.584955 
L 101.472 170.405886 
L 95.52 170.208015 
L 91.62361 170.064 
L 89.568 169.976626 
L 83.616 169.693756 
L 77.664 169.376515 
L 71.712 169.018456 
L 65.76 168.611452 
L 59.808 168.145087 
L 53.856 167.605719 
L 47.904 166.974857 
L 41.952 166.226105 
L 36 165.318849 
z
" clip-path="url(#p47e37a6d28)" style="fill: #424086"/>
    <path d="M 50.170974 25.92 
L 53.856 25.92 
L 59.808 25.92 
L 65.76 25.92 
L 71.712 25.92 
L 73.140776 25.92 
L 77.664 26.533418 
L 83.616 27.242546 
L 89.568 27.86863 
L 95.52 28.425097 
L 101.472 28.922696 
L 107.424 29.370119 
L 113.376 29.774461 
L 119.328 30.141563 
L 125.28 30.476271 
L 131.232 30.782639 
L 137.184 31.064079 
L 143.136 31.323483 
L 146.618946 31.464 
L 149.088 31.56806 
L 155.04 31.801017 
L 160.992 32.017543 
L 166.944 32.219306 
L 172.896 32.407754 
L 178.848 32.584156 
L 184.8 32.749624 
L 190.752 32.905139 
L 196.704 33.051568 
L 202.656 33.189681 
L 208.608 33.320163 
L 214.56 33.443628 
L 214.56 37.008 
L 214.56 37.442089 
L 208.608 37.318762 
L 202.656 37.188413 
L 196.704 37.050428 
L 194.975653 37.008 
L 190.752 36.909228 
L 184.8 36.761491 
L 178.848 36.604312 
L 172.896 36.436762 
L 166.944 36.257787 
L 160.992 36.066187 
L 155.04 35.86059 
L 149.088 35.639418 
L 143.136 35.40085 
L 137.184 35.142774 
L 131.232 34.862727 
L 125.28 34.557816 
L 119.328 34.224631 
L 113.376 33.859116 
L 107.424 33.456419 
L 101.472 33.01069 
L 95.52 32.514819 
L 89.568 31.960087 
L 84.831139 31.464 
L 83.616 31.341874 
L 77.664 30.668732 
L 71.712 29.901007 
L 65.76 29.01831 
L 59.808 27.994292 
L 53.856 26.794353 
z
" clip-path="url(#p47e37a6d28)" style="fill: #424086"/>
   </g>
   <g id="PathCollection_18">
    <path d="M 41.952 161.176238 
L 47.904 161.972121 
L 53.856 162.643354 
L 59.808 163.217831 
L 65.76 163.715054 
L 71.712 164.149409 
L 77.480425 164.52 
L 77.664 164.530238 
L 83.616 164.82242 
L 89.568 165.082738 
L 95.52 165.316027 
L 101.472 165.526208 
L 107.424 165.716491 
L 113.376 165.889529 
L 119.328 166.04753 
L 125.28 166.192346 
L 131.232 166.32554 
L 137.184 166.448441 
L 143.136 166.562187 
L 149.088 166.667752 
L 155.04 166.765982 
L 160.992 166.857609 
L 166.944 166.943272 
L 172.896 167.02353 
L 178.848 167.098876 
L 184.8 167.169745 
L 190.752 167.236522 
L 196.704 167.29955 
L 202.656 167.359134 
L 208.608 167.415547 
L 214.56 167.469035 
L 214.56 170.024331 
L 208.608 169.968315 
L 202.656 169.90924 
L 196.704 169.84685 
L 190.752 169.780861 
L 184.8 169.710954 
L 178.848 169.63677 
L 172.896 169.557908 
L 166.944 169.473916 
L 160.992 169.384279 
L 155.04 169.288414 
L 149.088 169.185656 
L 143.136 169.075241 
L 137.184 168.95629 
L 131.232 168.827787 
L 125.28 168.688549 
L 119.328 168.537195 
L 113.376 168.372098 
L 107.424 168.191333 
L 101.472 167.992607 
L 95.52 167.773167 
L 89.568 167.529682 
L 83.616 167.258088 
L 77.664 166.953376 
L 71.712 166.609309 
L 65.76 166.218012 
L 59.808 165.769387 
L 53.856 165.25018 
L 47.904 164.642401 
L 46.904677 164.52 
L 41.952 163.829852 
L 36 162.825082 
L 36 160.212684 
z
" clip-path="url(#p47e37a6d28)" style="fill: #3a548c"/>
    <path d="M 36 25.92 
L 41.952 25.92 
L 47.904 25.92 
L 50.170974 25.92 
L 53.856 26.794353 
L 59.808 27.994292 
L 65.76 29.01831 
L 71.712 29.901007 
L 77.664 30.668732 
L 83.616 31.341874 
L 84.831139 31.464 
L 89.568 31.960087 
L 95.52 32.514819 
L 101.472 33.01069 
L 107.424 33.456419 
L 113.376 33.859116 
L 119.328 34.224631 
L 125.28 34.557816 
L 131.232 34.862727 
L 137.184 35.142774 
L 143.136 35.40085 
L 149.088 35.639418 
L 155.04 35.86059 
L 160.992 36.066187 
L 166.944 36.257787 
L 172.896 36.436762 
L 178.848 36.604312 
L 184.8 36.761491 
L 190.752 36.909228 
L 194.975653 37.008 
L 196.704 37.050428 
L 202.656 37.188413 
L 208.608 37.318762 
L 214.56 37.442089 
L 214.56 41.623662 
L 208.608 41.507124 
L 202.656 41.38396 
L 196.704 41.25359 
L 190.752 41.115368 
L 184.8 40.968566 
L 178.848 40.812364 
L 172.896 40.645837 
L 166.944 40.467932 
L 160.992 40.277453 
L 155.04 40.073028 
L 149.088 39.853082 
L 143.136 39.615798 
L 137.184 39.359063 
L 131.232 39.080415 
L 125.28 38.776961 
L 119.328 38.445288 
L 113.376 38.081334 
L 107.424 37.680238 
L 101.472 37.236136 
L 98.714554 37.008 
L 95.52 36.755758 
L 89.568 36.231746 
L 83.616 35.642166 
L 77.664 34.974374 
L 71.712 34.212407 
L 65.76 33.335881 
L 59.808 32.31842 
L 55.525715 31.464 
L 53.856 31.14263 
L 47.904 29.801291 
L 41.952 28.192015 
L 36 26.229029 
z
" clip-path="url(#p47e37a6d28)" style="fill: #3a548c"/>
   </g>
   <g id="PathCollection_19">
    <path d="M 36 158.976 
L 36 157.386163 
L 41.952 158.45077 
L 45.519235 158.976 
L 47.904 159.283131 
L 53.856 159.923639 
L 59.808 160.471203 
L 65.76 160.944688 
L 71.712 161.357975 
L 77.664 161.721639 
L 83.616 162.043922 
L 89.568 162.331359 
L 95.52 162.589197 
L 101.472 162.8217 
L 107.424 163.032363 
L 113.376 163.224076 
L 119.328 163.399249 
L 125.28 163.559906 
L 131.232 163.707757 
L 137.184 163.844259 
L 143.136 163.970655 
L 149.088 164.088019 
L 155.04 164.197275 
L 160.992 164.29923 
L 166.944 164.394586 
L 172.896 164.483959 
L 175.454171 164.52 
L 178.848 164.560983 
L 184.8 164.628537 
L 190.752 164.692184 
L 196.704 164.75225 
L 202.656 164.809028 
L 208.608 164.86278 
L 214.56 164.91374 
L 214.56 167.469035 
L 208.608 167.415547 
L 202.656 167.359134 
L 196.704 167.29955 
L 190.752 167.236522 
L 184.8 167.169745 
L 178.848 167.098876 
L 172.896 167.02353 
L 166.944 166.943272 
L 160.992 166.857609 
L 155.04 166.765982 
L 149.088 166.667752 
L 143.136 166.562187 
L 137.184 166.448441 
L 131.232 166.32554 
L 125.28 166.192346 
L 119.328 166.04753 
L 113.376 165.889529 
L 107.424 165.716491 
L 101.472 165.526208 
L 95.52 165.316027 
L 89.568 165.082738 
L 83.616 164.82242 
L 77.664 164.530238 
L 77.480425 164.52 
L 71.712 164.149409 
L 65.76 163.715054 
L 59.808 163.217831 
L 53.856 162.643354 
L 47.904 161.972121 
L 41.952 161.176238 
L 36 160.212684 
z
" clip-path="url(#p47e37a6d28)" style="fill: #31678e"/>
    <path d="M 37.846942 31.464 
L 36 30.882966 
L 36 26.229029 
L 41.952 28.192015 
L 47.904 29.801291 
L 53.856 31.14263 
L 55.525715 31.464 
L 59.808 32.31842 
L 65.76 33.335881 
L 71.712 34.212407 
L 77.664 34.974374 
L 83.616 35.642166 
L 89.568 36.231746 
L 95.52 36.755758 
L 98.714554 37.008 
L 101.472 37.236136 
L 107.424 37.680238 
L 113.376 38.081334 
L 119.328 38.445288 
L 125.28 38.776961 
L 131.232 39.080415 
L 137.184 39.359063 
L 143.136 39.615798 
L 149.088 39.853082 
L 155.04 40.073028 
L 160.992 40.277453 
L 166.944 40.467932 
L 172.896 40.645837 
L 178.848 40.812364 
L 184.8 40.968566 
L 190.752 41.115368 
L 196.704 41.25359 
L 202.656 41.38396 
L 208.608 41.507124 
L 214.56 41.623662 
L 214.56 42.552 
L 214.56 45.99039 
L 208.608 45.874701 
L 202.656 45.752421 
L 196.704 45.622976 
L 190.752 45.485718 
L 184.8 45.339922 
L 178.848 45.184772 
L 172.896 45.019343 
L 166.944 44.842587 
L 160.992 44.653307 
L 155.04 44.450135 
L 149.088 44.231499 
L 143.136 43.99558 
L 137.184 43.740267 
L 131.232 43.463098 
L 125.28 43.161178 
L 119.328 42.831086 
L 114.737841 42.552 
L 113.376 42.473464 
L 107.424 42.096765 
L 101.472 41.679807 
L 95.52 41.215939 
L 89.568 40.697003 
L 83.616 40.112902 
L 77.664 39.451016 
L 71.712 38.695399 
L 65.76 37.825662 
L 60.92924 37.008 
L 59.808 36.826058 
L 53.856 35.707404 
L 47.904 34.382134 
L 41.952 32.79117 
z
" clip-path="url(#p47e37a6d28)" style="fill: #31678e"/>
   </g>
   <g id="PathCollection_20">
    <path d="M 41.952 155.37659 
L 47.904 156.210801 
L 53.856 156.914934 
L 59.808 157.518139 
L 65.76 158.040742 
L 71.712 158.49771 
L 77.664 158.90046 
L 78.928795 158.976 
L 83.616 159.216822 
L 89.568 159.489056 
L 95.52 159.733128 
L 101.472 159.953114 
L 107.424 160.15235 
L 113.376 160.333593 
L 119.328 160.499142 
L 125.28 160.650922 
L 131.232 160.790563 
L 137.184 160.919448 
L 143.136 161.038762 
L 149.088 161.149522 
L 155.04 161.252609 
L 160.992 161.348787 
L 166.944 161.438722 
L 172.896 161.522999 
L 178.848 161.602133 
L 184.8 161.676577 
L 190.752 161.746734 
L 196.704 161.812962 
L 202.656 161.875581 
L 208.608 161.934875 
L 214.56 161.991103 
L 214.56 164.52 
L 214.56 164.91374 
L 208.608 164.86278 
L 202.656 164.809028 
L 196.704 164.75225 
L 190.752 164.692184 
L 184.8 164.628537 
L 178.848 164.560983 
L 175.454171 164.52 
L 172.896 164.483959 
L 166.944 164.394586 
L 160.992 164.29923 
L 155.04 164.197275 
L 149.088 164.088019 
L 143.136 163.970655 
L 137.184 163.844259 
L 131.232 163.707757 
L 125.28 163.559906 
L 119.328 163.399249 
L 113.376 163.224076 
L 107.424 163.032363 
L 101.472 162.8217 
L 95.52 162.589197 
L 89.568 162.331359 
L 83.616 162.043922 
L 77.664 161.721639 
L 71.712 161.357975 
L 65.76 160.944688 
L 59.808 160.471203 
L 53.856 159.923639 
L 47.904 159.283131 
L 45.519235 158.976 
L 41.952 158.45077 
L 36 157.386163 
L 36 154.367161 
z
" clip-path="url(#p47e37a6d28)" style="fill: #2a788e"/>
    <path d="M 40.045288 37.008 
L 36 35.772155 
L 36 31.464 
L 36 30.882966 
L 37.846942 31.464 
L 41.952 32.79117 
L 47.904 34.382134 
L 53.856 35.707404 
L 59.808 36.826058 
L 60.92924 37.008 
L 65.76 37.825662 
L 71.712 38.695399 
L 77.664 39.451016 
L 83.616 40.112902 
L 89.568 40.697003 
L 95.52 41.215939 
L 101.472 41.679807 
L 107.424 42.096765 
L 113.376 42.473464 
L 114.737841 42.552 
L 119.328 42.831086 
L 125.28 43.161178 
L 131.232 43.463098 
L 137.184 43.740267 
L 143.136 43.99558 
L 149.088 44.231499 
L 155.04 44.450135 
L 160.992 44.653307 
L 166.944 44.842587 
L 172.896 45.019343 
L 178.848 45.184772 
L 184.8 45.339922 
L 190.752 45.485718 
L 196.704 45.622976 
L 202.656 45.752421 
L 208.608 45.874701 
L 214.56 45.99039 
L 214.56 48.096 
L 214.56 50.556931 
L 208.608 50.442215 
L 202.656 50.32095 
L 196.704 50.192562 
L 190.752 50.056409 
L 184.8 49.911766 
L 178.848 49.757821 
L 172.896 49.59365 
L 166.944 49.418208 
L 160.992 49.230302 
L 155.04 49.028564 
L 149.088 48.811425 
L 143.136 48.577068 
L 137.184 48.323381 
L 132.267492 48.096 
L 131.232 48.050883 
L 125.28 47.769418 
L 119.328 47.46178 
L 113.376 47.124202 
L 107.424 46.752175 
L 101.472 46.340259 
L 95.52 45.881836 
L 89.568 45.368784 
L 83.616 44.791044 
L 77.664 44.136026 
L 71.712 43.387805 
L 65.937288 42.552 
L 65.76 42.527565 
L 59.808 41.587293 
L 53.856 40.485197 
L 47.904 39.178717 
L 41.952 37.609271 
z
" clip-path="url(#p47e37a6d28)" style="fill: #2a788e"/>
   </g>
   <g id="PathCollection_21">
    <path d="M 36 153.432 
L 36 151.003841 
L 41.952 152.111778 
L 47.904 153.030113 
L 51.004133 153.432 
L 53.856 153.751687 
L 59.808 154.318427 
L 65.76 154.808768 
L 71.712 155.237026 
L 77.664 155.614094 
L 83.616 155.948456 
L 89.568 156.246837 
L 95.52 156.514639 
L 101.472 156.75625 
L 107.424 156.975272 
L 113.376 157.174682 
L 119.328 157.356966 
L 125.28 157.524211 
L 131.232 157.678183 
L 137.184 157.820385 
L 143.136 157.952103 
L 149.088 158.074447 
L 155.04 158.188372 
L 160.992 158.294714 
L 166.944 158.394198 
L 172.896 158.487464 
L 178.848 158.575074 
L 184.8 158.657522 
L 190.752 158.735251 
L 196.704 158.808652 
L 202.656 158.878075 
L 208.608 158.943833 
L 211.679481 158.976 
L 214.56 159.001552 
L 214.56 161.991103 
L 208.608 161.934875 
L 202.656 161.875581 
L 196.704 161.812962 
L 190.752 161.746734 
L 184.8 161.676577 
L 178.848 161.602133 
L 172.896 161.522999 
L 166.944 161.438722 
L 160.992 161.348787 
L 155.04 161.252609 
L 149.088 161.149522 
L 143.136 161.038762 
L 137.184 160.919448 
L 131.232 160.790563 
L 125.28 160.650922 
L 119.328 160.499142 
L 113.376 160.333593 
L 107.424 160.15235 
L 101.472 159.953114 
L 95.52 159.733128 
L 89.568 159.489056 
L 83.616 159.216822 
L 78.928795 158.976 
L 77.664 158.90046 
L 71.712 158.49771 
L 65.76 158.040742 
L 59.808 157.518139 
L 53.856 156.914934 
L 47.904 156.210801 
L 41.952 155.37659 
L 36 154.367161 
z
" clip-path="url(#p47e37a6d28)" style="fill: #23898e"/>
    <path d="M 41.469358 42.552 
L 36 40.932238 
L 36 37.008 
L 36 35.772155 
L 40.045288 37.008 
L 41.952 37.609271 
L 47.904 39.178717 
L 53.856 40.485197 
L 59.808 41.587293 
L 65.76 42.527565 
L 65.937288 42.552 
L 71.712 43.387805 
L 77.664 44.136026 
L 83.616 44.791044 
L 89.568 45.368784 
L 95.52 45.881836 
L 101.472 46.340259 
L 107.424 46.752175 
L 113.376 47.124202 
L 119.328 47.46178 
L 125.28 47.769418 
L 131.232 48.050883 
L 132.267492 48.096 
L 137.184 48.323381 
L 143.136 48.577068 
L 149.088 48.811425 
L 155.04 49.028564 
L 160.992 49.230302 
L 166.944 49.418208 
L 172.896 49.59365 
L 178.848 49.757821 
L 184.8 49.911766 
L 190.752 50.056409 
L 196.704 50.192562 
L 202.656 50.32095 
L 208.608 50.442215 
L 214.56 50.556931 
L 214.56 53.64 
L 214.56 55.37286 
L 208.608 55.259344 
L 202.656 55.139332 
L 196.704 55.012253 
L 190.752 54.877466 
L 184.8 54.734253 
L 178.848 54.581802 
L 172.896 54.419195 
L 166.944 54.245389 
L 160.992 54.059195 
L 155.04 53.85925 
L 149.088 53.643986 
L 148.985518 53.64 
L 143.136 53.427318 
L 137.184 53.19314 
L 131.232 52.93892 
L 125.28 52.662005 
L 119.328 52.359259 
L 113.376 52.026953 
L 107.424 51.660617 
L 101.472 51.254855 
L 95.52 50.803097 
L 89.568 50.297272 
L 83.616 49.727371 
L 77.664 49.080855 
L 71.712 48.341838 
L 69.976573 48.096 
L 65.76 47.530942 
L 59.808 46.608468 
L 53.856 45.526561 
L 47.904 44.24314 
L 41.952 42.700323 
z
" clip-path="url(#p47e37a6d28)" style="fill: #23898e"/>
   </g>
   <g id="PathCollection_22">
    <path d="M 36 147.888 
L 36 147.414416 
L 38.346689 147.888 
L 41.952 148.518795 
L 47.904 149.371966 
L 53.856 150.092228 
L 59.808 150.709561 
L 65.76 151.244759 
L 71.712 151.713085 
L 77.664 152.12616 
L 83.616 152.493048 
L 89.568 152.820948 
L 95.52 153.115653 
L 101.472 153.381878 
L 102.712141 153.432 
L 107.424 153.593076 
L 113.376 153.778038 
L 119.328 153.947023 
L 125.28 154.10199 
L 131.232 154.244593 
L 137.184 154.376239 
L 143.136 154.498132 
L 149.088 154.611308 
L 155.04 154.716661 
L 160.992 154.81497 
L 166.944 154.906912 
L 172.896 154.993083 
L 178.848 155.074006 
L 184.8 155.150144 
L 190.752 155.221906 
L 196.704 155.289658 
L 202.656 155.353724 
L 208.608 155.414397 
L 214.56 155.471937 
L 214.56 158.976 
L 214.56 159.001552 
L 211.679481 158.976 
L 208.608 158.943833 
L 202.656 158.878075 
L 196.704 158.808652 
L 190.752 158.735251 
L 184.8 158.657522 
L 178.848 158.575074 
L 172.896 158.487464 
L 166.944 158.394198 
L 160.992 158.294714 
L 155.04 158.188372 
L 149.088 158.074447 
L 143.136 157.952103 
L 137.184 157.820385 
L 131.232 157.678183 
L 125.28 157.524211 
L 119.328 157.356966 
L 113.376 157.174682 
L 107.424 156.975272 
L 101.472 156.75625 
L 95.52 156.514639 
L 89.568 156.246837 
L 83.616 155.948456 
L 77.664 155.614094 
L 71.712 155.237026 
L 65.76 154.808768 
L 59.808 154.318427 
L 53.856 153.751687 
L 51.004133 153.432 
L 47.904 153.030113 
L 41.952 152.111778 
L 36 151.003841 
z
" clip-path="url(#p47e37a6d28)" style="fill: #1f9a8a"/>
    <path d="M 41.802458 48.096 
L 36 46.433796 
L 36 42.552 
L 36 40.932238 
L 41.469358 42.552 
L 41.952 42.700323 
L 47.904 44.24314 
L 53.856 45.526561 
L 59.808 46.608468 
L 65.76 47.530942 
L 69.976573 48.096 
L 71.712 48.341838 
L 77.664 49.080855 
L 83.616 49.727371 
L 89.568 50.297272 
L 95.52 50.803097 
L 101.472 51.254855 
L 107.424 51.660617 
L 113.376 52.026953 
L 119.328 52.359259 
L 125.28 52.662005 
L 131.232 52.93892 
L 137.184 53.19314 
L 143.136 53.427318 
L 148.985518 53.64 
L 149.088 53.643986 
L 155.04 53.85925 
L 160.992 54.059195 
L 166.944 54.245389 
L 172.896 54.419195 
L 178.848 54.581802 
L 184.8 54.734253 
L 190.752 54.877466 
L 196.704 55.012253 
L 202.656 55.139332 
L 208.608 55.259344 
L 214.56 55.37286 
L 214.56 59.184 
L 214.56 60.508914 
L 208.608 60.397009 
L 202.656 60.278682 
L 196.704 60.153367 
L 190.752 60.020427 
L 184.8 59.879148 
L 178.848 59.728727 
L 172.896 59.568249 
L 166.944 59.396679 
L 160.992 59.212834 
L 160.120171 59.184 
L 155.04 59.028377 
L 149.088 58.832235 
L 143.136 58.620549 
L 137.184 58.391417 
L 131.232 58.142614 
L 125.28 57.871527 
L 119.328 57.575066 
L 113.376 57.249551 
L 107.424 56.89057 
L 101.472 56.492792 
L 95.52 56.049719 
L 89.568 55.553359 
L 83.616 54.99379 
L 77.664 54.358563 
L 71.77761 53.64 
L 71.712 53.632491 
L 65.76 52.857972 
L 59.808 51.958171 
L 53.856 50.902178 
L 47.904 49.648639 
L 41.952 48.140741 
z
" clip-path="url(#p47e37a6d28)" style="fill: #1f9a8a"/>
   </g>
   <g id="PathCollection_23">
    <path d="M 38.346689 147.888 
L 36 147.414416 
L 36 143.270114 
L 41.952 144.384973 
L 47.904 145.308313 
L 53.856 146.089929 
L 59.808 146.761656 
L 65.76 147.345523 
L 71.712 147.857688 
L 72.114625 147.888 
L 77.664 148.239915 
L 83.616 148.574475 
L 89.568 148.873106 
L 95.52 149.141204 
L 101.472 149.383147 
L 107.424 149.602527 
L 113.376 149.802318 
L 119.328 149.984995 
L 125.28 150.152644 
L 131.232 150.307024 
L 137.184 150.449635 
L 143.136 150.581761 
L 149.088 150.704509 
L 155.04 150.818834 
L 160.992 150.925568 
L 166.944 151.025438 
L 172.896 151.119082 
L 178.848 151.20706 
L 184.8 151.28987 
L 190.752 151.36795 
L 196.704 151.441694 
L 202.656 151.51145 
L 208.608 151.577533 
L 214.56 151.640225 
L 214.56 153.432 
L 214.56 155.471937 
L 208.608 155.414397 
L 202.656 155.353724 
L 196.704 155.289658 
L 190.752 155.221906 
L 184.8 155.150144 
L 178.848 155.074006 
L 172.896 154.993083 
L 166.944 154.906912 
L 160.992 154.81497 
L 155.04 154.716661 
L 149.088 154.611308 
L 143.136 154.498132 
L 137.184 154.376239 
L 131.232 154.244593 
L 125.28 154.10199 
L 119.328 153.947023 
L 113.376 153.778038 
L 107.424 153.593076 
L 102.712141 153.432 
L 101.472 153.381878 
L 95.52 153.115653 
L 89.568 152.820948 
L 83.616 152.493048 
L 77.664 152.12616 
L 71.712 151.713085 
L 65.76 151.244759 
L 59.808 150.709561 
L 53.856 150.092228 
L 47.904 149.371966 
L 41.952 148.518795 
z
" clip-path="url(#p47e37a6d28)" style="fill: #25ab82"/>
    <path d="M 40.568185 53.64 
L 36 52.377663 
L 36 48.096 
L 36 46.433796 
L 41.802458 48.096 
L 41.952 48.140741 
L 47.904 49.648639 
L 53.856 50.902178 
L 59.808 51.958171 
L 65.76 52.857972 
L 71.712 53.632491 
L 71.77761 53.64 
L 77.664 54.358563 
L 83.616 54.99379 
L 89.568 55.553359 
L 95.52 56.049719 
L 101.472 56.492792 
L 107.424 56.89057 
L 113.376 57.249551 
L 119.328 57.575066 
L 125.28 57.871527 
L 131.232 58.142614 
L 137.184 58.391417 
L 143.136 58.620549 
L 149.088 58.832235 
L 155.04 59.028377 
L 160.120171 59.184 
L 160.992 59.212834 
L 166.944 59.396679 
L 172.896 59.568249 
L 178.848 59.728727 
L 184.8 59.879148 
L 190.752 60.020427 
L 196.704 60.153367 
L 202.656 60.278682 
L 208.608 60.397009 
L 214.56 60.508914 
L 214.56 64.728 
L 214.56 66.069947 
L 208.608 65.9604 
L 202.656 65.844545 
L 196.704 65.721824 
L 190.752 65.591609 
L 184.8 65.453196 
L 178.848 65.30579 
L 172.896 65.14849 
L 166.944 64.980271 
L 160.992 64.799963 
L 158.775522 64.728 
L 155.04 64.616955 
L 149.088 64.426746 
L 143.136 64.221421 
L 137.184 63.99912 
L 131.232 63.757672 
L 125.28 63.494523 
L 119.328 63.20665 
L 113.376 62.890453 
L 107.424 62.541611 
L 101.472 62.154894 
L 95.52 61.723924 
L 89.568 61.240847 
L 83.616 60.695895 
L 77.664 60.076795 
L 71.712 59.367946 
L 70.356765 59.184 
L 65.76 58.604354 
L 59.808 57.735043 
L 53.856 56.714243 
L 47.904 55.501779 
L 41.952 54.042595 
z
" clip-path="url(#p47e37a6d28)" style="fill: #25ab82"/>
   </g>
   <g id="PathCollection_24">
    <path d="M 36 142.344 
L 36 138.496617 
L 41.952 139.691183 
L 47.904 140.683474 
L 53.856 141.526213 
L 59.808 142.252901 
L 60.676281 142.344 
L 65.76 142.789056 
L 71.712 143.243952 
L 77.664 143.64514 
L 83.616 144.00148 
L 89.568 144.319986 
L 95.52 144.606293 
L 101.472 144.864979 
L 107.424 145.099806 
L 113.376 145.313889 
L 119.328 145.509828 
L 125.28 145.689812 
L 131.232 145.855696 
L 137.184 146.009059 
L 143.136 146.151256 
L 149.088 146.283454 
L 155.04 146.406665 
L 160.992 146.521769 
L 166.944 146.629536 
L 172.896 146.730643 
L 178.848 146.825684 
L 184.8 146.915188 
L 190.752 146.999622 
L 196.704 147.079404 
L 202.656 147.154906 
L 208.608 147.226462 
L 214.56 147.294373 
L 214.56 147.888 
L 214.56 151.640225 
L 208.608 151.577533 
L 202.656 151.51145 
L 196.704 151.441694 
L 190.752 151.36795 
L 184.8 151.28987 
L 178.848 151.20706 
L 172.896 151.119082 
L 166.944 151.025438 
L 160.992 150.925568 
L 155.04 150.818834 
L 149.088 150.704509 
L 143.136 150.581761 
L 137.184 150.449635 
L 131.232 150.307024 
L 125.28 150.152644 
L 119.328 149.984995 
L 113.376 149.802318 
L 107.424 149.602527 
L 101.472 149.383147 
L 95.52 149.141204 
L 89.568 148.873106 
L 83.616 148.574475 
L 77.664 148.239915 
L 72.114625 147.888 
L 71.712 147.857688 
L 65.76 147.345523 
L 59.808 146.761656 
L 53.856 146.089929 
L 47.904 145.308313 
L 41.952 144.384973 
L 36 143.270114 
z
" clip-path="url(#p47e37a6d28)" style="fill: #3bbb75"/>
    <path d="M 37.018994 59.184 
L 36 58.913367 
L 36 53.64 
L 36 52.377663 
L 40.568185 53.64 
L 41.952 54.042595 
L 47.904 55.501779 
L 53.856 56.714243 
L 59.808 57.735043 
L 65.76 58.604354 
L 70.356765 59.184 
L 71.712 59.367946 
L 77.664 60.076795 
L 83.616 60.695895 
L 89.568 61.240847 
L 95.52 61.723924 
L 101.472 62.154894 
L 107.424 62.541611 
L 113.376 62.890453 
L 119.328 63.20665 
L 125.28 63.494523 
L 131.232 63.757672 
L 137.184 63.99912 
L 143.136 64.221421 
L 149.088 64.426746 
L 155.04 64.616955 
L 158.775522 64.728 
L 160.992 64.799963 
L 166.944 64.980271 
L 172.896 65.14849 
L 178.848 65.30579 
L 184.8 65.453196 
L 190.752 65.591609 
L 196.704 65.721824 
L 202.656 65.844545 
L 208.608 65.9604 
L 214.56 66.069947 
L 214.56 70.272 
L 214.56 72.218775 
L 208.608 72.112975 
L 202.656 72.00106 
L 196.704 71.882486 
L 190.752 71.756643 
L 184.8 71.622844 
L 178.848 71.480315 
L 172.896 71.328175 
L 166.944 71.165425 
L 160.992 70.990919 
L 155.04 70.803347 
L 149.088 70.601192 
L 143.136 70.3827 
L 140.345972 70.272 
L 137.184 70.15887 
L 131.232 69.928072 
L 125.28 69.676461 
L 119.328 69.401125 
L 113.376 69.098595 
L 107.424 68.764701 
L 101.472 68.394392 
L 95.52 67.981503 
L 89.568 67.518427 
L 83.616 66.995697 
L 77.664 66.401393 
L 71.712 65.720335 
L 65.76 64.932946 
L 64.409973 64.728 
L 59.808 64.086586 
L 53.856 63.116554 
L 47.904 61.96419 
L 41.952 60.577528 
z
" clip-path="url(#p47e37a6d28)" style="fill: #3bbb75"/>
   </g>
   <g id="PathCollection_25">
    <path d="M 36 136.8 
L 36 132.826061 
L 41.952 134.081603 
L 47.904 135.127419 
L 53.856 136.018732 
L 59.808 136.790279 
L 59.895487 136.8 
L 65.76 137.331288 
L 71.712 137.803573 
L 77.664 138.220729 
L 83.616 138.591808 
L 89.568 138.923971 
L 95.52 139.222971 
L 101.472 139.493487 
L 107.424 139.739363 
L 113.376 139.963787 
L 119.328 140.169424 
L 125.28 140.35852 
L 131.232 140.532978 
L 137.184 140.694422 
L 143.136 140.844248 
L 149.088 140.983659 
L 155.04 141.113698 
L 160.992 141.235275 
L 166.944 141.349187 
L 172.896 141.456132 
L 178.848 141.556729 
L 184.8 141.651525 
L 190.752 141.741005 
L 196.704 141.825603 
L 202.656 141.905707 
L 208.608 141.981665 
L 214.56 142.053789 
L 214.56 142.344 
L 214.56 147.294373 
L 208.608 147.226462 
L 202.656 147.154906 
L 196.704 147.079404 
L 190.752 146.999622 
L 184.8 146.915188 
L 178.848 146.825684 
L 172.896 146.730643 
L 166.944 146.629536 
L 160.992 146.521769 
L 155.04 146.406665 
L 149.088 146.283454 
L 143.136 146.151256 
L 137.184 146.009059 
L 131.232 145.855696 
L 125.28 145.689812 
L 119.328 145.509828 
L 113.376 145.313889 
L 107.424 145.099806 
L 101.472 144.864979 
L 95.52 144.606293 
L 89.568 144.319986 
L 83.616 144.00148 
L 77.664 143.64514 
L 71.712 143.243952 
L 65.76 142.789056 
L 60.676281 142.344 
L 59.808 142.252901 
L 53.856 141.526213 
L 47.904 140.683474 
L 41.952 139.691183 
L 36 138.496617 
z
" clip-path="url(#p47e37a6d28)" style="fill: #5ec962"/>
    <path d="M 36 64.728 
L 36 59.184 
L 36 58.913367 
L 37.018994 59.184 
L 41.952 60.577528 
L 47.904 61.96419 
L 53.856 63.116554 
L 59.808 64.086586 
L 64.409973 64.728 
L 65.76 64.932946 
L 71.712 65.720335 
L 77.664 66.401393 
L 83.616 66.995697 
L 89.568 67.518427 
L 95.52 67.981503 
L 101.472 68.394392 
L 107.424 68.764701 
L 113.376 69.098595 
L 119.328 69.401125 
L 125.28 69.676461 
L 131.232 69.928072 
L 137.184 70.15887 
L 140.345972 70.272 
L 143.136 70.3827 
L 149.088 70.601192 
L 155.04 70.803347 
L 160.992 70.990919 
L 166.944 71.165425 
L 172.896 71.328175 
L 178.848 71.480315 
L 184.8 71.622844 
L 190.752 71.756643 
L 196.704 71.882486 
L 202.656 72.00106 
L 208.608 72.112975 
L 214.56 72.218775 
L 214.56 75.816 
L 214.56 79.223307 
L 208.608 79.123957 
L 202.656 79.018845 
L 196.704 78.907457 
L 190.752 78.789215 
L 184.8 78.663469 
L 178.848 78.529483 
L 172.896 78.386425 
L 166.944 78.233344 
L 160.992 78.069154 
L 155.04 77.892607 
L 149.088 77.702261 
L 143.136 77.496445 
L 137.184 77.273204 
L 131.232 77.030248 
L 125.28 76.764867 
L 119.328 76.473837 
L 113.376 76.153293 
L 107.713691 75.816 
L 107.424 75.80077 
L 101.472 75.456606 
L 95.52 75.072746 
L 89.568 74.642073 
L 83.616 74.155711 
L 77.664 73.60248 
L 71.712 72.968121 
L 65.76 72.234229 
L 59.808 71.376712 
L 53.856 70.363553 
L 53.391151 70.272 
L 47.904 69.293929 
L 41.952 68.022958 
L 36 66.476207 
z
" clip-path="url(#p47e37a6d28)" style="fill: #5ec962"/>
   </g>
   <g id="PathCollection_26">
    <path d="M 36 131.256 
L 36 125.712 
L 36 125.620351 
L 36.347599 125.712 
L 41.952 126.893585 
L 47.904 127.935454 
L 53.856 128.824628 
L 59.808 129.596351 
L 65.76 130.274289 
L 71.712 130.875445 
L 75.956279 131.256 
L 77.664 131.374606 
L 83.616 131.738067 
L 89.568 132.063628 
L 95.52 132.356901 
L 101.472 132.622443 
L 107.424 132.86399 
L 113.376 133.084639 
L 119.328 133.286979 
L 125.28 133.473187 
L 131.232 133.645112 
L 137.184 133.804331 
L 143.136 133.952198 
L 149.088 134.089881 
L 155.04 134.218395 
L 160.992 134.338625 
L 166.944 134.451344 
L 172.896 134.557234 
L 178.848 134.656896 
L 184.8 134.750863 
L 190.752 134.839608 
L 196.704 134.923556 
L 202.656 135.003084 
L 208.608 135.078531 
L 214.56 135.150205 
L 214.56 136.8 
L 214.56 142.053789 
L 208.608 141.981665 
L 202.656 141.905707 
L 196.704 141.825603 
L 190.752 141.741005 
L 184.8 141.651525 
L 178.848 141.556729 
L 172.896 141.456132 
L 166.944 141.349187 
L 160.992 141.235275 
L 155.04 141.113698 
L 149.088 140.983659 
L 143.136 140.844248 
L 137.184 140.694422 
L 131.232 140.532978 
L 125.28 140.35852 
L 119.328 140.169424 
L 113.376 139.963787 
L 107.424 139.739363 
L 101.472 139.493487 
L 95.52 139.222971 
L 89.568 138.923971 
L 83.616 138.591808 
L 77.664 138.220729 
L 71.712 137.803573 
L 65.76 137.331288 
L 59.895487 136.8 
L 59.808 136.790279 
L 53.856 136.018732 
L 47.904 135.127419 
L 41.952 134.081603 
L 36 132.826061 
z
" clip-path="url(#p47e37a6d28)" style="fill: #89d548"/>
    <path d="M 37.072898 75.816 
L 36 75.573349 
L 36 70.272 
L 36 66.476207 
L 41.952 68.022958 
L 47.904 69.293929 
L 53.391151 70.272 
L 53.856 70.363553 
L 59.808 71.376712 
L 65.76 72.234229 
L 71.712 72.968121 
L 77.664 73.60248 
L 83.616 74.155711 
L 89.568 74.642073 
L 95.52 75.072746 
L 101.472 75.456606 
L 107.424 75.80077 
L 107.713691 75.816 
L 113.376 76.153293 
L 119.328 76.473837 
L 125.28 76.764867 
L 131.232 77.030248 
L 137.184 77.273204 
L 143.136 77.496445 
L 149.088 77.702261 
L 155.04 77.892607 
L 160.992 78.069154 
L 166.944 78.233344 
L 172.896 78.386425 
L 178.848 78.529483 
L 184.8 78.663469 
L 190.752 78.789215 
L 196.704 78.907457 
L 202.656 79.018845 
L 208.608 79.123957 
L 214.56 79.223307 
L 214.56 81.36 
L 214.56 86.904 
L 214.56 87.69337 
L 208.608 87.588638 
L 202.656 87.477676 
L 196.704 87.359909 
L 190.752 87.234694 
L 184.8 87.101299 
L 178.848 86.958898 
L 176.695194 86.904 
L 172.896 86.823649 
L 166.944 86.689179 
L 160.992 86.544944 
L 155.04 86.389844 
L 149.088 86.222609 
L 143.136 86.041764 
L 137.184 85.845587 
L 131.232 85.632054 
L 125.28 85.398772 
L 119.328 85.142888 
L 113.376 84.860982 
L 107.424 84.548911 
L 101.472 84.201619 
L 95.52 83.812869 
L 89.568 83.374884 
L 83.616 82.877859 
L 77.664 82.30926 
L 71.712 81.652842 
L 69.392806 81.36 
L 65.76 80.968931 
L 59.808 80.228693 
L 53.856 79.356041 
L 47.904 78.315453 
L 41.952 77.059315 
z
" clip-path="url(#p47e37a6d28)" style="fill: #89d548"/>
   </g>
   <g id="PathCollection_27">
    <path d="M 36.347599 125.712 
L 36 125.620351 
L 36 120.168 
L 36 114.624 
L 36 113.42372 
L 39.466171 114.624 
L 41.952 115.208883 
L 47.904 116.328835 
L 53.856 117.30159 
L 59.808 118.165988 
L 65.76 118.946684 
L 71.712 119.660399 
L 76.352911 120.168 
L 77.664 120.259687 
L 83.616 120.62251 
L 89.568 120.948983 
L 95.52 121.244519 
L 101.472 121.513477 
L 107.424 121.759407 
L 113.376 121.98524 
L 119.328 122.193419 
L 125.28 122.385995 
L 131.232 122.56471 
L 137.184 122.731049 
L 143.136 122.886288 
L 149.088 123.03153 
L 155.04 123.167736 
L 160.992 123.295742 
L 166.944 123.416284 
L 172.896 123.530012 
L 178.848 123.6375 
L 184.8 123.739258 
L 190.752 123.835742 
L 196.704 123.92736 
L 202.656 124.014477 
L 208.608 124.097424 
L 214.56 124.176498 
L 214.56 125.712 
L 214.56 131.256 
L 214.56 135.150205 
L 208.608 135.078531 
L 202.656 135.003084 
L 196.704 134.923556 
L 190.752 134.839608 
L 184.8 134.750863 
L 178.848 134.656896 
L 172.896 134.557234 
L 166.944 134.451344 
L 160.992 134.338625 
L 155.04 134.218395 
L 149.088 134.089881 
L 143.136 133.952198 
L 137.184 133.804331 
L 131.232 133.645112 
L 125.28 133.473187 
L 119.328 133.286979 
L 113.376 133.084639 
L 107.424 132.86399 
L 101.472 132.622443 
L 95.52 132.356901 
L 89.568 132.063628 
L 83.616 131.738067 
L 77.664 131.374606 
L 75.956279 131.256 
L 71.712 130.875445 
L 65.76 130.274289 
L 59.808 129.596351 
L 53.856 128.824628 
L 47.904 127.935454 
L 41.952 126.893585 
z
" clip-path="url(#p47e37a6d28)" style="fill: #b8de29"/>
    <path d="M 36 86.904 
L 36 81.36 
L 36 75.816 
L 36 75.573349 
L 37.072898 75.816 
L 41.952 77.059315 
L 47.904 78.315453 
L 53.856 79.356041 
L 59.808 80.228693 
L 65.76 80.968931 
L 69.392806 81.36 
L 71.712 81.652842 
L 77.664 82.30926 
L 83.616 82.877859 
L 89.568 83.374884 
L 95.52 83.812869 
L 101.472 84.201619 
L 107.424 84.548911 
L 113.376 84.860982 
L 119.328 85.142888 
L 125.28 85.398772 
L 131.232 85.632054 
L 137.184 85.845587 
L 143.136 86.041764 
L 149.088 86.222609 
L 155.04 86.389844 
L 160.992 86.544944 
L 166.944 86.689179 
L 172.896 86.823649 
L 176.695194 86.904 
L 178.848 86.958898 
L 184.8 87.101299 
L 190.752 87.234694 
L 196.704 87.359909 
L 202.656 87.477676 
L 208.608 87.588638 
L 214.56 87.69337 
L 214.56 92.448 
L 214.56 97.992 
L 214.56 100.496385 
L 208.608 100.400354 
L 202.656 100.298305 
L 196.704 100.189647 
L 190.752 100.073708 
L 184.8 99.949721 
L 178.848 99.816806 
L 172.896 99.673948 
L 166.944 99.519967 
L 160.992 99.353489 
L 155.04 99.172898 
L 149.088 98.976281 
L 143.136 98.761354 
L 137.184 98.525369 
L 131.232 98.264983 
L 125.601057 97.992 
L 125.28 97.981483 
L 119.328 97.7702 
L 113.376 97.536943 
L 107.424 97.278078 
L 101.472 96.989122 
L 95.52 96.664475 
L 89.568 96.297045 
L 83.616 95.877716 
L 77.664 95.394558 
L 71.712 94.831646 
L 65.76 94.167195 
L 59.808 93.370531 
L 54.144958 92.448 
L 53.856 92.413954 
L 47.904 91.633083 
L 41.952 90.71598 
L 36 89.656818 
z
" clip-path="url(#p47e37a6d28)" style="fill: #b8de29"/>
   </g>
   <g id="PathCollection_28">
    <path d="M 39.466171 114.624 
L 36 113.42372 
L 36 109.08 
L 36 103.536 
L 36 97.992 
L 36 92.448 
L 36 89.656818 
L 41.952 90.71598 
L 47.904 91.633083 
L 53.856 92.413954 
L 54.144958 92.448 
L 59.808 93.370531 
L 65.76 94.167195 
L 71.712 94.831646 
L 77.664 95.394558 
L 83.616 95.877716 
L 89.568 96.297045 
L 95.52 96.664475 
L 101.472 96.989122 
L 107.424 97.278078 
L 113.376 97.536943 
L 119.328 97.7702 
L 125.28 97.981483 
L 125.601057 97.992 
L 131.232 98.264983 
L 137.184 98.525369 
L 143.136 98.761354 
L 149.088 98.976281 
L 155.04 99.172898 
L 160.992 99.353489 
L 166.944 99.519967 
L 172.896 99.673948 
L 178.848 99.816806 
L 184.8 99.949721 
L 190.752 100.073708 
L 196.704 100.189647 
L 202.656 100.298305 
L 208.608 100.400354 
L 214.56 100.496385 
L 214.56 103.536 
L 214.56 109.08 
L 214.56 114.624 
L 214.56 120.168 
L 214.56 124.176498 
L 208.608 124.097424 
L 202.656 124.014477 
L 196.704 123.92736 
L 190.752 123.835742 
L 184.8 123.739258 
L 178.848 123.6375 
L 172.896 123.530012 
L 166.944 123.416284 
L 160.992 123.295742 
L 155.04 123.167736 
L 149.088 123.03153 
L 143.136 122.886288 
L 137.184 122.731049 
L 131.232 122.56471 
L 125.28 122.385995 
L 119.328 122.193419 
L 113.376 121.98524 
L 107.424 121.759407 
L 101.472 121.513477 
L 95.52 121.244519 
L 89.568 120.948983 
L 83.616 120.62251 
L 77.664 120.259687 
L 76.352911 120.168 
L 71.712 119.660399 
L 65.76 118.946684 
L 59.808 118.165988 
L 53.856 117.30159 
L 47.904 116.328835 
L 41.952 115.208883 
z
" clip-path="url(#p47e37a6d28)" style="fill: #e7e419"/>
   </g>
   <g id="PathCollection_29">
    <defs>
     <path id="mdc74e474c1" d="M -4.330127 4.330127 
L 4.330127 -4.330127 
M -4.330127 -4.330127 
L 4.330127 4.330127 
" style="stroke: #000000; stroke-width: 2"/>
    </defs>
    <g clip-path="url(#p47e37a6d28)">
     <use xlink:href="#mdc74e474c1" x="85.6" y="109.08" style="stroke: #000000; stroke-width: 2"/>
    </g>
   </g>
   <g id="matplotlib.axis_1">
    <g id="xtick_1">
     <g id="line2d_1">
      <defs>
       <path id="md8d540d398" d="M 0 0 
L 0 3.5 
" style="stroke: #000000; stroke-width: 0.8"/>
      </defs>
      <g>
       <use xlink:href="#md8d540d398" x="75.68" y="192.24" style="stroke: #000000; stroke-width: 0.8"/>
      </g>
     </g>
     <g id="text_1">
      <!-- 250 -->
      <g transform="translate(64.2275 208.358125) scale(0.12 -0.12)">
       <defs>
        <path id="DejaVuSans-32" d="M 1228 531 
L 3431 531 
L 3431 0 
L 469 0 
L 469 531 
Q 828 903 1448 1529 
Q 2069 2156 2228 2338 
Q 2531 2678 2651 2914 
Q 2772 3150 2772 3378 
Q 2772 3750 2511 3984 
Q 2250 4219 1831 4219 
Q 1534 4219 1204 4116 
Q 875 4013 500 3803 
L 500 4441 
Q 881 4594 1212 4672 
Q 1544 4750 1819 4750 
Q 2544 4750 2975 4387 
Q 3406 4025 3406 3419 
Q 3406 3131 3298 2873 
Q 3191 2616 2906 2266 
Q 2828 2175 2409 1742 
Q 1991 1309 1228 531 
z
" transform="scale(0.015625)"/>
        <path id="DejaVuSans-35" d="M 691 4666 
L 3169 4666 
L 3169 4134 
L 1269 4134 
L 1269 2991 
Q 1406 3038 1543 3061 
Q 1681 3084 1819 3084 
Q 2600 3084 3056 2656 
Q 3513 2228 3513 1497 
Q 3513 744 3044 326 
Q 2575 -91 1722 -91 
Q 1428 -91 1123 -41 
Q 819 9 494 109 
L 494 744 
Q 775 591 1075 516 
Q 1375 441 1709 441 
Q 2250 441 2565 725 
Q 2881 1009 2881 1497 
Q 2881 1984 2565 2268 
Q 2250 2553 1709 2553 
Q 1456 2553 1204 2497 
Q 953 2441 691 2322 
L 691 4666 
z
" transform="scale(0.015625)"/>
        <path id="DejaVuSans-30" d="M 2034 4250 
Q 1547 4250 1301 3770 
Q 1056 3291 1056 2328 
Q 1056 1369 1301 889 
Q 1547 409 2034 409 
Q 2525 409 2770 889 
Q 3016 1369 3016 2328 
Q 3016 3291 2770 3770 
Q 2525 4250 2034 4250 
z
M 2034 4750 
Q 2819 4750 3233 4129 
Q 3647 3509 3647 2328 
Q 3647 1150 3233 529 
Q 2819 -91 2034 -91 
Q 1250 -91 836 529 
Q 422 1150 422 2328 
Q 422 3509 836 4129 
Q 1250 4750 2034 4750 
z
" transform="scale(0.015625)"/>
       </defs>
       <use xlink:href="#DejaVuSans-32"/>
       <use xlink:href="#DejaVuSans-35" x="63.623047"/>
       <use xlink:href="#DejaVuSans-30" x="127.246094"/>
      </g>
     </g>
    </g>
    <g id="xtick_2">
     <g id="line2d_2">
      <g>
       <use xlink:href="#md8d540d398" x="125.28" y="192.24" style="stroke: #000000; stroke-width: 0.8"/>
      </g>
     </g>
     <g id="text_2">
      <!-- 500 -->
      <g transform="translate(113.8275 208.358125) scale(0.12 -0.12)">
       <use xlink:href="#DejaVuSans-35"/>
       <use xlink:href="#DejaVuSans-30" x="63.623047"/>
       <use xlink:href="#DejaVuSans-30" x="127.246094"/>
      </g>
     </g>
    </g>
    <g id="xtick_3">
     <g id="line2d_3">
      <g>
       <use xlink:href="#md8d540d398" x="174.88" y="192.24" style="stroke: #000000; stroke-width: 0.8"/>
      </g>
     </g>
     <g id="text_3">
      <!-- 750 -->
      <g transform="translate(163.4275 208.358125) scale(0.12 -0.12)">
       <defs>
        <path id="DejaVuSans-37" d="M 525 4666 
L 3525 4666 
L 3525 4397 
L 1831 0 
L 1172 0 
L 2766 4134 
L 525 4134 
L 525 4666 
z
" transform="scale(0.015625)"/>
       </defs>
       <use xlink:href="#DejaVuSans-37"/>
       <use xlink:href="#DejaVuSans-35" x="63.623047"/>
       <use xlink:href="#DejaVuSans-30" x="127.246094"/>
      </g>
     </g>
    </g>
    <g id="text_4">
     <!-- Diploid N$_e$1 -->
     <g transform="translate(80 227.01375) scale(0.16 -0.16)">
      <defs>
       <path id="DejaVuSans-44" d="M 1259 4147 
L 1259 519 
L 2022 519 
Q 2988 519 3436 956 
Q 3884 1394 3884 2338 
Q 3884 3275 3436 3711 
Q 2988 4147 2022 4147 
L 1259 4147 
z
M 628 4666 
L 1925 4666 
Q 3281 4666 3915 4102 
Q 4550 3538 4550 2338 
Q 4550 1131 3912 565 
Q 3275 0 1925 0 
L 628 0 
L 628 4666 
z
" transform="scale(0.015625)"/>
       <path id="DejaVuSans-69" d="M 603 3500 
L 1178 3500 
L 1178 0 
L 603 0 
L 603 3500 
z
M 603 4863 
L 1178 4863 
L 1178 4134 
L 603 4134 
L 603 4863 
z
" transform="scale(0.015625)"/>
       <path id="DejaVuSans-70" d="M 1159 525 
L 1159 -1331 
L 581 -1331 
L 581 3500 
L 1159 3500 
L 1159 2969 
Q 1341 3281 1617 3432 
Q 1894 3584 2278 3584 
Q 2916 3584 3314 3078 
Q 3713 2572 3713 1747 
Q 3713 922 3314 415 
Q 2916 -91 2278 -91 
Q 1894 -91 1617 61 
Q 1341 213 1159 525 
z
M 3116 1747 
Q 3116 2381 2855 2742 
Q 2594 3103 2138 3103 
Q 1681 3103 1420 2742 
Q 1159 2381 1159 1747 
Q 1159 1113 1420 752 
Q 1681 391 2138 391 
Q 2594 391 2855 752 
Q 3116 1113 3116 1747 
z
" transform="scale(0.015625)"/>
       <path id="DejaVuSans-6c" d="M 603 4863 
L 1178 4863 
L 1178 0 
L 603 0 
L 603 4863 
z
" transform="scale(0.015625)"/>
       <path id="DejaVuSans-6f" d="M 1959 3097 
Q 1497 3097 1228 2736 
Q 959 2375 959 1747 
Q 959 1119 1226 758 
Q 1494 397 1959 397 
Q 2419 397 2687 759 
Q 2956 1122 2956 1747 
Q 2956 2369 2687 2733 
Q 2419 3097 1959 3097 
z
M 1959 3584 
Q 2709 3584 3137 3096 
Q 3566 2609 3566 1747 
Q 3566 888 3137 398 
Q 2709 -91 1959 -91 
Q 1206 -91 779 398 
Q 353 888 353 1747 
Q 353 2609 779 3096 
Q 1206 3584 1959 3584 
z
" transform="scale(0.015625)"/>
       <path id="DejaVuSans-64" d="M 2906 2969 
L 2906 4863 
L 3481 4863 
L 3481 0 
L 2906 0 
L 2906 525 
Q 2725 213 2448 61 
Q 2172 -91 1784 -91 
Q 1150 -91 751 415 
Q 353 922 353 1747 
Q 353 2572 751 3078 
Q 1150 3584 1784 3584 
Q 2172 3584 2448 3432 
Q 2725 3281 2906 2969 
z
M 947 1747 
Q 947 1113 1208 752 
Q 1469 391 1925 391 
Q 2381 391 2643 752 
Q 2906 1113 2906 1747 
Q 2906 2381 2643 2742 
Q 2381 3103 1925 3103 
Q 1469 3103 1208 2742 
Q 947 2381 947 1747 
z
" transform="scale(0.015625)"/>
       <path id="DejaVuSans-20" transform="scale(0.015625)"/>
       <path id="DejaVuSans-4e" d="M 628 4666 
L 1478 4666 
L 3547 763 
L 3547 4666 
L 4159 4666 
L 4159 0 
L 3309 0 
L 1241 3903 
L 1241 0 
L 628 0 
L 628 4666 
z
" transform="scale(0.015625)"/>
       <path id="DejaVuSans-Oblique-65" d="M 3078 2063 
Q 3088 2113 3092 2166 
Q 3097 2219 3097 2272 
Q 3097 2653 2873 2875 
Q 2650 3097 2266 3097 
Q 1838 3097 1509 2826 
Q 1181 2556 1013 2059 
L 3078 2063 
z
M 3578 1613 
L 903 1613 
Q 884 1494 878 1425 
Q 872 1356 872 1306 
Q 872 872 1139 634 
Q 1406 397 1894 397 
Q 2269 397 2603 481 
Q 2938 566 3225 728 
L 3116 159 
Q 2806 34 2476 -28 
Q 2147 -91 1806 -91 
Q 1078 -91 686 257 
Q 294 606 294 1247 
Q 294 1794 489 2264 
Q 684 2734 1063 3103 
Q 1306 3334 1642 3459 
Q 1978 3584 2356 3584 
Q 2950 3584 3301 3228 
Q 3653 2872 3653 2272 
Q 3653 2128 3634 1964 
Q 3616 1800 3578 1613 
z
" transform="scale(0.015625)"/>
       <path id="DejaVuSans-31" d="M 794 531 
L 1825 531 
L 1825 4091 
L 703 3866 
L 703 4441 
L 1819 4666 
L 2450 4666 
L 2450 531 
L 3481 531 
L 3481 0 
L 794 0 
L 794 531 
z
" transform="scale(0.015625)"/>
      </defs>
      <use xlink:href="#DejaVuSans-44" transform="translate(0 0.015625)"/>
      <use xlink:href="#DejaVuSans-69" transform="translate(77.001953 0.015625)"/>
      <use xlink:href="#DejaVuSans-70" transform="translate(104.785156 0.015625)"/>
      <use xlink:href="#DejaVuSans-6c" transform="translate(168.261719 0.015625)"/>
      <use xlink:href="#DejaVuSans-6f" transform="translate(196.044922 0.015625)"/>
      <use xlink:href="#DejaVuSans-69" transform="translate(257.226562 0.015625)"/>
      <use xlink:href="#DejaVuSans-64" transform="translate(285.009766 0.015625)"/>
      <use xlink:href="#DejaVuSans-20" transform="translate(348.486328 0.015625)"/>
      <use xlink:href="#DejaVuSans-4e" transform="translate(380.273438 0.015625)"/>
      <use xlink:href="#DejaVuSans-Oblique-65" transform="translate(456.035156 -16.390625) scale(0.7)"/>
      <use xlink:href="#DejaVuSans-31" transform="translate(501.835938 0.015625)"/>
     </g>
    </g>
    <g id="text_5">
     <!-- 1e3 -->
     <g transform="translate(195.681875 221.452188) scale(0.1 -0.1)">
      <defs>
       <path id="DejaVuSans-65" d="M 3597 1894 
L 3597 1613 
L 953 1613 
Q 991 1019 1311 708 
Q 1631 397 2203 397 
Q 2534 397 2845 478 
Q 3156 559 3463 722 
L 3463 178 
Q 3153 47 2828 -22 
Q 2503 -91 2169 -91 
Q 1331 -91 842 396 
Q 353 884 353 1716 
Q 353 2575 817 3079 
Q 1281 3584 2069 3584 
Q 2775 3584 3186 3129 
Q 3597 2675 3597 1894 
z
M 3022 2063 
Q 3016 2534 2758 2815 
Q 2500 3097 2075 3097 
Q 1594 3097 1305 2825 
Q 1016 2553 972 2059 
L 3022 2063 
z
" transform="scale(0.015625)"/>
       <path id="DejaVuSans-33" d="M 2597 2516 
Q 3050 2419 3304 2112 
Q 3559 1806 3559 1356 
Q 3559 666 3084 287 
Q 2609 -91 1734 -91 
Q 1441 -91 1130 -33 
Q 819 25 488 141 
L 488 750 
Q 750 597 1062 519 
Q 1375 441 1716 441 
Q 2309 441 2620 675 
Q 2931 909 2931 1356 
Q 2931 1769 2642 2001 
Q 2353 2234 1838 2234 
L 1294 2234 
L 1294 2753 
L 1863 2753 
Q 2328 2753 2575 2939 
Q 2822 3125 2822 3475 
Q 2822 3834 2567 4026 
Q 2313 4219 1838 4219 
Q 1578 4219 1281 4162 
Q 984 4106 628 3988 
L 628 4550 
Q 988 4650 1302 4700 
Q 1616 4750 1894 4750 
Q 2613 4750 3031 4423 
Q 3450 4097 3450 3541 
Q 3450 3153 3228 2886 
Q 3006 2619 2597 2516 
z
" transform="scale(0.015625)"/>
      </defs>
      <use xlink:href="#DejaVuSans-31"/>
      <use xlink:href="#DejaVuSans-65" x="63.623047"/>
      <use xlink:href="#DejaVuSans-33" x="125.146484"/>
     </g>
    </g>
   </g>
   <g id="matplotlib.axis_2">
    <g id="ytick_1">
     <g id="line2d_4">
      <defs>
       <path id="mc04b9086fc" d="M 0 0 
L -3.5 0 
" style="stroke: #000000; stroke-width: 0.8"/>
      </defs>
      <g>
       <use xlink:href="#mc04b9086fc" x="36" y="192.24" style="stroke: #000000; stroke-width: 0.8"/>
      </g>
     </g>
     <g id="text_6">
      <!-- 1.0 -->
      <g transform="translate(9.91625 196.799062) scale(0.12 -0.12)">
       <defs>
        <path id="DejaVuSans-2e" d="M 684 794 
L 1344 794 
L 1344 0 
L 684 0 
L 684 794 
z
" transform="scale(0.015625)"/>
       </defs>
       <use xlink:href="#DejaVuSans-31"/>
       <use xlink:href="#DejaVuSans-2e" x="63.623047"/>
       <use xlink:href="#DejaVuSans-30" x="95.410156"/>
      </g>
     </g>
    </g>
    <g id="ytick_2">
     <g id="line2d_5">
      <g>
       <use xlink:href="#mc04b9086fc" x="36" y="150.66" style="stroke: #000000; stroke-width: 0.8"/>
      </g>
     </g>
     <g id="text_7">
      <!-- 1.5 -->
      <g transform="translate(9.91625 155.219063) scale(0.12 -0.12)">
       <use xlink:href="#DejaVuSans-31"/>
       <use xlink:href="#DejaVuSans-2e" x="63.623047"/>
       <use xlink:href="#DejaVuSans-35" x="95.410156"/>
      </g>
     </g>
    </g>
    <g id="ytick_3">
     <g id="line2d_6">
      <g>
       <use xlink:href="#mc04b9086fc" x="36" y="109.08" style="stroke: #000000; stroke-width: 0.8"/>
      </g>
     </g>
     <g id="text_8">
      <!-- 2.0 -->
      <g transform="translate(9.91625 113.639062) scale(0.12 -0.12)">
       <use xlink:href="#DejaVuSans-32"/>
       <use xlink:href="#DejaVuSans-2e" x="63.623047"/>
       <use xlink:href="#DejaVuSans-30" x="95.410156"/>
      </g>
     </g>
    </g>
    <g id="ytick_4">
     <g id="line2d_7">
      <g>
       <use xlink:href="#mc04b9086fc" x="36" y="67.5" style="stroke: #000000; stroke-width: 0.8"/>
      </g>
     </g>
     <g id="text_9">
      <!-- 2.5 -->
      <g transform="translate(9.91625 72.059063) scale(0.12 -0.12)">
       <use xlink:href="#DejaVuSans-32"/>
       <use xlink:href="#DejaVuSans-2e" x="63.623047"/>
       <use xlink:href="#DejaVuSans-35" x="95.410156"/>
      </g>
     </g>
    </g>
    <g id="ytick_5">
     <g id="line2d_8">
      <g>
       <use xlink:href="#mc04b9086fc" x="36" y="25.92" style="stroke: #000000; stroke-width: 0.8"/>
      </g>
     </g>
     <g id="text_10">
      <!-- 3.0 -->
      <g transform="translate(9.91625 30.479062) scale(0.12 -0.12)">
       <use xlink:href="#DejaVuSans-33"/>
       <use xlink:href="#DejaVuSans-2e" x="63.623047"/>
       <use xlink:href="#DejaVuSans-30" x="95.410156"/>
      </g>
     </g>
    </g>
    <g id="text_11">
     <!-- Recombination rate -->
     <g transform="translate(2.58875 187.6775) rotate(-90) scale(0.16 -0.16)">
      <defs>
       <path id="DejaVuSans-52" d="M 2841 2188 
Q 3044 2119 3236 1894 
Q 3428 1669 3622 1275 
L 4263 0 
L 3584 0 
L 2988 1197 
Q 2756 1666 2539 1819 
Q 2322 1972 1947 1972 
L 1259 1972 
L 1259 0 
L 628 0 
L 628 4666 
L 2053 4666 
Q 2853 4666 3247 4331 
Q 3641 3997 3641 3322 
Q 3641 2881 3436 2590 
Q 3231 2300 2841 2188 
z
M 1259 4147 
L 1259 2491 
L 2053 2491 
Q 2509 2491 2742 2702 
Q 2975 2913 2975 3322 
Q 2975 3731 2742 3939 
Q 2509 4147 2053 4147 
L 1259 4147 
z
" transform="scale(0.015625)"/>
       <path id="DejaVuSans-63" d="M 3122 3366 
L 3122 2828 
Q 2878 2963 2633 3030 
Q 2388 3097 2138 3097 
Q 1578 3097 1268 2742 
Q 959 2388 959 1747 
Q 959 1106 1268 751 
Q 1578 397 2138 397 
Q 2388 397 2633 464 
Q 2878 531 3122 666 
L 3122 134 
Q 2881 22 2623 -34 
Q 2366 -91 2075 -91 
Q 1284 -91 818 406 
Q 353 903 353 1747 
Q 353 2603 823 3093 
Q 1294 3584 2113 3584 
Q 2378 3584 2631 3529 
Q 2884 3475 3122 3366 
z
" transform="scale(0.015625)"/>
       <path id="DejaVuSans-6d" d="M 3328 2828 
Q 3544 3216 3844 3400 
Q 4144 3584 4550 3584 
Q 5097 3584 5394 3201 
Q 5691 2819 5691 2113 
L 5691 0 
L 5113 0 
L 5113 2094 
Q 5113 2597 4934 2840 
Q 4756 3084 4391 3084 
Q 3944 3084 3684 2787 
Q 3425 2491 3425 1978 
L 3425 0 
L 2847 0 
L 2847 2094 
Q 2847 2600 2669 2842 
Q 2491 3084 2119 3084 
Q 1678 3084 1418 2786 
Q 1159 2488 1159 1978 
L 1159 0 
L 581 0 
L 581 3500 
L 1159 3500 
L 1159 2956 
Q 1356 3278 1631 3431 
Q 1906 3584 2284 3584 
Q 2666 3584 2933 3390 
Q 3200 3197 3328 2828 
z
" transform="scale(0.015625)"/>
       <path id="DejaVuSans-62" d="M 3116 1747 
Q 3116 2381 2855 2742 
Q 2594 3103 2138 3103 
Q 1681 3103 1420 2742 
Q 1159 2381 1159 1747 
Q 1159 1113 1420 752 
Q 1681 391 2138 391 
Q 2594 391 2855 752 
Q 3116 1113 3116 1747 
z
M 1159 2969 
Q 1341 3281 1617 3432 
Q 1894 3584 2278 3584 
Q 2916 3584 3314 3078 
Q 3713 2572 3713 1747 
Q 3713 922 3314 415 
Q 2916 -91 2278 -91 
Q 1894 -91 1617 61 
Q 1341 213 1159 525 
L 1159 0 
L 581 0 
L 581 4863 
L 1159 4863 
L 1159 2969 
z
" transform="scale(0.015625)"/>
       <path id="DejaVuSans-6e" d="M 3513 2113 
L 3513 0 
L 2938 0 
L 2938 2094 
Q 2938 2591 2744 2837 
Q 2550 3084 2163 3084 
Q 1697 3084 1428 2787 
Q 1159 2491 1159 1978 
L 1159 0 
L 581 0 
L 581 3500 
L 1159 3500 
L 1159 2956 
Q 1366 3272 1645 3428 
Q 1925 3584 2291 3584 
Q 2894 3584 3203 3211 
Q 3513 2838 3513 2113 
z
" transform="scale(0.015625)"/>
       <path id="DejaVuSans-61" d="M 2194 1759 
Q 1497 1759 1228 1600 
Q 959 1441 959 1056 
Q 959 750 1161 570 
Q 1363 391 1709 391 
Q 2188 391 2477 730 
Q 2766 1069 2766 1631 
L 2766 1759 
L 2194 1759 
z
M 3341 1997 
L 3341 0 
L 2766 0 
L 2766 531 
Q 2569 213 2275 61 
Q 1981 -91 1556 -91 
Q 1019 -91 701 211 
Q 384 513 384 1019 
Q 384 1609 779 1909 
Q 1175 2209 1959 2209 
L 2766 2209 
L 2766 2266 
Q 2766 2663 2505 2880 
Q 2244 3097 1772 3097 
Q 1472 3097 1187 3025 
Q 903 2953 641 2809 
L 641 3341 
Q 956 3463 1253 3523 
Q 1550 3584 1831 3584 
Q 2591 3584 2966 3190 
Q 3341 2797 3341 1997 
z
" transform="scale(0.015625)"/>
       <path id="DejaVuSans-74" d="M 1172 4494 
L 1172 3500 
L 2356 3500 
L 2356 3053 
L 1172 3053 
L 1172 1153 
Q 1172 725 1289 603 
Q 1406 481 1766 481 
L 2356 481 
L 2356 0 
L 1766 0 
Q 1100 0 847 248 
Q 594 497 594 1153 
L 594 3053 
L 172 3053 
L 172 3500 
L 594 3500 
L 594 4494 
L 1172 4494 
z
" transform="scale(0.015625)"/>
       <path id="DejaVuSans-72" d="M 2631 2963 
Q 2534 3019 2420 3045 
Q 2306 3072 2169 3072 
Q 1681 3072 1420 2755 
Q 1159 2438 1159 1844 
L 1159 0 
L 581 0 
L 581 3500 
L 1159 3500 
L 1159 2956 
Q 1341 3275 1631 3429 
Q 1922 3584 2338 3584 
Q 2397 3584 2469 3576 
Q 2541 3569 2628 3553 
L 2631 2963 
z
" transform="scale(0.015625)"/>
      </defs>
      <use xlink:href="#DejaVuSans-52"/>
      <use xlink:href="#DejaVuSans-65" x="64.982422"/>
      <use xlink:href="#DejaVuSans-63" x="126.505859"/>
      <use xlink:href="#DejaVuSans-6f" x="181.486328"/>
      <use xlink:href="#DejaVuSans-6d" x="242.667969"/>
      <use xlink:href="#DejaVuSans-62" x="340.080078"/>
      <use xlink:href="#DejaVuSans-69" x="403.556641"/>
      <use xlink:href="#DejaVuSans-6e" x="431.339844"/>
      <use xlink:href="#DejaVuSans-61" x="494.71875"/>
      <use xlink:href="#DejaVuSans-74" x="555.998047"/>
      <use xlink:href="#DejaVuSans-69" x="595.207031"/>
      <use xlink:href="#DejaVuSans-6f" x="622.990234"/>
      <use xlink:href="#DejaVuSans-6e" x="684.171875"/>
      <use xlink:href="#DejaVuSans-20" x="747.550781"/>
      <use xlink:href="#DejaVuSans-72" x="779.337891"/>
      <use xlink:href="#DejaVuSans-61" x="820.451172"/>
      <use xlink:href="#DejaVuSans-74" x="881.730469"/>
      <use xlink:href="#DejaVuSans-65" x="920.939453"/>
     </g>
    </g>
    <g id="text_12">
     <!-- 1e9 -->
     <g transform="translate(36 22.92) scale(0.1 -0.1)">
      <defs>
       <path id="DejaVuSans-2212" d="M 678 2272 
L 4684 2272 
L 4684 1741 
L 678 1741 
L 678 2272 
z
" transform="scale(0.015625)"/>
       <path id="DejaVuSans-39" d="M 703 97 
L 703 672 
Q 941 559 1184 500 
Q 1428 441 1663 441 
Q 2288 441 2617 861 
Q 2947 1281 2994 2138 
Q 2813 1869 2534 1725 
Q 2256 1581 1919 1581 
Q 1219 1581 811 2004 
Q 403 2428 403 3163 
Q 403 3881 828 4315 
Q 1253 4750 1959 4750 
Q 2769 4750 3195 4129 
Q 3622 3509 3622 2328 
Q 3622 1225 3098 567 
Q 2575 -91 1691 -91 
Q 1453 -91 1209 -44 
Q 966 3 703 97 
z
M 1959 2075 
Q 2384 2075 2632 2365 
Q 2881 2656 2881 3163 
Q 2881 3666 2632 3958 
Q 2384 4250 1959 4250 
Q 1534 4250 1286 3958 
Q 1038 3666 1038 3163 
Q 1038 2656 1286 2365 
Q 1534 2075 1959 2075 
z
" transform="scale(0.015625)"/>
      </defs>
      <use xlink:href="#DejaVuSans-31"/>
      <use xlink:href="#DejaVuSans-65" x="63.623047"/>
      <use xlink:href="#DejaVuSans-2212" x="125.146484"/>
      <use xlink:href="#DejaVuSans-39" x="208.935547"/>
     </g>
    </g>
   </g>
   <g id="patch_3">
    <path d="M 36 192.24 
L 36 25.92 
" style="fill: none; stroke: #000000; stroke-width: 0.8; stroke-linejoin: miter; stroke-linecap: square"/>
   </g>
   <g id="patch_4">
    <path d="M 214.56 192.24 
L 214.56 25.92 
" style="fill: none; stroke: #000000; stroke-width: 0.8; stroke-linejoin: miter; stroke-linecap: square"/>
   </g>
   <g id="patch_5">
    <path d="M 36 192.24 
L 214.56 192.24 
" style="fill: none; stroke: #000000; stroke-width: 0.8; stroke-linejoin: miter; stroke-linecap: square"/>
   </g>
   <g id="patch_6">
    <path d="M 36 25.92 
L 214.56 25.92 
" style="fill: none; stroke: #000000; stroke-width: 0.8; stroke-linejoin: miter; stroke-linecap: square"/>
   </g>
   <g id="text_13">
    <!-- Ne1r-SMC-G-P2-S4 -->
    <g transform="translate(50.82 10.92) scale(0.16 -0.16)">
     <defs>
      <path id="DejaVuSans-2d" d="M 313 2009 
L 1997 2009 
L 1997 1497 
L 313 1497 
L 313 2009 
z
" transform="scale(0.015625)"/>
      <path id="DejaVuSans-53" d="M 3425 4513 
L 3425 3897 
Q 3066 4069 2747 4153 
Q 2428 4238 2131 4238 
Q 1616 4238 1336 4038 
Q 1056 3838 1056 3469 
Q 1056 3159 1242 3001 
Q 1428 2844 1947 2747 
L 2328 2669 
Q 3034 2534 3370 2195 
Q 3706 1856 3706 1288 
Q 3706 609 3251 259 
Q 2797 -91 1919 -91 
Q 1588 -91 1214 -16 
Q 841 59 441 206 
L 441 856 
Q 825 641 1194 531 
Q 1563 422 1919 422 
Q 2459 422 2753 634 
Q 3047 847 3047 1241 
Q 3047 1584 2836 1778 
Q 2625 1972 2144 2069 
L 1759 2144 
Q 1053 2284 737 2584 
Q 422 2884 422 3419 
Q 422 4038 858 4394 
Q 1294 4750 2059 4750 
Q 2388 4750 2728 4690 
Q 3069 4631 3425 4513 
z
" transform="scale(0.015625)"/>
      <path id="DejaVuSans-4d" d="M 628 4666 
L 1569 4666 
L 2759 1491 
L 3956 4666 
L 4897 4666 
L 4897 0 
L 4281 0 
L 4281 4097 
L 3078 897 
L 2444 897 
L 1241 4097 
L 1241 0 
L 628 0 
L 628 4666 
z
" transform="scale(0.015625)"/>
      <path id="DejaVuSans-43" d="M 4122 4306 
L 4122 3641 
Q 3803 3938 3442 4084 
Q 3081 4231 2675 4231 
Q 1875 4231 1450 3742 
Q 1025 3253 1025 2328 
Q 1025 1406 1450 917 
Q 1875 428 2675 428 
Q 3081 428 3442 575 
Q 3803 722 4122 1019 
L 4122 359 
Q 3791 134 3420 21 
Q 3050 -91 2638 -91 
Q 1578 -91 968 557 
Q 359 1206 359 2328 
Q 359 3453 968 4101 
Q 1578 4750 2638 4750 
Q 3056 4750 3426 4639 
Q 3797 4528 4122 4306 
z
" transform="scale(0.015625)"/>
      <path id="DejaVuSans-47" d="M 3809 666 
L 3809 1919 
L 2778 1919 
L 2778 2438 
L 4434 2438 
L 4434 434 
Q 4069 175 3628 42 
Q 3188 -91 2688 -91 
Q 1594 -91 976 548 
Q 359 1188 359 2328 
Q 359 3472 976 4111 
Q 1594 4750 2688 4750 
Q 3144 4750 3555 4637 
Q 3966 4525 4313 4306 
L 4313 3634 
Q 3963 3931 3569 4081 
Q 3175 4231 2741 4231 
Q 1884 4231 1454 3753 
Q 1025 3275 1025 2328 
Q 1025 1384 1454 906 
Q 1884 428 2741 428 
Q 3075 428 3337 486 
Q 3600 544 3809 666 
z
" transform="scale(0.015625)"/>
      <path id="DejaVuSans-50" d="M 1259 4147 
L 1259 2394 
L 2053 2394 
Q 2494 2394 2734 2622 
Q 2975 2850 2975 3272 
Q 2975 3691 2734 3919 
Q 2494 4147 2053 4147 
L 1259 4147 
z
M 628 4666 
L 2053 4666 
Q 2838 4666 3239 4311 
Q 3641 3956 3641 3272 
Q 3641 2581 3239 2228 
Q 2838 1875 2053 1875 
L 1259 1875 
L 1259 0 
L 628 0 
L 628 4666 
z
" transform="scale(0.015625)"/>
      <path id="DejaVuSans-34" d="M 2419 4116 
L 825 1625 
L 2419 1625 
L 2419 4116 
z
M 2253 4666 
L 3047 4666 
L 3047 1625 
L 3713 1625 
L 3713 1100 
L 3047 1100 
L 3047 0 
L 2419 0 
L 2419 1100 
L 313 1100 
L 313 1709 
L 2253 4666 
z
" transform="scale(0.015625)"/>
     </defs>
     <use xlink:href="#DejaVuSans-4e"/>
     <use xlink:href="#DejaVuSans-65" x="74.804688"/>
     <use xlink:href="#DejaVuSans-31" x="136.328125"/>
     <use xlink:href="#DejaVuSans-72" x="199.951172"/>
     <use xlink:href="#DejaVuSans-2d" x="234.689453"/>
     <use xlink:href="#DejaVuSans-53" x="270.773438"/>
     <use xlink:href="#DejaVuSans-4d" x="334.25"/>
     <use xlink:href="#DejaVuSans-43" x="420.529297"/>
     <use xlink:href="#DejaVuSans-2d" x="490.353516"/>
     <use xlink:href="#DejaVuSans-47" x="530.0625"/>
     <use xlink:href="#DejaVuSans-2d" x="607.552734"/>
     <use xlink:href="#DejaVuSans-50" x="643.636719"/>
     <use xlink:href="#DejaVuSans-32" x="703.939453"/>
     <use xlink:href="#DejaVuSans-2d" x="767.5625"/>
     <use xlink:href="#DejaVuSans-53" x="803.646484"/>
     <use xlink:href="#DejaVuSans-34" x="867.123047"/>
    </g>
   </g>
  </g>
  <g id="axes_2">
   <g id="patch_7">
    <path d="M 225.72 192.24 
L 234.036 192.24 
L 234.036 25.92 
L 225.72 25.92 
z
" style="fill: #ffffff"/>
   </g>
   <g id="QuadMesh_1">
    <path d="M 225.72 192.24 
L 234.036 192.24 
L 234.036 186.3 
L 225.72 186.3 
L 225.72 192.24 
" clip-path="url(#p7497974693)" style="fill: #440154"/>
    <path d="M 225.72 186.3 
L 234.036 186.3 
L 234.036 180.36 
L 225.72 180.36 
L 225.72 186.3 
" clip-path="url(#p7497974693)" style="fill: #440154"/>
    <path d="M 225.72 180.36 
L 234.036 180.36 
L 234.036 174.42 
L 225.72 174.42 
L 225.72 180.36 
" clip-path="url(#p7497974693)" style="fill: #440154"/>
    <path d="M 225.72 174.42 
L 234.036 174.42 
L 234.036 168.48 
L 225.72 168.48 
L 225.72 174.42 
" clip-path="url(#p7497974693)" style="fill: #440154"/>
    <path d="M 225.72 168.48 
L 234.036 168.48 
L 234.036 162.54 
L 225.72 162.54 
L 225.72 168.48 
" clip-path="url(#p7497974693)" style="fill: #440154"/>
    <path d="M 225.72 162.54 
L 234.036 162.54 
L 234.036 156.6 
L 225.72 156.6 
L 225.72 162.54 
" clip-path="url(#p7497974693)" style="fill: #440154"/>
    <path d="M 225.72 156.6 
L 234.036 156.6 
L 234.036 150.66 
L 225.72 150.66 
L 225.72 156.6 
" clip-path="url(#p7497974693)" style="fill: #440154"/>
    <path d="M 225.72 150.66 
L 234.036 150.66 
L 234.036 144.72 
L 225.72 144.72 
L 225.72 150.66 
" clip-path="url(#p7497974693)" style="fill: #440154"/>
    <path d="M 225.72 144.72 
L 234.036 144.72 
L 234.036 138.78 
L 225.72 138.78 
L 225.72 144.72 
" clip-path="url(#p7497974693)" style="fill: #440154"/>
    <path d="M 225.72 138.78 
L 234.036 138.78 
L 234.036 132.84 
L 225.72 132.84 
L 225.72 138.78 
" clip-path="url(#p7497974693)" style="fill: #440154"/>
    <path d="M 225.72 132.84 
L 234.036 132.84 
L 234.036 126.9 
L 225.72 126.9 
L 225.72 132.84 
" clip-path="url(#p7497974693)" style="fill: #440154"/>
    <path d="M 225.72 126.9 
L 234.036 126.9 
L 234.036 120.96 
L 225.72 120.96 
L 225.72 126.9 
" clip-path="url(#p7497974693)" style="fill: #440154"/>
    <path d="M 225.72 120.96 
L 234.036 120.96 
L 234.036 115.02 
L 225.72 115.02 
L 225.72 120.96 
" clip-path="url(#p7497974693)" style="fill: #440154"/>
    <path d="M 225.72 115.02 
L 234.036 115.02 
L 234.036 109.08 
L 225.72 109.08 
L 225.72 115.02 
" clip-path="url(#p7497974693)" style="fill: #440154"/>
    <path d="M 225.72 109.08 
L 234.036 109.08 
L 234.036 103.14 
L 225.72 103.14 
L 225.72 109.08 
" clip-path="url(#p7497974693)" style="fill: #471365"/>
    <path d="M 225.72 103.14 
L 234.036 103.14 
L 234.036 97.2 
L 225.72 97.2 
L 225.72 103.14 
" clip-path="url(#p7497974693)" style="fill: #472a7a"/>
    <path d="M 225.72 97.2 
L 234.036 97.2 
L 234.036 91.26 
L 225.72 91.26 
L 225.72 97.2 
" clip-path="url(#p7497974693)" style="fill: #424086"/>
    <path d="M 225.72 91.26 
L 234.036 91.26 
L 234.036 85.32 
L 225.72 85.32 
L 225.72 91.26 
" clip-path="url(#p7497974693)" style="fill: #3a548c"/>
    <path d="M 225.72 85.32 
L 234.036 85.32 
L 234.036 79.38 
L 225.72 79.38 
L 225.72 85.32 
" clip-path="url(#p7497974693)" style="fill: #31678e"/>
    <path d="M 225.72 79.38 
L 234.036 79.38 
L 234.036 73.44 
L 225.72 73.44 
L 225.72 79.38 
" clip-path="url(#p7497974693)" style="fill: #2a788e"/>
    <path d="M 225.72 73.44 
L 234.036 73.44 
L 234.036 67.5 
L 225.72 67.5 
L 225.72 73.44 
" clip-path="url(#p7497974693)" style="fill: #23898e"/>
    <path d="M 225.72 67.5 
L 234.036 67.5 
L 234.036 61.56 
L 225.72 61.56 
L 225.72 67.5 
" clip-path="url(#p7497974693)" style="fill: #1f9a8a"/>
    <path d="M 225.72 61.56 
L 234.036 61.56 
L 234.036 55.62 
L 225.72 55.62 
L 225.72 61.56 
" clip-path="url(#p7497974693)" style="fill: #25ab82"/>
    <path d="M 225.72 55.62 
L 234.036 55.62 
L 234.036 49.68 
L 225.72 49.68 
L 225.72 55.62 
" clip-path="url(#p7497974693)" style="fill: #3bbb75"/>
    <path d="M 225.72 49.68 
L 234.036 49.68 
L 234.036 43.74 
L 225.72 43.74 
L 225.72 49.68 
" clip-path="url(#p7497974693)" style="fill: #5ec962"/>
    <path d="M 225.72 43.74 
L 234.036 43.74 
L 234.036 37.8 
L 225.72 37.8 
L 225.72 43.74 
" clip-path="url(#p7497974693)" style="fill: #89d548"/>
    <path d="M 225.72 37.8 
L 234.036 37.8 
L 234.036 31.86 
L 225.72 31.86 
L 225.72 37.8 
" clip-path="url(#p7497974693)" style="fill: #b8de29"/>
    <path d="M 225.72 31.86 
L 234.036 31.86 
L 234.036 25.92 
L 225.72 25.92 
L 225.72 31.86 
" clip-path="url(#p7497974693)" style="fill: #e7e419"/>
   </g>
   <g id="matplotlib.axis_3"/>
   <g id="matplotlib.axis_4">
    <g id="ytick_6">
     <g id="line2d_9">
      <defs>
       <path id="ma499f7b06b" d="M 0 0 
L 3.5 0 
" style="stroke: #000000; stroke-width: 0.8"/>
      </defs>
      <g>
       <use xlink:href="#ma499f7b06b" x="234.036" y="186.3" style="stroke: #000000; stroke-width: 0.8"/>
      </g>
     </g>
     <g id="text_14">
      <!-- $\mathdefault{228.3}$ -->
      <g transform="translate(241.036 190.099219) scale(0.1 -0.1)">
       <defs>
        <path id="DejaVuSans-38" d="M 2034 2216 
Q 1584 2216 1326 1975 
Q 1069 1734 1069 1313 
Q 1069 891 1326 650 
Q 1584 409 2034 409 
Q 2484 409 2743 651 
Q 3003 894 3003 1313 
Q 3003 1734 2745 1975 
Q 2488 2216 2034 2216 
z
M 1403 2484 
Q 997 2584 770 2862 
Q 544 3141 544 3541 
Q 544 4100 942 4425 
Q 1341 4750 2034 4750 
Q 2731 4750 3128 4425 
Q 3525 4100 3525 3541 
Q 3525 3141 3298 2862 
Q 3072 2584 2669 2484 
Q 3125 2378 3379 2068 
Q 3634 1759 3634 1313 
Q 3634 634 3220 271 
Q 2806 -91 2034 -91 
Q 1263 -91 848 271 
Q 434 634 434 1313 
Q 434 1759 690 2068 
Q 947 2378 1403 2484 
z
M 1172 3481 
Q 1172 3119 1398 2916 
Q 1625 2713 2034 2713 
Q 2441 2713 2670 2916 
Q 2900 3119 2900 3481 
Q 2900 3844 2670 4047 
Q 2441 4250 2034 4250 
Q 1625 4250 1398 4047 
Q 1172 3844 1172 3481 
z
" transform="scale(0.015625)"/>
       </defs>
       <use xlink:href="#DejaVuSans-2212" transform="translate(0 0.78125)"/>
       <use xlink:href="#DejaVuSans-32" transform="translate(83.789062 0.78125)"/>
       <use xlink:href="#DejaVuSans-32" transform="translate(147.412109 0.78125)"/>
       <use xlink:href="#DejaVuSans-38" transform="translate(211.035156 0.78125)"/>
       <use xlink:href="#DejaVuSans-2e" transform="translate(274.658203 0.78125)"/>
       <use xlink:href="#DejaVuSans-33" transform="translate(306.445312 0.78125)"/>
      </g>
     </g>
    </g>
    <g id="ytick_7">
     <g id="line2d_10">
      <g>
       <use xlink:href="#ma499f7b06b" x="234.036" y="168.48" style="stroke: #000000; stroke-width: 0.8"/>
      </g>
     </g>
     <g id="text_15">
      <!-- $\mathdefault{227.4}$ -->
      <g transform="translate(241.036 172.279219) scale(0.1 -0.1)">
       <use xlink:href="#DejaVuSans-2212" transform="translate(0 0.78125)"/>
       <use xlink:href="#DejaVuSans-32" transform="translate(83.789062 0.78125)"/>
       <use xlink:href="#DejaVuSans-32" transform="translate(147.412109 0.78125)"/>
       <use xlink:href="#DejaVuSans-37" transform="translate(211.035156 0.78125)"/>
       <use xlink:href="#DejaVuSans-2e" transform="translate(274.658203 0.78125)"/>
       <use xlink:href="#DejaVuSans-34" transform="translate(306.445312 0.78125)"/>
      </g>
     </g>
    </g>
    <g id="ytick_8">
     <g id="line2d_11">
      <g>
       <use xlink:href="#ma499f7b06b" x="234.036" y="150.66" style="stroke: #000000; stroke-width: 0.8"/>
      </g>
     </g>
     <g id="text_16">
      <!-- $\mathdefault{226.5}$ -->
      <g transform="translate(241.036 154.459219) scale(0.1 -0.1)">
       <defs>
        <path id="DejaVuSans-36" d="M 2113 2584 
Q 1688 2584 1439 2293 
Q 1191 2003 1191 1497 
Q 1191 994 1439 701 
Q 1688 409 2113 409 
Q 2538 409 2786 701 
Q 3034 994 3034 1497 
Q 3034 2003 2786 2293 
Q 2538 2584 2113 2584 
z
M 3366 4563 
L 3366 3988 
Q 3128 4100 2886 4159 
Q 2644 4219 2406 4219 
Q 1781 4219 1451 3797 
Q 1122 3375 1075 2522 
Q 1259 2794 1537 2939 
Q 1816 3084 2150 3084 
Q 2853 3084 3261 2657 
Q 3669 2231 3669 1497 
Q 3669 778 3244 343 
Q 2819 -91 2113 -91 
Q 1303 -91 875 529 
Q 447 1150 447 2328 
Q 447 3434 972 4092 
Q 1497 4750 2381 4750 
Q 2619 4750 2861 4703 
Q 3103 4656 3366 4563 
z
" transform="scale(0.015625)"/>
       </defs>
       <use xlink:href="#DejaVuSans-2212" transform="translate(0 0.78125)"/>
       <use xlink:href="#DejaVuSans-32" transform="translate(83.789062 0.78125)"/>
       <use xlink:href="#DejaVuSans-32" transform="translate(147.412109 0.78125)"/>
       <use xlink:href="#DejaVuSans-36" transform="translate(211.035156 0.78125)"/>
       <use xlink:href="#DejaVuSans-2e" transform="translate(274.658203 0.78125)"/>
       <use xlink:href="#DejaVuSans-35" transform="translate(306.445312 0.78125)"/>
      </g>
     </g>
    </g>
    <g id="ytick_9">
     <g id="line2d_12">
      <g>
       <use xlink:href="#ma499f7b06b" x="234.036" y="132.84" style="stroke: #000000; stroke-width: 0.8"/>
      </g>
     </g>
     <g id="text_17">
      <!-- $\mathdefault{225.6}$ -->
      <g transform="translate(241.036 136.639219) scale(0.1 -0.1)">
       <use xlink:href="#DejaVuSans-2212" transform="translate(0 0.78125)"/>
       <use xlink:href="#DejaVuSans-32" transform="translate(83.789062 0.78125)"/>
       <use xlink:href="#DejaVuSans-32" transform="translate(147.412109 0.78125)"/>
       <use xlink:href="#DejaVuSans-35" transform="translate(211.035156 0.78125)"/>
       <use xlink:href="#DejaVuSans-2e" transform="translate(274.658203 0.78125)"/>
       <use xlink:href="#DejaVuSans-36" transform="translate(306.445312 0.78125)"/>
      </g>
     </g>
    </g>
    <g id="ytick_10">
     <g id="line2d_13">
      <g>
       <use xlink:href="#ma499f7b06b" x="234.036" y="115.02" style="stroke: #000000; stroke-width: 0.8"/>
      </g>
     </g>
     <g id="text_18">
      <!-- $\mathdefault{224.7}$ -->
      <g transform="translate(241.036 118.819219) scale(0.1 -0.1)">
       <use xlink:href="#DejaVuSans-2212" transform="translate(0 0.78125)"/>
       <use xlink:href="#DejaVuSans-32" transform="translate(83.789062 0.78125)"/>
       <use xlink:href="#DejaVuSans-32" transform="translate(147.412109 0.78125)"/>
       <use xlink:href="#DejaVuSans-34" transform="translate(211.035156 0.78125)"/>
       <use xlink:href="#DejaVuSans-2e" transform="translate(274.658203 0.78125)"/>
       <use xlink:href="#DejaVuSans-37" transform="translate(298.695312 0.78125)"/>
      </g>
     </g>
    </g>
    <g id="ytick_11">
     <g id="line2d_14">
      <g>
       <use xlink:href="#ma499f7b06b" x="234.036" y="97.2" style="stroke: #000000; stroke-width: 0.8"/>
      </g>
     </g>
     <g id="text_19">
      <!-- $\mathdefault{223.8}$ -->
      <g transform="translate(241.036 100.999219) scale(0.1 -0.1)">
       <use xlink:href="#DejaVuSans-2212" transform="translate(0 0.78125)"/>
       <use xlink:href="#DejaVuSans-32" transform="translate(83.789062 0.78125)"/>
       <use xlink:href="#DejaVuSans-32" transform="translate(147.412109 0.78125)"/>
       <use xlink:href="#DejaVuSans-33" transform="translate(211.035156 0.78125)"/>
       <use xlink:href="#DejaVuSans-2e" transform="translate(274.658203 0.78125)"/>
       <use xlink:href="#DejaVuSans-38" transform="translate(303.820312 0.78125)"/>
      </g>
     </g>
    </g>
    <g id="ytick_12">
     <g id="line2d_15">
      <g>
       <use xlink:href="#ma499f7b06b" x="234.036" y="79.38" style="stroke: #000000; stroke-width: 0.8"/>
      </g>
     </g>
     <g id="text_20">
      <!-- $\mathdefault{222.9}$ -->
      <g transform="translate(241.036 83.179219) scale(0.1 -0.1)">
       <use xlink:href="#DejaVuSans-2212" transform="translate(0 0.78125)"/>
       <use xlink:href="#DejaVuSans-32" transform="translate(83.789062 0.78125)"/>
       <use xlink:href="#DejaVuSans-32" transform="translate(147.412109 0.78125)"/>
       <use xlink:href="#DejaVuSans-32" transform="translate(211.035156 0.78125)"/>
       <use xlink:href="#DejaVuSans-2e" transform="translate(274.658203 0.78125)"/>
       <use xlink:href="#DejaVuSans-39" transform="translate(306.445312 0.78125)"/>
      </g>
     </g>
    </g>
    <g id="ytick_13">
     <g id="line2d_16">
      <g>
       <use xlink:href="#ma499f7b06b" x="234.036" y="61.56" style="stroke: #000000; stroke-width: 0.8"/>
      </g>
     </g>
     <g id="text_21">
      <!-- $\mathdefault{222.0}$ -->
      <g transform="translate(241.036 65.359219) scale(0.1 -0.1)">
       <use xlink:href="#DejaVuSans-2212" transform="translate(0 0.78125)"/>
       <use xlink:href="#DejaVuSans-32" transform="translate(83.789062 0.78125)"/>
       <use xlink:href="#DejaVuSans-32" transform="translate(147.412109 0.78125)"/>
       <use xlink:href="#DejaVuSans-32" transform="translate(211.035156 0.78125)"/>
       <use xlink:href="#DejaVuSans-2e" transform="translate(274.658203 0.78125)"/>
       <use xlink:href="#DejaVuSans-30" transform="translate(306.445312 0.78125)"/>
      </g>
     </g>
    </g>
    <g id="ytick_14">
     <g id="line2d_17">
      <g>
       <use xlink:href="#ma499f7b06b" x="234.036" y="43.74" style="stroke: #000000; stroke-width: 0.8"/>
      </g>
     </g>
     <g id="text_22">
      <!-- $\mathdefault{221.1}$ -->
      <g transform="translate(241.036 47.539219) scale(0.1 -0.1)">
       <use xlink:href="#DejaVuSans-2212" transform="translate(0 0.78125)"/>
       <use xlink:href="#DejaVuSans-32" transform="translate(83.789062 0.78125)"/>
       <use xlink:href="#DejaVuSans-32" transform="translate(147.412109 0.78125)"/>
       <use xlink:href="#DejaVuSans-31" transform="translate(211.035156 0.78125)"/>
       <use xlink:href="#DejaVuSans-2e" transform="translate(274.658203 0.78125)"/>
       <use xlink:href="#DejaVuSans-31" transform="translate(306.445312 0.78125)"/>
      </g>
     </g>
    </g>
    <g id="ytick_15">
     <g id="line2d_18">
      <g>
       <use xlink:href="#ma499f7b06b" x="234.036" y="25.92" style="stroke: #000000; stroke-width: 0.8"/>
      </g>
     </g>
     <g id="text_23">
      <!-- $\mathdefault{220.2}$ -->
      <g transform="translate(241.036 29.719219) scale(0.1 -0.1)">
       <use xlink:href="#DejaVuSans-2212" transform="translate(0 0.78125)"/>
       <use xlink:href="#DejaVuSans-32" transform="translate(83.789062 0.78125)"/>
       <use xlink:href="#DejaVuSans-32" transform="translate(147.412109 0.78125)"/>
       <use xlink:href="#DejaVuSans-30" transform="translate(211.035156 0.78125)"/>
       <use xlink:href="#DejaVuSans-2e" transform="translate(274.658203 0.78125)"/>
       <use xlink:href="#DejaVuSans-32" transform="translate(300.945312 0.78125)"/>
      </g>
     </g>
    </g>
    <g id="text_24">
     <!-- log likelihood -->
     <g transform="translate(291.254125 148.704375) rotate(-90) scale(0.12 -0.12)">
      <defs>
       <path id="DejaVuSans-67" d="M 2906 1791 
Q 2906 2416 2648 2759 
Q 2391 3103 1925 3103 
Q 1463 3103 1205 2759 
Q 947 2416 947 1791 
Q 947 1169 1205 825 
Q 1463 481 1925 481 
Q 2391 481 2648 825 
Q 2906 1169 2906 1791 
z
M 3481 434 
Q 3481 -459 3084 -895 
Q 2688 -1331 1869 -1331 
Q 1566 -1331 1297 -1286 
Q 1028 -1241 775 -1147 
L 775 -588 
Q 1028 -725 1275 -790 
Q 1522 -856 1778 -856 
Q 2344 -856 2625 -561 
Q 2906 -266 2906 331 
L 2906 616 
Q 2728 306 2450 153 
Q 2172 0 1784 0 
Q 1141 0 747 490 
Q 353 981 353 1791 
Q 353 2603 747 3093 
Q 1141 3584 1784 3584 
Q 2172 3584 2450 3431 
Q 2728 3278 2906 2969 
L 2906 3500 
L 3481 3500 
L 3481 434 
z
" transform="scale(0.015625)"/>
       <path id="DejaVuSans-6b" d="M 581 4863 
L 1159 4863 
L 1159 1991 
L 2875 3500 
L 3609 3500 
L 1753 1863 
L 3688 0 
L 2938 0 
L 1159 1709 
L 1159 0 
L 581 0 
L 581 4863 
z
" transform="scale(0.015625)"/>
       <path id="DejaVuSans-68" d="M 3513 2113 
L 3513 0 
L 2938 0 
L 2938 2094 
Q 2938 2591 2744 2837 
Q 2550 3084 2163 3084 
Q 1697 3084 1428 2787 
Q 1159 2491 1159 1978 
L 1159 0 
L 581 0 
L 581 4863 
L 1159 4863 
L 1159 2956 
Q 1366 3272 1645 3428 
Q 1925 3584 2291 3584 
Q 2894 3584 3203 3211 
Q 3513 2838 3513 2113 
z
" transform="scale(0.015625)"/>
      </defs>
      <use xlink:href="#DejaVuSans-6c"/>
      <use xlink:href="#DejaVuSans-6f" x="27.783203"/>
      <use xlink:href="#DejaVuSans-67" x="88.964844"/>
      <use xlink:href="#DejaVuSans-20" x="152.441406"/>
      <use xlink:href="#DejaVuSans-6c" x="184.228516"/>
      <use xlink:href="#DejaVuSans-69" x="212.011719"/>
      <use xlink:href="#DejaVuSans-6b" x="239.794922"/>
      <use xlink:href="#DejaVuSans-65" x="294.080078"/>
      <use xlink:href="#DejaVuSans-6c" x="355.603516"/>
      <use xlink:href="#DejaVuSans-69" x="383.386719"/>
      <use xlink:href="#DejaVuSans-68" x="411.169922"/>
      <use xlink:href="#DejaVuSans-6f" x="474.548828"/>
      <use xlink:href="#DejaVuSans-6f" x="535.730469"/>
      <use xlink:href="#DejaVuSans-64" x="596.912109"/>
     </g>
    </g>
    <g id="text_25">
     <!-- $\times\mathdefault{10^{3}}\mathdefault{}$ -->
     <g transform="translate(208.036 22.92) scale(0.1 -0.1)">
      <defs>
       <path id="DejaVuSans-d7" d="M 4488 3438 
L 3059 2003 
L 4488 575 
L 4116 197 
L 2681 1631 
L 1247 197 
L 878 575 
L 2303 2003 
L 878 3438 
L 1247 3816 
L 2681 2381 
L 4116 3816 
L 4488 3438 
z
" transform="scale(0.015625)"/>
      </defs>
      <use xlink:href="#DejaVuSans-d7" transform="translate(0 0.765625)"/>
      <use xlink:href="#DejaVuSans-31" transform="translate(83.789062 0.765625)"/>
      <use xlink:href="#DejaVuSans-30" transform="translate(147.412109 0.765625)"/>
      <use xlink:href="#DejaVuSans-33" transform="translate(211.992188 39.046875) scale(0.7)"/>
     </g>
    </g>
   </g>
   <g id="LineCollection_1"/>
   <g id="patch_8">
    <path d="M 225.72 192.24 
L 229.878 192.24 
L 234.036 192.24 
L 234.036 25.92 
L 229.878 25.92 
L 225.72 25.92 
L 225.72 192.24 
z
" style="fill: none; stroke: #000000; stroke-width: 0.8; stroke-linejoin: miter; stroke-linecap: square"/>
   </g>
  </g>
 </g>
 <defs>
  <clipPath id="p47e37a6d28">
   <rect x="36" y="25.92" width="178.56" height="166.32"/>
  </clipPath>
  <clipPath id="p7497974693">
   <rect x="225.72" y="25.92" width="8.316" height="166.32"/>
  </clipPath>
 </defs>
</svg>
