<?xml version="1.0" encoding="utf-8" standalone="no"?>
<!DOCTYPE svg PUBLIC "-//W3C//DTD SVG 1.1//EN"
  "http://www.w3.org/Graphics/SVG/1.1/DTD/svg11.dtd">
<svg xmlns:xlink="http://www.w3.org/1999/xlink" width="288pt" height="216pt" viewBox="0 0 288 216" xmlns="http://www.w3.org/2000/svg" version="1.1">
 <metadata>
  <rdf:RDF xmlns:dc="http://purl.org/dc/elements/1.1/" xmlns:cc="http://creativecommons.org/ns#" xmlns:rdf="http://www.w3.org/1999/02/22-rdf-syntax-ns#">
   <cc:Work>
    <dc:type rdf:resource="http://purl.org/dc/dcmitype/StillImage"/>
    <dc:date>2024-12-12T06:19:15.183292</dc:date>
    <dc:format>image/svg+xml</dc:format>
    <dc:creator>
     <cc:Agent>
      <dc:title>Matplotlib v3.8.4, https://matplotlib.org/</dc:title>
     </cc:Agent>
    </dc:creator>
   </cc:Work>
  </rdf:RDF>
 </metadata>
 <defs>
  <style type="text/css">*{stroke-linejoin: round; stroke-linecap: butt}</style>
 </defs>
 <g id="figure_1">
  <g id="patch_1">
   <path d="M 0 216 
L 288 216 
L 288 0 
L 0 0 
z
" style="fill: #ffffff"/>
  </g>
  <g id="axes_1">
   <g id="patch_2">
    <path d="M 36 192.24 
L 214.56 192.24 
L 214.56 25.92 
L 36 25.92 
z
" style="fill: #ffffff"/>
   </g>
   <g id="QuadContourSet_1">
    <path d="M 75.93861 114.624 
L 74.277689 109.08 
L 75.158454 103.536 
L 77.664 99.683401 
L 80.190517 97.992 
L 83.616 96.676952 
L 89.568 96.260716 
L 95.52 97.004519 
L 99.525538 97.992 
L 101.472 98.693423 
L 107.424 101.482405 
L 111.327296 103.536 
L 113.376 105.605902 
L 116.628675 109.08 
L 116.474019 114.624 
L 113.376 117.17132 
L 108.740535 120.168 
L 107.424 120.577523 
L 101.472 121.904176 
L 95.52 122.537698 
L 89.568 122.313295 
L 83.616 120.998245 
L 81.865696 120.168 
L 77.664 116.941071 
z
" clip-path="url(#p3fa1af817f)" style="fill: #e7e419"/>
    <path d="M 70.051667 114.624 
L 68.935972 109.08 
L 69.262447 103.536 
L 71.07366 97.992 
L 71.712 96.908016 
L 76.82216 92.448 
L 77.664 91.941668 
L 83.616 90.466078 
L 89.568 90.348346 
L 95.52 91.073311 
L 101.472 92.324655 
L 101.927273 92.448 
L 107.424 94.352144 
L 113.376 96.64951 
L 116.64182 97.992 
L 119.328 99.555596 
L 125.28 103.091123 
L 126.020555 103.536 
L 131.23198 109.08 
L 131.232 109.080168 
L 131.887313 114.624 
L 131.232 115.419722 
L 126.931155 120.168 
L 125.28 120.962976 
L 119.328 123.532636 
L 113.376 125.689564 
L 113.29877 125.712 
L 107.424 126.796297 
L 101.472 127.540008 
L 95.52 127.835333 
L 89.568 127.554529 
L 83.616 126.517059 
L 81.326786 125.712 
L 77.664 123.910677 
L 73.187224 120.168 
L 71.712 118.226128 
z
M 77.664 116.941071 
L 81.865696 120.168 
L 83.616 120.998245 
L 89.568 122.313295 
L 95.52 122.537698 
L 101.472 121.904176 
L 107.424 120.577523 
L 108.740535 120.168 
L 113.376 117.17132 
L 116.474019 114.624 
L 116.628675 109.08 
L 113.376 105.605902 
L 111.327296 103.536 
L 107.424 101.482405 
L 101.472 98.693423 
L 99.525538 97.992 
L 95.52 97.004519 
L 89.568 96.260716 
L 83.616 96.676952 
L 80.190517 97.992 
L 77.664 99.683401 
L 75.158454 103.536 
L 74.277689 109.08 
L 75.93861 114.624 
z
" clip-path="url(#p3fa1af817f)" style="fill: #b8de29"/>
    <path d="M 65.137379 109.08 
L 65.25634 103.536 
L 65.76 100.614079 
L 66.562333 97.992 
L 69.763225 92.448 
L 71.712 90.154358 
L 77.236845 86.904 
L 77.664 86.711698 
L 83.616 85.673348 
L 89.568 85.698097 
L 95.52 86.391375 
L 98.222484 86.904 
L 101.472 87.645013 
L 107.424 89.331389 
L 113.376 91.204178 
L 117.094235 92.448 
L 119.328 93.395373 
L 125.28 95.996089 
L 129.837652 97.992 
L 131.232 98.843458 
L 137.184 102.452417 
L 139.002429 103.536 
L 143.136 107.739962 
L 144.491408 109.08 
L 145.704072 114.624 
L 143.136 118.323595 
L 141.775658 120.168 
L 137.184 122.696542 
L 131.240869 125.712 
L 131.232 125.714747 
L 125.28 127.431953 
L 119.328 128.956884 
L 113.376 130.247675 
L 107.424 131.250755 
L 107.376696 131.256 
L 101.472 131.725934 
L 95.52 131.872608 
L 89.568 131.591242 
L 87.255289 131.256 
L 83.616 130.564227 
L 77.664 128.397756 
L 73.250781 125.712 
L 71.712 124.419755 
L 68.592711 120.168 
L 65.944223 114.624 
L 65.76 113.780255 
z
M 71.712 118.226128 
L 73.187224 120.168 
L 77.664 123.910677 
L 81.326786 125.712 
L 83.616 126.517059 
L 89.568 127.554529 
L 95.52 127.835333 
L 101.472 127.540008 
L 107.424 126.796297 
L 113.29877 125.712 
L 113.376 125.689564 
L 119.328 123.532636 
L 125.28 120.962976 
L 126.931155 120.168 
L 131.232 115.419722 
L 131.887313 114.624 
L 131.232 109.080168 
L 131.23198 109.08 
L 126.020555 103.536 
L 125.28 103.091123 
L 119.328 99.555596 
L 116.64182 97.992 
L 113.376 96.64951 
L 107.424 94.352144 
L 101.927273 92.448 
L 101.472 92.324655 
L 95.52 91.073311 
L 89.568 90.348346 
L 83.616 90.466078 
L 77.664 91.941668 
L 76.82216 92.448 
L 71.712 96.908016 
L 71.07366 97.992 
L 69.262447 103.536 
L 68.935972 109.08 
L 70.051667 114.624 
z
" clip-path="url(#p3fa1af817f)" style="fill: #89d548"/>
    <path d="M 65.064924 120.168 
L 63.425168 114.624 
L 62.645411 109.08 
L 62.71499 103.536 
L 63.628386 97.992 
L 65.384996 92.448 
L 65.76 91.63525 
L 69.742705 86.904 
L 71.712 85.136614 
L 77.664 82.510934 
L 83.616 81.58831 
L 89.568 81.715063 
L 95.52 82.498754 
L 101.472 83.695582 
L 107.424 85.149992 
L 113.376 86.760671 
L 113.870489 86.904 
L 119.328 88.792794 
L 125.28 90.896889 
L 129.636367 92.448 
L 131.232 93.163343 
L 137.184 95.827971 
L 142.116027 97.992 
L 143.136 98.608386 
L 149.088 102.13392 
L 151.525646 103.536 
L 155.04 106.888715 
L 157.419731 109.08 
L 159.114454 114.624 
L 155.799718 120.168 
L 155.04 120.637298 
L 149.088 124.191109 
L 146.407709 125.712 
L 143.136 126.823461 
L 137.184 128.747874 
L 131.232 130.537833 
L 128.634556 131.256 
L 125.28 131.909189 
L 119.328 132.947146 
L 113.376 133.825301 
L 107.424 134.502223 
L 101.472 134.923382 
L 95.52 135.015491 
L 89.568 134.67756 
L 83.616 133.766212 
L 77.664 132.070458 
L 75.96153 131.256 
L 71.712 128.631732 
L 68.757251 125.712 
L 65.76 121.679212 
z
M 65.76 113.780255 
L 65.944223 114.624 
L 68.592711 120.168 
L 71.712 124.419755 
L 73.250781 125.712 
L 77.664 128.397756 
L 83.616 130.564227 
L 87.255289 131.256 
L 89.568 131.591242 
L 95.52 131.872608 
L 101.472 131.725934 
L 107.376696 131.256 
L 107.424 131.250755 
L 113.376 130.247675 
L 119.328 128.956884 
L 125.28 127.431953 
L 131.232 125.714747 
L 131.240869 125.712 
L 137.184 122.696542 
L 141.775658 120.168 
L 143.136 118.323595 
L 145.704072 114.624 
L 144.491408 109.08 
L 143.136 107.739962 
L 139.002429 103.536 
L 137.184 102.452417 
L 131.232 98.843458 
L 129.837652 97.992 
L 125.28 95.996089 
L 119.328 93.395373 
L 117.094235 92.448 
L 113.376 91.204178 
L 107.424 89.331389 
L 101.472 87.645013 
L 98.222484 86.904 
L 95.52 86.391375 
L 89.568 85.698097 
L 83.616 85.673348 
L 77.664 86.711698 
L 77.236845 86.904 
L 71.712 90.154358 
L 69.763225 92.448 
L 66.562333 97.992 
L 65.76 100.614079 
L 65.25634 103.536 
L 65.137379 109.08 
z
" clip-path="url(#p3fa1af817f)" style="fill: #5cc863"/>
    <path d="M 65.226105 125.712 
L 62.666177 120.168 
L 60.980699 114.624 
L 60.153443 109.08 
L 60.173641 103.536 
L 61.035658 97.992 
L 62.73877 92.448 
L 65.287023 86.904 
L 65.76 86.119018 
L 71.06973 81.36 
L 71.712 80.896055 
L 77.664 78.803113 
L 83.616 78.11217 
L 89.568 78.292719 
L 95.52 79.023538 
L 101.472 80.103379 
L 107.22499 81.36 
L 107.424 81.410108 
L 113.376 83.08573 
L 119.328 84.844373 
L 125.28 86.642056 
L 126.132598 86.904 
L 131.232 88.767916 
L 137.184 90.925112 
L 141.443455 92.448 
L 143.136 93.205571 
L 149.088 95.825891 
L 154.155516 97.992 
L 155.04 98.507459 
L 160.992 101.886292 
L 164.001597 103.536 
L 166.944 106.150767 
L 170.370751 109.08 
L 172.518916 114.624 
L 169.659737 120.168 
L 166.944 121.924721 
L 160.992 125.653375 
L 160.895863 125.712 
L 155.04 127.810032 
L 149.088 129.861678 
L 144.863107 131.256 
L 143.136 131.652211 
L 137.184 132.960896 
L 131.232 134.185472 
L 125.28 135.305832 
L 119.328 136.296729 
L 115.736902 136.8 
L 113.376 137.051377 
L 107.424 137.536788 
L 101.472 137.825704 
L 95.52 137.858897 
L 89.568 137.554367 
L 83.653854 136.8 
L 83.616 136.793948 
L 77.664 135.037609 
L 71.712 132.170499 
L 70.525064 131.256 
L 65.76 126.555243 
z
M 65.76 121.679212 
L 68.757251 125.712 
L 71.712 128.631732 
L 75.96153 131.256 
L 77.664 132.070458 
L 83.616 133.766212 
L 89.568 134.67756 
L 95.52 135.015491 
L 101.472 134.923382 
L 107.424 134.502223 
L 113.376 133.825301 
L 119.328 132.947146 
L 125.28 131.909189 
L 128.634556 131.256 
L 131.232 130.537833 
L 137.184 128.747874 
L 143.136 126.823461 
L 146.407709 125.712 
L 149.088 124.191109 
L 155.04 120.637298 
L 155.799718 120.168 
L 159.114454 114.624 
L 157.419731 109.08 
L 155.04 106.888715 
L 151.525646 103.536 
L 149.088 102.13392 
L 143.136 98.608386 
L 142.116027 97.992 
L 137.184 95.827971 
L 131.232 93.163343 
L 129.636367 92.448 
L 125.28 90.896889 
L 119.328 88.792794 
L 113.870489 86.904 
L 113.376 86.760671 
L 107.424 85.149992 
L 101.472 83.695582 
L 95.52 82.498754 
L 89.568 81.715063 
L 83.616 81.58831 
L 77.664 82.510934 
L 71.712 85.136614 
L 69.742705 86.904 
L 65.76 91.63525 
L 65.384996 92.448 
L 63.628386 97.992 
L 62.71499 103.536 
L 62.645411 109.08 
L 63.425168 114.624 
L 65.064924 120.168 
z
" clip-path="url(#p3fa1af817f)" style="fill: #3aba76"/>
    <path d="M 59.060254 114.624 
L 58.55497 109.08 
L 58.547316 103.536 
L 59.023062 97.992 
L 59.808 93.388237 
L 60.092544 92.448 
L 62.585044 86.904 
L 65.76 81.634649 
L 66.066431 81.36 
L 71.712 77.281913 
L 76.042903 75.816 
L 77.664 75.352174 
L 83.616 74.820615 
L 89.568 75.038782 
L 95.52 75.732837 
L 96.009227 75.816 
L 101.472 76.858944 
L 107.424 78.210754 
L 113.376 79.692095 
L 119.328 81.246909 
L 119.746197 81.36 
L 125.28 83.079117 
L 131.232 84.934966 
L 137.184 86.776566 
L 137.597385 86.904 
L 143.136 88.929054 
L 149.088 91.055977 
L 153.072763 92.448 
L 155.04 93.304172 
L 160.992 95.832371 
L 166.250648 97.992 
L 166.944 98.376936 
L 172.896 101.587915 
L 176.647165 103.536 
L 178.848 105.354673 
L 183.541442 109.08 
L 184.8 111.811945 
L 186.148721 114.624 
L 184.8 117.653509 
L 183.659227 120.168 
L 178.848 123.381047 
L 175.272469 125.712 
L 172.896 126.59772 
L 166.944 128.783421 
L 160.992 130.909421 
L 160.00079 131.256 
L 155.04 132.451952 
L 149.088 133.844082 
L 143.136 135.180044 
L 137.184 136.446593 
L 135.418413 136.8 
L 131.232 137.431778 
L 125.28 138.257103 
L 119.328 138.987081 
L 113.376 139.596231 
L 107.424 140.051404 
L 101.472 140.308714 
L 95.52 140.308877 
L 89.568 139.969837 
L 83.616 139.174682 
L 77.664 137.750872 
L 75.246983 136.8 
L 71.712 135.075122 
L 66.755129 131.256 
L 65.76 130.274301 
L 62.871401 125.712 
L 60.26743 120.168 
L 59.808 118.676222 
z
M 65.76 126.555243 
L 70.525064 131.256 
L 71.712 132.170499 
L 77.664 135.037609 
L 83.616 136.793948 
L 83.653854 136.8 
L 89.568 137.554367 
L 95.52 137.858897 
L 101.472 137.825704 
L 107.424 137.536788 
L 113.376 137.051377 
L 115.736902 136.8 
L 119.328 136.296729 
L 125.28 135.305832 
L 131.232 134.185472 
L 137.184 132.960896 
L 143.136 131.652211 
L 144.863107 131.256 
L 149.088 129.861678 
L 155.04 127.810032 
L 160.895863 125.712 
L 160.992 125.653375 
L 166.944 121.924721 
L 169.659737 120.168 
L 172.518916 114.624 
L 170.370751 109.08 
L 166.944 106.150767 
L 164.001597 103.536 
L 160.992 101.886292 
L 155.04 98.507459 
L 154.155516 97.992 
L 149.088 95.825891 
L 143.136 93.205571 
L 141.443455 92.448 
L 137.184 90.925112 
L 131.232 88.767916 
L 126.132598 86.904 
L 125.28 86.642056 
L 119.328 84.844373 
L 113.376 83.08573 
L 107.424 81.410108 
L 107.22499 81.36 
L 101.472 80.103379 
L 95.52 79.023538 
L 89.568 78.292719 
L 83.616 78.11217 
L 77.664 78.803113 
L 71.712 80.896055 
L 71.06973 81.36 
L 65.76 86.119018 
L 65.287023 86.904 
L 62.73877 92.448 
L 61.035658 97.992 
L 60.173641 103.536 
L 60.153443 109.08 
L 60.980699 114.624 
L 62.666177 120.168 
L 65.226105 125.712 
z
" clip-path="url(#p3fa1af817f)" style="fill: #24aa83"/>
    <path d="M 58.659797 120.168 
L 57.623012 114.624 
L 57.100288 109.08 
L 57.074766 103.536 
L 57.532199 97.992 
L 58.460692 92.448 
L 59.808 87.071369 
L 59.883066 86.904 
L 63.168915 81.36 
L 65.76 77.86879 
L 68.625879 75.816 
L 71.712 73.958918 
L 77.664 72.297104 
L 83.616 71.827216 
L 89.568 72.100523 
L 95.52 72.844075 
L 101.472 73.886119 
L 107.424 75.115707 
L 110.505746 75.816 
L 113.376 76.547512 
L 119.328 78.145412 
L 125.28 79.775304 
L 131.040084 81.36 
L 131.232 81.420596 
L 137.184 83.30662 
L 143.136 85.162149 
L 148.838194 86.904 
L 149.088 86.994382 
L 155.04 89.114854 
L 160.992 91.173155 
L 164.778971 92.448 
L 166.944 93.352234 
L 172.896 95.769465 
L 178.56809 97.992 
L 178.848 98.139204 
L 184.8 101.18046 
L 189.598718 103.536 
L 190.752 104.422897 
L 196.704 108.823131 
L 197.064351 109.08 
L 200.141214 114.624 
L 197.981363 120.168 
L 196.704 121.047675 
L 190.752 125.093895 
L 189.830044 125.712 
L 184.8 127.606355 
L 178.848 129.814944 
L 174.902665 131.256 
L 172.896 131.755618 
L 166.944 133.222845 
L 160.992 134.66003 
L 155.04 136.059619 
L 151.798931 136.8 
L 149.088 137.263659 
L 143.136 138.248147 
L 137.184 139.184383 
L 131.232 140.059781 
L 125.28 140.858588 
L 119.328 141.56087 
L 113.376 142.141086 
L 110.551544 142.344 
L 107.424 142.52225 
L 101.472 142.704352 
L 95.52 142.678767 
L 89.568 142.377423 
L 89.276408 142.344 
L 83.616 141.55412 
L 77.664 140.092731 
L 71.712 137.735282 
L 70.22162 136.8 
L 65.76 133.346543 
L 64.058103 131.256 
L 60.516697 125.712 
L 59.808 124.208016 
z
M 59.808 118.676222 
L 60.26743 120.168 
L 62.871401 125.712 
L 65.76 130.274301 
L 66.755129 131.256 
L 71.712 135.075122 
L 75.246983 136.8 
L 77.664 137.750872 
L 83.616 139.174682 
L 89.568 139.969837 
L 95.52 140.308877 
L 101.472 140.308714 
L 107.424 140.051404 
L 113.376 139.596231 
L 119.328 138.987081 
L 125.28 138.257103 
L 131.232 137.431778 
L 135.418413 136.8 
L 137.184 136.446593 
L 143.136 135.180044 
L 149.088 133.844082 
L 155.04 132.451952 
L 160.00079 131.256 
L 160.992 130.909421 
L 166.944 128.783421 
L 172.896 126.59772 
L 175.272469 125.712 
L 178.848 123.381047 
L 183.659227 120.168 
L 184.8 117.653509 
L 186.148721 114.624 
L 184.8 111.811945 
L 183.541442 109.08 
L 178.848 105.354673 
L 176.647165 103.536 
L 172.896 101.587915 
L 166.944 98.376936 
L 166.250648 97.992 
L 160.992 95.832371 
L 155.04 93.304172 
L 153.072763 92.448 
L 149.088 91.055977 
L 143.136 88.929054 
L 137.597385 86.904 
L 137.184 86.776566 
L 131.232 84.934966 
L 125.28 83.079117 
L 119.746197 81.36 
L 119.328 81.246909 
L 113.376 79.692095 
L 107.424 78.210754 
L 101.472 76.858944 
L 96.009227 75.816 
L 95.52 75.732837 
L 89.568 75.038782 
L 83.616 74.820615 
L 77.664 75.352174 
L 76.042903 75.816 
L 71.712 77.281913 
L 66.066431 81.36 
L 65.76 81.634649 
L 62.585044 86.904 
L 60.092544 92.448 
L 59.808 93.388237 
L 59.023062 97.992 
L 58.547316 103.536 
L 58.55497 109.08 
L 59.060254 114.624 
z
" clip-path="url(#p3fa1af817f)" style="fill: #1f998a"/>
    <path d="M 58.826851 125.712 
L 57.239581 120.168 
L 56.18577 114.624 
L 55.645606 109.08 
L 55.602216 103.536 
L 56.041337 97.992 
L 56.951056 92.448 
L 58.321586 86.904 
L 59.808 82.374163 
L 60.408784 81.36 
L 64.496196 75.816 
L 65.76 74.381266 
L 71.712 70.834598 
L 73.784256 70.272 
L 77.664 69.356845 
L 83.616 68.991252 
L 89.568 69.281747 
L 95.52 69.988897 
L 97.235539 70.272 
L 101.472 71.041969 
L 107.424 72.311921 
L 113.376 73.692581 
L 119.328 75.135472 
L 122.062275 75.816 
L 125.28 76.713091 
L 131.232 78.385911 
L 137.184 80.045937 
L 141.954173 81.36 
L 143.136 81.732975 
L 149.088 83.587839 
L 155.04 85.396935 
L 160.126568 86.904 
L 160.992 87.206948 
L 166.944 89.245195 
L 172.896 91.218764 
L 176.712342 92.448 
L 178.848 93.298358 
L 184.8 95.599948 
L 190.752 97.819665 
L 191.226507 97.992 
L 196.704 100.638056 
L 202.656 103.400082 
L 202.957462 103.536 
L 208.608 107.452073 
L 211.053227 109.08 
L 214.56 114.581439 
L 214.56 114.624 
L 214.56 114.709936 
L 212.749281 120.168 
L 208.608 123.056878 
L 204.753206 125.712 
L 202.656 126.503057 
L 196.704 128.741271 
L 190.752 130.951895 
L 189.929564 131.256 
L 184.8 132.539727 
L 178.848 134.016075 
L 172.896 135.472919 
L 167.383758 136.8 
L 166.944 136.878769 
L 160.992 137.933639 
L 155.04 138.96457 
L 149.088 139.964757 
L 143.136 140.925898 
L 137.184 141.837788 
L 133.653115 142.344 
L 131.232 142.617578 
L 125.28 143.233987 
L 119.328 143.775007 
L 113.376 144.219798 
L 107.424 144.541129 
L 101.472 144.702808 
L 95.52 144.65577 
L 89.568 144.331894 
L 83.616 143.633859 
L 77.664 142.41773 
L 77.442633 142.344 
L 71.712 140.038017 
L 66.55219 136.8 
L 65.76 136.186816 
L 61.745854 131.256 
L 59.808 128.233235 
z
M 59.808 124.208016 
L 60.516697 125.712 
L 64.058103 131.256 
L 65.76 133.346543 
L 70.22162 136.8 
L 71.712 137.735282 
L 77.664 140.092731 
L 83.616 141.55412 
L 89.276408 142.344 
L 89.568 142.377423 
L 95.52 142.678767 
L 101.472 142.704352 
L 107.424 142.52225 
L 110.551544 142.344 
L 113.376 142.141086 
L 119.328 141.56087 
L 125.28 140.858588 
L 131.232 140.059781 
L 137.184 139.184383 
L 143.136 138.248147 
L 149.088 137.263659 
L 151.798931 136.8 
L 155.04 136.059619 
L 160.992 134.66003 
L 166.944 133.222845 
L 172.896 131.755618 
L 174.902665 131.256 
L 178.848 129.814944 
L 184.8 127.606355 
L 189.830044 125.712 
L 190.752 125.093895 
L 196.704 121.047675 
L 197.981363 120.168 
L 200.141214 114.624 
L 197.064351 109.08 
L 196.704 108.823131 
L 190.752 104.422897 
L 189.598718 103.536 
L 184.8 101.18046 
L 178.848 98.139204 
L 178.56809 97.992 
L 172.896 95.769465 
L 166.944 93.352234 
L 164.778971 92.448 
L 160.992 91.173155 
L 155.04 89.114854 
L 149.088 86.994382 
L 148.838194 86.904 
L 143.136 85.162149 
L 137.184 83.30662 
L 131.232 81.420596 
L 131.040084 81.36 
L 125.28 79.775304 
L 119.328 78.145412 
L 113.376 76.547512 
L 110.505746 75.816 
L 107.424 75.115707 
L 101.472 73.886119 
L 95.52 72.844075 
L 89.568 72.100523 
L 83.616 71.827216 
L 77.664 72.297104 
L 71.712 73.958918 
L 68.625879 75.816 
L 65.76 77.86879 
L 63.168915 81.36 
L 59.883066 86.904 
L 59.808 87.071369 
L 58.460692 92.448 
L 57.532199 97.992 
L 57.074766 103.536 
L 57.100288 109.08 
L 57.623012 114.624 
L 58.659797 120.168 
z
" clip-path="url(#p3fa1af817f)" style="fill: #24878e"/>
    <path d="M 59.583364 131.256 
L 57.423263 125.712 
L 55.819365 120.168 
L 54.748527 114.624 
L 54.190924 109.08 
L 54.129666 103.536 
L 54.550474 97.992 
L 55.44142 92.448 
L 56.792698 86.904 
L 58.596446 81.36 
L 59.808 78.357019 
L 61.675354 75.816 
L 65.76 71.178904 
L 67.288016 70.272 
L 71.712 68.001572 
L 77.664 66.642327 
L 83.616 66.325532 
L 89.568 66.659844 
L 95.52 67.406478 
L 101.472 68.414736 
L 107.424 69.587004 
L 110.612352 70.272 
L 113.376 70.925456 
L 119.328 72.401765 
L 125.28 73.904757 
L 131.232 75.4126 
L 132.823552 75.816 
L 137.184 77.052668 
L 143.136 78.719378 
L 149.088 80.352957 
L 152.830682 81.36 
L 155.04 82.03997 
L 160.992 83.833102 
L 166.944 85.574963 
L 171.61383 86.904 
L 172.896 87.334193 
L 178.848 89.28139 
L 184.8 91.165343 
L 188.976695 92.448 
L 190.752 93.119827 
L 196.704 95.308011 
L 202.656 97.419955 
L 204.31451 97.992 
L 208.608 99.951809 
L 214.56 102.572037 
L 214.56 103.536 
L 214.56 109.08 
L 214.56 114.581439 
L 211.053227 109.08 
L 208.608 107.452073 
L 202.957462 103.536 
L 202.656 103.400082 
L 196.704 100.638056 
L 191.226507 97.992 
L 190.752 97.819665 
L 184.8 95.599948 
L 178.848 93.298358 
L 176.712342 92.448 
L 172.896 91.218764 
L 166.944 89.245195 
L 160.992 87.206948 
L 160.126568 86.904 
L 155.04 85.396935 
L 149.088 83.587839 
L 143.136 81.732975 
L 141.954173 81.36 
L 137.184 80.045937 
L 131.232 78.385911 
L 125.28 76.713091 
L 122.062275 75.816 
L 119.328 75.135472 
L 113.376 73.692581 
L 107.424 72.311921 
L 101.472 71.041969 
L 97.235539 70.272 
L 95.52 69.988897 
L 89.568 69.281747 
L 83.616 68.991252 
L 77.664 69.356845 
L 73.784256 70.272 
L 71.712 70.834598 
L 65.76 74.381266 
L 64.496196 75.816 
L 60.408784 81.36 
L 59.808 82.374163 
L 58.321586 86.904 
L 56.951056 92.448 
L 56.041337 97.992 
L 55.602216 103.536 
L 55.645606 109.08 
L 56.18577 114.624 
L 57.239581 120.168 
L 58.826851 125.712 
L 59.808 128.233235 
L 61.745854 131.256 
L 65.76 136.186816 
L 66.55219 136.8 
L 71.712 140.038017 
L 77.442633 142.344 
L 77.664 142.41773 
L 83.616 143.633859 
L 89.568 144.331894 
L 95.52 144.65577 
L 101.472 144.702808 
L 107.424 144.541129 
L 113.376 144.219798 
L 119.328 143.775007 
L 125.28 143.233987 
L 131.232 142.617578 
L 133.653115 142.344 
L 137.184 141.837788 
L 143.136 140.925898 
L 149.088 139.964757 
L 155.04 138.96457 
L 160.992 137.933639 
L 166.944 136.878769 
L 167.383758 136.8 
L 172.896 135.472919 
L 178.848 134.016075 
L 184.8 132.539727 
L 189.929564 131.256 
L 190.752 130.951895 
L 196.704 128.741271 
L 202.656 126.503057 
L 204.753206 125.712 
L 208.608 123.056878 
L 212.749281 120.168 
L 214.56 114.709936 
L 214.56 120.168 
L 214.56 125.712 
L 214.56 127.809512 
L 208.608 130.02778 
L 205.298094 131.256 
L 202.656 131.912941 
L 196.704 133.393162 
L 190.752 134.864659 
L 184.8 136.324072 
L 182.848942 136.8 
L 178.848 137.523296 
L 172.896 138.591084 
L 166.944 139.644429 
L 160.992 140.678641 
L 155.04 141.688067 
L 151.058067 142.344 
L 149.088 142.59868 
L 143.136 143.342549 
L 137.184 144.049336 
L 131.232 144.7089 
L 125.28 145.308481 
L 119.328 145.831852 
L 113.376 146.258122 
L 107.424 146.560007 
L 101.472 146.701264 
L 95.52 146.632774 
L 89.568 146.286364 
L 83.616 145.564671 
L 77.664 144.323725 
L 71.720071 142.344 
L 71.712 142.340752 
L 65.76 138.573741 
L 63.97905 136.8 
L 59.808 131.705211 
z
" clip-path="url(#p3fa1af817f)" style="fill: #2a768e"/>
    <path d="M 53.24822 114.624 
L 52.739162 109.08 
L 52.687398 103.536 
L 53.033746 97.992 
L 53.856 92.924246 
L 53.931784 92.448 
L 55.263809 86.904 
L 57.047807 81.36 
L 59.259892 75.816 
L 59.808 74.703735 
L 63.692542 70.272 
L 65.76 68.243323 
L 71.712 65.23252 
L 73.985569 64.728 
L 77.664 64.00429 
L 83.616 63.760246 
L 89.568 64.101854 
L 94.782953 64.728 
L 95.52 64.82406 
L 101.472 65.868027 
L 107.424 67.072707 
L 113.376 68.374004 
L 119.328 69.729013 
L 121.656045 70.272 
L 125.28 71.201616 
L 131.232 72.737506 
L 137.184 74.261271 
L 143.136 75.763274 
L 143.347192 75.816 
L 149.088 77.418144 
L 155.04 79.040376 
L 160.992 80.621006 
L 163.840132 81.36 
L 166.944 82.279915 
L 172.896 83.998534 
L 178.848 85.665198 
L 183.402201 86.904 
L 184.8 87.35138 
L 190.752 89.206514 
L 196.704 91.001636 
L 201.651149 92.448 
L 202.656 92.809006 
L 208.608 94.889252 
L 214.56 96.899159 
L 214.56 97.992 
L 214.56 102.572037 
L 208.608 99.951809 
L 204.31451 97.992 
L 202.656 97.419955 
L 196.704 95.308011 
L 190.752 93.119827 
L 188.976695 92.448 
L 184.8 91.165343 
L 178.848 89.28139 
L 172.896 87.334193 
L 171.61383 86.904 
L 166.944 85.574963 
L 160.992 83.833102 
L 155.04 82.03997 
L 152.830682 81.36 
L 149.088 80.352957 
L 143.136 78.719378 
L 137.184 77.052668 
L 132.823552 75.816 
L 131.232 75.4126 
L 125.28 73.904757 
L 119.328 72.401765 
L 113.376 70.925456 
L 110.612352 70.272 
L 107.424 69.587004 
L 101.472 68.414736 
L 95.52 67.406478 
L 89.568 66.659844 
L 83.616 66.325532 
L 77.664 66.642327 
L 71.712 68.001572 
L 67.288016 70.272 
L 65.76 71.178904 
L 61.675354 75.816 
L 59.808 78.357019 
L 58.596446 81.36 
L 56.792698 86.904 
L 55.44142 92.448 
L 54.550474 97.992 
L 54.129666 103.536 
L 54.190924 109.08 
L 54.748527 114.624 
L 55.819365 120.168 
L 57.423263 125.712 
L 59.583364 131.256 
L 59.808 131.705211 
L 63.97905 136.8 
L 65.76 138.573741 
L 71.712 142.340752 
L 71.720071 142.344 
L 77.664 144.323725 
L 83.616 145.564671 
L 89.568 146.286364 
L 95.52 146.632774 
L 101.472 146.701264 
L 107.424 146.560007 
L 113.376 146.258122 
L 119.328 145.831852 
L 125.28 145.308481 
L 131.232 144.7089 
L 137.184 144.049336 
L 143.136 143.342549 
L 149.088 142.59868 
L 151.058067 142.344 
L 155.04 141.688067 
L 160.992 140.678641 
L 166.944 139.644429 
L 172.896 138.591084 
L 178.848 137.523296 
L 182.848942 136.8 
L 184.8 136.324072 
L 190.752 134.864659 
L 196.704 133.393162 
L 202.656 131.912941 
L 205.298094 131.256 
L 208.608 130.02778 
L 214.56 127.809512 
L 214.56 131.256 
L 214.56 132.871252 
L 208.608 134.332685 
L 202.656 135.789844 
L 198.520285 136.8 
L 196.704 137.127009 
L 190.752 138.200073 
L 184.8 139.267966 
L 178.848 140.32791 
L 172.896 141.3766 
L 167.327172 142.344 
L 166.944 142.396036 
L 160.992 143.195422 
L 155.04 143.977215 
L 149.088 144.73603 
L 143.136 145.465254 
L 137.184 146.156713 
L 131.232 146.800223 
L 125.28 147.382976 
L 119.336276 147.888 
L 119.328 147.888572 
L 113.376 148.223688 
L 107.424 148.456783 
L 101.472 148.557459 
L 95.52 148.484401 
L 89.568 148.180124 
L 86.768501 147.888 
L 83.616 147.495484 
L 77.664 146.22972 
L 71.712 144.221346 
L 68.142897 142.344 
L 65.76 140.835845 
L 61.707753 136.8 
L 59.808 134.47952 
L 58.196018 131.256 
L 56.019675 125.712 
L 54.39915 120.168 
L 53.856 117.383471 
z
" clip-path="url(#p3fa1af817f)" style="fill: #32658e"/>
    <path d="M 52.610044 120.168 
L 51.644578 114.624 
L 51.288274 109.08 
L 51.252042 103.536 
L 51.494461 97.992 
L 52.133695 92.448 
L 53.660554 86.904 
L 53.856 86.518944 
L 55.499169 81.36 
L 57.638344 75.816 
L 59.808 71.413159 
L 60.808258 70.272 
L 65.76 65.413142 
L 67.119473 64.728 
L 71.712 62.683834 
L 77.664 61.549222 
L 83.616 61.345163 
L 89.568 61.722792 
L 95.52 62.468776 
L 101.472 63.448205 
L 107.424 64.57219 
L 108.174701 64.728 
L 113.376 65.889228 
L 119.328 67.271216 
L 125.28 68.675673 
L 131.232 70.083158 
L 132.030303 70.272 
L 137.184 71.611995 
L 143.136 73.137831 
L 149.088 74.63383 
L 153.892257 75.816 
L 155.04 76.131557 
L 160.992 77.736324 
L 166.944 79.296861 
L 172.896 80.813224 
L 175.096059 81.36 
L 178.848 82.423788 
L 184.8 84.064177 
L 190.752 85.654264 
L 195.57051 86.904 
L 196.704 87.249316 
L 202.656 89.015241 
L 208.608 90.725101 
L 214.56 92.381719 
L 214.56 92.448 
L 214.56 96.899159 
L 208.608 94.889252 
L 202.656 92.809006 
L 201.651149 92.448 
L 196.704 91.001636 
L 190.752 89.206514 
L 184.8 87.35138 
L 183.402201 86.904 
L 178.848 85.665198 
L 172.896 83.998534 
L 166.944 82.279915 
L 163.840132 81.36 
L 160.992 80.621006 
L 155.04 79.040376 
L 149.088 77.418144 
L 143.347192 75.816 
L 143.136 75.763274 
L 137.184 74.261271 
L 131.232 72.737506 
L 125.28 71.201616 
L 121.656045 70.272 
L 119.328 69.729013 
L 113.376 68.374004 
L 107.424 67.072707 
L 101.472 65.868027 
L 95.52 64.82406 
L 94.782953 64.728 
L 89.568 64.101854 
L 83.616 63.760246 
L 77.664 64.00429 
L 73.985569 64.728 
L 71.712 65.23252 
L 65.76 68.243323 
L 63.692542 70.272 
L 59.808 74.703735 
L 59.259892 75.816 
L 57.047807 81.36 
L 55.263809 86.904 
L 53.931784 92.448 
L 53.856 92.924246 
L 53.033746 97.992 
L 52.687398 103.536 
L 52.739162 109.08 
L 53.24822 114.624 
L 53.856 117.383471 
L 54.39915 120.168 
L 56.019675 125.712 
L 58.196018 131.256 
L 59.808 134.47952 
L 61.707753 136.8 
L 65.76 140.835845 
L 68.142897 142.344 
L 71.712 144.221346 
L 77.664 146.22972 
L 83.616 147.495484 
L 86.768501 147.888 
L 89.568 148.180124 
L 95.52 148.484401 
L 101.472 148.557459 
L 107.424 148.456783 
L 113.376 148.223688 
L 119.328 147.888572 
L 119.336276 147.888 
L 125.28 147.382976 
L 131.232 146.800223 
L 137.184 146.156713 
L 143.136 145.465254 
L 149.088 144.73603 
L 155.04 143.977215 
L 160.992 143.195422 
L 166.944 142.396036 
L 167.327172 142.344 
L 172.896 141.3766 
L 178.848 140.32791 
L 184.8 139.267966 
L 190.752 138.200073 
L 196.704 137.127009 
L 198.520285 136.8 
L 202.656 135.789844 
L 208.608 134.332685 
L 214.56 132.871252 
L 214.56 136.8 
L 214.56 136.803742 
L 208.608 137.86439 
L 202.656 138.925291 
L 196.704 139.98475 
L 190.752 141.040763 
L 184.8 142.090958 
L 183.361139 142.344 
L 178.848 142.962999 
L 172.896 143.773333 
L 166.944 144.57361 
L 160.992 145.360169 
L 155.04 146.128565 
L 149.088 146.873379 
L 143.136 147.587959 
L 140.505377 147.888 
L 137.184 148.282025 
L 131.232 148.833932 
L 125.28 149.245785 
L 119.328 149.576294 
L 113.376 149.89892 
L 107.424 150.118857 
L 101.472 150.205666 
L 95.52 150.117989 
L 89.568 149.798297 
L 83.616 149.299501 
L 77.664 148.180599 
L 76.947952 147.888 
L 71.712 146.101344 
L 65.76 143.037135 
L 65.015855 142.344 
L 59.808 137.163323 
L 59.417939 136.8 
L 56.808673 131.256 
L 54.616087 125.712 
L 53.856 123.121821 
z
" clip-path="url(#p3fa1af817f)" style="fill: #3b528b"/>
    <path d="M 52.332397 125.712 
L 50.592493 120.168 
L 50.040936 114.624 
L 49.837385 109.08 
L 49.816686 103.536 
L 49.955177 97.992 
L 50.320362 92.448 
L 51.192633 86.904 
L 53.856 81.656789 
L 53.95053 81.36 
L 56.016797 75.816 
L 57.850121 70.272 
L 59.808 68.378452 
L 63.52366 64.728 
L 65.76 62.717978 
L 71.712 60.184243 
L 77.165278 59.184 
L 77.664 59.035813 
L 83.616 58.778564 
L 87.248421 59.184 
L 89.568 59.343729 
L 95.52 60.122267 
L 101.472 61.131217 
L 107.424 62.262192 
L 113.376 63.14476 
L 118.96344 64.728 
L 119.328 64.813419 
L 125.28 66.242611 
L 131.232 67.672843 
L 137.184 68.772148 
L 142.205641 70.272 
L 143.136 70.512388 
L 149.088 72.030449 
L 155.04 73.513295 
L 160.992 74.704099 
L 164.606843 75.816 
L 166.944 76.434645 
L 172.896 77.971969 
L 178.848 79.464373 
L 184.8 80.767469 
L 186.684226 81.36 
L 190.752 82.459742 
L 196.704 84.022794 
L 202.656 85.538269 
L 208.18339 86.904 
L 208.608 87.027043 
L 214.56 88.708421 
L 214.56 92.381719 
L 208.608 90.725101 
L 202.656 89.015241 
L 196.704 87.249316 
L 195.57051 86.904 
L 190.752 85.654264 
L 184.8 84.064177 
L 178.848 82.423788 
L 175.096059 81.36 
L 172.896 80.813224 
L 166.944 79.296861 
L 160.992 77.736324 
L 155.04 76.131557 
L 153.892257 75.816 
L 149.088 74.63383 
L 143.136 73.137831 
L 137.184 71.611995 
L 132.030303 70.272 
L 131.232 70.083158 
L 125.28 68.675673 
L 119.328 67.271216 
L 113.376 65.889228 
L 108.174701 64.728 
L 107.424 64.57219 
L 101.472 63.448205 
L 95.52 62.468776 
L 89.568 61.722792 
L 83.616 61.345163 
L 77.664 61.549222 
L 71.712 62.683834 
L 67.119473 64.728 
L 65.76 65.413142 
L 60.808258 70.272 
L 59.808 71.413159 
L 57.638344 75.816 
L 55.499169 81.36 
L 53.856 86.518944 
L 53.660554 86.904 
L 52.133695 92.448 
L 51.494461 97.992 
L 51.252042 103.536 
L 51.288274 109.08 
L 51.644578 114.624 
L 52.610044 120.168 
L 53.856 123.121821 
L 54.616087 125.712 
L 56.808673 131.256 
L 59.417939 136.8 
L 59.808 137.163323 
L 65.015855 142.344 
L 65.76 143.037135 
L 71.712 146.101344 
L 76.947952 147.888 
L 77.664 148.180599 
L 83.616 149.299501 
L 89.568 149.798297 
L 95.52 150.117989 
L 101.472 150.205666 
L 107.424 150.118857 
L 113.376 149.89892 
L 119.328 149.576294 
L 125.28 149.245785 
L 131.232 148.833932 
L 137.184 148.282025 
L 140.505377 147.888 
L 143.136 147.587959 
L 149.088 146.873379 
L 155.04 146.128565 
L 160.992 145.360169 
L 166.944 144.57361 
L 172.896 143.773333 
L 178.848 142.962999 
L 183.361139 142.344 
L 184.8 142.090958 
L 190.752 141.040763 
L 196.704 139.98475 
L 202.656 138.925291 
L 208.608 137.86439 
L 214.56 136.803742 
L 214.56 139.709084 
L 208.608 140.754427 
L 202.656 141.799471 
L 199.557163 142.344 
L 196.704 142.985724 
L 190.752 143.945339 
L 184.8 144.594222 
L 178.848 145.16465 
L 172.896 145.963198 
L 166.944 146.751184 
L 160.992 147.524916 
L 158.13887 147.888 
L 155.04 148.554763 
L 149.088 149.455522 
L 143.136 150.060488 
L 137.184 150.489896 
L 131.232 150.805193 
L 125.28 151.040478 
L 119.328 151.264015 
L 113.376 151.574151 
L 107.424 151.780932 
L 101.472 151.853874 
L 95.52 151.751577 
L 89.568 151.41647 
L 83.616 151.071165 
L 77.664 150.431953 
L 71.712 148.087146 
L 71.498199 147.888 
L 65.76 145.116773 
L 62.78317 142.344 
L 59.808 139.384357 
L 57.033453 136.8 
L 55.421328 131.256 
L 53.856 127.31385 
z
" clip-path="url(#p3fa1af817f)" style="fill: #433d84"/>
    <path d="M 49.009152 125.712 
L 48.574941 120.168 
L 48.437294 114.624 
L 48.386496 109.08 
L 48.381331 103.536 
L 48.415892 97.992 
L 48.507028 92.448 
L 48.724712 86.904 
L 49.460691 81.36 
L 53.856 77.265982 
L 54.395249 75.816 
L 54.852774 70.272 
L 59.808 65.47959 
L 60.573015 64.728 
L 65.76 60.065941 
L 67.88288 59.184 
L 71.712 55.61736 
L 77.664 54.986581 
L 83.616 54.922382 
L 89.568 55.09697 
L 95.52 55.616711 
L 101.472 57.386204 
L 103.402102 59.184 
L 107.424 59.952195 
L 113.376 60.172448 
L 119.328 60.604613 
L 125.28 61.780571 
L 129.029337 64.728 
L 131.232 65.262528 
L 137.184 65.737259 
L 143.136 66.213642 
L 149.088 67.53375 
L 152.42171 70.272 
L 155.04 70.930389 
L 160.992 71.378076 
L 166.944 71.923426 
L 172.896 73.485403 
L 175.583423 75.816 
L 178.848 76.642717 
L 184.8 77.05169 
L 190.752 77.681508 
L 196.704 79.552594 
L 198.674229 81.36 
L 202.656 82.385064 
L 208.608 82.778993 
L 214.56 83.551385 
L 214.56 86.904 
L 214.56 88.708421 
L 208.608 87.027043 
L 208.18339 86.904 
L 202.656 85.538269 
L 196.704 84.022794 
L 190.752 82.459742 
L 186.684226 81.36 
L 184.8 80.767469 
L 178.848 79.464373 
L 172.896 77.971969 
L 166.944 76.434645 
L 164.606843 75.816 
L 160.992 74.704099 
L 155.04 73.513295 
L 149.088 72.030449 
L 143.136 70.512388 
L 142.205641 70.272 
L 137.184 68.772148 
L 131.232 67.672843 
L 125.28 66.242611 
L 119.328 64.813419 
L 118.96344 64.728 
L 113.376 63.14476 
L 107.424 62.262192 
L 101.472 61.131217 
L 95.52 60.122267 
L 89.568 59.343729 
L 87.248421 59.184 
L 83.616 58.778564 
L 77.664 59.035813 
L 77.165278 59.184 
L 71.712 60.184243 
L 65.76 62.717978 
L 63.52366 64.728 
L 59.808 68.378452 
L 57.850121 70.272 
L 56.016797 75.816 
L 53.95053 81.36 
L 53.856 81.656789 
L 51.192633 86.904 
L 50.320362 92.448 
L 49.955177 97.992 
L 49.816686 103.536 
L 49.837385 109.08 
L 50.040936 114.624 
L 50.592493 120.168 
L 52.332397 125.712 
L 53.856 127.31385 
L 55.421328 131.256 
L 57.033453 136.8 
L 59.808 139.384357 
L 62.78317 142.344 
L 65.76 145.116773 
L 71.498199 147.888 
L 71.712 148.087146 
L 77.664 150.431953 
L 83.616 151.071165 
L 89.568 151.41647 
L 95.52 151.751577 
L 101.472 151.853874 
L 107.424 151.780932 
L 113.376 151.574151 
L 119.328 151.264015 
L 125.28 151.040478 
L 131.232 150.805193 
L 137.184 150.489896 
L 143.136 150.060488 
L 149.088 149.455522 
L 155.04 148.554763 
L 158.13887 147.888 
L 160.992 147.524916 
L 166.944 146.751184 
L 172.896 145.963198 
L 178.848 145.16465 
L 184.8 144.594222 
L 190.752 143.945339 
L 196.704 142.985724 
L 199.557163 142.344 
L 202.656 141.799471 
L 208.608 140.754427 
L 214.56 139.709084 
L 214.56 142.344 
L 214.56 143.556383 
L 208.608 145.531975 
L 202.656 146.275128 
L 196.704 146.664587 
L 190.752 146.904068 
L 184.8 147.066004 
L 178.848 147.366301 
L 174.908392 147.888 
L 172.896 149.367409 
L 166.944 151.157258 
L 160.992 151.849215 
L 155.04 152.214835 
L 149.088 152.439629 
L 143.136 152.590605 
L 137.184 152.697768 
L 131.232 152.776453 
L 125.28 152.835171 
L 119.328 152.951737 
L 113.376 153.249382 
L 107.76485 153.432 
L 107.424 153.540238 
L 101.472 154.060495 
L 97.917 153.432 
L 95.52 153.385166 
L 89.568 153.034643 
L 83.616 152.842829 
L 77.664 152.683307 
L 71.712 152.098137 
L 67.192027 147.888 
L 65.76 147.196412 
L 60.550484 142.344 
L 59.808 141.60539 
L 54.648966 136.8 
L 54.033983 131.256 
L 53.856 130.807764 
z
" clip-path="url(#p3fa1af817f)" style="fill: #482677"/>
    <path d="M 36 186.696 
L 36 181.152 
L 36 175.608 
L 36 170.064 
L 36 164.52 
L 36 158.976 
L 36 153.432 
L 36 147.888 
L 36 142.344 
L 36 136.8 
L 36 131.256 
L 36 125.712 
L 36 120.168 
L 36 114.624 
L 36 109.08 
L 36 103.536 
L 36 97.992 
L 36 92.448 
L 36 86.904 
L 36 81.36 
L 36 75.816 
L 36 70.272 
L 36 64.728 
L 36 59.184 
L 36 53.64 
L 36 48.096 
L 36 42.552 
L 36 37.008 
L 36 31.464 
L 36 25.92 
L 41.952 25.92 
L 47.904 25.92 
L 53.856 25.92 
L 59.808 25.92 
L 65.76 25.92 
L 71.712 25.92 
L 77.664 25.92 
L 83.616 25.92 
L 89.568 25.92 
L 95.52 25.92 
L 101.472 25.92 
L 107.424 25.92 
L 113.376 25.92 
L 119.328 25.92 
L 125.28 25.92 
L 131.232 25.92 
L 137.184 25.92 
L 143.136 25.92 
L 149.088 25.92 
L 155.04 25.92 
L 160.992 25.92 
L 166.944 25.92 
L 172.896 25.92 
L 178.848 25.92 
L 184.8 25.92 
L 190.752 25.92 
L 196.704 25.92 
L 202.656 25.92 
L 208.608 25.92 
L 214.56 25.92 
L 214.56 31.464 
L 214.56 37.008 
L 214.56 42.552 
L 214.56 48.096 
L 214.56 53.64 
L 214.56 59.184 
L 214.56 64.728 
L 214.56 70.272 
L 214.56 75.816 
L 214.56 81.36 
L 214.56 83.551385 
L 208.608 82.778993 
L 202.656 82.385064 
L 198.674229 81.36 
L 196.704 79.552594 
L 190.752 77.681508 
L 184.8 77.05169 
L 178.848 76.642717 
L 175.583423 75.816 
L 172.896 73.485403 
L 166.944 71.923426 
L 160.992 71.378076 
L 155.04 70.930389 
L 152.42171 70.272 
L 149.088 67.53375 
L 143.136 66.213642 
L 137.184 65.737259 
L 131.232 65.262528 
L 129.029337 64.728 
L 125.28 61.780571 
L 119.328 60.604613 
L 113.376 60.172448 
L 107.424 59.952195 
L 103.402102 59.184 
L 101.472 57.386204 
L 95.52 55.616711 
L 89.568 55.09697 
L 83.616 54.922382 
L 77.664 54.986581 
L 71.712 55.61736 
L 67.88288 59.184 
L 65.76 60.065941 
L 60.573015 64.728 
L 59.808 65.47959 
L 54.852774 70.272 
L 54.395249 75.816 
L 53.856 77.265982 
L 49.460691 81.36 
L 48.724712 86.904 
L 48.507028 92.448 
L 48.415892 97.992 
L 48.381331 103.536 
L 48.386496 109.08 
L 48.437294 114.624 
L 48.574941 120.168 
L 49.009152 125.712 
L 53.856 130.807764 
L 54.033983 131.256 
L 54.648966 136.8 
L 59.808 141.60539 
L 60.550484 142.344 
L 65.76 147.196412 
L 67.192027 147.888 
L 71.712 152.098137 
L 77.664 152.683307 
L 83.616 152.842829 
L 89.568 153.034643 
L 95.52 153.385166 
L 97.917 153.432 
L 101.472 154.060495 
L 107.424 153.540238 
L 107.76485 153.432 
L 113.376 153.249382 
L 119.328 152.951737 
L 125.28 152.835171 
L 131.232 152.776453 
L 137.184 152.697768 
L 143.136 152.590605 
L 149.088 152.439629 
L 155.04 152.214835 
L 160.992 151.849215 
L 166.944 151.157258 
L 172.896 149.367409 
L 174.908392 147.888 
L 178.848 147.366301 
L 184.8 147.066004 
L 190.752 146.904068 
L 196.704 146.664587 
L 202.656 146.275128 
L 208.608 145.531975 
L 214.56 143.556383 
L 214.56 147.888 
L 214.56 153.432 
L 214.56 158.976 
L 214.56 164.52 
L 214.56 170.064 
L 214.56 175.608 
L 214.56 181.152 
L 214.56 186.696 
L 214.56 192.24 
L 208.608 192.24 
L 202.656 192.24 
L 196.704 192.24 
L 190.752 192.24 
L 184.8 192.24 
L 178.848 192.24 
L 172.896 192.24 
L 166.944 192.24 
L 160.992 192.24 
L 155.04 192.24 
L 149.088 192.24 
L 143.136 192.24 
L 137.184 192.24 
L 131.232 192.24 
L 125.28 192.24 
L 119.328 192.24 
L 113.376 192.24 
L 107.424 192.24 
L 101.472 192.24 
L 95.52 192.24 
L 89.568 192.24 
L 83.616 192.24 
L 77.664 192.24 
L 71.712 192.24 
L 65.76 192.24 
L 59.808 192.24 
L 53.856 192.24 
L 47.904 192.24 
L 41.952 192.24 
L 36 192.24 
z
" clip-path="url(#p3fa1af817f)" style="fill: #470e61"/>
   </g>
   <g id="PathCollection_1">
    <defs>
     <path id="mbbae90e3d2" d="M -4.743416 4.743416 
L 4.743416 -4.743416 
M -4.743416 -4.743416 
L 4.743416 4.743416 
" style="stroke: #ffffff; stroke-width: 5"/>
    </defs>
    <g clip-path="url(#p3fa1af817f)">
     <use xlink:href="#mbbae90e3d2" x="85.6" y="109.08" style="fill: #ffffff; stroke: #ffffff; stroke-width: 5"/>
    </g>
   </g>
   <g id="PathCollection_2">
    <defs>
     <path id="mba69c4721f" d="M -4.330127 4.330127 
L 4.330127 -4.330127 
M -4.330127 -4.330127 
L 4.330127 4.330127 
" style="stroke: #000000; stroke-width: 2"/>
    </defs>
    <g clip-path="url(#p3fa1af817f)">
     <use xlink:href="#mba69c4721f" x="85.6" y="109.08" style="stroke: #000000; stroke-width: 2"/>
    </g>
   </g>
   <g id="matplotlib.axis_1">
    <g id="xtick_1">
     <g id="line2d_1">
      <defs>
       <path id="mb291919ee2" d="M 0 0 
L 0 3.5 
" style="stroke: #000000; stroke-width: 0.8"/>
      </defs>
      <g>
       <use xlink:href="#mb291919ee2" x="65.76" y="192.24" style="stroke: #000000; stroke-width: 0.8"/>
      </g>
     </g>
     <g id="text_1">
      <!-- 200 -->
      <g transform="translate(54.3075 208.358125) scale(0.12 -0.12)">
       <defs>
        <path id="DejaVuSans-32" d="M 1228 531 
L 3431 531 
L 3431 0 
L 469 0 
L 469 531 
Q 828 903 1448 1529 
Q 2069 2156 2228 2338 
Q 2531 2678 2651 2914 
Q 2772 3150 2772 3378 
Q 2772 3750 2511 3984 
Q 2250 4219 1831 4219 
Q 1534 4219 1204 4116 
Q 875 4013 500 3803 
L 500 4441 
Q 881 4594 1212 4672 
Q 1544 4750 1819 4750 
Q 2544 4750 2975 4387 
Q 3406 4025 3406 3419 
Q 3406 3131 3298 2873 
Q 3191 2616 2906 2266 
Q 2828 2175 2409 1742 
Q 1991 1309 1228 531 
z
" transform="scale(0.015625)"/>
        <path id="DejaVuSans-30" d="M 2034 4250 
Q 1547 4250 1301 3770 
Q 1056 3291 1056 2328 
Q 1056 1369 1301 889 
Q 1547 409 2034 409 
Q 2525 409 2770 889 
Q 3016 1369 3016 2328 
Q 3016 3291 2770 3770 
Q 2525 4250 2034 4250 
z
M 2034 4750 
Q 2819 4750 3233 4129 
Q 3647 3509 3647 2328 
Q 3647 1150 3233 529 
Q 2819 -91 2034 -91 
Q 1250 -91 836 529 
Q 422 1150 422 2328 
Q 422 3509 836 4129 
Q 1250 4750 2034 4750 
z
" transform="scale(0.015625)"/>
       </defs>
       <use xlink:href="#DejaVuSans-32"/>
       <use xlink:href="#DejaVuSans-30" x="63.623047"/>
       <use xlink:href="#DejaVuSans-30" x="127.246094"/>
      </g>
     </g>
    </g>
    <g id="xtick_2">
     <g id="line2d_2">
      <g>
       <use xlink:href="#mb291919ee2" x="105.44" y="192.24" style="stroke: #000000; stroke-width: 0.8"/>
      </g>
     </g>
     <g id="text_2">
      <!-- 400 -->
      <g transform="translate(93.9875 208.358125) scale(0.12 -0.12)">
       <defs>
        <path id="DejaVuSans-34" d="M 2419 4116 
L 825 1625 
L 2419 1625 
L 2419 4116 
z
M 2253 4666 
L 3047 4666 
L 3047 1625 
L 3713 1625 
L 3713 1100 
L 3047 1100 
L 3047 0 
L 2419 0 
L 2419 1100 
L 313 1100 
L 313 1709 
L 2253 4666 
z
" transform="scale(0.015625)"/>
       </defs>
       <use xlink:href="#DejaVuSans-34"/>
       <use xlink:href="#DejaVuSans-30" x="63.623047"/>
       <use xlink:href="#DejaVuSans-30" x="127.246094"/>
      </g>
     </g>
    </g>
    <g id="xtick_3">
     <g id="line2d_3">
      <g>
       <use xlink:href="#mb291919ee2" x="145.12" y="192.24" style="stroke: #000000; stroke-width: 0.8"/>
      </g>
     </g>
     <g id="text_3">
      <!-- 600 -->
      <g transform="translate(133.6675 208.358125) scale(0.12 -0.12)">
       <defs>
        <path id="DejaVuSans-36" d="M 2113 2584 
Q 1688 2584 1439 2293 
Q 1191 2003 1191 1497 
Q 1191 994 1439 701 
Q 1688 409 2113 409 
Q 2538 409 2786 701 
Q 3034 994 3034 1497 
Q 3034 2003 2786 2293 
Q 2538 2584 2113 2584 
z
M 3366 4563 
L 3366 3988 
Q 3128 4100 2886 4159 
Q 2644 4219 2406 4219 
Q 1781 4219 1451 3797 
Q 1122 3375 1075 2522 
Q 1259 2794 1537 2939 
Q 1816 3084 2150 3084 
Q 2853 3084 3261 2657 
Q 3669 2231 3669 1497 
Q 3669 778 3244 343 
Q 2819 -91 2113 -91 
Q 1303 -91 875 529 
Q 447 1150 447 2328 
Q 447 3434 972 4092 
Q 1497 4750 2381 4750 
Q 2619 4750 2861 4703 
Q 3103 4656 3366 4563 
z
" transform="scale(0.015625)"/>
       </defs>
       <use xlink:href="#DejaVuSans-36"/>
       <use xlink:href="#DejaVuSans-30" x="63.623047"/>
       <use xlink:href="#DejaVuSans-30" x="127.246094"/>
      </g>
     </g>
    </g>
    <g id="xtick_4">
     <g id="line2d_4">
      <g>
       <use xlink:href="#mb291919ee2" x="184.8" y="192.24" style="stroke: #000000; stroke-width: 0.8"/>
      </g>
     </g>
     <g id="text_4">
      <!-- 800 -->
      <g transform="translate(173.3475 208.358125) scale(0.12 -0.12)">
       <defs>
        <path id="DejaVuSans-38" d="M 2034 2216 
Q 1584 2216 1326 1975 
Q 1069 1734 1069 1313 
Q 1069 891 1326 650 
Q 1584 409 2034 409 
Q 2484 409 2743 651 
Q 3003 894 3003 1313 
Q 3003 1734 2745 1975 
Q 2488 2216 2034 2216 
z
M 1403 2484 
Q 997 2584 770 2862 
Q 544 3141 544 3541 
Q 544 4100 942 4425 
Q 1341 4750 2034 4750 
Q 2731 4750 3128 4425 
Q 3525 4100 3525 3541 
Q 3525 3141 3298 2862 
Q 3072 2584 2669 2484 
Q 3125 2378 3379 2068 
Q 3634 1759 3634 1313 
Q 3634 634 3220 271 
Q 2806 -91 2034 -91 
Q 1263 -91 848 271 
Q 434 634 434 1313 
Q 434 1759 690 2068 
Q 947 2378 1403 2484 
z
M 1172 3481 
Q 1172 3119 1398 2916 
Q 1625 2713 2034 2713 
Q 2441 2713 2670 2916 
Q 2900 3119 2900 3481 
Q 2900 3844 2670 4047 
Q 2441 4250 2034 4250 
Q 1625 4250 1398 4047 
Q 1172 3844 1172 3481 
z
" transform="scale(0.015625)"/>
       </defs>
       <use xlink:href="#DejaVuSans-38"/>
       <use xlink:href="#DejaVuSans-30" x="63.623047"/>
       <use xlink:href="#DejaVuSans-30" x="127.246094"/>
      </g>
     </g>
    </g>
    <g id="text_5">
     <!-- Diploid N$_e$1 -->
     <g transform="translate(80 227.01375) scale(0.16 -0.16)">
      <defs>
       <path id="DejaVuSans-44" d="M 1259 4147 
L 1259 519 
L 2022 519 
Q 2988 519 3436 956 
Q 3884 1394 3884 2338 
Q 3884 3275 3436 3711 
Q 2988 4147 2022 4147 
L 1259 4147 
z
M 628 4666 
L 1925 4666 
Q 3281 4666 3915 4102 
Q 4550 3538 4550 2338 
Q 4550 1131 3912 565 
Q 3275 0 1925 0 
L 628 0 
L 628 4666 
z
" transform="scale(0.015625)"/>
       <path id="DejaVuSans-69" d="M 603 3500 
L 1178 3500 
L 1178 0 
L 603 0 
L 603 3500 
z
M 603 4863 
L 1178 4863 
L 1178 4134 
L 603 4134 
L 603 4863 
z
" transform="scale(0.015625)"/>
       <path id="DejaVuSans-70" d="M 1159 525 
L 1159 -1331 
L 581 -1331 
L 581 3500 
L 1159 3500 
L 1159 2969 
Q 1341 3281 1617 3432 
Q 1894 3584 2278 3584 
Q 2916 3584 3314 3078 
Q 3713 2572 3713 1747 
Q 3713 922 3314 415 
Q 2916 -91 2278 -91 
Q 1894 -91 1617 61 
Q 1341 213 1159 525 
z
M 3116 1747 
Q 3116 2381 2855 2742 
Q 2594 3103 2138 3103 
Q 1681 3103 1420 2742 
Q 1159 2381 1159 1747 
Q 1159 1113 1420 752 
Q 1681 391 2138 391 
Q 2594 391 2855 752 
Q 3116 1113 3116 1747 
z
" transform="scale(0.015625)"/>
       <path id="DejaVuSans-6c" d="M 603 4863 
L 1178 4863 
L 1178 0 
L 603 0 
L 603 4863 
z
" transform="scale(0.015625)"/>
       <path id="DejaVuSans-6f" d="M 1959 3097 
Q 1497 3097 1228 2736 
Q 959 2375 959 1747 
Q 959 1119 1226 758 
Q 1494 397 1959 397 
Q 2419 397 2687 759 
Q 2956 1122 2956 1747 
Q 2956 2369 2687 2733 
Q 2419 3097 1959 3097 
z
M 1959 3584 
Q 2709 3584 3137 3096 
Q 3566 2609 3566 1747 
Q 3566 888 3137 398 
Q 2709 -91 1959 -91 
Q 1206 -91 779 398 
Q 353 888 353 1747 
Q 353 2609 779 3096 
Q 1206 3584 1959 3584 
z
" transform="scale(0.015625)"/>
       <path id="DejaVuSans-64" d="M 2906 2969 
L 2906 4863 
L 3481 4863 
L 3481 0 
L 2906 0 
L 2906 525 
Q 2725 213 2448 61 
Q 2172 -91 1784 -91 
Q 1150 -91 751 415 
Q 353 922 353 1747 
Q 353 2572 751 3078 
Q 1150 3584 1784 3584 
Q 2172 3584 2448 3432 
Q 2725 3281 2906 2969 
z
M 947 1747 
Q 947 1113 1208 752 
Q 1469 391 1925 391 
Q 2381 391 2643 752 
Q 2906 1113 2906 1747 
Q 2906 2381 2643 2742 
Q 2381 3103 1925 3103 
Q 1469 3103 1208 2742 
Q 947 2381 947 1747 
z
" transform="scale(0.015625)"/>
       <path id="DejaVuSans-20" transform="scale(0.015625)"/>
       <path id="DejaVuSans-4e" d="M 628 4666 
L 1478 4666 
L 3547 763 
L 3547 4666 
L 4159 4666 
L 4159 0 
L 3309 0 
L 1241 3903 
L 1241 0 
L 628 0 
L 628 4666 
z
" transform="scale(0.015625)"/>
       <path id="DejaVuSans-Oblique-65" d="M 3078 2063 
Q 3088 2113 3092 2166 
Q 3097 2219 3097 2272 
Q 3097 2653 2873 2875 
Q 2650 3097 2266 3097 
Q 1838 3097 1509 2826 
Q 1181 2556 1013 2059 
L 3078 2063 
z
M 3578 1613 
L 903 1613 
Q 884 1494 878 1425 
Q 872 1356 872 1306 
Q 872 872 1139 634 
Q 1406 397 1894 397 
Q 2269 397 2603 481 
Q 2938 566 3225 728 
L 3116 159 
Q 2806 34 2476 -28 
Q 2147 -91 1806 -91 
Q 1078 -91 686 257 
Q 294 606 294 1247 
Q 294 1794 489 2264 
Q 684 2734 1063 3103 
Q 1306 3334 1642 3459 
Q 1978 3584 2356 3584 
Q 2950 3584 3301 3228 
Q 3653 2872 3653 2272 
Q 3653 2128 3634 1964 
Q 3616 1800 3578 1613 
z
" transform="scale(0.015625)"/>
       <path id="DejaVuSans-31" d="M 794 531 
L 1825 531 
L 1825 4091 
L 703 3866 
L 703 4441 
L 1819 4666 
L 2450 4666 
L 2450 531 
L 3481 531 
L 3481 0 
L 794 0 
L 794 531 
z
" transform="scale(0.015625)"/>
      </defs>
      <use xlink:href="#DejaVuSans-44" transform="translate(0 0.015625)"/>
      <use xlink:href="#DejaVuSans-69" transform="translate(77.001953 0.015625)"/>
      <use xlink:href="#DejaVuSans-70" transform="translate(104.785156 0.015625)"/>
      <use xlink:href="#DejaVuSans-6c" transform="translate(168.261719 0.015625)"/>
      <use xlink:href="#DejaVuSans-6f" transform="translate(196.044922 0.015625)"/>
      <use xlink:href="#DejaVuSans-69" transform="translate(257.226562 0.015625)"/>
      <use xlink:href="#DejaVuSans-64" transform="translate(285.009766 0.015625)"/>
      <use xlink:href="#DejaVuSans-20" transform="translate(348.486328 0.015625)"/>
      <use xlink:href="#DejaVuSans-4e" transform="translate(380.273438 0.015625)"/>
      <use xlink:href="#DejaVuSans-Oblique-65" transform="translate(456.035156 -16.390625) scale(0.7)"/>
      <use xlink:href="#DejaVuSans-31" transform="translate(501.835938 0.015625)"/>
     </g>
    </g>
    <g id="text_6">
     <!-- 1e3 -->
     <g transform="translate(195.681875 221.452188) scale(0.1 -0.1)">
      <defs>
       <path id="DejaVuSans-65" d="M 3597 1894 
L 3597 1613 
L 953 1613 
Q 991 1019 1311 708 
Q 1631 397 2203 397 
Q 2534 397 2845 478 
Q 3156 559 3463 722 
L 3463 178 
Q 3153 47 2828 -22 
Q 2503 -91 2169 -91 
Q 1331 -91 842 396 
Q 353 884 353 1716 
Q 353 2575 817 3079 
Q 1281 3584 2069 3584 
Q 2775 3584 3186 3129 
Q 3597 2675 3597 1894 
z
M 3022 2063 
Q 3016 2534 2758 2815 
Q 2500 3097 2075 3097 
Q 1594 3097 1305 2825 
Q 1016 2553 972 2059 
L 3022 2063 
z
" transform="scale(0.015625)"/>
       <path id="DejaVuSans-33" d="M 2597 2516 
Q 3050 2419 3304 2112 
Q 3559 1806 3559 1356 
Q 3559 666 3084 287 
Q 2609 -91 1734 -91 
Q 1441 -91 1130 -33 
Q 819 25 488 141 
L 488 750 
Q 750 597 1062 519 
Q 1375 441 1716 441 
Q 2309 441 2620 675 
Q 2931 909 2931 1356 
Q 2931 1769 2642 2001 
Q 2353 2234 1838 2234 
L 1294 2234 
L 1294 2753 
L 1863 2753 
Q 2328 2753 2575 2939 
Q 2822 3125 2822 3475 
Q 2822 3834 2567 4026 
Q 2313 4219 1838 4219 
Q 1578 4219 1281 4162 
Q 984 4106 628 3988 
L 628 4550 
Q 988 4650 1302 4700 
Q 1616 4750 1894 4750 
Q 2613 4750 3031 4423 
Q 3450 4097 3450 3541 
Q 3450 3153 3228 2886 
Q 3006 2619 2597 2516 
z
" transform="scale(0.015625)"/>
      </defs>
      <use xlink:href="#DejaVuSans-31"/>
      <use xlink:href="#DejaVuSans-65" x="63.623047"/>
      <use xlink:href="#DejaVuSans-33" x="125.146484"/>
     </g>
    </g>
   </g>
   <g id="matplotlib.axis_2">
    <g id="ytick_1">
     <g id="line2d_5">
      <defs>
       <path id="m7b94a2b957" d="M 0 0 
L -3.5 0 
" style="stroke: #000000; stroke-width: 0.8"/>
      </defs>
      <g>
       <use xlink:href="#m7b94a2b957" x="36" y="192.24" style="stroke: #000000; stroke-width: 0.8"/>
      </g>
     </g>
     <g id="text_7">
      <!-- 1.0 -->
      <g transform="translate(9.91625 196.799062) scale(0.12 -0.12)">
       <defs>
        <path id="DejaVuSans-2e" d="M 684 794 
L 1344 794 
L 1344 0 
L 684 0 
L 684 794 
z
" transform="scale(0.015625)"/>
       </defs>
       <use xlink:href="#DejaVuSans-31"/>
       <use xlink:href="#DejaVuSans-2e" x="63.623047"/>
       <use xlink:href="#DejaVuSans-30" x="95.410156"/>
      </g>
     </g>
    </g>
    <g id="ytick_2">
     <g id="line2d_6">
      <g>
       <use xlink:href="#m7b94a2b957" x="36" y="150.66" style="stroke: #000000; stroke-width: 0.8"/>
      </g>
     </g>
     <g id="text_8">
      <!-- 1.5 -->
      <g transform="translate(9.91625 155.219063) scale(0.12 -0.12)">
       <defs>
        <path id="DejaVuSans-35" d="M 691 4666 
L 3169 4666 
L 3169 4134 
L 1269 4134 
L 1269 2991 
Q 1406 3038 1543 3061 
Q 1681 3084 1819 3084 
Q 2600 3084 3056 2656 
Q 3513 2228 3513 1497 
Q 3513 744 3044 326 
Q 2575 -91 1722 -91 
Q 1428 -91 1123 -41 
Q 819 9 494 109 
L 494 744 
Q 775 591 1075 516 
Q 1375 441 1709 441 
Q 2250 441 2565 725 
Q 2881 1009 2881 1497 
Q 2881 1984 2565 2268 
Q 2250 2553 1709 2553 
Q 1456 2553 1204 2497 
Q 953 2441 691 2322 
L 691 4666 
z
" transform="scale(0.015625)"/>
       </defs>
       <use xlink:href="#DejaVuSans-31"/>
       <use xlink:href="#DejaVuSans-2e" x="63.623047"/>
       <use xlink:href="#DejaVuSans-35" x="95.410156"/>
      </g>
     </g>
    </g>
    <g id="ytick_3">
     <g id="line2d_7">
      <g>
       <use xlink:href="#m7b94a2b957" x="36" y="109.08" style="stroke: #000000; stroke-width: 0.8"/>
      </g>
     </g>
     <g id="text_9">
      <!-- 2.0 -->
      <g transform="translate(9.91625 113.639062) scale(0.12 -0.12)">
       <use xlink:href="#DejaVuSans-32"/>
       <use xlink:href="#DejaVuSans-2e" x="63.623047"/>
       <use xlink:href="#DejaVuSans-30" x="95.410156"/>
      </g>
     </g>
    </g>
    <g id="ytick_4">
     <g id="line2d_8">
      <g>
       <use xlink:href="#m7b94a2b957" x="36" y="67.5" style="stroke: #000000; stroke-width: 0.8"/>
      </g>
     </g>
     <g id="text_10">
      <!-- 2.5 -->
      <g transform="translate(9.91625 72.059063) scale(0.12 -0.12)">
       <use xlink:href="#DejaVuSans-32"/>
       <use xlink:href="#DejaVuSans-2e" x="63.623047"/>
       <use xlink:href="#DejaVuSans-35" x="95.410156"/>
      </g>
     </g>
    </g>
    <g id="ytick_5">
     <g id="line2d_9">
      <g>
       <use xlink:href="#m7b94a2b957" x="36" y="25.92" style="stroke: #000000; stroke-width: 0.8"/>
      </g>
     </g>
     <g id="text_11">
      <!-- 3.0 -->
      <g transform="translate(9.91625 30.479062) scale(0.12 -0.12)">
       <use xlink:href="#DejaVuSans-33"/>
       <use xlink:href="#DejaVuSans-2e" x="63.623047"/>
       <use xlink:href="#DejaVuSans-30" x="95.410156"/>
      </g>
     </g>
    </g>
    <g id="text_12">
     <!-- Recombination rate -->
     <g transform="translate(2.58875 187.6775) rotate(-90) scale(0.16 -0.16)">
      <defs>
       <path id="DejaVuSans-52" d="M 2841 2188 
Q 3044 2119 3236 1894 
Q 3428 1669 3622 1275 
L 4263 0 
L 3584 0 
L 2988 1197 
Q 2756 1666 2539 1819 
Q 2322 1972 1947 1972 
L 1259 1972 
L 1259 0 
L 628 0 
L 628 4666 
L 2053 4666 
Q 2853 4666 3247 4331 
Q 3641 3997 3641 3322 
Q 3641 2881 3436 2590 
Q 3231 2300 2841 2188 
z
M 1259 4147 
L 1259 2491 
L 2053 2491 
Q 2509 2491 2742 2702 
Q 2975 2913 2975 3322 
Q 2975 3731 2742 3939 
Q 2509 4147 2053 4147 
L 1259 4147 
z
" transform="scale(0.015625)"/>
       <path id="DejaVuSans-63" d="M 3122 3366 
L 3122 2828 
Q 2878 2963 2633 3030 
Q 2388 3097 2138 3097 
Q 1578 3097 1268 2742 
Q 959 2388 959 1747 
Q 959 1106 1268 751 
Q 1578 397 2138 397 
Q 2388 397 2633 464 
Q 2878 531 3122 666 
L 3122 134 
Q 2881 22 2623 -34 
Q 2366 -91 2075 -91 
Q 1284 -91 818 406 
Q 353 903 353 1747 
Q 353 2603 823 3093 
Q 1294 3584 2113 3584 
Q 2378 3584 2631 3529 
Q 2884 3475 3122 3366 
z
" transform="scale(0.015625)"/>
       <path id="DejaVuSans-6d" d="M 3328 2828 
Q 3544 3216 3844 3400 
Q 4144 3584 4550 3584 
Q 5097 3584 5394 3201 
Q 5691 2819 5691 2113 
L 5691 0 
L 5113 0 
L 5113 2094 
Q 5113 2597 4934 2840 
Q 4756 3084 4391 3084 
Q 3944 3084 3684 2787 
Q 3425 2491 3425 1978 
L 3425 0 
L 2847 0 
L 2847 2094 
Q 2847 2600 2669 2842 
Q 2491 3084 2119 3084 
Q 1678 3084 1418 2786 
Q 1159 2488 1159 1978 
L 1159 0 
L 581 0 
L 581 3500 
L 1159 3500 
L 1159 2956 
Q 1356 3278 1631 3431 
Q 1906 3584 2284 3584 
Q 2666 3584 2933 3390 
Q 3200 3197 3328 2828 
z
" transform="scale(0.015625)"/>
       <path id="DejaVuSans-62" d="M 3116 1747 
Q 3116 2381 2855 2742 
Q 2594 3103 2138 3103 
Q 1681 3103 1420 2742 
Q 1159 2381 1159 1747 
Q 1159 1113 1420 752 
Q 1681 391 2138 391 
Q 2594 391 2855 752 
Q 3116 1113 3116 1747 
z
M 1159 2969 
Q 1341 3281 1617 3432 
Q 1894 3584 2278 3584 
Q 2916 3584 3314 3078 
Q 3713 2572 3713 1747 
Q 3713 922 3314 415 
Q 2916 -91 2278 -91 
Q 1894 -91 1617 61 
Q 1341 213 1159 525 
L 1159 0 
L 581 0 
L 581 4863 
L 1159 4863 
L 1159 2969 
z
" transform="scale(0.015625)"/>
       <path id="DejaVuSans-6e" d="M 3513 2113 
L 3513 0 
L 2938 0 
L 2938 2094 
Q 2938 2591 2744 2837 
Q 2550 3084 2163 3084 
Q 1697 3084 1428 2787 
Q 1159 2491 1159 1978 
L 1159 0 
L 581 0 
L 581 3500 
L 1159 3500 
L 1159 2956 
Q 1366 3272 1645 3428 
Q 1925 3584 2291 3584 
Q 2894 3584 3203 3211 
Q 3513 2838 3513 2113 
z
" transform="scale(0.015625)"/>
       <path id="DejaVuSans-61" d="M 2194 1759 
Q 1497 1759 1228 1600 
Q 959 1441 959 1056 
Q 959 750 1161 570 
Q 1363 391 1709 391 
Q 2188 391 2477 730 
Q 2766 1069 2766 1631 
L 2766 1759 
L 2194 1759 
z
M 3341 1997 
L 3341 0 
L 2766 0 
L 2766 531 
Q 2569 213 2275 61 
Q 1981 -91 1556 -91 
Q 1019 -91 701 211 
Q 384 513 384 1019 
Q 384 1609 779 1909 
Q 1175 2209 1959 2209 
L 2766 2209 
L 2766 2266 
Q 2766 2663 2505 2880 
Q 2244 3097 1772 3097 
Q 1472 3097 1187 3025 
Q 903 2953 641 2809 
L 641 3341 
Q 956 3463 1253 3523 
Q 1550 3584 1831 3584 
Q 2591 3584 2966 3190 
Q 3341 2797 3341 1997 
z
" transform="scale(0.015625)"/>
       <path id="DejaVuSans-74" d="M 1172 4494 
L 1172 3500 
L 2356 3500 
L 2356 3053 
L 1172 3053 
L 1172 1153 
Q 1172 725 1289 603 
Q 1406 481 1766 481 
L 2356 481 
L 2356 0 
L 1766 0 
Q 1100 0 847 248 
Q 594 497 594 1153 
L 594 3053 
L 172 3053 
L 172 3500 
L 594 3500 
L 594 4494 
L 1172 4494 
z
" transform="scale(0.015625)"/>
       <path id="DejaVuSans-72" d="M 2631 2963 
Q 2534 3019 2420 3045 
Q 2306 3072 2169 3072 
Q 1681 3072 1420 2755 
Q 1159 2438 1159 1844 
L 1159 0 
L 581 0 
L 581 3500 
L 1159 3500 
L 1159 2956 
Q 1341 3275 1631 3429 
Q 1922 3584 2338 3584 
Q 2397 3584 2469 3576 
Q 2541 3569 2628 3553 
L 2631 2963 
z
" transform="scale(0.015625)"/>
      </defs>
      <use xlink:href="#DejaVuSans-52"/>
      <use xlink:href="#DejaVuSans-65" x="64.982422"/>
      <use xlink:href="#DejaVuSans-63" x="126.505859"/>
      <use xlink:href="#DejaVuSans-6f" x="181.486328"/>
      <use xlink:href="#DejaVuSans-6d" x="242.667969"/>
      <use xlink:href="#DejaVuSans-62" x="340.080078"/>
      <use xlink:href="#DejaVuSans-69" x="403.556641"/>
      <use xlink:href="#DejaVuSans-6e" x="431.339844"/>
      <use xlink:href="#DejaVuSans-61" x="494.71875"/>
      <use xlink:href="#DejaVuSans-74" x="555.998047"/>
      <use xlink:href="#DejaVuSans-69" x="595.207031"/>
      <use xlink:href="#DejaVuSans-6f" x="622.990234"/>
      <use xlink:href="#DejaVuSans-6e" x="684.171875"/>
      <use xlink:href="#DejaVuSans-20" x="747.550781"/>
      <use xlink:href="#DejaVuSans-72" x="779.337891"/>
      <use xlink:href="#DejaVuSans-61" x="820.451172"/>
      <use xlink:href="#DejaVuSans-74" x="881.730469"/>
      <use xlink:href="#DejaVuSans-65" x="920.939453"/>
     </g>
    </g>
    <g id="text_13">
     <!-- 1e9 -->
     <g transform="translate(36 22.92) scale(0.1 -0.1)">
      <defs>
       <path id="DejaVuSans-2212" d="M 678 2272 
L 4684 2272 
L 4684 1741 
L 678 1741 
L 678 2272 
z
" transform="scale(0.015625)"/>
       <path id="DejaVuSans-39" d="M 703 97 
L 703 672 
Q 941 559 1184 500 
Q 1428 441 1663 441 
Q 2288 441 2617 861 
Q 2947 1281 2994 2138 
Q 2813 1869 2534 1725 
Q 2256 1581 1919 1581 
Q 1219 1581 811 2004 
Q 403 2428 403 3163 
Q 403 3881 828 4315 
Q 1253 4750 1959 4750 
Q 2769 4750 3195 4129 
Q 3622 3509 3622 2328 
Q 3622 1225 3098 567 
Q 2575 -91 1691 -91 
Q 1453 -91 1209 -44 
Q 966 3 703 97 
z
M 1959 2075 
Q 2384 2075 2632 2365 
Q 2881 2656 2881 3163 
Q 2881 3666 2632 3958 
Q 2384 4250 1959 4250 
Q 1534 4250 1286 3958 
Q 1038 3666 1038 3163 
Q 1038 2656 1286 2365 
Q 1534 2075 1959 2075 
z
" transform="scale(0.015625)"/>
      </defs>
      <use xlink:href="#DejaVuSans-31"/>
      <use xlink:href="#DejaVuSans-65" x="63.623047"/>
      <use xlink:href="#DejaVuSans-2212" x="125.146484"/>
      <use xlink:href="#DejaVuSans-39" x="208.935547"/>
     </g>
    </g>
   </g>
   <g id="patch_3">
    <path d="M 36 192.24 
L 36 25.92 
" style="fill: none; stroke: #000000; stroke-width: 0.8; stroke-linejoin: miter; stroke-linecap: square"/>
   </g>
   <g id="patch_4">
    <path d="M 214.56 192.24 
L 214.56 25.92 
" style="fill: none; stroke: #000000; stroke-width: 0.8; stroke-linejoin: miter; stroke-linecap: square"/>
   </g>
   <g id="patch_5">
    <path d="M 36 192.24 
L 214.56 192.24 
" style="fill: none; stroke: #000000; stroke-width: 0.8; stroke-linejoin: miter; stroke-linecap: square"/>
   </g>
   <g id="patch_6">
    <path d="M 36 25.92 
L 214.56 25.92 
" style="fill: none; stroke: #000000; stroke-width: 0.8; stroke-linejoin: miter; stroke-linecap: square"/>
   </g>
   <g id="text_14">
    <!-- Ne1r-MSSMC-RGT-P2-S4 -->
    <g transform="translate(29.70375 10.92) scale(0.16 -0.16)">
     <defs>
      <path id="DejaVuSans-2d" d="M 313 2009 
L 1997 2009 
L 1997 1497 
L 313 1497 
L 313 2009 
z
" transform="scale(0.015625)"/>
      <path id="DejaVuSans-4d" d="M 628 4666 
L 1569 4666 
L 2759 1491 
L 3956 4666 
L 4897 4666 
L 4897 0 
L 4281 0 
L 4281 4097 
L 3078 897 
L 2444 897 
L 1241 4097 
L 1241 0 
L 628 0 
L 628 4666 
z
" transform="scale(0.015625)"/>
      <path id="DejaVuSans-53" d="M 3425 4513 
L 3425 3897 
Q 3066 4069 2747 4153 
Q 2428 4238 2131 4238 
Q 1616 4238 1336 4038 
Q 1056 3838 1056 3469 
Q 1056 3159 1242 3001 
Q 1428 2844 1947 2747 
L 2328 2669 
Q 3034 2534 3370 2195 
Q 3706 1856 3706 1288 
Q 3706 609 3251 259 
Q 2797 -91 1919 -91 
Q 1588 -91 1214 -16 
Q 841 59 441 206 
L 441 856 
Q 825 641 1194 531 
Q 1563 422 1919 422 
Q 2459 422 2753 634 
Q 3047 847 3047 1241 
Q 3047 1584 2836 1778 
Q 2625 1972 2144 2069 
L 1759 2144 
Q 1053 2284 737 2584 
Q 422 2884 422 3419 
Q 422 4038 858 4394 
Q 1294 4750 2059 4750 
Q 2388 4750 2728 4690 
Q 3069 4631 3425 4513 
z
" transform="scale(0.015625)"/>
      <path id="DejaVuSans-43" d="M 4122 4306 
L 4122 3641 
Q 3803 3938 3442 4084 
Q 3081 4231 2675 4231 
Q 1875 4231 1450 3742 
Q 1025 3253 1025 2328 
Q 1025 1406 1450 917 
Q 1875 428 2675 428 
Q 3081 428 3442 575 
Q 3803 722 4122 1019 
L 4122 359 
Q 3791 134 3420 21 
Q 3050 -91 2638 -91 
Q 1578 -91 968 557 
Q 359 1206 359 2328 
Q 359 3453 968 4101 
Q 1578 4750 2638 4750 
Q 3056 4750 3426 4639 
Q 3797 4528 4122 4306 
z
" transform="scale(0.015625)"/>
      <path id="DejaVuSans-47" d="M 3809 666 
L 3809 1919 
L 2778 1919 
L 2778 2438 
L 4434 2438 
L 4434 434 
Q 4069 175 3628 42 
Q 3188 -91 2688 -91 
Q 1594 -91 976 548 
Q 359 1188 359 2328 
Q 359 3472 976 4111 
Q 1594 4750 2688 4750 
Q 3144 4750 3555 4637 
Q 3966 4525 4313 4306 
L 4313 3634 
Q 3963 3931 3569 4081 
Q 3175 4231 2741 4231 
Q 1884 4231 1454 3753 
Q 1025 3275 1025 2328 
Q 1025 1384 1454 906 
Q 1884 428 2741 428 
Q 3075 428 3337 486 
Q 3600 544 3809 666 
z
" transform="scale(0.015625)"/>
      <path id="DejaVuSans-54" d="M -19 4666 
L 3928 4666 
L 3928 4134 
L 2272 4134 
L 2272 0 
L 1638 0 
L 1638 4134 
L -19 4134 
L -19 4666 
z
" transform="scale(0.015625)"/>
      <path id="DejaVuSans-50" d="M 1259 4147 
L 1259 2394 
L 2053 2394 
Q 2494 2394 2734 2622 
Q 2975 2850 2975 3272 
Q 2975 3691 2734 3919 
Q 2494 4147 2053 4147 
L 1259 4147 
z
M 628 4666 
L 2053 4666 
Q 2838 4666 3239 4311 
Q 3641 3956 3641 3272 
Q 3641 2581 3239 2228 
Q 2838 1875 2053 1875 
L 1259 1875 
L 1259 0 
L 628 0 
L 628 4666 
z
" transform="scale(0.015625)"/>
     </defs>
     <use xlink:href="#DejaVuSans-4e"/>
     <use xlink:href="#DejaVuSans-65" x="74.804688"/>
     <use xlink:href="#DejaVuSans-31" x="136.328125"/>
     <use xlink:href="#DejaVuSans-72" x="199.951172"/>
     <use xlink:href="#DejaVuSans-2d" x="234.689453"/>
     <use xlink:href="#DejaVuSans-4d" x="270.773438"/>
     <use xlink:href="#DejaVuSans-53" x="357.052734"/>
     <use xlink:href="#DejaVuSans-53" x="420.529297"/>
     <use xlink:href="#DejaVuSans-4d" x="484.005859"/>
     <use xlink:href="#DejaVuSans-43" x="570.285156"/>
     <use xlink:href="#DejaVuSans-2d" x="640.109375"/>
     <use xlink:href="#DejaVuSans-52" x="676.193359"/>
     <use xlink:href="#DejaVuSans-47" x="745.675781"/>
     <use xlink:href="#DejaVuSans-54" x="819.541016"/>
     <use xlink:href="#DejaVuSans-2d" x="871.5"/>
     <use xlink:href="#DejaVuSans-50" x="907.583984"/>
     <use xlink:href="#DejaVuSans-32" x="967.886719"/>
     <use xlink:href="#DejaVuSans-2d" x="1031.509766"/>
     <use xlink:href="#DejaVuSans-53" x="1067.59375"/>
     <use xlink:href="#DejaVuSans-34" x="1131.070312"/>
    </g>
   </g>
  </g>
  <g id="axes_2">
   <g id="patch_7">
    <path d="M 225.72 192.24 
L 234.036 192.24 
L 234.036 25.92 
L 225.72 25.92 
z
" style="fill: #ffffff"/>
   </g>
   <g id="QuadMesh_1">
    <path d="M 225.72 192.24 
L 234.036 192.24 
L 234.036 180.36 
L 225.72 180.36 
L 225.72 192.24 
" clip-path="url(#p9724d19fa3)" style="fill: #e7e419"/>
    <path d="M 225.72 180.36 
L 234.036 180.36 
L 234.036 168.48 
L 225.72 168.48 
L 225.72 180.36 
" clip-path="url(#p9724d19fa3)" style="fill: #b8de29"/>
    <path d="M 225.72 168.48 
L 234.036 168.48 
L 234.036 156.6 
L 225.72 156.6 
L 225.72 168.48 
" clip-path="url(#p9724d19fa3)" style="fill: #89d548"/>
    <path d="M 225.72 156.6 
L 234.036 156.6 
L 234.036 144.72 
L 225.72 144.72 
L 225.72 156.6 
" clip-path="url(#p9724d19fa3)" style="fill: #5cc863"/>
    <path d="M 225.72 144.72 
L 234.036 144.72 
L 234.036 132.84 
L 225.72 132.84 
L 225.72 144.72 
" clip-path="url(#p9724d19fa3)" style="fill: #3aba76"/>
    <path d="M 225.72 132.84 
L 234.036 132.84 
L 234.036 120.96 
L 225.72 120.96 
L 225.72 132.84 
" clip-path="url(#p9724d19fa3)" style="fill: #24aa83"/>
    <path d="M 225.72 120.96 
L 234.036 120.96 
L 234.036 109.08 
L 225.72 109.08 
L 225.72 120.96 
" clip-path="url(#p9724d19fa3)" style="fill: #1f998a"/>
    <path d="M 225.72 109.08 
L 234.036 109.08 
L 234.036 97.2 
L 225.72 97.2 
L 225.72 109.08 
" clip-path="url(#p9724d19fa3)" style="fill: #24878e"/>
    <path d="M 225.72 97.2 
L 234.036 97.2 
L 234.036 85.32 
L 225.72 85.32 
L 225.72 97.2 
" clip-path="url(#p9724d19fa3)" style="fill: #2a768e"/>
    <path d="M 225.72 85.32 
L 234.036 85.32 
L 234.036 73.44 
L 225.72 73.44 
L 225.72 85.32 
" clip-path="url(#p9724d19fa3)" style="fill: #32658e"/>
    <path d="M 225.72 73.44 
L 234.036 73.44 
L 234.036 61.56 
L 225.72 61.56 
L 225.72 73.44 
" clip-path="url(#p9724d19fa3)" style="fill: #3b528b"/>
    <path d="M 225.72 61.56 
L 234.036 61.56 
L 234.036 49.68 
L 225.72 49.68 
L 225.72 61.56 
" clip-path="url(#p9724d19fa3)" style="fill: #433d84"/>
    <path d="M 225.72 49.68 
L 234.036 49.68 
L 234.036 37.8 
L 225.72 37.8 
L 225.72 49.68 
" clip-path="url(#p9724d19fa3)" style="fill: #482677"/>
    <path d="M 225.72 37.8 
L 234.036 37.8 
L 234.036 25.92 
L 225.72 25.92 
L 225.72 37.8 
" clip-path="url(#p9724d19fa3)" style="fill: #470e61"/>
   </g>
   <g id="matplotlib.axis_3"/>
   <g id="matplotlib.axis_4">
    <g id="ytick_6">
     <g id="line2d_10">
      <defs>
       <path id="md6d66d418a" d="M 0 0 
L 3.5 0 
" style="stroke: #000000; stroke-width: 0.8"/>
      </defs>
      <g>
       <use xlink:href="#md6d66d418a" x="234.036" y="192.24" style="stroke: #000000; stroke-width: 0.8"/>
      </g>
     </g>
     <g id="text_15">
      <!-- $\mathdefault{0.0}$ -->
      <g transform="translate(241.036 196.039219) scale(0.1 -0.1)">
       <use xlink:href="#DejaVuSans-30" transform="translate(0 0.78125)"/>
       <use xlink:href="#DejaVuSans-2e" transform="translate(63.623047 0.78125)"/>
       <use xlink:href="#DejaVuSans-30" transform="translate(95.410156 0.78125)"/>
      </g>
     </g>
    </g>
    <g id="ytick_7">
     <g id="line2d_11">
      <g>
       <use xlink:href="#md6d66d418a" x="234.036" y="168.48" style="stroke: #000000; stroke-width: 0.8"/>
      </g>
     </g>
     <g id="text_16">
      <!-- $\mathdefault{0.3}$ -->
      <g transform="translate(241.036 172.279219) scale(0.1 -0.1)">
       <use xlink:href="#DejaVuSans-30" transform="translate(0 0.78125)"/>
       <use xlink:href="#DejaVuSans-2e" transform="translate(63.623047 0.78125)"/>
       <use xlink:href="#DejaVuSans-33" transform="translate(95.410156 0.78125)"/>
      </g>
     </g>
    </g>
    <g id="ytick_8">
     <g id="line2d_12">
      <g>
       <use xlink:href="#md6d66d418a" x="234.036" y="144.72" style="stroke: #000000; stroke-width: 0.8"/>
      </g>
     </g>
     <g id="text_17">
      <!-- $\mathdefault{0.6}$ -->
      <g transform="translate(241.036 148.519219) scale(0.1 -0.1)">
       <use xlink:href="#DejaVuSans-30" transform="translate(0 0.78125)"/>
       <use xlink:href="#DejaVuSans-2e" transform="translate(63.623047 0.78125)"/>
       <use xlink:href="#DejaVuSans-36" transform="translate(95.410156 0.78125)"/>
      </g>
     </g>
    </g>
    <g id="ytick_9">
     <g id="line2d_13">
      <g>
       <use xlink:href="#md6d66d418a" x="234.036" y="120.96" style="stroke: #000000; stroke-width: 0.8"/>
      </g>
     </g>
     <g id="text_18">
      <!-- $\mathdefault{0.9}$ -->
      <g transform="translate(241.036 124.759219) scale(0.1 -0.1)">
       <use xlink:href="#DejaVuSans-30" transform="translate(0 0.78125)"/>
       <use xlink:href="#DejaVuSans-2e" transform="translate(63.623047 0.78125)"/>
       <use xlink:href="#DejaVuSans-39" transform="translate(95.410156 0.78125)"/>
      </g>
     </g>
    </g>
    <g id="ytick_10">
     <g id="line2d_14">
      <g>
       <use xlink:href="#md6d66d418a" x="234.036" y="97.2" style="stroke: #000000; stroke-width: 0.8"/>
      </g>
     </g>
     <g id="text_19">
      <!-- $\mathdefault{1.2}$ -->
      <g transform="translate(241.036 100.999219) scale(0.1 -0.1)">
       <use xlink:href="#DejaVuSans-31" transform="translate(0 0.78125)"/>
       <use xlink:href="#DejaVuSans-2e" transform="translate(63.623047 0.78125)"/>
       <use xlink:href="#DejaVuSans-32" transform="translate(89.910156 0.78125)"/>
      </g>
     </g>
    </g>
    <g id="ytick_11">
     <g id="line2d_15">
      <g>
       <use xlink:href="#md6d66d418a" x="234.036" y="73.44" style="stroke: #000000; stroke-width: 0.8"/>
      </g>
     </g>
     <g id="text_20">
      <!-- $\mathdefault{1.5}$ -->
      <g transform="translate(241.036 77.239219) scale(0.1 -0.1)">
       <use xlink:href="#DejaVuSans-31" transform="translate(0 0.09375)"/>
       <use xlink:href="#DejaVuSans-2e" transform="translate(63.623047 0.09375)"/>
       <use xlink:href="#DejaVuSans-35" transform="translate(95.410156 0.09375)"/>
      </g>
     </g>
    </g>
    <g id="ytick_12">
     <g id="line2d_16">
      <g>
       <use xlink:href="#md6d66d418a" x="234.036" y="49.68" style="stroke: #000000; stroke-width: 0.8"/>
      </g>
     </g>
     <g id="text_21">
      <!-- $\mathdefault{1.8}$ -->
      <g transform="translate(241.036 53.479219) scale(0.1 -0.1)">
       <use xlink:href="#DejaVuSans-31" transform="translate(0 0.78125)"/>
       <use xlink:href="#DejaVuSans-2e" transform="translate(63.623047 0.78125)"/>
       <use xlink:href="#DejaVuSans-38" transform="translate(92.785156 0.78125)"/>
      </g>
     </g>
    </g>
    <g id="ytick_13">
     <g id="line2d_17">
      <g>
       <use xlink:href="#md6d66d418a" x="234.036" y="25.92" style="stroke: #000000; stroke-width: 0.8"/>
      </g>
     </g>
     <g id="text_22">
      <!-- $\mathdefault{2.1}$ -->
      <g transform="translate(241.036 29.719219) scale(0.1 -0.1)">
       <use xlink:href="#DejaVuSans-32" transform="translate(0 0.78125)"/>
       <use xlink:href="#DejaVuSans-2e" transform="translate(63.623047 0.78125)"/>
       <use xlink:href="#DejaVuSans-31" transform="translate(95.410156 0.78125)"/>
      </g>
     </g>
    </g>
    <g id="text_23">
     <!-- $\Delta$ log likelihood -->
     <g transform="translate(270.156 154.98) rotate(-90) scale(0.12 -0.12)">
      <defs>
       <path id="DejaVuSans-394" d="M 2188 4044 
L 906 525 
L 3472 525 
L 2188 4044 
z
M 50 0 
L 1831 4666 
L 2547 4666 
L 4325 0 
L 50 0 
z
" transform="scale(0.015625)"/>
       <path id="DejaVuSans-67" d="M 2906 1791 
Q 2906 2416 2648 2759 
Q 2391 3103 1925 3103 
Q 1463 3103 1205 2759 
Q 947 2416 947 1791 
Q 947 1169 1205 825 
Q 1463 481 1925 481 
Q 2391 481 2648 825 
Q 2906 1169 2906 1791 
z
M 3481 434 
Q 3481 -459 3084 -895 
Q 2688 -1331 1869 -1331 
Q 1566 -1331 1297 -1286 
Q 1028 -1241 775 -1147 
L 775 -588 
Q 1028 -725 1275 -790 
Q 1522 -856 1778 -856 
Q 2344 -856 2625 -561 
Q 2906 -266 2906 331 
L 2906 616 
Q 2728 306 2450 153 
Q 2172 0 1784 0 
Q 1141 0 747 490 
Q 353 981 353 1791 
Q 353 2603 747 3093 
Q 1141 3584 1784 3584 
Q 2172 3584 2450 3431 
Q 2728 3278 2906 2969 
L 2906 3500 
L 3481 3500 
L 3481 434 
z
" transform="scale(0.015625)"/>
       <path id="DejaVuSans-6b" d="M 581 4863 
L 1159 4863 
L 1159 1991 
L 2875 3500 
L 3609 3500 
L 1753 1863 
L 3688 0 
L 2938 0 
L 1159 1709 
L 1159 0 
L 581 0 
L 581 4863 
z
" transform="scale(0.015625)"/>
       <path id="DejaVuSans-68" d="M 3513 2113 
L 3513 0 
L 2938 0 
L 2938 2094 
Q 2938 2591 2744 2837 
Q 2550 3084 2163 3084 
Q 1697 3084 1428 2787 
Q 1159 2491 1159 1978 
L 1159 0 
L 581 0 
L 581 4863 
L 1159 4863 
L 1159 2956 
Q 1366 3272 1645 3428 
Q 1925 3584 2291 3584 
Q 2894 3584 3203 3211 
Q 3513 2838 3513 2113 
z
" transform="scale(0.015625)"/>
      </defs>
      <use xlink:href="#DejaVuSans-394" transform="translate(0 0.015625)"/>
      <use xlink:href="#DejaVuSans-20" transform="translate(68.408203 0.015625)"/>
      <use xlink:href="#DejaVuSans-6c" transform="translate(100.195312 0.015625)"/>
      <use xlink:href="#DejaVuSans-6f" transform="translate(127.978516 0.015625)"/>
      <use xlink:href="#DejaVuSans-67" transform="translate(189.160156 0.015625)"/>
      <use xlink:href="#DejaVuSans-20" transform="translate(252.636719 0.015625)"/>
      <use xlink:href="#DejaVuSans-6c" transform="translate(284.423828 0.015625)"/>
      <use xlink:href="#DejaVuSans-69" transform="translate(312.207031 0.015625)"/>
      <use xlink:href="#DejaVuSans-6b" transform="translate(339.990234 0.015625)"/>
      <use xlink:href="#DejaVuSans-65" transform="translate(397.900391 0.015625)"/>
      <use xlink:href="#DejaVuSans-6c" transform="translate(459.423828 0.015625)"/>
      <use xlink:href="#DejaVuSans-69" transform="translate(487.207031 0.015625)"/>
      <use xlink:href="#DejaVuSans-68" transform="translate(514.990234 0.015625)"/>
      <use xlink:href="#DejaVuSans-6f" transform="translate(578.369141 0.015625)"/>
      <use xlink:href="#DejaVuSans-6f" transform="translate(639.550781 0.015625)"/>
      <use xlink:href="#DejaVuSans-64" transform="translate(700.732422 0.015625)"/>
     </g>
    </g>
    <g id="text_24">
     <!-- $\times\mathdefault{10^{1}}\mathdefault{}$ -->
     <g transform="translate(202.236 22.92) scale(0.1 -0.1)">
      <defs>
       <path id="DejaVuSans-d7" d="M 4488 3438 
L 3059 2003 
L 4488 575 
L 4116 197 
L 2681 1631 
L 1247 197 
L 878 575 
L 2303 2003 
L 878 3438 
L 1247 3816 
L 2681 2381 
L 4116 3816 
L 4488 3438 
z
" transform="scale(0.015625)"/>
      </defs>
      <use xlink:href="#DejaVuSans-d7" transform="translate(0 0.684375)"/>
      <use xlink:href="#DejaVuSans-31" transform="translate(83.789062 0.684375)"/>
      <use xlink:href="#DejaVuSans-30" transform="translate(147.412109 0.684375)"/>
      <use xlink:href="#DejaVuSans-2212" transform="translate(211.992188 38.965625) scale(0.7)"/>
      <use xlink:href="#DejaVuSans-31" transform="translate(270.644531 38.965625) scale(0.7)"/>
     </g>
    </g>
   </g>
   <g id="LineCollection_1"/>
   <g id="patch_8">
    <path d="M 225.72 192.24 
L 229.878 192.24 
L 234.036 192.24 
L 234.036 25.92 
L 229.878 25.92 
L 225.72 25.92 
L 225.72 192.24 
z
" style="fill: none; stroke: #000000; stroke-width: 0.8; stroke-linejoin: miter; stroke-linecap: square"/>
   </g>
  </g>
 </g>
 <defs>
  <clipPath id="p3fa1af817f">
   <rect x="36" y="25.92" width="178.56" height="166.32"/>
  </clipPath>
  <clipPath id="p9724d19fa3">
   <rect x="225.72" y="25.92" width="8.316" height="166.32"/>
  </clipPath>
 </defs>
</svg>
