<?xml version="1.0" encoding="utf-8" standalone="no"?>
<!DOCTYPE svg PUBLIC "-//W3C//DTD SVG 1.1//EN"
  "http://www.w3.org/Graphics/SVG/1.1/DTD/svg11.dtd">
<svg xmlns:xlink="http://www.w3.org/1999/xlink" width="288pt" height="216pt" viewBox="0 0 288 216" xmlns="http://www.w3.org/2000/svg" version="1.1">
 <metadata>
  <rdf:RDF xmlns:dc="http://purl.org/dc/elements/1.1/" xmlns:cc="http://creativecommons.org/ns#" xmlns:rdf="http://www.w3.org/1999/02/22-rdf-syntax-ns#">
   <cc:Work>
    <dc:type rdf:resource="http://purl.org/dc/dcmitype/StillImage"/>
    <dc:date>2023-07-18T18:01:14.257300</dc:date>
    <dc:format>image/svg+xml</dc:format>
    <dc:creator>
     <cc:Agent>
      <dc:title>Matplotlib v3.7.1, https://matplotlib.org/</dc:title>
     </cc:Agent>
    </dc:creator>
   </cc:Work>
  </rdf:RDF>
 </metadata>
 <defs>
  <style type="text/css">*{stroke-linejoin: round; stroke-linecap: butt}</style>
 </defs>
 <g id="figure_1">
  <g id="patch_1">
   <path d="M 0 216 
L 288 216 
L 288 0 
L 0 0 
z
" style="fill: #ffffff"/>
  </g>
  <g id="axes_1">
   <g id="patch_2">
    <path d="M 36 192.24 
L 214.56 192.24 
L 214.56 25.92 
L 36 25.92 
z
" style="fill: #ffffff"/>
   </g>
   <g id="PathCollection_1">
    <path d="M 41.952 191.646263 
L 47.904 191.646263 
L 53.856 191.646263 
L 59.808 191.646263 
L 65.76 191.646263 
L 71.712 191.646263 
L 77.664 191.646263 
L 83.616 191.646263 
L 89.568 191.646263 
L 95.52 191.646263 
L 101.472 191.646263 
L 107.424 191.646263 
L 113.376 191.646263 
L 119.328 191.646263 
L 125.28 191.646263 
L 131.232 191.646263 
L 137.184 191.646263 
L 143.136 191.646263 
L 149.088 191.646263 
L 155.04 191.646263 
L 160.992 191.646263 
L 166.944 191.646263 
L 172.896 191.646263 
L 178.848 191.646263 
L 184.8 191.646263 
L 190.752 191.646263 
L 196.704 191.646263 
L 202.656 191.646263 
L 208.608 191.646263 
L 214.56 191.646263 
L 214.56 192.24 
L 208.608 192.24 
L 202.656 192.24 
L 196.704 192.24 
L 190.752 192.24 
L 184.8 192.24 
L 178.848 192.24 
L 172.896 192.24 
L 166.944 192.24 
L 160.992 192.24 
L 155.04 192.24 
L 149.088 192.24 
L 143.136 192.24 
L 137.184 192.24 
L 131.232 192.24 
L 125.28 192.24 
L 119.328 192.24 
L 113.376 192.24 
L 107.424 192.24 
L 101.472 192.24 
L 95.52 192.24 
L 89.568 192.24 
L 83.616 192.24 
L 77.664 192.24 
L 71.712 192.24 
L 65.76 192.24 
L 59.808 192.24 
L 53.856 192.24 
L 47.904 192.24 
L 41.952 192.24 
L 36 192.24 
L 36 191.646263 
z
" clip-path="url(#p08af17e351)" style="fill: #440154"/>
   </g>
   <g id="PathCollection_2">
    <path d="M 41.952 190.248274 
L 47.904 190.248274 
L 53.856 190.248274 
L 59.808 190.248274 
L 65.76 190.248274 
L 71.712 190.248274 
L 77.664 190.248274 
L 83.616 190.248274 
L 89.568 190.248274 
L 95.52 190.248274 
L 101.472 190.248274 
L 107.424 190.248274 
L 113.376 190.248274 
L 119.328 190.248274 
L 125.28 190.248274 
L 131.232 190.248274 
L 137.184 190.248274 
L 143.136 190.248274 
L 149.088 190.248274 
L 155.04 190.248274 
L 160.992 190.248274 
L 166.944 190.248274 
L 172.896 190.248274 
L 178.848 190.248274 
L 184.8 190.248274 
L 190.752 190.248274 
L 196.704 190.248274 
L 202.656 190.248274 
L 208.608 190.248274 
L 214.56 190.248274 
L 214.56 191.646263 
L 208.608 191.646263 
L 202.656 191.646263 
L 196.704 191.646263 
L 190.752 191.646263 
L 184.8 191.646263 
L 178.848 191.646263 
L 172.896 191.646263 
L 166.944 191.646263 
L 160.992 191.646263 
L 155.04 191.646263 
L 149.088 191.646263 
L 143.136 191.646263 
L 137.184 191.646263 
L 131.232 191.646263 
L 125.28 191.646263 
L 119.328 191.646263 
L 113.376 191.646263 
L 107.424 191.646263 
L 101.472 191.646263 
L 95.52 191.646263 
L 89.568 191.646263 
L 83.616 191.646263 
L 77.664 191.646263 
L 71.712 191.646263 
L 65.76 191.646263 
L 59.808 191.646263 
L 53.856 191.646263 
L 47.904 191.646263 
L 41.952 191.646263 
L 36 191.646263 
L 36 190.248274 
z
" clip-path="url(#p08af17e351)" style="fill: #440154"/>
   </g>
   <g id="PathCollection_3">
    <path d="M 41.952 188.850285 
L 47.904 188.850285 
L 53.856 188.850285 
L 59.808 188.850285 
L 65.76 188.850285 
L 71.712 188.850285 
L 77.664 188.850285 
L 83.616 188.850285 
L 89.568 188.850285 
L 95.52 188.850285 
L 101.472 188.850285 
L 107.424 188.850285 
L 113.376 188.850285 
L 119.328 188.850285 
L 125.28 188.850285 
L 131.232 188.850285 
L 137.184 188.850285 
L 143.136 188.850285 
L 149.088 188.850285 
L 155.04 188.850285 
L 160.992 188.850285 
L 166.944 188.850285 
L 172.896 188.850285 
L 178.848 188.850285 
L 184.8 188.850285 
L 190.752 188.850285 
L 196.704 188.850285 
L 202.656 188.850285 
L 208.608 188.850285 
L 214.56 188.850285 
L 214.56 190.248274 
L 208.608 190.248274 
L 202.656 190.248274 
L 196.704 190.248274 
L 190.752 190.248274 
L 184.8 190.248274 
L 178.848 190.248274 
L 172.896 190.248274 
L 166.944 190.248274 
L 160.992 190.248274 
L 155.04 190.248274 
L 149.088 190.248274 
L 143.136 190.248274 
L 137.184 190.248274 
L 131.232 190.248274 
L 125.28 190.248274 
L 119.328 190.248274 
L 113.376 190.248274 
L 107.424 190.248274 
L 101.472 190.248274 
L 95.52 190.248274 
L 89.568 190.248274 
L 83.616 190.248274 
L 77.664 190.248274 
L 71.712 190.248274 
L 65.76 190.248274 
L 59.808 190.248274 
L 53.856 190.248274 
L 47.904 190.248274 
L 41.952 190.248274 
L 36 190.248274 
L 36 188.850285 
z
" clip-path="url(#p08af17e351)" style="fill: #440154"/>
   </g>
   <g id="PathCollection_4">
    <path d="M 41.952 187.452296 
L 47.904 187.452296 
L 53.856 187.452296 
L 59.808 187.452296 
L 65.76 187.452296 
L 71.712 187.452296 
L 77.664 187.452296 
L 83.616 187.452296 
L 89.568 187.452296 
L 95.52 187.452296 
L 101.472 187.452296 
L 107.424 187.452296 
L 113.376 187.452296 
L 119.328 187.452296 
L 125.28 187.452296 
L 131.232 187.452296 
L 137.184 187.452296 
L 143.136 187.452296 
L 149.088 187.452296 
L 155.04 187.452296 
L 160.992 187.452296 
L 166.944 187.452296 
L 172.896 187.452296 
L 178.848 187.452296 
L 184.8 187.452296 
L 190.752 187.452296 
L 196.704 187.452296 
L 202.656 187.452296 
L 208.608 187.452296 
L 214.56 187.452296 
L 214.56 188.850285 
L 208.608 188.850285 
L 202.656 188.850285 
L 196.704 188.850285 
L 190.752 188.850285 
L 184.8 188.850285 
L 178.848 188.850285 
L 172.896 188.850285 
L 166.944 188.850285 
L 160.992 188.850285 
L 155.04 188.850285 
L 149.088 188.850285 
L 143.136 188.850285 
L 137.184 188.850285 
L 131.232 188.850285 
L 125.28 188.850285 
L 119.328 188.850285 
L 113.376 188.850285 
L 107.424 188.850285 
L 101.472 188.850285 
L 95.52 188.850285 
L 89.568 188.850285 
L 83.616 188.850285 
L 77.664 188.850285 
L 71.712 188.850285 
L 65.76 188.850285 
L 59.808 188.850285 
L 53.856 188.850285 
L 47.904 188.850285 
L 41.952 188.850285 
L 36 188.850285 
L 36 187.452296 
z
" clip-path="url(#p08af17e351)" style="fill: #440154"/>
   </g>
   <g id="PathCollection_5">
    <path d="M 36 186.696 
L 36 185.962251 
L 41.952 185.962251 
L 47.904 185.962251 
L 53.856 185.962251 
L 59.808 185.962251 
L 65.76 185.962251 
L 71.712 185.962251 
L 77.664 185.962251 
L 83.616 185.962251 
L 89.568 185.962251 
L 95.52 185.962251 
L 101.472 185.962251 
L 107.424 185.962251 
L 113.376 185.962251 
L 119.328 185.962251 
L 125.28 185.962251 
L 131.232 185.962251 
L 137.184 185.962251 
L 143.136 185.962251 
L 149.088 185.962251 
L 155.04 185.962251 
L 160.992 185.962251 
L 166.944 185.962251 
L 172.896 185.962251 
L 178.848 185.962251 
L 184.8 185.962251 
L 190.752 185.962251 
L 196.704 185.962251 
L 202.656 185.962251 
L 208.608 185.962251 
L 214.56 185.962251 
L 214.56 186.696 
L 214.56 187.452296 
L 208.608 187.452296 
L 202.656 187.452296 
L 196.704 187.452296 
L 190.752 187.452296 
L 184.8 187.452296 
L 178.848 187.452296 
L 172.896 187.452296 
L 166.944 187.452296 
L 160.992 187.452296 
L 155.04 187.452296 
L 149.088 187.452296 
L 143.136 187.452296 
L 137.184 187.452296 
L 131.232 187.452296 
L 125.28 187.452296 
L 119.328 187.452296 
L 113.376 187.452296 
L 107.424 187.452296 
L 101.472 187.452296 
L 95.52 187.452296 
L 89.568 187.452296 
L 83.616 187.452296 
L 77.664 187.452296 
L 71.712 187.452296 
L 65.76 187.452296 
L 59.808 187.452296 
L 53.856 187.452296 
L 47.904 187.452296 
L 41.952 187.452296 
L 36 187.452296 
z
" clip-path="url(#p08af17e351)" style="fill: #440154"/>
   </g>
   <g id="PathCollection_6">
    <path d="M 41.952 184.36371 
L 47.904 184.36371 
L 53.856 184.36371 
L 59.808 184.36371 
L 65.76 184.36371 
L 71.712 184.36371 
L 77.664 184.36371 
L 83.616 184.36371 
L 89.568 184.36371 
L 95.52 184.36371 
L 101.472 184.36371 
L 107.424 184.36371 
L 113.376 184.36371 
L 119.328 184.36371 
L 125.28 184.36371 
L 131.232 184.36371 
L 137.184 184.36371 
L 143.136 184.36371 
L 149.088 184.36371 
L 155.04 184.36371 
L 160.992 184.36371 
L 166.944 184.36371 
L 172.896 184.36371 
L 178.848 184.36371 
L 184.8 184.36371 
L 190.752 184.36371 
L 196.704 184.36371 
L 202.656 184.36371 
L 208.608 184.36371 
L 214.56 184.36371 
L 214.56 185.962251 
L 208.608 185.962251 
L 202.656 185.962251 
L 196.704 185.962251 
L 190.752 185.962251 
L 184.8 185.962251 
L 178.848 185.962251 
L 172.896 185.962251 
L 166.944 185.962251 
L 160.992 185.962251 
L 155.04 185.962251 
L 149.088 185.962251 
L 143.136 185.962251 
L 137.184 185.962251 
L 131.232 185.962251 
L 125.28 185.962251 
L 119.328 185.962251 
L 113.376 185.962251 
L 107.424 185.962251 
L 101.472 185.962251 
L 95.52 185.962251 
L 89.568 185.962251 
L 83.616 185.962251 
L 77.664 185.962251 
L 71.712 185.962251 
L 65.76 185.962251 
L 59.808 185.962251 
L 53.856 185.962251 
L 47.904 185.962251 
L 41.952 185.962251 
L 36 185.962251 
L 36 184.36371 
z
" clip-path="url(#p08af17e351)" style="fill: #440154"/>
   </g>
   <g id="PathCollection_7">
    <path d="M 41.952 182.765168 
L 47.904 182.765168 
L 53.856 182.765168 
L 59.808 182.765168 
L 65.76 182.765168 
L 71.712 182.765168 
L 77.664 182.765168 
L 83.616 182.765168 
L 89.568 182.765168 
L 95.52 182.765168 
L 101.472 182.765168 
L 107.424 182.765168 
L 113.376 182.765168 
L 119.328 182.765168 
L 125.28 182.765168 
L 131.232 182.765168 
L 137.184 182.765168 
L 143.136 182.765168 
L 149.088 182.765168 
L 155.04 182.765168 
L 160.992 182.765168 
L 166.944 182.765168 
L 172.896 182.765168 
L 178.848 182.765168 
L 184.8 182.765168 
L 190.752 182.765168 
L 196.704 182.765168 
L 202.656 182.765168 
L 208.608 182.765168 
L 214.56 182.765168 
L 214.56 184.36371 
L 208.608 184.36371 
L 202.656 184.36371 
L 196.704 184.36371 
L 190.752 184.36371 
L 184.8 184.36371 
L 178.848 184.36371 
L 172.896 184.36371 
L 166.944 184.36371 
L 160.992 184.36371 
L 155.04 184.36371 
L 149.088 184.36371 
L 143.136 184.36371 
L 137.184 184.36371 
L 131.232 184.36371 
L 125.28 184.36371 
L 119.328 184.36371 
L 113.376 184.36371 
L 107.424 184.36371 
L 101.472 184.36371 
L 95.52 184.36371 
L 89.568 184.36371 
L 83.616 184.36371 
L 77.664 184.36371 
L 71.712 184.36371 
L 65.76 184.36371 
L 59.808 184.36371 
L 53.856 184.36371 
L 47.904 184.36371 
L 41.952 184.36371 
L 36 184.36371 
L 36 182.765168 
z
" clip-path="url(#p08af17e351)" style="fill: #440154"/>
   </g>
   <g id="PathCollection_8">
    <path d="M 41.952 181.166627 
L 47.904 181.166627 
L 53.856 181.166627 
L 59.808 181.166627 
L 65.76 181.166627 
L 71.712 181.166627 
L 77.664 181.166627 
L 83.616 181.166627 
L 89.568 181.166627 
L 95.52 181.166627 
L 101.472 181.166627 
L 107.424 181.166627 
L 113.376 181.166627 
L 119.328 181.166627 
L 125.28 181.166627 
L 131.232 181.166627 
L 137.184 181.166627 
L 143.136 181.166627 
L 149.088 181.166627 
L 155.04 181.166627 
L 160.992 181.166627 
L 166.944 181.166627 
L 172.896 181.166627 
L 178.848 181.166627 
L 184.8 181.166627 
L 190.752 181.166627 
L 196.704 181.166627 
L 202.656 181.166627 
L 208.608 181.166627 
L 214.56 181.166627 
L 214.56 182.765168 
L 208.608 182.765168 
L 202.656 182.765168 
L 196.704 182.765168 
L 190.752 182.765168 
L 184.8 182.765168 
L 178.848 182.765168 
L 172.896 182.765168 
L 166.944 182.765168 
L 160.992 182.765168 
L 155.04 182.765168 
L 149.088 182.765168 
L 143.136 182.765168 
L 137.184 182.765168 
L 131.232 182.765168 
L 125.28 182.765168 
L 119.328 182.765168 
L 113.376 182.765168 
L 107.424 182.765168 
L 101.472 182.765168 
L 95.52 182.765168 
L 89.568 182.765168 
L 83.616 182.765168 
L 77.664 182.765168 
L 71.712 182.765168 
L 65.76 182.765168 
L 59.808 182.765168 
L 53.856 182.765168 
L 47.904 182.765168 
L 41.952 182.765168 
L 36 182.765168 
L 36 181.166627 
z
" clip-path="url(#p08af17e351)" style="fill: #440154"/>
   </g>
   <g id="PathCollection_9">
    <path d="M 36 181.152 
L 36 179.337564 
L 41.952 179.337564 
L 47.904 179.337564 
L 53.856 179.337564 
L 59.808 179.337564 
L 65.76 179.337564 
L 71.712 179.337564 
L 77.664 179.337564 
L 83.616 179.337564 
L 89.568 179.337564 
L 95.52 179.337564 
L 101.472 179.337564 
L 107.424 179.337564 
L 113.376 179.337564 
L 119.328 179.337564 
L 125.28 179.337564 
L 131.232 179.337564 
L 137.184 179.337564 
L 143.136 179.337564 
L 149.088 179.337564 
L 155.04 179.337564 
L 160.992 179.337564 
L 166.944 179.337564 
L 172.896 179.337564 
L 178.848 179.337564 
L 184.8 179.337564 
L 190.752 179.337564 
L 196.704 179.337564 
L 202.656 179.337564 
L 208.608 179.337564 
L 214.56 179.337564 
L 214.56 181.152 
L 214.56 181.166627 
L 208.608 181.166627 
L 202.656 181.166627 
L 196.704 181.166627 
L 190.752 181.166627 
L 184.8 181.166627 
L 178.848 181.166627 
L 172.896 181.166627 
L 166.944 181.166627 
L 160.992 181.166627 
L 155.04 181.166627 
L 149.088 181.166627 
L 143.136 181.166627 
L 137.184 181.166627 
L 131.232 181.166627 
L 125.28 181.166627 
L 119.328 181.166627 
L 113.376 181.166627 
L 107.424 181.166627 
L 101.472 181.166627 
L 95.52 181.166627 
L 89.568 181.166627 
L 83.616 181.166627 
L 77.664 181.166627 
L 71.712 181.166627 
L 65.76 181.166627 
L 59.808 181.166627 
L 53.856 181.166627 
L 47.904 181.166627 
L 41.952 181.166627 
L 36 181.166627 
z
" clip-path="url(#p08af17e351)" style="fill: #440154"/>
   </g>
   <g id="PathCollection_10">
    <path d="M 41.952 177.506373 
L 47.904 177.506373 
L 53.856 177.506373 
L 59.808 177.506373 
L 65.76 177.506373 
L 71.712 177.506373 
L 77.664 177.506373 
L 83.616 177.506373 
L 89.568 177.506373 
L 95.52 177.506373 
L 101.472 177.506373 
L 107.424 177.506373 
L 113.376 177.506373 
L 119.328 177.506373 
L 125.28 177.506373 
L 131.232 177.506373 
L 137.184 177.506373 
L 143.136 177.506373 
L 149.088 177.506373 
L 155.04 177.506373 
L 160.992 177.506373 
L 166.944 177.506373 
L 172.896 177.506373 
L 178.848 177.506373 
L 184.8 177.506373 
L 190.752 177.506373 
L 196.704 177.506373 
L 202.656 177.506373 
L 208.608 177.506373 
L 214.56 177.506373 
L 214.56 179.337564 
L 208.608 179.337564 
L 202.656 179.337564 
L 196.704 179.337564 
L 190.752 179.337564 
L 184.8 179.337564 
L 178.848 179.337564 
L 172.896 179.337564 
L 166.944 179.337564 
L 160.992 179.337564 
L 155.04 179.337564 
L 149.088 179.337564 
L 143.136 179.337564 
L 137.184 179.337564 
L 131.232 179.337564 
L 125.28 179.337564 
L 119.328 179.337564 
L 113.376 179.337564 
L 107.424 179.337564 
L 101.472 179.337564 
L 95.52 179.337564 
L 89.568 179.337564 
L 83.616 179.337564 
L 77.664 179.337564 
L 71.712 179.337564 
L 65.76 179.337564 
L 59.808 179.337564 
L 53.856 179.337564 
L 47.904 179.337564 
L 41.952 179.337564 
L 36 179.337564 
L 36 177.506373 
z
" clip-path="url(#p08af17e351)" style="fill: #440154"/>
   </g>
   <g id="PathCollection_11">
    <path d="M 41.952 175.675182 
L 47.904 175.675182 
L 53.856 175.675182 
L 59.808 175.675182 
L 65.76 175.675182 
L 71.712 175.675182 
L 77.664 175.675182 
L 83.616 175.675182 
L 89.568 175.675182 
L 95.52 175.675182 
L 101.472 175.675182 
L 107.424 175.675182 
L 113.376 175.675182 
L 119.328 175.675182 
L 125.28 175.675182 
L 131.232 175.675182 
L 137.184 175.675182 
L 143.136 175.675182 
L 149.088 175.675182 
L 155.04 175.675182 
L 160.992 175.675182 
L 166.944 175.675182 
L 172.896 175.675182 
L 178.848 175.675182 
L 184.8 175.675182 
L 190.752 175.675182 
L 196.704 175.675182 
L 202.656 175.675182 
L 208.608 175.675182 
L 214.56 175.675182 
L 214.56 177.506373 
L 208.608 177.506373 
L 202.656 177.506373 
L 196.704 177.506373 
L 190.752 177.506373 
L 184.8 177.506373 
L 178.848 177.506373 
L 172.896 177.506373 
L 166.944 177.506373 
L 160.992 177.506373 
L 155.04 177.506373 
L 149.088 177.506373 
L 143.136 177.506373 
L 137.184 177.506373 
L 131.232 177.506373 
L 125.28 177.506373 
L 119.328 177.506373 
L 113.376 177.506373 
L 107.424 177.506373 
L 101.472 177.506373 
L 95.52 177.506373 
L 89.568 177.506373 
L 83.616 177.506373 
L 77.664 177.506373 
L 71.712 177.506373 
L 65.76 177.506373 
L 59.808 177.506373 
L 53.856 177.506373 
L 47.904 177.506373 
L 41.952 177.506373 
L 36 177.506373 
L 36 175.675182 
z
" clip-path="url(#p08af17e351)" style="fill: #440154"/>
   </g>
   <g id="PathCollection_12">
    <path d="M 36 175.608 
L 36 173.580886 
L 41.952 173.580886 
L 47.904 173.580886 
L 53.856 173.580886 
L 59.808 173.580886 
L 65.76 173.580886 
L 71.712 173.580886 
L 77.664 173.580886 
L 83.616 173.580886 
L 89.568 173.580886 
L 95.52 173.580886 
L 101.472 173.580886 
L 107.424 173.580886 
L 113.376 173.580886 
L 119.328 173.580886 
L 125.28 173.580886 
L 131.232 173.580886 
L 137.184 173.580886 
L 143.136 173.580886 
L 149.088 173.580886 
L 155.04 173.580886 
L 160.992 173.580886 
L 166.944 173.580886 
L 172.896 173.580886 
L 178.848 173.580886 
L 184.8 173.580886 
L 190.752 173.580886 
L 196.704 173.580886 
L 202.656 173.580886 
L 208.608 173.580886 
L 214.56 173.580886 
L 214.56 175.608 
L 214.56 175.675182 
L 208.608 175.675182 
L 202.656 175.675182 
L 196.704 175.675182 
L 190.752 175.675182 
L 184.8 175.675182 
L 178.848 175.675182 
L 172.896 175.675182 
L 166.944 175.675182 
L 160.992 175.675182 
L 155.04 175.675182 
L 149.088 175.675182 
L 143.136 175.675182 
L 137.184 175.675182 
L 131.232 175.675182 
L 125.28 175.675182 
L 119.328 175.675182 
L 113.376 175.675182 
L 107.424 175.675182 
L 101.472 175.675182 
L 95.52 175.675182 
L 89.568 175.675182 
L 83.616 175.675182 
L 77.664 175.675182 
L 71.712 175.675182 
L 65.76 175.675182 
L 59.808 175.675182 
L 53.856 175.675182 
L 47.904 175.675182 
L 41.952 175.675182 
L 36 175.675182 
z
" clip-path="url(#p08af17e351)" style="fill: #440154"/>
   </g>
   <g id="PathCollection_13">
    <path d="M 41.952 171.476569 
L 47.904 171.476569 
L 53.856 171.476569 
L 59.808 171.476569 
L 65.76 171.476569 
L 71.712 171.476569 
L 77.664 171.476569 
L 83.616 171.476569 
L 89.568 171.476569 
L 95.52 171.476569 
L 101.472 171.476569 
L 107.424 171.476569 
L 113.376 171.476569 
L 119.328 171.476569 
L 125.28 171.476569 
L 131.232 171.476569 
L 137.184 171.476569 
L 143.136 171.476569 
L 149.088 171.476569 
L 155.04 171.476569 
L 160.992 171.476569 
L 166.944 171.476569 
L 172.896 171.476569 
L 178.848 171.476569 
L 184.8 171.476569 
L 190.752 171.476569 
L 196.704 171.476569 
L 202.656 171.476569 
L 208.608 171.476569 
L 214.56 171.476569 
L 214.56 173.580886 
L 208.608 173.580886 
L 202.656 173.580886 
L 196.704 173.580886 
L 190.752 173.580886 
L 184.8 173.580886 
L 178.848 173.580886 
L 172.896 173.580886 
L 166.944 173.580886 
L 160.992 173.580886 
L 155.04 173.580886 
L 149.088 173.580886 
L 143.136 173.580886 
L 137.184 173.580886 
L 131.232 173.580886 
L 125.28 173.580886 
L 119.328 173.580886 
L 113.376 173.580886 
L 107.424 173.580886 
L 101.472 173.580886 
L 95.52 173.580886 
L 89.568 173.580886 
L 83.616 173.580886 
L 77.664 173.580886 
L 71.712 173.580886 
L 65.76 173.580886 
L 59.808 173.580886 
L 53.856 173.580886 
L 47.904 173.580886 
L 41.952 173.580886 
L 36 173.580886 
L 36 171.476569 
z
" clip-path="url(#p08af17e351)" style="fill: #440154"/>
   </g>
   <g id="PathCollection_14">
    <path d="M 36 170.064 
L 36 169.26536 
L 41.952 169.26536 
L 47.904 169.26536 
L 53.856 169.26536 
L 59.808 169.26536 
L 65.76 169.26536 
L 71.712 169.26536 
L 77.664 169.26536 
L 83.616 169.26536 
L 89.568 169.26536 
L 95.52 169.26536 
L 101.472 169.26536 
L 107.424 169.26536 
L 113.376 169.26536 
L 119.328 169.26536 
L 125.28 169.26536 
L 131.232 169.26536 
L 137.184 169.26536 
L 143.136 169.26536 
L 149.088 169.26536 
L 155.04 169.26536 
L 160.992 169.26536 
L 166.944 169.26536 
L 172.896 169.26536 
L 178.848 169.26536 
L 184.8 169.26536 
L 190.752 169.26536 
L 196.704 169.26536 
L 202.656 169.26536 
L 208.608 169.26536 
L 214.56 169.26536 
L 214.56 170.064 
L 214.56 171.476569 
L 208.608 171.476569 
L 202.656 171.476569 
L 196.704 171.476569 
L 190.752 171.476569 
L 184.8 171.476569 
L 178.848 171.476569 
L 172.896 171.476569 
L 166.944 171.476569 
L 160.992 171.476569 
L 155.04 171.476569 
L 149.088 171.476569 
L 143.136 171.476569 
L 137.184 171.476569 
L 131.232 171.476569 
L 125.28 171.476569 
L 119.328 171.476569 
L 113.376 171.476569 
L 107.424 171.476569 
L 101.472 171.476569 
L 95.52 171.476569 
L 89.568 171.476569 
L 83.616 171.476569 
L 77.664 171.476569 
L 71.712 171.476569 
L 65.76 171.476569 
L 59.808 171.476569 
L 53.856 171.476569 
L 47.904 171.476569 
L 41.952 171.476569 
L 36 171.476569 
z
" clip-path="url(#p08af17e351)" style="fill: #471365"/>
    <path d="M 36 25.92 
L 41.952 25.92 
L 47.904 25.92 
L 53.856 25.92 
L 59.808 25.92 
L 65.76 25.92 
L 71.712 25.92 
L 77.664 25.92 
L 83.616 25.92 
L 89.568 25.92 
L 95.52 25.92 
L 101.472 25.92 
L 107.424 25.92 
L 113.376 25.92 
L 119.328 25.92 
L 125.28 25.92 
L 131.232 25.92 
L 137.184 25.92 
L 143.136 25.92 
L 149.088 25.92 
L 155.04 25.92 
L 160.992 25.92 
L 166.944 25.92 
L 172.896 25.92 
L 178.848 25.92 
L 184.8 25.92 
L 190.752 25.92 
L 196.704 25.92 
L 202.656 25.92 
L 208.608 25.92 
L 214.56 25.92 
L 214.56 29.620797 
L 208.608 29.620797 
L 202.656 29.620797 
L 196.704 29.620797 
L 190.752 29.620797 
L 184.8 29.620797 
L 178.848 29.620797 
L 172.896 29.620797 
L 166.944 29.620797 
L 160.992 29.620797 
L 155.04 29.620797 
L 149.088 29.620797 
L 143.136 29.620797 
L 137.184 29.620797 
L 131.232 29.620797 
L 125.28 29.620797 
L 119.328 29.620797 
L 113.376 29.620797 
L 107.424 29.620797 
L 101.472 29.620797 
L 95.52 29.620797 
L 89.568 29.620797 
L 83.616 29.620797 
L 77.664 29.620797 
L 71.712 29.620797 
L 65.76 29.620797 
L 59.808 29.620797 
L 53.856 29.620797 
L 47.904 29.620797 
L 41.952 29.620797 
L 36 29.620797 
z
" clip-path="url(#p08af17e351)" style="fill: #471365"/>
   </g>
   <g id="PathCollection_15">
    <path d="M 41.952 166.835874 
L 47.904 166.835874 
L 53.856 166.835874 
L 59.808 166.835874 
L 65.76 166.835874 
L 71.712 166.835874 
L 77.664 166.835874 
L 83.616 166.835874 
L 89.568 166.835874 
L 95.52 166.835874 
L 101.472 166.835874 
L 107.424 166.835874 
L 113.376 166.835874 
L 119.328 166.835874 
L 125.28 166.835874 
L 131.232 166.835874 
L 137.184 166.835874 
L 143.136 166.835874 
L 149.088 166.835874 
L 155.04 166.835874 
L 160.992 166.835874 
L 166.944 166.835874 
L 172.896 166.835874 
L 178.848 166.835874 
L 184.8 166.835874 
L 190.752 166.835874 
L 196.704 166.835874 
L 202.656 166.835874 
L 208.608 166.835874 
L 214.56 166.835874 
L 214.56 169.26536 
L 208.608 169.26536 
L 202.656 169.26536 
L 196.704 169.26536 
L 190.752 169.26536 
L 184.8 169.26536 
L 178.848 169.26536 
L 172.896 169.26536 
L 166.944 169.26536 
L 160.992 169.26536 
L 155.04 169.26536 
L 149.088 169.26536 
L 143.136 169.26536 
L 137.184 169.26536 
L 131.232 169.26536 
L 125.28 169.26536 
L 119.328 169.26536 
L 113.376 169.26536 
L 107.424 169.26536 
L 101.472 169.26536 
L 95.52 169.26536 
L 89.568 169.26536 
L 83.616 169.26536 
L 77.664 169.26536 
L 71.712 169.26536 
L 65.76 169.26536 
L 59.808 169.26536 
L 53.856 169.26536 
L 47.904 169.26536 
L 41.952 169.26536 
L 36 169.26536 
L 36 166.835874 
z
" clip-path="url(#p08af17e351)" style="fill: #472d7b"/>
    <path d="M 36 31.464 
L 36 29.620797 
L 41.952 29.620797 
L 47.904 29.620797 
L 53.856 29.620797 
L 59.808 29.620797 
L 65.76 29.620797 
L 71.712 29.620797 
L 77.664 29.620797 
L 83.616 29.620797 
L 89.568 29.620797 
L 95.52 29.620797 
L 101.472 29.620797 
L 107.424 29.620797 
L 113.376 29.620797 
L 119.328 29.620797 
L 125.28 29.620797 
L 131.232 29.620797 
L 137.184 29.620797 
L 143.136 29.620797 
L 149.088 29.620797 
L 155.04 29.620797 
L 160.992 29.620797 
L 166.944 29.620797 
L 172.896 29.620797 
L 178.848 29.620797 
L 184.8 29.620797 
L 190.752 29.620797 
L 196.704 29.620797 
L 202.656 29.620797 
L 208.608 29.620797 
L 214.56 29.620797 
L 214.56 31.464 
L 214.56 33.741534 
L 208.608 33.741534 
L 202.656 33.741534 
L 196.704 33.741534 
L 190.752 33.741534 
L 184.8 33.741534 
L 178.848 33.741534 
L 172.896 33.741534 
L 166.944 33.741534 
L 160.992 33.741534 
L 155.04 33.741534 
L 149.088 33.741534 
L 143.136 33.741534 
L 137.184 33.741534 
L 131.232 33.741534 
L 125.28 33.741534 
L 119.328 33.741534 
L 113.376 33.741534 
L 107.424 33.741534 
L 101.472 33.741534 
L 95.52 33.741534 
L 89.568 33.741534 
L 83.616 33.741534 
L 77.664 33.741534 
L 71.712 33.741534 
L 65.76 33.741534 
L 59.808 33.741534 
L 53.856 33.741534 
L 47.904 33.741534 
L 41.952 33.741534 
L 36 33.741534 
z
" clip-path="url(#p08af17e351)" style="fill: #472d7b"/>
   </g>
   <g id="PathCollection_16">
    <path d="M 36 164.52 
L 36 164.387977 
L 41.952 164.387977 
L 47.904 164.387977 
L 53.856 164.387977 
L 59.808 164.387977 
L 65.76 164.387977 
L 71.712 164.387977 
L 77.664 164.387977 
L 83.616 164.387977 
L 89.568 164.387977 
L 95.52 164.387977 
L 101.472 164.387977 
L 107.424 164.387977 
L 113.376 164.387977 
L 119.328 164.387977 
L 125.28 164.387977 
L 131.232 164.387977 
L 137.184 164.387977 
L 143.136 164.387977 
L 149.088 164.387977 
L 155.04 164.387977 
L 160.992 164.387977 
L 166.944 164.387977 
L 172.896 164.387977 
L 178.848 164.387977 
L 184.8 164.387977 
L 190.752 164.387977 
L 196.704 164.387977 
L 202.656 164.387977 
L 208.608 164.387977 
L 214.56 164.387977 
L 214.56 164.52 
L 214.56 166.835874 
L 208.608 166.835874 
L 202.656 166.835874 
L 196.704 166.835874 
L 190.752 166.835874 
L 184.8 166.835874 
L 178.848 166.835874 
L 172.896 166.835874 
L 166.944 166.835874 
L 160.992 166.835874 
L 155.04 166.835874 
L 149.088 166.835874 
L 143.136 166.835874 
L 137.184 166.835874 
L 131.232 166.835874 
L 125.28 166.835874 
L 119.328 166.835874 
L 113.376 166.835874 
L 107.424 166.835874 
L 101.472 166.835874 
L 95.52 166.835874 
L 89.568 166.835874 
L 83.616 166.835874 
L 77.664 166.835874 
L 71.712 166.835874 
L 65.76 166.835874 
L 59.808 166.835874 
L 53.856 166.835874 
L 47.904 166.835874 
L 41.952 166.835874 
L 36 166.835874 
z
" clip-path="url(#p08af17e351)" style="fill: #414487"/>
    <path d="M 36 37.008 
L 36 33.741534 
L 41.952 33.741534 
L 47.904 33.741534 
L 53.856 33.741534 
L 59.808 33.741534 
L 65.76 33.741534 
L 71.712 33.741534 
L 77.664 33.741534 
L 83.616 33.741534 
L 89.568 33.741534 
L 95.52 33.741534 
L 101.472 33.741534 
L 107.424 33.741534 
L 113.376 33.741534 
L 119.328 33.741534 
L 125.28 33.741534 
L 131.232 33.741534 
L 137.184 33.741534 
L 143.136 33.741534 
L 149.088 33.741534 
L 155.04 33.741534 
L 160.992 33.741534 
L 166.944 33.741534 
L 172.896 33.741534 
L 178.848 33.741534 
L 184.8 33.741534 
L 190.752 33.741534 
L 196.704 33.741534 
L 202.656 33.741534 
L 208.608 33.741534 
L 214.56 33.741534 
L 214.56 37.008 
L 214.56 38.006433 
L 208.608 38.006433 
L 202.656 38.006433 
L 196.704 38.006433 
L 190.752 38.006433 
L 184.8 38.006433 
L 178.848 38.006433 
L 172.896 38.006433 
L 166.944 38.006433 
L 160.992 38.006433 
L 155.04 38.006433 
L 149.088 38.006433 
L 143.136 38.006433 
L 137.184 38.006433 
L 131.232 38.006433 
L 125.28 38.006433 
L 119.328 38.006433 
L 113.376 38.006433 
L 107.424 38.006433 
L 101.472 38.006433 
L 95.52 38.006433 
L 89.568 38.006433 
L 83.616 38.006433 
L 77.664 38.006433 
L 71.712 38.006433 
L 65.76 38.006433 
L 59.808 38.006433 
L 53.856 38.006433 
L 47.904 38.006433 
L 41.952 38.006433 
L 36 38.006433 
z
" clip-path="url(#p08af17e351)" style="fill: #414487"/>
   </g>
   <g id="PathCollection_17">
    <path d="M 41.952 161.564829 
L 47.904 161.564829 
L 53.856 161.564829 
L 59.808 161.564829 
L 65.76 161.564829 
L 71.712 161.564829 
L 77.664 161.564829 
L 83.616 161.564829 
L 89.568 161.564829 
L 95.52 161.564829 
L 101.472 161.564829 
L 107.424 161.564829 
L 113.376 161.564829 
L 119.328 161.564829 
L 125.28 161.564829 
L 131.232 161.564829 
L 137.184 161.564829 
L 143.136 161.564829 
L 149.088 161.564829 
L 155.04 161.564829 
L 160.992 161.564829 
L 166.944 161.564829 
L 172.896 161.564829 
L 178.848 161.564829 
L 184.8 161.564829 
L 190.752 161.564829 
L 196.704 161.564829 
L 202.656 161.564829 
L 208.608 161.564829 
L 214.56 161.564829 
L 214.56 164.387977 
L 208.608 164.387977 
L 202.656 164.387977 
L 196.704 164.387977 
L 190.752 164.387977 
L 184.8 164.387977 
L 178.848 164.387977 
L 172.896 164.387977 
L 166.944 164.387977 
L 160.992 164.387977 
L 155.04 164.387977 
L 149.088 164.387977 
L 143.136 164.387977 
L 137.184 164.387977 
L 131.232 164.387977 
L 125.28 164.387977 
L 119.328 164.387977 
L 113.376 164.387977 
L 107.424 164.387977 
L 101.472 164.387977 
L 95.52 164.387977 
L 89.568 164.387977 
L 83.616 164.387977 
L 77.664 164.387977 
L 71.712 164.387977 
L 65.76 164.387977 
L 59.808 164.387977 
L 53.856 164.387977 
L 47.904 164.387977 
L 41.952 164.387977 
L 36 164.387977 
L 36 161.564829 
z
" clip-path="url(#p08af17e351)" style="fill: #375a8c"/>
    <path d="M 41.952 38.006433 
L 47.904 38.006433 
L 53.856 38.006433 
L 59.808 38.006433 
L 65.76 38.006433 
L 71.712 38.006433 
L 77.664 38.006433 
L 83.616 38.006433 
L 89.568 38.006433 
L 95.52 38.006433 
L 101.472 38.006433 
L 107.424 38.006433 
L 113.376 38.006433 
L 119.328 38.006433 
L 125.28 38.006433 
L 131.232 38.006433 
L 137.184 38.006433 
L 143.136 38.006433 
L 149.088 38.006433 
L 155.04 38.006433 
L 160.992 38.006433 
L 166.944 38.006433 
L 172.896 38.006433 
L 178.848 38.006433 
L 184.8 38.006433 
L 190.752 38.006433 
L 196.704 38.006433 
L 202.656 38.006433 
L 208.608 38.006433 
L 214.56 38.006433 
L 214.56 42.451435 
L 208.608 42.451435 
L 202.656 42.451435 
L 196.704 42.451435 
L 190.752 42.451435 
L 184.8 42.451435 
L 178.848 42.451435 
L 172.896 42.451435 
L 166.944 42.451435 
L 160.992 42.451435 
L 155.04 42.451435 
L 149.088 42.451435 
L 143.136 42.451435 
L 137.184 42.451435 
L 131.232 42.451435 
L 125.28 42.451435 
L 119.328 42.451435 
L 113.376 42.451435 
L 107.424 42.451435 
L 101.472 42.451435 
L 95.52 42.451435 
L 89.568 42.451435 
L 83.616 42.451435 
L 77.664 42.451435 
L 71.712 42.451435 
L 65.76 42.451435 
L 59.808 42.451435 
L 53.856 42.451435 
L 47.904 42.451435 
L 41.952 42.451435 
L 36 42.451435 
L 36 38.006433 
z
" clip-path="url(#p08af17e351)" style="fill: #375a8c"/>
   </g>
   <g id="PathCollection_18">
    <path d="M 36 158.976 
L 36 158.701316 
L 41.952 158.701316 
L 47.904 158.701316 
L 53.856 158.701316 
L 59.808 158.701316 
L 65.76 158.701316 
L 71.712 158.701316 
L 77.664 158.701316 
L 83.616 158.701316 
L 89.568 158.701316 
L 95.52 158.701316 
L 101.472 158.701316 
L 107.424 158.701316 
L 113.376 158.701316 
L 119.328 158.701316 
L 125.28 158.701316 
L 131.232 158.701316 
L 137.184 158.701316 
L 143.136 158.701316 
L 149.088 158.701316 
L 155.04 158.701316 
L 160.992 158.701316 
L 166.944 158.701316 
L 172.896 158.701316 
L 178.848 158.701316 
L 184.8 158.701316 
L 190.752 158.701316 
L 196.704 158.701316 
L 202.656 158.701316 
L 208.608 158.701316 
L 214.56 158.701316 
L 214.56 158.976 
L 214.56 161.564829 
L 208.608 161.564829 
L 202.656 161.564829 
L 196.704 161.564829 
L 190.752 161.564829 
L 184.8 161.564829 
L 178.848 161.564829 
L 172.896 161.564829 
L 166.944 161.564829 
L 160.992 161.564829 
L 155.04 161.564829 
L 149.088 161.564829 
L 143.136 161.564829 
L 137.184 161.564829 
L 131.232 161.564829 
L 125.28 161.564829 
L 119.328 161.564829 
L 113.376 161.564829 
L 107.424 161.564829 
L 101.472 161.564829 
L 95.52 161.564829 
L 89.568 161.564829 
L 83.616 161.564829 
L 77.664 161.564829 
L 71.712 161.564829 
L 65.76 161.564829 
L 59.808 161.564829 
L 53.856 161.564829 
L 47.904 161.564829 
L 41.952 161.564829 
L 36 161.564829 
z
" clip-path="url(#p08af17e351)" style="fill: #2e6d8e"/>
    <path d="M 36 42.552 
L 36 42.451435 
L 41.952 42.451435 
L 47.904 42.451435 
L 53.856 42.451435 
L 59.808 42.451435 
L 65.76 42.451435 
L 71.712 42.451435 
L 77.664 42.451435 
L 83.616 42.451435 
L 89.568 42.451435 
L 95.52 42.451435 
L 101.472 42.451435 
L 107.424 42.451435 
L 113.376 42.451435 
L 119.328 42.451435 
L 125.28 42.451435 
L 131.232 42.451435 
L 137.184 42.451435 
L 143.136 42.451435 
L 149.088 42.451435 
L 155.04 42.451435 
L 160.992 42.451435 
L 166.944 42.451435 
L 172.896 42.451435 
L 178.848 42.451435 
L 184.8 42.451435 
L 190.752 42.451435 
L 196.704 42.451435 
L 202.656 42.451435 
L 208.608 42.451435 
L 214.56 42.451435 
L 214.56 42.552 
L 214.56 47.162924 
L 208.608 47.162924 
L 202.656 47.162924 
L 196.704 47.162924 
L 190.752 47.162924 
L 184.8 47.162924 
L 178.848 47.162924 
L 172.896 47.162924 
L 166.944 47.162924 
L 160.992 47.162924 
L 155.04 47.162924 
L 149.088 47.162924 
L 143.136 47.162924 
L 137.184 47.162924 
L 131.232 47.162924 
L 125.28 47.162924 
L 119.328 47.162924 
L 113.376 47.162924 
L 107.424 47.162924 
L 101.472 47.162924 
L 95.52 47.162924 
L 89.568 47.162924 
L 83.616 47.162924 
L 77.664 47.162924 
L 71.712 47.162924 
L 65.76 47.162924 
L 59.808 47.162924 
L 53.856 47.162924 
L 47.904 47.162924 
L 41.952 47.162924 
L 36 47.162924 
z
" clip-path="url(#p08af17e351)" style="fill: #2e6d8e"/>
   </g>
   <g id="PathCollection_19">
    <path d="M 41.952 155.391829 
L 47.904 155.391829 
L 53.856 155.391829 
L 59.808 155.391829 
L 65.76 155.391829 
L 71.712 155.391829 
L 77.664 155.391829 
L 83.616 155.391829 
L 89.568 155.391829 
L 95.52 155.391829 
L 101.472 155.391829 
L 107.424 155.391829 
L 113.376 155.391829 
L 119.328 155.391829 
L 125.28 155.391829 
L 131.232 155.391829 
L 137.184 155.391829 
L 143.136 155.391829 
L 149.088 155.391829 
L 155.04 155.391829 
L 160.992 155.391829 
L 166.944 155.391829 
L 172.896 155.391829 
L 178.848 155.391829 
L 184.8 155.391829 
L 190.752 155.391829 
L 196.704 155.391829 
L 202.656 155.391829 
L 208.608 155.391829 
L 214.56 155.391829 
L 214.56 158.701316 
L 208.608 158.701316 
L 202.656 158.701316 
L 196.704 158.701316 
L 190.752 158.701316 
L 184.8 158.701316 
L 178.848 158.701316 
L 172.896 158.701316 
L 166.944 158.701316 
L 160.992 158.701316 
L 155.04 158.701316 
L 149.088 158.701316 
L 143.136 158.701316 
L 137.184 158.701316 
L 131.232 158.701316 
L 125.28 158.701316 
L 119.328 158.701316 
L 113.376 158.701316 
L 107.424 158.701316 
L 101.472 158.701316 
L 95.52 158.701316 
L 89.568 158.701316 
L 83.616 158.701316 
L 77.664 158.701316 
L 71.712 158.701316 
L 65.76 158.701316 
L 59.808 158.701316 
L 53.856 158.701316 
L 47.904 158.701316 
L 41.952 158.701316 
L 36 158.701316 
L 36 155.391829 
z
" clip-path="url(#p08af17e351)" style="fill: #27808e"/>
    <path d="M 36 48.096 
L 36 47.162924 
L 41.952 47.162924 
L 47.904 47.162924 
L 53.856 47.162924 
L 59.808 47.162924 
L 65.76 47.162924 
L 71.712 47.162924 
L 77.664 47.162924 
L 83.616 47.162924 
L 89.568 47.162924 
L 95.52 47.162924 
L 101.472 47.162924 
L 107.424 47.162924 
L 113.376 47.162924 
L 119.328 47.162924 
L 125.28 47.162924 
L 131.232 47.162924 
L 137.184 47.162924 
L 143.136 47.162924 
L 149.088 47.162924 
L 155.04 47.162924 
L 160.992 47.162924 
L 166.944 47.162924 
L 172.896 47.162924 
L 178.848 47.162924 
L 184.8 47.162924 
L 190.752 47.162924 
L 196.704 47.162924 
L 202.656 47.162924 
L 208.608 47.162924 
L 214.56 47.162924 
L 214.56 48.096 
L 214.56 52.140952 
L 208.608 52.140952 
L 202.656 52.140952 
L 196.704 52.140952 
L 190.752 52.140952 
L 184.8 52.140952 
L 178.848 52.140952 
L 172.896 52.140952 
L 166.944 52.140952 
L 160.992 52.140952 
L 155.04 52.140952 
L 149.088 52.140952 
L 143.136 52.140952 
L 137.184 52.140952 
L 131.232 52.140952 
L 125.28 52.140952 
L 119.328 52.140952 
L 113.376 52.140952 
L 107.424 52.140952 
L 101.472 52.140952 
L 95.52 52.140952 
L 89.568 52.140952 
L 83.616 52.140952 
L 77.664 52.140952 
L 71.712 52.140952 
L 65.76 52.140952 
L 59.808 52.140952 
L 53.856 52.140952 
L 47.904 52.140952 
L 41.952 52.140952 
L 36 52.140952 
z
" clip-path="url(#p08af17e351)" style="fill: #27808e"/>
   </g>
   <g id="PathCollection_20">
    <path d="M 36 153.432 
L 36 151.831081 
L 41.952 151.831081 
L 47.904 151.831081 
L 53.856 151.831081 
L 59.808 151.831081 
L 65.76 151.831081 
L 71.712 151.831081 
L 77.664 151.831081 
L 83.616 151.831081 
L 89.568 151.831081 
L 95.52 151.831081 
L 101.472 151.831081 
L 107.424 151.831081 
L 113.376 151.831081 
L 119.328 151.831081 
L 125.28 151.831081 
L 131.232 151.831081 
L 137.184 151.831081 
L 143.136 151.831081 
L 149.088 151.831081 
L 155.04 151.831081 
L 160.992 151.831081 
L 166.944 151.831081 
L 172.896 151.831081 
L 178.848 151.831081 
L 184.8 151.831081 
L 190.752 151.831081 
L 196.704 151.831081 
L 202.656 151.831081 
L 208.608 151.831081 
L 214.56 151.831081 
L 214.56 153.432 
L 214.56 155.391829 
L 208.608 155.391829 
L 202.656 155.391829 
L 196.704 155.391829 
L 190.752 155.391829 
L 184.8 155.391829 
L 178.848 155.391829 
L 172.896 155.391829 
L 166.944 155.391829 
L 160.992 155.391829 
L 155.04 155.391829 
L 149.088 155.391829 
L 143.136 155.391829 
L 137.184 155.391829 
L 131.232 155.391829 
L 125.28 155.391829 
L 119.328 155.391829 
L 113.376 155.391829 
L 107.424 155.391829 
L 101.472 155.391829 
L 95.52 155.391829 
L 89.568 155.391829 
L 83.616 155.391829 
L 77.664 155.391829 
L 71.712 155.391829 
L 65.76 155.391829 
L 59.808 155.391829 
L 53.856 155.391829 
L 47.904 155.391829 
L 41.952 155.391829 
L 36 155.391829 
z
" clip-path="url(#p08af17e351)" style="fill: #20928c"/>
    <path d="M 36 53.64 
L 36 52.140952 
L 41.952 52.140952 
L 47.904 52.140952 
L 53.856 52.140952 
L 59.808 52.140952 
L 65.76 52.140952 
L 71.712 52.140952 
L 77.664 52.140952 
L 83.616 52.140952 
L 89.568 52.140952 
L 95.52 52.140952 
L 101.472 52.140952 
L 107.424 52.140952 
L 113.376 52.140952 
L 119.328 52.140952 
L 125.28 52.140952 
L 131.232 52.140952 
L 137.184 52.140952 
L 143.136 52.140952 
L 149.088 52.140952 
L 155.04 52.140952 
L 160.992 52.140952 
L 166.944 52.140952 
L 172.896 52.140952 
L 178.848 52.140952 
L 184.8 52.140952 
L 190.752 52.140952 
L 196.704 52.140952 
L 202.656 52.140952 
L 208.608 52.140952 
L 214.56 52.140952 
L 214.56 53.64 
L 214.56 57.459234 
L 208.608 57.459234 
L 202.656 57.459234 
L 196.704 57.459234 
L 190.752 57.459234 
L 184.8 57.459234 
L 178.848 57.459234 
L 172.896 57.459234 
L 166.944 57.459234 
L 160.992 57.459234 
L 155.04 57.459234 
L 149.088 57.459234 
L 143.136 57.459234 
L 137.184 57.459234 
L 131.232 57.459234 
L 125.28 57.459234 
L 119.328 57.459234 
L 113.376 57.459234 
L 107.424 57.459234 
L 101.472 57.459234 
L 95.52 57.459234 
L 89.568 57.459234 
L 83.616 57.459234 
L 77.664 57.459234 
L 71.712 57.459234 
L 65.76 57.459234 
L 59.808 57.459234 
L 53.856 57.459234 
L 47.904 57.459234 
L 41.952 57.459234 
L 36 57.459234 
z
" clip-path="url(#p08af17e351)" style="fill: #20928c"/>
   </g>
   <g id="PathCollection_21">
    <path d="M 41.952 147.90548 
L 47.904 147.90548 
L 53.856 147.90548 
L 59.808 147.90548 
L 65.76 147.90548 
L 71.712 147.90548 
L 77.664 147.90548 
L 83.616 147.90548 
L 89.568 147.90548 
L 95.52 147.90548 
L 101.472 147.90548 
L 107.424 147.90548 
L 113.376 147.90548 
L 119.328 147.90548 
L 125.28 147.90548 
L 131.232 147.90548 
L 137.184 147.90548 
L 143.136 147.90548 
L 149.088 147.90548 
L 155.04 147.90548 
L 160.992 147.90548 
L 166.944 147.90548 
L 172.896 147.90548 
L 178.848 147.90548 
L 184.8 147.90548 
L 190.752 147.90548 
L 196.704 147.90548 
L 202.656 147.90548 
L 208.608 147.90548 
L 214.56 147.90548 
L 214.56 151.831081 
L 208.608 151.831081 
L 202.656 151.831081 
L 196.704 151.831081 
L 190.752 151.831081 
L 184.8 151.831081 
L 178.848 151.831081 
L 172.896 151.831081 
L 166.944 151.831081 
L 160.992 151.831081 
L 155.04 151.831081 
L 149.088 151.831081 
L 143.136 151.831081 
L 137.184 151.831081 
L 131.232 151.831081 
L 125.28 151.831081 
L 119.328 151.831081 
L 113.376 151.831081 
L 107.424 151.831081 
L 101.472 151.831081 
L 95.52 151.831081 
L 89.568 151.831081 
L 83.616 151.831081 
L 77.664 151.831081 
L 71.712 151.831081 
L 65.76 151.831081 
L 59.808 151.831081 
L 53.856 151.831081 
L 47.904 151.831081 
L 41.952 151.831081 
L 36 151.831081 
L 36 147.90548 
z
" clip-path="url(#p08af17e351)" style="fill: #20a386"/>
    <path d="M 36 59.184 
L 36 57.459234 
L 41.952 57.459234 
L 47.904 57.459234 
L 53.856 57.459234 
L 59.808 57.459234 
L 65.76 57.459234 
L 71.712 57.459234 
L 77.664 57.459234 
L 83.616 57.459234 
L 89.568 57.459234 
L 95.52 57.459234 
L 101.472 57.459234 
L 107.424 57.459234 
L 113.376 57.459234 
L 119.328 57.459234 
L 125.28 57.459234 
L 131.232 57.459234 
L 137.184 57.459234 
L 143.136 57.459234 
L 149.088 57.459234 
L 155.04 57.459234 
L 160.992 57.459234 
L 166.944 57.459234 
L 172.896 57.459234 
L 178.848 57.459234 
L 184.8 57.459234 
L 190.752 57.459234 
L 196.704 57.459234 
L 202.656 57.459234 
L 208.608 57.459234 
L 214.56 57.459234 
L 214.56 59.184 
L 214.56 63.225564 
L 208.608 63.225564 
L 202.656 63.225564 
L 196.704 63.225564 
L 190.752 63.225564 
L 184.8 63.225564 
L 178.848 63.225564 
L 172.896 63.225564 
L 166.944 63.225564 
L 160.992 63.225564 
L 155.04 63.225564 
L 149.088 63.225564 
L 143.136 63.225564 
L 137.184 63.225564 
L 131.232 63.225564 
L 125.28 63.225564 
L 119.328 63.225564 
L 113.376 63.225564 
L 107.424 63.225564 
L 101.472 63.225564 
L 95.52 63.225564 
L 89.568 63.225564 
L 83.616 63.225564 
L 77.664 63.225564 
L 71.712 63.225564 
L 65.76 63.225564 
L 59.808 63.225564 
L 53.856 63.225564 
L 47.904 63.225564 
L 41.952 63.225564 
L 36 63.225564 
z
" clip-path="url(#p08af17e351)" style="fill: #20a386"/>
   </g>
   <g id="PathCollection_22">
    <path d="M 36 147.888 
L 36 143.177635 
L 41.952 143.177635 
L 47.904 143.177635 
L 53.856 143.177635 
L 59.808 143.177635 
L 65.76 143.177635 
L 71.712 143.177635 
L 77.664 143.177635 
L 83.616 143.177635 
L 89.568 143.177635 
L 95.52 143.177635 
L 101.472 143.177635 
L 107.424 143.177635 
L 113.376 143.177635 
L 119.328 143.177635 
L 125.28 143.177635 
L 131.232 143.177635 
L 137.184 143.177635 
L 143.136 143.177635 
L 149.088 143.177635 
L 155.04 143.177635 
L 160.992 143.177635 
L 166.944 143.177635 
L 172.896 143.177635 
L 178.848 143.177635 
L 184.8 143.177635 
L 190.752 143.177635 
L 196.704 143.177635 
L 202.656 143.177635 
L 208.608 143.177635 
L 214.56 143.177635 
L 214.56 147.888 
L 214.56 147.90548 
L 208.608 147.90548 
L 202.656 147.90548 
L 196.704 147.90548 
L 190.752 147.90548 
L 184.8 147.90548 
L 178.848 147.90548 
L 172.896 147.90548 
L 166.944 147.90548 
L 160.992 147.90548 
L 155.04 147.90548 
L 149.088 147.90548 
L 143.136 147.90548 
L 137.184 147.90548 
L 131.232 147.90548 
L 125.28 147.90548 
L 119.328 147.90548 
L 113.376 147.90548 
L 107.424 147.90548 
L 101.472 147.90548 
L 95.52 147.90548 
L 89.568 147.90548 
L 83.616 147.90548 
L 77.664 147.90548 
L 71.712 147.90548 
L 65.76 147.90548 
L 59.808 147.90548 
L 53.856 147.90548 
L 47.904 147.90548 
L 41.952 147.90548 
L 36 147.90548 
z
" clip-path="url(#p08af17e351)" style="fill: #32b67a"/>
    <path d="M 36 64.728 
L 36 63.225564 
L 41.952 63.225564 
L 47.904 63.225564 
L 53.856 63.225564 
L 59.808 63.225564 
L 65.76 63.225564 
L 71.712 63.225564 
L 77.664 63.225564 
L 83.616 63.225564 
L 89.568 63.225564 
L 95.52 63.225564 
L 101.472 63.225564 
L 107.424 63.225564 
L 113.376 63.225564 
L 119.328 63.225564 
L 125.28 63.225564 
L 131.232 63.225564 
L 137.184 63.225564 
L 143.136 63.225564 
L 149.088 63.225564 
L 155.04 63.225564 
L 160.992 63.225564 
L 166.944 63.225564 
L 172.896 63.225564 
L 178.848 63.225564 
L 184.8 63.225564 
L 190.752 63.225564 
L 196.704 63.225564 
L 202.656 63.225564 
L 208.608 63.225564 
L 214.56 63.225564 
L 214.56 64.728 
L 214.56 69.60447 
L 208.608 69.60447 
L 202.656 69.60447 
L 196.704 69.60447 
L 190.752 69.60447 
L 184.8 69.60447 
L 178.848 69.60447 
L 172.896 69.60447 
L 166.944 69.60447 
L 160.992 69.60447 
L 155.04 69.60447 
L 149.088 69.60447 
L 143.136 69.60447 
L 137.184 69.60447 
L 131.232 69.60447 
L 125.28 69.60447 
L 119.328 69.60447 
L 113.376 69.60447 
L 107.424 69.60447 
L 101.472 69.60447 
L 95.52 69.60447 
L 89.568 69.60447 
L 83.616 69.60447 
L 77.664 69.60447 
L 71.712 69.60447 
L 65.76 69.60447 
L 59.808 69.60447 
L 53.856 69.60447 
L 47.904 69.60447 
L 41.952 69.60447 
L 36 69.60447 
z
" clip-path="url(#p08af17e351)" style="fill: #32b67a"/>
   </g>
   <g id="PathCollection_23">
    <path d="M 36 142.344 
L 36 137.540728 
L 41.952 137.540728 
L 47.904 137.540728 
L 53.856 137.540728 
L 59.808 137.540728 
L 65.76 137.540728 
L 71.712 137.540728 
L 77.664 137.540728 
L 83.616 137.540728 
L 89.568 137.540728 
L 95.52 137.540728 
L 101.472 137.540728 
L 107.424 137.540728 
L 113.376 137.540728 
L 119.328 137.540728 
L 125.28 137.540728 
L 131.232 137.540728 
L 137.184 137.540728 
L 143.136 137.540728 
L 149.088 137.540728 
L 155.04 137.540728 
L 160.992 137.540728 
L 166.944 137.540728 
L 172.896 137.540728 
L 178.848 137.540728 
L 184.8 137.540728 
L 190.752 137.540728 
L 196.704 137.540728 
L 202.656 137.540728 
L 208.608 137.540728 
L 214.56 137.540728 
L 214.56 142.344 
L 214.56 143.177635 
L 208.608 143.177635 
L 202.656 143.177635 
L 196.704 143.177635 
L 190.752 143.177635 
L 184.8 143.177635 
L 178.848 143.177635 
L 172.896 143.177635 
L 166.944 143.177635 
L 160.992 143.177635 
L 155.04 143.177635 
L 149.088 143.177635 
L 143.136 143.177635 
L 137.184 143.177635 
L 131.232 143.177635 
L 125.28 143.177635 
L 119.328 143.177635 
L 113.376 143.177635 
L 107.424 143.177635 
L 101.472 143.177635 
L 95.52 143.177635 
L 89.568 143.177635 
L 83.616 143.177635 
L 77.664 143.177635 
L 71.712 143.177635 
L 65.76 143.177635 
L 59.808 143.177635 
L 53.856 143.177635 
L 47.904 143.177635 
L 41.952 143.177635 
L 36 143.177635 
z
" clip-path="url(#p08af17e351)" style="fill: #54c568"/>
    <path d="M 36 75.816 
L 36 70.272 
L 36 69.60447 
L 41.952 69.60447 
L 47.904 69.60447 
L 53.856 69.60447 
L 59.808 69.60447 
L 65.76 69.60447 
L 71.712 69.60447 
L 77.664 69.60447 
L 83.616 69.60447 
L 89.568 69.60447 
L 95.52 69.60447 
L 101.472 69.60447 
L 107.424 69.60447 
L 113.376 69.60447 
L 119.328 69.60447 
L 125.28 69.60447 
L 131.232 69.60447 
L 137.184 69.60447 
L 143.136 69.60447 
L 149.088 69.60447 
L 155.04 69.60447 
L 160.992 69.60447 
L 166.944 69.60447 
L 172.896 69.60447 
L 178.848 69.60447 
L 184.8 69.60447 
L 190.752 69.60447 
L 196.704 69.60447 
L 202.656 69.60447 
L 208.608 69.60447 
L 214.56 69.60447 
L 214.56 70.272 
L 214.56 75.816 
L 214.56 77.0167 
L 208.608 77.0167 
L 202.656 77.0167 
L 196.704 77.0167 
L 190.752 77.0167 
L 184.8 77.0167 
L 178.848 77.0167 
L 172.896 77.0167 
L 166.944 77.0167 
L 160.992 77.0167 
L 155.04 77.0167 
L 149.088 77.0167 
L 143.136 77.0167 
L 137.184 77.0167 
L 131.232 77.0167 
L 125.28 77.0167 
L 119.328 77.0167 
L 113.376 77.0167 
L 107.424 77.0167 
L 101.472 77.0167 
L 95.52 77.0167 
L 89.568 77.0167 
L 83.616 77.0167 
L 77.664 77.0167 
L 71.712 77.0167 
L 65.76 77.0167 
L 59.808 77.0167 
L 53.856 77.0167 
L 47.904 77.0167 
L 41.952 77.0167 
L 36 77.0167 
z
" clip-path="url(#p08af17e351)" style="fill: #54c568"/>
   </g>
   <g id="PathCollection_24">
    <path d="M 36 136.8 
L 36 131.256 
L 36 130.009978 
L 41.952 130.009978 
L 47.904 130.009978 
L 53.856 130.009978 
L 59.808 130.009978 
L 65.76 130.009978 
L 71.712 130.009978 
L 77.664 130.009978 
L 83.616 130.009978 
L 89.568 130.009978 
L 95.52 130.009978 
L 101.472 130.009978 
L 107.424 130.009978 
L 113.376 130.009978 
L 119.328 130.009978 
L 125.28 130.009978 
L 131.232 130.009978 
L 137.184 130.009978 
L 143.136 130.009978 
L 149.088 130.009978 
L 155.04 130.009978 
L 160.992 130.009978 
L 166.944 130.009978 
L 172.896 130.009978 
L 178.848 130.009978 
L 184.8 130.009978 
L 190.752 130.009978 
L 196.704 130.009978 
L 202.656 130.009978 
L 208.608 130.009978 
L 214.56 130.009978 
L 214.56 131.256 
L 214.56 136.8 
L 214.56 137.540728 
L 208.608 137.540728 
L 202.656 137.540728 
L 196.704 137.540728 
L 190.752 137.540728 
L 184.8 137.540728 
L 178.848 137.540728 
L 172.896 137.540728 
L 166.944 137.540728 
L 160.992 137.540728 
L 155.04 137.540728 
L 149.088 137.540728 
L 143.136 137.540728 
L 137.184 137.540728 
L 131.232 137.540728 
L 125.28 137.540728 
L 119.328 137.540728 
L 113.376 137.540728 
L 107.424 137.540728 
L 101.472 137.540728 
L 95.52 137.540728 
L 89.568 137.540728 
L 83.616 137.540728 
L 77.664 137.540728 
L 71.712 137.540728 
L 65.76 137.540728 
L 59.808 137.540728 
L 53.856 137.540728 
L 47.904 137.540728 
L 41.952 137.540728 
L 36 137.540728 
z
" clip-path="url(#p08af17e351)" style="fill: #81d34d"/>
    <path d="M 36 81.36 
L 36 77.0167 
L 41.952 77.0167 
L 47.904 77.0167 
L 53.856 77.0167 
L 59.808 77.0167 
L 65.76 77.0167 
L 71.712 77.0167 
L 77.664 77.0167 
L 83.616 77.0167 
L 89.568 77.0167 
L 95.52 77.0167 
L 101.472 77.0167 
L 107.424 77.0167 
L 113.376 77.0167 
L 119.328 77.0167 
L 125.28 77.0167 
L 131.232 77.0167 
L 137.184 77.0167 
L 143.136 77.0167 
L 149.088 77.0167 
L 155.04 77.0167 
L 160.992 77.0167 
L 166.944 77.0167 
L 172.896 77.0167 
L 178.848 77.0167 
L 184.8 77.0167 
L 190.752 77.0167 
L 196.704 77.0167 
L 202.656 77.0167 
L 208.608 77.0167 
L 214.56 77.0167 
L 214.56 81.36 
L 214.56 86.217594 
L 208.608 86.217594 
L 202.656 86.217594 
L 196.704 86.217594 
L 190.752 86.217594 
L 184.8 86.217594 
L 178.848 86.217594 
L 172.896 86.217594 
L 166.944 86.217594 
L 160.992 86.217594 
L 155.04 86.217594 
L 149.088 86.217594 
L 143.136 86.217594 
L 137.184 86.217594 
L 131.232 86.217594 
L 125.28 86.217594 
L 119.328 86.217594 
L 113.376 86.217594 
L 107.424 86.217594 
L 101.472 86.217594 
L 95.52 86.217594 
L 89.568 86.217594 
L 83.616 86.217594 
L 77.664 86.217594 
L 71.712 86.217594 
L 65.76 86.217594 
L 59.808 86.217594 
L 53.856 86.217594 
L 47.904 86.217594 
L 41.952 86.217594 
L 36 86.217594 
z
" clip-path="url(#p08af17e351)" style="fill: #81d34d"/>
   </g>
   <g id="PathCollection_25">
    <path d="M 36 125.712 
L 36 120.168 
L 36 115.632041 
L 41.952 115.632041 
L 47.904 115.632041 
L 53.856 115.632041 
L 59.808 115.632041 
L 65.76 115.632041 
L 71.712 115.632041 
L 77.664 115.632041 
L 83.616 115.632041 
L 89.568 115.632041 
L 95.52 115.632041 
L 101.472 115.632041 
L 107.424 115.632041 
L 113.376 115.632041 
L 119.328 115.632041 
L 125.28 115.632041 
L 131.232 115.632041 
L 137.184 115.632041 
L 143.136 115.632041 
L 149.088 115.632041 
L 155.04 115.632041 
L 160.992 115.632041 
L 166.944 115.632041 
L 172.896 115.632041 
L 178.848 115.632041 
L 184.8 115.632041 
L 190.752 115.632041 
L 196.704 115.632041 
L 202.656 115.632041 
L 208.608 115.632041 
L 214.56 115.632041 
L 214.56 120.168 
L 214.56 125.712 
L 214.56 130.009978 
L 208.608 130.009978 
L 202.656 130.009978 
L 196.704 130.009978 
L 190.752 130.009978 
L 184.8 130.009978 
L 178.848 130.009978 
L 172.896 130.009978 
L 166.944 130.009978 
L 160.992 130.009978 
L 155.04 130.009978 
L 149.088 130.009978 
L 143.136 130.009978 
L 137.184 130.009978 
L 131.232 130.009978 
L 125.28 130.009978 
L 119.328 130.009978 
L 113.376 130.009978 
L 107.424 130.009978 
L 101.472 130.009978 
L 95.52 130.009978 
L 89.568 130.009978 
L 83.616 130.009978 
L 77.664 130.009978 
L 71.712 130.009978 
L 65.76 130.009978 
L 59.808 130.009978 
L 53.856 130.009978 
L 47.904 130.009978 
L 41.952 130.009978 
L 36 130.009978 
z
" clip-path="url(#p08af17e351)" style="fill: #b2dd2d"/>
    <path d="M 36 97.992 
L 36 92.448 
L 36 86.904 
L 36 86.217594 
L 41.952 86.217594 
L 47.904 86.217594 
L 53.856 86.217594 
L 59.808 86.217594 
L 65.76 86.217594 
L 71.712 86.217594 
L 77.664 86.217594 
L 83.616 86.217594 
L 89.568 86.217594 
L 95.52 86.217594 
L 101.472 86.217594 
L 107.424 86.217594 
L 113.376 86.217594 
L 119.328 86.217594 
L 125.28 86.217594 
L 131.232 86.217594 
L 137.184 86.217594 
L 143.136 86.217594 
L 149.088 86.217594 
L 155.04 86.217594 
L 160.992 86.217594 
L 166.944 86.217594 
L 172.896 86.217594 
L 178.848 86.217594 
L 184.8 86.217594 
L 190.752 86.217594 
L 196.704 86.217594 
L 202.656 86.217594 
L 208.608 86.217594 
L 214.56 86.217594 
L 214.56 86.904 
L 214.56 92.448 
L 214.56 97.992 
L 214.56 102.403934 
L 208.608 102.403934 
L 202.656 102.403934 
L 196.704 102.403934 
L 190.752 102.403934 
L 184.8 102.403934 
L 178.848 102.403934 
L 172.896 102.403934 
L 166.944 102.403934 
L 160.992 102.403934 
L 155.04 102.403934 
L 149.088 102.403934 
L 143.136 102.403934 
L 137.184 102.403934 
L 131.232 102.403934 
L 125.28 102.403934 
L 119.328 102.403934 
L 113.376 102.403934 
L 107.424 102.403934 
L 101.472 102.403934 
L 95.52 102.403934 
L 89.568 102.403934 
L 83.616 102.403934 
L 77.664 102.403934 
L 71.712 102.403934 
L 65.76 102.403934 
L 59.808 102.403934 
L 53.856 102.403934 
L 47.904 102.403934 
L 41.952 102.403934 
L 36 102.403934 
z
" clip-path="url(#p08af17e351)" style="fill: #b2dd2d"/>
   </g>
   <g id="PathCollection_26">
    <path d="M 36 114.624 
L 36 109.08 
L 36 103.536 
L 36 102.403934 
L 41.952 102.403934 
L 47.904 102.403934 
L 53.856 102.403934 
L 59.808 102.403934 
L 65.76 102.403934 
L 71.712 102.403934 
L 77.664 102.403934 
L 83.616 102.403934 
L 89.568 102.403934 
L 95.52 102.403934 
L 101.472 102.403934 
L 107.424 102.403934 
L 113.376 102.403934 
L 119.328 102.403934 
L 125.28 102.403934 
L 131.232 102.403934 
L 137.184 102.403934 
L 143.136 102.403934 
L 149.088 102.403934 
L 155.04 102.403934 
L 160.992 102.403934 
L 166.944 102.403934 
L 172.896 102.403934 
L 178.848 102.403934 
L 184.8 102.403934 
L 190.752 102.403934 
L 196.704 102.403934 
L 202.656 102.403934 
L 208.608 102.403934 
L 214.56 102.403934 
L 214.56 103.536 
L 214.56 109.08 
L 214.56 114.624 
L 214.56 115.632041 
L 208.608 115.632041 
L 202.656 115.632041 
L 196.704 115.632041 
L 190.752 115.632041 
L 184.8 115.632041 
L 178.848 115.632041 
L 172.896 115.632041 
L 166.944 115.632041 
L 160.992 115.632041 
L 155.04 115.632041 
L 149.088 115.632041 
L 143.136 115.632041 
L 137.184 115.632041 
L 131.232 115.632041 
L 125.28 115.632041 
L 119.328 115.632041 
L 113.376 115.632041 
L 107.424 115.632041 
L 101.472 115.632041 
L 95.52 115.632041 
L 89.568 115.632041 
L 83.616 115.632041 
L 77.664 115.632041 
L 71.712 115.632041 
L 65.76 115.632041 
L 59.808 115.632041 
L 53.856 115.632041 
L 47.904 115.632041 
L 41.952 115.632041 
L 36 115.632041 
z
" clip-path="url(#p08af17e351)" style="fill: #e7e419"/>
   </g>
   <g id="PathCollection_27">
    <defs>
     <path id="ma0caec0ede" d="M -4.330127 4.330127 
L 4.330127 -4.330127 
M -4.330127 -4.330127 
L 4.330127 4.330127 
" style="stroke: #000000; stroke-width: 2"/>
    </defs>
    <g clip-path="url(#p08af17e351)">
     <use xlink:href="#ma0caec0ede" x="85.6" y="109.08" style="stroke: #000000; stroke-width: 2"/>
    </g>
   </g>
   <g id="matplotlib.axis_1">
    <g id="xtick_1">
     <g id="line2d_1">
      <defs>
       <path id="mb7770684fa" d="M 0 0 
L 0 3.5 
" style="stroke: #000000; stroke-width: 0.8"/>
      </defs>
      <g>
       <use xlink:href="#mb7770684fa" x="75.68" y="192.24" style="stroke: #000000; stroke-width: 0.8"/>
      </g>
     </g>
     <g id="text_1">
      <!-- 250 -->
      <g transform="translate(64.2275 208.358125) scale(0.12 -0.12)">
       <defs>
        <path id="DejaVuSans-32" d="M 1228 531 
L 3431 531 
L 3431 0 
L 469 0 
L 469 531 
Q 828 903 1448 1529 
Q 2069 2156 2228 2338 
Q 2531 2678 2651 2914 
Q 2772 3150 2772 3378 
Q 2772 3750 2511 3984 
Q 2250 4219 1831 4219 
Q 1534 4219 1204 4116 
Q 875 4013 500 3803 
L 500 4441 
Q 881 4594 1212 4672 
Q 1544 4750 1819 4750 
Q 2544 4750 2975 4387 
Q 3406 4025 3406 3419 
Q 3406 3131 3298 2873 
Q 3191 2616 2906 2266 
Q 2828 2175 2409 1742 
Q 1991 1309 1228 531 
z
" transform="scale(0.015625)"/>
        <path id="DejaVuSans-35" d="M 691 4666 
L 3169 4666 
L 3169 4134 
L 1269 4134 
L 1269 2991 
Q 1406 3038 1543 3061 
Q 1681 3084 1819 3084 
Q 2600 3084 3056 2656 
Q 3513 2228 3513 1497 
Q 3513 744 3044 326 
Q 2575 -91 1722 -91 
Q 1428 -91 1123 -41 
Q 819 9 494 109 
L 494 744 
Q 775 591 1075 516 
Q 1375 441 1709 441 
Q 2250 441 2565 725 
Q 2881 1009 2881 1497 
Q 2881 1984 2565 2268 
Q 2250 2553 1709 2553 
Q 1456 2553 1204 2497 
Q 953 2441 691 2322 
L 691 4666 
z
" transform="scale(0.015625)"/>
        <path id="DejaVuSans-30" d="M 2034 4250 
Q 1547 4250 1301 3770 
Q 1056 3291 1056 2328 
Q 1056 1369 1301 889 
Q 1547 409 2034 409 
Q 2525 409 2770 889 
Q 3016 1369 3016 2328 
Q 3016 3291 2770 3770 
Q 2525 4250 2034 4250 
z
M 2034 4750 
Q 2819 4750 3233 4129 
Q 3647 3509 3647 2328 
Q 3647 1150 3233 529 
Q 2819 -91 2034 -91 
Q 1250 -91 836 529 
Q 422 1150 422 2328 
Q 422 3509 836 4129 
Q 1250 4750 2034 4750 
z
" transform="scale(0.015625)"/>
       </defs>
       <use xlink:href="#DejaVuSans-32"/>
       <use xlink:href="#DejaVuSans-35" x="63.623047"/>
       <use xlink:href="#DejaVuSans-30" x="127.246094"/>
      </g>
     </g>
    </g>
    <g id="xtick_2">
     <g id="line2d_2">
      <g>
       <use xlink:href="#mb7770684fa" x="125.28" y="192.24" style="stroke: #000000; stroke-width: 0.8"/>
      </g>
     </g>
     <g id="text_2">
      <!-- 500 -->
      <g transform="translate(113.8275 208.358125) scale(0.12 -0.12)">
       <use xlink:href="#DejaVuSans-35"/>
       <use xlink:href="#DejaVuSans-30" x="63.623047"/>
       <use xlink:href="#DejaVuSans-30" x="127.246094"/>
      </g>
     </g>
    </g>
    <g id="xtick_3">
     <g id="line2d_3">
      <g>
       <use xlink:href="#mb7770684fa" x="174.88" y="192.24" style="stroke: #000000; stroke-width: 0.8"/>
      </g>
     </g>
     <g id="text_3">
      <!-- 750 -->
      <g transform="translate(163.4275 208.358125) scale(0.12 -0.12)">
       <defs>
        <path id="DejaVuSans-37" d="M 525 4666 
L 3525 4666 
L 3525 4397 
L 1831 0 
L 1172 0 
L 2766 4134 
L 525 4134 
L 525 4666 
z
" transform="scale(0.015625)"/>
       </defs>
       <use xlink:href="#DejaVuSans-37"/>
       <use xlink:href="#DejaVuSans-35" x="63.623047"/>
       <use xlink:href="#DejaVuSans-30" x="127.246094"/>
      </g>
     </g>
    </g>
    <g id="text_4">
     <!-- Diploid N$_e$1 -->
     <g transform="translate(80 227.01375) scale(0.16 -0.16)">
      <defs>
       <path id="DejaVuSans-44" d="M 1259 4147 
L 1259 519 
L 2022 519 
Q 2988 519 3436 956 
Q 3884 1394 3884 2338 
Q 3884 3275 3436 3711 
Q 2988 4147 2022 4147 
L 1259 4147 
z
M 628 4666 
L 1925 4666 
Q 3281 4666 3915 4102 
Q 4550 3538 4550 2338 
Q 4550 1131 3912 565 
Q 3275 0 1925 0 
L 628 0 
L 628 4666 
z
" transform="scale(0.015625)"/>
       <path id="DejaVuSans-69" d="M 603 3500 
L 1178 3500 
L 1178 0 
L 603 0 
L 603 3500 
z
M 603 4863 
L 1178 4863 
L 1178 4134 
L 603 4134 
L 603 4863 
z
" transform="scale(0.015625)"/>
       <path id="DejaVuSans-70" d="M 1159 525 
L 1159 -1331 
L 581 -1331 
L 581 3500 
L 1159 3500 
L 1159 2969 
Q 1341 3281 1617 3432 
Q 1894 3584 2278 3584 
Q 2916 3584 3314 3078 
Q 3713 2572 3713 1747 
Q 3713 922 3314 415 
Q 2916 -91 2278 -91 
Q 1894 -91 1617 61 
Q 1341 213 1159 525 
z
M 3116 1747 
Q 3116 2381 2855 2742 
Q 2594 3103 2138 3103 
Q 1681 3103 1420 2742 
Q 1159 2381 1159 1747 
Q 1159 1113 1420 752 
Q 1681 391 2138 391 
Q 2594 391 2855 752 
Q 3116 1113 3116 1747 
z
" transform="scale(0.015625)"/>
       <path id="DejaVuSans-6c" d="M 603 4863 
L 1178 4863 
L 1178 0 
L 603 0 
L 603 4863 
z
" transform="scale(0.015625)"/>
       <path id="DejaVuSans-6f" d="M 1959 3097 
Q 1497 3097 1228 2736 
Q 959 2375 959 1747 
Q 959 1119 1226 758 
Q 1494 397 1959 397 
Q 2419 397 2687 759 
Q 2956 1122 2956 1747 
Q 2956 2369 2687 2733 
Q 2419 3097 1959 3097 
z
M 1959 3584 
Q 2709 3584 3137 3096 
Q 3566 2609 3566 1747 
Q 3566 888 3137 398 
Q 2709 -91 1959 -91 
Q 1206 -91 779 398 
Q 353 888 353 1747 
Q 353 2609 779 3096 
Q 1206 3584 1959 3584 
z
" transform="scale(0.015625)"/>
       <path id="DejaVuSans-64" d="M 2906 2969 
L 2906 4863 
L 3481 4863 
L 3481 0 
L 2906 0 
L 2906 525 
Q 2725 213 2448 61 
Q 2172 -91 1784 -91 
Q 1150 -91 751 415 
Q 353 922 353 1747 
Q 353 2572 751 3078 
Q 1150 3584 1784 3584 
Q 2172 3584 2448 3432 
Q 2725 3281 2906 2969 
z
M 947 1747 
Q 947 1113 1208 752 
Q 1469 391 1925 391 
Q 2381 391 2643 752 
Q 2906 1113 2906 1747 
Q 2906 2381 2643 2742 
Q 2381 3103 1925 3103 
Q 1469 3103 1208 2742 
Q 947 2381 947 1747 
z
" transform="scale(0.015625)"/>
       <path id="DejaVuSans-20" transform="scale(0.015625)"/>
       <path id="DejaVuSans-4e" d="M 628 4666 
L 1478 4666 
L 3547 763 
L 3547 4666 
L 4159 4666 
L 4159 0 
L 3309 0 
L 1241 3903 
L 1241 0 
L 628 0 
L 628 4666 
z
" transform="scale(0.015625)"/>
       <path id="DejaVuSans-Oblique-65" d="M 3078 2063 
Q 3088 2113 3092 2166 
Q 3097 2219 3097 2272 
Q 3097 2653 2873 2875 
Q 2650 3097 2266 3097 
Q 1838 3097 1509 2826 
Q 1181 2556 1013 2059 
L 3078 2063 
z
M 3578 1613 
L 903 1613 
Q 884 1494 878 1425 
Q 872 1356 872 1306 
Q 872 872 1139 634 
Q 1406 397 1894 397 
Q 2269 397 2603 481 
Q 2938 566 3225 728 
L 3116 159 
Q 2806 34 2476 -28 
Q 2147 -91 1806 -91 
Q 1078 -91 686 257 
Q 294 606 294 1247 
Q 294 1794 489 2264 
Q 684 2734 1063 3103 
Q 1306 3334 1642 3459 
Q 1978 3584 2356 3584 
Q 2950 3584 3301 3228 
Q 3653 2872 3653 2272 
Q 3653 2128 3634 1964 
Q 3616 1800 3578 1613 
z
" transform="scale(0.015625)"/>
       <path id="DejaVuSans-31" d="M 794 531 
L 1825 531 
L 1825 4091 
L 703 3866 
L 703 4441 
L 1819 4666 
L 2450 4666 
L 2450 531 
L 3481 531 
L 3481 0 
L 794 0 
L 794 531 
z
" transform="scale(0.015625)"/>
      </defs>
      <use xlink:href="#DejaVuSans-44" transform="translate(0 0.015625)"/>
      <use xlink:href="#DejaVuSans-69" transform="translate(77.001953 0.015625)"/>
      <use xlink:href="#DejaVuSans-70" transform="translate(104.785156 0.015625)"/>
      <use xlink:href="#DejaVuSans-6c" transform="translate(168.261719 0.015625)"/>
      <use xlink:href="#DejaVuSans-6f" transform="translate(196.044922 0.015625)"/>
      <use xlink:href="#DejaVuSans-69" transform="translate(257.226562 0.015625)"/>
      <use xlink:href="#DejaVuSans-64" transform="translate(285.009766 0.015625)"/>
      <use xlink:href="#DejaVuSans-20" transform="translate(348.486328 0.015625)"/>
      <use xlink:href="#DejaVuSans-4e" transform="translate(380.273438 0.015625)"/>
      <use xlink:href="#DejaVuSans-Oblique-65" transform="translate(456.035156 -16.390625) scale(0.7)"/>
      <use xlink:href="#DejaVuSans-31" transform="translate(501.835938 0.015625)"/>
     </g>
    </g>
    <g id="text_5">
     <!-- 1e3 -->
     <g transform="translate(195.681875 221.452188) scale(0.1 -0.1)">
      <defs>
       <path id="DejaVuSans-65" d="M 3597 1894 
L 3597 1613 
L 953 1613 
Q 991 1019 1311 708 
Q 1631 397 2203 397 
Q 2534 397 2845 478 
Q 3156 559 3463 722 
L 3463 178 
Q 3153 47 2828 -22 
Q 2503 -91 2169 -91 
Q 1331 -91 842 396 
Q 353 884 353 1716 
Q 353 2575 817 3079 
Q 1281 3584 2069 3584 
Q 2775 3584 3186 3129 
Q 3597 2675 3597 1894 
z
M 3022 2063 
Q 3016 2534 2758 2815 
Q 2500 3097 2075 3097 
Q 1594 3097 1305 2825 
Q 1016 2553 972 2059 
L 3022 2063 
z
" transform="scale(0.015625)"/>
       <path id="DejaVuSans-33" d="M 2597 2516 
Q 3050 2419 3304 2112 
Q 3559 1806 3559 1356 
Q 3559 666 3084 287 
Q 2609 -91 1734 -91 
Q 1441 -91 1130 -33 
Q 819 25 488 141 
L 488 750 
Q 750 597 1062 519 
Q 1375 441 1716 441 
Q 2309 441 2620 675 
Q 2931 909 2931 1356 
Q 2931 1769 2642 2001 
Q 2353 2234 1838 2234 
L 1294 2234 
L 1294 2753 
L 1863 2753 
Q 2328 2753 2575 2939 
Q 2822 3125 2822 3475 
Q 2822 3834 2567 4026 
Q 2313 4219 1838 4219 
Q 1578 4219 1281 4162 
Q 984 4106 628 3988 
L 628 4550 
Q 988 4650 1302 4700 
Q 1616 4750 1894 4750 
Q 2613 4750 3031 4423 
Q 3450 4097 3450 3541 
Q 3450 3153 3228 2886 
Q 3006 2619 2597 2516 
z
" transform="scale(0.015625)"/>
      </defs>
      <use xlink:href="#DejaVuSans-31"/>
      <use xlink:href="#DejaVuSans-65" x="63.623047"/>
      <use xlink:href="#DejaVuSans-33" x="125.146484"/>
     </g>
    </g>
   </g>
   <g id="matplotlib.axis_2">
    <g id="ytick_1">
     <g id="line2d_4">
      <defs>
       <path id="mefbec0766a" d="M 0 0 
L -3.5 0 
" style="stroke: #000000; stroke-width: 0.8"/>
      </defs>
      <g>
       <use xlink:href="#mefbec0766a" x="36" y="192.24" style="stroke: #000000; stroke-width: 0.8"/>
      </g>
     </g>
     <g id="text_6">
      <!-- 1.0 -->
      <g transform="translate(9.91625 196.799062) scale(0.12 -0.12)">
       <defs>
        <path id="DejaVuSans-2e" d="M 684 794 
L 1344 794 
L 1344 0 
L 684 0 
L 684 794 
z
" transform="scale(0.015625)"/>
       </defs>
       <use xlink:href="#DejaVuSans-31"/>
       <use xlink:href="#DejaVuSans-2e" x="63.623047"/>
       <use xlink:href="#DejaVuSans-30" x="95.410156"/>
      </g>
     </g>
    </g>
    <g id="ytick_2">
     <g id="line2d_5">
      <g>
       <use xlink:href="#mefbec0766a" x="36" y="150.66" style="stroke: #000000; stroke-width: 0.8"/>
      </g>
     </g>
     <g id="text_7">
      <!-- 1.5 -->
      <g transform="translate(9.91625 155.219063) scale(0.12 -0.12)">
       <use xlink:href="#DejaVuSans-31"/>
       <use xlink:href="#DejaVuSans-2e" x="63.623047"/>
       <use xlink:href="#DejaVuSans-35" x="95.410156"/>
      </g>
     </g>
    </g>
    <g id="ytick_3">
     <g id="line2d_6">
      <g>
       <use xlink:href="#mefbec0766a" x="36" y="109.08" style="stroke: #000000; stroke-width: 0.8"/>
      </g>
     </g>
     <g id="text_8">
      <!-- 2.0 -->
      <g transform="translate(9.91625 113.639062) scale(0.12 -0.12)">
       <use xlink:href="#DejaVuSans-32"/>
       <use xlink:href="#DejaVuSans-2e" x="63.623047"/>
       <use xlink:href="#DejaVuSans-30" x="95.410156"/>
      </g>
     </g>
    </g>
    <g id="ytick_4">
     <g id="line2d_7">
      <g>
       <use xlink:href="#mefbec0766a" x="36" y="67.5" style="stroke: #000000; stroke-width: 0.8"/>
      </g>
     </g>
     <g id="text_9">
      <!-- 2.5 -->
      <g transform="translate(9.91625 72.059063) scale(0.12 -0.12)">
       <use xlink:href="#DejaVuSans-32"/>
       <use xlink:href="#DejaVuSans-2e" x="63.623047"/>
       <use xlink:href="#DejaVuSans-35" x="95.410156"/>
      </g>
     </g>
    </g>
    <g id="ytick_5">
     <g id="line2d_8">
      <g>
       <use xlink:href="#mefbec0766a" x="36" y="25.92" style="stroke: #000000; stroke-width: 0.8"/>
      </g>
     </g>
     <g id="text_10">
      <!-- 3.0 -->
      <g transform="translate(9.91625 30.479062) scale(0.12 -0.12)">
       <use xlink:href="#DejaVuSans-33"/>
       <use xlink:href="#DejaVuSans-2e" x="63.623047"/>
       <use xlink:href="#DejaVuSans-30" x="95.410156"/>
      </g>
     </g>
    </g>
    <g id="text_11">
     <!-- Recombination rate -->
     <g transform="translate(2.58875 187.6775) rotate(-90) scale(0.16 -0.16)">
      <defs>
       <path id="DejaVuSans-52" d="M 2841 2188 
Q 3044 2119 3236 1894 
Q 3428 1669 3622 1275 
L 4263 0 
L 3584 0 
L 2988 1197 
Q 2756 1666 2539 1819 
Q 2322 1972 1947 1972 
L 1259 1972 
L 1259 0 
L 628 0 
L 628 4666 
L 2053 4666 
Q 2853 4666 3247 4331 
Q 3641 3997 3641 3322 
Q 3641 2881 3436 2590 
Q 3231 2300 2841 2188 
z
M 1259 4147 
L 1259 2491 
L 2053 2491 
Q 2509 2491 2742 2702 
Q 2975 2913 2975 3322 
Q 2975 3731 2742 3939 
Q 2509 4147 2053 4147 
L 1259 4147 
z
" transform="scale(0.015625)"/>
       <path id="DejaVuSans-63" d="M 3122 3366 
L 3122 2828 
Q 2878 2963 2633 3030 
Q 2388 3097 2138 3097 
Q 1578 3097 1268 2742 
Q 959 2388 959 1747 
Q 959 1106 1268 751 
Q 1578 397 2138 397 
Q 2388 397 2633 464 
Q 2878 531 3122 666 
L 3122 134 
Q 2881 22 2623 -34 
Q 2366 -91 2075 -91 
Q 1284 -91 818 406 
Q 353 903 353 1747 
Q 353 2603 823 3093 
Q 1294 3584 2113 3584 
Q 2378 3584 2631 3529 
Q 2884 3475 3122 3366 
z
" transform="scale(0.015625)"/>
       <path id="DejaVuSans-6d" d="M 3328 2828 
Q 3544 3216 3844 3400 
Q 4144 3584 4550 3584 
Q 5097 3584 5394 3201 
Q 5691 2819 5691 2113 
L 5691 0 
L 5113 0 
L 5113 2094 
Q 5113 2597 4934 2840 
Q 4756 3084 4391 3084 
Q 3944 3084 3684 2787 
Q 3425 2491 3425 1978 
L 3425 0 
L 2847 0 
L 2847 2094 
Q 2847 2600 2669 2842 
Q 2491 3084 2119 3084 
Q 1678 3084 1418 2786 
Q 1159 2488 1159 1978 
L 1159 0 
L 581 0 
L 581 3500 
L 1159 3500 
L 1159 2956 
Q 1356 3278 1631 3431 
Q 1906 3584 2284 3584 
Q 2666 3584 2933 3390 
Q 3200 3197 3328 2828 
z
" transform="scale(0.015625)"/>
       <path id="DejaVuSans-62" d="M 3116 1747 
Q 3116 2381 2855 2742 
Q 2594 3103 2138 3103 
Q 1681 3103 1420 2742 
Q 1159 2381 1159 1747 
Q 1159 1113 1420 752 
Q 1681 391 2138 391 
Q 2594 391 2855 752 
Q 3116 1113 3116 1747 
z
M 1159 2969 
Q 1341 3281 1617 3432 
Q 1894 3584 2278 3584 
Q 2916 3584 3314 3078 
Q 3713 2572 3713 1747 
Q 3713 922 3314 415 
Q 2916 -91 2278 -91 
Q 1894 -91 1617 61 
Q 1341 213 1159 525 
L 1159 0 
L 581 0 
L 581 4863 
L 1159 4863 
L 1159 2969 
z
" transform="scale(0.015625)"/>
       <path id="DejaVuSans-6e" d="M 3513 2113 
L 3513 0 
L 2938 0 
L 2938 2094 
Q 2938 2591 2744 2837 
Q 2550 3084 2163 3084 
Q 1697 3084 1428 2787 
Q 1159 2491 1159 1978 
L 1159 0 
L 581 0 
L 581 3500 
L 1159 3500 
L 1159 2956 
Q 1366 3272 1645 3428 
Q 1925 3584 2291 3584 
Q 2894 3584 3203 3211 
Q 3513 2838 3513 2113 
z
" transform="scale(0.015625)"/>
       <path id="DejaVuSans-61" d="M 2194 1759 
Q 1497 1759 1228 1600 
Q 959 1441 959 1056 
Q 959 750 1161 570 
Q 1363 391 1709 391 
Q 2188 391 2477 730 
Q 2766 1069 2766 1631 
L 2766 1759 
L 2194 1759 
z
M 3341 1997 
L 3341 0 
L 2766 0 
L 2766 531 
Q 2569 213 2275 61 
Q 1981 -91 1556 -91 
Q 1019 -91 701 211 
Q 384 513 384 1019 
Q 384 1609 779 1909 
Q 1175 2209 1959 2209 
L 2766 2209 
L 2766 2266 
Q 2766 2663 2505 2880 
Q 2244 3097 1772 3097 
Q 1472 3097 1187 3025 
Q 903 2953 641 2809 
L 641 3341 
Q 956 3463 1253 3523 
Q 1550 3584 1831 3584 
Q 2591 3584 2966 3190 
Q 3341 2797 3341 1997 
z
" transform="scale(0.015625)"/>
       <path id="DejaVuSans-74" d="M 1172 4494 
L 1172 3500 
L 2356 3500 
L 2356 3053 
L 1172 3053 
L 1172 1153 
Q 1172 725 1289 603 
Q 1406 481 1766 481 
L 2356 481 
L 2356 0 
L 1766 0 
Q 1100 0 847 248 
Q 594 497 594 1153 
L 594 3053 
L 172 3053 
L 172 3500 
L 594 3500 
L 594 4494 
L 1172 4494 
z
" transform="scale(0.015625)"/>
       <path id="DejaVuSans-72" d="M 2631 2963 
Q 2534 3019 2420 3045 
Q 2306 3072 2169 3072 
Q 1681 3072 1420 2755 
Q 1159 2438 1159 1844 
L 1159 0 
L 581 0 
L 581 3500 
L 1159 3500 
L 1159 2956 
Q 1341 3275 1631 3429 
Q 1922 3584 2338 3584 
Q 2397 3584 2469 3576 
Q 2541 3569 2628 3553 
L 2631 2963 
z
" transform="scale(0.015625)"/>
      </defs>
      <use xlink:href="#DejaVuSans-52"/>
      <use xlink:href="#DejaVuSans-65" x="64.982422"/>
      <use xlink:href="#DejaVuSans-63" x="126.505859"/>
      <use xlink:href="#DejaVuSans-6f" x="181.486328"/>
      <use xlink:href="#DejaVuSans-6d" x="242.667969"/>
      <use xlink:href="#DejaVuSans-62" x="340.080078"/>
      <use xlink:href="#DejaVuSans-69" x="403.556641"/>
      <use xlink:href="#DejaVuSans-6e" x="431.339844"/>
      <use xlink:href="#DejaVuSans-61" x="494.71875"/>
      <use xlink:href="#DejaVuSans-74" x="555.998047"/>
      <use xlink:href="#DejaVuSans-69" x="595.207031"/>
      <use xlink:href="#DejaVuSans-6f" x="622.990234"/>
      <use xlink:href="#DejaVuSans-6e" x="684.171875"/>
      <use xlink:href="#DejaVuSans-20" x="747.550781"/>
      <use xlink:href="#DejaVuSans-72" x="779.337891"/>
      <use xlink:href="#DejaVuSans-61" x="820.451172"/>
      <use xlink:href="#DejaVuSans-74" x="881.730469"/>
      <use xlink:href="#DejaVuSans-65" x="920.939453"/>
     </g>
    </g>
    <g id="text_12">
     <!-- 1e9 -->
     <g transform="translate(36 22.92) scale(0.1 -0.1)">
      <defs>
       <path id="DejaVuSans-2212" d="M 678 2272 
L 4684 2272 
L 4684 1741 
L 678 1741 
L 678 2272 
z
" transform="scale(0.015625)"/>
       <path id="DejaVuSans-39" d="M 703 97 
L 703 672 
Q 941 559 1184 500 
Q 1428 441 1663 441 
Q 2288 441 2617 861 
Q 2947 1281 2994 2138 
Q 2813 1869 2534 1725 
Q 2256 1581 1919 1581 
Q 1219 1581 811 2004 
Q 403 2428 403 3163 
Q 403 3881 828 4315 
Q 1253 4750 1959 4750 
Q 2769 4750 3195 4129 
Q 3622 3509 3622 2328 
Q 3622 1225 3098 567 
Q 2575 -91 1691 -91 
Q 1453 -91 1209 -44 
Q 966 3 703 97 
z
M 1959 2075 
Q 2384 2075 2632 2365 
Q 2881 2656 2881 3163 
Q 2881 3666 2632 3958 
Q 2384 4250 1959 4250 
Q 1534 4250 1286 3958 
Q 1038 3666 1038 3163 
Q 1038 2656 1286 2365 
Q 1534 2075 1959 2075 
z
" transform="scale(0.015625)"/>
      </defs>
      <use xlink:href="#DejaVuSans-31"/>
      <use xlink:href="#DejaVuSans-65" x="63.623047"/>
      <use xlink:href="#DejaVuSans-2212" x="125.146484"/>
      <use xlink:href="#DejaVuSans-39" x="208.935547"/>
     </g>
    </g>
   </g>
   <g id="patch_3">
    <path d="M 36 192.24 
L 36 25.92 
" style="fill: none; stroke: #000000; stroke-width: 0.8; stroke-linejoin: miter; stroke-linecap: square"/>
   </g>
   <g id="patch_4">
    <path d="M 214.56 192.24 
L 214.56 25.92 
" style="fill: none; stroke: #000000; stroke-width: 0.8; stroke-linejoin: miter; stroke-linecap: square"/>
   </g>
   <g id="patch_5">
    <path d="M 36 192.24 
L 214.56 192.24 
" style="fill: none; stroke: #000000; stroke-width: 0.8; stroke-linejoin: miter; stroke-linecap: square"/>
   </g>
   <g id="patch_6">
    <path d="M 36 25.92 
L 214.56 25.92 
" style="fill: none; stroke: #000000; stroke-width: 0.8; stroke-linejoin: miter; stroke-linecap: square"/>
   </g>
   <g id="text_13">
    <!-- Ne1r-SMC-R-P2-S4 -->
    <g transform="translate(52.07 10.92) scale(0.16 -0.16)">
     <defs>
      <path id="DejaVuSans-2d" d="M 313 2009 
L 1997 2009 
L 1997 1497 
L 313 1497 
L 313 2009 
z
" transform="scale(0.015625)"/>
      <path id="DejaVuSans-53" d="M 3425 4513 
L 3425 3897 
Q 3066 4069 2747 4153 
Q 2428 4238 2131 4238 
Q 1616 4238 1336 4038 
Q 1056 3838 1056 3469 
Q 1056 3159 1242 3001 
Q 1428 2844 1947 2747 
L 2328 2669 
Q 3034 2534 3370 2195 
Q 3706 1856 3706 1288 
Q 3706 609 3251 259 
Q 2797 -91 1919 -91 
Q 1588 -91 1214 -16 
Q 841 59 441 206 
L 441 856 
Q 825 641 1194 531 
Q 1563 422 1919 422 
Q 2459 422 2753 634 
Q 3047 847 3047 1241 
Q 3047 1584 2836 1778 
Q 2625 1972 2144 2069 
L 1759 2144 
Q 1053 2284 737 2584 
Q 422 2884 422 3419 
Q 422 4038 858 4394 
Q 1294 4750 2059 4750 
Q 2388 4750 2728 4690 
Q 3069 4631 3425 4513 
z
" transform="scale(0.015625)"/>
      <path id="DejaVuSans-4d" d="M 628 4666 
L 1569 4666 
L 2759 1491 
L 3956 4666 
L 4897 4666 
L 4897 0 
L 4281 0 
L 4281 4097 
L 3078 897 
L 2444 897 
L 1241 4097 
L 1241 0 
L 628 0 
L 628 4666 
z
" transform="scale(0.015625)"/>
      <path id="DejaVuSans-43" d="M 4122 4306 
L 4122 3641 
Q 3803 3938 3442 4084 
Q 3081 4231 2675 4231 
Q 1875 4231 1450 3742 
Q 1025 3253 1025 2328 
Q 1025 1406 1450 917 
Q 1875 428 2675 428 
Q 3081 428 3442 575 
Q 3803 722 4122 1019 
L 4122 359 
Q 3791 134 3420 21 
Q 3050 -91 2638 -91 
Q 1578 -91 968 557 
Q 359 1206 359 2328 
Q 359 3453 968 4101 
Q 1578 4750 2638 4750 
Q 3056 4750 3426 4639 
Q 3797 4528 4122 4306 
z
" transform="scale(0.015625)"/>
      <path id="DejaVuSans-50" d="M 1259 4147 
L 1259 2394 
L 2053 2394 
Q 2494 2394 2734 2622 
Q 2975 2850 2975 3272 
Q 2975 3691 2734 3919 
Q 2494 4147 2053 4147 
L 1259 4147 
z
M 628 4666 
L 2053 4666 
Q 2838 4666 3239 4311 
Q 3641 3956 3641 3272 
Q 3641 2581 3239 2228 
Q 2838 1875 2053 1875 
L 1259 1875 
L 1259 0 
L 628 0 
L 628 4666 
z
" transform="scale(0.015625)"/>
      <path id="DejaVuSans-34" d="M 2419 4116 
L 825 1625 
L 2419 1625 
L 2419 4116 
z
M 2253 4666 
L 3047 4666 
L 3047 1625 
L 3713 1625 
L 3713 1100 
L 3047 1100 
L 3047 0 
L 2419 0 
L 2419 1100 
L 313 1100 
L 313 1709 
L 2253 4666 
z
" transform="scale(0.015625)"/>
     </defs>
     <use xlink:href="#DejaVuSans-4e"/>
     <use xlink:href="#DejaVuSans-65" x="74.804688"/>
     <use xlink:href="#DejaVuSans-31" x="136.328125"/>
     <use xlink:href="#DejaVuSans-72" x="199.951172"/>
     <use xlink:href="#DejaVuSans-2d" x="234.689453"/>
     <use xlink:href="#DejaVuSans-53" x="270.773438"/>
     <use xlink:href="#DejaVuSans-4d" x="334.25"/>
     <use xlink:href="#DejaVuSans-43" x="420.529297"/>
     <use xlink:href="#DejaVuSans-2d" x="490.353516"/>
     <use xlink:href="#DejaVuSans-52" x="526.4375"/>
     <use xlink:href="#DejaVuSans-2d" x="591.919922"/>
     <use xlink:href="#DejaVuSans-50" x="628.003906"/>
     <use xlink:href="#DejaVuSans-32" x="688.306641"/>
     <use xlink:href="#DejaVuSans-2d" x="751.929688"/>
     <use xlink:href="#DejaVuSans-53" x="788.013672"/>
     <use xlink:href="#DejaVuSans-34" x="851.490234"/>
    </g>
   </g>
  </g>
  <g id="axes_2">
   <g id="patch_7">
    <path d="M 225.72 192.24 
L 234.036 192.24 
L 234.036 25.92 
L 225.72 25.92 
z
" style="fill: #ffffff"/>
   </g>
   <g id="QuadMesh_1">
    <path d="M 225.72 192.24 
L 234.036 192.24 
L 234.036 185.843077 
L 225.72 185.843077 
L 225.72 192.24 
" clip-path="url(#p00850a23ae)" style="fill: #440154"/>
    <path d="M 225.72 185.843077 
L 234.036 185.843077 
L 234.036 179.446154 
L 225.72 179.446154 
L 225.72 185.843077 
" clip-path="url(#p00850a23ae)" style="fill: #440154"/>
    <path d="M 225.72 179.446154 
L 234.036 179.446154 
L 234.036 173.049231 
L 225.72 173.049231 
L 225.72 179.446154 
" clip-path="url(#p00850a23ae)" style="fill: #440154"/>
    <path d="M 225.72 173.049231 
L 234.036 173.049231 
L 234.036 166.652308 
L 225.72 166.652308 
L 225.72 173.049231 
" clip-path="url(#p00850a23ae)" style="fill: #440154"/>
    <path d="M 225.72 166.652308 
L 234.036 166.652308 
L 234.036 160.255385 
L 225.72 160.255385 
L 225.72 166.652308 
" clip-path="url(#p00850a23ae)" style="fill: #440154"/>
    <path d="M 225.72 160.255385 
L 234.036 160.255385 
L 234.036 153.858462 
L 225.72 153.858462 
L 225.72 160.255385 
" clip-path="url(#p00850a23ae)" style="fill: #440154"/>
    <path d="M 225.72 153.858462 
L 234.036 153.858462 
L 234.036 147.461538 
L 225.72 147.461538 
L 225.72 153.858462 
" clip-path="url(#p00850a23ae)" style="fill: #440154"/>
    <path d="M 225.72 147.461538 
L 234.036 147.461538 
L 234.036 141.064615 
L 225.72 141.064615 
L 225.72 147.461538 
" clip-path="url(#p00850a23ae)" style="fill: #440154"/>
    <path d="M 225.72 141.064615 
L 234.036 141.064615 
L 234.036 134.667692 
L 225.72 134.667692 
L 225.72 141.064615 
" clip-path="url(#p00850a23ae)" style="fill: #440154"/>
    <path d="M 225.72 134.667692 
L 234.036 134.667692 
L 234.036 128.270769 
L 225.72 128.270769 
L 225.72 134.667692 
" clip-path="url(#p00850a23ae)" style="fill: #440154"/>
    <path d="M 225.72 128.270769 
L 234.036 128.270769 
L 234.036 121.873846 
L 225.72 121.873846 
L 225.72 128.270769 
" clip-path="url(#p00850a23ae)" style="fill: #440154"/>
    <path d="M 225.72 121.873846 
L 234.036 121.873846 
L 234.036 115.476923 
L 225.72 115.476923 
L 225.72 121.873846 
" clip-path="url(#p00850a23ae)" style="fill: #440154"/>
    <path d="M 225.72 115.476923 
L 234.036 115.476923 
L 234.036 109.08 
L 225.72 109.08 
L 225.72 115.476923 
" clip-path="url(#p00850a23ae)" style="fill: #440154"/>
    <path d="M 225.72 109.08 
L 234.036 109.08 
L 234.036 102.683077 
L 225.72 102.683077 
L 225.72 109.08 
" clip-path="url(#p00850a23ae)" style="fill: #471365"/>
    <path d="M 225.72 102.683077 
L 234.036 102.683077 
L 234.036 96.286154 
L 225.72 96.286154 
L 225.72 102.683077 
" clip-path="url(#p00850a23ae)" style="fill: #472d7b"/>
    <path d="M 225.72 96.286154 
L 234.036 96.286154 
L 234.036 89.889231 
L 225.72 89.889231 
L 225.72 96.286154 
" clip-path="url(#p00850a23ae)" style="fill: #414487"/>
    <path d="M 225.72 89.889231 
L 234.036 89.889231 
L 234.036 83.492308 
L 225.72 83.492308 
L 225.72 89.889231 
" clip-path="url(#p00850a23ae)" style="fill: #375a8c"/>
    <path d="M 225.72 83.492308 
L 234.036 83.492308 
L 234.036 77.095385 
L 225.72 77.095385 
L 225.72 83.492308 
" clip-path="url(#p00850a23ae)" style="fill: #2e6d8e"/>
    <path d="M 225.72 77.095385 
L 234.036 77.095385 
L 234.036 70.698462 
L 225.72 70.698462 
L 225.72 77.095385 
" clip-path="url(#p00850a23ae)" style="fill: #27808e"/>
    <path d="M 225.72 70.698462 
L 234.036 70.698462 
L 234.036 64.301538 
L 225.72 64.301538 
L 225.72 70.698462 
" clip-path="url(#p00850a23ae)" style="fill: #20928c"/>
    <path d="M 225.72 64.301538 
L 234.036 64.301538 
L 234.036 57.904615 
L 225.72 57.904615 
L 225.72 64.301538 
" clip-path="url(#p00850a23ae)" style="fill: #20a386"/>
    <path d="M 225.72 57.904615 
L 234.036 57.904615 
L 234.036 51.507692 
L 225.72 51.507692 
L 225.72 57.904615 
" clip-path="url(#p00850a23ae)" style="fill: #32b67a"/>
    <path d="M 225.72 51.507692 
L 234.036 51.507692 
L 234.036 45.110769 
L 225.72 45.110769 
L 225.72 51.507692 
" clip-path="url(#p00850a23ae)" style="fill: #54c568"/>
    <path d="M 225.72 45.110769 
L 234.036 45.110769 
L 234.036 38.713846 
L 225.72 38.713846 
L 225.72 45.110769 
" clip-path="url(#p00850a23ae)" style="fill: #81d34d"/>
    <path d="M 225.72 38.713846 
L 234.036 38.713846 
L 234.036 32.316923 
L 225.72 32.316923 
L 225.72 38.713846 
" clip-path="url(#p00850a23ae)" style="fill: #b2dd2d"/>
    <path d="M 225.72 32.316923 
L 234.036 32.316923 
L 234.036 25.92 
L 225.72 25.92 
L 225.72 32.316923 
" clip-path="url(#p00850a23ae)" style="fill: #e7e419"/>
   </g>
   <g id="matplotlib.axis_3"/>
   <g id="matplotlib.axis_4">
    <g id="ytick_6">
     <g id="line2d_9">
      <defs>
       <path id="mb4dc8f29f9" d="M 0 0 
L 3.5 0 
" style="stroke: #000000; stroke-width: 0.8"/>
      </defs>
      <g>
       <use xlink:href="#mb4dc8f29f9" x="234.036" y="179.446154" style="stroke: #000000; stroke-width: 0.8"/>
      </g>
     </g>
     <g id="text_14">
      <!-- $\mathdefault{290.0}$ -->
      <g transform="translate(241.036 183.245373) scale(0.1 -0.1)">
       <use xlink:href="#DejaVuSans-2212" transform="translate(0 0.78125)"/>
       <use xlink:href="#DejaVuSans-32" transform="translate(83.789062 0.78125)"/>
       <use xlink:href="#DejaVuSans-39" transform="translate(145.662109 0.78125)"/>
       <use xlink:href="#DejaVuSans-30" transform="translate(209.285156 0.78125)"/>
       <use xlink:href="#DejaVuSans-2e" transform="translate(272.908203 0.78125)"/>
       <use xlink:href="#DejaVuSans-30" transform="translate(304.695312 0.78125)"/>
      </g>
     </g>
    </g>
    <g id="ytick_7">
     <g id="line2d_10">
      <g>
       <use xlink:href="#mb4dc8f29f9" x="234.036" y="160.255385" style="stroke: #000000; stroke-width: 0.8"/>
      </g>
     </g>
     <g id="text_15">
      <!-- $\mathdefault{288.8}$ -->
      <g transform="translate(241.036 164.054603) scale(0.1 -0.1)">
       <defs>
        <path id="DejaVuSans-38" d="M 2034 2216 
Q 1584 2216 1326 1975 
Q 1069 1734 1069 1313 
Q 1069 891 1326 650 
Q 1584 409 2034 409 
Q 2484 409 2743 651 
Q 3003 894 3003 1313 
Q 3003 1734 2745 1975 
Q 2488 2216 2034 2216 
z
M 1403 2484 
Q 997 2584 770 2862 
Q 544 3141 544 3541 
Q 544 4100 942 4425 
Q 1341 4750 2034 4750 
Q 2731 4750 3128 4425 
Q 3525 4100 3525 3541 
Q 3525 3141 3298 2862 
Q 3072 2584 2669 2484 
Q 3125 2378 3379 2068 
Q 3634 1759 3634 1313 
Q 3634 634 3220 271 
Q 2806 -91 2034 -91 
Q 1263 -91 848 271 
Q 434 634 434 1313 
Q 434 1759 690 2068 
Q 947 2378 1403 2484 
z
M 1172 3481 
Q 1172 3119 1398 2916 
Q 1625 2713 2034 2713 
Q 2441 2713 2670 2916 
Q 2900 3119 2900 3481 
Q 2900 3844 2670 4047 
Q 2441 4250 2034 4250 
Q 1625 4250 1398 4047 
Q 1172 3844 1172 3481 
z
" transform="scale(0.015625)"/>
       </defs>
       <use xlink:href="#DejaVuSans-2212" transform="translate(0 0.78125)"/>
       <use xlink:href="#DejaVuSans-32" transform="translate(83.789062 0.78125)"/>
       <use xlink:href="#DejaVuSans-38" transform="translate(147.412109 0.78125)"/>
       <use xlink:href="#DejaVuSans-38" transform="translate(211.035156 0.78125)"/>
       <use xlink:href="#DejaVuSans-2e" transform="translate(274.658203 0.78125)"/>
       <use xlink:href="#DejaVuSans-38" transform="translate(303.820312 0.78125)"/>
      </g>
     </g>
    </g>
    <g id="ytick_8">
     <g id="line2d_11">
      <g>
       <use xlink:href="#mb4dc8f29f9" x="234.036" y="141.064615" style="stroke: #000000; stroke-width: 0.8"/>
      </g>
     </g>
     <g id="text_16">
      <!-- $\mathdefault{287.6}$ -->
      <g transform="translate(241.036 144.863834) scale(0.1 -0.1)">
       <defs>
        <path id="DejaVuSans-36" d="M 2113 2584 
Q 1688 2584 1439 2293 
Q 1191 2003 1191 1497 
Q 1191 994 1439 701 
Q 1688 409 2113 409 
Q 2538 409 2786 701 
Q 3034 994 3034 1497 
Q 3034 2003 2786 2293 
Q 2538 2584 2113 2584 
z
M 3366 4563 
L 3366 3988 
Q 3128 4100 2886 4159 
Q 2644 4219 2406 4219 
Q 1781 4219 1451 3797 
Q 1122 3375 1075 2522 
Q 1259 2794 1537 2939 
Q 1816 3084 2150 3084 
Q 2853 3084 3261 2657 
Q 3669 2231 3669 1497 
Q 3669 778 3244 343 
Q 2819 -91 2113 -91 
Q 1303 -91 875 529 
Q 447 1150 447 2328 
Q 447 3434 972 4092 
Q 1497 4750 2381 4750 
Q 2619 4750 2861 4703 
Q 3103 4656 3366 4563 
z
" transform="scale(0.015625)"/>
       </defs>
       <use xlink:href="#DejaVuSans-2212" transform="translate(0 0.78125)"/>
       <use xlink:href="#DejaVuSans-32" transform="translate(83.789062 0.78125)"/>
       <use xlink:href="#DejaVuSans-38" transform="translate(147.412109 0.78125)"/>
       <use xlink:href="#DejaVuSans-37" transform="translate(211.035156 0.78125)"/>
       <use xlink:href="#DejaVuSans-2e" transform="translate(274.658203 0.78125)"/>
       <use xlink:href="#DejaVuSans-36" transform="translate(306.445312 0.78125)"/>
      </g>
     </g>
    </g>
    <g id="ytick_9">
     <g id="line2d_12">
      <g>
       <use xlink:href="#mb4dc8f29f9" x="234.036" y="121.873846" style="stroke: #000000; stroke-width: 0.8"/>
      </g>
     </g>
     <g id="text_17">
      <!-- $\mathdefault{286.4}$ -->
      <g transform="translate(241.036 125.673065) scale(0.1 -0.1)">
       <use xlink:href="#DejaVuSans-2212" transform="translate(0 0.78125)"/>
       <use xlink:href="#DejaVuSans-32" transform="translate(83.789062 0.78125)"/>
       <use xlink:href="#DejaVuSans-38" transform="translate(147.412109 0.78125)"/>
       <use xlink:href="#DejaVuSans-36" transform="translate(211.035156 0.78125)"/>
       <use xlink:href="#DejaVuSans-2e" transform="translate(274.658203 0.78125)"/>
       <use xlink:href="#DejaVuSans-34" transform="translate(306.445312 0.78125)"/>
      </g>
     </g>
    </g>
    <g id="ytick_10">
     <g id="line2d_13">
      <g>
       <use xlink:href="#mb4dc8f29f9" x="234.036" y="102.683077" style="stroke: #000000; stroke-width: 0.8"/>
      </g>
     </g>
     <g id="text_18">
      <!-- $\mathdefault{285.2}$ -->
      <g transform="translate(241.036 106.482296) scale(0.1 -0.1)">
       <use xlink:href="#DejaVuSans-2212" transform="translate(0 0.78125)"/>
       <use xlink:href="#DejaVuSans-32" transform="translate(83.789062 0.78125)"/>
       <use xlink:href="#DejaVuSans-38" transform="translate(147.412109 0.78125)"/>
       <use xlink:href="#DejaVuSans-35" transform="translate(211.035156 0.78125)"/>
       <use xlink:href="#DejaVuSans-2e" transform="translate(274.658203 0.78125)"/>
       <use xlink:href="#DejaVuSans-32" transform="translate(300.945312 0.78125)"/>
      </g>
     </g>
    </g>
    <g id="ytick_11">
     <g id="line2d_14">
      <g>
       <use xlink:href="#mb4dc8f29f9" x="234.036" y="83.492308" style="stroke: #000000; stroke-width: 0.8"/>
      </g>
     </g>
     <g id="text_19">
      <!-- $\mathdefault{284.0}$ -->
      <g transform="translate(241.036 87.291526) scale(0.1 -0.1)">
       <use xlink:href="#DejaVuSans-2212" transform="translate(0 0.78125)"/>
       <use xlink:href="#DejaVuSans-32" transform="translate(83.789062 0.78125)"/>
       <use xlink:href="#DejaVuSans-38" transform="translate(147.412109 0.78125)"/>
       <use xlink:href="#DejaVuSans-34" transform="translate(211.035156 0.78125)"/>
       <use xlink:href="#DejaVuSans-2e" transform="translate(274.658203 0.78125)"/>
       <use xlink:href="#DejaVuSans-30" transform="translate(306.445312 0.78125)"/>
      </g>
     </g>
    </g>
    <g id="ytick_12">
     <g id="line2d_15">
      <g>
       <use xlink:href="#mb4dc8f29f9" x="234.036" y="64.301538" style="stroke: #000000; stroke-width: 0.8"/>
      </g>
     </g>
     <g id="text_20">
      <!-- $\mathdefault{282.8}$ -->
      <g transform="translate(241.036 68.100757) scale(0.1 -0.1)">
       <use xlink:href="#DejaVuSans-2212" transform="translate(0 0.78125)"/>
       <use xlink:href="#DejaVuSans-32" transform="translate(83.789062 0.78125)"/>
       <use xlink:href="#DejaVuSans-38" transform="translate(147.412109 0.78125)"/>
       <use xlink:href="#DejaVuSans-32" transform="translate(211.035156 0.78125)"/>
       <use xlink:href="#DejaVuSans-2e" transform="translate(274.658203 0.78125)"/>
       <use xlink:href="#DejaVuSans-38" transform="translate(303.820312 0.78125)"/>
      </g>
     </g>
    </g>
    <g id="ytick_13">
     <g id="line2d_16">
      <g>
       <use xlink:href="#mb4dc8f29f9" x="234.036" y="45.110769" style="stroke: #000000; stroke-width: 0.8"/>
      </g>
     </g>
     <g id="text_21">
      <!-- $\mathdefault{281.6}$ -->
      <g transform="translate(241.036 48.909988) scale(0.1 -0.1)">
       <use xlink:href="#DejaVuSans-2212" transform="translate(0 0.78125)"/>
       <use xlink:href="#DejaVuSans-32" transform="translate(83.789062 0.78125)"/>
       <use xlink:href="#DejaVuSans-38" transform="translate(147.412109 0.78125)"/>
       <use xlink:href="#DejaVuSans-31" transform="translate(211.035156 0.78125)"/>
       <use xlink:href="#DejaVuSans-2e" transform="translate(274.658203 0.78125)"/>
       <use xlink:href="#DejaVuSans-36" transform="translate(306.445312 0.78125)"/>
      </g>
     </g>
    </g>
    <g id="ytick_14">
     <g id="line2d_17">
      <g>
       <use xlink:href="#mb4dc8f29f9" x="234.036" y="25.92" style="stroke: #000000; stroke-width: 0.8"/>
      </g>
     </g>
     <g id="text_22">
      <!-- $\mathdefault{280.4}$ -->
      <g transform="translate(241.036 29.719219) scale(0.1 -0.1)">
       <use xlink:href="#DejaVuSans-2212" transform="translate(0 0.78125)"/>
       <use xlink:href="#DejaVuSans-32" transform="translate(83.789062 0.78125)"/>
       <use xlink:href="#DejaVuSans-38" transform="translate(147.412109 0.78125)"/>
       <use xlink:href="#DejaVuSans-30" transform="translate(211.035156 0.78125)"/>
       <use xlink:href="#DejaVuSans-2e" transform="translate(274.658203 0.78125)"/>
       <use xlink:href="#DejaVuSans-34" transform="translate(306.445312 0.78125)"/>
      </g>
     </g>
    </g>
    <g id="text_23">
     <!-- log likelihood -->
     <g transform="translate(291.254125 148.704375) rotate(-90) scale(0.12 -0.12)">
      <defs>
       <path id="DejaVuSans-67" d="M 2906 1791 
Q 2906 2416 2648 2759 
Q 2391 3103 1925 3103 
Q 1463 3103 1205 2759 
Q 947 2416 947 1791 
Q 947 1169 1205 825 
Q 1463 481 1925 481 
Q 2391 481 2648 825 
Q 2906 1169 2906 1791 
z
M 3481 434 
Q 3481 -459 3084 -895 
Q 2688 -1331 1869 -1331 
Q 1566 -1331 1297 -1286 
Q 1028 -1241 775 -1147 
L 775 -588 
Q 1028 -725 1275 -790 
Q 1522 -856 1778 -856 
Q 2344 -856 2625 -561 
Q 2906 -266 2906 331 
L 2906 616 
Q 2728 306 2450 153 
Q 2172 0 1784 0 
Q 1141 0 747 490 
Q 353 981 353 1791 
Q 353 2603 747 3093 
Q 1141 3584 1784 3584 
Q 2172 3584 2450 3431 
Q 2728 3278 2906 2969 
L 2906 3500 
L 3481 3500 
L 3481 434 
z
" transform="scale(0.015625)"/>
       <path id="DejaVuSans-6b" d="M 581 4863 
L 1159 4863 
L 1159 1991 
L 2875 3500 
L 3609 3500 
L 1753 1863 
L 3688 0 
L 2938 0 
L 1159 1709 
L 1159 0 
L 581 0 
L 581 4863 
z
" transform="scale(0.015625)"/>
       <path id="DejaVuSans-68" d="M 3513 2113 
L 3513 0 
L 2938 0 
L 2938 2094 
Q 2938 2591 2744 2837 
Q 2550 3084 2163 3084 
Q 1697 3084 1428 2787 
Q 1159 2491 1159 1978 
L 1159 0 
L 581 0 
L 581 4863 
L 1159 4863 
L 1159 2956 
Q 1366 3272 1645 3428 
Q 1925 3584 2291 3584 
Q 2894 3584 3203 3211 
Q 3513 2838 3513 2113 
z
" transform="scale(0.015625)"/>
      </defs>
      <use xlink:href="#DejaVuSans-6c"/>
      <use xlink:href="#DejaVuSans-6f" x="27.783203"/>
      <use xlink:href="#DejaVuSans-67" x="88.964844"/>
      <use xlink:href="#DejaVuSans-20" x="152.441406"/>
      <use xlink:href="#DejaVuSans-6c" x="184.228516"/>
      <use xlink:href="#DejaVuSans-69" x="212.011719"/>
      <use xlink:href="#DejaVuSans-6b" x="239.794922"/>
      <use xlink:href="#DejaVuSans-65" x="294.080078"/>
      <use xlink:href="#DejaVuSans-6c" x="355.603516"/>
      <use xlink:href="#DejaVuSans-69" x="383.386719"/>
      <use xlink:href="#DejaVuSans-68" x="411.169922"/>
      <use xlink:href="#DejaVuSans-6f" x="474.548828"/>
      <use xlink:href="#DejaVuSans-6f" x="535.730469"/>
      <use xlink:href="#DejaVuSans-64" x="596.912109"/>
     </g>
    </g>
    <g id="text_24">
     <!-- $\times\mathdefault{10^{3}}\mathdefault{}$ -->
     <g transform="translate(208.036 22.92) scale(0.1 -0.1)">
      <defs>
       <path id="DejaVuSans-d7" d="M 4488 3438 
L 3059 2003 
L 4488 575 
L 4116 197 
L 2681 1631 
L 1247 197 
L 878 575 
L 2303 2003 
L 878 3438 
L 1247 3816 
L 2681 2381 
L 4116 3816 
L 4488 3438 
z
" transform="scale(0.015625)"/>
      </defs>
      <use xlink:href="#DejaVuSans-d7" transform="translate(0 0.765625)"/>
      <use xlink:href="#DejaVuSans-31" transform="translate(83.789062 0.765625)"/>
      <use xlink:href="#DejaVuSans-30" transform="translate(147.412109 0.765625)"/>
      <use xlink:href="#DejaVuSans-33" transform="translate(211.992188 39.046875) scale(0.7)"/>
     </g>
    </g>
   </g>
   <g id="LineCollection_1"/>
   <g id="patch_8">
    <path d="M 225.72 192.24 
L 229.878 192.24 
L 234.036 192.24 
L 234.036 25.92 
L 229.878 25.92 
L 225.72 25.92 
L 225.72 192.24 
z
" style="fill: none; stroke: #000000; stroke-width: 0.8; stroke-linejoin: miter; stroke-linecap: square"/>
   </g>
  </g>
 </g>
 <defs>
  <clipPath id="p08af17e351">
   <rect x="36" y="25.92" width="178.56" height="166.32"/>
  </clipPath>
  <clipPath id="p00850a23ae">
   <rect x="225.72" y="25.92" width="8.316" height="166.32"/>
  </clipPath>
 </defs>
</svg>
