<?xml version="1.0" encoding="utf-8" standalone="no"?>
<!DOCTYPE svg PUBLIC "-//W3C//DTD SVG 1.1//EN"
  "http://www.w3.org/Graphics/SVG/1.1/DTD/svg11.dtd">
<svg xmlns:xlink="http://www.w3.org/1999/xlink" width="288pt" height="216pt" viewBox="0 0 288 216" xmlns="http://www.w3.org/2000/svg" version="1.1">
 <metadata>
  <rdf:RDF xmlns:dc="http://purl.org/dc/elements/1.1/" xmlns:cc="http://creativecommons.org/ns#" xmlns:rdf="http://www.w3.org/1999/02/22-rdf-syntax-ns#">
   <cc:Work>
    <dc:type rdf:resource="http://purl.org/dc/dcmitype/StillImage"/>
    <dc:date>2024-12-14T18:10:21.570295</dc:date>
    <dc:format>image/svg+xml</dc:format>
    <dc:creator>
     <cc:Agent>
      <dc:title>Matplotlib v3.8.4, https://matplotlib.org/</dc:title>
     </cc:Agent>
    </dc:creator>
   </cc:Work>
  </rdf:RDF>
 </metadata>
 <defs>
  <style type="text/css">*{stroke-linejoin: round; stroke-linecap: butt}</style>
 </defs>
 <g id="figure_1">
  <g id="patch_1">
   <path d="M 0 216 
L 288 216 
L 288 0 
L 0 0 
z
" style="fill: #ffffff"/>
  </g>
  <g id="axes_1">
   <g id="patch_2">
    <path d="M 36 192.24 
L 214.56 192.24 
L 214.56 25.92 
L 36 25.92 
z
" style="fill: #ffffff"/>
   </g>
   <g id="QuadContourSet_1">
    <path d="M 53.500938 109.08 
L 53.856 108.56586 
L 59.808 103.593979 
L 59.920851 103.536 
L 65.76 102.534387 
L 71.712 101.883835 
L 77.664 101.463397 
L 83.616 101.193344 
L 89.568 101.025413 
L 95.52 100.928919 
L 101.472 100.883567 
L 107.424 100.875496 
L 113.376 100.894989 
L 119.328 100.935074 
L 125.28 100.990659 
L 131.232 101.057961 
L 137.184 101.13413 
L 143.136 101.216996 
L 149.088 101.304887 
L 155.04 101.396505 
L 160.992 101.490833 
L 166.944 101.587072 
L 172.896 101.684589 
L 178.848 101.78288 
L 184.8 101.881544 
L 190.752 101.98026 
L 196.704 102.078773 
L 202.656 102.176877 
L 208.608 102.274409 
L 214.56 102.371239 
L 214.56 103.536 
L 214.56 109.08 
L 214.56 114.624 
L 214.56 115.434888 
L 208.608 115.519927 
L 202.656 115.605583 
L 196.704 115.691741 
L 190.752 115.778257 
L 184.8 115.864953 
L 178.848 115.951602 
L 172.896 116.037924 
L 166.944 116.123567 
L 160.992 116.208087 
L 155.04 116.290929 
L 149.088 116.37139 
L 143.136 116.448579 
L 137.184 116.521354 
L 131.232 116.588248 
L 125.28 116.647354 
L 119.328 116.696171 
L 113.376 116.731375 
L 107.424 116.748494 
L 101.472 116.741406 
L 95.52 116.701576 
L 89.568 116.616832 
L 83.616 116.469351 
L 77.664 116.232182 
L 71.712 115.862941 
L 65.76 115.291606 
L 61.328386 114.624 
L 59.808 113.933006 
L 53.856 109.534815 
z
" clip-path="url(#p5b446e2195)" style="fill: #eae51a"/>
    <path d="M 45.979624 109.08 
L 47.904 103.671964 
L 47.997896 103.536 
L 53.856 100.703838 
L 59.808 99.043853 
L 65.76 98.022882 
L 66.042548 97.992 
L 71.712 97.610694 
L 77.664 97.351982 
L 83.616 97.185808 
L 89.568 97.082474 
L 95.52 97.023098 
L 101.472 96.995191 
L 107.424 96.990224 
L 113.376 97.002219 
L 119.328 97.026885 
L 125.28 97.061089 
L 131.232 97.102502 
L 137.184 97.149372 
L 143.136 97.200362 
L 149.088 97.254445 
L 155.04 97.310821 
L 160.992 97.368865 
L 166.944 97.428084 
L 172.896 97.48809 
L 178.848 97.548572 
L 184.8 97.609284 
L 190.752 97.670028 
L 196.704 97.730646 
L 202.656 97.791013 
L 208.608 97.851028 
L 214.56 97.910612 
L 214.56 97.992 
L 214.56 102.371239 
L 208.608 102.274409 
L 202.656 102.176877 
L 196.704 102.078773 
L 190.752 101.98026 
L 184.8 101.881544 
L 178.848 101.78288 
L 172.896 101.684589 
L 166.944 101.587072 
L 160.992 101.490833 
L 155.04 101.396505 
L 149.088 101.304887 
L 143.136 101.216996 
L 137.184 101.13413 
L 131.232 101.057961 
L 125.28 100.990659 
L 119.328 100.935074 
L 113.376 100.894989 
L 107.424 100.875496 
L 101.472 100.883567 
L 95.52 100.928919 
L 89.568 101.025413 
L 83.616 101.193344 
L 77.664 101.463397 
L 71.712 101.883835 
L 65.76 102.534387 
L 59.920851 103.536 
L 59.808 103.593979 
L 53.856 108.56586 
L 53.500938 109.08 
L 53.856 109.534815 
L 59.808 113.933006 
L 61.328386 114.624 
L 65.76 115.291606 
L 71.712 115.862941 
L 77.664 116.232182 
L 83.616 116.469351 
L 89.568 116.616832 
L 95.52 116.701576 
L 101.472 116.741406 
L 107.424 116.748494 
L 113.376 116.731375 
L 119.328 116.696171 
L 125.28 116.647354 
L 131.232 116.588248 
L 137.184 116.521354 
L 143.136 116.448579 
L 149.088 116.37139 
L 155.04 116.290929 
L 160.992 116.208087 
L 166.944 116.123567 
L 172.896 116.037924 
L 178.848 115.951602 
L 184.8 115.864953 
L 190.752 115.778257 
L 196.704 115.691741 
L 202.656 115.605583 
L 208.608 115.519927 
L 214.56 115.434888 
L 214.56 119.397027 
L 208.608 119.482066 
L 202.656 119.567721 
L 196.704 119.653879 
L 190.752 119.740396 
L 184.8 119.827091 
L 178.848 119.913741 
L 172.896 120.000063 
L 166.944 120.085705 
L 161.148692 120.168 
L 160.992 120.169296 
L 155.04 120.217539 
L 149.088 120.264396 
L 143.136 120.309347 
L 137.184 120.351728 
L 131.232 120.390684 
L 125.28 120.425105 
L 119.328 120.453533 
L 113.376 120.474035 
L 107.424 120.484004 
L 101.472 120.479876 
L 95.52 120.456681 
L 89.568 120.40733 
L 83.616 120.321444 
L 77.664 120.183328 
L 77.239724 120.168 
L 71.712 119.825079 
L 65.76 119.253745 
L 59.808 118.357098 
L 53.856 116.89925 
L 48.497296 114.624 
L 47.904 113.864019 
z
" clip-path="url(#p5b446e2195)" style="fill: #c0df25"/>
    <path d="M 41.629263 109.08 
L 41.952 106.886176 
L 43.144115 103.536 
L 47.904 99.06989 
L 50.133531 97.992 
L 53.856 96.884596 
L 59.808 95.863145 
L 65.76 95.234903 
L 71.712 94.834593 
L 77.664 94.575882 
L 83.616 94.409708 
L 89.568 94.306374 
L 95.52 94.246997 
L 101.472 94.21909 
L 107.424 94.214124 
L 113.376 94.226119 
L 119.328 94.250785 
L 125.28 94.284988 
L 131.232 94.326402 
L 137.184 94.373271 
L 143.136 94.424262 
L 149.088 94.478345 
L 155.04 94.534721 
L 160.992 94.592764 
L 166.944 94.651984 
L 172.896 94.71199 
L 178.848 94.772472 
L 184.8 94.833184 
L 190.752 94.893927 
L 196.704 94.954546 
L 202.656 95.014913 
L 208.608 95.074928 
L 214.56 95.134511 
L 214.56 97.910612 
L 208.608 97.851028 
L 202.656 97.791013 
L 196.704 97.730646 
L 190.752 97.670028 
L 184.8 97.609284 
L 178.848 97.548572 
L 172.896 97.48809 
L 166.944 97.428084 
L 160.992 97.368865 
L 155.04 97.310821 
L 149.088 97.254445 
L 143.136 97.200362 
L 137.184 97.149372 
L 131.232 97.102502 
L 125.28 97.061089 
L 119.328 97.026885 
L 113.376 97.002219 
L 107.424 96.990224 
L 101.472 96.995191 
L 95.52 97.023098 
L 89.568 97.082474 
L 83.616 97.185808 
L 77.664 97.351982 
L 71.712 97.610694 
L 66.042548 97.992 
L 65.76 98.022882 
L 59.808 99.043853 
L 53.856 100.703838 
L 47.997896 103.536 
L 47.904 103.671964 
L 45.979624 109.08 
L 47.904 113.864019 
L 48.497296 114.624 
L 53.856 116.89925 
L 59.808 118.357098 
L 65.76 119.253745 
L 71.712 119.825079 
L 77.239724 120.168 
L 77.664 120.183328 
L 83.616 120.321444 
L 89.568 120.40733 
L 95.52 120.456681 
L 101.472 120.479876 
L 107.424 120.484004 
L 113.376 120.474035 
L 119.328 120.453533 
L 125.28 120.425105 
L 131.232 120.390684 
L 137.184 120.351728 
L 143.136 120.309347 
L 149.088 120.264396 
L 155.04 120.217539 
L 160.992 120.169296 
L 161.148692 120.168 
L 166.944 120.085705 
L 172.896 120.000063 
L 178.848 119.913741 
L 184.8 119.827091 
L 190.752 119.740396 
L 196.704 119.653879 
L 202.656 119.567721 
L 208.608 119.482066 
L 214.56 119.397027 
L 214.56 120.168 
L 214.56 122.026385 
L 208.608 122.075908 
L 202.656 122.12579 
L 196.704 122.175964 
L 190.752 122.226347 
L 184.8 122.276835 
L 178.848 122.327295 
L 172.896 122.377565 
L 166.944 122.427439 
L 160.992 122.47666 
L 155.04 122.524903 
L 149.088 122.57176 
L 143.136 122.616711 
L 137.184 122.659092 
L 131.232 122.698048 
L 125.28 122.732469 
L 119.328 122.760897 
L 113.376 122.781399 
L 107.424 122.791368 
L 101.472 122.78724 
L 95.52 122.764045 
L 89.568 122.714694 
L 83.616 122.628808 
L 77.664 122.490692 
L 71.712 122.275663 
L 65.76 121.942945 
L 59.808 121.420779 
L 53.856 120.571797 
L 52.222921 120.168 
L 47.904 118.334231 
L 43.401437 114.624 
L 41.952 111.020686 
z
" clip-path="url(#p5b446e2195)" style="fill: #95d840"/>
    <path d="M 40.563377 114.624 
L 39.641408 109.08 
L 40.456994 103.536 
L 41.952 100.143034 
L 44.244527 97.992 
L 47.904 95.879167 
L 53.856 94.108496 
L 59.808 93.087045 
L 65.76 92.458802 
L 65.920616 92.448 
L 71.712 92.161954 
L 77.664 91.971961 
L 83.616 91.849926 
L 89.568 91.77404 
L 95.52 91.730435 
L 101.472 91.70994 
L 107.424 91.706293 
L 113.376 91.715102 
L 119.328 91.733216 
L 125.28 91.758334 
L 131.232 91.788748 
L 137.184 91.823168 
L 143.136 91.860614 
L 149.088 91.900332 
L 155.04 91.941733 
L 160.992 91.984359 
L 166.944 92.027849 
L 172.896 92.071916 
L 178.848 92.116333 
L 184.8 92.160918 
L 190.752 92.205527 
L 196.704 92.250044 
L 202.656 92.294377 
L 208.608 92.338451 
L 214.56 92.382208 
L 214.56 92.448 
L 214.56 95.134511 
L 208.608 95.074928 
L 202.656 95.014913 
L 196.704 94.954546 
L 190.752 94.893927 
L 184.8 94.833184 
L 178.848 94.772472 
L 172.896 94.71199 
L 166.944 94.651984 
L 160.992 94.592764 
L 155.04 94.534721 
L 149.088 94.478345 
L 143.136 94.424262 
L 137.184 94.373271 
L 131.232 94.326402 
L 125.28 94.284988 
L 119.328 94.250785 
L 113.376 94.226119 
L 107.424 94.214124 
L 101.472 94.21909 
L 95.52 94.246997 
L 89.568 94.306374 
L 83.616 94.409708 
L 77.664 94.575882 
L 71.712 94.834593 
L 65.76 95.234903 
L 59.808 95.863145 
L 53.856 96.884596 
L 50.133531 97.992 
L 47.904 99.06989 
L 43.144115 103.536 
L 41.952 106.886176 
L 41.629263 109.08 
L 41.952 111.020686 
L 43.401437 114.624 
L 47.904 118.334231 
L 52.222921 120.168 
L 53.856 120.571797 
L 59.808 121.420779 
L 65.76 121.942945 
L 71.712 122.275663 
L 77.664 122.490692 
L 83.616 122.628808 
L 89.568 122.714694 
L 95.52 122.764045 
L 101.472 122.78724 
L 107.424 122.791368 
L 113.376 122.781399 
L 119.328 122.760897 
L 125.28 122.732469 
L 131.232 122.698048 
L 137.184 122.659092 
L 143.136 122.616711 
L 149.088 122.57176 
L 155.04 122.524903 
L 160.992 122.47666 
L 166.944 122.427439 
L 172.896 122.377565 
L 178.848 122.327295 
L 184.8 122.276835 
L 190.752 122.226347 
L 196.704 122.175964 
L 202.656 122.12579 
L 208.608 122.075908 
L 214.56 122.026385 
L 214.56 124.333749 
L 208.608 124.383272 
L 202.656 124.433154 
L 196.704 124.483328 
L 190.752 124.533712 
L 184.8 124.584199 
L 178.848 124.63466 
L 172.896 124.68493 
L 166.944 124.734803 
L 160.992 124.784024 
L 155.04 124.832267 
L 149.088 124.879124 
L 143.136 124.924075 
L 137.184 124.966456 
L 131.232 125.005412 
L 125.28 125.039833 
L 119.328 125.068262 
L 113.376 125.088763 
L 107.424 125.098732 
L 101.472 125.094605 
L 95.52 125.071409 
L 89.568 125.022058 
L 83.616 124.936172 
L 77.664 124.798056 
L 71.712 124.583027 
L 65.76 124.250309 
L 59.808 123.728144 
L 53.856 122.879161 
L 47.904 121.407463 
L 45.32111 120.168 
L 41.952 117.391764 
z
" clip-path="url(#p5b446e2195)" style="fill: #6ece58"/>
    <path d="M 41.357017 120.168 
L 38.575522 114.624 
L 37.653553 109.08 
L 38.469139 103.536 
L 40.911931 97.992 
L 41.952 96.539513 
L 47.904 93.103066 
L 50.105965 92.448 
L 53.856 91.628722 
L 59.808 90.878588 
L 65.76 90.417219 
L 71.712 90.12324 
L 77.664 89.933247 
L 83.616 89.811212 
L 89.568 89.735325 
L 95.52 89.69172 
L 101.472 89.671226 
L 107.424 89.667579 
L 113.376 89.676387 
L 119.328 89.694502 
L 125.28 89.71962 
L 131.232 89.750033 
L 137.184 89.784454 
L 143.136 89.8219 
L 149.088 89.861617 
L 155.04 89.903019 
L 160.992 89.945645 
L 166.944 89.989135 
L 172.896 90.033202 
L 178.848 90.077619 
L 184.8 90.122204 
L 190.752 90.166813 
L 196.704 90.21133 
L 202.656 90.255663 
L 208.608 90.299737 
L 214.56 90.343493 
L 214.56 92.382208 
L 208.608 92.338451 
L 202.656 92.294377 
L 196.704 92.250044 
L 190.752 92.205527 
L 184.8 92.160918 
L 178.848 92.116333 
L 172.896 92.071916 
L 166.944 92.027849 
L 160.992 91.984359 
L 155.04 91.941733 
L 149.088 91.900332 
L 143.136 91.860614 
L 137.184 91.823168 
L 131.232 91.788748 
L 125.28 91.758334 
L 119.328 91.733216 
L 113.376 91.715102 
L 107.424 91.706293 
L 101.472 91.70994 
L 95.52 91.730435 
L 89.568 91.77404 
L 83.616 91.849926 
L 77.664 91.971961 
L 71.712 92.161954 
L 65.920616 92.448 
L 65.76 92.458802 
L 59.808 93.087045 
L 53.856 94.108496 
L 47.904 95.879167 
L 44.244527 97.992 
L 41.952 100.143034 
L 40.456994 103.536 
L 39.641408 109.08 
L 40.563377 114.624 
L 41.952 117.391764 
L 45.32111 120.168 
L 47.904 121.407463 
L 53.856 122.879161 
L 59.808 123.728144 
L 65.76 124.250309 
L 71.712 124.583027 
L 77.664 124.798056 
L 83.616 124.936172 
L 89.568 125.022058 
L 95.52 125.071409 
L 101.472 125.094605 
L 107.424 125.098732 
L 113.376 125.088763 
L 119.328 125.068262 
L 125.28 125.039833 
L 131.232 125.005412 
L 137.184 124.966456 
L 143.136 124.924075 
L 149.088 124.879124 
L 155.04 124.832267 
L 160.992 124.784024 
L 166.944 124.734803 
L 172.896 124.68493 
L 178.848 124.63466 
L 184.8 124.584199 
L 190.752 124.533712 
L 196.704 124.483328 
L 202.656 124.433154 
L 208.608 124.383272 
L 214.56 124.333749 
L 214.56 125.712 
L 214.56 126.353131 
L 208.608 126.387304 
L 202.656 126.421725 
L 196.704 126.456348 
L 190.752 126.491115 
L 184.8 126.525953 
L 178.848 126.560773 
L 172.896 126.595462 
L 166.944 126.629877 
L 160.992 126.663842 
L 155.04 126.697132 
L 149.088 126.729465 
L 143.136 126.760484 
L 137.184 126.789728 
L 131.232 126.81661 
L 125.28 126.840362 
L 119.328 126.859979 
L 113.376 126.874126 
L 107.424 126.881005 
L 101.472 126.878157 
L 95.52 126.862151 
L 89.568 126.828096 
L 83.616 126.768831 
L 77.664 126.673525 
L 71.712 126.525145 
L 65.76 126.295554 
L 59.808 125.935235 
L 57.53997 125.712 
L 53.856 125.186525 
L 47.904 123.714827 
L 41.952 120.858614 
z
" clip-path="url(#p5b446e2195)" style="fill: #4cc26c"/>
    <path d="M 39.369162 120.168 
L 36.587667 114.624 
L 36 111.090234 
L 36 109.08 
L 36 106.807556 
L 36.481284 103.536 
L 38.924076 97.992 
L 41.952 93.763412 
L 44.230323 92.448 
L 47.904 90.890354 
L 53.856 89.590008 
L 59.808 88.839874 
L 65.76 88.378505 
L 71.712 88.084525 
L 77.664 87.894533 
L 83.616 87.772498 
L 89.568 87.696611 
L 95.52 87.653006 
L 101.472 87.632512 
L 107.424 87.628865 
L 113.376 87.637673 
L 119.328 87.655788 
L 125.28 87.680906 
L 131.232 87.711319 
L 137.184 87.74574 
L 143.136 87.783186 
L 149.088 87.822903 
L 155.04 87.864305 
L 160.992 87.906931 
L 166.944 87.950421 
L 172.896 87.994488 
L 178.848 88.038905 
L 184.8 88.08349 
L 190.752 88.128099 
L 196.704 88.172616 
L 202.656 88.216949 
L 208.608 88.261022 
L 214.56 88.304779 
L 214.56 90.343493 
L 208.608 90.299737 
L 202.656 90.255663 
L 196.704 90.21133 
L 190.752 90.166813 
L 184.8 90.122204 
L 178.848 90.077619 
L 172.896 90.033202 
L 166.944 89.989135 
L 160.992 89.945645 
L 155.04 89.903019 
L 149.088 89.861617 
L 143.136 89.8219 
L 137.184 89.784454 
L 131.232 89.750033 
L 125.28 89.71962 
L 119.328 89.694502 
L 113.376 89.676387 
L 107.424 89.667579 
L 101.472 89.671226 
L 95.52 89.69172 
L 89.568 89.735325 
L 83.616 89.811212 
L 77.664 89.933247 
L 71.712 90.12324 
L 65.76 90.417219 
L 59.808 90.878588 
L 53.856 91.628722 
L 50.105965 92.448 
L 47.904 93.103066 
L 41.952 96.539513 
L 40.911931 97.992 
L 38.469139 103.536 
L 37.653553 109.08 
L 38.575522 114.624 
L 41.357017 120.168 
L 41.952 120.858614 
L 47.904 123.714827 
L 53.856 125.186525 
L 57.53997 125.712 
L 59.808 125.935235 
L 65.76 126.295554 
L 71.712 126.525145 
L 77.664 126.673525 
L 83.616 126.768831 
L 89.568 126.828096 
L 95.52 126.862151 
L 101.472 126.878157 
L 107.424 126.881005 
L 113.376 126.874126 
L 119.328 126.859979 
L 125.28 126.840362 
L 131.232 126.81661 
L 137.184 126.789728 
L 143.136 126.760484 
L 149.088 126.729465 
L 155.04 126.697132 
L 160.992 126.663842 
L 166.944 126.629877 
L 172.896 126.595462 
L 178.848 126.560773 
L 184.8 126.525953 
L 190.752 126.491115 
L 196.704 126.456348 
L 202.656 126.421725 
L 208.608 126.387304 
L 214.56 126.353131 
L 214.56 127.94532 
L 208.608 127.979493 
L 202.656 128.013913 
L 196.704 128.048536 
L 190.752 128.083303 
L 184.8 128.118141 
L 178.848 128.152961 
L 172.896 128.18765 
L 166.944 128.222065 
L 160.992 128.25603 
L 155.04 128.28932 
L 149.088 128.321654 
L 143.136 128.352672 
L 137.184 128.381917 
L 131.232 128.408798 
L 125.28 128.43255 
L 119.328 128.452167 
L 113.376 128.466314 
L 107.424 128.473193 
L 101.472 128.470345 
L 95.52 128.454339 
L 89.568 128.420285 
L 83.616 128.361019 
L 77.664 128.265713 
L 71.712 128.117333 
L 65.76 127.887742 
L 59.808 127.527423 
L 53.856 126.941586 
L 47.904 125.926046 
L 47.257599 125.712 
L 41.952 123.165978 
z
" clip-path="url(#p5b446e2195)" style="fill: #31b57b"/>
    <path d="M 37.381307 120.168 
L 36 117.414817 
L 36 114.624 
L 36 111.090234 
L 36.587667 114.624 
L 39.369162 120.168 
L 41.952 123.165978 
L 47.257599 125.712 
L 47.904 125.926046 
L 53.856 126.941586 
L 59.808 127.527423 
L 65.76 127.887742 
L 71.712 128.117333 
L 77.664 128.265713 
L 83.616 128.361019 
L 89.568 128.420285 
L 95.52 128.454339 
L 101.472 128.470345 
L 107.424 128.473193 
L 113.376 128.466314 
L 119.328 128.452167 
L 125.28 128.43255 
L 131.232 128.408798 
L 137.184 128.381917 
L 143.136 128.352672 
L 149.088 128.321654 
L 155.04 128.28932 
L 160.992 128.25603 
L 166.944 128.222065 
L 172.896 128.18765 
L 178.848 128.152961 
L 184.8 128.118141 
L 190.752 128.083303 
L 196.704 128.048536 
L 202.656 128.013913 
L 208.608 127.979493 
L 214.56 127.94532 
L 214.56 129.537508 
L 208.608 129.571681 
L 202.656 129.606101 
L 196.704 129.640724 
L 190.752 129.675491 
L 184.8 129.710329 
L 178.848 129.74515 
L 172.896 129.779838 
L 166.944 129.814254 
L 160.992 129.848218 
L 155.04 129.881508 
L 149.088 129.913842 
L 143.136 129.94486 
L 137.184 129.974105 
L 131.232 130.000986 
L 125.28 130.024738 
L 119.328 130.044355 
L 113.376 130.058502 
L 107.424 130.065381 
L 101.472 130.062533 
L 95.52 130.046527 
L 89.568 130.012473 
L 83.616 129.953207 
L 77.664 129.857901 
L 71.712 129.709521 
L 65.76 129.47993 
L 59.808 129.119612 
L 53.856 128.533774 
L 47.904 127.518234 
L 42.449333 125.712 
L 41.952 125.473343 
z
M 36 103.536 
L 36 100.116785 
L 36.936221 97.992 
L 40.906059 92.448 
L 41.952 91.375299 
L 47.904 88.85164 
L 53.856 87.551294 
L 58.992003 86.904 
L 59.808 86.821742 
L 65.76 86.452711 
L 71.712 86.217569 
L 77.664 86.065601 
L 83.616 85.96799 
L 89.568 85.907291 
L 95.52 85.872414 
L 101.472 85.856021 
L 107.424 85.853104 
L 113.376 85.860149 
L 119.328 85.874638 
L 125.28 85.894729 
L 131.232 85.919056 
L 137.184 85.946587 
L 143.136 85.976539 
L 149.088 86.008307 
L 155.04 86.041423 
L 160.992 86.075518 
L 166.944 86.110304 
L 172.896 86.145551 
L 178.848 86.181078 
L 184.8 86.21674 
L 190.752 86.252422 
L 196.704 86.288029 
L 202.656 86.323489 
L 208.608 86.358742 
L 214.56 86.393741 
L 214.56 86.904 
L 214.56 88.304779 
L 208.608 88.261022 
L 202.656 88.216949 
L 196.704 88.172616 
L 190.752 88.128099 
L 184.8 88.08349 
L 178.848 88.038905 
L 172.896 87.994488 
L 166.944 87.950421 
L 160.992 87.906931 
L 155.04 87.864305 
L 149.088 87.822903 
L 143.136 87.783186 
L 137.184 87.74574 
L 131.232 87.711319 
L 125.28 87.680906 
L 119.328 87.655788 
L 113.376 87.637673 
L 107.424 87.628865 
L 101.472 87.632512 
L 95.52 87.653006 
L 89.568 87.696611 
L 83.616 87.772498 
L 77.664 87.894533 
L 71.712 88.084525 
L 65.76 88.378505 
L 59.808 88.839874 
L 53.856 89.590008 
L 47.904 90.890354 
L 44.230323 92.448 
L 41.952 93.763412 
L 38.924076 97.992 
L 36.481284 103.536 
L 36 106.807556 
z
" clip-path="url(#p5b446e2195)" style="fill: #21a685"/>
    <path d="M 40.169754 125.712 
L 36 120.872039 
L 36 120.168 
L 36 117.414817 
L 37.381307 120.168 
L 41.952 125.473343 
L 42.449333 125.712 
L 47.904 127.518234 
L 53.856 128.533774 
L 59.808 129.119612 
L 65.76 129.47993 
L 71.712 129.709521 
L 77.664 129.857901 
L 83.616 129.953207 
L 89.568 130.012473 
L 95.52 130.046527 
L 101.472 130.062533 
L 107.424 130.065381 
L 113.376 130.058502 
L 119.328 130.044355 
L 125.28 130.024738 
L 131.232 130.000986 
L 137.184 129.974105 
L 143.136 129.94486 
L 149.088 129.913842 
L 155.04 129.881508 
L 160.992 129.848218 
L 166.944 129.814254 
L 172.896 129.779838 
L 178.848 129.74515 
L 184.8 129.710329 
L 190.752 129.675491 
L 196.704 129.640724 
L 202.656 129.606101 
L 208.608 129.571681 
L 214.56 129.537508 
L 214.56 131.129696 
L 208.608 131.163869 
L 202.656 131.19829 
L 196.704 131.232912 
L 192.751403 131.256 
L 190.752 131.264753 
L 184.8 131.290864 
L 178.848 131.31696 
L 172.896 131.342958 
L 166.944 131.368752 
L 160.992 131.394207 
L 155.04 131.419157 
L 149.088 131.44339 
L 143.136 131.466638 
L 137.184 131.488556 
L 131.232 131.508703 
L 125.28 131.526504 
L 119.328 131.541206 
L 113.376 131.551809 
L 107.424 131.556965 
L 101.472 131.55483 
L 95.52 131.542834 
L 89.568 131.517312 
L 83.616 131.472894 
L 77.664 131.401464 
L 71.712 131.290258 
L 70.527025 131.256 
L 65.76 131.072118 
L 59.808 130.7118 
L 53.856 130.125962 
L 47.904 129.110423 
L 41.952 127.139503 
z
M 36 97.992 
L 36 96.523361 
L 38.918204 92.448 
L 41.952 89.336585 
L 47.689203 86.904 
L 47.904 86.831153 
L 53.856 85.791058 
L 59.808 85.191055 
L 65.76 84.822024 
L 71.712 84.586882 
L 77.664 84.434914 
L 83.616 84.337303 
L 89.568 84.276604 
L 95.52 84.241726 
L 101.472 84.225334 
L 107.424 84.222417 
L 113.376 84.229462 
L 119.328 84.243951 
L 125.28 84.264042 
L 131.232 84.288369 
L 137.184 84.3159 
L 143.136 84.345852 
L 149.088 84.37762 
L 155.04 84.410736 
L 160.992 84.444831 
L 166.944 84.479616 
L 172.896 84.514864 
L 178.848 84.550391 
L 184.8 84.586053 
L 190.752 84.621734 
L 196.704 84.657342 
L 202.656 84.692802 
L 208.608 84.728055 
L 214.56 84.763054 
L 214.56 86.393741 
L 208.608 86.358742 
L 202.656 86.323489 
L 196.704 86.288029 
L 190.752 86.252422 
L 184.8 86.21674 
L 178.848 86.181078 
L 172.896 86.145551 
L 166.944 86.110304 
L 160.992 86.075518 
L 155.04 86.041423 
L 149.088 86.008307 
L 143.136 85.976539 
L 137.184 85.946587 
L 131.232 85.919056 
L 125.28 85.894729 
L 119.328 85.874638 
L 113.376 85.860149 
L 107.424 85.853104 
L 101.472 85.856021 
L 95.52 85.872414 
L 89.568 85.907291 
L 83.616 85.96799 
L 77.664 86.065601 
L 71.712 86.217569 
L 65.76 86.452711 
L 59.808 86.821742 
L 58.992003 86.904 
L 53.856 87.551294 
L 47.904 88.85164 
L 41.952 91.375299 
L 40.906059 92.448 
L 36.936221 97.992 
L 36 100.116785 
z
" clip-path="url(#p5b446e2195)" style="fill: #1f978b"/>
    <path d="M 38.181899 125.712 
L 36 123.179403 
L 36 120.872039 
L 40.169754 125.712 
L 41.952 127.139503 
L 47.904 129.110423 
L 53.856 130.125962 
L 59.808 130.7118 
L 65.76 131.072118 
L 70.527025 131.256 
L 71.712 131.290258 
L 77.664 131.401464 
L 83.616 131.472894 
L 89.568 131.517312 
L 95.52 131.542834 
L 101.472 131.55483 
L 107.424 131.556965 
L 113.376 131.551809 
L 119.328 131.541206 
L 125.28 131.526504 
L 131.232 131.508703 
L 137.184 131.488556 
L 143.136 131.466638 
L 149.088 131.44339 
L 155.04 131.419157 
L 160.992 131.394207 
L 166.944 131.368752 
L 172.896 131.342958 
L 178.848 131.31696 
L 184.8 131.290864 
L 190.752 131.264753 
L 192.751403 131.256 
L 196.704 131.232912 
L 202.656 131.19829 
L 208.608 131.163869 
L 214.56 131.129696 
L 214.56 131.256 
L 214.56 132.354639 
L 208.608 132.380251 
L 202.656 132.406048 
L 196.704 132.431997 
L 190.752 132.458053 
L 184.8 132.484164 
L 178.848 132.510261 
L 172.896 132.536259 
L 166.944 132.562052 
L 160.992 132.587508 
L 155.04 132.612458 
L 149.088 132.636691 
L 143.136 132.659938 
L 137.184 132.681856 
L 131.232 132.702003 
L 125.28 132.719804 
L 119.328 132.734507 
L 113.376 132.745109 
L 107.424 132.750265 
L 101.472 132.748131 
L 95.52 132.736135 
L 89.568 132.710612 
L 83.616 132.666194 
L 77.664 132.594765 
L 71.712 132.483558 
L 65.76 132.311486 
L 59.808 132.041437 
L 53.856 131.602369 
L 51.147372 131.256 
L 47.904 130.702611 
L 41.952 128.731692 
z
M 36.930349 92.448 
L 41.952 87.297871 
L 42.880936 86.904 
L 47.904 85.200466 
L 53.856 84.160371 
L 59.808 83.560368 
L 65.76 83.191337 
L 71.712 82.956194 
L 77.664 82.804227 
L 83.616 82.706616 
L 89.568 82.645917 
L 95.52 82.611039 
L 101.472 82.594647 
L 107.424 82.591729 
L 113.376 82.598775 
L 119.328 82.613264 
L 125.28 82.633355 
L 131.232 82.657682 
L 137.184 82.685213 
L 143.136 82.715165 
L 149.088 82.746933 
L 155.04 82.780048 
L 160.992 82.814144 
L 166.944 82.848929 
L 172.896 82.884177 
L 178.848 82.919704 
L 184.8 82.955366 
L 190.752 82.991047 
L 196.704 83.026655 
L 202.656 83.062115 
L 208.608 83.097368 
L 214.56 83.132367 
L 214.56 84.763054 
L 208.608 84.728055 
L 202.656 84.692802 
L 196.704 84.657342 
L 190.752 84.621734 
L 184.8 84.586053 
L 178.848 84.550391 
L 172.896 84.514864 
L 166.944 84.479616 
L 160.992 84.444831 
L 155.04 84.410736 
L 149.088 84.37762 
L 143.136 84.345852 
L 137.184 84.3159 
L 131.232 84.288369 
L 125.28 84.264042 
L 119.328 84.243951 
L 113.376 84.229462 
L 107.424 84.222417 
L 101.472 84.225334 
L 95.52 84.241726 
L 89.568 84.276604 
L 83.616 84.337303 
L 77.664 84.434914 
L 71.712 84.586882 
L 65.76 84.822024 
L 59.808 85.191055 
L 53.856 85.791058 
L 47.904 86.831153 
L 47.689203 86.904 
L 41.952 89.336585 
L 38.918204 92.448 
L 36 96.523361 
L 36 93.74726 
z
" clip-path="url(#p5b446e2195)" style="fill: #23888e"/>
    <path d="M 36.194044 125.712 
L 36 125.486767 
L 36 123.179403 
L 38.181899 125.712 
L 41.952 128.731692 
L 47.904 130.702611 
L 51.147372 131.256 
L 53.856 131.602369 
L 59.808 132.041437 
L 65.76 132.311486 
L 71.712 132.483558 
L 77.664 132.594765 
L 83.616 132.666194 
L 89.568 132.710612 
L 95.52 132.736135 
L 101.472 132.748131 
L 107.424 132.750265 
L 113.376 132.745109 
L 119.328 132.734507 
L 125.28 132.719804 
L 131.232 132.702003 
L 137.184 132.681856 
L 143.136 132.659938 
L 149.088 132.636691 
L 155.04 132.612458 
L 160.992 132.587508 
L 166.944 132.562052 
L 172.896 132.536259 
L 178.848 132.510261 
L 184.8 132.484164 
L 190.752 132.458053 
L 196.704 132.431997 
L 202.656 132.406048 
L 208.608 132.380251 
L 214.56 132.354639 
L 214.56 133.547939 
L 208.608 133.573551 
L 202.656 133.599348 
L 196.704 133.625297 
L 190.752 133.651354 
L 184.8 133.677464 
L 178.848 133.703561 
L 172.896 133.729559 
L 166.944 133.755352 
L 160.992 133.780808 
L 155.04 133.805758 
L 149.088 133.829991 
L 143.136 133.853238 
L 137.184 133.875156 
L 131.232 133.895303 
L 125.28 133.913105 
L 119.328 133.927807 
L 113.376 133.93841 
L 107.424 133.943565 
L 101.472 133.941431 
L 95.52 133.929435 
L 89.568 133.903912 
L 83.616 133.859494 
L 77.664 133.788065 
L 71.712 133.676858 
L 65.76 133.504786 
L 59.808 133.234738 
L 53.856 132.795669 
L 47.904 132.034551 
L 44.76692 131.256 
L 41.952 130.32388 
z
M 36 92.448 
L 36 91.363437 
L 40.34819 86.904 
L 41.952 85.588355 
L 47.904 83.569779 
L 53.856 82.529683 
L 59.808 81.929681 
L 65.76 81.56065 
L 70.838912 81.36 
L 71.712 81.330987 
L 77.664 81.203161 
L 83.616 81.121056 
L 89.568 81.07 
L 95.52 81.040663 
L 101.472 81.026874 
L 107.424 81.02442 
L 113.376 81.030347 
L 119.328 81.042534 
L 125.28 81.059434 
L 131.232 81.079895 
L 137.184 81.103053 
L 143.136 81.128247 
L 149.088 81.154969 
L 155.04 81.182823 
L 160.992 81.211502 
L 166.944 81.240762 
L 172.896 81.27041 
L 178.848 81.300293 
L 184.8 81.33029 
L 190.691902 81.36 
L 190.752 81.36036 
L 196.704 81.395968 
L 202.656 81.431427 
L 208.608 81.46668 
L 214.56 81.50168 
L 214.56 83.132367 
L 208.608 83.097368 
L 202.656 83.062115 
L 196.704 83.026655 
L 190.752 82.991047 
L 184.8 82.955366 
L 178.848 82.919704 
L 172.896 82.884177 
L 166.944 82.848929 
L 160.992 82.814144 
L 155.04 82.780048 
L 149.088 82.746933 
L 143.136 82.715165 
L 137.184 82.685213 
L 131.232 82.657682 
L 125.28 82.633355 
L 119.328 82.613264 
L 113.376 82.598775 
L 107.424 82.591729 
L 101.472 82.594647 
L 95.52 82.611039 
L 89.568 82.645917 
L 83.616 82.706616 
L 77.664 82.804227 
L 71.712 82.956194 
L 65.76 83.191337 
L 59.808 83.560368 
L 53.856 84.160371 
L 47.904 85.200466 
L 42.880936 86.904 
L 41.952 87.297871 
L 36.930349 92.448 
L 36 93.74726 
z
" clip-path="url(#p5b446e2195)" style="fill: #29798e"/>
    <path d="M 41.127902 131.256 
L 36 127.148767 
L 36 125.712 
L 36 125.486767 
L 36.194044 125.712 
L 41.952 130.32388 
L 44.76692 131.256 
L 47.904 132.034551 
L 53.856 132.795669 
L 59.808 133.234738 
L 65.76 133.504786 
L 71.712 133.676858 
L 77.664 133.788065 
L 83.616 133.859494 
L 89.568 133.903912 
L 95.52 133.929435 
L 101.472 133.941431 
L 107.424 133.943565 
L 113.376 133.93841 
L 119.328 133.927807 
L 125.28 133.913105 
L 131.232 133.895303 
L 137.184 133.875156 
L 143.136 133.853238 
L 149.088 133.829991 
L 155.04 133.805758 
L 160.992 133.780808 
L 166.944 133.755352 
L 172.896 133.729559 
L 178.848 133.703561 
L 184.8 133.677464 
L 190.752 133.651354 
L 196.704 133.625297 
L 202.656 133.599348 
L 208.608 133.573551 
L 214.56 133.547939 
L 214.56 134.741239 
L 208.608 134.766851 
L 202.656 134.792649 
L 196.704 134.818597 
L 190.752 134.844654 
L 184.8 134.870765 
L 178.848 134.896861 
L 172.896 134.922859 
L 166.944 134.948653 
L 160.992 134.974108 
L 155.04 134.999058 
L 149.088 135.023291 
L 143.136 135.046539 
L 137.184 135.068457 
L 131.232 135.088604 
L 125.28 135.106405 
L 119.328 135.121107 
L 113.376 135.13171 
L 107.424 135.136866 
L 101.472 135.134731 
L 95.52 135.122735 
L 89.568 135.097212 
L 83.616 135.052795 
L 77.664 134.981365 
L 71.712 134.870159 
L 65.76 134.698086 
L 59.808 134.428038 
L 53.856 133.988969 
L 47.904 133.227851 
L 41.952 131.750702 
z
M 38.360334 86.904 
L 41.952 83.957668 
L 47.904 81.939092 
L 51.217883 81.36 
L 53.856 80.972231 
L 59.808 80.467544 
L 65.76 80.157137 
L 71.712 79.959349 
L 77.664 79.831523 
L 83.616 79.749419 
L 89.568 79.698363 
L 95.52 79.669025 
L 101.472 79.655237 
L 107.424 79.652783 
L 113.376 79.658709 
L 119.328 79.670897 
L 125.28 79.687796 
L 131.232 79.708258 
L 137.184 79.731416 
L 143.136 79.75661 
L 149.088 79.783331 
L 155.04 79.811186 
L 160.992 79.839865 
L 166.944 79.869124 
L 172.896 79.898772 
L 178.848 79.928656 
L 184.8 79.958653 
L 190.752 79.988666 
L 196.704 80.018616 
L 202.656 80.048443 
L 208.608 80.078096 
L 214.56 80.107535 
L 214.56 81.36 
L 214.56 81.50168 
L 208.608 81.46668 
L 202.656 81.431427 
L 196.704 81.395968 
L 190.752 81.36036 
L 190.691902 81.36 
L 184.8 81.33029 
L 178.848 81.300293 
L 172.896 81.27041 
L 166.944 81.240762 
L 160.992 81.211502 
L 155.04 81.182823 
L 149.088 81.154969 
L 143.136 81.128247 
L 137.184 81.103053 
L 131.232 81.079895 
L 125.28 81.059434 
L 119.328 81.042534 
L 113.376 81.030347 
L 107.424 81.02442 
L 101.472 81.026874 
L 95.52 81.040663 
L 89.568 81.07 
L 83.616 81.121056 
L 77.664 81.203161 
L 71.712 81.330987 
L 70.838912 81.36 
L 65.76 81.56065 
L 59.808 81.929681 
L 53.856 82.529683 
L 47.904 83.569779 
L 41.952 85.588355 
L 40.34819 86.904 
L 36 91.363437 
L 36 89.324723 
z
" clip-path="url(#p5b446e2195)" style="fill: #306a8e"/>
    <path d="M 39.140047 131.256 
L 36 128.740955 
L 36 127.148767 
L 41.127902 131.256 
L 41.952 131.750702 
L 47.904 133.227851 
L 53.856 133.988969 
L 59.808 134.428038 
L 65.76 134.698086 
L 71.712 134.870159 
L 77.664 134.981365 
L 83.616 135.052795 
L 89.568 135.097212 
L 95.52 135.122735 
L 101.472 135.134731 
L 107.424 135.136866 
L 113.376 135.13171 
L 119.328 135.121107 
L 125.28 135.106405 
L 131.232 135.088604 
L 137.184 135.068457 
L 143.136 135.046539 
L 149.088 135.023291 
L 155.04 134.999058 
L 160.992 134.974108 
L 166.944 134.948653 
L 172.896 134.922859 
L 178.848 134.896861 
L 184.8 134.870765 
L 190.752 134.844654 
L 196.704 134.818597 
L 202.656 134.792649 
L 208.608 134.766851 
L 214.56 134.741239 
L 214.56 135.93454 
L 208.608 135.960152 
L 202.656 135.985949 
L 196.704 136.011898 
L 190.752 136.037954 
L 184.8 136.064065 
L 178.848 136.090162 
L 172.896 136.11616 
L 166.944 136.141953 
L 160.992 136.167408 
L 155.04 136.192358 
L 149.088 136.216592 
L 143.136 136.239839 
L 137.184 136.261757 
L 131.232 136.281904 
L 125.28 136.299705 
L 119.328 136.314408 
L 113.376 136.32501 
L 107.424 136.330166 
L 101.472 136.328031 
L 95.52 136.316036 
L 89.568 136.290513 
L 83.616 136.246095 
L 77.664 136.174665 
L 71.712 136.063459 
L 65.76 135.891387 
L 59.808 135.621338 
L 53.856 135.18227 
L 47.904 134.421151 
L 41.952 132.944003 
z
M 36.372479 86.904 
L 41.952 82.32698 
L 44.803252 81.36 
L 47.904 80.47546 
L 53.856 79.600594 
L 59.808 79.095907 
L 65.76 78.7855 
L 71.712 78.587712 
L 77.664 78.459886 
L 83.616 78.377781 
L 89.568 78.326725 
L 95.52 78.297388 
L 101.472 78.283599 
L 107.424 78.281146 
L 113.376 78.287072 
L 119.328 78.299259 
L 125.28 78.316159 
L 131.232 78.336621 
L 137.184 78.359779 
L 143.136 78.384972 
L 149.088 78.411694 
L 155.04 78.439549 
L 160.992 78.468227 
L 166.944 78.497487 
L 172.896 78.527135 
L 178.848 78.557019 
L 184.8 78.587015 
L 190.752 78.617028 
L 196.704 78.646979 
L 202.656 78.676806 
L 208.608 78.706458 
L 214.56 78.735898 
L 214.56 80.107535 
L 208.608 80.078096 
L 202.656 80.048443 
L 196.704 80.018616 
L 190.752 79.988666 
L 184.8 79.958653 
L 178.848 79.928656 
L 172.896 79.898772 
L 166.944 79.869124 
L 160.992 79.839865 
L 155.04 79.811186 
L 149.088 79.783331 
L 143.136 79.75661 
L 137.184 79.731416 
L 131.232 79.708258 
L 125.28 79.687796 
L 119.328 79.670897 
L 113.376 79.658709 
L 107.424 79.652783 
L 101.472 79.655237 
L 95.52 79.669025 
L 89.568 79.698363 
L 83.616 79.749419 
L 77.664 79.831523 
L 71.712 79.959349 
L 65.76 80.157137 
L 59.808 80.467544 
L 53.856 80.972231 
L 51.217883 81.36 
L 47.904 81.939092 
L 41.952 83.957668 
L 38.360334 86.904 
L 36 89.324723 
L 36 87.286009 
z
" clip-path="url(#p5b446e2195)" style="fill: #375a8c"/>
    <path d="M 37.152191 131.256 
L 36 130.333143 
L 36 128.740955 
L 39.140047 131.256 
L 41.952 132.944003 
L 47.904 134.421151 
L 53.856 135.18227 
L 59.808 135.621338 
L 65.76 135.891387 
L 71.712 136.063459 
L 77.664 136.174665 
L 83.616 136.246095 
L 89.568 136.290513 
L 95.52 136.316036 
L 101.472 136.328031 
L 107.424 136.330166 
L 113.376 136.32501 
L 119.328 136.314408 
L 125.28 136.299705 
L 131.232 136.281904 
L 137.184 136.261757 
L 143.136 136.239839 
L 149.088 136.216592 
L 155.04 136.192358 
L 160.992 136.167408 
L 166.944 136.141953 
L 172.896 136.11616 
L 178.848 136.090162 
L 184.8 136.064065 
L 190.752 136.037954 
L 196.704 136.011898 
L 202.656 135.985949 
L 208.608 135.960152 
L 214.56 135.93454 
L 214.56 136.8 
L 214.56 137.296215 
L 208.608 137.331265 
L 202.656 137.366082 
L 196.704 137.400617 
L 190.752 137.434818 
L 184.8 137.468618 
L 178.848 137.501939 
L 172.896 137.534683 
L 166.944 137.566735 
L 160.992 137.597951 
L 155.04 137.628154 
L 149.088 137.657123 
L 143.136 137.684581 
L 137.184 137.710176 
L 131.232 137.733456 
L 125.28 137.753832 
L 119.328 137.770525 
L 113.376 137.782489 
L 107.424 137.788284 
L 101.472 137.785886 
L 95.52 137.772366 
L 89.568 137.743333 
L 83.616 137.691915 
L 77.664 137.606776 
L 71.712 137.467839 
L 65.76 137.236036 
L 59.808 136.824229 
L 59.609559 136.8 
L 53.856 136.37557 
L 47.904 135.614451 
L 41.952 134.137303 
z
M 36 86.904 
L 36 85.578867 
L 41.142922 81.36 
L 41.952 80.655243 
L 47.904 79.103823 
L 53.856 78.228956 
L 59.808 77.724269 
L 65.76 77.413863 
L 71.712 77.216075 
L 77.664 77.088248 
L 83.616 77.006144 
L 89.568 76.955088 
L 95.52 76.925751 
L 101.472 76.911962 
L 107.424 76.909508 
L 113.376 76.915435 
L 119.328 76.927622 
L 125.28 76.944522 
L 131.232 76.964983 
L 137.184 76.988141 
L 143.136 77.013335 
L 149.088 77.040056 
L 155.04 77.067911 
L 160.992 77.09659 
L 166.944 77.12585 
L 172.896 77.155498 
L 178.848 77.185381 
L 184.8 77.215378 
L 190.752 77.245391 
L 196.704 77.275342 
L 202.656 77.305168 
L 208.608 77.334821 
L 214.56 77.36426 
L 214.56 78.735898 
L 208.608 78.706458 
L 202.656 78.676806 
L 196.704 78.646979 
L 190.752 78.617028 
L 184.8 78.587015 
L 178.848 78.557019 
L 172.896 78.527135 
L 166.944 78.497487 
L 160.992 78.468227 
L 155.04 78.439549 
L 149.088 78.411694 
L 143.136 78.384972 
L 137.184 78.359779 
L 131.232 78.336621 
L 125.28 78.316159 
L 119.328 78.299259 
L 113.376 78.287072 
L 107.424 78.281146 
L 101.472 78.283599 
L 95.52 78.297388 
L 89.568 78.326725 
L 83.616 78.377781 
L 77.664 78.459886 
L 71.712 78.587712 
L 65.76 78.7855 
L 59.808 79.095907 
L 53.856 79.600594 
L 47.904 80.47546 
L 44.803252 81.36 
L 41.952 82.32698 
L 36.372479 86.904 
L 36 87.286009 
z
" clip-path="url(#p5b446e2195)" style="fill: #3f4889"/>
    <path d="M 36 131.256 
L 36 130.333143 
L 37.152191 131.256 
L 41.952 134.137303 
L 47.904 135.614451 
L 53.856 136.37557 
L 59.609559 136.8 
L 59.808 136.824229 
L 65.76 137.236036 
L 71.712 137.467839 
L 77.664 137.606776 
L 83.616 137.691915 
L 89.568 137.743333 
L 95.52 137.772366 
L 101.472 137.785886 
L 107.424 137.788284 
L 113.376 137.782489 
L 119.328 137.770525 
L 125.28 137.753832 
L 131.232 137.733456 
L 137.184 137.710176 
L 143.136 137.684581 
L 149.088 137.657123 
L 155.04 137.628154 
L 160.992 137.597951 
L 166.944 137.566735 
L 172.896 137.534683 
L 178.848 137.501939 
L 184.8 137.468618 
L 190.752 137.434818 
L 196.704 137.400617 
L 202.656 137.366082 
L 208.608 137.331265 
L 214.56 137.296215 
L 214.56 139.102379 
L 208.608 139.124888 
L 202.656 139.147247 
L 196.704 139.169425 
L 190.752 139.191388 
L 184.8 139.213094 
L 178.848 139.234492 
L 172.896 139.25552 
L 166.944 139.276103 
L 160.992 139.29615 
L 155.04 139.315546 
L 149.088 139.334149 
L 143.136 139.351783 
L 137.184 139.368219 
L 131.232 139.38317 
L 125.28 139.396255 
L 119.328 139.406975 
L 113.376 139.414658 
L 107.424 139.418379 
L 101.472 139.41684 
L 95.52 139.408157 
L 89.568 139.389512 
L 83.616 139.356493 
L 77.664 139.301817 
L 71.712 139.212594 
L 65.76 139.063733 
L 59.808 138.799276 
L 53.856 138.264539 
L 47.904 136.819994 
L 47.872765 136.8 
L 41.952 135.330603 
L 36 132.308129 
z
M 39.155067 81.36 
L 41.952 78.923698 
L 47.904 77.732186 
L 53.856 76.857319 
L 59.808 76.352632 
L 65.76 76.042225 
L 71.712 75.844437 
L 73.03613 75.816 
L 77.664 75.600857 
L 83.616 75.435331 
L 89.568 75.337488 
L 95.52 75.282926 
L 101.472 75.257686 
L 107.424 75.253221 
L 113.376 75.264019 
L 119.328 75.286371 
L 125.28 75.3177 
L 131.232 75.356161 
L 137.184 75.400403 
L 143.136 75.449417 
L 149.088 75.502438 
L 155.04 75.558875 
L 160.992 75.618269 
L 166.944 75.680258 
L 172.896 75.744552 
L 178.848 75.810924 
L 179.295675 75.816 
L 184.8 75.843741 
L 190.752 75.873753 
L 196.704 75.903704 
L 202.656 75.933531 
L 208.608 75.963184 
L 214.56 75.992623 
L 214.56 77.36426 
L 208.608 77.334821 
L 202.656 77.305168 
L 196.704 77.275342 
L 190.752 77.245391 
L 184.8 77.215378 
L 178.848 77.185381 
L 172.896 77.155498 
L 166.944 77.12585 
L 160.992 77.09659 
L 155.04 77.067911 
L 149.088 77.040056 
L 143.136 77.013335 
L 137.184 76.988141 
L 131.232 76.964983 
L 125.28 76.944522 
L 119.328 76.927622 
L 113.376 76.915435 
L 107.424 76.909508 
L 101.472 76.911962 
L 95.52 76.925751 
L 89.568 76.955088 
L 83.616 77.006144 
L 77.664 77.088248 
L 71.712 77.216075 
L 65.76 77.413863 
L 59.808 77.724269 
L 53.856 78.228956 
L 47.904 79.103823 
L 41.952 80.655243 
L 41.142922 81.36 
L 36 85.578867 
L 36 83.94818 
z
" clip-path="url(#p5b446e2195)" style="fill: #453581"/>
    <path d="M 41.952 135.330603 
L 47.872765 136.8 
L 47.904 136.819994 
L 53.856 138.264539 
L 59.808 138.799276 
L 65.76 139.063733 
L 71.712 139.212594 
L 77.664 139.301817 
L 83.616 139.356493 
L 89.568 139.389512 
L 95.52 139.408157 
L 101.472 139.41684 
L 107.424 139.418379 
L 113.376 139.414658 
L 119.328 139.406975 
L 125.28 139.396255 
L 131.232 139.38317 
L 137.184 139.368219 
L 143.136 139.351783 
L 149.088 139.334149 
L 155.04 139.315546 
L 160.992 139.29615 
L 166.944 139.276103 
L 172.896 139.25552 
L 178.848 139.234492 
L 184.8 139.213094 
L 190.752 139.191388 
L 196.704 139.169425 
L 202.656 139.147247 
L 208.608 139.124888 
L 214.56 139.102379 
L 214.56 140.908543 
L 208.608 140.918511 
L 202.656 140.928411 
L 196.704 140.938233 
L 190.752 140.947958 
L 184.8 140.95757 
L 178.848 140.967046 
L 172.896 140.976357 
L 166.944 140.985472 
L 160.992 140.994349 
L 155.04 141.002938 
L 149.088 141.011176 
L 143.136 141.018984 
L 137.184 141.026263 
L 131.232 141.032883 
L 125.28 141.038677 
L 119.328 141.043425 
L 113.376 141.046827 
L 107.424 141.048475 
L 101.472 141.047793 
L 95.52 141.043948 
L 89.568 141.035692 
L 83.616 141.02107 
L 77.664 140.996858 
L 71.712 140.957349 
L 65.76 140.89143 
L 59.808 140.774323 
L 53.856 140.53753 
L 47.904 139.897856 
L 43.064499 136.8 
L 41.952 136.523904 
L 36 134.810907 
L 36 132.308129 
z
M 37.167212 81.36 
L 41.952 77.192153 
L 47.904 76.360548 
L 51.608737 75.816 
L 53.856 74.526755 
L 59.808 73.411335 
L 65.76 72.975433 
L 71.712 72.755689 
L 77.664 72.631728 
L 83.616 72.55843 
L 89.568 72.515103 
L 95.52 72.490942 
L 101.472 72.479765 
L 107.424 72.477788 
L 113.376 72.482569 
L 119.328 72.492467 
L 125.28 72.506341 
L 131.232 72.523372 
L 137.184 72.542963 
L 143.136 72.564667 
L 149.088 72.588146 
L 155.04 72.613138 
L 160.992 72.639439 
L 166.944 72.666888 
L 172.896 72.695359 
L 178.848 72.72475 
L 184.8 72.754978 
L 190.752 72.785977 
L 196.704 72.817693 
L 202.656 72.850083 
L 208.608 72.883112 
L 214.56 72.916751 
L 214.56 75.816 
L 214.56 75.992623 
L 208.608 75.963184 
L 202.656 75.933531 
L 196.704 75.903704 
L 190.752 75.873753 
L 184.8 75.843741 
L 179.295675 75.816 
L 178.848 75.810924 
L 172.896 75.744552 
L 166.944 75.680258 
L 160.992 75.618269 
L 155.04 75.558875 
L 149.088 75.502438 
L 143.136 75.449417 
L 137.184 75.400403 
L 131.232 75.356161 
L 125.28 75.3177 
L 119.328 75.286371 
L 113.376 75.264019 
L 107.424 75.253221 
L 101.472 75.257686 
L 95.52 75.282926 
L 89.568 75.337488 
L 83.616 75.435331 
L 77.664 75.600857 
L 73.03613 75.816 
L 71.712 75.844437 
L 65.76 76.042225 
L 59.808 76.352632 
L 53.856 76.857319 
L 47.904 77.732186 
L 41.952 78.923698 
L 39.155067 81.36 
L 36 83.94818 
L 36 82.317493 
z
" clip-path="url(#p5b446e2195)" style="fill: #482173"/>
    <path d="M 36 186.696 
L 36 181.152 
L 36 175.608 
L 36 170.064 
L 36 164.52 
L 36 158.976 
L 36 153.432 
L 36 147.888 
L 36 142.344 
L 36 136.8 
L 36 134.810907 
L 41.952 136.523904 
L 43.064499 136.8 
L 47.904 139.897856 
L 53.856 140.53753 
L 59.808 140.774323 
L 65.76 140.89143 
L 71.712 140.957349 
L 77.664 140.996858 
L 83.616 141.02107 
L 89.568 141.035692 
L 95.52 141.043948 
L 101.472 141.047793 
L 107.424 141.048475 
L 113.376 141.046827 
L 119.328 141.043425 
L 125.28 141.038677 
L 131.232 141.032883 
L 137.184 141.026263 
L 143.136 141.018984 
L 149.088 141.011176 
L 155.04 141.002938 
L 160.992 140.994349 
L 166.944 140.985472 
L 172.896 140.976357 
L 178.848 140.967046 
L 184.8 140.95757 
L 190.752 140.947958 
L 196.704 140.938233 
L 202.656 140.928411 
L 208.608 140.918511 
L 214.56 140.908543 
L 214.56 142.344 
L 214.56 147.888 
L 214.56 153.432 
L 214.56 158.976 
L 214.56 164.52 
L 214.56 170.064 
L 214.56 175.608 
L 214.56 181.152 
L 214.56 186.696 
L 214.56 192.24 
L 208.608 192.24 
L 202.656 192.24 
L 196.704 192.24 
L 190.752 192.24 
L 184.8 192.24 
L 178.848 192.24 
L 172.896 192.24 
L 166.944 192.24 
L 160.992 192.24 
L 155.04 192.24 
L 149.088 192.24 
L 143.136 192.24 
L 137.184 192.24 
L 131.232 192.24 
L 125.28 192.24 
L 119.328 192.24 
L 113.376 192.24 
L 107.424 192.24 
L 101.472 192.24 
L 95.52 192.24 
L 89.568 192.24 
L 83.616 192.24 
L 77.664 192.24 
L 71.712 192.24 
L 65.76 192.24 
L 59.808 192.24 
L 53.856 192.24 
L 47.904 192.24 
L 41.952 192.24 
L 36 192.24 
z
M 36 81.36 
L 36 75.816 
L 36 70.272 
L 36 64.728 
L 36 59.184 
L 36 53.64 
L 36 48.096 
L 36 42.552 
L 36 37.008 
L 36 31.464 
L 36 25.92 
L 41.952 25.92 
L 47.904 25.92 
L 53.856 25.92 
L 59.808 25.92 
L 65.76 25.92 
L 71.712 25.92 
L 77.664 25.92 
L 83.616 25.92 
L 89.568 25.92 
L 95.52 25.92 
L 101.472 25.92 
L 107.424 25.92 
L 113.376 25.92 
L 119.328 25.92 
L 125.28 25.92 
L 131.232 25.92 
L 137.184 25.92 
L 143.136 25.92 
L 149.088 25.92 
L 155.04 25.92 
L 160.992 25.92 
L 166.944 25.92 
L 172.896 25.92 
L 178.848 25.92 
L 184.8 25.92 
L 190.752 25.92 
L 196.704 25.92 
L 202.656 25.92 
L 208.608 25.92 
L 214.56 25.92 
L 214.56 31.464 
L 214.56 37.008 
L 214.56 42.552 
L 214.56 48.096 
L 214.56 53.64 
L 214.56 59.184 
L 214.56 64.728 
L 214.56 70.272 
L 214.56 72.916751 
L 208.608 72.883112 
L 202.656 72.850083 
L 196.704 72.817693 
L 190.752 72.785977 
L 184.8 72.754978 
L 178.848 72.72475 
L 172.896 72.695359 
L 166.944 72.666888 
L 160.992 72.639439 
L 155.04 72.613138 
L 149.088 72.588146 
L 143.136 72.564667 
L 137.184 72.542963 
L 131.232 72.523372 
L 125.28 72.506341 
L 119.328 72.492467 
L 113.376 72.482569 
L 107.424 72.477788 
L 101.472 72.479765 
L 95.52 72.490942 
L 89.568 72.515103 
L 83.616 72.55843 
L 77.664 72.631728 
L 71.712 72.755689 
L 65.76 72.975433 
L 59.808 73.411335 
L 53.856 74.526755 
L 51.608737 75.816 
L 47.904 76.360548 
L 41.952 77.192153 
L 37.167212 81.36 
L 36 82.317493 
z
" clip-path="url(#p5b446e2195)" style="fill: #460b5e"/>
   </g>
   <g id="PathCollection_1">
    <defs>
     <path id="mb1fd0a1bab" d="M -4.743416 4.743416 
L 4.743416 -4.743416 
M -4.743416 -4.743416 
L 4.743416 4.743416 
" style="stroke: #ffffff; stroke-width: 5"/>
    </defs>
    <g clip-path="url(#p5b446e2195)">
     <use xlink:href="#mb1fd0a1bab" x="105.44" y="109.08" style="fill: #ffffff; stroke: #ffffff; stroke-width: 5"/>
    </g>
   </g>
   <g id="PathCollection_2">
    <defs>
     <path id="m2240383b7a" d="M -4.330127 4.330127 
L 4.330127 -4.330127 
M -4.330127 -4.330127 
L 4.330127 4.330127 
" style="stroke: #000000; stroke-width: 2"/>
    </defs>
    <g clip-path="url(#p5b446e2195)">
     <use xlink:href="#m2240383b7a" x="105.44" y="109.08" style="stroke: #000000; stroke-width: 2"/>
    </g>
   </g>
   <g id="matplotlib.axis_1">
    <g id="xtick_1">
     <g id="line2d_1">
      <defs>
       <path id="m57dbd558c3" d="M 0 0 
L 0 3.5 
" style="stroke: #000000; stroke-width: 0.8"/>
      </defs>
      <g>
       <use xlink:href="#m57dbd558c3" x="65.76" y="192.24" style="stroke: #000000; stroke-width: 0.8"/>
      </g>
     </g>
     <g id="text_1">
      <!-- 200 -->
      <g transform="translate(54.3075 208.358125) scale(0.12 -0.12)">
       <defs>
        <path id="DejaVuSans-32" d="M 1228 531 
L 3431 531 
L 3431 0 
L 469 0 
L 469 531 
Q 828 903 1448 1529 
Q 2069 2156 2228 2338 
Q 2531 2678 2651 2914 
Q 2772 3150 2772 3378 
Q 2772 3750 2511 3984 
Q 2250 4219 1831 4219 
Q 1534 4219 1204 4116 
Q 875 4013 500 3803 
L 500 4441 
Q 881 4594 1212 4672 
Q 1544 4750 1819 4750 
Q 2544 4750 2975 4387 
Q 3406 4025 3406 3419 
Q 3406 3131 3298 2873 
Q 3191 2616 2906 2266 
Q 2828 2175 2409 1742 
Q 1991 1309 1228 531 
z
" transform="scale(0.015625)"/>
        <path id="DejaVuSans-30" d="M 2034 4250 
Q 1547 4250 1301 3770 
Q 1056 3291 1056 2328 
Q 1056 1369 1301 889 
Q 1547 409 2034 409 
Q 2525 409 2770 889 
Q 3016 1369 3016 2328 
Q 3016 3291 2770 3770 
Q 2525 4250 2034 4250 
z
M 2034 4750 
Q 2819 4750 3233 4129 
Q 3647 3509 3647 2328 
Q 3647 1150 3233 529 
Q 2819 -91 2034 -91 
Q 1250 -91 836 529 
Q 422 1150 422 2328 
Q 422 3509 836 4129 
Q 1250 4750 2034 4750 
z
" transform="scale(0.015625)"/>
       </defs>
       <use xlink:href="#DejaVuSans-32"/>
       <use xlink:href="#DejaVuSans-30" x="63.623047"/>
       <use xlink:href="#DejaVuSans-30" x="127.246094"/>
      </g>
     </g>
    </g>
    <g id="xtick_2">
     <g id="line2d_2">
      <g>
       <use xlink:href="#m57dbd558c3" x="105.44" y="192.24" style="stroke: #000000; stroke-width: 0.8"/>
      </g>
     </g>
     <g id="text_2">
      <!-- 400 -->
      <g transform="translate(93.9875 208.358125) scale(0.12 -0.12)">
       <defs>
        <path id="DejaVuSans-34" d="M 2419 4116 
L 825 1625 
L 2419 1625 
L 2419 4116 
z
M 2253 4666 
L 3047 4666 
L 3047 1625 
L 3713 1625 
L 3713 1100 
L 3047 1100 
L 3047 0 
L 2419 0 
L 2419 1100 
L 313 1100 
L 313 1709 
L 2253 4666 
z
" transform="scale(0.015625)"/>
       </defs>
       <use xlink:href="#DejaVuSans-34"/>
       <use xlink:href="#DejaVuSans-30" x="63.623047"/>
       <use xlink:href="#DejaVuSans-30" x="127.246094"/>
      </g>
     </g>
    </g>
    <g id="xtick_3">
     <g id="line2d_3">
      <g>
       <use xlink:href="#m57dbd558c3" x="145.12" y="192.24" style="stroke: #000000; stroke-width: 0.8"/>
      </g>
     </g>
     <g id="text_3">
      <!-- 600 -->
      <g transform="translate(133.6675 208.358125) scale(0.12 -0.12)">
       <defs>
        <path id="DejaVuSans-36" d="M 2113 2584 
Q 1688 2584 1439 2293 
Q 1191 2003 1191 1497 
Q 1191 994 1439 701 
Q 1688 409 2113 409 
Q 2538 409 2786 701 
Q 3034 994 3034 1497 
Q 3034 2003 2786 2293 
Q 2538 2584 2113 2584 
z
M 3366 4563 
L 3366 3988 
Q 3128 4100 2886 4159 
Q 2644 4219 2406 4219 
Q 1781 4219 1451 3797 
Q 1122 3375 1075 2522 
Q 1259 2794 1537 2939 
Q 1816 3084 2150 3084 
Q 2853 3084 3261 2657 
Q 3669 2231 3669 1497 
Q 3669 778 3244 343 
Q 2819 -91 2113 -91 
Q 1303 -91 875 529 
Q 447 1150 447 2328 
Q 447 3434 972 4092 
Q 1497 4750 2381 4750 
Q 2619 4750 2861 4703 
Q 3103 4656 3366 4563 
z
" transform="scale(0.015625)"/>
       </defs>
       <use xlink:href="#DejaVuSans-36"/>
       <use xlink:href="#DejaVuSans-30" x="63.623047"/>
       <use xlink:href="#DejaVuSans-30" x="127.246094"/>
      </g>
     </g>
    </g>
    <g id="xtick_4">
     <g id="line2d_4">
      <g>
       <use xlink:href="#m57dbd558c3" x="184.8" y="192.24" style="stroke: #000000; stroke-width: 0.8"/>
      </g>
     </g>
     <g id="text_4">
      <!-- 800 -->
      <g transform="translate(173.3475 208.358125) scale(0.12 -0.12)">
       <defs>
        <path id="DejaVuSans-38" d="M 2034 2216 
Q 1584 2216 1326 1975 
Q 1069 1734 1069 1313 
Q 1069 891 1326 650 
Q 1584 409 2034 409 
Q 2484 409 2743 651 
Q 3003 894 3003 1313 
Q 3003 1734 2745 1975 
Q 2488 2216 2034 2216 
z
M 1403 2484 
Q 997 2584 770 2862 
Q 544 3141 544 3541 
Q 544 4100 942 4425 
Q 1341 4750 2034 4750 
Q 2731 4750 3128 4425 
Q 3525 4100 3525 3541 
Q 3525 3141 3298 2862 
Q 3072 2584 2669 2484 
Q 3125 2378 3379 2068 
Q 3634 1759 3634 1313 
Q 3634 634 3220 271 
Q 2806 -91 2034 -91 
Q 1263 -91 848 271 
Q 434 634 434 1313 
Q 434 1759 690 2068 
Q 947 2378 1403 2484 
z
M 1172 3481 
Q 1172 3119 1398 2916 
Q 1625 2713 2034 2713 
Q 2441 2713 2670 2916 
Q 2900 3119 2900 3481 
Q 2900 3844 2670 4047 
Q 2441 4250 2034 4250 
Q 1625 4250 1398 4047 
Q 1172 3844 1172 3481 
z
" transform="scale(0.015625)"/>
       </defs>
       <use xlink:href="#DejaVuSans-38"/>
       <use xlink:href="#DejaVuSans-30" x="63.623047"/>
       <use xlink:href="#DejaVuSans-30" x="127.246094"/>
      </g>
     </g>
    </g>
    <g id="text_5">
     <!-- Diploid N$_e$2 -->
     <g transform="translate(80 227.01375) scale(0.16 -0.16)">
      <defs>
       <path id="DejaVuSans-44" d="M 1259 4147 
L 1259 519 
L 2022 519 
Q 2988 519 3436 956 
Q 3884 1394 3884 2338 
Q 3884 3275 3436 3711 
Q 2988 4147 2022 4147 
L 1259 4147 
z
M 628 4666 
L 1925 4666 
Q 3281 4666 3915 4102 
Q 4550 3538 4550 2338 
Q 4550 1131 3912 565 
Q 3275 0 1925 0 
L 628 0 
L 628 4666 
z
" transform="scale(0.015625)"/>
       <path id="DejaVuSans-69" d="M 603 3500 
L 1178 3500 
L 1178 0 
L 603 0 
L 603 3500 
z
M 603 4863 
L 1178 4863 
L 1178 4134 
L 603 4134 
L 603 4863 
z
" transform="scale(0.015625)"/>
       <path id="DejaVuSans-70" d="M 1159 525 
L 1159 -1331 
L 581 -1331 
L 581 3500 
L 1159 3500 
L 1159 2969 
Q 1341 3281 1617 3432 
Q 1894 3584 2278 3584 
Q 2916 3584 3314 3078 
Q 3713 2572 3713 1747 
Q 3713 922 3314 415 
Q 2916 -91 2278 -91 
Q 1894 -91 1617 61 
Q 1341 213 1159 525 
z
M 3116 1747 
Q 3116 2381 2855 2742 
Q 2594 3103 2138 3103 
Q 1681 3103 1420 2742 
Q 1159 2381 1159 1747 
Q 1159 1113 1420 752 
Q 1681 391 2138 391 
Q 2594 391 2855 752 
Q 3116 1113 3116 1747 
z
" transform="scale(0.015625)"/>
       <path id="DejaVuSans-6c" d="M 603 4863 
L 1178 4863 
L 1178 0 
L 603 0 
L 603 4863 
z
" transform="scale(0.015625)"/>
       <path id="DejaVuSans-6f" d="M 1959 3097 
Q 1497 3097 1228 2736 
Q 959 2375 959 1747 
Q 959 1119 1226 758 
Q 1494 397 1959 397 
Q 2419 397 2687 759 
Q 2956 1122 2956 1747 
Q 2956 2369 2687 2733 
Q 2419 3097 1959 3097 
z
M 1959 3584 
Q 2709 3584 3137 3096 
Q 3566 2609 3566 1747 
Q 3566 888 3137 398 
Q 2709 -91 1959 -91 
Q 1206 -91 779 398 
Q 353 888 353 1747 
Q 353 2609 779 3096 
Q 1206 3584 1959 3584 
z
" transform="scale(0.015625)"/>
       <path id="DejaVuSans-64" d="M 2906 2969 
L 2906 4863 
L 3481 4863 
L 3481 0 
L 2906 0 
L 2906 525 
Q 2725 213 2448 61 
Q 2172 -91 1784 -91 
Q 1150 -91 751 415 
Q 353 922 353 1747 
Q 353 2572 751 3078 
Q 1150 3584 1784 3584 
Q 2172 3584 2448 3432 
Q 2725 3281 2906 2969 
z
M 947 1747 
Q 947 1113 1208 752 
Q 1469 391 1925 391 
Q 2381 391 2643 752 
Q 2906 1113 2906 1747 
Q 2906 2381 2643 2742 
Q 2381 3103 1925 3103 
Q 1469 3103 1208 2742 
Q 947 2381 947 1747 
z
" transform="scale(0.015625)"/>
       <path id="DejaVuSans-20" transform="scale(0.015625)"/>
       <path id="DejaVuSans-4e" d="M 628 4666 
L 1478 4666 
L 3547 763 
L 3547 4666 
L 4159 4666 
L 4159 0 
L 3309 0 
L 1241 3903 
L 1241 0 
L 628 0 
L 628 4666 
z
" transform="scale(0.015625)"/>
       <path id="DejaVuSans-Oblique-65" d="M 3078 2063 
Q 3088 2113 3092 2166 
Q 3097 2219 3097 2272 
Q 3097 2653 2873 2875 
Q 2650 3097 2266 3097 
Q 1838 3097 1509 2826 
Q 1181 2556 1013 2059 
L 3078 2063 
z
M 3578 1613 
L 903 1613 
Q 884 1494 878 1425 
Q 872 1356 872 1306 
Q 872 872 1139 634 
Q 1406 397 1894 397 
Q 2269 397 2603 481 
Q 2938 566 3225 728 
L 3116 159 
Q 2806 34 2476 -28 
Q 2147 -91 1806 -91 
Q 1078 -91 686 257 
Q 294 606 294 1247 
Q 294 1794 489 2264 
Q 684 2734 1063 3103 
Q 1306 3334 1642 3459 
Q 1978 3584 2356 3584 
Q 2950 3584 3301 3228 
Q 3653 2872 3653 2272 
Q 3653 2128 3634 1964 
Q 3616 1800 3578 1613 
z
" transform="scale(0.015625)"/>
      </defs>
      <use xlink:href="#DejaVuSans-44" transform="translate(0 0.015625)"/>
      <use xlink:href="#DejaVuSans-69" transform="translate(77.001953 0.015625)"/>
      <use xlink:href="#DejaVuSans-70" transform="translate(104.785156 0.015625)"/>
      <use xlink:href="#DejaVuSans-6c" transform="translate(168.261719 0.015625)"/>
      <use xlink:href="#DejaVuSans-6f" transform="translate(196.044922 0.015625)"/>
      <use xlink:href="#DejaVuSans-69" transform="translate(257.226562 0.015625)"/>
      <use xlink:href="#DejaVuSans-64" transform="translate(285.009766 0.015625)"/>
      <use xlink:href="#DejaVuSans-20" transform="translate(348.486328 0.015625)"/>
      <use xlink:href="#DejaVuSans-4e" transform="translate(380.273438 0.015625)"/>
      <use xlink:href="#DejaVuSans-Oblique-65" transform="translate(456.035156 -16.390625) scale(0.7)"/>
      <use xlink:href="#DejaVuSans-32" transform="translate(501.835938 0.015625)"/>
     </g>
    </g>
    <g id="text_6">
     <!-- 1e3 -->
     <g transform="translate(195.681875 221.452188) scale(0.1 -0.1)">
      <defs>
       <path id="DejaVuSans-31" d="M 794 531 
L 1825 531 
L 1825 4091 
L 703 3866 
L 703 4441 
L 1819 4666 
L 2450 4666 
L 2450 531 
L 3481 531 
L 3481 0 
L 794 0 
L 794 531 
z
" transform="scale(0.015625)"/>
       <path id="DejaVuSans-65" d="M 3597 1894 
L 3597 1613 
L 953 1613 
Q 991 1019 1311 708 
Q 1631 397 2203 397 
Q 2534 397 2845 478 
Q 3156 559 3463 722 
L 3463 178 
Q 3153 47 2828 -22 
Q 2503 -91 2169 -91 
Q 1331 -91 842 396 
Q 353 884 353 1716 
Q 353 2575 817 3079 
Q 1281 3584 2069 3584 
Q 2775 3584 3186 3129 
Q 3597 2675 3597 1894 
z
M 3022 2063 
Q 3016 2534 2758 2815 
Q 2500 3097 2075 3097 
Q 1594 3097 1305 2825 
Q 1016 2553 972 2059 
L 3022 2063 
z
" transform="scale(0.015625)"/>
       <path id="DejaVuSans-33" d="M 2597 2516 
Q 3050 2419 3304 2112 
Q 3559 1806 3559 1356 
Q 3559 666 3084 287 
Q 2609 -91 1734 -91 
Q 1441 -91 1130 -33 
Q 819 25 488 141 
L 488 750 
Q 750 597 1062 519 
Q 1375 441 1716 441 
Q 2309 441 2620 675 
Q 2931 909 2931 1356 
Q 2931 1769 2642 2001 
Q 2353 2234 1838 2234 
L 1294 2234 
L 1294 2753 
L 1863 2753 
Q 2328 2753 2575 2939 
Q 2822 3125 2822 3475 
Q 2822 3834 2567 4026 
Q 2313 4219 1838 4219 
Q 1578 4219 1281 4162 
Q 984 4106 628 3988 
L 628 4550 
Q 988 4650 1302 4700 
Q 1616 4750 1894 4750 
Q 2613 4750 3031 4423 
Q 3450 4097 3450 3541 
Q 3450 3153 3228 2886 
Q 3006 2619 2597 2516 
z
" transform="scale(0.015625)"/>
      </defs>
      <use xlink:href="#DejaVuSans-31"/>
      <use xlink:href="#DejaVuSans-65" x="63.623047"/>
      <use xlink:href="#DejaVuSans-33" x="125.146484"/>
     </g>
    </g>
   </g>
   <g id="matplotlib.axis_2">
    <g id="ytick_1">
     <g id="line2d_5">
      <defs>
       <path id="m8645f0adff" d="M 0 0 
L -3.5 0 
" style="stroke: #000000; stroke-width: 0.8"/>
      </defs>
      <g>
       <use xlink:href="#m8645f0adff" x="36" y="192.24" style="stroke: #000000; stroke-width: 0.8"/>
      </g>
     </g>
     <g id="text_7">
      <!-- 1.0 -->
      <g transform="translate(9.91625 196.799062) scale(0.12 -0.12)">
       <defs>
        <path id="DejaVuSans-2e" d="M 684 794 
L 1344 794 
L 1344 0 
L 684 0 
L 684 794 
z
" transform="scale(0.015625)"/>
       </defs>
       <use xlink:href="#DejaVuSans-31"/>
       <use xlink:href="#DejaVuSans-2e" x="63.623047"/>
       <use xlink:href="#DejaVuSans-30" x="95.410156"/>
      </g>
     </g>
    </g>
    <g id="ytick_2">
     <g id="line2d_6">
      <g>
       <use xlink:href="#m8645f0adff" x="36" y="150.66" style="stroke: #000000; stroke-width: 0.8"/>
      </g>
     </g>
     <g id="text_8">
      <!-- 1.5 -->
      <g transform="translate(9.91625 155.219063) scale(0.12 -0.12)">
       <defs>
        <path id="DejaVuSans-35" d="M 691 4666 
L 3169 4666 
L 3169 4134 
L 1269 4134 
L 1269 2991 
Q 1406 3038 1543 3061 
Q 1681 3084 1819 3084 
Q 2600 3084 3056 2656 
Q 3513 2228 3513 1497 
Q 3513 744 3044 326 
Q 2575 -91 1722 -91 
Q 1428 -91 1123 -41 
Q 819 9 494 109 
L 494 744 
Q 775 591 1075 516 
Q 1375 441 1709 441 
Q 2250 441 2565 725 
Q 2881 1009 2881 1497 
Q 2881 1984 2565 2268 
Q 2250 2553 1709 2553 
Q 1456 2553 1204 2497 
Q 953 2441 691 2322 
L 691 4666 
z
" transform="scale(0.015625)"/>
       </defs>
       <use xlink:href="#DejaVuSans-31"/>
       <use xlink:href="#DejaVuSans-2e" x="63.623047"/>
       <use xlink:href="#DejaVuSans-35" x="95.410156"/>
      </g>
     </g>
    </g>
    <g id="ytick_3">
     <g id="line2d_7">
      <g>
       <use xlink:href="#m8645f0adff" x="36" y="109.08" style="stroke: #000000; stroke-width: 0.8"/>
      </g>
     </g>
     <g id="text_9">
      <!-- 2.0 -->
      <g transform="translate(9.91625 113.639062) scale(0.12 -0.12)">
       <use xlink:href="#DejaVuSans-32"/>
       <use xlink:href="#DejaVuSans-2e" x="63.623047"/>
       <use xlink:href="#DejaVuSans-30" x="95.410156"/>
      </g>
     </g>
    </g>
    <g id="ytick_4">
     <g id="line2d_8">
      <g>
       <use xlink:href="#m8645f0adff" x="36" y="67.5" style="stroke: #000000; stroke-width: 0.8"/>
      </g>
     </g>
     <g id="text_10">
      <!-- 2.5 -->
      <g transform="translate(9.91625 72.059063) scale(0.12 -0.12)">
       <use xlink:href="#DejaVuSans-32"/>
       <use xlink:href="#DejaVuSans-2e" x="63.623047"/>
       <use xlink:href="#DejaVuSans-35" x="95.410156"/>
      </g>
     </g>
    </g>
    <g id="ytick_5">
     <g id="line2d_9">
      <g>
       <use xlink:href="#m8645f0adff" x="36" y="25.92" style="stroke: #000000; stroke-width: 0.8"/>
      </g>
     </g>
     <g id="text_11">
      <!-- 3.0 -->
      <g transform="translate(9.91625 30.479062) scale(0.12 -0.12)">
       <use xlink:href="#DejaVuSans-33"/>
       <use xlink:href="#DejaVuSans-2e" x="63.623047"/>
       <use xlink:href="#DejaVuSans-30" x="95.410156"/>
      </g>
     </g>
    </g>
    <g id="text_12">
     <!-- Recombination rate -->
     <g transform="translate(2.58875 187.6775) rotate(-90) scale(0.16 -0.16)">
      <defs>
       <path id="DejaVuSans-52" d="M 2841 2188 
Q 3044 2119 3236 1894 
Q 3428 1669 3622 1275 
L 4263 0 
L 3584 0 
L 2988 1197 
Q 2756 1666 2539 1819 
Q 2322 1972 1947 1972 
L 1259 1972 
L 1259 0 
L 628 0 
L 628 4666 
L 2053 4666 
Q 2853 4666 3247 4331 
Q 3641 3997 3641 3322 
Q 3641 2881 3436 2590 
Q 3231 2300 2841 2188 
z
M 1259 4147 
L 1259 2491 
L 2053 2491 
Q 2509 2491 2742 2702 
Q 2975 2913 2975 3322 
Q 2975 3731 2742 3939 
Q 2509 4147 2053 4147 
L 1259 4147 
z
" transform="scale(0.015625)"/>
       <path id="DejaVuSans-63" d="M 3122 3366 
L 3122 2828 
Q 2878 2963 2633 3030 
Q 2388 3097 2138 3097 
Q 1578 3097 1268 2742 
Q 959 2388 959 1747 
Q 959 1106 1268 751 
Q 1578 397 2138 397 
Q 2388 397 2633 464 
Q 2878 531 3122 666 
L 3122 134 
Q 2881 22 2623 -34 
Q 2366 -91 2075 -91 
Q 1284 -91 818 406 
Q 353 903 353 1747 
Q 353 2603 823 3093 
Q 1294 3584 2113 3584 
Q 2378 3584 2631 3529 
Q 2884 3475 3122 3366 
z
" transform="scale(0.015625)"/>
       <path id="DejaVuSans-6d" d="M 3328 2828 
Q 3544 3216 3844 3400 
Q 4144 3584 4550 3584 
Q 5097 3584 5394 3201 
Q 5691 2819 5691 2113 
L 5691 0 
L 5113 0 
L 5113 2094 
Q 5113 2597 4934 2840 
Q 4756 3084 4391 3084 
Q 3944 3084 3684 2787 
Q 3425 2491 3425 1978 
L 3425 0 
L 2847 0 
L 2847 2094 
Q 2847 2600 2669 2842 
Q 2491 3084 2119 3084 
Q 1678 3084 1418 2786 
Q 1159 2488 1159 1978 
L 1159 0 
L 581 0 
L 581 3500 
L 1159 3500 
L 1159 2956 
Q 1356 3278 1631 3431 
Q 1906 3584 2284 3584 
Q 2666 3584 2933 3390 
Q 3200 3197 3328 2828 
z
" transform="scale(0.015625)"/>
       <path id="DejaVuSans-62" d="M 3116 1747 
Q 3116 2381 2855 2742 
Q 2594 3103 2138 3103 
Q 1681 3103 1420 2742 
Q 1159 2381 1159 1747 
Q 1159 1113 1420 752 
Q 1681 391 2138 391 
Q 2594 391 2855 752 
Q 3116 1113 3116 1747 
z
M 1159 2969 
Q 1341 3281 1617 3432 
Q 1894 3584 2278 3584 
Q 2916 3584 3314 3078 
Q 3713 2572 3713 1747 
Q 3713 922 3314 415 
Q 2916 -91 2278 -91 
Q 1894 -91 1617 61 
Q 1341 213 1159 525 
L 1159 0 
L 581 0 
L 581 4863 
L 1159 4863 
L 1159 2969 
z
" transform="scale(0.015625)"/>
       <path id="DejaVuSans-6e" d="M 3513 2113 
L 3513 0 
L 2938 0 
L 2938 2094 
Q 2938 2591 2744 2837 
Q 2550 3084 2163 3084 
Q 1697 3084 1428 2787 
Q 1159 2491 1159 1978 
L 1159 0 
L 581 0 
L 581 3500 
L 1159 3500 
L 1159 2956 
Q 1366 3272 1645 3428 
Q 1925 3584 2291 3584 
Q 2894 3584 3203 3211 
Q 3513 2838 3513 2113 
z
" transform="scale(0.015625)"/>
       <path id="DejaVuSans-61" d="M 2194 1759 
Q 1497 1759 1228 1600 
Q 959 1441 959 1056 
Q 959 750 1161 570 
Q 1363 391 1709 391 
Q 2188 391 2477 730 
Q 2766 1069 2766 1631 
L 2766 1759 
L 2194 1759 
z
M 3341 1997 
L 3341 0 
L 2766 0 
L 2766 531 
Q 2569 213 2275 61 
Q 1981 -91 1556 -91 
Q 1019 -91 701 211 
Q 384 513 384 1019 
Q 384 1609 779 1909 
Q 1175 2209 1959 2209 
L 2766 2209 
L 2766 2266 
Q 2766 2663 2505 2880 
Q 2244 3097 1772 3097 
Q 1472 3097 1187 3025 
Q 903 2953 641 2809 
L 641 3341 
Q 956 3463 1253 3523 
Q 1550 3584 1831 3584 
Q 2591 3584 2966 3190 
Q 3341 2797 3341 1997 
z
" transform="scale(0.015625)"/>
       <path id="DejaVuSans-74" d="M 1172 4494 
L 1172 3500 
L 2356 3500 
L 2356 3053 
L 1172 3053 
L 1172 1153 
Q 1172 725 1289 603 
Q 1406 481 1766 481 
L 2356 481 
L 2356 0 
L 1766 0 
Q 1100 0 847 248 
Q 594 497 594 1153 
L 594 3053 
L 172 3053 
L 172 3500 
L 594 3500 
L 594 4494 
L 1172 4494 
z
" transform="scale(0.015625)"/>
       <path id="DejaVuSans-72" d="M 2631 2963 
Q 2534 3019 2420 3045 
Q 2306 3072 2169 3072 
Q 1681 3072 1420 2755 
Q 1159 2438 1159 1844 
L 1159 0 
L 581 0 
L 581 3500 
L 1159 3500 
L 1159 2956 
Q 1341 3275 1631 3429 
Q 1922 3584 2338 3584 
Q 2397 3584 2469 3576 
Q 2541 3569 2628 3553 
L 2631 2963 
z
" transform="scale(0.015625)"/>
      </defs>
      <use xlink:href="#DejaVuSans-52"/>
      <use xlink:href="#DejaVuSans-65" x="64.982422"/>
      <use xlink:href="#DejaVuSans-63" x="126.505859"/>
      <use xlink:href="#DejaVuSans-6f" x="181.486328"/>
      <use xlink:href="#DejaVuSans-6d" x="242.667969"/>
      <use xlink:href="#DejaVuSans-62" x="340.080078"/>
      <use xlink:href="#DejaVuSans-69" x="403.556641"/>
      <use xlink:href="#DejaVuSans-6e" x="431.339844"/>
      <use xlink:href="#DejaVuSans-61" x="494.71875"/>
      <use xlink:href="#DejaVuSans-74" x="555.998047"/>
      <use xlink:href="#DejaVuSans-69" x="595.207031"/>
      <use xlink:href="#DejaVuSans-6f" x="622.990234"/>
      <use xlink:href="#DejaVuSans-6e" x="684.171875"/>
      <use xlink:href="#DejaVuSans-20" x="747.550781"/>
      <use xlink:href="#DejaVuSans-72" x="779.337891"/>
      <use xlink:href="#DejaVuSans-61" x="820.451172"/>
      <use xlink:href="#DejaVuSans-74" x="881.730469"/>
      <use xlink:href="#DejaVuSans-65" x="920.939453"/>
     </g>
    </g>
    <g id="text_13">
     <!-- 1e9 -->
     <g transform="translate(36 22.92) scale(0.1 -0.1)">
      <defs>
       <path id="DejaVuSans-2212" d="M 678 2272 
L 4684 2272 
L 4684 1741 
L 678 1741 
L 678 2272 
z
" transform="scale(0.015625)"/>
       <path id="DejaVuSans-39" d="M 703 97 
L 703 672 
Q 941 559 1184 500 
Q 1428 441 1663 441 
Q 2288 441 2617 861 
Q 2947 1281 2994 2138 
Q 2813 1869 2534 1725 
Q 2256 1581 1919 1581 
Q 1219 1581 811 2004 
Q 403 2428 403 3163 
Q 403 3881 828 4315 
Q 1253 4750 1959 4750 
Q 2769 4750 3195 4129 
Q 3622 3509 3622 2328 
Q 3622 1225 3098 567 
Q 2575 -91 1691 -91 
Q 1453 -91 1209 -44 
Q 966 3 703 97 
z
M 1959 2075 
Q 2384 2075 2632 2365 
Q 2881 2656 2881 3163 
Q 2881 3666 2632 3958 
Q 2384 4250 1959 4250 
Q 1534 4250 1286 3958 
Q 1038 3666 1038 3163 
Q 1038 2656 1286 2365 
Q 1534 2075 1959 2075 
z
" transform="scale(0.015625)"/>
      </defs>
      <use xlink:href="#DejaVuSans-31"/>
      <use xlink:href="#DejaVuSans-65" x="63.623047"/>
      <use xlink:href="#DejaVuSans-2212" x="125.146484"/>
      <use xlink:href="#DejaVuSans-39" x="208.935547"/>
     </g>
    </g>
   </g>
   <g id="patch_3">
    <path d="M 36 192.24 
L 36 25.92 
" style="fill: none; stroke: #000000; stroke-width: 0.8; stroke-linejoin: miter; stroke-linecap: square"/>
   </g>
   <g id="patch_4">
    <path d="M 214.56 192.24 
L 214.56 25.92 
" style="fill: none; stroke: #000000; stroke-width: 0.8; stroke-linejoin: miter; stroke-linecap: square"/>
   </g>
   <g id="patch_5">
    <path d="M 36 192.24 
L 214.56 192.24 
" style="fill: none; stroke: #000000; stroke-width: 0.8; stroke-linejoin: miter; stroke-linecap: square"/>
   </g>
   <g id="patch_6">
    <path d="M 36 25.92 
L 214.56 25.92 
" style="fill: none; stroke: #000000; stroke-width: 0.8; stroke-linejoin: miter; stroke-linecap: square"/>
   </g>
   <g id="text_14">
    <!-- Ne2r-MSSMC-R-P2-S4 -->
    <g transform="translate(40.08875 10.92) scale(0.16 -0.16)">
     <defs>
      <path id="DejaVuSans-2d" d="M 313 2009 
L 1997 2009 
L 1997 1497 
L 313 1497 
L 313 2009 
z
" transform="scale(0.015625)"/>
      <path id="DejaVuSans-4d" d="M 628 4666 
L 1569 4666 
L 2759 1491 
L 3956 4666 
L 4897 4666 
L 4897 0 
L 4281 0 
L 4281 4097 
L 3078 897 
L 2444 897 
L 1241 4097 
L 1241 0 
L 628 0 
L 628 4666 
z
" transform="scale(0.015625)"/>
      <path id="DejaVuSans-53" d="M 3425 4513 
L 3425 3897 
Q 3066 4069 2747 4153 
Q 2428 4238 2131 4238 
Q 1616 4238 1336 4038 
Q 1056 3838 1056 3469 
Q 1056 3159 1242 3001 
Q 1428 2844 1947 2747 
L 2328 2669 
Q 3034 2534 3370 2195 
Q 3706 1856 3706 1288 
Q 3706 609 3251 259 
Q 2797 -91 1919 -91 
Q 1588 -91 1214 -16 
Q 841 59 441 206 
L 441 856 
Q 825 641 1194 531 
Q 1563 422 1919 422 
Q 2459 422 2753 634 
Q 3047 847 3047 1241 
Q 3047 1584 2836 1778 
Q 2625 1972 2144 2069 
L 1759 2144 
Q 1053 2284 737 2584 
Q 422 2884 422 3419 
Q 422 4038 858 4394 
Q 1294 4750 2059 4750 
Q 2388 4750 2728 4690 
Q 3069 4631 3425 4513 
z
" transform="scale(0.015625)"/>
      <path id="DejaVuSans-43" d="M 4122 4306 
L 4122 3641 
Q 3803 3938 3442 4084 
Q 3081 4231 2675 4231 
Q 1875 4231 1450 3742 
Q 1025 3253 1025 2328 
Q 1025 1406 1450 917 
Q 1875 428 2675 428 
Q 3081 428 3442 575 
Q 3803 722 4122 1019 
L 4122 359 
Q 3791 134 3420 21 
Q 3050 -91 2638 -91 
Q 1578 -91 968 557 
Q 359 1206 359 2328 
Q 359 3453 968 4101 
Q 1578 4750 2638 4750 
Q 3056 4750 3426 4639 
Q 3797 4528 4122 4306 
z
" transform="scale(0.015625)"/>
      <path id="DejaVuSans-50" d="M 1259 4147 
L 1259 2394 
L 2053 2394 
Q 2494 2394 2734 2622 
Q 2975 2850 2975 3272 
Q 2975 3691 2734 3919 
Q 2494 4147 2053 4147 
L 1259 4147 
z
M 628 4666 
L 2053 4666 
Q 2838 4666 3239 4311 
Q 3641 3956 3641 3272 
Q 3641 2581 3239 2228 
Q 2838 1875 2053 1875 
L 1259 1875 
L 1259 0 
L 628 0 
L 628 4666 
z
" transform="scale(0.015625)"/>
     </defs>
     <use xlink:href="#DejaVuSans-4e"/>
     <use xlink:href="#DejaVuSans-65" x="74.804688"/>
     <use xlink:href="#DejaVuSans-32" x="136.328125"/>
     <use xlink:href="#DejaVuSans-72" x="199.951172"/>
     <use xlink:href="#DejaVuSans-2d" x="234.689453"/>
     <use xlink:href="#DejaVuSans-4d" x="270.773438"/>
     <use xlink:href="#DejaVuSans-53" x="357.052734"/>
     <use xlink:href="#DejaVuSans-53" x="420.529297"/>
     <use xlink:href="#DejaVuSans-4d" x="484.005859"/>
     <use xlink:href="#DejaVuSans-43" x="570.285156"/>
     <use xlink:href="#DejaVuSans-2d" x="640.109375"/>
     <use xlink:href="#DejaVuSans-52" x="676.193359"/>
     <use xlink:href="#DejaVuSans-2d" x="741.675781"/>
     <use xlink:href="#DejaVuSans-50" x="777.759766"/>
     <use xlink:href="#DejaVuSans-32" x="838.0625"/>
     <use xlink:href="#DejaVuSans-2d" x="901.685547"/>
     <use xlink:href="#DejaVuSans-53" x="937.769531"/>
     <use xlink:href="#DejaVuSans-34" x="1001.246094"/>
    </g>
   </g>
  </g>
  <g id="axes_2">
   <g id="patch_7">
    <path d="M 225.72 192.24 
L 234.036 192.24 
L 234.036 25.92 
L 225.72 25.92 
z
" style="fill: #ffffff"/>
   </g>
   <g id="QuadMesh_1">
    <path d="M 225.72 192.24 
L 234.036 192.24 
L 234.036 181.845 
L 225.72 181.845 
L 225.72 192.24 
" clip-path="url(#pdd3d109d23)" style="fill: #eae51a"/>
    <path d="M 225.72 181.845 
L 234.036 181.845 
L 234.036 171.45 
L 225.72 171.45 
L 225.72 181.845 
" clip-path="url(#pdd3d109d23)" style="fill: #c0df25"/>
    <path d="M 225.72 171.45 
L 234.036 171.45 
L 234.036 161.055 
L 225.72 161.055 
L 225.72 171.45 
" clip-path="url(#pdd3d109d23)" style="fill: #95d840"/>
    <path d="M 225.72 161.055 
L 234.036 161.055 
L 234.036 150.66 
L 225.72 150.66 
L 225.72 161.055 
" clip-path="url(#pdd3d109d23)" style="fill: #6ece58"/>
    <path d="M 225.72 150.66 
L 234.036 150.66 
L 234.036 140.265 
L 225.72 140.265 
L 225.72 150.66 
" clip-path="url(#pdd3d109d23)" style="fill: #4cc26c"/>
    <path d="M 225.72 140.265 
L 234.036 140.265 
L 234.036 129.87 
L 225.72 129.87 
L 225.72 140.265 
" clip-path="url(#pdd3d109d23)" style="fill: #31b57b"/>
    <path d="M 225.72 129.87 
L 234.036 129.87 
L 234.036 119.475 
L 225.72 119.475 
L 225.72 129.87 
" clip-path="url(#pdd3d109d23)" style="fill: #21a685"/>
    <path d="M 225.72 119.475 
L 234.036 119.475 
L 234.036 109.08 
L 225.72 109.08 
L 225.72 119.475 
" clip-path="url(#pdd3d109d23)" style="fill: #1f978b"/>
    <path d="M 225.72 109.08 
L 234.036 109.08 
L 234.036 98.685 
L 225.72 98.685 
L 225.72 109.08 
" clip-path="url(#pdd3d109d23)" style="fill: #23888e"/>
    <path d="M 225.72 98.685 
L 234.036 98.685 
L 234.036 88.29 
L 225.72 88.29 
L 225.72 98.685 
" clip-path="url(#pdd3d109d23)" style="fill: #29798e"/>
    <path d="M 225.72 88.29 
L 234.036 88.29 
L 234.036 77.895 
L 225.72 77.895 
L 225.72 88.29 
" clip-path="url(#pdd3d109d23)" style="fill: #306a8e"/>
    <path d="M 225.72 77.895 
L 234.036 77.895 
L 234.036 67.5 
L 225.72 67.5 
L 225.72 77.895 
" clip-path="url(#pdd3d109d23)" style="fill: #375a8c"/>
    <path d="M 225.72 67.5 
L 234.036 67.5 
L 234.036 57.105 
L 225.72 57.105 
L 225.72 67.5 
" clip-path="url(#pdd3d109d23)" style="fill: #3f4889"/>
    <path d="M 225.72 57.105 
L 234.036 57.105 
L 234.036 46.71 
L 225.72 46.71 
L 225.72 57.105 
" clip-path="url(#pdd3d109d23)" style="fill: #453581"/>
    <path d="M 225.72 46.71 
L 234.036 46.71 
L 234.036 36.315 
L 225.72 36.315 
L 225.72 46.71 
" clip-path="url(#pdd3d109d23)" style="fill: #482173"/>
    <path d="M 225.72 36.315 
L 234.036 36.315 
L 234.036 25.92 
L 225.72 25.92 
L 225.72 36.315 
" clip-path="url(#pdd3d109d23)" style="fill: #460b5e"/>
   </g>
   <g id="matplotlib.axis_3"/>
   <g id="matplotlib.axis_4">
    <g id="ytick_6">
     <g id="line2d_10">
      <defs>
       <path id="m9e1e0551d4" d="M 0 0 
L 3.5 0 
" style="stroke: #000000; stroke-width: 0.8"/>
      </defs>
      <g>
       <use xlink:href="#m9e1e0551d4" x="234.036" y="192.24" style="stroke: #000000; stroke-width: 0.8"/>
      </g>
     </g>
     <g id="text_15">
      <!-- $\mathdefault{0.0}$ -->
      <g transform="translate(241.036 196.039219) scale(0.1 -0.1)">
       <use xlink:href="#DejaVuSans-30" transform="translate(0 0.78125)"/>
       <use xlink:href="#DejaVuSans-2e" transform="translate(63.623047 0.78125)"/>
       <use xlink:href="#DejaVuSans-30" transform="translate(95.410156 0.78125)"/>
      </g>
     </g>
    </g>
    <g id="ytick_7">
     <g id="line2d_11">
      <g>
       <use xlink:href="#m9e1e0551d4" x="234.036" y="171.45" style="stroke: #000000; stroke-width: 0.8"/>
      </g>
     </g>
     <g id="text_16">
      <!-- $\mathdefault{0.6}$ -->
      <g transform="translate(241.036 175.249219) scale(0.1 -0.1)">
       <use xlink:href="#DejaVuSans-30" transform="translate(0 0.78125)"/>
       <use xlink:href="#DejaVuSans-2e" transform="translate(63.623047 0.78125)"/>
       <use xlink:href="#DejaVuSans-36" transform="translate(95.410156 0.78125)"/>
      </g>
     </g>
    </g>
    <g id="ytick_8">
     <g id="line2d_12">
      <g>
       <use xlink:href="#m9e1e0551d4" x="234.036" y="150.66" style="stroke: #000000; stroke-width: 0.8"/>
      </g>
     </g>
     <g id="text_17">
      <!-- $\mathdefault{1.2}$ -->
      <g transform="translate(241.036 154.459219) scale(0.1 -0.1)">
       <use xlink:href="#DejaVuSans-31" transform="translate(0 0.78125)"/>
       <use xlink:href="#DejaVuSans-2e" transform="translate(63.623047 0.78125)"/>
       <use xlink:href="#DejaVuSans-32" transform="translate(89.910156 0.78125)"/>
      </g>
     </g>
    </g>
    <g id="ytick_9">
     <g id="line2d_13">
      <g>
       <use xlink:href="#m9e1e0551d4" x="234.036" y="129.87" style="stroke: #000000; stroke-width: 0.8"/>
      </g>
     </g>
     <g id="text_18">
      <!-- $\mathdefault{1.8}$ -->
      <g transform="translate(241.036 133.669219) scale(0.1 -0.1)">
       <use xlink:href="#DejaVuSans-31" transform="translate(0 0.78125)"/>
       <use xlink:href="#DejaVuSans-2e" transform="translate(63.623047 0.78125)"/>
       <use xlink:href="#DejaVuSans-38" transform="translate(92.785156 0.78125)"/>
      </g>
     </g>
    </g>
    <g id="ytick_10">
     <g id="line2d_14">
      <g>
       <use xlink:href="#m9e1e0551d4" x="234.036" y="109.08" style="stroke: #000000; stroke-width: 0.8"/>
      </g>
     </g>
     <g id="text_19">
      <!-- $\mathdefault{2.4}$ -->
      <g transform="translate(241.036 112.879219) scale(0.1 -0.1)">
       <use xlink:href="#DejaVuSans-32" transform="translate(0 0.78125)"/>
       <use xlink:href="#DejaVuSans-2e" transform="translate(63.623047 0.78125)"/>
       <use xlink:href="#DejaVuSans-34" transform="translate(95.410156 0.78125)"/>
      </g>
     </g>
    </g>
    <g id="ytick_11">
     <g id="line2d_15">
      <g>
       <use xlink:href="#m9e1e0551d4" x="234.036" y="88.29" style="stroke: #000000; stroke-width: 0.8"/>
      </g>
     </g>
     <g id="text_20">
      <!-- $\mathdefault{3.0}$ -->
      <g transform="translate(241.036 92.089219) scale(0.1 -0.1)">
       <use xlink:href="#DejaVuSans-33" transform="translate(0 0.78125)"/>
       <use xlink:href="#DejaVuSans-2e" transform="translate(63.623047 0.78125)"/>
       <use xlink:href="#DejaVuSans-30" transform="translate(95.410156 0.78125)"/>
      </g>
     </g>
    </g>
    <g id="ytick_12">
     <g id="line2d_16">
      <g>
       <use xlink:href="#m9e1e0551d4" x="234.036" y="67.5" style="stroke: #000000; stroke-width: 0.8"/>
      </g>
     </g>
     <g id="text_21">
      <!-- $\mathdefault{3.6}$ -->
      <g transform="translate(241.036 71.299219) scale(0.1 -0.1)">
       <use xlink:href="#DejaVuSans-33" transform="translate(0 0.78125)"/>
       <use xlink:href="#DejaVuSans-2e" transform="translate(63.623047 0.78125)"/>
       <use xlink:href="#DejaVuSans-36" transform="translate(95.410156 0.78125)"/>
      </g>
     </g>
    </g>
    <g id="ytick_13">
     <g id="line2d_17">
      <g>
       <use xlink:href="#m9e1e0551d4" x="234.036" y="46.71" style="stroke: #000000; stroke-width: 0.8"/>
      </g>
     </g>
     <g id="text_22">
      <!-- $\mathdefault{4.2}$ -->
      <g transform="translate(241.036 50.509219) scale(0.1 -0.1)">
       <use xlink:href="#DejaVuSans-34" transform="translate(0 0.78125)"/>
       <use xlink:href="#DejaVuSans-2e" transform="translate(63.623047 0.78125)"/>
       <use xlink:href="#DejaVuSans-32" transform="translate(89.910156 0.78125)"/>
      </g>
     </g>
    </g>
    <g id="ytick_14">
     <g id="line2d_18">
      <g>
       <use xlink:href="#m9e1e0551d4" x="234.036" y="25.92" style="stroke: #000000; stroke-width: 0.8"/>
      </g>
     </g>
     <g id="text_23">
      <!-- $\mathdefault{4.8}$ -->
      <g transform="translate(241.036 29.719219) scale(0.1 -0.1)">
       <use xlink:href="#DejaVuSans-34" transform="translate(0 0.78125)"/>
       <use xlink:href="#DejaVuSans-2e" transform="translate(63.623047 0.78125)"/>
       <use xlink:href="#DejaVuSans-38" transform="translate(92.785156 0.78125)"/>
      </g>
     </g>
    </g>
    <g id="text_24">
     <!-- $\Delta$ log likelihood -->
     <g transform="translate(270.156 154.98) rotate(-90) scale(0.12 -0.12)">
      <defs>
       <path id="DejaVuSans-394" d="M 2188 4044 
L 906 525 
L 3472 525 
L 2188 4044 
z
M 50 0 
L 1831 4666 
L 2547 4666 
L 4325 0 
L 50 0 
z
" transform="scale(0.015625)"/>
       <path id="DejaVuSans-67" d="M 2906 1791 
Q 2906 2416 2648 2759 
Q 2391 3103 1925 3103 
Q 1463 3103 1205 2759 
Q 947 2416 947 1791 
Q 947 1169 1205 825 
Q 1463 481 1925 481 
Q 2391 481 2648 825 
Q 2906 1169 2906 1791 
z
M 3481 434 
Q 3481 -459 3084 -895 
Q 2688 -1331 1869 -1331 
Q 1566 -1331 1297 -1286 
Q 1028 -1241 775 -1147 
L 775 -588 
Q 1028 -725 1275 -790 
Q 1522 -856 1778 -856 
Q 2344 -856 2625 -561 
Q 2906 -266 2906 331 
L 2906 616 
Q 2728 306 2450 153 
Q 2172 0 1784 0 
Q 1141 0 747 490 
Q 353 981 353 1791 
Q 353 2603 747 3093 
Q 1141 3584 1784 3584 
Q 2172 3584 2450 3431 
Q 2728 3278 2906 2969 
L 2906 3500 
L 3481 3500 
L 3481 434 
z
" transform="scale(0.015625)"/>
       <path id="DejaVuSans-6b" d="M 581 4863 
L 1159 4863 
L 1159 1991 
L 2875 3500 
L 3609 3500 
L 1753 1863 
L 3688 0 
L 2938 0 
L 1159 1709 
L 1159 0 
L 581 0 
L 581 4863 
z
" transform="scale(0.015625)"/>
       <path id="DejaVuSans-68" d="M 3513 2113 
L 3513 0 
L 2938 0 
L 2938 2094 
Q 2938 2591 2744 2837 
Q 2550 3084 2163 3084 
Q 1697 3084 1428 2787 
Q 1159 2491 1159 1978 
L 1159 0 
L 581 0 
L 581 4863 
L 1159 4863 
L 1159 2956 
Q 1366 3272 1645 3428 
Q 1925 3584 2291 3584 
Q 2894 3584 3203 3211 
Q 3513 2838 3513 2113 
z
" transform="scale(0.015625)"/>
      </defs>
      <use xlink:href="#DejaVuSans-394" transform="translate(0 0.015625)"/>
      <use xlink:href="#DejaVuSans-20" transform="translate(68.408203 0.015625)"/>
      <use xlink:href="#DejaVuSans-6c" transform="translate(100.195312 0.015625)"/>
      <use xlink:href="#DejaVuSans-6f" transform="translate(127.978516 0.015625)"/>
      <use xlink:href="#DejaVuSans-67" transform="translate(189.160156 0.015625)"/>
      <use xlink:href="#DejaVuSans-20" transform="translate(252.636719 0.015625)"/>
      <use xlink:href="#DejaVuSans-6c" transform="translate(284.423828 0.015625)"/>
      <use xlink:href="#DejaVuSans-69" transform="translate(312.207031 0.015625)"/>
      <use xlink:href="#DejaVuSans-6b" transform="translate(339.990234 0.015625)"/>
      <use xlink:href="#DejaVuSans-65" transform="translate(397.900391 0.015625)"/>
      <use xlink:href="#DejaVuSans-6c" transform="translate(459.423828 0.015625)"/>
      <use xlink:href="#DejaVuSans-69" transform="translate(487.207031 0.015625)"/>
      <use xlink:href="#DejaVuSans-68" transform="translate(514.990234 0.015625)"/>
      <use xlink:href="#DejaVuSans-6f" transform="translate(578.369141 0.015625)"/>
      <use xlink:href="#DejaVuSans-6f" transform="translate(639.550781 0.015625)"/>
      <use xlink:href="#DejaVuSans-64" transform="translate(700.732422 0.015625)"/>
     </g>
    </g>
    <g id="text_25">
     <!-- $\times\mathdefault{10^{3}}\mathdefault{}$ -->
     <g transform="translate(208.036 22.92) scale(0.1 -0.1)">
      <defs>
       <path id="DejaVuSans-d7" d="M 4488 3438 
L 3059 2003 
L 4488 575 
L 4116 197 
L 2681 1631 
L 1247 197 
L 878 575 
L 2303 2003 
L 878 3438 
L 1247 3816 
L 2681 2381 
L 4116 3816 
L 4488 3438 
z
" transform="scale(0.015625)"/>
      </defs>
      <use xlink:href="#DejaVuSans-d7" transform="translate(0 0.765625)"/>
      <use xlink:href="#DejaVuSans-31" transform="translate(83.789062 0.765625)"/>
      <use xlink:href="#DejaVuSans-30" transform="translate(147.412109 0.765625)"/>
      <use xlink:href="#DejaVuSans-33" transform="translate(211.992188 39.046875) scale(0.7)"/>
     </g>
    </g>
   </g>
   <g id="LineCollection_1"/>
   <g id="patch_8">
    <path d="M 225.72 192.24 
L 229.878 192.24 
L 234.036 192.24 
L 234.036 25.92 
L 229.878 25.92 
L 225.72 25.92 
L 225.72 192.24 
z
" style="fill: none; stroke: #000000; stroke-width: 0.8; stroke-linejoin: miter; stroke-linecap: square"/>
   </g>
  </g>
 </g>
 <defs>
  <clipPath id="p5b446e2195">
   <rect x="36" y="25.92" width="178.56" height="166.32"/>
  </clipPath>
  <clipPath id="pdd3d109d23">
   <rect x="225.72" y="25.92" width="8.316" height="166.32"/>
  </clipPath>
 </defs>
</svg>
