<svg class="toyplot-canvas-Canvas" xmlns:toyplot="http://www.sandia.gov/toyplot" xmlns:xlink="http://www.w3.org/1999/xlink" xmlns="http://www.w3.org/2000/svg" width="225.0px" height="225.0px" viewBox="0 0 225.0 225.0" preserveAspectRatio="xMidYMid meet" style="background-color:transparent;border-color:#292724;border-style:none;border-width:1.0;fill:rgb(16.1%,15.3%,14.1%);fill-opacity:1.0;font-family:Helvetica;font-size:12px;opacity:1.0;stroke:rgb(16.1%,15.3%,14.1%);stroke-opacity:1.0;stroke-width:1.0" id="t1e54199eba494285b1ef329b2a9a1e23"><g class="toyplot-coordinates-Cartesian" id="t3a2d244737834bb1b0a70b95c865f93f"><clipPath id="t07d29c6d508e4b2792429cc666e90420"><rect x="40.0" y="40.0" width="145.0" height="145.0" /></clipPath><g clip-path="url(#t07d29c6d508e4b2792429cc666e90420)"><g class="toyplot-mark-FillBoundaries" style="stroke:none" id="t5ccb463a02224505a3f091f4b39c9295"><polygon points="112.31281503318026,175.0 112.32227708712688,175.0 112.33173914107348,175.0 112.3412011950201,175.0 112.35066324896671,175.0 112.36012530291332,175.0 112.36958735685994,175.0 112.37904941080654,175.0 112.38851146475317,175.0 112.39797351869977,175.0 112.40743557264639,175.0 112.416897626593,175.0 112.42635968053962,175.0 112.43582173448623,175.0 112.44528378843283,175.0 112.45474584237876,175.0 112.46420789632536,175.0 112.47366995027198,175.0 112.4831320042186,175.0 112.49259405816521,175.0 112.50205611211251,175.0 112.51151816605842,175.0 112.52098022000574,175.0 112.53044227395166,175.0 112.53990432789897,175.0 112.54936638184488,175.0 112.5588284357922,175.0 112.5682904897381,175.0 112.5777525436854,175.0 112.58721459763133,175.0 112.58721459763133,50.0 112.5777525436854,73.46438974218879 112.5682904897381,100.1720942546995 112.5588284357922,147.26634895826408 112.54936638184488,160.7029388403495 112.53990432789897,164.4757744256897 112.53044227395166,164.93910510987558 112.52098022000574,170.36669314338542 112.51151816605842,172.48477627746888 112.50205611211251,170.7307386821194 112.49259405816521,172.91501191437052 112.4831320042186,172.7495366694793 112.47366995027198,173.61000794291368 112.46420789632536,174.5697643632828 112.45474584237876,174.93380990203866 112.44528378843283,174.5697643632828 112.43582173448623,174.23881387350036 112.42635968053962,174.5697643632828 112.416897626593,174.6359544612393 112.40743557264639,174.9338099020435 112.39797351869977,174.9338099020435 112.38851146475317,174.90071485306527 112.37904941080654,175.0 112.36958735685994,175.0 112.36012530291332,175.0 112.35066324896671,175.0 112.3412011950201,175.0 112.33173914107348,175.0 112.32227708712688,175.0 112.31281503318026,174.9338099020435" style="fill:rgb(90.6%,54.1%,76.5%);fill-opacity:1.0;opacity:0.3;stroke:none" /></g><g class="toyplot-mark-FillBoundaries" style="stroke:none" id="t0e42893f50c3478799989fb018832af7"><polygon points="112.52098022000574,175.0 112.53044227395166,175.0 112.53990432789897,175.0 112.54936638184488,175.0 112.5588284357922,175.0 112.5682904897381,175.0 112.5777525436854,175.0 112.5777525436854,73.46438974218879 112.5682904897381,100.1720942546995 112.5588284357922,147.26634895826408 112.54936638184488,160.7029388403495 112.53990432789897,164.4757744256897 112.53044227395166,164.93910510987558 112.52098022000574,170.36669314338542" style="fill:rgb(90.6%,54.1%,76.5%);fill-opacity:1.0;opacity:0.5;stroke:none" /></g><g class="toyplot-mark-Plot" style="fill:none;stroke-width:3" id="t3a8a49f98dc0498ba0e37d41e73a804d"><g class="toyplot-Series"><path d="M 112.31281503318026 174.9338099020435 L 112.32227708712688 175.0 L 112.33173914107348 175.0 L 112.3412011950201 175.0 L 112.35066324896671 175.0 L 112.36012530291332 175.0 L 112.36958735685994 175.0 L 112.37904941080654 175.0 L 112.38851146475317 174.90071485306527 L 112.39797351869977 174.9338099020435 L 112.40743557264639 174.9338099020435 L 112.416897626593 174.6359544612393 L 112.42635968053962 174.5697643632828 L 112.43582173448623 174.23881387350036 L 112.44528378843283 174.5697643632828 L 112.45474584237876 174.93380990203866 L 112.46420789632536 174.5697643632828 L 112.47366995027198 173.61000794291368 L 112.4831320042186 172.7495366694793 L 112.49259405816521 172.91501191437052 L 112.50205611211251 170.7307386821194 L 112.51151816605842 172.48477627746888 L 112.52098022000574 170.36669314338542 L 112.53044227395166 164.93910510987558 L 112.53990432789897 164.4757744256897 L 112.54936638184488 160.7029388403495 L 112.5588284357922 147.26634895826408 L 112.5682904897381 100.1720942546995 L 112.5777525436854 73.46438974218879 L 112.58721459763133 50.0" style="stroke:rgb(90.6%,54.1%,76.5%);stroke-opacity:1.0;stroke-width:3" /></g></g><g class="toyplot-mark-AxisLines" style="stroke:rgb(90.6%,54.1%,76.5%);stroke-dasharray:4,4;stroke-opacity:1.0;stroke-width:3" id="te34c0c8f24af4c2793bb70fd8a847d50"><g class="toyplot-Series"><line class="toyplot-Datum" x1="112.5" x2="112.5" y1="50.0" y2="175.0" style="opacity:1.0;stroke:rgb(90.6%,54.1%,76.5%);stroke-dasharray:4,4;stroke-opacity:1.0;stroke-width:3" /></g></g></g><g class="toyplot-coordinates-Axis" id="taf619c49bc6b48869097ad862177aa9d" transform="translate(50.0,175.0)translate(0,10.0)"><line x1="0" y1="0" x2="125.0" y2="0" style="stroke-width:3" /><g><line x1="0.0" y1="7.5" x2="0.0" y2="0" style="stroke-width:3" /><line x1="62.5" y1="7.5" x2="62.5" y2="0" style="stroke-width:3" /><line x1="125.0" y1="7.5" x2="125.0" y2="0" style="stroke-width:3" /></g><g><g transform="translate(0.0,12.0)"><text x="-15.568" y="13.687999999999999" style="fill:rgb(16.1%,15.3%,14.1%);fill-opacity:1.0;font-family:helvetica;font-size:16.0px;font-weight:normal;stroke:none;vertical-align:baseline;white-space:pre">0.99</text></g><g transform="translate(62.5,12.0)"><text x="-15.568" y="13.687999999999999" style="fill:rgb(16.1%,15.3%,14.1%);fill-opacity:1.0;font-family:helvetica;font-size:16.0px;font-weight:normal;stroke:none;vertical-align:baseline;white-space:pre">1.00</text></g><g transform="translate(125.0,12.0)"><text x="-15.568" y="13.687999999999999" style="fill:rgb(16.1%,15.3%,14.1%);fill-opacity:1.0;font-family:helvetica;font-size:16.0px;font-weight:normal;stroke:none;vertical-align:baseline;white-space:pre">1.01</text></g></g><g class="toyplot-coordinates-Axis-coordinates" style="visibility:hidden" transform=""><line x1="0" x2="0" y1="-6.0" y2="9.0" style="stroke:rgb(43.9%,50.2%,56.5%);stroke-opacity:1.0;stroke-width:1.0" /><text x="0" y="-12.0" style="alignment-baseline:alphabetic;fill:rgb(43.9%,50.2%,56.5%);fill-opacity:1.0;font-size:10px;font-weight:normal;stroke:none;text-anchor:middle" /></g></g><g class="toyplot-coordinates-Axis" id="t2350ba908c8d4634a6888a9dda04c7e3" transform="translate(50.0,175.0)rotate(-90.0)translate(0,-10.0)"><line x1="0" y1="0" x2="125.0" y2="0" style="stroke-width:3" /><g><line x1="0.0" y1="-7.5" x2="0.0" y2="0" style="stroke-width:3" /><line x1="58.120108960899934" y1="-7.5" x2="58.120108960899934" y2="0" style="stroke-width:3" /><line x1="116.24021792179987" y1="-7.5" x2="116.24021792179987" y2="0" style="stroke-width:3" /></g><g class="toyplot-coordinates-Axis-coordinates" style="visibility:hidden" transform=""><line x1="0" x2="0" y1="6.0" y2="-9.0" style="stroke:rgb(43.9%,50.2%,56.5%);stroke-opacity:1.0;stroke-width:1.0" /><text x="0" y="12.0" style="alignment-baseline:hanging;fill:rgb(43.9%,50.2%,56.5%);fill-opacity:1.0;font-size:10px;font-weight:normal;stroke:none;text-anchor:middle" /></g></g></g></svg>