<svg class="toyplot-canvas-Canvas" xmlns:toyplot="http://www.sandia.gov/toyplot" xmlns:xlink="http://www.w3.org/1999/xlink" xmlns="http://www.w3.org/2000/svg" width="225.0px" height="225.0px" viewBox="0 0 225.0 225.0" preserveAspectRatio="xMidYMid meet" style="background-color:transparent;border-color:#292724;border-style:none;border-width:1.0;fill:rgb(16.1%,15.3%,14.1%);fill-opacity:1.0;font-family:Helvetica;font-size:12px;opacity:1.0;stroke:rgb(16.1%,15.3%,14.1%);stroke-opacity:1.0;stroke-width:1.0" id="tac2673b4683b46b79b6fe616d575fbde"><g class="toyplot-coordinates-Cartesian" id="t40e26f9f3635441997cc99641dcfe320"><clipPath id="t606faf538f8446a4887b774f1d0c3938"><rect x="40.0" y="40.0" width="145.0" height="145.0" /></clipPath><g clip-path="url(#t606faf538f8446a4887b774f1d0c3938)"><g class="toyplot-mark-FillBoundaries" style="stroke:none" id="tcd13576559984a1581f69813af99203e"><polygon points="-470.8079580922932,175.0 -429.1441915789883,175.0 -387.48042506568333,175.0 -345.8166585523785,175.0 -304.15289203907344,175.0 -262.4891255257686,175.0 -220.82535901246365,175.0 -179.16159249915862,175.0 -137.49782598585375,175.0 -95.83405947254894,175.0 -54.17029295924392,175.0 -12.50652644593896,175.0 29.157240067365887,175.0 70.82100658067088,175.0 112.48477309397589,175.0 154.14853960728072,175.0 195.81230612058584,175.0 237.47607263389045,175.0 279.1398391471956,175.0 320.8036056605004,175.0 362.46737217380524,175.0 404.13113868711037,175.0 445.7949052004152,175.0 487.4586717137201,175.0 529.1224382270252,175.0 570.78620474033,175.0 612.4499712536349,175.0 654.1137377669402,175.0 695.7775042802446,175.0 737.4412707935498,175.0 737.4412707935498,76.6634140323612 695.7775042802446,76.9328293363808 654.1137377669402,69.928031431838 612.4499712536349,71.54452325596287 570.78620474033,63.73147943935591 529.1224382270252,72.62218447204727 487.4586717137201,78.54932116050703 445.7949052004152,82.85996602484192 404.13113868711037,62.65381822327293 362.46737217380524,69.65861612781634 320.8036056605004,61.30674170316752 279.1398391471956,71.54452325596355 237.47607263389045,75.85516812029707 195.81230612058584,72.35276916802633 154.14853960728072,71.54452325596287 112.48477309397589,66.6950477835865 70.82100658067088,59.95966518306325 29.157240067365887,64.27031004739776 -12.50652644593896,78.01049055246551 -54.17029295924392,68.58095491173297 -95.83405947254894,69.92803143183727 -137.49782598585375,68.31153960771171 -179.16159249915862,72.62218447204691 -220.82535901246365,59.4208345750214 -262.4891255257686,78.27990585648612 -304.15289203907344,60.49849579110512 -345.8166585523785,84.20704254494657 -387.48042506568333,69.38920082379579 -429.1441915789883,77.2022446404024 -470.8079580922932,69.65861612781669" style="fill:rgb(65.1%,84.7%,32.9%);fill-opacity:1.0;opacity:0.3;stroke:none" /></g><g class="toyplot-mark-FillBoundaries" style="stroke:none" id="t764fc292fce94c65a830899d2324c790"><polygon points="-470.8079580922932,175.0 -429.1441915789883,175.0 -387.48042506568333,175.0 -345.8166585523785,175.0 -304.15289203907344,175.0 -262.4891255257686,175.0 -220.82535901246365,175.0 -179.16159249915862,175.0 -137.49782598585375,175.0 -95.83405947254894,175.0 -54.17029295924392,175.0 -12.50652644593896,175.0 29.157240067365887,175.0 70.82100658067088,175.0 112.48477309397589,175.0 154.14853960728072,175.0 195.81230612058584,175.0 237.47607263389045,175.0 279.1398391471956,175.0 320.8036056605004,175.0 362.46737217380524,175.0 404.13113868711037,175.0 445.7949052004152,175.0 487.4586717137201,175.0 529.1224382270252,175.0 570.78620474033,175.0 612.4499712536349,175.0 654.1137377669402,175.0 654.1137377669402,69.928031431838 612.4499712536349,71.54452325596287 570.78620474033,63.73147943935591 529.1224382270252,72.62218447204727 487.4586717137201,78.54932116050703 445.7949052004152,82.85996602484192 404.13113868711037,62.65381822327293 362.46737217380524,69.65861612781634 320.8036056605004,61.30674170316752 279.1398391471956,71.54452325596355 237.47607263389045,75.85516812029707 195.81230612058584,72.35276916802633 154.14853960728072,71.54452325596287 112.48477309397589,66.6950477835865 70.82100658067088,59.95966518306325 29.157240067365887,64.27031004739776 -12.50652644593896,78.01049055246551 -54.17029295924392,68.58095491173297 -95.83405947254894,69.92803143183727 -137.49782598585375,68.31153960771171 -179.16159249915862,72.62218447204691 -220.82535901246365,59.4208345750214 -262.4891255257686,78.27990585648612 -304.15289203907344,60.49849579110512 -345.8166585523785,84.20704254494657 -387.48042506568333,69.38920082379579 -429.1441915789883,77.2022446404024 -470.8079580922932,69.65861612781669" style="fill:rgb(65.1%,84.7%,32.9%);fill-opacity:1.0;opacity:0.5;stroke:none" /></g><g class="toyplot-mark-Plot" style="fill:none;stroke-width:3" id="td00cd76a55854adaba20079e2d1af473"><g class="toyplot-Series"><path d="M -470.8079580922932 69.65861612781669 L -429.1441915789883 77.2022446404024 L -387.48042506568333 69.38920082379579 L -345.8166585523785 84.20704254494657 L -304.15289203907344 60.49849579110512 L -262.4891255257686 78.27990585648612 L -220.82535901246365 59.4208345750214 L -179.16159249915862 72.62218447204691 L -137.49782598585375 68.31153960771171 L -95.83405947254894 69.92803143183727 L -54.17029295924392 68.58095491173297 L -12.50652644593896 78.01049055246551 L 29.157240067365887 64.27031004739776 L 70.82100658067088 59.95966518306325 L 112.48477309397589 66.6950477835865 L 154.14853960728072 71.54452325596287 L 195.81230612058584 72.35276916802633 L 237.47607263389045 75.85516812029707 L 279.1398391471956 71.54452325596355 L 320.8036056605004 61.30674170316752 L 362.46737217380524 69.65861612781634 L 404.13113868711037 62.65381822327293 L 445.7949052004152 82.85996602484192 L 487.4586717137201 78.54932116050703 L 529.1224382270252 72.62218447204727 L 570.78620474033 63.73147943935591 L 612.4499712536349 71.54452325596287 L 654.1137377669402 69.928031431838 L 695.7775042802446 76.9328293363808 L 737.4412707935498 76.6634140323612" style="stroke:rgb(65.1%,84.7%,32.9%);stroke-opacity:1.0;stroke-width:3" /></g></g><g class="toyplot-mark-AxisLines" style="stroke:rgb(90.6%,54.1%,76.5%);stroke-dasharray:4,4;stroke-opacity:1.0;stroke-width:3" id="t8810b8053a674beebd57add991b6c894"><g class="toyplot-Series"><line class="toyplot-Datum" x1="112.5" x2="112.5" y1="50.0" y2="175.0" style="opacity:1.0;stroke:rgb(90.6%,54.1%,76.5%);stroke-dasharray:4,4;stroke-opacity:1.0;stroke-width:3" /></g></g></g><g class="toyplot-coordinates-Axis" id="t28ba6355a9c94d3f95d4fa06d9a80e54" transform="translate(50.0,175.0)translate(0,10.0)"><line x1="0" y1="0" x2="125.0" y2="0" style="stroke-width:3" /><g><line x1="0.0" y1="7.5" x2="0.0" y2="0" style="stroke-width:3" /><line x1="62.5" y1="7.5" x2="62.5" y2="0" style="stroke-width:3" /><line x1="125.0" y1="7.5" x2="125.0" y2="0" style="stroke-width:3" /></g><g><g transform="translate(0.0,12.0)"><text x="-11.12" y="13.687999999999999" style="fill:rgb(16.1%,15.3%,14.1%);fill-opacity:1.0;font-family:helvetica;font-size:16.0px;font-weight:normal;stroke:none;vertical-align:baseline;white-space:pre">1.9</text></g><g transform="translate(62.5,12.0)"><text x="-11.12" y="13.687999999999999" style="fill:rgb(16.1%,15.3%,14.1%);fill-opacity:1.0;font-family:helvetica;font-size:16.0px;font-weight:normal;stroke:none;vertical-align:baseline;white-space:pre">2.0</text></g><g transform="translate(125.0,12.0)"><text x="-11.12" y="13.687999999999999" style="fill:rgb(16.1%,15.3%,14.1%);fill-opacity:1.0;font-family:helvetica;font-size:16.0px;font-weight:normal;stroke:none;vertical-align:baseline;white-space:pre">2.1</text></g></g><g class="toyplot-coordinates-Axis-coordinates" style="visibility:hidden" transform=""><line x1="0" x2="0" y1="-6.0" y2="9.0" style="stroke:rgb(43.9%,50.2%,56.5%);stroke-opacity:1.0;stroke-width:1.0" /><text x="0" y="-12.0" style="alignment-baseline:alphabetic;fill:rgb(43.9%,50.2%,56.5%);fill-opacity:1.0;font-size:10px;font-weight:normal;stroke:none;text-anchor:middle" /></g></g><g class="toyplot-coordinates-Axis" id="t52a24bb6bd30493a9bcaacf1a058259e" transform="translate(50.0,175.0)rotate(-90.0)translate(0,-10.0)"><line x1="0" y1="0" x2="125.0" y2="0" style="stroke-width:3" /><g><line x1="0.0" y1="-7.5" x2="0.0" y2="0" style="stroke-width:3" /><line x1="41.666666666666664" y1="-7.5" x2="41.666666666666664" y2="0" style="stroke-width:3" /><line x1="83.33333333333333" y1="-7.5" x2="83.33333333333333" y2="0" style="stroke-width:3" /><line x1="125.0" y1="-7.5" x2="125.0" y2="0" style="stroke-width:3" /></g><g class="toyplot-coordinates-Axis-coordinates" style="visibility:hidden" transform=""><line x1="0" x2="0" y1="6.0" y2="-9.0" style="stroke:rgb(43.9%,50.2%,56.5%);stroke-opacity:1.0;stroke-width:1.0" /><text x="0" y="12.0" style="alignment-baseline:hanging;fill:rgb(43.9%,50.2%,56.5%);fill-opacity:1.0;font-size:10px;font-weight:normal;stroke:none;text-anchor:middle" /></g></g></g></svg>