<svg class="toyplot-canvas-Canvas" xmlns:toyplot="http://www.sandia.gov/toyplot" xmlns:xlink="http://www.w3.org/1999/xlink" xmlns="http://www.w3.org/2000/svg" width="450.0px" height="225.0px" viewBox="0 0 450.0 225.0" preserveAspectRatio="xMidYMid meet" style="background-color:transparent;border-color:#292724;border-style:none;border-width:1.0;fill:rgb(16.1%,15.3%,14.1%);fill-opacity:1.0;font-family:Helvetica;font-size:12px;opacity:1.0;stroke:rgb(16.1%,15.3%,14.1%);stroke-opacity:1.0;stroke-width:1.0" id="td79559cf4d0d4cabaf9c742bd9eaff94"><g class="toyplot-coordinates-Cartesian" id="tfeb3b52c0c1d4bed8332422c403e6be9"><clipPath id="t67b6d511fc3a4f5799161e8d78711666"><rect x="40.0" y="40.0" width="370.0" height="145.0" /></clipPath><g clip-path="url(#t67b6d511fc3a4f5799161e8d78711666)"><g class="toyplot-mark-FillBoundaries" style="stroke:none" id="t05e2108460ed481e93a15e5220300c72"><polygon points="97.08434250181728,175.0 97.15221198916669,175.0 97.22008147651611,175.0 97.28795096386554,175.0 97.35582045121495,175.0 97.42368993856437,175.0 97.49155942591379,175.0 97.55942891326322,175.0 97.62729840061263,175.0 97.69516788796204,175.0 97.76303737531148,175.0 97.8309068626609,175.0 97.89877635001034,175.0 97.96664583735975,175.0 98.03451532470916,175.0 98.10238481205859,175.0 98.17025429940801,175.0 98.23812378675743,175.0 98.30599327410684,175.0 98.37386276145628,175.0 98.44173224880569,175.0 98.50960173615512,175.0 98.57747122350455,175.0 98.64534071085396,175.0 98.71321019820337,175.0 98.7810796855528,175.0 98.84894917290222,175.0 98.91681866025165,175.0 98.98468814760106,175.0 99.05255763495049,175.0 99.05255763495049,174.30845409721837 98.98468814760106,174.2096618253924 98.91681866025165,173.22173910713292 98.84894917290222,171.8386473015696 98.7810796855528,169.8628018650506 98.71321019820337,163.243719652712 98.64534071085396,161.8606278471487 98.57747122350455,150.59830885899044 98.50960173615512,138.8420285117024 98.44173224880569,121.45458867033527 98.37386276145628,105.94420199366118 98.30599327410684,97.94202797575926 98.23812378675743,81.83888766812947 98.17025429940801,67.2176314378889 98.10238481205859,66.0321241759775 98.03451532470916,61.88284875928763 97.96664583735975,76.60289726135412 97.89877635001034,85.98816308481935 97.8309068626609,101.2021729460156 97.76303737531148,119.37995096199033 97.69516788796204,132.12415402753783 97.62729840061263,148.52367115064547 97.55942891326322,156.62463744037333 97.49155942591379,164.33043464279746 97.42368993856437,169.36884050592087 97.35582045121495,172.72777774800315 97.28795096386554,173.12294683530698 97.22008147651611,174.70362318452214 97.15221198916669,174.50603864087023 97.08434250181728,174.50603864087023" style="fill:rgb(40%,76.1%,64.7%);fill-opacity:1.0;opacity:0.3;stroke:none" /></g><g class="toyplot-mark-FillBoundaries" style="stroke:none" id="te610c2f5cb07404697580e78491969a3"><polygon points="97.55942891326322,175.0 97.62729840061263,175.0 97.69516788796204,175.0 97.76303737531148,175.0 97.8309068626609,175.0 97.89877635001034,175.0 97.96664583735975,175.0 98.03451532470916,175.0 98.10238481205859,175.0 98.17025429940801,175.0 98.23812378675743,175.0 98.30599327410684,175.0 98.37386276145628,175.0 98.44173224880569,175.0 98.50960173615512,175.0 98.57747122350455,175.0 98.57747122350455,150.59830885899044 98.50960173615512,138.8420285117024 98.44173224880569,121.45458867033527 98.37386276145628,105.94420199366118 98.30599327410684,97.94202797575926 98.23812378675743,81.83888766812947 98.17025429940801,67.2176314378889 98.10238481205859,66.0321241759775 98.03451532470916,61.88284875928763 97.96664583735975,76.60289726135412 97.89877635001034,85.98816308481935 97.8309068626609,101.2021729460156 97.76303737531148,119.37995096199033 97.69516788796204,132.12415402753783 97.62729840061263,148.52367115064547 97.55942891326322,156.62463744037333" style="fill:rgb(40%,76.1%,64.7%);fill-opacity:1.0;opacity:0.5;stroke:none" /></g><g class="toyplot-mark-Plot" style="fill:none;stroke-width:3" id="t39671c51df884c75a30d8dc758ac983e"><g class="toyplot-Series"><path d="M 97.08434250181728 174.50603864087023 L 97.15221198916669 174.50603864087023 L 97.22008147651611 174.70362318452214 L 97.28795096386554 173.12294683530698 L 97.35582045121495 172.72777774800315 L 97.42368993856437 169.36884050592087 L 97.49155942591379 164.33043464279746 L 97.55942891326322 156.62463744037333 L 97.62729840061263 148.52367115064547 L 97.69516788796204 132.12415402753783 L 97.76303737531148 119.37995096199033 L 97.8309068626609 101.2021729460156 L 97.89877635001034 85.98816308481935 L 97.96664583735975 76.60289726135412 L 98.03451532470916 61.88284875928763 L 98.10238481205859 66.0321241759775 L 98.17025429940801 67.2176314378889 L 98.23812378675743 81.83888766812947 L 98.30599327410684 97.94202797575926 L 98.37386276145628 105.94420199366118 L 98.44173224880569 121.45458867033527 L 98.50960173615512 138.8420285117024 L 98.57747122350455 150.59830885899044 L 98.64534071085396 161.8606278471487 L 98.71321019820337 163.243719652712 L 98.7810796855528 169.8628018650506 L 98.84894917290222 171.8386473015696 L 98.91681866025165 173.22173910713292 L 98.98468814760106 174.2096618253924 L 99.05255763495049 174.30845409721837" style="stroke:rgb(40%,76.1%,64.7%);stroke-opacity:1.0;stroke-width:3" /></g></g><g class="toyplot-mark-FillBoundaries" style="stroke:none" id="tf158fbe57c844382aaec57f49a84ca6f"><polygon points="189.7178078660024,175.0 189.83559426283193,175.0 189.9533806596615,175.0 190.07116705649102,175.0 190.18895345332055,175.0 190.30673985015008,175.0 190.42452624697964,175.0 190.54231264380917,175.0 190.6600990406387,175.0 190.77788543746823,175.0 190.8956718342978,175.0 191.01345823112732,175.0 191.13124462795685,175.0 191.24903102478638,175.0 191.3668174216159,175.0 191.4846038184454,175.0 191.60239021527494,175.0 191.72017661210447,175.0 191.83796300893403,175.0 191.95574940576356,175.0 192.07353580259309,175.0 192.19132219942261,175.0 192.30910859625214,175.0 192.42689499308167,175.0 192.5446813899112,175.0 192.66246778674073,175.0 192.78025418357026,175.0 192.89804058039982,175.0 193.01582697722935,175.0 193.13361337405888,175.0 193.13361337405888,174.94307508317266 193.01582697722935,175.0 192.89804058039982,174.94307508317266 192.78025418357026,174.77230033269072 192.66246778674073,174.1461262475901 192.5446813899112,174.08920133076276 192.42689499308167,171.41373023987836 192.30910859625214,168.909033899476 192.19132219942261,163.04576746626128 192.07353580259309,156.55632694794596 191.95574940576356,149.61148709501205 191.83796300893403,136.74645589203607 191.72017661210447,124.45067385733338 191.60239021527494,112.95184065821329 191.4846038184454,107.60089847641342 191.3668174216159,104.41310313411418 191.24903102478638,103.95770379949556 191.13124462795685,109.25172106443699 191.01345823112732,121.94597751693098 190.8956718342978,135.43718280500752 190.77788543746823,146.76524125364568 190.6600990406387,155.53167844505404 190.54231264380917,162.07804388019673 190.42452624697964,168.51055948168468 190.30673985015008,170.90140598843246 190.18895345332055,173.23532757835284 190.07116705649102,174.25997608124473 189.9533806596615,174.37382591489938 189.83559426283193,174.88615016634535 189.7178078660024,174.94307508317266" style="fill:rgb(98.8%,55.3%,38.4%);fill-opacity:1.0;opacity:0.3;stroke:none" /></g><g class="toyplot-mark-FillBoundaries" style="stroke:none" id="tdb10fe574c9444d38373f2bc9a733861"><polygon points="190.54231264380917,175.0 190.6600990406387,175.0 190.77788543746823,175.0 190.8956718342978,175.0 191.01345823112732,175.0 191.13124462795685,175.0 191.24903102478638,175.0 191.3668174216159,175.0 191.4846038184454,175.0 191.60239021527494,175.0 191.72017661210447,175.0 191.83796300893403,175.0 191.95574940576356,175.0 192.07353580259309,175.0 192.07353580259309,156.55632694794596 191.95574940576356,149.61148709501205 191.83796300893403,136.74645589203607 191.72017661210447,124.45067385733338 191.60239021527494,112.95184065821329 191.4846038184454,107.60089847641342 191.3668174216159,104.41310313411418 191.24903102478638,103.95770379949556 191.13124462795685,109.25172106443699 191.01345823112732,121.94597751693098 190.8956718342978,135.43718280500752 190.77788543746823,146.76524125364568 190.6600990406387,155.53167844505404 190.54231264380917,162.07804388019673" style="fill:rgb(98.8%,55.3%,38.4%);fill-opacity:1.0;opacity:0.5;stroke:none" /></g><g class="toyplot-mark-Plot" style="fill:none;stroke-width:3" id="t181219b4d4c14ee680df850bb529dc72"><g class="toyplot-Series"><path d="M 189.7178078660024 174.94307508317266 L 189.83559426283193 174.88615016634535 L 189.9533806596615 174.37382591489938 L 190.07116705649102 174.25997608124473 L 190.18895345332055 173.23532757835284 L 190.30673985015008 170.90140598843246 L 190.42452624697964 168.51055948168468 L 190.54231264380917 162.07804388019673 L 190.6600990406387 155.53167844505404 L 190.77788543746823 146.76524125364568 L 190.8956718342978 135.43718280500752 L 191.01345823112732 121.94597751693098 L 191.13124462795685 109.25172106443699 L 191.24903102478638 103.95770379949556 L 191.3668174216159 104.41310313411418 L 191.4846038184454 107.60089847641342 L 191.60239021527494 112.95184065821329 L 191.72017661210447 124.45067385733338 L 191.83796300893403 136.74645589203607 L 191.95574940576356 149.61148709501205 L 192.07353580259309 156.55632694794596 L 192.19132219942261 163.04576746626128 L 192.30910859625214 168.909033899476 L 192.42689499308167 171.41373023987836 L 192.5446813899112 174.08920133076276 L 192.66246778674073 174.1461262475901 L 192.78025418357026 174.77230033269072 L 192.89804058039982 174.94307508317266 L 193.01582697722935 175.0 L 193.13361337405888 174.94307508317266" style="stroke:rgb(98.8%,55.3%,38.4%);stroke-opacity:1.0;stroke-width:3" /></g></g><g class="toyplot-mark-FillBoundaries" style="stroke:none" id="tca88ec654b8b49fe92eb5568044bf16f"><polygon points="276.2404362735382,175.0 276.41641334758424,175.0 276.59239042163034,175.0 276.76836749567644,175.0 276.9443445697225,175.0 277.12032164376865,175.0 277.2962987178147,175.0 277.4722757918608,175.0 277.6482528659069,175.0 277.82422993995294,175.0 278.00020701399905,175.0 278.17618408804515,175.0 278.35216116209125,175.0 278.52813823613735,175.0 278.7041153101834,175.0 278.8800923842295,175.0 279.0560694582756,175.0 279.2320465323217,175.0 279.40802360636775,175.0 279.58400068041385,175.0 279.75997775445995,175.0 279.93595482850606,175.0 280.11193190255216,175.0 280.2879089765982,175.0 280.4638860506443,175.0 280.63986312469035,175.0 280.8158401987365,175.0 280.99181727278255,175.0 281.1677943468286,175.0 281.34377142087476,175.0 281.34377142087476,174.8475942192071 281.1677943468286,174.6189855480176 280.99181727278255,174.61898554801772 280.8158401987365,173.89505808925148 280.63986312469035,172.86631906889872 280.4638860506443,171.7613771581508 280.2879089765982,170.61833380220403 280.11193190255216,166.27476904960358 279.93595482850606,162.7694360913695 279.75997775445995,157.4733352088161 279.58400068041385,152.86306033982396 279.40802360636775,146.38581465613237 279.2320465323217,141.77553978714707 279.0560694582756,137.96539526731306 278.8800923842295,135.7936128910256 278.7041153101834,135.6031056650345 278.52813823613735,136.97475769215887 278.35216116209125,136.63184468538657 278.17618408804515,144.5188438414193 278.00020701399905,146.7287276629077 277.82422993995294,156.2540889624729 277.6482528659069,161.47398695462982 277.4722757918608,165.8937545976212 277.2962987178147,168.21794275471578 277.12032164376865,171.1898554801774 276.9443445697225,172.48530461691632 276.76836749567644,173.81885519885498 276.59239042163034,174.2760725412337 276.41641334758424,174.58088410281937 276.2404362735382,174.8475942192071" style="fill:rgb(55.3%,62.7%,79.6%);fill-opacity:1.0;opacity:0.3;stroke:none" /></g><g class="toyplot-mark-FillBoundaries" style="stroke:none" id="t8ab266f1c90540348af430db59553c3e"><polygon points="277.2962987178147,175.0 277.4722757918608,175.0 277.6482528659069,175.0 277.82422993995294,175.0 278.00020701399905,175.0 278.17618408804515,175.0 278.35216116209125,175.0 278.52813823613735,175.0 278.7041153101834,175.0 278.8800923842295,175.0 279.0560694582756,175.0 279.2320465323217,175.0 279.40802360636775,175.0 279.58400068041385,175.0 279.75997775445995,175.0 279.93595482850606,175.0 279.93595482850606,162.7694360913695 279.75997775445995,157.4733352088161 279.58400068041385,152.86306033982396 279.40802360636775,146.38581465613237 279.2320465323217,141.77553978714707 279.0560694582756,137.96539526731306 278.8800923842295,135.7936128910256 278.7041153101834,135.6031056650345 278.52813823613735,136.97475769215887 278.35216116209125,136.63184468538657 278.17618408804515,144.5188438414193 278.00020701399905,146.7287276629077 277.82422993995294,156.2540889624729 277.6482528659069,161.47398695462982 277.4722757918608,165.8937545976212 277.2962987178147,168.21794275471578" style="fill:rgb(55.3%,62.7%,79.6%);fill-opacity:1.0;opacity:0.5;stroke:none" /></g><g class="toyplot-mark-Plot" style="fill:none;stroke-width:3" id="t1edb1a12ebdd49359516000643053d20"><g class="toyplot-Series"><path d="M 276.2404362735382 174.8475942192071 L 276.41641334758424 174.58088410281937 L 276.59239042163034 174.2760725412337 L 276.76836749567644 173.81885519885498 L 276.9443445697225 172.48530461691632 L 277.12032164376865 171.1898554801774 L 277.2962987178147 168.21794275471578 L 277.4722757918608 165.8937545976212 L 277.6482528659069 161.47398695462982 L 277.82422993995294 156.2540889624729 L 278.00020701399905 146.7287276629077 L 278.17618408804515 144.5188438414193 L 278.35216116209125 136.63184468538657 L 278.52813823613735 136.97475769215887 L 278.7041153101834 135.6031056650345 L 278.8800923842295 135.7936128910256 L 279.0560694582756 137.96539526731306 L 279.2320465323217 141.77553978714707 L 279.40802360636775 146.38581465613237 L 279.58400068041385 152.86306033982396 L 279.75997775445995 157.4733352088161 L 279.93595482850606 162.7694360913695 L 280.11193190255216 166.27476904960358 L 280.2879089765982 170.61833380220403 L 280.4638860506443 171.7613771581508 L 280.63986312469035 172.86631906889872 L 280.8158401987365 173.89505808925148 L 280.99181727278255 174.61898554801772 L 281.1677943468286 174.6189855480176 L 281.34377142087476 174.8475942192071" style="stroke:rgb(55.3%,62.7%,79.6%);stroke-opacity:1.0;stroke-width:3" /></g></g><g class="toyplot-mark-AxisLines" style="stroke:rgb(40%,76.1%,64.7%);stroke-dasharray:4,4;stroke-opacity:1.0;stroke-width:3" id="t434a17568d5040588a5487033daf72be"><g class="toyplot-Series"><line class="toyplot-Datum" x1="96.66666666666667" x2="96.66666666666667" y1="50.0" y2="175.0" style="opacity:1.0;stroke:rgb(40%,76.1%,64.7%);stroke-dasharray:4,4;stroke-opacity:1.0;stroke-width:3" /></g></g><g class="toyplot-mark-AxisLines" style="stroke:rgb(98.8%,55.3%,38.4%);stroke-dasharray:4,4;stroke-opacity:1.0;stroke-width:3" id="t54f73fcc15cb4b938cc88f3d6d1d3b4f"><g class="toyplot-Series"><line class="toyplot-Datum" x1="190.0" x2="190.0" y1="50.0" y2="175.0" style="opacity:1.0;stroke:rgb(98.8%,55.3%,38.4%);stroke-dasharray:4,4;stroke-opacity:1.0;stroke-width:3" /></g></g><g class="toyplot-mark-AxisLines" style="stroke:rgb(55.3%,62.7%,79.6%);stroke-dasharray:4,4;stroke-opacity:1.0;stroke-width:3" id="t9d0b41df7958411395fa2de98f933b06"><g class="toyplot-Series"><line class="toyplot-Datum" x1="283.3333333333333" x2="283.3333333333333" y1="50.0" y2="175.0" style="opacity:1.0;stroke:rgb(55.3%,62.7%,79.6%);stroke-dasharray:4,4;stroke-opacity:1.0;stroke-width:3" /></g></g></g><g class="toyplot-coordinates-Axis" id="t7f53ad1879444a0bb043734c5a3a023a" transform="translate(50.0,175.0)translate(0,10.0)"><line x1="0" y1="0" x2="350.0" y2="0" style="stroke-width:3" /><g><line x1="46.666666666666664" y1="7.5" x2="46.666666666666664" y2="0" style="stroke-width:3" /><line x1="140.0" y1="7.5" x2="140.0" y2="0" style="stroke-width:3" /><line x1="233.33333333333331" y1="7.5" x2="233.33333333333331" y2="0" style="stroke-width:3" /><line x1="326.6666666666667" y1="7.5" x2="326.6666666666667" y2="0" style="stroke-width:3" /></g><g><g transform="translate(46.666666666666664,12.0)"><text x="-26.688" y="13.687999999999999" style="fill:rgb(16.1%,15.3%,14.1%);fill-opacity:1.0;font-family:helvetica;font-size:16.0px;font-weight:normal;stroke:none;vertical-align:baseline;white-space:pre">200000</text></g><g transform="translate(140.0,12.0)"><text x="-26.688" y="13.687999999999999" style="fill:rgb(16.1%,15.3%,14.1%);fill-opacity:1.0;font-family:helvetica;font-size:16.0px;font-weight:normal;stroke:none;vertical-align:baseline;white-space:pre">300000</text></g><g transform="translate(233.33333333333331,12.0)"><text x="-26.688" y="13.687999999999999" style="fill:rgb(16.1%,15.3%,14.1%);fill-opacity:1.0;font-family:helvetica;font-size:16.0px;font-weight:normal;stroke:none;vertical-align:baseline;white-space:pre">400000</text></g><g transform="translate(326.6666666666667,12.0)"><text x="-26.688" y="13.687999999999999" style="fill:rgb(16.1%,15.3%,14.1%);fill-opacity:1.0;font-family:helvetica;font-size:16.0px;font-weight:normal;stroke:none;vertical-align:baseline;white-space:pre">500000</text></g></g><g class="toyplot-coordinates-Axis-coordinates" style="visibility:hidden" transform=""><line x1="0" x2="0" y1="-6.0" y2="9.0" style="stroke:rgb(43.9%,50.2%,56.5%);stroke-opacity:1.0;stroke-width:1.0" /><text x="0" y="-12.0" style="alignment-baseline:alphabetic;fill:rgb(43.9%,50.2%,56.5%);fill-opacity:1.0;font-size:10px;font-weight:normal;stroke:none;text-anchor:middle" /></g></g><g class="toyplot-coordinates-Axis" id="t23b33ce965e04ea8bd4f0144ed967693" transform="translate(50.0,175.0)rotate(-90.0)translate(0,-10.0)"><line x1="0" y1="0" x2="125.0" y2="0" style="stroke-width:3" /><g><line x1="0.0" y1="-7.5" x2="0.0" y2="0" style="stroke-width:3" /><line x1="41.666666666666664" y1="-7.5" x2="41.666666666666664" y2="0" style="stroke-width:3" /><line x1="83.33333333333333" y1="-7.5" x2="83.33333333333333" y2="0" style="stroke-width:3" /><line x1="125.0" y1="-7.5" x2="125.0" y2="0" style="stroke-width:3" /></g><g class="toyplot-coordinates-Axis-coordinates" style="visibility:hidden" transform=""><line x1="0" x2="0" y1="6.0" y2="-9.0" style="stroke:rgb(43.9%,50.2%,56.5%);stroke-opacity:1.0;stroke-width:1.0" /><text x="0" y="12.0" style="alignment-baseline:hanging;fill:rgb(43.9%,50.2%,56.5%);fill-opacity:1.0;font-size:10px;font-weight:normal;stroke:none;text-anchor:middle" /></g></g></g></svg>