<svg class="toyplot-canvas-Canvas" xmlns:toyplot="http://www.sandia.gov/toyplot" xmlns:xlink="http://www.w3.org/1999/xlink" xmlns="http://www.w3.org/2000/svg" width="225.0px" height="225.0px" viewBox="0 0 225.0 225.0" preserveAspectRatio="xMidYMid meet" style="background-color:transparent;border-color:#292724;border-style:none;border-width:1.0;fill:rgb(16.1%,15.3%,14.1%);fill-opacity:1.0;font-family:Helvetica;font-size:12px;opacity:1.0;stroke:rgb(16.1%,15.3%,14.1%);stroke-opacity:1.0;stroke-width:1.0" id="t095b7b93c8074ccdade6879c3d03b5f5"><g class="toyplot-coordinates-Cartesian" id="t67866d36be2b441e9b67f7eef7633eb5"><clipPath id="tf6fdcef5f10c4aacb8c200ecfc0be35c"><rect x="40.0" y="40.0" width="145.0" height="145.0" /></clipPath><g clip-path="url(#tf6fdcef5f10c4aacb8c200ecfc0be35c)"><g class="toyplot-mark-FillBoundaries" style="stroke:none" id="t640edc548c0f4a37ad2d950e38c42a8a"><polygon points="54.16920419077063,175.0 58.335580842101116,175.0 62.501957493431625,175.0 66.66833414476211,175.0 70.83471079609262,175.0 75.00108744742312,175.0 79.16746409875361,175.0 83.33384075008411,175.0 87.5002174014146,175.0 91.6665940527451,175.0 95.83297070407559,175.0 99.99934735540609,175.0 104.16572400673658,175.0 108.33210065806708,175.0 112.49847730939759,175.0 116.66485396072808,175.0 120.83123061205859,175.0 124.99760726338906,175.0 129.16398391471958,175.0 133.33036056605008,175.0 137.49673721738054,175.0 141.66311386871106,175.0 145.82949052004156,175.0 149.99586717137203,175.0 154.16224382270255,175.0 158.32862047403304,175.0 162.49499712536354,175.0 166.66137377669403,175.0 170.8277504280245,175.0 174.99412707935502,175.0 174.99412707935502,76.6634140323612 170.8277504280245,76.9328293363808 166.66137377669403,69.928031431838 162.49499712536354,71.54452325596287 158.32862047403304,63.73147943935591 154.16224382270255,72.62218447204727 149.99586717137203,78.54932116050703 145.82949052004156,82.85996602484192 141.66311386871106,62.65381822327293 137.49673721738054,69.65861612781634 133.33036056605008,61.30674170316752 129.16398391471958,71.54452325596355 124.99760726338906,75.85516812029707 120.83123061205859,72.35276916802633 116.66485396072808,71.54452325596287 112.49847730939759,66.6950477835865 108.33210065806708,59.95966518306325 104.16572400673658,64.27031004739776 99.99934735540609,78.01049055246551 95.83297070407559,68.58095491173297 91.6665940527451,69.92803143183727 87.5002174014146,68.31153960771171 83.33384075008411,72.62218447204691 79.16746409875361,59.4208345750214 75.00108744742312,78.27990585648612 70.83471079609262,60.49849579110512 66.66833414476211,84.20704254494657 62.501957493431625,69.38920082379579 58.335580842101116,77.2022446404024 54.16920419077063,69.65861612781669" style="fill:rgb(65.1%,84.7%,32.9%);fill-opacity:1.0;opacity:0.3;stroke:none" /></g><g class="toyplot-mark-FillBoundaries" style="stroke:none" id="t60aac41becb242ef96d2d6dd90687aa4"><polygon points="54.16920419077063,175.0 58.335580842101116,175.0 62.501957493431625,175.0 66.66833414476211,175.0 70.83471079609262,175.0 75.00108744742312,175.0 79.16746409875361,175.0 83.33384075008411,175.0 87.5002174014146,175.0 91.6665940527451,175.0 95.83297070407559,175.0 99.99934735540609,175.0 104.16572400673658,175.0 108.33210065806708,175.0 112.49847730939759,175.0 116.66485396072808,175.0 120.83123061205859,175.0 124.99760726338906,175.0 129.16398391471958,175.0 133.33036056605008,175.0 137.49673721738054,175.0 141.66311386871106,175.0 145.82949052004156,175.0 149.99586717137203,175.0 154.16224382270255,175.0 158.32862047403304,175.0 162.49499712536354,175.0 166.66137377669403,175.0 166.66137377669403,69.928031431838 162.49499712536354,71.54452325596287 158.32862047403304,63.73147943935591 154.16224382270255,72.62218447204727 149.99586717137203,78.54932116050703 145.82949052004156,82.85996602484192 141.66311386871106,62.65381822327293 137.49673721738054,69.65861612781634 133.33036056605008,61.30674170316752 129.16398391471958,71.54452325596355 124.99760726338906,75.85516812029707 120.83123061205859,72.35276916802633 116.66485396072808,71.54452325596287 112.49847730939759,66.6950477835865 108.33210065806708,59.95966518306325 104.16572400673658,64.27031004739776 99.99934735540609,78.01049055246551 95.83297070407559,68.58095491173297 91.6665940527451,69.92803143183727 87.5002174014146,68.31153960771171 83.33384075008411,72.62218447204691 79.16746409875361,59.4208345750214 75.00108744742312,78.27990585648612 70.83471079609262,60.49849579110512 66.66833414476211,84.20704254494657 62.501957493431625,69.38920082379579 58.335580842101116,77.2022446404024 54.16920419077063,69.65861612781669" style="fill:rgb(65.1%,84.7%,32.9%);fill-opacity:1.0;opacity:0.5;stroke:none" /></g><g class="toyplot-mark-Plot" style="fill:none;stroke-width:3" id="t60e1c535d7d74663930cdffcb670ee0e"><g class="toyplot-Series"><path d="M 54.16920419077063 69.65861612781669 L 58.335580842101116 77.2022446404024 L 62.501957493431625 69.38920082379579 L 66.66833414476211 84.20704254494657 L 70.83471079609262 60.49849579110512 L 75.00108744742312 78.27990585648612 L 79.16746409875361 59.4208345750214 L 83.33384075008411 72.62218447204691 L 87.5002174014146 68.31153960771171 L 91.6665940527451 69.92803143183727 L 95.83297070407559 68.58095491173297 L 99.99934735540609 78.01049055246551 L 104.16572400673658 64.27031004739776 L 108.33210065806708 59.95966518306325 L 112.49847730939759 66.6950477835865 L 116.66485396072808 71.54452325596287 L 120.83123061205859 72.35276916802633 L 124.99760726338906 75.85516812029707 L 129.16398391471958 71.54452325596355 L 133.33036056605008 61.30674170316752 L 137.49673721738054 69.65861612781634 L 141.66311386871106 62.65381822327293 L 145.82949052004156 82.85996602484192 L 149.99586717137203 78.54932116050703 L 154.16224382270255 72.62218447204727 L 158.32862047403304 63.73147943935591 L 162.49499712536354 71.54452325596287 L 166.66137377669403 69.928031431838 L 170.8277504280245 76.9328293363808 L 174.99412707935502 76.6634140323612" style="stroke:rgb(65.1%,84.7%,32.9%);stroke-opacity:1.0;stroke-width:3" /></g></g><g class="toyplot-mark-AxisLines" style="stroke:rgb(90.6%,54.1%,76.5%);stroke-dasharray:4,4;stroke-opacity:1.0;stroke-width:3" id="tc9b849d03d7941d882c3ae674489e4fe"><g class="toyplot-Series"><line class="toyplot-Datum" x1="112.5" x2="112.5" y1="50.0" y2="175.0" style="opacity:1.0;stroke:rgb(90.6%,54.1%,76.5%);stroke-dasharray:4,4;stroke-opacity:1.0;stroke-width:3" /></g></g></g><g class="toyplot-coordinates-Axis" id="tc64f39bc312844a581b8e33de6049712" transform="translate(50.0,175.0)translate(0,10.0)"><line x1="0" y1="0" x2="125.0" y2="0" style="stroke-width:3" /><g><line x1="0.0" y1="7.5" x2="0.0" y2="0" style="stroke-width:3" /><line x1="62.5" y1="7.5" x2="62.5" y2="0" style="stroke-width:3" /><line x1="125.0" y1="7.5" x2="125.0" y2="0" style="stroke-width:3" /></g><g><g transform="translate(0.0,12.0)"><text x="-4.448" y="13.687999999999999" style="fill:rgb(16.1%,15.3%,14.1%);fill-opacity:1.0;font-family:helvetica;font-size:16.0px;font-weight:normal;stroke:none;vertical-align:baseline;white-space:pre">1</text></g><g transform="translate(62.5,12.0)"><text x="-4.448" y="13.687999999999999" style="fill:rgb(16.1%,15.3%,14.1%);fill-opacity:1.0;font-family:helvetica;font-size:16.0px;font-weight:normal;stroke:none;vertical-align:baseline;white-space:pre">2</text></g><g transform="translate(125.0,12.0)"><text x="-4.448" y="13.687999999999999" style="fill:rgb(16.1%,15.3%,14.1%);fill-opacity:1.0;font-family:helvetica;font-size:16.0px;font-weight:normal;stroke:none;vertical-align:baseline;white-space:pre">3</text></g></g><g class="toyplot-coordinates-Axis-coordinates" style="visibility:hidden" transform=""><line x1="0" x2="0" y1="-6.0" y2="9.0" style="stroke:rgb(43.9%,50.2%,56.5%);stroke-opacity:1.0;stroke-width:1.0" /><text x="0" y="-12.0" style="alignment-baseline:alphabetic;fill:rgb(43.9%,50.2%,56.5%);fill-opacity:1.0;font-size:10px;font-weight:normal;stroke:none;text-anchor:middle" /></g></g><g class="toyplot-coordinates-Axis" id="t062810f5f89b4ea094c4b630433e517b" transform="translate(50.0,175.0)rotate(-90.0)translate(0,-10.0)"><line x1="0" y1="0" x2="125.0" y2="0" style="stroke-width:3" /><g><line x1="0.0" y1="-7.5" x2="0.0" y2="0" style="stroke-width:3" /><line x1="41.666666666666664" y1="-7.5" x2="41.666666666666664" y2="0" style="stroke-width:3" /><line x1="83.33333333333333" y1="-7.5" x2="83.33333333333333" y2="0" style="stroke-width:3" /><line x1="125.0" y1="-7.5" x2="125.0" y2="0" style="stroke-width:3" /></g><g class="toyplot-coordinates-Axis-coordinates" style="visibility:hidden" transform=""><line x1="0" x2="0" y1="6.0" y2="-9.0" style="stroke:rgb(43.9%,50.2%,56.5%);stroke-opacity:1.0;stroke-width:1.0" /><text x="0" y="12.0" style="alignment-baseline:hanging;fill:rgb(43.9%,50.2%,56.5%);fill-opacity:1.0;font-size:10px;font-weight:normal;stroke:none;text-anchor:middle" /></g></g></g></svg>