<svg class="toyplot-canvas-Canvas" xmlns:toyplot="http://www.sandia.gov/toyplot" xmlns:xlink="http://www.w3.org/1999/xlink" xmlns="http://www.w3.org/2000/svg" width="225.0px" height="225.0px" viewBox="0 0 225.0 225.0" preserveAspectRatio="xMidYMid meet" style="background-color:transparent;border-color:#292724;border-style:none;border-width:1.0;fill:rgb(16.1%,15.3%,14.1%);fill-opacity:1.0;font-family:Helvetica;font-size:12px;opacity:1.0;stroke:rgb(16.1%,15.3%,14.1%);stroke-opacity:1.0;stroke-width:1.0" id="t6620da2c59e24542a1b8e6432a1387c1"><g class="toyplot-coordinates-Cartesian" id="t8a9dd2e96c584d448842c5748f330842"><clipPath id="t8c31da33166c481697e02bc2f3e0a9f6"><rect x="40.0" y="40.0" width="145.0" height="145.0" /></clipPath><g clip-path="url(#t8c31da33166c481697e02bc2f3e0a9f6)"><g class="toyplot-mark-FillBoundaries" style="stroke:none" id="t64798675e94a47489b6c9a940571418c"><polygon points="63.13919835507353,175.0 64.8441870230137,175.0 66.54917569095386,175.0 68.25416435889332,175.0 69.95915302683281,175.0 71.66414169477297,175.0 73.36913036271314,175.0 75.07411903065261,175.0 76.77910769859207,175.0 78.48409636653224,175.0 80.1890850344724,175.0 81.89407370241187,175.0 83.59906237035133,175.0 85.3040510382915,175.0 87.00903970623168,175.0 88.71402837417114,175.0 90.41901704211061,175.0 92.12400571005078,175.0 93.82899437799094,175.0 95.53398304593041,175.0 97.23897171386989,175.0 98.94396038181006,175.0 100.64894904975023,175.0 102.35393771768969,175.0 104.05892638562916,175.0 105.76391505356932,175.0 107.46890372150949,175.0 109.17389238944895,175.0 110.87888105738843,175.0 112.58386972532858,175.0 112.58386972532858,62.924203511674676 110.87888105738843,66.86145135919145 109.17389238944895,80.91335315997446 107.46890372150949,96.93387888457048 105.76391505356932,110.64636276745463 104.05892638562916,113.56535686131089 102.35393771768969,126.66688849199267 100.64894904975023,130.67201992315177 98.94396038181006,142.68741421657003 97.23897171386989,152.59841741904154 95.53398304593041,154.15973984135076 93.82899437799094,160.33714594701496 92.12400571005078,164.07074304383985 90.41901704211061,165.97148338403795 88.71402837417114,165.42841471540865 87.00903970623168,169.0941282286588 85.3040510382915,169.2977789793947 83.59906237035133,171.13063573601625 81.89407370241187,170.5196834838083 80.1890850344724,172.28465665685462 78.48409636653224,172.28465665685462 76.77910769859207,172.42042382401087 75.07411903065261,173.77809549558407 73.36913036271314,173.4386775776914 71.66414169477297,174.7963492492641 69.95915302683281,174.86423283284267 68.25416435889332,174.86423283284267 66.54917569095386,174.32116416421366 64.8441870230137,174.72846566568546 63.13919835507353,174.04962982989872" style="fill:rgb(90.6%,54.1%,76.5%);fill-opacity:1.0;opacity:0.3;stroke:none" /></g><g class="toyplot-mark-FillBoundaries" style="stroke:none" id="td24e839e3c5147c9a5a13fa9d66378f9"><polygon points="88.71402837417114,175.0 90.41901704211061,175.0 92.12400571005078,175.0 93.82899437799094,175.0 95.53398304593041,175.0 97.23897171386989,175.0 98.94396038181006,175.0 100.64894904975023,175.0 102.35393771768969,175.0 104.05892638562916,175.0 105.76391505356932,175.0 107.46890372150949,175.0 109.17389238944895,175.0 110.87888105738843,175.0 110.87888105738843,66.86145135919145 109.17389238944895,80.91335315997446 107.46890372150949,96.93387888457048 105.76391505356932,110.64636276745463 104.05892638562916,113.56535686131089 102.35393771768969,126.66688849199267 100.64894904975023,130.67201992315177 98.94396038181006,142.68741421657003 97.23897171386989,152.59841741904154 95.53398304593041,154.15973984135076 93.82899437799094,160.33714594701496 92.12400571005078,164.07074304383985 90.41901704211061,165.97148338403795 88.71402837417114,165.42841471540865" style="fill:rgb(90.6%,54.1%,76.5%);fill-opacity:1.0;opacity:0.5;stroke:none" /></g><g class="toyplot-mark-Plot" style="fill:none;stroke-width:3" id="t8123973d3b0a484a90116ff61bb132a2"><g class="toyplot-Series"><path d="M 63.13919835507353 174.04962982989872 L 64.8441870230137 174.72846566568546 L 66.54917569095386 174.32116416421366 L 68.25416435889332 174.86423283284267 L 69.95915302683281 174.86423283284267 L 71.66414169477297 174.7963492492641 L 73.36913036271314 173.4386775776914 L 75.07411903065261 173.77809549558407 L 76.77910769859207 172.42042382401087 L 78.48409636653224 172.28465665685462 L 80.1890850344724 172.28465665685462 L 81.89407370241187 170.5196834838083 L 83.59906237035133 171.13063573601625 L 85.3040510382915 169.2977789793947 L 87.00903970623168 169.0941282286588 L 88.71402837417114 165.42841471540865 L 90.41901704211061 165.97148338403795 L 92.12400571005078 164.07074304383985 L 93.82899437799094 160.33714594701496 L 95.53398304593041 154.15973984135076 L 97.23897171386989 152.59841741904154 L 98.94396038181006 142.68741421657003 L 100.64894904975023 130.67201992315177 L 102.35393771768969 126.66688849199267 L 104.05892638562916 113.56535686131089 L 105.76391505356932 110.64636276745463 L 107.46890372150949 96.93387888457048 L 109.17389238944895 80.91335315997446 L 110.87888105738843 66.86145135919145 L 112.58386972532858 62.924203511674676" style="stroke:rgb(90.6%,54.1%,76.5%);stroke-opacity:1.0;stroke-width:3" /></g></g><g class="toyplot-mark-AxisLines" style="stroke:rgb(90.6%,54.1%,76.5%);stroke-dasharray:4,4;stroke-opacity:1.0;stroke-width:3" id="t5bd32477434d4643b63a6685063b94b4"><g class="toyplot-Series"><line class="toyplot-Datum" x1="112.5" x2="112.5" y1="50.0" y2="175.0" style="opacity:1.0;stroke:rgb(90.6%,54.1%,76.5%);stroke-dasharray:4,4;stroke-opacity:1.0;stroke-width:3" /></g></g></g><g class="toyplot-coordinates-Axis" id="t1260d9d8ee5c4235b73f448ac66f6be7" transform="translate(50.0,175.0)translate(0,10.0)"><line x1="0" y1="0" x2="125.0" y2="0" style="stroke-width:3" /><g><line x1="0.0" y1="7.5" x2="0.0" y2="0" style="stroke-width:3" /><line x1="62.5" y1="7.5" x2="62.5" y2="0" style="stroke-width:3" /><line x1="125.0" y1="7.5" x2="125.0" y2="0" style="stroke-width:3" /></g><g><g transform="translate(0.0,12.0)"><text x="-15.568" y="13.687999999999999" style="fill:rgb(16.1%,15.3%,14.1%);fill-opacity:1.0;font-family:helvetica;font-size:16.0px;font-weight:normal;stroke:none;vertical-align:baseline;white-space:pre">0.99</text></g><g transform="translate(62.5,12.0)"><text x="-15.568" y="13.687999999999999" style="fill:rgb(16.1%,15.3%,14.1%);fill-opacity:1.0;font-family:helvetica;font-size:16.0px;font-weight:normal;stroke:none;vertical-align:baseline;white-space:pre">1.00</text></g><g transform="translate(125.0,12.0)"><text x="-15.568" y="13.687999999999999" style="fill:rgb(16.1%,15.3%,14.1%);fill-opacity:1.0;font-family:helvetica;font-size:16.0px;font-weight:normal;stroke:none;vertical-align:baseline;white-space:pre">1.01</text></g></g><g class="toyplot-coordinates-Axis-coordinates" style="visibility:hidden" transform=""><line x1="0" x2="0" y1="-6.0" y2="9.0" style="stroke:rgb(43.9%,50.2%,56.5%);stroke-opacity:1.0;stroke-width:1.0" /><text x="0" y="-12.0" style="alignment-baseline:alphabetic;fill:rgb(43.9%,50.2%,56.5%);fill-opacity:1.0;font-size:10px;font-weight:normal;stroke:none;text-anchor:middle" /></g></g><g class="toyplot-coordinates-Axis" id="tc1f802f58af24756a6896658afb77bbd" transform="translate(50.0,175.0)rotate(-90.0)translate(0,-10.0)"><line x1="0" y1="0" x2="125.0" y2="0" style="stroke-width:3" /><g><line x1="0.0" y1="-7.5" x2="0.0" y2="0" style="stroke-width:3" /><line x1="41.666666666666664" y1="-7.5" x2="41.666666666666664" y2="0" style="stroke-width:3" /><line x1="83.33333333333333" y1="-7.5" x2="83.33333333333333" y2="0" style="stroke-width:3" /><line x1="125.0" y1="-7.5" x2="125.0" y2="0" style="stroke-width:3" /></g><g class="toyplot-coordinates-Axis-coordinates" style="visibility:hidden" transform=""><line x1="0" x2="0" y1="6.0" y2="-9.0" style="stroke:rgb(43.9%,50.2%,56.5%);stroke-opacity:1.0;stroke-width:1.0" /><text x="0" y="12.0" style="alignment-baseline:hanging;fill:rgb(43.9%,50.2%,56.5%);fill-opacity:1.0;font-size:10px;font-weight:normal;stroke:none;text-anchor:middle" /></g></g></g></svg>