<svg class="toyplot-canvas-Canvas" xmlns:toyplot="http://www.sandia.gov/toyplot" xmlns:xlink="http://www.w3.org/1999/xlink" xmlns="http://www.w3.org/2000/svg" width="450.0px" height="225.0px" viewBox="0 0 450.0 225.0" preserveAspectRatio="xMidYMid meet" style="background-color:transparent;border-color:#292724;border-style:none;border-width:1.0;fill:rgb(16.1%,15.3%,14.1%);fill-opacity:1.0;font-family:Helvetica;font-size:12px;opacity:1.0;stroke:rgb(16.1%,15.3%,14.1%);stroke-opacity:1.0;stroke-width:1.0" id="t0898e0637dc247c5aa57818aaba6bfa7"><g class="toyplot-coordinates-Cartesian" id="ta267eb96a2284e19a16c012b41316a5e"><clipPath id="t5cda06b749b8477ab7368d801046601f"><rect x="40.0" y="40.0" width="370.0" height="145.0" /></clipPath><g clip-path="url(#t5cda06b749b8477ab7368d801046601f)"><g class="toyplot-mark-FillBoundaries" style="stroke:none" id="t48062a96481f45e590236a4d20d97b36"><polygon points="80.11034481989373,175.0 81.60435873917882,175.0 83.0983726584639,175.0 84.59238657774898,175.0 86.08640049703405,175.0 87.58041441631914,175.0 89.07442833560421,175.0 90.56844225488929,175.0 92.06245617417437,175.0 93.55647009345947,175.0 95.05048401274455,175.0 96.54449793202963,175.0 98.03851185131472,175.0 99.53252577059979,175.0 101.02653968988487,175.0 102.52055360916994,175.0 104.01456752845502,175.0 105.5085814477401,175.0 107.00259536702518,175.0 108.49660928631027,175.0 109.99062320559536,175.0 111.48463712488044,175.0 112.9786510441655,175.0 114.4726649634506,175.0 115.96667888273566,175.0 117.46069280202073,175.0 118.95470672130583,175.0 120.4487206405909,175.0 121.94273455987599,175.0 123.43674847916108,175.0 123.43674847916108,174.54545454545453 121.94273455987599,173.29545454545453 120.4487206405909,172.84090909090912 118.95470672130583,171.70454545454544 117.46069280202073,168.4090909090909 115.96667888273566,166.59090909090895 114.4726649634506,161.36363636363637 112.9786510441655,153.86363636363637 111.48463712488044,141.70454545454544 109.99062320559536,128.63636363636363 108.49660928631027,116.81818181818183 107.00259536702518,104.31818181818181 105.5085814477401,86.81818181818184 104.01456752845502,70.0 102.52055360916994,61.13636363636158 101.02653968988487,50.0 99.53252577059979,63.06818181818181 98.03851185131472,67.5 96.54449793202963,77.72727272727275 95.05048401274455,91.47727272727275 93.55647009345947,113.63636363636365 92.06245617417437,132.38636363636365 90.56844225488929,144.0909090909091 89.07442833560421,154.88636363636363 87.58041441631914,162.5 86.08640049703405,168.7499999999999 84.59238657774898,172.04545454545453 83.0983726584639,173.1818181818182 81.60435873917882,173.86363636363637 80.11034481989373,174.4318181818182" style="fill:rgb(40%,76.1%,64.7%);fill-opacity:1.0;opacity:0.3;stroke:none" /></g><g class="toyplot-mark-FillBoundaries" style="stroke:none" id="t5dac4e24ca4a41cfbf3a8d68f3a18d04"><polygon points="87.58041441631914,175.0 89.07442833560421,175.0 90.56844225488929,175.0 92.06245617417437,175.0 93.55647009345947,175.0 95.05048401274455,175.0 96.54449793202963,175.0 98.03851185131472,175.0 99.53252577059979,175.0 101.02653968988487,175.0 102.52055360916994,175.0 104.01456752845502,175.0 105.5085814477401,175.0 107.00259536702518,175.0 108.49660928631027,175.0 109.99062320559536,175.0 111.48463712488044,175.0 111.48463712488044,141.70454545454544 109.99062320559536,128.63636363636363 108.49660928631027,116.81818181818183 107.00259536702518,104.31818181818181 105.5085814477401,86.81818181818184 104.01456752845502,70.0 102.52055360916994,61.13636363636158 101.02653968988487,50.0 99.53252577059979,63.06818181818181 98.03851185131472,67.5 96.54449793202963,77.72727272727275 95.05048401274455,91.47727272727275 93.55647009345947,113.63636363636365 92.06245617417437,132.38636363636365 90.56844225488929,144.0909090909091 89.07442833560421,154.88636363636363 87.58041441631914,162.5" style="fill:rgb(40%,76.1%,64.7%);fill-opacity:1.0;opacity:0.5;stroke:none" /></g><g class="toyplot-mark-Plot" style="fill:none;stroke-width:3" id="t628c3679b4774d4299c26dfa404d5917"><g class="toyplot-Series"><path d="M 80.11034481989373 174.4318181818182 L 81.60435873917882 173.86363636363637 L 83.0983726584639 173.1818181818182 L 84.59238657774898 172.04545454545453 L 86.08640049703405 168.7499999999999 L 87.58041441631914 162.5 L 89.07442833560421 154.88636363636363 L 90.56844225488929 144.0909090909091 L 92.06245617417437 132.38636363636365 L 93.55647009345947 113.63636363636365 L 95.05048401274455 91.47727272727275 L 96.54449793202963 77.72727272727275 L 98.03851185131472 67.5 L 99.53252577059979 63.06818181818181 L 101.02653968988487 50.0 L 102.52055360916994 61.13636363636158 L 104.01456752845502 70.0 L 105.5085814477401 86.81818181818184 L 107.00259536702518 104.31818181818181 L 108.49660928631027 116.81818181818183 L 109.99062320559536 128.63636363636363 L 111.48463712488044 141.70454545454544 L 112.9786510441655 153.86363636363637 L 114.4726649634506 161.36363636363637 L 115.96667888273566 166.59090909090895 L 117.46069280202073 168.4090909090909 L 118.95470672130583 171.70454545454544 L 120.4487206405909 172.84090909090912 L 121.94273455987599 173.29545454545453 L 123.43674847916108 174.54545454545453" style="stroke:rgb(40%,76.1%,64.7%);stroke-opacity:1.0;stroke-width:3" /></g></g><g class="toyplot-mark-FillBoundaries" style="stroke:none" id="t2a373dd32f944da3a0dea629789de35c"><polygon points="167.05393327278978,175.0 168.9543967263664,175.0 170.85486017994305,175.0 172.75532363351974,175.0 174.65578708709634,175.0 176.556250540673,175.0 178.45671399424964,175.0 180.3571774478263,175.0 182.2576409014029,175.0 184.1581043549796,175.0 186.05856780855623,175.0 187.95903126213284,175.0 189.8594947157095,175.0 191.75995816928616,175.0 193.66042162286283,175.0 195.5608850764394,175.0 197.4613485300161,175.0 199.36181198359273,175.0 201.26227543716936,175.0 203.162738890746,175.0 205.06320234432266,175.0 206.96366579789927,175.0 208.86412925147593,175.0 210.7645927050526,175.0 212.6650561586292,175.0 214.56551961220586,175.0 216.4659830657825,175.0 218.3664465193592,175.0 220.26690997293576,175.0 222.16737342651246,175.0 222.16737342651246,174.9106668909154 220.26690997293576,174.8213337818308 218.3664465193592,174.55333445457697 216.4659830657825,174.73200067274618 214.56551961220586,172.6773391638003 212.6650561586292,169.90801278217737 210.7645927050526,167.40668572780856 208.86412925147593,160.88536876463243 206.96366579789927,152.39872340159434 205.06320234432266,137.926759729889 203.162738890746,133.10277183932033 201.26227543716936,116.66547976775138 199.36181198359273,103.53351273231615 197.4613485300161,91.74154233314829 195.5608850764394,82.18289966109293 193.66042162286283,72.35625766178906 191.75995816928616,87.45355309708725 189.8594947157095,83.61222940644926 187.95903126213284,92.18820787856896 186.05856780855623,113.27082162253805 184.1581043549796,120.59613656747565 182.2576409014029,139.35608947524165 180.3571774478263,152.48805651067957 178.45671399424964,161.86803296456307 176.556250540673,166.60268774604714 174.65578708709634,170.80134387302346 172.75532363351974,173.3026709273925 170.85486017994305,174.01733580006936 168.9543967263664,174.73200067274618 167.05393327278978,174.9106668909154" style="fill:rgb(98.8%,55.3%,38.4%);fill-opacity:1.0;opacity:0.3;stroke:none" /></g><g class="toyplot-mark-FillBoundaries" style="stroke:none" id="tf4cfcc8621e4499d85b7d3c8f8a2aa8b"><polygon points="178.45671399424964,175.0 180.3571774478263,175.0 182.2576409014029,175.0 184.1581043549796,175.0 186.05856780855623,175.0 187.95903126213284,175.0 189.8594947157095,175.0 191.75995816928616,175.0 193.66042162286283,175.0 195.5608850764394,175.0 197.4613485300161,175.0 199.36181198359273,175.0 201.26227543716936,175.0 203.162738890746,175.0 205.06320234432266,175.0 206.96366579789927,175.0 206.96366579789927,152.39872340159434 205.06320234432266,137.926759729889 203.162738890746,133.10277183932033 201.26227543716936,116.66547976775138 199.36181198359273,103.53351273231615 197.4613485300161,91.74154233314829 195.5608850764394,82.18289966109293 193.66042162286283,72.35625766178906 191.75995816928616,87.45355309708725 189.8594947157095,83.61222940644926 187.95903126213284,92.18820787856896 186.05856780855623,113.27082162253805 184.1581043549796,120.59613656747565 182.2576409014029,139.35608947524165 180.3571774478263,152.48805651067957 178.45671399424964,161.86803296456307" style="fill:rgb(98.8%,55.3%,38.4%);fill-opacity:1.0;opacity:0.5;stroke:none" /></g><g class="toyplot-mark-Plot" style="fill:none;stroke-width:3" id="t80b821c7f6ef4d4785353b111f019f54"><g class="toyplot-Series"><path d="M 167.05393327278978 174.9106668909154 L 168.9543967263664 174.73200067274618 L 170.85486017994305 174.01733580006936 L 172.75532363351974 173.3026709273925 L 174.65578708709634 170.80134387302346 L 176.556250540673 166.60268774604714 L 178.45671399424964 161.86803296456307 L 180.3571774478263 152.48805651067957 L 182.2576409014029 139.35608947524165 L 184.1581043549796 120.59613656747565 L 186.05856780855623 113.27082162253805 L 187.95903126213284 92.18820787856896 L 189.8594947157095 83.61222940644926 L 191.75995816928616 87.45355309708725 L 193.66042162286283 72.35625766178906 L 195.5608850764394 82.18289966109293 L 197.4613485300161 91.74154233314829 L 199.36181198359273 103.53351273231615 L 201.26227543716936 116.66547976775138 L 203.162738890746 133.10277183932033 L 205.06320234432266 137.926759729889 L 206.96366579789927 152.39872340159434 L 208.86412925147593 160.88536876463243 L 210.7645927050526 167.40668572780856 L 212.6650561586292 169.90801278217737 L 214.56551961220586 172.6773391638003 L 216.4659830657825 174.73200067274618 L 218.3664465193592 174.55333445457697 L 220.26690997293576 174.8213337818308 L 222.16737342651246 174.9106668909154" style="stroke:rgb(98.8%,55.3%,38.4%);stroke-opacity:1.0;stroke-width:3" /></g></g><g class="toyplot-mark-FillBoundaries" style="stroke:none" id="t02f8249d82994f088ce430d203f6d0b1"><polygon points="226.52390946269082,175.0 231.094401898156,175.0 235.6648943336211,175.0 240.23538676908618,175.0 244.80587920455133,175.0 249.37637164001643,175.0 253.94686407548153,175.0 258.5173565109466,175.0 263.0878489464118,175.0 267.6583413818768,175.0 272.228833817342,175.0 276.799326252807,175.0 281.3698186882722,175.0 285.9403111237373,175.0 290.5108035592024,175.0 295.08129599466747,175.0 299.6517884301326,175.0 304.2222808655977,175.0 308.7927733010629,175.0 313.363265736528,175.0 317.933758171993,175.0 322.50425060745823,175.0 327.0747430429233,175.0 331.6452354783884,175.0 336.2157279138535,175.0 340.78622034931857,175.0 345.3567127847837,175.0 349.9272052202489,175.0 354.49769765571386,175.0 359.0681900911791,175.0 359.0681900911791,174.96285426320975 354.49769765571386,175.0 349.9272052202489,174.96285426320975 345.3567127847837,174.85141705283894 340.78622034931857,174.77712557925844 336.2157279138535,174.40566821135582 331.6452354783884,173.66275347555057 327.0747430429233,172.80840152937455 322.50425060745823,171.99119531998883 317.933758171993,168.27662164096265 313.363265736528,166.97652085330347 308.7927733010629,161.96184638661828 304.2222808655977,157.09575486709386 299.6517884301326,149.7780447194123 295.08129599466747,143.90901830655133 290.5108035592024,140.34302757468583 285.9403111237373,134.99404147688813 281.3698186882722,133.32248332132684 276.799326252807,136.66559963244993 272.228833817342,137.89140894652857 267.6583413818768,141.4202539416034 263.0878489464118,148.14363230064112 258.5173565109466,152.89828660979427 253.94686407548153,160.5503083885882 249.37637164001643,165.15637975058067 244.80587920455133,170.43107437479787 240.23538676908618,171.65688368887646 235.6648943336211,173.77419068592135 231.094401898156,174.62854263209738 226.52390946269082,174.8142713160487" style="fill:rgb(55.3%,62.7%,79.6%);fill-opacity:1.0;opacity:0.3;stroke:none" /></g><g class="toyplot-mark-FillBoundaries" style="stroke:none" id="t518bb58e71e74f889eb6f45b0052d2b0"><polygon points="244.80587920455133,175.0 249.37637164001643,175.0 253.94686407548153,175.0 258.5173565109466,175.0 263.0878489464118,175.0 267.6583413818768,175.0 272.228833817342,175.0 276.799326252807,175.0 281.3698186882722,175.0 285.9403111237373,175.0 290.5108035592024,175.0 295.08129599466747,175.0 299.6517884301326,175.0 304.2222808655977,175.0 308.7927733010629,175.0 313.363265736528,175.0 313.363265736528,166.97652085330347 308.7927733010629,161.96184638661828 304.2222808655977,157.09575486709386 299.6517884301326,149.7780447194123 295.08129599466747,143.90901830655133 290.5108035592024,140.34302757468583 285.9403111237373,134.99404147688813 281.3698186882722,133.32248332132684 276.799326252807,136.66559963244993 272.228833817342,137.89140894652857 267.6583413818768,141.4202539416034 263.0878489464118,148.14363230064112 258.5173565109466,152.89828660979427 253.94686407548153,160.5503083885882 249.37637164001643,165.15637975058067 244.80587920455133,170.43107437479787" style="fill:rgb(55.3%,62.7%,79.6%);fill-opacity:1.0;opacity:0.5;stroke:none" /></g><g class="toyplot-mark-Plot" style="fill:none;stroke-width:3" id="t2aa779dc185042ac907ab1024ad67159"><g class="toyplot-Series"><path d="M 226.52390946269082 174.8142713160487 L 231.094401898156 174.62854263209738 L 235.6648943336211 173.77419068592135 L 240.23538676908618 171.65688368887646 L 244.80587920455133 170.43107437479787 L 249.37637164001643 165.15637975058067 L 253.94686407548153 160.5503083885882 L 258.5173565109466 152.89828660979427 L 263.0878489464118 148.14363230064112 L 267.6583413818768 141.4202539416034 L 272.228833817342 137.89140894652857 L 276.799326252807 136.66559963244993 L 281.3698186882722 133.32248332132684 L 285.9403111237373 134.99404147688813 L 290.5108035592024 140.34302757468583 L 295.08129599466747 143.90901830655133 L 299.6517884301326 149.7780447194123 L 304.2222808655977 157.09575486709386 L 308.7927733010629 161.96184638661828 L 313.363265736528 166.97652085330347 L 317.933758171993 168.27662164096265 L 322.50425060745823 171.99119531998883 L 327.0747430429233 172.80840152937455 L 331.6452354783884 173.66275347555057 L 336.2157279138535 174.40566821135582 L 340.78622034931857 174.77712557925844 L 345.3567127847837 174.85141705283894 L 349.9272052202489 174.96285426320975 L 354.49769765571386 175.0 L 359.0681900911791 174.96285426320975" style="stroke:rgb(55.3%,62.7%,79.6%);stroke-opacity:1.0;stroke-width:3" /></g></g><g class="toyplot-mark-AxisLines" style="stroke:rgb(40%,76.1%,64.7%);stroke-dasharray:4,4;stroke-opacity:1.0;stroke-width:3" id="t8457f80474c642a599ca1855af2066cb"><g class="toyplot-Series"><line class="toyplot-Datum" x1="96.66666666666667" x2="96.66666666666667" y1="50.0" y2="175.0" style="opacity:1.0;stroke:rgb(40%,76.1%,64.7%);stroke-dasharray:4,4;stroke-opacity:1.0;stroke-width:3" /></g></g><g class="toyplot-mark-AxisLines" style="stroke:rgb(98.8%,55.3%,38.4%);stroke-dasharray:4,4;stroke-opacity:1.0;stroke-width:3" id="tac449e5502854db581dd0af7196dc80e"><g class="toyplot-Series"><line class="toyplot-Datum" x1="190.0" x2="190.0" y1="50.0" y2="175.0" style="opacity:1.0;stroke:rgb(98.8%,55.3%,38.4%);stroke-dasharray:4,4;stroke-opacity:1.0;stroke-width:3" /></g></g><g class="toyplot-mark-AxisLines" style="stroke:rgb(55.3%,62.7%,79.6%);stroke-dasharray:4,4;stroke-opacity:1.0;stroke-width:3" id="tf05c2ba2a6254ceeac91967183661a4b"><g class="toyplot-Series"><line class="toyplot-Datum" x1="283.3333333333333" x2="283.3333333333333" y1="50.0" y2="175.0" style="opacity:1.0;stroke:rgb(55.3%,62.7%,79.6%);stroke-dasharray:4,4;stroke-opacity:1.0;stroke-width:3" /></g></g></g><g class="toyplot-coordinates-Axis" id="tf038ff1415d844489d36dc2d73f2b86a" transform="translate(50.0,175.0)translate(0,10.0)"><line x1="0" y1="0" x2="350.0" y2="0" style="stroke-width:3" /><g><line x1="46.666666666666664" y1="7.5" x2="46.666666666666664" y2="0" style="stroke-width:3" /><line x1="140.0" y1="7.5" x2="140.0" y2="0" style="stroke-width:3" /><line x1="233.33333333333331" y1="7.5" x2="233.33333333333331" y2="0" style="stroke-width:3" /><line x1="326.6666666666667" y1="7.5" x2="326.6666666666667" y2="0" style="stroke-width:3" /></g><g><g transform="translate(46.666666666666664,12.0)"><text x="-26.688" y="13.687999999999999" style="fill:rgb(16.1%,15.3%,14.1%);fill-opacity:1.0;font-family:helvetica;font-size:16.0px;font-weight:normal;stroke:none;vertical-align:baseline;white-space:pre">200000</text></g><g transform="translate(140.0,12.0)"><text x="-26.688" y="13.687999999999999" style="fill:rgb(16.1%,15.3%,14.1%);fill-opacity:1.0;font-family:helvetica;font-size:16.0px;font-weight:normal;stroke:none;vertical-align:baseline;white-space:pre">300000</text></g><g transform="translate(233.33333333333331,12.0)"><text x="-26.688" y="13.687999999999999" style="fill:rgb(16.1%,15.3%,14.1%);fill-opacity:1.0;font-family:helvetica;font-size:16.0px;font-weight:normal;stroke:none;vertical-align:baseline;white-space:pre">400000</text></g><g transform="translate(326.6666666666667,12.0)"><text x="-26.688" y="13.687999999999999" style="fill:rgb(16.1%,15.3%,14.1%);fill-opacity:1.0;font-family:helvetica;font-size:16.0px;font-weight:normal;stroke:none;vertical-align:baseline;white-space:pre">500000</text></g></g><g class="toyplot-coordinates-Axis-coordinates" style="visibility:hidden" transform=""><line x1="0" x2="0" y1="-6.0" y2="9.0" style="stroke:rgb(43.9%,50.2%,56.5%);stroke-opacity:1.0;stroke-width:1.0" /><text x="0" y="-12.0" style="alignment-baseline:alphabetic;fill:rgb(43.9%,50.2%,56.5%);fill-opacity:1.0;font-size:10px;font-weight:normal;stroke:none;text-anchor:middle" /></g></g><g class="toyplot-coordinates-Axis" id="t6f3a3163776e4ecb9e7b201fca5fe4c3" transform="translate(50.0,175.0)rotate(-90.0)translate(0,-10.0)"><line x1="0" y1="0" x2="125.0" y2="0" style="stroke-width:3" /><g><line x1="0.0" y1="-7.5" x2="0.0" y2="0" style="stroke-width:3" /><line x1="40.92773520768795" y1="-7.5" x2="40.92773520768795" y2="0" style="stroke-width:3" /><line x1="81.8554704153759" y1="-7.5" x2="81.8554704153759" y2="0" style="stroke-width:3" /><line x1="122.78320562306385" y1="-7.5" x2="122.78320562306385" y2="0" style="stroke-width:3" /></g><g class="toyplot-coordinates-Axis-coordinates" style="visibility:hidden" transform=""><line x1="0" x2="0" y1="6.0" y2="-9.0" style="stroke:rgb(43.9%,50.2%,56.5%);stroke-opacity:1.0;stroke-width:1.0" /><text x="0" y="12.0" style="alignment-baseline:hanging;fill:rgb(43.9%,50.2%,56.5%);fill-opacity:1.0;font-size:10px;font-weight:normal;stroke:none;text-anchor:middle" /></g></g></g></svg>