<svg class="toyplot-canvas-Canvas" xmlns:toyplot="http://www.sandia.gov/toyplot" xmlns:xlink="http://www.w3.org/1999/xlink" xmlns="http://www.w3.org/2000/svg" width="225.0px" height="225.0px" viewBox="0 0 225.0 225.0" preserveAspectRatio="xMidYMid meet" style="background-color:transparent;border-color:#292724;border-style:none;border-width:1.0;fill:rgb(16.1%,15.3%,14.1%);fill-opacity:1.0;font-family:Helvetica;font-size:12px;opacity:1.0;stroke:rgb(16.1%,15.3%,14.1%);stroke-opacity:1.0;stroke-width:1.0" id="tc60d460a885747d2b6c9e2e1c646bcbe"><g class="toyplot-coordinates-Cartesian" id="t506f284d55ba4a7fb80f0c49d5419474"><clipPath id="t3dc0986eb9a84c9eaf0221d5a21f926f"><rect x="40.0" y="40.0" width="145.0" height="145.0" /></clipPath><g clip-path="url(#t3dc0986eb9a84c9eaf0221d5a21f926f)"><g class="toyplot-mark-FillBoundaries" style="stroke:none" id="tdc2b96196c6c406390782215287ad569"><polygon points="21.29254463216696,175.0 24.440535318576124,175.0 27.588526004985294,175.0 30.73651669139515,175.0 33.884507377804326,175.0 37.0324980642135,175.0 40.18048875062266,175.0 43.328479437031824,175.0 46.47647012344099,175.0 49.62446080985015,175.0 52.772451496259315,175.0 55.92044218266918,175.0 59.06843286907834,175.0 62.21642355548751,175.0 65.36441424189667,175.0 68.51240492830584,175.0 71.66039561471501,175.0 74.80838630112417,175.0 77.95637698753404,175.0 81.1043676739432,175.0 84.25235836035237,175.0 87.40034904676153,175.0 90.5483397331707,175.0 93.69633041957987,175.0 96.84432110598902,175.0 99.9923117923982,175.0 103.14030247880807,175.0 106.28829316521723,175.0 109.43628385162638,175.0 112.58427453803556,175.0 112.58427453803556,61.793010970449714 109.43628385162638,75.41561528973239 106.28829316521723,100.86246032179173 103.14030247880807,108.32566928880617 99.9923117923982,126.08450990303784 96.84432110598902,129.50140075539917 93.69633041957987,139.7071142223205 90.5483397331707,144.33790050907336 87.40034904676153,150.18258223021772 84.25235836035237,157.33107756607893 81.1043676739432,161.55723204136797 77.95637698753404,162.0068229429973 74.80838630112417,167.22207740186172 71.66039561471501,167.17711831169908 68.51240492830584,168.75068646739177 65.36441424189667,171.1335182460122 62.21642355548751,172.07765913942782 59.06843286907834,172.93188185251816 55.92044218266918,173.24659548365707 52.772451496259315,174.4155318278856 49.62446080985015,173.78610456560847 46.47647012344099,174.4604909180482 43.328479437031824,174.05585910658436 40.18048875062266,174.4604909180482 37.0324980642135,174.59536818853616 33.884507377804326,174.5504090983735 30.73651669139515,174.86512272951208 27.588526004985294,174.8201636393494 24.440535318576124,175.0 21.29254463216696,174.91008181967467" style="fill:rgb(90.6%,54.1%,76.5%);fill-opacity:1.0;opacity:0.3;stroke:none" /></g><g class="toyplot-mark-FillBoundaries" style="stroke:none" id="t05102e82c16b410a93001236e8430793"><polygon points="74.80838630112417,175.0 77.95637698753404,175.0 81.1043676739432,175.0 84.25235836035237,175.0 87.40034904676153,175.0 90.5483397331707,175.0 93.69633041957987,175.0 96.84432110598902,175.0 99.9923117923982,175.0 103.14030247880807,175.0 106.28829316521723,175.0 109.43628385162638,175.0 109.43628385162638,75.41561528973239 106.28829316521723,100.86246032179173 103.14030247880807,108.32566928880617 99.9923117923982,126.08450990303784 96.84432110598902,129.50140075539917 93.69633041957987,139.7071142223205 90.5483397331707,144.33790050907336 87.40034904676153,150.18258223021772 84.25235836035237,157.33107756607893 81.1043676739432,161.55723204136797 77.95637698753404,162.0068229429973 74.80838630112417,167.22207740186172" style="fill:rgb(90.6%,54.1%,76.5%);fill-opacity:1.0;opacity:0.5;stroke:none" /></g><g class="toyplot-mark-Plot" style="fill:none;stroke-width:3" id="td53d404964384affad7b42c4dda7046c"><g class="toyplot-Series"><path d="M 21.29254463216696 174.91008181967467 L 24.440535318576124 175.0 L 27.588526004985294 174.8201636393494 L 30.73651669139515 174.86512272951208 L 33.884507377804326 174.5504090983735 L 37.0324980642135 174.59536818853616 L 40.18048875062266 174.4604909180482 L 43.328479437031824 174.05585910658436 L 46.47647012344099 174.4604909180482 L 49.62446080985015 173.78610456560847 L 52.772451496259315 174.4155318278856 L 55.92044218266918 173.24659548365707 L 59.06843286907834 172.93188185251816 L 62.21642355548751 172.07765913942782 L 65.36441424189667 171.1335182460122 L 68.51240492830584 168.75068646739177 L 71.66039561471501 167.17711831169908 L 74.80838630112417 167.22207740186172 L 77.95637698753404 162.0068229429973 L 81.1043676739432 161.55723204136797 L 84.25235836035237 157.33107756607893 L 87.40034904676153 150.18258223021772 L 90.5483397331707 144.33790050907336 L 93.69633041957987 139.7071142223205 L 96.84432110598902 129.50140075539917 L 99.9923117923982 126.08450990303784 L 103.14030247880807 108.32566928880617 L 106.28829316521723 100.86246032179173 L 109.43628385162638 75.41561528973239 L 112.58427453803556 61.793010970449714" style="stroke:rgb(90.6%,54.1%,76.5%);stroke-opacity:1.0;stroke-width:3" /></g></g><g class="toyplot-mark-AxisLines" style="stroke:rgb(90.6%,54.1%,76.5%);stroke-dasharray:4,4;stroke-opacity:1.0;stroke-width:3" id="t5ebfe133713c471dbfffee2e0285b909"><g class="toyplot-Series"><line class="toyplot-Datum" x1="112.5" x2="112.5" y1="50.0" y2="175.0" style="opacity:1.0;stroke:rgb(90.6%,54.1%,76.5%);stroke-dasharray:4,4;stroke-opacity:1.0;stroke-width:3" /></g></g></g><g class="toyplot-coordinates-Axis" id="t52d8993ca3744a8284eb19b3a44f95d4" transform="translate(50.0,175.0)translate(0,10.0)"><line x1="0" y1="0" x2="125.0" y2="0" style="stroke-width:3" /><g><line x1="0.0" y1="7.5" x2="0.0" y2="0" style="stroke-width:3" /><line x1="62.5" y1="7.5" x2="62.5" y2="0" style="stroke-width:3" /><line x1="125.0" y1="7.5" x2="125.0" y2="0" style="stroke-width:3" /></g><g><g transform="translate(0.0,12.0)"><text x="-15.568" y="13.687999999999999" style="fill:rgb(16.1%,15.3%,14.1%);fill-opacity:1.0;font-family:helvetica;font-size:16.0px;font-weight:normal;stroke:none;vertical-align:baseline;white-space:pre">0.99</text></g><g transform="translate(62.5,12.0)"><text x="-15.568" y="13.687999999999999" style="fill:rgb(16.1%,15.3%,14.1%);fill-opacity:1.0;font-family:helvetica;font-size:16.0px;font-weight:normal;stroke:none;vertical-align:baseline;white-space:pre">1.00</text></g><g transform="translate(125.0,12.0)"><text x="-15.568" y="13.687999999999999" style="fill:rgb(16.1%,15.3%,14.1%);fill-opacity:1.0;font-family:helvetica;font-size:16.0px;font-weight:normal;stroke:none;vertical-align:baseline;white-space:pre">1.01</text></g></g><g class="toyplot-coordinates-Axis-coordinates" style="visibility:hidden" transform=""><line x1="0" x2="0" y1="-6.0" y2="9.0" style="stroke:rgb(43.9%,50.2%,56.5%);stroke-opacity:1.0;stroke-width:1.0" /><text x="0" y="-12.0" style="alignment-baseline:alphabetic;fill:rgb(43.9%,50.2%,56.5%);fill-opacity:1.0;font-size:10px;font-weight:normal;stroke:none;text-anchor:middle" /></g></g><g class="toyplot-coordinates-Axis" id="t648ab3ec2b8044989eddde6096c19c04" transform="translate(50.0,175.0)rotate(-90.0)translate(0,-10.0)"><line x1="0" y1="0" x2="125.0" y2="0" style="stroke-width:3" /><g><line x1="0.0" y1="-7.5" x2="0.0" y2="0" style="stroke-width:3" /><line x1="31.25" y1="-7.5" x2="31.25" y2="0" style="stroke-width:3" /><line x1="62.5" y1="-7.5" x2="62.5" y2="0" style="stroke-width:3" /><line x1="93.75" y1="-7.5" x2="93.75" y2="0" style="stroke-width:3" /><line x1="125.0" y1="-7.5" x2="125.0" y2="0" style="stroke-width:3" /></g><g class="toyplot-coordinates-Axis-coordinates" style="visibility:hidden" transform=""><line x1="0" x2="0" y1="6.0" y2="-9.0" style="stroke:rgb(43.9%,50.2%,56.5%);stroke-opacity:1.0;stroke-width:1.0" /><text x="0" y="12.0" style="alignment-baseline:hanging;fill:rgb(43.9%,50.2%,56.5%);fill-opacity:1.0;font-size:10px;font-weight:normal;stroke:none;text-anchor:middle" /></g></g></g></svg>