<svg class="toyplot-canvas-Canvas" xmlns:toyplot="http://www.sandia.gov/toyplot" xmlns:xlink="http://www.w3.org/1999/xlink" xmlns="http://www.w3.org/2000/svg" width="450.0px" height="225.0px" viewBox="0 0 450.0 225.0" preserveAspectRatio="xMidYMid meet" style="background-color:transparent;border-color:#292724;border-style:none;border-width:1.0;fill:rgb(16.1%,15.3%,14.1%);fill-opacity:1.0;font-family:Helvetica;font-size:12px;opacity:1.0;stroke:rgb(16.1%,15.3%,14.1%);stroke-opacity:1.0;stroke-width:1.0" id="t52d1ffae754e426eabce40a513053db9"><g class="toyplot-coordinates-Cartesian" id="ta7a8f4fd4544467999d34a9cfd0aa1ea"><clipPath id="t2b45fbf3679c450e9659cb378f801f62"><rect x="40.0" y="40.0" width="370.0" height="145.0" /></clipPath><g clip-path="url(#t2b45fbf3679c450e9659cb378f801f62)"><g class="toyplot-mark-FillBoundaries" style="stroke:none" id="td093895e68b743e398ecc6b6c6f612a1"><polygon points="64.49284696302944,175.0 67.05941351794435,175.0 69.62598007285929,175.0 72.19254662777425,175.0 74.75911318268918,175.0 77.32567973760409,175.0 79.89224629251905,175.0 82.45881284743398,175.0 85.0253794023489,175.0 87.59194595726385,175.0 90.15851251217877,175.0 92.72507906709373,175.0 95.29164562200863,175.0 97.85821217692359,175.0 100.42477873183849,175.0 102.99134528675343,175.0 105.55791184166839,175.0 108.12447839658333,175.0 110.69104495149824,175.0 113.25761150641318,175.0 115.82417806132813,175.0 118.39074461624304,175.0 120.95731117115798,175.0 123.52387772607293,175.0 126.09044428098787,175.0 128.6570108359028,175.0 131.22357739081772,175.0 133.79014394573264,175.0 136.35671050064758,175.0 138.92327705556255,175.0 138.92327705556255,174.588257984972 136.35671050064758,174.8353031939888 133.79014394573264,174.01181916393278 131.22357739081772,172.69424471584318 128.6570108359028,171.706063879776 126.09044428098787,166.27106928140637 123.52387772607293,161.00077148904793 120.95731117115798,151.1189631283759 118.39074461624304,138.02556705048505 115.82417806132813,123.12050610647181 113.25761150641318,105.33325105726212 110.69104495149824,91.08697733729238 108.12447839658333,78.8994136924644 105.55791184166839,55.6771640448851 102.99134528675343,57.81822252303074 100.42477873183849,61.93564267330956 97.85821217692359,73.5467674971004 95.29164562200863,92.1575065763652 92.72507906709373,105.16855425125092 90.15851251217877,125.75565500265101 87.59194595726385,140.49601914065346 85.0253794023489,150.21313069531405 82.45881284743398,160.67137787702555 79.89224629251905,166.18872087840077 77.32567973760409,170.80023144671432 74.75911318268918,172.4471995068264 72.19254662777425,173.84712235792162 69.62598007285929,174.75295479098318 67.05941351794435,174.67060638797759 64.49284696302944,174.75295479098318" style="fill:rgb(40%,76.1%,64.7%);fill-opacity:1.0;opacity:0.3;stroke:none" /></g><g class="toyplot-mark-FillBoundaries" style="stroke:none" id="ta8c580cbb2b34cccb3723d70af9647d7"><polygon points="85.0253794023489,175.0 87.59194595726385,175.0 90.15851251217877,175.0 92.72507906709373,175.0 95.29164562200863,175.0 97.85821217692359,175.0 100.42477873183849,175.0 102.99134528675343,175.0 105.55791184166839,175.0 108.12447839658333,175.0 110.69104495149824,175.0 113.25761150641318,175.0 115.82417806132813,175.0 118.39074461624304,175.0 120.95731117115798,175.0 120.95731117115798,151.1189631283759 118.39074461624304,138.02556705048505 115.82417806132813,123.12050610647181 113.25761150641318,105.33325105726212 110.69104495149824,91.08697733729238 108.12447839658333,78.8994136924644 105.55791184166839,55.6771640448851 102.99134528675343,57.81822252303074 100.42477873183849,61.93564267330956 97.85821217692359,73.5467674971004 95.29164562200863,92.1575065763652 92.72507906709373,105.16855425125092 90.15851251217877,125.75565500265101 87.59194595726385,140.49601914065346 85.0253794023489,150.21313069531405" style="fill:rgb(40%,76.1%,64.7%);fill-opacity:1.0;opacity:0.5;stroke:none" /></g><g class="toyplot-mark-Plot" style="fill:none;stroke-width:3" id="t1bf473cc5311448a9e21b7a8fdf0aa4d"><g class="toyplot-Series"><path d="M 64.49284696302944 174.75295479098318 L 67.05941351794435 174.67060638797759 L 69.62598007285929 174.75295479098318 L 72.19254662777425 173.84712235792162 L 74.75911318268918 172.4471995068264 L 77.32567973760409 170.80023144671432 L 79.89224629251905 166.18872087840077 L 82.45881284743398 160.67137787702555 L 85.0253794023489 150.21313069531405 L 87.59194595726385 140.49601914065346 L 90.15851251217877 125.75565500265101 L 92.72507906709373 105.16855425125092 L 95.29164562200863 92.1575065763652 L 97.85821217692359 73.5467674971004 L 100.42477873183849 61.93564267330956 L 102.99134528675343 57.81822252303074 L 105.55791184166839 55.6771640448851 L 108.12447839658333 78.8994136924644 L 110.69104495149824 91.08697733729238 L 113.25761150641318 105.33325105726212 L 115.82417806132813 123.12050610647181 L 118.39074461624304 138.02556705048505 L 120.95731117115798 151.1189631283759 L 123.52387772607293 161.00077148904793 L 126.09044428098787 166.27106928140637 L 128.6570108359028 171.706063879776 L 131.22357739081772 172.69424471584318 L 133.79014394573264 174.01181916393278 L 136.35671050064758 174.8353031939888 L 138.92327705556255 174.588257984972" style="stroke:rgb(40%,76.1%,64.7%);stroke-opacity:1.0;stroke-width:3" /></g></g><g class="toyplot-mark-FillBoundaries" style="stroke:none" id="t780ac608421146bba259d799203085fa"><polygon points="156.53001766934187,175.0 159.03892175451182,175.0 161.54782583968176,175.0 164.0567299248517,175.0 166.5656340100217,175.0 169.07453809519168,175.0 171.58344218036163,175.0 174.09234626553157,175.0 176.60125035070158,175.0 179.11015443587152,175.0 181.61905852104147,175.0 184.1279626062114,175.0 186.63686669138139,175.0 189.1457707765513,175.0 191.65467486172133,175.0 194.16357894689128,175.0 196.67248303206125,175.0 199.18138711723122,175.0 201.69029120240117,175.0 204.19919528757114,175.0 206.7080993727411,175.0 209.21700345791103,175.0 211.72590754308098,175.0 214.23481162825098,175.0 216.74371571342095,175.0 219.2526197985909,175.0 221.7615238837609,175.0 224.27042796893085,175.0 226.77933205410076,175.0 229.2882361392707,175.0 229.2882361392707,174.91575897291008 226.77933205410076,174.91575897291008 224.27042796893085,174.32607178328058 221.7615238837609,172.9782153498418 219.2526197985909,171.29339480804322 216.74371571342095,167.24982550772668 214.23481162825098,164.89107674920896 211.72590754308098,151.58099446900022 209.21700345791103,140.88238402857945 206.7080993727411,127.82502482964074 204.19919528757114,107.3544552467884 201.69029120240117,90.67473188298283 199.18138711723122,85.36754717631933 196.67248303206125,64.05456732256579 194.16357894689128,56.80983899283204 191.65467486172133,53.608679963417416 189.1457707765513,64.39153143092551 186.63686669138139,79.38643425293253 184.1279626062114,98.08794226689642 181.61905852104147,116.45248617250054 179.11015443587152,133.38493261757594 176.60125035070158,150.14889700847198 174.09234626553157,161.0159895030721 171.58344218036163,165.39652291174826 169.07453809519168,170.28250248296408 166.5656340100217,172.55701021439216 164.0567299248517,173.56790253947125 161.54782583968176,174.41031281037053 159.03892175451182,174.74727691873022 156.53001766934187,174.91575897291008" style="fill:rgb(98.8%,55.3%,38.4%);fill-opacity:1.0;opacity:0.3;stroke:none" /></g><g class="toyplot-mark-FillBoundaries" style="stroke:none" id="t9db8d4060a3f44efa181ba192654d40f"><polygon points="176.60125035070158,175.0 179.11015443587152,175.0 181.61905852104147,175.0 184.1279626062114,175.0 186.63686669138139,175.0 189.1457707765513,175.0 191.65467486172133,175.0 194.16357894689128,175.0 196.67248303206125,175.0 199.18138711723122,175.0 201.69029120240117,175.0 204.19919528757114,175.0 206.7080993727411,175.0 209.21700345791103,175.0 209.21700345791103,140.88238402857945 206.7080993727411,127.82502482964074 204.19919528757114,107.3544552467884 201.69029120240117,90.67473188298283 199.18138711723122,85.36754717631933 196.67248303206125,64.05456732256579 194.16357894689128,56.80983899283204 191.65467486172133,53.608679963417416 189.1457707765513,64.39153143092551 186.63686669138139,79.38643425293253 184.1279626062114,98.08794226689642 181.61905852104147,116.45248617250054 179.11015443587152,133.38493261757594 176.60125035070158,150.14889700847198" style="fill:rgb(98.8%,55.3%,38.4%);fill-opacity:1.0;opacity:0.5;stroke:none" /></g><g class="toyplot-mark-Plot" style="fill:none;stroke-width:3" id="tec41fa0dac894486bd542e890a438371"><g class="toyplot-Series"><path d="M 156.53001766934187 174.91575897291008 L 159.03892175451182 174.74727691873022 L 161.54782583968176 174.41031281037053 L 164.0567299248517 173.56790253947125 L 166.5656340100217 172.55701021439216 L 169.07453809519168 170.28250248296408 L 171.58344218036163 165.39652291174826 L 174.09234626553157 161.0159895030721 L 176.60125035070158 150.14889700847198 L 179.11015443587152 133.38493261757594 L 181.61905852104147 116.45248617250054 L 184.1279626062114 98.08794226689642 L 186.63686669138139 79.38643425293253 L 189.1457707765513 64.39153143092551 L 191.65467486172133 53.608679963417416 L 194.16357894689128 56.80983899283204 L 196.67248303206125 64.05456732256579 L 199.18138711723122 85.36754717631933 L 201.69029120240117 90.67473188298283 L 204.19919528757114 107.3544552467884 L 206.7080993727411 127.82502482964074 L 209.21700345791103 140.88238402857945 L 211.72590754308098 151.58099446900022 L 214.23481162825098 164.89107674920896 L 216.74371571342095 167.24982550772668 L 219.2526197985909 171.29339480804322 L 221.7615238837609 172.9782153498418 L 224.27042796893085 174.32607178328058 L 226.77933205410076 174.91575897291008 L 229.2882361392707 174.91575897291008" style="stroke:rgb(98.8%,55.3%,38.4%);stroke-opacity:1.0;stroke-width:3" /></g></g><g class="toyplot-mark-FillBoundaries" style="stroke:none" id="t07d339f5fffe42fe86e82e81761afbe9"><polygon points="194.9249174640172,175.0 201.61669929176543,175.0 208.30848111951371,175.0 215.000262947262,175.0 221.6920447750102,175.0 228.38382660275846,175.0 235.07560843050675,175.0 241.76739025825498,175.0 248.45917208600324,175.0 255.1509539137515,175.0 261.8427357414998,175.0 268.534517569248,175.0 275.22629939699624,175.0 281.91808122474447,175.0 288.60986305249276,175.0 295.30164488024104,175.0 301.9934267079893,175.0 308.6852085357375,175.0 315.3769903634858,175.0 322.068772191234,175.0 328.7605540189823,175.0 335.45233584673053,175.0 342.1441176744788,175.0 348.83589950222705,175.0 355.52768132997534,175.0 362.21946315772357,175.0 368.9112449854718,175.0 375.6030268132201,175.0 382.2948086409683,175.0 388.98659046871654,175.0 388.98659046871654,174.9368321734195 382.2948086409683,174.90524826012924 375.6030268132201,174.6525769538073 368.9112449854718,174.49465738735609 362.21946315772357,174.05248260129267 355.52768132997534,173.79981129497074 348.83589950222705,172.31536737032926 342.1441176744788,170.70458779252684 335.45233584673053,168.17787472930732 328.7605540189823,164.4193890477683 322.068772191234,161.9558438111292 315.3769903634858,154.50204027463175 308.6852085357375,149.35386240832176 301.9934267079893,143.51083844962687 295.30164488024104,140.03660798770005 288.60986305249276,135.36218882074397 281.91808122474447,135.74119578022658 275.22629939699624,133.53032184990983 268.534517569248,138.23632493015586 261.8427357414998,141.9948106116952 255.1509539137515,146.79556543181224 248.45917208600324,153.87036200882687 241.76739025825498,159.08170770171697 235.07560843050675,164.19830165473658 228.38382660275846,168.49371386220975 221.6920447750102,170.26241300646336 215.000262947262,172.31536737032928 208.30848111951371,173.54713998864878 201.61669929176543,174.21040216774392 194.9249174640172,174.68416086709755" style="fill:rgb(55.3%,62.7%,79.6%);fill-opacity:1.0;opacity:0.3;stroke:none" /></g><g class="toyplot-mark-FillBoundaries" style="stroke:none" id="tf25dfaaddc604f538e9d2590d0447be6"><polygon points="228.38382660275846,175.0 235.07560843050675,175.0 241.76739025825498,175.0 248.45917208600324,175.0 255.1509539137515,175.0 261.8427357414998,175.0 268.534517569248,175.0 275.22629939699624,175.0 281.91808122474447,175.0 288.60986305249276,175.0 295.30164488024104,175.0 301.9934267079893,175.0 308.6852085357375,175.0 315.3769903634858,175.0 322.068772191234,175.0 328.7605540189823,175.0 328.7605540189823,164.4193890477683 322.068772191234,161.9558438111292 315.3769903634858,154.50204027463175 308.6852085357375,149.35386240832176 301.9934267079893,143.51083844962687 295.30164488024104,140.03660798770005 288.60986305249276,135.36218882074397 281.91808122474447,135.74119578022658 275.22629939699624,133.53032184990983 268.534517569248,138.23632493015586 261.8427357414998,141.9948106116952 255.1509539137515,146.79556543181224 248.45917208600324,153.87036200882687 241.76739025825498,159.08170770171697 235.07560843050675,164.19830165473658 228.38382660275846,168.49371386220975" style="fill:rgb(55.3%,62.7%,79.6%);fill-opacity:1.0;opacity:0.5;stroke:none" /></g><g class="toyplot-mark-Plot" style="fill:none;stroke-width:3" id="t14a73f63c37742599fe6c26ff6202f58"><g class="toyplot-Series"><path d="M 194.9249174640172 174.68416086709755 L 201.61669929176543 174.21040216774392 L 208.30848111951371 173.54713998864878 L 215.000262947262 172.31536737032928 L 221.6920447750102 170.26241300646336 L 228.38382660275846 168.49371386220975 L 235.07560843050675 164.19830165473658 L 241.76739025825498 159.08170770171697 L 248.45917208600324 153.87036200882687 L 255.1509539137515 146.79556543181224 L 261.8427357414998 141.9948106116952 L 268.534517569248 138.23632493015586 L 275.22629939699624 133.53032184990983 L 281.91808122474447 135.74119578022658 L 288.60986305249276 135.36218882074397 L 295.30164488024104 140.03660798770005 L 301.9934267079893 143.51083844962687 L 308.6852085357375 149.35386240832176 L 315.3769903634858 154.50204027463175 L 322.068772191234 161.9558438111292 L 328.7605540189823 164.4193890477683 L 335.45233584673053 168.17787472930732 L 342.1441176744788 170.70458779252684 L 348.83589950222705 172.31536737032926 L 355.52768132997534 173.79981129497074 L 362.21946315772357 174.05248260129267 L 368.9112449854718 174.49465738735609 L 375.6030268132201 174.6525769538073 L 382.2948086409683 174.90524826012924 L 388.98659046871654 174.9368321734195" style="stroke:rgb(55.3%,62.7%,79.6%);stroke-opacity:1.0;stroke-width:3" /></g></g><g class="toyplot-mark-AxisLines" style="stroke:rgb(40%,76.1%,64.7%);stroke-dasharray:4,4;stroke-opacity:1.0;stroke-width:3" id="t84fb908c73814687b364ae54e8a6305b"><g class="toyplot-Series"><line class="toyplot-Datum" x1="96.66666666666667" x2="96.66666666666667" y1="50.0" y2="175.0" style="opacity:1.0;stroke:rgb(40%,76.1%,64.7%);stroke-dasharray:4,4;stroke-opacity:1.0;stroke-width:3" /></g></g><g class="toyplot-mark-AxisLines" style="stroke:rgb(98.8%,55.3%,38.4%);stroke-dasharray:4,4;stroke-opacity:1.0;stroke-width:3" id="td9c774598dbf48ddafea46d4c31c1a65"><g class="toyplot-Series"><line class="toyplot-Datum" x1="190.0" x2="190.0" y1="50.0" y2="175.0" style="opacity:1.0;stroke:rgb(98.8%,55.3%,38.4%);stroke-dasharray:4,4;stroke-opacity:1.0;stroke-width:3" /></g></g><g class="toyplot-mark-AxisLines" style="stroke:rgb(55.3%,62.7%,79.6%);stroke-dasharray:4,4;stroke-opacity:1.0;stroke-width:3" id="t2d5d740be3414b7894062f00fa0c1364"><g class="toyplot-Series"><line class="toyplot-Datum" x1="283.3333333333333" x2="283.3333333333333" y1="50.0" y2="175.0" style="opacity:1.0;stroke:rgb(55.3%,62.7%,79.6%);stroke-dasharray:4,4;stroke-opacity:1.0;stroke-width:3" /></g></g></g><g class="toyplot-coordinates-Axis" id="tb5a3679c07fa47ef916c79b20a4927be" transform="translate(50.0,175.0)translate(0,10.0)"><line x1="0" y1="0" x2="350.0" y2="0" style="stroke-width:3" /><g><line x1="46.666666666666664" y1="7.5" x2="46.666666666666664" y2="0" style="stroke-width:3" /><line x1="140.0" y1="7.5" x2="140.0" y2="0" style="stroke-width:3" /><line x1="233.33333333333331" y1="7.5" x2="233.33333333333331" y2="0" style="stroke-width:3" /><line x1="326.6666666666667" y1="7.5" x2="326.6666666666667" y2="0" style="stroke-width:3" /></g><g><g transform="translate(46.666666666666664,12.0)"><text x="-26.688" y="13.687999999999999" style="fill:rgb(16.1%,15.3%,14.1%);fill-opacity:1.0;font-family:helvetica;font-size:16.0px;font-weight:normal;stroke:none;vertical-align:baseline;white-space:pre">200000</text></g><g transform="translate(140.0,12.0)"><text x="-26.688" y="13.687999999999999" style="fill:rgb(16.1%,15.3%,14.1%);fill-opacity:1.0;font-family:helvetica;font-size:16.0px;font-weight:normal;stroke:none;vertical-align:baseline;white-space:pre">300000</text></g><g transform="translate(233.33333333333331,12.0)"><text x="-26.688" y="13.687999999999999" style="fill:rgb(16.1%,15.3%,14.1%);fill-opacity:1.0;font-family:helvetica;font-size:16.0px;font-weight:normal;stroke:none;vertical-align:baseline;white-space:pre">400000</text></g><g transform="translate(326.6666666666667,12.0)"><text x="-26.688" y="13.687999999999999" style="fill:rgb(16.1%,15.3%,14.1%);fill-opacity:1.0;font-family:helvetica;font-size:16.0px;font-weight:normal;stroke:none;vertical-align:baseline;white-space:pre">500000</text></g></g><g class="toyplot-coordinates-Axis-coordinates" style="visibility:hidden" transform=""><line x1="0" x2="0" y1="-6.0" y2="9.0" style="stroke:rgb(43.9%,50.2%,56.5%);stroke-opacity:1.0;stroke-width:1.0" /><text x="0" y="-12.0" style="alignment-baseline:alphabetic;fill:rgb(43.9%,50.2%,56.5%);fill-opacity:1.0;font-size:10px;font-weight:normal;stroke:none;text-anchor:middle" /></g></g><g class="toyplot-coordinates-Axis" id="t592b4afd1af64f338709b0dbcd61c5f1" transform="translate(50.0,175.0)rotate(-90.0)translate(0,-10.0)"><line x1="0" y1="0" x2="125.0" y2="0" style="stroke-width:3" /><g><line x1="0.0" y1="-7.5" x2="0.0" y2="0" style="stroke-width:3" /><line x1="31.25" y1="-7.5" x2="31.25" y2="0" style="stroke-width:3" /><line x1="62.5" y1="-7.5" x2="62.5" y2="0" style="stroke-width:3" /><line x1="93.75" y1="-7.5" x2="93.75" y2="0" style="stroke-width:3" /><line x1="125.0" y1="-7.5" x2="125.0" y2="0" style="stroke-width:3" /></g><g class="toyplot-coordinates-Axis-coordinates" style="visibility:hidden" transform=""><line x1="0" x2="0" y1="6.0" y2="-9.0" style="stroke:rgb(43.9%,50.2%,56.5%);stroke-opacity:1.0;stroke-width:1.0" /><text x="0" y="12.0" style="alignment-baseline:hanging;fill:rgb(43.9%,50.2%,56.5%);fill-opacity:1.0;font-size:10px;font-weight:normal;stroke:none;text-anchor:middle" /></g></g></g></svg>